<?xml version="1.0" encoding="utf-8"?>
<svg xmlns="http://www.w3.org/2000/svg" xmlns:xlink="http://www.w3.org/1999/xlink" width="900" height="600" viewBox="0 0 3600 2400">
<defs>
  <clipPath id="clip710">
    <rect x="0" y="0" width="3600" height="2400"/>
  </clipPath>
</defs>
<path clip-path="url(#clip710)" d="M0 2400 L3600 2400 L3600 0 L0 0  Z" fill="#ffffff" fill-rule="evenodd" fill-opacity="1"/>
<defs>
  <clipPath id="clip711">
    <rect x="246" y="246" width="3308" height="1911"/>
  </clipPath>
</defs>
<path clip-path="url(#clip710)" d="M359.923 2156.51 L3552.76 2156.51 L3552.76 246.944 L359.923 246.944  Z" fill="#ffffff" fill-rule="evenodd" fill-opacity="1"/>
<defs>
  <clipPath id="clip712">
    <rect x="359" y="246" width="3194" height="1911"/>
  </clipPath>
</defs>
<polyline clip-path="url(#clip712)" style="stroke:#000000; stroke-linecap:round; stroke-linejoin:round; stroke-width:2; stroke-opacity:0.1; fill:none" points="505.052,2156.51 505.052,246.944 "/>
<polyline clip-path="url(#clip712)" style="stroke:#000000; stroke-linecap:round; stroke-linejoin:round; stroke-width:2; stroke-opacity:0.1; fill:none" points="2157.56,2156.51 2157.56,246.944 "/>
<polyline clip-path="url(#clip712)" style="stroke:#000000; stroke-linecap:round; stroke-linejoin:round; stroke-width:2; stroke-opacity:0.1; fill:none" points="3407.63,2156.51 3407.63,246.944 "/>
<polyline clip-path="url(#clip712)" style="stroke:#000000; stroke-linecap:round; stroke-linejoin:round; stroke-width:2; stroke-opacity:0.1; fill:none" points="359.923,1924.79 3552.76,1924.79 "/>
<polyline clip-path="url(#clip712)" style="stroke:#000000; stroke-linecap:round; stroke-linejoin:round; stroke-width:2; stroke-opacity:0.1; fill:none" points="359.923,1474.36 3552.76,1474.36 "/>
<polyline clip-path="url(#clip712)" style="stroke:#000000; stroke-linecap:round; stroke-linejoin:round; stroke-width:2; stroke-opacity:0.1; fill:none" points="359.923,1023.92 3552.76,1023.92 "/>
<polyline clip-path="url(#clip712)" style="stroke:#000000; stroke-linecap:round; stroke-linejoin:round; stroke-width:2; stroke-opacity:0.1; fill:none" points="359.923,573.482 3552.76,573.482 "/>
<polyline clip-path="url(#clip710)" style="stroke:#000000; stroke-linecap:round; stroke-linejoin:round; stroke-width:4; stroke-opacity:1; fill:none" points="359.923,2156.51 3552.76,2156.51 "/>
<polyline clip-path="url(#clip710)" style="stroke:#000000; stroke-linecap:round; stroke-linejoin:round; stroke-width:4; stroke-opacity:1; fill:none" points="505.052,2156.51 505.052,2137.61 "/>
<polyline clip-path="url(#clip710)" style="stroke:#000000; stroke-linecap:round; stroke-linejoin:round; stroke-width:4; stroke-opacity:1; fill:none" points="2157.56,2156.51 2157.56,2137.61 "/>
<polyline clip-path="url(#clip710)" style="stroke:#000000; stroke-linecap:round; stroke-linejoin:round; stroke-width:4; stroke-opacity:1; fill:none" points="3407.63,2156.51 3407.63,2137.61 "/>
<path clip-path="url(#clip710)" d="M468.744 2224.57 L485.064 2224.57 L485.064 2228.51 L463.119 2228.51 L463.119 2224.57 Q465.781 2221.82 470.365 2217.19 Q474.971 2212.54 476.152 2211.19 Q478.397 2208.67 479.277 2206.93 Q480.179 2205.17 480.179 2203.48 Q480.179 2200.73 478.235 2198.99 Q476.314 2197.26 473.212 2197.26 Q471.013 2197.26 468.559 2198.02 Q466.129 2198.79 463.351 2200.34 L463.351 2195.61 Q466.175 2194.48 468.628 2193.9 Q471.082 2193.32 473.119 2193.32 Q478.49 2193.32 481.684 2196.01 Q484.878 2198.69 484.878 2203.18 Q484.878 2205.31 484.068 2207.23 Q483.281 2209.13 481.175 2211.73 Q480.596 2212.4 477.494 2215.61 Q474.392 2218.81 468.744 2224.57 Z" fill="#000000" fill-rule="nonzero" fill-opacity="1" /><path clip-path="url(#clip710)" d="M504.878 2197.03 Q501.267 2197.03 499.439 2200.59 Q497.633 2204.13 497.633 2211.26 Q497.633 2218.37 499.439 2221.93 Q501.267 2225.48 504.878 2225.48 Q508.513 2225.48 510.318 2221.93 Q512.147 2218.37 512.147 2211.26 Q512.147 2204.13 510.318 2200.59 Q508.513 2197.03 504.878 2197.03 M504.878 2193.32 Q510.688 2193.32 513.744 2197.93 Q516.823 2202.51 516.823 2211.26 Q516.823 2219.99 513.744 2224.6 Q510.688 2229.18 504.878 2229.18 Q499.068 2229.18 495.989 2224.6 Q492.934 2219.99 492.934 2211.26 Q492.934 2202.51 495.989 2197.93 Q499.068 2193.32 504.878 2193.32 Z" fill="#000000" fill-rule="nonzero" fill-opacity="1" /><path clip-path="url(#clip710)" d="M535.04 2197.03 Q531.429 2197.03 529.6 2200.59 Q527.795 2204.13 527.795 2211.26 Q527.795 2218.37 529.6 2221.93 Q531.429 2225.48 535.04 2225.48 Q538.674 2225.48 540.48 2221.93 Q542.309 2218.37 542.309 2211.26 Q542.309 2204.13 540.48 2200.59 Q538.674 2197.03 535.04 2197.03 M535.04 2193.32 Q540.85 2193.32 543.906 2197.93 Q546.985 2202.51 546.985 2211.26 Q546.985 2219.99 543.906 2224.6 Q540.85 2229.18 535.04 2229.18 Q529.23 2229.18 526.151 2224.6 Q523.096 2219.99 523.096 2211.26 Q523.096 2202.51 526.151 2197.93 Q529.23 2193.32 535.04 2193.32 Z" fill="#000000" fill-rule="nonzero" fill-opacity="1" /><path clip-path="url(#clip710)" d="M2117.17 2193.95 L2135.53 2193.95 L2135.53 2197.88 L2121.46 2197.88 L2121.46 2206.36 Q2122.48 2206.01 2123.49 2205.85 Q2124.51 2205.66 2125.53 2205.66 Q2131.32 2205.66 2134.7 2208.83 Q2138.08 2212 2138.08 2217.42 Q2138.08 2223 2134.6 2226.1 Q2131.13 2229.18 2124.81 2229.18 Q2122.64 2229.18 2120.37 2228.81 Q2118.12 2228.44 2115.72 2227.7 L2115.72 2223 Q2117.8 2224.13 2120.02 2224.69 Q2122.24 2225.24 2124.72 2225.24 Q2128.73 2225.24 2131.06 2223.14 Q2133.4 2221.03 2133.4 2217.42 Q2133.4 2213.81 2131.06 2211.7 Q2128.73 2209.6 2124.72 2209.6 Q2122.85 2209.6 2120.97 2210.01 Q2119.12 2210.43 2117.17 2211.31 L2117.17 2193.95 Z" fill="#000000" fill-rule="nonzero" fill-opacity="1" /><path clip-path="url(#clip710)" d="M2157.29 2197.03 Q2153.68 2197.03 2151.85 2200.59 Q2150.04 2204.13 2150.04 2211.26 Q2150.04 2218.37 2151.85 2221.93 Q2153.68 2225.48 2157.29 2225.48 Q2160.92 2225.48 2162.73 2221.93 Q2164.56 2218.37 2164.56 2211.26 Q2164.56 2204.13 2162.73 2200.59 Q2160.92 2197.03 2157.29 2197.03 M2157.29 2193.32 Q2163.1 2193.32 2166.16 2197.93 Q2169.23 2202.51 2169.23 2211.26 Q2169.23 2219.99 2166.16 2224.6 Q2163.1 2229.18 2157.29 2229.18 Q2151.48 2229.18 2148.4 2224.6 Q2145.35 2219.99 2145.35 2211.26 Q2145.35 2202.51 2148.4 2197.93 Q2151.48 2193.32 2157.29 2193.32 Z" fill="#000000" fill-rule="nonzero" fill-opacity="1" /><path clip-path="url(#clip710)" d="M2187.45 2197.03 Q2183.84 2197.03 2182.01 2200.59 Q2180.21 2204.13 2180.21 2211.26 Q2180.21 2218.37 2182.01 2221.93 Q2183.84 2225.48 2187.45 2225.48 Q2191.09 2225.48 2192.89 2221.93 Q2194.72 2218.37 2194.72 2211.26 Q2194.72 2204.13 2192.89 2200.59 Q2191.09 2197.03 2187.45 2197.03 M2187.45 2193.32 Q2193.26 2193.32 2196.32 2197.93 Q2199.4 2202.51 2199.4 2211.26 Q2199.4 2219.99 2196.32 2224.6 Q2193.26 2229.18 2187.45 2229.18 Q2181.64 2229.18 2178.56 2224.6 Q2175.51 2219.99 2175.51 2211.26 Q2175.51 2202.51 2178.56 2197.93 Q2181.64 2193.32 2187.45 2193.32 Z" fill="#000000" fill-rule="nonzero" fill-opacity="1" /><path clip-path="url(#clip710)" d="M3352.15 2224.57 L3359.79 2224.57 L3359.79 2198.21 L3351.48 2199.87 L3351.48 2195.61 L3359.75 2193.95 L3364.42 2193.95 L3364.42 2224.57 L3372.06 2224.57 L3372.06 2228.51 L3352.15 2228.51 L3352.15 2224.57 Z" fill="#000000" fill-rule="nonzero" fill-opacity="1" /><path clip-path="url(#clip710)" d="M3391.5 2197.03 Q3387.89 2197.03 3386.06 2200.59 Q3384.26 2204.13 3384.26 2211.26 Q3384.26 2218.37 3386.06 2221.93 Q3387.89 2225.48 3391.5 2225.48 Q3395.14 2225.48 3396.94 2221.93 Q3398.77 2218.37 3398.77 2211.26 Q3398.77 2204.13 3396.94 2200.59 Q3395.14 2197.03 3391.5 2197.03 M3391.5 2193.32 Q3397.31 2193.32 3400.37 2197.93 Q3403.45 2202.51 3403.45 2211.26 Q3403.45 2219.99 3400.37 2224.6 Q3397.31 2229.18 3391.5 2229.18 Q3385.69 2229.18 3382.62 2224.6 Q3379.56 2219.99 3379.56 2211.26 Q3379.56 2202.51 3382.62 2197.93 Q3385.69 2193.32 3391.5 2193.32 Z" fill="#000000" fill-rule="nonzero" fill-opacity="1" /><path clip-path="url(#clip710)" d="M3421.67 2197.03 Q3418.06 2197.03 3416.23 2200.59 Q3414.42 2204.13 3414.42 2211.26 Q3414.42 2218.37 3416.23 2221.93 Q3418.06 2225.48 3421.67 2225.48 Q3425.3 2225.48 3427.11 2221.93 Q3428.93 2218.37 3428.93 2211.26 Q3428.93 2204.13 3427.11 2200.59 Q3425.3 2197.03 3421.67 2197.03 M3421.67 2193.32 Q3427.48 2193.32 3430.53 2197.93 Q3433.61 2202.51 3433.61 2211.26 Q3433.61 2219.99 3430.53 2224.6 Q3427.48 2229.18 3421.67 2229.18 Q3415.86 2229.18 3412.78 2224.6 Q3409.72 2219.99 3409.72 2211.26 Q3409.72 2202.51 3412.78 2197.93 Q3415.86 2193.32 3421.67 2193.32 Z" fill="#000000" fill-rule="nonzero" fill-opacity="1" /><path clip-path="url(#clip710)" d="M3451.83 2197.03 Q3448.22 2197.03 3446.39 2200.59 Q3444.58 2204.13 3444.58 2211.26 Q3444.58 2218.37 3446.39 2221.93 Q3448.22 2225.48 3451.83 2225.48 Q3455.46 2225.48 3457.27 2221.93 Q3459.1 2218.37 3459.1 2211.26 Q3459.1 2204.13 3457.27 2200.59 Q3455.46 2197.03 3451.83 2197.03 M3451.83 2193.32 Q3457.64 2193.32 3460.69 2197.93 Q3463.77 2202.51 3463.77 2211.26 Q3463.77 2219.99 3460.69 2224.6 Q3457.64 2229.18 3451.83 2229.18 Q3446.02 2229.18 3442.94 2224.6 Q3439.88 2219.99 3439.88 2211.26 Q3439.88 2202.51 3442.94 2197.93 Q3446.02 2193.32 3451.83 2193.32 Z" fill="#000000" fill-rule="nonzero" fill-opacity="1" /><path clip-path="url(#clip710)" d="M1832.22 2308.02 L1832.22 2296.42 L1822.67 2296.42 L1822.67 2291.62 L1838.01 2291.62 L1838.01 2310.17 Q1834.62 2312.57 1830.54 2313.81 Q1826.46 2315.03 1821.84 2315.03 Q1811.71 2315.03 1805.98 2309.12 Q1800.28 2303.19 1800.28 2292.63 Q1800.28 2282.04 1805.98 2276.14 Q1811.71 2270.21 1821.84 2270.21 Q1826.06 2270.21 1829.85 2271.25 Q1833.67 2272.29 1836.88 2274.32 L1836.88 2280.54 Q1833.64 2277.79 1829.99 2276.4 Q1826.35 2275.01 1822.33 2275.01 Q1814.4 2275.01 1810.41 2279.44 Q1806.44 2283.86 1806.44 2292.63 Q1806.44 2301.37 1810.41 2305.8 Q1814.4 2310.22 1822.33 2310.22 Q1825.42 2310.22 1827.85 2309.7 Q1830.28 2309.15 1832.22 2308.02 Z" fill="#000000" fill-rule="nonzero" fill-opacity="1" /><path clip-path="url(#clip710)" d="M1867.23 2286.76 Q1866.34 2286.24 1865.27 2286 Q1864.22 2285.74 1862.95 2285.74 Q1858.44 2285.74 1856.01 2288.7 Q1853.61 2291.62 1853.61 2297.12 L1853.61 2314.19 L1848.25 2314.19 L1848.25 2281.78 L1853.61 2281.78 L1853.61 2286.82 Q1855.28 2283.86 1857.97 2282.45 Q1860.67 2281 1864.51 2281 Q1865.06 2281 1865.73 2281.09 Q1866.39 2281.14 1867.21 2281.29 L1867.23 2286.76 Z" fill="#000000" fill-rule="nonzero" fill-opacity="1" /><path clip-path="url(#clip710)" d="M1872.82 2281.78 L1878.14 2281.78 L1878.14 2314.19 L1872.82 2314.19 L1872.82 2281.78 M1872.82 2269.16 L1878.14 2269.16 L1878.14 2275.91 L1872.82 2275.91 L1872.82 2269.16 Z" fill="#000000" fill-rule="nonzero" fill-opacity="1" /><path clip-path="url(#clip710)" d="M1910.61 2286.7 L1910.61 2269.16 L1915.93 2269.16 L1915.93 2314.19 L1910.61 2314.19 L1910.61 2309.33 Q1908.93 2312.22 1906.35 2313.64 Q1903.81 2315.03 1900.22 2315.03 Q1894.35 2315.03 1890.64 2310.34 Q1886.97 2305.65 1886.97 2298.01 Q1886.97 2290.37 1890.64 2285.69 Q1894.35 2281 1900.22 2281 Q1903.81 2281 1906.35 2282.42 Q1908.93 2283.81 1910.61 2286.7 M1892.47 2298.01 Q1892.47 2303.89 1894.87 2307.24 Q1897.3 2310.57 1901.52 2310.57 Q1905.75 2310.57 1908.18 2307.24 Q1910.61 2303.89 1910.61 2298.01 Q1910.61 2292.14 1908.18 2288.81 Q1905.75 2285.46 1901.52 2285.46 Q1897.3 2285.46 1894.87 2288.81 Q1892.47 2292.14 1892.47 2298.01 Z" fill="#000000" fill-rule="nonzero" fill-opacity="1" /><path clip-path="url(#clip710)" d="M1966.39 2282.74 L1966.39 2287.77 Q1964.14 2286.61 1961.71 2286.03 Q1959.28 2285.46 1956.67 2285.46 Q1952.71 2285.46 1950.71 2286.67 Q1948.74 2287.89 1948.74 2290.32 Q1948.74 2292.17 1950.16 2293.24 Q1951.58 2294.28 1955.86 2295.24 L1957.69 2295.64 Q1963.36 2296.86 1965.73 2299.08 Q1968.13 2301.28 1968.13 2305.25 Q1968.13 2309.76 1964.54 2312.39 Q1960.98 2315.03 1954.73 2315.03 Q1952.13 2315.03 1949.29 2314.51 Q1946.49 2314.01 1943.36 2313 L1943.36 2307.5 Q1946.31 2309.04 1949.18 2309.82 Q1952.04 2310.57 1954.85 2310.57 Q1958.61 2310.57 1960.64 2309.3 Q1962.66 2308 1962.66 2305.65 Q1962.66 2303.48 1961.19 2302.32 Q1959.74 2301.17 1954.79 2300.1 L1952.94 2299.66 Q1947.99 2298.62 1945.79 2296.48 Q1943.59 2294.31 1943.59 2290.55 Q1943.59 2285.98 1946.83 2283.49 Q1950.08 2281 1956.04 2281 Q1958.99 2281 1961.59 2281.43 Q1964.2 2281.87 1966.39 2282.74 Z" fill="#000000" fill-rule="nonzero" fill-opacity="1" /><path clip-path="url(#clip710)" d="M1976.61 2281.78 L1981.93 2281.78 L1981.93 2314.19 L1976.61 2314.19 L1976.61 2281.78 M1976.61 2269.16 L1981.93 2269.16 L1981.93 2275.91 L1976.61 2275.91 L1976.61 2269.16 Z" fill="#000000" fill-rule="nonzero" fill-opacity="1" /><path clip-path="url(#clip710)" d="M1990.76 2281.78 L2016.05 2281.78 L2016.05 2286.64 L1996.02 2309.93 L2016.05 2309.93 L2016.05 2314.19 L1990.03 2314.19 L1990.03 2309.33 L2010.06 2286.03 L1990.76 2286.03 L1990.76 2281.78 Z" fill="#000000" fill-rule="nonzero" fill-opacity="1" /><path clip-path="url(#clip710)" d="M2051.9 2296.65 L2051.9 2299.26 L2027.42 2299.26 Q2027.77 2304.75 2030.72 2307.65 Q2033.7 2310.51 2038.99 2310.51 Q2042.06 2310.51 2044.92 2309.76 Q2047.82 2309.01 2050.65 2307.5 L2050.65 2312.54 Q2047.79 2313.75 2044.78 2314.39 Q2041.77 2315.03 2038.67 2315.03 Q2030.92 2315.03 2026.38 2310.51 Q2021.86 2306 2021.86 2298.3 Q2021.86 2290.35 2026.15 2285.69 Q2030.46 2281 2037.75 2281 Q2044.29 2281 2048.08 2285.22 Q2051.9 2289.42 2051.9 2296.65 M2046.57 2295.09 Q2046.52 2290.72 2044.11 2288.12 Q2041.74 2285.51 2037.81 2285.51 Q2033.35 2285.51 2030.66 2288.03 Q2028 2290.55 2027.59 2295.12 L2046.57 2295.09 Z" fill="#000000" fill-rule="nonzero" fill-opacity="1" /><path clip-path="url(#clip710)" d="M2079.7 2270.99 L2087.57 2270.99 L2106.73 2307.13 L2106.73 2270.99 L2112.4 2270.99 L2112.4 2314.19 L2104.53 2314.19 L2085.38 2278.05 L2085.38 2314.19 L2079.7 2314.19 L2079.7 2270.99 Z" fill="#000000" fill-rule="nonzero" fill-opacity="1" /><polyline clip-path="url(#clip710)" style="stroke:#000000; stroke-linecap:round; stroke-linejoin:round; stroke-width:4; stroke-opacity:1; fill:none" points="359.923,2156.51 359.923,246.944 "/>
<polyline clip-path="url(#clip710)" style="stroke:#000000; stroke-linecap:round; stroke-linejoin:round; stroke-width:4; stroke-opacity:1; fill:none" points="359.923,1924.79 378.821,1924.79 "/>
<polyline clip-path="url(#clip710)" style="stroke:#000000; stroke-linecap:round; stroke-linejoin:round; stroke-width:4; stroke-opacity:1; fill:none" points="359.923,1474.36 378.821,1474.36 "/>
<polyline clip-path="url(#clip710)" style="stroke:#000000; stroke-linecap:round; stroke-linejoin:round; stroke-width:4; stroke-opacity:1; fill:none" points="359.923,1023.92 378.821,1023.92 "/>
<polyline clip-path="url(#clip710)" style="stroke:#000000; stroke-linecap:round; stroke-linejoin:round; stroke-width:4; stroke-opacity:1; fill:none" points="359.923,573.482 378.821,573.482 "/>
<path clip-path="url(#clip710)" d="M168.544 1944.58 L176.183 1944.58 L176.183 1918.22 L167.873 1919.89 L167.873 1915.63 L176.137 1913.96 L180.812 1913.96 L180.812 1944.58 L188.451 1944.58 L188.451 1948.52 L168.544 1948.52 L168.544 1944.58 Z" fill="#000000" fill-rule="nonzero" fill-opacity="1" /><path clip-path="url(#clip710)" d="M207.896 1917.04 Q204.285 1917.04 202.456 1920.6 Q200.65 1924.14 200.65 1931.27 Q200.65 1938.38 202.456 1941.95 Q204.285 1945.49 207.896 1945.49 Q211.53 1945.49 213.335 1941.95 Q215.164 1938.38 215.164 1931.27 Q215.164 1924.14 213.335 1920.6 Q211.53 1917.04 207.896 1917.04 M207.896 1913.33 Q213.706 1913.33 216.761 1917.94 Q219.84 1922.52 219.84 1931.27 Q219.84 1940 216.761 1944.61 Q213.706 1949.19 207.896 1949.19 Q202.085 1949.19 199.007 1944.61 Q195.951 1940 195.951 1931.27 Q195.951 1922.52 199.007 1917.94 Q202.085 1913.33 207.896 1913.33 Z" fill="#000000" fill-rule="nonzero" fill-opacity="1" /><path clip-path="url(#clip710)" d="M219.84 1907.44 L243.952 1907.44 L243.952 1910.63 L219.84 1910.63 L219.84 1907.44 Z" fill="#000000" fill-rule="nonzero" fill-opacity="1" /><path clip-path="url(#clip710)" d="M252.81 1917.91 L259.017 1917.91 L259.017 1896.49 L252.265 1897.84 L252.265 1894.38 L258.979 1893.03 L262.778 1893.03 L262.778 1917.91 L268.985 1917.91 L268.985 1921.11 L252.81 1921.11 L252.81 1917.91 Z" fill="#000000" fill-rule="nonzero" fill-opacity="1" /><path clip-path="url(#clip710)" d="M276.658 1916.33 L280.627 1916.33 L280.627 1921.11 L276.658 1921.11 L276.658 1916.33 Z" fill="#000000" fill-rule="nonzero" fill-opacity="1" /><path clip-path="url(#clip710)" d="M288.94 1893.03 L303.854 1893.03 L303.854 1896.23 L292.419 1896.23 L292.419 1903.11 Q293.247 1902.83 294.074 1902.7 Q294.902 1902.55 295.729 1902.55 Q300.431 1902.55 303.177 1905.12 Q305.923 1907.7 305.923 1912.1 Q305.923 1916.63 303.102 1919.15 Q300.281 1921.65 295.146 1921.65 Q293.378 1921.65 291.535 1921.35 Q289.711 1921.05 287.755 1920.45 L287.755 1916.63 Q289.448 1917.55 291.253 1918.01 Q293.059 1918.46 295.071 1918.46 Q298.325 1918.46 300.224 1916.75 Q302.124 1915.03 302.124 1912.1 Q302.124 1909.17 300.224 1907.45 Q298.325 1905.74 295.071 1905.74 Q293.548 1905.74 292.024 1906.08 Q290.52 1906.42 288.94 1907.14 L288.94 1893.03 Z" fill="#000000" fill-rule="nonzero" fill-opacity="1" /><path clip-path="url(#clip710)" d="M169.033 1494.15 L176.672 1494.15 L176.672 1467.78 L168.362 1469.45 L168.362 1465.19 L176.626 1463.52 L181.301 1463.52 L181.301 1494.15 L188.94 1494.15 L188.94 1498.08 L169.033 1498.08 L169.033 1494.15 Z" fill="#000000" fill-rule="nonzero" fill-opacity="1" /><path clip-path="url(#clip710)" d="M208.385 1466.6 Q204.774 1466.6 202.945 1470.17 Q201.139 1473.71 201.139 1480.84 Q201.139 1487.94 202.945 1491.51 Q204.774 1495.05 208.385 1495.05 Q212.019 1495.05 213.824 1491.51 Q215.653 1487.94 215.653 1480.84 Q215.653 1473.71 213.824 1470.17 Q212.019 1466.6 208.385 1466.6 M208.385 1462.9 Q214.195 1462.9 217.25 1467.5 Q220.329 1472.09 220.329 1480.84 Q220.329 1489.56 217.25 1494.17 Q214.195 1498.75 208.385 1498.75 Q202.574 1498.75 199.496 1494.17 Q196.44 1489.56 196.44 1480.84 Q196.44 1472.09 199.496 1467.5 Q202.574 1462.9 208.385 1462.9 Z" fill="#000000" fill-rule="nonzero" fill-opacity="1" /><path clip-path="url(#clip710)" d="M220.329 1457 L244.441 1457 L244.441 1460.2 L220.329 1460.2 L220.329 1457 Z" fill="#000000" fill-rule="nonzero" fill-opacity="1" /><path clip-path="url(#clip710)" d="M253.299 1467.48 L259.506 1467.48 L259.506 1446.05 L252.754 1447.41 L252.754 1443.95 L259.468 1442.59 L263.267 1442.59 L263.267 1467.48 L269.474 1467.48 L269.474 1470.67 L253.299 1470.67 L253.299 1467.48 Z" fill="#000000" fill-rule="nonzero" fill-opacity="1" /><path clip-path="url(#clip710)" d="M277.147 1465.9 L281.116 1465.9 L281.116 1470.67 L277.147 1470.67 L277.147 1465.9 Z" fill="#000000" fill-rule="nonzero" fill-opacity="1" /><path clip-path="url(#clip710)" d="M292.664 1467.48 L305.923 1467.48 L305.923 1470.67 L288.093 1470.67 L288.093 1467.48 Q290.256 1465.24 293.98 1461.48 Q297.723 1457.7 298.682 1456.6 Q300.507 1454.55 301.221 1453.14 Q301.955 1451.71 301.955 1450.34 Q301.955 1448.1 300.375 1446.69 Q298.814 1445.28 296.294 1445.28 Q294.507 1445.28 292.513 1445.9 Q290.538 1446.52 288.281 1447.78 L288.281 1443.95 Q290.576 1443.03 292.57 1442.55 Q294.563 1442.08 296.218 1442.08 Q300.582 1442.08 303.177 1444.27 Q305.773 1446.45 305.773 1450.1 Q305.773 1451.83 305.114 1453.39 Q304.475 1454.93 302.763 1457.04 Q302.293 1457.58 299.773 1460.2 Q297.253 1462.79 292.664 1467.48 Z" fill="#000000" fill-rule="nonzero" fill-opacity="1" /><path clip-path="url(#clip710)" d="M167.886 1043.71 L175.525 1043.71 L175.525 1017.35 L167.214 1019.01 L167.214 1014.75 L175.478 1013.09 L180.154 1013.09 L180.154 1043.71 L187.793 1043.71 L187.793 1047.65 L167.886 1047.65 L167.886 1043.71 Z" fill="#000000" fill-rule="nonzero" fill-opacity="1" /><path clip-path="url(#clip710)" d="M207.237 1016.16 Q203.626 1016.16 201.798 1019.73 Q199.992 1023.27 199.992 1030.4 Q199.992 1037.51 201.798 1041.07 Q203.626 1044.61 207.237 1044.61 Q210.872 1044.61 212.677 1041.07 Q214.506 1037.51 214.506 1030.4 Q214.506 1023.27 212.677 1019.73 Q210.872 1016.16 207.237 1016.16 M207.237 1012.46 Q213.047 1012.46 216.103 1017.07 Q219.182 1021.65 219.182 1030.4 Q219.182 1039.13 216.103 1043.73 Q213.047 1048.32 207.237 1048.32 Q201.427 1048.32 198.348 1043.73 Q195.293 1039.13 195.293 1030.4 Q195.293 1021.65 198.348 1017.07 Q201.427 1012.46 207.237 1012.46 Z" fill="#000000" fill-rule="nonzero" fill-opacity="1" /><path clip-path="url(#clip710)" d="M219.182 1006.56 L243.293 1006.56 L243.293 1009.76 L219.182 1009.76 L219.182 1006.56 Z" fill="#000000" fill-rule="nonzero" fill-opacity="1" /><path clip-path="url(#clip710)" d="M259.618 994.657 Q256.684 994.657 255.199 997.554 Q253.732 1000.43 253.732 1006.22 Q253.732 1012 255.199 1014.89 Q256.684 1017.77 259.618 1017.77 Q262.571 1017.77 264.038 1014.89 Q265.524 1012 265.524 1006.22 Q265.524 1000.43 264.038 997.554 Q262.571 994.657 259.618 994.657 M259.618 991.648 Q264.339 991.648 266.822 995.391 Q269.323 999.115 269.323 1006.22 Q269.323 1013.31 266.822 1017.06 Q264.339 1020.78 259.618 1020.78 Q254.898 1020.78 252.396 1017.06 Q249.914 1013.31 249.914 1006.22 Q249.914 999.115 252.396 995.391 Q254.898 991.648 259.618 991.648 Z" fill="#000000" fill-rule="nonzero" fill-opacity="1" /><path clip-path="url(#clip710)" d="M276 1015.46 L279.968 1015.46 L279.968 1020.24 L276 1020.24 L276 1015.46 Z" fill="#000000" fill-rule="nonzero" fill-opacity="1" /><path clip-path="url(#clip710)" d="M288.357 1019.65 L288.357 1016.19 Q289.786 1016.87 291.253 1017.23 Q292.72 1017.58 294.131 1017.58 Q297.892 1017.58 299.867 1015.06 Q301.861 1012.52 302.143 1007.37 Q301.052 1008.99 299.378 1009.85 Q297.704 1010.72 295.673 1010.72 Q291.46 1010.72 288.996 1008.18 Q286.551 1005.62 286.551 1001.2 Q286.551 996.877 289.109 994.262 Q291.667 991.648 295.917 991.648 Q300.789 991.648 303.346 995.391 Q305.923 999.115 305.923 1006.22 Q305.923 1012.86 302.763 1016.83 Q299.623 1020.78 294.3 1020.78 Q292.871 1020.78 291.404 1020.5 Q289.937 1020.22 288.357 1019.65 M295.917 1007.75 Q298.475 1007.75 299.961 1006 Q301.466 1004.25 301.466 1001.2 Q301.466 998.174 299.961 996.425 Q298.475 994.657 295.917 994.657 Q293.36 994.657 291.855 996.425 Q290.369 998.174 290.369 1001.2 Q290.369 1004.25 291.855 1006 Q293.36 1007.75 295.917 1007.75 Z" fill="#000000" fill-rule="nonzero" fill-opacity="1" /><path clip-path="url(#clip710)" d="M167.604 593.274 L175.242 593.274 L175.242 566.909 L166.932 568.575 L166.932 564.316 L175.196 562.649 L179.872 562.649 L179.872 593.274 L187.511 593.274 L187.511 597.209 L167.604 597.209 L167.604 593.274 Z" fill="#000000" fill-rule="nonzero" fill-opacity="1" /><path clip-path="url(#clip710)" d="M206.955 565.728 Q203.344 565.728 201.515 569.293 Q199.71 572.835 199.71 579.964 Q199.71 587.071 201.515 590.635 Q203.344 594.177 206.955 594.177 Q210.589 594.177 212.395 590.635 Q214.224 587.071 214.224 579.964 Q214.224 572.835 212.395 569.293 Q210.589 565.728 206.955 565.728 M206.955 562.024 Q212.765 562.024 215.821 566.631 Q218.9 571.214 218.9 579.964 Q218.9 588.691 215.821 593.297 Q212.765 597.881 206.955 597.881 Q201.145 597.881 198.066 593.297 Q195.011 588.691 195.011 579.964 Q195.011 571.214 198.066 566.631 Q201.145 562.024 206.955 562.024 Z" fill="#000000" fill-rule="nonzero" fill-opacity="1" /><path clip-path="url(#clip710)" d="M218.9 556.126 L243.011 556.126 L243.011 559.323 L218.9 559.323 L218.9 556.126 Z" fill="#000000" fill-rule="nonzero" fill-opacity="1" /><path clip-path="url(#clip710)" d="M259.336 544.22 Q256.402 544.22 254.916 547.117 Q253.449 549.994 253.449 555.787 Q253.449 561.561 254.916 564.458 Q256.402 567.335 259.336 567.335 Q262.289 567.335 263.756 564.458 Q265.242 561.561 265.242 555.787 Q265.242 549.994 263.756 547.117 Q262.289 544.22 259.336 544.22 M259.336 541.211 Q264.057 541.211 266.54 544.954 Q269.041 548.678 269.041 555.787 Q269.041 562.878 266.54 566.62 Q264.057 570.344 259.336 570.344 Q254.616 570.344 252.114 566.62 Q249.631 562.878 249.631 555.787 Q249.631 548.678 252.114 544.954 Q254.616 541.211 259.336 541.211 Z" fill="#000000" fill-rule="nonzero" fill-opacity="1" /><path clip-path="url(#clip710)" d="M275.718 565.022 L279.686 565.022 L279.686 569.799 L275.718 569.799 L275.718 565.022 Z" fill="#000000" fill-rule="nonzero" fill-opacity="1" /><path clip-path="url(#clip710)" d="M296.557 554.245 Q293.999 554.245 292.494 555.994 Q291.009 557.743 291.009 560.79 Q291.009 563.818 292.494 565.586 Q293.999 567.335 296.557 567.335 Q299.115 567.335 300.601 565.586 Q302.105 563.818 302.105 560.79 Q302.105 557.743 300.601 555.994 Q299.115 554.245 296.557 554.245 M304.099 542.34 L304.099 545.8 Q302.669 545.123 301.202 544.766 Q299.754 544.408 298.325 544.408 Q294.563 544.408 292.57 546.948 Q290.595 549.487 290.313 554.621 Q291.422 552.985 293.096 552.12 Q294.77 551.236 296.783 551.236 Q301.014 551.236 303.459 553.812 Q305.923 556.37 305.923 560.79 Q305.923 565.116 303.365 567.73 Q300.807 570.344 296.557 570.344 Q291.686 570.344 289.109 566.62 Q286.532 562.878 286.532 555.787 Q286.532 549.129 289.692 545.18 Q292.852 541.211 298.174 541.211 Q299.604 541.211 301.052 541.493 Q302.519 541.775 304.099 542.34 Z" fill="#000000" fill-rule="nonzero" fill-opacity="1" /><path clip-path="url(#clip710)" d="M58.1901 1374.69 L63.8903 1374.69 Q62.2989 1378.01 61.5176 1380.96 Q60.7364 1383.92 60.7364 1386.66 Q60.7364 1391.44 62.5882 1394.04 Q64.4401 1396.62 67.8544 1396.62 Q70.719 1396.62 72.1947 1394.91 Q73.6414 1393.17 74.5384 1388.37 L75.2618 1384.84 Q76.506 1378.3 79.6599 1375.21 Q82.7849 1372.08 88.0511 1372.08 Q94.33 1372.08 97.5707 1376.31 Q100.811 1380.5 100.811 1388.63 Q100.811 1391.7 100.117 1395.17 Q99.4225 1398.61 98.0626 1402.32 L92.0441 1402.32 Q94.0406 1398.76 95.0533 1395.34 Q96.0661 1391.93 96.0661 1388.63 Q96.0661 1383.63 94.0985 1380.91 Q92.1309 1378.19 88.4851 1378.19 Q85.3022 1378.19 83.5083 1380.15 Q81.7143 1382.09 80.8173 1386.55 L80.1229 1390.11 Q78.8208 1396.65 76.043 1399.57 Q73.2653 1402.49 68.3174 1402.49 Q62.5882 1402.49 59.2896 1398.47 Q55.991 1394.42 55.991 1387.33 Q55.991 1384.29 56.5408 1381.14 Q57.0906 1377.98 58.1901 1374.69 Z" fill="#000000" fill-rule="nonzero" fill-opacity="1" /><path clip-path="url(#clip710)" d="M71.2977 1350.64 Q71.2977 1354.92 74.6541 1357.41 Q77.9817 1359.9 83.7976 1359.9 Q89.6135 1359.9 92.97 1357.44 Q96.2975 1354.95 96.2975 1350.64 Q96.2975 1346.39 92.9411 1343.9 Q89.5846 1341.41 83.7976 1341.41 Q78.0395 1341.41 74.6831 1343.9 Q71.2977 1346.39 71.2977 1350.64 M66.7838 1350.64 Q66.7838 1343.7 71.2977 1339.73 Q75.8115 1335.77 83.7976 1335.77 Q91.7547 1335.77 96.2975 1339.73 Q100.811 1343.7 100.811 1350.64 Q100.811 1357.61 96.2975 1361.58 Q91.7547 1365.51 83.7976 1365.51 Q75.8115 1365.51 71.2977 1361.58 Q66.7838 1357.61 66.7838 1350.64 Z" fill="#000000" fill-rule="nonzero" fill-opacity="1" /><path clip-path="url(#clip710)" d="M54.9494 1326.94 L54.9494 1321.62 L99.9723 1321.62 L99.9723 1326.94 L54.9494 1326.94 Z" fill="#000000" fill-rule="nonzero" fill-opacity="1" /><path clip-path="url(#clip710)" d="M67.565 1314.3 L67.565 1308.66 L94.764 1298.53 L67.565 1288.4 L67.565 1282.76 L99.9723 1294.91 L99.9723 1302.15 L67.565 1314.3 Z" fill="#000000" fill-rule="nonzero" fill-opacity="1" /><path clip-path="url(#clip710)" d="M82.4377 1247.69 L85.0418 1247.69 L85.0418 1272.17 Q90.5395 1271.82 93.433 1268.87 Q96.2975 1265.89 96.2975 1260.59 Q96.2975 1257.53 95.5452 1254.66 Q94.7929 1251.77 93.2883 1248.93 L98.323 1248.93 Q99.5383 1251.8 100.175 1254.81 Q100.811 1257.82 100.811 1260.91 Q100.811 1268.67 96.2975 1273.21 Q91.7837 1277.72 84.087 1277.72 Q76.1298 1277.72 71.4713 1273.44 Q66.7838 1269.13 66.7838 1261.84 Q66.7838 1255.3 71.0083 1251.51 Q75.2039 1247.69 82.4377 1247.69 M80.8752 1253.01 Q76.506 1253.07 73.9018 1255.47 Q71.2977 1257.85 71.2977 1261.78 Q71.2977 1266.24 73.815 1268.93 Q76.3324 1271.59 80.9041 1271.99 L80.8752 1253.01 Z" fill="#000000" fill-rule="nonzero" fill-opacity="1" /><path clip-path="url(#clip710)" d="M58.3637 1214.85 L67.565 1214.85 L67.565 1203.88 L71.7028 1203.88 L71.7028 1214.85 L89.2953 1214.85 Q93.2594 1214.85 94.3878 1213.78 Q95.5163 1212.68 95.5163 1209.35 L95.5163 1203.88 L99.9723 1203.88 L99.9723 1209.35 Q99.9723 1215.51 97.6864 1217.86 Q95.3716 1220.2 89.2953 1220.2 L71.7028 1220.2 L71.7028 1224.11 L67.565 1224.11 L67.565 1220.2 L58.3637 1220.2 L58.3637 1214.85 Z" fill="#000000" fill-rule="nonzero" fill-opacity="1" /><path clip-path="url(#clip710)" d="M67.565 1196.88 L67.565 1191.56 L99.9723 1191.56 L99.9723 1196.88 L67.565 1196.88 M54.9494 1196.88 L54.9494 1191.56 L61.6912 1191.56 L61.6912 1196.88 L54.9494 1196.88 Z" fill="#000000" fill-rule="nonzero" fill-opacity="1" /><path clip-path="url(#clip710)" d="M73.7861 1155.18 Q70.1981 1153.19 68.491 1150.41 Q66.7838 1147.63 66.7838 1143.87 Q66.7838 1138.81 70.3428 1136.06 Q73.8729 1133.31 80.4122 1133.31 L99.9723 1133.31 L99.9723 1138.66 L80.5858 1138.66 Q75.9273 1138.66 73.6703 1140.31 Q71.4134 1141.96 71.4134 1145.35 Q71.4134 1149.48 74.1622 1151.89 Q76.9111 1154.29 81.6564 1154.29 L99.9723 1154.29 L99.9723 1159.64 L80.5858 1159.64 Q75.8983 1159.64 73.6703 1161.29 Q71.4134 1162.94 71.4134 1166.38 Q71.4134 1170.46 74.1912 1172.86 Q76.94 1175.26 81.6564 1175.26 L99.9723 1175.26 L99.9723 1180.62 L67.565 1180.62 L67.565 1175.26 L72.5997 1175.26 Q69.6194 1173.44 68.2016 1170.9 Q66.7838 1168.35 66.7838 1164.85 Q66.7838 1161.32 68.5778 1158.86 Q70.3717 1156.37 73.7861 1155.18 Z" fill="#000000" fill-rule="nonzero" fill-opacity="1" /><path clip-path="url(#clip710)" d="M82.4377 1094.97 L85.0418 1094.97 L85.0418 1119.45 Q90.5395 1119.1 93.433 1116.15 Q96.2975 1113.17 96.2975 1107.88 Q96.2975 1104.81 95.5452 1101.94 Q94.7929 1099.05 93.2883 1096.21 L98.323 1096.21 Q99.5383 1099.08 100.175 1102.09 Q100.811 1105.1 100.811 1108.19 Q100.811 1115.95 96.2975 1120.49 Q91.7837 1125 84.087 1125 Q76.1298 1125 71.4713 1120.72 Q66.7838 1116.41 66.7838 1109.12 Q66.7838 1102.58 71.0083 1098.79 Q75.2039 1094.97 82.4377 1094.97 M80.8752 1100.29 Q76.506 1100.35 73.9018 1102.75 Q71.2977 1105.13 71.2977 1109.06 Q71.2977 1113.52 73.815 1116.21 Q76.3324 1118.87 80.9041 1119.28 L80.8752 1100.29 Z" fill="#000000" fill-rule="nonzero" fill-opacity="1" /><path clip-path="url(#clip710)" d="M55.0072 1054.61 Q61.6623 1058.48 68.1727 1060.36 Q74.6831 1062.24 81.3671 1062.24 Q88.0511 1062.24 94.6193 1060.36 Q101.159 1058.45 107.785 1054.61 L107.785 1059.24 Q100.985 1063.58 94.4168 1065.75 Q87.8485 1067.89 81.3671 1067.89 Q74.9145 1067.89 68.3752 1065.75 Q61.8359 1063.6 55.0072 1059.24 L55.0072 1054.61 Z" fill="#000000" fill-rule="nonzero" fill-opacity="1" /><path clip-path="url(#clip710)" d="M68.5199 1023.62 L73.5546 1023.62 Q72.3972 1025.87 71.8185 1028.3 Q71.2398 1030.73 71.2398 1033.34 Q71.2398 1037.3 72.4551 1039.3 Q73.6703 1041.27 76.1009 1041.27 Q77.9527 1041.27 79.0233 1039.85 Q80.065 1038.43 81.0198 1034.15 L81.4249 1032.33 Q82.6402 1026.65 84.8682 1024.28 Q87.0673 1021.88 91.0314 1021.88 Q95.5452 1021.88 98.1783 1025.47 Q100.811 1029.03 100.811 1035.28 Q100.811 1037.88 100.291 1040.72 Q99.7987 1043.52 98.7859 1046.65 L93.2883 1046.65 Q94.8218 1043.7 95.6031 1040.83 Q96.3554 1037.97 96.3554 1035.16 Q96.3554 1031.4 95.0823 1029.37 Q93.7802 1027.35 91.4364 1027.35 Q89.2663 1027.35 88.1089 1028.82 Q86.9515 1030.27 85.8809 1035.22 L85.4469 1037.07 Q84.4052 1042.02 82.264 1044.22 Q80.0939 1046.42 76.3324 1046.42 Q71.7606 1046.42 69.2722 1043.18 Q66.7838 1039.94 66.7838 1033.98 Q66.7838 1031.02 67.2178 1028.42 Q67.6519 1025.82 68.5199 1023.62 Z" fill="#000000" fill-rule="nonzero" fill-opacity="1" /><path clip-path="url(#clip710)" d="M55.0072 1014.24 L55.0072 1009.61 Q61.8359 1005.27 68.3752 1003.13 Q74.9145 1000.96 81.3671 1000.96 Q87.8485 1000.96 94.4168 1003.13 Q100.985 1005.27 107.785 1009.61 L107.785 1014.24 Q101.159 1010.39 94.6193 1008.51 Q88.0511 1006.6 81.3671 1006.6 Q74.6831 1006.6 68.1727 1008.51 Q61.6623 1010.39 55.0072 1014.24 Z" fill="#000000" fill-rule="nonzero" fill-opacity="1" /><path clip-path="url(#clip710)" d="M1129.65 125.969 L1129.65 133.949 Q1124.99 131.721 1120.86 130.627 Q1116.73 129.534 1112.88 129.534 Q1106.2 129.534 1102.55 132.126 Q1098.95 134.719 1098.95 139.499 Q1098.95 143.509 1101.34 145.575 Q1103.77 147.601 1110.49 148.857 L1115.43 149.869 Q1124.59 151.611 1128.92 156.027 Q1133.3 160.402 1133.3 167.774 Q1133.3 176.565 1127.38 181.102 Q1121.51 185.639 1110.13 185.639 Q1105.83 185.639 1100.97 184.667 Q1096.15 183.694 1090.97 181.79 L1090.97 173.365 Q1095.95 176.16 1100.73 177.577 Q1105.51 178.995 1110.13 178.995 Q1117.13 178.995 1120.94 176.241 Q1124.75 173.486 1124.75 168.382 Q1124.75 163.926 1122 161.414 Q1119.28 158.903 1113.04 157.647 L1108.06 156.675 Q1098.9 154.852 1094.81 150.963 Q1090.72 147.074 1090.72 140.147 Q1090.72 132.126 1096.35 127.508 Q1102.02 122.89 1111.95 122.89 Q1116.2 122.89 1120.62 123.66 Q1125.03 124.43 1129.65 125.969 Z" fill="#000000" fill-rule="nonzero" fill-opacity="1" /><path clip-path="url(#clip710)" d="M1163.31 144.32 Q1157.32 144.32 1153.84 149.019 Q1150.35 153.677 1150.35 161.819 Q1150.35 169.962 1153.79 174.661 Q1157.28 179.319 1163.31 179.319 Q1169.27 179.319 1172.75 174.62 Q1176.24 169.921 1176.24 161.819 Q1176.24 153.758 1172.75 149.059 Q1169.27 144.32 1163.31 144.32 M1163.31 138 Q1173.04 138 1178.59 144.32 Q1184.14 150.639 1184.14 161.819 Q1184.14 172.959 1178.59 179.319 Q1173.04 185.639 1163.31 185.639 Q1153.55 185.639 1148 179.319 Q1142.49 172.959 1142.49 161.819 Q1142.49 150.639 1148 144.32 Q1153.55 138 1163.31 138 Z" fill="#000000" fill-rule="nonzero" fill-opacity="1" /><path clip-path="url(#clip710)" d="M1196.49 121.432 L1203.94 121.432 L1203.94 184.464 L1196.49 184.464 L1196.49 121.432 Z" fill="#000000" fill-rule="nonzero" fill-opacity="1" /><path clip-path="url(#clip710)" d="M1214.19 139.094 L1222.09 139.094 L1236.27 177.172 L1250.45 139.094 L1258.35 139.094 L1241.33 184.464 L1231.21 184.464 L1214.19 139.094 Z" fill="#000000" fill-rule="nonzero" fill-opacity="1" /><path clip-path="url(#clip710)" d="M1307.45 159.916 L1307.45 163.561 L1273.17 163.561 Q1273.66 171.258 1277.79 175.309 Q1281.97 179.319 1289.38 179.319 Q1293.67 179.319 1297.68 178.266 Q1301.73 177.213 1305.7 175.106 L1305.7 182.155 Q1301.69 183.856 1297.48 184.748 Q1293.27 185.639 1288.93 185.639 Q1278.08 185.639 1271.72 179.319 Q1265.4 173 1265.4 162.225 Q1265.4 151.085 1271.39 144.563 Q1277.43 138 1287.64 138 Q1296.79 138 1302.1 143.914 Q1307.45 149.788 1307.45 159.916 M1299.99 157.728 Q1299.91 151.611 1296.55 147.965 Q1293.23 144.32 1287.72 144.32 Q1281.48 144.32 1277.71 147.844 Q1273.98 151.368 1273.42 157.769 L1299.99 157.728 Z" fill="#000000" fill-rule="nonzero" fill-opacity="1" /><path clip-path="url(#clip710)" d="M1353.42 126.212 L1353.42 139.094 L1368.78 139.094 L1368.78 144.887 L1353.42 144.887 L1353.42 169.516 Q1353.42 175.066 1354.92 176.646 Q1356.46 178.226 1361.12 178.226 L1368.78 178.226 L1368.78 184.464 L1361.12 184.464 Q1352.49 184.464 1349.21 181.264 Q1345.93 178.023 1345.93 169.516 L1345.93 144.887 L1340.46 144.887 L1340.46 139.094 L1345.93 139.094 L1345.93 126.212 L1353.42 126.212 Z" fill="#000000" fill-rule="nonzero" fill-opacity="1" /><path clip-path="url(#clip710)" d="M1378.58 139.094 L1386.03 139.094 L1386.03 184.464 L1378.58 184.464 L1378.58 139.094 M1378.58 121.432 L1386.03 121.432 L1386.03 130.871 L1378.58 130.871 L1378.58 121.432 Z" fill="#000000" fill-rule="nonzero" fill-opacity="1" /><path clip-path="url(#clip710)" d="M1436.95 147.803 Q1439.75 142.78 1443.64 140.39 Q1447.53 138 1452.79 138 Q1459.88 138 1463.73 142.983 Q1467.58 147.925 1467.58 157.08 L1467.58 184.464 L1460.08 184.464 L1460.08 157.323 Q1460.08 150.801 1457.77 147.641 Q1455.47 144.482 1450.73 144.482 Q1444.93 144.482 1441.57 148.33 Q1438.21 152.178 1438.21 158.822 L1438.21 184.464 L1430.71 184.464 L1430.71 157.323 Q1430.71 150.76 1428.41 147.641 Q1426.1 144.482 1421.28 144.482 Q1415.56 144.482 1412.2 148.37 Q1408.84 152.219 1408.84 158.822 L1408.84 184.464 L1401.35 184.464 L1401.35 139.094 L1408.84 139.094 L1408.84 146.142 Q1411.39 141.97 1414.96 139.985 Q1418.52 138 1423.42 138 Q1428.36 138 1431.81 140.512 Q1435.29 143.023 1436.95 147.803 Z" fill="#000000" fill-rule="nonzero" fill-opacity="1" /><path clip-path="url(#clip710)" d="M1521.25 159.916 L1521.25 163.561 L1486.98 163.561 Q1487.47 171.258 1491.6 175.309 Q1495.77 179.319 1503.19 179.319 Q1507.48 179.319 1511.49 178.266 Q1515.54 177.213 1519.51 175.106 L1519.51 182.155 Q1515.5 183.856 1511.29 184.748 Q1507.07 185.639 1502.74 185.639 Q1491.88 185.639 1485.52 179.319 Q1479.2 173 1479.2 162.225 Q1479.2 151.085 1485.2 144.563 Q1491.23 138 1501.44 138 Q1510.6 138 1515.9 143.914 Q1521.25 149.788 1521.25 159.916 M1513.8 157.728 Q1513.72 151.611 1510.36 147.965 Q1507.03 144.32 1501.52 144.32 Q1495.29 144.32 1491.52 147.844 Q1487.79 151.368 1487.22 157.769 L1513.8 157.728 Z" fill="#000000" fill-rule="nonzero" fill-opacity="1" /><path clip-path="url(#clip710)" d="M1554.51 139.094 L1562.41 139.094 L1576.59 177.172 L1590.77 139.094 L1598.66 139.094 L1581.65 184.464 L1571.52 184.464 L1554.51 139.094 Z" fill="#000000" fill-rule="nonzero" fill-opacity="1" /><path clip-path="url(#clip710)" d="M1637.88 140.431 L1637.88 147.479 Q1634.72 145.859 1631.32 145.049 Q1627.91 144.239 1624.27 144.239 Q1618.72 144.239 1615.92 145.94 Q1613.17 147.641 1613.17 151.044 Q1613.17 153.637 1615.15 155.135 Q1617.14 156.594 1623.13 157.931 L1625.68 158.498 Q1633.62 160.199 1636.95 163.318 Q1640.31 166.397 1640.31 171.947 Q1640.31 178.266 1635.29 181.952 Q1630.3 185.639 1621.55 185.639 Q1617.91 185.639 1613.94 184.91 Q1610.01 184.221 1605.63 182.803 L1605.63 175.106 Q1609.76 177.253 1613.77 178.347 Q1617.79 179.4 1621.71 179.4 Q1626.98 179.4 1629.82 177.618 Q1632.65 175.795 1632.65 172.514 Q1632.65 169.476 1630.59 167.855 Q1628.56 166.235 1621.63 164.736 L1619.04 164.128 Q1612.11 162.67 1609.04 159.672 Q1605.96 156.634 1605.96 151.368 Q1605.96 144.968 1610.49 141.484 Q1615.03 138 1623.38 138 Q1627.51 138 1631.15 138.608 Q1634.8 139.215 1637.88 140.431 Z" fill="#000000" fill-rule="nonzero" fill-opacity="1" /><path clip-path="url(#clip710)" d="M1708.4 161.252 Q1708.4 153.151 1705.04 148.695 Q1701.72 144.239 1695.68 144.239 Q1689.69 144.239 1686.33 148.695 Q1683 153.151 1683 161.252 Q1683 169.314 1686.33 173.77 Q1689.69 178.226 1695.68 178.226 Q1701.72 178.226 1705.04 173.77 Q1708.4 169.314 1708.4 161.252 M1715.86 178.833 Q1715.86 190.419 1710.71 196.05 Q1705.57 201.721 1694.95 201.721 Q1691.03 201.721 1687.54 201.113 Q1684.06 200.546 1680.78 199.331 L1680.78 192.08 Q1684.06 193.862 1687.26 194.713 Q1690.46 195.563 1693.78 195.563 Q1701.11 195.563 1704.76 191.715 Q1708.4 187.907 1708.4 180.17 L1708.4 176.484 Q1706.09 180.494 1702.49 182.479 Q1698.88 184.464 1693.86 184.464 Q1685.52 184.464 1680.41 178.104 Q1675.31 171.744 1675.31 161.252 Q1675.31 150.72 1680.41 144.36 Q1685.52 138 1693.86 138 Q1698.88 138 1702.49 139.985 Q1706.09 141.97 1708.4 145.98 L1708.4 139.094 L1715.86 139.094 L1715.86 178.833 Z" fill="#000000" fill-rule="nonzero" fill-opacity="1" /><path clip-path="url(#clip710)" d="M1757.5 146.061 Q1756.25 145.332 1754.75 145.008 Q1753.29 144.644 1751.51 144.644 Q1745.19 144.644 1741.78 148.776 Q1738.42 152.867 1738.42 160.564 L1738.42 184.464 L1730.93 184.464 L1730.93 139.094 L1738.42 139.094 L1738.42 146.142 Q1740.77 142.011 1744.54 140.026 Q1748.31 138 1753.69 138 Q1754.46 138 1755.39 138.122 Q1756.33 138.203 1757.46 138.405 L1757.5 146.061 Z" fill="#000000" fill-rule="nonzero" fill-opacity="1" /><path clip-path="url(#clip710)" d="M1765.32 139.094 L1772.77 139.094 L1772.77 184.464 L1765.32 184.464 L1765.32 139.094 M1765.32 121.432 L1772.77 121.432 L1772.77 130.871 L1765.32 130.871 L1765.32 121.432 Z" fill="#000000" fill-rule="nonzero" fill-opacity="1" /><path clip-path="url(#clip710)" d="M1818.22 145.98 L1818.22 121.432 L1825.68 121.432 L1825.68 184.464 L1818.22 184.464 L1818.22 177.658 Q1815.87 181.709 1812.27 183.694 Q1808.7 185.639 1803.68 185.639 Q1795.46 185.639 1790.27 179.076 Q1785.13 172.514 1785.13 161.819 Q1785.13 151.125 1790.27 144.563 Q1795.46 138 1803.68 138 Q1808.7 138 1812.27 139.985 Q1815.87 141.93 1818.22 145.98 M1792.82 161.819 Q1792.82 170.043 1796.19 174.742 Q1799.59 179.4 1805.5 179.4 Q1811.42 179.4 1814.82 174.742 Q1818.22 170.043 1818.22 161.819 Q1818.22 153.596 1814.82 148.938 Q1811.42 144.239 1805.5 144.239 Q1799.59 144.239 1796.19 148.938 Q1792.82 153.596 1792.82 161.819 Z" fill="#000000" fill-rule="nonzero" fill-opacity="1" /><path clip-path="url(#clip710)" d="M1896.33 140.431 L1896.33 147.479 Q1893.17 145.859 1889.76 145.049 Q1886.36 144.239 1882.71 144.239 Q1877.16 144.239 1874.37 145.94 Q1871.61 147.641 1871.61 151.044 Q1871.61 153.637 1873.6 155.135 Q1875.58 156.594 1881.58 157.931 L1884.13 158.498 Q1892.07 160.199 1895.39 163.318 Q1898.76 166.397 1898.76 171.947 Q1898.76 178.266 1893.73 181.952 Q1888.75 185.639 1880 185.639 Q1876.35 185.639 1872.38 184.91 Q1868.46 184.221 1864.08 182.803 L1864.08 175.106 Q1868.21 177.253 1872.22 178.347 Q1876.23 179.4 1880.16 179.4 Q1885.43 179.4 1888.26 177.618 Q1891.1 175.795 1891.1 172.514 Q1891.1 169.476 1889.03 167.855 Q1887.01 166.235 1880.08 164.736 L1877.49 164.128 Q1870.56 162.67 1867.48 159.672 Q1864.4 156.634 1864.4 151.368 Q1864.4 144.968 1868.94 141.484 Q1873.48 138 1881.82 138 Q1885.96 138 1889.6 138.608 Q1893.25 139.215 1896.33 140.431 Z" fill="#000000" fill-rule="nonzero" fill-opacity="1" /><path clip-path="url(#clip710)" d="M1910.63 139.094 L1918.08 139.094 L1918.08 184.464 L1910.63 184.464 L1910.63 139.094 M1910.63 121.432 L1918.08 121.432 L1918.08 130.871 L1910.63 130.871 L1910.63 121.432 Z" fill="#000000" fill-rule="nonzero" fill-opacity="1" /><path clip-path="url(#clip710)" d="M1930.43 139.094 L1965.84 139.094 L1965.84 145.899 L1937.81 178.509 L1965.84 178.509 L1965.84 184.464 L1929.42 184.464 L1929.42 177.658 L1957.45 145.049 L1930.43 145.049 L1930.43 139.094 Z" fill="#000000" fill-rule="nonzero" fill-opacity="1" /><path clip-path="url(#clip710)" d="M2016.03 159.916 L2016.03 163.561 L1981.76 163.561 Q1982.25 171.258 1986.38 175.309 Q1990.55 179.319 1997.96 179.319 Q2002.26 179.319 2006.27 178.266 Q2010.32 177.213 2014.29 175.106 L2014.29 182.155 Q2010.28 183.856 2006.06 184.748 Q2001.85 185.639 1997.52 185.639 Q1986.66 185.639 1980.3 179.319 Q1973.98 173 1973.98 162.225 Q1973.98 151.085 1979.98 144.563 Q1986.01 138 1996.22 138 Q2005.38 138 2010.68 143.914 Q2016.03 149.788 2016.03 159.916 M2008.58 157.728 Q2008.49 151.611 2005.13 147.965 Q2001.81 144.32 1996.3 144.32 Q1990.06 144.32 1986.3 147.844 Q1982.57 151.368 1982 157.769 L2008.58 157.728 Z" fill="#000000" fill-rule="nonzero" fill-opacity="1" /><path clip-path="url(#clip710)" d="M2050.87 158.822 L2125.73 158.822 L2125.73 164.655 L2050.87 164.655 L2050.87 158.822 Z" fill="#000000" fill-rule="nonzero" fill-opacity="1" /><path clip-path="url(#clip710)" d="M2196.54 161.819 Q2196.54 153.596 2193.14 148.938 Q2189.77 144.239 2183.86 144.239 Q2177.94 144.239 2174.54 148.938 Q2171.18 153.596 2171.18 161.819 Q2171.18 170.043 2174.54 174.742 Q2177.94 179.4 2183.86 179.4 Q2189.77 179.4 2193.14 174.742 Q2196.54 170.043 2196.54 161.819 M2171.18 145.98 Q2173.53 141.93 2177.09 139.985 Q2180.7 138 2185.68 138 Q2193.95 138 2199.09 144.563 Q2204.28 151.125 2204.28 161.819 Q2204.28 172.514 2199.09 179.076 Q2193.95 185.639 2185.68 185.639 Q2180.7 185.639 2177.09 183.694 Q2173.53 181.709 2171.18 177.658 L2171.18 184.464 L2163.69 184.464 L2163.69 121.432 L2171.18 121.432 L2171.18 145.98 Z" fill="#000000" fill-rule="nonzero" fill-opacity="1" /><path clip-path="url(#clip710)" d="M2242.92 146.061 Q2241.66 145.332 2240.17 145.008 Q2238.71 144.644 2236.93 144.644 Q2230.61 144.644 2227.2 148.776 Q2223.84 152.867 2223.84 160.564 L2223.84 184.464 L2216.35 184.464 L2216.35 139.094 L2223.84 139.094 L2223.84 146.142 Q2226.19 142.011 2229.96 140.026 Q2233.73 138 2239.11 138 Q2239.88 138 2240.81 138.122 Q2241.75 138.203 2242.88 138.405 L2242.92 146.061 Z" fill="#000000" fill-rule="nonzero" fill-opacity="1" /><path clip-path="url(#clip710)" d="M2271.36 161.657 Q2262.32 161.657 2258.84 163.723 Q2255.36 165.789 2255.36 170.772 Q2255.36 174.742 2257.95 177.091 Q2260.58 179.4 2265.08 179.4 Q2271.28 179.4 2275 175.025 Q2278.77 170.61 2278.77 163.318 L2278.77 161.657 L2271.36 161.657 M2286.22 158.579 L2286.22 184.464 L2278.77 184.464 L2278.77 177.577 Q2276.22 181.709 2272.41 183.694 Q2268.6 185.639 2263.09 185.639 Q2256.13 185.639 2251.99 181.75 Q2247.9 177.821 2247.9 171.258 Q2247.9 163.602 2253.01 159.713 Q2258.15 155.824 2268.32 155.824 L2278.77 155.824 L2278.77 155.095 Q2278.77 149.95 2275.37 147.155 Q2272.01 144.32 2265.89 144.32 Q2262 144.32 2258.31 145.251 Q2254.63 146.183 2251.23 148.046 L2251.23 141.16 Q2255.32 139.58 2259.16 138.81 Q2263.01 138 2266.66 138 Q2276.5 138 2281.36 143.104 Q2286.22 148.208 2286.22 158.579 Z" fill="#000000" fill-rule="nonzero" fill-opacity="1" /><path clip-path="url(#clip710)" d="M2334.23 140.836 L2334.23 147.803 Q2331.07 146.061 2327.87 145.211 Q2324.71 144.32 2321.47 144.32 Q2314.22 144.32 2310.21 148.938 Q2306.2 153.515 2306.2 161.819 Q2306.2 170.124 2310.21 174.742 Q2314.22 179.319 2321.47 179.319 Q2324.71 179.319 2327.87 178.469 Q2331.07 177.577 2334.23 175.836 L2334.23 182.722 Q2331.11 184.18 2327.75 184.91 Q2324.42 185.639 2320.66 185.639 Q2310.41 185.639 2304.37 179.198 Q2298.34 172.757 2298.34 161.819 Q2298.34 150.72 2304.41 144.36 Q2310.53 138 2321.14 138 Q2324.59 138 2327.87 138.729 Q2331.15 139.418 2334.23 140.836 Z" fill="#000000" fill-rule="nonzero" fill-opacity="1" /><path clip-path="url(#clip710)" d="M2384.9 157.08 L2384.9 184.464 L2377.45 184.464 L2377.45 157.323 Q2377.45 150.882 2374.94 147.682 Q2372.43 144.482 2367.41 144.482 Q2361.37 144.482 2357.89 148.33 Q2354.4 152.178 2354.4 158.822 L2354.4 184.464 L2346.91 184.464 L2346.91 121.432 L2354.4 121.432 L2354.4 146.142 Q2357.08 142.051 2360.68 140.026 Q2364.33 138 2369.07 138 Q2376.88 138 2380.89 142.861 Q2384.9 147.682 2384.9 157.08 Z" fill="#000000" fill-rule="nonzero" fill-opacity="1" /><path clip-path="url(#clip710)" d="M2399.77 139.094 L2407.23 139.094 L2407.23 184.464 L2399.77 184.464 L2399.77 139.094 M2399.77 121.432 L2407.23 121.432 L2407.23 130.871 L2399.77 130.871 L2399.77 121.432 Z" fill="#000000" fill-rule="nonzero" fill-opacity="1" /><path clip-path="url(#clip710)" d="M2451.74 140.431 L2451.74 147.479 Q2448.59 145.859 2445.18 145.049 Q2441.78 144.239 2438.13 144.239 Q2432.58 144.239 2429.79 145.94 Q2427.03 147.641 2427.03 151.044 Q2427.03 153.637 2429.02 155.135 Q2431 156.594 2437 157.931 L2439.55 158.498 Q2447.49 160.199 2450.81 163.318 Q2454.18 166.397 2454.18 171.947 Q2454.18 178.266 2449.15 181.952 Q2444.17 185.639 2435.42 185.639 Q2431.77 185.639 2427.8 184.91 Q2423.87 184.221 2419.5 182.803 L2419.5 175.106 Q2423.63 177.253 2427.64 178.347 Q2431.65 179.4 2435.58 179.4 Q2440.85 179.4 2443.68 177.618 Q2446.52 175.795 2446.52 172.514 Q2446.52 169.476 2444.45 167.855 Q2442.43 166.235 2435.5 164.736 L2432.91 164.128 Q2425.98 162.67 2422.9 159.672 Q2419.82 156.634 2419.82 151.368 Q2419.82 144.968 2424.36 141.484 Q2428.9 138 2437.24 138 Q2441.37 138 2445.02 138.608 Q2448.67 139.215 2451.74 140.431 Z" fill="#000000" fill-rule="nonzero" fill-opacity="1" /><path clip-path="url(#clip710)" d="M2473.42 126.212 L2473.42 139.094 L2488.77 139.094 L2488.77 144.887 L2473.42 144.887 L2473.42 169.516 Q2473.42 175.066 2474.92 176.646 Q2476.46 178.226 2481.11 178.226 L2488.77 178.226 L2488.77 184.464 L2481.11 184.464 Q2472.49 184.464 2469.2 181.264 Q2465.92 178.023 2465.92 169.516 L2465.92 144.887 L2460.45 144.887 L2460.45 139.094 L2465.92 139.094 L2465.92 126.212 L2473.42 126.212 Z" fill="#000000" fill-rule="nonzero" fill-opacity="1" /><path clip-path="url(#clip710)" d="M2516.15 144.32 Q2510.16 144.32 2506.68 149.019 Q2503.19 153.677 2503.19 161.819 Q2503.19 169.962 2506.63 174.661 Q2510.12 179.319 2516.15 179.319 Q2522.11 179.319 2525.59 174.62 Q2529.08 169.921 2529.08 161.819 Q2529.08 153.758 2525.59 149.059 Q2522.11 144.32 2516.15 144.32 M2516.15 138 Q2525.88 138 2531.43 144.32 Q2536.98 150.639 2536.98 161.819 Q2536.98 172.959 2531.43 179.319 Q2525.88 185.639 2516.15 185.639 Q2506.39 185.639 2500.84 179.319 Q2495.33 172.959 2495.33 161.819 Q2495.33 150.639 2500.84 144.32 Q2506.39 138 2516.15 138 Z" fill="#000000" fill-rule="nonzero" fill-opacity="1" /><path clip-path="url(#clip710)" d="M2581.98 140.836 L2581.98 147.803 Q2578.82 146.061 2575.62 145.211 Q2572.46 144.32 2569.22 144.32 Q2561.97 144.32 2557.96 148.938 Q2553.95 153.515 2553.95 161.819 Q2553.95 170.124 2557.96 174.742 Q2561.97 179.319 2569.22 179.319 Q2572.46 179.319 2575.62 178.469 Q2578.82 177.577 2581.98 175.836 L2581.98 182.722 Q2578.86 184.18 2575.5 184.91 Q2572.18 185.639 2568.41 185.639 Q2558.16 185.639 2552.13 179.198 Q2546.09 172.757 2546.09 161.819 Q2546.09 150.72 2552.17 144.36 Q2558.28 138 2568.9 138 Q2572.34 138 2575.62 138.729 Q2578.9 139.418 2581.98 140.836 Z" fill="#000000" fill-rule="nonzero" fill-opacity="1" /><path clip-path="url(#clip710)" d="M2632.66 157.08 L2632.66 184.464 L2625.2 184.464 L2625.2 157.323 Q2625.2 150.882 2622.69 147.682 Q2620.18 144.482 2615.16 144.482 Q2609.12 144.482 2605.64 148.33 Q2602.15 152.178 2602.15 158.822 L2602.15 184.464 L2594.66 184.464 L2594.66 121.432 L2602.15 121.432 L2602.15 146.142 Q2604.83 142.051 2608.43 140.026 Q2612.08 138 2616.82 138 Q2624.64 138 2628.65 142.861 Q2632.66 147.682 2632.66 157.08 Z" fill="#000000" fill-rule="nonzero" fill-opacity="1" /><path clip-path="url(#clip710)" d="M2673.82 146.061 Q2672.56 145.332 2671.06 145.008 Q2669.6 144.644 2667.82 144.644 Q2661.5 144.644 2658.1 148.776 Q2654.74 152.867 2654.74 160.564 L2654.74 184.464 L2647.24 184.464 L2647.24 139.094 L2654.74 139.094 L2654.74 146.142 Q2657.09 142.011 2660.85 140.026 Q2664.62 138 2670.01 138 Q2670.78 138 2671.71 138.122 Q2672.64 138.203 2673.77 138.405 L2673.82 146.061 Z" fill="#000000" fill-rule="nonzero" fill-opacity="1" /><path clip-path="url(#clip710)" d="M2697.39 144.32 Q2691.4 144.32 2687.91 149.019 Q2684.43 153.677 2684.43 161.819 Q2684.43 169.962 2687.87 174.661 Q2691.36 179.319 2697.39 179.319 Q2703.35 179.319 2706.83 174.62 Q2710.31 169.921 2710.31 161.819 Q2710.31 153.758 2706.83 149.059 Q2703.35 144.32 2697.39 144.32 M2697.39 138 Q2707.11 138 2712.66 144.32 Q2718.21 150.639 2718.21 161.819 Q2718.21 172.959 2712.66 179.319 Q2707.11 185.639 2697.39 185.639 Q2687.63 185.639 2682.08 179.319 Q2676.57 172.959 2676.57 161.819 Q2676.57 150.639 2682.08 144.32 Q2687.63 138 2697.39 138 Z" fill="#000000" fill-rule="nonzero" fill-opacity="1" /><path clip-path="url(#clip710)" d="M2768.28 157.08 L2768.28 184.464 L2760.83 184.464 L2760.83 157.323 Q2760.83 150.882 2758.32 147.682 Q2755.81 144.482 2750.78 144.482 Q2744.75 144.482 2741.26 148.33 Q2737.78 152.178 2737.78 158.822 L2737.78 184.464 L2730.29 184.464 L2730.29 139.094 L2737.78 139.094 L2737.78 146.142 Q2740.45 142.051 2744.06 140.026 Q2747.7 138 2752.44 138 Q2760.26 138 2764.27 142.861 Q2768.28 147.682 2768.28 157.08 Z" fill="#000000" fill-rule="nonzero" fill-opacity="1" /><path clip-path="url(#clip710)" d="M2821.96 159.916 L2821.96 163.561 L2787.69 163.561 Q2788.17 171.258 2792.3 175.309 Q2796.48 179.319 2803.89 179.319 Q2808.18 179.319 2812.19 178.266 Q2816.25 177.213 2820.22 175.106 L2820.22 182.155 Q2816.2 183.856 2811.99 184.748 Q2807.78 185.639 2803.44 185.639 Q2792.59 185.639 2786.23 179.319 Q2779.91 173 2779.91 162.225 Q2779.91 151.085 2785.9 144.563 Q2791.94 138 2802.15 138 Q2811.3 138 2816.61 143.914 Q2821.96 149.788 2821.96 159.916 M2814.5 157.728 Q2814.42 151.611 2811.06 147.965 Q2807.74 144.32 2802.23 144.32 Q2795.99 144.32 2792.22 147.844 Q2788.5 151.368 2787.93 157.769 L2814.5 157.728 Z" fill="#000000" fill-rule="nonzero" fill-opacity="1" /><polyline clip-path="url(#clip712)" style="stroke:#4682b4; stroke-linecap:round; stroke-linejoin:round; stroke-width:6; stroke-opacity:1; fill:none" points="505.052,1461.97 2157.56,936.128 3407.63,388.781 "/>
<circle clip-path="url(#clip712)" cx="505.052" cy="1461.97" r="14.4" fill="#4682b4" fill-rule="evenodd" fill-opacity="1" stroke="none"/>
<circle clip-path="url(#clip712)" cx="2157.56" cy="936.128" r="14.4" fill="#4682b4" fill-rule="evenodd" fill-opacity="1" stroke="none"/>
<circle clip-path="url(#clip712)" cx="3407.63" cy="388.781" r="14.4" fill="#4682b4" fill-rule="evenodd" fill-opacity="1" stroke="none"/>
<polyline clip-path="url(#clip712)" style="stroke:#2e8b57; stroke-linecap:round; stroke-linejoin:round; stroke-width:6; stroke-opacity:1; fill:none" points="505.052,1514.69 2157.56,885.622 "/>
<path clip-path="url(#clip712)" d="M505.052 1498.69 L489.052 1514.69 L505.052 1530.69 L521.052 1514.69 L505.052 1498.69 Z" fill="#2e8b57" fill-rule="evenodd" fill-opacity="1" stroke="none"/>
<path clip-path="url(#clip712)" d="M2157.56 869.622 L2141.56 885.622 L2157.56 901.622 L2173.56 885.622 L2157.56 869.622 Z" fill="#2e8b57" fill-rule="evenodd" fill-opacity="1" stroke="none"/>
<polyline clip-path="url(#clip712)" style="stroke:#ff6347; stroke-linecap:round; stroke-linejoin:round; stroke-width:6; stroke-opacity:1; fill:none" points="505.052,1949.72 2157.56,1495.92 3407.63,971.942 "/>
<path clip-path="url(#clip712)" d="M489.052 1933.72 L489.052 1965.72 L521.052 1965.72 L521.052 1933.72 L489.052 1933.72 Z" fill="#ff6347" fill-rule="evenodd" fill-opacity="1" stroke="none"/>
<path clip-path="url(#clip712)" d="M2141.56 1479.92 L2141.56 1511.92 L2173.56 1511.92 L2173.56 1479.92 L2141.56 1479.92 Z" fill="#ff6347" fill-rule="evenodd" fill-opacity="1" stroke="none"/>
<path clip-path="url(#clip712)" d="M3391.63 955.942 L3391.63 987.942 L3423.63 987.942 L3423.63 955.942 L3391.63 955.942 Z" fill="#ff6347" fill-rule="evenodd" fill-opacity="1" stroke="none"/>
<polyline clip-path="url(#clip712)" style="stroke:#ff8c00; stroke-linecap:round; stroke-linejoin:round; stroke-width:6; stroke-opacity:1; fill:none" points="505.052,2102.46 2157.56,1513.58 3407.63,1030.95 "/>
<path clip-path="url(#clip712)" d="M505.052 2086.46 L489.052 2118.46 L521.052 2118.46 L505.052 2086.46 Z" fill="#ff8c00" fill-rule="evenodd" fill-opacity="1" stroke="none"/>
<path clip-path="url(#clip712)" d="M2157.56 1497.58 L2141.56 1529.58 L2173.56 1529.58 L2157.56 1497.58 Z" fill="#ff8c00" fill-rule="evenodd" fill-opacity="1" stroke="none"/>
<path clip-path="url(#clip712)" d="M3407.63 1014.95 L3391.63 1046.95 L3423.63 1046.95 L3407.63 1014.95 Z" fill="#ff8c00" fill-rule="evenodd" fill-opacity="1" stroke="none"/>
<polyline clip-path="url(#clip712)" style="stroke:#9370db; stroke-linecap:round; stroke-linejoin:round; stroke-width:6; stroke-opacity:1; fill:none" points="505.052,1705.94 2157.56,1116.71 3407.63,592.708 "/>
<path clip-path="url(#clip712)" d="M521.052 1689.94 L489.052 1689.94 L505.052 1721.94 L521.052 1689.94 Z" fill="#9370db" fill-rule="evenodd" fill-opacity="1" stroke="none"/>
<path clip-path="url(#clip712)" d="M2173.56 1100.71 L2141.56 1100.71 L2157.56 1132.71 L2173.56 1100.71 Z" fill="#9370db" fill-rule="evenodd" fill-opacity="1" stroke="none"/>
<path clip-path="url(#clip712)" d="M3423.63 576.708 L3391.63 576.708 L3407.63 608.708 L3423.63 576.708 Z" fill="#9370db" fill-rule="evenodd" fill-opacity="1" stroke="none"/>
<polyline clip-path="url(#clip712)" style="stroke:#a0522d; stroke-linecap:round; stroke-linejoin:round; stroke-width:6; stroke-opacity:1; fill:none" points="505.052,1713.97 2157.56,1014.24 3407.63,300.989 "/>
<path clip-path="url(#clip712)" d="M505.052 1697.97 L501.292 1708.78 L489.836 1709.02 L498.972 1715.95 L495.644 1726.91 L505.052 1720.37 L514.46 1726.91 L511.132 1715.95 L520.268 1709.02 L508.812 1708.78 L505.052 1697.97 Z" fill="#a0522d" fill-rule="evenodd" fill-opacity="1" stroke="none"/>
<path clip-path="url(#clip712)" d="M2157.56 998.237 L2153.8 1009.05 L2142.34 1009.29 L2151.48 1016.22 L2148.15 1027.18 L2157.56 1020.64 L2166.96 1027.18 L2163.64 1016.22 L2172.77 1009.29 L2161.32 1009.05 L2157.56 998.237 Z" fill="#a0522d" fill-rule="evenodd" fill-opacity="1" stroke="none"/>
<path clip-path="url(#clip712)" d="M3407.63 284.989 L3403.87 295.805 L3392.41 296.045 L3401.55 302.973 L3398.22 313.933 L3407.63 307.389 L3417.04 313.933 L3413.71 302.973 L3422.84 296.045 L3411.39 295.805 L3407.63 284.989 Z" fill="#a0522d" fill-rule="evenodd" fill-opacity="1" stroke="none"/>
<path clip-path="url(#clip710)" d="M2756.98 2092.86 L3446.33 2092.86 L3446.33 1729.98 L2756.98 1729.98  Z" fill="#ffffff" fill-rule="evenodd" fill-opacity="1"/>
<polyline clip-path="url(#clip710)" style="stroke:#000000; stroke-linecap:round; stroke-linejoin:round; stroke-width:4; stroke-opacity:1; fill:none" points="2756.98,2092.86 3446.33,2092.86 3446.33,1729.98 2756.98,1729.98 2756.98,2092.86 "/>
<polyline clip-path="url(#clip710)" style="stroke:#4682b4; stroke-linecap:round; stroke-linejoin:round; stroke-width:6; stroke-opacity:1; fill:none" points="2792.45,1781.82 3005.31,1781.82 "/>
<circle clip-path="url(#clip710)" cx="2898.88" cy="1781.82" r="23.04" fill="#4682b4" fill-rule="evenodd" fill-opacity="1" stroke="none"/>
<path clip-path="url(#clip710)" d="M3051.41 1763.12 Q3048.31 1768.45 3046.8 1773.66 Q3045.3 1778.86 3045.3 1784.21 Q3045.3 1789.56 3046.8 1794.81 Q3048.33 1800.04 3051.41 1805.35 L3047.71 1805.35 Q3044.23 1799.91 3042.5 1794.65 Q3040.78 1789.4 3040.78 1784.21 Q3040.78 1779.05 3042.5 1773.82 Q3044.21 1768.59 3047.71 1763.12 L3051.41 1763.12 Z" fill="#000000" fill-rule="nonzero" fill-opacity="1" /><path clip-path="url(#clip710)" d="M3071.46 1786.06 Q3066.29 1786.06 3064.3 1787.24 Q3062.31 1788.42 3062.31 1791.27 Q3062.31 1793.54 3063.79 1794.88 Q3065.3 1796.2 3067.87 1796.2 Q3071.41 1796.2 3073.54 1793.7 Q3075.69 1791.18 3075.69 1787.01 L3075.69 1786.06 L3071.46 1786.06 M3079.95 1784.3 L3079.95 1799.1 L3075.69 1799.1 L3075.69 1795.16 Q3074.23 1797.52 3072.06 1798.66 Q3069.88 1799.77 3066.73 1799.77 Q3062.75 1799.77 3060.39 1797.54 Q3058.05 1795.3 3058.05 1791.55 Q3058.05 1787.17 3060.97 1784.95 Q3063.91 1782.73 3069.72 1782.73 L3075.69 1782.73 L3075.69 1782.31 Q3075.69 1779.37 3073.75 1777.78 Q3071.83 1776.16 3068.33 1776.16 Q3066.11 1776.16 3064 1776.69 Q3061.9 1777.22 3059.95 1778.29 L3059.95 1774.35 Q3062.29 1773.45 3064.49 1773.01 Q3066.69 1772.54 3068.77 1772.54 Q3074.4 1772.54 3077.17 1775.46 Q3079.95 1778.38 3079.95 1784.3 Z" fill="#000000" fill-rule="nonzero" fill-opacity="1" /><path clip-path="url(#clip710)" d="M3105.78 1777.1 L3105.78 1763.08 L3110.04 1763.08 L3110.04 1799.1 L3105.78 1799.1 L3105.78 1795.21 Q3104.44 1797.52 3102.38 1798.66 Q3100.34 1799.77 3097.47 1799.77 Q3092.78 1799.77 3089.81 1796.02 Q3086.87 1792.27 3086.87 1786.16 Q3086.87 1780.04 3089.81 1776.29 Q3092.78 1772.54 3097.47 1772.54 Q3100.34 1772.54 3102.38 1773.68 Q3104.44 1774.79 3105.78 1777.1 M3091.27 1786.16 Q3091.27 1790.85 3093.19 1793.54 Q3095.14 1796.2 3098.52 1796.2 Q3101.9 1796.2 3103.84 1793.54 Q3105.78 1790.85 3105.78 1786.16 Q3105.78 1781.46 3103.84 1778.79 Q3101.9 1776.11 3098.52 1776.11 Q3095.14 1776.11 3093.19 1778.79 Q3091.27 1781.46 3091.27 1786.16 Z" fill="#000000" fill-rule="nonzero" fill-opacity="1" /><path clip-path="url(#clip710)" d="M3140.37 1783.45 L3140.37 1799.1 L3136.11 1799.1 L3136.11 1783.59 Q3136.11 1779.91 3134.67 1778.08 Q3133.24 1776.25 3130.37 1776.25 Q3126.92 1776.25 3124.93 1778.45 Q3122.94 1780.65 3122.94 1784.44 L3122.94 1799.1 L3118.65 1799.1 L3118.65 1773.17 L3122.94 1773.17 L3122.94 1777.2 Q3124.46 1774.86 3126.53 1773.7 Q3128.61 1772.54 3131.32 1772.54 Q3135.78 1772.54 3138.08 1775.32 Q3140.37 1778.08 3140.37 1783.45 Z" fill="#000000" fill-rule="nonzero" fill-opacity="1" /><path clip-path="url(#clip710)" d="M3148.86 1763.08 L3153.12 1763.08 L3153.12 1799.1 L3148.86 1799.1 L3148.86 1763.08 Z" fill="#000000" fill-rule="nonzero" fill-opacity="1" /><path clip-path="url(#clip710)" d="M3166.15 1795.21 L3166.15 1808.96 L3161.87 1808.96 L3161.87 1773.17 L3166.15 1773.17 L3166.15 1777.1 Q3167.5 1774.79 3169.53 1773.68 Q3171.59 1772.54 3174.44 1772.54 Q3179.16 1772.54 3182.1 1776.29 Q3185.07 1780.04 3185.07 1786.16 Q3185.07 1792.27 3182.1 1796.02 Q3179.16 1799.77 3174.44 1799.77 Q3171.59 1799.77 3169.53 1798.66 Q3167.5 1797.52 3166.15 1795.21 M3180.65 1786.16 Q3180.65 1781.46 3178.7 1778.79 Q3176.78 1776.11 3173.4 1776.11 Q3170.02 1776.11 3168.08 1778.79 Q3166.15 1781.46 3166.15 1786.16 Q3166.15 1790.85 3168.08 1793.54 Q3170.02 1796.2 3173.4 1796.2 Q3176.78 1796.2 3178.7 1793.54 Q3180.65 1790.85 3180.65 1786.16 Z" fill="#000000" fill-rule="nonzero" fill-opacity="1" /><path clip-path="url(#clip710)" d="M3193.21 1793.22 L3198.1 1793.22 L3198.1 1797.2 L3194.3 1804.6 L3191.32 1804.6 L3193.21 1797.2 L3193.21 1793.22 Z" fill="#000000" fill-rule="nonzero" fill-opacity="1" /><path clip-path="url(#clip710)" d="M3222.27 1773.17 L3226.52 1773.17 L3226.52 1799.1 L3222.27 1799.1 L3222.27 1773.17 M3222.27 1763.08 L3226.52 1763.08 L3226.52 1768.47 L3222.27 1768.47 L3222.27 1763.08 Z" fill="#000000" fill-rule="nonzero" fill-opacity="1" /><path clip-path="url(#clip710)" d="M3239.56 1795.21 L3239.56 1808.96 L3235.27 1808.96 L3235.27 1773.17 L3239.56 1773.17 L3239.56 1777.1 Q3240.9 1774.79 3242.94 1773.68 Q3245 1772.54 3247.84 1772.54 Q3252.57 1772.54 3255.51 1776.29 Q3258.47 1780.04 3258.47 1786.16 Q3258.47 1792.27 3255.51 1796.02 Q3252.57 1799.77 3247.84 1799.77 Q3245 1799.77 3242.94 1798.66 Q3240.9 1797.52 3239.56 1795.21 M3254.05 1786.16 Q3254.05 1781.46 3252.1 1778.79 Q3250.18 1776.11 3246.8 1776.11 Q3243.42 1776.11 3241.48 1778.79 Q3239.56 1781.46 3239.56 1786.16 Q3239.56 1790.85 3241.48 1793.54 Q3243.42 1796.2 3246.8 1796.2 Q3250.18 1796.2 3252.1 1793.54 Q3254.05 1790.85 3254.05 1786.16 Z" fill="#000000" fill-rule="nonzero" fill-opacity="1" /><path clip-path="url(#clip710)" d="M3275.58 1776.16 Q3272.15 1776.16 3270.16 1778.84 Q3268.17 1781.5 3268.17 1786.16 Q3268.17 1790.81 3270.14 1793.49 Q3272.13 1796.16 3275.58 1796.16 Q3278.98 1796.16 3280.97 1793.47 Q3282.96 1790.79 3282.96 1786.16 Q3282.96 1781.55 3280.97 1778.86 Q3278.98 1776.16 3275.58 1776.16 M3275.58 1772.54 Q3281.13 1772.54 3284.3 1776.16 Q3287.47 1779.77 3287.47 1786.16 Q3287.47 1792.52 3284.3 1796.16 Q3281.13 1799.77 3275.58 1799.77 Q3270 1799.77 3266.83 1796.16 Q3263.68 1792.52 3263.68 1786.16 Q3263.68 1779.77 3266.83 1776.16 Q3270 1772.54 3275.58 1772.54 Z" fill="#000000" fill-rule="nonzero" fill-opacity="1" /><path clip-path="url(#clip710)" d="M3298.65 1795.21 L3298.65 1808.96 L3294.37 1808.96 L3294.37 1773.17 L3298.65 1773.17 L3298.65 1777.1 Q3300 1774.79 3302.03 1773.68 Q3304.09 1772.54 3306.94 1772.54 Q3311.66 1772.54 3314.6 1776.29 Q3317.57 1780.04 3317.57 1786.16 Q3317.57 1792.27 3314.6 1796.02 Q3311.66 1799.77 3306.94 1799.77 Q3304.09 1799.77 3302.03 1798.66 Q3300 1797.52 3298.65 1795.21 M3313.14 1786.16 Q3313.14 1781.46 3311.2 1778.79 Q3309.28 1776.11 3305.9 1776.11 Q3302.52 1776.11 3300.58 1778.79 Q3298.65 1781.46 3298.65 1786.16 Q3298.65 1790.85 3300.58 1793.54 Q3302.52 1796.2 3305.9 1796.2 Q3309.28 1796.2 3311.2 1793.54 Q3313.14 1790.85 3313.14 1786.16 Z" fill="#000000" fill-rule="nonzero" fill-opacity="1" /><path clip-path="url(#clip710)" d="M3328.84 1765.81 L3328.84 1773.17 L3337.61 1773.17 L3337.61 1776.48 L3328.84 1776.48 L3328.84 1790.55 Q3328.84 1793.73 3329.7 1794.63 Q3330.57 1795.53 3333.24 1795.53 L3337.61 1795.53 L3337.61 1799.1 L3333.24 1799.1 Q3328.31 1799.1 3326.43 1797.27 Q3324.56 1795.42 3324.56 1790.55 L3324.56 1776.48 L3321.43 1776.48 L3321.43 1773.17 L3324.56 1773.17 L3324.56 1765.81 L3328.84 1765.81 Z" fill="#000000" fill-rule="nonzero" fill-opacity="1" /><path clip-path="url(#clip710)" d="M3342.54 1763.12 L3346.25 1763.12 Q3349.72 1768.59 3351.43 1773.82 Q3353.17 1779.05 3353.17 1784.21 Q3353.17 1789.4 3351.43 1794.65 Q3349.72 1799.91 3346.25 1805.35 L3342.54 1805.35 Q3345.62 1800.04 3347.13 1794.81 Q3348.65 1789.56 3348.65 1784.21 Q3348.65 1778.86 3347.13 1773.66 Q3345.62 1768.45 3342.54 1763.12 Z" fill="#000000" fill-rule="nonzero" fill-opacity="1" /><polyline clip-path="url(#clip710)" style="stroke:#2e8b57; stroke-linecap:round; stroke-linejoin:round; stroke-width:6; stroke-opacity:1; fill:none" points="2792.45,1833.66 3005.31,1833.66 "/>
<path clip-path="url(#clip710)" d="M2898.88 1808.06 L2873.28 1833.66 L2898.88 1859.26 L2924.48 1833.66 L2898.88 1808.06 Z" fill="#2e8b57" fill-rule="evenodd" fill-opacity="1" stroke="none"/>
<path clip-path="url(#clip710)" d="M3051.41 1814.96 Q3048.31 1820.29 3046.8 1825.5 Q3045.3 1830.7 3045.3 1836.05 Q3045.3 1841.4 3046.8 1846.65 Q3048.33 1851.88 3051.41 1857.19 L3047.71 1857.19 Q3044.23 1851.75 3042.5 1846.49 Q3040.78 1841.24 3040.78 1836.05 Q3040.78 1830.89 3042.5 1825.66 Q3044.21 1820.43 3047.71 1814.96 L3051.41 1814.96 Z" fill="#000000" fill-rule="nonzero" fill-opacity="1" /><path clip-path="url(#clip710)" d="M3071.46 1837.9 Q3066.29 1837.9 3064.3 1839.08 Q3062.31 1840.26 3062.31 1843.11 Q3062.31 1845.38 3063.79 1846.72 Q3065.3 1848.04 3067.87 1848.04 Q3071.41 1848.04 3073.54 1845.54 Q3075.69 1843.02 3075.69 1838.85 L3075.69 1837.9 L3071.46 1837.9 M3079.95 1836.14 L3079.95 1850.94 L3075.69 1850.94 L3075.69 1847 Q3074.23 1849.36 3072.06 1850.5 Q3069.88 1851.61 3066.73 1851.61 Q3062.75 1851.61 3060.39 1849.38 Q3058.05 1847.14 3058.05 1843.39 Q3058.05 1839.01 3060.97 1836.79 Q3063.91 1834.57 3069.72 1834.57 L3075.69 1834.57 L3075.69 1834.15 Q3075.69 1831.21 3073.75 1829.62 Q3071.83 1828 3068.33 1828 Q3066.11 1828 3064 1828.53 Q3061.9 1829.06 3059.95 1830.13 L3059.95 1826.19 Q3062.29 1825.29 3064.49 1824.85 Q3066.69 1824.38 3068.77 1824.38 Q3074.4 1824.38 3077.17 1827.3 Q3079.95 1830.22 3079.95 1836.14 Z" fill="#000000" fill-rule="nonzero" fill-opacity="1" /><path clip-path="url(#clip710)" d="M3105.78 1828.94 L3105.78 1814.92 L3110.04 1814.92 L3110.04 1850.94 L3105.78 1850.94 L3105.78 1847.05 Q3104.44 1849.36 3102.38 1850.5 Q3100.34 1851.61 3097.47 1851.61 Q3092.78 1851.61 3089.81 1847.86 Q3086.87 1844.11 3086.87 1838 Q3086.87 1831.88 3089.81 1828.13 Q3092.78 1824.38 3097.47 1824.38 Q3100.34 1824.38 3102.38 1825.52 Q3104.44 1826.63 3105.78 1828.94 M3091.27 1838 Q3091.27 1842.69 3093.19 1845.38 Q3095.14 1848.04 3098.52 1848.04 Q3101.9 1848.04 3103.84 1845.38 Q3105.78 1842.69 3105.78 1838 Q3105.78 1833.3 3103.84 1830.63 Q3101.9 1827.95 3098.52 1827.95 Q3095.14 1827.95 3093.19 1830.63 Q3091.27 1833.3 3091.27 1838 Z" fill="#000000" fill-rule="nonzero" fill-opacity="1" /><path clip-path="url(#clip710)" d="M3140.37 1835.29 L3140.37 1850.94 L3136.11 1850.94 L3136.11 1835.43 Q3136.11 1831.75 3134.67 1829.92 Q3133.24 1828.09 3130.37 1828.09 Q3126.92 1828.09 3124.93 1830.29 Q3122.94 1832.49 3122.94 1836.28 L3122.94 1850.94 L3118.65 1850.94 L3118.65 1825.01 L3122.94 1825.01 L3122.94 1829.04 Q3124.46 1826.7 3126.53 1825.54 Q3128.61 1824.38 3131.32 1824.38 Q3135.78 1824.38 3138.08 1827.16 Q3140.37 1829.92 3140.37 1835.29 Z" fill="#000000" fill-rule="nonzero" fill-opacity="1" /><path clip-path="url(#clip710)" d="M3148.86 1814.92 L3153.12 1814.92 L3153.12 1850.94 L3148.86 1850.94 L3148.86 1814.92 Z" fill="#000000" fill-rule="nonzero" fill-opacity="1" /><path clip-path="url(#clip710)" d="M3166.15 1847.05 L3166.15 1860.8 L3161.87 1860.8 L3161.87 1825.01 L3166.15 1825.01 L3166.15 1828.94 Q3167.5 1826.63 3169.53 1825.52 Q3171.59 1824.38 3174.44 1824.38 Q3179.16 1824.38 3182.1 1828.13 Q3185.07 1831.88 3185.07 1838 Q3185.07 1844.11 3182.1 1847.86 Q3179.16 1851.61 3174.44 1851.61 Q3171.59 1851.61 3169.53 1850.5 Q3167.5 1849.36 3166.15 1847.05 M3180.65 1838 Q3180.65 1833.3 3178.7 1830.63 Q3176.78 1827.95 3173.4 1827.95 Q3170.02 1827.95 3168.08 1830.63 Q3166.15 1833.3 3166.15 1838 Q3166.15 1842.69 3168.08 1845.38 Q3170.02 1848.04 3173.4 1848.04 Q3176.78 1848.04 3178.7 1845.38 Q3180.65 1842.69 3180.65 1838 Z" fill="#000000" fill-rule="nonzero" fill-opacity="1" /><path clip-path="url(#clip710)" d="M3193.21 1845.06 L3198.1 1845.06 L3198.1 1849.04 L3194.3 1856.44 L3191.32 1856.44 L3193.21 1849.04 L3193.21 1845.06 Z" fill="#000000" fill-rule="nonzero" fill-opacity="1" /><path clip-path="url(#clip710)" d="M3242.45 1829.99 Q3244.05 1827.12 3246.27 1825.75 Q3248.49 1824.38 3251.5 1824.38 Q3255.55 1824.38 3257.75 1827.23 Q3259.95 1830.06 3259.95 1835.29 L3259.95 1850.94 L3255.67 1850.94 L3255.67 1835.43 Q3255.67 1831.7 3254.35 1829.89 Q3253.03 1828.09 3250.32 1828.09 Q3247.01 1828.09 3245.09 1830.29 Q3243.17 1832.49 3243.17 1836.28 L3243.17 1850.94 L3238.89 1850.94 L3238.89 1835.43 Q3238.89 1831.68 3237.57 1829.89 Q3236.25 1828.09 3233.49 1828.09 Q3230.23 1828.09 3228.31 1830.31 Q3226.39 1832.51 3226.39 1836.28 L3226.39 1850.94 L3222.1 1850.94 L3222.1 1825.01 L3226.39 1825.01 L3226.39 1829.04 Q3227.84 1826.65 3229.88 1825.52 Q3231.92 1824.38 3234.72 1824.38 Q3237.54 1824.38 3239.51 1825.82 Q3241.5 1827.26 3242.45 1829.99 Z" fill="#000000" fill-rule="nonzero" fill-opacity="1" /><path clip-path="url(#clip710)" d="M3280.23 1837.9 Q3275.07 1837.9 3273.08 1839.08 Q3271.08 1840.26 3271.08 1843.11 Q3271.08 1845.38 3272.57 1846.72 Q3274.07 1848.04 3276.64 1848.04 Q3280.18 1848.04 3282.31 1845.54 Q3284.46 1843.02 3284.46 1838.85 L3284.46 1837.9 L3280.23 1837.9 M3288.72 1836.14 L3288.72 1850.94 L3284.46 1850.94 L3284.46 1847 Q3283.01 1849.36 3280.83 1850.5 Q3278.65 1851.61 3275.51 1851.61 Q3271.52 1851.61 3269.16 1849.38 Q3266.83 1847.14 3266.83 1843.39 Q3266.83 1839.01 3269.74 1836.79 Q3272.68 1834.57 3278.49 1834.57 L3284.46 1834.57 L3284.46 1834.15 Q3284.46 1831.21 3282.52 1829.62 Q3280.6 1828 3277.1 1828 Q3274.88 1828 3272.77 1828.53 Q3270.67 1829.06 3268.72 1830.13 L3268.72 1826.19 Q3271.06 1825.29 3273.26 1824.85 Q3275.46 1824.38 3277.54 1824.38 Q3283.17 1824.38 3285.95 1827.3 Q3288.72 1830.22 3288.72 1836.14 Z" fill="#000000" fill-rule="nonzero" fill-opacity="1" /><path clip-path="url(#clip710)" d="M3314.56 1828.94 L3314.56 1814.92 L3318.82 1814.92 L3318.82 1850.94 L3314.56 1850.94 L3314.56 1847.05 Q3313.21 1849.36 3311.15 1850.5 Q3309.12 1851.61 3306.25 1851.61 Q3301.55 1851.61 3298.58 1847.86 Q3295.64 1844.11 3295.64 1838 Q3295.64 1831.88 3298.58 1828.13 Q3301.55 1824.38 3306.25 1824.38 Q3309.12 1824.38 3311.15 1825.52 Q3313.21 1826.63 3314.56 1828.94 M3300.04 1838 Q3300.04 1842.69 3301.96 1845.38 Q3303.91 1848.04 3307.29 1848.04 Q3310.67 1848.04 3312.61 1845.38 Q3314.56 1842.69 3314.56 1838 Q3314.56 1833.3 3312.61 1830.63 Q3310.67 1827.95 3307.29 1827.95 Q3303.91 1827.95 3301.96 1830.63 Q3300.04 1833.3 3300.04 1838 Z" fill="#000000" fill-rule="nonzero" fill-opacity="1" /><path clip-path="url(#clip710)" d="M3349.14 1835.29 L3349.14 1850.94 L3344.88 1850.94 L3344.88 1835.43 Q3344.88 1831.75 3343.45 1829.92 Q3342.01 1828.09 3339.14 1828.09 Q3335.69 1828.09 3333.7 1830.29 Q3331.71 1832.49 3331.71 1836.28 L3331.71 1850.94 L3327.43 1850.94 L3327.43 1825.01 L3331.71 1825.01 L3331.71 1829.04 Q3333.24 1826.7 3335.3 1825.54 Q3337.38 1824.38 3340.09 1824.38 Q3344.56 1824.38 3346.85 1827.16 Q3349.14 1829.92 3349.14 1835.29 Z" fill="#000000" fill-rule="nonzero" fill-opacity="1" /><path clip-path="url(#clip710)" d="M3357.63 1814.92 L3361.89 1814.92 L3361.89 1850.94 L3357.63 1850.94 L3357.63 1814.92 Z" fill="#000000" fill-rule="nonzero" fill-opacity="1" /><path clip-path="url(#clip710)" d="M3374.93 1847.05 L3374.93 1860.8 L3370.64 1860.8 L3370.64 1825.01 L3374.93 1825.01 L3374.93 1828.94 Q3376.27 1826.63 3378.31 1825.52 Q3380.37 1824.38 3383.21 1824.38 Q3387.94 1824.38 3390.88 1828.13 Q3393.84 1831.88 3393.84 1838 Q3393.84 1844.11 3390.88 1847.86 Q3387.94 1851.61 3383.21 1851.61 Q3380.37 1851.61 3378.31 1850.5 Q3376.27 1849.36 3374.93 1847.05 M3389.42 1838 Q3389.42 1833.3 3387.47 1830.63 Q3385.55 1827.95 3382.17 1827.95 Q3378.79 1827.95 3376.85 1830.63 Q3374.93 1833.3 3374.93 1838 Q3374.93 1842.69 3376.85 1845.38 Q3378.79 1848.04 3382.17 1848.04 Q3385.55 1848.04 3387.47 1845.38 Q3389.42 1842.69 3389.42 1838 Z" fill="#000000" fill-rule="nonzero" fill-opacity="1" /><path clip-path="url(#clip710)" d="M3400.23 1814.96 L3403.93 1814.96 Q3407.4 1820.43 3409.12 1825.66 Q3410.85 1830.89 3410.85 1836.05 Q3410.85 1841.24 3409.12 1846.49 Q3407.4 1851.75 3403.93 1857.19 L3400.23 1857.19 Q3403.31 1851.88 3404.81 1846.65 Q3406.34 1841.4 3406.34 1836.05 Q3406.34 1830.7 3404.81 1825.5 Q3403.31 1820.29 3400.23 1814.96 Z" fill="#000000" fill-rule="nonzero" fill-opacity="1" /><polyline clip-path="url(#clip710)" style="stroke:#ff6347; stroke-linecap:round; stroke-linejoin:round; stroke-width:6; stroke-opacity:1; fill:none" points="2792.45,1885.5 3005.31,1885.5 "/>
<path clip-path="url(#clip710)" d="M2873.28 1859.9 L2873.28 1911.1 L2924.48 1911.1 L2924.48 1859.9 L2873.28 1859.9 Z" fill="#ff6347" fill-rule="evenodd" fill-opacity="1" stroke="none"/>
<path clip-path="url(#clip710)" d="M3051.41 1866.8 Q3048.31 1872.13 3046.8 1877.34 Q3045.3 1882.54 3045.3 1887.89 Q3045.3 1893.24 3046.8 1898.49 Q3048.33 1903.72 3051.41 1909.03 L3047.71 1909.03 Q3044.23 1903.59 3042.5 1898.33 Q3040.78 1893.08 3040.78 1887.89 Q3040.78 1882.73 3042.5 1877.5 Q3044.21 1872.27 3047.71 1866.8 L3051.41 1866.8 Z" fill="#000000" fill-rule="nonzero" fill-opacity="1" /><path clip-path="url(#clip710)" d="M3081.85 1888.75 L3081.85 1890.83 L3062.27 1890.83 Q3062.54 1895.23 3064.91 1897.54 Q3067.29 1899.84 3071.53 1899.84 Q3073.98 1899.84 3076.27 1899.23 Q3078.59 1898.63 3080.85 1897.43 L3080.85 1901.46 Q3078.56 1902.43 3076.15 1902.94 Q3073.75 1903.45 3071.27 1903.45 Q3065.07 1903.45 3061.43 1899.84 Q3057.82 1896.22 3057.82 1890.07 Q3057.82 1883.7 3061.25 1879.97 Q3064.7 1876.22 3070.53 1876.22 Q3075.76 1876.22 3078.79 1879.6 Q3081.85 1882.96 3081.85 1888.75 M3077.59 1887.5 Q3077.54 1884 3075.62 1881.92 Q3073.72 1879.84 3070.58 1879.84 Q3067.01 1879.84 3064.86 1881.85 Q3062.73 1883.86 3062.41 1887.52 L3077.59 1887.5 Z" fill="#000000" fill-rule="nonzero" fill-opacity="1" /><path clip-path="url(#clip710)" d="M3109.56 1876.85 L3100.18 1889.47 L3110.04 1902.78 L3105.02 1902.78 L3097.47 1892.59 L3089.93 1902.78 L3084.9 1902.78 L3094.97 1889.21 L3085.76 1876.85 L3090.78 1876.85 L3097.66 1886.09 L3104.53 1876.85 L3109.56 1876.85 Z" fill="#000000" fill-rule="nonzero" fill-opacity="1" /><path clip-path="url(#clip710)" d="M3127.84 1889.74 Q3122.68 1889.74 3120.69 1890.92 Q3118.7 1892.1 3118.7 1894.95 Q3118.7 1897.22 3120.18 1898.56 Q3121.69 1899.88 3124.26 1899.88 Q3127.8 1899.88 3129.93 1897.38 Q3132.08 1894.86 3132.08 1890.69 L3132.08 1889.74 L3127.84 1889.74 M3136.34 1887.98 L3136.34 1902.78 L3132.08 1902.78 L3132.08 1898.84 Q3130.62 1901.2 3128.45 1902.34 Q3126.27 1903.45 3123.12 1903.45 Q3119.14 1903.45 3116.78 1901.22 Q3114.44 1898.98 3114.44 1895.23 Q3114.44 1890.85 3117.36 1888.63 Q3120.3 1886.41 3126.11 1886.41 L3132.08 1886.41 L3132.08 1885.99 Q3132.08 1883.05 3130.14 1881.46 Q3128.21 1879.84 3124.72 1879.84 Q3122.5 1879.84 3120.39 1880.37 Q3118.28 1880.9 3116.34 1881.97 L3116.34 1878.03 Q3118.68 1877.13 3120.88 1876.69 Q3123.08 1876.22 3125.16 1876.22 Q3130.78 1876.22 3133.56 1879.14 Q3136.34 1882.06 3136.34 1887.98 Z" fill="#000000" fill-rule="nonzero" fill-opacity="1" /><path clip-path="url(#clip710)" d="M3146.2 1896.9 L3151.09 1896.9 L3151.09 1900.88 L3147.29 1908.28 L3144.3 1908.28 L3146.2 1900.88 L3146.2 1896.9 Z" fill="#000000" fill-rule="nonzero" fill-opacity="1" /><path clip-path="url(#clip710)" d="M3175.25 1876.85 L3179.51 1876.85 L3179.51 1902.78 L3175.25 1902.78 L3175.25 1876.85 M3175.25 1866.76 L3179.51 1866.76 L3179.51 1872.15 L3175.25 1872.15 L3175.25 1866.76 Z" fill="#000000" fill-rule="nonzero" fill-opacity="1" /><path clip-path="url(#clip710)" d="M3192.54 1898.89 L3192.54 1912.64 L3188.26 1912.64 L3188.26 1876.85 L3192.54 1876.85 L3192.54 1880.78 Q3193.89 1878.47 3195.92 1877.36 Q3197.98 1876.22 3200.83 1876.22 Q3205.55 1876.22 3208.49 1879.97 Q3211.46 1883.72 3211.46 1889.84 Q3211.46 1895.95 3208.49 1899.7 Q3205.55 1903.45 3200.83 1903.45 Q3197.98 1903.45 3195.92 1902.34 Q3193.89 1901.2 3192.54 1898.89 M3207.03 1889.84 Q3207.03 1885.14 3205.09 1882.47 Q3203.17 1879.79 3199.79 1879.79 Q3196.41 1879.79 3194.46 1882.47 Q3192.54 1885.14 3192.54 1889.84 Q3192.54 1894.53 3194.46 1897.22 Q3196.41 1899.88 3199.79 1899.88 Q3203.17 1899.88 3205.09 1897.22 Q3207.03 1894.53 3207.03 1889.84 Z" fill="#000000" fill-rule="nonzero" fill-opacity="1" /><path clip-path="url(#clip710)" d="M3228.56 1879.84 Q3225.14 1879.84 3223.14 1882.52 Q3221.15 1885.18 3221.15 1889.84 Q3221.15 1894.49 3223.12 1897.17 Q3225.11 1899.84 3228.56 1899.84 Q3231.96 1899.84 3233.96 1897.15 Q3235.95 1894.47 3235.95 1889.84 Q3235.95 1885.23 3233.96 1882.54 Q3231.96 1879.84 3228.56 1879.84 M3228.56 1876.22 Q3234.12 1876.22 3237.29 1879.84 Q3240.46 1883.45 3240.46 1889.84 Q3240.46 1896.2 3237.29 1899.84 Q3234.12 1903.45 3228.56 1903.45 Q3222.98 1903.45 3219.81 1899.84 Q3216.66 1896.2 3216.66 1889.84 Q3216.66 1883.45 3219.81 1879.84 Q3222.98 1876.22 3228.56 1876.22 Z" fill="#000000" fill-rule="nonzero" fill-opacity="1" /><path clip-path="url(#clip710)" d="M3251.64 1898.89 L3251.64 1912.64 L3247.36 1912.64 L3247.36 1876.85 L3251.64 1876.85 L3251.64 1880.78 Q3252.98 1878.47 3255.02 1877.36 Q3257.08 1876.22 3259.93 1876.22 Q3264.65 1876.22 3267.59 1879.97 Q3270.55 1883.72 3270.55 1889.84 Q3270.55 1895.95 3267.59 1899.7 Q3264.65 1903.45 3259.93 1903.45 Q3257.08 1903.45 3255.02 1902.34 Q3252.98 1901.2 3251.64 1898.89 M3266.13 1889.84 Q3266.13 1885.14 3264.19 1882.47 Q3262.27 1879.79 3258.89 1879.79 Q3255.51 1879.79 3253.56 1882.47 Q3251.64 1885.14 3251.64 1889.84 Q3251.64 1894.53 3253.56 1897.22 Q3255.51 1899.88 3258.89 1899.88 Q3262.27 1899.88 3264.19 1897.22 Q3266.13 1894.53 3266.13 1889.84 Z" fill="#000000" fill-rule="nonzero" fill-opacity="1" /><path clip-path="url(#clip710)" d="M3281.83 1869.49 L3281.83 1876.85 L3290.6 1876.85 L3290.6 1880.16 L3281.83 1880.16 L3281.83 1894.23 Q3281.83 1897.41 3282.68 1898.31 Q3283.56 1899.21 3286.22 1899.21 L3290.6 1899.21 L3290.6 1902.78 L3286.22 1902.78 Q3281.29 1902.78 3279.42 1900.95 Q3277.54 1899.1 3277.54 1894.23 L3277.54 1880.16 L3274.42 1880.16 L3274.42 1876.85 L3277.54 1876.85 L3277.54 1869.49 L3281.83 1869.49 Z" fill="#000000" fill-rule="nonzero" fill-opacity="1" /><path clip-path="url(#clip710)" d="M3295.53 1866.8 L3299.23 1866.8 Q3302.7 1872.27 3304.42 1877.5 Q3306.15 1882.73 3306.15 1887.89 Q3306.15 1893.08 3304.42 1898.33 Q3302.7 1903.59 3299.23 1909.03 L3295.53 1909.03 Q3298.61 1903.72 3300.11 1898.49 Q3301.64 1893.24 3301.64 1887.89 Q3301.64 1882.54 3300.11 1877.34 Q3298.61 1872.13 3295.53 1866.8 Z" fill="#000000" fill-rule="nonzero" fill-opacity="1" /><polyline clip-path="url(#clip710)" style="stroke:#ff8c00; stroke-linecap:round; stroke-linejoin:round; stroke-width:6; stroke-opacity:1; fill:none" points="2792.45,1937.34 3005.31,1937.34 "/>
<path clip-path="url(#clip710)" d="M2898.88 1911.74 L2873.28 1962.94 L2924.48 1962.94 L2898.88 1911.74 Z" fill="#ff8c00" fill-rule="evenodd" fill-opacity="1" stroke="none"/>
<path clip-path="url(#clip710)" d="M3051.41 1918.64 Q3048.31 1923.97 3046.8 1929.18 Q3045.3 1934.38 3045.3 1939.73 Q3045.3 1945.08 3046.8 1950.33 Q3048.33 1955.56 3051.41 1960.87 L3047.71 1960.87 Q3044.23 1955.43 3042.5 1950.17 Q3040.78 1944.92 3040.78 1939.73 Q3040.78 1934.57 3042.5 1929.34 Q3044.21 1924.11 3047.71 1918.64 L3051.41 1918.64 Z" fill="#000000" fill-rule="nonzero" fill-opacity="1" /><path clip-path="url(#clip710)" d="M3081.85 1940.59 L3081.85 1942.67 L3062.27 1942.67 Q3062.54 1947.07 3064.91 1949.38 Q3067.29 1951.68 3071.53 1951.68 Q3073.98 1951.68 3076.27 1951.07 Q3078.59 1950.47 3080.85 1949.27 L3080.85 1953.3 Q3078.56 1954.27 3076.15 1954.78 Q3073.75 1955.29 3071.27 1955.29 Q3065.07 1955.29 3061.43 1951.68 Q3057.82 1948.06 3057.82 1941.91 Q3057.82 1935.54 3061.25 1931.81 Q3064.7 1928.06 3070.53 1928.06 Q3075.76 1928.06 3078.79 1931.44 Q3081.85 1934.8 3081.85 1940.59 M3077.59 1939.34 Q3077.54 1935.84 3075.62 1933.76 Q3073.72 1931.68 3070.58 1931.68 Q3067.01 1931.68 3064.86 1933.69 Q3062.73 1935.7 3062.41 1939.36 L3077.59 1939.34 Z" fill="#000000" fill-rule="nonzero" fill-opacity="1" /><path clip-path="url(#clip710)" d="M3109.56 1928.69 L3100.18 1941.31 L3110.04 1954.62 L3105.02 1954.62 L3097.47 1944.43 L3089.93 1954.62 L3084.9 1954.62 L3094.97 1941.05 L3085.76 1928.69 L3090.78 1928.69 L3097.66 1937.93 L3104.53 1928.69 L3109.56 1928.69 Z" fill="#000000" fill-rule="nonzero" fill-opacity="1" /><path clip-path="url(#clip710)" d="M3127.84 1941.58 Q3122.68 1941.58 3120.69 1942.76 Q3118.7 1943.94 3118.7 1946.79 Q3118.7 1949.06 3120.18 1950.4 Q3121.69 1951.72 3124.26 1951.72 Q3127.8 1951.72 3129.93 1949.22 Q3132.08 1946.7 3132.08 1942.53 L3132.08 1941.58 L3127.84 1941.58 M3136.34 1939.82 L3136.34 1954.62 L3132.08 1954.62 L3132.08 1950.68 Q3130.62 1953.04 3128.45 1954.18 Q3126.27 1955.29 3123.12 1955.29 Q3119.14 1955.29 3116.78 1953.06 Q3114.44 1950.82 3114.44 1947.07 Q3114.44 1942.69 3117.36 1940.47 Q3120.3 1938.25 3126.11 1938.25 L3132.08 1938.25 L3132.08 1937.83 Q3132.08 1934.89 3130.14 1933.3 Q3128.21 1931.68 3124.72 1931.68 Q3122.5 1931.68 3120.39 1932.21 Q3118.28 1932.74 3116.34 1933.81 L3116.34 1929.87 Q3118.68 1928.97 3120.88 1928.53 Q3123.08 1928.06 3125.16 1928.06 Q3130.78 1928.06 3133.56 1930.98 Q3136.34 1933.9 3136.34 1939.82 Z" fill="#000000" fill-rule="nonzero" fill-opacity="1" /><path clip-path="url(#clip710)" d="M3146.2 1948.74 L3151.09 1948.74 L3151.09 1952.72 L3147.29 1960.12 L3144.3 1960.12 L3146.2 1952.72 L3146.2 1948.74 Z" fill="#000000" fill-rule="nonzero" fill-opacity="1" /><path clip-path="url(#clip710)" d="M3195.44 1933.67 Q3197.03 1930.8 3199.26 1929.43 Q3201.48 1928.06 3204.49 1928.06 Q3208.54 1928.06 3210.74 1930.91 Q3212.94 1933.74 3212.94 1938.97 L3212.94 1954.62 L3208.65 1954.62 L3208.65 1939.11 Q3208.65 1935.38 3207.33 1933.57 Q3206.02 1931.77 3203.31 1931.77 Q3200 1931.77 3198.08 1933.97 Q3196.15 1936.17 3196.15 1939.96 L3196.15 1954.62 L3191.87 1954.62 L3191.87 1939.11 Q3191.87 1935.36 3190.55 1933.57 Q3189.23 1931.77 3186.48 1931.77 Q3183.21 1931.77 3181.29 1933.99 Q3179.37 1936.19 3179.37 1939.96 L3179.37 1954.62 L3175.09 1954.62 L3175.09 1928.69 L3179.37 1928.69 L3179.37 1932.72 Q3180.83 1930.33 3182.87 1929.2 Q3184.9 1928.06 3187.71 1928.06 Q3190.53 1928.06 3192.5 1929.5 Q3194.49 1930.94 3195.44 1933.67 Z" fill="#000000" fill-rule="nonzero" fill-opacity="1" /><path clip-path="url(#clip710)" d="M3233.21 1941.58 Q3228.05 1941.58 3226.06 1942.76 Q3224.07 1943.94 3224.07 1946.79 Q3224.07 1949.06 3225.55 1950.4 Q3227.06 1951.72 3229.63 1951.72 Q3233.17 1951.72 3235.3 1949.22 Q3237.45 1946.7 3237.45 1942.53 L3237.45 1941.58 L3233.21 1941.58 M3241.71 1939.82 L3241.71 1954.62 L3237.45 1954.62 L3237.45 1950.68 Q3235.99 1953.04 3233.82 1954.18 Q3231.64 1955.29 3228.49 1955.29 Q3224.51 1955.29 3222.15 1953.06 Q3219.81 1950.82 3219.81 1947.07 Q3219.81 1942.69 3222.73 1940.47 Q3225.67 1938.25 3231.48 1938.25 L3237.45 1938.25 L3237.45 1937.83 Q3237.45 1934.89 3235.51 1933.3 Q3233.58 1931.68 3230.09 1931.68 Q3227.87 1931.68 3225.76 1932.21 Q3223.65 1932.74 3221.71 1933.81 L3221.71 1929.87 Q3224.05 1928.97 3226.25 1928.53 Q3228.45 1928.06 3230.53 1928.06 Q3236.15 1928.06 3238.93 1930.98 Q3241.71 1933.9 3241.71 1939.82 Z" fill="#000000" fill-rule="nonzero" fill-opacity="1" /><path clip-path="url(#clip710)" d="M3267.54 1932.62 L3267.54 1918.6 L3271.8 1918.6 L3271.8 1954.62 L3267.54 1954.62 L3267.54 1950.73 Q3266.2 1953.04 3264.14 1954.18 Q3262.1 1955.29 3259.23 1955.29 Q3254.53 1955.29 3251.57 1951.54 Q3248.63 1947.79 3248.63 1941.68 Q3248.63 1935.56 3251.57 1931.81 Q3254.53 1928.06 3259.23 1928.06 Q3262.1 1928.06 3264.14 1929.2 Q3266.2 1930.31 3267.54 1932.62 M3253.03 1941.68 Q3253.03 1946.37 3254.95 1949.06 Q3256.89 1951.72 3260.27 1951.72 Q3263.65 1951.72 3265.6 1949.06 Q3267.54 1946.37 3267.54 1941.68 Q3267.54 1936.98 3265.6 1934.31 Q3263.65 1931.63 3260.27 1931.63 Q3256.89 1931.63 3254.95 1934.31 Q3253.03 1936.98 3253.03 1941.68 Z" fill="#000000" fill-rule="nonzero" fill-opacity="1" /><path clip-path="url(#clip710)" d="M3302.13 1938.97 L3302.13 1954.62 L3297.87 1954.62 L3297.87 1939.11 Q3297.87 1935.43 3296.43 1933.6 Q3295 1931.77 3292.13 1931.77 Q3288.68 1931.77 3286.69 1933.97 Q3284.7 1936.17 3284.7 1939.96 L3284.7 1954.62 L3280.41 1954.62 L3280.41 1928.69 L3284.7 1928.69 L3284.7 1932.72 Q3286.22 1930.38 3288.28 1929.22 Q3290.37 1928.06 3293.08 1928.06 Q3297.54 1928.06 3299.83 1930.84 Q3302.13 1933.6 3302.13 1938.97 Z" fill="#000000" fill-rule="nonzero" fill-opacity="1" /><path clip-path="url(#clip710)" d="M3310.62 1918.6 L3314.88 1918.6 L3314.88 1954.62 L3310.62 1954.62 L3310.62 1918.6 Z" fill="#000000" fill-rule="nonzero" fill-opacity="1" /><path clip-path="url(#clip710)" d="M3327.91 1950.73 L3327.91 1964.48 L3323.63 1964.48 L3323.63 1928.69 L3327.91 1928.69 L3327.91 1932.62 Q3329.26 1930.31 3331.29 1929.2 Q3333.35 1928.06 3336.2 1928.06 Q3340.92 1928.06 3343.86 1931.81 Q3346.82 1935.56 3346.82 1941.68 Q3346.82 1947.79 3343.86 1951.54 Q3340.92 1955.29 3336.2 1955.29 Q3333.35 1955.29 3331.29 1954.18 Q3329.26 1953.04 3327.91 1950.73 M3342.4 1941.68 Q3342.4 1936.98 3340.46 1934.31 Q3338.54 1931.63 3335.16 1931.63 Q3331.78 1931.63 3329.83 1934.31 Q3327.91 1936.98 3327.91 1941.68 Q3327.91 1946.37 3329.83 1949.06 Q3331.78 1951.72 3335.16 1951.72 Q3338.54 1951.72 3340.46 1949.06 Q3342.4 1946.37 3342.4 1941.68 Z" fill="#000000" fill-rule="nonzero" fill-opacity="1" /><path clip-path="url(#clip710)" d="M3353.21 1918.64 L3356.92 1918.64 Q3360.39 1924.11 3362.1 1929.34 Q3363.84 1934.57 3363.84 1939.73 Q3363.84 1944.92 3362.1 1950.17 Q3360.39 1955.43 3356.92 1960.87 L3353.21 1960.87 Q3356.29 1955.56 3357.8 1950.33 Q3359.32 1945.08 3359.32 1939.73 Q3359.32 1934.38 3357.8 1929.18 Q3356.29 1923.97 3353.21 1918.64 Z" fill="#000000" fill-rule="nonzero" fill-opacity="1" /><polyline clip-path="url(#clip710)" style="stroke:#9370db; stroke-linecap:round; stroke-linejoin:round; stroke-width:6; stroke-opacity:1; fill:none" points="2792.45,1989.18 3005.31,1989.18 "/>
<path clip-path="url(#clip710)" d="M2924.48 1963.58 L2873.28 1963.58 L2898.88 2014.78 L2924.48 1963.58 Z" fill="#9370db" fill-rule="evenodd" fill-opacity="1" stroke="none"/>
<path clip-path="url(#clip710)" d="M3051.41 1970.48 Q3048.31 1975.81 3046.8 1981.02 Q3045.3 1986.22 3045.3 1991.57 Q3045.3 1996.92 3046.8 2002.17 Q3048.33 2007.4 3051.41 2012.71 L3047.71 2012.71 Q3044.23 2007.27 3042.5 2002.01 Q3040.78 1996.76 3040.78 1991.57 Q3040.78 1986.41 3042.5 1981.18 Q3044.21 1975.95 3047.71 1970.48 L3051.41 1970.48 Z" fill="#000000" fill-rule="nonzero" fill-opacity="1" /><path clip-path="url(#clip710)" d="M3059.67 1980.53 L3063.93 1980.53 L3063.93 2006.92 Q3063.93 2011.87 3062.03 2014.09 Q3060.16 2016.32 3055.97 2016.32 L3054.35 2016.32 L3054.35 2012.71 L3055.48 2012.71 Q3057.91 2012.71 3058.79 2011.57 Q3059.67 2010.46 3059.67 2006.92 L3059.67 1980.53 M3059.67 1970.44 L3063.93 1970.44 L3063.93 1975.83 L3059.67 1975.83 L3059.67 1970.44 Z" fill="#000000" fill-rule="nonzero" fill-opacity="1" /><path clip-path="url(#clip710)" d="M3072.4 1996.22 L3072.4 1980.53 L3076.66 1980.53 L3076.66 1996.06 Q3076.66 1999.74 3078.1 2001.59 Q3079.53 2003.42 3082.4 2003.42 Q3085.85 2003.42 3087.84 2001.22 Q3089.86 1999.03 3089.86 1995.23 L3089.86 1980.53 L3094.12 1980.53 L3094.12 2006.46 L3089.86 2006.46 L3089.86 2002.47 Q3088.31 2004.84 3086.25 2005.99 Q3084.21 2007.13 3081.5 2007.13 Q3077.03 2007.13 3074.72 2004.35 Q3072.4 2001.57 3072.4 1996.22 M3083.12 1979.9 L3083.12 1979.9 Z" fill="#000000" fill-rule="nonzero" fill-opacity="1" /><path clip-path="url(#clip710)" d="M3123.08 1985.51 Q3124.67 1982.64 3126.9 1981.27 Q3129.12 1979.9 3132.13 1979.9 Q3136.18 1979.9 3138.38 1982.75 Q3140.58 1985.58 3140.58 1990.81 L3140.58 2006.46 L3136.29 2006.46 L3136.29 1990.95 Q3136.29 1987.22 3134.97 1985.41 Q3133.65 1983.61 3130.95 1983.61 Q3127.64 1983.61 3125.71 1985.81 Q3123.79 1988.01 3123.79 1991.8 L3123.79 2006.46 L3119.51 2006.46 L3119.51 1990.95 Q3119.51 1987.2 3118.19 1985.41 Q3116.87 1983.61 3114.12 1983.61 Q3110.85 1983.61 3108.93 1985.83 Q3107.01 1988.03 3107.01 1991.8 L3107.01 2006.46 L3102.73 2006.46 L3102.73 1980.53 L3107.01 1980.53 L3107.01 1984.56 Q3108.47 1982.17 3110.51 1981.04 Q3112.54 1979.9 3115.34 1979.9 Q3118.17 1979.9 3120.14 1981.34 Q3122.13 1982.78 3123.08 1985.51 Z" fill="#000000" fill-rule="nonzero" fill-opacity="1" /><path clip-path="url(#clip710)" d="M3153.19 2002.57 L3153.19 2016.32 L3148.91 2016.32 L3148.91 1980.53 L3153.19 1980.53 L3153.19 1984.46 Q3154.53 1982.15 3156.57 1981.04 Q3158.63 1979.9 3161.48 1979.9 Q3166.2 1979.9 3169.14 1983.65 Q3172.1 1987.4 3172.1 1993.52 Q3172.1 1999.63 3169.14 2003.38 Q3166.2 2007.13 3161.48 2007.13 Q3158.63 2007.13 3156.57 2006.02 Q3154.53 2004.88 3153.19 2002.57 M3167.68 1993.52 Q3167.68 1988.82 3165.74 1986.15 Q3163.82 1983.47 3160.44 1983.47 Q3157.06 1983.47 3155.11 1986.15 Q3153.19 1988.82 3153.19 1993.52 Q3153.19 1998.21 3155.11 2000.9 Q3157.06 2003.56 3160.44 2003.56 Q3163.82 2003.56 3165.74 2000.9 Q3167.68 1998.21 3167.68 1993.52 Z" fill="#000000" fill-rule="nonzero" fill-opacity="1" /><path clip-path="url(#clip710)" d="M3180.25 2000.58 L3185.14 2000.58 L3185.14 2004.56 L3181.34 2011.96 L3178.35 2011.96 L3180.25 2004.56 L3180.25 2000.58 Z" fill="#000000" fill-rule="nonzero" fill-opacity="1" /><path clip-path="url(#clip710)" d="M3209.3 1980.53 L3213.56 1980.53 L3213.56 2006.46 L3209.3 2006.46 L3209.3 1980.53 M3209.3 1970.44 L3213.56 1970.44 L3213.56 1975.83 L3209.3 1975.83 L3209.3 1970.44 Z" fill="#000000" fill-rule="nonzero" fill-opacity="1" /><path clip-path="url(#clip710)" d="M3226.59 2002.57 L3226.59 2016.32 L3222.31 2016.32 L3222.31 1980.53 L3226.59 1980.53 L3226.59 1984.46 Q3227.94 1982.15 3229.97 1981.04 Q3232.03 1979.9 3234.88 1979.9 Q3239.6 1979.9 3242.54 1983.65 Q3245.51 1987.4 3245.51 1993.52 Q3245.51 1999.63 3242.54 2003.38 Q3239.6 2007.13 3234.88 2007.13 Q3232.03 2007.13 3229.97 2006.02 Q3227.94 2004.88 3226.59 2002.57 M3241.08 1993.52 Q3241.08 1988.82 3239.14 1986.15 Q3237.22 1983.47 3233.84 1983.47 Q3230.46 1983.47 3228.52 1986.15 Q3226.59 1988.82 3226.59 1993.52 Q3226.59 1998.21 3228.52 2000.9 Q3230.46 2003.56 3233.84 2003.56 Q3237.22 2003.56 3239.14 2000.9 Q3241.08 1998.21 3241.08 1993.52 Z" fill="#000000" fill-rule="nonzero" fill-opacity="1" /><path clip-path="url(#clip710)" d="M3262.61 1983.52 Q3259.19 1983.52 3257.2 1986.2 Q3255.2 1988.86 3255.2 1993.52 Q3255.2 1998.17 3257.17 2000.85 Q3259.16 2003.52 3262.61 2003.52 Q3266.02 2003.52 3268.01 2000.83 Q3270 1998.15 3270 1993.52 Q3270 1988.91 3268.01 1986.22 Q3266.02 1983.52 3262.61 1983.52 M3262.61 1979.9 Q3268.17 1979.9 3271.34 1983.52 Q3274.51 1987.13 3274.51 1993.52 Q3274.51 1999.88 3271.34 2003.52 Q3268.17 2007.13 3262.61 2007.13 Q3257.03 2007.13 3253.86 2003.52 Q3250.71 1999.88 3250.71 1993.52 Q3250.71 1987.13 3253.86 1983.52 Q3257.03 1979.9 3262.61 1979.9 Z" fill="#000000" fill-rule="nonzero" fill-opacity="1" /><path clip-path="url(#clip710)" d="M3285.69 2002.57 L3285.69 2016.32 L3281.41 2016.32 L3281.41 1980.53 L3285.69 1980.53 L3285.69 1984.46 Q3287.03 1982.15 3289.07 1981.04 Q3291.13 1979.9 3293.98 1979.9 Q3298.7 1979.9 3301.64 1983.65 Q3304.6 1987.4 3304.6 1993.52 Q3304.6 1999.63 3301.64 2003.38 Q3298.7 2007.13 3293.98 2007.13 Q3291.13 2007.13 3289.07 2006.02 Q3287.03 2004.88 3285.69 2002.57 M3300.18 1993.52 Q3300.18 1988.82 3298.24 1986.15 Q3296.32 1983.47 3292.94 1983.47 Q3289.56 1983.47 3287.61 1986.15 Q3285.69 1988.82 3285.69 1993.52 Q3285.69 1998.21 3287.61 2000.9 Q3289.56 2003.56 3292.94 2003.56 Q3296.32 2003.56 3298.24 2000.9 Q3300.18 1998.21 3300.18 1993.52 Z" fill="#000000" fill-rule="nonzero" fill-opacity="1" /><path clip-path="url(#clip710)" d="M3315.88 1973.17 L3315.88 1980.53 L3324.65 1980.53 L3324.65 1983.84 L3315.88 1983.84 L3315.88 1997.91 Q3315.88 2001.09 3316.73 2001.99 Q3317.61 2002.89 3320.27 2002.89 L3324.65 2002.89 L3324.65 2006.46 L3320.27 2006.46 Q3315.34 2006.46 3313.47 2004.63 Q3311.59 2002.78 3311.59 1997.91 L3311.59 1983.84 L3308.47 1983.84 L3308.47 1980.53 L3311.59 1980.53 L3311.59 1973.17 L3315.88 1973.17 Z" fill="#000000" fill-rule="nonzero" fill-opacity="1" /><path clip-path="url(#clip710)" d="M3329.58 1970.48 L3333.28 1970.48 Q3336.76 1975.95 3338.47 1981.18 Q3340.2 1986.41 3340.2 1991.57 Q3340.2 1996.76 3338.47 2002.01 Q3336.76 2007.27 3333.28 2012.71 L3329.58 2012.71 Q3332.66 2007.4 3334.16 2002.17 Q3335.69 1996.92 3335.69 1991.57 Q3335.69 1986.22 3334.16 1981.02 Q3332.66 1975.81 3329.58 1970.48 Z" fill="#000000" fill-rule="nonzero" fill-opacity="1" /><polyline clip-path="url(#clip710)" style="stroke:#a0522d; stroke-linecap:round; stroke-linejoin:round; stroke-width:6; stroke-opacity:1; fill:none" points="2792.45,2041.02 3005.31,2041.02 "/>
<path clip-path="url(#clip710)" d="M2898.88 2015.42 L2892.87 2032.72 L2874.54 2033.11 L2889.15 2044.19 L2883.83 2061.73 L2898.88 2051.26 L2913.93 2061.73 L2908.61 2044.19 L2923.23 2033.11 L2904.9 2032.72 L2898.88 2015.42 Z" fill="#a0522d" fill-rule="evenodd" fill-opacity="1" stroke="none"/>
<path clip-path="url(#clip710)" d="M3051.41 2022.32 Q3048.31 2027.65 3046.8 2032.86 Q3045.3 2038.06 3045.3 2043.41 Q3045.3 2048.76 3046.8 2054.01 Q3048.33 2059.24 3051.41 2064.55 L3047.71 2064.55 Q3044.23 2059.11 3042.5 2053.85 Q3040.78 2048.6 3040.78 2043.41 Q3040.78 2038.25 3042.5 2033.02 Q3044.21 2027.79 3047.71 2022.32 L3051.41 2022.32 Z" fill="#000000" fill-rule="nonzero" fill-opacity="1" /><path clip-path="url(#clip710)" d="M3059.67 2032.37 L3063.93 2032.37 L3063.93 2058.76 Q3063.93 2063.71 3062.03 2065.93 Q3060.16 2068.16 3055.97 2068.16 L3054.35 2068.16 L3054.35 2064.55 L3055.48 2064.55 Q3057.91 2064.55 3058.79 2063.41 Q3059.67 2062.3 3059.67 2058.76 L3059.67 2032.37 M3059.67 2022.28 L3063.93 2022.28 L3063.93 2027.67 L3059.67 2027.67 L3059.67 2022.28 Z" fill="#000000" fill-rule="nonzero" fill-opacity="1" /><path clip-path="url(#clip710)" d="M3072.4 2048.06 L3072.4 2032.37 L3076.66 2032.37 L3076.66 2047.9 Q3076.66 2051.58 3078.1 2053.43 Q3079.53 2055.26 3082.4 2055.26 Q3085.85 2055.26 3087.84 2053.06 Q3089.86 2050.87 3089.86 2047.07 L3089.86 2032.37 L3094.12 2032.37 L3094.12 2058.3 L3089.86 2058.3 L3089.86 2054.31 Q3088.31 2056.68 3086.25 2057.83 Q3084.21 2058.97 3081.5 2058.97 Q3077.03 2058.97 3074.72 2056.19 Q3072.4 2053.41 3072.4 2048.06 M3083.12 2031.74 L3083.12 2031.74 Z" fill="#000000" fill-rule="nonzero" fill-opacity="1" /><path clip-path="url(#clip710)" d="M3123.08 2037.35 Q3124.67 2034.48 3126.9 2033.11 Q3129.12 2031.74 3132.13 2031.74 Q3136.18 2031.74 3138.38 2034.59 Q3140.58 2037.42 3140.58 2042.65 L3140.58 2058.3 L3136.29 2058.3 L3136.29 2042.79 Q3136.29 2039.06 3134.97 2037.25 Q3133.65 2035.45 3130.95 2035.45 Q3127.64 2035.45 3125.71 2037.65 Q3123.79 2039.85 3123.79 2043.64 L3123.79 2058.3 L3119.51 2058.3 L3119.51 2042.79 Q3119.51 2039.04 3118.19 2037.25 Q3116.87 2035.45 3114.12 2035.45 Q3110.85 2035.45 3108.93 2037.67 Q3107.01 2039.87 3107.01 2043.64 L3107.01 2058.3 L3102.73 2058.3 L3102.73 2032.37 L3107.01 2032.37 L3107.01 2036.4 Q3108.47 2034.01 3110.51 2032.88 Q3112.54 2031.74 3115.34 2031.74 Q3118.17 2031.74 3120.14 2033.18 Q3122.13 2034.62 3123.08 2037.35 Z" fill="#000000" fill-rule="nonzero" fill-opacity="1" /><path clip-path="url(#clip710)" d="M3153.19 2054.41 L3153.19 2068.16 L3148.91 2068.16 L3148.91 2032.37 L3153.19 2032.37 L3153.19 2036.3 Q3154.53 2033.99 3156.57 2032.88 Q3158.63 2031.74 3161.48 2031.74 Q3166.2 2031.74 3169.14 2035.49 Q3172.1 2039.24 3172.1 2045.36 Q3172.1 2051.47 3169.14 2055.22 Q3166.2 2058.97 3161.48 2058.97 Q3158.63 2058.97 3156.57 2057.86 Q3154.53 2056.72 3153.19 2054.41 M3167.68 2045.36 Q3167.68 2040.66 3165.74 2037.99 Q3163.82 2035.31 3160.44 2035.31 Q3157.06 2035.31 3155.11 2037.99 Q3153.19 2040.66 3153.19 2045.36 Q3153.19 2050.05 3155.11 2052.74 Q3157.06 2055.4 3160.44 2055.4 Q3163.82 2055.4 3165.74 2052.74 Q3167.68 2050.05 3167.68 2045.36 Z" fill="#000000" fill-rule="nonzero" fill-opacity="1" /><path clip-path="url(#clip710)" d="M3180.25 2052.42 L3185.14 2052.42 L3185.14 2056.4 L3181.34 2063.8 L3178.35 2063.8 L3180.25 2056.4 L3180.25 2052.42 Z" fill="#000000" fill-rule="nonzero" fill-opacity="1" /><path clip-path="url(#clip710)" d="M3229.49 2037.35 Q3231.08 2034.48 3233.31 2033.11 Q3235.53 2031.74 3238.54 2031.74 Q3242.59 2031.74 3244.79 2034.59 Q3246.99 2037.42 3246.99 2042.65 L3246.99 2058.3 L3242.7 2058.3 L3242.7 2042.79 Q3242.7 2039.06 3241.39 2037.25 Q3240.07 2035.45 3237.36 2035.45 Q3234.05 2035.45 3232.13 2037.65 Q3230.21 2039.85 3230.21 2043.64 L3230.21 2058.3 L3225.92 2058.3 L3225.92 2042.79 Q3225.92 2039.04 3224.6 2037.25 Q3223.28 2035.45 3220.53 2035.45 Q3217.27 2035.45 3215.34 2037.67 Q3213.42 2039.87 3213.42 2043.64 L3213.42 2058.3 L3209.14 2058.3 L3209.14 2032.37 L3213.42 2032.37 L3213.42 2036.4 Q3214.88 2034.01 3216.92 2032.88 Q3218.96 2031.74 3221.76 2031.74 Q3224.58 2031.74 3226.55 2033.18 Q3228.54 2034.62 3229.49 2037.35 Z" fill="#000000" fill-rule="nonzero" fill-opacity="1" /><path clip-path="url(#clip710)" d="M3267.27 2045.26 Q3262.1 2045.26 3260.11 2046.44 Q3258.12 2047.62 3258.12 2050.47 Q3258.12 2052.74 3259.6 2054.08 Q3261.11 2055.4 3263.68 2055.4 Q3267.22 2055.4 3269.35 2052.9 Q3271.5 2050.38 3271.5 2046.21 L3271.5 2045.26 L3267.27 2045.26 M3275.76 2043.5 L3275.76 2058.3 L3271.5 2058.3 L3271.5 2054.36 Q3270.04 2056.72 3267.87 2057.86 Q3265.69 2058.97 3262.54 2058.97 Q3258.56 2058.97 3256.2 2056.74 Q3253.86 2054.5 3253.86 2050.75 Q3253.86 2046.37 3256.78 2044.15 Q3259.72 2041.93 3265.53 2041.93 L3271.5 2041.93 L3271.5 2041.51 Q3271.5 2038.57 3269.56 2036.98 Q3267.64 2035.36 3264.14 2035.36 Q3261.92 2035.36 3259.81 2035.89 Q3257.7 2036.42 3255.76 2037.49 L3255.76 2033.55 Q3258.1 2032.65 3260.3 2032.21 Q3262.5 2031.74 3264.58 2031.74 Q3270.2 2031.74 3272.98 2034.66 Q3275.76 2037.58 3275.76 2043.5 Z" fill="#000000" fill-rule="nonzero" fill-opacity="1" /><path clip-path="url(#clip710)" d="M3301.59 2036.3 L3301.59 2022.28 L3305.85 2022.28 L3305.85 2058.3 L3301.59 2058.3 L3301.59 2054.41 Q3300.25 2056.72 3298.19 2057.86 Q3296.15 2058.97 3293.28 2058.97 Q3288.58 2058.97 3285.62 2055.22 Q3282.68 2051.47 3282.68 2045.36 Q3282.68 2039.24 3285.62 2035.49 Q3288.58 2031.74 3293.28 2031.74 Q3296.15 2031.74 3298.19 2032.88 Q3300.25 2033.99 3301.59 2036.3 M3287.08 2045.36 Q3287.08 2050.05 3289 2052.74 Q3290.95 2055.4 3294.33 2055.4 Q3297.7 2055.4 3299.65 2052.74 Q3301.59 2050.05 3301.59 2045.36 Q3301.59 2040.66 3299.65 2037.99 Q3297.7 2035.31 3294.33 2035.31 Q3290.95 2035.31 3289 2037.99 Q3287.08 2040.66 3287.08 2045.36 Z" fill="#000000" fill-rule="nonzero" fill-opacity="1" /><path clip-path="url(#clip710)" d="M3336.18 2042.65 L3336.18 2058.3 L3331.92 2058.3 L3331.92 2042.79 Q3331.92 2039.11 3330.48 2037.28 Q3329.05 2035.45 3326.18 2035.45 Q3322.73 2035.45 3320.74 2037.65 Q3318.75 2039.85 3318.75 2043.64 L3318.75 2058.3 L3314.46 2058.3 L3314.46 2032.37 L3318.75 2032.37 L3318.75 2036.4 Q3320.27 2034.06 3322.33 2032.9 Q3324.42 2031.74 3327.13 2031.74 Q3331.59 2031.74 3333.89 2034.52 Q3336.18 2037.28 3336.18 2042.65 Z" fill="#000000" fill-rule="nonzero" fill-opacity="1" /><path clip-path="url(#clip710)" d="M3344.67 2022.28 L3348.93 2022.28 L3348.93 2058.3 L3344.67 2058.3 L3344.67 2022.28 Z" fill="#000000" fill-rule="nonzero" fill-opacity="1" /><path clip-path="url(#clip710)" d="M3361.96 2054.41 L3361.96 2068.16 L3357.68 2068.16 L3357.68 2032.37 L3361.96 2032.37 L3361.96 2036.3 Q3363.31 2033.99 3365.34 2032.88 Q3367.4 2031.74 3370.25 2031.74 Q3374.97 2031.74 3377.91 2035.49 Q3380.88 2039.24 3380.88 2045.36 Q3380.88 2051.47 3377.91 2055.22 Q3374.97 2058.97 3370.25 2058.97 Q3367.4 2058.97 3365.34 2057.86 Q3363.31 2056.72 3361.96 2054.41 M3376.45 2045.36 Q3376.45 2040.66 3374.51 2037.99 Q3372.59 2035.31 3369.21 2035.31 Q3365.83 2035.31 3363.88 2037.99 Q3361.96 2040.66 3361.96 2045.36 Q3361.96 2050.05 3363.88 2052.74 Q3365.83 2055.4 3369.21 2055.4 Q3372.59 2055.4 3374.51 2052.74 Q3376.45 2050.05 3376.45 2045.36 Z" fill="#000000" fill-rule="nonzero" fill-opacity="1" /><path clip-path="url(#clip710)" d="M3387.26 2022.32 L3390.97 2022.32 Q3394.44 2027.79 3396.15 2033.02 Q3397.89 2038.25 3397.89 2043.41 Q3397.89 2048.6 3396.15 2053.85 Q3394.44 2059.11 3390.97 2064.55 L3387.26 2064.55 Q3390.34 2059.24 3391.85 2054.01 Q3393.38 2048.76 3393.38 2043.41 Q3393.38 2038.06 3391.85 2032.86 Q3390.34 2027.65 3387.26 2022.32 Z" fill="#000000" fill-rule="nonzero" fill-opacity="1" /></svg>
