<?xml version="1.0" encoding="utf-8"?>
<svg xmlns="http://www.w3.org/2000/svg" xmlns:xlink="http://www.w3.org/1999/xlink" width="900" height="600" viewBox="0 0 3600 2400">
<defs>
  <clipPath id="clip910">
    <rect x="0" y="0" width="3600" height="2400"/>
  </clipPath>
</defs>
<path clip-path="url(#clip910)" d="M0 2400 L3600 2400 L3600 0 L0 0  Z" fill="#ffffff" fill-rule="evenodd" fill-opacity="1"/>
<defs>
  <clipPath id="clip911">
    <rect x="320" y="246" width="3233" height="1911"/>
  </clipPath>
</defs>
<path clip-path="url(#clip910)" d="M322.044 2156.51 L3552.76 2156.51 L3552.76 246.944 L322.044 246.944  Z" fill="#ffffff" fill-rule="evenodd" fill-opacity="1"/>
<defs>
  <clipPath id="clip912">
    <rect x="322" y="246" width="3232" height="1911"/>
  </clipPath>
</defs>
<polyline clip-path="url(#clip912)" style="stroke:#000000; stroke-linecap:round; stroke-linejoin:round; stroke-width:2; stroke-opacity:0.1; fill:none" points="468.895,2156.51 468.895,246.944 "/>
<polyline clip-path="url(#clip912)" style="stroke:#000000; stroke-linecap:round; stroke-linejoin:round; stroke-width:2; stroke-opacity:0.1; fill:none" points="2046.78,2156.51 2046.78,246.944 "/>
<polyline clip-path="url(#clip912)" style="stroke:#000000; stroke-linecap:round; stroke-linejoin:round; stroke-width:2; stroke-opacity:0.1; fill:none" points="2726.35,2156.51 2726.35,246.944 "/>
<polyline clip-path="url(#clip912)" style="stroke:#000000; stroke-linecap:round; stroke-linejoin:round; stroke-width:2; stroke-opacity:0.1; fill:none" points="3405.91,2156.51 3405.91,246.944 "/>
<polyline clip-path="url(#clip912)" style="stroke:#000000; stroke-linecap:round; stroke-linejoin:round; stroke-width:2; stroke-opacity:0.1; fill:none" points="322.044,2119.46 3552.76,2119.46 "/>
<polyline clip-path="url(#clip912)" style="stroke:#000000; stroke-linecap:round; stroke-linejoin:round; stroke-width:2; stroke-opacity:0.1; fill:none" points="322.044,1056.62 3552.76,1056.62 "/>
<polyline clip-path="url(#clip910)" style="stroke:#000000; stroke-linecap:round; stroke-linejoin:round; stroke-width:4; stroke-opacity:1; fill:none" points="322.044,2156.51 3552.76,2156.51 "/>
<polyline clip-path="url(#clip910)" style="stroke:#000000; stroke-linecap:round; stroke-linejoin:round; stroke-width:4; stroke-opacity:1; fill:none" points="468.895,2156.51 468.895,2137.61 "/>
<polyline clip-path="url(#clip910)" style="stroke:#000000; stroke-linecap:round; stroke-linejoin:round; stroke-width:4; stroke-opacity:1; fill:none" points="2046.78,2156.51 2046.78,2137.61 "/>
<polyline clip-path="url(#clip910)" style="stroke:#000000; stroke-linecap:round; stroke-linejoin:round; stroke-width:4; stroke-opacity:1; fill:none" points="2726.35,2156.51 2726.35,2137.61 "/>
<polyline clip-path="url(#clip910)" style="stroke:#000000; stroke-linecap:round; stroke-linejoin:round; stroke-width:4; stroke-opacity:1; fill:none" points="3405.91,2156.51 3405.91,2137.61 "/>
<path clip-path="url(#clip910)" d="M413.421 2224.57 L421.059 2224.57 L421.059 2198.21 L412.749 2199.87 L412.749 2195.61 L421.013 2193.95 L425.689 2193.95 L425.689 2224.57 L433.328 2224.57 L433.328 2228.51 L413.421 2228.51 L413.421 2224.57 Z" fill="#000000" fill-rule="nonzero" fill-opacity="1" /><path clip-path="url(#clip910)" d="M452.772 2197.03 Q449.161 2197.03 447.332 2200.59 Q445.527 2204.13 445.527 2211.26 Q445.527 2218.37 447.332 2221.93 Q449.161 2225.48 452.772 2225.48 Q456.406 2225.48 458.212 2221.93 Q460.041 2218.37 460.041 2211.26 Q460.041 2204.13 458.212 2200.59 Q456.406 2197.03 452.772 2197.03 M452.772 2193.32 Q458.582 2193.32 461.638 2197.93 Q464.717 2202.51 464.717 2211.26 Q464.717 2219.99 461.638 2224.6 Q458.582 2229.18 452.772 2229.18 Q446.962 2229.18 443.883 2224.6 Q440.828 2219.99 440.828 2211.26 Q440.828 2202.51 443.883 2197.93 Q446.962 2193.32 452.772 2193.32 Z" fill="#000000" fill-rule="nonzero" fill-opacity="1" /><path clip-path="url(#clip910)" d="M482.934 2197.03 Q479.323 2197.03 477.494 2200.59 Q475.689 2204.13 475.689 2211.26 Q475.689 2218.37 477.494 2221.93 Q479.323 2225.48 482.934 2225.48 Q486.568 2225.48 488.374 2221.93 Q490.203 2218.37 490.203 2211.26 Q490.203 2204.13 488.374 2200.59 Q486.568 2197.03 482.934 2197.03 M482.934 2193.32 Q488.744 2193.32 491.8 2197.93 Q494.878 2202.51 494.878 2211.26 Q494.878 2219.99 491.8 2224.6 Q488.744 2229.18 482.934 2229.18 Q477.124 2229.18 474.045 2224.6 Q470.99 2219.99 470.99 2211.26 Q470.99 2202.51 474.045 2197.93 Q477.124 2193.32 482.934 2193.32 Z" fill="#000000" fill-rule="nonzero" fill-opacity="1" /><path clip-path="url(#clip910)" d="M513.096 2197.03 Q509.485 2197.03 507.656 2200.59 Q505.851 2204.13 505.851 2211.26 Q505.851 2218.37 507.656 2221.93 Q509.485 2225.48 513.096 2225.48 Q516.73 2225.48 518.536 2221.93 Q520.364 2218.37 520.364 2211.26 Q520.364 2204.13 518.536 2200.59 Q516.73 2197.03 513.096 2197.03 M513.096 2193.32 Q518.906 2193.32 521.962 2197.93 Q525.04 2202.51 525.04 2211.26 Q525.04 2219.99 521.962 2224.6 Q518.906 2229.18 513.096 2229.18 Q507.286 2229.18 504.207 2224.6 Q501.152 2219.99 501.152 2211.26 Q501.152 2202.51 504.207 2197.93 Q507.286 2193.32 513.096 2193.32 Z" fill="#000000" fill-rule="nonzero" fill-opacity="1" /><path clip-path="url(#clip910)" d="M1991.32 2193.95 L2009.68 2193.95 L2009.68 2197.88 L1995.6 2197.88 L1995.6 2206.36 Q1996.62 2206.01 1997.64 2205.85 Q1998.66 2205.66 1999.68 2205.66 Q2005.47 2205.66 2008.85 2208.83 Q2012.22 2212 2012.22 2217.42 Q2012.22 2223 2008.75 2226.1 Q2005.28 2229.18 1998.96 2229.18 Q1996.79 2229.18 1994.52 2228.81 Q1992.27 2228.44 1989.86 2227.7 L1989.86 2223 Q1991.95 2224.13 1994.17 2224.69 Q1996.39 2225.24 1998.87 2225.24 Q2002.87 2225.24 2005.21 2223.14 Q2007.55 2221.03 2007.55 2217.42 Q2007.55 2213.81 2005.21 2211.7 Q2002.87 2209.6 1998.87 2209.6 Q1996.99 2209.6 1995.12 2210.01 Q1993.27 2210.43 1991.32 2211.31 L1991.32 2193.95 Z" fill="#000000" fill-rule="nonzero" fill-opacity="1" /><path clip-path="url(#clip910)" d="M2031.44 2197.03 Q2027.83 2197.03 2026 2200.59 Q2024.19 2204.13 2024.19 2211.26 Q2024.19 2218.37 2026 2221.93 Q2027.83 2225.48 2031.44 2225.48 Q2035.07 2225.48 2036.88 2221.93 Q2038.71 2218.37 2038.71 2211.26 Q2038.71 2204.13 2036.88 2200.59 Q2035.07 2197.03 2031.44 2197.03 M2031.44 2193.32 Q2037.25 2193.32 2040.3 2197.93 Q2043.38 2202.51 2043.38 2211.26 Q2043.38 2219.99 2040.3 2224.6 Q2037.25 2229.18 2031.44 2229.18 Q2025.63 2229.18 2022.55 2224.6 Q2019.49 2219.99 2019.49 2211.26 Q2019.49 2202.51 2022.55 2197.93 Q2025.63 2193.32 2031.44 2193.32 Z" fill="#000000" fill-rule="nonzero" fill-opacity="1" /><path clip-path="url(#clip910)" d="M2061.6 2197.03 Q2057.99 2197.03 2056.16 2200.59 Q2054.35 2204.13 2054.35 2211.26 Q2054.35 2218.37 2056.16 2221.93 Q2057.99 2225.48 2061.6 2225.48 Q2065.23 2225.48 2067.04 2221.93 Q2068.87 2218.37 2068.87 2211.26 Q2068.87 2204.13 2067.04 2200.59 Q2065.23 2197.03 2061.6 2197.03 M2061.6 2193.32 Q2067.41 2193.32 2070.47 2197.93 Q2073.54 2202.51 2073.54 2211.26 Q2073.54 2219.99 2070.47 2224.6 Q2067.41 2229.18 2061.6 2229.18 Q2055.79 2229.18 2052.71 2224.6 Q2049.66 2219.99 2049.66 2211.26 Q2049.66 2202.51 2052.71 2197.93 Q2055.79 2193.32 2061.6 2193.32 Z" fill="#000000" fill-rule="nonzero" fill-opacity="1" /><path clip-path="url(#clip910)" d="M2091.76 2197.03 Q2088.15 2197.03 2086.32 2200.59 Q2084.52 2204.13 2084.52 2211.26 Q2084.52 2218.37 2086.32 2221.93 Q2088.15 2225.48 2091.76 2225.48 Q2095.4 2225.48 2097.2 2221.93 Q2099.03 2218.37 2099.03 2211.26 Q2099.03 2204.13 2097.2 2200.59 Q2095.4 2197.03 2091.76 2197.03 M2091.76 2193.32 Q2097.57 2193.32 2100.63 2197.93 Q2103.71 2202.51 2103.71 2211.26 Q2103.71 2219.99 2100.63 2224.6 Q2097.57 2229.18 2091.76 2229.18 Q2085.95 2229.18 2082.87 2224.6 Q2079.82 2219.99 2079.82 2211.26 Q2079.82 2202.51 2082.87 2197.93 Q2085.95 2193.32 2091.76 2193.32 Z" fill="#000000" fill-rule="nonzero" fill-opacity="1" /><path clip-path="url(#clip910)" d="M2655.79 2224.57 L2663.43 2224.57 L2663.43 2198.21 L2655.12 2199.87 L2655.12 2195.61 L2663.38 2193.95 L2668.06 2193.95 L2668.06 2224.57 L2675.7 2224.57 L2675.7 2228.51 L2655.79 2228.51 L2655.79 2224.57 Z" fill="#000000" fill-rule="nonzero" fill-opacity="1" /><path clip-path="url(#clip910)" d="M2695.14 2197.03 Q2691.53 2197.03 2689.7 2200.59 Q2687.9 2204.13 2687.9 2211.26 Q2687.9 2218.37 2689.7 2221.93 Q2691.53 2225.48 2695.14 2225.48 Q2698.78 2225.48 2700.58 2221.93 Q2702.41 2218.37 2702.41 2211.26 Q2702.41 2204.13 2700.58 2200.59 Q2698.78 2197.03 2695.14 2197.03 M2695.14 2193.32 Q2700.95 2193.32 2704.01 2197.93 Q2707.09 2202.51 2707.09 2211.26 Q2707.09 2219.99 2704.01 2224.6 Q2700.95 2229.18 2695.14 2229.18 Q2689.33 2229.18 2686.25 2224.6 Q2683.2 2219.99 2683.2 2211.26 Q2683.2 2202.51 2686.25 2197.93 Q2689.33 2193.32 2695.14 2193.32 Z" fill="#000000" fill-rule="nonzero" fill-opacity="1" /><path clip-path="url(#clip910)" d="M2725.3 2197.03 Q2721.69 2197.03 2719.86 2200.59 Q2718.06 2204.13 2718.06 2211.26 Q2718.06 2218.37 2719.86 2221.93 Q2721.69 2225.48 2725.3 2225.48 Q2728.94 2225.48 2730.74 2221.93 Q2732.57 2218.37 2732.57 2211.26 Q2732.57 2204.13 2730.74 2200.59 Q2728.94 2197.03 2725.3 2197.03 M2725.3 2193.32 Q2731.11 2193.32 2734.17 2197.93 Q2737.25 2202.51 2737.25 2211.26 Q2737.25 2219.99 2734.17 2224.6 Q2731.11 2229.18 2725.3 2229.18 Q2719.49 2229.18 2716.41 2224.6 Q2713.36 2219.99 2713.36 2211.26 Q2713.36 2202.51 2716.41 2197.93 Q2719.49 2193.32 2725.3 2193.32 Z" fill="#000000" fill-rule="nonzero" fill-opacity="1" /><path clip-path="url(#clip910)" d="M2755.47 2197.03 Q2751.85 2197.03 2750.03 2200.59 Q2748.22 2204.13 2748.22 2211.26 Q2748.22 2218.37 2750.03 2221.93 Q2751.85 2225.48 2755.47 2225.48 Q2759.1 2225.48 2760.91 2221.93 Q2762.73 2218.37 2762.73 2211.26 Q2762.73 2204.13 2760.91 2200.59 Q2759.1 2197.03 2755.47 2197.03 M2755.47 2193.32 Q2761.28 2193.32 2764.33 2197.93 Q2767.41 2202.51 2767.41 2211.26 Q2767.41 2219.99 2764.33 2224.6 Q2761.28 2229.18 2755.47 2229.18 Q2749.66 2229.18 2746.58 2224.6 Q2743.52 2219.99 2743.52 2211.26 Q2743.52 2202.51 2746.58 2197.93 Q2749.66 2193.32 2755.47 2193.32 Z" fill="#000000" fill-rule="nonzero" fill-opacity="1" /><path clip-path="url(#clip910)" d="M2785.63 2197.03 Q2782.02 2197.03 2780.19 2200.59 Q2778.38 2204.13 2778.38 2211.26 Q2778.38 2218.37 2780.19 2221.93 Q2782.02 2225.48 2785.63 2225.48 Q2789.26 2225.48 2791.07 2221.93 Q2792.9 2218.37 2792.9 2211.26 Q2792.9 2204.13 2791.07 2200.59 Q2789.26 2197.03 2785.63 2197.03 M2785.63 2193.32 Q2791.44 2193.32 2794.49 2197.93 Q2797.57 2202.51 2797.57 2211.26 Q2797.57 2219.99 2794.49 2224.6 Q2791.44 2229.18 2785.63 2229.18 Q2779.82 2229.18 2776.74 2224.6 Q2773.68 2219.99 2773.68 2211.26 Q2773.68 2202.51 2776.74 2197.93 Q2779.82 2193.32 2785.63 2193.32 Z" fill="#000000" fill-rule="nonzero" fill-opacity="1" /><path clip-path="url(#clip910)" d="M3339.44 2224.57 L3355.76 2224.57 L3355.76 2228.51 L3333.81 2228.51 L3333.81 2224.57 Q3336.47 2221.82 3341.06 2217.19 Q3345.66 2212.54 3346.84 2211.19 Q3349.09 2208.67 3349.97 2206.93 Q3350.87 2205.17 3350.87 2203.48 Q3350.87 2200.73 3348.93 2198.99 Q3347.01 2197.26 3343.9 2197.26 Q3341.7 2197.26 3339.25 2198.02 Q3336.82 2198.79 3334.04 2200.34 L3334.04 2195.61 Q3336.87 2194.48 3339.32 2193.9 Q3341.77 2193.32 3343.81 2193.32 Q3349.18 2193.32 3352.38 2196.01 Q3355.57 2198.69 3355.57 2203.18 Q3355.57 2205.31 3354.76 2207.23 Q3353.97 2209.13 3351.87 2211.73 Q3351.29 2212.4 3348.19 2215.61 Q3345.08 2218.81 3339.44 2224.57 Z" fill="#000000" fill-rule="nonzero" fill-opacity="1" /><path clip-path="url(#clip910)" d="M3375.57 2197.03 Q3371.96 2197.03 3370.13 2200.59 Q3368.32 2204.13 3368.32 2211.26 Q3368.32 2218.37 3370.13 2221.93 Q3371.96 2225.48 3375.57 2225.48 Q3379.2 2225.48 3381.01 2221.93 Q3382.84 2218.37 3382.84 2211.26 Q3382.84 2204.13 3381.01 2200.59 Q3379.2 2197.03 3375.57 2197.03 M3375.57 2193.32 Q3381.38 2193.32 3384.44 2197.93 Q3387.51 2202.51 3387.51 2211.26 Q3387.51 2219.99 3384.44 2224.6 Q3381.38 2229.18 3375.57 2229.18 Q3369.76 2229.18 3366.68 2224.6 Q3363.63 2219.99 3363.63 2211.26 Q3363.63 2202.51 3366.68 2197.93 Q3369.76 2193.32 3375.57 2193.32 Z" fill="#000000" fill-rule="nonzero" fill-opacity="1" /><path clip-path="url(#clip910)" d="M3405.73 2197.03 Q3402.12 2197.03 3400.29 2200.59 Q3398.49 2204.13 3398.49 2211.26 Q3398.49 2218.37 3400.29 2221.93 Q3402.12 2225.48 3405.73 2225.48 Q3409.37 2225.48 3411.17 2221.93 Q3413 2218.37 3413 2211.26 Q3413 2204.13 3411.17 2200.59 Q3409.37 2197.03 3405.73 2197.03 M3405.73 2193.32 Q3411.54 2193.32 3414.6 2197.93 Q3417.68 2202.51 3417.68 2211.26 Q3417.68 2219.99 3414.6 2224.6 Q3411.54 2229.18 3405.73 2229.18 Q3399.92 2229.18 3396.84 2224.6 Q3393.79 2219.99 3393.79 2211.26 Q3393.79 2202.51 3396.84 2197.93 Q3399.92 2193.32 3405.73 2193.32 Z" fill="#000000" fill-rule="nonzero" fill-opacity="1" /><path clip-path="url(#clip910)" d="M3435.89 2197.03 Q3432.28 2197.03 3430.45 2200.59 Q3428.65 2204.13 3428.65 2211.26 Q3428.65 2218.37 3430.45 2221.93 Q3432.28 2225.48 3435.89 2225.48 Q3439.53 2225.48 3441.33 2221.93 Q3443.16 2218.37 3443.16 2211.26 Q3443.16 2204.13 3441.33 2200.59 Q3439.53 2197.03 3435.89 2197.03 M3435.89 2193.32 Q3441.7 2193.32 3444.76 2197.93 Q3447.84 2202.51 3447.84 2211.26 Q3447.84 2219.99 3444.76 2224.6 Q3441.7 2229.18 3435.89 2229.18 Q3430.08 2229.18 3427 2224.6 Q3423.95 2219.99 3423.95 2211.26 Q3423.95 2202.51 3427 2197.93 Q3430.08 2193.32 3435.89 2193.32 Z" fill="#000000" fill-rule="nonzero" fill-opacity="1" /><path clip-path="url(#clip910)" d="M3466.06 2197.03 Q3462.44 2197.03 3460.62 2200.59 Q3458.81 2204.13 3458.81 2211.26 Q3458.81 2218.37 3460.62 2221.93 Q3462.44 2225.48 3466.06 2225.48 Q3469.69 2225.48 3471.5 2221.93 Q3473.32 2218.37 3473.32 2211.26 Q3473.32 2204.13 3471.5 2200.59 Q3469.69 2197.03 3466.06 2197.03 M3466.06 2193.32 Q3471.87 2193.32 3474.92 2197.93 Q3478 2202.51 3478 2211.26 Q3478 2219.99 3474.92 2224.6 Q3471.87 2229.18 3466.06 2229.18 Q3460.25 2229.18 3457.17 2224.6 Q3454.11 2219.99 3454.11 2211.26 Q3454.11 2202.51 3457.17 2197.93 Q3460.25 2193.32 3466.06 2193.32 Z" fill="#000000" fill-rule="nonzero" fill-opacity="1" /><path clip-path="url(#clip910)" d="M1813.28 2308.02 L1813.28 2296.42 L1803.73 2296.42 L1803.73 2291.62 L1819.07 2291.62 L1819.07 2310.17 Q1815.68 2312.57 1811.61 2313.81 Q1807.53 2315.03 1802.9 2315.03 Q1792.77 2315.03 1787.04 2309.12 Q1781.34 2303.19 1781.34 2292.63 Q1781.34 2282.04 1787.04 2276.14 Q1792.77 2270.21 1802.9 2270.21 Q1807.12 2270.21 1810.91 2271.25 Q1814.73 2272.29 1817.94 2274.32 L1817.94 2280.54 Q1814.7 2277.79 1811.06 2276.4 Q1807.41 2275.01 1803.39 2275.01 Q1795.46 2275.01 1791.47 2279.44 Q1787.5 2283.86 1787.5 2292.63 Q1787.5 2301.37 1791.47 2305.8 Q1795.46 2310.22 1803.39 2310.22 Q1806.48 2310.22 1808.91 2309.7 Q1811.34 2309.15 1813.28 2308.02 Z" fill="#000000" fill-rule="nonzero" fill-opacity="1" /><path clip-path="url(#clip910)" d="M1848.29 2286.76 Q1847.4 2286.24 1846.33 2286 Q1845.29 2285.74 1844.01 2285.74 Q1839.5 2285.74 1837.07 2288.7 Q1834.67 2291.62 1834.67 2297.12 L1834.67 2314.19 L1829.31 2314.19 L1829.31 2281.78 L1834.67 2281.78 L1834.67 2286.82 Q1836.34 2283.86 1839.04 2282.45 Q1841.73 2281 1845.57 2281 Q1846.12 2281 1846.79 2281.09 Q1847.46 2281.14 1848.27 2281.29 L1848.29 2286.76 Z" fill="#000000" fill-rule="nonzero" fill-opacity="1" /><path clip-path="url(#clip910)" d="M1853.88 2281.78 L1859.2 2281.78 L1859.2 2314.19 L1853.88 2314.19 L1853.88 2281.78 M1853.88 2269.16 L1859.2 2269.16 L1859.2 2275.91 L1853.88 2275.91 L1853.88 2269.16 Z" fill="#000000" fill-rule="nonzero" fill-opacity="1" /><path clip-path="url(#clip910)" d="M1891.67 2286.7 L1891.67 2269.16 L1896.99 2269.16 L1896.99 2314.19 L1891.67 2314.19 L1891.67 2309.33 Q1889.99 2312.22 1887.41 2313.64 Q1884.87 2315.03 1881.28 2315.03 Q1875.41 2315.03 1871.7 2310.34 Q1868.03 2305.65 1868.03 2298.01 Q1868.03 2290.37 1871.7 2285.69 Q1875.41 2281 1881.28 2281 Q1884.87 2281 1887.41 2282.42 Q1889.99 2283.81 1891.67 2286.7 M1873.53 2298.01 Q1873.53 2303.89 1875.93 2307.24 Q1878.36 2310.57 1882.58 2310.57 Q1886.81 2310.57 1889.24 2307.24 Q1891.67 2303.89 1891.67 2298.01 Q1891.67 2292.14 1889.24 2288.81 Q1886.81 2285.46 1882.58 2285.46 Q1878.36 2285.46 1875.93 2288.81 Q1873.53 2292.14 1873.53 2298.01 Z" fill="#000000" fill-rule="nonzero" fill-opacity="1" /><path clip-path="url(#clip910)" d="M1947.46 2282.74 L1947.46 2287.77 Q1945.2 2286.61 1942.77 2286.03 Q1940.34 2285.46 1937.73 2285.46 Q1933.77 2285.46 1931.77 2286.67 Q1929.8 2287.89 1929.8 2290.32 Q1929.8 2292.17 1931.22 2293.24 Q1932.64 2294.28 1936.92 2295.24 L1938.75 2295.64 Q1944.42 2296.86 1946.79 2299.08 Q1949.19 2301.28 1949.19 2305.25 Q1949.19 2309.76 1945.6 2312.39 Q1942.04 2315.03 1935.79 2315.03 Q1933.19 2315.03 1930.35 2314.51 Q1927.55 2314.01 1924.42 2313 L1924.42 2307.5 Q1927.37 2309.04 1930.24 2309.82 Q1933.1 2310.57 1935.91 2310.57 Q1939.67 2310.57 1941.7 2309.3 Q1943.72 2308 1943.72 2305.65 Q1943.72 2303.48 1942.25 2302.32 Q1940.8 2301.17 1935.85 2300.1 L1934 2299.66 Q1929.05 2298.62 1926.85 2296.48 Q1924.65 2294.31 1924.65 2290.55 Q1924.65 2285.98 1927.89 2283.49 Q1931.14 2281 1937.1 2281 Q1940.05 2281 1942.65 2281.43 Q1945.26 2281.87 1947.46 2282.74 Z" fill="#000000" fill-rule="nonzero" fill-opacity="1" /><path clip-path="url(#clip910)" d="M1957.67 2281.78 L1962.99 2281.78 L1962.99 2314.19 L1957.67 2314.19 L1957.67 2281.78 M1957.67 2269.16 L1962.99 2269.16 L1962.99 2275.91 L1957.67 2275.91 L1957.67 2269.16 Z" fill="#000000" fill-rule="nonzero" fill-opacity="1" /><path clip-path="url(#clip910)" d="M1971.82 2281.78 L1997.11 2281.78 L1997.11 2286.64 L1977.08 2309.93 L1997.11 2309.93 L1997.11 2314.19 L1971.09 2314.19 L1971.09 2309.33 L1991.12 2286.03 L1971.82 2286.03 L1971.82 2281.78 Z" fill="#000000" fill-rule="nonzero" fill-opacity="1" /><path clip-path="url(#clip910)" d="M2032.96 2296.65 L2032.96 2299.26 L2008.48 2299.26 Q2008.83 2304.75 2011.78 2307.65 Q2014.76 2310.51 2020.05 2310.51 Q2023.12 2310.51 2025.98 2309.76 Q2028.88 2309.01 2031.71 2307.5 L2031.71 2312.54 Q2028.85 2313.75 2025.84 2314.39 Q2022.83 2315.03 2019.73 2315.03 Q2011.98 2315.03 2007.44 2310.51 Q2002.92 2306 2002.92 2298.3 Q2002.92 2290.35 2007.21 2285.69 Q2011.52 2281 2018.81 2281 Q2025.35 2281 2029.14 2285.22 Q2032.96 2289.42 2032.96 2296.65 M2027.63 2295.09 Q2027.58 2290.72 2025.17 2288.12 Q2022.8 2285.51 2018.87 2285.51 Q2014.41 2285.51 2011.72 2288.03 Q2009.06 2290.55 2008.65 2295.12 L2027.63 2295.09 Z" fill="#000000" fill-rule="nonzero" fill-opacity="1" /><path clip-path="url(#clip910)" d="M2060.76 2270.99 L2068.63 2270.99 L2087.79 2307.13 L2087.79 2270.99 L2093.46 2270.99 L2093.46 2314.19 L2085.59 2314.19 L2066.44 2278.05 L2066.44 2314.19 L2060.76 2314.19 L2060.76 2270.99 Z" fill="#000000" fill-rule="nonzero" fill-opacity="1" /><polyline clip-path="url(#clip910)" style="stroke:#000000; stroke-linecap:round; stroke-linejoin:round; stroke-width:4; stroke-opacity:1; fill:none" points="322.044,2156.51 322.044,246.944 "/>
<polyline clip-path="url(#clip910)" style="stroke:#000000; stroke-linecap:round; stroke-linejoin:round; stroke-width:4; stroke-opacity:1; fill:none" points="322.044,2119.46 340.942,2119.46 "/>
<polyline clip-path="url(#clip910)" style="stroke:#000000; stroke-linecap:round; stroke-linejoin:round; stroke-width:4; stroke-opacity:1; fill:none" points="322.044,1056.62 340.942,1056.62 "/>
<path clip-path="url(#clip910)" d="M167.905 2139.26 L175.543 2139.26 L175.543 2112.89 L167.233 2114.56 L167.233 2110.3 L175.497 2108.63 L180.173 2108.63 L180.173 2139.26 L187.812 2139.26 L187.812 2143.19 L167.905 2143.19 L167.905 2139.26 Z" fill="#000000" fill-rule="nonzero" fill-opacity="1" /><path clip-path="url(#clip910)" d="M207.256 2111.71 Q203.645 2111.71 201.816 2115.27 Q200.011 2118.82 200.011 2125.94 Q200.011 2133.05 201.816 2136.62 Q203.645 2140.16 207.256 2140.16 Q210.89 2140.16 212.696 2136.62 Q214.525 2133.05 214.525 2125.94 Q214.525 2118.82 212.696 2115.27 Q210.89 2111.71 207.256 2111.71 M207.256 2108.01 Q213.066 2108.01 216.122 2112.61 Q219.201 2117.2 219.201 2125.94 Q219.201 2134.67 216.122 2139.28 Q213.066 2143.86 207.256 2143.86 Q201.446 2143.86 198.367 2139.28 Q195.312 2134.67 195.312 2125.94 Q195.312 2117.2 198.367 2112.61 Q201.446 2108.01 207.256 2108.01 Z" fill="#000000" fill-rule="nonzero" fill-opacity="1" /><path clip-path="url(#clip910)" d="M219.201 2102.11 L243.312 2102.11 L243.312 2105.3 L219.201 2105.3 L219.201 2102.11 Z" fill="#000000" fill-rule="nonzero" fill-opacity="1" /><path clip-path="url(#clip910)" d="M254.785 2112.58 L268.044 2112.58 L268.044 2115.78 L250.215 2115.78 L250.215 2112.58 Q252.377 2110.34 256.101 2106.58 Q259.844 2102.8 260.803 2101.71 Q262.628 2099.66 263.342 2098.25 Q264.076 2096.82 264.076 2095.45 Q264.076 2093.21 262.496 2091.8 Q260.935 2090.39 258.415 2090.39 Q256.628 2090.39 254.634 2091.01 Q252.66 2091.63 250.403 2092.89 L250.403 2089.05 Q252.697 2088.13 254.691 2087.66 Q256.684 2087.19 258.339 2087.19 Q262.703 2087.19 265.298 2089.37 Q267.894 2091.56 267.894 2095.2 Q267.894 2096.93 267.236 2098.5 Q266.596 2100.04 264.885 2102.14 Q264.414 2102.69 261.894 2105.3 Q259.374 2107.9 254.785 2112.58 Z" fill="#000000" fill-rule="nonzero" fill-opacity="1" /><path clip-path="url(#clip910)" d="M167.604 1076.42 L175.242 1076.42 L175.242 1050.05 L166.932 1051.72 L166.932 1047.46 L175.196 1045.79 L179.872 1045.79 L179.872 1076.42 L187.511 1076.42 L187.511 1080.35 L167.604 1080.35 L167.604 1076.42 Z" fill="#000000" fill-rule="nonzero" fill-opacity="1" /><path clip-path="url(#clip910)" d="M206.955 1048.87 Q203.344 1048.87 201.515 1052.43 Q199.71 1055.98 199.71 1063.11 Q199.71 1070.21 201.515 1073.78 Q203.344 1077.32 206.955 1077.32 Q210.589 1077.32 212.395 1073.78 Q214.224 1070.21 214.224 1063.11 Q214.224 1055.98 212.395 1052.43 Q210.589 1048.87 206.955 1048.87 M206.955 1045.17 Q212.765 1045.17 215.821 1049.77 Q218.9 1054.36 218.9 1063.11 Q218.9 1071.83 215.821 1076.44 Q212.765 1081.02 206.955 1081.02 Q201.145 1081.02 198.066 1076.44 Q195.011 1071.83 195.011 1063.11 Q195.011 1054.36 198.066 1049.77 Q201.145 1045.17 206.955 1045.17 Z" fill="#000000" fill-rule="nonzero" fill-opacity="1" /><path clip-path="url(#clip910)" d="M218.9 1039.27 L243.011 1039.27 L243.011 1042.46 L218.9 1042.46 L218.9 1039.27 Z" fill="#000000" fill-rule="nonzero" fill-opacity="1" /><path clip-path="url(#clip910)" d="M251.87 1049.74 L258.076 1049.74 L258.076 1028.32 L251.324 1029.67 L251.324 1026.21 L258.039 1024.86 L261.838 1024.86 L261.838 1049.74 L268.044 1049.74 L268.044 1052.94 L251.87 1052.94 L251.87 1049.74 Z" fill="#000000" fill-rule="nonzero" fill-opacity="1" /><path clip-path="url(#clip910)" d="M58.1901 1374.69 L63.8903 1374.69 Q62.2989 1378.01 61.5176 1380.96 Q60.7364 1383.92 60.7364 1386.66 Q60.7364 1391.44 62.5882 1394.04 Q64.4401 1396.62 67.8544 1396.62 Q70.719 1396.62 72.1947 1394.91 Q73.6414 1393.17 74.5384 1388.37 L75.2618 1384.84 Q76.506 1378.3 79.6599 1375.21 Q82.7849 1372.08 88.0511 1372.08 Q94.33 1372.08 97.5707 1376.31 Q100.811 1380.5 100.811 1388.63 Q100.811 1391.7 100.117 1395.17 Q99.4225 1398.61 98.0626 1402.32 L92.0441 1402.32 Q94.0406 1398.76 95.0533 1395.34 Q96.0661 1391.93 96.0661 1388.63 Q96.0661 1383.63 94.0985 1380.91 Q92.1309 1378.19 88.4851 1378.19 Q85.3022 1378.19 83.5083 1380.15 Q81.7143 1382.09 80.8173 1386.55 L80.1229 1390.11 Q78.8208 1396.65 76.043 1399.57 Q73.2653 1402.49 68.3174 1402.49 Q62.5882 1402.49 59.2896 1398.47 Q55.991 1394.42 55.991 1387.33 Q55.991 1384.29 56.5408 1381.14 Q57.0906 1377.98 58.1901 1374.69 Z" fill="#000000" fill-rule="nonzero" fill-opacity="1" /><path clip-path="url(#clip910)" d="M71.2977 1350.64 Q71.2977 1354.92 74.6541 1357.41 Q77.9817 1359.9 83.7976 1359.9 Q89.6135 1359.9 92.97 1357.44 Q96.2975 1354.95 96.2975 1350.64 Q96.2975 1346.39 92.9411 1343.9 Q89.5846 1341.41 83.7976 1341.41 Q78.0395 1341.41 74.6831 1343.9 Q71.2977 1346.39 71.2977 1350.64 M66.7838 1350.64 Q66.7838 1343.7 71.2977 1339.73 Q75.8115 1335.77 83.7976 1335.77 Q91.7547 1335.77 96.2975 1339.73 Q100.811 1343.7 100.811 1350.64 Q100.811 1357.61 96.2975 1361.58 Q91.7547 1365.51 83.7976 1365.51 Q75.8115 1365.51 71.2977 1361.58 Q66.7838 1357.61 66.7838 1350.64 Z" fill="#000000" fill-rule="nonzero" fill-opacity="1" /><path clip-path="url(#clip910)" d="M54.9494 1326.94 L54.9494 1321.62 L99.9723 1321.62 L99.9723 1326.94 L54.9494 1326.94 Z" fill="#000000" fill-rule="nonzero" fill-opacity="1" /><path clip-path="url(#clip910)" d="M67.565 1314.3 L67.565 1308.66 L94.764 1298.53 L67.565 1288.4 L67.565 1282.76 L99.9723 1294.91 L99.9723 1302.15 L67.565 1314.3 Z" fill="#000000" fill-rule="nonzero" fill-opacity="1" /><path clip-path="url(#clip910)" d="M82.4377 1247.69 L85.0418 1247.69 L85.0418 1272.17 Q90.5395 1271.82 93.433 1268.87 Q96.2975 1265.89 96.2975 1260.59 Q96.2975 1257.53 95.5452 1254.66 Q94.7929 1251.77 93.2883 1248.93 L98.323 1248.93 Q99.5383 1251.8 100.175 1254.81 Q100.811 1257.82 100.811 1260.91 Q100.811 1268.67 96.2975 1273.21 Q91.7837 1277.72 84.087 1277.72 Q76.1298 1277.72 71.4713 1273.44 Q66.7838 1269.13 66.7838 1261.84 Q66.7838 1255.3 71.0083 1251.51 Q75.2039 1247.69 82.4377 1247.69 M80.8752 1253.01 Q76.506 1253.07 73.9018 1255.47 Q71.2977 1257.85 71.2977 1261.78 Q71.2977 1266.24 73.815 1268.93 Q76.3324 1271.59 80.9041 1271.99 L80.8752 1253.01 Z" fill="#000000" fill-rule="nonzero" fill-opacity="1" /><path clip-path="url(#clip910)" d="M58.3637 1214.85 L67.565 1214.85 L67.565 1203.88 L71.7028 1203.88 L71.7028 1214.85 L89.2953 1214.85 Q93.2594 1214.85 94.3878 1213.78 Q95.5163 1212.68 95.5163 1209.35 L95.5163 1203.88 L99.9723 1203.88 L99.9723 1209.35 Q99.9723 1215.51 97.6864 1217.86 Q95.3716 1220.2 89.2953 1220.2 L71.7028 1220.2 L71.7028 1224.11 L67.565 1224.11 L67.565 1220.2 L58.3637 1220.2 L58.3637 1214.85 Z" fill="#000000" fill-rule="nonzero" fill-opacity="1" /><path clip-path="url(#clip910)" d="M67.565 1196.88 L67.565 1191.56 L99.9723 1191.56 L99.9723 1196.88 L67.565 1196.88 M54.9494 1196.88 L54.9494 1191.56 L61.6912 1191.56 L61.6912 1196.88 L54.9494 1196.88 Z" fill="#000000" fill-rule="nonzero" fill-opacity="1" /><path clip-path="url(#clip910)" d="M73.7861 1155.18 Q70.1981 1153.19 68.491 1150.41 Q66.7838 1147.63 66.7838 1143.87 Q66.7838 1138.81 70.3428 1136.06 Q73.8729 1133.31 80.4122 1133.31 L99.9723 1133.31 L99.9723 1138.66 L80.5858 1138.66 Q75.9273 1138.66 73.6703 1140.31 Q71.4134 1141.96 71.4134 1145.35 Q71.4134 1149.48 74.1622 1151.89 Q76.9111 1154.29 81.6564 1154.29 L99.9723 1154.29 L99.9723 1159.64 L80.5858 1159.64 Q75.8983 1159.64 73.6703 1161.29 Q71.4134 1162.94 71.4134 1166.38 Q71.4134 1170.46 74.1912 1172.86 Q76.94 1175.26 81.6564 1175.26 L99.9723 1175.26 L99.9723 1180.62 L67.565 1180.62 L67.565 1175.26 L72.5997 1175.26 Q69.6194 1173.44 68.2016 1170.9 Q66.7838 1168.35 66.7838 1164.85 Q66.7838 1161.32 68.5778 1158.86 Q70.3717 1156.37 73.7861 1155.18 Z" fill="#000000" fill-rule="nonzero" fill-opacity="1" /><path clip-path="url(#clip910)" d="M82.4377 1094.97 L85.0418 1094.97 L85.0418 1119.45 Q90.5395 1119.1 93.433 1116.15 Q96.2975 1113.17 96.2975 1107.88 Q96.2975 1104.81 95.5452 1101.94 Q94.7929 1099.05 93.2883 1096.21 L98.323 1096.21 Q99.5383 1099.08 100.175 1102.09 Q100.811 1105.1 100.811 1108.19 Q100.811 1115.95 96.2975 1120.49 Q91.7837 1125 84.087 1125 Q76.1298 1125 71.4713 1120.72 Q66.7838 1116.41 66.7838 1109.12 Q66.7838 1102.58 71.0083 1098.79 Q75.2039 1094.97 82.4377 1094.97 M80.8752 1100.29 Q76.506 1100.35 73.9018 1102.75 Q71.2977 1105.13 71.2977 1109.06 Q71.2977 1113.52 73.815 1116.21 Q76.3324 1118.87 80.9041 1119.28 L80.8752 1100.29 Z" fill="#000000" fill-rule="nonzero" fill-opacity="1" /><path clip-path="url(#clip910)" d="M55.0072 1054.61 Q61.6623 1058.48 68.1727 1060.36 Q74.6831 1062.24 81.3671 1062.24 Q88.0511 1062.24 94.6193 1060.36 Q101.159 1058.45 107.785 1054.61 L107.785 1059.24 Q100.985 1063.58 94.4168 1065.75 Q87.8485 1067.89 81.3671 1067.89 Q74.9145 1067.89 68.3752 1065.75 Q61.8359 1063.6 55.0072 1059.24 L55.0072 1054.61 Z" fill="#000000" fill-rule="nonzero" fill-opacity="1" /><path clip-path="url(#clip910)" d="M68.5199 1023.62 L73.5546 1023.62 Q72.3972 1025.87 71.8185 1028.3 Q71.2398 1030.73 71.2398 1033.34 Q71.2398 1037.3 72.4551 1039.3 Q73.6703 1041.27 76.1009 1041.27 Q77.9527 1041.27 79.0233 1039.85 Q80.065 1038.43 81.0198 1034.15 L81.4249 1032.33 Q82.6402 1026.65 84.8682 1024.28 Q87.0673 1021.88 91.0314 1021.88 Q95.5452 1021.88 98.1783 1025.47 Q100.811 1029.03 100.811 1035.28 Q100.811 1037.88 100.291 1040.72 Q99.7987 1043.52 98.7859 1046.65 L93.2883 1046.65 Q94.8218 1043.7 95.6031 1040.83 Q96.3554 1037.97 96.3554 1035.16 Q96.3554 1031.4 95.0823 1029.37 Q93.7802 1027.35 91.4364 1027.35 Q89.2663 1027.35 88.1089 1028.82 Q86.9515 1030.27 85.8809 1035.22 L85.4469 1037.07 Q84.4052 1042.02 82.264 1044.22 Q80.0939 1046.42 76.3324 1046.42 Q71.7606 1046.42 69.2722 1043.18 Q66.7838 1039.94 66.7838 1033.98 Q66.7838 1031.02 67.2178 1028.42 Q67.6519 1025.82 68.5199 1023.62 Z" fill="#000000" fill-rule="nonzero" fill-opacity="1" /><path clip-path="url(#clip910)" d="M55.0072 1014.24 L55.0072 1009.61 Q61.8359 1005.27 68.3752 1003.13 Q74.9145 1000.96 81.3671 1000.96 Q87.8485 1000.96 94.4168 1003.13 Q100.985 1005.27 107.785 1009.61 L107.785 1014.24 Q101.159 1010.39 94.6193 1008.51 Q88.0511 1006.6 81.3671 1006.6 Q74.6831 1006.6 68.1727 1008.51 Q61.6623 1010.39 55.0072 1014.24 Z" fill="#000000" fill-rule="nonzero" fill-opacity="1" /><path clip-path="url(#clip910)" d="M1124.32 125.969 L1124.32 133.949 Q1119.66 131.721 1115.53 130.627 Q1111.4 129.534 1107.55 129.534 Q1100.87 129.534 1097.22 132.126 Q1093.62 134.719 1093.62 139.499 Q1093.62 143.509 1096.01 145.575 Q1098.44 147.601 1105.16 148.857 L1110.1 149.869 Q1119.26 151.611 1123.59 156.027 Q1127.97 160.402 1127.97 167.774 Q1127.97 176.565 1122.05 181.102 Q1116.18 185.639 1104.8 185.639 Q1100.5 185.639 1095.64 184.667 Q1090.82 183.694 1085.64 181.79 L1085.64 173.365 Q1090.62 176.16 1095.4 177.577 Q1100.18 178.995 1104.8 178.995 Q1111.81 178.995 1115.61 176.241 Q1119.42 173.486 1119.42 168.382 Q1119.42 163.926 1116.67 161.414 Q1113.95 158.903 1107.71 157.647 L1102.73 156.675 Q1093.58 154.852 1089.49 150.963 Q1085.39 147.074 1085.39 140.147 Q1085.39 132.126 1091.02 127.508 Q1096.7 122.89 1106.62 122.89 Q1110.87 122.89 1115.29 123.66 Q1119.7 124.43 1124.32 125.969 Z" fill="#000000" fill-rule="nonzero" fill-opacity="1" /><path clip-path="url(#clip910)" d="M1157.99 144.32 Q1151.99 144.32 1148.51 149.019 Q1145.02 153.677 1145.02 161.819 Q1145.02 169.962 1148.47 174.661 Q1151.95 179.319 1157.99 179.319 Q1163.94 179.319 1167.42 174.62 Q1170.91 169.921 1170.91 161.819 Q1170.91 153.758 1167.42 149.059 Q1163.94 144.32 1157.99 144.32 M1157.99 138 Q1167.71 138 1173.26 144.32 Q1178.81 150.639 1178.81 161.819 Q1178.81 172.959 1173.26 179.319 Q1167.71 185.639 1157.99 185.639 Q1148.22 185.639 1142.67 179.319 Q1137.16 172.959 1137.16 161.819 Q1137.16 150.639 1142.67 144.32 Q1148.22 138 1157.99 138 Z" fill="#000000" fill-rule="nonzero" fill-opacity="1" /><path clip-path="url(#clip910)" d="M1191.16 121.432 L1198.62 121.432 L1198.62 184.464 L1191.16 184.464 L1191.16 121.432 Z" fill="#000000" fill-rule="nonzero" fill-opacity="1" /><path clip-path="url(#clip910)" d="M1208.87 139.094 L1216.76 139.094 L1230.94 177.172 L1245.12 139.094 L1253.02 139.094 L1236.01 184.464 L1225.88 184.464 L1208.87 139.094 Z" fill="#000000" fill-rule="nonzero" fill-opacity="1" /><path clip-path="url(#clip910)" d="M1302.12 159.916 L1302.12 163.561 L1267.85 163.561 Q1268.33 171.258 1272.46 175.309 Q1276.64 179.319 1284.05 179.319 Q1288.34 179.319 1292.35 178.266 Q1296.41 177.213 1300.38 175.106 L1300.38 182.155 Q1296.36 183.856 1292.15 184.748 Q1287.94 185.639 1283.6 185.639 Q1272.75 185.639 1266.39 179.319 Q1260.07 173 1260.07 162.225 Q1260.07 151.085 1266.06 144.563 Q1272.1 138 1282.31 138 Q1291.46 138 1296.77 143.914 Q1302.12 149.788 1302.12 159.916 M1294.66 157.728 Q1294.58 151.611 1291.22 147.965 Q1287.9 144.32 1282.39 144.32 Q1276.15 144.32 1272.38 147.844 Q1268.66 151.368 1268.09 157.769 L1294.66 157.728 Z" fill="#000000" fill-rule="nonzero" fill-opacity="1" /><path clip-path="url(#clip910)" d="M1348.09 126.212 L1348.09 139.094 L1363.45 139.094 L1363.45 144.887 L1348.09 144.887 L1348.09 169.516 Q1348.09 175.066 1349.59 176.646 Q1351.13 178.226 1355.79 178.226 L1363.45 178.226 L1363.45 184.464 L1355.79 184.464 Q1347.16 184.464 1343.88 181.264 Q1340.6 178.023 1340.6 169.516 L1340.6 144.887 L1335.13 144.887 L1335.13 139.094 L1340.6 139.094 L1340.6 126.212 L1348.09 126.212 Z" fill="#000000" fill-rule="nonzero" fill-opacity="1" /><path clip-path="url(#clip910)" d="M1373.25 139.094 L1380.7 139.094 L1380.7 184.464 L1373.25 184.464 L1373.25 139.094 M1373.25 121.432 L1380.7 121.432 L1380.7 130.871 L1373.25 130.871 L1373.25 121.432 Z" fill="#000000" fill-rule="nonzero" fill-opacity="1" /><path clip-path="url(#clip910)" d="M1431.62 147.803 Q1434.42 142.78 1438.31 140.39 Q1442.2 138 1447.46 138 Q1454.55 138 1458.4 142.983 Q1462.25 147.925 1462.25 157.08 L1462.25 184.464 L1454.76 184.464 L1454.76 157.323 Q1454.76 150.801 1452.45 147.641 Q1450.14 144.482 1445.4 144.482 Q1439.6 144.482 1436.24 148.33 Q1432.88 152.178 1432.88 158.822 L1432.88 184.464 L1425.39 184.464 L1425.39 157.323 Q1425.39 150.76 1423.08 147.641 Q1420.77 144.482 1415.95 144.482 Q1410.24 144.482 1406.87 148.37 Q1403.51 152.219 1403.51 158.822 L1403.51 184.464 L1396.02 184.464 L1396.02 139.094 L1403.51 139.094 L1403.51 146.142 Q1406.06 141.97 1409.63 139.985 Q1413.19 138 1418.09 138 Q1423.04 138 1426.48 140.512 Q1429.96 143.023 1431.62 147.803 Z" fill="#000000" fill-rule="nonzero" fill-opacity="1" /><path clip-path="url(#clip910)" d="M1515.92 159.916 L1515.92 163.561 L1481.65 163.561 Q1482.14 171.258 1486.27 175.309 Q1490.44 179.319 1497.86 179.319 Q1502.15 179.319 1506.16 178.266 Q1510.21 177.213 1514.18 175.106 L1514.18 182.155 Q1510.17 183.856 1505.96 184.748 Q1501.75 185.639 1497.41 185.639 Q1486.55 185.639 1480.19 179.319 Q1473.88 173 1473.88 162.225 Q1473.88 151.085 1479.87 144.563 Q1485.91 138 1496.11 138 Q1505.27 138 1510.58 143.914 Q1515.92 149.788 1515.92 159.916 M1508.47 157.728 Q1508.39 151.611 1505.03 147.965 Q1501.71 144.32 1496.2 144.32 Q1489.96 144.32 1486.19 147.844 Q1482.46 151.368 1481.9 157.769 L1508.47 157.728 Z" fill="#000000" fill-rule="nonzero" fill-opacity="1" /><path clip-path="url(#clip910)" d="M1549.18 139.094 L1557.08 139.094 L1571.26 177.172 L1585.44 139.094 L1593.34 139.094 L1576.32 184.464 L1566.2 184.464 L1549.18 139.094 Z" fill="#000000" fill-rule="nonzero" fill-opacity="1" /><path clip-path="url(#clip910)" d="M1632.55 140.431 L1632.55 147.479 Q1629.39 145.859 1625.99 145.049 Q1622.58 144.239 1618.94 144.239 Q1613.39 144.239 1610.59 145.94 Q1607.84 147.641 1607.84 151.044 Q1607.84 153.637 1609.82 155.135 Q1611.81 156.594 1617.8 157.931 L1620.36 158.498 Q1628.3 160.199 1631.62 163.318 Q1634.98 166.397 1634.98 171.947 Q1634.98 178.266 1629.96 181.952 Q1624.97 185.639 1616.22 185.639 Q1612.58 185.639 1608.61 184.91 Q1604.68 184.221 1600.3 182.803 L1600.3 175.106 Q1604.44 177.253 1608.45 178.347 Q1612.46 179.4 1616.39 179.4 Q1621.65 179.4 1624.49 177.618 Q1627.32 175.795 1627.32 172.514 Q1627.32 169.476 1625.26 167.855 Q1623.23 166.235 1616.31 164.736 L1613.71 164.128 Q1606.79 162.67 1603.71 159.672 Q1600.63 156.634 1600.63 151.368 Q1600.63 144.968 1605.17 141.484 Q1609.7 138 1618.05 138 Q1622.18 138 1625.82 138.608 Q1629.47 139.215 1632.55 140.431 Z" fill="#000000" fill-rule="nonzero" fill-opacity="1" /><path clip-path="url(#clip910)" d="M1703.08 161.252 Q1703.08 153.151 1699.71 148.695 Q1696.39 144.239 1690.36 144.239 Q1684.36 144.239 1681 148.695 Q1677.68 153.151 1677.68 161.252 Q1677.68 169.314 1681 173.77 Q1684.36 178.226 1690.36 178.226 Q1696.39 178.226 1699.71 173.77 Q1703.08 169.314 1703.08 161.252 M1710.53 178.833 Q1710.53 190.419 1705.38 196.05 Q1700.24 201.721 1689.63 201.721 Q1685.7 201.721 1682.21 201.113 Q1678.73 200.546 1675.45 199.331 L1675.45 192.08 Q1678.73 193.862 1681.93 194.713 Q1685.13 195.563 1688.45 195.563 Q1695.78 195.563 1699.43 191.715 Q1703.08 187.907 1703.08 180.17 L1703.08 176.484 Q1700.77 180.494 1697.16 182.479 Q1693.56 184.464 1688.53 184.464 Q1680.19 184.464 1675.08 178.104 Q1669.98 171.744 1669.98 161.252 Q1669.98 150.72 1675.08 144.36 Q1680.19 138 1688.53 138 Q1693.56 138 1697.16 139.985 Q1700.77 141.97 1703.08 145.98 L1703.08 139.094 L1710.53 139.094 L1710.53 178.833 Z" fill="#000000" fill-rule="nonzero" fill-opacity="1" /><path clip-path="url(#clip910)" d="M1752.17 146.061 Q1750.92 145.332 1749.42 145.008 Q1747.96 144.644 1746.18 144.644 Q1739.86 144.644 1736.45 148.776 Q1733.09 152.867 1733.09 160.564 L1733.09 184.464 L1725.6 184.464 L1725.6 139.094 L1733.09 139.094 L1733.09 146.142 Q1735.44 142.011 1739.21 140.026 Q1742.98 138 1748.36 138 Q1749.13 138 1750.07 138.122 Q1751 138.203 1752.13 138.405 L1752.17 146.061 Z" fill="#000000" fill-rule="nonzero" fill-opacity="1" /><path clip-path="url(#clip910)" d="M1759.99 139.094 L1767.44 139.094 L1767.44 184.464 L1759.99 184.464 L1759.99 139.094 M1759.99 121.432 L1767.44 121.432 L1767.44 130.871 L1759.99 130.871 L1759.99 121.432 Z" fill="#000000" fill-rule="nonzero" fill-opacity="1" /><path clip-path="url(#clip910)" d="M1812.9 145.98 L1812.9 121.432 L1820.35 121.432 L1820.35 184.464 L1812.9 184.464 L1812.9 177.658 Q1810.55 181.709 1806.94 183.694 Q1803.38 185.639 1798.35 185.639 Q1790.13 185.639 1784.94 179.076 Q1779.8 172.514 1779.8 161.819 Q1779.8 151.125 1784.94 144.563 Q1790.13 138 1798.35 138 Q1803.38 138 1806.94 139.985 Q1810.55 141.93 1812.9 145.98 M1787.5 161.819 Q1787.5 170.043 1790.86 174.742 Q1794.26 179.4 1800.18 179.4 Q1806.09 179.4 1809.49 174.742 Q1812.9 170.043 1812.9 161.819 Q1812.9 153.596 1809.49 148.938 Q1806.09 144.239 1800.18 144.239 Q1794.26 144.239 1790.86 148.938 Q1787.5 153.596 1787.5 161.819 Z" fill="#000000" fill-rule="nonzero" fill-opacity="1" /><path clip-path="url(#clip910)" d="M1891 140.431 L1891 147.479 Q1887.84 145.859 1884.43 145.049 Q1881.03 144.239 1877.39 144.239 Q1871.84 144.239 1869.04 145.94 Q1866.29 147.641 1866.29 151.044 Q1866.29 153.637 1868.27 155.135 Q1870.26 156.594 1876.25 157.931 L1878.8 158.498 Q1886.74 160.199 1890.07 163.318 Q1893.43 166.397 1893.43 171.947 Q1893.43 178.266 1888.4 181.952 Q1883.42 185.639 1874.67 185.639 Q1871.03 185.639 1867.06 184.91 Q1863.13 184.221 1858.75 182.803 L1858.75 175.106 Q1862.88 177.253 1866.89 178.347 Q1870.9 179.4 1874.83 179.4 Q1880.1 179.4 1882.94 177.618 Q1885.77 175.795 1885.77 172.514 Q1885.77 169.476 1883.71 167.855 Q1881.68 166.235 1874.75 164.736 L1872.16 164.128 Q1865.23 162.67 1862.15 159.672 Q1859.08 156.634 1859.08 151.368 Q1859.08 144.968 1863.61 141.484 Q1868.15 138 1876.49 138 Q1880.63 138 1884.27 138.608 Q1887.92 139.215 1891 140.431 Z" fill="#000000" fill-rule="nonzero" fill-opacity="1" /><path clip-path="url(#clip910)" d="M1905.3 139.094 L1912.75 139.094 L1912.75 184.464 L1905.3 184.464 L1905.3 139.094 M1905.3 121.432 L1912.75 121.432 L1912.75 130.871 L1905.3 130.871 L1905.3 121.432 Z" fill="#000000" fill-rule="nonzero" fill-opacity="1" /><path clip-path="url(#clip910)" d="M1925.11 139.094 L1960.51 139.094 L1960.51 145.899 L1932.48 178.509 L1960.51 178.509 L1960.51 184.464 L1924.09 184.464 L1924.09 177.658 L1952.13 145.049 L1925.11 145.049 L1925.11 139.094 Z" fill="#000000" fill-rule="nonzero" fill-opacity="1" /><path clip-path="url(#clip910)" d="M2010.7 159.916 L2010.7 163.561 L1976.43 163.561 Q1976.92 171.258 1981.05 175.309 Q1985.22 179.319 1992.63 179.319 Q1996.93 179.319 2000.94 178.266 Q2004.99 177.213 2008.96 175.106 L2008.96 182.155 Q2004.95 183.856 2000.74 184.748 Q1996.52 185.639 1992.19 185.639 Q1981.33 185.639 1974.97 179.319 Q1968.65 173 1968.65 162.225 Q1968.65 151.085 1974.65 144.563 Q1980.68 138 1990.89 138 Q2000.05 138 2005.35 143.914 Q2010.7 149.788 2010.7 159.916 M2003.25 157.728 Q2003.17 151.611 1999.8 147.965 Q1996.48 144.32 1990.97 144.32 Q1984.73 144.32 1980.97 147.844 Q1977.24 151.368 1976.67 157.769 L2003.25 157.728 Z" fill="#000000" fill-rule="nonzero" fill-opacity="1" /><path clip-path="url(#clip910)" d="M2045.54 158.822 L2120.4 158.822 L2120.4 164.655 L2045.54 164.655 L2045.54 158.822 Z" fill="#000000" fill-rule="nonzero" fill-opacity="1" /><path clip-path="url(#clip910)" d="M2197.45 159.916 L2197.45 163.561 L2163.18 163.561 Q2163.66 171.258 2167.8 175.309 Q2171.97 179.319 2179.38 179.319 Q2183.67 179.319 2187.69 178.266 Q2191.74 177.213 2195.71 175.106 L2195.71 182.155 Q2191.7 183.856 2187.48 184.748 Q2183.27 185.639 2178.94 185.639 Q2168.08 185.639 2161.72 179.319 Q2155.4 173 2155.4 162.225 Q2155.4 151.085 2161.39 144.563 Q2167.43 138 2177.64 138 Q2186.79 138 2192.1 143.914 Q2197.45 149.788 2197.45 159.916 M2189.99 157.728 Q2189.91 151.611 2186.55 147.965 Q2183.23 144.32 2177.72 144.32 Q2171.48 144.32 2167.71 147.844 Q2163.99 151.368 2163.42 157.769 L2189.99 157.728 Z" fill="#000000" fill-rule="nonzero" fill-opacity="1" /><path clip-path="url(#clip910)" d="M2209.68 121.432 L2217.14 121.432 L2217.14 184.464 L2209.68 184.464 L2209.68 121.432 Z" fill="#000000" fill-rule="nonzero" fill-opacity="1" /><path clip-path="url(#clip910)" d="M2271.54 159.916 L2271.54 163.561 L2237.27 163.561 Q2237.75 171.258 2241.89 175.309 Q2246.06 179.319 2253.47 179.319 Q2257.77 179.319 2261.78 178.266 Q2265.83 177.213 2269.8 175.106 L2269.8 182.155 Q2265.79 183.856 2261.57 184.748 Q2257.36 185.639 2253.03 185.639 Q2242.17 185.639 2235.81 179.319 Q2229.49 173 2229.49 162.225 Q2229.49 151.085 2235.49 144.563 Q2241.52 138 2251.73 138 Q2260.89 138 2266.19 143.914 Q2271.54 149.788 2271.54 159.916 M2264.09 157.728 Q2264 151.611 2260.64 147.965 Q2257.32 144.32 2251.81 144.32 Q2245.57 144.32 2241.81 147.844 Q2238.08 151.368 2237.51 157.769 L2264.09 157.728 Z" fill="#000000" fill-rule="nonzero" fill-opacity="1" /><path clip-path="url(#clip910)" d="M2316.42 140.836 L2316.42 147.803 Q2313.26 146.061 2310.06 145.211 Q2306.9 144.32 2303.66 144.32 Q2296.41 144.32 2292.4 148.938 Q2288.39 153.515 2288.39 161.819 Q2288.39 170.124 2292.4 174.742 Q2296.41 179.319 2303.66 179.319 Q2306.9 179.319 2310.06 178.469 Q2313.26 177.577 2316.42 175.836 L2316.42 182.722 Q2313.3 184.18 2309.94 184.91 Q2306.62 185.639 2302.85 185.639 Q2292.6 185.639 2286.57 179.198 Q2280.53 172.757 2280.53 161.819 Q2280.53 150.72 2286.61 144.36 Q2292.73 138 2303.34 138 Q2306.78 138 2310.06 138.729 Q2313.34 139.418 2316.42 140.836 Z" fill="#000000" fill-rule="nonzero" fill-opacity="1" /><path clip-path="url(#clip910)" d="M2336.76 126.212 L2336.76 139.094 L2352.11 139.094 L2352.11 144.887 L2336.76 144.887 L2336.76 169.516 Q2336.76 175.066 2338.26 176.646 Q2339.8 178.226 2344.46 178.226 L2352.11 178.226 L2352.11 184.464 L2344.46 184.464 Q2335.83 184.464 2332.55 181.264 Q2329.26 178.023 2329.26 169.516 L2329.26 144.887 L2323.8 144.887 L2323.8 139.094 L2329.26 139.094 L2329.26 126.212 L2336.76 126.212 Z" fill="#000000" fill-rule="nonzero" fill-opacity="1" /><path clip-path="url(#clip910)" d="M2388.2 146.061 Q2386.95 145.332 2385.45 145.008 Q2383.99 144.644 2382.21 144.644 Q2375.89 144.644 2372.49 148.776 Q2369.13 152.867 2369.13 160.564 L2369.13 184.464 L2361.63 184.464 L2361.63 139.094 L2369.13 139.094 L2369.13 146.142 Q2371.47 142.011 2375.24 140.026 Q2379.01 138 2384.4 138 Q2385.17 138 2386.1 138.122 Q2387.03 138.203 2388.16 138.405 L2388.2 146.061 Z" fill="#000000" fill-rule="nonzero" fill-opacity="1" /><path clip-path="url(#clip910)" d="M2396.02 139.094 L2403.48 139.094 L2403.48 184.464 L2396.02 184.464 L2396.02 139.094 M2396.02 121.432 L2403.48 121.432 L2403.48 130.871 L2396.02 130.871 L2396.02 121.432 Z" fill="#000000" fill-rule="nonzero" fill-opacity="1" /><path clip-path="url(#clip910)" d="M2451.72 140.836 L2451.72 147.803 Q2448.56 146.061 2445.36 145.211 Q2442.2 144.32 2438.96 144.32 Q2431.71 144.32 2427.7 148.938 Q2423.69 153.515 2423.69 161.819 Q2423.69 170.124 2427.7 174.742 Q2431.71 179.319 2438.96 179.319 Q2442.2 179.319 2445.36 178.469 Q2448.56 177.577 2451.72 175.836 L2451.72 182.722 Q2448.6 184.18 2445.24 184.91 Q2441.92 185.639 2438.15 185.639 Q2427.9 185.639 2421.87 179.198 Q2415.83 172.757 2415.83 161.819 Q2415.83 150.72 2421.91 144.36 Q2428.03 138 2438.64 138 Q2442.08 138 2445.36 138.729 Q2448.64 139.418 2451.72 140.836 Z" fill="#000000" fill-rule="nonzero" fill-opacity="1" /><path clip-path="url(#clip910)" d="M2499.16 198.237 L2499.16 204.03 L2456.06 204.03 L2456.06 198.237 L2499.16 198.237 Z" fill="#000000" fill-rule="nonzero" fill-opacity="1" /><path clip-path="url(#clip910)" d="M2500.82 139.094 L2508.72 139.094 L2522.9 177.172 L2537.08 139.094 L2544.97 139.094 L2527.96 184.464 L2517.83 184.464 L2500.82 139.094 Z" fill="#000000" fill-rule="nonzero" fill-opacity="1" /><path clip-path="url(#clip910)" d="M2594.07 159.916 L2594.07 163.561 L2559.8 163.561 Q2560.29 171.258 2564.42 175.309 Q2568.59 179.319 2576 179.319 Q2580.3 179.319 2584.31 178.266 Q2588.36 177.213 2592.33 175.106 L2592.33 182.155 Q2588.32 183.856 2584.11 184.748 Q2579.89 185.639 2575.56 185.639 Q2564.7 185.639 2558.34 179.319 Q2552.02 173 2552.02 162.225 Q2552.02 151.085 2558.02 144.563 Q2564.05 138 2574.26 138 Q2583.42 138 2588.72 143.914 Q2594.07 149.788 2594.07 159.916 M2586.62 157.728 Q2586.54 151.611 2583.17 147.965 Q2579.85 144.32 2574.34 144.32 Q2568.11 144.32 2564.34 147.844 Q2560.61 151.368 2560.04 157.769 L2586.62 157.728 Z" fill="#000000" fill-rule="nonzero" fill-opacity="1" /><path clip-path="url(#clip910)" d="M2644.02 157.08 L2644.02 184.464 L2636.57 184.464 L2636.57 157.323 Q2636.57 150.882 2634.05 147.682 Q2631.54 144.482 2626.52 144.482 Q2620.48 144.482 2617 148.33 Q2613.52 152.178 2613.52 158.822 L2613.52 184.464 L2606.02 184.464 L2606.02 121.432 L2613.52 121.432 L2613.52 146.142 Q2616.19 142.051 2619.8 140.026 Q2623.44 138 2628.18 138 Q2636 138 2640.01 142.861 Q2644.02 147.682 2644.02 157.08 Z" fill="#000000" fill-rule="nonzero" fill-opacity="1" /><path clip-path="url(#clip910)" d="M2658.89 139.094 L2666.34 139.094 L2666.34 184.464 L2658.89 184.464 L2658.89 139.094 M2658.89 121.432 L2666.34 121.432 L2666.34 130.871 L2658.89 130.871 L2658.89 121.432 Z" fill="#000000" fill-rule="nonzero" fill-opacity="1" /><path clip-path="url(#clip910)" d="M2714.59 140.836 L2714.59 147.803 Q2711.43 146.061 2708.23 145.211 Q2705.07 144.32 2701.83 144.32 Q2694.57 144.32 2690.56 148.938 Q2686.55 153.515 2686.55 161.819 Q2686.55 170.124 2690.56 174.742 Q2694.57 179.319 2701.83 179.319 Q2705.07 179.319 2708.23 178.469 Q2711.43 177.577 2714.59 175.836 L2714.59 182.722 Q2711.47 184.18 2708.1 184.91 Q2704.78 185.639 2701.02 185.639 Q2690.77 185.639 2684.73 179.198 Q2678.7 172.757 2678.7 161.819 Q2678.7 150.72 2684.77 144.36 Q2690.89 138 2701.5 138 Q2704.95 138 2708.23 138.729 Q2711.51 139.418 2714.59 140.836 Z" fill="#000000" fill-rule="nonzero" fill-opacity="1" /><path clip-path="url(#clip910)" d="M2727.55 121.432 L2735 121.432 L2735 184.464 L2727.55 184.464 L2727.55 121.432 Z" fill="#000000" fill-rule="nonzero" fill-opacity="1" /><path clip-path="url(#clip910)" d="M2789.41 159.916 L2789.41 163.561 L2755.14 163.561 Q2755.62 171.258 2759.75 175.309 Q2763.93 179.319 2771.34 179.319 Q2775.63 179.319 2779.64 178.266 Q2783.69 177.213 2787.66 175.106 L2787.66 182.155 Q2783.65 183.856 2779.44 184.748 Q2775.23 185.639 2770.89 185.639 Q2760.04 185.639 2753.68 179.319 Q2747.36 173 2747.36 162.225 Q2747.36 151.085 2753.35 144.563 Q2759.39 138 2769.6 138 Q2778.75 138 2784.06 143.914 Q2789.41 149.788 2789.41 159.916 M2781.95 157.728 Q2781.87 151.611 2778.51 147.965 Q2775.19 144.32 2769.68 144.32 Q2763.44 144.32 2759.67 147.844 Q2755.95 151.368 2755.38 157.769 L2781.95 157.728 Z" fill="#000000" fill-rule="nonzero" fill-opacity="1" /><polyline clip-path="url(#clip912)" style="stroke:#ff8c00; stroke-linecap:round; stroke-linejoin:round; stroke-width:6; stroke-opacity:1; fill:none" points="468.895,2102.46 2046.78,995.719 2726.35,649.746 3405.91,300.989 "/>
<path clip-path="url(#clip912)" d="M468.895 2086.46 L452.895 2118.46 L484.895 2118.46 L468.895 2086.46 Z" fill="#ff8c00" fill-rule="evenodd" fill-opacity="1" stroke="none"/>
<path clip-path="url(#clip912)" d="M2046.78 979.719 L2030.78 1011.72 L2062.78 1011.72 L2046.78 979.719 Z" fill="#ff8c00" fill-rule="evenodd" fill-opacity="1" stroke="none"/>
<path clip-path="url(#clip912)" d="M2726.35 633.746 L2710.35 665.746 L2742.35 665.746 L2726.35 633.746 Z" fill="#ff8c00" fill-rule="evenodd" fill-opacity="1" stroke="none"/>
<path clip-path="url(#clip912)" d="M3405.91 284.989 L3389.91 316.989 L3421.91 316.989 L3405.91 284.989 Z" fill="#ff8c00" fill-rule="evenodd" fill-opacity="1" stroke="none"/>
<polyline clip-path="url(#clip912)" style="stroke:#48d1cc; stroke-linecap:round; stroke-linejoin:round; stroke-width:6; stroke-opacity:1; fill:none" points="468.895,1178.99 2046.78,1051.17 2726.35,1011.57 3405.91,851.492 "/>
<path clip-path="url(#clip912)" d="M468.895 1194.99 L455.039 1186.99 L455.039 1170.99 L468.895 1162.99 L482.751 1170.99 L482.751 1186.99 Z" fill="#48d1cc" fill-rule="evenodd" fill-opacity="1" stroke="none"/>
<path clip-path="url(#clip912)" d="M2046.78 1067.17 L2032.93 1059.17 L2032.93 1043.17 L2046.78 1035.17 L2060.64 1043.17 L2060.64 1059.17 Z" fill="#48d1cc" fill-rule="evenodd" fill-opacity="1" stroke="none"/>
<path clip-path="url(#clip912)" d="M2726.35 1027.57 L2712.49 1019.57 L2712.49 1003.57 L2726.35 995.571 L2740.2 1003.57 L2740.2 1019.57 Z" fill="#48d1cc" fill-rule="evenodd" fill-opacity="1" stroke="none"/>
<path clip-path="url(#clip912)" d="M3405.91 867.492 L3392.05 859.492 L3392.05 843.492 L3405.91 835.492 L3419.76 843.492 L3419.76 859.492 Z" fill="#48d1cc" fill-rule="evenodd" fill-opacity="1" stroke="none"/>
<path clip-path="url(#clip910)" d="M2685.01 2092.86 L3445.07 2092.86 L3445.07 1937.34 L2685.01 1937.34  Z" fill="#ffffff" fill-rule="evenodd" fill-opacity="1"/>
<polyline clip-path="url(#clip910)" style="stroke:#000000; stroke-linecap:round; stroke-linejoin:round; stroke-width:4; stroke-opacity:1; fill:none" points="2685.01,2092.86 3445.07,2092.86 3445.07,1937.34 2685.01,1937.34 2685.01,2092.86 "/>
<polyline clip-path="url(#clip910)" style="stroke:#ff8c00; stroke-linecap:round; stroke-linejoin:round; stroke-width:6; stroke-opacity:1; fill:none" points="2720.9,1989.18 2936.28,1989.18 "/>
<path clip-path="url(#clip910)" d="M2828.59 1963.58 L2802.99 2014.78 L2854.19 2014.78 L2828.59 1963.58 Z" fill="#ff8c00" fill-rule="evenodd" fill-opacity="1" stroke="none"/>
<path clip-path="url(#clip910)" d="M2982.81 1970.48 Q2979.7 1975.81 2978.2 1981.02 Q2976.69 1986.22 2976.69 1991.57 Q2976.69 1996.92 2978.2 2002.17 Q2979.73 2007.4 2982.81 2012.71 L2979.1 2012.71 Q2975.63 2007.27 2973.89 2002.01 Q2972.18 1996.76 2972.18 1991.57 Q2972.18 1986.41 2973.89 1981.18 Q2975.61 1975.95 2979.1 1970.48 L2982.81 1970.48 Z" fill="#000000" fill-rule="nonzero" fill-opacity="1" /><path clip-path="url(#clip910)" d="M3013.24 1992.43 L3013.24 1994.51 L2993.66 1994.51 Q2993.94 1998.91 2996.3 2001.22 Q2998.68 2003.52 3002.92 2003.52 Q3005.37 2003.52 3007.67 2002.91 Q3009.98 2002.31 3012.25 2001.11 L3012.25 2005.14 Q3009.96 2006.11 3007.55 2006.62 Q3005.14 2007.13 3002.67 2007.13 Q2996.46 2007.13 2992.83 2003.52 Q2989.22 1999.9 2989.22 1993.75 Q2989.22 1987.38 2992.64 1983.65 Q2996.09 1979.9 3001.93 1979.9 Q3007.16 1979.9 3010.19 1983.28 Q3013.24 1986.64 3013.24 1992.43 M3008.99 1991.18 Q3008.94 1987.68 3007.02 1985.6 Q3005.12 1983.52 3001.97 1983.52 Q2998.41 1983.52 2996.25 1985.53 Q2994.12 1987.54 2993.8 1991.2 L3008.99 1991.18 Z" fill="#000000" fill-rule="nonzero" fill-opacity="1" /><path clip-path="url(#clip910)" d="M3040.95 1980.53 L3031.58 1993.15 L3041.44 2006.46 L3036.42 2006.46 L3028.87 1996.27 L3021.32 2006.46 L3016.3 2006.46 L3026.37 1992.89 L3017.16 1980.53 L3022.18 1980.53 L3029.06 1989.77 L3035.93 1980.53 L3040.95 1980.53 Z" fill="#000000" fill-rule="nonzero" fill-opacity="1" /><path clip-path="url(#clip910)" d="M3059.24 1993.42 Q3054.08 1993.42 3052.09 1994.6 Q3050.1 1995.78 3050.1 1998.63 Q3050.1 2000.9 3051.58 2002.24 Q3053.08 2003.56 3055.65 2003.56 Q3059.19 2003.56 3061.32 2001.06 Q3063.48 1998.54 3063.48 1994.37 L3063.48 1993.42 L3059.24 1993.42 M3067.74 1991.66 L3067.74 2006.46 L3063.48 2006.46 L3063.48 2002.52 Q3062.02 2004.88 3059.84 2006.02 Q3057.67 2007.13 3054.52 2007.13 Q3050.54 2007.13 3048.18 2004.9 Q3045.84 2002.66 3045.84 1998.91 Q3045.84 1994.53 3048.75 1992.31 Q3051.69 1990.09 3057.5 1990.09 L3063.48 1990.09 L3063.48 1989.67 Q3063.48 1986.73 3061.53 1985.14 Q3059.61 1983.52 3056.12 1983.52 Q3053.89 1983.52 3051.79 1984.05 Q3049.68 1984.58 3047.74 1985.65 L3047.74 1981.71 Q3050.07 1980.81 3052.27 1980.37 Q3054.47 1979.9 3056.55 1979.9 Q3062.18 1979.9 3064.96 1982.82 Q3067.74 1985.74 3067.74 1991.66 Z" fill="#000000" fill-rule="nonzero" fill-opacity="1" /><path clip-path="url(#clip910)" d="M3077.6 2000.58 L3082.48 2000.58 L3082.48 2004.56 L3078.68 2011.96 L3075.7 2011.96 L3077.6 2004.56 L3077.6 2000.58 Z" fill="#000000" fill-rule="nonzero" fill-opacity="1" /><path clip-path="url(#clip910)" d="M3126.83 1985.51 Q3128.43 1982.64 3130.65 1981.27 Q3132.87 1979.9 3135.88 1979.9 Q3139.93 1979.9 3142.13 1982.75 Q3144.33 1985.58 3144.33 1990.81 L3144.33 2006.46 L3140.05 2006.46 L3140.05 1990.95 Q3140.05 1987.22 3138.73 1985.41 Q3137.41 1983.61 3134.7 1983.61 Q3131.39 1983.61 3129.47 1985.81 Q3127.55 1988.01 3127.55 1991.8 L3127.55 2006.46 L3123.27 2006.46 L3123.27 1990.95 Q3123.27 1987.2 3121.95 1985.41 Q3120.63 1983.61 3117.87 1983.61 Q3114.61 1983.61 3112.69 1985.83 Q3110.77 1988.03 3110.77 1991.8 L3110.77 2006.46 L3106.49 2006.46 L3106.49 1980.53 L3110.77 1980.53 L3110.77 1984.56 Q3112.23 1982.17 3114.26 1981.04 Q3116.3 1979.9 3119.1 1979.9 Q3121.92 1979.9 3123.89 1981.34 Q3125.88 1982.78 3126.83 1985.51 Z" fill="#000000" fill-rule="nonzero" fill-opacity="1" /><path clip-path="url(#clip910)" d="M3164.61 1993.42 Q3159.45 1993.42 3157.46 1994.6 Q3155.47 1995.78 3155.47 1998.63 Q3155.47 2000.9 3156.95 2002.24 Q3158.45 2003.56 3161.02 2003.56 Q3164.56 2003.56 3166.69 2001.06 Q3168.85 1998.54 3168.85 1994.37 L3168.85 1993.42 L3164.61 1993.42 M3173.11 1991.66 L3173.11 2006.46 L3168.85 2006.46 L3168.85 2002.52 Q3167.39 2004.88 3165.21 2006.02 Q3163.04 2007.13 3159.89 2007.13 Q3155.91 2007.13 3153.55 2004.9 Q3151.21 2002.66 3151.21 1998.91 Q3151.21 1994.53 3154.12 1992.31 Q3157.06 1990.09 3162.87 1990.09 L3168.85 1990.09 L3168.85 1989.67 Q3168.85 1986.73 3166.9 1985.14 Q3164.98 1983.52 3161.48 1983.52 Q3159.26 1983.52 3157.16 1984.05 Q3155.05 1984.58 3153.11 1985.65 L3153.11 1981.71 Q3155.44 1980.81 3157.64 1980.37 Q3159.84 1979.9 3161.92 1979.9 Q3167.55 1979.9 3170.33 1982.82 Q3173.11 1985.74 3173.11 1991.66 Z" fill="#000000" fill-rule="nonzero" fill-opacity="1" /><path clip-path="url(#clip910)" d="M3198.94 1984.46 L3198.94 1970.44 L3203.2 1970.44 L3203.2 2006.46 L3198.94 2006.46 L3198.94 2002.57 Q3197.6 2004.88 3195.54 2006.02 Q3193.5 2007.13 3190.63 2007.13 Q3185.93 2007.13 3182.97 2003.38 Q3180.03 1999.63 3180.03 1993.52 Q3180.03 1987.4 3182.97 1983.65 Q3185.93 1979.9 3190.63 1979.9 Q3193.5 1979.9 3195.54 1981.04 Q3197.6 1982.15 3198.94 1984.46 M3184.42 1993.52 Q3184.42 1998.21 3186.35 2000.9 Q3188.29 2003.56 3191.67 2003.56 Q3195.05 2003.56 3196.99 2000.9 Q3198.94 1998.21 3198.94 1993.52 Q3198.94 1988.82 3196.99 1986.15 Q3195.05 1983.47 3191.67 1983.47 Q3188.29 1983.47 3186.35 1986.15 Q3184.42 1988.82 3184.42 1993.52 Z" fill="#000000" fill-rule="nonzero" fill-opacity="1" /><path clip-path="url(#clip910)" d="M3233.52 1990.81 L3233.52 2006.46 L3229.26 2006.46 L3229.26 1990.95 Q3229.26 1987.27 3227.83 1985.44 Q3226.39 1983.61 3223.52 1983.61 Q3220.07 1983.61 3218.08 1985.81 Q3216.09 1988.01 3216.09 1991.8 L3216.09 2006.46 L3211.81 2006.46 L3211.81 1980.53 L3216.09 1980.53 L3216.09 1984.56 Q3217.62 1982.22 3219.68 1981.06 Q3221.76 1979.9 3224.47 1979.9 Q3228.94 1979.9 3231.23 1982.68 Q3233.52 1985.44 3233.52 1990.81 Z" fill="#000000" fill-rule="nonzero" fill-opacity="1" /><path clip-path="url(#clip910)" d="M3242.02 1970.44 L3246.28 1970.44 L3246.28 2006.46 L3242.02 2006.46 L3242.02 1970.44 Z" fill="#000000" fill-rule="nonzero" fill-opacity="1" /><path clip-path="url(#clip910)" d="M3259.31 2002.57 L3259.31 2016.32 L3255.03 2016.32 L3255.03 1980.53 L3259.31 1980.53 L3259.31 1984.46 Q3260.65 1982.15 3262.69 1981.04 Q3264.75 1979.9 3267.6 1979.9 Q3272.32 1979.9 3275.26 1983.65 Q3278.22 1987.4 3278.22 1993.52 Q3278.22 1999.63 3275.26 2003.38 Q3272.32 2007.13 3267.6 2007.13 Q3264.75 2007.13 3262.69 2006.02 Q3260.65 2004.88 3259.31 2002.57 M3273.8 1993.52 Q3273.8 1988.82 3271.85 1986.15 Q3269.93 1983.47 3266.55 1983.47 Q3263.17 1983.47 3261.23 1986.15 Q3259.31 1988.82 3259.31 1993.52 Q3259.31 1998.21 3261.23 2000.9 Q3263.17 2003.56 3266.55 2003.56 Q3269.93 2003.56 3271.85 2000.9 Q3273.8 1998.21 3273.8 1993.52 Z" fill="#000000" fill-rule="nonzero" fill-opacity="1" /><path clip-path="url(#clip910)" d="M3284.61 1970.48 L3288.31 1970.48 Q3291.79 1975.95 3293.5 1981.18 Q3295.23 1986.41 3295.23 1991.57 Q3295.23 1996.76 3293.5 2002.01 Q3291.79 2007.27 3288.31 2012.71 L3284.61 2012.71 Q3287.69 2007.4 3289.19 2002.17 Q3290.72 1996.92 3290.72 1991.57 Q3290.72 1986.22 3289.19 1981.02 Q3287.69 1975.81 3284.61 1970.48 Z" fill="#000000" fill-rule="nonzero" fill-opacity="1" /><polyline clip-path="url(#clip910)" style="stroke:#48d1cc; stroke-linecap:round; stroke-linejoin:round; stroke-width:6; stroke-opacity:1; fill:none" points="2720.9,2041.02 2936.28,2041.02 "/>
<path clip-path="url(#clip910)" d="M2828.59 2066.62 L2806.42 2053.82 L2806.42 2028.22 L2828.59 2015.42 L2850.76 2028.22 L2850.76 2053.82 Z" fill="#48d1cc" fill-rule="evenodd" fill-opacity="1" stroke="none"/>
<path clip-path="url(#clip910)" d="M2982.81 2022.32 Q2979.7 2027.65 2978.2 2032.86 Q2976.69 2038.06 2976.69 2043.41 Q2976.69 2048.76 2978.2 2054.01 Q2979.73 2059.24 2982.81 2064.55 L2979.1 2064.55 Q2975.63 2059.11 2973.89 2053.85 Q2972.18 2048.6 2972.18 2043.41 Q2972.18 2038.25 2973.89 2033.02 Q2975.61 2027.79 2979.1 2022.32 L2982.81 2022.32 Z" fill="#000000" fill-rule="nonzero" fill-opacity="1" /><path clip-path="url(#clip910)" d="M3013.24 2044.27 L3013.24 2046.35 L2993.66 2046.35 Q2993.94 2050.75 2996.3 2053.06 Q2998.68 2055.36 3002.92 2055.36 Q3005.37 2055.36 3007.67 2054.75 Q3009.98 2054.15 3012.25 2052.95 L3012.25 2056.98 Q3009.96 2057.95 3007.55 2058.46 Q3005.14 2058.97 3002.67 2058.97 Q2996.46 2058.97 2992.83 2055.36 Q2989.22 2051.74 2989.22 2045.59 Q2989.22 2039.22 2992.64 2035.49 Q2996.09 2031.74 3001.93 2031.74 Q3007.16 2031.74 3010.19 2035.12 Q3013.24 2038.48 3013.24 2044.27 M3008.99 2043.02 Q3008.94 2039.52 3007.02 2037.44 Q3005.12 2035.36 3001.97 2035.36 Q2998.41 2035.36 2996.25 2037.37 Q2994.12 2039.38 2993.8 2043.04 L3008.99 2043.02 Z" fill="#000000" fill-rule="nonzero" fill-opacity="1" /><path clip-path="url(#clip910)" d="M3040.95 2032.37 L3031.58 2044.99 L3041.44 2058.3 L3036.42 2058.3 L3028.87 2048.11 L3021.32 2058.3 L3016.3 2058.3 L3026.37 2044.73 L3017.16 2032.37 L3022.18 2032.37 L3029.06 2041.61 L3035.93 2032.37 L3040.95 2032.37 Z" fill="#000000" fill-rule="nonzero" fill-opacity="1" /><path clip-path="url(#clip910)" d="M3059.24 2045.26 Q3054.08 2045.26 3052.09 2046.44 Q3050.1 2047.62 3050.1 2050.47 Q3050.1 2052.74 3051.58 2054.08 Q3053.08 2055.4 3055.65 2055.4 Q3059.19 2055.4 3061.32 2052.9 Q3063.48 2050.38 3063.48 2046.21 L3063.48 2045.26 L3059.24 2045.26 M3067.74 2043.5 L3067.74 2058.3 L3063.48 2058.3 L3063.48 2054.36 Q3062.02 2056.72 3059.84 2057.86 Q3057.67 2058.97 3054.52 2058.97 Q3050.54 2058.97 3048.18 2056.74 Q3045.84 2054.5 3045.84 2050.75 Q3045.84 2046.37 3048.75 2044.15 Q3051.69 2041.93 3057.5 2041.93 L3063.48 2041.93 L3063.48 2041.51 Q3063.48 2038.57 3061.53 2036.98 Q3059.61 2035.36 3056.12 2035.36 Q3053.89 2035.36 3051.79 2035.89 Q3049.68 2036.42 3047.74 2037.49 L3047.74 2033.55 Q3050.07 2032.65 3052.27 2032.21 Q3054.47 2031.74 3056.55 2031.74 Q3062.18 2031.74 3064.96 2034.66 Q3067.74 2037.58 3067.74 2043.5 Z" fill="#000000" fill-rule="nonzero" fill-opacity="1" /><path clip-path="url(#clip910)" d="M3096.21 2066.17 L3096.21 2069.48 L3071.58 2069.48 L3071.58 2066.17 L3096.21 2066.17 Z" fill="#000000" fill-rule="nonzero" fill-opacity="1" /><path clip-path="url(#clip910)" d="M3117.27 2045.03 Q3117.27 2040.4 3115.35 2037.86 Q3113.45 2035.31 3110 2035.31 Q3106.58 2035.31 3104.66 2037.86 Q3102.76 2040.4 3102.76 2045.03 Q3102.76 2049.64 3104.66 2052.18 Q3106.58 2054.73 3110 2054.73 Q3113.45 2054.73 3115.35 2052.18 Q3117.27 2049.64 3117.27 2045.03 M3121.53 2055.08 Q3121.53 2061.7 3118.59 2064.92 Q3115.65 2068.16 3109.59 2068.16 Q3107.34 2068.16 3105.35 2067.81 Q3103.36 2067.49 3101.49 2066.79 L3101.49 2062.65 Q3103.36 2063.67 3105.19 2064.15 Q3107.02 2064.64 3108.92 2064.64 Q3113.11 2064.64 3115.19 2062.44 Q3117.27 2060.26 3117.27 2055.84 L3117.27 2053.74 Q3115.95 2056.03 3113.89 2057.16 Q3111.83 2058.3 3108.96 2058.3 Q3104.19 2058.3 3101.28 2054.66 Q3098.36 2051.03 3098.36 2045.03 Q3098.36 2039.01 3101.28 2035.38 Q3104.19 2031.74 3108.96 2031.74 Q3111.83 2031.74 3113.89 2032.88 Q3115.95 2034.01 3117.27 2036.3 L3117.27 2032.37 L3121.53 2032.37 L3121.53 2055.08 Z" fill="#000000" fill-rule="nonzero" fill-opacity="1" /><path clip-path="url(#clip910)" d="M3134.42 2054.41 L3134.42 2068.16 L3130.14 2068.16 L3130.14 2032.37 L3134.42 2032.37 L3134.42 2036.3 Q3135.77 2033.99 3137.8 2032.88 Q3139.86 2031.74 3142.71 2031.74 Q3147.43 2031.74 3150.37 2035.49 Q3153.34 2039.24 3153.34 2045.36 Q3153.34 2051.47 3150.37 2055.22 Q3147.43 2058.97 3142.71 2058.97 Q3139.86 2058.97 3137.8 2057.86 Q3135.77 2056.72 3134.42 2054.41 M3148.92 2045.36 Q3148.92 2040.66 3146.97 2037.99 Q3145.05 2035.31 3141.67 2035.31 Q3138.29 2035.31 3136.35 2037.99 Q3134.42 2040.66 3134.42 2045.36 Q3134.42 2050.05 3136.35 2052.74 Q3138.29 2055.4 3141.67 2055.4 Q3145.05 2055.4 3146.97 2052.74 Q3148.92 2050.05 3148.92 2045.36 Z" fill="#000000" fill-rule="nonzero" fill-opacity="1" /><path clip-path="url(#clip910)" d="M3159.96 2048.06 L3159.96 2032.37 L3164.22 2032.37 L3164.22 2047.9 Q3164.22 2051.58 3165.65 2053.43 Q3167.09 2055.26 3169.96 2055.26 Q3173.41 2055.26 3175.4 2053.06 Q3177.41 2050.87 3177.41 2047.07 L3177.41 2032.37 L3181.67 2032.37 L3181.67 2058.3 L3177.41 2058.3 L3177.41 2054.31 Q3175.86 2056.68 3173.8 2057.83 Q3171.76 2058.97 3169.05 2058.97 Q3164.59 2058.97 3162.27 2056.19 Q3159.96 2053.41 3159.96 2048.06 M3170.67 2031.74 L3170.67 2031.74 Z" fill="#000000" fill-rule="nonzero" fill-opacity="1" /><path clip-path="url(#clip910)" d="M3191.53 2052.42 L3196.42 2052.42 L3196.42 2056.4 L3192.62 2063.8 L3189.63 2063.8 L3191.53 2056.4 L3191.53 2052.42 Z" fill="#000000" fill-rule="nonzero" fill-opacity="1" /><path clip-path="url(#clip910)" d="M3240.77 2037.35 Q3242.36 2034.48 3244.59 2033.11 Q3246.81 2031.74 3249.82 2031.74 Q3253.87 2031.74 3256.07 2034.59 Q3258.27 2037.42 3258.27 2042.65 L3258.27 2058.3 L3253.98 2058.3 L3253.98 2042.79 Q3253.98 2039.06 3252.66 2037.25 Q3251.35 2035.45 3248.64 2035.45 Q3245.33 2035.45 3243.41 2037.65 Q3241.48 2039.85 3241.48 2043.64 L3241.48 2058.3 L3237.2 2058.3 L3237.2 2042.79 Q3237.2 2039.04 3235.88 2037.25 Q3234.56 2035.45 3231.81 2035.45 Q3228.54 2035.45 3226.62 2037.67 Q3224.7 2039.87 3224.7 2043.64 L3224.7 2058.3 L3220.42 2058.3 L3220.42 2032.37 L3224.7 2032.37 L3224.7 2036.4 Q3226.16 2034.01 3228.2 2032.88 Q3230.23 2031.74 3233.04 2031.74 Q3235.86 2031.74 3237.83 2033.18 Q3239.82 2034.62 3240.77 2037.35 Z" fill="#000000" fill-rule="nonzero" fill-opacity="1" /><path clip-path="url(#clip910)" d="M3278.54 2045.26 Q3273.38 2045.26 3271.39 2046.44 Q3269.4 2047.62 3269.4 2050.47 Q3269.4 2052.74 3270.88 2054.08 Q3272.39 2055.4 3274.96 2055.4 Q3278.5 2055.4 3280.63 2052.9 Q3282.78 2050.38 3282.78 2046.21 L3282.78 2045.26 L3278.54 2045.26 M3287.04 2043.5 L3287.04 2058.3 L3282.78 2058.3 L3282.78 2054.36 Q3281.32 2056.72 3279.15 2057.86 Q3276.97 2058.97 3273.82 2058.97 Q3269.84 2058.97 3267.48 2056.74 Q3265.14 2054.5 3265.14 2050.75 Q3265.14 2046.37 3268.06 2044.15 Q3271 2041.93 3276.81 2041.93 L3282.78 2041.93 L3282.78 2041.51 Q3282.78 2038.57 3280.84 2036.98 Q3278.91 2035.36 3275.42 2035.36 Q3273.2 2035.36 3271.09 2035.89 Q3268.98 2036.42 3267.04 2037.49 L3267.04 2033.55 Q3269.38 2032.65 3271.58 2032.21 Q3273.78 2031.74 3275.86 2031.74 Q3281.48 2031.74 3284.26 2034.66 Q3287.04 2037.58 3287.04 2043.5 Z" fill="#000000" fill-rule="nonzero" fill-opacity="1" /><path clip-path="url(#clip910)" d="M3312.87 2036.3 L3312.87 2022.28 L3317.13 2022.28 L3317.13 2058.3 L3312.87 2058.3 L3312.87 2054.41 Q3311.53 2056.72 3309.47 2057.86 Q3307.43 2058.97 3304.56 2058.97 Q3299.86 2058.97 3296.9 2055.22 Q3293.96 2051.47 3293.96 2045.36 Q3293.96 2039.24 3296.9 2035.49 Q3299.86 2031.74 3304.56 2031.74 Q3307.43 2031.74 3309.47 2032.88 Q3311.53 2033.99 3312.87 2036.3 M3298.36 2045.36 Q3298.36 2050.05 3300.28 2052.74 Q3302.22 2055.4 3305.6 2055.4 Q3308.98 2055.4 3310.93 2052.74 Q3312.87 2050.05 3312.87 2045.36 Q3312.87 2040.66 3310.93 2037.99 Q3308.98 2035.31 3305.6 2035.31 Q3302.22 2035.31 3300.28 2037.99 Q3298.36 2040.66 3298.36 2045.36 Z" fill="#000000" fill-rule="nonzero" fill-opacity="1" /><path clip-path="url(#clip910)" d="M3347.46 2042.65 L3347.46 2058.3 L3343.2 2058.3 L3343.2 2042.79 Q3343.2 2039.11 3341.76 2037.28 Q3340.33 2035.45 3337.46 2035.45 Q3334.01 2035.45 3332.02 2037.65 Q3330.03 2039.85 3330.03 2043.64 L3330.03 2058.3 L3325.74 2058.3 L3325.74 2032.37 L3330.03 2032.37 L3330.03 2036.4 Q3331.55 2034.06 3333.61 2032.9 Q3335.7 2031.74 3338.41 2031.74 Q3342.87 2031.74 3345.16 2034.52 Q3347.46 2037.28 3347.46 2042.65 Z" fill="#000000" fill-rule="nonzero" fill-opacity="1" /><path clip-path="url(#clip910)" d="M3355.95 2022.28 L3360.21 2022.28 L3360.21 2058.3 L3355.95 2058.3 L3355.95 2022.28 Z" fill="#000000" fill-rule="nonzero" fill-opacity="1" /><path clip-path="url(#clip910)" d="M3373.24 2054.41 L3373.24 2068.16 L3368.96 2068.16 L3368.96 2032.37 L3373.24 2032.37 L3373.24 2036.3 Q3374.59 2033.99 3376.62 2032.88 Q3378.68 2031.74 3381.53 2031.74 Q3386.25 2031.74 3389.19 2035.49 Q3392.15 2039.24 3392.15 2045.36 Q3392.15 2051.47 3389.19 2055.22 Q3386.25 2058.97 3381.53 2058.97 Q3378.68 2058.97 3376.62 2057.86 Q3374.59 2056.72 3373.24 2054.41 M3387.73 2045.36 Q3387.73 2040.66 3385.79 2037.99 Q3383.87 2035.31 3380.49 2035.31 Q3377.11 2035.31 3375.16 2037.99 Q3373.24 2040.66 3373.24 2045.36 Q3373.24 2050.05 3375.16 2052.74 Q3377.11 2055.4 3380.49 2055.4 Q3383.87 2055.4 3385.79 2052.74 Q3387.73 2050.05 3387.73 2045.36 Z" fill="#000000" fill-rule="nonzero" fill-opacity="1" /><path clip-path="url(#clip910)" d="M3398.54 2022.32 L3402.25 2022.32 Q3405.72 2027.79 3407.43 2033.02 Q3409.17 2038.25 3409.17 2043.41 Q3409.17 2048.6 3407.43 2053.85 Q3405.72 2059.11 3402.25 2064.55 L3398.54 2064.55 Q3401.62 2059.24 3403.13 2054.01 Q3404.65 2048.76 3404.65 2043.41 Q3404.65 2038.06 3403.13 2032.86 Q3401.62 2027.65 3398.54 2022.32 Z" fill="#000000" fill-rule="nonzero" fill-opacity="1" /></svg>
