<?xml version="1.0" encoding="utf-8"?>
<svg xmlns="http://www.w3.org/2000/svg" xmlns:xlink="http://www.w3.org/1999/xlink" width="900" height="600" viewBox="0 0 3600 2400">
<defs>
  <clipPath id="clip590">
    <rect x="0" y="0" width="3600" height="2400"/>
  </clipPath>
</defs>
<path clip-path="url(#clip590)" d="M0 2400 L3600 2400 L3600 0 L0 0  Z" fill="#ffffff" fill-rule="evenodd" fill-opacity="1"/>
<defs>
  <clipPath id="clip591">
    <rect x="290" y="246" width="3264" height="1911"/>
  </clipPath>
</defs>
<path clip-path="url(#clip590)" d="M360.186 2156.51 L3552.76 2156.51 L3552.76 246.944 L360.186 246.944  Z" fill="#ffffff" fill-rule="evenodd" fill-opacity="1"/>
<defs>
  <clipPath id="clip592">
    <rect x="360" y="246" width="3194" height="1911"/>
  </clipPath>
</defs>
<polyline clip-path="url(#clip592)" style="stroke:#000000; stroke-linecap:round; stroke-linejoin:round; stroke-width:2; stroke-opacity:0.1; fill:none" points="505.303,2156.51 505.303,246.944 "/>
<polyline clip-path="url(#clip592)" style="stroke:#000000; stroke-linecap:round; stroke-linejoin:round; stroke-width:2; stroke-opacity:0.1; fill:none" points="2157.67,2156.51 2157.67,246.944 "/>
<polyline clip-path="url(#clip592)" style="stroke:#000000; stroke-linecap:round; stroke-linejoin:round; stroke-width:2; stroke-opacity:0.1; fill:none" points="3407.64,2156.51 3407.64,246.944 "/>
<polyline clip-path="url(#clip592)" style="stroke:#000000; stroke-linecap:round; stroke-linejoin:round; stroke-width:2; stroke-opacity:0.1; fill:none" points="360.186,1843.25 3552.76,1843.25 "/>
<polyline clip-path="url(#clip592)" style="stroke:#000000; stroke-linecap:round; stroke-linejoin:round; stroke-width:2; stroke-opacity:0.1; fill:none" points="360.186,1495.51 3552.76,1495.51 "/>
<polyline clip-path="url(#clip592)" style="stroke:#000000; stroke-linecap:round; stroke-linejoin:round; stroke-width:2; stroke-opacity:0.1; fill:none" points="360.186,1147.78 3552.76,1147.78 "/>
<polyline clip-path="url(#clip592)" style="stroke:#000000; stroke-linecap:round; stroke-linejoin:round; stroke-width:2; stroke-opacity:0.1; fill:none" points="360.186,800.037 3552.76,800.037 "/>
<polyline clip-path="url(#clip592)" style="stroke:#000000; stroke-linecap:round; stroke-linejoin:round; stroke-width:2; stroke-opacity:0.1; fill:none" points="360.186,452.299 3552.76,452.299 "/>
<polyline clip-path="url(#clip590)" style="stroke:#000000; stroke-linecap:round; stroke-linejoin:round; stroke-width:4; stroke-opacity:1; fill:none" points="360.186,2156.51 3552.76,2156.51 "/>
<polyline clip-path="url(#clip590)" style="stroke:#000000; stroke-linecap:round; stroke-linejoin:round; stroke-width:4; stroke-opacity:1; fill:none" points="505.303,2156.51 505.303,2137.61 "/>
<polyline clip-path="url(#clip590)" style="stroke:#000000; stroke-linecap:round; stroke-linejoin:round; stroke-width:4; stroke-opacity:1; fill:none" points="2157.67,2156.51 2157.67,2137.61 "/>
<polyline clip-path="url(#clip590)" style="stroke:#000000; stroke-linecap:round; stroke-linejoin:round; stroke-width:4; stroke-opacity:1; fill:none" points="3407.64,2156.51 3407.64,2137.61 "/>
<path clip-path="url(#clip590)" d="M468.996 2224.57 L485.315 2224.57 L485.315 2228.51 L463.371 2228.51 L463.371 2224.57 Q466.033 2221.82 470.616 2217.19 Q475.222 2212.54 476.403 2211.19 Q478.648 2208.67 479.528 2206.93 Q480.431 2205.17 480.431 2203.48 Q480.431 2200.73 478.486 2198.99 Q476.565 2197.26 473.463 2197.26 Q471.264 2197.26 468.81 2198.02 Q466.38 2198.79 463.602 2200.34 L463.602 2195.61 Q466.426 2194.48 468.88 2193.9 Q471.334 2193.32 473.371 2193.32 Q478.741 2193.32 481.935 2196.01 Q485.13 2198.69 485.13 2203.18 Q485.13 2205.31 484.32 2207.23 Q483.533 2209.13 481.426 2211.73 Q480.847 2212.4 477.746 2215.61 Q474.644 2218.81 468.996 2224.57 Z" fill="#000000" fill-rule="nonzero" fill-opacity="1" /><path clip-path="url(#clip590)" d="M505.13 2197.03 Q501.519 2197.03 499.69 2200.59 Q497.884 2204.13 497.884 2211.26 Q497.884 2218.37 499.69 2221.93 Q501.519 2225.48 505.13 2225.48 Q508.764 2225.48 510.569 2221.93 Q512.398 2218.37 512.398 2211.26 Q512.398 2204.13 510.569 2200.59 Q508.764 2197.03 505.13 2197.03 M505.13 2193.32 Q510.94 2193.32 513.995 2197.93 Q517.074 2202.51 517.074 2211.26 Q517.074 2219.99 513.995 2224.6 Q510.94 2229.18 505.13 2229.18 Q499.319 2229.18 496.241 2224.6 Q493.185 2219.99 493.185 2211.26 Q493.185 2202.51 496.241 2197.93 Q499.319 2193.32 505.13 2193.32 Z" fill="#000000" fill-rule="nonzero" fill-opacity="1" /><path clip-path="url(#clip590)" d="M535.292 2197.03 Q531.68 2197.03 529.852 2200.59 Q528.046 2204.13 528.046 2211.26 Q528.046 2218.37 529.852 2221.93 Q531.68 2225.48 535.292 2225.48 Q538.926 2225.48 540.731 2221.93 Q542.56 2218.37 542.56 2211.26 Q542.56 2204.13 540.731 2200.59 Q538.926 2197.03 535.292 2197.03 M535.292 2193.32 Q541.102 2193.32 544.157 2197.93 Q547.236 2202.51 547.236 2211.26 Q547.236 2219.99 544.157 2224.6 Q541.102 2229.18 535.292 2229.18 Q529.481 2229.18 526.403 2224.6 Q523.347 2219.99 523.347 2211.26 Q523.347 2202.51 526.403 2197.93 Q529.481 2193.32 535.292 2193.32 Z" fill="#000000" fill-rule="nonzero" fill-opacity="1" /><path clip-path="url(#clip590)" d="M2117.29 2193.95 L2135.65 2193.95 L2135.65 2197.88 L2121.57 2197.88 L2121.57 2206.36 Q2122.59 2206.01 2123.61 2205.85 Q2124.63 2205.66 2125.65 2205.66 Q2131.43 2205.66 2134.81 2208.83 Q2138.19 2212 2138.19 2217.42 Q2138.19 2223 2134.72 2226.1 Q2131.25 2229.18 2124.93 2229.18 Q2122.75 2229.18 2120.48 2228.81 Q2118.24 2228.44 2115.83 2227.7 L2115.83 2223 Q2117.91 2224.13 2120.14 2224.69 Q2122.36 2225.24 2124.84 2225.24 Q2128.84 2225.24 2131.18 2223.14 Q2133.52 2221.03 2133.52 2217.42 Q2133.52 2213.81 2131.18 2211.7 Q2128.84 2209.6 2124.84 2209.6 Q2122.96 2209.6 2121.09 2210.01 Q2119.23 2210.43 2117.29 2211.31 L2117.29 2193.95 Z" fill="#000000" fill-rule="nonzero" fill-opacity="1" /><path clip-path="url(#clip590)" d="M2157.4 2197.03 Q2153.79 2197.03 2151.97 2200.59 Q2150.16 2204.13 2150.16 2211.26 Q2150.16 2218.37 2151.97 2221.93 Q2153.79 2225.48 2157.4 2225.48 Q2161.04 2225.48 2162.84 2221.93 Q2164.67 2218.37 2164.67 2211.26 Q2164.67 2204.13 2162.84 2200.59 Q2161.04 2197.03 2157.4 2197.03 M2157.4 2193.32 Q2163.22 2193.32 2166.27 2197.93 Q2169.35 2202.51 2169.35 2211.26 Q2169.35 2219.99 2166.27 2224.6 Q2163.22 2229.18 2157.4 2229.18 Q2151.59 2229.18 2148.52 2224.6 Q2145.46 2219.99 2145.46 2211.26 Q2145.46 2202.51 2148.52 2197.93 Q2151.59 2193.32 2157.4 2193.32 Z" fill="#000000" fill-rule="nonzero" fill-opacity="1" /><path clip-path="url(#clip590)" d="M2187.57 2197.03 Q2183.96 2197.03 2182.13 2200.59 Q2180.32 2204.13 2180.32 2211.26 Q2180.32 2218.37 2182.13 2221.93 Q2183.96 2225.48 2187.57 2225.48 Q2191.2 2225.48 2193.01 2221.93 Q2194.84 2218.37 2194.84 2211.26 Q2194.84 2204.13 2193.01 2200.59 Q2191.2 2197.03 2187.57 2197.03 M2187.57 2193.32 Q2193.38 2193.32 2196.43 2197.93 Q2199.51 2202.51 2199.51 2211.26 Q2199.51 2219.99 2196.43 2224.6 Q2193.38 2229.18 2187.57 2229.18 Q2181.76 2229.18 2178.68 2224.6 Q2175.62 2219.99 2175.62 2211.26 Q2175.62 2202.51 2178.68 2197.93 Q2181.76 2193.32 2187.57 2193.32 Z" fill="#000000" fill-rule="nonzero" fill-opacity="1" /><path clip-path="url(#clip590)" d="M3352.16 2224.57 L3359.8 2224.57 L3359.8 2198.21 L3351.49 2199.87 L3351.49 2195.61 L3359.76 2193.95 L3364.43 2193.95 L3364.43 2224.57 L3372.07 2224.57 L3372.07 2228.51 L3352.16 2228.51 L3352.16 2224.57 Z" fill="#000000" fill-rule="nonzero" fill-opacity="1" /><path clip-path="url(#clip590)" d="M3391.52 2197.03 Q3387.91 2197.03 3386.08 2200.59 Q3384.27 2204.13 3384.27 2211.26 Q3384.27 2218.37 3386.08 2221.93 Q3387.91 2225.48 3391.52 2225.48 Q3395.15 2225.48 3396.96 2221.93 Q3398.78 2218.37 3398.78 2211.26 Q3398.78 2204.13 3396.96 2200.59 Q3395.15 2197.03 3391.52 2197.03 M3391.52 2193.32 Q3397.33 2193.32 3400.38 2197.93 Q3403.46 2202.51 3403.46 2211.26 Q3403.46 2219.99 3400.38 2224.6 Q3397.33 2229.18 3391.52 2229.18 Q3385.71 2229.18 3382.63 2224.6 Q3379.57 2219.99 3379.57 2211.26 Q3379.57 2202.51 3382.63 2197.93 Q3385.71 2193.32 3391.52 2193.32 Z" fill="#000000" fill-rule="nonzero" fill-opacity="1" /><path clip-path="url(#clip590)" d="M3421.68 2197.03 Q3418.07 2197.03 3416.24 2200.59 Q3414.43 2204.13 3414.43 2211.26 Q3414.43 2218.37 3416.24 2221.93 Q3418.07 2225.48 3421.68 2225.48 Q3425.31 2225.48 3427.12 2221.93 Q3428.95 2218.37 3428.95 2211.26 Q3428.95 2204.13 3427.12 2200.59 Q3425.31 2197.03 3421.68 2197.03 M3421.68 2193.32 Q3427.49 2193.32 3430.54 2197.93 Q3433.62 2202.51 3433.62 2211.26 Q3433.62 2219.99 3430.54 2224.6 Q3427.49 2229.18 3421.68 2229.18 Q3415.87 2229.18 3412.79 2224.6 Q3409.73 2219.99 3409.73 2211.26 Q3409.73 2202.51 3412.79 2197.93 Q3415.87 2193.32 3421.68 2193.32 Z" fill="#000000" fill-rule="nonzero" fill-opacity="1" /><path clip-path="url(#clip590)" d="M3451.84 2197.03 Q3448.23 2197.03 3446.4 2200.59 Q3444.59 2204.13 3444.59 2211.26 Q3444.59 2218.37 3446.4 2221.93 Q3448.23 2225.48 3451.84 2225.48 Q3455.47 2225.48 3457.28 2221.93 Q3459.11 2218.37 3459.11 2211.26 Q3459.11 2204.13 3457.28 2200.59 Q3455.47 2197.03 3451.84 2197.03 M3451.84 2193.32 Q3457.65 2193.32 3460.71 2197.93 Q3463.78 2202.51 3463.78 2211.26 Q3463.78 2219.99 3460.71 2224.6 Q3457.65 2229.18 3451.84 2229.18 Q3446.03 2229.18 3442.95 2224.6 Q3439.9 2219.99 3439.9 2211.26 Q3439.9 2202.51 3442.95 2197.93 Q3446.03 2193.32 3451.84 2193.32 Z" fill="#000000" fill-rule="nonzero" fill-opacity="1" /><path clip-path="url(#clip590)" d="M1832.35 2308.02 L1832.35 2296.42 L1822.81 2296.42 L1822.81 2291.62 L1838.14 2291.62 L1838.14 2310.17 Q1834.76 2312.57 1830.68 2313.81 Q1826.6 2315.03 1821.97 2315.03 Q1811.84 2315.03 1806.11 2309.12 Q1800.41 2303.19 1800.41 2292.63 Q1800.41 2282.04 1806.11 2276.14 Q1811.84 2270.21 1821.97 2270.21 Q1826.19 2270.21 1829.98 2271.25 Q1833.8 2272.29 1837.01 2274.32 L1837.01 2280.54 Q1833.77 2277.79 1830.13 2276.4 Q1826.48 2275.01 1822.46 2275.01 Q1814.53 2275.01 1810.54 2279.44 Q1806.57 2283.86 1806.57 2292.63 Q1806.57 2301.37 1810.54 2305.8 Q1814.53 2310.22 1822.46 2310.22 Q1825.55 2310.22 1827.99 2309.7 Q1830.42 2309.15 1832.35 2308.02 Z" fill="#000000" fill-rule="nonzero" fill-opacity="1" /><path clip-path="url(#clip590)" d="M1867.37 2286.76 Q1866.47 2286.24 1865.4 2286 Q1864.36 2285.74 1863.08 2285.74 Q1858.57 2285.74 1856.14 2288.7 Q1853.74 2291.62 1853.74 2297.12 L1853.74 2314.19 L1848.38 2314.19 L1848.38 2281.78 L1853.74 2281.78 L1853.74 2286.82 Q1855.42 2283.86 1858.11 2282.45 Q1860.8 2281 1864.65 2281 Q1865.2 2281 1865.86 2281.09 Q1866.53 2281.14 1867.34 2281.29 L1867.37 2286.76 Z" fill="#000000" fill-rule="nonzero" fill-opacity="1" /><path clip-path="url(#clip590)" d="M1872.95 2281.78 L1878.27 2281.78 L1878.27 2314.19 L1872.95 2314.19 L1872.95 2281.78 M1872.95 2269.16 L1878.27 2269.16 L1878.27 2275.91 L1872.95 2275.91 L1872.95 2269.16 Z" fill="#000000" fill-rule="nonzero" fill-opacity="1" /><path clip-path="url(#clip590)" d="M1910.74 2286.7 L1910.74 2269.16 L1916.06 2269.16 L1916.06 2314.19 L1910.74 2314.19 L1910.74 2309.33 Q1909.06 2312.22 1906.49 2313.64 Q1903.94 2315.03 1900.35 2315.03 Q1894.48 2315.03 1890.77 2310.34 Q1887.1 2305.65 1887.1 2298.01 Q1887.1 2290.37 1890.77 2285.69 Q1894.48 2281 1900.35 2281 Q1903.94 2281 1906.49 2282.42 Q1909.06 2283.81 1910.74 2286.7 M1892.6 2298.01 Q1892.6 2303.89 1895 2307.24 Q1897.43 2310.57 1901.65 2310.57 Q1905.88 2310.57 1908.31 2307.24 Q1910.74 2303.89 1910.74 2298.01 Q1910.74 2292.14 1908.31 2288.81 Q1905.88 2285.46 1901.65 2285.46 Q1897.43 2285.46 1895 2288.81 Q1892.6 2292.14 1892.6 2298.01 Z" fill="#000000" fill-rule="nonzero" fill-opacity="1" /><path clip-path="url(#clip590)" d="M1966.53 2282.74 L1966.53 2287.77 Q1964.27 2286.61 1961.84 2286.03 Q1959.41 2285.46 1956.8 2285.46 Q1952.84 2285.46 1950.84 2286.67 Q1948.88 2287.89 1948.88 2290.32 Q1948.88 2292.17 1950.29 2293.24 Q1951.71 2294.28 1955.99 2295.24 L1957.82 2295.64 Q1963.49 2296.86 1965.86 2299.08 Q1968.26 2301.28 1968.26 2305.25 Q1968.26 2309.76 1964.67 2312.39 Q1961.12 2315.03 1954.87 2315.03 Q1952.26 2315.03 1949.43 2314.51 Q1946.62 2314.01 1943.49 2313 L1943.49 2307.5 Q1946.45 2309.04 1949.31 2309.82 Q1952.17 2310.57 1954.98 2310.57 Q1958.74 2310.57 1960.77 2309.3 Q1962.79 2308 1962.79 2305.65 Q1962.79 2303.48 1961.32 2302.32 Q1959.87 2301.17 1954.92 2300.1 L1953.07 2299.66 Q1948.12 2298.62 1945.92 2296.48 Q1943.73 2294.31 1943.73 2290.55 Q1943.73 2285.98 1946.97 2283.49 Q1950.21 2281 1956.17 2281 Q1959.12 2281 1961.72 2281.43 Q1964.33 2281.87 1966.53 2282.74 Z" fill="#000000" fill-rule="nonzero" fill-opacity="1" /><path clip-path="url(#clip590)" d="M1976.74 2281.78 L1982.06 2281.78 L1982.06 2314.19 L1976.74 2314.19 L1976.74 2281.78 M1976.74 2269.16 L1982.06 2269.16 L1982.06 2275.91 L1976.74 2275.91 L1976.74 2269.16 Z" fill="#000000" fill-rule="nonzero" fill-opacity="1" /><path clip-path="url(#clip590)" d="M1990.89 2281.78 L2016.18 2281.78 L2016.18 2286.64 L1996.16 2309.93 L2016.18 2309.93 L2016.18 2314.19 L1990.17 2314.19 L1990.17 2309.33 L2010.19 2286.03 L1990.89 2286.03 L1990.89 2281.78 Z" fill="#000000" fill-rule="nonzero" fill-opacity="1" /><path clip-path="url(#clip590)" d="M2052.03 2296.65 L2052.03 2299.26 L2027.55 2299.26 Q2027.9 2304.75 2030.85 2307.65 Q2033.83 2310.51 2039.12 2310.51 Q2042.19 2310.51 2045.06 2309.76 Q2047.95 2309.01 2050.78 2307.5 L2050.78 2312.54 Q2047.92 2313.75 2044.91 2314.39 Q2041.9 2315.03 2038.81 2315.03 Q2031.05 2315.03 2026.51 2310.51 Q2021.99 2306 2021.99 2298.3 Q2021.99 2290.35 2026.28 2285.69 Q2030.59 2281 2037.88 2281 Q2044.42 2281 2048.21 2285.22 Q2052.03 2289.42 2052.03 2296.65 M2046.71 2295.09 Q2046.65 2290.72 2044.25 2288.12 Q2041.87 2285.51 2037.94 2285.51 Q2033.48 2285.51 2030.79 2288.03 Q2028.13 2290.55 2027.72 2295.12 L2046.71 2295.09 Z" fill="#000000" fill-rule="nonzero" fill-opacity="1" /><path clip-path="url(#clip590)" d="M2079.84 2270.99 L2087.71 2270.99 L2106.86 2307.13 L2106.86 2270.99 L2112.53 2270.99 L2112.53 2314.19 L2104.66 2314.19 L2085.51 2278.05 L2085.51 2314.19 L2079.84 2314.19 L2079.84 2270.99 Z" fill="#000000" fill-rule="nonzero" fill-opacity="1" /><polyline clip-path="url(#clip590)" style="stroke:#000000; stroke-linecap:round; stroke-linejoin:round; stroke-width:4; stroke-opacity:1; fill:none" points="360.186,2156.51 360.186,246.944 "/>
<polyline clip-path="url(#clip590)" style="stroke:#000000; stroke-linecap:round; stroke-linejoin:round; stroke-width:4; stroke-opacity:1; fill:none" points="360.186,1843.25 379.084,1843.25 "/>
<polyline clip-path="url(#clip590)" style="stroke:#000000; stroke-linecap:round; stroke-linejoin:round; stroke-width:4; stroke-opacity:1; fill:none" points="360.186,1495.51 379.084,1495.51 "/>
<polyline clip-path="url(#clip590)" style="stroke:#000000; stroke-linecap:round; stroke-linejoin:round; stroke-width:4; stroke-opacity:1; fill:none" points="360.186,1147.78 379.084,1147.78 "/>
<polyline clip-path="url(#clip590)" style="stroke:#000000; stroke-linecap:round; stroke-linejoin:round; stroke-width:4; stroke-opacity:1; fill:none" points="360.186,800.037 379.084,800.037 "/>
<polyline clip-path="url(#clip590)" style="stroke:#000000; stroke-linecap:round; stroke-linejoin:round; stroke-width:4; stroke-opacity:1; fill:none" points="360.186,452.299 379.084,452.299 "/>
<path clip-path="url(#clip590)" d="M167.604 1863.04 L175.242 1863.04 L175.242 1836.68 L166.932 1838.35 L166.932 1834.09 L175.196 1832.42 L179.872 1832.42 L179.872 1863.04 L187.511 1863.04 L187.511 1866.98 L167.604 1866.98 L167.604 1863.04 Z" fill="#000000" fill-rule="nonzero" fill-opacity="1" /><path clip-path="url(#clip590)" d="M206.955 1835.5 Q203.344 1835.5 201.515 1839.06 Q199.71 1842.6 199.71 1849.73 Q199.71 1856.84 201.515 1860.41 Q203.344 1863.95 206.955 1863.95 Q210.589 1863.95 212.395 1860.41 Q214.224 1856.84 214.224 1849.73 Q214.224 1842.6 212.395 1839.06 Q210.589 1835.5 206.955 1835.5 M206.955 1831.79 Q212.765 1831.79 215.821 1836.4 Q218.9 1840.98 218.9 1849.73 Q218.9 1858.46 215.821 1863.07 Q212.765 1867.65 206.955 1867.65 Q201.145 1867.65 198.066 1863.07 Q195.011 1858.46 195.011 1849.73 Q195.011 1840.98 198.066 1836.4 Q201.145 1831.79 206.955 1831.79 Z" fill="#000000" fill-rule="nonzero" fill-opacity="1" /><path clip-path="url(#clip590)" d="M218.9 1825.9 L243.011 1825.9 L243.011 1829.09 L218.9 1829.09 L218.9 1825.9 Z" fill="#000000" fill-rule="nonzero" fill-opacity="1" /><path clip-path="url(#clip590)" d="M254.484 1836.37 L267.743 1836.37 L267.743 1839.57 L249.914 1839.57 L249.914 1836.37 Q252.077 1834.13 255.8 1830.37 Q259.543 1826.59 260.502 1825.5 Q262.327 1823.45 263.041 1822.04 Q263.775 1820.61 263.775 1819.24 Q263.775 1817 262.195 1815.59 Q260.634 1814.18 258.114 1814.18 Q256.327 1814.18 254.333 1814.8 Q252.359 1815.42 250.102 1816.68 L250.102 1812.84 Q252.396 1811.92 254.39 1811.45 Q256.383 1810.98 258.039 1810.98 Q262.402 1810.98 264.997 1813.16 Q267.593 1815.34 267.593 1818.99 Q267.593 1820.72 266.935 1822.28 Q266.295 1823.83 264.584 1825.93 Q264.113 1826.48 261.593 1829.09 Q259.073 1831.69 254.484 1836.37 Z" fill="#000000" fill-rule="nonzero" fill-opacity="1" /><path clip-path="url(#clip590)" d="M275.718 1834.79 L279.686 1834.79 L279.686 1839.57 L275.718 1839.57 L275.718 1834.79 Z" fill="#000000" fill-rule="nonzero" fill-opacity="1" /><path clip-path="url(#clip590)" d="M298.4 1814.8 L288.808 1829.79 L298.4 1829.79 L298.4 1814.8 M297.403 1811.49 L302.18 1811.49 L302.18 1829.79 L306.186 1829.79 L306.186 1832.95 L302.18 1832.95 L302.18 1839.57 L298.4 1839.57 L298.4 1832.95 L285.724 1832.95 L285.724 1829.28 L297.403 1811.49 Z" fill="#000000" fill-rule="nonzero" fill-opacity="1" /><path clip-path="url(#clip590)" d="M169.296 1515.31 L176.935 1515.31 L176.935 1488.94 L168.625 1490.61 L168.625 1486.35 L176.889 1484.68 L181.565 1484.68 L181.565 1515.31 L189.204 1515.31 L189.204 1519.24 L169.296 1519.24 L169.296 1515.31 Z" fill="#000000" fill-rule="nonzero" fill-opacity="1" /><path clip-path="url(#clip590)" d="M208.648 1487.76 Q205.037 1487.76 203.208 1491.32 Q201.403 1494.87 201.403 1502 Q201.403 1509.1 203.208 1512.67 Q205.037 1516.21 208.648 1516.21 Q212.282 1516.21 214.088 1512.67 Q215.916 1509.1 215.916 1502 Q215.916 1494.87 214.088 1491.32 Q212.282 1487.76 208.648 1487.76 M208.648 1484.06 Q214.458 1484.06 217.514 1488.66 Q220.592 1493.25 220.592 1502 Q220.592 1510.72 217.514 1515.33 Q214.458 1519.91 208.648 1519.91 Q202.838 1519.91 199.759 1515.33 Q196.704 1510.72 196.704 1502 Q196.704 1493.25 199.759 1488.66 Q202.838 1484.06 208.648 1484.06 Z" fill="#000000" fill-rule="nonzero" fill-opacity="1" /><path clip-path="url(#clip590)" d="M220.592 1478.16 L244.704 1478.16 L244.704 1481.35 L220.592 1481.35 L220.592 1478.16 Z" fill="#000000" fill-rule="nonzero" fill-opacity="1" /><path clip-path="url(#clip590)" d="M256.177 1488.63 L269.436 1488.63 L269.436 1491.83 L251.606 1491.83 L251.606 1488.63 Q253.769 1486.4 257.493 1482.63 Q261.236 1478.85 262.195 1477.76 Q264.019 1475.71 264.734 1474.3 Q265.468 1472.87 265.468 1471.5 Q265.468 1469.26 263.888 1467.85 Q262.327 1466.44 259.806 1466.44 Q258.02 1466.44 256.026 1467.06 Q254.051 1467.68 251.794 1468.94 L251.794 1465.1 Q254.089 1464.18 256.083 1463.71 Q258.076 1463.24 259.731 1463.24 Q264.095 1463.24 266.69 1465.42 Q269.286 1467.61 269.286 1471.25 Q269.286 1472.99 268.627 1474.55 Q267.988 1476.09 266.276 1478.2 Q265.806 1478.74 263.286 1481.35 Q260.766 1483.95 256.177 1488.63 Z" fill="#000000" fill-rule="nonzero" fill-opacity="1" /><path clip-path="url(#clip590)" d="M277.411 1487.05 L281.379 1487.05 L281.379 1491.83 L277.411 1491.83 L277.411 1487.05 Z" fill="#000000" fill-rule="nonzero" fill-opacity="1" /><path clip-path="url(#clip590)" d="M292.927 1488.63 L306.186 1488.63 L306.186 1491.83 L288.357 1491.83 L288.357 1488.63 Q290.52 1486.4 294.244 1482.63 Q297.986 1478.85 298.945 1477.76 Q300.77 1475.71 301.485 1474.3 Q302.218 1472.87 302.218 1471.5 Q302.218 1469.26 300.638 1467.85 Q299.077 1466.44 296.557 1466.44 Q294.77 1466.44 292.777 1467.06 Q290.802 1467.68 288.545 1468.94 L288.545 1465.1 Q290.839 1464.18 292.833 1463.71 Q294.827 1463.24 296.482 1463.24 Q300.845 1463.24 303.441 1465.42 Q306.036 1467.61 306.036 1471.25 Q306.036 1472.99 305.378 1474.55 Q304.738 1476.09 303.027 1478.2 Q302.557 1478.74 300.036 1481.35 Q297.516 1483.95 292.927 1488.63 Z" fill="#000000" fill-rule="nonzero" fill-opacity="1" /><path clip-path="url(#clip590)" d="M167.999 1167.57 L175.637 1167.57 L175.637 1141.2 L167.327 1142.87 L167.327 1138.61 L175.591 1136.94 L180.267 1136.94 L180.267 1167.57 L187.906 1167.57 L187.906 1171.5 L167.999 1171.5 L167.999 1167.57 Z" fill="#000000" fill-rule="nonzero" fill-opacity="1" /><path clip-path="url(#clip590)" d="M207.35 1140.02 Q203.739 1140.02 201.91 1143.59 Q200.105 1147.13 200.105 1154.26 Q200.105 1161.36 201.91 1164.93 Q203.739 1168.47 207.35 1168.47 Q210.984 1168.47 212.79 1164.93 Q214.619 1161.36 214.619 1154.26 Q214.619 1147.13 212.79 1143.59 Q210.984 1140.02 207.35 1140.02 M207.35 1136.32 Q213.16 1136.32 216.216 1140.92 Q219.295 1145.51 219.295 1154.26 Q219.295 1162.98 216.216 1167.59 Q213.16 1172.17 207.35 1172.17 Q201.54 1172.17 198.461 1167.59 Q195.406 1162.98 195.406 1154.26 Q195.406 1145.51 198.461 1140.92 Q201.54 1136.32 207.35 1136.32 Z" fill="#000000" fill-rule="nonzero" fill-opacity="1" /><path clip-path="url(#clip590)" d="M219.295 1130.42 L243.406 1130.42 L243.406 1133.62 L219.295 1133.62 L219.295 1130.42 Z" fill="#000000" fill-rule="nonzero" fill-opacity="1" /><path clip-path="url(#clip590)" d="M254.879 1140.9 L268.138 1140.9 L268.138 1144.09 L250.309 1144.09 L250.309 1140.9 Q252.471 1138.66 256.195 1134.9 Q259.938 1131.12 260.897 1130.02 Q262.722 1127.97 263.436 1126.56 Q264.17 1125.13 264.17 1123.76 Q264.17 1121.52 262.59 1120.11 Q261.029 1118.7 258.509 1118.7 Q256.722 1118.7 254.728 1119.32 Q252.754 1119.94 250.497 1121.2 L250.497 1117.37 Q252.791 1116.44 254.785 1115.97 Q256.778 1115.5 258.434 1115.5 Q262.797 1115.5 265.392 1117.69 Q267.988 1119.87 267.988 1123.52 Q267.988 1125.25 267.33 1126.81 Q266.69 1128.35 264.979 1130.46 Q264.508 1131 261.988 1133.62 Q259.468 1136.21 254.879 1140.9 Z" fill="#000000" fill-rule="nonzero" fill-opacity="1" /><path clip-path="url(#clip590)" d="M276.113 1139.32 L280.081 1139.32 L280.081 1144.09 L276.113 1144.09 L276.113 1139.32 Z" fill="#000000" fill-rule="nonzero" fill-opacity="1" /><path clip-path="url(#clip590)" d="M296.482 1118.51 Q293.548 1118.51 292.062 1121.41 Q290.595 1124.29 290.595 1130.08 Q290.595 1135.85 292.062 1138.75 Q293.548 1141.63 296.482 1141.63 Q299.434 1141.63 300.901 1138.75 Q302.387 1135.85 302.387 1130.08 Q302.387 1124.29 300.901 1121.41 Q299.434 1118.51 296.482 1118.51 M296.482 1115.5 Q301.202 1115.5 303.685 1119.25 Q306.186 1122.97 306.186 1130.08 Q306.186 1137.17 303.685 1140.91 Q301.202 1144.64 296.482 1144.64 Q291.761 1144.64 289.259 1140.91 Q286.777 1137.17 286.777 1130.08 Q286.777 1122.97 289.259 1119.25 Q291.761 1115.5 296.482 1115.5 Z" fill="#000000" fill-rule="nonzero" fill-opacity="1" /><path clip-path="url(#clip590)" d="M168.074 819.829 L175.713 819.829 L175.713 793.464 L167.402 795.13 L167.402 790.871 L175.666 789.205 L180.342 789.205 L180.342 819.829 L187.981 819.829 L187.981 823.765 L168.074 823.765 L168.074 819.829 Z" fill="#000000" fill-rule="nonzero" fill-opacity="1" /><path clip-path="url(#clip590)" d="M207.425 792.283 Q203.814 792.283 201.986 795.848 Q200.18 799.39 200.18 806.519 Q200.18 813.626 201.986 817.19 Q203.814 820.732 207.425 820.732 Q211.06 820.732 212.865 817.19 Q214.694 813.626 214.694 806.519 Q214.694 799.39 212.865 795.848 Q211.06 792.283 207.425 792.283 M207.425 788.58 Q213.236 788.58 216.291 793.186 Q219.37 797.769 219.37 806.519 Q219.37 815.246 216.291 819.853 Q213.236 824.436 207.425 824.436 Q201.615 824.436 198.537 819.853 Q195.481 815.246 195.481 806.519 Q195.481 797.769 198.537 793.186 Q201.615 788.58 207.425 788.58 Z" fill="#000000" fill-rule="nonzero" fill-opacity="1" /><path clip-path="url(#clip590)" d="M219.37 782.681 L243.481 782.681 L243.481 785.878 L219.37 785.878 L219.37 782.681 Z" fill="#000000" fill-rule="nonzero" fill-opacity="1" /><path clip-path="url(#clip590)" d="M252.34 793.157 L258.546 793.157 L258.546 771.735 L251.794 773.089 L251.794 769.628 L258.509 768.274 L262.308 768.274 L262.308 793.157 L268.514 793.157 L268.514 796.354 L252.34 796.354 L252.34 793.157 Z" fill="#000000" fill-rule="nonzero" fill-opacity="1" /><path clip-path="url(#clip590)" d="M276.188 791.577 L280.157 791.577 L280.157 796.354 L276.188 796.354 L276.188 791.577 Z" fill="#000000" fill-rule="nonzero" fill-opacity="1" /><path clip-path="url(#clip590)" d="M296.557 783.019 Q293.849 783.019 292.288 784.468 Q290.745 785.916 290.745 788.455 Q290.745 790.994 292.288 792.442 Q293.849 793.89 296.557 793.89 Q299.265 793.89 300.826 792.442 Q302.387 790.975 302.387 788.455 Q302.387 785.916 300.826 784.468 Q299.284 783.019 296.557 783.019 M292.758 781.402 Q290.313 780.8 288.94 779.126 Q287.586 777.452 287.586 775.045 Q287.586 771.678 289.974 769.722 Q292.382 767.766 296.557 767.766 Q300.751 767.766 303.14 769.722 Q305.528 771.678 305.528 775.045 Q305.528 777.452 304.155 779.126 Q302.801 780.8 300.375 781.402 Q303.121 782.041 304.644 783.903 Q306.186 785.765 306.186 788.455 Q306.186 792.536 303.685 794.718 Q301.202 796.9 296.557 796.9 Q291.911 796.9 289.41 794.718 Q286.927 792.536 286.927 788.455 Q286.927 785.765 288.47 783.903 Q290.012 782.041 292.758 781.402 M291.366 775.402 Q291.366 777.584 292.72 778.806 Q294.093 780.029 296.557 780.029 Q299.002 780.029 300.375 778.806 Q301.767 777.584 301.767 775.402 Q301.767 773.221 300.375 771.998 Q299.002 770.776 296.557 770.776 Q294.093 770.776 292.72 771.998 Q291.366 773.221 291.366 775.402 Z" fill="#000000" fill-rule="nonzero" fill-opacity="1" /><path clip-path="url(#clip590)" d="M167.867 472.091 L175.506 472.091 L175.506 445.725 L167.196 447.392 L167.196 443.133 L175.459 441.466 L180.135 441.466 L180.135 472.091 L187.774 472.091 L187.774 476.026 L167.867 476.026 L167.867 472.091 Z" fill="#000000" fill-rule="nonzero" fill-opacity="1" /><path clip-path="url(#clip590)" d="M207.219 444.545 Q203.607 444.545 201.779 448.11 Q199.973 451.651 199.973 458.781 Q199.973 465.887 201.779 469.452 Q203.607 472.994 207.219 472.994 Q210.853 472.994 212.658 469.452 Q214.487 465.887 214.487 458.781 Q214.487 451.651 212.658 448.11 Q210.853 444.545 207.219 444.545 M207.219 440.841 Q213.029 440.841 216.084 445.448 Q219.163 450.031 219.163 458.781 Q219.163 467.508 216.084 472.114 Q213.029 476.698 207.219 476.698 Q201.408 476.698 198.33 472.114 Q195.274 467.508 195.274 458.781 Q195.274 450.031 198.33 445.448 Q201.408 440.841 207.219 440.841 Z" fill="#000000" fill-rule="nonzero" fill-opacity="1" /><path clip-path="url(#clip590)" d="M219.163 434.943 L243.274 434.943 L243.274 438.14 L219.163 438.14 L219.163 434.943 Z" fill="#000000" fill-rule="nonzero" fill-opacity="1" /><path clip-path="url(#clip590)" d="M252.133 445.419 L258.339 445.419 L258.339 423.996 L251.588 425.351 L251.588 421.89 L258.302 420.536 L262.101 420.536 L262.101 445.419 L268.308 445.419 L268.308 448.616 L252.133 448.616 L252.133 445.419 Z" fill="#000000" fill-rule="nonzero" fill-opacity="1" /><path clip-path="url(#clip590)" d="M275.981 443.839 L279.95 443.839 L279.95 448.616 L275.981 448.616 L275.981 443.839 Z" fill="#000000" fill-rule="nonzero" fill-opacity="1" /><path clip-path="url(#clip590)" d="M296.82 433.062 Q294.262 433.062 292.758 434.811 Q291.272 436.56 291.272 439.607 Q291.272 442.635 292.758 444.403 Q294.262 446.152 296.82 446.152 Q299.378 446.152 300.864 444.403 Q302.368 442.635 302.368 439.607 Q302.368 436.56 300.864 434.811 Q299.378 433.062 296.82 433.062 M304.362 421.157 L304.362 424.617 Q302.933 423.94 301.466 423.583 Q300.018 423.225 298.588 423.225 Q294.827 423.225 292.833 425.764 Q290.858 428.303 290.576 433.438 Q291.686 431.802 293.36 430.937 Q295.033 430.053 297.046 430.053 Q301.278 430.053 303.723 432.629 Q306.186 435.187 306.186 439.607 Q306.186 443.933 303.629 446.547 Q301.071 449.161 296.82 449.161 Q291.949 449.161 289.372 445.437 Q286.796 441.695 286.796 434.604 Q286.796 427.946 289.955 423.996 Q293.115 420.028 298.438 420.028 Q299.867 420.028 301.315 420.31 Q302.782 420.592 304.362 421.157 Z" fill="#000000" fill-rule="nonzero" fill-opacity="1" /><path clip-path="url(#clip590)" d="M58.1901 1374.69 L63.8903 1374.69 Q62.2989 1378.01 61.5176 1380.96 Q60.7364 1383.92 60.7364 1386.66 Q60.7364 1391.44 62.5882 1394.04 Q64.4401 1396.62 67.8544 1396.62 Q70.719 1396.62 72.1947 1394.91 Q73.6414 1393.17 74.5384 1388.37 L75.2618 1384.84 Q76.506 1378.3 79.6599 1375.21 Q82.7849 1372.08 88.0511 1372.08 Q94.33 1372.08 97.5707 1376.31 Q100.811 1380.5 100.811 1388.63 Q100.811 1391.7 100.117 1395.17 Q99.4225 1398.61 98.0626 1402.32 L92.0441 1402.32 Q94.0406 1398.76 95.0533 1395.34 Q96.0661 1391.93 96.0661 1388.63 Q96.0661 1383.63 94.0985 1380.91 Q92.1309 1378.19 88.4851 1378.19 Q85.3022 1378.19 83.5083 1380.15 Q81.7143 1382.09 80.8173 1386.55 L80.1229 1390.11 Q78.8208 1396.65 76.043 1399.57 Q73.2653 1402.49 68.3174 1402.49 Q62.5882 1402.49 59.2896 1398.47 Q55.991 1394.42 55.991 1387.33 Q55.991 1384.29 56.5408 1381.14 Q57.0906 1377.98 58.1901 1374.69 Z" fill="#000000" fill-rule="nonzero" fill-opacity="1" /><path clip-path="url(#clip590)" d="M71.2977 1350.64 Q71.2977 1354.92 74.6541 1357.41 Q77.9817 1359.9 83.7976 1359.9 Q89.6135 1359.9 92.97 1357.44 Q96.2975 1354.95 96.2975 1350.64 Q96.2975 1346.39 92.9411 1343.9 Q89.5846 1341.41 83.7976 1341.41 Q78.0395 1341.41 74.6831 1343.9 Q71.2977 1346.39 71.2977 1350.64 M66.7838 1350.64 Q66.7838 1343.7 71.2977 1339.73 Q75.8115 1335.77 83.7976 1335.77 Q91.7547 1335.77 96.2975 1339.73 Q100.811 1343.7 100.811 1350.64 Q100.811 1357.61 96.2975 1361.58 Q91.7547 1365.51 83.7976 1365.51 Q75.8115 1365.51 71.2977 1361.58 Q66.7838 1357.61 66.7838 1350.64 Z" fill="#000000" fill-rule="nonzero" fill-opacity="1" /><path clip-path="url(#clip590)" d="M54.9494 1326.94 L54.9494 1321.62 L99.9723 1321.62 L99.9723 1326.94 L54.9494 1326.94 Z" fill="#000000" fill-rule="nonzero" fill-opacity="1" /><path clip-path="url(#clip590)" d="M67.565 1314.3 L67.565 1308.66 L94.764 1298.53 L67.565 1288.4 L67.565 1282.76 L99.9723 1294.91 L99.9723 1302.15 L67.565 1314.3 Z" fill="#000000" fill-rule="nonzero" fill-opacity="1" /><path clip-path="url(#clip590)" d="M82.4377 1247.69 L85.0418 1247.69 L85.0418 1272.17 Q90.5395 1271.82 93.433 1268.87 Q96.2975 1265.89 96.2975 1260.59 Q96.2975 1257.53 95.5452 1254.66 Q94.7929 1251.77 93.2883 1248.93 L98.323 1248.93 Q99.5383 1251.8 100.175 1254.81 Q100.811 1257.82 100.811 1260.91 Q100.811 1268.67 96.2975 1273.21 Q91.7837 1277.72 84.087 1277.72 Q76.1298 1277.72 71.4713 1273.44 Q66.7838 1269.13 66.7838 1261.84 Q66.7838 1255.3 71.0083 1251.51 Q75.2039 1247.69 82.4377 1247.69 M80.8752 1253.01 Q76.506 1253.07 73.9018 1255.47 Q71.2977 1257.85 71.2977 1261.78 Q71.2977 1266.24 73.815 1268.93 Q76.3324 1271.59 80.9041 1271.99 L80.8752 1253.01 Z" fill="#000000" fill-rule="nonzero" fill-opacity="1" /><path clip-path="url(#clip590)" d="M58.3637 1214.85 L67.565 1214.85 L67.565 1203.88 L71.7028 1203.88 L71.7028 1214.85 L89.2953 1214.85 Q93.2594 1214.85 94.3878 1213.78 Q95.5163 1212.68 95.5163 1209.35 L95.5163 1203.88 L99.9723 1203.88 L99.9723 1209.35 Q99.9723 1215.51 97.6864 1217.86 Q95.3716 1220.2 89.2953 1220.2 L71.7028 1220.2 L71.7028 1224.11 L67.565 1224.11 L67.565 1220.2 L58.3637 1220.2 L58.3637 1214.85 Z" fill="#000000" fill-rule="nonzero" fill-opacity="1" /><path clip-path="url(#clip590)" d="M67.565 1196.88 L67.565 1191.56 L99.9723 1191.56 L99.9723 1196.88 L67.565 1196.88 M54.9494 1196.88 L54.9494 1191.56 L61.6912 1191.56 L61.6912 1196.88 L54.9494 1196.88 Z" fill="#000000" fill-rule="nonzero" fill-opacity="1" /><path clip-path="url(#clip590)" d="M73.7861 1155.18 Q70.1981 1153.19 68.491 1150.41 Q66.7838 1147.63 66.7838 1143.87 Q66.7838 1138.81 70.3428 1136.06 Q73.8729 1133.31 80.4122 1133.31 L99.9723 1133.31 L99.9723 1138.66 L80.5858 1138.66 Q75.9273 1138.66 73.6703 1140.31 Q71.4134 1141.96 71.4134 1145.35 Q71.4134 1149.48 74.1622 1151.89 Q76.9111 1154.29 81.6564 1154.29 L99.9723 1154.29 L99.9723 1159.64 L80.5858 1159.64 Q75.8983 1159.64 73.6703 1161.29 Q71.4134 1162.94 71.4134 1166.38 Q71.4134 1170.46 74.1912 1172.86 Q76.94 1175.26 81.6564 1175.26 L99.9723 1175.26 L99.9723 1180.62 L67.565 1180.62 L67.565 1175.26 L72.5997 1175.26 Q69.6194 1173.44 68.2016 1170.9 Q66.7838 1168.35 66.7838 1164.85 Q66.7838 1161.32 68.5778 1158.86 Q70.3717 1156.37 73.7861 1155.18 Z" fill="#000000" fill-rule="nonzero" fill-opacity="1" /><path clip-path="url(#clip590)" d="M82.4377 1094.97 L85.0418 1094.97 L85.0418 1119.45 Q90.5395 1119.1 93.433 1116.15 Q96.2975 1113.17 96.2975 1107.88 Q96.2975 1104.81 95.5452 1101.94 Q94.7929 1099.05 93.2883 1096.21 L98.323 1096.21 Q99.5383 1099.08 100.175 1102.09 Q100.811 1105.1 100.811 1108.19 Q100.811 1115.95 96.2975 1120.49 Q91.7837 1125 84.087 1125 Q76.1298 1125 71.4713 1120.72 Q66.7838 1116.41 66.7838 1109.12 Q66.7838 1102.58 71.0083 1098.79 Q75.2039 1094.97 82.4377 1094.97 M80.8752 1100.29 Q76.506 1100.35 73.9018 1102.75 Q71.2977 1105.13 71.2977 1109.06 Q71.2977 1113.52 73.815 1116.21 Q76.3324 1118.87 80.9041 1119.28 L80.8752 1100.29 Z" fill="#000000" fill-rule="nonzero" fill-opacity="1" /><path clip-path="url(#clip590)" d="M55.0072 1054.61 Q61.6623 1058.48 68.1727 1060.36 Q74.6831 1062.24 81.3671 1062.24 Q88.0511 1062.24 94.6193 1060.36 Q101.159 1058.45 107.785 1054.61 L107.785 1059.24 Q100.985 1063.58 94.4168 1065.75 Q87.8485 1067.89 81.3671 1067.89 Q74.9145 1067.89 68.3752 1065.75 Q61.8359 1063.6 55.0072 1059.24 L55.0072 1054.61 Z" fill="#000000" fill-rule="nonzero" fill-opacity="1" /><path clip-path="url(#clip590)" d="M68.5199 1023.62 L73.5546 1023.62 Q72.3972 1025.87 71.8185 1028.3 Q71.2398 1030.73 71.2398 1033.34 Q71.2398 1037.3 72.4551 1039.3 Q73.6703 1041.27 76.1009 1041.27 Q77.9527 1041.27 79.0233 1039.85 Q80.065 1038.43 81.0198 1034.15 L81.4249 1032.33 Q82.6402 1026.65 84.8682 1024.28 Q87.0673 1021.88 91.0314 1021.88 Q95.5452 1021.88 98.1783 1025.47 Q100.811 1029.03 100.811 1035.28 Q100.811 1037.88 100.291 1040.72 Q99.7987 1043.52 98.7859 1046.65 L93.2883 1046.65 Q94.8218 1043.7 95.6031 1040.83 Q96.3554 1037.97 96.3554 1035.16 Q96.3554 1031.4 95.0823 1029.37 Q93.7802 1027.35 91.4364 1027.35 Q89.2663 1027.35 88.1089 1028.82 Q86.9515 1030.27 85.8809 1035.22 L85.4469 1037.07 Q84.4052 1042.02 82.264 1044.22 Q80.0939 1046.42 76.3324 1046.42 Q71.7606 1046.42 69.2722 1043.18 Q66.7838 1039.94 66.7838 1033.98 Q66.7838 1031.02 67.2178 1028.42 Q67.6519 1025.82 68.5199 1023.62 Z" fill="#000000" fill-rule="nonzero" fill-opacity="1" /><path clip-path="url(#clip590)" d="M55.0072 1014.24 L55.0072 1009.61 Q61.8359 1005.27 68.3752 1003.13 Q74.9145 1000.96 81.3671 1000.96 Q87.8485 1000.96 94.4168 1003.13 Q100.985 1005.27 107.785 1009.61 L107.785 1014.24 Q101.159 1010.39 94.6193 1008.51 Q88.0511 1006.6 81.3671 1006.6 Q74.6831 1006.6 68.1727 1008.51 Q61.6623 1010.39 55.0072 1014.24 Z" fill="#000000" fill-rule="nonzero" fill-opacity="1" /><path clip-path="url(#clip590)" d="M1258.18 125.969 L1258.18 133.949 Q1253.52 131.721 1249.39 130.627 Q1245.25 129.534 1241.41 129.534 Q1234.72 129.534 1231.08 132.126 Q1227.47 134.719 1227.47 139.499 Q1227.47 143.509 1229.86 145.575 Q1232.29 147.601 1239.02 148.857 L1243.96 149.869 Q1253.11 151.611 1257.45 156.027 Q1261.82 160.402 1261.82 167.774 Q1261.82 176.565 1255.91 181.102 Q1250.03 185.639 1238.65 185.639 Q1234.36 185.639 1229.5 184.667 Q1224.68 183.694 1219.49 181.79 L1219.49 173.365 Q1224.47 176.16 1229.25 177.577 Q1234.03 178.995 1238.65 178.995 Q1245.66 178.995 1249.47 176.241 Q1253.27 173.486 1253.27 168.382 Q1253.27 163.926 1250.52 161.414 Q1247.81 158.903 1241.57 157.647 L1236.58 156.675 Q1227.43 154.852 1223.34 150.963 Q1219.25 147.074 1219.25 140.147 Q1219.25 132.126 1224.88 127.508 Q1230.55 122.89 1240.47 122.89 Q1244.73 122.89 1249.14 123.66 Q1253.56 124.43 1258.18 125.969 Z" fill="#000000" fill-rule="nonzero" fill-opacity="1" /><path clip-path="url(#clip590)" d="M1291.84 144.32 Q1285.84 144.32 1282.36 149.019 Q1278.88 153.677 1278.88 161.819 Q1278.88 169.962 1282.32 174.661 Q1285.8 179.319 1291.84 179.319 Q1297.79 179.319 1301.28 174.62 Q1304.76 169.921 1304.76 161.819 Q1304.76 153.758 1301.28 149.059 Q1297.79 144.32 1291.84 144.32 M1291.84 138 Q1301.56 138 1307.11 144.32 Q1312.66 150.639 1312.66 161.819 Q1312.66 172.959 1307.11 179.319 Q1301.56 185.639 1291.84 185.639 Q1282.08 185.639 1276.53 179.319 Q1271.02 172.959 1271.02 161.819 Q1271.02 150.639 1276.53 144.32 Q1282.08 138 1291.84 138 Z" fill="#000000" fill-rule="nonzero" fill-opacity="1" /><path clip-path="url(#clip590)" d="M1325.02 121.432 L1332.47 121.432 L1332.47 184.464 L1325.02 184.464 L1325.02 121.432 Z" fill="#000000" fill-rule="nonzero" fill-opacity="1" /><path clip-path="url(#clip590)" d="M1342.72 139.094 L1350.62 139.094 L1364.8 177.172 L1378.97 139.094 L1386.87 139.094 L1369.86 184.464 L1359.73 184.464 L1342.72 139.094 Z" fill="#000000" fill-rule="nonzero" fill-opacity="1" /><path clip-path="url(#clip590)" d="M1435.97 159.916 L1435.97 163.561 L1401.7 163.561 Q1402.19 171.258 1406.32 175.309 Q1410.49 179.319 1417.9 179.319 Q1422.2 179.319 1426.21 178.266 Q1430.26 177.213 1434.23 175.106 L1434.23 182.155 Q1430.22 183.856 1426.01 184.748 Q1421.79 185.639 1417.46 185.639 Q1406.6 185.639 1400.24 179.319 Q1393.92 173 1393.92 162.225 Q1393.92 151.085 1399.92 144.563 Q1405.95 138 1416.16 138 Q1425.32 138 1430.62 143.914 Q1435.97 149.788 1435.97 159.916 M1428.52 157.728 Q1428.44 151.611 1425.07 147.965 Q1421.75 144.32 1416.24 144.32 Q1410 144.32 1406.24 147.844 Q1402.51 151.368 1401.94 157.769 L1428.52 157.728 Z" fill="#000000" fill-rule="nonzero" fill-opacity="1" /><path clip-path="url(#clip590)" d="M1481.95 126.212 L1481.95 139.094 L1497.3 139.094 L1497.3 144.887 L1481.95 144.887 L1481.95 169.516 Q1481.95 175.066 1483.45 176.646 Q1484.99 178.226 1489.64 178.226 L1497.3 178.226 L1497.3 184.464 L1489.64 184.464 Q1481.02 184.464 1477.74 181.264 Q1474.45 178.023 1474.45 169.516 L1474.45 144.887 L1468.99 144.887 L1468.99 139.094 L1474.45 139.094 L1474.45 126.212 L1481.95 126.212 Z" fill="#000000" fill-rule="nonzero" fill-opacity="1" /><path clip-path="url(#clip590)" d="M1507.1 139.094 L1514.56 139.094 L1514.56 184.464 L1507.1 184.464 L1507.1 139.094 M1507.1 121.432 L1514.56 121.432 L1514.56 130.871 L1507.1 130.871 L1507.1 121.432 Z" fill="#000000" fill-rule="nonzero" fill-opacity="1" /><path clip-path="url(#clip590)" d="M1565.48 147.803 Q1568.27 142.78 1572.16 140.39 Q1576.05 138 1581.32 138 Q1588.41 138 1592.25 142.983 Q1596.1 147.925 1596.1 157.08 L1596.1 184.464 L1588.61 184.464 L1588.61 157.323 Q1588.61 150.801 1586.3 147.641 Q1583.99 144.482 1579.25 144.482 Q1573.46 144.482 1570.1 148.33 Q1566.73 152.178 1566.73 158.822 L1566.73 184.464 L1559.24 184.464 L1559.24 157.323 Q1559.24 150.76 1556.93 147.641 Q1554.62 144.482 1549.8 144.482 Q1544.09 144.482 1540.73 148.37 Q1537.36 152.219 1537.36 158.822 L1537.36 184.464 L1529.87 184.464 L1529.87 139.094 L1537.36 139.094 L1537.36 146.142 Q1539.92 141.97 1543.48 139.985 Q1547.05 138 1551.95 138 Q1556.89 138 1560.33 140.512 Q1563.82 143.023 1565.48 147.803 Z" fill="#000000" fill-rule="nonzero" fill-opacity="1" /><path clip-path="url(#clip590)" d="M1649.78 159.916 L1649.78 163.561 L1615.51 163.561 Q1615.99 171.258 1620.12 175.309 Q1624.3 179.319 1631.71 179.319 Q1636 179.319 1640.01 178.266 Q1644.07 177.213 1648.04 175.106 L1648.04 182.155 Q1644.02 183.856 1639.81 184.748 Q1635.6 185.639 1631.26 185.639 Q1620.41 185.639 1614.05 179.319 Q1607.73 173 1607.73 162.225 Q1607.73 151.085 1613.72 144.563 Q1619.76 138 1629.97 138 Q1639.12 138 1644.43 143.914 Q1649.78 149.788 1649.78 159.916 M1642.32 157.728 Q1642.24 151.611 1638.88 147.965 Q1635.56 144.32 1630.05 144.32 Q1623.81 144.32 1620.04 147.844 Q1616.32 151.368 1615.75 157.769 L1642.32 157.728 Z" fill="#000000" fill-rule="nonzero" fill-opacity="1" /><path clip-path="url(#clip590)" d="M1683.04 139.094 L1690.93 139.094 L1705.11 177.172 L1719.29 139.094 L1727.19 139.094 L1710.18 184.464 L1700.05 184.464 L1683.04 139.094 Z" fill="#000000" fill-rule="nonzero" fill-opacity="1" /><path clip-path="url(#clip590)" d="M1766.4 140.431 L1766.4 147.479 Q1763.24 145.859 1759.84 145.049 Q1756.44 144.239 1752.79 144.239 Q1747.24 144.239 1744.45 145.94 Q1741.69 147.641 1741.69 151.044 Q1741.69 153.637 1743.68 155.135 Q1745.66 156.594 1751.66 157.931 L1754.21 158.498 Q1762.15 160.199 1765.47 163.318 Q1768.83 166.397 1768.83 171.947 Q1768.83 178.266 1763.81 181.952 Q1758.83 185.639 1750.08 185.639 Q1746.43 185.639 1742.46 184.91 Q1738.53 184.221 1734.16 182.803 L1734.16 175.106 Q1738.29 177.253 1742.3 178.347 Q1746.31 179.4 1750.24 179.4 Q1755.51 179.4 1758.34 177.618 Q1761.18 175.795 1761.18 172.514 Q1761.18 169.476 1759.11 167.855 Q1757.09 166.235 1750.16 164.736 L1747.57 164.128 Q1740.64 162.67 1737.56 159.672 Q1734.48 156.634 1734.48 151.368 Q1734.48 144.968 1739.02 141.484 Q1743.56 138 1751.9 138 Q1756.03 138 1759.68 138.608 Q1763.32 139.215 1766.4 140.431 Z" fill="#000000" fill-rule="nonzero" fill-opacity="1" /><path clip-path="url(#clip590)" d="M1836.93 161.252 Q1836.93 153.151 1833.57 148.695 Q1830.25 144.239 1824.21 144.239 Q1818.21 144.239 1814.85 148.695 Q1811.53 153.151 1811.53 161.252 Q1811.53 169.314 1814.85 173.77 Q1818.21 178.226 1824.21 178.226 Q1830.25 178.226 1833.57 173.77 Q1836.93 169.314 1836.93 161.252 M1844.38 178.833 Q1844.38 190.419 1839.24 196.05 Q1834.09 201.721 1823.48 201.721 Q1819.55 201.721 1816.07 201.113 Q1812.58 200.546 1809.3 199.331 L1809.3 192.08 Q1812.58 193.862 1815.78 194.713 Q1818.98 195.563 1822.31 195.563 Q1829.64 195.563 1833.28 191.715 Q1836.93 187.907 1836.93 180.17 L1836.93 176.484 Q1834.62 180.494 1831.01 182.479 Q1827.41 184.464 1822.39 184.464 Q1814.04 184.464 1808.94 178.104 Q1803.83 171.744 1803.83 161.252 Q1803.83 150.72 1808.94 144.36 Q1814.04 138 1822.39 138 Q1827.41 138 1831.01 139.985 Q1834.62 141.97 1836.93 145.98 L1836.93 139.094 L1844.38 139.094 L1844.38 178.833 Z" fill="#000000" fill-rule="nonzero" fill-opacity="1" /><path clip-path="url(#clip590)" d="M1886.03 146.061 Q1884.77 145.332 1883.27 145.008 Q1881.81 144.644 1880.03 144.644 Q1873.71 144.644 1870.31 148.776 Q1866.95 152.867 1866.95 160.564 L1866.95 184.464 L1859.45 184.464 L1859.45 139.094 L1866.95 139.094 L1866.95 146.142 Q1869.3 142.011 1873.06 140.026 Q1876.83 138 1882.22 138 Q1882.99 138 1883.92 138.122 Q1884.85 138.203 1885.99 138.405 L1886.03 146.061 Z" fill="#000000" fill-rule="nonzero" fill-opacity="1" /><path clip-path="url(#clip590)" d="M1893.84 139.094 L1901.3 139.094 L1901.3 184.464 L1893.84 184.464 L1893.84 139.094 M1893.84 121.432 L1901.3 121.432 L1901.3 130.871 L1893.84 130.871 L1893.84 121.432 Z" fill="#000000" fill-rule="nonzero" fill-opacity="1" /><path clip-path="url(#clip590)" d="M1946.75 145.98 L1946.75 121.432 L1954.2 121.432 L1954.2 184.464 L1946.75 184.464 L1946.75 177.658 Q1944.4 181.709 1940.79 183.694 Q1937.23 185.639 1932.21 185.639 Q1923.98 185.639 1918.8 179.076 Q1913.65 172.514 1913.65 161.819 Q1913.65 151.125 1918.8 144.563 Q1923.98 138 1932.21 138 Q1937.23 138 1940.79 139.985 Q1944.4 141.93 1946.75 145.98 M1921.35 161.819 Q1921.35 170.043 1924.71 174.742 Q1928.11 179.4 1934.03 179.4 Q1939.94 179.4 1943.35 174.742 Q1946.75 170.043 1946.75 161.819 Q1946.75 153.596 1943.35 148.938 Q1939.94 144.239 1934.03 144.239 Q1928.11 144.239 1924.71 148.938 Q1921.35 153.596 1921.35 161.819 Z" fill="#000000" fill-rule="nonzero" fill-opacity="1" /><path clip-path="url(#clip590)" d="M2024.85 140.431 L2024.85 147.479 Q2021.69 145.859 2018.29 145.049 Q2014.89 144.239 2011.24 144.239 Q2005.69 144.239 2002.89 145.94 Q2000.14 147.641 2000.14 151.044 Q2000.14 153.637 2002.12 155.135 Q2004.11 156.594 2010.11 157.931 L2012.66 158.498 Q2020.6 160.199 2023.92 163.318 Q2027.28 166.397 2027.28 171.947 Q2027.28 178.266 2022.26 181.952 Q2017.28 185.639 2008.53 185.639 Q2004.88 185.639 2000.91 184.91 Q1996.98 184.221 1992.61 182.803 L1992.61 175.106 Q1996.74 177.253 2000.75 178.347 Q2004.76 179.4 2008.69 179.4 Q2013.95 179.4 2016.79 177.618 Q2019.62 175.795 2019.62 172.514 Q2019.62 169.476 2017.56 167.855 Q2015.53 166.235 2008.61 164.736 L2006.01 164.128 Q1999.09 162.67 1996.01 159.672 Q1992.93 156.634 1992.93 151.368 Q1992.93 144.968 1997.47 141.484 Q2002 138 2010.35 138 Q2014.48 138 2018.13 138.608 Q2021.77 139.215 2024.85 140.431 Z" fill="#000000" fill-rule="nonzero" fill-opacity="1" /><path clip-path="url(#clip590)" d="M2039.15 139.094 L2046.6 139.094 L2046.6 184.464 L2039.15 184.464 L2039.15 139.094 M2039.15 121.432 L2046.6 121.432 L2046.6 130.871 L2039.15 130.871 L2039.15 121.432 Z" fill="#000000" fill-rule="nonzero" fill-opacity="1" /><path clip-path="url(#clip590)" d="M2058.96 139.094 L2094.36 139.094 L2094.36 145.899 L2066.33 178.509 L2094.36 178.509 L2094.36 184.464 L2057.95 184.464 L2057.95 177.658 L2085.98 145.049 L2058.96 145.049 L2058.96 139.094 Z" fill="#000000" fill-rule="nonzero" fill-opacity="1" /><path clip-path="url(#clip590)" d="M2144.55 159.916 L2144.55 163.561 L2110.28 163.561 Q2110.77 171.258 2114.9 175.309 Q2119.07 179.319 2126.49 179.319 Q2130.78 179.319 2134.79 178.266 Q2138.84 177.213 2142.81 175.106 L2142.81 182.155 Q2138.8 183.856 2134.59 184.748 Q2130.38 185.639 2126.04 185.639 Q2115.19 185.639 2108.83 179.319 Q2102.51 173 2102.51 162.225 Q2102.51 151.085 2108.5 144.563 Q2114.54 138 2124.75 138 Q2133.9 138 2139.21 143.914 Q2144.55 149.788 2144.55 159.916 M2137.1 157.728 Q2137.02 151.611 2133.66 147.965 Q2130.34 144.32 2124.83 144.32 Q2118.59 144.32 2114.82 147.844 Q2111.09 151.368 2110.53 157.769 L2137.1 157.728 Z" fill="#000000" fill-rule="nonzero" fill-opacity="1" /><path clip-path="url(#clip590)" d="M2179.39 158.822 L2254.25 158.822 L2254.25 164.655 L2179.39 164.655 L2179.39 158.822 Z" fill="#000000" fill-rule="nonzero" fill-opacity="1" /><path clip-path="url(#clip590)" d="M2287.15 139.094 L2295.05 139.094 L2309.22 177.172 L2323.4 139.094 L2331.3 139.094 L2314.29 184.464 L2304.16 184.464 L2287.15 139.094 Z" fill="#000000" fill-rule="nonzero" fill-opacity="1" /><path clip-path="url(#clip590)" d="M2362.21 161.657 Q2353.18 161.657 2349.69 163.723 Q2346.21 165.789 2346.21 170.772 Q2346.21 174.742 2348.8 177.091 Q2351.43 179.4 2355.93 179.4 Q2362.13 179.4 2365.86 175.025 Q2369.62 170.61 2369.62 163.318 L2369.62 161.657 L2362.21 161.657 M2377.08 158.579 L2377.08 184.464 L2369.62 184.464 L2369.62 177.577 Q2367.07 181.709 2363.26 183.694 Q2359.46 185.639 2353.95 185.639 Q2346.98 185.639 2342.85 181.75 Q2338.76 177.821 2338.76 171.258 Q2338.76 163.602 2343.86 159.713 Q2349 155.824 2359.17 155.824 L2369.62 155.824 L2369.62 155.095 Q2369.62 149.95 2366.22 147.155 Q2362.86 144.32 2356.74 144.32 Q2352.85 144.32 2349.17 145.251 Q2345.48 146.183 2342.08 148.046 L2342.08 141.16 Q2346.17 139.58 2350.02 138.81 Q2353.86 138 2357.51 138 Q2367.35 138 2372.22 143.104 Q2377.08 148.208 2377.08 158.579 Z" fill="#000000" fill-rule="nonzero" fill-opacity="1" /><path clip-path="url(#clip590)" d="M2430.14 157.08 L2430.14 184.464 L2422.69 184.464 L2422.69 157.323 Q2422.69 150.882 2420.18 147.682 Q2417.67 144.482 2412.64 144.482 Q2406.61 144.482 2403.12 148.33 Q2399.64 152.178 2399.64 158.822 L2399.64 184.464 L2392.15 184.464 L2392.15 139.094 L2399.64 139.094 L2399.64 146.142 Q2402.31 142.051 2405.92 140.026 Q2409.56 138 2414.3 138 Q2422.12 138 2426.13 142.861 Q2430.14 147.682 2430.14 157.08 Z" fill="#000000" fill-rule="nonzero" fill-opacity="1" /><path clip-path="url(#clip590)" d="M2474.87 145.98 L2474.87 121.432 L2482.32 121.432 L2482.32 184.464 L2474.87 184.464 L2474.87 177.658 Q2472.52 181.709 2468.91 183.694 Q2465.35 185.639 2460.32 185.639 Q2452.1 185.639 2446.91 179.076 Q2441.77 172.514 2441.77 161.819 Q2441.77 151.125 2446.91 144.563 Q2452.1 138 2460.32 138 Q2465.35 138 2468.91 139.985 Q2472.52 141.93 2474.87 145.98 M2449.47 161.819 Q2449.47 170.043 2452.83 174.742 Q2456.23 179.4 2462.15 179.4 Q2468.06 179.4 2471.46 174.742 Q2474.87 170.043 2474.87 161.819 Q2474.87 153.596 2471.46 148.938 Q2468.06 144.239 2462.15 144.239 Q2456.23 144.239 2452.83 148.938 Q2449.47 153.596 2449.47 161.819 Z" fill="#000000" fill-rule="nonzero" fill-opacity="1" /><path clip-path="url(#clip590)" d="M2536.48 159.916 L2536.48 163.561 L2502.21 163.561 Q2502.7 171.258 2506.83 175.309 Q2511 179.319 2518.41 179.319 Q2522.71 179.319 2526.72 178.266 Q2530.77 177.213 2534.74 175.106 L2534.74 182.155 Q2530.73 183.856 2526.51 184.748 Q2522.3 185.639 2517.97 185.639 Q2507.11 185.639 2500.75 179.319 Q2494.43 173 2494.43 162.225 Q2494.43 151.085 2500.43 144.563 Q2506.46 138 2516.67 138 Q2525.83 138 2531.13 143.914 Q2536.48 149.788 2536.48 159.916 M2529.03 157.728 Q2528.94 151.611 2525.58 147.965 Q2522.26 144.32 2516.75 144.32 Q2510.51 144.32 2506.75 147.844 Q2503.02 151.368 2502.45 157.769 L2529.03 157.728 Z" fill="#000000" fill-rule="nonzero" fill-opacity="1" /><path clip-path="url(#clip590)" d="M2575 146.061 Q2573.75 145.332 2572.25 145.008 Q2570.79 144.644 2569.01 144.644 Q2562.69 144.644 2559.29 148.776 Q2555.92 152.867 2555.92 160.564 L2555.92 184.464 L2548.43 184.464 L2548.43 139.094 L2555.92 139.094 L2555.92 146.142 Q2558.27 142.011 2562.04 140.026 Q2565.81 138 2571.2 138 Q2571.97 138 2572.9 138.122 Q2573.83 138.203 2574.96 138.405 L2575 146.061 Z" fill="#000000" fill-rule="nonzero" fill-opacity="1" /><path clip-path="url(#clip590)" d="M2590.03 177.658 L2590.03 201.721 L2582.54 201.721 L2582.54 139.094 L2590.03 139.094 L2590.03 145.98 Q2592.38 141.93 2595.95 139.985 Q2599.55 138 2604.53 138 Q2612.8 138 2617.94 144.563 Q2623.13 151.125 2623.13 161.819 Q2623.13 172.514 2617.94 179.076 Q2612.8 185.639 2604.53 185.639 Q2599.55 185.639 2595.95 183.694 Q2592.38 181.709 2590.03 177.658 M2615.39 161.819 Q2615.39 153.596 2611.99 148.938 Q2608.63 144.239 2602.71 144.239 Q2596.8 144.239 2593.39 148.938 Q2590.03 153.596 2590.03 161.819 Q2590.03 170.043 2593.39 174.742 Q2596.8 179.4 2602.71 179.4 Q2608.63 179.4 2611.99 174.742 Q2615.39 170.043 2615.39 161.819 Z" fill="#000000" fill-rule="nonzero" fill-opacity="1" /><path clip-path="url(#clip590)" d="M2653.06 144.32 Q2647.07 144.32 2643.59 149.019 Q2640.1 153.677 2640.1 161.819 Q2640.1 169.962 2643.55 174.661 Q2647.03 179.319 2653.06 179.319 Q2659.02 179.319 2662.5 174.62 Q2665.99 169.921 2665.99 161.819 Q2665.99 153.758 2662.5 149.059 Q2659.02 144.32 2653.06 144.32 M2653.06 138 Q2662.79 138 2668.34 144.32 Q2673.89 150.639 2673.89 161.819 Q2673.89 172.959 2668.34 179.319 Q2662.79 185.639 2653.06 185.639 Q2643.3 185.639 2637.75 179.319 Q2632.24 172.959 2632.24 161.819 Q2632.24 150.639 2637.75 144.32 Q2643.3 138 2653.06 138 Z" fill="#000000" fill-rule="nonzero" fill-opacity="1" /><path clip-path="url(#clip590)" d="M2686.24 121.432 L2693.7 121.432 L2693.7 184.464 L2686.24 184.464 L2686.24 121.432 Z" fill="#000000" fill-rule="nonzero" fill-opacity="1" /><polyline clip-path="url(#clip592)" style="stroke:#4682b4; stroke-linecap:round; stroke-linejoin:round; stroke-width:6; stroke-opacity:1; fill:none" points="505.303,1476.22 2157.67,865.46 3407.64,320.168 "/>
<circle clip-path="url(#clip592)" cx="505.303" cy="1476.22" r="14.4" fill="#4682b4" fill-rule="evenodd" fill-opacity="1" stroke="none"/>
<circle clip-path="url(#clip592)" cx="2157.67" cy="865.46" r="14.4" fill="#4682b4" fill-rule="evenodd" fill-opacity="1" stroke="none"/>
<circle clip-path="url(#clip592)" cx="3407.64" cy="320.168" r="14.4" fill="#4682b4" fill-rule="evenodd" fill-opacity="1" stroke="none"/>
<polyline clip-path="url(#clip592)" style="stroke:#2e8b57; stroke-linecap:round; stroke-linejoin:round; stroke-width:6; stroke-opacity:1; fill:none" points="505.303,1503.39 2157.67,893.355 3407.64,300.989 "/>
<path clip-path="url(#clip592)" d="M505.303 1487.39 L489.303 1503.39 L505.303 1519.39 L521.303 1503.39 L505.303 1487.39 Z" fill="#2e8b57" fill-rule="evenodd" fill-opacity="1" stroke="none"/>
<path clip-path="url(#clip592)" d="M2157.67 877.355 L2141.67 893.355 L2157.67 909.355 L2173.67 893.355 L2157.67 877.355 Z" fill="#2e8b57" fill-rule="evenodd" fill-opacity="1" stroke="none"/>
<path clip-path="url(#clip592)" d="M3407.64 284.989 L3391.64 300.989 L3407.64 316.989 L3423.64 300.989 L3407.64 284.989 Z" fill="#2e8b57" fill-rule="evenodd" fill-opacity="1" stroke="none"/>
<polyline clip-path="url(#clip592)" style="stroke:#ff6347; stroke-linecap:round; stroke-linejoin:round; stroke-width:6; stroke-opacity:1; fill:none" points="505.303,1895.69 2157.67,1363.09 3407.64,882.53 "/>
<path clip-path="url(#clip592)" d="M489.303 1879.69 L489.303 1911.69 L521.303 1911.69 L521.303 1879.69 L489.303 1879.69 Z" fill="#ff6347" fill-rule="evenodd" fill-opacity="1" stroke="none"/>
<path clip-path="url(#clip592)" d="M2141.67 1347.09 L2141.67 1379.09 L2173.67 1379.09 L2173.67 1347.09 L2141.67 1347.09 Z" fill="#ff6347" fill-rule="evenodd" fill-opacity="1" stroke="none"/>
<path clip-path="url(#clip592)" d="M3391.64 866.53 L3391.64 898.53 L3423.64 898.53 L3423.64 866.53 L3391.64 866.53 Z" fill="#ff6347" fill-rule="evenodd" fill-opacity="1" stroke="none"/>
<polyline clip-path="url(#clip592)" style="stroke:#ff8c00; stroke-linecap:round; stroke-linejoin:round; stroke-width:6; stroke-opacity:1; fill:none" points="505.303,2102.46 2157.67,1489.56 3407.64,991.874 "/>
<path clip-path="url(#clip592)" d="M505.303 2086.46 L489.303 2118.46 L521.303 2118.46 L505.303 2086.46 Z" fill="#ff8c00" fill-rule="evenodd" fill-opacity="1" stroke="none"/>
<path clip-path="url(#clip592)" d="M2157.67 1473.56 L2141.67 1505.56 L2173.67 1505.56 L2157.67 1473.56 Z" fill="#ff8c00" fill-rule="evenodd" fill-opacity="1" stroke="none"/>
<path clip-path="url(#clip592)" d="M3407.64 975.874 L3391.64 1007.87 L3423.64 1007.87 L3407.64 975.874 Z" fill="#ff8c00" fill-rule="evenodd" fill-opacity="1" stroke="none"/>
<polyline clip-path="url(#clip592)" style="stroke:#9370db; stroke-linecap:round; stroke-linejoin:round; stroke-width:6; stroke-opacity:1; fill:none" points="505.303,1709.87 2157.67,1152.28 3407.64,649.542 "/>
<path clip-path="url(#clip592)" d="M521.303 1693.87 L489.303 1693.87 L505.303 1725.87 L521.303 1693.87 Z" fill="#9370db" fill-rule="evenodd" fill-opacity="1" stroke="none"/>
<path clip-path="url(#clip592)" d="M2173.67 1136.28 L2141.67 1136.28 L2157.67 1168.28 L2173.67 1136.28 Z" fill="#9370db" fill-rule="evenodd" fill-opacity="1" stroke="none"/>
<path clip-path="url(#clip592)" d="M3423.64 633.542 L3391.64 633.542 L3407.64 665.542 L3423.64 633.542 Z" fill="#9370db" fill-rule="evenodd" fill-opacity="1" stroke="none"/>
<polyline clip-path="url(#clip592)" style="stroke:#a0522d; stroke-linecap:round; stroke-linejoin:round; stroke-width:6; stroke-opacity:1; fill:none" points="505.303,1506.35 2157.67,824.362 3407.64,307.391 "/>
<path clip-path="url(#clip592)" d="M505.303 1490.35 L501.543 1501.17 L490.087 1501.41 L499.223 1508.33 L495.895 1519.29 L505.303 1512.75 L514.711 1519.29 L511.383 1508.33 L520.519 1501.41 L509.063 1501.17 L505.303 1490.35 Z" fill="#a0522d" fill-rule="evenodd" fill-opacity="1" stroke="none"/>
<path clip-path="url(#clip592)" d="M2157.67 808.362 L2153.91 819.178 L2142.46 819.418 L2151.59 826.346 L2148.26 837.306 L2157.67 830.762 L2167.08 837.306 L2163.75 826.346 L2172.89 819.418 L2161.43 819.178 L2157.67 808.362 Z" fill="#a0522d" fill-rule="evenodd" fill-opacity="1" stroke="none"/>
<path clip-path="url(#clip592)" d="M3407.64 291.391 L3403.88 302.207 L3392.42 302.447 L3401.56 309.375 L3398.23 320.335 L3407.64 313.791 L3417.05 320.335 L3413.72 309.375 L3422.86 302.447 L3411.4 302.207 L3407.64 291.391 Z" fill="#a0522d" fill-rule="evenodd" fill-opacity="1" stroke="none"/>
<path clip-path="url(#clip590)" d="M2757.01 2092.86 L3446.34 2092.86 L3446.34 1729.98 L2757.01 1729.98  Z" fill="#ffffff" fill-rule="evenodd" fill-opacity="1"/>
<polyline clip-path="url(#clip590)" style="stroke:#000000; stroke-linecap:round; stroke-linejoin:round; stroke-width:4; stroke-opacity:1; fill:none" points="2757.01,2092.86 3446.34,2092.86 3446.34,1729.98 2757.01,1729.98 2757.01,2092.86 "/>
<polyline clip-path="url(#clip590)" style="stroke:#4682b4; stroke-linecap:round; stroke-linejoin:round; stroke-width:6; stroke-opacity:1; fill:none" points="2792.49,1781.82 3005.32,1781.82 "/>
<circle clip-path="url(#clip590)" cx="2898.9" cy="1781.82" r="23.04" fill="#4682b4" fill-rule="evenodd" fill-opacity="1" stroke="none"/>
<path clip-path="url(#clip590)" d="M3051.42 1763.12 Q3048.32 1768.45 3046.81 1773.66 Q3045.31 1778.86 3045.31 1784.21 Q3045.31 1789.56 3046.81 1794.81 Q3048.34 1800.04 3051.42 1805.35 L3047.72 1805.35 Q3044.25 1799.91 3042.51 1794.65 Q3040.8 1789.4 3040.8 1784.21 Q3040.8 1779.05 3042.51 1773.82 Q3044.22 1768.59 3047.72 1763.12 L3051.42 1763.12 Z" fill="#000000" fill-rule="nonzero" fill-opacity="1" /><path clip-path="url(#clip590)" d="M3071.47 1786.06 Q3066.31 1786.06 3064.31 1787.24 Q3062.32 1788.42 3062.32 1791.27 Q3062.32 1793.54 3063.81 1794.88 Q3065.31 1796.2 3067.88 1796.2 Q3071.42 1796.2 3073.55 1793.7 Q3075.7 1791.18 3075.7 1787.01 L3075.7 1786.06 L3071.47 1786.06 M3079.96 1784.3 L3079.96 1799.1 L3075.7 1799.1 L3075.7 1795.16 Q3074.25 1797.52 3072.07 1798.66 Q3069.89 1799.77 3066.75 1799.77 Q3062.76 1799.77 3060.4 1797.54 Q3058.06 1795.3 3058.06 1791.55 Q3058.06 1787.17 3060.98 1784.95 Q3063.92 1782.73 3069.73 1782.73 L3075.7 1782.73 L3075.7 1782.31 Q3075.7 1779.37 3073.76 1777.78 Q3071.84 1776.16 3068.34 1776.16 Q3066.12 1776.16 3064.01 1776.69 Q3061.91 1777.22 3059.96 1778.29 L3059.96 1774.35 Q3062.3 1773.45 3064.5 1773.01 Q3066.7 1772.54 3068.78 1772.54 Q3074.41 1772.54 3077.19 1775.46 Q3079.96 1778.38 3079.96 1784.3 Z" fill="#000000" fill-rule="nonzero" fill-opacity="1" /><path clip-path="url(#clip590)" d="M3105.8 1777.1 L3105.8 1763.08 L3110.06 1763.08 L3110.06 1799.1 L3105.8 1799.1 L3105.8 1795.21 Q3104.45 1797.52 3102.39 1798.66 Q3100.36 1799.77 3097.49 1799.77 Q3092.79 1799.77 3089.82 1796.02 Q3086.88 1792.27 3086.88 1786.16 Q3086.88 1780.04 3089.82 1776.29 Q3092.79 1772.54 3097.49 1772.54 Q3100.36 1772.54 3102.39 1773.68 Q3104.45 1774.79 3105.8 1777.1 M3091.28 1786.16 Q3091.28 1790.85 3093.2 1793.54 Q3095.15 1796.2 3098.53 1796.2 Q3101.91 1796.2 3103.85 1793.54 Q3105.8 1790.85 3105.8 1786.16 Q3105.8 1781.46 3103.85 1778.79 Q3101.91 1776.11 3098.53 1776.11 Q3095.15 1776.11 3093.2 1778.79 Q3091.28 1781.46 3091.28 1786.16 Z" fill="#000000" fill-rule="nonzero" fill-opacity="1" /><path clip-path="url(#clip590)" d="M3140.38 1783.45 L3140.38 1799.1 L3136.12 1799.1 L3136.12 1783.59 Q3136.12 1779.91 3134.68 1778.08 Q3133.25 1776.25 3130.38 1776.25 Q3126.93 1776.25 3124.94 1778.45 Q3122.95 1780.65 3122.95 1784.44 L3122.95 1799.1 L3118.67 1799.1 L3118.67 1773.17 L3122.95 1773.17 L3122.95 1777.2 Q3124.48 1774.86 3126.54 1773.7 Q3128.62 1772.54 3131.33 1772.54 Q3135.8 1772.54 3138.09 1775.32 Q3140.38 1778.08 3140.38 1783.45 Z" fill="#000000" fill-rule="nonzero" fill-opacity="1" /><path clip-path="url(#clip590)" d="M3148.87 1763.08 L3153.13 1763.08 L3153.13 1799.1 L3148.87 1799.1 L3148.87 1763.08 Z" fill="#000000" fill-rule="nonzero" fill-opacity="1" /><path clip-path="url(#clip590)" d="M3166.17 1795.21 L3166.17 1808.96 L3161.88 1808.96 L3161.88 1773.17 L3166.17 1773.17 L3166.17 1777.1 Q3167.51 1774.79 3169.55 1773.68 Q3171.61 1772.54 3174.45 1772.54 Q3179.18 1772.54 3182.12 1776.29 Q3185.08 1780.04 3185.08 1786.16 Q3185.08 1792.27 3182.12 1796.02 Q3179.18 1799.77 3174.45 1799.77 Q3171.61 1799.77 3169.55 1798.66 Q3167.51 1797.52 3166.17 1795.21 M3180.66 1786.16 Q3180.66 1781.46 3178.71 1778.79 Q3176.79 1776.11 3173.41 1776.11 Q3170.03 1776.11 3168.09 1778.79 Q3166.17 1781.46 3166.17 1786.16 Q3166.17 1790.85 3168.09 1793.54 Q3170.03 1796.2 3173.41 1796.2 Q3176.79 1796.2 3178.71 1793.54 Q3180.66 1790.85 3180.66 1786.16 Z" fill="#000000" fill-rule="nonzero" fill-opacity="1" /><path clip-path="url(#clip590)" d="M3193.23 1793.22 L3198.11 1793.22 L3198.11 1797.2 L3194.31 1804.6 L3191.33 1804.6 L3193.23 1797.2 L3193.23 1793.22 Z" fill="#000000" fill-rule="nonzero" fill-opacity="1" /><path clip-path="url(#clip590)" d="M3222.28 1773.17 L3226.54 1773.17 L3226.54 1799.1 L3222.28 1799.1 L3222.28 1773.17 M3222.28 1763.08 L3226.54 1763.08 L3226.54 1768.47 L3222.28 1768.47 L3222.28 1763.08 Z" fill="#000000" fill-rule="nonzero" fill-opacity="1" /><path clip-path="url(#clip590)" d="M3239.57 1795.21 L3239.57 1808.96 L3235.29 1808.96 L3235.29 1773.17 L3239.57 1773.17 L3239.57 1777.1 Q3240.91 1774.79 3242.95 1773.68 Q3245.01 1772.54 3247.86 1772.54 Q3252.58 1772.54 3255.52 1776.29 Q3258.48 1780.04 3258.48 1786.16 Q3258.48 1792.27 3255.52 1796.02 Q3252.58 1799.77 3247.86 1799.77 Q3245.01 1799.77 3242.95 1798.66 Q3240.91 1797.52 3239.57 1795.21 M3254.06 1786.16 Q3254.06 1781.46 3252.11 1778.79 Q3250.19 1776.11 3246.81 1776.11 Q3243.43 1776.11 3241.49 1778.79 Q3239.57 1781.46 3239.57 1786.16 Q3239.57 1790.85 3241.49 1793.54 Q3243.43 1796.2 3246.81 1796.2 Q3250.19 1796.2 3252.11 1793.54 Q3254.06 1790.85 3254.06 1786.16 Z" fill="#000000" fill-rule="nonzero" fill-opacity="1" /><path clip-path="url(#clip590)" d="M3275.59 1776.16 Q3272.16 1776.16 3270.17 1778.84 Q3268.18 1781.5 3268.18 1786.16 Q3268.18 1790.81 3270.15 1793.49 Q3272.14 1796.16 3275.59 1796.16 Q3278.99 1796.16 3280.98 1793.47 Q3282.97 1790.79 3282.97 1786.16 Q3282.97 1781.55 3280.98 1778.86 Q3278.99 1776.16 3275.59 1776.16 M3275.59 1772.54 Q3281.14 1772.54 3284.31 1776.16 Q3287.48 1779.77 3287.48 1786.16 Q3287.48 1792.52 3284.31 1796.16 Q3281.14 1799.77 3275.59 1799.77 Q3270.01 1799.77 3266.84 1796.16 Q3263.69 1792.52 3263.69 1786.16 Q3263.69 1779.77 3266.84 1776.16 Q3270.01 1772.54 3275.59 1772.54 Z" fill="#000000" fill-rule="nonzero" fill-opacity="1" /><path clip-path="url(#clip590)" d="M3298.67 1795.21 L3298.67 1808.96 L3294.38 1808.96 L3294.38 1773.17 L3298.67 1773.17 L3298.67 1777.1 Q3300.01 1774.79 3302.05 1773.68 Q3304.11 1772.54 3306.95 1772.54 Q3311.67 1772.54 3314.61 1776.29 Q3317.58 1780.04 3317.58 1786.16 Q3317.58 1792.27 3314.61 1796.02 Q3311.67 1799.77 3306.95 1799.77 Q3304.11 1799.77 3302.05 1798.66 Q3300.01 1797.52 3298.67 1795.21 M3313.16 1786.16 Q3313.16 1781.46 3311.21 1778.79 Q3309.29 1776.11 3305.91 1776.11 Q3302.53 1776.11 3300.59 1778.79 Q3298.67 1781.46 3298.67 1786.16 Q3298.67 1790.85 3300.59 1793.54 Q3302.53 1796.2 3305.91 1796.2 Q3309.29 1796.2 3311.21 1793.54 Q3313.16 1790.85 3313.16 1786.16 Z" fill="#000000" fill-rule="nonzero" fill-opacity="1" /><path clip-path="url(#clip590)" d="M3328.85 1765.81 L3328.85 1773.17 L3337.62 1773.17 L3337.62 1776.48 L3328.85 1776.48 L3328.85 1790.55 Q3328.85 1793.73 3329.71 1794.63 Q3330.59 1795.53 3333.25 1795.53 L3337.62 1795.53 L3337.62 1799.1 L3333.25 1799.1 Q3328.32 1799.1 3326.44 1797.27 Q3324.57 1795.42 3324.57 1790.55 L3324.57 1776.48 L3321.44 1776.48 L3321.44 1773.17 L3324.57 1773.17 L3324.57 1765.81 L3328.85 1765.81 Z" fill="#000000" fill-rule="nonzero" fill-opacity="1" /><path clip-path="url(#clip590)" d="M3342.55 1763.12 L3346.26 1763.12 Q3349.73 1768.59 3351.44 1773.82 Q3353.18 1779.05 3353.18 1784.21 Q3353.18 1789.4 3351.44 1794.65 Q3349.73 1799.91 3346.26 1805.35 L3342.55 1805.35 Q3345.63 1800.04 3347.14 1794.81 Q3348.67 1789.56 3348.67 1784.21 Q3348.67 1778.86 3347.14 1773.66 Q3345.63 1768.45 3342.55 1763.12 Z" fill="#000000" fill-rule="nonzero" fill-opacity="1" /><polyline clip-path="url(#clip590)" style="stroke:#2e8b57; stroke-linecap:round; stroke-linejoin:round; stroke-width:6; stroke-opacity:1; fill:none" points="2792.49,1833.66 3005.32,1833.66 "/>
<path clip-path="url(#clip590)" d="M2898.9 1808.06 L2873.3 1833.66 L2898.9 1859.26 L2924.5 1833.66 L2898.9 1808.06 Z" fill="#2e8b57" fill-rule="evenodd" fill-opacity="1" stroke="none"/>
<path clip-path="url(#clip590)" d="M3051.42 1814.96 Q3048.32 1820.29 3046.81 1825.5 Q3045.31 1830.7 3045.31 1836.05 Q3045.31 1841.4 3046.81 1846.65 Q3048.34 1851.88 3051.42 1857.19 L3047.72 1857.19 Q3044.25 1851.75 3042.51 1846.49 Q3040.8 1841.24 3040.8 1836.05 Q3040.8 1830.89 3042.51 1825.66 Q3044.22 1820.43 3047.72 1814.96 L3051.42 1814.96 Z" fill="#000000" fill-rule="nonzero" fill-opacity="1" /><path clip-path="url(#clip590)" d="M3071.47 1837.9 Q3066.31 1837.9 3064.31 1839.08 Q3062.32 1840.26 3062.32 1843.11 Q3062.32 1845.38 3063.81 1846.72 Q3065.31 1848.04 3067.88 1848.04 Q3071.42 1848.04 3073.55 1845.54 Q3075.7 1843.02 3075.7 1838.85 L3075.7 1837.9 L3071.47 1837.9 M3079.96 1836.14 L3079.96 1850.94 L3075.7 1850.94 L3075.7 1847 Q3074.25 1849.36 3072.07 1850.5 Q3069.89 1851.61 3066.75 1851.61 Q3062.76 1851.61 3060.4 1849.38 Q3058.06 1847.14 3058.06 1843.39 Q3058.06 1839.01 3060.98 1836.79 Q3063.92 1834.57 3069.73 1834.57 L3075.7 1834.57 L3075.7 1834.15 Q3075.7 1831.21 3073.76 1829.62 Q3071.84 1828 3068.34 1828 Q3066.12 1828 3064.01 1828.53 Q3061.91 1829.06 3059.96 1830.13 L3059.96 1826.19 Q3062.3 1825.29 3064.5 1824.85 Q3066.7 1824.38 3068.78 1824.38 Q3074.41 1824.38 3077.19 1827.3 Q3079.96 1830.22 3079.96 1836.14 Z" fill="#000000" fill-rule="nonzero" fill-opacity="1" /><path clip-path="url(#clip590)" d="M3105.8 1828.94 L3105.8 1814.92 L3110.06 1814.92 L3110.06 1850.94 L3105.8 1850.94 L3105.8 1847.05 Q3104.45 1849.36 3102.39 1850.5 Q3100.36 1851.61 3097.49 1851.61 Q3092.79 1851.61 3089.82 1847.86 Q3086.88 1844.11 3086.88 1838 Q3086.88 1831.88 3089.82 1828.13 Q3092.79 1824.38 3097.49 1824.38 Q3100.36 1824.38 3102.39 1825.52 Q3104.45 1826.63 3105.8 1828.94 M3091.28 1838 Q3091.28 1842.69 3093.2 1845.38 Q3095.15 1848.04 3098.53 1848.04 Q3101.91 1848.04 3103.85 1845.38 Q3105.8 1842.69 3105.8 1838 Q3105.8 1833.3 3103.85 1830.63 Q3101.91 1827.95 3098.53 1827.95 Q3095.15 1827.95 3093.2 1830.63 Q3091.28 1833.3 3091.28 1838 Z" fill="#000000" fill-rule="nonzero" fill-opacity="1" /><path clip-path="url(#clip590)" d="M3140.38 1835.29 L3140.38 1850.94 L3136.12 1850.94 L3136.12 1835.43 Q3136.12 1831.75 3134.68 1829.92 Q3133.25 1828.09 3130.38 1828.09 Q3126.93 1828.09 3124.94 1830.29 Q3122.95 1832.49 3122.95 1836.28 L3122.95 1850.94 L3118.67 1850.94 L3118.67 1825.01 L3122.95 1825.01 L3122.95 1829.04 Q3124.48 1826.7 3126.54 1825.54 Q3128.62 1824.38 3131.33 1824.38 Q3135.8 1824.38 3138.09 1827.16 Q3140.38 1829.92 3140.38 1835.29 Z" fill="#000000" fill-rule="nonzero" fill-opacity="1" /><path clip-path="url(#clip590)" d="M3148.87 1814.92 L3153.13 1814.92 L3153.13 1850.94 L3148.87 1850.94 L3148.87 1814.92 Z" fill="#000000" fill-rule="nonzero" fill-opacity="1" /><path clip-path="url(#clip590)" d="M3166.17 1847.05 L3166.17 1860.8 L3161.88 1860.8 L3161.88 1825.01 L3166.17 1825.01 L3166.17 1828.94 Q3167.51 1826.63 3169.55 1825.52 Q3171.61 1824.38 3174.45 1824.38 Q3179.18 1824.38 3182.12 1828.13 Q3185.08 1831.88 3185.08 1838 Q3185.08 1844.11 3182.12 1847.86 Q3179.18 1851.61 3174.45 1851.61 Q3171.61 1851.61 3169.55 1850.5 Q3167.51 1849.36 3166.17 1847.05 M3180.66 1838 Q3180.66 1833.3 3178.71 1830.63 Q3176.79 1827.95 3173.41 1827.95 Q3170.03 1827.95 3168.09 1830.63 Q3166.17 1833.3 3166.17 1838 Q3166.17 1842.69 3168.09 1845.38 Q3170.03 1848.04 3173.41 1848.04 Q3176.79 1848.04 3178.71 1845.38 Q3180.66 1842.69 3180.66 1838 Z" fill="#000000" fill-rule="nonzero" fill-opacity="1" /><path clip-path="url(#clip590)" d="M3193.23 1845.06 L3198.11 1845.06 L3198.11 1849.04 L3194.31 1856.44 L3191.33 1856.44 L3193.23 1849.04 L3193.23 1845.06 Z" fill="#000000" fill-rule="nonzero" fill-opacity="1" /><path clip-path="url(#clip590)" d="M3242.46 1829.99 Q3244.06 1827.12 3246.28 1825.75 Q3248.5 1824.38 3251.51 1824.38 Q3255.56 1824.38 3257.76 1827.23 Q3259.96 1830.06 3259.96 1835.29 L3259.96 1850.94 L3255.68 1850.94 L3255.68 1835.43 Q3255.68 1831.7 3254.36 1829.89 Q3253.04 1828.09 3250.33 1828.09 Q3247.02 1828.09 3245.1 1830.29 Q3243.18 1832.49 3243.18 1836.28 L3243.18 1850.94 L3238.9 1850.94 L3238.9 1835.43 Q3238.9 1831.68 3237.58 1829.89 Q3236.26 1828.09 3233.5 1828.09 Q3230.24 1828.09 3228.32 1830.31 Q3226.4 1832.51 3226.4 1836.28 L3226.4 1850.94 L3222.11 1850.94 L3222.11 1825.01 L3226.4 1825.01 L3226.4 1829.04 Q3227.86 1826.65 3229.89 1825.52 Q3231.93 1824.38 3234.73 1824.38 Q3237.55 1824.38 3239.52 1825.82 Q3241.51 1827.26 3242.46 1829.99 Z" fill="#000000" fill-rule="nonzero" fill-opacity="1" /><path clip-path="url(#clip590)" d="M3280.24 1837.9 Q3275.08 1837.9 3273.09 1839.08 Q3271.1 1840.26 3271.1 1843.11 Q3271.1 1845.38 3272.58 1846.72 Q3274.08 1848.04 3276.65 1848.04 Q3280.19 1848.04 3282.32 1845.54 Q3284.48 1843.02 3284.48 1838.85 L3284.48 1837.9 L3280.24 1837.9 M3288.73 1836.14 L3288.73 1850.94 L3284.48 1850.94 L3284.48 1847 Q3283.02 1849.36 3280.84 1850.5 Q3278.67 1851.61 3275.52 1851.61 Q3271.54 1851.61 3269.17 1849.38 Q3266.84 1847.14 3266.84 1843.39 Q3266.84 1839.01 3269.75 1836.79 Q3272.69 1834.57 3278.5 1834.57 L3284.48 1834.57 L3284.48 1834.15 Q3284.48 1831.21 3282.53 1829.62 Q3280.61 1828 3277.11 1828 Q3274.89 1828 3272.79 1828.53 Q3270.68 1829.06 3268.74 1830.13 L3268.74 1826.19 Q3271.07 1825.29 3273.27 1824.85 Q3275.47 1824.38 3277.55 1824.38 Q3283.18 1824.38 3285.96 1827.3 Q3288.73 1830.22 3288.73 1836.14 Z" fill="#000000" fill-rule="nonzero" fill-opacity="1" /><path clip-path="url(#clip590)" d="M3314.57 1828.94 L3314.57 1814.92 L3318.83 1814.92 L3318.83 1850.94 L3314.57 1850.94 L3314.57 1847.05 Q3313.23 1849.36 3311.17 1850.5 Q3309.13 1851.61 3306.26 1851.61 Q3301.56 1851.61 3298.6 1847.86 Q3295.66 1844.11 3295.66 1838 Q3295.66 1831.88 3298.6 1828.13 Q3301.56 1824.38 3306.26 1824.38 Q3309.13 1824.38 3311.17 1825.52 Q3313.23 1826.63 3314.57 1828.94 M3300.05 1838 Q3300.05 1842.69 3301.98 1845.38 Q3303.92 1848.04 3307.3 1848.04 Q3310.68 1848.04 3312.62 1845.38 Q3314.57 1842.69 3314.57 1838 Q3314.57 1833.3 3312.62 1830.63 Q3310.68 1827.95 3307.3 1827.95 Q3303.92 1827.95 3301.98 1830.63 Q3300.05 1833.3 3300.05 1838 Z" fill="#000000" fill-rule="nonzero" fill-opacity="1" /><path clip-path="url(#clip590)" d="M3349.15 1835.29 L3349.15 1850.94 L3344.89 1850.94 L3344.89 1835.43 Q3344.89 1831.75 3343.46 1829.92 Q3342.02 1828.09 3339.15 1828.09 Q3335.7 1828.09 3333.71 1830.29 Q3331.72 1832.49 3331.72 1836.28 L3331.72 1850.94 L3327.44 1850.94 L3327.44 1825.01 L3331.72 1825.01 L3331.72 1829.04 Q3333.25 1826.7 3335.31 1825.54 Q3337.39 1824.38 3340.1 1824.38 Q3344.57 1824.38 3346.86 1827.16 Q3349.15 1829.92 3349.15 1835.29 Z" fill="#000000" fill-rule="nonzero" fill-opacity="1" /><path clip-path="url(#clip590)" d="M3357.65 1814.92 L3361.91 1814.92 L3361.91 1850.94 L3357.65 1850.94 L3357.65 1814.92 Z" fill="#000000" fill-rule="nonzero" fill-opacity="1" /><path clip-path="url(#clip590)" d="M3374.94 1847.05 L3374.94 1860.8 L3370.66 1860.8 L3370.66 1825.01 L3374.94 1825.01 L3374.94 1828.94 Q3376.28 1826.63 3378.32 1825.52 Q3380.38 1824.38 3383.23 1824.38 Q3387.95 1824.38 3390.89 1828.13 Q3393.85 1831.88 3393.85 1838 Q3393.85 1844.11 3390.89 1847.86 Q3387.95 1851.61 3383.23 1851.61 Q3380.38 1851.61 3378.32 1850.5 Q3376.28 1849.36 3374.94 1847.05 M3389.43 1838 Q3389.43 1833.3 3387.48 1830.63 Q3385.56 1827.95 3382.18 1827.95 Q3378.8 1827.95 3376.86 1830.63 Q3374.94 1833.3 3374.94 1838 Q3374.94 1842.69 3376.86 1845.38 Q3378.8 1848.04 3382.18 1848.04 Q3385.56 1848.04 3387.48 1845.38 Q3389.43 1842.69 3389.43 1838 Z" fill="#000000" fill-rule="nonzero" fill-opacity="1" /><path clip-path="url(#clip590)" d="M3400.24 1814.96 L3403.94 1814.96 Q3407.41 1820.43 3409.13 1825.66 Q3410.86 1830.89 3410.86 1836.05 Q3410.86 1841.24 3409.13 1846.49 Q3407.41 1851.75 3403.94 1857.19 L3400.24 1857.19 Q3403.32 1851.88 3404.82 1846.65 Q3406.35 1841.4 3406.35 1836.05 Q3406.35 1830.7 3404.82 1825.5 Q3403.32 1820.29 3400.24 1814.96 Z" fill="#000000" fill-rule="nonzero" fill-opacity="1" /><polyline clip-path="url(#clip590)" style="stroke:#ff6347; stroke-linecap:round; stroke-linejoin:round; stroke-width:6; stroke-opacity:1; fill:none" points="2792.49,1885.5 3005.32,1885.5 "/>
<path clip-path="url(#clip590)" d="M2873.3 1859.9 L2873.3 1911.1 L2924.5 1911.1 L2924.5 1859.9 L2873.3 1859.9 Z" fill="#ff6347" fill-rule="evenodd" fill-opacity="1" stroke="none"/>
<path clip-path="url(#clip590)" d="M3051.42 1866.8 Q3048.32 1872.13 3046.81 1877.34 Q3045.31 1882.54 3045.31 1887.89 Q3045.31 1893.24 3046.81 1898.49 Q3048.34 1903.72 3051.42 1909.03 L3047.72 1909.03 Q3044.25 1903.59 3042.51 1898.33 Q3040.8 1893.08 3040.8 1887.89 Q3040.8 1882.73 3042.51 1877.5 Q3044.22 1872.27 3047.72 1866.8 L3051.42 1866.8 Z" fill="#000000" fill-rule="nonzero" fill-opacity="1" /><path clip-path="url(#clip590)" d="M3081.86 1888.75 L3081.86 1890.83 L3062.28 1890.83 Q3062.56 1895.23 3064.92 1897.54 Q3067.3 1899.84 3071.54 1899.84 Q3073.99 1899.84 3076.28 1899.23 Q3078.6 1898.63 3080.87 1897.43 L3080.87 1901.46 Q3078.57 1902.43 3076.17 1902.94 Q3073.76 1903.45 3071.28 1903.45 Q3065.08 1903.45 3061.44 1899.84 Q3057.83 1896.22 3057.83 1890.07 Q3057.83 1883.7 3061.26 1879.97 Q3064.71 1876.22 3070.54 1876.22 Q3075.77 1876.22 3078.81 1879.6 Q3081.86 1882.96 3081.86 1888.75 M3077.6 1887.5 Q3077.56 1884 3075.63 1881.92 Q3073.74 1879.84 3070.59 1879.84 Q3067.02 1879.84 3064.87 1881.85 Q3062.74 1883.86 3062.42 1887.52 L3077.6 1887.5 Z" fill="#000000" fill-rule="nonzero" fill-opacity="1" /><path clip-path="url(#clip590)" d="M3109.57 1876.85 L3100.19 1889.47 L3110.06 1902.78 L3105.03 1902.78 L3097.49 1892.59 L3089.94 1902.78 L3084.92 1902.78 L3094.99 1889.21 L3085.77 1876.85 L3090.8 1876.85 L3097.67 1886.09 L3104.55 1876.85 L3109.57 1876.85 Z" fill="#000000" fill-rule="nonzero" fill-opacity="1" /><path clip-path="url(#clip590)" d="M3127.86 1889.74 Q3122.69 1889.74 3120.7 1890.92 Q3118.71 1892.1 3118.71 1894.95 Q3118.71 1897.22 3120.19 1898.56 Q3121.7 1899.88 3124.27 1899.88 Q3127.81 1899.88 3129.94 1897.38 Q3132.09 1894.86 3132.09 1890.69 L3132.09 1889.74 L3127.86 1889.74 M3136.35 1887.98 L3136.35 1902.78 L3132.09 1902.78 L3132.09 1898.84 Q3130.63 1901.2 3128.46 1902.34 Q3126.28 1903.45 3123.13 1903.45 Q3119.15 1903.45 3116.79 1901.22 Q3114.45 1898.98 3114.45 1895.23 Q3114.45 1890.85 3117.37 1888.63 Q3120.31 1886.41 3126.12 1886.41 L3132.09 1886.41 L3132.09 1885.99 Q3132.09 1883.05 3130.15 1881.46 Q3128.23 1879.84 3124.73 1879.84 Q3122.51 1879.84 3120.4 1880.37 Q3118.3 1880.9 3116.35 1881.97 L3116.35 1878.03 Q3118.69 1877.13 3120.89 1876.69 Q3123.09 1876.22 3125.17 1876.22 Q3130.8 1876.22 3133.57 1879.14 Q3136.35 1882.06 3136.35 1887.98 Z" fill="#000000" fill-rule="nonzero" fill-opacity="1" /><path clip-path="url(#clip590)" d="M3146.21 1896.9 L3151.1 1896.9 L3151.1 1900.88 L3147.3 1908.28 L3144.31 1908.28 L3146.21 1900.88 L3146.21 1896.9 Z" fill="#000000" fill-rule="nonzero" fill-opacity="1" /><path clip-path="url(#clip590)" d="M3175.26 1876.85 L3179.52 1876.85 L3179.52 1902.78 L3175.26 1902.78 L3175.26 1876.85 M3175.26 1866.76 L3179.52 1866.76 L3179.52 1872.15 L3175.26 1872.15 L3175.26 1866.76 Z" fill="#000000" fill-rule="nonzero" fill-opacity="1" /><path clip-path="url(#clip590)" d="M3192.55 1898.89 L3192.55 1912.64 L3188.27 1912.64 L3188.27 1876.85 L3192.55 1876.85 L3192.55 1880.78 Q3193.9 1878.47 3195.93 1877.36 Q3197.99 1876.22 3200.84 1876.22 Q3205.56 1876.22 3208.5 1879.97 Q3211.47 1883.72 3211.47 1889.84 Q3211.47 1895.95 3208.5 1899.7 Q3205.56 1903.45 3200.84 1903.45 Q3197.99 1903.45 3195.93 1902.34 Q3193.9 1901.2 3192.55 1898.89 M3207.05 1889.84 Q3207.05 1885.14 3205.1 1882.47 Q3203.18 1879.79 3199.8 1879.79 Q3196.42 1879.79 3194.48 1882.47 Q3192.55 1885.14 3192.55 1889.84 Q3192.55 1894.53 3194.48 1897.22 Q3196.42 1899.88 3199.8 1899.88 Q3203.18 1899.88 3205.1 1897.22 Q3207.05 1894.53 3207.05 1889.84 Z" fill="#000000" fill-rule="nonzero" fill-opacity="1" /><path clip-path="url(#clip590)" d="M3228.57 1879.84 Q3225.15 1879.84 3223.16 1882.52 Q3221.17 1885.18 3221.17 1889.84 Q3221.17 1894.49 3223.13 1897.17 Q3225.12 1899.84 3228.57 1899.84 Q3231.98 1899.84 3233.97 1897.15 Q3235.96 1894.47 3235.96 1889.84 Q3235.96 1885.23 3233.97 1882.54 Q3231.98 1879.84 3228.57 1879.84 M3228.57 1876.22 Q3234.13 1876.22 3237.3 1879.84 Q3240.47 1883.45 3240.47 1889.84 Q3240.47 1896.2 3237.3 1899.84 Q3234.13 1903.45 3228.57 1903.45 Q3222.99 1903.45 3219.82 1899.84 Q3216.68 1896.2 3216.68 1889.84 Q3216.68 1883.45 3219.82 1879.84 Q3222.99 1876.22 3228.57 1876.22 Z" fill="#000000" fill-rule="nonzero" fill-opacity="1" /><path clip-path="url(#clip590)" d="M3251.65 1898.89 L3251.65 1912.64 L3247.37 1912.64 L3247.37 1876.85 L3251.65 1876.85 L3251.65 1880.78 Q3252.99 1878.47 3255.03 1877.36 Q3257.09 1876.22 3259.94 1876.22 Q3264.66 1876.22 3267.6 1879.97 Q3270.56 1883.72 3270.56 1889.84 Q3270.56 1895.95 3267.6 1899.7 Q3264.66 1903.45 3259.94 1903.45 Q3257.09 1903.45 3255.03 1902.34 Q3252.99 1901.2 3251.65 1898.89 M3266.14 1889.84 Q3266.14 1885.14 3264.2 1882.47 Q3262.28 1879.79 3258.9 1879.79 Q3255.52 1879.79 3253.57 1882.47 Q3251.65 1885.14 3251.65 1889.84 Q3251.65 1894.53 3253.57 1897.22 Q3255.52 1899.88 3258.9 1899.88 Q3262.28 1899.88 3264.2 1897.22 Q3266.14 1894.53 3266.14 1889.84 Z" fill="#000000" fill-rule="nonzero" fill-opacity="1" /><path clip-path="url(#clip590)" d="M3281.84 1869.49 L3281.84 1876.85 L3290.61 1876.85 L3290.61 1880.16 L3281.84 1880.16 L3281.84 1894.23 Q3281.84 1897.41 3282.69 1898.31 Q3283.57 1899.21 3286.23 1899.21 L3290.61 1899.21 L3290.61 1902.78 L3286.23 1902.78 Q3281.3 1902.78 3279.43 1900.95 Q3277.55 1899.1 3277.55 1894.23 L3277.55 1880.16 L3274.43 1880.16 L3274.43 1876.85 L3277.55 1876.85 L3277.55 1869.49 L3281.84 1869.49 Z" fill="#000000" fill-rule="nonzero" fill-opacity="1" /><path clip-path="url(#clip590)" d="M3295.54 1866.8 L3299.24 1866.8 Q3302.72 1872.27 3304.43 1877.5 Q3306.17 1882.73 3306.17 1887.89 Q3306.17 1893.08 3304.43 1898.33 Q3302.72 1903.59 3299.24 1909.03 L3295.54 1909.03 Q3298.62 1903.72 3300.12 1898.49 Q3301.65 1893.24 3301.65 1887.89 Q3301.65 1882.54 3300.12 1877.34 Q3298.62 1872.13 3295.54 1866.8 Z" fill="#000000" fill-rule="nonzero" fill-opacity="1" /><polyline clip-path="url(#clip590)" style="stroke:#ff8c00; stroke-linecap:round; stroke-linejoin:round; stroke-width:6; stroke-opacity:1; fill:none" points="2792.49,1937.34 3005.32,1937.34 "/>
<path clip-path="url(#clip590)" d="M2898.9 1911.74 L2873.3 1962.94 L2924.5 1962.94 L2898.9 1911.74 Z" fill="#ff8c00" fill-rule="evenodd" fill-opacity="1" stroke="none"/>
<path clip-path="url(#clip590)" d="M3051.42 1918.64 Q3048.32 1923.97 3046.81 1929.18 Q3045.31 1934.38 3045.31 1939.73 Q3045.31 1945.08 3046.81 1950.33 Q3048.34 1955.56 3051.42 1960.87 L3047.72 1960.87 Q3044.25 1955.43 3042.51 1950.17 Q3040.8 1944.92 3040.8 1939.73 Q3040.8 1934.57 3042.51 1929.34 Q3044.22 1924.11 3047.72 1918.64 L3051.42 1918.64 Z" fill="#000000" fill-rule="nonzero" fill-opacity="1" /><path clip-path="url(#clip590)" d="M3081.86 1940.59 L3081.86 1942.67 L3062.28 1942.67 Q3062.56 1947.07 3064.92 1949.38 Q3067.3 1951.68 3071.54 1951.68 Q3073.99 1951.68 3076.28 1951.07 Q3078.6 1950.47 3080.87 1949.27 L3080.87 1953.3 Q3078.57 1954.27 3076.17 1954.78 Q3073.76 1955.29 3071.28 1955.29 Q3065.08 1955.29 3061.44 1951.68 Q3057.83 1948.06 3057.83 1941.91 Q3057.83 1935.54 3061.26 1931.81 Q3064.71 1928.06 3070.54 1928.06 Q3075.77 1928.06 3078.81 1931.44 Q3081.86 1934.8 3081.86 1940.59 M3077.6 1939.34 Q3077.56 1935.84 3075.63 1933.76 Q3073.74 1931.68 3070.59 1931.68 Q3067.02 1931.68 3064.87 1933.69 Q3062.74 1935.7 3062.42 1939.36 L3077.6 1939.34 Z" fill="#000000" fill-rule="nonzero" fill-opacity="1" /><path clip-path="url(#clip590)" d="M3109.57 1928.69 L3100.19 1941.31 L3110.06 1954.62 L3105.03 1954.62 L3097.49 1944.43 L3089.94 1954.62 L3084.92 1954.62 L3094.99 1941.05 L3085.77 1928.69 L3090.8 1928.69 L3097.67 1937.93 L3104.55 1928.69 L3109.57 1928.69 Z" fill="#000000" fill-rule="nonzero" fill-opacity="1" /><path clip-path="url(#clip590)" d="M3127.86 1941.58 Q3122.69 1941.58 3120.7 1942.76 Q3118.71 1943.94 3118.71 1946.79 Q3118.71 1949.06 3120.19 1950.4 Q3121.7 1951.72 3124.27 1951.72 Q3127.81 1951.72 3129.94 1949.22 Q3132.09 1946.7 3132.09 1942.53 L3132.09 1941.58 L3127.86 1941.58 M3136.35 1939.82 L3136.35 1954.62 L3132.09 1954.62 L3132.09 1950.68 Q3130.63 1953.04 3128.46 1954.18 Q3126.28 1955.29 3123.13 1955.29 Q3119.15 1955.29 3116.79 1953.06 Q3114.45 1950.82 3114.45 1947.07 Q3114.45 1942.69 3117.37 1940.47 Q3120.31 1938.25 3126.12 1938.25 L3132.09 1938.25 L3132.09 1937.83 Q3132.09 1934.89 3130.15 1933.3 Q3128.23 1931.68 3124.73 1931.68 Q3122.51 1931.68 3120.4 1932.21 Q3118.3 1932.74 3116.35 1933.81 L3116.35 1929.87 Q3118.69 1928.97 3120.89 1928.53 Q3123.09 1928.06 3125.17 1928.06 Q3130.8 1928.06 3133.57 1930.98 Q3136.35 1933.9 3136.35 1939.82 Z" fill="#000000" fill-rule="nonzero" fill-opacity="1" /><path clip-path="url(#clip590)" d="M3146.21 1948.74 L3151.1 1948.74 L3151.1 1952.72 L3147.3 1960.12 L3144.31 1960.12 L3146.21 1952.72 L3146.21 1948.74 Z" fill="#000000" fill-rule="nonzero" fill-opacity="1" /><path clip-path="url(#clip590)" d="M3195.45 1933.67 Q3197.05 1930.8 3199.27 1929.43 Q3201.49 1928.06 3204.5 1928.06 Q3208.55 1928.06 3210.75 1930.91 Q3212.95 1933.74 3212.95 1938.97 L3212.95 1954.62 L3208.67 1954.62 L3208.67 1939.11 Q3208.67 1935.38 3207.35 1933.57 Q3206.03 1931.77 3203.32 1931.77 Q3200.01 1931.77 3198.09 1933.97 Q3196.17 1936.17 3196.17 1939.96 L3196.17 1954.62 L3191.88 1954.62 L3191.88 1939.11 Q3191.88 1935.36 3190.56 1933.57 Q3189.24 1931.77 3186.49 1931.77 Q3183.23 1931.77 3181.3 1933.99 Q3179.38 1936.19 3179.38 1939.96 L3179.38 1954.62 L3175.1 1954.62 L3175.1 1928.69 L3179.38 1928.69 L3179.38 1932.72 Q3180.84 1930.33 3182.88 1929.2 Q3184.92 1928.06 3187.72 1928.06 Q3190.54 1928.06 3192.51 1929.5 Q3194.5 1930.94 3195.45 1933.67 Z" fill="#000000" fill-rule="nonzero" fill-opacity="1" /><path clip-path="url(#clip590)" d="M3233.23 1941.58 Q3228.06 1941.58 3226.07 1942.76 Q3224.08 1943.94 3224.08 1946.79 Q3224.08 1949.06 3225.56 1950.4 Q3227.07 1951.72 3229.64 1951.72 Q3233.18 1951.72 3235.31 1949.22 Q3237.46 1946.7 3237.46 1942.53 L3237.46 1941.58 L3233.23 1941.58 M3241.72 1939.82 L3241.72 1954.62 L3237.46 1954.62 L3237.46 1950.68 Q3236 1953.04 3233.83 1954.18 Q3231.65 1955.29 3228.5 1955.29 Q3224.52 1955.29 3222.16 1953.06 Q3219.82 1950.82 3219.82 1947.07 Q3219.82 1942.69 3222.74 1940.47 Q3225.68 1938.25 3231.49 1938.25 L3237.46 1938.25 L3237.46 1937.83 Q3237.46 1934.89 3235.52 1933.3 Q3233.6 1931.68 3230.1 1931.68 Q3227.88 1931.68 3225.77 1932.21 Q3223.67 1932.74 3221.72 1933.81 L3221.72 1929.87 Q3224.06 1928.97 3226.26 1928.53 Q3228.46 1928.06 3230.54 1928.06 Q3236.17 1928.06 3238.94 1930.98 Q3241.72 1933.9 3241.72 1939.82 Z" fill="#000000" fill-rule="nonzero" fill-opacity="1" /><path clip-path="url(#clip590)" d="M3267.55 1932.62 L3267.55 1918.6 L3271.81 1918.6 L3271.81 1954.62 L3267.55 1954.62 L3267.55 1950.73 Q3266.21 1953.04 3264.15 1954.18 Q3262.11 1955.29 3259.24 1955.29 Q3254.55 1955.29 3251.58 1951.54 Q3248.64 1947.79 3248.64 1941.68 Q3248.64 1935.56 3251.58 1931.81 Q3254.55 1928.06 3259.24 1928.06 Q3262.11 1928.06 3264.15 1929.2 Q3266.21 1930.31 3267.55 1932.62 M3253.04 1941.68 Q3253.04 1946.37 3254.96 1949.06 Q3256.91 1951.72 3260.29 1951.72 Q3263.67 1951.72 3265.61 1949.06 Q3267.55 1946.37 3267.55 1941.68 Q3267.55 1936.98 3265.61 1934.31 Q3263.67 1931.63 3260.29 1931.63 Q3256.91 1931.63 3254.96 1934.31 Q3253.04 1936.98 3253.04 1941.68 Z" fill="#000000" fill-rule="nonzero" fill-opacity="1" /><path clip-path="url(#clip590)" d="M3302.14 1938.97 L3302.14 1954.62 L3297.88 1954.62 L3297.88 1939.11 Q3297.88 1935.43 3296.44 1933.6 Q3295.01 1931.77 3292.14 1931.77 Q3288.69 1931.77 3286.7 1933.97 Q3284.71 1936.17 3284.71 1939.96 L3284.71 1954.62 L3280.42 1954.62 L3280.42 1928.69 L3284.71 1928.69 L3284.71 1932.72 Q3286.23 1930.38 3288.3 1929.22 Q3290.38 1928.06 3293.09 1928.06 Q3297.55 1928.06 3299.85 1930.84 Q3302.14 1933.6 3302.14 1938.97 Z" fill="#000000" fill-rule="nonzero" fill-opacity="1" /><path clip-path="url(#clip590)" d="M3310.63 1918.6 L3314.89 1918.6 L3314.89 1954.62 L3310.63 1954.62 L3310.63 1918.6 Z" fill="#000000" fill-rule="nonzero" fill-opacity="1" /><path clip-path="url(#clip590)" d="M3327.92 1950.73 L3327.92 1964.48 L3323.64 1964.48 L3323.64 1928.69 L3327.92 1928.69 L3327.92 1932.62 Q3329.27 1930.31 3331.3 1929.2 Q3333.36 1928.06 3336.21 1928.06 Q3340.93 1928.06 3343.87 1931.81 Q3346.84 1935.56 3346.84 1941.68 Q3346.84 1947.79 3343.87 1951.54 Q3340.93 1955.29 3336.21 1955.29 Q3333.36 1955.29 3331.3 1954.18 Q3329.27 1953.04 3327.92 1950.73 M3342.42 1941.68 Q3342.42 1936.98 3340.47 1934.31 Q3338.55 1931.63 3335.17 1931.63 Q3331.79 1931.63 3329.85 1934.31 Q3327.92 1936.98 3327.92 1941.68 Q3327.92 1946.37 3329.85 1949.06 Q3331.79 1951.72 3335.17 1951.72 Q3338.55 1951.72 3340.47 1949.06 Q3342.42 1946.37 3342.42 1941.68 Z" fill="#000000" fill-rule="nonzero" fill-opacity="1" /><path clip-path="url(#clip590)" d="M3353.23 1918.64 L3356.93 1918.64 Q3360.4 1924.11 3362.11 1929.34 Q3363.85 1934.57 3363.85 1939.73 Q3363.85 1944.92 3362.11 1950.17 Q3360.4 1955.43 3356.93 1960.87 L3353.23 1960.87 Q3356.3 1955.56 3357.81 1950.33 Q3359.34 1945.08 3359.34 1939.73 Q3359.34 1934.38 3357.81 1929.18 Q3356.3 1923.97 3353.23 1918.64 Z" fill="#000000" fill-rule="nonzero" fill-opacity="1" /><polyline clip-path="url(#clip590)" style="stroke:#9370db; stroke-linecap:round; stroke-linejoin:round; stroke-width:6; stroke-opacity:1; fill:none" points="2792.49,1989.18 3005.32,1989.18 "/>
<path clip-path="url(#clip590)" d="M2924.5 1963.58 L2873.3 1963.58 L2898.9 2014.78 L2924.5 1963.58 Z" fill="#9370db" fill-rule="evenodd" fill-opacity="1" stroke="none"/>
<path clip-path="url(#clip590)" d="M3051.42 1970.48 Q3048.32 1975.81 3046.81 1981.02 Q3045.31 1986.22 3045.31 1991.57 Q3045.31 1996.92 3046.81 2002.17 Q3048.34 2007.4 3051.42 2012.71 L3047.72 2012.71 Q3044.25 2007.27 3042.51 2002.01 Q3040.8 1996.76 3040.8 1991.57 Q3040.8 1986.41 3042.51 1981.18 Q3044.22 1975.95 3047.72 1970.48 L3051.42 1970.48 Z" fill="#000000" fill-rule="nonzero" fill-opacity="1" /><path clip-path="url(#clip590)" d="M3059.69 1980.53 L3063.94 1980.53 L3063.94 2006.92 Q3063.94 2011.87 3062.05 2014.09 Q3060.17 2016.32 3055.98 2016.32 L3054.36 2016.32 L3054.36 2012.71 L3055.5 2012.71 Q3057.93 2012.71 3058.81 2011.57 Q3059.69 2010.46 3059.69 2006.92 L3059.69 1980.53 M3059.69 1970.44 L3063.94 1970.44 L3063.94 1975.83 L3059.69 1975.83 L3059.69 1970.44 Z" fill="#000000" fill-rule="nonzero" fill-opacity="1" /><path clip-path="url(#clip590)" d="M3072.42 1996.22 L3072.42 1980.53 L3076.68 1980.53 L3076.68 1996.06 Q3076.68 1999.74 3078.11 2001.59 Q3079.55 2003.42 3082.42 2003.42 Q3085.87 2003.42 3087.86 2001.22 Q3089.87 1999.03 3089.87 1995.23 L3089.87 1980.53 L3094.13 1980.53 L3094.13 2006.46 L3089.87 2006.46 L3089.87 2002.47 Q3088.32 2004.84 3086.26 2005.99 Q3084.22 2007.13 3081.51 2007.13 Q3077.05 2007.13 3074.73 2004.35 Q3072.42 2001.57 3072.42 1996.22 M3083.13 1979.9 L3083.13 1979.9 Z" fill="#000000" fill-rule="nonzero" fill-opacity="1" /><path clip-path="url(#clip590)" d="M3123.09 1985.51 Q3124.68 1982.64 3126.91 1981.27 Q3129.13 1979.9 3132.14 1979.9 Q3136.19 1979.9 3138.39 1982.75 Q3140.59 1985.58 3140.59 1990.81 L3140.59 2006.46 L3136.31 2006.46 L3136.31 1990.95 Q3136.31 1987.22 3134.99 1985.41 Q3133.67 1983.61 3130.96 1983.61 Q3127.65 1983.61 3125.73 1985.81 Q3123.81 1988.01 3123.81 1991.8 L3123.81 2006.46 L3119.52 2006.46 L3119.52 1990.95 Q3119.52 1987.2 3118.2 1985.41 Q3116.88 1983.61 3114.13 1983.61 Q3110.87 1983.61 3108.94 1985.83 Q3107.02 1988.03 3107.02 1991.8 L3107.02 2006.46 L3102.74 2006.46 L3102.74 1980.53 L3107.02 1980.53 L3107.02 1984.56 Q3108.48 1982.17 3110.52 1981.04 Q3112.56 1979.9 3115.36 1979.9 Q3118.18 1979.9 3120.15 1981.34 Q3122.14 1982.78 3123.09 1985.51 Z" fill="#000000" fill-rule="nonzero" fill-opacity="1" /><path clip-path="url(#clip590)" d="M3153.2 2002.57 L3153.2 2016.32 L3148.92 2016.32 L3148.92 1980.53 L3153.2 1980.53 L3153.2 1984.46 Q3154.55 1982.15 3156.58 1981.04 Q3158.64 1979.9 3161.49 1979.9 Q3166.21 1979.9 3169.15 1983.65 Q3172.12 1987.4 3172.12 1993.52 Q3172.12 1999.63 3169.15 2003.38 Q3166.21 2007.13 3161.49 2007.13 Q3158.64 2007.13 3156.58 2006.02 Q3154.55 2004.88 3153.2 2002.57 M3167.69 1993.52 Q3167.69 1988.82 3165.75 1986.15 Q3163.83 1983.47 3160.45 1983.47 Q3157.07 1983.47 3155.12 1986.15 Q3153.2 1988.82 3153.2 1993.52 Q3153.2 1998.21 3155.12 2000.9 Q3157.07 2003.56 3160.45 2003.56 Q3163.83 2003.56 3165.75 2000.9 Q3167.69 1998.21 3167.69 1993.52 Z" fill="#000000" fill-rule="nonzero" fill-opacity="1" /><path clip-path="url(#clip590)" d="M3180.26 2000.58 L3185.15 2000.58 L3185.15 2004.56 L3181.35 2011.96 L3178.37 2011.96 L3180.26 2004.56 L3180.26 2000.58 Z" fill="#000000" fill-rule="nonzero" fill-opacity="1" /><path clip-path="url(#clip590)" d="M3209.31 1980.53 L3213.57 1980.53 L3213.57 2006.46 L3209.31 2006.46 L3209.31 1980.53 M3209.31 1970.44 L3213.57 1970.44 L3213.57 1975.83 L3209.31 1975.83 L3209.31 1970.44 Z" fill="#000000" fill-rule="nonzero" fill-opacity="1" /><path clip-path="url(#clip590)" d="M3226.61 2002.57 L3226.61 2016.32 L3222.32 2016.32 L3222.32 1980.53 L3226.61 1980.53 L3226.61 1984.46 Q3227.95 1982.15 3229.99 1981.04 Q3232.05 1979.9 3234.89 1979.9 Q3239.61 1979.9 3242.55 1983.65 Q3245.52 1987.4 3245.52 1993.52 Q3245.52 1999.63 3242.55 2003.38 Q3239.61 2007.13 3234.89 2007.13 Q3232.05 2007.13 3229.99 2006.02 Q3227.95 2004.88 3226.61 2002.57 M3241.1 1993.52 Q3241.1 1988.82 3239.15 1986.15 Q3237.23 1983.47 3233.85 1983.47 Q3230.47 1983.47 3228.53 1986.15 Q3226.61 1988.82 3226.61 1993.52 Q3226.61 1998.21 3228.53 2000.9 Q3230.47 2003.56 3233.85 2003.56 Q3237.23 2003.56 3239.15 2000.9 Q3241.1 1998.21 3241.1 1993.52 Z" fill="#000000" fill-rule="nonzero" fill-opacity="1" /><path clip-path="url(#clip590)" d="M3262.62 1983.52 Q3259.2 1983.52 3257.21 1986.2 Q3255.22 1988.86 3255.22 1993.52 Q3255.22 1998.17 3257.18 2000.85 Q3259.17 2003.52 3262.62 2003.52 Q3266.03 2003.52 3268.02 2000.83 Q3270.01 1998.15 3270.01 1993.52 Q3270.01 1988.91 3268.02 1986.22 Q3266.03 1983.52 3262.62 1983.52 M3262.62 1979.9 Q3268.18 1979.9 3271.35 1983.52 Q3274.52 1987.13 3274.52 1993.52 Q3274.52 1999.88 3271.35 2003.52 Q3268.18 2007.13 3262.62 2007.13 Q3257.05 2007.13 3253.87 2003.52 Q3250.73 1999.88 3250.73 1993.52 Q3250.73 1987.13 3253.87 1983.52 Q3257.05 1979.9 3262.62 1979.9 Z" fill="#000000" fill-rule="nonzero" fill-opacity="1" /><path clip-path="url(#clip590)" d="M3285.7 2002.57 L3285.7 2016.32 L3281.42 2016.32 L3281.42 1980.53 L3285.7 1980.53 L3285.7 1984.46 Q3287.05 1982.15 3289.08 1981.04 Q3291.14 1979.9 3293.99 1979.9 Q3298.71 1979.9 3301.65 1983.65 Q3304.61 1987.4 3304.61 1993.52 Q3304.61 1999.63 3301.65 2003.38 Q3298.71 2007.13 3293.99 2007.13 Q3291.14 2007.13 3289.08 2006.02 Q3287.05 2004.88 3285.7 2002.57 M3300.19 1993.52 Q3300.19 1988.82 3298.25 1986.15 Q3296.33 1983.47 3292.95 1983.47 Q3289.57 1983.47 3287.62 1986.15 Q3285.7 1988.82 3285.7 1993.52 Q3285.7 1998.21 3287.62 2000.9 Q3289.57 2003.56 3292.95 2003.56 Q3296.33 2003.56 3298.25 2000.9 Q3300.19 1998.21 3300.19 1993.52 Z" fill="#000000" fill-rule="nonzero" fill-opacity="1" /><path clip-path="url(#clip590)" d="M3315.89 1973.17 L3315.89 1980.53 L3324.66 1980.53 L3324.66 1983.84 L3315.89 1983.84 L3315.89 1997.91 Q3315.89 2001.09 3316.74 2001.99 Q3317.62 2002.89 3320.29 2002.89 L3324.66 2002.89 L3324.66 2006.46 L3320.29 2006.46 Q3315.36 2006.46 3313.48 2004.63 Q3311.61 2002.78 3311.61 1997.91 L3311.61 1983.84 L3308.48 1983.84 L3308.48 1980.53 L3311.61 1980.53 L3311.61 1973.17 L3315.89 1973.17 Z" fill="#000000" fill-rule="nonzero" fill-opacity="1" /><path clip-path="url(#clip590)" d="M3329.59 1970.48 L3333.29 1970.48 Q3336.77 1975.95 3338.48 1981.18 Q3340.22 1986.41 3340.22 1991.57 Q3340.22 1996.76 3338.48 2002.01 Q3336.77 2007.27 3333.29 2012.71 L3329.59 2012.71 Q3332.67 2007.4 3334.17 2002.17 Q3335.7 1996.92 3335.7 1991.57 Q3335.7 1986.22 3334.17 1981.02 Q3332.67 1975.81 3329.59 1970.48 Z" fill="#000000" fill-rule="nonzero" fill-opacity="1" /><polyline clip-path="url(#clip590)" style="stroke:#a0522d; stroke-linecap:round; stroke-linejoin:round; stroke-width:6; stroke-opacity:1; fill:none" points="2792.49,2041.02 3005.32,2041.02 "/>
<path clip-path="url(#clip590)" d="M2898.9 2015.42 L2892.89 2032.72 L2874.56 2033.11 L2889.18 2044.19 L2883.85 2061.73 L2898.9 2051.26 L2913.96 2061.73 L2908.63 2044.19 L2923.25 2033.11 L2904.92 2032.72 L2898.9 2015.42 Z" fill="#a0522d" fill-rule="evenodd" fill-opacity="1" stroke="none"/>
<path clip-path="url(#clip590)" d="M3051.42 2022.32 Q3048.32 2027.65 3046.81 2032.86 Q3045.31 2038.06 3045.31 2043.41 Q3045.31 2048.76 3046.81 2054.01 Q3048.34 2059.24 3051.42 2064.55 L3047.72 2064.55 Q3044.25 2059.11 3042.51 2053.85 Q3040.8 2048.6 3040.8 2043.41 Q3040.8 2038.25 3042.51 2033.02 Q3044.22 2027.79 3047.72 2022.32 L3051.42 2022.32 Z" fill="#000000" fill-rule="nonzero" fill-opacity="1" /><path clip-path="url(#clip590)" d="M3059.69 2032.37 L3063.94 2032.37 L3063.94 2058.76 Q3063.94 2063.71 3062.05 2065.93 Q3060.17 2068.16 3055.98 2068.16 L3054.36 2068.16 L3054.36 2064.55 L3055.5 2064.55 Q3057.93 2064.55 3058.81 2063.41 Q3059.69 2062.3 3059.69 2058.76 L3059.69 2032.37 M3059.69 2022.28 L3063.94 2022.28 L3063.94 2027.67 L3059.69 2027.67 L3059.69 2022.28 Z" fill="#000000" fill-rule="nonzero" fill-opacity="1" /><path clip-path="url(#clip590)" d="M3072.42 2048.06 L3072.42 2032.37 L3076.68 2032.37 L3076.68 2047.9 Q3076.68 2051.58 3078.11 2053.43 Q3079.55 2055.26 3082.42 2055.26 Q3085.87 2055.26 3087.86 2053.06 Q3089.87 2050.87 3089.87 2047.07 L3089.87 2032.37 L3094.13 2032.37 L3094.13 2058.3 L3089.87 2058.3 L3089.87 2054.31 Q3088.32 2056.68 3086.26 2057.83 Q3084.22 2058.97 3081.51 2058.97 Q3077.05 2058.97 3074.73 2056.19 Q3072.42 2053.41 3072.42 2048.06 M3083.13 2031.74 L3083.13 2031.74 Z" fill="#000000" fill-rule="nonzero" fill-opacity="1" /><path clip-path="url(#clip590)" d="M3123.09 2037.35 Q3124.68 2034.48 3126.91 2033.11 Q3129.13 2031.74 3132.14 2031.74 Q3136.19 2031.74 3138.39 2034.59 Q3140.59 2037.42 3140.59 2042.65 L3140.59 2058.3 L3136.31 2058.3 L3136.31 2042.79 Q3136.31 2039.06 3134.99 2037.25 Q3133.67 2035.45 3130.96 2035.45 Q3127.65 2035.45 3125.73 2037.65 Q3123.81 2039.85 3123.81 2043.64 L3123.81 2058.3 L3119.52 2058.3 L3119.52 2042.79 Q3119.52 2039.04 3118.2 2037.25 Q3116.88 2035.45 3114.13 2035.45 Q3110.87 2035.45 3108.94 2037.67 Q3107.02 2039.87 3107.02 2043.64 L3107.02 2058.3 L3102.74 2058.3 L3102.74 2032.37 L3107.02 2032.37 L3107.02 2036.4 Q3108.48 2034.01 3110.52 2032.88 Q3112.56 2031.74 3115.36 2031.74 Q3118.18 2031.74 3120.15 2033.18 Q3122.14 2034.62 3123.09 2037.35 Z" fill="#000000" fill-rule="nonzero" fill-opacity="1" /><path clip-path="url(#clip590)" d="M3153.2 2054.41 L3153.2 2068.16 L3148.92 2068.16 L3148.92 2032.37 L3153.2 2032.37 L3153.2 2036.3 Q3154.55 2033.99 3156.58 2032.88 Q3158.64 2031.74 3161.49 2031.74 Q3166.21 2031.74 3169.15 2035.49 Q3172.12 2039.24 3172.12 2045.36 Q3172.12 2051.47 3169.15 2055.22 Q3166.21 2058.97 3161.49 2058.97 Q3158.64 2058.97 3156.58 2057.86 Q3154.55 2056.72 3153.2 2054.41 M3167.69 2045.36 Q3167.69 2040.66 3165.75 2037.99 Q3163.83 2035.31 3160.45 2035.31 Q3157.07 2035.31 3155.12 2037.99 Q3153.2 2040.66 3153.2 2045.36 Q3153.2 2050.05 3155.12 2052.74 Q3157.07 2055.4 3160.45 2055.4 Q3163.83 2055.4 3165.75 2052.74 Q3167.69 2050.05 3167.69 2045.36 Z" fill="#000000" fill-rule="nonzero" fill-opacity="1" /><path clip-path="url(#clip590)" d="M3180.26 2052.42 L3185.15 2052.42 L3185.15 2056.4 L3181.35 2063.8 L3178.37 2063.8 L3180.26 2056.4 L3180.26 2052.42 Z" fill="#000000" fill-rule="nonzero" fill-opacity="1" /><path clip-path="url(#clip590)" d="M3229.5 2037.35 Q3231.1 2034.48 3233.32 2033.11 Q3235.54 2031.74 3238.55 2031.74 Q3242.6 2031.74 3244.8 2034.59 Q3247 2037.42 3247 2042.65 L3247 2058.3 L3242.72 2058.3 L3242.72 2042.79 Q3242.72 2039.06 3241.4 2037.25 Q3240.08 2035.45 3237.37 2035.45 Q3234.06 2035.45 3232.14 2037.65 Q3230.22 2039.85 3230.22 2043.64 L3230.22 2058.3 L3225.93 2058.3 L3225.93 2042.79 Q3225.93 2039.04 3224.61 2037.25 Q3223.3 2035.45 3220.54 2035.45 Q3217.28 2035.45 3215.36 2037.67 Q3213.43 2039.87 3213.43 2043.64 L3213.43 2058.3 L3209.15 2058.3 L3209.15 2032.37 L3213.43 2032.37 L3213.43 2036.4 Q3214.89 2034.01 3216.93 2032.88 Q3218.97 2031.74 3221.77 2031.74 Q3224.59 2031.74 3226.56 2033.18 Q3228.55 2034.62 3229.5 2037.35 Z" fill="#000000" fill-rule="nonzero" fill-opacity="1" /><path clip-path="url(#clip590)" d="M3267.28 2045.26 Q3262.11 2045.26 3260.12 2046.44 Q3258.13 2047.62 3258.13 2050.47 Q3258.13 2052.74 3259.61 2054.08 Q3261.12 2055.4 3263.69 2055.4 Q3267.23 2055.4 3269.36 2052.9 Q3271.51 2050.38 3271.51 2046.21 L3271.51 2045.26 L3267.28 2045.26 M3275.77 2043.5 L3275.77 2058.3 L3271.51 2058.3 L3271.51 2054.36 Q3270.05 2056.72 3267.88 2057.86 Q3265.7 2058.97 3262.55 2058.97 Q3258.57 2058.97 3256.21 2056.74 Q3253.87 2054.5 3253.87 2050.75 Q3253.87 2046.37 3256.79 2044.15 Q3259.73 2041.93 3265.54 2041.93 L3271.51 2041.93 L3271.51 2041.51 Q3271.51 2038.57 3269.57 2036.98 Q3267.65 2035.36 3264.15 2035.36 Q3261.93 2035.36 3259.82 2035.89 Q3257.72 2036.42 3255.77 2037.49 L3255.77 2033.55 Q3258.11 2032.65 3260.31 2032.21 Q3262.51 2031.74 3264.59 2031.74 Q3270.22 2031.74 3272.99 2034.66 Q3275.77 2037.58 3275.77 2043.5 Z" fill="#000000" fill-rule="nonzero" fill-opacity="1" /><path clip-path="url(#clip590)" d="M3301.61 2036.3 L3301.61 2022.28 L3305.86 2022.28 L3305.86 2058.3 L3301.61 2058.3 L3301.61 2054.41 Q3300.26 2056.72 3298.2 2057.86 Q3296.17 2058.97 3293.3 2058.97 Q3288.6 2058.97 3285.63 2055.22 Q3282.69 2051.47 3282.69 2045.36 Q3282.69 2039.24 3285.63 2035.49 Q3288.6 2031.74 3293.3 2031.74 Q3296.17 2031.74 3298.2 2032.88 Q3300.26 2033.99 3301.61 2036.3 M3287.09 2045.36 Q3287.09 2050.05 3289.01 2052.74 Q3290.96 2055.4 3294.34 2055.4 Q3297.72 2055.4 3299.66 2052.74 Q3301.61 2050.05 3301.61 2045.36 Q3301.61 2040.66 3299.66 2037.99 Q3297.72 2035.31 3294.34 2035.31 Q3290.96 2035.31 3289.01 2037.99 Q3287.09 2040.66 3287.09 2045.36 Z" fill="#000000" fill-rule="nonzero" fill-opacity="1" /><path clip-path="url(#clip590)" d="M3336.19 2042.65 L3336.19 2058.3 L3331.93 2058.3 L3331.93 2042.79 Q3331.93 2039.11 3330.49 2037.28 Q3329.06 2035.45 3326.19 2035.45 Q3322.74 2035.45 3320.75 2037.65 Q3318.76 2039.85 3318.76 2043.64 L3318.76 2058.3 L3314.48 2058.3 L3314.48 2032.37 L3318.76 2032.37 L3318.76 2036.4 Q3320.29 2034.06 3322.35 2032.9 Q3324.43 2031.74 3327.14 2031.74 Q3331.61 2031.74 3333.9 2034.52 Q3336.19 2037.28 3336.19 2042.65 Z" fill="#000000" fill-rule="nonzero" fill-opacity="1" /><path clip-path="url(#clip590)" d="M3344.68 2022.28 L3348.94 2022.28 L3348.94 2058.3 L3344.68 2058.3 L3344.68 2022.28 Z" fill="#000000" fill-rule="nonzero" fill-opacity="1" /><path clip-path="url(#clip590)" d="M3361.98 2054.41 L3361.98 2068.16 L3357.69 2068.16 L3357.69 2032.37 L3361.98 2032.37 L3361.98 2036.3 Q3363.32 2033.99 3365.35 2032.88 Q3367.42 2031.74 3370.26 2031.74 Q3374.98 2031.74 3377.92 2035.49 Q3380.89 2039.24 3380.89 2045.36 Q3380.89 2051.47 3377.92 2055.22 Q3374.98 2058.97 3370.26 2058.97 Q3367.42 2058.97 3365.35 2057.86 Q3363.32 2056.72 3361.98 2054.41 M3376.47 2045.36 Q3376.47 2040.66 3374.52 2037.99 Q3372.6 2035.31 3369.22 2035.31 Q3365.84 2035.31 3363.9 2037.99 Q3361.98 2040.66 3361.98 2045.36 Q3361.98 2050.05 3363.9 2052.74 Q3365.84 2055.4 3369.22 2055.4 Q3372.6 2055.4 3374.52 2052.74 Q3376.47 2050.05 3376.47 2045.36 Z" fill="#000000" fill-rule="nonzero" fill-opacity="1" /><path clip-path="url(#clip590)" d="M3387.28 2022.32 L3390.98 2022.32 Q3394.45 2027.79 3396.16 2033.02 Q3397.9 2038.25 3397.9 2043.41 Q3397.9 2048.6 3396.16 2053.85 Q3394.45 2059.11 3390.98 2064.55 L3387.28 2064.55 Q3390.35 2059.24 3391.86 2054.01 Q3393.39 2048.76 3393.39 2043.41 Q3393.39 2038.06 3391.86 2032.86 Q3390.35 2027.65 3387.28 2022.32 Z" fill="#000000" fill-rule="nonzero" fill-opacity="1" /></svg>
