<?xml version="1.0" encoding="utf-8"?>
<svg xmlns="http://www.w3.org/2000/svg" xmlns:xlink="http://www.w3.org/1999/xlink" width="900" height="600" viewBox="0 0 3600 2400">
<defs>
  <clipPath id="clip040">
    <rect x="0" y="0" width="3600" height="2400"/>
  </clipPath>
</defs>
<path clip-path="url(#clip040)" d="M0 2400 L3600 2400 L3600 0 L0 0  Z" fill="#ffffff" fill-rule="evenodd" fill-opacity="1"/>
<defs>
  <clipPath id="clip041">
    <rect x="244" y="246" width="3309" height="1911"/>
  </clipPath>
</defs>
<path clip-path="url(#clip040)" d="M322.044 2156.51 L3552.76 2156.51 L3552.76 246.944 L322.044 246.944  Z" fill="#ffffff" fill-rule="evenodd" fill-opacity="1"/>
<defs>
  <clipPath id="clip042">
    <rect x="322" y="246" width="3232" height="1911"/>
  </clipPath>
</defs>
<polyline clip-path="url(#clip042)" style="stroke:#000000; stroke-linecap:round; stroke-linejoin:round; stroke-width:2; stroke-opacity:0.1; fill:none" points="882.378,2156.51 882.378,246.944 "/>
<polyline clip-path="url(#clip042)" style="stroke:#000000; stroke-linecap:round; stroke-linejoin:round; stroke-width:2; stroke-opacity:0.1; fill:none" points="1468.5,2156.51 1468.5,246.944 "/>
<polyline clip-path="url(#clip042)" style="stroke:#000000; stroke-linecap:round; stroke-linejoin:round; stroke-width:2; stroke-opacity:0.1; fill:none" points="2054.62,2156.51 2054.62,246.944 "/>
<polyline clip-path="url(#clip042)" style="stroke:#000000; stroke-linecap:round; stroke-linejoin:round; stroke-width:2; stroke-opacity:0.1; fill:none" points="2640.75,2156.51 2640.75,246.944 "/>
<polyline clip-path="url(#clip042)" style="stroke:#000000; stroke-linecap:round; stroke-linejoin:round; stroke-width:2; stroke-opacity:0.1; fill:none" points="3226.87,2156.51 3226.87,246.944 "/>
<polyline clip-path="url(#clip042)" style="stroke:#000000; stroke-linecap:round; stroke-linejoin:round; stroke-width:2; stroke-opacity:0.1; fill:none" points="322.044,2073.79 3552.76,2073.79 "/>
<polyline clip-path="url(#clip042)" style="stroke:#000000; stroke-linecap:round; stroke-linejoin:round; stroke-width:2; stroke-opacity:0.1; fill:none" points="322.044,888.513 3552.76,888.513 "/>
<polyline clip-path="url(#clip040)" style="stroke:#000000; stroke-linecap:round; stroke-linejoin:round; stroke-width:4; stroke-opacity:1; fill:none" points="322.044,2156.51 3552.76,2156.51 "/>
<polyline clip-path="url(#clip040)" style="stroke:#000000; stroke-linecap:round; stroke-linejoin:round; stroke-width:4; stroke-opacity:1; fill:none" points="882.378,2156.51 882.378,2137.61 "/>
<polyline clip-path="url(#clip040)" style="stroke:#000000; stroke-linecap:round; stroke-linejoin:round; stroke-width:4; stroke-opacity:1; fill:none" points="1468.5,2156.51 1468.5,2137.61 "/>
<polyline clip-path="url(#clip040)" style="stroke:#000000; stroke-linecap:round; stroke-linejoin:round; stroke-width:4; stroke-opacity:1; fill:none" points="2054.62,2156.51 2054.62,2137.61 "/>
<polyline clip-path="url(#clip040)" style="stroke:#000000; stroke-linecap:round; stroke-linejoin:round; stroke-width:4; stroke-opacity:1; fill:none" points="2640.75,2156.51 2640.75,2137.61 "/>
<polyline clip-path="url(#clip040)" style="stroke:#000000; stroke-linecap:round; stroke-linejoin:round; stroke-width:4; stroke-opacity:1; fill:none" points="3226.87,2156.51 3226.87,2137.61 "/>
<path clip-path="url(#clip040)" d="M838.536 2224.57 L854.855 2224.57 L854.855 2228.51 L832.911 2228.51 L832.911 2224.57 Q835.573 2221.82 840.156 2217.19 Q844.763 2212.54 845.943 2211.19 Q848.189 2208.67 849.068 2206.93 Q849.971 2205.17 849.971 2203.48 Q849.971 2200.73 848.027 2198.99 Q846.105 2197.26 843.003 2197.26 Q840.804 2197.26 838.351 2198.02 Q835.92 2198.79 833.142 2200.34 L833.142 2195.61 Q835.966 2194.48 838.42 2193.9 Q840.874 2193.32 842.911 2193.32 Q848.281 2193.32 851.476 2196.01 Q854.67 2198.69 854.67 2203.18 Q854.67 2205.31 853.86 2207.23 Q853.073 2209.13 850.966 2211.73 Q850.388 2212.4 847.286 2215.61 Q844.184 2218.81 838.536 2224.57 Z" fill="#000000" fill-rule="nonzero" fill-opacity="1" /><path clip-path="url(#clip040)" d="M874.67 2197.03 Q871.059 2197.03 869.23 2200.59 Q867.425 2204.13 867.425 2211.26 Q867.425 2218.37 869.23 2221.93 Q871.059 2225.48 874.67 2225.48 Q878.304 2225.48 880.11 2221.93 Q881.938 2218.37 881.938 2211.26 Q881.938 2204.13 880.11 2200.59 Q878.304 2197.03 874.67 2197.03 M874.67 2193.32 Q880.48 2193.32 883.536 2197.93 Q886.614 2202.51 886.614 2211.26 Q886.614 2219.99 883.536 2224.6 Q880.48 2229.18 874.67 2229.18 Q868.86 2229.18 865.781 2224.6 Q862.725 2219.99 862.725 2211.26 Q862.725 2202.51 865.781 2197.93 Q868.86 2193.32 874.67 2193.32 Z" fill="#000000" fill-rule="nonzero" fill-opacity="1" /><path clip-path="url(#clip040)" d="M894.832 2222.63 L899.716 2222.63 L899.716 2228.51 L894.832 2228.51 L894.832 2222.63 Z" fill="#000000" fill-rule="nonzero" fill-opacity="1" /><path clip-path="url(#clip040)" d="M919.901 2197.03 Q916.29 2197.03 914.461 2200.59 Q912.656 2204.13 912.656 2211.26 Q912.656 2218.37 914.461 2221.93 Q916.29 2225.48 919.901 2225.48 Q923.535 2225.48 925.341 2221.93 Q927.17 2218.37 927.17 2211.26 Q927.17 2204.13 925.341 2200.59 Q923.535 2197.03 919.901 2197.03 M919.901 2193.32 Q925.711 2193.32 928.767 2197.93 Q931.845 2202.51 931.845 2211.26 Q931.845 2219.99 928.767 2224.6 Q925.711 2229.18 919.901 2229.18 Q914.091 2229.18 911.012 2224.6 Q907.957 2219.99 907.957 2211.26 Q907.957 2202.51 911.012 2197.93 Q914.091 2193.32 919.901 2193.32 Z" fill="#000000" fill-rule="nonzero" fill-opacity="1" /><path clip-path="url(#clip040)" d="M1425.16 2224.57 L1441.48 2224.57 L1441.48 2228.51 L1419.53 2228.51 L1419.53 2224.57 Q1422.19 2221.82 1426.78 2217.19 Q1431.38 2212.54 1432.56 2211.19 Q1434.81 2208.67 1435.69 2206.93 Q1436.59 2205.17 1436.59 2203.48 Q1436.59 2200.73 1434.65 2198.99 Q1432.73 2197.26 1429.62 2197.26 Q1427.43 2197.26 1424.97 2198.02 Q1422.54 2198.79 1419.76 2200.34 L1419.76 2195.61 Q1422.59 2194.48 1425.04 2193.9 Q1427.49 2193.32 1429.53 2193.32 Q1434.9 2193.32 1438.1 2196.01 Q1441.29 2198.69 1441.29 2203.18 Q1441.29 2205.31 1440.48 2207.23 Q1439.69 2209.13 1437.59 2211.73 Q1437.01 2212.4 1433.91 2215.61 Q1430.8 2218.81 1425.16 2224.57 Z" fill="#000000" fill-rule="nonzero" fill-opacity="1" /><path clip-path="url(#clip040)" d="M1455.32 2224.57 L1471.64 2224.57 L1471.64 2228.51 L1449.69 2228.51 L1449.69 2224.57 Q1452.36 2221.82 1456.94 2217.19 Q1461.55 2212.54 1462.73 2211.19 Q1464.97 2208.67 1465.85 2206.93 Q1466.75 2205.17 1466.75 2203.48 Q1466.75 2200.73 1464.81 2198.99 Q1462.89 2197.26 1459.79 2197.26 Q1457.59 2197.26 1455.13 2198.02 Q1452.7 2198.79 1449.93 2200.34 L1449.93 2195.61 Q1452.75 2194.48 1455.2 2193.9 Q1457.66 2193.32 1459.69 2193.32 Q1465.06 2193.32 1468.26 2196.01 Q1471.45 2198.69 1471.45 2203.18 Q1471.45 2205.31 1470.64 2207.23 Q1469.86 2209.13 1467.75 2211.73 Q1467.17 2212.4 1464.07 2215.61 Q1460.97 2218.81 1455.32 2224.57 Z" fill="#000000" fill-rule="nonzero" fill-opacity="1" /><path clip-path="url(#clip040)" d="M1481.45 2222.63 L1486.34 2222.63 L1486.34 2228.51 L1481.45 2228.51 L1481.45 2222.63 Z" fill="#000000" fill-rule="nonzero" fill-opacity="1" /><path clip-path="url(#clip040)" d="M1496.57 2193.95 L1514.92 2193.95 L1514.92 2197.88 L1500.85 2197.88 L1500.85 2206.36 Q1501.87 2206.01 1502.89 2205.85 Q1503.91 2205.66 1504.92 2205.66 Q1510.71 2205.66 1514.09 2208.83 Q1517.47 2212 1517.47 2217.42 Q1517.47 2223 1514 2226.1 Q1510.53 2229.18 1504.21 2229.18 Q1502.03 2229.18 1499.76 2228.81 Q1497.52 2228.44 1495.11 2227.7 L1495.11 2223 Q1497.19 2224.13 1499.42 2224.69 Q1501.64 2225.24 1504.11 2225.24 Q1508.12 2225.24 1510.46 2223.14 Q1512.8 2221.03 1512.8 2217.42 Q1512.8 2213.81 1510.46 2211.7 Q1508.12 2209.6 1504.11 2209.6 Q1502.24 2209.6 1500.36 2210.01 Q1498.51 2210.43 1496.57 2211.31 L1496.57 2193.95 Z" fill="#000000" fill-rule="nonzero" fill-opacity="1" /><path clip-path="url(#clip040)" d="M2010.78 2224.57 L2027.1 2224.57 L2027.1 2228.51 L2005.16 2228.51 L2005.16 2224.57 Q2007.82 2221.82 2012.4 2217.19 Q2017.01 2212.54 2018.19 2211.19 Q2020.44 2208.67 2021.31 2206.93 Q2022.22 2205.17 2022.22 2203.48 Q2022.22 2200.73 2020.27 2198.99 Q2018.35 2197.26 2015.25 2197.26 Q2013.05 2197.26 2010.6 2198.02 Q2008.17 2198.79 2005.39 2200.34 L2005.39 2195.61 Q2008.21 2194.48 2010.67 2193.9 Q2013.12 2193.32 2015.16 2193.32 Q2020.53 2193.32 2023.72 2196.01 Q2026.92 2198.69 2026.92 2203.18 Q2026.92 2205.31 2026.11 2207.23 Q2025.32 2209.13 2023.21 2211.73 Q2022.63 2212.4 2019.53 2215.61 Q2016.43 2218.81 2010.78 2224.57 Z" fill="#000000" fill-rule="nonzero" fill-opacity="1" /><path clip-path="url(#clip040)" d="M2036.96 2193.95 L2055.32 2193.95 L2055.32 2197.88 L2041.25 2197.88 L2041.25 2206.36 Q2042.26 2206.01 2043.28 2205.85 Q2044.3 2205.66 2045.32 2205.66 Q2051.11 2205.66 2054.49 2208.83 Q2057.87 2212 2057.87 2217.42 Q2057.87 2223 2054.39 2226.1 Q2050.92 2229.18 2044.6 2229.18 Q2042.43 2229.18 2040.16 2228.81 Q2037.91 2228.44 2035.5 2227.7 L2035.5 2223 Q2037.59 2224.13 2039.81 2224.69 Q2042.03 2225.24 2044.51 2225.24 Q2048.51 2225.24 2050.85 2223.14 Q2053.19 2221.03 2053.19 2217.42 Q2053.19 2213.81 2050.85 2211.7 Q2048.51 2209.6 2044.51 2209.6 Q2042.63 2209.6 2040.76 2210.01 Q2038.91 2210.43 2036.96 2211.31 L2036.96 2193.95 Z" fill="#000000" fill-rule="nonzero" fill-opacity="1" /><path clip-path="url(#clip040)" d="M2067.08 2222.63 L2071.96 2222.63 L2071.96 2228.51 L2067.08 2228.51 L2067.08 2222.63 Z" fill="#000000" fill-rule="nonzero" fill-opacity="1" /><path clip-path="url(#clip040)" d="M2092.15 2197.03 Q2088.54 2197.03 2086.71 2200.59 Q2084.9 2204.13 2084.9 2211.26 Q2084.9 2218.37 2086.71 2221.93 Q2088.54 2225.48 2092.15 2225.48 Q2095.78 2225.48 2097.59 2221.93 Q2099.42 2218.37 2099.42 2211.26 Q2099.42 2204.13 2097.59 2200.59 Q2095.78 2197.03 2092.15 2197.03 M2092.15 2193.32 Q2097.96 2193.32 2101.01 2197.93 Q2104.09 2202.51 2104.09 2211.26 Q2104.09 2219.99 2101.01 2224.6 Q2097.96 2229.18 2092.15 2229.18 Q2086.34 2229.18 2083.26 2224.6 Q2080.2 2219.99 2080.2 2211.26 Q2080.2 2202.51 2083.26 2197.93 Q2086.34 2193.32 2092.15 2193.32 Z" fill="#000000" fill-rule="nonzero" fill-opacity="1" /><path clip-path="url(#clip040)" d="M2597.4 2224.57 L2613.72 2224.57 L2613.72 2228.51 L2591.78 2228.51 L2591.78 2224.57 Q2594.44 2221.82 2599.02 2217.19 Q2603.63 2212.54 2604.81 2211.19 Q2607.06 2208.67 2607.94 2206.93 Q2608.84 2205.17 2608.84 2203.48 Q2608.84 2200.73 2606.89 2198.99 Q2604.97 2197.26 2601.87 2197.26 Q2599.67 2197.26 2597.22 2198.02 Q2594.79 2198.79 2592.01 2200.34 L2592.01 2195.61 Q2594.83 2194.48 2597.29 2193.9 Q2599.74 2193.32 2601.78 2193.32 Q2607.15 2193.32 2610.34 2196.01 Q2613.54 2198.69 2613.54 2203.18 Q2613.54 2205.31 2612.73 2207.23 Q2611.94 2209.13 2609.83 2211.73 Q2609.26 2212.4 2606.15 2215.61 Q2603.05 2218.81 2597.4 2224.57 Z" fill="#000000" fill-rule="nonzero" fill-opacity="1" /><path clip-path="url(#clip040)" d="M2622.36 2193.95 L2644.58 2193.95 L2644.58 2195.94 L2632.03 2228.51 L2627.15 2228.51 L2638.95 2197.88 L2622.36 2197.88 L2622.36 2193.95 Z" fill="#000000" fill-rule="nonzero" fill-opacity="1" /><path clip-path="url(#clip040)" d="M2653.7 2222.63 L2658.58 2222.63 L2658.58 2228.51 L2653.7 2228.51 L2653.7 2222.63 Z" fill="#000000" fill-rule="nonzero" fill-opacity="1" /><path clip-path="url(#clip040)" d="M2668.82 2193.95 L2687.17 2193.95 L2687.17 2197.88 L2673.1 2197.88 L2673.1 2206.36 Q2674.12 2206.01 2675.13 2205.85 Q2676.15 2205.66 2677.17 2205.66 Q2682.96 2205.66 2686.34 2208.83 Q2689.72 2212 2689.72 2217.42 Q2689.72 2223 2686.25 2226.1 Q2682.77 2229.18 2676.45 2229.18 Q2674.28 2229.18 2672.01 2228.81 Q2669.76 2228.44 2667.36 2227.7 L2667.36 2223 Q2669.44 2224.13 2671.66 2224.69 Q2673.88 2225.24 2676.36 2225.24 Q2680.37 2225.24 2682.7 2223.14 Q2685.04 2221.03 2685.04 2217.42 Q2685.04 2213.81 2682.7 2211.7 Q2680.37 2209.6 2676.36 2209.6 Q2674.49 2209.6 2672.61 2210.01 Q2670.76 2210.43 2668.82 2211.31 L2668.82 2193.95 Z" fill="#000000" fill-rule="nonzero" fill-opacity="1" /><path clip-path="url(#clip040)" d="M3193.1 2209.87 Q3196.45 2210.59 3198.33 2212.86 Q3200.23 2215.13 3200.23 2218.46 Q3200.23 2223.58 3196.71 2226.38 Q3193.19 2229.18 3186.71 2229.18 Q3184.53 2229.18 3182.22 2228.74 Q3179.93 2228.32 3177.47 2227.47 L3177.47 2222.95 Q3179.42 2224.09 3181.73 2224.67 Q3184.05 2225.24 3186.57 2225.24 Q3190.97 2225.24 3193.26 2223.51 Q3195.58 2221.77 3195.58 2218.46 Q3195.58 2215.41 3193.42 2213.69 Q3191.29 2211.96 3187.47 2211.96 L3183.45 2211.96 L3183.45 2208.11 L3187.66 2208.11 Q3191.11 2208.11 3192.94 2206.75 Q3194.77 2205.36 3194.77 2202.77 Q3194.77 2200.11 3192.87 2198.69 Q3190.99 2197.26 3187.47 2197.26 Q3185.55 2197.26 3183.35 2197.67 Q3181.15 2198.09 3178.52 2198.97 L3178.52 2194.8 Q3181.18 2194.06 3183.49 2193.69 Q3185.83 2193.32 3187.89 2193.32 Q3193.21 2193.32 3196.32 2195.75 Q3199.42 2198.16 3199.42 2202.28 Q3199.42 2205.15 3197.77 2207.14 Q3196.13 2209.11 3193.1 2209.87 Z" fill="#000000" fill-rule="nonzero" fill-opacity="1" /><path clip-path="url(#clip040)" d="M3219.09 2197.03 Q3215.48 2197.03 3213.65 2200.59 Q3211.85 2204.13 3211.85 2211.26 Q3211.85 2218.37 3213.65 2221.93 Q3215.48 2225.48 3219.09 2225.48 Q3222.73 2225.48 3224.53 2221.93 Q3226.36 2218.37 3226.36 2211.26 Q3226.36 2204.13 3224.53 2200.59 Q3222.73 2197.03 3219.09 2197.03 M3219.09 2193.32 Q3224.9 2193.32 3227.96 2197.93 Q3231.04 2202.51 3231.04 2211.26 Q3231.04 2219.99 3227.96 2224.6 Q3224.9 2229.18 3219.09 2229.18 Q3213.28 2229.18 3210.2 2224.6 Q3207.15 2219.99 3207.15 2211.26 Q3207.15 2202.51 3210.2 2197.93 Q3213.28 2193.32 3219.09 2193.32 Z" fill="#000000" fill-rule="nonzero" fill-opacity="1" /><path clip-path="url(#clip040)" d="M3239.26 2222.63 L3244.14 2222.63 L3244.14 2228.51 L3239.26 2228.51 L3239.26 2222.63 Z" fill="#000000" fill-rule="nonzero" fill-opacity="1" /><path clip-path="url(#clip040)" d="M3264.32 2197.03 Q3260.71 2197.03 3258.89 2200.59 Q3257.08 2204.13 3257.08 2211.26 Q3257.08 2218.37 3258.89 2221.93 Q3260.71 2225.48 3264.32 2225.48 Q3267.96 2225.48 3269.76 2221.93 Q3271.59 2218.37 3271.59 2211.26 Q3271.59 2204.13 3269.76 2200.59 Q3267.96 2197.03 3264.32 2197.03 M3264.32 2193.32 Q3270.14 2193.32 3273.19 2197.93 Q3276.27 2202.51 3276.27 2211.26 Q3276.27 2219.99 3273.19 2224.6 Q3270.14 2229.18 3264.32 2229.18 Q3258.51 2229.18 3255.44 2224.6 Q3252.38 2219.99 3252.38 2211.26 Q3252.38 2202.51 3255.44 2197.93 Q3258.51 2193.32 3264.32 2193.32 Z" fill="#000000" fill-rule="nonzero" fill-opacity="1" /><path clip-path="url(#clip040)" d="M1800.64 2270.99 L1806.48 2270.99 L1806.48 2314.19 L1800.64 2314.19 L1800.64 2270.99 Z" fill="#000000" fill-rule="nonzero" fill-opacity="1" /><path clip-path="url(#clip040)" d="M1823.15 2272.58 L1823.15 2281.78 L1834.12 2281.78 L1834.12 2285.92 L1823.15 2285.92 L1823.15 2303.51 Q1823.15 2307.47 1824.22 2308.6 Q1825.32 2309.73 1828.65 2309.73 L1834.12 2309.73 L1834.12 2314.19 L1828.65 2314.19 Q1822.48 2314.19 1820.14 2311.9 Q1817.8 2309.59 1817.8 2303.51 L1817.8 2285.92 L1813.89 2285.92 L1813.89 2281.78 L1817.8 2281.78 L1817.8 2272.58 L1823.15 2272.58 Z" fill="#000000" fill-rule="nonzero" fill-opacity="1" /><path clip-path="url(#clip040)" d="M1868.84 2296.65 L1868.84 2299.26 L1844.36 2299.26 Q1844.71 2304.75 1847.66 2307.65 Q1850.64 2310.51 1855.93 2310.51 Q1859 2310.51 1861.87 2309.76 Q1864.76 2309.01 1867.59 2307.5 L1867.59 2312.54 Q1864.73 2313.75 1861.72 2314.39 Q1858.71 2315.03 1855.62 2315.03 Q1847.86 2315.03 1843.32 2310.51 Q1838.8 2306 1838.8 2298.3 Q1838.8 2290.35 1843.09 2285.69 Q1847.4 2281 1854.69 2281 Q1861.23 2281 1865.02 2285.22 Q1868.84 2289.42 1868.84 2296.65 M1863.51 2295.09 Q1863.46 2290.72 1861.06 2288.12 Q1858.68 2285.51 1854.75 2285.51 Q1850.29 2285.51 1847.6 2288.03 Q1844.94 2290.55 1844.53 2295.12 L1863.51 2295.09 Z" fill="#000000" fill-rule="nonzero" fill-opacity="1" /><path clip-path="url(#clip040)" d="M1896.36 2286.76 Q1895.46 2286.24 1894.39 2286 Q1893.35 2285.74 1892.07 2285.74 Q1887.56 2285.74 1885.13 2288.7 Q1882.73 2291.62 1882.73 2297.12 L1882.73 2314.19 L1877.37 2314.19 L1877.37 2281.78 L1882.73 2281.78 L1882.73 2286.82 Q1884.41 2283.86 1887.1 2282.45 Q1889.79 2281 1893.64 2281 Q1894.19 2281 1894.85 2281.09 Q1895.52 2281.14 1896.33 2281.29 L1896.36 2286.76 Z" fill="#000000" fill-rule="nonzero" fill-opacity="1" /><path clip-path="url(#clip040)" d="M1916.67 2297.9 Q1910.22 2297.9 1907.73 2299.37 Q1905.24 2300.85 1905.24 2304.41 Q1905.24 2307.24 1907.09 2308.92 Q1908.97 2310.57 1912.18 2310.57 Q1916.61 2310.57 1919.27 2307.45 Q1921.96 2304.29 1921.96 2299.08 L1921.96 2297.9 L1916.67 2297.9 M1927.29 2295.7 L1927.29 2314.19 L1921.96 2314.19 L1921.96 2309.27 Q1920.14 2312.22 1917.42 2313.64 Q1914.7 2315.03 1910.77 2315.03 Q1905.79 2315.03 1902.84 2312.25 Q1899.91 2309.44 1899.91 2304.75 Q1899.91 2299.29 1903.56 2296.51 Q1907.24 2293.73 1914.5 2293.73 L1921.96 2293.73 L1921.96 2293.21 Q1921.96 2289.54 1919.53 2287.54 Q1917.13 2285.51 1912.76 2285.51 Q1909.98 2285.51 1907.35 2286.18 Q1904.72 2286.84 1902.29 2288.18 L1902.29 2283.26 Q1905.21 2282.13 1907.96 2281.58 Q1910.71 2281 1913.31 2281 Q1920.34 2281 1923.82 2284.65 Q1927.29 2288.29 1927.29 2295.7 Z" fill="#000000" fill-rule="nonzero" fill-opacity="1" /><path clip-path="url(#clip040)" d="M1943.52 2272.58 L1943.52 2281.78 L1954.49 2281.78 L1954.49 2285.92 L1943.52 2285.92 L1943.52 2303.51 Q1943.52 2307.47 1944.59 2308.6 Q1945.69 2309.73 1949.02 2309.73 L1954.49 2309.73 L1954.49 2314.19 L1949.02 2314.19 Q1942.85 2314.19 1940.51 2311.9 Q1938.17 2309.59 1938.17 2303.51 L1938.17 2285.92 L1934.26 2285.92 L1934.26 2281.78 L1938.17 2281.78 L1938.17 2272.58 L1943.52 2272.58 Z" fill="#000000" fill-rule="nonzero" fill-opacity="1" /><path clip-path="url(#clip040)" d="M1961.49 2281.78 L1966.81 2281.78 L1966.81 2314.19 L1961.49 2314.19 L1961.49 2281.78 M1961.49 2269.16 L1966.81 2269.16 L1966.81 2275.91 L1961.49 2275.91 L1961.49 2269.16 Z" fill="#000000" fill-rule="nonzero" fill-opacity="1" /><path clip-path="url(#clip040)" d="M1990.51 2285.51 Q1986.23 2285.51 1983.74 2288.87 Q1981.25 2292.2 1981.25 2298.01 Q1981.25 2303.83 1983.71 2307.19 Q1986.2 2310.51 1990.51 2310.51 Q1994.76 2310.51 1997.25 2307.16 Q1999.74 2303.8 1999.74 2298.01 Q1999.74 2292.25 1997.25 2288.9 Q1994.76 2285.51 1990.51 2285.51 M1990.51 2281 Q1997.45 2281 2001.42 2285.51 Q2005.38 2290.03 2005.38 2298.01 Q2005.38 2305.97 2001.42 2310.51 Q1997.45 2315.03 1990.51 2315.03 Q1983.54 2315.03 1979.57 2310.51 Q1975.64 2305.97 1975.64 2298.01 Q1975.64 2290.03 1979.57 2285.51 Q1983.54 2281 1990.51 2281 Z" fill="#000000" fill-rule="nonzero" fill-opacity="1" /><path clip-path="url(#clip040)" d="M2041.15 2294.63 L2041.15 2314.19 L2035.82 2314.19 L2035.82 2294.8 Q2035.82 2290.2 2034.03 2287.91 Q2032.23 2285.63 2028.65 2285.63 Q2024.34 2285.63 2021.85 2288.38 Q2019.36 2291.13 2019.36 2295.87 L2019.36 2314.19 L2014.01 2314.19 L2014.01 2281.78 L2019.36 2281.78 L2019.36 2286.82 Q2021.27 2283.89 2023.84 2282.45 Q2026.45 2281 2029.83 2281 Q2035.42 2281 2038.28 2284.47 Q2041.15 2287.91 2041.15 2294.63 Z" fill="#000000" fill-rule="nonzero" fill-opacity="1" /><path clip-path="url(#clip040)" d="M2072.43 2282.74 L2072.43 2287.77 Q2070.17 2286.61 2067.74 2286.03 Q2065.31 2285.46 2062.7 2285.46 Q2058.74 2285.46 2056.74 2286.67 Q2054.78 2287.89 2054.78 2290.32 Q2054.78 2292.17 2056.19 2293.24 Q2057.61 2294.28 2061.89 2295.24 L2063.72 2295.64 Q2069.39 2296.86 2071.76 2299.08 Q2074.16 2301.28 2074.16 2305.25 Q2074.16 2309.76 2070.57 2312.39 Q2067.01 2315.03 2060.76 2315.03 Q2058.16 2315.03 2055.32 2314.51 Q2052.52 2314.01 2049.39 2313 L2049.39 2307.5 Q2052.34 2309.04 2055.21 2309.82 Q2058.07 2310.57 2060.88 2310.57 Q2064.64 2310.57 2066.67 2309.3 Q2068.69 2308 2068.69 2305.65 Q2068.69 2303.48 2067.22 2302.32 Q2065.77 2301.17 2060.82 2300.1 L2058.97 2299.66 Q2054.02 2298.62 2051.82 2296.48 Q2049.62 2294.31 2049.62 2290.55 Q2049.62 2285.98 2052.87 2283.49 Q2056.11 2281 2062.07 2281 Q2065.02 2281 2067.62 2281.43 Q2070.23 2281.87 2072.43 2282.74 Z" fill="#000000" fill-rule="nonzero" fill-opacity="1" /><polyline clip-path="url(#clip040)" style="stroke:#000000; stroke-linecap:round; stroke-linejoin:round; stroke-width:4; stroke-opacity:1; fill:none" points="322.044,2156.51 322.044,246.944 "/>
<polyline clip-path="url(#clip040)" style="stroke:#000000; stroke-linecap:round; stroke-linejoin:round; stroke-width:4; stroke-opacity:1; fill:none" points="322.044,2073.79 340.942,2073.79 "/>
<polyline clip-path="url(#clip040)" style="stroke:#000000; stroke-linecap:round; stroke-linejoin:round; stroke-width:4; stroke-opacity:1; fill:none" points="322.044,888.513 340.942,888.513 "/>
<path clip-path="url(#clip040)" d="M167.604 2093.58 L175.242 2093.58 L175.242 2067.21 L166.932 2068.88 L166.932 2064.62 L175.196 2062.95 L179.872 2062.95 L179.872 2093.58 L187.511 2093.58 L187.511 2097.51 L167.604 2097.51 L167.604 2093.58 Z" fill="#000000" fill-rule="nonzero" fill-opacity="1" /><path clip-path="url(#clip040)" d="M206.955 2066.03 Q203.344 2066.03 201.515 2069.6 Q199.71 2073.14 199.71 2080.27 Q199.71 2087.37 201.515 2090.94 Q203.344 2094.48 206.955 2094.48 Q210.589 2094.48 212.395 2090.94 Q214.224 2087.37 214.224 2080.27 Q214.224 2073.14 212.395 2069.6 Q210.589 2066.03 206.955 2066.03 M206.955 2062.33 Q212.765 2062.33 215.821 2066.93 Q218.9 2071.52 218.9 2080.27 Q218.9 2088.99 215.821 2093.6 Q212.765 2098.18 206.955 2098.18 Q201.145 2098.18 198.066 2093.6 Q195.011 2088.99 195.011 2080.27 Q195.011 2071.52 198.066 2066.93 Q201.145 2062.33 206.955 2062.33 Z" fill="#000000" fill-rule="nonzero" fill-opacity="1" /><path clip-path="url(#clip040)" d="M218.9 2056.43 L243.011 2056.43 L243.011 2059.63 L218.9 2059.63 L218.9 2056.43 Z" fill="#000000" fill-rule="nonzero" fill-opacity="1" /><path clip-path="url(#clip040)" d="M251.87 2066.91 L258.076 2066.91 L258.076 2045.48 L251.324 2046.84 L251.324 2043.38 L258.039 2042.02 L261.838 2042.02 L261.838 2066.91 L268.044 2066.91 L268.044 2070.1 L251.87 2070.1 L251.87 2066.91 Z" fill="#000000" fill-rule="nonzero" fill-opacity="1" /><path clip-path="url(#clip040)" d="M197.339 908.305 L204.978 908.305 L204.978 881.94 L196.667 883.606 L196.667 879.347 L204.931 877.681 L209.607 877.681 L209.607 908.305 L217.246 908.305 L217.246 912.241 L197.339 912.241 L197.339 908.305 Z" fill="#000000" fill-rule="nonzero" fill-opacity="1" /><path clip-path="url(#clip040)" d="M236.69 880.759 Q233.079 880.759 231.251 884.324 Q229.445 887.866 229.445 894.995 Q229.445 902.102 231.251 905.667 Q233.079 909.208 236.69 909.208 Q240.325 909.208 242.13 905.667 Q243.959 902.102 243.959 894.995 Q243.959 887.866 242.13 884.324 Q240.325 880.759 236.69 880.759 M236.69 877.056 Q242.5 877.056 245.556 881.662 Q248.635 886.245 248.635 894.995 Q248.635 903.722 245.556 908.329 Q242.5 912.912 236.69 912.912 Q230.88 912.912 227.801 908.329 Q224.746 903.722 224.746 894.995 Q224.746 886.245 227.801 881.662 Q230.88 877.056 236.69 877.056 Z" fill="#000000" fill-rule="nonzero" fill-opacity="1" /><path clip-path="url(#clip040)" d="M258.339 859.252 Q255.405 859.252 253.92 862.148 Q252.453 865.026 252.453 870.818 Q252.453 876.592 253.92 879.489 Q255.405 882.366 258.339 882.366 Q261.292 882.366 262.759 879.489 Q264.245 876.592 264.245 870.818 Q264.245 865.026 262.759 862.148 Q261.292 859.252 258.339 859.252 M258.339 856.242 Q263.06 856.242 265.543 859.985 Q268.044 863.709 268.044 870.818 Q268.044 877.909 265.543 881.652 Q263.06 885.376 258.339 885.376 Q253.619 885.376 251.117 881.652 Q248.635 877.909 248.635 870.818 Q248.635 863.709 251.117 859.985 Q253.619 856.242 258.339 856.242 Z" fill="#000000" fill-rule="nonzero" fill-opacity="1" /><path clip-path="url(#clip040)" d="M60.0998 1347.25 L66.263 1347.25 Q63.5141 1350.21 62.1542 1353.56 Q60.7943 1356.89 60.7943 1360.65 Q60.7943 1368.06 65.3371 1371.99 Q69.8509 1375.93 78.4157 1375.93 Q86.9515 1375.93 91.4943 1371.99 Q96.0082 1368.06 96.0082 1360.65 Q96.0082 1356.89 94.6482 1353.56 Q93.2883 1350.21 90.5395 1347.25 L96.6448 1347.25 Q98.7281 1350.32 99.7697 1353.77 Q100.811 1357.18 100.811 1361 Q100.811 1370.81 94.8218 1376.45 Q88.8034 1382.09 78.4157 1382.09 Q67.9991 1382.09 62.0095 1376.45 Q55.991 1370.81 55.991 1361 Q55.991 1357.12 57.0327 1353.71 Q58.0454 1350.26 60.0998 1347.25 Z" fill="#000000" fill-rule="nonzero" fill-opacity="1" /><path clip-path="url(#clip040)" d="M61.5755 1332.38 L77.8081 1332.38 L77.8081 1325.03 Q77.8081 1320.95 75.6958 1318.72 Q73.5835 1316.5 69.6773 1316.5 Q65.8 1316.5 63.6878 1318.72 Q61.5755 1320.95 61.5755 1325.03 L61.5755 1332.38 M56.7723 1338.23 L56.7723 1325.03 Q56.7723 1317.77 60.0709 1314.07 Q63.3405 1310.33 69.6773 1310.33 Q76.0719 1310.33 79.3416 1314.07 Q82.6113 1317.77 82.6113 1325.03 L82.6113 1332.38 L99.9723 1332.38 L99.9723 1338.23 L56.7723 1338.23 Z" fill="#000000" fill-rule="nonzero" fill-opacity="1" /><path clip-path="url(#clip040)" d="M56.7723 1303.16 L56.7723 1297.28 L83.0164 1297.28 Q89.9608 1297.28 93.0279 1294.77 Q96.0661 1292.25 96.0661 1286.61 Q96.0661 1280.99 93.0279 1278.48 Q89.9608 1275.96 83.0164 1275.96 L56.7723 1275.96 L56.7723 1270.08 L83.7397 1270.08 Q92.1888 1270.08 96.5001 1274.28 Q100.811 1278.45 100.811 1286.61 Q100.811 1294.8 96.5001 1298.99 Q92.1888 1303.16 83.7397 1303.16 L56.7723 1303.16 Z" fill="#000000" fill-rule="nonzero" fill-opacity="1" /><path clip-path="url(#clip040)" d="M58.3637 1235.25 L67.565 1235.25 L67.565 1224.28 L71.7028 1224.28 L71.7028 1235.25 L89.2953 1235.25 Q93.2594 1235.25 94.3878 1234.18 Q95.5163 1233.08 95.5163 1229.75 L95.5163 1224.28 L99.9723 1224.28 L99.9723 1229.75 Q99.9723 1235.91 97.6864 1238.26 Q95.3716 1240.6 89.2953 1240.6 L71.7028 1240.6 L71.7028 1244.51 L67.565 1244.51 L67.565 1240.6 L58.3637 1240.6 L58.3637 1235.25 Z" fill="#000000" fill-rule="nonzero" fill-opacity="1" /><path clip-path="url(#clip040)" d="M67.565 1217.28 L67.565 1211.95 L99.9723 1211.95 L99.9723 1217.28 L67.565 1217.28 M54.9494 1217.28 L54.9494 1211.95 L61.6912 1211.95 L61.6912 1217.28 L54.9494 1217.28 Z" fill="#000000" fill-rule="nonzero" fill-opacity="1" /><path clip-path="url(#clip040)" d="M73.7861 1175.58 Q70.1981 1173.59 68.491 1170.81 Q66.7838 1168.03 66.7838 1164.27 Q66.7838 1159.21 70.3428 1156.46 Q73.8729 1153.71 80.4122 1153.71 L99.9723 1153.71 L99.9723 1159.06 L80.5858 1159.06 Q75.9273 1159.06 73.6703 1160.71 Q71.4134 1162.36 71.4134 1165.75 Q71.4134 1169.88 74.1622 1172.28 Q76.9111 1174.69 81.6564 1174.69 L99.9723 1174.69 L99.9723 1180.04 L80.5858 1180.04 Q75.8983 1180.04 73.6703 1181.69 Q71.4134 1183.34 71.4134 1186.78 Q71.4134 1190.86 74.1912 1193.26 Q76.94 1195.66 81.6564 1195.66 L99.9723 1195.66 L99.9723 1201.02 L67.565 1201.02 L67.565 1195.66 L72.5997 1195.66 Q69.6194 1193.84 68.2016 1191.29 Q66.7838 1188.75 66.7838 1185.25 Q66.7838 1181.72 68.5778 1179.26 Q70.3717 1176.77 73.7861 1175.58 Z" fill="#000000" fill-rule="nonzero" fill-opacity="1" /><path clip-path="url(#clip040)" d="M82.4377 1115.37 L85.0418 1115.37 L85.0418 1139.85 Q90.5395 1139.5 93.433 1136.55 Q96.2975 1133.57 96.2975 1128.27 Q96.2975 1125.21 95.5452 1122.34 Q94.7929 1119.45 93.2883 1116.61 L98.323 1116.61 Q99.5383 1119.48 100.175 1122.49 Q100.811 1125.5 100.811 1128.59 Q100.811 1136.35 96.2975 1140.89 Q91.7837 1145.4 84.087 1145.4 Q76.1298 1145.4 71.4713 1141.12 Q66.7838 1136.81 66.7838 1129.52 Q66.7838 1122.98 71.0083 1119.19 Q75.2039 1115.37 82.4377 1115.37 M80.8752 1120.69 Q76.506 1120.75 73.9018 1123.15 Q71.2977 1125.53 71.2977 1129.46 Q71.2977 1133.92 73.815 1136.61 Q76.3324 1139.27 80.9041 1139.67 L80.8752 1120.69 Z" fill="#000000" fill-rule="nonzero" fill-opacity="1" /><path clip-path="url(#clip040)" d="M55.0072 1075.01 Q61.6623 1078.88 68.1727 1080.76 Q74.6831 1082.64 81.3671 1082.64 Q88.0511 1082.64 94.6193 1080.76 Q101.159 1078.85 107.785 1075.01 L107.785 1079.63 Q100.985 1083.97 94.4168 1086.15 Q87.8485 1088.29 81.3671 1088.29 Q74.9145 1088.29 68.3752 1086.15 Q61.8359 1084 55.0072 1079.63 L55.0072 1075.01 Z" fill="#000000" fill-rule="nonzero" fill-opacity="1" /><path clip-path="url(#clip040)" d="M68.5199 1044.02 L73.5546 1044.02 Q72.3972 1046.27 71.8185 1048.7 Q71.2398 1051.13 71.2398 1053.74 Q71.2398 1057.7 72.4551 1059.7 Q73.6703 1061.67 76.1009 1061.67 Q77.9527 1061.67 79.0233 1060.25 Q80.065 1058.83 81.0198 1054.55 L81.4249 1052.73 Q82.6402 1047.05 84.8682 1044.68 Q87.0673 1042.28 91.0314 1042.28 Q95.5452 1042.28 98.1783 1045.87 Q100.811 1049.43 100.811 1055.68 Q100.811 1058.28 100.291 1061.12 Q99.7987 1063.92 98.7859 1067.05 L93.2883 1067.05 Q94.8218 1064.1 95.6031 1061.23 Q96.3554 1058.37 96.3554 1055.56 Q96.3554 1051.8 95.0823 1049.77 Q93.7802 1047.75 91.4364 1047.75 Q89.2663 1047.75 88.1089 1049.22 Q86.9515 1050.67 85.8809 1055.62 L85.4469 1057.47 Q84.4052 1062.42 82.264 1064.62 Q80.0939 1066.82 76.3324 1066.82 Q71.7606 1066.82 69.2722 1063.58 Q66.7838 1060.33 66.7838 1054.37 Q66.7838 1051.42 67.2178 1048.82 Q67.6519 1046.21 68.5199 1044.02 Z" fill="#000000" fill-rule="nonzero" fill-opacity="1" /><path clip-path="url(#clip040)" d="M55.0072 1034.64 L55.0072 1030.01 Q61.8359 1025.67 68.3752 1023.53 Q74.9145 1021.36 81.3671 1021.36 Q87.8485 1021.36 94.4168 1023.53 Q100.985 1025.67 107.785 1030.01 L107.785 1034.64 Q101.159 1030.79 94.6193 1028.91 Q88.0511 1027 81.3671 1027 Q74.6831 1027 68.1727 1028.91 Q61.6623 1030.79 55.0072 1034.64 Z" fill="#000000" fill-rule="nonzero" fill-opacity="1" /><path clip-path="url(#clip040)" d="M1258.75 123.984 L1266.93 123.984 L1266.93 184.464 L1258.75 184.464 L1258.75 123.984 Z" fill="#000000" fill-rule="nonzero" fill-opacity="1" /><path clip-path="url(#clip040)" d="M1290.27 126.212 L1290.27 139.094 L1305.62 139.094 L1305.62 144.887 L1290.27 144.887 L1290.27 169.516 Q1290.27 175.066 1291.77 176.646 Q1293.31 178.226 1297.96 178.226 L1305.62 178.226 L1305.62 184.464 L1297.96 184.464 Q1289.34 184.464 1286.06 181.264 Q1282.77 178.023 1282.77 169.516 L1282.77 144.887 L1277.31 144.887 L1277.31 139.094 L1282.77 139.094 L1282.77 126.212 L1290.27 126.212 Z" fill="#000000" fill-rule="nonzero" fill-opacity="1" /><path clip-path="url(#clip040)" d="M1354.23 159.916 L1354.23 163.561 L1319.96 163.561 Q1320.45 171.258 1324.58 175.309 Q1328.75 179.319 1336.16 179.319 Q1340.46 179.319 1344.47 178.266 Q1348.52 177.213 1352.49 175.106 L1352.49 182.155 Q1348.48 183.856 1344.27 184.748 Q1340.05 185.639 1335.72 185.639 Q1324.86 185.639 1318.5 179.319 Q1312.18 173 1312.18 162.225 Q1312.18 151.085 1318.18 144.563 Q1324.21 138 1334.42 138 Q1343.58 138 1348.88 143.914 Q1354.23 149.788 1354.23 159.916 M1346.78 157.728 Q1346.7 151.611 1343.33 147.965 Q1340.01 144.32 1334.5 144.32 Q1328.27 144.32 1324.5 147.844 Q1320.77 151.368 1320.2 157.769 L1346.78 157.728 Z" fill="#000000" fill-rule="nonzero" fill-opacity="1" /><path clip-path="url(#clip040)" d="M1392.76 146.061 Q1391.5 145.332 1390 145.008 Q1388.54 144.644 1386.76 144.644 Q1380.44 144.644 1377.04 148.776 Q1373.68 152.867 1373.68 160.564 L1373.68 184.464 L1366.18 184.464 L1366.18 139.094 L1373.68 139.094 L1373.68 146.142 Q1376.03 142.011 1379.79 140.026 Q1383.56 138 1388.95 138 Q1389.72 138 1390.65 138.122 Q1391.58 138.203 1392.72 138.405 L1392.76 146.061 Z" fill="#000000" fill-rule="nonzero" fill-opacity="1" /><path clip-path="url(#clip040)" d="M1421.19 161.657 Q1412.16 161.657 1408.68 163.723 Q1405.19 165.789 1405.19 170.772 Q1405.19 174.742 1407.78 177.091 Q1410.42 179.4 1414.91 179.4 Q1421.11 179.4 1424.84 175.025 Q1428.61 170.61 1428.61 163.318 L1428.61 161.657 L1421.19 161.657 M1436.06 158.579 L1436.06 184.464 L1428.61 184.464 L1428.61 177.577 Q1426.05 181.709 1422.25 183.694 Q1418.44 185.639 1412.93 185.639 Q1405.96 185.639 1401.83 181.75 Q1397.74 177.821 1397.74 171.258 Q1397.74 163.602 1402.84 159.713 Q1407.99 155.824 1418.16 155.824 L1428.61 155.824 L1428.61 155.095 Q1428.61 149.95 1425.2 147.155 Q1421.84 144.32 1415.72 144.32 Q1411.84 144.32 1408.15 145.251 Q1404.46 146.183 1401.06 148.046 L1401.06 141.16 Q1405.15 139.58 1409 138.81 Q1412.85 138 1416.49 138 Q1426.34 138 1431.2 143.104 Q1436.06 148.208 1436.06 158.579 Z" fill="#000000" fill-rule="nonzero" fill-opacity="1" /><path clip-path="url(#clip040)" d="M1458.79 126.212 L1458.79 139.094 L1474.14 139.094 L1474.14 144.887 L1458.79 144.887 L1458.79 169.516 Q1458.79 175.066 1460.28 176.646 Q1461.82 178.226 1466.48 178.226 L1474.14 178.226 L1474.14 184.464 L1466.48 184.464 Q1457.85 184.464 1454.57 181.264 Q1451.29 178.023 1451.29 169.516 L1451.29 144.887 L1445.82 144.887 L1445.82 139.094 L1451.29 139.094 L1451.29 126.212 L1458.79 126.212 Z" fill="#000000" fill-rule="nonzero" fill-opacity="1" /><path clip-path="url(#clip040)" d="M1483.94 139.094 L1491.4 139.094 L1491.4 184.464 L1483.94 184.464 L1483.94 139.094 M1483.94 121.432 L1491.4 121.432 L1491.4 130.871 L1483.94 130.871 L1483.94 121.432 Z" fill="#000000" fill-rule="nonzero" fill-opacity="1" /><path clip-path="url(#clip040)" d="M1524.57 144.32 Q1518.58 144.32 1515.09 149.019 Q1511.61 153.677 1511.61 161.819 Q1511.61 169.962 1515.05 174.661 Q1518.54 179.319 1524.57 179.319 Q1530.53 179.319 1534.01 174.62 Q1537.49 169.921 1537.49 161.819 Q1537.49 153.758 1534.01 149.059 Q1530.53 144.32 1524.57 144.32 M1524.57 138 Q1534.29 138 1539.84 144.32 Q1545.39 150.639 1545.39 161.819 Q1545.39 172.959 1539.84 179.319 Q1534.29 185.639 1524.57 185.639 Q1514.81 185.639 1509.26 179.319 Q1503.75 172.959 1503.75 161.819 Q1503.75 150.639 1509.26 144.32 Q1514.81 138 1524.57 138 Z" fill="#000000" fill-rule="nonzero" fill-opacity="1" /><path clip-path="url(#clip040)" d="M1595.46 157.08 L1595.46 184.464 L1588.01 184.464 L1588.01 157.323 Q1588.01 150.882 1585.5 147.682 Q1582.99 144.482 1577.96 144.482 Q1571.93 144.482 1568.44 148.33 Q1564.96 152.178 1564.96 158.822 L1564.96 184.464 L1557.47 184.464 L1557.47 139.094 L1564.96 139.094 L1564.96 146.142 Q1567.63 142.051 1571.24 140.026 Q1574.88 138 1579.62 138 Q1587.44 138 1591.45 142.861 Q1595.46 147.682 1595.46 157.08 Z" fill="#000000" fill-rule="nonzero" fill-opacity="1" /><path clip-path="url(#clip040)" d="M1639.25 140.431 L1639.25 147.479 Q1636.09 145.859 1632.69 145.049 Q1629.29 144.239 1625.64 144.239 Q1620.09 144.239 1617.3 145.94 Q1614.54 147.641 1614.54 151.044 Q1614.54 153.637 1616.53 155.135 Q1618.51 156.594 1624.51 157.931 L1627.06 158.498 Q1635 160.199 1638.32 163.318 Q1641.68 166.397 1641.68 171.947 Q1641.68 178.266 1636.66 181.952 Q1631.68 185.639 1622.93 185.639 Q1619.28 185.639 1615.31 184.91 Q1611.38 184.221 1607.01 182.803 L1607.01 175.106 Q1611.14 177.253 1615.15 178.347 Q1619.16 179.4 1623.09 179.4 Q1628.36 179.4 1631.19 177.618 Q1634.03 175.795 1634.03 172.514 Q1634.03 169.476 1631.96 167.855 Q1629.94 166.235 1623.01 164.736 L1620.42 164.128 Q1613.49 162.67 1610.41 159.672 Q1607.33 156.634 1607.33 151.368 Q1607.33 144.968 1611.87 141.484 Q1616.41 138 1624.75 138 Q1628.88 138 1632.53 138.608 Q1636.17 139.215 1639.25 140.431 Z" fill="#000000" fill-rule="nonzero" fill-opacity="1" /><path clip-path="url(#clip040)" d="M1674.58 139.094 L1682.48 139.094 L1696.65 177.172 L1710.83 139.094 L1718.73 139.094 L1701.72 184.464 L1691.59 184.464 L1674.58 139.094 Z" fill="#000000" fill-rule="nonzero" fill-opacity="1" /><path clip-path="url(#clip040)" d="M1757.95 140.431 L1757.95 147.479 Q1754.79 145.859 1751.38 145.049 Q1747.98 144.239 1744.33 144.239 Q1738.78 144.239 1735.99 145.94 Q1733.23 147.641 1733.23 151.044 Q1733.23 153.637 1735.22 155.135 Q1737.2 156.594 1743.2 157.931 L1745.75 158.498 Q1753.69 160.199 1757.01 163.318 Q1760.38 166.397 1760.38 171.947 Q1760.38 178.266 1755.35 181.952 Q1750.37 185.639 1741.62 185.639 Q1737.97 185.639 1734 184.91 Q1730.07 184.221 1725.7 182.803 L1725.7 175.106 Q1729.83 177.253 1733.84 178.347 Q1737.85 179.4 1741.78 179.4 Q1747.05 179.4 1749.88 177.618 Q1752.72 175.795 1752.72 172.514 Q1752.72 169.476 1750.65 167.855 Q1748.63 166.235 1741.7 164.736 L1739.11 164.128 Q1732.18 162.67 1729.1 159.672 Q1726.02 156.634 1726.02 151.368 Q1726.02 144.968 1730.56 141.484 Q1735.1 138 1743.44 138 Q1747.57 138 1751.22 138.608 Q1754.87 139.215 1757.95 140.431 Z" fill="#000000" fill-rule="nonzero" fill-opacity="1" /><path clip-path="url(#clip040)" d="M1844.23 128.643 L1844.23 137.271 Q1840.1 133.423 1835.4 131.519 Q1830.74 129.615 1825.47 129.615 Q1815.1 129.615 1809.59 135.975 Q1804.08 142.294 1804.08 154.285 Q1804.08 166.235 1809.59 172.595 Q1815.1 178.914 1825.47 178.914 Q1830.74 178.914 1835.4 177.01 Q1840.1 175.106 1844.23 171.258 L1844.23 179.805 Q1839.94 182.722 1835.11 184.18 Q1830.33 185.639 1824.99 185.639 Q1811.25 185.639 1803.36 177.253 Q1795.46 168.828 1795.46 154.285 Q1795.46 139.702 1803.36 131.316 Q1811.25 122.89 1824.99 122.89 Q1830.42 122.89 1835.2 124.349 Q1840.02 125.766 1844.23 128.643 Z" fill="#000000" fill-rule="nonzero" fill-opacity="1" /><path clip-path="url(#clip040)" d="M1865.05 130.709 L1865.05 153.434 L1875.34 153.434 Q1881.05 153.434 1884.17 150.477 Q1887.29 147.52 1887.29 142.051 Q1887.29 136.623 1884.17 133.666 Q1881.05 130.709 1875.34 130.709 L1865.05 130.709 M1856.87 123.984 L1875.34 123.984 Q1885.51 123.984 1890.69 128.602 Q1895.92 133.18 1895.92 142.051 Q1895.92 151.004 1890.69 155.581 Q1885.51 160.159 1875.34 160.159 L1865.05 160.159 L1865.05 184.464 L1856.87 184.464 L1856.87 123.984 Z" fill="#000000" fill-rule="nonzero" fill-opacity="1" /><path clip-path="url(#clip040)" d="M1905.97 123.984 L1914.19 123.984 L1914.19 160.726 Q1914.19 170.448 1917.71 174.742 Q1921.24 178.995 1929.14 178.995 Q1937 178.995 1940.52 174.742 Q1944.04 170.448 1944.04 160.726 L1944.04 123.984 L1952.27 123.984 L1952.27 161.738 Q1952.27 173.567 1946.39 179.603 Q1940.56 185.639 1929.14 185.639 Q1917.67 185.639 1911.8 179.603 Q1905.97 173.567 1905.97 161.738 L1905.97 123.984 Z" fill="#000000" fill-rule="nonzero" fill-opacity="1" /><path clip-path="url(#clip040)" d="M2001.04 126.212 L2001.04 139.094 L2016.39 139.094 L2016.39 144.887 L2001.04 144.887 L2001.04 169.516 Q2001.04 175.066 2002.54 176.646 Q2004.08 178.226 2008.74 178.226 L2016.39 178.226 L2016.39 184.464 L2008.74 184.464 Q2000.11 184.464 1996.83 181.264 Q1993.55 178.023 1993.55 169.516 L1993.55 144.887 L1988.08 144.887 L1988.08 139.094 L1993.55 139.094 L1993.55 126.212 L2001.04 126.212 Z" fill="#000000" fill-rule="nonzero" fill-opacity="1" /><path clip-path="url(#clip040)" d="M2026.2 139.094 L2033.65 139.094 L2033.65 184.464 L2026.2 184.464 L2026.2 139.094 M2026.2 121.432 L2033.65 121.432 L2033.65 130.871 L2026.2 130.871 L2026.2 121.432 Z" fill="#000000" fill-rule="nonzero" fill-opacity="1" /><path clip-path="url(#clip040)" d="M2084.57 147.803 Q2087.36 142.78 2091.25 140.39 Q2095.14 138 2100.41 138 Q2107.5 138 2111.35 142.983 Q2115.19 147.925 2115.19 157.08 L2115.19 184.464 L2107.7 184.464 L2107.7 157.323 Q2107.7 150.801 2105.39 147.641 Q2103.08 144.482 2098.34 144.482 Q2092.55 144.482 2089.19 148.33 Q2085.83 152.178 2085.83 158.822 L2085.83 184.464 L2078.33 184.464 L2078.33 157.323 Q2078.33 150.76 2076.02 147.641 Q2073.71 144.482 2068.89 144.482 Q2063.18 144.482 2059.82 148.37 Q2056.46 152.219 2056.46 158.822 L2056.46 184.464 L2048.96 184.464 L2048.96 139.094 L2056.46 139.094 L2056.46 146.142 Q2059.01 141.97 2062.57 139.985 Q2066.14 138 2071.04 138 Q2075.98 138 2079.42 140.512 Q2082.91 143.023 2084.57 147.803 Z" fill="#000000" fill-rule="nonzero" fill-opacity="1" /><path clip-path="url(#clip040)" d="M2168.87 159.916 L2168.87 163.561 L2134.6 163.561 Q2135.08 171.258 2139.22 175.309 Q2143.39 179.319 2150.8 179.319 Q2155.1 179.319 2159.11 178.266 Q2163.16 177.213 2167.13 175.106 L2167.13 182.155 Q2163.12 183.856 2158.9 184.748 Q2154.69 185.639 2150.36 185.639 Q2139.5 185.639 2133.14 179.319 Q2126.82 173 2126.82 162.225 Q2126.82 151.085 2132.82 144.563 Q2138.85 138 2149.06 138 Q2158.21 138 2163.52 143.914 Q2168.87 149.788 2168.87 159.916 M2161.42 157.728 Q2161.33 151.611 2157.97 147.965 Q2154.65 144.32 2149.14 144.32 Q2142.9 144.32 2139.14 147.844 Q2135.41 151.368 2134.84 157.769 L2161.42 157.728 Z" fill="#000000" fill-rule="nonzero" fill-opacity="1" /><path clip-path="url(#clip040)" d="M2203.71 158.822 L2278.57 158.822 L2278.57 164.655 L2203.71 164.655 L2203.71 158.822 Z" fill="#000000" fill-rule="nonzero" fill-opacity="1" /><path clip-path="url(#clip040)" d="M2316.81 139.094 L2324.26 139.094 L2324.26 185.274 Q2324.26 193.943 2320.94 197.832 Q2317.66 201.721 2310.33 201.721 L2307.49 201.721 L2307.49 195.401 L2309.48 195.401 Q2313.73 195.401 2315.27 193.416 Q2316.81 191.472 2316.81 185.274 L2316.81 139.094 M2316.81 121.432 L2324.26 121.432 L2324.26 130.871 L2316.81 130.871 L2316.81 121.432 Z" fill="#000000" fill-rule="nonzero" fill-opacity="1" /><path clip-path="url(#clip040)" d="M2360.48 161.657 Q2351.44 161.657 2347.96 163.723 Q2344.48 165.789 2344.48 170.772 Q2344.48 174.742 2347.07 177.091 Q2349.7 179.4 2354.2 179.4 Q2360.4 179.4 2364.12 175.025 Q2367.89 170.61 2367.89 163.318 L2367.89 161.657 L2360.48 161.657 M2375.34 158.579 L2375.34 184.464 L2367.89 184.464 L2367.89 177.577 Q2365.34 181.709 2361.53 183.694 Q2357.72 185.639 2352.21 185.639 Q2345.25 185.639 2341.11 181.75 Q2337.02 177.821 2337.02 171.258 Q2337.02 163.602 2342.13 159.713 Q2347.27 155.824 2357.44 155.824 L2367.89 155.824 L2367.89 155.095 Q2367.89 149.95 2364.49 147.155 Q2361.12 144.32 2355.01 144.32 Q2351.12 144.32 2347.43 145.251 Q2343.75 146.183 2340.34 148.046 L2340.34 141.16 Q2344.43 139.58 2348.28 138.81 Q2352.13 138 2355.78 138 Q2365.62 138 2370.48 143.104 Q2375.34 148.208 2375.34 158.579 Z" fill="#000000" fill-rule="nonzero" fill-opacity="1" /><path clip-path="url(#clip040)" d="M2423.35 140.836 L2423.35 147.803 Q2420.19 146.061 2416.99 145.211 Q2413.83 144.32 2410.59 144.32 Q2403.34 144.32 2399.32 148.938 Q2395.31 153.515 2395.31 161.819 Q2395.31 170.124 2399.32 174.742 Q2403.34 179.319 2410.59 179.319 Q2413.83 179.319 2416.99 178.469 Q2420.19 177.577 2423.35 175.836 L2423.35 182.722 Q2420.23 184.18 2416.87 184.91 Q2413.54 185.639 2409.78 185.639 Q2399.53 185.639 2393.49 179.198 Q2387.46 172.757 2387.46 161.819 Q2387.46 150.72 2393.53 144.36 Q2399.65 138 2410.26 138 Q2413.71 138 2416.99 138.729 Q2420.27 139.418 2423.35 140.836 Z" fill="#000000" fill-rule="nonzero" fill-opacity="1" /><path clip-path="url(#clip040)" d="M2436.03 121.432 L2443.52 121.432 L2443.52 158.66 L2465.76 139.094 L2475.28 139.094 L2451.22 160.321 L2476.29 184.464 L2466.57 184.464 L2443.52 162.306 L2443.52 184.464 L2436.03 184.464 L2436.03 121.432 Z" fill="#000000" fill-rule="nonzero" fill-opacity="1" /><path clip-path="url(#clip040)" d="M2513.28 140.431 L2513.28 147.479 Q2510.12 145.859 2506.71 145.049 Q2503.31 144.239 2499.67 144.239 Q2494.12 144.239 2491.32 145.94 Q2488.57 147.641 2488.57 151.044 Q2488.57 153.637 2490.55 155.135 Q2492.54 156.594 2498.53 157.931 L2501.08 158.498 Q2509.02 160.199 2512.34 163.318 Q2515.71 166.397 2515.71 171.947 Q2515.71 178.266 2510.68 181.952 Q2505.7 185.639 2496.95 185.639 Q2493.31 185.639 2489.34 184.91 Q2485.41 184.221 2481.03 182.803 L2481.03 175.106 Q2485.16 177.253 2489.17 178.347 Q2493.18 179.4 2497.11 179.4 Q2502.38 179.4 2505.22 177.618 Q2508.05 175.795 2508.05 172.514 Q2508.05 169.476 2505.99 167.855 Q2503.96 166.235 2497.03 164.736 L2494.44 164.128 Q2487.51 162.67 2484.43 159.672 Q2481.36 156.634 2481.36 151.368 Q2481.36 144.968 2485.89 141.484 Q2490.43 138 2498.77 138 Q2502.91 138 2506.55 138.608 Q2510.2 139.215 2513.28 140.431 Z" fill="#000000" fill-rule="nonzero" fill-opacity="1" /><path clip-path="url(#clip040)" d="M2545.16 144.32 Q2539.16 144.32 2535.68 149.019 Q2532.19 153.677 2532.19 161.819 Q2532.19 169.962 2535.64 174.661 Q2539.12 179.319 2545.16 179.319 Q2551.11 179.319 2554.6 174.62 Q2558.08 169.921 2558.08 161.819 Q2558.08 153.758 2554.6 149.059 Q2551.11 144.32 2545.16 144.32 M2545.16 138 Q2554.88 138 2560.43 144.32 Q2565.98 150.639 2565.98 161.819 Q2565.98 172.959 2560.43 179.319 Q2554.88 185.639 2545.16 185.639 Q2535.39 185.639 2529.84 179.319 Q2524.34 172.959 2524.34 161.819 Q2524.34 150.639 2529.84 144.32 Q2535.39 138 2545.16 138 Z" fill="#000000" fill-rule="nonzero" fill-opacity="1" /><path clip-path="url(#clip040)" d="M2616.05 157.08 L2616.05 184.464 L2608.59 184.464 L2608.59 157.323 Q2608.59 150.882 2606.08 147.682 Q2603.57 144.482 2598.55 144.482 Q2592.51 144.482 2589.03 148.33 Q2585.54 152.178 2585.54 158.822 L2585.54 184.464 L2578.05 184.464 L2578.05 139.094 L2585.54 139.094 L2585.54 146.142 Q2588.22 142.051 2591.82 140.026 Q2595.47 138 2600.21 138 Q2608.03 138 2612.04 142.861 Q2616.05 147.682 2616.05 157.08 Z" fill="#000000" fill-rule="nonzero" fill-opacity="1" /><path clip-path="url(#clip042)" d="M882.378 2078.46 L858.378 2126.46 L906.378 2126.46 L882.378 2078.46 Z" fill="#ffa500" fill-rule="evenodd" fill-opacity="1" stroke="none"/>
<path clip-path="url(#clip042)" d="M647.929 959.797 L623.929 1007.8 L671.929 1007.8 L647.929 959.797 Z" fill="#ffa500" fill-rule="evenodd" fill-opacity="1" stroke="none"/>
<path clip-path="url(#clip042)" d="M413.48 669.577 L389.48 717.577 L437.48 717.577 L413.48 669.577 Z" fill="#ffa500" fill-rule="evenodd" fill-opacity="1" stroke="none"/>
<path clip-path="url(#clip042)" d="M413.48 276.989 L389.48 324.989 L437.48 324.989 L413.48 276.989 Z" fill="#ffa500" fill-rule="evenodd" fill-opacity="1" stroke="none"/>
<path clip-path="url(#clip042)" d="M3461.32 1652.38 L3440.54 1640.38 L3440.54 1616.38 L3461.32 1604.38 L3482.1 1616.38 L3482.1 1640.38 Z" fill="#00ffff" fill-rule="evenodd" fill-opacity="1" stroke="none"/>
<path clip-path="url(#clip042)" d="M1351.28 1636.74 L1330.49 1624.74 L1330.49 1600.74 L1351.28 1588.74 L1372.06 1600.74 L1372.06 1624.74 Z" fill="#00ffff" fill-rule="evenodd" fill-opacity="1" stroke="none"/>
<path clip-path="url(#clip042)" d="M1585.73 1538.14 L1564.94 1526.14 L1564.94 1502.14 L1585.73 1490.14 L1606.51 1502.14 L1606.51 1526.14 Z" fill="#00ffff" fill-rule="evenodd" fill-opacity="1" stroke="none"/>
<path clip-path="url(#clip042)" d="M1351.28 1286.43 L1330.49 1274.43 L1330.49 1250.43 L1351.28 1238.43 L1372.06 1250.43 L1372.06 1274.43 Z" fill="#00ffff" fill-rule="evenodd" fill-opacity="1" stroke="none"/>
<path clip-path="url(#clip040)" d="M2685.01 466.116 L3445.07 466.116 L3445.07 310.596 L2685.01 310.596  Z" fill="#ffffff" fill-rule="evenodd" fill-opacity="1"/>
<polyline clip-path="url(#clip040)" style="stroke:#000000; stroke-linecap:round; stroke-linejoin:round; stroke-width:4; stroke-opacity:1; fill:none" points="2685.01,466.116 3445.07,466.116 3445.07,310.596 2685.01,310.596 2685.01,466.116 "/>
<path clip-path="url(#clip040)" d="M2828.59 336.836 L2802.99 388.036 L2854.19 388.036 L2828.59 336.836 Z" fill="#ffa500" fill-rule="evenodd" fill-opacity="1" stroke="none"/>
<path clip-path="url(#clip040)" d="M2982.81 343.744 Q2979.7 349.068 2978.2 354.277 Q2976.69 359.485 2976.69 364.832 Q2976.69 370.179 2978.2 375.434 Q2979.73 380.665 2982.81 385.966 L2979.1 385.966 Q2975.63 380.527 2973.89 375.272 Q2972.18 370.017 2972.18 364.832 Q2972.18 359.67 2973.89 354.439 Q2975.61 349.207 2979.1 343.744 L2982.81 343.744 Z" fill="#000000" fill-rule="nonzero" fill-opacity="1" /><path clip-path="url(#clip040)" d="M3013.24 365.689 L3013.24 367.772 L2993.66 367.772 Q2993.94 372.17 2996.3 374.485 Q2998.68 376.777 3002.92 376.777 Q3005.37 376.777 3007.67 376.175 Q3009.98 375.573 3012.25 374.369 L3012.25 378.397 Q3009.96 379.369 3007.55 379.878 Q3005.14 380.388 3002.67 380.388 Q2996.46 380.388 2992.83 376.777 Q2989.22 373.165 2989.22 367.008 Q2989.22 360.642 2992.64 356.916 Q2996.09 353.166 3001.93 353.166 Q3007.16 353.166 3010.19 356.545 Q3013.24 359.902 3013.24 365.689 M3008.99 364.439 Q3008.94 360.943 3007.02 358.86 Q3005.12 356.777 3001.97 356.777 Q2998.41 356.777 2996.25 358.791 Q2994.12 360.804 2993.8 364.462 L3008.99 364.439 Z" fill="#000000" fill-rule="nonzero" fill-opacity="1" /><path clip-path="url(#clip040)" d="M3040.95 353.791 L3031.58 366.406 L3041.44 379.716 L3036.42 379.716 L3028.87 369.531 L3021.32 379.716 L3016.3 379.716 L3026.37 366.152 L3017.16 353.791 L3022.18 353.791 L3029.06 363.027 L3035.93 353.791 L3040.95 353.791 Z" fill="#000000" fill-rule="nonzero" fill-opacity="1" /><path clip-path="url(#clip040)" d="M3059.24 366.684 Q3054.08 366.684 3052.09 367.865 Q3050.1 369.045 3050.1 371.892 Q3050.1 374.161 3051.58 375.503 Q3053.08 376.823 3055.65 376.823 Q3059.19 376.823 3061.32 374.323 Q3063.48 371.8 3063.48 367.633 L3063.48 366.684 L3059.24 366.684 M3067.74 364.925 L3067.74 379.716 L3063.48 379.716 L3063.48 375.781 Q3062.02 378.142 3059.84 379.277 Q3057.67 380.388 3054.52 380.388 Q3050.54 380.388 3048.18 378.165 Q3045.84 375.92 3045.84 372.17 Q3045.84 367.795 3048.75 365.573 Q3051.69 363.351 3057.5 363.351 L3063.48 363.351 L3063.48 362.934 Q3063.48 359.994 3061.53 358.397 Q3059.61 356.777 3056.12 356.777 Q3053.89 356.777 3051.79 357.309 Q3049.68 357.841 3047.74 358.906 L3047.74 354.971 Q3050.07 354.068 3052.27 353.629 Q3054.47 353.166 3056.55 353.166 Q3062.18 353.166 3064.96 356.082 Q3067.74 358.999 3067.74 364.925 Z" fill="#000000" fill-rule="nonzero" fill-opacity="1" /><path clip-path="url(#clip040)" d="M3077.6 373.837 L3082.48 373.837 L3082.48 377.818 L3078.68 385.226 L3075.7 385.226 L3077.6 377.818 L3077.6 373.837 Z" fill="#000000" fill-rule="nonzero" fill-opacity="1" /><path clip-path="url(#clip040)" d="M3126.83 358.767 Q3128.43 355.897 3130.65 354.531 Q3132.87 353.166 3135.88 353.166 Q3139.93 353.166 3142.13 356.013 Q3144.33 358.837 3144.33 364.068 L3144.33 379.716 L3140.05 379.716 L3140.05 364.207 Q3140.05 360.48 3138.73 358.675 Q3137.41 356.869 3134.7 356.869 Q3131.39 356.869 3129.47 359.068 Q3127.55 361.267 3127.55 365.064 L3127.55 379.716 L3123.27 379.716 L3123.27 364.207 Q3123.27 360.457 3121.95 358.675 Q3120.63 356.869 3117.87 356.869 Q3114.61 356.869 3112.69 359.091 Q3110.77 361.291 3110.77 365.064 L3110.77 379.716 L3106.49 379.716 L3106.49 353.791 L3110.77 353.791 L3110.77 357.818 Q3112.23 355.434 3114.26 354.3 Q3116.3 353.166 3119.1 353.166 Q3121.92 353.166 3123.89 354.601 Q3125.88 356.036 3126.83 358.767 Z" fill="#000000" fill-rule="nonzero" fill-opacity="1" /><path clip-path="url(#clip040)" d="M3164.61 366.684 Q3159.45 366.684 3157.46 367.865 Q3155.47 369.045 3155.47 371.892 Q3155.47 374.161 3156.95 375.503 Q3158.45 376.823 3161.02 376.823 Q3164.56 376.823 3166.69 374.323 Q3168.85 371.8 3168.85 367.633 L3168.85 366.684 L3164.61 366.684 M3173.11 364.925 L3173.11 379.716 L3168.85 379.716 L3168.85 375.781 Q3167.39 378.142 3165.21 379.277 Q3163.04 380.388 3159.89 380.388 Q3155.91 380.388 3153.55 378.165 Q3151.21 375.92 3151.21 372.17 Q3151.21 367.795 3154.12 365.573 Q3157.06 363.351 3162.87 363.351 L3168.85 363.351 L3168.85 362.934 Q3168.85 359.994 3166.9 358.397 Q3164.98 356.777 3161.48 356.777 Q3159.26 356.777 3157.16 357.309 Q3155.05 357.841 3153.11 358.906 L3153.11 354.971 Q3155.44 354.068 3157.64 353.629 Q3159.84 353.166 3161.92 353.166 Q3167.55 353.166 3170.33 356.082 Q3173.11 358.999 3173.11 364.925 Z" fill="#000000" fill-rule="nonzero" fill-opacity="1" /><path clip-path="url(#clip040)" d="M3198.94 357.726 L3198.94 343.698 L3203.2 343.698 L3203.2 379.716 L3198.94 379.716 L3198.94 375.827 Q3197.6 378.142 3195.54 379.277 Q3193.5 380.388 3190.63 380.388 Q3185.93 380.388 3182.97 376.638 Q3180.03 372.888 3180.03 366.777 Q3180.03 360.666 3182.97 356.916 Q3185.93 353.166 3190.63 353.166 Q3193.5 353.166 3195.54 354.3 Q3197.6 355.411 3198.94 357.726 M3184.42 366.777 Q3184.42 371.476 3186.35 374.161 Q3188.29 376.823 3191.67 376.823 Q3195.05 376.823 3196.99 374.161 Q3198.94 371.476 3198.94 366.777 Q3198.94 362.078 3196.99 359.416 Q3195.05 356.73 3191.67 356.73 Q3188.29 356.73 3186.35 359.416 Q3184.42 362.078 3184.42 366.777 Z" fill="#000000" fill-rule="nonzero" fill-opacity="1" /><path clip-path="url(#clip040)" d="M3233.52 364.068 L3233.52 379.716 L3229.26 379.716 L3229.26 364.207 Q3229.26 360.527 3227.83 358.698 Q3226.39 356.869 3223.52 356.869 Q3220.07 356.869 3218.08 359.068 Q3216.09 361.267 3216.09 365.064 L3216.09 379.716 L3211.81 379.716 L3211.81 353.791 L3216.09 353.791 L3216.09 357.818 Q3217.62 355.48 3219.68 354.323 Q3221.76 353.166 3224.47 353.166 Q3228.94 353.166 3231.23 355.943 Q3233.52 358.698 3233.52 364.068 Z" fill="#000000" fill-rule="nonzero" fill-opacity="1" /><path clip-path="url(#clip040)" d="M3242.02 343.698 L3246.28 343.698 L3246.28 379.716 L3242.02 379.716 L3242.02 343.698 Z" fill="#000000" fill-rule="nonzero" fill-opacity="1" /><path clip-path="url(#clip040)" d="M3259.31 375.827 L3259.31 389.577 L3255.03 389.577 L3255.03 353.791 L3259.31 353.791 L3259.31 357.726 Q3260.65 355.411 3262.69 354.3 Q3264.75 353.166 3267.6 353.166 Q3272.32 353.166 3275.26 356.916 Q3278.22 360.666 3278.22 366.777 Q3278.22 372.888 3275.26 376.638 Q3272.32 380.388 3267.6 380.388 Q3264.75 380.388 3262.69 379.277 Q3260.65 378.142 3259.31 375.827 M3273.8 366.777 Q3273.8 362.078 3271.85 359.416 Q3269.93 356.73 3266.55 356.73 Q3263.17 356.73 3261.23 359.416 Q3259.31 362.078 3259.31 366.777 Q3259.31 371.476 3261.23 374.161 Q3263.17 376.823 3266.55 376.823 Q3269.93 376.823 3271.85 374.161 Q3273.8 371.476 3273.8 366.777 Z" fill="#000000" fill-rule="nonzero" fill-opacity="1" /><path clip-path="url(#clip040)" d="M3284.61 343.744 L3288.31 343.744 Q3291.79 349.207 3293.5 354.439 Q3295.23 359.67 3295.23 364.832 Q3295.23 370.017 3293.5 375.272 Q3291.79 380.527 3288.31 385.966 L3284.61 385.966 Q3287.69 380.665 3289.19 375.434 Q3290.72 370.179 3290.72 364.832 Q3290.72 359.485 3289.19 354.277 Q3287.69 349.068 3284.61 343.744 Z" fill="#000000" fill-rule="nonzero" fill-opacity="1" /><path clip-path="url(#clip040)" d="M2828.59 439.876 L2806.42 427.076 L2806.42 401.476 L2828.59 388.676 L2850.76 401.476 L2850.76 427.076 Z" fill="#00ffff" fill-rule="evenodd" fill-opacity="1" stroke="none"/>
<path clip-path="url(#clip040)" d="M2982.81 395.584 Q2979.7 400.908 2978.2 406.117 Q2976.69 411.325 2976.69 416.672 Q2976.69 422.019 2978.2 427.274 Q2979.73 432.505 2982.81 437.806 L2979.1 437.806 Q2975.63 432.367 2973.89 427.112 Q2972.18 421.857 2972.18 416.672 Q2972.18 411.51 2973.89 406.279 Q2975.61 401.047 2979.1 395.584 L2982.81 395.584 Z" fill="#000000" fill-rule="nonzero" fill-opacity="1" /><path clip-path="url(#clip040)" d="M3013.24 417.529 L3013.24 419.612 L2993.66 419.612 Q2993.94 424.01 2996.3 426.325 Q2998.68 428.617 3002.92 428.617 Q3005.37 428.617 3007.67 428.015 Q3009.98 427.413 3012.25 426.209 L3012.25 430.237 Q3009.96 431.209 3007.55 431.718 Q3005.14 432.228 3002.67 432.228 Q2996.46 432.228 2992.83 428.617 Q2989.22 425.005 2989.22 418.848 Q2989.22 412.482 2992.64 408.756 Q2996.09 405.006 3001.93 405.006 Q3007.16 405.006 3010.19 408.385 Q3013.24 411.742 3013.24 417.529 M3008.99 416.279 Q3008.94 412.783 3007.02 410.7 Q3005.12 408.617 3001.97 408.617 Q2998.41 408.617 2996.25 410.631 Q2994.12 412.644 2993.8 416.302 L3008.99 416.279 Z" fill="#000000" fill-rule="nonzero" fill-opacity="1" /><path clip-path="url(#clip040)" d="M3040.95 405.631 L3031.58 418.246 L3041.44 431.556 L3036.42 431.556 L3028.87 421.371 L3021.32 431.556 L3016.3 431.556 L3026.37 417.992 L3017.16 405.631 L3022.18 405.631 L3029.06 414.867 L3035.93 405.631 L3040.95 405.631 Z" fill="#000000" fill-rule="nonzero" fill-opacity="1" /><path clip-path="url(#clip040)" d="M3059.24 418.524 Q3054.08 418.524 3052.09 419.705 Q3050.1 420.885 3050.1 423.732 Q3050.1 426.001 3051.58 427.343 Q3053.08 428.663 3055.65 428.663 Q3059.19 428.663 3061.32 426.163 Q3063.48 423.64 3063.48 419.473 L3063.48 418.524 L3059.24 418.524 M3067.74 416.765 L3067.74 431.556 L3063.48 431.556 L3063.48 427.621 Q3062.02 429.982 3059.84 431.117 Q3057.67 432.228 3054.52 432.228 Q3050.54 432.228 3048.18 430.005 Q3045.84 427.76 3045.84 424.01 Q3045.84 419.635 3048.75 417.413 Q3051.69 415.191 3057.5 415.191 L3063.48 415.191 L3063.48 414.774 Q3063.48 411.834 3061.53 410.237 Q3059.61 408.617 3056.12 408.617 Q3053.89 408.617 3051.79 409.149 Q3049.68 409.681 3047.74 410.746 L3047.74 406.811 Q3050.07 405.908 3052.27 405.469 Q3054.47 405.006 3056.55 405.006 Q3062.18 405.006 3064.96 407.922 Q3067.74 410.839 3067.74 416.765 Z" fill="#000000" fill-rule="nonzero" fill-opacity="1" /><path clip-path="url(#clip040)" d="M3096.21 439.427 L3096.21 442.737 L3071.58 442.737 L3071.58 439.427 L3096.21 439.427 Z" fill="#000000" fill-rule="nonzero" fill-opacity="1" /><path clip-path="url(#clip040)" d="M3117.27 418.293 Q3117.27 413.663 3115.35 411.117 Q3113.45 408.57 3110 408.57 Q3106.58 408.57 3104.66 411.117 Q3102.76 413.663 3102.76 418.293 Q3102.76 422.899 3104.66 425.445 Q3106.58 427.992 3110 427.992 Q3113.45 427.992 3115.35 425.445 Q3117.27 422.899 3117.27 418.293 M3121.53 428.339 Q3121.53 434.959 3118.59 438.177 Q3115.65 441.417 3109.59 441.417 Q3107.34 441.417 3105.35 441.07 Q3103.36 440.746 3101.49 440.052 L3101.49 435.908 Q3103.36 436.927 3105.19 437.413 Q3107.02 437.899 3108.92 437.899 Q3113.11 437.899 3115.19 435.7 Q3117.27 433.524 3117.27 429.103 L3117.27 426.996 Q3115.95 429.288 3113.89 430.422 Q3111.83 431.556 3108.96 431.556 Q3104.19 431.556 3101.28 427.922 Q3098.36 424.288 3098.36 418.293 Q3098.36 412.274 3101.28 408.64 Q3104.19 405.006 3108.96 405.006 Q3111.83 405.006 3113.89 406.14 Q3115.95 407.274 3117.27 409.566 L3117.27 405.631 L3121.53 405.631 L3121.53 428.339 Z" fill="#000000" fill-rule="nonzero" fill-opacity="1" /><path clip-path="url(#clip040)" d="M3134.42 427.667 L3134.42 441.417 L3130.14 441.417 L3130.14 405.631 L3134.42 405.631 L3134.42 409.566 Q3135.77 407.251 3137.8 406.14 Q3139.86 405.006 3142.71 405.006 Q3147.43 405.006 3150.37 408.756 Q3153.34 412.506 3153.34 418.617 Q3153.34 424.728 3150.37 428.478 Q3147.43 432.228 3142.71 432.228 Q3139.86 432.228 3137.8 431.117 Q3135.77 429.982 3134.42 427.667 M3148.92 418.617 Q3148.92 413.918 3146.97 411.256 Q3145.05 408.57 3141.67 408.57 Q3138.29 408.57 3136.35 411.256 Q3134.42 413.918 3134.42 418.617 Q3134.42 423.316 3136.35 426.001 Q3138.29 428.663 3141.67 428.663 Q3145.05 428.663 3146.97 426.001 Q3148.92 423.316 3148.92 418.617 Z" fill="#000000" fill-rule="nonzero" fill-opacity="1" /><path clip-path="url(#clip040)" d="M3159.96 421.325 L3159.96 405.631 L3164.22 405.631 L3164.22 421.163 Q3164.22 424.843 3165.65 426.695 Q3167.09 428.524 3169.96 428.524 Q3173.41 428.524 3175.4 426.325 Q3177.41 424.126 3177.41 420.33 L3177.41 405.631 L3181.67 405.631 L3181.67 431.556 L3177.41 431.556 L3177.41 427.575 Q3175.86 429.936 3173.8 431.093 Q3171.76 432.228 3169.05 432.228 Q3164.59 432.228 3162.27 429.45 Q3159.96 426.672 3159.96 421.325 M3170.67 405.006 L3170.67 405.006 Z" fill="#000000" fill-rule="nonzero" fill-opacity="1" /><path clip-path="url(#clip040)" d="M3191.53 425.677 L3196.42 425.677 L3196.42 429.658 L3192.62 437.066 L3189.63 437.066 L3191.53 429.658 L3191.53 425.677 Z" fill="#000000" fill-rule="nonzero" fill-opacity="1" /><path clip-path="url(#clip040)" d="M3240.77 410.607 Q3242.36 407.737 3244.59 406.371 Q3246.81 405.006 3249.82 405.006 Q3253.87 405.006 3256.07 407.853 Q3258.27 410.677 3258.27 415.908 L3258.27 431.556 L3253.98 431.556 L3253.98 416.047 Q3253.98 412.32 3252.66 410.515 Q3251.35 408.709 3248.64 408.709 Q3245.33 408.709 3243.41 410.908 Q3241.48 413.107 3241.48 416.904 L3241.48 431.556 L3237.2 431.556 L3237.2 416.047 Q3237.2 412.297 3235.88 410.515 Q3234.56 408.709 3231.81 408.709 Q3228.54 408.709 3226.62 410.931 Q3224.7 413.131 3224.7 416.904 L3224.7 431.556 L3220.42 431.556 L3220.42 405.631 L3224.7 405.631 L3224.7 409.658 Q3226.16 407.274 3228.2 406.14 Q3230.23 405.006 3233.04 405.006 Q3235.86 405.006 3237.83 406.441 Q3239.82 407.876 3240.77 410.607 Z" fill="#000000" fill-rule="nonzero" fill-opacity="1" /><path clip-path="url(#clip040)" d="M3278.54 418.524 Q3273.38 418.524 3271.39 419.705 Q3269.4 420.885 3269.4 423.732 Q3269.4 426.001 3270.88 427.343 Q3272.39 428.663 3274.96 428.663 Q3278.5 428.663 3280.63 426.163 Q3282.78 423.64 3282.78 419.473 L3282.78 418.524 L3278.54 418.524 M3287.04 416.765 L3287.04 431.556 L3282.78 431.556 L3282.78 427.621 Q3281.32 429.982 3279.15 431.117 Q3276.97 432.228 3273.82 432.228 Q3269.84 432.228 3267.48 430.005 Q3265.14 427.76 3265.14 424.01 Q3265.14 419.635 3268.06 417.413 Q3271 415.191 3276.81 415.191 L3282.78 415.191 L3282.78 414.774 Q3282.78 411.834 3280.84 410.237 Q3278.91 408.617 3275.42 408.617 Q3273.2 408.617 3271.09 409.149 Q3268.98 409.681 3267.04 410.746 L3267.04 406.811 Q3269.38 405.908 3271.58 405.469 Q3273.78 405.006 3275.86 405.006 Q3281.48 405.006 3284.26 407.922 Q3287.04 410.839 3287.04 416.765 Z" fill="#000000" fill-rule="nonzero" fill-opacity="1" /><path clip-path="url(#clip040)" d="M3312.87 409.566 L3312.87 395.538 L3317.13 395.538 L3317.13 431.556 L3312.87 431.556 L3312.87 427.667 Q3311.53 429.982 3309.47 431.117 Q3307.43 432.228 3304.56 432.228 Q3299.86 432.228 3296.9 428.478 Q3293.96 424.728 3293.96 418.617 Q3293.96 412.506 3296.9 408.756 Q3299.86 405.006 3304.56 405.006 Q3307.43 405.006 3309.47 406.14 Q3311.53 407.251 3312.87 409.566 M3298.36 418.617 Q3298.36 423.316 3300.28 426.001 Q3302.22 428.663 3305.6 428.663 Q3308.98 428.663 3310.93 426.001 Q3312.87 423.316 3312.87 418.617 Q3312.87 413.918 3310.93 411.256 Q3308.98 408.57 3305.6 408.57 Q3302.22 408.57 3300.28 411.256 Q3298.36 413.918 3298.36 418.617 Z" fill="#000000" fill-rule="nonzero" fill-opacity="1" /><path clip-path="url(#clip040)" d="M3347.46 415.908 L3347.46 431.556 L3343.2 431.556 L3343.2 416.047 Q3343.2 412.367 3341.76 410.538 Q3340.33 408.709 3337.46 408.709 Q3334.01 408.709 3332.02 410.908 Q3330.03 413.107 3330.03 416.904 L3330.03 431.556 L3325.74 431.556 L3325.74 405.631 L3330.03 405.631 L3330.03 409.658 Q3331.55 407.32 3333.61 406.163 Q3335.7 405.006 3338.41 405.006 Q3342.87 405.006 3345.16 407.783 Q3347.46 410.538 3347.46 415.908 Z" fill="#000000" fill-rule="nonzero" fill-opacity="1" /><path clip-path="url(#clip040)" d="M3355.95 395.538 L3360.21 395.538 L3360.21 431.556 L3355.95 431.556 L3355.95 395.538 Z" fill="#000000" fill-rule="nonzero" fill-opacity="1" /><path clip-path="url(#clip040)" d="M3373.24 427.667 L3373.24 441.417 L3368.96 441.417 L3368.96 405.631 L3373.24 405.631 L3373.24 409.566 Q3374.59 407.251 3376.62 406.14 Q3378.68 405.006 3381.53 405.006 Q3386.25 405.006 3389.19 408.756 Q3392.15 412.506 3392.15 418.617 Q3392.15 424.728 3389.19 428.478 Q3386.25 432.228 3381.53 432.228 Q3378.68 432.228 3376.62 431.117 Q3374.59 429.982 3373.24 427.667 M3387.73 418.617 Q3387.73 413.918 3385.79 411.256 Q3383.87 408.57 3380.49 408.57 Q3377.11 408.57 3375.16 411.256 Q3373.24 413.918 3373.24 418.617 Q3373.24 423.316 3375.16 426.001 Q3377.11 428.663 3380.49 428.663 Q3383.87 428.663 3385.79 426.001 Q3387.73 423.316 3387.73 418.617 Z" fill="#000000" fill-rule="nonzero" fill-opacity="1" /><path clip-path="url(#clip040)" d="M3398.54 395.584 L3402.25 395.584 Q3405.72 401.047 3407.43 406.279 Q3409.17 411.51 3409.17 416.672 Q3409.17 421.857 3407.43 427.112 Q3405.72 432.367 3402.25 437.806 L3398.54 437.806 Q3401.62 432.505 3403.13 427.274 Q3404.65 422.019 3404.65 416.672 Q3404.65 411.325 3403.13 406.117 Q3401.62 400.908 3398.54 395.584 Z" fill="#000000" fill-rule="nonzero" fill-opacity="1" /></svg>
