<?xml version="1.0" encoding="utf-8"?>
<svg xmlns="http://www.w3.org/2000/svg" xmlns:xlink="http://www.w3.org/1999/xlink" width="900" height="600" viewBox="0 0 3600 2400">
<defs>
  <clipPath id="clip850">
    <rect x="0" y="0" width="3600" height="2400"/>
  </clipPath>
</defs>
<path clip-path="url(#clip850)" d="M0 2400 L3600 2400 L3600 0 L0 0  Z" fill="#ffffff" fill-rule="evenodd" fill-opacity="1"/>
<defs>
  <clipPath id="clip851">
    <rect x="322" y="246" width="3232" height="1911"/>
  </clipPath>
</defs>
<path clip-path="url(#clip850)" d="M358.983 2156.51 L3552.76 2156.51 L3552.76 246.944 L358.983 246.944  Z" fill="#ffffff" fill-rule="evenodd" fill-opacity="1"/>
<defs>
  <clipPath id="clip852">
    <rect x="358" y="246" width="3195" height="1911"/>
  </clipPath>
</defs>
<polyline clip-path="url(#clip852)" style="stroke:#000000; stroke-linecap:round; stroke-linejoin:round; stroke-width:2; stroke-opacity:0.1; fill:none" points="504.154,2156.51 504.154,246.944 "/>
<polyline clip-path="url(#clip852)" style="stroke:#000000; stroke-linecap:round; stroke-linejoin:round; stroke-width:2; stroke-opacity:0.1; fill:none" points="2064,2156.51 2064,246.944 "/>
<polyline clip-path="url(#clip852)" style="stroke:#000000; stroke-linecap:round; stroke-linejoin:round; stroke-width:2; stroke-opacity:0.1; fill:none" points="2735.79,2156.51 2735.79,246.944 "/>
<polyline clip-path="url(#clip852)" style="stroke:#000000; stroke-linecap:round; stroke-linejoin:round; stroke-width:2; stroke-opacity:0.1; fill:none" points="3407.58,2156.51 3407.58,246.944 "/>
<polyline clip-path="url(#clip852)" style="stroke:#000000; stroke-linecap:round; stroke-linejoin:round; stroke-width:2; stroke-opacity:0.1; fill:none" points="358.983,1808.47 3552.76,1808.47 "/>
<polyline clip-path="url(#clip852)" style="stroke:#000000; stroke-linecap:round; stroke-linejoin:round; stroke-width:2; stroke-opacity:0.1; fill:none" points="358.983,1279.11 3552.76,1279.11 "/>
<polyline clip-path="url(#clip852)" style="stroke:#000000; stroke-linecap:round; stroke-linejoin:round; stroke-width:2; stroke-opacity:0.1; fill:none" points="358.983,749.751 3552.76,749.751 "/>
<polyline clip-path="url(#clip850)" style="stroke:#000000; stroke-linecap:round; stroke-linejoin:round; stroke-width:4; stroke-opacity:1; fill:none" points="358.983,2156.51 3552.76,2156.51 "/>
<polyline clip-path="url(#clip850)" style="stroke:#000000; stroke-linecap:round; stroke-linejoin:round; stroke-width:4; stroke-opacity:1; fill:none" points="504.154,2156.51 504.154,2137.61 "/>
<polyline clip-path="url(#clip850)" style="stroke:#000000; stroke-linecap:round; stroke-linejoin:round; stroke-width:4; stroke-opacity:1; fill:none" points="2064,2156.51 2064,2137.61 "/>
<polyline clip-path="url(#clip850)" style="stroke:#000000; stroke-linecap:round; stroke-linejoin:round; stroke-width:4; stroke-opacity:1; fill:none" points="2735.79,2156.51 2735.79,2137.61 "/>
<polyline clip-path="url(#clip850)" style="stroke:#000000; stroke-linecap:round; stroke-linejoin:round; stroke-width:4; stroke-opacity:1; fill:none" points="3407.58,2156.51 3407.58,2137.61 "/>
<path clip-path="url(#clip850)" d="M448.68 2224.57 L456.319 2224.57 L456.319 2198.21 L448.009 2199.87 L448.009 2195.61 L456.273 2193.95 L460.948 2193.95 L460.948 2224.57 L468.587 2224.57 L468.587 2228.51 L448.68 2228.51 L448.68 2224.57 Z" fill="#000000" fill-rule="nonzero" fill-opacity="1" /><path clip-path="url(#clip850)" d="M488.032 2197.03 Q484.421 2197.03 482.592 2200.59 Q480.786 2204.13 480.786 2211.26 Q480.786 2218.37 482.592 2221.93 Q484.421 2225.48 488.032 2225.48 Q491.666 2225.48 493.471 2221.93 Q495.3 2218.37 495.3 2211.26 Q495.3 2204.13 493.471 2200.59 Q491.666 2197.03 488.032 2197.03 M488.032 2193.32 Q493.842 2193.32 496.897 2197.93 Q499.976 2202.51 499.976 2211.26 Q499.976 2219.99 496.897 2224.6 Q493.842 2229.18 488.032 2229.18 Q482.222 2229.18 479.143 2224.6 Q476.087 2219.99 476.087 2211.26 Q476.087 2202.51 479.143 2197.93 Q482.222 2193.32 488.032 2193.32 Z" fill="#000000" fill-rule="nonzero" fill-opacity="1" /><path clip-path="url(#clip850)" d="M518.194 2197.03 Q514.582 2197.03 512.754 2200.59 Q510.948 2204.13 510.948 2211.26 Q510.948 2218.37 512.754 2221.93 Q514.582 2225.48 518.194 2225.48 Q521.828 2225.48 523.633 2221.93 Q525.462 2218.37 525.462 2211.26 Q525.462 2204.13 523.633 2200.59 Q521.828 2197.03 518.194 2197.03 M518.194 2193.32 Q524.004 2193.32 527.059 2197.93 Q530.138 2202.51 530.138 2211.26 Q530.138 2219.99 527.059 2224.6 Q524.004 2229.18 518.194 2229.18 Q512.383 2229.18 509.305 2224.6 Q506.249 2219.99 506.249 2211.26 Q506.249 2202.51 509.305 2197.93 Q512.383 2193.32 518.194 2193.32 Z" fill="#000000" fill-rule="nonzero" fill-opacity="1" /><path clip-path="url(#clip850)" d="M548.355 2197.03 Q544.744 2197.03 542.916 2200.59 Q541.11 2204.13 541.11 2211.26 Q541.11 2218.37 542.916 2221.93 Q544.744 2225.48 548.355 2225.48 Q551.99 2225.48 553.795 2221.93 Q555.624 2218.37 555.624 2211.26 Q555.624 2204.13 553.795 2200.59 Q551.99 2197.03 548.355 2197.03 M548.355 2193.32 Q554.166 2193.32 557.221 2197.93 Q560.3 2202.51 560.3 2211.26 Q560.3 2219.99 557.221 2224.6 Q554.166 2229.18 548.355 2229.18 Q542.545 2229.18 539.467 2224.6 Q536.411 2219.99 536.411 2211.26 Q536.411 2202.51 539.467 2197.93 Q542.545 2193.32 548.355 2193.32 Z" fill="#000000" fill-rule="nonzero" fill-opacity="1" /><path clip-path="url(#clip850)" d="M2008.54 2193.95 L2026.9 2193.95 L2026.9 2197.88 L2012.82 2197.88 L2012.82 2206.36 Q2013.84 2206.01 2014.86 2205.85 Q2015.88 2205.66 2016.9 2205.66 Q2022.68 2205.66 2026.06 2208.83 Q2029.44 2212 2029.44 2217.42 Q2029.44 2223 2025.97 2226.1 Q2022.5 2229.18 2016.18 2229.18 Q2014 2229.18 2011.74 2228.81 Q2009.49 2228.44 2007.08 2227.7 L2007.08 2223 Q2009.17 2224.13 2011.39 2224.69 Q2013.61 2225.24 2016.09 2225.24 Q2020.09 2225.24 2022.43 2223.14 Q2024.77 2221.03 2024.77 2217.42 Q2024.77 2213.81 2022.43 2211.7 Q2020.09 2209.6 2016.09 2209.6 Q2014.21 2209.6 2012.34 2210.01 Q2010.49 2210.43 2008.54 2211.31 L2008.54 2193.95 Z" fill="#000000" fill-rule="nonzero" fill-opacity="1" /><path clip-path="url(#clip850)" d="M2048.66 2197.03 Q2045.05 2197.03 2043.22 2200.59 Q2041.41 2204.13 2041.41 2211.26 Q2041.41 2218.37 2043.22 2221.93 Q2045.05 2225.48 2048.66 2225.48 Q2052.29 2225.48 2054.1 2221.93 Q2055.92 2218.37 2055.92 2211.26 Q2055.92 2204.13 2054.1 2200.59 Q2052.29 2197.03 2048.66 2197.03 M2048.66 2193.32 Q2054.47 2193.32 2057.52 2197.93 Q2060.6 2202.51 2060.6 2211.26 Q2060.6 2219.99 2057.52 2224.6 Q2054.47 2229.18 2048.66 2229.18 Q2042.85 2229.18 2039.77 2224.6 Q2036.71 2219.99 2036.71 2211.26 Q2036.71 2202.51 2039.77 2197.93 Q2042.85 2193.32 2048.66 2193.32 Z" fill="#000000" fill-rule="nonzero" fill-opacity="1" /><path clip-path="url(#clip850)" d="M2078.82 2197.03 Q2075.21 2197.03 2073.38 2200.59 Q2071.57 2204.13 2071.57 2211.26 Q2071.57 2218.37 2073.38 2221.93 Q2075.21 2225.48 2078.82 2225.48 Q2082.45 2225.48 2084.26 2221.93 Q2086.09 2218.37 2086.09 2211.26 Q2086.09 2204.13 2084.26 2200.59 Q2082.45 2197.03 2078.82 2197.03 M2078.82 2193.32 Q2084.63 2193.32 2087.68 2197.93 Q2090.76 2202.51 2090.76 2211.26 Q2090.76 2219.99 2087.68 2224.6 Q2084.63 2229.18 2078.82 2229.18 Q2073.01 2229.18 2069.93 2224.6 Q2066.87 2219.99 2066.87 2211.26 Q2066.87 2202.51 2069.93 2197.93 Q2073.01 2193.32 2078.82 2193.32 Z" fill="#000000" fill-rule="nonzero" fill-opacity="1" /><path clip-path="url(#clip850)" d="M2108.98 2197.03 Q2105.37 2197.03 2103.54 2200.59 Q2101.73 2204.13 2101.73 2211.26 Q2101.73 2218.37 2103.54 2221.93 Q2105.37 2225.48 2108.98 2225.48 Q2112.61 2225.48 2114.42 2221.93 Q2116.25 2218.37 2116.25 2211.26 Q2116.25 2204.13 2114.42 2200.59 Q2112.61 2197.03 2108.98 2197.03 M2108.98 2193.32 Q2114.79 2193.32 2117.85 2197.93 Q2120.92 2202.51 2120.92 2211.26 Q2120.92 2219.99 2117.85 2224.6 Q2114.79 2229.18 2108.98 2229.18 Q2103.17 2229.18 2100.09 2224.6 Q2097.04 2219.99 2097.04 2211.26 Q2097.04 2202.51 2100.09 2197.93 Q2103.17 2193.32 2108.98 2193.32 Z" fill="#000000" fill-rule="nonzero" fill-opacity="1" /><path clip-path="url(#clip850)" d="M2665.24 2224.57 L2672.88 2224.57 L2672.88 2198.21 L2664.57 2199.87 L2664.57 2195.61 L2672.83 2193.95 L2677.51 2193.95 L2677.51 2224.57 L2685.15 2224.57 L2685.15 2228.51 L2665.24 2228.51 L2665.24 2224.57 Z" fill="#000000" fill-rule="nonzero" fill-opacity="1" /><path clip-path="url(#clip850)" d="M2704.59 2197.03 Q2700.98 2197.03 2699.15 2200.59 Q2697.35 2204.13 2697.35 2211.26 Q2697.35 2218.37 2699.15 2221.93 Q2700.98 2225.48 2704.59 2225.48 Q2708.22 2225.48 2710.03 2221.93 Q2711.86 2218.37 2711.86 2211.26 Q2711.86 2204.13 2710.03 2200.59 Q2708.22 2197.03 2704.59 2197.03 M2704.59 2193.32 Q2710.4 2193.32 2713.46 2197.93 Q2716.53 2202.51 2716.53 2211.26 Q2716.53 2219.99 2713.46 2224.6 Q2710.4 2229.18 2704.59 2229.18 Q2698.78 2229.18 2695.7 2224.6 Q2692.65 2219.99 2692.65 2211.26 Q2692.65 2202.51 2695.7 2197.93 Q2698.78 2193.32 2704.59 2193.32 Z" fill="#000000" fill-rule="nonzero" fill-opacity="1" /><path clip-path="url(#clip850)" d="M2734.75 2197.03 Q2731.14 2197.03 2729.31 2200.59 Q2727.51 2204.13 2727.51 2211.26 Q2727.51 2218.37 2729.31 2221.93 Q2731.14 2225.48 2734.75 2225.48 Q2738.39 2225.48 2740.19 2221.93 Q2742.02 2218.37 2742.02 2211.26 Q2742.02 2204.13 2740.19 2200.59 Q2738.39 2197.03 2734.75 2197.03 M2734.75 2193.32 Q2740.56 2193.32 2743.62 2197.93 Q2746.7 2202.51 2746.7 2211.26 Q2746.7 2219.99 2743.62 2224.6 Q2740.56 2229.18 2734.75 2229.18 Q2728.94 2229.18 2725.86 2224.6 Q2722.81 2219.99 2722.81 2211.26 Q2722.81 2202.51 2725.86 2197.93 Q2728.94 2193.32 2734.75 2193.32 Z" fill="#000000" fill-rule="nonzero" fill-opacity="1" /><path clip-path="url(#clip850)" d="M2764.91 2197.03 Q2761.3 2197.03 2759.47 2200.59 Q2757.67 2204.13 2757.67 2211.26 Q2757.67 2218.37 2759.47 2221.93 Q2761.3 2225.48 2764.91 2225.48 Q2768.55 2225.48 2770.35 2221.93 Q2772.18 2218.37 2772.18 2211.26 Q2772.18 2204.13 2770.35 2200.59 Q2768.55 2197.03 2764.91 2197.03 M2764.91 2193.32 Q2770.72 2193.32 2773.78 2197.93 Q2776.86 2202.51 2776.86 2211.26 Q2776.86 2219.99 2773.78 2224.6 Q2770.72 2229.18 2764.91 2229.18 Q2759.1 2229.18 2756.03 2224.6 Q2752.97 2219.99 2752.97 2211.26 Q2752.97 2202.51 2756.03 2197.93 Q2759.1 2193.32 2764.91 2193.32 Z" fill="#000000" fill-rule="nonzero" fill-opacity="1" /><path clip-path="url(#clip850)" d="M2795.08 2197.03 Q2791.46 2197.03 2789.64 2200.59 Q2787.83 2204.13 2787.83 2211.26 Q2787.83 2218.37 2789.64 2221.93 Q2791.46 2225.48 2795.08 2225.48 Q2798.71 2225.48 2800.52 2221.93 Q2802.34 2218.37 2802.34 2211.26 Q2802.34 2204.13 2800.52 2200.59 Q2798.71 2197.03 2795.08 2197.03 M2795.08 2193.32 Q2800.89 2193.32 2803.94 2197.93 Q2807.02 2202.51 2807.02 2211.26 Q2807.02 2219.99 2803.94 2224.6 Q2800.89 2229.18 2795.08 2229.18 Q2789.27 2229.18 2786.19 2224.6 Q2783.13 2219.99 2783.13 2211.26 Q2783.13 2202.51 2786.19 2197.93 Q2789.27 2193.32 2795.08 2193.32 Z" fill="#000000" fill-rule="nonzero" fill-opacity="1" /><path clip-path="url(#clip850)" d="M3341.11 2224.57 L3357.43 2224.57 L3357.43 2228.51 L3335.49 2228.51 L3335.49 2224.57 Q3338.15 2221.82 3342.74 2217.19 Q3347.34 2212.54 3348.52 2211.19 Q3350.77 2208.67 3351.65 2206.93 Q3352.55 2205.17 3352.55 2203.48 Q3352.55 2200.73 3350.61 2198.99 Q3348.68 2197.26 3345.58 2197.26 Q3343.38 2197.26 3340.93 2198.02 Q3338.5 2198.79 3335.72 2200.34 L3335.72 2195.61 Q3338.55 2194.48 3341 2193.9 Q3343.45 2193.32 3345.49 2193.32 Q3350.86 2193.32 3354.05 2196.01 Q3357.25 2198.69 3357.25 2203.18 Q3357.25 2205.31 3356.44 2207.23 Q3355.65 2209.13 3353.55 2211.73 Q3352.97 2212.4 3349.86 2215.61 Q3346.76 2218.81 3341.11 2224.57 Z" fill="#000000" fill-rule="nonzero" fill-opacity="1" /><path clip-path="url(#clip850)" d="M3377.25 2197.03 Q3373.64 2197.03 3371.81 2200.59 Q3370 2204.13 3370 2211.26 Q3370 2218.37 3371.81 2221.93 Q3373.64 2225.48 3377.25 2225.48 Q3380.88 2225.48 3382.69 2221.93 Q3384.52 2218.37 3384.52 2211.26 Q3384.52 2204.13 3382.69 2200.59 Q3380.88 2197.03 3377.25 2197.03 M3377.25 2193.32 Q3383.06 2193.32 3386.11 2197.93 Q3389.19 2202.51 3389.19 2211.26 Q3389.19 2219.99 3386.11 2224.6 Q3383.06 2229.18 3377.25 2229.18 Q3371.44 2229.18 3368.36 2224.6 Q3365.3 2219.99 3365.3 2211.26 Q3365.3 2202.51 3368.36 2197.93 Q3371.44 2193.32 3377.25 2193.32 Z" fill="#000000" fill-rule="nonzero" fill-opacity="1" /><path clip-path="url(#clip850)" d="M3407.41 2197.03 Q3403.8 2197.03 3401.97 2200.59 Q3400.17 2204.13 3400.17 2211.26 Q3400.17 2218.37 3401.97 2221.93 Q3403.8 2225.48 3407.41 2225.48 Q3411.05 2225.48 3412.85 2221.93 Q3414.68 2218.37 3414.68 2211.26 Q3414.68 2204.13 3412.85 2200.59 Q3411.05 2197.03 3407.41 2197.03 M3407.41 2193.32 Q3413.22 2193.32 3416.28 2197.93 Q3419.36 2202.51 3419.36 2211.26 Q3419.36 2219.99 3416.28 2224.6 Q3413.22 2229.18 3407.41 2229.18 Q3401.6 2229.18 3398.52 2224.6 Q3395.47 2219.99 3395.47 2211.26 Q3395.47 2202.51 3398.52 2197.93 Q3401.6 2193.32 3407.41 2193.32 Z" fill="#000000" fill-rule="nonzero" fill-opacity="1" /><path clip-path="url(#clip850)" d="M3437.57 2197.03 Q3433.96 2197.03 3432.13 2200.59 Q3430.33 2204.13 3430.33 2211.26 Q3430.33 2218.37 3432.13 2221.93 Q3433.96 2225.48 3437.57 2225.48 Q3441.21 2225.48 3443.01 2221.93 Q3444.84 2218.37 3444.84 2211.26 Q3444.84 2204.13 3443.01 2200.59 Q3441.21 2197.03 3437.57 2197.03 M3437.57 2193.32 Q3443.38 2193.32 3446.44 2197.93 Q3449.52 2202.51 3449.52 2211.26 Q3449.52 2219.99 3446.44 2224.6 Q3443.38 2229.18 3437.57 2229.18 Q3431.76 2229.18 3428.68 2224.6 Q3425.63 2219.99 3425.63 2211.26 Q3425.63 2202.51 3428.68 2197.93 Q3431.76 2193.32 3437.57 2193.32 Z" fill="#000000" fill-rule="nonzero" fill-opacity="1" /><path clip-path="url(#clip850)" d="M3467.73 2197.03 Q3464.12 2197.03 3462.29 2200.59 Q3460.49 2204.13 3460.49 2211.26 Q3460.49 2218.37 3462.29 2221.93 Q3464.12 2225.48 3467.73 2225.48 Q3471.37 2225.48 3473.17 2221.93 Q3475 2218.37 3475 2211.26 Q3475 2204.13 3473.17 2200.59 Q3471.37 2197.03 3467.73 2197.03 M3467.73 2193.32 Q3473.54 2193.32 3476.6 2197.93 Q3479.68 2202.51 3479.68 2211.26 Q3479.68 2219.99 3476.6 2224.6 Q3473.54 2229.18 3467.73 2229.18 Q3461.92 2229.18 3458.85 2224.6 Q3455.79 2219.99 3455.79 2211.26 Q3455.79 2202.51 3458.85 2197.93 Q3461.92 2193.32 3467.73 2193.32 Z" fill="#000000" fill-rule="nonzero" fill-opacity="1" /><path clip-path="url(#clip850)" d="M1831.75 2308.02 L1831.75 2296.42 L1822.2 2296.42 L1822.2 2291.62 L1837.54 2291.62 L1837.54 2310.17 Q1834.15 2312.57 1830.07 2313.81 Q1825.99 2315.03 1821.36 2315.03 Q1811.24 2315.03 1805.51 2309.12 Q1799.81 2303.19 1799.81 2292.63 Q1799.81 2282.04 1805.51 2276.14 Q1811.24 2270.21 1821.36 2270.21 Q1825.59 2270.21 1829.38 2271.25 Q1833.2 2272.29 1836.41 2274.32 L1836.41 2280.54 Q1833.17 2277.79 1829.52 2276.4 Q1825.88 2275.01 1821.86 2275.01 Q1813.93 2275.01 1809.94 2279.44 Q1805.97 2283.86 1805.97 2292.63 Q1805.97 2301.37 1809.94 2305.8 Q1813.93 2310.22 1821.86 2310.22 Q1824.95 2310.22 1827.38 2309.7 Q1829.81 2309.15 1831.75 2308.02 Z" fill="#000000" fill-rule="nonzero" fill-opacity="1" /><path clip-path="url(#clip850)" d="M1866.76 2286.76 Q1865.87 2286.24 1864.8 2286 Q1863.75 2285.74 1862.48 2285.74 Q1857.97 2285.74 1855.54 2288.7 Q1853.14 2291.62 1853.14 2297.12 L1853.14 2314.19 L1847.78 2314.19 L1847.78 2281.78 L1853.14 2281.78 L1853.14 2286.82 Q1854.81 2283.86 1857.5 2282.45 Q1860.2 2281 1864.04 2281 Q1864.59 2281 1865.26 2281.09 Q1865.92 2281.14 1866.73 2281.29 L1866.76 2286.76 Z" fill="#000000" fill-rule="nonzero" fill-opacity="1" /><path clip-path="url(#clip850)" d="M1872.35 2281.78 L1877.67 2281.78 L1877.67 2314.19 L1872.35 2314.19 L1872.35 2281.78 M1872.35 2269.16 L1877.67 2269.16 L1877.67 2275.91 L1872.35 2275.91 L1872.35 2269.16 Z" fill="#000000" fill-rule="nonzero" fill-opacity="1" /><path clip-path="url(#clip850)" d="M1910.14 2286.7 L1910.14 2269.16 L1915.46 2269.16 L1915.46 2314.19 L1910.14 2314.19 L1910.14 2309.33 Q1908.46 2312.22 1905.88 2313.64 Q1903.34 2315.03 1899.75 2315.03 Q1893.88 2315.03 1890.17 2310.34 Q1886.5 2305.65 1886.5 2298.01 Q1886.5 2290.37 1890.17 2285.69 Q1893.88 2281 1899.75 2281 Q1903.34 2281 1905.88 2282.42 Q1908.46 2283.81 1910.14 2286.7 M1892 2298.01 Q1892 2303.89 1894.4 2307.24 Q1896.83 2310.57 1901.05 2310.57 Q1905.28 2310.57 1907.71 2307.24 Q1910.14 2303.89 1910.14 2298.01 Q1910.14 2292.14 1907.71 2288.81 Q1905.28 2285.46 1901.05 2285.46 Q1896.83 2285.46 1894.4 2288.81 Q1892 2292.14 1892 2298.01 Z" fill="#000000" fill-rule="nonzero" fill-opacity="1" /><path clip-path="url(#clip850)" d="M1965.92 2282.74 L1965.92 2287.77 Q1963.67 2286.61 1961.24 2286.03 Q1958.81 2285.46 1956.2 2285.46 Q1952.24 2285.46 1950.24 2286.67 Q1948.27 2287.89 1948.27 2290.32 Q1948.27 2292.17 1949.69 2293.24 Q1951.11 2294.28 1955.39 2295.24 L1957.21 2295.64 Q1962.89 2296.86 1965.26 2299.08 Q1967.66 2301.28 1967.66 2305.25 Q1967.66 2309.76 1964.07 2312.39 Q1960.51 2315.03 1954.26 2315.03 Q1951.66 2315.03 1948.82 2314.51 Q1946.02 2314.01 1942.89 2313 L1942.89 2307.5 Q1945.84 2309.04 1948.71 2309.82 Q1951.57 2310.57 1954.38 2310.57 Q1958.14 2310.57 1960.17 2309.3 Q1962.19 2308 1962.19 2305.65 Q1962.19 2303.48 1960.72 2302.32 Q1959.27 2301.17 1954.32 2300.1 L1952.47 2299.66 Q1947.52 2298.62 1945.32 2296.48 Q1943.12 2294.31 1943.12 2290.55 Q1943.12 2285.98 1946.36 2283.49 Q1949.6 2281 1955.57 2281 Q1958.52 2281 1961.12 2281.43 Q1963.73 2281.87 1965.92 2282.74 Z" fill="#000000" fill-rule="nonzero" fill-opacity="1" /><path clip-path="url(#clip850)" d="M1976.14 2281.78 L1981.46 2281.78 L1981.46 2314.19 L1976.14 2314.19 L1976.14 2281.78 M1976.14 2269.16 L1981.46 2269.16 L1981.46 2275.91 L1976.14 2275.91 L1976.14 2269.16 Z" fill="#000000" fill-rule="nonzero" fill-opacity="1" /><path clip-path="url(#clip850)" d="M1990.29 2281.78 L2015.58 2281.78 L2015.58 2286.64 L1995.55 2309.93 L2015.58 2309.93 L2015.58 2314.19 L1989.56 2314.19 L1989.56 2309.33 L2009.59 2286.03 L1990.29 2286.03 L1990.29 2281.78 Z" fill="#000000" fill-rule="nonzero" fill-opacity="1" /><path clip-path="url(#clip850)" d="M2051.43 2296.65 L2051.43 2299.26 L2026.95 2299.26 Q2027.3 2304.75 2030.25 2307.65 Q2033.23 2310.51 2038.52 2310.51 Q2041.59 2310.51 2044.45 2309.76 Q2047.35 2309.01 2050.18 2307.5 L2050.18 2312.54 Q2047.32 2313.75 2044.31 2314.39 Q2041.3 2315.03 2038.2 2315.03 Q2030.45 2315.03 2025.91 2310.51 Q2021.39 2306 2021.39 2298.3 Q2021.39 2290.35 2025.68 2285.69 Q2029.99 2281 2037.28 2281 Q2043.82 2281 2047.61 2285.22 Q2051.43 2289.42 2051.43 2296.65 M2046.1 2295.09 Q2046.05 2290.72 2043.64 2288.12 Q2041.27 2285.51 2037.34 2285.51 Q2032.88 2285.51 2030.19 2288.03 Q2027.53 2290.55 2027.12 2295.12 L2046.1 2295.09 Z" fill="#000000" fill-rule="nonzero" fill-opacity="1" /><path clip-path="url(#clip850)" d="M2079.23 2270.99 L2087.1 2270.99 L2106.26 2307.13 L2106.26 2270.99 L2111.93 2270.99 L2111.93 2314.19 L2104.06 2314.19 L2084.91 2278.05 L2084.91 2314.19 L2079.23 2314.19 L2079.23 2270.99 Z" fill="#000000" fill-rule="nonzero" fill-opacity="1" /><polyline clip-path="url(#clip850)" style="stroke:#000000; stroke-linecap:round; stroke-linejoin:round; stroke-width:4; stroke-opacity:1; fill:none" points="358.983,2156.51 358.983,246.944 "/>
<polyline clip-path="url(#clip850)" style="stroke:#000000; stroke-linecap:round; stroke-linejoin:round; stroke-width:4; stroke-opacity:1; fill:none" points="358.983,1808.47 377.88,1808.47 "/>
<polyline clip-path="url(#clip850)" style="stroke:#000000; stroke-linecap:round; stroke-linejoin:round; stroke-width:4; stroke-opacity:1; fill:none" points="358.983,1279.11 377.88,1279.11 "/>
<polyline clip-path="url(#clip850)" style="stroke:#000000; stroke-linecap:round; stroke-linejoin:round; stroke-width:4; stroke-opacity:1; fill:none" points="358.983,749.751 377.88,749.751 "/>
<path clip-path="url(#clip850)" d="M167.604 1828.27 L175.242 1828.27 L175.242 1801.9 L166.932 1803.57 L166.932 1799.31 L175.196 1797.64 L179.872 1797.64 L179.872 1828.27 L187.511 1828.27 L187.511 1832.2 L167.604 1832.2 L167.604 1828.27 Z" fill="#000000" fill-rule="nonzero" fill-opacity="1" /><path clip-path="url(#clip850)" d="M206.955 1800.72 Q203.344 1800.72 201.515 1804.29 Q199.71 1807.83 199.71 1814.96 Q199.71 1822.06 201.515 1825.63 Q203.344 1829.17 206.955 1829.17 Q210.589 1829.17 212.395 1825.63 Q214.224 1822.06 214.224 1814.96 Q214.224 1807.83 212.395 1804.29 Q210.589 1800.72 206.955 1800.72 M206.955 1797.02 Q212.765 1797.02 215.821 1801.62 Q218.9 1806.21 218.9 1814.96 Q218.9 1823.68 215.821 1828.29 Q212.765 1832.87 206.955 1832.87 Q201.145 1832.87 198.066 1828.29 Q195.011 1823.68 195.011 1814.96 Q195.011 1806.21 198.066 1801.62 Q201.145 1797.02 206.955 1797.02 Z" fill="#000000" fill-rule="nonzero" fill-opacity="1" /><path clip-path="url(#clip850)" d="M218.9 1791.12 L243.011 1791.12 L243.011 1794.32 L218.9 1794.32 L218.9 1791.12 Z" fill="#000000" fill-rule="nonzero" fill-opacity="1" /><path clip-path="url(#clip850)" d="M259.336 1779.21 Q256.402 1779.21 254.916 1782.11 Q253.449 1784.99 253.449 1790.78 Q253.449 1796.55 254.916 1799.45 Q256.402 1802.33 259.336 1802.33 Q262.289 1802.33 263.756 1799.45 Q265.242 1796.55 265.242 1790.78 Q265.242 1784.99 263.756 1782.11 Q262.289 1779.21 259.336 1779.21 M259.336 1776.2 Q264.057 1776.2 266.54 1779.95 Q269.041 1783.67 269.041 1790.78 Q269.041 1797.87 266.54 1801.61 Q264.057 1805.34 259.336 1805.34 Q254.616 1805.34 252.114 1801.61 Q249.631 1797.87 249.631 1790.78 Q249.631 1783.67 252.114 1779.95 Q254.616 1776.2 259.336 1776.2 Z" fill="#000000" fill-rule="nonzero" fill-opacity="1" /><path clip-path="url(#clip850)" d="M275.718 1800.01 L279.686 1800.01 L279.686 1804.79 L275.718 1804.79 L275.718 1800.01 Z" fill="#000000" fill-rule="nonzero" fill-opacity="1" /><path clip-path="url(#clip850)" d="M287.999 1776.71 L302.914 1776.71 L302.914 1779.91 L291.479 1779.91 L291.479 1786.79 Q292.306 1786.51 293.134 1786.38 Q293.961 1786.23 294.789 1786.23 Q299.491 1786.23 302.237 1788.81 Q304.983 1791.38 304.983 1795.78 Q304.983 1800.32 302.162 1802.84 Q299.34 1805.34 294.206 1805.34 Q292.438 1805.34 290.595 1805.04 Q288.77 1804.74 286.814 1804.13 L286.814 1800.32 Q288.507 1801.24 290.313 1801.69 Q292.118 1802.14 294.131 1802.14 Q297.384 1802.14 299.284 1800.43 Q301.184 1798.72 301.184 1795.78 Q301.184 1792.85 299.284 1791.14 Q297.384 1789.43 294.131 1789.43 Q292.607 1789.43 291.084 1789.76 Q289.579 1790.1 287.999 1790.82 L287.999 1776.71 Z" fill="#000000" fill-rule="nonzero" fill-opacity="1" /><path clip-path="url(#clip850)" d="M197.527 1298.91 L205.166 1298.91 L205.166 1272.54 L196.855 1274.21 L196.855 1269.95 L205.119 1268.28 L209.795 1268.28 L209.795 1298.91 L217.434 1298.91 L217.434 1302.84 L197.527 1302.84 L197.527 1298.91 Z" fill="#000000" fill-rule="nonzero" fill-opacity="1" /><path clip-path="url(#clip850)" d="M236.878 1271.36 Q233.267 1271.36 231.439 1274.92 Q229.633 1278.47 229.633 1285.6 Q229.633 1292.7 231.439 1296.27 Q233.267 1299.81 236.878 1299.81 Q240.513 1299.81 242.318 1296.27 Q244.147 1292.7 244.147 1285.6 Q244.147 1278.47 242.318 1274.92 Q240.513 1271.36 236.878 1271.36 M236.878 1267.66 Q242.689 1267.66 245.744 1272.26 Q248.823 1276.85 248.823 1285.6 Q248.823 1294.32 245.744 1298.93 Q242.689 1303.51 236.878 1303.51 Q231.068 1303.51 227.99 1298.93 Q224.934 1294.32 224.934 1285.6 Q224.934 1276.85 227.99 1272.26 Q231.068 1267.66 236.878 1267.66 Z" fill="#000000" fill-rule="nonzero" fill-opacity="1" /><path clip-path="url(#clip850)" d="M258.528 1249.85 Q255.594 1249.85 254.108 1252.75 Q252.641 1255.63 252.641 1261.42 Q252.641 1267.19 254.108 1270.09 Q255.594 1272.97 258.528 1272.97 Q261.48 1272.97 262.947 1270.09 Q264.433 1267.19 264.433 1261.42 Q264.433 1255.63 262.947 1252.75 Q261.48 1249.85 258.528 1249.85 M258.528 1246.84 Q263.248 1246.84 265.731 1250.59 Q268.232 1254.31 268.232 1261.42 Q268.232 1268.51 265.731 1272.25 Q263.248 1275.98 258.528 1275.98 Q253.807 1275.98 251.305 1272.25 Q248.823 1268.51 248.823 1261.42 Q248.823 1254.31 251.305 1250.59 Q253.807 1246.84 258.528 1246.84 Z" fill="#000000" fill-rule="nonzero" fill-opacity="1" /><path clip-path="url(#clip850)" d="M274.909 1270.65 L278.878 1270.65 L278.878 1275.43 L274.909 1275.43 L274.909 1270.65 Z" fill="#000000" fill-rule="nonzero" fill-opacity="1" /><path clip-path="url(#clip850)" d="M295.278 1249.85 Q292.344 1249.85 290.858 1252.75 Q289.391 1255.63 289.391 1261.42 Q289.391 1267.19 290.858 1270.09 Q292.344 1272.97 295.278 1272.97 Q298.231 1272.97 299.698 1270.09 Q301.184 1267.19 301.184 1261.42 Q301.184 1255.63 299.698 1252.75 Q298.231 1249.85 295.278 1249.85 M295.278 1246.84 Q299.999 1246.84 302.481 1250.59 Q304.983 1254.31 304.983 1261.42 Q304.983 1268.51 302.481 1272.25 Q299.999 1275.98 295.278 1275.98 Q290.557 1275.98 288.056 1272.25 Q285.573 1268.51 285.573 1261.42 Q285.573 1254.31 288.056 1250.59 Q290.557 1246.84 295.278 1246.84 Z" fill="#000000" fill-rule="nonzero" fill-opacity="1" /><path clip-path="url(#clip850)" d="M198.335 769.544 L205.974 769.544 L205.974 743.178 L197.664 744.845 L197.664 740.586 L205.928 738.919 L210.604 738.919 L210.604 769.544 L218.243 769.544 L218.243 773.479 L198.335 773.479 L198.335 769.544 Z" fill="#000000" fill-rule="nonzero" fill-opacity="1" /><path clip-path="url(#clip850)" d="M237.687 741.998 Q234.076 741.998 232.247 745.562 Q230.442 749.104 230.442 756.234 Q230.442 763.34 232.247 766.905 Q234.076 770.447 237.687 770.447 Q241.321 770.447 243.127 766.905 Q244.956 763.34 244.956 756.234 Q244.956 749.104 243.127 745.562 Q241.321 741.998 237.687 741.998 M237.687 738.294 Q243.497 738.294 246.553 742.9 Q249.631 747.484 249.631 756.234 Q249.631 764.96 246.553 769.567 Q243.497 774.15 237.687 774.15 Q231.877 774.15 228.798 769.567 Q225.743 764.96 225.743 756.234 Q225.743 747.484 228.798 742.9 Q231.877 738.294 237.687 738.294 Z" fill="#000000" fill-rule="nonzero" fill-opacity="1" /><path clip-path="url(#clip850)" d="M259.336 720.49 Q256.402 720.49 254.916 723.386 Q253.449 726.264 253.449 732.057 Q253.449 737.831 254.916 740.727 Q256.402 743.605 259.336 743.605 Q262.289 743.605 263.756 740.727 Q265.242 737.831 265.242 732.057 Q265.242 726.264 263.756 723.386 Q262.289 720.49 259.336 720.49 M259.336 717.481 Q264.057 717.481 266.54 721.223 Q269.041 724.947 269.041 732.057 Q269.041 739.147 266.54 742.89 Q264.057 746.614 259.336 746.614 Q254.616 746.614 252.114 742.89 Q249.631 739.147 249.631 732.057 Q249.631 724.947 252.114 721.223 Q254.616 717.481 259.336 717.481 Z" fill="#000000" fill-rule="nonzero" fill-opacity="1" /><path clip-path="url(#clip850)" d="M275.718 741.291 L279.686 741.291 L279.686 746.069 L275.718 746.069 L275.718 741.291 Z" fill="#000000" fill-rule="nonzero" fill-opacity="1" /><path clip-path="url(#clip850)" d="M287.999 717.989 L302.914 717.989 L302.914 721.186 L291.479 721.186 L291.479 728.07 Q292.306 727.787 293.134 727.656 Q293.961 727.505 294.789 727.505 Q299.491 727.505 302.237 730.082 Q304.983 732.659 304.983 737.06 Q304.983 741.592 302.162 744.113 Q299.34 746.614 294.206 746.614 Q292.438 746.614 290.595 746.313 Q288.77 746.012 286.814 745.41 L286.814 741.592 Q288.507 742.514 290.313 742.965 Q292.118 743.417 294.131 743.417 Q297.384 743.417 299.284 741.705 Q301.184 739.994 301.184 737.06 Q301.184 734.126 299.284 732.414 Q297.384 730.703 294.131 730.703 Q292.607 730.703 291.084 731.041 Q289.579 731.38 287.999 732.094 L287.999 717.989 Z" fill="#000000" fill-rule="nonzero" fill-opacity="1" /><path clip-path="url(#clip850)" d="M58.1901 1374.69 L63.8903 1374.69 Q62.2989 1378.01 61.5176 1380.96 Q60.7364 1383.92 60.7364 1386.66 Q60.7364 1391.44 62.5882 1394.04 Q64.4401 1396.62 67.8544 1396.62 Q70.719 1396.62 72.1947 1394.91 Q73.6414 1393.17 74.5384 1388.37 L75.2618 1384.84 Q76.506 1378.3 79.6599 1375.21 Q82.7849 1372.08 88.0511 1372.08 Q94.33 1372.08 97.5707 1376.31 Q100.811 1380.5 100.811 1388.63 Q100.811 1391.7 100.117 1395.17 Q99.4225 1398.61 98.0626 1402.32 L92.0441 1402.32 Q94.0406 1398.76 95.0533 1395.34 Q96.0661 1391.93 96.0661 1388.63 Q96.0661 1383.63 94.0985 1380.91 Q92.1309 1378.19 88.4851 1378.19 Q85.3022 1378.19 83.5083 1380.15 Q81.7143 1382.09 80.8173 1386.55 L80.1229 1390.11 Q78.8208 1396.65 76.043 1399.57 Q73.2653 1402.49 68.3174 1402.49 Q62.5882 1402.49 59.2896 1398.47 Q55.991 1394.42 55.991 1387.33 Q55.991 1384.29 56.5408 1381.14 Q57.0906 1377.98 58.1901 1374.69 Z" fill="#000000" fill-rule="nonzero" fill-opacity="1" /><path clip-path="url(#clip850)" d="M71.2977 1350.64 Q71.2977 1354.92 74.6541 1357.41 Q77.9817 1359.9 83.7976 1359.9 Q89.6135 1359.9 92.97 1357.44 Q96.2975 1354.95 96.2975 1350.64 Q96.2975 1346.39 92.9411 1343.9 Q89.5846 1341.41 83.7976 1341.41 Q78.0395 1341.41 74.6831 1343.9 Q71.2977 1346.39 71.2977 1350.64 M66.7838 1350.64 Q66.7838 1343.7 71.2977 1339.73 Q75.8115 1335.77 83.7976 1335.77 Q91.7547 1335.77 96.2975 1339.73 Q100.811 1343.7 100.811 1350.64 Q100.811 1357.61 96.2975 1361.58 Q91.7547 1365.51 83.7976 1365.51 Q75.8115 1365.51 71.2977 1361.58 Q66.7838 1357.61 66.7838 1350.64 Z" fill="#000000" fill-rule="nonzero" fill-opacity="1" /><path clip-path="url(#clip850)" d="M54.9494 1326.94 L54.9494 1321.62 L99.9723 1321.62 L99.9723 1326.94 L54.9494 1326.94 Z" fill="#000000" fill-rule="nonzero" fill-opacity="1" /><path clip-path="url(#clip850)" d="M67.565 1314.3 L67.565 1308.66 L94.764 1298.53 L67.565 1288.4 L67.565 1282.76 L99.9723 1294.91 L99.9723 1302.15 L67.565 1314.3 Z" fill="#000000" fill-rule="nonzero" fill-opacity="1" /><path clip-path="url(#clip850)" d="M82.4377 1247.69 L85.0418 1247.69 L85.0418 1272.17 Q90.5395 1271.82 93.433 1268.87 Q96.2975 1265.89 96.2975 1260.59 Q96.2975 1257.53 95.5452 1254.66 Q94.7929 1251.77 93.2883 1248.93 L98.323 1248.93 Q99.5383 1251.8 100.175 1254.81 Q100.811 1257.82 100.811 1260.91 Q100.811 1268.67 96.2975 1273.21 Q91.7837 1277.72 84.087 1277.72 Q76.1298 1277.72 71.4713 1273.44 Q66.7838 1269.13 66.7838 1261.84 Q66.7838 1255.3 71.0083 1251.51 Q75.2039 1247.69 82.4377 1247.69 M80.8752 1253.01 Q76.506 1253.07 73.9018 1255.47 Q71.2977 1257.85 71.2977 1261.78 Q71.2977 1266.24 73.815 1268.93 Q76.3324 1271.59 80.9041 1271.99 L80.8752 1253.01 Z" fill="#000000" fill-rule="nonzero" fill-opacity="1" /><path clip-path="url(#clip850)" d="M58.3637 1214.85 L67.565 1214.85 L67.565 1203.88 L71.7028 1203.88 L71.7028 1214.85 L89.2953 1214.85 Q93.2594 1214.85 94.3878 1213.78 Q95.5163 1212.68 95.5163 1209.35 L95.5163 1203.88 L99.9723 1203.88 L99.9723 1209.35 Q99.9723 1215.51 97.6864 1217.86 Q95.3716 1220.2 89.2953 1220.2 L71.7028 1220.2 L71.7028 1224.11 L67.565 1224.11 L67.565 1220.2 L58.3637 1220.2 L58.3637 1214.85 Z" fill="#000000" fill-rule="nonzero" fill-opacity="1" /><path clip-path="url(#clip850)" d="M67.565 1196.88 L67.565 1191.56 L99.9723 1191.56 L99.9723 1196.88 L67.565 1196.88 M54.9494 1196.88 L54.9494 1191.56 L61.6912 1191.56 L61.6912 1196.88 L54.9494 1196.88 Z" fill="#000000" fill-rule="nonzero" fill-opacity="1" /><path clip-path="url(#clip850)" d="M73.7861 1155.18 Q70.1981 1153.19 68.491 1150.41 Q66.7838 1147.63 66.7838 1143.87 Q66.7838 1138.81 70.3428 1136.06 Q73.8729 1133.31 80.4122 1133.31 L99.9723 1133.31 L99.9723 1138.66 L80.5858 1138.66 Q75.9273 1138.66 73.6703 1140.31 Q71.4134 1141.96 71.4134 1145.35 Q71.4134 1149.48 74.1622 1151.89 Q76.9111 1154.29 81.6564 1154.29 L99.9723 1154.29 L99.9723 1159.64 L80.5858 1159.64 Q75.8983 1159.64 73.6703 1161.29 Q71.4134 1162.94 71.4134 1166.38 Q71.4134 1170.46 74.1912 1172.86 Q76.94 1175.26 81.6564 1175.26 L99.9723 1175.26 L99.9723 1180.62 L67.565 1180.62 L67.565 1175.26 L72.5997 1175.26 Q69.6194 1173.44 68.2016 1170.9 Q66.7838 1168.35 66.7838 1164.85 Q66.7838 1161.32 68.5778 1158.86 Q70.3717 1156.37 73.7861 1155.18 Z" fill="#000000" fill-rule="nonzero" fill-opacity="1" /><path clip-path="url(#clip850)" d="M82.4377 1094.97 L85.0418 1094.97 L85.0418 1119.45 Q90.5395 1119.1 93.433 1116.15 Q96.2975 1113.17 96.2975 1107.88 Q96.2975 1104.81 95.5452 1101.94 Q94.7929 1099.05 93.2883 1096.21 L98.323 1096.21 Q99.5383 1099.08 100.175 1102.09 Q100.811 1105.1 100.811 1108.19 Q100.811 1115.95 96.2975 1120.49 Q91.7837 1125 84.087 1125 Q76.1298 1125 71.4713 1120.72 Q66.7838 1116.41 66.7838 1109.12 Q66.7838 1102.58 71.0083 1098.79 Q75.2039 1094.97 82.4377 1094.97 M80.8752 1100.29 Q76.506 1100.35 73.9018 1102.75 Q71.2977 1105.13 71.2977 1109.06 Q71.2977 1113.52 73.815 1116.21 Q76.3324 1118.87 80.9041 1119.28 L80.8752 1100.29 Z" fill="#000000" fill-rule="nonzero" fill-opacity="1" /><path clip-path="url(#clip850)" d="M55.0072 1054.61 Q61.6623 1058.48 68.1727 1060.36 Q74.6831 1062.24 81.3671 1062.24 Q88.0511 1062.24 94.6193 1060.36 Q101.159 1058.45 107.785 1054.61 L107.785 1059.24 Q100.985 1063.58 94.4168 1065.75 Q87.8485 1067.89 81.3671 1067.89 Q74.9145 1067.89 68.3752 1065.75 Q61.8359 1063.6 55.0072 1059.24 L55.0072 1054.61 Z" fill="#000000" fill-rule="nonzero" fill-opacity="1" /><path clip-path="url(#clip850)" d="M68.5199 1023.62 L73.5546 1023.62 Q72.3972 1025.87 71.8185 1028.3 Q71.2398 1030.73 71.2398 1033.34 Q71.2398 1037.3 72.4551 1039.3 Q73.6703 1041.27 76.1009 1041.27 Q77.9527 1041.27 79.0233 1039.85 Q80.065 1038.43 81.0198 1034.15 L81.4249 1032.33 Q82.6402 1026.65 84.8682 1024.28 Q87.0673 1021.88 91.0314 1021.88 Q95.5452 1021.88 98.1783 1025.47 Q100.811 1029.03 100.811 1035.28 Q100.811 1037.88 100.291 1040.72 Q99.7987 1043.52 98.7859 1046.65 L93.2883 1046.65 Q94.8218 1043.7 95.6031 1040.83 Q96.3554 1037.97 96.3554 1035.16 Q96.3554 1031.4 95.0823 1029.37 Q93.7802 1027.35 91.4364 1027.35 Q89.2663 1027.35 88.1089 1028.82 Q86.9515 1030.27 85.8809 1035.22 L85.4469 1037.07 Q84.4052 1042.02 82.264 1044.22 Q80.0939 1046.42 76.3324 1046.42 Q71.7606 1046.42 69.2722 1043.18 Q66.7838 1039.94 66.7838 1033.98 Q66.7838 1031.02 67.2178 1028.42 Q67.6519 1025.82 68.5199 1023.62 Z" fill="#000000" fill-rule="nonzero" fill-opacity="1" /><path clip-path="url(#clip850)" d="M55.0072 1014.24 L55.0072 1009.61 Q61.8359 1005.27 68.3752 1003.13 Q74.9145 1000.96 81.3671 1000.96 Q87.8485 1000.96 94.4168 1003.13 Q100.985 1005.27 107.785 1009.61 L107.785 1014.24 Q101.159 1010.39 94.6193 1008.51 Q88.0511 1006.6 81.3671 1006.6 Q74.6831 1006.6 68.1727 1008.51 Q61.6623 1010.39 55.0072 1014.24 Z" fill="#000000" fill-rule="nonzero" fill-opacity="1" /><path clip-path="url(#clip850)" d="M1310.5 125.969 L1310.5 133.949 Q1305.84 131.721 1301.71 130.627 Q1297.58 129.534 1293.73 129.534 Q1287.04 129.534 1283.4 132.126 Q1279.79 134.719 1279.79 139.499 Q1279.79 143.509 1282.18 145.575 Q1284.61 147.601 1291.34 148.857 L1296.28 149.869 Q1305.44 151.611 1309.77 156.027 Q1314.15 160.402 1314.15 167.774 Q1314.15 176.565 1308.23 181.102 Q1302.36 185.639 1290.97 185.639 Q1286.68 185.639 1281.82 184.667 Q1277 183.694 1271.81 181.79 L1271.81 173.365 Q1276.8 176.16 1281.58 177.577 Q1286.36 178.995 1290.97 178.995 Q1297.98 178.995 1301.79 176.241 Q1305.6 173.486 1305.6 168.382 Q1305.6 163.926 1302.84 161.414 Q1300.13 158.903 1293.89 157.647 L1288.91 156.675 Q1279.75 154.852 1275.66 150.963 Q1271.57 147.074 1271.57 140.147 Q1271.57 132.126 1277.2 127.508 Q1282.87 122.89 1292.8 122.89 Q1297.05 122.89 1301.47 123.66 Q1305.88 124.43 1310.5 125.969 Z" fill="#000000" fill-rule="nonzero" fill-opacity="1" /><path clip-path="url(#clip850)" d="M1344.16 144.32 Q1338.17 144.32 1334.68 149.019 Q1331.2 153.677 1331.2 161.819 Q1331.2 169.962 1334.64 174.661 Q1338.13 179.319 1344.16 179.319 Q1350.12 179.319 1353.6 174.62 Q1357.08 169.921 1357.08 161.819 Q1357.08 153.758 1353.6 149.059 Q1350.12 144.32 1344.16 144.32 M1344.16 138 Q1353.88 138 1359.43 144.32 Q1364.98 150.639 1364.98 161.819 Q1364.98 172.959 1359.43 179.319 Q1353.88 185.639 1344.16 185.639 Q1334.4 185.639 1328.85 179.319 Q1323.34 172.959 1323.34 161.819 Q1323.34 150.639 1328.85 144.32 Q1334.4 138 1344.16 138 Z" fill="#000000" fill-rule="nonzero" fill-opacity="1" /><path clip-path="url(#clip850)" d="M1377.34 121.432 L1384.79 121.432 L1384.79 184.464 L1377.34 184.464 L1377.34 121.432 Z" fill="#000000" fill-rule="nonzero" fill-opacity="1" /><path clip-path="url(#clip850)" d="M1395.04 139.094 L1402.94 139.094 L1417.12 177.172 L1431.3 139.094 L1439.2 139.094 L1422.18 184.464 L1412.06 184.464 L1395.04 139.094 Z" fill="#000000" fill-rule="nonzero" fill-opacity="1" /><path clip-path="url(#clip850)" d="M1488.29 159.916 L1488.29 163.561 L1454.02 163.561 Q1454.51 171.258 1458.64 175.309 Q1462.81 179.319 1470.23 179.319 Q1474.52 179.319 1478.53 178.266 Q1482.58 177.213 1486.55 175.106 L1486.55 182.155 Q1482.54 183.856 1478.33 184.748 Q1474.12 185.639 1469.78 185.639 Q1458.92 185.639 1452.56 179.319 Q1446.25 173 1446.25 162.225 Q1446.25 151.085 1452.24 144.563 Q1458.28 138 1468.48 138 Q1477.64 138 1482.95 143.914 Q1488.29 149.788 1488.29 159.916 M1480.84 157.728 Q1480.76 151.611 1477.4 147.965 Q1474.08 144.32 1468.57 144.32 Q1462.33 144.32 1458.56 147.844 Q1454.83 151.368 1454.27 157.769 L1480.84 157.728 Z" fill="#000000" fill-rule="nonzero" fill-opacity="1" /><path clip-path="url(#clip850)" d="M1534.27 126.212 L1534.27 139.094 L1549.62 139.094 L1549.62 144.887 L1534.27 144.887 L1534.27 169.516 Q1534.27 175.066 1535.77 176.646 Q1537.31 178.226 1541.97 178.226 L1549.62 178.226 L1549.62 184.464 L1541.97 184.464 Q1533.34 184.464 1530.06 181.264 Q1526.78 178.023 1526.78 169.516 L1526.78 144.887 L1521.31 144.887 L1521.31 139.094 L1526.78 139.094 L1526.78 126.212 L1534.27 126.212 Z" fill="#000000" fill-rule="nonzero" fill-opacity="1" /><path clip-path="url(#clip850)" d="M1559.43 139.094 L1566.88 139.094 L1566.88 184.464 L1559.43 184.464 L1559.43 139.094 M1559.43 121.432 L1566.88 121.432 L1566.88 130.871 L1559.43 130.871 L1559.43 121.432 Z" fill="#000000" fill-rule="nonzero" fill-opacity="1" /><path clip-path="url(#clip850)" d="M1617.8 147.803 Q1620.6 142.78 1624.49 140.39 Q1628.37 138 1633.64 138 Q1640.73 138 1644.58 142.983 Q1648.43 147.925 1648.43 157.08 L1648.43 184.464 L1640.93 184.464 L1640.93 157.323 Q1640.93 150.801 1638.62 147.641 Q1636.31 144.482 1631.57 144.482 Q1625.78 144.482 1622.42 148.33 Q1619.06 152.178 1619.06 158.822 L1619.06 184.464 L1611.56 184.464 L1611.56 157.323 Q1611.56 150.76 1609.25 147.641 Q1606.94 144.482 1602.12 144.482 Q1596.41 144.482 1593.05 148.37 Q1589.69 152.219 1589.69 158.822 L1589.69 184.464 L1582.19 184.464 L1582.19 139.094 L1589.69 139.094 L1589.69 146.142 Q1592.24 141.97 1595.8 139.985 Q1599.37 138 1604.27 138 Q1609.21 138 1612.66 140.512 Q1616.14 143.023 1617.8 147.803 Z" fill="#000000" fill-rule="nonzero" fill-opacity="1" /><path clip-path="url(#clip850)" d="M1702.1 159.916 L1702.1 163.561 L1667.83 163.561 Q1668.32 171.258 1672.45 175.309 Q1676.62 179.319 1684.03 179.319 Q1688.33 179.319 1692.34 178.266 Q1696.39 177.213 1700.36 175.106 L1700.36 182.155 Q1696.35 183.856 1692.14 184.748 Q1687.92 185.639 1683.59 185.639 Q1672.73 185.639 1666.37 179.319 Q1660.05 173 1660.05 162.225 Q1660.05 151.085 1666.05 144.563 Q1672.08 138 1682.29 138 Q1691.45 138 1696.75 143.914 Q1702.1 149.788 1702.1 159.916 M1694.65 157.728 Q1694.57 151.611 1691.2 147.965 Q1687.88 144.32 1682.37 144.32 Q1676.13 144.32 1672.37 147.844 Q1668.64 151.368 1668.07 157.769 L1694.65 157.728 Z" fill="#000000" fill-rule="nonzero" fill-opacity="1" /><path clip-path="url(#clip850)" d="M1735.36 139.094 L1743.26 139.094 L1757.44 177.172 L1771.61 139.094 L1779.51 139.094 L1762.5 184.464 L1752.37 184.464 L1735.36 139.094 Z" fill="#000000" fill-rule="nonzero" fill-opacity="1" /><path clip-path="url(#clip850)" d="M1818.73 140.431 L1818.73 147.479 Q1815.57 145.859 1812.16 145.049 Q1808.76 144.239 1805.11 144.239 Q1799.57 144.239 1796.77 145.94 Q1794.02 147.641 1794.02 151.044 Q1794.02 153.637 1796 155.135 Q1797.99 156.594 1803.98 157.931 L1806.53 158.498 Q1814.47 160.199 1817.79 163.318 Q1821.16 166.397 1821.16 171.947 Q1821.16 178.266 1816.13 181.952 Q1811.15 185.639 1802.4 185.639 Q1798.76 185.639 1794.79 184.91 Q1790.86 184.221 1786.48 182.803 L1786.48 175.106 Q1790.61 177.253 1794.62 178.347 Q1798.63 179.4 1802.56 179.4 Q1807.83 179.4 1810.66 177.618 Q1813.5 175.795 1813.5 172.514 Q1813.5 169.476 1811.43 167.855 Q1809.41 166.235 1802.48 164.736 L1799.89 164.128 Q1792.96 162.67 1789.88 159.672 Q1786.8 156.634 1786.8 151.368 Q1786.8 144.968 1791.34 141.484 Q1795.88 138 1804.22 138 Q1808.36 138 1812 138.608 Q1815.65 139.215 1818.73 140.431 Z" fill="#000000" fill-rule="nonzero" fill-opacity="1" /><path clip-path="url(#clip850)" d="M1889.25 161.252 Q1889.25 153.151 1885.89 148.695 Q1882.57 144.239 1876.53 144.239 Q1870.54 144.239 1867.17 148.695 Q1863.85 153.151 1863.85 161.252 Q1863.85 169.314 1867.17 173.77 Q1870.54 178.226 1876.53 178.226 Q1882.57 178.226 1885.89 173.77 Q1889.25 169.314 1889.25 161.252 M1896.71 178.833 Q1896.71 190.419 1891.56 196.05 Q1886.42 201.721 1875.8 201.721 Q1871.87 201.721 1868.39 201.113 Q1864.91 200.546 1861.63 199.331 L1861.63 192.08 Q1864.91 193.862 1868.11 194.713 Q1871.31 195.563 1874.63 195.563 Q1881.96 195.563 1885.61 191.715 Q1889.25 187.907 1889.25 180.17 L1889.25 176.484 Q1886.94 180.494 1883.34 182.479 Q1879.73 184.464 1874.71 184.464 Q1866.36 184.464 1861.26 178.104 Q1856.16 171.744 1856.16 161.252 Q1856.16 150.72 1861.26 144.36 Q1866.36 138 1874.71 138 Q1879.73 138 1883.34 139.985 Q1886.94 141.97 1889.25 145.98 L1889.25 139.094 L1896.71 139.094 L1896.71 178.833 Z" fill="#000000" fill-rule="nonzero" fill-opacity="1" /><path clip-path="url(#clip850)" d="M1938.35 146.061 Q1937.09 145.332 1935.59 145.008 Q1934.14 144.644 1932.35 144.644 Q1926.03 144.644 1922.63 148.776 Q1919.27 152.867 1919.27 160.564 L1919.27 184.464 L1911.78 184.464 L1911.78 139.094 L1919.27 139.094 L1919.27 146.142 Q1921.62 142.011 1925.39 140.026 Q1929.15 138 1934.54 138 Q1935.31 138 1936.24 138.122 Q1937.17 138.203 1938.31 138.405 L1938.35 146.061 Z" fill="#000000" fill-rule="nonzero" fill-opacity="1" /><path clip-path="url(#clip850)" d="M1946.17 139.094 L1953.62 139.094 L1953.62 184.464 L1946.17 184.464 L1946.17 139.094 M1946.17 121.432 L1953.62 121.432 L1953.62 130.871 L1946.17 130.871 L1946.17 121.432 Z" fill="#000000" fill-rule="nonzero" fill-opacity="1" /><path clip-path="url(#clip850)" d="M1999.07 145.98 L1999.07 121.432 L2006.53 121.432 L2006.53 184.464 L1999.07 184.464 L1999.07 177.658 Q1996.72 181.709 1993.12 183.694 Q1989.55 185.639 1984.53 185.639 Q1976.31 185.639 1971.12 179.076 Q1965.98 172.514 1965.98 161.819 Q1965.98 151.125 1971.12 144.563 Q1976.31 138 1984.53 138 Q1989.55 138 1993.12 139.985 Q1996.72 141.93 1999.07 145.98 M1973.67 161.819 Q1973.67 170.043 1977.04 174.742 Q1980.44 179.4 1986.35 179.4 Q1992.27 179.4 1995.67 174.742 Q1999.07 170.043 1999.07 161.819 Q1999.07 153.596 1995.67 148.938 Q1992.27 144.239 1986.35 144.239 Q1980.44 144.239 1977.04 148.938 Q1973.67 153.596 1973.67 161.819 Z" fill="#000000" fill-rule="nonzero" fill-opacity="1" /><path clip-path="url(#clip850)" d="M2077.17 140.431 L2077.17 147.479 Q2074.01 145.859 2070.61 145.049 Q2067.21 144.239 2063.56 144.239 Q2058.01 144.239 2055.22 145.94 Q2052.46 147.641 2052.46 151.044 Q2052.46 153.637 2054.45 155.135 Q2056.43 156.594 2062.43 157.931 L2064.98 158.498 Q2072.92 160.199 2076.24 163.318 Q2079.6 166.397 2079.6 171.947 Q2079.6 178.266 2074.58 181.952 Q2069.6 185.639 2060.85 185.639 Q2057.2 185.639 2053.23 184.91 Q2049.3 184.221 2044.93 182.803 L2044.93 175.106 Q2049.06 177.253 2053.07 178.347 Q2057.08 179.4 2061.01 179.4 Q2066.28 179.4 2069.11 177.618 Q2071.95 175.795 2071.95 172.514 Q2071.95 169.476 2069.88 167.855 Q2067.86 166.235 2060.93 164.736 L2058.34 164.128 Q2051.41 162.67 2048.33 159.672 Q2045.25 156.634 2045.25 151.368 Q2045.25 144.968 2049.79 141.484 Q2054.33 138 2062.67 138 Q2066.8 138 2070.45 138.608 Q2074.09 139.215 2077.17 140.431 Z" fill="#000000" fill-rule="nonzero" fill-opacity="1" /><path clip-path="url(#clip850)" d="M2091.47 139.094 L2098.93 139.094 L2098.93 184.464 L2091.47 184.464 L2091.47 139.094 M2091.47 121.432 L2098.93 121.432 L2098.93 130.871 L2091.47 130.871 L2091.47 121.432 Z" fill="#000000" fill-rule="nonzero" fill-opacity="1" /><path clip-path="url(#clip850)" d="M2111.28 139.094 L2146.69 139.094 L2146.69 145.899 L2118.65 178.509 L2146.69 178.509 L2146.69 184.464 L2110.27 184.464 L2110.27 177.658 L2138.3 145.049 L2111.28 145.049 L2111.28 139.094 Z" fill="#000000" fill-rule="nonzero" fill-opacity="1" /><path clip-path="url(#clip850)" d="M2196.88 159.916 L2196.88 163.561 L2162.61 163.561 Q2163.09 171.258 2167.23 175.309 Q2171.4 179.319 2178.81 179.319 Q2183.1 179.319 2187.12 178.266 Q2191.17 177.213 2195.14 175.106 L2195.14 182.155 Q2191.13 183.856 2186.91 184.748 Q2182.7 185.639 2178.37 185.639 Q2167.51 185.639 2161.15 179.319 Q2154.83 173 2154.83 162.225 Q2154.83 151.085 2160.82 144.563 Q2166.86 138 2177.07 138 Q2186.22 138 2191.53 143.914 Q2196.88 149.788 2196.88 159.916 M2189.42 157.728 Q2189.34 151.611 2185.98 147.965 Q2182.66 144.32 2177.15 144.32 Q2170.91 144.32 2167.14 147.844 Q2163.42 151.368 2162.85 157.769 L2189.42 157.728 Z" fill="#000000" fill-rule="nonzero" fill-opacity="1" /><path clip-path="url(#clip850)" d="M2231.72 158.822 L2306.58 158.822 L2306.58 164.655 L2231.72 164.655 L2231.72 158.822 Z" fill="#000000" fill-rule="nonzero" fill-opacity="1" /><path clip-path="url(#clip850)" d="M2371.11 146.061 Q2369.85 145.332 2368.35 145.008 Q2366.89 144.644 2365.11 144.644 Q2358.79 144.644 2355.39 148.776 Q2352.03 152.867 2352.03 160.564 L2352.03 184.464 L2344.53 184.464 L2344.53 139.094 L2352.03 139.094 L2352.03 146.142 Q2354.38 142.011 2358.14 140.026 Q2361.91 138 2367.3 138 Q2368.07 138 2369 138.122 Q2369.93 138.203 2371.07 138.405 L2371.11 146.061 Z" fill="#000000" fill-rule="nonzero" fill-opacity="1" /><path clip-path="url(#clip850)" d="M2394.68 144.32 Q2388.69 144.32 2385.2 149.019 Q2381.72 153.677 2381.72 161.819 Q2381.72 169.962 2385.16 174.661 Q2388.65 179.319 2394.68 179.319 Q2400.64 179.319 2404.12 174.62 Q2407.61 169.921 2407.61 161.819 Q2407.61 153.758 2404.12 149.059 Q2400.64 144.32 2394.68 144.32 M2394.68 138 Q2404.41 138 2409.96 144.32 Q2415.51 150.639 2415.51 161.819 Q2415.51 172.959 2409.96 179.319 Q2404.41 185.639 2394.68 185.639 Q2384.92 185.639 2379.37 179.319 Q2373.86 172.959 2373.86 161.819 Q2373.86 150.639 2379.37 144.32 Q2384.92 138 2394.68 138 Z" fill="#000000" fill-rule="nonzero" fill-opacity="1" /><path clip-path="url(#clip850)" d="M2460.43 161.819 Q2460.43 153.596 2457.03 148.938 Q2453.66 144.239 2447.75 144.239 Q2441.84 144.239 2438.43 148.938 Q2435.07 153.596 2435.07 161.819 Q2435.07 170.043 2438.43 174.742 Q2441.84 179.4 2447.75 179.4 Q2453.66 179.4 2457.03 174.742 Q2460.43 170.043 2460.43 161.819 M2435.07 145.98 Q2437.42 141.93 2440.99 139.985 Q2444.59 138 2449.57 138 Q2457.84 138 2462.98 144.563 Q2468.17 151.125 2468.17 161.819 Q2468.17 172.514 2462.98 179.076 Q2457.84 185.639 2449.57 185.639 Q2444.59 185.639 2440.99 183.694 Q2437.42 181.709 2435.07 177.658 L2435.07 184.464 L2427.58 184.464 L2427.58 121.432 L2435.07 121.432 L2435.07 145.98 Z" fill="#000000" fill-rule="nonzero" fill-opacity="1" /><path clip-path="url(#clip850)" d="M2513.09 161.819 Q2513.09 153.596 2509.69 148.938 Q2506.33 144.239 2500.41 144.239 Q2494.5 144.239 2491.1 148.938 Q2487.73 153.596 2487.73 161.819 Q2487.73 170.043 2491.1 174.742 Q2494.5 179.4 2500.41 179.4 Q2506.33 179.4 2509.69 174.742 Q2513.09 170.043 2513.09 161.819 M2487.73 145.98 Q2490.08 141.93 2493.65 139.985 Q2497.25 138 2502.24 138 Q2510.5 138 2515.64 144.563 Q2520.83 151.125 2520.83 161.819 Q2520.83 172.514 2515.64 179.076 Q2510.5 185.639 2502.24 185.639 Q2497.25 185.639 2493.65 183.694 Q2490.08 181.709 2487.73 177.658 L2487.73 184.464 L2480.24 184.464 L2480.24 121.432 L2487.73 121.432 L2487.73 145.98 Z" fill="#000000" fill-rule="nonzero" fill-opacity="1" /><path clip-path="url(#clip850)" d="M2533.18 139.094 L2540.64 139.094 L2540.64 184.464 L2533.18 184.464 L2533.18 139.094 M2533.18 121.432 L2540.64 121.432 L2540.64 130.871 L2533.18 130.871 L2533.18 121.432 Z" fill="#000000" fill-rule="nonzero" fill-opacity="1" /><path clip-path="url(#clip850)" d="M2593.95 157.08 L2593.95 184.464 L2586.49 184.464 L2586.49 157.323 Q2586.49 150.882 2583.98 147.682 Q2581.47 144.482 2576.45 144.482 Q2570.41 144.482 2566.93 148.33 Q2563.44 152.178 2563.44 158.822 L2563.44 184.464 L2555.95 184.464 L2555.95 139.094 L2563.44 139.094 L2563.44 146.142 Q2566.12 142.051 2569.72 140.026 Q2573.37 138 2578.11 138 Q2585.93 138 2589.94 142.861 Q2593.95 147.682 2593.95 157.08 Z" fill="#000000" fill-rule="nonzero" fill-opacity="1" /><path clip-path="url(#clip850)" d="M2637.74 140.431 L2637.74 147.479 Q2634.58 145.859 2631.18 145.049 Q2627.77 144.239 2624.13 144.239 Q2618.58 144.239 2615.78 145.94 Q2613.03 147.641 2613.03 151.044 Q2613.03 153.637 2615.01 155.135 Q2617 156.594 2622.99 157.931 L2625.54 158.498 Q2633.48 160.199 2636.81 163.318 Q2640.17 166.397 2640.17 171.947 Q2640.17 178.266 2635.15 181.952 Q2630.16 185.639 2621.41 185.639 Q2617.77 185.639 2613.8 184.91 Q2609.87 184.221 2605.49 182.803 L2605.49 175.106 Q2609.62 177.253 2613.63 178.347 Q2617.65 179.4 2621.57 179.4 Q2626.84 179.4 2629.68 177.618 Q2632.51 175.795 2632.51 172.514 Q2632.51 169.476 2630.45 167.855 Q2628.42 166.235 2621.49 164.736 L2618.9 164.128 Q2611.97 162.67 2608.9 159.672 Q2605.82 156.634 2605.82 151.368 Q2605.82 144.968 2610.35 141.484 Q2614.89 138 2623.24 138 Q2627.37 138 2631.01 138.608 Q2634.66 139.215 2637.74 140.431 Z" fill="#000000" fill-rule="nonzero" fill-opacity="1" /><polyline clip-path="url(#clip852)" style="stroke:#ffa500; stroke-linecap:round; stroke-linejoin:round; stroke-width:6; stroke-opacity:1; fill:none" points="504.154,2102.46 2064,991.421 2735.79,778.433 3407.58,300.989 "/>
<path clip-path="url(#clip852)" d="M504.154 2086.46 L488.154 2118.46 L520.154 2118.46 L504.154 2086.46 Z" fill="#ffa500" fill-rule="evenodd" fill-opacity="1" stroke="none"/>
<path clip-path="url(#clip852)" d="M2064 975.421 L2048 1007.42 L2080 1007.42 L2064 975.421 Z" fill="#ffa500" fill-rule="evenodd" fill-opacity="1" stroke="none"/>
<path clip-path="url(#clip852)" d="M2735.79 762.433 L2719.79 794.433 L2751.79 794.433 L2735.79 762.433 Z" fill="#ffa500" fill-rule="evenodd" fill-opacity="1" stroke="none"/>
<path clip-path="url(#clip852)" d="M3407.58 284.989 L3391.58 316.989 L3423.58 316.989 L3407.58 284.989 Z" fill="#ffa500" fill-rule="evenodd" fill-opacity="1" stroke="none"/>
<polyline clip-path="url(#clip852)" style="stroke:#00ffff; stroke-linecap:round; stroke-linejoin:round; stroke-width:6; stroke-opacity:1; fill:none" points="504.154,2019.73 2064,1306.69 2735.79,1317.69 3407.58,827.714 "/>
<path clip-path="url(#clip852)" d="M504.154 2035.73 L490.298 2027.73 L490.298 2011.73 L504.154 2003.73 L518.01 2011.73 L518.01 2027.73 Z" fill="#00ffff" fill-rule="evenodd" fill-opacity="1" stroke="none"/>
<path clip-path="url(#clip852)" d="M2064 1322.69 L2050.15 1314.69 L2050.15 1298.69 L2064 1290.69 L2077.86 1298.69 L2077.86 1314.69 Z" fill="#00ffff" fill-rule="evenodd" fill-opacity="1" stroke="none"/>
<path clip-path="url(#clip852)" d="M2735.79 1333.69 L2721.94 1325.69 L2721.94 1309.69 L2735.79 1301.69 L2749.65 1309.69 L2749.65 1325.69 Z" fill="#00ffff" fill-rule="evenodd" fill-opacity="1" stroke="none"/>
<path clip-path="url(#clip852)" d="M3407.58 843.714 L3393.73 835.714 L3393.73 819.714 L3407.58 811.714 L3421.44 819.714 L3421.44 835.714 Z" fill="#00ffff" fill-rule="evenodd" fill-opacity="1" stroke="none"/>
<path clip-path="url(#clip850)" d="M2689.93 2092.86 L3446.3 2092.86 L3446.3 1937.34 L2689.93 1937.34  Z" fill="#ffffff" fill-rule="evenodd" fill-opacity="1"/>
<polyline clip-path="url(#clip850)" style="stroke:#000000; stroke-linecap:round; stroke-linejoin:round; stroke-width:4; stroke-opacity:1; fill:none" points="2689.93,2092.86 3446.3,2092.86 3446.3,1937.34 2689.93,1937.34 2689.93,2092.86 "/>
<polyline clip-path="url(#clip850)" style="stroke:#ffa500; stroke-linecap:round; stroke-linejoin:round; stroke-width:6; stroke-opacity:1; fill:none" points="2725.42,1989.18 2938.34,1989.18 "/>
<path clip-path="url(#clip850)" d="M2831.88 1963.58 L2806.28 2014.78 L2857.48 2014.78 L2831.88 1963.58 Z" fill="#ffa500" fill-rule="evenodd" fill-opacity="1" stroke="none"/>
<path clip-path="url(#clip850)" d="M2984.45 1970.48 Q2981.35 1975.81 2979.84 1981.02 Q2978.34 1986.22 2978.34 1991.57 Q2978.34 1996.92 2979.84 2002.17 Q2981.37 2007.4 2984.45 2012.71 L2980.74 2012.71 Q2977.27 2007.27 2975.53 2002.01 Q2973.82 1996.76 2973.82 1991.57 Q2973.82 1986.41 2975.53 1981.18 Q2977.25 1975.95 2980.74 1970.48 L2984.45 1970.48 Z" fill="#000000" fill-rule="nonzero" fill-opacity="1" /><path clip-path="url(#clip850)" d="M3014.89 1992.43 L3014.89 1994.51 L2995.3 1994.51 Q2995.58 1998.91 2997.94 2001.22 Q3000.33 2003.52 3004.56 2003.52 Q3007.02 2003.52 3009.31 2002.91 Q3011.62 2002.31 3013.89 2001.11 L3013.89 2005.14 Q3011.6 2006.11 3009.19 2006.62 Q3006.78 2007.13 3004.31 2007.13 Q2998.1 2007.13 2994.47 2003.52 Q2990.86 1999.9 2990.86 1993.75 Q2990.86 1987.38 2994.28 1983.65 Q2997.73 1979.9 3003.57 1979.9 Q3008.8 1979.9 3011.83 1983.28 Q3014.89 1986.64 3014.89 1992.43 M3010.63 1991.18 Q3010.58 1987.68 3008.66 1985.6 Q3006.76 1983.52 3003.61 1983.52 Q3000.05 1983.52 2997.9 1985.53 Q2995.77 1987.54 2995.44 1991.2 L3010.63 1991.18 Z" fill="#000000" fill-rule="nonzero" fill-opacity="1" /><path clip-path="url(#clip850)" d="M3042.59 1980.53 L3033.22 1993.15 L3043.08 2006.46 L3038.06 2006.46 L3030.51 1996.27 L3022.97 2006.46 L3017.94 2006.46 L3028.01 1992.89 L3018.8 1980.53 L3023.82 1980.53 L3030.7 1989.77 L3037.57 1980.53 L3042.59 1980.53 Z" fill="#000000" fill-rule="nonzero" fill-opacity="1" /><path clip-path="url(#clip850)" d="M3060.88 1993.42 Q3055.72 1993.42 3053.73 1994.6 Q3051.74 1995.78 3051.74 1998.63 Q3051.74 2000.9 3053.22 2002.24 Q3054.72 2003.56 3057.29 2003.56 Q3060.84 2003.56 3062.97 2001.06 Q3065.12 1998.54 3065.12 1994.37 L3065.12 1993.42 L3060.88 1993.42 M3069.38 1991.66 L3069.38 2006.46 L3065.12 2006.46 L3065.12 2002.52 Q3063.66 2004.88 3061.48 2006.02 Q3059.31 2007.13 3056.16 2007.13 Q3052.18 2007.13 3049.82 2004.9 Q3047.48 2002.66 3047.48 1998.91 Q3047.48 1994.53 3050.4 1992.31 Q3053.34 1990.09 3059.15 1990.09 L3065.12 1990.09 L3065.12 1989.67 Q3065.12 1986.73 3063.17 1985.14 Q3061.25 1983.52 3057.76 1983.52 Q3055.53 1983.52 3053.43 1984.05 Q3051.32 1984.58 3049.38 1985.65 L3049.38 1981.71 Q3051.72 1980.81 3053.91 1980.37 Q3056.11 1979.9 3058.2 1979.9 Q3063.82 1979.9 3066.6 1982.82 Q3069.38 1985.74 3069.38 1991.66 Z" fill="#000000" fill-rule="nonzero" fill-opacity="1" /><path clip-path="url(#clip850)" d="M3079.24 2000.58 L3084.12 2000.58 L3084.12 2004.56 L3080.33 2011.96 L3077.34 2011.96 L3079.24 2004.56 L3079.24 2000.58 Z" fill="#000000" fill-rule="nonzero" fill-opacity="1" /><path clip-path="url(#clip850)" d="M3128.47 1985.51 Q3130.07 1982.64 3132.29 1981.27 Q3134.52 1979.9 3137.52 1979.9 Q3141.58 1979.9 3143.77 1982.75 Q3145.97 1985.58 3145.97 1990.81 L3145.97 2006.46 L3141.69 2006.46 L3141.69 1990.95 Q3141.69 1987.22 3140.37 1985.41 Q3139.05 1983.61 3136.34 1983.61 Q3133.03 1983.61 3131.11 1985.81 Q3129.19 1988.01 3129.19 1991.8 L3129.19 2006.46 L3124.91 2006.46 L3124.91 1990.95 Q3124.91 1987.2 3123.59 1985.41 Q3122.27 1983.61 3119.52 1983.61 Q3116.25 1983.61 3114.33 1985.83 Q3112.41 1988.03 3112.41 1991.8 L3112.41 2006.46 L3108.13 2006.46 L3108.13 1980.53 L3112.41 1980.53 L3112.41 1984.56 Q3113.87 1982.17 3115.9 1981.04 Q3117.94 1979.9 3120.74 1979.9 Q3123.57 1979.9 3125.53 1981.34 Q3127.52 1982.78 3128.47 1985.51 Z" fill="#000000" fill-rule="nonzero" fill-opacity="1" /><path clip-path="url(#clip850)" d="M3166.25 1993.42 Q3161.09 1993.42 3159.1 1994.6 Q3157.11 1995.78 3157.11 1998.63 Q3157.11 2000.9 3158.59 2002.24 Q3160.09 2003.56 3162.66 2003.56 Q3166.21 2003.56 3168.33 2001.06 Q3170.49 1998.54 3170.49 1994.37 L3170.49 1993.42 L3166.25 1993.42 M3174.75 1991.66 L3174.75 2006.46 L3170.49 2006.46 L3170.49 2002.52 Q3169.03 2004.88 3166.85 2006.02 Q3164.68 2007.13 3161.53 2007.13 Q3157.55 2007.13 3155.19 2004.9 Q3152.85 2002.66 3152.85 1998.91 Q3152.85 1994.53 3155.77 1992.31 Q3158.71 1990.09 3164.52 1990.09 L3170.49 1990.09 L3170.49 1989.67 Q3170.49 1986.73 3168.54 1985.14 Q3166.62 1983.52 3163.13 1983.52 Q3160.9 1983.52 3158.8 1984.05 Q3156.69 1984.58 3154.75 1985.65 L3154.75 1981.71 Q3157.08 1980.81 3159.28 1980.37 Q3161.48 1979.9 3163.57 1979.9 Q3169.19 1979.9 3171.97 1982.82 Q3174.75 1985.74 3174.75 1991.66 Z" fill="#000000" fill-rule="nonzero" fill-opacity="1" /><path clip-path="url(#clip850)" d="M3200.58 1984.46 L3200.58 1970.44 L3204.84 1970.44 L3204.84 2006.46 L3200.58 2006.46 L3200.58 2002.57 Q3199.24 2004.88 3197.18 2006.02 Q3195.14 2007.13 3192.27 2007.13 Q3187.57 2007.13 3184.61 2003.38 Q3181.67 1999.63 3181.67 1993.52 Q3181.67 1987.4 3184.61 1983.65 Q3187.57 1979.9 3192.27 1979.9 Q3195.14 1979.9 3197.18 1981.04 Q3199.24 1982.15 3200.58 1984.46 M3186.07 1993.52 Q3186.07 1998.21 3187.99 2000.9 Q3189.93 2003.56 3193.31 2003.56 Q3196.69 2003.56 3198.64 2000.9 Q3200.58 1998.21 3200.58 1993.52 Q3200.58 1988.82 3198.64 1986.15 Q3196.69 1983.47 3193.31 1983.47 Q3189.93 1983.47 3187.99 1986.15 Q3186.07 1988.82 3186.07 1993.52 Z" fill="#000000" fill-rule="nonzero" fill-opacity="1" /><path clip-path="url(#clip850)" d="M3235.16 1990.81 L3235.16 2006.46 L3230.9 2006.46 L3230.9 1990.95 Q3230.9 1987.27 3229.47 1985.44 Q3228.03 1983.61 3225.16 1983.61 Q3221.71 1983.61 3219.72 1985.81 Q3217.73 1988.01 3217.73 1991.8 L3217.73 2006.46 L3213.45 2006.46 L3213.45 1980.53 L3217.73 1980.53 L3217.73 1984.56 Q3219.26 1982.22 3221.32 1981.06 Q3223.4 1979.9 3226.11 1979.9 Q3230.58 1979.9 3232.87 1982.68 Q3235.16 1985.44 3235.16 1990.81 Z" fill="#000000" fill-rule="nonzero" fill-opacity="1" /><path clip-path="url(#clip850)" d="M3243.66 1970.44 L3247.92 1970.44 L3247.92 2006.46 L3243.66 2006.46 L3243.66 1970.44 Z" fill="#000000" fill-rule="nonzero" fill-opacity="1" /><path clip-path="url(#clip850)" d="M3260.95 2002.57 L3260.95 2016.32 L3256.67 2016.32 L3256.67 1980.53 L3260.95 1980.53 L3260.95 1984.46 Q3262.29 1982.15 3264.33 1981.04 Q3266.39 1979.9 3269.24 1979.9 Q3273.96 1979.9 3276.9 1983.65 Q3279.86 1987.4 3279.86 1993.52 Q3279.86 1999.63 3276.9 2003.38 Q3273.96 2007.13 3269.24 2007.13 Q3266.39 2007.13 3264.33 2006.02 Q3262.29 2004.88 3260.95 2002.57 M3275.44 1993.52 Q3275.44 1988.82 3273.5 1986.15 Q3271.58 1983.47 3268.2 1983.47 Q3264.82 1983.47 3262.87 1986.15 Q3260.95 1988.82 3260.95 1993.52 Q3260.95 1998.21 3262.87 2000.9 Q3264.82 2003.56 3268.2 2003.56 Q3271.58 2003.56 3273.5 2000.9 Q3275.44 1998.21 3275.44 1993.52 Z" fill="#000000" fill-rule="nonzero" fill-opacity="1" /><path clip-path="url(#clip850)" d="M3286.25 1970.48 L3289.95 1970.48 Q3293.43 1975.95 3295.14 1981.18 Q3296.88 1986.41 3296.88 1991.57 Q3296.88 1996.76 3295.14 2002.01 Q3293.43 2007.27 3289.95 2012.71 L3286.25 2012.71 Q3289.33 2007.4 3290.83 2002.17 Q3292.36 1996.92 3292.36 1991.57 Q3292.36 1986.22 3290.83 1981.02 Q3289.33 1975.81 3286.25 1970.48 Z" fill="#000000" fill-rule="nonzero" fill-opacity="1" /><polyline clip-path="url(#clip850)" style="stroke:#00ffff; stroke-linecap:round; stroke-linejoin:round; stroke-width:6; stroke-opacity:1; fill:none" points="2725.42,2041.02 2938.34,2041.02 "/>
<path clip-path="url(#clip850)" d="M2831.88 2066.62 L2809.71 2053.82 L2809.71 2028.22 L2831.88 2015.42 L2854.05 2028.22 L2854.05 2053.82 Z" fill="#00ffff" fill-rule="evenodd" fill-opacity="1" stroke="none"/>
<path clip-path="url(#clip850)" d="M2984.45 2022.32 Q2981.35 2027.65 2979.84 2032.86 Q2978.34 2038.06 2978.34 2043.41 Q2978.34 2048.76 2979.84 2054.01 Q2981.37 2059.24 2984.45 2064.55 L2980.74 2064.55 Q2977.27 2059.11 2975.53 2053.85 Q2973.82 2048.6 2973.82 2043.41 Q2973.82 2038.25 2975.53 2033.02 Q2977.25 2027.79 2980.74 2022.32 L2984.45 2022.32 Z" fill="#000000" fill-rule="nonzero" fill-opacity="1" /><path clip-path="url(#clip850)" d="M3014.89 2044.27 L3014.89 2046.35 L2995.3 2046.35 Q2995.58 2050.75 2997.94 2053.06 Q3000.33 2055.36 3004.56 2055.36 Q3007.02 2055.36 3009.31 2054.75 Q3011.62 2054.15 3013.89 2052.95 L3013.89 2056.98 Q3011.6 2057.95 3009.19 2058.46 Q3006.78 2058.97 3004.31 2058.97 Q2998.1 2058.97 2994.47 2055.36 Q2990.86 2051.74 2990.86 2045.59 Q2990.86 2039.22 2994.28 2035.49 Q2997.73 2031.74 3003.57 2031.74 Q3008.8 2031.74 3011.83 2035.12 Q3014.89 2038.48 3014.89 2044.27 M3010.63 2043.02 Q3010.58 2039.52 3008.66 2037.44 Q3006.76 2035.36 3003.61 2035.36 Q3000.05 2035.36 2997.9 2037.37 Q2995.77 2039.38 2995.44 2043.04 L3010.63 2043.02 Z" fill="#000000" fill-rule="nonzero" fill-opacity="1" /><path clip-path="url(#clip850)" d="M3042.59 2032.37 L3033.22 2044.99 L3043.08 2058.3 L3038.06 2058.3 L3030.51 2048.11 L3022.97 2058.3 L3017.94 2058.3 L3028.01 2044.73 L3018.8 2032.37 L3023.82 2032.37 L3030.7 2041.61 L3037.57 2032.37 L3042.59 2032.37 Z" fill="#000000" fill-rule="nonzero" fill-opacity="1" /><path clip-path="url(#clip850)" d="M3060.88 2045.26 Q3055.72 2045.26 3053.73 2046.44 Q3051.74 2047.62 3051.74 2050.47 Q3051.74 2052.74 3053.22 2054.08 Q3054.72 2055.4 3057.29 2055.4 Q3060.84 2055.4 3062.97 2052.9 Q3065.12 2050.38 3065.12 2046.21 L3065.12 2045.26 L3060.88 2045.26 M3069.38 2043.5 L3069.38 2058.3 L3065.12 2058.3 L3065.12 2054.36 Q3063.66 2056.72 3061.48 2057.86 Q3059.31 2058.97 3056.16 2058.97 Q3052.18 2058.97 3049.82 2056.74 Q3047.48 2054.5 3047.48 2050.75 Q3047.48 2046.37 3050.4 2044.15 Q3053.34 2041.93 3059.15 2041.93 L3065.12 2041.93 L3065.12 2041.51 Q3065.12 2038.57 3063.17 2036.98 Q3061.25 2035.36 3057.76 2035.36 Q3055.53 2035.36 3053.43 2035.89 Q3051.32 2036.42 3049.38 2037.49 L3049.38 2033.55 Q3051.72 2032.65 3053.91 2032.21 Q3056.11 2031.74 3058.2 2031.74 Q3063.82 2031.74 3066.6 2034.66 Q3069.38 2037.58 3069.38 2043.5 Z" fill="#000000" fill-rule="nonzero" fill-opacity="1" /><path clip-path="url(#clip850)" d="M3097.85 2066.17 L3097.85 2069.48 L3073.22 2069.48 L3073.22 2066.17 L3097.85 2066.17 Z" fill="#000000" fill-rule="nonzero" fill-opacity="1" /><path clip-path="url(#clip850)" d="M3118.91 2045.03 Q3118.91 2040.4 3116.99 2037.86 Q3115.09 2035.31 3111.65 2035.31 Q3108.22 2035.31 3106.3 2037.86 Q3104.4 2040.4 3104.4 2045.03 Q3104.4 2049.64 3106.3 2052.18 Q3108.22 2054.73 3111.65 2054.73 Q3115.09 2054.73 3116.99 2052.18 Q3118.91 2049.64 3118.91 2045.03 M3123.17 2055.08 Q3123.17 2061.7 3120.23 2064.92 Q3117.29 2068.16 3111.23 2068.16 Q3108.98 2068.16 3106.99 2067.81 Q3105 2067.49 3103.13 2066.79 L3103.13 2062.65 Q3105 2063.67 3106.83 2064.15 Q3108.66 2064.64 3110.56 2064.64 Q3114.75 2064.64 3116.83 2062.44 Q3118.91 2060.26 3118.91 2055.84 L3118.91 2053.74 Q3117.59 2056.03 3115.53 2057.16 Q3113.47 2058.3 3110.6 2058.3 Q3105.84 2058.3 3102.92 2054.66 Q3100 2051.03 3100 2045.03 Q3100 2039.01 3102.92 2035.38 Q3105.84 2031.74 3110.6 2031.74 Q3113.47 2031.74 3115.53 2032.88 Q3117.59 2034.01 3118.91 2036.3 L3118.91 2032.37 L3123.17 2032.37 L3123.17 2055.08 Z" fill="#000000" fill-rule="nonzero" fill-opacity="1" /><path clip-path="url(#clip850)" d="M3136.07 2054.41 L3136.07 2068.16 L3131.78 2068.16 L3131.78 2032.37 L3136.07 2032.37 L3136.07 2036.3 Q3137.41 2033.99 3139.45 2032.88 Q3141.51 2031.74 3144.35 2031.74 Q3149.08 2031.74 3152.02 2035.49 Q3154.98 2039.24 3154.98 2045.36 Q3154.98 2051.47 3152.02 2055.22 Q3149.08 2058.97 3144.35 2058.97 Q3141.51 2058.97 3139.45 2057.86 Q3137.41 2056.72 3136.07 2054.41 M3150.56 2045.36 Q3150.56 2040.66 3148.61 2037.99 Q3146.69 2035.31 3143.31 2035.31 Q3139.93 2035.31 3137.99 2037.99 Q3136.07 2040.66 3136.07 2045.36 Q3136.07 2050.05 3137.99 2052.74 Q3139.93 2055.4 3143.31 2055.4 Q3146.69 2055.4 3148.61 2052.74 Q3150.56 2050.05 3150.56 2045.36 Z" fill="#000000" fill-rule="nonzero" fill-opacity="1" /><path clip-path="url(#clip850)" d="M3161.6 2048.06 L3161.6 2032.37 L3165.86 2032.37 L3165.86 2047.9 Q3165.86 2051.58 3167.29 2053.43 Q3168.73 2055.26 3171.6 2055.26 Q3175.05 2055.26 3177.04 2053.06 Q3179.05 2050.87 3179.05 2047.07 L3179.05 2032.37 L3183.31 2032.37 L3183.31 2058.3 L3179.05 2058.3 L3179.05 2054.31 Q3177.5 2056.68 3175.44 2057.83 Q3173.4 2058.97 3170.7 2058.97 Q3166.23 2058.97 3163.91 2056.19 Q3161.6 2053.41 3161.6 2048.06 M3172.32 2031.74 L3172.32 2031.74 Z" fill="#000000" fill-rule="nonzero" fill-opacity="1" /><path clip-path="url(#clip850)" d="M3193.17 2052.42 L3198.06 2052.42 L3198.06 2056.4 L3194.26 2063.8 L3191.27 2063.8 L3193.17 2056.4 L3193.17 2052.42 Z" fill="#000000" fill-rule="nonzero" fill-opacity="1" /><path clip-path="url(#clip850)" d="M3242.41 2037.35 Q3244.01 2034.48 3246.23 2033.11 Q3248.45 2031.74 3251.46 2031.74 Q3255.51 2031.74 3257.71 2034.59 Q3259.91 2037.42 3259.91 2042.65 L3259.91 2058.3 L3255.63 2058.3 L3255.63 2042.79 Q3255.63 2039.06 3254.31 2037.25 Q3252.99 2035.45 3250.28 2035.45 Q3246.97 2035.45 3245.05 2037.65 Q3243.13 2039.85 3243.13 2043.64 L3243.13 2058.3 L3238.84 2058.3 L3238.84 2042.79 Q3238.84 2039.04 3237.52 2037.25 Q3236.2 2035.45 3233.45 2035.45 Q3230.19 2035.45 3228.27 2037.67 Q3226.34 2039.87 3226.34 2043.64 L3226.34 2058.3 L3222.06 2058.3 L3222.06 2032.37 L3226.34 2032.37 L3226.34 2036.4 Q3227.8 2034.01 3229.84 2032.88 Q3231.88 2031.74 3234.68 2031.74 Q3237.5 2031.74 3239.47 2033.18 Q3241.46 2034.62 3242.41 2037.35 Z" fill="#000000" fill-rule="nonzero" fill-opacity="1" /><path clip-path="url(#clip850)" d="M3280.19 2045.26 Q3275.02 2045.26 3273.03 2046.44 Q3271.04 2047.62 3271.04 2050.47 Q3271.04 2052.74 3272.52 2054.08 Q3274.03 2055.4 3276.6 2055.4 Q3280.14 2055.4 3282.27 2052.9 Q3284.42 2050.38 3284.42 2046.21 L3284.42 2045.26 L3280.19 2045.26 M3288.68 2043.5 L3288.68 2058.3 L3284.42 2058.3 L3284.42 2054.36 Q3282.96 2056.72 3280.79 2057.86 Q3278.61 2058.97 3275.46 2058.97 Q3271.48 2058.97 3269.12 2056.74 Q3266.78 2054.5 3266.78 2050.75 Q3266.78 2046.37 3269.7 2044.15 Q3272.64 2041.93 3278.45 2041.93 L3284.42 2041.93 L3284.42 2041.51 Q3284.42 2038.57 3282.48 2036.98 Q3280.56 2035.36 3277.06 2035.36 Q3274.84 2035.36 3272.73 2035.89 Q3270.63 2036.42 3268.68 2037.49 L3268.68 2033.55 Q3271.02 2032.65 3273.22 2032.21 Q3275.42 2031.74 3277.5 2031.74 Q3283.13 2031.74 3285.9 2034.66 Q3288.68 2037.58 3288.68 2043.5 Z" fill="#000000" fill-rule="nonzero" fill-opacity="1" /><path clip-path="url(#clip850)" d="M3314.51 2036.3 L3314.51 2022.28 L3318.77 2022.28 L3318.77 2058.3 L3314.51 2058.3 L3314.51 2054.41 Q3313.17 2056.72 3311.11 2057.86 Q3309.07 2058.97 3306.2 2058.97 Q3301.51 2058.97 3298.54 2055.22 Q3295.6 2051.47 3295.6 2045.36 Q3295.6 2039.24 3298.54 2035.49 Q3301.51 2031.74 3306.2 2031.74 Q3309.07 2031.74 3311.11 2032.88 Q3313.17 2033.99 3314.51 2036.3 M3300 2045.36 Q3300 2050.05 3301.92 2052.74 Q3303.87 2055.4 3307.25 2055.4 Q3310.63 2055.4 3312.57 2052.74 Q3314.51 2050.05 3314.51 2045.36 Q3314.51 2040.66 3312.57 2037.99 Q3310.63 2035.31 3307.25 2035.31 Q3303.87 2035.31 3301.92 2037.99 Q3300 2040.66 3300 2045.36 Z" fill="#000000" fill-rule="nonzero" fill-opacity="1" /><path clip-path="url(#clip850)" d="M3349.1 2042.65 L3349.1 2058.3 L3344.84 2058.3 L3344.84 2042.79 Q3344.84 2039.11 3343.4 2037.28 Q3341.97 2035.45 3339.1 2035.45 Q3335.65 2035.45 3333.66 2037.65 Q3331.67 2039.85 3331.67 2043.64 L3331.67 2058.3 L3327.38 2058.3 L3327.38 2032.37 L3331.67 2032.37 L3331.67 2036.4 Q3333.2 2034.06 3335.26 2032.9 Q3337.34 2031.74 3340.05 2031.74 Q3344.51 2031.74 3346.81 2034.52 Q3349.1 2037.28 3349.1 2042.65 Z" fill="#000000" fill-rule="nonzero" fill-opacity="1" /><path clip-path="url(#clip850)" d="M3357.59 2022.28 L3361.85 2022.28 L3361.85 2058.3 L3357.59 2058.3 L3357.59 2022.28 Z" fill="#000000" fill-rule="nonzero" fill-opacity="1" /><path clip-path="url(#clip850)" d="M3374.88 2054.41 L3374.88 2068.16 L3370.6 2068.16 L3370.6 2032.37 L3374.88 2032.37 L3374.88 2036.3 Q3376.23 2033.99 3378.26 2032.88 Q3380.32 2031.74 3383.17 2031.74 Q3387.89 2031.74 3390.83 2035.49 Q3393.8 2039.24 3393.8 2045.36 Q3393.8 2051.47 3390.83 2055.22 Q3387.89 2058.97 3383.17 2058.97 Q3380.32 2058.97 3378.26 2057.86 Q3376.23 2056.72 3374.88 2054.41 M3389.38 2045.36 Q3389.38 2040.66 3387.43 2037.99 Q3385.51 2035.31 3382.13 2035.31 Q3378.75 2035.31 3376.81 2037.99 Q3374.88 2040.66 3374.88 2045.36 Q3374.88 2050.05 3376.81 2052.74 Q3378.75 2055.4 3382.13 2055.4 Q3385.51 2055.4 3387.43 2052.74 Q3389.38 2050.05 3389.38 2045.36 Z" fill="#000000" fill-rule="nonzero" fill-opacity="1" /><path clip-path="url(#clip850)" d="M3400.19 2022.32 L3403.89 2022.32 Q3407.36 2027.79 3409.07 2033.02 Q3410.81 2038.25 3410.81 2043.41 Q3410.81 2048.6 3409.07 2053.85 Q3407.36 2059.11 3403.89 2064.55 L3400.19 2064.55 Q3403.26 2059.24 3404.77 2054.01 Q3406.3 2048.76 3406.3 2043.41 Q3406.3 2038.06 3404.77 2032.86 Q3403.26 2027.65 3400.19 2022.32 Z" fill="#000000" fill-rule="nonzero" fill-opacity="1" /></svg>
