<?xml version="1.0" encoding="utf-8"?>
<svg xmlns="http://www.w3.org/2000/svg" xmlns:xlink="http://www.w3.org/1999/xlink" width="900" height="600" viewBox="0 0 3600 2400">
<defs>
  <clipPath id="clip280">
    <rect x="0" y="0" width="3600" height="2400"/>
  </clipPath>
</defs>
<path clip-path="url(#clip280)" d="M0 2400 L3600 2400 L3600 0 L0 0  Z" fill="#ffffff" fill-rule="evenodd" fill-opacity="1"/>
<defs>
  <clipPath id="clip281">
    <rect x="322" y="246" width="3232" height="1911"/>
  </clipPath>
</defs>
<path clip-path="url(#clip280)" d="M292.309 2156.51 L3552.76 2156.51 L3552.76 246.944 L292.309 246.944  Z" fill="#ffffff" fill-rule="evenodd" fill-opacity="1"/>
<defs>
  <clipPath id="clip282">
    <rect x="292" y="246" width="3261" height="1911"/>
  </clipPath>
</defs>
<polyline clip-path="url(#clip282)" style="stroke:#000000; stroke-linecap:round; stroke-linejoin:round; stroke-width:2; stroke-opacity:0.1; fill:none" points="440.511,2156.51 440.511,246.944 "/>
<polyline clip-path="url(#clip282)" style="stroke:#000000; stroke-linecap:round; stroke-linejoin:round; stroke-width:2; stroke-opacity:0.1; fill:none" points="2032.92,2156.51 2032.92,246.944 "/>
<polyline clip-path="url(#clip282)" style="stroke:#000000; stroke-linecap:round; stroke-linejoin:round; stroke-width:2; stroke-opacity:0.1; fill:none" points="2718.74,2156.51 2718.74,246.944 "/>
<polyline clip-path="url(#clip282)" style="stroke:#000000; stroke-linecap:round; stroke-linejoin:round; stroke-width:2; stroke-opacity:0.1; fill:none" points="3404.55,2156.51 3404.55,246.944 "/>
<polyline clip-path="url(#clip282)" style="stroke:#000000; stroke-linecap:round; stroke-linejoin:round; stroke-width:2; stroke-opacity:0.1; fill:none" points="292.309,1314.58 3552.76,1314.58 "/>
<polyline clip-path="url(#clip282)" style="stroke:#000000; stroke-linecap:round; stroke-linejoin:round; stroke-width:2; stroke-opacity:0.1; fill:none" points="292.309,363.339 3552.76,363.339 "/>
<polyline clip-path="url(#clip280)" style="stroke:#000000; stroke-linecap:round; stroke-linejoin:round; stroke-width:4; stroke-opacity:1; fill:none" points="292.309,2156.51 3552.76,2156.51 "/>
<polyline clip-path="url(#clip280)" style="stroke:#000000; stroke-linecap:round; stroke-linejoin:round; stroke-width:4; stroke-opacity:1; fill:none" points="440.511,2156.51 440.511,2137.61 "/>
<polyline clip-path="url(#clip280)" style="stroke:#000000; stroke-linecap:round; stroke-linejoin:round; stroke-width:4; stroke-opacity:1; fill:none" points="2032.92,2156.51 2032.92,2137.61 "/>
<polyline clip-path="url(#clip280)" style="stroke:#000000; stroke-linecap:round; stroke-linejoin:round; stroke-width:4; stroke-opacity:1; fill:none" points="2718.74,2156.51 2718.74,2137.61 "/>
<polyline clip-path="url(#clip280)" style="stroke:#000000; stroke-linecap:round; stroke-linejoin:round; stroke-width:4; stroke-opacity:1; fill:none" points="3404.55,2156.51 3404.55,2137.61 "/>
<path clip-path="url(#clip280)" d="M385.037 2224.57 L392.676 2224.57 L392.676 2198.21 L384.366 2199.87 L384.366 2195.61 L392.63 2193.95 L397.306 2193.95 L397.306 2224.57 L404.944 2224.57 L404.944 2228.51 L385.037 2228.51 L385.037 2224.57 Z" fill="#000000" fill-rule="nonzero" fill-opacity="1" /><path clip-path="url(#clip280)" d="M424.389 2197.03 Q420.778 2197.03 418.949 2200.59 Q417.143 2204.13 417.143 2211.26 Q417.143 2218.37 418.949 2221.93 Q420.778 2225.48 424.389 2225.48 Q428.023 2225.48 429.829 2221.93 Q431.657 2218.37 431.657 2211.26 Q431.657 2204.13 429.829 2200.59 Q428.023 2197.03 424.389 2197.03 M424.389 2193.32 Q430.199 2193.32 433.254 2197.93 Q436.333 2202.51 436.333 2211.26 Q436.333 2219.99 433.254 2224.6 Q430.199 2229.18 424.389 2229.18 Q418.579 2229.18 415.5 2224.6 Q412.444 2219.99 412.444 2211.26 Q412.444 2202.51 415.5 2197.93 Q418.579 2193.32 424.389 2193.32 Z" fill="#000000" fill-rule="nonzero" fill-opacity="1" /><path clip-path="url(#clip280)" d="M454.551 2197.03 Q450.94 2197.03 449.111 2200.59 Q447.305 2204.13 447.305 2211.26 Q447.305 2218.37 449.111 2221.93 Q450.94 2225.48 454.551 2225.48 Q458.185 2225.48 459.99 2221.93 Q461.819 2218.37 461.819 2211.26 Q461.819 2204.13 459.99 2200.59 Q458.185 2197.03 454.551 2197.03 M454.551 2193.32 Q460.361 2193.32 463.416 2197.93 Q466.495 2202.51 466.495 2211.26 Q466.495 2219.99 463.416 2224.6 Q460.361 2229.18 454.551 2229.18 Q448.74 2229.18 445.662 2224.6 Q442.606 2219.99 442.606 2211.26 Q442.606 2202.51 445.662 2197.93 Q448.74 2193.32 454.551 2193.32 Z" fill="#000000" fill-rule="nonzero" fill-opacity="1" /><path clip-path="url(#clip280)" d="M484.712 2197.03 Q481.101 2197.03 479.273 2200.59 Q477.467 2204.13 477.467 2211.26 Q477.467 2218.37 479.273 2221.93 Q481.101 2225.48 484.712 2225.48 Q488.347 2225.48 490.152 2221.93 Q491.981 2218.37 491.981 2211.26 Q491.981 2204.13 490.152 2200.59 Q488.347 2197.03 484.712 2197.03 M484.712 2193.32 Q490.523 2193.32 493.578 2197.93 Q496.657 2202.51 496.657 2211.26 Q496.657 2219.99 493.578 2224.6 Q490.523 2229.18 484.712 2229.18 Q478.902 2229.18 475.824 2224.6 Q472.768 2219.99 472.768 2211.26 Q472.768 2202.51 475.824 2197.93 Q478.902 2193.32 484.712 2193.32 Z" fill="#000000" fill-rule="nonzero" fill-opacity="1" /><path clip-path="url(#clip280)" d="M1977.46 2193.95 L1995.82 2193.95 L1995.82 2197.88 L1981.74 2197.88 L1981.74 2206.36 Q1982.76 2206.01 1983.78 2205.85 Q1984.8 2205.66 1985.82 2205.66 Q1991.6 2205.66 1994.98 2208.83 Q1998.36 2212 1998.36 2217.42 Q1998.36 2223 1994.89 2226.1 Q1991.42 2229.18 1985.1 2229.18 Q1982.92 2229.18 1980.66 2228.81 Q1978.41 2228.44 1976 2227.7 L1976 2223 Q1978.09 2224.13 1980.31 2224.69 Q1982.53 2225.24 1985.01 2225.24 Q1989.01 2225.24 1991.35 2223.14 Q1993.69 2221.03 1993.69 2217.42 Q1993.69 2213.81 1991.35 2211.7 Q1989.01 2209.6 1985.01 2209.6 Q1983.13 2209.6 1981.26 2210.01 Q1979.41 2210.43 1977.46 2211.31 L1977.46 2193.95 Z" fill="#000000" fill-rule="nonzero" fill-opacity="1" /><path clip-path="url(#clip280)" d="M2017.58 2197.03 Q2013.97 2197.03 2012.14 2200.59 Q2010.33 2204.13 2010.33 2211.26 Q2010.33 2218.37 2012.14 2221.93 Q2013.97 2225.48 2017.58 2225.48 Q2021.21 2225.48 2023.02 2221.93 Q2024.85 2218.37 2024.85 2211.26 Q2024.85 2204.13 2023.02 2200.59 Q2021.21 2197.03 2017.58 2197.03 M2017.58 2193.32 Q2023.39 2193.32 2026.44 2197.93 Q2029.52 2202.51 2029.52 2211.26 Q2029.52 2219.99 2026.44 2224.6 Q2023.39 2229.18 2017.58 2229.18 Q2011.77 2229.18 2008.69 2224.6 Q2005.63 2219.99 2005.63 2211.26 Q2005.63 2202.51 2008.69 2197.93 Q2011.77 2193.32 2017.58 2193.32 Z" fill="#000000" fill-rule="nonzero" fill-opacity="1" /><path clip-path="url(#clip280)" d="M2047.74 2197.03 Q2044.13 2197.03 2042.3 2200.59 Q2040.49 2204.13 2040.49 2211.26 Q2040.49 2218.37 2042.3 2221.93 Q2044.13 2225.48 2047.74 2225.48 Q2051.37 2225.48 2053.18 2221.93 Q2055.01 2218.37 2055.01 2211.26 Q2055.01 2204.13 2053.18 2200.59 Q2051.37 2197.03 2047.74 2197.03 M2047.74 2193.32 Q2053.55 2193.32 2056.6 2197.93 Q2059.68 2202.51 2059.68 2211.26 Q2059.68 2219.99 2056.6 2224.6 Q2053.55 2229.18 2047.74 2229.18 Q2041.93 2229.18 2038.85 2224.6 Q2035.79 2219.99 2035.79 2211.26 Q2035.79 2202.51 2038.85 2197.93 Q2041.93 2193.32 2047.74 2193.32 Z" fill="#000000" fill-rule="nonzero" fill-opacity="1" /><path clip-path="url(#clip280)" d="M2077.9 2197.03 Q2074.29 2197.03 2072.46 2200.59 Q2070.66 2204.13 2070.66 2211.26 Q2070.66 2218.37 2072.46 2221.93 Q2074.29 2225.48 2077.9 2225.48 Q2081.53 2225.48 2083.34 2221.93 Q2085.17 2218.37 2085.17 2211.26 Q2085.17 2204.13 2083.34 2200.59 Q2081.53 2197.03 2077.9 2197.03 M2077.9 2193.32 Q2083.71 2193.32 2086.77 2197.93 Q2089.85 2202.51 2089.85 2211.26 Q2089.85 2219.99 2086.77 2224.6 Q2083.71 2229.18 2077.9 2229.18 Q2072.09 2229.18 2069.01 2224.6 Q2065.96 2219.99 2065.96 2211.26 Q2065.96 2202.51 2069.01 2197.93 Q2072.09 2193.32 2077.9 2193.32 Z" fill="#000000" fill-rule="nonzero" fill-opacity="1" /><path clip-path="url(#clip280)" d="M2648.18 2224.57 L2655.82 2224.57 L2655.82 2198.21 L2647.51 2199.87 L2647.51 2195.61 L2655.78 2193.95 L2660.45 2193.95 L2660.45 2224.57 L2668.09 2224.57 L2668.09 2228.51 L2648.18 2228.51 L2648.18 2224.57 Z" fill="#000000" fill-rule="nonzero" fill-opacity="1" /><path clip-path="url(#clip280)" d="M2687.54 2197.03 Q2683.92 2197.03 2682.1 2200.59 Q2680.29 2204.13 2680.29 2211.26 Q2680.29 2218.37 2682.1 2221.93 Q2683.92 2225.48 2687.54 2225.48 Q2691.17 2225.48 2692.98 2221.93 Q2694.8 2218.37 2694.8 2211.26 Q2694.8 2204.13 2692.98 2200.59 Q2691.17 2197.03 2687.54 2197.03 M2687.54 2193.32 Q2693.35 2193.32 2696.4 2197.93 Q2699.48 2202.51 2699.48 2211.26 Q2699.48 2219.99 2696.4 2224.6 Q2693.35 2229.18 2687.54 2229.18 Q2681.73 2229.18 2678.65 2224.6 Q2675.59 2219.99 2675.59 2211.26 Q2675.59 2202.51 2678.65 2197.93 Q2681.73 2193.32 2687.54 2193.32 Z" fill="#000000" fill-rule="nonzero" fill-opacity="1" /><path clip-path="url(#clip280)" d="M2717.7 2197.03 Q2714.09 2197.03 2712.26 2200.59 Q2710.45 2204.13 2710.45 2211.26 Q2710.45 2218.37 2712.26 2221.93 Q2714.09 2225.48 2717.7 2225.48 Q2721.33 2225.48 2723.14 2221.93 Q2724.97 2218.37 2724.97 2211.26 Q2724.97 2204.13 2723.14 2200.59 Q2721.33 2197.03 2717.7 2197.03 M2717.7 2193.32 Q2723.51 2193.32 2726.56 2197.93 Q2729.64 2202.51 2729.64 2211.26 Q2729.64 2219.99 2726.56 2224.6 Q2723.51 2229.18 2717.7 2229.18 Q2711.89 2229.18 2708.81 2224.6 Q2705.75 2219.99 2705.75 2211.26 Q2705.75 2202.51 2708.81 2197.93 Q2711.89 2193.32 2717.7 2193.32 Z" fill="#000000" fill-rule="nonzero" fill-opacity="1" /><path clip-path="url(#clip280)" d="M2747.86 2197.03 Q2744.25 2197.03 2742.42 2200.59 Q2740.61 2204.13 2740.61 2211.26 Q2740.61 2218.37 2742.42 2221.93 Q2744.25 2225.48 2747.86 2225.48 Q2751.49 2225.48 2753.3 2221.93 Q2755.13 2218.37 2755.13 2211.26 Q2755.13 2204.13 2753.3 2200.59 Q2751.49 2197.03 2747.86 2197.03 M2747.86 2193.32 Q2753.67 2193.32 2756.72 2197.93 Q2759.8 2202.51 2759.8 2211.26 Q2759.8 2219.99 2756.72 2224.6 Q2753.67 2229.18 2747.86 2229.18 Q2742.05 2229.18 2738.97 2224.6 Q2735.91 2219.99 2735.91 2211.26 Q2735.91 2202.51 2738.97 2197.93 Q2742.05 2193.32 2747.86 2193.32 Z" fill="#000000" fill-rule="nonzero" fill-opacity="1" /><path clip-path="url(#clip280)" d="M2778.02 2197.03 Q2774.41 2197.03 2772.58 2200.59 Q2770.78 2204.13 2770.78 2211.26 Q2770.78 2218.37 2772.58 2221.93 Q2774.41 2225.48 2778.02 2225.48 Q2781.66 2225.48 2783.46 2221.93 Q2785.29 2218.37 2785.29 2211.26 Q2785.29 2204.13 2783.46 2200.59 Q2781.66 2197.03 2778.02 2197.03 M2778.02 2193.32 Q2783.83 2193.32 2786.89 2197.93 Q2789.97 2202.51 2789.97 2211.26 Q2789.97 2219.99 2786.89 2224.6 Q2783.83 2229.18 2778.02 2229.18 Q2772.21 2229.18 2769.13 2224.6 Q2766.08 2219.99 2766.08 2211.26 Q2766.08 2202.51 2769.13 2197.93 Q2772.21 2193.32 2778.02 2193.32 Z" fill="#000000" fill-rule="nonzero" fill-opacity="1" /><path clip-path="url(#clip280)" d="M3338.08 2224.57 L3354.4 2224.57 L3354.4 2228.51 L3332.46 2228.51 L3332.46 2224.57 Q3335.12 2221.82 3339.7 2217.19 Q3344.31 2212.54 3345.49 2211.19 Q3347.74 2208.67 3348.62 2206.93 Q3349.52 2205.17 3349.52 2203.48 Q3349.52 2200.73 3347.57 2198.99 Q3345.65 2197.26 3342.55 2197.26 Q3340.35 2197.26 3337.9 2198.02 Q3335.47 2198.79 3332.69 2200.34 L3332.69 2195.61 Q3335.51 2194.48 3337.97 2193.9 Q3340.42 2193.32 3342.46 2193.32 Q3347.83 2193.32 3351.02 2196.01 Q3354.22 2198.69 3354.22 2203.18 Q3354.22 2205.31 3353.41 2207.23 Q3352.62 2209.13 3350.51 2211.73 Q3349.94 2212.4 3346.83 2215.61 Q3343.73 2218.81 3338.08 2224.57 Z" fill="#000000" fill-rule="nonzero" fill-opacity="1" /><path clip-path="url(#clip280)" d="M3374.22 2197.03 Q3370.61 2197.03 3368.78 2200.59 Q3366.97 2204.13 3366.97 2211.26 Q3366.97 2218.37 3368.78 2221.93 Q3370.61 2225.48 3374.22 2225.48 Q3377.85 2225.48 3379.66 2221.93 Q3381.49 2218.37 3381.49 2211.26 Q3381.49 2204.13 3379.66 2200.59 Q3377.85 2197.03 3374.22 2197.03 M3374.22 2193.32 Q3380.03 2193.32 3383.08 2197.93 Q3386.16 2202.51 3386.16 2211.26 Q3386.16 2219.99 3383.08 2224.6 Q3380.03 2229.18 3374.22 2229.18 Q3368.41 2229.18 3365.33 2224.6 Q3362.27 2219.99 3362.27 2211.26 Q3362.27 2202.51 3365.33 2197.93 Q3368.41 2193.32 3374.22 2193.32 Z" fill="#000000" fill-rule="nonzero" fill-opacity="1" /><path clip-path="url(#clip280)" d="M3404.38 2197.03 Q3400.77 2197.03 3398.94 2200.59 Q3397.13 2204.13 3397.13 2211.26 Q3397.13 2218.37 3398.94 2221.93 Q3400.77 2225.48 3404.38 2225.48 Q3408.01 2225.48 3409.82 2221.93 Q3411.65 2218.37 3411.65 2211.26 Q3411.65 2204.13 3409.82 2200.59 Q3408.01 2197.03 3404.38 2197.03 M3404.38 2193.32 Q3410.19 2193.32 3413.25 2197.93 Q3416.32 2202.51 3416.32 2211.26 Q3416.32 2219.99 3413.25 2224.6 Q3410.19 2229.18 3404.38 2229.18 Q3398.57 2229.18 3395.49 2224.6 Q3392.44 2219.99 3392.44 2211.26 Q3392.44 2202.51 3395.49 2197.93 Q3398.57 2193.32 3404.38 2193.32 Z" fill="#000000" fill-rule="nonzero" fill-opacity="1" /><path clip-path="url(#clip280)" d="M3434.54 2197.03 Q3430.93 2197.03 3429.1 2200.59 Q3427.3 2204.13 3427.3 2211.26 Q3427.3 2218.37 3429.1 2221.93 Q3430.93 2225.48 3434.54 2225.48 Q3438.18 2225.48 3439.98 2221.93 Q3441.81 2218.37 3441.81 2211.26 Q3441.81 2204.13 3439.98 2200.59 Q3438.18 2197.03 3434.54 2197.03 M3434.54 2193.32 Q3440.35 2193.32 3443.41 2197.93 Q3446.49 2202.51 3446.49 2211.26 Q3446.49 2219.99 3443.41 2224.6 Q3440.35 2229.18 3434.54 2229.18 Q3428.73 2229.18 3425.65 2224.6 Q3422.6 2219.99 3422.6 2211.26 Q3422.6 2202.51 3425.65 2197.93 Q3428.73 2193.32 3434.54 2193.32 Z" fill="#000000" fill-rule="nonzero" fill-opacity="1" /><path clip-path="url(#clip280)" d="M3464.7 2197.03 Q3461.09 2197.03 3459.26 2200.59 Q3457.46 2204.13 3457.46 2211.26 Q3457.46 2218.37 3459.26 2221.93 Q3461.09 2225.48 3464.7 2225.48 Q3468.34 2225.48 3470.14 2221.93 Q3471.97 2218.37 3471.97 2211.26 Q3471.97 2204.13 3470.14 2200.59 Q3468.34 2197.03 3464.7 2197.03 M3464.7 2193.32 Q3470.51 2193.32 3473.57 2197.93 Q3476.65 2202.51 3476.65 2211.26 Q3476.65 2219.99 3473.57 2224.6 Q3470.51 2229.18 3464.7 2229.18 Q3458.89 2229.18 3455.82 2224.6 Q3452.76 2219.99 3452.76 2211.26 Q3452.76 2202.51 3455.82 2197.93 Q3458.89 2193.32 3464.7 2193.32 Z" fill="#000000" fill-rule="nonzero" fill-opacity="1" /><path clip-path="url(#clip280)" d="M1798.42 2308.02 L1798.42 2296.42 L1788.87 2296.42 L1788.87 2291.62 L1804.2 2291.62 L1804.2 2310.17 Q1800.82 2312.57 1796.74 2313.81 Q1792.66 2315.03 1788.03 2315.03 Q1777.9 2315.03 1772.17 2309.12 Q1766.47 2303.19 1766.47 2292.63 Q1766.47 2282.04 1772.17 2276.14 Q1777.9 2270.21 1788.03 2270.21 Q1792.25 2270.21 1796.04 2271.25 Q1799.86 2272.29 1803.07 2274.32 L1803.07 2280.54 Q1799.83 2277.79 1796.19 2276.4 Q1792.54 2275.01 1788.52 2275.01 Q1780.59 2275.01 1776.6 2279.44 Q1772.63 2283.86 1772.63 2292.63 Q1772.63 2301.37 1776.6 2305.8 Q1780.59 2310.22 1788.52 2310.22 Q1791.62 2310.22 1794.05 2309.7 Q1796.48 2309.15 1798.42 2308.02 Z" fill="#000000" fill-rule="nonzero" fill-opacity="1" /><path clip-path="url(#clip280)" d="M1833.43 2286.76 Q1832.53 2286.24 1831.46 2286 Q1830.42 2285.74 1829.14 2285.74 Q1824.63 2285.74 1822.2 2288.7 Q1819.8 2291.62 1819.8 2297.12 L1819.8 2314.19 L1814.45 2314.19 L1814.45 2281.78 L1819.8 2281.78 L1819.8 2286.82 Q1821.48 2283.86 1824.17 2282.45 Q1826.86 2281 1830.71 2281 Q1831.26 2281 1831.92 2281.09 Q1832.59 2281.14 1833.4 2281.29 L1833.43 2286.76 Z" fill="#000000" fill-rule="nonzero" fill-opacity="1" /><path clip-path="url(#clip280)" d="M1839.01 2281.78 L1844.34 2281.78 L1844.34 2314.19 L1839.01 2314.19 L1839.01 2281.78 M1839.01 2269.16 L1844.34 2269.16 L1844.34 2275.91 L1839.01 2275.91 L1839.01 2269.16 Z" fill="#000000" fill-rule="nonzero" fill-opacity="1" /><path clip-path="url(#clip280)" d="M1876.8 2286.7 L1876.8 2269.16 L1882.12 2269.16 L1882.12 2314.19 L1876.8 2314.19 L1876.8 2309.33 Q1875.12 2312.22 1872.55 2313.64 Q1870 2315.03 1866.41 2315.03 Q1860.54 2315.03 1856.84 2310.34 Q1853.16 2305.65 1853.16 2298.01 Q1853.16 2290.37 1856.84 2285.69 Q1860.54 2281 1866.41 2281 Q1870 2281 1872.55 2282.42 Q1875.12 2283.81 1876.8 2286.7 M1858.66 2298.01 Q1858.66 2303.89 1861.06 2307.24 Q1863.49 2310.57 1867.72 2310.57 Q1871.94 2310.57 1874.37 2307.24 Q1876.8 2303.89 1876.8 2298.01 Q1876.8 2292.14 1874.37 2288.81 Q1871.94 2285.46 1867.72 2285.46 Q1863.49 2285.46 1861.06 2288.81 Q1858.66 2292.14 1858.66 2298.01 Z" fill="#000000" fill-rule="nonzero" fill-opacity="1" /><path clip-path="url(#clip280)" d="M1932.59 2282.74 L1932.59 2287.77 Q1930.33 2286.61 1927.9 2286.03 Q1925.47 2285.46 1922.87 2285.46 Q1918.9 2285.46 1916.9 2286.67 Q1914.94 2287.89 1914.94 2290.32 Q1914.94 2292.17 1916.35 2293.24 Q1917.77 2294.28 1922.06 2295.24 L1923.88 2295.64 Q1929.55 2296.86 1931.92 2299.08 Q1934.32 2301.28 1934.32 2305.25 Q1934.32 2309.76 1930.74 2312.39 Q1927.18 2315.03 1920.93 2315.03 Q1918.32 2315.03 1915.49 2314.51 Q1912.68 2314.01 1909.56 2313 L1909.56 2307.5 Q1912.51 2309.04 1915.37 2309.82 Q1918.24 2310.57 1921.04 2310.57 Q1924.8 2310.57 1926.83 2309.3 Q1928.85 2308 1928.85 2305.65 Q1928.85 2303.48 1927.38 2302.32 Q1925.93 2301.17 1920.98 2300.1 L1919.13 2299.66 Q1914.18 2298.62 1911.99 2296.48 Q1909.79 2294.31 1909.79 2290.55 Q1909.79 2285.98 1913.03 2283.49 Q1916.27 2281 1922.23 2281 Q1925.18 2281 1927.78 2281.43 Q1930.39 2281.87 1932.59 2282.74 Z" fill="#000000" fill-rule="nonzero" fill-opacity="1" /><path clip-path="url(#clip280)" d="M1942.8 2281.78 L1948.13 2281.78 L1948.13 2314.19 L1942.8 2314.19 L1942.8 2281.78 M1942.8 2269.16 L1948.13 2269.16 L1948.13 2275.91 L1942.8 2275.91 L1942.8 2269.16 Z" fill="#000000" fill-rule="nonzero" fill-opacity="1" /><path clip-path="url(#clip280)" d="M1956.95 2281.78 L1982.24 2281.78 L1982.24 2286.64 L1962.22 2309.93 L1982.24 2309.93 L1982.24 2314.19 L1956.23 2314.19 L1956.23 2309.33 L1976.25 2286.03 L1956.95 2286.03 L1956.95 2281.78 Z" fill="#000000" fill-rule="nonzero" fill-opacity="1" /><path clip-path="url(#clip280)" d="M2018.09 2296.65 L2018.09 2299.26 L1993.61 2299.26 Q1993.96 2304.75 1996.91 2307.65 Q1999.89 2310.51 2005.19 2310.51 Q2008.25 2310.51 2011.12 2309.76 Q2014.01 2309.01 2016.85 2307.5 L2016.85 2312.54 Q2013.98 2313.75 2010.97 2314.39 Q2007.96 2315.03 2004.87 2315.03 Q1997.11 2315.03 1992.57 2310.51 Q1988.06 2306 1988.06 2298.3 Q1988.06 2290.35 1992.34 2285.69 Q1996.65 2281 2003.94 2281 Q2010.48 2281 2014.27 2285.22 Q2018.09 2289.42 2018.09 2296.65 M2012.77 2295.09 Q2012.71 2290.72 2010.31 2288.12 Q2007.93 2285.51 2004 2285.51 Q1999.54 2285.51 1996.85 2288.03 Q1994.19 2290.55 1993.79 2295.12 L2012.77 2295.09 Z" fill="#000000" fill-rule="nonzero" fill-opacity="1" /><path clip-path="url(#clip280)" d="M2045.9 2270.99 L2053.77 2270.99 L2072.92 2307.13 L2072.92 2270.99 L2078.59 2270.99 L2078.59 2314.19 L2070.72 2314.19 L2051.57 2278.05 L2051.57 2314.19 L2045.9 2314.19 L2045.9 2270.99 Z" fill="#000000" fill-rule="nonzero" fill-opacity="1" /><polyline clip-path="url(#clip280)" style="stroke:#000000; stroke-linecap:round; stroke-linejoin:round; stroke-width:4; stroke-opacity:1; fill:none" points="292.309,2156.51 292.309,246.944 "/>
<polyline clip-path="url(#clip280)" style="stroke:#000000; stroke-linecap:round; stroke-linejoin:round; stroke-width:4; stroke-opacity:1; fill:none" points="292.309,1314.58 311.207,1314.58 "/>
<polyline clip-path="url(#clip280)" style="stroke:#000000; stroke-linecap:round; stroke-linejoin:round; stroke-width:4; stroke-opacity:1; fill:none" points="292.309,363.339 311.207,363.339 "/>
<path clip-path="url(#clip280)" d="M167.604 1334.37 L175.242 1334.37 L175.242 1308 L166.932 1309.67 L166.932 1305.41 L175.196 1303.75 L179.872 1303.75 L179.872 1334.37 L187.511 1334.37 L187.511 1338.31 L167.604 1338.31 L167.604 1334.37 Z" fill="#000000" fill-rule="nonzero" fill-opacity="1" /><path clip-path="url(#clip280)" d="M206.955 1306.82 Q203.344 1306.82 201.515 1310.39 Q199.71 1313.93 199.71 1321.06 Q199.71 1328.17 201.515 1331.73 Q203.344 1335.27 206.955 1335.27 Q210.589 1335.27 212.395 1331.73 Q214.224 1328.17 214.224 1321.06 Q214.224 1313.93 212.395 1310.39 Q210.589 1306.82 206.955 1306.82 M206.955 1303.12 Q212.765 1303.12 215.821 1307.73 Q218.9 1312.31 218.9 1321.06 Q218.9 1329.79 215.821 1334.39 Q212.765 1338.98 206.955 1338.98 Q201.145 1338.98 198.066 1334.39 Q195.011 1329.79 195.011 1321.06 Q195.011 1312.31 198.066 1307.73 Q201.145 1303.12 206.955 1303.12 Z" fill="#000000" fill-rule="nonzero" fill-opacity="1" /><path clip-path="url(#clip280)" d="M228.604 1285.32 Q225.67 1285.32 224.185 1288.21 Q222.718 1291.09 222.718 1296.88 Q222.718 1302.66 224.185 1305.55 Q225.67 1308.43 228.604 1308.43 Q231.557 1308.43 233.024 1305.55 Q234.51 1302.66 234.51 1296.88 Q234.51 1291.09 233.024 1288.21 Q231.557 1285.32 228.604 1285.32 M228.604 1282.31 Q233.325 1282.31 235.808 1286.05 Q238.309 1289.77 238.309 1296.88 Q238.309 1303.97 235.808 1307.72 Q233.325 1311.44 228.604 1311.44 Q223.884 1311.44 221.382 1307.72 Q218.9 1303.97 218.9 1296.88 Q218.9 1289.77 221.382 1286.05 Q223.884 1282.31 228.604 1282.31 Z" fill="#000000" fill-rule="nonzero" fill-opacity="1" /><path clip-path="url(#clip280)" d="M170.293 383.131 L177.932 383.131 L177.932 356.765 L169.622 358.432 L169.622 354.173 L177.886 352.506 L182.562 352.506 L182.562 383.131 L190.2 383.131 L190.2 387.066 L170.293 387.066 L170.293 383.131 Z" fill="#000000" fill-rule="nonzero" fill-opacity="1" /><path clip-path="url(#clip280)" d="M209.645 355.585 Q206.034 355.585 204.205 359.15 Q202.399 362.691 202.399 369.821 Q202.399 376.927 204.205 380.492 Q206.034 384.034 209.645 384.034 Q213.279 384.034 215.085 380.492 Q216.913 376.927 216.913 369.821 Q216.913 362.691 215.085 359.15 Q213.279 355.585 209.645 355.585 M209.645 351.881 Q215.455 351.881 218.51 356.488 Q221.589 361.071 221.589 369.821 Q221.589 378.548 218.51 383.154 Q215.455 387.737 209.645 387.737 Q203.835 387.737 200.756 383.154 Q197.7 378.548 197.7 369.821 Q197.7 361.071 200.756 356.488 Q203.835 351.881 209.645 351.881 Z" fill="#000000" fill-rule="nonzero" fill-opacity="1" /><path clip-path="url(#clip280)" d="M222.135 356.458 L228.341 356.458 L228.341 335.036 L221.589 336.391 L221.589 332.93 L228.303 331.576 L232.103 331.576 L232.103 356.458 L238.309 356.458 L238.309 359.656 L222.135 359.656 L222.135 356.458 Z" fill="#000000" fill-rule="nonzero" fill-opacity="1" /><path clip-path="url(#clip280)" d="M58.1901 1374.69 L63.8903 1374.69 Q62.2989 1378.01 61.5176 1380.96 Q60.7364 1383.92 60.7364 1386.66 Q60.7364 1391.44 62.5882 1394.04 Q64.4401 1396.62 67.8544 1396.62 Q70.719 1396.62 72.1947 1394.91 Q73.6414 1393.17 74.5384 1388.37 L75.2618 1384.84 Q76.506 1378.3 79.6599 1375.21 Q82.7849 1372.08 88.0511 1372.08 Q94.33 1372.08 97.5707 1376.31 Q100.811 1380.5 100.811 1388.63 Q100.811 1391.7 100.117 1395.17 Q99.4225 1398.61 98.0626 1402.32 L92.0441 1402.32 Q94.0406 1398.76 95.0533 1395.34 Q96.0661 1391.93 96.0661 1388.63 Q96.0661 1383.63 94.0985 1380.91 Q92.1309 1378.19 88.4851 1378.19 Q85.3022 1378.19 83.5083 1380.15 Q81.7143 1382.09 80.8173 1386.55 L80.1229 1390.11 Q78.8208 1396.65 76.043 1399.57 Q73.2653 1402.49 68.3174 1402.49 Q62.5882 1402.49 59.2896 1398.47 Q55.991 1394.42 55.991 1387.33 Q55.991 1384.29 56.5408 1381.14 Q57.0906 1377.98 58.1901 1374.69 Z" fill="#000000" fill-rule="nonzero" fill-opacity="1" /><path clip-path="url(#clip280)" d="M71.2977 1350.64 Q71.2977 1354.92 74.6541 1357.41 Q77.9817 1359.9 83.7976 1359.9 Q89.6135 1359.9 92.97 1357.44 Q96.2975 1354.95 96.2975 1350.64 Q96.2975 1346.39 92.9411 1343.9 Q89.5846 1341.41 83.7976 1341.41 Q78.0395 1341.41 74.6831 1343.9 Q71.2977 1346.39 71.2977 1350.64 M66.7838 1350.64 Q66.7838 1343.7 71.2977 1339.73 Q75.8115 1335.77 83.7976 1335.77 Q91.7547 1335.77 96.2975 1339.73 Q100.811 1343.7 100.811 1350.64 Q100.811 1357.61 96.2975 1361.58 Q91.7547 1365.51 83.7976 1365.51 Q75.8115 1365.51 71.2977 1361.58 Q66.7838 1357.61 66.7838 1350.64 Z" fill="#000000" fill-rule="nonzero" fill-opacity="1" /><path clip-path="url(#clip280)" d="M54.9494 1326.94 L54.9494 1321.62 L99.9723 1321.62 L99.9723 1326.94 L54.9494 1326.94 Z" fill="#000000" fill-rule="nonzero" fill-opacity="1" /><path clip-path="url(#clip280)" d="M67.565 1314.3 L67.565 1308.66 L94.764 1298.53 L67.565 1288.4 L67.565 1282.76 L99.9723 1294.91 L99.9723 1302.15 L67.565 1314.3 Z" fill="#000000" fill-rule="nonzero" fill-opacity="1" /><path clip-path="url(#clip280)" d="M82.4377 1247.69 L85.0418 1247.69 L85.0418 1272.17 Q90.5395 1271.82 93.433 1268.87 Q96.2975 1265.89 96.2975 1260.59 Q96.2975 1257.53 95.5452 1254.66 Q94.7929 1251.77 93.2883 1248.93 L98.323 1248.93 Q99.5383 1251.8 100.175 1254.81 Q100.811 1257.82 100.811 1260.91 Q100.811 1268.67 96.2975 1273.21 Q91.7837 1277.72 84.087 1277.72 Q76.1298 1277.72 71.4713 1273.44 Q66.7838 1269.13 66.7838 1261.84 Q66.7838 1255.3 71.0083 1251.51 Q75.2039 1247.69 82.4377 1247.69 M80.8752 1253.01 Q76.506 1253.07 73.9018 1255.47 Q71.2977 1257.85 71.2977 1261.78 Q71.2977 1266.24 73.815 1268.93 Q76.3324 1271.59 80.9041 1271.99 L80.8752 1253.01 Z" fill="#000000" fill-rule="nonzero" fill-opacity="1" /><path clip-path="url(#clip280)" d="M58.3637 1214.85 L67.565 1214.85 L67.565 1203.88 L71.7028 1203.88 L71.7028 1214.85 L89.2953 1214.85 Q93.2594 1214.85 94.3878 1213.78 Q95.5163 1212.68 95.5163 1209.35 L95.5163 1203.88 L99.9723 1203.88 L99.9723 1209.35 Q99.9723 1215.51 97.6864 1217.86 Q95.3716 1220.2 89.2953 1220.2 L71.7028 1220.2 L71.7028 1224.11 L67.565 1224.11 L67.565 1220.2 L58.3637 1220.2 L58.3637 1214.85 Z" fill="#000000" fill-rule="nonzero" fill-opacity="1" /><path clip-path="url(#clip280)" d="M67.565 1196.88 L67.565 1191.56 L99.9723 1191.56 L99.9723 1196.88 L67.565 1196.88 M54.9494 1196.88 L54.9494 1191.56 L61.6912 1191.56 L61.6912 1196.88 L54.9494 1196.88 Z" fill="#000000" fill-rule="nonzero" fill-opacity="1" /><path clip-path="url(#clip280)" d="M73.7861 1155.18 Q70.1981 1153.19 68.491 1150.41 Q66.7838 1147.63 66.7838 1143.87 Q66.7838 1138.81 70.3428 1136.06 Q73.8729 1133.31 80.4122 1133.31 L99.9723 1133.31 L99.9723 1138.66 L80.5858 1138.66 Q75.9273 1138.66 73.6703 1140.31 Q71.4134 1141.96 71.4134 1145.35 Q71.4134 1149.48 74.1622 1151.89 Q76.9111 1154.29 81.6564 1154.29 L99.9723 1154.29 L99.9723 1159.64 L80.5858 1159.64 Q75.8983 1159.64 73.6703 1161.29 Q71.4134 1162.94 71.4134 1166.38 Q71.4134 1170.46 74.1912 1172.86 Q76.94 1175.26 81.6564 1175.26 L99.9723 1175.26 L99.9723 1180.62 L67.565 1180.62 L67.565 1175.26 L72.5997 1175.26 Q69.6194 1173.44 68.2016 1170.9 Q66.7838 1168.35 66.7838 1164.85 Q66.7838 1161.32 68.5778 1158.86 Q70.3717 1156.37 73.7861 1155.18 Z" fill="#000000" fill-rule="nonzero" fill-opacity="1" /><path clip-path="url(#clip280)" d="M82.4377 1094.97 L85.0418 1094.97 L85.0418 1119.45 Q90.5395 1119.1 93.433 1116.15 Q96.2975 1113.17 96.2975 1107.88 Q96.2975 1104.81 95.5452 1101.94 Q94.7929 1099.05 93.2883 1096.21 L98.323 1096.21 Q99.5383 1099.08 100.175 1102.09 Q100.811 1105.1 100.811 1108.19 Q100.811 1115.95 96.2975 1120.49 Q91.7837 1125 84.087 1125 Q76.1298 1125 71.4713 1120.72 Q66.7838 1116.41 66.7838 1109.12 Q66.7838 1102.58 71.0083 1098.79 Q75.2039 1094.97 82.4377 1094.97 M80.8752 1100.29 Q76.506 1100.35 73.9018 1102.75 Q71.2977 1105.13 71.2977 1109.06 Q71.2977 1113.52 73.815 1116.21 Q76.3324 1118.87 80.9041 1119.28 L80.8752 1100.29 Z" fill="#000000" fill-rule="nonzero" fill-opacity="1" /><path clip-path="url(#clip280)" d="M55.0072 1054.61 Q61.6623 1058.48 68.1727 1060.36 Q74.6831 1062.24 81.3671 1062.24 Q88.0511 1062.24 94.6193 1060.36 Q101.159 1058.45 107.785 1054.61 L107.785 1059.24 Q100.985 1063.58 94.4168 1065.75 Q87.8485 1067.89 81.3671 1067.89 Q74.9145 1067.89 68.3752 1065.75 Q61.8359 1063.6 55.0072 1059.24 L55.0072 1054.61 Z" fill="#000000" fill-rule="nonzero" fill-opacity="1" /><path clip-path="url(#clip280)" d="M68.5199 1023.62 L73.5546 1023.62 Q72.3972 1025.87 71.8185 1028.3 Q71.2398 1030.73 71.2398 1033.34 Q71.2398 1037.3 72.4551 1039.3 Q73.6703 1041.27 76.1009 1041.27 Q77.9527 1041.27 79.0233 1039.85 Q80.065 1038.43 81.0198 1034.15 L81.4249 1032.33 Q82.6402 1026.65 84.8682 1024.28 Q87.0673 1021.88 91.0314 1021.88 Q95.5452 1021.88 98.1783 1025.47 Q100.811 1029.03 100.811 1035.28 Q100.811 1037.88 100.291 1040.72 Q99.7987 1043.52 98.7859 1046.65 L93.2883 1046.65 Q94.8218 1043.7 95.6031 1040.83 Q96.3554 1037.97 96.3554 1035.16 Q96.3554 1031.4 95.0823 1029.37 Q93.7802 1027.35 91.4364 1027.35 Q89.2663 1027.35 88.1089 1028.82 Q86.9515 1030.27 85.8809 1035.22 L85.4469 1037.07 Q84.4052 1042.02 82.264 1044.22 Q80.0939 1046.42 76.3324 1046.42 Q71.7606 1046.42 69.2722 1043.18 Q66.7838 1039.94 66.7838 1033.98 Q66.7838 1031.02 67.2178 1028.42 Q67.6519 1025.82 68.5199 1023.62 Z" fill="#000000" fill-rule="nonzero" fill-opacity="1" /><path clip-path="url(#clip280)" d="M55.0072 1014.24 L55.0072 1009.61 Q61.8359 1005.27 68.3752 1003.13 Q74.9145 1000.96 81.3671 1000.96 Q87.8485 1000.96 94.4168 1003.13 Q100.985 1005.27 107.785 1009.61 L107.785 1014.24 Q101.159 1010.39 94.6193 1008.51 Q88.0511 1006.6 81.3671 1006.6 Q74.6831 1006.6 68.1727 1008.51 Q61.6623 1010.39 55.0072 1014.24 Z" fill="#000000" fill-rule="nonzero" fill-opacity="1" /><path clip-path="url(#clip280)" d="M1262.4 125.969 L1262.4 133.949 Q1257.74 131.721 1253.61 130.627 Q1249.47 129.534 1245.63 129.534 Q1238.94 129.534 1235.3 132.126 Q1231.69 134.719 1231.69 139.499 Q1231.69 143.509 1234.08 145.575 Q1236.51 147.601 1243.24 148.857 L1248.18 149.869 Q1257.33 151.611 1261.67 156.027 Q1266.04 160.402 1266.04 167.774 Q1266.04 176.565 1260.13 181.102 Q1254.25 185.639 1242.87 185.639 Q1238.58 185.639 1233.72 184.667 Q1228.9 183.694 1223.71 181.79 L1223.71 173.365 Q1228.69 176.16 1233.47 177.577 Q1238.25 178.995 1242.87 178.995 Q1249.88 178.995 1253.69 176.241 Q1257.5 173.486 1257.5 168.382 Q1257.5 163.926 1254.74 161.414 Q1252.03 158.903 1245.79 157.647 L1240.81 156.675 Q1231.65 154.852 1227.56 150.963 Q1223.47 147.074 1223.47 140.147 Q1223.47 132.126 1229.1 127.508 Q1234.77 122.89 1244.69 122.89 Q1248.95 122.89 1253.36 123.66 Q1257.78 124.43 1262.4 125.969 Z" fill="#000000" fill-rule="nonzero" fill-opacity="1" /><path clip-path="url(#clip280)" d="M1296.06 144.32 Q1290.06 144.32 1286.58 149.019 Q1283.1 153.677 1283.1 161.819 Q1283.1 169.962 1286.54 174.661 Q1290.02 179.319 1296.06 179.319 Q1302.02 179.319 1305.5 174.62 Q1308.98 169.921 1308.98 161.819 Q1308.98 153.758 1305.5 149.059 Q1302.02 144.32 1296.06 144.32 M1296.06 138 Q1305.78 138 1311.33 144.32 Q1316.88 150.639 1316.88 161.819 Q1316.88 172.959 1311.33 179.319 Q1305.78 185.639 1296.06 185.639 Q1286.3 185.639 1280.75 179.319 Q1275.24 172.959 1275.24 161.819 Q1275.24 150.639 1280.75 144.32 Q1286.3 138 1296.06 138 Z" fill="#000000" fill-rule="nonzero" fill-opacity="1" /><path clip-path="url(#clip280)" d="M1329.24 121.432 L1336.69 121.432 L1336.69 184.464 L1329.24 184.464 L1329.24 121.432 Z" fill="#000000" fill-rule="nonzero" fill-opacity="1" /><path clip-path="url(#clip280)" d="M1346.94 139.094 L1354.84 139.094 L1369.02 177.172 L1383.2 139.094 L1391.09 139.094 L1374.08 184.464 L1363.95 184.464 L1346.94 139.094 Z" fill="#000000" fill-rule="nonzero" fill-opacity="1" /><path clip-path="url(#clip280)" d="M1440.19 159.916 L1440.19 163.561 L1405.92 163.561 Q1406.41 171.258 1410.54 175.309 Q1414.71 179.319 1422.12 179.319 Q1426.42 179.319 1430.43 178.266 Q1434.48 177.213 1438.45 175.106 L1438.45 182.155 Q1434.44 183.856 1430.23 184.748 Q1426.01 185.639 1421.68 185.639 Q1410.82 185.639 1404.46 179.319 Q1398.14 173 1398.14 162.225 Q1398.14 151.085 1404.14 144.563 Q1410.17 138 1420.38 138 Q1429.54 138 1434.84 143.914 Q1440.19 149.788 1440.19 159.916 M1432.74 157.728 Q1432.66 151.611 1429.29 147.965 Q1425.97 144.32 1420.46 144.32 Q1414.23 144.32 1410.46 147.844 Q1406.73 151.368 1406.16 157.769 L1432.74 157.728 Z" fill="#000000" fill-rule="nonzero" fill-opacity="1" /><path clip-path="url(#clip280)" d="M1486.17 126.212 L1486.17 139.094 L1501.52 139.094 L1501.52 144.887 L1486.17 144.887 L1486.17 169.516 Q1486.17 175.066 1487.67 176.646 Q1489.21 178.226 1493.87 178.226 L1501.52 178.226 L1501.52 184.464 L1493.87 184.464 Q1485.24 184.464 1481.96 181.264 Q1478.67 178.023 1478.67 169.516 L1478.67 144.887 L1473.21 144.887 L1473.21 139.094 L1478.67 139.094 L1478.67 126.212 L1486.17 126.212 Z" fill="#000000" fill-rule="nonzero" fill-opacity="1" /><path clip-path="url(#clip280)" d="M1511.33 139.094 L1518.78 139.094 L1518.78 184.464 L1511.33 184.464 L1511.33 139.094 M1511.33 121.432 L1518.78 121.432 L1518.78 130.871 L1511.33 130.871 L1511.33 121.432 Z" fill="#000000" fill-rule="nonzero" fill-opacity="1" /><path clip-path="url(#clip280)" d="M1569.7 147.803 Q1572.49 142.78 1576.38 140.39 Q1580.27 138 1585.54 138 Q1592.63 138 1596.48 142.983 Q1600.32 147.925 1600.32 157.08 L1600.32 184.464 L1592.83 184.464 L1592.83 157.323 Q1592.83 150.801 1590.52 147.641 Q1588.21 144.482 1583.47 144.482 Q1577.68 144.482 1574.32 148.33 Q1570.95 152.178 1570.95 158.822 L1570.95 184.464 L1563.46 184.464 L1563.46 157.323 Q1563.46 150.76 1561.15 147.641 Q1558.84 144.482 1554.02 144.482 Q1548.31 144.482 1544.95 148.37 Q1541.59 152.219 1541.59 158.822 L1541.59 184.464 L1534.09 184.464 L1534.09 139.094 L1541.59 139.094 L1541.59 146.142 Q1544.14 141.97 1547.7 139.985 Q1551.27 138 1556.17 138 Q1561.11 138 1564.55 140.512 Q1568.04 143.023 1569.7 147.803 Z" fill="#000000" fill-rule="nonzero" fill-opacity="1" /><path clip-path="url(#clip280)" d="M1654 159.916 L1654 163.561 L1619.73 163.561 Q1620.21 171.258 1624.35 175.309 Q1628.52 179.319 1635.93 179.319 Q1640.23 179.319 1644.24 178.266 Q1648.29 177.213 1652.26 175.106 L1652.26 182.155 Q1648.25 183.856 1644.03 184.748 Q1639.82 185.639 1635.49 185.639 Q1624.63 185.639 1618.27 179.319 Q1611.95 173 1611.95 162.225 Q1611.95 151.085 1617.95 144.563 Q1623.98 138 1634.19 138 Q1643.34 138 1648.65 143.914 Q1654 149.788 1654 159.916 M1646.54 157.728 Q1646.46 151.611 1643.1 147.965 Q1639.78 144.32 1634.27 144.32 Q1628.03 144.32 1624.26 147.844 Q1620.54 151.368 1619.97 157.769 L1646.54 157.728 Z" fill="#000000" fill-rule="nonzero" fill-opacity="1" /><path clip-path="url(#clip280)" d="M1687.26 139.094 L1695.16 139.094 L1709.33 177.172 L1723.51 139.094 L1731.41 139.094 L1714.4 184.464 L1704.27 184.464 L1687.26 139.094 Z" fill="#000000" fill-rule="nonzero" fill-opacity="1" /><path clip-path="url(#clip280)" d="M1770.62 140.431 L1770.62 147.479 Q1767.46 145.859 1764.06 145.049 Q1760.66 144.239 1757.01 144.239 Q1751.46 144.239 1748.67 145.94 Q1745.91 147.641 1745.91 151.044 Q1745.91 153.637 1747.9 155.135 Q1749.88 156.594 1755.88 157.931 L1758.43 158.498 Q1766.37 160.199 1769.69 163.318 Q1773.05 166.397 1773.05 171.947 Q1773.05 178.266 1768.03 181.952 Q1763.05 185.639 1754.3 185.639 Q1750.65 185.639 1746.68 184.91 Q1742.75 184.221 1738.38 182.803 L1738.38 175.106 Q1742.51 177.253 1746.52 178.347 Q1750.53 179.4 1754.46 179.4 Q1759.73 179.4 1762.56 177.618 Q1765.4 175.795 1765.4 172.514 Q1765.4 169.476 1763.33 167.855 Q1761.31 166.235 1754.38 164.736 L1751.79 164.128 Q1744.86 162.67 1741.78 159.672 Q1738.7 156.634 1738.7 151.368 Q1738.7 144.968 1743.24 141.484 Q1747.78 138 1756.12 138 Q1760.25 138 1763.9 138.608 Q1767.54 139.215 1770.62 140.431 Z" fill="#000000" fill-rule="nonzero" fill-opacity="1" /><path clip-path="url(#clip280)" d="M1841.15 161.252 Q1841.15 153.151 1837.79 148.695 Q1834.47 144.239 1828.43 144.239 Q1822.43 144.239 1819.07 148.695 Q1815.75 153.151 1815.75 161.252 Q1815.75 169.314 1819.07 173.77 Q1822.43 178.226 1828.43 178.226 Q1834.47 178.226 1837.79 173.77 Q1841.15 169.314 1841.15 161.252 M1848.6 178.833 Q1848.6 190.419 1843.46 196.05 Q1838.31 201.721 1827.7 201.721 Q1823.77 201.721 1820.29 201.113 Q1816.8 200.546 1813.52 199.331 L1813.52 192.08 Q1816.8 193.862 1820 194.713 Q1823.2 195.563 1826.53 195.563 Q1833.86 195.563 1837.5 191.715 Q1841.15 187.907 1841.15 180.17 L1841.15 176.484 Q1838.84 180.494 1835.24 182.479 Q1831.63 184.464 1826.61 184.464 Q1818.26 184.464 1813.16 178.104 Q1808.05 171.744 1808.05 161.252 Q1808.05 150.72 1813.16 144.36 Q1818.26 138 1826.61 138 Q1831.63 138 1835.24 139.985 Q1838.84 141.97 1841.15 145.98 L1841.15 139.094 L1848.6 139.094 L1848.6 178.833 Z" fill="#000000" fill-rule="nonzero" fill-opacity="1" /><path clip-path="url(#clip280)" d="M1890.25 146.061 Q1888.99 145.332 1887.49 145.008 Q1886.03 144.644 1884.25 144.644 Q1877.93 144.644 1874.53 148.776 Q1871.17 152.867 1871.17 160.564 L1871.17 184.464 L1863.67 184.464 L1863.67 139.094 L1871.17 139.094 L1871.17 146.142 Q1873.52 142.011 1877.28 140.026 Q1881.05 138 1886.44 138 Q1887.21 138 1888.14 138.122 Q1889.07 138.203 1890.21 138.405 L1890.25 146.061 Z" fill="#000000" fill-rule="nonzero" fill-opacity="1" /><path clip-path="url(#clip280)" d="M1898.07 139.094 L1905.52 139.094 L1905.52 184.464 L1898.07 184.464 L1898.07 139.094 M1898.07 121.432 L1905.52 121.432 L1905.52 130.871 L1898.07 130.871 L1898.07 121.432 Z" fill="#000000" fill-rule="nonzero" fill-opacity="1" /><path clip-path="url(#clip280)" d="M1950.97 145.98 L1950.97 121.432 L1958.42 121.432 L1958.42 184.464 L1950.97 184.464 L1950.97 177.658 Q1948.62 181.709 1945.02 183.694 Q1941.45 185.639 1936.43 185.639 Q1928.2 185.639 1923.02 179.076 Q1917.87 172.514 1917.87 161.819 Q1917.87 151.125 1923.02 144.563 Q1928.2 138 1936.43 138 Q1941.45 138 1945.02 139.985 Q1948.62 141.93 1950.97 145.98 M1925.57 161.819 Q1925.57 170.043 1928.93 174.742 Q1932.34 179.4 1938.25 179.4 Q1944.16 179.4 1947.57 174.742 Q1950.97 170.043 1950.97 161.819 Q1950.97 153.596 1947.57 148.938 Q1944.16 144.239 1938.25 144.239 Q1932.34 144.239 1928.93 148.938 Q1925.57 153.596 1925.57 161.819 Z" fill="#000000" fill-rule="nonzero" fill-opacity="1" /><path clip-path="url(#clip280)" d="M2029.07 140.431 L2029.07 147.479 Q2025.91 145.859 2022.51 145.049 Q2019.11 144.239 2015.46 144.239 Q2009.91 144.239 2007.12 145.94 Q2004.36 147.641 2004.36 151.044 Q2004.36 153.637 2006.35 155.135 Q2008.33 156.594 2014.33 157.931 L2016.88 158.498 Q2024.82 160.199 2028.14 163.318 Q2031.5 166.397 2031.5 171.947 Q2031.5 178.266 2026.48 181.952 Q2021.5 185.639 2012.75 185.639 Q2009.1 185.639 2005.13 184.91 Q2001.2 184.221 1996.83 182.803 L1996.83 175.106 Q2000.96 177.253 2004.97 178.347 Q2008.98 179.4 2012.91 179.4 Q2018.17 179.4 2021.01 177.618 Q2023.85 175.795 2023.85 172.514 Q2023.85 169.476 2021.78 167.855 Q2019.75 166.235 2012.83 164.736 L2010.23 164.128 Q2003.31 162.67 2000.23 159.672 Q1997.15 156.634 1997.15 151.368 Q1997.15 144.968 2001.69 141.484 Q2006.22 138 2014.57 138 Q2018.7 138 2022.35 138.608 Q2025.99 139.215 2029.07 140.431 Z" fill="#000000" fill-rule="nonzero" fill-opacity="1" /><path clip-path="url(#clip280)" d="M2043.37 139.094 L2050.82 139.094 L2050.82 184.464 L2043.37 184.464 L2043.37 139.094 M2043.37 121.432 L2050.82 121.432 L2050.82 130.871 L2043.37 130.871 L2043.37 121.432 Z" fill="#000000" fill-rule="nonzero" fill-opacity="1" /><path clip-path="url(#clip280)" d="M2063.18 139.094 L2098.58 139.094 L2098.58 145.899 L2070.55 178.509 L2098.58 178.509 L2098.58 184.464 L2062.17 184.464 L2062.17 177.658 L2090.2 145.049 L2063.18 145.049 L2063.18 139.094 Z" fill="#000000" fill-rule="nonzero" fill-opacity="1" /><path clip-path="url(#clip280)" d="M2148.78 159.916 L2148.78 163.561 L2114.5 163.561 Q2114.99 171.258 2119.12 175.309 Q2123.3 179.319 2130.71 179.319 Q2135 179.319 2139.01 178.266 Q2143.06 177.213 2147.03 175.106 L2147.03 182.155 Q2143.02 183.856 2138.81 184.748 Q2134.6 185.639 2130.26 185.639 Q2119.41 185.639 2113.05 179.319 Q2106.73 173 2106.73 162.225 Q2106.73 151.085 2112.72 144.563 Q2118.76 138 2128.97 138 Q2138.12 138 2143.43 143.914 Q2148.78 149.788 2148.78 159.916 M2141.32 157.728 Q2141.24 151.611 2137.88 147.965 Q2134.56 144.32 2129.05 144.32 Q2122.81 144.32 2119.04 147.844 Q2115.32 151.368 2114.75 157.769 L2141.32 157.728 Z" fill="#000000" fill-rule="nonzero" fill-opacity="1" /><path clip-path="url(#clip280)" d="M2183.61 158.822 L2258.47 158.822 L2258.47 164.655 L2183.61 164.655 L2183.61 158.822 Z" fill="#000000" fill-rule="nonzero" fill-opacity="1" /><path clip-path="url(#clip280)" d="M2325.64 140.431 L2325.64 147.479 Q2322.48 145.859 2319.08 145.049 Q2315.67 144.239 2312.03 144.239 Q2306.48 144.239 2303.68 145.94 Q2300.93 147.641 2300.93 151.044 Q2300.93 153.637 2302.91 155.135 Q2304.9 156.594 2310.89 157.931 L2313.44 158.498 Q2321.38 160.199 2324.71 163.318 Q2328.07 166.397 2328.07 171.947 Q2328.07 178.266 2323.05 181.952 Q2318.06 185.639 2309.31 185.639 Q2305.67 185.639 2301.7 184.91 Q2297.77 184.221 2293.39 182.803 L2293.39 175.106 Q2297.52 177.253 2301.54 178.347 Q2305.55 179.4 2309.47 179.4 Q2314.74 179.4 2317.58 177.618 Q2320.41 175.795 2320.41 172.514 Q2320.41 169.476 2318.35 167.855 Q2316.32 166.235 2309.39 164.736 L2306.8 164.128 Q2299.87 162.67 2296.8 159.672 Q2293.72 156.634 2293.72 151.368 Q2293.72 144.968 2298.25 141.484 Q2302.79 138 2311.14 138 Q2315.27 138 2318.91 138.608 Q2322.56 139.215 2325.64 140.431 Z" fill="#000000" fill-rule="nonzero" fill-opacity="1" /><path clip-path="url(#clip280)" d="M2347.31 126.212 L2347.31 139.094 L2362.66 139.094 L2362.66 144.887 L2347.31 144.887 L2347.31 169.516 Q2347.31 175.066 2348.81 176.646 Q2350.35 178.226 2355.01 178.226 L2362.66 178.226 L2362.66 184.464 L2355.01 184.464 Q2346.38 184.464 2343.1 181.264 Q2339.82 178.023 2339.82 169.516 L2339.82 144.887 L2334.35 144.887 L2334.35 139.094 L2339.82 139.094 L2339.82 126.212 L2347.31 126.212 Z" fill="#000000" fill-rule="nonzero" fill-opacity="1" /><path clip-path="url(#clip280)" d="M2411.27 159.916 L2411.27 163.561 L2377 163.561 Q2377.49 171.258 2381.62 175.309 Q2385.79 179.319 2393.21 179.319 Q2397.5 179.319 2401.51 178.266 Q2405.56 177.213 2409.53 175.106 L2409.53 182.155 Q2405.52 183.856 2401.31 184.748 Q2397.1 185.639 2392.76 185.639 Q2381.91 185.639 2375.55 179.319 Q2369.23 173 2369.23 162.225 Q2369.23 151.085 2375.22 144.563 Q2381.26 138 2391.47 138 Q2400.62 138 2405.93 143.914 Q2411.27 149.788 2411.27 159.916 M2403.82 157.728 Q2403.74 151.611 2400.38 147.965 Q2397.06 144.32 2391.55 144.32 Q2385.31 144.32 2381.54 147.844 Q2377.81 151.368 2377.25 157.769 L2403.82 157.728 Z" fill="#000000" fill-rule="nonzero" fill-opacity="1" /><path clip-path="url(#clip280)" d="M2462.32 159.916 L2462.32 163.561 L2428.04 163.561 Q2428.53 171.258 2432.66 175.309 Q2436.84 179.319 2444.25 179.319 Q2448.54 179.319 2452.55 178.266 Q2456.6 177.213 2460.57 175.106 L2460.57 182.155 Q2456.56 183.856 2452.35 184.748 Q2448.14 185.639 2443.8 185.639 Q2432.95 185.639 2426.59 179.319 Q2420.27 173 2420.27 162.225 Q2420.27 151.085 2426.26 144.563 Q2432.3 138 2442.51 138 Q2451.66 138 2456.97 143.914 Q2462.32 149.788 2462.32 159.916 M2454.86 157.728 Q2454.78 151.611 2451.42 147.965 Q2448.1 144.32 2442.59 144.32 Q2436.35 144.32 2432.58 147.844 Q2428.86 151.368 2428.29 157.769 L2454.86 157.728 Z" fill="#000000" fill-rule="nonzero" fill-opacity="1" /><path clip-path="url(#clip280)" d="M2500.84 146.061 Q2499.58 145.332 2498.09 145.008 Q2496.63 144.644 2494.84 144.644 Q2488.52 144.644 2485.12 148.776 Q2481.76 152.867 2481.76 160.564 L2481.76 184.464 L2474.27 184.464 L2474.27 139.094 L2481.76 139.094 L2481.76 146.142 Q2484.11 142.011 2487.88 140.026 Q2491.64 138 2497.03 138 Q2497.8 138 2498.73 138.122 Q2499.66 138.203 2500.8 138.405 L2500.84 146.061 Z" fill="#000000" fill-rule="nonzero" fill-opacity="1" /><path clip-path="url(#clip280)" d="M2508.66 139.094 L2516.11 139.094 L2516.11 184.464 L2508.66 184.464 L2508.66 139.094 M2508.66 121.432 L2516.11 121.432 L2516.11 130.871 L2508.66 130.871 L2508.66 121.432 Z" fill="#000000" fill-rule="nonzero" fill-opacity="1" /><path clip-path="url(#clip280)" d="M2569.42 157.08 L2569.42 184.464 L2561.97 184.464 L2561.97 157.323 Q2561.97 150.882 2559.46 147.682 Q2556.94 144.482 2551.92 144.482 Q2545.89 144.482 2542.4 148.33 Q2538.92 152.178 2538.92 158.822 L2538.92 184.464 L2531.42 184.464 L2531.42 139.094 L2538.92 139.094 L2538.92 146.142 Q2541.59 142.051 2545.2 140.026 Q2548.84 138 2553.58 138 Q2561.4 138 2565.41 142.861 Q2569.42 147.682 2569.42 157.08 Z" fill="#000000" fill-rule="nonzero" fill-opacity="1" /><path clip-path="url(#clip280)" d="M2614.14 161.252 Q2614.14 153.151 2610.78 148.695 Q2607.46 144.239 2601.42 144.239 Q2595.43 144.239 2592.07 148.695 Q2588.74 153.151 2588.74 161.252 Q2588.74 169.314 2592.07 173.77 Q2595.43 178.226 2601.42 178.226 Q2607.46 178.226 2610.78 173.77 Q2614.14 169.314 2614.14 161.252 M2621.6 178.833 Q2621.6 190.419 2616.45 196.05 Q2611.31 201.721 2600.69 201.721 Q2596.77 201.721 2593.28 201.113 Q2589.8 200.546 2586.52 199.331 L2586.52 192.08 Q2589.8 193.862 2593 194.713 Q2596.2 195.563 2599.52 195.563 Q2606.85 195.563 2610.5 191.715 Q2614.14 187.907 2614.14 180.17 L2614.14 176.484 Q2611.83 180.494 2608.23 182.479 Q2604.62 184.464 2599.6 184.464 Q2591.26 184.464 2586.15 178.104 Q2581.05 171.744 2581.05 161.252 Q2581.05 150.72 2586.15 144.36 Q2591.26 138 2599.6 138 Q2604.62 138 2608.23 139.985 Q2611.83 141.97 2614.14 145.98 L2614.14 139.094 L2621.6 139.094 L2621.6 178.833 Z" fill="#000000" fill-rule="nonzero" fill-opacity="1" /><polyline clip-path="url(#clip282)" style="stroke:#ffa500; stroke-linecap:round; stroke-linejoin:round; stroke-width:6; stroke-opacity:1; fill:none" points="440.511,2102.46 2032.92,1233.29 2718.74,874.844 3404.55,300.989 "/>
<path clip-path="url(#clip282)" d="M440.511 2086.46 L424.511 2118.46 L456.511 2118.46 L440.511 2086.46 Z" fill="#ffa500" fill-rule="evenodd" fill-opacity="1" stroke="none"/>
<path clip-path="url(#clip282)" d="M2032.92 1217.29 L2016.92 1249.29 L2048.92 1249.29 L2032.92 1217.29 Z" fill="#ffa500" fill-rule="evenodd" fill-opacity="1" stroke="none"/>
<path clip-path="url(#clip282)" d="M2718.74 858.844 L2702.74 890.844 L2734.74 890.844 L2718.74 858.844 Z" fill="#ffa500" fill-rule="evenodd" fill-opacity="1" stroke="none"/>
<path clip-path="url(#clip282)" d="M3404.55 284.989 L3388.55 316.989 L3420.55 316.989 L3404.55 284.989 Z" fill="#ffa500" fill-rule="evenodd" fill-opacity="1" stroke="none"/>
<polyline clip-path="url(#clip282)" style="stroke:#00ffff; stroke-linecap:round; stroke-linejoin:round; stroke-width:6; stroke-opacity:1; fill:none" points="440.511,1921.68 2032.92,1404.79 2718.74,1225.52 3404.55,882.24 "/>
<path clip-path="url(#clip282)" d="M440.511 1937.68 L426.655 1929.68 L426.655 1913.68 L440.511 1905.68 L454.367 1913.68 L454.367 1929.68 Z" fill="#00ffff" fill-rule="evenodd" fill-opacity="1" stroke="none"/>
<path clip-path="url(#clip282)" d="M2032.92 1420.79 L2019.07 1412.79 L2019.07 1396.79 L2032.92 1388.79 L2046.78 1396.79 L2046.78 1412.79 Z" fill="#00ffff" fill-rule="evenodd" fill-opacity="1" stroke="none"/>
<path clip-path="url(#clip282)" d="M2718.74 1241.52 L2704.88 1233.52 L2704.88 1217.52 L2718.74 1209.52 L2732.59 1217.52 L2732.59 1233.52 Z" fill="#00ffff" fill-rule="evenodd" fill-opacity="1" stroke="none"/>
<path clip-path="url(#clip282)" d="M3404.55 898.24 L3390.7 890.24 L3390.7 874.24 L3404.55 866.24 L3418.41 874.24 L3418.41 890.24 Z" fill="#00ffff" fill-rule="evenodd" fill-opacity="1" stroke="none"/>
<path clip-path="url(#clip280)" d="M2681.04 2092.86 L3444.07 2092.86 L3444.07 1937.34 L2681.04 1937.34  Z" fill="#ffffff" fill-rule="evenodd" fill-opacity="1"/>
<polyline clip-path="url(#clip280)" style="stroke:#000000; stroke-linecap:round; stroke-linejoin:round; stroke-width:4; stroke-opacity:1; fill:none" points="2681.04,2092.86 3444.07,2092.86 3444.07,1937.34 2681.04,1937.34 2681.04,2092.86 "/>
<polyline clip-path="url(#clip280)" style="stroke:#ffa500; stroke-linecap:round; stroke-linejoin:round; stroke-width:6; stroke-opacity:1; fill:none" points="2717.27,1989.18 2934.63,1989.18 "/>
<path clip-path="url(#clip280)" d="M2825.95 1963.58 L2800.35 2014.78 L2851.55 2014.78 L2825.95 1963.58 Z" fill="#ffa500" fill-rule="evenodd" fill-opacity="1" stroke="none"/>
<path clip-path="url(#clip280)" d="M2981.48 1970.48 Q2978.38 1975.81 2976.88 1981.02 Q2975.37 1986.22 2975.37 1991.57 Q2975.37 1996.92 2976.88 2002.17 Q2978.41 2007.4 2981.48 2012.71 L2977.78 2012.71 Q2974.31 2007.27 2972.57 2002.01 Q2970.86 1996.76 2970.86 1991.57 Q2970.86 1986.41 2972.57 1981.18 Q2974.28 1975.95 2977.78 1970.48 L2981.48 1970.48 Z" fill="#000000" fill-rule="nonzero" fill-opacity="1" /><path clip-path="url(#clip280)" d="M3011.92 1992.43 L3011.92 1994.51 L2992.34 1994.51 Q2992.62 1998.91 2994.98 2001.22 Q2997.36 2003.52 3001.6 2003.52 Q3004.05 2003.52 3006.34 2002.91 Q3008.66 2002.31 3010.93 2001.11 L3010.93 2005.14 Q3008.64 2006.11 3006.23 2006.62 Q3003.82 2007.13 3001.34 2007.13 Q2995.14 2007.13 2991.51 2003.52 Q2987.9 1999.9 2987.9 1993.75 Q2987.9 1987.38 2991.32 1983.65 Q2994.77 1979.9 3000.6 1979.9 Q3005.84 1979.9 3008.87 1983.28 Q3011.92 1986.64 3011.92 1992.43 M3007.66 1991.18 Q3007.62 1987.68 3005.7 1985.6 Q3003.8 1983.52 3000.65 1983.52 Q2997.09 1983.52 2994.93 1985.53 Q2992.8 1987.54 2992.48 1991.2 L3007.66 1991.18 Z" fill="#000000" fill-rule="nonzero" fill-opacity="1" /><path clip-path="url(#clip280)" d="M3039.63 1980.53 L3030.26 1993.15 L3040.12 2006.46 L3035.09 2006.46 L3027.55 1996.27 L3020 2006.46 L3014.98 2006.46 L3025.05 1992.89 L3015.84 1980.53 L3020.86 1980.53 L3027.73 1989.77 L3034.61 1980.53 L3039.63 1980.53 Z" fill="#000000" fill-rule="nonzero" fill-opacity="1" /><path clip-path="url(#clip280)" d="M3057.92 1993.42 Q3052.76 1993.42 3050.77 1994.6 Q3048.78 1995.78 3048.78 1998.63 Q3048.78 2000.9 3050.26 2002.24 Q3051.76 2003.56 3054.33 2003.56 Q3057.87 2003.56 3060 2001.06 Q3062.15 1998.54 3062.15 1994.37 L3062.15 1993.42 L3057.92 1993.42 M3066.41 1991.66 L3066.41 2006.46 L3062.15 2006.46 L3062.15 2002.52 Q3060.7 2004.88 3058.52 2006.02 Q3056.34 2007.13 3053.2 2007.13 Q3049.21 2007.13 3046.85 2004.9 Q3044.52 2002.66 3044.52 1998.91 Q3044.52 1994.53 3047.43 1992.31 Q3050.37 1990.09 3056.18 1990.09 L3062.15 1990.09 L3062.15 1989.67 Q3062.15 1986.73 3060.21 1985.14 Q3058.29 1983.52 3054.79 1983.52 Q3052.57 1983.52 3050.46 1984.05 Q3048.36 1984.58 3046.41 1985.65 L3046.41 1981.71 Q3048.75 1980.81 3050.95 1980.37 Q3053.15 1979.9 3055.23 1979.9 Q3060.86 1979.9 3063.64 1982.82 Q3066.41 1985.74 3066.41 1991.66 Z" fill="#000000" fill-rule="nonzero" fill-opacity="1" /><path clip-path="url(#clip280)" d="M3076.27 2000.58 L3081.16 2000.58 L3081.16 2004.56 L3077.36 2011.96 L3074.38 2011.96 L3076.27 2004.56 L3076.27 2000.58 Z" fill="#000000" fill-rule="nonzero" fill-opacity="1" /><path clip-path="url(#clip280)" d="M3125.51 1985.51 Q3127.11 1982.64 3129.33 1981.27 Q3131.55 1979.9 3134.56 1979.9 Q3138.61 1979.9 3140.81 1982.75 Q3143.01 1985.58 3143.01 1990.81 L3143.01 2006.46 L3138.73 2006.46 L3138.73 1990.95 Q3138.73 1987.22 3137.41 1985.41 Q3136.09 1983.61 3133.38 1983.61 Q3130.07 1983.61 3128.15 1985.81 Q3126.23 1988.01 3126.23 1991.8 L3126.23 2006.46 L3121.95 2006.46 L3121.95 1990.95 Q3121.95 1987.2 3120.63 1985.41 Q3119.31 1983.61 3116.55 1983.61 Q3113.29 1983.61 3111.37 1985.83 Q3109.45 1988.03 3109.45 1991.8 L3109.45 2006.46 L3105.16 2006.46 L3105.16 1980.53 L3109.45 1980.53 L3109.45 1984.56 Q3110.9 1982.17 3112.94 1981.04 Q3114.98 1979.9 3117.78 1979.9 Q3120.6 1979.9 3122.57 1981.34 Q3124.56 1982.78 3125.51 1985.51 Z" fill="#000000" fill-rule="nonzero" fill-opacity="1" /><path clip-path="url(#clip280)" d="M3163.29 1993.42 Q3158.13 1993.42 3156.14 1994.6 Q3154.14 1995.78 3154.14 1998.63 Q3154.14 2000.9 3155.63 2002.24 Q3157.13 2003.56 3159.7 2003.56 Q3163.24 2003.56 3165.37 2001.06 Q3167.52 1998.54 3167.52 1994.37 L3167.52 1993.42 L3163.29 1993.42 M3171.78 1991.66 L3171.78 2006.46 L3167.52 2006.46 L3167.52 2002.52 Q3166.07 2004.88 3163.89 2006.02 Q3161.71 2007.13 3158.57 2007.13 Q3154.58 2007.13 3152.22 2004.9 Q3149.89 2002.66 3149.89 1998.91 Q3149.89 1994.53 3152.8 1992.31 Q3155.74 1990.09 3161.55 1990.09 L3167.52 1990.09 L3167.52 1989.67 Q3167.52 1986.73 3165.58 1985.14 Q3163.66 1983.52 3160.16 1983.52 Q3157.94 1983.52 3155.83 1984.05 Q3153.73 1984.58 3151.78 1985.65 L3151.78 1981.71 Q3154.12 1980.81 3156.32 1980.37 Q3158.52 1979.9 3160.6 1979.9 Q3166.23 1979.9 3169.01 1982.82 Q3171.78 1985.74 3171.78 1991.66 Z" fill="#000000" fill-rule="nonzero" fill-opacity="1" /><path clip-path="url(#clip280)" d="M3197.62 1984.46 L3197.62 1970.44 L3201.88 1970.44 L3201.88 2006.46 L3197.62 2006.46 L3197.62 2002.57 Q3196.27 2004.88 3194.21 2006.02 Q3192.18 2007.13 3189.31 2007.13 Q3184.61 2007.13 3181.64 2003.38 Q3178.7 1999.63 3178.7 1993.52 Q3178.7 1987.4 3181.64 1983.65 Q3184.61 1979.9 3189.31 1979.9 Q3192.18 1979.9 3194.21 1981.04 Q3196.27 1982.15 3197.62 1984.46 M3183.1 1993.52 Q3183.1 1998.21 3185.02 2000.9 Q3186.97 2003.56 3190.35 2003.56 Q3193.73 2003.56 3195.67 2000.9 Q3197.62 1998.21 3197.62 1993.52 Q3197.62 1988.82 3195.67 1986.15 Q3193.73 1983.47 3190.35 1983.47 Q3186.97 1983.47 3185.02 1986.15 Q3183.1 1988.82 3183.1 1993.52 Z" fill="#000000" fill-rule="nonzero" fill-opacity="1" /><path clip-path="url(#clip280)" d="M3232.2 1990.81 L3232.2 2006.46 L3227.94 2006.46 L3227.94 1990.95 Q3227.94 1987.27 3226.51 1985.44 Q3225.07 1983.61 3222.2 1983.61 Q3218.75 1983.61 3216.76 1985.81 Q3214.77 1988.01 3214.77 1991.8 L3214.77 2006.46 L3210.49 2006.46 L3210.49 1980.53 L3214.77 1980.53 L3214.77 1984.56 Q3216.3 1982.22 3218.36 1981.06 Q3220.44 1979.9 3223.15 1979.9 Q3227.62 1979.9 3229.91 1982.68 Q3232.2 1985.44 3232.2 1990.81 Z" fill="#000000" fill-rule="nonzero" fill-opacity="1" /><path clip-path="url(#clip280)" d="M3240.7 1970.44 L3244.95 1970.44 L3244.95 2006.46 L3240.7 2006.46 L3240.7 1970.44 Z" fill="#000000" fill-rule="nonzero" fill-opacity="1" /><path clip-path="url(#clip280)" d="M3257.99 2002.57 L3257.99 2016.32 L3253.7 2016.32 L3253.7 1980.53 L3257.99 1980.53 L3257.99 1984.46 Q3259.33 1982.15 3261.37 1981.04 Q3263.43 1979.9 3266.27 1979.9 Q3271 1979.9 3273.94 1983.65 Q3276.9 1987.4 3276.9 1993.52 Q3276.9 1999.63 3273.94 2003.38 Q3271 2007.13 3266.27 2007.13 Q3263.43 2007.13 3261.37 2006.02 Q3259.33 2004.88 3257.99 2002.57 M3272.48 1993.52 Q3272.48 1988.82 3270.53 1986.15 Q3268.61 1983.47 3265.23 1983.47 Q3261.85 1983.47 3259.91 1986.15 Q3257.99 1988.82 3257.99 1993.52 Q3257.99 1998.21 3259.91 2000.9 Q3261.85 2003.56 3265.23 2003.56 Q3268.61 2003.56 3270.53 2000.9 Q3272.48 1998.21 3272.48 1993.52 Z" fill="#000000" fill-rule="nonzero" fill-opacity="1" /><path clip-path="url(#clip280)" d="M3283.29 1970.48 L3286.99 1970.48 Q3290.46 1975.95 3292.18 1981.18 Q3293.91 1986.41 3293.91 1991.57 Q3293.91 1996.76 3292.18 2002.01 Q3290.46 2007.27 3286.99 2012.71 L3283.29 2012.71 Q3286.37 2007.4 3287.87 2002.17 Q3289.4 1996.92 3289.4 1991.57 Q3289.4 1986.22 3287.87 1981.02 Q3286.37 1975.81 3283.29 1970.48 Z" fill="#000000" fill-rule="nonzero" fill-opacity="1" /><polyline clip-path="url(#clip280)" style="stroke:#00ffff; stroke-linecap:round; stroke-linejoin:round; stroke-width:6; stroke-opacity:1; fill:none" points="2717.27,2041.02 2934.63,2041.02 "/>
<path clip-path="url(#clip280)" d="M2825.95 2066.62 L2803.78 2053.82 L2803.78 2028.22 L2825.95 2015.42 L2848.12 2028.22 L2848.12 2053.82 Z" fill="#00ffff" fill-rule="evenodd" fill-opacity="1" stroke="none"/>
<path clip-path="url(#clip280)" d="M2981.48 2022.32 Q2978.38 2027.65 2976.88 2032.86 Q2975.37 2038.06 2975.37 2043.41 Q2975.37 2048.76 2976.88 2054.01 Q2978.41 2059.24 2981.48 2064.55 L2977.78 2064.55 Q2974.31 2059.11 2972.57 2053.85 Q2970.86 2048.6 2970.86 2043.41 Q2970.86 2038.25 2972.57 2033.02 Q2974.28 2027.79 2977.78 2022.32 L2981.48 2022.32 Z" fill="#000000" fill-rule="nonzero" fill-opacity="1" /><path clip-path="url(#clip280)" d="M3011.92 2044.27 L3011.92 2046.35 L2992.34 2046.35 Q2992.62 2050.75 2994.98 2053.06 Q2997.36 2055.36 3001.6 2055.36 Q3004.05 2055.36 3006.34 2054.75 Q3008.66 2054.15 3010.93 2052.95 L3010.93 2056.98 Q3008.64 2057.95 3006.23 2058.46 Q3003.82 2058.97 3001.34 2058.97 Q2995.14 2058.97 2991.51 2055.36 Q2987.9 2051.74 2987.9 2045.59 Q2987.9 2039.22 2991.32 2035.49 Q2994.77 2031.74 3000.6 2031.74 Q3005.84 2031.74 3008.87 2035.12 Q3011.92 2038.48 3011.92 2044.27 M3007.66 2043.02 Q3007.62 2039.52 3005.7 2037.44 Q3003.8 2035.36 3000.65 2035.36 Q2997.09 2035.36 2994.93 2037.37 Q2992.8 2039.38 2992.48 2043.04 L3007.66 2043.02 Z" fill="#000000" fill-rule="nonzero" fill-opacity="1" /><path clip-path="url(#clip280)" d="M3039.63 2032.37 L3030.26 2044.99 L3040.12 2058.3 L3035.09 2058.3 L3027.55 2048.11 L3020 2058.3 L3014.98 2058.3 L3025.05 2044.73 L3015.84 2032.37 L3020.86 2032.37 L3027.73 2041.61 L3034.61 2032.37 L3039.63 2032.37 Z" fill="#000000" fill-rule="nonzero" fill-opacity="1" /><path clip-path="url(#clip280)" d="M3057.92 2045.26 Q3052.76 2045.26 3050.77 2046.44 Q3048.78 2047.62 3048.78 2050.47 Q3048.78 2052.74 3050.26 2054.08 Q3051.76 2055.4 3054.33 2055.4 Q3057.87 2055.4 3060 2052.9 Q3062.15 2050.38 3062.15 2046.21 L3062.15 2045.26 L3057.92 2045.26 M3066.41 2043.5 L3066.41 2058.3 L3062.15 2058.3 L3062.15 2054.36 Q3060.7 2056.72 3058.52 2057.86 Q3056.34 2058.97 3053.2 2058.97 Q3049.21 2058.97 3046.85 2056.74 Q3044.52 2054.5 3044.52 2050.75 Q3044.52 2046.37 3047.43 2044.15 Q3050.37 2041.93 3056.18 2041.93 L3062.15 2041.93 L3062.15 2041.51 Q3062.15 2038.57 3060.21 2036.98 Q3058.29 2035.36 3054.79 2035.36 Q3052.57 2035.36 3050.46 2035.89 Q3048.36 2036.42 3046.41 2037.49 L3046.41 2033.55 Q3048.75 2032.65 3050.95 2032.21 Q3053.15 2031.74 3055.23 2031.74 Q3060.86 2031.74 3063.64 2034.66 Q3066.41 2037.58 3066.41 2043.5 Z" fill="#000000" fill-rule="nonzero" fill-opacity="1" /><path clip-path="url(#clip280)" d="M3094.89 2066.17 L3094.89 2069.48 L3070.26 2069.48 L3070.26 2066.17 L3094.89 2066.17 Z" fill="#000000" fill-rule="nonzero" fill-opacity="1" /><path clip-path="url(#clip280)" d="M3115.95 2045.03 Q3115.95 2040.4 3114.03 2037.86 Q3112.13 2035.31 3108.68 2035.31 Q3105.26 2035.31 3103.33 2037.86 Q3101.44 2040.4 3101.44 2045.03 Q3101.44 2049.64 3103.33 2052.18 Q3105.26 2054.73 3108.68 2054.73 Q3112.13 2054.73 3114.03 2052.18 Q3115.95 2049.64 3115.95 2045.03 M3120.21 2055.08 Q3120.21 2061.7 3117.27 2064.92 Q3114.33 2068.16 3108.27 2068.16 Q3106.02 2068.16 3104.03 2067.81 Q3102.04 2067.49 3100.16 2066.79 L3100.16 2062.65 Q3102.04 2063.67 3103.87 2064.15 Q3105.7 2064.64 3107.59 2064.64 Q3111.78 2064.64 3113.87 2062.44 Q3115.95 2060.26 3115.95 2055.84 L3115.95 2053.74 Q3114.63 2056.03 3112.57 2057.16 Q3110.51 2058.3 3107.64 2058.3 Q3102.87 2058.3 3099.96 2054.66 Q3097.04 2051.03 3097.04 2045.03 Q3097.04 2039.01 3099.96 2035.38 Q3102.87 2031.74 3107.64 2031.74 Q3110.51 2031.74 3112.57 2032.88 Q3114.63 2034.01 3115.95 2036.3 L3115.95 2032.37 L3120.21 2032.37 L3120.21 2055.08 Z" fill="#000000" fill-rule="nonzero" fill-opacity="1" /><path clip-path="url(#clip280)" d="M3133.1 2054.41 L3133.1 2068.16 L3128.82 2068.16 L3128.82 2032.37 L3133.1 2032.37 L3133.1 2036.3 Q3134.45 2033.99 3136.48 2032.88 Q3138.54 2031.74 3141.39 2031.74 Q3146.11 2031.74 3149.05 2035.49 Q3152.02 2039.24 3152.02 2045.36 Q3152.02 2051.47 3149.05 2055.22 Q3146.11 2058.97 3141.39 2058.97 Q3138.54 2058.97 3136.48 2057.86 Q3134.45 2056.72 3133.1 2054.41 M3147.59 2045.36 Q3147.59 2040.66 3145.65 2037.99 Q3143.73 2035.31 3140.35 2035.31 Q3136.97 2035.31 3135.02 2037.99 Q3133.1 2040.66 3133.1 2045.36 Q3133.1 2050.05 3135.02 2052.74 Q3136.97 2055.4 3140.35 2055.4 Q3143.73 2055.4 3145.65 2052.74 Q3147.59 2050.05 3147.59 2045.36 Z" fill="#000000" fill-rule="nonzero" fill-opacity="1" /><path clip-path="url(#clip280)" d="M3158.64 2048.06 L3158.64 2032.37 L3162.89 2032.37 L3162.89 2047.9 Q3162.89 2051.58 3164.33 2053.43 Q3165.77 2055.26 3168.64 2055.26 Q3172.08 2055.26 3174.08 2053.06 Q3176.09 2050.87 3176.09 2047.07 L3176.09 2032.37 L3180.35 2032.37 L3180.35 2058.3 L3176.09 2058.3 L3176.09 2054.31 Q3174.54 2056.68 3172.48 2057.83 Q3170.44 2058.97 3167.73 2058.97 Q3163.27 2058.97 3160.95 2056.19 Q3158.64 2053.41 3158.64 2048.06 M3169.35 2031.74 L3169.35 2031.74 Z" fill="#000000" fill-rule="nonzero" fill-opacity="1" /><path clip-path="url(#clip280)" d="M3190.21 2052.42 L3195.09 2052.42 L3195.09 2056.4 L3191.3 2063.8 L3188.31 2063.8 L3190.21 2056.4 L3190.21 2052.42 Z" fill="#000000" fill-rule="nonzero" fill-opacity="1" /><path clip-path="url(#clip280)" d="M3239.45 2037.35 Q3241.04 2034.48 3243.26 2033.11 Q3245.49 2031.74 3248.5 2031.74 Q3252.55 2031.74 3254.75 2034.59 Q3256.95 2037.42 3256.95 2042.65 L3256.95 2058.3 L3252.66 2058.3 L3252.66 2042.79 Q3252.66 2039.06 3251.34 2037.25 Q3250.02 2035.45 3247.32 2035.45 Q3244.01 2035.45 3242.08 2037.65 Q3240.16 2039.85 3240.16 2043.64 L3240.16 2058.3 L3235.88 2058.3 L3235.88 2042.79 Q3235.88 2039.04 3234.56 2037.25 Q3233.24 2035.45 3230.49 2035.45 Q3227.22 2035.45 3225.3 2037.67 Q3223.38 2039.87 3223.38 2043.64 L3223.38 2058.3 L3219.1 2058.3 L3219.1 2032.37 L3223.38 2032.37 L3223.38 2036.4 Q3224.84 2034.01 3226.88 2032.88 Q3228.91 2031.74 3231.71 2031.74 Q3234.54 2031.74 3236.51 2033.18 Q3238.5 2034.62 3239.45 2037.35 Z" fill="#000000" fill-rule="nonzero" fill-opacity="1" /><path clip-path="url(#clip280)" d="M3277.22 2045.26 Q3272.06 2045.26 3270.07 2046.44 Q3268.08 2047.62 3268.08 2050.47 Q3268.08 2052.74 3269.56 2054.08 Q3271.07 2055.4 3273.63 2055.4 Q3277.18 2055.4 3279.31 2052.9 Q3281.46 2050.38 3281.46 2046.21 L3281.46 2045.26 L3277.22 2045.26 M3285.72 2043.5 L3285.72 2058.3 L3281.46 2058.3 L3281.46 2054.36 Q3280 2056.72 3277.82 2057.86 Q3275.65 2058.97 3272.5 2058.97 Q3268.52 2058.97 3266.16 2056.74 Q3263.82 2054.5 3263.82 2050.75 Q3263.82 2046.37 3266.74 2044.15 Q3269.68 2041.93 3275.49 2041.93 L3281.46 2041.93 L3281.46 2041.51 Q3281.46 2038.57 3279.51 2036.98 Q3277.59 2035.36 3274.1 2035.36 Q3271.88 2035.36 3269.77 2035.89 Q3267.66 2036.42 3265.72 2037.49 L3265.72 2033.55 Q3268.06 2032.65 3270.26 2032.21 Q3272.45 2031.74 3274.54 2031.74 Q3280.16 2031.74 3282.94 2034.66 Q3285.72 2037.58 3285.72 2043.5 Z" fill="#000000" fill-rule="nonzero" fill-opacity="1" /><path clip-path="url(#clip280)" d="M3311.55 2036.3 L3311.55 2022.28 L3315.81 2022.28 L3315.81 2058.3 L3311.55 2058.3 L3311.55 2054.41 Q3310.21 2056.72 3308.15 2057.86 Q3306.11 2058.97 3303.24 2058.97 Q3298.54 2058.97 3295.58 2055.22 Q3292.64 2051.47 3292.64 2045.36 Q3292.64 2039.24 3295.58 2035.49 Q3298.54 2031.74 3303.24 2031.74 Q3306.11 2031.74 3308.15 2032.88 Q3310.21 2033.99 3311.55 2036.3 M3297.04 2045.36 Q3297.04 2050.05 3298.96 2052.74 Q3300.9 2055.4 3304.28 2055.4 Q3307.66 2055.4 3309.61 2052.74 Q3311.55 2050.05 3311.55 2045.36 Q3311.55 2040.66 3309.61 2037.99 Q3307.66 2035.31 3304.28 2035.31 Q3300.9 2035.31 3298.96 2037.99 Q3297.04 2040.66 3297.04 2045.36 Z" fill="#000000" fill-rule="nonzero" fill-opacity="1" /><path clip-path="url(#clip280)" d="M3346.13 2042.65 L3346.13 2058.3 L3341.88 2058.3 L3341.88 2042.79 Q3341.88 2039.11 3340.44 2037.28 Q3339 2035.45 3336.13 2035.45 Q3332.69 2035.45 3330.69 2037.65 Q3328.7 2039.85 3328.7 2043.64 L3328.7 2058.3 L3324.42 2058.3 L3324.42 2032.37 L3328.7 2032.37 L3328.7 2036.4 Q3330.23 2034.06 3332.29 2032.9 Q3334.38 2031.74 3337.08 2031.74 Q3341.55 2031.74 3343.84 2034.52 Q3346.13 2037.28 3346.13 2042.65 Z" fill="#000000" fill-rule="nonzero" fill-opacity="1" /><path clip-path="url(#clip280)" d="M3354.63 2022.28 L3358.89 2022.28 L3358.89 2058.3 L3354.63 2058.3 L3354.63 2022.28 Z" fill="#000000" fill-rule="nonzero" fill-opacity="1" /><path clip-path="url(#clip280)" d="M3371.92 2054.41 L3371.92 2068.16 L3367.64 2068.16 L3367.64 2032.37 L3371.92 2032.37 L3371.92 2036.3 Q3373.26 2033.99 3375.3 2032.88 Q3377.36 2031.74 3380.21 2031.74 Q3384.93 2031.74 3387.87 2035.49 Q3390.83 2039.24 3390.83 2045.36 Q3390.83 2051.47 3387.87 2055.22 Q3384.93 2058.97 3380.21 2058.97 Q3377.36 2058.97 3375.3 2057.86 Q3373.26 2056.72 3371.92 2054.41 M3386.41 2045.36 Q3386.41 2040.66 3384.47 2037.99 Q3382.55 2035.31 3379.17 2035.31 Q3375.79 2035.31 3373.84 2037.99 Q3371.92 2040.66 3371.92 2045.36 Q3371.92 2050.05 3373.84 2052.74 Q3375.79 2055.4 3379.17 2055.4 Q3382.55 2055.4 3384.47 2052.74 Q3386.41 2050.05 3386.41 2045.36 Z" fill="#000000" fill-rule="nonzero" fill-opacity="1" /><path clip-path="url(#clip280)" d="M3397.22 2022.32 L3400.93 2022.32 Q3404.4 2027.79 3406.11 2033.02 Q3407.85 2038.25 3407.85 2043.41 Q3407.85 2048.6 3406.11 2053.85 Q3404.4 2059.11 3400.93 2064.55 L3397.22 2064.55 Q3400.3 2059.24 3401.81 2054.01 Q3403.33 2048.76 3403.33 2043.41 Q3403.33 2038.06 3401.81 2032.86 Q3400.3 2027.65 3397.22 2022.32 Z" fill="#000000" fill-rule="nonzero" fill-opacity="1" /></svg>
