<?xml version="1.0" encoding="utf-8"?>
<svg xmlns="http://www.w3.org/2000/svg" xmlns:xlink="http://www.w3.org/1999/xlink" width="900" height="600" viewBox="0 0 3600 2400">
<defs>
  <clipPath id="clip820">
    <rect x="0" y="0" width="3600" height="2400"/>
  </clipPath>
</defs>
<path clip-path="url(#clip820)" d="M0 2400 L3600 2400 L3600 0 L0 0  Z" fill="#ffffff" fill-rule="evenodd" fill-opacity="1"/>
<defs>
  <clipPath id="clip821">
    <rect x="304" y="246" width="3249" height="1911"/>
  </clipPath>
</defs>
<path clip-path="url(#clip820)" d="M292.309 2156.51 L3552.76 2156.51 L3552.76 246.944 L292.309 246.944  Z" fill="#ffffff" fill-rule="evenodd" fill-opacity="1"/>
<defs>
  <clipPath id="clip822">
    <rect x="292" y="246" width="3261" height="1911"/>
  </clipPath>
</defs>
<polyline clip-path="url(#clip822)" style="stroke:#000000; stroke-linecap:round; stroke-linejoin:round; stroke-width:2; stroke-opacity:0.1; fill:none" points="865.327,2156.51 865.327,246.944 "/>
<polyline clip-path="url(#clip822)" style="stroke:#000000; stroke-linecap:round; stroke-linejoin:round; stroke-width:2; stroke-opacity:0.1; fill:none" points="1716.2,2156.51 1716.2,246.944 "/>
<polyline clip-path="url(#clip822)" style="stroke:#000000; stroke-linecap:round; stroke-linejoin:round; stroke-width:2; stroke-opacity:0.1; fill:none" points="2567.07,2156.51 2567.07,246.944 "/>
<polyline clip-path="url(#clip822)" style="stroke:#000000; stroke-linecap:round; stroke-linejoin:round; stroke-width:2; stroke-opacity:0.1; fill:none" points="3417.94,2156.51 3417.94,246.944 "/>
<polyline clip-path="url(#clip822)" style="stroke:#000000; stroke-linecap:round; stroke-linejoin:round; stroke-width:2; stroke-opacity:0.1; fill:none" points="292.309,1810.9 3552.76,1810.9 "/>
<polyline clip-path="url(#clip822)" style="stroke:#000000; stroke-linecap:round; stroke-linejoin:round; stroke-width:2; stroke-opacity:0.1; fill:none" points="292.309,1163.94 3552.76,1163.94 "/>
<polyline clip-path="url(#clip822)" style="stroke:#000000; stroke-linecap:round; stroke-linejoin:round; stroke-width:2; stroke-opacity:0.1; fill:none" points="292.309,516.986 3552.76,516.986 "/>
<polyline clip-path="url(#clip820)" style="stroke:#000000; stroke-linecap:round; stroke-linejoin:round; stroke-width:4; stroke-opacity:1; fill:none" points="292.309,2156.51 3552.76,2156.51 "/>
<polyline clip-path="url(#clip820)" style="stroke:#000000; stroke-linecap:round; stroke-linejoin:round; stroke-width:4; stroke-opacity:1; fill:none" points="865.327,2156.51 865.327,2137.61 "/>
<polyline clip-path="url(#clip820)" style="stroke:#000000; stroke-linecap:round; stroke-linejoin:round; stroke-width:4; stroke-opacity:1; fill:none" points="1716.2,2156.51 1716.2,2137.61 "/>
<polyline clip-path="url(#clip820)" style="stroke:#000000; stroke-linecap:round; stroke-linejoin:round; stroke-width:4; stroke-opacity:1; fill:none" points="2567.07,2156.51 2567.07,2137.61 "/>
<polyline clip-path="url(#clip820)" style="stroke:#000000; stroke-linecap:round; stroke-linejoin:round; stroke-width:4; stroke-opacity:1; fill:none" points="3417.94,2156.51 3417.94,2137.61 "/>
<path clip-path="url(#clip820)" d="M829.02 2224.57 L845.339 2224.57 L845.339 2228.51 L823.395 2228.51 L823.395 2224.57 Q826.057 2221.82 830.64 2217.19 Q835.246 2212.54 836.427 2211.19 Q838.672 2208.67 839.552 2206.93 Q840.455 2205.17 840.455 2203.48 Q840.455 2200.73 838.51 2198.99 Q836.589 2197.26 833.487 2197.26 Q831.288 2197.26 828.834 2198.02 Q826.404 2198.79 823.626 2200.34 L823.626 2195.61 Q826.45 2194.48 828.904 2193.9 Q831.358 2193.32 833.395 2193.32 Q838.765 2193.32 841.959 2196.01 Q845.154 2198.69 845.154 2203.18 Q845.154 2205.31 844.344 2207.23 Q843.557 2209.13 841.45 2211.73 Q840.871 2212.4 837.77 2215.61 Q834.668 2218.81 829.02 2224.57 Z" fill="#000000" fill-rule="nonzero" fill-opacity="1" /><path clip-path="url(#clip820)" d="M865.154 2197.03 Q861.543 2197.03 859.714 2200.59 Q857.908 2204.13 857.908 2211.26 Q857.908 2218.37 859.714 2221.93 Q861.543 2225.48 865.154 2225.48 Q868.788 2225.48 870.593 2221.93 Q872.422 2218.37 872.422 2211.26 Q872.422 2204.13 870.593 2200.59 Q868.788 2197.03 865.154 2197.03 M865.154 2193.32 Q870.964 2193.32 874.019 2197.93 Q877.098 2202.51 877.098 2211.26 Q877.098 2219.99 874.019 2224.6 Q870.964 2229.18 865.154 2229.18 Q859.343 2229.18 856.265 2224.6 Q853.209 2219.99 853.209 2211.26 Q853.209 2202.51 856.265 2197.93 Q859.343 2193.32 865.154 2193.32 Z" fill="#000000" fill-rule="nonzero" fill-opacity="1" /><path clip-path="url(#clip820)" d="M895.316 2197.03 Q891.704 2197.03 889.876 2200.59 Q888.07 2204.13 888.07 2211.26 Q888.07 2218.37 889.876 2221.93 Q891.704 2225.48 895.316 2225.48 Q898.95 2225.48 900.755 2221.93 Q902.584 2218.37 902.584 2211.26 Q902.584 2204.13 900.755 2200.59 Q898.95 2197.03 895.316 2197.03 M895.316 2193.32 Q901.126 2193.32 904.181 2197.93 Q907.26 2202.51 907.26 2211.26 Q907.26 2219.99 904.181 2224.6 Q901.126 2229.18 895.316 2229.18 Q889.505 2229.18 886.427 2224.6 Q883.371 2219.99 883.371 2211.26 Q883.371 2202.51 886.427 2197.93 Q889.505 2193.32 895.316 2193.32 Z" fill="#000000" fill-rule="nonzero" fill-opacity="1" /><path clip-path="url(#clip820)" d="M1689.29 2198.02 L1677.48 2216.47 L1689.29 2216.47 L1689.29 2198.02 M1688.06 2193.95 L1693.94 2193.95 L1693.94 2216.47 L1698.87 2216.47 L1698.87 2220.36 L1693.94 2220.36 L1693.94 2228.51 L1689.29 2228.51 L1689.29 2220.36 L1673.69 2220.36 L1673.69 2215.85 L1688.06 2193.95 Z" fill="#000000" fill-rule="nonzero" fill-opacity="1" /><path clip-path="url(#clip820)" d="M1716.6 2197.03 Q1712.99 2197.03 1711.16 2200.59 Q1709.36 2204.13 1709.36 2211.26 Q1709.36 2218.37 1711.16 2221.93 Q1712.99 2225.48 1716.6 2225.48 Q1720.24 2225.48 1722.04 2221.93 Q1723.87 2218.37 1723.87 2211.26 Q1723.87 2204.13 1722.04 2200.59 Q1720.24 2197.03 1716.6 2197.03 M1716.6 2193.32 Q1722.41 2193.32 1725.47 2197.93 Q1728.55 2202.51 1728.55 2211.26 Q1728.55 2219.99 1725.47 2224.6 Q1722.41 2229.18 1716.6 2229.18 Q1710.79 2229.18 1707.71 2224.6 Q1704.66 2219.99 1704.66 2211.26 Q1704.66 2202.51 1707.71 2197.93 Q1710.79 2193.32 1716.6 2193.32 Z" fill="#000000" fill-rule="nonzero" fill-opacity="1" /><path clip-path="url(#clip820)" d="M1746.76 2197.03 Q1743.15 2197.03 1741.32 2200.59 Q1739.52 2204.13 1739.52 2211.26 Q1739.52 2218.37 1741.32 2221.93 Q1743.15 2225.48 1746.76 2225.48 Q1750.4 2225.48 1752.2 2221.93 Q1754.03 2218.37 1754.03 2211.26 Q1754.03 2204.13 1752.2 2200.59 Q1750.4 2197.03 1746.76 2197.03 M1746.76 2193.32 Q1752.57 2193.32 1755.63 2197.93 Q1758.71 2202.51 1758.71 2211.26 Q1758.71 2219.99 1755.63 2224.6 Q1752.57 2229.18 1746.76 2229.18 Q1740.95 2229.18 1737.87 2224.6 Q1734.82 2219.99 1734.82 2211.26 Q1734.82 2202.51 1737.87 2197.93 Q1740.95 2193.32 1746.76 2193.32 Z" fill="#000000" fill-rule="nonzero" fill-opacity="1" /><path clip-path="url(#clip820)" d="M2537.39 2209.36 Q2534.24 2209.36 2532.39 2211.52 Q2530.56 2213.67 2530.56 2217.42 Q2530.56 2221.15 2532.39 2223.32 Q2534.24 2225.48 2537.39 2225.48 Q2540.54 2225.48 2542.37 2223.32 Q2544.22 2221.15 2544.22 2217.42 Q2544.22 2213.67 2542.37 2211.52 Q2540.54 2209.36 2537.39 2209.36 M2546.67 2194.71 L2546.67 2198.97 Q2544.91 2198.14 2543.11 2197.7 Q2541.33 2197.26 2539.57 2197.26 Q2534.94 2197.26 2532.48 2200.38 Q2530.05 2203.51 2529.71 2209.83 Q2531.07 2207.81 2533.13 2206.75 Q2535.19 2205.66 2537.67 2205.66 Q2542.88 2205.66 2545.89 2208.83 Q2548.92 2211.98 2548.92 2217.42 Q2548.92 2222.74 2545.77 2225.96 Q2542.62 2229.18 2537.39 2229.18 Q2531.4 2229.18 2528.22 2224.6 Q2525.05 2219.99 2525.05 2211.26 Q2525.05 2203.07 2528.94 2198.21 Q2532.83 2193.32 2539.38 2193.32 Q2541.14 2193.32 2542.92 2193.67 Q2544.73 2194.02 2546.67 2194.71 Z" fill="#000000" fill-rule="nonzero" fill-opacity="1" /><path clip-path="url(#clip820)" d="M2566.97 2197.03 Q2563.36 2197.03 2561.53 2200.59 Q2559.73 2204.13 2559.73 2211.26 Q2559.73 2218.37 2561.53 2221.93 Q2563.36 2225.48 2566.97 2225.48 Q2570.61 2225.48 2572.41 2221.93 Q2574.24 2218.37 2574.24 2211.26 Q2574.24 2204.13 2572.41 2200.59 Q2570.61 2197.03 2566.97 2197.03 M2566.97 2193.32 Q2572.78 2193.32 2575.84 2197.93 Q2578.92 2202.51 2578.92 2211.26 Q2578.92 2219.99 2575.84 2224.6 Q2572.78 2229.18 2566.97 2229.18 Q2561.16 2229.18 2558.08 2224.6 Q2555.03 2219.99 2555.03 2211.26 Q2555.03 2202.51 2558.08 2197.93 Q2561.16 2193.32 2566.97 2193.32 Z" fill="#000000" fill-rule="nonzero" fill-opacity="1" /><path clip-path="url(#clip820)" d="M2597.14 2197.03 Q2593.52 2197.03 2591.7 2200.59 Q2589.89 2204.13 2589.89 2211.26 Q2589.89 2218.37 2591.7 2221.93 Q2593.52 2225.48 2597.14 2225.48 Q2600.77 2225.48 2602.58 2221.93 Q2604.4 2218.37 2604.4 2211.26 Q2604.4 2204.13 2602.58 2200.59 Q2600.77 2197.03 2597.14 2197.03 M2597.14 2193.32 Q2602.95 2193.32 2606 2197.93 Q2609.08 2202.51 2609.08 2211.26 Q2609.08 2219.99 2606 2224.6 Q2602.95 2229.18 2597.14 2229.18 Q2591.33 2229.18 2588.25 2224.6 Q2585.19 2219.99 2585.19 2211.26 Q2585.19 2202.51 2588.25 2197.93 Q2591.33 2193.32 2597.14 2193.32 Z" fill="#000000" fill-rule="nonzero" fill-opacity="1" /><path clip-path="url(#clip820)" d="M3387.73 2212.1 Q3384.39 2212.1 3382.47 2213.88 Q3380.57 2215.66 3380.57 2218.79 Q3380.57 2221.91 3382.47 2223.69 Q3384.39 2225.48 3387.73 2225.48 Q3391.06 2225.48 3392.98 2223.69 Q3394.9 2221.89 3394.9 2218.79 Q3394.9 2215.66 3392.98 2213.88 Q3391.08 2212.1 3387.73 2212.1 M3383.05 2210.11 Q3380.04 2209.36 3378.35 2207.3 Q3376.69 2205.24 3376.69 2202.28 Q3376.69 2198.14 3379.63 2195.73 Q3382.59 2193.32 3387.73 2193.32 Q3392.89 2193.32 3395.83 2195.73 Q3398.77 2198.14 3398.77 2202.28 Q3398.77 2205.24 3397.08 2207.3 Q3395.41 2209.36 3392.43 2210.11 Q3395.81 2210.89 3397.68 2213.18 Q3399.58 2215.48 3399.58 2218.79 Q3399.58 2223.81 3396.5 2226.49 Q3393.45 2229.18 3387.73 2229.18 Q3382.01 2229.18 3378.93 2226.49 Q3375.88 2223.81 3375.88 2218.79 Q3375.88 2215.48 3377.77 2213.18 Q3379.67 2210.89 3383.05 2210.11 M3381.34 2202.72 Q3381.34 2205.41 3383.01 2206.91 Q3384.7 2208.42 3387.73 2208.42 Q3390.74 2208.42 3392.43 2206.91 Q3394.14 2205.41 3394.14 2202.72 Q3394.14 2200.04 3392.43 2198.53 Q3390.74 2197.03 3387.73 2197.03 Q3384.7 2197.03 3383.01 2198.53 Q3381.34 2200.04 3381.34 2202.72 Z" fill="#000000" fill-rule="nonzero" fill-opacity="1" /><path clip-path="url(#clip820)" d="M3417.89 2197.03 Q3414.28 2197.03 3412.45 2200.59 Q3410.64 2204.13 3410.64 2211.26 Q3410.64 2218.37 3412.45 2221.93 Q3414.28 2225.48 3417.89 2225.48 Q3421.52 2225.48 3423.33 2221.93 Q3425.16 2218.37 3425.16 2211.26 Q3425.16 2204.13 3423.33 2200.59 Q3421.52 2197.03 3417.89 2197.03 M3417.89 2193.32 Q3423.7 2193.32 3426.76 2197.93 Q3429.83 2202.51 3429.83 2211.26 Q3429.83 2219.99 3426.76 2224.6 Q3423.7 2229.18 3417.89 2229.18 Q3412.08 2229.18 3409 2224.6 Q3405.94 2219.99 3405.94 2211.26 Q3405.94 2202.51 3409 2197.93 Q3412.08 2193.32 3417.89 2193.32 Z" fill="#000000" fill-rule="nonzero" fill-opacity="1" /><path clip-path="url(#clip820)" d="M3448.05 2197.03 Q3444.44 2197.03 3442.61 2200.59 Q3440.81 2204.13 3440.81 2211.26 Q3440.81 2218.37 3442.61 2221.93 Q3444.44 2225.48 3448.05 2225.48 Q3451.69 2225.48 3453.49 2221.93 Q3455.32 2218.37 3455.32 2211.26 Q3455.32 2204.13 3453.49 2200.59 Q3451.69 2197.03 3448.05 2197.03 M3448.05 2193.32 Q3453.86 2193.32 3456.92 2197.93 Q3460 2202.51 3460 2211.26 Q3460 2219.99 3456.92 2224.6 Q3453.86 2229.18 3448.05 2229.18 Q3442.24 2229.18 3439.16 2224.6 Q3436.11 2219.99 3436.11 2211.26 Q3436.11 2202.51 3439.16 2197.93 Q3442.24 2193.32 3448.05 2193.32 Z" fill="#000000" fill-rule="nonzero" fill-opacity="1" /><path clip-path="url(#clip820)" d="M1785.77 2270.99 L1791.62 2270.99 L1791.62 2314.19 L1785.77 2314.19 L1785.77 2270.99 Z" fill="#000000" fill-rule="nonzero" fill-opacity="1" /><path clip-path="url(#clip820)" d="M1808.28 2272.58 L1808.28 2281.78 L1819.25 2281.78 L1819.25 2285.92 L1808.28 2285.92 L1808.28 2303.51 Q1808.28 2307.47 1809.35 2308.6 Q1810.45 2309.73 1813.78 2309.73 L1819.25 2309.73 L1819.25 2314.19 L1813.78 2314.19 Q1807.62 2314.19 1805.27 2311.9 Q1802.93 2309.59 1802.93 2303.51 L1802.93 2285.92 L1799.02 2285.92 L1799.02 2281.78 L1802.93 2281.78 L1802.93 2272.58 L1808.28 2272.58 Z" fill="#000000" fill-rule="nonzero" fill-opacity="1" /><path clip-path="url(#clip820)" d="M1853.97 2296.65 L1853.97 2299.26 L1829.49 2299.26 Q1829.84 2304.75 1832.79 2307.65 Q1835.77 2310.51 1841.07 2310.51 Q1844.13 2310.51 1847 2309.76 Q1849.89 2309.01 1852.73 2307.5 L1852.73 2312.54 Q1849.86 2313.75 1846.85 2314.39 Q1843.84 2315.03 1840.75 2315.03 Q1832.99 2315.03 1828.45 2310.51 Q1823.94 2306 1823.94 2298.3 Q1823.94 2290.35 1828.22 2285.69 Q1832.53 2281 1839.82 2281 Q1846.36 2281 1850.15 2285.22 Q1853.97 2289.42 1853.97 2296.65 M1848.65 2295.09 Q1848.59 2290.72 1846.19 2288.12 Q1843.81 2285.51 1839.88 2285.51 Q1835.42 2285.51 1832.73 2288.03 Q1830.07 2290.55 1829.67 2295.12 L1848.65 2295.09 Z" fill="#000000" fill-rule="nonzero" fill-opacity="1" /><path clip-path="url(#clip820)" d="M1881.49 2286.76 Q1880.59 2286.24 1879.52 2286 Q1878.48 2285.74 1877.21 2285.74 Q1872.69 2285.74 1870.26 2288.7 Q1867.86 2291.62 1867.86 2297.12 L1867.86 2314.19 L1862.51 2314.19 L1862.51 2281.78 L1867.86 2281.78 L1867.86 2286.82 Q1869.54 2283.86 1872.23 2282.45 Q1874.92 2281 1878.77 2281 Q1879.32 2281 1879.98 2281.09 Q1880.65 2281.14 1881.46 2281.29 L1881.49 2286.76 Z" fill="#000000" fill-rule="nonzero" fill-opacity="1" /><path clip-path="url(#clip820)" d="M1901.8 2297.9 Q1895.35 2297.9 1892.86 2299.37 Q1890.37 2300.85 1890.37 2304.41 Q1890.37 2307.24 1892.22 2308.92 Q1894.1 2310.57 1897.32 2310.57 Q1901.74 2310.57 1904.4 2307.45 Q1907.1 2304.29 1907.1 2299.08 L1907.1 2297.9 L1901.8 2297.9 M1912.42 2295.7 L1912.42 2314.19 L1907.1 2314.19 L1907.1 2309.27 Q1905.27 2312.22 1902.55 2313.64 Q1899.83 2315.03 1895.9 2315.03 Q1890.92 2315.03 1887.97 2312.25 Q1885.05 2309.44 1885.05 2304.75 Q1885.05 2299.29 1888.69 2296.51 Q1892.37 2293.73 1899.63 2293.73 L1907.1 2293.73 L1907.1 2293.21 Q1907.1 2289.54 1904.67 2287.54 Q1902.26 2285.51 1897.89 2285.51 Q1895.12 2285.51 1892.48 2286.18 Q1889.85 2286.84 1887.42 2288.18 L1887.42 2283.26 Q1890.34 2282.13 1893.09 2281.58 Q1895.84 2281 1898.44 2281 Q1905.48 2281 1908.95 2284.65 Q1912.42 2288.29 1912.42 2295.7 Z" fill="#000000" fill-rule="nonzero" fill-opacity="1" /><path clip-path="url(#clip820)" d="M1928.65 2272.58 L1928.65 2281.78 L1939.62 2281.78 L1939.62 2285.92 L1928.65 2285.92 L1928.65 2303.51 Q1928.65 2307.47 1929.72 2308.6 Q1930.82 2309.73 1934.15 2309.73 L1939.62 2309.73 L1939.62 2314.19 L1934.15 2314.19 Q1927.99 2314.19 1925.64 2311.9 Q1923.3 2309.59 1923.3 2303.51 L1923.3 2285.92 L1919.39 2285.92 L1919.39 2281.78 L1923.3 2281.78 L1923.3 2272.58 L1928.65 2272.58 Z" fill="#000000" fill-rule="nonzero" fill-opacity="1" /><path clip-path="url(#clip820)" d="M1946.62 2281.78 L1951.95 2281.78 L1951.95 2314.19 L1946.62 2314.19 L1946.62 2281.78 M1946.62 2269.16 L1951.95 2269.16 L1951.95 2275.91 L1946.62 2275.91 L1946.62 2269.16 Z" fill="#000000" fill-rule="nonzero" fill-opacity="1" /><path clip-path="url(#clip820)" d="M1975.64 2285.51 Q1971.36 2285.51 1968.87 2288.87 Q1966.38 2292.2 1966.38 2298.01 Q1966.38 2303.83 1968.84 2307.19 Q1971.33 2310.51 1975.64 2310.51 Q1979.9 2310.51 1982.38 2307.16 Q1984.87 2303.8 1984.87 2298.01 Q1984.87 2292.25 1982.38 2288.9 Q1979.9 2285.51 1975.64 2285.51 M1975.64 2281 Q1982.59 2281 1986.55 2285.51 Q1990.52 2290.03 1990.52 2298.01 Q1990.52 2305.97 1986.55 2310.51 Q1982.59 2315.03 1975.64 2315.03 Q1968.67 2315.03 1964.71 2310.51 Q1960.77 2305.97 1960.77 2298.01 Q1960.77 2290.03 1964.71 2285.51 Q1968.67 2281 1975.64 2281 Z" fill="#000000" fill-rule="nonzero" fill-opacity="1" /><path clip-path="url(#clip820)" d="M2026.28 2294.63 L2026.28 2314.19 L2020.96 2314.19 L2020.96 2294.8 Q2020.96 2290.2 2019.16 2287.91 Q2017.37 2285.63 2013.78 2285.63 Q2009.47 2285.63 2006.98 2288.38 Q2004.49 2291.13 2004.49 2295.87 L2004.49 2314.19 L1999.14 2314.19 L1999.14 2281.78 L2004.49 2281.78 L2004.49 2286.82 Q2006.4 2283.89 2008.98 2282.45 Q2011.58 2281 2014.97 2281 Q2020.55 2281 2023.41 2284.47 Q2026.28 2287.91 2026.28 2294.63 Z" fill="#000000" fill-rule="nonzero" fill-opacity="1" /><path clip-path="url(#clip820)" d="M2057.56 2282.74 L2057.56 2287.77 Q2055.3 2286.61 2052.87 2286.03 Q2050.44 2285.46 2047.84 2285.46 Q2043.87 2285.46 2041.88 2286.67 Q2039.91 2287.89 2039.91 2290.32 Q2039.91 2292.17 2041.33 2293.24 Q2042.74 2294.28 2047.03 2295.24 L2048.85 2295.64 Q2054.52 2296.86 2056.89 2299.08 Q2059.29 2301.28 2059.29 2305.25 Q2059.29 2309.76 2055.71 2312.39 Q2052.15 2315.03 2045.9 2315.03 Q2043.29 2315.03 2040.46 2314.51 Q2037.65 2314.01 2034.53 2313 L2034.53 2307.5 Q2037.48 2309.04 2040.34 2309.82 Q2043.21 2310.57 2046.01 2310.57 Q2049.77 2310.57 2051.8 2309.3 Q2053.83 2308 2053.83 2305.65 Q2053.83 2303.48 2052.35 2302.32 Q2050.9 2301.17 2045.95 2300.1 L2044.1 2299.66 Q2039.16 2298.62 2036.96 2296.48 Q2034.76 2294.31 2034.76 2290.55 Q2034.76 2285.98 2038 2283.49 Q2041.24 2281 2047.2 2281 Q2050.15 2281 2052.75 2281.43 Q2055.36 2281.87 2057.56 2282.74 Z" fill="#000000" fill-rule="nonzero" fill-opacity="1" /><polyline clip-path="url(#clip820)" style="stroke:#000000; stroke-linecap:round; stroke-linejoin:round; stroke-width:4; stroke-opacity:1; fill:none" points="292.309,2156.51 292.309,246.944 "/>
<polyline clip-path="url(#clip820)" style="stroke:#000000; stroke-linecap:round; stroke-linejoin:round; stroke-width:4; stroke-opacity:1; fill:none" points="292.309,1810.9 311.207,1810.9 "/>
<polyline clip-path="url(#clip820)" style="stroke:#000000; stroke-linecap:round; stroke-linejoin:round; stroke-width:4; stroke-opacity:1; fill:none" points="292.309,1163.94 311.207,1163.94 "/>
<polyline clip-path="url(#clip820)" style="stroke:#000000; stroke-linecap:round; stroke-linejoin:round; stroke-width:4; stroke-opacity:1; fill:none" points="292.309,516.986 311.207,516.986 "/>
<path clip-path="url(#clip820)" d="M167.604 1830.69 L175.242 1830.69 L175.242 1804.32 L166.932 1805.99 L166.932 1801.73 L175.196 1800.07 L179.872 1800.07 L179.872 1830.69 L187.511 1830.69 L187.511 1834.63 L167.604 1834.63 L167.604 1830.69 Z" fill="#000000" fill-rule="nonzero" fill-opacity="1" /><path clip-path="url(#clip820)" d="M206.955 1803.14 Q203.344 1803.14 201.515 1806.71 Q199.71 1810.25 199.71 1817.38 Q199.71 1824.49 201.515 1828.05 Q203.344 1831.59 206.955 1831.59 Q210.589 1831.59 212.395 1828.05 Q214.224 1824.49 214.224 1817.38 Q214.224 1810.25 212.395 1806.71 Q210.589 1803.14 206.955 1803.14 M206.955 1799.44 Q212.765 1799.44 215.821 1804.05 Q218.9 1808.63 218.9 1817.38 Q218.9 1826.11 215.821 1830.71 Q212.765 1835.3 206.955 1835.3 Q201.145 1835.3 198.066 1830.71 Q195.011 1826.11 195.011 1817.38 Q195.011 1808.63 198.066 1804.05 Q201.145 1799.44 206.955 1799.44 Z" fill="#000000" fill-rule="nonzero" fill-opacity="1" /><path clip-path="url(#clip820)" d="M228.604 1781.64 Q225.67 1781.64 224.185 1784.53 Q222.718 1787.41 222.718 1793.2 Q222.718 1798.98 224.185 1801.87 Q225.67 1804.75 228.604 1804.75 Q231.557 1804.75 233.024 1801.87 Q234.51 1798.98 234.51 1793.2 Q234.51 1787.41 233.024 1784.53 Q231.557 1781.64 228.604 1781.64 M228.604 1778.63 Q233.325 1778.63 235.808 1782.37 Q238.309 1786.09 238.309 1793.2 Q238.309 1800.29 235.808 1804.04 Q233.325 1807.76 228.604 1807.76 Q223.884 1807.76 221.382 1804.04 Q218.9 1800.29 218.9 1793.2 Q218.9 1786.09 221.382 1782.37 Q223.884 1778.63 228.604 1778.63 Z" fill="#000000" fill-rule="nonzero" fill-opacity="1" /><path clip-path="url(#clip820)" d="M170.293 1183.73 L177.932 1183.73 L177.932 1157.37 L169.622 1159.04 L169.622 1154.78 L177.886 1153.11 L182.562 1153.11 L182.562 1183.73 L190.2 1183.73 L190.2 1187.67 L170.293 1187.67 L170.293 1183.73 Z" fill="#000000" fill-rule="nonzero" fill-opacity="1" /><path clip-path="url(#clip820)" d="M209.645 1156.19 Q206.034 1156.19 204.205 1159.75 Q202.399 1163.29 202.399 1170.42 Q202.399 1177.53 204.205 1181.1 Q206.034 1184.64 209.645 1184.64 Q213.279 1184.64 215.085 1181.1 Q216.913 1177.53 216.913 1170.42 Q216.913 1163.29 215.085 1159.75 Q213.279 1156.19 209.645 1156.19 M209.645 1152.48 Q215.455 1152.48 218.51 1157.09 Q221.589 1161.67 221.589 1170.42 Q221.589 1179.15 218.51 1183.76 Q215.455 1188.34 209.645 1188.34 Q203.835 1188.34 200.756 1183.76 Q197.7 1179.15 197.7 1170.42 Q197.7 1161.67 200.756 1157.09 Q203.835 1152.48 209.645 1152.48 Z" fill="#000000" fill-rule="nonzero" fill-opacity="1" /><path clip-path="url(#clip820)" d="M222.135 1157.06 L228.341 1157.06 L228.341 1135.64 L221.589 1136.99 L221.589 1133.53 L228.303 1132.18 L232.103 1132.18 L232.103 1157.06 L238.309 1157.06 L238.309 1160.26 L222.135 1160.26 L222.135 1157.06 Z" fill="#000000" fill-rule="nonzero" fill-opacity="1" /><path clip-path="url(#clip820)" d="M169.183 536.779 L176.822 536.779 L176.822 510.413 L168.512 512.08 L168.512 507.821 L176.776 506.154 L181.452 506.154 L181.452 536.779 L189.091 536.779 L189.091 540.714 L169.183 540.714 L169.183 536.779 Z" fill="#000000" fill-rule="nonzero" fill-opacity="1" /><path clip-path="url(#clip820)" d="M208.535 509.233 Q204.924 509.233 203.095 512.797 Q201.29 516.339 201.29 523.469 Q201.29 530.575 203.095 534.14 Q204.924 537.682 208.535 537.682 Q212.169 537.682 213.975 534.14 Q215.804 530.575 215.804 523.469 Q215.804 516.339 213.975 512.797 Q212.169 509.233 208.535 509.233 M208.535 505.529 Q214.345 505.529 217.401 510.135 Q220.479 514.719 220.479 523.469 Q220.479 532.195 217.401 536.802 Q214.345 541.385 208.535 541.385 Q202.725 541.385 199.646 536.802 Q196.591 532.195 196.591 523.469 Q196.591 514.719 199.646 510.135 Q202.725 505.529 208.535 505.529 Z" fill="#000000" fill-rule="nonzero" fill-opacity="1" /><path clip-path="url(#clip820)" d="M225.05 510.106 L238.309 510.106 L238.309 513.304 L220.479 513.304 L220.479 510.106 Q222.642 507.868 226.366 504.107 Q230.109 500.326 231.068 499.235 Q232.893 497.185 233.607 495.775 Q234.341 494.345 234.341 492.972 Q234.341 490.734 232.761 489.324 Q231.2 487.913 228.68 487.913 Q226.893 487.913 224.899 488.534 Q222.924 489.154 220.668 490.414 L220.668 486.578 Q222.962 485.656 224.956 485.186 Q226.949 484.716 228.604 484.716 Q232.968 484.716 235.563 486.897 Q238.159 489.079 238.159 492.728 Q238.159 494.458 237.5 496.019 Q236.861 497.561 235.15 499.668 Q234.679 500.213 232.159 502.828 Q229.639 505.423 225.05 510.106 Z" fill="#000000" fill-rule="nonzero" fill-opacity="1" /><path clip-path="url(#clip820)" d="M60.0998 1347.25 L66.263 1347.25 Q63.5141 1350.21 62.1542 1353.56 Q60.7943 1356.89 60.7943 1360.65 Q60.7943 1368.06 65.3371 1371.99 Q69.8509 1375.93 78.4157 1375.93 Q86.9515 1375.93 91.4943 1371.99 Q96.0082 1368.06 96.0082 1360.65 Q96.0082 1356.89 94.6482 1353.56 Q93.2883 1350.21 90.5395 1347.25 L96.6448 1347.25 Q98.7281 1350.32 99.7697 1353.77 Q100.811 1357.18 100.811 1361 Q100.811 1370.81 94.8218 1376.45 Q88.8034 1382.09 78.4157 1382.09 Q67.9991 1382.09 62.0095 1376.45 Q55.991 1370.81 55.991 1361 Q55.991 1357.12 57.0327 1353.71 Q58.0454 1350.26 60.0998 1347.25 Z" fill="#000000" fill-rule="nonzero" fill-opacity="1" /><path clip-path="url(#clip820)" d="M61.5755 1332.38 L77.8081 1332.38 L77.8081 1325.03 Q77.8081 1320.95 75.6958 1318.72 Q73.5835 1316.5 69.6773 1316.5 Q65.8 1316.5 63.6878 1318.72 Q61.5755 1320.95 61.5755 1325.03 L61.5755 1332.38 M56.7723 1338.23 L56.7723 1325.03 Q56.7723 1317.77 60.0709 1314.07 Q63.3405 1310.33 69.6773 1310.33 Q76.0719 1310.33 79.3416 1314.07 Q82.6113 1317.77 82.6113 1325.03 L82.6113 1332.38 L99.9723 1332.38 L99.9723 1338.23 L56.7723 1338.23 Z" fill="#000000" fill-rule="nonzero" fill-opacity="1" /><path clip-path="url(#clip820)" d="M56.7723 1303.16 L56.7723 1297.28 L83.0164 1297.28 Q89.9608 1297.28 93.0279 1294.77 Q96.0661 1292.25 96.0661 1286.61 Q96.0661 1280.99 93.0279 1278.48 Q89.9608 1275.96 83.0164 1275.96 L56.7723 1275.96 L56.7723 1270.08 L83.7397 1270.08 Q92.1888 1270.08 96.5001 1274.28 Q100.811 1278.45 100.811 1286.61 Q100.811 1294.8 96.5001 1298.99 Q92.1888 1303.16 83.7397 1303.16 L56.7723 1303.16 Z" fill="#000000" fill-rule="nonzero" fill-opacity="1" /><path clip-path="url(#clip820)" d="M58.3637 1235.25 L67.565 1235.25 L67.565 1224.28 L71.7028 1224.28 L71.7028 1235.25 L89.2953 1235.25 Q93.2594 1235.25 94.3878 1234.18 Q95.5163 1233.08 95.5163 1229.75 L95.5163 1224.28 L99.9723 1224.28 L99.9723 1229.75 Q99.9723 1235.91 97.6864 1238.26 Q95.3716 1240.6 89.2953 1240.6 L71.7028 1240.6 L71.7028 1244.51 L67.565 1244.51 L67.565 1240.6 L58.3637 1240.6 L58.3637 1235.25 Z" fill="#000000" fill-rule="nonzero" fill-opacity="1" /><path clip-path="url(#clip820)" d="M67.565 1217.28 L67.565 1211.95 L99.9723 1211.95 L99.9723 1217.28 L67.565 1217.28 M54.9494 1217.28 L54.9494 1211.95 L61.6912 1211.95 L61.6912 1217.28 L54.9494 1217.28 Z" fill="#000000" fill-rule="nonzero" fill-opacity="1" /><path clip-path="url(#clip820)" d="M73.7861 1175.58 Q70.1981 1173.59 68.491 1170.81 Q66.7838 1168.03 66.7838 1164.27 Q66.7838 1159.21 70.3428 1156.46 Q73.8729 1153.71 80.4122 1153.71 L99.9723 1153.71 L99.9723 1159.06 L80.5858 1159.06 Q75.9273 1159.06 73.6703 1160.71 Q71.4134 1162.36 71.4134 1165.75 Q71.4134 1169.88 74.1622 1172.28 Q76.9111 1174.69 81.6564 1174.69 L99.9723 1174.69 L99.9723 1180.04 L80.5858 1180.04 Q75.8983 1180.04 73.6703 1181.69 Q71.4134 1183.34 71.4134 1186.78 Q71.4134 1190.86 74.1912 1193.26 Q76.94 1195.66 81.6564 1195.66 L99.9723 1195.66 L99.9723 1201.02 L67.565 1201.02 L67.565 1195.66 L72.5997 1195.66 Q69.6194 1193.84 68.2016 1191.29 Q66.7838 1188.75 66.7838 1185.25 Q66.7838 1181.72 68.5778 1179.26 Q70.3717 1176.77 73.7861 1175.58 Z" fill="#000000" fill-rule="nonzero" fill-opacity="1" /><path clip-path="url(#clip820)" d="M82.4377 1115.37 L85.0418 1115.37 L85.0418 1139.85 Q90.5395 1139.5 93.433 1136.55 Q96.2975 1133.57 96.2975 1128.27 Q96.2975 1125.21 95.5452 1122.34 Q94.7929 1119.45 93.2883 1116.61 L98.323 1116.61 Q99.5383 1119.48 100.175 1122.49 Q100.811 1125.5 100.811 1128.59 Q100.811 1136.35 96.2975 1140.89 Q91.7837 1145.4 84.087 1145.4 Q76.1298 1145.4 71.4713 1141.12 Q66.7838 1136.81 66.7838 1129.52 Q66.7838 1122.98 71.0083 1119.19 Q75.2039 1115.37 82.4377 1115.37 M80.8752 1120.69 Q76.506 1120.75 73.9018 1123.15 Q71.2977 1125.53 71.2977 1129.46 Q71.2977 1133.92 73.815 1136.61 Q76.3324 1139.27 80.9041 1139.67 L80.8752 1120.69 Z" fill="#000000" fill-rule="nonzero" fill-opacity="1" /><path clip-path="url(#clip820)" d="M55.0072 1075.01 Q61.6623 1078.88 68.1727 1080.76 Q74.6831 1082.64 81.3671 1082.64 Q88.0511 1082.64 94.6193 1080.76 Q101.159 1078.85 107.785 1075.01 L107.785 1079.63 Q100.985 1083.97 94.4168 1086.15 Q87.8485 1088.29 81.3671 1088.29 Q74.9145 1088.29 68.3752 1086.15 Q61.8359 1084 55.0072 1079.63 L55.0072 1075.01 Z" fill="#000000" fill-rule="nonzero" fill-opacity="1" /><path clip-path="url(#clip820)" d="M68.5199 1044.02 L73.5546 1044.02 Q72.3972 1046.27 71.8185 1048.7 Q71.2398 1051.13 71.2398 1053.74 Q71.2398 1057.7 72.4551 1059.7 Q73.6703 1061.67 76.1009 1061.67 Q77.9527 1061.67 79.0233 1060.25 Q80.065 1058.83 81.0198 1054.55 L81.4249 1052.73 Q82.6402 1047.05 84.8682 1044.68 Q87.0673 1042.28 91.0314 1042.28 Q95.5452 1042.28 98.1783 1045.87 Q100.811 1049.43 100.811 1055.68 Q100.811 1058.28 100.291 1061.12 Q99.7987 1063.92 98.7859 1067.05 L93.2883 1067.05 Q94.8218 1064.1 95.6031 1061.23 Q96.3554 1058.37 96.3554 1055.56 Q96.3554 1051.8 95.0823 1049.77 Q93.7802 1047.75 91.4364 1047.75 Q89.2663 1047.75 88.1089 1049.22 Q86.9515 1050.67 85.8809 1055.62 L85.4469 1057.47 Q84.4052 1062.42 82.264 1064.62 Q80.0939 1066.82 76.3324 1066.82 Q71.7606 1066.82 69.2722 1063.58 Q66.7838 1060.33 66.7838 1054.37 Q66.7838 1051.42 67.2178 1048.82 Q67.6519 1046.21 68.5199 1044.02 Z" fill="#000000" fill-rule="nonzero" fill-opacity="1" /><path clip-path="url(#clip820)" d="M55.0072 1034.64 L55.0072 1030.01 Q61.8359 1025.67 68.3752 1023.53 Q74.9145 1021.36 81.3671 1021.36 Q87.8485 1021.36 94.4168 1023.53 Q100.985 1025.67 107.785 1030.01 L107.785 1034.64 Q101.159 1030.79 94.6193 1028.91 Q88.0511 1027 81.3671 1027 Q74.6831 1027 68.1727 1028.91 Q61.6623 1030.79 55.0072 1034.64 Z" fill="#000000" fill-rule="nonzero" fill-opacity="1" /><path clip-path="url(#clip820)" d="M1196.81 123.984 L1205 123.984 L1205 184.464 L1196.81 184.464 L1196.81 123.984 Z" fill="#000000" fill-rule="nonzero" fill-opacity="1" /><path clip-path="url(#clip820)" d="M1228.33 126.212 L1228.33 139.094 L1243.68 139.094 L1243.68 144.887 L1228.33 144.887 L1228.33 169.516 Q1228.33 175.066 1229.83 176.646 Q1231.37 178.226 1236.03 178.226 L1243.68 178.226 L1243.68 184.464 L1236.03 184.464 Q1227.4 184.464 1224.12 181.264 Q1220.83 178.023 1220.83 169.516 L1220.83 144.887 L1215.37 144.887 L1215.37 139.094 L1220.83 139.094 L1220.83 126.212 L1228.33 126.212 Z" fill="#000000" fill-rule="nonzero" fill-opacity="1" /><path clip-path="url(#clip820)" d="M1292.29 159.916 L1292.29 163.561 L1258.02 163.561 Q1258.51 171.258 1262.64 175.309 Q1266.81 179.319 1274.23 179.319 Q1278.52 179.319 1282.53 178.266 Q1286.58 177.213 1290.55 175.106 L1290.55 182.155 Q1286.54 183.856 1282.33 184.748 Q1278.11 185.639 1273.78 185.639 Q1262.92 185.639 1256.56 179.319 Q1250.24 173 1250.24 162.225 Q1250.24 151.085 1256.24 144.563 Q1262.28 138 1272.48 138 Q1281.64 138 1286.95 143.914 Q1292.29 149.788 1292.29 159.916 M1284.84 157.728 Q1284.76 151.611 1281.4 147.965 Q1278.07 144.32 1272.56 144.32 Q1266.33 144.32 1262.56 147.844 Q1258.83 151.368 1258.27 157.769 L1284.84 157.728 Z" fill="#000000" fill-rule="nonzero" fill-opacity="1" /><path clip-path="url(#clip820)" d="M1330.82 146.061 Q1329.56 145.332 1328.06 145.008 Q1326.6 144.644 1324.82 144.644 Q1318.5 144.644 1315.1 148.776 Q1311.74 152.867 1311.74 160.564 L1311.74 184.464 L1304.24 184.464 L1304.24 139.094 L1311.74 139.094 L1311.74 146.142 Q1314.09 142.011 1317.85 140.026 Q1321.62 138 1327.01 138 Q1327.78 138 1328.71 138.122 Q1329.64 138.203 1330.78 138.405 L1330.82 146.061 Z" fill="#000000" fill-rule="nonzero" fill-opacity="1" /><path clip-path="url(#clip820)" d="M1359.25 161.657 Q1350.22 161.657 1346.74 163.723 Q1343.25 165.789 1343.25 170.772 Q1343.25 174.742 1345.85 177.091 Q1348.48 179.4 1352.98 179.4 Q1359.17 179.4 1362.9 175.025 Q1366.67 170.61 1366.67 163.318 L1366.67 161.657 L1359.25 161.657 M1374.12 158.579 L1374.12 184.464 L1366.67 184.464 L1366.67 177.577 Q1364.12 181.709 1360.31 183.694 Q1356.5 185.639 1350.99 185.639 Q1344.02 185.639 1339.89 181.75 Q1335.8 177.821 1335.8 171.258 Q1335.8 163.602 1340.9 159.713 Q1346.05 155.824 1356.22 155.824 L1366.67 155.824 L1366.67 155.095 Q1366.67 149.95 1363.26 147.155 Q1359.9 144.32 1353.79 144.32 Q1349.9 144.32 1346.21 145.251 Q1342.52 146.183 1339.12 148.046 L1339.12 141.16 Q1343.21 139.58 1347.06 138.81 Q1350.91 138 1354.56 138 Q1364.4 138 1369.26 143.104 Q1374.12 148.208 1374.12 158.579 Z" fill="#000000" fill-rule="nonzero" fill-opacity="1" /><path clip-path="url(#clip820)" d="M1396.85 126.212 L1396.85 139.094 L1412.2 139.094 L1412.2 144.887 L1396.85 144.887 L1396.85 169.516 Q1396.85 175.066 1398.35 176.646 Q1399.88 178.226 1404.54 178.226 L1412.2 178.226 L1412.2 184.464 L1404.54 184.464 Q1395.92 184.464 1392.63 181.264 Q1389.35 178.023 1389.35 169.516 L1389.35 144.887 L1383.88 144.887 L1383.88 139.094 L1389.35 139.094 L1389.35 126.212 L1396.85 126.212 Z" fill="#000000" fill-rule="nonzero" fill-opacity="1" /><path clip-path="url(#clip820)" d="M1422 139.094 L1429.46 139.094 L1429.46 184.464 L1422 184.464 L1422 139.094 M1422 121.432 L1429.46 121.432 L1429.46 130.871 L1422 130.871 L1422 121.432 Z" fill="#000000" fill-rule="nonzero" fill-opacity="1" /><path clip-path="url(#clip820)" d="M1462.63 144.32 Q1456.64 144.32 1453.15 149.019 Q1449.67 153.677 1449.67 161.819 Q1449.67 169.962 1453.11 174.661 Q1456.6 179.319 1462.63 179.319 Q1468.59 179.319 1472.07 174.62 Q1475.56 169.921 1475.56 161.819 Q1475.56 153.758 1472.07 149.059 Q1468.59 144.32 1462.63 144.32 M1462.63 138 Q1472.36 138 1477.91 144.32 Q1483.46 150.639 1483.46 161.819 Q1483.46 172.959 1477.91 179.319 Q1472.36 185.639 1462.63 185.639 Q1452.87 185.639 1447.32 179.319 Q1441.81 172.959 1441.81 161.819 Q1441.81 150.639 1447.32 144.32 Q1452.87 138 1462.63 138 Z" fill="#000000" fill-rule="nonzero" fill-opacity="1" /><path clip-path="url(#clip820)" d="M1533.52 157.08 L1533.52 184.464 L1526.07 184.464 L1526.07 157.323 Q1526.07 150.882 1523.56 147.682 Q1521.05 144.482 1516.02 144.482 Q1509.99 144.482 1506.5 148.33 Q1503.02 152.178 1503.02 158.822 L1503.02 184.464 L1495.53 184.464 L1495.53 139.094 L1503.02 139.094 L1503.02 146.142 Q1505.69 142.051 1509.3 140.026 Q1512.95 138 1517.69 138 Q1525.5 138 1529.51 142.861 Q1533.52 147.682 1533.52 157.08 Z" fill="#000000" fill-rule="nonzero" fill-opacity="1" /><path clip-path="url(#clip820)" d="M1577.31 140.431 L1577.31 147.479 Q1574.15 145.859 1570.75 145.049 Q1567.35 144.239 1563.7 144.239 Q1558.15 144.239 1555.36 145.94 Q1552.6 147.641 1552.6 151.044 Q1552.6 153.637 1554.59 155.135 Q1556.57 156.594 1562.57 157.931 L1565.12 158.498 Q1573.06 160.199 1576.38 163.318 Q1579.75 166.397 1579.75 171.947 Q1579.75 178.266 1574.72 181.952 Q1569.74 185.639 1560.99 185.639 Q1557.34 185.639 1553.37 184.91 Q1549.44 184.221 1545.07 182.803 L1545.07 175.106 Q1549.2 177.253 1553.21 178.347 Q1557.22 179.4 1561.15 179.4 Q1566.42 179.4 1569.25 177.618 Q1572.09 175.795 1572.09 172.514 Q1572.09 169.476 1570.02 167.855 Q1568 166.235 1561.07 164.736 L1558.48 164.128 Q1551.55 162.67 1548.47 159.672 Q1545.39 156.634 1545.39 151.368 Q1545.39 144.968 1549.93 141.484 Q1554.47 138 1562.81 138 Q1566.94 138 1570.59 138.608 Q1574.24 139.215 1577.31 140.431 Z" fill="#000000" fill-rule="nonzero" fill-opacity="1" /><path clip-path="url(#clip820)" d="M1612.64 139.094 L1620.54 139.094 L1634.72 177.172 L1648.89 139.094 L1656.79 139.094 L1639.78 184.464 L1629.65 184.464 L1612.64 139.094 Z" fill="#000000" fill-rule="nonzero" fill-opacity="1" /><path clip-path="url(#clip820)" d="M1696.01 140.431 L1696.01 147.479 Q1692.85 145.859 1689.44 145.049 Q1686.04 144.239 1682.39 144.239 Q1676.85 144.239 1674.05 145.94 Q1671.3 147.641 1671.3 151.044 Q1671.3 153.637 1673.28 155.135 Q1675.27 156.594 1681.26 157.931 L1683.81 158.498 Q1691.75 160.199 1695.07 163.318 Q1698.44 166.397 1698.44 171.947 Q1698.44 178.266 1693.41 181.952 Q1688.43 185.639 1679.68 185.639 Q1676.04 185.639 1672.07 184.91 Q1668.14 184.221 1663.76 182.803 L1663.76 175.106 Q1667.89 177.253 1671.9 178.347 Q1675.91 179.4 1679.84 179.4 Q1685.11 179.4 1687.94 177.618 Q1690.78 175.795 1690.78 172.514 Q1690.78 169.476 1688.71 167.855 Q1686.69 166.235 1679.76 164.736 L1677.17 164.128 Q1670.24 162.67 1667.16 159.672 Q1664.08 156.634 1664.08 151.368 Q1664.08 144.968 1668.62 141.484 Q1673.16 138 1681.5 138 Q1685.64 138 1689.28 138.608 Q1692.93 139.215 1696.01 140.431 Z" fill="#000000" fill-rule="nonzero" fill-opacity="1" /><path clip-path="url(#clip820)" d="M1782.29 128.643 L1782.29 137.271 Q1778.16 133.423 1773.46 131.519 Q1768.8 129.615 1763.53 129.615 Q1753.16 129.615 1747.66 135.975 Q1742.15 142.294 1742.15 154.285 Q1742.15 166.235 1747.66 172.595 Q1753.16 178.914 1763.53 178.914 Q1768.8 178.914 1773.46 177.01 Q1778.16 175.106 1782.29 171.258 L1782.29 179.805 Q1778 182.722 1773.18 184.18 Q1768.4 185.639 1763.05 185.639 Q1749.32 185.639 1741.42 177.253 Q1733.52 168.828 1733.52 154.285 Q1733.52 139.702 1741.42 131.316 Q1749.32 122.89 1763.05 122.89 Q1768.48 122.89 1773.26 124.349 Q1778.08 125.766 1782.29 128.643 Z" fill="#000000" fill-rule="nonzero" fill-opacity="1" /><path clip-path="url(#clip820)" d="M1803.11 130.709 L1803.11 153.434 L1813.4 153.434 Q1819.11 153.434 1822.23 150.477 Q1825.35 147.52 1825.35 142.051 Q1825.35 136.623 1822.23 133.666 Q1819.11 130.709 1813.4 130.709 L1803.11 130.709 M1794.93 123.984 L1813.4 123.984 Q1823.57 123.984 1828.75 128.602 Q1833.98 133.18 1833.98 142.051 Q1833.98 151.004 1828.75 155.581 Q1823.57 160.159 1813.4 160.159 L1803.11 160.159 L1803.11 184.464 L1794.93 184.464 L1794.93 123.984 Z" fill="#000000" fill-rule="nonzero" fill-opacity="1" /><path clip-path="url(#clip820)" d="M1844.03 123.984 L1852.25 123.984 L1852.25 160.726 Q1852.25 170.448 1855.77 174.742 Q1859.3 178.995 1867.2 178.995 Q1875.06 178.995 1878.58 174.742 Q1882.1 170.448 1882.1 160.726 L1882.1 123.984 L1890.33 123.984 L1890.33 161.738 Q1890.33 173.567 1884.45 179.603 Q1878.62 185.639 1867.2 185.639 Q1855.73 185.639 1849.86 179.603 Q1844.03 173.567 1844.03 161.738 L1844.03 123.984 Z" fill="#000000" fill-rule="nonzero" fill-opacity="1" /><path clip-path="url(#clip820)" d="M1939.1 126.212 L1939.1 139.094 L1954.45 139.094 L1954.45 144.887 L1939.1 144.887 L1939.1 169.516 Q1939.1 175.066 1940.6 176.646 Q1942.14 178.226 1946.8 178.226 L1954.45 178.226 L1954.45 184.464 L1946.8 184.464 Q1938.17 184.464 1934.89 181.264 Q1931.61 178.023 1931.61 169.516 L1931.61 144.887 L1926.14 144.887 L1926.14 139.094 L1931.61 139.094 L1931.61 126.212 L1939.1 126.212 Z" fill="#000000" fill-rule="nonzero" fill-opacity="1" /><path clip-path="url(#clip820)" d="M1964.26 139.094 L1971.71 139.094 L1971.71 184.464 L1964.26 184.464 L1964.26 139.094 M1964.26 121.432 L1971.71 121.432 L1971.71 130.871 L1964.26 130.871 L1964.26 121.432 Z" fill="#000000" fill-rule="nonzero" fill-opacity="1" /><path clip-path="url(#clip820)" d="M2022.63 147.803 Q2025.43 142.78 2029.31 140.39 Q2033.2 138 2038.47 138 Q2045.56 138 2049.41 142.983 Q2053.26 147.925 2053.26 157.08 L2053.26 184.464 L2045.76 184.464 L2045.76 157.323 Q2045.76 150.801 2043.45 147.641 Q2041.14 144.482 2036.4 144.482 Q2030.61 144.482 2027.25 148.33 Q2023.89 152.178 2023.89 158.822 L2023.89 184.464 L2016.39 184.464 L2016.39 157.323 Q2016.39 150.76 2014.08 147.641 Q2011.77 144.482 2006.95 144.482 Q2001.24 144.482 1997.88 148.37 Q1994.52 152.219 1994.52 158.822 L1994.52 184.464 L1987.02 184.464 L1987.02 139.094 L1994.52 139.094 L1994.52 146.142 Q1997.07 141.97 2000.63 139.985 Q2004.2 138 2009.1 138 Q2014.04 138 2017.49 140.512 Q2020.97 143.023 2022.63 147.803 Z" fill="#000000" fill-rule="nonzero" fill-opacity="1" /><path clip-path="url(#clip820)" d="M2106.93 159.916 L2106.93 163.561 L2072.66 163.561 Q2073.15 171.258 2077.28 175.309 Q2081.45 179.319 2088.86 179.319 Q2093.16 179.319 2097.17 178.266 Q2101.22 177.213 2105.19 175.106 L2105.19 182.155 Q2101.18 183.856 2096.96 184.748 Q2092.75 185.639 2088.42 185.639 Q2077.56 185.639 2071.2 179.319 Q2064.88 173 2064.88 162.225 Q2064.88 151.085 2070.88 144.563 Q2076.91 138 2087.12 138 Q2096.28 138 2101.58 143.914 Q2106.93 149.788 2106.93 159.916 M2099.48 157.728 Q2099.4 151.611 2096.03 147.965 Q2092.71 144.32 2087.2 144.32 Q2080.96 144.32 2077.2 147.844 Q2073.47 151.368 2072.9 157.769 L2099.48 157.728 Z" fill="#000000" fill-rule="nonzero" fill-opacity="1" /><path clip-path="url(#clip820)" d="M2141.77 158.822 L2216.63 158.822 L2216.63 164.655 L2141.77 164.655 L2141.77 158.822 Z" fill="#000000" fill-rule="nonzero" fill-opacity="1" /><path clip-path="url(#clip820)" d="M2254.87 139.094 L2262.32 139.094 L2262.32 184.464 L2254.87 184.464 L2254.87 139.094 M2254.87 121.432 L2262.32 121.432 L2262.32 130.871 L2254.87 130.871 L2254.87 121.432 Z" fill="#000000" fill-rule="nonzero" fill-opacity="1" /><path clip-path="url(#clip820)" d="M2315.63 157.08 L2315.63 184.464 L2308.18 184.464 L2308.18 157.323 Q2308.18 150.882 2305.67 147.682 Q2303.16 144.482 2298.13 144.482 Q2292.1 144.482 2288.61 148.33 Q2285.13 152.178 2285.13 158.822 L2285.13 184.464 L2277.63 184.464 L2277.63 139.094 L2285.13 139.094 L2285.13 146.142 Q2287.8 142.051 2291.41 140.026 Q2295.05 138 2299.79 138 Q2307.61 138 2311.62 142.861 Q2315.63 147.682 2315.63 157.08 Z" fill="#000000" fill-rule="nonzero" fill-opacity="1" /><path clip-path="url(#clip820)" d="M2359.42 140.431 L2359.42 147.479 Q2356.26 145.859 2352.86 145.049 Q2349.46 144.239 2345.81 144.239 Q2340.26 144.239 2337.47 145.94 Q2334.71 147.641 2334.71 151.044 Q2334.71 153.637 2336.7 155.135 Q2338.68 156.594 2344.68 157.931 L2347.23 158.498 Q2355.17 160.199 2358.49 163.318 Q2361.85 166.397 2361.85 171.947 Q2361.85 178.266 2356.83 181.952 Q2351.85 185.639 2343.1 185.639 Q2339.45 185.639 2335.48 184.91 Q2331.55 184.221 2327.18 182.803 L2327.18 175.106 Q2331.31 177.253 2335.32 178.347 Q2339.33 179.4 2343.26 179.4 Q2348.53 179.4 2351.36 177.618 Q2354.2 175.795 2354.2 172.514 Q2354.2 169.476 2352.13 167.855 Q2350.11 166.235 2343.18 164.736 L2340.59 164.128 Q2333.66 162.67 2330.58 159.672 Q2327.5 156.634 2327.5 151.368 Q2327.5 144.968 2332.04 141.484 Q2336.58 138 2344.92 138 Q2349.05 138 2352.7 138.608 Q2356.34 139.215 2359.42 140.431 Z" fill="#000000" fill-rule="nonzero" fill-opacity="1" /><path clip-path="url(#clip820)" d="M2372.95 166.559 L2372.95 139.094 L2380.41 139.094 L2380.41 166.275 Q2380.41 172.716 2382.92 175.957 Q2385.43 179.157 2390.45 179.157 Q2396.49 179.157 2399.97 175.309 Q2403.5 171.461 2403.5 164.817 L2403.5 139.094 L2410.95 139.094 L2410.95 184.464 L2403.5 184.464 L2403.5 177.496 Q2400.78 181.628 2397.18 183.654 Q2393.61 185.639 2388.87 185.639 Q2381.05 185.639 2377 180.778 Q2372.95 175.917 2372.95 166.559 M2391.71 138 L2391.71 138 Z" fill="#000000" fill-rule="nonzero" fill-opacity="1" /><path clip-path="url(#clip820)" d="M2452.59 146.061 Q2451.34 145.332 2449.84 145.008 Q2448.38 144.644 2446.6 144.644 Q2440.28 144.644 2436.88 148.776 Q2433.51 152.867 2433.51 160.564 L2433.51 184.464 L2426.02 184.464 L2426.02 139.094 L2433.51 139.094 L2433.51 146.142 Q2435.86 142.011 2439.63 140.026 Q2443.4 138 2448.79 138 Q2449.56 138 2450.49 138.122 Q2451.42 138.203 2452.55 138.405 L2452.59 146.061 Z" fill="#000000" fill-rule="nonzero" fill-opacity="1" /><path clip-path="url(#clip820)" d="M2481.03 161.657 Q2472 161.657 2468.51 163.723 Q2465.03 165.789 2465.03 170.772 Q2465.03 174.742 2467.62 177.091 Q2470.26 179.4 2474.75 179.4 Q2480.95 179.4 2484.68 175.025 Q2488.44 170.61 2488.44 163.318 L2488.44 161.657 L2481.03 161.657 M2495.9 158.579 L2495.9 184.464 L2488.44 184.464 L2488.44 177.577 Q2485.89 181.709 2482.08 183.694 Q2478.28 185.639 2472.77 185.639 Q2465.8 185.639 2461.67 181.75 Q2457.58 177.821 2457.58 171.258 Q2457.58 163.602 2462.68 159.713 Q2467.82 155.824 2477.99 155.824 L2488.44 155.824 L2488.44 155.095 Q2488.44 149.95 2485.04 147.155 Q2481.68 144.32 2475.56 144.32 Q2471.67 144.32 2467.99 145.251 Q2464.3 146.183 2460.9 148.046 L2460.9 141.16 Q2464.99 139.58 2468.84 138.81 Q2472.69 138 2476.33 138 Q2486.18 138 2491.04 143.104 Q2495.9 148.208 2495.9 158.579 Z" fill="#000000" fill-rule="nonzero" fill-opacity="1" /><path clip-path="url(#clip820)" d="M2548.96 157.08 L2548.96 184.464 L2541.51 184.464 L2541.51 157.323 Q2541.51 150.882 2539 147.682 Q2536.49 144.482 2531.46 144.482 Q2525.43 144.482 2521.94 148.33 Q2518.46 152.178 2518.46 158.822 L2518.46 184.464 L2510.97 184.464 L2510.97 139.094 L2518.46 139.094 L2518.46 146.142 Q2521.13 142.051 2524.74 140.026 Q2528.39 138 2533.13 138 Q2540.94 138 2544.95 142.861 Q2548.96 147.682 2548.96 157.08 Z" fill="#000000" fill-rule="nonzero" fill-opacity="1" /><path clip-path="url(#clip820)" d="M2596.48 140.836 L2596.48 147.803 Q2593.32 146.061 2590.12 145.211 Q2586.96 144.32 2583.72 144.32 Q2576.47 144.32 2572.46 148.938 Q2568.45 153.515 2568.45 161.819 Q2568.45 170.124 2572.46 174.742 Q2576.47 179.319 2583.72 179.319 Q2586.96 179.319 2590.12 178.469 Q2593.32 177.577 2596.48 175.836 L2596.48 182.722 Q2593.36 184.18 2590 184.91 Q2586.68 185.639 2582.91 185.639 Q2572.66 185.639 2566.63 179.198 Q2560.59 172.757 2560.59 161.819 Q2560.59 150.72 2566.67 144.36 Q2572.78 138 2583.4 138 Q2586.84 138 2590.12 138.729 Q2593.4 139.418 2596.48 140.836 Z" fill="#000000" fill-rule="nonzero" fill-opacity="1" /><path clip-path="url(#clip820)" d="M2648.25 159.916 L2648.25 163.561 L2613.98 163.561 Q2614.47 171.258 2618.6 175.309 Q2622.77 179.319 2630.19 179.319 Q2634.48 179.319 2638.49 178.266 Q2642.54 177.213 2646.51 175.106 L2646.51 182.155 Q2642.5 183.856 2638.29 184.748 Q2634.07 185.639 2629.74 185.639 Q2618.88 185.639 2612.52 179.319 Q2606.2 173 2606.2 162.225 Q2606.2 151.085 2612.2 144.563 Q2618.23 138 2628.44 138 Q2637.6 138 2642.9 143.914 Q2648.25 149.788 2648.25 159.916 M2640.8 157.728 Q2640.72 151.611 2637.36 147.965 Q2634.03 144.32 2628.52 144.32 Q2622.29 144.32 2618.52 147.844 Q2614.79 151.368 2614.22 157.769 L2640.8 157.728 Z" fill="#000000" fill-rule="nonzero" fill-opacity="1" /><path clip-path="url(#clip822)" d="M425.603 2001.37 L377.603 2001.37 L401.603 2049.37 L425.603 2001.37 Z" fill="#9370db" fill-rule="evenodd" fill-opacity="1" stroke="none"/>
<path clip-path="url(#clip822)" d="M417.095 1793.25 L369.095 1793.25 L393.095 1841.25 L417.095 1793.25 Z" fill="#9370db" fill-rule="evenodd" fill-opacity="1" stroke="none"/>
<path clip-path="url(#clip822)" d="M676.61 1403.78 L628.61 1403.78 L652.61 1451.78 L676.61 1403.78 Z" fill="#9370db" fill-rule="evenodd" fill-opacity="1" stroke="none"/>
<path clip-path="url(#clip822)" d="M885.073 1093.35 L837.073 1093.35 L861.073 1141.35 L885.073 1093.35 Z" fill="#9370db" fill-rule="evenodd" fill-opacity="1" stroke="none"/>
<path clip-path="url(#clip822)" d="M1689.14 576.565 L1641.14 576.565 L1665.14 624.565 L1689.14 576.565 Z" fill="#9370db" fill-rule="evenodd" fill-opacity="1" stroke="none"/>
<circle clip-path="url(#clip822)" cx="397.349" cy="1935.09" r="21.6" fill="#4682b4" fill-rule="evenodd" fill-opacity="1" stroke="none"/>
<circle clip-path="url(#clip822)" cx="384.586" cy="1698.83" r="21.6" fill="#4682b4" fill-rule="evenodd" fill-opacity="1" stroke="none"/>
<circle clip-path="url(#clip822)" cx="610.066" cy="1334.05" r="21.6" fill="#4682b4" fill-rule="evenodd" fill-opacity="1" stroke="none"/>
<circle clip-path="url(#clip822)" cx="835.547" cy="932.704" r="21.6" fill="#4682b4" fill-rule="evenodd" fill-opacity="1" stroke="none"/>
<circle clip-path="url(#clip822)" cx="1503.48" cy="486.543" r="21.6" fill="#4682b4" fill-rule="evenodd" fill-opacity="1" stroke="none"/>
<path clip-path="url(#clip822)" d="M373.349 2078.46 L373.349 2126.46 L421.349 2126.46 L421.349 2078.46 L373.349 2078.46 Z" fill="#ff6347" fill-rule="evenodd" fill-opacity="1" stroke="none"/>
<path clip-path="url(#clip822)" d="M403.129 1821.55 L403.129 1869.55 L451.129 1869.55 L451.129 1821.55 L403.129 1821.55 Z" fill="#ff6347" fill-rule="evenodd" fill-opacity="1" stroke="none"/>
<path clip-path="url(#clip822)" d="M624.356 1459.73 L624.356 1507.73 L672.356 1507.73 L672.356 1459.73 L624.356 1459.73 Z" fill="#ff6347" fill-rule="evenodd" fill-opacity="1" stroke="none"/>
<path clip-path="url(#clip822)" d="M939.177 1127.66 L939.177 1175.66 L987.177 1175.66 L987.177 1127.66 L939.177 1127.66 Z" fill="#ff6347" fill-rule="evenodd" fill-opacity="1" stroke="none"/>
<path clip-path="url(#clip822)" d="M1522.02 672.281 L1522.02 720.281 L1570.02 720.281 L1570.02 672.281 L1522.02 672.281 Z" fill="#ff6347" fill-rule="evenodd" fill-opacity="1" stroke="none"/>
<path clip-path="url(#clip822)" d="M524.979 1948.72 L519.339 1964.94 L502.155 1965.3 L515.859 1975.69 L510.867 1992.13 L524.979 1982.32 L539.091 1992.13 L534.099 1975.69 L547.803 1965.3 L530.619 1964.94 L524.979 1948.72 Z" fill="#a0522d" fill-rule="evenodd" fill-opacity="1" stroke="none"/>
<path clip-path="url(#clip822)" d="M1095.06 1439.62 L1089.42 1455.85 L1072.24 1456.21 L1085.94 1466.6 L1080.95 1483.04 L1095.06 1473.22 L1109.17 1483.04 L1104.18 1466.6 L1117.89 1456.21 L1100.7 1455.85 L1095.06 1439.62 Z" fill="#a0522d" fill-rule="evenodd" fill-opacity="1" stroke="none"/>
<path clip-path="url(#clip822)" d="M2116.11 1063.42 L2110.47 1079.65 L2093.28 1080.01 L2106.99 1090.4 L2101.99 1106.84 L2116.11 1097.02 L2130.22 1106.84 L2125.23 1090.4 L2138.93 1080.01 L2121.75 1079.65 L2116.11 1063.42 Z" fill="#a0522d" fill-rule="evenodd" fill-opacity="1" stroke="none"/>
<path clip-path="url(#clip822)" d="M741.951 1075.04 L736.311 1091.27 L719.127 1091.63 L732.831 1102.02 L727.839 1118.46 L741.951 1108.64 L756.063 1118.46 L751.071 1102.02 L764.775 1091.63 L747.591 1091.27 L741.951 1075.04 Z" fill="#a0522d" fill-rule="evenodd" fill-opacity="1" stroke="none"/>
<path clip-path="url(#clip822)" d="M3460.48 407.963 L3454.84 424.187 L3437.66 424.547 L3451.36 434.939 L3446.37 451.379 L3460.48 441.563 L3474.59 451.379 L3469.6 434.939 L3483.3 424.547 L3466.12 424.187 L3460.48 407.963 Z" fill="#a0522d" fill-rule="evenodd" fill-opacity="1" stroke="none"/>
<path clip-path="url(#clip822)" d="M524.979 1795.07 L500.979 1819.07 L524.979 1843.07 L548.979 1819.07 L524.979 1795.07 Z" fill="#2e8b57" fill-rule="evenodd" fill-opacity="1" stroke="none"/>
<path clip-path="url(#clip822)" d="M1558.79 1167.77 L1534.79 1191.77 L1558.79 1215.77 L1582.79 1191.77 L1558.79 1167.77 Z" fill="#2e8b57" fill-rule="evenodd" fill-opacity="1" stroke="none"/>
<path clip-path="url(#clip822)" d="M2715.97 808.473 L2691.97 832.473 L2715.97 856.473 L2739.97 832.473 L2715.97 808.473 Z" fill="#2e8b57" fill-rule="evenodd" fill-opacity="1" stroke="none"/>
<path clip-path="url(#clip822)" d="M741.951 930.053 L717.951 954.053 L741.951 978.053 L765.951 954.053 L741.951 930.053 Z" fill="#2e8b57" fill-rule="evenodd" fill-opacity="1" stroke="none"/>
<path clip-path="url(#clip822)" d="M3154.17 276.989 L3130.17 300.989 L3154.17 324.989 L3178.17 300.989 L3154.17 276.989 Z" fill="#2e8b57" fill-rule="evenodd" fill-opacity="1" stroke="none"/>
<path clip-path="url(#clip822)" d="M524.979 2056 L500.979 2104 L548.979 2104 L524.979 2056 Z" fill="#ff8c00" fill-rule="evenodd" fill-opacity="1" stroke="none"/>
<path clip-path="url(#clip822)" d="M1137.61 1521.98 L1113.61 1569.98 L1161.61 1569.98 L1137.61 1521.98 Z" fill="#ff8c00" fill-rule="evenodd" fill-opacity="1" stroke="none"/>
<path clip-path="url(#clip822)" d="M2762.77 1054.59 L2738.77 1102.59 L2786.77 1102.59 L2762.77 1054.59 Z" fill="#ff8c00" fill-rule="evenodd" fill-opacity="1" stroke="none"/>
<path clip-path="url(#clip822)" d="M741.951 1205.11 L717.951 1253.11 L765.951 1253.11 L741.951 1205.11 Z" fill="#ff8c00" fill-rule="evenodd" fill-opacity="1" stroke="none"/>
<path clip-path="url(#clip822)" d="M3277.54 533.216 L3253.54 581.216 L3301.54 581.216 L3277.54 533.216 Z" fill="#ff8c00" fill-rule="evenodd" fill-opacity="1" stroke="none"/>
<path clip-path="url(#clip820)" d="M400.991 673.476 L1097.1 673.476 L1097.1 310.596 L400.991 310.596  Z" fill="#ffffff" fill-rule="evenodd" fill-opacity="1"/>
<polyline clip-path="url(#clip820)" style="stroke:#000000; stroke-linecap:round; stroke-linejoin:round; stroke-width:4; stroke-opacity:1; fill:none" points="400.991,673.476 1097.1,673.476 1097.1,310.596 400.991,310.596 400.991,673.476 "/>
<path clip-path="url(#clip820)" d="M571.5 336.836 L520.3 336.836 L545.9 388.036 L571.5 336.836 Z" fill="#9370db" fill-rule="evenodd" fill-opacity="1" stroke="none"/>
<path clip-path="url(#clip820)" d="M701.433 343.744 Q698.331 349.068 696.827 354.277 Q695.322 359.485 695.322 364.832 Q695.322 370.179 696.827 375.434 Q698.355 380.665 701.433 385.966 L697.73 385.966 Q694.257 380.527 692.521 375.272 Q690.808 370.017 690.808 364.832 Q690.808 359.67 692.521 354.439 Q694.234 349.207 697.73 343.744 L701.433 343.744 Z" fill="#000000" fill-rule="nonzero" fill-opacity="1" /><path clip-path="url(#clip820)" d="M709.697 353.791 L713.956 353.791 L713.956 380.179 Q713.956 385.133 712.058 387.355 Q710.183 389.577 705.993 389.577 L704.373 389.577 L704.373 385.966 L705.507 385.966 Q707.938 385.966 708.817 384.832 Q709.697 383.721 709.697 380.179 L709.697 353.791 M709.697 343.698 L713.956 343.698 L713.956 349.092 L709.697 349.092 L709.697 343.698 Z" fill="#000000" fill-rule="nonzero" fill-opacity="1" /><path clip-path="url(#clip820)" d="M722.428 369.485 L722.428 353.791 L726.688 353.791 L726.688 369.323 Q726.688 373.003 728.123 374.855 Q729.558 376.684 732.428 376.684 Q735.877 376.684 737.868 374.485 Q739.882 372.286 739.882 368.49 L739.882 353.791 L744.141 353.791 L744.141 379.716 L739.882 379.716 L739.882 375.735 Q738.331 378.096 736.271 379.253 Q734.234 380.388 731.526 380.388 Q727.058 380.388 724.743 377.61 Q722.428 374.832 722.428 369.485 M733.146 353.166 L733.146 353.166 Z" fill="#000000" fill-rule="nonzero" fill-opacity="1" /><path clip-path="url(#clip820)" d="M773.099 358.767 Q774.697 355.897 776.919 354.531 Q779.141 353.166 782.15 353.166 Q786.201 353.166 788.4 356.013 Q790.599 358.837 790.599 364.068 L790.599 379.716 L786.317 379.716 L786.317 364.207 Q786.317 360.48 784.998 358.675 Q783.678 356.869 780.97 356.869 Q777.66 356.869 775.738 359.068 Q773.817 361.267 773.817 365.064 L773.817 379.716 L769.535 379.716 L769.535 364.207 Q769.535 360.457 768.215 358.675 Q766.896 356.869 764.141 356.869 Q760.877 356.869 758.956 359.091 Q757.035 361.291 757.035 365.064 L757.035 379.716 L752.752 379.716 L752.752 353.791 L757.035 353.791 L757.035 357.818 Q758.493 355.434 760.53 354.3 Q762.567 353.166 765.368 353.166 Q768.192 353.166 770.16 354.601 Q772.15 356.036 773.099 358.767 Z" fill="#000000" fill-rule="nonzero" fill-opacity="1" /><path clip-path="url(#clip820)" d="M803.215 375.827 L803.215 389.577 L798.933 389.577 L798.933 353.791 L803.215 353.791 L803.215 357.726 Q804.558 355.411 806.595 354.3 Q808.655 353.166 811.502 353.166 Q816.224 353.166 819.164 356.916 Q822.127 360.666 822.127 366.777 Q822.127 372.888 819.164 376.638 Q816.224 380.388 811.502 380.388 Q808.655 380.388 806.595 379.277 Q804.558 378.142 803.215 375.827 M817.706 366.777 Q817.706 362.078 815.761 359.416 Q813.84 356.73 810.46 356.73 Q807.081 356.73 805.136 359.416 Q803.215 362.078 803.215 366.777 Q803.215 371.476 805.136 374.161 Q807.081 376.823 810.46 376.823 Q813.84 376.823 815.761 374.161 Q817.706 371.476 817.706 366.777 Z" fill="#000000" fill-rule="nonzero" fill-opacity="1" /><path clip-path="url(#clip820)" d="M830.275 373.837 L835.159 373.837 L835.159 377.818 L831.363 385.226 L828.377 385.226 L830.275 377.818 L830.275 373.837 Z" fill="#000000" fill-rule="nonzero" fill-opacity="1" /><path clip-path="url(#clip820)" d="M859.326 353.791 L863.585 353.791 L863.585 379.716 L859.326 379.716 L859.326 353.791 M859.326 343.698 L863.585 343.698 L863.585 349.092 L859.326 349.092 L859.326 343.698 Z" fill="#000000" fill-rule="nonzero" fill-opacity="1" /><path clip-path="url(#clip820)" d="M876.617 375.827 L876.617 389.577 L872.335 389.577 L872.335 353.791 L876.617 353.791 L876.617 357.726 Q877.96 355.411 879.997 354.3 Q882.057 353.166 884.904 353.166 Q889.627 353.166 892.566 356.916 Q895.529 360.666 895.529 366.777 Q895.529 372.888 892.566 376.638 Q889.627 380.388 884.904 380.388 Q882.057 380.388 879.997 379.277 Q877.96 378.142 876.617 375.827 M891.108 366.777 Q891.108 362.078 889.164 359.416 Q887.242 356.73 883.863 356.73 Q880.483 356.73 878.539 359.416 Q876.617 362.078 876.617 366.777 Q876.617 371.476 878.539 374.161 Q880.483 376.823 883.863 376.823 Q887.242 376.823 889.164 374.161 Q891.108 371.476 891.108 366.777 Z" fill="#000000" fill-rule="nonzero" fill-opacity="1" /><path clip-path="url(#clip820)" d="M912.636 356.777 Q909.21 356.777 907.219 359.462 Q905.228 362.124 905.228 366.777 Q905.228 371.429 907.196 374.115 Q909.187 376.777 912.636 376.777 Q916.039 376.777 918.029 374.091 Q920.02 371.406 920.02 366.777 Q920.02 362.17 918.029 359.485 Q916.039 356.777 912.636 356.777 M912.636 353.166 Q918.191 353.166 921.363 356.777 Q924.534 360.388 924.534 366.777 Q924.534 373.142 921.363 376.777 Q918.191 380.388 912.636 380.388 Q907.057 380.388 903.886 376.777 Q900.738 373.142 900.738 366.777 Q900.738 360.388 903.886 356.777 Q907.057 353.166 912.636 353.166 Z" fill="#000000" fill-rule="nonzero" fill-opacity="1" /><path clip-path="url(#clip820)" d="M935.714 375.827 L935.714 389.577 L931.432 389.577 L931.432 353.791 L935.714 353.791 L935.714 357.726 Q937.057 355.411 939.094 354.3 Q941.154 353.166 944.001 353.166 Q948.724 353.166 951.663 356.916 Q954.626 360.666 954.626 366.777 Q954.626 372.888 951.663 376.638 Q948.724 380.388 944.001 380.388 Q941.154 380.388 939.094 379.277 Q937.057 378.142 935.714 375.827 M950.205 366.777 Q950.205 362.078 948.261 359.416 Q946.339 356.73 942.96 356.73 Q939.58 356.73 937.636 359.416 Q935.714 362.078 935.714 366.777 Q935.714 371.476 937.636 374.161 Q939.58 376.823 942.96 376.823 Q946.339 376.823 948.261 374.161 Q950.205 371.476 950.205 366.777 Z" fill="#000000" fill-rule="nonzero" fill-opacity="1" /><path clip-path="url(#clip820)" d="M965.899 346.43 L965.899 353.791 L974.672 353.791 L974.672 357.101 L965.899 357.101 L965.899 371.175 Q965.899 374.346 966.756 375.249 Q967.635 376.152 970.297 376.152 L974.672 376.152 L974.672 379.716 L970.297 379.716 Q965.367 379.716 963.492 377.888 Q961.617 376.036 961.617 371.175 L961.617 357.101 L958.492 357.101 L958.492 353.791 L961.617 353.791 L961.617 346.43 L965.899 346.43 Z" fill="#000000" fill-rule="nonzero" fill-opacity="1" /><path clip-path="url(#clip820)" d="M979.603 343.744 L983.307 343.744 Q986.779 349.207 988.492 354.439 Q990.228 359.67 990.228 364.832 Q990.228 370.017 988.492 375.272 Q986.779 380.527 983.307 385.966 L979.603 385.966 Q982.682 380.665 984.186 375.434 Q985.714 370.179 985.714 364.832 Q985.714 359.485 984.186 354.277 Q982.682 349.068 979.603 343.744 Z" fill="#000000" fill-rule="nonzero" fill-opacity="1" /><circle clip-path="url(#clip820)" cx="545.9" cy="414.276" r="23.04" fill="#4682b4" fill-rule="evenodd" fill-opacity="1" stroke="none"/>
<path clip-path="url(#clip820)" d="M701.433 395.584 Q698.331 400.908 696.827 406.117 Q695.322 411.325 695.322 416.672 Q695.322 422.019 696.827 427.274 Q698.355 432.505 701.433 437.806 L697.73 437.806 Q694.257 432.367 692.521 427.112 Q690.808 421.857 690.808 416.672 Q690.808 411.51 692.521 406.279 Q694.234 401.047 697.73 395.584 L701.433 395.584 Z" fill="#000000" fill-rule="nonzero" fill-opacity="1" /><path clip-path="url(#clip820)" d="M721.479 418.524 Q716.317 418.524 714.327 419.705 Q712.336 420.885 712.336 423.732 Q712.336 426.001 713.817 427.343 Q715.322 428.663 717.891 428.663 Q721.433 428.663 723.563 426.163 Q725.715 423.64 725.715 419.473 L725.715 418.524 L721.479 418.524 M729.975 416.765 L729.975 431.556 L725.715 431.556 L725.715 427.621 Q724.257 429.982 722.081 431.117 Q719.905 432.228 716.757 432.228 Q712.776 432.228 710.415 430.005 Q708.077 427.76 708.077 424.01 Q708.077 419.635 710.993 417.413 Q713.933 415.191 719.743 415.191 L725.715 415.191 L725.715 414.774 Q725.715 411.834 723.771 410.237 Q721.85 408.617 718.354 408.617 Q716.132 408.617 714.026 409.149 Q711.919 409.681 709.975 410.746 L709.975 406.811 Q712.313 405.908 714.512 405.469 Q716.711 405.006 718.794 405.006 Q724.419 405.006 727.197 407.922 Q729.975 410.839 729.975 416.765 Z" fill="#000000" fill-rule="nonzero" fill-opacity="1" /><path clip-path="url(#clip820)" d="M755.808 409.566 L755.808 395.538 L760.067 395.538 L760.067 431.556 L755.808 431.556 L755.808 427.667 Q754.465 429.982 752.405 431.117 Q750.368 432.228 747.498 432.228 Q742.799 432.228 739.836 428.478 Q736.896 424.728 736.896 418.617 Q736.896 412.506 739.836 408.756 Q742.799 405.006 747.498 405.006 Q750.368 405.006 752.405 406.14 Q754.465 407.251 755.808 409.566 M741.294 418.617 Q741.294 423.316 743.215 426.001 Q745.16 428.663 748.539 428.663 Q751.919 428.663 753.863 426.001 Q755.808 423.316 755.808 418.617 Q755.808 413.918 753.863 411.256 Q751.919 408.57 748.539 408.57 Q745.16 408.57 743.215 411.256 Q741.294 413.918 741.294 418.617 Z" fill="#000000" fill-rule="nonzero" fill-opacity="1" /><path clip-path="url(#clip820)" d="M790.391 415.908 L790.391 431.556 L786.132 431.556 L786.132 416.047 Q786.132 412.367 784.697 410.538 Q783.261 408.709 780.391 408.709 Q776.942 408.709 774.951 410.908 Q772.961 413.107 772.961 416.904 L772.961 431.556 L768.678 431.556 L768.678 405.631 L772.961 405.631 L772.961 409.658 Q774.488 407.32 776.549 406.163 Q778.632 405.006 781.34 405.006 Q785.808 405.006 788.099 407.783 Q790.391 410.538 790.391 415.908 Z" fill="#000000" fill-rule="nonzero" fill-opacity="1" /><path clip-path="url(#clip820)" d="M798.886 395.538 L803.146 395.538 L803.146 431.556 L798.886 431.556 L798.886 395.538 Z" fill="#000000" fill-rule="nonzero" fill-opacity="1" /><path clip-path="url(#clip820)" d="M816.178 427.667 L816.178 441.417 L811.896 441.417 L811.896 405.631 L816.178 405.631 L816.178 409.566 Q817.521 407.251 819.558 406.14 Q821.618 405.006 824.465 405.006 Q829.187 405.006 832.127 408.756 Q835.09 412.506 835.09 418.617 Q835.09 424.728 832.127 428.478 Q829.187 432.228 824.465 432.228 Q821.618 432.228 819.558 431.117 Q817.521 429.982 816.178 427.667 M830.669 418.617 Q830.669 413.918 828.724 411.256 Q826.803 408.57 823.423 408.57 Q820.044 408.57 818.099 411.256 Q816.178 413.918 816.178 418.617 Q816.178 423.316 818.099 426.001 Q820.044 428.663 823.423 428.663 Q826.803 428.663 828.724 426.001 Q830.669 423.316 830.669 418.617 Z" fill="#000000" fill-rule="nonzero" fill-opacity="1" /><path clip-path="url(#clip820)" d="M843.238 425.677 L848.122 425.677 L848.122 429.658 L844.326 437.066 L841.34 437.066 L843.238 429.658 L843.238 425.677 Z" fill="#000000" fill-rule="nonzero" fill-opacity="1" /><path clip-path="url(#clip820)" d="M872.289 405.631 L876.548 405.631 L876.548 431.556 L872.289 431.556 L872.289 405.631 M872.289 395.538 L876.548 395.538 L876.548 400.932 L872.289 400.932 L872.289 395.538 Z" fill="#000000" fill-rule="nonzero" fill-opacity="1" /><path clip-path="url(#clip820)" d="M889.58 427.667 L889.58 441.417 L885.298 441.417 L885.298 405.631 L889.58 405.631 L889.58 409.566 Q890.923 407.251 892.96 406.14 Q895.02 405.006 897.867 405.006 Q902.59 405.006 905.529 408.756 Q908.492 412.506 908.492 418.617 Q908.492 424.728 905.529 428.478 Q902.59 432.228 897.867 432.228 Q895.02 432.228 892.96 431.117 Q890.923 429.982 889.58 427.667 M904.071 418.617 Q904.071 413.918 902.127 411.256 Q900.205 408.57 896.826 408.57 Q893.446 408.57 891.502 411.256 Q889.58 413.918 889.58 418.617 Q889.58 423.316 891.502 426.001 Q893.446 428.663 896.826 428.663 Q900.205 428.663 902.127 426.001 Q904.071 423.316 904.071 418.617 Z" fill="#000000" fill-rule="nonzero" fill-opacity="1" /><path clip-path="url(#clip820)" d="M925.599 408.617 Q922.173 408.617 920.182 411.302 Q918.191 413.964 918.191 418.617 Q918.191 423.269 920.159 425.955 Q922.15 428.617 925.599 428.617 Q929.001 428.617 930.992 425.931 Q932.983 423.246 932.983 418.617 Q932.983 414.01 930.992 411.325 Q929.001 408.617 925.599 408.617 M925.599 405.006 Q931.154 405.006 934.325 408.617 Q937.497 412.228 937.497 418.617 Q937.497 424.982 934.325 428.617 Q931.154 432.228 925.599 432.228 Q920.02 432.228 916.849 428.617 Q913.701 424.982 913.701 418.617 Q913.701 412.228 916.849 408.617 Q920.02 405.006 925.599 405.006 Z" fill="#000000" fill-rule="nonzero" fill-opacity="1" /><path clip-path="url(#clip820)" d="M948.677 427.667 L948.677 441.417 L944.395 441.417 L944.395 405.631 L948.677 405.631 L948.677 409.566 Q950.02 407.251 952.057 406.14 Q954.117 405.006 956.964 405.006 Q961.686 405.006 964.626 408.756 Q967.589 412.506 967.589 418.617 Q967.589 424.728 964.626 428.478 Q961.686 432.228 956.964 432.228 Q954.117 432.228 952.057 431.117 Q950.02 429.982 948.677 427.667 M963.168 418.617 Q963.168 413.918 961.223 411.256 Q959.302 408.57 955.923 408.57 Q952.543 408.57 950.599 411.256 Q948.677 413.918 948.677 418.617 Q948.677 423.316 950.599 426.001 Q952.543 428.663 955.923 428.663 Q959.302 428.663 961.223 426.001 Q963.168 423.316 963.168 418.617 Z" fill="#000000" fill-rule="nonzero" fill-opacity="1" /><path clip-path="url(#clip820)" d="M978.862 398.27 L978.862 405.631 L987.635 405.631 L987.635 408.941 L978.862 408.941 L978.862 423.015 Q978.862 426.186 979.719 427.089 Q980.598 427.992 983.26 427.992 L987.635 427.992 L987.635 431.556 L983.26 431.556 Q978.33 431.556 976.455 429.728 Q974.58 427.876 974.58 423.015 L974.58 408.941 L971.455 408.941 L971.455 405.631 L974.58 405.631 L974.58 398.27 L978.862 398.27 Z" fill="#000000" fill-rule="nonzero" fill-opacity="1" /><path clip-path="url(#clip820)" d="M992.566 395.584 L996.27 395.584 Q999.742 401.047 1001.45 406.279 Q1003.19 411.51 1003.19 416.672 Q1003.19 421.857 1001.45 427.112 Q999.742 432.367 996.27 437.806 L992.566 437.806 Q995.645 432.505 997.149 427.274 Q998.677 422.019 998.677 416.672 Q998.677 411.325 997.149 406.117 Q995.645 400.908 992.566 395.584 Z" fill="#000000" fill-rule="nonzero" fill-opacity="1" /><path clip-path="url(#clip820)" d="M520.3 440.516 L520.3 491.716 L571.5 491.716 L571.5 440.516 L520.3 440.516 Z" fill="#ff6347" fill-rule="evenodd" fill-opacity="1" stroke="none"/>
<path clip-path="url(#clip820)" d="M701.433 447.424 Q698.331 452.748 696.827 457.957 Q695.322 463.165 695.322 468.512 Q695.322 473.859 696.827 479.114 Q698.355 484.345 701.433 489.646 L697.73 489.646 Q694.257 484.207 692.521 478.952 Q690.808 473.697 690.808 468.512 Q690.808 463.35 692.521 458.119 Q694.234 452.887 697.73 447.424 L701.433 447.424 Z" fill="#000000" fill-rule="nonzero" fill-opacity="1" /><path clip-path="url(#clip820)" d="M731.873 469.369 L731.873 471.452 L712.29 471.452 Q712.567 475.85 714.928 478.165 Q717.313 480.457 721.549 480.457 Q724.003 480.457 726.294 479.855 Q728.609 479.253 730.877 478.049 L730.877 482.077 Q728.586 483.049 726.178 483.558 Q723.771 484.068 721.294 484.068 Q715.091 484.068 711.456 480.457 Q707.845 476.845 707.845 470.688 Q707.845 464.322 711.271 460.596 Q714.72 456.846 720.553 456.846 Q725.785 456.846 728.817 460.225 Q731.873 463.582 731.873 469.369 M727.614 468.119 Q727.567 464.623 725.646 462.54 Q723.748 460.457 720.6 460.457 Q717.035 460.457 714.882 462.471 Q712.753 464.484 712.429 468.142 L727.614 468.119 Z" fill="#000000" fill-rule="nonzero" fill-opacity="1" /><path clip-path="url(#clip820)" d="M759.581 457.471 L750.206 470.086 L760.067 483.396 L755.044 483.396 L747.498 473.211 L739.952 483.396 L734.928 483.396 L744.998 469.832 L735.785 457.471 L740.808 457.471 L747.683 466.707 L754.558 457.471 L759.581 457.471 Z" fill="#000000" fill-rule="nonzero" fill-opacity="1" /><path clip-path="url(#clip820)" d="M777.868 470.364 Q772.706 470.364 770.715 471.545 Q768.725 472.725 768.725 475.572 Q768.725 477.841 770.206 479.183 Q771.711 480.503 774.28 480.503 Q777.822 480.503 779.951 478.003 Q782.104 475.48 782.104 471.313 L782.104 470.364 L777.868 470.364 M786.363 468.605 L786.363 483.396 L782.104 483.396 L782.104 479.461 Q780.646 481.822 778.47 482.957 Q776.294 484.068 773.146 484.068 Q769.164 484.068 766.803 481.845 Q764.465 479.6 764.465 475.85 Q764.465 471.475 767.382 469.253 Q770.322 467.031 776.132 467.031 L782.104 467.031 L782.104 466.614 Q782.104 463.674 780.16 462.077 Q778.238 460.457 774.743 460.457 Q772.521 460.457 770.414 460.989 Q768.308 461.521 766.363 462.586 L766.363 458.651 Q768.701 457.748 770.9 457.309 Q773.099 456.846 775.183 456.846 Q780.808 456.846 783.586 459.762 Q786.363 462.679 786.363 468.605 Z" fill="#000000" fill-rule="nonzero" fill-opacity="1" /><path clip-path="url(#clip820)" d="M796.224 477.517 L801.109 477.517 L801.109 481.498 L797.312 488.906 L794.326 488.906 L796.224 481.498 L796.224 477.517 Z" fill="#000000" fill-rule="nonzero" fill-opacity="1" /><path clip-path="url(#clip820)" d="M825.275 457.471 L829.534 457.471 L829.534 483.396 L825.275 483.396 L825.275 457.471 M825.275 447.378 L829.534 447.378 L829.534 452.772 L825.275 452.772 L825.275 447.378 Z" fill="#000000" fill-rule="nonzero" fill-opacity="1" /><path clip-path="url(#clip820)" d="M842.567 479.507 L842.567 493.257 L838.284 493.257 L838.284 457.471 L842.567 457.471 L842.567 461.406 Q843.909 459.091 845.946 457.98 Q848.006 456.846 850.854 456.846 Q855.576 456.846 858.516 460.596 Q861.479 464.346 861.479 470.457 Q861.479 476.568 858.516 480.318 Q855.576 484.068 850.854 484.068 Q848.006 484.068 845.946 482.957 Q843.909 481.822 842.567 479.507 M857.057 470.457 Q857.057 465.758 855.113 463.096 Q853.192 460.41 849.812 460.41 Q846.432 460.41 844.488 463.096 Q842.567 465.758 842.567 470.457 Q842.567 475.156 844.488 477.841 Q846.432 480.503 849.812 480.503 Q853.192 480.503 855.113 477.841 Q857.057 475.156 857.057 470.457 Z" fill="#000000" fill-rule="nonzero" fill-opacity="1" /><path clip-path="url(#clip820)" d="M878.585 460.457 Q875.159 460.457 873.168 463.142 Q871.178 465.804 871.178 470.457 Q871.178 475.109 873.145 477.795 Q875.136 480.457 878.585 480.457 Q881.988 480.457 883.979 477.771 Q885.969 475.086 885.969 470.457 Q885.969 465.85 883.979 463.165 Q881.988 460.457 878.585 460.457 M878.585 456.846 Q884.141 456.846 887.312 460.457 Q890.483 464.068 890.483 470.457 Q890.483 476.822 887.312 480.457 Q884.141 484.068 878.585 484.068 Q873.006 484.068 869.835 480.457 Q866.687 476.822 866.687 470.457 Q866.687 464.068 869.835 460.457 Q873.006 456.846 878.585 456.846 Z" fill="#000000" fill-rule="nonzero" fill-opacity="1" /><path clip-path="url(#clip820)" d="M901.664 479.507 L901.664 493.257 L897.381 493.257 L897.381 457.471 L901.664 457.471 L901.664 461.406 Q903.006 459.091 905.043 457.98 Q907.103 456.846 909.951 456.846 Q914.673 456.846 917.613 460.596 Q920.576 464.346 920.576 470.457 Q920.576 476.568 917.613 480.318 Q914.673 484.068 909.951 484.068 Q907.103 484.068 905.043 482.957 Q903.006 481.822 901.664 479.507 M916.154 470.457 Q916.154 465.758 914.21 463.096 Q912.289 460.41 908.909 460.41 Q905.529 460.41 903.585 463.096 Q901.664 465.758 901.664 470.457 Q901.664 475.156 903.585 477.841 Q905.529 480.503 908.909 480.503 Q912.289 480.503 914.21 477.841 Q916.154 475.156 916.154 470.457 Z" fill="#000000" fill-rule="nonzero" fill-opacity="1" /><path clip-path="url(#clip820)" d="M931.849 450.11 L931.849 457.471 L940.622 457.471 L940.622 460.781 L931.849 460.781 L931.849 474.855 Q931.849 478.026 932.705 478.929 Q933.585 479.832 936.247 479.832 L940.622 479.832 L940.622 483.396 L936.247 483.396 Q931.316 483.396 929.441 481.568 Q927.566 479.716 927.566 474.855 L927.566 460.781 L924.441 460.781 L924.441 457.471 L927.566 457.471 L927.566 450.11 L931.849 450.11 Z" fill="#000000" fill-rule="nonzero" fill-opacity="1" /><path clip-path="url(#clip820)" d="M945.552 447.424 L949.256 447.424 Q952.728 452.887 954.441 458.119 Q956.177 463.35 956.177 468.512 Q956.177 473.697 954.441 478.952 Q952.728 484.207 949.256 489.646 L945.552 489.646 Q948.631 484.345 950.136 479.114 Q951.663 473.859 951.663 468.512 Q951.663 463.165 950.136 457.957 Q948.631 452.748 945.552 447.424 Z" fill="#000000" fill-rule="nonzero" fill-opacity="1" /><path clip-path="url(#clip820)" d="M545.9 492.356 L539.884 509.662 L521.554 510.046 L536.172 521.131 L530.847 538.667 L545.9 528.196 L560.952 538.667 L555.628 521.131 L570.245 510.046 L551.916 509.662 L545.9 492.356 Z" fill="#a0522d" fill-rule="evenodd" fill-opacity="1" stroke="none"/>
<path clip-path="url(#clip820)" d="M701.433 499.264 Q698.331 504.588 696.827 509.797 Q695.322 515.005 695.322 520.352 Q695.322 525.699 696.827 530.954 Q698.355 536.185 701.433 541.486 L697.73 541.486 Q694.257 536.047 692.521 530.792 Q690.808 525.537 690.808 520.352 Q690.808 515.19 692.521 509.959 Q694.234 504.727 697.73 499.264 L701.433 499.264 Z" fill="#000000" fill-rule="nonzero" fill-opacity="1" /><path clip-path="url(#clip820)" d="M709.697 509.311 L713.956 509.311 L713.956 535.699 Q713.956 540.653 712.058 542.875 Q710.183 545.097 705.993 545.097 L704.373 545.097 L704.373 541.486 L705.507 541.486 Q707.938 541.486 708.817 540.352 Q709.697 539.241 709.697 535.699 L709.697 509.311 M709.697 499.218 L713.956 499.218 L713.956 504.612 L709.697 504.612 L709.697 499.218 Z" fill="#000000" fill-rule="nonzero" fill-opacity="1" /><path clip-path="url(#clip820)" d="M722.428 525.005 L722.428 509.311 L726.688 509.311 L726.688 524.843 Q726.688 528.523 728.123 530.375 Q729.558 532.204 732.428 532.204 Q735.877 532.204 737.868 530.005 Q739.882 527.806 739.882 524.01 L739.882 509.311 L744.141 509.311 L744.141 535.236 L739.882 535.236 L739.882 531.255 Q738.331 533.616 736.271 534.773 Q734.234 535.908 731.526 535.908 Q727.058 535.908 724.743 533.13 Q722.428 530.352 722.428 525.005 M733.146 508.686 L733.146 508.686 Z" fill="#000000" fill-rule="nonzero" fill-opacity="1" /><path clip-path="url(#clip820)" d="M773.099 514.287 Q774.697 511.417 776.919 510.051 Q779.141 508.686 782.15 508.686 Q786.201 508.686 788.4 511.533 Q790.599 514.357 790.599 519.588 L790.599 535.236 L786.317 535.236 L786.317 519.727 Q786.317 516 784.998 514.195 Q783.678 512.389 780.97 512.389 Q777.66 512.389 775.738 514.588 Q773.817 516.787 773.817 520.584 L773.817 535.236 L769.535 535.236 L769.535 519.727 Q769.535 515.977 768.215 514.195 Q766.896 512.389 764.141 512.389 Q760.877 512.389 758.956 514.611 Q757.035 516.811 757.035 520.584 L757.035 535.236 L752.752 535.236 L752.752 509.311 L757.035 509.311 L757.035 513.338 Q758.493 510.954 760.53 509.82 Q762.567 508.686 765.368 508.686 Q768.192 508.686 770.16 510.121 Q772.15 511.556 773.099 514.287 Z" fill="#000000" fill-rule="nonzero" fill-opacity="1" /><path clip-path="url(#clip820)" d="M803.215 531.347 L803.215 545.097 L798.933 545.097 L798.933 509.311 L803.215 509.311 L803.215 513.246 Q804.558 510.931 806.595 509.82 Q808.655 508.686 811.502 508.686 Q816.224 508.686 819.164 512.436 Q822.127 516.186 822.127 522.297 Q822.127 528.408 819.164 532.158 Q816.224 535.908 811.502 535.908 Q808.655 535.908 806.595 534.797 Q804.558 533.662 803.215 531.347 M817.706 522.297 Q817.706 517.598 815.761 514.936 Q813.84 512.25 810.46 512.25 Q807.081 512.25 805.136 514.936 Q803.215 517.598 803.215 522.297 Q803.215 526.996 805.136 529.681 Q807.081 532.343 810.46 532.343 Q813.84 532.343 815.761 529.681 Q817.706 526.996 817.706 522.297 Z" fill="#000000" fill-rule="nonzero" fill-opacity="1" /><path clip-path="url(#clip820)" d="M830.275 529.357 L835.159 529.357 L835.159 533.338 L831.363 540.746 L828.377 540.746 L830.275 533.338 L830.275 529.357 Z" fill="#000000" fill-rule="nonzero" fill-opacity="1" /><path clip-path="url(#clip820)" d="M879.511 514.287 Q881.108 511.417 883.33 510.051 Q885.553 508.686 888.562 508.686 Q892.613 508.686 894.812 511.533 Q897.011 514.357 897.011 519.588 L897.011 535.236 L892.728 535.236 L892.728 519.727 Q892.728 516 891.409 514.195 Q890.09 512.389 887.381 512.389 Q884.071 512.389 882.15 514.588 Q880.229 516.787 880.229 520.584 L880.229 535.236 L875.946 535.236 L875.946 519.727 Q875.946 515.977 874.627 514.195 Q873.307 512.389 870.553 512.389 Q867.289 512.389 865.368 514.611 Q863.446 516.811 863.446 520.584 L863.446 535.236 L859.164 535.236 L859.164 509.311 L863.446 509.311 L863.446 513.338 Q864.905 510.954 866.942 509.82 Q868.979 508.686 871.78 508.686 Q874.604 508.686 876.571 510.121 Q878.562 511.556 879.511 514.287 Z" fill="#000000" fill-rule="nonzero" fill-opacity="1" /><path clip-path="url(#clip820)" d="M917.289 522.204 Q912.127 522.204 910.136 523.385 Q908.145 524.565 908.145 527.412 Q908.145 529.681 909.627 531.023 Q911.131 532.343 913.701 532.343 Q917.242 532.343 919.372 529.843 Q921.525 527.32 921.525 523.153 L921.525 522.204 L917.289 522.204 M925.784 520.445 L925.784 535.236 L921.525 535.236 L921.525 531.301 Q920.066 533.662 917.89 534.797 Q915.714 535.908 912.566 535.908 Q908.585 535.908 906.224 533.685 Q903.886 531.44 903.886 527.69 Q903.886 523.315 906.802 521.093 Q909.742 518.871 915.552 518.871 L921.525 518.871 L921.525 518.454 Q921.525 515.514 919.58 513.917 Q917.659 512.297 914.164 512.297 Q911.941 512.297 909.835 512.829 Q907.728 513.361 905.784 514.426 L905.784 510.491 Q908.122 509.588 910.321 509.149 Q912.52 508.686 914.603 508.686 Q920.228 508.686 923.006 511.602 Q925.784 514.519 925.784 520.445 Z" fill="#000000" fill-rule="nonzero" fill-opacity="1" /><path clip-path="url(#clip820)" d="M951.617 513.246 L951.617 499.218 L955.876 499.218 L955.876 535.236 L951.617 535.236 L951.617 531.347 Q950.274 533.662 948.214 534.797 Q946.177 535.908 943.307 535.908 Q938.608 535.908 935.645 532.158 Q932.705 528.408 932.705 522.297 Q932.705 516.186 935.645 512.436 Q938.608 508.686 943.307 508.686 Q946.177 508.686 948.214 509.82 Q950.274 510.931 951.617 513.246 M937.103 522.297 Q937.103 526.996 939.025 529.681 Q940.969 532.343 944.349 532.343 Q947.728 532.343 949.673 529.681 Q951.617 526.996 951.617 522.297 Q951.617 517.598 949.673 514.936 Q947.728 512.25 944.349 512.25 Q940.969 512.25 939.025 514.936 Q937.103 517.598 937.103 522.297 Z" fill="#000000" fill-rule="nonzero" fill-opacity="1" /><path clip-path="url(#clip820)" d="M986.2 519.588 L986.2 535.236 L981.941 535.236 L981.941 519.727 Q981.941 516.047 980.506 514.218 Q979.071 512.389 976.2 512.389 Q972.751 512.389 970.76 514.588 Q968.77 516.787 968.77 520.584 L968.77 535.236 L964.487 535.236 L964.487 509.311 L968.77 509.311 L968.77 513.338 Q970.297 511 972.358 509.843 Q974.441 508.686 977.149 508.686 Q981.617 508.686 983.909 511.463 Q986.2 514.218 986.2 519.588 Z" fill="#000000" fill-rule="nonzero" fill-opacity="1" /><path clip-path="url(#clip820)" d="M994.696 499.218 L998.955 499.218 L998.955 535.236 L994.696 535.236 L994.696 499.218 Z" fill="#000000" fill-rule="nonzero" fill-opacity="1" /><path clip-path="url(#clip820)" d="M1011.99 531.347 L1011.99 545.097 L1007.7 545.097 L1007.7 509.311 L1011.99 509.311 L1011.99 513.246 Q1013.33 510.931 1015.37 509.82 Q1017.43 508.686 1020.27 508.686 Q1025 508.686 1027.94 512.436 Q1030.9 516.186 1030.9 522.297 Q1030.9 528.408 1027.94 532.158 Q1025 535.908 1020.27 535.908 Q1017.43 535.908 1015.37 534.797 Q1013.33 533.662 1011.99 531.347 M1026.48 522.297 Q1026.48 517.598 1024.53 514.936 Q1022.61 512.25 1019.23 512.25 Q1015.85 512.25 1013.91 514.936 Q1011.99 517.598 1011.99 522.297 Q1011.99 526.996 1013.91 529.681 Q1015.85 532.343 1019.23 532.343 Q1022.61 532.343 1024.53 529.681 Q1026.48 526.996 1026.48 522.297 Z" fill="#000000" fill-rule="nonzero" fill-opacity="1" /><path clip-path="url(#clip820)" d="M1037.29 499.264 L1040.99 499.264 Q1044.46 504.727 1046.18 509.959 Q1047.91 515.19 1047.91 520.352 Q1047.91 525.537 1046.18 530.792 Q1044.46 536.047 1040.99 541.486 L1037.29 541.486 Q1040.37 536.185 1041.87 530.954 Q1043.4 525.699 1043.4 520.352 Q1043.4 515.005 1041.87 509.797 Q1040.37 504.588 1037.29 499.264 Z" fill="#000000" fill-rule="nonzero" fill-opacity="1" /><path clip-path="url(#clip820)" d="M545.9 544.196 L520.3 569.796 L545.9 595.396 L571.5 569.796 L545.9 544.196 Z" fill="#2e8b57" fill-rule="evenodd" fill-opacity="1" stroke="none"/>
<path clip-path="url(#clip820)" d="M701.433 551.104 Q698.331 556.428 696.827 561.637 Q695.322 566.845 695.322 572.192 Q695.322 577.539 696.827 582.794 Q698.355 588.025 701.433 593.326 L697.73 593.326 Q694.257 587.887 692.521 582.632 Q690.808 577.377 690.808 572.192 Q690.808 567.03 692.521 561.799 Q694.234 556.567 697.73 551.104 L701.433 551.104 Z" fill="#000000" fill-rule="nonzero" fill-opacity="1" /><path clip-path="url(#clip820)" d="M721.479 574.044 Q716.317 574.044 714.327 575.225 Q712.336 576.405 712.336 579.252 Q712.336 581.521 713.817 582.863 Q715.322 584.183 717.891 584.183 Q721.433 584.183 723.563 581.683 Q725.715 579.16 725.715 574.993 L725.715 574.044 L721.479 574.044 M729.975 572.285 L729.975 587.076 L725.715 587.076 L725.715 583.141 Q724.257 585.502 722.081 586.637 Q719.905 587.748 716.757 587.748 Q712.776 587.748 710.415 585.525 Q708.077 583.28 708.077 579.53 Q708.077 575.155 710.993 572.933 Q713.933 570.711 719.743 570.711 L725.715 570.711 L725.715 570.294 Q725.715 567.354 723.771 565.757 Q721.85 564.137 718.354 564.137 Q716.132 564.137 714.026 564.669 Q711.919 565.201 709.975 566.266 L709.975 562.331 Q712.313 561.428 714.512 560.989 Q716.711 560.526 718.794 560.526 Q724.419 560.526 727.197 563.442 Q729.975 566.359 729.975 572.285 Z" fill="#000000" fill-rule="nonzero" fill-opacity="1" /><path clip-path="url(#clip820)" d="M755.808 565.086 L755.808 551.058 L760.067 551.058 L760.067 587.076 L755.808 587.076 L755.808 583.187 Q754.465 585.502 752.405 586.637 Q750.368 587.748 747.498 587.748 Q742.799 587.748 739.836 583.998 Q736.896 580.248 736.896 574.137 Q736.896 568.026 739.836 564.276 Q742.799 560.526 747.498 560.526 Q750.368 560.526 752.405 561.66 Q754.465 562.771 755.808 565.086 M741.294 574.137 Q741.294 578.836 743.215 581.521 Q745.16 584.183 748.539 584.183 Q751.919 584.183 753.863 581.521 Q755.808 578.836 755.808 574.137 Q755.808 569.438 753.863 566.776 Q751.919 564.09 748.539 564.09 Q745.16 564.09 743.215 566.776 Q741.294 569.438 741.294 574.137 Z" fill="#000000" fill-rule="nonzero" fill-opacity="1" /><path clip-path="url(#clip820)" d="M790.391 571.428 L790.391 587.076 L786.132 587.076 L786.132 571.567 Q786.132 567.887 784.697 566.058 Q783.261 564.229 780.391 564.229 Q776.942 564.229 774.951 566.428 Q772.961 568.627 772.961 572.424 L772.961 587.076 L768.678 587.076 L768.678 561.151 L772.961 561.151 L772.961 565.178 Q774.488 562.84 776.549 561.683 Q778.632 560.526 781.34 560.526 Q785.808 560.526 788.099 563.303 Q790.391 566.058 790.391 571.428 Z" fill="#000000" fill-rule="nonzero" fill-opacity="1" /><path clip-path="url(#clip820)" d="M798.886 551.058 L803.146 551.058 L803.146 587.076 L798.886 587.076 L798.886 551.058 Z" fill="#000000" fill-rule="nonzero" fill-opacity="1" /><path clip-path="url(#clip820)" d="M816.178 583.187 L816.178 596.937 L811.896 596.937 L811.896 561.151 L816.178 561.151 L816.178 565.086 Q817.521 562.771 819.558 561.66 Q821.618 560.526 824.465 560.526 Q829.187 560.526 832.127 564.276 Q835.09 568.026 835.09 574.137 Q835.09 580.248 832.127 583.998 Q829.187 587.748 824.465 587.748 Q821.618 587.748 819.558 586.637 Q817.521 585.502 816.178 583.187 M830.669 574.137 Q830.669 569.438 828.724 566.776 Q826.803 564.09 823.423 564.09 Q820.044 564.09 818.099 566.776 Q816.178 569.438 816.178 574.137 Q816.178 578.836 818.099 581.521 Q820.044 584.183 823.423 584.183 Q826.803 584.183 828.724 581.521 Q830.669 578.836 830.669 574.137 Z" fill="#000000" fill-rule="nonzero" fill-opacity="1" /><path clip-path="url(#clip820)" d="M843.238 581.197 L848.122 581.197 L848.122 585.178 L844.326 592.586 L841.34 592.586 L843.238 585.178 L843.238 581.197 Z" fill="#000000" fill-rule="nonzero" fill-opacity="1" /><path clip-path="url(#clip820)" d="M892.474 566.127 Q894.071 563.257 896.293 561.891 Q898.515 560.526 901.525 560.526 Q905.576 560.526 907.775 563.373 Q909.974 566.197 909.974 571.428 L909.974 587.076 L905.691 587.076 L905.691 571.567 Q905.691 567.84 904.372 566.035 Q903.052 564.229 900.344 564.229 Q897.034 564.229 895.113 566.428 Q893.191 568.627 893.191 572.424 L893.191 587.076 L888.909 587.076 L888.909 571.567 Q888.909 567.817 887.59 566.035 Q886.27 564.229 883.516 564.229 Q880.252 564.229 878.33 566.451 Q876.409 568.651 876.409 572.424 L876.409 587.076 L872.127 587.076 L872.127 561.151 L876.409 561.151 L876.409 565.178 Q877.867 562.794 879.904 561.66 Q881.941 560.526 884.742 560.526 Q887.566 560.526 889.534 561.961 Q891.525 563.396 892.474 566.127 Z" fill="#000000" fill-rule="nonzero" fill-opacity="1" /><path clip-path="url(#clip820)" d="M930.251 574.044 Q925.089 574.044 923.099 575.225 Q921.108 576.405 921.108 579.252 Q921.108 581.521 922.589 582.863 Q924.094 584.183 926.663 584.183 Q930.205 584.183 932.335 581.683 Q934.488 579.16 934.488 574.993 L934.488 574.044 L930.251 574.044 M938.747 572.285 L938.747 587.076 L934.488 587.076 L934.488 583.141 Q933.029 585.502 930.853 586.637 Q928.677 587.748 925.529 587.748 Q921.548 587.748 919.187 585.525 Q916.849 583.28 916.849 579.53 Q916.849 575.155 919.765 572.933 Q922.705 570.711 928.515 570.711 L934.488 570.711 L934.488 570.294 Q934.488 567.354 932.543 565.757 Q930.622 564.137 927.126 564.137 Q924.904 564.137 922.798 564.669 Q920.691 565.201 918.747 566.266 L918.747 562.331 Q921.085 561.428 923.284 560.989 Q925.483 560.526 927.566 560.526 Q933.191 560.526 935.969 563.442 Q938.747 566.359 938.747 572.285 Z" fill="#000000" fill-rule="nonzero" fill-opacity="1" /><path clip-path="url(#clip820)" d="M964.58 565.086 L964.58 551.058 L968.839 551.058 L968.839 587.076 L964.58 587.076 L964.58 583.187 Q963.237 585.502 961.177 586.637 Q959.14 587.748 956.27 587.748 Q951.571 587.748 948.608 583.998 Q945.668 580.248 945.668 574.137 Q945.668 568.026 948.608 564.276 Q951.571 560.526 956.27 560.526 Q959.14 560.526 961.177 561.66 Q963.237 562.771 964.58 565.086 M950.066 574.137 Q950.066 578.836 951.987 581.521 Q953.932 584.183 957.311 584.183 Q960.691 584.183 962.636 581.521 Q964.58 578.836 964.58 574.137 Q964.58 569.438 962.636 566.776 Q960.691 564.09 957.311 564.09 Q953.932 564.09 951.987 566.776 Q950.066 569.438 950.066 574.137 Z" fill="#000000" fill-rule="nonzero" fill-opacity="1" /><path clip-path="url(#clip820)" d="M999.163 571.428 L999.163 587.076 L994.904 587.076 L994.904 571.567 Q994.904 567.887 993.469 566.058 Q992.033 564.229 989.163 564.229 Q985.714 564.229 983.723 566.428 Q981.733 568.627 981.733 572.424 L981.733 587.076 L977.45 587.076 L977.45 561.151 L981.733 561.151 L981.733 565.178 Q983.26 562.84 985.321 561.683 Q987.404 560.526 990.112 560.526 Q994.58 560.526 996.871 563.303 Q999.163 566.058 999.163 571.428 Z" fill="#000000" fill-rule="nonzero" fill-opacity="1" /><path clip-path="url(#clip820)" d="M1007.66 551.058 L1011.92 551.058 L1011.92 587.076 L1007.66 587.076 L1007.66 551.058 Z" fill="#000000" fill-rule="nonzero" fill-opacity="1" /><path clip-path="url(#clip820)" d="M1024.95 583.187 L1024.95 596.937 L1020.67 596.937 L1020.67 561.151 L1024.95 561.151 L1024.95 565.086 Q1026.29 562.771 1028.33 561.66 Q1030.39 560.526 1033.24 560.526 Q1037.96 560.526 1040.9 564.276 Q1043.86 568.026 1043.86 574.137 Q1043.86 580.248 1040.9 583.998 Q1037.96 587.748 1033.24 587.748 Q1030.39 587.748 1028.33 586.637 Q1026.29 585.502 1024.95 583.187 M1039.44 574.137 Q1039.44 569.438 1037.5 566.776 Q1035.57 564.09 1032.2 564.09 Q1028.82 564.09 1026.87 566.776 Q1024.95 569.438 1024.95 574.137 Q1024.95 578.836 1026.87 581.521 Q1028.82 584.183 1032.2 584.183 Q1035.57 584.183 1037.5 581.521 Q1039.44 578.836 1039.44 574.137 Z" fill="#000000" fill-rule="nonzero" fill-opacity="1" /><path clip-path="url(#clip820)" d="M1050.25 551.104 L1053.95 551.104 Q1057.43 556.567 1059.14 561.799 Q1060.88 567.03 1060.88 572.192 Q1060.88 577.377 1059.14 582.632 Q1057.43 587.887 1053.95 593.326 L1050.25 593.326 Q1053.33 588.025 1054.83 582.794 Q1056.36 577.539 1056.36 572.192 Q1056.36 566.845 1054.83 561.637 Q1053.33 556.428 1050.25 551.104 Z" fill="#000000" fill-rule="nonzero" fill-opacity="1" /><path clip-path="url(#clip820)" d="M545.9 596.036 L520.3 647.236 L571.5 647.236 L545.9 596.036 Z" fill="#ff8c00" fill-rule="evenodd" fill-opacity="1" stroke="none"/>
<path clip-path="url(#clip820)" d="M701.433 602.944 Q698.331 608.268 696.827 613.477 Q695.322 618.685 695.322 624.032 Q695.322 629.379 696.827 634.634 Q698.355 639.865 701.433 645.166 L697.73 645.166 Q694.257 639.727 692.521 634.472 Q690.808 629.217 690.808 624.032 Q690.808 618.87 692.521 613.639 Q694.234 608.407 697.73 602.944 L701.433 602.944 Z" fill="#000000" fill-rule="nonzero" fill-opacity="1" /><path clip-path="url(#clip820)" d="M731.873 624.889 L731.873 626.972 L712.29 626.972 Q712.567 631.37 714.928 633.685 Q717.313 635.977 721.549 635.977 Q724.003 635.977 726.294 635.375 Q728.609 634.773 730.877 633.569 L730.877 637.597 Q728.586 638.569 726.178 639.078 Q723.771 639.588 721.294 639.588 Q715.091 639.588 711.456 635.977 Q707.845 632.365 707.845 626.208 Q707.845 619.842 711.271 616.116 Q714.72 612.366 720.553 612.366 Q725.785 612.366 728.817 615.745 Q731.873 619.102 731.873 624.889 M727.614 623.639 Q727.567 620.143 725.646 618.06 Q723.748 615.977 720.6 615.977 Q717.035 615.977 714.882 617.991 Q712.753 620.004 712.429 623.662 L727.614 623.639 Z" fill="#000000" fill-rule="nonzero" fill-opacity="1" /><path clip-path="url(#clip820)" d="M759.581 612.991 L750.206 625.606 L760.067 638.916 L755.044 638.916 L747.498 628.731 L739.952 638.916 L734.928 638.916 L744.998 625.352 L735.785 612.991 L740.808 612.991 L747.683 622.227 L754.558 612.991 L759.581 612.991 Z" fill="#000000" fill-rule="nonzero" fill-opacity="1" /><path clip-path="url(#clip820)" d="M777.868 625.884 Q772.706 625.884 770.715 627.065 Q768.725 628.245 768.725 631.092 Q768.725 633.361 770.206 634.703 Q771.711 636.023 774.28 636.023 Q777.822 636.023 779.951 633.523 Q782.104 631 782.104 626.833 L782.104 625.884 L777.868 625.884 M786.363 624.125 L786.363 638.916 L782.104 638.916 L782.104 634.981 Q780.646 637.342 778.47 638.477 Q776.294 639.588 773.146 639.588 Q769.164 639.588 766.803 637.365 Q764.465 635.12 764.465 631.37 Q764.465 626.995 767.382 624.773 Q770.322 622.551 776.132 622.551 L782.104 622.551 L782.104 622.134 Q782.104 619.194 780.16 617.597 Q778.238 615.977 774.743 615.977 Q772.521 615.977 770.414 616.509 Q768.308 617.041 766.363 618.106 L766.363 614.171 Q768.701 613.268 770.9 612.829 Q773.099 612.366 775.183 612.366 Q780.808 612.366 783.586 615.282 Q786.363 618.199 786.363 624.125 Z" fill="#000000" fill-rule="nonzero" fill-opacity="1" /><path clip-path="url(#clip820)" d="M796.224 633.037 L801.109 633.037 L801.109 637.018 L797.312 644.426 L794.326 644.426 L796.224 637.018 L796.224 633.037 Z" fill="#000000" fill-rule="nonzero" fill-opacity="1" /><path clip-path="url(#clip820)" d="M845.46 617.967 Q847.057 615.097 849.28 613.731 Q851.502 612.366 854.511 612.366 Q858.562 612.366 860.761 615.213 Q862.96 618.037 862.96 623.268 L862.96 638.916 L858.678 638.916 L858.678 623.407 Q858.678 619.68 857.358 617.875 Q856.039 616.069 853.331 616.069 Q850.02 616.069 848.099 618.268 Q846.178 620.467 846.178 624.264 L846.178 638.916 L841.895 638.916 L841.895 623.407 Q841.895 619.657 840.576 617.875 Q839.257 616.069 836.502 616.069 Q833.238 616.069 831.317 618.291 Q829.395 620.491 829.395 624.264 L829.395 638.916 L825.113 638.916 L825.113 612.991 L829.395 612.991 L829.395 617.018 Q830.854 614.634 832.891 613.5 Q834.928 612.366 837.729 612.366 Q840.553 612.366 842.52 613.801 Q844.511 615.236 845.46 617.967 Z" fill="#000000" fill-rule="nonzero" fill-opacity="1" /><path clip-path="url(#clip820)" d="M883.238 625.884 Q878.076 625.884 876.085 627.065 Q874.094 628.245 874.094 631.092 Q874.094 633.361 875.576 634.703 Q877.08 636.023 879.65 636.023 Q883.191 636.023 885.321 633.523 Q887.474 631 887.474 626.833 L887.474 625.884 L883.238 625.884 M891.733 624.125 L891.733 638.916 L887.474 638.916 L887.474 634.981 Q886.016 637.342 883.84 638.477 Q881.664 639.588 878.516 639.588 Q874.534 639.588 872.173 637.365 Q869.835 635.12 869.835 631.37 Q869.835 626.995 872.752 624.773 Q875.692 622.551 881.502 622.551 L887.474 622.551 L887.474 622.134 Q887.474 619.194 885.529 617.597 Q883.608 615.977 880.113 615.977 Q877.891 615.977 875.784 616.509 Q873.678 617.041 871.733 618.106 L871.733 614.171 Q874.071 613.268 876.27 612.829 Q878.469 612.366 880.553 612.366 Q886.178 612.366 888.955 615.282 Q891.733 618.199 891.733 624.125 Z" fill="#000000" fill-rule="nonzero" fill-opacity="1" /><path clip-path="url(#clip820)" d="M917.566 616.926 L917.566 602.898 L921.826 602.898 L921.826 638.916 L917.566 638.916 L917.566 635.027 Q916.224 637.342 914.164 638.477 Q912.127 639.588 909.256 639.588 Q904.557 639.588 901.594 635.838 Q898.654 632.088 898.654 625.977 Q898.654 619.866 901.594 616.116 Q904.557 612.366 909.256 612.366 Q912.127 612.366 914.164 613.5 Q916.224 614.611 917.566 616.926 M903.052 625.977 Q903.052 630.676 904.974 633.361 Q906.918 636.023 910.298 636.023 Q913.677 636.023 915.622 633.361 Q917.566 630.676 917.566 625.977 Q917.566 621.278 915.622 618.616 Q913.677 615.93 910.298 615.93 Q906.918 615.93 904.974 618.616 Q903.052 621.278 903.052 625.977 Z" fill="#000000" fill-rule="nonzero" fill-opacity="1" /><path clip-path="url(#clip820)" d="M952.149 623.268 L952.149 638.916 L947.89 638.916 L947.89 623.407 Q947.89 619.727 946.455 617.898 Q945.02 616.069 942.15 616.069 Q938.7 616.069 936.71 618.268 Q934.719 620.467 934.719 624.264 L934.719 638.916 L930.437 638.916 L930.437 612.991 L934.719 612.991 L934.719 617.018 Q936.247 614.68 938.307 613.523 Q940.39 612.366 943.099 612.366 Q947.566 612.366 949.858 615.143 Q952.149 617.898 952.149 623.268 Z" fill="#000000" fill-rule="nonzero" fill-opacity="1" /><path clip-path="url(#clip820)" d="M960.645 602.898 L964.904 602.898 L964.904 638.916 L960.645 638.916 L960.645 602.898 Z" fill="#000000" fill-rule="nonzero" fill-opacity="1" /><path clip-path="url(#clip820)" d="M977.936 635.027 L977.936 648.777 L973.654 648.777 L973.654 612.991 L977.936 612.991 L977.936 616.926 Q979.279 614.611 981.316 613.5 Q983.376 612.366 986.223 612.366 Q990.946 612.366 993.885 616.116 Q996.848 619.866 996.848 625.977 Q996.848 632.088 993.885 635.838 Q990.946 639.588 986.223 639.588 Q983.376 639.588 981.316 638.477 Q979.279 637.342 977.936 635.027 M992.427 625.977 Q992.427 621.278 990.483 618.616 Q988.561 615.93 985.182 615.93 Q981.802 615.93 979.858 618.616 Q977.936 621.278 977.936 625.977 Q977.936 630.676 979.858 633.361 Q981.802 636.023 985.182 636.023 Q988.561 636.023 990.483 633.361 Q992.427 630.676 992.427 625.977 Z" fill="#000000" fill-rule="nonzero" fill-opacity="1" /><path clip-path="url(#clip820)" d="M1003.24 602.944 L1006.94 602.944 Q1010.41 608.407 1012.13 613.639 Q1013.86 618.87 1013.86 624.032 Q1013.86 629.217 1012.13 634.472 Q1010.41 639.727 1006.94 645.166 L1003.24 645.166 Q1006.32 639.865 1007.82 634.634 Q1009.35 629.379 1009.35 624.032 Q1009.35 618.685 1007.82 613.477 Q1006.32 608.268 1003.24 602.944 Z" fill="#000000" fill-rule="nonzero" fill-opacity="1" /></svg>
