<?xml version="1.0" encoding="utf-8"?>
<svg xmlns="http://www.w3.org/2000/svg" xmlns:xlink="http://www.w3.org/1999/xlink" width="900" height="600" viewBox="0 0 3600 2400">
<defs>
  <clipPath id="clip740">
    <rect x="0" y="0" width="3600" height="2400"/>
  </clipPath>
</defs>
<path clip-path="url(#clip740)" d="M0 2400 L3600 2400 L3600 0 L0 0  Z" fill="#ffffff" fill-rule="evenodd" fill-opacity="1"/>
<defs>
  <clipPath id="clip741">
    <rect x="322" y="246" width="3232" height="1911"/>
  </clipPath>
</defs>
<path clip-path="url(#clip740)" d="M359.791 2156.51 L3552.76 2156.51 L3552.76 246.944 L359.791 246.944  Z" fill="#ffffff" fill-rule="evenodd" fill-opacity="1"/>
<defs>
  <clipPath id="clip742">
    <rect x="359" y="246" width="3194" height="1911"/>
  </clipPath>
</defs>
<polyline clip-path="url(#clip742)" style="stroke:#000000; stroke-linecap:round; stroke-linejoin:round; stroke-width:2; stroke-opacity:0.1; fill:none" points="504.926,2156.51 504.926,246.944 "/>
<polyline clip-path="url(#clip742)" style="stroke:#000000; stroke-linecap:round; stroke-linejoin:round; stroke-width:2; stroke-opacity:0.1; fill:none" points="2064.38,2156.51 2064.38,246.944 "/>
<polyline clip-path="url(#clip742)" style="stroke:#000000; stroke-linecap:round; stroke-linejoin:round; stroke-width:2; stroke-opacity:0.1; fill:none" points="2736,2156.51 2736,246.944 "/>
<polyline clip-path="url(#clip742)" style="stroke:#000000; stroke-linecap:round; stroke-linejoin:round; stroke-width:2; stroke-opacity:0.1; fill:none" points="3407.62,2156.51 3407.62,246.944 "/>
<polyline clip-path="url(#clip742)" style="stroke:#000000; stroke-linecap:round; stroke-linejoin:round; stroke-width:2; stroke-opacity:0.1; fill:none" points="359.791,1700.94 3552.76,1700.94 "/>
<polyline clip-path="url(#clip742)" style="stroke:#000000; stroke-linecap:round; stroke-linejoin:round; stroke-width:2; stroke-opacity:0.1; fill:none" points="359.791,1139.21 3552.76,1139.21 "/>
<polyline clip-path="url(#clip742)" style="stroke:#000000; stroke-linecap:round; stroke-linejoin:round; stroke-width:2; stroke-opacity:0.1; fill:none" points="359.791,577.475 3552.76,577.475 "/>
<polyline clip-path="url(#clip740)" style="stroke:#000000; stroke-linecap:round; stroke-linejoin:round; stroke-width:4; stroke-opacity:1; fill:none" points="359.791,2156.51 3552.76,2156.51 "/>
<polyline clip-path="url(#clip740)" style="stroke:#000000; stroke-linecap:round; stroke-linejoin:round; stroke-width:4; stroke-opacity:1; fill:none" points="504.926,2156.51 504.926,2137.61 "/>
<polyline clip-path="url(#clip740)" style="stroke:#000000; stroke-linecap:round; stroke-linejoin:round; stroke-width:4; stroke-opacity:1; fill:none" points="2064.38,2156.51 2064.38,2137.61 "/>
<polyline clip-path="url(#clip740)" style="stroke:#000000; stroke-linecap:round; stroke-linejoin:round; stroke-width:4; stroke-opacity:1; fill:none" points="2736,2156.51 2736,2137.61 "/>
<polyline clip-path="url(#clip740)" style="stroke:#000000; stroke-linecap:round; stroke-linejoin:round; stroke-width:4; stroke-opacity:1; fill:none" points="3407.62,2156.51 3407.62,2137.61 "/>
<path clip-path="url(#clip740)" d="M449.452 2224.57 L457.091 2224.57 L457.091 2198.21 L448.781 2199.87 L448.781 2195.61 L457.045 2193.95 L461.72 2193.95 L461.72 2224.57 L469.359 2224.57 L469.359 2228.51 L449.452 2228.51 L449.452 2224.57 Z" fill="#000000" fill-rule="nonzero" fill-opacity="1" /><path clip-path="url(#clip740)" d="M488.804 2197.03 Q485.193 2197.03 483.364 2200.59 Q481.558 2204.13 481.558 2211.26 Q481.558 2218.37 483.364 2221.93 Q485.193 2225.48 488.804 2225.48 Q492.438 2225.48 494.243 2221.93 Q496.072 2218.37 496.072 2211.26 Q496.072 2204.13 494.243 2200.59 Q492.438 2197.03 488.804 2197.03 M488.804 2193.32 Q494.614 2193.32 497.669 2197.93 Q500.748 2202.51 500.748 2211.26 Q500.748 2219.99 497.669 2224.6 Q494.614 2229.18 488.804 2229.18 Q482.993 2229.18 479.915 2224.6 Q476.859 2219.99 476.859 2211.26 Q476.859 2202.51 479.915 2197.93 Q482.993 2193.32 488.804 2193.32 Z" fill="#000000" fill-rule="nonzero" fill-opacity="1" /><path clip-path="url(#clip740)" d="M518.966 2197.03 Q515.354 2197.03 513.526 2200.59 Q511.72 2204.13 511.72 2211.26 Q511.72 2218.37 513.526 2221.93 Q515.354 2225.48 518.966 2225.48 Q522.6 2225.48 524.405 2221.93 Q526.234 2218.37 526.234 2211.26 Q526.234 2204.13 524.405 2200.59 Q522.6 2197.03 518.966 2197.03 M518.966 2193.32 Q524.776 2193.32 527.831 2197.93 Q530.91 2202.51 530.91 2211.26 Q530.91 2219.99 527.831 2224.6 Q524.776 2229.18 518.966 2229.18 Q513.155 2229.18 510.077 2224.6 Q507.021 2219.99 507.021 2211.26 Q507.021 2202.51 510.077 2197.93 Q513.155 2193.32 518.966 2193.32 Z" fill="#000000" fill-rule="nonzero" fill-opacity="1" /><path clip-path="url(#clip740)" d="M549.127 2197.03 Q545.516 2197.03 543.688 2200.59 Q541.882 2204.13 541.882 2211.26 Q541.882 2218.37 543.688 2221.93 Q545.516 2225.48 549.127 2225.48 Q552.762 2225.48 554.567 2221.93 Q556.396 2218.37 556.396 2211.26 Q556.396 2204.13 554.567 2200.59 Q552.762 2197.03 549.127 2197.03 M549.127 2193.32 Q554.938 2193.32 557.993 2197.93 Q561.072 2202.51 561.072 2211.26 Q561.072 2219.99 557.993 2224.6 Q554.938 2229.18 549.127 2229.18 Q543.317 2229.18 540.239 2224.6 Q537.183 2219.99 537.183 2211.26 Q537.183 2202.51 540.239 2197.93 Q543.317 2193.32 549.127 2193.32 Z" fill="#000000" fill-rule="nonzero" fill-opacity="1" /><path clip-path="url(#clip740)" d="M2008.92 2193.95 L2027.27 2193.95 L2027.27 2197.88 L2013.2 2197.88 L2013.2 2206.36 Q2014.22 2206.01 2015.24 2205.85 Q2016.26 2205.66 2017.27 2205.66 Q2023.06 2205.66 2026.44 2208.83 Q2029.82 2212 2029.82 2217.42 Q2029.82 2223 2026.35 2226.1 Q2022.88 2229.18 2016.56 2229.18 Q2014.38 2229.18 2012.11 2228.81 Q2009.87 2228.44 2007.46 2227.7 L2007.46 2223 Q2009.54 2224.13 2011.76 2224.69 Q2013.99 2225.24 2016.46 2225.24 Q2020.47 2225.24 2022.81 2223.14 Q2025.14 2221.03 2025.14 2217.42 Q2025.14 2213.81 2022.81 2211.7 Q2020.47 2209.6 2016.46 2209.6 Q2014.59 2209.6 2012.71 2210.01 Q2010.86 2210.43 2008.92 2211.31 L2008.92 2193.95 Z" fill="#000000" fill-rule="nonzero" fill-opacity="1" /><path clip-path="url(#clip740)" d="M2049.03 2197.03 Q2045.42 2197.03 2043.59 2200.59 Q2041.79 2204.13 2041.79 2211.26 Q2041.79 2218.37 2043.59 2221.93 Q2045.42 2225.48 2049.03 2225.48 Q2052.67 2225.48 2054.47 2221.93 Q2056.3 2218.37 2056.3 2211.26 Q2056.3 2204.13 2054.47 2200.59 Q2052.67 2197.03 2049.03 2197.03 M2049.03 2193.32 Q2054.84 2193.32 2057.9 2197.93 Q2060.98 2202.51 2060.98 2211.26 Q2060.98 2219.99 2057.9 2224.6 Q2054.84 2229.18 2049.03 2229.18 Q2043.22 2229.18 2040.14 2224.6 Q2037.09 2219.99 2037.09 2211.26 Q2037.09 2202.51 2040.14 2197.93 Q2043.22 2193.32 2049.03 2193.32 Z" fill="#000000" fill-rule="nonzero" fill-opacity="1" /><path clip-path="url(#clip740)" d="M2079.2 2197.03 Q2075.58 2197.03 2073.76 2200.59 Q2071.95 2204.13 2071.95 2211.26 Q2071.95 2218.37 2073.76 2221.93 Q2075.58 2225.48 2079.2 2225.48 Q2082.83 2225.48 2084.63 2221.93 Q2086.46 2218.37 2086.46 2211.26 Q2086.46 2204.13 2084.63 2200.59 Q2082.83 2197.03 2079.2 2197.03 M2079.2 2193.32 Q2085.01 2193.32 2088.06 2197.93 Q2091.14 2202.51 2091.14 2211.26 Q2091.14 2219.99 2088.06 2224.6 Q2085.01 2229.18 2079.2 2229.18 Q2073.39 2229.18 2070.31 2224.6 Q2067.25 2219.99 2067.25 2211.26 Q2067.25 2202.51 2070.31 2197.93 Q2073.39 2193.32 2079.2 2193.32 Z" fill="#000000" fill-rule="nonzero" fill-opacity="1" /><path clip-path="url(#clip740)" d="M2109.36 2197.03 Q2105.75 2197.03 2103.92 2200.59 Q2102.11 2204.13 2102.11 2211.26 Q2102.11 2218.37 2103.92 2221.93 Q2105.75 2225.48 2109.36 2225.48 Q2112.99 2225.48 2114.8 2221.93 Q2116.63 2218.37 2116.63 2211.26 Q2116.63 2204.13 2114.8 2200.59 Q2112.99 2197.03 2109.36 2197.03 M2109.36 2193.32 Q2115.17 2193.32 2118.22 2197.93 Q2121.3 2202.51 2121.3 2211.26 Q2121.3 2219.99 2118.22 2224.6 Q2115.17 2229.18 2109.36 2229.18 Q2103.55 2229.18 2100.47 2224.6 Q2097.41 2219.99 2097.41 2211.26 Q2097.41 2202.51 2100.47 2197.93 Q2103.55 2193.32 2109.36 2193.32 Z" fill="#000000" fill-rule="nonzero" fill-opacity="1" /><path clip-path="url(#clip740)" d="M2665.45 2224.57 L2673.08 2224.57 L2673.08 2198.21 L2664.77 2199.87 L2664.77 2195.61 L2673.04 2193.95 L2677.71 2193.95 L2677.71 2224.57 L2685.35 2224.57 L2685.35 2228.51 L2665.45 2228.51 L2665.45 2224.57 Z" fill="#000000" fill-rule="nonzero" fill-opacity="1" /><path clip-path="url(#clip740)" d="M2704.8 2197.03 Q2701.19 2197.03 2699.36 2200.59 Q2697.55 2204.13 2697.55 2211.26 Q2697.55 2218.37 2699.36 2221.93 Q2701.19 2225.48 2704.8 2225.48 Q2708.43 2225.48 2710.24 2221.93 Q2712.07 2218.37 2712.07 2211.26 Q2712.07 2204.13 2710.24 2200.59 Q2708.43 2197.03 2704.8 2197.03 M2704.8 2193.32 Q2710.61 2193.32 2713.66 2197.93 Q2716.74 2202.51 2716.74 2211.26 Q2716.74 2219.99 2713.66 2224.6 Q2710.61 2229.18 2704.8 2229.18 Q2698.99 2229.18 2695.91 2224.6 Q2692.85 2219.99 2692.85 2211.26 Q2692.85 2202.51 2695.91 2197.93 Q2698.99 2193.32 2704.8 2193.32 Z" fill="#000000" fill-rule="nonzero" fill-opacity="1" /><path clip-path="url(#clip740)" d="M2734.96 2197.03 Q2731.35 2197.03 2729.52 2200.59 Q2727.71 2204.13 2727.71 2211.26 Q2727.71 2218.37 2729.52 2221.93 Q2731.35 2225.48 2734.96 2225.48 Q2738.59 2225.48 2740.4 2221.93 Q2742.23 2218.37 2742.23 2211.26 Q2742.23 2204.13 2740.4 2200.59 Q2738.59 2197.03 2734.96 2197.03 M2734.96 2193.32 Q2740.77 2193.32 2743.82 2197.93 Q2746.9 2202.51 2746.9 2211.26 Q2746.9 2219.99 2743.82 2224.6 Q2740.77 2229.18 2734.96 2229.18 Q2729.15 2229.18 2726.07 2224.6 Q2723.01 2219.99 2723.01 2211.26 Q2723.01 2202.51 2726.07 2197.93 Q2729.15 2193.32 2734.96 2193.32 Z" fill="#000000" fill-rule="nonzero" fill-opacity="1" /><path clip-path="url(#clip740)" d="M2765.12 2197.03 Q2761.51 2197.03 2759.68 2200.59 Q2757.88 2204.13 2757.88 2211.26 Q2757.88 2218.37 2759.68 2221.93 Q2761.51 2225.48 2765.12 2225.48 Q2768.76 2225.48 2770.56 2221.93 Q2772.39 2218.37 2772.39 2211.26 Q2772.39 2204.13 2770.56 2200.59 Q2768.76 2197.03 2765.12 2197.03 M2765.12 2193.32 Q2770.93 2193.32 2773.99 2197.93 Q2777.07 2202.51 2777.07 2211.26 Q2777.07 2219.99 2773.99 2224.6 Q2770.93 2229.18 2765.12 2229.18 Q2759.31 2229.18 2756.23 2224.6 Q2753.18 2219.99 2753.18 2211.26 Q2753.18 2202.51 2756.23 2197.93 Q2759.31 2193.32 2765.12 2193.32 Z" fill="#000000" fill-rule="nonzero" fill-opacity="1" /><path clip-path="url(#clip740)" d="M2795.28 2197.03 Q2791.67 2197.03 2789.84 2200.59 Q2788.04 2204.13 2788.04 2211.26 Q2788.04 2218.37 2789.84 2221.93 Q2791.67 2225.48 2795.28 2225.48 Q2798.92 2225.48 2800.72 2221.93 Q2802.55 2218.37 2802.55 2211.26 Q2802.55 2204.13 2800.72 2200.59 Q2798.92 2197.03 2795.28 2197.03 M2795.28 2193.32 Q2801.09 2193.32 2804.15 2197.93 Q2807.23 2202.51 2807.23 2211.26 Q2807.23 2219.99 2804.15 2224.6 Q2801.09 2229.18 2795.28 2229.18 Q2789.47 2229.18 2786.39 2224.6 Q2783.34 2219.99 2783.34 2211.26 Q2783.34 2202.51 2786.39 2197.93 Q2789.47 2193.32 2795.28 2193.32 Z" fill="#000000" fill-rule="nonzero" fill-opacity="1" /><path clip-path="url(#clip740)" d="M3341.15 2224.57 L3357.47 2224.57 L3357.47 2228.51 L3335.53 2228.51 L3335.53 2224.57 Q3338.19 2221.82 3342.77 2217.19 Q3347.38 2212.54 3348.56 2211.19 Q3350.8 2208.67 3351.68 2206.93 Q3352.59 2205.17 3352.59 2203.48 Q3352.59 2200.73 3350.64 2198.99 Q3348.72 2197.26 3345.62 2197.26 Q3343.42 2197.26 3340.97 2198.02 Q3338.54 2198.79 3335.76 2200.34 L3335.76 2195.61 Q3338.58 2194.48 3341.04 2193.9 Q3343.49 2193.32 3345.53 2193.32 Q3350.9 2193.32 3354.09 2196.01 Q3357.29 2198.69 3357.29 2203.18 Q3357.29 2205.31 3356.48 2207.23 Q3355.69 2209.13 3353.58 2211.73 Q3353 2212.4 3349.9 2215.61 Q3346.8 2218.81 3341.15 2224.57 Z" fill="#000000" fill-rule="nonzero" fill-opacity="1" /><path clip-path="url(#clip740)" d="M3377.29 2197.03 Q3373.67 2197.03 3371.85 2200.59 Q3370.04 2204.13 3370.04 2211.26 Q3370.04 2218.37 3371.85 2221.93 Q3373.67 2225.48 3377.29 2225.48 Q3380.92 2225.48 3382.73 2221.93 Q3384.55 2218.37 3384.55 2211.26 Q3384.55 2204.13 3382.73 2200.59 Q3380.92 2197.03 3377.29 2197.03 M3377.29 2193.32 Q3383.1 2193.32 3386.15 2197.93 Q3389.23 2202.51 3389.23 2211.26 Q3389.23 2219.99 3386.15 2224.6 Q3383.1 2229.18 3377.29 2229.18 Q3371.48 2229.18 3368.4 2224.6 Q3365.34 2219.99 3365.34 2211.26 Q3365.34 2202.51 3368.4 2197.93 Q3371.48 2193.32 3377.29 2193.32 Z" fill="#000000" fill-rule="nonzero" fill-opacity="1" /><path clip-path="url(#clip740)" d="M3407.45 2197.03 Q3403.84 2197.03 3402.01 2200.59 Q3400.2 2204.13 3400.2 2211.26 Q3400.2 2218.37 3402.01 2221.93 Q3403.84 2225.48 3407.45 2225.48 Q3411.08 2225.48 3412.89 2221.93 Q3414.72 2218.37 3414.72 2211.26 Q3414.72 2204.13 3412.89 2200.59 Q3411.08 2197.03 3407.45 2197.03 M3407.45 2193.32 Q3413.26 2193.32 3416.31 2197.93 Q3419.39 2202.51 3419.39 2211.26 Q3419.39 2219.99 3416.31 2224.6 Q3413.26 2229.18 3407.45 2229.18 Q3401.64 2229.18 3398.56 2224.6 Q3395.5 2219.99 3395.5 2211.26 Q3395.5 2202.51 3398.56 2197.93 Q3401.64 2193.32 3407.45 2193.32 Z" fill="#000000" fill-rule="nonzero" fill-opacity="1" /><path clip-path="url(#clip740)" d="M3437.61 2197.03 Q3434 2197.03 3432.17 2200.59 Q3430.36 2204.13 3430.36 2211.26 Q3430.36 2218.37 3432.17 2221.93 Q3434 2225.48 3437.61 2225.48 Q3441.24 2225.48 3443.05 2221.93 Q3444.88 2218.37 3444.88 2211.26 Q3444.88 2204.13 3443.05 2200.59 Q3441.24 2197.03 3437.61 2197.03 M3437.61 2193.32 Q3443.42 2193.32 3446.48 2197.93 Q3449.55 2202.51 3449.55 2211.26 Q3449.55 2219.99 3446.48 2224.6 Q3443.42 2229.18 3437.61 2229.18 Q3431.8 2229.18 3428.72 2224.6 Q3425.67 2219.99 3425.67 2211.26 Q3425.67 2202.51 3428.72 2197.93 Q3431.8 2193.32 3437.61 2193.32 Z" fill="#000000" fill-rule="nonzero" fill-opacity="1" /><path clip-path="url(#clip740)" d="M3467.77 2197.03 Q3464.16 2197.03 3462.33 2200.59 Q3460.53 2204.13 3460.53 2211.26 Q3460.53 2218.37 3462.33 2221.93 Q3464.16 2225.48 3467.77 2225.48 Q3471.41 2225.48 3473.21 2221.93 Q3475.04 2218.37 3475.04 2211.26 Q3475.04 2204.13 3473.21 2200.59 Q3471.41 2197.03 3467.77 2197.03 M3467.77 2193.32 Q3473.58 2193.32 3476.64 2197.93 Q3479.72 2202.51 3479.72 2211.26 Q3479.72 2219.99 3476.64 2224.6 Q3473.58 2229.18 3467.77 2229.18 Q3461.96 2229.18 3458.88 2224.6 Q3455.83 2219.99 3455.83 2211.26 Q3455.83 2202.51 3458.88 2197.93 Q3461.96 2193.32 3467.77 2193.32 Z" fill="#000000" fill-rule="nonzero" fill-opacity="1" /><path clip-path="url(#clip740)" d="M1832.16 2308.02 L1832.16 2296.42 L1822.61 2296.42 L1822.61 2291.62 L1837.94 2291.62 L1837.94 2310.17 Q1834.56 2312.57 1830.48 2313.81 Q1826.4 2315.03 1821.77 2315.03 Q1811.64 2315.03 1805.91 2309.12 Q1800.21 2303.19 1800.21 2292.63 Q1800.21 2282.04 1805.91 2276.14 Q1811.64 2270.21 1821.77 2270.21 Q1825.99 2270.21 1829.78 2271.25 Q1833.6 2272.29 1836.82 2274.32 L1836.82 2280.54 Q1833.57 2277.79 1829.93 2276.4 Q1826.28 2275.01 1822.26 2275.01 Q1814.33 2275.01 1810.34 2279.44 Q1806.38 2283.86 1806.38 2292.63 Q1806.38 2301.37 1810.34 2305.8 Q1814.33 2310.22 1822.26 2310.22 Q1825.36 2310.22 1827.79 2309.7 Q1830.22 2309.15 1832.16 2308.02 Z" fill="#000000" fill-rule="nonzero" fill-opacity="1" /><path clip-path="url(#clip740)" d="M1867.17 2286.76 Q1866.27 2286.24 1865.2 2286 Q1864.16 2285.74 1862.89 2285.74 Q1858.37 2285.74 1855.94 2288.7 Q1853.54 2291.62 1853.54 2297.12 L1853.54 2314.19 L1848.19 2314.19 L1848.19 2281.78 L1853.54 2281.78 L1853.54 2286.82 Q1855.22 2283.86 1857.91 2282.45 Q1860.6 2281 1864.45 2281 Q1865 2281 1865.66 2281.09 Q1866.33 2281.14 1867.14 2281.29 L1867.17 2286.76 Z" fill="#000000" fill-rule="nonzero" fill-opacity="1" /><path clip-path="url(#clip740)" d="M1872.75 2281.78 L1878.08 2281.78 L1878.08 2314.19 L1872.75 2314.19 L1872.75 2281.78 M1872.75 2269.16 L1878.08 2269.16 L1878.08 2275.91 L1872.75 2275.91 L1872.75 2269.16 Z" fill="#000000" fill-rule="nonzero" fill-opacity="1" /><path clip-path="url(#clip740)" d="M1910.54 2286.7 L1910.54 2269.16 L1915.87 2269.16 L1915.87 2314.19 L1910.54 2314.19 L1910.54 2309.33 Q1908.86 2312.22 1906.29 2313.64 Q1903.74 2315.03 1900.15 2315.03 Q1894.28 2315.03 1890.58 2310.34 Q1886.9 2305.65 1886.9 2298.01 Q1886.9 2290.37 1890.58 2285.69 Q1894.28 2281 1900.15 2281 Q1903.74 2281 1906.29 2282.42 Q1908.86 2283.81 1910.54 2286.7 M1892.4 2298.01 Q1892.4 2303.89 1894.8 2307.24 Q1897.23 2310.57 1901.46 2310.57 Q1905.68 2310.57 1908.11 2307.24 Q1910.54 2303.89 1910.54 2298.01 Q1910.54 2292.14 1908.11 2288.81 Q1905.68 2285.46 1901.46 2285.46 Q1897.23 2285.46 1894.8 2288.81 Q1892.4 2292.14 1892.4 2298.01 Z" fill="#000000" fill-rule="nonzero" fill-opacity="1" /><path clip-path="url(#clip740)" d="M1966.33 2282.74 L1966.33 2287.77 Q1964.07 2286.61 1961.64 2286.03 Q1959.21 2285.46 1956.61 2285.46 Q1952.64 2285.46 1950.65 2286.67 Q1948.68 2287.89 1948.68 2290.32 Q1948.68 2292.17 1950.1 2293.24 Q1951.51 2294.28 1955.8 2295.24 L1957.62 2295.64 Q1963.29 2296.86 1965.66 2299.08 Q1968.06 2301.28 1968.06 2305.25 Q1968.06 2309.76 1964.48 2312.39 Q1960.92 2315.03 1954.67 2315.03 Q1952.06 2315.03 1949.23 2314.51 Q1946.42 2314.01 1943.3 2313 L1943.3 2307.5 Q1946.25 2309.04 1949.11 2309.82 Q1951.98 2310.57 1954.78 2310.57 Q1958.55 2310.57 1960.57 2309.3 Q1962.6 2308 1962.6 2305.65 Q1962.6 2303.48 1961.12 2302.32 Q1959.67 2301.17 1954.73 2300.1 L1952.87 2299.66 Q1947.93 2298.62 1945.73 2296.48 Q1943.53 2294.31 1943.53 2290.55 Q1943.53 2285.98 1946.77 2283.49 Q1950.01 2281 1955.97 2281 Q1958.92 2281 1961.53 2281.43 Q1964.13 2281.87 1966.33 2282.74 Z" fill="#000000" fill-rule="nonzero" fill-opacity="1" /><path clip-path="url(#clip740)" d="M1976.54 2281.78 L1981.87 2281.78 L1981.87 2314.19 L1976.54 2314.19 L1976.54 2281.78 M1976.54 2269.16 L1981.87 2269.16 L1981.87 2275.91 L1976.54 2275.91 L1976.54 2269.16 Z" fill="#000000" fill-rule="nonzero" fill-opacity="1" /><path clip-path="url(#clip740)" d="M1990.69 2281.78 L2015.98 2281.78 L2015.98 2286.64 L1995.96 2309.93 L2015.98 2309.93 L2015.98 2314.19 L1989.97 2314.19 L1989.97 2309.33 L2009.99 2286.03 L1990.69 2286.03 L1990.69 2281.78 Z" fill="#000000" fill-rule="nonzero" fill-opacity="1" /><path clip-path="url(#clip740)" d="M2051.83 2296.65 L2051.83 2299.26 L2027.35 2299.26 Q2027.7 2304.75 2030.65 2307.65 Q2033.63 2310.51 2038.93 2310.51 Q2041.99 2310.51 2044.86 2309.76 Q2047.75 2309.01 2050.59 2307.5 L2050.59 2312.54 Q2047.72 2313.75 2044.71 2314.39 Q2041.7 2315.03 2038.61 2315.03 Q2030.85 2315.03 2026.31 2310.51 Q2021.8 2306 2021.8 2298.3 Q2021.8 2290.35 2026.08 2285.69 Q2030.39 2281 2037.68 2281 Q2044.22 2281 2048.01 2285.22 Q2051.83 2289.42 2051.83 2296.65 M2046.51 2295.09 Q2046.45 2290.72 2044.05 2288.12 Q2041.68 2285.51 2037.74 2285.51 Q2033.28 2285.51 2030.59 2288.03 Q2027.93 2290.55 2027.53 2295.12 L2046.51 2295.09 Z" fill="#000000" fill-rule="nonzero" fill-opacity="1" /><path clip-path="url(#clip740)" d="M2079.64 2270.99 L2087.51 2270.99 L2106.66 2307.13 L2106.66 2270.99 L2112.33 2270.99 L2112.33 2314.19 L2104.46 2314.19 L2085.31 2278.05 L2085.31 2314.19 L2079.64 2314.19 L2079.64 2270.99 Z" fill="#000000" fill-rule="nonzero" fill-opacity="1" /><polyline clip-path="url(#clip740)" style="stroke:#000000; stroke-linecap:round; stroke-linejoin:round; stroke-width:4; stroke-opacity:1; fill:none" points="359.791,2156.51 359.791,246.944 "/>
<polyline clip-path="url(#clip740)" style="stroke:#000000; stroke-linecap:round; stroke-linejoin:round; stroke-width:4; stroke-opacity:1; fill:none" points="359.791,1700.94 378.689,1700.94 "/>
<polyline clip-path="url(#clip740)" style="stroke:#000000; stroke-linecap:round; stroke-linejoin:round; stroke-width:4; stroke-opacity:1; fill:none" points="359.791,1139.21 378.689,1139.21 "/>
<polyline clip-path="url(#clip740)" style="stroke:#000000; stroke-linecap:round; stroke-linejoin:round; stroke-width:4; stroke-opacity:1; fill:none" points="359.791,577.475 378.689,577.475 "/>
<path clip-path="url(#clip740)" d="M168.412 1720.73 L176.051 1720.73 L176.051 1694.37 L167.741 1696.03 L167.741 1691.77 L176.005 1690.11 L180.681 1690.11 L180.681 1720.73 L188.32 1720.73 L188.32 1724.67 L168.412 1724.67 L168.412 1720.73 Z" fill="#000000" fill-rule="nonzero" fill-opacity="1" /><path clip-path="url(#clip740)" d="M207.764 1693.19 Q204.153 1693.19 202.324 1696.75 Q200.519 1700.29 200.519 1707.42 Q200.519 1714.53 202.324 1718.09 Q204.153 1721.63 207.764 1721.63 Q211.398 1721.63 213.204 1718.09 Q215.032 1714.53 215.032 1707.42 Q215.032 1700.29 213.204 1696.75 Q211.398 1693.19 207.764 1693.19 M207.764 1689.48 Q213.574 1689.48 216.63 1694.09 Q219.708 1698.67 219.708 1707.42 Q219.708 1716.15 216.63 1720.75 Q213.574 1725.34 207.764 1725.34 Q201.954 1725.34 198.875 1720.75 Q195.82 1716.15 195.82 1707.42 Q195.82 1698.67 198.875 1694.09 Q201.954 1689.48 207.764 1689.48 Z" fill="#000000" fill-rule="nonzero" fill-opacity="1" /><path clip-path="url(#clip740)" d="M219.708 1683.58 L243.82 1683.58 L243.82 1686.78 L219.708 1686.78 L219.708 1683.58 Z" fill="#000000" fill-rule="nonzero" fill-opacity="1" /><path clip-path="url(#clip740)" d="M252.678 1694.06 L258.885 1694.06 L258.885 1672.64 L252.133 1673.99 L252.133 1670.53 L258.847 1669.18 L262.646 1669.18 L262.646 1694.06 L268.853 1694.06 L268.853 1697.26 L252.678 1697.26 L252.678 1694.06 Z" fill="#000000" fill-rule="nonzero" fill-opacity="1" /><path clip-path="url(#clip740)" d="M276.527 1692.48 L280.495 1692.48 L280.495 1697.26 L276.527 1697.26 L276.527 1692.48 Z" fill="#000000" fill-rule="nonzero" fill-opacity="1" /><path clip-path="url(#clip740)" d="M288.808 1669.18 L303.723 1669.18 L303.723 1672.37 L292.288 1672.37 L292.288 1679.26 Q293.115 1678.98 293.943 1678.84 Q294.77 1678.69 295.598 1678.69 Q300.3 1678.69 303.046 1681.27 Q305.791 1683.85 305.791 1688.25 Q305.791 1692.78 302.97 1695.3 Q300.149 1697.8 295.015 1697.8 Q293.247 1697.8 291.404 1697.5 Q289.579 1697.2 287.623 1696.6 L287.623 1692.78 Q289.316 1693.7 291.121 1694.15 Q292.927 1694.6 294.939 1694.6 Q298.193 1694.6 300.093 1692.89 Q301.992 1691.18 301.992 1688.25 Q301.992 1685.31 300.093 1683.6 Q298.193 1681.89 294.939 1681.89 Q293.416 1681.89 291.893 1682.23 Q290.388 1682.57 288.808 1683.28 L288.808 1669.18 Z" fill="#000000" fill-rule="nonzero" fill-opacity="1" /><path clip-path="url(#clip740)" d="M167.604 1159 L175.242 1159 L175.242 1132.63 L166.932 1134.3 L166.932 1130.04 L175.196 1128.37 L179.872 1128.37 L179.872 1159 L187.511 1159 L187.511 1162.93 L167.604 1162.93 L167.604 1159 Z" fill="#000000" fill-rule="nonzero" fill-opacity="1" /><path clip-path="url(#clip740)" d="M206.955 1131.45 Q203.344 1131.45 201.515 1135.02 Q199.71 1138.56 199.71 1145.69 Q199.71 1152.8 201.515 1156.36 Q203.344 1159.9 206.955 1159.9 Q210.589 1159.9 212.395 1156.36 Q214.224 1152.8 214.224 1145.69 Q214.224 1138.56 212.395 1135.02 Q210.589 1131.45 206.955 1131.45 M206.955 1127.75 Q212.765 1127.75 215.821 1132.36 Q218.9 1136.94 218.9 1145.69 Q218.9 1154.42 215.821 1159.02 Q212.765 1163.61 206.955 1163.61 Q201.145 1163.61 198.066 1159.02 Q195.011 1154.42 195.011 1145.69 Q195.011 1136.94 198.066 1132.36 Q201.145 1127.75 206.955 1127.75 Z" fill="#000000" fill-rule="nonzero" fill-opacity="1" /><path clip-path="url(#clip740)" d="M218.9 1121.85 L243.011 1121.85 L243.011 1125.05 L218.9 1125.05 L218.9 1121.85 Z" fill="#000000" fill-rule="nonzero" fill-opacity="1" /><path clip-path="url(#clip740)" d="M251.87 1132.33 L258.076 1132.33 L258.076 1110.91 L251.324 1112.26 L251.324 1108.8 L258.039 1107.44 L261.838 1107.44 L261.838 1132.33 L268.044 1132.33 L268.044 1135.52 L251.87 1135.52 L251.87 1132.33 Z" fill="#000000" fill-rule="nonzero" fill-opacity="1" /><path clip-path="url(#clip740)" d="M275.718 1130.75 L279.686 1130.75 L279.686 1135.52 L275.718 1135.52 L275.718 1130.75 Z" fill="#000000" fill-rule="nonzero" fill-opacity="1" /><path clip-path="url(#clip740)" d="M296.087 1109.95 Q293.153 1109.95 291.667 1112.84 Q290.2 1115.72 290.2 1121.51 Q290.2 1127.29 291.667 1130.18 Q293.153 1133.06 296.087 1133.06 Q299.04 1133.06 300.507 1130.18 Q301.992 1127.29 301.992 1121.51 Q301.992 1115.72 300.507 1112.84 Q299.04 1109.95 296.087 1109.95 M296.087 1106.94 Q300.807 1106.94 303.29 1110.68 Q305.791 1114.4 305.791 1121.51 Q305.791 1128.6 303.29 1132.35 Q300.807 1136.07 296.087 1136.07 Q291.366 1136.07 288.865 1132.35 Q286.382 1128.6 286.382 1121.51 Q286.382 1114.4 288.865 1110.68 Q291.366 1106.94 296.087 1106.94 Z" fill="#000000" fill-rule="nonzero" fill-opacity="1" /><path clip-path="url(#clip740)" d="M168.412 597.268 L176.051 597.268 L176.051 570.902 L167.741 572.569 L167.741 568.31 L176.005 566.643 L180.681 566.643 L180.681 597.268 L188.32 597.268 L188.32 601.203 L168.412 601.203 L168.412 597.268 Z" fill="#000000" fill-rule="nonzero" fill-opacity="1" /><path clip-path="url(#clip740)" d="M207.764 569.722 Q204.153 569.722 202.324 573.286 Q200.519 576.828 200.519 583.958 Q200.519 591.064 202.324 594.629 Q204.153 598.171 207.764 598.171 Q211.398 598.171 213.204 594.629 Q215.032 591.064 215.032 583.958 Q215.032 576.828 213.204 573.286 Q211.398 569.722 207.764 569.722 M207.764 566.018 Q213.574 566.018 216.63 570.624 Q219.708 575.208 219.708 583.958 Q219.708 592.684 216.63 597.291 Q213.574 601.874 207.764 601.874 Q201.954 601.874 198.875 597.291 Q195.82 592.684 195.82 583.958 Q195.82 575.208 198.875 570.624 Q201.954 566.018 207.764 566.018 Z" fill="#000000" fill-rule="nonzero" fill-opacity="1" /><path clip-path="url(#clip740)" d="M219.708 560.119 L243.82 560.119 L243.82 563.317 L219.708 563.317 L219.708 560.119 Z" fill="#000000" fill-rule="nonzero" fill-opacity="1" /><path clip-path="url(#clip740)" d="M260.145 548.214 Q257.211 548.214 255.725 551.11 Q254.258 553.988 254.258 559.781 Q254.258 565.555 255.725 568.451 Q257.211 571.329 260.145 571.329 Q263.098 571.329 264.565 568.451 Q266.051 565.555 266.051 559.781 Q266.051 553.988 264.565 551.11 Q263.098 548.214 260.145 548.214 M260.145 545.205 Q264.866 545.205 267.348 548.947 Q269.85 552.671 269.85 559.781 Q269.85 566.871 267.348 570.614 Q264.866 574.338 260.145 574.338 Q255.424 574.338 252.923 570.614 Q250.44 566.871 250.44 559.781 Q250.44 552.671 252.923 548.947 Q255.424 545.205 260.145 545.205 Z" fill="#000000" fill-rule="nonzero" fill-opacity="1" /><path clip-path="url(#clip740)" d="M276.527 569.015 L280.495 569.015 L280.495 573.793 L276.527 573.793 L276.527 569.015 Z" fill="#000000" fill-rule="nonzero" fill-opacity="1" /><path clip-path="url(#clip740)" d="M288.808 545.713 L303.723 545.713 L303.723 548.91 L292.288 548.91 L292.288 555.793 Q293.115 555.511 293.943 555.38 Q294.77 555.229 295.598 555.229 Q300.3 555.229 303.046 557.806 Q305.791 560.383 305.791 564.784 Q305.791 569.316 302.97 571.837 Q300.149 574.338 295.015 574.338 Q293.247 574.338 291.404 574.037 Q289.579 573.736 287.623 573.134 L287.623 569.316 Q289.316 570.238 291.121 570.689 Q292.927 571.141 294.939 571.141 Q298.193 571.141 300.093 569.429 Q301.992 567.718 301.992 564.784 Q301.992 561.85 300.093 560.138 Q298.193 558.427 294.939 558.427 Q293.416 558.427 291.893 558.765 Q290.388 559.104 288.808 559.818 L288.808 545.713 Z" fill="#000000" fill-rule="nonzero" fill-opacity="1" /><path clip-path="url(#clip740)" d="M58.1901 1374.69 L63.8903 1374.69 Q62.2989 1378.01 61.5176 1380.96 Q60.7364 1383.92 60.7364 1386.66 Q60.7364 1391.44 62.5882 1394.04 Q64.4401 1396.62 67.8544 1396.62 Q70.719 1396.62 72.1947 1394.91 Q73.6414 1393.17 74.5384 1388.37 L75.2618 1384.84 Q76.506 1378.3 79.6599 1375.21 Q82.7849 1372.08 88.0511 1372.08 Q94.33 1372.08 97.5707 1376.31 Q100.811 1380.5 100.811 1388.63 Q100.811 1391.7 100.117 1395.17 Q99.4225 1398.61 98.0626 1402.32 L92.0441 1402.32 Q94.0406 1398.76 95.0533 1395.34 Q96.0661 1391.93 96.0661 1388.63 Q96.0661 1383.63 94.0985 1380.91 Q92.1309 1378.19 88.4851 1378.19 Q85.3022 1378.19 83.5083 1380.15 Q81.7143 1382.09 80.8173 1386.55 L80.1229 1390.11 Q78.8208 1396.65 76.043 1399.57 Q73.2653 1402.49 68.3174 1402.49 Q62.5882 1402.49 59.2896 1398.47 Q55.991 1394.42 55.991 1387.33 Q55.991 1384.29 56.5408 1381.14 Q57.0906 1377.98 58.1901 1374.69 Z" fill="#000000" fill-rule="nonzero" fill-opacity="1" /><path clip-path="url(#clip740)" d="M71.2977 1350.64 Q71.2977 1354.92 74.6541 1357.41 Q77.9817 1359.9 83.7976 1359.9 Q89.6135 1359.9 92.97 1357.44 Q96.2975 1354.95 96.2975 1350.64 Q96.2975 1346.39 92.9411 1343.9 Q89.5846 1341.41 83.7976 1341.41 Q78.0395 1341.41 74.6831 1343.9 Q71.2977 1346.39 71.2977 1350.64 M66.7838 1350.64 Q66.7838 1343.7 71.2977 1339.73 Q75.8115 1335.77 83.7976 1335.77 Q91.7547 1335.77 96.2975 1339.73 Q100.811 1343.7 100.811 1350.64 Q100.811 1357.61 96.2975 1361.58 Q91.7547 1365.51 83.7976 1365.51 Q75.8115 1365.51 71.2977 1361.58 Q66.7838 1357.61 66.7838 1350.64 Z" fill="#000000" fill-rule="nonzero" fill-opacity="1" /><path clip-path="url(#clip740)" d="M54.9494 1326.94 L54.9494 1321.62 L99.9723 1321.62 L99.9723 1326.94 L54.9494 1326.94 Z" fill="#000000" fill-rule="nonzero" fill-opacity="1" /><path clip-path="url(#clip740)" d="M67.565 1314.3 L67.565 1308.66 L94.764 1298.53 L67.565 1288.4 L67.565 1282.76 L99.9723 1294.91 L99.9723 1302.15 L67.565 1314.3 Z" fill="#000000" fill-rule="nonzero" fill-opacity="1" /><path clip-path="url(#clip740)" d="M82.4377 1247.69 L85.0418 1247.69 L85.0418 1272.17 Q90.5395 1271.82 93.433 1268.87 Q96.2975 1265.89 96.2975 1260.59 Q96.2975 1257.53 95.5452 1254.66 Q94.7929 1251.77 93.2883 1248.93 L98.323 1248.93 Q99.5383 1251.8 100.175 1254.81 Q100.811 1257.82 100.811 1260.91 Q100.811 1268.67 96.2975 1273.21 Q91.7837 1277.72 84.087 1277.72 Q76.1298 1277.72 71.4713 1273.44 Q66.7838 1269.13 66.7838 1261.84 Q66.7838 1255.3 71.0083 1251.51 Q75.2039 1247.69 82.4377 1247.69 M80.8752 1253.01 Q76.506 1253.07 73.9018 1255.47 Q71.2977 1257.85 71.2977 1261.78 Q71.2977 1266.24 73.815 1268.93 Q76.3324 1271.59 80.9041 1271.99 L80.8752 1253.01 Z" fill="#000000" fill-rule="nonzero" fill-opacity="1" /><path clip-path="url(#clip740)" d="M58.3637 1214.85 L67.565 1214.85 L67.565 1203.88 L71.7028 1203.88 L71.7028 1214.85 L89.2953 1214.85 Q93.2594 1214.85 94.3878 1213.78 Q95.5163 1212.68 95.5163 1209.35 L95.5163 1203.88 L99.9723 1203.88 L99.9723 1209.35 Q99.9723 1215.51 97.6864 1217.86 Q95.3716 1220.2 89.2953 1220.2 L71.7028 1220.2 L71.7028 1224.11 L67.565 1224.11 L67.565 1220.2 L58.3637 1220.2 L58.3637 1214.85 Z" fill="#000000" fill-rule="nonzero" fill-opacity="1" /><path clip-path="url(#clip740)" d="M67.565 1196.88 L67.565 1191.56 L99.9723 1191.56 L99.9723 1196.88 L67.565 1196.88 M54.9494 1196.88 L54.9494 1191.56 L61.6912 1191.56 L61.6912 1196.88 L54.9494 1196.88 Z" fill="#000000" fill-rule="nonzero" fill-opacity="1" /><path clip-path="url(#clip740)" d="M73.7861 1155.18 Q70.1981 1153.19 68.491 1150.41 Q66.7838 1147.63 66.7838 1143.87 Q66.7838 1138.81 70.3428 1136.06 Q73.8729 1133.31 80.4122 1133.31 L99.9723 1133.31 L99.9723 1138.66 L80.5858 1138.66 Q75.9273 1138.66 73.6703 1140.31 Q71.4134 1141.96 71.4134 1145.35 Q71.4134 1149.48 74.1622 1151.89 Q76.9111 1154.29 81.6564 1154.29 L99.9723 1154.29 L99.9723 1159.64 L80.5858 1159.64 Q75.8983 1159.64 73.6703 1161.29 Q71.4134 1162.94 71.4134 1166.38 Q71.4134 1170.46 74.1912 1172.86 Q76.94 1175.26 81.6564 1175.26 L99.9723 1175.26 L99.9723 1180.62 L67.565 1180.62 L67.565 1175.26 L72.5997 1175.26 Q69.6194 1173.44 68.2016 1170.9 Q66.7838 1168.35 66.7838 1164.85 Q66.7838 1161.32 68.5778 1158.86 Q70.3717 1156.37 73.7861 1155.18 Z" fill="#000000" fill-rule="nonzero" fill-opacity="1" /><path clip-path="url(#clip740)" d="M82.4377 1094.97 L85.0418 1094.97 L85.0418 1119.45 Q90.5395 1119.1 93.433 1116.15 Q96.2975 1113.17 96.2975 1107.88 Q96.2975 1104.81 95.5452 1101.94 Q94.7929 1099.05 93.2883 1096.21 L98.323 1096.21 Q99.5383 1099.08 100.175 1102.09 Q100.811 1105.1 100.811 1108.19 Q100.811 1115.95 96.2975 1120.49 Q91.7837 1125 84.087 1125 Q76.1298 1125 71.4713 1120.72 Q66.7838 1116.41 66.7838 1109.12 Q66.7838 1102.58 71.0083 1098.79 Q75.2039 1094.97 82.4377 1094.97 M80.8752 1100.29 Q76.506 1100.35 73.9018 1102.75 Q71.2977 1105.13 71.2977 1109.06 Q71.2977 1113.52 73.815 1116.21 Q76.3324 1118.87 80.9041 1119.28 L80.8752 1100.29 Z" fill="#000000" fill-rule="nonzero" fill-opacity="1" /><path clip-path="url(#clip740)" d="M55.0072 1054.61 Q61.6623 1058.48 68.1727 1060.36 Q74.6831 1062.24 81.3671 1062.24 Q88.0511 1062.24 94.6193 1060.36 Q101.159 1058.45 107.785 1054.61 L107.785 1059.24 Q100.985 1063.58 94.4168 1065.75 Q87.8485 1067.89 81.3671 1067.89 Q74.9145 1067.89 68.3752 1065.75 Q61.8359 1063.6 55.0072 1059.24 L55.0072 1054.61 Z" fill="#000000" fill-rule="nonzero" fill-opacity="1" /><path clip-path="url(#clip740)" d="M68.5199 1023.62 L73.5546 1023.62 Q72.3972 1025.87 71.8185 1028.3 Q71.2398 1030.73 71.2398 1033.34 Q71.2398 1037.3 72.4551 1039.3 Q73.6703 1041.27 76.1009 1041.27 Q77.9527 1041.27 79.0233 1039.85 Q80.065 1038.43 81.0198 1034.15 L81.4249 1032.33 Q82.6402 1026.65 84.8682 1024.28 Q87.0673 1021.88 91.0314 1021.88 Q95.5452 1021.88 98.1783 1025.47 Q100.811 1029.03 100.811 1035.28 Q100.811 1037.88 100.291 1040.72 Q99.7987 1043.52 98.7859 1046.65 L93.2883 1046.65 Q94.8218 1043.7 95.6031 1040.83 Q96.3554 1037.97 96.3554 1035.16 Q96.3554 1031.4 95.0823 1029.37 Q93.7802 1027.35 91.4364 1027.35 Q89.2663 1027.35 88.1089 1028.82 Q86.9515 1030.27 85.8809 1035.22 L85.4469 1037.07 Q84.4052 1042.02 82.264 1044.22 Q80.0939 1046.42 76.3324 1046.42 Q71.7606 1046.42 69.2722 1043.18 Q66.7838 1039.94 66.7838 1033.98 Q66.7838 1031.02 67.2178 1028.42 Q67.6519 1025.82 68.5199 1023.62 Z" fill="#000000" fill-rule="nonzero" fill-opacity="1" /><path clip-path="url(#clip740)" d="M55.0072 1014.24 L55.0072 1009.61 Q61.8359 1005.27 68.3752 1003.13 Q74.9145 1000.96 81.3671 1000.96 Q87.8485 1000.96 94.4168 1003.13 Q100.985 1005.27 107.785 1009.61 L107.785 1014.24 Q101.159 1010.39 94.6193 1008.51 Q88.0511 1006.6 81.3671 1006.6 Q74.6831 1006.6 68.1727 1008.51 Q61.6623 1010.39 55.0072 1014.24 Z" fill="#000000" fill-rule="nonzero" fill-opacity="1" /><path clip-path="url(#clip740)" d="M1257.98 125.969 L1257.98 133.949 Q1253.32 131.721 1249.19 130.627 Q1245.06 129.534 1241.21 129.534 Q1234.52 129.534 1230.88 132.126 Q1227.27 134.719 1227.27 139.499 Q1227.27 143.509 1229.66 145.575 Q1232.09 147.601 1238.82 148.857 L1243.76 149.869 Q1252.92 151.611 1257.25 156.027 Q1261.62 160.402 1261.62 167.774 Q1261.62 176.565 1255.71 181.102 Q1249.84 185.639 1238.45 185.639 Q1234.16 185.639 1229.3 184.667 Q1224.48 183.694 1219.29 181.79 L1219.29 173.365 Q1224.28 176.16 1229.06 177.577 Q1233.84 178.995 1238.45 178.995 Q1245.46 178.995 1249.27 176.241 Q1253.08 173.486 1253.08 168.382 Q1253.08 163.926 1250.32 161.414 Q1247.61 158.903 1241.37 157.647 L1236.39 156.675 Q1227.23 154.852 1223.14 150.963 Q1219.05 147.074 1219.05 140.147 Q1219.05 132.126 1224.68 127.508 Q1230.35 122.89 1240.28 122.89 Q1244.53 122.89 1248.95 123.66 Q1253.36 124.43 1257.98 125.969 Z" fill="#000000" fill-rule="nonzero" fill-opacity="1" /><path clip-path="url(#clip740)" d="M1291.64 144.32 Q1285.65 144.32 1282.16 149.019 Q1278.68 153.677 1278.68 161.819 Q1278.68 169.962 1282.12 174.661 Q1285.61 179.319 1291.64 179.319 Q1297.6 179.319 1301.08 174.62 Q1304.56 169.921 1304.56 161.819 Q1304.56 153.758 1301.08 149.059 Q1297.6 144.32 1291.64 144.32 M1291.64 138 Q1301.36 138 1306.91 144.32 Q1312.46 150.639 1312.46 161.819 Q1312.46 172.959 1306.91 179.319 Q1301.36 185.639 1291.64 185.639 Q1281.88 185.639 1276.33 179.319 Q1270.82 172.959 1270.82 161.819 Q1270.82 150.639 1276.33 144.32 Q1281.88 138 1291.64 138 Z" fill="#000000" fill-rule="nonzero" fill-opacity="1" /><path clip-path="url(#clip740)" d="M1324.82 121.432 L1332.27 121.432 L1332.27 184.464 L1324.82 184.464 L1324.82 121.432 Z" fill="#000000" fill-rule="nonzero" fill-opacity="1" /><path clip-path="url(#clip740)" d="M1342.52 139.094 L1350.42 139.094 L1364.6 177.172 L1378.78 139.094 L1386.68 139.094 L1369.66 184.464 L1359.53 184.464 L1342.52 139.094 Z" fill="#000000" fill-rule="nonzero" fill-opacity="1" /><path clip-path="url(#clip740)" d="M1435.77 159.916 L1435.77 163.561 L1401.5 163.561 Q1401.99 171.258 1406.12 175.309 Q1410.29 179.319 1417.71 179.319 Q1422 179.319 1426.01 178.266 Q1430.06 177.213 1434.03 175.106 L1434.03 182.155 Q1430.02 183.856 1425.81 184.748 Q1421.59 185.639 1417.26 185.639 Q1406.4 185.639 1400.04 179.319 Q1393.72 173 1393.72 162.225 Q1393.72 151.085 1399.72 144.563 Q1405.76 138 1415.96 138 Q1425.12 138 1430.43 143.914 Q1435.77 149.788 1435.77 159.916 M1428.32 157.728 Q1428.24 151.611 1424.88 147.965 Q1421.55 144.32 1416.05 144.32 Q1409.81 144.32 1406.04 147.844 Q1402.31 151.368 1401.75 157.769 L1428.32 157.728 Z" fill="#000000" fill-rule="nonzero" fill-opacity="1" /><path clip-path="url(#clip740)" d="M1481.75 126.212 L1481.75 139.094 L1497.1 139.094 L1497.1 144.887 L1481.75 144.887 L1481.75 169.516 Q1481.75 175.066 1483.25 176.646 Q1484.79 178.226 1489.45 178.226 L1497.1 178.226 L1497.1 184.464 L1489.45 184.464 Q1480.82 184.464 1477.54 181.264 Q1474.26 178.023 1474.26 169.516 L1474.26 144.887 L1468.79 144.887 L1468.79 139.094 L1474.26 139.094 L1474.26 126.212 L1481.75 126.212 Z" fill="#000000" fill-rule="nonzero" fill-opacity="1" /><path clip-path="url(#clip740)" d="M1506.91 139.094 L1514.36 139.094 L1514.36 184.464 L1506.91 184.464 L1506.91 139.094 M1506.91 121.432 L1514.36 121.432 L1514.36 130.871 L1506.91 130.871 L1506.91 121.432 Z" fill="#000000" fill-rule="nonzero" fill-opacity="1" /><path clip-path="url(#clip740)" d="M1565.28 147.803 Q1568.08 142.78 1571.96 140.39 Q1575.85 138 1581.12 138 Q1588.21 138 1592.06 142.983 Q1595.91 147.925 1595.91 157.08 L1595.91 184.464 L1588.41 184.464 L1588.41 157.323 Q1588.41 150.801 1586.1 147.641 Q1583.79 144.482 1579.05 144.482 Q1573.26 144.482 1569.9 148.33 Q1566.54 152.178 1566.54 158.822 L1566.54 184.464 L1559.04 184.464 L1559.04 157.323 Q1559.04 150.76 1556.73 147.641 Q1554.42 144.482 1549.6 144.482 Q1543.89 144.482 1540.53 148.37 Q1537.17 152.219 1537.17 158.822 L1537.17 184.464 L1529.67 184.464 L1529.67 139.094 L1537.17 139.094 L1537.17 146.142 Q1539.72 141.97 1543.28 139.985 Q1546.85 138 1551.75 138 Q1556.69 138 1560.14 140.512 Q1563.62 143.023 1565.28 147.803 Z" fill="#000000" fill-rule="nonzero" fill-opacity="1" /><path clip-path="url(#clip740)" d="M1649.58 159.916 L1649.58 163.561 L1615.31 163.561 Q1615.8 171.258 1619.93 175.309 Q1624.1 179.319 1631.51 179.319 Q1635.81 179.319 1639.82 178.266 Q1643.87 177.213 1647.84 175.106 L1647.84 182.155 Q1643.83 183.856 1639.61 184.748 Q1635.4 185.639 1631.07 185.639 Q1620.21 185.639 1613.85 179.319 Q1607.53 173 1607.53 162.225 Q1607.53 151.085 1613.53 144.563 Q1619.56 138 1629.77 138 Q1638.93 138 1644.23 143.914 Q1649.58 149.788 1649.58 159.916 M1642.13 157.728 Q1642.05 151.611 1638.68 147.965 Q1635.36 144.32 1629.85 144.32 Q1623.61 144.32 1619.85 147.844 Q1616.12 151.368 1615.55 157.769 L1642.13 157.728 Z" fill="#000000" fill-rule="nonzero" fill-opacity="1" /><path clip-path="url(#clip740)" d="M1682.84 139.094 L1690.74 139.094 L1704.92 177.172 L1719.09 139.094 L1726.99 139.094 L1709.98 184.464 L1699.85 184.464 L1682.84 139.094 Z" fill="#000000" fill-rule="nonzero" fill-opacity="1" /><path clip-path="url(#clip740)" d="M1766.21 140.431 L1766.21 147.479 Q1763.05 145.859 1759.64 145.049 Q1756.24 144.239 1752.59 144.239 Q1747.04 144.239 1744.25 145.94 Q1741.49 147.641 1741.49 151.044 Q1741.49 153.637 1743.48 155.135 Q1745.46 156.594 1751.46 157.931 L1754.01 158.498 Q1761.95 160.199 1765.27 163.318 Q1768.64 166.397 1768.64 171.947 Q1768.64 178.266 1763.61 181.952 Q1758.63 185.639 1749.88 185.639 Q1746.23 185.639 1742.26 184.91 Q1738.34 184.221 1733.96 182.803 L1733.96 175.106 Q1738.09 177.253 1742.1 178.347 Q1746.11 179.4 1750.04 179.4 Q1755.31 179.4 1758.14 177.618 Q1760.98 175.795 1760.98 172.514 Q1760.98 169.476 1758.91 167.855 Q1756.89 166.235 1749.96 164.736 L1747.37 164.128 Q1740.44 162.67 1737.36 159.672 Q1734.28 156.634 1734.28 151.368 Q1734.28 144.968 1738.82 141.484 Q1743.36 138 1751.7 138 Q1755.83 138 1759.48 138.608 Q1763.13 139.215 1766.21 140.431 Z" fill="#000000" fill-rule="nonzero" fill-opacity="1" /><path clip-path="url(#clip740)" d="M1836.73 161.252 Q1836.73 153.151 1833.37 148.695 Q1830.05 144.239 1824.01 144.239 Q1818.02 144.239 1814.65 148.695 Q1811.33 153.151 1811.33 161.252 Q1811.33 169.314 1814.65 173.77 Q1818.02 178.226 1824.01 178.226 Q1830.05 178.226 1833.37 173.77 Q1836.73 169.314 1836.73 161.252 M1844.19 178.833 Q1844.19 190.419 1839.04 196.05 Q1833.9 201.721 1823.28 201.721 Q1819.35 201.721 1815.87 201.113 Q1812.39 200.546 1809.1 199.331 L1809.1 192.08 Q1812.39 193.862 1815.59 194.713 Q1818.79 195.563 1822.11 195.563 Q1829.44 195.563 1833.09 191.715 Q1836.73 187.907 1836.73 180.17 L1836.73 176.484 Q1834.42 180.494 1830.82 182.479 Q1827.21 184.464 1822.19 184.464 Q1813.84 184.464 1808.74 178.104 Q1803.64 171.744 1803.64 161.252 Q1803.64 150.72 1808.74 144.36 Q1813.84 138 1822.19 138 Q1827.21 138 1830.82 139.985 Q1834.42 141.97 1836.73 145.98 L1836.73 139.094 L1844.19 139.094 L1844.19 178.833 Z" fill="#000000" fill-rule="nonzero" fill-opacity="1" /><path clip-path="url(#clip740)" d="M1885.83 146.061 Q1884.57 145.332 1883.07 145.008 Q1881.62 144.644 1879.83 144.644 Q1873.51 144.644 1870.11 148.776 Q1866.75 152.867 1866.75 160.564 L1866.75 184.464 L1859.25 184.464 L1859.25 139.094 L1866.75 139.094 L1866.75 146.142 Q1869.1 142.011 1872.87 140.026 Q1876.63 138 1882.02 138 Q1882.79 138 1883.72 138.122 Q1884.65 138.203 1885.79 138.405 L1885.83 146.061 Z" fill="#000000" fill-rule="nonzero" fill-opacity="1" /><path clip-path="url(#clip740)" d="M1893.65 139.094 L1901.1 139.094 L1901.1 184.464 L1893.65 184.464 L1893.65 139.094 M1893.65 121.432 L1901.1 121.432 L1901.1 130.871 L1893.65 130.871 L1893.65 121.432 Z" fill="#000000" fill-rule="nonzero" fill-opacity="1" /><path clip-path="url(#clip740)" d="M1946.55 145.98 L1946.55 121.432 L1954.01 121.432 L1954.01 184.464 L1946.55 184.464 L1946.55 177.658 Q1944.2 181.709 1940.6 183.694 Q1937.03 185.639 1932.01 185.639 Q1923.79 185.639 1918.6 179.076 Q1913.46 172.514 1913.46 161.819 Q1913.46 151.125 1918.6 144.563 Q1923.79 138 1932.01 138 Q1937.03 138 1940.6 139.985 Q1944.2 141.93 1946.55 145.98 M1921.15 161.819 Q1921.15 170.043 1924.51 174.742 Q1927.92 179.4 1933.83 179.4 Q1939.75 179.4 1943.15 174.742 Q1946.55 170.043 1946.55 161.819 Q1946.55 153.596 1943.15 148.938 Q1939.75 144.239 1933.83 144.239 Q1927.92 144.239 1924.51 148.938 Q1921.15 153.596 1921.15 161.819 Z" fill="#000000" fill-rule="nonzero" fill-opacity="1" /><path clip-path="url(#clip740)" d="M2024.65 140.431 L2024.65 147.479 Q2021.49 145.859 2018.09 145.049 Q2014.69 144.239 2011.04 144.239 Q2005.49 144.239 2002.7 145.94 Q1999.94 147.641 1999.94 151.044 Q1999.94 153.637 2001.93 155.135 Q2003.91 156.594 2009.91 157.931 L2012.46 158.498 Q2020.4 160.199 2023.72 163.318 Q2027.08 166.397 2027.08 171.947 Q2027.08 178.266 2022.06 181.952 Q2017.08 185.639 2008.33 185.639 Q2004.68 185.639 2000.71 184.91 Q1996.78 184.221 1992.41 182.803 L1992.41 175.106 Q1996.54 177.253 2000.55 178.347 Q2004.56 179.4 2008.49 179.4 Q2013.76 179.4 2016.59 177.618 Q2019.43 175.795 2019.43 172.514 Q2019.43 169.476 2017.36 167.855 Q2015.34 166.235 2008.41 164.736 L2005.82 164.128 Q1998.89 162.67 1995.81 159.672 Q1992.73 156.634 1992.73 151.368 Q1992.73 144.968 1997.27 141.484 Q2001.81 138 2010.15 138 Q2014.28 138 2017.93 138.608 Q2021.57 139.215 2024.65 140.431 Z" fill="#000000" fill-rule="nonzero" fill-opacity="1" /><path clip-path="url(#clip740)" d="M2038.95 139.094 L2046.41 139.094 L2046.41 184.464 L2038.95 184.464 L2038.95 139.094 M2038.95 121.432 L2046.41 121.432 L2046.41 130.871 L2038.95 130.871 L2038.95 121.432 Z" fill="#000000" fill-rule="nonzero" fill-opacity="1" /><path clip-path="url(#clip740)" d="M2058.76 139.094 L2094.17 139.094 L2094.17 145.899 L2066.13 178.509 L2094.17 178.509 L2094.17 184.464 L2057.75 184.464 L2057.75 177.658 L2085.78 145.049 L2058.76 145.049 L2058.76 139.094 Z" fill="#000000" fill-rule="nonzero" fill-opacity="1" /><path clip-path="url(#clip740)" d="M2144.36 159.916 L2144.36 163.561 L2110.09 163.561 Q2110.57 171.258 2114.7 175.309 Q2118.88 179.319 2126.29 179.319 Q2130.58 179.319 2134.59 178.266 Q2138.65 177.213 2142.62 175.106 L2142.62 182.155 Q2138.6 183.856 2134.39 184.748 Q2130.18 185.639 2125.84 185.639 Q2114.99 185.639 2108.63 179.319 Q2102.31 173 2102.31 162.225 Q2102.31 151.085 2108.3 144.563 Q2114.34 138 2124.55 138 Q2133.7 138 2139.01 143.914 Q2144.36 149.788 2144.36 159.916 M2136.9 157.728 Q2136.82 151.611 2133.46 147.965 Q2130.14 144.32 2124.63 144.32 Q2118.39 144.32 2114.62 147.844 Q2110.9 151.368 2110.33 157.769 L2136.9 157.728 Z" fill="#000000" fill-rule="nonzero" fill-opacity="1" /><path clip-path="url(#clip740)" d="M2179.19 158.822 L2254.06 158.822 L2254.06 164.655 L2179.19 164.655 L2179.19 158.822 Z" fill="#000000" fill-rule="nonzero" fill-opacity="1" /><path clip-path="url(#clip740)" d="M2286.95 139.094 L2294.85 139.094 L2309.03 177.172 L2323.2 139.094 L2331.1 139.094 L2314.09 184.464 L2303.96 184.464 L2286.95 139.094 Z" fill="#000000" fill-rule="nonzero" fill-opacity="1" /><path clip-path="url(#clip740)" d="M2362.01 161.657 Q2352.98 161.657 2349.49 163.723 Q2346.01 165.789 2346.01 170.772 Q2346.01 174.742 2348.6 177.091 Q2351.24 179.4 2355.73 179.4 Q2361.93 179.4 2365.66 175.025 Q2369.43 170.61 2369.43 163.318 L2369.43 161.657 L2362.01 161.657 M2376.88 158.579 L2376.88 184.464 L2369.43 184.464 L2369.43 177.577 Q2366.87 181.709 2363.07 183.694 Q2359.26 185.639 2353.75 185.639 Q2346.78 185.639 2342.65 181.75 Q2338.56 177.821 2338.56 171.258 Q2338.56 163.602 2343.66 159.713 Q2348.81 155.824 2358.97 155.824 L2369.43 155.824 L2369.43 155.095 Q2369.43 149.95 2366.02 147.155 Q2362.66 144.32 2356.54 144.32 Q2352.65 144.32 2348.97 145.251 Q2345.28 146.183 2341.88 148.046 L2341.88 141.16 Q2345.97 139.58 2349.82 138.81 Q2353.67 138 2357.31 138 Q2367.16 138 2372.02 143.104 Q2376.88 148.208 2376.88 158.579 Z" fill="#000000" fill-rule="nonzero" fill-opacity="1" /><path clip-path="url(#clip740)" d="M2429.95 157.08 L2429.95 184.464 L2422.49 184.464 L2422.49 157.323 Q2422.49 150.882 2419.98 147.682 Q2417.47 144.482 2412.45 144.482 Q2406.41 144.482 2402.93 148.33 Q2399.44 152.178 2399.44 158.822 L2399.44 184.464 L2391.95 184.464 L2391.95 139.094 L2399.44 139.094 L2399.44 146.142 Q2402.12 142.051 2405.72 140.026 Q2409.37 138 2414.11 138 Q2421.93 138 2425.94 142.861 Q2429.95 147.682 2429.95 157.08 Z" fill="#000000" fill-rule="nonzero" fill-opacity="1" /><path clip-path="url(#clip740)" d="M2474.67 145.98 L2474.67 121.432 L2482.12 121.432 L2482.12 184.464 L2474.67 184.464 L2474.67 177.658 Q2472.32 181.709 2468.71 183.694 Q2465.15 185.639 2460.13 185.639 Q2451.9 185.639 2446.72 179.076 Q2441.57 172.514 2441.57 161.819 Q2441.57 151.125 2446.72 144.563 Q2451.9 138 2460.13 138 Q2465.15 138 2468.71 139.985 Q2472.32 141.93 2474.67 145.98 M2449.27 161.819 Q2449.27 170.043 2452.63 174.742 Q2456.03 179.4 2461.95 179.4 Q2467.86 179.4 2471.27 174.742 Q2474.67 170.043 2474.67 161.819 Q2474.67 153.596 2471.27 148.938 Q2467.86 144.239 2461.95 144.239 Q2456.03 144.239 2452.63 148.938 Q2449.27 153.596 2449.27 161.819 Z" fill="#000000" fill-rule="nonzero" fill-opacity="1" /><path clip-path="url(#clip740)" d="M2536.28 159.916 L2536.28 163.561 L2502.01 163.561 Q2502.5 171.258 2506.63 175.309 Q2510.8 179.319 2518.22 179.319 Q2522.51 179.319 2526.52 178.266 Q2530.57 177.213 2534.54 175.106 L2534.54 182.155 Q2530.53 183.856 2526.32 184.748 Q2522.1 185.639 2517.77 185.639 Q2506.91 185.639 2500.55 179.319 Q2494.23 173 2494.23 162.225 Q2494.23 151.085 2500.23 144.563 Q2506.26 138 2516.47 138 Q2525.63 138 2530.93 143.914 Q2536.28 149.788 2536.28 159.916 M2528.83 157.728 Q2528.75 151.611 2525.39 147.965 Q2522.06 144.32 2516.55 144.32 Q2510.32 144.32 2506.55 147.844 Q2502.82 151.368 2502.25 157.769 L2528.83 157.728 Z" fill="#000000" fill-rule="nonzero" fill-opacity="1" /><path clip-path="url(#clip740)" d="M2574.81 146.061 Q2573.55 145.332 2572.05 145.008 Q2570.59 144.644 2568.81 144.644 Q2562.49 144.644 2559.09 148.776 Q2555.73 152.867 2555.73 160.564 L2555.73 184.464 L2548.23 184.464 L2548.23 139.094 L2555.73 139.094 L2555.73 146.142 Q2558.08 142.011 2561.84 140.026 Q2565.61 138 2571 138 Q2571.77 138 2572.7 138.122 Q2573.63 138.203 2574.77 138.405 L2574.81 146.061 Z" fill="#000000" fill-rule="nonzero" fill-opacity="1" /><path clip-path="url(#clip740)" d="M2589.84 177.658 L2589.84 201.721 L2582.34 201.721 L2582.34 139.094 L2589.84 139.094 L2589.84 145.98 Q2592.18 141.93 2595.75 139.985 Q2599.35 138 2604.34 138 Q2612.6 138 2617.75 144.563 Q2622.93 151.125 2622.93 161.819 Q2622.93 172.514 2617.75 179.076 Q2612.6 185.639 2604.34 185.639 Q2599.35 185.639 2595.75 183.694 Q2592.18 181.709 2589.84 177.658 M2615.19 161.819 Q2615.19 153.596 2611.79 148.938 Q2608.43 144.239 2602.51 144.239 Q2596.6 144.239 2593.2 148.938 Q2589.84 153.596 2589.84 161.819 Q2589.84 170.043 2593.2 174.742 Q2596.6 179.4 2602.51 179.4 Q2608.43 179.4 2611.79 174.742 Q2615.19 170.043 2615.19 161.819 Z" fill="#000000" fill-rule="nonzero" fill-opacity="1" /><path clip-path="url(#clip740)" d="M2652.87 144.32 Q2646.87 144.32 2643.39 149.019 Q2639.9 153.677 2639.9 161.819 Q2639.9 169.962 2643.35 174.661 Q2646.83 179.319 2652.87 179.319 Q2658.82 179.319 2662.31 174.62 Q2665.79 169.921 2665.79 161.819 Q2665.79 153.758 2662.31 149.059 Q2658.82 144.32 2652.87 144.32 M2652.87 138 Q2662.59 138 2668.14 144.32 Q2673.69 150.639 2673.69 161.819 Q2673.69 172.959 2668.14 179.319 Q2662.59 185.639 2652.87 185.639 Q2643.1 185.639 2637.55 179.319 Q2632.05 172.959 2632.05 161.819 Q2632.05 150.639 2637.55 144.32 Q2643.1 138 2652.87 138 Z" fill="#000000" fill-rule="nonzero" fill-opacity="1" /><path clip-path="url(#clip740)" d="M2686.04 121.432 L2693.5 121.432 L2693.5 184.464 L2686.04 184.464 L2686.04 121.432 Z" fill="#000000" fill-rule="nonzero" fill-opacity="1" /><polyline clip-path="url(#clip742)" style="stroke:#ff8c00; stroke-linecap:round; stroke-linejoin:round; stroke-width:6; stroke-opacity:1; fill:none" points="504.926,2102.46 2064.38,977.527 2736,603.369 3407.62,300.989 "/>
<path clip-path="url(#clip742)" d="M504.926 2086.46 L488.926 2118.46 L520.926 2118.46 L504.926 2086.46 Z" fill="#ff8c00" fill-rule="evenodd" fill-opacity="1" stroke="none"/>
<path clip-path="url(#clip742)" d="M2064.38 961.527 L2048.38 993.527 L2080.38 993.527 L2064.38 961.527 Z" fill="#ff8c00" fill-rule="evenodd" fill-opacity="1" stroke="none"/>
<path clip-path="url(#clip742)" d="M2736 587.369 L2720 619.369 L2752 619.369 L2736 587.369 Z" fill="#ff8c00" fill-rule="evenodd" fill-opacity="1" stroke="none"/>
<path clip-path="url(#clip742)" d="M3407.62 284.989 L3391.62 316.989 L3423.62 316.989 L3407.62 284.989 Z" fill="#ff8c00" fill-rule="evenodd" fill-opacity="1" stroke="none"/>
<polyline clip-path="url(#clip742)" style="stroke:#48d1cc; stroke-linecap:round; stroke-linejoin:round; stroke-width:6; stroke-opacity:1; fill:none" points="504.926,1287.68 2064.38,1209.92 2736,1107.77 3407.62,763.132 "/>
<path clip-path="url(#clip742)" d="M504.926 1303.68 L491.07 1295.68 L491.07 1279.68 L504.926 1271.68 L518.782 1279.68 L518.782 1295.68 Z" fill="#48d1cc" fill-rule="evenodd" fill-opacity="1" stroke="none"/>
<path clip-path="url(#clip742)" d="M2064.38 1225.92 L2050.52 1217.92 L2050.52 1201.92 L2064.38 1193.92 L2078.24 1201.92 L2078.24 1217.92 Z" fill="#48d1cc" fill-rule="evenodd" fill-opacity="1" stroke="none"/>
<path clip-path="url(#clip742)" d="M2736 1123.77 L2722.14 1115.77 L2722.14 1099.77 L2736 1091.77 L2749.86 1099.77 L2749.86 1115.77 Z" fill="#48d1cc" fill-rule="evenodd" fill-opacity="1" stroke="none"/>
<path clip-path="url(#clip742)" d="M3407.62 779.132 L3393.77 771.132 L3393.77 755.132 L3407.62 747.132 L3421.48 755.132 L3421.48 771.132 Z" fill="#48d1cc" fill-rule="evenodd" fill-opacity="1" stroke="none"/>
<path clip-path="url(#clip740)" d="M2690.04 2092.86 L3446.32 2092.86 L3446.32 1937.34 L2690.04 1937.34  Z" fill="#ffffff" fill-rule="evenodd" fill-opacity="1"/>
<polyline clip-path="url(#clip740)" style="stroke:#000000; stroke-linecap:round; stroke-linejoin:round; stroke-width:4; stroke-opacity:1; fill:none" points="2690.04,2092.86 3446.32,2092.86 3446.32,1937.34 2690.04,1937.34 2690.04,2092.86 "/>
<polyline clip-path="url(#clip740)" style="stroke:#ff8c00; stroke-linecap:round; stroke-linejoin:round; stroke-width:6; stroke-opacity:1; fill:none" points="2725.52,1989.18 2938.38,1989.18 "/>
<path clip-path="url(#clip740)" d="M2831.95 1963.58 L2806.35 2014.78 L2857.55 2014.78 L2831.95 1963.58 Z" fill="#ff8c00" fill-rule="evenodd" fill-opacity="1" stroke="none"/>
<path clip-path="url(#clip740)" d="M2984.48 1970.48 Q2981.38 1975.81 2979.88 1981.02 Q2978.37 1986.22 2978.37 1991.57 Q2978.37 1996.92 2979.88 2002.17 Q2981.4 2007.4 2984.48 2012.71 L2980.78 2012.71 Q2977.31 2007.27 2975.57 2002.01 Q2973.86 1996.76 2973.86 1991.57 Q2973.86 1986.41 2975.57 1981.18 Q2977.28 1975.95 2980.78 1970.48 L2984.48 1970.48 Z" fill="#000000" fill-rule="nonzero" fill-opacity="1" /><path clip-path="url(#clip740)" d="M3014.92 1992.43 L3014.92 1994.51 L2995.34 1994.51 Q2995.62 1998.91 2997.98 2001.22 Q3000.36 2003.52 3004.6 2003.52 Q3007.05 2003.52 3009.34 2002.91 Q3011.66 2002.31 3013.93 2001.11 L3013.93 2005.14 Q3011.64 2006.11 3009.23 2006.62 Q3006.82 2007.13 3004.34 2007.13 Q2998.14 2007.13 2994.51 2003.52 Q2990.89 1999.9 2990.89 1993.75 Q2990.89 1987.38 2994.32 1983.65 Q2997.77 1979.9 3003.6 1979.9 Q3008.83 1979.9 3011.87 1983.28 Q3014.92 1986.64 3014.92 1992.43 M3010.66 1991.18 Q3010.62 1987.68 3008.7 1985.6 Q3006.8 1983.52 3003.65 1983.52 Q3000.08 1983.52 2997.93 1985.53 Q2995.8 1987.54 2995.48 1991.2 L3010.66 1991.18 Z" fill="#000000" fill-rule="nonzero" fill-opacity="1" /><path clip-path="url(#clip740)" d="M3042.63 1980.53 L3033.26 1993.15 L3043.12 2006.46 L3038.09 2006.46 L3030.55 1996.27 L3023 2006.46 L3017.98 2006.46 L3028.05 1992.89 L3018.83 1980.53 L3023.86 1980.53 L3030.73 1989.77 L3037.61 1980.53 L3042.63 1980.53 Z" fill="#000000" fill-rule="nonzero" fill-opacity="1" /><path clip-path="url(#clip740)" d="M3060.92 1993.42 Q3055.76 1993.42 3053.76 1994.6 Q3051.77 1995.78 3051.77 1998.63 Q3051.77 2000.9 3053.26 2002.24 Q3054.76 2003.56 3057.33 2003.56 Q3060.87 2003.56 3063 2001.06 Q3065.15 1998.54 3065.15 1994.37 L3065.15 1993.42 L3060.92 1993.42 M3069.41 1991.66 L3069.41 2006.46 L3065.15 2006.46 L3065.15 2002.52 Q3063.7 2004.88 3061.52 2006.02 Q3059.34 2007.13 3056.2 2007.13 Q3052.21 2007.13 3049.85 2004.9 Q3047.51 2002.66 3047.51 1998.91 Q3047.51 1994.53 3050.43 1992.31 Q3053.37 1990.09 3059.18 1990.09 L3065.15 1990.09 L3065.15 1989.67 Q3065.15 1986.73 3063.21 1985.14 Q3061.29 1983.52 3057.79 1983.52 Q3055.57 1983.52 3053.46 1984.05 Q3051.36 1984.58 3049.41 1985.65 L3049.41 1981.71 Q3051.75 1980.81 3053.95 1980.37 Q3056.15 1979.9 3058.23 1979.9 Q3063.86 1979.9 3066.64 1982.82 Q3069.41 1985.74 3069.41 1991.66 Z" fill="#000000" fill-rule="nonzero" fill-opacity="1" /><path clip-path="url(#clip740)" d="M3079.27 2000.58 L3084.16 2000.58 L3084.16 2004.56 L3080.36 2011.96 L3077.38 2011.96 L3079.27 2004.56 L3079.27 2000.58 Z" fill="#000000" fill-rule="nonzero" fill-opacity="1" /><path clip-path="url(#clip740)" d="M3128.51 1985.51 Q3130.11 1982.64 3132.33 1981.27 Q3134.55 1979.9 3137.56 1979.9 Q3141.61 1979.9 3143.81 1982.75 Q3146.01 1985.58 3146.01 1990.81 L3146.01 2006.46 L3141.73 2006.46 L3141.73 1990.95 Q3141.73 1987.22 3140.41 1985.41 Q3139.09 1983.61 3136.38 1983.61 Q3133.07 1983.61 3131.15 1985.81 Q3129.23 1988.01 3129.23 1991.8 L3129.23 2006.46 L3124.95 2006.46 L3124.95 1990.95 Q3124.95 1987.2 3123.63 1985.41 Q3122.31 1983.61 3119.55 1983.61 Q3116.29 1983.61 3114.37 1985.83 Q3112.45 1988.03 3112.45 1991.8 L3112.45 2006.46 L3108.16 2006.46 L3108.16 1980.53 L3112.45 1980.53 L3112.45 1984.56 Q3113.9 1982.17 3115.94 1981.04 Q3117.98 1979.9 3120.78 1979.9 Q3123.6 1979.9 3125.57 1981.34 Q3127.56 1982.78 3128.51 1985.51 Z" fill="#000000" fill-rule="nonzero" fill-opacity="1" /><path clip-path="url(#clip740)" d="M3166.29 1993.42 Q3161.13 1993.42 3159.13 1994.6 Q3157.14 1995.78 3157.14 1998.63 Q3157.14 2000.9 3158.63 2002.24 Q3160.13 2003.56 3162.7 2003.56 Q3166.24 2003.56 3168.37 2001.06 Q3170.52 1998.54 3170.52 1994.37 L3170.52 1993.42 L3166.29 1993.42 M3174.78 1991.66 L3174.78 2006.46 L3170.52 2006.46 L3170.52 2002.52 Q3169.07 2004.88 3166.89 2006.02 Q3164.71 2007.13 3161.57 2007.13 Q3157.58 2007.13 3155.22 2004.9 Q3152.88 2002.66 3152.88 1998.91 Q3152.88 1994.53 3155.8 1992.31 Q3158.74 1990.09 3164.55 1990.09 L3170.52 1990.09 L3170.52 1989.67 Q3170.52 1986.73 3168.58 1985.14 Q3166.66 1983.52 3163.16 1983.52 Q3160.94 1983.52 3158.83 1984.05 Q3156.73 1984.58 3154.78 1985.65 L3154.78 1981.71 Q3157.12 1980.81 3159.32 1980.37 Q3161.52 1979.9 3163.6 1979.9 Q3169.23 1979.9 3172.01 1982.82 Q3174.78 1985.74 3174.78 1991.66 Z" fill="#000000" fill-rule="nonzero" fill-opacity="1" /><path clip-path="url(#clip740)" d="M3200.62 1984.46 L3200.62 1970.44 L3204.88 1970.44 L3204.88 2006.46 L3200.62 2006.46 L3200.62 2002.57 Q3199.27 2004.88 3197.21 2006.02 Q3195.18 2007.13 3192.31 2007.13 Q3187.61 2007.13 3184.64 2003.38 Q3181.7 1999.63 3181.7 1993.52 Q3181.7 1987.4 3184.64 1983.65 Q3187.61 1979.9 3192.31 1979.9 Q3195.18 1979.9 3197.21 1981.04 Q3199.27 1982.15 3200.62 1984.46 M3186.1 1993.52 Q3186.1 1998.21 3188.02 2000.9 Q3189.97 2003.56 3193.35 2003.56 Q3196.73 2003.56 3198.67 2000.9 Q3200.62 1998.21 3200.62 1993.52 Q3200.62 1988.82 3198.67 1986.15 Q3196.73 1983.47 3193.35 1983.47 Q3189.97 1983.47 3188.02 1986.15 Q3186.1 1988.82 3186.1 1993.52 Z" fill="#000000" fill-rule="nonzero" fill-opacity="1" /><path clip-path="url(#clip740)" d="M3235.2 1990.81 L3235.2 2006.46 L3230.94 2006.46 L3230.94 1990.95 Q3230.94 1987.27 3229.5 1985.44 Q3228.07 1983.61 3225.2 1983.61 Q3221.75 1983.61 3219.76 1985.81 Q3217.77 1988.01 3217.77 1991.8 L3217.77 2006.46 L3213.49 2006.46 L3213.49 1980.53 L3217.77 1980.53 L3217.77 1984.56 Q3219.3 1982.22 3221.36 1981.06 Q3223.44 1979.9 3226.15 1979.9 Q3230.62 1979.9 3232.91 1982.68 Q3235.2 1985.44 3235.2 1990.81 Z" fill="#000000" fill-rule="nonzero" fill-opacity="1" /><path clip-path="url(#clip740)" d="M3243.69 1970.44 L3247.95 1970.44 L3247.95 2006.46 L3243.69 2006.46 L3243.69 1970.44 Z" fill="#000000" fill-rule="nonzero" fill-opacity="1" /><path clip-path="url(#clip740)" d="M3260.99 2002.57 L3260.99 2016.32 L3256.7 2016.32 L3256.7 1980.53 L3260.99 1980.53 L3260.99 1984.46 Q3262.33 1982.15 3264.37 1981.04 Q3266.43 1979.9 3269.27 1979.9 Q3274 1979.9 3276.94 1983.65 Q3279.9 1987.4 3279.9 1993.52 Q3279.9 1999.63 3276.94 2003.38 Q3274 2007.13 3269.27 2007.13 Q3266.43 2007.13 3264.37 2006.02 Q3262.33 2004.88 3260.99 2002.57 M3275.48 1993.52 Q3275.48 1988.82 3273.53 1986.15 Q3271.61 1983.47 3268.23 1983.47 Q3264.85 1983.47 3262.91 1986.15 Q3260.99 1988.82 3260.99 1993.52 Q3260.99 1998.21 3262.91 2000.9 Q3264.85 2003.56 3268.23 2003.56 Q3271.61 2003.56 3273.53 2000.9 Q3275.48 1998.21 3275.48 1993.52 Z" fill="#000000" fill-rule="nonzero" fill-opacity="1" /><path clip-path="url(#clip740)" d="M3286.29 1970.48 L3289.99 1970.48 Q3293.46 1975.95 3295.18 1981.18 Q3296.91 1986.41 3296.91 1991.57 Q3296.91 1996.76 3295.18 2002.01 Q3293.46 2007.27 3289.99 2012.71 L3286.29 2012.71 Q3289.37 2007.4 3290.87 2002.17 Q3292.4 1996.92 3292.4 1991.57 Q3292.4 1986.22 3290.87 1981.02 Q3289.37 1975.81 3286.29 1970.48 Z" fill="#000000" fill-rule="nonzero" fill-opacity="1" /><polyline clip-path="url(#clip740)" style="stroke:#48d1cc; stroke-linecap:round; stroke-linejoin:round; stroke-width:6; stroke-opacity:1; fill:none" points="2725.52,2041.02 2938.38,2041.02 "/>
<path clip-path="url(#clip740)" d="M2831.95 2066.62 L2809.78 2053.82 L2809.78 2028.22 L2831.95 2015.42 L2854.12 2028.22 L2854.12 2053.82 Z" fill="#48d1cc" fill-rule="evenodd" fill-opacity="1" stroke="none"/>
<path clip-path="url(#clip740)" d="M2984.48 2022.32 Q2981.38 2027.65 2979.88 2032.86 Q2978.37 2038.06 2978.37 2043.41 Q2978.37 2048.76 2979.88 2054.01 Q2981.4 2059.24 2984.48 2064.55 L2980.78 2064.55 Q2977.31 2059.11 2975.57 2053.85 Q2973.86 2048.6 2973.86 2043.41 Q2973.86 2038.25 2975.57 2033.02 Q2977.28 2027.79 2980.78 2022.32 L2984.48 2022.32 Z" fill="#000000" fill-rule="nonzero" fill-opacity="1" /><path clip-path="url(#clip740)" d="M3014.92 2044.27 L3014.92 2046.35 L2995.34 2046.35 Q2995.62 2050.75 2997.98 2053.06 Q3000.36 2055.36 3004.6 2055.36 Q3007.05 2055.36 3009.34 2054.75 Q3011.66 2054.15 3013.93 2052.95 L3013.93 2056.98 Q3011.64 2057.95 3009.23 2058.46 Q3006.82 2058.97 3004.34 2058.97 Q2998.14 2058.97 2994.51 2055.36 Q2990.89 2051.74 2990.89 2045.59 Q2990.89 2039.22 2994.32 2035.49 Q2997.77 2031.74 3003.6 2031.74 Q3008.83 2031.74 3011.87 2035.12 Q3014.92 2038.48 3014.92 2044.27 M3010.66 2043.02 Q3010.62 2039.52 3008.7 2037.44 Q3006.8 2035.36 3003.65 2035.36 Q3000.08 2035.36 2997.93 2037.37 Q2995.8 2039.38 2995.48 2043.04 L3010.66 2043.02 Z" fill="#000000" fill-rule="nonzero" fill-opacity="1" /><path clip-path="url(#clip740)" d="M3042.63 2032.37 L3033.26 2044.99 L3043.12 2058.3 L3038.09 2058.3 L3030.55 2048.11 L3023 2058.3 L3017.98 2058.3 L3028.05 2044.73 L3018.83 2032.37 L3023.86 2032.37 L3030.73 2041.61 L3037.61 2032.37 L3042.63 2032.37 Z" fill="#000000" fill-rule="nonzero" fill-opacity="1" /><path clip-path="url(#clip740)" d="M3060.92 2045.26 Q3055.76 2045.26 3053.76 2046.44 Q3051.77 2047.62 3051.77 2050.47 Q3051.77 2052.74 3053.26 2054.08 Q3054.76 2055.4 3057.33 2055.4 Q3060.87 2055.4 3063 2052.9 Q3065.15 2050.38 3065.15 2046.21 L3065.15 2045.26 L3060.92 2045.26 M3069.41 2043.5 L3069.41 2058.3 L3065.15 2058.3 L3065.15 2054.36 Q3063.7 2056.72 3061.52 2057.86 Q3059.34 2058.97 3056.2 2058.97 Q3052.21 2058.97 3049.85 2056.74 Q3047.51 2054.5 3047.51 2050.75 Q3047.51 2046.37 3050.43 2044.15 Q3053.37 2041.93 3059.18 2041.93 L3065.15 2041.93 L3065.15 2041.51 Q3065.15 2038.57 3063.21 2036.98 Q3061.29 2035.36 3057.79 2035.36 Q3055.57 2035.36 3053.46 2035.89 Q3051.36 2036.42 3049.41 2037.49 L3049.41 2033.55 Q3051.75 2032.65 3053.95 2032.21 Q3056.15 2031.74 3058.23 2031.74 Q3063.86 2031.74 3066.64 2034.66 Q3069.41 2037.58 3069.41 2043.5 Z" fill="#000000" fill-rule="nonzero" fill-opacity="1" /><path clip-path="url(#clip740)" d="M3097.89 2066.17 L3097.89 2069.48 L3073.26 2069.48 L3073.26 2066.17 L3097.89 2066.17 Z" fill="#000000" fill-rule="nonzero" fill-opacity="1" /><path clip-path="url(#clip740)" d="M3118.95 2045.03 Q3118.95 2040.4 3117.03 2037.86 Q3115.13 2035.31 3111.68 2035.31 Q3108.26 2035.31 3106.33 2037.86 Q3104.44 2040.4 3104.44 2045.03 Q3104.44 2049.64 3106.33 2052.18 Q3108.26 2054.73 3111.68 2054.73 Q3115.13 2054.73 3117.03 2052.18 Q3118.95 2049.64 3118.95 2045.03 M3123.21 2055.08 Q3123.21 2061.7 3120.27 2064.92 Q3117.33 2068.16 3111.26 2068.16 Q3109.02 2068.16 3107.03 2067.81 Q3105.04 2067.49 3103.16 2066.79 L3103.16 2062.65 Q3105.04 2063.67 3106.87 2064.15 Q3108.7 2064.64 3110.59 2064.64 Q3114.78 2064.64 3116.87 2062.44 Q3118.95 2060.26 3118.95 2055.84 L3118.95 2053.74 Q3117.63 2056.03 3115.57 2057.16 Q3113.51 2058.3 3110.64 2058.3 Q3105.87 2058.3 3102.95 2054.66 Q3100.04 2051.03 3100.04 2045.03 Q3100.04 2039.01 3102.95 2035.38 Q3105.87 2031.74 3110.64 2031.74 Q3113.51 2031.74 3115.57 2032.88 Q3117.63 2034.01 3118.95 2036.3 L3118.95 2032.37 L3123.21 2032.37 L3123.21 2055.08 Z" fill="#000000" fill-rule="nonzero" fill-opacity="1" /><path clip-path="url(#clip740)" d="M3136.1 2054.41 L3136.1 2068.16 L3131.82 2068.16 L3131.82 2032.37 L3136.1 2032.37 L3136.1 2036.3 Q3137.45 2033.99 3139.48 2032.88 Q3141.54 2031.74 3144.39 2031.74 Q3149.11 2031.74 3152.05 2035.49 Q3155.01 2039.24 3155.01 2045.36 Q3155.01 2051.47 3152.05 2055.22 Q3149.11 2058.97 3144.39 2058.97 Q3141.54 2058.97 3139.48 2057.86 Q3137.45 2056.72 3136.1 2054.41 M3150.59 2045.36 Q3150.59 2040.66 3148.65 2037.99 Q3146.73 2035.31 3143.35 2035.31 Q3139.97 2035.31 3138.02 2037.99 Q3136.1 2040.66 3136.1 2045.36 Q3136.1 2050.05 3138.02 2052.74 Q3139.97 2055.4 3143.35 2055.4 Q3146.73 2055.4 3148.65 2052.74 Q3150.59 2050.05 3150.59 2045.36 Z" fill="#000000" fill-rule="nonzero" fill-opacity="1" /><path clip-path="url(#clip740)" d="M3161.63 2048.06 L3161.63 2032.37 L3165.89 2032.37 L3165.89 2047.9 Q3165.89 2051.58 3167.33 2053.43 Q3168.76 2055.26 3171.63 2055.26 Q3175.08 2055.26 3177.07 2053.06 Q3179.09 2050.87 3179.09 2047.07 L3179.09 2032.37 L3183.35 2032.37 L3183.35 2058.3 L3179.09 2058.3 L3179.09 2054.31 Q3177.54 2056.68 3175.48 2057.83 Q3173.44 2058.97 3170.73 2058.97 Q3166.26 2058.97 3163.95 2056.19 Q3161.63 2053.41 3161.63 2048.06 M3172.35 2031.74 L3172.35 2031.74 Z" fill="#000000" fill-rule="nonzero" fill-opacity="1" /><path clip-path="url(#clip740)" d="M3193.21 2052.42 L3198.09 2052.42 L3198.09 2056.4 L3194.3 2063.8 L3191.31 2063.8 L3193.21 2056.4 L3193.21 2052.42 Z" fill="#000000" fill-rule="nonzero" fill-opacity="1" /><path clip-path="url(#clip740)" d="M3242.44 2037.35 Q3244.04 2034.48 3246.26 2033.11 Q3248.49 2031.74 3251.5 2031.74 Q3255.55 2031.74 3257.75 2034.59 Q3259.94 2037.42 3259.94 2042.65 L3259.94 2058.3 L3255.66 2058.3 L3255.66 2042.79 Q3255.66 2039.06 3254.34 2037.25 Q3253.02 2035.45 3250.31 2035.45 Q3247 2035.45 3245.08 2037.65 Q3243.16 2039.85 3243.16 2043.64 L3243.16 2058.3 L3238.88 2058.3 L3238.88 2042.79 Q3238.88 2039.04 3237.56 2037.25 Q3236.24 2035.45 3233.49 2035.45 Q3230.22 2035.45 3228.3 2037.67 Q3226.38 2039.87 3226.38 2043.64 L3226.38 2058.3 L3222.1 2058.3 L3222.1 2032.37 L3226.38 2032.37 L3226.38 2036.4 Q3227.84 2034.01 3229.88 2032.88 Q3231.91 2031.74 3234.71 2031.74 Q3237.54 2031.74 3239.5 2033.18 Q3241.5 2034.62 3242.44 2037.35 Z" fill="#000000" fill-rule="nonzero" fill-opacity="1" /><path clip-path="url(#clip740)" d="M3280.22 2045.26 Q3275.06 2045.26 3273.07 2046.44 Q3271.08 2047.62 3271.08 2050.47 Q3271.08 2052.74 3272.56 2054.08 Q3274.06 2055.4 3276.63 2055.4 Q3280.18 2055.4 3282.31 2052.9 Q3284.46 2050.38 3284.46 2046.21 L3284.46 2045.26 L3280.22 2045.26 M3288.72 2043.5 L3288.72 2058.3 L3284.46 2058.3 L3284.46 2054.36 Q3283 2056.72 3280.82 2057.86 Q3278.65 2058.97 3275.5 2058.97 Q3271.52 2058.97 3269.16 2056.74 Q3266.82 2054.5 3266.82 2050.75 Q3266.82 2046.37 3269.74 2044.15 Q3272.68 2041.93 3278.49 2041.93 L3284.46 2041.93 L3284.46 2041.51 Q3284.46 2038.57 3282.51 2036.98 Q3280.59 2035.36 3277.1 2035.36 Q3274.87 2035.36 3272.77 2035.89 Q3270.66 2036.42 3268.72 2037.49 L3268.72 2033.55 Q3271.06 2032.65 3273.25 2032.21 Q3275.45 2031.74 3277.54 2031.74 Q3283.16 2031.74 3285.94 2034.66 Q3288.72 2037.58 3288.72 2043.5 Z" fill="#000000" fill-rule="nonzero" fill-opacity="1" /><path clip-path="url(#clip740)" d="M3314.55 2036.3 L3314.55 2022.28 L3318.81 2022.28 L3318.81 2058.3 L3314.55 2058.3 L3314.55 2054.41 Q3313.21 2056.72 3311.15 2057.86 Q3309.11 2058.97 3306.24 2058.97 Q3301.54 2058.97 3298.58 2055.22 Q3295.64 2051.47 3295.64 2045.36 Q3295.64 2039.24 3298.58 2035.49 Q3301.54 2031.74 3306.24 2031.74 Q3309.11 2031.74 3311.15 2032.88 Q3313.21 2033.99 3314.55 2036.3 M3300.04 2045.36 Q3300.04 2050.05 3301.96 2052.74 Q3303.9 2055.4 3307.28 2055.4 Q3310.66 2055.4 3312.61 2052.74 Q3314.55 2050.05 3314.55 2045.36 Q3314.55 2040.66 3312.61 2037.99 Q3310.66 2035.31 3307.28 2035.31 Q3303.9 2035.31 3301.96 2037.99 Q3300.04 2040.66 3300.04 2045.36 Z" fill="#000000" fill-rule="nonzero" fill-opacity="1" /><path clip-path="url(#clip740)" d="M3349.13 2042.65 L3349.13 2058.3 L3344.87 2058.3 L3344.87 2042.79 Q3344.87 2039.11 3343.44 2037.28 Q3342 2035.45 3339.13 2035.45 Q3335.68 2035.45 3333.69 2037.65 Q3331.7 2039.85 3331.7 2043.64 L3331.7 2058.3 L3327.42 2058.3 L3327.42 2032.37 L3331.7 2032.37 L3331.7 2036.4 Q3333.23 2034.06 3335.29 2032.9 Q3337.37 2031.74 3340.08 2031.74 Q3344.55 2031.74 3346.84 2034.52 Q3349.13 2037.28 3349.13 2042.65 Z" fill="#000000" fill-rule="nonzero" fill-opacity="1" /><path clip-path="url(#clip740)" d="M3357.63 2022.28 L3361.89 2022.28 L3361.89 2058.3 L3357.63 2058.3 L3357.63 2022.28 Z" fill="#000000" fill-rule="nonzero" fill-opacity="1" /><path clip-path="url(#clip740)" d="M3374.92 2054.41 L3374.92 2068.16 L3370.64 2068.16 L3370.64 2032.37 L3374.92 2032.37 L3374.92 2036.3 Q3376.26 2033.99 3378.3 2032.88 Q3380.36 2031.74 3383.21 2031.74 Q3387.93 2031.74 3390.87 2035.49 Q3393.83 2039.24 3393.83 2045.36 Q3393.83 2051.47 3390.87 2055.22 Q3387.93 2058.97 3383.21 2058.97 Q3380.36 2058.97 3378.3 2057.86 Q3376.26 2056.72 3374.92 2054.41 M3389.41 2045.36 Q3389.41 2040.66 3387.47 2037.99 Q3385.55 2035.31 3382.17 2035.31 Q3378.79 2035.31 3376.84 2037.99 Q3374.92 2040.66 3374.92 2045.36 Q3374.92 2050.05 3376.84 2052.74 Q3378.79 2055.4 3382.17 2055.4 Q3385.55 2055.4 3387.47 2052.74 Q3389.41 2050.05 3389.41 2045.36 Z" fill="#000000" fill-rule="nonzero" fill-opacity="1" /><path clip-path="url(#clip740)" d="M3400.22 2022.32 L3403.93 2022.32 Q3407.4 2027.79 3409.11 2033.02 Q3410.85 2038.25 3410.85 2043.41 Q3410.85 2048.6 3409.11 2053.85 Q3407.4 2059.11 3403.93 2064.55 L3400.22 2064.55 Q3403.3 2059.24 3404.8 2054.01 Q3406.33 2048.76 3406.33 2043.41 Q3406.33 2038.06 3404.8 2032.86 Q3403.3 2027.65 3400.22 2022.32 Z" fill="#000000" fill-rule="nonzero" fill-opacity="1" /></svg>
