<?xml version="1.0" encoding="utf-8"?>
<svg xmlns="http://www.w3.org/2000/svg" xmlns:xlink="http://www.w3.org/1999/xlink" width="900" height="600" viewBox="0 0 3600 2400">
<defs>
  <clipPath id="clip040">
    <rect x="0" y="0" width="3600" height="2400"/>
  </clipPath>
</defs>
<path clip-path="url(#clip040)" d="M0 2400 L3600 2400 L3600 0 L0 0  Z" fill="#ffffff" fill-rule="evenodd" fill-opacity="1"/>
<defs>
  <clipPath id="clip041">
    <rect x="290" y="246" width="3263" height="1911"/>
  </clipPath>
</defs>
<path clip-path="url(#clip040)" d="M359.791 2156.51 L3552.76 2156.51 L3552.76 246.944 L359.791 246.944  Z" fill="#ffffff" fill-rule="evenodd" fill-opacity="1"/>
<defs>
  <clipPath id="clip042">
    <rect x="359" y="246" width="3194" height="1911"/>
  </clipPath>
</defs>
<polyline clip-path="url(#clip042)" style="stroke:#000000; stroke-linecap:round; stroke-linejoin:round; stroke-width:2; stroke-opacity:0.1; fill:none" points="952.197,2156.51 952.197,246.944 "/>
<polyline clip-path="url(#clip042)" style="stroke:#000000; stroke-linecap:round; stroke-linejoin:round; stroke-width:2; stroke-opacity:0.1; fill:none" points="1579.74,2156.51 1579.74,246.944 "/>
<polyline clip-path="url(#clip042)" style="stroke:#000000; stroke-linecap:round; stroke-linejoin:round; stroke-width:2; stroke-opacity:0.1; fill:none" points="2207.29,2156.51 2207.29,246.944 "/>
<polyline clip-path="url(#clip042)" style="stroke:#000000; stroke-linecap:round; stroke-linejoin:round; stroke-width:2; stroke-opacity:0.1; fill:none" points="2834.84,2156.51 2834.84,246.944 "/>
<polyline clip-path="url(#clip042)" style="stroke:#000000; stroke-linecap:round; stroke-linejoin:round; stroke-width:2; stroke-opacity:0.1; fill:none" points="3462.39,2156.51 3462.39,246.944 "/>
<polyline clip-path="url(#clip042)" style="stroke:#000000; stroke-linecap:round; stroke-linejoin:round; stroke-width:2; stroke-opacity:0.1; fill:none" points="359.791,1772.59 3552.76,1772.59 "/>
<polyline clip-path="url(#clip042)" style="stroke:#000000; stroke-linecap:round; stroke-linejoin:round; stroke-width:2; stroke-opacity:0.1; fill:none" points="359.791,1156.08 3552.76,1156.08 "/>
<polyline clip-path="url(#clip042)" style="stroke:#000000; stroke-linecap:round; stroke-linejoin:round; stroke-width:2; stroke-opacity:0.1; fill:none" points="359.791,539.564 3552.76,539.564 "/>
<polyline clip-path="url(#clip040)" style="stroke:#000000; stroke-linecap:round; stroke-linejoin:round; stroke-width:4; stroke-opacity:1; fill:none" points="359.791,2156.51 3552.76,2156.51 "/>
<polyline clip-path="url(#clip040)" style="stroke:#000000; stroke-linecap:round; stroke-linejoin:round; stroke-width:4; stroke-opacity:1; fill:none" points="952.197,2156.51 952.197,2137.61 "/>
<polyline clip-path="url(#clip040)" style="stroke:#000000; stroke-linecap:round; stroke-linejoin:round; stroke-width:4; stroke-opacity:1; fill:none" points="1579.74,2156.51 1579.74,2137.61 "/>
<polyline clip-path="url(#clip040)" style="stroke:#000000; stroke-linecap:round; stroke-linejoin:round; stroke-width:4; stroke-opacity:1; fill:none" points="2207.29,2156.51 2207.29,2137.61 "/>
<polyline clip-path="url(#clip040)" style="stroke:#000000; stroke-linecap:round; stroke-linejoin:round; stroke-width:4; stroke-opacity:1; fill:none" points="2834.84,2156.51 2834.84,2137.61 "/>
<polyline clip-path="url(#clip040)" style="stroke:#000000; stroke-linecap:round; stroke-linejoin:round; stroke-width:4; stroke-opacity:1; fill:none" points="3462.39,2156.51 3462.39,2137.61 "/>
<path clip-path="url(#clip040)" d="M904.269 2224.57 L911.908 2224.57 L911.908 2198.21 L903.598 2199.87 L903.598 2195.61 L911.861 2193.95 L916.537 2193.95 L916.537 2224.57 L924.176 2224.57 L924.176 2228.51 L904.269 2228.51 L904.269 2224.57 Z" fill="#000000" fill-rule="nonzero" fill-opacity="1" /><path clip-path="url(#clip040)" d="M943.62 2197.03 Q940.009 2197.03 938.181 2200.59 Q936.375 2204.13 936.375 2211.26 Q936.375 2218.37 938.181 2221.93 Q940.009 2225.48 943.62 2225.48 Q947.255 2225.48 949.06 2221.93 Q950.889 2218.37 950.889 2211.26 Q950.889 2204.13 949.06 2200.59 Q947.255 2197.03 943.62 2197.03 M943.62 2193.32 Q949.431 2193.32 952.486 2197.93 Q955.565 2202.51 955.565 2211.26 Q955.565 2219.99 952.486 2224.6 Q949.431 2229.18 943.62 2229.18 Q937.81 2229.18 934.732 2224.6 Q931.676 2219.99 931.676 2211.26 Q931.676 2202.51 934.732 2197.93 Q937.81 2193.32 943.62 2193.32 Z" fill="#000000" fill-rule="nonzero" fill-opacity="1" /><path clip-path="url(#clip040)" d="M963.782 2222.63 L968.667 2222.63 L968.667 2228.51 L963.782 2228.51 L963.782 2222.63 Z" fill="#000000" fill-rule="nonzero" fill-opacity="1" /><path clip-path="url(#clip040)" d="M988.852 2197.03 Q985.241 2197.03 983.412 2200.59 Q981.606 2204.13 981.606 2211.26 Q981.606 2218.37 983.412 2221.93 Q985.241 2225.48 988.852 2225.48 Q992.486 2225.48 994.292 2221.93 Q996.12 2218.37 996.12 2211.26 Q996.12 2204.13 994.292 2200.59 Q992.486 2197.03 988.852 2197.03 M988.852 2193.32 Q994.662 2193.32 997.717 2197.93 Q1000.8 2202.51 1000.8 2211.26 Q1000.8 2219.99 997.717 2224.6 Q994.662 2229.18 988.852 2229.18 Q983.042 2229.18 979.963 2224.6 Q976.907 2219.99 976.907 2211.26 Q976.907 2202.51 979.963 2197.93 Q983.042 2193.32 988.852 2193.32 Z" fill="#000000" fill-rule="nonzero" fill-opacity="1" /><path clip-path="url(#clip040)" d="M1532.31 2224.57 L1539.95 2224.57 L1539.95 2198.21 L1531.64 2199.87 L1531.64 2195.61 L1539.91 2193.95 L1544.58 2193.95 L1544.58 2224.57 L1552.22 2224.57 L1552.22 2228.51 L1532.31 2228.51 L1532.31 2224.57 Z" fill="#000000" fill-rule="nonzero" fill-opacity="1" /><path clip-path="url(#clip040)" d="M1565.69 2224.57 L1582.01 2224.57 L1582.01 2228.51 L1560.07 2228.51 L1560.07 2224.57 Q1562.73 2221.82 1567.31 2217.19 Q1571.92 2212.54 1573.1 2211.19 Q1575.35 2208.67 1576.23 2206.93 Q1577.13 2205.17 1577.13 2203.48 Q1577.13 2200.73 1575.18 2198.99 Q1573.26 2197.26 1570.16 2197.26 Q1567.96 2197.26 1565.51 2198.02 Q1563.08 2198.79 1560.3 2200.34 L1560.3 2195.61 Q1563.12 2194.48 1565.58 2193.9 Q1568.03 2193.32 1570.07 2193.32 Q1575.44 2193.32 1578.63 2196.01 Q1581.83 2198.69 1581.83 2203.18 Q1581.83 2205.31 1581.02 2207.23 Q1580.23 2209.13 1578.12 2211.73 Q1577.55 2212.4 1574.44 2215.61 Q1571.34 2218.81 1565.69 2224.57 Z" fill="#000000" fill-rule="nonzero" fill-opacity="1" /><path clip-path="url(#clip040)" d="M1591.83 2222.63 L1596.71 2222.63 L1596.71 2228.51 L1591.83 2228.51 L1591.83 2222.63 Z" fill="#000000" fill-rule="nonzero" fill-opacity="1" /><path clip-path="url(#clip040)" d="M1606.94 2193.95 L1625.3 2193.95 L1625.3 2197.88 L1611.23 2197.88 L1611.23 2206.36 Q1612.24 2206.01 1613.26 2205.85 Q1614.28 2205.66 1615.3 2205.66 Q1621.09 2205.66 1624.47 2208.83 Q1627.85 2212 1627.85 2217.42 Q1627.85 2223 1624.37 2226.1 Q1620.9 2229.18 1614.58 2229.18 Q1612.41 2229.18 1610.14 2228.81 Q1607.89 2228.44 1605.49 2227.7 L1605.49 2223 Q1607.57 2224.13 1609.79 2224.69 Q1612.01 2225.24 1614.49 2225.24 Q1618.49 2225.24 1620.83 2223.14 Q1623.17 2221.03 1623.17 2217.42 Q1623.17 2213.81 1620.83 2211.7 Q1618.49 2209.6 1614.49 2209.6 Q1612.62 2209.6 1610.74 2210.01 Q1608.89 2210.43 1606.94 2211.31 L1606.94 2193.95 Z" fill="#000000" fill-rule="nonzero" fill-opacity="1" /><path clip-path="url(#clip040)" d="M2159.36 2224.57 L2167 2224.57 L2167 2198.21 L2158.69 2199.87 L2158.69 2195.61 L2166.96 2193.95 L2171.63 2193.95 L2171.63 2224.57 L2179.27 2224.57 L2179.27 2228.51 L2159.36 2228.51 L2159.36 2224.57 Z" fill="#000000" fill-rule="nonzero" fill-opacity="1" /><path clip-path="url(#clip040)" d="M2188.76 2193.95 L2207.12 2193.95 L2207.12 2197.88 L2193.05 2197.88 L2193.05 2206.36 Q2194.06 2206.01 2195.08 2205.85 Q2196.1 2205.66 2197.12 2205.66 Q2202.91 2205.66 2206.29 2208.83 Q2209.67 2212 2209.67 2217.42 Q2209.67 2223 2206.19 2226.1 Q2202.72 2229.18 2196.4 2229.18 Q2194.23 2229.18 2191.96 2228.81 Q2189.71 2228.44 2187.3 2227.7 L2187.3 2223 Q2189.39 2224.13 2191.61 2224.69 Q2193.83 2225.24 2196.31 2225.24 Q2200.31 2225.24 2202.65 2223.14 Q2204.99 2221.03 2204.99 2217.42 Q2204.99 2213.81 2202.65 2211.7 Q2200.31 2209.6 2196.31 2209.6 Q2194.43 2209.6 2192.56 2210.01 Q2190.71 2210.43 2188.76 2211.31 L2188.76 2193.95 Z" fill="#000000" fill-rule="nonzero" fill-opacity="1" /><path clip-path="url(#clip040)" d="M2218.88 2222.63 L2223.76 2222.63 L2223.76 2228.51 L2218.88 2228.51 L2218.88 2222.63 Z" fill="#000000" fill-rule="nonzero" fill-opacity="1" /><path clip-path="url(#clip040)" d="M2243.95 2197.03 Q2240.34 2197.03 2238.51 2200.59 Q2236.7 2204.13 2236.7 2211.26 Q2236.7 2218.37 2238.51 2221.93 Q2240.34 2225.48 2243.95 2225.48 Q2247.58 2225.48 2249.39 2221.93 Q2251.22 2218.37 2251.22 2211.26 Q2251.22 2204.13 2249.39 2200.59 Q2247.58 2197.03 2243.95 2197.03 M2243.95 2193.32 Q2249.76 2193.32 2252.81 2197.93 Q2255.89 2202.51 2255.89 2211.26 Q2255.89 2219.99 2252.81 2224.6 Q2249.76 2229.18 2243.95 2229.18 Q2238.14 2229.18 2235.06 2224.6 Q2232 2219.99 2232 2211.26 Q2232 2202.51 2235.06 2197.93 Q2238.14 2193.32 2243.95 2193.32 Z" fill="#000000" fill-rule="nonzero" fill-opacity="1" /><path clip-path="url(#clip040)" d="M2787.41 2224.57 L2795.05 2224.57 L2795.05 2198.21 L2786.74 2199.87 L2786.74 2195.61 L2795 2193.95 L2799.68 2193.95 L2799.68 2224.57 L2807.32 2224.57 L2807.32 2228.51 L2787.41 2228.51 L2787.41 2224.57 Z" fill="#000000" fill-rule="nonzero" fill-opacity="1" /><path clip-path="url(#clip040)" d="M2815.58 2193.95 L2837.8 2193.95 L2837.8 2195.94 L2825.26 2228.51 L2820.37 2228.51 L2832.18 2197.88 L2815.58 2197.88 L2815.58 2193.95 Z" fill="#000000" fill-rule="nonzero" fill-opacity="1" /><path clip-path="url(#clip040)" d="M2846.92 2222.63 L2851.81 2222.63 L2851.81 2228.51 L2846.92 2228.51 L2846.92 2222.63 Z" fill="#000000" fill-rule="nonzero" fill-opacity="1" /><path clip-path="url(#clip040)" d="M2862.04 2193.95 L2880.4 2193.95 L2880.4 2197.88 L2866.32 2197.88 L2866.32 2206.36 Q2867.34 2206.01 2868.36 2205.85 Q2869.38 2205.66 2870.4 2205.66 Q2876.18 2205.66 2879.56 2208.83 Q2882.94 2212 2882.94 2217.42 Q2882.94 2223 2879.47 2226.1 Q2876 2229.18 2869.68 2229.18 Q2867.5 2229.18 2865.23 2228.81 Q2862.99 2228.44 2860.58 2227.7 L2860.58 2223 Q2862.66 2224.13 2864.89 2224.69 Q2867.11 2225.24 2869.59 2225.24 Q2873.59 2225.24 2875.93 2223.14 Q2878.27 2221.03 2878.27 2217.42 Q2878.27 2213.81 2875.93 2211.7 Q2873.59 2209.6 2869.59 2209.6 Q2867.71 2209.6 2865.84 2210.01 Q2863.98 2210.43 2862.04 2211.31 L2862.04 2193.95 Z" fill="#000000" fill-rule="nonzero" fill-opacity="1" /><path clip-path="url(#clip040)" d="M3418.55 2224.57 L3434.87 2224.57 L3434.87 2228.51 L3412.92 2228.51 L3412.92 2224.57 Q3415.58 2221.82 3420.17 2217.19 Q3424.77 2212.54 3425.95 2211.19 Q3428.2 2208.67 3429.08 2206.93 Q3429.98 2205.17 3429.98 2203.48 Q3429.98 2200.73 3428.04 2198.99 Q3426.12 2197.26 3423.01 2197.26 Q3420.82 2197.26 3418.36 2198.02 Q3415.93 2198.79 3413.15 2200.34 L3413.15 2195.61 Q3415.98 2194.48 3418.43 2193.9 Q3420.88 2193.32 3422.92 2193.32 Q3428.29 2193.32 3431.49 2196.01 Q3434.68 2198.69 3434.68 2203.18 Q3434.68 2205.31 3433.87 2207.23 Q3433.08 2209.13 3430.98 2211.73 Q3430.4 2212.4 3427.3 2215.61 Q3424.19 2218.81 3418.55 2224.57 Z" fill="#000000" fill-rule="nonzero" fill-opacity="1" /><path clip-path="url(#clip040)" d="M3454.68 2197.03 Q3451.07 2197.03 3449.24 2200.59 Q3447.44 2204.13 3447.44 2211.26 Q3447.44 2218.37 3449.24 2221.93 Q3451.07 2225.48 3454.68 2225.48 Q3458.31 2225.48 3460.12 2221.93 Q3461.95 2218.37 3461.95 2211.26 Q3461.95 2204.13 3460.12 2200.59 Q3458.31 2197.03 3454.68 2197.03 M3454.68 2193.32 Q3460.49 2193.32 3463.55 2197.93 Q3466.63 2202.51 3466.63 2211.26 Q3466.63 2219.99 3463.55 2224.6 Q3460.49 2229.18 3454.68 2229.18 Q3448.87 2229.18 3445.79 2224.6 Q3442.74 2219.99 3442.74 2211.26 Q3442.74 2202.51 3445.79 2197.93 Q3448.87 2193.32 3454.68 2193.32 Z" fill="#000000" fill-rule="nonzero" fill-opacity="1" /><path clip-path="url(#clip040)" d="M3474.84 2222.63 L3479.73 2222.63 L3479.73 2228.51 L3474.84 2228.51 L3474.84 2222.63 Z" fill="#000000" fill-rule="nonzero" fill-opacity="1" /><path clip-path="url(#clip040)" d="M3499.91 2197.03 Q3496.3 2197.03 3494.47 2200.59 Q3492.67 2204.13 3492.67 2211.26 Q3492.67 2218.37 3494.47 2221.93 Q3496.3 2225.48 3499.91 2225.48 Q3503.55 2225.48 3505.35 2221.93 Q3507.18 2218.37 3507.18 2211.26 Q3507.18 2204.13 3505.35 2200.59 Q3503.55 2197.03 3499.91 2197.03 M3499.91 2193.32 Q3505.72 2193.32 3508.78 2197.93 Q3511.86 2202.51 3511.86 2211.26 Q3511.86 2219.99 3508.78 2224.6 Q3505.72 2229.18 3499.91 2229.18 Q3494.1 2229.18 3491.02 2224.6 Q3487.97 2219.99 3487.97 2211.26 Q3487.97 2202.51 3491.02 2197.93 Q3494.1 2193.32 3499.91 2193.32 Z" fill="#000000" fill-rule="nonzero" fill-opacity="1" /><path clip-path="url(#clip040)" d="M1819.51 2270.99 L1825.36 2270.99 L1825.36 2314.19 L1819.51 2314.19 L1819.51 2270.99 Z" fill="#000000" fill-rule="nonzero" fill-opacity="1" /><path clip-path="url(#clip040)" d="M1842.02 2272.58 L1842.02 2281.78 L1852.99 2281.78 L1852.99 2285.92 L1842.02 2285.92 L1842.02 2303.51 Q1842.02 2307.47 1843.09 2308.6 Q1844.19 2309.73 1847.52 2309.73 L1852.99 2309.73 L1852.99 2314.19 L1847.52 2314.19 Q1841.36 2314.19 1839.01 2311.9 Q1836.67 2309.59 1836.67 2303.51 L1836.67 2285.92 L1832.76 2285.92 L1832.76 2281.78 L1836.67 2281.78 L1836.67 2272.58 L1842.02 2272.58 Z" fill="#000000" fill-rule="nonzero" fill-opacity="1" /><path clip-path="url(#clip040)" d="M1887.71 2296.65 L1887.71 2299.26 L1863.23 2299.26 Q1863.58 2304.75 1866.53 2307.65 Q1869.51 2310.51 1874.81 2310.51 Q1877.87 2310.51 1880.74 2309.76 Q1883.63 2309.01 1886.47 2307.5 L1886.47 2312.54 Q1883.6 2313.75 1880.59 2314.39 Q1877.58 2315.03 1874.49 2315.03 Q1866.73 2315.03 1862.19 2310.51 Q1857.68 2306 1857.68 2298.3 Q1857.68 2290.35 1861.96 2285.69 Q1866.27 2281 1873.56 2281 Q1880.1 2281 1883.89 2285.22 Q1887.71 2289.42 1887.71 2296.65 M1882.39 2295.09 Q1882.33 2290.72 1879.93 2288.12 Q1877.56 2285.51 1873.62 2285.51 Q1869.16 2285.51 1866.47 2288.03 Q1863.81 2290.55 1863.41 2295.12 L1882.39 2295.09 Z" fill="#000000" fill-rule="nonzero" fill-opacity="1" /><path clip-path="url(#clip040)" d="M1915.23 2286.76 Q1914.33 2286.24 1913.26 2286 Q1912.22 2285.74 1910.95 2285.74 Q1906.43 2285.74 1904 2288.7 Q1901.6 2291.62 1901.6 2297.12 L1901.6 2314.19 L1896.25 2314.19 L1896.25 2281.78 L1901.6 2281.78 L1901.6 2286.82 Q1903.28 2283.86 1905.97 2282.45 Q1908.66 2281 1912.51 2281 Q1913.06 2281 1913.72 2281.09 Q1914.39 2281.14 1915.2 2281.29 L1915.23 2286.76 Z" fill="#000000" fill-rule="nonzero" fill-opacity="1" /><path clip-path="url(#clip040)" d="M1935.54 2297.9 Q1929.09 2297.9 1926.6 2299.37 Q1924.11 2300.85 1924.11 2304.41 Q1924.11 2307.24 1925.96 2308.92 Q1927.85 2310.57 1931.06 2310.57 Q1935.48 2310.57 1938.15 2307.45 Q1940.84 2304.29 1940.84 2299.08 L1940.84 2297.9 L1935.54 2297.9 M1946.16 2295.7 L1946.16 2314.19 L1940.84 2314.19 L1940.84 2309.27 Q1939.01 2312.22 1936.29 2313.64 Q1933.57 2315.03 1929.64 2315.03 Q1924.66 2315.03 1921.71 2312.25 Q1918.79 2309.44 1918.79 2304.75 Q1918.79 2299.29 1922.43 2296.51 Q1926.11 2293.73 1933.37 2293.73 L1940.84 2293.73 L1940.84 2293.21 Q1940.84 2289.54 1938.41 2287.54 Q1936 2285.51 1931.64 2285.51 Q1928.86 2285.51 1926.22 2286.18 Q1923.59 2286.84 1921.16 2288.18 L1921.16 2283.26 Q1924.08 2282.13 1926.83 2281.58 Q1929.58 2281 1932.19 2281 Q1939.22 2281 1942.69 2284.65 Q1946.16 2288.29 1946.16 2295.7 Z" fill="#000000" fill-rule="nonzero" fill-opacity="1" /><path clip-path="url(#clip040)" d="M1962.39 2272.58 L1962.39 2281.78 L1973.36 2281.78 L1973.36 2285.92 L1962.39 2285.92 L1962.39 2303.51 Q1962.39 2307.47 1963.46 2308.6 Q1964.56 2309.73 1967.89 2309.73 L1973.36 2309.73 L1973.36 2314.19 L1967.89 2314.19 Q1961.73 2314.19 1959.38 2311.9 Q1957.04 2309.59 1957.04 2303.51 L1957.04 2285.92 L1953.13 2285.92 L1953.13 2281.78 L1957.04 2281.78 L1957.04 2272.58 L1962.39 2272.58 Z" fill="#000000" fill-rule="nonzero" fill-opacity="1" /><path clip-path="url(#clip040)" d="M1980.36 2281.78 L1985.69 2281.78 L1985.69 2314.19 L1980.36 2314.19 L1980.36 2281.78 M1980.36 2269.16 L1985.69 2269.16 L1985.69 2275.91 L1980.36 2275.91 L1980.36 2269.16 Z" fill="#000000" fill-rule="nonzero" fill-opacity="1" /><path clip-path="url(#clip040)" d="M2009.38 2285.51 Q2005.1 2285.51 2002.61 2288.87 Q2000.12 2292.2 2000.12 2298.01 Q2000.12 2303.83 2002.58 2307.19 Q2005.07 2310.51 2009.38 2310.51 Q2013.64 2310.51 2016.13 2307.16 Q2018.61 2303.8 2018.61 2298.01 Q2018.61 2292.25 2016.13 2288.9 Q2013.64 2285.51 2009.38 2285.51 M2009.38 2281 Q2016.33 2281 2020.29 2285.51 Q2024.26 2290.03 2024.26 2298.01 Q2024.26 2305.97 2020.29 2310.51 Q2016.33 2315.03 2009.38 2315.03 Q2002.41 2315.03 1998.45 2310.51 Q1994.51 2305.97 1994.51 2298.01 Q1994.51 2290.03 1998.45 2285.51 Q2002.41 2281 2009.38 2281 Z" fill="#000000" fill-rule="nonzero" fill-opacity="1" /><path clip-path="url(#clip040)" d="M2060.02 2294.63 L2060.02 2314.19 L2054.7 2314.19 L2054.7 2294.8 Q2054.7 2290.2 2052.9 2287.91 Q2051.11 2285.63 2047.52 2285.63 Q2043.21 2285.63 2040.72 2288.38 Q2038.23 2291.13 2038.23 2295.87 L2038.23 2314.19 L2032.88 2314.19 L2032.88 2281.78 L2038.23 2281.78 L2038.23 2286.82 Q2040.14 2283.89 2042.72 2282.45 Q2045.32 2281 2048.71 2281 Q2054.29 2281 2057.16 2284.47 Q2060.02 2287.91 2060.02 2294.63 Z" fill="#000000" fill-rule="nonzero" fill-opacity="1" /><path clip-path="url(#clip040)" d="M2091.3 2282.74 L2091.3 2287.77 Q2089.04 2286.61 2086.61 2286.03 Q2084.18 2285.46 2081.58 2285.46 Q2077.61 2285.46 2075.62 2286.67 Q2073.65 2287.89 2073.65 2290.32 Q2073.65 2292.17 2075.07 2293.24 Q2076.48 2294.28 2080.77 2295.24 L2082.59 2295.64 Q2088.26 2296.86 2090.63 2299.08 Q2093.04 2301.28 2093.04 2305.25 Q2093.04 2309.76 2089.45 2312.39 Q2085.89 2315.03 2079.64 2315.03 Q2077.03 2315.03 2074.2 2314.51 Q2071.39 2314.01 2068.27 2313 L2068.27 2307.5 Q2071.22 2309.04 2074.08 2309.82 Q2076.95 2310.57 2079.75 2310.57 Q2083.52 2310.57 2085.54 2309.3 Q2087.57 2308 2087.57 2305.65 Q2087.57 2303.48 2086.09 2302.32 Q2084.64 2301.17 2079.7 2300.1 L2077.84 2299.66 Q2072.9 2298.62 2070.7 2296.48 Q2068.5 2294.31 2068.5 2290.55 Q2068.5 2285.98 2071.74 2283.49 Q2074.98 2281 2080.94 2281 Q2083.89 2281 2086.5 2281.43 Q2089.1 2281.87 2091.3 2282.74 Z" fill="#000000" fill-rule="nonzero" fill-opacity="1" /><polyline clip-path="url(#clip040)" style="stroke:#000000; stroke-linecap:round; stroke-linejoin:round; stroke-width:4; stroke-opacity:1; fill:none" points="359.791,2156.51 359.791,246.944 "/>
<polyline clip-path="url(#clip040)" style="stroke:#000000; stroke-linecap:round; stroke-linejoin:round; stroke-width:4; stroke-opacity:1; fill:none" points="359.791,1772.59 378.689,1772.59 "/>
<polyline clip-path="url(#clip040)" style="stroke:#000000; stroke-linecap:round; stroke-linejoin:round; stroke-width:4; stroke-opacity:1; fill:none" points="359.791,1156.08 378.689,1156.08 "/>
<polyline clip-path="url(#clip040)" style="stroke:#000000; stroke-linecap:round; stroke-linejoin:round; stroke-width:4; stroke-opacity:1; fill:none" points="359.791,539.564 378.689,539.564 "/>
<path clip-path="url(#clip040)" d="M168.412 1792.38 L176.051 1792.38 L176.051 1766.02 L167.741 1767.68 L167.741 1763.42 L176.005 1761.76 L180.681 1761.76 L180.681 1792.38 L188.32 1792.38 L188.32 1796.32 L168.412 1796.32 L168.412 1792.38 Z" fill="#000000" fill-rule="nonzero" fill-opacity="1" /><path clip-path="url(#clip040)" d="M207.764 1764.83 Q204.153 1764.83 202.324 1768.4 Q200.519 1771.94 200.519 1779.07 Q200.519 1786.18 202.324 1789.74 Q204.153 1793.28 207.764 1793.28 Q211.398 1793.28 213.204 1789.74 Q215.032 1786.18 215.032 1779.07 Q215.032 1771.94 213.204 1768.4 Q211.398 1764.83 207.764 1764.83 M207.764 1761.13 Q213.574 1761.13 216.63 1765.74 Q219.708 1770.32 219.708 1779.07 Q219.708 1787.8 216.63 1792.4 Q213.574 1796.99 207.764 1796.99 Q201.954 1796.99 198.875 1792.4 Q195.82 1787.8 195.82 1779.07 Q195.82 1770.32 198.875 1765.74 Q201.954 1761.13 207.764 1761.13 Z" fill="#000000" fill-rule="nonzero" fill-opacity="1" /><path clip-path="url(#clip040)" d="M219.708 1755.23 L243.82 1755.23 L243.82 1758.43 L219.708 1758.43 L219.708 1755.23 Z" fill="#000000" fill-rule="nonzero" fill-opacity="1" /><path clip-path="url(#clip040)" d="M252.678 1765.71 L258.885 1765.71 L258.885 1744.29 L252.133 1745.64 L252.133 1742.18 L258.847 1740.83 L262.646 1740.83 L262.646 1765.71 L268.853 1765.71 L268.853 1768.91 L252.678 1768.91 L252.678 1765.71 Z" fill="#000000" fill-rule="nonzero" fill-opacity="1" /><path clip-path="url(#clip040)" d="M276.527 1764.13 L280.495 1764.13 L280.495 1768.91 L276.527 1768.91 L276.527 1764.13 Z" fill="#000000" fill-rule="nonzero" fill-opacity="1" /><path clip-path="url(#clip040)" d="M288.808 1740.83 L303.723 1740.83 L303.723 1744.02 L292.288 1744.02 L292.288 1750.91 Q293.115 1750.62 293.943 1750.49 Q294.77 1750.34 295.598 1750.34 Q300.3 1750.34 303.046 1752.92 Q305.791 1755.5 305.791 1759.9 Q305.791 1764.43 302.97 1766.95 Q300.149 1769.45 295.015 1769.45 Q293.247 1769.45 291.404 1769.15 Q289.579 1768.85 287.623 1768.25 L287.623 1764.43 Q289.316 1765.35 291.121 1765.8 Q292.927 1766.25 294.939 1766.25 Q298.193 1766.25 300.093 1764.54 Q301.992 1762.83 301.992 1759.9 Q301.992 1756.96 300.093 1755.25 Q298.193 1753.54 294.939 1753.54 Q293.416 1753.54 291.893 1753.88 Q290.388 1754.22 288.808 1754.93 L288.808 1740.83 Z" fill="#000000" fill-rule="nonzero" fill-opacity="1" /><path clip-path="url(#clip040)" d="M167.604 1175.87 L175.242 1175.87 L175.242 1149.5 L166.932 1151.17 L166.932 1146.91 L175.196 1145.24 L179.872 1145.24 L179.872 1175.87 L187.511 1175.87 L187.511 1179.8 L167.604 1179.8 L167.604 1175.87 Z" fill="#000000" fill-rule="nonzero" fill-opacity="1" /><path clip-path="url(#clip040)" d="M206.955 1148.32 Q203.344 1148.32 201.515 1151.89 Q199.71 1155.43 199.71 1162.56 Q199.71 1169.66 201.515 1173.23 Q203.344 1176.77 206.955 1176.77 Q210.589 1176.77 212.395 1173.23 Q214.224 1169.66 214.224 1162.56 Q214.224 1155.43 212.395 1151.89 Q210.589 1148.32 206.955 1148.32 M206.955 1144.62 Q212.765 1144.62 215.821 1149.23 Q218.9 1153.81 218.9 1162.56 Q218.9 1171.29 215.821 1175.89 Q212.765 1180.47 206.955 1180.47 Q201.145 1180.47 198.066 1175.89 Q195.011 1171.29 195.011 1162.56 Q195.011 1153.81 198.066 1149.23 Q201.145 1144.62 206.955 1144.62 Z" fill="#000000" fill-rule="nonzero" fill-opacity="1" /><path clip-path="url(#clip040)" d="M218.9 1138.72 L243.011 1138.72 L243.011 1141.92 L218.9 1141.92 L218.9 1138.72 Z" fill="#000000" fill-rule="nonzero" fill-opacity="1" /><path clip-path="url(#clip040)" d="M251.87 1149.2 L258.076 1149.2 L258.076 1127.77 L251.324 1129.13 L251.324 1125.67 L258.039 1124.31 L261.838 1124.31 L261.838 1149.2 L268.044 1149.2 L268.044 1152.39 L251.87 1152.39 L251.87 1149.2 Z" fill="#000000" fill-rule="nonzero" fill-opacity="1" /><path clip-path="url(#clip040)" d="M275.718 1147.62 L279.686 1147.62 L279.686 1152.39 L275.718 1152.39 L275.718 1147.62 Z" fill="#000000" fill-rule="nonzero" fill-opacity="1" /><path clip-path="url(#clip040)" d="M296.087 1126.81 Q293.153 1126.81 291.667 1129.71 Q290.2 1132.59 290.2 1138.38 Q290.2 1144.16 291.667 1147.05 Q293.153 1149.93 296.087 1149.93 Q299.04 1149.93 300.507 1147.05 Q301.992 1144.16 301.992 1138.38 Q301.992 1132.59 300.507 1129.71 Q299.04 1126.81 296.087 1126.81 M296.087 1123.81 Q300.807 1123.81 303.29 1127.55 Q305.791 1131.27 305.791 1138.38 Q305.791 1145.47 303.29 1149.21 Q300.807 1152.94 296.087 1152.94 Q291.366 1152.94 288.865 1149.21 Q286.382 1145.47 286.382 1138.38 Q286.382 1131.27 288.865 1127.55 Q291.366 1123.81 296.087 1123.81 Z" fill="#000000" fill-rule="nonzero" fill-opacity="1" /><path clip-path="url(#clip040)" d="M168.412 559.356 L176.051 559.356 L176.051 532.991 L167.741 534.657 L167.741 530.398 L176.005 528.731 L180.681 528.731 L180.681 559.356 L188.32 559.356 L188.32 563.291 L168.412 563.291 L168.412 559.356 Z" fill="#000000" fill-rule="nonzero" fill-opacity="1" /><path clip-path="url(#clip040)" d="M207.764 531.81 Q204.153 531.81 202.324 535.375 Q200.519 538.917 200.519 546.046 Q200.519 553.153 202.324 556.717 Q204.153 560.259 207.764 560.259 Q211.398 560.259 213.204 556.717 Q215.032 553.153 215.032 546.046 Q215.032 538.917 213.204 535.375 Q211.398 531.81 207.764 531.81 M207.764 528.106 Q213.574 528.106 216.63 532.713 Q219.708 537.296 219.708 546.046 Q219.708 554.773 216.63 559.379 Q213.574 563.963 207.764 563.963 Q201.954 563.963 198.875 559.379 Q195.82 554.773 195.82 546.046 Q195.82 537.296 198.875 532.713 Q201.954 528.106 207.764 528.106 Z" fill="#000000" fill-rule="nonzero" fill-opacity="1" /><path clip-path="url(#clip040)" d="M219.708 522.208 L243.82 522.208 L243.82 525.405 L219.708 525.405 L219.708 522.208 Z" fill="#000000" fill-rule="nonzero" fill-opacity="1" /><path clip-path="url(#clip040)" d="M260.145 510.302 Q257.211 510.302 255.725 513.199 Q254.258 516.076 254.258 521.869 Q254.258 527.643 255.725 530.54 Q257.211 533.417 260.145 533.417 Q263.098 533.417 264.565 530.54 Q266.051 527.643 266.051 521.869 Q266.051 516.076 264.565 513.199 Q263.098 510.302 260.145 510.302 M260.145 507.293 Q264.866 507.293 267.348 511.036 Q269.85 514.76 269.85 521.869 Q269.85 528.96 267.348 532.702 Q264.866 536.426 260.145 536.426 Q255.424 536.426 252.923 532.702 Q250.44 528.96 250.44 521.869 Q250.44 514.76 252.923 511.036 Q255.424 507.293 260.145 507.293 Z" fill="#000000" fill-rule="nonzero" fill-opacity="1" /><path clip-path="url(#clip040)" d="M276.527 531.104 L280.495 531.104 L280.495 535.881 L276.527 535.881 L276.527 531.104 Z" fill="#000000" fill-rule="nonzero" fill-opacity="1" /><path clip-path="url(#clip040)" d="M288.808 507.801 L303.723 507.801 L303.723 510.998 L292.288 510.998 L292.288 517.882 Q293.115 517.6 293.943 517.468 Q294.77 517.318 295.598 517.318 Q300.3 517.318 303.046 519.894 Q305.791 522.471 305.791 526.872 Q305.791 531.405 302.97 533.925 Q300.149 536.426 295.015 536.426 Q293.247 536.426 291.404 536.126 Q289.579 535.825 287.623 535.223 L287.623 531.405 Q289.316 532.326 291.121 532.778 Q292.927 533.229 294.939 533.229 Q298.193 533.229 300.093 531.518 Q301.992 529.806 301.992 526.872 Q301.992 523.938 300.093 522.227 Q298.193 520.515 294.939 520.515 Q293.416 520.515 291.893 520.854 Q290.388 521.192 288.808 521.907 L288.808 507.801 Z" fill="#000000" fill-rule="nonzero" fill-opacity="1" /><path clip-path="url(#clip040)" d="M60.0998 1347.25 L66.263 1347.25 Q63.5141 1350.21 62.1542 1353.56 Q60.7943 1356.89 60.7943 1360.65 Q60.7943 1368.06 65.3371 1371.99 Q69.8509 1375.93 78.4157 1375.93 Q86.9515 1375.93 91.4943 1371.99 Q96.0082 1368.06 96.0082 1360.65 Q96.0082 1356.89 94.6482 1353.56 Q93.2883 1350.21 90.5395 1347.25 L96.6448 1347.25 Q98.7281 1350.32 99.7697 1353.77 Q100.811 1357.18 100.811 1361 Q100.811 1370.81 94.8218 1376.45 Q88.8034 1382.09 78.4157 1382.09 Q67.9991 1382.09 62.0095 1376.45 Q55.991 1370.81 55.991 1361 Q55.991 1357.12 57.0327 1353.71 Q58.0454 1350.26 60.0998 1347.25 Z" fill="#000000" fill-rule="nonzero" fill-opacity="1" /><path clip-path="url(#clip040)" d="M61.5755 1332.38 L77.8081 1332.38 L77.8081 1325.03 Q77.8081 1320.95 75.6958 1318.72 Q73.5835 1316.5 69.6773 1316.5 Q65.8 1316.5 63.6878 1318.72 Q61.5755 1320.95 61.5755 1325.03 L61.5755 1332.38 M56.7723 1338.23 L56.7723 1325.03 Q56.7723 1317.77 60.0709 1314.07 Q63.3405 1310.33 69.6773 1310.33 Q76.0719 1310.33 79.3416 1314.07 Q82.6113 1317.77 82.6113 1325.03 L82.6113 1332.38 L99.9723 1332.38 L99.9723 1338.23 L56.7723 1338.23 Z" fill="#000000" fill-rule="nonzero" fill-opacity="1" /><path clip-path="url(#clip040)" d="M56.7723 1303.16 L56.7723 1297.28 L83.0164 1297.28 Q89.9608 1297.28 93.0279 1294.77 Q96.0661 1292.25 96.0661 1286.61 Q96.0661 1280.99 93.0279 1278.48 Q89.9608 1275.96 83.0164 1275.96 L56.7723 1275.96 L56.7723 1270.08 L83.7397 1270.08 Q92.1888 1270.08 96.5001 1274.28 Q100.811 1278.45 100.811 1286.61 Q100.811 1294.8 96.5001 1298.99 Q92.1888 1303.16 83.7397 1303.16 L56.7723 1303.16 Z" fill="#000000" fill-rule="nonzero" fill-opacity="1" /><path clip-path="url(#clip040)" d="M58.3637 1235.25 L67.565 1235.25 L67.565 1224.28 L71.7028 1224.28 L71.7028 1235.25 L89.2953 1235.25 Q93.2594 1235.25 94.3878 1234.18 Q95.5163 1233.08 95.5163 1229.75 L95.5163 1224.28 L99.9723 1224.28 L99.9723 1229.75 Q99.9723 1235.91 97.6864 1238.26 Q95.3716 1240.6 89.2953 1240.6 L71.7028 1240.6 L71.7028 1244.51 L67.565 1244.51 L67.565 1240.6 L58.3637 1240.6 L58.3637 1235.25 Z" fill="#000000" fill-rule="nonzero" fill-opacity="1" /><path clip-path="url(#clip040)" d="M67.565 1217.28 L67.565 1211.95 L99.9723 1211.95 L99.9723 1217.28 L67.565 1217.28 M54.9494 1217.28 L54.9494 1211.95 L61.6912 1211.95 L61.6912 1217.28 L54.9494 1217.28 Z" fill="#000000" fill-rule="nonzero" fill-opacity="1" /><path clip-path="url(#clip040)" d="M73.7861 1175.58 Q70.1981 1173.59 68.491 1170.81 Q66.7838 1168.03 66.7838 1164.27 Q66.7838 1159.21 70.3428 1156.46 Q73.8729 1153.71 80.4122 1153.71 L99.9723 1153.71 L99.9723 1159.06 L80.5858 1159.06 Q75.9273 1159.06 73.6703 1160.71 Q71.4134 1162.36 71.4134 1165.75 Q71.4134 1169.88 74.1622 1172.28 Q76.9111 1174.69 81.6564 1174.69 L99.9723 1174.69 L99.9723 1180.04 L80.5858 1180.04 Q75.8983 1180.04 73.6703 1181.69 Q71.4134 1183.34 71.4134 1186.78 Q71.4134 1190.86 74.1912 1193.26 Q76.94 1195.66 81.6564 1195.66 L99.9723 1195.66 L99.9723 1201.02 L67.565 1201.02 L67.565 1195.66 L72.5997 1195.66 Q69.6194 1193.84 68.2016 1191.29 Q66.7838 1188.75 66.7838 1185.25 Q66.7838 1181.72 68.5778 1179.26 Q70.3717 1176.77 73.7861 1175.58 Z" fill="#000000" fill-rule="nonzero" fill-opacity="1" /><path clip-path="url(#clip040)" d="M82.4377 1115.37 L85.0418 1115.37 L85.0418 1139.85 Q90.5395 1139.5 93.433 1136.55 Q96.2975 1133.57 96.2975 1128.27 Q96.2975 1125.21 95.5452 1122.34 Q94.7929 1119.45 93.2883 1116.61 L98.323 1116.61 Q99.5383 1119.48 100.175 1122.49 Q100.811 1125.5 100.811 1128.59 Q100.811 1136.35 96.2975 1140.89 Q91.7837 1145.4 84.087 1145.4 Q76.1298 1145.4 71.4713 1141.12 Q66.7838 1136.81 66.7838 1129.52 Q66.7838 1122.98 71.0083 1119.19 Q75.2039 1115.37 82.4377 1115.37 M80.8752 1120.69 Q76.506 1120.75 73.9018 1123.15 Q71.2977 1125.53 71.2977 1129.46 Q71.2977 1133.92 73.815 1136.61 Q76.3324 1139.27 80.9041 1139.67 L80.8752 1120.69 Z" fill="#000000" fill-rule="nonzero" fill-opacity="1" /><path clip-path="url(#clip040)" d="M55.0072 1075.01 Q61.6623 1078.88 68.1727 1080.76 Q74.6831 1082.64 81.3671 1082.64 Q88.0511 1082.64 94.6193 1080.76 Q101.159 1078.85 107.785 1075.01 L107.785 1079.63 Q100.985 1083.97 94.4168 1086.15 Q87.8485 1088.29 81.3671 1088.29 Q74.9145 1088.29 68.3752 1086.15 Q61.8359 1084 55.0072 1079.63 L55.0072 1075.01 Z" fill="#000000" fill-rule="nonzero" fill-opacity="1" /><path clip-path="url(#clip040)" d="M68.5199 1044.02 L73.5546 1044.02 Q72.3972 1046.27 71.8185 1048.7 Q71.2398 1051.13 71.2398 1053.74 Q71.2398 1057.7 72.4551 1059.7 Q73.6703 1061.67 76.1009 1061.67 Q77.9527 1061.67 79.0233 1060.25 Q80.065 1058.83 81.0198 1054.55 L81.4249 1052.73 Q82.6402 1047.05 84.8682 1044.68 Q87.0673 1042.28 91.0314 1042.28 Q95.5452 1042.28 98.1783 1045.87 Q100.811 1049.43 100.811 1055.68 Q100.811 1058.28 100.291 1061.12 Q99.7987 1063.92 98.7859 1067.05 L93.2883 1067.05 Q94.8218 1064.1 95.6031 1061.23 Q96.3554 1058.37 96.3554 1055.56 Q96.3554 1051.8 95.0823 1049.77 Q93.7802 1047.75 91.4364 1047.75 Q89.2663 1047.75 88.1089 1049.22 Q86.9515 1050.67 85.8809 1055.62 L85.4469 1057.47 Q84.4052 1062.42 82.264 1064.62 Q80.0939 1066.82 76.3324 1066.82 Q71.7606 1066.82 69.2722 1063.58 Q66.7838 1060.33 66.7838 1054.37 Q66.7838 1051.42 67.2178 1048.82 Q67.6519 1046.21 68.5199 1044.02 Z" fill="#000000" fill-rule="nonzero" fill-opacity="1" /><path clip-path="url(#clip040)" d="M55.0072 1034.64 L55.0072 1030.01 Q61.8359 1025.67 68.3752 1023.53 Q74.9145 1021.36 81.3671 1021.36 Q87.8485 1021.36 94.4168 1023.53 Q100.985 1025.67 107.785 1030.01 L107.785 1034.64 Q101.159 1030.79 94.6193 1028.91 Q88.0511 1027 81.3671 1027 Q74.6831 1027 68.1727 1028.91 Q61.6623 1030.79 55.0072 1034.64 Z" fill="#000000" fill-rule="nonzero" fill-opacity="1" /><path clip-path="url(#clip040)" d="M1098.25 123.984 L1106.43 123.984 L1106.43 184.464 L1098.25 184.464 L1098.25 123.984 Z" fill="#000000" fill-rule="nonzero" fill-opacity="1" /><path clip-path="url(#clip040)" d="M1129.77 126.212 L1129.77 139.094 L1145.12 139.094 L1145.12 144.887 L1129.77 144.887 L1129.77 169.516 Q1129.77 175.066 1131.27 176.646 Q1132.81 178.226 1137.46 178.226 L1145.12 178.226 L1145.12 184.464 L1137.46 184.464 Q1128.84 184.464 1125.55 181.264 Q1122.27 178.023 1122.27 169.516 L1122.27 144.887 L1116.8 144.887 L1116.8 139.094 L1122.27 139.094 L1122.27 126.212 L1129.77 126.212 Z" fill="#000000" fill-rule="nonzero" fill-opacity="1" /><path clip-path="url(#clip040)" d="M1193.73 159.916 L1193.73 163.561 L1159.46 163.561 Q1159.95 171.258 1164.08 175.309 Q1168.25 179.319 1175.66 179.319 Q1179.96 179.319 1183.97 178.266 Q1188.02 177.213 1191.99 175.106 L1191.99 182.155 Q1187.98 183.856 1183.77 184.748 Q1179.55 185.639 1175.22 185.639 Q1164.36 185.639 1158 179.319 Q1151.68 173 1151.68 162.225 Q1151.68 151.085 1157.68 144.563 Q1163.71 138 1173.92 138 Q1183.08 138 1188.38 143.914 Q1193.73 149.788 1193.73 159.916 M1186.28 157.728 Q1186.2 151.611 1182.83 147.965 Q1179.51 144.32 1174 144.32 Q1167.77 144.32 1164 147.844 Q1160.27 151.368 1159.7 157.769 L1186.28 157.728 Z" fill="#000000" fill-rule="nonzero" fill-opacity="1" /><path clip-path="url(#clip040)" d="M1232.26 146.061 Q1231 145.332 1229.5 145.008 Q1228.04 144.644 1226.26 144.644 Q1219.94 144.644 1216.54 148.776 Q1213.18 152.867 1213.18 160.564 L1213.18 184.464 L1205.68 184.464 L1205.68 139.094 L1213.18 139.094 L1213.18 146.142 Q1215.53 142.011 1219.29 140.026 Q1223.06 138 1228.45 138 Q1229.22 138 1230.15 138.122 Q1231.08 138.203 1232.22 138.405 L1232.26 146.061 Z" fill="#000000" fill-rule="nonzero" fill-opacity="1" /><path clip-path="url(#clip040)" d="M1260.69 161.657 Q1251.66 161.657 1248.18 163.723 Q1244.69 165.789 1244.69 170.772 Q1244.69 174.742 1247.28 177.091 Q1249.92 179.4 1254.41 179.4 Q1260.61 179.4 1264.34 175.025 Q1268.11 170.61 1268.11 163.318 L1268.11 161.657 L1260.69 161.657 M1275.56 158.579 L1275.56 184.464 L1268.11 184.464 L1268.11 177.577 Q1265.55 181.709 1261.75 183.694 Q1257.94 185.639 1252.43 185.639 Q1245.46 185.639 1241.33 181.75 Q1237.24 177.821 1237.24 171.258 Q1237.24 163.602 1242.34 159.713 Q1247.49 155.824 1257.65 155.824 L1268.11 155.824 L1268.11 155.095 Q1268.11 149.95 1264.7 147.155 Q1261.34 144.32 1255.22 144.32 Q1251.34 144.32 1247.65 145.251 Q1243.96 146.183 1240.56 148.046 L1240.56 141.16 Q1244.65 139.58 1248.5 138.81 Q1252.35 138 1255.99 138 Q1265.84 138 1270.7 143.104 Q1275.56 148.208 1275.56 158.579 Z" fill="#000000" fill-rule="nonzero" fill-opacity="1" /><path clip-path="url(#clip040)" d="M1298.29 126.212 L1298.29 139.094 L1313.64 139.094 L1313.64 144.887 L1298.29 144.887 L1298.29 169.516 Q1298.29 175.066 1299.78 176.646 Q1301.32 178.226 1305.98 178.226 L1313.64 178.226 L1313.64 184.464 L1305.98 184.464 Q1297.35 184.464 1294.07 181.264 Q1290.79 178.023 1290.79 169.516 L1290.79 144.887 L1285.32 144.887 L1285.32 139.094 L1290.79 139.094 L1290.79 126.212 L1298.29 126.212 Z" fill="#000000" fill-rule="nonzero" fill-opacity="1" /><path clip-path="url(#clip040)" d="M1323.44 139.094 L1330.9 139.094 L1330.9 184.464 L1323.44 184.464 L1323.44 139.094 M1323.44 121.432 L1330.9 121.432 L1330.9 130.871 L1323.44 130.871 L1323.44 121.432 Z" fill="#000000" fill-rule="nonzero" fill-opacity="1" /><path clip-path="url(#clip040)" d="M1364.07 144.32 Q1358.08 144.32 1354.59 149.019 Q1351.11 153.677 1351.11 161.819 Q1351.11 169.962 1354.55 174.661 Q1358.04 179.319 1364.07 179.319 Q1370.03 179.319 1373.51 174.62 Q1376.99 169.921 1376.99 161.819 Q1376.99 153.758 1373.51 149.059 Q1370.03 144.32 1364.07 144.32 M1364.07 138 Q1373.79 138 1379.34 144.32 Q1384.89 150.639 1384.89 161.819 Q1384.89 172.959 1379.34 179.319 Q1373.79 185.639 1364.07 185.639 Q1354.31 185.639 1348.76 179.319 Q1343.25 172.959 1343.25 161.819 Q1343.25 150.639 1348.76 144.32 Q1354.31 138 1364.07 138 Z" fill="#000000" fill-rule="nonzero" fill-opacity="1" /><path clip-path="url(#clip040)" d="M1434.96 157.08 L1434.96 184.464 L1427.51 184.464 L1427.51 157.323 Q1427.51 150.882 1425 147.682 Q1422.49 144.482 1417.46 144.482 Q1411.43 144.482 1407.94 148.33 Q1404.46 152.178 1404.46 158.822 L1404.46 184.464 L1396.97 184.464 L1396.97 139.094 L1404.46 139.094 L1404.46 146.142 Q1407.13 142.051 1410.74 140.026 Q1414.38 138 1419.12 138 Q1426.94 138 1430.95 142.861 Q1434.96 147.682 1434.96 157.08 Z" fill="#000000" fill-rule="nonzero" fill-opacity="1" /><path clip-path="url(#clip040)" d="M1478.75 140.431 L1478.75 147.479 Q1475.59 145.859 1472.19 145.049 Q1468.79 144.239 1465.14 144.239 Q1459.59 144.239 1456.8 145.94 Q1454.04 147.641 1454.04 151.044 Q1454.04 153.637 1456.03 155.135 Q1458.01 156.594 1464.01 157.931 L1466.56 158.498 Q1474.5 160.199 1477.82 163.318 Q1481.18 166.397 1481.18 171.947 Q1481.18 178.266 1476.16 181.952 Q1471.18 185.639 1462.43 185.639 Q1458.78 185.639 1454.81 184.91 Q1450.88 184.221 1446.51 182.803 L1446.51 175.106 Q1450.64 177.253 1454.65 178.347 Q1458.66 179.4 1462.59 179.4 Q1467.86 179.4 1470.69 177.618 Q1473.53 175.795 1473.53 172.514 Q1473.53 169.476 1471.46 167.855 Q1469.44 166.235 1462.51 164.736 L1459.92 164.128 Q1452.99 162.67 1449.91 159.672 Q1446.83 156.634 1446.83 151.368 Q1446.83 144.968 1451.37 141.484 Q1455.91 138 1464.25 138 Q1468.38 138 1472.03 138.608 Q1475.67 139.215 1478.75 140.431 Z" fill="#000000" fill-rule="nonzero" fill-opacity="1" /><path clip-path="url(#clip040)" d="M1514.08 139.094 L1521.98 139.094 L1536.15 177.172 L1550.33 139.094 L1558.23 139.094 L1541.22 184.464 L1531.09 184.464 L1514.08 139.094 Z" fill="#000000" fill-rule="nonzero" fill-opacity="1" /><path clip-path="url(#clip040)" d="M1597.44 140.431 L1597.44 147.479 Q1594.28 145.859 1590.88 145.049 Q1587.48 144.239 1583.83 144.239 Q1578.28 144.239 1575.49 145.94 Q1572.73 147.641 1572.73 151.044 Q1572.73 153.637 1574.72 155.135 Q1576.7 156.594 1582.7 157.931 L1585.25 158.498 Q1593.19 160.199 1596.51 163.318 Q1599.88 166.397 1599.88 171.947 Q1599.88 178.266 1594.85 181.952 Q1589.87 185.639 1581.12 185.639 Q1577.47 185.639 1573.5 184.91 Q1569.57 184.221 1565.2 182.803 L1565.2 175.106 Q1569.33 177.253 1573.34 178.347 Q1577.35 179.4 1581.28 179.4 Q1586.55 179.4 1589.38 177.618 Q1592.22 175.795 1592.22 172.514 Q1592.22 169.476 1590.15 167.855 Q1588.13 166.235 1581.2 164.736 L1578.61 164.128 Q1571.68 162.67 1568.6 159.672 Q1565.52 156.634 1565.52 151.368 Q1565.52 144.968 1570.06 141.484 Q1574.6 138 1582.94 138 Q1587.07 138 1590.72 138.608 Q1594.37 139.215 1597.44 140.431 Z" fill="#000000" fill-rule="nonzero" fill-opacity="1" /><path clip-path="url(#clip040)" d="M1683.73 128.643 L1683.73 137.271 Q1679.6 133.423 1674.9 131.519 Q1670.24 129.615 1664.97 129.615 Q1654.6 129.615 1649.09 135.975 Q1643.58 142.294 1643.58 154.285 Q1643.58 166.235 1649.09 172.595 Q1654.6 178.914 1664.97 178.914 Q1670.24 178.914 1674.9 177.01 Q1679.6 175.106 1683.73 171.258 L1683.73 179.805 Q1679.43 182.722 1674.61 184.18 Q1669.83 185.639 1664.49 185.639 Q1650.75 185.639 1642.86 177.253 Q1634.96 168.828 1634.96 154.285 Q1634.96 139.702 1642.86 131.316 Q1650.75 122.89 1664.49 122.89 Q1669.92 122.89 1674.7 124.349 Q1679.52 125.766 1683.73 128.643 Z" fill="#000000" fill-rule="nonzero" fill-opacity="1" /><path clip-path="url(#clip040)" d="M1704.55 130.709 L1704.55 153.434 L1714.84 153.434 Q1720.55 153.434 1723.67 150.477 Q1726.79 147.52 1726.79 142.051 Q1726.79 136.623 1723.67 133.666 Q1720.55 130.709 1714.84 130.709 L1704.55 130.709 M1696.37 123.984 L1714.84 123.984 Q1725.01 123.984 1730.19 128.602 Q1735.42 133.18 1735.42 142.051 Q1735.42 151.004 1730.19 155.581 Q1725.01 160.159 1714.84 160.159 L1704.55 160.159 L1704.55 184.464 L1696.37 184.464 L1696.37 123.984 Z" fill="#000000" fill-rule="nonzero" fill-opacity="1" /><path clip-path="url(#clip040)" d="M1745.46 123.984 L1753.69 123.984 L1753.69 160.726 Q1753.69 170.448 1757.21 174.742 Q1760.74 178.995 1768.64 178.995 Q1776.49 178.995 1780.02 174.742 Q1783.54 170.448 1783.54 160.726 L1783.54 123.984 L1791.77 123.984 L1791.77 161.738 Q1791.77 173.567 1785.89 179.603 Q1780.06 185.639 1768.64 185.639 Q1757.17 185.639 1751.3 179.603 Q1745.46 173.567 1745.46 161.738 L1745.46 123.984 Z" fill="#000000" fill-rule="nonzero" fill-opacity="1" /><path clip-path="url(#clip040)" d="M1840.54 126.212 L1840.54 139.094 L1855.89 139.094 L1855.89 144.887 L1840.54 144.887 L1840.54 169.516 Q1840.54 175.066 1842.04 176.646 Q1843.58 178.226 1848.24 178.226 L1855.89 178.226 L1855.89 184.464 L1848.24 184.464 Q1839.61 184.464 1836.33 181.264 Q1833.05 178.023 1833.05 169.516 L1833.05 144.887 L1827.58 144.887 L1827.58 139.094 L1833.05 139.094 L1833.05 126.212 L1840.54 126.212 Z" fill="#000000" fill-rule="nonzero" fill-opacity="1" /><path clip-path="url(#clip040)" d="M1865.7 139.094 L1873.15 139.094 L1873.15 184.464 L1865.7 184.464 L1865.7 139.094 M1865.7 121.432 L1873.15 121.432 L1873.15 130.871 L1865.7 130.871 L1865.7 121.432 Z" fill="#000000" fill-rule="nonzero" fill-opacity="1" /><path clip-path="url(#clip040)" d="M1924.07 147.803 Q1926.86 142.78 1930.75 140.39 Q1934.64 138 1939.91 138 Q1947 138 1950.85 142.983 Q1954.69 147.925 1954.69 157.08 L1954.69 184.464 L1947.2 184.464 L1947.2 157.323 Q1947.2 150.801 1944.89 147.641 Q1942.58 144.482 1937.84 144.482 Q1932.05 144.482 1928.69 148.33 Q1925.32 152.178 1925.32 158.822 L1925.32 184.464 L1917.83 184.464 L1917.83 157.323 Q1917.83 150.76 1915.52 147.641 Q1913.21 144.482 1908.39 144.482 Q1902.68 144.482 1899.32 148.37 Q1895.96 152.219 1895.96 158.822 L1895.96 184.464 L1888.46 184.464 L1888.46 139.094 L1895.96 139.094 L1895.96 146.142 Q1898.51 141.97 1902.07 139.985 Q1905.64 138 1910.54 138 Q1915.48 138 1918.92 140.512 Q1922.41 143.023 1924.07 147.803 Z" fill="#000000" fill-rule="nonzero" fill-opacity="1" /><path clip-path="url(#clip040)" d="M2008.37 159.916 L2008.37 163.561 L1974.1 163.561 Q1974.58 171.258 1978.72 175.309 Q1982.89 179.319 1990.3 179.319 Q1994.6 179.319 1998.61 178.266 Q2002.66 177.213 2006.63 175.106 L2006.63 182.155 Q2002.62 183.856 1998.4 184.748 Q1994.19 185.639 1989.86 185.639 Q1979 185.639 1972.64 179.319 Q1966.32 173 1966.32 162.225 Q1966.32 151.085 1972.32 144.563 Q1978.35 138 1988.56 138 Q1997.71 138 2003.02 143.914 Q2008.37 149.788 2008.37 159.916 M2000.91 157.728 Q2000.83 151.611 1997.47 147.965 Q1994.15 144.32 1988.64 144.32 Q1982.4 144.32 1978.63 147.844 Q1974.91 151.368 1974.34 157.769 L2000.91 157.728 Z" fill="#000000" fill-rule="nonzero" fill-opacity="1" /><path clip-path="url(#clip040)" d="M2043.21 158.822 L2118.07 158.822 L2118.07 164.655 L2043.21 164.655 L2043.21 158.822 Z" fill="#000000" fill-rule="nonzero" fill-opacity="1" /><path clip-path="url(#clip040)" d="M2188.88 161.819 Q2188.88 153.596 2185.47 148.938 Q2182.11 144.239 2176.2 144.239 Q2170.28 144.239 2166.88 148.938 Q2163.52 153.596 2163.52 161.819 Q2163.52 170.043 2166.88 174.742 Q2170.28 179.4 2176.2 179.4 Q2182.11 179.4 2185.47 174.742 Q2188.88 170.043 2188.88 161.819 M2163.52 145.98 Q2165.87 141.93 2169.43 139.985 Q2173.04 138 2178.02 138 Q2186.28 138 2191.43 144.563 Q2196.61 151.125 2196.61 161.819 Q2196.61 172.514 2191.43 179.076 Q2186.28 185.639 2178.02 185.639 Q2173.04 185.639 2169.43 183.694 Q2165.87 181.709 2163.52 177.658 L2163.52 184.464 L2156.02 184.464 L2156.02 121.432 L2163.52 121.432 L2163.52 145.98 Z" fill="#000000" fill-rule="nonzero" fill-opacity="1" /><path clip-path="url(#clip040)" d="M2235.26 146.061 Q2234 145.332 2232.5 145.008 Q2231.05 144.644 2229.26 144.644 Q2222.94 144.644 2219.54 148.776 Q2216.18 152.867 2216.18 160.564 L2216.18 184.464 L2208.69 184.464 L2208.69 139.094 L2216.18 139.094 L2216.18 146.142 Q2218.53 142.011 2222.3 140.026 Q2226.06 138 2231.45 138 Q2232.22 138 2233.15 138.122 Q2234.08 138.203 2235.22 138.405 L2235.26 146.061 Z" fill="#000000" fill-rule="nonzero" fill-opacity="1" /><path clip-path="url(#clip040)" d="M2263.7 161.657 Q2254.66 161.657 2251.18 163.723 Q2247.7 165.789 2247.7 170.772 Q2247.7 174.742 2250.29 177.091 Q2252.92 179.4 2257.42 179.4 Q2263.62 179.4 2267.34 175.025 Q2271.11 170.61 2271.11 163.318 L2271.11 161.657 L2263.7 161.657 M2278.56 158.579 L2278.56 184.464 L2271.11 184.464 L2271.11 177.577 Q2268.56 181.709 2264.75 183.694 Q2260.94 185.639 2255.43 185.639 Q2248.47 185.639 2244.33 181.75 Q2240.24 177.821 2240.24 171.258 Q2240.24 163.602 2245.35 159.713 Q2250.49 155.824 2260.66 155.824 L2271.11 155.824 L2271.11 155.095 Q2271.11 149.95 2267.71 147.155 Q2264.34 144.32 2258.23 144.32 Q2254.34 144.32 2250.65 145.251 Q2246.97 146.183 2243.56 148.046 L2243.56 141.16 Q2247.66 139.58 2251.5 138.81 Q2255.35 138 2259 138 Q2268.84 138 2273.7 143.104 Q2278.56 148.208 2278.56 158.579 Z" fill="#000000" fill-rule="nonzero" fill-opacity="1" /><path clip-path="url(#clip040)" d="M2326.57 140.836 L2326.57 147.803 Q2323.41 146.061 2320.21 145.211 Q2317.05 144.32 2313.81 144.32 Q2306.56 144.32 2302.54 148.938 Q2298.53 153.515 2298.53 161.819 Q2298.53 170.124 2302.54 174.742 Q2306.56 179.319 2313.81 179.319 Q2317.05 179.319 2320.21 178.469 Q2323.41 177.577 2326.57 175.836 L2326.57 182.722 Q2323.45 184.18 2320.09 184.91 Q2316.76 185.639 2313 185.639 Q2302.75 185.639 2296.71 179.198 Q2290.68 172.757 2290.68 161.819 Q2290.68 150.72 2296.75 144.36 Q2302.87 138 2313.48 138 Q2316.93 138 2320.21 138.729 Q2323.49 139.418 2326.57 140.836 Z" fill="#000000" fill-rule="nonzero" fill-opacity="1" /><path clip-path="url(#clip040)" d="M2377.24 157.08 L2377.24 184.464 L2369.79 184.464 L2369.79 157.323 Q2369.79 150.882 2367.28 147.682 Q2364.77 144.482 2359.74 144.482 Q2353.71 144.482 2350.22 148.33 Q2346.74 152.178 2346.74 158.822 L2346.74 184.464 L2339.25 184.464 L2339.25 121.432 L2346.74 121.432 L2346.74 146.142 Q2349.41 142.051 2353.02 140.026 Q2356.67 138 2361.4 138 Q2369.22 138 2373.23 142.861 Q2377.24 147.682 2377.24 157.08 Z" fill="#000000" fill-rule="nonzero" fill-opacity="1" /><path clip-path="url(#clip040)" d="M2392.11 139.094 L2399.56 139.094 L2399.56 184.464 L2392.11 184.464 L2392.11 139.094 M2392.11 121.432 L2399.56 121.432 L2399.56 130.871 L2392.11 130.871 L2392.11 121.432 Z" fill="#000000" fill-rule="nonzero" fill-opacity="1" /><path clip-path="url(#clip040)" d="M2444.08 140.431 L2444.08 147.479 Q2440.92 145.859 2437.52 145.049 Q2434.12 144.239 2430.47 144.239 Q2424.92 144.239 2422.13 145.94 Q2419.37 147.641 2419.37 151.044 Q2419.37 153.637 2421.36 155.135 Q2423.34 156.594 2429.34 157.931 L2431.89 158.498 Q2439.83 160.199 2443.15 163.318 Q2446.51 166.397 2446.51 171.947 Q2446.51 178.266 2441.49 181.952 Q2436.51 185.639 2427.76 185.639 Q2424.11 185.639 2420.14 184.91 Q2416.21 184.221 2411.84 182.803 L2411.84 175.106 Q2415.97 177.253 2419.98 178.347 Q2423.99 179.4 2427.92 179.4 Q2433.19 179.4 2436.02 177.618 Q2438.86 175.795 2438.86 172.514 Q2438.86 169.476 2436.79 167.855 Q2434.77 166.235 2427.84 164.736 L2425.25 164.128 Q2418.32 162.67 2415.24 159.672 Q2412.16 156.634 2412.16 151.368 Q2412.16 144.968 2416.7 141.484 Q2421.24 138 2429.58 138 Q2433.71 138 2437.36 138.608 Q2441 139.215 2444.08 140.431 Z" fill="#000000" fill-rule="nonzero" fill-opacity="1" /><path clip-path="url(#clip040)" d="M2465.76 126.212 L2465.76 139.094 L2481.11 139.094 L2481.11 144.887 L2465.76 144.887 L2465.76 169.516 Q2465.76 175.066 2467.25 176.646 Q2468.79 178.226 2473.45 178.226 L2481.11 178.226 L2481.11 184.464 L2473.45 184.464 Q2464.82 184.464 2461.54 181.264 Q2458.26 178.023 2458.26 169.516 L2458.26 144.887 L2452.79 144.887 L2452.79 139.094 L2458.26 139.094 L2458.26 126.212 L2465.76 126.212 Z" fill="#000000" fill-rule="nonzero" fill-opacity="1" /><path clip-path="url(#clip040)" d="M2508.49 144.32 Q2502.5 144.32 2499.01 149.019 Q2495.53 153.677 2495.53 161.819 Q2495.53 169.962 2498.97 174.661 Q2502.46 179.319 2508.49 179.319 Q2514.45 179.319 2517.93 174.62 Q2521.42 169.921 2521.42 161.819 Q2521.42 153.758 2517.93 149.059 Q2514.45 144.32 2508.49 144.32 M2508.49 138 Q2518.22 138 2523.76 144.32 Q2529.31 150.639 2529.31 161.819 Q2529.31 172.959 2523.76 179.319 Q2518.22 185.639 2508.49 185.639 Q2498.73 185.639 2493.18 179.319 Q2487.67 172.959 2487.67 161.819 Q2487.67 150.639 2493.18 144.32 Q2498.73 138 2508.49 138 Z" fill="#000000" fill-rule="nonzero" fill-opacity="1" /><path clip-path="url(#clip040)" d="M2574.32 140.836 L2574.32 147.803 Q2571.16 146.061 2567.96 145.211 Q2564.8 144.32 2561.56 144.32 Q2554.31 144.32 2550.3 148.938 Q2546.29 153.515 2546.29 161.819 Q2546.29 170.124 2550.3 174.742 Q2554.31 179.319 2561.56 179.319 Q2564.8 179.319 2567.96 178.469 Q2571.16 177.577 2574.32 175.836 L2574.32 182.722 Q2571.2 184.18 2567.84 184.91 Q2564.52 185.639 2560.75 185.639 Q2550.5 185.639 2544.46 179.198 Q2538.43 172.757 2538.43 161.819 Q2538.43 150.72 2544.51 144.36 Q2550.62 138 2561.24 138 Q2564.68 138 2567.96 138.729 Q2571.24 139.418 2574.32 140.836 Z" fill="#000000" fill-rule="nonzero" fill-opacity="1" /><path clip-path="url(#clip040)" d="M2625 157.08 L2625 184.464 L2617.54 184.464 L2617.54 157.323 Q2617.54 150.882 2615.03 147.682 Q2612.52 144.482 2607.5 144.482 Q2601.46 144.482 2597.98 148.33 Q2594.49 152.178 2594.49 158.822 L2594.49 184.464 L2587 184.464 L2587 121.432 L2594.49 121.432 L2594.49 146.142 Q2597.17 142.051 2600.77 140.026 Q2604.42 138 2609.16 138 Q2616.98 138 2620.99 142.861 Q2625 147.682 2625 157.08 Z" fill="#000000" fill-rule="nonzero" fill-opacity="1" /><path clip-path="url(#clip040)" d="M2666.15 146.061 Q2664.9 145.332 2663.4 145.008 Q2661.94 144.644 2660.16 144.644 Q2653.84 144.644 2650.44 148.776 Q2647.07 152.867 2647.07 160.564 L2647.07 184.464 L2639.58 184.464 L2639.58 139.094 L2647.07 139.094 L2647.07 146.142 Q2649.42 142.011 2653.19 140.026 Q2656.96 138 2662.35 138 Q2663.12 138 2664.05 138.122 Q2664.98 138.203 2666.11 138.405 L2666.15 146.061 Z" fill="#000000" fill-rule="nonzero" fill-opacity="1" /><path clip-path="url(#clip040)" d="M2689.73 144.32 Q2683.74 144.32 2680.25 149.019 Q2676.77 153.677 2676.77 161.819 Q2676.77 169.962 2680.21 174.661 Q2683.69 179.319 2689.73 179.319 Q2695.69 179.319 2699.17 174.62 Q2702.65 169.921 2702.65 161.819 Q2702.65 153.758 2699.17 149.059 Q2695.69 144.32 2689.73 144.32 M2689.73 138 Q2699.45 138 2705 144.32 Q2710.55 150.639 2710.55 161.819 Q2710.55 172.959 2705 179.319 Q2699.45 185.639 2689.73 185.639 Q2679.97 185.639 2674.42 179.319 Q2668.91 172.959 2668.91 161.819 Q2668.91 150.639 2674.42 144.32 Q2679.97 138 2689.73 138 Z" fill="#000000" fill-rule="nonzero" fill-opacity="1" /><path clip-path="url(#clip040)" d="M2760.62 157.08 L2760.62 184.464 L2753.17 184.464 L2753.17 157.323 Q2753.17 150.882 2750.66 147.682 Q2748.14 144.482 2743.12 144.482 Q2737.09 144.482 2733.6 148.33 Q2730.12 152.178 2730.12 158.822 L2730.12 184.464 L2722.62 184.464 L2722.62 139.094 L2730.12 139.094 L2730.12 146.142 Q2732.79 142.051 2736.4 140.026 Q2740.04 138 2744.78 138 Q2752.6 138 2756.61 142.861 Q2760.62 147.682 2760.62 157.08 Z" fill="#000000" fill-rule="nonzero" fill-opacity="1" /><path clip-path="url(#clip040)" d="M2814.3 159.916 L2814.3 163.561 L2780.03 163.561 Q2780.51 171.258 2784.64 175.309 Q2788.82 179.319 2796.23 179.319 Q2800.52 179.319 2804.53 178.266 Q2808.58 177.213 2812.55 175.106 L2812.55 182.155 Q2808.54 183.856 2804.33 184.748 Q2800.12 185.639 2795.78 185.639 Q2784.93 185.639 2778.57 179.319 Q2772.25 173 2772.25 162.225 Q2772.25 151.085 2778.24 144.563 Q2784.28 138 2794.49 138 Q2803.64 138 2808.95 143.914 Q2814.3 149.788 2814.3 159.916 M2806.84 157.728 Q2806.76 151.611 2803.4 147.965 Q2800.08 144.32 2794.57 144.32 Q2788.33 144.32 2784.56 147.844 Q2780.84 151.368 2780.27 157.769 L2806.84 157.728 Z" fill="#000000" fill-rule="nonzero" fill-opacity="1" /><path clip-path="url(#clip042)" d="M1980.27 1638.48 L1932.27 1638.48 L1956.27 1686.48 L1980.27 1638.48 Z" fill="#9370db" fill-rule="evenodd" fill-opacity="1" stroke="none"/>
<path clip-path="url(#clip042)" d="M3486.39 1043.43 L3438.39 1043.43 L3462.39 1091.43 L3486.39 1043.43 Z" fill="#9370db" fill-rule="evenodd" fill-opacity="1" stroke="none"/>
<path clip-path="url(#clip042)" d="M1227.22 875.872 L1179.22 875.872 L1203.22 923.872 L1227.22 875.872 Z" fill="#9370db" fill-rule="evenodd" fill-opacity="1" stroke="none"/>
<path clip-path="url(#clip042)" d="M474.158 522.531 L426.158 522.531 L450.158 570.531 L474.158 522.531 Z" fill="#9370db" fill-rule="evenodd" fill-opacity="1" stroke="none"/>
<circle clip-path="url(#clip042)" cx="1956.27" cy="1541.98" r="21.6" fill="#4682b4" fill-rule="evenodd" fill-opacity="1" stroke="none"/>
<circle clip-path="url(#clip042)" cx="3462.39" cy="913.419" r="21.6" fill="#4682b4" fill-rule="evenodd" fill-opacity="1" stroke="none"/>
<circle clip-path="url(#clip042)" cx="1203.22" cy="808.372" r="21.6" fill="#4682b4" fill-rule="evenodd" fill-opacity="1" stroke="none"/>
<circle clip-path="url(#clip042)" cx="450.158" cy="458.733" r="21.6" fill="#4682b4" fill-rule="evenodd" fill-opacity="1" stroke="none"/>
<path clip-path="url(#clip042)" d="M1932.27 1814 L1932.27 1862 L1980.27 1862 L1980.27 1814 L1932.27 1814 Z" fill="#ff6347" fill-rule="evenodd" fill-opacity="1" stroke="none"/>
<path clip-path="url(#clip042)" d="M3438.39 1204.56 L3438.39 1252.56 L3486.39 1252.56 L3486.39 1204.56 L3438.39 1204.56 Z" fill="#ff6347" fill-rule="evenodd" fill-opacity="1" stroke="none"/>
<path clip-path="url(#clip042)" d="M1179.22 1104.23 L1179.22 1152.23 L1227.22 1152.23 L1227.22 1104.23 L1179.22 1104.23 Z" fill="#ff6347" fill-rule="evenodd" fill-opacity="1" stroke="none"/>
<path clip-path="url(#clip042)" d="M426.158 824.918 L426.158 872.918 L474.158 872.918 L474.158 824.918 L426.158 824.918 Z" fill="#ff6347" fill-rule="evenodd" fill-opacity="1" stroke="none"/>
<path clip-path="url(#clip042)" d="M952.197 1758.97 L946.557 1775.2 L929.373 1775.56 L943.077 1785.95 L938.085 1802.39 L952.197 1792.57 L966.309 1802.39 L961.317 1785.95 L975.021 1775.56 L957.837 1775.2 L952.197 1758.97 Z" fill="#a0522d" fill-rule="evenodd" fill-opacity="1" stroke="none"/>
<path clip-path="url(#clip042)" d="M2207.29 1093.23 L2201.65 1109.45 L2184.47 1109.81 L2198.17 1120.21 L2193.18 1136.65 L2207.29 1126.83 L2221.4 1136.65 L2216.41 1120.21 L2230.12 1109.81 L2212.93 1109.45 L2207.29 1093.23 Z" fill="#a0522d" fill-rule="evenodd" fill-opacity="1" stroke="none"/>
<path clip-path="url(#clip042)" d="M1203.22 789.605 L1197.58 805.829 L1180.39 806.189 L1194.1 816.581 L1189.1 833.021 L1203.22 823.205 L1217.33 833.021 L1212.34 816.581 L1226.04 806.189 L1208.86 805.829 L1203.22 789.605 Z" fill="#a0522d" fill-rule="evenodd" fill-opacity="1" stroke="none"/>
<path clip-path="url(#clip042)" d="M701.178 345.599 L695.538 361.823 L678.354 362.183 L692.058 372.575 L687.066 389.015 L701.178 379.199 L715.29 389.015 L710.298 372.575 L724.002 362.183 L706.818 361.823 L701.178 345.599 Z" fill="#a0522d" fill-rule="evenodd" fill-opacity="1" stroke="none"/>
<path clip-path="url(#clip042)" d="M952.197 1720 L928.197 1744 L952.197 1768 L976.197 1744 L952.197 1720 Z" fill="#2e8b57" fill-rule="evenodd" fill-opacity="1" stroke="none"/>
<path clip-path="url(#clip042)" d="M2207.29 1021.19 L2183.29 1045.19 L2207.29 1069.19 L2231.29 1045.19 L2207.29 1021.19 Z" fill="#2e8b57" fill-rule="evenodd" fill-opacity="1" stroke="none"/>
<path clip-path="url(#clip042)" d="M1203.22 713.326 L1179.22 737.326 L1203.22 761.326 L1227.22 737.326 L1203.22 713.326 Z" fill="#2e8b57" fill-rule="evenodd" fill-opacity="1" stroke="none"/>
<path clip-path="url(#clip042)" d="M701.178 276.989 L677.178 300.989 L701.178 324.989 L725.178 300.989 L701.178 276.989 Z" fill="#2e8b57" fill-rule="evenodd" fill-opacity="1" stroke="none"/>
<path clip-path="url(#clip042)" d="M952.197 2078.46 L928.197 2126.46 L976.197 2126.46 L952.197 2078.46 Z" fill="#ff8c00" fill-rule="evenodd" fill-opacity="1" stroke="none"/>
<path clip-path="url(#clip042)" d="M2207.29 1379.16 L2183.29 1427.16 L2231.29 1427.16 L2207.29 1379.16 Z" fill="#ff8c00" fill-rule="evenodd" fill-opacity="1" stroke="none"/>
<path clip-path="url(#clip042)" d="M1203.22 1167.42 L1179.22 1215.42 L1227.22 1215.42 L1203.22 1167.42 Z" fill="#ff8c00" fill-rule="evenodd" fill-opacity="1" stroke="none"/>
<path clip-path="url(#clip042)" d="M701.178 792.59 L677.178 840.59 L725.178 840.59 L701.178 792.59 Z" fill="#ff8c00" fill-rule="evenodd" fill-opacity="1" stroke="none"/>
<path clip-path="url(#clip040)" d="M2756.96 673.476 L3446.32 673.476 L3446.32 310.596 L2756.96 310.596  Z" fill="#ffffff" fill-rule="evenodd" fill-opacity="1"/>
<polyline clip-path="url(#clip040)" style="stroke:#000000; stroke-linecap:round; stroke-linejoin:round; stroke-width:4; stroke-opacity:1; fill:none" points="2756.96,673.476 3446.32,673.476 3446.32,310.596 2756.96,310.596 2756.96,673.476 "/>
<path clip-path="url(#clip040)" d="M2924.47 336.836 L2873.27 336.836 L2898.87 388.036 L2924.47 336.836 Z" fill="#9370db" fill-rule="evenodd" fill-opacity="1" stroke="none"/>
<path clip-path="url(#clip040)" d="M3051.4 343.744 Q3048.3 349.068 3046.8 354.277 Q3045.29 359.485 3045.29 364.832 Q3045.29 370.179 3046.8 375.434 Q3048.33 380.665 3051.4 385.966 L3047.7 385.966 Q3044.23 380.527 3042.49 375.272 Q3040.78 370.017 3040.78 364.832 Q3040.78 359.67 3042.49 354.439 Q3044.2 349.207 3047.7 343.744 L3051.4 343.744 Z" fill="#000000" fill-rule="nonzero" fill-opacity="1" /><path clip-path="url(#clip040)" d="M3059.67 353.791 L3063.93 353.791 L3063.93 380.179 Q3063.93 385.133 3062.03 387.355 Q3060.15 389.577 3055.96 389.577 L3054.34 389.577 L3054.34 385.966 L3055.48 385.966 Q3057.91 385.966 3058.79 384.832 Q3059.67 383.721 3059.67 380.179 L3059.67 353.791 M3059.67 343.698 L3063.93 343.698 L3063.93 349.092 L3059.67 349.092 L3059.67 343.698 Z" fill="#000000" fill-rule="nonzero" fill-opacity="1" /><path clip-path="url(#clip040)" d="M3072.4 369.485 L3072.4 353.791 L3076.66 353.791 L3076.66 369.323 Q3076.66 373.003 3078.09 374.855 Q3079.53 376.684 3082.4 376.684 Q3085.85 376.684 3087.84 374.485 Q3089.85 372.286 3089.85 368.49 L3089.85 353.791 L3094.11 353.791 L3094.11 379.716 L3089.85 379.716 L3089.85 375.735 Q3088.3 378.096 3086.24 379.253 Q3084.2 380.388 3081.5 380.388 Q3077.03 380.388 3074.71 377.61 Q3072.4 374.832 3072.4 369.485 M3083.12 353.166 L3083.12 353.166 Z" fill="#000000" fill-rule="nonzero" fill-opacity="1" /><path clip-path="url(#clip040)" d="M3123.07 358.767 Q3124.67 355.897 3126.89 354.531 Q3129.11 353.166 3132.12 353.166 Q3136.17 353.166 3138.37 356.013 Q3140.57 358.837 3140.57 364.068 L3140.57 379.716 L3136.29 379.716 L3136.29 364.207 Q3136.29 360.48 3134.97 358.675 Q3133.65 356.869 3130.94 356.869 Q3127.63 356.869 3125.71 359.068 Q3123.79 361.267 3123.79 365.064 L3123.79 379.716 L3119.51 379.716 L3119.51 364.207 Q3119.51 360.457 3118.19 358.675 Q3116.87 356.869 3114.11 356.869 Q3110.85 356.869 3108.93 359.091 Q3107.01 361.291 3107.01 365.064 L3107.01 379.716 L3102.72 379.716 L3102.72 353.791 L3107.01 353.791 L3107.01 357.818 Q3108.46 355.434 3110.5 354.3 Q3112.54 353.166 3115.34 353.166 Q3118.16 353.166 3120.13 354.601 Q3122.12 356.036 3123.07 358.767 Z" fill="#000000" fill-rule="nonzero" fill-opacity="1" /><path clip-path="url(#clip040)" d="M3153.19 375.827 L3153.19 389.577 L3148.9 389.577 L3148.9 353.791 L3153.19 353.791 L3153.19 357.726 Q3154.53 355.411 3156.57 354.3 Q3158.63 353.166 3161.47 353.166 Q3166.19 353.166 3169.13 356.916 Q3172.1 360.666 3172.1 366.777 Q3172.1 372.888 3169.13 376.638 Q3166.19 380.388 3161.47 380.388 Q3158.63 380.388 3156.57 379.277 Q3154.53 378.142 3153.19 375.827 M3167.68 366.777 Q3167.68 362.078 3165.73 359.416 Q3163.81 356.73 3160.43 356.73 Q3157.05 356.73 3155.11 359.416 Q3153.19 362.078 3153.19 366.777 Q3153.19 371.476 3155.11 374.161 Q3157.05 376.823 3160.43 376.823 Q3163.81 376.823 3165.73 374.161 Q3167.68 371.476 3167.68 366.777 Z" fill="#000000" fill-rule="nonzero" fill-opacity="1" /><path clip-path="url(#clip040)" d="M3180.25 373.837 L3185.13 373.837 L3185.13 377.818 L3181.33 385.226 L3178.35 385.226 L3180.25 377.818 L3180.25 373.837 Z" fill="#000000" fill-rule="nonzero" fill-opacity="1" /><path clip-path="url(#clip040)" d="M3209.3 353.791 L3213.56 353.791 L3213.56 379.716 L3209.3 379.716 L3209.3 353.791 M3209.3 343.698 L3213.56 343.698 L3213.56 349.092 L3209.3 349.092 L3209.3 343.698 Z" fill="#000000" fill-rule="nonzero" fill-opacity="1" /><path clip-path="url(#clip040)" d="M3226.59 375.827 L3226.59 389.577 L3222.31 389.577 L3222.31 353.791 L3226.59 353.791 L3226.59 357.726 Q3227.93 355.411 3229.97 354.3 Q3232.03 353.166 3234.88 353.166 Q3239.6 353.166 3242.54 356.916 Q3245.5 360.666 3245.5 366.777 Q3245.5 372.888 3242.54 376.638 Q3239.6 380.388 3234.88 380.388 Q3232.03 380.388 3229.97 379.277 Q3227.93 378.142 3226.59 375.827 M3241.08 366.777 Q3241.08 362.078 3239.13 359.416 Q3237.21 356.73 3233.83 356.73 Q3230.45 356.73 3228.51 359.416 Q3226.59 362.078 3226.59 366.777 Q3226.59 371.476 3228.51 374.161 Q3230.45 376.823 3233.83 376.823 Q3237.21 376.823 3239.13 374.161 Q3241.08 371.476 3241.08 366.777 Z" fill="#000000" fill-rule="nonzero" fill-opacity="1" /><path clip-path="url(#clip040)" d="M3262.61 356.777 Q3259.18 356.777 3257.19 359.462 Q3255.2 362.124 3255.2 366.777 Q3255.2 371.429 3257.17 374.115 Q3259.16 376.777 3262.61 376.777 Q3266.01 376.777 3268 374.091 Q3269.99 371.406 3269.99 366.777 Q3269.99 362.17 3268 359.485 Q3266.01 356.777 3262.61 356.777 M3262.61 353.166 Q3268.16 353.166 3271.33 356.777 Q3274.5 360.388 3274.5 366.777 Q3274.5 373.142 3271.33 376.777 Q3268.16 380.388 3262.61 380.388 Q3257.03 380.388 3253.86 376.777 Q3250.71 373.142 3250.71 366.777 Q3250.71 360.388 3253.86 356.777 Q3257.03 353.166 3262.61 353.166 Z" fill="#000000" fill-rule="nonzero" fill-opacity="1" /><path clip-path="url(#clip040)" d="M3285.69 375.827 L3285.69 389.577 L3281.4 389.577 L3281.4 353.791 L3285.69 353.791 L3285.69 357.726 Q3287.03 355.411 3289.06 354.3 Q3291.12 353.166 3293.97 353.166 Q3298.69 353.166 3301.63 356.916 Q3304.6 360.666 3304.6 366.777 Q3304.6 372.888 3301.63 376.638 Q3298.69 380.388 3293.97 380.388 Q3291.12 380.388 3289.06 379.277 Q3287.03 378.142 3285.69 375.827 M3300.18 366.777 Q3300.18 362.078 3298.23 359.416 Q3296.31 356.73 3292.93 356.73 Q3289.55 356.73 3287.61 359.416 Q3285.69 362.078 3285.69 366.777 Q3285.69 371.476 3287.61 374.161 Q3289.55 376.823 3292.93 376.823 Q3296.31 376.823 3298.23 374.161 Q3300.18 371.476 3300.18 366.777 Z" fill="#000000" fill-rule="nonzero" fill-opacity="1" /><path clip-path="url(#clip040)" d="M3315.87 346.43 L3315.87 353.791 L3324.64 353.791 L3324.64 357.101 L3315.87 357.101 L3315.87 371.175 Q3315.87 374.346 3316.73 375.249 Q3317.61 376.152 3320.27 376.152 L3324.64 376.152 L3324.64 379.716 L3320.27 379.716 Q3315.34 379.716 3313.46 377.888 Q3311.59 376.036 3311.59 371.175 L3311.59 357.101 L3308.46 357.101 L3308.46 353.791 L3311.59 353.791 L3311.59 346.43 L3315.87 346.43 Z" fill="#000000" fill-rule="nonzero" fill-opacity="1" /><path clip-path="url(#clip040)" d="M3329.57 343.744 L3333.28 343.744 Q3336.75 349.207 3338.46 354.439 Q3340.2 359.67 3340.2 364.832 Q3340.2 370.017 3338.46 375.272 Q3336.75 380.527 3333.28 385.966 L3329.57 385.966 Q3332.65 380.665 3334.16 375.434 Q3335.68 370.179 3335.68 364.832 Q3335.68 359.485 3334.16 354.277 Q3332.65 349.068 3329.57 343.744 Z" fill="#000000" fill-rule="nonzero" fill-opacity="1" /><circle clip-path="url(#clip040)" cx="2898.87" cy="414.276" r="23.04" fill="#4682b4" fill-rule="evenodd" fill-opacity="1" stroke="none"/>
<path clip-path="url(#clip040)" d="M3051.4 395.584 Q3048.3 400.908 3046.8 406.117 Q3045.29 411.325 3045.29 416.672 Q3045.29 422.019 3046.8 427.274 Q3048.33 432.505 3051.4 437.806 L3047.7 437.806 Q3044.23 432.367 3042.49 427.112 Q3040.78 421.857 3040.78 416.672 Q3040.78 411.51 3042.49 406.279 Q3044.2 401.047 3047.7 395.584 L3051.4 395.584 Z" fill="#000000" fill-rule="nonzero" fill-opacity="1" /><path clip-path="url(#clip040)" d="M3071.45 418.524 Q3066.29 418.524 3064.3 419.705 Q3062.31 420.885 3062.31 423.732 Q3062.31 426.001 3063.79 427.343 Q3065.29 428.663 3067.86 428.663 Q3071.4 428.663 3073.53 426.163 Q3075.69 423.64 3075.69 419.473 L3075.69 418.524 L3071.45 418.524 M3079.95 416.765 L3079.95 431.556 L3075.69 431.556 L3075.69 427.621 Q3074.23 429.982 3072.05 431.117 Q3069.88 432.228 3066.73 432.228 Q3062.75 432.228 3060.39 430.005 Q3058.05 427.76 3058.05 424.01 Q3058.05 419.635 3060.96 417.413 Q3063.9 415.191 3069.71 415.191 L3075.69 415.191 L3075.69 414.774 Q3075.69 411.834 3073.74 410.237 Q3071.82 408.617 3068.33 408.617 Q3066.1 408.617 3064 409.149 Q3061.89 409.681 3059.95 410.746 L3059.95 406.811 Q3062.28 405.908 3064.48 405.469 Q3066.68 405.006 3068.76 405.006 Q3074.39 405.006 3077.17 407.922 Q3079.95 410.839 3079.95 416.765 Z" fill="#000000" fill-rule="nonzero" fill-opacity="1" /><path clip-path="url(#clip040)" d="M3105.78 409.566 L3105.78 395.538 L3110.04 395.538 L3110.04 431.556 L3105.78 431.556 L3105.78 427.667 Q3104.44 429.982 3102.38 431.117 Q3100.34 432.228 3097.47 432.228 Q3092.77 432.228 3089.81 428.478 Q3086.87 424.728 3086.87 418.617 Q3086.87 412.506 3089.81 408.756 Q3092.77 405.006 3097.47 405.006 Q3100.34 405.006 3102.38 406.14 Q3104.44 407.251 3105.78 409.566 M3091.26 418.617 Q3091.26 423.316 3093.19 426.001 Q3095.13 428.663 3098.51 428.663 Q3101.89 428.663 3103.83 426.001 Q3105.78 423.316 3105.78 418.617 Q3105.78 413.918 3103.83 411.256 Q3101.89 408.57 3098.51 408.57 Q3095.13 408.57 3093.19 411.256 Q3091.26 413.918 3091.26 418.617 Z" fill="#000000" fill-rule="nonzero" fill-opacity="1" /><path clip-path="url(#clip040)" d="M3140.36 415.908 L3140.36 431.556 L3136.1 431.556 L3136.1 416.047 Q3136.1 412.367 3134.67 410.538 Q3133.23 408.709 3130.36 408.709 Q3126.91 408.709 3124.92 410.908 Q3122.93 413.107 3122.93 416.904 L3122.93 431.556 L3118.65 431.556 L3118.65 405.631 L3122.93 405.631 L3122.93 409.658 Q3124.46 407.32 3126.52 406.163 Q3128.6 405.006 3131.31 405.006 Q3135.78 405.006 3138.07 407.783 Q3140.36 410.538 3140.36 415.908 Z" fill="#000000" fill-rule="nonzero" fill-opacity="1" /><path clip-path="url(#clip040)" d="M3148.86 395.538 L3153.12 395.538 L3153.12 431.556 L3148.86 431.556 L3148.86 395.538 Z" fill="#000000" fill-rule="nonzero" fill-opacity="1" /><path clip-path="url(#clip040)" d="M3166.15 427.667 L3166.15 441.417 L3161.87 441.417 L3161.87 405.631 L3166.15 405.631 L3166.15 409.566 Q3167.49 407.251 3169.53 406.14 Q3171.59 405.006 3174.44 405.006 Q3179.16 405.006 3182.1 408.756 Q3185.06 412.506 3185.06 418.617 Q3185.06 424.728 3182.1 428.478 Q3179.16 432.228 3174.44 432.228 Q3171.59 432.228 3169.53 431.117 Q3167.49 429.982 3166.15 427.667 M3180.64 418.617 Q3180.64 413.918 3178.69 411.256 Q3176.77 408.57 3173.39 408.57 Q3170.01 408.57 3168.07 411.256 Q3166.15 413.918 3166.15 418.617 Q3166.15 423.316 3168.07 426.001 Q3170.01 428.663 3173.39 428.663 Q3176.77 428.663 3178.69 426.001 Q3180.64 423.316 3180.64 418.617 Z" fill="#000000" fill-rule="nonzero" fill-opacity="1" /><path clip-path="url(#clip040)" d="M3193.21 425.677 L3198.09 425.677 L3198.09 429.658 L3194.3 437.066 L3191.31 437.066 L3193.21 429.658 L3193.21 425.677 Z" fill="#000000" fill-rule="nonzero" fill-opacity="1" /><path clip-path="url(#clip040)" d="M3222.26 405.631 L3226.52 405.631 L3226.52 431.556 L3222.26 431.556 L3222.26 405.631 M3222.26 395.538 L3226.52 395.538 L3226.52 400.932 L3222.26 400.932 L3222.26 395.538 Z" fill="#000000" fill-rule="nonzero" fill-opacity="1" /><path clip-path="url(#clip040)" d="M3239.55 427.667 L3239.55 441.417 L3235.27 441.417 L3235.27 405.631 L3239.55 405.631 L3239.55 409.566 Q3240.89 407.251 3242.93 406.14 Q3244.99 405.006 3247.84 405.006 Q3252.56 405.006 3255.5 408.756 Q3258.46 412.506 3258.46 418.617 Q3258.46 424.728 3255.5 428.478 Q3252.56 432.228 3247.84 432.228 Q3244.99 432.228 3242.93 431.117 Q3240.89 429.982 3239.55 427.667 M3254.04 418.617 Q3254.04 413.918 3252.1 411.256 Q3250.18 408.57 3246.8 408.57 Q3243.42 408.57 3241.47 411.256 Q3239.55 413.918 3239.55 418.617 Q3239.55 423.316 3241.47 426.001 Q3243.42 428.663 3246.8 428.663 Q3250.18 428.663 3252.1 426.001 Q3254.04 423.316 3254.04 418.617 Z" fill="#000000" fill-rule="nonzero" fill-opacity="1" /><path clip-path="url(#clip040)" d="M3275.57 408.617 Q3272.14 408.617 3270.15 411.302 Q3268.16 413.964 3268.16 418.617 Q3268.16 423.269 3270.13 425.955 Q3272.12 428.617 3275.57 428.617 Q3278.97 428.617 3280.96 425.931 Q3282.95 423.246 3282.95 418.617 Q3282.95 414.01 3280.96 411.325 Q3278.97 408.617 3275.57 408.617 M3275.57 405.006 Q3281.12 405.006 3284.3 408.617 Q3287.47 412.228 3287.47 418.617 Q3287.47 424.982 3284.3 428.617 Q3281.12 432.228 3275.57 432.228 Q3269.99 432.228 3266.82 428.617 Q3263.67 424.982 3263.67 418.617 Q3263.67 412.228 3266.82 408.617 Q3269.99 405.006 3275.57 405.006 Z" fill="#000000" fill-rule="nonzero" fill-opacity="1" /><path clip-path="url(#clip040)" d="M3298.65 427.667 L3298.65 441.417 L3294.37 441.417 L3294.37 405.631 L3298.65 405.631 L3298.65 409.566 Q3299.99 407.251 3302.03 406.14 Q3304.09 405.006 3306.93 405.006 Q3311.66 405.006 3314.6 408.756 Q3317.56 412.506 3317.56 418.617 Q3317.56 424.728 3314.6 428.478 Q3311.66 432.228 3306.93 432.228 Q3304.09 432.228 3302.03 431.117 Q3299.99 429.982 3298.65 427.667 M3313.14 418.617 Q3313.14 413.918 3311.19 411.256 Q3309.27 408.57 3305.89 408.57 Q3302.51 408.57 3300.57 411.256 Q3298.65 413.918 3298.65 418.617 Q3298.65 423.316 3300.57 426.001 Q3302.51 428.663 3305.89 428.663 Q3309.27 428.663 3311.19 426.001 Q3313.14 423.316 3313.14 418.617 Z" fill="#000000" fill-rule="nonzero" fill-opacity="1" /><path clip-path="url(#clip040)" d="M3328.83 398.27 L3328.83 405.631 L3337.61 405.631 L3337.61 408.941 L3328.83 408.941 L3328.83 423.015 Q3328.83 426.186 3329.69 427.089 Q3330.57 427.992 3333.23 427.992 L3337.61 427.992 L3337.61 431.556 L3333.23 431.556 Q3328.3 431.556 3326.43 429.728 Q3324.55 427.876 3324.55 423.015 L3324.55 408.941 L3321.43 408.941 L3321.43 405.631 L3324.55 405.631 L3324.55 398.27 L3328.83 398.27 Z" fill="#000000" fill-rule="nonzero" fill-opacity="1" /><path clip-path="url(#clip040)" d="M3342.54 395.584 L3346.24 395.584 Q3349.71 401.047 3351.43 406.279 Q3353.16 411.51 3353.16 416.672 Q3353.16 421.857 3351.43 427.112 Q3349.71 432.367 3346.24 437.806 L3342.54 437.806 Q3345.62 432.505 3347.12 427.274 Q3348.65 422.019 3348.65 416.672 Q3348.65 411.325 3347.12 406.117 Q3345.62 400.908 3342.54 395.584 Z" fill="#000000" fill-rule="nonzero" fill-opacity="1" /><path clip-path="url(#clip040)" d="M2873.27 440.516 L2873.27 491.716 L2924.47 491.716 L2924.47 440.516 L2873.27 440.516 Z" fill="#ff6347" fill-rule="evenodd" fill-opacity="1" stroke="none"/>
<path clip-path="url(#clip040)" d="M3051.4 447.424 Q3048.3 452.748 3046.8 457.957 Q3045.29 463.165 3045.29 468.512 Q3045.29 473.859 3046.8 479.114 Q3048.33 484.345 3051.4 489.646 L3047.7 489.646 Q3044.23 484.207 3042.49 478.952 Q3040.78 473.697 3040.78 468.512 Q3040.78 463.35 3042.49 458.119 Q3044.2 452.887 3047.7 447.424 L3051.4 447.424 Z" fill="#000000" fill-rule="nonzero" fill-opacity="1" /><path clip-path="url(#clip040)" d="M3081.84 469.369 L3081.84 471.452 L3062.26 471.452 Q3062.54 475.85 3064.9 478.165 Q3067.28 480.457 3071.52 480.457 Q3073.97 480.457 3076.26 479.855 Q3078.58 479.253 3080.85 478.049 L3080.85 482.077 Q3078.56 483.049 3076.15 483.558 Q3073.74 484.068 3071.26 484.068 Q3065.06 484.068 3061.43 480.457 Q3057.82 476.845 3057.82 470.688 Q3057.82 464.322 3061.24 460.596 Q3064.69 456.846 3070.52 456.846 Q3075.76 456.846 3078.79 460.225 Q3081.84 463.582 3081.84 469.369 M3077.58 468.119 Q3077.54 464.623 3075.62 462.54 Q3073.72 460.457 3070.57 460.457 Q3067.01 460.457 3064.85 462.471 Q3062.72 464.484 3062.4 468.142 L3077.58 468.119 Z" fill="#000000" fill-rule="nonzero" fill-opacity="1" /><path clip-path="url(#clip040)" d="M3109.55 457.471 L3100.18 470.086 L3110.04 483.396 L3105.01 483.396 L3097.47 473.211 L3089.92 483.396 L3084.9 483.396 L3094.97 469.832 L3085.76 457.471 L3090.78 457.471 L3097.65 466.707 L3104.53 457.471 L3109.55 457.471 Z" fill="#000000" fill-rule="nonzero" fill-opacity="1" /><path clip-path="url(#clip040)" d="M3127.84 470.364 Q3122.68 470.364 3120.69 471.545 Q3118.7 472.725 3118.7 475.572 Q3118.7 477.841 3120.18 479.183 Q3121.68 480.503 3124.25 480.503 Q3127.79 480.503 3129.92 478.003 Q3132.07 475.48 3132.07 471.313 L3132.07 470.364 L3127.84 470.364 M3136.33 468.605 L3136.33 483.396 L3132.07 483.396 L3132.07 479.461 Q3130.62 481.822 3128.44 482.957 Q3126.26 484.068 3123.12 484.068 Q3119.13 484.068 3116.77 481.845 Q3114.44 479.6 3114.44 475.85 Q3114.44 471.475 3117.35 469.253 Q3120.29 467.031 3126.1 467.031 L3132.07 467.031 L3132.07 466.614 Q3132.07 463.674 3130.13 462.077 Q3128.21 460.457 3124.71 460.457 Q3122.49 460.457 3120.38 460.989 Q3118.28 461.521 3116.33 462.586 L3116.33 458.651 Q3118.67 457.748 3120.87 457.309 Q3123.07 456.846 3125.15 456.846 Q3130.78 456.846 3133.56 459.762 Q3136.33 462.679 3136.33 468.605 Z" fill="#000000" fill-rule="nonzero" fill-opacity="1" /><path clip-path="url(#clip040)" d="M3146.2 477.517 L3151.08 477.517 L3151.08 481.498 L3147.28 488.906 L3144.3 488.906 L3146.2 481.498 L3146.2 477.517 Z" fill="#000000" fill-rule="nonzero" fill-opacity="1" /><path clip-path="url(#clip040)" d="M3175.25 457.471 L3179.51 457.471 L3179.51 483.396 L3175.25 483.396 L3175.25 457.471 M3175.25 447.378 L3179.51 447.378 L3179.51 452.772 L3175.25 452.772 L3175.25 447.378 Z" fill="#000000" fill-rule="nonzero" fill-opacity="1" /><path clip-path="url(#clip040)" d="M3192.54 479.507 L3192.54 493.257 L3188.25 493.257 L3188.25 457.471 L3192.54 457.471 L3192.54 461.406 Q3193.88 459.091 3195.92 457.98 Q3197.98 456.846 3200.82 456.846 Q3205.55 456.846 3208.49 460.596 Q3211.45 464.346 3211.45 470.457 Q3211.45 476.568 3208.49 480.318 Q3205.55 484.068 3200.82 484.068 Q3197.98 484.068 3195.92 482.957 Q3193.88 481.822 3192.54 479.507 M3207.03 470.457 Q3207.03 465.758 3205.08 463.096 Q3203.16 460.41 3199.78 460.41 Q3196.4 460.41 3194.46 463.096 Q3192.54 465.758 3192.54 470.457 Q3192.54 475.156 3194.46 477.841 Q3196.4 480.503 3199.78 480.503 Q3203.16 480.503 3205.08 477.841 Q3207.03 475.156 3207.03 470.457 Z" fill="#000000" fill-rule="nonzero" fill-opacity="1" /><path clip-path="url(#clip040)" d="M3228.56 460.457 Q3225.13 460.457 3223.14 463.142 Q3221.15 465.804 3221.15 470.457 Q3221.15 475.109 3223.12 477.795 Q3225.11 480.457 3228.56 480.457 Q3231.96 480.457 3233.95 477.771 Q3235.94 475.086 3235.94 470.457 Q3235.94 465.85 3233.95 463.165 Q3231.96 460.457 3228.56 460.457 M3228.56 456.846 Q3234.11 456.846 3237.28 460.457 Q3240.45 464.068 3240.45 470.457 Q3240.45 476.822 3237.28 480.457 Q3234.11 484.068 3228.56 484.068 Q3222.98 484.068 3219.81 480.457 Q3216.66 476.822 3216.66 470.457 Q3216.66 464.068 3219.81 460.457 Q3222.98 456.846 3228.56 456.846 Z" fill="#000000" fill-rule="nonzero" fill-opacity="1" /><path clip-path="url(#clip040)" d="M3251.63 479.507 L3251.63 493.257 L3247.35 493.257 L3247.35 457.471 L3251.63 457.471 L3251.63 461.406 Q3252.98 459.091 3255.01 457.98 Q3257.07 456.846 3259.92 456.846 Q3264.64 456.846 3267.58 460.596 Q3270.55 464.346 3270.55 470.457 Q3270.55 476.568 3267.58 480.318 Q3264.64 484.068 3259.92 484.068 Q3257.07 484.068 3255.01 482.957 Q3252.98 481.822 3251.63 479.507 M3266.12 470.457 Q3266.12 465.758 3264.18 463.096 Q3262.26 460.41 3258.88 460.41 Q3255.5 460.41 3253.56 463.096 Q3251.63 465.758 3251.63 470.457 Q3251.63 475.156 3253.56 477.841 Q3255.5 480.503 3258.88 480.503 Q3262.26 480.503 3264.18 477.841 Q3266.12 475.156 3266.12 470.457 Z" fill="#000000" fill-rule="nonzero" fill-opacity="1" /><path clip-path="url(#clip040)" d="M3281.82 450.11 L3281.82 457.471 L3290.59 457.471 L3290.59 460.781 L3281.82 460.781 L3281.82 474.855 Q3281.82 478.026 3282.68 478.929 Q3283.56 479.832 3286.22 479.832 L3290.59 479.832 L3290.59 483.396 L3286.22 483.396 Q3281.29 483.396 3279.41 481.568 Q3277.54 479.716 3277.54 474.855 L3277.54 460.781 L3274.41 460.781 L3274.41 457.471 L3277.54 457.471 L3277.54 450.11 L3281.82 450.11 Z" fill="#000000" fill-rule="nonzero" fill-opacity="1" /><path clip-path="url(#clip040)" d="M3295.52 447.424 L3299.23 447.424 Q3302.7 452.887 3304.41 458.119 Q3306.15 463.35 3306.15 468.512 Q3306.15 473.697 3304.41 478.952 Q3302.7 484.207 3299.23 489.646 L3295.52 489.646 Q3298.6 484.345 3300.11 479.114 Q3301.63 473.859 3301.63 468.512 Q3301.63 463.165 3300.11 457.957 Q3298.6 452.748 3295.52 447.424 Z" fill="#000000" fill-rule="nonzero" fill-opacity="1" /><path clip-path="url(#clip040)" d="M2898.87 492.356 L2892.85 509.662 L2874.52 510.046 L2889.14 521.131 L2883.82 538.667 L2898.87 528.196 L2913.92 538.667 L2908.6 521.131 L2923.21 510.046 L2904.89 509.662 L2898.87 492.356 Z" fill="#a0522d" fill-rule="evenodd" fill-opacity="1" stroke="none"/>
<path clip-path="url(#clip040)" d="M3051.4 499.264 Q3048.3 504.588 3046.8 509.797 Q3045.29 515.005 3045.29 520.352 Q3045.29 525.699 3046.8 530.954 Q3048.33 536.185 3051.4 541.486 L3047.7 541.486 Q3044.23 536.047 3042.49 530.792 Q3040.78 525.537 3040.78 520.352 Q3040.78 515.19 3042.49 509.959 Q3044.2 504.727 3047.7 499.264 L3051.4 499.264 Z" fill="#000000" fill-rule="nonzero" fill-opacity="1" /><path clip-path="url(#clip040)" d="M3059.67 509.311 L3063.93 509.311 L3063.93 535.699 Q3063.93 540.653 3062.03 542.875 Q3060.15 545.097 3055.96 545.097 L3054.34 545.097 L3054.34 541.486 L3055.48 541.486 Q3057.91 541.486 3058.79 540.352 Q3059.67 539.241 3059.67 535.699 L3059.67 509.311 M3059.67 499.218 L3063.93 499.218 L3063.93 504.612 L3059.67 504.612 L3059.67 499.218 Z" fill="#000000" fill-rule="nonzero" fill-opacity="1" /><path clip-path="url(#clip040)" d="M3072.4 525.005 L3072.4 509.311 L3076.66 509.311 L3076.66 524.843 Q3076.66 528.523 3078.09 530.375 Q3079.53 532.204 3082.4 532.204 Q3085.85 532.204 3087.84 530.005 Q3089.85 527.806 3089.85 524.01 L3089.85 509.311 L3094.11 509.311 L3094.11 535.236 L3089.85 535.236 L3089.85 531.255 Q3088.3 533.616 3086.24 534.773 Q3084.2 535.908 3081.5 535.908 Q3077.03 535.908 3074.71 533.13 Q3072.4 530.352 3072.4 525.005 M3083.12 508.686 L3083.12 508.686 Z" fill="#000000" fill-rule="nonzero" fill-opacity="1" /><path clip-path="url(#clip040)" d="M3123.07 514.287 Q3124.67 511.417 3126.89 510.051 Q3129.11 508.686 3132.12 508.686 Q3136.17 508.686 3138.37 511.533 Q3140.57 514.357 3140.57 519.588 L3140.57 535.236 L3136.29 535.236 L3136.29 519.727 Q3136.29 516 3134.97 514.195 Q3133.65 512.389 3130.94 512.389 Q3127.63 512.389 3125.71 514.588 Q3123.79 516.787 3123.79 520.584 L3123.79 535.236 L3119.51 535.236 L3119.51 519.727 Q3119.51 515.977 3118.19 514.195 Q3116.87 512.389 3114.11 512.389 Q3110.85 512.389 3108.93 514.611 Q3107.01 516.811 3107.01 520.584 L3107.01 535.236 L3102.72 535.236 L3102.72 509.311 L3107.01 509.311 L3107.01 513.338 Q3108.46 510.954 3110.5 509.82 Q3112.54 508.686 3115.34 508.686 Q3118.16 508.686 3120.13 510.121 Q3122.12 511.556 3123.07 514.287 Z" fill="#000000" fill-rule="nonzero" fill-opacity="1" /><path clip-path="url(#clip040)" d="M3153.19 531.347 L3153.19 545.097 L3148.9 545.097 L3148.9 509.311 L3153.19 509.311 L3153.19 513.246 Q3154.53 510.931 3156.57 509.82 Q3158.63 508.686 3161.47 508.686 Q3166.19 508.686 3169.13 512.436 Q3172.1 516.186 3172.1 522.297 Q3172.1 528.408 3169.13 532.158 Q3166.19 535.908 3161.47 535.908 Q3158.63 535.908 3156.57 534.797 Q3154.53 533.662 3153.19 531.347 M3167.68 522.297 Q3167.68 517.598 3165.73 514.936 Q3163.81 512.25 3160.43 512.25 Q3157.05 512.25 3155.11 514.936 Q3153.19 517.598 3153.19 522.297 Q3153.19 526.996 3155.11 529.681 Q3157.05 532.343 3160.43 532.343 Q3163.81 532.343 3165.73 529.681 Q3167.68 526.996 3167.68 522.297 Z" fill="#000000" fill-rule="nonzero" fill-opacity="1" /><path clip-path="url(#clip040)" d="M3180.25 529.357 L3185.13 529.357 L3185.13 533.338 L3181.33 540.746 L3178.35 540.746 L3180.25 533.338 L3180.25 529.357 Z" fill="#000000" fill-rule="nonzero" fill-opacity="1" /><path clip-path="url(#clip040)" d="M3229.48 514.287 Q3231.08 511.417 3233.3 510.051 Q3235.52 508.686 3238.53 508.686 Q3242.58 508.686 3244.78 511.533 Q3246.98 514.357 3246.98 519.588 L3246.98 535.236 L3242.7 535.236 L3242.7 519.727 Q3242.7 516 3241.38 514.195 Q3240.06 512.389 3237.35 512.389 Q3234.04 512.389 3232.12 514.588 Q3230.2 516.787 3230.2 520.584 L3230.2 535.236 L3225.92 535.236 L3225.92 519.727 Q3225.92 515.977 3224.6 514.195 Q3223.28 512.389 3220.52 512.389 Q3217.26 512.389 3215.34 514.611 Q3213.42 516.811 3213.42 520.584 L3213.42 535.236 L3209.13 535.236 L3209.13 509.311 L3213.42 509.311 L3213.42 513.338 Q3214.88 510.954 3216.91 509.82 Q3218.95 508.686 3221.75 508.686 Q3224.57 508.686 3226.54 510.121 Q3228.53 511.556 3229.48 514.287 Z" fill="#000000" fill-rule="nonzero" fill-opacity="1" /><path clip-path="url(#clip040)" d="M3267.26 522.204 Q3262.1 522.204 3260.11 523.385 Q3258.12 524.565 3258.12 527.412 Q3258.12 529.681 3259.6 531.023 Q3261.1 532.343 3263.67 532.343 Q3267.21 532.343 3269.34 529.843 Q3271.5 527.32 3271.5 523.153 L3271.5 522.204 L3267.26 522.204 M3275.75 520.445 L3275.75 535.236 L3271.5 535.236 L3271.5 531.301 Q3270.04 533.662 3267.86 534.797 Q3265.69 535.908 3262.54 535.908 Q3258.56 535.908 3256.19 533.685 Q3253.86 531.44 3253.86 527.69 Q3253.86 523.315 3256.77 521.093 Q3259.71 518.871 3265.52 518.871 L3271.5 518.871 L3271.5 518.454 Q3271.5 515.514 3269.55 513.917 Q3267.63 512.297 3264.13 512.297 Q3261.91 512.297 3259.81 512.829 Q3257.7 513.361 3255.75 514.426 L3255.75 510.491 Q3258.09 509.588 3260.29 509.149 Q3262.49 508.686 3264.57 508.686 Q3270.2 508.686 3272.98 511.602 Q3275.75 514.519 3275.75 520.445 Z" fill="#000000" fill-rule="nonzero" fill-opacity="1" /><path clip-path="url(#clip040)" d="M3301.59 513.246 L3301.59 499.218 L3305.85 499.218 L3305.85 535.236 L3301.59 535.236 L3301.59 531.347 Q3300.25 533.662 3298.18 534.797 Q3296.15 535.908 3293.28 535.908 Q3288.58 535.908 3285.62 532.158 Q3282.68 528.408 3282.68 522.297 Q3282.68 516.186 3285.62 512.436 Q3288.58 508.686 3293.28 508.686 Q3296.15 508.686 3298.18 509.82 Q3300.25 510.931 3301.59 513.246 M3287.07 522.297 Q3287.07 526.996 3289 529.681 Q3290.94 532.343 3294.32 532.343 Q3297.7 532.343 3299.64 529.681 Q3301.59 526.996 3301.59 522.297 Q3301.59 517.598 3299.64 514.936 Q3297.7 512.25 3294.32 512.25 Q3290.94 512.25 3289 514.936 Q3287.07 517.598 3287.07 522.297 Z" fill="#000000" fill-rule="nonzero" fill-opacity="1" /><path clip-path="url(#clip040)" d="M3336.17 519.588 L3336.17 535.236 L3331.91 535.236 L3331.91 519.727 Q3331.91 516.047 3330.48 514.218 Q3329.04 512.389 3326.17 512.389 Q3322.72 512.389 3320.73 514.588 Q3318.74 516.787 3318.74 520.584 L3318.74 535.236 L3314.46 535.236 L3314.46 509.311 L3318.74 509.311 L3318.74 513.338 Q3320.27 511 3322.33 509.843 Q3324.41 508.686 3327.12 508.686 Q3331.59 508.686 3333.88 511.463 Q3336.17 514.218 3336.17 519.588 Z" fill="#000000" fill-rule="nonzero" fill-opacity="1" /><path clip-path="url(#clip040)" d="M3344.67 499.218 L3348.93 499.218 L3348.93 535.236 L3344.67 535.236 L3344.67 499.218 Z" fill="#000000" fill-rule="nonzero" fill-opacity="1" /><path clip-path="url(#clip040)" d="M3361.96 531.347 L3361.96 545.097 L3357.68 545.097 L3357.68 509.311 L3361.96 509.311 L3361.96 513.246 Q3363.3 510.931 3365.34 509.82 Q3367.4 508.686 3370.24 508.686 Q3374.97 508.686 3377.91 512.436 Q3380.87 516.186 3380.87 522.297 Q3380.87 528.408 3377.91 532.158 Q3374.97 535.908 3370.24 535.908 Q3367.4 535.908 3365.34 534.797 Q3363.3 533.662 3361.96 531.347 M3376.45 522.297 Q3376.45 517.598 3374.5 514.936 Q3372.58 512.25 3369.2 512.25 Q3365.82 512.25 3363.88 514.936 Q3361.96 517.598 3361.96 522.297 Q3361.96 526.996 3363.88 529.681 Q3365.82 532.343 3369.2 532.343 Q3372.58 532.343 3374.5 529.681 Q3376.45 526.996 3376.45 522.297 Z" fill="#000000" fill-rule="nonzero" fill-opacity="1" /><path clip-path="url(#clip040)" d="M3387.26 499.264 L3390.96 499.264 Q3394.43 504.727 3396.15 509.959 Q3397.88 515.19 3397.88 520.352 Q3397.88 525.537 3396.15 530.792 Q3394.43 536.047 3390.96 541.486 L3387.26 541.486 Q3390.34 536.185 3391.84 530.954 Q3393.37 525.699 3393.37 520.352 Q3393.37 515.005 3391.84 509.797 Q3390.34 504.588 3387.26 499.264 Z" fill="#000000" fill-rule="nonzero" fill-opacity="1" /><path clip-path="url(#clip040)" d="M2898.87 544.196 L2873.27 569.796 L2898.87 595.396 L2924.47 569.796 L2898.87 544.196 Z" fill="#2e8b57" fill-rule="evenodd" fill-opacity="1" stroke="none"/>
<path clip-path="url(#clip040)" d="M3051.4 551.104 Q3048.3 556.428 3046.8 561.637 Q3045.29 566.845 3045.29 572.192 Q3045.29 577.539 3046.8 582.794 Q3048.33 588.025 3051.4 593.326 L3047.7 593.326 Q3044.23 587.887 3042.49 582.632 Q3040.78 577.377 3040.78 572.192 Q3040.78 567.03 3042.49 561.799 Q3044.2 556.567 3047.7 551.104 L3051.4 551.104 Z" fill="#000000" fill-rule="nonzero" fill-opacity="1" /><path clip-path="url(#clip040)" d="M3071.45 574.044 Q3066.29 574.044 3064.3 575.225 Q3062.31 576.405 3062.31 579.252 Q3062.31 581.521 3063.79 582.863 Q3065.29 584.183 3067.86 584.183 Q3071.4 584.183 3073.53 581.683 Q3075.69 579.16 3075.69 574.993 L3075.69 574.044 L3071.45 574.044 M3079.95 572.285 L3079.95 587.076 L3075.69 587.076 L3075.69 583.141 Q3074.23 585.502 3072.05 586.637 Q3069.88 587.748 3066.73 587.748 Q3062.75 587.748 3060.39 585.525 Q3058.05 583.28 3058.05 579.53 Q3058.05 575.155 3060.96 572.933 Q3063.9 570.711 3069.71 570.711 L3075.69 570.711 L3075.69 570.294 Q3075.69 567.354 3073.74 565.757 Q3071.82 564.137 3068.33 564.137 Q3066.1 564.137 3064 564.669 Q3061.89 565.201 3059.95 566.266 L3059.95 562.331 Q3062.28 561.428 3064.48 560.989 Q3066.68 560.526 3068.76 560.526 Q3074.39 560.526 3077.17 563.442 Q3079.95 566.359 3079.95 572.285 Z" fill="#000000" fill-rule="nonzero" fill-opacity="1" /><path clip-path="url(#clip040)" d="M3105.78 565.086 L3105.78 551.058 L3110.04 551.058 L3110.04 587.076 L3105.78 587.076 L3105.78 583.187 Q3104.44 585.502 3102.38 586.637 Q3100.34 587.748 3097.47 587.748 Q3092.77 587.748 3089.81 583.998 Q3086.87 580.248 3086.87 574.137 Q3086.87 568.026 3089.81 564.276 Q3092.77 560.526 3097.47 560.526 Q3100.34 560.526 3102.38 561.66 Q3104.44 562.771 3105.78 565.086 M3091.26 574.137 Q3091.26 578.836 3093.19 581.521 Q3095.13 584.183 3098.51 584.183 Q3101.89 584.183 3103.83 581.521 Q3105.78 578.836 3105.78 574.137 Q3105.78 569.438 3103.83 566.776 Q3101.89 564.09 3098.51 564.09 Q3095.13 564.09 3093.19 566.776 Q3091.26 569.438 3091.26 574.137 Z" fill="#000000" fill-rule="nonzero" fill-opacity="1" /><path clip-path="url(#clip040)" d="M3140.36 571.428 L3140.36 587.076 L3136.1 587.076 L3136.1 571.567 Q3136.1 567.887 3134.67 566.058 Q3133.23 564.229 3130.36 564.229 Q3126.91 564.229 3124.92 566.428 Q3122.93 568.627 3122.93 572.424 L3122.93 587.076 L3118.65 587.076 L3118.65 561.151 L3122.93 561.151 L3122.93 565.178 Q3124.46 562.84 3126.52 561.683 Q3128.6 560.526 3131.31 560.526 Q3135.78 560.526 3138.07 563.303 Q3140.36 566.058 3140.36 571.428 Z" fill="#000000" fill-rule="nonzero" fill-opacity="1" /><path clip-path="url(#clip040)" d="M3148.86 551.058 L3153.12 551.058 L3153.12 587.076 L3148.86 587.076 L3148.86 551.058 Z" fill="#000000" fill-rule="nonzero" fill-opacity="1" /><path clip-path="url(#clip040)" d="M3166.15 583.187 L3166.15 596.937 L3161.87 596.937 L3161.87 561.151 L3166.15 561.151 L3166.15 565.086 Q3167.49 562.771 3169.53 561.66 Q3171.59 560.526 3174.44 560.526 Q3179.16 560.526 3182.1 564.276 Q3185.06 568.026 3185.06 574.137 Q3185.06 580.248 3182.1 583.998 Q3179.16 587.748 3174.44 587.748 Q3171.59 587.748 3169.53 586.637 Q3167.49 585.502 3166.15 583.187 M3180.64 574.137 Q3180.64 569.438 3178.69 566.776 Q3176.77 564.09 3173.39 564.09 Q3170.01 564.09 3168.07 566.776 Q3166.15 569.438 3166.15 574.137 Q3166.15 578.836 3168.07 581.521 Q3170.01 584.183 3173.39 584.183 Q3176.77 584.183 3178.69 581.521 Q3180.64 578.836 3180.64 574.137 Z" fill="#000000" fill-rule="nonzero" fill-opacity="1" /><path clip-path="url(#clip040)" d="M3193.21 581.197 L3198.09 581.197 L3198.09 585.178 L3194.3 592.586 L3191.31 592.586 L3193.21 585.178 L3193.21 581.197 Z" fill="#000000" fill-rule="nonzero" fill-opacity="1" /><path clip-path="url(#clip040)" d="M3242.44 566.127 Q3244.04 563.257 3246.26 561.891 Q3248.49 560.526 3251.5 560.526 Q3255.55 560.526 3257.75 563.373 Q3259.94 566.197 3259.94 571.428 L3259.94 587.076 L3255.66 587.076 L3255.66 571.567 Q3255.66 567.84 3254.34 566.035 Q3253.02 564.229 3250.31 564.229 Q3247 564.229 3245.08 566.428 Q3243.16 568.627 3243.16 572.424 L3243.16 587.076 L3238.88 587.076 L3238.88 571.567 Q3238.88 567.817 3237.56 566.035 Q3236.24 564.229 3233.49 564.229 Q3230.22 564.229 3228.3 566.451 Q3226.38 568.651 3226.38 572.424 L3226.38 587.076 L3222.1 587.076 L3222.1 561.151 L3226.38 561.151 L3226.38 565.178 Q3227.84 562.794 3229.88 561.66 Q3231.91 560.526 3234.71 560.526 Q3237.54 560.526 3239.5 561.961 Q3241.5 563.396 3242.44 566.127 Z" fill="#000000" fill-rule="nonzero" fill-opacity="1" /><path clip-path="url(#clip040)" d="M3280.22 574.044 Q3275.06 574.044 3273.07 575.225 Q3271.08 576.405 3271.08 579.252 Q3271.08 581.521 3272.56 582.863 Q3274.06 584.183 3276.63 584.183 Q3280.18 584.183 3282.31 581.683 Q3284.46 579.16 3284.46 574.993 L3284.46 574.044 L3280.22 574.044 M3288.72 572.285 L3288.72 587.076 L3284.46 587.076 L3284.46 583.141 Q3283 585.502 3280.82 586.637 Q3278.65 587.748 3275.5 587.748 Q3271.52 587.748 3269.16 585.525 Q3266.82 583.28 3266.82 579.53 Q3266.82 575.155 3269.74 572.933 Q3272.68 570.711 3278.49 570.711 L3284.46 570.711 L3284.46 570.294 Q3284.46 567.354 3282.51 565.757 Q3280.59 564.137 3277.1 564.137 Q3274.87 564.137 3272.77 564.669 Q3270.66 565.201 3268.72 566.266 L3268.72 562.331 Q3271.06 561.428 3273.25 560.989 Q3275.45 560.526 3277.54 560.526 Q3283.16 560.526 3285.94 563.442 Q3288.72 566.359 3288.72 572.285 Z" fill="#000000" fill-rule="nonzero" fill-opacity="1" /><path clip-path="url(#clip040)" d="M3314.55 565.086 L3314.55 551.058 L3318.81 551.058 L3318.81 587.076 L3314.55 587.076 L3314.55 583.187 Q3313.21 585.502 3311.15 586.637 Q3309.11 587.748 3306.24 587.748 Q3301.54 587.748 3298.58 583.998 Q3295.64 580.248 3295.64 574.137 Q3295.64 568.026 3298.58 564.276 Q3301.54 560.526 3306.24 560.526 Q3309.11 560.526 3311.15 561.66 Q3313.21 562.771 3314.55 565.086 M3300.04 574.137 Q3300.04 578.836 3301.96 581.521 Q3303.9 584.183 3307.28 584.183 Q3310.66 584.183 3312.61 581.521 Q3314.55 578.836 3314.55 574.137 Q3314.55 569.438 3312.61 566.776 Q3310.66 564.09 3307.28 564.09 Q3303.9 564.09 3301.96 566.776 Q3300.04 569.438 3300.04 574.137 Z" fill="#000000" fill-rule="nonzero" fill-opacity="1" /><path clip-path="url(#clip040)" d="M3349.13 571.428 L3349.13 587.076 L3344.87 587.076 L3344.87 571.567 Q3344.87 567.887 3343.44 566.058 Q3342 564.229 3339.13 564.229 Q3335.68 564.229 3333.69 566.428 Q3331.7 568.627 3331.7 572.424 L3331.7 587.076 L3327.42 587.076 L3327.42 561.151 L3331.7 561.151 L3331.7 565.178 Q3333.23 562.84 3335.29 561.683 Q3337.37 560.526 3340.08 560.526 Q3344.55 560.526 3346.84 563.303 Q3349.13 566.058 3349.13 571.428 Z" fill="#000000" fill-rule="nonzero" fill-opacity="1" /><path clip-path="url(#clip040)" d="M3357.63 551.058 L3361.89 551.058 L3361.89 587.076 L3357.63 587.076 L3357.63 551.058 Z" fill="#000000" fill-rule="nonzero" fill-opacity="1" /><path clip-path="url(#clip040)" d="M3374.92 583.187 L3374.92 596.937 L3370.64 596.937 L3370.64 561.151 L3374.92 561.151 L3374.92 565.086 Q3376.26 562.771 3378.3 561.66 Q3380.36 560.526 3383.21 560.526 Q3387.93 560.526 3390.87 564.276 Q3393.83 568.026 3393.83 574.137 Q3393.83 580.248 3390.87 583.998 Q3387.93 587.748 3383.21 587.748 Q3380.36 587.748 3378.3 586.637 Q3376.26 585.502 3374.92 583.187 M3389.41 574.137 Q3389.41 569.438 3387.47 566.776 Q3385.55 564.09 3382.17 564.09 Q3378.79 564.09 3376.84 566.776 Q3374.92 569.438 3374.92 574.137 Q3374.92 578.836 3376.84 581.521 Q3378.79 584.183 3382.17 584.183 Q3385.55 584.183 3387.47 581.521 Q3389.41 578.836 3389.41 574.137 Z" fill="#000000" fill-rule="nonzero" fill-opacity="1" /><path clip-path="url(#clip040)" d="M3400.22 551.104 L3403.93 551.104 Q3407.4 556.567 3409.11 561.799 Q3410.85 567.03 3410.85 572.192 Q3410.85 577.377 3409.11 582.632 Q3407.4 587.887 3403.93 593.326 L3400.22 593.326 Q3403.3 588.025 3404.8 582.794 Q3406.33 577.539 3406.33 572.192 Q3406.33 566.845 3404.8 561.637 Q3403.3 556.428 3400.22 551.104 Z" fill="#000000" fill-rule="nonzero" fill-opacity="1" /><path clip-path="url(#clip040)" d="M2898.87 596.036 L2873.27 647.236 L2924.47 647.236 L2898.87 596.036 Z" fill="#ff8c00" fill-rule="evenodd" fill-opacity="1" stroke="none"/>
<path clip-path="url(#clip040)" d="M3051.4 602.944 Q3048.3 608.268 3046.8 613.477 Q3045.29 618.685 3045.29 624.032 Q3045.29 629.379 3046.8 634.634 Q3048.33 639.865 3051.4 645.166 L3047.7 645.166 Q3044.23 639.727 3042.49 634.472 Q3040.78 629.217 3040.78 624.032 Q3040.78 618.87 3042.49 613.639 Q3044.2 608.407 3047.7 602.944 L3051.4 602.944 Z" fill="#000000" fill-rule="nonzero" fill-opacity="1" /><path clip-path="url(#clip040)" d="M3081.84 624.889 L3081.84 626.972 L3062.26 626.972 Q3062.54 631.37 3064.9 633.685 Q3067.28 635.977 3071.52 635.977 Q3073.97 635.977 3076.26 635.375 Q3078.58 634.773 3080.85 633.569 L3080.85 637.597 Q3078.56 638.569 3076.15 639.078 Q3073.74 639.588 3071.26 639.588 Q3065.06 639.588 3061.43 635.977 Q3057.82 632.365 3057.82 626.208 Q3057.82 619.842 3061.24 616.116 Q3064.69 612.366 3070.52 612.366 Q3075.76 612.366 3078.79 615.745 Q3081.84 619.102 3081.84 624.889 M3077.58 623.639 Q3077.54 620.143 3075.62 618.06 Q3073.72 615.977 3070.57 615.977 Q3067.01 615.977 3064.85 617.991 Q3062.72 620.004 3062.4 623.662 L3077.58 623.639 Z" fill="#000000" fill-rule="nonzero" fill-opacity="1" /><path clip-path="url(#clip040)" d="M3109.55 612.991 L3100.18 625.606 L3110.04 638.916 L3105.01 638.916 L3097.47 628.731 L3089.92 638.916 L3084.9 638.916 L3094.97 625.352 L3085.76 612.991 L3090.78 612.991 L3097.65 622.227 L3104.53 612.991 L3109.55 612.991 Z" fill="#000000" fill-rule="nonzero" fill-opacity="1" /><path clip-path="url(#clip040)" d="M3127.84 625.884 Q3122.68 625.884 3120.69 627.065 Q3118.7 628.245 3118.7 631.092 Q3118.7 633.361 3120.18 634.703 Q3121.68 636.023 3124.25 636.023 Q3127.79 636.023 3129.92 633.523 Q3132.07 631 3132.07 626.833 L3132.07 625.884 L3127.84 625.884 M3136.33 624.125 L3136.33 638.916 L3132.07 638.916 L3132.07 634.981 Q3130.62 637.342 3128.44 638.477 Q3126.26 639.588 3123.12 639.588 Q3119.13 639.588 3116.77 637.365 Q3114.44 635.12 3114.44 631.37 Q3114.44 626.995 3117.35 624.773 Q3120.29 622.551 3126.1 622.551 L3132.07 622.551 L3132.07 622.134 Q3132.07 619.194 3130.13 617.597 Q3128.21 615.977 3124.71 615.977 Q3122.49 615.977 3120.38 616.509 Q3118.28 617.041 3116.33 618.106 L3116.33 614.171 Q3118.67 613.268 3120.87 612.829 Q3123.07 612.366 3125.15 612.366 Q3130.78 612.366 3133.56 615.282 Q3136.33 618.199 3136.33 624.125 Z" fill="#000000" fill-rule="nonzero" fill-opacity="1" /><path clip-path="url(#clip040)" d="M3146.2 633.037 L3151.08 633.037 L3151.08 637.018 L3147.28 644.426 L3144.3 644.426 L3146.2 637.018 L3146.2 633.037 Z" fill="#000000" fill-rule="nonzero" fill-opacity="1" /><path clip-path="url(#clip040)" d="M3195.43 617.967 Q3197.03 615.097 3199.25 613.731 Q3201.47 612.366 3204.48 612.366 Q3208.53 612.366 3210.73 615.213 Q3212.93 618.037 3212.93 623.268 L3212.93 638.916 L3208.65 638.916 L3208.65 623.407 Q3208.65 619.68 3207.33 617.875 Q3206.01 616.069 3203.3 616.069 Q3199.99 616.069 3198.07 618.268 Q3196.15 620.467 3196.15 624.264 L3196.15 638.916 L3191.87 638.916 L3191.87 623.407 Q3191.87 619.657 3190.55 617.875 Q3189.23 616.069 3186.47 616.069 Q3183.21 616.069 3181.29 618.291 Q3179.37 620.491 3179.37 624.264 L3179.37 638.916 L3175.08 638.916 L3175.08 612.991 L3179.37 612.991 L3179.37 617.018 Q3180.82 614.634 3182.86 613.5 Q3184.9 612.366 3187.7 612.366 Q3190.52 612.366 3192.49 613.801 Q3194.48 615.236 3195.43 617.967 Z" fill="#000000" fill-rule="nonzero" fill-opacity="1" /><path clip-path="url(#clip040)" d="M3233.21 625.884 Q3228.05 625.884 3226.06 627.065 Q3224.06 628.245 3224.06 631.092 Q3224.06 633.361 3225.55 634.703 Q3227.05 636.023 3229.62 636.023 Q3233.16 636.023 3235.29 633.523 Q3237.44 631 3237.44 626.833 L3237.44 625.884 L3233.21 625.884 M3241.7 624.125 L3241.7 638.916 L3237.44 638.916 L3237.44 634.981 Q3235.99 637.342 3233.81 638.477 Q3231.63 639.588 3228.49 639.588 Q3224.5 639.588 3222.14 637.365 Q3219.81 635.12 3219.81 631.37 Q3219.81 626.995 3222.72 624.773 Q3225.66 622.551 3231.47 622.551 L3237.44 622.551 L3237.44 622.134 Q3237.44 619.194 3235.5 617.597 Q3233.58 615.977 3230.08 615.977 Q3227.86 615.977 3225.75 616.509 Q3223.65 617.041 3221.7 618.106 L3221.7 614.171 Q3224.04 613.268 3226.24 612.829 Q3228.44 612.366 3230.52 612.366 Q3236.15 612.366 3238.93 615.282 Q3241.7 618.199 3241.7 624.125 Z" fill="#000000" fill-rule="nonzero" fill-opacity="1" /><path clip-path="url(#clip040)" d="M3267.54 616.926 L3267.54 602.898 L3271.8 602.898 L3271.8 638.916 L3267.54 638.916 L3267.54 635.027 Q3266.19 637.342 3264.13 638.477 Q3262.1 639.588 3259.23 639.588 Q3254.53 639.588 3251.56 635.838 Q3248.63 632.088 3248.63 625.977 Q3248.63 619.866 3251.56 616.116 Q3254.53 612.366 3259.23 612.366 Q3262.1 612.366 3264.13 613.5 Q3266.19 614.611 3267.54 616.926 M3253.02 625.977 Q3253.02 630.676 3254.94 633.361 Q3256.89 636.023 3260.27 636.023 Q3263.65 636.023 3265.59 633.361 Q3267.54 630.676 3267.54 625.977 Q3267.54 621.278 3265.59 618.616 Q3263.65 615.93 3260.27 615.93 Q3256.89 615.93 3254.94 618.616 Q3253.02 621.278 3253.02 625.977 Z" fill="#000000" fill-rule="nonzero" fill-opacity="1" /><path clip-path="url(#clip040)" d="M3302.12 623.268 L3302.12 638.916 L3297.86 638.916 L3297.86 623.407 Q3297.86 619.727 3296.43 617.898 Q3294.99 616.069 3292.12 616.069 Q3288.67 616.069 3286.68 618.268 Q3284.69 620.467 3284.69 624.264 L3284.69 638.916 L3280.41 638.916 L3280.41 612.991 L3284.69 612.991 L3284.69 617.018 Q3286.22 614.68 3288.28 613.523 Q3290.36 612.366 3293.07 612.366 Q3297.54 612.366 3299.83 615.143 Q3302.12 617.898 3302.12 623.268 Z" fill="#000000" fill-rule="nonzero" fill-opacity="1" /><path clip-path="url(#clip040)" d="M3310.62 602.898 L3314.87 602.898 L3314.87 638.916 L3310.62 638.916 L3310.62 602.898 Z" fill="#000000" fill-rule="nonzero" fill-opacity="1" /><path clip-path="url(#clip040)" d="M3327.91 635.027 L3327.91 648.777 L3323.62 648.777 L3323.62 612.991 L3327.91 612.991 L3327.91 616.926 Q3329.25 614.611 3331.29 613.5 Q3333.35 612.366 3336.19 612.366 Q3340.92 612.366 3343.86 616.116 Q3346.82 619.866 3346.82 625.977 Q3346.82 632.088 3343.86 635.838 Q3340.92 639.588 3336.19 639.588 Q3333.35 639.588 3331.29 638.477 Q3329.25 637.342 3327.91 635.027 M3342.4 625.977 Q3342.4 621.278 3340.45 618.616 Q3338.53 615.93 3335.15 615.93 Q3331.77 615.93 3329.83 618.616 Q3327.91 621.278 3327.91 625.977 Q3327.91 630.676 3329.83 633.361 Q3331.77 636.023 3335.15 636.023 Q3338.53 636.023 3340.45 633.361 Q3342.4 630.676 3342.4 625.977 Z" fill="#000000" fill-rule="nonzero" fill-opacity="1" /><path clip-path="url(#clip040)" d="M3353.21 602.944 L3356.91 602.944 Q3360.38 608.407 3362.1 613.639 Q3363.83 618.87 3363.83 624.032 Q3363.83 629.217 3362.1 634.472 Q3360.38 639.727 3356.91 645.166 L3353.21 645.166 Q3356.29 639.865 3357.79 634.634 Q3359.32 629.379 3359.32 624.032 Q3359.32 618.685 3357.79 613.477 Q3356.29 608.268 3353.21 602.944 Z" fill="#000000" fill-rule="nonzero" fill-opacity="1" /></svg>
