<?xml version="1.0" encoding="utf-8"?>
<svg xmlns="http://www.w3.org/2000/svg" xmlns:xlink="http://www.w3.org/1999/xlink" width="900" height="600" viewBox="0 0 3600 2400">
<defs>
  <clipPath id="clip250">
    <rect x="0" y="0" width="3600" height="2400"/>
  </clipPath>
</defs>
<path clip-path="url(#clip250)" d="M0 2400 L3600 2400 L3600 0 L0 0  Z" fill="#ffffff" fill-rule="evenodd" fill-opacity="1"/>
<defs>
  <clipPath id="clip251">
    <rect x="720" y="0" width="2521" height="2400"/>
  </clipPath>
</defs>
<path clip-path="url(#clip250)" d="M320.376 2156.51 L3552.76 2156.51 L3552.76 246.944 L320.376 246.944  Z" fill="#ffffff" fill-rule="evenodd" fill-opacity="1"/>
<defs>
  <clipPath id="clip252">
    <rect x="320" y="246" width="3233" height="1911"/>
  </clipPath>
</defs>
<polyline clip-path="url(#clip252)" style="stroke:#000000; stroke-linecap:round; stroke-linejoin:round; stroke-width:2; stroke-opacity:0.1; fill:none" points="411.859,2156.51 411.859,246.944 "/>
<polyline clip-path="url(#clip252)" style="stroke:#000000; stroke-linecap:round; stroke-linejoin:round; stroke-width:2; stroke-opacity:0.1; fill:none" points="1174.21,2156.51 1174.21,246.944 "/>
<polyline clip-path="url(#clip252)" style="stroke:#000000; stroke-linecap:round; stroke-linejoin:round; stroke-width:2; stroke-opacity:0.1; fill:none" points="1936.57,2156.51 1936.57,246.944 "/>
<polyline clip-path="url(#clip252)" style="stroke:#000000; stroke-linecap:round; stroke-linejoin:round; stroke-width:2; stroke-opacity:0.1; fill:none" points="2698.92,2156.51 2698.92,246.944 "/>
<polyline clip-path="url(#clip252)" style="stroke:#000000; stroke-linecap:round; stroke-linejoin:round; stroke-width:2; stroke-opacity:0.1; fill:none" points="3461.27,2156.51 3461.27,246.944 "/>
<polyline clip-path="url(#clip252)" style="stroke:#000000; stroke-linecap:round; stroke-linejoin:round; stroke-width:2; stroke-opacity:0.1; fill:none" points="320.376,1850.4 3552.76,1850.4 "/>
<polyline clip-path="url(#clip252)" style="stroke:#000000; stroke-linecap:round; stroke-linejoin:round; stroke-width:2; stroke-opacity:0.1; fill:none" points="320.376,1501.73 3552.76,1501.73 "/>
<polyline clip-path="url(#clip252)" style="stroke:#000000; stroke-linecap:round; stroke-linejoin:round; stroke-width:2; stroke-opacity:0.1; fill:none" points="320.376,1153.05 3552.76,1153.05 "/>
<polyline clip-path="url(#clip252)" style="stroke:#000000; stroke-linecap:round; stroke-linejoin:round; stroke-width:2; stroke-opacity:0.1; fill:none" points="320.376,804.378 3552.76,804.378 "/>
<polyline clip-path="url(#clip252)" style="stroke:#000000; stroke-linecap:round; stroke-linejoin:round; stroke-width:2; stroke-opacity:0.1; fill:none" points="320.376,455.703 3552.76,455.703 "/>
<polyline clip-path="url(#clip250)" style="stroke:#000000; stroke-linecap:round; stroke-linejoin:round; stroke-width:4; stroke-opacity:1; fill:none" points="320.376,2156.51 3552.76,2156.51 "/>
<polyline clip-path="url(#clip250)" style="stroke:#000000; stroke-linecap:round; stroke-linejoin:round; stroke-width:4; stroke-opacity:1; fill:none" points="411.859,2156.51 411.859,2137.61 "/>
<polyline clip-path="url(#clip250)" style="stroke:#000000; stroke-linecap:round; stroke-linejoin:round; stroke-width:4; stroke-opacity:1; fill:none" points="1174.21,2156.51 1174.21,2137.61 "/>
<polyline clip-path="url(#clip250)" style="stroke:#000000; stroke-linecap:round; stroke-linejoin:round; stroke-width:4; stroke-opacity:1; fill:none" points="1936.57,2156.51 1936.57,2137.61 "/>
<polyline clip-path="url(#clip250)" style="stroke:#000000; stroke-linecap:round; stroke-linejoin:round; stroke-width:4; stroke-opacity:1; fill:none" points="2698.92,2156.51 2698.92,2137.61 "/>
<polyline clip-path="url(#clip250)" style="stroke:#000000; stroke-linecap:round; stroke-linejoin:round; stroke-width:4; stroke-opacity:1; fill:none" points="3461.27,2156.51 3461.27,2137.61 "/>
<path clip-path="url(#clip250)" d="M412.264 2209.36 Q409.116 2209.36 407.264 2211.52 Q405.435 2213.67 405.435 2217.42 Q405.435 2221.15 407.264 2223.32 Q409.116 2225.48 412.264 2225.48 Q415.412 2225.48 417.241 2223.32 Q419.092 2221.15 419.092 2217.42 Q419.092 2213.67 417.241 2211.52 Q415.412 2209.36 412.264 2209.36 M421.546 2194.71 L421.546 2198.97 Q419.787 2198.14 417.981 2197.7 Q416.199 2197.26 414.44 2197.26 Q409.81 2197.26 407.356 2200.38 Q404.926 2203.51 404.579 2209.83 Q405.944 2207.81 408.004 2206.75 Q410.065 2205.66 412.542 2205.66 Q417.75 2205.66 420.759 2208.83 Q423.791 2211.98 423.791 2217.42 Q423.791 2222.74 420.643 2225.96 Q417.495 2229.18 412.264 2229.18 Q406.268 2229.18 403.097 2224.6 Q399.926 2219.99 399.926 2211.26 Q399.926 2203.07 403.815 2198.21 Q407.704 2193.32 414.254 2193.32 Q416.014 2193.32 417.796 2193.67 Q419.602 2194.02 421.546 2194.71 Z" fill="#000000" fill-rule="nonzero" fill-opacity="1" /><path clip-path="url(#clip250)" d="M1174.21 2212.1 Q1170.88 2212.1 1168.96 2213.88 Q1167.06 2215.66 1167.06 2218.79 Q1167.06 2221.91 1168.96 2223.69 Q1170.88 2225.48 1174.21 2225.48 Q1177.55 2225.48 1179.47 2223.69 Q1181.39 2221.89 1181.39 2218.79 Q1181.39 2215.66 1179.47 2213.88 Q1177.57 2212.1 1174.21 2212.1 M1169.54 2210.11 Q1166.53 2209.36 1164.84 2207.3 Q1163.17 2205.24 1163.17 2202.28 Q1163.17 2198.14 1166.11 2195.73 Q1169.07 2193.32 1174.21 2193.32 Q1179.37 2193.32 1182.31 2195.73 Q1185.25 2198.14 1185.25 2202.28 Q1185.25 2205.24 1183.56 2207.3 Q1181.9 2209.36 1178.91 2210.11 Q1182.29 2210.89 1184.17 2213.18 Q1186.06 2215.48 1186.06 2218.79 Q1186.06 2223.81 1182.99 2226.49 Q1179.93 2229.18 1174.21 2229.18 Q1168.49 2229.18 1165.42 2226.49 Q1162.36 2223.81 1162.36 2218.79 Q1162.36 2215.48 1164.26 2213.18 Q1166.16 2210.89 1169.54 2210.11 M1167.82 2202.72 Q1167.82 2205.41 1169.49 2206.91 Q1171.18 2208.42 1174.21 2208.42 Q1177.22 2208.42 1178.91 2206.91 Q1180.62 2205.41 1180.62 2202.72 Q1180.62 2200.04 1178.91 2198.53 Q1177.22 2197.03 1174.21 2197.03 Q1171.18 2197.03 1169.49 2198.53 Q1167.82 2200.04 1167.82 2202.72 Z" fill="#000000" fill-rule="nonzero" fill-opacity="1" /><path clip-path="url(#clip250)" d="M1911.25 2224.57 L1918.89 2224.57 L1918.89 2198.21 L1910.58 2199.87 L1910.58 2195.61 L1918.85 2193.95 L1923.52 2193.95 L1923.52 2224.57 L1931.16 2224.57 L1931.16 2228.51 L1911.25 2228.51 L1911.25 2224.57 Z" fill="#000000" fill-rule="nonzero" fill-opacity="1" /><path clip-path="url(#clip250)" d="M1950.61 2197.03 Q1946.99 2197.03 1945.17 2200.59 Q1943.36 2204.13 1943.36 2211.26 Q1943.36 2218.37 1945.17 2221.93 Q1946.99 2225.48 1950.61 2225.48 Q1954.24 2225.48 1956.05 2221.93 Q1957.87 2218.37 1957.87 2211.26 Q1957.87 2204.13 1956.05 2200.59 Q1954.24 2197.03 1950.61 2197.03 M1950.61 2193.32 Q1956.42 2193.32 1959.47 2197.93 Q1962.55 2202.51 1962.55 2211.26 Q1962.55 2219.99 1959.47 2224.6 Q1956.42 2229.18 1950.61 2229.18 Q1944.8 2229.18 1941.72 2224.6 Q1938.66 2219.99 1938.66 2211.26 Q1938.66 2202.51 1941.72 2197.93 Q1944.8 2193.32 1950.61 2193.32 Z" fill="#000000" fill-rule="nonzero" fill-opacity="1" /><path clip-path="url(#clip250)" d="M2674.41 2224.57 L2682.04 2224.57 L2682.04 2198.21 L2673.73 2199.87 L2673.73 2195.61 L2682 2193.95 L2686.67 2193.95 L2686.67 2224.57 L2694.31 2224.57 L2694.31 2228.51 L2674.41 2228.51 L2674.41 2224.57 Z" fill="#000000" fill-rule="nonzero" fill-opacity="1" /><path clip-path="url(#clip250)" d="M2707.79 2224.57 L2724.1 2224.57 L2724.1 2228.51 L2702.16 2228.51 L2702.16 2224.57 Q2704.82 2221.82 2709.41 2217.19 Q2714.01 2212.54 2715.19 2211.19 Q2717.44 2208.67 2718.32 2206.93 Q2719.22 2205.17 2719.22 2203.48 Q2719.22 2200.73 2717.28 2198.99 Q2715.35 2197.26 2712.25 2197.26 Q2710.05 2197.26 2707.6 2198.02 Q2705.17 2198.79 2702.39 2200.34 L2702.39 2195.61 Q2705.22 2194.48 2707.67 2193.9 Q2710.12 2193.32 2712.16 2193.32 Q2717.53 2193.32 2720.73 2196.01 Q2723.92 2198.69 2723.92 2203.18 Q2723.92 2205.31 2723.11 2207.23 Q2722.32 2209.13 2720.22 2211.73 Q2719.64 2212.4 2716.54 2215.61 Q2713.43 2218.81 2707.79 2224.57 Z" fill="#000000" fill-rule="nonzero" fill-opacity="1" /><path clip-path="url(#clip250)" d="M3435.72 2224.57 L3443.36 2224.57 L3443.36 2198.21 L3435.05 2199.87 L3435.05 2195.61 L3443.31 2193.95 L3447.99 2193.95 L3447.99 2224.57 L3455.63 2224.57 L3455.63 2228.51 L3435.72 2228.51 L3435.72 2224.57 Z" fill="#000000" fill-rule="nonzero" fill-opacity="1" /><path clip-path="url(#clip250)" d="M3477.92 2198.02 L3466.11 2216.47 L3477.92 2216.47 L3477.92 2198.02 M3476.69 2193.95 L3482.57 2193.95 L3482.57 2216.47 L3487.5 2216.47 L3487.5 2220.36 L3482.57 2220.36 L3482.57 2228.51 L3477.92 2228.51 L3477.92 2220.36 L3462.32 2220.36 L3462.32 2215.85 L3476.69 2193.95 Z" fill="#000000" fill-rule="nonzero" fill-opacity="1" /><path clip-path="url(#clip250)" d="M1799.8 2270.99 L1805.65 2270.99 L1805.65 2314.19 L1799.8 2314.19 L1799.8 2270.99 Z" fill="#000000" fill-rule="nonzero" fill-opacity="1" /><path clip-path="url(#clip250)" d="M1822.32 2272.58 L1822.32 2281.78 L1833.28 2281.78 L1833.28 2285.92 L1822.32 2285.92 L1822.32 2303.51 Q1822.32 2307.47 1823.39 2308.6 Q1824.49 2309.73 1827.81 2309.73 L1833.28 2309.73 L1833.28 2314.19 L1827.81 2314.19 Q1821.65 2314.19 1819.31 2311.9 Q1816.96 2309.59 1816.96 2303.51 L1816.96 2285.92 L1813.06 2285.92 L1813.06 2281.78 L1816.96 2281.78 L1816.96 2272.58 L1822.32 2272.58 Z" fill="#000000" fill-rule="nonzero" fill-opacity="1" /><path clip-path="url(#clip250)" d="M1868 2296.65 L1868 2299.26 L1843.53 2299.26 Q1843.87 2304.75 1846.82 2307.65 Q1849.8 2310.51 1855.1 2310.51 Q1858.17 2310.51 1861.03 2309.76 Q1863.92 2309.01 1866.76 2307.5 L1866.76 2312.54 Q1863.9 2313.75 1860.89 2314.39 Q1857.88 2315.03 1854.78 2315.03 Q1847.03 2315.03 1842.48 2310.51 Q1837.97 2306 1837.97 2298.3 Q1837.97 2290.35 1842.25 2285.69 Q1846.56 2281 1853.86 2281 Q1860.39 2281 1864.19 2285.22 Q1868 2289.42 1868 2296.65 M1862.68 2295.09 Q1862.62 2290.72 1860.22 2288.12 Q1857.85 2285.51 1853.91 2285.51 Q1849.46 2285.51 1846.77 2288.03 Q1844.1 2290.55 1843.7 2295.12 L1862.68 2295.09 Z" fill="#000000" fill-rule="nonzero" fill-opacity="1" /><path clip-path="url(#clip250)" d="M1895.52 2286.76 Q1894.62 2286.24 1893.55 2286 Q1892.51 2285.74 1891.24 2285.74 Q1886.73 2285.74 1884.29 2288.7 Q1881.89 2291.62 1881.89 2297.12 L1881.89 2314.19 L1876.54 2314.19 L1876.54 2281.78 L1881.89 2281.78 L1881.89 2286.82 Q1883.57 2283.86 1886.26 2282.45 Q1888.95 2281 1892.8 2281 Q1893.35 2281 1894.02 2281.09 Q1894.68 2281.14 1895.49 2281.29 L1895.52 2286.76 Z" fill="#000000" fill-rule="nonzero" fill-opacity="1" /><path clip-path="url(#clip250)" d="M1915.83 2297.9 Q1909.38 2297.9 1906.89 2299.37 Q1904.4 2300.85 1904.4 2304.41 Q1904.4 2307.24 1906.26 2308.92 Q1908.14 2310.57 1911.35 2310.57 Q1915.78 2310.57 1918.44 2307.45 Q1921.13 2304.29 1921.13 2299.08 L1921.13 2297.9 L1915.83 2297.9 M1926.45 2295.7 L1926.45 2314.19 L1921.13 2314.19 L1921.13 2309.27 Q1919.31 2312.22 1916.59 2313.64 Q1913.87 2315.03 1909.93 2315.03 Q1904.95 2315.03 1902 2312.25 Q1899.08 2309.44 1899.08 2304.75 Q1899.08 2299.29 1902.73 2296.51 Q1906.4 2293.73 1913.66 2293.73 L1921.13 2293.73 L1921.13 2293.21 Q1921.13 2289.54 1918.7 2287.54 Q1916.3 2285.51 1911.93 2285.51 Q1909.15 2285.51 1906.52 2286.18 Q1903.88 2286.84 1901.45 2288.18 L1901.45 2283.26 Q1904.38 2282.13 1907.12 2281.58 Q1909.87 2281 1912.48 2281 Q1919.51 2281 1922.98 2284.65 Q1926.45 2288.29 1926.45 2295.7 Z" fill="#000000" fill-rule="nonzero" fill-opacity="1" /><path clip-path="url(#clip250)" d="M1942.69 2272.58 L1942.69 2281.78 L1953.65 2281.78 L1953.65 2285.92 L1942.69 2285.92 L1942.69 2303.51 Q1942.69 2307.47 1943.76 2308.6 Q1944.86 2309.73 1948.18 2309.73 L1953.65 2309.73 L1953.65 2314.19 L1948.18 2314.19 Q1942.02 2314.19 1939.68 2311.9 Q1937.33 2309.59 1937.33 2303.51 L1937.33 2285.92 L1933.43 2285.92 L1933.43 2281.78 L1937.33 2281.78 L1937.33 2272.58 L1942.69 2272.58 Z" fill="#000000" fill-rule="nonzero" fill-opacity="1" /><path clip-path="url(#clip250)" d="M1960.65 2281.78 L1965.98 2281.78 L1965.98 2314.19 L1960.65 2314.19 L1960.65 2281.78 M1960.65 2269.16 L1965.98 2269.16 L1965.98 2275.91 L1960.65 2275.91 L1960.65 2269.16 Z" fill="#000000" fill-rule="nonzero" fill-opacity="1" /><path clip-path="url(#clip250)" d="M1989.68 2285.51 Q1985.39 2285.51 1982.91 2288.87 Q1980.42 2292.2 1980.42 2298.01 Q1980.42 2303.83 1982.88 2307.19 Q1985.36 2310.51 1989.68 2310.51 Q1993.93 2310.51 1996.42 2307.16 Q1998.91 2303.8 1998.91 2298.01 Q1998.91 2292.25 1996.42 2288.9 Q1993.93 2285.51 1989.68 2285.51 M1989.68 2281 Q1996.62 2281 2000.58 2285.51 Q2004.55 2290.03 2004.55 2298.01 Q2004.55 2305.97 2000.58 2310.51 Q1996.62 2315.03 1989.68 2315.03 Q1982.7 2315.03 1978.74 2310.51 Q1974.8 2305.97 1974.8 2298.01 Q1974.8 2290.03 1978.74 2285.51 Q1982.7 2281 1989.68 2281 Z" fill="#000000" fill-rule="nonzero" fill-opacity="1" /><path clip-path="url(#clip250)" d="M2040.31 2294.63 L2040.31 2314.19 L2034.99 2314.19 L2034.99 2294.8 Q2034.99 2290.2 2033.19 2287.91 Q2031.4 2285.63 2027.81 2285.63 Q2023.5 2285.63 2021.01 2288.38 Q2018.52 2291.13 2018.52 2295.87 L2018.52 2314.19 L2013.17 2314.19 L2013.17 2281.78 L2018.52 2281.78 L2018.52 2286.82 Q2020.43 2283.89 2023.01 2282.45 Q2025.61 2281 2029 2281 Q2034.58 2281 2037.45 2284.47 Q2040.31 2287.91 2040.31 2294.63 Z" fill="#000000" fill-rule="nonzero" fill-opacity="1" /><path clip-path="url(#clip250)" d="M2071.59 2282.74 L2071.59 2287.77 Q2069.33 2286.61 2066.9 2286.03 Q2064.47 2285.46 2061.87 2285.46 Q2057.91 2285.46 2055.91 2286.67 Q2053.94 2287.89 2053.94 2290.32 Q2053.94 2292.17 2055.36 2293.24 Q2056.78 2294.28 2061.06 2295.24 L2062.88 2295.64 Q2068.55 2296.86 2070.93 2299.08 Q2073.33 2301.28 2073.33 2305.25 Q2073.33 2309.76 2069.74 2312.39 Q2066.18 2315.03 2059.93 2315.03 Q2057.33 2315.03 2054.49 2314.51 Q2051.68 2314.01 2048.56 2313 L2048.56 2307.5 Q2051.51 2309.04 2054.38 2309.82 Q2057.24 2310.57 2060.05 2310.57 Q2063.81 2310.57 2065.83 2309.3 Q2067.86 2308 2067.86 2305.65 Q2067.86 2303.48 2066.38 2302.32 Q2064.94 2301.17 2059.99 2300.1 L2058.14 2299.66 Q2053.19 2298.62 2050.99 2296.48 Q2048.79 2294.31 2048.79 2290.55 Q2048.79 2285.98 2052.03 2283.49 Q2055.27 2281 2061.23 2281 Q2064.18 2281 2066.79 2281.43 Q2069.39 2281.87 2071.59 2282.74 Z" fill="#000000" fill-rule="nonzero" fill-opacity="1" /><polyline clip-path="url(#clip250)" style="stroke:#000000; stroke-linecap:round; stroke-linejoin:round; stroke-width:4; stroke-opacity:1; fill:none" points="320.376,2156.51 320.376,246.944 "/>
<polyline clip-path="url(#clip250)" style="stroke:#000000; stroke-linecap:round; stroke-linejoin:round; stroke-width:4; stroke-opacity:1; fill:none" points="320.376,1850.4 339.274,1850.4 "/>
<polyline clip-path="url(#clip250)" style="stroke:#000000; stroke-linecap:round; stroke-linejoin:round; stroke-width:4; stroke-opacity:1; fill:none" points="320.376,1501.73 339.274,1501.73 "/>
<polyline clip-path="url(#clip250)" style="stroke:#000000; stroke-linecap:round; stroke-linejoin:round; stroke-width:4; stroke-opacity:1; fill:none" points="320.376,1153.05 339.274,1153.05 "/>
<polyline clip-path="url(#clip250)" style="stroke:#000000; stroke-linecap:round; stroke-linejoin:round; stroke-width:4; stroke-opacity:1; fill:none" points="320.376,804.378 339.274,804.378 "/>
<polyline clip-path="url(#clip250)" style="stroke:#000000; stroke-linecap:round; stroke-linejoin:round; stroke-width:4; stroke-opacity:1; fill:none" points="320.376,455.703 339.274,455.703 "/>
<path clip-path="url(#clip250)" d="M179.687 1836.2 Q176.076 1836.2 174.247 1839.77 Q172.442 1843.31 172.442 1850.44 Q172.442 1857.54 174.247 1861.11 Q176.076 1864.65 179.687 1864.65 Q183.321 1864.65 185.127 1861.11 Q186.955 1857.54 186.955 1850.44 Q186.955 1843.31 185.127 1839.77 Q183.321 1836.2 179.687 1836.2 M179.687 1832.5 Q185.497 1832.5 188.553 1837.1 Q191.631 1841.69 191.631 1850.44 Q191.631 1859.17 188.553 1863.77 Q185.497 1868.35 179.687 1868.35 Q173.877 1868.35 170.798 1863.77 Q167.742 1859.17 167.742 1850.44 Q167.742 1841.69 170.798 1837.1 Q173.877 1832.5 179.687 1832.5 Z" fill="#000000" fill-rule="nonzero" fill-opacity="1" /><path clip-path="url(#clip250)" d="M199.849 1861.8 L204.733 1861.8 L204.733 1867.68 L199.849 1867.68 L199.849 1861.8 Z" fill="#000000" fill-rule="nonzero" fill-opacity="1" /><path clip-path="url(#clip250)" d="M224.918 1836.2 Q221.307 1836.2 219.478 1839.77 Q217.673 1843.31 217.673 1850.44 Q217.673 1857.54 219.478 1861.11 Q221.307 1864.65 224.918 1864.65 Q228.552 1864.65 230.358 1861.11 Q232.187 1857.54 232.187 1850.44 Q232.187 1843.31 230.358 1839.77 Q228.552 1836.2 224.918 1836.2 M224.918 1832.5 Q230.728 1832.5 233.784 1837.1 Q236.862 1841.69 236.862 1850.44 Q236.862 1859.17 233.784 1863.77 Q230.728 1868.35 224.918 1868.35 Q219.108 1868.35 216.029 1863.77 Q212.974 1859.17 212.974 1850.44 Q212.974 1841.69 216.029 1837.1 Q219.108 1832.5 224.918 1832.5 Z" fill="#000000" fill-rule="nonzero" fill-opacity="1" /><path clip-path="url(#clip250)" d="M259.247 1849.05 Q262.603 1849.77 264.478 1852.04 Q266.376 1854.3 266.376 1857.64 Q266.376 1862.75 262.858 1865.55 Q259.339 1868.35 252.858 1868.35 Q250.682 1868.35 248.367 1867.92 Q246.075 1867.5 243.622 1866.64 L243.622 1862.13 Q245.566 1863.26 247.881 1863.84 Q250.196 1864.42 252.719 1864.42 Q257.117 1864.42 259.409 1862.68 Q261.723 1860.95 261.723 1857.64 Q261.723 1854.58 259.571 1852.87 Q257.441 1851.13 253.622 1851.13 L249.594 1851.13 L249.594 1847.29 L253.807 1847.29 Q257.256 1847.29 259.085 1845.92 Q260.913 1844.54 260.913 1841.94 Q260.913 1839.28 259.015 1837.87 Q257.14 1836.43 253.622 1836.43 Q251.7 1836.43 249.501 1836.85 Q247.302 1837.27 244.663 1838.15 L244.663 1833.98 Q247.325 1833.24 249.64 1832.87 Q251.978 1832.5 254.038 1832.5 Q259.362 1832.5 262.464 1834.93 Q265.566 1837.34 265.566 1841.46 Q265.566 1844.33 263.923 1846.32 Q262.279 1848.29 259.247 1849.05 Z" fill="#000000" fill-rule="nonzero" fill-opacity="1" /><path clip-path="url(#clip250)" d="M178.877 1487.53 Q175.266 1487.53 173.437 1491.09 Q171.631 1494.63 171.631 1501.76 Q171.631 1508.87 173.437 1512.43 Q175.266 1515.98 178.877 1515.98 Q182.511 1515.98 184.316 1512.43 Q186.145 1508.87 186.145 1501.76 Q186.145 1494.63 184.316 1491.09 Q182.511 1487.53 178.877 1487.53 M178.877 1483.82 Q184.687 1483.82 187.742 1488.43 Q190.821 1493.01 190.821 1501.76 Q190.821 1510.49 187.742 1515.1 Q184.687 1519.68 178.877 1519.68 Q173.067 1519.68 169.988 1515.1 Q166.932 1510.49 166.932 1501.76 Q166.932 1493.01 169.988 1488.43 Q173.067 1483.82 178.877 1483.82 Z" fill="#000000" fill-rule="nonzero" fill-opacity="1" /><path clip-path="url(#clip250)" d="M199.039 1513.13 L203.923 1513.13 L203.923 1519.01 L199.039 1519.01 L199.039 1513.13 Z" fill="#000000" fill-rule="nonzero" fill-opacity="1" /><path clip-path="url(#clip250)" d="M224.108 1487.53 Q220.497 1487.53 218.668 1491.09 Q216.863 1494.63 216.863 1501.76 Q216.863 1508.87 218.668 1512.43 Q220.497 1515.98 224.108 1515.98 Q227.742 1515.98 229.548 1512.43 Q231.376 1508.87 231.376 1501.76 Q231.376 1494.63 229.548 1491.09 Q227.742 1487.53 224.108 1487.53 M224.108 1483.82 Q229.918 1483.82 232.974 1488.43 Q236.052 1493.01 236.052 1501.76 Q236.052 1510.49 232.974 1515.1 Q229.918 1519.68 224.108 1519.68 Q218.298 1519.68 215.219 1515.1 Q212.164 1510.49 212.164 1501.76 Q212.164 1493.01 215.219 1488.43 Q218.298 1483.82 224.108 1483.82 Z" fill="#000000" fill-rule="nonzero" fill-opacity="1" /><path clip-path="url(#clip250)" d="M254.848 1499.86 Q251.7 1499.86 249.849 1502.02 Q248.02 1504.17 248.02 1507.92 Q248.02 1511.65 249.849 1513.82 Q251.7 1515.98 254.848 1515.98 Q257.997 1515.98 259.825 1513.82 Q261.677 1511.65 261.677 1507.92 Q261.677 1504.17 259.825 1502.02 Q257.997 1499.86 254.848 1499.86 M264.131 1485.21 L264.131 1489.47 Q262.372 1488.64 260.566 1488.2 Q258.784 1487.76 257.024 1487.76 Q252.395 1487.76 249.941 1490.88 Q247.511 1494.01 247.163 1500.33 Q248.529 1498.31 250.589 1497.25 Q252.649 1496.16 255.126 1496.16 Q260.335 1496.16 263.344 1499.33 Q266.376 1502.48 266.376 1507.92 Q266.376 1513.24 263.228 1516.46 Q260.08 1519.68 254.848 1519.68 Q248.853 1519.68 245.682 1515.1 Q242.511 1510.49 242.511 1501.76 Q242.511 1493.57 246.399 1488.71 Q250.288 1483.82 256.839 1483.82 Q258.598 1483.82 260.381 1484.17 Q262.186 1484.52 264.131 1485.21 Z" fill="#000000" fill-rule="nonzero" fill-opacity="1" /><path clip-path="url(#clip250)" d="M179.224 1138.85 Q175.613 1138.85 173.784 1142.42 Q171.979 1145.96 171.979 1153.09 Q171.979 1160.19 173.784 1163.76 Q175.613 1167.3 179.224 1167.3 Q182.858 1167.3 184.664 1163.76 Q186.492 1160.19 186.492 1153.09 Q186.492 1145.96 184.664 1142.42 Q182.858 1138.85 179.224 1138.85 M179.224 1135.15 Q185.034 1135.15 188.09 1139.75 Q191.168 1144.34 191.168 1153.09 Q191.168 1161.81 188.09 1166.42 Q185.034 1171 179.224 1171 Q173.414 1171 170.335 1166.42 Q167.28 1161.81 167.28 1153.09 Q167.28 1144.34 170.335 1139.75 Q173.414 1135.15 179.224 1135.15 Z" fill="#000000" fill-rule="nonzero" fill-opacity="1" /><path clip-path="url(#clip250)" d="M199.386 1164.45 L204.27 1164.45 L204.27 1170.33 L199.386 1170.33 L199.386 1164.45 Z" fill="#000000" fill-rule="nonzero" fill-opacity="1" /><path clip-path="url(#clip250)" d="M224.455 1138.85 Q220.844 1138.85 219.015 1142.42 Q217.21 1145.96 217.21 1153.09 Q217.21 1160.19 219.015 1163.76 Q220.844 1167.3 224.455 1167.3 Q228.089 1167.3 229.895 1163.76 Q231.724 1160.19 231.724 1153.09 Q231.724 1145.96 229.895 1142.42 Q228.089 1138.85 224.455 1138.85 M224.455 1135.15 Q230.265 1135.15 233.321 1139.75 Q236.4 1144.34 236.4 1153.09 Q236.4 1161.81 233.321 1166.42 Q230.265 1171 224.455 1171 Q218.645 1171 215.566 1166.42 Q212.511 1161.81 212.511 1153.09 Q212.511 1144.34 215.566 1139.75 Q218.645 1135.15 224.455 1135.15 Z" fill="#000000" fill-rule="nonzero" fill-opacity="1" /><path clip-path="url(#clip250)" d="M244.756 1169.62 L244.756 1165.36 Q246.515 1166.19 248.321 1166.63 Q250.126 1167.07 251.862 1167.07 Q256.492 1167.07 258.923 1163.97 Q261.376 1160.84 261.723 1154.5 Q260.381 1156.49 258.321 1157.56 Q256.261 1158.62 253.761 1158.62 Q248.575 1158.62 245.543 1155.5 Q242.534 1152.35 242.534 1146.91 Q242.534 1141.58 245.682 1138.37 Q248.83 1135.15 254.061 1135.15 Q260.057 1135.15 263.205 1139.75 Q266.376 1144.34 266.376 1153.09 Q266.376 1161.26 262.487 1166.14 Q258.622 1171 252.071 1171 Q250.311 1171 248.506 1170.66 Q246.7 1170.31 244.756 1169.62 M254.061 1154.96 Q257.21 1154.96 259.038 1152.81 Q260.89 1150.66 260.89 1146.91 Q260.89 1143.18 259.038 1141.03 Q257.21 1138.85 254.061 1138.85 Q250.913 1138.85 249.061 1141.03 Q247.233 1143.18 247.233 1146.91 Q247.233 1150.66 249.061 1152.81 Q250.913 1154.96 254.061 1154.96 Z" fill="#000000" fill-rule="nonzero" fill-opacity="1" /><path clip-path="url(#clip250)" d="M180.636 790.177 Q177.025 790.177 175.196 793.741 Q173.391 797.283 173.391 804.413 Q173.391 811.519 175.196 815.084 Q177.025 818.626 180.636 818.626 Q184.27 818.626 186.076 815.084 Q187.904 811.519 187.904 804.413 Q187.904 797.283 186.076 793.741 Q184.27 790.177 180.636 790.177 M180.636 786.473 Q186.446 786.473 189.502 791.079 Q192.58 795.663 192.58 804.413 Q192.58 813.14 189.502 817.746 Q186.446 822.329 180.636 822.329 Q174.826 822.329 171.747 817.746 Q168.692 813.14 168.692 804.413 Q168.692 795.663 171.747 791.079 Q174.826 786.473 180.636 786.473 Z" fill="#000000" fill-rule="nonzero" fill-opacity="1" /><path clip-path="url(#clip250)" d="M200.798 815.778 L205.682 815.778 L205.682 821.658 L200.798 821.658 L200.798 815.778 Z" fill="#000000" fill-rule="nonzero" fill-opacity="1" /><path clip-path="url(#clip250)" d="M216.677 817.723 L224.316 817.723 L224.316 791.357 L216.006 793.024 L216.006 788.765 L224.27 787.098 L228.946 787.098 L228.946 817.723 L236.585 817.723 L236.585 821.658 L216.677 821.658 L216.677 817.723 Z" fill="#000000" fill-rule="nonzero" fill-opacity="1" /><path clip-path="url(#clip250)" d="M250.057 817.723 L266.376 817.723 L266.376 821.658 L244.432 821.658 L244.432 817.723 Q247.094 814.968 251.677 810.339 Q256.284 805.686 257.464 804.343 Q259.71 801.82 260.589 800.084 Q261.492 798.325 261.492 796.635 Q261.492 793.88 259.548 792.144 Q257.626 790.408 254.524 790.408 Q252.325 790.408 249.872 791.172 Q247.441 791.936 244.663 793.487 L244.663 788.765 Q247.487 787.63 249.941 787.052 Q252.395 786.473 254.432 786.473 Q259.802 786.473 262.997 789.158 Q266.191 791.843 266.191 796.334 Q266.191 798.464 265.381 800.385 Q264.594 802.283 262.487 804.876 Q261.909 805.547 258.807 808.765 Q255.705 811.959 250.057 817.723 Z" fill="#000000" fill-rule="nonzero" fill-opacity="1" /><path clip-path="url(#clip250)" d="M180.034 441.502 Q176.423 441.502 174.594 445.066 Q172.789 448.608 172.789 455.738 Q172.789 462.844 174.594 466.409 Q176.423 469.95 180.034 469.95 Q183.668 469.95 185.474 466.409 Q187.303 462.844 187.303 455.738 Q187.303 448.608 185.474 445.066 Q183.668 441.502 180.034 441.502 M180.034 437.798 Q185.844 437.798 188.9 442.404 Q191.978 446.988 191.978 455.738 Q191.978 464.464 188.9 469.071 Q185.844 473.654 180.034 473.654 Q174.224 473.654 171.145 469.071 Q168.09 464.464 168.09 455.738 Q168.09 446.988 171.145 442.404 Q174.224 437.798 180.034 437.798 Z" fill="#000000" fill-rule="nonzero" fill-opacity="1" /><path clip-path="url(#clip250)" d="M200.196 467.103 L205.08 467.103 L205.08 472.983 L200.196 472.983 L200.196 467.103 Z" fill="#000000" fill-rule="nonzero" fill-opacity="1" /><path clip-path="url(#clip250)" d="M216.076 469.048 L223.714 469.048 L223.714 442.682 L215.404 444.349 L215.404 440.089 L223.668 438.423 L228.344 438.423 L228.344 469.048 L235.983 469.048 L235.983 472.983 L216.076 472.983 L216.076 469.048 Z" fill="#000000" fill-rule="nonzero" fill-opacity="1" /><path clip-path="url(#clip250)" d="M245.474 438.423 L263.83 438.423 L263.83 442.358 L249.756 442.358 L249.756 450.83 Q250.774 450.483 251.793 450.321 Q252.811 450.136 253.83 450.136 Q259.617 450.136 262.997 453.307 Q266.376 456.478 266.376 461.895 Q266.376 467.474 262.904 470.575 Q259.432 473.654 253.112 473.654 Q250.936 473.654 248.668 473.284 Q246.423 472.913 244.015 472.173 L244.015 467.474 Q246.099 468.608 248.321 469.163 Q250.543 469.719 253.02 469.719 Q257.024 469.719 259.362 467.612 Q261.7 465.506 261.7 461.895 Q261.7 458.284 259.362 456.177 Q257.024 454.071 253.02 454.071 Q251.145 454.071 249.27 454.488 Q247.418 454.904 245.474 455.784 L245.474 438.423 Z" fill="#000000" fill-rule="nonzero" fill-opacity="1" /><path clip-path="url(#clip250)" d="M60.0998 1347.25 L66.263 1347.25 Q63.5141 1350.21 62.1542 1353.56 Q60.7943 1356.89 60.7943 1360.65 Q60.7943 1368.06 65.3371 1371.99 Q69.8509 1375.93 78.4157 1375.93 Q86.9515 1375.93 91.4943 1371.99 Q96.0082 1368.06 96.0082 1360.65 Q96.0082 1356.89 94.6482 1353.56 Q93.2883 1350.21 90.5395 1347.25 L96.6448 1347.25 Q98.7281 1350.32 99.7697 1353.77 Q100.811 1357.18 100.811 1361 Q100.811 1370.81 94.8218 1376.45 Q88.8034 1382.09 78.4157 1382.09 Q67.9991 1382.09 62.0095 1376.45 Q55.991 1370.81 55.991 1361 Q55.991 1357.12 57.0327 1353.71 Q58.0454 1350.26 60.0998 1347.25 Z" fill="#000000" fill-rule="nonzero" fill-opacity="1" /><path clip-path="url(#clip250)" d="M61.5755 1332.38 L77.8081 1332.38 L77.8081 1325.03 Q77.8081 1320.95 75.6958 1318.72 Q73.5835 1316.5 69.6773 1316.5 Q65.8 1316.5 63.6878 1318.72 Q61.5755 1320.95 61.5755 1325.03 L61.5755 1332.38 M56.7723 1338.23 L56.7723 1325.03 Q56.7723 1317.77 60.0709 1314.07 Q63.3405 1310.33 69.6773 1310.33 Q76.0719 1310.33 79.3416 1314.07 Q82.6113 1317.77 82.6113 1325.03 L82.6113 1332.38 L99.9723 1332.38 L99.9723 1338.23 L56.7723 1338.23 Z" fill="#000000" fill-rule="nonzero" fill-opacity="1" /><path clip-path="url(#clip250)" d="M56.7723 1303.16 L56.7723 1297.28 L83.0164 1297.28 Q89.9608 1297.28 93.0279 1294.77 Q96.0661 1292.25 96.0661 1286.61 Q96.0661 1280.99 93.0279 1278.48 Q89.9608 1275.96 83.0164 1275.96 L56.7723 1275.96 L56.7723 1270.08 L83.7397 1270.08 Q92.1888 1270.08 96.5001 1274.28 Q100.811 1278.45 100.811 1286.61 Q100.811 1294.8 96.5001 1298.99 Q92.1888 1303.16 83.7397 1303.16 L56.7723 1303.16 Z" fill="#000000" fill-rule="nonzero" fill-opacity="1" /><path clip-path="url(#clip250)" d="M58.3637 1235.25 L67.565 1235.25 L67.565 1224.28 L71.7028 1224.28 L71.7028 1235.25 L89.2953 1235.25 Q93.2594 1235.25 94.3878 1234.18 Q95.5163 1233.08 95.5163 1229.75 L95.5163 1224.28 L99.9723 1224.28 L99.9723 1229.75 Q99.9723 1235.91 97.6864 1238.26 Q95.3716 1240.6 89.2953 1240.6 L71.7028 1240.6 L71.7028 1244.51 L67.565 1244.51 L67.565 1240.6 L58.3637 1240.6 L58.3637 1235.25 Z" fill="#000000" fill-rule="nonzero" fill-opacity="1" /><path clip-path="url(#clip250)" d="M67.565 1217.28 L67.565 1211.95 L99.9723 1211.95 L99.9723 1217.28 L67.565 1217.28 M54.9494 1217.28 L54.9494 1211.95 L61.6912 1211.95 L61.6912 1217.28 L54.9494 1217.28 Z" fill="#000000" fill-rule="nonzero" fill-opacity="1" /><path clip-path="url(#clip250)" d="M73.7861 1175.58 Q70.1981 1173.59 68.491 1170.81 Q66.7838 1168.03 66.7838 1164.27 Q66.7838 1159.21 70.3428 1156.46 Q73.8729 1153.71 80.4122 1153.71 L99.9723 1153.71 L99.9723 1159.06 L80.5858 1159.06 Q75.9273 1159.06 73.6703 1160.71 Q71.4134 1162.36 71.4134 1165.75 Q71.4134 1169.88 74.1622 1172.28 Q76.9111 1174.69 81.6564 1174.69 L99.9723 1174.69 L99.9723 1180.04 L80.5858 1180.04 Q75.8983 1180.04 73.6703 1181.69 Q71.4134 1183.34 71.4134 1186.78 Q71.4134 1190.86 74.1912 1193.26 Q76.94 1195.66 81.6564 1195.66 L99.9723 1195.66 L99.9723 1201.02 L67.565 1201.02 L67.565 1195.66 L72.5997 1195.66 Q69.6194 1193.84 68.2016 1191.29 Q66.7838 1188.75 66.7838 1185.25 Q66.7838 1181.72 68.5778 1179.26 Q70.3717 1176.77 73.7861 1175.58 Z" fill="#000000" fill-rule="nonzero" fill-opacity="1" /><path clip-path="url(#clip250)" d="M82.4377 1115.37 L85.0418 1115.37 L85.0418 1139.85 Q90.5395 1139.5 93.433 1136.55 Q96.2975 1133.57 96.2975 1128.27 Q96.2975 1125.21 95.5452 1122.34 Q94.7929 1119.45 93.2883 1116.61 L98.323 1116.61 Q99.5383 1119.48 100.175 1122.49 Q100.811 1125.5 100.811 1128.59 Q100.811 1136.35 96.2975 1140.89 Q91.7837 1145.4 84.087 1145.4 Q76.1298 1145.4 71.4713 1141.12 Q66.7838 1136.81 66.7838 1129.52 Q66.7838 1122.98 71.0083 1119.19 Q75.2039 1115.37 82.4377 1115.37 M80.8752 1120.69 Q76.506 1120.75 73.9018 1123.15 Q71.2977 1125.53 71.2977 1129.46 Q71.2977 1133.92 73.815 1136.61 Q76.3324 1139.27 80.9041 1139.67 L80.8752 1120.69 Z" fill="#000000" fill-rule="nonzero" fill-opacity="1" /><path clip-path="url(#clip250)" d="M55.0072 1075.01 Q61.6623 1078.88 68.1727 1080.76 Q74.6831 1082.64 81.3671 1082.64 Q88.0511 1082.64 94.6193 1080.76 Q101.159 1078.85 107.785 1075.01 L107.785 1079.63 Q100.985 1083.97 94.4168 1086.15 Q87.8485 1088.29 81.3671 1088.29 Q74.9145 1088.29 68.3752 1086.15 Q61.8359 1084 55.0072 1079.63 L55.0072 1075.01 Z" fill="#000000" fill-rule="nonzero" fill-opacity="1" /><path clip-path="url(#clip250)" d="M68.5199 1044.02 L73.5546 1044.02 Q72.3972 1046.27 71.8185 1048.7 Q71.2398 1051.13 71.2398 1053.74 Q71.2398 1057.7 72.4551 1059.7 Q73.6703 1061.67 76.1009 1061.67 Q77.9527 1061.67 79.0233 1060.25 Q80.065 1058.83 81.0198 1054.55 L81.4249 1052.73 Q82.6402 1047.05 84.8682 1044.68 Q87.0673 1042.28 91.0314 1042.28 Q95.5452 1042.28 98.1783 1045.87 Q100.811 1049.43 100.811 1055.68 Q100.811 1058.28 100.291 1061.12 Q99.7987 1063.92 98.7859 1067.05 L93.2883 1067.05 Q94.8218 1064.1 95.6031 1061.23 Q96.3554 1058.37 96.3554 1055.56 Q96.3554 1051.8 95.0823 1049.77 Q93.7802 1047.75 91.4364 1047.75 Q89.2663 1047.75 88.1089 1049.22 Q86.9515 1050.67 85.8809 1055.62 L85.4469 1057.47 Q84.4052 1062.42 82.264 1064.62 Q80.0939 1066.82 76.3324 1066.82 Q71.7606 1066.82 69.2722 1063.58 Q66.7838 1060.33 66.7838 1054.37 Q66.7838 1051.42 67.2178 1048.82 Q67.6519 1046.21 68.5199 1044.02 Z" fill="#000000" fill-rule="nonzero" fill-opacity="1" /><path clip-path="url(#clip250)" d="M55.0072 1034.64 L55.0072 1030.01 Q61.8359 1025.67 68.3752 1023.53 Q74.9145 1021.36 81.3671 1021.36 Q87.8485 1021.36 94.4168 1023.53 Q100.985 1025.67 107.785 1030.01 L107.785 1034.64 Q101.159 1030.79 94.6193 1028.91 Q88.0511 1027 81.3671 1027 Q74.6831 1027 68.1727 1028.91 Q61.6623 1030.79 55.0072 1034.64 Z" fill="#000000" fill-rule="nonzero" fill-opacity="1" /><path clip-path="url(#clip250)" d="M1302.64 123.984 L1310.82 123.984 L1310.82 184.464 L1302.64 184.464 L1302.64 123.984 Z" fill="#000000" fill-rule="nonzero" fill-opacity="1" /><path clip-path="url(#clip250)" d="M1334.16 126.212 L1334.16 139.094 L1349.51 139.094 L1349.51 144.887 L1334.16 144.887 L1334.16 169.516 Q1334.16 175.066 1335.65 176.646 Q1337.19 178.226 1341.85 178.226 L1349.51 178.226 L1349.51 184.464 L1341.85 184.464 Q1333.22 184.464 1329.94 181.264 Q1326.66 178.023 1326.66 169.516 L1326.66 144.887 L1321.19 144.887 L1321.19 139.094 L1326.66 139.094 L1326.66 126.212 L1334.16 126.212 Z" fill="#000000" fill-rule="nonzero" fill-opacity="1" /><path clip-path="url(#clip250)" d="M1398.12 159.916 L1398.12 163.561 L1363.85 163.561 Q1364.34 171.258 1368.47 175.309 Q1372.64 179.319 1380.05 179.319 Q1384.35 179.319 1388.36 178.266 Q1392.41 177.213 1396.38 175.106 L1396.38 182.155 Q1392.37 183.856 1388.15 184.748 Q1383.94 185.639 1379.61 185.639 Q1368.75 185.639 1362.39 179.319 Q1356.07 173 1356.07 162.225 Q1356.07 151.085 1362.07 144.563 Q1368.1 138 1378.31 138 Q1387.47 138 1392.77 143.914 Q1398.12 149.788 1398.12 159.916 M1390.67 157.728 Q1390.59 151.611 1387.22 147.965 Q1383.9 144.32 1378.39 144.32 Q1372.15 144.32 1368.39 147.844 Q1364.66 151.368 1364.09 157.769 L1390.67 157.728 Z" fill="#000000" fill-rule="nonzero" fill-opacity="1" /><path clip-path="url(#clip250)" d="M1436.64 146.061 Q1435.39 145.332 1433.89 145.008 Q1432.43 144.644 1430.65 144.644 Q1424.33 144.644 1420.93 148.776 Q1417.56 152.867 1417.56 160.564 L1417.56 184.464 L1410.07 184.464 L1410.07 139.094 L1417.56 139.094 L1417.56 146.142 Q1419.91 142.011 1423.68 140.026 Q1427.45 138 1432.84 138 Q1433.61 138 1434.54 138.122 Q1435.47 138.203 1436.6 138.405 L1436.64 146.061 Z" fill="#000000" fill-rule="nonzero" fill-opacity="1" /><path clip-path="url(#clip250)" d="M1465.08 161.657 Q1456.05 161.657 1452.56 163.723 Q1449.08 165.789 1449.08 170.772 Q1449.08 174.742 1451.67 177.091 Q1454.31 179.4 1458.8 179.4 Q1465 179.4 1468.73 175.025 Q1472.49 170.61 1472.49 163.318 L1472.49 161.657 L1465.08 161.657 M1479.95 158.579 L1479.95 184.464 L1472.49 184.464 L1472.49 177.577 Q1469.94 181.709 1466.13 183.694 Q1462.33 185.639 1456.82 185.639 Q1449.85 185.639 1445.72 181.75 Q1441.63 177.821 1441.63 171.258 Q1441.63 163.602 1446.73 159.713 Q1451.88 155.824 1462.04 155.824 L1472.49 155.824 L1472.49 155.095 Q1472.49 149.95 1469.09 147.155 Q1465.73 144.32 1459.61 144.32 Q1455.72 144.32 1452.04 145.251 Q1448.35 146.183 1444.95 148.046 L1444.95 141.16 Q1449.04 139.58 1452.89 138.81 Q1456.74 138 1460.38 138 Q1470.23 138 1475.09 143.104 Q1479.95 148.208 1479.95 158.579 Z" fill="#000000" fill-rule="nonzero" fill-opacity="1" /><path clip-path="url(#clip250)" d="M1502.67 126.212 L1502.67 139.094 L1518.03 139.094 L1518.03 144.887 L1502.67 144.887 L1502.67 169.516 Q1502.67 175.066 1504.17 176.646 Q1505.71 178.226 1510.37 178.226 L1518.03 178.226 L1518.03 184.464 L1510.37 184.464 Q1501.74 184.464 1498.46 181.264 Q1495.18 178.023 1495.18 169.516 L1495.18 144.887 L1489.71 144.887 L1489.71 139.094 L1495.18 139.094 L1495.18 126.212 L1502.67 126.212 Z" fill="#000000" fill-rule="nonzero" fill-opacity="1" /><path clip-path="url(#clip250)" d="M1527.83 139.094 L1535.28 139.094 L1535.28 184.464 L1527.83 184.464 L1527.83 139.094 M1527.83 121.432 L1535.28 121.432 L1535.28 130.871 L1527.83 130.871 L1527.83 121.432 Z" fill="#000000" fill-rule="nonzero" fill-opacity="1" /><path clip-path="url(#clip250)" d="M1568.46 144.32 Q1562.47 144.32 1558.98 149.019 Q1555.5 153.677 1555.5 161.819 Q1555.5 169.962 1558.94 174.661 Q1562.42 179.319 1568.46 179.319 Q1574.42 179.319 1577.9 174.62 Q1581.38 169.921 1581.38 161.819 Q1581.38 153.758 1577.9 149.059 Q1574.42 144.32 1568.46 144.32 M1568.46 138 Q1578.18 138 1583.73 144.32 Q1589.28 150.639 1589.28 161.819 Q1589.28 172.959 1583.73 179.319 Q1578.18 185.639 1568.46 185.639 Q1558.7 185.639 1553.15 179.319 Q1547.64 172.959 1547.64 161.819 Q1547.64 150.639 1553.15 144.32 Q1558.7 138 1568.46 138 Z" fill="#000000" fill-rule="nonzero" fill-opacity="1" /><path clip-path="url(#clip250)" d="M1639.35 157.08 L1639.35 184.464 L1631.9 184.464 L1631.9 157.323 Q1631.9 150.882 1629.39 147.682 Q1626.87 144.482 1621.85 144.482 Q1615.82 144.482 1612.33 148.33 Q1608.85 152.178 1608.85 158.822 L1608.85 184.464 L1601.35 184.464 L1601.35 139.094 L1608.85 139.094 L1608.85 146.142 Q1611.52 142.051 1615.13 140.026 Q1618.77 138 1623.51 138 Q1631.33 138 1635.34 142.861 Q1639.35 147.682 1639.35 157.08 Z" fill="#000000" fill-rule="nonzero" fill-opacity="1" /><path clip-path="url(#clip250)" d="M1683.14 140.431 L1683.14 147.479 Q1679.98 145.859 1676.58 145.049 Q1673.18 144.239 1669.53 144.239 Q1663.98 144.239 1661.19 145.94 Q1658.43 147.641 1658.43 151.044 Q1658.43 153.637 1660.42 155.135 Q1662.4 156.594 1668.4 157.931 L1670.95 158.498 Q1678.89 160.199 1682.21 163.318 Q1685.57 166.397 1685.57 171.947 Q1685.57 178.266 1680.55 181.952 Q1675.57 185.639 1666.82 185.639 Q1663.17 185.639 1659.2 184.91 Q1655.27 184.221 1650.9 182.803 L1650.9 175.106 Q1655.03 177.253 1659.04 178.347 Q1663.05 179.4 1666.98 179.4 Q1672.24 179.4 1675.08 177.618 Q1677.92 175.795 1677.92 172.514 Q1677.92 169.476 1675.85 167.855 Q1673.82 166.235 1666.9 164.736 L1664.3 164.128 Q1657.38 162.67 1654.3 159.672 Q1651.22 156.634 1651.22 151.368 Q1651.22 144.968 1655.76 141.484 Q1660.29 138 1668.64 138 Q1672.77 138 1676.42 138.608 Q1680.06 139.215 1683.14 140.431 Z" fill="#000000" fill-rule="nonzero" fill-opacity="1" /><path clip-path="url(#clip250)" d="M1718.47 139.094 L1726.36 139.094 L1740.54 177.172 L1754.72 139.094 L1762.62 139.094 L1745.61 184.464 L1735.48 184.464 L1718.47 139.094 Z" fill="#000000" fill-rule="nonzero" fill-opacity="1" /><path clip-path="url(#clip250)" d="M1801.83 140.431 L1801.83 147.479 Q1798.67 145.859 1795.27 145.049 Q1791.87 144.239 1788.22 144.239 Q1782.67 144.239 1779.88 145.94 Q1777.12 147.641 1777.12 151.044 Q1777.12 153.637 1779.11 155.135 Q1781.09 156.594 1787.09 157.931 L1789.64 158.498 Q1797.58 160.199 1800.9 163.318 Q1804.26 166.397 1804.26 171.947 Q1804.26 178.266 1799.24 181.952 Q1794.26 185.639 1785.51 185.639 Q1781.86 185.639 1777.89 184.91 Q1773.96 184.221 1769.59 182.803 L1769.59 175.106 Q1773.72 177.253 1777.73 178.347 Q1781.74 179.4 1785.67 179.4 Q1790.94 179.4 1793.77 177.618 Q1796.61 175.795 1796.61 172.514 Q1796.61 169.476 1794.54 167.855 Q1792.52 166.235 1785.59 164.736 L1783 164.128 Q1776.07 162.67 1772.99 159.672 Q1769.91 156.634 1769.91 151.368 Q1769.91 144.968 1774.45 141.484 Q1778.99 138 1787.33 138 Q1791.46 138 1795.11 138.608 Q1798.75 139.215 1801.83 140.431 Z" fill="#000000" fill-rule="nonzero" fill-opacity="1" /><path clip-path="url(#clip250)" d="M1888.12 128.643 L1888.12 137.271 Q1883.99 133.423 1879.29 131.519 Q1874.63 129.615 1869.36 129.615 Q1858.99 129.615 1853.48 135.975 Q1847.97 142.294 1847.97 154.285 Q1847.97 166.235 1853.48 172.595 Q1858.99 178.914 1869.36 178.914 Q1874.63 178.914 1879.29 177.01 Q1883.99 175.106 1888.12 171.258 L1888.12 179.805 Q1883.82 182.722 1879 184.18 Q1874.22 185.639 1868.88 185.639 Q1855.14 185.639 1847.24 177.253 Q1839.34 168.828 1839.34 154.285 Q1839.34 139.702 1847.24 131.316 Q1855.14 122.89 1868.88 122.89 Q1874.3 122.89 1879.08 124.349 Q1883.9 125.766 1888.12 128.643 Z" fill="#000000" fill-rule="nonzero" fill-opacity="1" /><path clip-path="url(#clip250)" d="M1908.94 130.709 L1908.94 153.434 L1919.23 153.434 Q1924.94 153.434 1928.06 150.477 Q1931.18 147.52 1931.18 142.051 Q1931.18 136.623 1928.06 133.666 Q1924.94 130.709 1919.23 130.709 L1908.94 130.709 M1900.76 123.984 L1919.23 123.984 Q1929.4 123.984 1934.58 128.602 Q1939.81 133.18 1939.81 142.051 Q1939.81 151.004 1934.58 155.581 Q1929.4 160.159 1919.23 160.159 L1908.94 160.159 L1908.94 184.464 L1900.76 184.464 L1900.76 123.984 Z" fill="#000000" fill-rule="nonzero" fill-opacity="1" /><path clip-path="url(#clip250)" d="M1949.85 123.984 L1958.08 123.984 L1958.08 160.726 Q1958.08 170.448 1961.6 174.742 Q1965.12 178.995 1973.02 178.995 Q1980.88 178.995 1984.41 174.742 Q1987.93 170.448 1987.93 160.726 L1987.93 123.984 L1996.15 123.984 L1996.15 161.738 Q1996.15 173.567 1990.28 179.603 Q1984.45 185.639 1973.02 185.639 Q1961.56 185.639 1955.69 179.603 Q1949.85 173.567 1949.85 161.738 L1949.85 123.984 Z" fill="#000000" fill-rule="nonzero" fill-opacity="1" /><path clip-path="url(#clip250)" d="M2044.93 126.212 L2044.93 139.094 L2060.28 139.094 L2060.28 144.887 L2044.93 144.887 L2044.93 169.516 Q2044.93 175.066 2046.43 176.646 Q2047.97 178.226 2052.62 178.226 L2060.28 178.226 L2060.28 184.464 L2052.62 184.464 Q2044 184.464 2040.71 181.264 Q2037.43 178.023 2037.43 169.516 L2037.43 144.887 L2031.96 144.887 L2031.96 139.094 L2037.43 139.094 L2037.43 126.212 L2044.93 126.212 Z" fill="#000000" fill-rule="nonzero" fill-opacity="1" /><path clip-path="url(#clip250)" d="M2070.08 139.094 L2077.54 139.094 L2077.54 184.464 L2070.08 184.464 L2070.08 139.094 M2070.08 121.432 L2077.54 121.432 L2077.54 130.871 L2070.08 130.871 L2070.08 121.432 Z" fill="#000000" fill-rule="nonzero" fill-opacity="1" /><path clip-path="url(#clip250)" d="M2128.46 147.803 Q2131.25 142.78 2135.14 140.39 Q2139.03 138 2144.3 138 Q2151.39 138 2155.23 142.983 Q2159.08 147.925 2159.08 157.08 L2159.08 184.464 L2151.59 184.464 L2151.59 157.323 Q2151.59 150.801 2149.28 147.641 Q2146.97 144.482 2142.23 144.482 Q2136.44 144.482 2133.08 148.33 Q2129.71 152.178 2129.71 158.822 L2129.71 184.464 L2122.22 184.464 L2122.22 157.323 Q2122.22 150.76 2119.91 147.641 Q2117.6 144.482 2112.78 144.482 Q2107.07 144.482 2103.71 148.37 Q2100.34 152.219 2100.34 158.822 L2100.34 184.464 L2092.85 184.464 L2092.85 139.094 L2100.34 139.094 L2100.34 146.142 Q2102.9 141.97 2106.46 139.985 Q2110.03 138 2114.93 138 Q2119.87 138 2123.31 140.512 Q2126.8 143.023 2128.46 147.803 Z" fill="#000000" fill-rule="nonzero" fill-opacity="1" /><path clip-path="url(#clip250)" d="M2212.76 159.916 L2212.76 163.561 L2178.49 163.561 Q2178.97 171.258 2183.1 175.309 Q2187.28 179.319 2194.69 179.319 Q2198.98 179.319 2202.99 178.266 Q2207.04 177.213 2211.01 175.106 L2211.01 182.155 Q2207 183.856 2202.79 184.748 Q2198.58 185.639 2194.24 185.639 Q2183.39 185.639 2177.03 179.319 Q2170.71 173 2170.71 162.225 Q2170.71 151.085 2176.7 144.563 Q2182.74 138 2192.95 138 Q2202.1 138 2207.41 143.914 Q2212.76 149.788 2212.76 159.916 M2205.3 157.728 Q2205.22 151.611 2201.86 147.965 Q2198.54 144.32 2193.03 144.32 Q2186.79 144.32 2183.02 147.844 Q2179.3 151.368 2178.73 157.769 L2205.3 157.728 Z" fill="#000000" fill-rule="nonzero" fill-opacity="1" /><path clip-path="url(#clip250)" d="M2247.59 158.822 L2322.46 158.822 L2322.46 164.655 L2247.59 164.655 L2247.59 158.822 Z" fill="#000000" fill-rule="nonzero" fill-opacity="1" /><path clip-path="url(#clip250)" d="M2393.35 140.836 L2393.35 147.803 Q2390.19 146.061 2386.99 145.211 Q2383.83 144.32 2380.59 144.32 Q2373.33 144.32 2369.32 148.938 Q2365.31 153.515 2365.31 161.819 Q2365.31 170.124 2369.32 174.742 Q2373.33 179.319 2380.59 179.319 Q2383.83 179.319 2386.99 178.469 Q2390.19 177.577 2393.35 175.836 L2393.35 182.722 Q2390.23 184.18 2386.86 184.91 Q2383.54 185.639 2379.78 185.639 Q2369.53 185.639 2363.49 179.198 Q2357.45 172.757 2357.45 161.819 Q2357.45 150.72 2363.53 144.36 Q2369.65 138 2380.26 138 Q2383.7 138 2386.99 138.729 Q2390.27 139.418 2393.35 140.836 Z" fill="#000000" fill-rule="nonzero" fill-opacity="1" /><path clip-path="url(#clip250)" d="M2444.02 157.08 L2444.02 184.464 L2436.57 184.464 L2436.57 157.323 Q2436.57 150.882 2434.06 147.682 Q2431.55 144.482 2426.52 144.482 Q2420.49 144.482 2417 148.33 Q2413.52 152.178 2413.52 158.822 L2413.52 184.464 L2406.03 184.464 L2406.03 121.432 L2413.52 121.432 L2413.52 146.142 Q2416.19 142.051 2419.8 140.026 Q2423.44 138 2428.18 138 Q2436 138 2440.01 142.861 Q2444.02 147.682 2444.02 157.08 Z" fill="#000000" fill-rule="nonzero" fill-opacity="1" /><path clip-path="url(#clip250)" d="M2479.51 161.657 Q2470.48 161.657 2466.99 163.723 Q2463.51 165.789 2463.51 170.772 Q2463.51 174.742 2466.1 177.091 Q2468.73 179.4 2473.23 179.4 Q2479.43 179.4 2483.15 175.025 Q2486.92 170.61 2486.92 163.318 L2486.92 161.657 L2479.51 161.657 M2494.38 158.579 L2494.38 184.464 L2486.92 184.464 L2486.92 177.577 Q2484.37 181.709 2480.56 183.694 Q2476.75 185.639 2471.24 185.639 Q2464.28 185.639 2460.15 181.75 Q2456.05 177.821 2456.05 171.258 Q2456.05 163.602 2461.16 159.713 Q2466.3 155.824 2476.47 155.824 L2486.92 155.824 L2486.92 155.095 Q2486.92 149.95 2483.52 147.155 Q2480.16 144.32 2474.04 144.32 Q2470.15 144.32 2466.46 145.251 Q2462.78 146.183 2459.38 148.046 L2459.38 141.16 Q2463.47 139.58 2467.32 138.81 Q2471.16 138 2474.81 138 Q2484.65 138 2489.51 143.104 Q2494.38 148.208 2494.38 158.579 Z" fill="#000000" fill-rule="nonzero" fill-opacity="1" /><path clip-path="url(#clip250)" d="M2509.73 139.094 L2517.18 139.094 L2517.18 184.464 L2509.73 184.464 L2509.73 139.094 M2509.73 121.432 L2517.18 121.432 L2517.18 130.871 L2509.73 130.871 L2509.73 121.432 Z" fill="#000000" fill-rule="nonzero" fill-opacity="1" /><path clip-path="url(#clip250)" d="M2570.49 157.08 L2570.49 184.464 L2563.04 184.464 L2563.04 157.323 Q2563.04 150.882 2560.53 147.682 Q2558.02 144.482 2552.99 144.482 Q2546.96 144.482 2543.47 148.33 Q2539.99 152.178 2539.99 158.822 L2539.99 184.464 L2532.49 184.464 L2532.49 139.094 L2539.99 139.094 L2539.99 146.142 Q2542.66 142.051 2546.27 140.026 Q2549.91 138 2554.65 138 Q2562.47 138 2566.48 142.861 Q2570.49 147.682 2570.49 157.08 Z" fill="#000000" fill-rule="nonzero" fill-opacity="1" /><path clip-path="url(#clip252)" d="M817.035 2026.04 L769.035 2026.04 L793.035 2074.04 L817.035 2026.04 Z" fill="#800080" fill-rule="evenodd" fill-opacity="1" stroke="none"/>
<path clip-path="url(#clip252)" d="M3485.27 1507.59 L3437.27 1507.59 L3461.27 1555.59 L3485.27 1507.59 Z" fill="#800080" fill-rule="evenodd" fill-opacity="1" stroke="none"/>
<path clip-path="url(#clip252)" d="M435.859 1563.83 L387.859 1563.83 L411.859 1611.83 L435.859 1563.83 Z" fill="#800080" fill-rule="evenodd" fill-opacity="1" stroke="none"/>
<path clip-path="url(#clip252)" d="M435.859 676.627 L387.859 676.627 L411.859 724.627 L435.859 676.627 Z" fill="#800080" fill-rule="evenodd" fill-opacity="1" stroke="none"/>
<circle clip-path="url(#clip252)" cx="793.035" cy="2018.74" r="21.6" fill="#0000ff" fill-rule="evenodd" fill-opacity="1" stroke="none"/>
<circle clip-path="url(#clip252)" cx="3461.27" cy="1416.74" r="21.6" fill="#0000ff" fill-rule="evenodd" fill-opacity="1" stroke="none"/>
<circle clip-path="url(#clip252)" cx="411.859" cy="1473.77" r="21.6" fill="#0000ff" fill-rule="evenodd" fill-opacity="1" stroke="none"/>
<circle clip-path="url(#clip252)" cx="411.859" cy="438.058" r="21.6" fill="#0000ff" fill-rule="evenodd" fill-opacity="1" stroke="none"/>
<path clip-path="url(#clip252)" d="M769.035 2062.77 L769.035 2110.77 L817.035 2110.77 L817.035 2062.77 L769.035 2062.77 Z" fill="#ff0000" fill-rule="evenodd" fill-opacity="1" stroke="none"/>
<path clip-path="url(#clip252)" d="M3437.27 1705.35 L3437.27 1753.35 L3485.27 1753.35 L3485.27 1705.35 L3437.27 1705.35 Z" fill="#ff0000" fill-rule="evenodd" fill-opacity="1" stroke="none"/>
<path clip-path="url(#clip252)" d="M387.859 1723.48 L387.859 1771.48 L435.859 1771.48 L435.859 1723.48 L387.859 1723.48 Z" fill="#ff0000" fill-rule="evenodd" fill-opacity="1" stroke="none"/>
<path clip-path="url(#clip252)" d="M387.859 1166.54 L387.859 1214.54 L435.859 1214.54 L435.859 1166.54 L387.859 1166.54 Z" fill="#ff0000" fill-rule="evenodd" fill-opacity="1" stroke="none"/>
<path clip-path="url(#clip252)" d="M793.035 2017.58 L787.395 2033.8 L770.211 2034.16 L783.915 2044.55 L778.923 2060.99 L793.035 2051.18 L807.147 2060.99 L802.155 2044.55 L815.859 2034.16 L798.675 2033.8 L793.035 2017.58 Z" fill="#a52a2a" fill-rule="evenodd" fill-opacity="1" stroke="none"/>
<path clip-path="url(#clip252)" d="M3461.27 1523.56 L3455.63 1539.79 L3438.45 1540.15 L3452.15 1550.54 L3447.16 1566.98 L3461.27 1557.16 L3475.39 1566.98 L3470.39 1550.54 L3484.1 1540.15 L3466.91 1539.79 L3461.27 1523.56 Z" fill="#a52a2a" fill-rule="evenodd" fill-opacity="1" stroke="none"/>
<path clip-path="url(#clip252)" d="M411.859 1510.8 L406.219 1527.02 L389.035 1527.38 L402.739 1537.77 L397.747 1554.21 L411.859 1544.4 L425.971 1554.21 L420.979 1537.77 L434.683 1527.38 L417.499 1527.02 L411.859 1510.8 Z" fill="#a52a2a" fill-rule="evenodd" fill-opacity="1" stroke="none"/>
<path clip-path="url(#clip252)" d="M411.859 282.638 L406.219 298.862 L389.035 299.222 L402.739 309.614 L397.747 326.054 L411.859 316.238 L425.971 326.054 L420.979 309.614 L434.683 299.222 L417.499 298.862 L411.859 282.638 Z" fill="#a52a2a" fill-rule="evenodd" fill-opacity="1" stroke="none"/>
<path clip-path="url(#clip252)" d="M793.035 2015.75 L769.035 2039.75 L793.035 2063.75 L817.035 2039.75 L793.035 2015.75 Z" fill="#008000" fill-rule="evenodd" fill-opacity="1" stroke="none"/>
<path clip-path="url(#clip252)" d="M3461.27 1460.15 L3437.27 1484.15 L3461.27 1508.15 L3485.27 1484.15 L3461.27 1460.15 Z" fill="#008000" fill-rule="evenodd" fill-opacity="1" stroke="none"/>
<path clip-path="url(#clip252)" d="M411.859 1535.59 L387.859 1559.59 L411.859 1583.59 L435.859 1559.59 L411.859 1535.59 Z" fill="#008000" fill-rule="evenodd" fill-opacity="1" stroke="none"/>
<path clip-path="url(#clip252)" d="M411.859 276.989 L387.859 300.989 L411.859 324.989 L435.859 300.989 L411.859 276.989 Z" fill="#008000" fill-rule="evenodd" fill-opacity="1" stroke="none"/>
<path clip-path="url(#clip252)" d="M793.035 2078.46 L769.035 2126.46 L817.035 2126.46 L793.035 2078.46 Z" fill="#ffa500" fill-rule="evenodd" fill-opacity="1" stroke="none"/>
<path clip-path="url(#clip252)" d="M3461.27 1759.3 L3437.27 1807.3 L3485.27 1807.3 L3461.27 1759.3 Z" fill="#ffa500" fill-rule="evenodd" fill-opacity="1" stroke="none"/>
<path clip-path="url(#clip252)" d="M411.859 1816.62 L387.859 1864.62 L435.859 1864.62 L411.859 1816.62 Z" fill="#ffa500" fill-rule="evenodd" fill-opacity="1" stroke="none"/>
<path clip-path="url(#clip252)" d="M411.859 957.937 L387.859 1005.94 L435.859 1005.94 L411.859 957.937 Z" fill="#ffa500" fill-rule="evenodd" fill-opacity="1" stroke="none"/>
<path clip-path="url(#clip250)" d="M428.122 673.476 L1121.43 673.476 L1121.43 310.596 L428.122 310.596  Z" fill="#ffffff" fill-rule="evenodd" fill-opacity="1"/>
<polyline clip-path="url(#clip250)" style="stroke:#000000; stroke-linecap:round; stroke-linejoin:round; stroke-width:4; stroke-opacity:1; fill:none" points="428.122,673.476 1121.43,673.476 1121.43,310.596 428.122,310.596 428.122,673.476 "/>
<path clip-path="url(#clip250)" d="M597.384 336.836 L546.184 336.836 L571.784 388.036 L597.384 336.836 Z" fill="#800080" fill-rule="evenodd" fill-opacity="1" stroke="none"/>
<path clip-path="url(#clip250)" d="M726.07 343.744 Q722.968 349.068 721.463 354.277 Q719.959 359.485 719.959 364.832 Q719.959 370.179 721.463 375.434 Q722.991 380.665 726.07 385.966 L722.366 385.966 Q718.894 380.527 717.158 375.272 Q715.445 370.017 715.445 364.832 Q715.445 359.67 717.158 354.439 Q718.871 349.207 722.366 343.744 L726.07 343.744 Z" fill="#000000" fill-rule="nonzero" fill-opacity="1" /><path clip-path="url(#clip250)" d="M734.334 353.791 L738.593 353.791 L738.593 380.179 Q738.593 385.133 736.695 387.355 Q734.82 389.577 730.63 389.577 L729.01 389.577 L729.01 385.966 L730.144 385.966 Q732.574 385.966 733.454 384.832 Q734.334 383.721 734.334 380.179 L734.334 353.791 M734.334 343.698 L738.593 343.698 L738.593 349.092 L734.334 349.092 L734.334 343.698 Z" fill="#000000" fill-rule="nonzero" fill-opacity="1" /><path clip-path="url(#clip250)" d="M747.065 369.485 L747.065 353.791 L751.324 353.791 L751.324 369.323 Q751.324 373.003 752.759 374.855 Q754.195 376.684 757.065 376.684 Q760.514 376.684 762.505 374.485 Q764.519 372.286 764.519 368.49 L764.519 353.791 L768.778 353.791 L768.778 379.716 L764.519 379.716 L764.519 375.735 Q762.968 378.096 760.908 379.253 Q758.871 380.388 756.162 380.388 Q751.695 380.388 749.38 377.61 Q747.065 374.832 747.065 369.485 M757.783 353.166 L757.783 353.166 Z" fill="#000000" fill-rule="nonzero" fill-opacity="1" /><path clip-path="url(#clip250)" d="M797.736 358.767 Q799.333 355.897 801.555 354.531 Q803.778 353.166 806.787 353.166 Q810.838 353.166 813.037 356.013 Q815.236 358.837 815.236 364.068 L815.236 379.716 L810.954 379.716 L810.954 364.207 Q810.954 360.48 809.634 358.675 Q808.315 356.869 805.606 356.869 Q802.296 356.869 800.375 359.068 Q798.454 361.267 798.454 365.064 L798.454 379.716 L794.171 379.716 L794.171 364.207 Q794.171 360.457 792.852 358.675 Q791.532 356.869 788.778 356.869 Q785.514 356.869 783.593 359.091 Q781.671 361.291 781.671 365.064 L781.671 379.716 L777.389 379.716 L777.389 353.791 L781.671 353.791 L781.671 357.818 Q783.13 355.434 785.167 354.3 Q787.204 353.166 790.005 353.166 Q792.829 353.166 794.796 354.601 Q796.787 356.036 797.736 358.767 Z" fill="#000000" fill-rule="nonzero" fill-opacity="1" /><path clip-path="url(#clip250)" d="M827.852 375.827 L827.852 389.577 L823.569 389.577 L823.569 353.791 L827.852 353.791 L827.852 357.726 Q829.194 355.411 831.231 354.3 Q833.291 353.166 836.139 353.166 Q840.861 353.166 843.801 356.916 Q846.764 360.666 846.764 366.777 Q846.764 372.888 843.801 376.638 Q840.861 380.388 836.139 380.388 Q833.291 380.388 831.231 379.277 Q829.194 378.142 827.852 375.827 M842.342 366.777 Q842.342 362.078 840.398 359.416 Q838.477 356.73 835.097 356.73 Q831.717 356.73 829.773 359.416 Q827.852 362.078 827.852 366.777 Q827.852 371.476 829.773 374.161 Q831.717 376.823 835.097 376.823 Q838.477 376.823 840.398 374.161 Q842.342 371.476 842.342 366.777 Z" fill="#000000" fill-rule="nonzero" fill-opacity="1" /><path clip-path="url(#clip250)" d="M854.912 373.837 L859.796 373.837 L859.796 377.818 L856 385.226 L853.014 385.226 L854.912 377.818 L854.912 373.837 Z" fill="#000000" fill-rule="nonzero" fill-opacity="1" /><path clip-path="url(#clip250)" d="M883.962 353.791 L888.222 353.791 L888.222 379.716 L883.962 379.716 L883.962 353.791 M883.962 343.698 L888.222 343.698 L888.222 349.092 L883.962 349.092 L883.962 343.698 Z" fill="#000000" fill-rule="nonzero" fill-opacity="1" /><path clip-path="url(#clip250)" d="M901.254 375.827 L901.254 389.577 L896.972 389.577 L896.972 353.791 L901.254 353.791 L901.254 357.726 Q902.597 355.411 904.634 354.3 Q906.694 353.166 909.541 353.166 Q914.263 353.166 917.203 356.916 Q920.166 360.666 920.166 366.777 Q920.166 372.888 917.203 376.638 Q914.263 380.388 909.541 380.388 Q906.694 380.388 904.634 379.277 Q902.597 378.142 901.254 375.827 M915.745 366.777 Q915.745 362.078 913.8 359.416 Q911.879 356.73 908.499 356.73 Q905.12 356.73 903.175 359.416 Q901.254 362.078 901.254 366.777 Q901.254 371.476 903.175 374.161 Q905.12 376.823 908.499 376.823 Q911.879 376.823 913.8 374.161 Q915.745 371.476 915.745 366.777 Z" fill="#000000" fill-rule="nonzero" fill-opacity="1" /><path clip-path="url(#clip250)" d="M937.272 356.777 Q933.846 356.777 931.856 359.462 Q929.865 362.124 929.865 366.777 Q929.865 371.429 931.833 374.115 Q933.823 376.777 937.272 376.777 Q940.675 376.777 942.666 374.091 Q944.657 371.406 944.657 366.777 Q944.657 362.17 942.666 359.485 Q940.675 356.777 937.272 356.777 M937.272 353.166 Q942.828 353.166 945.999 356.777 Q949.17 360.388 949.17 366.777 Q949.17 373.142 945.999 376.777 Q942.828 380.388 937.272 380.388 Q931.694 380.388 928.522 376.777 Q925.374 373.142 925.374 366.777 Q925.374 360.388 928.522 356.777 Q931.694 353.166 937.272 353.166 Z" fill="#000000" fill-rule="nonzero" fill-opacity="1" /><path clip-path="url(#clip250)" d="M960.351 375.827 L960.351 389.577 L956.069 389.577 L956.069 353.791 L960.351 353.791 L960.351 357.726 Q961.694 355.411 963.731 354.3 Q965.791 353.166 968.638 353.166 Q973.36 353.166 976.3 356.916 Q979.263 360.666 979.263 366.777 Q979.263 372.888 976.3 376.638 Q973.36 380.388 968.638 380.388 Q965.791 380.388 963.731 379.277 Q961.694 378.142 960.351 375.827 M974.842 366.777 Q974.842 362.078 972.897 359.416 Q970.976 356.73 967.596 356.73 Q964.217 356.73 962.272 359.416 Q960.351 362.078 960.351 366.777 Q960.351 371.476 962.272 374.161 Q964.217 376.823 967.596 376.823 Q970.976 376.823 972.897 374.161 Q974.842 371.476 974.842 366.777 Z" fill="#000000" fill-rule="nonzero" fill-opacity="1" /><path clip-path="url(#clip250)" d="M990.536 346.43 L990.536 353.791 L999.309 353.791 L999.309 357.101 L990.536 357.101 L990.536 371.175 Q990.536 374.346 991.392 375.249 Q992.272 376.152 994.934 376.152 L999.309 376.152 L999.309 379.716 L994.934 379.716 Q990.004 379.716 988.129 377.888 Q986.254 376.036 986.254 371.175 L986.254 357.101 L983.129 357.101 L983.129 353.791 L986.254 353.791 L986.254 346.43 L990.536 346.43 Z" fill="#000000" fill-rule="nonzero" fill-opacity="1" /><path clip-path="url(#clip250)" d="M1004.24 343.744 L1007.94 343.744 Q1011.42 349.207 1013.13 354.439 Q1014.86 359.67 1014.86 364.832 Q1014.86 370.017 1013.13 375.272 Q1011.42 380.527 1007.94 385.966 L1004.24 385.966 Q1007.32 380.665 1008.82 375.434 Q1010.35 370.179 1010.35 364.832 Q1010.35 359.485 1008.82 354.277 Q1007.32 349.068 1004.24 343.744 Z" fill="#000000" fill-rule="nonzero" fill-opacity="1" /><circle clip-path="url(#clip250)" cx="571.784" cy="414.276" r="23.04" fill="#0000ff" fill-rule="evenodd" fill-opacity="1" stroke="none"/>
<path clip-path="url(#clip250)" d="M726.07 395.584 Q722.968 400.908 721.463 406.117 Q719.959 411.325 719.959 416.672 Q719.959 422.019 721.463 427.274 Q722.991 432.505 726.07 437.806 L722.366 437.806 Q718.894 432.367 717.158 427.112 Q715.445 421.857 715.445 416.672 Q715.445 411.51 717.158 406.279 Q718.871 401.047 722.366 395.584 L726.07 395.584 Z" fill="#000000" fill-rule="nonzero" fill-opacity="1" /><path clip-path="url(#clip250)" d="M746.116 418.524 Q740.954 418.524 738.963 419.705 Q736.972 420.885 736.972 423.732 Q736.972 426.001 738.454 427.343 Q739.959 428.663 742.528 428.663 Q746.07 428.663 748.199 426.163 Q750.352 423.64 750.352 419.473 L750.352 418.524 L746.116 418.524 M754.611 416.765 L754.611 431.556 L750.352 431.556 L750.352 427.621 Q748.894 429.982 746.718 431.117 Q744.542 432.228 741.394 432.228 Q737.412 432.228 735.051 430.005 Q732.713 427.76 732.713 424.01 Q732.713 419.635 735.63 417.413 Q738.57 415.191 744.38 415.191 L750.352 415.191 L750.352 414.774 Q750.352 411.834 748.408 410.237 Q746.486 408.617 742.991 408.617 Q740.769 408.617 738.662 409.149 Q736.556 409.681 734.611 410.746 L734.611 406.811 Q736.949 405.908 739.148 405.469 Q741.347 405.006 743.431 405.006 Q749.056 405.006 751.834 407.922 Q754.611 410.839 754.611 416.765 Z" fill="#000000" fill-rule="nonzero" fill-opacity="1" /><path clip-path="url(#clip250)" d="M780.444 409.566 L780.444 395.538 L784.704 395.538 L784.704 431.556 L780.444 431.556 L780.444 427.667 Q779.102 429.982 777.042 431.117 Q775.005 432.228 772.134 432.228 Q767.435 432.228 764.472 428.478 Q761.533 424.728 761.533 418.617 Q761.533 412.506 764.472 408.756 Q767.435 405.006 772.134 405.006 Q775.005 405.006 777.042 406.14 Q779.102 407.251 780.444 409.566 M765.931 418.617 Q765.931 423.316 767.852 426.001 Q769.796 428.663 773.176 428.663 Q776.556 428.663 778.5 426.001 Q780.444 423.316 780.444 418.617 Q780.444 413.918 778.5 411.256 Q776.556 408.57 773.176 408.57 Q769.796 408.57 767.852 411.256 Q765.931 413.918 765.931 418.617 Z" fill="#000000" fill-rule="nonzero" fill-opacity="1" /><path clip-path="url(#clip250)" d="M815.028 415.908 L815.028 431.556 L810.768 431.556 L810.768 416.047 Q810.768 412.367 809.333 410.538 Q807.898 408.709 805.028 408.709 Q801.579 408.709 799.588 410.908 Q797.597 413.107 797.597 416.904 L797.597 431.556 L793.315 431.556 L793.315 405.631 L797.597 405.631 L797.597 409.658 Q799.125 407.32 801.185 406.163 Q803.268 405.006 805.977 405.006 Q810.444 405.006 812.736 407.783 Q815.028 410.538 815.028 415.908 Z" fill="#000000" fill-rule="nonzero" fill-opacity="1" /><path clip-path="url(#clip250)" d="M823.523 395.538 L827.782 395.538 L827.782 431.556 L823.523 431.556 L823.523 395.538 Z" fill="#000000" fill-rule="nonzero" fill-opacity="1" /><path clip-path="url(#clip250)" d="M840.815 427.667 L840.815 441.417 L836.532 441.417 L836.532 405.631 L840.815 405.631 L840.815 409.566 Q842.157 407.251 844.194 406.14 Q846.254 405.006 849.102 405.006 Q853.824 405.006 856.764 408.756 Q859.726 412.506 859.726 418.617 Q859.726 424.728 856.764 428.478 Q853.824 432.228 849.102 432.228 Q846.254 432.228 844.194 431.117 Q842.157 429.982 840.815 427.667 M855.305 418.617 Q855.305 413.918 853.361 411.256 Q851.439 408.57 848.06 408.57 Q844.68 408.57 842.736 411.256 Q840.815 413.918 840.815 418.617 Q840.815 423.316 842.736 426.001 Q844.68 428.663 848.06 428.663 Q851.439 428.663 853.361 426.001 Q855.305 423.316 855.305 418.617 Z" fill="#000000" fill-rule="nonzero" fill-opacity="1" /><path clip-path="url(#clip250)" d="M867.875 425.677 L872.759 425.677 L872.759 429.658 L868.963 437.066 L865.976 437.066 L867.875 429.658 L867.875 425.677 Z" fill="#000000" fill-rule="nonzero" fill-opacity="1" /><path clip-path="url(#clip250)" d="M896.925 405.631 L901.185 405.631 L901.185 431.556 L896.925 431.556 L896.925 405.631 M896.925 395.538 L901.185 395.538 L901.185 400.932 L896.925 400.932 L896.925 395.538 Z" fill="#000000" fill-rule="nonzero" fill-opacity="1" /><path clip-path="url(#clip250)" d="M914.217 427.667 L914.217 441.417 L909.935 441.417 L909.935 405.631 L914.217 405.631 L914.217 409.566 Q915.559 407.251 917.597 406.14 Q919.657 405.006 922.504 405.006 Q927.226 405.006 930.166 408.756 Q933.129 412.506 933.129 418.617 Q933.129 424.728 930.166 428.478 Q927.226 432.228 922.504 432.228 Q919.657 432.228 917.597 431.117 Q915.559 429.982 914.217 427.667 M928.708 418.617 Q928.708 413.918 926.763 411.256 Q924.842 408.57 921.462 408.57 Q918.083 408.57 916.138 411.256 Q914.217 413.918 914.217 418.617 Q914.217 423.316 916.138 426.001 Q918.083 428.663 921.462 428.663 Q924.842 428.663 926.763 426.001 Q928.708 423.316 928.708 418.617 Z" fill="#000000" fill-rule="nonzero" fill-opacity="1" /><path clip-path="url(#clip250)" d="M950.235 408.617 Q946.809 408.617 944.819 411.302 Q942.828 413.964 942.828 418.617 Q942.828 423.269 944.795 425.955 Q946.786 428.617 950.235 428.617 Q953.638 428.617 955.629 425.931 Q957.619 423.246 957.619 418.617 Q957.619 414.01 955.629 411.325 Q953.638 408.617 950.235 408.617 M950.235 405.006 Q955.791 405.006 958.962 408.617 Q962.133 412.228 962.133 418.617 Q962.133 424.982 958.962 428.617 Q955.791 432.228 950.235 432.228 Q944.657 432.228 941.485 428.617 Q938.337 424.982 938.337 418.617 Q938.337 412.228 941.485 408.617 Q944.657 405.006 950.235 405.006 Z" fill="#000000" fill-rule="nonzero" fill-opacity="1" /><path clip-path="url(#clip250)" d="M973.314 427.667 L973.314 441.417 L969.031 441.417 L969.031 405.631 L973.314 405.631 L973.314 409.566 Q974.656 407.251 976.693 406.14 Q978.754 405.006 981.601 405.006 Q986.323 405.006 989.263 408.756 Q992.226 412.506 992.226 418.617 Q992.226 424.728 989.263 428.478 Q986.323 432.228 981.601 432.228 Q978.754 432.228 976.693 431.117 Q974.656 429.982 973.314 427.667 M987.804 418.617 Q987.804 413.918 985.86 411.256 Q983.939 408.57 980.559 408.57 Q977.18 408.57 975.235 411.256 Q973.314 413.918 973.314 418.617 Q973.314 423.316 975.235 426.001 Q977.18 428.663 980.559 428.663 Q983.939 428.663 985.86 426.001 Q987.804 423.316 987.804 418.617 Z" fill="#000000" fill-rule="nonzero" fill-opacity="1" /><path clip-path="url(#clip250)" d="M1003.5 398.27 L1003.5 405.631 L1012.27 405.631 L1012.27 408.941 L1003.5 408.941 L1003.5 423.015 Q1003.5 426.186 1004.36 427.089 Q1005.23 427.992 1007.9 427.992 L1012.27 427.992 L1012.27 431.556 L1007.9 431.556 Q1002.97 431.556 1001.09 429.728 Q999.216 427.876 999.216 423.015 L999.216 408.941 L996.091 408.941 L996.091 405.631 L999.216 405.631 L999.216 398.27 L1003.5 398.27 Z" fill="#000000" fill-rule="nonzero" fill-opacity="1" /><path clip-path="url(#clip250)" d="M1017.2 395.584 L1020.91 395.584 Q1024.38 401.047 1026.09 406.279 Q1027.83 411.51 1027.83 416.672 Q1027.83 421.857 1026.09 427.112 Q1024.38 432.367 1020.91 437.806 L1017.2 437.806 Q1020.28 432.505 1021.79 427.274 Q1023.31 422.019 1023.31 416.672 Q1023.31 411.325 1021.79 406.117 Q1020.28 400.908 1017.2 395.584 Z" fill="#000000" fill-rule="nonzero" fill-opacity="1" /><path clip-path="url(#clip250)" d="M546.184 440.516 L546.184 491.716 L597.384 491.716 L597.384 440.516 L546.184 440.516 Z" fill="#ff0000" fill-rule="evenodd" fill-opacity="1" stroke="none"/>
<path clip-path="url(#clip250)" d="M726.07 447.424 Q722.968 452.748 721.463 457.957 Q719.959 463.165 719.959 468.512 Q719.959 473.859 721.463 479.114 Q722.991 484.345 726.07 489.646 L722.366 489.646 Q718.894 484.207 717.158 478.952 Q715.445 473.697 715.445 468.512 Q715.445 463.35 717.158 458.119 Q718.871 452.887 722.366 447.424 L726.07 447.424 Z" fill="#000000" fill-rule="nonzero" fill-opacity="1" /><path clip-path="url(#clip250)" d="M756.509 469.369 L756.509 471.452 L736.926 471.452 Q737.204 475.85 739.565 478.165 Q741.949 480.457 746.185 480.457 Q748.639 480.457 750.931 479.855 Q753.246 479.253 755.514 478.049 L755.514 482.077 Q753.222 483.049 750.815 483.558 Q748.408 484.068 745.931 484.068 Q739.727 484.068 736.093 480.457 Q732.482 476.845 732.482 470.688 Q732.482 464.322 735.908 460.596 Q739.357 456.846 745.19 456.846 Q750.421 456.846 753.454 460.225 Q756.509 463.582 756.509 469.369 M752.25 468.119 Q752.204 464.623 750.283 462.54 Q748.384 460.457 745.236 460.457 Q741.672 460.457 739.519 462.471 Q737.389 464.484 737.065 468.142 L752.25 468.119 Z" fill="#000000" fill-rule="nonzero" fill-opacity="1" /><path clip-path="url(#clip250)" d="M784.218 457.471 L774.843 470.086 L784.704 483.396 L779.681 483.396 L772.134 473.211 L764.588 483.396 L759.565 483.396 L769.634 469.832 L760.421 457.471 L765.445 457.471 L772.32 466.707 L779.194 457.471 L784.218 457.471 Z" fill="#000000" fill-rule="nonzero" fill-opacity="1" /><path clip-path="url(#clip250)" d="M802.505 470.364 Q797.343 470.364 795.352 471.545 Q793.361 472.725 793.361 475.572 Q793.361 477.841 794.843 479.183 Q796.347 480.503 798.917 480.503 Q802.458 480.503 804.588 478.003 Q806.741 475.48 806.741 471.313 L806.741 470.364 L802.505 470.364 M811 468.605 L811 483.396 L806.741 483.396 L806.741 479.461 Q805.282 481.822 803.106 482.957 Q800.93 484.068 797.782 484.068 Q793.801 484.068 791.44 481.845 Q789.102 479.6 789.102 475.85 Q789.102 471.475 792.018 469.253 Q794.958 467.031 800.768 467.031 L806.741 467.031 L806.741 466.614 Q806.741 463.674 804.796 462.077 Q802.875 460.457 799.38 460.457 Q797.157 460.457 795.051 460.989 Q792.944 461.521 791 462.586 L791 458.651 Q793.338 457.748 795.537 457.309 Q797.736 456.846 799.819 456.846 Q805.444 456.846 808.222 459.762 Q811 462.679 811 468.605 Z" fill="#000000" fill-rule="nonzero" fill-opacity="1" /><path clip-path="url(#clip250)" d="M820.861 477.517 L825.745 477.517 L825.745 481.498 L821.949 488.906 L818.963 488.906 L820.861 481.498 L820.861 477.517 Z" fill="#000000" fill-rule="nonzero" fill-opacity="1" /><path clip-path="url(#clip250)" d="M849.912 457.471 L854.171 457.471 L854.171 483.396 L849.912 483.396 L849.912 457.471 M849.912 447.378 L854.171 447.378 L854.171 452.772 L849.912 452.772 L849.912 447.378 Z" fill="#000000" fill-rule="nonzero" fill-opacity="1" /><path clip-path="url(#clip250)" d="M867.203 479.507 L867.203 493.257 L862.921 493.257 L862.921 457.471 L867.203 457.471 L867.203 461.406 Q868.546 459.091 870.583 457.98 Q872.643 456.846 875.49 456.846 Q880.212 456.846 883.152 460.596 Q886.115 464.346 886.115 470.457 Q886.115 476.568 883.152 480.318 Q880.212 484.068 875.49 484.068 Q872.643 484.068 870.583 482.957 Q868.546 481.822 867.203 479.507 M881.694 470.457 Q881.694 465.758 879.75 463.096 Q877.828 460.41 874.449 460.41 Q871.069 460.41 869.125 463.096 Q867.203 465.758 867.203 470.457 Q867.203 475.156 869.125 477.841 Q871.069 480.503 874.449 480.503 Q877.828 480.503 879.75 477.841 Q881.694 475.156 881.694 470.457 Z" fill="#000000" fill-rule="nonzero" fill-opacity="1" /><path clip-path="url(#clip250)" d="M903.222 460.457 Q899.796 460.457 897.805 463.142 Q895.814 465.804 895.814 470.457 Q895.814 475.109 897.782 477.795 Q899.773 480.457 903.222 480.457 Q906.624 480.457 908.615 477.771 Q910.606 475.086 910.606 470.457 Q910.606 465.85 908.615 463.165 Q906.624 460.457 903.222 460.457 M903.222 456.846 Q908.777 456.846 911.948 460.457 Q915.12 464.068 915.12 470.457 Q915.12 476.822 911.948 480.457 Q908.777 484.068 903.222 484.068 Q897.643 484.068 894.472 480.457 Q891.324 476.822 891.324 470.457 Q891.324 464.068 894.472 460.457 Q897.643 456.846 903.222 456.846 Z" fill="#000000" fill-rule="nonzero" fill-opacity="1" /><path clip-path="url(#clip250)" d="M926.3 479.507 L926.3 493.257 L922.018 493.257 L922.018 457.471 L926.3 457.471 L926.3 461.406 Q927.643 459.091 929.68 457.98 Q931.74 456.846 934.587 456.846 Q939.309 456.846 942.249 460.596 Q945.212 464.346 945.212 470.457 Q945.212 476.568 942.249 480.318 Q939.309 484.068 934.587 484.068 Q931.74 484.068 929.68 482.957 Q927.643 481.822 926.3 479.507 M940.791 470.457 Q940.791 465.758 938.846 463.096 Q936.925 460.41 933.546 460.41 Q930.166 460.41 928.221 463.096 Q926.3 465.758 926.3 470.457 Q926.3 475.156 928.221 477.841 Q930.166 480.503 933.546 480.503 Q936.925 480.503 938.846 477.841 Q940.791 475.156 940.791 470.457 Z" fill="#000000" fill-rule="nonzero" fill-opacity="1" /><path clip-path="url(#clip250)" d="M956.485 450.11 L956.485 457.471 L965.258 457.471 L965.258 460.781 L956.485 460.781 L956.485 474.855 Q956.485 478.026 957.342 478.929 Q958.221 479.832 960.883 479.832 L965.258 479.832 L965.258 483.396 L960.883 483.396 Q955.953 483.396 954.078 481.568 Q952.203 479.716 952.203 474.855 L952.203 460.781 L949.078 460.781 L949.078 457.471 L952.203 457.471 L952.203 450.11 L956.485 450.11 Z" fill="#000000" fill-rule="nonzero" fill-opacity="1" /><path clip-path="url(#clip250)" d="M970.189 447.424 L973.893 447.424 Q977.365 452.887 979.078 458.119 Q980.814 463.35 980.814 468.512 Q980.814 473.697 979.078 478.952 Q977.365 484.207 973.893 489.646 L970.189 489.646 Q973.268 484.345 974.772 479.114 Q976.3 473.859 976.3 468.512 Q976.3 463.165 974.772 457.957 Q973.268 452.748 970.189 447.424 Z" fill="#000000" fill-rule="nonzero" fill-opacity="1" /><path clip-path="url(#clip250)" d="M571.784 492.356 L565.768 509.662 L547.438 510.046 L562.056 521.131 L556.731 538.667 L571.784 528.196 L586.836 538.667 L581.512 521.131 L596.129 510.046 L577.8 509.662 L571.784 492.356 Z" fill="#a52a2a" fill-rule="evenodd" fill-opacity="1" stroke="none"/>
<path clip-path="url(#clip250)" d="M726.07 499.264 Q722.968 504.588 721.463 509.797 Q719.959 515.005 719.959 520.352 Q719.959 525.699 721.463 530.954 Q722.991 536.185 726.07 541.486 L722.366 541.486 Q718.894 536.047 717.158 530.792 Q715.445 525.537 715.445 520.352 Q715.445 515.19 717.158 509.959 Q718.871 504.727 722.366 499.264 L726.07 499.264 Z" fill="#000000" fill-rule="nonzero" fill-opacity="1" /><path clip-path="url(#clip250)" d="M734.334 509.311 L738.593 509.311 L738.593 535.699 Q738.593 540.653 736.695 542.875 Q734.82 545.097 730.63 545.097 L729.01 545.097 L729.01 541.486 L730.144 541.486 Q732.574 541.486 733.454 540.352 Q734.334 539.241 734.334 535.699 L734.334 509.311 M734.334 499.218 L738.593 499.218 L738.593 504.612 L734.334 504.612 L734.334 499.218 Z" fill="#000000" fill-rule="nonzero" fill-opacity="1" /><path clip-path="url(#clip250)" d="M747.065 525.005 L747.065 509.311 L751.324 509.311 L751.324 524.843 Q751.324 528.523 752.759 530.375 Q754.195 532.204 757.065 532.204 Q760.514 532.204 762.505 530.005 Q764.519 527.806 764.519 524.01 L764.519 509.311 L768.778 509.311 L768.778 535.236 L764.519 535.236 L764.519 531.255 Q762.968 533.616 760.908 534.773 Q758.871 535.908 756.162 535.908 Q751.695 535.908 749.38 533.13 Q747.065 530.352 747.065 525.005 M757.783 508.686 L757.783 508.686 Z" fill="#000000" fill-rule="nonzero" fill-opacity="1" /><path clip-path="url(#clip250)" d="M797.736 514.287 Q799.333 511.417 801.555 510.051 Q803.778 508.686 806.787 508.686 Q810.838 508.686 813.037 511.533 Q815.236 514.357 815.236 519.588 L815.236 535.236 L810.954 535.236 L810.954 519.727 Q810.954 516 809.634 514.195 Q808.315 512.389 805.606 512.389 Q802.296 512.389 800.375 514.588 Q798.454 516.787 798.454 520.584 L798.454 535.236 L794.171 535.236 L794.171 519.727 Q794.171 515.977 792.852 514.195 Q791.532 512.389 788.778 512.389 Q785.514 512.389 783.593 514.611 Q781.671 516.811 781.671 520.584 L781.671 535.236 L777.389 535.236 L777.389 509.311 L781.671 509.311 L781.671 513.338 Q783.13 510.954 785.167 509.82 Q787.204 508.686 790.005 508.686 Q792.829 508.686 794.796 510.121 Q796.787 511.556 797.736 514.287 Z" fill="#000000" fill-rule="nonzero" fill-opacity="1" /><path clip-path="url(#clip250)" d="M827.852 531.347 L827.852 545.097 L823.569 545.097 L823.569 509.311 L827.852 509.311 L827.852 513.246 Q829.194 510.931 831.231 509.82 Q833.291 508.686 836.139 508.686 Q840.861 508.686 843.801 512.436 Q846.764 516.186 846.764 522.297 Q846.764 528.408 843.801 532.158 Q840.861 535.908 836.139 535.908 Q833.291 535.908 831.231 534.797 Q829.194 533.662 827.852 531.347 M842.342 522.297 Q842.342 517.598 840.398 514.936 Q838.477 512.25 835.097 512.25 Q831.717 512.25 829.773 514.936 Q827.852 517.598 827.852 522.297 Q827.852 526.996 829.773 529.681 Q831.717 532.343 835.097 532.343 Q838.477 532.343 840.398 529.681 Q842.342 526.996 842.342 522.297 Z" fill="#000000" fill-rule="nonzero" fill-opacity="1" /><path clip-path="url(#clip250)" d="M854.912 529.357 L859.796 529.357 L859.796 533.338 L856 540.746 L853.014 540.746 L854.912 533.338 L854.912 529.357 Z" fill="#000000" fill-rule="nonzero" fill-opacity="1" /><path clip-path="url(#clip250)" d="M904.148 514.287 Q905.745 511.417 907.967 510.051 Q910.189 508.686 913.198 508.686 Q917.249 508.686 919.448 511.533 Q921.647 514.357 921.647 519.588 L921.647 535.236 L917.365 535.236 L917.365 519.727 Q917.365 516 916.046 514.195 Q914.726 512.389 912.018 512.389 Q908.708 512.389 906.786 514.588 Q904.865 516.787 904.865 520.584 L904.865 535.236 L900.583 535.236 L900.583 519.727 Q900.583 515.977 899.263 514.195 Q897.944 512.389 895.189 512.389 Q891.925 512.389 890.004 514.611 Q888.083 516.811 888.083 520.584 L888.083 535.236 L883.8 535.236 L883.8 509.311 L888.083 509.311 L888.083 513.338 Q889.541 510.954 891.578 509.82 Q893.615 508.686 896.416 508.686 Q899.24 508.686 901.208 510.121 Q903.198 511.556 904.148 514.287 Z" fill="#000000" fill-rule="nonzero" fill-opacity="1" /><path clip-path="url(#clip250)" d="M941.925 522.204 Q936.763 522.204 934.772 523.385 Q932.782 524.565 932.782 527.412 Q932.782 529.681 934.263 531.023 Q935.768 532.343 938.337 532.343 Q941.879 532.343 944.008 529.843 Q946.161 527.32 946.161 523.153 L946.161 522.204 L941.925 522.204 M950.42 520.445 L950.42 535.236 L946.161 535.236 L946.161 531.301 Q944.703 533.662 942.527 534.797 Q940.351 535.908 937.203 535.908 Q933.221 535.908 930.86 533.685 Q928.522 531.44 928.522 527.69 Q928.522 523.315 931.439 521.093 Q934.379 518.871 940.189 518.871 L946.161 518.871 L946.161 518.454 Q946.161 515.514 944.217 513.917 Q942.295 512.297 938.8 512.297 Q936.578 512.297 934.471 512.829 Q932.365 513.361 930.421 514.426 L930.421 510.491 Q932.758 509.588 934.958 509.149 Q937.157 508.686 939.24 508.686 Q944.865 508.686 947.643 511.602 Q950.42 514.519 950.42 520.445 Z" fill="#000000" fill-rule="nonzero" fill-opacity="1" /><path clip-path="url(#clip250)" d="M976.254 513.246 L976.254 499.218 L980.513 499.218 L980.513 535.236 L976.254 535.236 L976.254 531.347 Q974.911 533.662 972.851 534.797 Q970.814 535.908 967.943 535.908 Q963.244 535.908 960.281 532.158 Q957.342 528.408 957.342 522.297 Q957.342 516.186 960.281 512.436 Q963.244 508.686 967.943 508.686 Q970.814 508.686 972.851 509.82 Q974.911 510.931 976.254 513.246 M961.74 522.297 Q961.74 526.996 963.661 529.681 Q965.606 532.343 968.985 532.343 Q972.365 532.343 974.309 529.681 Q976.254 526.996 976.254 522.297 Q976.254 517.598 974.309 514.936 Q972.365 512.25 968.985 512.25 Q965.606 512.25 963.661 514.936 Q961.74 517.598 961.74 522.297 Z" fill="#000000" fill-rule="nonzero" fill-opacity="1" /><path clip-path="url(#clip250)" d="M1010.84 519.588 L1010.84 535.236 L1006.58 535.236 L1006.58 519.727 Q1006.58 516.047 1005.14 514.218 Q1003.71 512.389 1000.84 512.389 Q997.388 512.389 995.397 514.588 Q993.406 516.787 993.406 520.584 L993.406 535.236 L989.124 535.236 L989.124 509.311 L993.406 509.311 L993.406 513.338 Q994.934 511 996.994 509.843 Q999.078 508.686 1001.79 508.686 Q1006.25 508.686 1008.55 511.463 Q1010.84 514.218 1010.84 519.588 Z" fill="#000000" fill-rule="nonzero" fill-opacity="1" /><path clip-path="url(#clip250)" d="M1019.33 499.218 L1023.59 499.218 L1023.59 535.236 L1019.33 535.236 L1019.33 499.218 Z" fill="#000000" fill-rule="nonzero" fill-opacity="1" /><path clip-path="url(#clip250)" d="M1036.62 531.347 L1036.62 545.097 L1032.34 545.097 L1032.34 509.311 L1036.62 509.311 L1036.62 513.246 Q1037.97 510.931 1040 509.82 Q1042.06 508.686 1044.91 508.686 Q1049.63 508.686 1052.57 512.436 Q1055.54 516.186 1055.54 522.297 Q1055.54 528.408 1052.57 532.158 Q1049.63 535.908 1044.91 535.908 Q1042.06 535.908 1040 534.797 Q1037.97 533.662 1036.62 531.347 M1051.11 522.297 Q1051.11 517.598 1049.17 514.936 Q1047.25 512.25 1043.87 512.25 Q1040.49 512.25 1038.54 514.936 Q1036.62 517.598 1036.62 522.297 Q1036.62 526.996 1038.54 529.681 Q1040.49 532.343 1043.87 532.343 Q1047.25 532.343 1049.17 529.681 Q1051.11 526.996 1051.11 522.297 Z" fill="#000000" fill-rule="nonzero" fill-opacity="1" /><path clip-path="url(#clip250)" d="M1061.92 499.264 L1065.63 499.264 Q1069.1 504.727 1070.81 509.959 Q1072.55 515.19 1072.55 520.352 Q1072.55 525.537 1070.81 530.792 Q1069.1 536.047 1065.63 541.486 L1061.92 541.486 Q1065 536.185 1066.51 530.954 Q1068.04 525.699 1068.04 520.352 Q1068.04 515.005 1066.51 509.797 Q1065 504.588 1061.92 499.264 Z" fill="#000000" fill-rule="nonzero" fill-opacity="1" /><path clip-path="url(#clip250)" d="M571.784 544.196 L546.184 569.796 L571.784 595.396 L597.384 569.796 L571.784 544.196 Z" fill="#008000" fill-rule="evenodd" fill-opacity="1" stroke="none"/>
<path clip-path="url(#clip250)" d="M726.07 551.104 Q722.968 556.428 721.463 561.637 Q719.959 566.845 719.959 572.192 Q719.959 577.539 721.463 582.794 Q722.991 588.025 726.07 593.326 L722.366 593.326 Q718.894 587.887 717.158 582.632 Q715.445 577.377 715.445 572.192 Q715.445 567.03 717.158 561.799 Q718.871 556.567 722.366 551.104 L726.07 551.104 Z" fill="#000000" fill-rule="nonzero" fill-opacity="1" /><path clip-path="url(#clip250)" d="M746.116 574.044 Q740.954 574.044 738.963 575.225 Q736.972 576.405 736.972 579.252 Q736.972 581.521 738.454 582.863 Q739.959 584.183 742.528 584.183 Q746.07 584.183 748.199 581.683 Q750.352 579.16 750.352 574.993 L750.352 574.044 L746.116 574.044 M754.611 572.285 L754.611 587.076 L750.352 587.076 L750.352 583.141 Q748.894 585.502 746.718 586.637 Q744.542 587.748 741.394 587.748 Q737.412 587.748 735.051 585.525 Q732.713 583.28 732.713 579.53 Q732.713 575.155 735.63 572.933 Q738.57 570.711 744.38 570.711 L750.352 570.711 L750.352 570.294 Q750.352 567.354 748.408 565.757 Q746.486 564.137 742.991 564.137 Q740.769 564.137 738.662 564.669 Q736.556 565.201 734.611 566.266 L734.611 562.331 Q736.949 561.428 739.148 560.989 Q741.347 560.526 743.431 560.526 Q749.056 560.526 751.834 563.442 Q754.611 566.359 754.611 572.285 Z" fill="#000000" fill-rule="nonzero" fill-opacity="1" /><path clip-path="url(#clip250)" d="M780.444 565.086 L780.444 551.058 L784.704 551.058 L784.704 587.076 L780.444 587.076 L780.444 583.187 Q779.102 585.502 777.042 586.637 Q775.005 587.748 772.134 587.748 Q767.435 587.748 764.472 583.998 Q761.533 580.248 761.533 574.137 Q761.533 568.026 764.472 564.276 Q767.435 560.526 772.134 560.526 Q775.005 560.526 777.042 561.66 Q779.102 562.771 780.444 565.086 M765.931 574.137 Q765.931 578.836 767.852 581.521 Q769.796 584.183 773.176 584.183 Q776.556 584.183 778.5 581.521 Q780.444 578.836 780.444 574.137 Q780.444 569.438 778.5 566.776 Q776.556 564.09 773.176 564.09 Q769.796 564.09 767.852 566.776 Q765.931 569.438 765.931 574.137 Z" fill="#000000" fill-rule="nonzero" fill-opacity="1" /><path clip-path="url(#clip250)" d="M815.028 571.428 L815.028 587.076 L810.768 587.076 L810.768 571.567 Q810.768 567.887 809.333 566.058 Q807.898 564.229 805.028 564.229 Q801.579 564.229 799.588 566.428 Q797.597 568.627 797.597 572.424 L797.597 587.076 L793.315 587.076 L793.315 561.151 L797.597 561.151 L797.597 565.178 Q799.125 562.84 801.185 561.683 Q803.268 560.526 805.977 560.526 Q810.444 560.526 812.736 563.303 Q815.028 566.058 815.028 571.428 Z" fill="#000000" fill-rule="nonzero" fill-opacity="1" /><path clip-path="url(#clip250)" d="M823.523 551.058 L827.782 551.058 L827.782 587.076 L823.523 587.076 L823.523 551.058 Z" fill="#000000" fill-rule="nonzero" fill-opacity="1" /><path clip-path="url(#clip250)" d="M840.815 583.187 L840.815 596.937 L836.532 596.937 L836.532 561.151 L840.815 561.151 L840.815 565.086 Q842.157 562.771 844.194 561.66 Q846.254 560.526 849.102 560.526 Q853.824 560.526 856.764 564.276 Q859.726 568.026 859.726 574.137 Q859.726 580.248 856.764 583.998 Q853.824 587.748 849.102 587.748 Q846.254 587.748 844.194 586.637 Q842.157 585.502 840.815 583.187 M855.305 574.137 Q855.305 569.438 853.361 566.776 Q851.439 564.09 848.06 564.09 Q844.68 564.09 842.736 566.776 Q840.815 569.438 840.815 574.137 Q840.815 578.836 842.736 581.521 Q844.68 584.183 848.06 584.183 Q851.439 584.183 853.361 581.521 Q855.305 578.836 855.305 574.137 Z" fill="#000000" fill-rule="nonzero" fill-opacity="1" /><path clip-path="url(#clip250)" d="M867.875 581.197 L872.759 581.197 L872.759 585.178 L868.963 592.586 L865.976 592.586 L867.875 585.178 L867.875 581.197 Z" fill="#000000" fill-rule="nonzero" fill-opacity="1" /><path clip-path="url(#clip250)" d="M917.11 566.127 Q918.708 563.257 920.93 561.891 Q923.152 560.526 926.161 560.526 Q930.212 560.526 932.411 563.373 Q934.61 566.197 934.61 571.428 L934.61 587.076 L930.328 587.076 L930.328 571.567 Q930.328 567.84 929.008 566.035 Q927.689 564.229 924.981 564.229 Q921.671 564.229 919.749 566.428 Q917.828 568.627 917.828 572.424 L917.828 587.076 L913.546 587.076 L913.546 571.567 Q913.546 567.817 912.226 566.035 Q910.907 564.229 908.152 564.229 Q904.888 564.229 902.967 566.451 Q901.046 568.651 901.046 572.424 L901.046 587.076 L896.763 587.076 L896.763 561.151 L901.046 561.151 L901.046 565.178 Q902.504 562.794 904.541 561.66 Q906.578 560.526 909.379 560.526 Q912.203 560.526 914.171 561.961 Q916.161 563.396 917.11 566.127 Z" fill="#000000" fill-rule="nonzero" fill-opacity="1" /><path clip-path="url(#clip250)" d="M954.888 574.044 Q949.726 574.044 947.735 575.225 Q945.745 576.405 945.745 579.252 Q945.745 581.521 947.226 582.863 Q948.731 584.183 951.3 584.183 Q954.842 584.183 956.971 581.683 Q959.124 579.16 959.124 574.993 L959.124 574.044 L954.888 574.044 M963.383 572.285 L963.383 587.076 L959.124 587.076 L959.124 583.141 Q957.666 585.502 955.49 586.637 Q953.314 587.748 950.166 587.748 Q946.184 587.748 943.823 585.525 Q941.485 583.28 941.485 579.53 Q941.485 575.155 944.402 572.933 Q947.342 570.711 953.152 570.711 L959.124 570.711 L959.124 570.294 Q959.124 567.354 957.18 565.757 Q955.258 564.137 951.763 564.137 Q949.541 564.137 947.434 564.669 Q945.328 565.201 943.383 566.266 L943.383 562.331 Q945.721 561.428 947.92 560.989 Q950.119 560.526 952.203 560.526 Q957.828 560.526 960.606 563.442 Q963.383 566.359 963.383 572.285 Z" fill="#000000" fill-rule="nonzero" fill-opacity="1" /><path clip-path="url(#clip250)" d="M989.217 565.086 L989.217 551.058 L993.476 551.058 L993.476 587.076 L989.217 587.076 L989.217 583.187 Q987.874 585.502 985.814 586.637 Q983.777 587.748 980.906 587.748 Q976.207 587.748 973.244 583.998 Q970.305 580.248 970.305 574.137 Q970.305 568.026 973.244 564.276 Q976.207 560.526 980.906 560.526 Q983.777 560.526 985.814 561.66 Q987.874 562.771 989.217 565.086 M974.703 574.137 Q974.703 578.836 976.624 581.521 Q978.568 584.183 981.948 584.183 Q985.328 584.183 987.272 581.521 Q989.217 578.836 989.217 574.137 Q989.217 569.438 987.272 566.776 Q985.328 564.09 981.948 564.09 Q978.568 564.09 976.624 566.776 Q974.703 569.438 974.703 574.137 Z" fill="#000000" fill-rule="nonzero" fill-opacity="1" /><path clip-path="url(#clip250)" d="M1023.8 571.428 L1023.8 587.076 L1019.54 587.076 L1019.54 571.567 Q1019.54 567.887 1018.11 566.058 Q1016.67 564.229 1013.8 564.229 Q1010.35 564.229 1008.36 566.428 Q1006.37 568.627 1006.37 572.424 L1006.37 587.076 L1002.09 587.076 L1002.09 561.151 L1006.37 561.151 L1006.37 565.178 Q1007.9 562.84 1009.96 561.683 Q1012.04 560.526 1014.75 560.526 Q1019.22 560.526 1021.51 563.303 Q1023.8 566.058 1023.8 571.428 Z" fill="#000000" fill-rule="nonzero" fill-opacity="1" /><path clip-path="url(#clip250)" d="M1032.29 551.058 L1036.55 551.058 L1036.55 587.076 L1032.29 587.076 L1032.29 551.058 Z" fill="#000000" fill-rule="nonzero" fill-opacity="1" /><path clip-path="url(#clip250)" d="M1049.59 583.187 L1049.59 596.937 L1045.3 596.937 L1045.3 561.151 L1049.59 561.151 L1049.59 565.086 Q1050.93 562.771 1052.97 561.66 Q1055.03 560.526 1057.87 560.526 Q1062.6 560.526 1065.54 564.276 Q1068.5 568.026 1068.5 574.137 Q1068.5 580.248 1065.54 583.998 Q1062.6 587.748 1057.87 587.748 Q1055.03 587.748 1052.97 586.637 Q1050.93 585.502 1049.59 583.187 M1064.08 574.137 Q1064.08 569.438 1062.13 566.776 Q1060.21 564.09 1056.83 564.09 Q1053.45 564.09 1051.51 566.776 Q1049.59 569.438 1049.59 574.137 Q1049.59 578.836 1051.51 581.521 Q1053.45 584.183 1056.83 584.183 Q1060.21 584.183 1062.13 581.521 Q1064.08 578.836 1064.08 574.137 Z" fill="#000000" fill-rule="nonzero" fill-opacity="1" /><path clip-path="url(#clip250)" d="M1074.89 551.104 L1078.59 551.104 Q1082.06 556.567 1083.78 561.799 Q1085.51 567.03 1085.51 572.192 Q1085.51 577.377 1083.78 582.632 Q1082.06 587.887 1078.59 593.326 L1074.89 593.326 Q1077.97 588.025 1079.47 582.794 Q1081 577.539 1081 572.192 Q1081 566.845 1079.47 561.637 Q1077.97 556.428 1074.89 551.104 Z" fill="#000000" fill-rule="nonzero" fill-opacity="1" /><path clip-path="url(#clip250)" d="M571.784 596.036 L546.184 647.236 L597.384 647.236 L571.784 596.036 Z" fill="#ffa500" fill-rule="evenodd" fill-opacity="1" stroke="none"/>
<path clip-path="url(#clip250)" d="M726.07 602.944 Q722.968 608.268 721.463 613.477 Q719.959 618.685 719.959 624.032 Q719.959 629.379 721.463 634.634 Q722.991 639.865 726.07 645.166 L722.366 645.166 Q718.894 639.727 717.158 634.472 Q715.445 629.217 715.445 624.032 Q715.445 618.87 717.158 613.639 Q718.871 608.407 722.366 602.944 L726.07 602.944 Z" fill="#000000" fill-rule="nonzero" fill-opacity="1" /><path clip-path="url(#clip250)" d="M756.509 624.889 L756.509 626.972 L736.926 626.972 Q737.204 631.37 739.565 633.685 Q741.949 635.977 746.185 635.977 Q748.639 635.977 750.931 635.375 Q753.246 634.773 755.514 633.569 L755.514 637.597 Q753.222 638.569 750.815 639.078 Q748.408 639.588 745.931 639.588 Q739.727 639.588 736.093 635.977 Q732.482 632.365 732.482 626.208 Q732.482 619.842 735.908 616.116 Q739.357 612.366 745.19 612.366 Q750.421 612.366 753.454 615.745 Q756.509 619.102 756.509 624.889 M752.25 623.639 Q752.204 620.143 750.283 618.06 Q748.384 615.977 745.236 615.977 Q741.672 615.977 739.519 617.991 Q737.389 620.004 737.065 623.662 L752.25 623.639 Z" fill="#000000" fill-rule="nonzero" fill-opacity="1" /><path clip-path="url(#clip250)" d="M784.218 612.991 L774.843 625.606 L784.704 638.916 L779.681 638.916 L772.134 628.731 L764.588 638.916 L759.565 638.916 L769.634 625.352 L760.421 612.991 L765.445 612.991 L772.32 622.227 L779.194 612.991 L784.218 612.991 Z" fill="#000000" fill-rule="nonzero" fill-opacity="1" /><path clip-path="url(#clip250)" d="M802.505 625.884 Q797.343 625.884 795.352 627.065 Q793.361 628.245 793.361 631.092 Q793.361 633.361 794.843 634.703 Q796.347 636.023 798.917 636.023 Q802.458 636.023 804.588 633.523 Q806.741 631 806.741 626.833 L806.741 625.884 L802.505 625.884 M811 624.125 L811 638.916 L806.741 638.916 L806.741 634.981 Q805.282 637.342 803.106 638.477 Q800.93 639.588 797.782 639.588 Q793.801 639.588 791.44 637.365 Q789.102 635.12 789.102 631.37 Q789.102 626.995 792.018 624.773 Q794.958 622.551 800.768 622.551 L806.741 622.551 L806.741 622.134 Q806.741 619.194 804.796 617.597 Q802.875 615.977 799.38 615.977 Q797.157 615.977 795.051 616.509 Q792.944 617.041 791 618.106 L791 614.171 Q793.338 613.268 795.537 612.829 Q797.736 612.366 799.819 612.366 Q805.444 612.366 808.222 615.282 Q811 618.199 811 624.125 Z" fill="#000000" fill-rule="nonzero" fill-opacity="1" /><path clip-path="url(#clip250)" d="M820.861 633.037 L825.745 633.037 L825.745 637.018 L821.949 644.426 L818.963 644.426 L820.861 637.018 L820.861 633.037 Z" fill="#000000" fill-rule="nonzero" fill-opacity="1" /><path clip-path="url(#clip250)" d="M870.097 617.967 Q871.694 615.097 873.916 613.731 Q876.138 612.366 879.148 612.366 Q883.199 612.366 885.398 615.213 Q887.597 618.037 887.597 623.268 L887.597 638.916 L883.314 638.916 L883.314 623.407 Q883.314 619.68 881.995 617.875 Q880.675 616.069 877.967 616.069 Q874.657 616.069 872.736 618.268 Q870.814 620.467 870.814 624.264 L870.814 638.916 L866.532 638.916 L866.532 623.407 Q866.532 619.657 865.213 617.875 Q863.893 616.069 861.138 616.069 Q857.875 616.069 855.953 618.291 Q854.032 620.491 854.032 624.264 L854.032 638.916 L849.75 638.916 L849.75 612.991 L854.032 612.991 L854.032 617.018 Q855.49 614.634 857.527 613.5 Q859.564 612.366 862.365 612.366 Q865.189 612.366 867.157 613.801 Q869.148 615.236 870.097 617.967 Z" fill="#000000" fill-rule="nonzero" fill-opacity="1" /><path clip-path="url(#clip250)" d="M907.874 625.884 Q902.712 625.884 900.722 627.065 Q898.731 628.245 898.731 631.092 Q898.731 633.361 900.212 634.703 Q901.717 636.023 904.286 636.023 Q907.828 636.023 909.958 633.523 Q912.11 631 912.11 626.833 L912.11 625.884 L907.874 625.884 M916.37 624.125 L916.37 638.916 L912.11 638.916 L912.11 634.981 Q910.652 637.342 908.476 638.477 Q906.3 639.588 903.152 639.588 Q899.171 639.588 896.81 637.365 Q894.472 635.12 894.472 631.37 Q894.472 626.995 897.388 624.773 Q900.328 622.551 906.138 622.551 L912.11 622.551 L912.11 622.134 Q912.11 619.194 910.166 617.597 Q908.245 615.977 904.749 615.977 Q902.527 615.977 900.421 616.509 Q898.314 617.041 896.37 618.106 L896.37 614.171 Q898.708 613.268 900.907 612.829 Q903.106 612.366 905.189 612.366 Q910.814 612.366 913.592 615.282 Q916.37 618.199 916.37 624.125 Z" fill="#000000" fill-rule="nonzero" fill-opacity="1" /><path clip-path="url(#clip250)" d="M942.203 616.926 L942.203 602.898 L946.462 602.898 L946.462 638.916 L942.203 638.916 L942.203 635.027 Q940.86 637.342 938.8 638.477 Q936.763 639.588 933.893 639.588 Q929.194 639.588 926.231 635.838 Q923.291 632.088 923.291 625.977 Q923.291 619.866 926.231 616.116 Q929.194 612.366 933.893 612.366 Q936.763 612.366 938.8 613.5 Q940.86 614.611 942.203 616.926 M927.689 625.977 Q927.689 630.676 929.61 633.361 Q931.555 636.023 934.934 636.023 Q938.314 636.023 940.258 633.361 Q942.203 630.676 942.203 625.977 Q942.203 621.278 940.258 618.616 Q938.314 615.93 934.934 615.93 Q931.555 615.93 929.61 618.616 Q927.689 621.278 927.689 625.977 Z" fill="#000000" fill-rule="nonzero" fill-opacity="1" /><path clip-path="url(#clip250)" d="M976.786 623.268 L976.786 638.916 L972.527 638.916 L972.527 623.407 Q972.527 619.727 971.092 617.898 Q969.656 616.069 966.786 616.069 Q963.337 616.069 961.346 618.268 Q959.356 620.467 959.356 624.264 L959.356 638.916 L955.073 638.916 L955.073 612.991 L959.356 612.991 L959.356 617.018 Q960.883 614.68 962.944 613.523 Q965.027 612.366 967.735 612.366 Q972.203 612.366 974.494 615.143 Q976.786 617.898 976.786 623.268 Z" fill="#000000" fill-rule="nonzero" fill-opacity="1" /><path clip-path="url(#clip250)" d="M985.281 602.898 L989.541 602.898 L989.541 638.916 L985.281 638.916 L985.281 602.898 Z" fill="#000000" fill-rule="nonzero" fill-opacity="1" /><path clip-path="url(#clip250)" d="M1002.57 635.027 L1002.57 648.777 L998.291 648.777 L998.291 612.991 L1002.57 612.991 L1002.57 616.926 Q1003.92 614.611 1005.95 613.5 Q1008.01 612.366 1010.86 612.366 Q1015.58 612.366 1018.52 616.116 Q1021.48 619.866 1021.48 625.977 Q1021.48 632.088 1018.52 635.838 Q1015.58 639.588 1010.86 639.588 Q1008.01 639.588 1005.95 638.477 Q1003.92 637.342 1002.57 635.027 M1017.06 625.977 Q1017.06 621.278 1015.12 618.616 Q1013.2 615.93 1009.82 615.93 Q1006.44 615.93 1004.49 618.616 Q1002.57 621.278 1002.57 625.977 Q1002.57 630.676 1004.49 633.361 Q1006.44 636.023 1009.82 636.023 Q1013.2 636.023 1015.12 633.361 Q1017.06 630.676 1017.06 625.977 Z" fill="#000000" fill-rule="nonzero" fill-opacity="1" /><path clip-path="url(#clip250)" d="M1027.87 602.944 L1031.58 602.944 Q1035.05 608.407 1036.76 613.639 Q1038.5 618.87 1038.5 624.032 Q1038.5 629.217 1036.76 634.472 Q1035.05 639.727 1031.58 645.166 L1027.87 645.166 Q1030.95 639.865 1032.46 634.634 Q1033.98 629.379 1033.98 624.032 Q1033.98 618.685 1032.46 613.477 Q1030.95 608.268 1027.87 602.944 Z" fill="#000000" fill-rule="nonzero" fill-opacity="1" /></svg>
