<?xml version="1.0" encoding="utf-8"?>
<svg xmlns="http://www.w3.org/2000/svg" xmlns:xlink="http://www.w3.org/1999/xlink" width="900" height="600" viewBox="0 0 3600 2400">
<defs>
  <clipPath id="clip300">
    <rect x="0" y="0" width="3600" height="2400"/>
  </clipPath>
</defs>
<path clip-path="url(#clip300)" d="M0 2400 L3600 2400 L3600 0 L0 0  Z" fill="#ffffff" fill-rule="evenodd" fill-opacity="1"/>
<defs>
  <clipPath id="clip301">
    <rect x="322" y="246" width="3232" height="1911"/>
  </clipPath>
</defs>
<path clip-path="url(#clip300)" d="M359.791 2156.51 L3552.76 2156.51 L3552.76 246.944 L359.791 246.944  Z" fill="#ffffff" fill-rule="evenodd" fill-opacity="1"/>
<defs>
  <clipPath id="clip302">
    <rect x="359" y="246" width="3194" height="1911"/>
  </clipPath>
</defs>
<polyline clip-path="url(#clip302)" style="stroke:#000000; stroke-linecap:round; stroke-linejoin:round; stroke-width:2; stroke-opacity:0.1; fill:none" points="504.926,2156.51 504.926,246.944 "/>
<polyline clip-path="url(#clip302)" style="stroke:#000000; stroke-linecap:round; stroke-linejoin:round; stroke-width:2; stroke-opacity:0.1; fill:none" points="1660.02,2156.51 1660.02,246.944 "/>
<polyline clip-path="url(#clip302)" style="stroke:#000000; stroke-linecap:round; stroke-linejoin:round; stroke-width:2; stroke-opacity:0.1; fill:none" points="2533.82,2156.51 2533.82,246.944 "/>
<polyline clip-path="url(#clip302)" style="stroke:#000000; stroke-linecap:round; stroke-linejoin:round; stroke-width:2; stroke-opacity:0.1; fill:none" points="3407.62,2156.51 3407.62,246.944 "/>
<polyline clip-path="url(#clip302)" style="stroke:#000000; stroke-linecap:round; stroke-linejoin:round; stroke-width:2; stroke-opacity:0.1; fill:none" points="359.791,1990.67 3552.76,1990.67 "/>
<polyline clip-path="url(#clip302)" style="stroke:#000000; stroke-linecap:round; stroke-linejoin:round; stroke-width:2; stroke-opacity:0.1; fill:none" points="359.791,1294.19 3552.76,1294.19 "/>
<polyline clip-path="url(#clip302)" style="stroke:#000000; stroke-linecap:round; stroke-linejoin:round; stroke-width:2; stroke-opacity:0.1; fill:none" points="359.791,597.713 3552.76,597.713 "/>
<polyline clip-path="url(#clip300)" style="stroke:#000000; stroke-linecap:round; stroke-linejoin:round; stroke-width:4; stroke-opacity:1; fill:none" points="359.791,2156.51 3552.76,2156.51 "/>
<polyline clip-path="url(#clip300)" style="stroke:#000000; stroke-linecap:round; stroke-linejoin:round; stroke-width:4; stroke-opacity:1; fill:none" points="504.926,2156.51 504.926,2137.61 "/>
<polyline clip-path="url(#clip300)" style="stroke:#000000; stroke-linecap:round; stroke-linejoin:round; stroke-width:4; stroke-opacity:1; fill:none" points="1660.02,2156.51 1660.02,2137.61 "/>
<polyline clip-path="url(#clip300)" style="stroke:#000000; stroke-linecap:round; stroke-linejoin:round; stroke-width:4; stroke-opacity:1; fill:none" points="2533.82,2156.51 2533.82,2137.61 "/>
<polyline clip-path="url(#clip300)" style="stroke:#000000; stroke-linecap:round; stroke-linejoin:round; stroke-width:4; stroke-opacity:1; fill:none" points="3407.62,2156.51 3407.62,2137.61 "/>
<path clip-path="url(#clip300)" d="M468.619 2224.57 L484.938 2224.57 L484.938 2228.51 L462.994 2228.51 L462.994 2224.57 Q465.656 2221.82 470.239 2217.19 Q474.845 2212.54 476.026 2211.19 Q478.271 2208.67 479.151 2206.93 Q480.054 2205.17 480.054 2203.48 Q480.054 2200.73 478.109 2198.99 Q476.188 2197.26 473.086 2197.26 Q470.887 2197.26 468.433 2198.02 Q466.003 2198.79 463.225 2200.34 L463.225 2195.61 Q466.049 2194.48 468.503 2193.9 Q470.957 2193.32 472.994 2193.32 Q478.364 2193.32 481.558 2196.01 Q484.753 2198.69 484.753 2203.18 Q484.753 2205.31 483.943 2207.23 Q483.156 2209.13 481.049 2211.73 Q480.47 2212.4 477.369 2215.61 Q474.267 2218.81 468.619 2224.57 Z" fill="#000000" fill-rule="nonzero" fill-opacity="1" /><path clip-path="url(#clip300)" d="M504.753 2197.03 Q501.142 2197.03 499.313 2200.59 Q497.507 2204.13 497.507 2211.26 Q497.507 2218.37 499.313 2221.93 Q501.142 2225.48 504.753 2225.48 Q508.387 2225.48 510.192 2221.93 Q512.021 2218.37 512.021 2211.26 Q512.021 2204.13 510.192 2200.59 Q508.387 2197.03 504.753 2197.03 M504.753 2193.32 Q510.563 2193.32 513.618 2197.93 Q516.697 2202.51 516.697 2211.26 Q516.697 2219.99 513.618 2224.6 Q510.563 2229.18 504.753 2229.18 Q498.942 2229.18 495.864 2224.6 Q492.808 2219.99 492.808 2211.26 Q492.808 2202.51 495.864 2197.93 Q498.942 2193.32 504.753 2193.32 Z" fill="#000000" fill-rule="nonzero" fill-opacity="1" /><path clip-path="url(#clip300)" d="M534.915 2197.03 Q531.303 2197.03 529.475 2200.59 Q527.669 2204.13 527.669 2211.26 Q527.669 2218.37 529.475 2221.93 Q531.303 2225.48 534.915 2225.48 Q538.549 2225.48 540.354 2221.93 Q542.183 2218.37 542.183 2211.26 Q542.183 2204.13 540.354 2200.59 Q538.549 2197.03 534.915 2197.03 M534.915 2193.32 Q540.725 2193.32 543.78 2197.93 Q546.859 2202.51 546.859 2211.26 Q546.859 2219.99 543.78 2224.6 Q540.725 2229.18 534.915 2229.18 Q529.104 2229.18 526.026 2224.6 Q522.97 2219.99 522.97 2211.26 Q522.97 2202.51 526.026 2197.93 Q529.104 2193.32 534.915 2193.32 Z" fill="#000000" fill-rule="nonzero" fill-opacity="1" /><path clip-path="url(#clip300)" d="M1619.64 2193.95 L1638 2193.95 L1638 2197.88 L1623.93 2197.88 L1623.93 2206.36 Q1624.94 2206.01 1625.96 2205.85 Q1626.98 2205.66 1628 2205.66 Q1633.79 2205.66 1637.17 2208.83 Q1640.55 2212 1640.55 2217.42 Q1640.55 2223 1637.07 2226.1 Q1633.6 2229.18 1627.28 2229.18 Q1625.11 2229.18 1622.84 2228.81 Q1620.59 2228.44 1618.18 2227.7 L1618.18 2223 Q1620.27 2224.13 1622.49 2224.69 Q1624.71 2225.24 1627.19 2225.24 Q1631.19 2225.24 1633.53 2223.14 Q1635.87 2221.03 1635.87 2217.42 Q1635.87 2213.81 1633.53 2211.7 Q1631.19 2209.6 1627.19 2209.6 Q1625.31 2209.6 1623.44 2210.01 Q1621.59 2210.43 1619.64 2211.31 L1619.64 2193.95 Z" fill="#000000" fill-rule="nonzero" fill-opacity="1" /><path clip-path="url(#clip300)" d="M1659.76 2197.03 Q1656.15 2197.03 1654.32 2200.59 Q1652.51 2204.13 1652.51 2211.26 Q1652.51 2218.37 1654.32 2221.93 Q1656.15 2225.48 1659.76 2225.48 Q1663.39 2225.48 1665.2 2221.93 Q1667.03 2218.37 1667.03 2211.26 Q1667.03 2204.13 1665.2 2200.59 Q1663.39 2197.03 1659.76 2197.03 M1659.76 2193.32 Q1665.57 2193.32 1668.62 2197.93 Q1671.7 2202.51 1671.7 2211.26 Q1671.7 2219.99 1668.62 2224.6 Q1665.57 2229.18 1659.76 2229.18 Q1653.95 2229.18 1650.87 2224.6 Q1647.81 2219.99 1647.81 2211.26 Q1647.81 2202.51 1650.87 2197.93 Q1653.95 2193.32 1659.76 2193.32 Z" fill="#000000" fill-rule="nonzero" fill-opacity="1" /><path clip-path="url(#clip300)" d="M1689.92 2197.03 Q1686.31 2197.03 1684.48 2200.59 Q1682.68 2204.13 1682.68 2211.26 Q1682.68 2218.37 1684.48 2221.93 Q1686.31 2225.48 1689.92 2225.48 Q1693.55 2225.48 1695.36 2221.93 Q1697.19 2218.37 1697.19 2211.26 Q1697.19 2204.13 1695.36 2200.59 Q1693.55 2197.03 1689.92 2197.03 M1689.92 2193.32 Q1695.73 2193.32 1698.79 2197.93 Q1701.86 2202.51 1701.86 2211.26 Q1701.86 2219.99 1698.79 2224.6 Q1695.73 2229.18 1689.92 2229.18 Q1684.11 2229.18 1681.03 2224.6 Q1677.98 2219.99 1677.98 2211.26 Q1677.98 2202.51 1681.03 2197.93 Q1684.11 2193.32 1689.92 2193.32 Z" fill="#000000" fill-rule="nonzero" fill-opacity="1" /><path clip-path="url(#clip300)" d="M2478.35 2224.57 L2485.99 2224.57 L2485.99 2198.21 L2477.68 2199.87 L2477.68 2195.61 L2485.94 2193.95 L2490.62 2193.95 L2490.62 2224.57 L2498.26 2224.57 L2498.26 2228.51 L2478.35 2228.51 L2478.35 2224.57 Z" fill="#000000" fill-rule="nonzero" fill-opacity="1" /><path clip-path="url(#clip300)" d="M2517.7 2197.03 Q2514.09 2197.03 2512.26 2200.59 Q2510.45 2204.13 2510.45 2211.26 Q2510.45 2218.37 2512.26 2221.93 Q2514.09 2225.48 2517.7 2225.48 Q2521.33 2225.48 2523.14 2221.93 Q2524.97 2218.37 2524.97 2211.26 Q2524.97 2204.13 2523.14 2200.59 Q2521.33 2197.03 2517.7 2197.03 M2517.7 2193.32 Q2523.51 2193.32 2526.57 2197.93 Q2529.64 2202.51 2529.64 2211.26 Q2529.64 2219.99 2526.57 2224.6 Q2523.51 2229.18 2517.7 2229.18 Q2511.89 2229.18 2508.81 2224.6 Q2505.76 2219.99 2505.76 2211.26 Q2505.76 2202.51 2508.81 2197.93 Q2511.89 2193.32 2517.7 2193.32 Z" fill="#000000" fill-rule="nonzero" fill-opacity="1" /><path clip-path="url(#clip300)" d="M2547.86 2197.03 Q2544.25 2197.03 2542.42 2200.59 Q2540.62 2204.13 2540.62 2211.26 Q2540.62 2218.37 2542.42 2221.93 Q2544.25 2225.48 2547.86 2225.48 Q2551.5 2225.48 2553.3 2221.93 Q2555.13 2218.37 2555.13 2211.26 Q2555.13 2204.13 2553.3 2200.59 Q2551.5 2197.03 2547.86 2197.03 M2547.86 2193.32 Q2553.67 2193.32 2556.73 2197.93 Q2559.81 2202.51 2559.81 2211.26 Q2559.81 2219.99 2556.73 2224.6 Q2553.67 2229.18 2547.86 2229.18 Q2542.05 2229.18 2538.97 2224.6 Q2535.92 2219.99 2535.92 2211.26 Q2535.92 2202.51 2538.97 2197.93 Q2542.05 2193.32 2547.86 2193.32 Z" fill="#000000" fill-rule="nonzero" fill-opacity="1" /><path clip-path="url(#clip300)" d="M2578.02 2197.03 Q2574.41 2197.03 2572.58 2200.59 Q2570.78 2204.13 2570.78 2211.26 Q2570.78 2218.37 2572.58 2221.93 Q2574.41 2225.48 2578.02 2225.48 Q2581.66 2225.48 2583.46 2221.93 Q2585.29 2218.37 2585.29 2211.26 Q2585.29 2204.13 2583.46 2200.59 Q2581.66 2197.03 2578.02 2197.03 M2578.02 2193.32 Q2583.83 2193.32 2586.89 2197.93 Q2589.97 2202.51 2589.97 2211.26 Q2589.97 2219.99 2586.89 2224.6 Q2583.83 2229.18 2578.02 2229.18 Q2572.21 2229.18 2569.14 2224.6 Q2566.08 2219.99 2566.08 2211.26 Q2566.08 2202.51 2569.14 2197.93 Q2572.21 2193.32 2578.02 2193.32 Z" fill="#000000" fill-rule="nonzero" fill-opacity="1" /><path clip-path="url(#clip300)" d="M3356.23 2224.57 L3372.55 2224.57 L3372.55 2228.51 L3350.61 2228.51 L3350.61 2224.57 Q3353.27 2221.82 3357.85 2217.19 Q3362.46 2212.54 3363.64 2211.19 Q3365.89 2208.67 3366.76 2206.93 Q3367.67 2205.17 3367.67 2203.48 Q3367.67 2200.73 3365.72 2198.99 Q3363.8 2197.26 3360.7 2197.26 Q3358.5 2197.26 3356.05 2198.02 Q3353.62 2198.79 3350.84 2200.34 L3350.84 2195.61 Q3353.66 2194.48 3356.12 2193.9 Q3358.57 2193.32 3360.61 2193.32 Q3365.98 2193.32 3369.17 2196.01 Q3372.37 2198.69 3372.37 2203.18 Q3372.37 2205.31 3371.56 2207.23 Q3370.77 2209.13 3368.66 2211.73 Q3368.08 2212.4 3364.98 2215.61 Q3361.88 2218.81 3356.23 2224.57 Z" fill="#000000" fill-rule="nonzero" fill-opacity="1" /><path clip-path="url(#clip300)" d="M3392.37 2197.03 Q3388.76 2197.03 3386.93 2200.59 Q3385.12 2204.13 3385.12 2211.26 Q3385.12 2218.37 3386.93 2221.93 Q3388.76 2225.48 3392.37 2225.48 Q3396 2225.48 3397.81 2221.93 Q3399.64 2218.37 3399.64 2211.26 Q3399.64 2204.13 3397.81 2200.59 Q3396 2197.03 3392.37 2197.03 M3392.37 2193.32 Q3398.18 2193.32 3401.23 2197.93 Q3404.31 2202.51 3404.31 2211.26 Q3404.31 2219.99 3401.23 2224.6 Q3398.18 2229.18 3392.37 2229.18 Q3386.56 2229.18 3383.48 2224.6 Q3380.42 2219.99 3380.42 2211.26 Q3380.42 2202.51 3383.48 2197.93 Q3386.56 2193.32 3392.37 2193.32 Z" fill="#000000" fill-rule="nonzero" fill-opacity="1" /><path clip-path="url(#clip300)" d="M3422.53 2197.03 Q3418.92 2197.03 3417.09 2200.59 Q3415.28 2204.13 3415.28 2211.26 Q3415.28 2218.37 3417.09 2221.93 Q3418.92 2225.48 3422.53 2225.48 Q3426.16 2225.48 3427.97 2221.93 Q3429.8 2218.37 3429.8 2211.26 Q3429.8 2204.13 3427.97 2200.59 Q3426.16 2197.03 3422.53 2197.03 M3422.53 2193.32 Q3428.34 2193.32 3431.39 2197.93 Q3434.47 2202.51 3434.47 2211.26 Q3434.47 2219.99 3431.39 2224.6 Q3428.34 2229.18 3422.53 2229.18 Q3416.72 2229.18 3413.64 2224.6 Q3410.58 2219.99 3410.58 2211.26 Q3410.58 2202.51 3413.64 2197.93 Q3416.72 2193.32 3422.53 2193.32 Z" fill="#000000" fill-rule="nonzero" fill-opacity="1" /><path clip-path="url(#clip300)" d="M3452.69 2197.03 Q3449.08 2197.03 3447.25 2200.59 Q3445.45 2204.13 3445.45 2211.26 Q3445.45 2218.37 3447.25 2221.93 Q3449.08 2225.48 3452.69 2225.48 Q3456.32 2225.48 3458.13 2221.93 Q3459.96 2218.37 3459.96 2211.26 Q3459.96 2204.13 3458.13 2200.59 Q3456.32 2197.03 3452.69 2197.03 M3452.69 2193.32 Q3458.5 2193.32 3461.56 2197.93 Q3464.63 2202.51 3464.63 2211.26 Q3464.63 2219.99 3461.56 2224.6 Q3458.5 2229.18 3452.69 2229.18 Q3446.88 2229.18 3443.8 2224.6 Q3440.75 2219.99 3440.75 2211.26 Q3440.75 2202.51 3443.8 2197.93 Q3446.88 2193.32 3452.69 2193.32 Z" fill="#000000" fill-rule="nonzero" fill-opacity="1" /><path clip-path="url(#clip300)" d="M1832.16 2308.02 L1832.16 2296.42 L1822.61 2296.42 L1822.61 2291.62 L1837.94 2291.62 L1837.94 2310.17 Q1834.56 2312.57 1830.48 2313.81 Q1826.4 2315.03 1821.77 2315.03 Q1811.64 2315.03 1805.91 2309.12 Q1800.21 2303.19 1800.21 2292.63 Q1800.21 2282.04 1805.91 2276.14 Q1811.64 2270.21 1821.77 2270.21 Q1825.99 2270.21 1829.78 2271.25 Q1833.6 2272.29 1836.82 2274.32 L1836.82 2280.54 Q1833.57 2277.79 1829.93 2276.4 Q1826.28 2275.01 1822.26 2275.01 Q1814.33 2275.01 1810.34 2279.44 Q1806.38 2283.86 1806.38 2292.63 Q1806.38 2301.37 1810.34 2305.8 Q1814.33 2310.22 1822.26 2310.22 Q1825.36 2310.22 1827.79 2309.7 Q1830.22 2309.15 1832.16 2308.02 Z" fill="#000000" fill-rule="nonzero" fill-opacity="1" /><path clip-path="url(#clip300)" d="M1867.17 2286.76 Q1866.27 2286.24 1865.2 2286 Q1864.16 2285.74 1862.89 2285.74 Q1858.37 2285.74 1855.94 2288.7 Q1853.54 2291.62 1853.54 2297.12 L1853.54 2314.19 L1848.19 2314.19 L1848.19 2281.78 L1853.54 2281.78 L1853.54 2286.82 Q1855.22 2283.86 1857.91 2282.45 Q1860.6 2281 1864.45 2281 Q1865 2281 1865.66 2281.09 Q1866.33 2281.14 1867.14 2281.29 L1867.17 2286.76 Z" fill="#000000" fill-rule="nonzero" fill-opacity="1" /><path clip-path="url(#clip300)" d="M1872.75 2281.78 L1878.08 2281.78 L1878.08 2314.19 L1872.75 2314.19 L1872.75 2281.78 M1872.75 2269.16 L1878.08 2269.16 L1878.08 2275.91 L1872.75 2275.91 L1872.75 2269.16 Z" fill="#000000" fill-rule="nonzero" fill-opacity="1" /><path clip-path="url(#clip300)" d="M1910.54 2286.7 L1910.54 2269.16 L1915.87 2269.16 L1915.87 2314.19 L1910.54 2314.19 L1910.54 2309.33 Q1908.86 2312.22 1906.29 2313.64 Q1903.74 2315.03 1900.15 2315.03 Q1894.28 2315.03 1890.58 2310.34 Q1886.9 2305.65 1886.9 2298.01 Q1886.9 2290.37 1890.58 2285.69 Q1894.28 2281 1900.15 2281 Q1903.74 2281 1906.29 2282.42 Q1908.86 2283.81 1910.54 2286.7 M1892.4 2298.01 Q1892.4 2303.89 1894.8 2307.24 Q1897.23 2310.57 1901.46 2310.57 Q1905.68 2310.57 1908.11 2307.24 Q1910.54 2303.89 1910.54 2298.01 Q1910.54 2292.14 1908.11 2288.81 Q1905.68 2285.46 1901.46 2285.46 Q1897.23 2285.46 1894.8 2288.81 Q1892.4 2292.14 1892.4 2298.01 Z" fill="#000000" fill-rule="nonzero" fill-opacity="1" /><path clip-path="url(#clip300)" d="M1966.33 2282.74 L1966.33 2287.77 Q1964.07 2286.61 1961.64 2286.03 Q1959.21 2285.46 1956.61 2285.46 Q1952.64 2285.46 1950.65 2286.67 Q1948.68 2287.89 1948.68 2290.32 Q1948.68 2292.17 1950.1 2293.24 Q1951.51 2294.28 1955.8 2295.24 L1957.62 2295.64 Q1963.29 2296.86 1965.66 2299.08 Q1968.06 2301.28 1968.06 2305.25 Q1968.06 2309.76 1964.48 2312.39 Q1960.92 2315.03 1954.67 2315.03 Q1952.06 2315.03 1949.23 2314.51 Q1946.42 2314.01 1943.3 2313 L1943.3 2307.5 Q1946.25 2309.04 1949.11 2309.82 Q1951.98 2310.57 1954.78 2310.57 Q1958.55 2310.57 1960.57 2309.3 Q1962.6 2308 1962.6 2305.65 Q1962.6 2303.48 1961.12 2302.32 Q1959.67 2301.17 1954.73 2300.1 L1952.87 2299.66 Q1947.93 2298.62 1945.73 2296.48 Q1943.53 2294.31 1943.53 2290.55 Q1943.53 2285.98 1946.77 2283.49 Q1950.01 2281 1955.97 2281 Q1958.92 2281 1961.53 2281.43 Q1964.13 2281.87 1966.33 2282.74 Z" fill="#000000" fill-rule="nonzero" fill-opacity="1" /><path clip-path="url(#clip300)" d="M1976.54 2281.78 L1981.87 2281.78 L1981.87 2314.19 L1976.54 2314.19 L1976.54 2281.78 M1976.54 2269.16 L1981.87 2269.16 L1981.87 2275.91 L1976.54 2275.91 L1976.54 2269.16 Z" fill="#000000" fill-rule="nonzero" fill-opacity="1" /><path clip-path="url(#clip300)" d="M1990.69 2281.78 L2015.98 2281.78 L2015.98 2286.64 L1995.96 2309.93 L2015.98 2309.93 L2015.98 2314.19 L1989.97 2314.19 L1989.97 2309.33 L2009.99 2286.03 L1990.69 2286.03 L1990.69 2281.78 Z" fill="#000000" fill-rule="nonzero" fill-opacity="1" /><path clip-path="url(#clip300)" d="M2051.83 2296.65 L2051.83 2299.26 L2027.35 2299.26 Q2027.7 2304.75 2030.65 2307.65 Q2033.63 2310.51 2038.93 2310.51 Q2041.99 2310.51 2044.86 2309.76 Q2047.75 2309.01 2050.59 2307.5 L2050.59 2312.54 Q2047.72 2313.75 2044.71 2314.39 Q2041.7 2315.03 2038.61 2315.03 Q2030.85 2315.03 2026.31 2310.51 Q2021.8 2306 2021.8 2298.3 Q2021.8 2290.35 2026.08 2285.69 Q2030.39 2281 2037.68 2281 Q2044.22 2281 2048.01 2285.22 Q2051.83 2289.42 2051.83 2296.65 M2046.51 2295.09 Q2046.45 2290.72 2044.05 2288.12 Q2041.68 2285.51 2037.74 2285.51 Q2033.28 2285.51 2030.59 2288.03 Q2027.93 2290.55 2027.53 2295.12 L2046.51 2295.09 Z" fill="#000000" fill-rule="nonzero" fill-opacity="1" /><path clip-path="url(#clip300)" d="M2079.64 2270.99 L2087.51 2270.99 L2106.66 2307.13 L2106.66 2270.99 L2112.33 2270.99 L2112.33 2314.19 L2104.46 2314.19 L2085.31 2278.05 L2085.31 2314.19 L2079.64 2314.19 L2079.64 2270.99 Z" fill="#000000" fill-rule="nonzero" fill-opacity="1" /><polyline clip-path="url(#clip300)" style="stroke:#000000; stroke-linecap:round; stroke-linejoin:round; stroke-width:4; stroke-opacity:1; fill:none" points="359.791,2156.51 359.791,246.944 "/>
<polyline clip-path="url(#clip300)" style="stroke:#000000; stroke-linecap:round; stroke-linejoin:round; stroke-width:4; stroke-opacity:1; fill:none" points="359.791,1990.67 378.689,1990.67 "/>
<polyline clip-path="url(#clip300)" style="stroke:#000000; stroke-linecap:round; stroke-linejoin:round; stroke-width:4; stroke-opacity:1; fill:none" points="359.791,1294.19 378.689,1294.19 "/>
<polyline clip-path="url(#clip300)" style="stroke:#000000; stroke-linecap:round; stroke-linejoin:round; stroke-width:4; stroke-opacity:1; fill:none" points="359.791,597.713 378.689,597.713 "/>
<path clip-path="url(#clip300)" d="M167.604 2010.47 L175.242 2010.47 L175.242 1984.1 L166.932 1985.77 L166.932 1981.51 L175.196 1979.84 L179.872 1979.84 L179.872 2010.47 L187.511 2010.47 L187.511 2014.4 L167.604 2014.4 L167.604 2010.47 Z" fill="#000000" fill-rule="nonzero" fill-opacity="1" /><path clip-path="url(#clip300)" d="M206.955 1982.92 Q203.344 1982.92 201.515 1986.48 Q199.71 1990.03 199.71 1997.15 Q199.71 2004.26 201.515 2007.83 Q203.344 2011.37 206.955 2011.37 Q210.589 2011.37 212.395 2007.83 Q214.224 2004.26 214.224 1997.15 Q214.224 1990.03 212.395 1986.48 Q210.589 1982.92 206.955 1982.92 M206.955 1979.22 Q212.765 1979.22 215.821 1983.82 Q218.9 1988.4 218.9 1997.15 Q218.9 2005.88 215.821 2010.49 Q212.765 2015.07 206.955 2015.07 Q201.145 2015.07 198.066 2010.49 Q195.011 2005.88 195.011 1997.15 Q195.011 1988.4 198.066 1983.82 Q201.145 1979.22 206.955 1979.22 Z" fill="#000000" fill-rule="nonzero" fill-opacity="1" /><path clip-path="url(#clip300)" d="M218.9 1973.32 L243.011 1973.32 L243.011 1976.51 L218.9 1976.51 L218.9 1973.32 Z" fill="#000000" fill-rule="nonzero" fill-opacity="1" /><path clip-path="url(#clip300)" d="M254.484 1983.79 L267.743 1983.79 L267.743 1986.99 L249.914 1986.99 L249.914 1983.79 Q252.077 1981.55 255.8 1977.79 Q259.543 1974.01 260.502 1972.92 Q262.327 1970.87 263.041 1969.46 Q263.775 1968.03 263.775 1966.66 Q263.775 1964.42 262.195 1963.01 Q260.634 1961.6 258.114 1961.6 Q256.327 1961.6 254.333 1962.22 Q252.359 1962.84 250.102 1964.1 L250.102 1960.26 Q252.396 1959.34 254.39 1958.87 Q256.383 1958.4 258.039 1958.4 Q262.402 1958.4 264.997 1960.58 Q267.593 1962.77 267.593 1966.41 Q267.593 1968.14 266.935 1969.71 Q266.295 1971.25 264.584 1973.35 Q264.113 1973.9 261.593 1976.51 Q259.073 1979.11 254.484 1983.79 Z" fill="#000000" fill-rule="nonzero" fill-opacity="1" /><path clip-path="url(#clip300)" d="M275.718 1982.21 L279.686 1982.21 L279.686 1986.99 L275.718 1986.99 L275.718 1982.21 Z" fill="#000000" fill-rule="nonzero" fill-opacity="1" /><path clip-path="url(#clip300)" d="M296.087 1961.41 Q293.153 1961.41 291.667 1964.31 Q290.2 1967.19 290.2 1972.98 Q290.2 1978.75 291.667 1981.65 Q293.153 1984.53 296.087 1984.53 Q299.04 1984.53 300.507 1981.65 Q301.992 1978.75 301.992 1972.98 Q301.992 1967.19 300.507 1964.31 Q299.04 1961.41 296.087 1961.41 M296.087 1958.4 Q300.807 1958.4 303.29 1962.14 Q305.791 1965.87 305.791 1972.98 Q305.791 1980.07 303.29 1983.81 Q300.807 1987.54 296.087 1987.54 Q291.366 1987.54 288.865 1983.81 Q286.382 1980.07 286.382 1972.98 Q286.382 1965.87 288.865 1962.14 Q291.366 1958.4 296.087 1958.4 Z" fill="#000000" fill-rule="nonzero" fill-opacity="1" /><path clip-path="url(#clip300)" d="M168.412 1313.99 L176.051 1313.99 L176.051 1287.62 L167.741 1289.29 L167.741 1285.03 L176.005 1283.36 L180.681 1283.36 L180.681 1313.99 L188.32 1313.99 L188.32 1317.92 L168.412 1317.92 L168.412 1313.99 Z" fill="#000000" fill-rule="nonzero" fill-opacity="1" /><path clip-path="url(#clip300)" d="M207.764 1286.44 Q204.153 1286.44 202.324 1290 Q200.519 1293.55 200.519 1300.67 Q200.519 1307.78 202.324 1311.35 Q204.153 1314.89 207.764 1314.89 Q211.398 1314.89 213.204 1311.35 Q215.032 1307.78 215.032 1300.67 Q215.032 1293.55 213.204 1290 Q211.398 1286.44 207.764 1286.44 M207.764 1282.74 Q213.574 1282.74 216.63 1287.34 Q219.708 1291.93 219.708 1300.67 Q219.708 1309.4 216.63 1314.01 Q213.574 1318.59 207.764 1318.59 Q201.954 1318.59 198.875 1314.01 Q195.82 1309.4 195.82 1300.67 Q195.82 1291.93 198.875 1287.34 Q201.954 1282.74 207.764 1282.74 Z" fill="#000000" fill-rule="nonzero" fill-opacity="1" /><path clip-path="url(#clip300)" d="M219.708 1276.84 L243.82 1276.84 L243.82 1280.03 L219.708 1280.03 L219.708 1276.84 Z" fill="#000000" fill-rule="nonzero" fill-opacity="1" /><path clip-path="url(#clip300)" d="M252.678 1287.31 L258.885 1287.31 L258.885 1265.89 L252.133 1267.24 L252.133 1263.78 L258.847 1262.43 L262.646 1262.43 L262.646 1287.31 L268.853 1287.31 L268.853 1290.51 L252.678 1290.51 L252.678 1287.31 Z" fill="#000000" fill-rule="nonzero" fill-opacity="1" /><path clip-path="url(#clip300)" d="M276.527 1285.73 L280.495 1285.73 L280.495 1290.51 L276.527 1290.51 L276.527 1285.73 Z" fill="#000000" fill-rule="nonzero" fill-opacity="1" /><path clip-path="url(#clip300)" d="M288.808 1262.43 L303.723 1262.43 L303.723 1265.63 L292.288 1265.63 L292.288 1272.51 Q293.115 1272.23 293.943 1272.1 Q294.77 1271.95 295.598 1271.95 Q300.3 1271.95 303.046 1274.52 Q305.791 1277.1 305.791 1281.5 Q305.791 1286.03 302.97 1288.55 Q300.149 1291.06 295.015 1291.06 Q293.247 1291.06 291.404 1290.75 Q289.579 1290.45 287.623 1289.85 L287.623 1286.03 Q289.316 1286.96 291.121 1287.41 Q292.927 1287.86 294.939 1287.86 Q298.193 1287.86 300.093 1286.15 Q301.992 1284.43 301.992 1281.5 Q301.992 1278.57 300.093 1276.86 Q298.193 1275.14 294.939 1275.14 Q293.416 1275.14 291.893 1275.48 Q290.388 1275.82 288.808 1276.54 L288.808 1262.43 Z" fill="#000000" fill-rule="nonzero" fill-opacity="1" /><path clip-path="url(#clip300)" d="M167.604 617.505 L175.242 617.505 L175.242 591.14 L166.932 592.806 L166.932 588.547 L175.196 586.88 L179.872 586.88 L179.872 617.505 L187.511 617.505 L187.511 621.44 L167.604 621.44 L167.604 617.505 Z" fill="#000000" fill-rule="nonzero" fill-opacity="1" /><path clip-path="url(#clip300)" d="M206.955 589.959 Q203.344 589.959 201.515 593.524 Q199.71 597.065 199.71 604.195 Q199.71 611.301 201.515 614.866 Q203.344 618.408 206.955 618.408 Q210.589 618.408 212.395 614.866 Q214.224 611.301 214.224 604.195 Q214.224 597.065 212.395 593.524 Q210.589 589.959 206.955 589.959 M206.955 586.255 Q212.765 586.255 215.821 590.862 Q218.9 595.445 218.9 604.195 Q218.9 612.922 215.821 617.528 Q212.765 622.112 206.955 622.112 Q201.145 622.112 198.066 617.528 Q195.011 612.922 195.011 604.195 Q195.011 595.445 198.066 590.862 Q201.145 586.255 206.955 586.255 Z" fill="#000000" fill-rule="nonzero" fill-opacity="1" /><path clip-path="url(#clip300)" d="M218.9 580.357 L243.011 580.357 L243.011 583.554 L218.9 583.554 L218.9 580.357 Z" fill="#000000" fill-rule="nonzero" fill-opacity="1" /><path clip-path="url(#clip300)" d="M251.87 590.833 L258.076 590.833 L258.076 569.411 L251.324 570.765 L251.324 567.304 L258.039 565.95 L261.838 565.95 L261.838 590.833 L268.044 590.833 L268.044 594.03 L251.87 594.03 L251.87 590.833 Z" fill="#000000" fill-rule="nonzero" fill-opacity="1" /><path clip-path="url(#clip300)" d="M275.718 589.253 L279.686 589.253 L279.686 594.03 L275.718 594.03 L275.718 589.253 Z" fill="#000000" fill-rule="nonzero" fill-opacity="1" /><path clip-path="url(#clip300)" d="M296.087 568.451 Q293.153 568.451 291.667 571.348 Q290.2 574.225 290.2 580.018 Q290.2 585.792 291.667 588.689 Q293.153 591.566 296.087 591.566 Q299.04 591.566 300.507 588.689 Q301.992 585.792 301.992 580.018 Q301.992 574.225 300.507 571.348 Q299.04 568.451 296.087 568.451 M296.087 565.442 Q300.807 565.442 303.29 569.185 Q305.791 572.909 305.791 580.018 Q305.791 587.109 303.29 590.851 Q300.807 594.575 296.087 594.575 Q291.366 594.575 288.865 590.851 Q286.382 587.109 286.382 580.018 Q286.382 572.909 288.865 569.185 Q291.366 565.442 296.087 565.442 Z" fill="#000000" fill-rule="nonzero" fill-opacity="1" /><path clip-path="url(#clip300)" d="M58.1901 1374.69 L63.8903 1374.69 Q62.2989 1378.01 61.5176 1380.96 Q60.7364 1383.92 60.7364 1386.66 Q60.7364 1391.44 62.5882 1394.04 Q64.4401 1396.62 67.8544 1396.62 Q70.719 1396.62 72.1947 1394.91 Q73.6414 1393.17 74.5384 1388.37 L75.2618 1384.84 Q76.506 1378.3 79.6599 1375.21 Q82.7849 1372.08 88.0511 1372.08 Q94.33 1372.08 97.5707 1376.31 Q100.811 1380.5 100.811 1388.63 Q100.811 1391.7 100.117 1395.17 Q99.4225 1398.61 98.0626 1402.32 L92.0441 1402.32 Q94.0406 1398.76 95.0533 1395.34 Q96.0661 1391.93 96.0661 1388.63 Q96.0661 1383.63 94.0985 1380.91 Q92.1309 1378.19 88.4851 1378.19 Q85.3022 1378.19 83.5083 1380.15 Q81.7143 1382.09 80.8173 1386.55 L80.1229 1390.11 Q78.8208 1396.65 76.043 1399.57 Q73.2653 1402.49 68.3174 1402.49 Q62.5882 1402.49 59.2896 1398.47 Q55.991 1394.42 55.991 1387.33 Q55.991 1384.29 56.5408 1381.14 Q57.0906 1377.98 58.1901 1374.69 Z" fill="#000000" fill-rule="nonzero" fill-opacity="1" /><path clip-path="url(#clip300)" d="M71.2977 1350.64 Q71.2977 1354.92 74.6541 1357.41 Q77.9817 1359.9 83.7976 1359.9 Q89.6135 1359.9 92.97 1357.44 Q96.2975 1354.95 96.2975 1350.64 Q96.2975 1346.39 92.9411 1343.9 Q89.5846 1341.41 83.7976 1341.41 Q78.0395 1341.41 74.6831 1343.9 Q71.2977 1346.39 71.2977 1350.64 M66.7838 1350.64 Q66.7838 1343.7 71.2977 1339.73 Q75.8115 1335.77 83.7976 1335.77 Q91.7547 1335.77 96.2975 1339.73 Q100.811 1343.7 100.811 1350.64 Q100.811 1357.61 96.2975 1361.58 Q91.7547 1365.51 83.7976 1365.51 Q75.8115 1365.51 71.2977 1361.58 Q66.7838 1357.61 66.7838 1350.64 Z" fill="#000000" fill-rule="nonzero" fill-opacity="1" /><path clip-path="url(#clip300)" d="M54.9494 1326.94 L54.9494 1321.62 L99.9723 1321.62 L99.9723 1326.94 L54.9494 1326.94 Z" fill="#000000" fill-rule="nonzero" fill-opacity="1" /><path clip-path="url(#clip300)" d="M67.565 1314.3 L67.565 1308.66 L94.764 1298.53 L67.565 1288.4 L67.565 1282.76 L99.9723 1294.91 L99.9723 1302.15 L67.565 1314.3 Z" fill="#000000" fill-rule="nonzero" fill-opacity="1" /><path clip-path="url(#clip300)" d="M82.4377 1247.69 L85.0418 1247.69 L85.0418 1272.17 Q90.5395 1271.82 93.433 1268.87 Q96.2975 1265.89 96.2975 1260.59 Q96.2975 1257.53 95.5452 1254.66 Q94.7929 1251.77 93.2883 1248.93 L98.323 1248.93 Q99.5383 1251.8 100.175 1254.81 Q100.811 1257.82 100.811 1260.91 Q100.811 1268.67 96.2975 1273.21 Q91.7837 1277.72 84.087 1277.72 Q76.1298 1277.72 71.4713 1273.44 Q66.7838 1269.13 66.7838 1261.84 Q66.7838 1255.3 71.0083 1251.51 Q75.2039 1247.69 82.4377 1247.69 M80.8752 1253.01 Q76.506 1253.07 73.9018 1255.47 Q71.2977 1257.85 71.2977 1261.78 Q71.2977 1266.24 73.815 1268.93 Q76.3324 1271.59 80.9041 1271.99 L80.8752 1253.01 Z" fill="#000000" fill-rule="nonzero" fill-opacity="1" /><path clip-path="url(#clip300)" d="M58.3637 1214.85 L67.565 1214.85 L67.565 1203.88 L71.7028 1203.88 L71.7028 1214.85 L89.2953 1214.85 Q93.2594 1214.85 94.3878 1213.78 Q95.5163 1212.68 95.5163 1209.35 L95.5163 1203.88 L99.9723 1203.88 L99.9723 1209.35 Q99.9723 1215.51 97.6864 1217.86 Q95.3716 1220.2 89.2953 1220.2 L71.7028 1220.2 L71.7028 1224.11 L67.565 1224.11 L67.565 1220.2 L58.3637 1220.2 L58.3637 1214.85 Z" fill="#000000" fill-rule="nonzero" fill-opacity="1" /><path clip-path="url(#clip300)" d="M67.565 1196.88 L67.565 1191.56 L99.9723 1191.56 L99.9723 1196.88 L67.565 1196.88 M54.9494 1196.88 L54.9494 1191.56 L61.6912 1191.56 L61.6912 1196.88 L54.9494 1196.88 Z" fill="#000000" fill-rule="nonzero" fill-opacity="1" /><path clip-path="url(#clip300)" d="M73.7861 1155.18 Q70.1981 1153.19 68.491 1150.41 Q66.7838 1147.63 66.7838 1143.87 Q66.7838 1138.81 70.3428 1136.06 Q73.8729 1133.31 80.4122 1133.31 L99.9723 1133.31 L99.9723 1138.66 L80.5858 1138.66 Q75.9273 1138.66 73.6703 1140.31 Q71.4134 1141.96 71.4134 1145.35 Q71.4134 1149.48 74.1622 1151.89 Q76.9111 1154.29 81.6564 1154.29 L99.9723 1154.29 L99.9723 1159.64 L80.5858 1159.64 Q75.8983 1159.64 73.6703 1161.29 Q71.4134 1162.94 71.4134 1166.38 Q71.4134 1170.46 74.1912 1172.86 Q76.94 1175.26 81.6564 1175.26 L99.9723 1175.26 L99.9723 1180.62 L67.565 1180.62 L67.565 1175.26 L72.5997 1175.26 Q69.6194 1173.44 68.2016 1170.9 Q66.7838 1168.35 66.7838 1164.85 Q66.7838 1161.32 68.5778 1158.86 Q70.3717 1156.37 73.7861 1155.18 Z" fill="#000000" fill-rule="nonzero" fill-opacity="1" /><path clip-path="url(#clip300)" d="M82.4377 1094.97 L85.0418 1094.97 L85.0418 1119.45 Q90.5395 1119.1 93.433 1116.15 Q96.2975 1113.17 96.2975 1107.88 Q96.2975 1104.81 95.5452 1101.94 Q94.7929 1099.05 93.2883 1096.21 L98.323 1096.21 Q99.5383 1099.08 100.175 1102.09 Q100.811 1105.1 100.811 1108.19 Q100.811 1115.95 96.2975 1120.49 Q91.7837 1125 84.087 1125 Q76.1298 1125 71.4713 1120.72 Q66.7838 1116.41 66.7838 1109.12 Q66.7838 1102.58 71.0083 1098.79 Q75.2039 1094.97 82.4377 1094.97 M80.8752 1100.29 Q76.506 1100.35 73.9018 1102.75 Q71.2977 1105.13 71.2977 1109.06 Q71.2977 1113.52 73.815 1116.21 Q76.3324 1118.87 80.9041 1119.28 L80.8752 1100.29 Z" fill="#000000" fill-rule="nonzero" fill-opacity="1" /><path clip-path="url(#clip300)" d="M55.0072 1054.61 Q61.6623 1058.48 68.1727 1060.36 Q74.6831 1062.24 81.3671 1062.24 Q88.0511 1062.24 94.6193 1060.36 Q101.159 1058.45 107.785 1054.61 L107.785 1059.24 Q100.985 1063.58 94.4168 1065.75 Q87.8485 1067.89 81.3671 1067.89 Q74.9145 1067.89 68.3752 1065.75 Q61.8359 1063.6 55.0072 1059.24 L55.0072 1054.61 Z" fill="#000000" fill-rule="nonzero" fill-opacity="1" /><path clip-path="url(#clip300)" d="M68.5199 1023.62 L73.5546 1023.62 Q72.3972 1025.87 71.8185 1028.3 Q71.2398 1030.73 71.2398 1033.34 Q71.2398 1037.3 72.4551 1039.3 Q73.6703 1041.27 76.1009 1041.27 Q77.9527 1041.27 79.0233 1039.85 Q80.065 1038.43 81.0198 1034.15 L81.4249 1032.33 Q82.6402 1026.65 84.8682 1024.28 Q87.0673 1021.88 91.0314 1021.88 Q95.5452 1021.88 98.1783 1025.47 Q100.811 1029.03 100.811 1035.28 Q100.811 1037.88 100.291 1040.72 Q99.7987 1043.52 98.7859 1046.65 L93.2883 1046.65 Q94.8218 1043.7 95.6031 1040.83 Q96.3554 1037.97 96.3554 1035.16 Q96.3554 1031.4 95.0823 1029.37 Q93.7802 1027.35 91.4364 1027.35 Q89.2663 1027.35 88.1089 1028.82 Q86.9515 1030.27 85.8809 1035.22 L85.4469 1037.07 Q84.4052 1042.02 82.264 1044.22 Q80.0939 1046.42 76.3324 1046.42 Q71.7606 1046.42 69.2722 1043.18 Q66.7838 1039.94 66.7838 1033.98 Q66.7838 1031.02 67.2178 1028.42 Q67.6519 1025.82 68.5199 1023.62 Z" fill="#000000" fill-rule="nonzero" fill-opacity="1" /><path clip-path="url(#clip300)" d="M55.0072 1014.24 L55.0072 1009.61 Q61.8359 1005.27 68.3752 1003.13 Q74.9145 1000.96 81.3671 1000.96 Q87.8485 1000.96 94.4168 1003.13 Q100.985 1005.27 107.785 1009.61 L107.785 1014.24 Q101.159 1010.39 94.6193 1008.51 Q88.0511 1006.6 81.3671 1006.6 Q74.6831 1006.6 68.1727 1008.51 Q61.6623 1010.39 55.0072 1014.24 Z" fill="#000000" fill-rule="nonzero" fill-opacity="1" /><path clip-path="url(#clip300)" d="M1353.68 125.969 L1353.68 133.949 Q1349.02 131.721 1344.89 130.627 Q1340.76 129.534 1336.91 129.534 Q1330.23 129.534 1326.58 132.126 Q1322.98 134.719 1322.98 139.499 Q1322.98 143.509 1325.37 145.575 Q1327.8 147.601 1334.52 148.857 L1339.46 149.869 Q1348.62 151.611 1352.95 156.027 Q1357.33 160.402 1357.33 167.774 Q1357.33 176.565 1351.41 181.102 Q1345.54 185.639 1334.16 185.639 Q1329.86 185.639 1325 184.667 Q1320.18 183.694 1315 181.79 L1315 173.365 Q1319.98 176.16 1324.76 177.577 Q1329.54 178.995 1334.16 178.995 Q1341.16 178.995 1344.97 176.241 Q1348.78 173.486 1348.78 168.382 Q1348.78 163.926 1346.03 161.414 Q1343.31 158.903 1337.07 157.647 L1332.09 156.675 Q1322.94 154.852 1318.84 150.963 Q1314.75 147.074 1314.75 140.147 Q1314.75 132.126 1320.38 127.508 Q1326.05 122.89 1335.98 122.89 Q1340.23 122.89 1344.65 123.66 Q1349.06 124.43 1353.68 125.969 Z" fill="#000000" fill-rule="nonzero" fill-opacity="1" /><path clip-path="url(#clip300)" d="M1387.34 144.32 Q1381.35 144.32 1377.87 149.019 Q1374.38 153.677 1374.38 161.819 Q1374.38 169.962 1377.82 174.661 Q1381.31 179.319 1387.34 179.319 Q1393.3 179.319 1396.78 174.62 Q1400.27 169.921 1400.27 161.819 Q1400.27 153.758 1396.78 149.059 Q1393.3 144.32 1387.34 144.32 M1387.34 138 Q1397.07 138 1402.62 144.32 Q1408.17 150.639 1408.17 161.819 Q1408.17 172.959 1402.62 179.319 Q1397.07 185.639 1387.34 185.639 Q1377.58 185.639 1372.03 179.319 Q1366.52 172.959 1366.52 161.819 Q1366.52 150.639 1372.03 144.32 Q1377.58 138 1387.34 138 Z" fill="#000000" fill-rule="nonzero" fill-opacity="1" /><path clip-path="url(#clip300)" d="M1420.52 121.432 L1427.98 121.432 L1427.98 184.464 L1420.52 184.464 L1420.52 121.432 Z" fill="#000000" fill-rule="nonzero" fill-opacity="1" /><path clip-path="url(#clip300)" d="M1438.22 139.094 L1446.12 139.094 L1460.3 177.172 L1474.48 139.094 L1482.38 139.094 L1465.36 184.464 L1455.24 184.464 L1438.22 139.094 Z" fill="#000000" fill-rule="nonzero" fill-opacity="1" /><path clip-path="url(#clip300)" d="M1531.48 159.916 L1531.48 163.561 L1497.2 163.561 Q1497.69 171.258 1501.82 175.309 Q1506 179.319 1513.41 179.319 Q1517.7 179.319 1521.71 178.266 Q1525.76 177.213 1529.73 175.106 L1529.73 182.155 Q1525.72 183.856 1521.51 184.748 Q1517.3 185.639 1512.96 185.639 Q1502.11 185.639 1495.75 179.319 Q1489.43 173 1489.43 162.225 Q1489.43 151.085 1495.42 144.563 Q1501.46 138 1511.67 138 Q1520.82 138 1526.13 143.914 Q1531.48 149.788 1531.48 159.916 M1524.02 157.728 Q1523.94 151.611 1520.58 147.965 Q1517.26 144.32 1511.75 144.32 Q1505.51 144.32 1501.74 147.844 Q1498.02 151.368 1497.45 157.769 L1524.02 157.728 Z" fill="#000000" fill-rule="nonzero" fill-opacity="1" /><path clip-path="url(#clip300)" d="M1577.45 126.212 L1577.45 139.094 L1592.81 139.094 L1592.81 144.887 L1577.45 144.887 L1577.45 169.516 Q1577.45 175.066 1578.95 176.646 Q1580.49 178.226 1585.15 178.226 L1592.81 178.226 L1592.81 184.464 L1585.15 184.464 Q1576.52 184.464 1573.24 181.264 Q1569.96 178.023 1569.96 169.516 L1569.96 144.887 L1564.49 144.887 L1564.49 139.094 L1569.96 139.094 L1569.96 126.212 L1577.45 126.212 Z" fill="#000000" fill-rule="nonzero" fill-opacity="1" /><path clip-path="url(#clip300)" d="M1602.61 139.094 L1610.06 139.094 L1610.06 184.464 L1602.61 184.464 L1602.61 139.094 M1602.61 121.432 L1610.06 121.432 L1610.06 130.871 L1602.61 130.871 L1602.61 121.432 Z" fill="#000000" fill-rule="nonzero" fill-opacity="1" /><path clip-path="url(#clip300)" d="M1660.98 147.803 Q1663.78 142.78 1667.67 140.39 Q1671.56 138 1676.82 138 Q1683.91 138 1687.76 142.983 Q1691.61 147.925 1691.61 157.08 L1691.61 184.464 L1684.11 184.464 L1684.11 157.323 Q1684.11 150.801 1681.8 147.641 Q1679.5 144.482 1674.76 144.482 Q1668.96 144.482 1665.6 148.33 Q1662.24 152.178 1662.24 158.822 L1662.24 184.464 L1654.74 184.464 L1654.74 157.323 Q1654.74 150.76 1652.44 147.641 Q1650.13 144.482 1645.31 144.482 Q1639.59 144.482 1636.23 148.37 Q1632.87 152.219 1632.87 158.822 L1632.87 184.464 L1625.38 184.464 L1625.38 139.094 L1632.87 139.094 L1632.87 146.142 Q1635.42 141.97 1638.99 139.985 Q1642.55 138 1647.45 138 Q1652.4 138 1655.84 140.512 Q1659.32 143.023 1660.98 147.803 Z" fill="#000000" fill-rule="nonzero" fill-opacity="1" /><path clip-path="url(#clip300)" d="M1745.28 159.916 L1745.28 163.561 L1711.01 163.561 Q1711.5 171.258 1715.63 175.309 Q1719.8 179.319 1727.22 179.319 Q1731.51 179.319 1735.52 178.266 Q1739.57 177.213 1743.54 175.106 L1743.54 182.155 Q1739.53 183.856 1735.32 184.748 Q1731.1 185.639 1726.77 185.639 Q1715.91 185.639 1709.55 179.319 Q1703.23 173 1703.23 162.225 Q1703.23 151.085 1709.23 144.563 Q1715.27 138 1725.47 138 Q1734.63 138 1739.94 143.914 Q1745.28 149.788 1745.28 159.916 M1737.83 157.728 Q1737.75 151.611 1734.39 147.965 Q1731.06 144.32 1725.55 144.32 Q1719.32 144.32 1715.55 147.844 Q1711.82 151.368 1711.25 157.769 L1737.83 157.728 Z" fill="#000000" fill-rule="nonzero" fill-opacity="1" /><path clip-path="url(#clip300)" d="M1778.54 139.094 L1786.44 139.094 L1800.62 177.172 L1814.8 139.094 L1822.7 139.094 L1805.68 184.464 L1795.55 184.464 L1778.54 139.094 Z" fill="#000000" fill-rule="nonzero" fill-opacity="1" /><path clip-path="url(#clip300)" d="M1861.91 140.431 L1861.91 147.479 Q1858.75 145.859 1855.35 145.049 Q1851.94 144.239 1848.3 144.239 Q1842.75 144.239 1839.95 145.94 Q1837.2 147.641 1837.2 151.044 Q1837.2 153.637 1839.18 155.135 Q1841.17 156.594 1847.16 157.931 L1849.71 158.498 Q1857.65 160.199 1860.98 163.318 Q1864.34 166.397 1864.34 171.947 Q1864.34 178.266 1859.32 181.952 Q1854.33 185.639 1845.58 185.639 Q1841.94 185.639 1837.97 184.91 Q1834.04 184.221 1829.66 182.803 L1829.66 175.106 Q1833.79 177.253 1837.81 178.347 Q1841.82 179.4 1845.74 179.4 Q1851.01 179.4 1853.85 177.618 Q1856.68 175.795 1856.68 172.514 Q1856.68 169.476 1854.62 167.855 Q1852.59 166.235 1845.66 164.736 L1843.07 164.128 Q1836.14 162.67 1833.07 159.672 Q1829.99 156.634 1829.99 151.368 Q1829.99 144.968 1834.52 141.484 Q1839.06 138 1847.41 138 Q1851.54 138 1855.18 138.608 Q1858.83 139.215 1861.91 140.431 Z" fill="#000000" fill-rule="nonzero" fill-opacity="1" /><path clip-path="url(#clip300)" d="M1932.43 161.252 Q1932.43 153.151 1929.07 148.695 Q1925.75 144.239 1919.71 144.239 Q1913.72 144.239 1910.36 148.695 Q1907.03 153.151 1907.03 161.252 Q1907.03 169.314 1910.36 173.77 Q1913.72 178.226 1919.71 178.226 Q1925.75 178.226 1929.07 173.77 Q1932.43 169.314 1932.43 161.252 M1939.89 178.833 Q1939.89 190.419 1934.74 196.05 Q1929.6 201.721 1918.99 201.721 Q1915.06 201.721 1911.57 201.113 Q1908.09 200.546 1904.81 199.331 L1904.81 192.08 Q1908.09 193.862 1911.29 194.713 Q1914.49 195.563 1917.81 195.563 Q1925.14 195.563 1928.79 191.715 Q1932.43 187.907 1932.43 180.17 L1932.43 176.484 Q1930.13 180.494 1926.52 182.479 Q1922.91 184.464 1917.89 184.464 Q1909.55 184.464 1904.44 178.104 Q1899.34 171.744 1899.34 161.252 Q1899.34 150.72 1904.44 144.36 Q1909.55 138 1917.89 138 Q1922.91 138 1926.52 139.985 Q1930.13 141.97 1932.43 145.98 L1932.43 139.094 L1939.89 139.094 L1939.89 178.833 Z" fill="#000000" fill-rule="nonzero" fill-opacity="1" /><path clip-path="url(#clip300)" d="M1981.53 146.061 Q1980.28 145.332 1978.78 145.008 Q1977.32 144.644 1975.54 144.644 Q1969.22 144.644 1965.81 148.776 Q1962.45 152.867 1962.45 160.564 L1962.45 184.464 L1954.96 184.464 L1954.96 139.094 L1962.45 139.094 L1962.45 146.142 Q1964.8 142.011 1968.57 140.026 Q1972.34 138 1977.72 138 Q1978.49 138 1979.42 138.122 Q1980.36 138.203 1981.49 138.405 L1981.53 146.061 Z" fill="#000000" fill-rule="nonzero" fill-opacity="1" /><path clip-path="url(#clip300)" d="M1989.35 139.094 L1996.8 139.094 L1996.8 184.464 L1989.35 184.464 L1989.35 139.094 M1989.35 121.432 L1996.8 121.432 L1996.8 130.871 L1989.35 130.871 L1989.35 121.432 Z" fill="#000000" fill-rule="nonzero" fill-opacity="1" /><path clip-path="url(#clip300)" d="M2042.25 145.98 L2042.25 121.432 L2049.71 121.432 L2049.71 184.464 L2042.25 184.464 L2042.25 177.658 Q2039.9 181.709 2036.3 183.694 Q2032.73 185.639 2027.71 185.639 Q2019.49 185.639 2014.3 179.076 Q2009.16 172.514 2009.16 161.819 Q2009.16 151.125 2014.3 144.563 Q2019.49 138 2027.71 138 Q2032.73 138 2036.3 139.985 Q2039.9 141.93 2042.25 145.98 M2016.85 161.819 Q2016.85 170.043 2020.22 174.742 Q2023.62 179.4 2029.53 179.4 Q2035.45 179.4 2038.85 174.742 Q2042.25 170.043 2042.25 161.819 Q2042.25 153.596 2038.85 148.938 Q2035.45 144.239 2029.53 144.239 Q2023.62 144.239 2020.22 148.938 Q2016.85 153.596 2016.85 161.819 Z" fill="#000000" fill-rule="nonzero" fill-opacity="1" /><path clip-path="url(#clip300)" d="M2120.36 140.431 L2120.36 147.479 Q2117.2 145.859 2113.79 145.049 Q2110.39 144.239 2106.74 144.239 Q2101.19 144.239 2098.4 145.94 Q2095.65 147.641 2095.65 151.044 Q2095.65 153.637 2097.63 155.135 Q2099.61 156.594 2105.61 157.931 L2108.16 158.498 Q2116.1 160.199 2119.42 163.318 Q2122.79 166.397 2122.79 171.947 Q2122.79 178.266 2117.76 181.952 Q2112.78 185.639 2104.03 185.639 Q2100.38 185.639 2096.41 184.91 Q2092.49 184.221 2088.11 182.803 L2088.11 175.106 Q2092.24 177.253 2096.25 178.347 Q2100.26 179.4 2104.19 179.4 Q2109.46 179.4 2112.29 177.618 Q2115.13 175.795 2115.13 172.514 Q2115.13 169.476 2113.06 167.855 Q2111.04 166.235 2104.11 164.736 L2101.52 164.128 Q2094.59 162.67 2091.51 159.672 Q2088.43 156.634 2088.43 151.368 Q2088.43 144.968 2092.97 141.484 Q2097.51 138 2105.85 138 Q2109.99 138 2113.63 138.608 Q2117.28 139.215 2120.36 140.431 Z" fill="#000000" fill-rule="nonzero" fill-opacity="1" /><path clip-path="url(#clip300)" d="M2134.66 139.094 L2142.11 139.094 L2142.11 184.464 L2134.66 184.464 L2134.66 139.094 M2134.66 121.432 L2142.11 121.432 L2142.11 130.871 L2134.66 130.871 L2134.66 121.432 Z" fill="#000000" fill-rule="nonzero" fill-opacity="1" /><path clip-path="url(#clip300)" d="M2154.46 139.094 L2189.87 139.094 L2189.87 145.899 L2161.84 178.509 L2189.87 178.509 L2189.87 184.464 L2153.45 184.464 L2153.45 177.658 L2181.48 145.049 L2154.46 145.049 L2154.46 139.094 Z" fill="#000000" fill-rule="nonzero" fill-opacity="1" /><path clip-path="url(#clip300)" d="M2240.06 159.916 L2240.06 163.561 L2205.79 163.561 Q2206.28 171.258 2210.41 175.309 Q2214.58 179.319 2221.99 179.319 Q2226.29 179.319 2230.3 178.266 Q2234.35 177.213 2238.32 175.106 L2238.32 182.155 Q2234.31 183.856 2230.09 184.748 Q2225.88 185.639 2221.55 185.639 Q2210.69 185.639 2204.33 179.319 Q2198.01 173 2198.01 162.225 Q2198.01 151.085 2204.01 144.563 Q2210.04 138 2220.25 138 Q2229.41 138 2234.71 143.914 Q2240.06 149.788 2240.06 159.916 M2232.61 157.728 Q2232.53 151.611 2229.16 147.965 Q2225.84 144.32 2220.33 144.32 Q2214.09 144.32 2210.33 147.844 Q2206.6 151.368 2206.03 157.769 L2232.61 157.728 Z" fill="#000000" fill-rule="nonzero" fill-opacity="1" /><path clip-path="url(#clip300)" d="M2274.9 158.822 L2349.76 158.822 L2349.76 164.655 L2274.9 164.655 L2274.9 158.822 Z" fill="#000000" fill-rule="nonzero" fill-opacity="1" /><path clip-path="url(#clip300)" d="M2420.65 140.836 L2420.65 147.803 Q2417.49 146.061 2414.29 145.211 Q2411.13 144.32 2407.89 144.32 Q2400.64 144.32 2396.63 148.938 Q2392.62 153.515 2392.62 161.819 Q2392.62 170.124 2396.63 174.742 Q2400.64 179.319 2407.89 179.319 Q2411.13 179.319 2414.29 178.469 Q2417.49 177.577 2420.65 175.836 L2420.65 182.722 Q2417.53 184.18 2414.17 184.91 Q2410.85 185.639 2407.08 185.639 Q2396.83 185.639 2390.79 179.198 Q2384.76 172.757 2384.76 161.819 Q2384.76 150.72 2390.83 144.36 Q2396.95 138 2407.56 138 Q2411.01 138 2414.29 138.729 Q2417.57 139.418 2420.65 140.836 Z" fill="#000000" fill-rule="nonzero" fill-opacity="1" /><path clip-path="url(#clip300)" d="M2471.33 157.08 L2471.33 184.464 L2463.87 184.464 L2463.87 157.323 Q2463.87 150.882 2461.36 147.682 Q2458.85 144.482 2453.83 144.482 Q2447.79 144.482 2444.31 148.33 Q2440.82 152.178 2440.82 158.822 L2440.82 184.464 L2433.33 184.464 L2433.33 121.432 L2440.82 121.432 L2440.82 146.142 Q2443.5 142.051 2447.1 140.026 Q2450.75 138 2455.49 138 Q2463.31 138 2467.32 142.861 Q2471.33 147.682 2471.33 157.08 Z" fill="#000000" fill-rule="nonzero" fill-opacity="1" /><path clip-path="url(#clip300)" d="M2506.81 161.657 Q2497.78 161.657 2494.29 163.723 Q2490.81 165.789 2490.81 170.772 Q2490.81 174.742 2493.4 177.091 Q2496.04 179.4 2500.53 179.4 Q2506.73 179.4 2510.46 175.025 Q2514.22 170.61 2514.22 163.318 L2514.22 161.657 L2506.81 161.657 M2521.68 158.579 L2521.68 184.464 L2514.22 184.464 L2514.22 177.577 Q2511.67 181.709 2507.87 183.694 Q2504.06 185.639 2498.55 185.639 Q2491.58 185.639 2487.45 181.75 Q2483.36 177.821 2483.36 171.258 Q2483.36 163.602 2488.46 159.713 Q2493.61 155.824 2503.77 155.824 L2514.22 155.824 L2514.22 155.095 Q2514.22 149.95 2510.82 147.155 Q2507.46 144.32 2501.34 144.32 Q2497.45 144.32 2493.77 145.251 Q2490.08 146.183 2486.68 148.046 L2486.68 141.16 Q2490.77 139.58 2494.62 138.81 Q2498.47 138 2502.11 138 Q2511.96 138 2516.82 143.104 Q2521.68 148.208 2521.68 158.579 Z" fill="#000000" fill-rule="nonzero" fill-opacity="1" /><path clip-path="url(#clip300)" d="M2537.03 139.094 L2544.49 139.094 L2544.49 184.464 L2537.03 184.464 L2537.03 139.094 M2537.03 121.432 L2544.49 121.432 L2544.49 130.871 L2537.03 130.871 L2537.03 121.432 Z" fill="#000000" fill-rule="nonzero" fill-opacity="1" /><path clip-path="url(#clip300)" d="M2597.8 157.08 L2597.8 184.464 L2590.34 184.464 L2590.34 157.323 Q2590.34 150.882 2587.83 147.682 Q2585.32 144.482 2580.3 144.482 Q2574.26 144.482 2570.78 148.33 Q2567.29 152.178 2567.29 158.822 L2567.29 184.464 L2559.8 184.464 L2559.8 139.094 L2567.29 139.094 L2567.29 146.142 Q2569.97 142.051 2573.57 140.026 Q2577.22 138 2581.96 138 Q2589.77 138 2593.78 142.861 Q2597.8 147.682 2597.8 157.08 Z" fill="#000000" fill-rule="nonzero" fill-opacity="1" /><polyline clip-path="url(#clip302)" style="stroke:#4682b4; stroke-linecap:round; stroke-linejoin:round; stroke-width:6; stroke-opacity:1; fill:none" points="504.926,1724.92 1660.02,837.172 2533.82,882.963 3407.62,346.333 "/>
<circle clip-path="url(#clip302)" cx="504.926" cy="1724.92" r="14.4" fill="#4682b4" fill-rule="evenodd" fill-opacity="1" stroke="none"/>
<circle clip-path="url(#clip302)" cx="1660.02" cy="837.172" r="14.4" fill="#4682b4" fill-rule="evenodd" fill-opacity="1" stroke="none"/>
<circle clip-path="url(#clip302)" cx="2533.82" cy="882.963" r="14.4" fill="#4682b4" fill-rule="evenodd" fill-opacity="1" stroke="none"/>
<circle clip-path="url(#clip302)" cx="3407.62" cy="346.333" r="14.4" fill="#4682b4" fill-rule="evenodd" fill-opacity="1" stroke="none"/>
<polyline clip-path="url(#clip302)" style="stroke:#2e8b57; stroke-linecap:round; stroke-linejoin:round; stroke-width:6; stroke-opacity:1; fill:none" points="504.926,1799.86 1660.02,891.678 2533.82,959.141 3407.62,300.989 "/>
<path clip-path="url(#clip302)" d="M504.926 1783.86 L488.926 1799.86 L504.926 1815.86 L520.926 1799.86 L504.926 1783.86 Z" fill="#2e8b57" fill-rule="evenodd" fill-opacity="1" stroke="none"/>
<path clip-path="url(#clip302)" d="M1660.02 875.678 L1644.02 891.678 L1660.02 907.678 L1676.02 891.678 L1660.02 875.678 Z" fill="#2e8b57" fill-rule="evenodd" fill-opacity="1" stroke="none"/>
<path clip-path="url(#clip302)" d="M2533.82 943.141 L2517.82 959.141 L2533.82 975.141 L2549.82 959.141 L2533.82 943.141 Z" fill="#2e8b57" fill-rule="evenodd" fill-opacity="1" stroke="none"/>
<path clip-path="url(#clip302)" d="M3407.62 284.989 L3391.62 300.989 L3407.62 316.989 L3423.62 300.989 L3407.62 284.989 Z" fill="#2e8b57" fill-rule="evenodd" fill-opacity="1" stroke="none"/>
<polyline clip-path="url(#clip302)" style="stroke:#ff6347; stroke-linecap:round; stroke-linejoin:round; stroke-width:6; stroke-opacity:1; fill:none" points="504.926,2011.44 1660.02,1145.78 2533.82,1169.59 3407.62,683.527 "/>
<path clip-path="url(#clip302)" d="M488.926 1995.44 L488.926 2027.44 L520.926 2027.44 L520.926 1995.44 L488.926 1995.44 Z" fill="#ff6347" fill-rule="evenodd" fill-opacity="1" stroke="none"/>
<path clip-path="url(#clip302)" d="M1644.02 1129.78 L1644.02 1161.78 L1676.02 1161.78 L1676.02 1129.78 L1644.02 1129.78 Z" fill="#ff6347" fill-rule="evenodd" fill-opacity="1" stroke="none"/>
<path clip-path="url(#clip302)" d="M2517.82 1153.59 L2517.82 1185.59 L2549.82 1185.59 L2549.82 1153.59 L2517.82 1153.59 Z" fill="#ff6347" fill-rule="evenodd" fill-opacity="1" stroke="none"/>
<path clip-path="url(#clip302)" d="M3391.62 667.527 L3391.62 699.527 L3423.62 699.527 L3423.62 667.527 L3391.62 667.527 Z" fill="#ff6347" fill-rule="evenodd" fill-opacity="1" stroke="none"/>
<polyline clip-path="url(#clip302)" style="stroke:#ff8c00; stroke-linecap:round; stroke-linejoin:round; stroke-width:6; stroke-opacity:1; fill:none" points="504.926,2102.46 1660.02,1219.59 2533.82,1309.33 3407.62,569.796 "/>
<path clip-path="url(#clip302)" d="M504.926 2086.46 L488.926 2118.46 L520.926 2118.46 L504.926 2086.46 Z" fill="#ff8c00" fill-rule="evenodd" fill-opacity="1" stroke="none"/>
<path clip-path="url(#clip302)" d="M1660.02 1203.59 L1644.02 1235.59 L1676.02 1235.59 L1660.02 1203.59 Z" fill="#ff8c00" fill-rule="evenodd" fill-opacity="1" stroke="none"/>
<path clip-path="url(#clip302)" d="M2533.82 1293.33 L2517.82 1325.33 L2549.82 1325.33 L2533.82 1293.33 Z" fill="#ff8c00" fill-rule="evenodd" fill-opacity="1" stroke="none"/>
<path clip-path="url(#clip302)" d="M3407.62 553.796 L3391.62 585.796 L3423.62 585.796 L3407.62 553.796 Z" fill="#ff8c00" fill-rule="evenodd" fill-opacity="1" stroke="none"/>
<polyline clip-path="url(#clip302)" style="stroke:#9370db; stroke-linecap:round; stroke-linejoin:round; stroke-width:6; stroke-opacity:1; fill:none" points="504.926,1840.22 1660.02,933.213 2533.82,986.464 3407.62,444.01 "/>
<path clip-path="url(#clip302)" d="M520.926 1824.22 L488.926 1824.22 L504.926 1856.22 L520.926 1824.22 Z" fill="#9370db" fill-rule="evenodd" fill-opacity="1" stroke="none"/>
<path clip-path="url(#clip302)" d="M1676.02 917.213 L1644.02 917.213 L1660.02 949.213 L1676.02 917.213 Z" fill="#9370db" fill-rule="evenodd" fill-opacity="1" stroke="none"/>
<path clip-path="url(#clip302)" d="M2549.82 970.464 L2517.82 970.464 L2533.82 1002.46 L2549.82 970.464 Z" fill="#9370db" fill-rule="evenodd" fill-opacity="1" stroke="none"/>
<path clip-path="url(#clip302)" d="M3423.62 428.01 L3391.62 428.01 L3407.62 460.01 L3423.62 428.01 Z" fill="#9370db" fill-rule="evenodd" fill-opacity="1" stroke="none"/>
<polyline clip-path="url(#clip302)" style="stroke:#a0522d; stroke-linecap:round; stroke-linejoin:round; stroke-width:6; stroke-opacity:1; fill:none" points="504.926,1806.83 1660.02,947.869 2533.82,936.13 3407.62,302.792 "/>
<path clip-path="url(#clip302)" d="M504.926 1790.83 L501.166 1801.65 L489.71 1801.89 L498.846 1808.81 L495.518 1819.77 L504.926 1813.23 L514.334 1819.77 L511.006 1808.81 L520.142 1801.89 L508.686 1801.65 L504.926 1790.83 Z" fill="#a0522d" fill-rule="evenodd" fill-opacity="1" stroke="none"/>
<path clip-path="url(#clip302)" d="M1660.02 931.869 L1656.26 942.685 L1644.81 942.925 L1653.94 949.853 L1650.62 960.813 L1660.02 954.269 L1669.43 960.813 L1666.1 949.853 L1675.24 942.925 L1663.78 942.685 L1660.02 931.869 Z" fill="#a0522d" fill-rule="evenodd" fill-opacity="1" stroke="none"/>
<path clip-path="url(#clip302)" d="M2533.82 920.13 L2530.06 930.946 L2518.61 931.186 L2527.74 938.114 L2524.41 949.074 L2533.82 942.53 L2543.23 949.074 L2539.9 938.114 L2549.04 931.186 L2537.58 930.946 L2533.82 920.13 Z" fill="#a0522d" fill-rule="evenodd" fill-opacity="1" stroke="none"/>
<path clip-path="url(#clip302)" d="M3407.62 286.792 L3403.86 297.608 L3392.41 297.848 L3401.54 304.776 L3398.21 315.736 L3407.62 309.192 L3417.03 315.736 L3413.7 304.776 L3422.84 297.848 L3411.38 297.608 L3407.62 286.792 Z" fill="#a0522d" fill-rule="evenodd" fill-opacity="1" stroke="none"/>
<path clip-path="url(#clip300)" d="M2756.96 2092.86 L3446.32 2092.86 L3446.32 1729.98 L2756.96 1729.98  Z" fill="#ffffff" fill-rule="evenodd" fill-opacity="1"/>
<polyline clip-path="url(#clip300)" style="stroke:#000000; stroke-linecap:round; stroke-linejoin:round; stroke-width:4; stroke-opacity:1; fill:none" points="2756.96,2092.86 3446.32,2092.86 3446.32,1729.98 2756.96,1729.98 2756.96,2092.86 "/>
<polyline clip-path="url(#clip300)" style="stroke:#4682b4; stroke-linecap:round; stroke-linejoin:round; stroke-width:6; stroke-opacity:1; fill:none" points="2792.44,1781.82 3005.3,1781.82 "/>
<circle clip-path="url(#clip300)" cx="2898.87" cy="1781.82" r="23.04" fill="#4682b4" fill-rule="evenodd" fill-opacity="1" stroke="none"/>
<path clip-path="url(#clip300)" d="M3051.4 1763.12 Q3048.3 1768.45 3046.8 1773.66 Q3045.29 1778.86 3045.29 1784.21 Q3045.29 1789.56 3046.8 1794.81 Q3048.33 1800.04 3051.4 1805.35 L3047.7 1805.35 Q3044.23 1799.91 3042.49 1794.65 Q3040.78 1789.4 3040.78 1784.21 Q3040.78 1779.05 3042.49 1773.82 Q3044.2 1768.59 3047.7 1763.12 L3051.4 1763.12 Z" fill="#000000" fill-rule="nonzero" fill-opacity="1" /><path clip-path="url(#clip300)" d="M3071.45 1786.06 Q3066.29 1786.06 3064.3 1787.24 Q3062.31 1788.42 3062.31 1791.27 Q3062.31 1793.54 3063.79 1794.88 Q3065.29 1796.2 3067.86 1796.2 Q3071.4 1796.2 3073.53 1793.7 Q3075.69 1791.18 3075.69 1787.01 L3075.69 1786.06 L3071.45 1786.06 M3079.95 1784.3 L3079.95 1799.1 L3075.69 1799.1 L3075.69 1795.16 Q3074.23 1797.52 3072.05 1798.66 Q3069.88 1799.77 3066.73 1799.77 Q3062.75 1799.77 3060.39 1797.54 Q3058.05 1795.3 3058.05 1791.55 Q3058.05 1787.17 3060.96 1784.95 Q3063.9 1782.73 3069.71 1782.73 L3075.69 1782.73 L3075.69 1782.31 Q3075.69 1779.37 3073.74 1777.78 Q3071.82 1776.16 3068.33 1776.16 Q3066.1 1776.16 3064 1776.69 Q3061.89 1777.22 3059.95 1778.29 L3059.95 1774.35 Q3062.28 1773.45 3064.48 1773.01 Q3066.68 1772.54 3068.76 1772.54 Q3074.39 1772.54 3077.17 1775.46 Q3079.95 1778.38 3079.95 1784.3 Z" fill="#000000" fill-rule="nonzero" fill-opacity="1" /><path clip-path="url(#clip300)" d="M3105.78 1777.1 L3105.78 1763.08 L3110.04 1763.08 L3110.04 1799.1 L3105.78 1799.1 L3105.78 1795.21 Q3104.44 1797.52 3102.38 1798.66 Q3100.34 1799.77 3097.47 1799.77 Q3092.77 1799.77 3089.81 1796.02 Q3086.87 1792.27 3086.87 1786.16 Q3086.87 1780.04 3089.81 1776.29 Q3092.77 1772.54 3097.47 1772.54 Q3100.34 1772.54 3102.38 1773.68 Q3104.44 1774.79 3105.78 1777.1 M3091.26 1786.16 Q3091.26 1790.85 3093.19 1793.54 Q3095.13 1796.2 3098.51 1796.2 Q3101.89 1796.2 3103.83 1793.54 Q3105.78 1790.85 3105.78 1786.16 Q3105.78 1781.46 3103.83 1778.79 Q3101.89 1776.11 3098.51 1776.11 Q3095.13 1776.11 3093.19 1778.79 Q3091.26 1781.46 3091.26 1786.16 Z" fill="#000000" fill-rule="nonzero" fill-opacity="1" /><path clip-path="url(#clip300)" d="M3140.36 1783.45 L3140.36 1799.1 L3136.1 1799.1 L3136.1 1783.59 Q3136.1 1779.91 3134.67 1778.08 Q3133.23 1776.25 3130.36 1776.25 Q3126.91 1776.25 3124.92 1778.45 Q3122.93 1780.65 3122.93 1784.44 L3122.93 1799.1 L3118.65 1799.1 L3118.65 1773.17 L3122.93 1773.17 L3122.93 1777.2 Q3124.46 1774.86 3126.52 1773.7 Q3128.6 1772.54 3131.31 1772.54 Q3135.78 1772.54 3138.07 1775.32 Q3140.36 1778.08 3140.36 1783.45 Z" fill="#000000" fill-rule="nonzero" fill-opacity="1" /><path clip-path="url(#clip300)" d="M3148.86 1763.08 L3153.12 1763.08 L3153.12 1799.1 L3148.86 1799.1 L3148.86 1763.08 Z" fill="#000000" fill-rule="nonzero" fill-opacity="1" /><path clip-path="url(#clip300)" d="M3166.15 1795.21 L3166.15 1808.96 L3161.87 1808.96 L3161.87 1773.17 L3166.15 1773.17 L3166.15 1777.1 Q3167.49 1774.79 3169.53 1773.68 Q3171.59 1772.54 3174.44 1772.54 Q3179.16 1772.54 3182.1 1776.29 Q3185.06 1780.04 3185.06 1786.16 Q3185.06 1792.27 3182.1 1796.02 Q3179.16 1799.77 3174.44 1799.77 Q3171.59 1799.77 3169.53 1798.66 Q3167.49 1797.52 3166.15 1795.21 M3180.64 1786.16 Q3180.64 1781.46 3178.69 1778.79 Q3176.77 1776.11 3173.39 1776.11 Q3170.01 1776.11 3168.07 1778.79 Q3166.15 1781.46 3166.15 1786.16 Q3166.15 1790.85 3168.07 1793.54 Q3170.01 1796.2 3173.39 1796.2 Q3176.77 1796.2 3178.69 1793.54 Q3180.64 1790.85 3180.64 1786.16 Z" fill="#000000" fill-rule="nonzero" fill-opacity="1" /><path clip-path="url(#clip300)" d="M3193.21 1793.22 L3198.09 1793.22 L3198.09 1797.2 L3194.3 1804.6 L3191.31 1804.6 L3193.21 1797.2 L3193.21 1793.22 Z" fill="#000000" fill-rule="nonzero" fill-opacity="1" /><path clip-path="url(#clip300)" d="M3222.26 1773.17 L3226.52 1773.17 L3226.52 1799.1 L3222.26 1799.1 L3222.26 1773.17 M3222.26 1763.08 L3226.52 1763.08 L3226.52 1768.47 L3222.26 1768.47 L3222.26 1763.08 Z" fill="#000000" fill-rule="nonzero" fill-opacity="1" /><path clip-path="url(#clip300)" d="M3239.55 1795.21 L3239.55 1808.96 L3235.27 1808.96 L3235.27 1773.17 L3239.55 1773.17 L3239.55 1777.1 Q3240.89 1774.79 3242.93 1773.68 Q3244.99 1772.54 3247.84 1772.54 Q3252.56 1772.54 3255.5 1776.29 Q3258.46 1780.04 3258.46 1786.16 Q3258.46 1792.27 3255.5 1796.02 Q3252.56 1799.77 3247.84 1799.77 Q3244.99 1799.77 3242.93 1798.66 Q3240.89 1797.52 3239.55 1795.21 M3254.04 1786.16 Q3254.04 1781.46 3252.1 1778.79 Q3250.18 1776.11 3246.8 1776.11 Q3243.42 1776.11 3241.47 1778.79 Q3239.55 1781.46 3239.55 1786.16 Q3239.55 1790.85 3241.47 1793.54 Q3243.42 1796.2 3246.8 1796.2 Q3250.18 1796.2 3252.1 1793.54 Q3254.04 1790.85 3254.04 1786.16 Z" fill="#000000" fill-rule="nonzero" fill-opacity="1" /><path clip-path="url(#clip300)" d="M3275.57 1776.16 Q3272.14 1776.16 3270.15 1778.84 Q3268.16 1781.5 3268.16 1786.16 Q3268.16 1790.81 3270.13 1793.49 Q3272.12 1796.16 3275.57 1796.16 Q3278.97 1796.16 3280.96 1793.47 Q3282.95 1790.79 3282.95 1786.16 Q3282.95 1781.55 3280.96 1778.86 Q3278.97 1776.16 3275.57 1776.16 M3275.57 1772.54 Q3281.12 1772.54 3284.3 1776.16 Q3287.47 1779.77 3287.47 1786.16 Q3287.47 1792.52 3284.3 1796.16 Q3281.12 1799.77 3275.57 1799.77 Q3269.99 1799.77 3266.82 1796.16 Q3263.67 1792.52 3263.67 1786.16 Q3263.67 1779.77 3266.82 1776.16 Q3269.99 1772.54 3275.57 1772.54 Z" fill="#000000" fill-rule="nonzero" fill-opacity="1" /><path clip-path="url(#clip300)" d="M3298.65 1795.21 L3298.65 1808.96 L3294.37 1808.96 L3294.37 1773.17 L3298.65 1773.17 L3298.65 1777.1 Q3299.99 1774.79 3302.03 1773.68 Q3304.09 1772.54 3306.93 1772.54 Q3311.66 1772.54 3314.6 1776.29 Q3317.56 1780.04 3317.56 1786.16 Q3317.56 1792.27 3314.6 1796.02 Q3311.66 1799.77 3306.93 1799.77 Q3304.09 1799.77 3302.03 1798.66 Q3299.99 1797.52 3298.65 1795.21 M3313.14 1786.16 Q3313.14 1781.46 3311.19 1778.79 Q3309.27 1776.11 3305.89 1776.11 Q3302.51 1776.11 3300.57 1778.79 Q3298.65 1781.46 3298.65 1786.16 Q3298.65 1790.85 3300.57 1793.54 Q3302.51 1796.2 3305.89 1796.2 Q3309.27 1796.2 3311.19 1793.54 Q3313.14 1790.85 3313.14 1786.16 Z" fill="#000000" fill-rule="nonzero" fill-opacity="1" /><path clip-path="url(#clip300)" d="M3328.83 1765.81 L3328.83 1773.17 L3337.61 1773.17 L3337.61 1776.48 L3328.83 1776.48 L3328.83 1790.55 Q3328.83 1793.73 3329.69 1794.63 Q3330.57 1795.53 3333.23 1795.53 L3337.61 1795.53 L3337.61 1799.1 L3333.23 1799.1 Q3328.3 1799.1 3326.43 1797.27 Q3324.55 1795.42 3324.55 1790.55 L3324.55 1776.48 L3321.43 1776.48 L3321.43 1773.17 L3324.55 1773.17 L3324.55 1765.81 L3328.83 1765.81 Z" fill="#000000" fill-rule="nonzero" fill-opacity="1" /><path clip-path="url(#clip300)" d="M3342.54 1763.12 L3346.24 1763.12 Q3349.71 1768.59 3351.43 1773.82 Q3353.16 1779.05 3353.16 1784.21 Q3353.16 1789.4 3351.43 1794.65 Q3349.71 1799.91 3346.24 1805.35 L3342.54 1805.35 Q3345.62 1800.04 3347.12 1794.81 Q3348.65 1789.56 3348.65 1784.21 Q3348.65 1778.86 3347.12 1773.66 Q3345.62 1768.45 3342.54 1763.12 Z" fill="#000000" fill-rule="nonzero" fill-opacity="1" /><polyline clip-path="url(#clip300)" style="stroke:#2e8b57; stroke-linecap:round; stroke-linejoin:round; stroke-width:6; stroke-opacity:1; fill:none" points="2792.44,1833.66 3005.3,1833.66 "/>
<path clip-path="url(#clip300)" d="M2898.87 1808.06 L2873.27 1833.66 L2898.87 1859.26 L2924.47 1833.66 L2898.87 1808.06 Z" fill="#2e8b57" fill-rule="evenodd" fill-opacity="1" stroke="none"/>
<path clip-path="url(#clip300)" d="M3051.4 1814.96 Q3048.3 1820.29 3046.8 1825.5 Q3045.29 1830.7 3045.29 1836.05 Q3045.29 1841.4 3046.8 1846.65 Q3048.33 1851.88 3051.4 1857.19 L3047.7 1857.19 Q3044.23 1851.75 3042.49 1846.49 Q3040.78 1841.24 3040.78 1836.05 Q3040.78 1830.89 3042.49 1825.66 Q3044.2 1820.43 3047.7 1814.96 L3051.4 1814.96 Z" fill="#000000" fill-rule="nonzero" fill-opacity="1" /><path clip-path="url(#clip300)" d="M3071.45 1837.9 Q3066.29 1837.9 3064.3 1839.08 Q3062.31 1840.26 3062.31 1843.11 Q3062.31 1845.38 3063.79 1846.72 Q3065.29 1848.04 3067.86 1848.04 Q3071.4 1848.04 3073.53 1845.54 Q3075.69 1843.02 3075.69 1838.85 L3075.69 1837.9 L3071.45 1837.9 M3079.95 1836.14 L3079.95 1850.94 L3075.69 1850.94 L3075.69 1847 Q3074.23 1849.36 3072.05 1850.5 Q3069.88 1851.61 3066.73 1851.61 Q3062.75 1851.61 3060.39 1849.38 Q3058.05 1847.14 3058.05 1843.39 Q3058.05 1839.01 3060.96 1836.79 Q3063.9 1834.57 3069.71 1834.57 L3075.69 1834.57 L3075.69 1834.15 Q3075.69 1831.21 3073.74 1829.62 Q3071.82 1828 3068.33 1828 Q3066.1 1828 3064 1828.53 Q3061.89 1829.06 3059.95 1830.13 L3059.95 1826.19 Q3062.28 1825.29 3064.48 1824.85 Q3066.68 1824.38 3068.76 1824.38 Q3074.39 1824.38 3077.17 1827.3 Q3079.95 1830.22 3079.95 1836.14 Z" fill="#000000" fill-rule="nonzero" fill-opacity="1" /><path clip-path="url(#clip300)" d="M3105.78 1828.94 L3105.78 1814.92 L3110.04 1814.92 L3110.04 1850.94 L3105.78 1850.94 L3105.78 1847.05 Q3104.44 1849.36 3102.38 1850.5 Q3100.34 1851.61 3097.47 1851.61 Q3092.77 1851.61 3089.81 1847.86 Q3086.87 1844.11 3086.87 1838 Q3086.87 1831.88 3089.81 1828.13 Q3092.77 1824.38 3097.47 1824.38 Q3100.34 1824.38 3102.38 1825.52 Q3104.44 1826.63 3105.78 1828.94 M3091.26 1838 Q3091.26 1842.69 3093.19 1845.38 Q3095.13 1848.04 3098.51 1848.04 Q3101.89 1848.04 3103.83 1845.38 Q3105.78 1842.69 3105.78 1838 Q3105.78 1833.3 3103.83 1830.63 Q3101.89 1827.95 3098.51 1827.95 Q3095.13 1827.95 3093.19 1830.63 Q3091.26 1833.3 3091.26 1838 Z" fill="#000000" fill-rule="nonzero" fill-opacity="1" /><path clip-path="url(#clip300)" d="M3140.36 1835.29 L3140.36 1850.94 L3136.1 1850.94 L3136.1 1835.43 Q3136.1 1831.75 3134.67 1829.92 Q3133.23 1828.09 3130.36 1828.09 Q3126.91 1828.09 3124.92 1830.29 Q3122.93 1832.49 3122.93 1836.28 L3122.93 1850.94 L3118.65 1850.94 L3118.65 1825.01 L3122.93 1825.01 L3122.93 1829.04 Q3124.46 1826.7 3126.52 1825.54 Q3128.6 1824.38 3131.31 1824.38 Q3135.78 1824.38 3138.07 1827.16 Q3140.36 1829.92 3140.36 1835.29 Z" fill="#000000" fill-rule="nonzero" fill-opacity="1" /><path clip-path="url(#clip300)" d="M3148.86 1814.92 L3153.12 1814.92 L3153.12 1850.94 L3148.86 1850.94 L3148.86 1814.92 Z" fill="#000000" fill-rule="nonzero" fill-opacity="1" /><path clip-path="url(#clip300)" d="M3166.15 1847.05 L3166.15 1860.8 L3161.87 1860.8 L3161.87 1825.01 L3166.15 1825.01 L3166.15 1828.94 Q3167.49 1826.63 3169.53 1825.52 Q3171.59 1824.38 3174.44 1824.38 Q3179.16 1824.38 3182.1 1828.13 Q3185.06 1831.88 3185.06 1838 Q3185.06 1844.11 3182.1 1847.86 Q3179.16 1851.61 3174.44 1851.61 Q3171.59 1851.61 3169.53 1850.5 Q3167.49 1849.36 3166.15 1847.05 M3180.64 1838 Q3180.64 1833.3 3178.69 1830.63 Q3176.77 1827.95 3173.39 1827.95 Q3170.01 1827.95 3168.07 1830.63 Q3166.15 1833.3 3166.15 1838 Q3166.15 1842.69 3168.07 1845.38 Q3170.01 1848.04 3173.39 1848.04 Q3176.77 1848.04 3178.69 1845.38 Q3180.64 1842.69 3180.64 1838 Z" fill="#000000" fill-rule="nonzero" fill-opacity="1" /><path clip-path="url(#clip300)" d="M3193.21 1845.06 L3198.09 1845.06 L3198.09 1849.04 L3194.3 1856.44 L3191.31 1856.44 L3193.21 1849.04 L3193.21 1845.06 Z" fill="#000000" fill-rule="nonzero" fill-opacity="1" /><path clip-path="url(#clip300)" d="M3242.44 1829.99 Q3244.04 1827.12 3246.26 1825.75 Q3248.49 1824.38 3251.5 1824.38 Q3255.55 1824.38 3257.75 1827.23 Q3259.94 1830.06 3259.94 1835.29 L3259.94 1850.94 L3255.66 1850.94 L3255.66 1835.43 Q3255.66 1831.7 3254.34 1829.89 Q3253.02 1828.09 3250.31 1828.09 Q3247 1828.09 3245.08 1830.29 Q3243.16 1832.49 3243.16 1836.28 L3243.16 1850.94 L3238.88 1850.94 L3238.88 1835.43 Q3238.88 1831.68 3237.56 1829.89 Q3236.24 1828.09 3233.49 1828.09 Q3230.22 1828.09 3228.3 1830.31 Q3226.38 1832.51 3226.38 1836.28 L3226.38 1850.94 L3222.1 1850.94 L3222.1 1825.01 L3226.38 1825.01 L3226.38 1829.04 Q3227.84 1826.65 3229.88 1825.52 Q3231.91 1824.38 3234.71 1824.38 Q3237.54 1824.38 3239.5 1825.82 Q3241.5 1827.26 3242.44 1829.99 Z" fill="#000000" fill-rule="nonzero" fill-opacity="1" /><path clip-path="url(#clip300)" d="M3280.22 1837.9 Q3275.06 1837.9 3273.07 1839.08 Q3271.08 1840.26 3271.08 1843.11 Q3271.08 1845.38 3272.56 1846.72 Q3274.06 1848.04 3276.63 1848.04 Q3280.18 1848.04 3282.31 1845.54 Q3284.46 1843.02 3284.46 1838.85 L3284.46 1837.9 L3280.22 1837.9 M3288.72 1836.14 L3288.72 1850.94 L3284.46 1850.94 L3284.46 1847 Q3283 1849.36 3280.82 1850.5 Q3278.65 1851.61 3275.5 1851.61 Q3271.52 1851.61 3269.16 1849.38 Q3266.82 1847.14 3266.82 1843.39 Q3266.82 1839.01 3269.74 1836.79 Q3272.68 1834.57 3278.49 1834.57 L3284.46 1834.57 L3284.46 1834.15 Q3284.46 1831.21 3282.51 1829.62 Q3280.59 1828 3277.1 1828 Q3274.87 1828 3272.77 1828.53 Q3270.66 1829.06 3268.72 1830.13 L3268.72 1826.19 Q3271.06 1825.29 3273.25 1824.85 Q3275.45 1824.38 3277.54 1824.38 Q3283.16 1824.38 3285.94 1827.3 Q3288.72 1830.22 3288.72 1836.14 Z" fill="#000000" fill-rule="nonzero" fill-opacity="1" /><path clip-path="url(#clip300)" d="M3314.55 1828.94 L3314.55 1814.92 L3318.81 1814.92 L3318.81 1850.94 L3314.55 1850.94 L3314.55 1847.05 Q3313.21 1849.36 3311.15 1850.5 Q3309.11 1851.61 3306.24 1851.61 Q3301.54 1851.61 3298.58 1847.86 Q3295.64 1844.11 3295.64 1838 Q3295.64 1831.88 3298.58 1828.13 Q3301.54 1824.38 3306.24 1824.38 Q3309.11 1824.38 3311.15 1825.52 Q3313.21 1826.63 3314.55 1828.94 M3300.04 1838 Q3300.04 1842.69 3301.96 1845.38 Q3303.9 1848.04 3307.28 1848.04 Q3310.66 1848.04 3312.61 1845.38 Q3314.55 1842.69 3314.55 1838 Q3314.55 1833.3 3312.61 1830.63 Q3310.66 1827.95 3307.28 1827.95 Q3303.9 1827.95 3301.96 1830.63 Q3300.04 1833.3 3300.04 1838 Z" fill="#000000" fill-rule="nonzero" fill-opacity="1" /><path clip-path="url(#clip300)" d="M3349.13 1835.29 L3349.13 1850.94 L3344.87 1850.94 L3344.87 1835.43 Q3344.87 1831.75 3343.44 1829.92 Q3342 1828.09 3339.13 1828.09 Q3335.68 1828.09 3333.69 1830.29 Q3331.7 1832.49 3331.7 1836.28 L3331.7 1850.94 L3327.42 1850.94 L3327.42 1825.01 L3331.7 1825.01 L3331.7 1829.04 Q3333.23 1826.7 3335.29 1825.54 Q3337.37 1824.38 3340.08 1824.38 Q3344.55 1824.38 3346.84 1827.16 Q3349.13 1829.92 3349.13 1835.29 Z" fill="#000000" fill-rule="nonzero" fill-opacity="1" /><path clip-path="url(#clip300)" d="M3357.63 1814.92 L3361.89 1814.92 L3361.89 1850.94 L3357.63 1850.94 L3357.63 1814.92 Z" fill="#000000" fill-rule="nonzero" fill-opacity="1" /><path clip-path="url(#clip300)" d="M3374.92 1847.05 L3374.92 1860.8 L3370.64 1860.8 L3370.64 1825.01 L3374.92 1825.01 L3374.92 1828.94 Q3376.26 1826.63 3378.3 1825.52 Q3380.36 1824.38 3383.21 1824.38 Q3387.93 1824.38 3390.87 1828.13 Q3393.83 1831.88 3393.83 1838 Q3393.83 1844.11 3390.87 1847.86 Q3387.93 1851.61 3383.21 1851.61 Q3380.36 1851.61 3378.3 1850.5 Q3376.26 1849.36 3374.92 1847.05 M3389.41 1838 Q3389.41 1833.3 3387.47 1830.63 Q3385.55 1827.95 3382.17 1827.95 Q3378.79 1827.95 3376.84 1830.63 Q3374.92 1833.3 3374.92 1838 Q3374.92 1842.69 3376.84 1845.38 Q3378.79 1848.04 3382.17 1848.04 Q3385.55 1848.04 3387.47 1845.38 Q3389.41 1842.69 3389.41 1838 Z" fill="#000000" fill-rule="nonzero" fill-opacity="1" /><path clip-path="url(#clip300)" d="M3400.22 1814.96 L3403.93 1814.96 Q3407.4 1820.43 3409.11 1825.66 Q3410.85 1830.89 3410.85 1836.05 Q3410.85 1841.24 3409.11 1846.49 Q3407.4 1851.75 3403.93 1857.19 L3400.22 1857.19 Q3403.3 1851.88 3404.8 1846.65 Q3406.33 1841.4 3406.33 1836.05 Q3406.33 1830.7 3404.8 1825.5 Q3403.3 1820.29 3400.22 1814.96 Z" fill="#000000" fill-rule="nonzero" fill-opacity="1" /><polyline clip-path="url(#clip300)" style="stroke:#ff6347; stroke-linecap:round; stroke-linejoin:round; stroke-width:6; stroke-opacity:1; fill:none" points="2792.44,1885.5 3005.3,1885.5 "/>
<path clip-path="url(#clip300)" d="M2873.27 1859.9 L2873.27 1911.1 L2924.47 1911.1 L2924.47 1859.9 L2873.27 1859.9 Z" fill="#ff6347" fill-rule="evenodd" fill-opacity="1" stroke="none"/>
<path clip-path="url(#clip300)" d="M3051.4 1866.8 Q3048.3 1872.13 3046.8 1877.34 Q3045.29 1882.54 3045.29 1887.89 Q3045.29 1893.24 3046.8 1898.49 Q3048.33 1903.72 3051.4 1909.03 L3047.7 1909.03 Q3044.23 1903.59 3042.49 1898.33 Q3040.78 1893.08 3040.78 1887.89 Q3040.78 1882.73 3042.49 1877.5 Q3044.2 1872.27 3047.7 1866.8 L3051.4 1866.8 Z" fill="#000000" fill-rule="nonzero" fill-opacity="1" /><path clip-path="url(#clip300)" d="M3081.84 1888.75 L3081.84 1890.83 L3062.26 1890.83 Q3062.54 1895.23 3064.9 1897.54 Q3067.28 1899.84 3071.52 1899.84 Q3073.97 1899.84 3076.26 1899.23 Q3078.58 1898.63 3080.85 1897.43 L3080.85 1901.46 Q3078.56 1902.43 3076.15 1902.94 Q3073.74 1903.45 3071.26 1903.45 Q3065.06 1903.45 3061.43 1899.84 Q3057.82 1896.22 3057.82 1890.07 Q3057.82 1883.7 3061.24 1879.97 Q3064.69 1876.22 3070.52 1876.22 Q3075.76 1876.22 3078.79 1879.6 Q3081.84 1882.96 3081.84 1888.75 M3077.58 1887.5 Q3077.54 1884 3075.62 1881.92 Q3073.72 1879.84 3070.57 1879.84 Q3067.01 1879.84 3064.85 1881.85 Q3062.72 1883.86 3062.4 1887.52 L3077.58 1887.5 Z" fill="#000000" fill-rule="nonzero" fill-opacity="1" /><path clip-path="url(#clip300)" d="M3109.55 1876.85 L3100.18 1889.47 L3110.04 1902.78 L3105.01 1902.78 L3097.47 1892.59 L3089.92 1902.78 L3084.9 1902.78 L3094.97 1889.21 L3085.76 1876.85 L3090.78 1876.85 L3097.65 1886.09 L3104.53 1876.85 L3109.55 1876.85 Z" fill="#000000" fill-rule="nonzero" fill-opacity="1" /><path clip-path="url(#clip300)" d="M3127.84 1889.74 Q3122.68 1889.74 3120.69 1890.92 Q3118.7 1892.1 3118.7 1894.95 Q3118.7 1897.22 3120.18 1898.56 Q3121.68 1899.88 3124.25 1899.88 Q3127.79 1899.88 3129.92 1897.38 Q3132.07 1894.86 3132.07 1890.69 L3132.07 1889.74 L3127.84 1889.74 M3136.33 1887.98 L3136.33 1902.78 L3132.07 1902.78 L3132.07 1898.84 Q3130.62 1901.2 3128.44 1902.34 Q3126.26 1903.45 3123.12 1903.45 Q3119.13 1903.45 3116.77 1901.22 Q3114.44 1898.98 3114.44 1895.23 Q3114.44 1890.85 3117.35 1888.63 Q3120.29 1886.41 3126.1 1886.41 L3132.07 1886.41 L3132.07 1885.99 Q3132.07 1883.05 3130.13 1881.46 Q3128.21 1879.84 3124.71 1879.84 Q3122.49 1879.84 3120.38 1880.37 Q3118.28 1880.9 3116.33 1881.97 L3116.33 1878.03 Q3118.67 1877.13 3120.87 1876.69 Q3123.07 1876.22 3125.15 1876.22 Q3130.78 1876.22 3133.56 1879.14 Q3136.33 1882.06 3136.33 1887.98 Z" fill="#000000" fill-rule="nonzero" fill-opacity="1" /><path clip-path="url(#clip300)" d="M3146.2 1896.9 L3151.08 1896.9 L3151.08 1900.88 L3147.28 1908.28 L3144.3 1908.28 L3146.2 1900.88 L3146.2 1896.9 Z" fill="#000000" fill-rule="nonzero" fill-opacity="1" /><path clip-path="url(#clip300)" d="M3175.25 1876.85 L3179.51 1876.85 L3179.51 1902.78 L3175.25 1902.78 L3175.25 1876.85 M3175.25 1866.76 L3179.51 1866.76 L3179.51 1872.15 L3175.25 1872.15 L3175.25 1866.76 Z" fill="#000000" fill-rule="nonzero" fill-opacity="1" /><path clip-path="url(#clip300)" d="M3192.54 1898.89 L3192.54 1912.64 L3188.25 1912.64 L3188.25 1876.85 L3192.54 1876.85 L3192.54 1880.78 Q3193.88 1878.47 3195.92 1877.36 Q3197.98 1876.22 3200.82 1876.22 Q3205.55 1876.22 3208.49 1879.97 Q3211.45 1883.72 3211.45 1889.84 Q3211.45 1895.95 3208.49 1899.7 Q3205.55 1903.45 3200.82 1903.45 Q3197.98 1903.45 3195.92 1902.34 Q3193.88 1901.2 3192.54 1898.89 M3207.03 1889.84 Q3207.03 1885.14 3205.08 1882.47 Q3203.16 1879.79 3199.78 1879.79 Q3196.4 1879.79 3194.46 1882.47 Q3192.54 1885.14 3192.54 1889.84 Q3192.54 1894.53 3194.46 1897.22 Q3196.4 1899.88 3199.78 1899.88 Q3203.16 1899.88 3205.08 1897.22 Q3207.03 1894.53 3207.03 1889.84 Z" fill="#000000" fill-rule="nonzero" fill-opacity="1" /><path clip-path="url(#clip300)" d="M3228.56 1879.84 Q3225.13 1879.84 3223.14 1882.52 Q3221.15 1885.18 3221.15 1889.84 Q3221.15 1894.49 3223.12 1897.17 Q3225.11 1899.84 3228.56 1899.84 Q3231.96 1899.84 3233.95 1897.15 Q3235.94 1894.47 3235.94 1889.84 Q3235.94 1885.23 3233.95 1882.54 Q3231.96 1879.84 3228.56 1879.84 M3228.56 1876.22 Q3234.11 1876.22 3237.28 1879.84 Q3240.45 1883.45 3240.45 1889.84 Q3240.45 1896.2 3237.28 1899.84 Q3234.11 1903.45 3228.56 1903.45 Q3222.98 1903.45 3219.81 1899.84 Q3216.66 1896.2 3216.66 1889.84 Q3216.66 1883.45 3219.81 1879.84 Q3222.98 1876.22 3228.56 1876.22 Z" fill="#000000" fill-rule="nonzero" fill-opacity="1" /><path clip-path="url(#clip300)" d="M3251.63 1898.89 L3251.63 1912.64 L3247.35 1912.64 L3247.35 1876.85 L3251.63 1876.85 L3251.63 1880.78 Q3252.98 1878.47 3255.01 1877.36 Q3257.07 1876.22 3259.92 1876.22 Q3264.64 1876.22 3267.58 1879.97 Q3270.55 1883.72 3270.55 1889.84 Q3270.55 1895.95 3267.58 1899.7 Q3264.64 1903.45 3259.92 1903.45 Q3257.07 1903.45 3255.01 1902.34 Q3252.98 1901.2 3251.63 1898.89 M3266.12 1889.84 Q3266.12 1885.14 3264.18 1882.47 Q3262.26 1879.79 3258.88 1879.79 Q3255.5 1879.79 3253.56 1882.47 Q3251.63 1885.14 3251.63 1889.84 Q3251.63 1894.53 3253.56 1897.22 Q3255.5 1899.88 3258.88 1899.88 Q3262.26 1899.88 3264.18 1897.22 Q3266.12 1894.53 3266.12 1889.84 Z" fill="#000000" fill-rule="nonzero" fill-opacity="1" /><path clip-path="url(#clip300)" d="M3281.82 1869.49 L3281.82 1876.85 L3290.59 1876.85 L3290.59 1880.16 L3281.82 1880.16 L3281.82 1894.23 Q3281.82 1897.41 3282.68 1898.31 Q3283.56 1899.21 3286.22 1899.21 L3290.59 1899.21 L3290.59 1902.78 L3286.22 1902.78 Q3281.29 1902.78 3279.41 1900.95 Q3277.54 1899.1 3277.54 1894.23 L3277.54 1880.16 L3274.41 1880.16 L3274.41 1876.85 L3277.54 1876.85 L3277.54 1869.49 L3281.82 1869.49 Z" fill="#000000" fill-rule="nonzero" fill-opacity="1" /><path clip-path="url(#clip300)" d="M3295.52 1866.8 L3299.23 1866.8 Q3302.7 1872.27 3304.41 1877.5 Q3306.15 1882.73 3306.15 1887.89 Q3306.15 1893.08 3304.41 1898.33 Q3302.7 1903.59 3299.23 1909.03 L3295.52 1909.03 Q3298.6 1903.72 3300.11 1898.49 Q3301.63 1893.24 3301.63 1887.89 Q3301.63 1882.54 3300.11 1877.34 Q3298.6 1872.13 3295.52 1866.8 Z" fill="#000000" fill-rule="nonzero" fill-opacity="1" /><polyline clip-path="url(#clip300)" style="stroke:#ff8c00; stroke-linecap:round; stroke-linejoin:round; stroke-width:6; stroke-opacity:1; fill:none" points="2792.44,1937.34 3005.3,1937.34 "/>
<path clip-path="url(#clip300)" d="M2898.87 1911.74 L2873.27 1962.94 L2924.47 1962.94 L2898.87 1911.74 Z" fill="#ff8c00" fill-rule="evenodd" fill-opacity="1" stroke="none"/>
<path clip-path="url(#clip300)" d="M3051.4 1918.64 Q3048.3 1923.97 3046.8 1929.18 Q3045.29 1934.38 3045.29 1939.73 Q3045.29 1945.08 3046.8 1950.33 Q3048.33 1955.56 3051.4 1960.87 L3047.7 1960.87 Q3044.23 1955.43 3042.49 1950.17 Q3040.78 1944.92 3040.78 1939.73 Q3040.78 1934.57 3042.49 1929.34 Q3044.2 1924.11 3047.7 1918.64 L3051.4 1918.64 Z" fill="#000000" fill-rule="nonzero" fill-opacity="1" /><path clip-path="url(#clip300)" d="M3081.84 1940.59 L3081.84 1942.67 L3062.26 1942.67 Q3062.54 1947.07 3064.9 1949.38 Q3067.28 1951.68 3071.52 1951.68 Q3073.97 1951.68 3076.26 1951.07 Q3078.58 1950.47 3080.85 1949.27 L3080.85 1953.3 Q3078.56 1954.27 3076.15 1954.78 Q3073.74 1955.29 3071.26 1955.29 Q3065.06 1955.29 3061.43 1951.68 Q3057.82 1948.06 3057.82 1941.91 Q3057.82 1935.54 3061.24 1931.81 Q3064.69 1928.06 3070.52 1928.06 Q3075.76 1928.06 3078.79 1931.44 Q3081.84 1934.8 3081.84 1940.59 M3077.58 1939.34 Q3077.54 1935.84 3075.62 1933.76 Q3073.72 1931.68 3070.57 1931.68 Q3067.01 1931.68 3064.85 1933.69 Q3062.72 1935.7 3062.4 1939.36 L3077.58 1939.34 Z" fill="#000000" fill-rule="nonzero" fill-opacity="1" /><path clip-path="url(#clip300)" d="M3109.55 1928.69 L3100.18 1941.31 L3110.04 1954.62 L3105.01 1954.62 L3097.47 1944.43 L3089.92 1954.62 L3084.9 1954.62 L3094.97 1941.05 L3085.76 1928.69 L3090.78 1928.69 L3097.65 1937.93 L3104.53 1928.69 L3109.55 1928.69 Z" fill="#000000" fill-rule="nonzero" fill-opacity="1" /><path clip-path="url(#clip300)" d="M3127.84 1941.58 Q3122.68 1941.58 3120.69 1942.76 Q3118.7 1943.94 3118.7 1946.79 Q3118.7 1949.06 3120.18 1950.4 Q3121.68 1951.72 3124.25 1951.72 Q3127.79 1951.72 3129.92 1949.22 Q3132.07 1946.7 3132.07 1942.53 L3132.07 1941.58 L3127.84 1941.58 M3136.33 1939.82 L3136.33 1954.62 L3132.07 1954.62 L3132.07 1950.68 Q3130.62 1953.04 3128.44 1954.18 Q3126.26 1955.29 3123.12 1955.29 Q3119.13 1955.29 3116.77 1953.06 Q3114.44 1950.82 3114.44 1947.07 Q3114.44 1942.69 3117.35 1940.47 Q3120.29 1938.25 3126.1 1938.25 L3132.07 1938.25 L3132.07 1937.83 Q3132.07 1934.89 3130.13 1933.3 Q3128.21 1931.68 3124.71 1931.68 Q3122.49 1931.68 3120.38 1932.21 Q3118.28 1932.74 3116.33 1933.81 L3116.33 1929.87 Q3118.67 1928.97 3120.87 1928.53 Q3123.07 1928.06 3125.15 1928.06 Q3130.78 1928.06 3133.56 1930.98 Q3136.33 1933.9 3136.33 1939.82 Z" fill="#000000" fill-rule="nonzero" fill-opacity="1" /><path clip-path="url(#clip300)" d="M3146.2 1948.74 L3151.08 1948.74 L3151.08 1952.72 L3147.28 1960.12 L3144.3 1960.12 L3146.2 1952.72 L3146.2 1948.74 Z" fill="#000000" fill-rule="nonzero" fill-opacity="1" /><path clip-path="url(#clip300)" d="M3195.43 1933.67 Q3197.03 1930.8 3199.25 1929.43 Q3201.47 1928.06 3204.48 1928.06 Q3208.53 1928.06 3210.73 1930.91 Q3212.93 1933.74 3212.93 1938.97 L3212.93 1954.62 L3208.65 1954.62 L3208.65 1939.11 Q3208.65 1935.38 3207.33 1933.57 Q3206.01 1931.77 3203.3 1931.77 Q3199.99 1931.77 3198.07 1933.97 Q3196.15 1936.17 3196.15 1939.96 L3196.15 1954.62 L3191.87 1954.62 L3191.87 1939.11 Q3191.87 1935.36 3190.55 1933.57 Q3189.23 1931.77 3186.47 1931.77 Q3183.21 1931.77 3181.29 1933.99 Q3179.37 1936.19 3179.37 1939.96 L3179.37 1954.62 L3175.08 1954.62 L3175.08 1928.69 L3179.37 1928.69 L3179.37 1932.72 Q3180.82 1930.33 3182.86 1929.2 Q3184.9 1928.06 3187.7 1928.06 Q3190.52 1928.06 3192.49 1929.5 Q3194.48 1930.94 3195.43 1933.67 Z" fill="#000000" fill-rule="nonzero" fill-opacity="1" /><path clip-path="url(#clip300)" d="M3233.21 1941.58 Q3228.05 1941.58 3226.06 1942.76 Q3224.06 1943.94 3224.06 1946.79 Q3224.06 1949.06 3225.55 1950.4 Q3227.05 1951.72 3229.62 1951.72 Q3233.16 1951.72 3235.29 1949.22 Q3237.44 1946.7 3237.44 1942.53 L3237.44 1941.58 L3233.21 1941.58 M3241.7 1939.82 L3241.7 1954.62 L3237.44 1954.62 L3237.44 1950.68 Q3235.99 1953.04 3233.81 1954.18 Q3231.63 1955.29 3228.49 1955.29 Q3224.5 1955.29 3222.14 1953.06 Q3219.81 1950.82 3219.81 1947.07 Q3219.81 1942.69 3222.72 1940.47 Q3225.66 1938.25 3231.47 1938.25 L3237.44 1938.25 L3237.44 1937.83 Q3237.44 1934.89 3235.5 1933.3 Q3233.58 1931.68 3230.08 1931.68 Q3227.86 1931.68 3225.75 1932.21 Q3223.65 1932.74 3221.7 1933.81 L3221.7 1929.87 Q3224.04 1928.97 3226.24 1928.53 Q3228.44 1928.06 3230.52 1928.06 Q3236.15 1928.06 3238.93 1930.98 Q3241.7 1933.9 3241.7 1939.82 Z" fill="#000000" fill-rule="nonzero" fill-opacity="1" /><path clip-path="url(#clip300)" d="M3267.54 1932.62 L3267.54 1918.6 L3271.8 1918.6 L3271.8 1954.62 L3267.54 1954.62 L3267.54 1950.73 Q3266.19 1953.04 3264.13 1954.18 Q3262.1 1955.29 3259.23 1955.29 Q3254.53 1955.29 3251.56 1951.54 Q3248.63 1947.79 3248.63 1941.68 Q3248.63 1935.56 3251.56 1931.81 Q3254.53 1928.06 3259.23 1928.06 Q3262.1 1928.06 3264.13 1929.2 Q3266.19 1930.31 3267.54 1932.62 M3253.02 1941.68 Q3253.02 1946.37 3254.94 1949.06 Q3256.89 1951.72 3260.27 1951.72 Q3263.65 1951.72 3265.59 1949.06 Q3267.54 1946.37 3267.54 1941.68 Q3267.54 1936.98 3265.59 1934.31 Q3263.65 1931.63 3260.27 1931.63 Q3256.89 1931.63 3254.94 1934.31 Q3253.02 1936.98 3253.02 1941.68 Z" fill="#000000" fill-rule="nonzero" fill-opacity="1" /><path clip-path="url(#clip300)" d="M3302.12 1938.97 L3302.12 1954.62 L3297.86 1954.62 L3297.86 1939.11 Q3297.86 1935.43 3296.43 1933.6 Q3294.99 1931.77 3292.12 1931.77 Q3288.67 1931.77 3286.68 1933.97 Q3284.69 1936.17 3284.69 1939.96 L3284.69 1954.62 L3280.41 1954.62 L3280.41 1928.69 L3284.69 1928.69 L3284.69 1932.72 Q3286.22 1930.38 3288.28 1929.22 Q3290.36 1928.06 3293.07 1928.06 Q3297.54 1928.06 3299.83 1930.84 Q3302.12 1933.6 3302.12 1938.97 Z" fill="#000000" fill-rule="nonzero" fill-opacity="1" /><path clip-path="url(#clip300)" d="M3310.62 1918.6 L3314.87 1918.6 L3314.87 1954.62 L3310.62 1954.62 L3310.62 1918.6 Z" fill="#000000" fill-rule="nonzero" fill-opacity="1" /><path clip-path="url(#clip300)" d="M3327.91 1950.73 L3327.91 1964.48 L3323.62 1964.48 L3323.62 1928.69 L3327.91 1928.69 L3327.91 1932.62 Q3329.25 1930.31 3331.29 1929.2 Q3333.35 1928.06 3336.19 1928.06 Q3340.92 1928.06 3343.86 1931.81 Q3346.82 1935.56 3346.82 1941.68 Q3346.82 1947.79 3343.86 1951.54 Q3340.92 1955.29 3336.19 1955.29 Q3333.35 1955.29 3331.29 1954.18 Q3329.25 1953.04 3327.91 1950.73 M3342.4 1941.68 Q3342.4 1936.98 3340.45 1934.31 Q3338.53 1931.63 3335.15 1931.63 Q3331.77 1931.63 3329.83 1934.31 Q3327.91 1936.98 3327.91 1941.68 Q3327.91 1946.37 3329.83 1949.06 Q3331.77 1951.72 3335.15 1951.72 Q3338.53 1951.72 3340.45 1949.06 Q3342.4 1946.37 3342.4 1941.68 Z" fill="#000000" fill-rule="nonzero" fill-opacity="1" /><path clip-path="url(#clip300)" d="M3353.21 1918.64 L3356.91 1918.64 Q3360.38 1924.11 3362.1 1929.34 Q3363.83 1934.57 3363.83 1939.73 Q3363.83 1944.92 3362.1 1950.17 Q3360.38 1955.43 3356.91 1960.87 L3353.21 1960.87 Q3356.29 1955.56 3357.79 1950.33 Q3359.32 1945.08 3359.32 1939.73 Q3359.32 1934.38 3357.79 1929.18 Q3356.29 1923.97 3353.21 1918.64 Z" fill="#000000" fill-rule="nonzero" fill-opacity="1" /><polyline clip-path="url(#clip300)" style="stroke:#9370db; stroke-linecap:round; stroke-linejoin:round; stroke-width:6; stroke-opacity:1; fill:none" points="2792.44,1989.18 3005.3,1989.18 "/>
<path clip-path="url(#clip300)" d="M2924.47 1963.58 L2873.27 1963.58 L2898.87 2014.78 L2924.47 1963.58 Z" fill="#9370db" fill-rule="evenodd" fill-opacity="1" stroke="none"/>
<path clip-path="url(#clip300)" d="M3051.4 1970.48 Q3048.3 1975.81 3046.8 1981.02 Q3045.29 1986.22 3045.29 1991.57 Q3045.29 1996.92 3046.8 2002.17 Q3048.33 2007.4 3051.4 2012.71 L3047.7 2012.71 Q3044.23 2007.27 3042.49 2002.01 Q3040.78 1996.76 3040.78 1991.57 Q3040.78 1986.41 3042.49 1981.18 Q3044.2 1975.95 3047.7 1970.48 L3051.4 1970.48 Z" fill="#000000" fill-rule="nonzero" fill-opacity="1" /><path clip-path="url(#clip300)" d="M3059.67 1980.53 L3063.93 1980.53 L3063.93 2006.92 Q3063.93 2011.87 3062.03 2014.09 Q3060.15 2016.32 3055.96 2016.32 L3054.34 2016.32 L3054.34 2012.71 L3055.48 2012.71 Q3057.91 2012.71 3058.79 2011.57 Q3059.67 2010.46 3059.67 2006.92 L3059.67 1980.53 M3059.67 1970.44 L3063.93 1970.44 L3063.93 1975.83 L3059.67 1975.83 L3059.67 1970.44 Z" fill="#000000" fill-rule="nonzero" fill-opacity="1" /><path clip-path="url(#clip300)" d="M3072.4 1996.22 L3072.4 1980.53 L3076.66 1980.53 L3076.66 1996.06 Q3076.66 1999.74 3078.09 2001.59 Q3079.53 2003.42 3082.4 2003.42 Q3085.85 2003.42 3087.84 2001.22 Q3089.85 1999.03 3089.85 1995.23 L3089.85 1980.53 L3094.11 1980.53 L3094.11 2006.46 L3089.85 2006.46 L3089.85 2002.47 Q3088.3 2004.84 3086.24 2005.99 Q3084.2 2007.13 3081.5 2007.13 Q3077.03 2007.13 3074.71 2004.35 Q3072.4 2001.57 3072.4 1996.22 M3083.12 1979.9 L3083.12 1979.9 Z" fill="#000000" fill-rule="nonzero" fill-opacity="1" /><path clip-path="url(#clip300)" d="M3123.07 1985.51 Q3124.67 1982.64 3126.89 1981.27 Q3129.11 1979.9 3132.12 1979.9 Q3136.17 1979.9 3138.37 1982.75 Q3140.57 1985.58 3140.57 1990.81 L3140.57 2006.46 L3136.29 2006.46 L3136.29 1990.95 Q3136.29 1987.22 3134.97 1985.41 Q3133.65 1983.61 3130.94 1983.61 Q3127.63 1983.61 3125.71 1985.81 Q3123.79 1988.01 3123.79 1991.8 L3123.79 2006.46 L3119.51 2006.46 L3119.51 1990.95 Q3119.51 1987.2 3118.19 1985.41 Q3116.87 1983.61 3114.11 1983.61 Q3110.85 1983.61 3108.93 1985.83 Q3107.01 1988.03 3107.01 1991.8 L3107.01 2006.46 L3102.72 2006.46 L3102.72 1980.53 L3107.01 1980.53 L3107.01 1984.56 Q3108.46 1982.17 3110.5 1981.04 Q3112.54 1979.9 3115.34 1979.9 Q3118.16 1979.9 3120.13 1981.34 Q3122.12 1982.78 3123.07 1985.51 Z" fill="#000000" fill-rule="nonzero" fill-opacity="1" /><path clip-path="url(#clip300)" d="M3153.19 2002.57 L3153.19 2016.32 L3148.9 2016.32 L3148.9 1980.53 L3153.19 1980.53 L3153.19 1984.46 Q3154.53 1982.15 3156.57 1981.04 Q3158.63 1979.9 3161.47 1979.9 Q3166.19 1979.9 3169.13 1983.65 Q3172.1 1987.4 3172.1 1993.52 Q3172.1 1999.63 3169.13 2003.38 Q3166.19 2007.13 3161.47 2007.13 Q3158.63 2007.13 3156.57 2006.02 Q3154.53 2004.88 3153.19 2002.57 M3167.68 1993.52 Q3167.68 1988.82 3165.73 1986.15 Q3163.81 1983.47 3160.43 1983.47 Q3157.05 1983.47 3155.11 1986.15 Q3153.19 1988.82 3153.19 1993.52 Q3153.19 1998.21 3155.11 2000.9 Q3157.05 2003.56 3160.43 2003.56 Q3163.81 2003.56 3165.73 2000.9 Q3167.68 1998.21 3167.68 1993.52 Z" fill="#000000" fill-rule="nonzero" fill-opacity="1" /><path clip-path="url(#clip300)" d="M3180.25 2000.58 L3185.13 2000.58 L3185.13 2004.56 L3181.33 2011.96 L3178.35 2011.96 L3180.25 2004.56 L3180.25 2000.58 Z" fill="#000000" fill-rule="nonzero" fill-opacity="1" /><path clip-path="url(#clip300)" d="M3209.3 1980.53 L3213.56 1980.53 L3213.56 2006.46 L3209.3 2006.46 L3209.3 1980.53 M3209.3 1970.44 L3213.56 1970.44 L3213.56 1975.83 L3209.3 1975.83 L3209.3 1970.44 Z" fill="#000000" fill-rule="nonzero" fill-opacity="1" /><path clip-path="url(#clip300)" d="M3226.59 2002.57 L3226.59 2016.32 L3222.31 2016.32 L3222.31 1980.53 L3226.59 1980.53 L3226.59 1984.46 Q3227.93 1982.15 3229.97 1981.04 Q3232.03 1979.9 3234.88 1979.9 Q3239.6 1979.9 3242.54 1983.65 Q3245.5 1987.4 3245.5 1993.52 Q3245.5 1999.63 3242.54 2003.38 Q3239.6 2007.13 3234.88 2007.13 Q3232.03 2007.13 3229.97 2006.02 Q3227.93 2004.88 3226.59 2002.57 M3241.08 1993.52 Q3241.08 1988.82 3239.13 1986.15 Q3237.21 1983.47 3233.83 1983.47 Q3230.45 1983.47 3228.51 1986.15 Q3226.59 1988.82 3226.59 1993.52 Q3226.59 1998.21 3228.51 2000.9 Q3230.45 2003.56 3233.83 2003.56 Q3237.21 2003.56 3239.13 2000.9 Q3241.08 1998.21 3241.08 1993.52 Z" fill="#000000" fill-rule="nonzero" fill-opacity="1" /><path clip-path="url(#clip300)" d="M3262.61 1983.52 Q3259.18 1983.52 3257.19 1986.2 Q3255.2 1988.86 3255.2 1993.52 Q3255.2 1998.17 3257.17 2000.85 Q3259.16 2003.52 3262.61 2003.52 Q3266.01 2003.52 3268 2000.83 Q3269.99 1998.15 3269.99 1993.52 Q3269.99 1988.91 3268 1986.22 Q3266.01 1983.52 3262.61 1983.52 M3262.61 1979.9 Q3268.16 1979.9 3271.33 1983.52 Q3274.5 1987.13 3274.5 1993.52 Q3274.5 1999.88 3271.33 2003.52 Q3268.16 2007.13 3262.61 2007.13 Q3257.03 2007.13 3253.86 2003.52 Q3250.71 1999.88 3250.71 1993.52 Q3250.71 1987.13 3253.86 1983.52 Q3257.03 1979.9 3262.61 1979.9 Z" fill="#000000" fill-rule="nonzero" fill-opacity="1" /><path clip-path="url(#clip300)" d="M3285.69 2002.57 L3285.69 2016.32 L3281.4 2016.32 L3281.4 1980.53 L3285.69 1980.53 L3285.69 1984.46 Q3287.03 1982.15 3289.06 1981.04 Q3291.12 1979.9 3293.97 1979.9 Q3298.69 1979.9 3301.63 1983.65 Q3304.6 1987.4 3304.6 1993.52 Q3304.6 1999.63 3301.63 2003.38 Q3298.69 2007.13 3293.97 2007.13 Q3291.12 2007.13 3289.06 2006.02 Q3287.03 2004.88 3285.69 2002.57 M3300.18 1993.52 Q3300.18 1988.82 3298.23 1986.15 Q3296.31 1983.47 3292.93 1983.47 Q3289.55 1983.47 3287.61 1986.15 Q3285.69 1988.82 3285.69 1993.52 Q3285.69 1998.21 3287.61 2000.9 Q3289.55 2003.56 3292.93 2003.56 Q3296.31 2003.56 3298.23 2000.9 Q3300.18 1998.21 3300.18 1993.52 Z" fill="#000000" fill-rule="nonzero" fill-opacity="1" /><path clip-path="url(#clip300)" d="M3315.87 1973.17 L3315.87 1980.53 L3324.64 1980.53 L3324.64 1983.84 L3315.87 1983.84 L3315.87 1997.91 Q3315.87 2001.09 3316.73 2001.99 Q3317.61 2002.89 3320.27 2002.89 L3324.64 2002.89 L3324.64 2006.46 L3320.27 2006.46 Q3315.34 2006.46 3313.46 2004.63 Q3311.59 2002.78 3311.59 1997.91 L3311.59 1983.84 L3308.46 1983.84 L3308.46 1980.53 L3311.59 1980.53 L3311.59 1973.17 L3315.87 1973.17 Z" fill="#000000" fill-rule="nonzero" fill-opacity="1" /><path clip-path="url(#clip300)" d="M3329.57 1970.48 L3333.28 1970.48 Q3336.75 1975.95 3338.46 1981.18 Q3340.2 1986.41 3340.2 1991.57 Q3340.2 1996.76 3338.46 2002.01 Q3336.75 2007.27 3333.28 2012.71 L3329.57 2012.71 Q3332.65 2007.4 3334.16 2002.17 Q3335.68 1996.92 3335.68 1991.57 Q3335.68 1986.22 3334.16 1981.02 Q3332.65 1975.81 3329.57 1970.48 Z" fill="#000000" fill-rule="nonzero" fill-opacity="1" /><polyline clip-path="url(#clip300)" style="stroke:#a0522d; stroke-linecap:round; stroke-linejoin:round; stroke-width:6; stroke-opacity:1; fill:none" points="2792.44,2041.02 3005.3,2041.02 "/>
<path clip-path="url(#clip300)" d="M2898.87 2015.42 L2892.85 2032.72 L2874.52 2033.11 L2889.14 2044.19 L2883.82 2061.73 L2898.87 2051.26 L2913.92 2061.73 L2908.6 2044.19 L2923.21 2033.11 L2904.89 2032.72 L2898.87 2015.42 Z" fill="#a0522d" fill-rule="evenodd" fill-opacity="1" stroke="none"/>
<path clip-path="url(#clip300)" d="M3051.4 2022.32 Q3048.3 2027.65 3046.8 2032.86 Q3045.29 2038.06 3045.29 2043.41 Q3045.29 2048.76 3046.8 2054.01 Q3048.33 2059.24 3051.4 2064.55 L3047.7 2064.55 Q3044.23 2059.11 3042.49 2053.85 Q3040.78 2048.6 3040.78 2043.41 Q3040.78 2038.25 3042.49 2033.02 Q3044.2 2027.79 3047.7 2022.32 L3051.4 2022.32 Z" fill="#000000" fill-rule="nonzero" fill-opacity="1" /><path clip-path="url(#clip300)" d="M3059.67 2032.37 L3063.93 2032.37 L3063.93 2058.76 Q3063.93 2063.71 3062.03 2065.93 Q3060.15 2068.16 3055.96 2068.16 L3054.34 2068.16 L3054.34 2064.55 L3055.48 2064.55 Q3057.91 2064.55 3058.79 2063.41 Q3059.67 2062.3 3059.67 2058.76 L3059.67 2032.37 M3059.67 2022.28 L3063.93 2022.28 L3063.93 2027.67 L3059.67 2027.67 L3059.67 2022.28 Z" fill="#000000" fill-rule="nonzero" fill-opacity="1" /><path clip-path="url(#clip300)" d="M3072.4 2048.06 L3072.4 2032.37 L3076.66 2032.37 L3076.66 2047.9 Q3076.66 2051.58 3078.09 2053.43 Q3079.53 2055.26 3082.4 2055.26 Q3085.85 2055.26 3087.84 2053.06 Q3089.85 2050.87 3089.85 2047.07 L3089.85 2032.37 L3094.11 2032.37 L3094.11 2058.3 L3089.85 2058.3 L3089.85 2054.31 Q3088.3 2056.68 3086.24 2057.83 Q3084.2 2058.97 3081.5 2058.97 Q3077.03 2058.97 3074.71 2056.19 Q3072.4 2053.41 3072.4 2048.06 M3083.12 2031.74 L3083.12 2031.74 Z" fill="#000000" fill-rule="nonzero" fill-opacity="1" /><path clip-path="url(#clip300)" d="M3123.07 2037.35 Q3124.67 2034.48 3126.89 2033.11 Q3129.11 2031.74 3132.12 2031.74 Q3136.17 2031.74 3138.37 2034.59 Q3140.57 2037.42 3140.57 2042.65 L3140.57 2058.3 L3136.29 2058.3 L3136.29 2042.79 Q3136.29 2039.06 3134.97 2037.25 Q3133.65 2035.45 3130.94 2035.45 Q3127.63 2035.45 3125.71 2037.65 Q3123.79 2039.85 3123.79 2043.64 L3123.79 2058.3 L3119.51 2058.3 L3119.51 2042.79 Q3119.51 2039.04 3118.19 2037.25 Q3116.87 2035.45 3114.11 2035.45 Q3110.85 2035.45 3108.93 2037.67 Q3107.01 2039.87 3107.01 2043.64 L3107.01 2058.3 L3102.72 2058.3 L3102.72 2032.37 L3107.01 2032.37 L3107.01 2036.4 Q3108.46 2034.01 3110.5 2032.88 Q3112.54 2031.74 3115.34 2031.74 Q3118.16 2031.74 3120.13 2033.18 Q3122.12 2034.62 3123.07 2037.35 Z" fill="#000000" fill-rule="nonzero" fill-opacity="1" /><path clip-path="url(#clip300)" d="M3153.19 2054.41 L3153.19 2068.16 L3148.9 2068.16 L3148.9 2032.37 L3153.19 2032.37 L3153.19 2036.3 Q3154.53 2033.99 3156.57 2032.88 Q3158.63 2031.74 3161.47 2031.74 Q3166.19 2031.74 3169.13 2035.49 Q3172.1 2039.24 3172.1 2045.36 Q3172.1 2051.47 3169.13 2055.22 Q3166.19 2058.97 3161.47 2058.97 Q3158.63 2058.97 3156.57 2057.86 Q3154.53 2056.72 3153.19 2054.41 M3167.68 2045.36 Q3167.68 2040.66 3165.73 2037.99 Q3163.81 2035.31 3160.43 2035.31 Q3157.05 2035.31 3155.11 2037.99 Q3153.19 2040.66 3153.19 2045.36 Q3153.19 2050.05 3155.11 2052.74 Q3157.05 2055.4 3160.43 2055.4 Q3163.81 2055.4 3165.73 2052.74 Q3167.68 2050.05 3167.68 2045.36 Z" fill="#000000" fill-rule="nonzero" fill-opacity="1" /><path clip-path="url(#clip300)" d="M3180.25 2052.42 L3185.13 2052.42 L3185.13 2056.4 L3181.33 2063.8 L3178.35 2063.8 L3180.25 2056.4 L3180.25 2052.42 Z" fill="#000000" fill-rule="nonzero" fill-opacity="1" /><path clip-path="url(#clip300)" d="M3229.48 2037.35 Q3231.08 2034.48 3233.3 2033.11 Q3235.52 2031.74 3238.53 2031.74 Q3242.58 2031.74 3244.78 2034.59 Q3246.98 2037.42 3246.98 2042.65 L3246.98 2058.3 L3242.7 2058.3 L3242.7 2042.79 Q3242.7 2039.06 3241.38 2037.25 Q3240.06 2035.45 3237.35 2035.45 Q3234.04 2035.45 3232.12 2037.65 Q3230.2 2039.85 3230.2 2043.64 L3230.2 2058.3 L3225.92 2058.3 L3225.92 2042.79 Q3225.92 2039.04 3224.6 2037.25 Q3223.28 2035.45 3220.52 2035.45 Q3217.26 2035.45 3215.34 2037.67 Q3213.42 2039.87 3213.42 2043.64 L3213.42 2058.3 L3209.13 2058.3 L3209.13 2032.37 L3213.42 2032.37 L3213.42 2036.4 Q3214.88 2034.01 3216.91 2032.88 Q3218.95 2031.74 3221.75 2031.74 Q3224.57 2031.74 3226.54 2033.18 Q3228.53 2034.62 3229.48 2037.35 Z" fill="#000000" fill-rule="nonzero" fill-opacity="1" /><path clip-path="url(#clip300)" d="M3267.26 2045.26 Q3262.1 2045.26 3260.11 2046.44 Q3258.12 2047.62 3258.12 2050.47 Q3258.12 2052.74 3259.6 2054.08 Q3261.1 2055.4 3263.67 2055.4 Q3267.21 2055.4 3269.34 2052.9 Q3271.5 2050.38 3271.5 2046.21 L3271.5 2045.26 L3267.26 2045.26 M3275.75 2043.5 L3275.75 2058.3 L3271.5 2058.3 L3271.5 2054.36 Q3270.04 2056.72 3267.86 2057.86 Q3265.69 2058.97 3262.54 2058.97 Q3258.56 2058.97 3256.19 2056.74 Q3253.86 2054.5 3253.86 2050.75 Q3253.86 2046.37 3256.77 2044.15 Q3259.71 2041.93 3265.52 2041.93 L3271.5 2041.93 L3271.5 2041.51 Q3271.5 2038.57 3269.55 2036.98 Q3267.63 2035.36 3264.13 2035.36 Q3261.91 2035.36 3259.81 2035.89 Q3257.7 2036.42 3255.75 2037.49 L3255.75 2033.55 Q3258.09 2032.65 3260.29 2032.21 Q3262.49 2031.74 3264.57 2031.74 Q3270.2 2031.74 3272.98 2034.66 Q3275.75 2037.58 3275.75 2043.5 Z" fill="#000000" fill-rule="nonzero" fill-opacity="1" /><path clip-path="url(#clip300)" d="M3301.59 2036.3 L3301.59 2022.28 L3305.85 2022.28 L3305.85 2058.3 L3301.59 2058.3 L3301.59 2054.41 Q3300.25 2056.72 3298.18 2057.86 Q3296.15 2058.97 3293.28 2058.97 Q3288.58 2058.97 3285.62 2055.22 Q3282.68 2051.47 3282.68 2045.36 Q3282.68 2039.24 3285.62 2035.49 Q3288.58 2031.74 3293.28 2031.74 Q3296.15 2031.74 3298.18 2032.88 Q3300.25 2033.99 3301.59 2036.3 M3287.07 2045.36 Q3287.07 2050.05 3289 2052.74 Q3290.94 2055.4 3294.32 2055.4 Q3297.7 2055.4 3299.64 2052.74 Q3301.59 2050.05 3301.59 2045.36 Q3301.59 2040.66 3299.64 2037.99 Q3297.7 2035.31 3294.32 2035.31 Q3290.94 2035.31 3289 2037.99 Q3287.07 2040.66 3287.07 2045.36 Z" fill="#000000" fill-rule="nonzero" fill-opacity="1" /><path clip-path="url(#clip300)" d="M3336.17 2042.65 L3336.17 2058.3 L3331.91 2058.3 L3331.91 2042.79 Q3331.91 2039.11 3330.48 2037.28 Q3329.04 2035.45 3326.17 2035.45 Q3322.72 2035.45 3320.73 2037.65 Q3318.74 2039.85 3318.74 2043.64 L3318.74 2058.3 L3314.46 2058.3 L3314.46 2032.37 L3318.74 2032.37 L3318.74 2036.4 Q3320.27 2034.06 3322.33 2032.9 Q3324.41 2031.74 3327.12 2031.74 Q3331.59 2031.74 3333.88 2034.52 Q3336.17 2037.28 3336.17 2042.65 Z" fill="#000000" fill-rule="nonzero" fill-opacity="1" /><path clip-path="url(#clip300)" d="M3344.67 2022.28 L3348.93 2022.28 L3348.93 2058.3 L3344.67 2058.3 L3344.67 2022.28 Z" fill="#000000" fill-rule="nonzero" fill-opacity="1" /><path clip-path="url(#clip300)" d="M3361.96 2054.41 L3361.96 2068.16 L3357.68 2068.16 L3357.68 2032.37 L3361.96 2032.37 L3361.96 2036.3 Q3363.3 2033.99 3365.34 2032.88 Q3367.4 2031.74 3370.24 2031.74 Q3374.97 2031.74 3377.91 2035.49 Q3380.87 2039.24 3380.87 2045.36 Q3380.87 2051.47 3377.91 2055.22 Q3374.97 2058.97 3370.24 2058.97 Q3367.4 2058.97 3365.34 2057.86 Q3363.3 2056.72 3361.96 2054.41 M3376.45 2045.36 Q3376.45 2040.66 3374.5 2037.99 Q3372.58 2035.31 3369.2 2035.31 Q3365.82 2035.31 3363.88 2037.99 Q3361.96 2040.66 3361.96 2045.36 Q3361.96 2050.05 3363.88 2052.74 Q3365.82 2055.4 3369.2 2055.4 Q3372.58 2055.4 3374.5 2052.74 Q3376.45 2050.05 3376.45 2045.36 Z" fill="#000000" fill-rule="nonzero" fill-opacity="1" /><path clip-path="url(#clip300)" d="M3387.26 2022.32 L3390.96 2022.32 Q3394.43 2027.79 3396.15 2033.02 Q3397.88 2038.25 3397.88 2043.41 Q3397.88 2048.6 3396.15 2053.85 Q3394.43 2059.11 3390.96 2064.55 L3387.26 2064.55 Q3390.34 2059.24 3391.84 2054.01 Q3393.37 2048.76 3393.37 2043.41 Q3393.37 2038.06 3391.84 2032.86 Q3390.34 2027.65 3387.26 2022.32 Z" fill="#000000" fill-rule="nonzero" fill-opacity="1" /></svg>
