<?xml version="1.0" encoding="utf-8"?>
<svg xmlns="http://www.w3.org/2000/svg" xmlns:xlink="http://www.w3.org/1999/xlink" width="900" height="600" viewBox="0 0 3600 2400">
<defs>
  <clipPath id="clip170">
    <rect x="0" y="0" width="3600" height="2400"/>
  </clipPath>
</defs>
<path clip-path="url(#clip170)" d="M0 2400 L3600 2400 L3600 0 L0 0  Z" fill="#ffffff" fill-rule="evenodd" fill-opacity="1"/>
<defs>
  <clipPath id="clip171">
    <rect x="303" y="246" width="3251" height="1911"/>
  </clipPath>
</defs>
<path clip-path="url(#clip170)" d="M292.309 2156.51 L3552.76 2156.51 L3552.76 246.944 L292.309 246.944  Z" fill="#ffffff" fill-rule="evenodd" fill-opacity="1"/>
<defs>
  <clipPath id="clip172">
    <rect x="292" y="246" width="3261" height="1911"/>
  </clipPath>
</defs>
<polyline clip-path="url(#clip172)" style="stroke:#000000; stroke-linecap:round; stroke-linejoin:round; stroke-width:2; stroke-opacity:0.1; fill:none" points="564.932,2156.51 564.932,246.944 "/>
<polyline clip-path="url(#clip172)" style="stroke:#000000; stroke-linecap:round; stroke-linejoin:round; stroke-width:2; stroke-opacity:0.1; fill:none" points="1065.89,2156.51 1065.89,246.944 "/>
<polyline clip-path="url(#clip172)" style="stroke:#000000; stroke-linecap:round; stroke-linejoin:round; stroke-width:2; stroke-opacity:0.1; fill:none" points="1566.85,2156.51 1566.85,246.944 "/>
<polyline clip-path="url(#clip172)" style="stroke:#000000; stroke-linecap:round; stroke-linejoin:round; stroke-width:2; stroke-opacity:0.1; fill:none" points="2067.81,2156.51 2067.81,246.944 "/>
<polyline clip-path="url(#clip172)" style="stroke:#000000; stroke-linecap:round; stroke-linejoin:round; stroke-width:2; stroke-opacity:0.1; fill:none" points="2568.77,2156.51 2568.77,246.944 "/>
<polyline clip-path="url(#clip172)" style="stroke:#000000; stroke-linecap:round; stroke-linejoin:round; stroke-width:2; stroke-opacity:0.1; fill:none" points="3069.73,2156.51 3069.73,246.944 "/>
<polyline clip-path="url(#clip172)" style="stroke:#000000; stroke-linecap:round; stroke-linejoin:round; stroke-width:2; stroke-opacity:0.1; fill:none" points="292.309,2078.64 3552.76,2078.64 "/>
<polyline clip-path="url(#clip172)" style="stroke:#000000; stroke-linecap:round; stroke-linejoin:round; stroke-width:2; stroke-opacity:0.1; fill:none" points="292.309,1209.91 3552.76,1209.91 "/>
<polyline clip-path="url(#clip172)" style="stroke:#000000; stroke-linecap:round; stroke-linejoin:round; stroke-width:2; stroke-opacity:0.1; fill:none" points="292.309,341.175 3552.76,341.175 "/>
<polyline clip-path="url(#clip170)" style="stroke:#000000; stroke-linecap:round; stroke-linejoin:round; stroke-width:4; stroke-opacity:1; fill:none" points="292.309,2156.51 3552.76,2156.51 "/>
<polyline clip-path="url(#clip170)" style="stroke:#000000; stroke-linecap:round; stroke-linejoin:round; stroke-width:4; stroke-opacity:1; fill:none" points="564.932,2156.51 564.932,2137.61 "/>
<polyline clip-path="url(#clip170)" style="stroke:#000000; stroke-linecap:round; stroke-linejoin:round; stroke-width:4; stroke-opacity:1; fill:none" points="1065.89,2156.51 1065.89,2137.61 "/>
<polyline clip-path="url(#clip170)" style="stroke:#000000; stroke-linecap:round; stroke-linejoin:round; stroke-width:4; stroke-opacity:1; fill:none" points="1566.85,2156.51 1566.85,2137.61 "/>
<polyline clip-path="url(#clip170)" style="stroke:#000000; stroke-linecap:round; stroke-linejoin:round; stroke-width:4; stroke-opacity:1; fill:none" points="2067.81,2156.51 2067.81,2137.61 "/>
<polyline clip-path="url(#clip170)" style="stroke:#000000; stroke-linecap:round; stroke-linejoin:round; stroke-width:4; stroke-opacity:1; fill:none" points="2568.77,2156.51 2568.77,2137.61 "/>
<polyline clip-path="url(#clip170)" style="stroke:#000000; stroke-linecap:round; stroke-linejoin:round; stroke-width:4; stroke-opacity:1; fill:none" points="3069.73,2156.51 3069.73,2137.61 "/>
<path clip-path="url(#clip170)" d="M538.693 2209.87 Q542.05 2210.59 543.925 2212.86 Q545.823 2215.13 545.823 2218.46 Q545.823 2223.58 542.304 2226.38 Q538.786 2229.18 532.304 2229.18 Q530.128 2229.18 527.814 2228.74 Q525.522 2228.32 523.068 2227.47 L523.068 2222.95 Q525.013 2224.09 527.328 2224.67 Q529.642 2225.24 532.166 2225.24 Q536.564 2225.24 538.855 2223.51 Q541.17 2221.77 541.17 2218.46 Q541.17 2215.41 539.017 2213.69 Q536.888 2211.96 533.068 2211.96 L529.041 2211.96 L529.041 2208.11 L533.253 2208.11 Q536.703 2208.11 538.531 2206.75 Q540.36 2205.36 540.36 2202.77 Q540.36 2200.11 538.462 2198.69 Q536.587 2197.26 533.068 2197.26 Q531.147 2197.26 528.948 2197.67 Q526.749 2198.09 524.11 2198.97 L524.11 2194.8 Q526.772 2194.06 529.087 2193.69 Q531.425 2193.32 533.485 2193.32 Q538.809 2193.32 541.911 2195.75 Q545.013 2198.16 545.013 2202.28 Q545.013 2205.15 543.369 2207.14 Q541.726 2209.11 538.693 2209.87 Z" fill="#000000" fill-rule="nonzero" fill-opacity="1" /><path clip-path="url(#clip170)" d="M564.688 2197.03 Q561.077 2197.03 559.249 2200.59 Q557.443 2204.13 557.443 2211.26 Q557.443 2218.37 559.249 2221.93 Q561.077 2225.48 564.688 2225.48 Q568.323 2225.48 570.128 2221.93 Q571.957 2218.37 571.957 2211.26 Q571.957 2204.13 570.128 2200.59 Q568.323 2197.03 564.688 2197.03 M564.688 2193.32 Q570.499 2193.32 573.554 2197.93 Q576.633 2202.51 576.633 2211.26 Q576.633 2219.99 573.554 2224.6 Q570.499 2229.18 564.688 2229.18 Q558.878 2229.18 555.8 2224.6 Q552.744 2219.99 552.744 2211.26 Q552.744 2202.51 555.8 2197.93 Q558.878 2193.32 564.688 2193.32 Z" fill="#000000" fill-rule="nonzero" fill-opacity="1" /><path clip-path="url(#clip170)" d="M594.85 2197.03 Q591.239 2197.03 589.411 2200.59 Q587.605 2204.13 587.605 2211.26 Q587.605 2218.37 589.411 2221.93 Q591.239 2225.48 594.85 2225.48 Q598.485 2225.48 600.29 2221.93 Q602.119 2218.37 602.119 2211.26 Q602.119 2204.13 600.29 2200.59 Q598.485 2197.03 594.85 2197.03 M594.85 2193.32 Q600.661 2193.32 603.716 2197.93 Q606.795 2202.51 606.795 2211.26 Q606.795 2219.99 603.716 2224.6 Q600.661 2229.18 594.85 2229.18 Q589.04 2229.18 585.962 2224.6 Q582.906 2219.99 582.906 2211.26 Q582.906 2202.51 585.962 2197.93 Q589.04 2193.32 594.85 2193.32 Z" fill="#000000" fill-rule="nonzero" fill-opacity="1" /><path clip-path="url(#clip170)" d="M1038.98 2198.02 L1027.18 2216.47 L1038.98 2216.47 L1038.98 2198.02 M1037.75 2193.95 L1043.63 2193.95 L1043.63 2216.47 L1048.57 2216.47 L1048.57 2220.36 L1043.63 2220.36 L1043.63 2228.51 L1038.98 2228.51 L1038.98 2220.36 L1023.38 2220.36 L1023.38 2215.85 L1037.75 2193.95 Z" fill="#000000" fill-rule="nonzero" fill-opacity="1" /><path clip-path="url(#clip170)" d="M1066.3 2197.03 Q1062.69 2197.03 1060.86 2200.59 Q1059.05 2204.13 1059.05 2211.26 Q1059.05 2218.37 1060.86 2221.93 Q1062.69 2225.48 1066.3 2225.48 Q1069.93 2225.48 1071.74 2221.93 Q1073.56 2218.37 1073.56 2211.26 Q1073.56 2204.13 1071.74 2200.59 Q1069.93 2197.03 1066.3 2197.03 M1066.3 2193.32 Q1072.11 2193.32 1075.16 2197.93 Q1078.24 2202.51 1078.24 2211.26 Q1078.24 2219.99 1075.16 2224.6 Q1072.11 2229.18 1066.3 2229.18 Q1060.49 2229.18 1057.41 2224.6 Q1054.35 2219.99 1054.35 2211.26 Q1054.35 2202.51 1057.41 2197.93 Q1060.49 2193.32 1066.3 2193.32 Z" fill="#000000" fill-rule="nonzero" fill-opacity="1" /><path clip-path="url(#clip170)" d="M1096.46 2197.03 Q1092.85 2197.03 1091.02 2200.59 Q1089.21 2204.13 1089.21 2211.26 Q1089.21 2218.37 1091.02 2221.93 Q1092.85 2225.48 1096.46 2225.48 Q1100.09 2225.48 1101.9 2221.93 Q1103.73 2218.37 1103.73 2211.26 Q1103.73 2204.13 1101.9 2200.59 Q1100.09 2197.03 1096.46 2197.03 M1096.46 2193.32 Q1102.27 2193.32 1105.32 2197.93 Q1108.4 2202.51 1108.4 2211.26 Q1108.4 2219.99 1105.32 2224.6 Q1102.27 2229.18 1096.46 2229.18 Q1090.65 2229.18 1087.57 2224.6 Q1084.51 2219.99 1084.51 2211.26 Q1084.51 2202.51 1087.57 2197.93 Q1090.65 2193.32 1096.46 2193.32 Z" fill="#000000" fill-rule="nonzero" fill-opacity="1" /><path clip-path="url(#clip170)" d="M1526.47 2193.95 L1544.83 2193.95 L1544.83 2197.88 L1530.75 2197.88 L1530.75 2206.36 Q1531.77 2206.01 1532.79 2205.85 Q1533.81 2205.66 1534.83 2205.66 Q1540.61 2205.66 1543.99 2208.83 Q1547.37 2212 1547.37 2217.42 Q1547.37 2223 1543.9 2226.1 Q1540.43 2229.18 1534.11 2229.18 Q1531.93 2229.18 1529.66 2228.81 Q1527.42 2228.44 1525.01 2227.7 L1525.01 2223 Q1527.09 2224.13 1529.32 2224.69 Q1531.54 2225.24 1534.02 2225.24 Q1538.02 2225.24 1540.36 2223.14 Q1542.7 2221.03 1542.7 2217.42 Q1542.7 2213.81 1540.36 2211.7 Q1538.02 2209.6 1534.02 2209.6 Q1532.14 2209.6 1530.27 2210.01 Q1528.41 2210.43 1526.47 2211.31 L1526.47 2193.95 Z" fill="#000000" fill-rule="nonzero" fill-opacity="1" /><path clip-path="url(#clip170)" d="M1566.58 2197.03 Q1562.97 2197.03 1561.15 2200.59 Q1559.34 2204.13 1559.34 2211.26 Q1559.34 2218.37 1561.15 2221.93 Q1562.97 2225.48 1566.58 2225.48 Q1570.22 2225.48 1572.02 2221.93 Q1573.85 2218.37 1573.85 2211.26 Q1573.85 2204.13 1572.02 2200.59 Q1570.22 2197.03 1566.58 2197.03 M1566.58 2193.32 Q1572.4 2193.32 1575.45 2197.93 Q1578.53 2202.51 1578.53 2211.26 Q1578.53 2219.99 1575.45 2224.6 Q1572.4 2229.18 1566.58 2229.18 Q1560.77 2229.18 1557.7 2224.6 Q1554.64 2219.99 1554.64 2211.26 Q1554.64 2202.51 1557.7 2197.93 Q1560.77 2193.32 1566.58 2193.32 Z" fill="#000000" fill-rule="nonzero" fill-opacity="1" /><path clip-path="url(#clip170)" d="M1596.75 2197.03 Q1593.14 2197.03 1591.31 2200.59 Q1589.5 2204.13 1589.5 2211.26 Q1589.5 2218.37 1591.31 2221.93 Q1593.14 2225.48 1596.75 2225.48 Q1600.38 2225.48 1602.19 2221.93 Q1604.02 2218.37 1604.02 2211.26 Q1604.02 2204.13 1602.19 2200.59 Q1600.38 2197.03 1596.75 2197.03 M1596.75 2193.32 Q1602.56 2193.32 1605.61 2197.93 Q1608.69 2202.51 1608.69 2211.26 Q1608.69 2219.99 1605.61 2224.6 Q1602.56 2229.18 1596.75 2229.18 Q1590.94 2229.18 1587.86 2224.6 Q1584.8 2219.99 1584.8 2211.26 Q1584.8 2202.51 1587.86 2197.93 Q1590.94 2193.32 1596.75 2193.32 Z" fill="#000000" fill-rule="nonzero" fill-opacity="1" /><path clip-path="url(#clip170)" d="M2038.14 2209.36 Q2034.99 2209.36 2033.14 2211.52 Q2031.31 2213.67 2031.31 2217.42 Q2031.31 2221.15 2033.14 2223.32 Q2034.99 2225.48 2038.14 2225.48 Q2041.28 2225.48 2043.11 2223.32 Q2044.96 2221.15 2044.96 2217.42 Q2044.96 2213.67 2043.11 2211.52 Q2041.28 2209.36 2038.14 2209.36 M2047.42 2194.71 L2047.42 2198.97 Q2045.66 2198.14 2043.85 2197.7 Q2042.07 2197.26 2040.31 2197.26 Q2035.68 2197.26 2033.23 2200.38 Q2030.8 2203.51 2030.45 2209.83 Q2031.82 2207.81 2033.88 2206.75 Q2035.94 2205.66 2038.41 2205.66 Q2043.62 2205.66 2046.63 2208.83 Q2049.66 2211.98 2049.66 2217.42 Q2049.66 2222.74 2046.51 2225.96 Q2043.37 2229.18 2038.14 2229.18 Q2032.14 2229.18 2028.97 2224.6 Q2025.8 2219.99 2025.8 2211.26 Q2025.8 2203.07 2029.69 2198.21 Q2033.57 2193.32 2040.13 2193.32 Q2041.89 2193.32 2043.67 2193.67 Q2045.47 2194.02 2047.42 2194.71 Z" fill="#000000" fill-rule="nonzero" fill-opacity="1" /><path clip-path="url(#clip170)" d="M2067.72 2197.03 Q2064.11 2197.03 2062.28 2200.59 Q2060.47 2204.13 2060.47 2211.26 Q2060.47 2218.37 2062.28 2221.93 Q2064.11 2225.48 2067.72 2225.48 Q2071.35 2225.48 2073.16 2221.93 Q2074.99 2218.37 2074.99 2211.26 Q2074.99 2204.13 2073.16 2200.59 Q2071.35 2197.03 2067.72 2197.03 M2067.72 2193.32 Q2073.53 2193.32 2076.58 2197.93 Q2079.66 2202.51 2079.66 2211.26 Q2079.66 2219.99 2076.58 2224.6 Q2073.53 2229.18 2067.72 2229.18 Q2061.91 2229.18 2058.83 2224.6 Q2055.77 2219.99 2055.77 2211.26 Q2055.77 2202.51 2058.83 2197.93 Q2061.91 2193.32 2067.72 2193.32 Z" fill="#000000" fill-rule="nonzero" fill-opacity="1" /><path clip-path="url(#clip170)" d="M2097.88 2197.03 Q2094.27 2197.03 2092.44 2200.59 Q2090.63 2204.13 2090.63 2211.26 Q2090.63 2218.37 2092.44 2221.93 Q2094.27 2225.48 2097.88 2225.48 Q2101.51 2225.48 2103.32 2221.93 Q2105.15 2218.37 2105.15 2211.26 Q2105.15 2204.13 2103.32 2200.59 Q2101.51 2197.03 2097.88 2197.03 M2097.88 2193.32 Q2103.69 2193.32 2106.75 2197.93 Q2109.82 2202.51 2109.82 2211.26 Q2109.82 2219.99 2106.75 2224.6 Q2103.69 2229.18 2097.88 2229.18 Q2092.07 2229.18 2088.99 2224.6 Q2085.94 2219.99 2085.94 2211.26 Q2085.94 2202.51 2088.99 2197.93 Q2092.07 2193.32 2097.88 2193.32 Z" fill="#000000" fill-rule="nonzero" fill-opacity="1" /><path clip-path="url(#clip170)" d="M2527.05 2193.95 L2549.27 2193.95 L2549.27 2195.94 L2536.72 2228.51 L2531.84 2228.51 L2543.64 2197.88 L2527.05 2197.88 L2527.05 2193.95 Z" fill="#000000" fill-rule="nonzero" fill-opacity="1" /><path clip-path="url(#clip170)" d="M2568.39 2197.03 Q2564.78 2197.03 2562.95 2200.59 Q2561.14 2204.13 2561.14 2211.26 Q2561.14 2218.37 2562.95 2221.93 Q2564.78 2225.48 2568.39 2225.48 Q2572.02 2225.48 2573.83 2221.93 Q2575.66 2218.37 2575.66 2211.26 Q2575.66 2204.13 2573.83 2200.59 Q2572.02 2197.03 2568.39 2197.03 M2568.39 2193.32 Q2574.2 2193.32 2577.25 2197.93 Q2580.33 2202.51 2580.33 2211.26 Q2580.33 2219.99 2577.25 2224.6 Q2574.2 2229.18 2568.39 2229.18 Q2562.58 2229.18 2559.5 2224.6 Q2556.44 2219.99 2556.44 2211.26 Q2556.44 2202.51 2559.5 2197.93 Q2562.58 2193.32 2568.39 2193.32 Z" fill="#000000" fill-rule="nonzero" fill-opacity="1" /><path clip-path="url(#clip170)" d="M2598.55 2197.03 Q2594.94 2197.03 2593.11 2200.59 Q2591.31 2204.13 2591.31 2211.26 Q2591.31 2218.37 2593.11 2221.93 Q2594.94 2225.48 2598.55 2225.48 Q2602.18 2225.48 2603.99 2221.93 Q2605.82 2218.37 2605.82 2211.26 Q2605.82 2204.13 2603.99 2200.59 Q2602.18 2197.03 2598.55 2197.03 M2598.55 2193.32 Q2604.36 2193.32 2607.42 2197.93 Q2610.5 2202.51 2610.5 2211.26 Q2610.5 2219.99 2607.42 2224.6 Q2604.36 2229.18 2598.55 2229.18 Q2592.74 2229.18 2589.66 2224.6 Q2586.61 2219.99 2586.61 2211.26 Q2586.61 2202.51 2589.66 2197.93 Q2592.74 2193.32 2598.55 2193.32 Z" fill="#000000" fill-rule="nonzero" fill-opacity="1" /><path clip-path="url(#clip170)" d="M3039.52 2212.1 Q3036.19 2212.1 3034.27 2213.88 Q3032.37 2215.66 3032.37 2218.79 Q3032.37 2221.91 3034.27 2223.69 Q3036.19 2225.48 3039.52 2225.48 Q3042.86 2225.48 3044.78 2223.69 Q3046.7 2221.89 3046.7 2218.79 Q3046.7 2215.66 3044.78 2213.88 Q3042.88 2212.1 3039.52 2212.1 M3034.85 2210.11 Q3031.84 2209.36 3030.15 2207.3 Q3028.48 2205.24 3028.48 2202.28 Q3028.48 2198.14 3031.42 2195.73 Q3034.38 2193.32 3039.52 2193.32 Q3044.68 2193.32 3047.62 2195.73 Q3050.56 2198.14 3050.56 2202.28 Q3050.56 2205.24 3048.87 2207.3 Q3047.21 2209.36 3044.22 2210.11 Q3047.6 2210.89 3049.48 2213.18 Q3051.37 2215.48 3051.37 2218.79 Q3051.37 2223.81 3048.3 2226.49 Q3045.24 2229.18 3039.52 2229.18 Q3033.8 2229.18 3030.73 2226.49 Q3027.67 2223.81 3027.67 2218.79 Q3027.67 2215.48 3029.57 2213.18 Q3031.47 2210.89 3034.85 2210.11 M3033.13 2202.72 Q3033.13 2205.41 3034.8 2206.91 Q3036.49 2208.42 3039.52 2208.42 Q3042.53 2208.42 3044.22 2206.91 Q3045.93 2205.41 3045.93 2202.72 Q3045.93 2200.04 3044.22 2198.53 Q3042.53 2197.03 3039.52 2197.03 Q3036.49 2197.03 3034.8 2198.53 Q3033.13 2200.04 3033.13 2202.72 Z" fill="#000000" fill-rule="nonzero" fill-opacity="1" /><path clip-path="url(#clip170)" d="M3069.68 2197.03 Q3066.07 2197.03 3064.24 2200.59 Q3062.44 2204.13 3062.44 2211.26 Q3062.44 2218.37 3064.24 2221.93 Q3066.07 2225.48 3069.68 2225.48 Q3073.32 2225.48 3075.12 2221.93 Q3076.95 2218.37 3076.95 2211.26 Q3076.95 2204.13 3075.12 2200.59 Q3073.32 2197.03 3069.68 2197.03 M3069.68 2193.32 Q3075.49 2193.32 3078.55 2197.93 Q3081.63 2202.51 3081.63 2211.26 Q3081.63 2219.99 3078.55 2224.6 Q3075.49 2229.18 3069.68 2229.18 Q3063.87 2229.18 3060.8 2224.6 Q3057.74 2219.99 3057.74 2211.26 Q3057.74 2202.51 3060.8 2197.93 Q3063.87 2193.32 3069.68 2193.32 Z" fill="#000000" fill-rule="nonzero" fill-opacity="1" /><path clip-path="url(#clip170)" d="M3099.85 2197.03 Q3096.23 2197.03 3094.41 2200.59 Q3092.6 2204.13 3092.6 2211.26 Q3092.6 2218.37 3094.41 2221.93 Q3096.23 2225.48 3099.85 2225.48 Q3103.48 2225.48 3105.29 2221.93 Q3107.11 2218.37 3107.11 2211.26 Q3107.11 2204.13 3105.29 2200.59 Q3103.48 2197.03 3099.85 2197.03 M3099.85 2193.32 Q3105.66 2193.32 3108.71 2197.93 Q3111.79 2202.51 3111.79 2211.26 Q3111.79 2219.99 3108.71 2224.6 Q3105.66 2229.18 3099.85 2229.18 Q3094.04 2229.18 3090.96 2224.6 Q3087.9 2219.99 3087.9 2211.26 Q3087.9 2202.51 3090.96 2197.93 Q3094.04 2193.32 3099.85 2193.32 Z" fill="#000000" fill-rule="nonzero" fill-opacity="1" /><path clip-path="url(#clip170)" d="M1785.77 2270.99 L1791.62 2270.99 L1791.62 2314.19 L1785.77 2314.19 L1785.77 2270.99 Z" fill="#000000" fill-rule="nonzero" fill-opacity="1" /><path clip-path="url(#clip170)" d="M1808.28 2272.58 L1808.28 2281.78 L1819.25 2281.78 L1819.25 2285.92 L1808.28 2285.92 L1808.28 2303.51 Q1808.28 2307.47 1809.35 2308.6 Q1810.45 2309.73 1813.78 2309.73 L1819.25 2309.73 L1819.25 2314.19 L1813.78 2314.19 Q1807.62 2314.19 1805.27 2311.9 Q1802.93 2309.59 1802.93 2303.51 L1802.93 2285.92 L1799.02 2285.92 L1799.02 2281.78 L1802.93 2281.78 L1802.93 2272.58 L1808.28 2272.58 Z" fill="#000000" fill-rule="nonzero" fill-opacity="1" /><path clip-path="url(#clip170)" d="M1853.97 2296.65 L1853.97 2299.26 L1829.49 2299.26 Q1829.84 2304.75 1832.79 2307.65 Q1835.77 2310.51 1841.07 2310.51 Q1844.13 2310.51 1847 2309.76 Q1849.89 2309.01 1852.73 2307.5 L1852.73 2312.54 Q1849.86 2313.75 1846.85 2314.39 Q1843.84 2315.03 1840.75 2315.03 Q1832.99 2315.03 1828.45 2310.51 Q1823.94 2306 1823.94 2298.3 Q1823.94 2290.35 1828.22 2285.69 Q1832.53 2281 1839.82 2281 Q1846.36 2281 1850.15 2285.22 Q1853.97 2289.42 1853.97 2296.65 M1848.65 2295.09 Q1848.59 2290.72 1846.19 2288.12 Q1843.81 2285.51 1839.88 2285.51 Q1835.42 2285.51 1832.73 2288.03 Q1830.07 2290.55 1829.67 2295.12 L1848.65 2295.09 Z" fill="#000000" fill-rule="nonzero" fill-opacity="1" /><path clip-path="url(#clip170)" d="M1881.49 2286.76 Q1880.59 2286.24 1879.52 2286 Q1878.48 2285.74 1877.21 2285.74 Q1872.69 2285.74 1870.26 2288.7 Q1867.86 2291.62 1867.86 2297.12 L1867.86 2314.19 L1862.51 2314.19 L1862.51 2281.78 L1867.86 2281.78 L1867.86 2286.82 Q1869.54 2283.86 1872.23 2282.45 Q1874.92 2281 1878.77 2281 Q1879.32 2281 1879.98 2281.09 Q1880.65 2281.14 1881.46 2281.29 L1881.49 2286.76 Z" fill="#000000" fill-rule="nonzero" fill-opacity="1" /><path clip-path="url(#clip170)" d="M1901.8 2297.9 Q1895.35 2297.9 1892.86 2299.37 Q1890.37 2300.85 1890.37 2304.41 Q1890.37 2307.24 1892.22 2308.92 Q1894.1 2310.57 1897.32 2310.57 Q1901.74 2310.57 1904.4 2307.45 Q1907.1 2304.29 1907.1 2299.08 L1907.1 2297.9 L1901.8 2297.9 M1912.42 2295.7 L1912.42 2314.19 L1907.1 2314.19 L1907.1 2309.27 Q1905.27 2312.22 1902.55 2313.64 Q1899.83 2315.03 1895.9 2315.03 Q1890.92 2315.03 1887.97 2312.25 Q1885.05 2309.44 1885.05 2304.75 Q1885.05 2299.29 1888.69 2296.51 Q1892.37 2293.73 1899.63 2293.73 L1907.1 2293.73 L1907.1 2293.21 Q1907.1 2289.54 1904.67 2287.54 Q1902.26 2285.51 1897.89 2285.51 Q1895.12 2285.51 1892.48 2286.18 Q1889.85 2286.84 1887.42 2288.18 L1887.42 2283.26 Q1890.34 2282.13 1893.09 2281.58 Q1895.84 2281 1898.44 2281 Q1905.48 2281 1908.95 2284.65 Q1912.42 2288.29 1912.42 2295.7 Z" fill="#000000" fill-rule="nonzero" fill-opacity="1" /><path clip-path="url(#clip170)" d="M1928.65 2272.58 L1928.65 2281.78 L1939.62 2281.78 L1939.62 2285.92 L1928.65 2285.92 L1928.65 2303.51 Q1928.65 2307.47 1929.72 2308.6 Q1930.82 2309.73 1934.15 2309.73 L1939.62 2309.73 L1939.62 2314.19 L1934.15 2314.19 Q1927.99 2314.19 1925.64 2311.9 Q1923.3 2309.59 1923.3 2303.51 L1923.3 2285.92 L1919.39 2285.92 L1919.39 2281.78 L1923.3 2281.78 L1923.3 2272.58 L1928.65 2272.58 Z" fill="#000000" fill-rule="nonzero" fill-opacity="1" /><path clip-path="url(#clip170)" d="M1946.62 2281.78 L1951.95 2281.78 L1951.95 2314.19 L1946.62 2314.19 L1946.62 2281.78 M1946.62 2269.16 L1951.95 2269.16 L1951.95 2275.91 L1946.62 2275.91 L1946.62 2269.16 Z" fill="#000000" fill-rule="nonzero" fill-opacity="1" /><path clip-path="url(#clip170)" d="M1975.64 2285.51 Q1971.36 2285.51 1968.87 2288.87 Q1966.38 2292.2 1966.38 2298.01 Q1966.38 2303.83 1968.84 2307.19 Q1971.33 2310.51 1975.64 2310.51 Q1979.9 2310.51 1982.38 2307.16 Q1984.87 2303.8 1984.87 2298.01 Q1984.87 2292.25 1982.38 2288.9 Q1979.9 2285.51 1975.64 2285.51 M1975.64 2281 Q1982.59 2281 1986.55 2285.51 Q1990.52 2290.03 1990.52 2298.01 Q1990.52 2305.97 1986.55 2310.51 Q1982.59 2315.03 1975.64 2315.03 Q1968.67 2315.03 1964.71 2310.51 Q1960.77 2305.97 1960.77 2298.01 Q1960.77 2290.03 1964.71 2285.51 Q1968.67 2281 1975.64 2281 Z" fill="#000000" fill-rule="nonzero" fill-opacity="1" /><path clip-path="url(#clip170)" d="M2026.28 2294.63 L2026.28 2314.19 L2020.96 2314.19 L2020.96 2294.8 Q2020.96 2290.2 2019.16 2287.91 Q2017.37 2285.63 2013.78 2285.63 Q2009.47 2285.63 2006.98 2288.38 Q2004.49 2291.13 2004.49 2295.87 L2004.49 2314.19 L1999.14 2314.19 L1999.14 2281.78 L2004.49 2281.78 L2004.49 2286.82 Q2006.4 2283.89 2008.98 2282.45 Q2011.58 2281 2014.97 2281 Q2020.55 2281 2023.41 2284.47 Q2026.28 2287.91 2026.28 2294.63 Z" fill="#000000" fill-rule="nonzero" fill-opacity="1" /><path clip-path="url(#clip170)" d="M2057.56 2282.74 L2057.56 2287.77 Q2055.3 2286.61 2052.87 2286.03 Q2050.44 2285.46 2047.84 2285.46 Q2043.87 2285.46 2041.88 2286.67 Q2039.91 2287.89 2039.91 2290.32 Q2039.91 2292.17 2041.33 2293.24 Q2042.74 2294.28 2047.03 2295.24 L2048.85 2295.64 Q2054.52 2296.86 2056.89 2299.08 Q2059.29 2301.28 2059.29 2305.25 Q2059.29 2309.76 2055.71 2312.39 Q2052.15 2315.03 2045.9 2315.03 Q2043.29 2315.03 2040.46 2314.51 Q2037.65 2314.01 2034.53 2313 L2034.53 2307.5 Q2037.48 2309.04 2040.34 2309.82 Q2043.21 2310.57 2046.01 2310.57 Q2049.77 2310.57 2051.8 2309.3 Q2053.83 2308 2053.83 2305.65 Q2053.83 2303.48 2052.35 2302.32 Q2050.9 2301.17 2045.95 2300.1 L2044.1 2299.66 Q2039.16 2298.62 2036.96 2296.48 Q2034.76 2294.31 2034.76 2290.55 Q2034.76 2285.98 2038 2283.49 Q2041.24 2281 2047.2 2281 Q2050.15 2281 2052.75 2281.43 Q2055.36 2281.87 2057.56 2282.74 Z" fill="#000000" fill-rule="nonzero" fill-opacity="1" /><polyline clip-path="url(#clip170)" style="stroke:#000000; stroke-linecap:round; stroke-linejoin:round; stroke-width:4; stroke-opacity:1; fill:none" points="292.309,2156.51 292.309,246.944 "/>
<polyline clip-path="url(#clip170)" style="stroke:#000000; stroke-linecap:round; stroke-linejoin:round; stroke-width:4; stroke-opacity:1; fill:none" points="292.309,2078.64 311.207,2078.64 "/>
<polyline clip-path="url(#clip170)" style="stroke:#000000; stroke-linecap:round; stroke-linejoin:round; stroke-width:4; stroke-opacity:1; fill:none" points="292.309,1209.91 311.207,1209.91 "/>
<polyline clip-path="url(#clip170)" style="stroke:#000000; stroke-linecap:round; stroke-linejoin:round; stroke-width:4; stroke-opacity:1; fill:none" points="292.309,341.175 311.207,341.175 "/>
<path clip-path="url(#clip170)" d="M167.604 2098.43 L175.242 2098.43 L175.242 2072.06 L166.932 2073.73 L166.932 2069.47 L175.196 2067.8 L179.872 2067.8 L179.872 2098.43 L187.511 2098.43 L187.511 2102.36 L167.604 2102.36 L167.604 2098.43 Z" fill="#000000" fill-rule="nonzero" fill-opacity="1" /><path clip-path="url(#clip170)" d="M206.955 2070.88 Q203.344 2070.88 201.515 2074.45 Q199.71 2077.99 199.71 2085.12 Q199.71 2092.22 201.515 2095.79 Q203.344 2099.33 206.955 2099.33 Q210.589 2099.33 212.395 2095.79 Q214.224 2092.22 214.224 2085.12 Q214.224 2077.99 212.395 2074.45 Q210.589 2070.88 206.955 2070.88 M206.955 2067.18 Q212.765 2067.18 215.821 2071.78 Q218.9 2076.37 218.9 2085.12 Q218.9 2093.84 215.821 2098.45 Q212.765 2103.03 206.955 2103.03 Q201.145 2103.03 198.066 2098.45 Q195.011 2093.84 195.011 2085.12 Q195.011 2076.37 198.066 2071.78 Q201.145 2067.18 206.955 2067.18 Z" fill="#000000" fill-rule="nonzero" fill-opacity="1" /><path clip-path="url(#clip170)" d="M228.604 2049.37 Q225.67 2049.37 224.185 2052.27 Q222.718 2055.15 222.718 2060.94 Q222.718 2066.71 224.185 2069.61 Q225.67 2072.49 228.604 2072.49 Q231.557 2072.49 233.024 2069.61 Q234.51 2066.71 234.51 2060.94 Q234.51 2055.15 233.024 2052.27 Q231.557 2049.37 228.604 2049.37 M228.604 2046.36 Q233.325 2046.36 235.808 2050.11 Q238.309 2053.83 238.309 2060.94 Q238.309 2068.03 235.808 2071.77 Q233.325 2075.5 228.604 2075.5 Q223.884 2075.5 221.382 2071.77 Q218.9 2068.03 218.9 2060.94 Q218.9 2053.83 221.382 2050.11 Q223.884 2046.36 228.604 2046.36 Z" fill="#000000" fill-rule="nonzero" fill-opacity="1" /><path clip-path="url(#clip170)" d="M170.293 1229.7 L177.932 1229.7 L177.932 1203.33 L169.622 1205 L169.622 1200.74 L177.886 1199.07 L182.562 1199.07 L182.562 1229.7 L190.2 1229.7 L190.2 1233.63 L170.293 1233.63 L170.293 1229.7 Z" fill="#000000" fill-rule="nonzero" fill-opacity="1" /><path clip-path="url(#clip170)" d="M209.645 1202.15 Q206.034 1202.15 204.205 1205.72 Q202.399 1209.26 202.399 1216.39 Q202.399 1223.49 204.205 1227.06 Q206.034 1230.6 209.645 1230.6 Q213.279 1230.6 215.085 1227.06 Q216.913 1223.49 216.913 1216.39 Q216.913 1209.26 215.085 1205.72 Q213.279 1202.15 209.645 1202.15 M209.645 1198.45 Q215.455 1198.45 218.51 1203.05 Q221.589 1207.64 221.589 1216.39 Q221.589 1225.11 218.51 1229.72 Q215.455 1234.3 209.645 1234.3 Q203.835 1234.3 200.756 1229.72 Q197.7 1225.11 197.7 1216.39 Q197.7 1207.64 200.756 1203.05 Q203.835 1198.45 209.645 1198.45 Z" fill="#000000" fill-rule="nonzero" fill-opacity="1" /><path clip-path="url(#clip170)" d="M222.135 1203.02 L228.341 1203.02 L228.341 1181.6 L221.589 1182.96 L221.589 1179.5 L228.303 1178.14 L232.103 1178.14 L232.103 1203.02 L238.309 1203.02 L238.309 1206.22 L222.135 1206.22 L222.135 1203.02 Z" fill="#000000" fill-rule="nonzero" fill-opacity="1" /><path clip-path="url(#clip170)" d="M169.183 360.967 L176.822 360.967 L176.822 334.602 L168.512 336.268 L168.512 332.009 L176.776 330.343 L181.452 330.343 L181.452 360.967 L189.091 360.967 L189.091 364.903 L169.183 364.903 L169.183 360.967 Z" fill="#000000" fill-rule="nonzero" fill-opacity="1" /><path clip-path="url(#clip170)" d="M208.535 333.421 Q204.924 333.421 203.095 336.986 Q201.29 340.528 201.29 347.657 Q201.29 354.764 203.095 358.329 Q204.924 361.87 208.535 361.87 Q212.169 361.87 213.975 358.329 Q215.804 354.764 215.804 347.657 Q215.804 340.528 213.975 336.986 Q212.169 333.421 208.535 333.421 M208.535 329.718 Q214.345 329.718 217.401 334.324 Q220.479 338.907 220.479 347.657 Q220.479 356.384 217.401 360.991 Q214.345 365.574 208.535 365.574 Q202.725 365.574 199.646 360.991 Q196.591 356.384 196.591 347.657 Q196.591 338.907 199.646 334.324 Q202.725 329.718 208.535 329.718 Z" fill="#000000" fill-rule="nonzero" fill-opacity="1" /><path clip-path="url(#clip170)" d="M225.05 334.295 L238.309 334.295 L238.309 337.492 L220.479 337.492 L220.479 334.295 Q222.642 332.057 226.366 328.295 Q230.109 324.515 231.068 323.424 Q232.893 321.374 233.607 319.963 Q234.341 318.534 234.341 317.161 Q234.341 314.923 232.761 313.512 Q231.2 312.102 228.68 312.102 Q226.893 312.102 224.899 312.722 Q222.924 313.343 220.668 314.603 L220.668 310.766 Q222.962 309.845 224.956 309.375 Q226.949 308.904 228.604 308.904 Q232.968 308.904 235.563 311.086 Q238.159 313.268 238.159 316.916 Q238.159 318.647 237.5 320.208 Q236.861 321.75 235.15 323.857 Q234.679 324.402 232.159 327.016 Q229.639 329.612 225.05 334.295 Z" fill="#000000" fill-rule="nonzero" fill-opacity="1" /><path clip-path="url(#clip170)" d="M60.0998 1347.25 L66.263 1347.25 Q63.5141 1350.21 62.1542 1353.56 Q60.7943 1356.89 60.7943 1360.65 Q60.7943 1368.06 65.3371 1371.99 Q69.8509 1375.93 78.4157 1375.93 Q86.9515 1375.93 91.4943 1371.99 Q96.0082 1368.06 96.0082 1360.65 Q96.0082 1356.89 94.6482 1353.56 Q93.2883 1350.21 90.5395 1347.25 L96.6448 1347.25 Q98.7281 1350.32 99.7697 1353.77 Q100.811 1357.18 100.811 1361 Q100.811 1370.81 94.8218 1376.45 Q88.8034 1382.09 78.4157 1382.09 Q67.9991 1382.09 62.0095 1376.45 Q55.991 1370.81 55.991 1361 Q55.991 1357.12 57.0327 1353.71 Q58.0454 1350.26 60.0998 1347.25 Z" fill="#000000" fill-rule="nonzero" fill-opacity="1" /><path clip-path="url(#clip170)" d="M61.5755 1332.38 L77.8081 1332.38 L77.8081 1325.03 Q77.8081 1320.95 75.6958 1318.72 Q73.5835 1316.5 69.6773 1316.5 Q65.8 1316.5 63.6878 1318.72 Q61.5755 1320.95 61.5755 1325.03 L61.5755 1332.38 M56.7723 1338.23 L56.7723 1325.03 Q56.7723 1317.77 60.0709 1314.07 Q63.3405 1310.33 69.6773 1310.33 Q76.0719 1310.33 79.3416 1314.07 Q82.6113 1317.77 82.6113 1325.03 L82.6113 1332.38 L99.9723 1332.38 L99.9723 1338.23 L56.7723 1338.23 Z" fill="#000000" fill-rule="nonzero" fill-opacity="1" /><path clip-path="url(#clip170)" d="M56.7723 1303.16 L56.7723 1297.28 L83.0164 1297.28 Q89.9608 1297.28 93.0279 1294.77 Q96.0661 1292.25 96.0661 1286.61 Q96.0661 1280.99 93.0279 1278.48 Q89.9608 1275.96 83.0164 1275.96 L56.7723 1275.96 L56.7723 1270.08 L83.7397 1270.08 Q92.1888 1270.08 96.5001 1274.28 Q100.811 1278.45 100.811 1286.61 Q100.811 1294.8 96.5001 1298.99 Q92.1888 1303.16 83.7397 1303.16 L56.7723 1303.16 Z" fill="#000000" fill-rule="nonzero" fill-opacity="1" /><path clip-path="url(#clip170)" d="M58.3637 1235.25 L67.565 1235.25 L67.565 1224.28 L71.7028 1224.28 L71.7028 1235.25 L89.2953 1235.25 Q93.2594 1235.25 94.3878 1234.18 Q95.5163 1233.08 95.5163 1229.75 L95.5163 1224.28 L99.9723 1224.28 L99.9723 1229.75 Q99.9723 1235.91 97.6864 1238.26 Q95.3716 1240.6 89.2953 1240.6 L71.7028 1240.6 L71.7028 1244.51 L67.565 1244.51 L67.565 1240.6 L58.3637 1240.6 L58.3637 1235.25 Z" fill="#000000" fill-rule="nonzero" fill-opacity="1" /><path clip-path="url(#clip170)" d="M67.565 1217.28 L67.565 1211.95 L99.9723 1211.95 L99.9723 1217.28 L67.565 1217.28 M54.9494 1217.28 L54.9494 1211.95 L61.6912 1211.95 L61.6912 1217.28 L54.9494 1217.28 Z" fill="#000000" fill-rule="nonzero" fill-opacity="1" /><path clip-path="url(#clip170)" d="M73.7861 1175.58 Q70.1981 1173.59 68.491 1170.81 Q66.7838 1168.03 66.7838 1164.27 Q66.7838 1159.21 70.3428 1156.46 Q73.8729 1153.71 80.4122 1153.71 L99.9723 1153.71 L99.9723 1159.06 L80.5858 1159.06 Q75.9273 1159.06 73.6703 1160.71 Q71.4134 1162.36 71.4134 1165.75 Q71.4134 1169.88 74.1622 1172.28 Q76.9111 1174.69 81.6564 1174.69 L99.9723 1174.69 L99.9723 1180.04 L80.5858 1180.04 Q75.8983 1180.04 73.6703 1181.69 Q71.4134 1183.34 71.4134 1186.78 Q71.4134 1190.86 74.1912 1193.26 Q76.94 1195.66 81.6564 1195.66 L99.9723 1195.66 L99.9723 1201.02 L67.565 1201.02 L67.565 1195.66 L72.5997 1195.66 Q69.6194 1193.84 68.2016 1191.29 Q66.7838 1188.75 66.7838 1185.25 Q66.7838 1181.72 68.5778 1179.26 Q70.3717 1176.77 73.7861 1175.58 Z" fill="#000000" fill-rule="nonzero" fill-opacity="1" /><path clip-path="url(#clip170)" d="M82.4377 1115.37 L85.0418 1115.37 L85.0418 1139.85 Q90.5395 1139.5 93.433 1136.55 Q96.2975 1133.57 96.2975 1128.27 Q96.2975 1125.21 95.5452 1122.34 Q94.7929 1119.45 93.2883 1116.61 L98.323 1116.61 Q99.5383 1119.48 100.175 1122.49 Q100.811 1125.5 100.811 1128.59 Q100.811 1136.35 96.2975 1140.89 Q91.7837 1145.4 84.087 1145.4 Q76.1298 1145.4 71.4713 1141.12 Q66.7838 1136.81 66.7838 1129.52 Q66.7838 1122.98 71.0083 1119.19 Q75.2039 1115.37 82.4377 1115.37 M80.8752 1120.69 Q76.506 1120.75 73.9018 1123.15 Q71.2977 1125.53 71.2977 1129.46 Q71.2977 1133.92 73.815 1136.61 Q76.3324 1139.27 80.9041 1139.67 L80.8752 1120.69 Z" fill="#000000" fill-rule="nonzero" fill-opacity="1" /><path clip-path="url(#clip170)" d="M55.0072 1075.01 Q61.6623 1078.88 68.1727 1080.76 Q74.6831 1082.64 81.3671 1082.64 Q88.0511 1082.64 94.6193 1080.76 Q101.159 1078.85 107.785 1075.01 L107.785 1079.63 Q100.985 1083.97 94.4168 1086.15 Q87.8485 1088.29 81.3671 1088.29 Q74.9145 1088.29 68.3752 1086.15 Q61.8359 1084 55.0072 1079.63 L55.0072 1075.01 Z" fill="#000000" fill-rule="nonzero" fill-opacity="1" /><path clip-path="url(#clip170)" d="M68.5199 1044.02 L73.5546 1044.02 Q72.3972 1046.27 71.8185 1048.7 Q71.2398 1051.13 71.2398 1053.74 Q71.2398 1057.7 72.4551 1059.7 Q73.6703 1061.67 76.1009 1061.67 Q77.9527 1061.67 79.0233 1060.25 Q80.065 1058.83 81.0198 1054.55 L81.4249 1052.73 Q82.6402 1047.05 84.8682 1044.68 Q87.0673 1042.28 91.0314 1042.28 Q95.5452 1042.28 98.1783 1045.87 Q100.811 1049.43 100.811 1055.68 Q100.811 1058.28 100.291 1061.12 Q99.7987 1063.92 98.7859 1067.05 L93.2883 1067.05 Q94.8218 1064.1 95.6031 1061.23 Q96.3554 1058.37 96.3554 1055.56 Q96.3554 1051.8 95.0823 1049.77 Q93.7802 1047.75 91.4364 1047.75 Q89.2663 1047.75 88.1089 1049.22 Q86.9515 1050.67 85.8809 1055.62 L85.4469 1057.47 Q84.4052 1062.42 82.264 1064.62 Q80.0939 1066.82 76.3324 1066.82 Q71.7606 1066.82 69.2722 1063.58 Q66.7838 1060.33 66.7838 1054.37 Q66.7838 1051.42 67.2178 1048.82 Q67.6519 1046.21 68.5199 1044.02 Z" fill="#000000" fill-rule="nonzero" fill-opacity="1" /><path clip-path="url(#clip170)" d="M55.0072 1034.64 L55.0072 1030.01 Q61.8359 1025.67 68.3752 1023.53 Q74.9145 1021.36 81.3671 1021.36 Q87.8485 1021.36 94.4168 1023.53 Q100.985 1025.67 107.785 1030.01 L107.785 1034.64 Q101.159 1030.79 94.6193 1028.91 Q88.0511 1027 81.3671 1027 Q74.6831 1027 68.1727 1028.91 Q61.6623 1030.79 55.0072 1034.64 Z" fill="#000000" fill-rule="nonzero" fill-opacity="1" /><path clip-path="url(#clip170)" d="M1279.13 123.984 L1287.31 123.984 L1287.31 184.464 L1279.13 184.464 L1279.13 123.984 Z" fill="#000000" fill-rule="nonzero" fill-opacity="1" /><path clip-path="url(#clip170)" d="M1310.64 126.212 L1310.64 139.094 L1326 139.094 L1326 144.887 L1310.64 144.887 L1310.64 169.516 Q1310.64 175.066 1312.14 176.646 Q1313.68 178.226 1318.34 178.226 L1326 178.226 L1326 184.464 L1318.34 184.464 Q1309.71 184.464 1306.43 181.264 Q1303.15 178.023 1303.15 169.516 L1303.15 144.887 L1297.68 144.887 L1297.68 139.094 L1303.15 139.094 L1303.15 126.212 L1310.64 126.212 Z" fill="#000000" fill-rule="nonzero" fill-opacity="1" /><path clip-path="url(#clip170)" d="M1374.61 159.916 L1374.61 163.561 L1340.34 163.561 Q1340.82 171.258 1344.95 175.309 Q1349.13 179.319 1356.54 179.319 Q1360.83 179.319 1364.84 178.266 Q1368.9 177.213 1372.87 175.106 L1372.87 182.155 Q1368.85 183.856 1364.64 184.748 Q1360.43 185.639 1356.09 185.639 Q1345.24 185.639 1338.88 179.319 Q1332.56 173 1332.56 162.225 Q1332.56 151.085 1338.55 144.563 Q1344.59 138 1354.8 138 Q1363.95 138 1369.26 143.914 Q1374.61 149.788 1374.61 159.916 M1367.15 157.728 Q1367.07 151.611 1363.71 147.965 Q1360.39 144.32 1354.88 144.32 Q1348.64 144.32 1344.87 147.844 Q1341.15 151.368 1340.58 157.769 L1367.15 157.728 Z" fill="#000000" fill-rule="nonzero" fill-opacity="1" /><path clip-path="url(#clip170)" d="M1413.13 146.061 Q1411.88 145.332 1410.38 145.008 Q1408.92 144.644 1407.14 144.644 Q1400.82 144.644 1397.41 148.776 Q1394.05 152.867 1394.05 160.564 L1394.05 184.464 L1386.56 184.464 L1386.56 139.094 L1394.05 139.094 L1394.05 146.142 Q1396.4 142.011 1400.17 140.026 Q1403.94 138 1409.32 138 Q1410.09 138 1411.02 138.122 Q1411.96 138.203 1413.09 138.405 L1413.13 146.061 Z" fill="#000000" fill-rule="nonzero" fill-opacity="1" /><path clip-path="url(#clip170)" d="M1441.57 161.657 Q1432.54 161.657 1429.05 163.723 Q1425.57 165.789 1425.57 170.772 Q1425.57 174.742 1428.16 177.091 Q1430.79 179.4 1435.29 179.4 Q1441.49 179.4 1445.21 175.025 Q1448.98 170.61 1448.98 163.318 L1448.98 161.657 L1441.57 161.657 M1456.44 158.579 L1456.44 184.464 L1448.98 184.464 L1448.98 177.577 Q1446.43 181.709 1442.62 183.694 Q1438.81 185.639 1433.3 185.639 Q1426.34 185.639 1422.21 181.75 Q1418.11 177.821 1418.11 171.258 Q1418.11 163.602 1423.22 159.713 Q1428.36 155.824 1438.53 155.824 L1448.98 155.824 L1448.98 155.095 Q1448.98 149.95 1445.58 147.155 Q1442.22 144.32 1436.1 144.32 Q1432.21 144.32 1428.52 145.251 Q1424.84 146.183 1421.44 148.046 L1421.44 141.16 Q1425.53 139.58 1429.38 138.81 Q1433.22 138 1436.87 138 Q1446.71 138 1451.57 143.104 Q1456.44 148.208 1456.44 158.579 Z" fill="#000000" fill-rule="nonzero" fill-opacity="1" /><path clip-path="url(#clip170)" d="M1479.16 126.212 L1479.16 139.094 L1494.51 139.094 L1494.51 144.887 L1479.16 144.887 L1479.16 169.516 Q1479.16 175.066 1480.66 176.646 Q1482.2 178.226 1486.86 178.226 L1494.51 178.226 L1494.51 184.464 L1486.86 184.464 Q1478.23 184.464 1474.95 181.264 Q1471.67 178.023 1471.67 169.516 L1471.67 144.887 L1466.2 144.887 L1466.2 139.094 L1471.67 139.094 L1471.67 126.212 L1479.16 126.212 Z" fill="#000000" fill-rule="nonzero" fill-opacity="1" /><path clip-path="url(#clip170)" d="M1504.32 139.094 L1511.77 139.094 L1511.77 184.464 L1504.32 184.464 L1504.32 139.094 M1504.32 121.432 L1511.77 121.432 L1511.77 130.871 L1504.32 130.871 L1504.32 121.432 Z" fill="#000000" fill-rule="nonzero" fill-opacity="1" /><path clip-path="url(#clip170)" d="M1544.95 144.32 Q1538.95 144.32 1535.47 149.019 Q1531.98 153.677 1531.98 161.819 Q1531.98 169.962 1535.43 174.661 Q1538.91 179.319 1544.95 179.319 Q1550.9 179.319 1554.39 174.62 Q1557.87 169.921 1557.87 161.819 Q1557.87 153.758 1554.39 149.059 Q1550.9 144.32 1544.95 144.32 M1544.95 138 Q1554.67 138 1560.22 144.32 Q1565.77 150.639 1565.77 161.819 Q1565.77 172.959 1560.22 179.319 Q1554.67 185.639 1544.95 185.639 Q1535.19 185.639 1529.64 179.319 Q1524.13 172.959 1524.13 161.819 Q1524.13 150.639 1529.64 144.32 Q1535.19 138 1544.95 138 Z" fill="#000000" fill-rule="nonzero" fill-opacity="1" /><path clip-path="url(#clip170)" d="M1615.84 157.08 L1615.84 184.464 L1608.38 184.464 L1608.38 157.323 Q1608.38 150.882 1605.87 147.682 Q1603.36 144.482 1598.34 144.482 Q1592.3 144.482 1588.82 148.33 Q1585.34 152.178 1585.34 158.822 L1585.34 184.464 L1577.84 184.464 L1577.84 139.094 L1585.34 139.094 L1585.34 146.142 Q1588.01 142.051 1591.61 140.026 Q1595.26 138 1600 138 Q1607.82 138 1611.83 142.861 Q1615.84 147.682 1615.84 157.08 Z" fill="#000000" fill-rule="nonzero" fill-opacity="1" /><path clip-path="url(#clip170)" d="M1659.63 140.431 L1659.63 147.479 Q1656.47 145.859 1653.07 145.049 Q1649.66 144.239 1646.02 144.239 Q1640.47 144.239 1637.67 145.94 Q1634.92 147.641 1634.92 151.044 Q1634.92 153.637 1636.9 155.135 Q1638.89 156.594 1644.88 157.931 L1647.44 158.498 Q1655.38 160.199 1658.7 163.318 Q1662.06 166.397 1662.06 171.947 Q1662.06 178.266 1657.04 181.952 Q1652.05 185.639 1643.3 185.639 Q1639.66 185.639 1635.69 184.91 Q1631.76 184.221 1627.38 182.803 L1627.38 175.106 Q1631.52 177.253 1635.53 178.347 Q1639.54 179.4 1643.47 179.4 Q1648.73 179.4 1651.57 177.618 Q1654.4 175.795 1654.4 172.514 Q1654.4 169.476 1652.34 167.855 Q1650.31 166.235 1643.38 164.736 L1640.79 164.128 Q1633.87 162.67 1630.79 159.672 Q1627.71 156.634 1627.71 151.368 Q1627.71 144.968 1632.24 141.484 Q1636.78 138 1645.13 138 Q1649.26 138 1652.9 138.608 Q1656.55 139.215 1659.63 140.431 Z" fill="#000000" fill-rule="nonzero" fill-opacity="1" /><path clip-path="url(#clip170)" d="M1694.95 139.094 L1702.85 139.094 L1717.03 177.172 L1731.21 139.094 L1739.11 139.094 L1722.09 184.464 L1711.97 184.464 L1694.95 139.094 Z" fill="#000000" fill-rule="nonzero" fill-opacity="1" /><path clip-path="url(#clip170)" d="M1778.32 140.431 L1778.32 147.479 Q1775.16 145.859 1771.76 145.049 Q1768.36 144.239 1764.71 144.239 Q1759.16 144.239 1756.36 145.94 Q1753.61 147.641 1753.61 151.044 Q1753.61 153.637 1755.59 155.135 Q1757.58 156.594 1763.58 157.931 L1766.13 158.498 Q1774.07 160.199 1777.39 163.318 Q1780.75 166.397 1780.75 171.947 Q1780.75 178.266 1775.73 181.952 Q1770.75 185.639 1762 185.639 Q1758.35 185.639 1754.38 184.91 Q1750.45 184.221 1746.08 182.803 L1746.08 175.106 Q1750.21 177.253 1754.22 178.347 Q1758.23 179.4 1762.16 179.4 Q1767.42 179.4 1770.26 177.618 Q1773.09 175.795 1773.09 172.514 Q1773.09 169.476 1771.03 167.855 Q1769 166.235 1762.08 164.736 L1759.48 164.128 Q1752.56 162.67 1749.48 159.672 Q1746.4 156.634 1746.4 151.368 Q1746.4 144.968 1750.94 141.484 Q1755.47 138 1763.82 138 Q1767.95 138 1771.6 138.608 Q1775.24 139.215 1778.32 140.431 Z" fill="#000000" fill-rule="nonzero" fill-opacity="1" /><path clip-path="url(#clip170)" d="M1864.6 128.643 L1864.6 137.271 Q1860.47 133.423 1855.77 131.519 Q1851.12 129.615 1845.85 129.615 Q1835.48 129.615 1829.97 135.975 Q1824.46 142.294 1824.46 154.285 Q1824.46 166.235 1829.97 172.595 Q1835.48 178.914 1845.85 178.914 Q1851.12 178.914 1855.77 177.01 Q1860.47 175.106 1864.6 171.258 L1864.6 179.805 Q1860.31 182.722 1855.49 184.18 Q1850.71 185.639 1845.36 185.639 Q1831.63 185.639 1823.73 177.253 Q1815.83 168.828 1815.83 154.285 Q1815.83 139.702 1823.73 131.316 Q1831.63 122.89 1845.36 122.89 Q1850.79 122.89 1855.57 124.349 Q1860.39 125.766 1864.6 128.643 Z" fill="#000000" fill-rule="nonzero" fill-opacity="1" /><path clip-path="url(#clip170)" d="M1885.43 130.709 L1885.43 153.434 L1895.72 153.434 Q1901.43 153.434 1904.55 150.477 Q1907.67 147.52 1907.67 142.051 Q1907.67 136.623 1904.55 133.666 Q1901.43 130.709 1895.72 130.709 L1885.43 130.709 M1877.24 123.984 L1895.72 123.984 Q1905.88 123.984 1911.07 128.602 Q1916.29 133.18 1916.29 142.051 Q1916.29 151.004 1911.07 155.581 Q1905.88 160.159 1895.72 160.159 L1885.43 160.159 L1885.43 184.464 L1877.24 184.464 L1877.24 123.984 Z" fill="#000000" fill-rule="nonzero" fill-opacity="1" /><path clip-path="url(#clip170)" d="M1926.34 123.984 L1934.56 123.984 L1934.56 160.726 Q1934.56 170.448 1938.09 174.742 Q1941.61 178.995 1949.51 178.995 Q1957.37 178.995 1960.89 174.742 Q1964.42 170.448 1964.42 160.726 L1964.42 123.984 L1972.64 123.984 L1972.64 161.738 Q1972.64 173.567 1966.77 179.603 Q1960.94 185.639 1949.51 185.639 Q1938.05 185.639 1932.17 179.603 Q1926.34 173.567 1926.34 161.738 L1926.34 123.984 Z" fill="#000000" fill-rule="nonzero" fill-opacity="1" /><path clip-path="url(#clip170)" d="M2021.42 126.212 L2021.42 139.094 L2036.77 139.094 L2036.77 144.887 L2021.42 144.887 L2021.42 169.516 Q2021.42 175.066 2022.91 176.646 Q2024.45 178.226 2029.11 178.226 L2036.77 178.226 L2036.77 184.464 L2029.11 184.464 Q2020.48 184.464 2017.2 181.264 Q2013.92 178.023 2013.92 169.516 L2013.92 144.887 L2008.45 144.887 L2008.45 139.094 L2013.92 139.094 L2013.92 126.212 L2021.42 126.212 Z" fill="#000000" fill-rule="nonzero" fill-opacity="1" /><path clip-path="url(#clip170)" d="M2046.57 139.094 L2054.02 139.094 L2054.02 184.464 L2046.57 184.464 L2046.57 139.094 M2046.57 121.432 L2054.02 121.432 L2054.02 130.871 L2046.57 130.871 L2046.57 121.432 Z" fill="#000000" fill-rule="nonzero" fill-opacity="1" /><path clip-path="url(#clip170)" d="M2104.94 147.803 Q2107.74 142.78 2111.63 140.39 Q2115.52 138 2120.78 138 Q2127.87 138 2131.72 142.983 Q2135.57 147.925 2135.57 157.08 L2135.57 184.464 L2128.08 184.464 L2128.08 157.323 Q2128.08 150.801 2125.77 147.641 Q2123.46 144.482 2118.72 144.482 Q2112.93 144.482 2109.56 148.33 Q2106.2 152.178 2106.2 158.822 L2106.2 184.464 L2098.71 184.464 L2098.71 157.323 Q2098.71 150.76 2096.4 147.641 Q2094.09 144.482 2089.27 144.482 Q2083.56 144.482 2080.19 148.37 Q2076.83 152.219 2076.83 158.822 L2076.83 184.464 L2069.34 184.464 L2069.34 139.094 L2076.83 139.094 L2076.83 146.142 Q2079.38 141.97 2082.95 139.985 Q2086.51 138 2091.41 138 Q2096.36 138 2099.8 140.512 Q2103.28 143.023 2104.94 147.803 Z" fill="#000000" fill-rule="nonzero" fill-opacity="1" /><path clip-path="url(#clip170)" d="M2189.24 159.916 L2189.24 163.561 L2154.97 163.561 Q2155.46 171.258 2159.59 175.309 Q2163.76 179.319 2171.18 179.319 Q2175.47 179.319 2179.48 178.266 Q2183.53 177.213 2187.5 175.106 L2187.5 182.155 Q2183.49 183.856 2179.28 184.748 Q2175.07 185.639 2170.73 185.639 Q2159.88 185.639 2153.52 179.319 Q2147.2 173 2147.2 162.225 Q2147.2 151.085 2153.19 144.563 Q2159.23 138 2169.44 138 Q2178.59 138 2183.9 143.914 Q2189.24 149.788 2189.24 159.916 M2181.79 157.728 Q2181.71 151.611 2178.35 147.965 Q2175.03 144.32 2169.52 144.32 Q2163.28 144.32 2159.51 147.844 Q2155.78 151.368 2155.22 157.769 L2181.79 157.728 Z" fill="#000000" fill-rule="nonzero" fill-opacity="1" /><path clip-path="url(#clip170)" d="M2224.08 158.822 L2298.94 158.822 L2298.94 164.655 L2224.08 164.655 L2224.08 158.822 Z" fill="#000000" fill-rule="nonzero" fill-opacity="1" /><path clip-path="url(#clip170)" d="M2367.04 161.252 Q2367.04 153.151 2363.68 148.695 Q2360.35 144.239 2354.32 144.239 Q2348.32 144.239 2344.96 148.695 Q2341.64 153.151 2341.64 161.252 Q2341.64 169.314 2344.96 173.77 Q2348.32 178.226 2354.32 178.226 Q2360.35 178.226 2363.68 173.77 Q2367.04 169.314 2367.04 161.252 M2374.49 178.833 Q2374.49 190.419 2369.35 196.05 Q2364.2 201.721 2353.59 201.721 Q2349.66 201.721 2346.18 201.113 Q2342.69 200.546 2339.41 199.331 L2339.41 192.08 Q2342.69 193.862 2345.89 194.713 Q2349.09 195.563 2352.41 195.563 Q2359.75 195.563 2363.39 191.715 Q2367.04 187.907 2367.04 180.17 L2367.04 176.484 Q2364.73 180.494 2361.12 182.479 Q2357.52 184.464 2352.5 184.464 Q2344.15 184.464 2339.05 178.104 Q2333.94 171.744 2333.94 161.252 Q2333.94 150.72 2339.05 144.36 Q2344.15 138 2352.5 138 Q2357.52 138 2361.12 139.985 Q2364.73 141.97 2367.04 145.98 L2367.04 139.094 L2374.49 139.094 L2374.49 178.833 Z" fill="#000000" fill-rule="nonzero" fill-opacity="1" /><path clip-path="url(#clip170)" d="M2389.84 121.432 L2397.3 121.432 L2397.3 184.464 L2389.84 184.464 L2389.84 121.432 Z" fill="#000000" fill-rule="nonzero" fill-opacity="1" /><path clip-path="url(#clip170)" d="M2412.89 139.094 L2420.35 139.094 L2420.35 184.464 L2412.89 184.464 L2412.89 139.094 M2412.89 121.432 L2420.35 121.432 L2420.35 130.871 L2412.89 130.871 L2412.89 121.432 Z" fill="#000000" fill-rule="nonzero" fill-opacity="1" /><path clip-path="url(#clip170)" d="M2465.8 145.98 L2465.8 121.432 L2473.25 121.432 L2473.25 184.464 L2465.8 184.464 L2465.8 177.658 Q2463.45 181.709 2459.84 183.694 Q2456.28 185.639 2451.26 185.639 Q2443.03 185.639 2437.85 179.076 Q2432.7 172.514 2432.7 161.819 Q2432.7 151.125 2437.85 144.563 Q2443.03 138 2451.26 138 Q2456.28 138 2459.84 139.985 Q2463.45 141.93 2465.8 145.98 M2440.4 161.819 Q2440.4 170.043 2443.76 174.742 Q2447.17 179.4 2453.08 179.4 Q2458.99 179.4 2462.4 174.742 Q2465.8 170.043 2465.8 161.819 Q2465.8 153.596 2462.4 148.938 Q2458.99 144.239 2453.08 144.239 Q2447.17 144.239 2443.76 148.938 Q2440.4 153.596 2440.4 161.819 Z" fill="#000000" fill-rule="nonzero" fill-opacity="1" /><path clip-path="url(#clip170)" d="M2527.41 159.916 L2527.41 163.561 L2493.14 163.561 Q2493.63 171.258 2497.76 175.309 Q2501.93 179.319 2509.35 179.319 Q2513.64 179.319 2517.65 178.266 Q2521.7 177.213 2525.67 175.106 L2525.67 182.155 Q2521.66 183.856 2517.45 184.748 Q2513.24 185.639 2508.9 185.639 Q2498.04 185.639 2491.68 179.319 Q2485.37 173 2485.37 162.225 Q2485.37 151.085 2491.36 144.563 Q2497.4 138 2507.6 138 Q2516.76 138 2522.07 143.914 Q2527.41 149.788 2527.41 159.916 M2519.96 157.728 Q2519.88 151.611 2516.52 147.965 Q2513.19 144.32 2507.69 144.32 Q2501.45 144.32 2497.68 147.844 Q2493.95 151.368 2493.39 157.769 L2519.96 157.728 Z" fill="#000000" fill-rule="nonzero" fill-opacity="1" /><path clip-path="url(#clip170)" d="M2565.94 146.061 Q2564.68 145.332 2563.18 145.008 Q2561.72 144.644 2559.94 144.644 Q2553.62 144.644 2550.22 148.776 Q2546.86 152.867 2546.86 160.564 L2546.86 184.464 L2539.36 184.464 L2539.36 139.094 L2546.86 139.094 L2546.86 146.142 Q2549.21 142.011 2552.97 140.026 Q2556.74 138 2562.13 138 Q2562.9 138 2563.83 138.122 Q2564.76 138.203 2565.9 138.405 L2565.94 146.061 Z" fill="#000000" fill-rule="nonzero" fill-opacity="1" /><path clip-path="url(#clip172)" d="M618.989 1267.3 L570.989 1267.3 L594.989 1315.3 L618.989 1267.3 Z" fill="#9370db" fill-rule="evenodd" fill-opacity="1" stroke="none"/>
<path clip-path="url(#clip172)" d="M2477.55 861.718 L2429.55 861.718 L2453.55 909.718 L2477.55 861.718 Z" fill="#9370db" fill-rule="evenodd" fill-opacity="1" stroke="none"/>
<circle clip-path="url(#clip172)" cx="780.344" cy="1367.27" r="21.6" fill="#4682b4" fill-rule="evenodd" fill-opacity="1" stroke="none"/>
<circle clip-path="url(#clip172)" cx="3460.48" cy="963.566" r="21.6" fill="#4682b4" fill-rule="evenodd" fill-opacity="1" stroke="none"/>
<path clip-path="url(#clip172)" d="M771.373 1409.47 L771.373 1457.47 L819.373 1457.47 L819.373 1409.47 L771.373 1409.47 Z" fill="#ff6347" fill-rule="evenodd" fill-opacity="1" stroke="none"/>
<path clip-path="url(#clip172)" d="M2494.67 1310.28 L2494.67 1358.28 L2542.67 1358.28 L2542.67 1310.28 L2494.67 1310.28 Z" fill="#ff6347" fill-rule="evenodd" fill-opacity="1" stroke="none"/>
<path clip-path="url(#clip172)" d="M574.951 1552.11 L569.311 1568.33 L552.127 1568.69 L565.831 1579.08 L560.839 1595.52 L574.951 1585.71 L589.063 1595.52 L584.071 1579.08 L597.775 1568.69 L580.591 1568.33 L574.951 1552.11 Z" fill="#a0522d" fill-rule="evenodd" fill-opacity="1" stroke="none"/>
<path clip-path="url(#clip172)" d="M2523.68 853.89 L2518.04 870.114 L2500.86 870.474 L2514.56 880.866 L2509.57 897.306 L2523.68 887.49 L2537.8 897.306 L2532.8 880.866 L2546.51 870.474 L2529.32 870.114 L2523.68 853.89 Z" fill="#a0522d" fill-rule="evenodd" fill-opacity="1" stroke="none"/>
<path clip-path="url(#clip172)" d="M2598.83 593.781 L2593.19 610.005 L2576 610.365 L2589.71 620.757 L2584.72 637.197 L2598.83 627.381 L2612.94 637.197 L2607.95 620.757 L2621.65 610.365 L2604.47 610.005 L2598.83 593.781 Z" fill="#a0522d" fill-rule="evenodd" fill-opacity="1" stroke="none"/>
<path clip-path="url(#clip172)" d="M2233.13 364.789 L2227.49 381.013 L2210.3 381.373 L2224.01 391.765 L2219.02 408.205 L2233.13 398.389 L2247.24 408.205 L2242.25 391.765 L2255.95 381.373 L2238.77 381.013 L2233.13 364.789 Z" fill="#a0522d" fill-rule="evenodd" fill-opacity="1" stroke="none"/>
<path clip-path="url(#clip172)" d="M384.586 1845.29 L360.586 1869.29 L384.586 1893.29 L408.586 1869.29 L384.586 1845.29 Z" fill="#2e8b57" fill-rule="evenodd" fill-opacity="1" stroke="none"/>
<path clip-path="url(#clip172)" d="M2493.63 1097.78 L2469.63 1121.78 L2493.63 1145.78 L2517.63 1121.78 L2493.63 1097.78 Z" fill="#2e8b57" fill-rule="evenodd" fill-opacity="1" stroke="none"/>
<path clip-path="url(#clip172)" d="M2628.89 683.193 L2604.89 707.193 L2628.89 731.193 L2652.89 707.193 L2628.89 683.193 Z" fill="#2e8b57" fill-rule="evenodd" fill-opacity="1" stroke="none"/>
<path clip-path="url(#clip172)" d="M3320.21 276.989 L3296.21 300.989 L3320.21 324.989 L3344.21 300.989 L3320.21 276.989 Z" fill="#2e8b57" fill-rule="evenodd" fill-opacity="1" stroke="none"/>
<path clip-path="url(#clip172)" d="M549.903 2078.46 L525.903 2126.46 L573.903 2126.46 L549.903 2078.46 Z" fill="#ff8c00" fill-rule="evenodd" fill-opacity="1" stroke="none"/>
<path clip-path="url(#clip172)" d="M1782.26 1525.8 L1758.26 1573.8 L1806.26 1573.8 L1782.26 1525.8 Z" fill="#ff8c00" fill-rule="evenodd" fill-opacity="1" stroke="none"/>
<path clip-path="url(#clip172)" d="M2704.03 1146.46 L2680.03 1194.46 L2728.03 1194.46 L2704.03 1146.46 Z" fill="#ff8c00" fill-rule="evenodd" fill-opacity="1" stroke="none"/>
<path clip-path="url(#clip172)" d="M1727.16 934.41 L1703.16 982.41 L1751.16 982.41 L1727.16 934.41 Z" fill="#ff8c00" fill-rule="evenodd" fill-opacity="1" stroke="none"/>
<path clip-path="url(#clip170)" d="M400.991 673.476 L1097.1 673.476 L1097.1 310.596 L400.991 310.596  Z" fill="#ffffff" fill-rule="evenodd" fill-opacity="1"/>
<polyline clip-path="url(#clip170)" style="stroke:#000000; stroke-linecap:round; stroke-linejoin:round; stroke-width:4; stroke-opacity:1; fill:none" points="400.991,673.476 1097.1,673.476 1097.1,310.596 400.991,310.596 400.991,673.476 "/>
<path clip-path="url(#clip170)" d="M571.5 336.836 L520.3 336.836 L545.9 388.036 L571.5 336.836 Z" fill="#9370db" fill-rule="evenodd" fill-opacity="1" stroke="none"/>
<path clip-path="url(#clip170)" d="M701.433 343.744 Q698.331 349.068 696.827 354.277 Q695.322 359.485 695.322 364.832 Q695.322 370.179 696.827 375.434 Q698.355 380.665 701.433 385.966 L697.73 385.966 Q694.257 380.527 692.521 375.272 Q690.808 370.017 690.808 364.832 Q690.808 359.67 692.521 354.439 Q694.234 349.207 697.73 343.744 L701.433 343.744 Z" fill="#000000" fill-rule="nonzero" fill-opacity="1" /><path clip-path="url(#clip170)" d="M709.697 353.791 L713.956 353.791 L713.956 380.179 Q713.956 385.133 712.058 387.355 Q710.183 389.577 705.993 389.577 L704.373 389.577 L704.373 385.966 L705.507 385.966 Q707.938 385.966 708.817 384.832 Q709.697 383.721 709.697 380.179 L709.697 353.791 M709.697 343.698 L713.956 343.698 L713.956 349.092 L709.697 349.092 L709.697 343.698 Z" fill="#000000" fill-rule="nonzero" fill-opacity="1" /><path clip-path="url(#clip170)" d="M722.428 369.485 L722.428 353.791 L726.688 353.791 L726.688 369.323 Q726.688 373.003 728.123 374.855 Q729.558 376.684 732.428 376.684 Q735.877 376.684 737.868 374.485 Q739.882 372.286 739.882 368.49 L739.882 353.791 L744.141 353.791 L744.141 379.716 L739.882 379.716 L739.882 375.735 Q738.331 378.096 736.271 379.253 Q734.234 380.388 731.526 380.388 Q727.058 380.388 724.743 377.61 Q722.428 374.832 722.428 369.485 M733.146 353.166 L733.146 353.166 Z" fill="#000000" fill-rule="nonzero" fill-opacity="1" /><path clip-path="url(#clip170)" d="M773.099 358.767 Q774.697 355.897 776.919 354.531 Q779.141 353.166 782.15 353.166 Q786.201 353.166 788.4 356.013 Q790.599 358.837 790.599 364.068 L790.599 379.716 L786.317 379.716 L786.317 364.207 Q786.317 360.48 784.998 358.675 Q783.678 356.869 780.97 356.869 Q777.66 356.869 775.738 359.068 Q773.817 361.267 773.817 365.064 L773.817 379.716 L769.535 379.716 L769.535 364.207 Q769.535 360.457 768.215 358.675 Q766.896 356.869 764.141 356.869 Q760.877 356.869 758.956 359.091 Q757.035 361.291 757.035 365.064 L757.035 379.716 L752.752 379.716 L752.752 353.791 L757.035 353.791 L757.035 357.818 Q758.493 355.434 760.53 354.3 Q762.567 353.166 765.368 353.166 Q768.192 353.166 770.16 354.601 Q772.15 356.036 773.099 358.767 Z" fill="#000000" fill-rule="nonzero" fill-opacity="1" /><path clip-path="url(#clip170)" d="M803.215 375.827 L803.215 389.577 L798.933 389.577 L798.933 353.791 L803.215 353.791 L803.215 357.726 Q804.558 355.411 806.595 354.3 Q808.655 353.166 811.502 353.166 Q816.224 353.166 819.164 356.916 Q822.127 360.666 822.127 366.777 Q822.127 372.888 819.164 376.638 Q816.224 380.388 811.502 380.388 Q808.655 380.388 806.595 379.277 Q804.558 378.142 803.215 375.827 M817.706 366.777 Q817.706 362.078 815.761 359.416 Q813.84 356.73 810.46 356.73 Q807.081 356.73 805.136 359.416 Q803.215 362.078 803.215 366.777 Q803.215 371.476 805.136 374.161 Q807.081 376.823 810.46 376.823 Q813.84 376.823 815.761 374.161 Q817.706 371.476 817.706 366.777 Z" fill="#000000" fill-rule="nonzero" fill-opacity="1" /><path clip-path="url(#clip170)" d="M830.275 373.837 L835.159 373.837 L835.159 377.818 L831.363 385.226 L828.377 385.226 L830.275 377.818 L830.275 373.837 Z" fill="#000000" fill-rule="nonzero" fill-opacity="1" /><path clip-path="url(#clip170)" d="M859.326 353.791 L863.585 353.791 L863.585 379.716 L859.326 379.716 L859.326 353.791 M859.326 343.698 L863.585 343.698 L863.585 349.092 L859.326 349.092 L859.326 343.698 Z" fill="#000000" fill-rule="nonzero" fill-opacity="1" /><path clip-path="url(#clip170)" d="M876.617 375.827 L876.617 389.577 L872.335 389.577 L872.335 353.791 L876.617 353.791 L876.617 357.726 Q877.96 355.411 879.997 354.3 Q882.057 353.166 884.904 353.166 Q889.627 353.166 892.566 356.916 Q895.529 360.666 895.529 366.777 Q895.529 372.888 892.566 376.638 Q889.627 380.388 884.904 380.388 Q882.057 380.388 879.997 379.277 Q877.96 378.142 876.617 375.827 M891.108 366.777 Q891.108 362.078 889.164 359.416 Q887.242 356.73 883.863 356.73 Q880.483 356.73 878.539 359.416 Q876.617 362.078 876.617 366.777 Q876.617 371.476 878.539 374.161 Q880.483 376.823 883.863 376.823 Q887.242 376.823 889.164 374.161 Q891.108 371.476 891.108 366.777 Z" fill="#000000" fill-rule="nonzero" fill-opacity="1" /><path clip-path="url(#clip170)" d="M912.636 356.777 Q909.21 356.777 907.219 359.462 Q905.228 362.124 905.228 366.777 Q905.228 371.429 907.196 374.115 Q909.187 376.777 912.636 376.777 Q916.039 376.777 918.029 374.091 Q920.02 371.406 920.02 366.777 Q920.02 362.17 918.029 359.485 Q916.039 356.777 912.636 356.777 M912.636 353.166 Q918.191 353.166 921.363 356.777 Q924.534 360.388 924.534 366.777 Q924.534 373.142 921.363 376.777 Q918.191 380.388 912.636 380.388 Q907.057 380.388 903.886 376.777 Q900.738 373.142 900.738 366.777 Q900.738 360.388 903.886 356.777 Q907.057 353.166 912.636 353.166 Z" fill="#000000" fill-rule="nonzero" fill-opacity="1" /><path clip-path="url(#clip170)" d="M935.714 375.827 L935.714 389.577 L931.432 389.577 L931.432 353.791 L935.714 353.791 L935.714 357.726 Q937.057 355.411 939.094 354.3 Q941.154 353.166 944.001 353.166 Q948.724 353.166 951.663 356.916 Q954.626 360.666 954.626 366.777 Q954.626 372.888 951.663 376.638 Q948.724 380.388 944.001 380.388 Q941.154 380.388 939.094 379.277 Q937.057 378.142 935.714 375.827 M950.205 366.777 Q950.205 362.078 948.261 359.416 Q946.339 356.73 942.96 356.73 Q939.58 356.73 937.636 359.416 Q935.714 362.078 935.714 366.777 Q935.714 371.476 937.636 374.161 Q939.58 376.823 942.96 376.823 Q946.339 376.823 948.261 374.161 Q950.205 371.476 950.205 366.777 Z" fill="#000000" fill-rule="nonzero" fill-opacity="1" /><path clip-path="url(#clip170)" d="M965.899 346.43 L965.899 353.791 L974.672 353.791 L974.672 357.101 L965.899 357.101 L965.899 371.175 Q965.899 374.346 966.756 375.249 Q967.635 376.152 970.297 376.152 L974.672 376.152 L974.672 379.716 L970.297 379.716 Q965.367 379.716 963.492 377.888 Q961.617 376.036 961.617 371.175 L961.617 357.101 L958.492 357.101 L958.492 353.791 L961.617 353.791 L961.617 346.43 L965.899 346.43 Z" fill="#000000" fill-rule="nonzero" fill-opacity="1" /><path clip-path="url(#clip170)" d="M979.603 343.744 L983.307 343.744 Q986.779 349.207 988.492 354.439 Q990.228 359.67 990.228 364.832 Q990.228 370.017 988.492 375.272 Q986.779 380.527 983.307 385.966 L979.603 385.966 Q982.682 380.665 984.186 375.434 Q985.714 370.179 985.714 364.832 Q985.714 359.485 984.186 354.277 Q982.682 349.068 979.603 343.744 Z" fill="#000000" fill-rule="nonzero" fill-opacity="1" /><circle clip-path="url(#clip170)" cx="545.9" cy="414.276" r="23.04" fill="#4682b4" fill-rule="evenodd" fill-opacity="1" stroke="none"/>
<path clip-path="url(#clip170)" d="M701.433 395.584 Q698.331 400.908 696.827 406.117 Q695.322 411.325 695.322 416.672 Q695.322 422.019 696.827 427.274 Q698.355 432.505 701.433 437.806 L697.73 437.806 Q694.257 432.367 692.521 427.112 Q690.808 421.857 690.808 416.672 Q690.808 411.51 692.521 406.279 Q694.234 401.047 697.73 395.584 L701.433 395.584 Z" fill="#000000" fill-rule="nonzero" fill-opacity="1" /><path clip-path="url(#clip170)" d="M721.479 418.524 Q716.317 418.524 714.327 419.705 Q712.336 420.885 712.336 423.732 Q712.336 426.001 713.817 427.343 Q715.322 428.663 717.891 428.663 Q721.433 428.663 723.563 426.163 Q725.715 423.64 725.715 419.473 L725.715 418.524 L721.479 418.524 M729.975 416.765 L729.975 431.556 L725.715 431.556 L725.715 427.621 Q724.257 429.982 722.081 431.117 Q719.905 432.228 716.757 432.228 Q712.776 432.228 710.415 430.005 Q708.077 427.76 708.077 424.01 Q708.077 419.635 710.993 417.413 Q713.933 415.191 719.743 415.191 L725.715 415.191 L725.715 414.774 Q725.715 411.834 723.771 410.237 Q721.85 408.617 718.354 408.617 Q716.132 408.617 714.026 409.149 Q711.919 409.681 709.975 410.746 L709.975 406.811 Q712.313 405.908 714.512 405.469 Q716.711 405.006 718.794 405.006 Q724.419 405.006 727.197 407.922 Q729.975 410.839 729.975 416.765 Z" fill="#000000" fill-rule="nonzero" fill-opacity="1" /><path clip-path="url(#clip170)" d="M755.808 409.566 L755.808 395.538 L760.067 395.538 L760.067 431.556 L755.808 431.556 L755.808 427.667 Q754.465 429.982 752.405 431.117 Q750.368 432.228 747.498 432.228 Q742.799 432.228 739.836 428.478 Q736.896 424.728 736.896 418.617 Q736.896 412.506 739.836 408.756 Q742.799 405.006 747.498 405.006 Q750.368 405.006 752.405 406.14 Q754.465 407.251 755.808 409.566 M741.294 418.617 Q741.294 423.316 743.215 426.001 Q745.16 428.663 748.539 428.663 Q751.919 428.663 753.863 426.001 Q755.808 423.316 755.808 418.617 Q755.808 413.918 753.863 411.256 Q751.919 408.57 748.539 408.57 Q745.16 408.57 743.215 411.256 Q741.294 413.918 741.294 418.617 Z" fill="#000000" fill-rule="nonzero" fill-opacity="1" /><path clip-path="url(#clip170)" d="M790.391 415.908 L790.391 431.556 L786.132 431.556 L786.132 416.047 Q786.132 412.367 784.697 410.538 Q783.261 408.709 780.391 408.709 Q776.942 408.709 774.951 410.908 Q772.961 413.107 772.961 416.904 L772.961 431.556 L768.678 431.556 L768.678 405.631 L772.961 405.631 L772.961 409.658 Q774.488 407.32 776.549 406.163 Q778.632 405.006 781.34 405.006 Q785.808 405.006 788.099 407.783 Q790.391 410.538 790.391 415.908 Z" fill="#000000" fill-rule="nonzero" fill-opacity="1" /><path clip-path="url(#clip170)" d="M798.886 395.538 L803.146 395.538 L803.146 431.556 L798.886 431.556 L798.886 395.538 Z" fill="#000000" fill-rule="nonzero" fill-opacity="1" /><path clip-path="url(#clip170)" d="M816.178 427.667 L816.178 441.417 L811.896 441.417 L811.896 405.631 L816.178 405.631 L816.178 409.566 Q817.521 407.251 819.558 406.14 Q821.618 405.006 824.465 405.006 Q829.187 405.006 832.127 408.756 Q835.09 412.506 835.09 418.617 Q835.09 424.728 832.127 428.478 Q829.187 432.228 824.465 432.228 Q821.618 432.228 819.558 431.117 Q817.521 429.982 816.178 427.667 M830.669 418.617 Q830.669 413.918 828.724 411.256 Q826.803 408.57 823.423 408.57 Q820.044 408.57 818.099 411.256 Q816.178 413.918 816.178 418.617 Q816.178 423.316 818.099 426.001 Q820.044 428.663 823.423 428.663 Q826.803 428.663 828.724 426.001 Q830.669 423.316 830.669 418.617 Z" fill="#000000" fill-rule="nonzero" fill-opacity="1" /><path clip-path="url(#clip170)" d="M843.238 425.677 L848.122 425.677 L848.122 429.658 L844.326 437.066 L841.34 437.066 L843.238 429.658 L843.238 425.677 Z" fill="#000000" fill-rule="nonzero" fill-opacity="1" /><path clip-path="url(#clip170)" d="M872.289 405.631 L876.548 405.631 L876.548 431.556 L872.289 431.556 L872.289 405.631 M872.289 395.538 L876.548 395.538 L876.548 400.932 L872.289 400.932 L872.289 395.538 Z" fill="#000000" fill-rule="nonzero" fill-opacity="1" /><path clip-path="url(#clip170)" d="M889.58 427.667 L889.58 441.417 L885.298 441.417 L885.298 405.631 L889.58 405.631 L889.58 409.566 Q890.923 407.251 892.96 406.14 Q895.02 405.006 897.867 405.006 Q902.59 405.006 905.529 408.756 Q908.492 412.506 908.492 418.617 Q908.492 424.728 905.529 428.478 Q902.59 432.228 897.867 432.228 Q895.02 432.228 892.96 431.117 Q890.923 429.982 889.58 427.667 M904.071 418.617 Q904.071 413.918 902.127 411.256 Q900.205 408.57 896.826 408.57 Q893.446 408.57 891.502 411.256 Q889.58 413.918 889.58 418.617 Q889.58 423.316 891.502 426.001 Q893.446 428.663 896.826 428.663 Q900.205 428.663 902.127 426.001 Q904.071 423.316 904.071 418.617 Z" fill="#000000" fill-rule="nonzero" fill-opacity="1" /><path clip-path="url(#clip170)" d="M925.599 408.617 Q922.173 408.617 920.182 411.302 Q918.191 413.964 918.191 418.617 Q918.191 423.269 920.159 425.955 Q922.15 428.617 925.599 428.617 Q929.001 428.617 930.992 425.931 Q932.983 423.246 932.983 418.617 Q932.983 414.01 930.992 411.325 Q929.001 408.617 925.599 408.617 M925.599 405.006 Q931.154 405.006 934.325 408.617 Q937.497 412.228 937.497 418.617 Q937.497 424.982 934.325 428.617 Q931.154 432.228 925.599 432.228 Q920.02 432.228 916.849 428.617 Q913.701 424.982 913.701 418.617 Q913.701 412.228 916.849 408.617 Q920.02 405.006 925.599 405.006 Z" fill="#000000" fill-rule="nonzero" fill-opacity="1" /><path clip-path="url(#clip170)" d="M948.677 427.667 L948.677 441.417 L944.395 441.417 L944.395 405.631 L948.677 405.631 L948.677 409.566 Q950.02 407.251 952.057 406.14 Q954.117 405.006 956.964 405.006 Q961.686 405.006 964.626 408.756 Q967.589 412.506 967.589 418.617 Q967.589 424.728 964.626 428.478 Q961.686 432.228 956.964 432.228 Q954.117 432.228 952.057 431.117 Q950.02 429.982 948.677 427.667 M963.168 418.617 Q963.168 413.918 961.223 411.256 Q959.302 408.57 955.923 408.57 Q952.543 408.57 950.599 411.256 Q948.677 413.918 948.677 418.617 Q948.677 423.316 950.599 426.001 Q952.543 428.663 955.923 428.663 Q959.302 428.663 961.223 426.001 Q963.168 423.316 963.168 418.617 Z" fill="#000000" fill-rule="nonzero" fill-opacity="1" /><path clip-path="url(#clip170)" d="M978.862 398.27 L978.862 405.631 L987.635 405.631 L987.635 408.941 L978.862 408.941 L978.862 423.015 Q978.862 426.186 979.719 427.089 Q980.598 427.992 983.26 427.992 L987.635 427.992 L987.635 431.556 L983.26 431.556 Q978.33 431.556 976.455 429.728 Q974.58 427.876 974.58 423.015 L974.58 408.941 L971.455 408.941 L971.455 405.631 L974.58 405.631 L974.58 398.27 L978.862 398.27 Z" fill="#000000" fill-rule="nonzero" fill-opacity="1" /><path clip-path="url(#clip170)" d="M992.566 395.584 L996.27 395.584 Q999.742 401.047 1001.45 406.279 Q1003.19 411.51 1003.19 416.672 Q1003.19 421.857 1001.45 427.112 Q999.742 432.367 996.27 437.806 L992.566 437.806 Q995.645 432.505 997.149 427.274 Q998.677 422.019 998.677 416.672 Q998.677 411.325 997.149 406.117 Q995.645 400.908 992.566 395.584 Z" fill="#000000" fill-rule="nonzero" fill-opacity="1" /><path clip-path="url(#clip170)" d="M520.3 440.516 L520.3 491.716 L571.5 491.716 L571.5 440.516 L520.3 440.516 Z" fill="#ff6347" fill-rule="evenodd" fill-opacity="1" stroke="none"/>
<path clip-path="url(#clip170)" d="M701.433 447.424 Q698.331 452.748 696.827 457.957 Q695.322 463.165 695.322 468.512 Q695.322 473.859 696.827 479.114 Q698.355 484.345 701.433 489.646 L697.73 489.646 Q694.257 484.207 692.521 478.952 Q690.808 473.697 690.808 468.512 Q690.808 463.35 692.521 458.119 Q694.234 452.887 697.73 447.424 L701.433 447.424 Z" fill="#000000" fill-rule="nonzero" fill-opacity="1" /><path clip-path="url(#clip170)" d="M731.873 469.369 L731.873 471.452 L712.29 471.452 Q712.567 475.85 714.928 478.165 Q717.313 480.457 721.549 480.457 Q724.003 480.457 726.294 479.855 Q728.609 479.253 730.877 478.049 L730.877 482.077 Q728.586 483.049 726.178 483.558 Q723.771 484.068 721.294 484.068 Q715.091 484.068 711.456 480.457 Q707.845 476.845 707.845 470.688 Q707.845 464.322 711.271 460.596 Q714.72 456.846 720.553 456.846 Q725.785 456.846 728.817 460.225 Q731.873 463.582 731.873 469.369 M727.614 468.119 Q727.567 464.623 725.646 462.54 Q723.748 460.457 720.6 460.457 Q717.035 460.457 714.882 462.471 Q712.753 464.484 712.429 468.142 L727.614 468.119 Z" fill="#000000" fill-rule="nonzero" fill-opacity="1" /><path clip-path="url(#clip170)" d="M759.581 457.471 L750.206 470.086 L760.067 483.396 L755.044 483.396 L747.498 473.211 L739.952 483.396 L734.928 483.396 L744.998 469.832 L735.785 457.471 L740.808 457.471 L747.683 466.707 L754.558 457.471 L759.581 457.471 Z" fill="#000000" fill-rule="nonzero" fill-opacity="1" /><path clip-path="url(#clip170)" d="M777.868 470.364 Q772.706 470.364 770.715 471.545 Q768.725 472.725 768.725 475.572 Q768.725 477.841 770.206 479.183 Q771.711 480.503 774.28 480.503 Q777.822 480.503 779.951 478.003 Q782.104 475.48 782.104 471.313 L782.104 470.364 L777.868 470.364 M786.363 468.605 L786.363 483.396 L782.104 483.396 L782.104 479.461 Q780.646 481.822 778.47 482.957 Q776.294 484.068 773.146 484.068 Q769.164 484.068 766.803 481.845 Q764.465 479.6 764.465 475.85 Q764.465 471.475 767.382 469.253 Q770.322 467.031 776.132 467.031 L782.104 467.031 L782.104 466.614 Q782.104 463.674 780.16 462.077 Q778.238 460.457 774.743 460.457 Q772.521 460.457 770.414 460.989 Q768.308 461.521 766.363 462.586 L766.363 458.651 Q768.701 457.748 770.9 457.309 Q773.099 456.846 775.183 456.846 Q780.808 456.846 783.586 459.762 Q786.363 462.679 786.363 468.605 Z" fill="#000000" fill-rule="nonzero" fill-opacity="1" /><path clip-path="url(#clip170)" d="M796.224 477.517 L801.109 477.517 L801.109 481.498 L797.312 488.906 L794.326 488.906 L796.224 481.498 L796.224 477.517 Z" fill="#000000" fill-rule="nonzero" fill-opacity="1" /><path clip-path="url(#clip170)" d="M825.275 457.471 L829.534 457.471 L829.534 483.396 L825.275 483.396 L825.275 457.471 M825.275 447.378 L829.534 447.378 L829.534 452.772 L825.275 452.772 L825.275 447.378 Z" fill="#000000" fill-rule="nonzero" fill-opacity="1" /><path clip-path="url(#clip170)" d="M842.567 479.507 L842.567 493.257 L838.284 493.257 L838.284 457.471 L842.567 457.471 L842.567 461.406 Q843.909 459.091 845.946 457.98 Q848.006 456.846 850.854 456.846 Q855.576 456.846 858.516 460.596 Q861.479 464.346 861.479 470.457 Q861.479 476.568 858.516 480.318 Q855.576 484.068 850.854 484.068 Q848.006 484.068 845.946 482.957 Q843.909 481.822 842.567 479.507 M857.057 470.457 Q857.057 465.758 855.113 463.096 Q853.192 460.41 849.812 460.41 Q846.432 460.41 844.488 463.096 Q842.567 465.758 842.567 470.457 Q842.567 475.156 844.488 477.841 Q846.432 480.503 849.812 480.503 Q853.192 480.503 855.113 477.841 Q857.057 475.156 857.057 470.457 Z" fill="#000000" fill-rule="nonzero" fill-opacity="1" /><path clip-path="url(#clip170)" d="M878.585 460.457 Q875.159 460.457 873.168 463.142 Q871.178 465.804 871.178 470.457 Q871.178 475.109 873.145 477.795 Q875.136 480.457 878.585 480.457 Q881.988 480.457 883.979 477.771 Q885.969 475.086 885.969 470.457 Q885.969 465.85 883.979 463.165 Q881.988 460.457 878.585 460.457 M878.585 456.846 Q884.141 456.846 887.312 460.457 Q890.483 464.068 890.483 470.457 Q890.483 476.822 887.312 480.457 Q884.141 484.068 878.585 484.068 Q873.006 484.068 869.835 480.457 Q866.687 476.822 866.687 470.457 Q866.687 464.068 869.835 460.457 Q873.006 456.846 878.585 456.846 Z" fill="#000000" fill-rule="nonzero" fill-opacity="1" /><path clip-path="url(#clip170)" d="M901.664 479.507 L901.664 493.257 L897.381 493.257 L897.381 457.471 L901.664 457.471 L901.664 461.406 Q903.006 459.091 905.043 457.98 Q907.103 456.846 909.951 456.846 Q914.673 456.846 917.613 460.596 Q920.576 464.346 920.576 470.457 Q920.576 476.568 917.613 480.318 Q914.673 484.068 909.951 484.068 Q907.103 484.068 905.043 482.957 Q903.006 481.822 901.664 479.507 M916.154 470.457 Q916.154 465.758 914.21 463.096 Q912.289 460.41 908.909 460.41 Q905.529 460.41 903.585 463.096 Q901.664 465.758 901.664 470.457 Q901.664 475.156 903.585 477.841 Q905.529 480.503 908.909 480.503 Q912.289 480.503 914.21 477.841 Q916.154 475.156 916.154 470.457 Z" fill="#000000" fill-rule="nonzero" fill-opacity="1" /><path clip-path="url(#clip170)" d="M931.849 450.11 L931.849 457.471 L940.622 457.471 L940.622 460.781 L931.849 460.781 L931.849 474.855 Q931.849 478.026 932.705 478.929 Q933.585 479.832 936.247 479.832 L940.622 479.832 L940.622 483.396 L936.247 483.396 Q931.316 483.396 929.441 481.568 Q927.566 479.716 927.566 474.855 L927.566 460.781 L924.441 460.781 L924.441 457.471 L927.566 457.471 L927.566 450.11 L931.849 450.11 Z" fill="#000000" fill-rule="nonzero" fill-opacity="1" /><path clip-path="url(#clip170)" d="M945.552 447.424 L949.256 447.424 Q952.728 452.887 954.441 458.119 Q956.177 463.35 956.177 468.512 Q956.177 473.697 954.441 478.952 Q952.728 484.207 949.256 489.646 L945.552 489.646 Q948.631 484.345 950.136 479.114 Q951.663 473.859 951.663 468.512 Q951.663 463.165 950.136 457.957 Q948.631 452.748 945.552 447.424 Z" fill="#000000" fill-rule="nonzero" fill-opacity="1" /><path clip-path="url(#clip170)" d="M545.9 492.356 L539.884 509.662 L521.554 510.046 L536.172 521.131 L530.847 538.667 L545.9 528.196 L560.952 538.667 L555.628 521.131 L570.245 510.046 L551.916 509.662 L545.9 492.356 Z" fill="#a0522d" fill-rule="evenodd" fill-opacity="1" stroke="none"/>
<path clip-path="url(#clip170)" d="M701.433 499.264 Q698.331 504.588 696.827 509.797 Q695.322 515.005 695.322 520.352 Q695.322 525.699 696.827 530.954 Q698.355 536.185 701.433 541.486 L697.73 541.486 Q694.257 536.047 692.521 530.792 Q690.808 525.537 690.808 520.352 Q690.808 515.19 692.521 509.959 Q694.234 504.727 697.73 499.264 L701.433 499.264 Z" fill="#000000" fill-rule="nonzero" fill-opacity="1" /><path clip-path="url(#clip170)" d="M709.697 509.311 L713.956 509.311 L713.956 535.699 Q713.956 540.653 712.058 542.875 Q710.183 545.097 705.993 545.097 L704.373 545.097 L704.373 541.486 L705.507 541.486 Q707.938 541.486 708.817 540.352 Q709.697 539.241 709.697 535.699 L709.697 509.311 M709.697 499.218 L713.956 499.218 L713.956 504.612 L709.697 504.612 L709.697 499.218 Z" fill="#000000" fill-rule="nonzero" fill-opacity="1" /><path clip-path="url(#clip170)" d="M722.428 525.005 L722.428 509.311 L726.688 509.311 L726.688 524.843 Q726.688 528.523 728.123 530.375 Q729.558 532.204 732.428 532.204 Q735.877 532.204 737.868 530.005 Q739.882 527.806 739.882 524.01 L739.882 509.311 L744.141 509.311 L744.141 535.236 L739.882 535.236 L739.882 531.255 Q738.331 533.616 736.271 534.773 Q734.234 535.908 731.526 535.908 Q727.058 535.908 724.743 533.13 Q722.428 530.352 722.428 525.005 M733.146 508.686 L733.146 508.686 Z" fill="#000000" fill-rule="nonzero" fill-opacity="1" /><path clip-path="url(#clip170)" d="M773.099 514.287 Q774.697 511.417 776.919 510.051 Q779.141 508.686 782.15 508.686 Q786.201 508.686 788.4 511.533 Q790.599 514.357 790.599 519.588 L790.599 535.236 L786.317 535.236 L786.317 519.727 Q786.317 516 784.998 514.195 Q783.678 512.389 780.97 512.389 Q777.66 512.389 775.738 514.588 Q773.817 516.787 773.817 520.584 L773.817 535.236 L769.535 535.236 L769.535 519.727 Q769.535 515.977 768.215 514.195 Q766.896 512.389 764.141 512.389 Q760.877 512.389 758.956 514.611 Q757.035 516.811 757.035 520.584 L757.035 535.236 L752.752 535.236 L752.752 509.311 L757.035 509.311 L757.035 513.338 Q758.493 510.954 760.53 509.82 Q762.567 508.686 765.368 508.686 Q768.192 508.686 770.16 510.121 Q772.15 511.556 773.099 514.287 Z" fill="#000000" fill-rule="nonzero" fill-opacity="1" /><path clip-path="url(#clip170)" d="M803.215 531.347 L803.215 545.097 L798.933 545.097 L798.933 509.311 L803.215 509.311 L803.215 513.246 Q804.558 510.931 806.595 509.82 Q808.655 508.686 811.502 508.686 Q816.224 508.686 819.164 512.436 Q822.127 516.186 822.127 522.297 Q822.127 528.408 819.164 532.158 Q816.224 535.908 811.502 535.908 Q808.655 535.908 806.595 534.797 Q804.558 533.662 803.215 531.347 M817.706 522.297 Q817.706 517.598 815.761 514.936 Q813.84 512.25 810.46 512.25 Q807.081 512.25 805.136 514.936 Q803.215 517.598 803.215 522.297 Q803.215 526.996 805.136 529.681 Q807.081 532.343 810.46 532.343 Q813.84 532.343 815.761 529.681 Q817.706 526.996 817.706 522.297 Z" fill="#000000" fill-rule="nonzero" fill-opacity="1" /><path clip-path="url(#clip170)" d="M830.275 529.357 L835.159 529.357 L835.159 533.338 L831.363 540.746 L828.377 540.746 L830.275 533.338 L830.275 529.357 Z" fill="#000000" fill-rule="nonzero" fill-opacity="1" /><path clip-path="url(#clip170)" d="M879.511 514.287 Q881.108 511.417 883.33 510.051 Q885.553 508.686 888.562 508.686 Q892.613 508.686 894.812 511.533 Q897.011 514.357 897.011 519.588 L897.011 535.236 L892.728 535.236 L892.728 519.727 Q892.728 516 891.409 514.195 Q890.09 512.389 887.381 512.389 Q884.071 512.389 882.15 514.588 Q880.229 516.787 880.229 520.584 L880.229 535.236 L875.946 535.236 L875.946 519.727 Q875.946 515.977 874.627 514.195 Q873.307 512.389 870.553 512.389 Q867.289 512.389 865.368 514.611 Q863.446 516.811 863.446 520.584 L863.446 535.236 L859.164 535.236 L859.164 509.311 L863.446 509.311 L863.446 513.338 Q864.905 510.954 866.942 509.82 Q868.979 508.686 871.78 508.686 Q874.604 508.686 876.571 510.121 Q878.562 511.556 879.511 514.287 Z" fill="#000000" fill-rule="nonzero" fill-opacity="1" /><path clip-path="url(#clip170)" d="M917.289 522.204 Q912.127 522.204 910.136 523.385 Q908.145 524.565 908.145 527.412 Q908.145 529.681 909.627 531.023 Q911.131 532.343 913.701 532.343 Q917.242 532.343 919.372 529.843 Q921.525 527.32 921.525 523.153 L921.525 522.204 L917.289 522.204 M925.784 520.445 L925.784 535.236 L921.525 535.236 L921.525 531.301 Q920.066 533.662 917.89 534.797 Q915.714 535.908 912.566 535.908 Q908.585 535.908 906.224 533.685 Q903.886 531.44 903.886 527.69 Q903.886 523.315 906.802 521.093 Q909.742 518.871 915.552 518.871 L921.525 518.871 L921.525 518.454 Q921.525 515.514 919.58 513.917 Q917.659 512.297 914.164 512.297 Q911.941 512.297 909.835 512.829 Q907.728 513.361 905.784 514.426 L905.784 510.491 Q908.122 509.588 910.321 509.149 Q912.52 508.686 914.603 508.686 Q920.228 508.686 923.006 511.602 Q925.784 514.519 925.784 520.445 Z" fill="#000000" fill-rule="nonzero" fill-opacity="1" /><path clip-path="url(#clip170)" d="M951.617 513.246 L951.617 499.218 L955.876 499.218 L955.876 535.236 L951.617 535.236 L951.617 531.347 Q950.274 533.662 948.214 534.797 Q946.177 535.908 943.307 535.908 Q938.608 535.908 935.645 532.158 Q932.705 528.408 932.705 522.297 Q932.705 516.186 935.645 512.436 Q938.608 508.686 943.307 508.686 Q946.177 508.686 948.214 509.82 Q950.274 510.931 951.617 513.246 M937.103 522.297 Q937.103 526.996 939.025 529.681 Q940.969 532.343 944.349 532.343 Q947.728 532.343 949.673 529.681 Q951.617 526.996 951.617 522.297 Q951.617 517.598 949.673 514.936 Q947.728 512.25 944.349 512.25 Q940.969 512.25 939.025 514.936 Q937.103 517.598 937.103 522.297 Z" fill="#000000" fill-rule="nonzero" fill-opacity="1" /><path clip-path="url(#clip170)" d="M986.2 519.588 L986.2 535.236 L981.941 535.236 L981.941 519.727 Q981.941 516.047 980.506 514.218 Q979.071 512.389 976.2 512.389 Q972.751 512.389 970.76 514.588 Q968.77 516.787 968.77 520.584 L968.77 535.236 L964.487 535.236 L964.487 509.311 L968.77 509.311 L968.77 513.338 Q970.297 511 972.358 509.843 Q974.441 508.686 977.149 508.686 Q981.617 508.686 983.909 511.463 Q986.2 514.218 986.2 519.588 Z" fill="#000000" fill-rule="nonzero" fill-opacity="1" /><path clip-path="url(#clip170)" d="M994.696 499.218 L998.955 499.218 L998.955 535.236 L994.696 535.236 L994.696 499.218 Z" fill="#000000" fill-rule="nonzero" fill-opacity="1" /><path clip-path="url(#clip170)" d="M1011.99 531.347 L1011.99 545.097 L1007.7 545.097 L1007.7 509.311 L1011.99 509.311 L1011.99 513.246 Q1013.33 510.931 1015.37 509.82 Q1017.43 508.686 1020.27 508.686 Q1025 508.686 1027.94 512.436 Q1030.9 516.186 1030.9 522.297 Q1030.9 528.408 1027.94 532.158 Q1025 535.908 1020.27 535.908 Q1017.43 535.908 1015.37 534.797 Q1013.33 533.662 1011.99 531.347 M1026.48 522.297 Q1026.48 517.598 1024.53 514.936 Q1022.61 512.25 1019.23 512.25 Q1015.85 512.25 1013.91 514.936 Q1011.99 517.598 1011.99 522.297 Q1011.99 526.996 1013.91 529.681 Q1015.85 532.343 1019.23 532.343 Q1022.61 532.343 1024.53 529.681 Q1026.48 526.996 1026.48 522.297 Z" fill="#000000" fill-rule="nonzero" fill-opacity="1" /><path clip-path="url(#clip170)" d="M1037.29 499.264 L1040.99 499.264 Q1044.46 504.727 1046.18 509.959 Q1047.91 515.19 1047.91 520.352 Q1047.91 525.537 1046.18 530.792 Q1044.46 536.047 1040.99 541.486 L1037.29 541.486 Q1040.37 536.185 1041.87 530.954 Q1043.4 525.699 1043.4 520.352 Q1043.4 515.005 1041.87 509.797 Q1040.37 504.588 1037.29 499.264 Z" fill="#000000" fill-rule="nonzero" fill-opacity="1" /><path clip-path="url(#clip170)" d="M545.9 544.196 L520.3 569.796 L545.9 595.396 L571.5 569.796 L545.9 544.196 Z" fill="#2e8b57" fill-rule="evenodd" fill-opacity="1" stroke="none"/>
<path clip-path="url(#clip170)" d="M701.433 551.104 Q698.331 556.428 696.827 561.637 Q695.322 566.845 695.322 572.192 Q695.322 577.539 696.827 582.794 Q698.355 588.025 701.433 593.326 L697.73 593.326 Q694.257 587.887 692.521 582.632 Q690.808 577.377 690.808 572.192 Q690.808 567.03 692.521 561.799 Q694.234 556.567 697.73 551.104 L701.433 551.104 Z" fill="#000000" fill-rule="nonzero" fill-opacity="1" /><path clip-path="url(#clip170)" d="M721.479 574.044 Q716.317 574.044 714.327 575.225 Q712.336 576.405 712.336 579.252 Q712.336 581.521 713.817 582.863 Q715.322 584.183 717.891 584.183 Q721.433 584.183 723.563 581.683 Q725.715 579.16 725.715 574.993 L725.715 574.044 L721.479 574.044 M729.975 572.285 L729.975 587.076 L725.715 587.076 L725.715 583.141 Q724.257 585.502 722.081 586.637 Q719.905 587.748 716.757 587.748 Q712.776 587.748 710.415 585.525 Q708.077 583.28 708.077 579.53 Q708.077 575.155 710.993 572.933 Q713.933 570.711 719.743 570.711 L725.715 570.711 L725.715 570.294 Q725.715 567.354 723.771 565.757 Q721.85 564.137 718.354 564.137 Q716.132 564.137 714.026 564.669 Q711.919 565.201 709.975 566.266 L709.975 562.331 Q712.313 561.428 714.512 560.989 Q716.711 560.526 718.794 560.526 Q724.419 560.526 727.197 563.442 Q729.975 566.359 729.975 572.285 Z" fill="#000000" fill-rule="nonzero" fill-opacity="1" /><path clip-path="url(#clip170)" d="M755.808 565.086 L755.808 551.058 L760.067 551.058 L760.067 587.076 L755.808 587.076 L755.808 583.187 Q754.465 585.502 752.405 586.637 Q750.368 587.748 747.498 587.748 Q742.799 587.748 739.836 583.998 Q736.896 580.248 736.896 574.137 Q736.896 568.026 739.836 564.276 Q742.799 560.526 747.498 560.526 Q750.368 560.526 752.405 561.66 Q754.465 562.771 755.808 565.086 M741.294 574.137 Q741.294 578.836 743.215 581.521 Q745.16 584.183 748.539 584.183 Q751.919 584.183 753.863 581.521 Q755.808 578.836 755.808 574.137 Q755.808 569.438 753.863 566.776 Q751.919 564.09 748.539 564.09 Q745.16 564.09 743.215 566.776 Q741.294 569.438 741.294 574.137 Z" fill="#000000" fill-rule="nonzero" fill-opacity="1" /><path clip-path="url(#clip170)" d="M790.391 571.428 L790.391 587.076 L786.132 587.076 L786.132 571.567 Q786.132 567.887 784.697 566.058 Q783.261 564.229 780.391 564.229 Q776.942 564.229 774.951 566.428 Q772.961 568.627 772.961 572.424 L772.961 587.076 L768.678 587.076 L768.678 561.151 L772.961 561.151 L772.961 565.178 Q774.488 562.84 776.549 561.683 Q778.632 560.526 781.34 560.526 Q785.808 560.526 788.099 563.303 Q790.391 566.058 790.391 571.428 Z" fill="#000000" fill-rule="nonzero" fill-opacity="1" /><path clip-path="url(#clip170)" d="M798.886 551.058 L803.146 551.058 L803.146 587.076 L798.886 587.076 L798.886 551.058 Z" fill="#000000" fill-rule="nonzero" fill-opacity="1" /><path clip-path="url(#clip170)" d="M816.178 583.187 L816.178 596.937 L811.896 596.937 L811.896 561.151 L816.178 561.151 L816.178 565.086 Q817.521 562.771 819.558 561.66 Q821.618 560.526 824.465 560.526 Q829.187 560.526 832.127 564.276 Q835.09 568.026 835.09 574.137 Q835.09 580.248 832.127 583.998 Q829.187 587.748 824.465 587.748 Q821.618 587.748 819.558 586.637 Q817.521 585.502 816.178 583.187 M830.669 574.137 Q830.669 569.438 828.724 566.776 Q826.803 564.09 823.423 564.09 Q820.044 564.09 818.099 566.776 Q816.178 569.438 816.178 574.137 Q816.178 578.836 818.099 581.521 Q820.044 584.183 823.423 584.183 Q826.803 584.183 828.724 581.521 Q830.669 578.836 830.669 574.137 Z" fill="#000000" fill-rule="nonzero" fill-opacity="1" /><path clip-path="url(#clip170)" d="M843.238 581.197 L848.122 581.197 L848.122 585.178 L844.326 592.586 L841.34 592.586 L843.238 585.178 L843.238 581.197 Z" fill="#000000" fill-rule="nonzero" fill-opacity="1" /><path clip-path="url(#clip170)" d="M892.474 566.127 Q894.071 563.257 896.293 561.891 Q898.515 560.526 901.525 560.526 Q905.576 560.526 907.775 563.373 Q909.974 566.197 909.974 571.428 L909.974 587.076 L905.691 587.076 L905.691 571.567 Q905.691 567.84 904.372 566.035 Q903.052 564.229 900.344 564.229 Q897.034 564.229 895.113 566.428 Q893.191 568.627 893.191 572.424 L893.191 587.076 L888.909 587.076 L888.909 571.567 Q888.909 567.817 887.59 566.035 Q886.27 564.229 883.516 564.229 Q880.252 564.229 878.33 566.451 Q876.409 568.651 876.409 572.424 L876.409 587.076 L872.127 587.076 L872.127 561.151 L876.409 561.151 L876.409 565.178 Q877.867 562.794 879.904 561.66 Q881.941 560.526 884.742 560.526 Q887.566 560.526 889.534 561.961 Q891.525 563.396 892.474 566.127 Z" fill="#000000" fill-rule="nonzero" fill-opacity="1" /><path clip-path="url(#clip170)" d="M930.251 574.044 Q925.089 574.044 923.099 575.225 Q921.108 576.405 921.108 579.252 Q921.108 581.521 922.589 582.863 Q924.094 584.183 926.663 584.183 Q930.205 584.183 932.335 581.683 Q934.488 579.16 934.488 574.993 L934.488 574.044 L930.251 574.044 M938.747 572.285 L938.747 587.076 L934.488 587.076 L934.488 583.141 Q933.029 585.502 930.853 586.637 Q928.677 587.748 925.529 587.748 Q921.548 587.748 919.187 585.525 Q916.849 583.28 916.849 579.53 Q916.849 575.155 919.765 572.933 Q922.705 570.711 928.515 570.711 L934.488 570.711 L934.488 570.294 Q934.488 567.354 932.543 565.757 Q930.622 564.137 927.126 564.137 Q924.904 564.137 922.798 564.669 Q920.691 565.201 918.747 566.266 L918.747 562.331 Q921.085 561.428 923.284 560.989 Q925.483 560.526 927.566 560.526 Q933.191 560.526 935.969 563.442 Q938.747 566.359 938.747 572.285 Z" fill="#000000" fill-rule="nonzero" fill-opacity="1" /><path clip-path="url(#clip170)" d="M964.58 565.086 L964.58 551.058 L968.839 551.058 L968.839 587.076 L964.58 587.076 L964.58 583.187 Q963.237 585.502 961.177 586.637 Q959.14 587.748 956.27 587.748 Q951.571 587.748 948.608 583.998 Q945.668 580.248 945.668 574.137 Q945.668 568.026 948.608 564.276 Q951.571 560.526 956.27 560.526 Q959.14 560.526 961.177 561.66 Q963.237 562.771 964.58 565.086 M950.066 574.137 Q950.066 578.836 951.987 581.521 Q953.932 584.183 957.311 584.183 Q960.691 584.183 962.636 581.521 Q964.58 578.836 964.58 574.137 Q964.58 569.438 962.636 566.776 Q960.691 564.09 957.311 564.09 Q953.932 564.09 951.987 566.776 Q950.066 569.438 950.066 574.137 Z" fill="#000000" fill-rule="nonzero" fill-opacity="1" /><path clip-path="url(#clip170)" d="M999.163 571.428 L999.163 587.076 L994.904 587.076 L994.904 571.567 Q994.904 567.887 993.469 566.058 Q992.033 564.229 989.163 564.229 Q985.714 564.229 983.723 566.428 Q981.733 568.627 981.733 572.424 L981.733 587.076 L977.45 587.076 L977.45 561.151 L981.733 561.151 L981.733 565.178 Q983.26 562.84 985.321 561.683 Q987.404 560.526 990.112 560.526 Q994.58 560.526 996.871 563.303 Q999.163 566.058 999.163 571.428 Z" fill="#000000" fill-rule="nonzero" fill-opacity="1" /><path clip-path="url(#clip170)" d="M1007.66 551.058 L1011.92 551.058 L1011.92 587.076 L1007.66 587.076 L1007.66 551.058 Z" fill="#000000" fill-rule="nonzero" fill-opacity="1" /><path clip-path="url(#clip170)" d="M1024.95 583.187 L1024.95 596.937 L1020.67 596.937 L1020.67 561.151 L1024.95 561.151 L1024.95 565.086 Q1026.29 562.771 1028.33 561.66 Q1030.39 560.526 1033.24 560.526 Q1037.96 560.526 1040.9 564.276 Q1043.86 568.026 1043.86 574.137 Q1043.86 580.248 1040.9 583.998 Q1037.96 587.748 1033.24 587.748 Q1030.39 587.748 1028.33 586.637 Q1026.29 585.502 1024.95 583.187 M1039.44 574.137 Q1039.44 569.438 1037.5 566.776 Q1035.57 564.09 1032.2 564.09 Q1028.82 564.09 1026.87 566.776 Q1024.95 569.438 1024.95 574.137 Q1024.95 578.836 1026.87 581.521 Q1028.82 584.183 1032.2 584.183 Q1035.57 584.183 1037.5 581.521 Q1039.44 578.836 1039.44 574.137 Z" fill="#000000" fill-rule="nonzero" fill-opacity="1" /><path clip-path="url(#clip170)" d="M1050.25 551.104 L1053.95 551.104 Q1057.43 556.567 1059.14 561.799 Q1060.88 567.03 1060.88 572.192 Q1060.88 577.377 1059.14 582.632 Q1057.43 587.887 1053.95 593.326 L1050.25 593.326 Q1053.33 588.025 1054.83 582.794 Q1056.36 577.539 1056.36 572.192 Q1056.36 566.845 1054.83 561.637 Q1053.33 556.428 1050.25 551.104 Z" fill="#000000" fill-rule="nonzero" fill-opacity="1" /><path clip-path="url(#clip170)" d="M545.9 596.036 L520.3 647.236 L571.5 647.236 L545.9 596.036 Z" fill="#ff8c00" fill-rule="evenodd" fill-opacity="1" stroke="none"/>
<path clip-path="url(#clip170)" d="M701.433 602.944 Q698.331 608.268 696.827 613.477 Q695.322 618.685 695.322 624.032 Q695.322 629.379 696.827 634.634 Q698.355 639.865 701.433 645.166 L697.73 645.166 Q694.257 639.727 692.521 634.472 Q690.808 629.217 690.808 624.032 Q690.808 618.87 692.521 613.639 Q694.234 608.407 697.73 602.944 L701.433 602.944 Z" fill="#000000" fill-rule="nonzero" fill-opacity="1" /><path clip-path="url(#clip170)" d="M731.873 624.889 L731.873 626.972 L712.29 626.972 Q712.567 631.37 714.928 633.685 Q717.313 635.977 721.549 635.977 Q724.003 635.977 726.294 635.375 Q728.609 634.773 730.877 633.569 L730.877 637.597 Q728.586 638.569 726.178 639.078 Q723.771 639.588 721.294 639.588 Q715.091 639.588 711.456 635.977 Q707.845 632.365 707.845 626.208 Q707.845 619.842 711.271 616.116 Q714.72 612.366 720.553 612.366 Q725.785 612.366 728.817 615.745 Q731.873 619.102 731.873 624.889 M727.614 623.639 Q727.567 620.143 725.646 618.06 Q723.748 615.977 720.6 615.977 Q717.035 615.977 714.882 617.991 Q712.753 620.004 712.429 623.662 L727.614 623.639 Z" fill="#000000" fill-rule="nonzero" fill-opacity="1" /><path clip-path="url(#clip170)" d="M759.581 612.991 L750.206 625.606 L760.067 638.916 L755.044 638.916 L747.498 628.731 L739.952 638.916 L734.928 638.916 L744.998 625.352 L735.785 612.991 L740.808 612.991 L747.683 622.227 L754.558 612.991 L759.581 612.991 Z" fill="#000000" fill-rule="nonzero" fill-opacity="1" /><path clip-path="url(#clip170)" d="M777.868 625.884 Q772.706 625.884 770.715 627.065 Q768.725 628.245 768.725 631.092 Q768.725 633.361 770.206 634.703 Q771.711 636.023 774.28 636.023 Q777.822 636.023 779.951 633.523 Q782.104 631 782.104 626.833 L782.104 625.884 L777.868 625.884 M786.363 624.125 L786.363 638.916 L782.104 638.916 L782.104 634.981 Q780.646 637.342 778.47 638.477 Q776.294 639.588 773.146 639.588 Q769.164 639.588 766.803 637.365 Q764.465 635.12 764.465 631.37 Q764.465 626.995 767.382 624.773 Q770.322 622.551 776.132 622.551 L782.104 622.551 L782.104 622.134 Q782.104 619.194 780.16 617.597 Q778.238 615.977 774.743 615.977 Q772.521 615.977 770.414 616.509 Q768.308 617.041 766.363 618.106 L766.363 614.171 Q768.701 613.268 770.9 612.829 Q773.099 612.366 775.183 612.366 Q780.808 612.366 783.586 615.282 Q786.363 618.199 786.363 624.125 Z" fill="#000000" fill-rule="nonzero" fill-opacity="1" /><path clip-path="url(#clip170)" d="M796.224 633.037 L801.109 633.037 L801.109 637.018 L797.312 644.426 L794.326 644.426 L796.224 637.018 L796.224 633.037 Z" fill="#000000" fill-rule="nonzero" fill-opacity="1" /><path clip-path="url(#clip170)" d="M845.46 617.967 Q847.057 615.097 849.28 613.731 Q851.502 612.366 854.511 612.366 Q858.562 612.366 860.761 615.213 Q862.96 618.037 862.96 623.268 L862.96 638.916 L858.678 638.916 L858.678 623.407 Q858.678 619.68 857.358 617.875 Q856.039 616.069 853.331 616.069 Q850.02 616.069 848.099 618.268 Q846.178 620.467 846.178 624.264 L846.178 638.916 L841.895 638.916 L841.895 623.407 Q841.895 619.657 840.576 617.875 Q839.257 616.069 836.502 616.069 Q833.238 616.069 831.317 618.291 Q829.395 620.491 829.395 624.264 L829.395 638.916 L825.113 638.916 L825.113 612.991 L829.395 612.991 L829.395 617.018 Q830.854 614.634 832.891 613.5 Q834.928 612.366 837.729 612.366 Q840.553 612.366 842.52 613.801 Q844.511 615.236 845.46 617.967 Z" fill="#000000" fill-rule="nonzero" fill-opacity="1" /><path clip-path="url(#clip170)" d="M883.238 625.884 Q878.076 625.884 876.085 627.065 Q874.094 628.245 874.094 631.092 Q874.094 633.361 875.576 634.703 Q877.08 636.023 879.65 636.023 Q883.191 636.023 885.321 633.523 Q887.474 631 887.474 626.833 L887.474 625.884 L883.238 625.884 M891.733 624.125 L891.733 638.916 L887.474 638.916 L887.474 634.981 Q886.016 637.342 883.84 638.477 Q881.664 639.588 878.516 639.588 Q874.534 639.588 872.173 637.365 Q869.835 635.12 869.835 631.37 Q869.835 626.995 872.752 624.773 Q875.692 622.551 881.502 622.551 L887.474 622.551 L887.474 622.134 Q887.474 619.194 885.529 617.597 Q883.608 615.977 880.113 615.977 Q877.891 615.977 875.784 616.509 Q873.678 617.041 871.733 618.106 L871.733 614.171 Q874.071 613.268 876.27 612.829 Q878.469 612.366 880.553 612.366 Q886.178 612.366 888.955 615.282 Q891.733 618.199 891.733 624.125 Z" fill="#000000" fill-rule="nonzero" fill-opacity="1" /><path clip-path="url(#clip170)" d="M917.566 616.926 L917.566 602.898 L921.826 602.898 L921.826 638.916 L917.566 638.916 L917.566 635.027 Q916.224 637.342 914.164 638.477 Q912.127 639.588 909.256 639.588 Q904.557 639.588 901.594 635.838 Q898.654 632.088 898.654 625.977 Q898.654 619.866 901.594 616.116 Q904.557 612.366 909.256 612.366 Q912.127 612.366 914.164 613.5 Q916.224 614.611 917.566 616.926 M903.052 625.977 Q903.052 630.676 904.974 633.361 Q906.918 636.023 910.298 636.023 Q913.677 636.023 915.622 633.361 Q917.566 630.676 917.566 625.977 Q917.566 621.278 915.622 618.616 Q913.677 615.93 910.298 615.93 Q906.918 615.93 904.974 618.616 Q903.052 621.278 903.052 625.977 Z" fill="#000000" fill-rule="nonzero" fill-opacity="1" /><path clip-path="url(#clip170)" d="M952.149 623.268 L952.149 638.916 L947.89 638.916 L947.89 623.407 Q947.89 619.727 946.455 617.898 Q945.02 616.069 942.15 616.069 Q938.7 616.069 936.71 618.268 Q934.719 620.467 934.719 624.264 L934.719 638.916 L930.437 638.916 L930.437 612.991 L934.719 612.991 L934.719 617.018 Q936.247 614.68 938.307 613.523 Q940.39 612.366 943.099 612.366 Q947.566 612.366 949.858 615.143 Q952.149 617.898 952.149 623.268 Z" fill="#000000" fill-rule="nonzero" fill-opacity="1" /><path clip-path="url(#clip170)" d="M960.645 602.898 L964.904 602.898 L964.904 638.916 L960.645 638.916 L960.645 602.898 Z" fill="#000000" fill-rule="nonzero" fill-opacity="1" /><path clip-path="url(#clip170)" d="M977.936 635.027 L977.936 648.777 L973.654 648.777 L973.654 612.991 L977.936 612.991 L977.936 616.926 Q979.279 614.611 981.316 613.5 Q983.376 612.366 986.223 612.366 Q990.946 612.366 993.885 616.116 Q996.848 619.866 996.848 625.977 Q996.848 632.088 993.885 635.838 Q990.946 639.588 986.223 639.588 Q983.376 639.588 981.316 638.477 Q979.279 637.342 977.936 635.027 M992.427 625.977 Q992.427 621.278 990.483 618.616 Q988.561 615.93 985.182 615.93 Q981.802 615.93 979.858 618.616 Q977.936 621.278 977.936 625.977 Q977.936 630.676 979.858 633.361 Q981.802 636.023 985.182 636.023 Q988.561 636.023 990.483 633.361 Q992.427 630.676 992.427 625.977 Z" fill="#000000" fill-rule="nonzero" fill-opacity="1" /><path clip-path="url(#clip170)" d="M1003.24 602.944 L1006.94 602.944 Q1010.41 608.407 1012.13 613.639 Q1013.86 618.87 1013.86 624.032 Q1013.86 629.217 1012.13 634.472 Q1010.41 639.727 1006.94 645.166 L1003.24 645.166 Q1006.32 639.865 1007.82 634.634 Q1009.35 629.379 1009.35 624.032 Q1009.35 618.685 1007.82 613.477 Q1006.32 608.268 1003.24 602.944 Z" fill="#000000" fill-rule="nonzero" fill-opacity="1" /></svg>
