<?xml version="1.0" encoding="utf-8"?>
<svg xmlns="http://www.w3.org/2000/svg" xmlns:xlink="http://www.w3.org/1999/xlink" width="900" height="600" viewBox="0 0 3600 2400">
<defs>
  <clipPath id="clip340">
    <rect x="0" y="0" width="3600" height="2400"/>
  </clipPath>
</defs>
<path clip-path="url(#clip340)" d="M0 2400 L3600 2400 L3600 0 L0 0  Z" fill="#ffffff" fill-rule="evenodd" fill-opacity="1"/>
<defs>
  <clipPath id="clip341">
    <rect x="322" y="246" width="3232" height="1911"/>
  </clipPath>
</defs>
<path clip-path="url(#clip340)" d="M272.9 2156.51 L3552.76 2156.51 L3552.76 246.944 L272.9 246.944  Z" fill="#ffffff" fill-rule="evenodd" fill-opacity="1"/>
<defs>
  <clipPath id="clip342">
    <rect x="272" y="246" width="3281" height="1911"/>
  </clipPath>
</defs>
<polyline clip-path="url(#clip342)" style="stroke:#000000; stroke-linecap:round; stroke-linejoin:round; stroke-width:2; stroke-opacity:0.1; fill:none" points="546.988,2156.51 546.988,246.944 "/>
<polyline clip-path="url(#clip342)" style="stroke:#000000; stroke-linecap:round; stroke-linejoin:round; stroke-width:2; stroke-opacity:0.1; fill:none" points="1457.55,2156.51 1457.55,246.944 "/>
<polyline clip-path="url(#clip342)" style="stroke:#000000; stroke-linecap:round; stroke-linejoin:round; stroke-width:2; stroke-opacity:0.1; fill:none" points="2368.11,2156.51 2368.11,246.944 "/>
<polyline clip-path="url(#clip342)" style="stroke:#000000; stroke-linecap:round; stroke-linejoin:round; stroke-width:2; stroke-opacity:0.1; fill:none" points="3278.67,2156.51 3278.67,246.944 "/>
<polyline clip-path="url(#clip342)" style="stroke:#000000; stroke-linecap:round; stroke-linejoin:round; stroke-width:2; stroke-opacity:0.1; fill:none" points="272.9,2156.51 3552.76,2156.51 "/>
<polyline clip-path="url(#clip342)" style="stroke:#000000; stroke-linecap:round; stroke-linejoin:round; stroke-width:2; stroke-opacity:0.1; fill:none" points="272.9,1880.42 3552.76,1880.42 "/>
<polyline clip-path="url(#clip342)" style="stroke:#000000; stroke-linecap:round; stroke-linejoin:round; stroke-width:2; stroke-opacity:0.1; fill:none" points="272.9,1604.32 3552.76,1604.32 "/>
<polyline clip-path="url(#clip342)" style="stroke:#000000; stroke-linecap:round; stroke-linejoin:round; stroke-width:2; stroke-opacity:0.1; fill:none" points="272.9,1328.23 3552.76,1328.23 "/>
<polyline clip-path="url(#clip342)" style="stroke:#000000; stroke-linecap:round; stroke-linejoin:round; stroke-width:2; stroke-opacity:0.1; fill:none" points="272.9,1052.14 3552.76,1052.14 "/>
<polyline clip-path="url(#clip342)" style="stroke:#000000; stroke-linecap:round; stroke-linejoin:round; stroke-width:2; stroke-opacity:0.1; fill:none" points="272.9,776.05 3552.76,776.05 "/>
<polyline clip-path="url(#clip342)" style="stroke:#000000; stroke-linecap:round; stroke-linejoin:round; stroke-width:2; stroke-opacity:0.1; fill:none" points="272.9,499.958 3552.76,499.958 "/>
<polyline clip-path="url(#clip340)" style="stroke:#000000; stroke-linecap:round; stroke-linejoin:round; stroke-width:4; stroke-opacity:1; fill:none" points="272.9,2156.51 3552.76,2156.51 "/>
<polyline clip-path="url(#clip340)" style="stroke:#000000; stroke-linecap:round; stroke-linejoin:round; stroke-width:4; stroke-opacity:1; fill:none" points="546.988,2156.51 546.988,2137.61 "/>
<polyline clip-path="url(#clip340)" style="stroke:#000000; stroke-linecap:round; stroke-linejoin:round; stroke-width:4; stroke-opacity:1; fill:none" points="1457.55,2156.51 1457.55,2137.61 "/>
<polyline clip-path="url(#clip340)" style="stroke:#000000; stroke-linecap:round; stroke-linejoin:round; stroke-width:4; stroke-opacity:1; fill:none" points="2368.11,2156.51 2368.11,2137.61 "/>
<polyline clip-path="url(#clip340)" style="stroke:#000000; stroke-linecap:round; stroke-linejoin:round; stroke-width:4; stroke-opacity:1; fill:none" points="3278.67,2156.51 3278.67,2137.61 "/>
<path clip-path="url(#clip340)" d="M491.514 2224.57 L499.152 2224.57 L499.152 2198.21 L490.842 2199.87 L490.842 2195.61 L499.106 2193.95 L503.782 2193.95 L503.782 2224.57 L511.421 2224.57 L511.421 2228.51 L491.514 2228.51 L491.514 2224.57 Z" fill="#000000" fill-rule="nonzero" fill-opacity="1" /><path clip-path="url(#clip340)" d="M530.865 2197.03 Q527.254 2197.03 525.425 2200.59 Q523.62 2204.13 523.62 2211.26 Q523.62 2218.37 525.425 2221.93 Q527.254 2225.48 530.865 2225.48 Q534.499 2225.48 536.305 2221.93 Q538.134 2218.37 538.134 2211.26 Q538.134 2204.13 536.305 2200.59 Q534.499 2197.03 530.865 2197.03 M530.865 2193.32 Q536.675 2193.32 539.731 2197.93 Q542.81 2202.51 542.81 2211.26 Q542.81 2219.99 539.731 2224.6 Q536.675 2229.18 530.865 2229.18 Q525.055 2229.18 521.976 2224.6 Q518.921 2219.99 518.921 2211.26 Q518.921 2202.51 521.976 2197.93 Q525.055 2193.32 530.865 2193.32 Z" fill="#000000" fill-rule="nonzero" fill-opacity="1" /><path clip-path="url(#clip340)" d="M561.027 2197.03 Q557.416 2197.03 555.587 2200.59 Q553.782 2204.13 553.782 2211.26 Q553.782 2218.37 555.587 2221.93 Q557.416 2225.48 561.027 2225.48 Q564.661 2225.48 566.467 2221.93 Q568.296 2218.37 568.296 2211.26 Q568.296 2204.13 566.467 2200.59 Q564.661 2197.03 561.027 2197.03 M561.027 2193.32 Q566.837 2193.32 569.893 2197.93 Q572.972 2202.51 572.972 2211.26 Q572.972 2219.99 569.893 2224.6 Q566.837 2229.18 561.027 2229.18 Q555.217 2229.18 552.138 2224.6 Q549.083 2219.99 549.083 2211.26 Q549.083 2202.51 552.138 2197.93 Q555.217 2193.32 561.027 2193.32 Z" fill="#000000" fill-rule="nonzero" fill-opacity="1" /><path clip-path="url(#clip340)" d="M591.189 2197.03 Q587.578 2197.03 585.749 2200.59 Q583.944 2204.13 583.944 2211.26 Q583.944 2218.37 585.749 2221.93 Q587.578 2225.48 591.189 2225.48 Q594.823 2225.48 596.629 2221.93 Q598.457 2218.37 598.457 2211.26 Q598.457 2204.13 596.629 2200.59 Q594.823 2197.03 591.189 2197.03 M591.189 2193.32 Q596.999 2193.32 600.055 2197.93 Q603.133 2202.51 603.133 2211.26 Q603.133 2219.99 600.055 2224.6 Q596.999 2229.18 591.189 2229.18 Q585.379 2229.18 582.3 2224.6 Q579.245 2219.99 579.245 2211.26 Q579.245 2202.51 582.3 2197.93 Q585.379 2193.32 591.189 2193.32 Z" fill="#000000" fill-rule="nonzero" fill-opacity="1" /><path clip-path="url(#clip340)" d="M1402.09 2193.95 L1420.44 2193.95 L1420.44 2197.88 L1406.37 2197.88 L1406.37 2206.36 Q1407.39 2206.01 1408.4 2205.85 Q1409.42 2205.66 1410.44 2205.66 Q1416.23 2205.66 1419.61 2208.83 Q1422.99 2212 1422.99 2217.42 Q1422.99 2223 1419.52 2226.1 Q1416.04 2229.18 1409.72 2229.18 Q1407.55 2229.18 1405.28 2228.81 Q1403.03 2228.44 1400.63 2227.7 L1400.63 2223 Q1402.71 2224.13 1404.93 2224.69 Q1407.15 2225.24 1409.63 2225.24 Q1413.64 2225.24 1415.97 2223.14 Q1418.31 2221.03 1418.31 2217.42 Q1418.31 2213.81 1415.97 2211.7 Q1413.64 2209.6 1409.63 2209.6 Q1407.76 2209.6 1405.88 2210.01 Q1404.03 2210.43 1402.09 2211.31 L1402.09 2193.95 Z" fill="#000000" fill-rule="nonzero" fill-opacity="1" /><path clip-path="url(#clip340)" d="M1442.2 2197.03 Q1438.59 2197.03 1436.76 2200.59 Q1434.96 2204.13 1434.96 2211.26 Q1434.96 2218.37 1436.76 2221.93 Q1438.59 2225.48 1442.2 2225.48 Q1445.83 2225.48 1447.64 2221.93 Q1449.47 2218.37 1449.47 2211.26 Q1449.47 2204.13 1447.64 2200.59 Q1445.83 2197.03 1442.2 2197.03 M1442.2 2193.32 Q1448.01 2193.32 1451.07 2197.93 Q1454.15 2202.51 1454.15 2211.26 Q1454.15 2219.99 1451.07 2224.6 Q1448.01 2229.18 1442.2 2229.18 Q1436.39 2229.18 1433.31 2224.6 Q1430.26 2219.99 1430.26 2211.26 Q1430.26 2202.51 1433.31 2197.93 Q1436.39 2193.32 1442.2 2193.32 Z" fill="#000000" fill-rule="nonzero" fill-opacity="1" /><path clip-path="url(#clip340)" d="M1472.36 2197.03 Q1468.75 2197.03 1466.92 2200.59 Q1465.12 2204.13 1465.12 2211.26 Q1465.12 2218.37 1466.92 2221.93 Q1468.75 2225.48 1472.36 2225.48 Q1476 2225.48 1477.8 2221.93 Q1479.63 2218.37 1479.63 2211.26 Q1479.63 2204.13 1477.8 2200.59 Q1476 2197.03 1472.36 2197.03 M1472.36 2193.32 Q1478.17 2193.32 1481.23 2197.93 Q1484.31 2202.51 1484.31 2211.26 Q1484.31 2219.99 1481.23 2224.6 Q1478.17 2229.18 1472.36 2229.18 Q1466.55 2229.18 1463.47 2224.6 Q1460.42 2219.99 1460.42 2211.26 Q1460.42 2202.51 1463.47 2197.93 Q1466.55 2193.32 1472.36 2193.32 Z" fill="#000000" fill-rule="nonzero" fill-opacity="1" /><path clip-path="url(#clip340)" d="M1502.52 2197.03 Q1498.91 2197.03 1497.08 2200.59 Q1495.28 2204.13 1495.28 2211.26 Q1495.28 2218.37 1497.08 2221.93 Q1498.91 2225.48 1502.52 2225.48 Q1506.16 2225.48 1507.96 2221.93 Q1509.79 2218.37 1509.79 2211.26 Q1509.79 2204.13 1507.96 2200.59 Q1506.16 2197.03 1502.52 2197.03 M1502.52 2193.32 Q1508.33 2193.32 1511.39 2197.93 Q1514.47 2202.51 1514.47 2211.26 Q1514.47 2219.99 1511.39 2224.6 Q1508.33 2229.18 1502.52 2229.18 Q1496.71 2229.18 1493.64 2224.6 Q1490.58 2219.99 1490.58 2211.26 Q1490.58 2202.51 1493.64 2197.93 Q1496.71 2193.32 1502.52 2193.32 Z" fill="#000000" fill-rule="nonzero" fill-opacity="1" /><path clip-path="url(#clip340)" d="M2297.55 2224.57 L2305.19 2224.57 L2305.19 2198.21 L2296.88 2199.87 L2296.88 2195.61 L2305.15 2193.95 L2309.82 2193.95 L2309.82 2224.57 L2317.46 2224.57 L2317.46 2228.51 L2297.55 2228.51 L2297.55 2224.57 Z" fill="#000000" fill-rule="nonzero" fill-opacity="1" /><path clip-path="url(#clip340)" d="M2336.9 2197.03 Q2333.29 2197.03 2331.46 2200.59 Q2329.66 2204.13 2329.66 2211.26 Q2329.66 2218.37 2331.46 2221.93 Q2333.29 2225.48 2336.9 2225.48 Q2340.54 2225.48 2342.34 2221.93 Q2344.17 2218.37 2344.17 2211.26 Q2344.17 2204.13 2342.34 2200.59 Q2340.54 2197.03 2336.9 2197.03 M2336.9 2193.32 Q2342.71 2193.32 2345.77 2197.93 Q2348.85 2202.51 2348.85 2211.26 Q2348.85 2219.99 2345.77 2224.6 Q2342.71 2229.18 2336.9 2229.18 Q2331.09 2229.18 2328.02 2224.6 Q2324.96 2219.99 2324.96 2211.26 Q2324.96 2202.51 2328.02 2197.93 Q2331.09 2193.32 2336.9 2193.32 Z" fill="#000000" fill-rule="nonzero" fill-opacity="1" /><path clip-path="url(#clip340)" d="M2367.07 2197.03 Q2363.45 2197.03 2361.63 2200.59 Q2359.82 2204.13 2359.82 2211.26 Q2359.82 2218.37 2361.63 2221.93 Q2363.45 2225.48 2367.07 2225.48 Q2370.7 2225.48 2372.51 2221.93 Q2374.33 2218.37 2374.33 2211.26 Q2374.33 2204.13 2372.51 2200.59 Q2370.7 2197.03 2367.07 2197.03 M2367.07 2193.32 Q2372.88 2193.32 2375.93 2197.93 Q2379.01 2202.51 2379.01 2211.26 Q2379.01 2219.99 2375.93 2224.6 Q2372.88 2229.18 2367.07 2229.18 Q2361.26 2229.18 2358.18 2224.6 Q2355.12 2219.99 2355.12 2211.26 Q2355.12 2202.51 2358.18 2197.93 Q2361.26 2193.32 2367.07 2193.32 Z" fill="#000000" fill-rule="nonzero" fill-opacity="1" /><path clip-path="url(#clip340)" d="M2397.23 2197.03 Q2393.62 2197.03 2391.79 2200.59 Q2389.98 2204.13 2389.98 2211.26 Q2389.98 2218.37 2391.79 2221.93 Q2393.62 2225.48 2397.23 2225.48 Q2400.86 2225.48 2402.67 2221.93 Q2404.5 2218.37 2404.5 2211.26 Q2404.5 2204.13 2402.67 2200.59 Q2400.86 2197.03 2397.23 2197.03 M2397.23 2193.32 Q2403.04 2193.32 2406.09 2197.93 Q2409.17 2202.51 2409.17 2211.26 Q2409.17 2219.99 2406.09 2224.6 Q2403.04 2229.18 2397.23 2229.18 Q2391.42 2229.18 2388.34 2224.6 Q2385.28 2219.99 2385.28 2211.26 Q2385.28 2202.51 2388.34 2197.93 Q2391.42 2193.32 2397.23 2193.32 Z" fill="#000000" fill-rule="nonzero" fill-opacity="1" /><path clip-path="url(#clip340)" d="M2427.39 2197.03 Q2423.78 2197.03 2421.95 2200.59 Q2420.14 2204.13 2420.14 2211.26 Q2420.14 2218.37 2421.95 2221.93 Q2423.78 2225.48 2427.39 2225.48 Q2431.02 2225.48 2432.83 2221.93 Q2434.66 2218.37 2434.66 2211.26 Q2434.66 2204.13 2432.83 2200.59 Q2431.02 2197.03 2427.39 2197.03 M2427.39 2193.32 Q2433.2 2193.32 2436.26 2197.93 Q2439.33 2202.51 2439.33 2211.26 Q2439.33 2219.99 2436.26 2224.6 Q2433.2 2229.18 2427.39 2229.18 Q2421.58 2229.18 2418.5 2224.6 Q2415.45 2219.99 2415.45 2211.26 Q2415.45 2202.51 2418.5 2197.93 Q2421.58 2193.32 2427.39 2193.32 Z" fill="#000000" fill-rule="nonzero" fill-opacity="1" /><path clip-path="url(#clip340)" d="M3212.2 2224.57 L3228.52 2224.57 L3228.52 2228.51 L3206.57 2228.51 L3206.57 2224.57 Q3209.24 2221.82 3213.82 2217.19 Q3218.42 2212.54 3219.61 2211.19 Q3221.85 2208.67 3222.73 2206.93 Q3223.63 2205.17 3223.63 2203.48 Q3223.63 2200.73 3221.69 2198.99 Q3219.77 2197.26 3216.67 2197.26 Q3214.47 2197.26 3212.01 2198.02 Q3209.58 2198.79 3206.8 2200.34 L3206.8 2195.61 Q3209.63 2194.48 3212.08 2193.9 Q3214.54 2193.32 3216.57 2193.32 Q3221.94 2193.32 3225.14 2196.01 Q3228.33 2198.69 3228.33 2203.18 Q3228.33 2205.31 3227.52 2207.23 Q3226.74 2209.13 3224.63 2211.73 Q3224.05 2212.4 3220.95 2215.61 Q3217.85 2218.81 3212.2 2224.57 Z" fill="#000000" fill-rule="nonzero" fill-opacity="1" /><path clip-path="url(#clip340)" d="M3248.33 2197.03 Q3244.72 2197.03 3242.89 2200.59 Q3241.09 2204.13 3241.09 2211.26 Q3241.09 2218.37 3242.89 2221.93 Q3244.72 2225.48 3248.33 2225.48 Q3251.97 2225.48 3253.77 2221.93 Q3255.6 2218.37 3255.6 2211.26 Q3255.6 2204.13 3253.77 2200.59 Q3251.97 2197.03 3248.33 2197.03 M3248.33 2193.32 Q3254.14 2193.32 3257.2 2197.93 Q3260.28 2202.51 3260.28 2211.26 Q3260.28 2219.99 3257.2 2224.6 Q3254.14 2229.18 3248.33 2229.18 Q3242.52 2229.18 3239.44 2224.6 Q3236.39 2219.99 3236.39 2211.26 Q3236.39 2202.51 3239.44 2197.93 Q3242.52 2193.32 3248.33 2193.32 Z" fill="#000000" fill-rule="nonzero" fill-opacity="1" /><path clip-path="url(#clip340)" d="M3278.49 2197.03 Q3274.88 2197.03 3273.05 2200.59 Q3271.25 2204.13 3271.25 2211.26 Q3271.25 2218.37 3273.05 2221.93 Q3274.88 2225.48 3278.49 2225.48 Q3282.13 2225.48 3283.93 2221.93 Q3285.76 2218.37 3285.76 2211.26 Q3285.76 2204.13 3283.93 2200.59 Q3282.13 2197.03 3278.49 2197.03 M3278.49 2193.32 Q3284.3 2193.32 3287.36 2197.93 Q3290.44 2202.51 3290.44 2211.26 Q3290.44 2219.99 3287.36 2224.6 Q3284.3 2229.18 3278.49 2229.18 Q3272.68 2229.18 3269.61 2224.6 Q3266.55 2219.99 3266.55 2211.26 Q3266.55 2202.51 3269.61 2197.93 Q3272.68 2193.32 3278.49 2193.32 Z" fill="#000000" fill-rule="nonzero" fill-opacity="1" /><path clip-path="url(#clip340)" d="M3308.66 2197.03 Q3305.04 2197.03 3303.22 2200.59 Q3301.41 2204.13 3301.41 2211.26 Q3301.41 2218.37 3303.22 2221.93 Q3305.04 2225.48 3308.66 2225.48 Q3312.29 2225.48 3314.1 2221.93 Q3315.92 2218.37 3315.92 2211.26 Q3315.92 2204.13 3314.1 2200.59 Q3312.29 2197.03 3308.66 2197.03 M3308.66 2193.32 Q3314.47 2193.32 3317.52 2197.93 Q3320.6 2202.51 3320.6 2211.26 Q3320.6 2219.99 3317.52 2224.6 Q3314.47 2229.18 3308.66 2229.18 Q3302.85 2229.18 3299.77 2224.6 Q3296.71 2219.99 3296.71 2211.26 Q3296.71 2202.51 3299.77 2197.93 Q3302.85 2193.32 3308.66 2193.32 Z" fill="#000000" fill-rule="nonzero" fill-opacity="1" /><path clip-path="url(#clip340)" d="M3338.82 2197.03 Q3335.21 2197.03 3333.38 2200.59 Q3331.57 2204.13 3331.57 2211.26 Q3331.57 2218.37 3333.38 2221.93 Q3335.21 2225.48 3338.82 2225.48 Q3342.45 2225.48 3344.26 2221.93 Q3346.09 2218.37 3346.09 2211.26 Q3346.09 2204.13 3344.26 2200.59 Q3342.45 2197.03 3338.82 2197.03 M3338.82 2193.32 Q3344.63 2193.32 3347.68 2197.93 Q3350.76 2202.51 3350.76 2211.26 Q3350.76 2219.99 3347.68 2224.6 Q3344.63 2229.18 3338.82 2229.18 Q3333.01 2229.18 3329.93 2224.6 Q3326.87 2219.99 3326.87 2211.26 Q3326.87 2202.51 3329.93 2197.93 Q3333.01 2193.32 3338.82 2193.32 Z" fill="#000000" fill-rule="nonzero" fill-opacity="1" /><path clip-path="url(#clip340)" d="M1788.71 2308.02 L1788.71 2296.42 L1779.16 2296.42 L1779.16 2291.62 L1794.5 2291.62 L1794.5 2310.17 Q1791.11 2312.57 1787.03 2313.81 Q1782.95 2315.03 1778.32 2315.03 Q1768.2 2315.03 1762.47 2309.12 Q1756.77 2303.19 1756.77 2292.63 Q1756.77 2282.04 1762.47 2276.14 Q1768.2 2270.21 1778.32 2270.21 Q1782.55 2270.21 1786.34 2271.25 Q1790.16 2272.29 1793.37 2274.32 L1793.37 2280.54 Q1790.13 2277.79 1786.48 2276.4 Q1782.84 2275.01 1778.82 2275.01 Q1770.89 2275.01 1766.89 2279.44 Q1762.93 2283.86 1762.93 2292.63 Q1762.93 2301.37 1766.89 2305.8 Q1770.89 2310.22 1778.82 2310.22 Q1781.91 2310.22 1784.34 2309.7 Q1786.77 2309.15 1788.71 2308.02 Z" fill="#000000" fill-rule="nonzero" fill-opacity="1" /><path clip-path="url(#clip340)" d="M1823.72 2286.76 Q1822.83 2286.24 1821.75 2286 Q1820.71 2285.74 1819.44 2285.74 Q1814.93 2285.74 1812.5 2288.7 Q1810.09 2291.62 1810.09 2297.12 L1810.09 2314.19 L1804.74 2314.19 L1804.74 2281.78 L1810.09 2281.78 L1810.09 2286.82 Q1811.77 2283.86 1814.46 2282.45 Q1817.15 2281 1821 2281 Q1821.55 2281 1822.22 2281.09 Q1822.88 2281.14 1823.69 2281.29 L1823.72 2286.76 Z" fill="#000000" fill-rule="nonzero" fill-opacity="1" /><path clip-path="url(#clip340)" d="M1829.31 2281.78 L1834.63 2281.78 L1834.63 2314.19 L1829.31 2314.19 L1829.31 2281.78 M1829.31 2269.16 L1834.63 2269.16 L1834.63 2275.91 L1829.31 2275.91 L1829.31 2269.16 Z" fill="#000000" fill-rule="nonzero" fill-opacity="1" /><path clip-path="url(#clip340)" d="M1867.1 2286.7 L1867.1 2269.16 L1872.42 2269.16 L1872.42 2314.19 L1867.1 2314.19 L1867.1 2309.33 Q1865.42 2312.22 1862.84 2313.64 Q1860.3 2315.03 1856.71 2315.03 Q1850.83 2315.03 1847.13 2310.34 Q1843.46 2305.65 1843.46 2298.01 Q1843.46 2290.37 1847.13 2285.69 Q1850.83 2281 1856.71 2281 Q1860.3 2281 1862.84 2282.42 Q1865.42 2283.81 1867.1 2286.7 M1848.95 2298.01 Q1848.95 2303.89 1851.36 2307.24 Q1853.79 2310.57 1858.01 2310.57 Q1862.23 2310.57 1864.67 2307.24 Q1867.1 2303.89 1867.1 2298.01 Q1867.1 2292.14 1864.67 2288.81 Q1862.23 2285.46 1858.01 2285.46 Q1853.79 2285.46 1851.36 2288.81 Q1848.95 2292.14 1848.95 2298.01 Z" fill="#000000" fill-rule="nonzero" fill-opacity="1" /><path clip-path="url(#clip340)" d="M1922.88 2282.74 L1922.88 2287.77 Q1920.63 2286.61 1918.2 2286.03 Q1915.76 2285.46 1913.16 2285.46 Q1909.2 2285.46 1907.2 2286.67 Q1905.23 2287.89 1905.23 2290.32 Q1905.23 2292.17 1906.65 2293.24 Q1908.07 2294.28 1912.35 2295.24 L1914.17 2295.64 Q1919.84 2296.86 1922.22 2299.08 Q1924.62 2301.28 1924.62 2305.25 Q1924.62 2309.76 1921.03 2312.39 Q1917.47 2315.03 1911.22 2315.03 Q1908.62 2315.03 1905.78 2314.51 Q1902.98 2314.01 1899.85 2313 L1899.85 2307.5 Q1902.8 2309.04 1905.67 2309.82 Q1908.53 2310.57 1911.34 2310.57 Q1915.1 2310.57 1917.12 2309.3 Q1919.15 2308 1919.15 2305.65 Q1919.15 2303.48 1917.67 2302.32 Q1916.23 2301.17 1911.28 2300.1 L1909.43 2299.66 Q1904.48 2298.62 1902.28 2296.48 Q1900.08 2294.31 1900.08 2290.55 Q1900.08 2285.98 1903.32 2283.49 Q1906.56 2281 1912.52 2281 Q1915.48 2281 1918.08 2281.43 Q1920.68 2281.87 1922.88 2282.74 Z" fill="#000000" fill-rule="nonzero" fill-opacity="1" /><path clip-path="url(#clip340)" d="M1933.1 2281.78 L1938.42 2281.78 L1938.42 2314.19 L1933.1 2314.19 L1933.1 2281.78 M1933.1 2269.16 L1938.42 2269.16 L1938.42 2275.91 L1933.1 2275.91 L1933.1 2269.16 Z" fill="#000000" fill-rule="nonzero" fill-opacity="1" /><path clip-path="url(#clip340)" d="M1947.25 2281.78 L1972.54 2281.78 L1972.54 2286.64 L1952.51 2309.93 L1972.54 2309.93 L1972.54 2314.19 L1946.52 2314.19 L1946.52 2309.33 L1966.55 2286.03 L1947.25 2286.03 L1947.25 2281.78 Z" fill="#000000" fill-rule="nonzero" fill-opacity="1" /><path clip-path="url(#clip340)" d="M2008.39 2296.65 L2008.39 2299.26 L1983.91 2299.26 Q1984.25 2304.75 1987.21 2307.65 Q1990.19 2310.51 1995.48 2310.51 Q1998.55 2310.51 2001.41 2309.76 Q2004.31 2309.01 2007.14 2307.5 L2007.14 2312.54 Q2004.28 2313.75 2001.27 2314.39 Q1998.26 2315.03 1995.16 2315.03 Q1987.41 2315.03 1982.86 2310.51 Q1978.35 2306 1978.35 2298.3 Q1978.35 2290.35 1982.63 2285.69 Q1986.94 2281 1994.24 2281 Q2000.78 2281 2004.57 2285.22 Q2008.39 2289.42 2008.39 2296.65 M2003.06 2295.09 Q2003 2290.72 2000.6 2288.12 Q1998.23 2285.51 1994.29 2285.51 Q1989.84 2285.51 1987.15 2288.03 Q1984.49 2290.55 1984.08 2295.12 L2003.06 2295.09 Z" fill="#000000" fill-rule="nonzero" fill-opacity="1" /><path clip-path="url(#clip340)" d="M2036.19 2270.99 L2044.06 2270.99 L2063.22 2307.13 L2063.22 2270.99 L2068.89 2270.99 L2068.89 2314.19 L2061.02 2314.19 L2041.86 2278.05 L2041.86 2314.19 L2036.19 2314.19 L2036.19 2270.99 Z" fill="#000000" fill-rule="nonzero" fill-opacity="1" /><polyline clip-path="url(#clip340)" style="stroke:#000000; stroke-linecap:round; stroke-linejoin:round; stroke-width:4; stroke-opacity:1; fill:none" points="272.9,2156.51 272.9,246.944 "/>
<polyline clip-path="url(#clip340)" style="stroke:#000000; stroke-linecap:round; stroke-linejoin:round; stroke-width:4; stroke-opacity:1; fill:none" points="272.9,2156.51 291.797,2156.51 "/>
<polyline clip-path="url(#clip340)" style="stroke:#000000; stroke-linecap:round; stroke-linejoin:round; stroke-width:4; stroke-opacity:1; fill:none" points="272.9,1880.42 291.797,1880.42 "/>
<polyline clip-path="url(#clip340)" style="stroke:#000000; stroke-linecap:round; stroke-linejoin:round; stroke-width:4; stroke-opacity:1; fill:none" points="272.9,1604.32 291.797,1604.32 "/>
<polyline clip-path="url(#clip340)" style="stroke:#000000; stroke-linecap:round; stroke-linejoin:round; stroke-width:4; stroke-opacity:1; fill:none" points="272.9,1328.23 291.797,1328.23 "/>
<polyline clip-path="url(#clip340)" style="stroke:#000000; stroke-linecap:round; stroke-linejoin:round; stroke-width:4; stroke-opacity:1; fill:none" points="272.9,1052.14 291.797,1052.14 "/>
<polyline clip-path="url(#clip340)" style="stroke:#000000; stroke-linecap:round; stroke-linejoin:round; stroke-width:4; stroke-opacity:1; fill:none" points="272.9,776.05 291.797,776.05 "/>
<polyline clip-path="url(#clip340)" style="stroke:#000000; stroke-linecap:round; stroke-linejoin:round; stroke-width:4; stroke-opacity:1; fill:none" points="272.9,499.958 291.797,499.958 "/>
<path clip-path="url(#clip340)" d="M206.955 2142.31 Q203.344 2142.31 201.515 2145.87 Q199.71 2149.41 199.71 2156.54 Q199.71 2163.65 201.515 2167.21 Q203.344 2170.76 206.955 2170.76 Q210.589 2170.76 212.395 2167.21 Q214.224 2163.65 214.224 2156.54 Q214.224 2149.41 212.395 2145.87 Q210.589 2142.31 206.955 2142.31 M206.955 2138.6 Q212.765 2138.6 215.821 2143.21 Q218.9 2147.79 218.9 2156.54 Q218.9 2165.27 215.821 2169.88 Q212.765 2174.46 206.955 2174.46 Q201.145 2174.46 198.066 2169.88 Q195.011 2165.27 195.011 2156.54 Q195.011 2147.79 198.066 2143.21 Q201.145 2138.6 206.955 2138.6 Z" fill="#000000" fill-rule="nonzero" fill-opacity="1" /><path clip-path="url(#clip340)" d="M202.58 1893.76 L218.9 1893.76 L218.9 1897.7 L196.955 1897.7 L196.955 1893.76 Q199.617 1891.01 204.201 1886.38 Q208.807 1881.72 209.988 1880.38 Q212.233 1877.86 213.113 1876.12 Q214.015 1874.36 214.015 1872.67 Q214.015 1869.92 212.071 1868.18 Q210.15 1866.45 207.048 1866.45 Q204.849 1866.45 202.395 1867.21 Q199.965 1867.97 197.187 1869.52 L197.187 1864.8 Q200.011 1863.67 202.465 1863.09 Q204.918 1862.51 206.955 1862.51 Q212.326 1862.51 215.52 1865.2 Q218.714 1867.88 218.714 1872.37 Q218.714 1874.5 217.904 1876.42 Q217.117 1878.32 215.011 1880.91 Q214.432 1881.59 211.33 1884.8 Q208.228 1888 202.58 1893.76 Z" fill="#000000" fill-rule="nonzero" fill-opacity="1" /><path clip-path="url(#clip340)" d="M209.316 1591.12 L197.511 1609.57 L209.316 1609.57 L209.316 1591.12 M208.089 1587.04 L213.969 1587.04 L213.969 1609.57 L218.9 1609.57 L218.9 1613.46 L213.969 1613.46 L213.969 1621.6 L209.316 1621.6 L209.316 1613.46 L193.715 1613.46 L193.715 1608.94 L208.089 1587.04 Z" fill="#000000" fill-rule="nonzero" fill-opacity="1" /><path clip-path="url(#clip340)" d="M207.372 1326.37 Q204.224 1326.37 202.372 1328.52 Q200.543 1330.67 200.543 1334.42 Q200.543 1338.15 202.372 1340.33 Q204.224 1342.48 207.372 1342.48 Q210.52 1342.48 212.349 1340.33 Q214.201 1338.15 214.201 1334.42 Q214.201 1330.67 212.349 1328.52 Q210.52 1326.37 207.372 1326.37 M216.654 1311.72 L216.654 1315.98 Q214.895 1315.14 213.089 1314.7 Q211.307 1314.26 209.548 1314.26 Q204.918 1314.26 202.465 1317.39 Q200.034 1320.51 199.687 1326.83 Q201.052 1324.82 203.113 1323.75 Q205.173 1322.67 207.65 1322.67 Q212.858 1322.67 215.867 1325.84 Q218.9 1328.99 218.9 1334.42 Q218.9 1339.75 215.751 1342.97 Q212.603 1346.18 207.372 1346.18 Q201.377 1346.18 198.205 1341.6 Q195.034 1336.99 195.034 1328.27 Q195.034 1320.07 198.923 1315.21 Q202.812 1310.33 209.363 1310.33 Q211.122 1310.33 212.904 1310.68 Q214.71 1311.02 216.654 1311.72 Z" fill="#000000" fill-rule="nonzero" fill-opacity="1" /><path clip-path="url(#clip340)" d="M207.048 1053.01 Q203.714 1053.01 201.793 1054.79 Q199.895 1056.57 199.895 1059.7 Q199.895 1062.82 201.793 1064.61 Q203.714 1066.39 207.048 1066.39 Q210.381 1066.39 212.302 1064.61 Q214.224 1062.8 214.224 1059.7 Q214.224 1056.57 212.302 1054.79 Q210.404 1053.01 207.048 1053.01 M202.372 1051.02 Q199.363 1050.28 197.673 1048.22 Q196.006 1046.16 196.006 1043.19 Q196.006 1039.05 198.946 1036.64 Q201.909 1034.24 207.048 1034.24 Q212.21 1034.24 215.15 1036.64 Q218.089 1039.05 218.089 1043.19 Q218.089 1046.16 216.4 1048.22 Q214.733 1050.28 211.747 1051.02 Q215.126 1051.81 217.001 1054.1 Q218.9 1056.39 218.9 1059.7 Q218.9 1064.72 215.821 1067.41 Q212.765 1070.09 207.048 1070.09 Q201.33 1070.09 198.252 1067.41 Q195.196 1064.72 195.196 1059.7 Q195.196 1056.39 197.094 1054.1 Q198.992 1051.81 202.372 1051.02 M200.659 1043.63 Q200.659 1046.32 202.326 1047.82 Q204.015 1049.33 207.048 1049.33 Q210.057 1049.33 211.747 1047.82 Q213.46 1046.32 213.46 1043.63 Q213.46 1040.95 211.747 1039.44 Q210.057 1037.94 207.048 1037.94 Q204.015 1037.94 202.326 1039.44 Q200.659 1040.95 200.659 1043.63 Z" fill="#000000" fill-rule="nonzero" fill-opacity="1" /><path clip-path="url(#clip340)" d="M167.604 789.394 L175.242 789.394 L175.242 763.029 L166.932 764.695 L166.932 760.436 L175.196 758.77 L179.872 758.77 L179.872 789.394 L187.511 789.394 L187.511 793.33 L167.604 793.33 L167.604 789.394 Z" fill="#000000" fill-rule="nonzero" fill-opacity="1" /><path clip-path="url(#clip340)" d="M206.955 761.848 Q203.344 761.848 201.515 765.413 Q199.71 768.955 199.71 776.084 Q199.71 783.191 201.515 786.755 Q203.344 790.297 206.955 790.297 Q210.589 790.297 212.395 786.755 Q214.224 783.191 214.224 776.084 Q214.224 768.955 212.395 765.413 Q210.589 761.848 206.955 761.848 M206.955 758.145 Q212.765 758.145 215.821 762.751 Q218.9 767.334 218.9 776.084 Q218.9 784.811 215.821 789.417 Q212.765 794.001 206.955 794.001 Q201.145 794.001 198.066 789.417 Q195.011 784.811 195.011 776.084 Q195.011 767.334 198.066 762.751 Q201.145 758.145 206.955 758.145 Z" fill="#000000" fill-rule="nonzero" fill-opacity="1" /><path clip-path="url(#clip340)" d="M169.201 513.303 L176.84 513.303 L176.84 486.937 L168.529 488.604 L168.529 484.345 L176.793 482.678 L181.469 482.678 L181.469 513.303 L189.108 513.303 L189.108 517.238 L169.201 517.238 L169.201 513.303 Z" fill="#000000" fill-rule="nonzero" fill-opacity="1" /><path clip-path="url(#clip340)" d="M202.58 513.303 L218.9 513.303 L218.9 517.238 L196.955 517.238 L196.955 513.303 Q199.617 510.548 204.201 505.918 Q208.807 501.266 209.988 499.923 Q212.233 497.4 213.113 495.664 Q214.015 493.905 214.015 492.215 Q214.015 489.46 212.071 487.724 Q210.15 485.988 207.048 485.988 Q204.849 485.988 202.395 486.752 Q199.965 487.516 197.187 489.067 L197.187 484.345 Q200.011 483.21 202.465 482.632 Q204.918 482.053 206.955 482.053 Q212.326 482.053 215.52 484.738 Q218.714 487.423 218.714 491.914 Q218.714 494.044 217.904 495.965 Q217.117 497.863 215.011 500.456 Q214.432 501.127 211.33 504.344 Q208.228 507.539 202.58 513.303 Z" fill="#000000" fill-rule="nonzero" fill-opacity="1" /><path clip-path="url(#clip340)" d="M58.1901 1374.69 L63.8903 1374.69 Q62.2989 1378.01 61.5176 1380.96 Q60.7364 1383.92 60.7364 1386.66 Q60.7364 1391.44 62.5882 1394.04 Q64.4401 1396.62 67.8544 1396.62 Q70.719 1396.62 72.1947 1394.91 Q73.6414 1393.17 74.5384 1388.37 L75.2618 1384.84 Q76.506 1378.3 79.6599 1375.21 Q82.7849 1372.08 88.0511 1372.08 Q94.33 1372.08 97.5707 1376.31 Q100.811 1380.5 100.811 1388.63 Q100.811 1391.7 100.117 1395.17 Q99.4225 1398.61 98.0626 1402.32 L92.0441 1402.32 Q94.0406 1398.76 95.0533 1395.34 Q96.0661 1391.93 96.0661 1388.63 Q96.0661 1383.63 94.0985 1380.91 Q92.1309 1378.19 88.4851 1378.19 Q85.3022 1378.19 83.5083 1380.15 Q81.7143 1382.09 80.8173 1386.55 L80.1229 1390.11 Q78.8208 1396.65 76.043 1399.57 Q73.2653 1402.49 68.3174 1402.49 Q62.5882 1402.49 59.2896 1398.47 Q55.991 1394.42 55.991 1387.33 Q55.991 1384.29 56.5408 1381.14 Q57.0906 1377.98 58.1901 1374.69 Z" fill="#000000" fill-rule="nonzero" fill-opacity="1" /><path clip-path="url(#clip340)" d="M71.2977 1350.64 Q71.2977 1354.92 74.6541 1357.41 Q77.9817 1359.9 83.7976 1359.9 Q89.6135 1359.9 92.97 1357.44 Q96.2975 1354.95 96.2975 1350.64 Q96.2975 1346.39 92.9411 1343.9 Q89.5846 1341.41 83.7976 1341.41 Q78.0395 1341.41 74.6831 1343.9 Q71.2977 1346.39 71.2977 1350.64 M66.7838 1350.64 Q66.7838 1343.7 71.2977 1339.73 Q75.8115 1335.77 83.7976 1335.77 Q91.7547 1335.77 96.2975 1339.73 Q100.811 1343.7 100.811 1350.64 Q100.811 1357.61 96.2975 1361.58 Q91.7547 1365.51 83.7976 1365.51 Q75.8115 1365.51 71.2977 1361.58 Q66.7838 1357.61 66.7838 1350.64 Z" fill="#000000" fill-rule="nonzero" fill-opacity="1" /><path clip-path="url(#clip340)" d="M54.9494 1326.94 L54.9494 1321.62 L99.9723 1321.62 L99.9723 1326.94 L54.9494 1326.94 Z" fill="#000000" fill-rule="nonzero" fill-opacity="1" /><path clip-path="url(#clip340)" d="M67.565 1314.3 L67.565 1308.66 L94.764 1298.53 L67.565 1288.4 L67.565 1282.76 L99.9723 1294.91 L99.9723 1302.15 L67.565 1314.3 Z" fill="#000000" fill-rule="nonzero" fill-opacity="1" /><path clip-path="url(#clip340)" d="M82.4377 1247.69 L85.0418 1247.69 L85.0418 1272.17 Q90.5395 1271.82 93.433 1268.87 Q96.2975 1265.89 96.2975 1260.59 Q96.2975 1257.53 95.5452 1254.66 Q94.7929 1251.77 93.2883 1248.93 L98.323 1248.93 Q99.5383 1251.8 100.175 1254.81 Q100.811 1257.82 100.811 1260.91 Q100.811 1268.67 96.2975 1273.21 Q91.7837 1277.72 84.087 1277.72 Q76.1298 1277.72 71.4713 1273.44 Q66.7838 1269.13 66.7838 1261.84 Q66.7838 1255.3 71.0083 1251.51 Q75.2039 1247.69 82.4377 1247.69 M80.8752 1253.01 Q76.506 1253.07 73.9018 1255.47 Q71.2977 1257.85 71.2977 1261.78 Q71.2977 1266.24 73.815 1268.93 Q76.3324 1271.59 80.9041 1271.99 L80.8752 1253.01 Z" fill="#000000" fill-rule="nonzero" fill-opacity="1" /><path clip-path="url(#clip340)" d="M58.3637 1214.85 L67.565 1214.85 L67.565 1203.88 L71.7028 1203.88 L71.7028 1214.85 L89.2953 1214.85 Q93.2594 1214.85 94.3878 1213.78 Q95.5163 1212.68 95.5163 1209.35 L95.5163 1203.88 L99.9723 1203.88 L99.9723 1209.35 Q99.9723 1215.51 97.6864 1217.86 Q95.3716 1220.2 89.2953 1220.2 L71.7028 1220.2 L71.7028 1224.11 L67.565 1224.11 L67.565 1220.2 L58.3637 1220.2 L58.3637 1214.85 Z" fill="#000000" fill-rule="nonzero" fill-opacity="1" /><path clip-path="url(#clip340)" d="M67.565 1196.88 L67.565 1191.56 L99.9723 1191.56 L99.9723 1196.88 L67.565 1196.88 M54.9494 1196.88 L54.9494 1191.56 L61.6912 1191.56 L61.6912 1196.88 L54.9494 1196.88 Z" fill="#000000" fill-rule="nonzero" fill-opacity="1" /><path clip-path="url(#clip340)" d="M73.7861 1155.18 Q70.1981 1153.19 68.491 1150.41 Q66.7838 1147.63 66.7838 1143.87 Q66.7838 1138.81 70.3428 1136.06 Q73.8729 1133.31 80.4122 1133.31 L99.9723 1133.31 L99.9723 1138.66 L80.5858 1138.66 Q75.9273 1138.66 73.6703 1140.31 Q71.4134 1141.96 71.4134 1145.35 Q71.4134 1149.48 74.1622 1151.89 Q76.9111 1154.29 81.6564 1154.29 L99.9723 1154.29 L99.9723 1159.64 L80.5858 1159.64 Q75.8983 1159.64 73.6703 1161.29 Q71.4134 1162.94 71.4134 1166.38 Q71.4134 1170.46 74.1912 1172.86 Q76.94 1175.26 81.6564 1175.26 L99.9723 1175.26 L99.9723 1180.62 L67.565 1180.62 L67.565 1175.26 L72.5997 1175.26 Q69.6194 1173.44 68.2016 1170.9 Q66.7838 1168.35 66.7838 1164.85 Q66.7838 1161.32 68.5778 1158.86 Q70.3717 1156.37 73.7861 1155.18 Z" fill="#000000" fill-rule="nonzero" fill-opacity="1" /><path clip-path="url(#clip340)" d="M82.4377 1094.97 L85.0418 1094.97 L85.0418 1119.45 Q90.5395 1119.1 93.433 1116.15 Q96.2975 1113.17 96.2975 1107.88 Q96.2975 1104.81 95.5452 1101.94 Q94.7929 1099.05 93.2883 1096.21 L98.323 1096.21 Q99.5383 1099.08 100.175 1102.09 Q100.811 1105.1 100.811 1108.19 Q100.811 1115.95 96.2975 1120.49 Q91.7837 1125 84.087 1125 Q76.1298 1125 71.4713 1120.72 Q66.7838 1116.41 66.7838 1109.12 Q66.7838 1102.58 71.0083 1098.79 Q75.2039 1094.97 82.4377 1094.97 M80.8752 1100.29 Q76.506 1100.35 73.9018 1102.75 Q71.2977 1105.13 71.2977 1109.06 Q71.2977 1113.52 73.815 1116.21 Q76.3324 1118.87 80.9041 1119.28 L80.8752 1100.29 Z" fill="#000000" fill-rule="nonzero" fill-opacity="1" /><path clip-path="url(#clip340)" d="M55.0072 1054.61 Q61.6623 1058.48 68.1727 1060.36 Q74.6831 1062.24 81.3671 1062.24 Q88.0511 1062.24 94.6193 1060.36 Q101.159 1058.45 107.785 1054.61 L107.785 1059.24 Q100.985 1063.58 94.4168 1065.75 Q87.8485 1067.89 81.3671 1067.89 Q74.9145 1067.89 68.3752 1065.75 Q61.8359 1063.6 55.0072 1059.24 L55.0072 1054.61 Z" fill="#000000" fill-rule="nonzero" fill-opacity="1" /><path clip-path="url(#clip340)" d="M68.5199 1023.62 L73.5546 1023.62 Q72.3972 1025.87 71.8185 1028.3 Q71.2398 1030.73 71.2398 1033.34 Q71.2398 1037.3 72.4551 1039.3 Q73.6703 1041.27 76.1009 1041.27 Q77.9527 1041.27 79.0233 1039.85 Q80.065 1038.43 81.0198 1034.15 L81.4249 1032.33 Q82.6402 1026.65 84.8682 1024.28 Q87.0673 1021.88 91.0314 1021.88 Q95.5452 1021.88 98.1783 1025.47 Q100.811 1029.03 100.811 1035.28 Q100.811 1037.88 100.291 1040.72 Q99.7987 1043.52 98.7859 1046.65 L93.2883 1046.65 Q94.8218 1043.7 95.6031 1040.83 Q96.3554 1037.97 96.3554 1035.16 Q96.3554 1031.4 95.0823 1029.37 Q93.7802 1027.35 91.4364 1027.35 Q89.2663 1027.35 88.1089 1028.82 Q86.9515 1030.27 85.8809 1035.22 L85.4469 1037.07 Q84.4052 1042.02 82.264 1044.22 Q80.0939 1046.42 76.3324 1046.42 Q71.7606 1046.42 69.2722 1043.18 Q66.7838 1039.94 66.7838 1033.98 Q66.7838 1031.02 67.2178 1028.42 Q67.6519 1025.82 68.5199 1023.62 Z" fill="#000000" fill-rule="nonzero" fill-opacity="1" /><path clip-path="url(#clip340)" d="M55.0072 1014.24 L55.0072 1009.61 Q61.8359 1005.27 68.3752 1003.13 Q74.9145 1000.96 81.3671 1000.96 Q87.8485 1000.96 94.4168 1003.13 Q100.985 1005.27 107.785 1009.61 L107.785 1014.24 Q101.159 1010.39 94.6193 1008.51 Q88.0511 1006.6 81.3671 1006.6 Q74.6831 1006.6 68.1727 1008.51 Q61.6623 1010.39 55.0072 1014.24 Z" fill="#000000" fill-rule="nonzero" fill-opacity="1" /><path clip-path="url(#clip340)" d="M1190.53 125.969 L1190.53 133.949 Q1185.87 131.721 1181.74 130.627 Q1177.61 129.534 1173.76 129.534 Q1167.08 129.534 1163.43 132.126 Q1159.83 134.719 1159.83 139.499 Q1159.83 143.509 1162.22 145.575 Q1164.65 147.601 1171.37 148.857 L1176.31 149.869 Q1185.47 151.611 1189.8 156.027 Q1194.18 160.402 1194.18 167.774 Q1194.18 176.565 1188.26 181.102 Q1182.39 185.639 1171.01 185.639 Q1166.71 185.639 1161.85 184.667 Q1157.03 183.694 1151.85 181.79 L1151.85 173.365 Q1156.83 176.16 1161.61 177.577 Q1166.39 178.995 1171.01 178.995 Q1178.01 178.995 1181.82 176.241 Q1185.63 173.486 1185.63 168.382 Q1185.63 163.926 1182.88 161.414 Q1180.16 158.903 1173.92 157.647 L1168.94 156.675 Q1159.78 154.852 1155.69 150.963 Q1151.6 147.074 1151.6 140.147 Q1151.6 132.126 1157.23 127.508 Q1162.9 122.89 1172.83 122.89 Q1177.08 122.89 1181.5 123.66 Q1185.91 124.43 1190.53 125.969 Z" fill="#000000" fill-rule="nonzero" fill-opacity="1" /><path clip-path="url(#clip340)" d="M1224.19 144.32 Q1218.2 144.32 1214.72 149.019 Q1211.23 153.677 1211.23 161.819 Q1211.23 169.962 1214.67 174.661 Q1218.16 179.319 1224.19 179.319 Q1230.15 179.319 1233.63 174.62 Q1237.12 169.921 1237.12 161.819 Q1237.12 153.758 1233.63 149.059 Q1230.15 144.32 1224.19 144.32 M1224.19 138 Q1233.92 138 1239.47 144.32 Q1245.02 150.639 1245.02 161.819 Q1245.02 172.959 1239.47 179.319 Q1233.92 185.639 1224.19 185.639 Q1214.43 185.639 1208.88 179.319 Q1203.37 172.959 1203.37 161.819 Q1203.37 150.639 1208.88 144.32 Q1214.43 138 1224.19 138 Z" fill="#000000" fill-rule="nonzero" fill-opacity="1" /><path clip-path="url(#clip340)" d="M1257.37 121.432 L1264.82 121.432 L1264.82 184.464 L1257.37 184.464 L1257.37 121.432 Z" fill="#000000" fill-rule="nonzero" fill-opacity="1" /><path clip-path="url(#clip340)" d="M1275.07 139.094 L1282.97 139.094 L1297.15 177.172 L1311.33 139.094 L1319.23 139.094 L1302.21 184.464 L1292.09 184.464 L1275.07 139.094 Z" fill="#000000" fill-rule="nonzero" fill-opacity="1" /><path clip-path="url(#clip340)" d="M1368.33 159.916 L1368.33 163.561 L1334.05 163.561 Q1334.54 171.258 1338.67 175.309 Q1342.85 179.319 1350.26 179.319 Q1354.55 179.319 1358.56 178.266 Q1362.61 177.213 1366.58 175.106 L1366.58 182.155 Q1362.57 183.856 1358.36 184.748 Q1354.15 185.639 1349.81 185.639 Q1338.96 185.639 1332.6 179.319 Q1326.28 173 1326.28 162.225 Q1326.28 151.085 1332.27 144.563 Q1338.31 138 1348.52 138 Q1357.67 138 1362.98 143.914 Q1368.33 149.788 1368.33 159.916 M1360.87 157.728 Q1360.79 151.611 1357.43 147.965 Q1354.11 144.32 1348.6 144.32 Q1342.36 144.32 1338.59 147.844 Q1334.86 151.368 1334.3 157.769 L1360.87 157.728 Z" fill="#000000" fill-rule="nonzero" fill-opacity="1" /><path clip-path="url(#clip340)" d="M1414.3 126.212 L1414.3 139.094 L1429.66 139.094 L1429.66 144.887 L1414.3 144.887 L1414.3 169.516 Q1414.3 175.066 1415.8 176.646 Q1417.34 178.226 1422 178.226 L1429.66 178.226 L1429.66 184.464 L1422 184.464 Q1413.37 184.464 1410.09 181.264 Q1406.81 178.023 1406.81 169.516 L1406.81 144.887 L1401.34 144.887 L1401.34 139.094 L1406.81 139.094 L1406.81 126.212 L1414.3 126.212 Z" fill="#000000" fill-rule="nonzero" fill-opacity="1" /><path clip-path="url(#clip340)" d="M1439.46 139.094 L1446.91 139.094 L1446.91 184.464 L1439.46 184.464 L1439.46 139.094 M1439.46 121.432 L1446.91 121.432 L1446.91 130.871 L1439.46 130.871 L1439.46 121.432 Z" fill="#000000" fill-rule="nonzero" fill-opacity="1" /><path clip-path="url(#clip340)" d="M1497.83 147.803 Q1500.63 142.78 1504.52 140.39 Q1508.41 138 1513.67 138 Q1520.76 138 1524.61 142.983 Q1528.46 147.925 1528.46 157.08 L1528.46 184.464 L1520.96 184.464 L1520.96 157.323 Q1520.96 150.801 1518.65 147.641 Q1516.35 144.482 1511.61 144.482 Q1505.81 144.482 1502.45 148.33 Q1499.09 152.178 1499.09 158.822 L1499.09 184.464 L1491.59 184.464 L1491.59 157.323 Q1491.59 150.76 1489.29 147.641 Q1486.98 144.482 1482.16 144.482 Q1476.44 144.482 1473.08 148.37 Q1469.72 152.219 1469.72 158.822 L1469.72 184.464 L1462.23 184.464 L1462.23 139.094 L1469.72 139.094 L1469.72 146.142 Q1472.27 141.97 1475.84 139.985 Q1479.4 138 1484.3 138 Q1489.24 138 1492.69 140.512 Q1496.17 143.023 1497.83 147.803 Z" fill="#000000" fill-rule="nonzero" fill-opacity="1" /><path clip-path="url(#clip340)" d="M1582.13 159.916 L1582.13 163.561 L1547.86 163.561 Q1548.35 171.258 1552.48 175.309 Q1556.65 179.319 1564.07 179.319 Q1568.36 179.319 1572.37 178.266 Q1576.42 177.213 1580.39 175.106 L1580.39 182.155 Q1576.38 183.856 1572.17 184.748 Q1567.95 185.639 1563.62 185.639 Q1552.76 185.639 1546.4 179.319 Q1540.08 173 1540.08 162.225 Q1540.08 151.085 1546.08 144.563 Q1552.11 138 1562.32 138 Q1571.48 138 1576.78 143.914 Q1582.13 149.788 1582.13 159.916 M1574.68 157.728 Q1574.6 151.611 1571.24 147.965 Q1567.91 144.32 1562.4 144.32 Q1556.17 144.32 1552.4 147.844 Q1548.67 151.368 1548.1 157.769 L1574.68 157.728 Z" fill="#000000" fill-rule="nonzero" fill-opacity="1" /><path clip-path="url(#clip340)" d="M1615.39 139.094 L1623.29 139.094 L1637.47 177.172 L1651.65 139.094 L1659.54 139.094 L1642.53 184.464 L1632.4 184.464 L1615.39 139.094 Z" fill="#000000" fill-rule="nonzero" fill-opacity="1" /><path clip-path="url(#clip340)" d="M1698.76 140.431 L1698.76 147.479 Q1695.6 145.859 1692.2 145.049 Q1688.79 144.239 1685.15 144.239 Q1679.6 144.239 1676.8 145.94 Q1674.05 147.641 1674.05 151.044 Q1674.05 153.637 1676.03 155.135 Q1678.02 156.594 1684.01 157.931 L1686.56 158.498 Q1694.5 160.199 1697.83 163.318 Q1701.19 166.397 1701.19 171.947 Q1701.19 178.266 1696.17 181.952 Q1691.18 185.639 1682.43 185.639 Q1678.79 185.639 1674.82 184.91 Q1670.89 184.221 1666.51 182.803 L1666.51 175.106 Q1670.64 177.253 1674.65 178.347 Q1678.67 179.4 1682.59 179.4 Q1687.86 179.4 1690.7 177.618 Q1693.53 175.795 1693.53 172.514 Q1693.53 169.476 1691.47 167.855 Q1689.44 166.235 1682.51 164.736 L1679.92 164.128 Q1672.99 162.67 1669.92 159.672 Q1666.84 156.634 1666.84 151.368 Q1666.84 144.968 1671.37 141.484 Q1675.91 138 1684.26 138 Q1688.39 138 1692.03 138.608 Q1695.68 139.215 1698.76 140.431 Z" fill="#000000" fill-rule="nonzero" fill-opacity="1" /><path clip-path="url(#clip340)" d="M1769.28 161.252 Q1769.28 153.151 1765.92 148.695 Q1762.6 144.239 1756.56 144.239 Q1750.57 144.239 1747.21 148.695 Q1743.88 153.151 1743.88 161.252 Q1743.88 169.314 1747.21 173.77 Q1750.57 178.226 1756.56 178.226 Q1762.6 178.226 1765.92 173.77 Q1769.28 169.314 1769.28 161.252 M1776.74 178.833 Q1776.74 190.419 1771.59 196.05 Q1766.45 201.721 1755.83 201.721 Q1751.91 201.721 1748.42 201.113 Q1744.94 200.546 1741.66 199.331 L1741.66 192.08 Q1744.94 193.862 1748.14 194.713 Q1751.34 195.563 1754.66 195.563 Q1761.99 195.563 1765.64 191.715 Q1769.28 187.907 1769.28 180.17 L1769.28 176.484 Q1766.97 180.494 1763.37 182.479 Q1759.76 184.464 1754.74 184.464 Q1746.4 184.464 1741.29 178.104 Q1736.19 171.744 1736.19 161.252 Q1736.19 150.72 1741.29 144.36 Q1746.4 138 1754.74 138 Q1759.76 138 1763.37 139.985 Q1766.97 141.97 1769.28 145.98 L1769.28 139.094 L1776.74 139.094 L1776.74 178.833 Z" fill="#000000" fill-rule="nonzero" fill-opacity="1" /><path clip-path="url(#clip340)" d="M1818.38 146.061 Q1817.13 145.332 1815.63 145.008 Q1814.17 144.644 1812.39 144.644 Q1806.07 144.644 1802.66 148.776 Q1799.3 152.867 1799.3 160.564 L1799.3 184.464 L1791.81 184.464 L1791.81 139.094 L1799.3 139.094 L1799.3 146.142 Q1801.65 142.011 1805.42 140.026 Q1809.19 138 1814.57 138 Q1815.34 138 1816.27 138.122 Q1817.21 138.203 1818.34 138.405 L1818.38 146.061 Z" fill="#000000" fill-rule="nonzero" fill-opacity="1" /><path clip-path="url(#clip340)" d="M1826.2 139.094 L1833.65 139.094 L1833.65 184.464 L1826.2 184.464 L1826.2 139.094 M1826.2 121.432 L1833.65 121.432 L1833.65 130.871 L1826.2 130.871 L1826.2 121.432 Z" fill="#000000" fill-rule="nonzero" fill-opacity="1" /><path clip-path="url(#clip340)" d="M1879.1 145.98 L1879.1 121.432 L1886.56 121.432 L1886.56 184.464 L1879.1 184.464 L1879.1 177.658 Q1876.75 181.709 1873.15 183.694 Q1869.58 185.639 1864.56 185.639 Q1856.34 185.639 1851.15 179.076 Q1846.01 172.514 1846.01 161.819 Q1846.01 151.125 1851.15 144.563 Q1856.34 138 1864.56 138 Q1869.58 138 1873.15 139.985 Q1876.75 141.93 1879.1 145.98 M1853.7 161.819 Q1853.7 170.043 1857.07 174.742 Q1860.47 179.4 1866.38 179.4 Q1872.3 179.4 1875.7 174.742 Q1879.1 170.043 1879.1 161.819 Q1879.1 153.596 1875.7 148.938 Q1872.3 144.239 1866.38 144.239 Q1860.47 144.239 1857.07 148.938 Q1853.7 153.596 1853.7 161.819 Z" fill="#000000" fill-rule="nonzero" fill-opacity="1" /><path clip-path="url(#clip340)" d="M1957.21 140.431 L1957.21 147.479 Q1954.05 145.859 1950.64 145.049 Q1947.24 144.239 1943.59 144.239 Q1938.04 144.239 1935.25 145.94 Q1932.49 147.641 1932.49 151.044 Q1932.49 153.637 1934.48 155.135 Q1936.46 156.594 1942.46 157.931 L1945.01 158.498 Q1952.95 160.199 1956.27 163.318 Q1959.64 166.397 1959.64 171.947 Q1959.64 178.266 1954.61 181.952 Q1949.63 185.639 1940.88 185.639 Q1937.23 185.639 1933.26 184.91 Q1929.34 184.221 1924.96 182.803 L1924.96 175.106 Q1929.09 177.253 1933.1 178.347 Q1937.11 179.4 1941.04 179.4 Q1946.31 179.4 1949.14 177.618 Q1951.98 175.795 1951.98 172.514 Q1951.98 169.476 1949.91 167.855 Q1947.89 166.235 1940.96 164.736 L1938.37 164.128 Q1931.44 162.67 1928.36 159.672 Q1925.28 156.634 1925.28 151.368 Q1925.28 144.968 1929.82 141.484 Q1934.36 138 1942.7 138 Q1946.84 138 1950.48 138.608 Q1954.13 139.215 1957.21 140.431 Z" fill="#000000" fill-rule="nonzero" fill-opacity="1" /><path clip-path="url(#clip340)" d="M1971.51 139.094 L1978.96 139.094 L1978.96 184.464 L1971.51 184.464 L1971.51 139.094 M1971.51 121.432 L1978.96 121.432 L1978.96 130.871 L1971.51 130.871 L1971.51 121.432 Z" fill="#000000" fill-rule="nonzero" fill-opacity="1" /><path clip-path="url(#clip340)" d="M1991.31 139.094 L2026.72 139.094 L2026.72 145.899 L1998.69 178.509 L2026.72 178.509 L2026.72 184.464 L1990.3 184.464 L1990.3 177.658 L2018.33 145.049 L1991.31 145.049 L1991.31 139.094 Z" fill="#000000" fill-rule="nonzero" fill-opacity="1" /><path clip-path="url(#clip340)" d="M2076.91 159.916 L2076.91 163.561 L2042.64 163.561 Q2043.13 171.258 2047.26 175.309 Q2051.43 179.319 2058.84 179.319 Q2063.14 179.319 2067.15 178.266 Q2071.2 177.213 2075.17 175.106 L2075.17 182.155 Q2071.16 183.856 2066.94 184.748 Q2062.73 185.639 2058.4 185.639 Q2047.54 185.639 2041.18 179.319 Q2034.86 173 2034.86 162.225 Q2034.86 151.085 2040.86 144.563 Q2046.89 138 2057.1 138 Q2066.26 138 2071.56 143.914 Q2076.91 149.788 2076.91 159.916 M2069.46 157.728 Q2069.37 151.611 2066.01 147.965 Q2062.69 144.32 2057.18 144.32 Q2050.94 144.32 2047.18 147.844 Q2043.45 151.368 2042.88 157.769 L2069.46 157.728 Z" fill="#000000" fill-rule="nonzero" fill-opacity="1" /><path clip-path="url(#clip340)" d="M2133.42 121.513 Q2127.99 130.83 2125.36 139.945 Q2122.73 149.059 2122.73 158.417 Q2122.73 167.774 2125.36 176.97 Q2128.03 186.125 2133.42 195.401 L2126.94 195.401 Q2120.86 185.882 2117.82 176.686 Q2114.83 167.491 2114.83 158.417 Q2114.83 149.383 2117.82 140.228 Q2120.82 131.073 2126.94 121.513 L2133.42 121.513 Z" fill="#000000" fill-rule="nonzero" fill-opacity="1" /><path clip-path="url(#clip340)" d="M2180.45 161.819 Q2180.45 153.596 2177.05 148.938 Q2173.69 144.239 2167.77 144.239 Q2161.86 144.239 2158.45 148.938 Q2155.09 153.596 2155.09 161.819 Q2155.09 170.043 2158.45 174.742 Q2161.86 179.4 2167.77 179.4 Q2173.69 179.4 2177.05 174.742 Q2180.45 170.043 2180.45 161.819 M2155.09 145.98 Q2157.44 141.93 2161.01 139.985 Q2164.61 138 2169.59 138 Q2177.86 138 2183 144.563 Q2188.19 151.125 2188.19 161.819 Q2188.19 172.514 2183 179.076 Q2177.86 185.639 2169.59 185.639 Q2164.61 185.639 2161.01 183.694 Q2157.44 181.709 2155.09 177.658 L2155.09 184.464 L2147.6 184.464 L2147.6 121.432 L2155.09 121.432 L2155.09 145.98 Z" fill="#000000" fill-rule="nonzero" fill-opacity="1" /><path clip-path="url(#clip340)" d="M2221.16 161.657 Q2212.13 161.657 2208.65 163.723 Q2205.16 165.789 2205.16 170.772 Q2205.16 174.742 2207.75 177.091 Q2210.39 179.4 2214.88 179.4 Q2221.08 179.4 2224.81 175.025 Q2228.58 170.61 2228.58 163.318 L2228.58 161.657 L2221.16 161.657 M2236.03 158.579 L2236.03 184.464 L2228.58 184.464 L2228.58 177.577 Q2226.02 181.709 2222.22 183.694 Q2218.41 185.639 2212.9 185.639 Q2205.93 185.639 2201.8 181.75 Q2197.71 177.821 2197.71 171.258 Q2197.71 163.602 2202.81 159.713 Q2207.96 155.824 2218.12 155.824 L2228.58 155.824 L2228.58 155.095 Q2228.58 149.95 2225.17 147.155 Q2221.81 144.32 2215.69 144.32 Q2211.8 144.32 2208.12 145.251 Q2204.43 146.183 2201.03 148.046 L2201.03 141.16 Q2205.12 139.58 2208.97 138.81 Q2212.82 138 2216.46 138 Q2226.31 138 2231.17 143.104 Q2236.03 148.208 2236.03 158.579 Z" fill="#000000" fill-rule="nonzero" fill-opacity="1" /><path clip-path="url(#clip340)" d="M2277.67 146.061 Q2276.42 145.332 2274.92 145.008 Q2273.46 144.644 2271.68 144.644 Q2265.36 144.644 2261.95 148.776 Q2258.59 152.867 2258.59 160.564 L2258.59 184.464 L2251.1 184.464 L2251.1 139.094 L2258.59 139.094 L2258.59 146.142 Q2260.94 142.011 2264.71 140.026 Q2268.48 138 2273.86 138 Q2274.63 138 2275.57 138.122 Q2276.5 138.203 2277.63 138.405 L2277.67 146.061 Z" fill="#000000" fill-rule="nonzero" fill-opacity="1" /><path clip-path="url(#clip340)" d="M2284.32 121.513 L2290.8 121.513 Q2296.87 131.073 2299.87 140.228 Q2302.91 149.383 2302.91 158.417 Q2302.91 167.491 2299.87 176.686 Q2296.87 185.882 2290.8 195.401 L2284.32 195.401 Q2289.7 186.125 2292.34 176.97 Q2295.01 167.774 2295.01 158.417 Q2295.01 149.059 2292.34 139.945 Q2289.7 130.83 2284.32 121.513 Z" fill="#000000" fill-rule="nonzero" fill-opacity="1" /><path clip-path="url(#clip340)" d="M2340.46 158.822 L2415.32 158.822 L2415.32 164.655 L2340.46 164.655 L2340.46 158.822 Z" fill="#000000" fill-rule="nonzero" fill-opacity="1" /><path clip-path="url(#clip340)" d="M2486.13 161.819 Q2486.13 153.596 2482.73 148.938 Q2479.37 144.239 2473.45 144.239 Q2467.54 144.239 2464.14 148.938 Q2460.77 153.596 2460.77 161.819 Q2460.77 170.043 2464.14 174.742 Q2467.54 179.4 2473.45 179.4 Q2479.37 179.4 2482.73 174.742 Q2486.13 170.043 2486.13 161.819 M2460.77 145.98 Q2463.12 141.93 2466.69 139.985 Q2470.29 138 2475.28 138 Q2483.54 138 2488.68 144.563 Q2493.87 151.125 2493.87 161.819 Q2493.87 172.514 2488.68 179.076 Q2483.54 185.639 2475.28 185.639 Q2470.29 185.639 2466.69 183.694 Q2463.12 181.709 2460.77 177.658 L2460.77 184.464 L2453.28 184.464 L2453.28 121.432 L2460.77 121.432 L2460.77 145.98 Z" fill="#000000" fill-rule="nonzero" fill-opacity="1" /><path clip-path="url(#clip340)" d="M2545.03 159.916 L2545.03 163.561 L2510.76 163.561 Q2511.25 171.258 2515.38 175.309 Q2519.55 179.319 2526.97 179.319 Q2531.26 179.319 2535.27 178.266 Q2539.32 177.213 2543.29 175.106 L2543.29 182.155 Q2539.28 183.856 2535.07 184.748 Q2530.85 185.639 2526.52 185.639 Q2515.66 185.639 2509.3 179.319 Q2502.98 173 2502.98 162.225 Q2502.98 151.085 2508.98 144.563 Q2515.01 138 2525.22 138 Q2534.38 138 2539.68 143.914 Q2545.03 149.788 2545.03 159.916 M2537.58 157.728 Q2537.5 151.611 2534.14 147.965 Q2530.81 144.32 2525.3 144.32 Q2519.07 144.32 2515.3 147.844 Q2511.57 151.368 2511 157.769 L2537.58 157.728 Z" fill="#000000" fill-rule="nonzero" fill-opacity="1" /><path clip-path="url(#clip340)" d="M2577.88 161.657 Q2568.85 161.657 2565.37 163.723 Q2561.88 165.789 2561.88 170.772 Q2561.88 174.742 2564.48 177.091 Q2567.11 179.4 2571.61 179.4 Q2577.8 179.4 2581.53 175.025 Q2585.3 170.61 2585.3 163.318 L2585.3 161.657 L2577.88 161.657 M2592.75 158.579 L2592.75 184.464 L2585.3 184.464 L2585.3 177.577 Q2582.75 181.709 2578.94 183.694 Q2575.13 185.639 2569.62 185.639 Q2562.65 185.639 2558.52 181.75 Q2554.43 177.821 2554.43 171.258 Q2554.43 163.602 2559.53 159.713 Q2564.68 155.824 2574.85 155.824 L2585.3 155.824 L2585.3 155.095 Q2585.3 149.95 2581.9 147.155 Q2578.53 144.32 2572.42 144.32 Q2568.53 144.32 2564.84 145.251 Q2561.15 146.183 2557.75 148.046 L2557.75 141.16 Q2561.84 139.58 2565.69 138.81 Q2569.54 138 2573.19 138 Q2583.03 138 2587.89 143.104 Q2592.75 148.208 2592.75 158.579 Z" fill="#000000" fill-rule="nonzero" fill-opacity="1" /><path clip-path="url(#clip340)" d="M2643.43 147.803 Q2646.22 142.78 2650.11 140.39 Q2654 138 2659.27 138 Q2666.36 138 2670.21 142.983 Q2674.05 147.925 2674.05 157.08 L2674.05 184.464 L2666.56 184.464 L2666.56 157.323 Q2666.56 150.801 2664.25 147.641 Q2661.94 144.482 2657.2 144.482 Q2651.41 144.482 2648.05 148.33 Q2644.68 152.178 2644.68 158.822 L2644.68 184.464 L2637.19 184.464 L2637.19 157.323 Q2637.19 150.76 2634.88 147.641 Q2632.57 144.482 2627.75 144.482 Q2622.04 144.482 2618.68 148.37 Q2615.32 152.219 2615.32 158.822 L2615.32 184.464 L2607.82 184.464 L2607.82 139.094 L2615.32 139.094 L2615.32 146.142 Q2617.87 141.97 2621.43 139.985 Q2625 138 2629.9 138 Q2634.84 138 2638.28 140.512 Q2641.77 143.023 2643.43 147.803 Z" fill="#000000" fill-rule="nonzero" fill-opacity="1" /><path clip-path="url(#clip342)" d="M449.861 2146.23 L449.861 2156.51 L522.706 2156.51 L522.706 2146.23 L449.861 2146.23 L449.861 2146.23  Z" fill="#ff8c00" fill-rule="evenodd" fill-opacity="1"/>
<polyline clip-path="url(#clip342)" style="stroke:#000000; stroke-linecap:round; stroke-linejoin:round; stroke-width:0; stroke-opacity:0; fill:none" points="449.861,2146.23 449.861,2156.51 522.706,2156.51 522.706,2146.23 449.861,2146.23 "/>
<path clip-path="url(#clip342)" d="M1360.42 1991.44 L1360.42 2156.51 L1433.27 2156.51 L1433.27 1991.44 L1360.42 1991.44 L1360.42 1991.44  Z" fill="#ff8c00" fill-rule="evenodd" fill-opacity="1"/>
<polyline clip-path="url(#clip342)" style="stroke:#000000; stroke-linecap:round; stroke-linejoin:round; stroke-width:0; stroke-opacity:0; fill:none" points="1360.42,1991.44 1360.42,2156.51 1433.27,2156.51 1433.27,1991.44 1360.42,1991.44 "/>
<path clip-path="url(#clip342)" d="M2270.98 1342.37 L2270.98 2156.51 L2343.83 2156.51 L2343.83 1342.37 L2270.98 1342.37 L2270.98 1342.37  Z" fill="#ff8c00" fill-rule="evenodd" fill-opacity="1"/>
<polyline clip-path="url(#clip342)" style="stroke:#000000; stroke-linecap:round; stroke-linejoin:round; stroke-width:0; stroke-opacity:0; fill:none" points="2270.98,1342.37 2270.98,2156.51 2343.83,2156.51 2343.83,1342.37 2270.98,1342.37 "/>
<path clip-path="url(#clip342)" d="M3181.54 246.944 L3181.54 2156.51 L3254.39 2156.51 L3254.39 246.944 L3181.54 246.944 L3181.54 246.944  Z" fill="#ff8c00" fill-rule="evenodd" fill-opacity="1"/>
<polyline clip-path="url(#clip342)" style="stroke:#000000; stroke-linecap:round; stroke-linejoin:round; stroke-width:0; stroke-opacity:0; fill:none" points="3181.54,246.944 3181.54,2156.51 3254.39,2156.51 3254.39,246.944 3181.54,246.944 "/>
<circle clip-path="url(#clip342)" style="fill:#ff8c00; stroke:none; fill-opacity:0" cx="486.284" cy="2146.23" r="2"/>
<circle clip-path="url(#clip342)" style="fill:#ff8c00; stroke:none; fill-opacity:0" cx="1396.84" cy="1991.44" r="2"/>
<circle clip-path="url(#clip342)" style="fill:#ff8c00; stroke:none; fill-opacity:0" cx="2307.4" cy="1342.37" r="2"/>
<circle clip-path="url(#clip342)" style="fill:#ff8c00; stroke:none; fill-opacity:0" cx="3217.96" cy="246.944" r="2"/>
<path clip-path="url(#clip342)" d="M571.269 2118.19 L571.269 2156.51 L644.114 2156.51 L644.114 2118.19 L571.269 2118.19 L571.269 2118.19  Z" fill="#48d1cc" fill-rule="evenodd" fill-opacity="1"/>
<polyline clip-path="url(#clip342)" style="stroke:#000000; stroke-linecap:round; stroke-linejoin:round; stroke-width:0; stroke-opacity:0; fill:none" points="571.269,2118.19 571.269,2156.51 644.114,2156.51 644.114,2118.19 571.269,2118.19 "/>
<path clip-path="url(#clip342)" d="M1481.83 2025.72 L1481.83 2156.51 L1554.67 2156.51 L1554.67 2025.72 L1481.83 2025.72 L1481.83 2025.72  Z" fill="#48d1cc" fill-rule="evenodd" fill-opacity="1"/>
<polyline clip-path="url(#clip342)" style="stroke:#000000; stroke-linecap:round; stroke-linejoin:round; stroke-width:0; stroke-opacity:0; fill:none" points="1481.83,2025.72 1481.83,2156.51 1554.67,2156.51 1554.67,2025.72 1481.83,2025.72 "/>
<path clip-path="url(#clip342)" d="M2392.39 1897.05 L2392.39 2156.51 L2465.23 2156.51 L2465.23 1897.05 L2392.39 1897.05 L2392.39 1897.05  Z" fill="#48d1cc" fill-rule="evenodd" fill-opacity="1"/>
<polyline clip-path="url(#clip342)" style="stroke:#000000; stroke-linecap:round; stroke-linejoin:round; stroke-width:0; stroke-opacity:0; fill:none" points="2392.39,1897.05 2392.39,2156.51 2465.23,2156.51 2465.23,1897.05 2392.39,1897.05 "/>
<path clip-path="url(#clip342)" d="M3302.95 1793.69 L3302.95 2156.51 L3375.79 2156.51 L3375.79 1793.69 L3302.95 1793.69 L3302.95 1793.69  Z" fill="#48d1cc" fill-rule="evenodd" fill-opacity="1"/>
<polyline clip-path="url(#clip342)" style="stroke:#000000; stroke-linecap:round; stroke-linejoin:round; stroke-width:0; stroke-opacity:0; fill:none" points="3302.95,1793.69 3302.95,2156.51 3375.79,2156.51 3375.79,1793.69 3302.95,1793.69 "/>
<circle clip-path="url(#clip342)" style="fill:#48d1cc; stroke:none; fill-opacity:0" cx="607.692" cy="2118.19" r="2"/>
<circle clip-path="url(#clip342)" style="fill:#48d1cc; stroke:none; fill-opacity:0" cx="1518.25" cy="2025.72" r="2"/>
<circle clip-path="url(#clip342)" style="fill:#48d1cc; stroke:none; fill-opacity:0" cx="2428.81" cy="1897.05" r="2"/>
<circle clip-path="url(#clip342)" style="fill:#48d1cc; stroke:none; fill-opacity:0" cx="3339.37" cy="1793.69" r="2"/>
<path clip-path="url(#clip340)" d="M382.228 466.116 L1147.2 466.116 L1147.2 310.596 L382.228 310.596  Z" fill="#ffffff" fill-rule="evenodd" fill-opacity="1"/>
<polyline clip-path="url(#clip340)" style="stroke:#000000; stroke-linecap:round; stroke-linejoin:round; stroke-width:4; stroke-opacity:1; fill:none" points="382.228,466.116 1147.2,466.116 1147.2,310.596 382.228,310.596 382.228,466.116 "/>
<path clip-path="url(#clip340)" d="M418.671 383.172 L637.328 383.172 L637.328 341.7 L418.671 341.7 L418.671 383.172  Z" fill="#ff8c00" fill-rule="evenodd" fill-opacity="1"/>
<polyline clip-path="url(#clip340)" style="stroke:#000000; stroke-linecap:round; stroke-linejoin:round; stroke-width:0.8; stroke-opacity:0; fill:none" points="418.671,383.172 637.328,383.172 637.328,341.7 418.671,341.7 418.671,383.172 "/>
<path clip-path="url(#clip340)" d="M684.396 343.744 Q681.294 349.068 679.789 354.277 Q678.285 359.485 678.285 364.832 Q678.285 370.179 679.789 375.434 Q681.317 380.665 684.396 385.966 L680.692 385.966 Q677.22 380.527 675.484 375.272 Q673.771 370.017 673.771 364.832 Q673.771 359.67 675.484 354.439 Q677.197 349.207 680.692 343.744 L684.396 343.744 Z" fill="#000000" fill-rule="nonzero" fill-opacity="1" /><path clip-path="url(#clip340)" d="M714.836 365.689 L714.836 367.772 L695.252 367.772 Q695.53 372.17 697.891 374.485 Q700.275 376.777 704.512 376.777 Q706.965 376.777 709.257 376.175 Q711.572 375.573 713.84 374.369 L713.84 378.397 Q711.548 379.369 709.141 379.878 Q706.734 380.388 704.257 380.388 Q698.053 380.388 694.419 376.777 Q690.808 373.165 690.808 367.008 Q690.808 360.642 694.234 356.916 Q697.683 353.166 703.516 353.166 Q708.748 353.166 711.78 356.545 Q714.836 359.902 714.836 365.689 M710.576 364.439 Q710.53 360.943 708.609 358.86 Q706.711 356.777 703.562 356.777 Q699.998 356.777 697.845 358.791 Q695.715 360.804 695.391 364.462 L710.576 364.439 Z" fill="#000000" fill-rule="nonzero" fill-opacity="1" /><path clip-path="url(#clip340)" d="M742.544 353.791 L733.169 366.406 L743.03 379.716 L738.007 379.716 L730.46 369.531 L722.914 379.716 L717.891 379.716 L727.96 366.152 L718.748 353.791 L723.771 353.791 L730.646 363.027 L737.521 353.791 L742.544 353.791 Z" fill="#000000" fill-rule="nonzero" fill-opacity="1" /><path clip-path="url(#clip340)" d="M760.831 366.684 Q755.669 366.684 753.678 367.865 Q751.687 369.045 751.687 371.892 Q751.687 374.161 753.169 375.503 Q754.673 376.823 757.243 376.823 Q760.784 376.823 762.914 374.323 Q765.067 371.8 765.067 367.633 L765.067 366.684 L760.831 366.684 M769.326 364.925 L769.326 379.716 L765.067 379.716 L765.067 375.781 Q763.608 378.142 761.432 379.277 Q759.257 380.388 756.108 380.388 Q752.127 380.388 749.766 378.165 Q747.428 375.92 747.428 372.17 Q747.428 367.795 750.345 365.573 Q753.284 363.351 759.095 363.351 L765.067 363.351 L765.067 362.934 Q765.067 359.994 763.122 358.397 Q761.201 356.777 757.706 356.777 Q755.483 356.777 753.377 357.309 Q751.271 357.841 749.326 358.906 L749.326 354.971 Q751.664 354.068 753.863 353.629 Q756.062 353.166 758.145 353.166 Q763.77 353.166 766.548 356.082 Q769.326 358.999 769.326 364.925 Z" fill="#000000" fill-rule="nonzero" fill-opacity="1" /><path clip-path="url(#clip340)" d="M779.187 373.837 L784.071 373.837 L784.071 377.818 L780.275 385.226 L777.289 385.226 L779.187 377.818 L779.187 373.837 Z" fill="#000000" fill-rule="nonzero" fill-opacity="1" /><path clip-path="url(#clip340)" d="M828.423 358.767 Q830.02 355.897 832.242 354.531 Q834.465 353.166 837.474 353.166 Q841.525 353.166 843.724 356.013 Q845.923 358.837 845.923 364.068 L845.923 379.716 L841.64 379.716 L841.64 364.207 Q841.64 360.48 840.321 358.675 Q839.002 356.869 836.293 356.869 Q832.983 356.869 831.062 359.068 Q829.14 361.267 829.14 365.064 L829.14 379.716 L824.858 379.716 L824.858 364.207 Q824.858 360.457 823.539 358.675 Q822.219 356.869 819.465 356.869 Q816.201 356.869 814.279 359.091 Q812.358 361.291 812.358 365.064 L812.358 379.716 L808.076 379.716 L808.076 353.791 L812.358 353.791 L812.358 357.818 Q813.816 355.434 815.853 354.3 Q817.891 353.166 820.691 353.166 Q823.515 353.166 825.483 354.601 Q827.474 356.036 828.423 358.767 Z" fill="#000000" fill-rule="nonzero" fill-opacity="1" /><path clip-path="url(#clip340)" d="M866.2 366.684 Q861.038 366.684 859.048 367.865 Q857.057 369.045 857.057 371.892 Q857.057 374.161 858.538 375.503 Q860.043 376.823 862.613 376.823 Q866.154 376.823 868.284 374.323 Q870.437 371.8 870.437 367.633 L870.437 366.684 L866.2 366.684 M874.696 364.925 L874.696 379.716 L870.437 379.716 L870.437 375.781 Q868.978 378.142 866.802 379.277 Q864.626 380.388 861.478 380.388 Q857.497 380.388 855.136 378.165 Q852.798 375.92 852.798 372.17 Q852.798 367.795 855.714 365.573 Q858.654 363.351 864.464 363.351 L870.437 363.351 L870.437 362.934 Q870.437 359.994 868.492 358.397 Q866.571 356.777 863.075 356.777 Q860.853 356.777 858.747 357.309 Q856.64 357.841 854.696 358.906 L854.696 354.971 Q857.034 354.068 859.233 353.629 Q861.432 353.166 863.515 353.166 Q869.14 353.166 871.918 356.082 Q874.696 358.999 874.696 364.925 Z" fill="#000000" fill-rule="nonzero" fill-opacity="1" /><path clip-path="url(#clip340)" d="M900.529 357.726 L900.529 343.698 L904.788 343.698 L904.788 379.716 L900.529 379.716 L900.529 375.827 Q899.186 378.142 897.126 379.277 Q895.089 380.388 892.219 380.388 Q887.52 380.388 884.557 376.638 Q881.617 372.888 881.617 366.777 Q881.617 360.666 884.557 356.916 Q887.52 353.166 892.219 353.166 Q895.089 353.166 897.126 354.3 Q899.186 355.411 900.529 357.726 M886.015 366.777 Q886.015 371.476 887.936 374.161 Q889.881 376.823 893.26 376.823 Q896.64 376.823 898.585 374.161 Q900.529 371.476 900.529 366.777 Q900.529 362.078 898.585 359.416 Q896.64 356.73 893.26 356.73 Q889.881 356.73 887.936 359.416 Q886.015 362.078 886.015 366.777 Z" fill="#000000" fill-rule="nonzero" fill-opacity="1" /><path clip-path="url(#clip340)" d="M935.112 364.068 L935.112 379.716 L930.853 379.716 L930.853 364.207 Q930.853 360.527 929.418 358.698 Q927.983 356.869 925.112 356.869 Q921.663 356.869 919.672 359.068 Q917.682 361.267 917.682 365.064 L917.682 379.716 L913.399 379.716 L913.399 353.791 L917.682 353.791 L917.682 357.818 Q919.209 355.48 921.27 354.323 Q923.353 353.166 926.061 353.166 Q930.529 353.166 932.82 355.943 Q935.112 358.698 935.112 364.068 Z" fill="#000000" fill-rule="nonzero" fill-opacity="1" /><path clip-path="url(#clip340)" d="M943.607 343.698 L947.867 343.698 L947.867 379.716 L943.607 379.716 L943.607 343.698 Z" fill="#000000" fill-rule="nonzero" fill-opacity="1" /><path clip-path="url(#clip340)" d="M960.899 375.827 L960.899 389.577 L956.617 389.577 L956.617 353.791 L960.899 353.791 L960.899 357.726 Q962.242 355.411 964.279 354.3 Q966.339 353.166 969.186 353.166 Q973.908 353.166 976.848 356.916 Q979.811 360.666 979.811 366.777 Q979.811 372.888 976.848 376.638 Q973.908 380.388 969.186 380.388 Q966.339 380.388 964.279 379.277 Q962.242 378.142 960.899 375.827 M975.39 366.777 Q975.39 362.078 973.445 359.416 Q971.524 356.73 968.144 356.73 Q964.765 356.73 962.82 359.416 Q960.899 362.078 960.899 366.777 Q960.899 371.476 962.82 374.161 Q964.765 376.823 968.144 376.823 Q971.524 376.823 973.445 374.161 Q975.39 371.476 975.39 366.777 Z" fill="#000000" fill-rule="nonzero" fill-opacity="1" /><path clip-path="url(#clip340)" d="M986.2 343.744 L989.903 343.744 Q993.376 349.207 995.089 354.439 Q996.825 359.67 996.825 364.832 Q996.825 370.017 995.089 375.272 Q993.376 380.527 989.903 385.966 L986.2 385.966 Q989.278 380.665 990.783 375.434 Q992.311 370.179 992.311 364.832 Q992.311 359.485 990.783 354.277 Q989.278 349.068 986.2 343.744 Z" fill="#000000" fill-rule="nonzero" fill-opacity="1" /><path clip-path="url(#clip340)" d="M418.671 435.012 L637.328 435.012 L637.328 393.54 L418.671 393.54 L418.671 435.012  Z" fill="#48d1cc" fill-rule="evenodd" fill-opacity="1"/>
<polyline clip-path="url(#clip340)" style="stroke:#000000; stroke-linecap:round; stroke-linejoin:round; stroke-width:0.8; stroke-opacity:0; fill:none" points="418.671,435.012 637.328,435.012 637.328,393.54 418.671,393.54 418.671,435.012 "/>
<path clip-path="url(#clip340)" d="M684.396 395.584 Q681.294 400.908 679.789 406.117 Q678.285 411.325 678.285 416.672 Q678.285 422.019 679.789 427.274 Q681.317 432.505 684.396 437.806 L680.692 437.806 Q677.22 432.367 675.484 427.112 Q673.771 421.857 673.771 416.672 Q673.771 411.51 675.484 406.279 Q677.197 401.047 680.692 395.584 L684.396 395.584 Z" fill="#000000" fill-rule="nonzero" fill-opacity="1" /><path clip-path="url(#clip340)" d="M714.836 417.529 L714.836 419.612 L695.252 419.612 Q695.53 424.01 697.891 426.325 Q700.275 428.617 704.512 428.617 Q706.965 428.617 709.257 428.015 Q711.572 427.413 713.84 426.209 L713.84 430.237 Q711.548 431.209 709.141 431.718 Q706.734 432.228 704.257 432.228 Q698.053 432.228 694.419 428.617 Q690.808 425.005 690.808 418.848 Q690.808 412.482 694.234 408.756 Q697.683 405.006 703.516 405.006 Q708.748 405.006 711.78 408.385 Q714.836 411.742 714.836 417.529 M710.576 416.279 Q710.53 412.783 708.609 410.7 Q706.711 408.617 703.562 408.617 Q699.998 408.617 697.845 410.631 Q695.715 412.644 695.391 416.302 L710.576 416.279 Z" fill="#000000" fill-rule="nonzero" fill-opacity="1" /><path clip-path="url(#clip340)" d="M742.544 405.631 L733.169 418.246 L743.03 431.556 L738.007 431.556 L730.46 421.371 L722.914 431.556 L717.891 431.556 L727.96 417.992 L718.748 405.631 L723.771 405.631 L730.646 414.867 L737.521 405.631 L742.544 405.631 Z" fill="#000000" fill-rule="nonzero" fill-opacity="1" /><path clip-path="url(#clip340)" d="M760.831 418.524 Q755.669 418.524 753.678 419.705 Q751.687 420.885 751.687 423.732 Q751.687 426.001 753.169 427.343 Q754.673 428.663 757.243 428.663 Q760.784 428.663 762.914 426.163 Q765.067 423.64 765.067 419.473 L765.067 418.524 L760.831 418.524 M769.326 416.765 L769.326 431.556 L765.067 431.556 L765.067 427.621 Q763.608 429.982 761.432 431.117 Q759.257 432.228 756.108 432.228 Q752.127 432.228 749.766 430.005 Q747.428 427.76 747.428 424.01 Q747.428 419.635 750.345 417.413 Q753.284 415.191 759.095 415.191 L765.067 415.191 L765.067 414.774 Q765.067 411.834 763.122 410.237 Q761.201 408.617 757.706 408.617 Q755.483 408.617 753.377 409.149 Q751.271 409.681 749.326 410.746 L749.326 406.811 Q751.664 405.908 753.863 405.469 Q756.062 405.006 758.145 405.006 Q763.77 405.006 766.548 407.922 Q769.326 410.839 769.326 416.765 Z" fill="#000000" fill-rule="nonzero" fill-opacity="1" /><path clip-path="url(#clip340)" d="M797.798 439.427 L797.798 442.737 L773.169 442.737 L773.169 439.427 L797.798 439.427 Z" fill="#000000" fill-rule="nonzero" fill-opacity="1" /><path clip-path="url(#clip340)" d="M818.863 418.293 Q818.863 413.663 816.941 411.117 Q815.043 408.57 811.594 408.57 Q808.168 408.57 806.247 411.117 Q804.349 413.663 804.349 418.293 Q804.349 422.899 806.247 425.445 Q808.168 427.992 811.594 427.992 Q815.043 427.992 816.941 425.445 Q818.863 422.899 818.863 418.293 M823.122 428.339 Q823.122 434.959 820.182 438.177 Q817.242 441.417 811.178 441.417 Q808.932 441.417 806.942 441.07 Q804.951 440.746 803.076 440.052 L803.076 435.908 Q804.951 436.927 806.779 437.413 Q808.608 437.899 810.506 437.899 Q814.696 437.899 816.779 435.7 Q818.863 433.524 818.863 429.103 L818.863 426.996 Q817.543 429.288 815.483 430.422 Q813.423 431.556 810.553 431.556 Q805.784 431.556 802.867 427.922 Q799.951 424.288 799.951 418.293 Q799.951 412.274 802.867 408.64 Q805.784 405.006 810.553 405.006 Q813.423 405.006 815.483 406.14 Q817.543 407.274 818.863 409.566 L818.863 405.631 L823.122 405.631 L823.122 428.339 Z" fill="#000000" fill-rule="nonzero" fill-opacity="1" /><path clip-path="url(#clip340)" d="M836.015 427.667 L836.015 441.417 L831.733 441.417 L831.733 405.631 L836.015 405.631 L836.015 409.566 Q837.358 407.251 839.395 406.14 Q841.455 405.006 844.302 405.006 Q849.025 405.006 851.964 408.756 Q854.927 412.506 854.927 418.617 Q854.927 424.728 851.964 428.478 Q849.025 432.228 844.302 432.228 Q841.455 432.228 839.395 431.117 Q837.358 429.982 836.015 427.667 M850.506 418.617 Q850.506 413.918 848.562 411.256 Q846.64 408.57 843.261 408.57 Q839.881 408.57 837.937 411.256 Q836.015 413.918 836.015 418.617 Q836.015 423.316 837.937 426.001 Q839.881 428.663 843.261 428.663 Q846.64 428.663 848.562 426.001 Q850.506 423.316 850.506 418.617 Z" fill="#000000" fill-rule="nonzero" fill-opacity="1" /><path clip-path="url(#clip340)" d="M861.548 421.325 L861.548 405.631 L865.807 405.631 L865.807 421.163 Q865.807 424.843 867.242 426.695 Q868.677 428.524 871.548 428.524 Q874.997 428.524 876.987 426.325 Q879.001 424.126 879.001 420.33 L879.001 405.631 L883.261 405.631 L883.261 431.556 L879.001 431.556 L879.001 427.575 Q877.45 429.936 875.39 431.093 Q873.353 432.228 870.645 432.228 Q866.177 432.228 863.862 429.45 Q861.548 426.672 861.548 421.325 M872.265 405.006 L872.265 405.006 Z" fill="#000000" fill-rule="nonzero" fill-opacity="1" /><path clip-path="url(#clip340)" d="M893.122 425.677 L898.006 425.677 L898.006 429.658 L894.21 437.066 L891.223 437.066 L893.122 429.658 L893.122 425.677 Z" fill="#000000" fill-rule="nonzero" fill-opacity="1" /><path clip-path="url(#clip340)" d="M942.357 410.607 Q943.955 407.737 946.177 406.371 Q948.399 405.006 951.408 405.006 Q955.459 405.006 957.658 407.853 Q959.857 410.677 959.857 415.908 L959.857 431.556 L955.575 431.556 L955.575 416.047 Q955.575 412.32 954.256 410.515 Q952.936 408.709 950.228 408.709 Q946.918 408.709 944.996 410.908 Q943.075 413.107 943.075 416.904 L943.075 431.556 L938.793 431.556 L938.793 416.047 Q938.793 412.297 937.473 410.515 Q936.154 408.709 933.399 408.709 Q930.135 408.709 928.214 410.931 Q926.293 413.131 926.293 416.904 L926.293 431.556 L922.01 431.556 L922.01 405.631 L926.293 405.631 L926.293 409.658 Q927.751 407.274 929.788 406.14 Q931.825 405.006 934.626 405.006 Q937.45 405.006 939.418 406.441 Q941.408 407.876 942.357 410.607 Z" fill="#000000" fill-rule="nonzero" fill-opacity="1" /><path clip-path="url(#clip340)" d="M980.135 418.524 Q974.973 418.524 972.982 419.705 Q970.992 420.885 970.992 423.732 Q970.992 426.001 972.473 427.343 Q973.978 428.663 976.547 428.663 Q980.089 428.663 982.218 426.163 Q984.371 423.64 984.371 419.473 L984.371 418.524 L980.135 418.524 M988.63 416.765 L988.63 431.556 L984.371 431.556 L984.371 427.621 Q982.913 429.982 980.737 431.117 Q978.561 432.228 975.413 432.228 Q971.431 432.228 969.07 430.005 Q966.732 427.76 966.732 424.01 Q966.732 419.635 969.649 417.413 Q972.589 415.191 978.399 415.191 L984.371 415.191 L984.371 414.774 Q984.371 411.834 982.427 410.237 Q980.505 408.617 977.01 408.617 Q974.788 408.617 972.681 409.149 Q970.575 409.681 968.63 410.746 L968.63 406.811 Q970.968 405.908 973.167 405.469 Q975.367 405.006 977.45 405.006 Q983.075 405.006 985.853 407.922 Q988.63 410.839 988.63 416.765 Z" fill="#000000" fill-rule="nonzero" fill-opacity="1" /><path clip-path="url(#clip340)" d="M1014.46 409.566 L1014.46 395.538 L1018.72 395.538 L1018.72 431.556 L1014.46 431.556 L1014.46 427.667 Q1013.12 429.982 1011.06 431.117 Q1009.02 432.228 1006.15 432.228 Q1001.45 432.228 998.491 428.478 Q995.552 424.728 995.552 418.617 Q995.552 412.506 998.491 408.756 Q1001.45 405.006 1006.15 405.006 Q1009.02 405.006 1011.06 406.14 Q1013.12 407.251 1014.46 409.566 M999.95 418.617 Q999.95 423.316 1001.87 426.001 Q1003.82 428.663 1007.2 428.663 Q1010.57 428.663 1012.52 426.001 Q1014.46 423.316 1014.46 418.617 Q1014.46 413.918 1012.52 411.256 Q1010.57 408.57 1007.2 408.57 Q1003.82 408.57 1001.87 411.256 Q999.95 413.918 999.95 418.617 Z" fill="#000000" fill-rule="nonzero" fill-opacity="1" /><path clip-path="url(#clip340)" d="M1049.05 415.908 L1049.05 431.556 L1044.79 431.556 L1044.79 416.047 Q1044.79 412.367 1043.35 410.538 Q1041.92 408.709 1039.05 408.709 Q1035.6 408.709 1033.61 410.908 Q1031.62 413.107 1031.62 416.904 L1031.62 431.556 L1027.33 431.556 L1027.33 405.631 L1031.62 405.631 L1031.62 409.658 Q1033.14 407.32 1035.2 406.163 Q1037.29 405.006 1040 405.006 Q1044.46 405.006 1046.76 407.783 Q1049.05 410.538 1049.05 415.908 Z" fill="#000000" fill-rule="nonzero" fill-opacity="1" /><path clip-path="url(#clip340)" d="M1057.54 395.538 L1061.8 395.538 L1061.8 431.556 L1057.54 431.556 L1057.54 395.538 Z" fill="#000000" fill-rule="nonzero" fill-opacity="1" /><path clip-path="url(#clip340)" d="M1074.83 427.667 L1074.83 441.417 L1070.55 441.417 L1070.55 405.631 L1074.83 405.631 L1074.83 409.566 Q1076.18 407.251 1078.21 406.14 Q1080.27 405.006 1083.12 405.006 Q1087.84 405.006 1090.78 408.756 Q1093.75 412.506 1093.75 418.617 Q1093.75 424.728 1090.78 428.478 Q1087.84 432.228 1083.12 432.228 Q1080.27 432.228 1078.21 431.117 Q1076.18 429.982 1074.83 427.667 M1089.32 418.617 Q1089.32 413.918 1087.38 411.256 Q1085.46 408.57 1082.08 408.57 Q1078.7 408.57 1076.75 411.256 Q1074.83 413.918 1074.83 418.617 Q1074.83 423.316 1076.75 426.001 Q1078.7 428.663 1082.08 428.663 Q1085.46 428.663 1087.38 426.001 Q1089.32 423.316 1089.32 418.617 Z" fill="#000000" fill-rule="nonzero" fill-opacity="1" /><path clip-path="url(#clip340)" d="M1100.13 395.584 L1103.84 395.584 Q1107.31 401.047 1109.02 406.279 Q1110.76 411.51 1110.76 416.672 Q1110.76 421.857 1109.02 427.112 Q1107.31 432.367 1103.84 437.806 L1100.13 437.806 Q1103.21 432.505 1104.72 427.274 Q1106.25 422.019 1106.25 416.672 Q1106.25 411.325 1104.72 406.117 Q1103.21 400.908 1100.13 395.584 Z" fill="#000000" fill-rule="nonzero" fill-opacity="1" /></svg>
