<?xml version="1.0" encoding="utf-8"?>
<svg xmlns="http://www.w3.org/2000/svg" xmlns:xlink="http://www.w3.org/1999/xlink" width="900" height="600" viewBox="0 0 3600 2400">
<defs>
  <clipPath id="clip550">
    <rect x="0" y="0" width="3600" height="2400"/>
  </clipPath>
</defs>
<path clip-path="url(#clip550)" d="M0 2400 L3600 2400 L3600 0 L0 0  Z" fill="#ffffff" fill-rule="evenodd" fill-opacity="1"/>
<defs>
  <clipPath id="clip551">
    <rect x="290" y="246" width="3263" height="1911"/>
  </clipPath>
</defs>
<path clip-path="url(#clip550)" d="M322.044 2156.51 L3552.76 2156.51 L3552.76 246.944 L322.044 246.944  Z" fill="#ffffff" fill-rule="evenodd" fill-opacity="1"/>
<defs>
  <clipPath id="clip552">
    <rect x="322" y="246" width="3232" height="1911"/>
  </clipPath>
</defs>
<polyline clip-path="url(#clip552)" style="stroke:#000000; stroke-linecap:round; stroke-linejoin:round; stroke-width:2; stroke-opacity:0.1; fill:none" points="413.48,2156.51 413.48,246.944 "/>
<polyline clip-path="url(#clip552)" style="stroke:#000000; stroke-linecap:round; stroke-linejoin:round; stroke-width:2; stroke-opacity:0.1; fill:none" points="1175.44,2156.51 1175.44,246.944 "/>
<polyline clip-path="url(#clip552)" style="stroke:#000000; stroke-linecap:round; stroke-linejoin:round; stroke-width:2; stroke-opacity:0.1; fill:none" points="1937.4,2156.51 1937.4,246.944 "/>
<polyline clip-path="url(#clip552)" style="stroke:#000000; stroke-linecap:round; stroke-linejoin:round; stroke-width:2; stroke-opacity:0.1; fill:none" points="2699.36,2156.51 2699.36,246.944 "/>
<polyline clip-path="url(#clip552)" style="stroke:#000000; stroke-linecap:round; stroke-linejoin:round; stroke-width:2; stroke-opacity:0.1; fill:none" points="3461.32,2156.51 3461.32,246.944 "/>
<polyline clip-path="url(#clip552)" style="stroke:#000000; stroke-linecap:round; stroke-linejoin:round; stroke-width:2; stroke-opacity:0.1; fill:none" points="322.044,2081.71 3552.76,2081.71 "/>
<polyline clip-path="url(#clip552)" style="stroke:#000000; stroke-linecap:round; stroke-linejoin:round; stroke-width:2; stroke-opacity:0.1; fill:none" points="322.044,1091.2 3552.76,1091.2 "/>
<polyline clip-path="url(#clip550)" style="stroke:#000000; stroke-linecap:round; stroke-linejoin:round; stroke-width:4; stroke-opacity:1; fill:none" points="322.044,2156.51 3552.76,2156.51 "/>
<polyline clip-path="url(#clip550)" style="stroke:#000000; stroke-linecap:round; stroke-linejoin:round; stroke-width:4; stroke-opacity:1; fill:none" points="413.48,2156.51 413.48,2137.61 "/>
<polyline clip-path="url(#clip550)" style="stroke:#000000; stroke-linecap:round; stroke-linejoin:round; stroke-width:4; stroke-opacity:1; fill:none" points="1175.44,2156.51 1175.44,2137.61 "/>
<polyline clip-path="url(#clip550)" style="stroke:#000000; stroke-linecap:round; stroke-linejoin:round; stroke-width:4; stroke-opacity:1; fill:none" points="1937.4,2156.51 1937.4,2137.61 "/>
<polyline clip-path="url(#clip550)" style="stroke:#000000; stroke-linecap:round; stroke-linejoin:round; stroke-width:4; stroke-opacity:1; fill:none" points="2699.36,2156.51 2699.36,2137.61 "/>
<polyline clip-path="url(#clip550)" style="stroke:#000000; stroke-linecap:round; stroke-linejoin:round; stroke-width:4; stroke-opacity:1; fill:none" points="3461.32,2156.51 3461.32,2137.61 "/>
<path clip-path="url(#clip550)" d="M413.885 2209.36 Q410.736 2209.36 408.885 2211.52 Q407.056 2213.67 407.056 2217.42 Q407.056 2221.15 408.885 2223.32 Q410.736 2225.48 413.885 2225.48 Q417.033 2225.48 418.861 2223.32 Q420.713 2221.15 420.713 2217.42 Q420.713 2213.67 418.861 2211.52 Q417.033 2209.36 413.885 2209.36 M423.167 2194.71 L423.167 2198.97 Q421.408 2198.14 419.602 2197.7 Q417.82 2197.26 416.061 2197.26 Q411.431 2197.26 408.977 2200.38 Q406.547 2203.51 406.199 2209.83 Q407.565 2207.81 409.625 2206.75 Q411.686 2205.66 414.162 2205.66 Q419.371 2205.66 422.38 2208.83 Q425.412 2211.98 425.412 2217.42 Q425.412 2222.74 422.264 2225.96 Q419.116 2229.18 413.885 2229.18 Q407.889 2229.18 404.718 2224.6 Q401.547 2219.99 401.547 2211.26 Q401.547 2203.07 405.436 2198.21 Q409.324 2193.32 415.875 2193.32 Q417.635 2193.32 419.417 2193.67 Q421.223 2194.02 423.167 2194.71 Z" fill="#000000" fill-rule="nonzero" fill-opacity="1" /><path clip-path="url(#clip550)" d="M1175.44 2212.1 Q1172.11 2212.1 1170.19 2213.88 Q1168.29 2215.66 1168.29 2218.79 Q1168.29 2221.91 1170.19 2223.69 Q1172.11 2225.48 1175.44 2225.48 Q1178.77 2225.48 1180.69 2223.69 Q1182.62 2221.89 1182.62 2218.79 Q1182.62 2215.66 1180.69 2213.88 Q1178.8 2212.1 1175.44 2212.1 M1170.76 2210.11 Q1167.75 2209.36 1166.06 2207.3 Q1164.4 2205.24 1164.4 2202.28 Q1164.4 2198.14 1167.34 2195.73 Q1170.3 2193.32 1175.44 2193.32 Q1180.6 2193.32 1183.54 2195.73 Q1186.48 2198.14 1186.48 2202.28 Q1186.48 2205.24 1184.79 2207.3 Q1183.12 2209.36 1180.14 2210.11 Q1183.52 2210.89 1185.39 2213.18 Q1187.29 2215.48 1187.29 2218.79 Q1187.29 2223.81 1184.21 2226.49 Q1181.16 2229.18 1175.44 2229.18 Q1169.72 2229.18 1166.64 2226.49 Q1163.59 2223.81 1163.59 2218.79 Q1163.59 2215.48 1165.49 2213.18 Q1167.38 2210.89 1170.76 2210.11 M1169.05 2202.72 Q1169.05 2205.41 1170.72 2206.91 Q1172.41 2208.42 1175.44 2208.42 Q1178.45 2208.42 1180.14 2206.91 Q1181.85 2205.41 1181.85 2202.72 Q1181.85 2200.04 1180.14 2198.53 Q1178.45 2197.03 1175.44 2197.03 Q1172.41 2197.03 1170.72 2198.53 Q1169.05 2200.04 1169.05 2202.72 Z" fill="#000000" fill-rule="nonzero" fill-opacity="1" /><path clip-path="url(#clip550)" d="M1912.09 2224.57 L1919.73 2224.57 L1919.73 2198.21 L1911.42 2199.87 L1911.42 2195.61 L1919.68 2193.95 L1924.36 2193.95 L1924.36 2224.57 L1932 2224.57 L1932 2228.51 L1912.09 2228.51 L1912.09 2224.57 Z" fill="#000000" fill-rule="nonzero" fill-opacity="1" /><path clip-path="url(#clip550)" d="M1951.44 2197.03 Q1947.83 2197.03 1946 2200.59 Q1944.19 2204.13 1944.19 2211.26 Q1944.19 2218.37 1946 2221.93 Q1947.83 2225.48 1951.44 2225.48 Q1955.07 2225.48 1956.88 2221.93 Q1958.71 2218.37 1958.71 2211.26 Q1958.71 2204.13 1956.88 2200.59 Q1955.07 2197.03 1951.44 2197.03 M1951.44 2193.32 Q1957.25 2193.32 1960.31 2197.93 Q1963.38 2202.51 1963.38 2211.26 Q1963.38 2219.99 1960.31 2224.6 Q1957.25 2229.18 1951.44 2229.18 Q1945.63 2229.18 1942.55 2224.6 Q1939.49 2219.99 1939.49 2211.26 Q1939.49 2202.51 1942.55 2197.93 Q1945.63 2193.32 1951.44 2193.32 Z" fill="#000000" fill-rule="nonzero" fill-opacity="1" /><path clip-path="url(#clip550)" d="M2674.85 2224.57 L2682.49 2224.57 L2682.49 2198.21 L2674.18 2199.87 L2674.18 2195.61 L2682.44 2193.95 L2687.12 2193.95 L2687.12 2224.57 L2694.75 2224.57 L2694.75 2228.51 L2674.85 2228.51 L2674.85 2224.57 Z" fill="#000000" fill-rule="nonzero" fill-opacity="1" /><path clip-path="url(#clip550)" d="M2708.23 2224.57 L2724.55 2224.57 L2724.55 2228.51 L2702.6 2228.51 L2702.6 2224.57 Q2705.26 2221.82 2709.85 2217.19 Q2714.45 2212.54 2715.63 2211.19 Q2717.88 2208.67 2718.76 2206.93 Q2719.66 2205.17 2719.66 2203.48 Q2719.66 2200.73 2717.72 2198.99 Q2715.8 2197.26 2712.69 2197.26 Q2710.49 2197.26 2708.04 2198.02 Q2705.61 2198.79 2702.83 2200.34 L2702.83 2195.61 Q2705.66 2194.48 2708.11 2193.9 Q2710.56 2193.32 2712.6 2193.32 Q2717.97 2193.32 2721.17 2196.01 Q2724.36 2198.69 2724.36 2203.18 Q2724.36 2205.31 2723.55 2207.23 Q2722.76 2209.13 2720.66 2211.73 Q2720.08 2212.4 2716.98 2215.61 Q2713.87 2218.81 2708.23 2224.57 Z" fill="#000000" fill-rule="nonzero" fill-opacity="1" /><path clip-path="url(#clip550)" d="M3435.77 2224.57 L3443.4 2224.57 L3443.4 2198.21 L3435.09 2199.87 L3435.09 2195.61 L3443.36 2193.95 L3448.03 2193.95 L3448.03 2224.57 L3455.67 2224.57 L3455.67 2228.51 L3435.77 2228.51 L3435.77 2224.57 Z" fill="#000000" fill-rule="nonzero" fill-opacity="1" /><path clip-path="url(#clip550)" d="M3477.96 2198.02 L3466.16 2216.47 L3477.96 2216.47 L3477.96 2198.02 M3476.74 2193.95 L3482.62 2193.95 L3482.62 2216.47 L3487.55 2216.47 L3487.55 2220.36 L3482.62 2220.36 L3482.62 2228.51 L3477.96 2228.51 L3477.96 2220.36 L3462.36 2220.36 L3462.36 2215.85 L3476.74 2193.95 Z" fill="#000000" fill-rule="nonzero" fill-opacity="1" /><path clip-path="url(#clip550)" d="M1800.64 2270.99 L1806.48 2270.99 L1806.48 2314.19 L1800.64 2314.19 L1800.64 2270.99 Z" fill="#000000" fill-rule="nonzero" fill-opacity="1" /><path clip-path="url(#clip550)" d="M1823.15 2272.58 L1823.15 2281.78 L1834.12 2281.78 L1834.12 2285.92 L1823.15 2285.92 L1823.15 2303.51 Q1823.15 2307.47 1824.22 2308.6 Q1825.32 2309.73 1828.65 2309.73 L1834.12 2309.73 L1834.12 2314.19 L1828.65 2314.19 Q1822.48 2314.19 1820.14 2311.9 Q1817.8 2309.59 1817.8 2303.51 L1817.8 2285.92 L1813.89 2285.92 L1813.89 2281.78 L1817.8 2281.78 L1817.8 2272.58 L1823.15 2272.58 Z" fill="#000000" fill-rule="nonzero" fill-opacity="1" /><path clip-path="url(#clip550)" d="M1868.84 2296.65 L1868.84 2299.26 L1844.36 2299.26 Q1844.71 2304.75 1847.66 2307.65 Q1850.64 2310.51 1855.93 2310.51 Q1859 2310.51 1861.87 2309.76 Q1864.76 2309.01 1867.59 2307.5 L1867.59 2312.54 Q1864.73 2313.75 1861.72 2314.39 Q1858.71 2315.03 1855.62 2315.03 Q1847.86 2315.03 1843.32 2310.51 Q1838.8 2306 1838.8 2298.3 Q1838.8 2290.35 1843.09 2285.69 Q1847.4 2281 1854.69 2281 Q1861.23 2281 1865.02 2285.22 Q1868.84 2289.42 1868.84 2296.65 M1863.51 2295.09 Q1863.46 2290.72 1861.06 2288.12 Q1858.68 2285.51 1854.75 2285.51 Q1850.29 2285.51 1847.6 2288.03 Q1844.94 2290.55 1844.53 2295.12 L1863.51 2295.09 Z" fill="#000000" fill-rule="nonzero" fill-opacity="1" /><path clip-path="url(#clip550)" d="M1896.36 2286.76 Q1895.46 2286.24 1894.39 2286 Q1893.35 2285.74 1892.07 2285.74 Q1887.56 2285.74 1885.13 2288.7 Q1882.73 2291.62 1882.73 2297.12 L1882.73 2314.19 L1877.37 2314.19 L1877.37 2281.78 L1882.73 2281.78 L1882.73 2286.82 Q1884.41 2283.86 1887.1 2282.45 Q1889.79 2281 1893.64 2281 Q1894.19 2281 1894.85 2281.09 Q1895.52 2281.14 1896.33 2281.29 L1896.36 2286.76 Z" fill="#000000" fill-rule="nonzero" fill-opacity="1" /><path clip-path="url(#clip550)" d="M1916.67 2297.9 Q1910.22 2297.9 1907.73 2299.37 Q1905.24 2300.85 1905.24 2304.41 Q1905.24 2307.24 1907.09 2308.92 Q1908.97 2310.57 1912.18 2310.57 Q1916.61 2310.57 1919.27 2307.45 Q1921.96 2304.29 1921.96 2299.08 L1921.96 2297.9 L1916.67 2297.9 M1927.29 2295.7 L1927.29 2314.19 L1921.96 2314.19 L1921.96 2309.27 Q1920.14 2312.22 1917.42 2313.64 Q1914.7 2315.03 1910.77 2315.03 Q1905.79 2315.03 1902.84 2312.25 Q1899.91 2309.44 1899.91 2304.75 Q1899.91 2299.29 1903.56 2296.51 Q1907.24 2293.73 1914.5 2293.73 L1921.96 2293.73 L1921.96 2293.21 Q1921.96 2289.54 1919.53 2287.54 Q1917.13 2285.51 1912.76 2285.51 Q1909.98 2285.51 1907.35 2286.18 Q1904.72 2286.84 1902.29 2288.18 L1902.29 2283.26 Q1905.21 2282.13 1907.96 2281.58 Q1910.71 2281 1913.31 2281 Q1920.34 2281 1923.82 2284.65 Q1927.29 2288.29 1927.29 2295.7 Z" fill="#000000" fill-rule="nonzero" fill-opacity="1" /><path clip-path="url(#clip550)" d="M1943.52 2272.58 L1943.52 2281.78 L1954.49 2281.78 L1954.49 2285.92 L1943.52 2285.92 L1943.52 2303.51 Q1943.52 2307.47 1944.59 2308.6 Q1945.69 2309.73 1949.02 2309.73 L1954.49 2309.73 L1954.49 2314.19 L1949.02 2314.19 Q1942.85 2314.19 1940.51 2311.9 Q1938.17 2309.59 1938.17 2303.51 L1938.17 2285.92 L1934.26 2285.92 L1934.26 2281.78 L1938.17 2281.78 L1938.17 2272.58 L1943.52 2272.58 Z" fill="#000000" fill-rule="nonzero" fill-opacity="1" /><path clip-path="url(#clip550)" d="M1961.49 2281.78 L1966.81 2281.78 L1966.81 2314.19 L1961.49 2314.19 L1961.49 2281.78 M1961.49 2269.16 L1966.81 2269.16 L1966.81 2275.91 L1961.49 2275.91 L1961.49 2269.16 Z" fill="#000000" fill-rule="nonzero" fill-opacity="1" /><path clip-path="url(#clip550)" d="M1990.51 2285.51 Q1986.23 2285.51 1983.74 2288.87 Q1981.25 2292.2 1981.25 2298.01 Q1981.25 2303.83 1983.71 2307.19 Q1986.2 2310.51 1990.51 2310.51 Q1994.76 2310.51 1997.25 2307.16 Q1999.74 2303.8 1999.74 2298.01 Q1999.74 2292.25 1997.25 2288.9 Q1994.76 2285.51 1990.51 2285.51 M1990.51 2281 Q1997.45 2281 2001.42 2285.51 Q2005.38 2290.03 2005.38 2298.01 Q2005.38 2305.97 2001.42 2310.51 Q1997.45 2315.03 1990.51 2315.03 Q1983.54 2315.03 1979.57 2310.51 Q1975.64 2305.97 1975.64 2298.01 Q1975.64 2290.03 1979.57 2285.51 Q1983.54 2281 1990.51 2281 Z" fill="#000000" fill-rule="nonzero" fill-opacity="1" /><path clip-path="url(#clip550)" d="M2041.15 2294.63 L2041.15 2314.19 L2035.82 2314.19 L2035.82 2294.8 Q2035.82 2290.2 2034.03 2287.91 Q2032.23 2285.63 2028.65 2285.63 Q2024.34 2285.63 2021.85 2288.38 Q2019.36 2291.13 2019.36 2295.87 L2019.36 2314.19 L2014.01 2314.19 L2014.01 2281.78 L2019.36 2281.78 L2019.36 2286.82 Q2021.27 2283.89 2023.84 2282.45 Q2026.45 2281 2029.83 2281 Q2035.42 2281 2038.28 2284.47 Q2041.15 2287.91 2041.15 2294.63 Z" fill="#000000" fill-rule="nonzero" fill-opacity="1" /><path clip-path="url(#clip550)" d="M2072.43 2282.74 L2072.43 2287.77 Q2070.17 2286.61 2067.74 2286.03 Q2065.31 2285.46 2062.7 2285.46 Q2058.74 2285.46 2056.74 2286.67 Q2054.78 2287.89 2054.78 2290.32 Q2054.78 2292.17 2056.19 2293.24 Q2057.61 2294.28 2061.89 2295.24 L2063.72 2295.64 Q2069.39 2296.86 2071.76 2299.08 Q2074.16 2301.28 2074.16 2305.25 Q2074.16 2309.76 2070.57 2312.39 Q2067.01 2315.03 2060.76 2315.03 Q2058.16 2315.03 2055.32 2314.51 Q2052.52 2314.01 2049.39 2313 L2049.39 2307.5 Q2052.34 2309.04 2055.21 2309.82 Q2058.07 2310.57 2060.88 2310.57 Q2064.64 2310.57 2066.67 2309.3 Q2068.69 2308 2068.69 2305.65 Q2068.69 2303.48 2067.22 2302.32 Q2065.77 2301.17 2060.82 2300.1 L2058.97 2299.66 Q2054.02 2298.62 2051.82 2296.48 Q2049.62 2294.31 2049.62 2290.55 Q2049.62 2285.98 2052.87 2283.49 Q2056.11 2281 2062.07 2281 Q2065.02 2281 2067.62 2281.43 Q2070.23 2281.87 2072.43 2282.74 Z" fill="#000000" fill-rule="nonzero" fill-opacity="1" /><polyline clip-path="url(#clip550)" style="stroke:#000000; stroke-linecap:round; stroke-linejoin:round; stroke-width:4; stroke-opacity:1; fill:none" points="322.044,2156.51 322.044,246.944 "/>
<polyline clip-path="url(#clip550)" style="stroke:#000000; stroke-linecap:round; stroke-linejoin:round; stroke-width:4; stroke-opacity:1; fill:none" points="322.044,2081.71 340.942,2081.71 "/>
<polyline clip-path="url(#clip550)" style="stroke:#000000; stroke-linecap:round; stroke-linejoin:round; stroke-width:4; stroke-opacity:1; fill:none" points="322.044,1091.2 340.942,1091.2 "/>
<path clip-path="url(#clip550)" d="M167.905 2101.5 L175.543 2101.5 L175.543 2075.14 L167.233 2076.8 L167.233 2072.54 L175.497 2070.88 L180.173 2070.88 L180.173 2101.5 L187.812 2101.5 L187.812 2105.44 L167.905 2105.44 L167.905 2101.5 Z" fill="#000000" fill-rule="nonzero" fill-opacity="1" /><path clip-path="url(#clip550)" d="M207.256 2073.95 Q203.645 2073.95 201.816 2077.52 Q200.011 2081.06 200.011 2088.19 Q200.011 2095.3 201.816 2098.86 Q203.645 2102.4 207.256 2102.4 Q210.89 2102.4 212.696 2098.86 Q214.525 2095.3 214.525 2088.19 Q214.525 2081.06 212.696 2077.52 Q210.89 2073.95 207.256 2073.95 M207.256 2070.25 Q213.066 2070.25 216.122 2074.86 Q219.201 2079.44 219.201 2088.19 Q219.201 2096.92 216.122 2101.52 Q213.066 2106.11 207.256 2106.11 Q201.446 2106.11 198.367 2101.52 Q195.312 2096.92 195.312 2088.19 Q195.312 2079.44 198.367 2074.86 Q201.446 2070.25 207.256 2070.25 Z" fill="#000000" fill-rule="nonzero" fill-opacity="1" /><path clip-path="url(#clip550)" d="M219.201 2064.35 L243.312 2064.35 L243.312 2067.55 L219.201 2067.55 L219.201 2064.35 Z" fill="#000000" fill-rule="nonzero" fill-opacity="1" /><path clip-path="url(#clip550)" d="M254.785 2074.83 L268.044 2074.83 L268.044 2078.03 L250.215 2078.03 L250.215 2074.83 Q252.377 2072.59 256.101 2068.83 Q259.844 2065.05 260.803 2063.96 Q262.628 2061.91 263.342 2060.5 Q264.076 2059.07 264.076 2057.69 Q264.076 2055.46 262.496 2054.05 Q260.935 2052.64 258.415 2052.64 Q256.628 2052.64 254.634 2053.26 Q252.66 2053.88 250.403 2055.14 L250.403 2051.3 Q252.697 2050.38 254.691 2049.91 Q256.684 2049.44 258.339 2049.44 Q262.703 2049.44 265.298 2051.62 Q267.894 2053.8 267.894 2057.45 Q267.894 2059.18 267.236 2060.74 Q266.596 2062.28 264.885 2064.39 Q264.414 2064.94 261.894 2067.55 Q259.374 2070.15 254.785 2074.83 Z" fill="#000000" fill-rule="nonzero" fill-opacity="1" /><path clip-path="url(#clip550)" d="M167.604 1110.99 L175.242 1110.99 L175.242 1084.63 L166.932 1086.3 L166.932 1082.04 L175.196 1080.37 L179.872 1080.37 L179.872 1110.99 L187.511 1110.99 L187.511 1114.93 L167.604 1114.93 L167.604 1110.99 Z" fill="#000000" fill-rule="nonzero" fill-opacity="1" /><path clip-path="url(#clip550)" d="M206.955 1083.45 Q203.344 1083.45 201.515 1087.01 Q199.71 1090.56 199.71 1097.68 Q199.71 1104.79 201.515 1108.36 Q203.344 1111.9 206.955 1111.9 Q210.589 1111.9 212.395 1108.36 Q214.224 1104.79 214.224 1097.68 Q214.224 1090.56 212.395 1087.01 Q210.589 1083.45 206.955 1083.45 M206.955 1079.75 Q212.765 1079.75 215.821 1084.35 Q218.9 1088.93 218.9 1097.68 Q218.9 1106.41 215.821 1111.02 Q212.765 1115.6 206.955 1115.6 Q201.145 1115.6 198.066 1111.02 Q195.011 1106.41 195.011 1097.68 Q195.011 1088.93 198.066 1084.35 Q201.145 1079.75 206.955 1079.75 Z" fill="#000000" fill-rule="nonzero" fill-opacity="1" /><path clip-path="url(#clip550)" d="M218.9 1073.85 L243.011 1073.85 L243.011 1077.04 L218.9 1077.04 L218.9 1073.85 Z" fill="#000000" fill-rule="nonzero" fill-opacity="1" /><path clip-path="url(#clip550)" d="M251.87 1084.32 L258.076 1084.32 L258.076 1062.9 L251.324 1064.25 L251.324 1060.79 L258.039 1059.44 L261.838 1059.44 L261.838 1084.32 L268.044 1084.32 L268.044 1087.52 L251.87 1087.52 L251.87 1084.32 Z" fill="#000000" fill-rule="nonzero" fill-opacity="1" /><path clip-path="url(#clip550)" d="M60.0998 1347.25 L66.263 1347.25 Q63.5141 1350.21 62.1542 1353.56 Q60.7943 1356.89 60.7943 1360.65 Q60.7943 1368.06 65.3371 1371.99 Q69.8509 1375.93 78.4157 1375.93 Q86.9515 1375.93 91.4943 1371.99 Q96.0082 1368.06 96.0082 1360.65 Q96.0082 1356.89 94.6482 1353.56 Q93.2883 1350.21 90.5395 1347.25 L96.6448 1347.25 Q98.7281 1350.32 99.7697 1353.77 Q100.811 1357.18 100.811 1361 Q100.811 1370.81 94.8218 1376.45 Q88.8034 1382.09 78.4157 1382.09 Q67.9991 1382.09 62.0095 1376.45 Q55.991 1370.81 55.991 1361 Q55.991 1357.12 57.0327 1353.71 Q58.0454 1350.26 60.0998 1347.25 Z" fill="#000000" fill-rule="nonzero" fill-opacity="1" /><path clip-path="url(#clip550)" d="M61.5755 1332.38 L77.8081 1332.38 L77.8081 1325.03 Q77.8081 1320.95 75.6958 1318.72 Q73.5835 1316.5 69.6773 1316.5 Q65.8 1316.5 63.6878 1318.72 Q61.5755 1320.95 61.5755 1325.03 L61.5755 1332.38 M56.7723 1338.23 L56.7723 1325.03 Q56.7723 1317.77 60.0709 1314.07 Q63.3405 1310.33 69.6773 1310.33 Q76.0719 1310.33 79.3416 1314.07 Q82.6113 1317.77 82.6113 1325.03 L82.6113 1332.38 L99.9723 1332.38 L99.9723 1338.23 L56.7723 1338.23 Z" fill="#000000" fill-rule="nonzero" fill-opacity="1" /><path clip-path="url(#clip550)" d="M56.7723 1303.16 L56.7723 1297.28 L83.0164 1297.28 Q89.9608 1297.28 93.0279 1294.77 Q96.0661 1292.25 96.0661 1286.61 Q96.0661 1280.99 93.0279 1278.48 Q89.9608 1275.96 83.0164 1275.96 L56.7723 1275.96 L56.7723 1270.08 L83.7397 1270.08 Q92.1888 1270.08 96.5001 1274.28 Q100.811 1278.45 100.811 1286.61 Q100.811 1294.8 96.5001 1298.99 Q92.1888 1303.16 83.7397 1303.16 L56.7723 1303.16 Z" fill="#000000" fill-rule="nonzero" fill-opacity="1" /><path clip-path="url(#clip550)" d="M58.3637 1235.25 L67.565 1235.25 L67.565 1224.28 L71.7028 1224.28 L71.7028 1235.25 L89.2953 1235.25 Q93.2594 1235.25 94.3878 1234.18 Q95.5163 1233.08 95.5163 1229.75 L95.5163 1224.28 L99.9723 1224.28 L99.9723 1229.75 Q99.9723 1235.91 97.6864 1238.26 Q95.3716 1240.6 89.2953 1240.6 L71.7028 1240.6 L71.7028 1244.51 L67.565 1244.51 L67.565 1240.6 L58.3637 1240.6 L58.3637 1235.25 Z" fill="#000000" fill-rule="nonzero" fill-opacity="1" /><path clip-path="url(#clip550)" d="M67.565 1217.28 L67.565 1211.95 L99.9723 1211.95 L99.9723 1217.28 L67.565 1217.28 M54.9494 1217.28 L54.9494 1211.95 L61.6912 1211.95 L61.6912 1217.28 L54.9494 1217.28 Z" fill="#000000" fill-rule="nonzero" fill-opacity="1" /><path clip-path="url(#clip550)" d="M73.7861 1175.58 Q70.1981 1173.59 68.491 1170.81 Q66.7838 1168.03 66.7838 1164.27 Q66.7838 1159.21 70.3428 1156.46 Q73.8729 1153.71 80.4122 1153.71 L99.9723 1153.71 L99.9723 1159.06 L80.5858 1159.06 Q75.9273 1159.06 73.6703 1160.71 Q71.4134 1162.36 71.4134 1165.75 Q71.4134 1169.88 74.1622 1172.28 Q76.9111 1174.69 81.6564 1174.69 L99.9723 1174.69 L99.9723 1180.04 L80.5858 1180.04 Q75.8983 1180.04 73.6703 1181.69 Q71.4134 1183.34 71.4134 1186.78 Q71.4134 1190.86 74.1912 1193.26 Q76.94 1195.66 81.6564 1195.66 L99.9723 1195.66 L99.9723 1201.02 L67.565 1201.02 L67.565 1195.66 L72.5997 1195.66 Q69.6194 1193.84 68.2016 1191.29 Q66.7838 1188.75 66.7838 1185.25 Q66.7838 1181.72 68.5778 1179.26 Q70.3717 1176.77 73.7861 1175.58 Z" fill="#000000" fill-rule="nonzero" fill-opacity="1" /><path clip-path="url(#clip550)" d="M82.4377 1115.37 L85.0418 1115.37 L85.0418 1139.85 Q90.5395 1139.5 93.433 1136.55 Q96.2975 1133.57 96.2975 1128.27 Q96.2975 1125.21 95.5452 1122.34 Q94.7929 1119.45 93.2883 1116.61 L98.323 1116.61 Q99.5383 1119.48 100.175 1122.49 Q100.811 1125.5 100.811 1128.59 Q100.811 1136.35 96.2975 1140.89 Q91.7837 1145.4 84.087 1145.4 Q76.1298 1145.4 71.4713 1141.12 Q66.7838 1136.81 66.7838 1129.52 Q66.7838 1122.98 71.0083 1119.19 Q75.2039 1115.37 82.4377 1115.37 M80.8752 1120.69 Q76.506 1120.75 73.9018 1123.15 Q71.2977 1125.53 71.2977 1129.46 Q71.2977 1133.92 73.815 1136.61 Q76.3324 1139.27 80.9041 1139.67 L80.8752 1120.69 Z" fill="#000000" fill-rule="nonzero" fill-opacity="1" /><path clip-path="url(#clip550)" d="M55.0072 1075.01 Q61.6623 1078.88 68.1727 1080.76 Q74.6831 1082.64 81.3671 1082.64 Q88.0511 1082.64 94.6193 1080.76 Q101.159 1078.85 107.785 1075.01 L107.785 1079.63 Q100.985 1083.97 94.4168 1086.15 Q87.8485 1088.29 81.3671 1088.29 Q74.9145 1088.29 68.3752 1086.15 Q61.8359 1084 55.0072 1079.63 L55.0072 1075.01 Z" fill="#000000" fill-rule="nonzero" fill-opacity="1" /><path clip-path="url(#clip550)" d="M68.5199 1044.02 L73.5546 1044.02 Q72.3972 1046.27 71.8185 1048.7 Q71.2398 1051.13 71.2398 1053.74 Q71.2398 1057.7 72.4551 1059.7 Q73.6703 1061.67 76.1009 1061.67 Q77.9527 1061.67 79.0233 1060.25 Q80.065 1058.83 81.0198 1054.55 L81.4249 1052.73 Q82.6402 1047.05 84.8682 1044.68 Q87.0673 1042.28 91.0314 1042.28 Q95.5452 1042.28 98.1783 1045.87 Q100.811 1049.43 100.811 1055.68 Q100.811 1058.28 100.291 1061.12 Q99.7987 1063.92 98.7859 1067.05 L93.2883 1067.05 Q94.8218 1064.1 95.6031 1061.23 Q96.3554 1058.37 96.3554 1055.56 Q96.3554 1051.8 95.0823 1049.77 Q93.7802 1047.75 91.4364 1047.75 Q89.2663 1047.75 88.1089 1049.22 Q86.9515 1050.67 85.8809 1055.62 L85.4469 1057.47 Q84.4052 1062.42 82.264 1064.62 Q80.0939 1066.82 76.3324 1066.82 Q71.7606 1066.82 69.2722 1063.58 Q66.7838 1060.33 66.7838 1054.37 Q66.7838 1051.42 67.2178 1048.82 Q67.6519 1046.21 68.5199 1044.02 Z" fill="#000000" fill-rule="nonzero" fill-opacity="1" /><path clip-path="url(#clip550)" d="M55.0072 1034.64 L55.0072 1030.01 Q61.8359 1025.67 68.3752 1023.53 Q74.9145 1021.36 81.3671 1021.36 Q87.8485 1021.36 94.4168 1023.53 Q100.985 1025.67 107.785 1030.01 L107.785 1034.64 Q101.159 1030.79 94.6193 1028.91 Q88.0511 1027 81.3671 1027 Q74.6831 1027 68.1727 1028.91 Q61.6623 1030.79 55.0072 1034.64 Z" fill="#000000" fill-rule="nonzero" fill-opacity="1" /><path clip-path="url(#clip550)" d="M1303.47 123.984 L1311.66 123.984 L1311.66 184.464 L1303.47 184.464 L1303.47 123.984 Z" fill="#000000" fill-rule="nonzero" fill-opacity="1" /><path clip-path="url(#clip550)" d="M1334.99 126.212 L1334.99 139.094 L1350.34 139.094 L1350.34 144.887 L1334.99 144.887 L1334.99 169.516 Q1334.99 175.066 1336.49 176.646 Q1338.03 178.226 1342.69 178.226 L1350.34 178.226 L1350.34 184.464 L1342.69 184.464 Q1334.06 184.464 1330.78 181.264 Q1327.5 178.023 1327.5 169.516 L1327.5 144.887 L1322.03 144.887 L1322.03 139.094 L1327.5 139.094 L1327.5 126.212 L1334.99 126.212 Z" fill="#000000" fill-rule="nonzero" fill-opacity="1" /><path clip-path="url(#clip550)" d="M1398.95 159.916 L1398.95 163.561 L1364.68 163.561 Q1365.17 171.258 1369.3 175.309 Q1373.47 179.319 1380.89 179.319 Q1385.18 179.319 1389.19 178.266 Q1393.24 177.213 1397.21 175.106 L1397.21 182.155 Q1393.2 183.856 1388.99 184.748 Q1384.78 185.639 1380.44 185.639 Q1369.58 185.639 1363.22 179.319 Q1356.91 173 1356.91 162.225 Q1356.91 151.085 1362.9 144.563 Q1368.94 138 1379.14 138 Q1388.3 138 1393.61 143.914 Q1398.95 149.788 1398.95 159.916 M1391.5 157.728 Q1391.42 151.611 1388.06 147.965 Q1384.74 144.32 1379.23 144.32 Q1372.99 144.32 1369.22 147.844 Q1365.49 151.368 1364.93 157.769 L1391.5 157.728 Z" fill="#000000" fill-rule="nonzero" fill-opacity="1" /><path clip-path="url(#clip550)" d="M1437.48 146.061 Q1436.22 145.332 1434.72 145.008 Q1433.27 144.644 1431.48 144.644 Q1425.16 144.644 1421.76 148.776 Q1418.4 152.867 1418.4 160.564 L1418.4 184.464 L1410.9 184.464 L1410.9 139.094 L1418.4 139.094 L1418.4 146.142 Q1420.75 142.011 1424.52 140.026 Q1428.28 138 1433.67 138 Q1434.44 138 1435.37 138.122 Q1436.3 138.203 1437.44 138.405 L1437.48 146.061 Z" fill="#000000" fill-rule="nonzero" fill-opacity="1" /><path clip-path="url(#clip550)" d="M1465.92 161.657 Q1456.88 161.657 1453.4 163.723 Q1449.91 165.789 1449.91 170.772 Q1449.91 174.742 1452.51 177.091 Q1455.14 179.4 1459.64 179.4 Q1465.83 179.4 1469.56 175.025 Q1473.33 170.61 1473.33 163.318 L1473.33 161.657 L1465.92 161.657 M1480.78 158.579 L1480.78 184.464 L1473.33 184.464 L1473.33 177.577 Q1470.78 181.709 1466.97 183.694 Q1463.16 185.639 1457.65 185.639 Q1450.68 185.639 1446.55 181.75 Q1442.46 177.821 1442.46 171.258 Q1442.46 163.602 1447.56 159.713 Q1452.71 155.824 1462.88 155.824 L1473.33 155.824 L1473.33 155.095 Q1473.33 149.95 1469.93 147.155 Q1466.56 144.32 1460.45 144.32 Q1456.56 144.32 1452.87 145.251 Q1449.19 146.183 1445.78 148.046 L1445.78 141.16 Q1449.87 139.58 1453.72 138.81 Q1457.57 138 1461.22 138 Q1471.06 138 1475.92 143.104 Q1480.78 148.208 1480.78 158.579 Z" fill="#000000" fill-rule="nonzero" fill-opacity="1" /><path clip-path="url(#clip550)" d="M1503.51 126.212 L1503.51 139.094 L1518.86 139.094 L1518.86 144.887 L1503.51 144.887 L1503.51 169.516 Q1503.51 175.066 1505.01 176.646 Q1506.55 178.226 1511.2 178.226 L1518.86 178.226 L1518.86 184.464 L1511.2 184.464 Q1502.58 184.464 1499.29 181.264 Q1496.01 178.023 1496.01 169.516 L1496.01 144.887 L1490.54 144.887 L1490.54 139.094 L1496.01 139.094 L1496.01 126.212 L1503.51 126.212 Z" fill="#000000" fill-rule="nonzero" fill-opacity="1" /><path clip-path="url(#clip550)" d="M1528.66 139.094 L1536.12 139.094 L1536.12 184.464 L1528.66 184.464 L1528.66 139.094 M1528.66 121.432 L1536.12 121.432 L1536.12 130.871 L1528.66 130.871 L1528.66 121.432 Z" fill="#000000" fill-rule="nonzero" fill-opacity="1" /><path clip-path="url(#clip550)" d="M1569.29 144.32 Q1563.3 144.32 1559.82 149.019 Q1556.33 153.677 1556.33 161.819 Q1556.33 169.962 1559.77 174.661 Q1563.26 179.319 1569.29 179.319 Q1575.25 179.319 1578.73 174.62 Q1582.22 169.921 1582.22 161.819 Q1582.22 153.758 1578.73 149.059 Q1575.25 144.32 1569.29 144.32 M1569.29 138 Q1579.02 138 1584.57 144.32 Q1590.12 150.639 1590.12 161.819 Q1590.12 172.959 1584.57 179.319 Q1579.02 185.639 1569.29 185.639 Q1559.53 185.639 1553.98 179.319 Q1548.47 172.959 1548.47 161.819 Q1548.47 150.639 1553.98 144.32 Q1559.53 138 1569.29 138 Z" fill="#000000" fill-rule="nonzero" fill-opacity="1" /><path clip-path="url(#clip550)" d="M1640.19 157.08 L1640.19 184.464 L1632.73 184.464 L1632.73 157.323 Q1632.73 150.882 1630.22 147.682 Q1627.71 144.482 1622.69 144.482 Q1616.65 144.482 1613.17 148.33 Q1609.68 152.178 1609.68 158.822 L1609.68 184.464 L1602.19 184.464 L1602.19 139.094 L1609.68 139.094 L1609.68 146.142 Q1612.36 142.051 1615.96 140.026 Q1619.61 138 1624.35 138 Q1632.16 138 1636.17 142.861 Q1640.19 147.682 1640.19 157.08 Z" fill="#000000" fill-rule="nonzero" fill-opacity="1" /><path clip-path="url(#clip550)" d="M1683.98 140.431 L1683.98 147.479 Q1680.82 145.859 1677.41 145.049 Q1674.01 144.239 1670.36 144.239 Q1664.81 144.239 1662.02 145.94 Q1659.27 147.641 1659.27 151.044 Q1659.27 153.637 1661.25 155.135 Q1663.23 156.594 1669.23 157.931 L1671.78 158.498 Q1679.72 160.199 1683.04 163.318 Q1686.41 166.397 1686.41 171.947 Q1686.41 178.266 1681.38 181.952 Q1676.4 185.639 1667.65 185.639 Q1664 185.639 1660.03 184.91 Q1656.11 184.221 1651.73 182.803 L1651.73 175.106 Q1655.86 177.253 1659.87 178.347 Q1663.88 179.4 1667.81 179.4 Q1673.08 179.4 1675.91 177.618 Q1678.75 175.795 1678.75 172.514 Q1678.75 169.476 1676.68 167.855 Q1674.66 166.235 1667.73 164.736 L1665.14 164.128 Q1658.21 162.67 1655.13 159.672 Q1652.05 156.634 1652.05 151.368 Q1652.05 144.968 1656.59 141.484 Q1661.13 138 1669.47 138 Q1673.61 138 1677.25 138.608 Q1680.9 139.215 1683.98 140.431 Z" fill="#000000" fill-rule="nonzero" fill-opacity="1" /><path clip-path="url(#clip550)" d="M1719.3 139.094 L1727.2 139.094 L1741.38 177.172 L1755.56 139.094 L1763.45 139.094 L1746.44 184.464 L1736.31 184.464 L1719.3 139.094 Z" fill="#000000" fill-rule="nonzero" fill-opacity="1" /><path clip-path="url(#clip550)" d="M1802.67 140.431 L1802.67 147.479 Q1799.51 145.859 1796.1 145.049 Q1792.7 144.239 1789.06 144.239 Q1783.51 144.239 1780.71 145.94 Q1777.96 147.641 1777.96 151.044 Q1777.96 153.637 1779.94 155.135 Q1781.93 156.594 1787.92 157.931 L1790.47 158.498 Q1798.41 160.199 1801.74 163.318 Q1805.1 166.397 1805.1 171.947 Q1805.1 178.266 1800.07 181.952 Q1795.09 185.639 1786.34 185.639 Q1782.7 185.639 1778.73 184.91 Q1774.8 184.221 1770.42 182.803 L1770.42 175.106 Q1774.55 177.253 1778.56 178.347 Q1782.57 179.4 1786.5 179.4 Q1791.77 179.4 1794.61 177.618 Q1797.44 175.795 1797.44 172.514 Q1797.44 169.476 1795.38 167.855 Q1793.35 166.235 1786.42 164.736 L1783.83 164.128 Q1776.9 162.67 1773.82 159.672 Q1770.75 156.634 1770.75 151.368 Q1770.75 144.968 1775.28 141.484 Q1779.82 138 1788.16 138 Q1792.3 138 1795.94 138.608 Q1799.59 139.215 1802.67 140.431 Z" fill="#000000" fill-rule="nonzero" fill-opacity="1" /><path clip-path="url(#clip550)" d="M1888.95 128.643 L1888.95 137.271 Q1884.82 133.423 1880.12 131.519 Q1875.46 129.615 1870.2 129.615 Q1859.83 129.615 1854.32 135.975 Q1848.81 142.294 1848.81 154.285 Q1848.81 166.235 1854.32 172.595 Q1859.83 178.914 1870.2 178.914 Q1875.46 178.914 1880.12 177.01 Q1884.82 175.106 1888.95 171.258 L1888.95 179.805 Q1884.66 182.722 1879.84 184.18 Q1875.06 185.639 1869.71 185.639 Q1855.98 185.639 1848.08 177.253 Q1840.18 168.828 1840.18 154.285 Q1840.18 139.702 1848.08 131.316 Q1855.98 122.89 1869.71 122.89 Q1875.14 122.89 1879.92 124.349 Q1884.74 125.766 1888.95 128.643 Z" fill="#000000" fill-rule="nonzero" fill-opacity="1" /><path clip-path="url(#clip550)" d="M1909.77 130.709 L1909.77 153.434 L1920.06 153.434 Q1925.77 153.434 1928.89 150.477 Q1932.01 147.52 1932.01 142.051 Q1932.01 136.623 1928.89 133.666 Q1925.77 130.709 1920.06 130.709 L1909.77 130.709 M1901.59 123.984 L1920.06 123.984 Q1930.23 123.984 1935.42 128.602 Q1940.64 133.18 1940.64 142.051 Q1940.64 151.004 1935.42 155.581 Q1930.23 160.159 1920.06 160.159 L1909.77 160.159 L1909.77 184.464 L1901.59 184.464 L1901.59 123.984 Z" fill="#000000" fill-rule="nonzero" fill-opacity="1" /><path clip-path="url(#clip550)" d="M1950.69 123.984 L1958.91 123.984 L1958.91 160.726 Q1958.91 170.448 1962.43 174.742 Q1965.96 178.995 1973.86 178.995 Q1981.72 178.995 1985.24 174.742 Q1988.77 170.448 1988.77 160.726 L1988.77 123.984 L1996.99 123.984 L1996.99 161.738 Q1996.99 173.567 1991.12 179.603 Q1985.28 185.639 1973.86 185.639 Q1962.39 185.639 1956.52 179.603 Q1950.69 173.567 1950.69 161.738 L1950.69 123.984 Z" fill="#000000" fill-rule="nonzero" fill-opacity="1" /><path clip-path="url(#clip550)" d="M2045.76 126.212 L2045.76 139.094 L2061.11 139.094 L2061.11 144.887 L2045.76 144.887 L2045.76 169.516 Q2045.76 175.066 2047.26 176.646 Q2048.8 178.226 2053.46 178.226 L2061.11 178.226 L2061.11 184.464 L2053.46 184.464 Q2044.83 184.464 2041.55 181.264 Q2038.27 178.023 2038.27 169.516 L2038.27 144.887 L2032.8 144.887 L2032.8 139.094 L2038.27 139.094 L2038.27 126.212 L2045.76 126.212 Z" fill="#000000" fill-rule="nonzero" fill-opacity="1" /><path clip-path="url(#clip550)" d="M2070.92 139.094 L2078.37 139.094 L2078.37 184.464 L2070.92 184.464 L2070.92 139.094 M2070.92 121.432 L2078.37 121.432 L2078.37 130.871 L2070.92 130.871 L2070.92 121.432 Z" fill="#000000" fill-rule="nonzero" fill-opacity="1" /><path clip-path="url(#clip550)" d="M2129.29 147.803 Q2132.09 142.78 2135.98 140.39 Q2139.86 138 2145.13 138 Q2152.22 138 2156.07 142.983 Q2159.92 147.925 2159.92 157.08 L2159.92 184.464 L2152.42 184.464 L2152.42 157.323 Q2152.42 150.801 2150.11 147.641 Q2147.8 144.482 2143.06 144.482 Q2137.27 144.482 2133.91 148.33 Q2130.55 152.178 2130.55 158.822 L2130.55 184.464 L2123.05 184.464 L2123.05 157.323 Q2123.05 150.76 2120.74 147.641 Q2118.44 144.482 2113.61 144.482 Q2107.9 144.482 2104.54 148.37 Q2101.18 152.219 2101.18 158.822 L2101.18 184.464 L2093.68 184.464 L2093.68 139.094 L2101.18 139.094 L2101.18 146.142 Q2103.73 141.97 2107.3 139.985 Q2110.86 138 2115.76 138 Q2120.7 138 2124.15 140.512 Q2127.63 143.023 2129.29 147.803 Z" fill="#000000" fill-rule="nonzero" fill-opacity="1" /><path clip-path="url(#clip550)" d="M2213.59 159.916 L2213.59 163.561 L2179.32 163.561 Q2179.81 171.258 2183.94 175.309 Q2188.11 179.319 2195.52 179.319 Q2199.82 179.319 2203.83 178.266 Q2207.88 177.213 2211.85 175.106 L2211.85 182.155 Q2207.84 183.856 2203.63 184.748 Q2199.41 185.639 2195.08 185.639 Q2184.22 185.639 2177.86 179.319 Q2171.54 173 2171.54 162.225 Q2171.54 151.085 2177.54 144.563 Q2183.57 138 2193.78 138 Q2202.94 138 2208.24 143.914 Q2213.59 149.788 2213.59 159.916 M2206.14 157.728 Q2206.06 151.611 2202.69 147.965 Q2199.37 144.32 2193.86 144.32 Q2187.62 144.32 2183.86 147.844 Q2180.13 151.368 2179.56 157.769 L2206.14 157.728 Z" fill="#000000" fill-rule="nonzero" fill-opacity="1" /><path clip-path="url(#clip550)" d="M2248.43 158.822 L2323.29 158.822 L2323.29 164.655 L2248.43 164.655 L2248.43 158.822 Z" fill="#000000" fill-rule="nonzero" fill-opacity="1" /><path clip-path="url(#clip550)" d="M2394.18 140.836 L2394.18 147.803 Q2391.02 146.061 2387.82 145.211 Q2384.66 144.32 2381.42 144.32 Q2374.17 144.32 2370.16 148.938 Q2366.15 153.515 2366.15 161.819 Q2366.15 170.124 2370.16 174.742 Q2374.17 179.319 2381.42 179.319 Q2384.66 179.319 2387.82 178.469 Q2391.02 177.577 2394.18 175.836 L2394.18 182.722 Q2391.06 184.18 2387.7 184.91 Q2384.38 185.639 2380.61 185.639 Q2370.36 185.639 2364.32 179.198 Q2358.29 172.757 2358.29 161.819 Q2358.29 150.72 2364.37 144.36 Q2370.48 138 2381.1 138 Q2384.54 138 2387.82 138.729 Q2391.1 139.418 2394.18 140.836 Z" fill="#000000" fill-rule="nonzero" fill-opacity="1" /><path clip-path="url(#clip550)" d="M2444.86 157.08 L2444.86 184.464 L2437.4 184.464 L2437.4 157.323 Q2437.4 150.882 2434.89 147.682 Q2432.38 144.482 2427.36 144.482 Q2421.32 144.482 2417.84 148.33 Q2414.35 152.178 2414.35 158.822 L2414.35 184.464 L2406.86 184.464 L2406.86 121.432 L2414.35 121.432 L2414.35 146.142 Q2417.03 142.051 2420.63 140.026 Q2424.28 138 2429.02 138 Q2436.84 138 2440.85 142.861 Q2444.86 147.682 2444.86 157.08 Z" fill="#000000" fill-rule="nonzero" fill-opacity="1" /><path clip-path="url(#clip550)" d="M2480.34 161.657 Q2471.31 161.657 2467.83 163.723 Q2464.34 165.789 2464.34 170.772 Q2464.34 174.742 2466.93 177.091 Q2469.57 179.4 2474.06 179.4 Q2480.26 179.4 2483.99 175.025 Q2487.76 170.61 2487.76 163.318 L2487.76 161.657 L2480.34 161.657 M2495.21 158.579 L2495.21 184.464 L2487.76 184.464 L2487.76 177.577 Q2485.2 181.709 2481.4 183.694 Q2477.59 185.639 2472.08 185.639 Q2465.11 185.639 2460.98 181.75 Q2456.89 177.821 2456.89 171.258 Q2456.89 163.602 2461.99 159.713 Q2467.14 155.824 2477.3 155.824 L2487.76 155.824 L2487.76 155.095 Q2487.76 149.95 2484.35 147.155 Q2480.99 144.32 2474.87 144.32 Q2470.99 144.32 2467.3 145.251 Q2463.61 146.183 2460.21 148.046 L2460.21 141.16 Q2464.3 139.58 2468.15 138.81 Q2472 138 2475.64 138 Q2485.49 138 2490.35 143.104 Q2495.21 148.208 2495.21 158.579 Z" fill="#000000" fill-rule="nonzero" fill-opacity="1" /><path clip-path="url(#clip550)" d="M2510.56 139.094 L2518.02 139.094 L2518.02 184.464 L2510.56 184.464 L2510.56 139.094 M2510.56 121.432 L2518.02 121.432 L2518.02 130.871 L2510.56 130.871 L2510.56 121.432 Z" fill="#000000" fill-rule="nonzero" fill-opacity="1" /><path clip-path="url(#clip550)" d="M2571.33 157.08 L2571.33 184.464 L2563.87 184.464 L2563.87 157.323 Q2563.87 150.882 2561.36 147.682 Q2558.85 144.482 2553.83 144.482 Q2547.79 144.482 2544.31 148.33 Q2540.82 152.178 2540.82 158.822 L2540.82 184.464 L2533.33 184.464 L2533.33 139.094 L2540.82 139.094 L2540.82 146.142 Q2543.5 142.051 2547.1 140.026 Q2550.75 138 2555.49 138 Q2563.31 138 2567.32 142.861 Q2571.33 147.682 2571.33 157.08 Z" fill="#000000" fill-rule="nonzero" fill-opacity="1" /><path clip-path="url(#clip552)" d="M818.46 1895.8 L770.46 1895.8 L794.46 1943.8 L818.46 1895.8 Z" fill="#9370db" fill-rule="evenodd" fill-opacity="1" stroke="none"/>
<path clip-path="url(#clip552)" d="M3485.32 1265.5 L3437.32 1265.5 L3461.32 1313.5 L3485.32 1265.5 Z" fill="#9370db" fill-rule="evenodd" fill-opacity="1" stroke="none"/>
<path clip-path="url(#clip552)" d="M437.48 1282.75 L389.48 1282.75 L413.48 1330.75 L437.48 1282.75 Z" fill="#9370db" fill-rule="evenodd" fill-opacity="1" stroke="none"/>
<path clip-path="url(#clip552)" d="M437.48 882.315 L389.48 882.315 L413.48 930.315 L437.48 882.315 Z" fill="#9370db" fill-rule="evenodd" fill-opacity="1" stroke="none"/>
<path clip-path="url(#clip552)" d="M437.48 384.09 L389.48 384.09 L413.48 432.09 L437.48 384.09 Z" fill="#9370db" fill-rule="evenodd" fill-opacity="1" stroke="none"/>
<circle clip-path="url(#clip552)" cx="794.46" cy="1821.67" r="21.6" fill="#4682b4" fill-rule="evenodd" fill-opacity="1" stroke="none"/>
<circle clip-path="url(#clip552)" cx="3461.32" cy="1197.25" r="21.6" fill="#4682b4" fill-rule="evenodd" fill-opacity="1" stroke="none"/>
<circle clip-path="url(#clip552)" cx="413.48" cy="1224.38" r="21.6" fill="#4682b4" fill-rule="evenodd" fill-opacity="1" stroke="none"/>
<circle clip-path="url(#clip552)" cx="413.48" cy="878.468" r="21.6" fill="#4682b4" fill-rule="evenodd" fill-opacity="1" stroke="none"/>
<circle clip-path="url(#clip552)" cx="413.48" cy="317.452" r="21.6" fill="#4682b4" fill-rule="evenodd" fill-opacity="1" stroke="none"/>
<path clip-path="url(#clip552)" d="M770.46 2024.39 L770.46 2072.39 L818.46 2072.39 L818.46 2024.39 L770.46 2024.39 Z" fill="#ff6347" fill-rule="evenodd" fill-opacity="1" stroke="none"/>
<path clip-path="url(#clip552)" d="M3437.32 1416.94 L3437.32 1464.94 L3485.32 1464.94 L3485.32 1416.94 L3437.32 1416.94 Z" fill="#ff6347" fill-rule="evenodd" fill-opacity="1" stroke="none"/>
<path clip-path="url(#clip552)" d="M389.48 1441.48 L389.48 1489.48 L437.48 1489.48 L437.48 1441.48 L389.48 1441.48 Z" fill="#ff6347" fill-rule="evenodd" fill-opacity="1" stroke="none"/>
<path clip-path="url(#clip552)" d="M389.48 1108.02 L389.48 1156.02 L437.48 1156.02 L437.48 1108.02 L389.48 1108.02 Z" fill="#ff6347" fill-rule="evenodd" fill-opacity="1" stroke="none"/>
<path clip-path="url(#clip552)" d="M389.48 588.77 L389.48 636.77 L437.48 636.77 L437.48 588.77 L389.48 588.77 Z" fill="#ff6347" fill-rule="evenodd" fill-opacity="1" stroke="none"/>
<path clip-path="url(#clip552)" d="M794.46 1850.53 L788.82 1866.76 L771.636 1867.12 L785.34 1877.51 L780.348 1893.95 L794.46 1884.13 L808.572 1893.95 L803.58 1877.51 L817.284 1867.12 L800.1 1866.76 L794.46 1850.53 Z" fill="#a0522d" fill-rule="evenodd" fill-opacity="1" stroke="none"/>
<path clip-path="url(#clip552)" d="M3461.32 1244.52 L3455.68 1260.74 L3438.5 1261.1 L3452.2 1271.49 L3447.21 1287.93 L3461.32 1278.12 L3475.43 1287.93 L3470.44 1271.49 L3484.14 1261.1 L3466.96 1260.74 L3461.32 1244.52 Z" fill="#a0522d" fill-rule="evenodd" fill-opacity="1" stroke="none"/>
<path clip-path="url(#clip552)" d="M413.48 1221.66 L407.84 1237.89 L390.656 1238.25 L404.36 1248.64 L399.368 1265.08 L413.48 1255.26 L427.592 1265.08 L422.6 1248.64 L436.304 1238.25 L419.12 1237.89 L413.48 1221.66 Z" fill="#a0522d" fill-rule="evenodd" fill-opacity="1" stroke="none"/>
<path clip-path="url(#clip552)" d="M413.48 751.474 L407.84 767.698 L390.656 768.058 L404.36 778.45 L399.368 794.89 L413.48 785.074 L427.592 794.89 L422.6 778.45 L436.304 768.058 L419.12 767.698 L413.48 751.474 Z" fill="#a0522d" fill-rule="evenodd" fill-opacity="1" stroke="none"/>
<path clip-path="url(#clip552)" d="M413.48 298.892 L407.84 315.116 L390.656 315.476 L404.36 325.868 L399.368 342.308 L413.48 332.492 L427.592 342.308 L422.6 325.868 L436.304 315.476 L419.12 315.116 L413.48 298.892 Z" fill="#a0522d" fill-rule="evenodd" fill-opacity="1" stroke="none"/>
<path clip-path="url(#clip552)" d="M794.46 1850.36 L770.46 1874.36 L794.46 1898.36 L818.46 1874.36 L794.46 1850.36 Z" fill="#2e8b57" fill-rule="evenodd" fill-opacity="1" stroke="none"/>
<path clip-path="url(#clip552)" d="M3461.32 1188.64 L3437.32 1212.64 L3461.32 1236.64 L3485.32 1212.64 L3461.32 1188.64 Z" fill="#2e8b57" fill-rule="evenodd" fill-opacity="1" stroke="none"/>
<path clip-path="url(#clip552)" d="M413.48 1197.49 L389.48 1221.49 L413.48 1245.49 L437.48 1221.49 L413.48 1197.49 Z" fill="#2e8b57" fill-rule="evenodd" fill-opacity="1" stroke="none"/>
<path clip-path="url(#clip552)" d="M413.48 708.067 L389.48 732.067 L413.48 756.067 L437.48 732.067 L413.48 708.067 Z" fill="#2e8b57" fill-rule="evenodd" fill-opacity="1" stroke="none"/>
<path clip-path="url(#clip552)" d="M413.48 276.989 L389.48 300.989 L413.48 324.989 L437.48 300.989 L413.48 276.989 Z" fill="#2e8b57" fill-rule="evenodd" fill-opacity="1" stroke="none"/>
<path clip-path="url(#clip552)" d="M794.46 2078.46 L770.46 2126.46 L818.46 2126.46 L794.46 2078.46 Z" fill="#ff8c00" fill-rule="evenodd" fill-opacity="1" stroke="none"/>
<path clip-path="url(#clip552)" d="M3461.32 1467.98 L3437.32 1515.98 L3485.32 1515.98 L3461.32 1467.98 Z" fill="#ff8c00" fill-rule="evenodd" fill-opacity="1" stroke="none"/>
<path clip-path="url(#clip552)" d="M413.48 1532.96 L389.48 1580.96 L437.48 1580.96 L413.48 1532.96 Z" fill="#ff8c00" fill-rule="evenodd" fill-opacity="1" stroke="none"/>
<path clip-path="url(#clip552)" d="M413.48 982.473 L389.48 1030.47 L437.48 1030.47 L413.48 982.473 Z" fill="#ff8c00" fill-rule="evenodd" fill-opacity="1" stroke="none"/>
<path clip-path="url(#clip552)" d="M413.48 538.25 L389.48 586.25 L437.48 586.25 L413.48 538.25 Z" fill="#ff8c00" fill-rule="evenodd" fill-opacity="1" stroke="none"/>
<path clip-path="url(#clip550)" d="M2751.93 673.476 L3445.07 673.476 L3445.07 310.596 L2751.93 310.596  Z" fill="#ffffff" fill-rule="evenodd" fill-opacity="1"/>
<polyline clip-path="url(#clip550)" style="stroke:#000000; stroke-linecap:round; stroke-linejoin:round; stroke-width:4; stroke-opacity:1; fill:none" points="2751.93,673.476 3445.07,673.476 3445.07,310.596 2751.93,310.596 2751.93,673.476 "/>
<path clip-path="url(#clip550)" d="M2921.11 336.836 L2869.91 336.836 L2895.51 388.036 L2921.11 336.836 Z" fill="#9370db" fill-rule="evenodd" fill-opacity="1" stroke="none"/>
<path clip-path="url(#clip550)" d="M3049.73 343.744 Q3046.62 349.068 3045.12 354.277 Q3043.62 359.485 3043.62 364.832 Q3043.62 370.179 3045.12 375.434 Q3046.65 380.665 3049.73 385.966 L3046.02 385.966 Q3042.55 380.527 3040.81 375.272 Q3039.1 370.017 3039.1 364.832 Q3039.1 359.67 3040.81 354.439 Q3042.53 349.207 3046.02 343.744 L3049.73 343.744 Z" fill="#000000" fill-rule="nonzero" fill-opacity="1" /><path clip-path="url(#clip550)" d="M3057.99 353.791 L3062.25 353.791 L3062.25 380.179 Q3062.25 385.133 3060.35 387.355 Q3058.48 389.577 3054.29 389.577 L3052.67 389.577 L3052.67 385.966 L3053.8 385.966 Q3056.23 385.966 3057.11 384.832 Q3057.99 383.721 3057.99 380.179 L3057.99 353.791 M3057.99 343.698 L3062.25 343.698 L3062.25 349.092 L3057.99 349.092 L3057.99 343.698 Z" fill="#000000" fill-rule="nonzero" fill-opacity="1" /><path clip-path="url(#clip550)" d="M3070.72 369.485 L3070.72 353.791 L3074.98 353.791 L3074.98 369.323 Q3074.98 373.003 3076.42 374.855 Q3077.85 376.684 3080.72 376.684 Q3084.17 376.684 3086.16 374.485 Q3088.18 372.286 3088.18 368.49 L3088.18 353.791 L3092.43 353.791 L3092.43 379.716 L3088.18 379.716 L3088.18 375.735 Q3086.62 378.096 3084.56 379.253 Q3082.53 380.388 3079.82 380.388 Q3075.35 380.388 3073.04 377.61 Q3070.72 374.832 3070.72 369.485 M3081.44 353.166 L3081.44 353.166 Z" fill="#000000" fill-rule="nonzero" fill-opacity="1" /><path clip-path="url(#clip550)" d="M3121.39 358.767 Q3122.99 355.897 3125.21 354.531 Q3127.43 353.166 3130.44 353.166 Q3134.49 353.166 3136.69 356.013 Q3138.89 358.837 3138.89 364.068 L3138.89 379.716 L3134.61 379.716 L3134.61 364.207 Q3134.61 360.48 3133.29 358.675 Q3131.97 356.869 3129.26 356.869 Q3125.95 356.869 3124.03 359.068 Q3122.11 361.267 3122.11 365.064 L3122.11 379.716 L3117.83 379.716 L3117.83 364.207 Q3117.83 360.457 3116.51 358.675 Q3115.19 356.869 3112.43 356.869 Q3109.17 356.869 3107.25 359.091 Q3105.33 361.291 3105.33 365.064 L3105.33 379.716 L3101.05 379.716 L3101.05 353.791 L3105.33 353.791 L3105.33 357.818 Q3106.79 355.434 3108.82 354.3 Q3110.86 353.166 3113.66 353.166 Q3116.49 353.166 3118.45 354.601 Q3120.44 356.036 3121.39 358.767 Z" fill="#000000" fill-rule="nonzero" fill-opacity="1" /><path clip-path="url(#clip550)" d="M3151.51 375.827 L3151.51 389.577 L3147.23 389.577 L3147.23 353.791 L3151.51 353.791 L3151.51 357.726 Q3152.85 355.411 3154.89 354.3 Q3156.95 353.166 3159.8 353.166 Q3164.52 353.166 3167.46 356.916 Q3170.42 360.666 3170.42 366.777 Q3170.42 372.888 3167.46 376.638 Q3164.52 380.388 3159.8 380.388 Q3156.95 380.388 3154.89 379.277 Q3152.85 378.142 3151.51 375.827 M3166 366.777 Q3166 362.078 3164.05 359.416 Q3162.13 356.73 3158.75 356.73 Q3155.37 356.73 3153.43 359.416 Q3151.51 362.078 3151.51 366.777 Q3151.51 371.476 3153.43 374.161 Q3155.37 376.823 3158.75 376.823 Q3162.13 376.823 3164.05 374.161 Q3166 371.476 3166 366.777 Z" fill="#000000" fill-rule="nonzero" fill-opacity="1" /><path clip-path="url(#clip550)" d="M3178.57 373.837 L3183.45 373.837 L3183.45 377.818 L3179.66 385.226 L3176.67 385.226 L3178.57 377.818 L3178.57 373.837 Z" fill="#000000" fill-rule="nonzero" fill-opacity="1" /><path clip-path="url(#clip550)" d="M3207.62 353.791 L3211.88 353.791 L3211.88 379.716 L3207.62 379.716 L3207.62 353.791 M3207.62 343.698 L3211.88 343.698 L3211.88 349.092 L3207.62 349.092 L3207.62 343.698 Z" fill="#000000" fill-rule="nonzero" fill-opacity="1" /><path clip-path="url(#clip550)" d="M3224.91 375.827 L3224.91 389.577 L3220.63 389.577 L3220.63 353.791 L3224.91 353.791 L3224.91 357.726 Q3226.25 355.411 3228.29 354.3 Q3230.35 353.166 3233.2 353.166 Q3237.92 353.166 3240.86 356.916 Q3243.82 360.666 3243.82 366.777 Q3243.82 372.888 3240.86 376.638 Q3237.92 380.388 3233.2 380.388 Q3230.35 380.388 3228.29 379.277 Q3226.25 378.142 3224.91 375.827 M3239.4 366.777 Q3239.4 362.078 3237.46 359.416 Q3235.54 356.73 3232.16 356.73 Q3228.78 356.73 3226.83 359.416 Q3224.91 362.078 3224.91 366.777 Q3224.91 371.476 3226.83 374.161 Q3228.78 376.823 3232.16 376.823 Q3235.54 376.823 3237.46 374.161 Q3239.4 371.476 3239.4 366.777 Z" fill="#000000" fill-rule="nonzero" fill-opacity="1" /><path clip-path="url(#clip550)" d="M3260.93 356.777 Q3257.5 356.777 3255.51 359.462 Q3253.52 362.124 3253.52 366.777 Q3253.52 371.429 3255.49 374.115 Q3257.48 376.777 3260.93 376.777 Q3264.33 376.777 3266.32 374.091 Q3268.31 371.406 3268.31 366.777 Q3268.31 362.17 3266.32 359.485 Q3264.33 356.777 3260.93 356.777 M3260.93 353.166 Q3266.48 353.166 3269.66 356.777 Q3272.83 360.388 3272.83 366.777 Q3272.83 373.142 3269.66 376.777 Q3266.48 380.388 3260.93 380.388 Q3255.35 380.388 3252.18 376.777 Q3249.03 373.142 3249.03 366.777 Q3249.03 360.388 3252.18 356.777 Q3255.35 353.166 3260.93 353.166 Z" fill="#000000" fill-rule="nonzero" fill-opacity="1" /><path clip-path="url(#clip550)" d="M3284.01 375.827 L3284.01 389.577 L3279.72 389.577 L3279.72 353.791 L3284.01 353.791 L3284.01 357.726 Q3285.35 355.411 3287.39 354.3 Q3289.45 353.166 3292.29 353.166 Q3297.02 353.166 3299.96 356.916 Q3302.92 360.666 3302.92 366.777 Q3302.92 372.888 3299.96 376.638 Q3297.02 380.388 3292.29 380.388 Q3289.45 380.388 3287.39 379.277 Q3285.35 378.142 3284.01 375.827 M3298.5 366.777 Q3298.5 362.078 3296.55 359.416 Q3294.63 356.73 3291.25 356.73 Q3287.87 356.73 3285.93 359.416 Q3284.01 362.078 3284.01 366.777 Q3284.01 371.476 3285.93 374.161 Q3287.87 376.823 3291.25 376.823 Q3294.63 376.823 3296.55 374.161 Q3298.5 371.476 3298.5 366.777 Z" fill="#000000" fill-rule="nonzero" fill-opacity="1" /><path clip-path="url(#clip550)" d="M3314.19 346.43 L3314.19 353.791 L3322.97 353.791 L3322.97 357.101 L3314.19 357.101 L3314.19 371.175 Q3314.19 374.346 3315.05 375.249 Q3315.93 376.152 3318.59 376.152 L3322.97 376.152 L3322.97 379.716 L3318.59 379.716 Q3313.66 379.716 3311.78 377.888 Q3309.91 376.036 3309.91 371.175 L3309.91 357.101 L3306.79 357.101 L3306.79 353.791 L3309.91 353.791 L3309.91 346.43 L3314.19 346.43 Z" fill="#000000" fill-rule="nonzero" fill-opacity="1" /><path clip-path="url(#clip550)" d="M3327.9 343.744 L3331.6 343.744 Q3335.07 349.207 3336.78 354.439 Q3338.52 359.67 3338.52 364.832 Q3338.52 370.017 3336.78 375.272 Q3335.07 380.527 3331.6 385.966 L3327.9 385.966 Q3330.97 380.665 3332.48 375.434 Q3334.01 370.179 3334.01 364.832 Q3334.01 359.485 3332.48 354.277 Q3330.97 349.068 3327.9 343.744 Z" fill="#000000" fill-rule="nonzero" fill-opacity="1" /><circle clip-path="url(#clip550)" cx="2895.51" cy="414.276" r="23.04" fill="#4682b4" fill-rule="evenodd" fill-opacity="1" stroke="none"/>
<path clip-path="url(#clip550)" d="M3049.73 395.584 Q3046.62 400.908 3045.12 406.117 Q3043.62 411.325 3043.62 416.672 Q3043.62 422.019 3045.12 427.274 Q3046.65 432.505 3049.73 437.806 L3046.02 437.806 Q3042.55 432.367 3040.81 427.112 Q3039.1 421.857 3039.1 416.672 Q3039.1 411.51 3040.81 406.279 Q3042.53 401.047 3046.02 395.584 L3049.73 395.584 Z" fill="#000000" fill-rule="nonzero" fill-opacity="1" /><path clip-path="url(#clip550)" d="M3069.77 418.524 Q3064.61 418.524 3062.62 419.705 Q3060.63 420.885 3060.63 423.732 Q3060.63 426.001 3062.11 427.343 Q3063.62 428.663 3066.18 428.663 Q3069.73 428.663 3071.86 426.163 Q3074.01 423.64 3074.01 419.473 L3074.01 418.524 L3069.77 418.524 M3078.27 416.765 L3078.27 431.556 L3074.01 431.556 L3074.01 427.621 Q3072.55 429.982 3070.37 431.117 Q3068.2 432.228 3065.05 432.228 Q3061.07 432.228 3058.71 430.005 Q3056.37 427.76 3056.37 424.01 Q3056.37 419.635 3059.29 417.413 Q3062.23 415.191 3068.04 415.191 L3074.01 415.191 L3074.01 414.774 Q3074.01 411.834 3072.06 410.237 Q3070.14 408.617 3066.65 408.617 Q3064.43 408.617 3062.32 409.149 Q3060.21 409.681 3058.27 410.746 L3058.27 406.811 Q3060.61 405.908 3062.8 405.469 Q3065 405.006 3067.09 405.006 Q3072.71 405.006 3075.49 407.922 Q3078.27 410.839 3078.27 416.765 Z" fill="#000000" fill-rule="nonzero" fill-opacity="1" /><path clip-path="url(#clip550)" d="M3104.1 409.566 L3104.1 395.538 L3108.36 395.538 L3108.36 431.556 L3104.1 431.556 L3104.1 427.667 Q3102.76 429.982 3100.7 431.117 Q3098.66 432.228 3095.79 432.228 Q3091.09 432.228 3088.13 428.478 Q3085.19 424.728 3085.19 418.617 Q3085.19 412.506 3088.13 408.756 Q3091.09 405.006 3095.79 405.006 Q3098.66 405.006 3100.7 406.14 Q3102.76 407.251 3104.1 409.566 M3089.59 418.617 Q3089.59 423.316 3091.51 426.001 Q3093.45 428.663 3096.83 428.663 Q3100.21 428.663 3102.16 426.001 Q3104.1 423.316 3104.1 418.617 Q3104.1 413.918 3102.16 411.256 Q3100.21 408.57 3096.83 408.57 Q3093.45 408.57 3091.51 411.256 Q3089.59 413.918 3089.59 418.617 Z" fill="#000000" fill-rule="nonzero" fill-opacity="1" /><path clip-path="url(#clip550)" d="M3138.68 415.908 L3138.68 431.556 L3134.42 431.556 L3134.42 416.047 Q3134.42 412.367 3132.99 410.538 Q3131.55 408.709 3128.68 408.709 Q3125.24 408.709 3123.24 410.908 Q3121.25 413.107 3121.25 416.904 L3121.25 431.556 L3116.97 431.556 L3116.97 405.631 L3121.25 405.631 L3121.25 409.658 Q3122.78 407.32 3124.84 406.163 Q3126.92 405.006 3129.63 405.006 Q3134.1 405.006 3136.39 407.783 Q3138.68 410.538 3138.68 415.908 Z" fill="#000000" fill-rule="nonzero" fill-opacity="1" /><path clip-path="url(#clip550)" d="M3147.18 395.538 L3151.44 395.538 L3151.44 431.556 L3147.18 431.556 L3147.18 395.538 Z" fill="#000000" fill-rule="nonzero" fill-opacity="1" /><path clip-path="url(#clip550)" d="M3164.47 427.667 L3164.47 441.417 L3160.19 441.417 L3160.19 405.631 L3164.47 405.631 L3164.47 409.566 Q3165.81 407.251 3167.85 406.14 Q3169.91 405.006 3172.76 405.006 Q3177.48 405.006 3180.42 408.756 Q3183.38 412.506 3183.38 418.617 Q3183.38 424.728 3180.42 428.478 Q3177.48 432.228 3172.76 432.228 Q3169.91 432.228 3167.85 431.117 Q3165.81 429.982 3164.47 427.667 M3178.96 418.617 Q3178.96 413.918 3177.02 411.256 Q3175.1 408.57 3171.72 408.57 Q3168.34 408.57 3166.39 411.256 Q3164.47 413.918 3164.47 418.617 Q3164.47 423.316 3166.39 426.001 Q3168.34 428.663 3171.72 428.663 Q3175.1 428.663 3177.02 426.001 Q3178.96 423.316 3178.96 418.617 Z" fill="#000000" fill-rule="nonzero" fill-opacity="1" /><path clip-path="url(#clip550)" d="M3191.53 425.677 L3196.42 425.677 L3196.42 429.658 L3192.62 437.066 L3189.63 437.066 L3191.53 429.658 L3191.53 425.677 Z" fill="#000000" fill-rule="nonzero" fill-opacity="1" /><path clip-path="url(#clip550)" d="M3220.58 405.631 L3224.84 405.631 L3224.84 431.556 L3220.58 431.556 L3220.58 405.631 M3220.58 395.538 L3224.84 395.538 L3224.84 400.932 L3220.58 400.932 L3220.58 395.538 Z" fill="#000000" fill-rule="nonzero" fill-opacity="1" /><path clip-path="url(#clip550)" d="M3237.87 427.667 L3237.87 441.417 L3233.59 441.417 L3233.59 405.631 L3237.87 405.631 L3237.87 409.566 Q3239.22 407.251 3241.25 406.14 Q3243.31 405.006 3246.16 405.006 Q3250.88 405.006 3253.82 408.756 Q3256.79 412.506 3256.79 418.617 Q3256.79 424.728 3253.82 428.478 Q3250.88 432.228 3246.16 432.228 Q3243.31 432.228 3241.25 431.117 Q3239.22 429.982 3237.87 427.667 M3252.36 418.617 Q3252.36 413.918 3250.42 411.256 Q3248.5 408.57 3245.12 408.57 Q3241.74 408.57 3239.79 411.256 Q3237.87 413.918 3237.87 418.617 Q3237.87 423.316 3239.79 426.001 Q3241.74 428.663 3245.12 428.663 Q3248.5 428.663 3250.42 426.001 Q3252.36 423.316 3252.36 418.617 Z" fill="#000000" fill-rule="nonzero" fill-opacity="1" /><path clip-path="url(#clip550)" d="M3273.89 408.617 Q3270.47 408.617 3268.48 411.302 Q3266.48 413.964 3266.48 418.617 Q3266.48 423.269 3268.45 425.955 Q3270.44 428.617 3273.89 428.617 Q3277.29 428.617 3279.29 425.931 Q3281.28 423.246 3281.28 418.617 Q3281.28 414.01 3279.29 411.325 Q3277.29 408.617 3273.89 408.617 M3273.89 405.006 Q3279.45 405.006 3282.62 408.617 Q3285.79 412.228 3285.79 418.617 Q3285.79 424.982 3282.62 428.617 Q3279.45 432.228 3273.89 432.228 Q3268.31 432.228 3265.14 428.617 Q3261.99 424.982 3261.99 418.617 Q3261.99 412.228 3265.14 408.617 Q3268.31 405.006 3273.89 405.006 Z" fill="#000000" fill-rule="nonzero" fill-opacity="1" /><path clip-path="url(#clip550)" d="M3296.97 427.667 L3296.97 441.417 L3292.69 441.417 L3292.69 405.631 L3296.97 405.631 L3296.97 409.566 Q3298.31 407.251 3300.35 406.14 Q3302.41 405.006 3305.26 405.006 Q3309.98 405.006 3312.92 408.756 Q3315.88 412.506 3315.88 418.617 Q3315.88 424.728 3312.92 428.478 Q3309.98 432.228 3305.26 432.228 Q3302.41 432.228 3300.35 431.117 Q3298.31 429.982 3296.97 427.667 M3311.46 418.617 Q3311.46 413.918 3309.52 411.256 Q3307.6 408.57 3304.22 408.57 Q3300.84 408.57 3298.89 411.256 Q3296.97 413.918 3296.97 418.617 Q3296.97 423.316 3298.89 426.001 Q3300.84 428.663 3304.22 428.663 Q3307.6 428.663 3309.52 426.001 Q3311.46 423.316 3311.46 418.617 Z" fill="#000000" fill-rule="nonzero" fill-opacity="1" /><path clip-path="url(#clip550)" d="M3327.16 398.27 L3327.16 405.631 L3335.93 405.631 L3335.93 408.941 L3327.16 408.941 L3327.16 423.015 Q3327.16 426.186 3328.01 427.089 Q3328.89 427.992 3331.55 427.992 L3335.93 427.992 L3335.93 431.556 L3331.55 431.556 Q3326.62 431.556 3324.75 429.728 Q3322.87 427.876 3322.87 423.015 L3322.87 408.941 L3319.75 408.941 L3319.75 405.631 L3322.87 405.631 L3322.87 398.27 L3327.16 398.27 Z" fill="#000000" fill-rule="nonzero" fill-opacity="1" /><path clip-path="url(#clip550)" d="M3340.86 395.584 L3344.56 395.584 Q3348.03 401.047 3349.75 406.279 Q3351.48 411.51 3351.48 416.672 Q3351.48 421.857 3349.75 427.112 Q3348.03 432.367 3344.56 437.806 L3340.86 437.806 Q3343.94 432.505 3345.44 427.274 Q3346.97 422.019 3346.97 416.672 Q3346.97 411.325 3345.44 406.117 Q3343.94 400.908 3340.86 395.584 Z" fill="#000000" fill-rule="nonzero" fill-opacity="1" /><path clip-path="url(#clip550)" d="M2869.91 440.516 L2869.91 491.716 L2921.11 491.716 L2921.11 440.516 L2869.91 440.516 Z" fill="#ff6347" fill-rule="evenodd" fill-opacity="1" stroke="none"/>
<path clip-path="url(#clip550)" d="M3049.73 447.424 Q3046.62 452.748 3045.12 457.957 Q3043.62 463.165 3043.62 468.512 Q3043.62 473.859 3045.12 479.114 Q3046.65 484.345 3049.73 489.646 L3046.02 489.646 Q3042.55 484.207 3040.81 478.952 Q3039.1 473.697 3039.1 468.512 Q3039.1 463.35 3040.81 458.119 Q3042.53 452.887 3046.02 447.424 L3049.73 447.424 Z" fill="#000000" fill-rule="nonzero" fill-opacity="1" /><path clip-path="url(#clip550)" d="M3080.17 469.369 L3080.17 471.452 L3060.58 471.452 Q3060.86 475.85 3063.22 478.165 Q3065.61 480.457 3069.84 480.457 Q3072.3 480.457 3074.59 479.855 Q3076.9 479.253 3079.17 478.049 L3079.17 482.077 Q3076.88 483.049 3074.47 483.558 Q3072.06 484.068 3069.59 484.068 Q3063.38 484.068 3059.75 480.457 Q3056.14 476.845 3056.14 470.688 Q3056.14 464.322 3059.56 460.596 Q3063.01 456.846 3068.85 456.846 Q3074.08 456.846 3077.11 460.225 Q3080.17 463.582 3080.17 469.369 M3075.91 468.119 Q3075.86 464.623 3073.94 462.54 Q3072.04 460.457 3068.89 460.457 Q3065.33 460.457 3063.18 462.471 Q3061.05 464.484 3060.72 468.142 L3075.91 468.119 Z" fill="#000000" fill-rule="nonzero" fill-opacity="1" /><path clip-path="url(#clip550)" d="M3107.87 457.471 L3098.5 470.086 L3108.36 483.396 L3103.34 483.396 L3095.79 473.211 L3088.24 483.396 L3083.22 483.396 L3093.29 469.832 L3084.08 457.471 L3089.1 457.471 L3095.98 466.707 L3102.85 457.471 L3107.87 457.471 Z" fill="#000000" fill-rule="nonzero" fill-opacity="1" /><path clip-path="url(#clip550)" d="M3126.16 470.364 Q3121 470.364 3119.01 471.545 Q3117.02 472.725 3117.02 475.572 Q3117.02 477.841 3118.5 479.183 Q3120 480.503 3122.57 480.503 Q3126.11 480.503 3128.24 478.003 Q3130.4 475.48 3130.4 471.313 L3130.4 470.364 L3126.16 470.364 M3134.66 468.605 L3134.66 483.396 L3130.4 483.396 L3130.4 479.461 Q3128.94 481.822 3126.76 482.957 Q3124.59 484.068 3121.44 484.068 Q3117.46 484.068 3115.1 481.845 Q3112.76 479.6 3112.76 475.85 Q3112.76 471.475 3115.67 469.253 Q3118.61 467.031 3124.42 467.031 L3130.4 467.031 L3130.4 466.614 Q3130.4 463.674 3128.45 462.077 Q3126.53 460.457 3123.04 460.457 Q3120.81 460.457 3118.71 460.989 Q3116.6 461.521 3114.66 462.586 L3114.66 458.651 Q3116.99 457.748 3119.19 457.309 Q3121.39 456.846 3123.48 456.846 Q3129.1 456.846 3131.88 459.762 Q3134.66 462.679 3134.66 468.605 Z" fill="#000000" fill-rule="nonzero" fill-opacity="1" /><path clip-path="url(#clip550)" d="M3144.52 477.517 L3149.4 477.517 L3149.4 481.498 L3145.61 488.906 L3142.62 488.906 L3144.52 481.498 L3144.52 477.517 Z" fill="#000000" fill-rule="nonzero" fill-opacity="1" /><path clip-path="url(#clip550)" d="M3173.57 457.471 L3177.83 457.471 L3177.83 483.396 L3173.57 483.396 L3173.57 457.471 M3173.57 447.378 L3177.83 447.378 L3177.83 452.772 L3173.57 452.772 L3173.57 447.378 Z" fill="#000000" fill-rule="nonzero" fill-opacity="1" /><path clip-path="url(#clip550)" d="M3190.86 479.507 L3190.86 493.257 L3186.58 493.257 L3186.58 457.471 L3190.86 457.471 L3190.86 461.406 Q3192.2 459.091 3194.24 457.98 Q3196.3 456.846 3199.15 456.846 Q3203.87 456.846 3206.81 460.596 Q3209.77 464.346 3209.77 470.457 Q3209.77 476.568 3206.81 480.318 Q3203.87 484.068 3199.15 484.068 Q3196.3 484.068 3194.24 482.957 Q3192.2 481.822 3190.86 479.507 M3205.35 470.457 Q3205.35 465.758 3203.41 463.096 Q3201.48 460.41 3198.11 460.41 Q3194.73 460.41 3192.78 463.096 Q3190.86 465.758 3190.86 470.457 Q3190.86 475.156 3192.78 477.841 Q3194.73 480.503 3198.11 480.503 Q3201.48 480.503 3203.41 477.841 Q3205.35 475.156 3205.35 470.457 Z" fill="#000000" fill-rule="nonzero" fill-opacity="1" /><path clip-path="url(#clip550)" d="M3226.88 460.457 Q3223.45 460.457 3221.46 463.142 Q3219.47 465.804 3219.47 470.457 Q3219.47 475.109 3221.44 477.795 Q3223.43 480.457 3226.88 480.457 Q3230.28 480.457 3232.27 477.771 Q3234.26 475.086 3234.26 470.457 Q3234.26 465.85 3232.27 463.165 Q3230.28 460.457 3226.88 460.457 M3226.88 456.846 Q3232.43 456.846 3235.6 460.457 Q3238.78 464.068 3238.78 470.457 Q3238.78 476.822 3235.6 480.457 Q3232.43 484.068 3226.88 484.068 Q3221.3 484.068 3218.13 480.457 Q3214.98 476.822 3214.98 470.457 Q3214.98 464.068 3218.13 460.457 Q3221.3 456.846 3226.88 456.846 Z" fill="#000000" fill-rule="nonzero" fill-opacity="1" /><path clip-path="url(#clip550)" d="M3249.96 479.507 L3249.96 493.257 L3245.67 493.257 L3245.67 457.471 L3249.96 457.471 L3249.96 461.406 Q3251.3 459.091 3253.34 457.98 Q3255.4 456.846 3258.24 456.846 Q3262.97 456.846 3265.91 460.596 Q3268.87 464.346 3268.87 470.457 Q3268.87 476.568 3265.91 480.318 Q3262.97 484.068 3258.24 484.068 Q3255.4 484.068 3253.34 482.957 Q3251.3 481.822 3249.96 479.507 M3264.45 470.457 Q3264.45 465.758 3262.5 463.096 Q3260.58 460.41 3257.2 460.41 Q3253.82 460.41 3251.88 463.096 Q3249.96 465.758 3249.96 470.457 Q3249.96 475.156 3251.88 477.841 Q3253.82 480.503 3257.2 480.503 Q3260.58 480.503 3262.5 477.841 Q3264.45 475.156 3264.45 470.457 Z" fill="#000000" fill-rule="nonzero" fill-opacity="1" /><path clip-path="url(#clip550)" d="M3280.14 450.11 L3280.14 457.471 L3288.91 457.471 L3288.91 460.781 L3280.14 460.781 L3280.14 474.855 Q3280.14 478.026 3281 478.929 Q3281.88 479.832 3284.54 479.832 L3288.91 479.832 L3288.91 483.396 L3284.54 483.396 Q3279.61 483.396 3277.73 481.568 Q3275.86 479.716 3275.86 474.855 L3275.86 460.781 L3272.73 460.781 L3272.73 457.471 L3275.86 457.471 L3275.86 450.11 L3280.14 450.11 Z" fill="#000000" fill-rule="nonzero" fill-opacity="1" /><path clip-path="url(#clip550)" d="M3293.85 447.424 L3297.55 447.424 Q3301.02 452.887 3302.73 458.119 Q3304.47 463.35 3304.47 468.512 Q3304.47 473.697 3302.73 478.952 Q3301.02 484.207 3297.55 489.646 L3293.85 489.646 Q3296.92 484.345 3298.43 479.114 Q3299.96 473.859 3299.96 468.512 Q3299.96 463.165 3298.43 457.957 Q3296.92 452.748 3293.85 447.424 Z" fill="#000000" fill-rule="nonzero" fill-opacity="1" /><path clip-path="url(#clip550)" d="M2895.51 492.356 L2889.5 509.662 L2871.17 510.046 L2885.79 521.131 L2880.46 538.667 L2895.51 528.196 L2910.57 538.667 L2905.24 521.131 L2919.86 510.046 L2901.53 509.662 L2895.51 492.356 Z" fill="#a0522d" fill-rule="evenodd" fill-opacity="1" stroke="none"/>
<path clip-path="url(#clip550)" d="M3049.73 499.264 Q3046.62 504.588 3045.12 509.797 Q3043.62 515.005 3043.62 520.352 Q3043.62 525.699 3045.12 530.954 Q3046.65 536.185 3049.73 541.486 L3046.02 541.486 Q3042.55 536.047 3040.81 530.792 Q3039.1 525.537 3039.1 520.352 Q3039.1 515.19 3040.81 509.959 Q3042.53 504.727 3046.02 499.264 L3049.73 499.264 Z" fill="#000000" fill-rule="nonzero" fill-opacity="1" /><path clip-path="url(#clip550)" d="M3057.99 509.311 L3062.25 509.311 L3062.25 535.699 Q3062.25 540.653 3060.35 542.875 Q3058.48 545.097 3054.29 545.097 L3052.67 545.097 L3052.67 541.486 L3053.8 541.486 Q3056.23 541.486 3057.11 540.352 Q3057.99 539.241 3057.99 535.699 L3057.99 509.311 M3057.99 499.218 L3062.25 499.218 L3062.25 504.612 L3057.99 504.612 L3057.99 499.218 Z" fill="#000000" fill-rule="nonzero" fill-opacity="1" /><path clip-path="url(#clip550)" d="M3070.72 525.005 L3070.72 509.311 L3074.98 509.311 L3074.98 524.843 Q3074.98 528.523 3076.42 530.375 Q3077.85 532.204 3080.72 532.204 Q3084.17 532.204 3086.16 530.005 Q3088.18 527.806 3088.18 524.01 L3088.18 509.311 L3092.43 509.311 L3092.43 535.236 L3088.18 535.236 L3088.18 531.255 Q3086.62 533.616 3084.56 534.773 Q3082.53 535.908 3079.82 535.908 Q3075.35 535.908 3073.04 533.13 Q3070.72 530.352 3070.72 525.005 M3081.44 508.686 L3081.44 508.686 Z" fill="#000000" fill-rule="nonzero" fill-opacity="1" /><path clip-path="url(#clip550)" d="M3121.39 514.287 Q3122.99 511.417 3125.21 510.051 Q3127.43 508.686 3130.44 508.686 Q3134.49 508.686 3136.69 511.533 Q3138.89 514.357 3138.89 519.588 L3138.89 535.236 L3134.61 535.236 L3134.61 519.727 Q3134.61 516 3133.29 514.195 Q3131.97 512.389 3129.26 512.389 Q3125.95 512.389 3124.03 514.588 Q3122.11 516.787 3122.11 520.584 L3122.11 535.236 L3117.83 535.236 L3117.83 519.727 Q3117.83 515.977 3116.51 514.195 Q3115.19 512.389 3112.43 512.389 Q3109.17 512.389 3107.25 514.611 Q3105.33 516.811 3105.33 520.584 L3105.33 535.236 L3101.05 535.236 L3101.05 509.311 L3105.33 509.311 L3105.33 513.338 Q3106.79 510.954 3108.82 509.82 Q3110.86 508.686 3113.66 508.686 Q3116.49 508.686 3118.45 510.121 Q3120.44 511.556 3121.39 514.287 Z" fill="#000000" fill-rule="nonzero" fill-opacity="1" /><path clip-path="url(#clip550)" d="M3151.51 531.347 L3151.51 545.097 L3147.23 545.097 L3147.23 509.311 L3151.51 509.311 L3151.51 513.246 Q3152.85 510.931 3154.89 509.82 Q3156.95 508.686 3159.8 508.686 Q3164.52 508.686 3167.46 512.436 Q3170.42 516.186 3170.42 522.297 Q3170.42 528.408 3167.46 532.158 Q3164.52 535.908 3159.8 535.908 Q3156.95 535.908 3154.89 534.797 Q3152.85 533.662 3151.51 531.347 M3166 522.297 Q3166 517.598 3164.05 514.936 Q3162.13 512.25 3158.75 512.25 Q3155.37 512.25 3153.43 514.936 Q3151.51 517.598 3151.51 522.297 Q3151.51 526.996 3153.43 529.681 Q3155.37 532.343 3158.75 532.343 Q3162.13 532.343 3164.05 529.681 Q3166 526.996 3166 522.297 Z" fill="#000000" fill-rule="nonzero" fill-opacity="1" /><path clip-path="url(#clip550)" d="M3178.57 529.357 L3183.45 529.357 L3183.45 533.338 L3179.66 540.746 L3176.67 540.746 L3178.57 533.338 L3178.57 529.357 Z" fill="#000000" fill-rule="nonzero" fill-opacity="1" /><path clip-path="url(#clip550)" d="M3227.8 514.287 Q3229.4 511.417 3231.62 510.051 Q3233.85 508.686 3236.85 508.686 Q3240.91 508.686 3243.1 511.533 Q3245.3 514.357 3245.3 519.588 L3245.3 535.236 L3241.02 535.236 L3241.02 519.727 Q3241.02 516 3239.7 514.195 Q3238.38 512.389 3235.67 512.389 Q3232.36 512.389 3230.44 514.588 Q3228.52 516.787 3228.52 520.584 L3228.52 535.236 L3224.24 535.236 L3224.24 519.727 Q3224.24 515.977 3222.92 514.195 Q3221.6 512.389 3218.85 512.389 Q3215.58 512.389 3213.66 514.611 Q3211.74 516.811 3211.74 520.584 L3211.74 535.236 L3207.46 535.236 L3207.46 509.311 L3211.74 509.311 L3211.74 513.338 Q3213.2 510.954 3215.23 509.82 Q3217.27 508.686 3220.07 508.686 Q3222.9 508.686 3224.86 510.121 Q3226.85 511.556 3227.8 514.287 Z" fill="#000000" fill-rule="nonzero" fill-opacity="1" /><path clip-path="url(#clip550)" d="M3265.58 522.204 Q3260.42 522.204 3258.43 523.385 Q3256.44 524.565 3256.44 527.412 Q3256.44 529.681 3257.92 531.023 Q3259.42 532.343 3261.99 532.343 Q3265.54 532.343 3267.66 529.843 Q3269.82 527.32 3269.82 523.153 L3269.82 522.204 L3265.58 522.204 M3274.08 520.445 L3274.08 535.236 L3269.82 535.236 L3269.82 531.301 Q3268.36 533.662 3266.18 534.797 Q3264.01 535.908 3260.86 535.908 Q3256.88 535.908 3254.52 533.685 Q3252.18 531.44 3252.18 527.69 Q3252.18 523.315 3255.1 521.093 Q3258.04 518.871 3263.85 518.871 L3269.82 518.871 L3269.82 518.454 Q3269.82 515.514 3267.87 513.917 Q3265.95 512.297 3262.46 512.297 Q3260.23 512.297 3258.13 512.829 Q3256.02 513.361 3254.08 514.426 L3254.08 510.491 Q3256.41 509.588 3258.61 509.149 Q3260.81 508.686 3262.9 508.686 Q3268.52 508.686 3271.3 511.602 Q3274.08 514.519 3274.08 520.445 Z" fill="#000000" fill-rule="nonzero" fill-opacity="1" /><path clip-path="url(#clip550)" d="M3299.91 513.246 L3299.91 499.218 L3304.17 499.218 L3304.17 535.236 L3299.91 535.236 L3299.91 531.347 Q3298.57 533.662 3296.51 534.797 Q3294.47 535.908 3291.6 535.908 Q3286.9 535.908 3283.94 532.158 Q3281 528.408 3281 522.297 Q3281 516.186 3283.94 512.436 Q3286.9 508.686 3291.6 508.686 Q3294.47 508.686 3296.51 509.82 Q3298.57 510.931 3299.91 513.246 M3285.4 522.297 Q3285.4 526.996 3287.32 529.681 Q3289.26 532.343 3292.64 532.343 Q3296.02 532.343 3297.97 529.681 Q3299.91 526.996 3299.91 522.297 Q3299.91 517.598 3297.97 514.936 Q3296.02 512.25 3292.64 512.25 Q3289.26 512.25 3287.32 514.936 Q3285.4 517.598 3285.4 522.297 Z" fill="#000000" fill-rule="nonzero" fill-opacity="1" /><path clip-path="url(#clip550)" d="M3334.49 519.588 L3334.49 535.236 L3330.23 535.236 L3330.23 519.727 Q3330.23 516.047 3328.8 514.218 Q3327.36 512.389 3324.49 512.389 Q3321.04 512.389 3319.05 514.588 Q3317.06 516.787 3317.06 520.584 L3317.06 535.236 L3312.78 535.236 L3312.78 509.311 L3317.06 509.311 L3317.06 513.338 Q3318.59 511 3320.65 509.843 Q3322.73 508.686 3325.44 508.686 Q3329.91 508.686 3332.2 511.463 Q3334.49 514.218 3334.49 519.588 Z" fill="#000000" fill-rule="nonzero" fill-opacity="1" /><path clip-path="url(#clip550)" d="M3342.99 499.218 L3347.25 499.218 L3347.25 535.236 L3342.99 535.236 L3342.99 499.218 Z" fill="#000000" fill-rule="nonzero" fill-opacity="1" /><path clip-path="url(#clip550)" d="M3360.28 531.347 L3360.28 545.097 L3356 545.097 L3356 509.311 L3360.28 509.311 L3360.28 513.246 Q3361.62 510.931 3363.66 509.82 Q3365.72 508.686 3368.57 508.686 Q3373.29 508.686 3376.23 512.436 Q3379.19 516.186 3379.19 522.297 Q3379.19 528.408 3376.23 532.158 Q3373.29 535.908 3368.57 535.908 Q3365.72 535.908 3363.66 534.797 Q3361.62 533.662 3360.28 531.347 M3374.77 522.297 Q3374.77 517.598 3372.83 514.936 Q3370.91 512.25 3367.53 512.25 Q3364.15 512.25 3362.2 514.936 Q3360.28 517.598 3360.28 522.297 Q3360.28 526.996 3362.2 529.681 Q3364.15 532.343 3367.53 532.343 Q3370.91 532.343 3372.83 529.681 Q3374.77 526.996 3374.77 522.297 Z" fill="#000000" fill-rule="nonzero" fill-opacity="1" /><path clip-path="url(#clip550)" d="M3385.58 499.264 L3389.28 499.264 Q3392.76 504.727 3394.47 509.959 Q3396.21 515.19 3396.21 520.352 Q3396.21 525.537 3394.47 530.792 Q3392.76 536.047 3389.28 541.486 L3385.58 541.486 Q3388.66 536.185 3390.16 530.954 Q3391.69 525.699 3391.69 520.352 Q3391.69 515.005 3390.16 509.797 Q3388.66 504.588 3385.58 499.264 Z" fill="#000000" fill-rule="nonzero" fill-opacity="1" /><path clip-path="url(#clip550)" d="M2895.51 544.196 L2869.91 569.796 L2895.51 595.396 L2921.11 569.796 L2895.51 544.196 Z" fill="#2e8b57" fill-rule="evenodd" fill-opacity="1" stroke="none"/>
<path clip-path="url(#clip550)" d="M3049.73 551.104 Q3046.62 556.428 3045.12 561.637 Q3043.62 566.845 3043.62 572.192 Q3043.62 577.539 3045.12 582.794 Q3046.65 588.025 3049.73 593.326 L3046.02 593.326 Q3042.55 587.887 3040.81 582.632 Q3039.1 577.377 3039.1 572.192 Q3039.1 567.03 3040.81 561.799 Q3042.53 556.567 3046.02 551.104 L3049.73 551.104 Z" fill="#000000" fill-rule="nonzero" fill-opacity="1" /><path clip-path="url(#clip550)" d="M3069.77 574.044 Q3064.61 574.044 3062.62 575.225 Q3060.63 576.405 3060.63 579.252 Q3060.63 581.521 3062.11 582.863 Q3063.62 584.183 3066.18 584.183 Q3069.73 584.183 3071.86 581.683 Q3074.01 579.16 3074.01 574.993 L3074.01 574.044 L3069.77 574.044 M3078.27 572.285 L3078.27 587.076 L3074.01 587.076 L3074.01 583.141 Q3072.55 585.502 3070.37 586.637 Q3068.2 587.748 3065.05 587.748 Q3061.07 587.748 3058.71 585.525 Q3056.37 583.28 3056.37 579.53 Q3056.37 575.155 3059.29 572.933 Q3062.23 570.711 3068.04 570.711 L3074.01 570.711 L3074.01 570.294 Q3074.01 567.354 3072.06 565.757 Q3070.14 564.137 3066.65 564.137 Q3064.43 564.137 3062.32 564.669 Q3060.21 565.201 3058.27 566.266 L3058.27 562.331 Q3060.61 561.428 3062.8 560.989 Q3065 560.526 3067.09 560.526 Q3072.71 560.526 3075.49 563.442 Q3078.27 566.359 3078.27 572.285 Z" fill="#000000" fill-rule="nonzero" fill-opacity="1" /><path clip-path="url(#clip550)" d="M3104.1 565.086 L3104.1 551.058 L3108.36 551.058 L3108.36 587.076 L3104.1 587.076 L3104.1 583.187 Q3102.76 585.502 3100.7 586.637 Q3098.66 587.748 3095.79 587.748 Q3091.09 587.748 3088.13 583.998 Q3085.19 580.248 3085.19 574.137 Q3085.19 568.026 3088.13 564.276 Q3091.09 560.526 3095.79 560.526 Q3098.66 560.526 3100.7 561.66 Q3102.76 562.771 3104.1 565.086 M3089.59 574.137 Q3089.59 578.836 3091.51 581.521 Q3093.45 584.183 3096.83 584.183 Q3100.21 584.183 3102.16 581.521 Q3104.1 578.836 3104.1 574.137 Q3104.1 569.438 3102.16 566.776 Q3100.21 564.09 3096.83 564.09 Q3093.45 564.09 3091.51 566.776 Q3089.59 569.438 3089.59 574.137 Z" fill="#000000" fill-rule="nonzero" fill-opacity="1" /><path clip-path="url(#clip550)" d="M3138.68 571.428 L3138.68 587.076 L3134.42 587.076 L3134.42 571.567 Q3134.42 567.887 3132.99 566.058 Q3131.55 564.229 3128.68 564.229 Q3125.24 564.229 3123.24 566.428 Q3121.25 568.627 3121.25 572.424 L3121.25 587.076 L3116.97 587.076 L3116.97 561.151 L3121.25 561.151 L3121.25 565.178 Q3122.78 562.84 3124.84 561.683 Q3126.92 560.526 3129.63 560.526 Q3134.1 560.526 3136.39 563.303 Q3138.68 566.058 3138.68 571.428 Z" fill="#000000" fill-rule="nonzero" fill-opacity="1" /><path clip-path="url(#clip550)" d="M3147.18 551.058 L3151.44 551.058 L3151.44 587.076 L3147.18 587.076 L3147.18 551.058 Z" fill="#000000" fill-rule="nonzero" fill-opacity="1" /><path clip-path="url(#clip550)" d="M3164.47 583.187 L3164.47 596.937 L3160.19 596.937 L3160.19 561.151 L3164.47 561.151 L3164.47 565.086 Q3165.81 562.771 3167.85 561.66 Q3169.91 560.526 3172.76 560.526 Q3177.48 560.526 3180.42 564.276 Q3183.38 568.026 3183.38 574.137 Q3183.38 580.248 3180.42 583.998 Q3177.48 587.748 3172.76 587.748 Q3169.91 587.748 3167.85 586.637 Q3165.81 585.502 3164.47 583.187 M3178.96 574.137 Q3178.96 569.438 3177.02 566.776 Q3175.1 564.09 3171.72 564.09 Q3168.34 564.09 3166.39 566.776 Q3164.47 569.438 3164.47 574.137 Q3164.47 578.836 3166.39 581.521 Q3168.34 584.183 3171.72 584.183 Q3175.1 584.183 3177.02 581.521 Q3178.96 578.836 3178.96 574.137 Z" fill="#000000" fill-rule="nonzero" fill-opacity="1" /><path clip-path="url(#clip550)" d="M3191.53 581.197 L3196.42 581.197 L3196.42 585.178 L3192.62 592.586 L3189.63 592.586 L3191.53 585.178 L3191.53 581.197 Z" fill="#000000" fill-rule="nonzero" fill-opacity="1" /><path clip-path="url(#clip550)" d="M3240.77 566.127 Q3242.36 563.257 3244.59 561.891 Q3246.81 560.526 3249.82 560.526 Q3253.87 560.526 3256.07 563.373 Q3258.27 566.197 3258.27 571.428 L3258.27 587.076 L3253.98 587.076 L3253.98 571.567 Q3253.98 567.84 3252.66 566.035 Q3251.35 564.229 3248.64 564.229 Q3245.33 564.229 3243.41 566.428 Q3241.48 568.627 3241.48 572.424 L3241.48 587.076 L3237.2 587.076 L3237.2 571.567 Q3237.2 567.817 3235.88 566.035 Q3234.56 564.229 3231.81 564.229 Q3228.54 564.229 3226.62 566.451 Q3224.7 568.651 3224.7 572.424 L3224.7 587.076 L3220.42 587.076 L3220.42 561.151 L3224.7 561.151 L3224.7 565.178 Q3226.16 562.794 3228.2 561.66 Q3230.23 560.526 3233.04 560.526 Q3235.86 560.526 3237.83 561.961 Q3239.82 563.396 3240.77 566.127 Z" fill="#000000" fill-rule="nonzero" fill-opacity="1" /><path clip-path="url(#clip550)" d="M3278.54 574.044 Q3273.38 574.044 3271.39 575.225 Q3269.4 576.405 3269.4 579.252 Q3269.4 581.521 3270.88 582.863 Q3272.39 584.183 3274.96 584.183 Q3278.5 584.183 3280.63 581.683 Q3282.78 579.16 3282.78 574.993 L3282.78 574.044 L3278.54 574.044 M3287.04 572.285 L3287.04 587.076 L3282.78 587.076 L3282.78 583.141 Q3281.32 585.502 3279.15 586.637 Q3276.97 587.748 3273.82 587.748 Q3269.84 587.748 3267.48 585.525 Q3265.14 583.28 3265.14 579.53 Q3265.14 575.155 3268.06 572.933 Q3271 570.711 3276.81 570.711 L3282.78 570.711 L3282.78 570.294 Q3282.78 567.354 3280.84 565.757 Q3278.91 564.137 3275.42 564.137 Q3273.2 564.137 3271.09 564.669 Q3268.98 565.201 3267.04 566.266 L3267.04 562.331 Q3269.38 561.428 3271.58 560.989 Q3273.78 560.526 3275.86 560.526 Q3281.48 560.526 3284.26 563.442 Q3287.04 566.359 3287.04 572.285 Z" fill="#000000" fill-rule="nonzero" fill-opacity="1" /><path clip-path="url(#clip550)" d="M3312.87 565.086 L3312.87 551.058 L3317.13 551.058 L3317.13 587.076 L3312.87 587.076 L3312.87 583.187 Q3311.53 585.502 3309.47 586.637 Q3307.43 587.748 3304.56 587.748 Q3299.86 587.748 3296.9 583.998 Q3293.96 580.248 3293.96 574.137 Q3293.96 568.026 3296.9 564.276 Q3299.86 560.526 3304.56 560.526 Q3307.43 560.526 3309.47 561.66 Q3311.53 562.771 3312.87 565.086 M3298.36 574.137 Q3298.36 578.836 3300.28 581.521 Q3302.22 584.183 3305.6 584.183 Q3308.98 584.183 3310.93 581.521 Q3312.87 578.836 3312.87 574.137 Q3312.87 569.438 3310.93 566.776 Q3308.98 564.09 3305.6 564.09 Q3302.22 564.09 3300.28 566.776 Q3298.36 569.438 3298.36 574.137 Z" fill="#000000" fill-rule="nonzero" fill-opacity="1" /><path clip-path="url(#clip550)" d="M3347.46 571.428 L3347.46 587.076 L3343.2 587.076 L3343.2 571.567 Q3343.2 567.887 3341.76 566.058 Q3340.33 564.229 3337.46 564.229 Q3334.01 564.229 3332.02 566.428 Q3330.03 568.627 3330.03 572.424 L3330.03 587.076 L3325.74 587.076 L3325.74 561.151 L3330.03 561.151 L3330.03 565.178 Q3331.55 562.84 3333.61 561.683 Q3335.7 560.526 3338.41 560.526 Q3342.87 560.526 3345.16 563.303 Q3347.46 566.058 3347.46 571.428 Z" fill="#000000" fill-rule="nonzero" fill-opacity="1" /><path clip-path="url(#clip550)" d="M3355.95 551.058 L3360.21 551.058 L3360.21 587.076 L3355.95 587.076 L3355.95 551.058 Z" fill="#000000" fill-rule="nonzero" fill-opacity="1" /><path clip-path="url(#clip550)" d="M3373.24 583.187 L3373.24 596.937 L3368.96 596.937 L3368.96 561.151 L3373.24 561.151 L3373.24 565.086 Q3374.59 562.771 3376.62 561.66 Q3378.68 560.526 3381.53 560.526 Q3386.25 560.526 3389.19 564.276 Q3392.15 568.026 3392.15 574.137 Q3392.15 580.248 3389.19 583.998 Q3386.25 587.748 3381.53 587.748 Q3378.68 587.748 3376.62 586.637 Q3374.59 585.502 3373.24 583.187 M3387.73 574.137 Q3387.73 569.438 3385.79 566.776 Q3383.87 564.09 3380.49 564.09 Q3377.11 564.09 3375.16 566.776 Q3373.24 569.438 3373.24 574.137 Q3373.24 578.836 3375.16 581.521 Q3377.11 584.183 3380.49 584.183 Q3383.87 584.183 3385.79 581.521 Q3387.73 578.836 3387.73 574.137 Z" fill="#000000" fill-rule="nonzero" fill-opacity="1" /><path clip-path="url(#clip550)" d="M3398.54 551.104 L3402.25 551.104 Q3405.72 556.567 3407.43 561.799 Q3409.17 567.03 3409.17 572.192 Q3409.17 577.377 3407.43 582.632 Q3405.72 587.887 3402.25 593.326 L3398.54 593.326 Q3401.62 588.025 3403.13 582.794 Q3404.65 577.539 3404.65 572.192 Q3404.65 566.845 3403.13 561.637 Q3401.62 556.428 3398.54 551.104 Z" fill="#000000" fill-rule="nonzero" fill-opacity="1" /><path clip-path="url(#clip550)" d="M2895.51 596.036 L2869.91 647.236 L2921.11 647.236 L2895.51 596.036 Z" fill="#ff8c00" fill-rule="evenodd" fill-opacity="1" stroke="none"/>
<path clip-path="url(#clip550)" d="M3049.73 602.944 Q3046.62 608.268 3045.12 613.477 Q3043.62 618.685 3043.62 624.032 Q3043.62 629.379 3045.12 634.634 Q3046.65 639.865 3049.73 645.166 L3046.02 645.166 Q3042.55 639.727 3040.81 634.472 Q3039.1 629.217 3039.1 624.032 Q3039.1 618.87 3040.81 613.639 Q3042.53 608.407 3046.02 602.944 L3049.73 602.944 Z" fill="#000000" fill-rule="nonzero" fill-opacity="1" /><path clip-path="url(#clip550)" d="M3080.17 624.889 L3080.17 626.972 L3060.58 626.972 Q3060.86 631.37 3063.22 633.685 Q3065.61 635.977 3069.84 635.977 Q3072.3 635.977 3074.59 635.375 Q3076.9 634.773 3079.17 633.569 L3079.17 637.597 Q3076.88 638.569 3074.47 639.078 Q3072.06 639.588 3069.59 639.588 Q3063.38 639.588 3059.75 635.977 Q3056.14 632.365 3056.14 626.208 Q3056.14 619.842 3059.56 616.116 Q3063.01 612.366 3068.85 612.366 Q3074.08 612.366 3077.11 615.745 Q3080.17 619.102 3080.17 624.889 M3075.91 623.639 Q3075.86 620.143 3073.94 618.06 Q3072.04 615.977 3068.89 615.977 Q3065.33 615.977 3063.18 617.991 Q3061.05 620.004 3060.72 623.662 L3075.91 623.639 Z" fill="#000000" fill-rule="nonzero" fill-opacity="1" /><path clip-path="url(#clip550)" d="M3107.87 612.991 L3098.5 625.606 L3108.36 638.916 L3103.34 638.916 L3095.79 628.731 L3088.24 638.916 L3083.22 638.916 L3093.29 625.352 L3084.08 612.991 L3089.1 612.991 L3095.98 622.227 L3102.85 612.991 L3107.87 612.991 Z" fill="#000000" fill-rule="nonzero" fill-opacity="1" /><path clip-path="url(#clip550)" d="M3126.16 625.884 Q3121 625.884 3119.01 627.065 Q3117.02 628.245 3117.02 631.092 Q3117.02 633.361 3118.5 634.703 Q3120 636.023 3122.57 636.023 Q3126.11 636.023 3128.24 633.523 Q3130.4 631 3130.4 626.833 L3130.4 625.884 L3126.16 625.884 M3134.66 624.125 L3134.66 638.916 L3130.4 638.916 L3130.4 634.981 Q3128.94 637.342 3126.76 638.477 Q3124.59 639.588 3121.44 639.588 Q3117.46 639.588 3115.1 637.365 Q3112.76 635.12 3112.76 631.37 Q3112.76 626.995 3115.67 624.773 Q3118.61 622.551 3124.42 622.551 L3130.4 622.551 L3130.4 622.134 Q3130.4 619.194 3128.45 617.597 Q3126.53 615.977 3123.04 615.977 Q3120.81 615.977 3118.71 616.509 Q3116.6 617.041 3114.66 618.106 L3114.66 614.171 Q3116.99 613.268 3119.19 612.829 Q3121.39 612.366 3123.48 612.366 Q3129.1 612.366 3131.88 615.282 Q3134.66 618.199 3134.66 624.125 Z" fill="#000000" fill-rule="nonzero" fill-opacity="1" /><path clip-path="url(#clip550)" d="M3144.52 633.037 L3149.4 633.037 L3149.4 637.018 L3145.61 644.426 L3142.62 644.426 L3144.52 637.018 L3144.52 633.037 Z" fill="#000000" fill-rule="nonzero" fill-opacity="1" /><path clip-path="url(#clip550)" d="M3193.75 617.967 Q3195.35 615.097 3197.57 613.731 Q3199.79 612.366 3202.8 612.366 Q3206.85 612.366 3209.05 615.213 Q3211.25 618.037 3211.25 623.268 L3211.25 638.916 L3206.97 638.916 L3206.97 623.407 Q3206.97 619.68 3205.65 617.875 Q3204.33 616.069 3201.62 616.069 Q3198.31 616.069 3196.39 618.268 Q3194.47 620.467 3194.47 624.264 L3194.47 638.916 L3190.19 638.916 L3190.19 623.407 Q3190.19 619.657 3188.87 617.875 Q3187.55 616.069 3184.79 616.069 Q3181.53 616.069 3179.61 618.291 Q3177.69 620.491 3177.69 624.264 L3177.69 638.916 L3173.41 638.916 L3173.41 612.991 L3177.69 612.991 L3177.69 617.018 Q3179.15 614.634 3181.18 613.5 Q3183.22 612.366 3186.02 612.366 Q3188.85 612.366 3190.81 613.801 Q3192.8 615.236 3193.75 617.967 Z" fill="#000000" fill-rule="nonzero" fill-opacity="1" /><path clip-path="url(#clip550)" d="M3231.53 625.884 Q3226.37 625.884 3224.38 627.065 Q3222.39 628.245 3222.39 631.092 Q3222.39 633.361 3223.87 634.703 Q3225.37 636.023 3227.94 636.023 Q3231.48 636.023 3233.61 633.523 Q3235.77 631 3235.77 626.833 L3235.77 625.884 L3231.53 625.884 M3240.03 624.125 L3240.03 638.916 L3235.77 638.916 L3235.77 634.981 Q3234.31 637.342 3232.13 638.477 Q3229.96 639.588 3226.81 639.588 Q3222.83 639.588 3220.47 637.365 Q3218.13 635.12 3218.13 631.37 Q3218.13 626.995 3221.04 624.773 Q3223.98 622.551 3229.79 622.551 L3235.77 622.551 L3235.77 622.134 Q3235.77 619.194 3233.82 617.597 Q3231.9 615.977 3228.41 615.977 Q3226.18 615.977 3224.08 616.509 Q3221.97 617.041 3220.03 618.106 L3220.03 614.171 Q3222.36 613.268 3224.56 612.829 Q3226.76 612.366 3228.85 612.366 Q3234.47 612.366 3237.25 615.282 Q3240.03 618.199 3240.03 624.125 Z" fill="#000000" fill-rule="nonzero" fill-opacity="1" /><path clip-path="url(#clip550)" d="M3265.86 616.926 L3265.86 602.898 L3270.12 602.898 L3270.12 638.916 L3265.86 638.916 L3265.86 635.027 Q3264.52 637.342 3262.46 638.477 Q3260.42 639.588 3257.55 639.588 Q3252.85 639.588 3249.89 635.838 Q3246.95 632.088 3246.95 625.977 Q3246.95 619.866 3249.89 616.116 Q3252.85 612.366 3257.55 612.366 Q3260.42 612.366 3262.46 613.5 Q3264.52 614.611 3265.86 616.926 M3251.35 625.977 Q3251.35 630.676 3253.27 633.361 Q3255.21 636.023 3258.59 636.023 Q3261.97 636.023 3263.91 633.361 Q3265.86 630.676 3265.86 625.977 Q3265.86 621.278 3263.91 618.616 Q3261.97 615.93 3258.59 615.93 Q3255.21 615.93 3253.27 618.616 Q3251.35 621.278 3251.35 625.977 Z" fill="#000000" fill-rule="nonzero" fill-opacity="1" /><path clip-path="url(#clip550)" d="M3300.44 623.268 L3300.44 638.916 L3296.18 638.916 L3296.18 623.407 Q3296.18 619.727 3294.75 617.898 Q3293.31 616.069 3290.44 616.069 Q3286.99 616.069 3285 618.268 Q3283.01 620.467 3283.01 624.264 L3283.01 638.916 L3278.73 638.916 L3278.73 612.991 L3283.01 612.991 L3283.01 617.018 Q3284.54 614.68 3286.6 613.523 Q3288.68 612.366 3291.39 612.366 Q3295.86 612.366 3298.15 615.143 Q3300.44 617.898 3300.44 623.268 Z" fill="#000000" fill-rule="nonzero" fill-opacity="1" /><path clip-path="url(#clip550)" d="M3308.94 602.898 L3313.2 602.898 L3313.2 638.916 L3308.94 638.916 L3308.94 602.898 Z" fill="#000000" fill-rule="nonzero" fill-opacity="1" /><path clip-path="url(#clip550)" d="M3326.23 635.027 L3326.23 648.777 L3321.95 648.777 L3321.95 612.991 L3326.23 612.991 L3326.23 616.926 Q3327.57 614.611 3329.61 613.5 Q3331.67 612.366 3334.52 612.366 Q3339.24 612.366 3342.18 616.116 Q3345.14 619.866 3345.14 625.977 Q3345.14 632.088 3342.18 635.838 Q3339.24 639.588 3334.52 639.588 Q3331.67 639.588 3329.61 638.477 Q3327.57 637.342 3326.23 635.027 M3340.72 625.977 Q3340.72 621.278 3338.78 618.616 Q3336.85 615.93 3333.47 615.93 Q3330.1 615.93 3328.15 618.616 Q3326.23 621.278 3326.23 625.977 Q3326.23 630.676 3328.15 633.361 Q3330.1 636.023 3333.47 636.023 Q3336.85 636.023 3338.78 633.361 Q3340.72 630.676 3340.72 625.977 Z" fill="#000000" fill-rule="nonzero" fill-opacity="1" /><path clip-path="url(#clip550)" d="M3351.53 602.944 L3355.23 602.944 Q3358.71 608.407 3360.42 613.639 Q3362.16 618.87 3362.16 624.032 Q3362.16 629.217 3360.42 634.472 Q3358.71 639.727 3355.23 645.166 L3351.53 645.166 Q3354.61 639.865 3356.11 634.634 Q3357.64 629.379 3357.64 624.032 Q3357.64 618.685 3356.11 613.477 Q3354.61 608.268 3351.53 602.944 Z" fill="#000000" fill-rule="nonzero" fill-opacity="1" /></svg>
