<?xml version="1.0" encoding="utf-8"?>
<svg xmlns="http://www.w3.org/2000/svg" xmlns:xlink="http://www.w3.org/1999/xlink" width="900" height="600" viewBox="0 0 3600 2400">
<defs>
  <clipPath id="clip980">
    <rect x="0" y="0" width="3600" height="2400"/>
  </clipPath>
</defs>
<path clip-path="url(#clip980)" d="M0 2400 L3600 2400 L3600 0 L0 0  Z" fill="#ffffff" fill-rule="evenodd" fill-opacity="1"/>
<defs>
  <clipPath id="clip981">
    <rect x="244" y="246" width="3309" height="1911"/>
  </clipPath>
</defs>
<path clip-path="url(#clip980)" d="M322.044 2156.51 L3552.76 2156.51 L3552.76 246.944 L322.044 246.944  Z" fill="#ffffff" fill-rule="evenodd" fill-opacity="1"/>
<defs>
  <clipPath id="clip982">
    <rect x="322" y="246" width="3232" height="1911"/>
  </clipPath>
</defs>
<polyline clip-path="url(#clip982)" style="stroke:#000000; stroke-linecap:round; stroke-linejoin:round; stroke-width:2; stroke-opacity:0.1; fill:none" points="413.48,2156.51 413.48,246.944 "/>
<polyline clip-path="url(#clip982)" style="stroke:#000000; stroke-linecap:round; stroke-linejoin:round; stroke-width:2; stroke-opacity:0.1; fill:none" points="1284.29,2156.51 1284.29,246.944 "/>
<polyline clip-path="url(#clip982)" style="stroke:#000000; stroke-linecap:round; stroke-linejoin:round; stroke-width:2; stroke-opacity:0.1; fill:none" points="2155.1,2156.51 2155.1,246.944 "/>
<polyline clip-path="url(#clip982)" style="stroke:#000000; stroke-linecap:round; stroke-linejoin:round; stroke-width:2; stroke-opacity:0.1; fill:none" points="3025.91,2156.51 3025.91,246.944 "/>
<polyline clip-path="url(#clip982)" style="stroke:#000000; stroke-linecap:round; stroke-linejoin:round; stroke-width:2; stroke-opacity:0.1; fill:none" points="322.044,1622.62 3552.76,1622.62 "/>
<polyline clip-path="url(#clip982)" style="stroke:#000000; stroke-linecap:round; stroke-linejoin:round; stroke-width:2; stroke-opacity:0.1; fill:none" points="322.044,791.015 3552.76,791.015 "/>
<polyline clip-path="url(#clip980)" style="stroke:#000000; stroke-linecap:round; stroke-linejoin:round; stroke-width:4; stroke-opacity:1; fill:none" points="322.044,2156.51 3552.76,2156.51 "/>
<polyline clip-path="url(#clip980)" style="stroke:#000000; stroke-linecap:round; stroke-linejoin:round; stroke-width:4; stroke-opacity:1; fill:none" points="413.48,2156.51 413.48,2137.61 "/>
<polyline clip-path="url(#clip980)" style="stroke:#000000; stroke-linecap:round; stroke-linejoin:round; stroke-width:4; stroke-opacity:1; fill:none" points="1284.29,2156.51 1284.29,2137.61 "/>
<polyline clip-path="url(#clip980)" style="stroke:#000000; stroke-linecap:round; stroke-linejoin:round; stroke-width:4; stroke-opacity:1; fill:none" points="2155.1,2156.51 2155.1,2137.61 "/>
<polyline clip-path="url(#clip980)" style="stroke:#000000; stroke-linecap:round; stroke-linejoin:round; stroke-width:4; stroke-opacity:1; fill:none" points="3025.91,2156.51 3025.91,2137.61 "/>
<path clip-path="url(#clip980)" d="M388.966 2224.57 L396.605 2224.57 L396.605 2198.21 L388.294 2199.87 L388.294 2195.61 L396.558 2193.95 L401.234 2193.95 L401.234 2224.57 L408.873 2224.57 L408.873 2228.51 L388.966 2228.51 L388.966 2224.57 Z" fill="#000000" fill-rule="nonzero" fill-opacity="1" /><path clip-path="url(#clip980)" d="M422.345 2224.57 L438.665 2224.57 L438.665 2228.51 L416.72 2228.51 L416.72 2224.57 Q419.382 2221.82 423.966 2217.19 Q428.572 2212.54 429.753 2211.19 Q431.998 2208.67 432.878 2206.93 Q433.78 2205.17 433.78 2203.48 Q433.78 2200.73 431.836 2198.99 Q429.915 2197.26 426.813 2197.26 Q424.614 2197.26 422.16 2198.02 Q419.73 2198.79 416.952 2200.34 L416.952 2195.61 Q419.776 2194.48 422.229 2193.9 Q424.683 2193.32 426.72 2193.32 Q432.091 2193.32 435.285 2196.01 Q438.479 2198.69 438.479 2203.18 Q438.479 2205.31 437.669 2207.23 Q436.882 2209.13 434.776 2211.73 Q434.197 2212.4 431.095 2215.61 Q427.993 2218.81 422.345 2224.57 Z" fill="#000000" fill-rule="nonzero" fill-opacity="1" /><path clip-path="url(#clip980)" d="M1258.74 2224.57 L1266.37 2224.57 L1266.37 2198.21 L1258.06 2199.87 L1258.06 2195.61 L1266.33 2193.95 L1271 2193.95 L1271 2224.57 L1278.64 2224.57 L1278.64 2228.51 L1258.74 2228.51 L1258.74 2224.57 Z" fill="#000000" fill-rule="nonzero" fill-opacity="1" /><path clip-path="url(#clip980)" d="M1300.93 2198.02 L1289.13 2216.47 L1300.93 2216.47 L1300.93 2198.02 M1299.71 2193.95 L1305.59 2193.95 L1305.59 2216.47 L1310.52 2216.47 L1310.52 2220.36 L1305.59 2220.36 L1305.59 2228.51 L1300.93 2228.51 L1300.93 2220.36 L1285.33 2220.36 L1285.33 2215.85 L1299.71 2193.95 Z" fill="#000000" fill-rule="nonzero" fill-opacity="1" /><path clip-path="url(#clip980)" d="M2129.71 2224.57 L2137.35 2224.57 L2137.35 2198.21 L2129.04 2199.87 L2129.04 2195.61 L2137.3 2193.95 L2141.98 2193.95 L2141.98 2224.57 L2149.62 2224.57 L2149.62 2228.51 L2129.71 2228.51 L2129.71 2224.57 Z" fill="#000000" fill-rule="nonzero" fill-opacity="1" /><path clip-path="url(#clip980)" d="M2169.64 2209.36 Q2166.49 2209.36 2164.64 2211.52 Q2162.81 2213.67 2162.81 2217.42 Q2162.81 2221.15 2164.64 2223.32 Q2166.49 2225.48 2169.64 2225.48 Q2172.79 2225.48 2174.62 2223.32 Q2176.47 2221.15 2176.47 2217.42 Q2176.47 2213.67 2174.62 2211.52 Q2172.79 2209.36 2169.64 2209.36 M2178.92 2194.71 L2178.92 2198.97 Q2177.16 2198.14 2175.36 2197.7 Q2173.58 2197.26 2171.82 2197.26 Q2167.19 2197.26 2164.73 2200.38 Q2162.3 2203.51 2161.95 2209.83 Q2163.32 2207.81 2165.38 2206.75 Q2167.44 2205.66 2169.92 2205.66 Q2175.13 2205.66 2178.14 2208.83 Q2181.17 2211.98 2181.17 2217.42 Q2181.17 2222.74 2178.02 2225.96 Q2174.87 2229.18 2169.64 2229.18 Q2163.64 2229.18 2160.47 2224.6 Q2157.3 2219.99 2157.3 2211.26 Q2157.3 2203.07 2161.19 2198.21 Q2165.08 2193.32 2171.63 2193.32 Q2173.39 2193.32 2175.17 2193.67 Q2176.98 2194.02 2178.92 2194.71 Z" fill="#000000" fill-rule="nonzero" fill-opacity="1" /><path clip-path="url(#clip980)" d="M3000.65 2224.57 L3008.29 2224.57 L3008.29 2198.21 L2999.98 2199.87 L2999.98 2195.61 L3008.24 2193.95 L3012.92 2193.95 L3012.92 2224.57 L3020.56 2224.57 L3020.56 2228.51 L3000.65 2228.51 L3000.65 2224.57 Z" fill="#000000" fill-rule="nonzero" fill-opacity="1" /><path clip-path="url(#clip980)" d="M3040 2212.1 Q3036.67 2212.1 3034.75 2213.88 Q3032.85 2215.66 3032.85 2218.79 Q3032.85 2221.91 3034.75 2223.69 Q3036.67 2225.48 3040 2225.48 Q3043.33 2225.48 3045.25 2223.69 Q3047.18 2221.89 3047.18 2218.79 Q3047.18 2215.66 3045.25 2213.88 Q3043.36 2212.1 3040 2212.1 M3035.32 2210.11 Q3032.32 2209.36 3030.63 2207.3 Q3028.96 2205.24 3028.96 2202.28 Q3028.96 2198.14 3031.9 2195.73 Q3034.86 2193.32 3040 2193.32 Q3045.16 2193.32 3048.1 2195.73 Q3051.04 2198.14 3051.04 2202.28 Q3051.04 2205.24 3049.35 2207.3 Q3047.69 2209.36 3044.7 2210.11 Q3048.08 2210.89 3049.95 2213.18 Q3051.85 2215.48 3051.85 2218.79 Q3051.85 2223.81 3048.77 2226.49 Q3045.72 2229.18 3040 2229.18 Q3034.28 2229.18 3031.2 2226.49 Q3028.15 2223.81 3028.15 2218.79 Q3028.15 2215.48 3030.05 2213.18 Q3031.94 2210.89 3035.32 2210.11 M3033.61 2202.72 Q3033.61 2205.41 3035.28 2206.91 Q3036.97 2208.42 3040 2208.42 Q3043.01 2208.42 3044.7 2206.91 Q3046.41 2205.41 3046.41 2202.72 Q3046.41 2200.04 3044.7 2198.53 Q3043.01 2197.03 3040 2197.03 Q3036.97 2197.03 3035.28 2198.53 Q3033.61 2200.04 3033.61 2202.72 Z" fill="#000000" fill-rule="nonzero" fill-opacity="1" /><path clip-path="url(#clip980)" d="M1800.64 2270.99 L1806.48 2270.99 L1806.48 2314.19 L1800.64 2314.19 L1800.64 2270.99 Z" fill="#000000" fill-rule="nonzero" fill-opacity="1" /><path clip-path="url(#clip980)" d="M1823.15 2272.58 L1823.15 2281.78 L1834.12 2281.78 L1834.12 2285.92 L1823.15 2285.92 L1823.15 2303.51 Q1823.15 2307.47 1824.22 2308.6 Q1825.32 2309.73 1828.65 2309.73 L1834.12 2309.73 L1834.12 2314.19 L1828.65 2314.19 Q1822.48 2314.19 1820.14 2311.9 Q1817.8 2309.59 1817.8 2303.51 L1817.8 2285.92 L1813.89 2285.92 L1813.89 2281.78 L1817.8 2281.78 L1817.8 2272.58 L1823.15 2272.58 Z" fill="#000000" fill-rule="nonzero" fill-opacity="1" /><path clip-path="url(#clip980)" d="M1868.84 2296.65 L1868.84 2299.26 L1844.36 2299.26 Q1844.71 2304.75 1847.66 2307.65 Q1850.64 2310.51 1855.93 2310.51 Q1859 2310.51 1861.87 2309.76 Q1864.76 2309.01 1867.59 2307.5 L1867.59 2312.54 Q1864.73 2313.75 1861.72 2314.39 Q1858.71 2315.03 1855.62 2315.03 Q1847.86 2315.03 1843.32 2310.51 Q1838.8 2306 1838.8 2298.3 Q1838.8 2290.35 1843.09 2285.69 Q1847.4 2281 1854.69 2281 Q1861.23 2281 1865.02 2285.22 Q1868.84 2289.42 1868.84 2296.65 M1863.51 2295.09 Q1863.46 2290.72 1861.06 2288.12 Q1858.68 2285.51 1854.75 2285.51 Q1850.29 2285.51 1847.6 2288.03 Q1844.94 2290.55 1844.53 2295.12 L1863.51 2295.09 Z" fill="#000000" fill-rule="nonzero" fill-opacity="1" /><path clip-path="url(#clip980)" d="M1896.36 2286.76 Q1895.46 2286.24 1894.39 2286 Q1893.35 2285.74 1892.07 2285.74 Q1887.56 2285.74 1885.13 2288.7 Q1882.73 2291.62 1882.73 2297.12 L1882.73 2314.19 L1877.37 2314.19 L1877.37 2281.78 L1882.73 2281.78 L1882.73 2286.82 Q1884.41 2283.86 1887.1 2282.45 Q1889.79 2281 1893.64 2281 Q1894.19 2281 1894.85 2281.09 Q1895.52 2281.14 1896.33 2281.29 L1896.36 2286.76 Z" fill="#000000" fill-rule="nonzero" fill-opacity="1" /><path clip-path="url(#clip980)" d="M1916.67 2297.9 Q1910.22 2297.9 1907.73 2299.37 Q1905.24 2300.85 1905.24 2304.41 Q1905.24 2307.24 1907.09 2308.92 Q1908.97 2310.57 1912.18 2310.57 Q1916.61 2310.57 1919.27 2307.45 Q1921.96 2304.29 1921.96 2299.08 L1921.96 2297.9 L1916.67 2297.9 M1927.29 2295.7 L1927.29 2314.19 L1921.96 2314.19 L1921.96 2309.27 Q1920.14 2312.22 1917.42 2313.64 Q1914.7 2315.03 1910.77 2315.03 Q1905.79 2315.03 1902.84 2312.25 Q1899.91 2309.44 1899.91 2304.75 Q1899.91 2299.29 1903.56 2296.51 Q1907.24 2293.73 1914.5 2293.73 L1921.96 2293.73 L1921.96 2293.21 Q1921.96 2289.54 1919.53 2287.54 Q1917.13 2285.51 1912.76 2285.51 Q1909.98 2285.51 1907.35 2286.18 Q1904.72 2286.84 1902.29 2288.18 L1902.29 2283.26 Q1905.21 2282.13 1907.96 2281.58 Q1910.71 2281 1913.31 2281 Q1920.34 2281 1923.82 2284.65 Q1927.29 2288.29 1927.29 2295.7 Z" fill="#000000" fill-rule="nonzero" fill-opacity="1" /><path clip-path="url(#clip980)" d="M1943.52 2272.58 L1943.52 2281.78 L1954.49 2281.78 L1954.49 2285.92 L1943.52 2285.92 L1943.52 2303.51 Q1943.52 2307.47 1944.59 2308.6 Q1945.69 2309.73 1949.02 2309.73 L1954.49 2309.73 L1954.49 2314.19 L1949.02 2314.19 Q1942.85 2314.19 1940.51 2311.9 Q1938.17 2309.59 1938.17 2303.51 L1938.17 2285.92 L1934.26 2285.92 L1934.26 2281.78 L1938.17 2281.78 L1938.17 2272.58 L1943.52 2272.58 Z" fill="#000000" fill-rule="nonzero" fill-opacity="1" /><path clip-path="url(#clip980)" d="M1961.49 2281.78 L1966.81 2281.78 L1966.81 2314.19 L1961.49 2314.19 L1961.49 2281.78 M1961.49 2269.16 L1966.81 2269.16 L1966.81 2275.91 L1961.49 2275.91 L1961.49 2269.16 Z" fill="#000000" fill-rule="nonzero" fill-opacity="1" /><path clip-path="url(#clip980)" d="M1990.51 2285.51 Q1986.23 2285.51 1983.74 2288.87 Q1981.25 2292.2 1981.25 2298.01 Q1981.25 2303.83 1983.71 2307.19 Q1986.2 2310.51 1990.51 2310.51 Q1994.76 2310.51 1997.25 2307.16 Q1999.74 2303.8 1999.74 2298.01 Q1999.74 2292.25 1997.25 2288.9 Q1994.76 2285.51 1990.51 2285.51 M1990.51 2281 Q1997.45 2281 2001.42 2285.51 Q2005.38 2290.03 2005.38 2298.01 Q2005.38 2305.97 2001.42 2310.51 Q1997.45 2315.03 1990.51 2315.03 Q1983.54 2315.03 1979.57 2310.51 Q1975.64 2305.97 1975.64 2298.01 Q1975.64 2290.03 1979.57 2285.51 Q1983.54 2281 1990.51 2281 Z" fill="#000000" fill-rule="nonzero" fill-opacity="1" /><path clip-path="url(#clip980)" d="M2041.15 2294.63 L2041.15 2314.19 L2035.82 2314.19 L2035.82 2294.8 Q2035.82 2290.2 2034.03 2287.91 Q2032.23 2285.63 2028.65 2285.63 Q2024.34 2285.63 2021.85 2288.38 Q2019.36 2291.13 2019.36 2295.87 L2019.36 2314.19 L2014.01 2314.19 L2014.01 2281.78 L2019.36 2281.78 L2019.36 2286.82 Q2021.27 2283.89 2023.84 2282.45 Q2026.45 2281 2029.83 2281 Q2035.42 2281 2038.28 2284.47 Q2041.15 2287.91 2041.15 2294.63 Z" fill="#000000" fill-rule="nonzero" fill-opacity="1" /><path clip-path="url(#clip980)" d="M2072.43 2282.74 L2072.43 2287.77 Q2070.17 2286.61 2067.74 2286.03 Q2065.31 2285.46 2062.7 2285.46 Q2058.74 2285.46 2056.74 2286.67 Q2054.78 2287.89 2054.78 2290.32 Q2054.78 2292.17 2056.19 2293.24 Q2057.61 2294.28 2061.89 2295.24 L2063.72 2295.64 Q2069.39 2296.86 2071.76 2299.08 Q2074.16 2301.28 2074.16 2305.25 Q2074.16 2309.76 2070.57 2312.39 Q2067.01 2315.03 2060.76 2315.03 Q2058.16 2315.03 2055.32 2314.51 Q2052.52 2314.01 2049.39 2313 L2049.39 2307.5 Q2052.34 2309.04 2055.21 2309.82 Q2058.07 2310.57 2060.88 2310.57 Q2064.64 2310.57 2066.67 2309.3 Q2068.69 2308 2068.69 2305.65 Q2068.69 2303.48 2067.22 2302.32 Q2065.77 2301.17 2060.82 2300.1 L2058.97 2299.66 Q2054.02 2298.62 2051.82 2296.48 Q2049.62 2294.31 2049.62 2290.55 Q2049.62 2285.98 2052.87 2283.49 Q2056.11 2281 2062.07 2281 Q2065.02 2281 2067.62 2281.43 Q2070.23 2281.87 2072.43 2282.74 Z" fill="#000000" fill-rule="nonzero" fill-opacity="1" /><polyline clip-path="url(#clip980)" style="stroke:#000000; stroke-linecap:round; stroke-linejoin:round; stroke-width:4; stroke-opacity:1; fill:none" points="322.044,2156.51 322.044,246.944 "/>
<polyline clip-path="url(#clip980)" style="stroke:#000000; stroke-linecap:round; stroke-linejoin:round; stroke-width:4; stroke-opacity:1; fill:none" points="322.044,1622.62 340.942,1622.62 "/>
<polyline clip-path="url(#clip980)" style="stroke:#000000; stroke-linecap:round; stroke-linejoin:round; stroke-width:4; stroke-opacity:1; fill:none" points="322.044,791.015 340.942,791.015 "/>
<path clip-path="url(#clip980)" d="M167.604 1642.41 L175.242 1642.41 L175.242 1616.04 L166.932 1617.71 L166.932 1613.45 L175.196 1611.78 L179.872 1611.78 L179.872 1642.41 L187.511 1642.41 L187.511 1646.34 L167.604 1646.34 L167.604 1642.41 Z" fill="#000000" fill-rule="nonzero" fill-opacity="1" /><path clip-path="url(#clip980)" d="M206.955 1614.86 Q203.344 1614.86 201.515 1618.43 Q199.71 1621.97 199.71 1629.1 Q199.71 1636.2 201.515 1639.77 Q203.344 1643.31 206.955 1643.31 Q210.589 1643.31 212.395 1639.77 Q214.224 1636.2 214.224 1629.1 Q214.224 1621.97 212.395 1618.43 Q210.589 1614.86 206.955 1614.86 M206.955 1611.16 Q212.765 1611.16 215.821 1615.76 Q218.9 1620.35 218.9 1629.1 Q218.9 1637.82 215.821 1642.43 Q212.765 1647.01 206.955 1647.01 Q201.145 1647.01 198.066 1642.43 Q195.011 1637.82 195.011 1629.1 Q195.011 1620.35 198.066 1615.76 Q201.145 1611.16 206.955 1611.16 Z" fill="#000000" fill-rule="nonzero" fill-opacity="1" /><path clip-path="url(#clip980)" d="M218.9 1605.26 L243.011 1605.26 L243.011 1608.46 L218.9 1608.46 L218.9 1605.26 Z" fill="#000000" fill-rule="nonzero" fill-opacity="1" /><path clip-path="url(#clip980)" d="M251.87 1615.74 L258.076 1615.74 L258.076 1594.31 L251.324 1595.67 L251.324 1592.21 L258.039 1590.85 L261.838 1590.85 L261.838 1615.74 L268.044 1615.74 L268.044 1618.93 L251.87 1618.93 L251.87 1615.74 Z" fill="#000000" fill-rule="nonzero" fill-opacity="1" /><path clip-path="url(#clip980)" d="M197.339 810.808 L204.978 810.808 L204.978 784.442 L196.667 786.109 L196.667 781.849 L204.931 780.183 L209.607 780.183 L209.607 810.808 L217.246 810.808 L217.246 814.743 L197.339 814.743 L197.339 810.808 Z" fill="#000000" fill-rule="nonzero" fill-opacity="1" /><path clip-path="url(#clip980)" d="M236.69 783.262 Q233.079 783.262 231.251 786.826 Q229.445 790.368 229.445 797.498 Q229.445 804.604 231.251 808.169 Q233.079 811.71 236.69 811.71 Q240.325 811.71 242.13 808.169 Q243.959 804.604 243.959 797.498 Q243.959 790.368 242.13 786.826 Q240.325 783.262 236.69 783.262 M236.69 779.558 Q242.5 779.558 245.556 784.164 Q248.635 788.748 248.635 797.498 Q248.635 806.224 245.556 810.831 Q242.5 815.414 236.69 815.414 Q230.88 815.414 227.801 810.831 Q224.746 806.224 224.746 797.498 Q224.746 788.748 227.801 784.164 Q230.88 779.558 236.69 779.558 Z" fill="#000000" fill-rule="nonzero" fill-opacity="1" /><path clip-path="url(#clip980)" d="M258.339 761.754 Q255.405 761.754 253.92 764.65 Q252.453 767.528 252.453 773.321 Q252.453 779.095 253.92 781.991 Q255.405 784.869 258.339 784.869 Q261.292 784.869 262.759 781.991 Q264.245 779.095 264.245 773.321 Q264.245 767.528 262.759 764.65 Q261.292 761.754 258.339 761.754 M258.339 758.745 Q263.06 758.745 265.543 762.487 Q268.044 766.211 268.044 773.321 Q268.044 780.411 265.543 784.154 Q263.06 787.878 258.339 787.878 Q253.619 787.878 251.117 784.154 Q248.635 780.411 248.635 773.321 Q248.635 766.211 251.117 762.487 Q253.619 758.745 258.339 758.745 Z" fill="#000000" fill-rule="nonzero" fill-opacity="1" /><path clip-path="url(#clip980)" d="M60.0998 1347.25 L66.263 1347.25 Q63.5141 1350.21 62.1542 1353.56 Q60.7943 1356.89 60.7943 1360.65 Q60.7943 1368.06 65.3371 1371.99 Q69.8509 1375.93 78.4157 1375.93 Q86.9515 1375.93 91.4943 1371.99 Q96.0082 1368.06 96.0082 1360.65 Q96.0082 1356.89 94.6482 1353.56 Q93.2883 1350.21 90.5395 1347.25 L96.6448 1347.25 Q98.7281 1350.32 99.7697 1353.77 Q100.811 1357.18 100.811 1361 Q100.811 1370.81 94.8218 1376.45 Q88.8034 1382.09 78.4157 1382.09 Q67.9991 1382.09 62.0095 1376.45 Q55.991 1370.81 55.991 1361 Q55.991 1357.12 57.0327 1353.71 Q58.0454 1350.26 60.0998 1347.25 Z" fill="#000000" fill-rule="nonzero" fill-opacity="1" /><path clip-path="url(#clip980)" d="M61.5755 1332.38 L77.8081 1332.38 L77.8081 1325.03 Q77.8081 1320.95 75.6958 1318.72 Q73.5835 1316.5 69.6773 1316.5 Q65.8 1316.5 63.6878 1318.72 Q61.5755 1320.95 61.5755 1325.03 L61.5755 1332.38 M56.7723 1338.23 L56.7723 1325.03 Q56.7723 1317.77 60.0709 1314.07 Q63.3405 1310.33 69.6773 1310.33 Q76.0719 1310.33 79.3416 1314.07 Q82.6113 1317.77 82.6113 1325.03 L82.6113 1332.38 L99.9723 1332.38 L99.9723 1338.23 L56.7723 1338.23 Z" fill="#000000" fill-rule="nonzero" fill-opacity="1" /><path clip-path="url(#clip980)" d="M56.7723 1303.16 L56.7723 1297.28 L83.0164 1297.28 Q89.9608 1297.28 93.0279 1294.77 Q96.0661 1292.25 96.0661 1286.61 Q96.0661 1280.99 93.0279 1278.48 Q89.9608 1275.96 83.0164 1275.96 L56.7723 1275.96 L56.7723 1270.08 L83.7397 1270.08 Q92.1888 1270.08 96.5001 1274.28 Q100.811 1278.45 100.811 1286.61 Q100.811 1294.8 96.5001 1298.99 Q92.1888 1303.16 83.7397 1303.16 L56.7723 1303.16 Z" fill="#000000" fill-rule="nonzero" fill-opacity="1" /><path clip-path="url(#clip980)" d="M58.3637 1235.25 L67.565 1235.25 L67.565 1224.28 L71.7028 1224.28 L71.7028 1235.25 L89.2953 1235.25 Q93.2594 1235.25 94.3878 1234.18 Q95.5163 1233.08 95.5163 1229.75 L95.5163 1224.28 L99.9723 1224.28 L99.9723 1229.75 Q99.9723 1235.91 97.6864 1238.26 Q95.3716 1240.6 89.2953 1240.6 L71.7028 1240.6 L71.7028 1244.51 L67.565 1244.51 L67.565 1240.6 L58.3637 1240.6 L58.3637 1235.25 Z" fill="#000000" fill-rule="nonzero" fill-opacity="1" /><path clip-path="url(#clip980)" d="M67.565 1217.28 L67.565 1211.95 L99.9723 1211.95 L99.9723 1217.28 L67.565 1217.28 M54.9494 1217.28 L54.9494 1211.95 L61.6912 1211.95 L61.6912 1217.28 L54.9494 1217.28 Z" fill="#000000" fill-rule="nonzero" fill-opacity="1" /><path clip-path="url(#clip980)" d="M73.7861 1175.58 Q70.1981 1173.59 68.491 1170.81 Q66.7838 1168.03 66.7838 1164.27 Q66.7838 1159.21 70.3428 1156.46 Q73.8729 1153.71 80.4122 1153.71 L99.9723 1153.71 L99.9723 1159.06 L80.5858 1159.06 Q75.9273 1159.06 73.6703 1160.71 Q71.4134 1162.36 71.4134 1165.75 Q71.4134 1169.88 74.1622 1172.28 Q76.9111 1174.69 81.6564 1174.69 L99.9723 1174.69 L99.9723 1180.04 L80.5858 1180.04 Q75.8983 1180.04 73.6703 1181.69 Q71.4134 1183.34 71.4134 1186.78 Q71.4134 1190.86 74.1912 1193.26 Q76.94 1195.66 81.6564 1195.66 L99.9723 1195.66 L99.9723 1201.02 L67.565 1201.02 L67.565 1195.66 L72.5997 1195.66 Q69.6194 1193.84 68.2016 1191.29 Q66.7838 1188.75 66.7838 1185.25 Q66.7838 1181.72 68.5778 1179.26 Q70.3717 1176.77 73.7861 1175.58 Z" fill="#000000" fill-rule="nonzero" fill-opacity="1" /><path clip-path="url(#clip980)" d="M82.4377 1115.37 L85.0418 1115.37 L85.0418 1139.85 Q90.5395 1139.5 93.433 1136.55 Q96.2975 1133.57 96.2975 1128.27 Q96.2975 1125.21 95.5452 1122.34 Q94.7929 1119.45 93.2883 1116.61 L98.323 1116.61 Q99.5383 1119.48 100.175 1122.49 Q100.811 1125.5 100.811 1128.59 Q100.811 1136.35 96.2975 1140.89 Q91.7837 1145.4 84.087 1145.4 Q76.1298 1145.4 71.4713 1141.12 Q66.7838 1136.81 66.7838 1129.52 Q66.7838 1122.98 71.0083 1119.19 Q75.2039 1115.37 82.4377 1115.37 M80.8752 1120.69 Q76.506 1120.75 73.9018 1123.15 Q71.2977 1125.53 71.2977 1129.46 Q71.2977 1133.92 73.815 1136.61 Q76.3324 1139.27 80.9041 1139.67 L80.8752 1120.69 Z" fill="#000000" fill-rule="nonzero" fill-opacity="1" /><path clip-path="url(#clip980)" d="M55.0072 1075.01 Q61.6623 1078.88 68.1727 1080.76 Q74.6831 1082.64 81.3671 1082.64 Q88.0511 1082.64 94.6193 1080.76 Q101.159 1078.85 107.785 1075.01 L107.785 1079.63 Q100.985 1083.97 94.4168 1086.15 Q87.8485 1088.29 81.3671 1088.29 Q74.9145 1088.29 68.3752 1086.15 Q61.8359 1084 55.0072 1079.63 L55.0072 1075.01 Z" fill="#000000" fill-rule="nonzero" fill-opacity="1" /><path clip-path="url(#clip980)" d="M68.5199 1044.02 L73.5546 1044.02 Q72.3972 1046.27 71.8185 1048.7 Q71.2398 1051.13 71.2398 1053.74 Q71.2398 1057.7 72.4551 1059.7 Q73.6703 1061.67 76.1009 1061.67 Q77.9527 1061.67 79.0233 1060.25 Q80.065 1058.83 81.0198 1054.55 L81.4249 1052.73 Q82.6402 1047.05 84.8682 1044.68 Q87.0673 1042.28 91.0314 1042.28 Q95.5452 1042.28 98.1783 1045.87 Q100.811 1049.43 100.811 1055.68 Q100.811 1058.28 100.291 1061.12 Q99.7987 1063.92 98.7859 1067.05 L93.2883 1067.05 Q94.8218 1064.1 95.6031 1061.23 Q96.3554 1058.37 96.3554 1055.56 Q96.3554 1051.8 95.0823 1049.77 Q93.7802 1047.75 91.4364 1047.75 Q89.2663 1047.75 88.1089 1049.22 Q86.9515 1050.67 85.8809 1055.62 L85.4469 1057.47 Q84.4052 1062.42 82.264 1064.62 Q80.0939 1066.82 76.3324 1066.82 Q71.7606 1066.82 69.2722 1063.58 Q66.7838 1060.33 66.7838 1054.37 Q66.7838 1051.42 67.2178 1048.82 Q67.6519 1046.21 68.5199 1044.02 Z" fill="#000000" fill-rule="nonzero" fill-opacity="1" /><path clip-path="url(#clip980)" d="M55.0072 1034.64 L55.0072 1030.01 Q61.8359 1025.67 68.3752 1023.53 Q74.9145 1021.36 81.3671 1021.36 Q87.8485 1021.36 94.4168 1023.53 Q100.985 1025.67 107.785 1030.01 L107.785 1034.64 Q101.159 1030.79 94.6193 1028.91 Q88.0511 1027 81.3671 1027 Q74.6831 1027 68.1727 1028.91 Q61.6623 1030.79 55.0072 1034.64 Z" fill="#000000" fill-rule="nonzero" fill-opacity="1" /><path clip-path="url(#clip980)" d="M1245.93 123.984 L1254.11 123.984 L1254.11 184.464 L1245.93 184.464 L1245.93 123.984 Z" fill="#000000" fill-rule="nonzero" fill-opacity="1" /><path clip-path="url(#clip980)" d="M1277.45 126.212 L1277.45 139.094 L1292.8 139.094 L1292.8 144.887 L1277.45 144.887 L1277.45 169.516 Q1277.45 175.066 1278.95 176.646 Q1280.49 178.226 1285.14 178.226 L1292.8 178.226 L1292.8 184.464 L1285.14 184.464 Q1276.52 184.464 1273.23 181.264 Q1269.95 178.023 1269.95 169.516 L1269.95 144.887 L1264.48 144.887 L1264.48 139.094 L1269.95 139.094 L1269.95 126.212 L1277.45 126.212 Z" fill="#000000" fill-rule="nonzero" fill-opacity="1" /><path clip-path="url(#clip980)" d="M1341.41 159.916 L1341.41 163.561 L1307.14 163.561 Q1307.63 171.258 1311.76 175.309 Q1315.93 179.319 1323.34 179.319 Q1327.64 179.319 1331.65 178.266 Q1335.7 177.213 1339.67 175.106 L1339.67 182.155 Q1335.66 183.856 1331.45 184.748 Q1327.23 185.639 1322.9 185.639 Q1312.04 185.639 1305.68 179.319 Q1299.36 173 1299.36 162.225 Q1299.36 151.085 1305.36 144.563 Q1311.39 138 1321.6 138 Q1330.76 138 1336.06 143.914 Q1341.41 149.788 1341.41 159.916 M1333.96 157.728 Q1333.88 151.611 1330.51 147.965 Q1327.19 144.32 1321.68 144.32 Q1315.44 144.32 1311.68 147.844 Q1307.95 151.368 1307.38 157.769 L1333.96 157.728 Z" fill="#000000" fill-rule="nonzero" fill-opacity="1" /><path clip-path="url(#clip980)" d="M1379.93 146.061 Q1378.68 145.332 1377.18 145.008 Q1375.72 144.644 1373.94 144.644 Q1367.62 144.644 1364.22 148.776 Q1360.86 152.867 1360.86 160.564 L1360.86 184.464 L1353.36 184.464 L1353.36 139.094 L1360.86 139.094 L1360.86 146.142 Q1363.2 142.011 1366.97 140.026 Q1370.74 138 1376.13 138 Q1376.9 138 1377.83 138.122 Q1378.76 138.203 1379.89 138.405 L1379.93 146.061 Z" fill="#000000" fill-rule="nonzero" fill-opacity="1" /><path clip-path="url(#clip980)" d="M1408.37 161.657 Q1399.34 161.657 1395.85 163.723 Q1392.37 165.789 1392.37 170.772 Q1392.37 174.742 1394.96 177.091 Q1397.6 179.4 1402.09 179.4 Q1408.29 179.4 1412.02 175.025 Q1415.79 170.61 1415.79 163.318 L1415.79 161.657 L1408.37 161.657 M1423.24 158.579 L1423.24 184.464 L1415.79 184.464 L1415.79 177.577 Q1413.23 181.709 1409.43 183.694 Q1405.62 185.639 1400.11 185.639 Q1393.14 185.639 1389.01 181.75 Q1384.92 177.821 1384.92 171.258 Q1384.92 163.602 1390.02 159.713 Q1395.17 155.824 1405.33 155.824 L1415.79 155.824 L1415.79 155.095 Q1415.79 149.95 1412.38 147.155 Q1409.02 144.32 1402.9 144.32 Q1399.01 144.32 1395.33 145.251 Q1391.64 146.183 1388.24 148.046 L1388.24 141.16 Q1392.33 139.58 1396.18 138.81 Q1400.03 138 1403.67 138 Q1413.52 138 1418.38 143.104 Q1423.24 148.208 1423.24 158.579 Z" fill="#000000" fill-rule="nonzero" fill-opacity="1" /><path clip-path="url(#clip980)" d="M1445.96 126.212 L1445.96 139.094 L1461.32 139.094 L1461.32 144.887 L1445.96 144.887 L1445.96 169.516 Q1445.96 175.066 1447.46 176.646 Q1449 178.226 1453.66 178.226 L1461.32 178.226 L1461.32 184.464 L1453.66 184.464 Q1445.03 184.464 1441.75 181.264 Q1438.47 178.023 1438.47 169.516 L1438.47 144.887 L1433 144.887 L1433 139.094 L1438.47 139.094 L1438.47 126.212 L1445.96 126.212 Z" fill="#000000" fill-rule="nonzero" fill-opacity="1" /><path clip-path="url(#clip980)" d="M1471.12 139.094 L1478.57 139.094 L1478.57 184.464 L1471.12 184.464 L1471.12 139.094 M1471.12 121.432 L1478.57 121.432 L1478.57 130.871 L1471.12 130.871 L1471.12 121.432 Z" fill="#000000" fill-rule="nonzero" fill-opacity="1" /><path clip-path="url(#clip980)" d="M1511.75 144.32 Q1505.76 144.32 1502.27 149.019 Q1498.79 153.677 1498.79 161.819 Q1498.79 169.962 1502.23 174.661 Q1505.72 179.319 1511.75 179.319 Q1517.71 179.319 1521.19 174.62 Q1524.67 169.921 1524.67 161.819 Q1524.67 153.758 1521.19 149.059 Q1517.71 144.32 1511.75 144.32 M1511.75 138 Q1521.47 138 1527.02 144.32 Q1532.57 150.639 1532.57 161.819 Q1532.57 172.959 1527.02 179.319 Q1521.47 185.639 1511.75 185.639 Q1501.99 185.639 1496.44 179.319 Q1490.93 172.959 1490.93 161.819 Q1490.93 150.639 1496.44 144.32 Q1501.99 138 1511.75 138 Z" fill="#000000" fill-rule="nonzero" fill-opacity="1" /><path clip-path="url(#clip980)" d="M1582.64 157.08 L1582.64 184.464 L1575.19 184.464 L1575.19 157.323 Q1575.19 150.882 1572.68 147.682 Q1570.17 144.482 1565.14 144.482 Q1559.11 144.482 1555.62 148.33 Q1552.14 152.178 1552.14 158.822 L1552.14 184.464 L1544.64 184.464 L1544.64 139.094 L1552.14 139.094 L1552.14 146.142 Q1554.81 142.051 1558.42 140.026 Q1562.06 138 1566.8 138 Q1574.62 138 1578.63 142.861 Q1582.64 147.682 1582.64 157.08 Z" fill="#000000" fill-rule="nonzero" fill-opacity="1" /><path clip-path="url(#clip980)" d="M1626.43 140.431 L1626.43 147.479 Q1623.27 145.859 1619.87 145.049 Q1616.47 144.239 1612.82 144.239 Q1607.27 144.239 1604.48 145.94 Q1601.72 147.641 1601.72 151.044 Q1601.72 153.637 1603.71 155.135 Q1605.69 156.594 1611.69 157.931 L1614.24 158.498 Q1622.18 160.199 1625.5 163.318 Q1628.86 166.397 1628.86 171.947 Q1628.86 178.266 1623.84 181.952 Q1618.86 185.639 1610.11 185.639 Q1606.46 185.639 1602.49 184.91 Q1598.56 184.221 1594.19 182.803 L1594.19 175.106 Q1598.32 177.253 1602.33 178.347 Q1606.34 179.4 1610.27 179.4 Q1615.54 179.4 1618.37 177.618 Q1621.21 175.795 1621.21 172.514 Q1621.21 169.476 1619.14 167.855 Q1617.12 166.235 1610.19 164.736 L1607.6 164.128 Q1600.67 162.67 1597.59 159.672 Q1594.51 156.634 1594.51 151.368 Q1594.51 144.968 1599.05 141.484 Q1603.59 138 1611.93 138 Q1616.06 138 1619.71 138.608 Q1623.35 139.215 1626.43 140.431 Z" fill="#000000" fill-rule="nonzero" fill-opacity="1" /><path clip-path="url(#clip980)" d="M1661.76 139.094 L1669.66 139.094 L1683.83 177.172 L1698.01 139.094 L1705.91 139.094 L1688.9 184.464 L1678.77 184.464 L1661.76 139.094 Z" fill="#000000" fill-rule="nonzero" fill-opacity="1" /><path clip-path="url(#clip980)" d="M1745.12 140.431 L1745.12 147.479 Q1741.96 145.859 1738.56 145.049 Q1735.16 144.239 1731.51 144.239 Q1725.96 144.239 1723.17 145.94 Q1720.41 147.641 1720.41 151.044 Q1720.41 153.637 1722.4 155.135 Q1724.38 156.594 1730.38 157.931 L1732.93 158.498 Q1740.87 160.199 1744.19 163.318 Q1747.55 166.397 1747.55 171.947 Q1747.55 178.266 1742.53 181.952 Q1737.55 185.639 1728.8 185.639 Q1725.15 185.639 1721.18 184.91 Q1717.25 184.221 1712.88 182.803 L1712.88 175.106 Q1717.01 177.253 1721.02 178.347 Q1725.03 179.4 1728.96 179.4 Q1734.23 179.4 1737.06 177.618 Q1739.9 175.795 1739.9 172.514 Q1739.9 169.476 1737.83 167.855 Q1735.81 166.235 1728.88 164.736 L1726.29 164.128 Q1719.36 162.67 1716.28 159.672 Q1713.2 156.634 1713.2 151.368 Q1713.2 144.968 1717.74 141.484 Q1722.28 138 1730.62 138 Q1734.75 138 1738.4 138.608 Q1742.05 139.215 1745.12 140.431 Z" fill="#000000" fill-rule="nonzero" fill-opacity="1" /><path clip-path="url(#clip980)" d="M1831.41 128.643 L1831.41 137.271 Q1827.28 133.423 1822.58 131.519 Q1817.92 129.615 1812.65 129.615 Q1802.28 129.615 1796.77 135.975 Q1791.26 142.294 1791.26 154.285 Q1791.26 166.235 1796.77 172.595 Q1802.28 178.914 1812.65 178.914 Q1817.92 178.914 1822.58 177.01 Q1827.28 175.106 1831.41 171.258 L1831.41 179.805 Q1827.11 182.722 1822.29 184.18 Q1817.51 185.639 1812.17 185.639 Q1798.43 185.639 1790.53 177.253 Q1782.64 168.828 1782.64 154.285 Q1782.64 139.702 1790.53 131.316 Q1798.43 122.89 1812.17 122.89 Q1817.59 122.89 1822.37 124.349 Q1827.2 125.766 1831.41 128.643 Z" fill="#000000" fill-rule="nonzero" fill-opacity="1" /><path clip-path="url(#clip980)" d="M1852.23 130.709 L1852.23 153.434 L1862.52 153.434 Q1868.23 153.434 1871.35 150.477 Q1874.47 147.52 1874.47 142.051 Q1874.47 136.623 1871.35 133.666 Q1868.23 130.709 1862.52 130.709 L1852.23 130.709 M1844.05 123.984 L1862.52 123.984 Q1872.69 123.984 1877.87 128.602 Q1883.1 133.18 1883.1 142.051 Q1883.1 151.004 1877.87 155.581 Q1872.69 160.159 1862.52 160.159 L1852.23 160.159 L1852.23 184.464 L1844.05 184.464 L1844.05 123.984 Z" fill="#000000" fill-rule="nonzero" fill-opacity="1" /><path clip-path="url(#clip980)" d="M1893.14 123.984 L1901.37 123.984 L1901.37 160.726 Q1901.37 170.448 1904.89 174.742 Q1908.42 178.995 1916.32 178.995 Q1924.17 178.995 1927.7 174.742 Q1931.22 170.448 1931.22 160.726 L1931.22 123.984 L1939.45 123.984 L1939.45 161.738 Q1939.45 173.567 1933.57 179.603 Q1927.74 185.639 1916.32 185.639 Q1904.85 185.639 1898.98 179.603 Q1893.14 173.567 1893.14 161.738 L1893.14 123.984 Z" fill="#000000" fill-rule="nonzero" fill-opacity="1" /><path clip-path="url(#clip980)" d="M1988.22 126.212 L1988.22 139.094 L2003.57 139.094 L2003.57 144.887 L1988.22 144.887 L1988.22 169.516 Q1988.22 175.066 1989.72 176.646 Q1991.26 178.226 1995.92 178.226 L2003.57 178.226 L2003.57 184.464 L1995.92 184.464 Q1987.29 184.464 1984.01 181.264 Q1980.72 178.023 1980.72 169.516 L1980.72 144.887 L1975.26 144.887 L1975.26 139.094 L1980.72 139.094 L1980.72 126.212 L1988.22 126.212 Z" fill="#000000" fill-rule="nonzero" fill-opacity="1" /><path clip-path="url(#clip980)" d="M2013.37 139.094 L2020.83 139.094 L2020.83 184.464 L2013.37 184.464 L2013.37 139.094 M2013.37 121.432 L2020.83 121.432 L2020.83 130.871 L2013.37 130.871 L2013.37 121.432 Z" fill="#000000" fill-rule="nonzero" fill-opacity="1" /><path clip-path="url(#clip980)" d="M2071.75 147.803 Q2074.54 142.78 2078.43 140.39 Q2082.32 138 2087.59 138 Q2094.68 138 2098.52 142.983 Q2102.37 147.925 2102.37 157.08 L2102.37 184.464 L2094.88 184.464 L2094.88 157.323 Q2094.88 150.801 2092.57 147.641 Q2090.26 144.482 2085.52 144.482 Q2079.73 144.482 2076.37 148.33 Q2073 152.178 2073 158.822 L2073 184.464 L2065.51 184.464 L2065.51 157.323 Q2065.51 150.76 2063.2 147.641 Q2060.89 144.482 2056.07 144.482 Q2050.36 144.482 2047 148.37 Q2043.64 152.219 2043.64 158.822 L2043.64 184.464 L2036.14 184.464 L2036.14 139.094 L2043.64 139.094 L2043.64 146.142 Q2046.19 141.97 2049.75 139.985 Q2053.32 138 2058.22 138 Q2063.16 138 2066.6 140.512 Q2070.09 143.023 2071.75 147.803 Z" fill="#000000" fill-rule="nonzero" fill-opacity="1" /><path clip-path="url(#clip980)" d="M2156.05 159.916 L2156.05 163.561 L2121.78 163.561 Q2122.26 171.258 2126.4 175.309 Q2130.57 179.319 2137.98 179.319 Q2142.27 179.319 2146.28 178.266 Q2150.34 177.213 2154.31 175.106 L2154.31 182.155 Q2150.3 183.856 2146.08 184.748 Q2141.87 185.639 2137.54 185.639 Q2126.68 185.639 2120.32 179.319 Q2114 173 2114 162.225 Q2114 151.085 2119.99 144.563 Q2126.03 138 2136.24 138 Q2145.39 138 2150.7 143.914 Q2156.05 149.788 2156.05 159.916 M2148.59 157.728 Q2148.51 151.611 2145.15 147.965 Q2141.83 144.32 2136.32 144.32 Q2130.08 144.32 2126.31 147.844 Q2122.59 151.368 2122.02 157.769 L2148.59 157.728 Z" fill="#000000" fill-rule="nonzero" fill-opacity="1" /><path clip-path="url(#clip980)" d="M2190.89 158.822 L2265.75 158.822 L2265.75 164.655 L2190.89 164.655 L2190.89 158.822 Z" fill="#000000" fill-rule="nonzero" fill-opacity="1" /><path clip-path="url(#clip980)" d="M2332.91 140.431 L2332.91 147.479 Q2329.75 145.859 2326.35 145.049 Q2322.94 144.239 2319.3 144.239 Q2313.75 144.239 2310.95 145.94 Q2308.2 147.641 2308.2 151.044 Q2308.2 153.637 2310.18 155.135 Q2312.17 156.594 2318.16 157.931 L2320.72 158.498 Q2328.66 160.199 2331.98 163.318 Q2335.34 166.397 2335.34 171.947 Q2335.34 178.266 2330.32 181.952 Q2325.33 185.639 2316.58 185.639 Q2312.94 185.639 2308.97 184.91 Q2305.04 184.221 2300.66 182.803 L2300.66 175.106 Q2304.8 177.253 2308.81 178.347 Q2312.82 179.4 2316.75 179.4 Q2322.01 179.4 2324.85 177.618 Q2327.68 175.795 2327.68 172.514 Q2327.68 169.476 2325.62 167.855 Q2323.59 166.235 2316.67 164.736 L2314.07 164.128 Q2307.15 162.67 2304.07 159.672 Q2300.99 156.634 2300.99 151.368 Q2300.99 144.968 2305.53 141.484 Q2310.06 138 2318.41 138 Q2322.54 138 2326.19 138.608 Q2329.83 139.215 2332.91 140.431 Z" fill="#000000" fill-rule="nonzero" fill-opacity="1" /><path clip-path="url(#clip980)" d="M2354.58 126.212 L2354.58 139.094 L2369.94 139.094 L2369.94 144.887 L2354.58 144.887 L2354.58 169.516 Q2354.58 175.066 2356.08 176.646 Q2357.62 178.226 2362.28 178.226 L2369.94 178.226 L2369.94 184.464 L2362.28 184.464 Q2353.65 184.464 2350.37 181.264 Q2347.09 178.023 2347.09 169.516 L2347.09 144.887 L2341.62 144.887 L2341.62 139.094 L2347.09 139.094 L2347.09 126.212 L2354.58 126.212 Z" fill="#000000" fill-rule="nonzero" fill-opacity="1" /><path clip-path="url(#clip980)" d="M2418.55 159.916 L2418.55 163.561 L2384.28 163.561 Q2384.76 171.258 2388.89 175.309 Q2393.07 179.319 2400.48 179.319 Q2404.77 179.319 2408.78 178.266 Q2412.83 177.213 2416.8 175.106 L2416.8 182.155 Q2412.79 183.856 2408.58 184.748 Q2404.37 185.639 2400.03 185.639 Q2389.18 185.639 2382.82 179.319 Q2376.5 173 2376.5 162.225 Q2376.5 151.085 2382.49 144.563 Q2388.53 138 2398.74 138 Q2407.89 138 2413.2 143.914 Q2418.55 149.788 2418.55 159.916 M2411.09 157.728 Q2411.01 151.611 2407.65 147.965 Q2404.33 144.32 2398.82 144.32 Q2392.58 144.32 2388.81 147.844 Q2385.09 151.368 2384.52 157.769 L2411.09 157.728 Z" fill="#000000" fill-rule="nonzero" fill-opacity="1" /><path clip-path="url(#clip980)" d="M2469.59 159.916 L2469.59 163.561 L2435.32 163.561 Q2435.8 171.258 2439.94 175.309 Q2444.11 179.319 2451.52 179.319 Q2455.81 179.319 2459.82 178.266 Q2463.88 177.213 2467.85 175.106 L2467.85 182.155 Q2463.84 183.856 2459.62 184.748 Q2455.41 185.639 2451.08 185.639 Q2440.22 185.639 2433.86 179.319 Q2427.54 173 2427.54 162.225 Q2427.54 151.085 2433.53 144.563 Q2439.57 138 2449.78 138 Q2458.93 138 2464.24 143.914 Q2469.59 149.788 2469.59 159.916 M2462.13 157.728 Q2462.05 151.611 2458.69 147.965 Q2455.37 144.32 2449.86 144.32 Q2443.62 144.32 2439.85 147.844 Q2436.13 151.368 2435.56 157.769 L2462.13 157.728 Z" fill="#000000" fill-rule="nonzero" fill-opacity="1" /><path clip-path="url(#clip980)" d="M2508.11 146.061 Q2506.86 145.332 2505.36 145.008 Q2503.9 144.644 2502.12 144.644 Q2495.8 144.644 2492.39 148.776 Q2489.03 152.867 2489.03 160.564 L2489.03 184.464 L2481.54 184.464 L2481.54 139.094 L2489.03 139.094 L2489.03 146.142 Q2491.38 142.011 2495.15 140.026 Q2498.92 138 2504.3 138 Q2505.07 138 2506.01 138.122 Q2506.94 138.203 2508.07 138.405 L2508.11 146.061 Z" fill="#000000" fill-rule="nonzero" fill-opacity="1" /><path clip-path="url(#clip980)" d="M2515.93 139.094 L2523.38 139.094 L2523.38 184.464 L2515.93 184.464 L2515.93 139.094 M2515.93 121.432 L2523.38 121.432 L2523.38 130.871 L2515.93 130.871 L2515.93 121.432 Z" fill="#000000" fill-rule="nonzero" fill-opacity="1" /><path clip-path="url(#clip980)" d="M2576.69 157.08 L2576.69 184.464 L2569.24 184.464 L2569.24 157.323 Q2569.24 150.882 2566.73 147.682 Q2564.22 144.482 2559.19 144.482 Q2553.16 144.482 2549.67 148.33 Q2546.19 152.178 2546.19 158.822 L2546.19 184.464 L2538.7 184.464 L2538.7 139.094 L2546.19 139.094 L2546.19 146.142 Q2548.86 142.051 2552.47 140.026 Q2556.11 138 2560.85 138 Q2568.67 138 2572.68 142.861 Q2576.69 147.682 2576.69 157.08 Z" fill="#000000" fill-rule="nonzero" fill-opacity="1" /><path clip-path="url(#clip980)" d="M2621.42 161.252 Q2621.42 153.151 2618.05 148.695 Q2614.73 144.239 2608.7 144.239 Q2602.7 144.239 2599.34 148.695 Q2596.02 153.151 2596.02 161.252 Q2596.02 169.314 2599.34 173.77 Q2602.7 178.226 2608.7 178.226 Q2614.73 178.226 2618.05 173.77 Q2621.42 169.314 2621.42 161.252 M2628.87 178.833 Q2628.87 190.419 2623.72 196.05 Q2618.58 201.721 2607.97 201.721 Q2604.04 201.721 2600.55 201.113 Q2597.07 200.546 2593.79 199.331 L2593.79 192.08 Q2597.07 193.862 2600.27 194.713 Q2603.47 195.563 2606.79 195.563 Q2614.12 195.563 2617.77 191.715 Q2621.42 187.907 2621.42 180.17 L2621.42 176.484 Q2619.11 180.494 2615.5 182.479 Q2611.9 184.464 2606.87 184.464 Q2598.53 184.464 2593.42 178.104 Q2588.32 171.744 2588.32 161.252 Q2588.32 150.72 2593.42 144.36 Q2598.53 138 2606.87 138 Q2611.9 138 2615.5 139.985 Q2619.11 141.97 2621.42 145.98 L2621.42 139.094 L2628.87 139.094 L2628.87 178.833 Z" fill="#000000" fill-rule="nonzero" fill-opacity="1" /><path clip-path="url(#clip982)" d="M437.48 1932.29 L389.48 1932.29 L413.48 1980.29 L437.48 1932.29 Z" fill="#9370db" fill-rule="evenodd" fill-opacity="1" stroke="none"/>
<path clip-path="url(#clip982)" d="M2614.51 1495 L2566.51 1495 L2590.51 1543 L2614.51 1495 Z" fill="#9370db" fill-rule="evenodd" fill-opacity="1" stroke="none"/>
<path clip-path="url(#clip982)" d="M3049.91 1187.24 L3001.91 1187.24 L3025.91 1235.24 L3049.91 1187.24 Z" fill="#9370db" fill-rule="evenodd" fill-opacity="1" stroke="none"/>
<path clip-path="url(#clip982)" d="M3049.91 791.208 L3001.91 791.208 L3025.91 839.208 L3049.91 791.208 Z" fill="#9370db" fill-rule="evenodd" fill-opacity="1" stroke="none"/>
<path clip-path="url(#clip982)" d="M3485.32 387.281 L3437.32 387.281 L3461.32 435.281 L3485.32 387.281 Z" fill="#9370db" fill-rule="evenodd" fill-opacity="1" stroke="none"/>
<circle clip-path="url(#clip982)" cx="413.48" cy="1866.92" r="21.6" fill="#4682b4" fill-rule="evenodd" fill-opacity="1" stroke="none"/>
<circle clip-path="url(#clip982)" cx="2590.51" cy="1450.99" r="21.6" fill="#4682b4" fill-rule="evenodd" fill-opacity="1" stroke="none"/>
<circle clip-path="url(#clip982)" cx="3025.91" cy="1128.73" r="21.6" fill="#4682b4" fill-rule="evenodd" fill-opacity="1" stroke="none"/>
<circle clip-path="url(#clip982)" cx="3025.91" cy="720.736" r="21.6" fill="#4682b4" fill-rule="evenodd" fill-opacity="1" stroke="none"/>
<circle clip-path="url(#clip982)" cx="3461.32" cy="300.989" r="21.6" fill="#4682b4" fill-rule="evenodd" fill-opacity="1" stroke="none"/>
<path clip-path="url(#clip982)" d="M389.48 2013.49 L389.48 2061.49 L437.48 2061.49 L437.48 2013.49 L389.48 2013.49 Z" fill="#ff6347" fill-rule="evenodd" fill-opacity="1" stroke="none"/>
<path clip-path="url(#clip982)" d="M2566.51 1577.21 L2566.51 1625.21 L2614.51 1625.21 L2614.51 1577.21 L2566.51 1577.21 Z" fill="#ff6347" fill-rule="evenodd" fill-opacity="1" stroke="none"/>
<path clip-path="url(#clip982)" d="M3001.91 1299.86 L3001.91 1347.86 L3049.91 1347.86 L3049.91 1299.86 L3001.91 1299.86 Z" fill="#ff6347" fill-rule="evenodd" fill-opacity="1" stroke="none"/>
<path clip-path="url(#clip982)" d="M3001.91 929.544 L3001.91 977.544 L3049.91 977.544 L3049.91 929.544 L3001.91 929.544 Z" fill="#ff6347" fill-rule="evenodd" fill-opacity="1" stroke="none"/>
<path clip-path="url(#clip982)" d="M3437.32 520.931 L3437.32 568.931 L3485.32 568.931 L3485.32 520.931 L3437.32 520.931 Z" fill="#ff6347" fill-rule="evenodd" fill-opacity="1" stroke="none"/>
<path clip-path="url(#clip982)" d="M1284.29 1913.87 L1278.65 1930.09 L1261.47 1930.45 L1275.17 1940.84 L1270.18 1957.28 L1284.29 1947.47 L1298.4 1957.28 L1293.41 1940.84 L1307.12 1930.45 L1289.93 1930.09 L1284.29 1913.87 Z" fill="#a0522d" fill-rule="evenodd" fill-opacity="1" stroke="none"/>
<path clip-path="url(#clip982)" d="M1719.7 1573.64 L1714.06 1589.86 L1696.87 1590.22 L1710.58 1600.61 L1705.59 1617.05 L1719.7 1607.24 L1733.81 1617.05 L1728.82 1600.61 L1742.52 1590.22 L1725.34 1589.86 L1719.7 1573.64 Z" fill="#a0522d" fill-rule="evenodd" fill-opacity="1" stroke="none"/>
<path clip-path="url(#clip982)" d="M1719.7 1273.12 L1714.06 1289.34 L1696.87 1289.7 L1710.58 1300.09 L1705.59 1316.53 L1719.7 1306.72 L1733.81 1316.53 L1728.82 1300.09 L1742.52 1289.7 L1725.34 1289.34 L1719.7 1273.12 Z" fill="#a0522d" fill-rule="evenodd" fill-opacity="1" stroke="none"/>
<path clip-path="url(#clip982)" d="M1284.29 887.874 L1278.65 904.098 L1261.47 904.458 L1275.17 914.85 L1270.18 931.29 L1284.29 921.474 L1298.4 931.29 L1293.41 914.85 L1307.12 904.458 L1289.93 904.098 L1284.29 887.874 Z" fill="#a0522d" fill-rule="evenodd" fill-opacity="1" stroke="none"/>
<path clip-path="url(#clip982)" d="M2590.51 461.162 L2584.87 477.386 L2567.68 477.746 L2581.39 488.138 L2576.4 504.578 L2590.51 494.762 L2604.62 504.578 L2599.63 488.138 L2613.33 477.746 L2596.15 477.386 L2590.51 461.162 Z" fill="#a0522d" fill-rule="evenodd" fill-opacity="1" stroke="none"/>
<path clip-path="url(#clip982)" d="M1284.29 1887.5 L1260.29 1911.5 L1284.29 1935.5 L1308.29 1911.5 L1284.29 1887.5 Z" fill="#2e8b57" fill-rule="evenodd" fill-opacity="1" stroke="none"/>
<path clip-path="url(#clip982)" d="M1719.7 1498.48 L1695.7 1522.48 L1719.7 1546.48 L1743.7 1522.48 L1719.7 1498.48 Z" fill="#2e8b57" fill-rule="evenodd" fill-opacity="1" stroke="none"/>
<path clip-path="url(#clip982)" d="M1719.7 1138.65 L1695.7 1162.65 L1719.7 1186.65 L1743.7 1162.65 L1719.7 1138.65 Z" fill="#2e8b57" fill-rule="evenodd" fill-opacity="1" stroke="none"/>
<path clip-path="url(#clip982)" d="M1284.29 780.792 L1260.29 804.792 L1284.29 828.792 L1308.29 804.792 L1284.29 780.792 Z" fill="#2e8b57" fill-rule="evenodd" fill-opacity="1" stroke="none"/>
<path clip-path="url(#clip982)" d="M2590.51 289.639 L2566.51 313.639 L2590.51 337.639 L2614.51 313.639 L2590.51 289.639 Z" fill="#2e8b57" fill-rule="evenodd" fill-opacity="1" stroke="none"/>
<path clip-path="url(#clip982)" d="M1284.29 2078.46 L1260.29 2126.46 L1308.29 2126.46 L1284.29 2078.46 Z" fill="#ff8c00" fill-rule="evenodd" fill-opacity="1" stroke="none"/>
<path clip-path="url(#clip982)" d="M1719.7 1730.86 L1695.7 1778.86 L1743.7 1778.86 L1719.7 1730.86 Z" fill="#ff8c00" fill-rule="evenodd" fill-opacity="1" stroke="none"/>
<path clip-path="url(#clip982)" d="M1719.7 1443.33 L1695.7 1491.33 L1743.7 1491.33 L1719.7 1443.33 Z" fill="#ff8c00" fill-rule="evenodd" fill-opacity="1" stroke="none"/>
<path clip-path="url(#clip982)" d="M1284.29 1077.06 L1260.29 1125.06 L1308.29 1125.06 L1284.29 1077.06 Z" fill="#ff8c00" fill-rule="evenodd" fill-opacity="1" stroke="none"/>
<path clip-path="url(#clip982)" d="M2590.51 671.718 L2566.51 719.718 L2614.51 719.718 L2590.51 671.718 Z" fill="#ff8c00" fill-rule="evenodd" fill-opacity="1" stroke="none"/>
<path clip-path="url(#clip980)" d="M429.735 673.476 L1122.87 673.476 L1122.87 310.596 L429.735 310.596  Z" fill="#ffffff" fill-rule="evenodd" fill-opacity="1"/>
<polyline clip-path="url(#clip980)" style="stroke:#000000; stroke-linecap:round; stroke-linejoin:round; stroke-width:4; stroke-opacity:1; fill:none" points="429.735,673.476 1122.87,673.476 1122.87,310.596 429.735,310.596 429.735,673.476 "/>
<path clip-path="url(#clip980)" d="M598.922 336.836 L547.722 336.836 L573.322 388.036 L598.922 336.836 Z" fill="#9370db" fill-rule="evenodd" fill-opacity="1" stroke="none"/>
<path clip-path="url(#clip980)" d="M727.534 343.744 Q724.432 349.068 722.928 354.277 Q721.423 359.485 721.423 364.832 Q721.423 370.179 722.928 375.434 Q724.455 380.665 727.534 385.966 L723.83 385.966 Q720.358 380.527 718.622 375.272 Q716.909 370.017 716.909 364.832 Q716.909 359.67 718.622 354.439 Q720.335 349.207 723.83 343.744 L727.534 343.744 Z" fill="#000000" fill-rule="nonzero" fill-opacity="1" /><path clip-path="url(#clip980)" d="M735.798 353.791 L740.057 353.791 L740.057 380.179 Q740.057 385.133 738.159 387.355 Q736.284 389.577 732.094 389.577 L730.474 389.577 L730.474 385.966 L731.608 385.966 Q734.039 385.966 734.918 384.832 Q735.798 383.721 735.798 380.179 L735.798 353.791 M735.798 343.698 L740.057 343.698 L740.057 349.092 L735.798 349.092 L735.798 343.698 Z" fill="#000000" fill-rule="nonzero" fill-opacity="1" /><path clip-path="url(#clip980)" d="M748.529 369.485 L748.529 353.791 L752.788 353.791 L752.788 369.323 Q752.788 373.003 754.224 374.855 Q755.659 376.684 758.529 376.684 Q761.978 376.684 763.969 374.485 Q765.983 372.286 765.983 368.49 L765.983 353.791 L770.242 353.791 L770.242 379.716 L765.983 379.716 L765.983 375.735 Q764.432 378.096 762.372 379.253 Q760.335 380.388 757.626 380.388 Q753.159 380.388 750.844 377.61 Q748.529 374.832 748.529 369.485 M759.247 353.166 L759.247 353.166 Z" fill="#000000" fill-rule="nonzero" fill-opacity="1" /><path clip-path="url(#clip980)" d="M799.2 358.767 Q800.797 355.897 803.02 354.531 Q805.242 353.166 808.251 353.166 Q812.302 353.166 814.501 356.013 Q816.7 358.837 816.7 364.068 L816.7 379.716 L812.418 379.716 L812.418 364.207 Q812.418 360.48 811.098 358.675 Q809.779 356.869 807.071 356.869 Q803.76 356.869 801.839 359.068 Q799.918 361.267 799.918 365.064 L799.918 379.716 L795.635 379.716 L795.635 364.207 Q795.635 360.457 794.316 358.675 Q792.997 356.869 790.242 356.869 Q786.978 356.869 785.057 359.091 Q783.136 361.291 783.136 365.064 L783.136 379.716 L778.853 379.716 L778.853 353.791 L783.136 353.791 L783.136 357.818 Q784.594 355.434 786.631 354.3 Q788.668 353.166 791.469 353.166 Q794.293 353.166 796.26 354.601 Q798.251 356.036 799.2 358.767 Z" fill="#000000" fill-rule="nonzero" fill-opacity="1" /><path clip-path="url(#clip980)" d="M829.316 375.827 L829.316 389.577 L825.033 389.577 L825.033 353.791 L829.316 353.791 L829.316 357.726 Q830.658 355.411 832.695 354.3 Q834.756 353.166 837.603 353.166 Q842.325 353.166 845.265 356.916 Q848.228 360.666 848.228 366.777 Q848.228 372.888 845.265 376.638 Q842.325 380.388 837.603 380.388 Q834.756 380.388 832.695 379.277 Q830.658 378.142 829.316 375.827 M843.807 366.777 Q843.807 362.078 841.862 359.416 Q839.941 356.73 836.561 356.73 Q833.182 356.73 831.237 359.416 Q829.316 362.078 829.316 366.777 Q829.316 371.476 831.237 374.161 Q833.182 376.823 836.561 376.823 Q839.941 376.823 841.862 374.161 Q843.807 371.476 843.807 366.777 Z" fill="#000000" fill-rule="nonzero" fill-opacity="1" /><path clip-path="url(#clip980)" d="M856.376 373.837 L861.26 373.837 L861.26 377.818 L857.464 385.226 L854.478 385.226 L856.376 377.818 L856.376 373.837 Z" fill="#000000" fill-rule="nonzero" fill-opacity="1" /><path clip-path="url(#clip980)" d="M885.427 353.791 L889.686 353.791 L889.686 379.716 L885.427 379.716 L885.427 353.791 M885.427 343.698 L889.686 343.698 L889.686 349.092 L885.427 349.092 L885.427 343.698 Z" fill="#000000" fill-rule="nonzero" fill-opacity="1" /><path clip-path="url(#clip980)" d="M902.718 375.827 L902.718 389.577 L898.436 389.577 L898.436 353.791 L902.718 353.791 L902.718 357.726 Q904.061 355.411 906.098 354.3 Q908.158 353.166 911.005 353.166 Q915.727 353.166 918.667 356.916 Q921.63 360.666 921.63 366.777 Q921.63 372.888 918.667 376.638 Q915.727 380.388 911.005 380.388 Q908.158 380.388 906.098 379.277 Q904.061 378.142 902.718 375.827 M917.209 366.777 Q917.209 362.078 915.264 359.416 Q913.343 356.73 909.964 356.73 Q906.584 356.73 904.64 359.416 Q902.718 362.078 902.718 366.777 Q902.718 371.476 904.64 374.161 Q906.584 376.823 909.964 376.823 Q913.343 376.823 915.264 374.161 Q917.209 371.476 917.209 366.777 Z" fill="#000000" fill-rule="nonzero" fill-opacity="1" /><path clip-path="url(#clip980)" d="M938.737 356.777 Q935.311 356.777 933.32 359.462 Q931.329 362.124 931.329 366.777 Q931.329 371.429 933.297 374.115 Q935.288 376.777 938.737 376.777 Q942.139 376.777 944.13 374.091 Q946.121 371.406 946.121 366.777 Q946.121 362.17 944.13 359.485 Q942.139 356.777 938.737 356.777 M938.737 353.166 Q944.292 353.166 947.463 356.777 Q950.635 360.388 950.635 366.777 Q950.635 373.142 947.463 376.777 Q944.292 380.388 938.737 380.388 Q933.158 380.388 929.987 376.777 Q926.838 373.142 926.838 366.777 Q926.838 360.388 929.987 356.777 Q933.158 353.166 938.737 353.166 Z" fill="#000000" fill-rule="nonzero" fill-opacity="1" /><path clip-path="url(#clip980)" d="M961.815 375.827 L961.815 389.577 L957.533 389.577 L957.533 353.791 L961.815 353.791 L961.815 357.726 Q963.158 355.411 965.195 354.3 Q967.255 353.166 970.102 353.166 Q974.824 353.166 977.764 356.916 Q980.727 360.666 980.727 366.777 Q980.727 372.888 977.764 376.638 Q974.824 380.388 970.102 380.388 Q967.255 380.388 965.195 379.277 Q963.158 378.142 961.815 375.827 M976.306 366.777 Q976.306 362.078 974.361 359.416 Q972.44 356.73 969.06 356.73 Q965.681 356.73 963.736 359.416 Q961.815 362.078 961.815 366.777 Q961.815 371.476 963.736 374.161 Q965.681 376.823 969.06 376.823 Q972.44 376.823 974.361 374.161 Q976.306 371.476 976.306 366.777 Z" fill="#000000" fill-rule="nonzero" fill-opacity="1" /><path clip-path="url(#clip980)" d="M992 346.43 L992 353.791 L1000.77 353.791 L1000.77 357.101 L992 357.101 L992 371.175 Q992 374.346 992.857 375.249 Q993.736 376.152 996.398 376.152 L1000.77 376.152 L1000.77 379.716 L996.398 379.716 Q991.468 379.716 989.593 377.888 Q987.718 376.036 987.718 371.175 L987.718 357.101 L984.593 357.101 L984.593 353.791 L987.718 353.791 L987.718 346.43 L992 346.43 Z" fill="#000000" fill-rule="nonzero" fill-opacity="1" /><path clip-path="url(#clip980)" d="M1005.7 343.744 L1009.41 343.744 Q1012.88 349.207 1014.59 354.439 Q1016.33 359.67 1016.33 364.832 Q1016.33 370.017 1014.59 375.272 Q1012.88 380.527 1009.41 385.966 L1005.7 385.966 Q1008.78 380.665 1010.29 375.434 Q1011.81 370.179 1011.81 364.832 Q1011.81 359.485 1010.29 354.277 Q1008.78 349.068 1005.7 343.744 Z" fill="#000000" fill-rule="nonzero" fill-opacity="1" /><circle clip-path="url(#clip980)" cx="573.322" cy="414.276" r="23.04" fill="#4682b4" fill-rule="evenodd" fill-opacity="1" stroke="none"/>
<path clip-path="url(#clip980)" d="M727.534 395.584 Q724.432 400.908 722.928 406.117 Q721.423 411.325 721.423 416.672 Q721.423 422.019 722.928 427.274 Q724.455 432.505 727.534 437.806 L723.83 437.806 Q720.358 432.367 718.622 427.112 Q716.909 421.857 716.909 416.672 Q716.909 411.51 718.622 406.279 Q720.335 401.047 723.83 395.584 L727.534 395.584 Z" fill="#000000" fill-rule="nonzero" fill-opacity="1" /><path clip-path="url(#clip980)" d="M747.58 418.524 Q742.418 418.524 740.427 419.705 Q738.437 420.885 738.437 423.732 Q738.437 426.001 739.918 427.343 Q741.423 428.663 743.992 428.663 Q747.534 428.663 749.664 426.163 Q751.816 423.64 751.816 419.473 L751.816 418.524 L747.58 418.524 M756.076 416.765 L756.076 431.556 L751.816 431.556 L751.816 427.621 Q750.358 429.982 748.182 431.117 Q746.006 432.228 742.858 432.228 Q738.877 432.228 736.515 430.005 Q734.177 427.76 734.177 424.01 Q734.177 419.635 737.094 417.413 Q740.034 415.191 745.844 415.191 L751.816 415.191 L751.816 414.774 Q751.816 411.834 749.872 410.237 Q747.951 408.617 744.455 408.617 Q742.233 408.617 740.127 409.149 Q738.02 409.681 736.076 410.746 L736.076 406.811 Q738.414 405.908 740.613 405.469 Q742.812 405.006 744.895 405.006 Q750.52 405.006 753.298 407.922 Q756.076 410.839 756.076 416.765 Z" fill="#000000" fill-rule="nonzero" fill-opacity="1" /><path clip-path="url(#clip980)" d="M781.909 409.566 L781.909 395.538 L786.168 395.538 L786.168 431.556 L781.909 431.556 L781.909 427.667 Q780.566 429.982 778.506 431.117 Q776.469 432.228 773.599 432.228 Q768.9 432.228 765.937 428.478 Q762.997 424.728 762.997 418.617 Q762.997 412.506 765.937 408.756 Q768.9 405.006 773.599 405.006 Q776.469 405.006 778.506 406.14 Q780.566 407.251 781.909 409.566 M767.395 418.617 Q767.395 423.316 769.316 426.001 Q771.261 428.663 774.64 428.663 Q778.02 428.663 779.964 426.001 Q781.909 423.316 781.909 418.617 Q781.909 413.918 779.964 411.256 Q778.02 408.57 774.64 408.57 Q771.261 408.57 769.316 411.256 Q767.395 413.918 767.395 418.617 Z" fill="#000000" fill-rule="nonzero" fill-opacity="1" /><path clip-path="url(#clip980)" d="M816.492 415.908 L816.492 431.556 L812.233 431.556 L812.233 416.047 Q812.233 412.367 810.797 410.538 Q809.362 408.709 806.492 408.709 Q803.043 408.709 801.052 410.908 Q799.061 413.107 799.061 416.904 L799.061 431.556 L794.779 431.556 L794.779 405.631 L799.061 405.631 L799.061 409.658 Q800.589 407.32 802.649 406.163 Q804.733 405.006 807.441 405.006 Q811.909 405.006 814.2 407.783 Q816.492 410.538 816.492 415.908 Z" fill="#000000" fill-rule="nonzero" fill-opacity="1" /><path clip-path="url(#clip980)" d="M824.987 395.538 L829.246 395.538 L829.246 431.556 L824.987 431.556 L824.987 395.538 Z" fill="#000000" fill-rule="nonzero" fill-opacity="1" /><path clip-path="url(#clip980)" d="M842.279 427.667 L842.279 441.417 L837.996 441.417 L837.996 405.631 L842.279 405.631 L842.279 409.566 Q843.621 407.251 845.658 406.14 Q847.719 405.006 850.566 405.006 Q855.288 405.006 858.228 408.756 Q861.191 412.506 861.191 418.617 Q861.191 424.728 858.228 428.478 Q855.288 432.228 850.566 432.228 Q847.719 432.228 845.658 431.117 Q843.621 429.982 842.279 427.667 M856.769 418.617 Q856.769 413.918 854.825 411.256 Q852.904 408.57 849.524 408.57 Q846.144 408.57 844.2 411.256 Q842.279 413.918 842.279 418.617 Q842.279 423.316 844.2 426.001 Q846.144 428.663 849.524 428.663 Q852.904 428.663 854.825 426.001 Q856.769 423.316 856.769 418.617 Z" fill="#000000" fill-rule="nonzero" fill-opacity="1" /><path clip-path="url(#clip980)" d="M869.339 425.677 L874.223 425.677 L874.223 429.658 L870.427 437.066 L867.441 437.066 L869.339 429.658 L869.339 425.677 Z" fill="#000000" fill-rule="nonzero" fill-opacity="1" /><path clip-path="url(#clip980)" d="M898.39 405.631 L902.649 405.631 L902.649 431.556 L898.39 431.556 L898.39 405.631 M898.39 395.538 L902.649 395.538 L902.649 400.932 L898.39 400.932 L898.39 395.538 Z" fill="#000000" fill-rule="nonzero" fill-opacity="1" /><path clip-path="url(#clip980)" d="M915.681 427.667 L915.681 441.417 L911.399 441.417 L911.399 405.631 L915.681 405.631 L915.681 409.566 Q917.024 407.251 919.061 406.14 Q921.121 405.006 923.968 405.006 Q928.69 405.006 931.63 408.756 Q934.593 412.506 934.593 418.617 Q934.593 424.728 931.63 428.478 Q928.69 432.228 923.968 432.228 Q921.121 432.228 919.061 431.117 Q917.024 429.982 915.681 427.667 M930.172 418.617 Q930.172 413.918 928.227 411.256 Q926.306 408.57 922.926 408.57 Q919.547 408.57 917.602 411.256 Q915.681 413.918 915.681 418.617 Q915.681 423.316 917.602 426.001 Q919.547 428.663 922.926 428.663 Q926.306 428.663 928.227 426.001 Q930.172 423.316 930.172 418.617 Z" fill="#000000" fill-rule="nonzero" fill-opacity="1" /><path clip-path="url(#clip980)" d="M951.699 408.617 Q948.274 408.617 946.283 411.302 Q944.292 413.964 944.292 418.617 Q944.292 423.269 946.26 425.955 Q948.25 428.617 951.699 428.617 Q955.102 428.617 957.093 425.931 Q959.084 423.246 959.084 418.617 Q959.084 414.01 957.093 411.325 Q955.102 408.617 951.699 408.617 M951.699 405.006 Q957.255 405.006 960.426 408.617 Q963.598 412.228 963.598 418.617 Q963.598 424.982 960.426 428.617 Q957.255 432.228 951.699 432.228 Q946.121 432.228 942.95 428.617 Q939.801 424.982 939.801 418.617 Q939.801 412.228 942.95 408.617 Q946.121 405.006 951.699 405.006 Z" fill="#000000" fill-rule="nonzero" fill-opacity="1" /><path clip-path="url(#clip980)" d="M974.778 427.667 L974.778 441.417 L970.496 441.417 L970.496 405.631 L974.778 405.631 L974.778 409.566 Q976.121 407.251 978.158 406.14 Q980.218 405.006 983.065 405.006 Q987.787 405.006 990.727 408.756 Q993.69 412.506 993.69 418.617 Q993.69 424.728 990.727 428.478 Q987.787 432.228 983.065 432.228 Q980.218 432.228 978.158 431.117 Q976.121 429.982 974.778 427.667 M989.269 418.617 Q989.269 413.918 987.324 411.256 Q985.403 408.57 982.023 408.57 Q978.644 408.57 976.699 411.256 Q974.778 413.918 974.778 418.617 Q974.778 423.316 976.699 426.001 Q978.644 428.663 982.023 428.663 Q985.403 428.663 987.324 426.001 Q989.269 423.316 989.269 418.617 Z" fill="#000000" fill-rule="nonzero" fill-opacity="1" /><path clip-path="url(#clip980)" d="M1004.96 398.27 L1004.96 405.631 L1013.74 405.631 L1013.74 408.941 L1004.96 408.941 L1004.96 423.015 Q1004.96 426.186 1005.82 427.089 Q1006.7 427.992 1009.36 427.992 L1013.74 427.992 L1013.74 431.556 L1009.36 431.556 Q1004.43 431.556 1002.56 429.728 Q1000.68 427.876 1000.68 423.015 L1000.68 408.941 L997.556 408.941 L997.556 405.631 L1000.68 405.631 L1000.68 398.27 L1004.96 398.27 Z" fill="#000000" fill-rule="nonzero" fill-opacity="1" /><path clip-path="url(#clip980)" d="M1018.67 395.584 L1022.37 395.584 Q1025.84 401.047 1027.56 406.279 Q1029.29 411.51 1029.29 416.672 Q1029.29 421.857 1027.56 427.112 Q1025.84 432.367 1022.37 437.806 L1018.67 437.806 Q1021.75 432.505 1023.25 427.274 Q1024.78 422.019 1024.78 416.672 Q1024.78 411.325 1023.25 406.117 Q1021.75 400.908 1018.67 395.584 Z" fill="#000000" fill-rule="nonzero" fill-opacity="1" /><path clip-path="url(#clip980)" d="M547.722 440.516 L547.722 491.716 L598.922 491.716 L598.922 440.516 L547.722 440.516 Z" fill="#ff6347" fill-rule="evenodd" fill-opacity="1" stroke="none"/>
<path clip-path="url(#clip980)" d="M727.534 447.424 Q724.432 452.748 722.928 457.957 Q721.423 463.165 721.423 468.512 Q721.423 473.859 722.928 479.114 Q724.455 484.345 727.534 489.646 L723.83 489.646 Q720.358 484.207 718.622 478.952 Q716.909 473.697 716.909 468.512 Q716.909 463.35 718.622 458.119 Q720.335 452.887 723.83 447.424 L727.534 447.424 Z" fill="#000000" fill-rule="nonzero" fill-opacity="1" /><path clip-path="url(#clip980)" d="M757.974 469.369 L757.974 471.452 L738.39 471.452 Q738.668 475.85 741.029 478.165 Q743.414 480.457 747.65 480.457 Q750.103 480.457 752.395 479.855 Q754.71 479.253 756.978 478.049 L756.978 482.077 Q754.687 483.049 752.279 483.558 Q749.872 484.068 747.395 484.068 Q741.191 484.068 737.557 480.457 Q733.946 476.845 733.946 470.688 Q733.946 464.322 737.372 460.596 Q740.821 456.846 746.654 456.846 Q751.886 456.846 754.918 460.225 Q757.974 463.582 757.974 469.369 M753.714 468.119 Q753.668 464.623 751.747 462.54 Q749.849 460.457 746.701 460.457 Q743.136 460.457 740.983 462.471 Q738.853 464.484 738.529 468.142 L753.714 468.119 Z" fill="#000000" fill-rule="nonzero" fill-opacity="1" /><path clip-path="url(#clip980)" d="M785.682 457.471 L776.307 470.086 L786.168 483.396 L781.145 483.396 L773.599 473.211 L766.052 483.396 L761.029 483.396 L771.099 469.832 L761.886 457.471 L766.909 457.471 L773.784 466.707 L780.659 457.471 L785.682 457.471 Z" fill="#000000" fill-rule="nonzero" fill-opacity="1" /><path clip-path="url(#clip980)" d="M803.969 470.364 Q798.807 470.364 796.816 471.545 Q794.825 472.725 794.825 475.572 Q794.825 477.841 796.307 479.183 Q797.811 480.503 800.381 480.503 Q803.922 480.503 806.052 478.003 Q808.205 475.48 808.205 471.313 L808.205 470.364 L803.969 470.364 M812.464 468.605 L812.464 483.396 L808.205 483.396 L808.205 479.461 Q806.747 481.822 804.571 482.957 Q802.395 484.068 799.247 484.068 Q795.265 484.068 792.904 481.845 Q790.566 479.6 790.566 475.85 Q790.566 471.475 793.483 469.253 Q796.423 467.031 802.233 467.031 L808.205 467.031 L808.205 466.614 Q808.205 463.674 806.26 462.077 Q804.339 460.457 800.844 460.457 Q798.622 460.457 796.515 460.989 Q794.409 461.521 792.464 462.586 L792.464 458.651 Q794.802 457.748 797.001 457.309 Q799.2 456.846 801.284 456.846 Q806.909 456.846 809.686 459.762 Q812.464 462.679 812.464 468.605 Z" fill="#000000" fill-rule="nonzero" fill-opacity="1" /><path clip-path="url(#clip980)" d="M822.325 477.517 L827.209 477.517 L827.209 481.498 L823.413 488.906 L820.427 488.906 L822.325 481.498 L822.325 477.517 Z" fill="#000000" fill-rule="nonzero" fill-opacity="1" /><path clip-path="url(#clip980)" d="M851.376 457.471 L855.635 457.471 L855.635 483.396 L851.376 483.396 L851.376 457.471 M851.376 447.378 L855.635 447.378 L855.635 452.772 L851.376 452.772 L851.376 447.378 Z" fill="#000000" fill-rule="nonzero" fill-opacity="1" /><path clip-path="url(#clip980)" d="M868.667 479.507 L868.667 493.257 L864.385 493.257 L864.385 457.471 L868.667 457.471 L868.667 461.406 Q870.01 459.091 872.047 457.98 Q874.107 456.846 876.954 456.846 Q881.677 456.846 884.616 460.596 Q887.579 464.346 887.579 470.457 Q887.579 476.568 884.616 480.318 Q881.677 484.068 876.954 484.068 Q874.107 484.068 872.047 482.957 Q870.01 481.822 868.667 479.507 M883.158 470.457 Q883.158 465.758 881.214 463.096 Q879.292 460.41 875.913 460.41 Q872.533 460.41 870.589 463.096 Q868.667 465.758 868.667 470.457 Q868.667 475.156 870.589 477.841 Q872.533 480.503 875.913 480.503 Q879.292 480.503 881.214 477.841 Q883.158 475.156 883.158 470.457 Z" fill="#000000" fill-rule="nonzero" fill-opacity="1" /><path clip-path="url(#clip980)" d="M904.686 460.457 Q901.26 460.457 899.269 463.142 Q897.278 465.804 897.278 470.457 Q897.278 475.109 899.246 477.795 Q901.237 480.457 904.686 480.457 Q908.089 480.457 910.079 477.771 Q912.07 475.086 912.07 470.457 Q912.07 465.85 910.079 463.165 Q908.089 460.457 904.686 460.457 M904.686 456.846 Q910.241 456.846 913.413 460.457 Q916.584 464.068 916.584 470.457 Q916.584 476.822 913.413 480.457 Q910.241 484.068 904.686 484.068 Q899.107 484.068 895.936 480.457 Q892.788 476.822 892.788 470.457 Q892.788 464.068 895.936 460.457 Q899.107 456.846 904.686 456.846 Z" fill="#000000" fill-rule="nonzero" fill-opacity="1" /><path clip-path="url(#clip980)" d="M927.764 479.507 L927.764 493.257 L923.482 493.257 L923.482 457.471 L927.764 457.471 L927.764 461.406 Q929.107 459.091 931.144 457.98 Q933.204 456.846 936.051 456.846 Q940.774 456.846 943.713 460.596 Q946.676 464.346 946.676 470.457 Q946.676 476.568 943.713 480.318 Q940.774 484.068 936.051 484.068 Q933.204 484.068 931.144 482.957 Q929.107 481.822 927.764 479.507 M942.255 470.457 Q942.255 465.758 940.311 463.096 Q938.389 460.41 935.01 460.41 Q931.63 460.41 929.686 463.096 Q927.764 465.758 927.764 470.457 Q927.764 475.156 929.686 477.841 Q931.63 480.503 935.01 480.503 Q938.389 480.503 940.311 477.841 Q942.255 475.156 942.255 470.457 Z" fill="#000000" fill-rule="nonzero" fill-opacity="1" /><path clip-path="url(#clip980)" d="M957.949 450.11 L957.949 457.471 L966.723 457.471 L966.723 460.781 L957.949 460.781 L957.949 474.855 Q957.949 478.026 958.806 478.929 Q959.686 479.832 962.348 479.832 L966.723 479.832 L966.723 483.396 L962.348 483.396 Q957.417 483.396 955.542 481.568 Q953.667 479.716 953.667 474.855 L953.667 460.781 L950.542 460.781 L950.542 457.471 L953.667 457.471 L953.667 450.11 L957.949 450.11 Z" fill="#000000" fill-rule="nonzero" fill-opacity="1" /><path clip-path="url(#clip980)" d="M971.653 447.424 L975.357 447.424 Q978.829 452.887 980.542 458.119 Q982.278 463.35 982.278 468.512 Q982.278 473.697 980.542 478.952 Q978.829 484.207 975.357 489.646 L971.653 489.646 Q974.732 484.345 976.236 479.114 Q977.764 473.859 977.764 468.512 Q977.764 463.165 976.236 457.957 Q974.732 452.748 971.653 447.424 Z" fill="#000000" fill-rule="nonzero" fill-opacity="1" /><path clip-path="url(#clip980)" d="M573.322 492.356 L567.306 509.662 L548.976 510.046 L563.594 521.131 L558.269 538.667 L573.322 528.196 L588.375 538.667 L583.05 521.131 L597.667 510.046 L579.338 509.662 L573.322 492.356 Z" fill="#a0522d" fill-rule="evenodd" fill-opacity="1" stroke="none"/>
<path clip-path="url(#clip980)" d="M727.534 499.264 Q724.432 504.588 722.928 509.797 Q721.423 515.005 721.423 520.352 Q721.423 525.699 722.928 530.954 Q724.455 536.185 727.534 541.486 L723.83 541.486 Q720.358 536.047 718.622 530.792 Q716.909 525.537 716.909 520.352 Q716.909 515.19 718.622 509.959 Q720.335 504.727 723.83 499.264 L727.534 499.264 Z" fill="#000000" fill-rule="nonzero" fill-opacity="1" /><path clip-path="url(#clip980)" d="M735.798 509.311 L740.057 509.311 L740.057 535.699 Q740.057 540.653 738.159 542.875 Q736.284 545.097 732.094 545.097 L730.474 545.097 L730.474 541.486 L731.608 541.486 Q734.039 541.486 734.918 540.352 Q735.798 539.241 735.798 535.699 L735.798 509.311 M735.798 499.218 L740.057 499.218 L740.057 504.612 L735.798 504.612 L735.798 499.218 Z" fill="#000000" fill-rule="nonzero" fill-opacity="1" /><path clip-path="url(#clip980)" d="M748.529 525.005 L748.529 509.311 L752.788 509.311 L752.788 524.843 Q752.788 528.523 754.224 530.375 Q755.659 532.204 758.529 532.204 Q761.978 532.204 763.969 530.005 Q765.983 527.806 765.983 524.01 L765.983 509.311 L770.242 509.311 L770.242 535.236 L765.983 535.236 L765.983 531.255 Q764.432 533.616 762.372 534.773 Q760.335 535.908 757.626 535.908 Q753.159 535.908 750.844 533.13 Q748.529 530.352 748.529 525.005 M759.247 508.686 L759.247 508.686 Z" fill="#000000" fill-rule="nonzero" fill-opacity="1" /><path clip-path="url(#clip980)" d="M799.2 514.287 Q800.797 511.417 803.02 510.051 Q805.242 508.686 808.251 508.686 Q812.302 508.686 814.501 511.533 Q816.7 514.357 816.7 519.588 L816.7 535.236 L812.418 535.236 L812.418 519.727 Q812.418 516 811.098 514.195 Q809.779 512.389 807.071 512.389 Q803.76 512.389 801.839 514.588 Q799.918 516.787 799.918 520.584 L799.918 535.236 L795.635 535.236 L795.635 519.727 Q795.635 515.977 794.316 514.195 Q792.997 512.389 790.242 512.389 Q786.978 512.389 785.057 514.611 Q783.136 516.811 783.136 520.584 L783.136 535.236 L778.853 535.236 L778.853 509.311 L783.136 509.311 L783.136 513.338 Q784.594 510.954 786.631 509.82 Q788.668 508.686 791.469 508.686 Q794.293 508.686 796.26 510.121 Q798.251 511.556 799.2 514.287 Z" fill="#000000" fill-rule="nonzero" fill-opacity="1" /><path clip-path="url(#clip980)" d="M829.316 531.347 L829.316 545.097 L825.033 545.097 L825.033 509.311 L829.316 509.311 L829.316 513.246 Q830.658 510.931 832.695 509.82 Q834.756 508.686 837.603 508.686 Q842.325 508.686 845.265 512.436 Q848.228 516.186 848.228 522.297 Q848.228 528.408 845.265 532.158 Q842.325 535.908 837.603 535.908 Q834.756 535.908 832.695 534.797 Q830.658 533.662 829.316 531.347 M843.807 522.297 Q843.807 517.598 841.862 514.936 Q839.941 512.25 836.561 512.25 Q833.182 512.25 831.237 514.936 Q829.316 517.598 829.316 522.297 Q829.316 526.996 831.237 529.681 Q833.182 532.343 836.561 532.343 Q839.941 532.343 841.862 529.681 Q843.807 526.996 843.807 522.297 Z" fill="#000000" fill-rule="nonzero" fill-opacity="1" /><path clip-path="url(#clip980)" d="M856.376 529.357 L861.26 529.357 L861.26 533.338 L857.464 540.746 L854.478 540.746 L856.376 533.338 L856.376 529.357 Z" fill="#000000" fill-rule="nonzero" fill-opacity="1" /><path clip-path="url(#clip980)" d="M905.612 514.287 Q907.209 511.417 909.431 510.051 Q911.653 508.686 914.663 508.686 Q918.714 508.686 920.913 511.533 Q923.112 514.357 923.112 519.588 L923.112 535.236 L918.829 535.236 L918.829 519.727 Q918.829 516 917.51 514.195 Q916.19 512.389 913.482 512.389 Q910.172 512.389 908.251 514.588 Q906.329 516.787 906.329 520.584 L906.329 535.236 L902.047 535.236 L902.047 519.727 Q902.047 515.977 900.728 514.195 Q899.408 512.389 896.653 512.389 Q893.39 512.389 891.468 514.611 Q889.547 516.811 889.547 520.584 L889.547 535.236 L885.265 535.236 L885.265 509.311 L889.547 509.311 L889.547 513.338 Q891.005 510.954 893.042 509.82 Q895.079 508.686 897.88 508.686 Q900.704 508.686 902.672 510.121 Q904.663 511.556 905.612 514.287 Z" fill="#000000" fill-rule="nonzero" fill-opacity="1" /><path clip-path="url(#clip980)" d="M943.389 522.204 Q938.227 522.204 936.237 523.385 Q934.246 524.565 934.246 527.412 Q934.246 529.681 935.727 531.023 Q937.232 532.343 939.801 532.343 Q943.343 532.343 945.473 529.843 Q947.625 527.32 947.625 523.153 L947.625 522.204 L943.389 522.204 M951.885 520.445 L951.885 535.236 L947.625 535.236 L947.625 531.301 Q946.167 533.662 943.991 534.797 Q941.815 535.908 938.667 535.908 Q934.686 535.908 932.325 533.685 Q929.987 531.44 929.987 527.69 Q929.987 523.315 932.903 521.093 Q935.843 518.871 941.653 518.871 L947.625 518.871 L947.625 518.454 Q947.625 515.514 945.681 513.917 Q943.76 512.297 940.264 512.297 Q938.042 512.297 935.936 512.829 Q933.829 513.361 931.885 514.426 L931.885 510.491 Q934.223 509.588 936.422 509.149 Q938.621 508.686 940.704 508.686 Q946.329 508.686 949.107 511.602 Q951.885 514.519 951.885 520.445 Z" fill="#000000" fill-rule="nonzero" fill-opacity="1" /><path clip-path="url(#clip980)" d="M977.718 513.246 L977.718 499.218 L981.977 499.218 L981.977 535.236 L977.718 535.236 L977.718 531.347 Q976.375 533.662 974.315 534.797 Q972.278 535.908 969.408 535.908 Q964.709 535.908 961.746 532.158 Q958.806 528.408 958.806 522.297 Q958.806 516.186 961.746 512.436 Q964.709 508.686 969.408 508.686 Q972.278 508.686 974.315 509.82 Q976.375 510.931 977.718 513.246 M963.204 522.297 Q963.204 526.996 965.125 529.681 Q967.07 532.343 970.449 532.343 Q973.829 532.343 975.773 529.681 Q977.718 526.996 977.718 522.297 Q977.718 517.598 975.773 514.936 Q973.829 512.25 970.449 512.25 Q967.07 512.25 965.125 514.936 Q963.204 517.598 963.204 522.297 Z" fill="#000000" fill-rule="nonzero" fill-opacity="1" /><path clip-path="url(#clip980)" d="M1012.3 519.588 L1012.3 535.236 L1008.04 535.236 L1008.04 519.727 Q1008.04 516.047 1006.61 514.218 Q1005.17 512.389 1002.3 512.389 Q998.852 512.389 996.861 514.588 Q994.871 516.787 994.871 520.584 L994.871 535.236 L990.588 535.236 L990.588 509.311 L994.871 509.311 L994.871 513.338 Q996.398 511 998.458 509.843 Q1000.54 508.686 1003.25 508.686 Q1007.72 508.686 1010.01 511.463 Q1012.3 514.218 1012.3 519.588 Z" fill="#000000" fill-rule="nonzero" fill-opacity="1" /><path clip-path="url(#clip980)" d="M1020.8 499.218 L1025.06 499.218 L1025.06 535.236 L1020.8 535.236 L1020.8 499.218 Z" fill="#000000" fill-rule="nonzero" fill-opacity="1" /><path clip-path="url(#clip980)" d="M1038.09 531.347 L1038.09 545.097 L1033.81 545.097 L1033.81 509.311 L1038.09 509.311 L1038.09 513.246 Q1039.43 510.931 1041.47 509.82 Q1043.53 508.686 1046.37 508.686 Q1051.1 508.686 1054.04 512.436 Q1057 516.186 1057 522.297 Q1057 528.408 1054.04 532.158 Q1051.1 535.908 1046.37 535.908 Q1043.53 535.908 1041.47 534.797 Q1039.43 533.662 1038.09 531.347 M1052.58 522.297 Q1052.58 517.598 1050.63 514.936 Q1048.71 512.25 1045.33 512.25 Q1041.95 512.25 1040.01 514.936 Q1038.09 517.598 1038.09 522.297 Q1038.09 526.996 1040.01 529.681 Q1041.95 532.343 1045.33 532.343 Q1048.71 532.343 1050.63 529.681 Q1052.58 526.996 1052.58 522.297 Z" fill="#000000" fill-rule="nonzero" fill-opacity="1" /><path clip-path="url(#clip980)" d="M1063.39 499.264 L1067.09 499.264 Q1070.56 504.727 1072.28 509.959 Q1074.01 515.19 1074.01 520.352 Q1074.01 525.537 1072.28 530.792 Q1070.56 536.047 1067.09 541.486 L1063.39 541.486 Q1066.47 536.185 1067.97 530.954 Q1069.5 525.699 1069.5 520.352 Q1069.5 515.005 1067.97 509.797 Q1066.47 504.588 1063.39 499.264 Z" fill="#000000" fill-rule="nonzero" fill-opacity="1" /><path clip-path="url(#clip980)" d="M573.322 544.196 L547.722 569.796 L573.322 595.396 L598.922 569.796 L573.322 544.196 Z" fill="#2e8b57" fill-rule="evenodd" fill-opacity="1" stroke="none"/>
<path clip-path="url(#clip980)" d="M727.534 551.104 Q724.432 556.428 722.928 561.637 Q721.423 566.845 721.423 572.192 Q721.423 577.539 722.928 582.794 Q724.455 588.025 727.534 593.326 L723.83 593.326 Q720.358 587.887 718.622 582.632 Q716.909 577.377 716.909 572.192 Q716.909 567.03 718.622 561.799 Q720.335 556.567 723.83 551.104 L727.534 551.104 Z" fill="#000000" fill-rule="nonzero" fill-opacity="1" /><path clip-path="url(#clip980)" d="M747.58 574.044 Q742.418 574.044 740.427 575.225 Q738.437 576.405 738.437 579.252 Q738.437 581.521 739.918 582.863 Q741.423 584.183 743.992 584.183 Q747.534 584.183 749.664 581.683 Q751.816 579.16 751.816 574.993 L751.816 574.044 L747.58 574.044 M756.076 572.285 L756.076 587.076 L751.816 587.076 L751.816 583.141 Q750.358 585.502 748.182 586.637 Q746.006 587.748 742.858 587.748 Q738.877 587.748 736.515 585.525 Q734.177 583.28 734.177 579.53 Q734.177 575.155 737.094 572.933 Q740.034 570.711 745.844 570.711 L751.816 570.711 L751.816 570.294 Q751.816 567.354 749.872 565.757 Q747.951 564.137 744.455 564.137 Q742.233 564.137 740.127 564.669 Q738.02 565.201 736.076 566.266 L736.076 562.331 Q738.414 561.428 740.613 560.989 Q742.812 560.526 744.895 560.526 Q750.52 560.526 753.298 563.442 Q756.076 566.359 756.076 572.285 Z" fill="#000000" fill-rule="nonzero" fill-opacity="1" /><path clip-path="url(#clip980)" d="M781.909 565.086 L781.909 551.058 L786.168 551.058 L786.168 587.076 L781.909 587.076 L781.909 583.187 Q780.566 585.502 778.506 586.637 Q776.469 587.748 773.599 587.748 Q768.9 587.748 765.937 583.998 Q762.997 580.248 762.997 574.137 Q762.997 568.026 765.937 564.276 Q768.9 560.526 773.599 560.526 Q776.469 560.526 778.506 561.66 Q780.566 562.771 781.909 565.086 M767.395 574.137 Q767.395 578.836 769.316 581.521 Q771.261 584.183 774.64 584.183 Q778.02 584.183 779.964 581.521 Q781.909 578.836 781.909 574.137 Q781.909 569.438 779.964 566.776 Q778.02 564.09 774.64 564.09 Q771.261 564.09 769.316 566.776 Q767.395 569.438 767.395 574.137 Z" fill="#000000" fill-rule="nonzero" fill-opacity="1" /><path clip-path="url(#clip980)" d="M816.492 571.428 L816.492 587.076 L812.233 587.076 L812.233 571.567 Q812.233 567.887 810.797 566.058 Q809.362 564.229 806.492 564.229 Q803.043 564.229 801.052 566.428 Q799.061 568.627 799.061 572.424 L799.061 587.076 L794.779 587.076 L794.779 561.151 L799.061 561.151 L799.061 565.178 Q800.589 562.84 802.649 561.683 Q804.733 560.526 807.441 560.526 Q811.909 560.526 814.2 563.303 Q816.492 566.058 816.492 571.428 Z" fill="#000000" fill-rule="nonzero" fill-opacity="1" /><path clip-path="url(#clip980)" d="M824.987 551.058 L829.246 551.058 L829.246 587.076 L824.987 587.076 L824.987 551.058 Z" fill="#000000" fill-rule="nonzero" fill-opacity="1" /><path clip-path="url(#clip980)" d="M842.279 583.187 L842.279 596.937 L837.996 596.937 L837.996 561.151 L842.279 561.151 L842.279 565.086 Q843.621 562.771 845.658 561.66 Q847.719 560.526 850.566 560.526 Q855.288 560.526 858.228 564.276 Q861.191 568.026 861.191 574.137 Q861.191 580.248 858.228 583.998 Q855.288 587.748 850.566 587.748 Q847.719 587.748 845.658 586.637 Q843.621 585.502 842.279 583.187 M856.769 574.137 Q856.769 569.438 854.825 566.776 Q852.904 564.09 849.524 564.09 Q846.144 564.09 844.2 566.776 Q842.279 569.438 842.279 574.137 Q842.279 578.836 844.2 581.521 Q846.144 584.183 849.524 584.183 Q852.904 584.183 854.825 581.521 Q856.769 578.836 856.769 574.137 Z" fill="#000000" fill-rule="nonzero" fill-opacity="1" /><path clip-path="url(#clip980)" d="M869.339 581.197 L874.223 581.197 L874.223 585.178 L870.427 592.586 L867.441 592.586 L869.339 585.178 L869.339 581.197 Z" fill="#000000" fill-rule="nonzero" fill-opacity="1" /><path clip-path="url(#clip980)" d="M918.575 566.127 Q920.172 563.257 922.394 561.891 Q924.616 560.526 927.626 560.526 Q931.676 560.526 933.875 563.373 Q936.075 566.197 936.075 571.428 L936.075 587.076 L931.792 587.076 L931.792 571.567 Q931.792 567.84 930.473 566.035 Q929.153 564.229 926.445 564.229 Q923.135 564.229 921.214 566.428 Q919.292 568.627 919.292 572.424 L919.292 587.076 L915.01 587.076 L915.01 571.567 Q915.01 567.817 913.69 566.035 Q912.371 564.229 909.616 564.229 Q906.352 564.229 904.431 566.451 Q902.51 568.651 902.51 572.424 L902.51 587.076 L898.228 587.076 L898.228 561.151 L902.51 561.151 L902.51 565.178 Q903.968 562.794 906.005 561.66 Q908.042 560.526 910.843 560.526 Q913.667 560.526 915.635 561.961 Q917.626 563.396 918.575 566.127 Z" fill="#000000" fill-rule="nonzero" fill-opacity="1" /><path clip-path="url(#clip980)" d="M956.352 574.044 Q951.19 574.044 949.199 575.225 Q947.209 576.405 947.209 579.252 Q947.209 581.521 948.69 582.863 Q950.195 584.183 952.764 584.183 Q956.306 584.183 958.436 581.683 Q960.588 579.16 960.588 574.993 L960.588 574.044 L956.352 574.044 M964.848 572.285 L964.848 587.076 L960.588 587.076 L960.588 583.141 Q959.13 585.502 956.954 586.637 Q954.778 587.748 951.63 587.748 Q947.649 587.748 945.287 585.525 Q942.95 583.28 942.95 579.53 Q942.95 575.155 945.866 572.933 Q948.806 570.711 954.616 570.711 L960.588 570.711 L960.588 570.294 Q960.588 567.354 958.644 565.757 Q956.723 564.137 953.227 564.137 Q951.005 564.137 948.899 564.669 Q946.792 565.201 944.848 566.266 L944.848 562.331 Q947.186 561.428 949.385 560.989 Q951.584 560.526 953.667 560.526 Q959.292 560.526 962.07 563.442 Q964.848 566.359 964.848 572.285 Z" fill="#000000" fill-rule="nonzero" fill-opacity="1" /><path clip-path="url(#clip980)" d="M990.681 565.086 L990.681 551.058 L994.94 551.058 L994.94 587.076 L990.681 587.076 L990.681 583.187 Q989.338 585.502 987.278 586.637 Q985.241 587.748 982.371 587.748 Q977.672 587.748 974.709 583.998 Q971.769 580.248 971.769 574.137 Q971.769 568.026 974.709 564.276 Q977.672 560.526 982.371 560.526 Q985.241 560.526 987.278 561.66 Q989.338 562.771 990.681 565.086 M976.167 574.137 Q976.167 578.836 978.088 581.521 Q980.033 584.183 983.412 584.183 Q986.792 584.183 988.736 581.521 Q990.681 578.836 990.681 574.137 Q990.681 569.438 988.736 566.776 Q986.792 564.09 983.412 564.09 Q980.033 564.09 978.088 566.776 Q976.167 569.438 976.167 574.137 Z" fill="#000000" fill-rule="nonzero" fill-opacity="1" /><path clip-path="url(#clip980)" d="M1025.26 571.428 L1025.26 587.076 L1021 587.076 L1021 571.567 Q1021 567.887 1019.57 566.058 Q1018.13 564.229 1015.26 564.229 Q1011.81 564.229 1009.82 566.428 Q1007.83 568.627 1007.83 572.424 L1007.83 587.076 L1003.55 587.076 L1003.55 561.151 L1007.83 561.151 L1007.83 565.178 Q1009.36 562.84 1011.42 561.683 Q1013.5 560.526 1016.21 560.526 Q1020.68 560.526 1022.97 563.303 Q1025.26 566.058 1025.26 571.428 Z" fill="#000000" fill-rule="nonzero" fill-opacity="1" /><path clip-path="url(#clip980)" d="M1033.76 551.058 L1038.02 551.058 L1038.02 587.076 L1033.76 587.076 L1033.76 551.058 Z" fill="#000000" fill-rule="nonzero" fill-opacity="1" /><path clip-path="url(#clip980)" d="M1051.05 583.187 L1051.05 596.937 L1046.77 596.937 L1046.77 561.151 L1051.05 561.151 L1051.05 565.086 Q1052.39 562.771 1054.43 561.66 Q1056.49 560.526 1059.34 560.526 Q1064.06 560.526 1067 564.276 Q1069.96 568.026 1069.96 574.137 Q1069.96 580.248 1067 583.998 Q1064.06 587.748 1059.34 587.748 Q1056.49 587.748 1054.43 586.637 Q1052.39 585.502 1051.05 583.187 M1065.54 574.137 Q1065.54 569.438 1063.6 566.776 Q1061.68 564.09 1058.3 564.09 Q1054.92 564.09 1052.97 566.776 Q1051.05 569.438 1051.05 574.137 Q1051.05 578.836 1052.97 581.521 Q1054.92 584.183 1058.3 584.183 Q1061.68 584.183 1063.6 581.521 Q1065.54 578.836 1065.54 574.137 Z" fill="#000000" fill-rule="nonzero" fill-opacity="1" /><path clip-path="url(#clip980)" d="M1076.35 551.104 L1080.06 551.104 Q1083.53 556.567 1085.24 561.799 Q1086.98 567.03 1086.98 572.192 Q1086.98 577.377 1085.24 582.632 Q1083.53 587.887 1080.06 593.326 L1076.35 593.326 Q1079.43 588.025 1080.93 582.794 Q1082.46 577.539 1082.46 572.192 Q1082.46 566.845 1080.93 561.637 Q1079.43 556.428 1076.35 551.104 Z" fill="#000000" fill-rule="nonzero" fill-opacity="1" /><path clip-path="url(#clip980)" d="M573.322 596.036 L547.722 647.236 L598.922 647.236 L573.322 596.036 Z" fill="#ff8c00" fill-rule="evenodd" fill-opacity="1" stroke="none"/>
<path clip-path="url(#clip980)" d="M727.534 602.944 Q724.432 608.268 722.928 613.477 Q721.423 618.685 721.423 624.032 Q721.423 629.379 722.928 634.634 Q724.455 639.865 727.534 645.166 L723.83 645.166 Q720.358 639.727 718.622 634.472 Q716.909 629.217 716.909 624.032 Q716.909 618.87 718.622 613.639 Q720.335 608.407 723.83 602.944 L727.534 602.944 Z" fill="#000000" fill-rule="nonzero" fill-opacity="1" /><path clip-path="url(#clip980)" d="M757.974 624.889 L757.974 626.972 L738.39 626.972 Q738.668 631.37 741.029 633.685 Q743.414 635.977 747.65 635.977 Q750.103 635.977 752.395 635.375 Q754.71 634.773 756.978 633.569 L756.978 637.597 Q754.687 638.569 752.279 639.078 Q749.872 639.588 747.395 639.588 Q741.191 639.588 737.557 635.977 Q733.946 632.365 733.946 626.208 Q733.946 619.842 737.372 616.116 Q740.821 612.366 746.654 612.366 Q751.886 612.366 754.918 615.745 Q757.974 619.102 757.974 624.889 M753.714 623.639 Q753.668 620.143 751.747 618.06 Q749.849 615.977 746.701 615.977 Q743.136 615.977 740.983 617.991 Q738.853 620.004 738.529 623.662 L753.714 623.639 Z" fill="#000000" fill-rule="nonzero" fill-opacity="1" /><path clip-path="url(#clip980)" d="M785.682 612.991 L776.307 625.606 L786.168 638.916 L781.145 638.916 L773.599 628.731 L766.052 638.916 L761.029 638.916 L771.099 625.352 L761.886 612.991 L766.909 612.991 L773.784 622.227 L780.659 612.991 L785.682 612.991 Z" fill="#000000" fill-rule="nonzero" fill-opacity="1" /><path clip-path="url(#clip980)" d="M803.969 625.884 Q798.807 625.884 796.816 627.065 Q794.825 628.245 794.825 631.092 Q794.825 633.361 796.307 634.703 Q797.811 636.023 800.381 636.023 Q803.922 636.023 806.052 633.523 Q808.205 631 808.205 626.833 L808.205 625.884 L803.969 625.884 M812.464 624.125 L812.464 638.916 L808.205 638.916 L808.205 634.981 Q806.747 637.342 804.571 638.477 Q802.395 639.588 799.247 639.588 Q795.265 639.588 792.904 637.365 Q790.566 635.12 790.566 631.37 Q790.566 626.995 793.483 624.773 Q796.423 622.551 802.233 622.551 L808.205 622.551 L808.205 622.134 Q808.205 619.194 806.26 617.597 Q804.339 615.977 800.844 615.977 Q798.622 615.977 796.515 616.509 Q794.409 617.041 792.464 618.106 L792.464 614.171 Q794.802 613.268 797.001 612.829 Q799.2 612.366 801.284 612.366 Q806.909 612.366 809.686 615.282 Q812.464 618.199 812.464 624.125 Z" fill="#000000" fill-rule="nonzero" fill-opacity="1" /><path clip-path="url(#clip980)" d="M822.325 633.037 L827.209 633.037 L827.209 637.018 L823.413 644.426 L820.427 644.426 L822.325 637.018 L822.325 633.037 Z" fill="#000000" fill-rule="nonzero" fill-opacity="1" /><path clip-path="url(#clip980)" d="M871.561 617.967 Q873.158 615.097 875.38 613.731 Q877.603 612.366 880.612 612.366 Q884.663 612.366 886.862 615.213 Q889.061 618.037 889.061 623.268 L889.061 638.916 L884.779 638.916 L884.779 623.407 Q884.779 619.68 883.459 617.875 Q882.14 616.069 879.431 616.069 Q876.121 616.069 874.2 618.268 Q872.279 620.467 872.279 624.264 L872.279 638.916 L867.996 638.916 L867.996 623.407 Q867.996 619.657 866.677 617.875 Q865.357 616.069 862.603 616.069 Q859.339 616.069 857.418 618.291 Q855.496 620.491 855.496 624.264 L855.496 638.916 L851.214 638.916 L851.214 612.991 L855.496 612.991 L855.496 617.018 Q856.955 614.634 858.992 613.5 Q861.029 612.366 863.83 612.366 Q866.654 612.366 868.621 613.801 Q870.612 615.236 871.561 617.967 Z" fill="#000000" fill-rule="nonzero" fill-opacity="1" /><path clip-path="url(#clip980)" d="M909.339 625.884 Q904.177 625.884 902.186 627.065 Q900.195 628.245 900.195 631.092 Q900.195 633.361 901.677 634.703 Q903.181 636.023 905.751 636.023 Q909.292 636.023 911.422 633.523 Q913.575 631 913.575 626.833 L913.575 625.884 L909.339 625.884 M917.834 624.125 L917.834 638.916 L913.575 638.916 L913.575 634.981 Q912.116 637.342 909.94 638.477 Q907.765 639.588 904.616 639.588 Q900.635 639.588 898.274 637.365 Q895.936 635.12 895.936 631.37 Q895.936 626.995 898.853 624.773 Q901.792 622.551 907.602 622.551 L913.575 622.551 L913.575 622.134 Q913.575 619.194 911.63 617.597 Q909.709 615.977 906.214 615.977 Q903.991 615.977 901.885 616.509 Q899.778 617.041 897.834 618.106 L897.834 614.171 Q900.172 613.268 902.371 612.829 Q904.57 612.366 906.653 612.366 Q912.278 612.366 915.056 615.282 Q917.834 618.199 917.834 624.125 Z" fill="#000000" fill-rule="nonzero" fill-opacity="1" /><path clip-path="url(#clip980)" d="M943.667 616.926 L943.667 602.898 L947.926 602.898 L947.926 638.916 L943.667 638.916 L943.667 635.027 Q942.325 637.342 940.264 638.477 Q938.227 639.588 935.357 639.588 Q930.658 639.588 927.695 635.838 Q924.755 632.088 924.755 625.977 Q924.755 619.866 927.695 616.116 Q930.658 612.366 935.357 612.366 Q938.227 612.366 940.264 613.5 Q942.325 614.611 943.667 616.926 M929.153 625.977 Q929.153 630.676 931.075 633.361 Q933.019 636.023 936.399 636.023 Q939.778 636.023 941.723 633.361 Q943.667 630.676 943.667 625.977 Q943.667 621.278 941.723 618.616 Q939.778 615.93 936.399 615.93 Q933.019 615.93 931.075 618.616 Q929.153 621.278 929.153 625.977 Z" fill="#000000" fill-rule="nonzero" fill-opacity="1" /><path clip-path="url(#clip980)" d="M978.25 623.268 L978.25 638.916 L973.991 638.916 L973.991 623.407 Q973.991 619.727 972.556 617.898 Q971.121 616.069 968.25 616.069 Q964.801 616.069 962.811 618.268 Q960.82 620.467 960.82 624.264 L960.82 638.916 L956.537 638.916 L956.537 612.991 L960.82 612.991 L960.82 617.018 Q962.348 614.68 964.408 613.523 Q966.491 612.366 969.199 612.366 Q973.667 612.366 975.959 615.143 Q978.25 617.898 978.25 623.268 Z" fill="#000000" fill-rule="nonzero" fill-opacity="1" /><path clip-path="url(#clip980)" d="M986.746 602.898 L991.005 602.898 L991.005 638.916 L986.746 638.916 L986.746 602.898 Z" fill="#000000" fill-rule="nonzero" fill-opacity="1" /><path clip-path="url(#clip980)" d="M1004.04 635.027 L1004.04 648.777 L999.755 648.777 L999.755 612.991 L1004.04 612.991 L1004.04 616.926 Q1005.38 614.611 1007.42 613.5 Q1009.48 612.366 1012.32 612.366 Q1017.05 612.366 1019.99 616.116 Q1022.95 619.866 1022.95 625.977 Q1022.95 632.088 1019.99 635.838 Q1017.05 639.588 1012.32 639.588 Q1009.48 639.588 1007.42 638.477 Q1005.38 637.342 1004.04 635.027 M1018.53 625.977 Q1018.53 621.278 1016.58 618.616 Q1014.66 615.93 1011.28 615.93 Q1007.9 615.93 1005.96 618.616 Q1004.04 621.278 1004.04 625.977 Q1004.04 630.676 1005.96 633.361 Q1007.9 636.023 1011.28 636.023 Q1014.66 636.023 1016.58 633.361 Q1018.53 630.676 1018.53 625.977 Z" fill="#000000" fill-rule="nonzero" fill-opacity="1" /><path clip-path="url(#clip980)" d="M1029.34 602.944 L1033.04 602.944 Q1036.51 608.407 1038.23 613.639 Q1039.96 618.87 1039.96 624.032 Q1039.96 629.217 1038.23 634.472 Q1036.51 639.727 1033.04 645.166 L1029.34 645.166 Q1032.42 639.865 1033.92 634.634 Q1035.45 629.379 1035.45 624.032 Q1035.45 618.685 1033.92 613.477 Q1032.42 608.268 1029.34 602.944 Z" fill="#000000" fill-rule="nonzero" fill-opacity="1" /></svg>
