<?xml version="1.0" encoding="utf-8"?>
<svg xmlns="http://www.w3.org/2000/svg" xmlns:xlink="http://www.w3.org/1999/xlink" width="900" height="600" viewBox="0 0 3600 2400">
<defs>
  <clipPath id="clip150">
    <rect x="0" y="0" width="3600" height="2400"/>
  </clipPath>
</defs>
<path clip-path="url(#clip150)" d="M0 2400 L3600 2400 L3600 0 L0 0  Z" fill="#ffffff" fill-rule="evenodd" fill-opacity="1"/>
<defs>
  <clipPath id="clip151">
    <rect x="292" y="246" width="3261" height="1911"/>
  </clipPath>
</defs>
<path clip-path="url(#clip150)" d="M328.777 2156.51 L3552.76 2156.51 L3552.76 246.944 L328.777 246.944  Z" fill="#ffffff" fill-rule="evenodd" fill-opacity="1"/>
<defs>
  <clipPath id="clip152">
    <rect x="328" y="246" width="3225" height="1911"/>
  </clipPath>
</defs>
<polyline clip-path="url(#clip152)" style="stroke:#000000; stroke-linecap:round; stroke-linejoin:round; stroke-width:2; stroke-opacity:0.1; fill:none" points="475.322,2156.51 475.322,246.944 "/>
<polyline clip-path="url(#clip152)" style="stroke:#000000; stroke-linecap:round; stroke-linejoin:round; stroke-width:2; stroke-opacity:0.1; fill:none" points="2728.07,2156.51 2728.07,246.944 "/>
<polyline clip-path="url(#clip152)" style="stroke:#000000; stroke-linecap:round; stroke-linejoin:round; stroke-width:2; stroke-opacity:0.1; fill:none" points="3406.21,2156.51 3406.21,246.944 "/>
<polyline clip-path="url(#clip152)" style="stroke:#000000; stroke-linecap:round; stroke-linejoin:round; stroke-width:2; stroke-opacity:0.1; fill:none" points="328.777,2144.3 3552.76,2144.3 "/>
<polyline clip-path="url(#clip152)" style="stroke:#000000; stroke-linecap:round; stroke-linejoin:round; stroke-width:2; stroke-opacity:0.1; fill:none" points="328.777,1467.82 3552.76,1467.82 "/>
<polyline clip-path="url(#clip152)" style="stroke:#000000; stroke-linecap:round; stroke-linejoin:round; stroke-width:2; stroke-opacity:0.1; fill:none" points="328.777,791.338 3552.76,791.338 "/>
<polyline clip-path="url(#clip150)" style="stroke:#000000; stroke-linecap:round; stroke-linejoin:round; stroke-width:4; stroke-opacity:1; fill:none" points="328.777,2156.51 3552.76,2156.51 "/>
<polyline clip-path="url(#clip150)" style="stroke:#000000; stroke-linecap:round; stroke-linejoin:round; stroke-width:4; stroke-opacity:1; fill:none" points="475.322,2156.51 475.322,2137.61 "/>
<polyline clip-path="url(#clip150)" style="stroke:#000000; stroke-linecap:round; stroke-linejoin:round; stroke-width:4; stroke-opacity:1; fill:none" points="2728.07,2156.51 2728.07,2137.61 "/>
<polyline clip-path="url(#clip150)" style="stroke:#000000; stroke-linecap:round; stroke-linejoin:round; stroke-width:4; stroke-opacity:1; fill:none" points="3406.21,2156.51 3406.21,2137.61 "/>
<path clip-path="url(#clip150)" d="M419.848 2224.57 L427.487 2224.57 L427.487 2198.21 L419.176 2199.87 L419.176 2195.61 L427.44 2193.95 L432.116 2193.95 L432.116 2224.57 L439.755 2224.57 L439.755 2228.51 L419.848 2228.51 L419.848 2224.57 Z" fill="#000000" fill-rule="nonzero" fill-opacity="1" /><path clip-path="url(#clip150)" d="M459.199 2197.03 Q455.588 2197.03 453.76 2200.59 Q451.954 2204.13 451.954 2211.26 Q451.954 2218.37 453.76 2221.93 Q455.588 2225.48 459.199 2225.48 Q462.834 2225.48 464.639 2221.93 Q466.468 2218.37 466.468 2211.26 Q466.468 2204.13 464.639 2200.59 Q462.834 2197.03 459.199 2197.03 M459.199 2193.32 Q465.01 2193.32 468.065 2197.93 Q471.144 2202.51 471.144 2211.26 Q471.144 2219.99 468.065 2224.6 Q465.01 2229.18 459.199 2229.18 Q453.389 2229.18 450.311 2224.6 Q447.255 2219.99 447.255 2211.26 Q447.255 2202.51 450.311 2197.93 Q453.389 2193.32 459.199 2193.32 Z" fill="#000000" fill-rule="nonzero" fill-opacity="1" /><path clip-path="url(#clip150)" d="M489.361 2197.03 Q485.75 2197.03 483.921 2200.59 Q482.116 2204.13 482.116 2211.26 Q482.116 2218.37 483.921 2221.93 Q485.75 2225.48 489.361 2225.48 Q492.995 2225.48 494.801 2221.93 Q496.63 2218.37 496.63 2211.26 Q496.63 2204.13 494.801 2200.59 Q492.995 2197.03 489.361 2197.03 M489.361 2193.32 Q495.171 2193.32 498.227 2197.93 Q501.306 2202.51 501.306 2211.26 Q501.306 2219.99 498.227 2224.6 Q495.171 2229.18 489.361 2229.18 Q483.551 2229.18 480.472 2224.6 Q477.417 2219.99 477.417 2211.26 Q477.417 2202.51 480.472 2197.93 Q483.551 2193.32 489.361 2193.32 Z" fill="#000000" fill-rule="nonzero" fill-opacity="1" /><path clip-path="url(#clip150)" d="M519.523 2197.03 Q515.912 2197.03 514.083 2200.59 Q512.278 2204.13 512.278 2211.26 Q512.278 2218.37 514.083 2221.93 Q515.912 2225.48 519.523 2225.48 Q523.157 2225.48 524.963 2221.93 Q526.792 2218.37 526.792 2211.26 Q526.792 2204.13 524.963 2200.59 Q523.157 2197.03 519.523 2197.03 M519.523 2193.32 Q525.333 2193.32 528.389 2197.93 Q531.467 2202.51 531.467 2211.26 Q531.467 2219.99 528.389 2224.6 Q525.333 2229.18 519.523 2229.18 Q513.713 2229.18 510.634 2224.6 Q507.579 2219.99 507.579 2211.26 Q507.579 2202.51 510.634 2197.93 Q513.713 2193.32 519.523 2193.32 Z" fill="#000000" fill-rule="nonzero" fill-opacity="1" /><path clip-path="url(#clip150)" d="M2657.51 2224.57 L2665.15 2224.57 L2665.15 2198.21 L2656.84 2199.87 L2656.84 2195.61 L2665.1 2193.95 L2669.78 2193.95 L2669.78 2224.57 L2677.42 2224.57 L2677.42 2228.51 L2657.51 2228.51 L2657.51 2224.57 Z" fill="#000000" fill-rule="nonzero" fill-opacity="1" /><path clip-path="url(#clip150)" d="M2696.86 2197.03 Q2693.25 2197.03 2691.42 2200.59 Q2689.62 2204.13 2689.62 2211.26 Q2689.62 2218.37 2691.42 2221.93 Q2693.25 2225.48 2696.86 2225.48 Q2700.5 2225.48 2702.3 2221.93 Q2704.13 2218.37 2704.13 2211.26 Q2704.13 2204.13 2702.3 2200.59 Q2700.5 2197.03 2696.86 2197.03 M2696.86 2193.32 Q2702.67 2193.32 2705.73 2197.93 Q2708.81 2202.51 2708.81 2211.26 Q2708.81 2219.99 2705.73 2224.6 Q2702.67 2229.18 2696.86 2229.18 Q2691.05 2229.18 2687.98 2224.6 Q2684.92 2219.99 2684.92 2211.26 Q2684.92 2202.51 2687.98 2197.93 Q2691.05 2193.32 2696.86 2193.32 Z" fill="#000000" fill-rule="nonzero" fill-opacity="1" /><path clip-path="url(#clip150)" d="M2727.03 2197.03 Q2723.41 2197.03 2721.59 2200.59 Q2719.78 2204.13 2719.78 2211.26 Q2719.78 2218.37 2721.59 2221.93 Q2723.41 2225.48 2727.03 2225.48 Q2730.66 2225.48 2732.47 2221.93 Q2734.29 2218.37 2734.29 2211.26 Q2734.29 2204.13 2732.47 2200.59 Q2730.66 2197.03 2727.03 2197.03 M2727.03 2193.32 Q2732.84 2193.32 2735.89 2197.93 Q2738.97 2202.51 2738.97 2211.26 Q2738.97 2219.99 2735.89 2224.6 Q2732.84 2229.18 2727.03 2229.18 Q2721.22 2229.18 2718.14 2224.6 Q2715.08 2219.99 2715.08 2211.26 Q2715.08 2202.51 2718.14 2197.93 Q2721.22 2193.32 2727.03 2193.32 Z" fill="#000000" fill-rule="nonzero" fill-opacity="1" /><path clip-path="url(#clip150)" d="M2757.19 2197.03 Q2753.58 2197.03 2751.75 2200.59 Q2749.94 2204.13 2749.94 2211.26 Q2749.94 2218.37 2751.75 2221.93 Q2753.58 2225.48 2757.19 2225.48 Q2760.82 2225.48 2762.63 2221.93 Q2764.46 2218.37 2764.46 2211.26 Q2764.46 2204.13 2762.63 2200.59 Q2760.82 2197.03 2757.19 2197.03 M2757.19 2193.32 Q2763 2193.32 2766.05 2197.93 Q2769.13 2202.51 2769.13 2211.26 Q2769.13 2219.99 2766.05 2224.6 Q2763 2229.18 2757.19 2229.18 Q2751.38 2229.18 2748.3 2224.6 Q2745.24 2219.99 2745.24 2211.26 Q2745.24 2202.51 2748.3 2197.93 Q2751.38 2193.32 2757.19 2193.32 Z" fill="#000000" fill-rule="nonzero" fill-opacity="1" /><path clip-path="url(#clip150)" d="M2787.35 2197.03 Q2783.74 2197.03 2781.91 2200.59 Q2780.1 2204.13 2780.1 2211.26 Q2780.1 2218.37 2781.91 2221.93 Q2783.74 2225.48 2787.35 2225.48 Q2790.98 2225.48 2792.79 2221.93 Q2794.62 2218.37 2794.62 2211.26 Q2794.62 2204.13 2792.79 2200.59 Q2790.98 2197.03 2787.35 2197.03 M2787.35 2193.32 Q2793.16 2193.32 2796.22 2197.93 Q2799.29 2202.51 2799.29 2211.26 Q2799.29 2219.99 2796.22 2224.6 Q2793.16 2229.18 2787.35 2229.18 Q2781.54 2229.18 2778.46 2224.6 Q2775.41 2219.99 2775.41 2211.26 Q2775.41 2202.51 2778.46 2197.93 Q2781.54 2193.32 2787.35 2193.32 Z" fill="#000000" fill-rule="nonzero" fill-opacity="1" /><path clip-path="url(#clip150)" d="M3339.74 2224.57 L3356.06 2224.57 L3356.06 2228.51 L3334.12 2228.51 L3334.12 2224.57 Q3336.78 2221.82 3341.36 2217.19 Q3345.97 2212.54 3347.15 2211.19 Q3349.39 2208.67 3350.27 2206.93 Q3351.18 2205.17 3351.18 2203.48 Q3351.18 2200.73 3349.23 2198.99 Q3347.31 2197.26 3344.21 2197.26 Q3342.01 2197.26 3339.56 2198.02 Q3337.13 2198.79 3334.35 2200.34 L3334.35 2195.61 Q3337.17 2194.48 3339.63 2193.9 Q3342.08 2193.32 3344.12 2193.32 Q3349.49 2193.32 3352.68 2196.01 Q3355.88 2198.69 3355.88 2203.18 Q3355.88 2205.31 3355.07 2207.23 Q3354.28 2209.13 3352.17 2211.73 Q3351.59 2212.4 3348.49 2215.61 Q3345.39 2218.81 3339.74 2224.57 Z" fill="#000000" fill-rule="nonzero" fill-opacity="1" /><path clip-path="url(#clip150)" d="M3375.88 2197.03 Q3372.26 2197.03 3370.44 2200.59 Q3368.63 2204.13 3368.63 2211.26 Q3368.63 2218.37 3370.44 2221.93 Q3372.26 2225.48 3375.88 2225.48 Q3379.51 2225.48 3381.32 2221.93 Q3383.14 2218.37 3383.14 2211.26 Q3383.14 2204.13 3381.32 2200.59 Q3379.51 2197.03 3375.88 2197.03 M3375.88 2193.32 Q3381.69 2193.32 3384.74 2197.93 Q3387.82 2202.51 3387.82 2211.26 Q3387.82 2219.99 3384.74 2224.6 Q3381.69 2229.18 3375.88 2229.18 Q3370.07 2229.18 3366.99 2224.6 Q3363.93 2219.99 3363.93 2211.26 Q3363.93 2202.51 3366.99 2197.93 Q3370.07 2193.32 3375.88 2193.32 Z" fill="#000000" fill-rule="nonzero" fill-opacity="1" /><path clip-path="url(#clip150)" d="M3406.04 2197.03 Q3402.43 2197.03 3400.6 2200.59 Q3398.79 2204.13 3398.79 2211.26 Q3398.79 2218.37 3400.6 2221.93 Q3402.43 2225.48 3406.04 2225.48 Q3409.67 2225.48 3411.48 2221.93 Q3413.31 2218.37 3413.31 2211.26 Q3413.31 2204.13 3411.48 2200.59 Q3409.67 2197.03 3406.04 2197.03 M3406.04 2193.32 Q3411.85 2193.32 3414.9 2197.93 Q3417.98 2202.51 3417.98 2211.26 Q3417.98 2219.99 3414.9 2224.6 Q3411.85 2229.18 3406.04 2229.18 Q3400.23 2229.18 3397.15 2224.6 Q3394.09 2219.99 3394.09 2211.26 Q3394.09 2202.51 3397.15 2197.93 Q3400.23 2193.32 3406.04 2193.32 Z" fill="#000000" fill-rule="nonzero" fill-opacity="1" /><path clip-path="url(#clip150)" d="M3436.2 2197.03 Q3432.59 2197.03 3430.76 2200.59 Q3428.95 2204.13 3428.95 2211.26 Q3428.95 2218.37 3430.76 2221.93 Q3432.59 2225.48 3436.2 2225.48 Q3439.83 2225.48 3441.64 2221.93 Q3443.47 2218.37 3443.47 2211.26 Q3443.47 2204.13 3441.64 2200.59 Q3439.83 2197.03 3436.2 2197.03 M3436.2 2193.32 Q3442.01 2193.32 3445.07 2197.93 Q3448.14 2202.51 3448.14 2211.26 Q3448.14 2219.99 3445.07 2224.6 Q3442.01 2229.18 3436.2 2229.18 Q3430.39 2229.18 3427.31 2224.6 Q3424.26 2219.99 3424.26 2211.26 Q3424.26 2202.51 3427.31 2197.93 Q3430.39 2193.32 3436.2 2193.32 Z" fill="#000000" fill-rule="nonzero" fill-opacity="1" /><path clip-path="url(#clip150)" d="M3466.36 2197.03 Q3462.75 2197.03 3460.92 2200.59 Q3459.12 2204.13 3459.12 2211.26 Q3459.12 2218.37 3460.92 2221.93 Q3462.75 2225.48 3466.36 2225.48 Q3470 2225.48 3471.8 2221.93 Q3473.63 2218.37 3473.63 2211.26 Q3473.63 2204.13 3471.8 2200.59 Q3470 2197.03 3466.36 2197.03 M3466.36 2193.32 Q3472.17 2193.32 3475.23 2197.93 Q3478.31 2202.51 3478.31 2211.26 Q3478.31 2219.99 3475.23 2224.6 Q3472.17 2229.18 3466.36 2229.18 Q3460.55 2229.18 3457.47 2224.6 Q3454.42 2219.99 3454.42 2211.26 Q3454.42 2202.51 3457.47 2197.93 Q3460.55 2193.32 3466.36 2193.32 Z" fill="#000000" fill-rule="nonzero" fill-opacity="1" /><path clip-path="url(#clip150)" d="M1816.65 2308.02 L1816.65 2296.42 L1807.1 2296.42 L1807.1 2291.62 L1822.44 2291.62 L1822.44 2310.17 Q1819.05 2312.57 1814.97 2313.81 Q1810.89 2315.03 1806.26 2315.03 Q1796.13 2315.03 1790.41 2309.12 Q1784.71 2303.19 1784.71 2292.63 Q1784.71 2282.04 1790.41 2276.14 Q1796.13 2270.21 1806.26 2270.21 Q1810.49 2270.21 1814.28 2271.25 Q1818.1 2272.29 1821.31 2274.32 L1821.31 2280.54 Q1818.07 2277.79 1814.42 2276.4 Q1810.78 2275.01 1806.75 2275.01 Q1798.83 2275.01 1794.83 2279.44 Q1790.87 2283.86 1790.87 2292.63 Q1790.87 2301.37 1794.83 2305.8 Q1798.83 2310.22 1806.75 2310.22 Q1809.85 2310.22 1812.28 2309.7 Q1814.71 2309.15 1816.65 2308.02 Z" fill="#000000" fill-rule="nonzero" fill-opacity="1" /><path clip-path="url(#clip150)" d="M1851.66 2286.76 Q1850.76 2286.24 1849.69 2286 Q1848.65 2285.74 1847.38 2285.74 Q1842.87 2285.74 1840.43 2288.7 Q1838.03 2291.62 1838.03 2297.12 L1838.03 2314.19 L1832.68 2314.19 L1832.68 2281.78 L1838.03 2281.78 L1838.03 2286.82 Q1839.71 2283.86 1842.4 2282.45 Q1845.09 2281 1848.94 2281 Q1849.49 2281 1850.16 2281.09 Q1850.82 2281.14 1851.63 2281.29 L1851.66 2286.76 Z" fill="#000000" fill-rule="nonzero" fill-opacity="1" /><path clip-path="url(#clip150)" d="M1857.25 2281.78 L1862.57 2281.78 L1862.57 2314.19 L1857.25 2314.19 L1857.25 2281.78 M1857.25 2269.16 L1862.57 2269.16 L1862.57 2275.91 L1857.25 2275.91 L1857.25 2269.16 Z" fill="#000000" fill-rule="nonzero" fill-opacity="1" /><path clip-path="url(#clip150)" d="M1895.03 2286.7 L1895.03 2269.16 L1900.36 2269.16 L1900.36 2314.19 L1895.03 2314.19 L1895.03 2309.33 Q1893.36 2312.22 1890.78 2313.64 Q1888.24 2315.03 1884.65 2315.03 Q1878.77 2315.03 1875.07 2310.34 Q1871.39 2305.65 1871.39 2298.01 Q1871.39 2290.37 1875.07 2285.69 Q1878.77 2281 1884.65 2281 Q1888.24 2281 1890.78 2282.42 Q1893.36 2283.81 1895.03 2286.7 M1876.89 2298.01 Q1876.89 2303.89 1879.29 2307.24 Q1881.72 2310.57 1885.95 2310.57 Q1890.17 2310.57 1892.6 2307.24 Q1895.03 2303.89 1895.03 2298.01 Q1895.03 2292.14 1892.6 2288.81 Q1890.17 2285.46 1885.95 2285.46 Q1881.72 2285.46 1879.29 2288.81 Q1876.89 2292.14 1876.89 2298.01 Z" fill="#000000" fill-rule="nonzero" fill-opacity="1" /><path clip-path="url(#clip150)" d="M1950.82 2282.74 L1950.82 2287.77 Q1948.56 2286.61 1946.13 2286.03 Q1943.7 2285.46 1941.1 2285.46 Q1937.14 2285.46 1935.14 2286.67 Q1933.17 2287.89 1933.17 2290.32 Q1933.17 2292.17 1934.59 2293.24 Q1936.01 2294.28 1940.29 2295.24 L1942.11 2295.64 Q1947.78 2296.86 1950.16 2299.08 Q1952.56 2301.28 1952.56 2305.25 Q1952.56 2309.76 1948.97 2312.39 Q1945.41 2315.03 1939.16 2315.03 Q1936.56 2315.03 1933.72 2314.51 Q1930.91 2314.01 1927.79 2313 L1927.79 2307.5 Q1930.74 2309.04 1933.61 2309.82 Q1936.47 2310.57 1939.28 2310.57 Q1943.04 2310.57 1945.06 2309.3 Q1947.09 2308 1947.09 2305.65 Q1947.09 2303.48 1945.61 2302.32 Q1944.17 2301.17 1939.22 2300.1 L1937.37 2299.66 Q1932.42 2298.62 1930.22 2296.48 Q1928.02 2294.31 1928.02 2290.55 Q1928.02 2285.98 1931.26 2283.49 Q1934.5 2281 1940.46 2281 Q1943.41 2281 1946.02 2281.43 Q1948.62 2281.87 1950.82 2282.74 Z" fill="#000000" fill-rule="nonzero" fill-opacity="1" /><path clip-path="url(#clip150)" d="M1961.04 2281.78 L1966.36 2281.78 L1966.36 2314.19 L1961.04 2314.19 L1961.04 2281.78 M1961.04 2269.16 L1966.36 2269.16 L1966.36 2275.91 L1961.04 2275.91 L1961.04 2269.16 Z" fill="#000000" fill-rule="nonzero" fill-opacity="1" /><path clip-path="url(#clip150)" d="M1975.18 2281.78 L2000.47 2281.78 L2000.47 2286.64 L1980.45 2309.93 L2000.47 2309.93 L2000.47 2314.19 L1974.46 2314.19 L1974.46 2309.33 L1994.48 2286.03 L1975.18 2286.03 L1975.18 2281.78 Z" fill="#000000" fill-rule="nonzero" fill-opacity="1" /><path clip-path="url(#clip150)" d="M2036.32 2296.65 L2036.32 2299.26 L2011.85 2299.26 Q2012.19 2304.75 2015.14 2307.65 Q2018.12 2310.51 2023.42 2310.51 Q2026.49 2310.51 2029.35 2309.76 Q2032.24 2309.01 2035.08 2307.5 L2035.08 2312.54 Q2032.22 2313.75 2029.21 2314.39 Q2026.2 2315.03 2023.1 2315.03 Q2015.35 2315.03 2010.8 2310.51 Q2006.29 2306 2006.29 2298.3 Q2006.29 2290.35 2010.57 2285.69 Q2014.88 2281 2022.18 2281 Q2028.71 2281 2032.51 2285.22 Q2036.32 2289.42 2036.32 2296.65 M2031 2295.09 Q2030.94 2290.72 2028.54 2288.12 Q2026.17 2285.51 2022.23 2285.51 Q2017.78 2285.51 2015.09 2288.03 Q2012.42 2290.55 2012.02 2295.12 L2031 2295.09 Z" fill="#000000" fill-rule="nonzero" fill-opacity="1" /><path clip-path="url(#clip150)" d="M2064.13 2270.99 L2072 2270.99 L2091.16 2307.13 L2091.16 2270.99 L2096.83 2270.99 L2096.83 2314.19 L2088.96 2314.19 L2069.8 2278.05 L2069.8 2314.19 L2064.13 2314.19 L2064.13 2270.99 Z" fill="#000000" fill-rule="nonzero" fill-opacity="1" /><polyline clip-path="url(#clip150)" style="stroke:#000000; stroke-linecap:round; stroke-linejoin:round; stroke-width:4; stroke-opacity:1; fill:none" points="328.777,2156.51 328.777,246.944 "/>
<polyline clip-path="url(#clip150)" style="stroke:#000000; stroke-linecap:round; stroke-linejoin:round; stroke-width:4; stroke-opacity:1; fill:none" points="328.777,2144.3 347.675,2144.3 "/>
<polyline clip-path="url(#clip150)" style="stroke:#000000; stroke-linecap:round; stroke-linejoin:round; stroke-width:4; stroke-opacity:1; fill:none" points="328.777,1467.82 347.675,1467.82 "/>
<polyline clip-path="url(#clip150)" style="stroke:#000000; stroke-linecap:round; stroke-linejoin:round; stroke-width:4; stroke-opacity:1; fill:none" points="328.777,791.338 347.675,791.338 "/>
<path clip-path="url(#clip150)" d="M169.014 2164.09 L176.653 2164.09 L176.653 2137.73 L168.343 2139.4 L168.343 2135.14 L176.607 2133.47 L181.283 2133.47 L181.283 2164.09 L188.921 2164.09 L188.921 2168.03 L169.014 2168.03 L169.014 2164.09 Z" fill="#000000" fill-rule="nonzero" fill-opacity="1" /><path clip-path="url(#clip150)" d="M208.366 2136.55 Q204.755 2136.55 202.926 2140.11 Q201.12 2143.65 201.12 2150.78 Q201.12 2157.89 202.926 2161.46 Q204.755 2165 208.366 2165 Q212 2165 213.806 2161.46 Q215.634 2157.89 215.634 2150.78 Q215.634 2143.65 213.806 2140.11 Q212 2136.55 208.366 2136.55 M208.366 2132.84 Q214.176 2132.84 217.231 2137.45 Q220.31 2142.03 220.31 2150.78 Q220.31 2159.51 217.231 2164.12 Q214.176 2168.7 208.366 2168.7 Q202.556 2168.7 199.477 2164.12 Q196.421 2159.51 196.421 2150.78 Q196.421 2142.03 199.477 2137.45 Q202.556 2132.84 208.366 2132.84 Z" fill="#000000" fill-rule="nonzero" fill-opacity="1" /><path clip-path="url(#clip150)" d="M220.856 2137.42 L227.062 2137.42 L227.062 2116 L220.31 2117.35 L220.31 2113.89 L227.025 2112.54 L230.824 2112.54 L230.824 2137.42 L237.03 2137.42 L237.03 2140.62 L220.856 2140.62 L220.856 2137.42 Z" fill="#000000" fill-rule="nonzero" fill-opacity="1" /><path clip-path="url(#clip150)" d="M244.704 2135.84 L248.672 2135.84 L248.672 2140.62 L244.704 2140.62 L244.704 2135.84 Z" fill="#000000" fill-rule="nonzero" fill-opacity="1" /><path clip-path="url(#clip150)" d="M265.073 2115.04 Q262.139 2115.04 260.653 2117.94 Q259.186 2120.81 259.186 2126.61 Q259.186 2132.38 260.653 2135.28 Q262.139 2138.16 265.073 2138.16 Q268.025 2138.16 269.492 2135.28 Q270.978 2132.38 270.978 2126.61 Q270.978 2120.81 269.492 2117.94 Q268.025 2115.04 265.073 2115.04 M265.073 2112.03 Q269.793 2112.03 272.276 2115.77 Q274.777 2119.5 274.777 2126.61 Q274.777 2133.7 272.276 2137.44 Q269.793 2141.16 265.073 2141.16 Q260.352 2141.16 257.85 2137.44 Q255.368 2133.7 255.368 2126.61 Q255.368 2119.5 257.85 2115.77 Q260.352 2112.03 265.073 2112.03 Z" fill="#000000" fill-rule="nonzero" fill-opacity="1" /><path clip-path="url(#clip150)" d="M169.823 1487.61 L177.462 1487.61 L177.462 1461.25 L169.152 1462.91 L169.152 1458.65 L177.415 1456.99 L182.091 1456.99 L182.091 1487.61 L189.73 1487.61 L189.73 1491.55 L169.823 1491.55 L169.823 1487.61 Z" fill="#000000" fill-rule="nonzero" fill-opacity="1" /><path clip-path="url(#clip150)" d="M209.175 1460.07 Q205.563 1460.07 203.735 1463.63 Q201.929 1467.17 201.929 1474.3 Q201.929 1481.41 203.735 1484.97 Q205.563 1488.52 209.175 1488.52 Q212.809 1488.52 214.614 1484.97 Q216.443 1481.41 216.443 1474.3 Q216.443 1467.17 214.614 1463.63 Q212.809 1460.07 209.175 1460.07 M209.175 1456.36 Q214.985 1456.36 218.04 1460.97 Q221.119 1465.55 221.119 1474.3 Q221.119 1483.03 218.04 1487.64 Q214.985 1492.22 209.175 1492.22 Q203.364 1492.22 200.286 1487.64 Q197.23 1483.03 197.23 1474.3 Q197.23 1465.55 200.286 1460.97 Q203.364 1456.36 209.175 1456.36 Z" fill="#000000" fill-rule="nonzero" fill-opacity="1" /><path clip-path="url(#clip150)" d="M221.664 1460.94 L227.871 1460.94 L227.871 1439.52 L221.119 1440.87 L221.119 1437.41 L227.833 1436.06 L231.632 1436.06 L231.632 1460.94 L237.839 1460.94 L237.839 1464.14 L221.664 1464.14 L221.664 1460.94 Z" fill="#000000" fill-rule="nonzero" fill-opacity="1" /><path clip-path="url(#clip150)" d="M245.513 1459.36 L249.481 1459.36 L249.481 1464.14 L245.513 1464.14 L245.513 1459.36 Z" fill="#000000" fill-rule="nonzero" fill-opacity="1" /><path clip-path="url(#clip150)" d="M257.794 1436.06 L272.709 1436.06 L272.709 1439.25 L261.274 1439.25 L261.274 1446.14 Q262.101 1445.86 262.929 1445.72 Q263.756 1445.57 264.584 1445.57 Q269.286 1445.57 272.032 1448.15 Q274.777 1450.73 274.777 1455.13 Q274.777 1459.66 271.956 1462.18 Q269.135 1464.68 264.001 1464.68 Q262.233 1464.68 260.39 1464.38 Q258.565 1464.08 256.609 1463.48 L256.609 1459.66 Q258.302 1460.58 260.107 1461.03 Q261.913 1461.49 263.925 1461.49 Q267.179 1461.49 269.079 1459.77 Q270.978 1458.06 270.978 1455.13 Q270.978 1452.19 269.079 1450.48 Q267.179 1448.77 263.925 1448.77 Q262.402 1448.77 260.879 1449.11 Q259.374 1449.45 257.794 1450.16 L257.794 1436.06 Z" fill="#000000" fill-rule="nonzero" fill-opacity="1" /><path clip-path="url(#clip150)" d="M167.604 811.131 L175.242 811.131 L175.242 784.765 L166.932 786.432 L166.932 782.173 L175.196 780.506 L179.872 780.506 L179.872 811.131 L187.511 811.131 L187.511 815.066 L167.604 815.066 L167.604 811.131 Z" fill="#000000" fill-rule="nonzero" fill-opacity="1" /><path clip-path="url(#clip150)" d="M206.955 783.585 Q203.344 783.585 201.515 787.149 Q199.71 790.691 199.71 797.821 Q199.71 804.927 201.515 808.492 Q203.344 812.034 206.955 812.034 Q210.589 812.034 212.395 808.492 Q214.224 804.927 214.224 797.821 Q214.224 790.691 212.395 787.149 Q210.589 783.585 206.955 783.585 M206.955 779.881 Q212.765 779.881 215.821 784.487 Q218.9 789.071 218.9 797.821 Q218.9 806.548 215.821 811.154 Q212.765 815.737 206.955 815.737 Q201.145 815.737 198.066 811.154 Q195.011 806.548 195.011 797.821 Q195.011 789.071 198.066 784.487 Q201.145 779.881 206.955 779.881 Z" fill="#000000" fill-rule="nonzero" fill-opacity="1" /><path clip-path="url(#clip150)" d="M223.47 784.458 L236.729 784.458 L236.729 787.656 L218.9 787.656 L218.9 784.458 Q221.062 782.22 224.786 778.459 Q228.529 774.678 229.488 773.587 Q231.313 771.537 232.027 770.127 Q232.761 768.697 232.761 767.324 Q232.761 765.086 231.181 763.676 Q229.62 762.265 227.1 762.265 Q225.313 762.265 223.319 762.886 Q221.345 763.506 219.088 764.767 L219.088 760.93 Q221.382 760.008 223.376 759.538 Q225.369 759.068 227.025 759.068 Q231.388 759.068 233.983 761.249 Q236.579 763.431 236.579 767.08 Q236.579 768.81 235.921 770.371 Q235.281 771.913 233.57 774.02 Q233.099 774.565 230.579 777.18 Q228.059 779.775 223.47 784.458 Z" fill="#000000" fill-rule="nonzero" fill-opacity="1" /><path clip-path="url(#clip150)" d="M244.704 782.878 L248.672 782.878 L248.672 787.656 L244.704 787.656 L244.704 782.878 Z" fill="#000000" fill-rule="nonzero" fill-opacity="1" /><path clip-path="url(#clip150)" d="M265.073 762.077 Q262.139 762.077 260.653 764.973 Q259.186 767.851 259.186 773.644 Q259.186 779.418 260.653 782.314 Q262.139 785.192 265.073 785.192 Q268.025 785.192 269.492 782.314 Q270.978 779.418 270.978 773.644 Q270.978 767.851 269.492 764.973 Q268.025 762.077 265.073 762.077 M265.073 759.068 Q269.793 759.068 272.276 762.811 Q274.777 766.534 274.777 773.644 Q274.777 780.734 272.276 784.477 Q269.793 788.201 265.073 788.201 Q260.352 788.201 257.85 784.477 Q255.368 780.734 255.368 773.644 Q255.368 766.534 257.85 762.811 Q260.352 759.068 265.073 759.068 Z" fill="#000000" fill-rule="nonzero" fill-opacity="1" /><path clip-path="url(#clip150)" d="M58.1901 1374.69 L63.8903 1374.69 Q62.2989 1378.01 61.5176 1380.96 Q60.7364 1383.92 60.7364 1386.66 Q60.7364 1391.44 62.5882 1394.04 Q64.4401 1396.62 67.8544 1396.62 Q70.719 1396.62 72.1947 1394.91 Q73.6414 1393.17 74.5384 1388.37 L75.2618 1384.84 Q76.506 1378.3 79.6599 1375.21 Q82.7849 1372.08 88.0511 1372.08 Q94.33 1372.08 97.5707 1376.31 Q100.811 1380.5 100.811 1388.63 Q100.811 1391.7 100.117 1395.17 Q99.4225 1398.61 98.0626 1402.32 L92.0441 1402.32 Q94.0406 1398.76 95.0533 1395.34 Q96.0661 1391.93 96.0661 1388.63 Q96.0661 1383.63 94.0985 1380.91 Q92.1309 1378.19 88.4851 1378.19 Q85.3022 1378.19 83.5083 1380.15 Q81.7143 1382.09 80.8173 1386.55 L80.1229 1390.11 Q78.8208 1396.65 76.043 1399.57 Q73.2653 1402.49 68.3174 1402.49 Q62.5882 1402.49 59.2896 1398.47 Q55.991 1394.42 55.991 1387.33 Q55.991 1384.29 56.5408 1381.14 Q57.0906 1377.98 58.1901 1374.69 Z" fill="#000000" fill-rule="nonzero" fill-opacity="1" /><path clip-path="url(#clip150)" d="M71.2977 1350.64 Q71.2977 1354.92 74.6541 1357.41 Q77.9817 1359.9 83.7976 1359.9 Q89.6135 1359.9 92.97 1357.44 Q96.2975 1354.95 96.2975 1350.64 Q96.2975 1346.39 92.9411 1343.9 Q89.5846 1341.41 83.7976 1341.41 Q78.0395 1341.41 74.6831 1343.9 Q71.2977 1346.39 71.2977 1350.64 M66.7838 1350.64 Q66.7838 1343.7 71.2977 1339.73 Q75.8115 1335.77 83.7976 1335.77 Q91.7547 1335.77 96.2975 1339.73 Q100.811 1343.7 100.811 1350.64 Q100.811 1357.61 96.2975 1361.58 Q91.7547 1365.51 83.7976 1365.51 Q75.8115 1365.51 71.2977 1361.58 Q66.7838 1357.61 66.7838 1350.64 Z" fill="#000000" fill-rule="nonzero" fill-opacity="1" /><path clip-path="url(#clip150)" d="M54.9494 1326.94 L54.9494 1321.62 L99.9723 1321.62 L99.9723 1326.94 L54.9494 1326.94 Z" fill="#000000" fill-rule="nonzero" fill-opacity="1" /><path clip-path="url(#clip150)" d="M67.565 1314.3 L67.565 1308.66 L94.764 1298.53 L67.565 1288.4 L67.565 1282.76 L99.9723 1294.91 L99.9723 1302.15 L67.565 1314.3 Z" fill="#000000" fill-rule="nonzero" fill-opacity="1" /><path clip-path="url(#clip150)" d="M82.4377 1247.69 L85.0418 1247.69 L85.0418 1272.17 Q90.5395 1271.82 93.433 1268.87 Q96.2975 1265.89 96.2975 1260.59 Q96.2975 1257.53 95.5452 1254.66 Q94.7929 1251.77 93.2883 1248.93 L98.323 1248.93 Q99.5383 1251.8 100.175 1254.81 Q100.811 1257.82 100.811 1260.91 Q100.811 1268.67 96.2975 1273.21 Q91.7837 1277.72 84.087 1277.72 Q76.1298 1277.72 71.4713 1273.44 Q66.7838 1269.13 66.7838 1261.84 Q66.7838 1255.3 71.0083 1251.51 Q75.2039 1247.69 82.4377 1247.69 M80.8752 1253.01 Q76.506 1253.07 73.9018 1255.47 Q71.2977 1257.85 71.2977 1261.78 Q71.2977 1266.24 73.815 1268.93 Q76.3324 1271.59 80.9041 1271.99 L80.8752 1253.01 Z" fill="#000000" fill-rule="nonzero" fill-opacity="1" /><path clip-path="url(#clip150)" d="M58.3637 1214.85 L67.565 1214.85 L67.565 1203.88 L71.7028 1203.88 L71.7028 1214.85 L89.2953 1214.85 Q93.2594 1214.85 94.3878 1213.78 Q95.5163 1212.68 95.5163 1209.35 L95.5163 1203.88 L99.9723 1203.88 L99.9723 1209.35 Q99.9723 1215.51 97.6864 1217.86 Q95.3716 1220.2 89.2953 1220.2 L71.7028 1220.2 L71.7028 1224.11 L67.565 1224.11 L67.565 1220.2 L58.3637 1220.2 L58.3637 1214.85 Z" fill="#000000" fill-rule="nonzero" fill-opacity="1" /><path clip-path="url(#clip150)" d="M67.565 1196.88 L67.565 1191.56 L99.9723 1191.56 L99.9723 1196.88 L67.565 1196.88 M54.9494 1196.88 L54.9494 1191.56 L61.6912 1191.56 L61.6912 1196.88 L54.9494 1196.88 Z" fill="#000000" fill-rule="nonzero" fill-opacity="1" /><path clip-path="url(#clip150)" d="M73.7861 1155.18 Q70.1981 1153.19 68.491 1150.41 Q66.7838 1147.63 66.7838 1143.87 Q66.7838 1138.81 70.3428 1136.06 Q73.8729 1133.31 80.4122 1133.31 L99.9723 1133.31 L99.9723 1138.66 L80.5858 1138.66 Q75.9273 1138.66 73.6703 1140.31 Q71.4134 1141.96 71.4134 1145.35 Q71.4134 1149.48 74.1622 1151.89 Q76.9111 1154.29 81.6564 1154.29 L99.9723 1154.29 L99.9723 1159.64 L80.5858 1159.64 Q75.8983 1159.64 73.6703 1161.29 Q71.4134 1162.94 71.4134 1166.38 Q71.4134 1170.46 74.1912 1172.86 Q76.94 1175.26 81.6564 1175.26 L99.9723 1175.26 L99.9723 1180.62 L67.565 1180.62 L67.565 1175.26 L72.5997 1175.26 Q69.6194 1173.44 68.2016 1170.9 Q66.7838 1168.35 66.7838 1164.85 Q66.7838 1161.32 68.5778 1158.86 Q70.3717 1156.37 73.7861 1155.18 Z" fill="#000000" fill-rule="nonzero" fill-opacity="1" /><path clip-path="url(#clip150)" d="M82.4377 1094.97 L85.0418 1094.97 L85.0418 1119.45 Q90.5395 1119.1 93.433 1116.15 Q96.2975 1113.17 96.2975 1107.88 Q96.2975 1104.81 95.5452 1101.94 Q94.7929 1099.05 93.2883 1096.21 L98.323 1096.21 Q99.5383 1099.08 100.175 1102.09 Q100.811 1105.1 100.811 1108.19 Q100.811 1115.95 96.2975 1120.49 Q91.7837 1125 84.087 1125 Q76.1298 1125 71.4713 1120.72 Q66.7838 1116.41 66.7838 1109.12 Q66.7838 1102.58 71.0083 1098.79 Q75.2039 1094.97 82.4377 1094.97 M80.8752 1100.29 Q76.506 1100.35 73.9018 1102.75 Q71.2977 1105.13 71.2977 1109.06 Q71.2977 1113.52 73.815 1116.21 Q76.3324 1118.87 80.9041 1119.28 L80.8752 1100.29 Z" fill="#000000" fill-rule="nonzero" fill-opacity="1" /><path clip-path="url(#clip150)" d="M55.0072 1054.61 Q61.6623 1058.48 68.1727 1060.36 Q74.6831 1062.24 81.3671 1062.24 Q88.0511 1062.24 94.6193 1060.36 Q101.159 1058.45 107.785 1054.61 L107.785 1059.24 Q100.985 1063.58 94.4168 1065.75 Q87.8485 1067.89 81.3671 1067.89 Q74.9145 1067.89 68.3752 1065.75 Q61.8359 1063.6 55.0072 1059.24 L55.0072 1054.61 Z" fill="#000000" fill-rule="nonzero" fill-opacity="1" /><path clip-path="url(#clip150)" d="M68.5199 1023.62 L73.5546 1023.62 Q72.3972 1025.87 71.8185 1028.3 Q71.2398 1030.73 71.2398 1033.34 Q71.2398 1037.3 72.4551 1039.3 Q73.6703 1041.27 76.1009 1041.27 Q77.9527 1041.27 79.0233 1039.85 Q80.065 1038.43 81.0198 1034.15 L81.4249 1032.33 Q82.6402 1026.65 84.8682 1024.28 Q87.0673 1021.88 91.0314 1021.88 Q95.5452 1021.88 98.1783 1025.47 Q100.811 1029.03 100.811 1035.28 Q100.811 1037.88 100.291 1040.72 Q99.7987 1043.52 98.7859 1046.65 L93.2883 1046.65 Q94.8218 1043.7 95.6031 1040.83 Q96.3554 1037.97 96.3554 1035.16 Q96.3554 1031.4 95.0823 1029.37 Q93.7802 1027.35 91.4364 1027.35 Q89.2663 1027.35 88.1089 1028.82 Q86.9515 1030.27 85.8809 1035.22 L85.4469 1037.07 Q84.4052 1042.02 82.264 1044.22 Q80.0939 1046.42 76.3324 1046.42 Q71.7606 1046.42 69.2722 1043.18 Q66.7838 1039.94 66.7838 1033.98 Q66.7838 1031.02 67.2178 1028.42 Q67.6519 1025.82 68.5199 1023.62 Z" fill="#000000" fill-rule="nonzero" fill-opacity="1" /><path clip-path="url(#clip150)" d="M55.0072 1014.24 L55.0072 1009.61 Q61.8359 1005.27 68.3752 1003.13 Q74.9145 1000.96 81.3671 1000.96 Q87.8485 1000.96 94.4168 1003.13 Q100.985 1005.27 107.785 1009.61 L107.785 1014.24 Q101.159 1010.39 94.6193 1008.51 Q88.0511 1006.6 81.3671 1006.6 Q74.6831 1006.6 68.1727 1008.51 Q61.6623 1010.39 55.0072 1014.24 Z" fill="#000000" fill-rule="nonzero" fill-opacity="1" /><path clip-path="url(#clip150)" d="M1328.7 125.969 L1328.7 133.949 Q1324.04 131.721 1319.9 130.627 Q1315.77 129.534 1311.92 129.534 Q1305.24 129.534 1301.59 132.126 Q1297.99 134.719 1297.99 139.499 Q1297.99 143.509 1300.38 145.575 Q1302.81 147.601 1309.53 148.857 L1314.48 149.869 Q1323.63 151.611 1327.97 156.027 Q1332.34 160.402 1332.34 167.774 Q1332.34 176.565 1326.43 181.102 Q1320.55 185.639 1309.17 185.639 Q1304.88 185.639 1300.01 184.667 Q1295.19 183.694 1290.01 181.79 L1290.01 173.365 Q1294.99 176.16 1299.77 177.577 Q1304.55 178.995 1309.17 178.995 Q1316.18 178.995 1319.99 176.241 Q1323.79 173.486 1323.79 168.382 Q1323.79 163.926 1321.04 161.414 Q1318.33 158.903 1312.09 157.647 L1307.1 156.675 Q1297.95 154.852 1293.86 150.963 Q1289.77 147.074 1289.77 140.147 Q1289.77 132.126 1295.4 127.508 Q1301.07 122.89 1310.99 122.89 Q1315.25 122.89 1319.66 123.66 Q1324.08 124.43 1328.7 125.969 Z" fill="#000000" fill-rule="nonzero" fill-opacity="1" /><path clip-path="url(#clip150)" d="M1362.36 144.32 Q1356.36 144.32 1352.88 149.019 Q1349.4 153.677 1349.4 161.819 Q1349.4 169.962 1352.84 174.661 Q1356.32 179.319 1362.36 179.319 Q1368.31 179.319 1371.8 174.62 Q1375.28 169.921 1375.28 161.819 Q1375.28 153.758 1371.8 149.059 Q1368.31 144.32 1362.36 144.32 M1362.36 138 Q1372.08 138 1377.63 144.32 Q1383.18 150.639 1383.18 161.819 Q1383.18 172.959 1377.63 179.319 Q1372.08 185.639 1362.36 185.639 Q1352.6 185.639 1347.05 179.319 Q1341.54 172.959 1341.54 161.819 Q1341.54 150.639 1347.05 144.32 Q1352.6 138 1362.36 138 Z" fill="#000000" fill-rule="nonzero" fill-opacity="1" /><path clip-path="url(#clip150)" d="M1395.54 121.432 L1402.99 121.432 L1402.99 184.464 L1395.54 184.464 L1395.54 121.432 Z" fill="#000000" fill-rule="nonzero" fill-opacity="1" /><path clip-path="url(#clip150)" d="M1413.24 139.094 L1421.14 139.094 L1435.32 177.172 L1449.49 139.094 L1457.39 139.094 L1440.38 184.464 L1430.25 184.464 L1413.24 139.094 Z" fill="#000000" fill-rule="nonzero" fill-opacity="1" /><path clip-path="url(#clip150)" d="M1506.49 159.916 L1506.49 163.561 L1472.22 163.561 Q1472.7 171.258 1476.84 175.309 Q1481.01 179.319 1488.42 179.319 Q1492.72 179.319 1496.73 178.266 Q1500.78 177.213 1504.75 175.106 L1504.75 182.155 Q1500.74 183.856 1496.52 184.748 Q1492.31 185.639 1487.98 185.639 Q1477.12 185.639 1470.76 179.319 Q1464.44 173 1464.44 162.225 Q1464.44 151.085 1470.44 144.563 Q1476.47 138 1486.68 138 Q1495.84 138 1501.14 143.914 Q1506.49 149.788 1506.49 159.916 M1499.04 157.728 Q1498.95 151.611 1495.59 147.965 Q1492.27 144.32 1486.76 144.32 Q1480.52 144.32 1476.76 147.844 Q1473.03 151.368 1472.46 157.769 L1499.04 157.728 Z" fill="#000000" fill-rule="nonzero" fill-opacity="1" /><path clip-path="url(#clip150)" d="M1552.47 126.212 L1552.47 139.094 L1567.82 139.094 L1567.82 144.887 L1552.47 144.887 L1552.47 169.516 Q1552.47 175.066 1553.97 176.646 Q1555.51 178.226 1560.16 178.226 L1567.82 178.226 L1567.82 184.464 L1560.16 184.464 Q1551.54 184.464 1548.25 181.264 Q1544.97 178.023 1544.97 169.516 L1544.97 144.887 L1539.5 144.887 L1539.5 139.094 L1544.97 139.094 L1544.97 126.212 L1552.47 126.212 Z" fill="#000000" fill-rule="nonzero" fill-opacity="1" /><path clip-path="url(#clip150)" d="M1577.62 139.094 L1585.08 139.094 L1585.08 184.464 L1577.62 184.464 L1577.62 139.094 M1577.62 121.432 L1585.08 121.432 L1585.08 130.871 L1577.62 130.871 L1577.62 121.432 Z" fill="#000000" fill-rule="nonzero" fill-opacity="1" /><path clip-path="url(#clip150)" d="M1636 147.803 Q1638.79 142.78 1642.68 140.39 Q1646.57 138 1651.84 138 Q1658.93 138 1662.77 142.983 Q1666.62 147.925 1666.62 157.08 L1666.62 184.464 L1659.13 184.464 L1659.13 157.323 Q1659.13 150.801 1656.82 147.641 Q1654.51 144.482 1649.77 144.482 Q1643.98 144.482 1640.61 148.33 Q1637.25 152.178 1637.25 158.822 L1637.25 184.464 L1629.76 184.464 L1629.76 157.323 Q1629.76 150.76 1627.45 147.641 Q1625.14 144.482 1620.32 144.482 Q1614.61 144.482 1611.25 148.37 Q1607.88 152.219 1607.88 158.822 L1607.88 184.464 L1600.39 184.464 L1600.39 139.094 L1607.88 139.094 L1607.88 146.142 Q1610.44 141.97 1614 139.985 Q1617.57 138 1622.47 138 Q1627.41 138 1630.85 140.512 Q1634.34 143.023 1636 147.803 Z" fill="#000000" fill-rule="nonzero" fill-opacity="1" /><path clip-path="url(#clip150)" d="M1720.3 159.916 L1720.3 163.561 L1686.03 163.561 Q1686.51 171.258 1690.64 175.309 Q1694.82 179.319 1702.23 179.319 Q1706.52 179.319 1710.53 178.266 Q1714.58 177.213 1718.55 175.106 L1718.55 182.155 Q1714.54 183.856 1710.33 184.748 Q1706.12 185.639 1701.78 185.639 Q1690.93 185.639 1684.57 179.319 Q1678.25 173 1678.25 162.225 Q1678.25 151.085 1684.24 144.563 Q1690.28 138 1700.49 138 Q1709.64 138 1714.95 143.914 Q1720.3 149.788 1720.3 159.916 M1712.84 157.728 Q1712.76 151.611 1709.4 147.965 Q1706.08 144.32 1700.57 144.32 Q1694.33 144.32 1690.56 147.844 Q1686.84 151.368 1686.27 157.769 L1712.84 157.728 Z" fill="#000000" fill-rule="nonzero" fill-opacity="1" /><path clip-path="url(#clip150)" d="M1753.55 139.094 L1761.45 139.094 L1775.63 177.172 L1789.81 139.094 L1797.71 139.094 L1780.7 184.464 L1770.57 184.464 L1753.55 139.094 Z" fill="#000000" fill-rule="nonzero" fill-opacity="1" /><path clip-path="url(#clip150)" d="M1836.92 140.431 L1836.92 147.479 Q1833.76 145.859 1830.36 145.049 Q1826.96 144.239 1823.31 144.239 Q1817.76 144.239 1814.97 145.94 Q1812.21 147.641 1812.21 151.044 Q1812.21 153.637 1814.2 155.135 Q1816.18 156.594 1822.18 157.931 L1824.73 158.498 Q1832.67 160.199 1835.99 163.318 Q1839.35 166.397 1839.35 171.947 Q1839.35 178.266 1834.33 181.952 Q1829.35 185.639 1820.6 185.639 Q1816.95 185.639 1812.98 184.91 Q1809.05 184.221 1804.68 182.803 L1804.68 175.106 Q1808.81 177.253 1812.82 178.347 Q1816.83 179.4 1820.76 179.4 Q1826.02 179.4 1828.86 177.618 Q1831.7 175.795 1831.7 172.514 Q1831.7 169.476 1829.63 167.855 Q1827.6 166.235 1820.68 164.736 L1818.09 164.128 Q1811.16 162.67 1808.08 159.672 Q1805 156.634 1805 151.368 Q1805 144.968 1809.54 141.484 Q1814.07 138 1822.42 138 Q1826.55 138 1830.2 138.608 Q1833.84 139.215 1836.92 140.431 Z" fill="#000000" fill-rule="nonzero" fill-opacity="1" /><path clip-path="url(#clip150)" d="M1907.45 161.252 Q1907.45 153.151 1904.09 148.695 Q1900.76 144.239 1894.73 144.239 Q1888.73 144.239 1885.37 148.695 Q1882.05 153.151 1882.05 161.252 Q1882.05 169.314 1885.37 173.77 Q1888.73 178.226 1894.73 178.226 Q1900.76 178.226 1904.09 173.77 Q1907.45 169.314 1907.45 161.252 M1914.9 178.833 Q1914.9 190.419 1909.76 196.05 Q1904.61 201.721 1894 201.721 Q1890.07 201.721 1886.59 201.113 Q1883.1 200.546 1879.82 199.331 L1879.82 192.08 Q1883.1 193.862 1886.3 194.713 Q1889.5 195.563 1892.82 195.563 Q1900.16 195.563 1903.8 191.715 Q1907.45 187.907 1907.45 180.17 L1907.45 176.484 Q1905.14 180.494 1901.53 182.479 Q1897.93 184.464 1892.91 184.464 Q1884.56 184.464 1879.46 178.104 Q1874.35 171.744 1874.35 161.252 Q1874.35 150.72 1879.46 144.36 Q1884.56 138 1892.91 138 Q1897.93 138 1901.53 139.985 Q1905.14 141.97 1907.45 145.98 L1907.45 139.094 L1914.9 139.094 L1914.9 178.833 Z" fill="#000000" fill-rule="nonzero" fill-opacity="1" /><path clip-path="url(#clip150)" d="M1956.54 146.061 Q1955.29 145.332 1953.79 145.008 Q1952.33 144.644 1950.55 144.644 Q1944.23 144.644 1940.83 148.776 Q1937.47 152.867 1937.47 160.564 L1937.47 184.464 L1929.97 184.464 L1929.97 139.094 L1937.47 139.094 L1937.47 146.142 Q1939.81 142.011 1943.58 140.026 Q1947.35 138 1952.74 138 Q1953.51 138 1954.44 138.122 Q1955.37 138.203 1956.5 138.405 L1956.54 146.061 Z" fill="#000000" fill-rule="nonzero" fill-opacity="1" /><path clip-path="url(#clip150)" d="M1964.36 139.094 L1971.82 139.094 L1971.82 184.464 L1964.36 184.464 L1964.36 139.094 M1964.36 121.432 L1971.82 121.432 L1971.82 130.871 L1964.36 130.871 L1964.36 121.432 Z" fill="#000000" fill-rule="nonzero" fill-opacity="1" /><path clip-path="url(#clip150)" d="M2017.27 145.98 L2017.27 121.432 L2024.72 121.432 L2024.72 184.464 L2017.27 184.464 L2017.27 177.658 Q2014.92 181.709 2011.31 183.694 Q2007.75 185.639 2002.73 185.639 Q1994.5 185.639 1989.32 179.076 Q1984.17 172.514 1984.17 161.819 Q1984.17 151.125 1989.32 144.563 Q1994.5 138 2002.73 138 Q2007.75 138 2011.31 139.985 Q2014.92 141.93 2017.27 145.98 M1991.87 161.819 Q1991.87 170.043 1995.23 174.742 Q1998.63 179.4 2004.55 179.4 Q2010.46 179.4 2013.87 174.742 Q2017.27 170.043 2017.27 161.819 Q2017.27 153.596 2013.87 148.938 Q2010.46 144.239 2004.55 144.239 Q1998.63 144.239 1995.23 148.938 Q1991.87 153.596 1991.87 161.819 Z" fill="#000000" fill-rule="nonzero" fill-opacity="1" /><path clip-path="url(#clip150)" d="M2095.37 140.431 L2095.37 147.479 Q2092.21 145.859 2088.81 145.049 Q2085.4 144.239 2081.76 144.239 Q2076.21 144.239 2073.41 145.94 Q2070.66 147.641 2070.66 151.044 Q2070.66 153.637 2072.64 155.135 Q2074.63 156.594 2080.62 157.931 L2083.18 158.498 Q2091.12 160.199 2094.44 163.318 Q2097.8 166.397 2097.8 171.947 Q2097.8 178.266 2092.78 181.952 Q2087.79 185.639 2079.04 185.639 Q2075.4 185.639 2071.43 184.91 Q2067.5 184.221 2063.12 182.803 L2063.12 175.106 Q2067.26 177.253 2071.27 178.347 Q2075.28 179.4 2079.21 179.4 Q2084.47 179.4 2087.31 177.618 Q2090.14 175.795 2090.14 172.514 Q2090.14 169.476 2088.08 167.855 Q2086.05 166.235 2079.13 164.736 L2076.53 164.128 Q2069.61 162.67 2066.53 159.672 Q2063.45 156.634 2063.45 151.368 Q2063.45 144.968 2067.99 141.484 Q2072.52 138 2080.87 138 Q2085 138 2088.64 138.608 Q2092.29 139.215 2095.37 140.431 Z" fill="#000000" fill-rule="nonzero" fill-opacity="1" /><path clip-path="url(#clip150)" d="M2109.67 139.094 L2117.12 139.094 L2117.12 184.464 L2109.67 184.464 L2109.67 139.094 M2109.67 121.432 L2117.12 121.432 L2117.12 130.871 L2109.67 130.871 L2109.67 121.432 Z" fill="#000000" fill-rule="nonzero" fill-opacity="1" /><path clip-path="url(#clip150)" d="M2129.48 139.094 L2164.88 139.094 L2164.88 145.899 L2136.85 178.509 L2164.88 178.509 L2164.88 184.464 L2128.47 184.464 L2128.47 177.658 L2156.5 145.049 L2129.48 145.049 L2129.48 139.094 Z" fill="#000000" fill-rule="nonzero" fill-opacity="1" /><path clip-path="url(#clip150)" d="M2215.07 159.916 L2215.07 163.561 L2180.8 163.561 Q2181.29 171.258 2185.42 175.309 Q2189.59 179.319 2197.01 179.319 Q2201.3 179.319 2205.31 178.266 Q2209.36 177.213 2213.33 175.106 L2213.33 182.155 Q2209.32 183.856 2205.11 184.748 Q2200.9 185.639 2196.56 185.639 Q2185.7 185.639 2179.34 179.319 Q2173.03 173 2173.03 162.225 Q2173.03 151.085 2179.02 144.563 Q2185.06 138 2195.26 138 Q2204.42 138 2209.73 143.914 Q2215.07 149.788 2215.07 159.916 M2207.62 157.728 Q2207.54 151.611 2204.18 147.965 Q2200.85 144.32 2195.35 144.32 Q2189.11 144.32 2185.34 147.844 Q2181.61 151.368 2181.05 157.769 L2207.62 157.728 Z" fill="#000000" fill-rule="nonzero" fill-opacity="1" /><path clip-path="url(#clip150)" d="M2249.91 158.822 L2324.77 158.822 L2324.77 164.655 L2249.91 164.655 L2249.91 158.822 Z" fill="#000000" fill-rule="nonzero" fill-opacity="1" /><path clip-path="url(#clip150)" d="M2392.87 161.252 Q2392.87 153.151 2389.51 148.695 Q2386.18 144.239 2380.15 144.239 Q2374.15 144.239 2370.79 148.695 Q2367.47 153.151 2367.47 161.252 Q2367.47 169.314 2370.79 173.77 Q2374.15 178.226 2380.15 178.226 Q2386.18 178.226 2389.51 173.77 Q2392.87 169.314 2392.87 161.252 M2400.32 178.833 Q2400.32 190.419 2395.18 196.05 Q2390.03 201.721 2379.42 201.721 Q2375.49 201.721 2372.01 201.113 Q2368.52 200.546 2365.24 199.331 L2365.24 192.08 Q2368.52 193.862 2371.72 194.713 Q2374.92 195.563 2378.24 195.563 Q2385.58 195.563 2389.22 191.715 Q2392.87 187.907 2392.87 180.17 L2392.87 176.484 Q2390.56 180.494 2386.95 182.479 Q2383.35 184.464 2378.33 184.464 Q2369.98 184.464 2364.88 178.104 Q2359.77 171.744 2359.77 161.252 Q2359.77 150.72 2364.88 144.36 Q2369.98 138 2378.33 138 Q2383.35 138 2386.95 139.985 Q2390.56 141.97 2392.87 145.98 L2392.87 139.094 L2400.32 139.094 L2400.32 178.833 Z" fill="#000000" fill-rule="nonzero" fill-opacity="1" /><path clip-path="url(#clip150)" d="M2415.67 121.432 L2423.13 121.432 L2423.13 184.464 L2415.67 184.464 L2415.67 121.432 Z" fill="#000000" fill-rule="nonzero" fill-opacity="1" /><path clip-path="url(#clip150)" d="M2438.72 139.094 L2446.18 139.094 L2446.18 184.464 L2438.72 184.464 L2438.72 139.094 M2438.72 121.432 L2446.18 121.432 L2446.18 130.871 L2438.72 130.871 L2438.72 121.432 Z" fill="#000000" fill-rule="nonzero" fill-opacity="1" /><path clip-path="url(#clip150)" d="M2491.63 145.98 L2491.63 121.432 L2499.08 121.432 L2499.08 184.464 L2491.63 184.464 L2491.63 177.658 Q2489.28 181.709 2485.67 183.694 Q2482.11 185.639 2477.09 185.639 Q2468.86 185.639 2463.68 179.076 Q2458.53 172.514 2458.53 161.819 Q2458.53 151.125 2463.68 144.563 Q2468.86 138 2477.09 138 Q2482.11 138 2485.67 139.985 Q2489.28 141.93 2491.63 145.98 M2466.23 161.819 Q2466.23 170.043 2469.59 174.742 Q2472.99 179.4 2478.91 179.4 Q2484.82 179.4 2488.23 174.742 Q2491.63 170.043 2491.63 161.819 Q2491.63 153.596 2488.23 148.938 Q2484.82 144.239 2478.91 144.239 Q2472.99 144.239 2469.59 148.938 Q2466.23 153.596 2466.23 161.819 Z" fill="#000000" fill-rule="nonzero" fill-opacity="1" /><path clip-path="url(#clip150)" d="M2553.24 159.916 L2553.24 163.561 L2518.97 163.561 Q2519.46 171.258 2523.59 175.309 Q2527.76 179.319 2535.18 179.319 Q2539.47 179.319 2543.48 178.266 Q2547.53 177.213 2551.5 175.106 L2551.5 182.155 Q2547.49 183.856 2543.28 184.748 Q2539.06 185.639 2534.73 185.639 Q2523.87 185.639 2517.51 179.319 Q2511.19 173 2511.19 162.225 Q2511.19 151.085 2517.19 144.563 Q2523.23 138 2533.43 138 Q2542.59 138 2547.9 143.914 Q2553.24 149.788 2553.24 159.916 M2545.79 157.728 Q2545.71 151.611 2542.35 147.965 Q2539.02 144.32 2533.52 144.32 Q2527.28 144.32 2523.51 147.844 Q2519.78 151.368 2519.22 157.769 L2545.79 157.728 Z" fill="#000000" fill-rule="nonzero" fill-opacity="1" /><path clip-path="url(#clip150)" d="M2591.77 146.061 Q2590.51 145.332 2589.01 145.008 Q2587.55 144.644 2585.77 144.644 Q2579.45 144.644 2576.05 148.776 Q2572.69 152.867 2572.69 160.564 L2572.69 184.464 L2565.19 184.464 L2565.19 139.094 L2572.69 139.094 L2572.69 146.142 Q2575.04 142.011 2578.8 140.026 Q2582.57 138 2587.96 138 Q2588.73 138 2589.66 138.122 Q2590.59 138.203 2591.73 138.405 L2591.77 146.061 Z" fill="#000000" fill-rule="nonzero" fill-opacity="1" /><polyline clip-path="url(#clip152)" style="stroke:#ff8c00; stroke-linecap:round; stroke-linejoin:round; stroke-width:6; stroke-opacity:1; fill:none" points="475.322,2102.46 2728.07,473.43 3406.21,300.989 "/>
<path clip-path="url(#clip152)" d="M475.322 2086.46 L459.322 2118.46 L491.322 2118.46 L475.322 2086.46 Z" fill="#ff8c00" fill-rule="evenodd" fill-opacity="1" stroke="none"/>
<path clip-path="url(#clip152)" d="M2728.07 457.43 L2712.07 489.43 L2744.07 489.43 L2728.07 457.43 Z" fill="#ff8c00" fill-rule="evenodd" fill-opacity="1" stroke="none"/>
<path clip-path="url(#clip152)" d="M3406.21 284.989 L3390.21 316.989 L3422.21 316.989 L3406.21 284.989 Z" fill="#ff8c00" fill-rule="evenodd" fill-opacity="1" stroke="none"/>
<path clip-path="url(#clip150)" d="M2799.84 2092.86 L3445.29 2092.86 L3445.29 1989.18 L2799.84 1989.18  Z" fill="#ffffff" fill-rule="evenodd" fill-opacity="1"/>
<polyline clip-path="url(#clip150)" style="stroke:#000000; stroke-linecap:round; stroke-linejoin:round; stroke-width:4; stroke-opacity:1; fill:none" points="2799.84,2092.86 3445.29,2092.86 3445.29,1989.18 2799.84,1989.18 2799.84,2092.86 "/>
<polyline clip-path="url(#clip150)" style="stroke:#ff8c00; stroke-linecap:round; stroke-linejoin:round; stroke-width:6; stroke-opacity:1; fill:none" points="2835.66,2041.02 3050.59,2041.02 "/>
<path clip-path="url(#clip150)" d="M2943.13 2015.42 L2917.53 2066.62 L2968.73 2066.62 L2943.13 2015.42 Z" fill="#ff8c00" fill-rule="evenodd" fill-opacity="1" stroke="none"/>
<path clip-path="url(#clip150)" d="M3097.04 2022.32 Q3093.94 2027.65 3092.43 2032.86 Q3090.93 2038.06 3090.93 2043.41 Q3090.93 2048.76 3092.43 2054.01 Q3093.96 2059.24 3097.04 2064.55 L3093.34 2064.55 Q3089.86 2059.11 3088.13 2053.85 Q3086.41 2048.6 3086.41 2043.41 Q3086.41 2038.25 3088.13 2033.02 Q3089.84 2027.79 3093.34 2022.32 L3097.04 2022.32 Z" fill="#000000" fill-rule="nonzero" fill-opacity="1" /><path clip-path="url(#clip150)" d="M3127.48 2044.27 L3127.48 2046.35 L3107.9 2046.35 Q3108.17 2050.75 3110.53 2053.06 Q3112.92 2055.36 3117.15 2055.36 Q3119.61 2055.36 3121.9 2054.75 Q3124.21 2054.15 3126.48 2052.95 L3126.48 2056.98 Q3124.19 2057.95 3121.78 2058.46 Q3119.38 2058.97 3116.9 2058.97 Q3110.7 2058.97 3107.06 2055.36 Q3103.45 2051.74 3103.45 2045.59 Q3103.45 2039.22 3106.88 2035.49 Q3110.33 2031.74 3116.16 2031.74 Q3121.39 2031.74 3124.42 2035.12 Q3127.48 2038.48 3127.48 2044.27 M3123.22 2043.02 Q3123.17 2039.52 3121.25 2037.44 Q3119.35 2035.36 3116.21 2035.36 Q3112.64 2035.36 3110.49 2037.37 Q3108.36 2039.38 3108.03 2043.04 L3123.22 2043.02 Z" fill="#000000" fill-rule="nonzero" fill-opacity="1" /><path clip-path="url(#clip150)" d="M3155.19 2032.37 L3145.81 2044.99 L3155.67 2058.3 L3150.65 2058.3 L3143.1 2048.11 L3135.56 2058.3 L3130.53 2058.3 L3140.6 2044.73 L3131.39 2032.37 L3136.41 2032.37 L3143.29 2041.61 L3150.16 2032.37 L3155.19 2032.37 Z" fill="#000000" fill-rule="nonzero" fill-opacity="1" /><path clip-path="url(#clip150)" d="M3173.47 2045.26 Q3168.31 2045.26 3166.32 2046.44 Q3164.33 2047.62 3164.33 2050.47 Q3164.33 2052.74 3165.81 2054.08 Q3167.32 2055.4 3169.89 2055.4 Q3173.43 2055.4 3175.56 2052.9 Q3177.71 2050.38 3177.71 2046.21 L3177.71 2045.26 L3173.47 2045.26 M3181.97 2043.5 L3181.97 2058.3 L3177.71 2058.3 L3177.71 2054.36 Q3176.25 2056.72 3174.08 2057.86 Q3171.9 2058.97 3168.75 2058.97 Q3164.77 2058.97 3162.41 2056.74 Q3160.07 2054.5 3160.07 2050.75 Q3160.07 2046.37 3162.99 2044.15 Q3165.93 2041.93 3171.74 2041.93 L3177.71 2041.93 L3177.71 2041.51 Q3177.71 2038.57 3175.77 2036.98 Q3173.84 2035.36 3170.35 2035.36 Q3168.13 2035.36 3166.02 2035.89 Q3163.91 2036.42 3161.97 2037.49 L3161.97 2033.55 Q3164.31 2032.65 3166.51 2032.21 Q3168.71 2031.74 3170.79 2031.74 Q3176.41 2031.74 3179.19 2034.66 Q3181.97 2037.58 3181.97 2043.5 Z" fill="#000000" fill-rule="nonzero" fill-opacity="1" /><path clip-path="url(#clip150)" d="M3191.83 2052.42 L3196.71 2052.42 L3196.71 2056.4 L3192.92 2063.8 L3189.93 2063.8 L3191.83 2056.4 L3191.83 2052.42 Z" fill="#000000" fill-rule="nonzero" fill-opacity="1" /><path clip-path="url(#clip150)" d="M3241.07 2037.35 Q3242.66 2034.48 3244.89 2033.11 Q3247.11 2031.74 3250.12 2031.74 Q3254.17 2031.74 3256.37 2034.59 Q3258.57 2037.42 3258.57 2042.65 L3258.57 2058.3 L3254.28 2058.3 L3254.28 2042.79 Q3254.28 2039.06 3252.96 2037.25 Q3251.64 2035.45 3248.94 2035.45 Q3245.63 2035.45 3243.7 2037.65 Q3241.78 2039.85 3241.78 2043.64 L3241.78 2058.3 L3237.5 2058.3 L3237.5 2042.79 Q3237.5 2039.04 3236.18 2037.25 Q3234.86 2035.45 3232.11 2035.45 Q3228.84 2035.45 3226.92 2037.67 Q3225 2039.87 3225 2043.64 L3225 2058.3 L3220.72 2058.3 L3220.72 2032.37 L3225 2032.37 L3225 2036.4 Q3226.46 2034.01 3228.5 2032.88 Q3230.53 2031.74 3233.33 2031.74 Q3236.16 2031.74 3238.13 2033.18 Q3240.12 2034.62 3241.07 2037.35 Z" fill="#000000" fill-rule="nonzero" fill-opacity="1" /><path clip-path="url(#clip150)" d="M3278.84 2045.26 Q3273.68 2045.26 3271.69 2046.44 Q3269.7 2047.62 3269.7 2050.47 Q3269.7 2052.74 3271.18 2054.08 Q3272.69 2055.4 3275.26 2055.4 Q3278.8 2055.4 3280.93 2052.9 Q3283.08 2050.38 3283.08 2046.21 L3283.08 2045.26 L3278.84 2045.26 M3287.34 2043.5 L3287.34 2058.3 L3283.08 2058.3 L3283.08 2054.36 Q3281.62 2056.72 3279.45 2057.86 Q3277.27 2058.97 3274.12 2058.97 Q3270.14 2058.97 3267.78 2056.74 Q3265.44 2054.5 3265.44 2050.75 Q3265.44 2046.37 3268.36 2044.15 Q3271.3 2041.93 3277.11 2041.93 L3283.08 2041.93 L3283.08 2041.51 Q3283.08 2038.57 3281.14 2036.98 Q3279.21 2035.36 3275.72 2035.36 Q3273.5 2035.36 3271.39 2035.89 Q3269.28 2036.42 3267.34 2037.49 L3267.34 2033.55 Q3269.68 2032.65 3271.88 2032.21 Q3274.08 2031.74 3276.16 2031.74 Q3281.78 2031.74 3284.56 2034.66 Q3287.34 2037.58 3287.34 2043.5 Z" fill="#000000" fill-rule="nonzero" fill-opacity="1" /><path clip-path="url(#clip150)" d="M3313.17 2036.3 L3313.17 2022.28 L3317.43 2022.28 L3317.43 2058.3 L3313.17 2058.3 L3313.17 2054.41 Q3311.83 2056.72 3309.77 2057.86 Q3307.73 2058.97 3304.86 2058.97 Q3300.16 2058.97 3297.2 2055.22 Q3294.26 2051.47 3294.26 2045.36 Q3294.26 2039.24 3297.2 2035.49 Q3300.16 2031.74 3304.86 2031.74 Q3307.73 2031.74 3309.77 2032.88 Q3311.83 2033.99 3313.17 2036.3 M3298.66 2045.36 Q3298.66 2050.05 3300.58 2052.74 Q3302.52 2055.4 3305.9 2055.4 Q3309.28 2055.4 3311.23 2052.74 Q3313.17 2050.05 3313.17 2045.36 Q3313.17 2040.66 3311.23 2037.99 Q3309.28 2035.31 3305.9 2035.31 Q3302.52 2035.31 3300.58 2037.99 Q3298.66 2040.66 3298.66 2045.36 Z" fill="#000000" fill-rule="nonzero" fill-opacity="1" /><path clip-path="url(#clip150)" d="M3347.76 2042.65 L3347.76 2058.3 L3343.5 2058.3 L3343.5 2042.79 Q3343.5 2039.11 3342.06 2037.28 Q3340.63 2035.45 3337.76 2035.45 Q3334.31 2035.45 3332.32 2037.65 Q3330.32 2039.85 3330.32 2043.64 L3330.32 2058.3 L3326.04 2058.3 L3326.04 2032.37 L3330.32 2032.37 L3330.32 2036.4 Q3331.85 2034.06 3333.91 2032.9 Q3336 2031.74 3338.7 2031.74 Q3343.17 2031.74 3345.46 2034.52 Q3347.76 2037.28 3347.76 2042.65 Z" fill="#000000" fill-rule="nonzero" fill-opacity="1" /><path clip-path="url(#clip150)" d="M3356.25 2022.28 L3360.51 2022.28 L3360.51 2058.3 L3356.25 2058.3 L3356.25 2022.28 Z" fill="#000000" fill-rule="nonzero" fill-opacity="1" /><path clip-path="url(#clip150)" d="M3373.54 2054.41 L3373.54 2068.16 L3369.26 2068.16 L3369.26 2032.37 L3373.54 2032.37 L3373.54 2036.3 Q3374.88 2033.99 3376.92 2032.88 Q3378.98 2031.74 3381.83 2031.74 Q3386.55 2031.74 3389.49 2035.49 Q3392.45 2039.24 3392.45 2045.36 Q3392.45 2051.47 3389.49 2055.22 Q3386.55 2058.97 3381.83 2058.97 Q3378.98 2058.97 3376.92 2057.86 Q3374.88 2056.72 3373.54 2054.41 M3388.03 2045.36 Q3388.03 2040.66 3386.09 2037.99 Q3384.17 2035.31 3380.79 2035.31 Q3377.41 2035.31 3375.46 2037.99 Q3373.54 2040.66 3373.54 2045.36 Q3373.54 2050.05 3375.46 2052.74 Q3377.41 2055.4 3380.79 2055.4 Q3384.17 2055.4 3386.09 2052.74 Q3388.03 2050.05 3388.03 2045.36 Z" fill="#000000" fill-rule="nonzero" fill-opacity="1" /><path clip-path="url(#clip150)" d="M3398.84 2022.32 L3402.55 2022.32 Q3406.02 2027.79 3407.73 2033.02 Q3409.47 2038.25 3409.47 2043.41 Q3409.47 2048.6 3407.73 2053.85 Q3406.02 2059.11 3402.55 2064.55 L3398.84 2064.55 Q3401.92 2059.24 3403.43 2054.01 Q3404.95 2048.76 3404.95 2043.41 Q3404.95 2038.06 3403.43 2032.86 Q3401.92 2027.65 3398.84 2022.32 Z" fill="#000000" fill-rule="nonzero" fill-opacity="1" /></svg>
