<?xml version="1.0" encoding="utf-8"?>
<svg xmlns="http://www.w3.org/2000/svg" xmlns:xlink="http://www.w3.org/1999/xlink" width="900" height="600" viewBox="0 0 3600 2400">
<defs>
  <clipPath id="clip440">
    <rect x="0" y="0" width="3600" height="2400"/>
  </clipPath>
</defs>
<path clip-path="url(#clip440)" d="M0 2400 L3600 2400 L3600 0 L0 0  Z" fill="#ffffff" fill-rule="evenodd" fill-opacity="1"/>
<defs>
  <clipPath id="clip441">
    <rect x="720" y="0" width="2521" height="2400"/>
  </clipPath>
</defs>
<path clip-path="url(#clip440)" d="M274.636 2156.51 L3552.76 2156.51 L3552.76 246.944 L274.636 246.944  Z" fill="#ffffff" fill-rule="evenodd" fill-opacity="1"/>
<defs>
  <clipPath id="clip442">
    <rect x="274" y="246" width="3279" height="1911"/>
  </clipPath>
</defs>
<polyline clip-path="url(#clip442)" style="stroke:#000000; stroke-linecap:round; stroke-linejoin:round; stroke-width:2; stroke-opacity:0.1; fill:none" points="548.579,2156.51 548.579,246.944 "/>
<polyline clip-path="url(#clip442)" style="stroke:#000000; stroke-linecap:round; stroke-linejoin:round; stroke-width:2; stroke-opacity:0.1; fill:none" points="1458.66,2156.51 1458.66,246.944 "/>
<polyline clip-path="url(#clip442)" style="stroke:#000000; stroke-linecap:round; stroke-linejoin:round; stroke-width:2; stroke-opacity:0.1; fill:none" points="2368.73,2156.51 2368.73,246.944 "/>
<polyline clip-path="url(#clip442)" style="stroke:#000000; stroke-linecap:round; stroke-linejoin:round; stroke-width:2; stroke-opacity:0.1; fill:none" points="3278.81,2156.51 3278.81,246.944 "/>
<polyline clip-path="url(#clip442)" style="stroke:#000000; stroke-linecap:round; stroke-linejoin:round; stroke-width:2; stroke-opacity:0.1; fill:none" points="274.636,2156.51 3552.76,2156.51 "/>
<polyline clip-path="url(#clip442)" style="stroke:#000000; stroke-linecap:round; stroke-linejoin:round; stroke-width:2; stroke-opacity:0.1; fill:none" points="274.636,1534.74 3552.76,1534.74 "/>
<polyline clip-path="url(#clip442)" style="stroke:#000000; stroke-linecap:round; stroke-linejoin:round; stroke-width:2; stroke-opacity:0.1; fill:none" points="274.636,912.975 3552.76,912.975 "/>
<polyline clip-path="url(#clip442)" style="stroke:#000000; stroke-linecap:round; stroke-linejoin:round; stroke-width:2; stroke-opacity:0.1; fill:none" points="274.636,291.208 3552.76,291.208 "/>
<polyline clip-path="url(#clip440)" style="stroke:#000000; stroke-linecap:round; stroke-linejoin:round; stroke-width:4; stroke-opacity:1; fill:none" points="274.636,2156.51 3552.76,2156.51 "/>
<polyline clip-path="url(#clip440)" style="stroke:#000000; stroke-linecap:round; stroke-linejoin:round; stroke-width:4; stroke-opacity:1; fill:none" points="548.579,2156.51 548.579,2137.61 "/>
<polyline clip-path="url(#clip440)" style="stroke:#000000; stroke-linecap:round; stroke-linejoin:round; stroke-width:4; stroke-opacity:1; fill:none" points="1458.66,2156.51 1458.66,2137.61 "/>
<polyline clip-path="url(#clip440)" style="stroke:#000000; stroke-linecap:round; stroke-linejoin:round; stroke-width:4; stroke-opacity:1; fill:none" points="2368.73,2156.51 2368.73,2137.61 "/>
<polyline clip-path="url(#clip440)" style="stroke:#000000; stroke-linecap:round; stroke-linejoin:round; stroke-width:4; stroke-opacity:1; fill:none" points="3278.81,2156.51 3278.81,2137.61 "/>
<path clip-path="url(#clip440)" d="M493.105 2224.57 L500.743 2224.57 L500.743 2198.21 L492.433 2199.87 L492.433 2195.61 L500.697 2193.95 L505.373 2193.95 L505.373 2224.57 L513.012 2224.57 L513.012 2228.51 L493.105 2228.51 L493.105 2224.57 Z" fill="#000000" fill-rule="nonzero" fill-opacity="1" /><path clip-path="url(#clip440)" d="M532.456 2197.03 Q528.845 2197.03 527.016 2200.59 Q525.211 2204.13 525.211 2211.26 Q525.211 2218.37 527.016 2221.93 Q528.845 2225.48 532.456 2225.48 Q536.091 2225.48 537.896 2221.93 Q539.725 2218.37 539.725 2211.26 Q539.725 2204.13 537.896 2200.59 Q536.091 2197.03 532.456 2197.03 M532.456 2193.32 Q538.266 2193.32 541.322 2197.93 Q544.401 2202.51 544.401 2211.26 Q544.401 2219.99 541.322 2224.6 Q538.266 2229.18 532.456 2229.18 Q526.646 2229.18 523.567 2224.6 Q520.512 2219.99 520.512 2211.26 Q520.512 2202.51 523.567 2197.93 Q526.646 2193.32 532.456 2193.32 Z" fill="#000000" fill-rule="nonzero" fill-opacity="1" /><path clip-path="url(#clip440)" d="M562.618 2197.03 Q559.007 2197.03 557.178 2200.59 Q555.373 2204.13 555.373 2211.26 Q555.373 2218.37 557.178 2221.93 Q559.007 2225.48 562.618 2225.48 Q566.252 2225.48 568.058 2221.93 Q569.887 2218.37 569.887 2211.26 Q569.887 2204.13 568.058 2200.59 Q566.252 2197.03 562.618 2197.03 M562.618 2193.32 Q568.428 2193.32 571.484 2197.93 Q574.563 2202.51 574.563 2211.26 Q574.563 2219.99 571.484 2224.6 Q568.428 2229.18 562.618 2229.18 Q556.808 2229.18 553.729 2224.6 Q550.674 2219.99 550.674 2211.26 Q550.674 2202.51 553.729 2197.93 Q556.808 2193.32 562.618 2193.32 Z" fill="#000000" fill-rule="nonzero" fill-opacity="1" /><path clip-path="url(#clip440)" d="M592.78 2197.03 Q589.169 2197.03 587.34 2200.59 Q585.535 2204.13 585.535 2211.26 Q585.535 2218.37 587.34 2221.93 Q589.169 2225.48 592.78 2225.48 Q596.414 2225.48 598.22 2221.93 Q600.049 2218.37 600.049 2211.26 Q600.049 2204.13 598.22 2200.59 Q596.414 2197.03 592.78 2197.03 M592.78 2193.32 Q598.59 2193.32 601.646 2197.93 Q604.724 2202.51 604.724 2211.26 Q604.724 2219.99 601.646 2224.6 Q598.59 2229.18 592.78 2229.18 Q586.97 2229.18 583.891 2224.6 Q580.836 2219.99 580.836 2211.26 Q580.836 2202.51 583.891 2197.93 Q586.97 2193.32 592.78 2193.32 Z" fill="#000000" fill-rule="nonzero" fill-opacity="1" /><path clip-path="url(#clip440)" d="M1403.19 2193.95 L1421.55 2193.95 L1421.55 2197.88 L1407.48 2197.88 L1407.48 2206.36 Q1408.5 2206.01 1409.51 2205.85 Q1410.53 2205.66 1411.55 2205.66 Q1417.34 2205.66 1420.72 2208.83 Q1424.1 2212 1424.1 2217.42 Q1424.1 2223 1420.62 2226.1 Q1417.15 2229.18 1410.83 2229.18 Q1408.66 2229.18 1406.39 2228.81 Q1404.14 2228.44 1401.74 2227.7 L1401.74 2223 Q1403.82 2224.13 1406.04 2224.69 Q1408.26 2225.24 1410.74 2225.24 Q1414.75 2225.24 1417.08 2223.14 Q1419.42 2221.03 1419.42 2217.42 Q1419.42 2213.81 1417.08 2211.7 Q1414.75 2209.6 1410.74 2209.6 Q1408.87 2209.6 1406.99 2210.01 Q1405.14 2210.43 1403.19 2211.31 L1403.19 2193.95 Z" fill="#000000" fill-rule="nonzero" fill-opacity="1" /><path clip-path="url(#clip440)" d="M1443.31 2197.03 Q1439.7 2197.03 1437.87 2200.59 Q1436.06 2204.13 1436.06 2211.26 Q1436.06 2218.37 1437.87 2221.93 Q1439.7 2225.48 1443.31 2225.48 Q1446.94 2225.48 1448.75 2221.93 Q1450.58 2218.37 1450.58 2211.26 Q1450.58 2204.13 1448.75 2200.59 Q1446.94 2197.03 1443.31 2197.03 M1443.31 2193.32 Q1449.12 2193.32 1452.18 2197.93 Q1455.25 2202.51 1455.25 2211.26 Q1455.25 2219.99 1452.18 2224.6 Q1449.12 2229.18 1443.31 2229.18 Q1437.5 2229.18 1434.42 2224.6 Q1431.37 2219.99 1431.37 2211.26 Q1431.37 2202.51 1434.42 2197.93 Q1437.5 2193.32 1443.31 2193.32 Z" fill="#000000" fill-rule="nonzero" fill-opacity="1" /><path clip-path="url(#clip440)" d="M1473.47 2197.03 Q1469.86 2197.03 1468.03 2200.59 Q1466.23 2204.13 1466.23 2211.26 Q1466.23 2218.37 1468.03 2221.93 Q1469.86 2225.48 1473.47 2225.48 Q1477.11 2225.48 1478.91 2221.93 Q1480.74 2218.37 1480.74 2211.26 Q1480.74 2204.13 1478.91 2200.59 Q1477.11 2197.03 1473.47 2197.03 M1473.47 2193.32 Q1479.28 2193.32 1482.34 2197.93 Q1485.42 2202.51 1485.42 2211.26 Q1485.42 2219.99 1482.34 2224.6 Q1479.28 2229.18 1473.47 2229.18 Q1467.66 2229.18 1464.58 2224.6 Q1461.53 2219.99 1461.53 2211.26 Q1461.53 2202.51 1464.58 2197.93 Q1467.66 2193.32 1473.47 2193.32 Z" fill="#000000" fill-rule="nonzero" fill-opacity="1" /><path clip-path="url(#clip440)" d="M1503.63 2197.03 Q1500.02 2197.03 1498.19 2200.59 Q1496.39 2204.13 1496.39 2211.26 Q1496.39 2218.37 1498.19 2221.93 Q1500.02 2225.48 1503.63 2225.48 Q1507.27 2225.48 1509.07 2221.93 Q1510.9 2218.37 1510.9 2211.26 Q1510.9 2204.13 1509.07 2200.59 Q1507.27 2197.03 1503.63 2197.03 M1503.63 2193.32 Q1509.44 2193.32 1512.5 2197.93 Q1515.58 2202.51 1515.58 2211.26 Q1515.58 2219.99 1512.5 2224.6 Q1509.44 2229.18 1503.63 2229.18 Q1497.82 2229.18 1494.74 2224.6 Q1491.69 2219.99 1491.69 2211.26 Q1491.69 2202.51 1494.74 2197.93 Q1497.82 2193.32 1503.63 2193.32 Z" fill="#000000" fill-rule="nonzero" fill-opacity="1" /><path clip-path="url(#clip440)" d="M2298.18 2224.57 L2305.82 2224.57 L2305.82 2198.21 L2297.51 2199.87 L2297.51 2195.61 L2305.77 2193.95 L2310.45 2193.95 L2310.45 2224.57 L2318.09 2224.57 L2318.09 2228.51 L2298.18 2228.51 L2298.18 2224.57 Z" fill="#000000" fill-rule="nonzero" fill-opacity="1" /><path clip-path="url(#clip440)" d="M2337.53 2197.03 Q2333.92 2197.03 2332.09 2200.59 Q2330.29 2204.13 2330.29 2211.26 Q2330.29 2218.37 2332.09 2221.93 Q2333.92 2225.48 2337.53 2225.48 Q2341.17 2225.48 2342.97 2221.93 Q2344.8 2218.37 2344.8 2211.26 Q2344.8 2204.13 2342.97 2200.59 Q2341.17 2197.03 2337.53 2197.03 M2337.53 2193.32 Q2343.34 2193.32 2346.4 2197.93 Q2349.48 2202.51 2349.48 2211.26 Q2349.48 2219.99 2346.4 2224.6 Q2343.34 2229.18 2337.53 2229.18 Q2331.72 2229.18 2328.64 2224.6 Q2325.59 2219.99 2325.59 2211.26 Q2325.59 2202.51 2328.64 2197.93 Q2331.72 2193.32 2337.53 2193.32 Z" fill="#000000" fill-rule="nonzero" fill-opacity="1" /><path clip-path="url(#clip440)" d="M2367.69 2197.03 Q2364.08 2197.03 2362.25 2200.59 Q2360.45 2204.13 2360.45 2211.26 Q2360.45 2218.37 2362.25 2221.93 Q2364.08 2225.48 2367.69 2225.48 Q2371.33 2225.48 2373.13 2221.93 Q2374.96 2218.37 2374.96 2211.26 Q2374.96 2204.13 2373.13 2200.59 Q2371.33 2197.03 2367.69 2197.03 M2367.69 2193.32 Q2373.5 2193.32 2376.56 2197.93 Q2379.64 2202.51 2379.64 2211.26 Q2379.64 2219.99 2376.56 2224.6 Q2373.5 2229.18 2367.69 2229.18 Q2361.88 2229.18 2358.8 2224.6 Q2355.75 2219.99 2355.75 2211.26 Q2355.75 2202.51 2358.8 2197.93 Q2361.88 2193.32 2367.69 2193.32 Z" fill="#000000" fill-rule="nonzero" fill-opacity="1" /><path clip-path="url(#clip440)" d="M2397.85 2197.03 Q2394.24 2197.03 2392.42 2200.59 Q2390.61 2204.13 2390.61 2211.26 Q2390.61 2218.37 2392.42 2221.93 Q2394.24 2225.48 2397.85 2225.48 Q2401.49 2225.48 2403.29 2221.93 Q2405.12 2218.37 2405.12 2211.26 Q2405.12 2204.13 2403.29 2200.59 Q2401.49 2197.03 2397.85 2197.03 M2397.85 2193.32 Q2403.67 2193.32 2406.72 2197.93 Q2409.8 2202.51 2409.8 2211.26 Q2409.8 2219.99 2406.72 2224.6 Q2403.67 2229.18 2397.85 2229.18 Q2392.04 2229.18 2388.97 2224.6 Q2385.91 2219.99 2385.91 2211.26 Q2385.91 2202.51 2388.97 2197.93 Q2392.04 2193.32 2397.85 2193.32 Z" fill="#000000" fill-rule="nonzero" fill-opacity="1" /><path clip-path="url(#clip440)" d="M2428.02 2197.03 Q2424.41 2197.03 2422.58 2200.59 Q2420.77 2204.13 2420.77 2211.26 Q2420.77 2218.37 2422.58 2221.93 Q2424.41 2225.48 2428.02 2225.48 Q2431.65 2225.48 2433.46 2221.93 Q2435.29 2218.37 2435.29 2211.26 Q2435.29 2204.13 2433.46 2200.59 Q2431.65 2197.03 2428.02 2197.03 M2428.02 2193.32 Q2433.83 2193.32 2436.88 2197.93 Q2439.96 2202.51 2439.96 2211.26 Q2439.96 2219.99 2436.88 2224.6 Q2433.83 2229.18 2428.02 2229.18 Q2422.21 2229.18 2419.13 2224.6 Q2416.07 2219.99 2416.07 2211.26 Q2416.07 2202.51 2419.13 2197.93 Q2422.21 2193.32 2428.02 2193.32 Z" fill="#000000" fill-rule="nonzero" fill-opacity="1" /><path clip-path="url(#clip440)" d="M3212.34 2224.57 L3228.66 2224.57 L3228.66 2228.51 L3206.72 2228.51 L3206.72 2224.57 Q3209.38 2221.82 3213.96 2217.19 Q3218.57 2212.54 3219.75 2211.19 Q3222 2208.67 3222.88 2206.93 Q3223.78 2205.17 3223.78 2203.48 Q3223.78 2200.73 3221.83 2198.99 Q3219.91 2197.26 3216.81 2197.26 Q3214.61 2197.26 3212.16 2198.02 Q3209.73 2198.79 3206.95 2200.34 L3206.95 2195.61 Q3209.77 2194.48 3212.23 2193.9 Q3214.68 2193.32 3216.72 2193.32 Q3222.09 2193.32 3225.28 2196.01 Q3228.48 2198.69 3228.48 2203.18 Q3228.48 2205.31 3227.67 2207.23 Q3226.88 2209.13 3224.77 2211.73 Q3224.19 2212.4 3221.09 2215.61 Q3217.99 2218.81 3212.34 2224.57 Z" fill="#000000" fill-rule="nonzero" fill-opacity="1" /><path clip-path="url(#clip440)" d="M3248.48 2197.03 Q3244.87 2197.03 3243.04 2200.59 Q3241.23 2204.13 3241.23 2211.26 Q3241.23 2218.37 3243.04 2221.93 Q3244.87 2225.48 3248.48 2225.48 Q3252.11 2225.48 3253.92 2221.93 Q3255.75 2218.37 3255.75 2211.26 Q3255.75 2204.13 3253.92 2200.59 Q3252.11 2197.03 3248.48 2197.03 M3248.48 2193.32 Q3254.29 2193.32 3257.34 2197.93 Q3260.42 2202.51 3260.42 2211.26 Q3260.42 2219.99 3257.34 2224.6 Q3254.29 2229.18 3248.48 2229.18 Q3242.67 2229.18 3239.59 2224.6 Q3236.53 2219.99 3236.53 2211.26 Q3236.53 2202.51 3239.59 2197.93 Q3242.67 2193.32 3248.48 2193.32 Z" fill="#000000" fill-rule="nonzero" fill-opacity="1" /><path clip-path="url(#clip440)" d="M3278.64 2197.03 Q3275.03 2197.03 3273.2 2200.59 Q3271.39 2204.13 3271.39 2211.26 Q3271.39 2218.37 3273.2 2221.93 Q3275.03 2225.48 3278.64 2225.48 Q3282.27 2225.48 3284.08 2221.93 Q3285.91 2218.37 3285.91 2211.26 Q3285.91 2204.13 3284.08 2200.59 Q3282.27 2197.03 3278.64 2197.03 M3278.64 2193.32 Q3284.45 2193.32 3287.5 2197.93 Q3290.58 2202.51 3290.58 2211.26 Q3290.58 2219.99 3287.5 2224.6 Q3284.45 2229.18 3278.64 2229.18 Q3272.83 2229.18 3269.75 2224.6 Q3266.69 2219.99 3266.69 2211.26 Q3266.69 2202.51 3269.75 2197.93 Q3272.83 2193.32 3278.64 2193.32 Z" fill="#000000" fill-rule="nonzero" fill-opacity="1" /><path clip-path="url(#clip440)" d="M3308.8 2197.03 Q3305.19 2197.03 3303.36 2200.59 Q3301.56 2204.13 3301.56 2211.26 Q3301.56 2218.37 3303.36 2221.93 Q3305.19 2225.48 3308.8 2225.48 Q3312.44 2225.48 3314.24 2221.93 Q3316.07 2218.37 3316.07 2211.26 Q3316.07 2204.13 3314.24 2200.59 Q3312.44 2197.03 3308.8 2197.03 M3308.8 2193.32 Q3314.61 2193.32 3317.67 2197.93 Q3320.75 2202.51 3320.75 2211.26 Q3320.75 2219.99 3317.67 2224.6 Q3314.61 2229.18 3308.8 2229.18 Q3302.99 2229.18 3299.91 2224.6 Q3296.86 2219.99 3296.86 2211.26 Q3296.86 2202.51 3299.91 2197.93 Q3302.99 2193.32 3308.8 2193.32 Z" fill="#000000" fill-rule="nonzero" fill-opacity="1" /><path clip-path="url(#clip440)" d="M3338.96 2197.03 Q3335.35 2197.03 3333.52 2200.59 Q3331.72 2204.13 3331.72 2211.26 Q3331.72 2218.37 3333.52 2221.93 Q3335.35 2225.48 3338.96 2225.48 Q3342.6 2225.48 3344.4 2221.93 Q3346.23 2218.37 3346.23 2211.26 Q3346.23 2204.13 3344.4 2200.59 Q3342.6 2197.03 3338.96 2197.03 M3338.96 2193.32 Q3344.77 2193.32 3347.83 2197.93 Q3350.91 2202.51 3350.91 2211.26 Q3350.91 2219.99 3347.83 2224.6 Q3344.77 2229.18 3338.96 2229.18 Q3333.15 2229.18 3330.07 2224.6 Q3327.02 2219.99 3327.02 2211.26 Q3327.02 2202.51 3330.07 2197.93 Q3333.15 2193.32 3338.96 2193.32 Z" fill="#000000" fill-rule="nonzero" fill-opacity="1" /><path clip-path="url(#clip440)" d="M1789.58 2308.02 L1789.58 2296.42 L1780.03 2296.42 L1780.03 2291.62 L1795.37 2291.62 L1795.37 2310.17 Q1791.98 2312.57 1787.9 2313.81 Q1783.82 2315.03 1779.19 2315.03 Q1769.06 2315.03 1763.33 2309.12 Q1757.63 2303.19 1757.63 2292.63 Q1757.63 2282.04 1763.33 2276.14 Q1769.06 2270.21 1779.19 2270.21 Q1783.42 2270.21 1787.21 2271.25 Q1791.03 2272.29 1794.24 2274.32 L1794.24 2280.54 Q1791 2277.79 1787.35 2276.4 Q1783.71 2275.01 1779.68 2275.01 Q1771.76 2275.01 1767.76 2279.44 Q1763.8 2283.86 1763.8 2292.63 Q1763.8 2301.37 1767.76 2305.8 Q1771.76 2310.22 1779.68 2310.22 Q1782.78 2310.22 1785.21 2309.7 Q1787.64 2309.15 1789.58 2308.02 Z" fill="#000000" fill-rule="nonzero" fill-opacity="1" /><path clip-path="url(#clip440)" d="M1824.59 2286.76 Q1823.69 2286.24 1822.62 2286 Q1821.58 2285.74 1820.31 2285.74 Q1815.79 2285.74 1813.36 2288.7 Q1810.96 2291.62 1810.96 2297.12 L1810.96 2314.19 L1805.61 2314.19 L1805.61 2281.78 L1810.96 2281.78 L1810.96 2286.82 Q1812.64 2283.86 1815.33 2282.45 Q1818.02 2281 1821.87 2281 Q1822.42 2281 1823.09 2281.09 Q1823.75 2281.14 1824.56 2281.29 L1824.59 2286.76 Z" fill="#000000" fill-rule="nonzero" fill-opacity="1" /><path clip-path="url(#clip440)" d="M1830.17 2281.78 L1835.5 2281.78 L1835.5 2314.19 L1830.17 2314.19 L1830.17 2281.78 M1830.17 2269.16 L1835.5 2269.16 L1835.5 2275.91 L1830.17 2275.91 L1830.17 2269.16 Z" fill="#000000" fill-rule="nonzero" fill-opacity="1" /><path clip-path="url(#clip440)" d="M1867.96 2286.7 L1867.96 2269.16 L1873.29 2269.16 L1873.29 2314.19 L1867.96 2314.19 L1867.96 2309.33 Q1866.29 2312.22 1863.71 2313.64 Q1861.16 2315.03 1857.58 2315.03 Q1851.7 2315.03 1848 2310.34 Q1844.32 2305.65 1844.32 2298.01 Q1844.32 2290.37 1848 2285.69 Q1851.7 2281 1857.58 2281 Q1861.16 2281 1863.71 2282.42 Q1866.29 2283.81 1867.96 2286.7 M1849.82 2298.01 Q1849.82 2303.89 1852.22 2307.24 Q1854.65 2310.57 1858.88 2310.57 Q1863.1 2310.57 1865.53 2307.24 Q1867.96 2303.89 1867.96 2298.01 Q1867.96 2292.14 1865.53 2288.81 Q1863.1 2285.46 1858.88 2285.46 Q1854.65 2285.46 1852.22 2288.81 Q1849.82 2292.14 1849.82 2298.01 Z" fill="#000000" fill-rule="nonzero" fill-opacity="1" /><path clip-path="url(#clip440)" d="M1923.75 2282.74 L1923.75 2287.77 Q1921.49 2286.61 1919.06 2286.03 Q1916.63 2285.46 1914.03 2285.46 Q1910.06 2285.46 1908.07 2286.67 Q1906.1 2287.89 1906.1 2290.32 Q1906.1 2292.17 1907.52 2293.24 Q1908.94 2294.28 1913.22 2295.24 L1915.04 2295.64 Q1920.71 2296.86 1923.09 2299.08 Q1925.49 2301.28 1925.49 2305.25 Q1925.49 2309.76 1921.9 2312.39 Q1918.34 2315.03 1912.09 2315.03 Q1909.49 2315.03 1906.65 2314.51 Q1903.84 2314.01 1900.72 2313 L1900.72 2307.5 Q1903.67 2309.04 1906.53 2309.82 Q1909.4 2310.57 1912.21 2310.57 Q1915.97 2310.57 1917.99 2309.3 Q1920.02 2308 1920.02 2305.65 Q1920.02 2303.48 1918.54 2302.32 Q1917.1 2301.17 1912.15 2300.1 L1910.3 2299.66 Q1905.35 2298.62 1903.15 2296.48 Q1900.95 2294.31 1900.95 2290.55 Q1900.95 2285.98 1904.19 2283.49 Q1907.43 2281 1913.39 2281 Q1916.34 2281 1918.95 2281.43 Q1921.55 2281.87 1923.75 2282.74 Z" fill="#000000" fill-rule="nonzero" fill-opacity="1" /><path clip-path="url(#clip440)" d="M1933.96 2281.78 L1939.29 2281.78 L1939.29 2314.19 L1933.96 2314.19 L1933.96 2281.78 M1933.96 2269.16 L1939.29 2269.16 L1939.29 2275.91 L1933.96 2275.91 L1933.96 2269.16 Z" fill="#000000" fill-rule="nonzero" fill-opacity="1" /><path clip-path="url(#clip440)" d="M1948.11 2281.78 L1973.4 2281.78 L1973.4 2286.64 L1953.38 2309.93 L1973.4 2309.93 L1973.4 2314.19 L1947.39 2314.19 L1947.39 2309.33 L1967.41 2286.03 L1948.11 2286.03 L1948.11 2281.78 Z" fill="#000000" fill-rule="nonzero" fill-opacity="1" /><path clip-path="url(#clip440)" d="M2009.25 2296.65 L2009.25 2299.26 L1984.77 2299.26 Q1985.12 2304.75 1988.07 2307.65 Q1991.05 2310.51 1996.35 2310.51 Q1999.42 2310.51 2002.28 2309.76 Q2005.17 2309.01 2008.01 2307.5 L2008.01 2312.54 Q2005.14 2313.75 2002.14 2314.39 Q1999.13 2315.03 1996.03 2315.03 Q1988.28 2315.03 1983.73 2310.51 Q1979.22 2306 1979.22 2298.3 Q1979.22 2290.35 1983.5 2285.69 Q1987.81 2281 1995.1 2281 Q2001.64 2281 2005.43 2285.22 Q2009.25 2289.42 2009.25 2296.65 M2003.93 2295.09 Q2003.87 2290.72 2001.47 2288.12 Q1999.1 2285.51 1995.16 2285.51 Q1990.71 2285.51 1988.02 2288.03 Q1985.35 2290.55 1984.95 2295.12 L2003.93 2295.09 Z" fill="#000000" fill-rule="nonzero" fill-opacity="1" /><path clip-path="url(#clip440)" d="M2037.06 2270.99 L2044.93 2270.99 L2064.09 2307.13 L2064.09 2270.99 L2069.76 2270.99 L2069.76 2314.19 L2061.89 2314.19 L2042.73 2278.05 L2042.73 2314.19 L2037.06 2314.19 L2037.06 2270.99 Z" fill="#000000" fill-rule="nonzero" fill-opacity="1" /><polyline clip-path="url(#clip440)" style="stroke:#000000; stroke-linecap:round; stroke-linejoin:round; stroke-width:4; stroke-opacity:1; fill:none" points="274.636,2156.51 274.636,246.944 "/>
<polyline clip-path="url(#clip440)" style="stroke:#000000; stroke-linecap:round; stroke-linejoin:round; stroke-width:4; stroke-opacity:1; fill:none" points="274.636,2156.51 293.533,2156.51 "/>
<polyline clip-path="url(#clip440)" style="stroke:#000000; stroke-linecap:round; stroke-linejoin:round; stroke-width:4; stroke-opacity:1; fill:none" points="274.636,1534.74 293.533,1534.74 "/>
<polyline clip-path="url(#clip440)" style="stroke:#000000; stroke-linecap:round; stroke-linejoin:round; stroke-width:4; stroke-opacity:1; fill:none" points="274.636,912.975 293.533,912.975 "/>
<polyline clip-path="url(#clip440)" style="stroke:#000000; stroke-linecap:round; stroke-linejoin:round; stroke-width:4; stroke-opacity:1; fill:none" points="274.636,291.208 293.533,291.208 "/>
<path clip-path="url(#clip440)" d="M208.691 2142.31 Q205.08 2142.31 203.252 2145.87 Q201.446 2149.41 201.446 2156.54 Q201.446 2163.65 203.252 2167.21 Q205.08 2170.76 208.691 2170.76 Q212.326 2170.76 214.131 2167.21 Q215.96 2163.65 215.96 2156.54 Q215.96 2149.41 214.131 2145.87 Q212.326 2142.31 208.691 2142.31 M208.691 2138.6 Q214.501 2138.6 217.557 2143.21 Q220.636 2147.79 220.636 2156.54 Q220.636 2165.27 217.557 2169.88 Q214.501 2174.46 208.691 2174.46 Q202.881 2174.46 199.802 2169.88 Q196.747 2165.27 196.747 2156.54 Q196.747 2147.79 199.802 2143.21 Q202.881 2138.6 208.691 2138.6 Z" fill="#000000" fill-rule="nonzero" fill-opacity="1" /><path clip-path="url(#clip440)" d="M169.34 1548.09 L176.979 1548.09 L176.979 1521.72 L168.668 1523.39 L168.668 1519.13 L176.932 1517.46 L181.608 1517.46 L181.608 1548.09 L189.247 1548.09 L189.247 1552.02 L169.34 1552.02 L169.34 1548.09 Z" fill="#000000" fill-rule="nonzero" fill-opacity="1" /><path clip-path="url(#clip440)" d="M208.691 1520.54 Q205.08 1520.54 203.252 1524.1 Q201.446 1527.65 201.446 1534.78 Q201.446 1541.88 203.252 1545.45 Q205.08 1548.99 208.691 1548.99 Q212.326 1548.99 214.131 1545.45 Q215.96 1541.88 215.96 1534.78 Q215.96 1527.65 214.131 1524.1 Q212.326 1520.54 208.691 1520.54 M208.691 1516.84 Q214.501 1516.84 217.557 1521.44 Q220.636 1526.03 220.636 1534.78 Q220.636 1543.5 217.557 1548.11 Q214.501 1552.69 208.691 1552.69 Q202.881 1552.69 199.802 1548.11 Q196.747 1543.5 196.747 1534.78 Q196.747 1526.03 199.802 1521.44 Q202.881 1516.84 208.691 1516.84 Z" fill="#000000" fill-rule="nonzero" fill-opacity="1" /><path clip-path="url(#clip440)" d="M172.557 926.32 L188.877 926.32 L188.877 930.255 L166.932 930.255 L166.932 926.32 Q169.594 923.565 174.178 918.935 Q178.784 914.283 179.965 912.94 Q182.21 910.417 183.09 908.681 Q183.992 906.922 183.992 905.232 Q183.992 902.477 182.048 900.741 Q180.127 899.005 177.025 899.005 Q174.826 899.005 172.372 899.769 Q169.942 900.533 167.164 902.084 L167.164 897.361 Q169.988 896.227 172.442 895.649 Q174.895 895.07 176.932 895.07 Q182.303 895.07 185.497 897.755 Q188.691 900.44 188.691 904.931 Q188.691 907.06 187.881 908.982 Q187.094 910.88 184.988 913.472 Q184.409 914.144 181.307 917.361 Q178.205 920.556 172.557 926.32 Z" fill="#000000" fill-rule="nonzero" fill-opacity="1" /><path clip-path="url(#clip440)" d="M208.691 898.773 Q205.08 898.773 203.252 902.338 Q201.446 905.88 201.446 913.01 Q201.446 920.116 203.252 923.681 Q205.08 927.222 208.691 927.222 Q212.326 927.222 214.131 923.681 Q215.96 920.116 215.96 913.01 Q215.96 905.88 214.131 902.338 Q212.326 898.773 208.691 898.773 M208.691 895.07 Q214.501 895.07 217.557 899.676 Q220.636 904.26 220.636 913.01 Q220.636 921.736 217.557 926.343 Q214.501 930.926 208.691 930.926 Q202.881 930.926 199.802 926.343 Q196.747 921.736 196.747 913.01 Q196.747 904.26 199.802 899.676 Q202.881 895.07 208.691 895.07 Z" fill="#000000" fill-rule="nonzero" fill-opacity="1" /><path clip-path="url(#clip440)" d="M182.696 289.854 Q186.053 290.572 187.928 292.84 Q189.826 295.109 189.826 298.442 Q189.826 303.558 186.307 306.359 Q182.789 309.16 176.307 309.16 Q174.131 309.16 171.817 308.72 Q169.525 308.303 167.071 307.447 L167.071 302.933 Q169.016 304.067 171.33 304.646 Q173.645 305.224 176.168 305.224 Q180.566 305.224 182.858 303.488 Q185.173 301.752 185.173 298.442 Q185.173 295.387 183.02 293.674 Q180.891 291.937 177.071 291.937 L173.043 291.937 L173.043 288.095 L177.256 288.095 Q180.705 288.095 182.534 286.729 Q184.363 285.34 184.363 282.748 Q184.363 280.086 182.465 278.674 Q180.59 277.239 177.071 277.239 Q175.15 277.239 172.951 277.655 Q170.752 278.072 168.113 278.951 L168.113 274.785 Q170.775 274.044 173.09 273.674 Q175.428 273.303 177.488 273.303 Q182.812 273.303 185.914 275.734 Q189.015 278.141 189.015 282.262 Q189.015 285.132 187.372 287.123 Q185.728 289.09 182.696 289.854 Z" fill="#000000" fill-rule="nonzero" fill-opacity="1" /><path clip-path="url(#clip440)" d="M208.691 277.007 Q205.08 277.007 203.252 280.572 Q201.446 284.113 201.446 291.243 Q201.446 298.35 203.252 301.914 Q205.08 305.456 208.691 305.456 Q212.326 305.456 214.131 301.914 Q215.96 298.35 215.96 291.243 Q215.96 284.113 214.131 280.572 Q212.326 277.007 208.691 277.007 M208.691 273.303 Q214.501 273.303 217.557 277.91 Q220.636 282.493 220.636 291.243 Q220.636 299.97 217.557 304.576 Q214.501 309.16 208.691 309.16 Q202.881 309.16 199.802 304.576 Q196.747 299.97 196.747 291.243 Q196.747 282.493 199.802 277.91 Q202.881 273.303 208.691 273.303 Z" fill="#000000" fill-rule="nonzero" fill-opacity="1" /><path clip-path="url(#clip440)" d="M58.1901 1374.69 L63.8903 1374.69 Q62.2989 1378.01 61.5176 1380.96 Q60.7364 1383.92 60.7364 1386.66 Q60.7364 1391.44 62.5882 1394.04 Q64.4401 1396.62 67.8544 1396.62 Q70.719 1396.62 72.1947 1394.91 Q73.6414 1393.17 74.5384 1388.37 L75.2618 1384.84 Q76.506 1378.3 79.6599 1375.21 Q82.7849 1372.08 88.0511 1372.08 Q94.33 1372.08 97.5707 1376.31 Q100.811 1380.5 100.811 1388.63 Q100.811 1391.7 100.117 1395.17 Q99.4225 1398.61 98.0626 1402.32 L92.0441 1402.32 Q94.0406 1398.76 95.0533 1395.34 Q96.0661 1391.93 96.0661 1388.63 Q96.0661 1383.63 94.0985 1380.91 Q92.1309 1378.19 88.4851 1378.19 Q85.3022 1378.19 83.5083 1380.15 Q81.7143 1382.09 80.8173 1386.55 L80.1229 1390.11 Q78.8208 1396.65 76.043 1399.57 Q73.2653 1402.49 68.3174 1402.49 Q62.5882 1402.49 59.2896 1398.47 Q55.991 1394.42 55.991 1387.33 Q55.991 1384.29 56.5408 1381.14 Q57.0906 1377.98 58.1901 1374.69 Z" fill="#000000" fill-rule="nonzero" fill-opacity="1" /><path clip-path="url(#clip440)" d="M71.2977 1350.64 Q71.2977 1354.92 74.6541 1357.41 Q77.9817 1359.9 83.7976 1359.9 Q89.6135 1359.9 92.97 1357.44 Q96.2975 1354.95 96.2975 1350.64 Q96.2975 1346.39 92.9411 1343.9 Q89.5846 1341.41 83.7976 1341.41 Q78.0395 1341.41 74.6831 1343.9 Q71.2977 1346.39 71.2977 1350.64 M66.7838 1350.64 Q66.7838 1343.7 71.2977 1339.73 Q75.8115 1335.77 83.7976 1335.77 Q91.7547 1335.77 96.2975 1339.73 Q100.811 1343.7 100.811 1350.64 Q100.811 1357.61 96.2975 1361.58 Q91.7547 1365.51 83.7976 1365.51 Q75.8115 1365.51 71.2977 1361.58 Q66.7838 1357.61 66.7838 1350.64 Z" fill="#000000" fill-rule="nonzero" fill-opacity="1" /><path clip-path="url(#clip440)" d="M54.9494 1326.94 L54.9494 1321.62 L99.9723 1321.62 L99.9723 1326.94 L54.9494 1326.94 Z" fill="#000000" fill-rule="nonzero" fill-opacity="1" /><path clip-path="url(#clip440)" d="M67.565 1314.3 L67.565 1308.66 L94.764 1298.53 L67.565 1288.4 L67.565 1282.76 L99.9723 1294.91 L99.9723 1302.15 L67.565 1314.3 Z" fill="#000000" fill-rule="nonzero" fill-opacity="1" /><path clip-path="url(#clip440)" d="M82.4377 1247.69 L85.0418 1247.69 L85.0418 1272.17 Q90.5395 1271.82 93.433 1268.87 Q96.2975 1265.89 96.2975 1260.59 Q96.2975 1257.53 95.5452 1254.66 Q94.7929 1251.77 93.2883 1248.93 L98.323 1248.93 Q99.5383 1251.8 100.175 1254.81 Q100.811 1257.82 100.811 1260.91 Q100.811 1268.67 96.2975 1273.21 Q91.7837 1277.72 84.087 1277.72 Q76.1298 1277.72 71.4713 1273.44 Q66.7838 1269.13 66.7838 1261.84 Q66.7838 1255.3 71.0083 1251.51 Q75.2039 1247.69 82.4377 1247.69 M80.8752 1253.01 Q76.506 1253.07 73.9018 1255.47 Q71.2977 1257.85 71.2977 1261.78 Q71.2977 1266.24 73.815 1268.93 Q76.3324 1271.59 80.9041 1271.99 L80.8752 1253.01 Z" fill="#000000" fill-rule="nonzero" fill-opacity="1" /><path clip-path="url(#clip440)" d="M58.3637 1214.85 L67.565 1214.85 L67.565 1203.88 L71.7028 1203.88 L71.7028 1214.85 L89.2953 1214.85 Q93.2594 1214.85 94.3878 1213.78 Q95.5163 1212.68 95.5163 1209.35 L95.5163 1203.88 L99.9723 1203.88 L99.9723 1209.35 Q99.9723 1215.51 97.6864 1217.86 Q95.3716 1220.2 89.2953 1220.2 L71.7028 1220.2 L71.7028 1224.11 L67.565 1224.11 L67.565 1220.2 L58.3637 1220.2 L58.3637 1214.85 Z" fill="#000000" fill-rule="nonzero" fill-opacity="1" /><path clip-path="url(#clip440)" d="M67.565 1196.88 L67.565 1191.56 L99.9723 1191.56 L99.9723 1196.88 L67.565 1196.88 M54.9494 1196.88 L54.9494 1191.56 L61.6912 1191.56 L61.6912 1196.88 L54.9494 1196.88 Z" fill="#000000" fill-rule="nonzero" fill-opacity="1" /><path clip-path="url(#clip440)" d="M73.7861 1155.18 Q70.1981 1153.19 68.491 1150.41 Q66.7838 1147.63 66.7838 1143.87 Q66.7838 1138.81 70.3428 1136.06 Q73.8729 1133.31 80.4122 1133.31 L99.9723 1133.31 L99.9723 1138.66 L80.5858 1138.66 Q75.9273 1138.66 73.6703 1140.31 Q71.4134 1141.96 71.4134 1145.35 Q71.4134 1149.48 74.1622 1151.89 Q76.9111 1154.29 81.6564 1154.29 L99.9723 1154.29 L99.9723 1159.64 L80.5858 1159.64 Q75.8983 1159.64 73.6703 1161.29 Q71.4134 1162.94 71.4134 1166.38 Q71.4134 1170.46 74.1912 1172.86 Q76.94 1175.26 81.6564 1175.26 L99.9723 1175.26 L99.9723 1180.62 L67.565 1180.62 L67.565 1175.26 L72.5997 1175.26 Q69.6194 1173.44 68.2016 1170.9 Q66.7838 1168.35 66.7838 1164.85 Q66.7838 1161.32 68.5778 1158.86 Q70.3717 1156.37 73.7861 1155.18 Z" fill="#000000" fill-rule="nonzero" fill-opacity="1" /><path clip-path="url(#clip440)" d="M82.4377 1094.97 L85.0418 1094.97 L85.0418 1119.45 Q90.5395 1119.1 93.433 1116.15 Q96.2975 1113.17 96.2975 1107.88 Q96.2975 1104.81 95.5452 1101.94 Q94.7929 1099.05 93.2883 1096.21 L98.323 1096.21 Q99.5383 1099.08 100.175 1102.09 Q100.811 1105.1 100.811 1108.19 Q100.811 1115.95 96.2975 1120.49 Q91.7837 1125 84.087 1125 Q76.1298 1125 71.4713 1120.72 Q66.7838 1116.41 66.7838 1109.12 Q66.7838 1102.58 71.0083 1098.79 Q75.2039 1094.97 82.4377 1094.97 M80.8752 1100.29 Q76.506 1100.35 73.9018 1102.75 Q71.2977 1105.13 71.2977 1109.06 Q71.2977 1113.52 73.815 1116.21 Q76.3324 1118.87 80.9041 1119.28 L80.8752 1100.29 Z" fill="#000000" fill-rule="nonzero" fill-opacity="1" /><path clip-path="url(#clip440)" d="M55.0072 1054.61 Q61.6623 1058.48 68.1727 1060.36 Q74.6831 1062.24 81.3671 1062.24 Q88.0511 1062.24 94.6193 1060.36 Q101.159 1058.45 107.785 1054.61 L107.785 1059.24 Q100.985 1063.58 94.4168 1065.75 Q87.8485 1067.89 81.3671 1067.89 Q74.9145 1067.89 68.3752 1065.75 Q61.8359 1063.6 55.0072 1059.24 L55.0072 1054.61 Z" fill="#000000" fill-rule="nonzero" fill-opacity="1" /><path clip-path="url(#clip440)" d="M68.5199 1023.62 L73.5546 1023.62 Q72.3972 1025.87 71.8185 1028.3 Q71.2398 1030.73 71.2398 1033.34 Q71.2398 1037.3 72.4551 1039.3 Q73.6703 1041.27 76.1009 1041.27 Q77.9527 1041.27 79.0233 1039.85 Q80.065 1038.43 81.0198 1034.15 L81.4249 1032.33 Q82.6402 1026.65 84.8682 1024.28 Q87.0673 1021.88 91.0314 1021.88 Q95.5452 1021.88 98.1783 1025.47 Q100.811 1029.03 100.811 1035.28 Q100.811 1037.88 100.291 1040.72 Q99.7987 1043.52 98.7859 1046.65 L93.2883 1046.65 Q94.8218 1043.7 95.6031 1040.83 Q96.3554 1037.97 96.3554 1035.16 Q96.3554 1031.4 95.0823 1029.37 Q93.7802 1027.35 91.4364 1027.35 Q89.2663 1027.35 88.1089 1028.82 Q86.9515 1030.27 85.8809 1035.22 L85.4469 1037.07 Q84.4052 1042.02 82.264 1044.22 Q80.0939 1046.42 76.3324 1046.42 Q71.7606 1046.42 69.2722 1043.18 Q66.7838 1039.94 66.7838 1033.98 Q66.7838 1031.02 67.2178 1028.42 Q67.6519 1025.82 68.5199 1023.62 Z" fill="#000000" fill-rule="nonzero" fill-opacity="1" /><path clip-path="url(#clip440)" d="M55.0072 1014.24 L55.0072 1009.61 Q61.8359 1005.27 68.3752 1003.13 Q74.9145 1000.96 81.3671 1000.96 Q87.8485 1000.96 94.4168 1003.13 Q100.985 1005.27 107.785 1009.61 L107.785 1014.24 Q101.159 1010.39 94.6193 1008.51 Q88.0511 1006.6 81.3671 1006.6 Q74.6831 1006.6 68.1727 1008.51 Q61.6623 1010.39 55.0072 1014.24 Z" fill="#000000" fill-rule="nonzero" fill-opacity="1" /><path clip-path="url(#clip440)" d="M1197.05 125.969 L1197.05 133.949 Q1192.39 131.721 1188.26 130.627 Q1184.13 129.534 1180.28 129.534 Q1173.6 129.534 1169.95 132.126 Q1166.34 134.719 1166.34 139.499 Q1166.34 143.509 1168.73 145.575 Q1171.17 147.601 1177.89 148.857 L1182.83 149.869 Q1191.99 151.611 1196.32 156.027 Q1200.7 160.402 1200.7 167.774 Q1200.7 176.565 1194.78 181.102 Q1188.91 185.639 1177.52 185.639 Q1173.23 185.639 1168.37 184.667 Q1163.55 183.694 1158.36 181.79 L1158.36 173.365 Q1163.35 176.16 1168.13 177.577 Q1172.91 178.995 1177.52 178.995 Q1184.53 178.995 1188.34 176.241 Q1192.15 173.486 1192.15 168.382 Q1192.15 163.926 1189.39 161.414 Q1186.68 158.903 1180.44 157.647 L1175.46 156.675 Q1166.3 154.852 1162.21 150.963 Q1158.12 147.074 1158.12 140.147 Q1158.12 132.126 1163.75 127.508 Q1169.42 122.89 1179.35 122.89 Q1183.6 122.89 1188.02 123.66 Q1192.43 124.43 1197.05 125.969 Z" fill="#000000" fill-rule="nonzero" fill-opacity="1" /><path clip-path="url(#clip440)" d="M1230.71 144.32 Q1224.72 144.32 1221.23 149.019 Q1217.75 153.677 1217.75 161.819 Q1217.75 169.962 1221.19 174.661 Q1224.68 179.319 1230.71 179.319 Q1236.67 179.319 1240.15 174.62 Q1243.64 169.921 1243.64 161.819 Q1243.64 153.758 1240.15 149.059 Q1236.67 144.32 1230.71 144.32 M1230.71 138 Q1240.44 138 1245.99 144.32 Q1251.53 150.639 1251.53 161.819 Q1251.53 172.959 1245.99 179.319 Q1240.44 185.639 1230.71 185.639 Q1220.95 185.639 1215.4 179.319 Q1209.89 172.959 1209.89 161.819 Q1209.89 150.639 1215.4 144.32 Q1220.95 138 1230.71 138 Z" fill="#000000" fill-rule="nonzero" fill-opacity="1" /><path clip-path="url(#clip440)" d="M1263.89 121.432 L1271.34 121.432 L1271.34 184.464 L1263.89 184.464 L1263.89 121.432 Z" fill="#000000" fill-rule="nonzero" fill-opacity="1" /><path clip-path="url(#clip440)" d="M1281.59 139.094 L1289.49 139.094 L1303.67 177.172 L1317.85 139.094 L1325.75 139.094 L1308.73 184.464 L1298.61 184.464 L1281.59 139.094 Z" fill="#000000" fill-rule="nonzero" fill-opacity="1" /><path clip-path="url(#clip440)" d="M1374.84 159.916 L1374.84 163.561 L1340.57 163.561 Q1341.06 171.258 1345.19 175.309 Q1349.36 179.319 1356.78 179.319 Q1361.07 179.319 1365.08 178.266 Q1369.13 177.213 1373.1 175.106 L1373.1 182.155 Q1369.09 183.856 1364.88 184.748 Q1360.67 185.639 1356.33 185.639 Q1345.48 185.639 1339.12 179.319 Q1332.8 173 1332.8 162.225 Q1332.8 151.085 1338.79 144.563 Q1344.83 138 1355.04 138 Q1364.19 138 1369.5 143.914 Q1374.84 149.788 1374.84 159.916 M1367.39 157.728 Q1367.31 151.611 1363.95 147.965 Q1360.63 144.32 1355.12 144.32 Q1348.88 144.32 1345.11 147.844 Q1341.38 151.368 1340.82 157.769 L1367.39 157.728 Z" fill="#000000" fill-rule="nonzero" fill-opacity="1" /><path clip-path="url(#clip440)" d="M1420.82 126.212 L1420.82 139.094 L1436.18 139.094 L1436.18 144.887 L1420.82 144.887 L1420.82 169.516 Q1420.82 175.066 1422.32 176.646 Q1423.86 178.226 1428.52 178.226 L1436.18 178.226 L1436.18 184.464 L1428.52 184.464 Q1419.89 184.464 1416.61 181.264 Q1413.33 178.023 1413.33 169.516 L1413.33 144.887 L1407.86 144.887 L1407.86 139.094 L1413.33 139.094 L1413.33 126.212 L1420.82 126.212 Z" fill="#000000" fill-rule="nonzero" fill-opacity="1" /><path clip-path="url(#clip440)" d="M1445.98 139.094 L1453.43 139.094 L1453.43 184.464 L1445.98 184.464 L1445.98 139.094 M1445.98 121.432 L1453.43 121.432 L1453.43 130.871 L1445.98 130.871 L1445.98 121.432 Z" fill="#000000" fill-rule="nonzero" fill-opacity="1" /><path clip-path="url(#clip440)" d="M1504.35 147.803 Q1507.15 142.78 1511.04 140.39 Q1514.92 138 1520.19 138 Q1527.28 138 1531.13 142.983 Q1534.98 147.925 1534.98 157.08 L1534.98 184.464 L1527.48 184.464 L1527.48 157.323 Q1527.48 150.801 1525.17 147.641 Q1522.86 144.482 1518.13 144.482 Q1512.33 144.482 1508.97 148.33 Q1505.61 152.178 1505.61 158.822 L1505.61 184.464 L1498.11 184.464 L1498.11 157.323 Q1498.11 150.76 1495.8 147.641 Q1493.5 144.482 1488.67 144.482 Q1482.96 144.482 1479.6 148.37 Q1476.24 152.219 1476.24 158.822 L1476.24 184.464 L1468.74 184.464 L1468.74 139.094 L1476.24 139.094 L1476.24 146.142 Q1478.79 141.97 1482.36 139.985 Q1485.92 138 1490.82 138 Q1495.76 138 1499.21 140.512 Q1502.69 143.023 1504.35 147.803 Z" fill="#000000" fill-rule="nonzero" fill-opacity="1" /><path clip-path="url(#clip440)" d="M1588.65 159.916 L1588.65 163.561 L1554.38 163.561 Q1554.87 171.258 1559 175.309 Q1563.17 179.319 1570.58 179.319 Q1574.88 179.319 1578.89 178.266 Q1582.94 177.213 1586.91 175.106 L1586.91 182.155 Q1582.9 183.856 1578.69 184.748 Q1574.47 185.639 1570.14 185.639 Q1559.28 185.639 1552.92 179.319 Q1546.6 173 1546.6 162.225 Q1546.6 151.085 1552.6 144.563 Q1558.63 138 1568.84 138 Q1578 138 1583.3 143.914 Q1588.65 149.788 1588.65 159.916 M1581.2 157.728 Q1581.12 151.611 1577.75 147.965 Q1574.43 144.32 1568.92 144.32 Q1562.68 144.32 1558.92 147.844 Q1555.19 151.368 1554.62 157.769 L1581.2 157.728 Z" fill="#000000" fill-rule="nonzero" fill-opacity="1" /><path clip-path="url(#clip440)" d="M1621.91 139.094 L1629.81 139.094 L1643.99 177.172 L1658.16 139.094 L1666.06 139.094 L1649.05 184.464 L1638.92 184.464 L1621.91 139.094 Z" fill="#000000" fill-rule="nonzero" fill-opacity="1" /><path clip-path="url(#clip440)" d="M1705.28 140.431 L1705.28 147.479 Q1702.12 145.859 1698.71 145.049 Q1695.31 144.239 1691.67 144.239 Q1686.12 144.239 1683.32 145.94 Q1680.57 147.641 1680.57 151.044 Q1680.57 153.637 1682.55 155.135 Q1684.54 156.594 1690.53 157.931 L1693.08 158.498 Q1701.02 160.199 1704.35 163.318 Q1707.71 166.397 1707.71 171.947 Q1707.71 178.266 1702.68 181.952 Q1697.7 185.639 1688.95 185.639 Q1685.31 185.639 1681.34 184.91 Q1677.41 184.221 1673.03 182.803 L1673.03 175.106 Q1677.16 177.253 1681.17 178.347 Q1685.18 179.4 1689.11 179.4 Q1694.38 179.4 1697.22 177.618 Q1700.05 175.795 1700.05 172.514 Q1700.05 169.476 1697.99 167.855 Q1695.96 166.235 1689.03 164.736 L1686.44 164.128 Q1679.51 162.67 1676.43 159.672 Q1673.36 156.634 1673.36 151.368 Q1673.36 144.968 1677.89 141.484 Q1682.43 138 1690.77 138 Q1694.91 138 1698.55 138.608 Q1702.2 139.215 1705.28 140.431 Z" fill="#000000" fill-rule="nonzero" fill-opacity="1" /><path clip-path="url(#clip440)" d="M1775.8 161.252 Q1775.8 153.151 1772.44 148.695 Q1769.12 144.239 1763.08 144.239 Q1757.09 144.239 1753.73 148.695 Q1750.4 153.151 1750.4 161.252 Q1750.4 169.314 1753.73 173.77 Q1757.09 178.226 1763.08 178.226 Q1769.12 178.226 1772.44 173.77 Q1775.8 169.314 1775.8 161.252 M1783.26 178.833 Q1783.26 190.419 1778.11 196.05 Q1772.97 201.721 1762.35 201.721 Q1758.42 201.721 1754.94 201.113 Q1751.46 200.546 1748.18 199.331 L1748.18 192.08 Q1751.46 193.862 1754.66 194.713 Q1757.86 195.563 1761.18 195.563 Q1768.51 195.563 1772.16 191.715 Q1775.8 187.907 1775.8 180.17 L1775.8 176.484 Q1773.49 180.494 1769.89 182.479 Q1766.28 184.464 1761.26 184.464 Q1752.92 184.464 1747.81 178.104 Q1742.71 171.744 1742.71 161.252 Q1742.71 150.72 1747.81 144.36 Q1752.92 138 1761.26 138 Q1766.28 138 1769.89 139.985 Q1773.49 141.97 1775.8 145.98 L1775.8 139.094 L1783.26 139.094 L1783.26 178.833 Z" fill="#000000" fill-rule="nonzero" fill-opacity="1" /><path clip-path="url(#clip440)" d="M1824.9 146.061 Q1823.64 145.332 1822.15 145.008 Q1820.69 144.644 1818.9 144.644 Q1812.59 144.644 1809.18 148.776 Q1805.82 152.867 1805.82 160.564 L1805.82 184.464 L1798.33 184.464 L1798.33 139.094 L1805.82 139.094 L1805.82 146.142 Q1808.17 142.011 1811.94 140.026 Q1815.7 138 1821.09 138 Q1821.86 138 1822.79 138.122 Q1823.73 138.203 1824.86 138.405 L1824.9 146.061 Z" fill="#000000" fill-rule="nonzero" fill-opacity="1" /><path clip-path="url(#clip440)" d="M1832.72 139.094 L1840.17 139.094 L1840.17 184.464 L1832.72 184.464 L1832.72 139.094 M1832.72 121.432 L1840.17 121.432 L1840.17 130.871 L1832.72 130.871 L1832.72 121.432 Z" fill="#000000" fill-rule="nonzero" fill-opacity="1" /><path clip-path="url(#clip440)" d="M1885.62 145.98 L1885.62 121.432 L1893.08 121.432 L1893.08 184.464 L1885.62 184.464 L1885.62 177.658 Q1883.27 181.709 1879.67 183.694 Q1876.1 185.639 1871.08 185.639 Q1862.86 185.639 1857.67 179.076 Q1852.53 172.514 1852.53 161.819 Q1852.53 151.125 1857.67 144.563 Q1862.86 138 1871.08 138 Q1876.1 138 1879.67 139.985 Q1883.27 141.93 1885.62 145.98 M1860.22 161.819 Q1860.22 170.043 1863.59 174.742 Q1866.99 179.4 1872.9 179.4 Q1878.82 179.4 1882.22 174.742 Q1885.62 170.043 1885.62 161.819 Q1885.62 153.596 1882.22 148.938 Q1878.82 144.239 1872.9 144.239 Q1866.99 144.239 1863.59 148.938 Q1860.22 153.596 1860.22 161.819 Z" fill="#000000" fill-rule="nonzero" fill-opacity="1" /><path clip-path="url(#clip440)" d="M1963.72 140.431 L1963.72 147.479 Q1960.56 145.859 1957.16 145.049 Q1953.76 144.239 1950.11 144.239 Q1944.56 144.239 1941.77 145.94 Q1939.01 147.641 1939.01 151.044 Q1939.01 153.637 1941 155.135 Q1942.98 156.594 1948.98 157.931 L1951.53 158.498 Q1959.47 160.199 1962.79 163.318 Q1966.16 166.397 1966.16 171.947 Q1966.16 178.266 1961.13 181.952 Q1956.15 185.639 1947.4 185.639 Q1943.75 185.639 1939.78 184.91 Q1935.85 184.221 1931.48 182.803 L1931.48 175.106 Q1935.61 177.253 1939.62 178.347 Q1943.63 179.4 1947.56 179.4 Q1952.83 179.4 1955.66 177.618 Q1958.5 175.795 1958.5 172.514 Q1958.5 169.476 1956.43 167.855 Q1954.41 166.235 1947.48 164.736 L1944.89 164.128 Q1937.96 162.67 1934.88 159.672 Q1931.8 156.634 1931.8 151.368 Q1931.8 144.968 1936.34 141.484 Q1940.88 138 1949.22 138 Q1953.35 138 1957 138.608 Q1960.65 139.215 1963.72 140.431 Z" fill="#000000" fill-rule="nonzero" fill-opacity="1" /><path clip-path="url(#clip440)" d="M1978.02 139.094 L1985.48 139.094 L1985.48 184.464 L1978.02 184.464 L1978.02 139.094 M1978.02 121.432 L1985.48 121.432 L1985.48 130.871 L1978.02 130.871 L1978.02 121.432 Z" fill="#000000" fill-rule="nonzero" fill-opacity="1" /><path clip-path="url(#clip440)" d="M1997.83 139.094 L2033.24 139.094 L2033.24 145.899 L2005.21 178.509 L2033.24 178.509 L2033.24 184.464 L1996.82 184.464 L1996.82 177.658 L2024.85 145.049 L1997.83 145.049 L1997.83 139.094 Z" fill="#000000" fill-rule="nonzero" fill-opacity="1" /><path clip-path="url(#clip440)" d="M2083.43 159.916 L2083.43 163.561 L2049.16 163.561 Q2049.64 171.258 2053.78 175.309 Q2057.95 179.319 2065.36 179.319 Q2069.66 179.319 2073.67 178.266 Q2077.72 177.213 2081.69 175.106 L2081.69 182.155 Q2077.68 183.856 2073.46 184.748 Q2069.25 185.639 2064.92 185.639 Q2054.06 185.639 2047.7 179.319 Q2041.38 173 2041.38 162.225 Q2041.38 151.085 2047.38 144.563 Q2053.41 138 2063.62 138 Q2072.77 138 2078.08 143.914 Q2083.43 149.788 2083.43 159.916 M2075.98 157.728 Q2075.89 151.611 2072.53 147.965 Q2069.21 144.32 2063.7 144.32 Q2057.46 144.32 2053.7 147.844 Q2049.97 151.368 2049.4 157.769 L2075.98 157.728 Z" fill="#000000" fill-rule="nonzero" fill-opacity="1" /><path clip-path="url(#clip440)" d="M2139.94 121.513 Q2134.51 130.83 2131.88 139.945 Q2129.24 149.059 2129.24 158.417 Q2129.24 167.774 2131.88 176.97 Q2134.55 186.125 2139.94 195.401 L2133.46 195.401 Q2127.38 185.882 2124.34 176.686 Q2121.35 167.491 2121.35 158.417 Q2121.35 149.383 2124.34 140.228 Q2127.34 131.073 2133.46 121.513 L2139.94 121.513 Z" fill="#000000" fill-rule="nonzero" fill-opacity="1" /><path clip-path="url(#clip440)" d="M2186.97 161.819 Q2186.97 153.596 2183.57 148.938 Q2180.2 144.239 2174.29 144.239 Q2168.38 144.239 2164.97 148.938 Q2161.61 153.596 2161.61 161.819 Q2161.61 170.043 2164.97 174.742 Q2168.38 179.4 2174.29 179.4 Q2180.2 179.4 2183.57 174.742 Q2186.97 170.043 2186.97 161.819 M2161.61 145.98 Q2163.96 141.93 2167.53 139.985 Q2171.13 138 2176.11 138 Q2184.38 138 2189.52 144.563 Q2194.71 151.125 2194.71 161.819 Q2194.71 172.514 2189.52 179.076 Q2184.38 185.639 2176.11 185.639 Q2171.13 185.639 2167.53 183.694 Q2163.96 181.709 2161.61 177.658 L2161.61 184.464 L2154.12 184.464 L2154.12 121.432 L2161.61 121.432 L2161.61 145.98 Z" fill="#000000" fill-rule="nonzero" fill-opacity="1" /><path clip-path="url(#clip440)" d="M2227.68 161.657 Q2218.65 161.657 2215.16 163.723 Q2211.68 165.789 2211.68 170.772 Q2211.68 174.742 2214.27 177.091 Q2216.91 179.4 2221.4 179.4 Q2227.6 179.4 2231.33 175.025 Q2235.09 170.61 2235.09 163.318 L2235.09 161.657 L2227.68 161.657 M2242.55 158.579 L2242.55 184.464 L2235.09 184.464 L2235.09 177.577 Q2232.54 181.709 2228.73 183.694 Q2224.93 185.639 2219.42 185.639 Q2212.45 185.639 2208.32 181.75 Q2204.23 177.821 2204.23 171.258 Q2204.23 163.602 2209.33 159.713 Q2214.48 155.824 2224.64 155.824 L2235.09 155.824 L2235.09 155.095 Q2235.09 149.95 2231.69 147.155 Q2228.33 144.32 2222.21 144.32 Q2218.32 144.32 2214.64 145.251 Q2210.95 146.183 2207.55 148.046 L2207.55 141.16 Q2211.64 139.58 2215.49 138.81 Q2219.34 138 2222.98 138 Q2232.83 138 2237.69 143.104 Q2242.55 148.208 2242.55 158.579 Z" fill="#000000" fill-rule="nonzero" fill-opacity="1" /><path clip-path="url(#clip440)" d="M2284.19 146.061 Q2282.94 145.332 2281.44 145.008 Q2279.98 144.644 2278.2 144.644 Q2271.88 144.644 2268.47 148.776 Q2265.11 152.867 2265.11 160.564 L2265.11 184.464 L2257.62 184.464 L2257.62 139.094 L2265.11 139.094 L2265.11 146.142 Q2267.46 142.011 2271.23 140.026 Q2275 138 2280.38 138 Q2281.15 138 2282.09 138.122 Q2283.02 138.203 2284.15 138.405 L2284.19 146.061 Z" fill="#000000" fill-rule="nonzero" fill-opacity="1" /><path clip-path="url(#clip440)" d="M2290.83 121.513 L2297.32 121.513 Q2303.39 131.073 2306.39 140.228 Q2309.43 149.383 2309.43 158.417 Q2309.43 167.491 2306.39 176.686 Q2303.39 185.882 2297.32 195.401 L2290.83 195.401 Q2296.22 186.125 2298.86 176.97 Q2301.53 167.774 2301.53 158.417 Q2301.53 149.059 2298.86 139.945 Q2296.22 130.83 2290.83 121.513 Z" fill="#000000" fill-rule="nonzero" fill-opacity="1" /><path clip-path="url(#clip440)" d="M2346.98 158.822 L2421.84 158.822 L2421.84 164.655 L2346.98 164.655 L2346.98 158.822 Z" fill="#000000" fill-rule="nonzero" fill-opacity="1" /><path clip-path="url(#clip440)" d="M2486.37 146.061 Q2485.12 145.332 2483.62 145.008 Q2482.16 144.644 2480.38 144.644 Q2474.06 144.644 2470.65 148.776 Q2467.29 152.867 2467.29 160.564 L2467.29 184.464 L2459.8 184.464 L2459.8 139.094 L2467.29 139.094 L2467.29 146.142 Q2469.64 142.011 2473.41 140.026 Q2477.18 138 2482.56 138 Q2483.33 138 2484.27 138.122 Q2485.2 138.203 2486.33 138.405 L2486.37 146.061 Z" fill="#000000" fill-rule="nonzero" fill-opacity="1" /><path clip-path="url(#clip440)" d="M2509.95 144.32 Q2503.95 144.32 2500.47 149.019 Q2496.99 153.677 2496.99 161.819 Q2496.99 169.962 2500.43 174.661 Q2503.91 179.319 2509.95 179.319 Q2515.9 179.319 2519.39 174.62 Q2522.87 169.921 2522.87 161.819 Q2522.87 153.758 2519.39 149.059 Q2515.9 144.32 2509.95 144.32 M2509.95 138 Q2519.67 138 2525.22 144.32 Q2530.77 150.639 2530.77 161.819 Q2530.77 172.959 2525.22 179.319 Q2519.67 185.639 2509.95 185.639 Q2500.19 185.639 2494.64 179.319 Q2489.13 172.959 2489.13 161.819 Q2489.13 150.639 2494.64 144.32 Q2500.19 138 2509.95 138 Z" fill="#000000" fill-rule="nonzero" fill-opacity="1" /><path clip-path="url(#clip440)" d="M2575.69 161.819 Q2575.69 153.596 2572.29 148.938 Q2568.93 144.239 2563.02 144.239 Q2557.1 144.239 2553.7 148.938 Q2550.34 153.596 2550.34 161.819 Q2550.34 170.043 2553.7 174.742 Q2557.1 179.4 2563.02 179.4 Q2568.93 179.4 2572.29 174.742 Q2575.69 170.043 2575.69 161.819 M2550.34 145.98 Q2552.69 141.93 2556.25 139.985 Q2559.86 138 2564.84 138 Q2573.1 138 2578.25 144.563 Q2583.43 151.125 2583.43 161.819 Q2583.43 172.514 2578.25 179.076 Q2573.1 185.639 2564.84 185.639 Q2559.86 185.639 2556.25 183.694 Q2552.69 181.709 2550.34 177.658 L2550.34 184.464 L2542.84 184.464 L2542.84 121.432 L2550.34 121.432 L2550.34 145.98 Z" fill="#000000" fill-rule="nonzero" fill-opacity="1" /><path clip-path="url(#clip440)" d="M2613.37 144.32 Q2607.37 144.32 2603.89 149.019 Q2600.41 153.677 2600.41 161.819 Q2600.41 169.962 2603.85 174.661 Q2607.33 179.319 2613.37 179.319 Q2619.32 179.319 2622.81 174.62 Q2626.29 169.921 2626.29 161.819 Q2626.29 153.758 2622.81 149.059 Q2619.32 144.32 2613.37 144.32 M2613.37 138 Q2623.09 138 2628.64 144.32 Q2634.19 150.639 2634.19 161.819 Q2634.19 172.959 2628.64 179.319 Q2623.09 185.639 2613.37 185.639 Q2603.61 185.639 2598.06 179.319 Q2592.55 172.959 2592.55 161.819 Q2592.55 150.639 2598.06 144.32 Q2603.61 138 2613.37 138 Z" fill="#000000" fill-rule="nonzero" fill-opacity="1" /><path clip-path="url(#clip440)" d="M2653.92 126.212 L2653.92 139.094 L2669.27 139.094 L2669.27 144.887 L2653.92 144.887 L2653.92 169.516 Q2653.92 175.066 2655.42 176.646 Q2656.96 178.226 2661.61 178.226 L2669.27 178.226 L2669.27 184.464 L2661.61 184.464 Q2652.99 184.464 2649.7 181.264 Q2646.42 178.023 2646.42 169.516 L2646.42 144.887 L2640.95 144.887 L2640.95 139.094 L2646.42 139.094 L2646.42 126.212 L2653.92 126.212 Z" fill="#000000" fill-rule="nonzero" fill-opacity="1" /><path clip-path="url(#clip442)" d="M451.504 2114.83 L451.504 2156.51 L524.31 2156.51 L524.31 2114.83 L451.504 2114.83 L451.504 2114.83  Z" fill="#ffa500" fill-rule="evenodd" fill-opacity="1"/>
<polyline clip-path="url(#clip442)" style="stroke:#000000; stroke-linecap:round; stroke-linejoin:round; stroke-width:0; stroke-opacity:0; fill:none" points="451.504,2114.83 451.504,2156.51 524.31,2156.51 524.31,2114.83 451.504,2114.83 "/>
<path clip-path="url(#clip442)" d="M1361.58 1671.61 L1361.58 2156.51 L1434.39 2156.51 L1434.39 1671.61 L1361.58 1671.61 L1361.58 1671.61  Z" fill="#ffa500" fill-rule="evenodd" fill-opacity="1"/>
<polyline clip-path="url(#clip442)" style="stroke:#000000; stroke-linecap:round; stroke-linejoin:round; stroke-width:0; stroke-opacity:0; fill:none" points="1361.58,1671.61 1361.58,2156.51 1434.39,2156.51 1434.39,1671.61 1361.58,1671.61 "/>
<path clip-path="url(#clip442)" d="M2271.66 958.979 L2271.66 2156.51 L2344.47 2156.51 L2344.47 958.979 L2271.66 958.979 L2271.66 958.979  Z" fill="#ffa500" fill-rule="evenodd" fill-opacity="1"/>
<polyline clip-path="url(#clip442)" style="stroke:#000000; stroke-linecap:round; stroke-linejoin:round; stroke-width:0; stroke-opacity:0; fill:none" points="2271.66,958.979 2271.66,2156.51 2344.47,2156.51 2344.47,958.979 2271.66,958.979 "/>
<path clip-path="url(#clip442)" d="M3181.74 246.944 L3181.74 2156.51 L3254.54 2156.51 L3254.54 246.944 L3181.74 246.944 L3181.74 246.944  Z" fill="#ffa500" fill-rule="evenodd" fill-opacity="1"/>
<polyline clip-path="url(#clip442)" style="stroke:#000000; stroke-linecap:round; stroke-linejoin:round; stroke-width:0; stroke-opacity:0; fill:none" points="3181.74,246.944 3181.74,2156.51 3254.54,2156.51 3254.54,246.944 3181.74,246.944 "/>
<circle clip-path="url(#clip442)" style="fill:#ffa500; stroke:none; fill-opacity:0" cx="487.907" cy="2114.83" r="2"/>
<circle clip-path="url(#clip442)" style="fill:#ffa500; stroke:none; fill-opacity:0" cx="1397.98" cy="1671.61" r="2"/>
<circle clip-path="url(#clip442)" style="fill:#ffa500; stroke:none; fill-opacity:0" cx="2308.06" cy="958.979" r="2"/>
<circle clip-path="url(#clip442)" style="fill:#ffa500; stroke:none; fill-opacity:0" cx="3218.14" cy="246.944" r="2"/>
<path clip-path="url(#clip442)" d="M572.848 2118.88 L572.848 2156.51 L645.654 2156.51 L645.654 2118.88 L572.848 2118.88 L572.848 2118.88  Z" fill="#00ffff" fill-rule="evenodd" fill-opacity="1"/>
<polyline clip-path="url(#clip442)" style="stroke:#000000; stroke-linecap:round; stroke-linejoin:round; stroke-width:0; stroke-opacity:0; fill:none" points="572.848,2118.88 572.848,2156.51 645.654,2156.51 645.654,2118.88 572.848,2118.88 "/>
<path clip-path="url(#clip442)" d="M1482.93 2059.86 L1482.93 2156.51 L1555.73 2156.51 L1555.73 2059.86 L1482.93 2059.86 L1482.93 2059.86  Z" fill="#00ffff" fill-rule="evenodd" fill-opacity="1"/>
<polyline clip-path="url(#clip442)" style="stroke:#000000; stroke-linecap:round; stroke-linejoin:round; stroke-width:0; stroke-opacity:0; fill:none" points="1482.93,2059.86 1482.93,2156.51 1555.73,2156.51 1555.73,2059.86 1482.93,2059.86 "/>
<path clip-path="url(#clip442)" d="M2393 1943.63 L2393 2156.51 L2465.81 2156.51 L2465.81 1943.63 L2393 1943.63 L2393 1943.63  Z" fill="#00ffff" fill-rule="evenodd" fill-opacity="1"/>
<polyline clip-path="url(#clip442)" style="stroke:#000000; stroke-linecap:round; stroke-linejoin:round; stroke-width:0; stroke-opacity:0; fill:none" points="2393,1943.63 2393,2156.51 2465.81,2156.51 2465.81,1943.63 2393,1943.63 "/>
<path clip-path="url(#clip442)" d="M3303.08 1614.7 L3303.08 2156.51 L3375.89 2156.51 L3375.89 1614.7 L3303.08 1614.7 L3303.08 1614.7  Z" fill="#00ffff" fill-rule="evenodd" fill-opacity="1"/>
<polyline clip-path="url(#clip442)" style="stroke:#000000; stroke-linecap:round; stroke-linejoin:round; stroke-width:0; stroke-opacity:0; fill:none" points="3303.08,1614.7 3303.08,2156.51 3375.89,2156.51 3375.89,1614.7 3303.08,1614.7 "/>
<circle clip-path="url(#clip442)" style="fill:#00ffff; stroke:none; fill-opacity:0" cx="609.251" cy="2118.88" r="2"/>
<circle clip-path="url(#clip442)" style="fill:#00ffff; stroke:none; fill-opacity:0" cx="1519.33" cy="2059.86" r="2"/>
<circle clip-path="url(#clip442)" style="fill:#00ffff; stroke:none; fill-opacity:0" cx="2429.41" cy="1943.63" r="2"/>
<circle clip-path="url(#clip442)" style="fill:#00ffff; stroke:none; fill-opacity:0" cx="3339.48" cy="1614.7" r="2"/>
<path clip-path="url(#clip440)" d="M383.906 466.116 L1148.71 466.116 L1148.71 310.596 L383.906 310.596  Z" fill="#ffffff" fill-rule="evenodd" fill-opacity="1"/>
<polyline clip-path="url(#clip440)" style="stroke:#000000; stroke-linecap:round; stroke-linejoin:round; stroke-width:4; stroke-opacity:1; fill:none" points="383.906,466.116 1148.71,466.116 1148.71,310.596 383.906,310.596 383.906,466.116 "/>
<path clip-path="url(#clip440)" d="M420.33 383.172 L638.871 383.172 L638.871 341.7 L420.33 341.7 L420.33 383.172  Z" fill="#ffa500" fill-rule="evenodd" fill-opacity="1"/>
<polyline clip-path="url(#clip440)" style="stroke:#000000; stroke-linecap:round; stroke-linejoin:round; stroke-width:0.8; stroke-opacity:0; fill:none" points="420.33,383.172 638.871,383.172 638.871,341.7 420.33,341.7 420.33,383.172 "/>
<path clip-path="url(#clip440)" d="M685.92 343.744 Q682.818 349.068 681.313 354.277 Q679.809 359.485 679.809 364.832 Q679.809 370.179 681.313 375.434 Q682.841 380.665 685.92 385.966 L682.216 385.966 Q678.744 380.527 677.008 375.272 Q675.295 370.017 675.295 364.832 Q675.295 359.67 677.008 354.439 Q678.721 349.207 682.216 343.744 L685.92 343.744 Z" fill="#000000" fill-rule="nonzero" fill-opacity="1" /><path clip-path="url(#clip440)" d="M716.359 365.689 L716.359 367.772 L696.776 367.772 Q697.054 372.17 699.415 374.485 Q701.799 376.777 706.035 376.777 Q708.489 376.777 710.781 376.175 Q713.096 375.573 715.364 374.369 L715.364 378.397 Q713.072 379.369 710.665 379.878 Q708.258 380.388 705.781 380.388 Q699.577 380.388 695.943 376.777 Q692.332 373.165 692.332 367.008 Q692.332 360.642 695.758 356.916 Q699.207 353.166 705.04 353.166 Q710.272 353.166 713.304 356.545 Q716.359 359.902 716.359 365.689 M712.1 364.439 Q712.054 360.943 710.133 358.86 Q708.234 356.777 705.086 356.777 Q701.522 356.777 699.369 358.791 Q697.239 360.804 696.915 364.462 L712.1 364.439 Z" fill="#000000" fill-rule="nonzero" fill-opacity="1" /><path clip-path="url(#clip440)" d="M744.068 353.791 L734.693 366.406 L744.554 379.716 L739.531 379.716 L731.984 369.531 L724.438 379.716 L719.415 379.716 L729.484 366.152 L720.271 353.791 L725.295 353.791 L732.17 363.027 L739.044 353.791 L744.068 353.791 Z" fill="#000000" fill-rule="nonzero" fill-opacity="1" /><path clip-path="url(#clip440)" d="M762.355 366.684 Q757.193 366.684 755.202 367.865 Q753.211 369.045 753.211 371.892 Q753.211 374.161 754.693 375.503 Q756.197 376.823 758.767 376.823 Q762.308 376.823 764.438 374.323 Q766.591 371.8 766.591 367.633 L766.591 366.684 L762.355 366.684 M770.85 364.925 L770.85 379.716 L766.591 379.716 L766.591 375.781 Q765.132 378.142 762.956 379.277 Q760.78 380.388 757.632 380.388 Q753.651 380.388 751.29 378.165 Q748.952 375.92 748.952 372.17 Q748.952 367.795 751.868 365.573 Q754.808 363.351 760.618 363.351 L766.591 363.351 L766.591 362.934 Q766.591 359.994 764.646 358.397 Q762.725 356.777 759.23 356.777 Q757.007 356.777 754.901 357.309 Q752.794 357.841 750.85 358.906 L750.85 354.971 Q753.188 354.068 755.387 353.629 Q757.586 353.166 759.669 353.166 Q765.294 353.166 768.072 356.082 Q770.85 358.999 770.85 364.925 Z" fill="#000000" fill-rule="nonzero" fill-opacity="1" /><path clip-path="url(#clip440)" d="M780.711 373.837 L785.595 373.837 L785.595 377.818 L781.799 385.226 L778.813 385.226 L780.711 377.818 L780.711 373.837 Z" fill="#000000" fill-rule="nonzero" fill-opacity="1" /><path clip-path="url(#clip440)" d="M829.947 358.767 Q831.544 355.897 833.766 354.531 Q835.988 353.166 838.998 353.166 Q843.049 353.166 845.248 356.013 Q847.447 358.837 847.447 364.068 L847.447 379.716 L843.164 379.716 L843.164 364.207 Q843.164 360.48 841.845 358.675 Q840.525 356.869 837.817 356.869 Q834.507 356.869 832.586 359.068 Q830.664 361.267 830.664 365.064 L830.664 379.716 L826.382 379.716 L826.382 364.207 Q826.382 360.457 825.063 358.675 Q823.743 356.869 820.988 356.869 Q817.725 356.869 815.803 359.091 Q813.882 361.291 813.882 365.064 L813.882 379.716 L809.6 379.716 L809.6 353.791 L813.882 353.791 L813.882 357.818 Q815.34 355.434 817.377 354.3 Q819.414 353.166 822.215 353.166 Q825.039 353.166 827.007 354.601 Q828.998 356.036 829.947 358.767 Z" fill="#000000" fill-rule="nonzero" fill-opacity="1" /><path clip-path="url(#clip440)" d="M867.724 366.684 Q862.562 366.684 860.572 367.865 Q858.581 369.045 858.581 371.892 Q858.581 374.161 860.062 375.503 Q861.567 376.823 864.136 376.823 Q867.678 376.823 869.808 374.323 Q871.96 371.8 871.96 367.633 L871.96 366.684 L867.724 366.684 M876.22 364.925 L876.22 379.716 L871.96 379.716 L871.96 375.781 Q870.502 378.142 868.326 379.277 Q866.15 380.388 863.002 380.388 Q859.021 380.388 856.66 378.165 Q854.322 375.92 854.322 372.17 Q854.322 367.795 857.238 365.573 Q860.178 363.351 865.988 363.351 L871.96 363.351 L871.96 362.934 Q871.96 359.994 870.016 358.397 Q868.095 356.777 864.599 356.777 Q862.377 356.777 860.271 357.309 Q858.164 357.841 856.22 358.906 L856.22 354.971 Q858.558 354.068 860.757 353.629 Q862.956 353.166 865.039 353.166 Q870.664 353.166 873.442 356.082 Q876.22 358.999 876.22 364.925 Z" fill="#000000" fill-rule="nonzero" fill-opacity="1" /><path clip-path="url(#clip440)" d="M902.053 357.726 L902.053 343.698 L906.312 343.698 L906.312 379.716 L902.053 379.716 L902.053 375.827 Q900.71 378.142 898.65 379.277 Q896.613 380.388 893.743 380.388 Q889.044 380.388 886.081 376.638 Q883.141 372.888 883.141 366.777 Q883.141 360.666 886.081 356.916 Q889.044 353.166 893.743 353.166 Q896.613 353.166 898.65 354.3 Q900.71 355.411 902.053 357.726 M887.539 366.777 Q887.539 371.476 889.46 374.161 Q891.405 376.823 894.784 376.823 Q898.164 376.823 900.108 374.161 Q902.053 371.476 902.053 366.777 Q902.053 362.078 900.108 359.416 Q898.164 356.73 894.784 356.73 Q891.405 356.73 889.46 359.416 Q887.539 362.078 887.539 366.777 Z" fill="#000000" fill-rule="nonzero" fill-opacity="1" /><path clip-path="url(#clip440)" d="M936.636 364.068 L936.636 379.716 L932.377 379.716 L932.377 364.207 Q932.377 360.527 930.942 358.698 Q929.506 356.869 926.636 356.869 Q923.187 356.869 921.196 359.068 Q919.206 361.267 919.206 365.064 L919.206 379.716 L914.923 379.716 L914.923 353.791 L919.206 353.791 L919.206 357.818 Q920.733 355.48 922.794 354.323 Q924.877 353.166 927.585 353.166 Q932.053 353.166 934.344 355.943 Q936.636 358.698 936.636 364.068 Z" fill="#000000" fill-rule="nonzero" fill-opacity="1" /><path clip-path="url(#clip440)" d="M945.131 343.698 L949.391 343.698 L949.391 379.716 L945.131 379.716 L945.131 343.698 Z" fill="#000000" fill-rule="nonzero" fill-opacity="1" /><path clip-path="url(#clip440)" d="M962.423 375.827 L962.423 389.577 L958.141 389.577 L958.141 353.791 L962.423 353.791 L962.423 357.726 Q963.766 355.411 965.803 354.3 Q967.863 353.166 970.71 353.166 Q975.432 353.166 978.372 356.916 Q981.335 360.666 981.335 366.777 Q981.335 372.888 978.372 376.638 Q975.432 380.388 970.71 380.388 Q967.863 380.388 965.803 379.277 Q963.766 378.142 962.423 375.827 M976.914 366.777 Q976.914 362.078 974.969 359.416 Q973.048 356.73 969.668 356.73 Q966.289 356.73 964.344 359.416 Q962.423 362.078 962.423 366.777 Q962.423 371.476 964.344 374.161 Q966.289 376.823 969.668 376.823 Q973.048 376.823 974.969 374.161 Q976.914 371.476 976.914 366.777 Z" fill="#000000" fill-rule="nonzero" fill-opacity="1" /><path clip-path="url(#clip440)" d="M987.724 343.744 L991.427 343.744 Q994.9 349.207 996.613 354.439 Q998.349 359.67 998.349 364.832 Q998.349 370.017 996.613 375.272 Q994.9 380.527 991.427 385.966 L987.724 385.966 Q990.802 380.665 992.307 375.434 Q993.835 370.179 993.835 364.832 Q993.835 359.485 992.307 354.277 Q990.802 349.068 987.724 343.744 Z" fill="#000000" fill-rule="nonzero" fill-opacity="1" /><path clip-path="url(#clip440)" d="M420.33 435.012 L638.871 435.012 L638.871 393.54 L420.33 393.54 L420.33 435.012  Z" fill="#00ffff" fill-rule="evenodd" fill-opacity="1"/>
<polyline clip-path="url(#clip440)" style="stroke:#000000; stroke-linecap:round; stroke-linejoin:round; stroke-width:0.8; stroke-opacity:0; fill:none" points="420.33,435.012 638.871,435.012 638.871,393.54 420.33,393.54 420.33,435.012 "/>
<path clip-path="url(#clip440)" d="M685.92 395.584 Q682.818 400.908 681.313 406.117 Q679.809 411.325 679.809 416.672 Q679.809 422.019 681.313 427.274 Q682.841 432.505 685.92 437.806 L682.216 437.806 Q678.744 432.367 677.008 427.112 Q675.295 421.857 675.295 416.672 Q675.295 411.51 677.008 406.279 Q678.721 401.047 682.216 395.584 L685.92 395.584 Z" fill="#000000" fill-rule="nonzero" fill-opacity="1" /><path clip-path="url(#clip440)" d="M716.359 417.529 L716.359 419.612 L696.776 419.612 Q697.054 424.01 699.415 426.325 Q701.799 428.617 706.035 428.617 Q708.489 428.617 710.781 428.015 Q713.096 427.413 715.364 426.209 L715.364 430.237 Q713.072 431.209 710.665 431.718 Q708.258 432.228 705.781 432.228 Q699.577 432.228 695.943 428.617 Q692.332 425.005 692.332 418.848 Q692.332 412.482 695.758 408.756 Q699.207 405.006 705.04 405.006 Q710.272 405.006 713.304 408.385 Q716.359 411.742 716.359 417.529 M712.1 416.279 Q712.054 412.783 710.133 410.7 Q708.234 408.617 705.086 408.617 Q701.522 408.617 699.369 410.631 Q697.239 412.644 696.915 416.302 L712.1 416.279 Z" fill="#000000" fill-rule="nonzero" fill-opacity="1" /><path clip-path="url(#clip440)" d="M744.068 405.631 L734.693 418.246 L744.554 431.556 L739.531 431.556 L731.984 421.371 L724.438 431.556 L719.415 431.556 L729.484 417.992 L720.271 405.631 L725.295 405.631 L732.17 414.867 L739.044 405.631 L744.068 405.631 Z" fill="#000000" fill-rule="nonzero" fill-opacity="1" /><path clip-path="url(#clip440)" d="M762.355 418.524 Q757.193 418.524 755.202 419.705 Q753.211 420.885 753.211 423.732 Q753.211 426.001 754.693 427.343 Q756.197 428.663 758.767 428.663 Q762.308 428.663 764.438 426.163 Q766.591 423.64 766.591 419.473 L766.591 418.524 L762.355 418.524 M770.85 416.765 L770.85 431.556 L766.591 431.556 L766.591 427.621 Q765.132 429.982 762.956 431.117 Q760.78 432.228 757.632 432.228 Q753.651 432.228 751.29 430.005 Q748.952 427.76 748.952 424.01 Q748.952 419.635 751.868 417.413 Q754.808 415.191 760.618 415.191 L766.591 415.191 L766.591 414.774 Q766.591 411.834 764.646 410.237 Q762.725 408.617 759.23 408.617 Q757.007 408.617 754.901 409.149 Q752.794 409.681 750.85 410.746 L750.85 406.811 Q753.188 405.908 755.387 405.469 Q757.586 405.006 759.669 405.006 Q765.294 405.006 768.072 407.922 Q770.85 410.839 770.85 416.765 Z" fill="#000000" fill-rule="nonzero" fill-opacity="1" /><path clip-path="url(#clip440)" d="M799.322 439.427 L799.322 442.737 L774.692 442.737 L774.692 439.427 L799.322 439.427 Z" fill="#000000" fill-rule="nonzero" fill-opacity="1" /><path clip-path="url(#clip440)" d="M820.387 418.293 Q820.387 413.663 818.465 411.117 Q816.567 408.57 813.118 408.57 Q809.692 408.57 807.771 411.117 Q805.873 413.663 805.873 418.293 Q805.873 422.899 807.771 425.445 Q809.692 427.992 813.118 427.992 Q816.567 427.992 818.465 425.445 Q820.387 422.899 820.387 418.293 M824.646 428.339 Q824.646 434.959 821.706 438.177 Q818.766 441.417 812.702 441.417 Q810.456 441.417 808.465 441.07 Q806.475 440.746 804.6 440.052 L804.6 435.908 Q806.475 436.927 808.303 437.413 Q810.132 437.899 812.03 437.899 Q816.22 437.899 818.303 435.7 Q820.387 433.524 820.387 429.103 L820.387 426.996 Q819.067 429.288 817.007 430.422 Q814.947 431.556 812.077 431.556 Q807.308 431.556 804.391 427.922 Q801.475 424.288 801.475 418.293 Q801.475 412.274 804.391 408.64 Q807.308 405.006 812.077 405.006 Q814.947 405.006 817.007 406.14 Q819.067 407.274 820.387 409.566 L820.387 405.631 L824.646 405.631 L824.646 428.339 Z" fill="#000000" fill-rule="nonzero" fill-opacity="1" /><path clip-path="url(#clip440)" d="M837.539 427.667 L837.539 441.417 L833.257 441.417 L833.257 405.631 L837.539 405.631 L837.539 409.566 Q838.882 407.251 840.919 406.14 Q842.979 405.006 845.826 405.006 Q850.549 405.006 853.488 408.756 Q856.451 412.506 856.451 418.617 Q856.451 424.728 853.488 428.478 Q850.549 432.228 845.826 432.228 Q842.979 432.228 840.919 431.117 Q838.882 429.982 837.539 427.667 M852.03 418.617 Q852.03 413.918 850.086 411.256 Q848.164 408.57 844.785 408.57 Q841.405 408.57 839.461 411.256 Q837.539 413.918 837.539 418.617 Q837.539 423.316 839.461 426.001 Q841.405 428.663 844.785 428.663 Q848.164 428.663 850.086 426.001 Q852.03 423.316 852.03 418.617 Z" fill="#000000" fill-rule="nonzero" fill-opacity="1" /><path clip-path="url(#clip440)" d="M863.072 421.325 L863.072 405.631 L867.331 405.631 L867.331 421.163 Q867.331 424.843 868.766 426.695 Q870.201 428.524 873.072 428.524 Q876.521 428.524 878.511 426.325 Q880.525 424.126 880.525 420.33 L880.525 405.631 L884.784 405.631 L884.784 431.556 L880.525 431.556 L880.525 427.575 Q878.974 429.936 876.914 431.093 Q874.877 432.228 872.169 432.228 Q867.701 432.228 865.386 429.45 Q863.072 426.672 863.072 421.325 M873.789 405.006 L873.789 405.006 Z" fill="#000000" fill-rule="nonzero" fill-opacity="1" /><path clip-path="url(#clip440)" d="M894.646 425.677 L899.53 425.677 L899.53 429.658 L895.733 437.066 L892.747 437.066 L894.646 429.658 L894.646 425.677 Z" fill="#000000" fill-rule="nonzero" fill-opacity="1" /><path clip-path="url(#clip440)" d="M943.881 410.607 Q945.479 407.737 947.701 406.371 Q949.923 405.006 952.932 405.006 Q956.983 405.006 959.182 407.853 Q961.381 410.677 961.381 415.908 L961.381 431.556 L957.099 431.556 L957.099 416.047 Q957.099 412.32 955.779 410.515 Q954.46 408.709 951.752 408.709 Q948.442 408.709 946.52 410.908 Q944.599 413.107 944.599 416.904 L944.599 431.556 L940.317 431.556 L940.317 416.047 Q940.317 412.297 938.997 410.515 Q937.678 408.709 934.923 408.709 Q931.659 408.709 929.738 410.931 Q927.817 413.131 927.817 416.904 L927.817 431.556 L923.534 431.556 L923.534 405.631 L927.817 405.631 L927.817 409.658 Q929.275 407.274 931.312 406.14 Q933.349 405.006 936.15 405.006 Q938.974 405.006 940.942 406.441 Q942.932 407.876 943.881 410.607 Z" fill="#000000" fill-rule="nonzero" fill-opacity="1" /><path clip-path="url(#clip440)" d="M981.659 418.524 Q976.497 418.524 974.506 419.705 Q972.515 420.885 972.515 423.732 Q972.515 426.001 973.997 427.343 Q975.502 428.663 978.071 428.663 Q981.613 428.663 983.742 426.163 Q985.895 423.64 985.895 419.473 L985.895 418.524 L981.659 418.524 M990.154 416.765 L990.154 431.556 L985.895 431.556 L985.895 427.621 Q984.437 429.982 982.261 431.117 Q980.085 432.228 976.937 432.228 Q972.955 432.228 970.594 430.005 Q968.256 427.76 968.256 424.01 Q968.256 419.635 971.173 417.413 Q974.113 415.191 979.923 415.191 L985.895 415.191 L985.895 414.774 Q985.895 411.834 983.951 410.237 Q982.029 408.617 978.534 408.617 Q976.312 408.617 974.205 409.149 Q972.099 409.681 970.154 410.746 L970.154 406.811 Q972.492 405.908 974.691 405.469 Q976.89 405.006 978.974 405.006 Q984.599 405.006 987.376 407.922 Q990.154 410.839 990.154 416.765 Z" fill="#000000" fill-rule="nonzero" fill-opacity="1" /><path clip-path="url(#clip440)" d="M1015.99 409.566 L1015.99 395.538 L1020.25 395.538 L1020.25 431.556 L1015.99 431.556 L1015.99 427.667 Q1014.64 429.982 1012.58 431.117 Q1010.55 432.228 1007.68 432.228 Q1002.98 432.228 1000.02 428.478 Q997.076 424.728 997.076 418.617 Q997.076 412.506 1000.02 408.756 Q1002.98 405.006 1007.68 405.006 Q1010.55 405.006 1012.58 406.14 Q1014.64 407.251 1015.99 409.566 M1001.47 418.617 Q1001.47 423.316 1003.39 426.001 Q1005.34 428.663 1008.72 428.663 Q1012.1 428.663 1014.04 426.001 Q1015.99 423.316 1015.99 418.617 Q1015.99 413.918 1014.04 411.256 Q1012.1 408.57 1008.72 408.57 Q1005.34 408.57 1003.39 411.256 Q1001.47 413.918 1001.47 418.617 Z" fill="#000000" fill-rule="nonzero" fill-opacity="1" /><path clip-path="url(#clip440)" d="M1050.57 415.908 L1050.57 431.556 L1046.31 431.556 L1046.31 416.047 Q1046.31 412.367 1044.88 410.538 Q1043.44 408.709 1040.57 408.709 Q1037.12 408.709 1035.13 410.908 Q1033.14 413.107 1033.14 416.904 L1033.14 431.556 L1028.86 431.556 L1028.86 405.631 L1033.14 405.631 L1033.14 409.658 Q1034.67 407.32 1036.73 406.163 Q1038.81 405.006 1041.52 405.006 Q1045.99 405.006 1048.28 407.783 Q1050.57 410.538 1050.57 415.908 Z" fill="#000000" fill-rule="nonzero" fill-opacity="1" /><path clip-path="url(#clip440)" d="M1059.07 395.538 L1063.33 395.538 L1063.33 431.556 L1059.07 431.556 L1059.07 395.538 Z" fill="#000000" fill-rule="nonzero" fill-opacity="1" /><path clip-path="url(#clip440)" d="M1076.36 427.667 L1076.36 441.417 L1072.08 441.417 L1072.08 405.631 L1076.36 405.631 L1076.36 409.566 Q1077.7 407.251 1079.74 406.14 Q1081.8 405.006 1084.64 405.006 Q1089.37 405.006 1092.31 408.756 Q1095.27 412.506 1095.27 418.617 Q1095.27 424.728 1092.31 428.478 Q1089.37 432.228 1084.64 432.228 Q1081.8 432.228 1079.74 431.117 Q1077.7 429.982 1076.36 427.667 M1090.85 418.617 Q1090.85 413.918 1088.9 411.256 Q1086.98 408.57 1083.6 408.57 Q1080.22 408.57 1078.28 411.256 Q1076.36 413.918 1076.36 418.617 Q1076.36 423.316 1078.28 426.001 Q1080.22 428.663 1083.6 428.663 Q1086.98 428.663 1088.9 426.001 Q1090.85 423.316 1090.85 418.617 Z" fill="#000000" fill-rule="nonzero" fill-opacity="1" /><path clip-path="url(#clip440)" d="M1101.66 395.584 L1105.36 395.584 Q1108.83 401.047 1110.55 406.279 Q1112.28 411.51 1112.28 416.672 Q1112.28 421.857 1110.55 427.112 Q1108.83 432.367 1105.36 437.806 L1101.66 437.806 Q1104.74 432.505 1106.24 427.274 Q1107.77 422.019 1107.77 416.672 Q1107.77 411.325 1106.24 406.117 Q1104.74 400.908 1101.66 395.584 Z" fill="#000000" fill-rule="nonzero" fill-opacity="1" /></svg>
