<?xml version="1.0" encoding="utf-8"?>
<svg xmlns="http://www.w3.org/2000/svg" xmlns:xlink="http://www.w3.org/1999/xlink" width="900" height="600" viewBox="0 0 3600 2400">
<defs>
  <clipPath id="clip500">
    <rect x="0" y="0" width="3600" height="2400"/>
  </clipPath>
</defs>
<path clip-path="url(#clip500)" d="M0 2400 L3600 2400 L3600 0 L0 0  Z" fill="#ffffff" fill-rule="evenodd" fill-opacity="1"/>
<defs>
  <clipPath id="clip501">
    <rect x="720" y="0" width="2521" height="2400"/>
  </clipPath>
</defs>
<path clip-path="url(#clip500)" d="M320.214 2156.51 L3552.76 2156.51 L3552.76 246.944 L320.214 246.944  Z" fill="#ffffff" fill-rule="evenodd" fill-opacity="1"/>
<defs>
  <clipPath id="clip502">
    <rect x="320" y="246" width="3234" height="1911"/>
  </clipPath>
</defs>
<polyline clip-path="url(#clip502)" style="stroke:#000000; stroke-linecap:round; stroke-linejoin:round; stroke-width:2; stroke-opacity:0.1; fill:none" points="467.148,2156.51 467.148,246.944 "/>
<polyline clip-path="url(#clip502)" style="stroke:#000000; stroke-linecap:round; stroke-linejoin:round; stroke-width:2; stroke-opacity:0.1; fill:none" points="956.927,2156.51 956.927,246.944 "/>
<polyline clip-path="url(#clip502)" style="stroke:#000000; stroke-linecap:round; stroke-linejoin:round; stroke-width:2; stroke-opacity:0.1; fill:none" points="1773.23,2156.51 1773.23,246.944 "/>
<polyline clip-path="url(#clip502)" style="stroke:#000000; stroke-linecap:round; stroke-linejoin:round; stroke-width:2; stroke-opacity:0.1; fill:none" points="3405.82,2156.51 3405.82,246.944 "/>
<polyline clip-path="url(#clip502)" style="stroke:#000000; stroke-linecap:round; stroke-linejoin:round; stroke-width:2; stroke-opacity:0.1; fill:none" points="320.214,2145.61 3552.76,2145.61 "/>
<polyline clip-path="url(#clip502)" style="stroke:#000000; stroke-linecap:round; stroke-linejoin:round; stroke-width:2; stroke-opacity:0.1; fill:none" points="320.214,1682.62 3552.76,1682.62 "/>
<polyline clip-path="url(#clip502)" style="stroke:#000000; stroke-linecap:round; stroke-linejoin:round; stroke-width:2; stroke-opacity:0.1; fill:none" points="320.214,1219.64 3552.76,1219.64 "/>
<polyline clip-path="url(#clip502)" style="stroke:#000000; stroke-linecap:round; stroke-linejoin:round; stroke-width:2; stroke-opacity:0.1; fill:none" points="320.214,756.659 3552.76,756.659 "/>
<polyline clip-path="url(#clip502)" style="stroke:#000000; stroke-linecap:round; stroke-linejoin:round; stroke-width:2; stroke-opacity:0.1; fill:none" points="320.214,293.676 3552.76,293.676 "/>
<polyline clip-path="url(#clip500)" style="stroke:#000000; stroke-linecap:round; stroke-linejoin:round; stroke-width:4; stroke-opacity:1; fill:none" points="320.214,2156.51 3552.76,2156.51 "/>
<polyline clip-path="url(#clip500)" style="stroke:#000000; stroke-linecap:round; stroke-linejoin:round; stroke-width:4; stroke-opacity:1; fill:none" points="467.148,2156.51 467.148,2137.61 "/>
<polyline clip-path="url(#clip500)" style="stroke:#000000; stroke-linecap:round; stroke-linejoin:round; stroke-width:4; stroke-opacity:1; fill:none" points="956.927,2156.51 956.927,2137.61 "/>
<polyline clip-path="url(#clip500)" style="stroke:#000000; stroke-linecap:round; stroke-linejoin:round; stroke-width:4; stroke-opacity:1; fill:none" points="1773.23,2156.51 1773.23,2137.61 "/>
<polyline clip-path="url(#clip500)" style="stroke:#000000; stroke-linecap:round; stroke-linejoin:round; stroke-width:4; stroke-opacity:1; fill:none" points="3405.82,2156.51 3405.82,2137.61 "/>
<path clip-path="url(#clip500)" d="M430.84 2224.57 L447.16 2224.57 L447.16 2228.51 L425.215 2228.51 L425.215 2224.57 Q427.877 2221.82 432.461 2217.19 Q437.067 2212.54 438.248 2211.19 Q440.493 2208.67 441.373 2206.93 Q442.275 2205.17 442.275 2203.48 Q442.275 2200.73 440.331 2198.99 Q438.41 2197.26 435.308 2197.26 Q433.109 2197.26 430.655 2198.02 Q428.224 2198.79 425.447 2200.34 L425.447 2195.61 Q428.271 2194.48 430.724 2193.9 Q433.178 2193.32 435.215 2193.32 Q440.586 2193.32 443.78 2196.01 Q446.974 2198.69 446.974 2203.18 Q446.974 2205.31 446.164 2207.23 Q445.377 2209.13 443.271 2211.73 Q442.692 2212.4 439.59 2215.61 Q436.488 2218.81 430.84 2224.57 Z" fill="#000000" fill-rule="nonzero" fill-opacity="1" /><path clip-path="url(#clip500)" d="M466.974 2197.03 Q463.363 2197.03 461.534 2200.59 Q459.729 2204.13 459.729 2211.26 Q459.729 2218.37 461.534 2221.93 Q463.363 2225.48 466.974 2225.48 Q470.609 2225.48 472.414 2221.93 Q474.243 2218.37 474.243 2211.26 Q474.243 2204.13 472.414 2200.59 Q470.609 2197.03 466.974 2197.03 M466.974 2193.32 Q472.784 2193.32 475.84 2197.93 Q478.919 2202.51 478.919 2211.26 Q478.919 2219.99 475.84 2224.6 Q472.784 2229.18 466.974 2229.18 Q461.164 2229.18 458.085 2224.6 Q455.03 2219.99 455.03 2211.26 Q455.03 2202.51 458.085 2197.93 Q461.164 2193.32 466.974 2193.32 Z" fill="#000000" fill-rule="nonzero" fill-opacity="1" /><path clip-path="url(#clip500)" d="M497.136 2197.03 Q493.525 2197.03 491.696 2200.59 Q489.891 2204.13 489.891 2211.26 Q489.891 2218.37 491.696 2221.93 Q493.525 2225.48 497.136 2225.48 Q500.77 2225.48 502.576 2221.93 Q504.405 2218.37 504.405 2211.26 Q504.405 2204.13 502.576 2200.59 Q500.77 2197.03 497.136 2197.03 M497.136 2193.32 Q502.946 2193.32 506.002 2197.93 Q509.081 2202.51 509.081 2211.26 Q509.081 2219.99 506.002 2224.6 Q502.946 2229.18 497.136 2229.18 Q491.326 2229.18 488.247 2224.6 Q485.192 2219.99 485.192 2211.26 Q485.192 2202.51 488.247 2197.93 Q491.326 2193.32 497.136 2193.32 Z" fill="#000000" fill-rule="nonzero" fill-opacity="1" /><path clip-path="url(#clip500)" d="M916.545 2193.95 L934.902 2193.95 L934.902 2197.88 L920.828 2197.88 L920.828 2206.36 Q921.846 2206.01 922.865 2205.85 Q923.883 2205.66 924.902 2205.66 Q930.689 2205.66 934.068 2208.83 Q937.448 2212 937.448 2217.42 Q937.448 2223 933.976 2226.1 Q930.503 2229.18 924.184 2229.18 Q922.008 2229.18 919.74 2228.81 Q917.494 2228.44 915.087 2227.7 L915.087 2223 Q917.17 2224.13 919.392 2224.69 Q921.615 2225.24 924.091 2225.24 Q928.096 2225.24 930.434 2223.14 Q932.772 2221.03 932.772 2217.42 Q932.772 2213.81 930.434 2211.7 Q928.096 2209.6 924.091 2209.6 Q922.216 2209.6 920.341 2210.01 Q918.49 2210.43 916.545 2211.31 L916.545 2193.95 Z" fill="#000000" fill-rule="nonzero" fill-opacity="1" /><path clip-path="url(#clip500)" d="M956.661 2197.03 Q953.05 2197.03 951.221 2200.59 Q949.415 2204.13 949.415 2211.26 Q949.415 2218.37 951.221 2221.93 Q953.05 2225.48 956.661 2225.48 Q960.295 2225.48 962.101 2221.93 Q963.929 2218.37 963.929 2211.26 Q963.929 2204.13 962.101 2200.59 Q960.295 2197.03 956.661 2197.03 M956.661 2193.32 Q962.471 2193.32 965.526 2197.93 Q968.605 2202.51 968.605 2211.26 Q968.605 2219.99 965.526 2224.6 Q962.471 2229.18 956.661 2229.18 Q950.851 2229.18 947.772 2224.6 Q944.716 2219.99 944.716 2211.26 Q944.716 2202.51 947.772 2197.93 Q950.851 2193.32 956.661 2193.32 Z" fill="#000000" fill-rule="nonzero" fill-opacity="1" /><path clip-path="url(#clip500)" d="M986.823 2197.03 Q983.212 2197.03 981.383 2200.59 Q979.577 2204.13 979.577 2211.26 Q979.577 2218.37 981.383 2221.93 Q983.212 2225.48 986.823 2225.48 Q990.457 2225.48 992.262 2221.93 Q994.091 2218.37 994.091 2211.26 Q994.091 2204.13 992.262 2200.59 Q990.457 2197.03 986.823 2197.03 M986.823 2193.32 Q992.633 2193.32 995.688 2197.93 Q998.767 2202.51 998.767 2211.26 Q998.767 2219.99 995.688 2224.6 Q992.633 2229.18 986.823 2229.18 Q981.012 2229.18 977.934 2224.6 Q974.878 2219.99 974.878 2211.26 Q974.878 2202.51 977.934 2197.93 Q981.012 2193.32 986.823 2193.32 Z" fill="#000000" fill-rule="nonzero" fill-opacity="1" /><path clip-path="url(#clip500)" d="M1717.75 2224.57 L1725.39 2224.57 L1725.39 2198.21 L1717.08 2199.87 L1717.08 2195.61 L1725.34 2193.95 L1730.02 2193.95 L1730.02 2224.57 L1737.66 2224.57 L1737.66 2228.51 L1717.75 2228.51 L1717.75 2224.57 Z" fill="#000000" fill-rule="nonzero" fill-opacity="1" /><path clip-path="url(#clip500)" d="M1757.1 2197.03 Q1753.49 2197.03 1751.66 2200.59 Q1749.86 2204.13 1749.86 2211.26 Q1749.86 2218.37 1751.66 2221.93 Q1753.49 2225.48 1757.1 2225.48 Q1760.74 2225.48 1762.54 2221.93 Q1764.37 2218.37 1764.37 2211.26 Q1764.37 2204.13 1762.54 2200.59 Q1760.74 2197.03 1757.1 2197.03 M1757.1 2193.32 Q1762.91 2193.32 1765.97 2197.93 Q1769.05 2202.51 1769.05 2211.26 Q1769.05 2219.99 1765.97 2224.6 Q1762.91 2229.18 1757.1 2229.18 Q1751.29 2229.18 1748.21 2224.6 Q1745.16 2219.99 1745.16 2211.26 Q1745.16 2202.51 1748.21 2197.93 Q1751.29 2193.32 1757.1 2193.32 Z" fill="#000000" fill-rule="nonzero" fill-opacity="1" /><path clip-path="url(#clip500)" d="M1787.26 2197.03 Q1783.65 2197.03 1781.82 2200.59 Q1780.02 2204.13 1780.02 2211.26 Q1780.02 2218.37 1781.82 2221.93 Q1783.65 2225.48 1787.26 2225.48 Q1790.9 2225.48 1792.7 2221.93 Q1794.53 2218.37 1794.53 2211.26 Q1794.53 2204.13 1792.7 2200.59 Q1790.9 2197.03 1787.26 2197.03 M1787.26 2193.32 Q1793.07 2193.32 1796.13 2197.93 Q1799.21 2202.51 1799.21 2211.26 Q1799.21 2219.99 1796.13 2224.6 Q1793.07 2229.18 1787.26 2229.18 Q1781.45 2229.18 1778.38 2224.6 Q1775.32 2219.99 1775.32 2211.26 Q1775.32 2202.51 1778.38 2197.93 Q1781.45 2193.32 1787.26 2193.32 Z" fill="#000000" fill-rule="nonzero" fill-opacity="1" /><path clip-path="url(#clip500)" d="M1817.43 2197.03 Q1813.82 2197.03 1811.99 2200.59 Q1810.18 2204.13 1810.18 2211.26 Q1810.18 2218.37 1811.99 2221.93 Q1813.82 2225.48 1817.43 2225.48 Q1821.06 2225.48 1822.87 2221.93 Q1824.69 2218.37 1824.69 2211.26 Q1824.69 2204.13 1822.87 2200.59 Q1821.06 2197.03 1817.43 2197.03 M1817.43 2193.32 Q1823.24 2193.32 1826.29 2197.93 Q1829.37 2202.51 1829.37 2211.26 Q1829.37 2219.99 1826.29 2224.6 Q1823.24 2229.18 1817.43 2229.18 Q1811.62 2229.18 1808.54 2224.6 Q1805.48 2219.99 1805.48 2211.26 Q1805.48 2202.51 1808.54 2197.93 Q1811.62 2193.32 1817.43 2193.32 Z" fill="#000000" fill-rule="nonzero" fill-opacity="1" /><path clip-path="url(#clip500)" d="M3354.43 2224.57 L3370.75 2224.57 L3370.75 2228.51 L3348.81 2228.51 L3348.81 2224.57 Q3351.47 2221.82 3356.05 2217.19 Q3360.66 2212.54 3361.84 2211.19 Q3364.09 2208.67 3364.97 2206.93 Q3365.87 2205.17 3365.87 2203.48 Q3365.87 2200.73 3363.92 2198.99 Q3362 2197.26 3358.9 2197.26 Q3356.7 2197.26 3354.25 2198.02 Q3351.82 2198.79 3349.04 2200.34 L3349.04 2195.61 Q3351.86 2194.48 3354.32 2193.9 Q3356.77 2193.32 3358.81 2193.32 Q3364.18 2193.32 3367.37 2196.01 Q3370.57 2198.69 3370.57 2203.18 Q3370.57 2205.31 3369.76 2207.23 Q3368.97 2209.13 3366.86 2211.73 Q3366.29 2212.4 3363.18 2215.61 Q3360.08 2218.81 3354.43 2224.57 Z" fill="#000000" fill-rule="nonzero" fill-opacity="1" /><path clip-path="url(#clip500)" d="M3390.57 2197.03 Q3386.96 2197.03 3385.13 2200.59 Q3383.32 2204.13 3383.32 2211.26 Q3383.32 2218.37 3385.13 2221.93 Q3386.96 2225.48 3390.57 2225.48 Q3394.2 2225.48 3396.01 2221.93 Q3397.84 2218.37 3397.84 2211.26 Q3397.84 2204.13 3396.01 2200.59 Q3394.2 2197.03 3390.57 2197.03 M3390.57 2193.32 Q3396.38 2193.32 3399.43 2197.93 Q3402.51 2202.51 3402.51 2211.26 Q3402.51 2219.99 3399.43 2224.6 Q3396.38 2229.18 3390.57 2229.18 Q3384.76 2229.18 3381.68 2224.6 Q3378.62 2219.99 3378.62 2211.26 Q3378.62 2202.51 3381.68 2197.93 Q3384.76 2193.32 3390.57 2193.32 Z" fill="#000000" fill-rule="nonzero" fill-opacity="1" /><path clip-path="url(#clip500)" d="M3420.73 2197.03 Q3417.12 2197.03 3415.29 2200.59 Q3413.48 2204.13 3413.48 2211.26 Q3413.48 2218.37 3415.29 2221.93 Q3417.12 2225.48 3420.73 2225.48 Q3424.36 2225.48 3426.17 2221.93 Q3428 2218.37 3428 2211.26 Q3428 2204.13 3426.17 2200.59 Q3424.36 2197.03 3420.73 2197.03 M3420.73 2193.32 Q3426.54 2193.32 3429.6 2197.93 Q3432.67 2202.51 3432.67 2211.26 Q3432.67 2219.99 3429.6 2224.6 Q3426.54 2229.18 3420.73 2229.18 Q3414.92 2229.18 3411.84 2224.6 Q3408.79 2219.99 3408.79 2211.26 Q3408.79 2202.51 3411.84 2197.93 Q3414.92 2193.32 3420.73 2193.32 Z" fill="#000000" fill-rule="nonzero" fill-opacity="1" /><path clip-path="url(#clip500)" d="M3450.89 2197.03 Q3447.28 2197.03 3445.45 2200.59 Q3443.65 2204.13 3443.65 2211.26 Q3443.65 2218.37 3445.45 2221.93 Q3447.28 2225.48 3450.89 2225.48 Q3454.53 2225.48 3456.33 2221.93 Q3458.16 2218.37 3458.16 2211.26 Q3458.16 2204.13 3456.33 2200.59 Q3454.53 2197.03 3450.89 2197.03 M3450.89 2193.32 Q3456.7 2193.32 3459.76 2197.93 Q3462.84 2202.51 3462.84 2211.26 Q3462.84 2219.99 3459.76 2224.6 Q3456.7 2229.18 3450.89 2229.18 Q3445.08 2229.18 3442 2224.6 Q3438.95 2219.99 3438.95 2211.26 Q3438.95 2202.51 3442 2197.93 Q3445.08 2193.32 3450.89 2193.32 Z" fill="#000000" fill-rule="nonzero" fill-opacity="1" /><path clip-path="url(#clip500)" d="M1812.37 2308.02 L1812.37 2296.42 L1802.82 2296.42 L1802.82 2291.62 L1818.16 2291.62 L1818.16 2310.17 Q1814.77 2312.57 1810.69 2313.81 Q1806.61 2315.03 1801.98 2315.03 Q1791.85 2315.03 1786.12 2309.12 Q1780.42 2303.19 1780.42 2292.63 Q1780.42 2282.04 1786.12 2276.14 Q1791.85 2270.21 1801.98 2270.21 Q1806.21 2270.21 1810 2271.25 Q1813.81 2272.29 1817.03 2274.32 L1817.03 2280.54 Q1813.79 2277.79 1810.14 2276.4 Q1806.49 2275.01 1802.47 2275.01 Q1794.54 2275.01 1790.55 2279.44 Q1786.59 2283.86 1786.59 2292.63 Q1786.59 2301.37 1790.55 2305.8 Q1794.54 2310.22 1802.47 2310.22 Q1805.57 2310.22 1808 2309.7 Q1810.43 2309.15 1812.37 2308.02 Z" fill="#000000" fill-rule="nonzero" fill-opacity="1" /><path clip-path="url(#clip500)" d="M1847.38 2286.76 Q1846.48 2286.24 1845.41 2286 Q1844.37 2285.74 1843.1 2285.74 Q1838.58 2285.74 1836.15 2288.7 Q1833.75 2291.62 1833.75 2297.12 L1833.75 2314.19 L1828.4 2314.19 L1828.4 2281.78 L1833.75 2281.78 L1833.75 2286.82 Q1835.43 2283.86 1838.12 2282.45 Q1840.81 2281 1844.66 2281 Q1845.21 2281 1845.87 2281.09 Q1846.54 2281.14 1847.35 2281.29 L1847.38 2286.76 Z" fill="#000000" fill-rule="nonzero" fill-opacity="1" /><path clip-path="url(#clip500)" d="M1852.96 2281.78 L1858.29 2281.78 L1858.29 2314.19 L1852.96 2314.19 L1852.96 2281.78 M1852.96 2269.16 L1858.29 2269.16 L1858.29 2275.91 L1852.96 2275.91 L1852.96 2269.16 Z" fill="#000000" fill-rule="nonzero" fill-opacity="1" /><path clip-path="url(#clip500)" d="M1890.75 2286.7 L1890.75 2269.16 L1896.08 2269.16 L1896.08 2314.19 L1890.75 2314.19 L1890.75 2309.33 Q1889.07 2312.22 1886.5 2313.64 Q1883.95 2315.03 1880.37 2315.03 Q1874.49 2315.03 1870.79 2310.34 Q1867.11 2305.65 1867.11 2298.01 Q1867.11 2290.37 1870.79 2285.69 Q1874.49 2281 1880.37 2281 Q1883.95 2281 1886.5 2282.42 Q1889.07 2283.81 1890.75 2286.7 M1872.61 2298.01 Q1872.61 2303.89 1875.01 2307.24 Q1877.44 2310.57 1881.67 2310.57 Q1885.89 2310.57 1888.32 2307.24 Q1890.75 2303.89 1890.75 2298.01 Q1890.75 2292.14 1888.32 2288.81 Q1885.89 2285.46 1881.67 2285.46 Q1877.44 2285.46 1875.01 2288.81 Q1872.61 2292.14 1872.61 2298.01 Z" fill="#000000" fill-rule="nonzero" fill-opacity="1" /><path clip-path="url(#clip500)" d="M1946.54 2282.74 L1946.54 2287.77 Q1944.28 2286.61 1941.85 2286.03 Q1939.42 2285.46 1936.82 2285.46 Q1932.85 2285.46 1930.86 2286.67 Q1928.89 2287.89 1928.89 2290.32 Q1928.89 2292.17 1930.31 2293.24 Q1931.73 2294.28 1936.01 2295.24 L1937.83 2295.64 Q1943.5 2296.86 1945.87 2299.08 Q1948.28 2301.28 1948.28 2305.25 Q1948.28 2309.76 1944.69 2312.39 Q1941.13 2315.03 1934.88 2315.03 Q1932.27 2315.03 1929.44 2314.51 Q1926.63 2314.01 1923.51 2313 L1923.51 2307.5 Q1926.46 2309.04 1929.32 2309.82 Q1932.19 2310.57 1934.99 2310.57 Q1938.76 2310.57 1940.78 2309.3 Q1942.81 2308 1942.81 2305.65 Q1942.81 2303.48 1941.33 2302.32 Q1939.88 2301.17 1934.94 2300.1 L1933.09 2299.66 Q1928.14 2298.62 1925.94 2296.48 Q1923.74 2294.31 1923.74 2290.55 Q1923.74 2285.98 1926.98 2283.49 Q1930.22 2281 1936.18 2281 Q1939.13 2281 1941.74 2281.43 Q1944.34 2281.87 1946.54 2282.74 Z" fill="#000000" fill-rule="nonzero" fill-opacity="1" /><path clip-path="url(#clip500)" d="M1956.75 2281.78 L1962.08 2281.78 L1962.08 2314.19 L1956.75 2314.19 L1956.75 2281.78 M1956.75 2269.16 L1962.08 2269.16 L1962.08 2275.91 L1956.75 2275.91 L1956.75 2269.16 Z" fill="#000000" fill-rule="nonzero" fill-opacity="1" /><path clip-path="url(#clip500)" d="M1970.9 2281.78 L1996.19 2281.78 L1996.19 2286.64 L1976.17 2309.93 L1996.19 2309.93 L1996.19 2314.19 L1970.18 2314.19 L1970.18 2309.33 L1990.2 2286.03 L1970.9 2286.03 L1970.9 2281.78 Z" fill="#000000" fill-rule="nonzero" fill-opacity="1" /><path clip-path="url(#clip500)" d="M2032.04 2296.65 L2032.04 2299.26 L2007.56 2299.26 Q2007.91 2304.75 2010.86 2307.65 Q2013.84 2310.51 2019.14 2310.51 Q2022.21 2310.51 2025.07 2309.76 Q2027.96 2309.01 2030.8 2307.5 L2030.8 2312.54 Q2027.93 2313.75 2024.92 2314.39 Q2021.92 2315.03 2018.82 2315.03 Q2011.07 2315.03 2006.52 2310.51 Q2002.01 2306 2002.01 2298.3 Q2002.01 2290.35 2006.29 2285.69 Q2010.6 2281 2017.89 2281 Q2024.43 2281 2028.22 2285.22 Q2032.04 2289.42 2032.04 2296.65 M2026.72 2295.09 Q2026.66 2290.72 2024.26 2288.12 Q2021.89 2285.51 2017.95 2285.51 Q2013.5 2285.51 2010.8 2288.03 Q2008.14 2290.55 2007.74 2295.12 L2026.72 2295.09 Z" fill="#000000" fill-rule="nonzero" fill-opacity="1" /><path clip-path="url(#clip500)" d="M2059.85 2270.99 L2067.72 2270.99 L2086.87 2307.13 L2086.87 2270.99 L2092.55 2270.99 L2092.55 2314.19 L2084.68 2314.19 L2065.52 2278.05 L2065.52 2314.19 L2059.85 2314.19 L2059.85 2270.99 Z" fill="#000000" fill-rule="nonzero" fill-opacity="1" /><polyline clip-path="url(#clip500)" style="stroke:#000000; stroke-linecap:round; stroke-linejoin:round; stroke-width:4; stroke-opacity:1; fill:none" points="320.214,2156.51 320.214,246.944 "/>
<polyline clip-path="url(#clip500)" style="stroke:#000000; stroke-linecap:round; stroke-linejoin:round; stroke-width:4; stroke-opacity:1; fill:none" points="320.214,2145.61 339.112,2145.61 "/>
<polyline clip-path="url(#clip500)" style="stroke:#000000; stroke-linecap:round; stroke-linejoin:round; stroke-width:4; stroke-opacity:1; fill:none" points="320.214,1682.62 339.112,1682.62 "/>
<polyline clip-path="url(#clip500)" style="stroke:#000000; stroke-linecap:round; stroke-linejoin:round; stroke-width:4; stroke-opacity:1; fill:none" points="320.214,1219.64 339.112,1219.64 "/>
<polyline clip-path="url(#clip500)" style="stroke:#000000; stroke-linecap:round; stroke-linejoin:round; stroke-width:4; stroke-opacity:1; fill:none" points="320.214,756.659 339.112,756.659 "/>
<polyline clip-path="url(#clip500)" style="stroke:#000000; stroke-linecap:round; stroke-linejoin:round; stroke-width:4; stroke-opacity:1; fill:none" points="320.214,293.676 339.112,293.676 "/>
<path clip-path="url(#clip500)" d="M178.877 2131.41 Q175.266 2131.41 173.437 2134.97 Q171.631 2138.51 171.631 2145.64 Q171.631 2152.75 173.437 2156.31 Q175.266 2159.86 178.877 2159.86 Q182.511 2159.86 184.316 2156.31 Q186.145 2152.75 186.145 2145.64 Q186.145 2138.51 184.316 2134.97 Q182.511 2131.41 178.877 2131.41 M178.877 2127.7 Q184.687 2127.7 187.742 2132.31 Q190.821 2136.89 190.821 2145.64 Q190.821 2154.37 187.742 2158.98 Q184.687 2163.56 178.877 2163.56 Q173.067 2163.56 169.988 2158.98 Q166.932 2154.37 166.932 2145.64 Q166.932 2136.89 169.988 2132.31 Q173.067 2127.7 178.877 2127.7 Z" fill="#000000" fill-rule="nonzero" fill-opacity="1" /><path clip-path="url(#clip500)" d="M199.039 2157.01 L203.923 2157.01 L203.923 2162.89 L199.039 2162.89 L199.039 2157.01 Z" fill="#000000" fill-rule="nonzero" fill-opacity="1" /><path clip-path="url(#clip500)" d="M224.108 2131.41 Q220.497 2131.41 218.668 2134.97 Q216.863 2138.51 216.863 2145.64 Q216.863 2152.75 218.668 2156.31 Q220.497 2159.86 224.108 2159.86 Q227.742 2159.86 229.548 2156.31 Q231.376 2152.75 231.376 2145.64 Q231.376 2138.51 229.548 2134.97 Q227.742 2131.41 224.108 2131.41 M224.108 2127.7 Q229.918 2127.7 232.974 2132.31 Q236.052 2136.89 236.052 2145.64 Q236.052 2154.37 232.974 2158.98 Q229.918 2163.56 224.108 2163.56 Q218.298 2163.56 215.219 2158.98 Q212.164 2154.37 212.164 2145.64 Q212.164 2136.89 215.219 2132.31 Q218.298 2127.7 224.108 2127.7 Z" fill="#000000" fill-rule="nonzero" fill-opacity="1" /><path clip-path="url(#clip500)" d="M254.27 2131.41 Q250.659 2131.41 248.83 2134.97 Q247.024 2138.51 247.024 2145.64 Q247.024 2152.75 248.83 2156.31 Q250.659 2159.86 254.27 2159.86 Q257.904 2159.86 259.71 2156.31 Q261.538 2152.75 261.538 2145.64 Q261.538 2138.51 259.71 2134.97 Q257.904 2131.41 254.27 2131.41 M254.27 2127.7 Q260.08 2127.7 263.135 2132.31 Q266.214 2136.89 266.214 2145.64 Q266.214 2154.37 263.135 2158.98 Q260.08 2163.56 254.27 2163.56 Q248.46 2163.56 245.381 2158.98 Q242.325 2154.37 242.325 2145.64 Q242.325 2136.89 245.381 2132.31 Q248.46 2127.7 254.27 2127.7 Z" fill="#000000" fill-rule="nonzero" fill-opacity="1" /><path clip-path="url(#clip500)" d="M179.872 1668.42 Q176.261 1668.42 174.432 1671.99 Q172.627 1675.53 172.627 1682.66 Q172.627 1689.77 174.432 1693.33 Q176.261 1696.87 179.872 1696.87 Q183.506 1696.87 185.312 1693.33 Q187.141 1689.77 187.141 1682.66 Q187.141 1675.53 185.312 1671.99 Q183.506 1668.42 179.872 1668.42 M179.872 1664.72 Q185.682 1664.72 188.738 1669.33 Q191.816 1673.91 191.816 1682.66 Q191.816 1691.39 188.738 1695.99 Q185.682 1700.58 179.872 1700.58 Q174.062 1700.58 170.983 1695.99 Q167.928 1691.39 167.928 1682.66 Q167.928 1673.91 170.983 1669.33 Q174.062 1664.72 179.872 1664.72 Z" fill="#000000" fill-rule="nonzero" fill-opacity="1" /><path clip-path="url(#clip500)" d="M200.034 1694.02 L204.918 1694.02 L204.918 1699.9 L200.034 1699.9 L200.034 1694.02 Z" fill="#000000" fill-rule="nonzero" fill-opacity="1" /><path clip-path="url(#clip500)" d="M219.131 1695.97 L235.45 1695.97 L235.45 1699.9 L213.506 1699.9 L213.506 1695.97 Q216.168 1693.21 220.751 1688.59 Q225.358 1683.93 226.538 1682.59 Q228.784 1680.07 229.663 1678.33 Q230.566 1676.57 230.566 1674.88 Q230.566 1672.13 228.622 1670.39 Q226.7 1668.65 223.599 1668.65 Q221.4 1668.65 218.946 1669.42 Q216.515 1670.18 213.738 1671.73 L213.738 1667.01 Q216.562 1665.88 219.015 1665.3 Q221.469 1664.72 223.506 1664.72 Q228.876 1664.72 232.071 1667.4 Q235.265 1670.09 235.265 1674.58 Q235.265 1676.71 234.455 1678.63 Q233.668 1680.53 231.562 1683.12 Q230.983 1683.79 227.881 1687.01 Q224.779 1690.21 219.131 1695.97 Z" fill="#000000" fill-rule="nonzero" fill-opacity="1" /><path clip-path="url(#clip500)" d="M245.311 1665.34 L263.668 1665.34 L263.668 1669.28 L249.594 1669.28 L249.594 1677.75 Q250.612 1677.4 251.631 1677.24 Q252.649 1677.06 253.668 1677.06 Q259.455 1677.06 262.835 1680.23 Q266.214 1683.4 266.214 1688.82 Q266.214 1694.4 262.742 1697.5 Q259.27 1700.58 252.95 1700.58 Q250.774 1700.58 248.506 1700.21 Q246.261 1699.84 243.853 1699.09 L243.853 1694.4 Q245.936 1695.53 248.159 1696.09 Q250.381 1696.64 252.858 1696.64 Q256.862 1696.64 259.2 1694.53 Q261.538 1692.43 261.538 1688.82 Q261.538 1685.21 259.2 1683.1 Q256.862 1680.99 252.858 1680.99 Q250.983 1680.99 249.108 1681.41 Q247.256 1681.83 245.311 1682.71 L245.311 1665.34 Z" fill="#000000" fill-rule="nonzero" fill-opacity="1" /><path clip-path="url(#clip500)" d="M178.877 1205.44 Q175.266 1205.44 173.437 1209.01 Q171.631 1212.55 171.631 1219.68 Q171.631 1226.78 173.437 1230.35 Q175.266 1233.89 178.877 1233.89 Q182.511 1233.89 184.316 1230.35 Q186.145 1226.78 186.145 1219.68 Q186.145 1212.55 184.316 1209.01 Q182.511 1205.44 178.877 1205.44 M178.877 1201.74 Q184.687 1201.74 187.742 1206.34 Q190.821 1210.93 190.821 1219.68 Q190.821 1228.4 187.742 1233.01 Q184.687 1237.59 178.877 1237.59 Q173.067 1237.59 169.988 1233.01 Q166.932 1228.4 166.932 1219.68 Q166.932 1210.93 169.988 1206.34 Q173.067 1201.74 178.877 1201.74 Z" fill="#000000" fill-rule="nonzero" fill-opacity="1" /><path clip-path="url(#clip500)" d="M199.039 1231.04 L203.923 1231.04 L203.923 1236.92 L199.039 1236.92 L199.039 1231.04 Z" fill="#000000" fill-rule="nonzero" fill-opacity="1" /><path clip-path="url(#clip500)" d="M214.154 1202.36 L232.511 1202.36 L232.511 1206.3 L218.437 1206.3 L218.437 1214.77 Q219.455 1214.42 220.474 1214.26 Q221.492 1214.07 222.511 1214.07 Q228.298 1214.07 231.677 1217.25 Q235.057 1220.42 235.057 1225.83 Q235.057 1231.41 231.585 1234.51 Q228.113 1237.59 221.793 1237.59 Q219.617 1237.59 217.349 1237.22 Q215.103 1236.85 212.696 1236.11 L212.696 1231.41 Q214.779 1232.55 217.001 1233.1 Q219.224 1233.66 221.701 1233.66 Q225.705 1233.66 228.043 1231.55 Q230.381 1229.44 230.381 1225.83 Q230.381 1222.22 228.043 1220.12 Q225.705 1218.01 221.701 1218.01 Q219.826 1218.01 217.951 1218.43 Q216.099 1218.84 214.154 1219.72 L214.154 1202.36 Z" fill="#000000" fill-rule="nonzero" fill-opacity="1" /><path clip-path="url(#clip500)" d="M254.27 1205.44 Q250.659 1205.44 248.83 1209.01 Q247.024 1212.55 247.024 1219.68 Q247.024 1226.78 248.83 1230.35 Q250.659 1233.89 254.27 1233.89 Q257.904 1233.89 259.71 1230.35 Q261.538 1226.78 261.538 1219.68 Q261.538 1212.55 259.71 1209.01 Q257.904 1205.44 254.27 1205.44 M254.27 1201.74 Q260.08 1201.74 263.135 1206.34 Q266.214 1210.93 266.214 1219.68 Q266.214 1228.4 263.135 1233.01 Q260.08 1237.59 254.27 1237.59 Q248.46 1237.59 245.381 1233.01 Q242.325 1228.4 242.325 1219.68 Q242.325 1210.93 245.381 1206.34 Q248.46 1201.74 254.27 1201.74 Z" fill="#000000" fill-rule="nonzero" fill-opacity="1" /><path clip-path="url(#clip500)" d="M179.872 742.457 Q176.261 742.457 174.432 746.022 Q172.627 749.564 172.627 756.693 Q172.627 763.8 174.432 767.365 Q176.261 770.906 179.872 770.906 Q183.506 770.906 185.312 767.365 Q187.141 763.8 187.141 756.693 Q187.141 749.564 185.312 746.022 Q183.506 742.457 179.872 742.457 M179.872 738.754 Q185.682 738.754 188.738 743.36 Q191.816 747.943 191.816 756.693 Q191.816 765.42 188.738 770.027 Q185.682 774.61 179.872 774.61 Q174.062 774.61 170.983 770.027 Q167.928 765.42 167.928 756.693 Q167.928 747.943 170.983 743.36 Q174.062 738.754 179.872 738.754 Z" fill="#000000" fill-rule="nonzero" fill-opacity="1" /><path clip-path="url(#clip500)" d="M200.034 768.059 L204.918 768.059 L204.918 773.939 L200.034 773.939 L200.034 768.059 Z" fill="#000000" fill-rule="nonzero" fill-opacity="1" /><path clip-path="url(#clip500)" d="M213.923 739.379 L236.145 739.379 L236.145 741.369 L223.599 773.939 L218.714 773.939 L230.52 743.314 L213.923 743.314 L213.923 739.379 Z" fill="#000000" fill-rule="nonzero" fill-opacity="1" /><path clip-path="url(#clip500)" d="M245.311 739.379 L263.668 739.379 L263.668 743.314 L249.594 743.314 L249.594 751.786 Q250.612 751.439 251.631 751.277 Q252.649 751.092 253.668 751.092 Q259.455 751.092 262.835 754.263 Q266.214 757.434 266.214 762.851 Q266.214 768.429 262.742 771.531 Q259.27 774.61 252.95 774.61 Q250.774 774.61 248.506 774.24 Q246.261 773.869 243.853 773.129 L243.853 768.429 Q245.936 769.564 248.159 770.119 Q250.381 770.675 252.858 770.675 Q256.862 770.675 259.2 768.568 Q261.538 766.462 261.538 762.851 Q261.538 759.24 259.2 757.133 Q256.862 755.027 252.858 755.027 Q250.983 755.027 249.108 755.443 Q247.256 755.86 245.311 756.74 L245.311 739.379 Z" fill="#000000" fill-rule="nonzero" fill-opacity="1" /><path clip-path="url(#clip500)" d="M169.687 307.021 L177.326 307.021 L177.326 280.655 L169.016 282.322 L169.016 278.062 L177.279 276.396 L181.955 276.396 L181.955 307.021 L189.594 307.021 L189.594 310.956 L169.687 310.956 L169.687 307.021 Z" fill="#000000" fill-rule="nonzero" fill-opacity="1" /><path clip-path="url(#clip500)" d="M199.039 305.076 L203.923 305.076 L203.923 310.956 L199.039 310.956 L199.039 305.076 Z" fill="#000000" fill-rule="nonzero" fill-opacity="1" /><path clip-path="url(#clip500)" d="M224.108 279.474 Q220.497 279.474 218.668 283.039 Q216.863 286.581 216.863 293.711 Q216.863 300.817 218.668 304.382 Q220.497 307.923 224.108 307.923 Q227.742 307.923 229.548 304.382 Q231.376 300.817 231.376 293.711 Q231.376 286.581 229.548 283.039 Q227.742 279.474 224.108 279.474 M224.108 275.771 Q229.918 275.771 232.974 280.377 Q236.052 284.961 236.052 293.711 Q236.052 302.437 232.974 307.044 Q229.918 311.627 224.108 311.627 Q218.298 311.627 215.219 307.044 Q212.164 302.437 212.164 293.711 Q212.164 284.961 215.219 280.377 Q218.298 275.771 224.108 275.771 Z" fill="#000000" fill-rule="nonzero" fill-opacity="1" /><path clip-path="url(#clip500)" d="M254.27 279.474 Q250.659 279.474 248.83 283.039 Q247.024 286.581 247.024 293.711 Q247.024 300.817 248.83 304.382 Q250.659 307.923 254.27 307.923 Q257.904 307.923 259.71 304.382 Q261.538 300.817 261.538 293.711 Q261.538 286.581 259.71 283.039 Q257.904 279.474 254.27 279.474 M254.27 275.771 Q260.08 275.771 263.135 280.377 Q266.214 284.961 266.214 293.711 Q266.214 302.437 263.135 307.044 Q260.08 311.627 254.27 311.627 Q248.46 311.627 245.381 307.044 Q242.325 302.437 242.325 293.711 Q242.325 284.961 245.381 280.377 Q248.46 275.771 254.27 275.771 Z" fill="#000000" fill-rule="nonzero" fill-opacity="1" /><path clip-path="url(#clip500)" d="M58.1901 1374.69 L63.8903 1374.69 Q62.2989 1378.01 61.5176 1380.96 Q60.7364 1383.92 60.7364 1386.66 Q60.7364 1391.44 62.5882 1394.04 Q64.4401 1396.62 67.8544 1396.62 Q70.719 1396.62 72.1947 1394.91 Q73.6414 1393.17 74.5384 1388.37 L75.2618 1384.84 Q76.506 1378.3 79.6599 1375.21 Q82.7849 1372.08 88.0511 1372.08 Q94.33 1372.08 97.5707 1376.31 Q100.811 1380.5 100.811 1388.63 Q100.811 1391.7 100.117 1395.17 Q99.4225 1398.61 98.0626 1402.32 L92.0441 1402.32 Q94.0406 1398.76 95.0533 1395.34 Q96.0661 1391.93 96.0661 1388.63 Q96.0661 1383.63 94.0985 1380.91 Q92.1309 1378.19 88.4851 1378.19 Q85.3022 1378.19 83.5083 1380.15 Q81.7143 1382.09 80.8173 1386.55 L80.1229 1390.11 Q78.8208 1396.65 76.043 1399.57 Q73.2653 1402.49 68.3174 1402.49 Q62.5882 1402.49 59.2896 1398.47 Q55.991 1394.42 55.991 1387.33 Q55.991 1384.29 56.5408 1381.14 Q57.0906 1377.98 58.1901 1374.69 Z" fill="#000000" fill-rule="nonzero" fill-opacity="1" /><path clip-path="url(#clip500)" d="M71.2977 1350.64 Q71.2977 1354.92 74.6541 1357.41 Q77.9817 1359.9 83.7976 1359.9 Q89.6135 1359.9 92.97 1357.44 Q96.2975 1354.95 96.2975 1350.64 Q96.2975 1346.39 92.9411 1343.9 Q89.5846 1341.41 83.7976 1341.41 Q78.0395 1341.41 74.6831 1343.9 Q71.2977 1346.39 71.2977 1350.64 M66.7838 1350.64 Q66.7838 1343.7 71.2977 1339.73 Q75.8115 1335.77 83.7976 1335.77 Q91.7547 1335.77 96.2975 1339.73 Q100.811 1343.7 100.811 1350.64 Q100.811 1357.61 96.2975 1361.58 Q91.7547 1365.51 83.7976 1365.51 Q75.8115 1365.51 71.2977 1361.58 Q66.7838 1357.61 66.7838 1350.64 Z" fill="#000000" fill-rule="nonzero" fill-opacity="1" /><path clip-path="url(#clip500)" d="M54.9494 1326.94 L54.9494 1321.62 L99.9723 1321.62 L99.9723 1326.94 L54.9494 1326.94 Z" fill="#000000" fill-rule="nonzero" fill-opacity="1" /><path clip-path="url(#clip500)" d="M67.565 1314.3 L67.565 1308.66 L94.764 1298.53 L67.565 1288.4 L67.565 1282.76 L99.9723 1294.91 L99.9723 1302.15 L67.565 1314.3 Z" fill="#000000" fill-rule="nonzero" fill-opacity="1" /><path clip-path="url(#clip500)" d="M82.4377 1247.69 L85.0418 1247.69 L85.0418 1272.17 Q90.5395 1271.82 93.433 1268.87 Q96.2975 1265.89 96.2975 1260.59 Q96.2975 1257.53 95.5452 1254.66 Q94.7929 1251.77 93.2883 1248.93 L98.323 1248.93 Q99.5383 1251.8 100.175 1254.81 Q100.811 1257.82 100.811 1260.91 Q100.811 1268.67 96.2975 1273.21 Q91.7837 1277.72 84.087 1277.72 Q76.1298 1277.72 71.4713 1273.44 Q66.7838 1269.13 66.7838 1261.84 Q66.7838 1255.3 71.0083 1251.51 Q75.2039 1247.69 82.4377 1247.69 M80.8752 1253.01 Q76.506 1253.07 73.9018 1255.47 Q71.2977 1257.85 71.2977 1261.78 Q71.2977 1266.24 73.815 1268.93 Q76.3324 1271.59 80.9041 1271.99 L80.8752 1253.01 Z" fill="#000000" fill-rule="nonzero" fill-opacity="1" /><path clip-path="url(#clip500)" d="M58.3637 1214.85 L67.565 1214.85 L67.565 1203.88 L71.7028 1203.88 L71.7028 1214.85 L89.2953 1214.85 Q93.2594 1214.85 94.3878 1213.78 Q95.5163 1212.68 95.5163 1209.35 L95.5163 1203.88 L99.9723 1203.88 L99.9723 1209.35 Q99.9723 1215.51 97.6864 1217.86 Q95.3716 1220.2 89.2953 1220.2 L71.7028 1220.2 L71.7028 1224.11 L67.565 1224.11 L67.565 1220.2 L58.3637 1220.2 L58.3637 1214.85 Z" fill="#000000" fill-rule="nonzero" fill-opacity="1" /><path clip-path="url(#clip500)" d="M67.565 1196.88 L67.565 1191.56 L99.9723 1191.56 L99.9723 1196.88 L67.565 1196.88 M54.9494 1196.88 L54.9494 1191.56 L61.6912 1191.56 L61.6912 1196.88 L54.9494 1196.88 Z" fill="#000000" fill-rule="nonzero" fill-opacity="1" /><path clip-path="url(#clip500)" d="M73.7861 1155.18 Q70.1981 1153.19 68.491 1150.41 Q66.7838 1147.63 66.7838 1143.87 Q66.7838 1138.81 70.3428 1136.06 Q73.8729 1133.31 80.4122 1133.31 L99.9723 1133.31 L99.9723 1138.66 L80.5858 1138.66 Q75.9273 1138.66 73.6703 1140.31 Q71.4134 1141.96 71.4134 1145.35 Q71.4134 1149.48 74.1622 1151.89 Q76.9111 1154.29 81.6564 1154.29 L99.9723 1154.29 L99.9723 1159.64 L80.5858 1159.64 Q75.8983 1159.64 73.6703 1161.29 Q71.4134 1162.94 71.4134 1166.38 Q71.4134 1170.46 74.1912 1172.86 Q76.94 1175.26 81.6564 1175.26 L99.9723 1175.26 L99.9723 1180.62 L67.565 1180.62 L67.565 1175.26 L72.5997 1175.26 Q69.6194 1173.44 68.2016 1170.9 Q66.7838 1168.35 66.7838 1164.85 Q66.7838 1161.32 68.5778 1158.86 Q70.3717 1156.37 73.7861 1155.18 Z" fill="#000000" fill-rule="nonzero" fill-opacity="1" /><path clip-path="url(#clip500)" d="M82.4377 1094.97 L85.0418 1094.97 L85.0418 1119.45 Q90.5395 1119.1 93.433 1116.15 Q96.2975 1113.17 96.2975 1107.88 Q96.2975 1104.81 95.5452 1101.94 Q94.7929 1099.05 93.2883 1096.21 L98.323 1096.21 Q99.5383 1099.08 100.175 1102.09 Q100.811 1105.1 100.811 1108.19 Q100.811 1115.95 96.2975 1120.49 Q91.7837 1125 84.087 1125 Q76.1298 1125 71.4713 1120.72 Q66.7838 1116.41 66.7838 1109.12 Q66.7838 1102.58 71.0083 1098.79 Q75.2039 1094.97 82.4377 1094.97 M80.8752 1100.29 Q76.506 1100.35 73.9018 1102.75 Q71.2977 1105.13 71.2977 1109.06 Q71.2977 1113.52 73.815 1116.21 Q76.3324 1118.87 80.9041 1119.28 L80.8752 1100.29 Z" fill="#000000" fill-rule="nonzero" fill-opacity="1" /><path clip-path="url(#clip500)" d="M55.0072 1054.61 Q61.6623 1058.48 68.1727 1060.36 Q74.6831 1062.24 81.3671 1062.24 Q88.0511 1062.24 94.6193 1060.36 Q101.159 1058.45 107.785 1054.61 L107.785 1059.24 Q100.985 1063.58 94.4168 1065.75 Q87.8485 1067.89 81.3671 1067.89 Q74.9145 1067.89 68.3752 1065.75 Q61.8359 1063.6 55.0072 1059.24 L55.0072 1054.61 Z" fill="#000000" fill-rule="nonzero" fill-opacity="1" /><path clip-path="url(#clip500)" d="M68.5199 1023.62 L73.5546 1023.62 Q72.3972 1025.87 71.8185 1028.3 Q71.2398 1030.73 71.2398 1033.34 Q71.2398 1037.3 72.4551 1039.3 Q73.6703 1041.27 76.1009 1041.27 Q77.9527 1041.27 79.0233 1039.85 Q80.065 1038.43 81.0198 1034.15 L81.4249 1032.33 Q82.6402 1026.65 84.8682 1024.28 Q87.0673 1021.88 91.0314 1021.88 Q95.5452 1021.88 98.1783 1025.47 Q100.811 1029.03 100.811 1035.28 Q100.811 1037.88 100.291 1040.72 Q99.7987 1043.52 98.7859 1046.65 L93.2883 1046.65 Q94.8218 1043.7 95.6031 1040.83 Q96.3554 1037.97 96.3554 1035.16 Q96.3554 1031.4 95.0823 1029.37 Q93.7802 1027.35 91.4364 1027.35 Q89.2663 1027.35 88.1089 1028.82 Q86.9515 1030.27 85.8809 1035.22 L85.4469 1037.07 Q84.4052 1042.02 82.264 1044.22 Q80.0939 1046.42 76.3324 1046.42 Q71.7606 1046.42 69.2722 1043.18 Q66.7838 1039.94 66.7838 1033.98 Q66.7838 1031.02 67.2178 1028.42 Q67.6519 1025.82 68.5199 1023.62 Z" fill="#000000" fill-rule="nonzero" fill-opacity="1" /><path clip-path="url(#clip500)" d="M55.0072 1014.24 L55.0072 1009.61 Q61.8359 1005.27 68.3752 1003.13 Q74.9145 1000.96 81.3671 1000.96 Q87.8485 1000.96 94.4168 1003.13 Q100.985 1005.27 107.785 1009.61 L107.785 1014.24 Q101.159 1010.39 94.6193 1008.51 Q88.0511 1006.6 81.3671 1006.6 Q74.6831 1006.6 68.1727 1008.51 Q61.6623 1010.39 55.0072 1014.24 Z" fill="#000000" fill-rule="nonzero" fill-opacity="1" /><path clip-path="url(#clip500)" d="M1315.04 125.969 L1315.04 133.949 Q1310.38 131.721 1306.25 130.627 Q1302.11 129.534 1298.27 129.534 Q1291.58 129.534 1287.94 132.126 Q1284.33 134.719 1284.33 139.499 Q1284.33 143.509 1286.72 145.575 Q1289.15 147.601 1295.88 148.857 L1300.82 149.869 Q1309.97 151.611 1314.31 156.027 Q1318.68 160.402 1318.68 167.774 Q1318.68 176.565 1312.77 181.102 Q1306.89 185.639 1295.51 185.639 Q1291.22 185.639 1286.36 184.667 Q1281.53 183.694 1276.35 181.79 L1276.35 173.365 Q1281.33 176.16 1286.11 177.577 Q1290.89 178.995 1295.51 178.995 Q1302.52 178.995 1306.33 176.241 Q1310.13 173.486 1310.13 168.382 Q1310.13 163.926 1307.38 161.414 Q1304.67 158.903 1298.43 157.647 L1293.44 156.675 Q1284.29 154.852 1280.2 150.963 Q1276.11 147.074 1276.11 140.147 Q1276.11 132.126 1281.74 127.508 Q1287.41 122.89 1297.33 122.89 Q1301.59 122.89 1306 123.66 Q1310.42 124.43 1315.04 125.969 Z" fill="#000000" fill-rule="nonzero" fill-opacity="1" /><path clip-path="url(#clip500)" d="M1348.7 144.32 Q1342.7 144.32 1339.22 149.019 Q1335.74 153.677 1335.74 161.819 Q1335.74 169.962 1339.18 174.661 Q1342.66 179.319 1348.7 179.319 Q1354.65 179.319 1358.14 174.62 Q1361.62 169.921 1361.62 161.819 Q1361.62 153.758 1358.14 149.059 Q1354.65 144.32 1348.7 144.32 M1348.7 138 Q1358.42 138 1363.97 144.32 Q1369.52 150.639 1369.52 161.819 Q1369.52 172.959 1363.97 179.319 Q1358.42 185.639 1348.7 185.639 Q1338.94 185.639 1333.39 179.319 Q1327.88 172.959 1327.88 161.819 Q1327.88 150.639 1333.39 144.32 Q1338.94 138 1348.7 138 Z" fill="#000000" fill-rule="nonzero" fill-opacity="1" /><path clip-path="url(#clip500)" d="M1381.88 121.432 L1389.33 121.432 L1389.33 184.464 L1381.88 184.464 L1381.88 121.432 Z" fill="#000000" fill-rule="nonzero" fill-opacity="1" /><path clip-path="url(#clip500)" d="M1399.58 139.094 L1407.48 139.094 L1421.66 177.172 L1435.83 139.094 L1443.73 139.094 L1426.72 184.464 L1416.59 184.464 L1399.58 139.094 Z" fill="#000000" fill-rule="nonzero" fill-opacity="1" /><path clip-path="url(#clip500)" d="M1492.83 159.916 L1492.83 163.561 L1458.56 163.561 Q1459.05 171.258 1463.18 175.309 Q1467.35 179.319 1474.76 179.319 Q1479.06 179.319 1483.07 178.266 Q1487.12 177.213 1491.09 175.106 L1491.09 182.155 Q1487.08 183.856 1482.86 184.748 Q1478.65 185.639 1474.32 185.639 Q1463.46 185.639 1457.1 179.319 Q1450.78 173 1450.78 162.225 Q1450.78 151.085 1456.78 144.563 Q1462.81 138 1473.02 138 Q1482.18 138 1487.48 143.914 Q1492.83 149.788 1492.83 159.916 M1485.38 157.728 Q1485.3 151.611 1481.93 147.965 Q1478.61 144.32 1473.1 144.32 Q1466.86 144.32 1463.1 147.844 Q1459.37 151.368 1458.8 157.769 L1485.38 157.728 Z" fill="#000000" fill-rule="nonzero" fill-opacity="1" /><path clip-path="url(#clip500)" d="M1538.81 126.212 L1538.81 139.094 L1554.16 139.094 L1554.16 144.887 L1538.81 144.887 L1538.81 169.516 Q1538.81 175.066 1540.31 176.646 Q1541.85 178.226 1546.5 178.226 L1554.16 178.226 L1554.16 184.464 L1546.5 184.464 Q1537.88 184.464 1534.59 181.264 Q1531.31 178.023 1531.31 169.516 L1531.31 144.887 L1525.84 144.887 L1525.84 139.094 L1531.31 139.094 L1531.31 126.212 L1538.81 126.212 Z" fill="#000000" fill-rule="nonzero" fill-opacity="1" /><path clip-path="url(#clip500)" d="M1563.96 139.094 L1571.42 139.094 L1571.42 184.464 L1563.96 184.464 L1563.96 139.094 M1563.96 121.432 L1571.42 121.432 L1571.42 130.871 L1563.96 130.871 L1563.96 121.432 Z" fill="#000000" fill-rule="nonzero" fill-opacity="1" /><path clip-path="url(#clip500)" d="M1622.34 147.803 Q1625.13 142.78 1629.02 140.39 Q1632.91 138 1638.18 138 Q1645.27 138 1649.11 142.983 Q1652.96 147.925 1652.96 157.08 L1652.96 184.464 L1645.47 184.464 L1645.47 157.323 Q1645.47 150.801 1643.16 147.641 Q1640.85 144.482 1636.11 144.482 Q1630.32 144.482 1626.96 148.33 Q1623.59 152.178 1623.59 158.822 L1623.59 184.464 L1616.1 184.464 L1616.1 157.323 Q1616.1 150.76 1613.79 147.641 Q1611.48 144.482 1606.66 144.482 Q1600.95 144.482 1597.59 148.37 Q1594.22 152.219 1594.22 158.822 L1594.22 184.464 L1586.73 184.464 L1586.73 139.094 L1594.22 139.094 L1594.22 146.142 Q1596.78 141.97 1600.34 139.985 Q1603.91 138 1608.81 138 Q1613.75 138 1617.19 140.512 Q1620.68 143.023 1622.34 147.803 Z" fill="#000000" fill-rule="nonzero" fill-opacity="1" /><path clip-path="url(#clip500)" d="M1706.64 159.916 L1706.64 163.561 L1672.37 163.561 Q1672.85 171.258 1676.98 175.309 Q1681.16 179.319 1688.57 179.319 Q1692.86 179.319 1696.87 178.266 Q1700.92 177.213 1704.89 175.106 L1704.89 182.155 Q1700.88 183.856 1696.67 184.748 Q1692.46 185.639 1688.12 185.639 Q1677.27 185.639 1670.91 179.319 Q1664.59 173 1664.59 162.225 Q1664.59 151.085 1670.58 144.563 Q1676.62 138 1686.83 138 Q1695.98 138 1701.29 143.914 Q1706.64 149.788 1706.64 159.916 M1699.18 157.728 Q1699.1 151.611 1695.74 147.965 Q1692.42 144.32 1686.91 144.32 Q1680.67 144.32 1676.9 147.844 Q1673.18 151.368 1672.61 157.769 L1699.18 157.728 Z" fill="#000000" fill-rule="nonzero" fill-opacity="1" /><path clip-path="url(#clip500)" d="M1739.89 139.094 L1747.79 139.094 L1761.97 177.172 L1776.15 139.094 L1784.05 139.094 L1767.04 184.464 L1756.91 184.464 L1739.89 139.094 Z" fill="#000000" fill-rule="nonzero" fill-opacity="1" /><path clip-path="url(#clip500)" d="M1823.26 140.431 L1823.26 147.479 Q1820.1 145.859 1816.7 145.049 Q1813.3 144.239 1809.65 144.239 Q1804.1 144.239 1801.31 145.94 Q1798.55 147.641 1798.55 151.044 Q1798.55 153.637 1800.54 155.135 Q1802.52 156.594 1808.52 157.931 L1811.07 158.498 Q1819.01 160.199 1822.33 163.318 Q1825.69 166.397 1825.69 171.947 Q1825.69 178.266 1820.67 181.952 Q1815.69 185.639 1806.94 185.639 Q1803.29 185.639 1799.32 184.91 Q1795.39 184.221 1791.02 182.803 L1791.02 175.106 Q1795.15 177.253 1799.16 178.347 Q1803.17 179.4 1807.1 179.4 Q1812.37 179.4 1815.2 177.618 Q1818.04 175.795 1818.04 172.514 Q1818.04 169.476 1815.97 167.855 Q1813.95 166.235 1807.02 164.736 L1804.43 164.128 Q1797.5 162.67 1794.42 159.672 Q1791.34 156.634 1791.34 151.368 Q1791.34 144.968 1795.88 141.484 Q1800.42 138 1808.76 138 Q1812.89 138 1816.54 138.608 Q1820.18 139.215 1823.26 140.431 Z" fill="#000000" fill-rule="nonzero" fill-opacity="1" /><path clip-path="url(#clip500)" d="M1893.79 161.252 Q1893.79 153.151 1890.43 148.695 Q1887.1 144.239 1881.07 144.239 Q1875.07 144.239 1871.71 148.695 Q1868.39 153.151 1868.39 161.252 Q1868.39 169.314 1871.71 173.77 Q1875.07 178.226 1881.07 178.226 Q1887.1 178.226 1890.43 173.77 Q1893.79 169.314 1893.79 161.252 M1901.24 178.833 Q1901.24 190.419 1896.1 196.05 Q1890.95 201.721 1880.34 201.721 Q1876.41 201.721 1872.93 201.113 Q1869.44 200.546 1866.16 199.331 L1866.16 192.08 Q1869.44 193.862 1872.64 194.713 Q1875.84 195.563 1879.16 195.563 Q1886.5 195.563 1890.14 191.715 Q1893.79 187.907 1893.79 180.17 L1893.79 176.484 Q1891.48 180.494 1887.87 182.479 Q1884.27 184.464 1879.25 184.464 Q1870.9 184.464 1865.8 178.104 Q1860.69 171.744 1860.69 161.252 Q1860.69 150.72 1865.8 144.36 Q1870.9 138 1879.25 138 Q1884.27 138 1887.87 139.985 Q1891.48 141.97 1893.79 145.98 L1893.79 139.094 L1901.24 139.094 L1901.24 178.833 Z" fill="#000000" fill-rule="nonzero" fill-opacity="1" /><path clip-path="url(#clip500)" d="M1942.89 146.061 Q1941.63 145.332 1940.13 145.008 Q1938.67 144.644 1936.89 144.644 Q1930.57 144.644 1927.17 148.776 Q1923.81 152.867 1923.81 160.564 L1923.81 184.464 L1916.31 184.464 L1916.31 139.094 L1923.81 139.094 L1923.81 146.142 Q1926.16 142.011 1929.92 140.026 Q1933.69 138 1939.08 138 Q1939.85 138 1940.78 138.122 Q1941.71 138.203 1942.84 138.405 L1942.89 146.061 Z" fill="#000000" fill-rule="nonzero" fill-opacity="1" /><path clip-path="url(#clip500)" d="M1950.7 139.094 L1958.16 139.094 L1958.16 184.464 L1950.7 184.464 L1950.7 139.094 M1950.7 121.432 L1958.16 121.432 L1958.16 130.871 L1950.7 130.871 L1950.7 121.432 Z" fill="#000000" fill-rule="nonzero" fill-opacity="1" /><path clip-path="url(#clip500)" d="M2003.61 145.98 L2003.61 121.432 L2011.06 121.432 L2011.06 184.464 L2003.61 184.464 L2003.61 177.658 Q2001.26 181.709 1997.65 183.694 Q1994.09 185.639 1989.07 185.639 Q1980.84 185.639 1975.66 179.076 Q1970.51 172.514 1970.51 161.819 Q1970.51 151.125 1975.66 144.563 Q1980.84 138 1989.07 138 Q1994.09 138 1997.65 139.985 Q2001.26 141.93 2003.61 145.98 M1978.21 161.819 Q1978.21 170.043 1981.57 174.742 Q1984.97 179.4 1990.89 179.4 Q1996.8 179.4 2000.21 174.742 Q2003.61 170.043 2003.61 161.819 Q2003.61 153.596 2000.21 148.938 Q1996.8 144.239 1990.89 144.239 Q1984.97 144.239 1981.57 148.938 Q1978.21 153.596 1978.21 161.819 Z" fill="#000000" fill-rule="nonzero" fill-opacity="1" /><path clip-path="url(#clip500)" d="M2081.71 140.431 L2081.71 147.479 Q2078.55 145.859 2075.15 145.049 Q2071.74 144.239 2068.1 144.239 Q2062.55 144.239 2059.75 145.94 Q2057 147.641 2057 151.044 Q2057 153.637 2058.98 155.135 Q2060.97 156.594 2066.96 157.931 L2069.52 158.498 Q2077.46 160.199 2080.78 163.318 Q2084.14 166.397 2084.14 171.947 Q2084.14 178.266 2079.12 181.952 Q2074.13 185.639 2065.38 185.639 Q2061.74 185.639 2057.77 184.91 Q2053.84 184.221 2049.46 182.803 L2049.46 175.106 Q2053.6 177.253 2057.61 178.347 Q2061.62 179.4 2065.55 179.4 Q2070.81 179.4 2073.65 177.618 Q2076.48 175.795 2076.48 172.514 Q2076.48 169.476 2074.42 167.855 Q2072.39 166.235 2065.47 164.736 L2062.87 164.128 Q2055.95 162.67 2052.87 159.672 Q2049.79 156.634 2049.79 151.368 Q2049.79 144.968 2054.33 141.484 Q2058.86 138 2067.21 138 Q2071.34 138 2074.99 138.608 Q2078.63 139.215 2081.71 140.431 Z" fill="#000000" fill-rule="nonzero" fill-opacity="1" /><path clip-path="url(#clip500)" d="M2096.01 139.094 L2103.46 139.094 L2103.46 184.464 L2096.01 184.464 L2096.01 139.094 M2096.01 121.432 L2103.46 121.432 L2103.46 130.871 L2096.01 130.871 L2096.01 121.432 Z" fill="#000000" fill-rule="nonzero" fill-opacity="1" /><path clip-path="url(#clip500)" d="M2115.82 139.094 L2151.22 139.094 L2151.22 145.899 L2123.19 178.509 L2151.22 178.509 L2151.22 184.464 L2114.81 184.464 L2114.81 177.658 L2142.84 145.049 L2115.82 145.049 L2115.82 139.094 Z" fill="#000000" fill-rule="nonzero" fill-opacity="1" /><path clip-path="url(#clip500)" d="M2201.41 159.916 L2201.41 163.561 L2167.14 163.561 Q2167.63 171.258 2171.76 175.309 Q2175.93 179.319 2183.35 179.319 Q2187.64 179.319 2191.65 178.266 Q2195.7 177.213 2199.67 175.106 L2199.67 182.155 Q2195.66 183.856 2191.45 184.748 Q2187.24 185.639 2182.9 185.639 Q2172.05 185.639 2165.69 179.319 Q2159.37 173 2159.37 162.225 Q2159.37 151.085 2165.36 144.563 Q2171.4 138 2181.61 138 Q2190.76 138 2196.07 143.914 Q2201.41 149.788 2201.41 159.916 M2193.96 157.728 Q2193.88 151.611 2190.52 147.965 Q2187.2 144.32 2181.69 144.32 Q2175.45 144.32 2171.68 147.844 Q2167.95 151.368 2167.39 157.769 L2193.96 157.728 Z" fill="#000000" fill-rule="nonzero" fill-opacity="1" /><path clip-path="url(#clip500)" d="M2236.25 158.822 L2311.11 158.822 L2311.11 164.655 L2236.25 164.655 L2236.25 158.822 Z" fill="#000000" fill-rule="nonzero" fill-opacity="1" /><path clip-path="url(#clip500)" d="M2375.64 146.061 Q2374.39 145.332 2372.89 145.008 Q2371.43 144.644 2369.65 144.644 Q2363.33 144.644 2359.93 148.776 Q2356.56 152.867 2356.56 160.564 L2356.56 184.464 L2349.07 184.464 L2349.07 139.094 L2356.56 139.094 L2356.56 146.142 Q2358.91 142.011 2362.68 140.026 Q2366.45 138 2371.84 138 Q2372.61 138 2373.54 138.122 Q2374.47 138.203 2375.6 138.405 L2375.64 146.061 Z" fill="#000000" fill-rule="nonzero" fill-opacity="1" /><path clip-path="url(#clip500)" d="M2399.22 144.32 Q2393.22 144.32 2389.74 149.019 Q2386.26 153.677 2386.26 161.819 Q2386.26 169.962 2389.7 174.661 Q2393.18 179.319 2399.22 179.319 Q2405.17 179.319 2408.66 174.62 Q2412.14 169.921 2412.14 161.819 Q2412.14 153.758 2408.66 149.059 Q2405.17 144.32 2399.22 144.32 M2399.22 138 Q2408.94 138 2414.49 144.32 Q2420.04 150.639 2420.04 161.819 Q2420.04 172.959 2414.49 179.319 Q2408.94 185.639 2399.22 185.639 Q2389.46 185.639 2383.91 179.319 Q2378.4 172.959 2378.4 161.819 Q2378.4 150.639 2383.91 144.32 Q2389.46 138 2399.22 138 Z" fill="#000000" fill-rule="nonzero" fill-opacity="1" /><path clip-path="url(#clip500)" d="M2465.05 140.836 L2465.05 147.803 Q2461.89 146.061 2458.69 145.211 Q2455.53 144.32 2452.29 144.32 Q2445.04 144.32 2441.03 148.938 Q2437.01 153.515 2437.01 161.819 Q2437.01 170.124 2441.03 174.742 Q2445.04 179.319 2452.29 179.319 Q2455.53 179.319 2458.69 178.469 Q2461.89 177.577 2465.05 175.836 L2465.05 182.722 Q2461.93 184.18 2458.57 184.91 Q2455.24 185.639 2451.48 185.639 Q2441.23 185.639 2435.19 179.198 Q2429.16 172.757 2429.16 161.819 Q2429.16 150.72 2435.23 144.36 Q2441.35 138 2451.96 138 Q2455.41 138 2458.69 138.729 Q2461.97 139.418 2465.05 140.836 Z" fill="#000000" fill-rule="nonzero" fill-opacity="1" /><path clip-path="url(#clip500)" d="M2477.73 121.432 L2485.22 121.432 L2485.22 158.66 L2507.46 139.094 L2516.98 139.094 L2492.92 160.321 L2517.99 184.464 L2508.27 184.464 L2485.22 162.306 L2485.22 184.464 L2477.73 184.464 L2477.73 121.432 Z" fill="#000000" fill-rule="nonzero" fill-opacity="1" /><path clip-path="url(#clip500)" d="M2561.9 159.916 L2561.9 163.561 L2527.63 163.561 Q2528.12 171.258 2532.25 175.309 Q2536.42 179.319 2543.84 179.319 Q2548.13 179.319 2552.14 178.266 Q2556.19 177.213 2560.16 175.106 L2560.16 182.155 Q2556.15 183.856 2551.94 184.748 Q2547.73 185.639 2543.39 185.639 Q2532.54 185.639 2526.18 179.319 Q2519.86 173 2519.86 162.225 Q2519.86 151.085 2525.85 144.563 Q2531.89 138 2542.1 138 Q2551.25 138 2556.56 143.914 Q2561.9 149.788 2561.9 159.916 M2554.45 157.728 Q2554.37 151.611 2551.01 147.965 Q2547.69 144.32 2542.18 144.32 Q2535.94 144.32 2532.17 147.844 Q2528.44 151.368 2527.88 157.769 L2554.45 157.728 Z" fill="#000000" fill-rule="nonzero" fill-opacity="1" /><path clip-path="url(#clip500)" d="M2581.51 126.212 L2581.51 139.094 L2596.86 139.094 L2596.86 144.887 L2581.51 144.887 L2581.51 169.516 Q2581.51 175.066 2583.01 176.646 Q2584.55 178.226 2589.21 178.226 L2596.86 178.226 L2596.86 184.464 L2589.21 184.464 Q2580.58 184.464 2577.3 181.264 Q2574.02 178.023 2574.02 169.516 L2574.02 144.887 L2568.55 144.887 L2568.55 139.094 L2574.02 139.094 L2574.02 126.212 L2581.51 126.212 Z" fill="#000000" fill-rule="nonzero" fill-opacity="1" /><polyline clip-path="url(#clip502)" style="stroke:#0000ff; stroke-linecap:round; stroke-linejoin:round; stroke-width:6; stroke-opacity:1; fill:none" points="467.148,2024.61 956.927,1742.74 1773.23,1058.26 3405.82,417.429 "/>
<circle clip-path="url(#clip502)" cx="467.148" cy="2024.61" r="14.4" fill="#0000ff" fill-rule="evenodd" fill-opacity="1" stroke="none"/>
<circle clip-path="url(#clip502)" cx="956.927" cy="1742.74" r="14.4" fill="#0000ff" fill-rule="evenodd" fill-opacity="1" stroke="none"/>
<circle clip-path="url(#clip502)" cx="1773.23" cy="1058.26" r="14.4" fill="#0000ff" fill-rule="evenodd" fill-opacity="1" stroke="none"/>
<circle clip-path="url(#clip502)" cx="3405.82" cy="417.429" r="14.4" fill="#0000ff" fill-rule="evenodd" fill-opacity="1" stroke="none"/>
<polyline clip-path="url(#clip502)" style="stroke:#008000; stroke-linecap:round; stroke-linejoin:round; stroke-width:6; stroke-opacity:1; fill:none" points="467.148,2026.94 956.927,1837.49 1773.23,1347.1 3405.82,419.096 "/>
<path clip-path="url(#clip502)" d="M467.148 2010.94 L451.148 2026.94 L467.148 2042.94 L483.148 2026.94 L467.148 2010.94 Z" fill="#008000" fill-rule="evenodd" fill-opacity="1" stroke="none"/>
<path clip-path="url(#clip502)" d="M956.927 1821.49 L940.927 1837.49 L956.927 1853.49 L972.927 1837.49 L956.927 1821.49 Z" fill="#008000" fill-rule="evenodd" fill-opacity="1" stroke="none"/>
<path clip-path="url(#clip502)" d="M1773.23 1331.1 L1757.23 1347.1 L1773.23 1363.1 L1789.23 1347.1 L1773.23 1331.1 Z" fill="#008000" fill-rule="evenodd" fill-opacity="1" stroke="none"/>
<path clip-path="url(#clip502)" d="M3405.82 403.096 L3389.82 419.096 L3405.82 435.096 L3421.82 419.096 L3405.82 403.096 Z" fill="#008000" fill-rule="evenodd" fill-opacity="1" stroke="none"/>
<polyline clip-path="url(#clip502)" style="stroke:#ff0000; stroke-linecap:round; stroke-linejoin:round; stroke-width:6; stroke-opacity:1; fill:none" points="467.148,2094.32 956.927,2010.63 1773.23,1835.87 3405.82,1472.82 "/>
<path clip-path="url(#clip502)" d="M451.148 2078.32 L451.148 2110.32 L483.148 2110.32 L483.148 2078.32 L451.148 2078.32 Z" fill="#ff0000" fill-rule="evenodd" fill-opacity="1" stroke="none"/>
<path clip-path="url(#clip502)" d="M940.927 1994.63 L940.927 2026.63 L972.927 2026.63 L972.927 1994.63 L940.927 1994.63 Z" fill="#ff0000" fill-rule="evenodd" fill-opacity="1" stroke="none"/>
<path clip-path="url(#clip502)" d="M1757.23 1819.87 L1757.23 1851.87 L1789.23 1851.87 L1789.23 1819.87 L1757.23 1819.87 Z" fill="#ff0000" fill-rule="evenodd" fill-opacity="1" stroke="none"/>
<path clip-path="url(#clip502)" d="M3389.82 1456.82 L3389.82 1488.82 L3421.82 1488.82 L3421.82 1456.82 L3389.82 1456.82 Z" fill="#ff0000" fill-rule="evenodd" fill-opacity="1" stroke="none"/>
<polyline clip-path="url(#clip502)" style="stroke:#ffa500; stroke-linecap:round; stroke-linejoin:round; stroke-width:6; stroke-opacity:1; fill:none" points="467.148,2102.46 956.927,2036.06 1773.23,1899.74 3405.82,1624.64 "/>
<path clip-path="url(#clip502)" d="M467.148 2086.46 L451.148 2118.46 L483.148 2118.46 L467.148 2086.46 Z" fill="#ffa500" fill-rule="evenodd" fill-opacity="1" stroke="none"/>
<path clip-path="url(#clip502)" d="M956.927 2020.06 L940.927 2052.06 L972.927 2052.06 L956.927 2020.06 Z" fill="#ffa500" fill-rule="evenodd" fill-opacity="1" stroke="none"/>
<path clip-path="url(#clip502)" d="M1773.23 1883.74 L1757.23 1915.74 L1789.23 1915.74 L1773.23 1883.74 Z" fill="#ffa500" fill-rule="evenodd" fill-opacity="1" stroke="none"/>
<path clip-path="url(#clip502)" d="M3405.82 1608.64 L3389.82 1640.64 L3421.82 1640.64 L3405.82 1608.64 Z" fill="#ffa500" fill-rule="evenodd" fill-opacity="1" stroke="none"/>
<polyline clip-path="url(#clip502)" style="stroke:#800080; stroke-linecap:round; stroke-linejoin:round; stroke-width:6; stroke-opacity:1; fill:none" points="467.148,2055.26 956.927,1871.6 1773.23,1347.66 3405.82,300.989 "/>
<path clip-path="url(#clip502)" d="M483.148 2039.26 L451.148 2039.26 L467.148 2071.26 L483.148 2039.26 Z" fill="#800080" fill-rule="evenodd" fill-opacity="1" stroke="none"/>
<path clip-path="url(#clip502)" d="M972.927 1855.6 L940.927 1855.6 L956.927 1887.6 L972.927 1855.6 Z" fill="#800080" fill-rule="evenodd" fill-opacity="1" stroke="none"/>
<path clip-path="url(#clip502)" d="M1789.23 1331.66 L1757.23 1331.66 L1773.23 1363.66 L1789.23 1331.66 Z" fill="#800080" fill-rule="evenodd" fill-opacity="1" stroke="none"/>
<path clip-path="url(#clip502)" d="M3421.82 284.989 L3389.82 284.989 L3405.82 316.989 L3421.82 284.989 Z" fill="#800080" fill-rule="evenodd" fill-opacity="1" stroke="none"/>
<polyline clip-path="url(#clip502)" style="stroke:#a52a2a; stroke-linecap:round; stroke-linejoin:round; stroke-width:6; stroke-opacity:1; fill:none" points="467.148,2046.75 956.927,1885.87 1773.23,1493.69 3405.82,601.687 "/>
<path clip-path="url(#clip502)" d="M467.148 2030.75 L463.388 2041.57 L451.932 2041.81 L461.068 2048.74 L457.74 2059.7 L467.148 2053.15 L476.556 2059.7 L473.228 2048.74 L482.364 2041.81 L470.908 2041.57 L467.148 2030.75 Z" fill="#a52a2a" fill-rule="evenodd" fill-opacity="1" stroke="none"/>
<path clip-path="url(#clip502)" d="M956.927 1869.87 L953.167 1880.69 L941.711 1880.93 L950.847 1887.86 L947.519 1898.82 L956.927 1892.27 L966.335 1898.82 L963.007 1887.86 L972.143 1880.93 L960.687 1880.69 L956.927 1869.87 Z" fill="#a52a2a" fill-rule="evenodd" fill-opacity="1" stroke="none"/>
<path clip-path="url(#clip502)" d="M1773.23 1477.69 L1769.47 1488.51 L1758.01 1488.75 L1767.15 1495.68 L1763.82 1506.64 L1773.23 1500.09 L1782.63 1506.64 L1779.31 1495.68 L1788.44 1488.75 L1776.99 1488.51 L1773.23 1477.69 Z" fill="#a52a2a" fill-rule="evenodd" fill-opacity="1" stroke="none"/>
<path clip-path="url(#clip502)" d="M3405.82 585.687 L3402.06 596.503 L3390.61 596.743 L3399.74 603.671 L3396.41 614.631 L3405.82 608.087 L3415.23 614.631 L3411.9 603.671 L3421.04 596.743 L3409.58 596.503 L3405.82 585.687 Z" fill="#a52a2a" fill-rule="evenodd" fill-opacity="1" stroke="none"/>
<path clip-path="url(#clip500)" d="M2751.68 2092.86 L3445 2092.86 L3445 1729.98 L2751.68 1729.98  Z" fill="#ffffff" fill-rule="evenodd" fill-opacity="1"/>
<polyline clip-path="url(#clip500)" style="stroke:#000000; stroke-linecap:round; stroke-linejoin:round; stroke-width:4; stroke-opacity:1; fill:none" points="2751.68,2092.86 3445,2092.86 3445,1729.98 2751.68,1729.98 2751.68,2092.86 "/>
<polyline clip-path="url(#clip500)" style="stroke:#0000ff; stroke-linecap:round; stroke-linejoin:round; stroke-width:6; stroke-opacity:1; fill:none" points="2787.6,1781.82 3003.1,1781.82 "/>
<circle clip-path="url(#clip500)" cx="2895.35" cy="1781.82" r="23.04" fill="#0000ff" fill-rule="evenodd" fill-opacity="1" stroke="none"/>
<path clip-path="url(#clip500)" d="M3049.64 1763.12 Q3046.54 1768.45 3045.04 1773.66 Q3043.53 1778.86 3043.53 1784.21 Q3043.53 1789.56 3045.04 1794.81 Q3046.57 1800.04 3049.64 1805.35 L3045.94 1805.35 Q3042.47 1799.91 3040.73 1794.65 Q3039.02 1789.4 3039.02 1784.21 Q3039.02 1779.05 3040.73 1773.82 Q3042.45 1768.59 3045.94 1763.12 L3049.64 1763.12 Z" fill="#000000" fill-rule="nonzero" fill-opacity="1" /><path clip-path="url(#clip500)" d="M3069.69 1786.06 Q3064.53 1786.06 3062.54 1787.24 Q3060.55 1788.42 3060.55 1791.27 Q3060.55 1793.54 3062.03 1794.88 Q3063.53 1796.2 3066.1 1796.2 Q3069.64 1796.2 3071.77 1793.7 Q3073.93 1791.18 3073.93 1787.01 L3073.93 1786.06 L3069.69 1786.06 M3078.19 1784.3 L3078.19 1799.1 L3073.93 1799.1 L3073.93 1795.16 Q3072.47 1797.52 3070.29 1798.66 Q3068.12 1799.77 3064.97 1799.77 Q3060.99 1799.77 3058.63 1797.54 Q3056.29 1795.3 3056.29 1791.55 Q3056.29 1787.17 3059.2 1784.95 Q3062.14 1782.73 3067.95 1782.73 L3073.93 1782.73 L3073.93 1782.31 Q3073.93 1779.37 3071.98 1777.78 Q3070.06 1776.16 3066.57 1776.16 Q3064.34 1776.16 3062.24 1776.69 Q3060.13 1777.22 3058.19 1778.29 L3058.19 1774.35 Q3060.52 1773.45 3062.72 1773.01 Q3064.92 1772.54 3067.01 1772.54 Q3072.63 1772.54 3075.41 1775.46 Q3078.19 1778.38 3078.19 1784.3 Z" fill="#000000" fill-rule="nonzero" fill-opacity="1" /><path clip-path="url(#clip500)" d="M3104.02 1777.1 L3104.02 1763.08 L3108.28 1763.08 L3108.28 1799.1 L3104.02 1799.1 L3104.02 1795.21 Q3102.68 1797.52 3100.62 1798.66 Q3098.58 1799.77 3095.71 1799.77 Q3091.01 1799.77 3088.05 1796.02 Q3085.11 1792.27 3085.11 1786.16 Q3085.11 1780.04 3088.05 1776.29 Q3091.01 1772.54 3095.71 1772.54 Q3098.58 1772.54 3100.62 1773.68 Q3102.68 1774.79 3104.02 1777.1 M3089.51 1786.16 Q3089.51 1790.85 3091.43 1793.54 Q3093.37 1796.2 3096.75 1796.2 Q3100.13 1796.2 3102.08 1793.54 Q3104.02 1790.85 3104.02 1786.16 Q3104.02 1781.46 3102.08 1778.79 Q3100.13 1776.11 3096.75 1776.11 Q3093.37 1776.11 3091.43 1778.79 Q3089.51 1781.46 3089.51 1786.16 Z" fill="#000000" fill-rule="nonzero" fill-opacity="1" /><path clip-path="url(#clip500)" d="M3138.6 1783.45 L3138.6 1799.1 L3134.34 1799.1 L3134.34 1783.59 Q3134.34 1779.91 3132.91 1778.08 Q3131.47 1776.25 3128.6 1776.25 Q3125.15 1776.25 3123.16 1778.45 Q3121.17 1780.65 3121.17 1784.44 L3121.17 1799.1 L3116.89 1799.1 L3116.89 1773.17 L3121.17 1773.17 L3121.17 1777.2 Q3122.7 1774.86 3124.76 1773.7 Q3126.84 1772.54 3129.55 1772.54 Q3134.02 1772.54 3136.31 1775.32 Q3138.6 1778.08 3138.6 1783.45 Z" fill="#000000" fill-rule="nonzero" fill-opacity="1" /><path clip-path="url(#clip500)" d="M3147.1 1763.08 L3151.36 1763.08 L3151.36 1799.1 L3147.1 1799.1 L3147.1 1763.08 Z" fill="#000000" fill-rule="nonzero" fill-opacity="1" /><path clip-path="url(#clip500)" d="M3164.39 1795.21 L3164.39 1808.96 L3160.11 1808.96 L3160.11 1773.17 L3164.39 1773.17 L3164.39 1777.1 Q3165.73 1774.79 3167.77 1773.68 Q3169.83 1772.54 3172.68 1772.54 Q3177.4 1772.54 3180.34 1776.29 Q3183.3 1780.04 3183.3 1786.16 Q3183.3 1792.27 3180.34 1796.02 Q3177.4 1799.77 3172.68 1799.77 Q3169.83 1799.77 3167.77 1798.66 Q3165.73 1797.52 3164.39 1795.21 M3178.88 1786.16 Q3178.88 1781.46 3176.94 1778.79 Q3175.01 1776.11 3171.63 1776.11 Q3168.26 1776.11 3166.31 1778.79 Q3164.39 1781.46 3164.39 1786.16 Q3164.39 1790.85 3166.31 1793.54 Q3168.26 1796.2 3171.63 1796.2 Q3175.01 1796.2 3176.94 1793.54 Q3178.88 1790.85 3178.88 1786.16 Z" fill="#000000" fill-rule="nonzero" fill-opacity="1" /><path clip-path="url(#clip500)" d="M3191.45 1793.22 L3196.33 1793.22 L3196.33 1797.2 L3192.54 1804.6 L3189.55 1804.6 L3191.45 1797.2 L3191.45 1793.22 Z" fill="#000000" fill-rule="nonzero" fill-opacity="1" /><path clip-path="url(#clip500)" d="M3220.5 1773.17 L3224.76 1773.17 L3224.76 1799.1 L3220.5 1799.1 L3220.5 1773.17 M3220.5 1763.08 L3224.76 1763.08 L3224.76 1768.47 L3220.5 1768.47 L3220.5 1763.08 Z" fill="#000000" fill-rule="nonzero" fill-opacity="1" /><path clip-path="url(#clip500)" d="M3237.79 1795.21 L3237.79 1808.96 L3233.51 1808.96 L3233.51 1773.17 L3237.79 1773.17 L3237.79 1777.1 Q3239.13 1774.79 3241.17 1773.68 Q3243.23 1772.54 3246.08 1772.54 Q3250.8 1772.54 3253.74 1776.29 Q3256.7 1780.04 3256.7 1786.16 Q3256.7 1792.27 3253.74 1796.02 Q3250.8 1799.77 3246.08 1799.77 Q3243.23 1799.77 3241.17 1798.66 Q3239.13 1797.52 3237.79 1795.21 M3252.28 1786.16 Q3252.28 1781.46 3250.34 1778.79 Q3248.42 1776.11 3245.04 1776.11 Q3241.66 1776.11 3239.71 1778.79 Q3237.79 1781.46 3237.79 1786.16 Q3237.79 1790.85 3239.71 1793.54 Q3241.66 1796.2 3245.04 1796.2 Q3248.42 1796.2 3250.34 1793.54 Q3252.28 1790.85 3252.28 1786.16 Z" fill="#000000" fill-rule="nonzero" fill-opacity="1" /><path clip-path="url(#clip500)" d="M3273.81 1776.16 Q3270.38 1776.16 3268.39 1778.84 Q3266.4 1781.5 3266.4 1786.16 Q3266.4 1790.81 3268.37 1793.49 Q3270.36 1796.16 3273.81 1796.16 Q3277.21 1796.16 3279.2 1793.47 Q3281.19 1790.79 3281.19 1786.16 Q3281.19 1781.55 3279.2 1778.86 Q3277.21 1776.16 3273.81 1776.16 M3273.81 1772.54 Q3279.37 1772.54 3282.54 1776.16 Q3285.71 1779.77 3285.71 1786.16 Q3285.71 1792.52 3282.54 1796.16 Q3279.37 1799.77 3273.81 1799.77 Q3268.23 1799.77 3265.06 1796.16 Q3261.91 1792.52 3261.91 1786.16 Q3261.91 1779.77 3265.06 1776.16 Q3268.23 1772.54 3273.81 1772.54 Z" fill="#000000" fill-rule="nonzero" fill-opacity="1" /><path clip-path="url(#clip500)" d="M3296.89 1795.21 L3296.89 1808.96 L3292.61 1808.96 L3292.61 1773.17 L3296.89 1773.17 L3296.89 1777.1 Q3298.23 1774.79 3300.27 1773.68 Q3302.33 1772.54 3305.18 1772.54 Q3309.9 1772.54 3312.84 1776.29 Q3315.8 1780.04 3315.8 1786.16 Q3315.8 1792.27 3312.84 1796.02 Q3309.9 1799.77 3305.18 1799.77 Q3302.33 1799.77 3300.27 1798.66 Q3298.23 1797.52 3296.89 1795.21 M3311.38 1786.16 Q3311.38 1781.46 3309.44 1778.79 Q3307.51 1776.11 3304.13 1776.11 Q3300.75 1776.11 3298.81 1778.79 Q3296.89 1781.46 3296.89 1786.16 Q3296.89 1790.85 3298.81 1793.54 Q3300.75 1796.2 3304.13 1796.2 Q3307.51 1796.2 3309.44 1793.54 Q3311.38 1790.85 3311.38 1786.16 Z" fill="#000000" fill-rule="nonzero" fill-opacity="1" /><path clip-path="url(#clip500)" d="M3327.07 1765.81 L3327.07 1773.17 L3335.85 1773.17 L3335.85 1776.48 L3327.07 1776.48 L3327.07 1790.55 Q3327.07 1793.73 3327.93 1794.63 Q3328.81 1795.53 3331.47 1795.53 L3335.85 1795.53 L3335.85 1799.1 L3331.47 1799.1 Q3326.54 1799.1 3324.67 1797.27 Q3322.79 1795.42 3322.79 1790.55 L3322.79 1776.48 L3319.67 1776.48 L3319.67 1773.17 L3322.79 1773.17 L3322.79 1765.81 L3327.07 1765.81 Z" fill="#000000" fill-rule="nonzero" fill-opacity="1" /><path clip-path="url(#clip500)" d="M3340.78 1763.12 L3344.48 1763.12 Q3347.95 1768.59 3349.67 1773.82 Q3351.4 1779.05 3351.4 1784.21 Q3351.4 1789.4 3349.67 1794.65 Q3347.95 1799.91 3344.48 1805.35 L3340.78 1805.35 Q3343.86 1800.04 3345.36 1794.81 Q3346.89 1789.56 3346.89 1784.21 Q3346.89 1778.86 3345.36 1773.66 Q3343.86 1768.45 3340.78 1763.12 Z" fill="#000000" fill-rule="nonzero" fill-opacity="1" /><polyline clip-path="url(#clip500)" style="stroke:#008000; stroke-linecap:round; stroke-linejoin:round; stroke-width:6; stroke-opacity:1; fill:none" points="2787.6,1833.66 3003.1,1833.66 "/>
<path clip-path="url(#clip500)" d="M2895.35 1808.06 L2869.75 1833.66 L2895.35 1859.26 L2920.95 1833.66 L2895.35 1808.06 Z" fill="#008000" fill-rule="evenodd" fill-opacity="1" stroke="none"/>
<path clip-path="url(#clip500)" d="M3049.64 1814.96 Q3046.54 1820.29 3045.04 1825.5 Q3043.53 1830.7 3043.53 1836.05 Q3043.53 1841.4 3045.04 1846.65 Q3046.57 1851.88 3049.64 1857.19 L3045.94 1857.19 Q3042.47 1851.75 3040.73 1846.49 Q3039.02 1841.24 3039.02 1836.05 Q3039.02 1830.89 3040.73 1825.66 Q3042.45 1820.43 3045.94 1814.96 L3049.64 1814.96 Z" fill="#000000" fill-rule="nonzero" fill-opacity="1" /><path clip-path="url(#clip500)" d="M3069.69 1837.9 Q3064.53 1837.9 3062.54 1839.08 Q3060.55 1840.26 3060.55 1843.11 Q3060.55 1845.38 3062.03 1846.72 Q3063.53 1848.04 3066.1 1848.04 Q3069.64 1848.04 3071.77 1845.54 Q3073.93 1843.02 3073.93 1838.85 L3073.93 1837.9 L3069.69 1837.9 M3078.19 1836.14 L3078.19 1850.94 L3073.93 1850.94 L3073.93 1847 Q3072.47 1849.36 3070.29 1850.5 Q3068.12 1851.61 3064.97 1851.61 Q3060.99 1851.61 3058.63 1849.38 Q3056.29 1847.14 3056.29 1843.39 Q3056.29 1839.01 3059.2 1836.79 Q3062.14 1834.57 3067.95 1834.57 L3073.93 1834.57 L3073.93 1834.15 Q3073.93 1831.21 3071.98 1829.62 Q3070.06 1828 3066.57 1828 Q3064.34 1828 3062.24 1828.53 Q3060.13 1829.06 3058.19 1830.13 L3058.19 1826.19 Q3060.52 1825.29 3062.72 1824.85 Q3064.92 1824.38 3067.01 1824.38 Q3072.63 1824.38 3075.41 1827.3 Q3078.19 1830.22 3078.19 1836.14 Z" fill="#000000" fill-rule="nonzero" fill-opacity="1" /><path clip-path="url(#clip500)" d="M3104.02 1828.94 L3104.02 1814.92 L3108.28 1814.92 L3108.28 1850.94 L3104.02 1850.94 L3104.02 1847.05 Q3102.68 1849.36 3100.62 1850.5 Q3098.58 1851.61 3095.71 1851.61 Q3091.01 1851.61 3088.05 1847.86 Q3085.11 1844.11 3085.11 1838 Q3085.11 1831.88 3088.05 1828.13 Q3091.01 1824.38 3095.71 1824.38 Q3098.58 1824.38 3100.62 1825.52 Q3102.68 1826.63 3104.02 1828.94 M3089.51 1838 Q3089.51 1842.69 3091.43 1845.38 Q3093.37 1848.04 3096.75 1848.04 Q3100.13 1848.04 3102.08 1845.38 Q3104.02 1842.69 3104.02 1838 Q3104.02 1833.3 3102.08 1830.63 Q3100.13 1827.95 3096.75 1827.95 Q3093.37 1827.95 3091.43 1830.63 Q3089.51 1833.3 3089.51 1838 Z" fill="#000000" fill-rule="nonzero" fill-opacity="1" /><path clip-path="url(#clip500)" d="M3138.6 1835.29 L3138.6 1850.94 L3134.34 1850.94 L3134.34 1835.43 Q3134.34 1831.75 3132.91 1829.92 Q3131.47 1828.09 3128.6 1828.09 Q3125.15 1828.09 3123.16 1830.29 Q3121.17 1832.49 3121.17 1836.28 L3121.17 1850.94 L3116.89 1850.94 L3116.89 1825.01 L3121.17 1825.01 L3121.17 1829.04 Q3122.7 1826.7 3124.76 1825.54 Q3126.84 1824.38 3129.55 1824.38 Q3134.02 1824.38 3136.31 1827.16 Q3138.6 1829.92 3138.6 1835.29 Z" fill="#000000" fill-rule="nonzero" fill-opacity="1" /><path clip-path="url(#clip500)" d="M3147.1 1814.92 L3151.36 1814.92 L3151.36 1850.94 L3147.1 1850.94 L3147.1 1814.92 Z" fill="#000000" fill-rule="nonzero" fill-opacity="1" /><path clip-path="url(#clip500)" d="M3164.39 1847.05 L3164.39 1860.8 L3160.11 1860.8 L3160.11 1825.01 L3164.39 1825.01 L3164.39 1828.94 Q3165.73 1826.63 3167.77 1825.52 Q3169.83 1824.38 3172.68 1824.38 Q3177.4 1824.38 3180.34 1828.13 Q3183.3 1831.88 3183.3 1838 Q3183.3 1844.11 3180.34 1847.86 Q3177.4 1851.61 3172.68 1851.61 Q3169.83 1851.61 3167.77 1850.5 Q3165.73 1849.36 3164.39 1847.05 M3178.88 1838 Q3178.88 1833.3 3176.94 1830.63 Q3175.01 1827.95 3171.63 1827.95 Q3168.26 1827.95 3166.31 1830.63 Q3164.39 1833.3 3164.39 1838 Q3164.39 1842.69 3166.31 1845.38 Q3168.26 1848.04 3171.63 1848.04 Q3175.01 1848.04 3176.94 1845.38 Q3178.88 1842.69 3178.88 1838 Z" fill="#000000" fill-rule="nonzero" fill-opacity="1" /><path clip-path="url(#clip500)" d="M3191.45 1845.06 L3196.33 1845.06 L3196.33 1849.04 L3192.54 1856.44 L3189.55 1856.44 L3191.45 1849.04 L3191.45 1845.06 Z" fill="#000000" fill-rule="nonzero" fill-opacity="1" /><path clip-path="url(#clip500)" d="M3240.69 1829.99 Q3242.28 1827.12 3244.5 1825.75 Q3246.73 1824.38 3249.74 1824.38 Q3253.79 1824.38 3255.99 1827.23 Q3258.19 1830.06 3258.19 1835.29 L3258.19 1850.94 L3253.9 1850.94 L3253.9 1835.43 Q3253.9 1831.7 3252.58 1829.89 Q3251.26 1828.09 3248.56 1828.09 Q3245.25 1828.09 3243.32 1830.29 Q3241.4 1832.49 3241.4 1836.28 L3241.4 1850.94 L3237.12 1850.94 L3237.12 1835.43 Q3237.12 1831.68 3235.8 1829.89 Q3234.48 1828.09 3231.73 1828.09 Q3228.46 1828.09 3226.54 1830.31 Q3224.62 1832.51 3224.62 1836.28 L3224.62 1850.94 L3220.34 1850.94 L3220.34 1825.01 L3224.62 1825.01 L3224.62 1829.04 Q3226.08 1826.65 3228.12 1825.52 Q3230.15 1824.38 3232.95 1824.38 Q3235.78 1824.38 3237.75 1825.82 Q3239.74 1827.26 3240.69 1829.99 Z" fill="#000000" fill-rule="nonzero" fill-opacity="1" /><path clip-path="url(#clip500)" d="M3278.46 1837.9 Q3273.3 1837.9 3271.31 1839.08 Q3269.32 1840.26 3269.32 1843.11 Q3269.32 1845.38 3270.8 1846.72 Q3272.31 1848.04 3274.88 1848.04 Q3278.42 1848.04 3280.55 1845.54 Q3282.7 1843.02 3282.7 1838.85 L3282.7 1837.9 L3278.46 1837.9 M3286.96 1836.14 L3286.96 1850.94 L3282.7 1850.94 L3282.7 1847 Q3281.24 1849.36 3279.06 1850.5 Q3276.89 1851.61 3273.74 1851.61 Q3269.76 1851.61 3267.4 1849.38 Q3265.06 1847.14 3265.06 1843.39 Q3265.06 1839.01 3267.98 1836.79 Q3270.92 1834.57 3276.73 1834.57 L3282.7 1834.57 L3282.7 1834.15 Q3282.7 1831.21 3280.75 1829.62 Q3278.83 1828 3275.34 1828 Q3273.12 1828 3271.01 1828.53 Q3268.9 1829.06 3266.96 1830.13 L3266.96 1826.19 Q3269.3 1825.29 3271.5 1824.85 Q3273.69 1824.38 3275.78 1824.38 Q3281.4 1824.38 3284.18 1827.3 Q3286.96 1830.22 3286.96 1836.14 Z" fill="#000000" fill-rule="nonzero" fill-opacity="1" /><path clip-path="url(#clip500)" d="M3312.79 1828.94 L3312.79 1814.92 L3317.05 1814.92 L3317.05 1850.94 L3312.79 1850.94 L3312.79 1847.05 Q3311.45 1849.36 3309.39 1850.5 Q3307.35 1851.61 3304.48 1851.61 Q3299.78 1851.61 3296.82 1847.86 Q3293.88 1844.11 3293.88 1838 Q3293.88 1831.88 3296.82 1828.13 Q3299.78 1824.38 3304.48 1824.38 Q3307.35 1824.38 3309.39 1825.52 Q3311.45 1826.63 3312.79 1828.94 M3298.28 1838 Q3298.28 1842.69 3300.2 1845.38 Q3302.14 1848.04 3305.52 1848.04 Q3308.9 1848.04 3310.85 1845.38 Q3312.79 1842.69 3312.79 1838 Q3312.79 1833.3 3310.85 1830.63 Q3308.9 1827.95 3305.52 1827.95 Q3302.14 1827.95 3300.2 1830.63 Q3298.28 1833.3 3298.28 1838 Z" fill="#000000" fill-rule="nonzero" fill-opacity="1" /><path clip-path="url(#clip500)" d="M3347.37 1835.29 L3347.37 1850.94 L3343.12 1850.94 L3343.12 1835.43 Q3343.12 1831.75 3341.68 1829.92 Q3340.25 1828.09 3337.37 1828.09 Q3333.93 1828.09 3331.94 1830.29 Q3329.94 1832.49 3329.94 1836.28 L3329.94 1850.94 L3325.66 1850.94 L3325.66 1825.01 L3329.94 1825.01 L3329.94 1829.04 Q3331.47 1826.7 3333.53 1825.54 Q3335.62 1824.38 3338.32 1824.38 Q3342.79 1824.38 3345.08 1827.16 Q3347.37 1829.92 3347.37 1835.29 Z" fill="#000000" fill-rule="nonzero" fill-opacity="1" /><path clip-path="url(#clip500)" d="M3355.87 1814.92 L3360.13 1814.92 L3360.13 1850.94 L3355.87 1850.94 L3355.87 1814.92 Z" fill="#000000" fill-rule="nonzero" fill-opacity="1" /><path clip-path="url(#clip500)" d="M3373.16 1847.05 L3373.16 1860.8 L3368.88 1860.8 L3368.88 1825.01 L3373.16 1825.01 L3373.16 1828.94 Q3374.5 1826.63 3376.54 1825.52 Q3378.6 1824.38 3381.45 1824.38 Q3386.17 1824.38 3389.11 1828.13 Q3392.07 1831.88 3392.07 1838 Q3392.07 1844.11 3389.11 1847.86 Q3386.17 1851.61 3381.45 1851.61 Q3378.6 1851.61 3376.54 1850.5 Q3374.5 1849.36 3373.16 1847.05 M3387.65 1838 Q3387.65 1833.3 3385.71 1830.63 Q3383.79 1827.95 3380.41 1827.95 Q3377.03 1827.95 3375.08 1830.63 Q3373.16 1833.3 3373.16 1838 Q3373.16 1842.69 3375.08 1845.38 Q3377.03 1848.04 3380.41 1848.04 Q3383.79 1848.04 3385.71 1845.38 Q3387.65 1842.69 3387.65 1838 Z" fill="#000000" fill-rule="nonzero" fill-opacity="1" /><path clip-path="url(#clip500)" d="M3398.46 1814.96 L3402.17 1814.96 Q3405.64 1820.43 3407.35 1825.66 Q3409.09 1830.89 3409.09 1836.05 Q3409.09 1841.24 3407.35 1846.49 Q3405.64 1851.75 3402.17 1857.19 L3398.46 1857.19 Q3401.54 1851.88 3403.05 1846.65 Q3404.57 1841.4 3404.57 1836.05 Q3404.57 1830.7 3403.05 1825.5 Q3401.54 1820.29 3398.46 1814.96 Z" fill="#000000" fill-rule="nonzero" fill-opacity="1" /><polyline clip-path="url(#clip500)" style="stroke:#ff0000; stroke-linecap:round; stroke-linejoin:round; stroke-width:6; stroke-opacity:1; fill:none" points="2787.6,1885.5 3003.1,1885.5 "/>
<path clip-path="url(#clip500)" d="M2869.75 1859.9 L2869.75 1911.1 L2920.95 1911.1 L2920.95 1859.9 L2869.75 1859.9 Z" fill="#ff0000" fill-rule="evenodd" fill-opacity="1" stroke="none"/>
<path clip-path="url(#clip500)" d="M3049.64 1866.8 Q3046.54 1872.13 3045.04 1877.34 Q3043.53 1882.54 3043.53 1887.89 Q3043.53 1893.24 3045.04 1898.49 Q3046.57 1903.72 3049.64 1909.03 L3045.94 1909.03 Q3042.47 1903.59 3040.73 1898.33 Q3039.02 1893.08 3039.02 1887.89 Q3039.02 1882.73 3040.73 1877.5 Q3042.45 1872.27 3045.94 1866.8 L3049.64 1866.8 Z" fill="#000000" fill-rule="nonzero" fill-opacity="1" /><path clip-path="url(#clip500)" d="M3080.08 1888.75 L3080.08 1890.83 L3060.5 1890.83 Q3060.78 1895.23 3063.14 1897.54 Q3065.52 1899.84 3069.76 1899.84 Q3072.21 1899.84 3074.51 1899.23 Q3076.82 1898.63 3079.09 1897.43 L3079.09 1901.46 Q3076.8 1902.43 3074.39 1902.94 Q3071.98 1903.45 3069.51 1903.45 Q3063.3 1903.45 3059.67 1899.84 Q3056.06 1896.22 3056.06 1890.07 Q3056.06 1883.7 3059.48 1879.97 Q3062.93 1876.22 3068.77 1876.22 Q3074 1876.22 3077.03 1879.6 Q3080.08 1882.96 3080.08 1888.75 M3075.83 1887.5 Q3075.78 1884 3073.86 1881.92 Q3071.96 1879.84 3068.81 1879.84 Q3065.25 1879.84 3063.09 1881.85 Q3060.96 1883.86 3060.64 1887.52 L3075.83 1887.5 Z" fill="#000000" fill-rule="nonzero" fill-opacity="1" /><path clip-path="url(#clip500)" d="M3107.79 1876.85 L3098.42 1889.47 L3108.28 1902.78 L3103.26 1902.78 L3095.71 1892.59 L3088.16 1902.78 L3083.14 1902.78 L3093.21 1889.21 L3084 1876.85 L3089.02 1876.85 L3095.89 1886.09 L3102.77 1876.85 L3107.79 1876.85 Z" fill="#000000" fill-rule="nonzero" fill-opacity="1" /><path clip-path="url(#clip500)" d="M3126.08 1889.74 Q3120.92 1889.74 3118.93 1890.92 Q3116.94 1892.1 3116.94 1894.95 Q3116.94 1897.22 3118.42 1898.56 Q3119.92 1899.88 3122.49 1899.88 Q3126.03 1899.88 3128.16 1897.38 Q3130.32 1894.86 3130.32 1890.69 L3130.32 1889.74 L3126.08 1889.74 M3134.57 1887.98 L3134.57 1902.78 L3130.32 1902.78 L3130.32 1898.84 Q3128.86 1901.2 3126.68 1902.34 Q3124.51 1903.45 3121.36 1903.45 Q3117.38 1903.45 3115.01 1901.22 Q3112.68 1898.98 3112.68 1895.23 Q3112.68 1890.85 3115.59 1888.63 Q3118.53 1886.41 3124.34 1886.41 L3130.32 1886.41 L3130.32 1885.99 Q3130.32 1883.05 3128.37 1881.46 Q3126.45 1879.84 3122.95 1879.84 Q3120.73 1879.84 3118.63 1880.37 Q3116.52 1880.9 3114.58 1881.97 L3114.58 1878.03 Q3116.91 1877.13 3119.11 1876.69 Q3121.31 1876.22 3123.39 1876.22 Q3129.02 1876.22 3131.8 1879.14 Q3134.57 1882.06 3134.57 1887.98 Z" fill="#000000" fill-rule="nonzero" fill-opacity="1" /><path clip-path="url(#clip500)" d="M3144.44 1896.9 L3149.32 1896.9 L3149.32 1900.88 L3145.52 1908.28 L3142.54 1908.28 L3144.44 1900.88 L3144.44 1896.9 Z" fill="#000000" fill-rule="nonzero" fill-opacity="1" /><path clip-path="url(#clip500)" d="M3173.49 1876.85 L3177.75 1876.85 L3177.75 1902.78 L3173.49 1902.78 L3173.49 1876.85 M3173.49 1866.76 L3177.75 1866.76 L3177.75 1872.15 L3173.49 1872.15 L3173.49 1866.76 Z" fill="#000000" fill-rule="nonzero" fill-opacity="1" /><path clip-path="url(#clip500)" d="M3190.78 1898.89 L3190.78 1912.64 L3186.5 1912.64 L3186.5 1876.85 L3190.78 1876.85 L3190.78 1880.78 Q3192.12 1878.47 3194.16 1877.36 Q3196.22 1876.22 3199.07 1876.22 Q3203.79 1876.22 3206.73 1879.97 Q3209.69 1883.72 3209.69 1889.84 Q3209.69 1895.95 3206.73 1899.7 Q3203.79 1903.45 3199.07 1903.45 Q3196.22 1903.45 3194.16 1902.34 Q3192.12 1901.2 3190.78 1898.89 M3205.27 1889.84 Q3205.27 1885.14 3203.32 1882.47 Q3201.4 1879.79 3198.02 1879.79 Q3194.64 1879.79 3192.7 1882.47 Q3190.78 1885.14 3190.78 1889.84 Q3190.78 1894.53 3192.7 1897.22 Q3194.64 1899.88 3198.02 1899.88 Q3201.4 1899.88 3203.32 1897.22 Q3205.27 1894.53 3205.27 1889.84 Z" fill="#000000" fill-rule="nonzero" fill-opacity="1" /><path clip-path="url(#clip500)" d="M3226.8 1879.84 Q3223.37 1879.84 3221.38 1882.52 Q3219.39 1885.18 3219.39 1889.84 Q3219.39 1894.49 3221.36 1897.17 Q3223.35 1899.84 3226.8 1899.84 Q3230.2 1899.84 3232.19 1897.15 Q3234.18 1894.47 3234.18 1889.84 Q3234.18 1885.23 3232.19 1882.54 Q3230.2 1879.84 3226.8 1879.84 M3226.8 1876.22 Q3232.35 1876.22 3235.52 1879.84 Q3238.69 1883.45 3238.69 1889.84 Q3238.69 1896.2 3235.52 1899.84 Q3232.35 1903.45 3226.8 1903.45 Q3221.22 1903.45 3218.05 1899.84 Q3214.9 1896.2 3214.9 1889.84 Q3214.9 1883.45 3218.05 1879.84 Q3221.22 1876.22 3226.8 1876.22 Z" fill="#000000" fill-rule="nonzero" fill-opacity="1" /><path clip-path="url(#clip500)" d="M3249.88 1898.89 L3249.88 1912.64 L3245.59 1912.64 L3245.59 1876.85 L3249.88 1876.85 L3249.88 1880.78 Q3251.22 1878.47 3253.25 1877.36 Q3255.32 1876.22 3258.16 1876.22 Q3262.88 1876.22 3265.82 1879.97 Q3268.79 1883.72 3268.79 1889.84 Q3268.79 1895.95 3265.82 1899.7 Q3262.88 1903.45 3258.16 1903.45 Q3255.32 1903.45 3253.25 1902.34 Q3251.22 1901.2 3249.88 1898.89 M3264.37 1889.84 Q3264.37 1885.14 3262.42 1882.47 Q3260.5 1879.79 3257.12 1879.79 Q3253.74 1879.79 3251.8 1882.47 Q3249.88 1885.14 3249.88 1889.84 Q3249.88 1894.53 3251.8 1897.22 Q3253.74 1899.88 3257.12 1899.88 Q3260.5 1899.88 3262.42 1897.22 Q3264.37 1894.53 3264.37 1889.84 Z" fill="#000000" fill-rule="nonzero" fill-opacity="1" /><path clip-path="url(#clip500)" d="M3280.06 1869.49 L3280.06 1876.85 L3288.83 1876.85 L3288.83 1880.16 L3280.06 1880.16 L3280.06 1894.23 Q3280.06 1897.41 3280.92 1898.31 Q3281.8 1899.21 3284.46 1899.21 L3288.83 1899.21 L3288.83 1902.78 L3284.46 1902.78 Q3279.53 1902.78 3277.65 1900.95 Q3275.78 1899.1 3275.78 1894.23 L3275.78 1880.16 L3272.65 1880.16 L3272.65 1876.85 L3275.78 1876.85 L3275.78 1869.49 L3280.06 1869.49 Z" fill="#000000" fill-rule="nonzero" fill-opacity="1" /><path clip-path="url(#clip500)" d="M3293.76 1866.8 L3297.47 1866.8 Q3300.94 1872.27 3302.65 1877.5 Q3304.39 1882.73 3304.39 1887.89 Q3304.39 1893.08 3302.65 1898.33 Q3300.94 1903.59 3297.47 1909.03 L3293.76 1909.03 Q3296.84 1903.72 3298.35 1898.49 Q3299.88 1893.24 3299.88 1887.89 Q3299.88 1882.54 3298.35 1877.34 Q3296.84 1872.13 3293.76 1866.8 Z" fill="#000000" fill-rule="nonzero" fill-opacity="1" /><polyline clip-path="url(#clip500)" style="stroke:#ffa500; stroke-linecap:round; stroke-linejoin:round; stroke-width:6; stroke-opacity:1; fill:none" points="2787.6,1937.34 3003.1,1937.34 "/>
<path clip-path="url(#clip500)" d="M2895.35 1911.74 L2869.75 1962.94 L2920.95 1962.94 L2895.35 1911.74 Z" fill="#ffa500" fill-rule="evenodd" fill-opacity="1" stroke="none"/>
<path clip-path="url(#clip500)" d="M3049.64 1918.64 Q3046.54 1923.97 3045.04 1929.18 Q3043.53 1934.38 3043.53 1939.73 Q3043.53 1945.08 3045.04 1950.33 Q3046.57 1955.56 3049.64 1960.87 L3045.94 1960.87 Q3042.47 1955.43 3040.73 1950.17 Q3039.02 1944.92 3039.02 1939.73 Q3039.02 1934.57 3040.73 1929.34 Q3042.45 1924.11 3045.94 1918.64 L3049.64 1918.64 Z" fill="#000000" fill-rule="nonzero" fill-opacity="1" /><path clip-path="url(#clip500)" d="M3080.08 1940.59 L3080.08 1942.67 L3060.5 1942.67 Q3060.78 1947.07 3063.14 1949.38 Q3065.52 1951.68 3069.76 1951.68 Q3072.21 1951.68 3074.51 1951.07 Q3076.82 1950.47 3079.09 1949.27 L3079.09 1953.3 Q3076.8 1954.27 3074.39 1954.78 Q3071.98 1955.29 3069.51 1955.29 Q3063.3 1955.29 3059.67 1951.68 Q3056.06 1948.06 3056.06 1941.91 Q3056.06 1935.54 3059.48 1931.81 Q3062.93 1928.06 3068.77 1928.06 Q3074 1928.06 3077.03 1931.44 Q3080.08 1934.8 3080.08 1940.59 M3075.83 1939.34 Q3075.78 1935.84 3073.86 1933.76 Q3071.96 1931.68 3068.81 1931.68 Q3065.25 1931.68 3063.09 1933.69 Q3060.96 1935.7 3060.64 1939.36 L3075.83 1939.34 Z" fill="#000000" fill-rule="nonzero" fill-opacity="1" /><path clip-path="url(#clip500)" d="M3107.79 1928.69 L3098.42 1941.31 L3108.28 1954.62 L3103.26 1954.62 L3095.71 1944.43 L3088.16 1954.62 L3083.14 1954.62 L3093.21 1941.05 L3084 1928.69 L3089.02 1928.69 L3095.89 1937.93 L3102.77 1928.69 L3107.79 1928.69 Z" fill="#000000" fill-rule="nonzero" fill-opacity="1" /><path clip-path="url(#clip500)" d="M3126.08 1941.58 Q3120.92 1941.58 3118.93 1942.76 Q3116.94 1943.94 3116.94 1946.79 Q3116.94 1949.06 3118.42 1950.4 Q3119.92 1951.72 3122.49 1951.72 Q3126.03 1951.72 3128.16 1949.22 Q3130.32 1946.7 3130.32 1942.53 L3130.32 1941.58 L3126.08 1941.58 M3134.57 1939.82 L3134.57 1954.62 L3130.32 1954.62 L3130.32 1950.68 Q3128.86 1953.04 3126.68 1954.18 Q3124.51 1955.29 3121.36 1955.29 Q3117.38 1955.29 3115.01 1953.06 Q3112.68 1950.82 3112.68 1947.07 Q3112.68 1942.69 3115.59 1940.47 Q3118.53 1938.25 3124.34 1938.25 L3130.32 1938.25 L3130.32 1937.83 Q3130.32 1934.89 3128.37 1933.3 Q3126.45 1931.68 3122.95 1931.68 Q3120.73 1931.68 3118.63 1932.21 Q3116.52 1932.74 3114.58 1933.81 L3114.58 1929.87 Q3116.91 1928.97 3119.11 1928.53 Q3121.31 1928.06 3123.39 1928.06 Q3129.02 1928.06 3131.8 1930.98 Q3134.57 1933.9 3134.57 1939.82 Z" fill="#000000" fill-rule="nonzero" fill-opacity="1" /><path clip-path="url(#clip500)" d="M3144.44 1948.74 L3149.32 1948.74 L3149.32 1952.72 L3145.52 1960.12 L3142.54 1960.12 L3144.44 1952.72 L3144.44 1948.74 Z" fill="#000000" fill-rule="nonzero" fill-opacity="1" /><path clip-path="url(#clip500)" d="M3193.67 1933.67 Q3195.27 1930.8 3197.49 1929.43 Q3199.71 1928.06 3202.72 1928.06 Q3206.77 1928.06 3208.97 1930.91 Q3211.17 1933.74 3211.17 1938.97 L3211.17 1954.62 L3206.89 1954.62 L3206.89 1939.11 Q3206.89 1935.38 3205.57 1933.57 Q3204.25 1931.77 3201.54 1931.77 Q3198.23 1931.77 3196.31 1933.97 Q3194.39 1936.17 3194.39 1939.96 L3194.39 1954.62 L3190.11 1954.62 L3190.11 1939.11 Q3190.11 1935.36 3188.79 1933.57 Q3187.47 1931.77 3184.71 1931.77 Q3181.45 1931.77 3179.53 1933.99 Q3177.61 1936.19 3177.61 1939.96 L3177.61 1954.62 L3173.32 1954.62 L3173.32 1928.69 L3177.61 1928.69 L3177.61 1932.72 Q3179.07 1930.33 3181.1 1929.2 Q3183.14 1928.06 3185.94 1928.06 Q3188.76 1928.06 3190.73 1929.5 Q3192.72 1930.94 3193.67 1933.67 Z" fill="#000000" fill-rule="nonzero" fill-opacity="1" /><path clip-path="url(#clip500)" d="M3231.45 1941.58 Q3226.29 1941.58 3224.3 1942.76 Q3222.31 1943.94 3222.31 1946.79 Q3222.31 1949.06 3223.79 1950.4 Q3225.29 1951.72 3227.86 1951.72 Q3231.4 1951.72 3233.53 1949.22 Q3235.69 1946.7 3235.69 1942.53 L3235.69 1941.58 L3231.45 1941.58 M3239.94 1939.82 L3239.94 1954.62 L3235.69 1954.62 L3235.69 1950.68 Q3234.23 1953.04 3232.05 1954.18 Q3229.88 1955.29 3226.73 1955.29 Q3222.75 1955.29 3220.38 1953.06 Q3218.05 1950.82 3218.05 1947.07 Q3218.05 1942.69 3220.96 1940.47 Q3223.9 1938.25 3229.71 1938.25 L3235.69 1938.25 L3235.69 1937.83 Q3235.69 1934.89 3233.74 1933.3 Q3231.82 1931.68 3228.32 1931.68 Q3226.1 1931.68 3224 1932.21 Q3221.89 1932.74 3219.94 1933.81 L3219.94 1929.87 Q3222.28 1928.97 3224.48 1928.53 Q3226.68 1928.06 3228.76 1928.06 Q3234.39 1928.06 3237.17 1930.98 Q3239.94 1933.9 3239.94 1939.82 Z" fill="#000000" fill-rule="nonzero" fill-opacity="1" /><path clip-path="url(#clip500)" d="M3265.78 1932.62 L3265.78 1918.6 L3270.04 1918.6 L3270.04 1954.62 L3265.78 1954.62 L3265.78 1950.73 Q3264.44 1953.04 3262.38 1954.18 Q3260.34 1955.29 3257.47 1955.29 Q3252.77 1955.29 3249.81 1951.54 Q3246.87 1947.79 3246.87 1941.68 Q3246.87 1935.56 3249.81 1931.81 Q3252.77 1928.06 3257.47 1928.06 Q3260.34 1928.06 3262.38 1929.2 Q3264.44 1930.31 3265.78 1932.62 M3251.26 1941.68 Q3251.26 1946.37 3253.19 1949.06 Q3255.13 1951.72 3258.51 1951.72 Q3261.89 1951.72 3263.83 1949.06 Q3265.78 1946.37 3265.78 1941.68 Q3265.78 1936.98 3263.83 1934.31 Q3261.89 1931.63 3258.51 1931.63 Q3255.13 1931.63 3253.19 1934.31 Q3251.26 1936.98 3251.26 1941.68 Z" fill="#000000" fill-rule="nonzero" fill-opacity="1" /><path clip-path="url(#clip500)" d="M3300.36 1938.97 L3300.36 1954.62 L3296.1 1954.62 L3296.1 1939.11 Q3296.1 1935.43 3294.67 1933.6 Q3293.23 1931.77 3290.36 1931.77 Q3286.91 1931.77 3284.92 1933.97 Q3282.93 1936.17 3282.93 1939.96 L3282.93 1954.62 L3278.65 1954.62 L3278.65 1928.69 L3282.93 1928.69 L3282.93 1932.72 Q3284.46 1930.38 3286.52 1929.22 Q3288.6 1928.06 3291.31 1928.06 Q3295.78 1928.06 3298.07 1930.84 Q3300.36 1933.6 3300.36 1938.97 Z" fill="#000000" fill-rule="nonzero" fill-opacity="1" /><path clip-path="url(#clip500)" d="M3308.86 1918.6 L3313.12 1918.6 L3313.12 1954.62 L3308.86 1954.62 L3308.86 1918.6 Z" fill="#000000" fill-rule="nonzero" fill-opacity="1" /><path clip-path="url(#clip500)" d="M3326.15 1950.73 L3326.15 1964.48 L3321.87 1964.48 L3321.87 1928.69 L3326.15 1928.69 L3326.15 1932.62 Q3327.49 1930.31 3329.53 1929.2 Q3331.59 1928.06 3334.44 1928.06 Q3339.16 1928.06 3342.1 1931.81 Q3345.06 1935.56 3345.06 1941.68 Q3345.06 1947.79 3342.1 1951.54 Q3339.16 1955.29 3334.44 1955.29 Q3331.59 1955.29 3329.53 1954.18 Q3327.49 1953.04 3326.15 1950.73 M3340.64 1941.68 Q3340.64 1936.98 3338.69 1934.31 Q3336.77 1931.63 3333.39 1931.63 Q3330.01 1931.63 3328.07 1934.31 Q3326.15 1936.98 3326.15 1941.68 Q3326.15 1946.37 3328.07 1949.06 Q3330.01 1951.72 3333.39 1951.72 Q3336.77 1951.72 3338.69 1949.06 Q3340.64 1946.37 3340.64 1941.68 Z" fill="#000000" fill-rule="nonzero" fill-opacity="1" /><path clip-path="url(#clip500)" d="M3351.45 1918.64 L3355.15 1918.64 Q3358.62 1924.11 3360.34 1929.34 Q3362.07 1934.57 3362.07 1939.73 Q3362.07 1944.92 3360.34 1950.17 Q3358.62 1955.43 3355.15 1960.87 L3351.45 1960.87 Q3354.53 1955.56 3356.03 1950.33 Q3357.56 1945.08 3357.56 1939.73 Q3357.56 1934.38 3356.03 1929.18 Q3354.53 1923.97 3351.45 1918.64 Z" fill="#000000" fill-rule="nonzero" fill-opacity="1" /><polyline clip-path="url(#clip500)" style="stroke:#800080; stroke-linecap:round; stroke-linejoin:round; stroke-width:6; stroke-opacity:1; fill:none" points="2787.6,1989.18 3003.1,1989.18 "/>
<path clip-path="url(#clip500)" d="M2920.95 1963.58 L2869.75 1963.58 L2895.35 2014.78 L2920.95 1963.58 Z" fill="#800080" fill-rule="evenodd" fill-opacity="1" stroke="none"/>
<path clip-path="url(#clip500)" d="M3049.64 1970.48 Q3046.54 1975.81 3045.04 1981.02 Q3043.53 1986.22 3043.53 1991.57 Q3043.53 1996.92 3045.04 2002.17 Q3046.57 2007.4 3049.64 2012.71 L3045.94 2012.71 Q3042.47 2007.27 3040.73 2002.01 Q3039.02 1996.76 3039.02 1991.57 Q3039.02 1986.41 3040.73 1981.18 Q3042.45 1975.95 3045.94 1970.48 L3049.64 1970.48 Z" fill="#000000" fill-rule="nonzero" fill-opacity="1" /><path clip-path="url(#clip500)" d="M3057.91 1980.53 L3062.17 1980.53 L3062.17 2006.92 Q3062.17 2011.87 3060.27 2014.09 Q3058.39 2016.32 3054.21 2016.32 L3052.58 2016.32 L3052.58 2012.71 L3053.72 2012.71 Q3056.15 2012.71 3057.03 2011.57 Q3057.91 2010.46 3057.91 2006.92 L3057.91 1980.53 M3057.91 1970.44 L3062.17 1970.44 L3062.17 1975.83 L3057.91 1975.83 L3057.91 1970.44 Z" fill="#000000" fill-rule="nonzero" fill-opacity="1" /><path clip-path="url(#clip500)" d="M3070.64 1996.22 L3070.64 1980.53 L3074.9 1980.53 L3074.9 1996.06 Q3074.9 1999.74 3076.33 2001.59 Q3077.77 2003.42 3080.64 2003.42 Q3084.09 2003.42 3086.08 2001.22 Q3088.09 1999.03 3088.09 1995.23 L3088.09 1980.53 L3092.35 1980.53 L3092.35 2006.46 L3088.09 2006.46 L3088.09 2002.47 Q3086.54 2004.84 3084.48 2005.99 Q3082.45 2007.13 3079.74 2007.13 Q3075.27 2007.13 3072.95 2004.35 Q3070.64 2001.57 3070.64 1996.22 M3081.36 1979.9 L3081.36 1979.9 Z" fill="#000000" fill-rule="nonzero" fill-opacity="1" /><path clip-path="url(#clip500)" d="M3121.31 1985.51 Q3122.91 1982.64 3125.13 1981.27 Q3127.35 1979.9 3130.36 1979.9 Q3134.41 1979.9 3136.61 1982.75 Q3138.81 1985.58 3138.81 1990.81 L3138.81 2006.46 L3134.53 2006.46 L3134.53 1990.95 Q3134.53 1987.22 3133.21 1985.41 Q3131.89 1983.61 3129.18 1983.61 Q3125.87 1983.61 3123.95 1985.81 Q3122.03 1988.01 3122.03 1991.8 L3122.03 2006.46 L3117.75 2006.46 L3117.75 1990.95 Q3117.75 1987.2 3116.43 1985.41 Q3115.11 1983.61 3112.35 1983.61 Q3109.09 1983.61 3107.17 1985.83 Q3105.25 1988.03 3105.25 1991.8 L3105.25 2006.46 L3100.96 2006.46 L3100.96 1980.53 L3105.25 1980.53 L3105.25 1984.56 Q3106.7 1982.17 3108.74 1981.04 Q3110.78 1979.9 3113.58 1979.9 Q3116.4 1979.9 3118.37 1981.34 Q3120.36 1982.78 3121.31 1985.51 Z" fill="#000000" fill-rule="nonzero" fill-opacity="1" /><path clip-path="url(#clip500)" d="M3151.43 2002.57 L3151.43 2016.32 L3147.14 2016.32 L3147.14 1980.53 L3151.43 1980.53 L3151.43 1984.46 Q3152.77 1982.15 3154.81 1981.04 Q3156.87 1979.9 3159.71 1979.9 Q3164.44 1979.9 3167.38 1983.65 Q3170.34 1987.4 3170.34 1993.52 Q3170.34 1999.63 3167.38 2003.38 Q3164.44 2007.13 3159.71 2007.13 Q3156.87 2007.13 3154.81 2006.02 Q3152.77 2004.88 3151.43 2002.57 M3165.92 1993.52 Q3165.92 1988.82 3163.97 1986.15 Q3162.05 1983.47 3158.67 1983.47 Q3155.29 1983.47 3153.35 1986.15 Q3151.43 1988.82 3151.43 1993.52 Q3151.43 1998.21 3153.35 2000.9 Q3155.29 2003.56 3158.67 2003.56 Q3162.05 2003.56 3163.97 2000.9 Q3165.92 1998.21 3165.92 1993.52 Z" fill="#000000" fill-rule="nonzero" fill-opacity="1" /><path clip-path="url(#clip500)" d="M3178.49 2000.58 L3183.37 2000.58 L3183.37 2004.56 L3179.57 2011.96 L3176.59 2011.96 L3178.49 2004.56 L3178.49 2000.58 Z" fill="#000000" fill-rule="nonzero" fill-opacity="1" /><path clip-path="url(#clip500)" d="M3207.54 1980.53 L3211.8 1980.53 L3211.8 2006.46 L3207.54 2006.46 L3207.54 1980.53 M3207.54 1970.44 L3211.8 1970.44 L3211.8 1975.83 L3207.54 1975.83 L3207.54 1970.44 Z" fill="#000000" fill-rule="nonzero" fill-opacity="1" /><path clip-path="url(#clip500)" d="M3224.83 2002.57 L3224.83 2016.32 L3220.55 2016.32 L3220.55 1980.53 L3224.83 1980.53 L3224.83 1984.46 Q3226.17 1982.15 3228.21 1981.04 Q3230.27 1979.9 3233.12 1979.9 Q3237.84 1979.9 3240.78 1983.65 Q3243.74 1987.4 3243.74 1993.52 Q3243.74 1999.63 3240.78 2003.38 Q3237.84 2007.13 3233.12 2007.13 Q3230.27 2007.13 3228.21 2006.02 Q3226.17 2004.88 3224.83 2002.57 M3239.32 1993.52 Q3239.32 1988.82 3237.38 1986.15 Q3235.45 1983.47 3232.07 1983.47 Q3228.69 1983.47 3226.75 1986.15 Q3224.83 1988.82 3224.83 1993.52 Q3224.83 1998.21 3226.75 2000.9 Q3228.69 2003.56 3232.07 2003.56 Q3235.45 2003.56 3237.38 2000.9 Q3239.32 1998.21 3239.32 1993.52 Z" fill="#000000" fill-rule="nonzero" fill-opacity="1" /><path clip-path="url(#clip500)" d="M3260.85 1983.52 Q3257.42 1983.52 3255.43 1986.2 Q3253.44 1988.86 3253.44 1993.52 Q3253.44 1998.17 3255.41 2000.85 Q3257.4 2003.52 3260.85 2003.52 Q3264.25 2003.52 3266.24 2000.83 Q3268.23 1998.15 3268.23 1993.52 Q3268.23 1988.91 3266.24 1986.22 Q3264.25 1983.52 3260.85 1983.52 M3260.85 1979.9 Q3266.4 1979.9 3269.57 1983.52 Q3272.75 1987.13 3272.75 1993.52 Q3272.75 1999.88 3269.57 2003.52 Q3266.4 2007.13 3260.85 2007.13 Q3255.27 2007.13 3252.1 2003.52 Q3248.95 1999.88 3248.95 1993.52 Q3248.95 1987.13 3252.1 1983.52 Q3255.27 1979.9 3260.85 1979.9 Z" fill="#000000" fill-rule="nonzero" fill-opacity="1" /><path clip-path="url(#clip500)" d="M3283.93 2002.57 L3283.93 2016.32 L3279.64 2016.32 L3279.64 1980.53 L3283.93 1980.53 L3283.93 1984.46 Q3285.27 1982.15 3287.31 1981.04 Q3289.37 1979.9 3292.21 1979.9 Q3296.94 1979.9 3299.88 1983.65 Q3302.84 1987.4 3302.84 1993.52 Q3302.84 1999.63 3299.88 2003.38 Q3296.94 2007.13 3292.21 2007.13 Q3289.37 2007.13 3287.31 2006.02 Q3285.27 2004.88 3283.93 2002.57 M3298.42 1993.52 Q3298.42 1988.82 3296.47 1986.15 Q3294.55 1983.47 3291.17 1983.47 Q3287.79 1983.47 3285.85 1986.15 Q3283.93 1988.82 3283.93 1993.52 Q3283.93 1998.21 3285.85 2000.9 Q3287.79 2003.56 3291.17 2003.56 Q3294.55 2003.56 3296.47 2000.9 Q3298.42 1998.21 3298.42 1993.52 Z" fill="#000000" fill-rule="nonzero" fill-opacity="1" /><path clip-path="url(#clip500)" d="M3314.11 1973.17 L3314.11 1980.53 L3322.88 1980.53 L3322.88 1983.84 L3314.11 1983.84 L3314.11 1997.91 Q3314.11 2001.09 3314.97 2001.99 Q3315.85 2002.89 3318.51 2002.89 L3322.88 2002.89 L3322.88 2006.46 L3318.51 2006.46 Q3313.58 2006.46 3311.7 2004.63 Q3309.83 2002.78 3309.83 1997.91 L3309.83 1983.84 L3306.7 1983.84 L3306.7 1980.53 L3309.83 1980.53 L3309.83 1973.17 L3314.11 1973.17 Z" fill="#000000" fill-rule="nonzero" fill-opacity="1" /><path clip-path="url(#clip500)" d="M3327.81 1970.48 L3331.52 1970.48 Q3334.99 1975.95 3336.7 1981.18 Q3338.44 1986.41 3338.44 1991.57 Q3338.44 1996.76 3336.7 2002.01 Q3334.99 2007.27 3331.52 2012.71 L3327.81 2012.71 Q3330.89 2007.4 3332.4 2002.17 Q3333.93 1996.92 3333.93 1991.57 Q3333.93 1986.22 3332.4 1981.02 Q3330.89 1975.81 3327.81 1970.48 Z" fill="#000000" fill-rule="nonzero" fill-opacity="1" /><polyline clip-path="url(#clip500)" style="stroke:#a52a2a; stroke-linecap:round; stroke-linejoin:round; stroke-width:6; stroke-opacity:1; fill:none" points="2787.6,2041.02 3003.1,2041.02 "/>
<path clip-path="url(#clip500)" d="M2895.35 2015.42 L2889.34 2032.72 L2871.01 2033.11 L2885.62 2044.19 L2880.3 2061.73 L2895.35 2051.26 L2910.4 2061.73 L2905.08 2044.19 L2919.7 2033.11 L2901.37 2032.72 L2895.35 2015.42 Z" fill="#a52a2a" fill-rule="evenodd" fill-opacity="1" stroke="none"/>
<path clip-path="url(#clip500)" d="M3049.64 2022.32 Q3046.54 2027.65 3045.04 2032.86 Q3043.53 2038.06 3043.53 2043.41 Q3043.53 2048.76 3045.04 2054.01 Q3046.57 2059.24 3049.64 2064.55 L3045.94 2064.55 Q3042.47 2059.11 3040.73 2053.85 Q3039.02 2048.6 3039.02 2043.41 Q3039.02 2038.25 3040.73 2033.02 Q3042.45 2027.79 3045.94 2022.32 L3049.64 2022.32 Z" fill="#000000" fill-rule="nonzero" fill-opacity="1" /><path clip-path="url(#clip500)" d="M3057.91 2032.37 L3062.17 2032.37 L3062.17 2058.76 Q3062.17 2063.71 3060.27 2065.93 Q3058.39 2068.16 3054.21 2068.16 L3052.58 2068.16 L3052.58 2064.55 L3053.72 2064.55 Q3056.15 2064.55 3057.03 2063.41 Q3057.91 2062.3 3057.91 2058.76 L3057.91 2032.37 M3057.91 2022.28 L3062.17 2022.28 L3062.17 2027.67 L3057.91 2027.67 L3057.91 2022.28 Z" fill="#000000" fill-rule="nonzero" fill-opacity="1" /><path clip-path="url(#clip500)" d="M3070.64 2048.06 L3070.64 2032.37 L3074.9 2032.37 L3074.9 2047.9 Q3074.9 2051.58 3076.33 2053.43 Q3077.77 2055.26 3080.64 2055.26 Q3084.09 2055.26 3086.08 2053.06 Q3088.09 2050.87 3088.09 2047.07 L3088.09 2032.37 L3092.35 2032.37 L3092.35 2058.3 L3088.09 2058.3 L3088.09 2054.31 Q3086.54 2056.68 3084.48 2057.83 Q3082.45 2058.97 3079.74 2058.97 Q3075.27 2058.97 3072.95 2056.19 Q3070.64 2053.41 3070.64 2048.06 M3081.36 2031.74 L3081.36 2031.74 Z" fill="#000000" fill-rule="nonzero" fill-opacity="1" /><path clip-path="url(#clip500)" d="M3121.31 2037.35 Q3122.91 2034.48 3125.13 2033.11 Q3127.35 2031.74 3130.36 2031.74 Q3134.41 2031.74 3136.61 2034.59 Q3138.81 2037.42 3138.81 2042.65 L3138.81 2058.3 L3134.53 2058.3 L3134.53 2042.79 Q3134.53 2039.06 3133.21 2037.25 Q3131.89 2035.45 3129.18 2035.45 Q3125.87 2035.45 3123.95 2037.65 Q3122.03 2039.85 3122.03 2043.64 L3122.03 2058.3 L3117.75 2058.3 L3117.75 2042.79 Q3117.75 2039.04 3116.43 2037.25 Q3115.11 2035.45 3112.35 2035.45 Q3109.09 2035.45 3107.17 2037.67 Q3105.25 2039.87 3105.25 2043.64 L3105.25 2058.3 L3100.96 2058.3 L3100.96 2032.37 L3105.25 2032.37 L3105.25 2036.4 Q3106.7 2034.01 3108.74 2032.88 Q3110.78 2031.74 3113.58 2031.74 Q3116.4 2031.74 3118.37 2033.18 Q3120.36 2034.62 3121.31 2037.35 Z" fill="#000000" fill-rule="nonzero" fill-opacity="1" /><path clip-path="url(#clip500)" d="M3151.43 2054.41 L3151.43 2068.16 L3147.14 2068.16 L3147.14 2032.37 L3151.43 2032.37 L3151.43 2036.3 Q3152.77 2033.99 3154.81 2032.88 Q3156.87 2031.74 3159.71 2031.74 Q3164.44 2031.74 3167.38 2035.49 Q3170.34 2039.24 3170.34 2045.36 Q3170.34 2051.47 3167.38 2055.22 Q3164.44 2058.97 3159.71 2058.97 Q3156.87 2058.97 3154.81 2057.86 Q3152.77 2056.72 3151.43 2054.41 M3165.92 2045.36 Q3165.92 2040.66 3163.97 2037.99 Q3162.05 2035.31 3158.67 2035.31 Q3155.29 2035.31 3153.35 2037.99 Q3151.43 2040.66 3151.43 2045.36 Q3151.43 2050.05 3153.35 2052.74 Q3155.29 2055.4 3158.67 2055.4 Q3162.05 2055.4 3163.97 2052.74 Q3165.92 2050.05 3165.92 2045.36 Z" fill="#000000" fill-rule="nonzero" fill-opacity="1" /><path clip-path="url(#clip500)" d="M3178.49 2052.42 L3183.37 2052.42 L3183.37 2056.4 L3179.57 2063.8 L3176.59 2063.8 L3178.49 2056.4 L3178.49 2052.42 Z" fill="#000000" fill-rule="nonzero" fill-opacity="1" /><path clip-path="url(#clip500)" d="M3227.72 2037.35 Q3229.32 2034.48 3231.54 2033.11 Q3233.76 2031.74 3236.77 2031.74 Q3240.82 2031.74 3243.02 2034.59 Q3245.22 2037.42 3245.22 2042.65 L3245.22 2058.3 L3240.94 2058.3 L3240.94 2042.79 Q3240.94 2039.06 3239.62 2037.25 Q3238.3 2035.45 3235.59 2035.45 Q3232.28 2035.45 3230.36 2037.65 Q3228.44 2039.85 3228.44 2043.64 L3228.44 2058.3 L3224.16 2058.3 L3224.16 2042.79 Q3224.16 2039.04 3222.84 2037.25 Q3221.52 2035.45 3218.76 2035.45 Q3215.5 2035.45 3213.58 2037.67 Q3211.66 2039.87 3211.66 2043.64 L3211.66 2058.3 L3207.38 2058.3 L3207.38 2032.37 L3211.66 2032.37 L3211.66 2036.4 Q3213.12 2034.01 3215.15 2032.88 Q3217.19 2031.74 3219.99 2031.74 Q3222.82 2031.74 3224.78 2033.18 Q3226.77 2034.62 3227.72 2037.35 Z" fill="#000000" fill-rule="nonzero" fill-opacity="1" /><path clip-path="url(#clip500)" d="M3265.5 2045.26 Q3260.34 2045.26 3258.35 2046.44 Q3256.36 2047.62 3256.36 2050.47 Q3256.36 2052.74 3257.84 2054.08 Q3259.34 2055.4 3261.91 2055.4 Q3265.45 2055.4 3267.58 2052.9 Q3269.74 2050.38 3269.74 2046.21 L3269.74 2045.26 L3265.5 2045.26 M3274 2043.5 L3274 2058.3 L3269.74 2058.3 L3269.74 2054.36 Q3268.28 2056.72 3266.1 2057.86 Q3263.93 2058.97 3260.78 2058.97 Q3256.8 2058.97 3254.44 2056.74 Q3252.1 2054.5 3252.1 2050.75 Q3252.1 2046.37 3255.01 2044.15 Q3257.95 2041.93 3263.76 2041.93 L3269.74 2041.93 L3269.74 2041.51 Q3269.74 2038.57 3267.79 2036.98 Q3265.87 2035.36 3262.38 2035.36 Q3260.15 2035.36 3258.05 2035.89 Q3255.94 2036.42 3254 2037.49 L3254 2033.55 Q3256.33 2032.65 3258.53 2032.21 Q3260.73 2031.74 3262.82 2031.74 Q3268.44 2031.74 3271.22 2034.66 Q3274 2037.58 3274 2043.5 Z" fill="#000000" fill-rule="nonzero" fill-opacity="1" /><path clip-path="url(#clip500)" d="M3299.83 2036.3 L3299.83 2022.28 L3304.09 2022.28 L3304.09 2058.3 L3299.83 2058.3 L3299.83 2054.41 Q3298.49 2056.72 3296.43 2057.86 Q3294.39 2058.97 3291.52 2058.97 Q3286.82 2058.97 3283.86 2055.22 Q3280.92 2051.47 3280.92 2045.36 Q3280.92 2039.24 3283.86 2035.49 Q3286.82 2031.74 3291.52 2031.74 Q3294.39 2031.74 3296.43 2032.88 Q3298.49 2033.99 3299.83 2036.3 M3285.31 2045.36 Q3285.31 2050.05 3287.24 2052.74 Q3289.18 2055.4 3292.56 2055.4 Q3295.94 2055.4 3297.88 2052.74 Q3299.83 2050.05 3299.83 2045.36 Q3299.83 2040.66 3297.88 2037.99 Q3295.94 2035.31 3292.56 2035.31 Q3289.18 2035.31 3287.24 2037.99 Q3285.31 2040.66 3285.31 2045.36 Z" fill="#000000" fill-rule="nonzero" fill-opacity="1" /><path clip-path="url(#clip500)" d="M3334.41 2042.65 L3334.41 2058.3 L3330.15 2058.3 L3330.15 2042.79 Q3330.15 2039.11 3328.72 2037.28 Q3327.28 2035.45 3324.41 2035.45 Q3320.96 2035.45 3318.97 2037.65 Q3316.98 2039.85 3316.98 2043.64 L3316.98 2058.3 L3312.7 2058.3 L3312.7 2032.37 L3316.98 2032.37 L3316.98 2036.4 Q3318.51 2034.06 3320.57 2032.9 Q3322.65 2031.74 3325.36 2031.74 Q3329.83 2031.74 3332.12 2034.52 Q3334.41 2037.28 3334.41 2042.65 Z" fill="#000000" fill-rule="nonzero" fill-opacity="1" /><path clip-path="url(#clip500)" d="M3342.91 2022.28 L3347.17 2022.28 L3347.17 2058.3 L3342.91 2058.3 L3342.91 2022.28 Z" fill="#000000" fill-rule="nonzero" fill-opacity="1" /><path clip-path="url(#clip500)" d="M3360.2 2054.41 L3360.2 2068.16 L3355.92 2068.16 L3355.92 2032.37 L3360.2 2032.37 L3360.2 2036.3 Q3361.54 2033.99 3363.58 2032.88 Q3365.64 2031.74 3368.49 2031.74 Q3373.21 2031.74 3376.15 2035.49 Q3379.11 2039.24 3379.11 2045.36 Q3379.11 2051.47 3376.15 2055.22 Q3373.21 2058.97 3368.49 2058.97 Q3365.64 2058.97 3363.58 2057.86 Q3361.54 2056.72 3360.2 2054.41 M3374.69 2045.36 Q3374.69 2040.66 3372.74 2037.99 Q3370.82 2035.31 3367.44 2035.31 Q3364.06 2035.31 3362.12 2037.99 Q3360.2 2040.66 3360.2 2045.36 Q3360.2 2050.05 3362.12 2052.74 Q3364.06 2055.4 3367.44 2055.4 Q3370.82 2055.4 3372.74 2052.74 Q3374.69 2050.05 3374.69 2045.36 Z" fill="#000000" fill-rule="nonzero" fill-opacity="1" /><path clip-path="url(#clip500)" d="M3385.5 2022.32 L3389.2 2022.32 Q3392.68 2027.79 3394.39 2033.02 Q3396.12 2038.25 3396.12 2043.41 Q3396.12 2048.6 3394.39 2053.85 Q3392.68 2059.11 3389.2 2064.55 L3385.5 2064.55 Q3388.58 2059.24 3390.08 2054.01 Q3391.61 2048.76 3391.61 2043.41 Q3391.61 2038.06 3390.08 2032.86 Q3388.58 2027.65 3385.5 2022.32 Z" fill="#000000" fill-rule="nonzero" fill-opacity="1" /></svg>
