<?xml version="1.0" encoding="utf-8"?>
<svg xmlns="http://www.w3.org/2000/svg" xmlns:xlink="http://www.w3.org/1999/xlink" width="900" height="600" viewBox="0 0 3600 2400">
<defs>
  <clipPath id="clip850">
    <rect x="0" y="0" width="3600" height="2400"/>
  </clipPath>
</defs>
<path clip-path="url(#clip850)" d="M0 2400 L3600 2400 L3600 0 L0 0  Z" fill="#ffffff" fill-rule="evenodd" fill-opacity="1"/>
<defs>
  <clipPath id="clip851">
    <rect x="720" y="0" width="2521" height="2400"/>
  </clipPath>
</defs>
<path clip-path="url(#clip850)" d="M261.542 2202.9 L3552.76 2202.9 L3552.76 123.472 L261.542 123.472  Z" fill="#ffffff" fill-rule="evenodd" fill-opacity="1"/>
<defs>
  <clipPath id="clip852">
    <rect x="261" y="123" width="3292" height="2080"/>
  </clipPath>
</defs>
<polyline clip-path="url(#clip852)" style="stroke:#000000; stroke-linecap:round; stroke-linejoin:round; stroke-width:2; stroke-opacity:0.1; fill:none" points="354.69,2202.9 354.69,123.472 "/>
<polyline clip-path="url(#clip852)" style="stroke:#000000; stroke-linecap:round; stroke-linejoin:round; stroke-width:2; stroke-opacity:0.1; fill:none" points="2239.06,2202.9 2239.06,123.472 "/>
<polyline clip-path="url(#clip852)" style="stroke:#000000; stroke-linecap:round; stroke-linejoin:round; stroke-width:2; stroke-opacity:0.1; fill:none" points="261.542,2183.28 3552.76,2183.28 "/>
<polyline clip-path="url(#clip852)" style="stroke:#000000; stroke-linecap:round; stroke-linejoin:round; stroke-width:2; stroke-opacity:0.1; fill:none" points="261.542,1683.04 3552.76,1683.04 "/>
<polyline clip-path="url(#clip852)" style="stroke:#000000; stroke-linecap:round; stroke-linejoin:round; stroke-width:2; stroke-opacity:0.1; fill:none" points="261.542,1182.8 3552.76,1182.8 "/>
<polyline clip-path="url(#clip852)" style="stroke:#000000; stroke-linecap:round; stroke-linejoin:round; stroke-width:2; stroke-opacity:0.1; fill:none" points="261.542,682.563 3552.76,682.563 "/>
<polyline clip-path="url(#clip852)" style="stroke:#000000; stroke-linecap:round; stroke-linejoin:round; stroke-width:2; stroke-opacity:0.1; fill:none" points="261.542,182.324 3552.76,182.324 "/>
<polyline clip-path="url(#clip850)" style="stroke:#000000; stroke-linecap:round; stroke-linejoin:round; stroke-width:4; stroke-opacity:1; fill:none" points="261.542,2202.9 3552.76,2202.9 "/>
<polyline clip-path="url(#clip850)" style="stroke:#000000; stroke-linecap:round; stroke-linejoin:round; stroke-width:4; stroke-opacity:1; fill:none" points="354.69,2202.9 354.69,2184 "/>
<polyline clip-path="url(#clip850)" style="stroke:#000000; stroke-linecap:round; stroke-linejoin:round; stroke-width:4; stroke-opacity:1; fill:none" points="2239.06,2202.9 2239.06,2184 "/>
<path clip-path="url(#clip850)" d="M339.638 2286.62 L355.957 2286.62 L355.957 2290.56 L334.013 2290.56 L334.013 2286.62 Q336.675 2283.87 341.258 2279.24 Q345.864 2274.58 347.045 2273.24 Q349.29 2270.72 350.17 2268.98 Q351.073 2267.22 351.073 2265.53 Q351.073 2262.78 349.128 2261.04 Q347.207 2259.31 344.105 2259.31 Q341.906 2259.31 339.452 2260.07 Q337.022 2260.83 334.244 2262.39 L334.244 2257.66 Q337.068 2256.53 339.522 2255.95 Q341.976 2255.37 344.013 2255.37 Q349.383 2255.37 352.577 2258.06 Q355.772 2260.74 355.772 2265.23 Q355.772 2267.36 354.962 2269.28 Q354.175 2271.18 352.068 2273.77 Q351.489 2274.45 348.388 2277.66 Q345.286 2280.86 339.638 2286.62 Z" fill="#000000" fill-rule="nonzero" fill-opacity="1" /><path clip-path="url(#clip850)" d="M365.662 2237.57 Q362.728 2237.57 361.242 2240.46 Q359.775 2243.34 359.775 2249.13 Q359.775 2254.91 361.242 2257.8 Q362.728 2260.68 365.662 2260.68 Q368.615 2260.68 370.082 2257.8 Q371.567 2254.91 371.567 2249.13 Q371.567 2243.34 370.082 2240.46 Q368.615 2237.57 365.662 2237.57 M365.662 2234.56 Q370.383 2234.56 372.865 2238.3 Q375.367 2242.03 375.367 2249.13 Q375.367 2256.22 372.865 2259.97 Q370.383 2263.69 365.662 2263.69 Q360.941 2263.69 358.44 2259.97 Q355.957 2256.22 355.957 2249.13 Q355.957 2242.03 358.44 2238.3 Q360.941 2234.56 365.662 2234.56 Z" fill="#000000" fill-rule="nonzero" fill-opacity="1" /><path clip-path="url(#clip850)" d="M2223.48 2286.62 L2239.8 2286.62 L2239.8 2290.56 L2217.85 2290.56 L2217.85 2286.62 Q2220.52 2283.87 2225.1 2279.24 Q2229.71 2274.58 2230.89 2273.24 Q2233.13 2270.72 2234.01 2268.98 Q2234.91 2267.22 2234.91 2265.53 Q2234.91 2262.78 2232.97 2261.04 Q2231.05 2259.31 2227.95 2259.31 Q2225.75 2259.31 2223.29 2260.07 Q2220.86 2260.83 2218.09 2262.39 L2218.09 2257.66 Q2220.91 2256.53 2223.36 2255.95 Q2225.82 2255.37 2227.85 2255.37 Q2233.22 2255.37 2236.42 2258.06 Q2239.61 2260.74 2239.61 2265.23 Q2239.61 2267.36 2238.8 2269.28 Q2238.02 2271.18 2235.91 2273.77 Q2235.33 2274.45 2232.23 2277.66 Q2229.13 2280.86 2223.48 2286.62 Z" fill="#000000" fill-rule="nonzero" fill-opacity="1" /><path clip-path="url(#clip850)" d="M2252.47 2238.38 L2242.88 2253.37 L2252.47 2253.37 L2252.47 2238.38 M2251.48 2235.07 L2256.25 2235.07 L2256.25 2253.37 L2260.26 2253.37 L2260.26 2256.53 L2256.25 2256.53 L2256.25 2263.15 L2252.47 2263.15 L2252.47 2256.53 L2239.8 2256.53 L2239.8 2252.86 L2251.48 2235.07 Z" fill="#000000" fill-rule="nonzero" fill-opacity="1" /><path clip-path="url(#clip850)" d="M1584.52 2377.69 Q1585.66 2379.22 1589.1 2379.22 L1591.94 2379.22 L1591.94 2384.19 L1588.4 2384.19 Q1582.67 2384.19 1580.06 2381.13 Q1577.45 2378.01 1577.45 2371.26 L1577.45 2354.39 L1564.09 2354.39 L1564.09 2348.54 L1596.96 2348.54 L1596.96 2354.39 L1583.44 2354.39 L1583.44 2371.61 Q1583.44 2376.23 1584.52 2377.69 Z" fill="#000000" fill-rule="nonzero" fill-opacity="1" /><path clip-path="url(#clip850)" d="M1641.08 2334.72 Q1636.81 2342.04 1634.74 2349.21 Q1632.68 2356.37 1632.68 2363.72 Q1632.68 2371.07 1634.74 2378.3 Q1636.85 2385.49 1641.08 2392.78 L1635.99 2392.78 Q1631.21 2385.3 1628.82 2378.07 Q1626.47 2370.85 1626.47 2363.72 Q1626.47 2356.62 1628.82 2349.43 Q1631.18 2342.24 1635.99 2334.72 L1641.08 2334.72 Z" fill="#000000" fill-rule="nonzero" fill-opacity="1" /><path clip-path="url(#clip850)" d="M1659.13 2341.95 L1659.13 2359.8 L1667.21 2359.8 Q1671.7 2359.8 1674.15 2357.48 Q1676.6 2355.16 1676.6 2350.86 Q1676.6 2346.6 1674.15 2344.27 Q1671.7 2341.95 1667.21 2341.95 L1659.13 2341.95 M1652.7 2336.67 L1667.21 2336.67 Q1675.2 2336.67 1679.27 2340.29 Q1683.38 2343.89 1683.38 2350.86 Q1683.38 2357.9 1679.27 2361.49 Q1675.2 2365.09 1667.21 2365.09 L1659.13 2365.09 L1659.13 2384.19 L1652.7 2384.19 L1652.7 2336.67 Z" fill="#000000" fill-rule="nonzero" fill-opacity="1" /><path clip-path="url(#clip850)" d="M1719.92 2364.9 L1719.92 2367.76 L1692.99 2367.76 Q1693.37 2373.81 1696.62 2376.99 Q1699.9 2380.14 1705.72 2380.14 Q1709.1 2380.14 1712.25 2379.32 Q1715.43 2378.49 1718.55 2376.83 L1718.55 2382.37 Q1715.4 2383.71 1712.09 2384.41 Q1708.78 2385.11 1705.37 2385.11 Q1696.84 2385.11 1691.84 2380.14 Q1686.88 2375.18 1686.88 2366.71 Q1686.88 2357.96 1691.59 2352.83 Q1696.33 2347.68 1704.35 2347.68 Q1711.55 2347.68 1715.72 2352.33 Q1719.92 2356.94 1719.92 2364.9 M1714.06 2363.18 Q1714 2358.37 1711.36 2355.51 Q1708.75 2352.64 1704.42 2352.64 Q1699.52 2352.64 1696.56 2355.41 Q1693.63 2358.18 1693.18 2363.21 L1714.06 2363.18 Z" fill="#000000" fill-rule="nonzero" fill-opacity="1" /><path clip-path="url(#clip850)" d="M1750.19 2354.01 Q1749.2 2353.44 1748.02 2353.18 Q1746.88 2352.9 1745.48 2352.9 Q1740.51 2352.9 1737.84 2356.14 Q1735.2 2359.36 1735.2 2365.41 L1735.2 2384.19 L1729.31 2384.19 L1729.31 2348.54 L1735.2 2348.54 L1735.2 2354.08 Q1737.04 2350.83 1740 2349.27 Q1742.96 2347.68 1747.19 2347.68 Q1747.8 2347.68 1748.53 2347.77 Q1749.26 2347.84 1750.15 2348 L1750.19 2354.01 Z" fill="#000000" fill-rule="nonzero" fill-opacity="1" /><path clip-path="url(#clip850)" d="M1774.38 2334.66 L1774.38 2339.53 L1768.77 2339.53 Q1765.62 2339.53 1764.38 2340.8 Q1763.17 2342.08 1763.17 2345.39 L1763.17 2348.54 L1772.82 2348.54 L1772.82 2353.09 L1763.17 2353.09 L1763.17 2384.19 L1757.28 2384.19 L1757.28 2353.09 L1751.68 2353.09 L1751.68 2348.54 L1757.28 2348.54 L1757.28 2346.05 Q1757.28 2340.1 1760.05 2337.4 Q1762.82 2334.66 1768.84 2334.66 L1774.38 2334.66 Z" fill="#000000" fill-rule="nonzero" fill-opacity="1" /><path clip-path="url(#clip850)" d="M1793.09 2352.64 Q1788.38 2352.64 1785.64 2356.34 Q1782.91 2360 1782.91 2366.39 Q1782.91 2372.79 1785.61 2376.48 Q1788.35 2380.14 1793.09 2380.14 Q1797.77 2380.14 1800.51 2376.45 Q1803.24 2372.76 1803.24 2366.39 Q1803.24 2360.06 1800.51 2356.37 Q1797.77 2352.64 1793.09 2352.64 M1793.09 2347.68 Q1800.73 2347.68 1805.09 2352.64 Q1809.45 2357.61 1809.45 2366.39 Q1809.45 2375.15 1805.09 2380.14 Q1800.73 2385.11 1793.09 2385.11 Q1785.42 2385.11 1781.06 2380.14 Q1776.73 2375.15 1776.73 2366.39 Q1776.73 2357.61 1781.06 2352.64 Q1785.42 2347.68 1793.09 2347.68 Z" fill="#000000" fill-rule="nonzero" fill-opacity="1" /><path clip-path="url(#clip850)" d="M1839.82 2354.01 Q1838.83 2353.44 1837.65 2353.18 Q1836.51 2352.9 1835.11 2352.9 Q1830.14 2352.9 1827.47 2356.14 Q1824.82 2359.36 1824.82 2365.41 L1824.82 2384.19 L1818.94 2384.19 L1818.94 2348.54 L1824.82 2348.54 L1824.82 2354.08 Q1826.67 2350.83 1829.63 2349.27 Q1832.59 2347.68 1836.82 2347.68 Q1837.43 2347.68 1838.16 2347.77 Q1838.89 2347.84 1839.78 2348 L1839.82 2354.01 Z" fill="#000000" fill-rule="nonzero" fill-opacity="1" /><path clip-path="url(#clip850)" d="M1872.57 2355.38 Q1874.76 2351.43 1877.82 2349.56 Q1880.87 2347.68 1885.01 2347.68 Q1890.58 2347.68 1893.61 2351.59 Q1896.63 2355.48 1896.63 2362.67 L1896.63 2384.19 L1890.74 2384.19 L1890.74 2362.86 Q1890.74 2357.74 1888.93 2355.25 Q1887.11 2352.77 1883.39 2352.77 Q1878.84 2352.77 1876.2 2355.79 Q1873.55 2358.82 1873.55 2364.04 L1873.55 2384.19 L1867.67 2384.19 L1867.67 2362.86 Q1867.67 2357.7 1865.85 2355.25 Q1864.04 2352.77 1860.25 2352.77 Q1855.76 2352.77 1853.12 2355.83 Q1850.48 2358.85 1850.48 2364.04 L1850.48 2384.19 L1844.59 2384.19 L1844.59 2348.54 L1850.48 2348.54 L1850.48 2354.08 Q1852.48 2350.8 1855.28 2349.24 Q1858.09 2347.68 1861.94 2347.68 Q1865.82 2347.68 1868.53 2349.65 Q1871.26 2351.62 1872.57 2355.38 Z" fill="#000000" fill-rule="nonzero" fill-opacity="1" /><path clip-path="url(#clip850)" d="M1924.51 2366.27 Q1917.41 2366.27 1914.68 2367.89 Q1911.94 2369.51 1911.94 2373.43 Q1911.94 2376.55 1913.98 2378.39 Q1916.05 2380.21 1919.58 2380.21 Q1924.45 2380.21 1927.38 2376.77 Q1930.34 2373.3 1930.34 2367.57 L1930.34 2366.27 L1924.51 2366.27 M1936.19 2363.85 L1936.19 2384.19 L1930.34 2384.19 L1930.34 2378.77 Q1928.33 2382.02 1925.34 2383.58 Q1922.35 2385.11 1918.02 2385.11 Q1912.54 2385.11 1909.3 2382.05 Q1906.08 2378.97 1906.08 2373.81 Q1906.08 2367.79 1910.09 2364.74 Q1914.14 2361.68 1922.12 2361.68 L1930.34 2361.68 L1930.34 2361.11 Q1930.34 2357.07 1927.66 2354.87 Q1925.02 2352.64 1920.21 2352.64 Q1917.16 2352.64 1914.26 2353.38 Q1911.37 2354.11 1908.69 2355.57 L1908.69 2350.16 Q1911.91 2348.92 1914.93 2348.31 Q1917.95 2347.68 1920.82 2347.68 Q1928.55 2347.68 1932.37 2351.69 Q1936.19 2355.7 1936.19 2363.85 Z" fill="#000000" fill-rule="nonzero" fill-opacity="1" /><path clip-path="url(#clip850)" d="M1977.89 2362.67 L1977.89 2384.19 L1972.03 2384.19 L1972.03 2362.86 Q1972.03 2357.8 1970.06 2355.29 Q1968.08 2352.77 1964.14 2352.77 Q1959.4 2352.77 1956.66 2355.79 Q1953.92 2358.82 1953.92 2364.04 L1953.92 2384.19 L1948.03 2384.19 L1948.03 2348.54 L1953.92 2348.54 L1953.92 2354.08 Q1956.02 2350.86 1958.85 2349.27 Q1961.72 2347.68 1965.44 2347.68 Q1971.59 2347.68 1974.74 2351.5 Q1977.89 2355.29 1977.89 2362.67 Z" fill="#000000" fill-rule="nonzero" fill-opacity="1" /><path clip-path="url(#clip850)" d="M2015.22 2349.91 L2015.22 2355.38 Q2012.74 2354.01 2010.23 2353.34 Q2007.74 2352.64 2005.2 2352.64 Q1999.5 2352.64 1996.35 2356.27 Q1993.2 2359.87 1993.2 2366.39 Q1993.2 2372.92 1996.35 2376.55 Q1999.5 2380.14 2005.2 2380.14 Q2007.74 2380.14 2010.23 2379.47 Q2012.74 2378.77 2015.22 2377.41 L2015.22 2382.82 Q2012.77 2383.96 2010.13 2384.54 Q2007.52 2385.11 2004.56 2385.11 Q1996.51 2385.11 1991.77 2380.05 Q1987.02 2374.99 1987.02 2366.39 Q1987.02 2357.67 1991.8 2352.68 Q1996.6 2347.68 2004.94 2347.68 Q2007.65 2347.68 2010.23 2348.25 Q2012.8 2348.79 2015.22 2349.91 Z" fill="#000000" fill-rule="nonzero" fill-opacity="1" /><path clip-path="url(#clip850)" d="M2055.9 2364.9 L2055.9 2367.76 L2028.97 2367.76 Q2029.35 2373.81 2032.6 2376.99 Q2035.88 2380.14 2041.7 2380.14 Q2045.08 2380.14 2048.23 2379.32 Q2051.41 2378.49 2054.53 2376.83 L2054.53 2382.37 Q2051.38 2383.71 2048.07 2384.41 Q2044.76 2385.11 2041.35 2385.11 Q2032.82 2385.11 2027.83 2380.14 Q2022.86 2375.18 2022.86 2366.71 Q2022.86 2357.96 2027.57 2352.83 Q2032.31 2347.68 2040.34 2347.68 Q2047.53 2347.68 2051.7 2352.33 Q2055.9 2356.94 2055.9 2364.9 M2050.04 2363.18 Q2049.98 2358.37 2047.34 2355.51 Q2044.73 2352.64 2040.4 2352.64 Q2035.5 2352.64 2032.54 2355.41 Q2029.61 2358.18 2029.16 2363.21 L2050.04 2363.18 Z" fill="#000000" fill-rule="nonzero" fill-opacity="1" /><path clip-path="url(#clip850)" d="M2106.89 2354.01 Q2105.9 2353.44 2104.72 2353.18 Q2103.58 2352.9 2102.18 2352.9 Q2097.21 2352.9 2094.54 2356.14 Q2091.9 2359.36 2091.9 2365.41 L2091.9 2384.19 L2086.01 2384.19 L2086.01 2348.54 L2091.9 2348.54 L2091.9 2354.08 Q2093.74 2350.83 2096.7 2349.27 Q2099.66 2347.68 2103.9 2347.68 Q2104.5 2347.68 2105.23 2347.77 Q2105.97 2347.84 2106.86 2348 L2106.89 2354.01 Z" fill="#000000" fill-rule="nonzero" fill-opacity="1" /><path clip-path="url(#clip850)" d="M2129.23 2366.27 Q2122.13 2366.27 2119.4 2367.89 Q2116.66 2369.51 2116.66 2373.43 Q2116.66 2376.55 2118.7 2378.39 Q2120.77 2380.21 2124.3 2380.21 Q2129.17 2380.21 2132.1 2376.77 Q2135.06 2373.3 2135.06 2367.57 L2135.06 2366.27 L2129.23 2366.27 M2140.91 2363.85 L2140.91 2384.19 L2135.06 2384.19 L2135.06 2378.77 Q2133.05 2382.02 2130.06 2383.58 Q2127.07 2385.11 2122.74 2385.11 Q2117.27 2385.11 2114.02 2382.05 Q2110.8 2378.97 2110.8 2373.81 Q2110.8 2367.79 2114.81 2364.74 Q2118.86 2361.68 2126.85 2361.68 L2135.06 2361.68 L2135.06 2361.11 Q2135.06 2357.07 2132.38 2354.87 Q2129.74 2352.64 2124.94 2352.64 Q2121.88 2352.64 2118.98 2353.38 Q2116.09 2354.11 2113.41 2355.57 L2113.41 2350.16 Q2116.63 2348.92 2119.65 2348.31 Q2122.68 2347.68 2125.54 2347.68 Q2133.27 2347.68 2137.09 2351.69 Q2140.91 2355.7 2140.91 2363.85 Z" fill="#000000" fill-rule="nonzero" fill-opacity="1" /><path clip-path="url(#clip850)" d="M2158.77 2338.42 L2158.77 2348.54 L2170.83 2348.54 L2170.83 2353.09 L2158.77 2353.09 L2158.77 2372.44 Q2158.77 2376.8 2159.95 2378.04 Q2161.16 2379.28 2164.82 2379.28 L2170.83 2379.28 L2170.83 2384.19 L2164.82 2384.19 Q2158.04 2384.19 2155.46 2381.67 Q2152.88 2379.12 2152.88 2372.44 L2152.88 2353.09 L2148.58 2353.09 L2148.58 2348.54 L2152.88 2348.54 L2152.88 2338.42 L2158.77 2338.42 Z" fill="#000000" fill-rule="nonzero" fill-opacity="1" /><path clip-path="url(#clip850)" d="M2178.53 2348.54 L2184.39 2348.54 L2184.39 2384.19 L2178.53 2384.19 L2178.53 2348.54 M2178.53 2334.66 L2184.39 2334.66 L2184.39 2342.08 L2178.53 2342.08 L2178.53 2334.66 Z" fill="#000000" fill-rule="nonzero" fill-opacity="1" /><path clip-path="url(#clip850)" d="M2210.46 2352.64 Q2205.75 2352.64 2203.01 2356.34 Q2200.27 2360 2200.27 2366.39 Q2200.27 2372.79 2202.98 2376.48 Q2205.72 2380.14 2210.46 2380.14 Q2215.14 2380.14 2217.88 2376.45 Q2220.61 2372.76 2220.61 2366.39 Q2220.61 2360.06 2217.88 2356.37 Q2215.14 2352.64 2210.46 2352.64 M2210.46 2347.68 Q2218.1 2347.68 2222.46 2352.64 Q2226.82 2357.61 2226.82 2366.39 Q2226.82 2375.15 2222.46 2380.14 Q2218.1 2385.11 2210.46 2385.11 Q2202.79 2385.11 2198.43 2380.14 Q2194.1 2375.15 2194.1 2366.39 Q2194.1 2357.61 2198.43 2352.64 Q2202.79 2347.68 2210.46 2347.68 Z" fill="#000000" fill-rule="nonzero" fill-opacity="1" /><path clip-path="url(#clip850)" d="M2235.6 2334.72 L2240.7 2334.72 Q2245.47 2342.24 2247.83 2349.43 Q2250.21 2356.62 2250.21 2363.72 Q2250.21 2370.85 2247.83 2378.07 Q2245.47 2385.3 2240.7 2392.78 L2235.6 2392.78 Q2239.84 2385.49 2241.91 2378.3 Q2244.01 2371.07 2244.01 2363.72 Q2244.01 2356.37 2241.91 2349.21 Q2239.84 2342.04 2235.6 2334.72 Z" fill="#000000" fill-rule="nonzero" fill-opacity="1" /><polyline clip-path="url(#clip850)" style="stroke:#000000; stroke-linecap:round; stroke-linejoin:round; stroke-width:4; stroke-opacity:1; fill:none" points="261.542,2202.9 261.542,123.472 "/>
<polyline clip-path="url(#clip850)" style="stroke:#000000; stroke-linecap:round; stroke-linejoin:round; stroke-width:4; stroke-opacity:1; fill:none" points="261.542,2183.28 280.44,2183.28 "/>
<polyline clip-path="url(#clip850)" style="stroke:#000000; stroke-linecap:round; stroke-linejoin:round; stroke-width:4; stroke-opacity:1; fill:none" points="261.542,1683.04 280.44,1683.04 "/>
<polyline clip-path="url(#clip850)" style="stroke:#000000; stroke-linecap:round; stroke-linejoin:round; stroke-width:4; stroke-opacity:1; fill:none" points="261.542,1182.8 280.44,1182.8 "/>
<polyline clip-path="url(#clip850)" style="stroke:#000000; stroke-linecap:round; stroke-linejoin:round; stroke-width:4; stroke-opacity:1; fill:none" points="261.542,682.563 280.44,682.563 "/>
<polyline clip-path="url(#clip850)" style="stroke:#000000; stroke-linecap:round; stroke-linejoin:round; stroke-width:4; stroke-opacity:1; fill:none" points="261.542,182.324 280.44,182.324 "/>
<path clip-path="url(#clip850)" d="M120.205 2169.08 Q116.593 2169.08 114.765 2172.64 Q112.959 2176.18 112.959 2183.31 Q112.959 2190.42 114.765 2193.99 Q116.593 2197.53 120.205 2197.53 Q123.839 2197.53 125.644 2193.99 Q127.473 2190.42 127.473 2183.31 Q127.473 2176.18 125.644 2172.64 Q123.839 2169.08 120.205 2169.08 M120.205 2165.37 Q126.015 2165.37 129.07 2169.98 Q132.149 2174.56 132.149 2183.31 Q132.149 2192.04 129.07 2196.65 Q126.015 2201.23 120.205 2201.23 Q114.394 2201.23 111.316 2196.65 Q108.26 2192.04 108.26 2183.31 Q108.26 2174.56 111.316 2169.98 Q114.394 2165.37 120.205 2165.37 Z" fill="#000000" fill-rule="nonzero" fill-opacity="1" /><path clip-path="url(#clip850)" d="M140.366 2194.68 L145.251 2194.68 L145.251 2200.56 L140.366 2200.56 L140.366 2194.68 Z" fill="#000000" fill-rule="nonzero" fill-opacity="1" /><path clip-path="url(#clip850)" d="M165.436 2169.08 Q161.825 2169.08 159.996 2172.64 Q158.19 2176.18 158.19 2183.31 Q158.19 2190.42 159.996 2193.99 Q161.825 2197.53 165.436 2197.53 Q169.07 2197.53 170.876 2193.99 Q172.704 2190.42 172.704 2183.31 Q172.704 2176.18 170.876 2172.64 Q169.07 2169.08 165.436 2169.08 M165.436 2165.37 Q171.246 2165.37 174.301 2169.98 Q177.38 2174.56 177.38 2183.31 Q177.38 2192.04 174.301 2196.65 Q171.246 2201.23 165.436 2201.23 Q159.626 2201.23 156.547 2196.65 Q153.491 2192.04 153.491 2183.31 Q153.491 2174.56 156.547 2169.98 Q159.626 2165.37 165.436 2165.37 Z" fill="#000000" fill-rule="nonzero" fill-opacity="1" /><path clip-path="url(#clip850)" d="M195.598 2169.08 Q191.987 2169.08 190.158 2172.64 Q188.352 2176.18 188.352 2183.31 Q188.352 2190.42 190.158 2193.99 Q191.987 2197.53 195.598 2197.53 Q199.232 2197.53 201.037 2193.99 Q202.866 2190.42 202.866 2183.31 Q202.866 2176.18 201.037 2172.64 Q199.232 2169.08 195.598 2169.08 M195.598 2165.37 Q201.408 2165.37 204.463 2169.98 Q207.542 2174.56 207.542 2183.31 Q207.542 2192.04 204.463 2196.65 Q201.408 2201.23 195.598 2201.23 Q189.787 2201.23 186.709 2196.65 Q183.653 2192.04 183.653 2183.31 Q183.653 2174.56 186.709 2169.98 Q189.787 2165.37 195.598 2165.37 Z" fill="#000000" fill-rule="nonzero" fill-opacity="1" /><path clip-path="url(#clip850)" d="M121.2 1668.84 Q117.589 1668.84 115.76 1672.4 Q113.955 1675.95 113.955 1683.08 Q113.955 1690.18 115.76 1693.75 Q117.589 1697.29 121.2 1697.29 Q124.834 1697.29 126.64 1693.75 Q128.468 1690.18 128.468 1683.08 Q128.468 1675.95 126.64 1672.4 Q124.834 1668.84 121.2 1668.84 M121.2 1665.14 Q127.01 1665.14 130.066 1669.74 Q133.144 1674.33 133.144 1683.08 Q133.144 1691.8 130.066 1696.41 Q127.01 1700.99 121.2 1700.99 Q115.39 1700.99 112.311 1696.41 Q109.256 1691.8 109.256 1683.08 Q109.256 1674.33 112.311 1669.74 Q115.39 1665.14 121.2 1665.14 Z" fill="#000000" fill-rule="nonzero" fill-opacity="1" /><path clip-path="url(#clip850)" d="M141.362 1694.44 L146.246 1694.44 L146.246 1700.32 L141.362 1700.32 L141.362 1694.44 Z" fill="#000000" fill-rule="nonzero" fill-opacity="1" /><path clip-path="url(#clip850)" d="M160.459 1696.39 L176.778 1696.39 L176.778 1700.32 L154.834 1700.32 L154.834 1696.39 Q157.496 1693.63 162.079 1689 Q166.686 1684.35 167.866 1683.01 Q170.112 1680.48 170.991 1678.75 Q171.894 1676.99 171.894 1675.3 Q171.894 1672.54 169.95 1670.81 Q168.028 1669.07 164.927 1669.07 Q162.727 1669.07 160.274 1669.83 Q157.843 1670.6 155.065 1672.15 L155.065 1667.43 Q157.89 1666.29 160.343 1665.71 Q162.797 1665.14 164.834 1665.14 Q170.204 1665.14 173.399 1667.82 Q176.593 1670.51 176.593 1675 Q176.593 1677.13 175.783 1679.05 Q174.996 1680.95 172.889 1683.54 Q172.311 1684.21 169.209 1687.43 Q166.107 1690.62 160.459 1696.39 Z" fill="#000000" fill-rule="nonzero" fill-opacity="1" /><path clip-path="url(#clip850)" d="M186.639 1665.76 L204.996 1665.76 L204.996 1669.7 L190.922 1669.7 L190.922 1678.17 Q191.94 1677.82 192.959 1677.66 Q193.977 1677.47 194.996 1677.47 Q200.783 1677.47 204.162 1680.64 Q207.542 1683.82 207.542 1689.23 Q207.542 1694.81 204.07 1697.91 Q200.598 1700.99 194.278 1700.99 Q192.102 1700.99 189.834 1700.62 Q187.588 1700.25 185.181 1699.51 L185.181 1694.81 Q187.264 1695.95 189.487 1696.5 Q191.709 1697.06 194.186 1697.06 Q198.19 1697.06 200.528 1694.95 Q202.866 1692.84 202.866 1689.23 Q202.866 1685.62 200.528 1683.52 Q198.19 1681.41 194.186 1681.41 Q192.311 1681.41 190.436 1681.83 Q188.584 1682.24 186.639 1683.12 L186.639 1665.76 Z" fill="#000000" fill-rule="nonzero" fill-opacity="1" /><path clip-path="url(#clip850)" d="M120.205 1168.6 Q116.593 1168.6 114.765 1172.17 Q112.959 1175.71 112.959 1182.84 Q112.959 1189.94 114.765 1193.51 Q116.593 1197.05 120.205 1197.05 Q123.839 1197.05 125.644 1193.51 Q127.473 1189.94 127.473 1182.84 Q127.473 1175.71 125.644 1172.17 Q123.839 1168.6 120.205 1168.6 M120.205 1164.9 Q126.015 1164.9 129.07 1169.5 Q132.149 1174.09 132.149 1182.84 Q132.149 1191.56 129.07 1196.17 Q126.015 1200.75 120.205 1200.75 Q114.394 1200.75 111.316 1196.17 Q108.26 1191.56 108.26 1182.84 Q108.26 1174.09 111.316 1169.5 Q114.394 1164.9 120.205 1164.9 Z" fill="#000000" fill-rule="nonzero" fill-opacity="1" /><path clip-path="url(#clip850)" d="M140.366 1194.2 L145.251 1194.2 L145.251 1200.08 L140.366 1200.08 L140.366 1194.2 Z" fill="#000000" fill-rule="nonzero" fill-opacity="1" /><path clip-path="url(#clip850)" d="M155.482 1165.52 L173.839 1165.52 L173.839 1169.46 L159.765 1169.46 L159.765 1177.93 Q160.783 1177.58 161.802 1177.42 Q162.82 1177.23 163.839 1177.23 Q169.626 1177.23 173.005 1180.41 Q176.385 1183.58 176.385 1188.99 Q176.385 1194.57 172.913 1197.67 Q169.44 1200.75 163.121 1200.75 Q160.945 1200.75 158.677 1200.38 Q156.431 1200.01 154.024 1199.27 L154.024 1194.57 Q156.107 1195.71 158.329 1196.26 Q160.552 1196.82 163.028 1196.82 Q167.033 1196.82 169.371 1194.71 Q171.709 1192.6 171.709 1188.99 Q171.709 1185.38 169.371 1183.28 Q167.033 1181.17 163.028 1181.17 Q161.153 1181.17 159.278 1181.59 Q157.427 1182 155.482 1182.88 L155.482 1165.52 Z" fill="#000000" fill-rule="nonzero" fill-opacity="1" /><path clip-path="url(#clip850)" d="M195.598 1168.6 Q191.987 1168.6 190.158 1172.17 Q188.352 1175.71 188.352 1182.84 Q188.352 1189.94 190.158 1193.51 Q191.987 1197.05 195.598 1197.05 Q199.232 1197.05 201.037 1193.51 Q202.866 1189.94 202.866 1182.84 Q202.866 1175.71 201.037 1172.17 Q199.232 1168.6 195.598 1168.6 M195.598 1164.9 Q201.408 1164.9 204.463 1169.5 Q207.542 1174.09 207.542 1182.84 Q207.542 1191.56 204.463 1196.17 Q201.408 1200.75 195.598 1200.75 Q189.787 1200.75 186.709 1196.17 Q183.653 1191.56 183.653 1182.84 Q183.653 1174.09 186.709 1169.5 Q189.787 1164.9 195.598 1164.9 Z" fill="#000000" fill-rule="nonzero" fill-opacity="1" /><path clip-path="url(#clip850)" d="M121.2 668.361 Q117.589 668.361 115.76 671.926 Q113.955 675.468 113.955 682.597 Q113.955 689.704 115.76 693.269 Q117.589 696.81 121.2 696.81 Q124.834 696.81 126.64 693.269 Q128.468 689.704 128.468 682.597 Q128.468 675.468 126.64 671.926 Q124.834 668.361 121.2 668.361 M121.2 664.658 Q127.01 664.658 130.066 669.264 Q133.144 673.847 133.144 682.597 Q133.144 691.324 130.066 695.931 Q127.01 700.514 121.2 700.514 Q115.39 700.514 112.311 695.931 Q109.256 691.324 109.256 682.597 Q109.256 673.847 112.311 669.264 Q115.39 664.658 121.2 664.658 Z" fill="#000000" fill-rule="nonzero" fill-opacity="1" /><path clip-path="url(#clip850)" d="M141.362 693.963 L146.246 693.963 L146.246 699.843 L141.362 699.843 L141.362 693.963 Z" fill="#000000" fill-rule="nonzero" fill-opacity="1" /><path clip-path="url(#clip850)" d="M155.251 665.283 L177.473 665.283 L177.473 667.273 L164.927 699.843 L160.042 699.843 L171.848 669.218 L155.251 669.218 L155.251 665.283 Z" fill="#000000" fill-rule="nonzero" fill-opacity="1" /><path clip-path="url(#clip850)" d="M186.639 665.283 L204.996 665.283 L204.996 669.218 L190.922 669.218 L190.922 677.69 Q191.94 677.343 192.959 677.181 Q193.977 676.996 194.996 676.996 Q200.783 676.996 204.162 680.167 Q207.542 683.338 207.542 688.755 Q207.542 694.333 204.07 697.435 Q200.598 700.514 194.278 700.514 Q192.102 700.514 189.834 700.144 Q187.588 699.773 185.181 699.032 L185.181 694.333 Q187.264 695.468 189.487 696.023 Q191.709 696.579 194.186 696.579 Q198.19 696.579 200.528 694.472 Q202.866 692.366 202.866 688.755 Q202.866 685.144 200.528 683.037 Q198.19 680.931 194.186 680.931 Q192.311 680.931 190.436 681.347 Q188.584 681.764 186.639 682.644 L186.639 665.283 Z" fill="#000000" fill-rule="nonzero" fill-opacity="1" /><path clip-path="url(#clip850)" d="M111.015 195.669 L118.654 195.669 L118.654 169.303 L110.343 170.97 L110.343 166.71 L118.607 165.044 L123.283 165.044 L123.283 195.669 L130.922 195.669 L130.922 199.604 L111.015 199.604 L111.015 195.669 Z" fill="#000000" fill-rule="nonzero" fill-opacity="1" /><path clip-path="url(#clip850)" d="M140.366 193.724 L145.251 193.724 L145.251 199.604 L140.366 199.604 L140.366 193.724 Z" fill="#000000" fill-rule="nonzero" fill-opacity="1" /><path clip-path="url(#clip850)" d="M165.436 168.122 Q161.825 168.122 159.996 171.687 Q158.19 175.229 158.19 182.358 Q158.19 189.465 159.996 193.03 Q161.825 196.571 165.436 196.571 Q169.07 196.571 170.876 193.03 Q172.704 189.465 172.704 182.358 Q172.704 175.229 170.876 171.687 Q169.07 168.122 165.436 168.122 M165.436 164.419 Q171.246 164.419 174.301 169.025 Q177.38 173.609 177.38 182.358 Q177.38 191.085 174.301 195.692 Q171.246 200.275 165.436 200.275 Q159.626 200.275 156.547 195.692 Q153.491 191.085 153.491 182.358 Q153.491 173.609 156.547 169.025 Q159.626 164.419 165.436 164.419 Z" fill="#000000" fill-rule="nonzero" fill-opacity="1" /><path clip-path="url(#clip850)" d="M195.598 168.122 Q191.987 168.122 190.158 171.687 Q188.352 175.229 188.352 182.358 Q188.352 189.465 190.158 193.03 Q191.987 196.571 195.598 196.571 Q199.232 196.571 201.037 193.03 Q202.866 189.465 202.866 182.358 Q202.866 175.229 201.037 171.687 Q199.232 168.122 195.598 168.122 M195.598 164.419 Q201.408 164.419 204.463 169.025 Q207.542 173.609 207.542 182.358 Q207.542 191.085 204.463 195.692 Q201.408 200.275 195.598 200.275 Q189.787 200.275 186.709 195.692 Q183.653 191.085 183.653 182.358 Q183.653 173.609 186.709 169.025 Q189.787 164.419 195.598 164.419 Z" fill="#000000" fill-rule="nonzero" fill-opacity="1" /><path clip-path="url(#clip850)" d="M-2.23231 1711.34 L15.6235 1711.34 L15.6235 1703.25 Q15.6235 1698.76 13.3 1696.31 Q10.9765 1693.86 6.67968 1693.86 Q2.41466 1693.86 0.0911769 1696.31 Q-2.23231 1698.76 -2.23231 1703.25 L-2.23231 1711.34 M-7.51584 1717.76 L-7.51584 1703.25 Q-7.51584 1695.26 -3.88739 1691.19 Q-0.290765 1687.08 6.67968 1687.08 Q13.7138 1687.08 17.3104 1691.19 Q20.907 1695.26 20.907 1703.25 L20.907 1711.34 L40.0042 1711.34 L40.0042 1717.76 L-7.51584 1717.76 Z" fill="#000000" fill-rule="nonzero" fill-opacity="1" /><path clip-path="url(#clip850)" d="M9.83071 1659.2 Q9.25779 1660.19 9.00317 1661.36 Q8.71671 1662.51 8.71671 1663.91 Q8.71671 1668.88 11.9632 1671.55 Q15.1779 1674.19 21.2253 1674.19 L40.0042 1674.19 L40.0042 1680.08 L4.3562 1680.08 L4.3562 1674.19 L9.89437 1674.19 Q6.64785 1672.35 5.08826 1669.39 Q3.49683 1666.43 3.49683 1662.19 Q3.49683 1661.59 3.59232 1660.86 Q3.65597 1660.12 3.81512 1659.23 L9.83071 1659.2 Z" fill="#000000" fill-rule="nonzero" fill-opacity="1" /><path clip-path="url(#clip850)" d="M8.46208 1640.68 Q8.46208 1645.39 12.1542 1648.12 Q15.8145 1650.86 22.212 1650.86 Q28.6095 1650.86 32.3017 1648.16 Q35.9619 1645.42 35.9619 1640.68 Q35.9619 1636 32.2698 1633.26 Q28.5777 1630.52 22.212 1630.52 Q15.8781 1630.52 12.186 1633.26 Q8.46208 1636 8.46208 1640.68 M3.49683 1640.68 Q3.49683 1633.04 8.46208 1628.68 Q13.4273 1624.32 22.212 1624.32 Q30.9649 1624.32 35.9619 1628.68 Q40.9272 1633.04 40.9272 1640.68 Q40.9272 1648.35 35.9619 1652.71 Q30.9649 1657.04 22.212 1657.04 Q13.4273 1657.04 8.46208 1652.71 Q3.49683 1648.35 3.49683 1640.68 Z" fill="#000000" fill-rule="nonzero" fill-opacity="1" /><path clip-path="url(#clip850)" d="M34.657 1608.94 L53.5631 1608.94 L53.5631 1614.83 L4.3562 1614.83 L4.3562 1608.94 L9.76705 1608.94 Q6.5842 1607.1 5.05643 1604.3 Q3.49683 1601.46 3.49683 1597.55 Q3.49683 1591.06 8.65305 1587.01 Q13.8093 1582.94 22.212 1582.94 Q30.6147 1582.94 35.771 1587.01 Q40.9272 1591.06 40.9272 1597.55 Q40.9272 1601.46 39.3994 1604.3 Q37.8398 1607.1 34.657 1608.94 M22.212 1589.02 Q15.7508 1589.02 12.0905 1591.69 Q8.39842 1594.33 8.39842 1598.98 Q8.39842 1603.63 12.0905 1606.3 Q15.7508 1608.94 22.212 1608.94 Q28.6732 1608.94 32.3653 1606.3 Q36.0256 1603.63 36.0256 1598.98 Q36.0256 1594.33 32.3653 1591.69 Q28.6732 1589.02 22.212 1589.02 Z" fill="#000000" fill-rule="nonzero" fill-opacity="1" /><path clip-path="url(#clip850)" d="M8.46208 1559.42 Q8.46208 1564.13 12.1542 1566.87 Q15.8145 1569.6 22.212 1569.6 Q28.6095 1569.6 32.3017 1566.9 Q35.9619 1564.16 35.9619 1559.42 Q35.9619 1554.74 32.2698 1552 Q28.5777 1549.26 22.212 1549.26 Q15.8781 1549.26 12.186 1552 Q8.46208 1554.74 8.46208 1559.42 M3.49683 1559.42 Q3.49683 1551.78 8.46208 1547.42 Q13.4273 1543.06 22.212 1543.06 Q30.9649 1543.06 35.9619 1547.42 Q40.9272 1551.78 40.9272 1559.42 Q40.9272 1567.09 35.9619 1571.45 Q30.9649 1575.78 22.212 1575.78 Q13.4273 1575.78 8.46208 1571.45 Q3.49683 1567.09 3.49683 1559.42 Z" fill="#000000" fill-rule="nonzero" fill-opacity="1" /><path clip-path="url(#clip850)" d="M9.83071 1512.69 Q9.25779 1513.68 9.00317 1514.86 Q8.71671 1516 8.71671 1517.4 Q8.71671 1522.37 11.9632 1525.04 Q15.1779 1527.68 21.2253 1527.68 L40.0042 1527.68 L40.0042 1533.57 L4.3562 1533.57 L4.3562 1527.68 L9.89437 1527.68 Q6.64785 1525.84 5.08826 1522.88 Q3.49683 1519.92 3.49683 1515.69 Q3.49683 1515.08 3.59232 1514.35 Q3.65597 1513.62 3.81512 1512.73 L9.83071 1512.69 Z" fill="#000000" fill-rule="nonzero" fill-opacity="1" /><path clip-path="url(#clip850)" d="M-5.76527 1500.76 L4.3562 1500.76 L4.3562 1488.69 L8.90768 1488.69 L8.90768 1500.76 L28.2594 1500.76 Q32.6199 1500.76 33.8613 1499.58 Q35.1026 1498.37 35.1026 1494.71 L35.1026 1488.69 L40.0042 1488.69 L40.0042 1494.71 Q40.0042 1501.49 37.4897 1504.07 Q34.9434 1506.65 28.2594 1506.65 L8.90768 1506.65 L8.90768 1510.94 L4.3562 1510.94 L4.3562 1506.65 L-5.76527 1506.65 L-5.76527 1500.76 Z" fill="#000000" fill-rule="nonzero" fill-opacity="1" /><path clip-path="url(#clip850)" d="M4.3562 1480.99 L4.3562 1475.14 L40.0042 1475.14 L40.0042 1480.99 L4.3562 1480.99 M-9.52104 1480.99 L-9.52104 1475.14 L-2.10499 1475.14 L-2.10499 1480.99 L-9.52104 1480.99 Z" fill="#000000" fill-rule="nonzero" fill-opacity="1" /><path clip-path="url(#clip850)" d="M8.46208 1449.07 Q8.46208 1453.78 12.1542 1456.52 Q15.8145 1459.25 22.212 1459.25 Q28.6095 1459.25 32.3017 1456.55 Q35.9619 1453.81 35.9619 1449.07 Q35.9619 1444.39 32.2698 1441.65 Q28.5777 1438.91 22.212 1438.91 Q15.8781 1438.91 12.186 1441.65 Q8.46208 1444.39 8.46208 1449.07 M3.49683 1449.07 Q3.49683 1441.43 8.46208 1437.07 Q13.4273 1432.71 22.212 1432.71 Q30.9649 1432.71 35.9619 1437.07 Q40.9272 1441.43 40.9272 1449.07 Q40.9272 1456.74 35.9619 1461.1 Q30.9649 1465.43 22.212 1465.43 Q13.4273 1465.43 8.46208 1461.1 Q3.49683 1456.74 3.49683 1449.07 Z" fill="#000000" fill-rule="nonzero" fill-opacity="1" /><path clip-path="url(#clip850)" d="M18.4881 1393.37 L40.0042 1393.37 L40.0042 1399.22 L18.679 1399.22 Q13.6183 1399.22 11.1038 1401.2 Q8.5894 1403.17 8.5894 1407.12 Q8.5894 1411.86 11.6131 1414.6 Q14.6368 1417.34 19.8567 1417.34 L40.0042 1417.34 L40.0042 1423.22 L4.3562 1423.22 L4.3562 1417.34 L9.89437 1417.34 Q6.67968 1415.23 5.08826 1412.4 Q3.49683 1409.54 3.49683 1405.81 Q3.49683 1399.67 7.31625 1396.52 Q11.1038 1393.37 18.4881 1393.37 Z" fill="#000000" fill-rule="nonzero" fill-opacity="1" /><path clip-path="url(#clip850)" d="M8.46208 1347.15 Q8.46208 1351.86 12.1542 1354.6 Q15.8145 1357.34 22.212 1357.34 Q28.6095 1357.34 32.3017 1354.63 Q35.9619 1351.9 35.9619 1347.15 Q35.9619 1342.47 32.2698 1339.74 Q28.5777 1337 22.212 1337 Q15.8781 1337 12.186 1339.74 Q8.46208 1342.47 8.46208 1347.15 M3.49683 1347.15 Q3.49683 1339.51 8.46208 1335.15 Q13.4273 1330.79 22.212 1330.79 Q30.9649 1330.79 35.9619 1335.15 Q40.9272 1339.51 40.9272 1347.15 Q40.9272 1354.82 35.9619 1359.18 Q30.9649 1363.51 22.212 1363.51 Q13.4273 1363.51 8.46208 1359.18 Q3.49683 1354.82 3.49683 1347.15 Z" fill="#000000" fill-rule="nonzero" fill-opacity="1" /><path clip-path="url(#clip850)" d="M-9.52104 1303.04 L-4.65127 1303.04 L-4.65127 1308.64 Q-4.65127 1311.79 -3.37813 1313.03 Q-2.10499 1314.24 1.20518 1314.24 L4.3562 1314.24 L4.3562 1304.6 L8.90768 1304.6 L8.90768 1314.24 L40.0042 1314.24 L40.0042 1320.13 L8.90768 1320.13 L8.90768 1325.73 L4.3562 1325.73 L4.3562 1320.13 L1.87357 1320.13 Q-4.07836 1320.13 -6.78379 1317.36 Q-9.52104 1314.59 -9.52104 1308.58 L-9.52104 1303.04 Z" fill="#000000" fill-rule="nonzero" fill-opacity="1" /><path clip-path="url(#clip850)" d="M5.40654 1254.69 L10.9447 1254.69 Q9.67157 1257.17 9.03499 1259.85 Q8.39842 1262.52 8.39842 1265.39 Q8.39842 1269.75 9.73522 1271.94 Q11.072 1274.11 13.7456 1274.11 Q15.7826 1274.11 16.9603 1272.55 Q18.1061 1270.99 19.1565 1266.28 L19.6021 1264.27 Q20.9389 1258.03 23.3897 1255.42 Q25.8086 1252.78 30.1691 1252.78 Q35.1344 1252.78 38.0308 1256.73 Q40.9272 1260.64 40.9272 1267.52 Q40.9272 1270.38 40.3543 1273.5 Q39.8132 1276.59 38.6992 1280.03 L32.6518 1280.03 Q34.3387 1276.78 35.198 1273.63 Q36.0256 1270.48 36.0256 1267.39 Q36.0256 1263.25 34.6251 1261.03 Q33.1929 1258.8 30.6147 1258.8 Q28.2276 1258.8 26.9545 1260.42 Q25.6813 1262.01 24.5037 1267.45 L24.0262 1269.49 Q22.8804 1274.93 20.5251 1277.35 Q18.138 1279.77 14.0002 1279.77 Q8.97134 1279.77 6.23408 1276.21 Q3.49683 1272.64 3.49683 1266.09 Q3.49683 1262.84 3.97426 1259.97 Q4.45169 1257.11 5.40654 1254.69 Z" fill="#000000" fill-rule="nonzero" fill-opacity="1" /><path clip-path="url(#clip850)" d="M8.46208 1229.64 Q8.46208 1234.35 12.1542 1237.09 Q15.8145 1239.83 22.212 1239.83 Q28.6095 1239.83 32.3017 1237.12 Q35.9619 1234.38 35.9619 1229.64 Q35.9619 1224.96 32.2698 1222.23 Q28.5777 1219.49 22.212 1219.49 Q15.8781 1219.49 12.186 1222.23 Q8.46208 1224.96 8.46208 1229.64 M3.49683 1229.64 Q3.49683 1222 8.46208 1217.64 Q13.4273 1213.28 22.212 1213.28 Q30.9649 1213.28 35.9619 1217.64 Q40.9272 1222 40.9272 1229.64 Q40.9272 1237.31 35.9619 1241.67 Q30.9649 1246 22.212 1246 Q13.4273 1246 8.46208 1241.67 Q3.49683 1237.31 3.49683 1229.64 Z" fill="#000000" fill-rule="nonzero" fill-opacity="1" /><path clip-path="url(#clip850)" d="M-9.52104 1203.57 L-9.52104 1197.72 L40.0042 1197.72 L40.0042 1203.57 L-9.52104 1203.57 Z" fill="#000000" fill-rule="nonzero" fill-opacity="1" /><path clip-path="url(#clip850)" d="M4.3562 1189.67 L4.3562 1183.46 L34.275 1172.32 L4.3562 1161.18 L4.3562 1154.97 L40.0042 1168.34 L40.0042 1176.3 L4.3562 1189.67 Z" fill="#000000" fill-rule="nonzero" fill-opacity="1" /><path clip-path="url(#clip850)" d="M20.7161 1116.4 L23.5806 1116.4 L23.5806 1143.32 Q29.6281 1142.94 32.8109 1139.69 Q35.9619 1136.42 35.9619 1130.59 Q35.9619 1127.22 35.1344 1124.07 Q34.3069 1120.88 32.6518 1117.77 L38.1899 1117.77 Q39.5267 1120.92 40.227 1124.23 Q40.9272 1127.54 40.9272 1130.94 Q40.9272 1139.47 35.9619 1144.47 Q30.9967 1149.43 22.5303 1149.43 Q13.7774 1149.43 8.65305 1144.72 Q3.49683 1139.98 3.49683 1131.96 Q3.49683 1124.77 8.1438 1120.6 Q12.7589 1116.4 20.7161 1116.4 M18.9973 1122.25 Q14.1912 1122.32 11.3266 1124.96 Q8.46208 1127.57 8.46208 1131.9 Q8.46208 1136.8 11.2312 1139.76 Q14.0002 1142.69 19.0292 1143.13 L18.9973 1122.25 Z" fill="#000000" fill-rule="nonzero" fill-opacity="1" /><path clip-path="url(#clip850)" d="M9.76705 1083.33 L-9.52104 1083.33 L-9.52104 1077.47 L40.0042 1077.47 L40.0042 1083.33 L34.657 1083.33 Q37.8398 1085.17 39.3994 1088.01 Q40.9272 1090.81 40.9272 1094.75 Q40.9272 1101.21 35.771 1105.29 Q30.6147 1109.33 22.212 1109.33 Q13.8093 1109.33 8.65305 1105.29 Q3.49683 1101.21 3.49683 1094.75 Q3.49683 1090.81 5.05643 1088.01 Q6.5842 1085.17 9.76705 1083.33 M22.212 1103.28 Q28.6732 1103.28 32.3653 1100.64 Q36.0256 1097.97 36.0256 1093.32 Q36.0256 1088.67 32.3653 1086 Q28.6732 1083.33 22.212 1083.33 Q15.7508 1083.33 12.0905 1086 Q8.39842 1088.67 8.39842 1093.32 Q8.39842 1097.97 12.0905 1100.64 Q15.7508 1103.28 22.212 1103.28 Z" fill="#000000" fill-rule="nonzero" fill-opacity="1" /><path clip-path="url(#clip850)" d="M4.3562 1044.69 L4.3562 1038.83 L40.0042 1038.83 L40.0042 1044.69 L4.3562 1044.69 M-9.52104 1044.69 L-9.52104 1038.83 L-2.10499 1038.83 L-2.10499 1044.69 L-9.52104 1044.69 Z" fill="#000000" fill-rule="nonzero" fill-opacity="1" /><path clip-path="url(#clip850)" d="M18.4881 996.944 L40.0042 996.944 L40.0042 1002.8 L18.679 1002.8 Q13.6183 1002.8 11.1038 1004.77 Q8.5894 1006.75 8.5894 1010.69 Q8.5894 1015.44 11.6131 1018.17 Q14.6368 1020.91 19.8567 1020.91 L40.0042 1020.91 L40.0042 1026.8 L4.3562 1026.8 L4.3562 1020.91 L9.89437 1020.91 Q6.67968 1018.81 5.08826 1015.98 Q3.49683 1013.11 3.49683 1009.39 Q3.49683 1003.25 7.31625 1000.09 Q11.1038 996.944 18.4881 996.944 Z" fill="#000000" fill-rule="nonzero" fill-opacity="1" /><path clip-path="url(#clip850)" d="M5.40654 962.537 L10.9447 962.537 Q9.67157 965.02 9.03499 967.694 Q8.39842 970.367 8.39842 973.232 Q8.39842 977.592 9.73522 979.788 Q11.072 981.953 13.7456 981.953 Q15.7826 981.953 16.9603 980.393 Q18.1061 978.834 19.1565 974.123 L19.6021 972.118 Q20.9389 965.879 23.3897 963.269 Q25.8086 960.628 30.1691 960.628 Q35.1344 960.628 38.0308 964.574 Q40.9272 968.489 40.9272 975.364 Q40.9272 978.229 40.3543 981.348 Q39.8132 984.435 38.6992 987.873 L32.6518 987.873 Q34.3387 984.626 35.198 981.475 Q36.0256 978.324 36.0256 975.237 Q36.0256 971.099 34.6251 968.871 Q33.1929 966.643 30.6147 966.643 Q28.2276 966.643 26.9545 968.266 Q25.6813 969.858 24.5037 975.301 L24.0262 977.338 Q22.8804 982.78 20.5251 985.199 Q18.138 987.618 14.0002 987.618 Q8.97134 987.618 6.23408 984.053 Q3.49683 980.489 3.49683 973.932 Q3.49683 970.685 3.97426 967.821 Q4.45169 964.956 5.40654 962.537 Z" fill="#000000" fill-rule="nonzero" fill-opacity="1" /><path clip-path="url(#clip850)" d="M-5.76527 945.509 L4.3562 945.509 L4.3562 933.446 L8.90768 933.446 L8.90768 945.509 L28.2594 945.509 Q32.6199 945.509 33.8613 944.331 Q35.1026 943.122 35.1026 939.462 L35.1026 933.446 L40.0042 933.446 L40.0042 939.462 Q40.0042 946.241 37.4897 948.819 Q34.9434 951.397 28.2594 951.397 L8.90768 951.397 L8.90768 955.694 L4.3562 955.694 L4.3562 951.397 L-5.76527 951.397 L-5.76527 945.509 Z" fill="#000000" fill-rule="nonzero" fill-opacity="1" /><path clip-path="url(#clip850)" d="M22.0847 909.543 Q22.0847 916.641 23.7079 919.378 Q25.3312 922.115 29.2461 922.115 Q32.3653 922.115 34.2114 920.078 Q36.0256 918.009 36.0256 914.476 Q36.0256 909.606 32.5881 906.678 Q29.1188 903.718 23.3897 903.718 L22.0847 903.718 L22.0847 909.543 M19.6657 897.862 L40.0042 897.862 L40.0042 903.718 L34.5933 903.718 Q37.8398 905.723 39.3994 908.715 Q40.9272 911.707 40.9272 916.036 Q40.9272 921.51 37.8716 924.757 Q34.7843 927.972 29.6281 927.972 Q23.6125 927.972 20.5569 923.961 Q17.5014 919.919 17.5014 911.93 L17.5014 903.718 L16.9285 903.718 Q12.8862 903.718 10.6901 906.392 Q8.46208 909.034 8.46208 913.84 Q8.46208 916.895 9.19414 919.792 Q9.92619 922.688 11.3903 925.362 L5.97946 925.362 Q4.73814 922.147 4.1334 919.123 Q3.49683 916.099 3.49683 913.235 Q3.49683 905.501 7.50723 901.681 Q11.5176 897.862 19.6657 897.862 Z" fill="#000000" fill-rule="nonzero" fill-opacity="1" /><path clip-path="url(#clip850)" d="M18.4881 856.166 L40.0042 856.166 L40.0042 862.023 L18.679 862.023 Q13.6183 862.023 11.1038 863.996 Q8.5894 865.97 8.5894 869.916 Q8.5894 874.659 11.6131 877.396 Q14.6368 880.133 19.8567 880.133 L40.0042 880.133 L40.0042 886.022 L4.3562 886.022 L4.3562 880.133 L9.89437 880.133 Q6.67968 878.033 5.08826 875.2 Q3.49683 872.335 3.49683 868.611 Q3.49683 862.468 7.31625 859.317 Q11.1038 856.166 18.4881 856.166 Z" fill="#000000" fill-rule="nonzero" fill-opacity="1" /><path clip-path="url(#clip850)" d="M5.72483 818.831 L11.1993 818.831 Q9.83071 821.314 9.16231 823.829 Q8.46208 826.311 8.46208 828.857 Q8.46208 834.555 12.0905 837.706 Q15.6872 840.857 22.212 840.857 Q28.7369 840.857 32.3653 837.706 Q35.9619 834.555 35.9619 828.857 Q35.9619 826.311 35.2935 823.829 Q34.5933 821.314 33.2247 818.831 L38.6355 818.831 Q39.7814 821.282 40.3543 823.924 Q40.9272 826.534 40.9272 829.494 Q40.9272 837.547 35.8664 842.289 Q30.8057 847.032 22.212 847.032 Q13.491 847.032 8.49391 842.257 Q3.49683 837.451 3.49683 829.112 Q3.49683 826.407 4.06974 823.829 Q4.61083 821.25 5.72483 818.831 Z" fill="#000000" fill-rule="nonzero" fill-opacity="1" /><path clip-path="url(#clip850)" d="M20.7161 778.155 L23.5806 778.155 L23.5806 805.082 Q29.6281 804.7 32.8109 801.453 Q35.9619 798.175 35.9619 792.35 Q35.9619 788.976 35.1344 785.825 Q34.3069 782.642 32.6518 779.523 L38.1899 779.523 Q39.5267 782.674 40.227 785.984 Q40.9272 789.295 40.9272 792.7 Q40.9272 801.23 35.9619 806.227 Q30.9967 811.193 22.5303 811.193 Q13.7774 811.193 8.65305 806.482 Q3.49683 801.74 3.49683 793.719 Q3.49683 786.526 8.1438 782.356 Q12.7589 778.155 20.7161 778.155 M18.9973 784.011 Q14.1912 784.075 11.3266 786.716 Q8.46208 789.326 8.46208 793.655 Q8.46208 798.557 11.2312 801.517 Q14.0002 804.445 19.0292 804.891 L18.9973 784.011 Z" fill="#000000" fill-rule="nonzero" fill-opacity="1" /><path clip-path="url(#clip850)" d="M5.40654 745.817 L10.9447 745.817 Q9.67157 748.299 9.03499 750.973 Q8.39842 753.647 8.39842 756.511 Q8.39842 760.872 9.73522 763.068 Q11.072 765.232 13.7456 765.232 Q15.7826 765.232 16.9603 763.673 Q18.1061 762.113 19.1565 757.402 L19.6021 755.397 Q20.9389 749.159 23.3897 746.549 Q25.8086 743.907 30.1691 743.907 Q35.1344 743.907 38.0308 747.854 Q40.9272 751.769 40.9272 758.644 Q40.9272 761.508 40.3543 764.627 Q39.8132 767.715 38.6992 771.152 L32.6518 771.152 Q34.3387 767.906 35.198 764.755 Q36.0256 761.604 36.0256 758.516 Q36.0256 754.379 34.6251 752.151 Q33.1929 749.923 30.6147 749.923 Q28.2276 749.923 26.9545 751.546 Q25.6813 753.137 24.5037 758.58 L24.0262 760.617 Q22.8804 766.06 20.5251 768.479 Q18.138 770.898 14.0002 770.898 Q8.97134 770.898 6.23408 767.333 Q3.49683 763.768 3.49683 757.211 Q3.49683 753.965 3.97426 751.1 Q4.45169 748.236 5.40654 745.817 Z" fill="#000000" fill-rule="nonzero" fill-opacity="1" /><path clip-path="url(#clip850)" d="M7.66637 672.293 L16.4829 702.848 L25.2039 672.293 L30.8694 672.293 L19.1565 713.097 L13.7456 713.097 L2.06455 672.293 L7.66637 672.293 M34.5933 713.097 L34.5933 672.293 L40.0042 672.293 L40.0042 713.097 L34.5933 713.097 Z" fill="#000000" fill-rule="nonzero" fill-opacity="1" /><path clip-path="url(#clip850)" d="M33.5111 621.049 Q35.0389 619.903 35.0389 616.466 L35.0389 613.633 L40.0042 613.633 L40.0042 617.166 Q40.0042 622.895 36.9486 625.505 Q33.8294 628.115 27.0818 628.115 L10.2127 628.115 L10.2127 641.483 L4.3562 641.483 L4.3562 608.604 L10.2127 608.604 L10.2127 622.131 L27.4319 622.131 Q32.047 622.131 33.5111 621.049 Z" fill="#000000" fill-rule="nonzero" fill-opacity="1" /><path clip-path="url(#clip850)" d="M941.839 18.8205 L941.839 41.5461 L952.128 41.5461 Q957.84 41.5461 960.959 38.5889 Q964.078 35.6318 964.078 30.163 Q964.078 24.7348 960.959 21.7777 Q957.84 18.8205 952.128 18.8205 L941.839 18.8205 M933.656 12.096 L952.128 12.096 Q962.296 12.096 967.481 16.714 Q972.707 21.2916 972.707 30.163 Q972.707 39.1155 967.481 43.6931 Q962.296 48.2706 952.128 48.2706 L941.839 48.2706 L941.839 72.576 L933.656 72.576 L933.656 12.096 Z" fill="#000000" fill-rule="nonzero" fill-opacity="1" /><path clip-path="url(#clip850)" d="M1019.21 48.0275 L1019.21 51.6733 L984.94 51.6733 Q985.426 59.3701 989.558 63.421 Q993.731 67.4314 1001.14 67.4314 Q1005.44 67.4314 1009.45 66.3781 Q1013.5 65.3249 1017.47 63.2184 L1017.47 70.267 Q1013.46 71.9684 1009.25 72.8596 Q1005.03 73.7508 1000.7 73.7508 Q989.842 73.7508 983.482 67.4314 Q977.163 61.1119 977.163 50.3365 Q977.163 39.1965 983.158 32.6746 Q989.194 26.1121 999.402 26.1121 Q1008.56 26.1121 1013.86 32.0264 Q1019.21 37.9003 1019.21 48.0275 M1011.76 45.84 Q1011.68 39.7232 1008.31 36.0774 Q1004.99 32.4315 999.483 32.4315 Q993.245 32.4315 989.477 35.9558 Q985.751 39.4801 985.183 45.8805 L1011.76 45.84 Z" fill="#000000" fill-rule="nonzero" fill-opacity="1" /><path clip-path="url(#clip850)" d="M1057.74 34.1734 Q1056.48 33.4443 1054.98 33.1202 Q1053.52 32.7556 1051.74 32.7556 Q1045.42 32.7556 1042.02 36.8875 Q1038.66 40.9789 1038.66 48.6757 L1038.66 72.576 L1031.16 72.576 L1031.16 27.2059 L1038.66 27.2059 L1038.66 34.2544 Q1041 30.1225 1044.77 28.1376 Q1048.54 26.1121 1053.93 26.1121 Q1054.7 26.1121 1055.63 26.2337 Q1056.56 26.3147 1057.69 26.5172 L1057.74 34.1734 Z" fill="#000000" fill-rule="nonzero" fill-opacity="1" /><path clip-path="url(#clip850)" d="M1088.52 9.54393 L1088.52 15.7418 L1081.39 15.7418 Q1077.38 15.7418 1075.8 17.3622 Q1074.26 18.9825 1074.26 23.1955 L1074.26 27.2059 L1086.54 27.2059 L1086.54 32.9987 L1074.26 32.9987 L1074.26 72.576 L1066.77 72.576 L1066.77 32.9987 L1059.64 32.9987 L1059.64 27.2059 L1066.77 27.2059 L1066.77 24.0462 Q1066.77 16.471 1070.29 13.0277 Q1073.82 9.54393 1081.47 9.54393 L1088.52 9.54393 Z" fill="#000000" fill-rule="nonzero" fill-opacity="1" /><path clip-path="url(#clip850)" d="M1112.34 32.4315 Q1106.35 32.4315 1102.86 37.1306 Q1099.38 41.7891 1099.38 49.9314 Q1099.38 58.0738 1102.82 62.7728 Q1106.31 67.4314 1112.34 67.4314 Q1118.3 67.4314 1121.78 62.7323 Q1125.26 58.0333 1125.26 49.9314 Q1125.26 41.8701 1121.78 37.1711 Q1118.3 32.4315 1112.34 32.4315 M1112.34 26.1121 Q1122.06 26.1121 1127.61 32.4315 Q1133.16 38.7509 1133.16 49.9314 Q1133.16 61.0714 1127.61 67.4314 Q1122.06 73.7508 1112.34 73.7508 Q1102.58 73.7508 1097.03 67.4314 Q1091.52 61.0714 1091.52 49.9314 Q1091.52 38.7509 1097.03 32.4315 Q1102.58 26.1121 1112.34 26.1121 Z" fill="#000000" fill-rule="nonzero" fill-opacity="1" /><path clip-path="url(#clip850)" d="M1171.81 34.1734 Q1170.55 33.4443 1169.05 33.1202 Q1167.6 32.7556 1165.81 32.7556 Q1159.49 32.7556 1156.09 36.8875 Q1152.73 40.9789 1152.73 48.6757 L1152.73 72.576 L1145.23 72.576 L1145.23 27.2059 L1152.73 27.2059 L1152.73 34.2544 Q1155.08 30.1225 1158.85 28.1376 Q1162.61 26.1121 1168 26.1121 Q1168.77 26.1121 1169.7 26.2337 Q1170.63 26.3147 1171.77 26.5172 L1171.81 34.1734 Z" fill="#000000" fill-rule="nonzero" fill-opacity="1" /><path clip-path="url(#clip850)" d="M1213.49 35.9153 Q1216.29 30.8922 1220.18 28.5022 Q1224.07 26.1121 1229.33 26.1121 Q1236.42 26.1121 1240.27 31.0947 Q1244.12 36.0368 1244.12 45.1919 L1244.12 72.576 L1236.62 72.576 L1236.62 45.4349 Q1236.62 38.913 1234.31 35.7533 Q1232.01 32.5936 1227.27 32.5936 Q1221.47 32.5936 1218.11 36.4419 Q1214.75 40.2903 1214.75 46.9338 L1214.75 72.576 L1207.25 72.576 L1207.25 45.4349 Q1207.25 38.8725 1204.94 35.7533 Q1202.64 32.5936 1197.82 32.5936 Q1192.1 32.5936 1188.74 36.4824 Q1185.38 40.3308 1185.38 46.9338 L1185.38 72.576 L1177.88 72.576 L1177.88 27.2059 L1185.38 27.2059 L1185.38 34.2544 Q1187.93 30.082 1191.5 28.0971 Q1195.06 26.1121 1199.96 26.1121 Q1204.9 26.1121 1208.35 28.6237 Q1211.83 31.1352 1213.49 35.9153 Z" fill="#000000" fill-rule="nonzero" fill-opacity="1" /><path clip-path="url(#clip850)" d="M1279.6 49.7694 Q1270.57 49.7694 1267.09 51.8354 Q1263.6 53.9013 1263.6 58.8839 Q1263.6 62.8538 1266.19 65.2034 Q1268.83 67.5124 1273.32 67.5124 Q1279.52 67.5124 1283.25 63.1374 Q1287.02 58.7219 1287.02 51.4303 L1287.02 49.7694 L1279.6 49.7694 M1294.47 46.6907 L1294.47 72.576 L1287.02 72.576 L1287.02 65.6895 Q1284.46 69.8214 1280.66 71.8063 Q1276.85 73.7508 1271.34 73.7508 Q1264.37 73.7508 1260.24 69.8619 Q1256.15 65.9325 1256.15 59.3701 Q1256.15 51.7138 1261.25 47.825 Q1266.4 43.9361 1276.56 43.9361 L1287.02 43.9361 L1287.02 43.2069 Q1287.02 38.0623 1283.61 35.2672 Q1280.25 32.4315 1274.13 32.4315 Q1270.25 32.4315 1266.56 33.3632 Q1262.87 34.295 1259.47 36.1584 L1259.47 29.2718 Q1263.56 27.692 1267.41 26.9223 Q1271.26 26.1121 1274.9 26.1121 Q1284.75 26.1121 1289.61 31.2163 Q1294.47 36.3204 1294.47 46.6907 Z" fill="#000000" fill-rule="nonzero" fill-opacity="1" /><path clip-path="url(#clip850)" d="M1347.54 45.1919 L1347.54 72.576 L1340.08 72.576 L1340.08 45.4349 Q1340.08 38.994 1337.57 35.7938 Q1335.06 32.5936 1330.04 32.5936 Q1324 32.5936 1320.52 36.4419 Q1317.03 40.2903 1317.03 46.9338 L1317.03 72.576 L1309.54 72.576 L1309.54 27.2059 L1317.03 27.2059 L1317.03 34.2544 Q1319.71 30.163 1323.31 28.1376 Q1326.96 26.1121 1331.7 26.1121 Q1339.52 26.1121 1343.53 30.9732 Q1347.54 35.7938 1347.54 45.1919 Z" fill="#000000" fill-rule="nonzero" fill-opacity="1" /><path clip-path="url(#clip850)" d="M1395.05 28.9478 L1395.05 35.9153 Q1391.89 34.1734 1388.69 33.3227 Q1385.53 32.4315 1382.29 32.4315 Q1375.04 32.4315 1371.03 37.0496 Q1367.02 41.6271 1367.02 49.9314 Q1367.02 58.2358 1371.03 62.8538 Q1375.04 67.4314 1382.29 67.4314 Q1385.53 67.4314 1388.69 66.5807 Q1391.89 65.6895 1395.05 63.9476 L1395.05 70.8341 Q1391.93 72.2924 1388.57 73.0216 Q1385.25 73.7508 1381.48 73.7508 Q1371.23 73.7508 1365.2 67.3098 Q1359.16 60.8689 1359.16 49.9314 Q1359.16 38.832 1365.24 32.472 Q1371.36 26.1121 1381.97 26.1121 Q1385.41 26.1121 1388.69 26.8413 Q1391.98 27.5299 1395.05 28.9478 Z" fill="#000000" fill-rule="nonzero" fill-opacity="1" /><path clip-path="url(#clip850)" d="M1446.82 48.0275 L1446.82 51.6733 L1412.55 51.6733 Q1413.04 59.3701 1417.17 63.421 Q1421.34 67.4314 1428.76 67.4314 Q1433.05 67.4314 1437.06 66.3781 Q1441.11 65.3249 1445.08 63.2184 L1445.08 70.267 Q1441.07 71.9684 1436.86 72.8596 Q1432.65 73.7508 1428.31 73.7508 Q1417.46 73.7508 1411.1 67.4314 Q1404.78 61.1119 1404.78 50.3365 Q1404.78 39.1965 1410.77 32.6746 Q1416.81 26.1121 1427.02 26.1121 Q1436.17 26.1121 1441.48 32.0264 Q1446.82 37.9003 1446.82 48.0275 M1439.37 45.84 Q1439.29 39.7232 1435.93 36.0774 Q1432.61 32.4315 1427.1 32.4315 Q1420.86 32.4315 1417.09 35.9558 Q1413.36 39.4801 1412.8 45.8805 L1439.37 45.84 Z" fill="#000000" fill-rule="nonzero" fill-opacity="1" /><path clip-path="url(#clip850)" d="M1492.64 65.7705 L1492.64 89.8329 L1485.15 89.8329 L1485.15 27.2059 L1492.64 27.2059 L1492.64 34.0924 Q1494.99 30.0415 1498.55 28.0971 Q1502.16 26.1121 1507.14 26.1121 Q1515.41 26.1121 1520.55 32.6746 Q1525.74 39.2371 1525.74 49.9314 Q1525.74 60.6258 1520.55 67.1883 Q1515.41 73.7508 1507.14 73.7508 Q1502.16 73.7508 1498.55 71.8063 Q1494.99 69.8214 1492.64 65.7705 M1518 49.9314 Q1518 41.7081 1514.6 37.0496 Q1511.23 32.3505 1505.32 32.3505 Q1499.41 32.3505 1496 37.0496 Q1492.64 41.7081 1492.64 49.9314 Q1492.64 58.1548 1496 62.8538 Q1499.41 67.5124 1505.32 67.5124 Q1511.23 67.5124 1514.6 62.8538 Q1518 58.1548 1518 49.9314 Z" fill="#000000" fill-rule="nonzero" fill-opacity="1" /><path clip-path="url(#clip850)" d="M1564.38 34.1734 Q1563.13 33.4443 1561.63 33.1202 Q1560.17 32.7556 1558.39 32.7556 Q1552.07 32.7556 1548.66 36.8875 Q1545.3 40.9789 1545.3 48.6757 L1545.3 72.576 L1537.81 72.576 L1537.81 27.2059 L1545.3 27.2059 L1545.3 34.2544 Q1547.65 30.1225 1551.42 28.1376 Q1555.19 26.1121 1560.57 26.1121 Q1561.34 26.1121 1562.28 26.2337 Q1563.21 26.3147 1564.34 26.5172 L1564.38 34.1734 Z" fill="#000000" fill-rule="nonzero" fill-opacity="1" /><path clip-path="url(#clip850)" d="M1587.96 32.4315 Q1581.96 32.4315 1578.48 37.1306 Q1575 41.7891 1575 49.9314 Q1575 58.0738 1578.44 62.7728 Q1581.92 67.4314 1587.96 67.4314 Q1593.91 67.4314 1597.4 62.7323 Q1600.88 58.0333 1600.88 49.9314 Q1600.88 41.8701 1597.4 37.1711 Q1593.91 32.4315 1587.96 32.4315 M1587.96 26.1121 Q1597.68 26.1121 1603.23 32.4315 Q1608.78 38.7509 1608.78 49.9314 Q1608.78 61.0714 1603.23 67.4314 Q1597.68 73.7508 1587.96 73.7508 Q1578.2 73.7508 1572.65 67.4314 Q1567.14 61.0714 1567.14 49.9314 Q1567.14 38.7509 1572.65 32.4315 Q1578.2 26.1121 1587.96 26.1121 Z" fill="#000000" fill-rule="nonzero" fill-opacity="1" /><path clip-path="url(#clip850)" d="M1644.1 9.54393 L1644.1 15.7418 L1636.97 15.7418 Q1632.96 15.7418 1631.38 17.3622 Q1629.84 18.9825 1629.84 23.1955 L1629.84 27.2059 L1642.12 27.2059 L1642.12 32.9987 L1629.84 32.9987 L1629.84 72.576 L1622.35 72.576 L1622.35 32.9987 L1615.22 32.9987 L1615.22 27.2059 L1622.35 27.2059 L1622.35 24.0462 Q1622.35 16.471 1625.87 13.0277 Q1629.4 9.54393 1637.05 9.54393 L1644.1 9.54393 Z" fill="#000000" fill-rule="nonzero" fill-opacity="1" /><path clip-path="url(#clip850)" d="M1650.34 27.2059 L1657.8 27.2059 L1657.8 72.576 L1650.34 72.576 L1650.34 27.2059 M1650.34 9.54393 L1657.8 9.54393 L1657.8 18.9825 L1650.34 18.9825 L1650.34 9.54393 Z" fill="#000000" fill-rule="nonzero" fill-opacity="1" /><path clip-path="url(#clip850)" d="M1673.39 9.54393 L1680.85 9.54393 L1680.85 72.576 L1673.39 72.576 L1673.39 9.54393 Z" fill="#000000" fill-rule="nonzero" fill-opacity="1" /><path clip-path="url(#clip850)" d="M1735.25 48.0275 L1735.25 51.6733 L1700.98 51.6733 Q1701.46 59.3701 1705.6 63.421 Q1709.77 67.4314 1717.18 67.4314 Q1721.48 67.4314 1725.49 66.3781 Q1729.54 65.3249 1733.51 63.2184 L1733.51 70.267 Q1729.5 71.9684 1725.28 72.8596 Q1721.07 73.7508 1716.74 73.7508 Q1705.88 73.7508 1699.52 67.4314 Q1693.2 61.1119 1693.2 50.3365 Q1693.2 39.1965 1699.2 32.6746 Q1705.23 26.1121 1715.44 26.1121 Q1724.59 26.1121 1729.9 32.0264 Q1735.25 37.9003 1735.25 48.0275 M1727.8 45.84 Q1727.71 39.7232 1724.35 36.0774 Q1721.03 32.4315 1715.52 32.4315 Q1709.28 32.4315 1705.52 35.9558 Q1701.79 39.4801 1701.22 45.8805 L1727.8 45.84 Z" fill="#000000" fill-rule="nonzero" fill-opacity="1" /><path clip-path="url(#clip850)" d="M1770.09 46.9338 L1844.95 46.9338 L1844.95 52.7671 L1770.09 52.7671 L1770.09 46.9338 Z" fill="#000000" fill-rule="nonzero" fill-opacity="1" /><path clip-path="url(#clip850)" d="M1924.75 63.9476 L1924.75 47.7034 L1911.38 47.7034 L1911.38 40.9789 L1932.85 40.9789 L1932.85 66.9452 Q1928.11 70.3075 1922.4 72.0494 Q1916.69 73.7508 1910.21 73.7508 Q1896.03 73.7508 1888.01 65.4869 Q1880.03 57.1826 1880.03 42.3968 Q1880.03 27.5705 1888.01 19.3066 Q1896.03 11.0023 1910.21 11.0023 Q1916.12 11.0023 1921.43 12.4606 Q1926.78 13.9189 1931.27 16.7545 L1931.27 25.464 Q1926.74 21.6156 1921.63 19.6712 Q1916.53 17.7268 1910.9 17.7268 Q1899.8 17.7268 1894.21 23.9246 Q1888.66 30.1225 1888.66 42.3968 Q1888.66 54.6305 1894.21 60.8284 Q1899.8 67.0263 1910.9 67.0263 Q1915.23 67.0263 1918.63 66.2971 Q1922.04 65.5274 1924.75 63.9476 Z" fill="#000000" fill-rule="nonzero" fill-opacity="1" /><path clip-path="url(#clip850)" d="M1947.48 9.54393 L1954.93 9.54393 L1954.93 72.576 L1947.48 72.576 L1947.48 9.54393 Z" fill="#000000" fill-rule="nonzero" fill-opacity="1" /><path clip-path="url(#clip850)" d="M1988.11 32.4315 Q1982.11 32.4315 1978.63 37.1306 Q1975.14 41.7891 1975.14 49.9314 Q1975.14 58.0738 1978.59 62.7728 Q1982.07 67.4314 1988.11 67.4314 Q1994.06 67.4314 1997.54 62.7323 Q2001.03 58.0333 2001.03 49.9314 Q2001.03 41.8701 1997.54 37.1711 Q1994.06 32.4315 1988.11 32.4315 M1988.11 26.1121 Q1997.83 26.1121 2003.38 32.4315 Q2008.93 38.7509 2008.93 49.9314 Q2008.93 61.0714 2003.38 67.4314 Q1997.83 73.7508 1988.11 73.7508 Q1978.34 73.7508 1972.79 67.4314 Q1967.28 61.0714 1967.28 49.9314 Q1967.28 38.7509 1972.79 32.4315 Q1978.34 26.1121 1988.11 26.1121 Z" fill="#000000" fill-rule="nonzero" fill-opacity="1" /><path clip-path="url(#clip850)" d="M2053.85 49.9314 Q2053.85 41.7081 2050.45 37.0496 Q2047.09 32.3505 2041.17 32.3505 Q2035.26 32.3505 2031.86 37.0496 Q2028.49 41.7081 2028.49 49.9314 Q2028.49 58.1548 2031.86 62.8538 Q2035.26 67.5124 2041.17 67.5124 Q2047.09 67.5124 2050.45 62.8538 Q2053.85 58.1548 2053.85 49.9314 M2028.49 34.0924 Q2030.84 30.0415 2034.41 28.0971 Q2038.01 26.1121 2043 26.1121 Q2051.26 26.1121 2056.4 32.6746 Q2061.59 39.2371 2061.59 49.9314 Q2061.59 60.6258 2056.4 67.1883 Q2051.26 73.7508 2043 73.7508 Q2038.01 73.7508 2034.41 71.8063 Q2030.84 69.8214 2028.49 65.7705 L2028.49 72.576 L2021 72.576 L2021 9.54393 L2028.49 9.54393 L2028.49 34.0924 Z" fill="#000000" fill-rule="nonzero" fill-opacity="1" /><path clip-path="url(#clip850)" d="M2094.56 49.7694 Q2085.53 49.7694 2082.05 51.8354 Q2078.56 53.9013 2078.56 58.8839 Q2078.56 62.8538 2081.16 65.2034 Q2083.79 67.5124 2088.29 67.5124 Q2094.48 67.5124 2098.21 63.1374 Q2101.98 58.7219 2101.98 51.4303 L2101.98 49.7694 L2094.56 49.7694 M2109.43 46.6907 L2109.43 72.576 L2101.98 72.576 L2101.98 65.6895 Q2099.43 69.8214 2095.62 71.8063 Q2091.81 73.7508 2086.3 73.7508 Q2079.33 73.7508 2075.2 69.8619 Q2071.11 65.9325 2071.11 59.3701 Q2071.11 51.7138 2076.21 47.825 Q2081.36 43.9361 2091.53 43.9361 L2101.98 43.9361 L2101.98 43.2069 Q2101.98 38.0623 2098.57 35.2672 Q2095.21 32.4315 2089.1 32.4315 Q2085.21 32.4315 2081.52 33.3632 Q2077.83 34.295 2074.43 36.1584 L2074.43 29.2718 Q2078.52 27.692 2082.37 26.9223 Q2086.22 26.1121 2089.87 26.1121 Q2099.71 26.1121 2104.57 31.2163 Q2109.43 36.3204 2109.43 46.6907 Z" fill="#000000" fill-rule="nonzero" fill-opacity="1" /><path clip-path="url(#clip850)" d="M2124.78 9.54393 L2132.24 9.54393 L2132.24 72.576 L2124.78 72.576 L2124.78 9.54393 Z" fill="#000000" fill-rule="nonzero" fill-opacity="1" /><path clip-path="url(#clip850)" d="M2209.53 35.9153 Q2212.32 30.8922 2216.21 28.5022 Q2220.1 26.1121 2225.37 26.1121 Q2232.46 26.1121 2236.31 31.0947 Q2240.15 36.0368 2240.15 45.1919 L2240.15 72.576 L2232.66 72.576 L2232.66 45.4349 Q2232.66 38.913 2230.35 35.7533 Q2228.04 32.5936 2223.3 32.5936 Q2217.51 32.5936 2214.15 36.4419 Q2210.78 40.2903 2210.78 46.9338 L2210.78 72.576 L2203.29 72.576 L2203.29 45.4349 Q2203.29 38.8725 2200.98 35.7533 Q2198.67 32.5936 2193.85 32.5936 Q2188.14 32.5936 2184.78 36.4824 Q2181.42 40.3308 2181.42 46.9338 L2181.42 72.576 L2173.92 72.576 L2173.92 27.2059 L2181.42 27.2059 L2181.42 34.2544 Q2183.97 30.082 2187.53 28.0971 Q2191.1 26.1121 2196 26.1121 Q2200.94 26.1121 2204.38 28.6237 Q2207.87 31.1352 2209.53 35.9153 Z" fill="#000000" fill-rule="nonzero" fill-opacity="1" /><path clip-path="url(#clip850)" d="M2272.6 32.4315 Q2266.61 32.4315 2263.12 37.1306 Q2259.64 41.7891 2259.64 49.9314 Q2259.64 58.0738 2263.08 62.7728 Q2266.57 67.4314 2272.6 67.4314 Q2278.56 67.4314 2282.04 62.7323 Q2285.52 58.0333 2285.52 49.9314 Q2285.52 41.8701 2282.04 37.1711 Q2278.56 32.4315 2272.6 32.4315 M2272.6 26.1121 Q2282.32 26.1121 2287.87 32.4315 Q2293.42 38.7509 2293.42 49.9314 Q2293.42 61.0714 2287.87 67.4314 Q2282.32 73.7508 2272.6 73.7508 Q2262.84 73.7508 2257.29 67.4314 Q2251.78 61.0714 2251.78 49.9314 Q2251.78 38.7509 2257.29 32.4315 Q2262.84 26.1121 2272.6 26.1121 Z" fill="#000000" fill-rule="nonzero" fill-opacity="1" /><path clip-path="url(#clip850)" d="M2335.63 34.0924 L2335.63 9.54393 L2343.09 9.54393 L2343.09 72.576 L2335.63 72.576 L2335.63 65.7705 Q2333.28 69.8214 2329.68 71.8063 Q2326.11 73.7508 2321.09 73.7508 Q2312.87 73.7508 2307.68 67.1883 Q2302.54 60.6258 2302.54 49.9314 Q2302.54 39.2371 2307.68 32.6746 Q2312.87 26.1121 2321.09 26.1121 Q2326.11 26.1121 2329.68 28.0971 Q2333.28 30.0415 2335.63 34.0924 M2310.23 49.9314 Q2310.23 58.1548 2313.6 62.8538 Q2317 67.5124 2322.91 67.5124 Q2328.83 67.5124 2332.23 62.8538 Q2335.63 58.1548 2335.63 49.9314 Q2335.63 41.7081 2332.23 37.0496 Q2328.83 32.3505 2322.91 32.3505 Q2317 32.3505 2313.6 37.0496 Q2310.23 41.7081 2310.23 49.9314 Z" fill="#000000" fill-rule="nonzero" fill-opacity="1" /><path clip-path="url(#clip850)" d="M2397.25 48.0275 L2397.25 51.6733 L2362.98 51.6733 Q2363.46 59.3701 2367.59 63.421 Q2371.77 67.4314 2379.18 67.4314 Q2383.47 67.4314 2387.48 66.3781 Q2391.54 65.3249 2395.51 63.2184 L2395.51 70.267 Q2391.5 71.9684 2387.28 72.8596 Q2383.07 73.7508 2378.73 73.7508 Q2367.88 73.7508 2361.52 67.4314 Q2355.2 61.1119 2355.2 50.3365 Q2355.2 39.1965 2361.19 32.6746 Q2367.23 26.1121 2377.44 26.1121 Q2386.59 26.1121 2391.9 32.0264 Q2397.25 37.9003 2397.25 48.0275 M2389.79 45.84 Q2389.71 39.7232 2386.35 36.0774 Q2383.03 32.4315 2377.52 32.4315 Q2371.28 32.4315 2367.51 35.9558 Q2363.79 39.4801 2363.22 45.8805 L2389.79 45.84 Z" fill="#000000" fill-rule="nonzero" fill-opacity="1" /><path clip-path="url(#clip850)" d="M2409.48 9.54393 L2416.94 9.54393 L2416.94 72.576 L2409.48 72.576 L2409.48 9.54393 Z" fill="#000000" fill-rule="nonzero" fill-opacity="1" /><path clip-path="url(#clip850)" d="M2461.45 28.5427 L2461.45 35.5912 Q2458.29 33.9709 2454.89 33.1607 Q2451.49 32.3505 2447.84 32.3505 Q2442.29 32.3505 2439.5 34.0519 Q2436.74 35.7533 2436.74 39.156 Q2436.74 41.7486 2438.73 43.2475 Q2440.71 44.7058 2446.71 46.0426 L2449.26 46.6097 Q2457.2 48.3111 2460.52 51.4303 Q2463.88 54.509 2463.88 60.0587 Q2463.88 66.3781 2458.86 70.0644 Q2453.88 73.7508 2445.13 73.7508 Q2441.48 73.7508 2437.51 73.0216 Q2433.58 72.3329 2429.21 70.9151 L2429.21 63.2184 Q2433.34 65.3654 2437.35 66.4591 Q2441.36 67.5124 2445.29 67.5124 Q2450.56 67.5124 2453.39 65.73 Q2456.23 63.9071 2456.23 60.6258 Q2456.23 57.5877 2454.16 55.9673 Q2452.14 54.3469 2445.21 52.8481 L2442.62 52.2405 Q2435.69 50.7821 2432.61 47.7845 Q2429.53 44.7463 2429.53 39.4801 Q2429.53 33.0797 2434.07 29.5959 Q2438.61 26.1121 2446.95 26.1121 Q2451.08 26.1121 2454.73 26.7198 Q2458.38 27.3274 2461.45 28.5427 Z" fill="#000000" fill-rule="nonzero" fill-opacity="1" /><path clip-path="url(#clip850)" d="M2552.48 28.0161 L2533.97 46.6097 L2552.48 65.1223 L2547.66 70.0239 L2529.06 51.4303 L2510.47 70.0239 L2505.69 65.1223 L2524.16 46.6097 L2505.69 28.0161 L2510.47 23.1145 L2529.06 41.7081 L2547.66 23.1145 L2552.48 28.0161 Z" fill="#000000" fill-rule="nonzero" fill-opacity="1" /><path clip-path="url(#clip850)" d="M2626.93 28.5427 L2626.93 35.5912 Q2623.77 33.9709 2620.37 33.1607 Q2616.97 32.3505 2613.32 32.3505 Q2607.77 32.3505 2604.98 34.0519 Q2602.22 35.7533 2602.22 39.156 Q2602.22 41.7486 2604.21 43.2475 Q2606.19 44.7058 2612.19 46.0426 L2614.74 46.6097 Q2622.68 48.3111 2626 51.4303 Q2629.36 54.509 2629.36 60.0587 Q2629.36 66.3781 2624.34 70.0644 Q2619.36 73.7508 2610.61 73.7508 Q2606.96 73.7508 2602.99 73.0216 Q2599.06 72.3329 2594.69 70.9151 L2594.69 63.2184 Q2598.82 65.3654 2602.83 66.4591 Q2606.84 67.5124 2610.77 67.5124 Q2616.04 67.5124 2618.87 65.73 Q2621.71 63.9071 2621.71 60.6258 Q2621.71 57.5877 2619.64 55.9673 Q2617.62 54.3469 2610.69 52.8481 L2608.1 52.2405 Q2601.17 50.7821 2598.09 47.7845 Q2595.01 44.7463 2595.01 39.4801 Q2595.01 33.0797 2599.55 29.5959 Q2604.09 26.1121 2612.43 26.1121 Q2616.56 26.1121 2620.21 26.7198 Q2623.86 27.3274 2626.93 28.5427 Z" fill="#000000" fill-rule="nonzero" fill-opacity="1" /><path clip-path="url(#clip850)" d="M2658.81 32.4315 Q2652.82 32.4315 2649.34 37.1306 Q2645.85 41.7891 2645.85 49.9314 Q2645.85 58.0738 2649.29 62.7728 Q2652.78 67.4314 2658.81 67.4314 Q2664.77 67.4314 2668.25 62.7323 Q2671.74 58.0333 2671.74 49.9314 Q2671.74 41.8701 2668.25 37.1711 Q2664.77 32.4315 2658.81 32.4315 M2658.81 26.1121 Q2668.54 26.1121 2674.09 32.4315 Q2679.64 38.7509 2679.64 49.9314 Q2679.64 61.0714 2674.09 67.4314 Q2668.54 73.7508 2658.81 73.7508 Q2649.05 73.7508 2643.5 67.4314 Q2637.99 61.0714 2637.99 49.9314 Q2637.99 38.7509 2643.5 32.4315 Q2649.05 26.1121 2658.81 26.1121 Z" fill="#000000" fill-rule="nonzero" fill-opacity="1" /><path clip-path="url(#clip850)" d="M2691.99 9.54393 L2699.45 9.54393 L2699.45 72.576 L2691.99 72.576 L2691.99 9.54393 Z" fill="#000000" fill-rule="nonzero" fill-opacity="1" /><path clip-path="url(#clip850)" d="M2709.69 27.2059 L2717.59 27.2059 L2731.77 65.2844 L2745.95 27.2059 L2753.85 27.2059 L2736.83 72.576 L2726.71 72.576 L2709.69 27.2059 Z" fill="#000000" fill-rule="nonzero" fill-opacity="1" /><path clip-path="url(#clip850)" d="M2802.95 48.0275 L2802.95 51.6733 L2768.68 51.6733 Q2769.16 59.3701 2773.29 63.421 Q2777.47 67.4314 2784.88 67.4314 Q2789.17 67.4314 2793.18 66.3781 Q2797.23 65.3249 2801.2 63.2184 L2801.2 70.267 Q2797.19 71.9684 2792.98 72.8596 Q2788.77 73.7508 2784.43 73.7508 Q2773.58 73.7508 2767.22 67.4314 Q2760.9 61.1119 2760.9 50.3365 Q2760.9 39.1965 2766.89 32.6746 Q2772.93 26.1121 2783.14 26.1121 Q2792.29 26.1121 2797.6 32.0264 Q2802.95 37.9003 2802.95 48.0275 M2795.49 45.84 Q2795.41 39.7232 2792.05 36.0774 Q2788.73 32.4315 2783.22 32.4315 Q2776.98 32.4315 2773.21 35.9558 Q2769.49 39.4801 2768.92 45.8805 L2795.49 45.84 Z" fill="#000000" fill-rule="nonzero" fill-opacity="1" /><path clip-path="url(#clip850)" d="M2841.47 34.1734 Q2840.21 33.4443 2838.72 33.1202 Q2837.26 32.7556 2835.47 32.7556 Q2829.16 32.7556 2825.75 36.8875 Q2822.39 40.9789 2822.39 48.6757 L2822.39 72.576 L2814.9 72.576 L2814.9 27.2059 L2822.39 27.2059 L2822.39 34.2544 Q2824.74 30.1225 2828.51 28.1376 Q2832.27 26.1121 2837.66 26.1121 Q2838.43 26.1121 2839.36 26.2337 Q2840.3 26.3147 2841.43 26.5172 L2841.47 34.1734 Z" fill="#000000" fill-rule="nonzero" fill-opacity="1" /><path clip-path="url(#clip850)" d="M2878.21 28.5427 L2878.21 35.5912 Q2875.05 33.9709 2871.65 33.1607 Q2868.25 32.3505 2864.6 32.3505 Q2859.05 32.3505 2856.26 34.0519 Q2853.5 35.7533 2853.5 39.156 Q2853.5 41.7486 2855.49 43.2475 Q2857.47 44.7058 2863.47 46.0426 L2866.02 46.6097 Q2873.96 48.3111 2877.28 51.4303 Q2880.64 54.509 2880.64 60.0587 Q2880.64 66.3781 2875.62 70.0644 Q2870.64 73.7508 2861.89 73.7508 Q2858.24 73.7508 2854.27 73.0216 Q2850.34 72.3329 2845.97 70.9151 L2845.97 63.2184 Q2850.1 65.3654 2854.11 66.4591 Q2858.12 67.5124 2862.05 67.5124 Q2867.31 67.5124 2870.15 65.73 Q2872.99 63.9071 2872.99 60.6258 Q2872.99 57.5877 2870.92 55.9673 Q2868.89 54.3469 2861.97 52.8481 L2859.37 52.2405 Q2852.45 50.7821 2849.37 47.7845 Q2846.29 44.7463 2846.29 39.4801 Q2846.29 33.0797 2850.83 29.5959 Q2855.36 26.1121 2863.71 26.1121 Q2867.84 26.1121 2871.49 26.7198 Q2875.13 27.3274 2878.21 28.5427 Z" fill="#000000" fill-rule="nonzero" fill-opacity="1" /><polyline clip-path="url(#clip852)" style="stroke:#009af9; stroke-linecap:round; stroke-linejoin:round; stroke-width:4; stroke-opacity:1; fill:none" points="354.69,2144.05 354.69,2104.81 354.69,2065.58 354.69,2026.34 354.69,1987.11 354.69,1947.87 354.69,1908.64 354.69,1869.4 354.69,1830.17 354.69,1790.94 354.69,1751.7 354.69,1712.47 354.69,1673.23 354.69,1634 354.69,1594.76 354.69,1555.53 354.69,1516.29 387.027,1477.06 414.792,1437.83 499.601,1398.59 619.188,1359.36 638.007,1320.12 647.805,1280.89 697.817,1241.65 723.741,1202.42 850.07,1163.18 913.265,1123.95 962.528,1084.72 1031.29,1045.48 1075.97,1006.25 1123.94,967.012 1181.39,927.778 1185.04,888.543 1221.23,849.309 1224.98,810.075 1318.14,770.84 1323.92,731.606 1328.23,692.371 1372.78,653.137 1392.6,613.902 1486.3,574.668 1492.67,535.434 1504.78,496.199 1620.93,456.965 1754.65,417.73 1777.23,378.496 1795.08,339.261 2305.98,300.027 2370.48,260.793 2537.02,221.558 3459.61,182.324 "/>
<polyline clip-path="url(#clip852)" style="stroke:#e26f46; stroke-linecap:round; stroke-linejoin:round; stroke-width:4; stroke-opacity:1; fill:none" points="354.69,2142.44 354.69,2101.61 354.69,2060.77 354.69,2019.94 354.69,1979.1 354.69,1938.26 354.69,1897.43 354.69,1856.59 354.69,1815.76 354.69,1774.92 354.69,1734.09 354.69,1693.25 354.69,1652.41 354.69,1611.58 354.69,1570.74 354.69,1529.91 354.69,1489.07 354.69,1448.23 354.69,1407.4 354.69,1366.56 354.69,1325.73 354.69,1284.89 354.69,1244.06 354.69,1203.22 354.69,1162.38 354.69,1121.55 354.69,1080.71 354.69,1039.88 354.69,999.04 354.69,958.205 354.69,917.369 354.69,876.533 354.69,835.697 354.69,794.861 354.69,754.025 354.69,713.19 390.427,672.354 424.429,631.518 425.56,590.682 676.364,549.846 711.142,509.01 763.713,468.175 935.302,427.339 987.304,386.503 1092.63,345.667 1248.36,304.831 1422.74,263.995 1498.46,223.16 1562.4,182.324 "/>
<path clip-path="url(#clip850)" d="M2676.94 2133.58 L3443.05 2133.58 L3443.05 1978.06 L2676.94 1978.06  Z" fill="#ffffff" fill-rule="evenodd" fill-opacity="1"/>
<polyline clip-path="url(#clip850)" style="stroke:#000000; stroke-linecap:round; stroke-linejoin:round; stroke-width:4; stroke-opacity:1; fill:none" points="2676.94,2133.58 3443.05,2133.58 3443.05,1978.06 2676.94,1978.06 2676.94,2133.58 "/>
<polyline clip-path="url(#clip850)" style="stroke:#009af9; stroke-linecap:round; stroke-linejoin:round; stroke-width:4; stroke-opacity:1; fill:none" points="2713.51,2029.9 2932.92,2029.9 "/>
<path clip-path="url(#clip850)" d="M2980.12 2011.21 Q2977.01 2016.53 2975.51 2021.74 Q2974.01 2026.95 2974.01 2032.3 Q2974.01 2037.65 2975.51 2042.9 Q2977.04 2048.13 2980.12 2053.43 L2976.41 2053.43 Q2972.94 2047.99 2971.2 2042.74 Q2969.49 2037.48 2969.49 2032.3 Q2969.49 2027.14 2971.2 2021.9 Q2972.92 2016.67 2976.41 2011.21 L2980.12 2011.21 Z" fill="#000000" fill-rule="nonzero" fill-opacity="1" /><path clip-path="url(#clip850)" d="M3010.56 2033.15 L3010.56 2035.24 L2990.97 2035.24 Q2991.25 2039.64 2993.61 2041.95 Q2996 2044.24 3000.23 2044.24 Q3002.69 2044.24 3004.98 2043.64 Q3007.29 2043.04 3009.56 2041.84 L3009.56 2045.86 Q3007.27 2046.84 3004.86 2047.34 Q3002.45 2047.85 2999.98 2047.85 Q2993.77 2047.85 2990.14 2044.24 Q2986.53 2040.63 2986.53 2034.47 Q2986.53 2028.11 2989.95 2024.38 Q2993.4 2020.63 2999.24 2020.63 Q3004.47 2020.63 3007.5 2024.01 Q3010.56 2027.37 3010.56 2033.15 M3006.3 2031.9 Q3006.25 2028.41 3004.33 2026.33 Q3002.43 2024.24 2999.28 2024.24 Q2995.72 2024.24 2993.57 2026.26 Q2991.44 2028.27 2991.11 2031.93 L3006.3 2031.9 Z" fill="#000000" fill-rule="nonzero" fill-opacity="1" /><path clip-path="url(#clip850)" d="M3038.26 2021.26 L3028.89 2033.87 L3038.75 2047.18 L3033.73 2047.18 L3026.18 2037 L3018.63 2047.18 L3013.61 2047.18 L3023.68 2033.62 L3014.47 2021.26 L3019.49 2021.26 L3026.37 2030.49 L3033.24 2021.26 L3038.26 2021.26 Z" fill="#000000" fill-rule="nonzero" fill-opacity="1" /><path clip-path="url(#clip850)" d="M3056.55 2034.15 Q3051.39 2034.15 3049.4 2035.33 Q3047.41 2036.51 3047.41 2039.36 Q3047.41 2041.63 3048.89 2042.97 Q3050.39 2044.29 3052.96 2044.29 Q3056.5 2044.29 3058.63 2041.79 Q3060.79 2039.27 3060.79 2035.1 L3060.79 2034.15 L3056.55 2034.15 M3065.05 2032.39 L3065.05 2047.18 L3060.79 2047.18 L3060.79 2043.25 Q3059.33 2045.61 3057.15 2046.74 Q3054.98 2047.85 3051.83 2047.85 Q3047.85 2047.85 3045.49 2045.63 Q3043.15 2043.39 3043.15 2039.64 Q3043.15 2035.26 3046.06 2033.04 Q3049 2030.82 3054.81 2030.82 L3060.79 2030.82 L3060.79 2030.4 Q3060.79 2027.46 3058.84 2025.86 Q3056.92 2024.24 3053.43 2024.24 Q3051.2 2024.24 3049.1 2024.78 Q3046.99 2025.31 3045.05 2026.37 L3045.05 2022.44 Q3047.38 2021.53 3049.58 2021.09 Q3051.78 2020.63 3053.87 2020.63 Q3059.49 2020.63 3062.27 2023.55 Q3065.05 2026.47 3065.05 2032.39 Z" fill="#000000" fill-rule="nonzero" fill-opacity="1" /><path clip-path="url(#clip850)" d="M3074.91 2041.3 L3079.79 2041.3 L3079.79 2045.28 L3076 2052.69 L3073.01 2052.69 L3074.91 2045.28 L3074.91 2041.3 Z" fill="#000000" fill-rule="nonzero" fill-opacity="1" /><path clip-path="url(#clip850)" d="M3124.14 2026.23 Q3125.74 2023.36 3127.96 2022 Q3130.18 2020.63 3133.19 2020.63 Q3137.25 2020.63 3139.44 2023.48 Q3141.64 2026.3 3141.64 2031.53 L3141.64 2047.18 L3137.36 2047.18 L3137.36 2031.67 Q3137.36 2027.95 3136.04 2026.14 Q3134.72 2024.34 3132.01 2024.34 Q3128.7 2024.34 3126.78 2026.53 Q3124.86 2028.73 3124.86 2032.53 L3124.86 2047.18 L3120.58 2047.18 L3120.58 2031.67 Q3120.58 2027.92 3119.26 2026.14 Q3117.94 2024.34 3115.18 2024.34 Q3111.92 2024.34 3110 2026.56 Q3108.08 2028.76 3108.08 2032.53 L3108.08 2047.18 L3103.8 2047.18 L3103.8 2021.26 L3108.08 2021.26 L3108.08 2025.28 Q3109.54 2022.9 3111.57 2021.77 Q3113.61 2020.63 3116.41 2020.63 Q3119.24 2020.63 3121.2 2022.07 Q3123.19 2023.5 3124.14 2026.23 Z" fill="#000000" fill-rule="nonzero" fill-opacity="1" /><path clip-path="url(#clip850)" d="M3161.92 2034.15 Q3156.76 2034.15 3154.77 2035.33 Q3152.78 2036.51 3152.78 2039.36 Q3152.78 2041.63 3154.26 2042.97 Q3155.76 2044.29 3158.33 2044.29 Q3161.87 2044.29 3164 2041.79 Q3166.16 2039.27 3166.16 2035.1 L3166.16 2034.15 L3161.92 2034.15 M3170.42 2032.39 L3170.42 2047.18 L3166.16 2047.18 L3166.16 2043.25 Q3164.7 2045.61 3162.52 2046.74 Q3160.35 2047.85 3157.2 2047.85 Q3153.22 2047.85 3150.86 2045.63 Q3148.52 2043.39 3148.52 2039.64 Q3148.52 2035.26 3151.43 2033.04 Q3154.37 2030.82 3160.18 2030.82 L3166.16 2030.82 L3166.16 2030.4 Q3166.16 2027.46 3164.21 2025.86 Q3162.29 2024.24 3158.8 2024.24 Q3156.57 2024.24 3154.47 2024.78 Q3152.36 2025.31 3150.42 2026.37 L3150.42 2022.44 Q3152.75 2021.53 3154.95 2021.09 Q3157.15 2020.63 3159.24 2020.63 Q3164.86 2020.63 3167.64 2023.55 Q3170.42 2026.47 3170.42 2032.39 Z" fill="#000000" fill-rule="nonzero" fill-opacity="1" /><path clip-path="url(#clip850)" d="M3196.25 2025.19 L3196.25 2011.16 L3200.51 2011.16 L3200.51 2047.18 L3196.25 2047.18 L3196.25 2043.29 Q3194.91 2045.61 3192.85 2046.74 Q3190.81 2047.85 3187.94 2047.85 Q3183.24 2047.85 3180.28 2044.1 Q3177.34 2040.35 3177.34 2034.24 Q3177.34 2028.13 3180.28 2024.38 Q3183.24 2020.63 3187.94 2020.63 Q3190.81 2020.63 3192.85 2021.77 Q3194.91 2022.88 3196.25 2025.19 M3181.74 2034.24 Q3181.74 2038.94 3183.66 2041.63 Q3185.6 2044.29 3188.98 2044.29 Q3192.36 2044.29 3194.3 2041.63 Q3196.25 2038.94 3196.25 2034.24 Q3196.25 2029.54 3194.3 2026.88 Q3192.36 2024.2 3188.98 2024.2 Q3185.6 2024.2 3183.66 2026.88 Q3181.74 2029.54 3181.74 2034.24 Z" fill="#000000" fill-rule="nonzero" fill-opacity="1" /><path clip-path="url(#clip850)" d="M3230.83 2031.53 L3230.83 2047.18 L3226.57 2047.18 L3226.57 2031.67 Q3226.57 2027.99 3225.14 2026.16 Q3223.7 2024.34 3220.83 2024.34 Q3217.38 2024.34 3215.39 2026.53 Q3213.4 2028.73 3213.4 2032.53 L3213.4 2047.18 L3209.12 2047.18 L3209.12 2021.26 L3213.4 2021.26 L3213.4 2025.28 Q3214.93 2022.95 3216.99 2021.79 Q3219.07 2020.63 3221.78 2020.63 Q3226.25 2020.63 3228.54 2023.41 Q3230.83 2026.16 3230.83 2031.53 Z" fill="#000000" fill-rule="nonzero" fill-opacity="1" /><path clip-path="url(#clip850)" d="M3239.33 2011.16 L3243.59 2011.16 L3243.59 2047.18 L3239.33 2047.18 L3239.33 2011.16 Z" fill="#000000" fill-rule="nonzero" fill-opacity="1" /><path clip-path="url(#clip850)" d="M3256.62 2043.29 L3256.62 2057.04 L3252.34 2057.04 L3252.34 2021.26 L3256.62 2021.26 L3256.62 2025.19 Q3257.96 2022.88 3260 2021.77 Q3262.06 2020.63 3264.91 2020.63 Q3269.63 2020.63 3272.57 2024.38 Q3275.53 2028.13 3275.53 2034.24 Q3275.53 2040.35 3272.57 2044.1 Q3269.63 2047.85 3264.91 2047.85 Q3262.06 2047.85 3260 2046.74 Q3257.96 2045.61 3256.62 2043.29 M3271.11 2034.24 Q3271.11 2029.54 3269.17 2026.88 Q3267.24 2024.2 3263.86 2024.2 Q3260.49 2024.2 3258.54 2026.88 Q3256.62 2029.54 3256.62 2034.24 Q3256.62 2038.94 3258.54 2041.63 Q3260.49 2044.29 3263.86 2044.29 Q3267.24 2044.29 3269.17 2041.63 Q3271.11 2038.94 3271.11 2034.24 Z" fill="#000000" fill-rule="nonzero" fill-opacity="1" /><path clip-path="url(#clip850)" d="M3281.92 2011.21 L3285.62 2011.21 Q3289.1 2016.67 3290.81 2021.9 Q3292.55 2027.14 3292.55 2032.3 Q3292.55 2037.48 3290.81 2042.74 Q3289.1 2047.99 3285.62 2053.43 L3281.92 2053.43 Q3285 2048.13 3286.5 2042.9 Q3288.03 2037.65 3288.03 2032.3 Q3288.03 2026.95 3286.5 2021.74 Q3285 2016.53 3281.92 2011.21 Z" fill="#000000" fill-rule="nonzero" fill-opacity="1" /><polyline clip-path="url(#clip850)" style="stroke:#e26f46; stroke-linecap:round; stroke-linejoin:round; stroke-width:4; stroke-opacity:1; fill:none" points="2713.51,2081.74 2932.92,2081.74 "/>
<path clip-path="url(#clip850)" d="M2980.12 2063.05 Q2977.01 2068.37 2975.51 2073.58 Q2974.01 2078.79 2974.01 2084.14 Q2974.01 2089.49 2975.51 2094.74 Q2977.04 2099.97 2980.12 2105.27 L2976.41 2105.27 Q2972.94 2099.83 2971.2 2094.58 Q2969.49 2089.32 2969.49 2084.14 Q2969.49 2078.98 2971.2 2073.74 Q2972.92 2068.51 2976.41 2063.05 L2980.12 2063.05 Z" fill="#000000" fill-rule="nonzero" fill-opacity="1" /><path clip-path="url(#clip850)" d="M3010.56 2084.99 L3010.56 2087.08 L2990.97 2087.08 Q2991.25 2091.48 2993.61 2093.79 Q2996 2096.08 3000.23 2096.08 Q3002.69 2096.08 3004.98 2095.48 Q3007.29 2094.88 3009.56 2093.68 L3009.56 2097.7 Q3007.27 2098.68 3004.86 2099.18 Q3002.45 2099.69 2999.98 2099.69 Q2993.77 2099.69 2990.14 2096.08 Q2986.53 2092.47 2986.53 2086.31 Q2986.53 2079.95 2989.95 2076.22 Q2993.4 2072.47 2999.24 2072.47 Q3004.47 2072.47 3007.5 2075.85 Q3010.56 2079.21 3010.56 2084.99 M3006.3 2083.74 Q3006.25 2080.25 3004.33 2078.17 Q3002.43 2076.08 2999.28 2076.08 Q2995.72 2076.08 2993.57 2078.1 Q2991.44 2080.11 2991.11 2083.77 L3006.3 2083.74 Z" fill="#000000" fill-rule="nonzero" fill-opacity="1" /><path clip-path="url(#clip850)" d="M3038.26 2073.1 L3028.89 2085.71 L3038.75 2099.02 L3033.73 2099.02 L3026.18 2088.84 L3018.63 2099.02 L3013.61 2099.02 L3023.68 2085.46 L3014.47 2073.1 L3019.49 2073.1 L3026.37 2082.33 L3033.24 2073.1 L3038.26 2073.1 Z" fill="#000000" fill-rule="nonzero" fill-opacity="1" /><path clip-path="url(#clip850)" d="M3056.55 2085.99 Q3051.39 2085.99 3049.4 2087.17 Q3047.41 2088.35 3047.41 2091.2 Q3047.41 2093.47 3048.89 2094.81 Q3050.39 2096.13 3052.96 2096.13 Q3056.5 2096.13 3058.63 2093.63 Q3060.79 2091.11 3060.79 2086.94 L3060.79 2085.99 L3056.55 2085.99 M3065.05 2084.23 L3065.05 2099.02 L3060.79 2099.02 L3060.79 2095.09 Q3059.33 2097.45 3057.15 2098.58 Q3054.98 2099.69 3051.83 2099.69 Q3047.85 2099.69 3045.49 2097.47 Q3043.15 2095.23 3043.15 2091.48 Q3043.15 2087.1 3046.06 2084.88 Q3049 2082.66 3054.81 2082.66 L3060.79 2082.66 L3060.79 2082.24 Q3060.79 2079.3 3058.84 2077.7 Q3056.92 2076.08 3053.43 2076.08 Q3051.2 2076.08 3049.1 2076.62 Q3046.99 2077.15 3045.05 2078.21 L3045.05 2074.28 Q3047.38 2073.37 3049.58 2072.93 Q3051.78 2072.47 3053.87 2072.47 Q3059.49 2072.47 3062.27 2075.39 Q3065.05 2078.31 3065.05 2084.23 Z" fill="#000000" fill-rule="nonzero" fill-opacity="1" /><path clip-path="url(#clip850)" d="M3093.52 2106.89 L3093.52 2110.2 L3068.89 2110.2 L3068.89 2106.89 L3093.52 2106.89 Z" fill="#000000" fill-rule="nonzero" fill-opacity="1" /><path clip-path="url(#clip850)" d="M3114.58 2085.76 Q3114.58 2081.13 3112.66 2078.58 Q3110.76 2076.04 3107.31 2076.04 Q3103.89 2076.04 3101.97 2078.58 Q3100.07 2081.13 3100.07 2085.76 Q3100.07 2090.37 3101.97 2092.91 Q3103.89 2095.46 3107.31 2095.46 Q3110.76 2095.46 3112.66 2092.91 Q3114.58 2090.37 3114.58 2085.76 M3118.84 2095.8 Q3118.84 2102.43 3115.9 2105.64 Q3112.96 2108.88 3106.9 2108.88 Q3104.65 2108.88 3102.66 2108.54 Q3100.67 2108.21 3098.8 2107.52 L3098.8 2103.37 Q3100.67 2104.39 3102.5 2104.88 Q3104.33 2105.37 3106.23 2105.37 Q3110.42 2105.37 3112.5 2103.17 Q3114.58 2100.99 3114.58 2096.57 L3114.58 2094.46 Q3113.26 2096.75 3111.2 2097.89 Q3109.14 2099.02 3106.27 2099.02 Q3101.5 2099.02 3098.59 2095.39 Q3095.67 2091.75 3095.67 2085.76 Q3095.67 2079.74 3098.59 2076.11 Q3101.5 2072.47 3106.27 2072.47 Q3109.14 2072.47 3111.2 2073.61 Q3113.26 2074.74 3114.58 2077.03 L3114.58 2073.1 L3118.84 2073.1 L3118.84 2095.8 Z" fill="#000000" fill-rule="nonzero" fill-opacity="1" /><path clip-path="url(#clip850)" d="M3131.74 2095.13 L3131.74 2108.88 L3127.45 2108.88 L3127.45 2073.1 L3131.74 2073.1 L3131.74 2077.03 Q3133.08 2074.72 3135.12 2073.61 Q3137.18 2072.47 3140.02 2072.47 Q3144.75 2072.47 3147.68 2076.22 Q3150.65 2079.97 3150.65 2086.08 Q3150.65 2092.19 3147.68 2095.94 Q3144.75 2099.69 3140.02 2099.69 Q3137.18 2099.69 3135.12 2098.58 Q3133.08 2097.45 3131.74 2095.13 M3146.23 2086.08 Q3146.23 2081.38 3144.28 2078.72 Q3142.36 2076.04 3138.98 2076.04 Q3135.6 2076.04 3133.66 2078.72 Q3131.74 2081.38 3131.74 2086.08 Q3131.74 2090.78 3133.66 2093.47 Q3135.6 2096.13 3138.98 2096.13 Q3142.36 2096.13 3144.28 2093.47 Q3146.23 2090.78 3146.23 2086.08 Z" fill="#000000" fill-rule="nonzero" fill-opacity="1" /><path clip-path="url(#clip850)" d="M3157.27 2088.79 L3157.27 2073.1 L3161.53 2073.1 L3161.53 2088.63 Q3161.53 2092.31 3162.96 2094.16 Q3164.4 2095.99 3167.27 2095.99 Q3170.72 2095.99 3172.71 2093.79 Q3174.72 2091.59 3174.72 2087.8 L3174.72 2073.1 L3178.98 2073.1 L3178.98 2099.02 L3174.72 2099.02 L3174.72 2095.04 Q3173.17 2097.4 3171.11 2098.56 Q3169.07 2099.69 3166.37 2099.69 Q3161.9 2099.69 3159.58 2096.92 Q3157.27 2094.14 3157.27 2088.79 M3167.99 2072.47 L3167.99 2072.47 Z" fill="#000000" fill-rule="nonzero" fill-opacity="1" /><path clip-path="url(#clip850)" d="M3188.84 2093.14 L3193.73 2093.14 L3193.73 2097.12 L3189.93 2104.53 L3186.94 2104.53 L3188.84 2097.12 L3188.84 2093.14 Z" fill="#000000" fill-rule="nonzero" fill-opacity="1" /><path clip-path="url(#clip850)" d="M3238.08 2078.07 Q3239.68 2075.2 3241.9 2073.84 Q3244.12 2072.47 3247.13 2072.47 Q3251.18 2072.47 3253.38 2075.32 Q3255.58 2078.14 3255.58 2083.37 L3255.58 2099.02 L3251.3 2099.02 L3251.3 2083.51 Q3251.3 2079.79 3249.98 2077.98 Q3248.66 2076.18 3245.95 2076.18 Q3242.64 2076.18 3240.72 2078.37 Q3238.8 2080.57 3238.8 2084.37 L3238.8 2099.02 L3234.51 2099.02 L3234.51 2083.51 Q3234.51 2079.76 3233.19 2077.98 Q3231.87 2076.18 3229.12 2076.18 Q3225.86 2076.18 3223.93 2078.4 Q3222.01 2080.6 3222.01 2084.37 L3222.01 2099.02 L3217.73 2099.02 L3217.73 2073.1 L3222.01 2073.1 L3222.01 2077.12 Q3223.47 2074.74 3225.51 2073.61 Q3227.55 2072.47 3230.35 2072.47 Q3233.17 2072.47 3235.14 2073.91 Q3237.13 2075.34 3238.08 2078.07 Z" fill="#000000" fill-rule="nonzero" fill-opacity="1" /><path clip-path="url(#clip850)" d="M3275.86 2085.99 Q3270.69 2085.99 3268.7 2087.17 Q3266.71 2088.35 3266.71 2091.2 Q3266.71 2093.47 3268.19 2094.81 Q3269.7 2096.13 3272.27 2096.13 Q3275.81 2096.13 3277.94 2093.63 Q3280.09 2091.11 3280.09 2086.94 L3280.09 2085.99 L3275.86 2085.99 M3284.35 2084.23 L3284.35 2099.02 L3280.09 2099.02 L3280.09 2095.09 Q3278.63 2097.45 3276.46 2098.58 Q3274.28 2099.69 3271.13 2099.69 Q3267.15 2099.69 3264.79 2097.47 Q3262.45 2095.23 3262.45 2091.48 Q3262.45 2087.1 3265.37 2084.88 Q3268.31 2082.66 3274.12 2082.66 L3280.09 2082.66 L3280.09 2082.24 Q3280.09 2079.3 3278.15 2077.7 Q3276.23 2076.08 3272.73 2076.08 Q3270.51 2076.08 3268.4 2076.62 Q3266.3 2077.15 3264.35 2078.21 L3264.35 2074.28 Q3266.69 2073.37 3268.89 2072.93 Q3271.09 2072.47 3273.17 2072.47 Q3278.8 2072.47 3281.57 2075.39 Q3284.35 2078.31 3284.35 2084.23 Z" fill="#000000" fill-rule="nonzero" fill-opacity="1" /><path clip-path="url(#clip850)" d="M3310.18 2077.03 L3310.18 2063 L3314.44 2063 L3314.44 2099.02 L3310.18 2099.02 L3310.18 2095.13 Q3308.84 2097.45 3306.78 2098.58 Q3304.74 2099.69 3301.87 2099.69 Q3297.17 2099.69 3294.21 2095.94 Q3291.27 2092.19 3291.27 2086.08 Q3291.27 2079.97 3294.21 2076.22 Q3297.17 2072.47 3301.87 2072.47 Q3304.74 2072.47 3306.78 2073.61 Q3308.84 2074.72 3310.18 2077.03 M3295.67 2086.08 Q3295.67 2090.78 3297.59 2093.47 Q3299.54 2096.13 3302.92 2096.13 Q3306.3 2096.13 3308.24 2093.47 Q3310.18 2090.78 3310.18 2086.08 Q3310.18 2081.38 3308.24 2078.72 Q3306.3 2076.04 3302.92 2076.04 Q3299.54 2076.04 3297.59 2078.72 Q3295.67 2081.38 3295.67 2086.08 Z" fill="#000000" fill-rule="nonzero" fill-opacity="1" /><path clip-path="url(#clip850)" d="M3344.77 2083.37 L3344.77 2099.02 L3340.51 2099.02 L3340.51 2083.51 Q3340.51 2079.83 3339.07 2078 Q3337.64 2076.18 3334.77 2076.18 Q3331.32 2076.18 3329.33 2078.37 Q3327.34 2080.57 3327.34 2084.37 L3327.34 2099.02 L3323.05 2099.02 L3323.05 2073.1 L3327.34 2073.1 L3327.34 2077.12 Q3328.86 2074.79 3330.92 2073.63 Q3333.01 2072.47 3335.72 2072.47 Q3340.18 2072.47 3342.48 2075.25 Q3344.77 2078 3344.77 2083.37 Z" fill="#000000" fill-rule="nonzero" fill-opacity="1" /><path clip-path="url(#clip850)" d="M3353.26 2063 L3357.52 2063 L3357.52 2099.02 L3353.26 2099.02 L3353.26 2063 Z" fill="#000000" fill-rule="nonzero" fill-opacity="1" /><path clip-path="url(#clip850)" d="M3370.55 2095.13 L3370.55 2108.88 L3366.27 2108.88 L3366.27 2073.1 L3370.55 2073.1 L3370.55 2077.03 Q3371.9 2074.72 3373.93 2073.61 Q3375.99 2072.47 3378.84 2072.47 Q3383.56 2072.47 3386.5 2076.22 Q3389.47 2079.97 3389.47 2086.08 Q3389.47 2092.19 3386.5 2095.94 Q3383.56 2099.69 3378.84 2099.69 Q3375.99 2099.69 3373.93 2098.58 Q3371.9 2097.45 3370.55 2095.13 M3385.04 2086.08 Q3385.04 2081.38 3383.1 2078.72 Q3381.18 2076.04 3377.8 2076.04 Q3374.42 2076.04 3372.48 2078.72 Q3370.55 2081.38 3370.55 2086.08 Q3370.55 2090.78 3372.48 2093.47 Q3374.42 2096.13 3377.8 2096.13 Q3381.18 2096.13 3383.1 2093.47 Q3385.04 2090.78 3385.04 2086.08 Z" fill="#000000" fill-rule="nonzero" fill-opacity="1" /><path clip-path="url(#clip850)" d="M3395.85 2063.05 L3399.56 2063.05 Q3403.03 2068.51 3404.74 2073.74 Q3406.48 2078.98 3406.48 2084.14 Q3406.48 2089.32 3404.74 2094.58 Q3403.03 2099.83 3399.56 2105.27 L3395.85 2105.27 Q3398.93 2099.97 3400.44 2094.74 Q3401.97 2089.49 3401.97 2084.14 Q3401.97 2078.79 3400.44 2073.58 Q3398.93 2068.37 3395.85 2063.05 Z" fill="#000000" fill-rule="nonzero" fill-opacity="1" /></svg>
