<?xml version="1.0" encoding="utf-8"?>
<svg xmlns="http://www.w3.org/2000/svg" xmlns:xlink="http://www.w3.org/1999/xlink" width="900" height="600" viewBox="0 0 3600 2400">
<defs>
  <clipPath id="clip390">
    <rect x="0" y="0" width="3600" height="2400"/>
  </clipPath>
</defs>
<path clip-path="url(#clip390)" d="M0 2400 L3600 2400 L3600 0 L0 0  Z" fill="#ffffff" fill-rule="evenodd" fill-opacity="1"/>
<defs>
  <clipPath id="clip391">
    <rect x="272" y="246" width="3281" height="1911"/>
  </clipPath>
</defs>
<path clip-path="url(#clip390)" d="M351.873 2156.51 L3552.76 2156.51 L3552.76 246.944 L351.873 246.944  Z" fill="#ffffff" fill-rule="evenodd" fill-opacity="1"/>
<defs>
  <clipPath id="clip392">
    <rect x="351" y="246" width="3202" height="1911"/>
  </clipPath>
</defs>
<polyline clip-path="url(#clip392)" style="stroke:#000000; stroke-linecap:round; stroke-linejoin:round; stroke-width:2; stroke-opacity:0.1; fill:none" points="442.464,2156.51 442.464,246.944 "/>
<polyline clip-path="url(#clip392)" style="stroke:#000000; stroke-linecap:round; stroke-linejoin:round; stroke-width:2; stroke-opacity:0.1; fill:none" points="1330.61,2156.51 1330.61,246.944 "/>
<polyline clip-path="url(#clip392)" style="stroke:#000000; stroke-linecap:round; stroke-linejoin:round; stroke-width:2; stroke-opacity:0.1; fill:none" points="2218.76,2156.51 2218.76,246.944 "/>
<polyline clip-path="url(#clip392)" style="stroke:#000000; stroke-linecap:round; stroke-linejoin:round; stroke-width:2; stroke-opacity:0.1; fill:none" points="3106.91,2156.51 3106.91,246.944 "/>
<polyline clip-path="url(#clip392)" style="stroke:#000000; stroke-linecap:round; stroke-linejoin:round; stroke-width:2; stroke-opacity:0.1; fill:none" points="351.873,1613.92 3552.76,1613.92 "/>
<polyline clip-path="url(#clip392)" style="stroke:#000000; stroke-linecap:round; stroke-linejoin:round; stroke-width:2; stroke-opacity:0.1; fill:none" points="351.873,1052.94 3552.76,1052.94 "/>
<polyline clip-path="url(#clip392)" style="stroke:#000000; stroke-linecap:round; stroke-linejoin:round; stroke-width:2; stroke-opacity:0.1; fill:none" points="351.873,491.95 3552.76,491.95 "/>
<polyline clip-path="url(#clip390)" style="stroke:#000000; stroke-linecap:round; stroke-linejoin:round; stroke-width:4; stroke-opacity:1; fill:none" points="351.873,2156.51 3552.76,2156.51 "/>
<polyline clip-path="url(#clip390)" style="stroke:#000000; stroke-linecap:round; stroke-linejoin:round; stroke-width:4; stroke-opacity:1; fill:none" points="442.464,2156.51 442.464,2137.61 "/>
<polyline clip-path="url(#clip390)" style="stroke:#000000; stroke-linecap:round; stroke-linejoin:round; stroke-width:4; stroke-opacity:1; fill:none" points="1330.61,2156.51 1330.61,2137.61 "/>
<polyline clip-path="url(#clip390)" style="stroke:#000000; stroke-linecap:round; stroke-linejoin:round; stroke-width:4; stroke-opacity:1; fill:none" points="2218.76,2156.51 2218.76,2137.61 "/>
<polyline clip-path="url(#clip390)" style="stroke:#000000; stroke-linecap:round; stroke-linejoin:round; stroke-width:4; stroke-opacity:1; fill:none" points="3106.91,2156.51 3106.91,2137.61 "/>
<path clip-path="url(#clip390)" d="M416.226 2209.87 Q419.583 2210.59 421.458 2212.86 Q423.356 2215.13 423.356 2218.46 Q423.356 2223.58 419.837 2226.38 Q416.319 2229.18 409.837 2229.18 Q407.661 2229.18 405.347 2228.74 Q403.055 2228.32 400.601 2227.47 L400.601 2222.95 Q402.546 2224.09 404.86 2224.67 Q407.175 2225.24 409.698 2225.24 Q414.097 2225.24 416.388 2223.51 Q418.703 2221.77 418.703 2218.46 Q418.703 2215.41 416.55 2213.69 Q414.421 2211.96 410.601 2211.96 L406.573 2211.96 L406.573 2208.11 L410.786 2208.11 Q414.235 2208.11 416.064 2206.75 Q417.893 2205.36 417.893 2202.77 Q417.893 2200.11 415.995 2198.69 Q414.12 2197.26 410.601 2197.26 Q408.68 2197.26 406.481 2197.67 Q404.282 2198.09 401.643 2198.97 L401.643 2194.8 Q404.305 2194.06 406.62 2193.69 Q408.958 2193.32 411.018 2193.32 Q416.342 2193.32 419.444 2195.75 Q422.546 2198.16 422.546 2202.28 Q422.546 2205.15 420.902 2207.14 Q419.259 2209.11 416.226 2209.87 Z" fill="#000000" fill-rule="nonzero" fill-opacity="1" /><path clip-path="url(#clip390)" d="M445.069 2198.02 L433.263 2216.47 L445.069 2216.47 L445.069 2198.02 M443.842 2193.95 L449.721 2193.95 L449.721 2216.47 L454.652 2216.47 L454.652 2220.36 L449.721 2220.36 L449.721 2228.51 L445.069 2228.51 L445.069 2220.36 L429.467 2220.36 L429.467 2215.85 L443.842 2193.95 Z" fill="#000000" fill-rule="nonzero" fill-opacity="1" /><path clip-path="url(#clip390)" d="M472.383 2197.03 Q468.772 2197.03 466.943 2200.59 Q465.138 2204.13 465.138 2211.26 Q465.138 2218.37 466.943 2221.93 Q468.772 2225.48 472.383 2225.48 Q476.017 2225.48 477.823 2221.93 Q479.652 2218.37 479.652 2211.26 Q479.652 2204.13 477.823 2200.59 Q476.017 2197.03 472.383 2197.03 M472.383 2193.32 Q478.193 2193.32 481.249 2197.93 Q484.328 2202.51 484.328 2211.26 Q484.328 2219.99 481.249 2224.6 Q478.193 2229.18 472.383 2229.18 Q466.573 2229.18 463.494 2224.6 Q460.439 2219.99 460.439 2211.26 Q460.439 2202.51 463.494 2197.93 Q466.573 2193.32 472.383 2193.32 Z" fill="#000000" fill-rule="nonzero" fill-opacity="1" /><path clip-path="url(#clip390)" d="M1304.87 2209.87 Q1308.23 2210.59 1310.1 2212.86 Q1312 2215.13 1312 2218.46 Q1312 2223.58 1308.48 2226.38 Q1304.96 2229.18 1298.48 2229.18 Q1296.31 2229.18 1293.99 2228.74 Q1291.7 2228.32 1289.25 2227.47 L1289.25 2222.95 Q1291.19 2224.09 1293.51 2224.67 Q1295.82 2225.24 1298.34 2225.24 Q1302.74 2225.24 1305.03 2223.51 Q1307.35 2221.77 1307.35 2218.46 Q1307.35 2215.41 1305.2 2213.69 Q1303.07 2211.96 1299.25 2211.96 L1295.22 2211.96 L1295.22 2208.11 L1299.43 2208.11 Q1302.88 2208.11 1304.71 2206.75 Q1306.54 2205.36 1306.54 2202.77 Q1306.54 2200.11 1304.64 2198.69 Q1302.76 2197.26 1299.25 2197.26 Q1297.32 2197.26 1295.13 2197.67 Q1292.93 2198.09 1290.29 2198.97 L1290.29 2194.8 Q1292.95 2194.06 1295.26 2193.69 Q1297.6 2193.32 1299.66 2193.32 Q1304.99 2193.32 1308.09 2195.75 Q1311.19 2198.16 1311.19 2202.28 Q1311.19 2205.15 1309.55 2207.14 Q1307.9 2209.11 1304.87 2209.87 Z" fill="#000000" fill-rule="nonzero" fill-opacity="1" /><path clip-path="url(#clip390)" d="M1333.71 2198.02 L1321.91 2216.47 L1333.71 2216.47 L1333.71 2198.02 M1332.49 2193.95 L1338.37 2193.95 L1338.37 2216.47 L1343.3 2216.47 L1343.3 2220.36 L1338.37 2220.36 L1338.37 2228.51 L1333.71 2228.51 L1333.71 2220.36 L1318.11 2220.36 L1318.11 2215.85 L1332.49 2193.95 Z" fill="#000000" fill-rule="nonzero" fill-opacity="1" /><path clip-path="url(#clip390)" d="M1351.07 2193.95 L1369.43 2193.95 L1369.43 2197.88 L1355.36 2197.88 L1355.36 2206.36 Q1356.38 2206.01 1357.39 2205.85 Q1358.41 2205.66 1359.43 2205.66 Q1365.22 2205.66 1368.6 2208.83 Q1371.98 2212 1371.98 2217.42 Q1371.98 2223 1368.5 2226.1 Q1365.03 2229.18 1358.71 2229.18 Q1356.54 2229.18 1354.27 2228.81 Q1352.02 2228.44 1349.62 2227.7 L1349.62 2223 Q1351.7 2224.13 1353.92 2224.69 Q1356.14 2225.24 1358.62 2225.24 Q1362.63 2225.24 1364.96 2223.14 Q1367.3 2221.03 1367.3 2217.42 Q1367.3 2213.81 1364.96 2211.7 Q1362.63 2209.6 1358.62 2209.6 Q1356.75 2209.6 1354.87 2210.01 Q1353.02 2210.43 1351.07 2211.31 L1351.07 2193.95 Z" fill="#000000" fill-rule="nonzero" fill-opacity="1" /><path clip-path="url(#clip390)" d="M2192.52 2209.87 Q2195.88 2210.59 2197.75 2212.86 Q2199.65 2215.13 2199.65 2218.46 Q2199.65 2223.58 2196.13 2226.38 Q2192.61 2229.18 2186.13 2229.18 Q2183.96 2229.18 2181.64 2228.74 Q2179.35 2228.32 2176.9 2227.47 L2176.9 2222.95 Q2178.84 2224.09 2181.15 2224.67 Q2183.47 2225.24 2185.99 2225.24 Q2190.39 2225.24 2192.68 2223.51 Q2195 2221.77 2195 2218.46 Q2195 2215.41 2192.84 2213.69 Q2190.71 2211.96 2186.9 2211.96 L2182.87 2211.96 L2182.87 2208.11 L2187.08 2208.11 Q2190.53 2208.11 2192.36 2206.75 Q2194.19 2205.36 2194.19 2202.77 Q2194.19 2200.11 2192.29 2198.69 Q2190.41 2197.26 2186.9 2197.26 Q2184.97 2197.26 2182.78 2197.67 Q2180.58 2198.09 2177.94 2198.97 L2177.94 2194.8 Q2180.6 2194.06 2182.91 2193.69 Q2185.25 2193.32 2187.31 2193.32 Q2192.64 2193.32 2195.74 2195.75 Q2198.84 2198.16 2198.84 2202.28 Q2198.84 2205.15 2197.2 2207.14 Q2195.55 2209.11 2192.52 2209.87 Z" fill="#000000" fill-rule="nonzero" fill-opacity="1" /><path clip-path="url(#clip390)" d="M2208.56 2193.95 L2226.92 2193.95 L2226.92 2197.88 L2212.84 2197.88 L2212.84 2206.36 Q2213.86 2206.01 2214.88 2205.85 Q2215.9 2205.66 2216.92 2205.66 Q2222.71 2205.66 2226.09 2208.83 Q2229.46 2212 2229.46 2217.42 Q2229.46 2223 2225.99 2226.1 Q2222.52 2229.18 2216.2 2229.18 Q2214.03 2229.18 2211.76 2228.81 Q2209.51 2228.44 2207.1 2227.7 L2207.1 2223 Q2209.19 2224.13 2211.41 2224.69 Q2213.63 2225.24 2216.11 2225.24 Q2220.11 2225.24 2222.45 2223.14 Q2224.79 2221.03 2224.79 2217.42 Q2224.79 2213.81 2222.45 2211.7 Q2220.11 2209.6 2216.11 2209.6 Q2214.23 2209.6 2212.36 2210.01 Q2210.51 2210.43 2208.56 2211.31 L2208.56 2193.95 Z" fill="#000000" fill-rule="nonzero" fill-opacity="1" /><path clip-path="url(#clip390)" d="M2248.68 2197.03 Q2245.07 2197.03 2243.24 2200.59 Q2241.43 2204.13 2241.43 2211.26 Q2241.43 2218.37 2243.24 2221.93 Q2245.07 2225.48 2248.68 2225.48 Q2252.31 2225.48 2254.12 2221.93 Q2255.95 2218.37 2255.95 2211.26 Q2255.95 2204.13 2254.12 2200.59 Q2252.31 2197.03 2248.68 2197.03 M2248.68 2193.32 Q2254.49 2193.32 2257.54 2197.93 Q2260.62 2202.51 2260.62 2211.26 Q2260.62 2219.99 2257.54 2224.6 Q2254.49 2229.18 2248.68 2229.18 Q2242.87 2229.18 2239.79 2224.6 Q2236.73 2219.99 2236.73 2211.26 Q2236.73 2202.51 2239.79 2197.93 Q2242.87 2193.32 2248.68 2193.32 Z" fill="#000000" fill-rule="nonzero" fill-opacity="1" /><path clip-path="url(#clip390)" d="M3081.17 2209.87 Q3084.52 2210.59 3086.4 2212.86 Q3088.3 2215.13 3088.3 2218.46 Q3088.3 2223.58 3084.78 2226.38 Q3081.26 2229.18 3074.78 2229.18 Q3072.6 2229.18 3070.29 2228.74 Q3067.99 2228.32 3065.54 2227.47 L3065.54 2222.95 Q3067.48 2224.09 3069.8 2224.67 Q3072.11 2225.24 3074.64 2225.24 Q3079.04 2225.24 3081.33 2223.51 Q3083.64 2221.77 3083.64 2218.46 Q3083.64 2215.41 3081.49 2213.69 Q3079.36 2211.96 3075.54 2211.96 L3071.51 2211.96 L3071.51 2208.11 L3075.73 2208.11 Q3079.17 2208.11 3081 2206.75 Q3082.83 2205.36 3082.83 2202.77 Q3082.83 2200.11 3080.93 2198.69 Q3079.06 2197.26 3075.54 2197.26 Q3073.62 2197.26 3071.42 2197.67 Q3069.22 2198.09 3066.58 2198.97 L3066.58 2194.8 Q3069.24 2194.06 3071.56 2193.69 Q3073.9 2193.32 3075.96 2193.32 Q3081.28 2193.32 3084.38 2195.75 Q3087.48 2198.16 3087.48 2202.28 Q3087.48 2205.15 3085.84 2207.14 Q3084.2 2209.11 3081.17 2209.87 Z" fill="#000000" fill-rule="nonzero" fill-opacity="1" /><path clip-path="url(#clip390)" d="M3097.21 2193.95 L3115.56 2193.95 L3115.56 2197.88 L3101.49 2197.88 L3101.49 2206.36 Q3102.51 2206.01 3103.53 2205.85 Q3104.54 2205.66 3105.56 2205.66 Q3111.35 2205.66 3114.73 2208.83 Q3118.11 2212 3118.11 2217.42 Q3118.11 2223 3114.64 2226.1 Q3111.17 2229.18 3104.85 2229.18 Q3102.67 2229.18 3100.4 2228.81 Q3098.16 2228.44 3095.75 2227.7 L3095.75 2223 Q3097.83 2224.13 3100.05 2224.69 Q3102.28 2225.24 3104.75 2225.24 Q3108.76 2225.24 3111.1 2223.14 Q3113.43 2221.03 3113.43 2217.42 Q3113.43 2213.81 3111.1 2211.7 Q3108.76 2209.6 3104.75 2209.6 Q3102.88 2209.6 3101 2210.01 Q3099.15 2210.43 3097.21 2211.31 L3097.21 2193.95 Z" fill="#000000" fill-rule="nonzero" fill-opacity="1" /><path clip-path="url(#clip390)" d="M3127.37 2193.95 L3145.73 2193.95 L3145.73 2197.88 L3131.65 2197.88 L3131.65 2206.36 Q3132.67 2206.01 3133.69 2205.85 Q3134.71 2205.66 3135.73 2205.66 Q3141.51 2205.66 3144.89 2208.83 Q3148.27 2212 3148.27 2217.42 Q3148.27 2223 3144.8 2226.1 Q3141.33 2229.18 3135.01 2229.18 Q3132.83 2229.18 3130.56 2228.81 Q3128.32 2228.44 3125.91 2227.7 L3125.91 2223 Q3127.99 2224.13 3130.22 2224.69 Q3132.44 2225.24 3134.92 2225.24 Q3138.92 2225.24 3141.26 2223.14 Q3143.6 2221.03 3143.6 2217.42 Q3143.6 2213.81 3141.26 2211.7 Q3138.92 2209.6 3134.92 2209.6 Q3133.04 2209.6 3131.17 2210.01 Q3129.31 2210.43 3127.37 2211.31 L3127.37 2193.95 Z" fill="#000000" fill-rule="nonzero" fill-opacity="1" /><path clip-path="url(#clip390)" d="M1815.55 2270.99 L1821.4 2270.99 L1821.4 2314.19 L1815.55 2314.19 L1815.55 2270.99 Z" fill="#000000" fill-rule="nonzero" fill-opacity="1" /><path clip-path="url(#clip390)" d="M1838.06 2272.58 L1838.06 2281.78 L1849.03 2281.78 L1849.03 2285.92 L1838.06 2285.92 L1838.06 2303.51 Q1838.06 2307.47 1839.14 2308.6 Q1840.23 2309.73 1843.56 2309.73 L1849.03 2309.73 L1849.03 2314.19 L1843.56 2314.19 Q1837.4 2314.19 1835.06 2311.9 Q1832.71 2309.59 1832.71 2303.51 L1832.71 2285.92 L1828.81 2285.92 L1828.81 2281.78 L1832.71 2281.78 L1832.71 2272.58 L1838.06 2272.58 Z" fill="#000000" fill-rule="nonzero" fill-opacity="1" /><path clip-path="url(#clip390)" d="M1883.75 2296.65 L1883.75 2299.26 L1859.27 2299.26 Q1859.62 2304.75 1862.57 2307.65 Q1865.55 2310.51 1870.85 2310.51 Q1873.92 2310.51 1876.78 2309.76 Q1879.67 2309.01 1882.51 2307.5 L1882.51 2312.54 Q1879.64 2313.75 1876.64 2314.39 Q1873.63 2315.03 1870.53 2315.03 Q1862.78 2315.03 1858.23 2310.51 Q1853.72 2306 1853.72 2298.3 Q1853.72 2290.35 1858 2285.69 Q1862.31 2281 1869.6 2281 Q1876.14 2281 1879.93 2285.22 Q1883.75 2289.42 1883.75 2296.65 M1878.43 2295.09 Q1878.37 2290.72 1875.97 2288.12 Q1873.6 2285.51 1869.66 2285.51 Q1865.21 2285.51 1862.51 2288.03 Q1859.85 2290.55 1859.45 2295.12 L1878.43 2295.09 Z" fill="#000000" fill-rule="nonzero" fill-opacity="1" /><path clip-path="url(#clip390)" d="M1911.27 2286.76 Q1910.37 2286.24 1909.3 2286 Q1908.26 2285.74 1906.99 2285.74 Q1902.47 2285.74 1900.04 2288.7 Q1897.64 2291.62 1897.64 2297.12 L1897.64 2314.19 L1892.29 2314.19 L1892.29 2281.78 L1897.64 2281.78 L1897.64 2286.82 Q1899.32 2283.86 1902.01 2282.45 Q1904.7 2281 1908.55 2281 Q1909.1 2281 1909.77 2281.09 Q1910.43 2281.14 1911.24 2281.29 L1911.27 2286.76 Z" fill="#000000" fill-rule="nonzero" fill-opacity="1" /><path clip-path="url(#clip390)" d="M1931.58 2297.9 Q1925.13 2297.9 1922.64 2299.37 Q1920.15 2300.85 1920.15 2304.41 Q1920.15 2307.24 1922.01 2308.92 Q1923.89 2310.57 1927.1 2310.57 Q1931.52 2310.57 1934.19 2307.45 Q1936.88 2304.29 1936.88 2299.08 L1936.88 2297.9 L1931.58 2297.9 M1942.2 2295.7 L1942.2 2314.19 L1936.88 2314.19 L1936.88 2309.27 Q1935.05 2312.22 1932.34 2313.64 Q1929.62 2315.03 1925.68 2315.03 Q1920.7 2315.03 1917.75 2312.25 Q1914.83 2309.44 1914.83 2304.75 Q1914.83 2299.29 1918.48 2296.51 Q1922.15 2293.73 1929.41 2293.73 L1936.88 2293.73 L1936.88 2293.21 Q1936.88 2289.54 1934.45 2287.54 Q1932.05 2285.51 1927.68 2285.51 Q1924.9 2285.51 1922.27 2286.18 Q1919.63 2286.84 1917.2 2288.18 L1917.2 2283.26 Q1920.12 2282.13 1922.87 2281.58 Q1925.62 2281 1928.23 2281 Q1935.26 2281 1938.73 2284.65 Q1942.2 2288.29 1942.2 2295.7 Z" fill="#000000" fill-rule="nonzero" fill-opacity="1" /><path clip-path="url(#clip390)" d="M1958.43 2272.58 L1958.43 2281.78 L1969.4 2281.78 L1969.4 2285.92 L1958.43 2285.92 L1958.43 2303.51 Q1958.43 2307.47 1959.51 2308.6 Q1960.6 2309.73 1963.93 2309.73 L1969.4 2309.73 L1969.4 2314.19 L1963.93 2314.19 Q1957.77 2314.19 1955.43 2311.9 Q1953.08 2309.59 1953.08 2303.51 L1953.08 2285.92 L1949.18 2285.92 L1949.18 2281.78 L1953.08 2281.78 L1953.08 2272.58 L1958.43 2272.58 Z" fill="#000000" fill-rule="nonzero" fill-opacity="1" /><path clip-path="url(#clip390)" d="M1976.4 2281.78 L1981.73 2281.78 L1981.73 2314.19 L1976.4 2314.19 L1976.4 2281.78 M1976.4 2269.16 L1981.73 2269.16 L1981.73 2275.91 L1976.4 2275.91 L1976.4 2269.16 Z" fill="#000000" fill-rule="nonzero" fill-opacity="1" /><path clip-path="url(#clip390)" d="M2005.42 2285.51 Q2001.14 2285.51 1998.65 2288.87 Q1996.17 2292.2 1996.17 2298.01 Q1996.17 2303.83 1998.63 2307.19 Q2001.11 2310.51 2005.42 2310.51 Q2009.68 2310.51 2012.17 2307.16 Q2014.66 2303.8 2014.66 2298.01 Q2014.66 2292.25 2012.17 2288.9 Q2009.68 2285.51 2005.42 2285.51 M2005.42 2281 Q2012.37 2281 2016.33 2285.51 Q2020.3 2290.03 2020.3 2298.01 Q2020.3 2305.97 2016.33 2310.51 Q2012.37 2315.03 2005.42 2315.03 Q1998.45 2315.03 1994.49 2310.51 Q1990.55 2305.97 1990.55 2298.01 Q1990.55 2290.03 1994.49 2285.51 Q1998.45 2281 2005.42 2281 Z" fill="#000000" fill-rule="nonzero" fill-opacity="1" /><path clip-path="url(#clip390)" d="M2056.06 2294.63 L2056.06 2314.19 L2050.74 2314.19 L2050.74 2294.8 Q2050.74 2290.2 2048.94 2287.91 Q2047.15 2285.63 2043.56 2285.63 Q2039.25 2285.63 2036.76 2288.38 Q2034.27 2291.13 2034.27 2295.87 L2034.27 2314.19 L2028.92 2314.19 L2028.92 2281.78 L2034.27 2281.78 L2034.27 2286.82 Q2036.18 2283.89 2038.76 2282.45 Q2041.36 2281 2044.75 2281 Q2050.33 2281 2053.2 2284.47 Q2056.06 2287.91 2056.06 2294.63 Z" fill="#000000" fill-rule="nonzero" fill-opacity="1" /><path clip-path="url(#clip390)" d="M2087.34 2282.74 L2087.34 2287.77 Q2085.08 2286.61 2082.65 2286.03 Q2080.22 2285.46 2077.62 2285.46 Q2073.65 2285.46 2071.66 2286.67 Q2069.69 2287.89 2069.69 2290.32 Q2069.69 2292.17 2071.11 2293.24 Q2072.53 2294.28 2076.81 2295.24 L2078.63 2295.64 Q2084.3 2296.86 2086.67 2299.08 Q2089.08 2301.28 2089.08 2305.25 Q2089.08 2309.76 2085.49 2312.39 Q2081.93 2315.03 2075.68 2315.03 Q2073.08 2315.03 2070.24 2314.51 Q2067.43 2314.01 2064.31 2313 L2064.31 2307.5 Q2067.26 2309.04 2070.12 2309.82 Q2072.99 2310.57 2075.79 2310.57 Q2079.56 2310.57 2081.58 2309.3 Q2083.61 2308 2083.61 2305.65 Q2083.61 2303.48 2082.13 2302.32 Q2080.68 2301.17 2075.74 2300.1 L2073.89 2299.66 Q2068.94 2298.62 2066.74 2296.48 Q2064.54 2294.31 2064.54 2290.55 Q2064.54 2285.98 2067.78 2283.49 Q2071.02 2281 2076.98 2281 Q2079.93 2281 2082.54 2281.43 Q2085.14 2281.87 2087.34 2282.74 Z" fill="#000000" fill-rule="nonzero" fill-opacity="1" /><polyline clip-path="url(#clip390)" style="stroke:#000000; stroke-linecap:round; stroke-linejoin:round; stroke-width:4; stroke-opacity:1; fill:none" points="351.873,2156.51 351.873,246.944 "/>
<polyline clip-path="url(#clip390)" style="stroke:#000000; stroke-linecap:round; stroke-linejoin:round; stroke-width:4; stroke-opacity:1; fill:none" points="351.873,1613.92 370.771,1613.92 "/>
<polyline clip-path="url(#clip390)" style="stroke:#000000; stroke-linecap:round; stroke-linejoin:round; stroke-width:4; stroke-opacity:1; fill:none" points="351.873,1052.94 370.771,1052.94 "/>
<polyline clip-path="url(#clip390)" style="stroke:#000000; stroke-linecap:round; stroke-linejoin:round; stroke-width:4; stroke-opacity:1; fill:none" points="351.873,491.95 370.771,491.95 "/>
<path clip-path="url(#clip390)" d="M167.604 1633.72 L175.242 1633.72 L175.242 1607.35 L166.932 1609.02 L166.932 1604.76 L175.196 1603.09 L179.872 1603.09 L179.872 1633.72 L187.511 1633.72 L187.511 1637.65 L167.604 1637.65 L167.604 1633.72 Z" fill="#000000" fill-rule="nonzero" fill-opacity="1" /><path clip-path="url(#clip390)" d="M206.955 1606.17 Q203.344 1606.17 201.515 1609.73 Q199.71 1613.28 199.71 1620.41 Q199.71 1627.51 201.515 1631.08 Q203.344 1634.62 206.955 1634.62 Q210.589 1634.62 212.395 1631.08 Q214.224 1627.51 214.224 1620.41 Q214.224 1613.28 212.395 1609.73 Q210.589 1606.17 206.955 1606.17 M206.955 1602.47 Q212.765 1602.47 215.821 1607.07 Q218.9 1611.66 218.9 1620.41 Q218.9 1629.13 215.821 1633.74 Q212.765 1638.32 206.955 1638.32 Q201.145 1638.32 198.066 1633.74 Q195.011 1629.13 195.011 1620.41 Q195.011 1611.66 198.066 1607.07 Q201.145 1602.47 206.955 1602.47 Z" fill="#000000" fill-rule="nonzero" fill-opacity="1" /><path clip-path="url(#clip390)" d="M219.445 1607.04 L225.652 1607.04 L225.652 1585.62 L218.9 1586.98 L218.9 1583.51 L225.614 1582.16 L229.413 1582.16 L229.413 1607.04 L235.62 1607.04 L235.62 1610.24 L219.445 1610.24 L219.445 1607.04 Z" fill="#000000" fill-rule="nonzero" fill-opacity="1" /><path clip-path="url(#clip390)" d="M243.293 1605.46 L247.262 1605.46 L247.262 1610.24 L243.293 1610.24 L243.293 1605.46 Z" fill="#000000" fill-rule="nonzero" fill-opacity="1" /><path clip-path="url(#clip390)" d="M263.662 1584.66 Q260.728 1584.66 259.242 1587.56 Q257.775 1590.44 257.775 1596.23 Q257.775 1602 259.242 1604.9 Q260.728 1607.78 263.662 1607.78 Q266.615 1607.78 268.082 1604.9 Q269.568 1602 269.568 1596.23 Q269.568 1590.44 268.082 1587.56 Q266.615 1584.66 263.662 1584.66 M263.662 1581.65 Q268.383 1581.65 270.865 1585.4 Q273.367 1589.12 273.367 1596.23 Q273.367 1603.32 270.865 1607.06 Q268.383 1610.79 263.662 1610.79 Q258.941 1610.79 256.44 1607.06 Q253.957 1603.32 253.957 1596.23 Q253.957 1589.12 256.44 1585.4 Q258.941 1581.65 263.662 1581.65 Z" fill="#000000" fill-rule="nonzero" fill-opacity="1" /><path clip-path="url(#clip390)" d="M288.169 1584.66 Q285.235 1584.66 283.749 1587.56 Q282.282 1590.44 282.282 1596.23 Q282.282 1602 283.749 1604.9 Q285.235 1607.78 288.169 1607.78 Q291.121 1607.78 292.588 1604.9 Q294.074 1602 294.074 1596.23 Q294.074 1590.44 292.588 1587.56 Q291.121 1584.66 288.169 1584.66 M288.169 1581.65 Q292.889 1581.65 295.372 1585.4 Q297.873 1589.12 297.873 1596.23 Q297.873 1603.32 295.372 1607.06 Q292.889 1610.79 288.169 1610.79 Q283.448 1610.79 280.946 1607.06 Q278.464 1603.32 278.464 1596.23 Q278.464 1589.12 280.946 1585.4 Q283.448 1581.65 288.169 1581.65 Z" fill="#000000" fill-rule="nonzero" fill-opacity="1" /><path clip-path="url(#clip390)" d="M168.412 1072.73 L176.051 1072.73 L176.051 1046.36 L167.741 1048.03 L167.741 1043.77 L176.005 1042.1 L180.681 1042.1 L180.681 1072.73 L188.32 1072.73 L188.32 1076.66 L168.412 1076.66 L168.412 1072.73 Z" fill="#000000" fill-rule="nonzero" fill-opacity="1" /><path clip-path="url(#clip390)" d="M207.764 1045.18 Q204.153 1045.18 202.324 1048.75 Q200.519 1052.29 200.519 1059.42 Q200.519 1066.53 202.324 1070.09 Q204.153 1073.63 207.764 1073.63 Q211.398 1073.63 213.204 1070.09 Q215.032 1066.53 215.032 1059.42 Q215.032 1052.29 213.204 1048.75 Q211.398 1045.18 207.764 1045.18 M207.764 1041.48 Q213.574 1041.48 216.63 1046.09 Q219.708 1050.67 219.708 1059.42 Q219.708 1068.15 216.63 1072.75 Q213.574 1077.34 207.764 1077.34 Q201.954 1077.34 198.875 1072.75 Q195.82 1068.15 195.82 1059.42 Q195.82 1050.67 198.875 1046.09 Q201.954 1041.48 207.764 1041.48 Z" fill="#000000" fill-rule="nonzero" fill-opacity="1" /><path clip-path="url(#clip390)" d="M220.254 1046.06 L226.46 1046.06 L226.46 1024.63 L219.708 1025.99 L219.708 1022.53 L226.423 1021.17 L230.222 1021.17 L230.222 1046.06 L236.428 1046.06 L236.428 1049.25 L220.254 1049.25 L220.254 1046.06 Z" fill="#000000" fill-rule="nonzero" fill-opacity="1" /><path clip-path="url(#clip390)" d="M244.102 1044.48 L248.07 1044.48 L248.07 1049.25 L244.102 1049.25 L244.102 1044.48 Z" fill="#000000" fill-rule="nonzero" fill-opacity="1" /><path clip-path="url(#clip390)" d="M264.471 1023.68 Q261.537 1023.68 260.051 1026.57 Q258.584 1029.45 258.584 1035.24 Q258.584 1041.02 260.051 1043.91 Q261.537 1046.79 264.471 1046.79 Q267.424 1046.79 268.891 1043.91 Q270.376 1041.02 270.376 1035.24 Q270.376 1029.45 268.891 1026.57 Q267.424 1023.68 264.471 1023.68 M264.471 1020.67 Q269.192 1020.67 271.674 1024.41 Q274.176 1028.13 274.176 1035.24 Q274.176 1042.33 271.674 1046.08 Q269.192 1049.8 264.471 1049.8 Q259.75 1049.8 257.249 1046.08 Q254.766 1042.33 254.766 1035.24 Q254.766 1028.13 257.249 1024.41 Q259.75 1020.67 264.471 1020.67 Z" fill="#000000" fill-rule="nonzero" fill-opacity="1" /><path clip-path="url(#clip390)" d="M280.89 1021.17 L295.805 1021.17 L295.805 1024.37 L284.369 1024.37 L284.369 1031.25 Q285.197 1030.97 286.025 1030.84 Q286.852 1030.69 287.68 1030.69 Q292.382 1030.69 295.127 1033.27 Q297.873 1035.84 297.873 1040.24 Q297.873 1044.78 295.052 1047.3 Q292.231 1049.8 287.097 1049.8 Q285.329 1049.8 283.485 1049.5 Q281.661 1049.2 279.705 1048.6 L279.705 1044.78 Q281.398 1045.7 283.203 1046.15 Q285.009 1046.6 287.021 1046.6 Q290.275 1046.6 292.175 1044.89 Q294.074 1043.18 294.074 1040.24 Q294.074 1037.31 292.175 1035.6 Q290.275 1033.89 287.021 1033.89 Q285.498 1033.89 283.974 1034.23 Q282.47 1034.56 280.89 1035.28 L280.89 1021.17 Z" fill="#000000" fill-rule="nonzero" fill-opacity="1" /><path clip-path="url(#clip390)" d="M167.604 511.742 L175.242 511.742 L175.242 485.377 L166.932 487.043 L166.932 482.784 L175.196 481.118 L179.872 481.118 L179.872 511.742 L187.511 511.742 L187.511 515.678 L167.604 515.678 L167.604 511.742 Z" fill="#000000" fill-rule="nonzero" fill-opacity="1" /><path clip-path="url(#clip390)" d="M206.955 484.196 Q203.344 484.196 201.515 487.761 Q199.71 491.303 199.71 498.432 Q199.71 505.539 201.515 509.104 Q203.344 512.645 206.955 512.645 Q210.589 512.645 212.395 509.104 Q214.224 505.539 214.224 498.432 Q214.224 491.303 212.395 487.761 Q210.589 484.196 206.955 484.196 M206.955 480.493 Q212.765 480.493 215.821 485.099 Q218.9 489.682 218.9 498.432 Q218.9 507.159 215.821 511.766 Q212.765 516.349 206.955 516.349 Q201.145 516.349 198.066 511.766 Q195.011 507.159 195.011 498.432 Q195.011 489.682 198.066 485.099 Q201.145 480.493 206.955 480.493 Z" fill="#000000" fill-rule="nonzero" fill-opacity="1" /><path clip-path="url(#clip390)" d="M219.445 485.07 L225.652 485.07 L225.652 463.648 L218.9 465.002 L218.9 461.541 L225.614 460.187 L229.413 460.187 L229.413 485.07 L235.62 485.07 L235.62 488.267 L219.445 488.267 L219.445 485.07 Z" fill="#000000" fill-rule="nonzero" fill-opacity="1" /><path clip-path="url(#clip390)" d="M243.293 483.49 L247.262 483.49 L247.262 488.267 L243.293 488.267 L243.293 483.49 Z" fill="#000000" fill-rule="nonzero" fill-opacity="1" /><path clip-path="url(#clip390)" d="M256.195 485.07 L262.402 485.07 L262.402 463.648 L255.65 465.002 L255.65 461.541 L262.364 460.187 L266.164 460.187 L266.164 485.07 L272.37 485.07 L272.37 488.267 L256.195 488.267 L256.195 485.07 Z" fill="#000000" fill-rule="nonzero" fill-opacity="1" /><path clip-path="url(#clip390)" d="M288.169 462.689 Q285.235 462.689 283.749 465.585 Q282.282 468.463 282.282 474.255 Q282.282 480.029 283.749 482.926 Q285.235 485.803 288.169 485.803 Q291.121 485.803 292.588 482.926 Q294.074 480.029 294.074 474.255 Q294.074 468.463 292.588 465.585 Q291.121 462.689 288.169 462.689 M288.169 459.679 Q292.889 459.679 295.372 463.422 Q297.873 467.146 297.873 474.255 Q297.873 481.346 295.372 485.089 Q292.889 488.813 288.169 488.813 Q283.448 488.813 280.946 485.089 Q278.464 481.346 278.464 474.255 Q278.464 467.146 280.946 463.422 Q283.448 459.679 288.169 459.679 Z" fill="#000000" fill-rule="nonzero" fill-opacity="1" /><path clip-path="url(#clip390)" d="M60.0998 1347.25 L66.263 1347.25 Q63.5141 1350.21 62.1542 1353.56 Q60.7943 1356.89 60.7943 1360.65 Q60.7943 1368.06 65.3371 1371.99 Q69.8509 1375.93 78.4157 1375.93 Q86.9515 1375.93 91.4943 1371.99 Q96.0082 1368.06 96.0082 1360.65 Q96.0082 1356.89 94.6482 1353.56 Q93.2883 1350.21 90.5395 1347.25 L96.6448 1347.25 Q98.7281 1350.32 99.7697 1353.77 Q100.811 1357.18 100.811 1361 Q100.811 1370.81 94.8218 1376.45 Q88.8034 1382.09 78.4157 1382.09 Q67.9991 1382.09 62.0095 1376.45 Q55.991 1370.81 55.991 1361 Q55.991 1357.12 57.0327 1353.71 Q58.0454 1350.26 60.0998 1347.25 Z" fill="#000000" fill-rule="nonzero" fill-opacity="1" /><path clip-path="url(#clip390)" d="M61.5755 1332.38 L77.8081 1332.38 L77.8081 1325.03 Q77.8081 1320.95 75.6958 1318.72 Q73.5835 1316.5 69.6773 1316.5 Q65.8 1316.5 63.6878 1318.72 Q61.5755 1320.95 61.5755 1325.03 L61.5755 1332.38 M56.7723 1338.23 L56.7723 1325.03 Q56.7723 1317.77 60.0709 1314.07 Q63.3405 1310.33 69.6773 1310.33 Q76.0719 1310.33 79.3416 1314.07 Q82.6113 1317.77 82.6113 1325.03 L82.6113 1332.38 L99.9723 1332.38 L99.9723 1338.23 L56.7723 1338.23 Z" fill="#000000" fill-rule="nonzero" fill-opacity="1" /><path clip-path="url(#clip390)" d="M56.7723 1303.16 L56.7723 1297.28 L83.0164 1297.28 Q89.9608 1297.28 93.0279 1294.77 Q96.0661 1292.25 96.0661 1286.61 Q96.0661 1280.99 93.0279 1278.48 Q89.9608 1275.96 83.0164 1275.96 L56.7723 1275.96 L56.7723 1270.08 L83.7397 1270.08 Q92.1888 1270.08 96.5001 1274.28 Q100.811 1278.45 100.811 1286.61 Q100.811 1294.8 96.5001 1298.99 Q92.1888 1303.16 83.7397 1303.16 L56.7723 1303.16 Z" fill="#000000" fill-rule="nonzero" fill-opacity="1" /><path clip-path="url(#clip390)" d="M58.3637 1235.25 L67.565 1235.25 L67.565 1224.28 L71.7028 1224.28 L71.7028 1235.25 L89.2953 1235.25 Q93.2594 1235.25 94.3878 1234.18 Q95.5163 1233.08 95.5163 1229.75 L95.5163 1224.28 L99.9723 1224.28 L99.9723 1229.75 Q99.9723 1235.91 97.6864 1238.26 Q95.3716 1240.6 89.2953 1240.6 L71.7028 1240.6 L71.7028 1244.51 L67.565 1244.51 L67.565 1240.6 L58.3637 1240.6 L58.3637 1235.25 Z" fill="#000000" fill-rule="nonzero" fill-opacity="1" /><path clip-path="url(#clip390)" d="M67.565 1217.28 L67.565 1211.95 L99.9723 1211.95 L99.9723 1217.28 L67.565 1217.28 M54.9494 1217.28 L54.9494 1211.95 L61.6912 1211.95 L61.6912 1217.28 L54.9494 1217.28 Z" fill="#000000" fill-rule="nonzero" fill-opacity="1" /><path clip-path="url(#clip390)" d="M73.7861 1175.58 Q70.1981 1173.59 68.491 1170.81 Q66.7838 1168.03 66.7838 1164.27 Q66.7838 1159.21 70.3428 1156.46 Q73.8729 1153.71 80.4122 1153.71 L99.9723 1153.71 L99.9723 1159.06 L80.5858 1159.06 Q75.9273 1159.06 73.6703 1160.71 Q71.4134 1162.36 71.4134 1165.75 Q71.4134 1169.88 74.1622 1172.28 Q76.9111 1174.69 81.6564 1174.69 L99.9723 1174.69 L99.9723 1180.04 L80.5858 1180.04 Q75.8983 1180.04 73.6703 1181.69 Q71.4134 1183.34 71.4134 1186.78 Q71.4134 1190.86 74.1912 1193.26 Q76.94 1195.66 81.6564 1195.66 L99.9723 1195.66 L99.9723 1201.02 L67.565 1201.02 L67.565 1195.66 L72.5997 1195.66 Q69.6194 1193.84 68.2016 1191.29 Q66.7838 1188.75 66.7838 1185.25 Q66.7838 1181.72 68.5778 1179.26 Q70.3717 1176.77 73.7861 1175.58 Z" fill="#000000" fill-rule="nonzero" fill-opacity="1" /><path clip-path="url(#clip390)" d="M82.4377 1115.37 L85.0418 1115.37 L85.0418 1139.85 Q90.5395 1139.5 93.433 1136.55 Q96.2975 1133.57 96.2975 1128.27 Q96.2975 1125.21 95.5452 1122.34 Q94.7929 1119.45 93.2883 1116.61 L98.323 1116.61 Q99.5383 1119.48 100.175 1122.49 Q100.811 1125.5 100.811 1128.59 Q100.811 1136.35 96.2975 1140.89 Q91.7837 1145.4 84.087 1145.4 Q76.1298 1145.4 71.4713 1141.12 Q66.7838 1136.81 66.7838 1129.52 Q66.7838 1122.98 71.0083 1119.19 Q75.2039 1115.37 82.4377 1115.37 M80.8752 1120.69 Q76.506 1120.75 73.9018 1123.15 Q71.2977 1125.53 71.2977 1129.46 Q71.2977 1133.92 73.815 1136.61 Q76.3324 1139.27 80.9041 1139.67 L80.8752 1120.69 Z" fill="#000000" fill-rule="nonzero" fill-opacity="1" /><path clip-path="url(#clip390)" d="M55.0072 1075.01 Q61.6623 1078.88 68.1727 1080.76 Q74.6831 1082.64 81.3671 1082.64 Q88.0511 1082.64 94.6193 1080.76 Q101.159 1078.85 107.785 1075.01 L107.785 1079.63 Q100.985 1083.97 94.4168 1086.15 Q87.8485 1088.29 81.3671 1088.29 Q74.9145 1088.29 68.3752 1086.15 Q61.8359 1084 55.0072 1079.63 L55.0072 1075.01 Z" fill="#000000" fill-rule="nonzero" fill-opacity="1" /><path clip-path="url(#clip390)" d="M68.5199 1044.02 L73.5546 1044.02 Q72.3972 1046.27 71.8185 1048.7 Q71.2398 1051.13 71.2398 1053.74 Q71.2398 1057.7 72.4551 1059.7 Q73.6703 1061.67 76.1009 1061.67 Q77.9527 1061.67 79.0233 1060.25 Q80.065 1058.83 81.0198 1054.55 L81.4249 1052.73 Q82.6402 1047.05 84.8682 1044.68 Q87.0673 1042.28 91.0314 1042.28 Q95.5452 1042.28 98.1783 1045.87 Q100.811 1049.43 100.811 1055.68 Q100.811 1058.28 100.291 1061.12 Q99.7987 1063.92 98.7859 1067.05 L93.2883 1067.05 Q94.8218 1064.1 95.6031 1061.23 Q96.3554 1058.37 96.3554 1055.56 Q96.3554 1051.8 95.0823 1049.77 Q93.7802 1047.75 91.4364 1047.75 Q89.2663 1047.75 88.1089 1049.22 Q86.9515 1050.67 85.8809 1055.62 L85.4469 1057.47 Q84.4052 1062.42 82.264 1064.62 Q80.0939 1066.82 76.3324 1066.82 Q71.7606 1066.82 69.2722 1063.58 Q66.7838 1060.33 66.7838 1054.37 Q66.7838 1051.42 67.2178 1048.82 Q67.6519 1046.21 68.5199 1044.02 Z" fill="#000000" fill-rule="nonzero" fill-opacity="1" /><path clip-path="url(#clip390)" d="M55.0072 1034.64 L55.0072 1030.01 Q61.8359 1025.67 68.3752 1023.53 Q74.9145 1021.36 81.3671 1021.36 Q87.8485 1021.36 94.4168 1023.53 Q100.985 1025.67 107.785 1030.01 L107.785 1034.64 Q101.159 1030.79 94.6193 1028.91 Q88.0511 1027 81.3671 1027 Q74.6831 1027 68.1727 1028.91 Q61.6623 1030.79 55.0072 1034.64 Z" fill="#000000" fill-rule="nonzero" fill-opacity="1" /><path clip-path="url(#clip390)" d="M1143.21 123.984 L1151.39 123.984 L1151.39 184.464 L1143.21 184.464 L1143.21 123.984 Z" fill="#000000" fill-rule="nonzero" fill-opacity="1" /><path clip-path="url(#clip390)" d="M1174.72 126.212 L1174.72 139.094 L1190.08 139.094 L1190.08 144.887 L1174.72 144.887 L1174.72 169.516 Q1174.72 175.066 1176.22 176.646 Q1177.76 178.226 1182.42 178.226 L1190.08 178.226 L1190.08 184.464 L1182.42 184.464 Q1173.79 184.464 1170.51 181.264 Q1167.23 178.023 1167.23 169.516 L1167.23 144.887 L1161.76 144.887 L1161.76 139.094 L1167.23 139.094 L1167.23 126.212 L1174.72 126.212 Z" fill="#000000" fill-rule="nonzero" fill-opacity="1" /><path clip-path="url(#clip390)" d="M1238.69 159.916 L1238.69 163.561 L1204.42 163.561 Q1204.9 171.258 1209.03 175.309 Q1213.21 179.319 1220.62 179.319 Q1224.91 179.319 1228.92 178.266 Q1232.98 177.213 1236.95 175.106 L1236.95 182.155 Q1232.93 183.856 1228.72 184.748 Q1224.51 185.639 1220.17 185.639 Q1209.32 185.639 1202.96 179.319 Q1196.64 173 1196.64 162.225 Q1196.64 151.085 1202.63 144.563 Q1208.67 138 1218.88 138 Q1228.03 138 1233.34 143.914 Q1238.69 149.788 1238.69 159.916 M1231.23 157.728 Q1231.15 151.611 1227.79 147.965 Q1224.47 144.32 1218.96 144.32 Q1212.72 144.32 1208.95 147.844 Q1205.23 151.368 1204.66 157.769 L1231.23 157.728 Z" fill="#000000" fill-rule="nonzero" fill-opacity="1" /><path clip-path="url(#clip390)" d="M1277.21 146.061 Q1275.96 145.332 1274.46 145.008 Q1273 144.644 1271.22 144.644 Q1264.9 144.644 1261.49 148.776 Q1258.13 152.867 1258.13 160.564 L1258.13 184.464 L1250.64 184.464 L1250.64 139.094 L1258.13 139.094 L1258.13 146.142 Q1260.48 142.011 1264.25 140.026 Q1268.02 138 1273.4 138 Q1274.17 138 1275.1 138.122 Q1276.04 138.203 1277.17 138.405 L1277.21 146.061 Z" fill="#000000" fill-rule="nonzero" fill-opacity="1" /><path clip-path="url(#clip390)" d="M1305.65 161.657 Q1296.62 161.657 1293.13 163.723 Q1289.65 165.789 1289.65 170.772 Q1289.65 174.742 1292.24 177.091 Q1294.87 179.4 1299.37 179.4 Q1305.57 179.4 1309.29 175.025 Q1313.06 170.61 1313.06 163.318 L1313.06 161.657 L1305.65 161.657 M1320.52 158.579 L1320.52 184.464 L1313.06 184.464 L1313.06 177.577 Q1310.51 181.709 1306.7 183.694 Q1302.89 185.639 1297.38 185.639 Q1290.42 185.639 1286.29 181.75 Q1282.19 177.821 1282.19 171.258 Q1282.19 163.602 1287.3 159.713 Q1292.44 155.824 1302.61 155.824 L1313.06 155.824 L1313.06 155.095 Q1313.06 149.95 1309.66 147.155 Q1306.3 144.32 1300.18 144.32 Q1296.29 144.32 1292.6 145.251 Q1288.92 146.183 1285.52 148.046 L1285.52 141.16 Q1289.61 139.58 1293.46 138.81 Q1297.3 138 1300.95 138 Q1310.79 138 1315.65 143.104 Q1320.52 148.208 1320.52 158.579 Z" fill="#000000" fill-rule="nonzero" fill-opacity="1" /><path clip-path="url(#clip390)" d="M1343.24 126.212 L1343.24 139.094 L1358.59 139.094 L1358.59 144.887 L1343.24 144.887 L1343.24 169.516 Q1343.24 175.066 1344.74 176.646 Q1346.28 178.226 1350.94 178.226 L1358.59 178.226 L1358.59 184.464 L1350.94 184.464 Q1342.31 184.464 1339.03 181.264 Q1335.75 178.023 1335.75 169.516 L1335.75 144.887 L1330.28 144.887 L1330.28 139.094 L1335.75 139.094 L1335.75 126.212 L1343.24 126.212 Z" fill="#000000" fill-rule="nonzero" fill-opacity="1" /><path clip-path="url(#clip390)" d="M1368.4 139.094 L1375.85 139.094 L1375.85 184.464 L1368.4 184.464 L1368.4 139.094 M1368.4 121.432 L1375.85 121.432 L1375.85 130.871 L1368.4 130.871 L1368.4 121.432 Z" fill="#000000" fill-rule="nonzero" fill-opacity="1" /><path clip-path="url(#clip390)" d="M1409.03 144.32 Q1403.03 144.32 1399.55 149.019 Q1396.06 153.677 1396.06 161.819 Q1396.06 169.962 1399.51 174.661 Q1402.99 179.319 1409.03 179.319 Q1414.98 179.319 1418.47 174.62 Q1421.95 169.921 1421.95 161.819 Q1421.95 153.758 1418.47 149.059 Q1414.98 144.32 1409.03 144.32 M1409.03 138 Q1418.75 138 1424.3 144.32 Q1429.85 150.639 1429.85 161.819 Q1429.85 172.959 1424.3 179.319 Q1418.75 185.639 1409.03 185.639 Q1399.26 185.639 1393.72 179.319 Q1388.21 172.959 1388.21 161.819 Q1388.21 150.639 1393.72 144.32 Q1399.26 138 1409.03 138 Z" fill="#000000" fill-rule="nonzero" fill-opacity="1" /><path clip-path="url(#clip390)" d="M1479.92 157.08 L1479.92 184.464 L1472.46 184.464 L1472.46 157.323 Q1472.46 150.882 1469.95 147.682 Q1467.44 144.482 1462.42 144.482 Q1456.38 144.482 1452.9 148.33 Q1449.42 152.178 1449.42 158.822 L1449.42 184.464 L1441.92 184.464 L1441.92 139.094 L1449.42 139.094 L1449.42 146.142 Q1452.09 142.051 1455.69 140.026 Q1459.34 138 1464.08 138 Q1471.9 138 1475.91 142.861 Q1479.92 147.682 1479.92 157.08 Z" fill="#000000" fill-rule="nonzero" fill-opacity="1" /><path clip-path="url(#clip390)" d="M1523.71 140.431 L1523.71 147.479 Q1520.55 145.859 1517.15 145.049 Q1513.74 144.239 1510.1 144.239 Q1504.55 144.239 1501.75 145.94 Q1499 147.641 1499 151.044 Q1499 153.637 1500.98 155.135 Q1502.97 156.594 1508.96 157.931 L1511.52 158.498 Q1519.46 160.199 1522.78 163.318 Q1526.14 166.397 1526.14 171.947 Q1526.14 178.266 1521.12 181.952 Q1516.13 185.639 1507.38 185.639 Q1503.74 185.639 1499.77 184.91 Q1495.84 184.221 1491.46 182.803 L1491.46 175.106 Q1495.6 177.253 1499.61 178.347 Q1503.62 179.4 1507.55 179.4 Q1512.81 179.4 1515.65 177.618 Q1518.48 175.795 1518.48 172.514 Q1518.48 169.476 1516.42 167.855 Q1514.39 166.235 1507.46 164.736 L1504.87 164.128 Q1497.94 162.67 1494.87 159.672 Q1491.79 156.634 1491.79 151.368 Q1491.79 144.968 1496.32 141.484 Q1500.86 138 1509.21 138 Q1513.34 138 1516.98 138.608 Q1520.63 139.215 1523.71 140.431 Z" fill="#000000" fill-rule="nonzero" fill-opacity="1" /><path clip-path="url(#clip390)" d="M1559.03 139.094 L1566.93 139.094 L1581.11 177.172 L1595.29 139.094 L1603.19 139.094 L1586.17 184.464 L1576.05 184.464 L1559.03 139.094 Z" fill="#000000" fill-rule="nonzero" fill-opacity="1" /><path clip-path="url(#clip390)" d="M1642.4 140.431 L1642.4 147.479 Q1639.24 145.859 1635.84 145.049 Q1632.44 144.239 1628.79 144.239 Q1623.24 144.239 1620.44 145.94 Q1617.69 147.641 1617.69 151.044 Q1617.69 153.637 1619.67 155.135 Q1621.66 156.594 1627.65 157.931 L1630.21 158.498 Q1638.15 160.199 1641.47 163.318 Q1644.83 166.397 1644.83 171.947 Q1644.83 178.266 1639.81 181.952 Q1634.83 185.639 1626.08 185.639 Q1622.43 185.639 1618.46 184.91 Q1614.53 184.221 1610.16 182.803 L1610.16 175.106 Q1614.29 177.253 1618.3 178.347 Q1622.31 179.4 1626.24 179.4 Q1631.5 179.4 1634.34 177.618 Q1637.17 175.795 1637.17 172.514 Q1637.17 169.476 1635.11 167.855 Q1633.08 166.235 1626.16 164.736 L1623.56 164.128 Q1616.64 162.67 1613.56 159.672 Q1610.48 156.634 1610.48 151.368 Q1610.48 144.968 1615.02 141.484 Q1619.55 138 1627.9 138 Q1632.03 138 1635.68 138.608 Q1639.32 139.215 1642.4 140.431 Z" fill="#000000" fill-rule="nonzero" fill-opacity="1" /><path clip-path="url(#clip390)" d="M1728.68 128.643 L1728.68 137.271 Q1724.55 133.423 1719.85 131.519 Q1715.19 129.615 1709.93 129.615 Q1699.56 129.615 1694.05 135.975 Q1688.54 142.294 1688.54 154.285 Q1688.54 166.235 1694.05 172.595 Q1699.56 178.914 1709.93 178.914 Q1715.19 178.914 1719.85 177.01 Q1724.55 175.106 1728.68 171.258 L1728.68 179.805 Q1724.39 182.722 1719.57 184.18 Q1714.79 185.639 1709.44 185.639 Q1695.71 185.639 1687.81 177.253 Q1679.91 168.828 1679.91 154.285 Q1679.91 139.702 1687.81 131.316 Q1695.71 122.89 1709.44 122.89 Q1714.87 122.89 1719.65 124.349 Q1724.47 125.766 1728.68 128.643 Z" fill="#000000" fill-rule="nonzero" fill-opacity="1" /><path clip-path="url(#clip390)" d="M1749.51 130.709 L1749.51 153.434 L1759.8 153.434 Q1765.51 153.434 1768.63 150.477 Q1771.75 147.52 1771.75 142.051 Q1771.75 136.623 1768.63 133.666 Q1765.51 130.709 1759.8 130.709 L1749.51 130.709 M1741.32 123.984 L1759.8 123.984 Q1769.96 123.984 1775.15 128.602 Q1780.37 133.18 1780.37 142.051 Q1780.37 151.004 1775.15 155.581 Q1769.96 160.159 1759.8 160.159 L1749.51 160.159 L1749.51 184.464 L1741.32 184.464 L1741.32 123.984 Z" fill="#000000" fill-rule="nonzero" fill-opacity="1" /><path clip-path="url(#clip390)" d="M1790.42 123.984 L1798.64 123.984 L1798.64 160.726 Q1798.64 170.448 1802.17 174.742 Q1805.69 178.995 1813.59 178.995 Q1821.45 178.995 1824.97 174.742 Q1828.5 170.448 1828.5 160.726 L1828.5 123.984 L1836.72 123.984 L1836.72 161.738 Q1836.72 173.567 1830.85 179.603 Q1825.01 185.639 1813.59 185.639 Q1802.13 185.639 1796.25 179.603 Q1790.42 173.567 1790.42 161.738 L1790.42 123.984 Z" fill="#000000" fill-rule="nonzero" fill-opacity="1" /><path clip-path="url(#clip390)" d="M1885.49 126.212 L1885.49 139.094 L1900.85 139.094 L1900.85 144.887 L1885.49 144.887 L1885.49 169.516 Q1885.49 175.066 1886.99 176.646 Q1888.53 178.226 1893.19 178.226 L1900.85 178.226 L1900.85 184.464 L1893.19 184.464 Q1884.56 184.464 1881.28 181.264 Q1878 178.023 1878 169.516 L1878 144.887 L1872.53 144.887 L1872.53 139.094 L1878 139.094 L1878 126.212 L1885.49 126.212 Z" fill="#000000" fill-rule="nonzero" fill-opacity="1" /><path clip-path="url(#clip390)" d="M1910.65 139.094 L1918.1 139.094 L1918.1 184.464 L1910.65 184.464 L1910.65 139.094 M1910.65 121.432 L1918.1 121.432 L1918.1 130.871 L1910.65 130.871 L1910.65 121.432 Z" fill="#000000" fill-rule="nonzero" fill-opacity="1" /><path clip-path="url(#clip390)" d="M1969.02 147.803 Q1971.82 142.78 1975.71 140.39 Q1979.6 138 1984.86 138 Q1991.95 138 1995.8 142.983 Q1999.65 147.925 1999.65 157.08 L1999.65 184.464 L1992.16 184.464 L1992.16 157.323 Q1992.16 150.801 1989.85 147.641 Q1987.54 144.482 1982.8 144.482 Q1977 144.482 1973.64 148.33 Q1970.28 152.178 1970.28 158.822 L1970.28 184.464 L1962.79 184.464 L1962.79 157.323 Q1962.79 150.76 1960.48 147.641 Q1958.17 144.482 1953.35 144.482 Q1947.64 144.482 1944.27 148.37 Q1940.91 152.219 1940.91 158.822 L1940.91 184.464 L1933.42 184.464 L1933.42 139.094 L1940.91 139.094 L1940.91 146.142 Q1943.46 141.97 1947.03 139.985 Q1950.59 138 1955.49 138 Q1960.44 138 1963.88 140.512 Q1967.36 143.023 1969.02 147.803 Z" fill="#000000" fill-rule="nonzero" fill-opacity="1" /><path clip-path="url(#clip390)" d="M2053.32 159.916 L2053.32 163.561 L2019.05 163.561 Q2019.54 171.258 2023.67 175.309 Q2027.84 179.319 2035.26 179.319 Q2039.55 179.319 2043.56 178.266 Q2047.61 177.213 2051.58 175.106 L2051.58 182.155 Q2047.57 183.856 2043.36 184.748 Q2039.15 185.639 2034.81 185.639 Q2023.95 185.639 2017.59 179.319 Q2011.28 173 2011.28 162.225 Q2011.28 151.085 2017.27 144.563 Q2023.31 138 2033.52 138 Q2042.67 138 2047.98 143.914 Q2053.32 149.788 2053.32 159.916 M2045.87 157.728 Q2045.79 151.611 2042.43 147.965 Q2039.11 144.32 2033.6 144.32 Q2027.36 144.32 2023.59 147.844 Q2019.86 151.368 2019.3 157.769 L2045.87 157.728 Z" fill="#000000" fill-rule="nonzero" fill-opacity="1" /><path clip-path="url(#clip390)" d="M2088.16 158.822 L2163.02 158.822 L2163.02 164.655 L2088.16 164.655 L2088.16 158.822 Z" fill="#000000" fill-rule="nonzero" fill-opacity="1" /><path clip-path="url(#clip390)" d="M2230.19 140.431 L2230.19 147.479 Q2227.03 145.859 2223.62 145.049 Q2220.22 144.239 2216.58 144.239 Q2211.03 144.239 2208.23 145.94 Q2205.48 147.641 2205.48 151.044 Q2205.48 153.637 2207.46 155.135 Q2209.45 156.594 2215.44 157.931 L2217.99 158.498 Q2225.93 160.199 2229.25 163.318 Q2232.62 166.397 2232.62 171.947 Q2232.62 178.266 2227.59 181.952 Q2222.61 185.639 2213.86 185.639 Q2210.22 185.639 2206.25 184.91 Q2202.32 184.221 2197.94 182.803 L2197.94 175.106 Q2202.07 177.253 2206.08 178.347 Q2210.09 179.4 2214.02 179.4 Q2219.29 179.4 2222.13 177.618 Q2224.96 175.795 2224.96 172.514 Q2224.96 169.476 2222.89 167.855 Q2220.87 166.235 2213.94 164.736 L2211.35 164.128 Q2204.42 162.67 2201.34 159.672 Q2198.27 156.634 2198.27 151.368 Q2198.27 144.968 2202.8 141.484 Q2207.34 138 2215.68 138 Q2219.82 138 2223.46 138.608 Q2227.11 139.215 2230.19 140.431 Z" fill="#000000" fill-rule="nonzero" fill-opacity="1" /><path clip-path="url(#clip390)" d="M2251.7 177.658 L2251.7 201.721 L2244.2 201.721 L2244.2 139.094 L2251.7 139.094 L2251.7 145.98 Q2254.05 141.93 2257.61 139.985 Q2261.22 138 2266.2 138 Q2274.46 138 2279.61 144.563 Q2284.79 151.125 2284.79 161.819 Q2284.79 172.514 2279.61 179.076 Q2274.46 185.639 2266.2 185.639 Q2261.22 185.639 2257.61 183.694 Q2254.05 181.709 2251.7 177.658 M2277.06 161.819 Q2277.06 153.596 2273.65 148.938 Q2270.29 144.239 2264.38 144.239 Q2258.46 144.239 2255.06 148.938 Q2251.7 153.596 2251.7 161.819 Q2251.7 170.043 2255.06 174.742 Q2258.46 179.4 2264.38 179.4 Q2270.29 179.4 2273.65 174.742 Q2277.06 170.043 2277.06 161.819 Z" fill="#000000" fill-rule="nonzero" fill-opacity="1" /><path clip-path="url(#clip390)" d="M2317.77 161.657 Q2308.73 161.657 2305.25 163.723 Q2301.77 165.789 2301.77 170.772 Q2301.77 174.742 2304.36 177.091 Q2306.99 179.4 2311.49 179.4 Q2317.69 179.4 2321.41 175.025 Q2325.18 170.61 2325.18 163.318 L2325.18 161.657 L2317.77 161.657 M2332.63 158.579 L2332.63 184.464 L2325.18 184.464 L2325.18 177.577 Q2322.63 181.709 2318.82 183.694 Q2315.01 185.639 2309.5 185.639 Q2302.54 185.639 2298.4 181.75 Q2294.31 177.821 2294.31 171.258 Q2294.31 163.602 2299.42 159.713 Q2304.56 155.824 2314.73 155.824 L2325.18 155.824 L2325.18 155.095 Q2325.18 149.95 2321.78 147.155 Q2318.42 144.32 2312.3 144.32 Q2308.41 144.32 2304.72 145.251 Q2301.04 146.183 2297.63 148.046 L2297.63 141.16 Q2301.73 139.58 2305.57 138.81 Q2309.42 138 2313.07 138 Q2322.91 138 2327.77 143.104 Q2332.63 148.208 2332.63 158.579 Z" fill="#000000" fill-rule="nonzero" fill-opacity="1" /><path clip-path="url(#clip390)" d="M2380.64 140.836 L2380.64 147.803 Q2377.48 146.061 2374.28 145.211 Q2371.12 144.32 2367.88 144.32 Q2360.63 144.32 2356.62 148.938 Q2352.6 153.515 2352.6 161.819 Q2352.6 170.124 2356.62 174.742 Q2360.63 179.319 2367.88 179.319 Q2371.12 179.319 2374.28 178.469 Q2377.48 177.577 2380.64 175.836 L2380.64 182.722 Q2377.52 184.18 2374.16 184.91 Q2370.83 185.639 2367.07 185.639 Q2356.82 185.639 2350.78 179.198 Q2344.75 172.757 2344.75 161.819 Q2344.75 150.72 2350.82 144.36 Q2356.94 138 2367.55 138 Q2371 138 2374.28 138.729 Q2377.56 139.418 2380.64 140.836 Z" fill="#000000" fill-rule="nonzero" fill-opacity="1" /><path clip-path="url(#clip390)" d="M2432.41 159.916 L2432.41 163.561 L2398.14 163.561 Q2398.62 171.258 2402.75 175.309 Q2406.93 179.319 2414.34 179.319 Q2418.63 179.319 2422.64 178.266 Q2426.7 177.213 2430.67 175.106 L2430.67 182.155 Q2426.66 183.856 2422.44 184.748 Q2418.23 185.639 2413.89 185.639 Q2403.04 185.639 2396.68 179.319 Q2390.36 173 2390.36 162.225 Q2390.36 151.085 2396.35 144.563 Q2402.39 138 2412.6 138 Q2421.75 138 2427.06 143.914 Q2432.41 149.788 2432.41 159.916 M2424.95 157.728 Q2424.87 151.611 2421.51 147.965 Q2418.19 144.32 2412.68 144.32 Q2406.44 144.32 2402.67 147.844 Q2398.95 151.368 2398.38 157.769 L2424.95 157.728 Z" fill="#000000" fill-rule="nonzero" fill-opacity="1" /><path clip-path="url(#clip390)" d="M2479.11 198.237 L2479.11 204.03 L2436.01 204.03 L2436.01 198.237 L2479.11 198.237 Z" fill="#000000" fill-rule="nonzero" fill-opacity="1" /><path clip-path="url(#clip390)" d="M2515.05 140.431 L2515.05 147.479 Q2511.89 145.859 2508.48 145.049 Q2505.08 144.239 2501.43 144.239 Q2495.89 144.239 2493.09 145.94 Q2490.34 147.641 2490.34 151.044 Q2490.34 153.637 2492.32 155.135 Q2494.31 156.594 2500.3 157.931 L2502.85 158.498 Q2510.79 160.199 2514.11 163.318 Q2517.48 166.397 2517.48 171.947 Q2517.48 178.266 2512.45 181.952 Q2507.47 185.639 2498.72 185.639 Q2495.08 185.639 2491.11 184.91 Q2487.18 184.221 2482.8 182.803 L2482.8 175.106 Q2486.93 177.253 2490.94 178.347 Q2494.95 179.4 2498.88 179.4 Q2504.15 179.4 2506.98 177.618 Q2509.82 175.795 2509.82 172.514 Q2509.82 169.476 2507.75 167.855 Q2505.73 166.235 2498.8 164.736 L2496.21 164.128 Q2489.28 162.67 2486.2 159.672 Q2483.12 156.634 2483.12 151.368 Q2483.12 144.968 2487.66 141.484 Q2492.2 138 2500.54 138 Q2504.68 138 2508.32 138.608 Q2511.97 139.215 2515.05 140.431 Z" fill="#000000" fill-rule="nonzero" fill-opacity="1" /><path clip-path="url(#clip390)" d="M2567.06 157.08 L2567.06 184.464 L2559.61 184.464 L2559.61 157.323 Q2559.61 150.882 2557.09 147.682 Q2554.58 144.482 2549.56 144.482 Q2543.52 144.482 2540.04 148.33 Q2536.56 152.178 2536.56 158.822 L2536.56 184.464 L2529.06 184.464 L2529.06 121.432 L2536.56 121.432 L2536.56 146.142 Q2539.23 142.051 2542.84 140.026 Q2546.48 138 2551.22 138 Q2559.04 138 2563.05 142.861 Q2567.06 147.682 2567.06 157.08 Z" fill="#000000" fill-rule="nonzero" fill-opacity="1" /><path clip-path="url(#clip390)" d="M2581.16 166.559 L2581.16 139.094 L2588.61 139.094 L2588.61 166.275 Q2588.61 172.716 2591.12 175.957 Q2593.63 179.157 2598.66 179.157 Q2604.69 179.157 2608.18 175.309 Q2611.7 171.461 2611.7 164.817 L2611.7 139.094 L2619.15 139.094 L2619.15 184.464 L2611.7 184.464 L2611.7 177.496 Q2608.99 181.628 2605.38 183.654 Q2601.82 185.639 2597.08 185.639 Q2589.26 185.639 2585.21 180.778 Q2581.16 175.917 2581.16 166.559 M2599.91 138 L2599.91 138 Z" fill="#000000" fill-rule="nonzero" fill-opacity="1" /><path clip-path="url(#clip390)" d="M2641.88 126.212 L2641.88 139.094 L2657.23 139.094 L2657.23 144.887 L2641.88 144.887 L2641.88 169.516 Q2641.88 175.066 2643.38 176.646 Q2644.92 178.226 2649.58 178.226 L2657.23 178.226 L2657.23 184.464 L2649.58 184.464 Q2640.95 184.464 2637.67 181.264 Q2634.39 178.023 2634.39 169.516 L2634.39 144.887 L2628.92 144.887 L2628.92 139.094 L2634.39 139.094 L2634.39 126.212 L2641.88 126.212 Z" fill="#000000" fill-rule="nonzero" fill-opacity="1" /><path clip-path="url(#clip390)" d="M2674.41 126.212 L2674.41 139.094 L2689.76 139.094 L2689.76 144.887 L2674.41 144.887 L2674.41 169.516 Q2674.41 175.066 2675.91 176.646 Q2677.45 178.226 2682.11 178.226 L2689.76 178.226 L2689.76 184.464 L2682.11 184.464 Q2673.48 184.464 2670.2 181.264 Q2666.91 178.023 2666.91 169.516 L2666.91 144.887 L2661.45 144.887 L2661.45 139.094 L2666.91 139.094 L2666.91 126.212 L2674.41 126.212 Z" fill="#000000" fill-rule="nonzero" fill-opacity="1" /><path clip-path="url(#clip390)" d="M2699.56 121.432 L2707.02 121.432 L2707.02 184.464 L2699.56 184.464 L2699.56 121.432 Z" fill="#000000" fill-rule="nonzero" fill-opacity="1" /><path clip-path="url(#clip390)" d="M2761.42 159.916 L2761.42 163.561 L2727.15 163.561 Q2727.64 171.258 2731.77 175.309 Q2735.94 179.319 2743.35 179.319 Q2747.65 179.319 2751.66 178.266 Q2755.71 177.213 2759.68 175.106 L2759.68 182.155 Q2755.67 183.856 2751.46 184.748 Q2747.24 185.639 2742.91 185.639 Q2732.05 185.639 2725.69 179.319 Q2719.37 173 2719.37 162.225 Q2719.37 151.085 2725.37 144.563 Q2731.4 138 2741.61 138 Q2750.77 138 2756.07 143.914 Q2761.42 149.788 2761.42 159.916 M2753.97 157.728 Q2753.89 151.611 2750.53 147.965 Q2747.2 144.32 2741.69 144.32 Q2735.46 144.32 2731.69 147.844 Q2727.96 151.368 2727.39 157.769 L2753.97 157.728 Z" fill="#000000" fill-rule="nonzero" fill-opacity="1" /><path clip-path="url(#clip392)" d="M442.464 276.989 L418.464 324.989 L466.464 324.989 L442.464 276.989 Z" fill="#ffa500" fill-rule="evenodd" fill-opacity="1" stroke="none"/>
<path clip-path="url(#clip392)" d="M3462.16 2126.46 L3441.38 2114.46 L3441.38 2090.46 L3462.16 2078.46 L3482.95 2090.46 L3482.95 2114.46 Z" fill="#00ffff" fill-rule="evenodd" fill-opacity="1" stroke="none"/>
<path clip-path="url(#clip390)" d="M2688.98 466.116 L3446.06 466.116 L3446.06 310.596 L2688.98 310.596  Z" fill="#ffffff" fill-rule="evenodd" fill-opacity="1"/>
<polyline clip-path="url(#clip390)" style="stroke:#000000; stroke-linecap:round; stroke-linejoin:round; stroke-width:4; stroke-opacity:1; fill:none" points="2688.98,466.116 3446.06,466.116 3446.06,310.596 2688.98,310.596 2688.98,466.116 "/>
<path clip-path="url(#clip390)" d="M2831.24 336.836 L2805.64 388.036 L2856.84 388.036 L2831.24 336.836 Z" fill="#ffa500" fill-rule="evenodd" fill-opacity="1" stroke="none"/>
<path clip-path="url(#clip390)" d="M2984.13 343.744 Q2981.03 349.068 2979.52 354.277 Q2978.02 359.485 2978.02 364.832 Q2978.02 370.179 2979.52 375.434 Q2981.05 380.665 2984.13 385.966 L2980.43 385.966 Q2976.96 380.527 2975.22 375.272 Q2973.51 370.017 2973.51 364.832 Q2973.51 359.67 2975.22 354.439 Q2976.93 349.207 2980.43 343.744 L2984.13 343.744 Z" fill="#000000" fill-rule="nonzero" fill-opacity="1" /><path clip-path="url(#clip390)" d="M3014.57 365.689 L3014.57 367.772 L2994.99 367.772 Q2995.27 372.17 2997.63 374.485 Q3000.01 376.777 3004.25 376.777 Q3006.7 376.777 3008.99 376.175 Q3011.31 375.573 3013.58 374.369 L3013.58 378.397 Q3011.28 379.369 3008.88 379.878 Q3006.47 380.388 3003.99 380.388 Q2997.79 380.388 2994.15 376.777 Q2990.54 373.165 2990.54 367.008 Q2990.54 360.642 2993.97 356.916 Q2997.42 353.166 3003.25 353.166 Q3008.48 353.166 3011.52 356.545 Q3014.57 359.902 3014.57 365.689 M3010.31 364.439 Q3010.27 360.943 3008.34 358.86 Q3006.45 356.777 3003.3 356.777 Q2999.73 356.777 2997.58 358.791 Q2995.45 360.804 2995.13 364.462 L3010.31 364.439 Z" fill="#000000" fill-rule="nonzero" fill-opacity="1" /><path clip-path="url(#clip390)" d="M3042.28 353.791 L3032.9 366.406 L3042.76 379.716 L3037.74 379.716 L3030.2 369.531 L3022.65 379.716 L3017.63 379.716 L3027.7 366.152 L3018.48 353.791 L3023.51 353.791 L3030.38 363.027 L3037.26 353.791 L3042.28 353.791 Z" fill="#000000" fill-rule="nonzero" fill-opacity="1" /><path clip-path="url(#clip390)" d="M3060.57 366.684 Q3055.4 366.684 3053.41 367.865 Q3051.42 369.045 3051.42 371.892 Q3051.42 374.161 3052.9 375.503 Q3054.41 376.823 3056.98 376.823 Q3060.52 376.823 3062.65 374.323 Q3064.8 371.8 3064.8 367.633 L3064.8 366.684 L3060.57 366.684 M3069.06 364.925 L3069.06 379.716 L3064.8 379.716 L3064.8 375.781 Q3063.34 378.142 3061.17 379.277 Q3058.99 380.388 3055.84 380.388 Q3051.86 380.388 3049.5 378.165 Q3047.16 375.92 3047.16 372.17 Q3047.16 367.795 3050.08 365.573 Q3053.02 363.351 3058.83 363.351 L3064.8 363.351 L3064.8 362.934 Q3064.8 359.994 3062.86 358.397 Q3060.94 356.777 3057.44 356.777 Q3055.22 356.777 3053.11 357.309 Q3051.01 357.841 3049.06 358.906 L3049.06 354.971 Q3051.4 354.068 3053.6 353.629 Q3055.8 353.166 3057.88 353.166 Q3063.51 353.166 3066.28 356.082 Q3069.06 358.999 3069.06 364.925 Z" fill="#000000" fill-rule="nonzero" fill-opacity="1" /><path clip-path="url(#clip390)" d="M3078.92 373.837 L3083.81 373.837 L3083.81 377.818 L3080.01 385.226 L3077.02 385.226 L3078.92 377.818 L3078.92 373.837 Z" fill="#000000" fill-rule="nonzero" fill-opacity="1" /><path clip-path="url(#clip390)" d="M3128.16 358.767 Q3129.76 355.897 3131.98 354.531 Q3134.2 353.166 3137.21 353.166 Q3141.26 353.166 3143.46 356.013 Q3145.66 358.837 3145.66 364.068 L3145.66 379.716 L3141.38 379.716 L3141.38 364.207 Q3141.38 360.48 3140.06 358.675 Q3138.74 356.869 3136.03 356.869 Q3132.72 356.869 3130.8 359.068 Q3128.88 361.267 3128.88 365.064 L3128.88 379.716 L3124.59 379.716 L3124.59 364.207 Q3124.59 360.457 3123.27 358.675 Q3121.95 356.869 3119.2 356.869 Q3115.94 356.869 3114.01 359.091 Q3112.09 361.291 3112.09 365.064 L3112.09 379.716 L3107.81 379.716 L3107.81 353.791 L3112.09 353.791 L3112.09 357.818 Q3113.55 355.434 3115.59 354.3 Q3117.63 353.166 3120.43 353.166 Q3123.25 353.166 3125.22 354.601 Q3127.21 356.036 3128.16 358.767 Z" fill="#000000" fill-rule="nonzero" fill-opacity="1" /><path clip-path="url(#clip390)" d="M3165.94 366.684 Q3160.77 366.684 3158.78 367.865 Q3156.79 369.045 3156.79 371.892 Q3156.79 374.161 3158.27 375.503 Q3159.78 376.823 3162.35 376.823 Q3165.89 376.823 3168.02 374.323 Q3170.17 371.8 3170.17 367.633 L3170.17 366.684 L3165.94 366.684 M3174.43 364.925 L3174.43 379.716 L3170.17 379.716 L3170.17 375.781 Q3168.71 378.142 3166.54 379.277 Q3164.36 380.388 3161.21 380.388 Q3157.23 380.388 3154.87 378.165 Q3152.53 375.92 3152.53 372.17 Q3152.53 367.795 3155.45 365.573 Q3158.39 363.351 3164.2 363.351 L3170.17 363.351 L3170.17 362.934 Q3170.17 359.994 3168.23 358.397 Q3166.31 356.777 3162.81 356.777 Q3160.59 356.777 3158.48 357.309 Q3156.38 357.841 3154.43 358.906 L3154.43 354.971 Q3156.77 354.068 3158.97 353.629 Q3161.17 353.166 3163.25 353.166 Q3168.88 353.166 3171.65 356.082 Q3174.43 358.999 3174.43 364.925 Z" fill="#000000" fill-rule="nonzero" fill-opacity="1" /><path clip-path="url(#clip390)" d="M3200.26 357.726 L3200.26 343.698 L3204.52 343.698 L3204.52 379.716 L3200.26 379.716 L3200.26 375.827 Q3198.92 378.142 3196.86 379.277 Q3194.82 380.388 3191.95 380.388 Q3187.25 380.388 3184.29 376.638 Q3181.35 372.888 3181.35 366.777 Q3181.35 360.666 3184.29 356.916 Q3187.25 353.166 3191.95 353.166 Q3194.82 353.166 3196.86 354.3 Q3198.92 355.411 3200.26 357.726 M3185.75 366.777 Q3185.75 371.476 3187.67 374.161 Q3189.62 376.823 3193 376.823 Q3196.38 376.823 3198.32 374.161 Q3200.26 371.476 3200.26 366.777 Q3200.26 362.078 3198.32 359.416 Q3196.38 356.73 3193 356.73 Q3189.62 356.73 3187.67 359.416 Q3185.75 362.078 3185.75 366.777 Z" fill="#000000" fill-rule="nonzero" fill-opacity="1" /><path clip-path="url(#clip390)" d="M3234.85 364.068 L3234.85 379.716 L3230.59 379.716 L3230.59 364.207 Q3230.59 360.527 3229.15 358.698 Q3227.72 356.869 3224.85 356.869 Q3221.4 356.869 3219.41 359.068 Q3217.42 361.267 3217.42 365.064 L3217.42 379.716 L3213.13 379.716 L3213.13 353.791 L3217.42 353.791 L3217.42 357.818 Q3218.94 355.48 3221 354.323 Q3223.09 353.166 3225.8 353.166 Q3230.26 353.166 3232.56 355.943 Q3234.85 358.698 3234.85 364.068 Z" fill="#000000" fill-rule="nonzero" fill-opacity="1" /><path clip-path="url(#clip390)" d="M3243.34 343.698 L3247.6 343.698 L3247.6 379.716 L3243.34 379.716 L3243.34 343.698 Z" fill="#000000" fill-rule="nonzero" fill-opacity="1" /><path clip-path="url(#clip390)" d="M3260.63 375.827 L3260.63 389.577 L3256.35 389.577 L3256.35 353.791 L3260.63 353.791 L3260.63 357.726 Q3261.98 355.411 3264.01 354.3 Q3266.07 353.166 3268.92 353.166 Q3273.64 353.166 3276.58 356.916 Q3279.55 360.666 3279.55 366.777 Q3279.55 372.888 3276.58 376.638 Q3273.64 380.388 3268.92 380.388 Q3266.07 380.388 3264.01 379.277 Q3261.98 378.142 3260.63 375.827 M3275.12 366.777 Q3275.12 362.078 3273.18 359.416 Q3271.26 356.73 3267.88 356.73 Q3264.5 356.73 3262.56 359.416 Q3260.63 362.078 3260.63 366.777 Q3260.63 371.476 3262.56 374.161 Q3264.5 376.823 3267.88 376.823 Q3271.26 376.823 3273.18 374.161 Q3275.12 371.476 3275.12 366.777 Z" fill="#000000" fill-rule="nonzero" fill-opacity="1" /><path clip-path="url(#clip390)" d="M3285.93 343.744 L3289.64 343.744 Q3293.11 349.207 3294.82 354.439 Q3296.56 359.67 3296.56 364.832 Q3296.56 370.017 3294.82 375.272 Q3293.11 380.527 3289.64 385.966 L3285.93 385.966 Q3289.01 380.665 3290.52 375.434 Q3292.05 370.179 3292.05 364.832 Q3292.05 359.485 3290.52 354.277 Q3289.01 349.068 3285.93 343.744 Z" fill="#000000" fill-rule="nonzero" fill-opacity="1" /><path clip-path="url(#clip390)" d="M2831.24 439.876 L2809.08 427.076 L2809.08 401.476 L2831.24 388.676 L2853.41 401.476 L2853.41 427.076 Z" fill="#00ffff" fill-rule="evenodd" fill-opacity="1" stroke="none"/>
<path clip-path="url(#clip390)" d="M2984.13 395.584 Q2981.03 400.908 2979.52 406.117 Q2978.02 411.325 2978.02 416.672 Q2978.02 422.019 2979.52 427.274 Q2981.05 432.505 2984.13 437.806 L2980.43 437.806 Q2976.96 432.367 2975.22 427.112 Q2973.51 421.857 2973.51 416.672 Q2973.51 411.51 2975.22 406.279 Q2976.93 401.047 2980.43 395.584 L2984.13 395.584 Z" fill="#000000" fill-rule="nonzero" fill-opacity="1" /><path clip-path="url(#clip390)" d="M3014.57 417.529 L3014.57 419.612 L2994.99 419.612 Q2995.27 424.01 2997.63 426.325 Q3000.01 428.617 3004.25 428.617 Q3006.7 428.617 3008.99 428.015 Q3011.31 427.413 3013.58 426.209 L3013.58 430.237 Q3011.28 431.209 3008.88 431.718 Q3006.47 432.228 3003.99 432.228 Q2997.79 432.228 2994.15 428.617 Q2990.54 425.005 2990.54 418.848 Q2990.54 412.482 2993.97 408.756 Q2997.42 405.006 3003.25 405.006 Q3008.48 405.006 3011.52 408.385 Q3014.57 411.742 3014.57 417.529 M3010.31 416.279 Q3010.27 412.783 3008.34 410.7 Q3006.45 408.617 3003.3 408.617 Q2999.73 408.617 2997.58 410.631 Q2995.45 412.644 2995.13 416.302 L3010.31 416.279 Z" fill="#000000" fill-rule="nonzero" fill-opacity="1" /><path clip-path="url(#clip390)" d="M3042.28 405.631 L3032.9 418.246 L3042.76 431.556 L3037.74 431.556 L3030.2 421.371 L3022.65 431.556 L3017.63 431.556 L3027.7 417.992 L3018.48 405.631 L3023.51 405.631 L3030.38 414.867 L3037.26 405.631 L3042.28 405.631 Z" fill="#000000" fill-rule="nonzero" fill-opacity="1" /><path clip-path="url(#clip390)" d="M3060.57 418.524 Q3055.4 418.524 3053.41 419.705 Q3051.42 420.885 3051.42 423.732 Q3051.42 426.001 3052.9 427.343 Q3054.41 428.663 3056.98 428.663 Q3060.52 428.663 3062.65 426.163 Q3064.8 423.64 3064.8 419.473 L3064.8 418.524 L3060.57 418.524 M3069.06 416.765 L3069.06 431.556 L3064.8 431.556 L3064.8 427.621 Q3063.34 429.982 3061.17 431.117 Q3058.99 432.228 3055.84 432.228 Q3051.86 432.228 3049.5 430.005 Q3047.16 427.76 3047.16 424.01 Q3047.16 419.635 3050.08 417.413 Q3053.02 415.191 3058.83 415.191 L3064.8 415.191 L3064.8 414.774 Q3064.8 411.834 3062.86 410.237 Q3060.94 408.617 3057.44 408.617 Q3055.22 408.617 3053.11 409.149 Q3051.01 409.681 3049.06 410.746 L3049.06 406.811 Q3051.4 405.908 3053.6 405.469 Q3055.8 405.006 3057.88 405.006 Q3063.51 405.006 3066.28 407.922 Q3069.06 410.839 3069.06 416.765 Z" fill="#000000" fill-rule="nonzero" fill-opacity="1" /><path clip-path="url(#clip390)" d="M3097.53 439.427 L3097.53 442.737 L3072.9 442.737 L3072.9 439.427 L3097.53 439.427 Z" fill="#000000" fill-rule="nonzero" fill-opacity="1" /><path clip-path="url(#clip390)" d="M3118.6 418.293 Q3118.6 413.663 3116.68 411.117 Q3114.78 408.57 3111.33 408.57 Q3107.9 408.57 3105.98 411.117 Q3104.08 413.663 3104.08 418.293 Q3104.08 422.899 3105.98 425.445 Q3107.9 427.992 3111.33 427.992 Q3114.78 427.992 3116.68 425.445 Q3118.6 422.899 3118.6 418.293 M3122.86 428.339 Q3122.86 434.959 3119.92 438.177 Q3116.98 441.417 3110.91 441.417 Q3108.67 441.417 3106.68 441.07 Q3104.69 440.746 3102.81 440.052 L3102.81 435.908 Q3104.69 436.927 3106.51 437.413 Q3108.34 437.899 3110.24 437.899 Q3114.43 437.899 3116.51 435.7 Q3118.6 433.524 3118.6 429.103 L3118.6 426.996 Q3117.28 429.288 3115.22 430.422 Q3113.16 431.556 3110.29 431.556 Q3105.52 431.556 3102.6 427.922 Q3099.69 424.288 3099.69 418.293 Q3099.69 412.274 3102.6 408.64 Q3105.52 405.006 3110.29 405.006 Q3113.16 405.006 3115.22 406.14 Q3117.28 407.274 3118.6 409.566 L3118.6 405.631 L3122.86 405.631 L3122.86 428.339 Z" fill="#000000" fill-rule="nonzero" fill-opacity="1" /><path clip-path="url(#clip390)" d="M3135.75 427.667 L3135.75 441.417 L3131.47 441.417 L3131.47 405.631 L3135.75 405.631 L3135.75 409.566 Q3137.09 407.251 3139.13 406.14 Q3141.19 405.006 3144.04 405.006 Q3148.76 405.006 3151.7 408.756 Q3154.66 412.506 3154.66 418.617 Q3154.66 424.728 3151.7 428.478 Q3148.76 432.228 3144.04 432.228 Q3141.19 432.228 3139.13 431.117 Q3137.09 429.982 3135.75 427.667 M3150.24 418.617 Q3150.24 413.918 3148.3 411.256 Q3146.38 408.57 3143 408.57 Q3139.62 408.57 3137.67 411.256 Q3135.75 413.918 3135.75 418.617 Q3135.75 423.316 3137.67 426.001 Q3139.62 428.663 3143 428.663 Q3146.38 428.663 3148.3 426.001 Q3150.24 423.316 3150.24 418.617 Z" fill="#000000" fill-rule="nonzero" fill-opacity="1" /><path clip-path="url(#clip390)" d="M3161.28 421.325 L3161.28 405.631 L3165.54 405.631 L3165.54 421.163 Q3165.54 424.843 3166.98 426.695 Q3168.41 428.524 3171.28 428.524 Q3174.73 428.524 3176.72 426.325 Q3178.74 424.126 3178.74 420.33 L3178.74 405.631 L3183 405.631 L3183 431.556 L3178.74 431.556 L3178.74 427.575 Q3177.19 429.936 3175.13 431.093 Q3173.09 432.228 3170.38 432.228 Q3165.91 432.228 3163.6 429.45 Q3161.28 426.672 3161.28 421.325 M3172 405.006 L3172 405.006 Z" fill="#000000" fill-rule="nonzero" fill-opacity="1" /><path clip-path="url(#clip390)" d="M3192.86 425.677 L3197.74 425.677 L3197.74 429.658 L3193.94 437.066 L3190.96 437.066 L3192.86 429.658 L3192.86 425.677 Z" fill="#000000" fill-rule="nonzero" fill-opacity="1" /><path clip-path="url(#clip390)" d="M3242.09 410.607 Q3243.69 407.737 3245.91 406.371 Q3248.13 405.006 3251.14 405.006 Q3255.19 405.006 3257.39 407.853 Q3259.59 410.677 3259.59 415.908 L3259.59 431.556 L3255.31 431.556 L3255.31 416.047 Q3255.31 412.32 3253.99 410.515 Q3252.67 408.709 3249.96 408.709 Q3246.65 408.709 3244.73 410.908 Q3242.81 413.107 3242.81 416.904 L3242.81 431.556 L3238.53 431.556 L3238.53 416.047 Q3238.53 412.297 3237.21 410.515 Q3235.89 408.709 3233.13 408.709 Q3229.87 408.709 3227.95 410.931 Q3226.03 413.131 3226.03 416.904 L3226.03 431.556 L3221.75 431.556 L3221.75 405.631 L3226.03 405.631 L3226.03 409.658 Q3227.49 407.274 3229.52 406.14 Q3231.56 405.006 3234.36 405.006 Q3237.19 405.006 3239.15 406.441 Q3241.14 407.876 3242.09 410.607 Z" fill="#000000" fill-rule="nonzero" fill-opacity="1" /><path clip-path="url(#clip390)" d="M3279.87 418.524 Q3274.71 418.524 3272.72 419.705 Q3270.73 420.885 3270.73 423.732 Q3270.73 426.001 3272.21 427.343 Q3273.71 428.663 3276.28 428.663 Q3279.82 428.663 3281.95 426.163 Q3284.11 423.64 3284.11 419.473 L3284.11 418.524 L3279.87 418.524 M3288.37 416.765 L3288.37 431.556 L3284.11 431.556 L3284.11 427.621 Q3282.65 429.982 3280.47 431.117 Q3278.3 432.228 3275.15 432.228 Q3271.17 432.228 3268.81 430.005 Q3266.47 427.76 3266.47 424.01 Q3266.47 419.635 3269.38 417.413 Q3272.32 415.191 3278.13 415.191 L3284.11 415.191 L3284.11 414.774 Q3284.11 411.834 3282.16 410.237 Q3280.24 408.617 3276.75 408.617 Q3274.52 408.617 3272.42 409.149 Q3270.31 409.681 3268.37 410.746 L3268.37 406.811 Q3270.7 405.908 3272.9 405.469 Q3275.1 405.006 3277.18 405.006 Q3282.81 405.006 3285.59 407.922 Q3288.37 410.839 3288.37 416.765 Z" fill="#000000" fill-rule="nonzero" fill-opacity="1" /><path clip-path="url(#clip390)" d="M3314.2 409.566 L3314.2 395.538 L3318.46 395.538 L3318.46 431.556 L3314.2 431.556 L3314.2 427.667 Q3312.86 429.982 3310.8 431.117 Q3308.76 432.228 3305.89 432.228 Q3301.19 432.228 3298.23 428.478 Q3295.29 424.728 3295.29 418.617 Q3295.29 412.506 3298.23 408.756 Q3301.19 405.006 3305.89 405.006 Q3308.76 405.006 3310.8 406.14 Q3312.86 407.251 3314.2 409.566 M3299.68 418.617 Q3299.68 423.316 3301.61 426.001 Q3303.55 428.663 3306.93 428.663 Q3310.31 428.663 3312.25 426.001 Q3314.2 423.316 3314.2 418.617 Q3314.2 413.918 3312.25 411.256 Q3310.31 408.57 3306.93 408.57 Q3303.55 408.57 3301.61 411.256 Q3299.68 413.918 3299.68 418.617 Z" fill="#000000" fill-rule="nonzero" fill-opacity="1" /><path clip-path="url(#clip390)" d="M3348.78 415.908 L3348.78 431.556 L3344.52 431.556 L3344.52 416.047 Q3344.52 412.367 3343.09 410.538 Q3341.65 408.709 3338.78 408.709 Q3335.33 408.709 3333.34 410.908 Q3331.35 413.107 3331.35 416.904 L3331.35 431.556 L3327.07 431.556 L3327.07 405.631 L3331.35 405.631 L3331.35 409.658 Q3332.88 407.32 3334.94 406.163 Q3337.02 405.006 3339.73 405.006 Q3344.2 405.006 3346.49 407.783 Q3348.78 410.538 3348.78 415.908 Z" fill="#000000" fill-rule="nonzero" fill-opacity="1" /><path clip-path="url(#clip390)" d="M3357.28 395.538 L3361.54 395.538 L3361.54 431.556 L3357.28 431.556 L3357.28 395.538 Z" fill="#000000" fill-rule="nonzero" fill-opacity="1" /><path clip-path="url(#clip390)" d="M3374.57 427.667 L3374.57 441.417 L3370.29 441.417 L3370.29 405.631 L3374.57 405.631 L3374.57 409.566 Q3375.91 407.251 3377.95 406.14 Q3380.01 405.006 3382.86 405.006 Q3387.58 405.006 3390.52 408.756 Q3393.48 412.506 3393.48 418.617 Q3393.48 424.728 3390.52 428.478 Q3387.58 432.228 3382.86 432.228 Q3380.01 432.228 3377.95 431.117 Q3375.91 429.982 3374.57 427.667 M3389.06 418.617 Q3389.06 413.918 3387.11 411.256 Q3385.19 408.57 3381.81 408.57 Q3378.43 408.57 3376.49 411.256 Q3374.57 413.918 3374.57 418.617 Q3374.57 423.316 3376.49 426.001 Q3378.43 428.663 3381.81 428.663 Q3385.19 428.663 3387.11 426.001 Q3389.06 423.316 3389.06 418.617 Z" fill="#000000" fill-rule="nonzero" fill-opacity="1" /><path clip-path="url(#clip390)" d="M3399.87 395.584 L3403.57 395.584 Q3407.05 401.047 3408.76 406.279 Q3410.49 411.51 3410.49 416.672 Q3410.49 421.857 3408.76 427.112 Q3407.05 432.367 3403.57 437.806 L3399.87 437.806 Q3402.95 432.505 3404.45 427.274 Q3405.98 422.019 3405.98 416.672 Q3405.98 411.325 3404.45 406.117 Q3402.95 400.908 3399.87 395.584 Z" fill="#000000" fill-rule="nonzero" fill-opacity="1" /></svg>
