<?xml version="1.0" encoding="utf-8"?>
<svg xmlns="http://www.w3.org/2000/svg" xmlns:xlink="http://www.w3.org/1999/xlink" width="900" height="600" viewBox="0 0 3600 2400">
<defs>
  <clipPath id="clip270">
    <rect x="0" y="0" width="3600" height="2400"/>
  </clipPath>
</defs>
<path clip-path="url(#clip270)" d="M0 2400 L3600 2400 L3600 0 L0 0  Z" fill="#ffffff" fill-rule="evenodd" fill-opacity="1"/>
<defs>
  <clipPath id="clip271">
    <rect x="290" y="246" width="3264" height="1911"/>
  </clipPath>
</defs>
<path clip-path="url(#clip270)" d="M322.044 2156.51 L3552.76 2156.51 L3552.76 246.944 L322.044 246.944  Z" fill="#ffffff" fill-rule="evenodd" fill-opacity="1"/>
<defs>
  <clipPath id="clip272">
    <rect x="322" y="246" width="3232" height="1911"/>
  </clipPath>
</defs>
<polyline clip-path="url(#clip272)" style="stroke:#000000; stroke-linecap:round; stroke-linejoin:round; stroke-width:2; stroke-opacity:0.1; fill:none" points="752.129,2156.51 752.129,246.944 "/>
<polyline clip-path="url(#clip272)" style="stroke:#000000; stroke-linecap:round; stroke-linejoin:round; stroke-width:2; stroke-opacity:0.1; fill:none" points="1429.43,2156.51 1429.43,246.944 "/>
<polyline clip-path="url(#clip272)" style="stroke:#000000; stroke-linecap:round; stroke-linejoin:round; stroke-width:2; stroke-opacity:0.1; fill:none" points="2106.72,2156.51 2106.72,246.944 "/>
<polyline clip-path="url(#clip272)" style="stroke:#000000; stroke-linecap:round; stroke-linejoin:round; stroke-width:2; stroke-opacity:0.1; fill:none" points="2784.02,2156.51 2784.02,246.944 "/>
<polyline clip-path="url(#clip272)" style="stroke:#000000; stroke-linecap:round; stroke-linejoin:round; stroke-width:2; stroke-opacity:0.1; fill:none" points="3461.32,2156.51 3461.32,246.944 "/>
<polyline clip-path="url(#clip272)" style="stroke:#000000; stroke-linecap:round; stroke-linejoin:round; stroke-width:2; stroke-opacity:0.1; fill:none" points="322.044,1698.95 3552.76,1698.95 "/>
<polyline clip-path="url(#clip272)" style="stroke:#000000; stroke-linecap:round; stroke-linejoin:round; stroke-width:2; stroke-opacity:0.1; fill:none" points="322.044,693.641 3552.76,693.641 "/>
<polyline clip-path="url(#clip270)" style="stroke:#000000; stroke-linecap:round; stroke-linejoin:round; stroke-width:4; stroke-opacity:1; fill:none" points="322.044,2156.51 3552.76,2156.51 "/>
<polyline clip-path="url(#clip270)" style="stroke:#000000; stroke-linecap:round; stroke-linejoin:round; stroke-width:4; stroke-opacity:1; fill:none" points="752.129,2156.51 752.129,2137.61 "/>
<polyline clip-path="url(#clip270)" style="stroke:#000000; stroke-linecap:round; stroke-linejoin:round; stroke-width:4; stroke-opacity:1; fill:none" points="1429.43,2156.51 1429.43,2137.61 "/>
<polyline clip-path="url(#clip270)" style="stroke:#000000; stroke-linecap:round; stroke-linejoin:round; stroke-width:4; stroke-opacity:1; fill:none" points="2106.72,2156.51 2106.72,2137.61 "/>
<polyline clip-path="url(#clip270)" style="stroke:#000000; stroke-linecap:round; stroke-linejoin:round; stroke-width:4; stroke-opacity:1; fill:none" points="2784.02,2156.51 2784.02,2137.61 "/>
<polyline clip-path="url(#clip270)" style="stroke:#000000; stroke-linecap:round; stroke-linejoin:round; stroke-width:4; stroke-opacity:1; fill:none" points="3461.32,2156.51 3461.32,2137.61 "/>
<path clip-path="url(#clip270)" d="M726.862 2224.57 L734.501 2224.57 L734.501 2198.21 L726.191 2199.87 L726.191 2195.61 L734.455 2193.95 L739.131 2193.95 L739.131 2224.57 L746.77 2224.57 L746.77 2228.51 L726.862 2228.51 L726.862 2224.57 Z" fill="#000000" fill-rule="nonzero" fill-opacity="1" /><path clip-path="url(#clip270)" d="M766.214 2212.1 Q762.881 2212.1 760.96 2213.88 Q759.061 2215.66 759.061 2218.79 Q759.061 2221.91 760.96 2223.69 Q762.881 2225.48 766.214 2225.48 Q769.547 2225.48 771.469 2223.69 Q773.39 2221.89 773.39 2218.79 Q773.39 2215.66 771.469 2213.88 Q769.571 2212.1 766.214 2212.1 M761.538 2210.11 Q758.529 2209.36 756.839 2207.3 Q755.173 2205.24 755.173 2202.28 Q755.173 2198.14 758.112 2195.73 Q761.075 2193.32 766.214 2193.32 Q771.376 2193.32 774.316 2195.73 Q777.256 2198.14 777.256 2202.28 Q777.256 2205.24 775.566 2207.3 Q773.899 2209.36 770.913 2210.11 Q774.293 2210.89 776.168 2213.18 Q778.066 2215.48 778.066 2218.79 Q778.066 2223.81 774.987 2226.49 Q771.932 2229.18 766.214 2229.18 Q760.497 2229.18 757.418 2226.49 Q754.362 2223.81 754.362 2218.79 Q754.362 2215.48 756.26 2213.18 Q758.159 2210.89 761.538 2210.11 M759.825 2202.72 Q759.825 2205.41 761.492 2206.91 Q763.182 2208.42 766.214 2208.42 Q769.223 2208.42 770.913 2206.91 Q772.626 2205.41 772.626 2202.72 Q772.626 2200.04 770.913 2198.53 Q769.223 2197.03 766.214 2197.03 Q763.182 2197.03 761.492 2198.53 Q759.825 2200.04 759.825 2202.72 Z" fill="#000000" fill-rule="nonzero" fill-opacity="1" /><path clip-path="url(#clip270)" d="M1408.2 2224.57 L1424.52 2224.57 L1424.52 2228.51 L1402.57 2228.51 L1402.57 2224.57 Q1405.24 2221.82 1409.82 2217.19 Q1414.43 2212.54 1415.61 2211.19 Q1417.85 2208.67 1418.73 2206.93 Q1419.63 2205.17 1419.63 2203.48 Q1419.63 2200.73 1417.69 2198.99 Q1415.77 2197.26 1412.67 2197.26 Q1410.47 2197.26 1408.01 2198.02 Q1405.58 2198.79 1402.81 2200.34 L1402.81 2195.61 Q1405.63 2194.48 1408.08 2193.9 Q1410.54 2193.32 1412.57 2193.32 Q1417.95 2193.32 1421.14 2196.01 Q1424.33 2198.69 1424.33 2203.18 Q1424.33 2205.31 1423.52 2207.23 Q1422.74 2209.13 1420.63 2211.73 Q1420.05 2212.4 1416.95 2215.61 Q1413.85 2218.81 1408.2 2224.57 Z" fill="#000000" fill-rule="nonzero" fill-opacity="1" /><path clip-path="url(#clip270)" d="M1444.33 2197.03 Q1440.72 2197.03 1438.89 2200.59 Q1437.09 2204.13 1437.09 2211.26 Q1437.09 2218.37 1438.89 2221.93 Q1440.72 2225.48 1444.33 2225.48 Q1447.97 2225.48 1449.77 2221.93 Q1451.6 2218.37 1451.6 2211.26 Q1451.6 2204.13 1449.77 2200.59 Q1447.97 2197.03 1444.33 2197.03 M1444.33 2193.32 Q1450.14 2193.32 1453.2 2197.93 Q1456.28 2202.51 1456.28 2211.26 Q1456.28 2219.99 1453.2 2224.6 Q1450.14 2229.18 1444.33 2229.18 Q1438.52 2229.18 1435.45 2224.6 Q1432.39 2219.99 1432.39 2211.26 Q1432.39 2202.51 1435.45 2197.93 Q1438.52 2193.32 1444.33 2193.32 Z" fill="#000000" fill-rule="nonzero" fill-opacity="1" /><path clip-path="url(#clip270)" d="M2086.3 2224.57 L2102.62 2224.57 L2102.62 2228.51 L2080.67 2228.51 L2080.67 2224.57 Q2083.33 2221.82 2087.92 2217.19 Q2092.52 2212.54 2093.7 2211.19 Q2095.95 2208.67 2096.83 2206.93 Q2097.73 2205.17 2097.73 2203.48 Q2097.73 2200.73 2095.79 2198.99 Q2093.87 2197.26 2090.76 2197.26 Q2088.56 2197.26 2086.11 2198.02 Q2083.68 2198.79 2080.9 2200.34 L2080.9 2195.61 Q2083.73 2194.48 2086.18 2193.9 Q2088.63 2193.32 2090.67 2193.32 Q2096.04 2193.32 2099.24 2196.01 Q2102.43 2198.69 2102.43 2203.18 Q2102.43 2205.31 2101.62 2207.23 Q2100.83 2209.13 2098.73 2211.73 Q2098.15 2212.4 2095.05 2215.61 Q2091.94 2218.81 2086.3 2224.57 Z" fill="#000000" fill-rule="nonzero" fill-opacity="1" /><path clip-path="url(#clip270)" d="M2116.46 2224.57 L2132.78 2224.57 L2132.78 2228.51 L2110.83 2228.51 L2110.83 2224.57 Q2113.5 2221.82 2118.08 2217.19 Q2122.69 2212.54 2123.87 2211.19 Q2126.11 2208.67 2126.99 2206.93 Q2127.89 2205.17 2127.89 2203.48 Q2127.89 2200.73 2125.95 2198.99 Q2124.03 2197.26 2120.93 2197.26 Q2118.73 2197.26 2116.27 2198.02 Q2113.84 2198.79 2111.06 2200.34 L2111.06 2195.61 Q2113.89 2194.48 2116.34 2193.9 Q2118.8 2193.32 2120.83 2193.32 Q2126.2 2193.32 2129.4 2196.01 Q2132.59 2198.69 2132.59 2203.18 Q2132.59 2205.31 2131.78 2207.23 Q2131 2209.13 2128.89 2211.73 Q2128.31 2212.4 2125.21 2215.61 Q2122.11 2218.81 2116.46 2224.57 Z" fill="#000000" fill-rule="nonzero" fill-opacity="1" /><path clip-path="url(#clip270)" d="M2762.55 2224.57 L2778.87 2224.57 L2778.87 2228.51 L2756.93 2228.51 L2756.93 2224.57 Q2759.59 2221.82 2764.17 2217.19 Q2768.78 2212.54 2769.96 2211.19 Q2772.21 2208.67 2773.09 2206.93 Q2773.99 2205.17 2773.99 2203.48 Q2773.99 2200.73 2772.04 2198.99 Q2770.12 2197.26 2767.02 2197.26 Q2764.82 2197.26 2762.37 2198.02 Q2759.94 2198.79 2757.16 2200.34 L2757.16 2195.61 Q2759.98 2194.48 2762.44 2193.9 Q2764.89 2193.32 2766.93 2193.32 Q2772.3 2193.32 2775.49 2196.01 Q2778.69 2198.69 2778.69 2203.18 Q2778.69 2205.31 2777.88 2207.23 Q2777.09 2209.13 2774.98 2211.73 Q2774.4 2212.4 2771.3 2215.61 Q2768.2 2218.81 2762.55 2224.57 Z" fill="#000000" fill-rule="nonzero" fill-opacity="1" /><path clip-path="url(#clip270)" d="M2801.53 2198.02 L2789.73 2216.47 L2801.53 2216.47 L2801.53 2198.02 M2800.31 2193.95 L2806.19 2193.95 L2806.19 2216.47 L2811.12 2216.47 L2811.12 2220.36 L2806.19 2220.36 L2806.19 2228.51 L2801.53 2228.51 L2801.53 2220.36 L2785.93 2220.36 L2785.93 2215.85 L2800.31 2193.95 Z" fill="#000000" fill-rule="nonzero" fill-opacity="1" /><path clip-path="url(#clip270)" d="M3440.01 2224.57 L3456.33 2224.57 L3456.33 2228.51 L3434.39 2228.51 L3434.39 2224.57 Q3437.05 2221.82 3441.63 2217.19 Q3446.24 2212.54 3447.42 2211.19 Q3449.67 2208.67 3450.55 2206.93 Q3451.45 2205.17 3451.45 2203.48 Q3451.45 2200.73 3449.5 2198.99 Q3447.58 2197.26 3444.48 2197.26 Q3442.28 2197.26 3439.83 2198.02 Q3437.4 2198.79 3434.62 2200.34 L3434.62 2195.61 Q3437.44 2194.48 3439.9 2193.9 Q3442.35 2193.32 3444.39 2193.32 Q3449.76 2193.32 3452.95 2196.01 Q3456.15 2198.69 3456.15 2203.18 Q3456.15 2205.31 3455.34 2207.23 Q3454.55 2209.13 3452.44 2211.73 Q3451.86 2212.4 3448.76 2215.61 Q3445.66 2218.81 3440.01 2224.57 Z" fill="#000000" fill-rule="nonzero" fill-opacity="1" /><path clip-path="url(#clip270)" d="M3476.73 2209.36 Q3473.58 2209.36 3471.73 2211.52 Q3469.9 2213.67 3469.9 2217.42 Q3469.9 2221.15 3471.73 2223.32 Q3473.58 2225.48 3476.73 2225.48 Q3479.87 2225.48 3481.7 2223.32 Q3483.55 2221.15 3483.55 2217.42 Q3483.55 2213.67 3481.7 2211.52 Q3479.87 2209.36 3476.73 2209.36 M3486.01 2194.71 L3486.01 2198.97 Q3484.25 2198.14 3482.44 2197.7 Q3480.66 2197.26 3478.9 2197.26 Q3474.27 2197.26 3471.82 2200.38 Q3469.39 2203.51 3469.04 2209.83 Q3470.41 2207.81 3472.47 2206.75 Q3474.53 2205.66 3477 2205.66 Q3482.21 2205.66 3485.22 2208.83 Q3488.25 2211.98 3488.25 2217.42 Q3488.25 2222.74 3485.11 2225.96 Q3481.96 2229.18 3476.73 2229.18 Q3470.73 2229.18 3467.56 2224.6 Q3464.39 2219.99 3464.39 2211.26 Q3464.39 2203.07 3468.28 2198.21 Q3472.17 2193.32 3478.72 2193.32 Q3480.48 2193.32 3482.26 2193.67 Q3484.06 2194.02 3486.01 2194.71 Z" fill="#000000" fill-rule="nonzero" fill-opacity="1" /><path clip-path="url(#clip270)" d="M1800.64 2270.99 L1806.48 2270.99 L1806.48 2314.19 L1800.64 2314.19 L1800.64 2270.99 Z" fill="#000000" fill-rule="nonzero" fill-opacity="1" /><path clip-path="url(#clip270)" d="M1823.15 2272.58 L1823.15 2281.78 L1834.12 2281.78 L1834.12 2285.92 L1823.15 2285.92 L1823.15 2303.51 Q1823.15 2307.47 1824.22 2308.6 Q1825.32 2309.73 1828.65 2309.73 L1834.12 2309.73 L1834.12 2314.19 L1828.65 2314.19 Q1822.48 2314.19 1820.14 2311.9 Q1817.8 2309.59 1817.8 2303.51 L1817.8 2285.92 L1813.89 2285.92 L1813.89 2281.78 L1817.8 2281.78 L1817.8 2272.58 L1823.15 2272.58 Z" fill="#000000" fill-rule="nonzero" fill-opacity="1" /><path clip-path="url(#clip270)" d="M1868.84 2296.65 L1868.84 2299.26 L1844.36 2299.26 Q1844.71 2304.75 1847.66 2307.65 Q1850.64 2310.51 1855.93 2310.51 Q1859 2310.51 1861.87 2309.76 Q1864.76 2309.01 1867.59 2307.5 L1867.59 2312.54 Q1864.73 2313.75 1861.72 2314.39 Q1858.71 2315.03 1855.62 2315.03 Q1847.86 2315.03 1843.32 2310.51 Q1838.8 2306 1838.8 2298.3 Q1838.8 2290.35 1843.09 2285.69 Q1847.4 2281 1854.69 2281 Q1861.23 2281 1865.02 2285.22 Q1868.84 2289.42 1868.84 2296.65 M1863.51 2295.09 Q1863.46 2290.72 1861.06 2288.12 Q1858.68 2285.51 1854.75 2285.51 Q1850.29 2285.51 1847.6 2288.03 Q1844.94 2290.55 1844.53 2295.12 L1863.51 2295.09 Z" fill="#000000" fill-rule="nonzero" fill-opacity="1" /><path clip-path="url(#clip270)" d="M1896.36 2286.76 Q1895.46 2286.24 1894.39 2286 Q1893.35 2285.74 1892.07 2285.74 Q1887.56 2285.74 1885.13 2288.7 Q1882.73 2291.62 1882.73 2297.12 L1882.73 2314.19 L1877.37 2314.19 L1877.37 2281.78 L1882.73 2281.78 L1882.73 2286.82 Q1884.41 2283.86 1887.1 2282.45 Q1889.79 2281 1893.64 2281 Q1894.19 2281 1894.85 2281.09 Q1895.52 2281.14 1896.33 2281.29 L1896.36 2286.76 Z" fill="#000000" fill-rule="nonzero" fill-opacity="1" /><path clip-path="url(#clip270)" d="M1916.67 2297.9 Q1910.22 2297.9 1907.73 2299.37 Q1905.24 2300.85 1905.24 2304.41 Q1905.24 2307.24 1907.09 2308.92 Q1908.97 2310.57 1912.18 2310.57 Q1916.61 2310.57 1919.27 2307.45 Q1921.96 2304.29 1921.96 2299.08 L1921.96 2297.9 L1916.67 2297.9 M1927.29 2295.7 L1927.29 2314.19 L1921.96 2314.19 L1921.96 2309.27 Q1920.14 2312.22 1917.42 2313.64 Q1914.7 2315.03 1910.77 2315.03 Q1905.79 2315.03 1902.84 2312.25 Q1899.91 2309.44 1899.91 2304.75 Q1899.91 2299.29 1903.56 2296.51 Q1907.24 2293.73 1914.5 2293.73 L1921.96 2293.73 L1921.96 2293.21 Q1921.96 2289.54 1919.53 2287.54 Q1917.13 2285.51 1912.76 2285.51 Q1909.98 2285.51 1907.35 2286.18 Q1904.72 2286.84 1902.29 2288.18 L1902.29 2283.26 Q1905.21 2282.13 1907.96 2281.58 Q1910.71 2281 1913.31 2281 Q1920.34 2281 1923.82 2284.65 Q1927.29 2288.29 1927.29 2295.7 Z" fill="#000000" fill-rule="nonzero" fill-opacity="1" /><path clip-path="url(#clip270)" d="M1943.52 2272.58 L1943.52 2281.78 L1954.49 2281.78 L1954.49 2285.92 L1943.52 2285.92 L1943.52 2303.51 Q1943.52 2307.47 1944.59 2308.6 Q1945.69 2309.73 1949.02 2309.73 L1954.49 2309.73 L1954.49 2314.19 L1949.02 2314.19 Q1942.85 2314.19 1940.51 2311.9 Q1938.17 2309.59 1938.17 2303.51 L1938.17 2285.92 L1934.26 2285.92 L1934.26 2281.78 L1938.17 2281.78 L1938.17 2272.58 L1943.52 2272.58 Z" fill="#000000" fill-rule="nonzero" fill-opacity="1" /><path clip-path="url(#clip270)" d="M1961.49 2281.78 L1966.81 2281.78 L1966.81 2314.19 L1961.49 2314.19 L1961.49 2281.78 M1961.49 2269.16 L1966.81 2269.16 L1966.81 2275.91 L1961.49 2275.91 L1961.49 2269.16 Z" fill="#000000" fill-rule="nonzero" fill-opacity="1" /><path clip-path="url(#clip270)" d="M1990.51 2285.51 Q1986.23 2285.51 1983.74 2288.87 Q1981.25 2292.2 1981.25 2298.01 Q1981.25 2303.83 1983.71 2307.19 Q1986.2 2310.51 1990.51 2310.51 Q1994.76 2310.51 1997.25 2307.16 Q1999.74 2303.8 1999.74 2298.01 Q1999.74 2292.25 1997.25 2288.9 Q1994.76 2285.51 1990.51 2285.51 M1990.51 2281 Q1997.45 2281 2001.42 2285.51 Q2005.38 2290.03 2005.38 2298.01 Q2005.38 2305.97 2001.42 2310.51 Q1997.45 2315.03 1990.51 2315.03 Q1983.54 2315.03 1979.57 2310.51 Q1975.64 2305.97 1975.64 2298.01 Q1975.64 2290.03 1979.57 2285.51 Q1983.54 2281 1990.51 2281 Z" fill="#000000" fill-rule="nonzero" fill-opacity="1" /><path clip-path="url(#clip270)" d="M2041.15 2294.63 L2041.15 2314.19 L2035.82 2314.19 L2035.82 2294.8 Q2035.82 2290.2 2034.03 2287.91 Q2032.23 2285.63 2028.65 2285.63 Q2024.34 2285.63 2021.85 2288.38 Q2019.36 2291.13 2019.36 2295.87 L2019.36 2314.19 L2014.01 2314.19 L2014.01 2281.78 L2019.36 2281.78 L2019.36 2286.82 Q2021.27 2283.89 2023.84 2282.45 Q2026.45 2281 2029.83 2281 Q2035.42 2281 2038.28 2284.47 Q2041.15 2287.91 2041.15 2294.63 Z" fill="#000000" fill-rule="nonzero" fill-opacity="1" /><path clip-path="url(#clip270)" d="M2072.43 2282.74 L2072.43 2287.77 Q2070.17 2286.61 2067.74 2286.03 Q2065.31 2285.46 2062.7 2285.46 Q2058.74 2285.46 2056.74 2286.67 Q2054.78 2287.89 2054.78 2290.32 Q2054.78 2292.17 2056.19 2293.24 Q2057.61 2294.28 2061.89 2295.24 L2063.72 2295.64 Q2069.39 2296.86 2071.76 2299.08 Q2074.16 2301.28 2074.16 2305.25 Q2074.16 2309.76 2070.57 2312.39 Q2067.01 2315.03 2060.76 2315.03 Q2058.16 2315.03 2055.32 2314.51 Q2052.52 2314.01 2049.39 2313 L2049.39 2307.5 Q2052.34 2309.04 2055.21 2309.82 Q2058.07 2310.57 2060.88 2310.57 Q2064.64 2310.57 2066.67 2309.3 Q2068.69 2308 2068.69 2305.65 Q2068.69 2303.48 2067.22 2302.32 Q2065.77 2301.17 2060.82 2300.1 L2058.97 2299.66 Q2054.02 2298.62 2051.82 2296.48 Q2049.62 2294.31 2049.62 2290.55 Q2049.62 2285.98 2052.87 2283.49 Q2056.11 2281 2062.07 2281 Q2065.02 2281 2067.62 2281.43 Q2070.23 2281.87 2072.43 2282.74 Z" fill="#000000" fill-rule="nonzero" fill-opacity="1" /><polyline clip-path="url(#clip270)" style="stroke:#000000; stroke-linecap:round; stroke-linejoin:round; stroke-width:4; stroke-opacity:1; fill:none" points="322.044,2156.51 322.044,246.944 "/>
<polyline clip-path="url(#clip270)" style="stroke:#000000; stroke-linecap:round; stroke-linejoin:round; stroke-width:4; stroke-opacity:1; fill:none" points="322.044,1698.95 340.942,1698.95 "/>
<polyline clip-path="url(#clip270)" style="stroke:#000000; stroke-linecap:round; stroke-linejoin:round; stroke-width:4; stroke-opacity:1; fill:none" points="322.044,693.641 340.942,693.641 "/>
<path clip-path="url(#clip270)" d="M167.604 1718.74 L175.242 1718.74 L175.242 1692.37 L166.932 1694.04 L166.932 1689.78 L175.196 1688.11 L179.872 1688.11 L179.872 1718.74 L187.511 1718.74 L187.511 1722.67 L167.604 1722.67 L167.604 1718.74 Z" fill="#000000" fill-rule="nonzero" fill-opacity="1" /><path clip-path="url(#clip270)" d="M206.955 1691.19 Q203.344 1691.19 201.515 1694.76 Q199.71 1698.3 199.71 1705.43 Q199.71 1712.54 201.515 1716.1 Q203.344 1719.64 206.955 1719.64 Q210.589 1719.64 212.395 1716.1 Q214.224 1712.54 214.224 1705.43 Q214.224 1698.3 212.395 1694.76 Q210.589 1691.19 206.955 1691.19 M206.955 1687.49 Q212.765 1687.49 215.821 1692.1 Q218.9 1696.68 218.9 1705.43 Q218.9 1714.16 215.821 1718.76 Q212.765 1723.35 206.955 1723.35 Q201.145 1723.35 198.066 1718.76 Q195.011 1714.16 195.011 1705.43 Q195.011 1696.68 198.066 1692.1 Q201.145 1687.49 206.955 1687.49 Z" fill="#000000" fill-rule="nonzero" fill-opacity="1" /><path clip-path="url(#clip270)" d="M218.9 1681.59 L243.011 1681.59 L243.011 1684.79 L218.9 1684.79 L218.9 1681.59 Z" fill="#000000" fill-rule="nonzero" fill-opacity="1" /><path clip-path="url(#clip270)" d="M251.87 1692.07 L258.076 1692.07 L258.076 1670.65 L251.324 1672 L251.324 1668.54 L258.039 1667.18 L261.838 1667.18 L261.838 1692.07 L268.044 1692.07 L268.044 1695.26 L251.87 1695.26 L251.87 1692.07 Z" fill="#000000" fill-rule="nonzero" fill-opacity="1" /><path clip-path="url(#clip270)" d="M197.339 713.434 L204.978 713.434 L204.978 687.068 L196.667 688.735 L196.667 684.475 L204.931 682.809 L209.607 682.809 L209.607 713.434 L217.246 713.434 L217.246 717.369 L197.339 717.369 L197.339 713.434 Z" fill="#000000" fill-rule="nonzero" fill-opacity="1" /><path clip-path="url(#clip270)" d="M236.69 685.887 Q233.079 685.887 231.251 689.452 Q229.445 692.994 229.445 700.123 Q229.445 707.23 231.251 710.795 Q233.079 714.336 236.69 714.336 Q240.325 714.336 242.13 710.795 Q243.959 707.23 243.959 700.123 Q243.959 692.994 242.13 689.452 Q240.325 685.887 236.69 685.887 M236.69 682.184 Q242.5 682.184 245.556 686.79 Q248.635 691.373 248.635 700.123 Q248.635 708.85 245.556 713.457 Q242.5 718.04 236.69 718.04 Q230.88 718.04 227.801 713.457 Q224.746 708.85 224.746 700.123 Q224.746 691.373 227.801 686.79 Q230.88 682.184 236.69 682.184 Z" fill="#000000" fill-rule="nonzero" fill-opacity="1" /><path clip-path="url(#clip270)" d="M258.339 664.38 Q255.405 664.38 253.92 667.276 Q252.453 670.154 252.453 675.947 Q252.453 681.72 253.92 684.617 Q255.405 687.494 258.339 687.494 Q261.292 687.494 262.759 684.617 Q264.245 681.72 264.245 675.947 Q264.245 670.154 262.759 667.276 Q261.292 664.38 258.339 664.38 M258.339 661.37 Q263.06 661.37 265.543 665.113 Q268.044 668.837 268.044 675.947 Q268.044 683.037 265.543 686.78 Q263.06 690.504 258.339 690.504 Q253.619 690.504 251.117 686.78 Q248.635 683.037 248.635 675.947 Q248.635 668.837 251.117 665.113 Q253.619 661.37 258.339 661.37 Z" fill="#000000" fill-rule="nonzero" fill-opacity="1" /><path clip-path="url(#clip270)" d="M60.0998 1347.25 L66.263 1347.25 Q63.5141 1350.21 62.1542 1353.56 Q60.7943 1356.89 60.7943 1360.65 Q60.7943 1368.06 65.3371 1371.99 Q69.8509 1375.93 78.4157 1375.93 Q86.9515 1375.93 91.4943 1371.99 Q96.0082 1368.06 96.0082 1360.65 Q96.0082 1356.89 94.6482 1353.56 Q93.2883 1350.21 90.5395 1347.25 L96.6448 1347.25 Q98.7281 1350.32 99.7697 1353.77 Q100.811 1357.18 100.811 1361 Q100.811 1370.81 94.8218 1376.45 Q88.8034 1382.09 78.4157 1382.09 Q67.9991 1382.09 62.0095 1376.45 Q55.991 1370.81 55.991 1361 Q55.991 1357.12 57.0327 1353.71 Q58.0454 1350.26 60.0998 1347.25 Z" fill="#000000" fill-rule="nonzero" fill-opacity="1" /><path clip-path="url(#clip270)" d="M61.5755 1332.38 L77.8081 1332.38 L77.8081 1325.03 Q77.8081 1320.95 75.6958 1318.72 Q73.5835 1316.5 69.6773 1316.5 Q65.8 1316.5 63.6878 1318.72 Q61.5755 1320.95 61.5755 1325.03 L61.5755 1332.38 M56.7723 1338.23 L56.7723 1325.03 Q56.7723 1317.77 60.0709 1314.07 Q63.3405 1310.33 69.6773 1310.33 Q76.0719 1310.33 79.3416 1314.07 Q82.6113 1317.77 82.6113 1325.03 L82.6113 1332.38 L99.9723 1332.38 L99.9723 1338.23 L56.7723 1338.23 Z" fill="#000000" fill-rule="nonzero" fill-opacity="1" /><path clip-path="url(#clip270)" d="M56.7723 1303.16 L56.7723 1297.28 L83.0164 1297.28 Q89.9608 1297.28 93.0279 1294.77 Q96.0661 1292.25 96.0661 1286.61 Q96.0661 1280.99 93.0279 1278.48 Q89.9608 1275.96 83.0164 1275.96 L56.7723 1275.96 L56.7723 1270.08 L83.7397 1270.08 Q92.1888 1270.08 96.5001 1274.28 Q100.811 1278.45 100.811 1286.61 Q100.811 1294.8 96.5001 1298.99 Q92.1888 1303.16 83.7397 1303.16 L56.7723 1303.16 Z" fill="#000000" fill-rule="nonzero" fill-opacity="1" /><path clip-path="url(#clip270)" d="M58.3637 1235.25 L67.565 1235.25 L67.565 1224.28 L71.7028 1224.28 L71.7028 1235.25 L89.2953 1235.25 Q93.2594 1235.25 94.3878 1234.18 Q95.5163 1233.08 95.5163 1229.75 L95.5163 1224.28 L99.9723 1224.28 L99.9723 1229.75 Q99.9723 1235.91 97.6864 1238.26 Q95.3716 1240.6 89.2953 1240.6 L71.7028 1240.6 L71.7028 1244.51 L67.565 1244.51 L67.565 1240.6 L58.3637 1240.6 L58.3637 1235.25 Z" fill="#000000" fill-rule="nonzero" fill-opacity="1" /><path clip-path="url(#clip270)" d="M67.565 1217.28 L67.565 1211.95 L99.9723 1211.95 L99.9723 1217.28 L67.565 1217.28 M54.9494 1217.28 L54.9494 1211.95 L61.6912 1211.95 L61.6912 1217.28 L54.9494 1217.28 Z" fill="#000000" fill-rule="nonzero" fill-opacity="1" /><path clip-path="url(#clip270)" d="M73.7861 1175.58 Q70.1981 1173.59 68.491 1170.81 Q66.7838 1168.03 66.7838 1164.27 Q66.7838 1159.21 70.3428 1156.46 Q73.8729 1153.71 80.4122 1153.71 L99.9723 1153.71 L99.9723 1159.06 L80.5858 1159.06 Q75.9273 1159.06 73.6703 1160.71 Q71.4134 1162.36 71.4134 1165.75 Q71.4134 1169.88 74.1622 1172.28 Q76.9111 1174.69 81.6564 1174.69 L99.9723 1174.69 L99.9723 1180.04 L80.5858 1180.04 Q75.8983 1180.04 73.6703 1181.69 Q71.4134 1183.34 71.4134 1186.78 Q71.4134 1190.86 74.1912 1193.26 Q76.94 1195.66 81.6564 1195.66 L99.9723 1195.66 L99.9723 1201.02 L67.565 1201.02 L67.565 1195.66 L72.5997 1195.66 Q69.6194 1193.84 68.2016 1191.29 Q66.7838 1188.75 66.7838 1185.25 Q66.7838 1181.72 68.5778 1179.26 Q70.3717 1176.77 73.7861 1175.58 Z" fill="#000000" fill-rule="nonzero" fill-opacity="1" /><path clip-path="url(#clip270)" d="M82.4377 1115.37 L85.0418 1115.37 L85.0418 1139.85 Q90.5395 1139.5 93.433 1136.55 Q96.2975 1133.57 96.2975 1128.27 Q96.2975 1125.21 95.5452 1122.34 Q94.7929 1119.45 93.2883 1116.61 L98.323 1116.61 Q99.5383 1119.48 100.175 1122.49 Q100.811 1125.5 100.811 1128.59 Q100.811 1136.35 96.2975 1140.89 Q91.7837 1145.4 84.087 1145.4 Q76.1298 1145.4 71.4713 1141.12 Q66.7838 1136.81 66.7838 1129.52 Q66.7838 1122.98 71.0083 1119.19 Q75.2039 1115.37 82.4377 1115.37 M80.8752 1120.69 Q76.506 1120.75 73.9018 1123.15 Q71.2977 1125.53 71.2977 1129.46 Q71.2977 1133.92 73.815 1136.61 Q76.3324 1139.27 80.9041 1139.67 L80.8752 1120.69 Z" fill="#000000" fill-rule="nonzero" fill-opacity="1" /><path clip-path="url(#clip270)" d="M55.0072 1075.01 Q61.6623 1078.88 68.1727 1080.76 Q74.6831 1082.64 81.3671 1082.64 Q88.0511 1082.64 94.6193 1080.76 Q101.159 1078.85 107.785 1075.01 L107.785 1079.63 Q100.985 1083.97 94.4168 1086.15 Q87.8485 1088.29 81.3671 1088.29 Q74.9145 1088.29 68.3752 1086.15 Q61.8359 1084 55.0072 1079.63 L55.0072 1075.01 Z" fill="#000000" fill-rule="nonzero" fill-opacity="1" /><path clip-path="url(#clip270)" d="M68.5199 1044.02 L73.5546 1044.02 Q72.3972 1046.27 71.8185 1048.7 Q71.2398 1051.13 71.2398 1053.74 Q71.2398 1057.7 72.4551 1059.7 Q73.6703 1061.67 76.1009 1061.67 Q77.9527 1061.67 79.0233 1060.25 Q80.065 1058.83 81.0198 1054.55 L81.4249 1052.73 Q82.6402 1047.05 84.8682 1044.68 Q87.0673 1042.28 91.0314 1042.28 Q95.5452 1042.28 98.1783 1045.87 Q100.811 1049.43 100.811 1055.68 Q100.811 1058.28 100.291 1061.12 Q99.7987 1063.92 98.7859 1067.05 L93.2883 1067.05 Q94.8218 1064.1 95.6031 1061.23 Q96.3554 1058.37 96.3554 1055.56 Q96.3554 1051.8 95.0823 1049.77 Q93.7802 1047.75 91.4364 1047.75 Q89.2663 1047.75 88.1089 1049.22 Q86.9515 1050.67 85.8809 1055.62 L85.4469 1057.47 Q84.4052 1062.42 82.264 1064.62 Q80.0939 1066.82 76.3324 1066.82 Q71.7606 1066.82 69.2722 1063.58 Q66.7838 1060.33 66.7838 1054.37 Q66.7838 1051.42 67.2178 1048.82 Q67.6519 1046.21 68.5199 1044.02 Z" fill="#000000" fill-rule="nonzero" fill-opacity="1" /><path clip-path="url(#clip270)" d="M55.0072 1034.64 L55.0072 1030.01 Q61.8359 1025.67 68.3752 1023.53 Q74.9145 1021.36 81.3671 1021.36 Q87.8485 1021.36 94.4168 1023.53 Q100.985 1025.67 107.785 1030.01 L107.785 1034.64 Q101.159 1030.79 94.6193 1028.91 Q88.0511 1027 81.3671 1027 Q74.6831 1027 68.1727 1028.91 Q61.6623 1030.79 55.0072 1034.64 Z" fill="#000000" fill-rule="nonzero" fill-opacity="1" /><path clip-path="url(#clip270)" d="M1116.16 123.984 L1124.34 123.984 L1124.34 184.464 L1116.16 184.464 L1116.16 123.984 Z" fill="#000000" fill-rule="nonzero" fill-opacity="1" /><path clip-path="url(#clip270)" d="M1147.68 126.212 L1147.68 139.094 L1163.03 139.094 L1163.03 144.887 L1147.68 144.887 L1147.68 169.516 Q1147.68 175.066 1149.18 176.646 Q1150.71 178.226 1155.37 178.226 L1163.03 178.226 L1163.03 184.464 L1155.37 184.464 Q1146.74 184.464 1143.46 181.264 Q1140.18 178.023 1140.18 169.516 L1140.18 144.887 L1134.71 144.887 L1134.71 139.094 L1140.18 139.094 L1140.18 126.212 L1147.68 126.212 Z" fill="#000000" fill-rule="nonzero" fill-opacity="1" /><path clip-path="url(#clip270)" d="M1211.64 159.916 L1211.64 163.561 L1177.37 163.561 Q1177.86 171.258 1181.99 175.309 Q1186.16 179.319 1193.57 179.319 Q1197.87 179.319 1201.88 178.266 Q1205.93 177.213 1209.9 175.106 L1209.9 182.155 Q1205.89 183.856 1201.67 184.748 Q1197.46 185.639 1193.13 185.639 Q1182.27 185.639 1175.91 179.319 Q1169.59 173 1169.59 162.225 Q1169.59 151.085 1175.59 144.563 Q1181.62 138 1191.83 138 Q1200.99 138 1206.29 143.914 Q1211.64 149.788 1211.64 159.916 M1204.19 157.728 Q1204.11 151.611 1200.74 147.965 Q1197.42 144.32 1191.91 144.32 Q1185.67 144.32 1181.91 147.844 Q1178.18 151.368 1177.61 157.769 L1204.19 157.728 Z" fill="#000000" fill-rule="nonzero" fill-opacity="1" /><path clip-path="url(#clip270)" d="M1250.16 146.061 Q1248.91 145.332 1247.41 145.008 Q1245.95 144.644 1244.17 144.644 Q1237.85 144.644 1234.45 148.776 Q1231.08 152.867 1231.08 160.564 L1231.08 184.464 L1223.59 184.464 L1223.59 139.094 L1231.08 139.094 L1231.08 146.142 Q1233.43 142.011 1237.2 140.026 Q1240.97 138 1246.36 138 Q1247.13 138 1248.06 138.122 Q1248.99 138.203 1250.12 138.405 L1250.16 146.061 Z" fill="#000000" fill-rule="nonzero" fill-opacity="1" /><path clip-path="url(#clip270)" d="M1278.6 161.657 Q1269.57 161.657 1266.08 163.723 Q1262.6 165.789 1262.6 170.772 Q1262.6 174.742 1265.19 177.091 Q1267.83 179.4 1272.32 179.4 Q1278.52 179.4 1282.25 175.025 Q1286.01 170.61 1286.01 163.318 L1286.01 161.657 L1278.6 161.657 M1293.47 158.579 L1293.47 184.464 L1286.01 184.464 L1286.01 177.577 Q1283.46 181.709 1279.65 183.694 Q1275.85 185.639 1270.34 185.639 Q1263.37 185.639 1259.24 181.75 Q1255.15 177.821 1255.15 171.258 Q1255.15 163.602 1260.25 159.713 Q1265.4 155.824 1275.56 155.824 L1286.01 155.824 L1286.01 155.095 Q1286.01 149.95 1282.61 147.155 Q1279.25 144.32 1273.13 144.32 Q1269.24 144.32 1265.56 145.251 Q1261.87 146.183 1258.47 148.046 L1258.47 141.16 Q1262.56 139.58 1266.41 138.81 Q1270.26 138 1273.9 138 Q1283.75 138 1288.61 143.104 Q1293.47 148.208 1293.47 158.579 Z" fill="#000000" fill-rule="nonzero" fill-opacity="1" /><path clip-path="url(#clip270)" d="M1316.19 126.212 L1316.19 139.094 L1331.55 139.094 L1331.55 144.887 L1316.19 144.887 L1316.19 169.516 Q1316.19 175.066 1317.69 176.646 Q1319.23 178.226 1323.89 178.226 L1331.55 178.226 L1331.55 184.464 L1323.89 184.464 Q1315.26 184.464 1311.98 181.264 Q1308.7 178.023 1308.7 169.516 L1308.7 144.887 L1303.23 144.887 L1303.23 139.094 L1308.7 139.094 L1308.7 126.212 L1316.19 126.212 Z" fill="#000000" fill-rule="nonzero" fill-opacity="1" /><path clip-path="url(#clip270)" d="M1341.35 139.094 L1348.8 139.094 L1348.8 184.464 L1341.35 184.464 L1341.35 139.094 M1341.35 121.432 L1348.8 121.432 L1348.8 130.871 L1341.35 130.871 L1341.35 121.432 Z" fill="#000000" fill-rule="nonzero" fill-opacity="1" /><path clip-path="url(#clip270)" d="M1381.98 144.32 Q1375.99 144.32 1372.5 149.019 Q1369.02 153.677 1369.02 161.819 Q1369.02 169.962 1372.46 174.661 Q1375.94 179.319 1381.98 179.319 Q1387.94 179.319 1391.42 174.62 Q1394.9 169.921 1394.9 161.819 Q1394.9 153.758 1391.42 149.059 Q1387.94 144.32 1381.98 144.32 M1381.98 138 Q1391.7 138 1397.25 144.32 Q1402.8 150.639 1402.8 161.819 Q1402.8 172.959 1397.25 179.319 Q1391.7 185.639 1381.98 185.639 Q1372.22 185.639 1366.67 179.319 Q1361.16 172.959 1361.16 161.819 Q1361.16 150.639 1366.67 144.32 Q1372.22 138 1381.98 138 Z" fill="#000000" fill-rule="nonzero" fill-opacity="1" /><path clip-path="url(#clip270)" d="M1452.87 157.08 L1452.87 184.464 L1445.42 184.464 L1445.42 157.323 Q1445.42 150.882 1442.91 147.682 Q1440.39 144.482 1435.37 144.482 Q1429.34 144.482 1425.85 148.33 Q1422.37 152.178 1422.37 158.822 L1422.37 184.464 L1414.87 184.464 L1414.87 139.094 L1422.37 139.094 L1422.37 146.142 Q1425.04 142.051 1428.65 140.026 Q1432.29 138 1437.03 138 Q1444.85 138 1448.86 142.861 Q1452.87 147.682 1452.87 157.08 Z" fill="#000000" fill-rule="nonzero" fill-opacity="1" /><path clip-path="url(#clip270)" d="M1496.66 140.431 L1496.66 147.479 Q1493.5 145.859 1490.1 145.049 Q1486.7 144.239 1483.05 144.239 Q1477.5 144.239 1474.71 145.94 Q1471.95 147.641 1471.95 151.044 Q1471.95 153.637 1473.94 155.135 Q1475.92 156.594 1481.92 157.931 L1484.47 158.498 Q1492.41 160.199 1495.73 163.318 Q1499.09 166.397 1499.09 171.947 Q1499.09 178.266 1494.07 181.952 Q1489.09 185.639 1480.34 185.639 Q1476.69 185.639 1472.72 184.91 Q1468.79 184.221 1464.42 182.803 L1464.42 175.106 Q1468.55 177.253 1472.56 178.347 Q1476.57 179.4 1480.5 179.4 Q1485.76 179.4 1488.6 177.618 Q1491.44 175.795 1491.44 172.514 Q1491.44 169.476 1489.37 167.855 Q1487.34 166.235 1480.42 164.736 L1477.83 164.128 Q1470.9 162.67 1467.82 159.672 Q1464.74 156.634 1464.74 151.368 Q1464.74 144.968 1469.28 141.484 Q1473.81 138 1482.16 138 Q1486.29 138 1489.94 138.608 Q1493.58 139.215 1496.66 140.431 Z" fill="#000000" fill-rule="nonzero" fill-opacity="1" /><path clip-path="url(#clip270)" d="M1531.99 139.094 L1539.88 139.094 L1554.06 177.172 L1568.24 139.094 L1576.14 139.094 L1559.13 184.464 L1549 184.464 L1531.99 139.094 Z" fill="#000000" fill-rule="nonzero" fill-opacity="1" /><path clip-path="url(#clip270)" d="M1615.35 140.431 L1615.35 147.479 Q1612.19 145.859 1608.79 145.049 Q1605.39 144.239 1601.74 144.239 Q1596.19 144.239 1593.4 145.94 Q1590.64 147.641 1590.64 151.044 Q1590.64 153.637 1592.63 155.135 Q1594.61 156.594 1600.61 157.931 L1603.16 158.498 Q1611.1 160.199 1614.42 163.318 Q1617.78 166.397 1617.78 171.947 Q1617.78 178.266 1612.76 181.952 Q1607.78 185.639 1599.03 185.639 Q1595.38 185.639 1591.41 184.91 Q1587.48 184.221 1583.11 182.803 L1583.11 175.106 Q1587.24 177.253 1591.25 178.347 Q1595.26 179.4 1599.19 179.4 Q1604.46 179.4 1607.29 177.618 Q1610.13 175.795 1610.13 172.514 Q1610.13 169.476 1608.06 167.855 Q1606.04 166.235 1599.11 164.736 L1596.52 164.128 Q1589.59 162.67 1586.51 159.672 Q1583.43 156.634 1583.43 151.368 Q1583.43 144.968 1587.97 141.484 Q1592.51 138 1600.85 138 Q1604.98 138 1608.63 138.608 Q1612.27 139.215 1615.35 140.431 Z" fill="#000000" fill-rule="nonzero" fill-opacity="1" /><path clip-path="url(#clip270)" d="M1701.64 128.643 L1701.64 137.271 Q1697.51 133.423 1692.81 131.519 Q1688.15 129.615 1682.88 129.615 Q1672.51 129.615 1667 135.975 Q1661.49 142.294 1661.49 154.285 Q1661.49 166.235 1667 172.595 Q1672.51 178.914 1682.88 178.914 Q1688.15 178.914 1692.81 177.01 Q1697.51 175.106 1701.64 171.258 L1701.64 179.805 Q1697.34 182.722 1692.52 184.18 Q1687.74 185.639 1682.4 185.639 Q1668.66 185.639 1660.76 177.253 Q1652.86 168.828 1652.86 154.285 Q1652.86 139.702 1660.76 131.316 Q1668.66 122.89 1682.4 122.89 Q1687.82 122.89 1692.6 124.349 Q1697.42 125.766 1701.64 128.643 Z" fill="#000000" fill-rule="nonzero" fill-opacity="1" /><path clip-path="url(#clip270)" d="M1722.46 130.709 L1722.46 153.434 L1732.75 153.434 Q1738.46 153.434 1741.58 150.477 Q1744.7 147.52 1744.7 142.051 Q1744.7 136.623 1741.58 133.666 Q1738.46 130.709 1732.75 130.709 L1722.46 130.709 M1714.28 123.984 L1732.75 123.984 Q1742.92 123.984 1748.1 128.602 Q1753.33 133.18 1753.33 142.051 Q1753.33 151.004 1748.1 155.581 Q1742.92 160.159 1732.75 160.159 L1722.46 160.159 L1722.46 184.464 L1714.28 184.464 L1714.28 123.984 Z" fill="#000000" fill-rule="nonzero" fill-opacity="1" /><path clip-path="url(#clip270)" d="M1763.37 123.984 L1771.6 123.984 L1771.6 160.726 Q1771.6 170.448 1775.12 174.742 Q1778.65 178.995 1786.54 178.995 Q1794.4 178.995 1797.93 174.742 Q1801.45 170.448 1801.45 160.726 L1801.45 123.984 L1809.68 123.984 L1809.68 161.738 Q1809.68 173.567 1803.8 179.603 Q1797.97 185.639 1786.54 185.639 Q1775.08 185.639 1769.21 179.603 Q1763.37 173.567 1763.37 161.738 L1763.37 123.984 Z" fill="#000000" fill-rule="nonzero" fill-opacity="1" /><path clip-path="url(#clip270)" d="M1858.45 126.212 L1858.45 139.094 L1873.8 139.094 L1873.8 144.887 L1858.45 144.887 L1858.45 169.516 Q1858.45 175.066 1859.95 176.646 Q1861.49 178.226 1866.14 178.226 L1873.8 178.226 L1873.8 184.464 L1866.14 184.464 Q1857.52 184.464 1854.24 181.264 Q1850.95 178.023 1850.95 169.516 L1850.95 144.887 L1845.49 144.887 L1845.49 139.094 L1850.95 139.094 L1850.95 126.212 L1858.45 126.212 Z" fill="#000000" fill-rule="nonzero" fill-opacity="1" /><path clip-path="url(#clip270)" d="M1883.6 139.094 L1891.06 139.094 L1891.06 184.464 L1883.6 184.464 L1883.6 139.094 M1883.6 121.432 L1891.06 121.432 L1891.06 130.871 L1883.6 130.871 L1883.6 121.432 Z" fill="#000000" fill-rule="nonzero" fill-opacity="1" /><path clip-path="url(#clip270)" d="M1941.98 147.803 Q1944.77 142.78 1948.66 140.39 Q1952.55 138 1957.82 138 Q1964.91 138 1968.75 142.983 Q1972.6 147.925 1972.6 157.08 L1972.6 184.464 L1965.11 184.464 L1965.11 157.323 Q1965.11 150.801 1962.8 147.641 Q1960.49 144.482 1955.75 144.482 Q1949.96 144.482 1946.6 148.33 Q1943.23 152.178 1943.23 158.822 L1943.23 184.464 L1935.74 184.464 L1935.74 157.323 Q1935.74 150.76 1933.43 147.641 Q1931.12 144.482 1926.3 144.482 Q1920.59 144.482 1917.23 148.37 Q1913.86 152.219 1913.86 158.822 L1913.86 184.464 L1906.37 184.464 L1906.37 139.094 L1913.86 139.094 L1913.86 146.142 Q1916.42 141.97 1919.98 139.985 Q1923.55 138 1928.45 138 Q1933.39 138 1936.83 140.512 Q1940.32 143.023 1941.98 147.803 Z" fill="#000000" fill-rule="nonzero" fill-opacity="1" /><path clip-path="url(#clip270)" d="M2026.28 159.916 L2026.28 163.561 L1992.01 163.561 Q1992.49 171.258 1996.62 175.309 Q2000.8 179.319 2008.21 179.319 Q2012.5 179.319 2016.51 178.266 Q2020.57 177.213 2024.54 175.106 L2024.54 182.155 Q2020.52 183.856 2016.31 184.748 Q2012.1 185.639 2007.76 185.639 Q1996.91 185.639 1990.55 179.319 Q1984.23 173 1984.23 162.225 Q1984.23 151.085 1990.22 144.563 Q1996.26 138 2006.47 138 Q2015.62 138 2020.93 143.914 Q2026.28 149.788 2026.28 159.916 M2018.82 157.728 Q2018.74 151.611 2015.38 147.965 Q2012.06 144.32 2006.55 144.32 Q2000.31 144.32 1996.54 147.844 Q1992.82 151.368 1992.25 157.769 L2018.82 157.728 Z" fill="#000000" fill-rule="nonzero" fill-opacity="1" /><path clip-path="url(#clip270)" d="M2061.11 158.822 L2135.98 158.822 L2135.98 164.655 L2061.11 164.655 L2061.11 158.822 Z" fill="#000000" fill-rule="nonzero" fill-opacity="1" /><path clip-path="url(#clip270)" d="M2206.79 161.819 Q2206.79 153.596 2203.38 148.938 Q2200.02 144.239 2194.11 144.239 Q2188.19 144.239 2184.79 148.938 Q2181.43 153.596 2181.43 161.819 Q2181.43 170.043 2184.79 174.742 Q2188.19 179.4 2194.11 179.4 Q2200.02 179.4 2203.38 174.742 Q2206.79 170.043 2206.79 161.819 M2181.43 145.98 Q2183.78 141.93 2187.34 139.985 Q2190.95 138 2195.93 138 Q2204.19 138 2209.34 144.563 Q2214.52 151.125 2214.52 161.819 Q2214.52 172.514 2209.34 179.076 Q2204.19 185.639 2195.93 185.639 Q2190.95 185.639 2187.34 183.694 Q2183.78 181.709 2181.43 177.658 L2181.43 184.464 L2173.93 184.464 L2173.93 121.432 L2181.43 121.432 L2181.43 145.98 Z" fill="#000000" fill-rule="nonzero" fill-opacity="1" /><path clip-path="url(#clip270)" d="M2247.5 161.657 Q2238.46 161.657 2234.98 163.723 Q2231.5 165.789 2231.5 170.772 Q2231.5 174.742 2234.09 177.091 Q2236.72 179.4 2241.22 179.4 Q2247.42 179.4 2251.14 175.025 Q2254.91 170.61 2254.91 163.318 L2254.91 161.657 L2247.5 161.657 M2262.36 158.579 L2262.36 184.464 L2254.91 184.464 L2254.91 177.577 Q2252.36 181.709 2248.55 183.694 Q2244.74 185.639 2239.23 185.639 Q2232.27 185.639 2228.13 181.75 Q2224.04 177.821 2224.04 171.258 Q2224.04 163.602 2229.15 159.713 Q2234.29 155.824 2244.46 155.824 L2254.91 155.824 L2254.91 155.095 Q2254.91 149.95 2251.51 147.155 Q2248.14 144.32 2242.03 144.32 Q2238.14 144.32 2234.45 145.251 Q2230.77 146.183 2227.36 148.046 L2227.36 141.16 Q2231.46 139.58 2235.3 138.81 Q2239.15 138 2242.8 138 Q2252.64 138 2257.5 143.104 Q2262.36 148.208 2262.36 158.579 Z" fill="#000000" fill-rule="nonzero" fill-opacity="1" /><path clip-path="url(#clip270)" d="M2277.72 121.432 L2285.17 121.432 L2285.17 184.464 L2277.72 184.464 L2277.72 121.432 Z" fill="#000000" fill-rule="nonzero" fill-opacity="1" /><path clip-path="url(#clip270)" d="M2321.39 161.657 Q2312.35 161.657 2308.87 163.723 Q2305.38 165.789 2305.38 170.772 Q2305.38 174.742 2307.98 177.091 Q2310.61 179.4 2315.11 179.4 Q2321.3 179.4 2325.03 175.025 Q2328.8 170.61 2328.8 163.318 L2328.8 161.657 L2321.39 161.657 M2336.25 158.579 L2336.25 184.464 L2328.8 184.464 L2328.8 177.577 Q2326.25 181.709 2322.44 183.694 Q2318.63 185.639 2313.12 185.639 Q2306.15 185.639 2302.02 181.75 Q2297.93 177.821 2297.93 171.258 Q2297.93 163.602 2303.03 159.713 Q2308.18 155.824 2318.35 155.824 L2328.8 155.824 L2328.8 155.095 Q2328.8 149.95 2325.4 147.155 Q2322.03 144.32 2315.92 144.32 Q2312.03 144.32 2308.34 145.251 Q2304.66 146.183 2301.25 148.046 L2301.25 141.16 Q2305.34 139.58 2309.19 138.81 Q2313.04 138 2316.69 138 Q2326.53 138 2331.39 143.104 Q2336.25 148.208 2336.25 158.579 Z" fill="#000000" fill-rule="nonzero" fill-opacity="1" /><path clip-path="url(#clip270)" d="M2389.32 157.08 L2389.32 184.464 L2381.87 184.464 L2381.87 157.323 Q2381.87 150.882 2379.35 147.682 Q2376.84 144.482 2371.82 144.482 Q2365.78 144.482 2362.3 148.33 Q2358.82 152.178 2358.82 158.822 L2358.82 184.464 L2351.32 184.464 L2351.32 139.094 L2358.82 139.094 L2358.82 146.142 Q2361.49 142.051 2365.09 140.026 Q2368.74 138 2373.48 138 Q2381.3 138 2385.31 142.861 Q2389.32 147.682 2389.32 157.08 Z" fill="#000000" fill-rule="nonzero" fill-opacity="1" /><path clip-path="url(#clip270)" d="M2436.84 140.836 L2436.84 147.803 Q2433.68 146.061 2430.48 145.211 Q2427.32 144.32 2424.08 144.32 Q2416.82 144.32 2412.81 148.938 Q2408.8 153.515 2408.8 161.819 Q2408.8 170.124 2412.81 174.742 Q2416.82 179.319 2424.08 179.319 Q2427.32 179.319 2430.48 178.469 Q2433.68 177.577 2436.84 175.836 L2436.84 182.722 Q2433.72 184.18 2430.35 184.91 Q2427.03 185.639 2423.27 185.639 Q2413.02 185.639 2406.98 179.198 Q2400.95 172.757 2400.95 161.819 Q2400.95 150.72 2407.02 144.36 Q2413.14 138 2423.75 138 Q2427.19 138 2430.48 138.729 Q2433.76 139.418 2436.84 140.836 Z" fill="#000000" fill-rule="nonzero" fill-opacity="1" /><path clip-path="url(#clip270)" d="M2488.61 159.916 L2488.61 163.561 L2454.34 163.561 Q2454.82 171.258 2458.95 175.309 Q2463.13 179.319 2470.54 179.319 Q2474.83 179.319 2478.84 178.266 Q2482.89 177.213 2486.86 175.106 L2486.86 182.155 Q2482.85 183.856 2478.64 184.748 Q2474.43 185.639 2470.09 185.639 Q2459.24 185.639 2452.88 179.319 Q2446.56 173 2446.56 162.225 Q2446.56 151.085 2452.55 144.563 Q2458.59 138 2468.8 138 Q2477.95 138 2483.26 143.914 Q2488.61 149.788 2488.61 159.916 M2481.15 157.728 Q2481.07 151.611 2477.71 147.965 Q2474.39 144.32 2468.88 144.32 Q2462.64 144.32 2458.87 147.844 Q2455.15 151.368 2454.58 157.769 L2481.15 157.728 Z" fill="#000000" fill-rule="nonzero" fill-opacity="1" /><path clip-path="url(#clip270)" d="M2530.7 145.98 L2530.7 121.432 L2538.15 121.432 L2538.15 184.464 L2530.7 184.464 L2530.7 177.658 Q2528.35 181.709 2524.74 183.694 Q2521.18 185.639 2516.15 185.639 Q2507.93 185.639 2502.74 179.076 Q2497.6 172.514 2497.6 161.819 Q2497.6 151.125 2502.74 144.563 Q2507.93 138 2516.15 138 Q2521.18 138 2524.74 139.985 Q2528.35 141.93 2530.7 145.98 M2505.3 161.819 Q2505.3 170.043 2508.66 174.742 Q2512.06 179.4 2517.98 179.4 Q2523.89 179.4 2527.29 174.742 Q2530.7 170.043 2530.7 161.819 Q2530.7 153.596 2527.29 148.938 Q2523.89 144.239 2517.98 144.239 Q2512.06 144.239 2508.66 148.938 Q2505.3 153.596 2505.3 161.819 Z" fill="#000000" fill-rule="nonzero" fill-opacity="1" /><path clip-path="url(#clip270)" d="M2587.98 198.237 L2587.98 204.03 L2544.87 204.03 L2544.87 198.237 L2587.98 198.237 Z" fill="#000000" fill-rule="nonzero" fill-opacity="1" /><path clip-path="url(#clip270)" d="M2617.95 121.432 L2617.95 127.63 L2610.82 127.63 Q2606.81 127.63 2605.23 129.25 Q2603.69 130.871 2603.69 135.083 L2603.69 139.094 L2615.97 139.094 L2615.97 144.887 L2603.69 144.887 L2603.69 184.464 L2596.2 184.464 L2596.2 144.887 L2589.07 144.887 L2589.07 139.094 L2596.2 139.094 L2596.2 135.934 Q2596.2 128.359 2599.72 124.916 Q2603.25 121.432 2610.9 121.432 L2617.95 121.432 Z" fill="#000000" fill-rule="nonzero" fill-opacity="1" /><path clip-path="url(#clip270)" d="M2624.19 139.094 L2631.64 139.094 L2631.64 184.464 L2624.19 184.464 L2624.19 139.094 M2624.19 121.432 L2631.64 121.432 L2631.64 130.871 L2624.19 130.871 L2624.19 121.432 Z" fill="#000000" fill-rule="nonzero" fill-opacity="1" /><path clip-path="url(#clip270)" d="M2686.05 159.916 L2686.05 163.561 L2651.78 163.561 Q2652.26 171.258 2656.4 175.309 Q2660.57 179.319 2667.98 179.319 Q2672.27 179.319 2676.29 178.266 Q2680.34 177.213 2684.31 175.106 L2684.31 182.155 Q2680.3 183.856 2676.08 184.748 Q2671.87 185.639 2667.54 185.639 Q2656.68 185.639 2650.32 179.319 Q2644 173 2644 162.225 Q2644 151.085 2649.99 144.563 Q2656.03 138 2666.24 138 Q2675.39 138 2680.7 143.914 Q2686.05 149.788 2686.05 159.916 M2678.59 157.728 Q2678.51 151.611 2675.15 147.965 Q2671.83 144.32 2666.32 144.32 Q2660.08 144.32 2656.31 147.844 Q2652.59 151.368 2652.02 157.769 L2678.59 157.728 Z" fill="#000000" fill-rule="nonzero" fill-opacity="1" /><path clip-path="url(#clip270)" d="M2698.28 121.432 L2705.74 121.432 L2705.74 184.464 L2698.28 184.464 L2698.28 121.432 Z" fill="#000000" fill-rule="nonzero" fill-opacity="1" /><path clip-path="url(#clip270)" d="M2751.19 145.98 L2751.19 121.432 L2758.64 121.432 L2758.64 184.464 L2751.19 184.464 L2751.19 177.658 Q2748.84 181.709 2745.23 183.694 Q2741.67 185.639 2736.64 185.639 Q2728.42 185.639 2723.24 179.076 Q2718.09 172.514 2718.09 161.819 Q2718.09 151.125 2723.24 144.563 Q2728.42 138 2736.64 138 Q2741.67 138 2745.23 139.985 Q2748.84 141.93 2751.19 145.98 M2725.79 161.819 Q2725.79 170.043 2729.15 174.742 Q2732.55 179.4 2738.47 179.4 Q2744.38 179.4 2747.78 174.742 Q2751.19 170.043 2751.19 161.819 Q2751.19 153.596 2747.78 148.938 Q2744.38 144.239 2738.47 144.239 Q2732.55 144.239 2729.15 148.938 Q2725.79 153.596 2725.79 161.819 Z" fill="#000000" fill-rule="nonzero" fill-opacity="1" /><path clip-path="url(#clip272)" d="M437.48 1816.1 L389.48 1816.1 L413.48 1864.1 L437.48 1816.1 Z" fill="#9370db" fill-rule="evenodd" fill-opacity="1" stroke="none"/>
<path clip-path="url(#clip272)" d="M1453.43 1317.41 L1405.43 1317.41 L1429.43 1365.41 L1453.43 1317.41 Z" fill="#9370db" fill-rule="evenodd" fill-opacity="1" stroke="none"/>
<path clip-path="url(#clip272)" d="M1453.43 917.068 L1405.43 917.068 L1429.43 965.068 L1453.43 917.068 Z" fill="#9370db" fill-rule="evenodd" fill-opacity="1" stroke="none"/>
<path clip-path="url(#clip272)" d="M3485.32 452.018 L3437.32 452.018 L3461.32 500.018 L3485.32 452.018 Z" fill="#9370db" fill-rule="evenodd" fill-opacity="1" stroke="none"/>
<circle clip-path="url(#clip272)" cx="413.48" cy="1715.66" r="21.6" fill="#4682b4" fill-rule="evenodd" fill-opacity="1" stroke="none"/>
<circle clip-path="url(#clip272)" cx="1429.43" cy="1202.18" r="21.6" fill="#4682b4" fill-rule="evenodd" fill-opacity="1" stroke="none"/>
<circle clip-path="url(#clip272)" cx="1429.43" cy="809.636" r="21.6" fill="#4682b4" fill-rule="evenodd" fill-opacity="1" stroke="none"/>
<circle clip-path="url(#clip272)" cx="3461.32" cy="300.989" r="21.6" fill="#4682b4" fill-rule="evenodd" fill-opacity="1" stroke="none"/>
<path clip-path="url(#clip272)" d="M389.48 2078.46 L389.48 2126.46 L437.48 2126.46 L437.48 2078.46 L389.48 2078.46 Z" fill="#ff6347" fill-rule="evenodd" fill-opacity="1" stroke="none"/>
<path clip-path="url(#clip272)" d="M1405.43 1643.68 L1405.43 1691.68 L1453.43 1691.68 L1453.43 1643.68 L1405.43 1643.68 Z" fill="#ff6347" fill-rule="evenodd" fill-opacity="1" stroke="none"/>
<path clip-path="url(#clip272)" d="M1405.43 1327.34 L1405.43 1375.34 L1453.43 1375.34 L1453.43 1327.34 L1405.43 1327.34 Z" fill="#ff6347" fill-rule="evenodd" fill-opacity="1" stroke="none"/>
<path clip-path="url(#clip272)" d="M3437.32 814.057 L3437.32 862.057 L3485.32 862.057 L3485.32 814.057 L3437.32 814.057 Z" fill="#ff6347" fill-rule="evenodd" fill-opacity="1" stroke="none"/>
<path clip-path="url(#clip272)" d="M2445.37 1675.67 L2439.73 1691.89 L2422.55 1692.25 L2436.25 1702.65 L2431.26 1719.09 L2445.37 1709.27 L2459.49 1719.09 L2454.49 1702.65 L2468.2 1692.25 L2451.01 1691.89 L2445.37 1675.67 Z" fill="#a0522d" fill-rule="evenodd" fill-opacity="1" stroke="none"/>
<path clip-path="url(#clip272)" d="M3122.67 1193.09 L3117.03 1209.31 L3099.85 1209.67 L3113.55 1220.07 L3108.56 1236.51 L3122.67 1226.69 L3136.78 1236.51 L3131.79 1220.07 L3145.5 1209.67 L3128.31 1209.31 L3122.67 1193.09 Z" fill="#a0522d" fill-rule="evenodd" fill-opacity="1" stroke="none"/>
<path clip-path="url(#clip272)" d="M2445.37 834.175 L2439.73 850.399 L2422.55 850.759 L2436.25 861.151 L2431.26 877.591 L2445.37 867.775 L2459.49 877.591 L2454.49 861.151 L2468.2 850.759 L2451.01 850.399 L2445.37 834.175 Z" fill="#a0522d" fill-rule="evenodd" fill-opacity="1" stroke="none"/>
<path clip-path="url(#clip272)" d="M2784.02 435.649 L2778.38 451.873 L2761.2 452.233 L2774.9 462.625 L2769.91 479.065 L2784.02 469.249 L2798.13 479.065 L2793.14 462.625 L2806.85 452.233 L2789.66 451.873 L2784.02 435.649 Z" fill="#a0522d" fill-rule="evenodd" fill-opacity="1" stroke="none"/>
<path clip-path="url(#clip272)" d="M2445.37 1503.17 L2421.37 1527.17 L2445.37 1551.17 L2469.37 1527.17 L2445.37 1503.17 Z" fill="#2e8b57" fill-rule="evenodd" fill-opacity="1" stroke="none"/>
<path clip-path="url(#clip272)" d="M3122.67 1107.36 L3098.67 1131.36 L3122.67 1155.36 L3146.67 1131.36 L3122.67 1107.36 Z" fill="#2e8b57" fill-rule="evenodd" fill-opacity="1" stroke="none"/>
<path clip-path="url(#clip272)" d="M2445.37 638.377 L2421.37 662.377 L2445.37 686.377 L2469.37 662.377 L2445.37 638.377 Z" fill="#2e8b57" fill-rule="evenodd" fill-opacity="1" stroke="none"/>
<path clip-path="url(#clip272)" d="M2784.02 321.651 L2760.02 345.651 L2784.02 369.651 L2808.02 345.651 L2784.02 321.651 Z" fill="#2e8b57" fill-rule="evenodd" fill-opacity="1" stroke="none"/>
<path clip-path="url(#clip272)" d="M2445.37 2076.42 L2421.37 2124.42 L2469.37 2124.42 L2445.37 2076.42 Z" fill="#ff8c00" fill-rule="evenodd" fill-opacity="1" stroke="none"/>
<path clip-path="url(#clip272)" d="M3122.67 1652.11 L3098.67 1700.11 L3146.67 1700.11 L3122.67 1652.11 Z" fill="#ff8c00" fill-rule="evenodd" fill-opacity="1" stroke="none"/>
<path clip-path="url(#clip272)" d="M2445.37 1360.48 L2421.37 1408.48 L2469.37 1408.48 L2445.37 1360.48 Z" fill="#ff8c00" fill-rule="evenodd" fill-opacity="1" stroke="none"/>
<path clip-path="url(#clip272)" d="M2784.02 931.087 L2760.02 979.087 L2808.02 979.087 L2784.02 931.087 Z" fill="#ff8c00" fill-rule="evenodd" fill-opacity="1" stroke="none"/>
<path clip-path="url(#clip270)" d="M429.735 673.476 L1122.87 673.476 L1122.87 310.596 L429.735 310.596  Z" fill="#ffffff" fill-rule="evenodd" fill-opacity="1"/>
<polyline clip-path="url(#clip270)" style="stroke:#000000; stroke-linecap:round; stroke-linejoin:round; stroke-width:4; stroke-opacity:1; fill:none" points="429.735,673.476 1122.87,673.476 1122.87,310.596 429.735,310.596 429.735,673.476 "/>
<path clip-path="url(#clip270)" d="M598.922 336.836 L547.722 336.836 L573.322 388.036 L598.922 336.836 Z" fill="#9370db" fill-rule="evenodd" fill-opacity="1" stroke="none"/>
<path clip-path="url(#clip270)" d="M727.534 343.744 Q724.432 349.068 722.928 354.277 Q721.423 359.485 721.423 364.832 Q721.423 370.179 722.928 375.434 Q724.455 380.665 727.534 385.966 L723.83 385.966 Q720.358 380.527 718.622 375.272 Q716.909 370.017 716.909 364.832 Q716.909 359.67 718.622 354.439 Q720.335 349.207 723.83 343.744 L727.534 343.744 Z" fill="#000000" fill-rule="nonzero" fill-opacity="1" /><path clip-path="url(#clip270)" d="M735.798 353.791 L740.057 353.791 L740.057 380.179 Q740.057 385.133 738.159 387.355 Q736.284 389.577 732.094 389.577 L730.474 389.577 L730.474 385.966 L731.608 385.966 Q734.039 385.966 734.918 384.832 Q735.798 383.721 735.798 380.179 L735.798 353.791 M735.798 343.698 L740.057 343.698 L740.057 349.092 L735.798 349.092 L735.798 343.698 Z" fill="#000000" fill-rule="nonzero" fill-opacity="1" /><path clip-path="url(#clip270)" d="M748.529 369.485 L748.529 353.791 L752.788 353.791 L752.788 369.323 Q752.788 373.003 754.224 374.855 Q755.659 376.684 758.529 376.684 Q761.978 376.684 763.969 374.485 Q765.983 372.286 765.983 368.49 L765.983 353.791 L770.242 353.791 L770.242 379.716 L765.983 379.716 L765.983 375.735 Q764.432 378.096 762.372 379.253 Q760.335 380.388 757.626 380.388 Q753.159 380.388 750.844 377.61 Q748.529 374.832 748.529 369.485 M759.247 353.166 L759.247 353.166 Z" fill="#000000" fill-rule="nonzero" fill-opacity="1" /><path clip-path="url(#clip270)" d="M799.2 358.767 Q800.797 355.897 803.02 354.531 Q805.242 353.166 808.251 353.166 Q812.302 353.166 814.501 356.013 Q816.7 358.837 816.7 364.068 L816.7 379.716 L812.418 379.716 L812.418 364.207 Q812.418 360.48 811.098 358.675 Q809.779 356.869 807.071 356.869 Q803.76 356.869 801.839 359.068 Q799.918 361.267 799.918 365.064 L799.918 379.716 L795.635 379.716 L795.635 364.207 Q795.635 360.457 794.316 358.675 Q792.997 356.869 790.242 356.869 Q786.978 356.869 785.057 359.091 Q783.136 361.291 783.136 365.064 L783.136 379.716 L778.853 379.716 L778.853 353.791 L783.136 353.791 L783.136 357.818 Q784.594 355.434 786.631 354.3 Q788.668 353.166 791.469 353.166 Q794.293 353.166 796.26 354.601 Q798.251 356.036 799.2 358.767 Z" fill="#000000" fill-rule="nonzero" fill-opacity="1" /><path clip-path="url(#clip270)" d="M829.316 375.827 L829.316 389.577 L825.033 389.577 L825.033 353.791 L829.316 353.791 L829.316 357.726 Q830.658 355.411 832.695 354.3 Q834.756 353.166 837.603 353.166 Q842.325 353.166 845.265 356.916 Q848.228 360.666 848.228 366.777 Q848.228 372.888 845.265 376.638 Q842.325 380.388 837.603 380.388 Q834.756 380.388 832.695 379.277 Q830.658 378.142 829.316 375.827 M843.807 366.777 Q843.807 362.078 841.862 359.416 Q839.941 356.73 836.561 356.73 Q833.182 356.73 831.237 359.416 Q829.316 362.078 829.316 366.777 Q829.316 371.476 831.237 374.161 Q833.182 376.823 836.561 376.823 Q839.941 376.823 841.862 374.161 Q843.807 371.476 843.807 366.777 Z" fill="#000000" fill-rule="nonzero" fill-opacity="1" /><path clip-path="url(#clip270)" d="M856.376 373.837 L861.26 373.837 L861.26 377.818 L857.464 385.226 L854.478 385.226 L856.376 377.818 L856.376 373.837 Z" fill="#000000" fill-rule="nonzero" fill-opacity="1" /><path clip-path="url(#clip270)" d="M885.427 353.791 L889.686 353.791 L889.686 379.716 L885.427 379.716 L885.427 353.791 M885.427 343.698 L889.686 343.698 L889.686 349.092 L885.427 349.092 L885.427 343.698 Z" fill="#000000" fill-rule="nonzero" fill-opacity="1" /><path clip-path="url(#clip270)" d="M902.718 375.827 L902.718 389.577 L898.436 389.577 L898.436 353.791 L902.718 353.791 L902.718 357.726 Q904.061 355.411 906.098 354.3 Q908.158 353.166 911.005 353.166 Q915.727 353.166 918.667 356.916 Q921.63 360.666 921.63 366.777 Q921.63 372.888 918.667 376.638 Q915.727 380.388 911.005 380.388 Q908.158 380.388 906.098 379.277 Q904.061 378.142 902.718 375.827 M917.209 366.777 Q917.209 362.078 915.264 359.416 Q913.343 356.73 909.964 356.73 Q906.584 356.73 904.64 359.416 Q902.718 362.078 902.718 366.777 Q902.718 371.476 904.64 374.161 Q906.584 376.823 909.964 376.823 Q913.343 376.823 915.264 374.161 Q917.209 371.476 917.209 366.777 Z" fill="#000000" fill-rule="nonzero" fill-opacity="1" /><path clip-path="url(#clip270)" d="M938.737 356.777 Q935.311 356.777 933.32 359.462 Q931.329 362.124 931.329 366.777 Q931.329 371.429 933.297 374.115 Q935.288 376.777 938.737 376.777 Q942.139 376.777 944.13 374.091 Q946.121 371.406 946.121 366.777 Q946.121 362.17 944.13 359.485 Q942.139 356.777 938.737 356.777 M938.737 353.166 Q944.292 353.166 947.463 356.777 Q950.635 360.388 950.635 366.777 Q950.635 373.142 947.463 376.777 Q944.292 380.388 938.737 380.388 Q933.158 380.388 929.987 376.777 Q926.838 373.142 926.838 366.777 Q926.838 360.388 929.987 356.777 Q933.158 353.166 938.737 353.166 Z" fill="#000000" fill-rule="nonzero" fill-opacity="1" /><path clip-path="url(#clip270)" d="M961.815 375.827 L961.815 389.577 L957.533 389.577 L957.533 353.791 L961.815 353.791 L961.815 357.726 Q963.158 355.411 965.195 354.3 Q967.255 353.166 970.102 353.166 Q974.824 353.166 977.764 356.916 Q980.727 360.666 980.727 366.777 Q980.727 372.888 977.764 376.638 Q974.824 380.388 970.102 380.388 Q967.255 380.388 965.195 379.277 Q963.158 378.142 961.815 375.827 M976.306 366.777 Q976.306 362.078 974.361 359.416 Q972.44 356.73 969.06 356.73 Q965.681 356.73 963.736 359.416 Q961.815 362.078 961.815 366.777 Q961.815 371.476 963.736 374.161 Q965.681 376.823 969.06 376.823 Q972.44 376.823 974.361 374.161 Q976.306 371.476 976.306 366.777 Z" fill="#000000" fill-rule="nonzero" fill-opacity="1" /><path clip-path="url(#clip270)" d="M992 346.43 L992 353.791 L1000.77 353.791 L1000.77 357.101 L992 357.101 L992 371.175 Q992 374.346 992.857 375.249 Q993.736 376.152 996.398 376.152 L1000.77 376.152 L1000.77 379.716 L996.398 379.716 Q991.468 379.716 989.593 377.888 Q987.718 376.036 987.718 371.175 L987.718 357.101 L984.593 357.101 L984.593 353.791 L987.718 353.791 L987.718 346.43 L992 346.43 Z" fill="#000000" fill-rule="nonzero" fill-opacity="1" /><path clip-path="url(#clip270)" d="M1005.7 343.744 L1009.41 343.744 Q1012.88 349.207 1014.59 354.439 Q1016.33 359.67 1016.33 364.832 Q1016.33 370.017 1014.59 375.272 Q1012.88 380.527 1009.41 385.966 L1005.7 385.966 Q1008.78 380.665 1010.29 375.434 Q1011.81 370.179 1011.81 364.832 Q1011.81 359.485 1010.29 354.277 Q1008.78 349.068 1005.7 343.744 Z" fill="#000000" fill-rule="nonzero" fill-opacity="1" /><circle clip-path="url(#clip270)" cx="573.322" cy="414.276" r="23.04" fill="#4682b4" fill-rule="evenodd" fill-opacity="1" stroke="none"/>
<path clip-path="url(#clip270)" d="M727.534 395.584 Q724.432 400.908 722.928 406.117 Q721.423 411.325 721.423 416.672 Q721.423 422.019 722.928 427.274 Q724.455 432.505 727.534 437.806 L723.83 437.806 Q720.358 432.367 718.622 427.112 Q716.909 421.857 716.909 416.672 Q716.909 411.51 718.622 406.279 Q720.335 401.047 723.83 395.584 L727.534 395.584 Z" fill="#000000" fill-rule="nonzero" fill-opacity="1" /><path clip-path="url(#clip270)" d="M747.58 418.524 Q742.418 418.524 740.427 419.705 Q738.437 420.885 738.437 423.732 Q738.437 426.001 739.918 427.343 Q741.423 428.663 743.992 428.663 Q747.534 428.663 749.664 426.163 Q751.816 423.64 751.816 419.473 L751.816 418.524 L747.58 418.524 M756.076 416.765 L756.076 431.556 L751.816 431.556 L751.816 427.621 Q750.358 429.982 748.182 431.117 Q746.006 432.228 742.858 432.228 Q738.877 432.228 736.515 430.005 Q734.177 427.76 734.177 424.01 Q734.177 419.635 737.094 417.413 Q740.034 415.191 745.844 415.191 L751.816 415.191 L751.816 414.774 Q751.816 411.834 749.872 410.237 Q747.951 408.617 744.455 408.617 Q742.233 408.617 740.127 409.149 Q738.02 409.681 736.076 410.746 L736.076 406.811 Q738.414 405.908 740.613 405.469 Q742.812 405.006 744.895 405.006 Q750.52 405.006 753.298 407.922 Q756.076 410.839 756.076 416.765 Z" fill="#000000" fill-rule="nonzero" fill-opacity="1" /><path clip-path="url(#clip270)" d="M781.909 409.566 L781.909 395.538 L786.168 395.538 L786.168 431.556 L781.909 431.556 L781.909 427.667 Q780.566 429.982 778.506 431.117 Q776.469 432.228 773.599 432.228 Q768.9 432.228 765.937 428.478 Q762.997 424.728 762.997 418.617 Q762.997 412.506 765.937 408.756 Q768.9 405.006 773.599 405.006 Q776.469 405.006 778.506 406.14 Q780.566 407.251 781.909 409.566 M767.395 418.617 Q767.395 423.316 769.316 426.001 Q771.261 428.663 774.64 428.663 Q778.02 428.663 779.964 426.001 Q781.909 423.316 781.909 418.617 Q781.909 413.918 779.964 411.256 Q778.02 408.57 774.64 408.57 Q771.261 408.57 769.316 411.256 Q767.395 413.918 767.395 418.617 Z" fill="#000000" fill-rule="nonzero" fill-opacity="1" /><path clip-path="url(#clip270)" d="M816.492 415.908 L816.492 431.556 L812.233 431.556 L812.233 416.047 Q812.233 412.367 810.797 410.538 Q809.362 408.709 806.492 408.709 Q803.043 408.709 801.052 410.908 Q799.061 413.107 799.061 416.904 L799.061 431.556 L794.779 431.556 L794.779 405.631 L799.061 405.631 L799.061 409.658 Q800.589 407.32 802.649 406.163 Q804.733 405.006 807.441 405.006 Q811.909 405.006 814.2 407.783 Q816.492 410.538 816.492 415.908 Z" fill="#000000" fill-rule="nonzero" fill-opacity="1" /><path clip-path="url(#clip270)" d="M824.987 395.538 L829.246 395.538 L829.246 431.556 L824.987 431.556 L824.987 395.538 Z" fill="#000000" fill-rule="nonzero" fill-opacity="1" /><path clip-path="url(#clip270)" d="M842.279 427.667 L842.279 441.417 L837.996 441.417 L837.996 405.631 L842.279 405.631 L842.279 409.566 Q843.621 407.251 845.658 406.14 Q847.719 405.006 850.566 405.006 Q855.288 405.006 858.228 408.756 Q861.191 412.506 861.191 418.617 Q861.191 424.728 858.228 428.478 Q855.288 432.228 850.566 432.228 Q847.719 432.228 845.658 431.117 Q843.621 429.982 842.279 427.667 M856.769 418.617 Q856.769 413.918 854.825 411.256 Q852.904 408.57 849.524 408.57 Q846.144 408.57 844.2 411.256 Q842.279 413.918 842.279 418.617 Q842.279 423.316 844.2 426.001 Q846.144 428.663 849.524 428.663 Q852.904 428.663 854.825 426.001 Q856.769 423.316 856.769 418.617 Z" fill="#000000" fill-rule="nonzero" fill-opacity="1" /><path clip-path="url(#clip270)" d="M869.339 425.677 L874.223 425.677 L874.223 429.658 L870.427 437.066 L867.441 437.066 L869.339 429.658 L869.339 425.677 Z" fill="#000000" fill-rule="nonzero" fill-opacity="1" /><path clip-path="url(#clip270)" d="M898.39 405.631 L902.649 405.631 L902.649 431.556 L898.39 431.556 L898.39 405.631 M898.39 395.538 L902.649 395.538 L902.649 400.932 L898.39 400.932 L898.39 395.538 Z" fill="#000000" fill-rule="nonzero" fill-opacity="1" /><path clip-path="url(#clip270)" d="M915.681 427.667 L915.681 441.417 L911.399 441.417 L911.399 405.631 L915.681 405.631 L915.681 409.566 Q917.024 407.251 919.061 406.14 Q921.121 405.006 923.968 405.006 Q928.69 405.006 931.63 408.756 Q934.593 412.506 934.593 418.617 Q934.593 424.728 931.63 428.478 Q928.69 432.228 923.968 432.228 Q921.121 432.228 919.061 431.117 Q917.024 429.982 915.681 427.667 M930.172 418.617 Q930.172 413.918 928.227 411.256 Q926.306 408.57 922.926 408.57 Q919.547 408.57 917.602 411.256 Q915.681 413.918 915.681 418.617 Q915.681 423.316 917.602 426.001 Q919.547 428.663 922.926 428.663 Q926.306 428.663 928.227 426.001 Q930.172 423.316 930.172 418.617 Z" fill="#000000" fill-rule="nonzero" fill-opacity="1" /><path clip-path="url(#clip270)" d="M951.699 408.617 Q948.274 408.617 946.283 411.302 Q944.292 413.964 944.292 418.617 Q944.292 423.269 946.26 425.955 Q948.25 428.617 951.699 428.617 Q955.102 428.617 957.093 425.931 Q959.084 423.246 959.084 418.617 Q959.084 414.01 957.093 411.325 Q955.102 408.617 951.699 408.617 M951.699 405.006 Q957.255 405.006 960.426 408.617 Q963.598 412.228 963.598 418.617 Q963.598 424.982 960.426 428.617 Q957.255 432.228 951.699 432.228 Q946.121 432.228 942.95 428.617 Q939.801 424.982 939.801 418.617 Q939.801 412.228 942.95 408.617 Q946.121 405.006 951.699 405.006 Z" fill="#000000" fill-rule="nonzero" fill-opacity="1" /><path clip-path="url(#clip270)" d="M974.778 427.667 L974.778 441.417 L970.496 441.417 L970.496 405.631 L974.778 405.631 L974.778 409.566 Q976.121 407.251 978.158 406.14 Q980.218 405.006 983.065 405.006 Q987.787 405.006 990.727 408.756 Q993.69 412.506 993.69 418.617 Q993.69 424.728 990.727 428.478 Q987.787 432.228 983.065 432.228 Q980.218 432.228 978.158 431.117 Q976.121 429.982 974.778 427.667 M989.269 418.617 Q989.269 413.918 987.324 411.256 Q985.403 408.57 982.023 408.57 Q978.644 408.57 976.699 411.256 Q974.778 413.918 974.778 418.617 Q974.778 423.316 976.699 426.001 Q978.644 428.663 982.023 428.663 Q985.403 428.663 987.324 426.001 Q989.269 423.316 989.269 418.617 Z" fill="#000000" fill-rule="nonzero" fill-opacity="1" /><path clip-path="url(#clip270)" d="M1004.96 398.27 L1004.96 405.631 L1013.74 405.631 L1013.74 408.941 L1004.96 408.941 L1004.96 423.015 Q1004.96 426.186 1005.82 427.089 Q1006.7 427.992 1009.36 427.992 L1013.74 427.992 L1013.74 431.556 L1009.36 431.556 Q1004.43 431.556 1002.56 429.728 Q1000.68 427.876 1000.68 423.015 L1000.68 408.941 L997.556 408.941 L997.556 405.631 L1000.68 405.631 L1000.68 398.27 L1004.96 398.27 Z" fill="#000000" fill-rule="nonzero" fill-opacity="1" /><path clip-path="url(#clip270)" d="M1018.67 395.584 L1022.37 395.584 Q1025.84 401.047 1027.56 406.279 Q1029.29 411.51 1029.29 416.672 Q1029.29 421.857 1027.56 427.112 Q1025.84 432.367 1022.37 437.806 L1018.67 437.806 Q1021.75 432.505 1023.25 427.274 Q1024.78 422.019 1024.78 416.672 Q1024.78 411.325 1023.25 406.117 Q1021.75 400.908 1018.67 395.584 Z" fill="#000000" fill-rule="nonzero" fill-opacity="1" /><path clip-path="url(#clip270)" d="M547.722 440.516 L547.722 491.716 L598.922 491.716 L598.922 440.516 L547.722 440.516 Z" fill="#ff6347" fill-rule="evenodd" fill-opacity="1" stroke="none"/>
<path clip-path="url(#clip270)" d="M727.534 447.424 Q724.432 452.748 722.928 457.957 Q721.423 463.165 721.423 468.512 Q721.423 473.859 722.928 479.114 Q724.455 484.345 727.534 489.646 L723.83 489.646 Q720.358 484.207 718.622 478.952 Q716.909 473.697 716.909 468.512 Q716.909 463.35 718.622 458.119 Q720.335 452.887 723.83 447.424 L727.534 447.424 Z" fill="#000000" fill-rule="nonzero" fill-opacity="1" /><path clip-path="url(#clip270)" d="M757.974 469.369 L757.974 471.452 L738.39 471.452 Q738.668 475.85 741.029 478.165 Q743.414 480.457 747.65 480.457 Q750.103 480.457 752.395 479.855 Q754.71 479.253 756.978 478.049 L756.978 482.077 Q754.687 483.049 752.279 483.558 Q749.872 484.068 747.395 484.068 Q741.191 484.068 737.557 480.457 Q733.946 476.845 733.946 470.688 Q733.946 464.322 737.372 460.596 Q740.821 456.846 746.654 456.846 Q751.886 456.846 754.918 460.225 Q757.974 463.582 757.974 469.369 M753.714 468.119 Q753.668 464.623 751.747 462.54 Q749.849 460.457 746.701 460.457 Q743.136 460.457 740.983 462.471 Q738.853 464.484 738.529 468.142 L753.714 468.119 Z" fill="#000000" fill-rule="nonzero" fill-opacity="1" /><path clip-path="url(#clip270)" d="M785.682 457.471 L776.307 470.086 L786.168 483.396 L781.145 483.396 L773.599 473.211 L766.052 483.396 L761.029 483.396 L771.099 469.832 L761.886 457.471 L766.909 457.471 L773.784 466.707 L780.659 457.471 L785.682 457.471 Z" fill="#000000" fill-rule="nonzero" fill-opacity="1" /><path clip-path="url(#clip270)" d="M803.969 470.364 Q798.807 470.364 796.816 471.545 Q794.825 472.725 794.825 475.572 Q794.825 477.841 796.307 479.183 Q797.811 480.503 800.381 480.503 Q803.922 480.503 806.052 478.003 Q808.205 475.48 808.205 471.313 L808.205 470.364 L803.969 470.364 M812.464 468.605 L812.464 483.396 L808.205 483.396 L808.205 479.461 Q806.747 481.822 804.571 482.957 Q802.395 484.068 799.247 484.068 Q795.265 484.068 792.904 481.845 Q790.566 479.6 790.566 475.85 Q790.566 471.475 793.483 469.253 Q796.423 467.031 802.233 467.031 L808.205 467.031 L808.205 466.614 Q808.205 463.674 806.26 462.077 Q804.339 460.457 800.844 460.457 Q798.622 460.457 796.515 460.989 Q794.409 461.521 792.464 462.586 L792.464 458.651 Q794.802 457.748 797.001 457.309 Q799.2 456.846 801.284 456.846 Q806.909 456.846 809.686 459.762 Q812.464 462.679 812.464 468.605 Z" fill="#000000" fill-rule="nonzero" fill-opacity="1" /><path clip-path="url(#clip270)" d="M822.325 477.517 L827.209 477.517 L827.209 481.498 L823.413 488.906 L820.427 488.906 L822.325 481.498 L822.325 477.517 Z" fill="#000000" fill-rule="nonzero" fill-opacity="1" /><path clip-path="url(#clip270)" d="M851.376 457.471 L855.635 457.471 L855.635 483.396 L851.376 483.396 L851.376 457.471 M851.376 447.378 L855.635 447.378 L855.635 452.772 L851.376 452.772 L851.376 447.378 Z" fill="#000000" fill-rule="nonzero" fill-opacity="1" /><path clip-path="url(#clip270)" d="M868.667 479.507 L868.667 493.257 L864.385 493.257 L864.385 457.471 L868.667 457.471 L868.667 461.406 Q870.01 459.091 872.047 457.98 Q874.107 456.846 876.954 456.846 Q881.677 456.846 884.616 460.596 Q887.579 464.346 887.579 470.457 Q887.579 476.568 884.616 480.318 Q881.677 484.068 876.954 484.068 Q874.107 484.068 872.047 482.957 Q870.01 481.822 868.667 479.507 M883.158 470.457 Q883.158 465.758 881.214 463.096 Q879.292 460.41 875.913 460.41 Q872.533 460.41 870.589 463.096 Q868.667 465.758 868.667 470.457 Q868.667 475.156 870.589 477.841 Q872.533 480.503 875.913 480.503 Q879.292 480.503 881.214 477.841 Q883.158 475.156 883.158 470.457 Z" fill="#000000" fill-rule="nonzero" fill-opacity="1" /><path clip-path="url(#clip270)" d="M904.686 460.457 Q901.26 460.457 899.269 463.142 Q897.278 465.804 897.278 470.457 Q897.278 475.109 899.246 477.795 Q901.237 480.457 904.686 480.457 Q908.089 480.457 910.079 477.771 Q912.07 475.086 912.07 470.457 Q912.07 465.85 910.079 463.165 Q908.089 460.457 904.686 460.457 M904.686 456.846 Q910.241 456.846 913.413 460.457 Q916.584 464.068 916.584 470.457 Q916.584 476.822 913.413 480.457 Q910.241 484.068 904.686 484.068 Q899.107 484.068 895.936 480.457 Q892.788 476.822 892.788 470.457 Q892.788 464.068 895.936 460.457 Q899.107 456.846 904.686 456.846 Z" fill="#000000" fill-rule="nonzero" fill-opacity="1" /><path clip-path="url(#clip270)" d="M927.764 479.507 L927.764 493.257 L923.482 493.257 L923.482 457.471 L927.764 457.471 L927.764 461.406 Q929.107 459.091 931.144 457.98 Q933.204 456.846 936.051 456.846 Q940.774 456.846 943.713 460.596 Q946.676 464.346 946.676 470.457 Q946.676 476.568 943.713 480.318 Q940.774 484.068 936.051 484.068 Q933.204 484.068 931.144 482.957 Q929.107 481.822 927.764 479.507 M942.255 470.457 Q942.255 465.758 940.311 463.096 Q938.389 460.41 935.01 460.41 Q931.63 460.41 929.686 463.096 Q927.764 465.758 927.764 470.457 Q927.764 475.156 929.686 477.841 Q931.63 480.503 935.01 480.503 Q938.389 480.503 940.311 477.841 Q942.255 475.156 942.255 470.457 Z" fill="#000000" fill-rule="nonzero" fill-opacity="1" /><path clip-path="url(#clip270)" d="M957.949 450.11 L957.949 457.471 L966.723 457.471 L966.723 460.781 L957.949 460.781 L957.949 474.855 Q957.949 478.026 958.806 478.929 Q959.686 479.832 962.348 479.832 L966.723 479.832 L966.723 483.396 L962.348 483.396 Q957.417 483.396 955.542 481.568 Q953.667 479.716 953.667 474.855 L953.667 460.781 L950.542 460.781 L950.542 457.471 L953.667 457.471 L953.667 450.11 L957.949 450.11 Z" fill="#000000" fill-rule="nonzero" fill-opacity="1" /><path clip-path="url(#clip270)" d="M971.653 447.424 L975.357 447.424 Q978.829 452.887 980.542 458.119 Q982.278 463.35 982.278 468.512 Q982.278 473.697 980.542 478.952 Q978.829 484.207 975.357 489.646 L971.653 489.646 Q974.732 484.345 976.236 479.114 Q977.764 473.859 977.764 468.512 Q977.764 463.165 976.236 457.957 Q974.732 452.748 971.653 447.424 Z" fill="#000000" fill-rule="nonzero" fill-opacity="1" /><path clip-path="url(#clip270)" d="M573.322 492.356 L567.306 509.662 L548.976 510.046 L563.594 521.131 L558.269 538.667 L573.322 528.196 L588.375 538.667 L583.05 521.131 L597.667 510.046 L579.338 509.662 L573.322 492.356 Z" fill="#a0522d" fill-rule="evenodd" fill-opacity="1" stroke="none"/>
<path clip-path="url(#clip270)" d="M727.534 499.264 Q724.432 504.588 722.928 509.797 Q721.423 515.005 721.423 520.352 Q721.423 525.699 722.928 530.954 Q724.455 536.185 727.534 541.486 L723.83 541.486 Q720.358 536.047 718.622 530.792 Q716.909 525.537 716.909 520.352 Q716.909 515.19 718.622 509.959 Q720.335 504.727 723.83 499.264 L727.534 499.264 Z" fill="#000000" fill-rule="nonzero" fill-opacity="1" /><path clip-path="url(#clip270)" d="M735.798 509.311 L740.057 509.311 L740.057 535.699 Q740.057 540.653 738.159 542.875 Q736.284 545.097 732.094 545.097 L730.474 545.097 L730.474 541.486 L731.608 541.486 Q734.039 541.486 734.918 540.352 Q735.798 539.241 735.798 535.699 L735.798 509.311 M735.798 499.218 L740.057 499.218 L740.057 504.612 L735.798 504.612 L735.798 499.218 Z" fill="#000000" fill-rule="nonzero" fill-opacity="1" /><path clip-path="url(#clip270)" d="M748.529 525.005 L748.529 509.311 L752.788 509.311 L752.788 524.843 Q752.788 528.523 754.224 530.375 Q755.659 532.204 758.529 532.204 Q761.978 532.204 763.969 530.005 Q765.983 527.806 765.983 524.01 L765.983 509.311 L770.242 509.311 L770.242 535.236 L765.983 535.236 L765.983 531.255 Q764.432 533.616 762.372 534.773 Q760.335 535.908 757.626 535.908 Q753.159 535.908 750.844 533.13 Q748.529 530.352 748.529 525.005 M759.247 508.686 L759.247 508.686 Z" fill="#000000" fill-rule="nonzero" fill-opacity="1" /><path clip-path="url(#clip270)" d="M799.2 514.287 Q800.797 511.417 803.02 510.051 Q805.242 508.686 808.251 508.686 Q812.302 508.686 814.501 511.533 Q816.7 514.357 816.7 519.588 L816.7 535.236 L812.418 535.236 L812.418 519.727 Q812.418 516 811.098 514.195 Q809.779 512.389 807.071 512.389 Q803.76 512.389 801.839 514.588 Q799.918 516.787 799.918 520.584 L799.918 535.236 L795.635 535.236 L795.635 519.727 Q795.635 515.977 794.316 514.195 Q792.997 512.389 790.242 512.389 Q786.978 512.389 785.057 514.611 Q783.136 516.811 783.136 520.584 L783.136 535.236 L778.853 535.236 L778.853 509.311 L783.136 509.311 L783.136 513.338 Q784.594 510.954 786.631 509.82 Q788.668 508.686 791.469 508.686 Q794.293 508.686 796.26 510.121 Q798.251 511.556 799.2 514.287 Z" fill="#000000" fill-rule="nonzero" fill-opacity="1" /><path clip-path="url(#clip270)" d="M829.316 531.347 L829.316 545.097 L825.033 545.097 L825.033 509.311 L829.316 509.311 L829.316 513.246 Q830.658 510.931 832.695 509.82 Q834.756 508.686 837.603 508.686 Q842.325 508.686 845.265 512.436 Q848.228 516.186 848.228 522.297 Q848.228 528.408 845.265 532.158 Q842.325 535.908 837.603 535.908 Q834.756 535.908 832.695 534.797 Q830.658 533.662 829.316 531.347 M843.807 522.297 Q843.807 517.598 841.862 514.936 Q839.941 512.25 836.561 512.25 Q833.182 512.25 831.237 514.936 Q829.316 517.598 829.316 522.297 Q829.316 526.996 831.237 529.681 Q833.182 532.343 836.561 532.343 Q839.941 532.343 841.862 529.681 Q843.807 526.996 843.807 522.297 Z" fill="#000000" fill-rule="nonzero" fill-opacity="1" /><path clip-path="url(#clip270)" d="M856.376 529.357 L861.26 529.357 L861.26 533.338 L857.464 540.746 L854.478 540.746 L856.376 533.338 L856.376 529.357 Z" fill="#000000" fill-rule="nonzero" fill-opacity="1" /><path clip-path="url(#clip270)" d="M905.612 514.287 Q907.209 511.417 909.431 510.051 Q911.653 508.686 914.663 508.686 Q918.714 508.686 920.913 511.533 Q923.112 514.357 923.112 519.588 L923.112 535.236 L918.829 535.236 L918.829 519.727 Q918.829 516 917.51 514.195 Q916.19 512.389 913.482 512.389 Q910.172 512.389 908.251 514.588 Q906.329 516.787 906.329 520.584 L906.329 535.236 L902.047 535.236 L902.047 519.727 Q902.047 515.977 900.728 514.195 Q899.408 512.389 896.653 512.389 Q893.39 512.389 891.468 514.611 Q889.547 516.811 889.547 520.584 L889.547 535.236 L885.265 535.236 L885.265 509.311 L889.547 509.311 L889.547 513.338 Q891.005 510.954 893.042 509.82 Q895.079 508.686 897.88 508.686 Q900.704 508.686 902.672 510.121 Q904.663 511.556 905.612 514.287 Z" fill="#000000" fill-rule="nonzero" fill-opacity="1" /><path clip-path="url(#clip270)" d="M943.389 522.204 Q938.227 522.204 936.237 523.385 Q934.246 524.565 934.246 527.412 Q934.246 529.681 935.727 531.023 Q937.232 532.343 939.801 532.343 Q943.343 532.343 945.473 529.843 Q947.625 527.32 947.625 523.153 L947.625 522.204 L943.389 522.204 M951.885 520.445 L951.885 535.236 L947.625 535.236 L947.625 531.301 Q946.167 533.662 943.991 534.797 Q941.815 535.908 938.667 535.908 Q934.686 535.908 932.325 533.685 Q929.987 531.44 929.987 527.69 Q929.987 523.315 932.903 521.093 Q935.843 518.871 941.653 518.871 L947.625 518.871 L947.625 518.454 Q947.625 515.514 945.681 513.917 Q943.76 512.297 940.264 512.297 Q938.042 512.297 935.936 512.829 Q933.829 513.361 931.885 514.426 L931.885 510.491 Q934.223 509.588 936.422 509.149 Q938.621 508.686 940.704 508.686 Q946.329 508.686 949.107 511.602 Q951.885 514.519 951.885 520.445 Z" fill="#000000" fill-rule="nonzero" fill-opacity="1" /><path clip-path="url(#clip270)" d="M977.718 513.246 L977.718 499.218 L981.977 499.218 L981.977 535.236 L977.718 535.236 L977.718 531.347 Q976.375 533.662 974.315 534.797 Q972.278 535.908 969.408 535.908 Q964.709 535.908 961.746 532.158 Q958.806 528.408 958.806 522.297 Q958.806 516.186 961.746 512.436 Q964.709 508.686 969.408 508.686 Q972.278 508.686 974.315 509.82 Q976.375 510.931 977.718 513.246 M963.204 522.297 Q963.204 526.996 965.125 529.681 Q967.07 532.343 970.449 532.343 Q973.829 532.343 975.773 529.681 Q977.718 526.996 977.718 522.297 Q977.718 517.598 975.773 514.936 Q973.829 512.25 970.449 512.25 Q967.07 512.25 965.125 514.936 Q963.204 517.598 963.204 522.297 Z" fill="#000000" fill-rule="nonzero" fill-opacity="1" /><path clip-path="url(#clip270)" d="M1012.3 519.588 L1012.3 535.236 L1008.04 535.236 L1008.04 519.727 Q1008.04 516.047 1006.61 514.218 Q1005.17 512.389 1002.3 512.389 Q998.852 512.389 996.861 514.588 Q994.871 516.787 994.871 520.584 L994.871 535.236 L990.588 535.236 L990.588 509.311 L994.871 509.311 L994.871 513.338 Q996.398 511 998.458 509.843 Q1000.54 508.686 1003.25 508.686 Q1007.72 508.686 1010.01 511.463 Q1012.3 514.218 1012.3 519.588 Z" fill="#000000" fill-rule="nonzero" fill-opacity="1" /><path clip-path="url(#clip270)" d="M1020.8 499.218 L1025.06 499.218 L1025.06 535.236 L1020.8 535.236 L1020.8 499.218 Z" fill="#000000" fill-rule="nonzero" fill-opacity="1" /><path clip-path="url(#clip270)" d="M1038.09 531.347 L1038.09 545.097 L1033.81 545.097 L1033.81 509.311 L1038.09 509.311 L1038.09 513.246 Q1039.43 510.931 1041.47 509.82 Q1043.53 508.686 1046.37 508.686 Q1051.1 508.686 1054.04 512.436 Q1057 516.186 1057 522.297 Q1057 528.408 1054.04 532.158 Q1051.1 535.908 1046.37 535.908 Q1043.53 535.908 1041.47 534.797 Q1039.43 533.662 1038.09 531.347 M1052.58 522.297 Q1052.58 517.598 1050.63 514.936 Q1048.71 512.25 1045.33 512.25 Q1041.95 512.25 1040.01 514.936 Q1038.09 517.598 1038.09 522.297 Q1038.09 526.996 1040.01 529.681 Q1041.95 532.343 1045.33 532.343 Q1048.71 532.343 1050.63 529.681 Q1052.58 526.996 1052.58 522.297 Z" fill="#000000" fill-rule="nonzero" fill-opacity="1" /><path clip-path="url(#clip270)" d="M1063.39 499.264 L1067.09 499.264 Q1070.56 504.727 1072.28 509.959 Q1074.01 515.19 1074.01 520.352 Q1074.01 525.537 1072.28 530.792 Q1070.56 536.047 1067.09 541.486 L1063.39 541.486 Q1066.47 536.185 1067.97 530.954 Q1069.5 525.699 1069.5 520.352 Q1069.5 515.005 1067.97 509.797 Q1066.47 504.588 1063.39 499.264 Z" fill="#000000" fill-rule="nonzero" fill-opacity="1" /><path clip-path="url(#clip270)" d="M573.322 544.196 L547.722 569.796 L573.322 595.396 L598.922 569.796 L573.322 544.196 Z" fill="#2e8b57" fill-rule="evenodd" fill-opacity="1" stroke="none"/>
<path clip-path="url(#clip270)" d="M727.534 551.104 Q724.432 556.428 722.928 561.637 Q721.423 566.845 721.423 572.192 Q721.423 577.539 722.928 582.794 Q724.455 588.025 727.534 593.326 L723.83 593.326 Q720.358 587.887 718.622 582.632 Q716.909 577.377 716.909 572.192 Q716.909 567.03 718.622 561.799 Q720.335 556.567 723.83 551.104 L727.534 551.104 Z" fill="#000000" fill-rule="nonzero" fill-opacity="1" /><path clip-path="url(#clip270)" d="M747.58 574.044 Q742.418 574.044 740.427 575.225 Q738.437 576.405 738.437 579.252 Q738.437 581.521 739.918 582.863 Q741.423 584.183 743.992 584.183 Q747.534 584.183 749.664 581.683 Q751.816 579.16 751.816 574.993 L751.816 574.044 L747.58 574.044 M756.076 572.285 L756.076 587.076 L751.816 587.076 L751.816 583.141 Q750.358 585.502 748.182 586.637 Q746.006 587.748 742.858 587.748 Q738.877 587.748 736.515 585.525 Q734.177 583.28 734.177 579.53 Q734.177 575.155 737.094 572.933 Q740.034 570.711 745.844 570.711 L751.816 570.711 L751.816 570.294 Q751.816 567.354 749.872 565.757 Q747.951 564.137 744.455 564.137 Q742.233 564.137 740.127 564.669 Q738.02 565.201 736.076 566.266 L736.076 562.331 Q738.414 561.428 740.613 560.989 Q742.812 560.526 744.895 560.526 Q750.52 560.526 753.298 563.442 Q756.076 566.359 756.076 572.285 Z" fill="#000000" fill-rule="nonzero" fill-opacity="1" /><path clip-path="url(#clip270)" d="M781.909 565.086 L781.909 551.058 L786.168 551.058 L786.168 587.076 L781.909 587.076 L781.909 583.187 Q780.566 585.502 778.506 586.637 Q776.469 587.748 773.599 587.748 Q768.9 587.748 765.937 583.998 Q762.997 580.248 762.997 574.137 Q762.997 568.026 765.937 564.276 Q768.9 560.526 773.599 560.526 Q776.469 560.526 778.506 561.66 Q780.566 562.771 781.909 565.086 M767.395 574.137 Q767.395 578.836 769.316 581.521 Q771.261 584.183 774.64 584.183 Q778.02 584.183 779.964 581.521 Q781.909 578.836 781.909 574.137 Q781.909 569.438 779.964 566.776 Q778.02 564.09 774.64 564.09 Q771.261 564.09 769.316 566.776 Q767.395 569.438 767.395 574.137 Z" fill="#000000" fill-rule="nonzero" fill-opacity="1" /><path clip-path="url(#clip270)" d="M816.492 571.428 L816.492 587.076 L812.233 587.076 L812.233 571.567 Q812.233 567.887 810.797 566.058 Q809.362 564.229 806.492 564.229 Q803.043 564.229 801.052 566.428 Q799.061 568.627 799.061 572.424 L799.061 587.076 L794.779 587.076 L794.779 561.151 L799.061 561.151 L799.061 565.178 Q800.589 562.84 802.649 561.683 Q804.733 560.526 807.441 560.526 Q811.909 560.526 814.2 563.303 Q816.492 566.058 816.492 571.428 Z" fill="#000000" fill-rule="nonzero" fill-opacity="1" /><path clip-path="url(#clip270)" d="M824.987 551.058 L829.246 551.058 L829.246 587.076 L824.987 587.076 L824.987 551.058 Z" fill="#000000" fill-rule="nonzero" fill-opacity="1" /><path clip-path="url(#clip270)" d="M842.279 583.187 L842.279 596.937 L837.996 596.937 L837.996 561.151 L842.279 561.151 L842.279 565.086 Q843.621 562.771 845.658 561.66 Q847.719 560.526 850.566 560.526 Q855.288 560.526 858.228 564.276 Q861.191 568.026 861.191 574.137 Q861.191 580.248 858.228 583.998 Q855.288 587.748 850.566 587.748 Q847.719 587.748 845.658 586.637 Q843.621 585.502 842.279 583.187 M856.769 574.137 Q856.769 569.438 854.825 566.776 Q852.904 564.09 849.524 564.09 Q846.144 564.09 844.2 566.776 Q842.279 569.438 842.279 574.137 Q842.279 578.836 844.2 581.521 Q846.144 584.183 849.524 584.183 Q852.904 584.183 854.825 581.521 Q856.769 578.836 856.769 574.137 Z" fill="#000000" fill-rule="nonzero" fill-opacity="1" /><path clip-path="url(#clip270)" d="M869.339 581.197 L874.223 581.197 L874.223 585.178 L870.427 592.586 L867.441 592.586 L869.339 585.178 L869.339 581.197 Z" fill="#000000" fill-rule="nonzero" fill-opacity="1" /><path clip-path="url(#clip270)" d="M918.575 566.127 Q920.172 563.257 922.394 561.891 Q924.616 560.526 927.626 560.526 Q931.676 560.526 933.875 563.373 Q936.075 566.197 936.075 571.428 L936.075 587.076 L931.792 587.076 L931.792 571.567 Q931.792 567.84 930.473 566.035 Q929.153 564.229 926.445 564.229 Q923.135 564.229 921.214 566.428 Q919.292 568.627 919.292 572.424 L919.292 587.076 L915.01 587.076 L915.01 571.567 Q915.01 567.817 913.69 566.035 Q912.371 564.229 909.616 564.229 Q906.352 564.229 904.431 566.451 Q902.51 568.651 902.51 572.424 L902.51 587.076 L898.228 587.076 L898.228 561.151 L902.51 561.151 L902.51 565.178 Q903.968 562.794 906.005 561.66 Q908.042 560.526 910.843 560.526 Q913.667 560.526 915.635 561.961 Q917.626 563.396 918.575 566.127 Z" fill="#000000" fill-rule="nonzero" fill-opacity="1" /><path clip-path="url(#clip270)" d="M956.352 574.044 Q951.19 574.044 949.199 575.225 Q947.209 576.405 947.209 579.252 Q947.209 581.521 948.69 582.863 Q950.195 584.183 952.764 584.183 Q956.306 584.183 958.436 581.683 Q960.588 579.16 960.588 574.993 L960.588 574.044 L956.352 574.044 M964.848 572.285 L964.848 587.076 L960.588 587.076 L960.588 583.141 Q959.13 585.502 956.954 586.637 Q954.778 587.748 951.63 587.748 Q947.649 587.748 945.287 585.525 Q942.95 583.28 942.95 579.53 Q942.95 575.155 945.866 572.933 Q948.806 570.711 954.616 570.711 L960.588 570.711 L960.588 570.294 Q960.588 567.354 958.644 565.757 Q956.723 564.137 953.227 564.137 Q951.005 564.137 948.899 564.669 Q946.792 565.201 944.848 566.266 L944.848 562.331 Q947.186 561.428 949.385 560.989 Q951.584 560.526 953.667 560.526 Q959.292 560.526 962.07 563.442 Q964.848 566.359 964.848 572.285 Z" fill="#000000" fill-rule="nonzero" fill-opacity="1" /><path clip-path="url(#clip270)" d="M990.681 565.086 L990.681 551.058 L994.94 551.058 L994.94 587.076 L990.681 587.076 L990.681 583.187 Q989.338 585.502 987.278 586.637 Q985.241 587.748 982.371 587.748 Q977.672 587.748 974.709 583.998 Q971.769 580.248 971.769 574.137 Q971.769 568.026 974.709 564.276 Q977.672 560.526 982.371 560.526 Q985.241 560.526 987.278 561.66 Q989.338 562.771 990.681 565.086 M976.167 574.137 Q976.167 578.836 978.088 581.521 Q980.033 584.183 983.412 584.183 Q986.792 584.183 988.736 581.521 Q990.681 578.836 990.681 574.137 Q990.681 569.438 988.736 566.776 Q986.792 564.09 983.412 564.09 Q980.033 564.09 978.088 566.776 Q976.167 569.438 976.167 574.137 Z" fill="#000000" fill-rule="nonzero" fill-opacity="1" /><path clip-path="url(#clip270)" d="M1025.26 571.428 L1025.26 587.076 L1021 587.076 L1021 571.567 Q1021 567.887 1019.57 566.058 Q1018.13 564.229 1015.26 564.229 Q1011.81 564.229 1009.82 566.428 Q1007.83 568.627 1007.83 572.424 L1007.83 587.076 L1003.55 587.076 L1003.55 561.151 L1007.83 561.151 L1007.83 565.178 Q1009.36 562.84 1011.42 561.683 Q1013.5 560.526 1016.21 560.526 Q1020.68 560.526 1022.97 563.303 Q1025.26 566.058 1025.26 571.428 Z" fill="#000000" fill-rule="nonzero" fill-opacity="1" /><path clip-path="url(#clip270)" d="M1033.76 551.058 L1038.02 551.058 L1038.02 587.076 L1033.76 587.076 L1033.76 551.058 Z" fill="#000000" fill-rule="nonzero" fill-opacity="1" /><path clip-path="url(#clip270)" d="M1051.05 583.187 L1051.05 596.937 L1046.77 596.937 L1046.77 561.151 L1051.05 561.151 L1051.05 565.086 Q1052.39 562.771 1054.43 561.66 Q1056.49 560.526 1059.34 560.526 Q1064.06 560.526 1067 564.276 Q1069.96 568.026 1069.96 574.137 Q1069.96 580.248 1067 583.998 Q1064.06 587.748 1059.34 587.748 Q1056.49 587.748 1054.43 586.637 Q1052.39 585.502 1051.05 583.187 M1065.54 574.137 Q1065.54 569.438 1063.6 566.776 Q1061.68 564.09 1058.3 564.09 Q1054.92 564.09 1052.97 566.776 Q1051.05 569.438 1051.05 574.137 Q1051.05 578.836 1052.97 581.521 Q1054.92 584.183 1058.3 584.183 Q1061.68 584.183 1063.6 581.521 Q1065.54 578.836 1065.54 574.137 Z" fill="#000000" fill-rule="nonzero" fill-opacity="1" /><path clip-path="url(#clip270)" d="M1076.35 551.104 L1080.06 551.104 Q1083.53 556.567 1085.24 561.799 Q1086.98 567.03 1086.98 572.192 Q1086.98 577.377 1085.24 582.632 Q1083.53 587.887 1080.06 593.326 L1076.35 593.326 Q1079.43 588.025 1080.93 582.794 Q1082.46 577.539 1082.46 572.192 Q1082.46 566.845 1080.93 561.637 Q1079.43 556.428 1076.35 551.104 Z" fill="#000000" fill-rule="nonzero" fill-opacity="1" /><path clip-path="url(#clip270)" d="M573.322 596.036 L547.722 647.236 L598.922 647.236 L573.322 596.036 Z" fill="#ff8c00" fill-rule="evenodd" fill-opacity="1" stroke="none"/>
<path clip-path="url(#clip270)" d="M727.534 602.944 Q724.432 608.268 722.928 613.477 Q721.423 618.685 721.423 624.032 Q721.423 629.379 722.928 634.634 Q724.455 639.865 727.534 645.166 L723.83 645.166 Q720.358 639.727 718.622 634.472 Q716.909 629.217 716.909 624.032 Q716.909 618.87 718.622 613.639 Q720.335 608.407 723.83 602.944 L727.534 602.944 Z" fill="#000000" fill-rule="nonzero" fill-opacity="1" /><path clip-path="url(#clip270)" d="M757.974 624.889 L757.974 626.972 L738.39 626.972 Q738.668 631.37 741.029 633.685 Q743.414 635.977 747.65 635.977 Q750.103 635.977 752.395 635.375 Q754.71 634.773 756.978 633.569 L756.978 637.597 Q754.687 638.569 752.279 639.078 Q749.872 639.588 747.395 639.588 Q741.191 639.588 737.557 635.977 Q733.946 632.365 733.946 626.208 Q733.946 619.842 737.372 616.116 Q740.821 612.366 746.654 612.366 Q751.886 612.366 754.918 615.745 Q757.974 619.102 757.974 624.889 M753.714 623.639 Q753.668 620.143 751.747 618.06 Q749.849 615.977 746.701 615.977 Q743.136 615.977 740.983 617.991 Q738.853 620.004 738.529 623.662 L753.714 623.639 Z" fill="#000000" fill-rule="nonzero" fill-opacity="1" /><path clip-path="url(#clip270)" d="M785.682 612.991 L776.307 625.606 L786.168 638.916 L781.145 638.916 L773.599 628.731 L766.052 638.916 L761.029 638.916 L771.099 625.352 L761.886 612.991 L766.909 612.991 L773.784 622.227 L780.659 612.991 L785.682 612.991 Z" fill="#000000" fill-rule="nonzero" fill-opacity="1" /><path clip-path="url(#clip270)" d="M803.969 625.884 Q798.807 625.884 796.816 627.065 Q794.825 628.245 794.825 631.092 Q794.825 633.361 796.307 634.703 Q797.811 636.023 800.381 636.023 Q803.922 636.023 806.052 633.523 Q808.205 631 808.205 626.833 L808.205 625.884 L803.969 625.884 M812.464 624.125 L812.464 638.916 L808.205 638.916 L808.205 634.981 Q806.747 637.342 804.571 638.477 Q802.395 639.588 799.247 639.588 Q795.265 639.588 792.904 637.365 Q790.566 635.12 790.566 631.37 Q790.566 626.995 793.483 624.773 Q796.423 622.551 802.233 622.551 L808.205 622.551 L808.205 622.134 Q808.205 619.194 806.26 617.597 Q804.339 615.977 800.844 615.977 Q798.622 615.977 796.515 616.509 Q794.409 617.041 792.464 618.106 L792.464 614.171 Q794.802 613.268 797.001 612.829 Q799.2 612.366 801.284 612.366 Q806.909 612.366 809.686 615.282 Q812.464 618.199 812.464 624.125 Z" fill="#000000" fill-rule="nonzero" fill-opacity="1" /><path clip-path="url(#clip270)" d="M822.325 633.037 L827.209 633.037 L827.209 637.018 L823.413 644.426 L820.427 644.426 L822.325 637.018 L822.325 633.037 Z" fill="#000000" fill-rule="nonzero" fill-opacity="1" /><path clip-path="url(#clip270)" d="M871.561 617.967 Q873.158 615.097 875.38 613.731 Q877.603 612.366 880.612 612.366 Q884.663 612.366 886.862 615.213 Q889.061 618.037 889.061 623.268 L889.061 638.916 L884.779 638.916 L884.779 623.407 Q884.779 619.68 883.459 617.875 Q882.14 616.069 879.431 616.069 Q876.121 616.069 874.2 618.268 Q872.279 620.467 872.279 624.264 L872.279 638.916 L867.996 638.916 L867.996 623.407 Q867.996 619.657 866.677 617.875 Q865.357 616.069 862.603 616.069 Q859.339 616.069 857.418 618.291 Q855.496 620.491 855.496 624.264 L855.496 638.916 L851.214 638.916 L851.214 612.991 L855.496 612.991 L855.496 617.018 Q856.955 614.634 858.992 613.5 Q861.029 612.366 863.83 612.366 Q866.654 612.366 868.621 613.801 Q870.612 615.236 871.561 617.967 Z" fill="#000000" fill-rule="nonzero" fill-opacity="1" /><path clip-path="url(#clip270)" d="M909.339 625.884 Q904.177 625.884 902.186 627.065 Q900.195 628.245 900.195 631.092 Q900.195 633.361 901.677 634.703 Q903.181 636.023 905.751 636.023 Q909.292 636.023 911.422 633.523 Q913.575 631 913.575 626.833 L913.575 625.884 L909.339 625.884 M917.834 624.125 L917.834 638.916 L913.575 638.916 L913.575 634.981 Q912.116 637.342 909.94 638.477 Q907.765 639.588 904.616 639.588 Q900.635 639.588 898.274 637.365 Q895.936 635.12 895.936 631.37 Q895.936 626.995 898.853 624.773 Q901.792 622.551 907.602 622.551 L913.575 622.551 L913.575 622.134 Q913.575 619.194 911.63 617.597 Q909.709 615.977 906.214 615.977 Q903.991 615.977 901.885 616.509 Q899.778 617.041 897.834 618.106 L897.834 614.171 Q900.172 613.268 902.371 612.829 Q904.57 612.366 906.653 612.366 Q912.278 612.366 915.056 615.282 Q917.834 618.199 917.834 624.125 Z" fill="#000000" fill-rule="nonzero" fill-opacity="1" /><path clip-path="url(#clip270)" d="M943.667 616.926 L943.667 602.898 L947.926 602.898 L947.926 638.916 L943.667 638.916 L943.667 635.027 Q942.325 637.342 940.264 638.477 Q938.227 639.588 935.357 639.588 Q930.658 639.588 927.695 635.838 Q924.755 632.088 924.755 625.977 Q924.755 619.866 927.695 616.116 Q930.658 612.366 935.357 612.366 Q938.227 612.366 940.264 613.5 Q942.325 614.611 943.667 616.926 M929.153 625.977 Q929.153 630.676 931.075 633.361 Q933.019 636.023 936.399 636.023 Q939.778 636.023 941.723 633.361 Q943.667 630.676 943.667 625.977 Q943.667 621.278 941.723 618.616 Q939.778 615.93 936.399 615.93 Q933.019 615.93 931.075 618.616 Q929.153 621.278 929.153 625.977 Z" fill="#000000" fill-rule="nonzero" fill-opacity="1" /><path clip-path="url(#clip270)" d="M978.25 623.268 L978.25 638.916 L973.991 638.916 L973.991 623.407 Q973.991 619.727 972.556 617.898 Q971.121 616.069 968.25 616.069 Q964.801 616.069 962.811 618.268 Q960.82 620.467 960.82 624.264 L960.82 638.916 L956.537 638.916 L956.537 612.991 L960.82 612.991 L960.82 617.018 Q962.348 614.68 964.408 613.523 Q966.491 612.366 969.199 612.366 Q973.667 612.366 975.959 615.143 Q978.25 617.898 978.25 623.268 Z" fill="#000000" fill-rule="nonzero" fill-opacity="1" /><path clip-path="url(#clip270)" d="M986.746 602.898 L991.005 602.898 L991.005 638.916 L986.746 638.916 L986.746 602.898 Z" fill="#000000" fill-rule="nonzero" fill-opacity="1" /><path clip-path="url(#clip270)" d="M1004.04 635.027 L1004.04 648.777 L999.755 648.777 L999.755 612.991 L1004.04 612.991 L1004.04 616.926 Q1005.38 614.611 1007.42 613.5 Q1009.48 612.366 1012.32 612.366 Q1017.05 612.366 1019.99 616.116 Q1022.95 619.866 1022.95 625.977 Q1022.95 632.088 1019.99 635.838 Q1017.05 639.588 1012.32 639.588 Q1009.48 639.588 1007.42 638.477 Q1005.38 637.342 1004.04 635.027 M1018.53 625.977 Q1018.53 621.278 1016.58 618.616 Q1014.66 615.93 1011.28 615.93 Q1007.9 615.93 1005.96 618.616 Q1004.04 621.278 1004.04 625.977 Q1004.04 630.676 1005.96 633.361 Q1007.9 636.023 1011.28 636.023 Q1014.66 636.023 1016.58 633.361 Q1018.53 630.676 1018.53 625.977 Z" fill="#000000" fill-rule="nonzero" fill-opacity="1" /><path clip-path="url(#clip270)" d="M1029.34 602.944 L1033.04 602.944 Q1036.51 608.407 1038.23 613.639 Q1039.96 618.87 1039.96 624.032 Q1039.96 629.217 1038.23 634.472 Q1036.51 639.727 1033.04 645.166 L1029.34 645.166 Q1032.42 639.865 1033.92 634.634 Q1035.45 629.379 1035.45 624.032 Q1035.45 618.685 1033.92 613.477 Q1032.42 608.268 1029.34 602.944 Z" fill="#000000" fill-rule="nonzero" fill-opacity="1" /></svg>
