<?xml version="1.0" encoding="utf-8"?>
<svg xmlns="http://www.w3.org/2000/svg" xmlns:xlink="http://www.w3.org/1999/xlink" width="900" height="600" viewBox="0 0 3600 2400">
<defs>
  <clipPath id="clip520">
    <rect x="0" y="0" width="3600" height="2400"/>
  </clipPath>
</defs>
<path clip-path="url(#clip520)" d="M0 2400 L3600 2400 L3600 0 L0 0  Z" fill="#ffffff" fill-rule="evenodd" fill-opacity="1"/>
<defs>
  <clipPath id="clip521">
    <rect x="720" y="0" width="2521" height="2400"/>
  </clipPath>
</defs>
<path clip-path="url(#clip520)" d="M320.214 2144.22 L3552.76 2144.22 L3552.76 246.944 L320.214 246.944  Z" fill="#ffffff" fill-rule="evenodd" fill-opacity="1"/>
<defs>
  <clipPath id="clip522">
    <rect x="320" y="246" width="3234" height="1898"/>
  </clipPath>
</defs>
<polyline clip-path="url(#clip522)" style="stroke:#000000; stroke-linecap:round; stroke-linejoin:round; stroke-width:2; stroke-opacity:0.1; fill:none" points="467.148,2144.22 467.148,246.944 "/>
<polyline clip-path="url(#clip522)" style="stroke:#000000; stroke-linecap:round; stroke-linejoin:round; stroke-width:2; stroke-opacity:0.1; fill:none" points="1085.82,2144.22 1085.82,246.944 "/>
<polyline clip-path="url(#clip522)" style="stroke:#000000; stroke-linecap:round; stroke-linejoin:round; stroke-width:2; stroke-opacity:0.1; fill:none" points="1859.15,2144.22 1859.15,246.944 "/>
<polyline clip-path="url(#clip522)" style="stroke:#000000; stroke-linecap:round; stroke-linejoin:round; stroke-width:2; stroke-opacity:0.1; fill:none" points="3405.82,2144.22 3405.82,246.944 "/>
<polyline clip-path="url(#clip522)" style="stroke:#000000; stroke-linecap:round; stroke-linejoin:round; stroke-width:2; stroke-opacity:0.1; fill:none" points="320.214,1798.87 3552.76,1798.87 "/>
<polyline clip-path="url(#clip522)" style="stroke:#000000; stroke-linecap:round; stroke-linejoin:round; stroke-width:2; stroke-opacity:0.1; fill:none" points="320.214,1418.12 3552.76,1418.12 "/>
<polyline clip-path="url(#clip522)" style="stroke:#000000; stroke-linecap:round; stroke-linejoin:round; stroke-width:2; stroke-opacity:0.1; fill:none" points="320.214,1037.37 3552.76,1037.37 "/>
<polyline clip-path="url(#clip522)" style="stroke:#000000; stroke-linecap:round; stroke-linejoin:round; stroke-width:2; stroke-opacity:0.1; fill:none" points="320.214,656.618 3552.76,656.618 "/>
<polyline clip-path="url(#clip522)" style="stroke:#000000; stroke-linecap:round; stroke-linejoin:round; stroke-width:2; stroke-opacity:0.1; fill:none" points="320.214,275.869 3552.76,275.869 "/>
<polyline clip-path="url(#clip520)" style="stroke:#000000; stroke-linecap:round; stroke-linejoin:round; stroke-width:4; stroke-opacity:1; fill:none" points="320.214,2144.22 3552.76,2144.22 "/>
<polyline clip-path="url(#clip520)" style="stroke:#000000; stroke-linecap:round; stroke-linejoin:round; stroke-width:4; stroke-opacity:1; fill:none" points="467.148,2144.22 467.148,2125.33 "/>
<polyline clip-path="url(#clip520)" style="stroke:#000000; stroke-linecap:round; stroke-linejoin:round; stroke-width:4; stroke-opacity:1; fill:none" points="1085.82,2144.22 1085.82,2125.33 "/>
<polyline clip-path="url(#clip520)" style="stroke:#000000; stroke-linecap:round; stroke-linejoin:round; stroke-width:4; stroke-opacity:1; fill:none" points="1859.15,2144.22 1859.15,2125.33 "/>
<polyline clip-path="url(#clip520)" style="stroke:#000000; stroke-linecap:round; stroke-linejoin:round; stroke-width:4; stroke-opacity:1; fill:none" points="3405.82,2144.22 3405.82,2125.33 "/>
<path clip-path="url(#clip520)" d="M375.034 2227.95 L382.673 2227.95 L382.673 2201.58 L374.363 2203.25 L374.363 2198.99 L382.626 2197.32 L387.302 2197.32 L387.302 2227.95 L394.941 2227.95 L394.941 2231.88 L375.034 2231.88 L375.034 2227.95 Z" fill="#000000" fill-rule="nonzero" fill-opacity="1" /><path clip-path="url(#clip520)" d="M404.386 2226 L409.27 2226 L409.27 2231.88 L404.386 2231.88 L404.386 2226 Z" fill="#000000" fill-rule="nonzero" fill-opacity="1" /><path clip-path="url(#clip520)" d="M429.455 2200.4 Q425.844 2200.4 424.015 2203.97 Q422.21 2207.51 422.21 2214.64 Q422.21 2221.75 424.015 2225.31 Q425.844 2228.85 429.455 2228.85 Q433.089 2228.85 434.895 2225.31 Q436.723 2221.75 436.723 2214.64 Q436.723 2207.51 434.895 2203.97 Q433.089 2200.4 429.455 2200.4 M429.455 2196.7 Q435.265 2196.7 438.321 2201.31 Q441.399 2205.89 441.399 2214.64 Q441.399 2223.37 438.321 2227.97 Q435.265 2232.56 429.455 2232.56 Q423.645 2232.56 420.566 2227.97 Q417.511 2223.37 417.511 2214.64 Q417.511 2205.89 420.566 2201.31 Q423.645 2196.7 429.455 2196.7 Z" fill="#000000" fill-rule="nonzero" fill-opacity="1" /><path clip-path="url(#clip520)" d="M477.788 2206.42 L467.209 2217.05 L477.788 2227.63 L475.033 2230.43 L464.408 2219.8 L453.784 2230.43 L451.052 2227.63 L461.608 2217.05 L451.052 2206.42 L453.784 2203.62 L464.408 2214.25 L475.033 2203.62 L477.788 2206.42 Z" fill="#000000" fill-rule="nonzero" fill-opacity="1" /><path clip-path="url(#clip520)" d="M490.149 2227.95 L497.788 2227.95 L497.788 2201.58 L489.478 2203.25 L489.478 2198.99 L497.742 2197.32 L502.418 2197.32 L502.418 2227.95 L510.056 2227.95 L510.056 2231.88 L490.149 2231.88 L490.149 2227.95 Z" fill="#000000" fill-rule="nonzero" fill-opacity="1" /><path clip-path="url(#clip520)" d="M529.501 2200.4 Q525.89 2200.4 524.061 2203.97 Q522.255 2207.51 522.255 2214.64 Q522.255 2221.75 524.061 2225.31 Q525.89 2228.85 529.501 2228.85 Q533.135 2228.85 534.94 2225.31 Q536.769 2221.75 536.769 2214.64 Q536.769 2207.51 534.94 2203.97 Q533.135 2200.4 529.501 2200.4 M529.501 2196.7 Q535.311 2196.7 538.366 2201.31 Q541.445 2205.89 541.445 2214.64 Q541.445 2223.37 538.366 2227.97 Q535.311 2232.56 529.501 2232.56 Q523.691 2232.56 520.612 2227.97 Q517.556 2223.37 517.556 2214.64 Q517.556 2205.89 520.612 2201.31 Q523.691 2196.7 529.501 2196.7 Z" fill="#000000" fill-rule="nonzero" fill-opacity="1" /><path clip-path="url(#clip520)" d="M554.14 2189.33 Q556.867 2189.92 558.391 2191.76 Q559.933 2193.6 559.933 2196.31 Q559.933 2200.47 557.074 2202.74 Q554.216 2205.02 548.949 2205.02 Q547.181 2205.02 545.301 2204.66 Q543.439 2204.32 541.445 2203.63 L541.445 2199.96 Q543.025 2200.88 544.906 2201.35 Q546.786 2201.82 548.837 2201.82 Q552.41 2201.82 554.272 2200.41 Q556.153 2199 556.153 2196.31 Q556.153 2193.83 554.404 2192.44 Q552.673 2191.03 549.57 2191.03 L546.297 2191.03 L546.297 2187.9 L549.72 2187.9 Q552.523 2187.9 554.009 2186.79 Q555.494 2185.67 555.494 2183.56 Q555.494 2181.4 553.952 2180.25 Q552.429 2179.08 549.57 2179.08 Q548.009 2179.08 546.222 2179.42 Q544.436 2179.76 542.291 2180.48 L542.291 2177.09 Q544.454 2176.49 546.335 2176.19 Q548.235 2175.89 549.909 2175.89 Q554.234 2175.89 556.755 2177.86 Q559.275 2179.82 559.275 2183.16 Q559.275 2185.5 557.939 2187.11 Q556.604 2188.71 554.14 2189.33 Z" fill="#000000" fill-rule="nonzero" fill-opacity="1" /><path clip-path="url(#clip520)" d="M993.714 2197.32 L1012.07 2197.32 L1012.07 2201.26 L997.996 2201.26 L997.996 2209.73 Q999.015 2209.38 1000.03 2209.22 Q1001.05 2209.04 1002.07 2209.04 Q1007.86 2209.04 1011.24 2212.21 Q1014.62 2215.38 1014.62 2220.8 Q1014.62 2226.38 1011.14 2229.48 Q1007.67 2232.56 1001.35 2232.56 Q999.177 2232.56 996.908 2232.19 Q994.663 2231.82 992.255 2231.07 L992.255 2226.38 Q994.339 2227.51 996.561 2228.07 Q998.783 2228.62 1001.26 2228.62 Q1005.26 2228.62 1007.6 2226.51 Q1009.94 2224.41 1009.94 2220.8 Q1009.94 2217.19 1007.6 2215.08 Q1005.26 2212.97 1001.26 2212.97 Q999.385 2212.97 997.51 2213.39 Q995.658 2213.81 993.714 2214.69 L993.714 2197.32 Z" fill="#000000" fill-rule="nonzero" fill-opacity="1" /><path clip-path="url(#clip520)" d="M1023.83 2226 L1028.71 2226 L1028.71 2231.88 L1023.83 2231.88 L1023.83 2226 Z" fill="#000000" fill-rule="nonzero" fill-opacity="1" /><path clip-path="url(#clip520)" d="M1048.9 2200.4 Q1045.29 2200.4 1043.46 2203.97 Q1041.65 2207.51 1041.65 2214.64 Q1041.65 2221.75 1043.46 2225.31 Q1045.29 2228.85 1048.9 2228.85 Q1052.53 2228.85 1054.34 2225.31 Q1056.17 2221.75 1056.17 2214.64 Q1056.17 2207.51 1054.34 2203.97 Q1052.53 2200.4 1048.9 2200.4 M1048.9 2196.7 Q1054.71 2196.7 1057.76 2201.31 Q1060.84 2205.89 1060.84 2214.64 Q1060.84 2223.37 1057.76 2227.97 Q1054.71 2232.56 1048.9 2232.56 Q1043.09 2232.56 1040.01 2227.97 Q1036.95 2223.37 1036.95 2214.64 Q1036.95 2205.89 1040.01 2201.31 Q1043.09 2196.7 1048.9 2196.7 Z" fill="#000000" fill-rule="nonzero" fill-opacity="1" /><path clip-path="url(#clip520)" d="M1097.23 2206.42 L1086.65 2217.05 L1097.23 2227.63 L1094.48 2230.43 L1083.85 2219.8 L1073.23 2230.43 L1070.5 2227.63 L1081.05 2217.05 L1070.5 2206.42 L1073.23 2203.62 L1083.85 2214.25 L1094.48 2203.62 L1097.23 2206.42 Z" fill="#000000" fill-rule="nonzero" fill-opacity="1" /><path clip-path="url(#clip520)" d="M1109.59 2227.95 L1117.23 2227.95 L1117.23 2201.58 L1108.92 2203.25 L1108.92 2198.99 L1117.19 2197.32 L1121.86 2197.32 L1121.86 2227.95 L1129.5 2227.95 L1129.5 2231.88 L1109.59 2231.88 L1109.59 2227.95 Z" fill="#000000" fill-rule="nonzero" fill-opacity="1" /><path clip-path="url(#clip520)" d="M1148.94 2200.4 Q1145.33 2200.4 1143.5 2203.97 Q1141.7 2207.51 1141.7 2214.64 Q1141.7 2221.75 1143.5 2225.31 Q1145.33 2228.85 1148.94 2228.85 Q1152.58 2228.85 1154.38 2225.31 Q1156.21 2221.75 1156.21 2214.64 Q1156.21 2207.51 1154.38 2203.97 Q1152.58 2200.4 1148.94 2200.4 M1148.94 2196.7 Q1154.75 2196.7 1157.81 2201.31 Q1160.89 2205.89 1160.89 2214.64 Q1160.89 2223.37 1157.81 2227.97 Q1154.75 2232.56 1148.94 2232.56 Q1143.13 2232.56 1140.06 2227.97 Q1137 2223.37 1137 2214.64 Q1137 2205.89 1140.06 2201.31 Q1143.13 2196.7 1148.94 2196.7 Z" fill="#000000" fill-rule="nonzero" fill-opacity="1" /><path clip-path="url(#clip520)" d="M1173.58 2189.33 Q1176.31 2189.92 1177.83 2191.76 Q1179.38 2193.6 1179.38 2196.31 Q1179.38 2200.47 1176.52 2202.74 Q1173.66 2205.02 1168.39 2205.02 Q1166.63 2205.02 1164.74 2204.66 Q1162.88 2204.32 1160.89 2203.63 L1160.89 2199.96 Q1162.47 2200.88 1164.35 2201.35 Q1166.23 2201.82 1168.28 2201.82 Q1171.85 2201.82 1173.72 2200.41 Q1175.6 2199 1175.6 2196.31 Q1175.6 2193.83 1173.85 2192.44 Q1172.12 2191.03 1169.01 2191.03 L1165.74 2191.03 L1165.74 2187.9 L1169.16 2187.9 Q1171.97 2187.9 1173.45 2186.79 Q1174.94 2185.67 1174.94 2183.56 Q1174.94 2181.4 1173.4 2180.25 Q1171.87 2179.08 1169.01 2179.08 Q1167.45 2179.08 1165.67 2179.42 Q1163.88 2179.76 1161.74 2180.48 L1161.74 2177.09 Q1163.9 2176.49 1165.78 2176.19 Q1167.68 2175.89 1169.35 2175.89 Q1173.68 2175.89 1176.2 2177.86 Q1178.72 2179.82 1178.72 2183.16 Q1178.72 2185.5 1177.38 2187.11 Q1176.05 2188.71 1173.58 2189.33 Z" fill="#000000" fill-rule="nonzero" fill-opacity="1" /><path clip-path="url(#clip520)" d="M1766.05 2227.95 L1773.69 2227.95 L1773.69 2201.58 L1765.38 2203.25 L1765.38 2198.99 L1773.64 2197.32 L1778.32 2197.32 L1778.32 2227.95 L1785.96 2227.95 L1785.96 2231.88 L1766.05 2231.88 L1766.05 2227.95 Z" fill="#000000" fill-rule="nonzero" fill-opacity="1" /><path clip-path="url(#clip520)" d="M1795.4 2226 L1800.29 2226 L1800.29 2231.88 L1795.4 2231.88 L1795.4 2226 Z" fill="#000000" fill-rule="nonzero" fill-opacity="1" /><path clip-path="url(#clip520)" d="M1820.47 2200.4 Q1816.86 2200.4 1815.03 2203.97 Q1813.23 2207.51 1813.23 2214.64 Q1813.23 2221.75 1815.03 2225.31 Q1816.86 2228.85 1820.47 2228.85 Q1824.11 2228.85 1825.91 2225.31 Q1827.74 2221.75 1827.74 2214.64 Q1827.74 2207.51 1825.91 2203.97 Q1824.11 2200.4 1820.47 2200.4 M1820.47 2196.7 Q1826.28 2196.7 1829.34 2201.31 Q1832.42 2205.89 1832.42 2214.64 Q1832.42 2223.37 1829.34 2227.97 Q1826.28 2232.56 1820.47 2232.56 Q1814.66 2232.56 1811.58 2227.97 Q1808.53 2223.37 1808.53 2214.64 Q1808.53 2205.89 1811.58 2201.31 Q1814.66 2196.7 1820.47 2196.7 Z" fill="#000000" fill-rule="nonzero" fill-opacity="1" /><path clip-path="url(#clip520)" d="M1868.8 2206.42 L1858.23 2217.05 L1868.8 2227.63 L1866.05 2230.43 L1855.42 2219.8 L1844.8 2230.43 L1842.07 2227.63 L1852.62 2217.05 L1842.07 2206.42 L1844.8 2203.62 L1855.42 2214.25 L1866.05 2203.62 L1868.8 2206.42 Z" fill="#000000" fill-rule="nonzero" fill-opacity="1" /><path clip-path="url(#clip520)" d="M1881.17 2227.95 L1888.8 2227.95 L1888.8 2201.58 L1880.49 2203.25 L1880.49 2198.99 L1888.76 2197.32 L1893.43 2197.32 L1893.43 2227.95 L1901.07 2227.95 L1901.07 2231.88 L1881.17 2231.88 L1881.17 2227.95 Z" fill="#000000" fill-rule="nonzero" fill-opacity="1" /><path clip-path="url(#clip520)" d="M1920.52 2200.4 Q1916.91 2200.4 1915.08 2203.97 Q1913.27 2207.51 1913.27 2214.64 Q1913.27 2221.75 1915.08 2225.31 Q1916.91 2228.85 1920.52 2228.85 Q1924.15 2228.85 1925.96 2225.31 Q1927.79 2221.75 1927.79 2214.64 Q1927.79 2207.51 1925.96 2203.97 Q1924.15 2200.4 1920.52 2200.4 M1920.52 2196.7 Q1926.33 2196.7 1929.38 2201.31 Q1932.46 2205.89 1932.46 2214.64 Q1932.46 2223.37 1929.38 2227.97 Q1926.33 2232.56 1920.52 2232.56 Q1914.71 2232.56 1911.63 2227.97 Q1908.57 2223.37 1908.57 2214.64 Q1908.57 2205.89 1911.63 2201.31 Q1914.71 2196.7 1920.52 2196.7 Z" fill="#000000" fill-rule="nonzero" fill-opacity="1" /><path clip-path="url(#clip520)" d="M1945.14 2179.7 L1935.55 2194.69 L1945.14 2194.69 L1945.14 2179.7 M1944.14 2176.39 L1948.92 2176.39 L1948.92 2194.69 L1952.92 2194.69 L1952.92 2197.85 L1948.92 2197.85 L1948.92 2204.47 L1945.14 2204.47 L1945.14 2197.85 L1932.46 2197.85 L1932.46 2194.19 L1944.14 2176.39 Z" fill="#000000" fill-rule="nonzero" fill-opacity="1" /><path clip-path="url(#clip520)" d="M3316.81 2227.95 L3333.13 2227.95 L3333.13 2231.88 L3311.18 2231.88 L3311.18 2227.95 Q3313.84 2225.19 3318.43 2220.57 Q3323.03 2215.91 3324.21 2214.57 Q3326.46 2212.05 3327.34 2210.31 Q3328.24 2208.55 3328.24 2206.86 Q3328.24 2204.11 3326.3 2202.37 Q3324.38 2200.63 3321.27 2200.63 Q3319.07 2200.63 3316.62 2201.4 Q3314.19 2202.16 3311.41 2203.71 L3311.41 2198.99 Q3314.24 2197.86 3316.69 2197.28 Q3319.14 2196.7 3321.18 2196.7 Q3326.55 2196.7 3329.75 2199.38 Q3332.94 2202.07 3332.94 2206.56 Q3332.94 2208.69 3332.13 2210.61 Q3331.34 2212.51 3329.24 2215.1 Q3328.66 2215.77 3325.56 2218.99 Q3322.45 2222.19 3316.81 2227.95 Z" fill="#000000" fill-rule="nonzero" fill-opacity="1" /><path clip-path="url(#clip520)" d="M3342.94 2226 L3347.82 2226 L3347.82 2231.88 L3342.94 2231.88 L3342.94 2226 Z" fill="#000000" fill-rule="nonzero" fill-opacity="1" /><path clip-path="url(#clip520)" d="M3368.01 2200.4 Q3364.4 2200.4 3362.57 2203.97 Q3360.76 2207.51 3360.76 2214.64 Q3360.76 2221.75 3362.57 2225.31 Q3364.4 2228.85 3368.01 2228.85 Q3371.64 2228.85 3373.45 2225.31 Q3375.28 2221.75 3375.28 2214.64 Q3375.28 2207.51 3373.45 2203.97 Q3371.64 2200.4 3368.01 2200.4 M3368.01 2196.7 Q3373.82 2196.7 3376.88 2201.31 Q3379.95 2205.89 3379.95 2214.64 Q3379.95 2223.37 3376.88 2227.97 Q3373.82 2232.56 3368.01 2232.56 Q3362.2 2232.56 3359.12 2227.97 Q3356.07 2223.37 3356.07 2214.64 Q3356.07 2205.89 3359.12 2201.31 Q3362.2 2196.7 3368.01 2196.7 Z" fill="#000000" fill-rule="nonzero" fill-opacity="1" /><path clip-path="url(#clip520)" d="M3416.34 2206.42 L3405.76 2217.05 L3416.34 2227.63 L3413.59 2230.43 L3402.96 2219.8 L3392.34 2230.43 L3389.61 2227.63 L3400.16 2217.05 L3389.61 2206.42 L3392.34 2203.62 L3402.96 2214.25 L3413.59 2203.62 L3416.34 2206.42 Z" fill="#000000" fill-rule="nonzero" fill-opacity="1" /><path clip-path="url(#clip520)" d="M3428.7 2227.95 L3436.34 2227.95 L3436.34 2201.58 L3428.03 2203.25 L3428.03 2198.99 L3436.3 2197.32 L3440.97 2197.32 L3440.97 2227.95 L3448.61 2227.95 L3448.61 2231.88 L3428.7 2231.88 L3428.7 2227.95 Z" fill="#000000" fill-rule="nonzero" fill-opacity="1" /><path clip-path="url(#clip520)" d="M3468.06 2200.4 Q3464.44 2200.4 3462.62 2203.97 Q3460.81 2207.51 3460.81 2214.64 Q3460.81 2221.75 3462.62 2225.31 Q3464.44 2228.85 3468.06 2228.85 Q3471.69 2228.85 3473.5 2225.31 Q3475.32 2221.75 3475.32 2214.64 Q3475.32 2207.51 3473.5 2203.97 Q3471.69 2200.4 3468.06 2200.4 M3468.06 2196.7 Q3473.87 2196.7 3476.92 2201.31 Q3480 2205.89 3480 2214.64 Q3480 2223.37 3476.92 2227.97 Q3473.87 2232.56 3468.06 2232.56 Q3462.25 2232.56 3459.17 2227.97 Q3456.11 2223.37 3456.11 2214.64 Q3456.11 2205.89 3459.17 2201.31 Q3462.25 2196.7 3468.06 2196.7 Z" fill="#000000" fill-rule="nonzero" fill-opacity="1" /><path clip-path="url(#clip520)" d="M3492.68 2179.7 L3483.08 2194.69 L3492.68 2194.69 L3492.68 2179.7 M3491.68 2176.39 L3496.46 2176.39 L3496.46 2194.69 L3500.46 2194.69 L3500.46 2197.85 L3496.46 2197.85 L3496.46 2204.47 L3492.68 2204.47 L3492.68 2197.85 L3480 2197.85 L3480 2194.19 L3491.68 2176.39 Z" fill="#000000" fill-rule="nonzero" fill-opacity="1" /><path clip-path="url(#clip520)" d="M1812.37 2314.17 L1812.37 2302.56 L1802.82 2302.56 L1802.82 2297.76 L1818.16 2297.76 L1818.16 2316.31 Q1814.77 2318.71 1810.69 2319.95 Q1806.61 2321.17 1801.98 2321.17 Q1791.85 2321.17 1786.12 2315.27 Q1780.42 2309.33 1780.42 2298.77 Q1780.42 2288.18 1786.12 2282.28 Q1791.85 2276.35 1801.98 2276.35 Q1806.21 2276.35 1810 2277.39 Q1813.81 2278.43 1817.03 2280.46 L1817.03 2286.68 Q1813.79 2283.93 1810.14 2282.54 Q1806.49 2281.15 1802.47 2281.15 Q1794.54 2281.15 1790.55 2285.58 Q1786.59 2290.01 1786.59 2298.77 Q1786.59 2307.51 1790.55 2311.94 Q1794.54 2316.37 1802.47 2316.37 Q1805.57 2316.37 1808 2315.84 Q1810.43 2315.29 1812.37 2314.17 Z" fill="#000000" fill-rule="nonzero" fill-opacity="1" /><path clip-path="url(#clip520)" d="M1847.38 2292.9 Q1846.48 2292.38 1845.41 2292.15 Q1844.37 2291.89 1843.1 2291.89 Q1838.58 2291.89 1836.15 2294.84 Q1833.75 2297.76 1833.75 2303.26 L1833.75 2320.33 L1828.4 2320.33 L1828.4 2287.92 L1833.75 2287.92 L1833.75 2292.96 Q1835.43 2290.01 1838.12 2288.59 Q1840.81 2287.14 1844.66 2287.14 Q1845.21 2287.14 1845.87 2287.23 Q1846.54 2287.29 1847.35 2287.43 L1847.38 2292.9 Z" fill="#000000" fill-rule="nonzero" fill-opacity="1" /><path clip-path="url(#clip520)" d="M1852.96 2287.92 L1858.29 2287.92 L1858.29 2320.33 L1852.96 2320.33 L1852.96 2287.92 M1852.96 2275.31 L1858.29 2275.31 L1858.29 2282.05 L1852.96 2282.05 L1852.96 2275.31 Z" fill="#000000" fill-rule="nonzero" fill-opacity="1" /><path clip-path="url(#clip520)" d="M1890.75 2292.84 L1890.75 2275.31 L1896.08 2275.31 L1896.08 2320.33 L1890.75 2320.33 L1890.75 2315.47 Q1889.07 2318.36 1886.5 2319.78 Q1883.95 2321.17 1880.37 2321.17 Q1874.49 2321.17 1870.79 2316.48 Q1867.11 2311.79 1867.11 2304.15 Q1867.11 2296.52 1870.79 2291.83 Q1874.49 2287.14 1880.37 2287.14 Q1883.95 2287.14 1886.5 2288.56 Q1889.07 2289.95 1890.75 2292.84 M1872.61 2304.15 Q1872.61 2310.03 1875.01 2313.38 Q1877.44 2316.71 1881.67 2316.71 Q1885.89 2316.71 1888.32 2313.38 Q1890.75 2310.03 1890.75 2304.15 Q1890.75 2298.28 1888.32 2294.95 Q1885.89 2291.6 1881.67 2291.6 Q1877.44 2291.6 1875.01 2294.95 Q1872.61 2298.28 1872.61 2304.15 Z" fill="#000000" fill-rule="nonzero" fill-opacity="1" /><path clip-path="url(#clip520)" d="M1946.54 2288.88 L1946.54 2293.91 Q1944.28 2292.75 1941.85 2292.18 Q1939.42 2291.6 1936.82 2291.6 Q1932.85 2291.6 1930.86 2292.81 Q1928.89 2294.03 1928.89 2296.46 Q1928.89 2298.31 1930.31 2299.38 Q1931.73 2300.42 1936.01 2301.38 L1937.83 2301.78 Q1943.5 2303 1945.87 2305.23 Q1948.28 2307.42 1948.28 2311.39 Q1948.28 2315.9 1944.69 2318.54 Q1941.13 2321.17 1934.88 2321.17 Q1932.27 2321.17 1929.44 2320.65 Q1926.63 2320.16 1923.51 2319.14 L1923.51 2313.65 Q1926.46 2315.18 1929.32 2315.96 Q1932.19 2316.71 1934.99 2316.71 Q1938.76 2316.71 1940.78 2315.44 Q1942.81 2314.14 1942.81 2311.79 Q1942.81 2309.62 1941.33 2308.47 Q1939.88 2307.31 1934.94 2306.24 L1933.09 2305.8 Q1928.14 2304.76 1925.94 2302.62 Q1923.74 2300.45 1923.74 2296.69 Q1923.74 2292.12 1926.98 2289.63 Q1930.22 2287.14 1936.18 2287.14 Q1939.13 2287.14 1941.74 2287.57 Q1944.34 2288.01 1946.54 2288.88 Z" fill="#000000" fill-rule="nonzero" fill-opacity="1" /><path clip-path="url(#clip520)" d="M1956.75 2287.92 L1962.08 2287.92 L1962.08 2320.33 L1956.75 2320.33 L1956.75 2287.92 M1956.75 2275.31 L1962.08 2275.31 L1962.08 2282.05 L1956.75 2282.05 L1956.75 2275.31 Z" fill="#000000" fill-rule="nonzero" fill-opacity="1" /><path clip-path="url(#clip520)" d="M1970.9 2287.92 L1996.19 2287.92 L1996.19 2292.78 L1976.17 2316.08 L1996.19 2316.08 L1996.19 2320.33 L1970.18 2320.33 L1970.18 2315.47 L1990.2 2292.18 L1970.9 2292.18 L1970.9 2287.92 Z" fill="#000000" fill-rule="nonzero" fill-opacity="1" /><path clip-path="url(#clip520)" d="M2032.04 2302.79 L2032.04 2305.4 L2007.56 2305.4 Q2007.91 2310.9 2010.86 2313.79 Q2013.84 2316.65 2019.14 2316.65 Q2022.21 2316.65 2025.07 2315.9 Q2027.96 2315.15 2030.8 2313.65 L2030.8 2318.68 Q2027.93 2319.9 2024.92 2320.53 Q2021.92 2321.17 2018.82 2321.17 Q2011.07 2321.17 2006.52 2316.65 Q2002.01 2312.14 2002.01 2304.44 Q2002.01 2296.49 2006.29 2291.83 Q2010.6 2287.14 2017.89 2287.14 Q2024.43 2287.14 2028.22 2291.37 Q2032.04 2295.56 2032.04 2302.79 M2026.72 2301.23 Q2026.66 2296.86 2024.26 2294.26 Q2021.89 2291.65 2017.95 2291.65 Q2013.5 2291.65 2010.8 2294.17 Q2008.14 2296.69 2007.74 2301.26 L2026.72 2301.23 Z" fill="#000000" fill-rule="nonzero" fill-opacity="1" /><path clip-path="url(#clip520)" d="M2059.85 2277.13 L2067.72 2277.13 L2086.87 2313.27 L2086.87 2277.13 L2092.55 2277.13 L2092.55 2320.33 L2084.68 2320.33 L2065.52 2284.19 L2065.52 2320.33 L2059.85 2320.33 L2059.85 2277.13 Z" fill="#000000" fill-rule="nonzero" fill-opacity="1" /><polyline clip-path="url(#clip520)" style="stroke:#000000; stroke-linecap:round; stroke-linejoin:round; stroke-width:4; stroke-opacity:1; fill:none" points="320.214,2144.22 320.214,246.944 "/>
<polyline clip-path="url(#clip520)" style="stroke:#000000; stroke-linecap:round; stroke-linejoin:round; stroke-width:4; stroke-opacity:1; fill:none" points="320.214,1798.87 339.112,1798.87 "/>
<polyline clip-path="url(#clip520)" style="stroke:#000000; stroke-linecap:round; stroke-linejoin:round; stroke-width:4; stroke-opacity:1; fill:none" points="320.214,1418.12 339.112,1418.12 "/>
<polyline clip-path="url(#clip520)" style="stroke:#000000; stroke-linecap:round; stroke-linejoin:round; stroke-width:4; stroke-opacity:1; fill:none" points="320.214,1037.37 339.112,1037.37 "/>
<polyline clip-path="url(#clip520)" style="stroke:#000000; stroke-linecap:round; stroke-linejoin:round; stroke-width:4; stroke-opacity:1; fill:none" points="320.214,656.618 339.112,656.618 "/>
<polyline clip-path="url(#clip520)" style="stroke:#000000; stroke-linecap:round; stroke-linejoin:round; stroke-width:4; stroke-opacity:1; fill:none" points="320.214,275.869 339.112,275.869 "/>
<path clip-path="url(#clip520)" d="M179.872 1784.66 Q176.261 1784.66 174.432 1788.23 Q172.627 1791.77 172.627 1798.9 Q172.627 1806.01 174.432 1809.57 Q176.261 1813.11 179.872 1813.11 Q183.506 1813.11 185.312 1809.57 Q187.141 1806.01 187.141 1798.9 Q187.141 1791.77 185.312 1788.23 Q183.506 1784.66 179.872 1784.66 M179.872 1780.96 Q185.682 1780.96 188.738 1785.57 Q191.816 1790.15 191.816 1798.9 Q191.816 1807.63 188.738 1812.23 Q185.682 1816.82 179.872 1816.82 Q174.062 1816.82 170.983 1812.23 Q167.928 1807.63 167.928 1798.9 Q167.928 1790.15 170.983 1785.57 Q174.062 1780.96 179.872 1780.96 Z" fill="#000000" fill-rule="nonzero" fill-opacity="1" /><path clip-path="url(#clip520)" d="M200.034 1810.27 L204.918 1810.27 L204.918 1816.15 L200.034 1816.15 L200.034 1810.27 Z" fill="#000000" fill-rule="nonzero" fill-opacity="1" /><path clip-path="url(#clip520)" d="M219.131 1812.21 L235.45 1812.21 L235.45 1816.15 L213.506 1816.15 L213.506 1812.21 Q216.168 1809.46 220.751 1804.83 Q225.358 1800.17 226.538 1798.83 Q228.784 1796.31 229.663 1794.57 Q230.566 1792.81 230.566 1791.12 Q230.566 1788.37 228.622 1786.63 Q226.7 1784.9 223.599 1784.9 Q221.4 1784.9 218.946 1785.66 Q216.515 1786.42 213.738 1787.97 L213.738 1783.25 Q216.562 1782.12 219.015 1781.54 Q221.469 1780.96 223.506 1780.96 Q228.876 1780.96 232.071 1783.65 Q235.265 1786.33 235.265 1790.82 Q235.265 1792.95 234.455 1794.87 Q233.668 1796.77 231.562 1799.36 Q230.983 1800.03 227.881 1803.25 Q224.779 1806.45 219.131 1812.21 Z" fill="#000000" fill-rule="nonzero" fill-opacity="1" /><path clip-path="url(#clip520)" d="M245.311 1781.59 L263.668 1781.59 L263.668 1785.52 L249.594 1785.52 L249.594 1793.99 Q250.612 1793.65 251.631 1793.48 Q252.649 1793.3 253.668 1793.3 Q259.455 1793.3 262.835 1796.47 Q266.214 1799.64 266.214 1805.06 Q266.214 1810.64 262.742 1813.74 Q259.27 1816.82 252.95 1816.82 Q250.774 1816.82 248.506 1816.45 Q246.261 1816.08 243.853 1815.33 L243.853 1810.64 Q245.936 1811.77 248.159 1812.33 Q250.381 1812.88 252.858 1812.88 Q256.862 1812.88 259.2 1810.77 Q261.538 1808.67 261.538 1805.06 Q261.538 1801.45 259.2 1799.34 Q256.862 1797.23 252.858 1797.23 Q250.983 1797.23 249.108 1797.65 Q247.256 1798.07 245.311 1798.95 L245.311 1781.59 Z" fill="#000000" fill-rule="nonzero" fill-opacity="1" /><path clip-path="url(#clip520)" d="M178.877 1403.91 Q175.266 1403.91 173.437 1407.48 Q171.631 1411.02 171.631 1418.15 Q171.631 1425.26 173.437 1428.82 Q175.266 1432.36 178.877 1432.36 Q182.511 1432.36 184.316 1428.82 Q186.145 1425.26 186.145 1418.15 Q186.145 1411.02 184.316 1407.48 Q182.511 1403.91 178.877 1403.91 M178.877 1400.21 Q184.687 1400.21 187.742 1404.82 Q190.821 1409.4 190.821 1418.15 Q190.821 1426.88 187.742 1431.48 Q184.687 1436.07 178.877 1436.07 Q173.067 1436.07 169.988 1431.48 Q166.932 1426.88 166.932 1418.15 Q166.932 1409.4 169.988 1404.82 Q173.067 1400.21 178.877 1400.21 Z" fill="#000000" fill-rule="nonzero" fill-opacity="1" /><path clip-path="url(#clip520)" d="M199.039 1429.52 L203.923 1429.52 L203.923 1435.4 L199.039 1435.4 L199.039 1429.52 Z" fill="#000000" fill-rule="nonzero" fill-opacity="1" /><path clip-path="url(#clip520)" d="M214.154 1400.84 L232.511 1400.84 L232.511 1404.77 L218.437 1404.77 L218.437 1413.24 Q219.455 1412.9 220.474 1412.73 Q221.492 1412.55 222.511 1412.55 Q228.298 1412.55 231.677 1415.72 Q235.057 1418.89 235.057 1424.31 Q235.057 1429.89 231.585 1432.99 Q228.113 1436.07 221.793 1436.07 Q219.617 1436.07 217.349 1435.7 Q215.103 1435.33 212.696 1434.59 L212.696 1429.89 Q214.779 1431.02 217.001 1431.58 Q219.224 1432.13 221.701 1432.13 Q225.705 1432.13 228.043 1430.03 Q230.381 1427.92 230.381 1424.31 Q230.381 1420.7 228.043 1418.59 Q225.705 1416.48 221.701 1416.48 Q219.826 1416.48 217.951 1416.9 Q216.099 1417.32 214.154 1418.2 L214.154 1400.84 Z" fill="#000000" fill-rule="nonzero" fill-opacity="1" /><path clip-path="url(#clip520)" d="M254.27 1403.91 Q250.659 1403.91 248.83 1407.48 Q247.024 1411.02 247.024 1418.15 Q247.024 1425.26 248.83 1428.82 Q250.659 1432.36 254.27 1432.36 Q257.904 1432.36 259.71 1428.82 Q261.538 1425.26 261.538 1418.15 Q261.538 1411.02 259.71 1407.48 Q257.904 1403.91 254.27 1403.91 M254.27 1400.21 Q260.08 1400.21 263.135 1404.82 Q266.214 1409.4 266.214 1418.15 Q266.214 1426.88 263.135 1431.48 Q260.08 1436.07 254.27 1436.07 Q248.46 1436.07 245.381 1431.48 Q242.325 1426.88 242.325 1418.15 Q242.325 1409.4 245.381 1404.82 Q248.46 1400.21 254.27 1400.21 Z" fill="#000000" fill-rule="nonzero" fill-opacity="1" /><path clip-path="url(#clip520)" d="M179.872 1023.17 Q176.261 1023.17 174.432 1026.73 Q172.627 1030.27 172.627 1037.4 Q172.627 1044.51 174.432 1048.07 Q176.261 1051.61 179.872 1051.61 Q183.506 1051.61 185.312 1048.07 Q187.141 1044.51 187.141 1037.4 Q187.141 1030.27 185.312 1026.73 Q183.506 1023.17 179.872 1023.17 M179.872 1019.46 Q185.682 1019.46 188.738 1024.07 Q191.816 1028.65 191.816 1037.4 Q191.816 1046.13 188.738 1050.74 Q185.682 1055.32 179.872 1055.32 Q174.062 1055.32 170.983 1050.74 Q167.928 1046.13 167.928 1037.4 Q167.928 1028.65 170.983 1024.07 Q174.062 1019.46 179.872 1019.46 Z" fill="#000000" fill-rule="nonzero" fill-opacity="1" /><path clip-path="url(#clip520)" d="M200.034 1048.77 L204.918 1048.77 L204.918 1054.65 L200.034 1054.65 L200.034 1048.77 Z" fill="#000000" fill-rule="nonzero" fill-opacity="1" /><path clip-path="url(#clip520)" d="M213.923 1020.09 L236.145 1020.09 L236.145 1022.08 L223.599 1054.65 L218.714 1054.65 L230.52 1024.02 L213.923 1024.02 L213.923 1020.09 Z" fill="#000000" fill-rule="nonzero" fill-opacity="1" /><path clip-path="url(#clip520)" d="M245.311 1020.09 L263.668 1020.09 L263.668 1024.02 L249.594 1024.02 L249.594 1032.49 Q250.612 1032.15 251.631 1031.99 Q252.649 1031.8 253.668 1031.8 Q259.455 1031.8 262.835 1034.97 Q266.214 1038.14 266.214 1043.56 Q266.214 1049.14 262.742 1052.24 Q259.27 1055.32 252.95 1055.32 Q250.774 1055.32 248.506 1054.95 Q246.261 1054.58 243.853 1053.84 L243.853 1049.14 Q245.936 1050.27 248.159 1050.83 Q250.381 1051.38 252.858 1051.38 Q256.862 1051.38 259.2 1049.28 Q261.538 1047.17 261.538 1043.56 Q261.538 1039.95 259.2 1037.84 Q256.862 1035.74 252.858 1035.74 Q250.983 1035.74 249.108 1036.15 Q247.256 1036.57 245.311 1037.45 L245.311 1020.09 Z" fill="#000000" fill-rule="nonzero" fill-opacity="1" /><path clip-path="url(#clip520)" d="M169.687 669.963 L177.326 669.963 L177.326 643.597 L169.016 645.264 L169.016 641.005 L177.279 639.338 L181.955 639.338 L181.955 669.963 L189.594 669.963 L189.594 673.898 L169.687 673.898 L169.687 669.963 Z" fill="#000000" fill-rule="nonzero" fill-opacity="1" /><path clip-path="url(#clip520)" d="M199.039 668.018 L203.923 668.018 L203.923 673.898 L199.039 673.898 L199.039 668.018 Z" fill="#000000" fill-rule="nonzero" fill-opacity="1" /><path clip-path="url(#clip520)" d="M224.108 642.417 Q220.497 642.417 218.668 645.982 Q216.863 649.523 216.863 656.653 Q216.863 663.759 218.668 667.324 Q220.497 670.866 224.108 670.866 Q227.742 670.866 229.548 667.324 Q231.376 663.759 231.376 656.653 Q231.376 649.523 229.548 645.982 Q227.742 642.417 224.108 642.417 M224.108 638.713 Q229.918 638.713 232.974 643.32 Q236.052 647.903 236.052 656.653 Q236.052 665.38 232.974 669.986 Q229.918 674.569 224.108 674.569 Q218.298 674.569 215.219 669.986 Q212.164 665.38 212.164 656.653 Q212.164 647.903 215.219 643.32 Q218.298 638.713 224.108 638.713 Z" fill="#000000" fill-rule="nonzero" fill-opacity="1" /><path clip-path="url(#clip520)" d="M254.27 642.417 Q250.659 642.417 248.83 645.982 Q247.024 649.523 247.024 656.653 Q247.024 663.759 248.83 667.324 Q250.659 670.866 254.27 670.866 Q257.904 670.866 259.71 667.324 Q261.538 663.759 261.538 656.653 Q261.538 649.523 259.71 645.982 Q257.904 642.417 254.27 642.417 M254.27 638.713 Q260.08 638.713 263.135 643.32 Q266.214 647.903 266.214 656.653 Q266.214 665.38 263.135 669.986 Q260.08 674.569 254.27 674.569 Q248.46 674.569 245.381 669.986 Q242.325 665.38 242.325 656.653 Q242.325 647.903 245.381 643.32 Q248.46 638.713 254.27 638.713 Z" fill="#000000" fill-rule="nonzero" fill-opacity="1" /><path clip-path="url(#clip520)" d="M170.682 289.214 L178.321 289.214 L178.321 262.848 L170.011 264.515 L170.011 260.256 L178.275 258.589 L182.951 258.589 L182.951 289.214 L190.59 289.214 L190.59 293.149 L170.682 293.149 L170.682 289.214 Z" fill="#000000" fill-rule="nonzero" fill-opacity="1" /><path clip-path="url(#clip520)" d="M200.034 287.269 L204.918 287.269 L204.918 293.149 L200.034 293.149 L200.034 287.269 Z" fill="#000000" fill-rule="nonzero" fill-opacity="1" /><path clip-path="url(#clip520)" d="M219.131 289.214 L235.45 289.214 L235.45 293.149 L213.506 293.149 L213.506 289.214 Q216.168 286.459 220.751 281.83 Q225.358 277.177 226.538 275.834 Q228.784 273.311 229.663 271.575 Q230.566 269.816 230.566 268.126 Q230.566 265.371 228.622 263.635 Q226.7 261.899 223.599 261.899 Q221.4 261.899 218.946 262.663 Q216.515 263.427 213.738 264.978 L213.738 260.256 Q216.562 259.121 219.015 258.543 Q221.469 257.964 223.506 257.964 Q228.876 257.964 232.071 260.649 Q235.265 263.334 235.265 267.825 Q235.265 269.955 234.455 271.876 Q233.668 273.774 231.562 276.367 Q230.983 277.038 227.881 280.256 Q224.779 283.45 219.131 289.214 Z" fill="#000000" fill-rule="nonzero" fill-opacity="1" /><path clip-path="url(#clip520)" d="M245.311 258.589 L263.668 258.589 L263.668 262.524 L249.594 262.524 L249.594 270.996 Q250.612 270.649 251.631 270.487 Q252.649 270.302 253.668 270.302 Q259.455 270.302 262.835 273.473 Q266.214 276.644 266.214 282.061 Q266.214 287.64 262.742 290.742 Q259.27 293.82 252.95 293.82 Q250.774 293.82 248.506 293.45 Q246.261 293.08 243.853 292.339 L243.853 287.64 Q245.936 288.774 248.159 289.33 Q250.381 289.885 252.858 289.885 Q256.862 289.885 259.2 287.779 Q261.538 285.672 261.538 282.061 Q261.538 278.45 259.2 276.344 Q256.862 274.237 252.858 274.237 Q250.983 274.237 249.108 274.654 Q247.256 275.07 245.311 275.95 L245.311 258.589 Z" fill="#000000" fill-rule="nonzero" fill-opacity="1" /><path clip-path="url(#clip520)" d="M58.1901 1368.54 L63.8903 1368.54 Q62.2989 1371.87 61.5176 1374.82 Q60.7364 1377.77 60.7364 1380.52 Q60.7364 1385.3 62.5882 1387.9 Q64.4401 1390.48 67.8544 1390.48 Q70.719 1390.48 72.1947 1388.77 Q73.6414 1387.03 74.5384 1382.23 L75.2618 1378.7 Q76.506 1372.16 79.6599 1369.06 Q82.7849 1365.94 88.0511 1365.94 Q94.33 1365.94 97.5707 1370.16 Q100.811 1374.36 100.811 1382.49 Q100.811 1385.56 100.117 1389.03 Q99.4225 1392.47 98.0626 1396.18 L92.0441 1396.18 Q94.0406 1392.62 95.0533 1389.2 Q96.0661 1385.79 96.0661 1382.49 Q96.0661 1377.48 94.0985 1374.76 Q92.1309 1372.04 88.4851 1372.04 Q85.3022 1372.04 83.5083 1374.01 Q81.7143 1375.95 80.8173 1380.41 L80.1229 1383.97 Q78.8208 1390.51 76.043 1393.43 Q73.2653 1396.35 68.3174 1396.35 Q62.5882 1396.35 59.2896 1392.33 Q55.991 1388.28 55.991 1381.19 Q55.991 1378.15 56.5408 1375 Q57.0906 1371.84 58.1901 1368.54 Z" fill="#000000" fill-rule="nonzero" fill-opacity="1" /><path clip-path="url(#clip520)" d="M71.2977 1344.5 Q71.2977 1348.78 74.6541 1351.27 Q77.9817 1353.76 83.7976 1353.76 Q89.6135 1353.76 92.97 1351.3 Q96.2975 1348.81 96.2975 1344.5 Q96.2975 1340.25 92.9411 1337.76 Q89.5846 1335.27 83.7976 1335.27 Q78.0395 1335.27 74.6831 1337.76 Q71.2977 1340.25 71.2977 1344.5 M66.7838 1344.5 Q66.7838 1337.55 71.2977 1333.59 Q75.8115 1329.63 83.7976 1329.63 Q91.7547 1329.63 96.2975 1333.59 Q100.811 1337.55 100.811 1344.5 Q100.811 1351.47 96.2975 1355.44 Q91.7547 1359.37 83.7976 1359.37 Q75.8115 1359.37 71.2977 1355.44 Q66.7838 1351.47 66.7838 1344.5 Z" fill="#000000" fill-rule="nonzero" fill-opacity="1" /><path clip-path="url(#clip520)" d="M54.9494 1320.8 L54.9494 1315.48 L99.9723 1315.48 L99.9723 1320.8 L54.9494 1320.8 Z" fill="#000000" fill-rule="nonzero" fill-opacity="1" /><path clip-path="url(#clip520)" d="M67.565 1308.16 L67.565 1302.51 L94.764 1292.39 L67.565 1282.26 L67.565 1276.62 L99.9723 1288.77 L99.9723 1296 L67.565 1308.16 Z" fill="#000000" fill-rule="nonzero" fill-opacity="1" /><path clip-path="url(#clip520)" d="M82.4377 1241.55 L85.0418 1241.55 L85.0418 1266.03 Q90.5395 1265.68 93.433 1262.73 Q96.2975 1259.75 96.2975 1254.45 Q96.2975 1251.39 95.5452 1248.52 Q94.7929 1245.63 93.2883 1242.79 L98.323 1242.79 Q99.5383 1245.66 100.175 1248.67 Q100.811 1251.67 100.811 1254.77 Q100.811 1262.53 96.2975 1267.07 Q91.7837 1271.58 84.087 1271.58 Q76.1298 1271.58 71.4713 1267.3 Q66.7838 1262.99 66.7838 1255.7 Q66.7838 1249.16 71.0083 1245.37 Q75.2039 1241.55 82.4377 1241.55 M80.8752 1246.87 Q76.506 1246.93 73.9018 1249.33 Q71.2977 1251.7 71.2977 1255.64 Q71.2977 1260.1 73.815 1262.79 Q76.3324 1265.45 80.9041 1265.85 L80.8752 1246.87 Z" fill="#000000" fill-rule="nonzero" fill-opacity="1" /><path clip-path="url(#clip520)" d="M58.3637 1208.71 L67.565 1208.71 L67.565 1197.74 L71.7028 1197.74 L71.7028 1208.71 L89.2953 1208.71 Q93.2594 1208.71 94.3878 1207.64 Q95.5163 1206.54 95.5163 1203.21 L95.5163 1197.74 L99.9723 1197.74 L99.9723 1203.21 Q99.9723 1209.37 97.6864 1211.72 Q95.3716 1214.06 89.2953 1214.06 L71.7028 1214.06 L71.7028 1217.97 L67.565 1217.97 L67.565 1214.06 L58.3637 1214.06 L58.3637 1208.71 Z" fill="#000000" fill-rule="nonzero" fill-opacity="1" /><path clip-path="url(#clip520)" d="M67.565 1190.74 L67.565 1185.41 L99.9723 1185.41 L99.9723 1190.74 L67.565 1190.74 M54.9494 1190.74 L54.9494 1185.41 L61.6912 1185.41 L61.6912 1190.74 L54.9494 1190.74 Z" fill="#000000" fill-rule="nonzero" fill-opacity="1" /><path clip-path="url(#clip520)" d="M73.7861 1149.04 Q70.1981 1147.05 68.491 1144.27 Q66.7838 1141.49 66.7838 1137.73 Q66.7838 1132.67 70.3428 1129.92 Q73.8729 1127.17 80.4122 1127.17 L99.9723 1127.17 L99.9723 1132.52 L80.5858 1132.52 Q75.9273 1132.52 73.6703 1134.17 Q71.4134 1135.82 71.4134 1139.2 Q71.4134 1143.34 74.1622 1145.74 Q76.9111 1148.15 81.6564 1148.15 L99.9723 1148.15 L99.9723 1153.5 L80.5858 1153.5 Q75.8983 1153.5 73.6703 1155.15 Q71.4134 1156.8 71.4134 1160.24 Q71.4134 1164.32 74.1912 1166.72 Q76.94 1169.12 81.6564 1169.12 L99.9723 1169.12 L99.9723 1174.48 L67.565 1174.48 L67.565 1169.12 L72.5997 1169.12 Q69.6194 1167.3 68.2016 1164.75 Q66.7838 1162.21 66.7838 1158.71 Q66.7838 1155.18 68.5778 1152.72 Q70.3717 1150.23 73.7861 1149.04 Z" fill="#000000" fill-rule="nonzero" fill-opacity="1" /><path clip-path="url(#clip520)" d="M82.4377 1088.83 L85.0418 1088.83 L85.0418 1113.31 Q90.5395 1112.96 93.433 1110.01 Q96.2975 1107.03 96.2975 1101.73 Q96.2975 1098.67 95.5452 1095.8 Q94.7929 1092.91 93.2883 1090.07 L98.323 1090.07 Q99.5383 1092.94 100.175 1095.95 Q100.811 1098.96 100.811 1102.05 Q100.811 1109.81 96.2975 1114.35 Q91.7837 1118.86 84.087 1118.86 Q76.1298 1118.86 71.4713 1114.58 Q66.7838 1110.27 66.7838 1102.98 Q66.7838 1096.44 71.0083 1092.65 Q75.2039 1088.83 82.4377 1088.83 M80.8752 1094.15 Q76.506 1094.21 73.9018 1096.61 Q71.2977 1098.98 71.2977 1102.92 Q71.2977 1107.38 73.815 1110.07 Q76.3324 1112.73 80.9041 1113.13 L80.8752 1094.15 Z" fill="#000000" fill-rule="nonzero" fill-opacity="1" /><path clip-path="url(#clip520)" d="M55.0072 1048.46 Q61.6623 1052.34 68.1727 1054.22 Q74.6831 1056.1 81.3671 1056.1 Q88.0511 1056.1 94.6193 1054.22 Q101.159 1052.31 107.785 1048.46 L107.785 1053.09 Q100.985 1057.43 94.4168 1059.6 Q87.8485 1061.75 81.3671 1061.75 Q74.9145 1061.75 68.3752 1059.6 Q61.8359 1057.46 55.0072 1053.09 L55.0072 1048.46 Z" fill="#000000" fill-rule="nonzero" fill-opacity="1" /><path clip-path="url(#clip520)" d="M68.5199 1017.47 L73.5546 1017.47 Q72.3972 1019.73 71.8185 1022.16 Q71.2398 1024.59 71.2398 1027.2 Q71.2398 1031.16 72.4551 1033.16 Q73.6703 1035.13 76.1009 1035.13 Q77.9527 1035.13 79.0233 1033.71 Q80.065 1032.29 81.0198 1028.01 L81.4249 1026.18 Q82.6402 1020.51 84.8682 1018.14 Q87.0673 1015.74 91.0314 1015.74 Q95.5452 1015.74 98.1783 1019.33 Q100.811 1022.89 100.811 1029.14 Q100.811 1031.74 100.291 1034.58 Q99.7987 1037.38 98.7859 1040.51 L93.2883 1040.51 Q94.8218 1037.56 95.6031 1034.69 Q96.3554 1031.83 96.3554 1029.02 Q96.3554 1025.26 95.0823 1023.23 Q93.7802 1021.21 91.4364 1021.21 Q89.2663 1021.21 88.1089 1022.68 Q86.9515 1024.13 85.8809 1029.08 L85.4469 1030.93 Q84.4052 1035.88 82.264 1038.08 Q80.0939 1040.28 76.3324 1040.28 Q71.7606 1040.28 69.2722 1037.03 Q66.7838 1033.79 66.7838 1027.83 Q66.7838 1024.88 67.2178 1022.28 Q67.6519 1019.67 68.5199 1017.47 Z" fill="#000000" fill-rule="nonzero" fill-opacity="1" /><path clip-path="url(#clip520)" d="M55.0072 1008.1 L55.0072 1003.47 Q61.8359 999.13 68.3752 996.989 Q74.9145 994.819 81.3671 994.819 Q87.8485 994.819 94.4168 996.989 Q100.985 999.13 107.785 1003.47 L107.785 1008.1 Q101.159 1004.25 94.6193 1002.37 Q88.0511 1000.46 81.3671 1000.46 Q74.6831 1000.46 68.1727 1002.37 Q61.6623 1004.25 55.0072 1008.1 Z" fill="#000000" fill-rule="nonzero" fill-opacity="1" /><path clip-path="url(#clip520)" d="M1328.55 125.969 L1328.55 133.949 Q1323.89 131.721 1319.76 130.627 Q1315.62 129.534 1311.77 129.534 Q1305.09 129.534 1301.45 132.126 Q1297.84 134.719 1297.84 139.499 Q1297.84 143.509 1300.23 145.575 Q1302.66 147.601 1309.38 148.857 L1314.33 149.869 Q1323.48 151.611 1327.82 156.027 Q1332.19 160.402 1332.19 167.774 Q1332.19 176.565 1326.28 181.102 Q1320.4 185.639 1309.02 185.639 Q1304.73 185.639 1299.87 184.667 Q1295.04 183.694 1289.86 181.79 L1289.86 173.365 Q1294.84 176.16 1299.62 177.577 Q1304.4 178.995 1309.02 178.995 Q1316.03 178.995 1319.84 176.241 Q1323.64 173.486 1323.64 168.382 Q1323.64 163.926 1320.89 161.414 Q1318.18 158.903 1311.94 157.647 L1306.95 156.675 Q1297.8 154.852 1293.71 150.963 Q1289.62 147.074 1289.62 140.147 Q1289.62 132.126 1295.25 127.508 Q1300.92 122.89 1310.84 122.89 Q1315.1 122.89 1319.51 123.66 Q1323.93 124.43 1328.55 125.969 Z" fill="#000000" fill-rule="nonzero" fill-opacity="1" /><path clip-path="url(#clip520)" d="M1362.21 144.32 Q1356.21 144.32 1352.73 149.019 Q1349.25 153.677 1349.25 161.819 Q1349.25 169.962 1352.69 174.661 Q1356.17 179.319 1362.21 179.319 Q1368.16 179.319 1371.65 174.62 Q1375.13 169.921 1375.13 161.819 Q1375.13 153.758 1371.65 149.059 Q1368.16 144.32 1362.21 144.32 M1362.21 138 Q1371.93 138 1377.48 144.32 Q1383.03 150.639 1383.03 161.819 Q1383.03 172.959 1377.48 179.319 Q1371.93 185.639 1362.21 185.639 Q1352.45 185.639 1346.9 179.319 Q1341.39 172.959 1341.39 161.819 Q1341.39 150.639 1346.9 144.32 Q1352.45 138 1362.21 138 Z" fill="#000000" fill-rule="nonzero" fill-opacity="1" /><path clip-path="url(#clip520)" d="M1395.39 121.432 L1402.84 121.432 L1402.84 184.464 L1395.39 184.464 L1395.39 121.432 Z" fill="#000000" fill-rule="nonzero" fill-opacity="1" /><path clip-path="url(#clip520)" d="M1413.09 139.094 L1420.99 139.094 L1435.17 177.172 L1449.34 139.094 L1457.24 139.094 L1440.23 184.464 L1430.1 184.464 L1413.09 139.094 Z" fill="#000000" fill-rule="nonzero" fill-opacity="1" /><path clip-path="url(#clip520)" d="M1506.34 159.916 L1506.34 163.561 L1472.07 163.561 Q1472.56 171.258 1476.69 175.309 Q1480.86 179.319 1488.27 179.319 Q1492.57 179.319 1496.58 178.266 Q1500.63 177.213 1504.6 175.106 L1504.6 182.155 Q1500.59 183.856 1496.37 184.748 Q1492.16 185.639 1487.83 185.639 Q1476.97 185.639 1470.61 179.319 Q1464.29 173 1464.29 162.225 Q1464.29 151.085 1470.29 144.563 Q1476.32 138 1486.53 138 Q1495.69 138 1500.99 143.914 Q1506.34 149.788 1506.34 159.916 M1498.89 157.728 Q1498.81 151.611 1495.44 147.965 Q1492.12 144.32 1486.61 144.32 Q1480.37 144.32 1476.61 147.844 Q1472.88 151.368 1472.31 157.769 L1498.89 157.728 Z" fill="#000000" fill-rule="nonzero" fill-opacity="1" /><path clip-path="url(#clip520)" d="M1552.32 126.212 L1552.32 139.094 L1567.67 139.094 L1567.67 144.887 L1552.32 144.887 L1552.32 169.516 Q1552.32 175.066 1553.82 176.646 Q1555.36 178.226 1560.01 178.226 L1567.67 178.226 L1567.67 184.464 L1560.01 184.464 Q1551.39 184.464 1548.1 181.264 Q1544.82 178.023 1544.82 169.516 L1544.82 144.887 L1539.35 144.887 L1539.35 139.094 L1544.82 139.094 L1544.82 126.212 L1552.32 126.212 Z" fill="#000000" fill-rule="nonzero" fill-opacity="1" /><path clip-path="url(#clip520)" d="M1577.47 139.094 L1584.93 139.094 L1584.93 184.464 L1577.47 184.464 L1577.47 139.094 M1577.47 121.432 L1584.93 121.432 L1584.93 130.871 L1577.47 130.871 L1577.47 121.432 Z" fill="#000000" fill-rule="nonzero" fill-opacity="1" /><path clip-path="url(#clip520)" d="M1635.85 147.803 Q1638.64 142.78 1642.53 140.39 Q1646.42 138 1651.69 138 Q1658.78 138 1662.62 142.983 Q1666.47 147.925 1666.47 157.08 L1666.47 184.464 L1658.98 184.464 L1658.98 157.323 Q1658.98 150.801 1656.67 147.641 Q1654.36 144.482 1649.62 144.482 Q1643.83 144.482 1640.47 148.33 Q1637.1 152.178 1637.1 158.822 L1637.1 184.464 L1629.61 184.464 L1629.61 157.323 Q1629.61 150.76 1627.3 147.641 Q1624.99 144.482 1620.17 144.482 Q1614.46 144.482 1611.1 148.37 Q1607.73 152.219 1607.73 158.822 L1607.73 184.464 L1600.24 184.464 L1600.24 139.094 L1607.73 139.094 L1607.73 146.142 Q1610.29 141.97 1613.85 139.985 Q1617.42 138 1622.32 138 Q1627.26 138 1630.7 140.512 Q1634.19 143.023 1635.85 147.803 Z" fill="#000000" fill-rule="nonzero" fill-opacity="1" /><path clip-path="url(#clip520)" d="M1720.15 159.916 L1720.15 163.561 L1685.88 163.561 Q1686.36 171.258 1690.49 175.309 Q1694.67 179.319 1702.08 179.319 Q1706.37 179.319 1710.38 178.266 Q1714.43 177.213 1718.4 175.106 L1718.4 182.155 Q1714.39 183.856 1710.18 184.748 Q1705.97 185.639 1701.63 185.639 Q1690.78 185.639 1684.42 179.319 Q1678.1 173 1678.1 162.225 Q1678.1 151.085 1684.09 144.563 Q1690.13 138 1700.34 138 Q1709.49 138 1714.8 143.914 Q1720.15 149.788 1720.15 159.916 M1712.69 157.728 Q1712.61 151.611 1709.25 147.965 Q1705.93 144.32 1700.42 144.32 Q1694.18 144.32 1690.41 147.844 Q1686.69 151.368 1686.12 157.769 L1712.69 157.728 Z" fill="#000000" fill-rule="nonzero" fill-opacity="1" /><path clip-path="url(#clip520)" d="M1753.4 139.094 L1761.3 139.094 L1775.48 177.172 L1789.66 139.094 L1797.56 139.094 L1780.55 184.464 L1770.42 184.464 L1753.4 139.094 Z" fill="#000000" fill-rule="nonzero" fill-opacity="1" /><path clip-path="url(#clip520)" d="M1836.77 140.431 L1836.77 147.479 Q1833.61 145.859 1830.21 145.049 Q1826.81 144.239 1823.16 144.239 Q1817.61 144.239 1814.82 145.94 Q1812.06 147.641 1812.06 151.044 Q1812.06 153.637 1814.05 155.135 Q1816.03 156.594 1822.03 157.931 L1824.58 158.498 Q1832.52 160.199 1835.84 163.318 Q1839.2 166.397 1839.2 171.947 Q1839.2 178.266 1834.18 181.952 Q1829.2 185.639 1820.45 185.639 Q1816.8 185.639 1812.83 184.91 Q1808.9 184.221 1804.53 182.803 L1804.53 175.106 Q1808.66 177.253 1812.67 178.347 Q1816.68 179.4 1820.61 179.4 Q1825.88 179.4 1828.71 177.618 Q1831.55 175.795 1831.55 172.514 Q1831.55 169.476 1829.48 167.855 Q1827.45 166.235 1820.53 164.736 L1817.94 164.128 Q1811.01 162.67 1807.93 159.672 Q1804.85 156.634 1804.85 151.368 Q1804.85 144.968 1809.39 141.484 Q1813.92 138 1822.27 138 Q1826.4 138 1830.05 138.608 Q1833.69 139.215 1836.77 140.431 Z" fill="#000000" fill-rule="nonzero" fill-opacity="1" /><path clip-path="url(#clip520)" d="M1907.3 161.252 Q1907.3 153.151 1903.94 148.695 Q1900.61 144.239 1894.58 144.239 Q1888.58 144.239 1885.22 148.695 Q1881.9 153.151 1881.9 161.252 Q1881.9 169.314 1885.22 173.77 Q1888.58 178.226 1894.58 178.226 Q1900.61 178.226 1903.94 173.77 Q1907.3 169.314 1907.3 161.252 M1914.75 178.833 Q1914.75 190.419 1909.61 196.05 Q1904.46 201.721 1893.85 201.721 Q1889.92 201.721 1886.44 201.113 Q1882.95 200.546 1879.67 199.331 L1879.67 192.08 Q1882.95 193.862 1886.15 194.713 Q1889.35 195.563 1892.67 195.563 Q1900.01 195.563 1903.65 191.715 Q1907.3 187.907 1907.3 180.17 L1907.3 176.484 Q1904.99 180.494 1901.38 182.479 Q1897.78 184.464 1892.76 184.464 Q1884.41 184.464 1879.31 178.104 Q1874.2 171.744 1874.2 161.252 Q1874.2 150.72 1879.31 144.36 Q1884.41 138 1892.76 138 Q1897.78 138 1901.38 139.985 Q1904.99 141.97 1907.3 145.98 L1907.3 139.094 L1914.75 139.094 L1914.75 178.833 Z" fill="#000000" fill-rule="nonzero" fill-opacity="1" /><path clip-path="url(#clip520)" d="M1956.4 146.061 Q1955.14 145.332 1953.64 145.008 Q1952.18 144.644 1950.4 144.644 Q1944.08 144.644 1940.68 148.776 Q1937.32 152.867 1937.32 160.564 L1937.32 184.464 L1929.82 184.464 L1929.82 139.094 L1937.32 139.094 L1937.32 146.142 Q1939.66 142.011 1943.43 140.026 Q1947.2 138 1952.59 138 Q1953.36 138 1954.29 138.122 Q1955.22 138.203 1956.35 138.405 L1956.4 146.061 Z" fill="#000000" fill-rule="nonzero" fill-opacity="1" /><path clip-path="url(#clip520)" d="M1964.21 139.094 L1971.67 139.094 L1971.67 184.464 L1964.21 184.464 L1964.21 139.094 M1964.21 121.432 L1971.67 121.432 L1971.67 130.871 L1964.21 130.871 L1964.21 121.432 Z" fill="#000000" fill-rule="nonzero" fill-opacity="1" /><path clip-path="url(#clip520)" d="M2017.12 145.98 L2017.12 121.432 L2024.57 121.432 L2024.57 184.464 L2017.12 184.464 L2017.12 177.658 Q2014.77 181.709 2011.16 183.694 Q2007.6 185.639 2002.58 185.639 Q1994.35 185.639 1989.17 179.076 Q1984.02 172.514 1984.02 161.819 Q1984.02 151.125 1989.17 144.563 Q1994.35 138 2002.58 138 Q2007.6 138 2011.16 139.985 Q2014.77 141.93 2017.12 145.98 M1991.72 161.819 Q1991.72 170.043 1995.08 174.742 Q1998.48 179.4 2004.4 179.4 Q2010.31 179.4 2013.72 174.742 Q2017.12 170.043 2017.12 161.819 Q2017.12 153.596 2013.72 148.938 Q2010.31 144.239 2004.4 144.239 Q1998.48 144.239 1995.08 148.938 Q1991.72 153.596 1991.72 161.819 Z" fill="#000000" fill-rule="nonzero" fill-opacity="1" /><path clip-path="url(#clip520)" d="M2095.22 140.431 L2095.22 147.479 Q2092.06 145.859 2088.66 145.049 Q2085.25 144.239 2081.61 144.239 Q2076.06 144.239 2073.26 145.94 Q2070.51 147.641 2070.51 151.044 Q2070.51 153.637 2072.49 155.135 Q2074.48 156.594 2080.47 157.931 L2083.03 158.498 Q2090.97 160.199 2094.29 163.318 Q2097.65 166.397 2097.65 171.947 Q2097.65 178.266 2092.63 181.952 Q2087.64 185.639 2078.89 185.639 Q2075.25 185.639 2071.28 184.91 Q2067.35 184.221 2062.97 182.803 L2062.97 175.106 Q2067.11 177.253 2071.12 178.347 Q2075.13 179.4 2079.06 179.4 Q2084.32 179.4 2087.16 177.618 Q2089.99 175.795 2089.99 172.514 Q2089.99 169.476 2087.93 167.855 Q2085.9 166.235 2078.98 164.736 L2076.38 164.128 Q2069.46 162.67 2066.38 159.672 Q2063.3 156.634 2063.3 151.368 Q2063.3 144.968 2067.84 141.484 Q2072.37 138 2080.72 138 Q2084.85 138 2088.5 138.608 Q2092.14 139.215 2095.22 140.431 Z" fill="#000000" fill-rule="nonzero" fill-opacity="1" /><path clip-path="url(#clip520)" d="M2109.52 139.094 L2116.97 139.094 L2116.97 184.464 L2109.52 184.464 L2109.52 139.094 M2109.52 121.432 L2116.97 121.432 L2116.97 130.871 L2109.52 130.871 L2109.52 121.432 Z" fill="#000000" fill-rule="nonzero" fill-opacity="1" /><path clip-path="url(#clip520)" d="M2129.33 139.094 L2164.73 139.094 L2164.73 145.899 L2136.7 178.509 L2164.73 178.509 L2164.73 184.464 L2128.32 184.464 L2128.32 177.658 L2156.35 145.049 L2129.33 145.049 L2129.33 139.094 Z" fill="#000000" fill-rule="nonzero" fill-opacity="1" /><path clip-path="url(#clip520)" d="M2214.92 159.916 L2214.92 163.561 L2180.65 163.561 Q2181.14 171.258 2185.27 175.309 Q2189.44 179.319 2196.86 179.319 Q2201.15 179.319 2205.16 178.266 Q2209.21 177.213 2213.18 175.106 L2213.18 182.155 Q2209.17 183.856 2204.96 184.748 Q2200.75 185.639 2196.41 185.639 Q2185.55 185.639 2179.19 179.319 Q2172.88 173 2172.88 162.225 Q2172.88 151.085 2178.87 144.563 Q2184.91 138 2195.12 138 Q2204.27 138 2209.58 143.914 Q2214.92 149.788 2214.92 159.916 M2207.47 157.728 Q2207.39 151.611 2204.03 147.965 Q2200.71 144.32 2195.2 144.32 Q2188.96 144.32 2185.19 147.844 Q2181.46 151.368 2180.9 157.769 L2207.47 157.728 Z" fill="#000000" fill-rule="nonzero" fill-opacity="1" /><path clip-path="url(#clip520)" d="M2249.76 158.822 L2324.62 158.822 L2324.62 164.655 L2249.76 164.655 L2249.76 158.822 Z" fill="#000000" fill-rule="nonzero" fill-opacity="1" /><path clip-path="url(#clip520)" d="M2395.43 161.819 Q2395.43 153.596 2392.03 148.938 Q2388.67 144.239 2382.75 144.239 Q2376.84 144.239 2373.44 148.938 Q2370.07 153.596 2370.07 161.819 Q2370.07 170.043 2373.44 174.742 Q2376.84 179.4 2382.75 179.4 Q2388.67 179.4 2392.03 174.742 Q2395.43 170.043 2395.43 161.819 M2370.07 145.98 Q2372.42 141.93 2375.99 139.985 Q2379.59 138 2384.58 138 Q2392.84 138 2397.98 144.563 Q2403.17 151.125 2403.17 161.819 Q2403.17 172.514 2397.98 179.076 Q2392.84 185.639 2384.58 185.639 Q2379.59 185.639 2375.99 183.694 Q2372.42 181.709 2370.07 177.658 L2370.07 184.464 L2362.58 184.464 L2362.58 121.432 L2370.07 121.432 L2370.07 145.98 Z" fill="#000000" fill-rule="nonzero" fill-opacity="1" /><path clip-path="url(#clip520)" d="M2454.33 159.916 L2454.33 163.561 L2420.06 163.561 Q2420.55 171.258 2424.68 175.309 Q2428.85 179.319 2436.27 179.319 Q2440.56 179.319 2444.57 178.266 Q2448.62 177.213 2452.59 175.106 L2452.59 182.155 Q2448.58 183.856 2444.37 184.748 Q2440.15 185.639 2435.82 185.639 Q2424.96 185.639 2418.6 179.319 Q2412.28 173 2412.28 162.225 Q2412.28 151.085 2418.28 144.563 Q2424.32 138 2434.52 138 Q2443.68 138 2448.99 143.914 Q2454.33 149.788 2454.33 159.916 M2446.88 157.728 Q2446.8 151.611 2443.44 147.965 Q2440.11 144.32 2434.6 144.32 Q2428.37 144.32 2424.6 147.844 Q2420.87 151.368 2420.3 157.769 L2446.88 157.728 Z" fill="#000000" fill-rule="nonzero" fill-opacity="1" /><path clip-path="url(#clip520)" d="M2487.19 161.657 Q2478.15 161.657 2474.67 163.723 Q2471.18 165.789 2471.18 170.772 Q2471.18 174.742 2473.78 177.091 Q2476.41 179.4 2480.91 179.4 Q2487.1 179.4 2490.83 175.025 Q2494.6 170.61 2494.6 163.318 L2494.6 161.657 L2487.19 161.657 M2502.05 158.579 L2502.05 184.464 L2494.6 184.464 L2494.6 177.577 Q2492.05 181.709 2488.24 183.694 Q2484.43 185.639 2478.92 185.639 Q2471.95 185.639 2467.82 181.75 Q2463.73 177.821 2463.73 171.258 Q2463.73 163.602 2468.83 159.713 Q2473.98 155.824 2484.15 155.824 L2494.6 155.824 L2494.6 155.095 Q2494.6 149.95 2491.2 147.155 Q2487.83 144.32 2481.72 144.32 Q2477.83 144.32 2474.14 145.251 Q2470.45 146.183 2467.05 148.046 L2467.05 141.16 Q2471.14 139.58 2474.99 138.81 Q2478.84 138 2482.49 138 Q2492.33 138 2497.19 143.104 Q2502.05 148.208 2502.05 158.579 Z" fill="#000000" fill-rule="nonzero" fill-opacity="1" /><path clip-path="url(#clip520)" d="M2552.73 147.803 Q2555.52 142.78 2559.41 140.39 Q2563.3 138 2568.57 138 Q2575.66 138 2579.51 142.983 Q2583.35 147.925 2583.35 157.08 L2583.35 184.464 L2575.86 184.464 L2575.86 157.323 Q2575.86 150.801 2573.55 147.641 Q2571.24 144.482 2566.5 144.482 Q2560.71 144.482 2557.35 148.33 Q2553.98 152.178 2553.98 158.822 L2553.98 184.464 L2546.49 184.464 L2546.49 157.323 Q2546.49 150.76 2544.18 147.641 Q2541.87 144.482 2537.05 144.482 Q2531.34 144.482 2527.98 148.37 Q2524.62 152.219 2524.62 158.822 L2524.62 184.464 L2517.12 184.464 L2517.12 139.094 L2524.62 139.094 L2524.62 146.142 Q2527.17 141.97 2530.73 139.985 Q2534.3 138 2539.2 138 Q2544.14 138 2547.58 140.512 Q2551.07 143.023 2552.73 147.803 Z" fill="#000000" fill-rule="nonzero" fill-opacity="1" /><polyline clip-path="url(#clip522)" style="stroke:#ffa500; stroke-linecap:round; stroke-linejoin:round; stroke-width:6; stroke-opacity:1; fill:none" points="467.148,2090.53 1085.82,1685.36 1859.15,1103.6 3405.82,300.641 "/>
<path clip-path="url(#clip522)" d="M467.148 2074.53 L451.148 2106.53 L483.148 2106.53 L467.148 2074.53 Z" fill="#ffa500" fill-rule="evenodd" fill-opacity="1" stroke="none"/>
<path clip-path="url(#clip522)" d="M1085.82 1669.36 L1069.82 1701.36 L1101.82 1701.36 L1085.82 1669.36 Z" fill="#ffa500" fill-rule="evenodd" fill-opacity="1" stroke="none"/>
<path clip-path="url(#clip522)" d="M1859.15 1087.6 L1843.15 1119.6 L1875.15 1119.6 L1859.15 1087.6 Z" fill="#ffa500" fill-rule="evenodd" fill-opacity="1" stroke="none"/>
<path clip-path="url(#clip522)" d="M3405.82 284.641 L3389.82 316.641 L3421.82 316.641 L3405.82 284.641 Z" fill="#ffa500" fill-rule="evenodd" fill-opacity="1" stroke="none"/>
<polyline clip-path="url(#clip522)" style="stroke:#00ffff; stroke-linecap:round; stroke-linejoin:round; stroke-width:6; stroke-opacity:1; fill:none" points="467.148,1957.9 1085.82,1867.32 1859.15,1858.72 3405.82,1746.19 "/>
<path clip-path="url(#clip522)" d="M467.148 1973.9 L453.292 1965.9 L453.292 1949.9 L467.148 1941.9 L481.004 1949.9 L481.004 1965.9 Z" fill="#00ffff" fill-rule="evenodd" fill-opacity="1" stroke="none"/>
<path clip-path="url(#clip522)" d="M1085.82 1883.32 L1071.96 1875.32 L1071.96 1859.32 L1085.82 1851.32 L1099.67 1859.32 L1099.67 1875.32 Z" fill="#00ffff" fill-rule="evenodd" fill-opacity="1" stroke="none"/>
<path clip-path="url(#clip522)" d="M1859.15 1874.72 L1845.3 1866.72 L1845.3 1850.72 L1859.15 1842.72 L1873.01 1850.72 L1873.01 1866.72 Z" fill="#00ffff" fill-rule="evenodd" fill-opacity="1" stroke="none"/>
<path clip-path="url(#clip522)" d="M3405.82 1762.19 L3391.97 1754.19 L3391.97 1738.19 L3405.82 1730.19 L3419.68 1738.19 L3419.68 1754.19 Z" fill="#00ffff" fill-rule="evenodd" fill-opacity="1" stroke="none"/>
<path clip-path="url(#clip520)" d="M2684.76 2080.98 L3445 2080.98 L3445 1925.46 L2684.76 1925.46  Z" fill="#ffffff" fill-rule="evenodd" fill-opacity="1"/>
<polyline clip-path="url(#clip520)" style="stroke:#000000; stroke-linecap:round; stroke-linejoin:round; stroke-width:4; stroke-opacity:1; fill:none" points="2684.76,2080.98 3445,2080.98 3445,1925.46 2684.76,1925.46 2684.76,2080.98 "/>
<polyline clip-path="url(#clip520)" style="stroke:#ffa500; stroke-linecap:round; stroke-linejoin:round; stroke-width:6; stroke-opacity:1; fill:none" points="2720.68,1977.3 2936.18,1977.3 "/>
<path clip-path="url(#clip520)" d="M2828.43 1951.7 L2802.83 2002.9 L2854.03 2002.9 L2828.43 1951.7 Z" fill="#ffa500" fill-rule="evenodd" fill-opacity="1" stroke="none"/>
<path clip-path="url(#clip520)" d="M2982.72 1958.61 Q2979.62 1963.93 2978.12 1969.14 Q2976.61 1974.35 2976.61 1979.7 Q2976.61 1985.04 2978.12 1990.3 Q2979.65 1995.53 2982.72 2000.83 L2979.02 2000.83 Q2975.55 1995.39 2973.81 1990.14 Q2972.1 1984.88 2972.1 1979.7 Q2972.1 1974.54 2973.81 1969.3 Q2975.52 1964.07 2979.02 1958.61 L2982.72 1958.61 Z" fill="#000000" fill-rule="nonzero" fill-opacity="1" /><path clip-path="url(#clip520)" d="M3013.16 1980.55 L3013.16 1982.64 L2993.58 1982.64 Q2993.86 1987.04 2996.22 1989.35 Q2998.6 1991.64 3002.84 1991.64 Q3005.29 1991.64 3007.58 1991.04 Q3009.9 1990.44 3012.17 1989.23 L3012.17 1993.26 Q3009.88 1994.23 3007.47 1994.74 Q3005.06 1995.25 3002.58 1995.25 Q2996.38 1995.25 2992.75 1991.64 Q2989.14 1988.03 2989.14 1981.87 Q2989.14 1975.51 2992.56 1971.78 Q2996.01 1968.03 3001.84 1968.03 Q3007.08 1968.03 3010.11 1971.41 Q3013.16 1974.77 3013.16 1980.55 M3008.9 1979.3 Q3008.86 1975.81 3006.94 1973.73 Q3005.04 1971.64 3001.89 1971.64 Q2998.33 1971.64 2996.17 1973.66 Q2994.04 1975.67 2993.72 1979.33 L3008.9 1979.3 Z" fill="#000000" fill-rule="nonzero" fill-opacity="1" /><path clip-path="url(#clip520)" d="M3040.87 1968.66 L3031.5 1981.27 L3041.36 1994.58 L3036.33 1994.58 L3028.79 1984.4 L3021.24 1994.58 L3016.22 1994.58 L3026.29 1981.02 L3017.08 1968.66 L3022.1 1968.66 L3028.97 1977.89 L3035.85 1968.66 L3040.87 1968.66 Z" fill="#000000" fill-rule="nonzero" fill-opacity="1" /><path clip-path="url(#clip520)" d="M3059.16 1981.55 Q3054 1981.55 3052.01 1982.73 Q3050.02 1983.91 3050.02 1986.76 Q3050.02 1989.03 3051.5 1990.37 Q3053 1991.69 3055.57 1991.69 Q3059.11 1991.69 3061.24 1989.19 Q3063.39 1986.67 3063.39 1982.5 L3063.39 1981.55 L3059.16 1981.55 M3067.65 1979.79 L3067.65 1994.58 L3063.39 1994.58 L3063.39 1990.65 Q3061.94 1993.01 3059.76 1994.14 Q3057.58 1995.25 3054.44 1995.25 Q3050.46 1995.25 3048.09 1993.03 Q3045.76 1990.79 3045.76 1987.04 Q3045.76 1982.66 3048.67 1980.44 Q3051.61 1978.22 3057.42 1978.22 L3063.39 1978.22 L3063.39 1977.8 Q3063.39 1974.86 3061.45 1973.26 Q3059.53 1971.64 3056.03 1971.64 Q3053.81 1971.64 3051.71 1972.17 Q3049.6 1972.71 3047.65 1973.77 L3047.65 1969.84 Q3049.99 1968.93 3052.19 1968.49 Q3054.39 1968.03 3056.47 1968.03 Q3062.1 1968.03 3064.88 1970.95 Q3067.65 1973.86 3067.65 1979.79 Z" fill="#000000" fill-rule="nonzero" fill-opacity="1" /><path clip-path="url(#clip520)" d="M3077.52 1988.7 L3082.4 1988.7 L3082.4 1992.68 L3078.6 2000.09 L3075.62 2000.09 L3077.52 1992.68 L3077.52 1988.7 Z" fill="#000000" fill-rule="nonzero" fill-opacity="1" /><path clip-path="url(#clip520)" d="M3126.75 1973.63 Q3128.35 1970.76 3130.57 1969.4 Q3132.79 1968.03 3135.8 1968.03 Q3139.85 1968.03 3142.05 1970.88 Q3144.25 1973.7 3144.25 1978.93 L3144.25 1994.58 L3139.97 1994.58 L3139.97 1979.07 Q3139.97 1975.35 3138.65 1973.54 Q3137.33 1971.73 3134.62 1971.73 Q3131.31 1971.73 3129.39 1973.93 Q3127.47 1976.13 3127.47 1979.93 L3127.47 1994.58 L3123.19 1994.58 L3123.19 1979.07 Q3123.19 1975.32 3121.87 1973.54 Q3120.55 1971.73 3117.79 1971.73 Q3114.53 1971.73 3112.61 1973.96 Q3110.69 1976.16 3110.69 1979.93 L3110.69 1994.58 L3106.4 1994.58 L3106.4 1968.66 L3110.69 1968.66 L3110.69 1972.68 Q3112.14 1970.3 3114.18 1969.17 Q3116.22 1968.03 3119.02 1968.03 Q3121.84 1968.03 3123.81 1969.47 Q3125.8 1970.9 3126.75 1973.63 Z" fill="#000000" fill-rule="nonzero" fill-opacity="1" /><path clip-path="url(#clip520)" d="M3164.53 1981.55 Q3159.37 1981.55 3157.38 1982.73 Q3155.39 1983.91 3155.39 1986.76 Q3155.39 1989.03 3156.87 1990.37 Q3158.37 1991.69 3160.94 1991.69 Q3164.48 1991.69 3166.61 1989.19 Q3168.76 1986.67 3168.76 1982.5 L3168.76 1981.55 L3164.53 1981.55 M3173.02 1979.79 L3173.02 1994.58 L3168.76 1994.58 L3168.76 1990.65 Q3167.31 1993.01 3165.13 1994.14 Q3162.95 1995.25 3159.81 1995.25 Q3155.82 1995.25 3153.46 1993.03 Q3151.13 1990.79 3151.13 1987.04 Q3151.13 1982.66 3154.04 1980.44 Q3156.98 1978.22 3162.79 1978.22 L3168.76 1978.22 L3168.76 1977.8 Q3168.76 1974.86 3166.82 1973.26 Q3164.9 1971.64 3161.4 1971.64 Q3159.18 1971.64 3157.07 1972.17 Q3154.97 1972.71 3153.02 1973.77 L3153.02 1969.84 Q3155.36 1968.93 3157.56 1968.49 Q3159.76 1968.03 3161.84 1968.03 Q3167.47 1968.03 3170.25 1970.95 Q3173.02 1973.86 3173.02 1979.79 Z" fill="#000000" fill-rule="nonzero" fill-opacity="1" /><path clip-path="url(#clip520)" d="M3198.86 1972.59 L3198.86 1958.56 L3203.12 1958.56 L3203.12 1994.58 L3198.86 1994.58 L3198.86 1990.69 Q3197.51 1993.01 3195.45 1994.14 Q3193.42 1995.25 3190.55 1995.25 Q3185.85 1995.25 3182.88 1991.5 Q3179.95 1987.75 3179.95 1981.64 Q3179.95 1975.53 3182.88 1971.78 Q3185.85 1968.03 3190.55 1968.03 Q3193.42 1968.03 3195.45 1969.17 Q3197.51 1970.28 3198.86 1972.59 M3184.34 1981.64 Q3184.34 1986.34 3186.26 1989.03 Q3188.21 1991.69 3191.59 1991.69 Q3194.97 1991.69 3196.91 1989.03 Q3198.86 1986.34 3198.86 1981.64 Q3198.86 1976.94 3196.91 1974.28 Q3194.97 1971.6 3191.59 1971.6 Q3188.21 1971.6 3186.26 1974.28 Q3184.34 1976.94 3184.34 1981.64 Z" fill="#000000" fill-rule="nonzero" fill-opacity="1" /><path clip-path="url(#clip520)" d="M3233.44 1978.93 L3233.44 1994.58 L3229.18 1994.58 L3229.18 1979.07 Q3229.18 1975.39 3227.75 1973.56 Q3226.31 1971.73 3223.44 1971.73 Q3219.99 1971.73 3218 1973.93 Q3216.01 1976.13 3216.01 1979.93 L3216.01 1994.58 L3211.73 1994.58 L3211.73 1968.66 L3216.01 1968.66 L3216.01 1972.68 Q3217.54 1970.35 3219.6 1969.19 Q3221.68 1968.03 3224.39 1968.03 Q3228.86 1968.03 3231.15 1970.81 Q3233.44 1973.56 3233.44 1978.93 Z" fill="#000000" fill-rule="nonzero" fill-opacity="1" /><path clip-path="url(#clip520)" d="M3241.94 1958.56 L3246.19 1958.56 L3246.19 1994.58 L3241.94 1994.58 L3241.94 1958.56 Z" fill="#000000" fill-rule="nonzero" fill-opacity="1" /><path clip-path="url(#clip520)" d="M3259.23 1990.69 L3259.23 2004.44 L3254.94 2004.44 L3254.94 1968.66 L3259.23 1968.66 L3259.23 1972.59 Q3260.57 1970.28 3262.61 1969.17 Q3264.67 1968.03 3267.51 1968.03 Q3272.24 1968.03 3275.18 1971.78 Q3278.14 1975.53 3278.14 1981.64 Q3278.14 1987.75 3275.18 1991.5 Q3272.24 1995.25 3267.51 1995.25 Q3264.67 1995.25 3262.61 1994.14 Q3260.57 1993.01 3259.23 1990.69 M3273.72 1981.64 Q3273.72 1976.94 3271.77 1974.28 Q3269.85 1971.6 3266.47 1971.6 Q3263.09 1971.6 3261.15 1974.28 Q3259.23 1976.94 3259.23 1981.64 Q3259.23 1986.34 3261.15 1989.03 Q3263.09 1991.69 3266.47 1991.69 Q3269.85 1991.69 3271.77 1989.03 Q3273.72 1986.34 3273.72 1981.64 Z" fill="#000000" fill-rule="nonzero" fill-opacity="1" /><path clip-path="url(#clip520)" d="M3284.53 1958.61 L3288.23 1958.61 Q3291.7 1964.07 3293.42 1969.3 Q3295.15 1974.54 3295.15 1979.7 Q3295.15 1984.88 3293.42 1990.14 Q3291.7 1995.39 3288.23 2000.83 L3284.53 2000.83 Q3287.61 1995.53 3289.11 1990.3 Q3290.64 1985.04 3290.64 1979.7 Q3290.64 1974.35 3289.11 1969.14 Q3287.61 1963.93 3284.53 1958.61 Z" fill="#000000" fill-rule="nonzero" fill-opacity="1" /><polyline clip-path="url(#clip520)" style="stroke:#00ffff; stroke-linecap:round; stroke-linejoin:round; stroke-width:6; stroke-opacity:1; fill:none" points="2720.68,2029.14 2936.18,2029.14 "/>
<path clip-path="url(#clip520)" d="M2828.43 2054.74 L2806.26 2041.94 L2806.26 2016.34 L2828.43 2003.54 L2850.6 2016.34 L2850.6 2041.94 Z" fill="#00ffff" fill-rule="evenodd" fill-opacity="1" stroke="none"/>
<path clip-path="url(#clip520)" d="M2982.72 2010.45 Q2979.62 2015.77 2978.12 2020.98 Q2976.61 2026.19 2976.61 2031.54 Q2976.61 2036.88 2978.12 2042.14 Q2979.65 2047.37 2982.72 2052.67 L2979.02 2052.67 Q2975.55 2047.23 2973.81 2041.98 Q2972.1 2036.72 2972.1 2031.54 Q2972.1 2026.38 2973.81 2021.14 Q2975.52 2015.91 2979.02 2010.45 L2982.72 2010.45 Z" fill="#000000" fill-rule="nonzero" fill-opacity="1" /><path clip-path="url(#clip520)" d="M3013.16 2032.39 L3013.16 2034.48 L2993.58 2034.48 Q2993.86 2038.88 2996.22 2041.19 Q2998.6 2043.48 3002.84 2043.48 Q3005.29 2043.48 3007.58 2042.88 Q3009.9 2042.28 3012.17 2041.07 L3012.17 2045.1 Q3009.88 2046.07 3007.47 2046.58 Q3005.06 2047.09 3002.58 2047.09 Q2996.38 2047.09 2992.75 2043.48 Q2989.14 2039.87 2989.14 2033.71 Q2989.14 2027.35 2992.56 2023.62 Q2996.01 2019.87 3001.84 2019.87 Q3007.08 2019.87 3010.11 2023.25 Q3013.16 2026.61 3013.16 2032.39 M3008.9 2031.14 Q3008.86 2027.65 3006.94 2025.57 Q3005.04 2023.48 3001.89 2023.48 Q2998.33 2023.48 2996.17 2025.5 Q2994.04 2027.51 2993.72 2031.17 L3008.9 2031.14 Z" fill="#000000" fill-rule="nonzero" fill-opacity="1" /><path clip-path="url(#clip520)" d="M3040.87 2020.5 L3031.5 2033.11 L3041.36 2046.42 L3036.33 2046.42 L3028.79 2036.24 L3021.24 2046.42 L3016.22 2046.42 L3026.29 2032.86 L3017.08 2020.5 L3022.1 2020.5 L3028.97 2029.73 L3035.85 2020.5 L3040.87 2020.5 Z" fill="#000000" fill-rule="nonzero" fill-opacity="1" /><path clip-path="url(#clip520)" d="M3059.16 2033.39 Q3054 2033.39 3052.01 2034.57 Q3050.02 2035.75 3050.02 2038.6 Q3050.02 2040.87 3051.5 2042.21 Q3053 2043.53 3055.57 2043.53 Q3059.11 2043.53 3061.24 2041.03 Q3063.39 2038.51 3063.39 2034.34 L3063.39 2033.39 L3059.16 2033.39 M3067.65 2031.63 L3067.65 2046.42 L3063.39 2046.42 L3063.39 2042.49 Q3061.94 2044.85 3059.76 2045.98 Q3057.58 2047.09 3054.44 2047.09 Q3050.46 2047.09 3048.09 2044.87 Q3045.76 2042.63 3045.76 2038.88 Q3045.76 2034.5 3048.67 2032.28 Q3051.61 2030.06 3057.42 2030.06 L3063.39 2030.06 L3063.39 2029.64 Q3063.39 2026.7 3061.45 2025.1 Q3059.53 2023.48 3056.03 2023.48 Q3053.81 2023.48 3051.71 2024.01 Q3049.6 2024.55 3047.65 2025.61 L3047.65 2021.68 Q3049.99 2020.77 3052.19 2020.33 Q3054.39 2019.87 3056.47 2019.87 Q3062.1 2019.87 3064.88 2022.79 Q3067.65 2025.7 3067.65 2031.63 Z" fill="#000000" fill-rule="nonzero" fill-opacity="1" /><path clip-path="url(#clip520)" d="M3096.13 2054.29 L3096.13 2057.6 L3071.5 2057.6 L3071.5 2054.29 L3096.13 2054.29 Z" fill="#000000" fill-rule="nonzero" fill-opacity="1" /><path clip-path="url(#clip520)" d="M3117.19 2033.16 Q3117.19 2028.53 3115.27 2025.98 Q3113.37 2023.44 3109.92 2023.44 Q3106.5 2023.44 3104.58 2025.98 Q3102.68 2028.53 3102.68 2033.16 Q3102.68 2037.76 3104.58 2040.31 Q3106.5 2042.86 3109.92 2042.86 Q3113.37 2042.86 3115.27 2040.31 Q3117.19 2037.76 3117.19 2033.16 M3121.45 2043.2 Q3121.45 2049.82 3118.51 2053.04 Q3115.57 2056.28 3109.51 2056.28 Q3107.26 2056.28 3105.27 2055.94 Q3103.28 2055.61 3101.4 2054.92 L3101.4 2050.77 Q3103.28 2051.79 3105.11 2052.28 Q3106.94 2052.76 3108.83 2052.76 Q3113.02 2052.76 3115.11 2050.57 Q3117.19 2048.39 3117.19 2043.97 L3117.19 2041.86 Q3115.87 2044.15 3113.81 2045.29 Q3111.75 2046.42 3108.88 2046.42 Q3104.11 2046.42 3101.2 2042.79 Q3098.28 2039.15 3098.28 2033.16 Q3098.28 2027.14 3101.2 2023.51 Q3104.11 2019.87 3108.88 2019.87 Q3111.75 2019.87 3113.81 2021.01 Q3115.87 2022.14 3117.19 2024.43 L3117.19 2020.5 L3121.45 2020.5 L3121.45 2043.2 Z" fill="#000000" fill-rule="nonzero" fill-opacity="1" /><path clip-path="url(#clip520)" d="M3134.34 2042.53 L3134.34 2056.28 L3130.06 2056.28 L3130.06 2020.5 L3134.34 2020.5 L3134.34 2024.43 Q3135.69 2022.12 3137.72 2021.01 Q3139.78 2019.87 3142.63 2019.87 Q3147.35 2019.87 3150.29 2023.62 Q3153.26 2027.37 3153.26 2033.48 Q3153.26 2039.59 3150.29 2043.34 Q3147.35 2047.09 3142.63 2047.09 Q3139.78 2047.09 3137.72 2045.98 Q3135.69 2044.85 3134.34 2042.53 M3148.83 2033.48 Q3148.83 2028.78 3146.89 2026.12 Q3144.97 2023.44 3141.59 2023.44 Q3138.21 2023.44 3136.26 2026.12 Q3134.34 2028.78 3134.34 2033.48 Q3134.34 2038.18 3136.26 2040.87 Q3138.21 2043.53 3141.59 2043.53 Q3144.97 2043.53 3146.89 2040.87 Q3148.83 2038.18 3148.83 2033.48 Z" fill="#000000" fill-rule="nonzero" fill-opacity="1" /><path clip-path="url(#clip520)" d="M3159.88 2036.19 L3159.88 2020.5 L3164.13 2020.5 L3164.13 2036.03 Q3164.13 2039.71 3165.57 2041.56 Q3167.01 2043.39 3169.88 2043.39 Q3173.32 2043.39 3175.32 2041.19 Q3177.33 2038.99 3177.33 2035.2 L3177.33 2020.5 L3181.59 2020.5 L3181.59 2046.42 L3177.33 2046.42 L3177.33 2042.44 Q3175.78 2044.8 3173.72 2045.96 Q3171.68 2047.09 3168.97 2047.09 Q3164.51 2047.09 3162.19 2044.32 Q3159.88 2041.54 3159.88 2036.19 M3170.59 2019.87 L3170.59 2019.87 Z" fill="#000000" fill-rule="nonzero" fill-opacity="1" /><path clip-path="url(#clip520)" d="M3191.45 2040.54 L3196.33 2040.54 L3196.33 2044.52 L3192.54 2051.93 L3189.55 2051.93 L3191.45 2044.52 L3191.45 2040.54 Z" fill="#000000" fill-rule="nonzero" fill-opacity="1" /><path clip-path="url(#clip520)" d="M3240.69 2025.47 Q3242.28 2022.6 3244.5 2021.24 Q3246.73 2019.87 3249.74 2019.87 Q3253.79 2019.87 3255.99 2022.72 Q3258.19 2025.54 3258.19 2030.77 L3258.19 2046.42 L3253.9 2046.42 L3253.9 2030.91 Q3253.9 2027.19 3252.58 2025.38 Q3251.26 2023.57 3248.56 2023.57 Q3245.25 2023.57 3243.32 2025.77 Q3241.4 2027.97 3241.4 2031.77 L3241.4 2046.42 L3237.12 2046.42 L3237.12 2030.91 Q3237.12 2027.16 3235.8 2025.38 Q3234.48 2023.57 3231.73 2023.57 Q3228.46 2023.57 3226.54 2025.8 Q3224.62 2028 3224.62 2031.77 L3224.62 2046.42 L3220.34 2046.42 L3220.34 2020.5 L3224.62 2020.5 L3224.62 2024.52 Q3226.08 2022.14 3228.12 2021.01 Q3230.15 2019.87 3232.95 2019.87 Q3235.78 2019.87 3237.75 2021.31 Q3239.74 2022.74 3240.69 2025.47 Z" fill="#000000" fill-rule="nonzero" fill-opacity="1" /><path clip-path="url(#clip520)" d="M3278.46 2033.39 Q3273.3 2033.39 3271.31 2034.57 Q3269.32 2035.75 3269.32 2038.6 Q3269.32 2040.87 3270.8 2042.21 Q3272.31 2043.53 3274.88 2043.53 Q3278.42 2043.53 3280.55 2041.03 Q3282.7 2038.51 3282.7 2034.34 L3282.7 2033.39 L3278.46 2033.39 M3286.96 2031.63 L3286.96 2046.42 L3282.7 2046.42 L3282.7 2042.49 Q3281.24 2044.85 3279.06 2045.98 Q3276.89 2047.09 3273.74 2047.09 Q3269.76 2047.09 3267.4 2044.87 Q3265.06 2042.63 3265.06 2038.88 Q3265.06 2034.5 3267.98 2032.28 Q3270.92 2030.06 3276.73 2030.06 L3282.7 2030.06 L3282.7 2029.64 Q3282.7 2026.7 3280.75 2025.1 Q3278.83 2023.48 3275.34 2023.48 Q3273.12 2023.48 3271.01 2024.01 Q3268.9 2024.55 3266.96 2025.61 L3266.96 2021.68 Q3269.3 2020.77 3271.5 2020.33 Q3273.69 2019.87 3275.78 2019.87 Q3281.4 2019.87 3284.18 2022.79 Q3286.96 2025.7 3286.96 2031.63 Z" fill="#000000" fill-rule="nonzero" fill-opacity="1" /><path clip-path="url(#clip520)" d="M3312.79 2024.43 L3312.79 2010.4 L3317.05 2010.4 L3317.05 2046.42 L3312.79 2046.42 L3312.79 2042.53 Q3311.45 2044.85 3309.39 2045.98 Q3307.35 2047.09 3304.48 2047.09 Q3299.78 2047.09 3296.82 2043.34 Q3293.88 2039.59 3293.88 2033.48 Q3293.88 2027.37 3296.82 2023.62 Q3299.78 2019.87 3304.48 2019.87 Q3307.35 2019.87 3309.39 2021.01 Q3311.45 2022.12 3312.79 2024.43 M3298.28 2033.48 Q3298.28 2038.18 3300.2 2040.87 Q3302.14 2043.53 3305.52 2043.53 Q3308.9 2043.53 3310.85 2040.87 Q3312.79 2038.18 3312.79 2033.48 Q3312.79 2028.78 3310.85 2026.12 Q3308.9 2023.44 3305.52 2023.44 Q3302.14 2023.44 3300.2 2026.12 Q3298.28 2028.78 3298.28 2033.48 Z" fill="#000000" fill-rule="nonzero" fill-opacity="1" /><path clip-path="url(#clip520)" d="M3347.37 2030.77 L3347.37 2046.42 L3343.12 2046.42 L3343.12 2030.91 Q3343.12 2027.23 3341.68 2025.4 Q3340.25 2023.57 3337.37 2023.57 Q3333.93 2023.57 3331.94 2025.77 Q3329.94 2027.97 3329.94 2031.77 L3329.94 2046.42 L3325.66 2046.42 L3325.66 2020.5 L3329.94 2020.5 L3329.94 2024.52 Q3331.47 2022.19 3333.53 2021.03 Q3335.62 2019.87 3338.32 2019.87 Q3342.79 2019.87 3345.08 2022.65 Q3347.37 2025.4 3347.37 2030.77 Z" fill="#000000" fill-rule="nonzero" fill-opacity="1" /><path clip-path="url(#clip520)" d="M3355.87 2010.4 L3360.13 2010.4 L3360.13 2046.42 L3355.87 2046.42 L3355.87 2010.4 Z" fill="#000000" fill-rule="nonzero" fill-opacity="1" /><path clip-path="url(#clip520)" d="M3373.16 2042.53 L3373.16 2056.28 L3368.88 2056.28 L3368.88 2020.5 L3373.16 2020.5 L3373.16 2024.43 Q3374.5 2022.12 3376.54 2021.01 Q3378.6 2019.87 3381.45 2019.87 Q3386.17 2019.87 3389.11 2023.62 Q3392.07 2027.37 3392.07 2033.48 Q3392.07 2039.59 3389.11 2043.34 Q3386.17 2047.09 3381.45 2047.09 Q3378.6 2047.09 3376.54 2045.98 Q3374.5 2044.85 3373.16 2042.53 M3387.65 2033.48 Q3387.65 2028.78 3385.71 2026.12 Q3383.79 2023.44 3380.41 2023.44 Q3377.03 2023.44 3375.08 2026.12 Q3373.16 2028.78 3373.16 2033.48 Q3373.16 2038.18 3375.08 2040.87 Q3377.03 2043.53 3380.41 2043.53 Q3383.79 2043.53 3385.71 2040.87 Q3387.65 2038.18 3387.65 2033.48 Z" fill="#000000" fill-rule="nonzero" fill-opacity="1" /><path clip-path="url(#clip520)" d="M3398.46 2010.45 L3402.17 2010.45 Q3405.64 2015.91 3407.35 2021.14 Q3409.09 2026.38 3409.09 2031.54 Q3409.09 2036.72 3407.35 2041.98 Q3405.64 2047.23 3402.17 2052.67 L3398.46 2052.67 Q3401.54 2047.37 3403.05 2042.14 Q3404.57 2036.88 3404.57 2031.54 Q3404.57 2026.19 3403.05 2020.98 Q3401.54 2015.77 3398.46 2010.45 Z" fill="#000000" fill-rule="nonzero" fill-opacity="1" /></svg>
