<?xml version="1.0" encoding="utf-8"?>
<svg xmlns="http://www.w3.org/2000/svg" xmlns:xlink="http://www.w3.org/1999/xlink" width="900" height="600" viewBox="0 0 3600 2400">
<defs>
  <clipPath id="clip880">
    <rect x="0" y="0" width="3600" height="2400"/>
  </clipPath>
</defs>
<path clip-path="url(#clip880)" d="M0 2400 L3600 2400 L3600 0 L0 0  Z" fill="#ffffff" fill-rule="evenodd" fill-opacity="1"/>
<defs>
  <clipPath id="clip881">
    <rect x="720" y="0" width="2521" height="2400"/>
  </clipPath>
</defs>
<path clip-path="url(#clip880)" d="M275.793 2156.51 L3552.76 2156.51 L3552.76 246.944 L275.793 246.944  Z" fill="#ffffff" fill-rule="evenodd" fill-opacity="1"/>
<defs>
  <clipPath id="clip882">
    <rect x="275" y="246" width="3278" height="1911"/>
  </clipPath>
</defs>
<polyline clip-path="url(#clip882)" style="stroke:#000000; stroke-linecap:round; stroke-linejoin:round; stroke-width:2; stroke-opacity:0.1; fill:none" points="424.746,2156.51 424.746,246.944 "/>
<polyline clip-path="url(#clip882)" style="stroke:#000000; stroke-linecap:round; stroke-linejoin:round; stroke-width:2; stroke-opacity:0.1; fill:none" points="921.255,2156.51 921.255,246.944 "/>
<polyline clip-path="url(#clip882)" style="stroke:#000000; stroke-linecap:round; stroke-linejoin:round; stroke-width:2; stroke-opacity:0.1; fill:none" points="1748.77,2156.51 1748.77,246.944 "/>
<polyline clip-path="url(#clip882)" style="stroke:#000000; stroke-linecap:round; stroke-linejoin:round; stroke-width:2; stroke-opacity:0.1; fill:none" points="3403.8,2156.51 3403.8,246.944 "/>
<polyline clip-path="url(#clip882)" style="stroke:#000000; stroke-linecap:round; stroke-linejoin:round; stroke-width:2; stroke-opacity:0.1; fill:none" points="275.793,2134.62 3552.76,2134.62 "/>
<polyline clip-path="url(#clip882)" style="stroke:#000000; stroke-linecap:round; stroke-linejoin:round; stroke-width:2; stroke-opacity:0.1; fill:none" points="275.793,1768.68 3552.76,1768.68 "/>
<polyline clip-path="url(#clip882)" style="stroke:#000000; stroke-linecap:round; stroke-linejoin:round; stroke-width:2; stroke-opacity:0.1; fill:none" points="275.793,1402.75 3552.76,1402.75 "/>
<polyline clip-path="url(#clip882)" style="stroke:#000000; stroke-linecap:round; stroke-linejoin:round; stroke-width:2; stroke-opacity:0.1; fill:none" points="275.793,1036.81 3552.76,1036.81 "/>
<polyline clip-path="url(#clip882)" style="stroke:#000000; stroke-linecap:round; stroke-linejoin:round; stroke-width:2; stroke-opacity:0.1; fill:none" points="275.793,670.877 3552.76,670.877 "/>
<polyline clip-path="url(#clip882)" style="stroke:#000000; stroke-linecap:round; stroke-linejoin:round; stroke-width:2; stroke-opacity:0.1; fill:none" points="275.793,304.942 3552.76,304.942 "/>
<polyline clip-path="url(#clip880)" style="stroke:#000000; stroke-linecap:round; stroke-linejoin:round; stroke-width:4; stroke-opacity:1; fill:none" points="275.793,2156.51 3552.76,2156.51 "/>
<polyline clip-path="url(#clip880)" style="stroke:#000000; stroke-linecap:round; stroke-linejoin:round; stroke-width:4; stroke-opacity:1; fill:none" points="424.746,2156.51 424.746,2137.61 "/>
<polyline clip-path="url(#clip880)" style="stroke:#000000; stroke-linecap:round; stroke-linejoin:round; stroke-width:4; stroke-opacity:1; fill:none" points="921.255,2156.51 921.255,2137.61 "/>
<polyline clip-path="url(#clip880)" style="stroke:#000000; stroke-linecap:round; stroke-linejoin:round; stroke-width:4; stroke-opacity:1; fill:none" points="1748.77,2156.51 1748.77,2137.61 "/>
<polyline clip-path="url(#clip880)" style="stroke:#000000; stroke-linecap:round; stroke-linejoin:round; stroke-width:4; stroke-opacity:1; fill:none" points="3403.8,2156.51 3403.8,2137.61 "/>
<path clip-path="url(#clip880)" d="M388.438 2224.57 L404.758 2224.57 L404.758 2228.51 L382.813 2228.51 L382.813 2224.57 Q385.475 2221.82 390.059 2217.19 Q394.665 2212.54 395.846 2211.19 Q398.091 2208.67 398.971 2206.93 Q399.873 2205.17 399.873 2203.48 Q399.873 2200.73 397.929 2198.99 Q396.008 2197.26 392.906 2197.26 Q390.707 2197.26 388.253 2198.02 Q385.823 2198.79 383.045 2200.34 L383.045 2195.61 Q385.869 2194.48 388.323 2193.9 Q390.776 2193.32 392.813 2193.32 Q398.184 2193.32 401.378 2196.01 Q404.572 2198.69 404.572 2203.18 Q404.572 2205.31 403.762 2207.23 Q402.975 2209.13 400.869 2211.73 Q400.29 2212.4 397.188 2215.61 Q394.086 2218.81 388.438 2224.57 Z" fill="#000000" fill-rule="nonzero" fill-opacity="1" /><path clip-path="url(#clip880)" d="M424.572 2197.03 Q420.961 2197.03 419.133 2200.59 Q417.327 2204.13 417.327 2211.26 Q417.327 2218.37 419.133 2221.93 Q420.961 2225.48 424.572 2225.48 Q428.207 2225.48 430.012 2221.93 Q431.841 2218.37 431.841 2211.26 Q431.841 2204.13 430.012 2200.59 Q428.207 2197.03 424.572 2197.03 M424.572 2193.32 Q430.382 2193.32 433.438 2197.93 Q436.517 2202.51 436.517 2211.26 Q436.517 2219.99 433.438 2224.6 Q430.382 2229.18 424.572 2229.18 Q418.762 2229.18 415.684 2224.6 Q412.628 2219.99 412.628 2211.26 Q412.628 2202.51 415.684 2197.93 Q418.762 2193.32 424.572 2193.32 Z" fill="#000000" fill-rule="nonzero" fill-opacity="1" /><path clip-path="url(#clip880)" d="M454.734 2197.03 Q451.123 2197.03 449.294 2200.59 Q447.489 2204.13 447.489 2211.26 Q447.489 2218.37 449.294 2221.93 Q451.123 2225.48 454.734 2225.48 Q458.368 2225.48 460.174 2221.93 Q462.003 2218.37 462.003 2211.26 Q462.003 2204.13 460.174 2200.59 Q458.368 2197.03 454.734 2197.03 M454.734 2193.32 Q460.544 2193.32 463.6 2197.93 Q466.679 2202.51 466.679 2211.26 Q466.679 2219.99 463.6 2224.6 Q460.544 2229.18 454.734 2229.18 Q448.924 2229.18 445.845 2224.6 Q442.79 2219.99 442.79 2211.26 Q442.79 2202.51 445.845 2197.93 Q448.924 2193.32 454.734 2193.32 Z" fill="#000000" fill-rule="nonzero" fill-opacity="1" /><path clip-path="url(#clip880)" d="M880.874 2193.95 L899.23 2193.95 L899.23 2197.88 L885.156 2197.88 L885.156 2206.36 Q886.175 2206.01 887.193 2205.85 Q888.212 2205.66 889.23 2205.66 Q895.017 2205.66 898.397 2208.83 Q901.776 2212 901.776 2217.42 Q901.776 2223 898.304 2226.1 Q894.832 2229.18 888.513 2229.18 Q886.337 2229.18 884.068 2228.81 Q881.823 2228.44 879.415 2227.7 L879.415 2223 Q881.499 2224.13 883.721 2224.69 Q885.943 2225.24 888.42 2225.24 Q892.425 2225.24 894.763 2223.14 Q897.101 2221.03 897.101 2217.42 Q897.101 2213.81 894.763 2211.7 Q892.425 2209.6 888.42 2209.6 Q886.545 2209.6 884.67 2210.01 Q882.818 2210.43 880.874 2211.31 L880.874 2193.95 Z" fill="#000000" fill-rule="nonzero" fill-opacity="1" /><path clip-path="url(#clip880)" d="M920.989 2197.03 Q917.378 2197.03 915.549 2200.59 Q913.744 2204.13 913.744 2211.26 Q913.744 2218.37 915.549 2221.93 Q917.378 2225.48 920.989 2225.48 Q924.624 2225.48 926.429 2221.93 Q928.258 2218.37 928.258 2211.26 Q928.258 2204.13 926.429 2200.59 Q924.624 2197.03 920.989 2197.03 M920.989 2193.32 Q926.799 2193.32 929.855 2197.93 Q932.934 2202.51 932.934 2211.26 Q932.934 2219.99 929.855 2224.6 Q926.799 2229.18 920.989 2229.18 Q915.179 2229.18 912.1 2224.6 Q909.045 2219.99 909.045 2211.26 Q909.045 2202.51 912.1 2197.93 Q915.179 2193.32 920.989 2193.32 Z" fill="#000000" fill-rule="nonzero" fill-opacity="1" /><path clip-path="url(#clip880)" d="M951.151 2197.03 Q947.54 2197.03 945.711 2200.59 Q943.906 2204.13 943.906 2211.26 Q943.906 2218.37 945.711 2221.93 Q947.54 2225.48 951.151 2225.48 Q954.785 2225.48 956.591 2221.93 Q958.42 2218.37 958.42 2211.26 Q958.42 2204.13 956.591 2200.59 Q954.785 2197.03 951.151 2197.03 M951.151 2193.32 Q956.961 2193.32 960.017 2197.93 Q963.096 2202.51 963.096 2211.26 Q963.096 2219.99 960.017 2224.6 Q956.961 2229.18 951.151 2229.18 Q945.341 2229.18 942.262 2224.6 Q939.207 2219.99 939.207 2211.26 Q939.207 2202.51 942.262 2197.93 Q945.341 2193.32 951.151 2193.32 Z" fill="#000000" fill-rule="nonzero" fill-opacity="1" /><path clip-path="url(#clip880)" d="M1693.3 2224.57 L1700.94 2224.57 L1700.94 2198.21 L1692.63 2199.87 L1692.63 2195.61 L1700.89 2193.95 L1705.57 2193.95 L1705.57 2224.57 L1713.2 2224.57 L1713.2 2228.51 L1693.3 2228.51 L1693.3 2224.57 Z" fill="#000000" fill-rule="nonzero" fill-opacity="1" /><path clip-path="url(#clip880)" d="M1732.65 2197.03 Q1729.04 2197.03 1727.21 2200.59 Q1725.4 2204.13 1725.4 2211.26 Q1725.4 2218.37 1727.21 2221.93 Q1729.04 2225.48 1732.65 2225.48 Q1736.28 2225.48 1738.09 2221.93 Q1739.92 2218.37 1739.92 2211.26 Q1739.92 2204.13 1738.09 2200.59 Q1736.28 2197.03 1732.65 2197.03 M1732.65 2193.32 Q1738.46 2193.32 1741.51 2197.93 Q1744.59 2202.51 1744.59 2211.26 Q1744.59 2219.99 1741.51 2224.6 Q1738.46 2229.18 1732.65 2229.18 Q1726.84 2229.18 1723.76 2224.6 Q1720.7 2219.99 1720.7 2211.26 Q1720.7 2202.51 1723.76 2197.93 Q1726.84 2193.32 1732.65 2193.32 Z" fill="#000000" fill-rule="nonzero" fill-opacity="1" /><path clip-path="url(#clip880)" d="M1762.81 2197.03 Q1759.2 2197.03 1757.37 2200.59 Q1755.57 2204.13 1755.57 2211.26 Q1755.57 2218.37 1757.37 2221.93 Q1759.2 2225.48 1762.81 2225.48 Q1766.44 2225.48 1768.25 2221.93 Q1770.08 2218.37 1770.08 2211.26 Q1770.08 2204.13 1768.25 2200.59 Q1766.44 2197.03 1762.81 2197.03 M1762.81 2193.32 Q1768.62 2193.32 1771.68 2197.93 Q1774.75 2202.51 1774.75 2211.26 Q1774.75 2219.99 1771.68 2224.6 Q1768.62 2229.18 1762.81 2229.18 Q1757 2229.18 1753.92 2224.6 Q1750.87 2219.99 1750.87 2211.26 Q1750.87 2202.51 1753.92 2197.93 Q1757 2193.32 1762.81 2193.32 Z" fill="#000000" fill-rule="nonzero" fill-opacity="1" /><path clip-path="url(#clip880)" d="M1792.97 2197.03 Q1789.36 2197.03 1787.53 2200.59 Q1785.73 2204.13 1785.73 2211.26 Q1785.73 2218.37 1787.53 2221.93 Q1789.36 2225.48 1792.97 2225.48 Q1796.61 2225.48 1798.41 2221.93 Q1800.24 2218.37 1800.24 2211.26 Q1800.24 2204.13 1798.41 2200.59 Q1796.61 2197.03 1792.97 2197.03 M1792.97 2193.32 Q1798.78 2193.32 1801.84 2197.93 Q1804.92 2202.51 1804.92 2211.26 Q1804.92 2219.99 1801.84 2224.6 Q1798.78 2229.18 1792.97 2229.18 Q1787.16 2229.18 1784.08 2224.6 Q1781.03 2219.99 1781.03 2211.26 Q1781.03 2202.51 1784.08 2197.93 Q1787.16 2193.32 1792.97 2193.32 Z" fill="#000000" fill-rule="nonzero" fill-opacity="1" /><path clip-path="url(#clip880)" d="M3352.41 2224.57 L3368.73 2224.57 L3368.73 2228.51 L3346.79 2228.51 L3346.79 2224.57 Q3349.45 2221.82 3354.03 2217.19 Q3358.64 2212.54 3359.82 2211.19 Q3362.07 2208.67 3362.95 2206.93 Q3363.85 2205.17 3363.85 2203.48 Q3363.85 2200.73 3361.91 2198.99 Q3359.98 2197.26 3356.88 2197.26 Q3354.68 2197.26 3352.23 2198.02 Q3349.8 2198.79 3347.02 2200.34 L3347.02 2195.61 Q3349.85 2194.48 3352.3 2193.9 Q3354.75 2193.32 3356.79 2193.32 Q3362.16 2193.32 3365.35 2196.01 Q3368.55 2198.69 3368.55 2203.18 Q3368.55 2205.31 3367.74 2207.23 Q3366.95 2209.13 3364.84 2211.73 Q3364.27 2212.4 3361.16 2215.61 Q3358.06 2218.81 3352.41 2224.57 Z" fill="#000000" fill-rule="nonzero" fill-opacity="1" /><path clip-path="url(#clip880)" d="M3388.55 2197.03 Q3384.94 2197.03 3383.11 2200.59 Q3381.3 2204.13 3381.3 2211.26 Q3381.3 2218.37 3383.11 2221.93 Q3384.94 2225.48 3388.55 2225.48 Q3392.18 2225.48 3393.99 2221.93 Q3395.82 2218.37 3395.82 2211.26 Q3395.82 2204.13 3393.99 2200.59 Q3392.18 2197.03 3388.55 2197.03 M3388.55 2193.32 Q3394.36 2193.32 3397.41 2197.93 Q3400.49 2202.51 3400.49 2211.26 Q3400.49 2219.99 3397.41 2224.6 Q3394.36 2229.18 3388.55 2229.18 Q3382.74 2229.18 3379.66 2224.6 Q3376.6 2219.99 3376.6 2211.26 Q3376.6 2202.51 3379.66 2197.93 Q3382.74 2193.32 3388.55 2193.32 Z" fill="#000000" fill-rule="nonzero" fill-opacity="1" /><path clip-path="url(#clip880)" d="M3418.71 2197.03 Q3415.1 2197.03 3413.27 2200.59 Q3411.47 2204.13 3411.47 2211.26 Q3411.47 2218.37 3413.27 2221.93 Q3415.1 2225.48 3418.71 2225.48 Q3422.34 2225.48 3424.15 2221.93 Q3425.98 2218.37 3425.98 2211.26 Q3425.98 2204.13 3424.15 2200.59 Q3422.34 2197.03 3418.71 2197.03 M3418.71 2193.32 Q3424.52 2193.32 3427.58 2197.93 Q3430.65 2202.51 3430.65 2211.26 Q3430.65 2219.99 3427.58 2224.6 Q3424.52 2229.18 3418.71 2229.18 Q3412.9 2229.18 3409.82 2224.6 Q3406.77 2219.99 3406.77 2211.26 Q3406.77 2202.51 3409.82 2197.93 Q3412.9 2193.32 3418.71 2193.32 Z" fill="#000000" fill-rule="nonzero" fill-opacity="1" /><path clip-path="url(#clip880)" d="M3448.87 2197.03 Q3445.26 2197.03 3443.43 2200.59 Q3441.63 2204.13 3441.63 2211.26 Q3441.63 2218.37 3443.43 2221.93 Q3445.26 2225.48 3448.87 2225.48 Q3452.51 2225.48 3454.31 2221.93 Q3456.14 2218.37 3456.14 2211.26 Q3456.14 2204.13 3454.31 2200.59 Q3452.51 2197.03 3448.87 2197.03 M3448.87 2193.32 Q3454.68 2193.32 3457.74 2197.93 Q3460.82 2202.51 3460.82 2211.26 Q3460.82 2219.99 3457.74 2224.6 Q3454.68 2229.18 3448.87 2229.18 Q3443.06 2229.18 3439.98 2224.6 Q3436.93 2219.99 3436.93 2211.26 Q3436.93 2202.51 3439.98 2197.93 Q3443.06 2193.32 3448.87 2193.32 Z" fill="#000000" fill-rule="nonzero" fill-opacity="1" /><path clip-path="url(#clip880)" d="M1790.16 2308.02 L1790.16 2296.42 L1780.61 2296.42 L1780.61 2291.62 L1795.94 2291.62 L1795.94 2310.17 Q1792.56 2312.57 1788.48 2313.81 Q1784.4 2315.03 1779.77 2315.03 Q1769.64 2315.03 1763.91 2309.12 Q1758.21 2303.19 1758.21 2292.63 Q1758.21 2282.04 1763.91 2276.14 Q1769.64 2270.21 1779.77 2270.21 Q1783.99 2270.21 1787.79 2271.25 Q1791.6 2272.29 1794.82 2274.32 L1794.82 2280.54 Q1791.58 2277.79 1787.93 2276.4 Q1784.28 2275.01 1780.26 2275.01 Q1772.33 2275.01 1768.34 2279.44 Q1764.38 2283.86 1764.38 2292.63 Q1764.38 2301.37 1768.34 2305.8 Q1772.33 2310.22 1780.26 2310.22 Q1783.36 2310.22 1785.79 2309.7 Q1788.22 2309.15 1790.16 2308.02 Z" fill="#000000" fill-rule="nonzero" fill-opacity="1" /><path clip-path="url(#clip880)" d="M1825.17 2286.76 Q1824.27 2286.24 1823.2 2286 Q1822.16 2285.74 1820.89 2285.74 Q1816.37 2285.74 1813.94 2288.7 Q1811.54 2291.62 1811.54 2297.12 L1811.54 2314.19 L1806.19 2314.19 L1806.19 2281.78 L1811.54 2281.78 L1811.54 2286.82 Q1813.22 2283.86 1815.91 2282.45 Q1818.6 2281 1822.45 2281 Q1823 2281 1823.66 2281.09 Q1824.33 2281.14 1825.14 2281.29 L1825.17 2286.76 Z" fill="#000000" fill-rule="nonzero" fill-opacity="1" /><path clip-path="url(#clip880)" d="M1830.75 2281.78 L1836.08 2281.78 L1836.08 2314.19 L1830.75 2314.19 L1830.75 2281.78 M1830.75 2269.16 L1836.08 2269.16 L1836.08 2275.91 L1830.75 2275.91 L1830.75 2269.16 Z" fill="#000000" fill-rule="nonzero" fill-opacity="1" /><path clip-path="url(#clip880)" d="M1868.54 2286.7 L1868.54 2269.16 L1873.87 2269.16 L1873.87 2314.19 L1868.54 2314.19 L1868.54 2309.33 Q1866.86 2312.22 1864.29 2313.64 Q1861.74 2315.03 1858.16 2315.03 Q1852.28 2315.03 1848.58 2310.34 Q1844.9 2305.65 1844.9 2298.01 Q1844.9 2290.37 1848.58 2285.69 Q1852.28 2281 1858.16 2281 Q1861.74 2281 1864.29 2282.42 Q1866.86 2283.81 1868.54 2286.7 M1850.4 2298.01 Q1850.4 2303.89 1852.8 2307.24 Q1855.23 2310.57 1859.46 2310.57 Q1863.68 2310.57 1866.11 2307.24 Q1868.54 2303.89 1868.54 2298.01 Q1868.54 2292.14 1866.11 2288.81 Q1863.68 2285.46 1859.46 2285.46 Q1855.23 2285.46 1852.8 2288.81 Q1850.4 2292.14 1850.4 2298.01 Z" fill="#000000" fill-rule="nonzero" fill-opacity="1" /><path clip-path="url(#clip880)" d="M1924.33 2282.74 L1924.33 2287.77 Q1922.07 2286.61 1919.64 2286.03 Q1917.21 2285.46 1914.61 2285.46 Q1910.64 2285.46 1908.65 2286.67 Q1906.68 2287.89 1906.68 2290.32 Q1906.68 2292.17 1908.1 2293.24 Q1909.51 2294.28 1913.8 2295.24 L1915.62 2295.64 Q1921.29 2296.86 1923.66 2299.08 Q1926.07 2301.28 1926.07 2305.25 Q1926.07 2309.76 1922.48 2312.39 Q1918.92 2315.03 1912.67 2315.03 Q1910.06 2315.03 1907.23 2314.51 Q1904.42 2314.01 1901.3 2313 L1901.3 2307.5 Q1904.25 2309.04 1907.11 2309.82 Q1909.98 2310.57 1912.78 2310.57 Q1916.55 2310.57 1918.57 2309.3 Q1920.6 2308 1920.6 2305.65 Q1920.6 2303.48 1919.12 2302.32 Q1917.67 2301.17 1912.73 2300.1 L1910.87 2299.66 Q1905.93 2298.62 1903.73 2296.48 Q1901.53 2294.31 1901.53 2290.55 Q1901.53 2285.98 1904.77 2283.49 Q1908.01 2281 1913.97 2281 Q1916.92 2281 1919.53 2281.43 Q1922.13 2281.87 1924.33 2282.74 Z" fill="#000000" fill-rule="nonzero" fill-opacity="1" /><path clip-path="url(#clip880)" d="M1934.54 2281.78 L1939.87 2281.78 L1939.87 2314.19 L1934.54 2314.19 L1934.54 2281.78 M1934.54 2269.16 L1939.87 2269.16 L1939.87 2275.91 L1934.54 2275.91 L1934.54 2269.16 Z" fill="#000000" fill-rule="nonzero" fill-opacity="1" /><path clip-path="url(#clip880)" d="M1948.69 2281.78 L1973.98 2281.78 L1973.98 2286.64 L1953.96 2309.93 L1973.98 2309.93 L1973.98 2314.19 L1947.97 2314.19 L1947.97 2309.33 L1967.99 2286.03 L1948.69 2286.03 L1948.69 2281.78 Z" fill="#000000" fill-rule="nonzero" fill-opacity="1" /><path clip-path="url(#clip880)" d="M2009.83 2296.65 L2009.83 2299.26 L1985.35 2299.26 Q1985.7 2304.75 1988.65 2307.65 Q1991.63 2310.51 1996.93 2310.51 Q1999.99 2310.51 2002.86 2309.76 Q2005.75 2309.01 2008.59 2307.5 L2008.59 2312.54 Q2005.72 2313.75 2002.71 2314.39 Q1999.71 2315.03 1996.61 2315.03 Q1988.85 2315.03 1984.31 2310.51 Q1979.8 2306 1979.8 2298.3 Q1979.8 2290.35 1984.08 2285.69 Q1988.39 2281 1995.68 2281 Q2002.22 2281 2006.01 2285.22 Q2009.83 2289.42 2009.83 2296.65 M2004.51 2295.09 Q2004.45 2290.72 2002.05 2288.12 Q1999.68 2285.51 1995.74 2285.51 Q1991.29 2285.51 1988.59 2288.03 Q1985.93 2290.55 1985.53 2295.12 L2004.51 2295.09 Z" fill="#000000" fill-rule="nonzero" fill-opacity="1" /><path clip-path="url(#clip880)" d="M2037.64 2270.99 L2045.51 2270.99 L2064.66 2307.13 L2064.66 2270.99 L2070.34 2270.99 L2070.34 2314.19 L2062.47 2314.19 L2043.31 2278.05 L2043.31 2314.19 L2037.64 2314.19 L2037.64 2270.99 Z" fill="#000000" fill-rule="nonzero" fill-opacity="1" /><polyline clip-path="url(#clip880)" style="stroke:#000000; stroke-linecap:round; stroke-linejoin:round; stroke-width:4; stroke-opacity:1; fill:none" points="275.793,2156.51 275.793,246.944 "/>
<polyline clip-path="url(#clip880)" style="stroke:#000000; stroke-linecap:round; stroke-linejoin:round; stroke-width:4; stroke-opacity:1; fill:none" points="275.793,2134.62 294.691,2134.62 "/>
<polyline clip-path="url(#clip880)" style="stroke:#000000; stroke-linecap:round; stroke-linejoin:round; stroke-width:4; stroke-opacity:1; fill:none" points="275.793,1768.68 294.691,1768.68 "/>
<polyline clip-path="url(#clip880)" style="stroke:#000000; stroke-linecap:round; stroke-linejoin:round; stroke-width:4; stroke-opacity:1; fill:none" points="275.793,1402.75 294.691,1402.75 "/>
<polyline clip-path="url(#clip880)" style="stroke:#000000; stroke-linecap:round; stroke-linejoin:round; stroke-width:4; stroke-opacity:1; fill:none" points="275.793,1036.81 294.691,1036.81 "/>
<polyline clip-path="url(#clip880)" style="stroke:#000000; stroke-linecap:round; stroke-linejoin:round; stroke-width:4; stroke-opacity:1; fill:none" points="275.793,670.877 294.691,670.877 "/>
<polyline clip-path="url(#clip880)" style="stroke:#000000; stroke-linecap:round; stroke-linejoin:round; stroke-width:4; stroke-opacity:1; fill:none" points="275.793,304.942 294.691,304.942 "/>
<path clip-path="url(#clip880)" d="M209.849 2120.42 Q206.238 2120.42 204.409 2123.98 Q202.603 2127.52 202.603 2134.65 Q202.603 2141.76 204.409 2145.32 Q206.238 2148.87 209.849 2148.87 Q213.483 2148.87 215.289 2145.32 Q217.117 2141.76 217.117 2134.65 Q217.117 2127.52 215.289 2123.98 Q213.483 2120.42 209.849 2120.42 M209.849 2116.71 Q215.659 2116.71 218.714 2121.32 Q221.793 2125.9 221.793 2134.65 Q221.793 2143.38 218.714 2147.99 Q215.659 2152.57 209.849 2152.57 Q204.039 2152.57 200.96 2147.99 Q197.904 2143.38 197.904 2134.65 Q197.904 2125.9 200.96 2121.32 Q204.039 2116.71 209.849 2116.71 Z" fill="#000000" fill-rule="nonzero" fill-opacity="1" /><path clip-path="url(#clip880)" d="M170.497 1782.03 L178.136 1782.03 L178.136 1755.66 L169.826 1757.33 L169.826 1753.07 L178.09 1751.4 L182.766 1751.4 L182.766 1782.03 L190.404 1782.03 L190.404 1785.96 L170.497 1785.96 L170.497 1782.03 Z" fill="#000000" fill-rule="nonzero" fill-opacity="1" /><path clip-path="url(#clip880)" d="M209.849 1754.48 Q206.238 1754.48 204.409 1758.05 Q202.603 1761.59 202.603 1768.72 Q202.603 1775.82 204.409 1779.39 Q206.238 1782.93 209.849 1782.93 Q213.483 1782.93 215.289 1779.39 Q217.117 1775.82 217.117 1768.72 Q217.117 1761.59 215.289 1758.05 Q213.483 1754.48 209.849 1754.48 M209.849 1750.78 Q215.659 1750.78 218.714 1755.38 Q221.793 1759.97 221.793 1768.72 Q221.793 1777.44 218.714 1782.05 Q215.659 1786.63 209.849 1786.63 Q204.039 1786.63 200.96 1782.05 Q197.904 1777.44 197.904 1768.72 Q197.904 1759.97 200.96 1755.38 Q204.039 1750.78 209.849 1750.78 Z" fill="#000000" fill-rule="nonzero" fill-opacity="1" /><path clip-path="url(#clip880)" d="M173.715 1416.09 L190.034 1416.09 L190.034 1420.03 L168.09 1420.03 L168.09 1416.09 Q170.752 1413.34 175.335 1408.71 Q179.941 1404.06 181.122 1402.71 Q183.367 1400.19 184.247 1398.45 Q185.15 1396.69 185.15 1395 Q185.15 1392.25 183.205 1390.51 Q181.284 1388.78 178.182 1388.78 Q175.983 1388.78 173.529 1389.54 Q171.099 1390.31 168.321 1391.86 L168.321 1387.13 Q171.145 1386 173.599 1385.42 Q176.053 1384.84 178.09 1384.84 Q183.46 1384.84 186.654 1387.53 Q189.849 1390.21 189.849 1394.7 Q189.849 1396.83 189.039 1398.75 Q188.252 1400.65 186.145 1403.25 Q185.566 1403.92 182.465 1407.13 Q179.363 1410.33 173.715 1416.09 Z" fill="#000000" fill-rule="nonzero" fill-opacity="1" /><path clip-path="url(#clip880)" d="M209.849 1388.55 Q206.238 1388.55 204.409 1392.11 Q202.603 1395.65 202.603 1402.78 Q202.603 1409.89 204.409 1413.45 Q206.238 1416.99 209.849 1416.99 Q213.483 1416.99 215.289 1413.45 Q217.117 1409.89 217.117 1402.78 Q217.117 1395.65 215.289 1392.11 Q213.483 1388.55 209.849 1388.55 M209.849 1384.84 Q215.659 1384.84 218.714 1389.45 Q221.793 1394.03 221.793 1402.78 Q221.793 1411.51 218.714 1416.12 Q215.659 1420.7 209.849 1420.7 Q204.039 1420.7 200.96 1416.12 Q197.904 1411.51 197.904 1402.78 Q197.904 1394.03 200.96 1389.45 Q204.039 1384.84 209.849 1384.84 Z" fill="#000000" fill-rule="nonzero" fill-opacity="1" /><path clip-path="url(#clip880)" d="M183.853 1035.46 Q187.21 1036.18 189.085 1038.44 Q190.983 1040.71 190.983 1044.05 Q190.983 1049.16 187.465 1051.96 Q183.946 1054.76 177.465 1054.76 Q175.289 1054.76 172.974 1054.32 Q170.682 1053.91 168.229 1053.05 L168.229 1048.54 Q170.173 1049.67 172.488 1050.25 Q174.803 1050.83 177.326 1050.83 Q181.724 1050.83 184.016 1049.09 Q186.33 1047.36 186.33 1044.05 Q186.33 1040.99 184.178 1039.28 Q182.048 1037.54 178.229 1037.54 L174.201 1037.54 L174.201 1033.7 L178.414 1033.7 Q181.863 1033.7 183.691 1032.33 Q185.52 1030.94 185.52 1028.35 Q185.52 1025.69 183.622 1024.28 Q181.747 1022.84 178.229 1022.84 Q176.307 1022.84 174.108 1023.26 Q171.909 1023.68 169.27 1024.56 L169.27 1020.39 Q171.932 1019.65 174.247 1019.28 Q176.585 1018.91 178.645 1018.91 Q183.969 1018.91 187.071 1021.34 Q190.173 1023.75 190.173 1027.87 Q190.173 1030.74 188.529 1032.73 Q186.886 1034.69 183.853 1035.46 Z" fill="#000000" fill-rule="nonzero" fill-opacity="1" /><path clip-path="url(#clip880)" d="M209.849 1022.61 Q206.238 1022.61 204.409 1026.18 Q202.603 1029.72 202.603 1036.85 Q202.603 1043.95 204.409 1047.52 Q206.238 1051.06 209.849 1051.06 Q213.483 1051.06 215.289 1047.52 Q217.117 1043.95 217.117 1036.85 Q217.117 1029.72 215.289 1026.18 Q213.483 1022.61 209.849 1022.61 M209.849 1018.91 Q215.659 1018.91 218.714 1023.51 Q221.793 1028.1 221.793 1036.85 Q221.793 1045.57 218.714 1050.18 Q215.659 1054.76 209.849 1054.76 Q204.039 1054.76 200.96 1050.18 Q197.904 1045.57 197.904 1036.85 Q197.904 1028.1 200.96 1023.51 Q204.039 1018.91 209.849 1018.91 Z" fill="#000000" fill-rule="nonzero" fill-opacity="1" /><path clip-path="url(#clip880)" d="M182.534 657.671 L170.729 676.12 L182.534 676.12 L182.534 657.671 M181.307 653.597 L187.187 653.597 L187.187 676.12 L192.117 676.12 L192.117 680.009 L187.187 680.009 L187.187 688.157 L182.534 688.157 L182.534 680.009 L166.932 680.009 L166.932 675.495 L181.307 653.597 Z" fill="#000000" fill-rule="nonzero" fill-opacity="1" /><path clip-path="url(#clip880)" d="M209.849 656.676 Q206.238 656.676 204.409 660.24 Q202.603 663.782 202.603 670.912 Q202.603 678.018 204.409 681.583 Q206.238 685.125 209.849 685.125 Q213.483 685.125 215.289 681.583 Q217.117 678.018 217.117 670.912 Q217.117 663.782 215.289 660.24 Q213.483 656.676 209.849 656.676 M209.849 652.972 Q215.659 652.972 218.714 657.578 Q221.793 662.162 221.793 670.912 Q221.793 679.638 218.714 684.245 Q215.659 688.828 209.849 688.828 Q204.039 688.828 200.96 684.245 Q197.904 679.638 197.904 670.912 Q197.904 662.162 200.96 657.578 Q204.039 652.972 209.849 652.972 Z" fill="#000000" fill-rule="nonzero" fill-opacity="1" /><path clip-path="url(#clip880)" d="M169.733 287.662 L188.09 287.662 L188.09 291.597 L174.016 291.597 L174.016 300.069 Q175.034 299.722 176.053 299.56 Q177.071 299.375 178.09 299.375 Q183.877 299.375 187.256 302.546 Q190.636 305.717 190.636 311.134 Q190.636 316.713 187.164 319.814 Q183.691 322.893 177.372 322.893 Q175.196 322.893 172.928 322.523 Q170.682 322.152 168.275 321.412 L168.275 316.713 Q170.358 317.847 172.58 318.402 Q174.803 318.958 177.279 318.958 Q181.284 318.958 183.622 316.851 Q185.96 314.745 185.96 311.134 Q185.96 307.523 183.622 305.416 Q181.284 303.31 177.279 303.31 Q175.404 303.31 173.529 303.726 Q171.678 304.143 169.733 305.023 L169.733 287.662 Z" fill="#000000" fill-rule="nonzero" fill-opacity="1" /><path clip-path="url(#clip880)" d="M209.849 290.74 Q206.238 290.74 204.409 294.305 Q202.603 297.847 202.603 304.976 Q202.603 312.083 204.409 315.648 Q206.238 319.189 209.849 319.189 Q213.483 319.189 215.289 315.648 Q217.117 312.083 217.117 304.976 Q217.117 297.847 215.289 294.305 Q213.483 290.74 209.849 290.74 M209.849 287.037 Q215.659 287.037 218.714 291.643 Q221.793 296.227 221.793 304.976 Q221.793 313.703 218.714 318.31 Q215.659 322.893 209.849 322.893 Q204.039 322.893 200.96 318.31 Q197.904 313.703 197.904 304.976 Q197.904 296.227 200.96 291.643 Q204.039 287.037 209.849 287.037 Z" fill="#000000" fill-rule="nonzero" fill-opacity="1" /><path clip-path="url(#clip880)" d="M58.1901 1374.69 L63.8903 1374.69 Q62.2989 1378.01 61.5176 1380.96 Q60.7364 1383.92 60.7364 1386.66 Q60.7364 1391.44 62.5882 1394.04 Q64.4401 1396.62 67.8544 1396.62 Q70.719 1396.62 72.1947 1394.91 Q73.6414 1393.17 74.5384 1388.37 L75.2618 1384.84 Q76.506 1378.3 79.6599 1375.21 Q82.7849 1372.08 88.0511 1372.08 Q94.33 1372.08 97.5707 1376.31 Q100.811 1380.5 100.811 1388.63 Q100.811 1391.7 100.117 1395.17 Q99.4225 1398.61 98.0626 1402.32 L92.0441 1402.32 Q94.0406 1398.76 95.0533 1395.34 Q96.0661 1391.93 96.0661 1388.63 Q96.0661 1383.63 94.0985 1380.91 Q92.1309 1378.19 88.4851 1378.19 Q85.3022 1378.19 83.5083 1380.15 Q81.7143 1382.09 80.8173 1386.55 L80.1229 1390.11 Q78.8208 1396.65 76.043 1399.57 Q73.2653 1402.49 68.3174 1402.49 Q62.5882 1402.49 59.2896 1398.47 Q55.991 1394.42 55.991 1387.33 Q55.991 1384.29 56.5408 1381.14 Q57.0906 1377.98 58.1901 1374.69 Z" fill="#000000" fill-rule="nonzero" fill-opacity="1" /><path clip-path="url(#clip880)" d="M71.2977 1350.64 Q71.2977 1354.92 74.6541 1357.41 Q77.9817 1359.9 83.7976 1359.9 Q89.6135 1359.9 92.97 1357.44 Q96.2975 1354.95 96.2975 1350.64 Q96.2975 1346.39 92.9411 1343.9 Q89.5846 1341.41 83.7976 1341.41 Q78.0395 1341.41 74.6831 1343.9 Q71.2977 1346.39 71.2977 1350.64 M66.7838 1350.64 Q66.7838 1343.7 71.2977 1339.73 Q75.8115 1335.77 83.7976 1335.77 Q91.7547 1335.77 96.2975 1339.73 Q100.811 1343.7 100.811 1350.64 Q100.811 1357.61 96.2975 1361.58 Q91.7547 1365.51 83.7976 1365.51 Q75.8115 1365.51 71.2977 1361.58 Q66.7838 1357.61 66.7838 1350.64 Z" fill="#000000" fill-rule="nonzero" fill-opacity="1" /><path clip-path="url(#clip880)" d="M54.9494 1326.94 L54.9494 1321.62 L99.9723 1321.62 L99.9723 1326.94 L54.9494 1326.94 Z" fill="#000000" fill-rule="nonzero" fill-opacity="1" /><path clip-path="url(#clip880)" d="M67.565 1314.3 L67.565 1308.66 L94.764 1298.53 L67.565 1288.4 L67.565 1282.76 L99.9723 1294.91 L99.9723 1302.15 L67.565 1314.3 Z" fill="#000000" fill-rule="nonzero" fill-opacity="1" /><path clip-path="url(#clip880)" d="M82.4377 1247.69 L85.0418 1247.69 L85.0418 1272.17 Q90.5395 1271.82 93.433 1268.87 Q96.2975 1265.89 96.2975 1260.59 Q96.2975 1257.53 95.5452 1254.66 Q94.7929 1251.77 93.2883 1248.93 L98.323 1248.93 Q99.5383 1251.8 100.175 1254.81 Q100.811 1257.82 100.811 1260.91 Q100.811 1268.67 96.2975 1273.21 Q91.7837 1277.72 84.087 1277.72 Q76.1298 1277.72 71.4713 1273.44 Q66.7838 1269.13 66.7838 1261.84 Q66.7838 1255.3 71.0083 1251.51 Q75.2039 1247.69 82.4377 1247.69 M80.8752 1253.01 Q76.506 1253.07 73.9018 1255.47 Q71.2977 1257.85 71.2977 1261.78 Q71.2977 1266.24 73.815 1268.93 Q76.3324 1271.59 80.9041 1271.99 L80.8752 1253.01 Z" fill="#000000" fill-rule="nonzero" fill-opacity="1" /><path clip-path="url(#clip880)" d="M58.3637 1214.85 L67.565 1214.85 L67.565 1203.88 L71.7028 1203.88 L71.7028 1214.85 L89.2953 1214.85 Q93.2594 1214.85 94.3878 1213.78 Q95.5163 1212.68 95.5163 1209.35 L95.5163 1203.88 L99.9723 1203.88 L99.9723 1209.35 Q99.9723 1215.51 97.6864 1217.86 Q95.3716 1220.2 89.2953 1220.2 L71.7028 1220.2 L71.7028 1224.11 L67.565 1224.11 L67.565 1220.2 L58.3637 1220.2 L58.3637 1214.85 Z" fill="#000000" fill-rule="nonzero" fill-opacity="1" /><path clip-path="url(#clip880)" d="M67.565 1196.88 L67.565 1191.56 L99.9723 1191.56 L99.9723 1196.88 L67.565 1196.88 M54.9494 1196.88 L54.9494 1191.56 L61.6912 1191.56 L61.6912 1196.88 L54.9494 1196.88 Z" fill="#000000" fill-rule="nonzero" fill-opacity="1" /><path clip-path="url(#clip880)" d="M73.7861 1155.18 Q70.1981 1153.19 68.491 1150.41 Q66.7838 1147.63 66.7838 1143.87 Q66.7838 1138.81 70.3428 1136.06 Q73.8729 1133.31 80.4122 1133.31 L99.9723 1133.31 L99.9723 1138.66 L80.5858 1138.66 Q75.9273 1138.66 73.6703 1140.31 Q71.4134 1141.96 71.4134 1145.35 Q71.4134 1149.48 74.1622 1151.89 Q76.9111 1154.29 81.6564 1154.29 L99.9723 1154.29 L99.9723 1159.64 L80.5858 1159.64 Q75.8983 1159.64 73.6703 1161.29 Q71.4134 1162.94 71.4134 1166.38 Q71.4134 1170.46 74.1912 1172.86 Q76.94 1175.26 81.6564 1175.26 L99.9723 1175.26 L99.9723 1180.62 L67.565 1180.62 L67.565 1175.26 L72.5997 1175.26 Q69.6194 1173.44 68.2016 1170.9 Q66.7838 1168.35 66.7838 1164.85 Q66.7838 1161.32 68.5778 1158.86 Q70.3717 1156.37 73.7861 1155.18 Z" fill="#000000" fill-rule="nonzero" fill-opacity="1" /><path clip-path="url(#clip880)" d="M82.4377 1094.97 L85.0418 1094.97 L85.0418 1119.45 Q90.5395 1119.1 93.433 1116.15 Q96.2975 1113.17 96.2975 1107.88 Q96.2975 1104.81 95.5452 1101.94 Q94.7929 1099.05 93.2883 1096.21 L98.323 1096.21 Q99.5383 1099.08 100.175 1102.09 Q100.811 1105.1 100.811 1108.19 Q100.811 1115.95 96.2975 1120.49 Q91.7837 1125 84.087 1125 Q76.1298 1125 71.4713 1120.72 Q66.7838 1116.41 66.7838 1109.12 Q66.7838 1102.58 71.0083 1098.79 Q75.2039 1094.97 82.4377 1094.97 M80.8752 1100.29 Q76.506 1100.35 73.9018 1102.75 Q71.2977 1105.13 71.2977 1109.06 Q71.2977 1113.52 73.815 1116.21 Q76.3324 1118.87 80.9041 1119.28 L80.8752 1100.29 Z" fill="#000000" fill-rule="nonzero" fill-opacity="1" /><path clip-path="url(#clip880)" d="M55.0072 1054.61 Q61.6623 1058.48 68.1727 1060.36 Q74.6831 1062.24 81.3671 1062.24 Q88.0511 1062.24 94.6193 1060.36 Q101.159 1058.45 107.785 1054.61 L107.785 1059.24 Q100.985 1063.58 94.4168 1065.75 Q87.8485 1067.89 81.3671 1067.89 Q74.9145 1067.89 68.3752 1065.75 Q61.8359 1063.6 55.0072 1059.24 L55.0072 1054.61 Z" fill="#000000" fill-rule="nonzero" fill-opacity="1" /><path clip-path="url(#clip880)" d="M68.5199 1023.62 L73.5546 1023.62 Q72.3972 1025.87 71.8185 1028.3 Q71.2398 1030.73 71.2398 1033.34 Q71.2398 1037.3 72.4551 1039.3 Q73.6703 1041.27 76.1009 1041.27 Q77.9527 1041.27 79.0233 1039.85 Q80.065 1038.43 81.0198 1034.15 L81.4249 1032.33 Q82.6402 1026.65 84.8682 1024.28 Q87.0673 1021.88 91.0314 1021.88 Q95.5452 1021.88 98.1783 1025.47 Q100.811 1029.03 100.811 1035.28 Q100.811 1037.88 100.291 1040.72 Q99.7987 1043.52 98.7859 1046.65 L93.2883 1046.65 Q94.8218 1043.7 95.6031 1040.83 Q96.3554 1037.97 96.3554 1035.16 Q96.3554 1031.4 95.0823 1029.37 Q93.7802 1027.35 91.4364 1027.35 Q89.2663 1027.35 88.1089 1028.82 Q86.9515 1030.27 85.8809 1035.22 L85.4469 1037.07 Q84.4052 1042.02 82.264 1044.22 Q80.0939 1046.42 76.3324 1046.42 Q71.7606 1046.42 69.2722 1043.18 Q66.7838 1039.94 66.7838 1033.98 Q66.7838 1031.02 67.2178 1028.42 Q67.6519 1025.82 68.5199 1023.62 Z" fill="#000000" fill-rule="nonzero" fill-opacity="1" /><path clip-path="url(#clip880)" d="M55.0072 1014.24 L55.0072 1009.61 Q61.8359 1005.27 68.3752 1003.13 Q74.9145 1000.96 81.3671 1000.96 Q87.8485 1000.96 94.4168 1003.13 Q100.985 1005.27 107.785 1009.61 L107.785 1014.24 Q101.159 1010.39 94.6193 1008.51 Q88.0511 1006.6 81.3671 1006.6 Q74.6831 1006.6 68.1727 1008.51 Q61.6623 1010.39 55.0072 1014.24 Z" fill="#000000" fill-rule="nonzero" fill-opacity="1" /><path clip-path="url(#clip880)" d="M1302.2 125.969 L1302.2 133.949 Q1297.54 131.721 1293.41 130.627 Q1289.28 129.534 1285.43 129.534 Q1278.75 129.534 1275.1 132.126 Q1271.5 134.719 1271.5 139.499 Q1271.5 143.509 1273.89 145.575 Q1276.32 147.601 1283.04 148.857 L1287.98 149.869 Q1297.14 151.611 1301.47 156.027 Q1305.85 160.402 1305.85 167.774 Q1305.85 176.565 1299.93 181.102 Q1294.06 185.639 1282.68 185.639 Q1278.38 185.639 1273.52 184.667 Q1268.7 183.694 1263.52 181.79 L1263.52 173.365 Q1268.5 176.16 1273.28 177.577 Q1278.06 178.995 1282.68 178.995 Q1289.69 178.995 1293.49 176.241 Q1297.3 173.486 1297.3 168.382 Q1297.3 163.926 1294.55 161.414 Q1291.83 158.903 1285.59 157.647 L1280.61 156.675 Q1271.46 154.852 1267.37 150.963 Q1263.27 147.074 1263.27 140.147 Q1263.27 132.126 1268.9 127.508 Q1274.58 122.89 1284.5 122.89 Q1288.75 122.89 1293.17 123.66 Q1297.59 124.43 1302.2 125.969 Z" fill="#000000" fill-rule="nonzero" fill-opacity="1" /><path clip-path="url(#clip880)" d="M1335.87 144.32 Q1329.87 144.32 1326.39 149.019 Q1322.9 153.677 1322.9 161.819 Q1322.9 169.962 1326.35 174.661 Q1329.83 179.319 1335.87 179.319 Q1341.82 179.319 1345.3 174.62 Q1348.79 169.921 1348.79 161.819 Q1348.79 153.758 1345.3 149.059 Q1341.82 144.32 1335.87 144.32 M1335.87 138 Q1345.59 138 1351.14 144.32 Q1356.69 150.639 1356.69 161.819 Q1356.69 172.959 1351.14 179.319 Q1345.59 185.639 1335.87 185.639 Q1326.1 185.639 1320.55 179.319 Q1315.04 172.959 1315.04 161.819 Q1315.04 150.639 1320.55 144.32 Q1326.1 138 1335.87 138 Z" fill="#000000" fill-rule="nonzero" fill-opacity="1" /><path clip-path="url(#clip880)" d="M1369.04 121.432 L1376.5 121.432 L1376.5 184.464 L1369.04 184.464 L1369.04 121.432 Z" fill="#000000" fill-rule="nonzero" fill-opacity="1" /><path clip-path="url(#clip880)" d="M1386.75 139.094 L1394.64 139.094 L1408.82 177.172 L1423 139.094 L1430.9 139.094 L1413.89 184.464 L1403.76 184.464 L1386.75 139.094 Z" fill="#000000" fill-rule="nonzero" fill-opacity="1" /><path clip-path="url(#clip880)" d="M1480 159.916 L1480 163.561 L1445.73 163.561 Q1446.21 171.258 1450.34 175.309 Q1454.52 179.319 1461.93 179.319 Q1466.22 179.319 1470.23 178.266 Q1474.29 177.213 1478.26 175.106 L1478.26 182.155 Q1474.25 183.856 1470.03 184.748 Q1465.82 185.639 1461.48 185.639 Q1450.63 185.639 1444.27 179.319 Q1437.95 173 1437.95 162.225 Q1437.95 151.085 1443.94 144.563 Q1449.98 138 1460.19 138 Q1469.34 138 1474.65 143.914 Q1480 149.788 1480 159.916 M1472.54 157.728 Q1472.46 151.611 1469.1 147.965 Q1465.78 144.32 1460.27 144.32 Q1454.03 144.32 1450.26 147.844 Q1446.54 151.368 1445.97 157.769 L1472.54 157.728 Z" fill="#000000" fill-rule="nonzero" fill-opacity="1" /><path clip-path="url(#clip880)" d="M1525.98 126.212 L1525.98 139.094 L1541.33 139.094 L1541.33 144.887 L1525.98 144.887 L1525.98 169.516 Q1525.98 175.066 1527.47 176.646 Q1529.01 178.226 1533.67 178.226 L1541.33 178.226 L1541.33 184.464 L1533.67 184.464 Q1525.04 184.464 1521.76 181.264 Q1518.48 178.023 1518.48 169.516 L1518.48 144.887 L1513.01 144.887 L1513.01 139.094 L1518.48 139.094 L1518.48 126.212 L1525.98 126.212 Z" fill="#000000" fill-rule="nonzero" fill-opacity="1" /><path clip-path="url(#clip880)" d="M1551.13 139.094 L1558.58 139.094 L1558.58 184.464 L1551.13 184.464 L1551.13 139.094 M1551.13 121.432 L1558.58 121.432 L1558.58 130.871 L1551.13 130.871 L1551.13 121.432 Z" fill="#000000" fill-rule="nonzero" fill-opacity="1" /><path clip-path="url(#clip880)" d="M1609.5 147.803 Q1612.3 142.78 1616.19 140.39 Q1620.08 138 1625.34 138 Q1632.43 138 1636.28 142.983 Q1640.13 147.925 1640.13 157.08 L1640.13 184.464 L1632.64 184.464 L1632.64 157.323 Q1632.64 150.801 1630.33 147.641 Q1628.02 144.482 1623.28 144.482 Q1617.49 144.482 1614.12 148.33 Q1610.76 152.178 1610.76 158.822 L1610.76 184.464 L1603.27 184.464 L1603.27 157.323 Q1603.27 150.76 1600.96 147.641 Q1598.65 144.482 1593.83 144.482 Q1588.12 144.482 1584.75 148.37 Q1581.39 152.219 1581.39 158.822 L1581.39 184.464 L1573.9 184.464 L1573.9 139.094 L1581.39 139.094 L1581.39 146.142 Q1583.94 141.97 1587.51 139.985 Q1591.07 138 1595.97 138 Q1600.92 138 1604.36 140.512 Q1607.84 143.023 1609.5 147.803 Z" fill="#000000" fill-rule="nonzero" fill-opacity="1" /><path clip-path="url(#clip880)" d="M1693.8 159.916 L1693.8 163.561 L1659.53 163.561 Q1660.02 171.258 1664.15 175.309 Q1668.32 179.319 1675.74 179.319 Q1680.03 179.319 1684.04 178.266 Q1688.09 177.213 1692.06 175.106 L1692.06 182.155 Q1688.05 183.856 1683.84 184.748 Q1679.63 185.639 1675.29 185.639 Q1664.43 185.639 1658.08 179.319 Q1651.76 173 1651.76 162.225 Q1651.76 151.085 1657.75 144.563 Q1663.79 138 1674 138 Q1683.15 138 1688.46 143.914 Q1693.8 149.788 1693.8 159.916 M1686.35 157.728 Q1686.27 151.611 1682.91 147.965 Q1679.59 144.32 1674.08 144.32 Q1667.84 144.32 1664.07 147.844 Q1660.34 151.368 1659.78 157.769 L1686.35 157.728 Z" fill="#000000" fill-rule="nonzero" fill-opacity="1" /><path clip-path="url(#clip880)" d="M1727.06 139.094 L1734.96 139.094 L1749.14 177.172 L1763.32 139.094 L1771.22 139.094 L1754.2 184.464 L1744.08 184.464 L1727.06 139.094 Z" fill="#000000" fill-rule="nonzero" fill-opacity="1" /><path clip-path="url(#clip880)" d="M1810.43 140.431 L1810.43 147.479 Q1807.27 145.859 1803.87 145.049 Q1800.46 144.239 1796.82 144.239 Q1791.27 144.239 1788.47 145.94 Q1785.72 147.641 1785.72 151.044 Q1785.72 153.637 1787.7 155.135 Q1789.69 156.594 1795.68 157.931 L1798.24 158.498 Q1806.18 160.199 1809.5 163.318 Q1812.86 166.397 1812.86 171.947 Q1812.86 178.266 1807.84 181.952 Q1802.85 185.639 1794.1 185.639 Q1790.46 185.639 1786.49 184.91 Q1782.56 184.221 1778.18 182.803 L1778.18 175.106 Q1782.32 177.253 1786.33 178.347 Q1790.34 179.4 1794.27 179.4 Q1799.53 179.4 1802.37 177.618 Q1805.2 175.795 1805.2 172.514 Q1805.2 169.476 1803.14 167.855 Q1801.11 166.235 1794.19 164.736 L1791.59 164.128 Q1784.67 162.67 1781.59 159.672 Q1778.51 156.634 1778.51 151.368 Q1778.51 144.968 1783.05 141.484 Q1787.58 138 1795.93 138 Q1800.06 138 1803.71 138.608 Q1807.35 139.215 1810.43 140.431 Z" fill="#000000" fill-rule="nonzero" fill-opacity="1" /><path clip-path="url(#clip880)" d="M1880.96 161.252 Q1880.96 153.151 1877.59 148.695 Q1874.27 144.239 1868.24 144.239 Q1862.24 144.239 1858.88 148.695 Q1855.56 153.151 1855.56 161.252 Q1855.56 169.314 1858.88 173.77 Q1862.24 178.226 1868.24 178.226 Q1874.27 178.226 1877.59 173.77 Q1880.96 169.314 1880.96 161.252 M1888.41 178.833 Q1888.41 190.419 1883.26 196.05 Q1878.12 201.721 1867.51 201.721 Q1863.58 201.721 1860.09 201.113 Q1856.61 200.546 1853.33 199.331 L1853.33 192.08 Q1856.61 193.862 1859.81 194.713 Q1863.01 195.563 1866.33 195.563 Q1873.66 195.563 1877.31 191.715 Q1880.96 187.907 1880.96 180.17 L1880.96 176.484 Q1878.65 180.494 1875.04 182.479 Q1871.44 184.464 1866.41 184.464 Q1858.07 184.464 1852.96 178.104 Q1847.86 171.744 1847.86 161.252 Q1847.86 150.72 1852.96 144.36 Q1858.07 138 1866.41 138 Q1871.44 138 1875.04 139.985 Q1878.65 141.97 1880.96 145.98 L1880.96 139.094 L1888.41 139.094 L1888.41 178.833 Z" fill="#000000" fill-rule="nonzero" fill-opacity="1" /><path clip-path="url(#clip880)" d="M1930.05 146.061 Q1928.8 145.332 1927.3 145.008 Q1925.84 144.644 1924.06 144.644 Q1917.74 144.644 1914.34 148.776 Q1910.97 152.867 1910.97 160.564 L1910.97 184.464 L1903.48 184.464 L1903.48 139.094 L1910.97 139.094 L1910.97 146.142 Q1913.32 142.011 1917.09 140.026 Q1920.86 138 1926.24 138 Q1927.01 138 1927.95 138.122 Q1928.88 138.203 1930.01 138.405 L1930.05 146.061 Z" fill="#000000" fill-rule="nonzero" fill-opacity="1" /><path clip-path="url(#clip880)" d="M1937.87 139.094 L1945.32 139.094 L1945.32 184.464 L1937.87 184.464 L1937.87 139.094 M1937.87 121.432 L1945.32 121.432 L1945.32 130.871 L1937.87 130.871 L1937.87 121.432 Z" fill="#000000" fill-rule="nonzero" fill-opacity="1" /><path clip-path="url(#clip880)" d="M1990.78 145.98 L1990.78 121.432 L1998.23 121.432 L1998.23 184.464 L1990.78 184.464 L1990.78 177.658 Q1988.43 181.709 1984.82 183.694 Q1981.26 185.639 1976.23 185.639 Q1968.01 185.639 1962.82 179.076 Q1957.68 172.514 1957.68 161.819 Q1957.68 151.125 1962.82 144.563 Q1968.01 138 1976.23 138 Q1981.26 138 1984.82 139.985 Q1988.43 141.93 1990.78 145.98 M1965.38 161.819 Q1965.38 170.043 1968.74 174.742 Q1972.14 179.4 1978.06 179.4 Q1983.97 179.4 1987.37 174.742 Q1990.78 170.043 1990.78 161.819 Q1990.78 153.596 1987.37 148.938 Q1983.97 144.239 1978.06 144.239 Q1972.14 144.239 1968.74 148.938 Q1965.38 153.596 1965.38 161.819 Z" fill="#000000" fill-rule="nonzero" fill-opacity="1" /><path clip-path="url(#clip880)" d="M2068.88 140.431 L2068.88 147.479 Q2065.72 145.859 2062.31 145.049 Q2058.91 144.239 2055.27 144.239 Q2049.72 144.239 2046.92 145.94 Q2044.17 147.641 2044.17 151.044 Q2044.17 153.637 2046.15 155.135 Q2048.14 156.594 2054.13 157.931 L2056.68 158.498 Q2064.62 160.199 2067.95 163.318 Q2071.31 166.397 2071.31 171.947 Q2071.31 178.266 2066.28 181.952 Q2061.3 185.639 2052.55 185.639 Q2048.91 185.639 2044.94 184.91 Q2041.01 184.221 2036.63 182.803 L2036.63 175.106 Q2040.76 177.253 2044.77 178.347 Q2048.78 179.4 2052.71 179.4 Q2057.98 179.4 2060.82 177.618 Q2063.65 175.795 2063.65 172.514 Q2063.65 169.476 2061.59 167.855 Q2059.56 166.235 2052.63 164.736 L2050.04 164.128 Q2043.11 162.67 2040.03 159.672 Q2036.96 156.634 2036.96 151.368 Q2036.96 144.968 2041.49 141.484 Q2046.03 138 2054.38 138 Q2058.51 138 2062.15 138.608 Q2065.8 139.215 2068.88 140.431 Z" fill="#000000" fill-rule="nonzero" fill-opacity="1" /><path clip-path="url(#clip880)" d="M2083.18 139.094 L2090.63 139.094 L2090.63 184.464 L2083.18 184.464 L2083.18 139.094 M2083.18 121.432 L2090.63 121.432 L2090.63 130.871 L2083.18 130.871 L2083.18 121.432 Z" fill="#000000" fill-rule="nonzero" fill-opacity="1" /><path clip-path="url(#clip880)" d="M2102.99 139.094 L2138.39 139.094 L2138.39 145.899 L2110.36 178.509 L2138.39 178.509 L2138.39 184.464 L2101.97 184.464 L2101.97 177.658 L2130.01 145.049 L2102.99 145.049 L2102.99 139.094 Z" fill="#000000" fill-rule="nonzero" fill-opacity="1" /><path clip-path="url(#clip880)" d="M2188.58 159.916 L2188.58 163.561 L2154.31 163.561 Q2154.8 171.258 2158.93 175.309 Q2163.1 179.319 2170.51 179.319 Q2174.81 179.319 2178.82 178.266 Q2182.87 177.213 2186.84 175.106 L2186.84 182.155 Q2182.83 183.856 2178.62 184.748 Q2174.4 185.639 2170.07 185.639 Q2159.21 185.639 2152.85 179.319 Q2146.53 173 2146.53 162.225 Q2146.53 151.085 2152.53 144.563 Q2158.56 138 2168.77 138 Q2177.93 138 2183.23 143.914 Q2188.58 149.788 2188.58 159.916 M2181.13 157.728 Q2181.05 151.611 2177.68 147.965 Q2174.36 144.32 2168.85 144.32 Q2162.62 144.32 2158.85 147.844 Q2155.12 151.368 2154.55 157.769 L2181.13 157.728 Z" fill="#000000" fill-rule="nonzero" fill-opacity="1" /><path clip-path="url(#clip880)" d="M2223.42 158.822 L2298.28 158.822 L2298.28 164.655 L2223.42 164.655 L2223.42 158.822 Z" fill="#000000" fill-rule="nonzero" fill-opacity="1" /><path clip-path="url(#clip880)" d="M2366.38 161.252 Q2366.38 153.151 2363.01 148.695 Q2359.69 144.239 2353.66 144.239 Q2347.66 144.239 2344.3 148.695 Q2340.98 153.151 2340.98 161.252 Q2340.98 169.314 2344.3 173.77 Q2347.66 178.226 2353.66 178.226 Q2359.69 178.226 2363.01 173.77 Q2366.38 169.314 2366.38 161.252 M2373.83 178.833 Q2373.83 190.419 2368.68 196.05 Q2363.54 201.721 2352.93 201.721 Q2349 201.721 2345.51 201.113 Q2342.03 200.546 2338.75 199.331 L2338.75 192.08 Q2342.03 193.862 2345.23 194.713 Q2348.43 195.563 2351.75 195.563 Q2359.08 195.563 2362.73 191.715 Q2366.38 187.907 2366.38 180.17 L2366.38 176.484 Q2364.07 180.494 2360.46 182.479 Q2356.86 184.464 2351.83 184.464 Q2343.49 184.464 2338.38 178.104 Q2333.28 171.744 2333.28 161.252 Q2333.28 150.72 2338.38 144.36 Q2343.49 138 2351.83 138 Q2356.86 138 2360.46 139.985 Q2364.07 141.97 2366.38 145.98 L2366.38 139.094 L2373.83 139.094 L2373.83 178.833 Z" fill="#000000" fill-rule="nonzero" fill-opacity="1" /><path clip-path="url(#clip880)" d="M2389.18 121.432 L2396.64 121.432 L2396.64 184.464 L2389.18 184.464 L2389.18 121.432 Z" fill="#000000" fill-rule="nonzero" fill-opacity="1" /><path clip-path="url(#clip880)" d="M2412.23 139.094 L2419.69 139.094 L2419.69 184.464 L2412.23 184.464 L2412.23 139.094 M2412.23 121.432 L2419.69 121.432 L2419.69 130.871 L2412.23 130.871 L2412.23 121.432 Z" fill="#000000" fill-rule="nonzero" fill-opacity="1" /><path clip-path="url(#clip880)" d="M2465.14 145.98 L2465.14 121.432 L2472.59 121.432 L2472.59 184.464 L2465.14 184.464 L2465.14 177.658 Q2462.79 181.709 2459.18 183.694 Q2455.62 185.639 2450.59 185.639 Q2442.37 185.639 2437.19 179.076 Q2432.04 172.514 2432.04 161.819 Q2432.04 151.125 2437.19 144.563 Q2442.37 138 2450.59 138 Q2455.62 138 2459.18 139.985 Q2462.79 141.93 2465.14 145.98 M2439.74 161.819 Q2439.74 170.043 2443.1 174.742 Q2446.5 179.4 2452.42 179.4 Q2458.33 179.4 2461.73 174.742 Q2465.14 170.043 2465.14 161.819 Q2465.14 153.596 2461.73 148.938 Q2458.33 144.239 2452.42 144.239 Q2446.5 144.239 2443.1 148.938 Q2439.74 153.596 2439.74 161.819 Z" fill="#000000" fill-rule="nonzero" fill-opacity="1" /><path clip-path="url(#clip880)" d="M2526.75 159.916 L2526.75 163.561 L2492.48 163.561 Q2492.97 171.258 2497.1 175.309 Q2501.27 179.319 2508.68 179.319 Q2512.98 179.319 2516.99 178.266 Q2521.04 177.213 2525.01 175.106 L2525.01 182.155 Q2521 183.856 2516.79 184.748 Q2512.57 185.639 2508.24 185.639 Q2497.38 185.639 2491.02 179.319 Q2484.7 173 2484.7 162.225 Q2484.7 151.085 2490.7 144.563 Q2496.73 138 2506.94 138 Q2516.1 138 2521.4 143.914 Q2526.75 149.788 2526.75 159.916 M2519.3 157.728 Q2519.22 151.611 2515.85 147.965 Q2512.53 144.32 2507.02 144.32 Q2500.78 144.32 2497.02 147.844 Q2493.29 151.368 2492.72 157.769 L2519.3 157.728 Z" fill="#000000" fill-rule="nonzero" fill-opacity="1" /><path clip-path="url(#clip880)" d="M2565.28 146.061 Q2564.02 145.332 2562.52 145.008 Q2561.06 144.644 2559.28 144.644 Q2552.96 144.644 2549.56 148.776 Q2546.2 152.867 2546.2 160.564 L2546.2 184.464 L2538.7 184.464 L2538.7 139.094 L2546.2 139.094 L2546.2 146.142 Q2548.54 142.011 2552.31 140.026 Q2556.08 138 2561.47 138 Q2562.24 138 2563.17 138.122 Q2564.1 138.203 2565.23 138.405 L2565.28 146.061 Z" fill="#000000" fill-rule="nonzero" fill-opacity="1" /><polyline clip-path="url(#clip882)" style="stroke:#0000ff; stroke-linecap:round; stroke-linejoin:round; stroke-width:6; stroke-opacity:1; fill:none" points="424.746,1838.18 921.255,1593.9 "/>
<circle clip-path="url(#clip882)" cx="424.746" cy="1838.18" r="14.4" fill="#0000ff" fill-rule="evenodd" fill-opacity="1" stroke="none"/>
<circle clip-path="url(#clip882)" cx="921.255" cy="1593.9" r="14.4" fill="#0000ff" fill-rule="evenodd" fill-opacity="1" stroke="none"/>
<polyline clip-path="url(#clip882)" style="stroke:#008000; stroke-linecap:round; stroke-linejoin:round; stroke-width:6; stroke-opacity:1; fill:none" points="424.746,2067.81 921.255,1705.51 1748.77,677.475 3403.8,1258.34 "/>
<path clip-path="url(#clip882)" d="M424.746 2051.81 L408.746 2067.81 L424.746 2083.81 L440.746 2067.81 L424.746 2051.81 Z" fill="#008000" fill-rule="evenodd" fill-opacity="1" stroke="none"/>
<path clip-path="url(#clip882)" d="M921.255 1689.51 L905.255 1705.51 L921.255 1721.51 L937.255 1705.51 L921.255 1689.51 Z" fill="#008000" fill-rule="evenodd" fill-opacity="1" stroke="none"/>
<path clip-path="url(#clip882)" d="M1748.77 661.475 L1732.77 677.475 L1748.77 693.475 L1764.77 677.475 L1748.77 661.475 Z" fill="#008000" fill-rule="evenodd" fill-opacity="1" stroke="none"/>
<path clip-path="url(#clip882)" d="M3403.8 1242.34 L3387.8 1258.34 L3403.8 1274.34 L3419.8 1258.34 L3403.8 1242.34 Z" fill="#008000" fill-rule="evenodd" fill-opacity="1" stroke="none"/>
<polyline clip-path="url(#clip882)" style="stroke:#ff0000; stroke-linecap:round; stroke-linejoin:round; stroke-width:6; stroke-opacity:1; fill:none" points="424.746,1893.6 921.255,1849.67 "/>
<path clip-path="url(#clip882)" d="M408.746 1877.6 L408.746 1909.6 L440.746 1909.6 L440.746 1877.6 L408.746 1877.6 Z" fill="#ff0000" fill-rule="evenodd" fill-opacity="1" stroke="none"/>
<path clip-path="url(#clip882)" d="M905.255 1833.67 L905.255 1865.67 L937.255 1865.67 L937.255 1833.67 L905.255 1833.67 Z" fill="#ff0000" fill-rule="evenodd" fill-opacity="1" stroke="none"/>
<polyline clip-path="url(#clip882)" style="stroke:#ffa500; stroke-linecap:round; stroke-linejoin:round; stroke-width:6; stroke-opacity:1; fill:none" points="424.746,2102.46 921.255,1959.05 1748.77,1764.54 3403.8,1401.54 "/>
<path clip-path="url(#clip882)" d="M424.746 2086.46 L408.746 2118.46 L440.746 2118.46 L424.746 2086.46 Z" fill="#ffa500" fill-rule="evenodd" fill-opacity="1" stroke="none"/>
<path clip-path="url(#clip882)" d="M921.255 1943.05 L905.255 1975.05 L937.255 1975.05 L921.255 1943.05 Z" fill="#ffa500" fill-rule="evenodd" fill-opacity="1" stroke="none"/>
<path clip-path="url(#clip882)" d="M1748.77 1748.54 L1732.77 1780.54 L1764.77 1780.54 L1748.77 1748.54 Z" fill="#ffa500" fill-rule="evenodd" fill-opacity="1" stroke="none"/>
<path clip-path="url(#clip882)" d="M3403.8 1385.54 L3387.8 1417.54 L3419.8 1417.54 L3403.8 1385.54 Z" fill="#ffa500" fill-rule="evenodd" fill-opacity="1" stroke="none"/>
<polyline clip-path="url(#clip882)" style="stroke:#800080; stroke-linecap:round; stroke-linejoin:round; stroke-width:6; stroke-opacity:1; fill:none" points="424.746,1783.65 921.255,1198.04 "/>
<path clip-path="url(#clip882)" d="M440.746 1767.65 L408.746 1767.65 L424.746 1799.65 L440.746 1767.65 Z" fill="#800080" fill-rule="evenodd" fill-opacity="1" stroke="none"/>
<path clip-path="url(#clip882)" d="M937.255 1182.04 L905.255 1182.04 L921.255 1214.04 L937.255 1182.04 Z" fill="#800080" fill-rule="evenodd" fill-opacity="1" stroke="none"/>
<polyline clip-path="url(#clip882)" style="stroke:#a52a2a; stroke-linecap:round; stroke-linejoin:round; stroke-width:6; stroke-opacity:1; fill:none" points="424.746,2013.49 921.255,1299.77 1748.77,300.989 3403.8,908.233 "/>
<path clip-path="url(#clip882)" d="M424.746 1997.49 L420.986 2008.31 L409.53 2008.55 L418.666 2015.48 L415.338 2026.44 L424.746 2019.89 L434.154 2026.44 L430.826 2015.48 L439.962 2008.55 L428.506 2008.31 L424.746 1997.49 Z" fill="#a52a2a" fill-rule="evenodd" fill-opacity="1" stroke="none"/>
<path clip-path="url(#clip882)" d="M921.255 1283.77 L917.495 1294.59 L906.039 1294.83 L915.175 1301.76 L911.847 1312.72 L921.255 1306.17 L930.663 1312.72 L927.335 1301.76 L936.471 1294.83 L925.015 1294.59 L921.255 1283.77 Z" fill="#a52a2a" fill-rule="evenodd" fill-opacity="1" stroke="none"/>
<path clip-path="url(#clip882)" d="M1748.77 284.989 L1745.01 295.805 L1733.56 296.045 L1742.69 302.973 L1739.36 313.933 L1748.77 307.389 L1758.18 313.933 L1754.85 302.973 L1763.99 296.045 L1752.53 295.805 L1748.77 284.989 Z" fill="#a52a2a" fill-rule="evenodd" fill-opacity="1" stroke="none"/>
<path clip-path="url(#clip882)" d="M3403.8 892.233 L3400.04 903.049 L3388.59 903.289 L3397.72 910.217 L3394.4 921.177 L3403.8 914.633 L3413.21 921.177 L3409.88 910.217 L3419.02 903.289 L3407.56 903.049 L3403.8 892.233 Z" fill="#a52a2a" fill-rule="evenodd" fill-opacity="1" stroke="none"/>
<path clip-path="url(#clip880)" d="M2745.76 2092.86 L3443.52 2092.86 L3443.52 1729.98 L2745.76 1729.98  Z" fill="#ffffff" fill-rule="evenodd" fill-opacity="1"/>
<polyline clip-path="url(#clip880)" style="stroke:#000000; stroke-linecap:round; stroke-linejoin:round; stroke-width:4; stroke-opacity:1; fill:none" points="2745.76,2092.86 3443.52,2092.86 3443.52,1729.98 2745.76,1729.98 2745.76,2092.86 "/>
<polyline clip-path="url(#clip880)" style="stroke:#0000ff; stroke-linecap:round; stroke-linejoin:round; stroke-width:6; stroke-opacity:1; fill:none" points="2782.17,1781.82 3000.63,1781.82 "/>
<circle clip-path="url(#clip880)" cx="2891.4" cy="1781.82" r="23.04" fill="#0000ff" fill-rule="evenodd" fill-opacity="1" stroke="none"/>
<path clip-path="url(#clip880)" d="M3047.67 1763.12 Q3044.57 1768.45 3043.06 1773.66 Q3041.56 1778.86 3041.56 1784.21 Q3041.56 1789.56 3043.06 1794.81 Q3044.59 1800.04 3047.67 1805.35 L3043.97 1805.35 Q3040.49 1799.91 3038.76 1794.65 Q3037.05 1789.4 3037.05 1784.21 Q3037.05 1779.05 3038.76 1773.82 Q3040.47 1768.59 3043.97 1763.12 L3047.67 1763.12 Z" fill="#000000" fill-rule="nonzero" fill-opacity="1" /><path clip-path="url(#clip880)" d="M3067.72 1786.06 Q3062.55 1786.06 3060.56 1787.24 Q3058.57 1788.42 3058.57 1791.27 Q3058.57 1793.54 3060.05 1794.88 Q3061.56 1796.2 3064.13 1796.2 Q3067.67 1796.2 3069.8 1793.7 Q3071.95 1791.18 3071.95 1787.01 L3071.95 1786.06 L3067.72 1786.06 M3076.21 1784.3 L3076.21 1799.1 L3071.95 1799.1 L3071.95 1795.16 Q3070.49 1797.52 3068.32 1798.66 Q3066.14 1799.77 3062.99 1799.77 Q3059.01 1799.77 3056.65 1797.54 Q3054.31 1795.3 3054.31 1791.55 Q3054.31 1787.17 3057.23 1784.95 Q3060.17 1782.73 3065.98 1782.73 L3071.95 1782.73 L3071.95 1782.31 Q3071.95 1779.37 3070.01 1777.78 Q3068.09 1776.16 3064.59 1776.16 Q3062.37 1776.16 3060.26 1776.69 Q3058.16 1777.22 3056.21 1778.29 L3056.21 1774.35 Q3058.55 1773.45 3060.75 1773.01 Q3062.95 1772.54 3065.03 1772.54 Q3070.66 1772.54 3073.43 1775.46 Q3076.21 1778.38 3076.21 1784.3 Z" fill="#000000" fill-rule="nonzero" fill-opacity="1" /><path clip-path="url(#clip880)" d="M3102.05 1777.1 L3102.05 1763.08 L3106.3 1763.08 L3106.3 1799.1 L3102.05 1799.1 L3102.05 1795.21 Q3100.7 1797.52 3098.64 1798.66 Q3096.61 1799.77 3093.74 1799.77 Q3089.04 1799.77 3086.07 1796.02 Q3083.13 1792.27 3083.13 1786.16 Q3083.13 1780.04 3086.07 1776.29 Q3089.04 1772.54 3093.74 1772.54 Q3096.61 1772.54 3098.64 1773.68 Q3100.7 1774.79 3102.05 1777.1 M3087.53 1786.16 Q3087.53 1790.85 3089.45 1793.54 Q3091.4 1796.2 3094.78 1796.2 Q3098.16 1796.2 3100.1 1793.54 Q3102.05 1790.85 3102.05 1786.16 Q3102.05 1781.46 3100.1 1778.79 Q3098.16 1776.11 3094.78 1776.11 Q3091.4 1776.11 3089.45 1778.79 Q3087.53 1781.46 3087.53 1786.16 Z" fill="#000000" fill-rule="nonzero" fill-opacity="1" /><path clip-path="url(#clip880)" d="M3136.63 1783.45 L3136.63 1799.1 L3132.37 1799.1 L3132.37 1783.59 Q3132.37 1779.91 3130.93 1778.08 Q3129.5 1776.25 3126.63 1776.25 Q3123.18 1776.25 3121.19 1778.45 Q3119.2 1780.65 3119.2 1784.44 L3119.2 1799.1 L3114.92 1799.1 L3114.92 1773.17 L3119.2 1773.17 L3119.2 1777.2 Q3120.73 1774.86 3122.79 1773.7 Q3124.87 1772.54 3127.58 1772.54 Q3132.05 1772.54 3134.34 1775.32 Q3136.63 1778.08 3136.63 1783.45 Z" fill="#000000" fill-rule="nonzero" fill-opacity="1" /><path clip-path="url(#clip880)" d="M3145.12 1763.08 L3149.38 1763.08 L3149.38 1799.1 L3145.12 1799.1 L3145.12 1763.08 Z" fill="#000000" fill-rule="nonzero" fill-opacity="1" /><path clip-path="url(#clip880)" d="M3162.42 1795.21 L3162.42 1808.96 L3158.13 1808.96 L3158.13 1773.17 L3162.42 1773.17 L3162.42 1777.1 Q3163.76 1774.79 3165.79 1773.68 Q3167.86 1772.54 3170.7 1772.54 Q3175.42 1772.54 3178.36 1776.29 Q3181.33 1780.04 3181.33 1786.16 Q3181.33 1792.27 3178.36 1796.02 Q3175.42 1799.77 3170.7 1799.77 Q3167.86 1799.77 3165.79 1798.66 Q3163.76 1797.52 3162.42 1795.21 M3176.91 1786.16 Q3176.91 1781.46 3174.96 1778.79 Q3173.04 1776.11 3169.66 1776.11 Q3166.28 1776.11 3164.34 1778.79 Q3162.42 1781.46 3162.42 1786.16 Q3162.42 1790.85 3164.34 1793.54 Q3166.28 1796.2 3169.66 1796.2 Q3173.04 1796.2 3174.96 1793.54 Q3176.91 1790.85 3176.91 1786.16 Z" fill="#000000" fill-rule="nonzero" fill-opacity="1" /><path clip-path="url(#clip880)" d="M3189.48 1793.22 L3194.36 1793.22 L3194.36 1797.2 L3190.56 1804.6 L3187.58 1804.6 L3189.48 1797.2 L3189.48 1793.22 Z" fill="#000000" fill-rule="nonzero" fill-opacity="1" /><path clip-path="url(#clip880)" d="M3218.53 1773.17 L3222.79 1773.17 L3222.79 1799.1 L3218.53 1799.1 L3218.53 1773.17 M3218.53 1763.08 L3222.79 1763.08 L3222.79 1768.47 L3218.53 1768.47 L3218.53 1763.08 Z" fill="#000000" fill-rule="nonzero" fill-opacity="1" /><path clip-path="url(#clip880)" d="M3235.82 1795.21 L3235.82 1808.96 L3231.54 1808.96 L3231.54 1773.17 L3235.82 1773.17 L3235.82 1777.1 Q3237.16 1774.79 3239.2 1773.68 Q3241.26 1772.54 3244.1 1772.54 Q3248.83 1772.54 3251.77 1776.29 Q3254.73 1780.04 3254.73 1786.16 Q3254.73 1792.27 3251.77 1796.02 Q3248.83 1799.77 3244.1 1799.77 Q3241.26 1799.77 3239.2 1798.66 Q3237.16 1797.52 3235.82 1795.21 M3250.31 1786.16 Q3250.31 1781.46 3248.36 1778.79 Q3246.44 1776.11 3243.06 1776.11 Q3239.68 1776.11 3237.74 1778.79 Q3235.82 1781.46 3235.82 1786.16 Q3235.82 1790.85 3237.74 1793.54 Q3239.68 1796.2 3243.06 1796.2 Q3246.44 1796.2 3248.36 1793.54 Q3250.31 1790.85 3250.31 1786.16 Z" fill="#000000" fill-rule="nonzero" fill-opacity="1" /><path clip-path="url(#clip880)" d="M3271.84 1776.16 Q3268.41 1776.16 3266.42 1778.84 Q3264.43 1781.5 3264.43 1786.16 Q3264.43 1790.81 3266.4 1793.49 Q3268.39 1796.16 3271.84 1796.16 Q3275.24 1796.16 3277.23 1793.47 Q3279.22 1790.79 3279.22 1786.16 Q3279.22 1781.55 3277.23 1778.86 Q3275.24 1776.16 3271.84 1776.16 M3271.84 1772.54 Q3277.39 1772.54 3280.56 1776.16 Q3283.73 1779.77 3283.73 1786.16 Q3283.73 1792.52 3280.56 1796.16 Q3277.39 1799.77 3271.84 1799.77 Q3266.26 1799.77 3263.09 1796.16 Q3259.94 1792.52 3259.94 1786.16 Q3259.94 1779.77 3263.09 1776.16 Q3266.26 1772.54 3271.84 1772.54 Z" fill="#000000" fill-rule="nonzero" fill-opacity="1" /><path clip-path="url(#clip880)" d="M3294.91 1795.21 L3294.91 1808.96 L3290.63 1808.96 L3290.63 1773.17 L3294.91 1773.17 L3294.91 1777.1 Q3296.26 1774.79 3298.29 1773.68 Q3300.35 1772.54 3303.2 1772.54 Q3307.92 1772.54 3310.86 1776.29 Q3313.83 1780.04 3313.83 1786.16 Q3313.83 1792.27 3310.86 1796.02 Q3307.92 1799.77 3303.2 1799.77 Q3300.35 1799.77 3298.29 1798.66 Q3296.26 1797.52 3294.91 1795.21 M3309.41 1786.16 Q3309.41 1781.46 3307.46 1778.79 Q3305.54 1776.11 3302.16 1776.11 Q3298.78 1776.11 3296.84 1778.79 Q3294.91 1781.46 3294.91 1786.16 Q3294.91 1790.85 3296.84 1793.54 Q3298.78 1796.2 3302.16 1796.2 Q3305.54 1796.2 3307.46 1793.54 Q3309.41 1790.85 3309.41 1786.16 Z" fill="#000000" fill-rule="nonzero" fill-opacity="1" /><path clip-path="url(#clip880)" d="M3325.1 1765.81 L3325.1 1773.17 L3333.87 1773.17 L3333.87 1776.48 L3325.1 1776.48 L3325.1 1790.55 Q3325.1 1793.73 3325.96 1794.63 Q3326.84 1795.53 3329.5 1795.53 L3333.87 1795.53 L3333.87 1799.1 L3329.5 1799.1 Q3324.57 1799.1 3322.69 1797.27 Q3320.82 1795.42 3320.82 1790.55 L3320.82 1776.48 L3317.69 1776.48 L3317.69 1773.17 L3320.82 1773.17 L3320.82 1765.81 L3325.1 1765.81 Z" fill="#000000" fill-rule="nonzero" fill-opacity="1" /><path clip-path="url(#clip880)" d="M3338.8 1763.12 L3342.51 1763.12 Q3345.98 1768.59 3347.69 1773.82 Q3349.43 1779.05 3349.43 1784.21 Q3349.43 1789.4 3347.69 1794.65 Q3345.98 1799.91 3342.51 1805.35 L3338.8 1805.35 Q3341.88 1800.04 3343.39 1794.81 Q3344.91 1789.56 3344.91 1784.21 Q3344.91 1778.86 3343.39 1773.66 Q3341.88 1768.45 3338.8 1763.12 Z" fill="#000000" fill-rule="nonzero" fill-opacity="1" /><polyline clip-path="url(#clip880)" style="stroke:#008000; stroke-linecap:round; stroke-linejoin:round; stroke-width:6; stroke-opacity:1; fill:none" points="2782.17,1833.66 3000.63,1833.66 "/>
<path clip-path="url(#clip880)" d="M2891.4 1808.06 L2865.8 1833.66 L2891.4 1859.26 L2917 1833.66 L2891.4 1808.06 Z" fill="#008000" fill-rule="evenodd" fill-opacity="1" stroke="none"/>
<path clip-path="url(#clip880)" d="M3047.67 1814.96 Q3044.57 1820.29 3043.06 1825.5 Q3041.56 1830.7 3041.56 1836.05 Q3041.56 1841.4 3043.06 1846.65 Q3044.59 1851.88 3047.67 1857.19 L3043.97 1857.19 Q3040.49 1851.75 3038.76 1846.49 Q3037.05 1841.24 3037.05 1836.05 Q3037.05 1830.89 3038.76 1825.66 Q3040.47 1820.43 3043.97 1814.96 L3047.67 1814.96 Z" fill="#000000" fill-rule="nonzero" fill-opacity="1" /><path clip-path="url(#clip880)" d="M3067.72 1837.9 Q3062.55 1837.9 3060.56 1839.08 Q3058.57 1840.26 3058.57 1843.11 Q3058.57 1845.38 3060.05 1846.72 Q3061.56 1848.04 3064.13 1848.04 Q3067.67 1848.04 3069.8 1845.54 Q3071.95 1843.02 3071.95 1838.85 L3071.95 1837.9 L3067.72 1837.9 M3076.21 1836.14 L3076.21 1850.94 L3071.95 1850.94 L3071.95 1847 Q3070.49 1849.36 3068.32 1850.5 Q3066.14 1851.61 3062.99 1851.61 Q3059.01 1851.61 3056.65 1849.38 Q3054.31 1847.14 3054.31 1843.39 Q3054.31 1839.01 3057.23 1836.79 Q3060.17 1834.57 3065.98 1834.57 L3071.95 1834.57 L3071.95 1834.15 Q3071.95 1831.21 3070.01 1829.62 Q3068.09 1828 3064.59 1828 Q3062.37 1828 3060.26 1828.53 Q3058.16 1829.06 3056.21 1830.13 L3056.21 1826.19 Q3058.55 1825.29 3060.75 1824.85 Q3062.95 1824.38 3065.03 1824.38 Q3070.66 1824.38 3073.43 1827.3 Q3076.21 1830.22 3076.21 1836.14 Z" fill="#000000" fill-rule="nonzero" fill-opacity="1" /><path clip-path="url(#clip880)" d="M3102.05 1828.94 L3102.05 1814.92 L3106.3 1814.92 L3106.3 1850.94 L3102.05 1850.94 L3102.05 1847.05 Q3100.7 1849.36 3098.64 1850.5 Q3096.61 1851.61 3093.74 1851.61 Q3089.04 1851.61 3086.07 1847.86 Q3083.13 1844.11 3083.13 1838 Q3083.13 1831.88 3086.07 1828.13 Q3089.04 1824.38 3093.74 1824.38 Q3096.61 1824.38 3098.64 1825.52 Q3100.7 1826.63 3102.05 1828.94 M3087.53 1838 Q3087.53 1842.69 3089.45 1845.38 Q3091.4 1848.04 3094.78 1848.04 Q3098.16 1848.04 3100.1 1845.38 Q3102.05 1842.69 3102.05 1838 Q3102.05 1833.3 3100.1 1830.63 Q3098.16 1827.95 3094.78 1827.95 Q3091.4 1827.95 3089.45 1830.63 Q3087.53 1833.3 3087.53 1838 Z" fill="#000000" fill-rule="nonzero" fill-opacity="1" /><path clip-path="url(#clip880)" d="M3136.63 1835.29 L3136.63 1850.94 L3132.37 1850.94 L3132.37 1835.43 Q3132.37 1831.75 3130.93 1829.92 Q3129.5 1828.09 3126.63 1828.09 Q3123.18 1828.09 3121.19 1830.29 Q3119.2 1832.49 3119.2 1836.28 L3119.2 1850.94 L3114.92 1850.94 L3114.92 1825.01 L3119.2 1825.01 L3119.2 1829.04 Q3120.73 1826.7 3122.79 1825.54 Q3124.87 1824.38 3127.58 1824.38 Q3132.05 1824.38 3134.34 1827.16 Q3136.63 1829.92 3136.63 1835.29 Z" fill="#000000" fill-rule="nonzero" fill-opacity="1" /><path clip-path="url(#clip880)" d="M3145.12 1814.92 L3149.38 1814.92 L3149.38 1850.94 L3145.12 1850.94 L3145.12 1814.92 Z" fill="#000000" fill-rule="nonzero" fill-opacity="1" /><path clip-path="url(#clip880)" d="M3162.42 1847.05 L3162.42 1860.8 L3158.13 1860.8 L3158.13 1825.01 L3162.42 1825.01 L3162.42 1828.94 Q3163.76 1826.63 3165.79 1825.52 Q3167.86 1824.38 3170.7 1824.38 Q3175.42 1824.38 3178.36 1828.13 Q3181.33 1831.88 3181.33 1838 Q3181.33 1844.11 3178.36 1847.86 Q3175.42 1851.61 3170.7 1851.61 Q3167.86 1851.61 3165.79 1850.5 Q3163.76 1849.36 3162.42 1847.05 M3176.91 1838 Q3176.91 1833.3 3174.96 1830.63 Q3173.04 1827.95 3169.66 1827.95 Q3166.28 1827.95 3164.34 1830.63 Q3162.42 1833.3 3162.42 1838 Q3162.42 1842.69 3164.34 1845.38 Q3166.28 1848.04 3169.66 1848.04 Q3173.04 1848.04 3174.96 1845.38 Q3176.91 1842.69 3176.91 1838 Z" fill="#000000" fill-rule="nonzero" fill-opacity="1" /><path clip-path="url(#clip880)" d="M3189.48 1845.06 L3194.36 1845.06 L3194.36 1849.04 L3190.56 1856.44 L3187.58 1856.44 L3189.48 1849.04 L3189.48 1845.06 Z" fill="#000000" fill-rule="nonzero" fill-opacity="1" /><path clip-path="url(#clip880)" d="M3238.71 1829.99 Q3240.31 1827.12 3242.53 1825.75 Q3244.75 1824.38 3247.76 1824.38 Q3251.81 1824.38 3254.01 1827.23 Q3256.21 1830.06 3256.21 1835.29 L3256.21 1850.94 L3251.93 1850.94 L3251.93 1835.43 Q3251.93 1831.7 3250.61 1829.89 Q3249.29 1828.09 3246.58 1828.09 Q3243.27 1828.09 3241.35 1830.29 Q3239.43 1832.49 3239.43 1836.28 L3239.43 1850.94 L3235.15 1850.94 L3235.15 1835.43 Q3235.15 1831.68 3233.83 1829.89 Q3232.51 1828.09 3229.75 1828.09 Q3226.49 1828.09 3224.57 1830.31 Q3222.65 1832.51 3222.65 1836.28 L3222.65 1850.94 L3218.36 1850.94 L3218.36 1825.01 L3222.65 1825.01 L3222.65 1829.04 Q3224.1 1826.65 3226.14 1825.52 Q3228.18 1824.38 3230.98 1824.38 Q3233.8 1824.38 3235.77 1825.82 Q3237.76 1827.26 3238.71 1829.99 Z" fill="#000000" fill-rule="nonzero" fill-opacity="1" /><path clip-path="url(#clip880)" d="M3276.49 1837.9 Q3271.33 1837.9 3269.34 1839.08 Q3267.35 1840.26 3267.35 1843.11 Q3267.35 1845.38 3268.83 1846.72 Q3270.33 1848.04 3272.9 1848.04 Q3276.44 1848.04 3278.57 1845.54 Q3280.72 1843.02 3280.72 1838.85 L3280.72 1837.9 L3276.49 1837.9 M3284.98 1836.14 L3284.98 1850.94 L3280.72 1850.94 L3280.72 1847 Q3279.27 1849.36 3277.09 1850.5 Q3274.91 1851.61 3271.77 1851.61 Q3267.79 1851.61 3265.42 1849.38 Q3263.09 1847.14 3263.09 1843.39 Q3263.09 1839.01 3266 1836.79 Q3268.94 1834.57 3274.75 1834.57 L3280.72 1834.57 L3280.72 1834.15 Q3280.72 1831.21 3278.78 1829.62 Q3276.86 1828 3273.36 1828 Q3271.14 1828 3269.04 1828.53 Q3266.93 1829.06 3264.98 1830.13 L3264.98 1826.19 Q3267.32 1825.29 3269.52 1824.85 Q3271.72 1824.38 3273.8 1824.38 Q3279.43 1824.38 3282.21 1827.3 Q3284.98 1830.22 3284.98 1836.14 Z" fill="#000000" fill-rule="nonzero" fill-opacity="1" /><path clip-path="url(#clip880)" d="M3310.82 1828.94 L3310.82 1814.92 L3315.08 1814.92 L3315.08 1850.94 L3310.82 1850.94 L3310.82 1847.05 Q3309.47 1849.36 3307.41 1850.5 Q3305.38 1851.61 3302.51 1851.61 Q3297.81 1851.61 3294.85 1847.86 Q3291.91 1844.11 3291.91 1838 Q3291.91 1831.88 3294.85 1828.13 Q3297.81 1824.38 3302.51 1824.38 Q3305.38 1824.38 3307.41 1825.52 Q3309.47 1826.63 3310.82 1828.94 M3296.3 1838 Q3296.3 1842.69 3298.22 1845.38 Q3300.17 1848.04 3303.55 1848.04 Q3306.93 1848.04 3308.87 1845.38 Q3310.82 1842.69 3310.82 1838 Q3310.82 1833.3 3308.87 1830.63 Q3306.93 1827.95 3303.55 1827.95 Q3300.17 1827.95 3298.22 1830.63 Q3296.3 1833.3 3296.3 1838 Z" fill="#000000" fill-rule="nonzero" fill-opacity="1" /><path clip-path="url(#clip880)" d="M3345.4 1835.29 L3345.4 1850.94 L3341.14 1850.94 L3341.14 1835.43 Q3341.14 1831.75 3339.71 1829.92 Q3338.27 1828.09 3335.4 1828.09 Q3331.95 1828.09 3329.96 1830.29 Q3327.97 1832.49 3327.97 1836.28 L3327.97 1850.94 L3323.69 1850.94 L3323.69 1825.01 L3327.97 1825.01 L3327.97 1829.04 Q3329.5 1826.7 3331.56 1825.54 Q3333.64 1824.38 3336.35 1824.38 Q3340.82 1824.38 3343.11 1827.16 Q3345.4 1829.92 3345.4 1835.29 Z" fill="#000000" fill-rule="nonzero" fill-opacity="1" /><path clip-path="url(#clip880)" d="M3353.9 1814.92 L3358.16 1814.92 L3358.16 1850.94 L3353.9 1850.94 L3353.9 1814.92 Z" fill="#000000" fill-rule="nonzero" fill-opacity="1" /><path clip-path="url(#clip880)" d="M3371.19 1847.05 L3371.19 1860.8 L3366.9 1860.8 L3366.9 1825.01 L3371.19 1825.01 L3371.19 1828.94 Q3372.53 1826.63 3374.57 1825.52 Q3376.63 1824.38 3379.47 1824.38 Q3384.2 1824.38 3387.14 1828.13 Q3390.1 1831.88 3390.1 1838 Q3390.1 1844.11 3387.14 1847.86 Q3384.2 1851.61 3379.47 1851.61 Q3376.63 1851.61 3374.57 1850.5 Q3372.53 1849.36 3371.19 1847.05 M3385.68 1838 Q3385.68 1833.3 3383.73 1830.63 Q3381.81 1827.95 3378.43 1827.95 Q3375.05 1827.95 3373.11 1830.63 Q3371.19 1833.3 3371.19 1838 Q3371.19 1842.69 3373.11 1845.38 Q3375.05 1848.04 3378.43 1848.04 Q3381.81 1848.04 3383.73 1845.38 Q3385.68 1842.69 3385.68 1838 Z" fill="#000000" fill-rule="nonzero" fill-opacity="1" /><path clip-path="url(#clip880)" d="M3396.49 1814.96 L3400.19 1814.96 Q3403.66 1820.43 3405.38 1825.66 Q3407.11 1830.89 3407.11 1836.05 Q3407.11 1841.24 3405.38 1846.49 Q3403.66 1851.75 3400.19 1857.19 L3396.49 1857.19 Q3399.57 1851.88 3401.07 1846.65 Q3402.6 1841.4 3402.6 1836.05 Q3402.6 1830.7 3401.07 1825.5 Q3399.57 1820.29 3396.49 1814.96 Z" fill="#000000" fill-rule="nonzero" fill-opacity="1" /><polyline clip-path="url(#clip880)" style="stroke:#ff0000; stroke-linecap:round; stroke-linejoin:round; stroke-width:6; stroke-opacity:1; fill:none" points="2782.17,1885.5 3000.63,1885.5 "/>
<path clip-path="url(#clip880)" d="M2865.8 1859.9 L2865.8 1911.1 L2917 1911.1 L2917 1859.9 L2865.8 1859.9 Z" fill="#ff0000" fill-rule="evenodd" fill-opacity="1" stroke="none"/>
<path clip-path="url(#clip880)" d="M3047.67 1866.8 Q3044.57 1872.13 3043.06 1877.34 Q3041.56 1882.54 3041.56 1887.89 Q3041.56 1893.24 3043.06 1898.49 Q3044.59 1903.72 3047.67 1909.03 L3043.97 1909.03 Q3040.49 1903.59 3038.76 1898.33 Q3037.05 1893.08 3037.05 1887.89 Q3037.05 1882.73 3038.76 1877.5 Q3040.47 1872.27 3043.97 1866.8 L3047.67 1866.8 Z" fill="#000000" fill-rule="nonzero" fill-opacity="1" /><path clip-path="url(#clip880)" d="M3078.11 1888.75 L3078.11 1890.83 L3058.53 1890.83 Q3058.8 1895.23 3061.17 1897.54 Q3063.55 1899.84 3067.79 1899.84 Q3070.24 1899.84 3072.53 1899.23 Q3074.85 1898.63 3077.11 1897.43 L3077.11 1901.46 Q3074.82 1902.43 3072.42 1902.94 Q3070.01 1903.45 3067.53 1903.45 Q3061.33 1903.45 3057.69 1899.84 Q3054.08 1896.22 3054.08 1890.07 Q3054.08 1883.7 3057.51 1879.97 Q3060.96 1876.22 3066.79 1876.22 Q3072.02 1876.22 3075.05 1879.6 Q3078.11 1882.96 3078.11 1888.75 M3073.85 1887.5 Q3073.8 1884 3071.88 1881.92 Q3069.99 1879.84 3066.84 1879.84 Q3063.27 1879.84 3061.12 1881.85 Q3058.99 1883.86 3058.67 1887.52 L3073.85 1887.5 Z" fill="#000000" fill-rule="nonzero" fill-opacity="1" /><path clip-path="url(#clip880)" d="M3105.82 1876.85 L3096.44 1889.47 L3106.3 1902.78 L3101.28 1902.78 L3093.74 1892.59 L3086.19 1902.78 L3081.17 1902.78 L3091.24 1889.21 L3082.02 1876.85 L3087.05 1876.85 L3093.92 1886.09 L3100.8 1876.85 L3105.82 1876.85 Z" fill="#000000" fill-rule="nonzero" fill-opacity="1" /><path clip-path="url(#clip880)" d="M3124.11 1889.74 Q3118.94 1889.74 3116.95 1890.92 Q3114.96 1892.1 3114.96 1894.95 Q3114.96 1897.22 3116.44 1898.56 Q3117.95 1899.88 3120.52 1899.88 Q3124.06 1899.88 3126.19 1897.38 Q3128.34 1894.86 3128.34 1890.69 L3128.34 1889.74 L3124.11 1889.74 M3132.6 1887.98 L3132.6 1902.78 L3128.34 1902.78 L3128.34 1898.84 Q3126.88 1901.2 3124.71 1902.34 Q3122.53 1903.45 3119.38 1903.45 Q3115.4 1903.45 3113.04 1901.22 Q3110.7 1898.98 3110.7 1895.23 Q3110.7 1890.85 3113.62 1888.63 Q3116.56 1886.41 3122.37 1886.41 L3128.34 1886.41 L3128.34 1885.99 Q3128.34 1883.05 3126.4 1881.46 Q3124.48 1879.84 3120.98 1879.84 Q3118.76 1879.84 3116.65 1880.37 Q3114.55 1880.9 3112.6 1881.97 L3112.6 1878.03 Q3114.94 1877.13 3117.14 1876.69 Q3119.34 1876.22 3121.42 1876.22 Q3127.05 1876.22 3129.82 1879.14 Q3132.6 1882.06 3132.6 1887.98 Z" fill="#000000" fill-rule="nonzero" fill-opacity="1" /><path clip-path="url(#clip880)" d="M3142.46 1896.9 L3147.35 1896.9 L3147.35 1900.88 L3143.55 1908.28 L3140.56 1908.28 L3142.46 1900.88 L3142.46 1896.9 Z" fill="#000000" fill-rule="nonzero" fill-opacity="1" /><path clip-path="url(#clip880)" d="M3171.51 1876.85 L3175.77 1876.85 L3175.77 1902.78 L3171.51 1902.78 L3171.51 1876.85 M3171.51 1866.76 L3175.77 1866.76 L3175.77 1872.15 L3171.51 1872.15 L3171.51 1866.76 Z" fill="#000000" fill-rule="nonzero" fill-opacity="1" /><path clip-path="url(#clip880)" d="M3188.8 1898.89 L3188.8 1912.64 L3184.52 1912.64 L3184.52 1876.85 L3188.8 1876.85 L3188.8 1880.78 Q3190.15 1878.47 3192.18 1877.36 Q3194.24 1876.22 3197.09 1876.22 Q3201.81 1876.22 3204.75 1879.97 Q3207.72 1883.72 3207.72 1889.84 Q3207.72 1895.95 3204.75 1899.7 Q3201.81 1903.45 3197.09 1903.45 Q3194.24 1903.45 3192.18 1902.34 Q3190.15 1901.2 3188.8 1898.89 M3203.29 1889.84 Q3203.29 1885.14 3201.35 1882.47 Q3199.43 1879.79 3196.05 1879.79 Q3192.67 1879.79 3190.73 1882.47 Q3188.8 1885.14 3188.8 1889.84 Q3188.8 1894.53 3190.73 1897.22 Q3192.67 1899.88 3196.05 1899.88 Q3199.43 1899.88 3201.35 1897.22 Q3203.29 1894.53 3203.29 1889.84 Z" fill="#000000" fill-rule="nonzero" fill-opacity="1" /><path clip-path="url(#clip880)" d="M3224.82 1879.84 Q3221.4 1879.84 3219.41 1882.52 Q3217.42 1885.18 3217.42 1889.84 Q3217.42 1894.49 3219.38 1897.17 Q3221.37 1899.84 3224.82 1899.84 Q3228.23 1899.84 3230.22 1897.15 Q3232.21 1894.47 3232.21 1889.84 Q3232.21 1885.23 3230.22 1882.54 Q3228.23 1879.84 3224.82 1879.84 M3224.82 1876.22 Q3230.38 1876.22 3233.55 1879.84 Q3236.72 1883.45 3236.72 1889.84 Q3236.72 1896.2 3233.55 1899.84 Q3230.38 1903.45 3224.82 1903.45 Q3219.24 1903.45 3216.07 1899.84 Q3212.92 1896.2 3212.92 1889.84 Q3212.92 1883.45 3216.07 1879.84 Q3219.24 1876.22 3224.82 1876.22 Z" fill="#000000" fill-rule="nonzero" fill-opacity="1" /><path clip-path="url(#clip880)" d="M3247.9 1898.89 L3247.9 1912.64 L3243.62 1912.64 L3243.62 1876.85 L3247.9 1876.85 L3247.9 1880.78 Q3249.24 1878.47 3251.28 1877.36 Q3253.34 1876.22 3256.19 1876.22 Q3260.91 1876.22 3263.85 1879.97 Q3266.81 1883.72 3266.81 1889.84 Q3266.81 1895.95 3263.85 1899.7 Q3260.91 1903.45 3256.19 1903.45 Q3253.34 1903.45 3251.28 1902.34 Q3249.24 1901.2 3247.9 1898.89 M3262.39 1889.84 Q3262.39 1885.14 3260.45 1882.47 Q3258.53 1879.79 3255.15 1879.79 Q3251.77 1879.79 3249.82 1882.47 Q3247.9 1885.14 3247.9 1889.84 Q3247.9 1894.53 3249.82 1897.22 Q3251.77 1899.88 3255.15 1899.88 Q3258.53 1899.88 3260.45 1897.22 Q3262.39 1894.53 3262.39 1889.84 Z" fill="#000000" fill-rule="nonzero" fill-opacity="1" /><path clip-path="url(#clip880)" d="M3278.09 1869.49 L3278.09 1876.85 L3286.86 1876.85 L3286.86 1880.16 L3278.09 1880.16 L3278.09 1894.23 Q3278.09 1897.41 3278.94 1898.31 Q3279.82 1899.21 3282.48 1899.21 L3286.86 1899.21 L3286.86 1902.78 L3282.48 1902.78 Q3277.55 1902.78 3275.68 1900.95 Q3273.8 1899.1 3273.8 1894.23 L3273.8 1880.16 L3270.68 1880.16 L3270.68 1876.85 L3273.8 1876.85 L3273.8 1869.49 L3278.09 1869.49 Z" fill="#000000" fill-rule="nonzero" fill-opacity="1" /><path clip-path="url(#clip880)" d="M3291.79 1866.8 L3295.49 1866.8 Q3298.97 1872.27 3300.68 1877.5 Q3302.41 1882.73 3302.41 1887.89 Q3302.41 1893.08 3300.68 1898.33 Q3298.97 1903.59 3295.49 1909.03 L3291.79 1909.03 Q3294.87 1903.72 3296.37 1898.49 Q3297.9 1893.24 3297.9 1887.89 Q3297.9 1882.54 3296.37 1877.34 Q3294.87 1872.13 3291.79 1866.8 Z" fill="#000000" fill-rule="nonzero" fill-opacity="1" /><polyline clip-path="url(#clip880)" style="stroke:#ffa500; stroke-linecap:round; stroke-linejoin:round; stroke-width:6; stroke-opacity:1; fill:none" points="2782.17,1937.34 3000.63,1937.34 "/>
<path clip-path="url(#clip880)" d="M2891.4 1911.74 L2865.8 1962.94 L2917 1962.94 L2891.4 1911.74 Z" fill="#ffa500" fill-rule="evenodd" fill-opacity="1" stroke="none"/>
<path clip-path="url(#clip880)" d="M3047.67 1918.64 Q3044.57 1923.97 3043.06 1929.18 Q3041.56 1934.38 3041.56 1939.73 Q3041.56 1945.08 3043.06 1950.33 Q3044.59 1955.56 3047.67 1960.87 L3043.97 1960.87 Q3040.49 1955.43 3038.76 1950.17 Q3037.05 1944.92 3037.05 1939.73 Q3037.05 1934.57 3038.76 1929.34 Q3040.47 1924.11 3043.97 1918.64 L3047.67 1918.64 Z" fill="#000000" fill-rule="nonzero" fill-opacity="1" /><path clip-path="url(#clip880)" d="M3078.11 1940.59 L3078.11 1942.67 L3058.53 1942.67 Q3058.8 1947.07 3061.17 1949.38 Q3063.55 1951.68 3067.79 1951.68 Q3070.24 1951.68 3072.53 1951.07 Q3074.85 1950.47 3077.11 1949.27 L3077.11 1953.3 Q3074.82 1954.27 3072.42 1954.78 Q3070.01 1955.29 3067.53 1955.29 Q3061.33 1955.29 3057.69 1951.68 Q3054.08 1948.06 3054.08 1941.91 Q3054.08 1935.54 3057.51 1931.81 Q3060.96 1928.06 3066.79 1928.06 Q3072.02 1928.06 3075.05 1931.44 Q3078.11 1934.8 3078.11 1940.59 M3073.85 1939.34 Q3073.8 1935.84 3071.88 1933.76 Q3069.99 1931.68 3066.84 1931.68 Q3063.27 1931.68 3061.12 1933.69 Q3058.99 1935.7 3058.67 1939.36 L3073.85 1939.34 Z" fill="#000000" fill-rule="nonzero" fill-opacity="1" /><path clip-path="url(#clip880)" d="M3105.82 1928.69 L3096.44 1941.31 L3106.3 1954.62 L3101.28 1954.62 L3093.74 1944.43 L3086.19 1954.62 L3081.17 1954.62 L3091.24 1941.05 L3082.02 1928.69 L3087.05 1928.69 L3093.92 1937.93 L3100.8 1928.69 L3105.82 1928.69 Z" fill="#000000" fill-rule="nonzero" fill-opacity="1" /><path clip-path="url(#clip880)" d="M3124.11 1941.58 Q3118.94 1941.58 3116.95 1942.76 Q3114.96 1943.94 3114.96 1946.79 Q3114.96 1949.06 3116.44 1950.4 Q3117.95 1951.72 3120.52 1951.72 Q3124.06 1951.72 3126.19 1949.22 Q3128.34 1946.7 3128.34 1942.53 L3128.34 1941.58 L3124.11 1941.58 M3132.6 1939.82 L3132.6 1954.62 L3128.34 1954.62 L3128.34 1950.68 Q3126.88 1953.04 3124.71 1954.18 Q3122.53 1955.29 3119.38 1955.29 Q3115.4 1955.29 3113.04 1953.06 Q3110.7 1950.82 3110.7 1947.07 Q3110.7 1942.69 3113.62 1940.47 Q3116.56 1938.25 3122.37 1938.25 L3128.34 1938.25 L3128.34 1937.83 Q3128.34 1934.89 3126.4 1933.3 Q3124.48 1931.68 3120.98 1931.68 Q3118.76 1931.68 3116.65 1932.21 Q3114.55 1932.74 3112.6 1933.81 L3112.6 1929.87 Q3114.94 1928.97 3117.14 1928.53 Q3119.34 1928.06 3121.42 1928.06 Q3127.05 1928.06 3129.82 1930.98 Q3132.6 1933.9 3132.6 1939.82 Z" fill="#000000" fill-rule="nonzero" fill-opacity="1" /><path clip-path="url(#clip880)" d="M3142.46 1948.74 L3147.35 1948.74 L3147.35 1952.72 L3143.55 1960.12 L3140.56 1960.12 L3142.46 1952.72 L3142.46 1948.74 Z" fill="#000000" fill-rule="nonzero" fill-opacity="1" /><path clip-path="url(#clip880)" d="M3191.7 1933.67 Q3193.29 1930.8 3195.52 1929.43 Q3197.74 1928.06 3200.75 1928.06 Q3204.8 1928.06 3207 1930.91 Q3209.2 1933.74 3209.2 1938.97 L3209.2 1954.62 L3204.92 1954.62 L3204.92 1939.11 Q3204.92 1935.38 3203.6 1933.57 Q3202.28 1931.77 3199.57 1931.77 Q3196.26 1931.77 3194.34 1933.97 Q3192.42 1936.17 3192.42 1939.96 L3192.42 1954.62 L3188.13 1954.62 L3188.13 1939.11 Q3188.13 1935.36 3186.81 1933.57 Q3185.49 1931.77 3182.74 1931.77 Q3179.48 1931.77 3177.55 1933.99 Q3175.63 1936.19 3175.63 1939.96 L3175.63 1954.62 L3171.35 1954.62 L3171.35 1928.69 L3175.63 1928.69 L3175.63 1932.72 Q3177.09 1930.33 3179.13 1929.2 Q3181.17 1928.06 3183.97 1928.06 Q3186.79 1928.06 3188.76 1929.5 Q3190.75 1930.94 3191.7 1933.67 Z" fill="#000000" fill-rule="nonzero" fill-opacity="1" /><path clip-path="url(#clip880)" d="M3229.48 1941.58 Q3224.31 1941.58 3222.32 1942.76 Q3220.33 1943.94 3220.33 1946.79 Q3220.33 1949.06 3221.81 1950.4 Q3223.32 1951.72 3225.89 1951.72 Q3229.43 1951.72 3231.56 1949.22 Q3233.71 1946.7 3233.71 1942.53 L3233.71 1941.58 L3229.48 1941.58 M3237.97 1939.82 L3237.97 1954.62 L3233.71 1954.62 L3233.71 1950.68 Q3232.25 1953.04 3230.08 1954.18 Q3227.9 1955.29 3224.75 1955.29 Q3220.77 1955.29 3218.41 1953.06 Q3216.07 1950.82 3216.07 1947.07 Q3216.07 1942.69 3218.99 1940.47 Q3221.93 1938.25 3227.74 1938.25 L3233.71 1938.25 L3233.71 1937.83 Q3233.71 1934.89 3231.77 1933.3 Q3229.85 1931.68 3226.35 1931.68 Q3224.13 1931.68 3222.02 1932.21 Q3219.92 1932.74 3217.97 1933.81 L3217.97 1929.87 Q3220.31 1928.97 3222.51 1928.53 Q3224.71 1928.06 3226.79 1928.06 Q3232.41 1928.06 3235.19 1930.98 Q3237.97 1933.9 3237.97 1939.82 Z" fill="#000000" fill-rule="nonzero" fill-opacity="1" /><path clip-path="url(#clip880)" d="M3263.8 1932.62 L3263.8 1918.6 L3268.06 1918.6 L3268.06 1954.62 L3263.8 1954.62 L3263.8 1950.73 Q3262.46 1953.04 3260.4 1954.18 Q3258.36 1955.29 3255.49 1955.29 Q3250.79 1955.29 3247.83 1951.54 Q3244.89 1947.79 3244.89 1941.68 Q3244.89 1935.56 3247.83 1931.81 Q3250.79 1928.06 3255.49 1928.06 Q3258.36 1928.06 3260.4 1929.2 Q3262.46 1930.31 3263.8 1932.62 M3249.29 1941.68 Q3249.29 1946.37 3251.21 1949.06 Q3253.16 1951.72 3256.54 1951.72 Q3259.91 1951.72 3261.86 1949.06 Q3263.8 1946.37 3263.8 1941.68 Q3263.8 1936.98 3261.86 1934.31 Q3259.91 1931.63 3256.54 1931.63 Q3253.16 1931.63 3251.21 1934.31 Q3249.29 1936.98 3249.29 1941.68 Z" fill="#000000" fill-rule="nonzero" fill-opacity="1" /><path clip-path="url(#clip880)" d="M3298.39 1938.97 L3298.39 1954.62 L3294.13 1954.62 L3294.13 1939.11 Q3294.13 1935.43 3292.69 1933.6 Q3291.26 1931.77 3288.39 1931.77 Q3284.94 1931.77 3282.95 1933.97 Q3280.96 1936.17 3280.96 1939.96 L3280.96 1954.62 L3276.67 1954.62 L3276.67 1928.69 L3280.96 1928.69 L3280.96 1932.72 Q3282.48 1930.38 3284.54 1929.22 Q3286.63 1928.06 3289.34 1928.06 Q3293.8 1928.06 3296.1 1930.84 Q3298.39 1933.6 3298.39 1938.97 Z" fill="#000000" fill-rule="nonzero" fill-opacity="1" /><path clip-path="url(#clip880)" d="M3306.88 1918.6 L3311.14 1918.6 L3311.14 1954.62 L3306.88 1954.62 L3306.88 1918.6 Z" fill="#000000" fill-rule="nonzero" fill-opacity="1" /><path clip-path="url(#clip880)" d="M3324.17 1950.73 L3324.17 1964.48 L3319.89 1964.48 L3319.89 1928.69 L3324.17 1928.69 L3324.17 1932.62 Q3325.52 1930.31 3327.55 1929.2 Q3329.61 1928.06 3332.46 1928.06 Q3337.18 1928.06 3340.12 1931.81 Q3343.09 1935.56 3343.09 1941.68 Q3343.09 1947.79 3340.12 1951.54 Q3337.18 1955.29 3332.46 1955.29 Q3329.61 1955.29 3327.55 1954.18 Q3325.52 1953.04 3324.17 1950.73 M3338.66 1941.68 Q3338.66 1936.98 3336.72 1934.31 Q3334.8 1931.63 3331.42 1931.63 Q3328.04 1931.63 3326.1 1934.31 Q3324.17 1936.98 3324.17 1941.68 Q3324.17 1946.37 3326.1 1949.06 Q3328.04 1951.72 3331.42 1951.72 Q3334.8 1951.72 3336.72 1949.06 Q3338.66 1946.37 3338.66 1941.68 Z" fill="#000000" fill-rule="nonzero" fill-opacity="1" /><path clip-path="url(#clip880)" d="M3349.47 1918.64 L3353.18 1918.64 Q3356.65 1924.11 3358.36 1929.34 Q3360.1 1934.57 3360.1 1939.73 Q3360.1 1944.92 3358.36 1950.17 Q3356.65 1955.43 3353.18 1960.87 L3349.47 1960.87 Q3352.55 1955.56 3354.06 1950.33 Q3355.59 1945.08 3355.59 1939.73 Q3355.59 1934.38 3354.06 1929.18 Q3352.55 1923.97 3349.47 1918.64 Z" fill="#000000" fill-rule="nonzero" fill-opacity="1" /><polyline clip-path="url(#clip880)" style="stroke:#800080; stroke-linecap:round; stroke-linejoin:round; stroke-width:6; stroke-opacity:1; fill:none" points="2782.17,1989.18 3000.63,1989.18 "/>
<path clip-path="url(#clip880)" d="M2917 1963.58 L2865.8 1963.58 L2891.4 2014.78 L2917 1963.58 Z" fill="#800080" fill-rule="evenodd" fill-opacity="1" stroke="none"/>
<path clip-path="url(#clip880)" d="M3047.67 1970.48 Q3044.57 1975.81 3043.06 1981.02 Q3041.56 1986.22 3041.56 1991.57 Q3041.56 1996.92 3043.06 2002.17 Q3044.59 2007.4 3047.67 2012.71 L3043.97 2012.71 Q3040.49 2007.27 3038.76 2002.01 Q3037.05 1996.76 3037.05 1991.57 Q3037.05 1986.41 3038.76 1981.18 Q3040.47 1975.95 3043.97 1970.48 L3047.67 1970.48 Z" fill="#000000" fill-rule="nonzero" fill-opacity="1" /><path clip-path="url(#clip880)" d="M3055.93 1980.53 L3060.19 1980.53 L3060.19 2006.92 Q3060.19 2011.87 3058.3 2014.09 Q3056.42 2016.32 3052.23 2016.32 L3050.61 2016.32 L3050.61 2012.71 L3051.74 2012.71 Q3054.18 2012.71 3055.05 2011.57 Q3055.93 2010.46 3055.93 2006.92 L3055.93 1980.53 M3055.93 1970.44 L3060.19 1970.44 L3060.19 1975.83 L3055.93 1975.83 L3055.93 1970.44 Z" fill="#000000" fill-rule="nonzero" fill-opacity="1" /><path clip-path="url(#clip880)" d="M3068.67 1996.22 L3068.67 1980.53 L3072.93 1980.53 L3072.93 1996.06 Q3072.93 1999.74 3074.36 2001.59 Q3075.8 2003.42 3078.67 2003.42 Q3082.11 2003.42 3084.11 2001.22 Q3086.12 1999.03 3086.12 1995.23 L3086.12 1980.53 L3090.38 1980.53 L3090.38 2006.46 L3086.12 2006.46 L3086.12 2002.47 Q3084.57 2004.84 3082.51 2005.99 Q3080.47 2007.13 3077.76 2007.13 Q3073.3 2007.13 3070.98 2004.35 Q3068.67 2001.57 3068.67 1996.22 M3079.38 1979.9 L3079.38 1979.9 Z" fill="#000000" fill-rule="nonzero" fill-opacity="1" /><path clip-path="url(#clip880)" d="M3119.34 1985.51 Q3120.93 1982.64 3123.16 1981.27 Q3125.38 1979.9 3128.39 1979.9 Q3132.44 1979.9 3134.64 1982.75 Q3136.84 1985.58 3136.84 1990.81 L3136.84 2006.46 L3132.55 2006.46 L3132.55 1990.95 Q3132.55 1987.22 3131.23 1985.41 Q3129.92 1983.61 3127.21 1983.61 Q3123.9 1983.61 3121.98 1985.81 Q3120.05 1988.01 3120.05 1991.8 L3120.05 2006.46 L3115.77 2006.46 L3115.77 1990.95 Q3115.77 1987.2 3114.45 1985.41 Q3113.13 1983.61 3110.38 1983.61 Q3107.11 1983.61 3105.19 1985.83 Q3103.27 1988.03 3103.27 1991.8 L3103.27 2006.46 L3098.99 2006.46 L3098.99 1980.53 L3103.27 1980.53 L3103.27 1984.56 Q3104.73 1982.17 3106.77 1981.04 Q3108.8 1979.9 3111.61 1979.9 Q3114.43 1979.9 3116.4 1981.34 Q3118.39 1982.78 3119.34 1985.51 Z" fill="#000000" fill-rule="nonzero" fill-opacity="1" /><path clip-path="url(#clip880)" d="M3149.45 2002.57 L3149.45 2016.32 L3145.17 2016.32 L3145.17 1980.53 L3149.45 1980.53 L3149.45 1984.46 Q3150.8 1982.15 3152.83 1981.04 Q3154.89 1979.9 3157.74 1979.9 Q3162.46 1979.9 3165.4 1983.65 Q3168.36 1987.4 3168.36 1993.52 Q3168.36 1999.63 3165.4 2003.38 Q3162.46 2007.13 3157.74 2007.13 Q3154.89 2007.13 3152.83 2006.02 Q3150.8 2004.88 3149.45 2002.57 M3163.94 1993.52 Q3163.94 1988.82 3162 1986.15 Q3160.08 1983.47 3156.7 1983.47 Q3153.32 1983.47 3151.37 1986.15 Q3149.45 1988.82 3149.45 1993.52 Q3149.45 1998.21 3151.37 2000.9 Q3153.32 2003.56 3156.7 2003.56 Q3160.08 2003.56 3162 2000.9 Q3163.94 1998.21 3163.94 1993.52 Z" fill="#000000" fill-rule="nonzero" fill-opacity="1" /><path clip-path="url(#clip880)" d="M3176.51 2000.58 L3181.4 2000.58 L3181.4 2004.56 L3177.6 2011.96 L3174.61 2011.96 L3176.51 2004.56 L3176.51 2000.58 Z" fill="#000000" fill-rule="nonzero" fill-opacity="1" /><path clip-path="url(#clip880)" d="M3205.56 1980.53 L3209.82 1980.53 L3209.82 2006.46 L3205.56 2006.46 L3205.56 1980.53 M3205.56 1970.44 L3209.82 1970.44 L3209.82 1975.83 L3205.56 1975.83 L3205.56 1970.44 Z" fill="#000000" fill-rule="nonzero" fill-opacity="1" /><path clip-path="url(#clip880)" d="M3222.85 2002.57 L3222.85 2016.32 L3218.57 2016.32 L3218.57 1980.53 L3222.85 1980.53 L3222.85 1984.46 Q3224.2 1982.15 3226.23 1981.04 Q3228.29 1979.9 3231.14 1979.9 Q3235.86 1979.9 3238.8 1983.65 Q3241.77 1987.4 3241.77 1993.52 Q3241.77 1999.63 3238.8 2003.38 Q3235.86 2007.13 3231.14 2007.13 Q3228.29 2007.13 3226.23 2006.02 Q3224.2 2004.88 3222.85 2002.57 M3237.35 1993.52 Q3237.35 1988.82 3235.4 1986.15 Q3233.48 1983.47 3230.1 1983.47 Q3226.72 1983.47 3224.78 1986.15 Q3222.85 1988.82 3222.85 1993.52 Q3222.85 1998.21 3224.78 2000.9 Q3226.72 2003.56 3230.1 2003.56 Q3233.48 2003.56 3235.4 2000.9 Q3237.35 1998.21 3237.35 1993.52 Z" fill="#000000" fill-rule="nonzero" fill-opacity="1" /><path clip-path="url(#clip880)" d="M3258.87 1983.52 Q3255.45 1983.52 3253.46 1986.2 Q3251.47 1988.86 3251.47 1993.52 Q3251.47 1998.17 3253.43 2000.85 Q3255.42 2003.52 3258.87 2003.52 Q3262.28 2003.52 3264.27 2000.83 Q3266.26 1998.15 3266.26 1993.52 Q3266.26 1988.91 3264.27 1986.22 Q3262.28 1983.52 3258.87 1983.52 M3258.87 1979.9 Q3264.43 1979.9 3267.6 1983.52 Q3270.77 1987.13 3270.77 1993.52 Q3270.77 1999.88 3267.6 2003.52 Q3264.43 2007.13 3258.87 2007.13 Q3253.29 2007.13 3250.12 2003.52 Q3246.98 1999.88 3246.98 1993.52 Q3246.98 1987.13 3250.12 1983.52 Q3253.29 1979.9 3258.87 1979.9 Z" fill="#000000" fill-rule="nonzero" fill-opacity="1" /><path clip-path="url(#clip880)" d="M3281.95 2002.57 L3281.95 2016.32 L3277.67 2016.32 L3277.67 1980.53 L3281.95 1980.53 L3281.95 1984.46 Q3283.29 1982.15 3285.33 1981.04 Q3287.39 1979.9 3290.24 1979.9 Q3294.96 1979.9 3297.9 1983.65 Q3300.86 1987.4 3300.86 1993.52 Q3300.86 1999.63 3297.9 2003.38 Q3294.96 2007.13 3290.24 2007.13 Q3287.39 2007.13 3285.33 2006.02 Q3283.29 2004.88 3281.95 2002.57 M3296.44 1993.52 Q3296.44 1988.82 3294.5 1986.15 Q3292.58 1983.47 3289.2 1983.47 Q3285.82 1983.47 3283.87 1986.15 Q3281.95 1988.82 3281.95 1993.52 Q3281.95 1998.21 3283.87 2000.9 Q3285.82 2003.56 3289.2 2003.56 Q3292.58 2003.56 3294.5 2000.9 Q3296.44 1998.21 3296.44 1993.52 Z" fill="#000000" fill-rule="nonzero" fill-opacity="1" /><path clip-path="url(#clip880)" d="M3312.14 1973.17 L3312.14 1980.53 L3320.91 1980.53 L3320.91 1983.84 L3312.14 1983.84 L3312.14 1997.91 Q3312.14 2001.09 3312.99 2001.99 Q3313.87 2002.89 3316.53 2002.89 L3320.91 2002.89 L3320.91 2006.46 L3316.53 2006.46 Q3311.6 2006.46 3309.73 2004.63 Q3307.85 2002.78 3307.85 1997.91 L3307.85 1983.84 L3304.73 1983.84 L3304.73 1980.53 L3307.85 1980.53 L3307.85 1973.17 L3312.14 1973.17 Z" fill="#000000" fill-rule="nonzero" fill-opacity="1" /><path clip-path="url(#clip880)" d="M3325.84 1970.48 L3329.54 1970.48 Q3333.02 1975.95 3334.73 1981.18 Q3336.47 1986.41 3336.47 1991.57 Q3336.47 1996.76 3334.73 2002.01 Q3333.02 2007.27 3329.54 2012.71 L3325.84 2012.71 Q3328.92 2007.4 3330.42 2002.17 Q3331.95 1996.92 3331.95 1991.57 Q3331.95 1986.22 3330.42 1981.02 Q3328.92 1975.81 3325.84 1970.48 Z" fill="#000000" fill-rule="nonzero" fill-opacity="1" /><polyline clip-path="url(#clip880)" style="stroke:#a52a2a; stroke-linecap:round; stroke-linejoin:round; stroke-width:6; stroke-opacity:1; fill:none" points="2782.17,2041.02 3000.63,2041.02 "/>
<path clip-path="url(#clip880)" d="M2891.4 2015.42 L2885.39 2032.72 L2867.06 2033.11 L2881.67 2044.19 L2876.35 2061.73 L2891.4 2051.26 L2906.46 2061.73 L2901.13 2044.19 L2915.75 2033.11 L2897.42 2032.72 L2891.4 2015.42 Z" fill="#a52a2a" fill-rule="evenodd" fill-opacity="1" stroke="none"/>
<path clip-path="url(#clip880)" d="M3047.67 2022.32 Q3044.57 2027.65 3043.06 2032.86 Q3041.56 2038.06 3041.56 2043.41 Q3041.56 2048.76 3043.06 2054.01 Q3044.59 2059.24 3047.67 2064.55 L3043.97 2064.55 Q3040.49 2059.11 3038.76 2053.85 Q3037.05 2048.6 3037.05 2043.41 Q3037.05 2038.25 3038.76 2033.02 Q3040.47 2027.79 3043.97 2022.32 L3047.67 2022.32 Z" fill="#000000" fill-rule="nonzero" fill-opacity="1" /><path clip-path="url(#clip880)" d="M3055.93 2032.37 L3060.19 2032.37 L3060.19 2058.76 Q3060.19 2063.71 3058.3 2065.93 Q3056.42 2068.16 3052.23 2068.16 L3050.61 2068.16 L3050.61 2064.55 L3051.74 2064.55 Q3054.18 2064.55 3055.05 2063.41 Q3055.93 2062.3 3055.93 2058.76 L3055.93 2032.37 M3055.93 2022.28 L3060.19 2022.28 L3060.19 2027.67 L3055.93 2027.67 L3055.93 2022.28 Z" fill="#000000" fill-rule="nonzero" fill-opacity="1" /><path clip-path="url(#clip880)" d="M3068.67 2048.06 L3068.67 2032.37 L3072.93 2032.37 L3072.93 2047.9 Q3072.93 2051.58 3074.36 2053.43 Q3075.8 2055.26 3078.67 2055.26 Q3082.11 2055.26 3084.11 2053.06 Q3086.12 2050.87 3086.12 2047.07 L3086.12 2032.37 L3090.38 2032.37 L3090.38 2058.3 L3086.12 2058.3 L3086.12 2054.31 Q3084.57 2056.68 3082.51 2057.83 Q3080.47 2058.97 3077.76 2058.97 Q3073.3 2058.97 3070.98 2056.19 Q3068.67 2053.41 3068.67 2048.06 M3079.38 2031.74 L3079.38 2031.74 Z" fill="#000000" fill-rule="nonzero" fill-opacity="1" /><path clip-path="url(#clip880)" d="M3119.34 2037.35 Q3120.93 2034.48 3123.16 2033.11 Q3125.38 2031.74 3128.39 2031.74 Q3132.44 2031.74 3134.64 2034.59 Q3136.84 2037.42 3136.84 2042.65 L3136.84 2058.3 L3132.55 2058.3 L3132.55 2042.79 Q3132.55 2039.06 3131.23 2037.25 Q3129.92 2035.45 3127.21 2035.45 Q3123.9 2035.45 3121.98 2037.65 Q3120.05 2039.85 3120.05 2043.64 L3120.05 2058.3 L3115.77 2058.3 L3115.77 2042.79 Q3115.77 2039.04 3114.45 2037.25 Q3113.13 2035.45 3110.38 2035.45 Q3107.11 2035.45 3105.19 2037.67 Q3103.27 2039.87 3103.27 2043.64 L3103.27 2058.3 L3098.99 2058.3 L3098.99 2032.37 L3103.27 2032.37 L3103.27 2036.4 Q3104.73 2034.01 3106.77 2032.88 Q3108.8 2031.74 3111.61 2031.74 Q3114.43 2031.74 3116.4 2033.18 Q3118.39 2034.62 3119.34 2037.35 Z" fill="#000000" fill-rule="nonzero" fill-opacity="1" /><path clip-path="url(#clip880)" d="M3149.45 2054.41 L3149.45 2068.16 L3145.17 2068.16 L3145.17 2032.37 L3149.45 2032.37 L3149.45 2036.3 Q3150.8 2033.99 3152.83 2032.88 Q3154.89 2031.74 3157.74 2031.74 Q3162.46 2031.74 3165.4 2035.49 Q3168.36 2039.24 3168.36 2045.36 Q3168.36 2051.47 3165.4 2055.22 Q3162.46 2058.97 3157.74 2058.97 Q3154.89 2058.97 3152.83 2057.86 Q3150.8 2056.72 3149.45 2054.41 M3163.94 2045.36 Q3163.94 2040.66 3162 2037.99 Q3160.08 2035.31 3156.7 2035.31 Q3153.32 2035.31 3151.37 2037.99 Q3149.45 2040.66 3149.45 2045.36 Q3149.45 2050.05 3151.37 2052.74 Q3153.32 2055.4 3156.7 2055.4 Q3160.08 2055.4 3162 2052.74 Q3163.94 2050.05 3163.94 2045.36 Z" fill="#000000" fill-rule="nonzero" fill-opacity="1" /><path clip-path="url(#clip880)" d="M3176.51 2052.42 L3181.4 2052.42 L3181.4 2056.4 L3177.6 2063.8 L3174.61 2063.8 L3176.51 2056.4 L3176.51 2052.42 Z" fill="#000000" fill-rule="nonzero" fill-opacity="1" /><path clip-path="url(#clip880)" d="M3225.75 2037.35 Q3227.35 2034.48 3229.57 2033.11 Q3231.79 2031.74 3234.8 2031.74 Q3238.85 2031.74 3241.05 2034.59 Q3243.25 2037.42 3243.25 2042.65 L3243.25 2058.3 L3238.97 2058.3 L3238.97 2042.79 Q3238.97 2039.06 3237.65 2037.25 Q3236.33 2035.45 3233.62 2035.45 Q3230.31 2035.45 3228.39 2037.65 Q3226.47 2039.85 3226.47 2043.64 L3226.47 2058.3 L3222.18 2058.3 L3222.18 2042.79 Q3222.18 2039.04 3220.86 2037.25 Q3219.54 2035.45 3216.79 2035.45 Q3213.53 2035.45 3211.6 2037.67 Q3209.68 2039.87 3209.68 2043.64 L3209.68 2058.3 L3205.4 2058.3 L3205.4 2032.37 L3209.68 2032.37 L3209.68 2036.4 Q3211.14 2034.01 3213.18 2032.88 Q3215.22 2031.74 3218.02 2031.74 Q3220.84 2031.74 3222.81 2033.18 Q3224.8 2034.62 3225.75 2037.35 Z" fill="#000000" fill-rule="nonzero" fill-opacity="1" /><path clip-path="url(#clip880)" d="M3263.53 2045.26 Q3258.36 2045.26 3256.37 2046.44 Q3254.38 2047.62 3254.38 2050.47 Q3254.38 2052.74 3255.86 2054.08 Q3257.37 2055.4 3259.94 2055.4 Q3263.48 2055.4 3265.61 2052.9 Q3267.76 2050.38 3267.76 2046.21 L3267.76 2045.26 L3263.53 2045.26 M3272.02 2043.5 L3272.02 2058.3 L3267.76 2058.3 L3267.76 2054.36 Q3266.3 2056.72 3264.13 2057.86 Q3261.95 2058.97 3258.8 2058.97 Q3254.82 2058.97 3252.46 2056.74 Q3250.12 2054.5 3250.12 2050.75 Q3250.12 2046.37 3253.04 2044.15 Q3255.98 2041.93 3261.79 2041.93 L3267.76 2041.93 L3267.76 2041.51 Q3267.76 2038.57 3265.82 2036.98 Q3263.9 2035.36 3260.4 2035.36 Q3258.18 2035.36 3256.07 2035.89 Q3253.97 2036.42 3252.02 2037.49 L3252.02 2033.55 Q3254.36 2032.65 3256.56 2032.21 Q3258.76 2031.74 3260.84 2031.74 Q3266.47 2031.74 3269.24 2034.66 Q3272.02 2037.58 3272.02 2043.5 Z" fill="#000000" fill-rule="nonzero" fill-opacity="1" /><path clip-path="url(#clip880)" d="M3297.85 2036.3 L3297.85 2022.28 L3302.11 2022.28 L3302.11 2058.3 L3297.85 2058.3 L3297.85 2054.41 Q3296.51 2056.72 3294.45 2057.86 Q3292.41 2058.97 3289.54 2058.97 Q3284.85 2058.97 3281.88 2055.22 Q3278.94 2051.47 3278.94 2045.36 Q3278.94 2039.24 3281.88 2035.49 Q3284.85 2031.74 3289.54 2031.74 Q3292.41 2031.74 3294.45 2032.88 Q3296.51 2033.99 3297.85 2036.3 M3283.34 2045.36 Q3283.34 2050.05 3285.26 2052.74 Q3287.21 2055.4 3290.59 2055.4 Q3293.97 2055.4 3295.91 2052.74 Q3297.85 2050.05 3297.85 2045.36 Q3297.85 2040.66 3295.91 2037.99 Q3293.97 2035.31 3290.59 2035.31 Q3287.21 2035.31 3285.26 2037.99 Q3283.34 2040.66 3283.34 2045.36 Z" fill="#000000" fill-rule="nonzero" fill-opacity="1" /><path clip-path="url(#clip880)" d="M3332.44 2042.65 L3332.44 2058.3 L3328.18 2058.3 L3328.18 2042.79 Q3328.18 2039.11 3326.74 2037.28 Q3325.31 2035.45 3322.44 2035.45 Q3318.99 2035.45 3317 2037.65 Q3315.01 2039.85 3315.01 2043.64 L3315.01 2058.3 L3310.72 2058.3 L3310.72 2032.37 L3315.01 2032.37 L3315.01 2036.4 Q3316.53 2034.06 3318.6 2032.9 Q3320.68 2031.74 3323.39 2031.74 Q3327.85 2031.74 3330.15 2034.52 Q3332.44 2037.28 3332.44 2042.65 Z" fill="#000000" fill-rule="nonzero" fill-opacity="1" /><path clip-path="url(#clip880)" d="M3340.93 2022.28 L3345.19 2022.28 L3345.19 2058.3 L3340.93 2058.3 L3340.93 2022.28 Z" fill="#000000" fill-rule="nonzero" fill-opacity="1" /><path clip-path="url(#clip880)" d="M3358.22 2054.41 L3358.22 2068.16 L3353.94 2068.16 L3353.94 2032.37 L3358.22 2032.37 L3358.22 2036.3 Q3359.57 2033.99 3361.6 2032.88 Q3363.66 2031.74 3366.51 2031.74 Q3371.23 2031.74 3374.17 2035.49 Q3377.14 2039.24 3377.14 2045.36 Q3377.14 2051.47 3374.17 2055.22 Q3371.23 2058.97 3366.51 2058.97 Q3363.66 2058.97 3361.6 2057.86 Q3359.57 2056.72 3358.22 2054.41 M3372.72 2045.36 Q3372.72 2040.66 3370.77 2037.99 Q3368.85 2035.31 3365.47 2035.31 Q3362.09 2035.31 3360.15 2037.99 Q3358.22 2040.66 3358.22 2045.36 Q3358.22 2050.05 3360.15 2052.74 Q3362.09 2055.4 3365.47 2055.4 Q3368.85 2055.4 3370.77 2052.74 Q3372.72 2050.05 3372.72 2045.36 Z" fill="#000000" fill-rule="nonzero" fill-opacity="1" /><path clip-path="url(#clip880)" d="M3383.53 2022.32 L3387.23 2022.32 Q3390.7 2027.79 3392.41 2033.02 Q3394.15 2038.25 3394.15 2043.41 Q3394.15 2048.6 3392.41 2053.85 Q3390.7 2059.11 3387.23 2064.55 L3383.53 2064.55 Q3386.6 2059.24 3388.11 2054.01 Q3389.64 2048.76 3389.64 2043.41 Q3389.64 2038.06 3388.11 2032.86 Q3386.6 2027.65 3383.53 2022.32 Z" fill="#000000" fill-rule="nonzero" fill-opacity="1" /></svg>
