<?xml version="1.0" encoding="utf-8"?>
<svg xmlns="http://www.w3.org/2000/svg" xmlns:xlink="http://www.w3.org/1999/xlink" width="900" height="600" viewBox="0 0 3600 2400">
<defs>
  <clipPath id="clip300">
    <rect x="0" y="0" width="3600" height="2400"/>
  </clipPath>
</defs>
<path clip-path="url(#clip300)" d="M0 2400 L3600 2400 L3600 0 L0 0  Z" fill="#ffffff" fill-rule="evenodd" fill-opacity="1"/>
<defs>
  <clipPath id="clip301">
    <rect x="720" y="0" width="2521" height="2400"/>
  </clipPath>
</defs>
<path clip-path="url(#clip300)" d="M290.538 2156.51 L3552.76 2156.51 L3552.76 246.944 L290.538 246.944  Z" fill="#ffffff" fill-rule="evenodd" fill-opacity="1"/>
<defs>
  <clipPath id="clip302">
    <rect x="290" y="246" width="3263" height="1911"/>
  </clipPath>
</defs>
<polyline clip-path="url(#clip302)" style="stroke:#000000; stroke-linecap:round; stroke-linejoin:round; stroke-width:2; stroke-opacity:0.1; fill:none" points="438.821,2156.51 438.821,246.944 "/>
<polyline clip-path="url(#clip302)" style="stroke:#000000; stroke-linecap:round; stroke-linejoin:round; stroke-width:2; stroke-opacity:0.1; fill:none" points="933.096,2156.51 933.096,246.944 "/>
<polyline clip-path="url(#clip302)" style="stroke:#000000; stroke-linecap:round; stroke-linejoin:round; stroke-width:2; stroke-opacity:0.1; fill:none" points="1756.89,2156.51 1756.89,246.944 "/>
<polyline clip-path="url(#clip302)" style="stroke:#000000; stroke-linecap:round; stroke-linejoin:round; stroke-width:2; stroke-opacity:0.1; fill:none" points="3404.47,2156.51 3404.47,246.944 "/>
<polyline clip-path="url(#clip302)" style="stroke:#000000; stroke-linecap:round; stroke-linejoin:round; stroke-width:2; stroke-opacity:0.1; fill:none" points="290.538,1949.04 3552.76,1949.04 "/>
<polyline clip-path="url(#clip302)" style="stroke:#000000; stroke-linecap:round; stroke-linejoin:round; stroke-width:2; stroke-opacity:0.1; fill:none" points="290.538,1658.16 3552.76,1658.16 "/>
<polyline clip-path="url(#clip302)" style="stroke:#000000; stroke-linecap:round; stroke-linejoin:round; stroke-width:2; stroke-opacity:0.1; fill:none" points="290.538,1367.27 3552.76,1367.27 "/>
<polyline clip-path="url(#clip302)" style="stroke:#000000; stroke-linecap:round; stroke-linejoin:round; stroke-width:2; stroke-opacity:0.1; fill:none" points="290.538,1076.39 3552.76,1076.39 "/>
<polyline clip-path="url(#clip302)" style="stroke:#000000; stroke-linecap:round; stroke-linejoin:round; stroke-width:2; stroke-opacity:0.1; fill:none" points="290.538,785.506 3552.76,785.506 "/>
<polyline clip-path="url(#clip302)" style="stroke:#000000; stroke-linecap:round; stroke-linejoin:round; stroke-width:2; stroke-opacity:0.1; fill:none" points="290.538,494.622 3552.76,494.622 "/>
<polyline clip-path="url(#clip300)" style="stroke:#000000; stroke-linecap:round; stroke-linejoin:round; stroke-width:4; stroke-opacity:1; fill:none" points="290.538,2156.51 3552.76,2156.51 "/>
<polyline clip-path="url(#clip300)" style="stroke:#000000; stroke-linecap:round; stroke-linejoin:round; stroke-width:4; stroke-opacity:1; fill:none" points="438.821,2156.51 438.821,2137.61 "/>
<polyline clip-path="url(#clip300)" style="stroke:#000000; stroke-linecap:round; stroke-linejoin:round; stroke-width:4; stroke-opacity:1; fill:none" points="933.096,2156.51 933.096,2137.61 "/>
<polyline clip-path="url(#clip300)" style="stroke:#000000; stroke-linecap:round; stroke-linejoin:round; stroke-width:4; stroke-opacity:1; fill:none" points="1756.89,2156.51 1756.89,2137.61 "/>
<polyline clip-path="url(#clip300)" style="stroke:#000000; stroke-linecap:round; stroke-linejoin:round; stroke-width:4; stroke-opacity:1; fill:none" points="3404.47,2156.51 3404.47,2137.61 "/>
<path clip-path="url(#clip300)" d="M402.513 2224.57 L418.833 2224.57 L418.833 2228.51 L396.888 2228.51 L396.888 2224.57 Q399.55 2221.82 404.134 2217.19 Q408.74 2212.54 409.921 2211.19 Q412.166 2208.67 413.046 2206.93 Q413.948 2205.17 413.948 2203.48 Q413.948 2200.73 412.004 2198.99 Q410.083 2197.26 406.981 2197.26 Q404.782 2197.26 402.328 2198.02 Q399.898 2198.79 397.12 2200.34 L397.12 2195.61 Q399.944 2194.48 402.398 2193.9 Q404.851 2193.32 406.888 2193.32 Q412.259 2193.32 415.453 2196.01 Q418.648 2198.69 418.648 2203.18 Q418.648 2205.31 417.837 2207.23 Q417.05 2209.13 414.944 2211.73 Q414.365 2212.4 411.263 2215.61 Q408.161 2218.81 402.513 2224.57 Z" fill="#000000" fill-rule="nonzero" fill-opacity="1" /><path clip-path="url(#clip300)" d="M438.647 2197.03 Q435.036 2197.03 433.208 2200.59 Q431.402 2204.13 431.402 2211.26 Q431.402 2218.37 433.208 2221.93 Q435.036 2225.48 438.647 2225.48 Q442.282 2225.48 444.087 2221.93 Q445.916 2218.37 445.916 2211.26 Q445.916 2204.13 444.087 2200.59 Q442.282 2197.03 438.647 2197.03 M438.647 2193.32 Q444.458 2193.32 447.513 2197.93 Q450.592 2202.51 450.592 2211.26 Q450.592 2219.99 447.513 2224.6 Q444.458 2229.18 438.647 2229.18 Q432.837 2229.18 429.759 2224.6 Q426.703 2219.99 426.703 2211.26 Q426.703 2202.51 429.759 2197.93 Q432.837 2193.32 438.647 2193.32 Z" fill="#000000" fill-rule="nonzero" fill-opacity="1" /><path clip-path="url(#clip300)" d="M468.809 2197.03 Q465.198 2197.03 463.369 2200.59 Q461.564 2204.13 461.564 2211.26 Q461.564 2218.37 463.369 2221.93 Q465.198 2225.48 468.809 2225.48 Q472.444 2225.48 474.249 2221.93 Q476.078 2218.37 476.078 2211.26 Q476.078 2204.13 474.249 2200.59 Q472.444 2197.03 468.809 2197.03 M468.809 2193.32 Q474.619 2193.32 477.675 2197.93 Q480.754 2202.51 480.754 2211.26 Q480.754 2219.99 477.675 2224.6 Q474.619 2229.18 468.809 2229.18 Q462.999 2229.18 459.92 2224.6 Q456.865 2219.99 456.865 2211.26 Q456.865 2202.51 459.92 2197.93 Q462.999 2193.32 468.809 2193.32 Z" fill="#000000" fill-rule="nonzero" fill-opacity="1" /><path clip-path="url(#clip300)" d="M892.715 2193.95 L911.071 2193.95 L911.071 2197.88 L896.997 2197.88 L896.997 2206.36 Q898.016 2206.01 899.034 2205.85 Q900.053 2205.66 901.071 2205.66 Q906.858 2205.66 910.238 2208.83 Q913.617 2212 913.617 2217.42 Q913.617 2223 910.145 2226.1 Q906.673 2229.18 900.354 2229.18 Q898.178 2229.18 895.909 2228.81 Q893.664 2228.44 891.256 2227.7 L891.256 2223 Q893.34 2224.13 895.562 2224.69 Q897.784 2225.24 900.261 2225.24 Q904.266 2225.24 906.603 2223.14 Q908.941 2221.03 908.941 2217.42 Q908.941 2213.81 906.603 2211.7 Q904.266 2209.6 900.261 2209.6 Q898.386 2209.6 896.511 2210.01 Q894.659 2210.43 892.715 2211.31 L892.715 2193.95 Z" fill="#000000" fill-rule="nonzero" fill-opacity="1" /><path clip-path="url(#clip300)" d="M932.83 2197.03 Q929.219 2197.03 927.39 2200.59 Q925.585 2204.13 925.585 2211.26 Q925.585 2218.37 927.39 2221.93 Q929.219 2225.48 932.83 2225.48 Q936.464 2225.48 938.27 2221.93 Q940.099 2218.37 940.099 2211.26 Q940.099 2204.13 938.27 2200.59 Q936.464 2197.03 932.83 2197.03 M932.83 2193.32 Q938.64 2193.32 941.696 2197.93 Q944.775 2202.51 944.775 2211.26 Q944.775 2219.99 941.696 2224.6 Q938.64 2229.18 932.83 2229.18 Q927.02 2229.18 923.941 2224.6 Q920.886 2219.99 920.886 2211.26 Q920.886 2202.51 923.941 2197.93 Q927.02 2193.32 932.83 2193.32 Z" fill="#000000" fill-rule="nonzero" fill-opacity="1" /><path clip-path="url(#clip300)" d="M962.992 2197.03 Q959.381 2197.03 957.552 2200.59 Q955.747 2204.13 955.747 2211.26 Q955.747 2218.37 957.552 2221.93 Q959.381 2225.48 962.992 2225.48 Q966.626 2225.48 968.432 2221.93 Q970.261 2218.37 970.261 2211.26 Q970.261 2204.13 968.432 2200.59 Q966.626 2197.03 962.992 2197.03 M962.992 2193.32 Q968.802 2193.32 971.858 2197.93 Q974.936 2202.51 974.936 2211.26 Q974.936 2219.99 971.858 2224.6 Q968.802 2229.18 962.992 2229.18 Q957.182 2229.18 954.103 2224.6 Q951.048 2219.99 951.048 2211.26 Q951.048 2202.51 954.103 2197.93 Q957.182 2193.32 962.992 2193.32 Z" fill="#000000" fill-rule="nonzero" fill-opacity="1" /><path clip-path="url(#clip300)" d="M1701.41 2224.57 L1709.05 2224.57 L1709.05 2198.21 L1700.74 2199.87 L1700.74 2195.61 L1709.01 2193.95 L1713.68 2193.95 L1713.68 2224.57 L1721.32 2224.57 L1721.32 2228.51 L1701.41 2228.51 L1701.41 2224.57 Z" fill="#000000" fill-rule="nonzero" fill-opacity="1" /><path clip-path="url(#clip300)" d="M1740.77 2197.03 Q1737.15 2197.03 1735.33 2200.59 Q1733.52 2204.13 1733.52 2211.26 Q1733.52 2218.37 1735.33 2221.93 Q1737.15 2225.48 1740.77 2225.48 Q1744.4 2225.48 1746.21 2221.93 Q1748.03 2218.37 1748.03 2211.26 Q1748.03 2204.13 1746.21 2200.59 Q1744.4 2197.03 1740.77 2197.03 M1740.77 2193.32 Q1746.58 2193.32 1749.63 2197.93 Q1752.71 2202.51 1752.71 2211.26 Q1752.71 2219.99 1749.63 2224.6 Q1746.58 2229.18 1740.77 2229.18 Q1734.96 2229.18 1731.88 2224.6 Q1728.82 2219.99 1728.82 2211.26 Q1728.82 2202.51 1731.88 2197.93 Q1734.96 2193.32 1740.77 2193.32 Z" fill="#000000" fill-rule="nonzero" fill-opacity="1" /><path clip-path="url(#clip300)" d="M1770.93 2197.03 Q1767.32 2197.03 1765.49 2200.59 Q1763.68 2204.13 1763.68 2211.26 Q1763.68 2218.37 1765.49 2221.93 Q1767.32 2225.48 1770.93 2225.48 Q1774.56 2225.48 1776.37 2221.93 Q1778.2 2218.37 1778.2 2211.26 Q1778.2 2204.13 1776.37 2200.59 Q1774.56 2197.03 1770.93 2197.03 M1770.93 2193.32 Q1776.74 2193.32 1779.79 2197.93 Q1782.87 2202.51 1782.87 2211.26 Q1782.87 2219.99 1779.79 2224.6 Q1776.74 2229.18 1770.93 2229.18 Q1765.12 2229.18 1762.04 2224.6 Q1758.98 2219.99 1758.98 2211.26 Q1758.98 2202.51 1762.04 2197.93 Q1765.12 2193.32 1770.93 2193.32 Z" fill="#000000" fill-rule="nonzero" fill-opacity="1" /><path clip-path="url(#clip300)" d="M1801.09 2197.03 Q1797.48 2197.03 1795.65 2200.59 Q1793.84 2204.13 1793.84 2211.26 Q1793.84 2218.37 1795.65 2221.93 Q1797.48 2225.48 1801.09 2225.48 Q1804.72 2225.48 1806.53 2221.93 Q1808.36 2218.37 1808.36 2211.26 Q1808.36 2204.13 1806.53 2200.59 Q1804.72 2197.03 1801.09 2197.03 M1801.09 2193.32 Q1806.9 2193.32 1809.96 2197.93 Q1813.03 2202.51 1813.03 2211.26 Q1813.03 2219.99 1809.96 2224.6 Q1806.9 2229.18 1801.09 2229.18 Q1795.28 2229.18 1792.2 2224.6 Q1789.15 2219.99 1789.15 2211.26 Q1789.15 2202.51 1792.2 2197.93 Q1795.28 2193.32 1801.09 2193.32 Z" fill="#000000" fill-rule="nonzero" fill-opacity="1" /><path clip-path="url(#clip300)" d="M3353.08 2224.57 L3369.4 2224.57 L3369.4 2228.51 L3347.46 2228.51 L3347.46 2224.57 Q3350.12 2221.82 3354.71 2217.19 Q3359.31 2212.54 3360.49 2211.19 Q3362.74 2208.67 3363.62 2206.93 Q3364.52 2205.17 3364.52 2203.48 Q3364.52 2200.73 3362.58 2198.99 Q3360.65 2197.26 3357.55 2197.26 Q3355.35 2197.26 3352.9 2198.02 Q3350.47 2198.79 3347.69 2200.34 L3347.69 2195.61 Q3350.52 2194.48 3352.97 2193.9 Q3355.42 2193.32 3357.46 2193.32 Q3362.83 2193.32 3366.02 2196.01 Q3369.22 2198.69 3369.22 2203.18 Q3369.22 2205.31 3368.41 2207.23 Q3367.62 2209.13 3365.52 2211.73 Q3364.94 2212.4 3361.83 2215.61 Q3358.73 2218.81 3353.08 2224.57 Z" fill="#000000" fill-rule="nonzero" fill-opacity="1" /><path clip-path="url(#clip300)" d="M3389.22 2197.03 Q3385.61 2197.03 3383.78 2200.59 Q3381.97 2204.13 3381.97 2211.26 Q3381.97 2218.37 3383.78 2221.93 Q3385.61 2225.48 3389.22 2225.48 Q3392.85 2225.48 3394.66 2221.93 Q3396.49 2218.37 3396.49 2211.26 Q3396.49 2204.13 3394.66 2200.59 Q3392.85 2197.03 3389.22 2197.03 M3389.22 2193.32 Q3395.03 2193.32 3398.08 2197.93 Q3401.16 2202.51 3401.16 2211.26 Q3401.16 2219.99 3398.08 2224.6 Q3395.03 2229.18 3389.22 2229.18 Q3383.41 2229.18 3380.33 2224.6 Q3377.27 2219.99 3377.27 2211.26 Q3377.27 2202.51 3380.33 2197.93 Q3383.41 2193.32 3389.22 2193.32 Z" fill="#000000" fill-rule="nonzero" fill-opacity="1" /><path clip-path="url(#clip300)" d="M3419.38 2197.03 Q3415.77 2197.03 3413.94 2200.59 Q3412.14 2204.13 3412.14 2211.26 Q3412.14 2218.37 3413.94 2221.93 Q3415.77 2225.48 3419.38 2225.48 Q3423.01 2225.48 3424.82 2221.93 Q3426.65 2218.37 3426.65 2211.26 Q3426.65 2204.13 3424.82 2200.59 Q3423.01 2197.03 3419.38 2197.03 M3419.38 2193.32 Q3425.19 2193.32 3428.25 2197.93 Q3431.32 2202.51 3431.32 2211.26 Q3431.32 2219.99 3428.25 2224.6 Q3425.19 2229.18 3419.38 2229.18 Q3413.57 2229.18 3410.49 2224.6 Q3407.44 2219.99 3407.44 2211.26 Q3407.44 2202.51 3410.49 2197.93 Q3413.57 2193.32 3419.38 2193.32 Z" fill="#000000" fill-rule="nonzero" fill-opacity="1" /><path clip-path="url(#clip300)" d="M3449.54 2197.03 Q3445.93 2197.03 3444.1 2200.59 Q3442.3 2204.13 3442.3 2211.26 Q3442.3 2218.37 3444.1 2221.93 Q3445.93 2225.48 3449.54 2225.48 Q3453.18 2225.48 3454.98 2221.93 Q3456.81 2218.37 3456.81 2211.26 Q3456.81 2204.13 3454.98 2200.59 Q3453.18 2197.03 3449.54 2197.03 M3449.54 2193.32 Q3455.35 2193.32 3458.41 2197.93 Q3461.49 2202.51 3461.49 2211.26 Q3461.49 2219.99 3458.41 2224.6 Q3455.35 2229.18 3449.54 2229.18 Q3443.73 2229.18 3440.65 2224.6 Q3437.6 2219.99 3437.6 2211.26 Q3437.6 2202.51 3440.65 2197.93 Q3443.73 2193.32 3449.54 2193.32 Z" fill="#000000" fill-rule="nonzero" fill-opacity="1" /><path clip-path="url(#clip300)" d="M1797.53 2308.02 L1797.53 2296.42 L1787.98 2296.42 L1787.98 2291.62 L1803.32 2291.62 L1803.32 2310.17 Q1799.93 2312.57 1795.85 2313.81 Q1791.77 2315.03 1787.14 2315.03 Q1777.02 2315.03 1771.29 2309.12 Q1765.59 2303.19 1765.59 2292.63 Q1765.59 2282.04 1771.29 2276.14 Q1777.02 2270.21 1787.14 2270.21 Q1791.37 2270.21 1795.16 2271.25 Q1798.98 2272.29 1802.19 2274.32 L1802.19 2280.54 Q1798.95 2277.79 1795.3 2276.4 Q1791.66 2275.01 1787.63 2275.01 Q1779.71 2275.01 1775.71 2279.44 Q1771.75 2283.86 1771.75 2292.63 Q1771.75 2301.37 1775.71 2305.8 Q1779.71 2310.22 1787.63 2310.22 Q1790.73 2310.22 1793.16 2309.7 Q1795.59 2309.15 1797.53 2308.02 Z" fill="#000000" fill-rule="nonzero" fill-opacity="1" /><path clip-path="url(#clip300)" d="M1832.54 2286.76 Q1831.64 2286.24 1830.57 2286 Q1829.53 2285.74 1828.26 2285.74 Q1823.75 2285.74 1821.31 2288.7 Q1818.91 2291.62 1818.91 2297.12 L1818.91 2314.19 L1813.56 2314.19 L1813.56 2281.78 L1818.91 2281.78 L1818.91 2286.82 Q1820.59 2283.86 1823.28 2282.45 Q1825.97 2281 1829.82 2281 Q1830.37 2281 1831.04 2281.09 Q1831.7 2281.14 1832.51 2281.29 L1832.54 2286.76 Z" fill="#000000" fill-rule="nonzero" fill-opacity="1" /><path clip-path="url(#clip300)" d="M1838.13 2281.78 L1843.45 2281.78 L1843.45 2314.19 L1838.13 2314.19 L1838.13 2281.78 M1838.13 2269.16 L1843.45 2269.16 L1843.45 2275.91 L1838.13 2275.91 L1838.13 2269.16 Z" fill="#000000" fill-rule="nonzero" fill-opacity="1" /><path clip-path="url(#clip300)" d="M1875.92 2286.7 L1875.92 2269.16 L1881.24 2269.16 L1881.24 2314.19 L1875.92 2314.19 L1875.92 2309.33 Q1874.24 2312.22 1871.66 2313.64 Q1869.12 2315.03 1865.53 2315.03 Q1859.65 2315.03 1855.95 2310.34 Q1852.28 2305.65 1852.28 2298.01 Q1852.28 2290.37 1855.95 2285.69 Q1859.65 2281 1865.53 2281 Q1869.12 2281 1871.66 2282.42 Q1874.24 2283.81 1875.92 2286.7 M1857.77 2298.01 Q1857.77 2303.89 1860.17 2307.24 Q1862.61 2310.57 1866.83 2310.57 Q1871.05 2310.57 1873.48 2307.24 Q1875.92 2303.89 1875.92 2298.01 Q1875.92 2292.14 1873.48 2288.81 Q1871.05 2285.46 1866.83 2285.46 Q1862.61 2285.46 1860.17 2288.81 Q1857.77 2292.14 1857.77 2298.01 Z" fill="#000000" fill-rule="nonzero" fill-opacity="1" /><path clip-path="url(#clip300)" d="M1931.7 2282.74 L1931.7 2287.77 Q1929.45 2286.61 1927.01 2286.03 Q1924.58 2285.46 1921.98 2285.46 Q1918.02 2285.46 1916.02 2286.67 Q1914.05 2287.89 1914.05 2290.32 Q1914.05 2292.17 1915.47 2293.24 Q1916.89 2294.28 1921.17 2295.24 L1922.99 2295.64 Q1928.66 2296.86 1931.04 2299.08 Q1933.44 2301.28 1933.44 2305.25 Q1933.44 2309.76 1929.85 2312.39 Q1926.29 2315.03 1920.04 2315.03 Q1917.44 2315.03 1914.6 2314.51 Q1911.79 2314.01 1908.67 2313 L1908.67 2307.5 Q1911.62 2309.04 1914.49 2309.82 Q1917.35 2310.57 1920.16 2310.57 Q1923.92 2310.57 1925.94 2309.3 Q1927.97 2308 1927.97 2305.65 Q1927.97 2303.48 1926.49 2302.32 Q1925.05 2301.17 1920.1 2300.1 L1918.25 2299.66 Q1913.3 2298.62 1911.1 2296.48 Q1908.9 2294.31 1908.9 2290.55 Q1908.9 2285.98 1912.14 2283.49 Q1915.38 2281 1921.34 2281 Q1924.29 2281 1926.9 2281.43 Q1929.5 2281.87 1931.7 2282.74 Z" fill="#000000" fill-rule="nonzero" fill-opacity="1" /><path clip-path="url(#clip300)" d="M1941.92 2281.78 L1947.24 2281.78 L1947.24 2314.19 L1941.92 2314.19 L1941.92 2281.78 M1941.92 2269.16 L1947.24 2269.16 L1947.24 2275.91 L1941.92 2275.91 L1941.92 2269.16 Z" fill="#000000" fill-rule="nonzero" fill-opacity="1" /><path clip-path="url(#clip300)" d="M1956.07 2281.78 L1981.35 2281.78 L1981.35 2286.64 L1961.33 2309.93 L1981.35 2309.93 L1981.35 2314.19 L1955.34 2314.19 L1955.34 2309.33 L1975.37 2286.03 L1956.07 2286.03 L1956.07 2281.78 Z" fill="#000000" fill-rule="nonzero" fill-opacity="1" /><path clip-path="url(#clip300)" d="M2017.21 2296.65 L2017.21 2299.26 L1992.73 2299.26 Q1993.07 2304.75 1996.02 2307.65 Q1999 2310.51 2004.3 2310.51 Q2007.37 2310.51 2010.23 2309.76 Q2013.13 2309.01 2015.96 2307.5 L2015.96 2312.54 Q2013.1 2313.75 2010.09 2314.39 Q2007.08 2315.03 2003.98 2315.03 Q1996.23 2315.03 1991.68 2310.51 Q1987.17 2306 1987.17 2298.3 Q1987.17 2290.35 1991.45 2285.69 Q1995.76 2281 2003.06 2281 Q2009.6 2281 2013.39 2285.22 Q2017.21 2289.42 2017.21 2296.65 M2011.88 2295.09 Q2011.82 2290.72 2009.42 2288.12 Q2007.05 2285.51 2003.11 2285.51 Q1998.66 2285.51 1995.97 2288.03 Q1993.3 2290.55 1992.9 2295.12 L2011.88 2295.09 Z" fill="#000000" fill-rule="nonzero" fill-opacity="1" /><path clip-path="url(#clip300)" d="M2045.01 2270.99 L2052.88 2270.99 L2072.04 2307.13 L2072.04 2270.99 L2077.71 2270.99 L2077.71 2314.19 L2069.84 2314.19 L2050.68 2278.05 L2050.68 2314.19 L2045.01 2314.19 L2045.01 2270.99 Z" fill="#000000" fill-rule="nonzero" fill-opacity="1" /><polyline clip-path="url(#clip300)" style="stroke:#000000; stroke-linecap:round; stroke-linejoin:round; stroke-width:4; stroke-opacity:1; fill:none" points="290.538,2156.51 290.538,246.944 "/>
<polyline clip-path="url(#clip300)" style="stroke:#000000; stroke-linecap:round; stroke-linejoin:round; stroke-width:4; stroke-opacity:1; fill:none" points="290.538,1949.04 309.436,1949.04 "/>
<polyline clip-path="url(#clip300)" style="stroke:#000000; stroke-linecap:round; stroke-linejoin:round; stroke-width:4; stroke-opacity:1; fill:none" points="290.538,1658.16 309.436,1658.16 "/>
<polyline clip-path="url(#clip300)" style="stroke:#000000; stroke-linecap:round; stroke-linejoin:round; stroke-width:4; stroke-opacity:1; fill:none" points="290.538,1367.27 309.436,1367.27 "/>
<polyline clip-path="url(#clip300)" style="stroke:#000000; stroke-linecap:round; stroke-linejoin:round; stroke-width:4; stroke-opacity:1; fill:none" points="290.538,1076.39 309.436,1076.39 "/>
<polyline clip-path="url(#clip300)" style="stroke:#000000; stroke-linecap:round; stroke-linejoin:round; stroke-width:4; stroke-opacity:1; fill:none" points="290.538,785.506 309.436,785.506 "/>
<polyline clip-path="url(#clip300)" style="stroke:#000000; stroke-linecap:round; stroke-linejoin:round; stroke-width:4; stroke-opacity:1; fill:none" points="290.538,494.622 309.436,494.622 "/>
<path clip-path="url(#clip300)" d="M180.59 1934.84 Q176.979 1934.84 175.15 1938.4 Q173.344 1941.94 173.344 1949.07 Q173.344 1956.18 175.15 1959.74 Q176.979 1963.29 180.59 1963.29 Q184.224 1963.29 186.029 1959.74 Q187.858 1956.18 187.858 1949.07 Q187.858 1941.94 186.029 1938.4 Q184.224 1934.84 180.59 1934.84 M180.59 1931.13 Q186.4 1931.13 189.455 1935.74 Q192.534 1940.32 192.534 1949.07 Q192.534 1957.8 189.455 1962.41 Q186.4 1966.99 180.59 1966.99 Q174.779 1966.99 171.701 1962.41 Q168.645 1957.8 168.645 1949.07 Q168.645 1940.32 171.701 1935.74 Q174.779 1931.13 180.59 1931.13 Z" fill="#000000" fill-rule="nonzero" fill-opacity="1" /><path clip-path="url(#clip300)" d="M200.752 1960.44 L205.636 1960.44 L205.636 1966.32 L200.752 1966.32 L200.752 1960.44 Z" fill="#000000" fill-rule="nonzero" fill-opacity="1" /><path clip-path="url(#clip300)" d="M216.631 1962.38 L224.27 1962.38 L224.27 1936.02 L215.96 1937.68 L215.96 1933.43 L224.224 1931.76 L228.9 1931.76 L228.9 1962.38 L236.538 1962.38 L236.538 1966.32 L216.631 1966.32 L216.631 1962.38 Z" fill="#000000" fill-rule="nonzero" fill-opacity="1" /><path clip-path="url(#clip300)" d="M180.96 1643.95 Q177.349 1643.95 175.52 1647.52 Q173.715 1651.06 173.715 1658.19 Q173.715 1665.3 175.52 1668.86 Q177.349 1672.4 180.96 1672.4 Q184.594 1672.4 186.4 1668.86 Q188.228 1665.3 188.228 1658.19 Q188.228 1651.06 186.4 1647.52 Q184.594 1643.95 180.96 1643.95 M180.96 1640.25 Q186.77 1640.25 189.826 1644.86 Q192.904 1649.44 192.904 1658.19 Q192.904 1666.92 189.826 1671.52 Q186.77 1676.11 180.96 1676.11 Q175.15 1676.11 172.071 1671.52 Q169.016 1666.92 169.016 1658.19 Q169.016 1649.44 172.071 1644.86 Q175.15 1640.25 180.96 1640.25 Z" fill="#000000" fill-rule="nonzero" fill-opacity="1" /><path clip-path="url(#clip300)" d="M201.122 1669.56 L206.006 1669.56 L206.006 1675.44 L201.122 1675.44 L201.122 1669.56 Z" fill="#000000" fill-rule="nonzero" fill-opacity="1" /><path clip-path="url(#clip300)" d="M220.219 1671.5 L236.538 1671.5 L236.538 1675.44 L214.594 1675.44 L214.594 1671.5 Q217.256 1668.75 221.839 1664.12 Q226.446 1659.46 227.626 1658.12 Q229.872 1655.6 230.751 1653.86 Q231.654 1652.1 231.654 1650.41 Q231.654 1647.66 229.71 1645.92 Q227.788 1644.19 224.687 1644.19 Q222.488 1644.19 220.034 1644.95 Q217.603 1645.71 214.826 1647.26 L214.826 1642.54 Q217.65 1641.41 220.103 1640.83 Q222.557 1640.25 224.594 1640.25 Q229.964 1640.25 233.159 1642.94 Q236.353 1645.62 236.353 1650.11 Q236.353 1652.24 235.543 1654.16 Q234.756 1656.06 232.65 1658.65 Q232.071 1659.32 228.969 1662.54 Q225.867 1665.74 220.219 1671.5 Z" fill="#000000" fill-rule="nonzero" fill-opacity="1" /><path clip-path="url(#clip300)" d="M180.011 1353.07 Q176.4 1353.07 174.571 1356.64 Q172.766 1360.18 172.766 1367.31 Q172.766 1374.41 174.571 1377.98 Q176.4 1381.52 180.011 1381.52 Q183.645 1381.52 185.451 1377.98 Q187.279 1374.41 187.279 1367.31 Q187.279 1360.18 185.451 1356.64 Q183.645 1353.07 180.011 1353.07 M180.011 1349.37 Q185.821 1349.37 188.877 1353.97 Q191.955 1358.56 191.955 1367.31 Q191.955 1376.03 188.877 1380.64 Q185.821 1385.22 180.011 1385.22 Q174.201 1385.22 171.122 1380.64 Q168.067 1376.03 168.067 1367.31 Q168.067 1358.56 171.122 1353.97 Q174.201 1349.37 180.011 1349.37 Z" fill="#000000" fill-rule="nonzero" fill-opacity="1" /><path clip-path="url(#clip300)" d="M200.173 1378.67 L205.057 1378.67 L205.057 1384.55 L200.173 1384.55 L200.173 1378.67 Z" fill="#000000" fill-rule="nonzero" fill-opacity="1" /><path clip-path="url(#clip300)" d="M229.409 1365.92 Q232.765 1366.64 234.64 1368.9 Q236.538 1371.17 236.538 1374.51 Q236.538 1379.62 233.02 1382.42 Q229.501 1385.22 223.02 1385.22 Q220.844 1385.22 218.529 1384.78 Q216.238 1384.37 213.784 1383.51 L213.784 1379 Q215.728 1380.13 218.043 1380.71 Q220.358 1381.29 222.881 1381.29 Q227.279 1381.29 229.571 1379.55 Q231.886 1377.82 231.886 1374.51 Q231.886 1371.45 229.733 1369.74 Q227.603 1368 223.784 1368 L219.756 1368 L219.756 1364.16 L223.969 1364.16 Q227.418 1364.16 229.247 1362.79 Q231.075 1361.4 231.075 1358.81 Q231.075 1356.15 229.177 1354.74 Q227.302 1353.3 223.784 1353.3 Q221.863 1353.3 219.663 1353.72 Q217.464 1354.14 214.826 1355.02 L214.826 1350.85 Q217.488 1350.11 219.802 1349.74 Q222.14 1349.37 224.2 1349.37 Q229.525 1349.37 232.626 1351.8 Q235.728 1354.21 235.728 1358.33 Q235.728 1361.2 234.085 1363.19 Q232.441 1365.15 229.409 1365.92 Z" fill="#000000" fill-rule="nonzero" fill-opacity="1" /><path clip-path="url(#clip300)" d="M178.877 1062.19 Q175.266 1062.19 173.437 1065.75 Q171.631 1069.29 171.631 1076.42 Q171.631 1083.53 173.437 1087.09 Q175.266 1090.64 178.877 1090.64 Q182.511 1090.64 184.316 1087.09 Q186.145 1083.53 186.145 1076.42 Q186.145 1069.29 184.316 1065.75 Q182.511 1062.19 178.877 1062.19 M178.877 1058.48 Q184.687 1058.48 187.742 1063.09 Q190.821 1067.67 190.821 1076.42 Q190.821 1085.15 187.742 1089.76 Q184.687 1094.34 178.877 1094.34 Q173.067 1094.34 169.988 1089.76 Q166.932 1085.15 166.932 1076.42 Q166.932 1067.67 169.988 1063.09 Q173.067 1058.48 178.877 1058.48 Z" fill="#000000" fill-rule="nonzero" fill-opacity="1" /><path clip-path="url(#clip300)" d="M199.039 1087.79 L203.923 1087.79 L203.923 1093.67 L199.039 1093.67 L199.039 1087.79 Z" fill="#000000" fill-rule="nonzero" fill-opacity="1" /><path clip-path="url(#clip300)" d="M226.955 1063.18 L215.15 1081.63 L226.955 1081.63 L226.955 1063.18 M225.728 1059.11 L231.608 1059.11 L231.608 1081.63 L236.538 1081.63 L236.538 1085.52 L231.608 1085.52 L231.608 1093.67 L226.955 1093.67 L226.955 1085.52 L211.353 1085.52 L211.353 1081.01 L225.728 1059.11 Z" fill="#000000" fill-rule="nonzero" fill-opacity="1" /><path clip-path="url(#clip300)" d="M180.358 771.304 Q176.747 771.304 174.918 774.869 Q173.113 778.411 173.113 785.54 Q173.113 792.647 174.918 796.212 Q176.747 799.753 180.358 799.753 Q183.992 799.753 185.798 796.212 Q187.627 792.647 187.627 785.54 Q187.627 778.411 185.798 774.869 Q183.992 771.304 180.358 771.304 M180.358 767.601 Q186.168 767.601 189.224 772.207 Q192.303 776.79 192.303 785.54 Q192.303 794.267 189.224 798.874 Q186.168 803.457 180.358 803.457 Q174.548 803.457 171.469 798.874 Q168.414 794.267 168.414 785.54 Q168.414 776.79 171.469 772.207 Q174.548 767.601 180.358 767.601 Z" fill="#000000" fill-rule="nonzero" fill-opacity="1" /><path clip-path="url(#clip300)" d="M200.52 796.906 L205.404 796.906 L205.404 802.786 L200.52 802.786 L200.52 796.906 Z" fill="#000000" fill-rule="nonzero" fill-opacity="1" /><path clip-path="url(#clip300)" d="M215.636 768.226 L233.992 768.226 L233.992 772.161 L219.918 772.161 L219.918 780.633 Q220.937 780.286 221.955 780.124 Q222.974 779.939 223.992 779.939 Q229.779 779.939 233.159 783.11 Q236.538 786.281 236.538 791.698 Q236.538 797.276 233.066 800.378 Q229.594 803.457 223.275 803.457 Q221.099 803.457 218.83 803.087 Q216.585 802.716 214.177 801.975 L214.177 797.276 Q216.261 798.411 218.483 798.966 Q220.705 799.522 223.182 799.522 Q227.187 799.522 229.525 797.415 Q231.862 795.309 231.862 791.698 Q231.862 788.087 229.525 785.98 Q227.187 783.874 223.182 783.874 Q221.307 783.874 219.432 784.29 Q217.58 784.707 215.636 785.587 L215.636 768.226 Z" fill="#000000" fill-rule="nonzero" fill-opacity="1" /><path clip-path="url(#clip300)" d="M179.201 480.421 Q175.59 480.421 173.761 483.986 Q171.955 487.527 171.955 494.657 Q171.955 501.763 173.761 505.328 Q175.59 508.87 179.201 508.87 Q182.835 508.87 184.641 505.328 Q186.469 501.763 186.469 494.657 Q186.469 487.527 184.641 483.986 Q182.835 480.421 179.201 480.421 M179.201 476.717 Q185.011 476.717 188.066 481.324 Q191.145 485.907 191.145 494.657 Q191.145 503.384 188.066 507.99 Q185.011 512.574 179.201 512.574 Q173.391 512.574 170.312 507.99 Q167.256 503.384 167.256 494.657 Q167.256 485.907 170.312 481.324 Q173.391 476.717 179.201 476.717 Z" fill="#000000" fill-rule="nonzero" fill-opacity="1" /><path clip-path="url(#clip300)" d="M199.363 506.023 L204.247 506.023 L204.247 511.902 L199.363 511.902 L199.363 506.023 Z" fill="#000000" fill-rule="nonzero" fill-opacity="1" /><path clip-path="url(#clip300)" d="M225.011 492.759 Q221.863 492.759 220.011 494.912 Q218.182 497.064 218.182 500.814 Q218.182 504.541 220.011 506.717 Q221.863 508.87 225.011 508.87 Q228.159 508.87 229.988 506.717 Q231.839 504.541 231.839 500.814 Q231.839 497.064 229.988 494.912 Q228.159 492.759 225.011 492.759 M234.293 478.106 L234.293 482.365 Q232.534 481.532 230.728 481.092 Q228.946 480.652 227.187 480.652 Q222.557 480.652 220.103 483.777 Q217.673 486.902 217.326 493.222 Q218.691 491.208 220.751 490.143 Q222.812 489.055 225.288 489.055 Q230.497 489.055 233.506 492.226 Q236.538 495.375 236.538 500.814 Q236.538 506.138 233.39 509.356 Q230.242 512.574 225.011 512.574 Q219.015 512.574 215.844 507.99 Q212.673 503.384 212.673 494.657 Q212.673 486.463 216.562 481.602 Q220.451 476.717 227.001 476.717 Q228.761 476.717 230.543 477.065 Q232.349 477.412 234.293 478.106 Z" fill="#000000" fill-rule="nonzero" fill-opacity="1" /><path clip-path="url(#clip300)" d="M58.1901 1374.69 L63.8903 1374.69 Q62.2989 1378.01 61.5176 1380.96 Q60.7364 1383.92 60.7364 1386.66 Q60.7364 1391.44 62.5882 1394.04 Q64.4401 1396.62 67.8544 1396.62 Q70.719 1396.62 72.1947 1394.91 Q73.6414 1393.17 74.5384 1388.37 L75.2618 1384.84 Q76.506 1378.3 79.6599 1375.21 Q82.7849 1372.08 88.0511 1372.08 Q94.33 1372.08 97.5707 1376.31 Q100.811 1380.5 100.811 1388.63 Q100.811 1391.7 100.117 1395.17 Q99.4225 1398.61 98.0626 1402.32 L92.0441 1402.32 Q94.0406 1398.76 95.0533 1395.34 Q96.0661 1391.93 96.0661 1388.63 Q96.0661 1383.63 94.0985 1380.91 Q92.1309 1378.19 88.4851 1378.19 Q85.3022 1378.19 83.5083 1380.15 Q81.7143 1382.09 80.8173 1386.55 L80.1229 1390.11 Q78.8208 1396.65 76.043 1399.57 Q73.2653 1402.49 68.3174 1402.49 Q62.5882 1402.49 59.2896 1398.47 Q55.991 1394.42 55.991 1387.33 Q55.991 1384.29 56.5408 1381.14 Q57.0906 1377.98 58.1901 1374.69 Z" fill="#000000" fill-rule="nonzero" fill-opacity="1" /><path clip-path="url(#clip300)" d="M71.2977 1350.64 Q71.2977 1354.92 74.6541 1357.41 Q77.9817 1359.9 83.7976 1359.9 Q89.6135 1359.9 92.97 1357.44 Q96.2975 1354.95 96.2975 1350.64 Q96.2975 1346.39 92.9411 1343.9 Q89.5846 1341.41 83.7976 1341.41 Q78.0395 1341.41 74.6831 1343.9 Q71.2977 1346.39 71.2977 1350.64 M66.7838 1350.64 Q66.7838 1343.7 71.2977 1339.73 Q75.8115 1335.77 83.7976 1335.77 Q91.7547 1335.77 96.2975 1339.73 Q100.811 1343.7 100.811 1350.64 Q100.811 1357.61 96.2975 1361.58 Q91.7547 1365.51 83.7976 1365.51 Q75.8115 1365.51 71.2977 1361.58 Q66.7838 1357.61 66.7838 1350.64 Z" fill="#000000" fill-rule="nonzero" fill-opacity="1" /><path clip-path="url(#clip300)" d="M54.9494 1326.94 L54.9494 1321.62 L99.9723 1321.62 L99.9723 1326.94 L54.9494 1326.94 Z" fill="#000000" fill-rule="nonzero" fill-opacity="1" /><path clip-path="url(#clip300)" d="M67.565 1314.3 L67.565 1308.66 L94.764 1298.53 L67.565 1288.4 L67.565 1282.76 L99.9723 1294.91 L99.9723 1302.15 L67.565 1314.3 Z" fill="#000000" fill-rule="nonzero" fill-opacity="1" /><path clip-path="url(#clip300)" d="M82.4377 1247.69 L85.0418 1247.69 L85.0418 1272.17 Q90.5395 1271.82 93.433 1268.87 Q96.2975 1265.89 96.2975 1260.59 Q96.2975 1257.53 95.5452 1254.66 Q94.7929 1251.77 93.2883 1248.93 L98.323 1248.93 Q99.5383 1251.8 100.175 1254.81 Q100.811 1257.82 100.811 1260.91 Q100.811 1268.67 96.2975 1273.21 Q91.7837 1277.72 84.087 1277.72 Q76.1298 1277.72 71.4713 1273.44 Q66.7838 1269.13 66.7838 1261.84 Q66.7838 1255.3 71.0083 1251.51 Q75.2039 1247.69 82.4377 1247.69 M80.8752 1253.01 Q76.506 1253.07 73.9018 1255.47 Q71.2977 1257.85 71.2977 1261.78 Q71.2977 1266.24 73.815 1268.93 Q76.3324 1271.59 80.9041 1271.99 L80.8752 1253.01 Z" fill="#000000" fill-rule="nonzero" fill-opacity="1" /><path clip-path="url(#clip300)" d="M58.3637 1214.85 L67.565 1214.85 L67.565 1203.88 L71.7028 1203.88 L71.7028 1214.85 L89.2953 1214.85 Q93.2594 1214.85 94.3878 1213.78 Q95.5163 1212.68 95.5163 1209.35 L95.5163 1203.88 L99.9723 1203.88 L99.9723 1209.35 Q99.9723 1215.51 97.6864 1217.86 Q95.3716 1220.2 89.2953 1220.2 L71.7028 1220.2 L71.7028 1224.11 L67.565 1224.11 L67.565 1220.2 L58.3637 1220.2 L58.3637 1214.85 Z" fill="#000000" fill-rule="nonzero" fill-opacity="1" /><path clip-path="url(#clip300)" d="M67.565 1196.88 L67.565 1191.56 L99.9723 1191.56 L99.9723 1196.88 L67.565 1196.88 M54.9494 1196.88 L54.9494 1191.56 L61.6912 1191.56 L61.6912 1196.88 L54.9494 1196.88 Z" fill="#000000" fill-rule="nonzero" fill-opacity="1" /><path clip-path="url(#clip300)" d="M73.7861 1155.18 Q70.1981 1153.19 68.491 1150.41 Q66.7838 1147.63 66.7838 1143.87 Q66.7838 1138.81 70.3428 1136.06 Q73.8729 1133.31 80.4122 1133.31 L99.9723 1133.31 L99.9723 1138.66 L80.5858 1138.66 Q75.9273 1138.66 73.6703 1140.31 Q71.4134 1141.96 71.4134 1145.35 Q71.4134 1149.48 74.1622 1151.89 Q76.9111 1154.29 81.6564 1154.29 L99.9723 1154.29 L99.9723 1159.64 L80.5858 1159.64 Q75.8983 1159.64 73.6703 1161.29 Q71.4134 1162.94 71.4134 1166.38 Q71.4134 1170.46 74.1912 1172.86 Q76.94 1175.26 81.6564 1175.26 L99.9723 1175.26 L99.9723 1180.62 L67.565 1180.62 L67.565 1175.26 L72.5997 1175.26 Q69.6194 1173.44 68.2016 1170.9 Q66.7838 1168.35 66.7838 1164.85 Q66.7838 1161.32 68.5778 1158.86 Q70.3717 1156.37 73.7861 1155.18 Z" fill="#000000" fill-rule="nonzero" fill-opacity="1" /><path clip-path="url(#clip300)" d="M82.4377 1094.97 L85.0418 1094.97 L85.0418 1119.45 Q90.5395 1119.1 93.433 1116.15 Q96.2975 1113.17 96.2975 1107.88 Q96.2975 1104.81 95.5452 1101.94 Q94.7929 1099.05 93.2883 1096.21 L98.323 1096.21 Q99.5383 1099.08 100.175 1102.09 Q100.811 1105.1 100.811 1108.19 Q100.811 1115.95 96.2975 1120.49 Q91.7837 1125 84.087 1125 Q76.1298 1125 71.4713 1120.72 Q66.7838 1116.41 66.7838 1109.12 Q66.7838 1102.58 71.0083 1098.79 Q75.2039 1094.97 82.4377 1094.97 M80.8752 1100.29 Q76.506 1100.35 73.9018 1102.75 Q71.2977 1105.13 71.2977 1109.06 Q71.2977 1113.52 73.815 1116.21 Q76.3324 1118.87 80.9041 1119.28 L80.8752 1100.29 Z" fill="#000000" fill-rule="nonzero" fill-opacity="1" /><path clip-path="url(#clip300)" d="M55.0072 1054.61 Q61.6623 1058.48 68.1727 1060.36 Q74.6831 1062.24 81.3671 1062.24 Q88.0511 1062.24 94.6193 1060.36 Q101.159 1058.45 107.785 1054.61 L107.785 1059.24 Q100.985 1063.58 94.4168 1065.75 Q87.8485 1067.89 81.3671 1067.89 Q74.9145 1067.89 68.3752 1065.75 Q61.8359 1063.6 55.0072 1059.24 L55.0072 1054.61 Z" fill="#000000" fill-rule="nonzero" fill-opacity="1" /><path clip-path="url(#clip300)" d="M68.5199 1023.62 L73.5546 1023.62 Q72.3972 1025.87 71.8185 1028.3 Q71.2398 1030.73 71.2398 1033.34 Q71.2398 1037.3 72.4551 1039.3 Q73.6703 1041.27 76.1009 1041.27 Q77.9527 1041.27 79.0233 1039.85 Q80.065 1038.43 81.0198 1034.15 L81.4249 1032.33 Q82.6402 1026.65 84.8682 1024.28 Q87.0673 1021.88 91.0314 1021.88 Q95.5452 1021.88 98.1783 1025.47 Q100.811 1029.03 100.811 1035.28 Q100.811 1037.88 100.291 1040.72 Q99.7987 1043.52 98.7859 1046.65 L93.2883 1046.65 Q94.8218 1043.7 95.6031 1040.83 Q96.3554 1037.97 96.3554 1035.16 Q96.3554 1031.4 95.0823 1029.37 Q93.7802 1027.35 91.4364 1027.35 Q89.2663 1027.35 88.1089 1028.82 Q86.9515 1030.27 85.8809 1035.22 L85.4469 1037.07 Q84.4052 1042.02 82.264 1044.22 Q80.0939 1046.42 76.3324 1046.42 Q71.7606 1046.42 69.2722 1043.18 Q66.7838 1039.94 66.7838 1033.98 Q66.7838 1031.02 67.2178 1028.42 Q67.6519 1025.82 68.5199 1023.62 Z" fill="#000000" fill-rule="nonzero" fill-opacity="1" /><path clip-path="url(#clip300)" d="M55.0072 1014.24 L55.0072 1009.61 Q61.8359 1005.27 68.3752 1003.13 Q74.9145 1000.96 81.3671 1000.96 Q87.8485 1000.96 94.4168 1003.13 Q100.985 1005.27 107.785 1009.61 L107.785 1014.24 Q101.159 1010.39 94.6193 1008.51 Q88.0511 1006.6 81.3671 1006.6 Q74.6831 1006.6 68.1727 1008.51 Q61.6623 1010.39 55.0072 1014.24 Z" fill="#000000" fill-rule="nonzero" fill-opacity="1" /><path clip-path="url(#clip300)" d="M1274.33 125.969 L1274.33 133.949 Q1269.67 131.721 1265.54 130.627 Q1261.41 129.534 1257.56 129.534 Q1250.88 129.534 1247.23 132.126 Q1243.63 134.719 1243.63 139.499 Q1243.63 143.509 1246.02 145.575 Q1248.45 147.601 1255.17 148.857 L1260.11 149.869 Q1269.27 151.611 1273.6 156.027 Q1277.98 160.402 1277.98 167.774 Q1277.98 176.565 1272.06 181.102 Q1266.19 185.639 1254.81 185.639 Q1250.51 185.639 1245.65 184.667 Q1240.83 183.694 1235.65 181.79 L1235.65 173.365 Q1240.63 176.16 1245.41 177.577 Q1250.19 178.995 1254.81 178.995 Q1261.82 178.995 1265.62 176.241 Q1269.43 173.486 1269.43 168.382 Q1269.43 163.926 1266.68 161.414 Q1263.96 158.903 1257.72 157.647 L1252.74 156.675 Q1243.59 154.852 1239.5 150.963 Q1235.4 147.074 1235.4 140.147 Q1235.4 132.126 1241.03 127.508 Q1246.71 122.89 1256.63 122.89 Q1260.88 122.89 1265.3 123.66 Q1269.71 124.43 1274.33 125.969 Z" fill="#000000" fill-rule="nonzero" fill-opacity="1" /><path clip-path="url(#clip300)" d="M1308 144.32 Q1302 144.32 1298.52 149.019 Q1295.03 153.677 1295.03 161.819 Q1295.03 169.962 1298.48 174.661 Q1301.96 179.319 1308 179.319 Q1313.95 179.319 1317.43 174.62 Q1320.92 169.921 1320.92 161.819 Q1320.92 153.758 1317.43 149.059 Q1313.95 144.32 1308 144.32 M1308 138 Q1317.72 138 1323.27 144.32 Q1328.82 150.639 1328.82 161.819 Q1328.82 172.959 1323.27 179.319 Q1317.72 185.639 1308 185.639 Q1298.23 185.639 1292.68 179.319 Q1287.17 172.959 1287.17 161.819 Q1287.17 150.639 1292.68 144.32 Q1298.23 138 1308 138 Z" fill="#000000" fill-rule="nonzero" fill-opacity="1" /><path clip-path="url(#clip300)" d="M1341.17 121.432 L1348.63 121.432 L1348.63 184.464 L1341.17 184.464 L1341.17 121.432 Z" fill="#000000" fill-rule="nonzero" fill-opacity="1" /><path clip-path="url(#clip300)" d="M1358.88 139.094 L1366.77 139.094 L1380.95 177.172 L1395.13 139.094 L1403.03 139.094 L1386.02 184.464 L1375.89 184.464 L1358.88 139.094 Z" fill="#000000" fill-rule="nonzero" fill-opacity="1" /><path clip-path="url(#clip300)" d="M1452.13 159.916 L1452.13 163.561 L1417.86 163.561 Q1418.34 171.258 1422.47 175.309 Q1426.65 179.319 1434.06 179.319 Q1438.35 179.319 1442.36 178.266 Q1446.42 177.213 1450.39 175.106 L1450.39 182.155 Q1446.37 183.856 1442.16 184.748 Q1437.95 185.639 1433.61 185.639 Q1422.76 185.639 1416.4 179.319 Q1410.08 173 1410.08 162.225 Q1410.08 151.085 1416.07 144.563 Q1422.11 138 1432.32 138 Q1441.47 138 1446.78 143.914 Q1452.13 149.788 1452.13 159.916 M1444.67 157.728 Q1444.59 151.611 1441.23 147.965 Q1437.91 144.32 1432.4 144.32 Q1426.16 144.32 1422.39 147.844 Q1418.67 151.368 1418.1 157.769 L1444.67 157.728 Z" fill="#000000" fill-rule="nonzero" fill-opacity="1" /><path clip-path="url(#clip300)" d="M1498.1 126.212 L1498.1 139.094 L1513.46 139.094 L1513.46 144.887 L1498.1 144.887 L1498.1 169.516 Q1498.1 175.066 1499.6 176.646 Q1501.14 178.226 1505.8 178.226 L1513.46 178.226 L1513.46 184.464 L1505.8 184.464 Q1497.17 184.464 1493.89 181.264 Q1490.61 178.023 1490.61 169.516 L1490.61 144.887 L1485.14 144.887 L1485.14 139.094 L1490.61 139.094 L1490.61 126.212 L1498.1 126.212 Z" fill="#000000" fill-rule="nonzero" fill-opacity="1" /><path clip-path="url(#clip300)" d="M1523.26 139.094 L1530.71 139.094 L1530.71 184.464 L1523.26 184.464 L1523.26 139.094 M1523.26 121.432 L1530.71 121.432 L1530.71 130.871 L1523.26 130.871 L1523.26 121.432 Z" fill="#000000" fill-rule="nonzero" fill-opacity="1" /><path clip-path="url(#clip300)" d="M1581.63 147.803 Q1584.43 142.78 1588.32 140.39 Q1592.21 138 1597.47 138 Q1604.56 138 1608.41 142.983 Q1612.26 147.925 1612.26 157.08 L1612.26 184.464 L1604.77 184.464 L1604.77 157.323 Q1604.77 150.801 1602.46 147.641 Q1600.15 144.482 1595.41 144.482 Q1589.61 144.482 1586.25 148.33 Q1582.89 152.178 1582.89 158.822 L1582.89 184.464 L1575.4 184.464 L1575.4 157.323 Q1575.4 150.76 1573.09 147.641 Q1570.78 144.482 1565.96 144.482 Q1560.25 144.482 1556.88 148.37 Q1553.52 152.219 1553.52 158.822 L1553.52 184.464 L1546.03 184.464 L1546.03 139.094 L1553.52 139.094 L1553.52 146.142 Q1556.07 141.97 1559.64 139.985 Q1563.2 138 1568.1 138 Q1573.05 138 1576.49 140.512 Q1579.97 143.023 1581.63 147.803 Z" fill="#000000" fill-rule="nonzero" fill-opacity="1" /><path clip-path="url(#clip300)" d="M1665.93 159.916 L1665.93 163.561 L1631.66 163.561 Q1632.15 171.258 1636.28 175.309 Q1640.45 179.319 1647.87 179.319 Q1652.16 179.319 1656.17 178.266 Q1660.22 177.213 1664.19 175.106 L1664.19 182.155 Q1660.18 183.856 1655.97 184.748 Q1651.76 185.639 1647.42 185.639 Q1636.56 185.639 1630.2 179.319 Q1623.89 173 1623.89 162.225 Q1623.89 151.085 1629.88 144.563 Q1635.92 138 1646.12 138 Q1655.28 138 1660.59 143.914 Q1665.93 149.788 1665.93 159.916 M1658.48 157.728 Q1658.4 151.611 1655.04 147.965 Q1651.72 144.32 1646.21 144.32 Q1639.97 144.32 1636.2 147.844 Q1632.47 151.368 1631.91 157.769 L1658.48 157.728 Z" fill="#000000" fill-rule="nonzero" fill-opacity="1" /><path clip-path="url(#clip300)" d="M1699.19 139.094 L1707.09 139.094 L1721.27 177.172 L1735.45 139.094 L1743.35 139.094 L1726.33 184.464 L1716.21 184.464 L1699.19 139.094 Z" fill="#000000" fill-rule="nonzero" fill-opacity="1" /><path clip-path="url(#clip300)" d="M1782.56 140.431 L1782.56 147.479 Q1779.4 145.859 1776 145.049 Q1772.59 144.239 1768.95 144.239 Q1763.4 144.239 1760.6 145.94 Q1757.85 147.641 1757.85 151.044 Q1757.85 153.637 1759.83 155.135 Q1761.82 156.594 1767.81 157.931 L1770.37 158.498 Q1778.31 160.199 1781.63 163.318 Q1784.99 166.397 1784.99 171.947 Q1784.99 178.266 1779.97 181.952 Q1774.98 185.639 1766.23 185.639 Q1762.59 185.639 1758.62 184.91 Q1754.69 184.221 1750.31 182.803 L1750.31 175.106 Q1754.45 177.253 1758.46 178.347 Q1762.47 179.4 1766.4 179.4 Q1771.66 179.4 1774.5 177.618 Q1777.33 175.795 1777.33 172.514 Q1777.33 169.476 1775.27 167.855 Q1773.24 166.235 1766.32 164.736 L1763.72 164.128 Q1756.8 162.67 1753.72 159.672 Q1750.64 156.634 1750.64 151.368 Q1750.64 144.968 1755.18 141.484 Q1759.71 138 1768.06 138 Q1772.19 138 1775.83 138.608 Q1779.48 139.215 1782.56 140.431 Z" fill="#000000" fill-rule="nonzero" fill-opacity="1" /><path clip-path="url(#clip300)" d="M1853.09 161.252 Q1853.09 153.151 1849.72 148.695 Q1846.4 144.239 1840.37 144.239 Q1834.37 144.239 1831.01 148.695 Q1827.69 153.151 1827.69 161.252 Q1827.69 169.314 1831.01 173.77 Q1834.37 178.226 1840.37 178.226 Q1846.4 178.226 1849.72 173.77 Q1853.09 169.314 1853.09 161.252 M1860.54 178.833 Q1860.54 190.419 1855.39 196.05 Q1850.25 201.721 1839.64 201.721 Q1835.71 201.721 1832.22 201.113 Q1828.74 200.546 1825.46 199.331 L1825.46 192.08 Q1828.74 193.862 1831.94 194.713 Q1835.14 195.563 1838.46 195.563 Q1845.79 195.563 1849.44 191.715 Q1853.09 187.907 1853.09 180.17 L1853.09 176.484 Q1850.78 180.494 1847.17 182.479 Q1843.57 184.464 1838.54 184.464 Q1830.2 184.464 1825.09 178.104 Q1819.99 171.744 1819.99 161.252 Q1819.99 150.72 1825.09 144.36 Q1830.2 138 1838.54 138 Q1843.57 138 1847.17 139.985 Q1850.78 141.97 1853.09 145.98 L1853.09 139.094 L1860.54 139.094 L1860.54 178.833 Z" fill="#000000" fill-rule="nonzero" fill-opacity="1" /><path clip-path="url(#clip300)" d="M1902.18 146.061 Q1900.93 145.332 1899.43 145.008 Q1897.97 144.644 1896.19 144.644 Q1889.87 144.644 1886.47 148.776 Q1883.1 152.867 1883.1 160.564 L1883.1 184.464 L1875.61 184.464 L1875.61 139.094 L1883.1 139.094 L1883.1 146.142 Q1885.45 142.011 1889.22 140.026 Q1892.99 138 1898.37 138 Q1899.14 138 1900.08 138.122 Q1901.01 138.203 1902.14 138.405 L1902.18 146.061 Z" fill="#000000" fill-rule="nonzero" fill-opacity="1" /><path clip-path="url(#clip300)" d="M1910 139.094 L1917.45 139.094 L1917.45 184.464 L1910 184.464 L1910 139.094 M1910 121.432 L1917.45 121.432 L1917.45 130.871 L1910 130.871 L1910 121.432 Z" fill="#000000" fill-rule="nonzero" fill-opacity="1" /><path clip-path="url(#clip300)" d="M1962.91 145.98 L1962.91 121.432 L1970.36 121.432 L1970.36 184.464 L1962.91 184.464 L1962.91 177.658 Q1960.56 181.709 1956.95 183.694 Q1953.39 185.639 1948.36 185.639 Q1940.14 185.639 1934.95 179.076 Q1929.81 172.514 1929.81 161.819 Q1929.81 151.125 1934.95 144.563 Q1940.14 138 1948.36 138 Q1953.39 138 1956.95 139.985 Q1960.56 141.93 1962.91 145.98 M1937.51 161.819 Q1937.51 170.043 1940.87 174.742 Q1944.27 179.4 1950.19 179.4 Q1956.1 179.4 1959.5 174.742 Q1962.91 170.043 1962.91 161.819 Q1962.91 153.596 1959.5 148.938 Q1956.1 144.239 1950.19 144.239 Q1944.27 144.239 1940.87 148.938 Q1937.51 153.596 1937.51 161.819 Z" fill="#000000" fill-rule="nonzero" fill-opacity="1" /><path clip-path="url(#clip300)" d="M2041.01 140.431 L2041.01 147.479 Q2037.85 145.859 2034.44 145.049 Q2031.04 144.239 2027.4 144.239 Q2021.85 144.239 2019.05 145.94 Q2016.3 147.641 2016.3 151.044 Q2016.3 153.637 2018.28 155.135 Q2020.27 156.594 2026.26 157.931 L2028.81 158.498 Q2036.75 160.199 2040.08 163.318 Q2043.44 166.397 2043.44 171.947 Q2043.44 178.266 2038.41 181.952 Q2033.43 185.639 2024.68 185.639 Q2021.04 185.639 2017.07 184.91 Q2013.14 184.221 2008.76 182.803 L2008.76 175.106 Q2012.89 177.253 2016.9 178.347 Q2020.91 179.4 2024.84 179.4 Q2030.11 179.4 2032.95 177.618 Q2035.78 175.795 2035.78 172.514 Q2035.78 169.476 2033.72 167.855 Q2031.69 166.235 2024.76 164.736 L2022.17 164.128 Q2015.24 162.67 2012.16 159.672 Q2009.09 156.634 2009.09 151.368 Q2009.09 144.968 2013.62 141.484 Q2018.16 138 2026.5 138 Q2030.64 138 2034.28 138.608 Q2037.93 139.215 2041.01 140.431 Z" fill="#000000" fill-rule="nonzero" fill-opacity="1" /><path clip-path="url(#clip300)" d="M2055.31 139.094 L2062.76 139.094 L2062.76 184.464 L2055.31 184.464 L2055.31 139.094 M2055.31 121.432 L2062.76 121.432 L2062.76 130.871 L2055.31 130.871 L2055.31 121.432 Z" fill="#000000" fill-rule="nonzero" fill-opacity="1" /><path clip-path="url(#clip300)" d="M2075.12 139.094 L2110.52 139.094 L2110.52 145.899 L2082.49 178.509 L2110.52 178.509 L2110.52 184.464 L2074.1 184.464 L2074.1 177.658 L2102.14 145.049 L2075.12 145.049 L2075.12 139.094 Z" fill="#000000" fill-rule="nonzero" fill-opacity="1" /><path clip-path="url(#clip300)" d="M2160.71 159.916 L2160.71 163.561 L2126.44 163.561 Q2126.93 171.258 2131.06 175.309 Q2135.23 179.319 2142.64 179.319 Q2146.94 179.319 2150.95 178.266 Q2155 177.213 2158.97 175.106 L2158.97 182.155 Q2154.96 183.856 2150.75 184.748 Q2146.53 185.639 2142.2 185.639 Q2131.34 185.639 2124.98 179.319 Q2118.66 173 2118.66 162.225 Q2118.66 151.085 2124.66 144.563 Q2130.69 138 2140.9 138 Q2150.06 138 2155.36 143.914 Q2160.71 149.788 2160.71 159.916 M2153.26 157.728 Q2153.18 151.611 2149.81 147.965 Q2146.49 144.32 2140.98 144.32 Q2134.74 144.32 2130.98 147.844 Q2127.25 151.368 2126.68 157.769 L2153.26 157.728 Z" fill="#000000" fill-rule="nonzero" fill-opacity="1" /><path clip-path="url(#clip300)" d="M2195.55 158.822 L2270.41 158.822 L2270.41 164.655 L2195.55 164.655 L2195.55 158.822 Z" fill="#000000" fill-rule="nonzero" fill-opacity="1" /><path clip-path="url(#clip300)" d="M2308.65 139.094 L2316.1 139.094 L2316.1 185.274 Q2316.1 193.943 2312.78 197.832 Q2309.5 201.721 2302.17 201.721 L2299.33 201.721 L2299.33 195.401 L2301.32 195.401 Q2305.57 195.401 2307.11 193.416 Q2308.65 191.472 2308.65 185.274 L2308.65 139.094 M2308.65 121.432 L2316.1 121.432 L2316.1 130.871 L2308.65 130.871 L2308.65 121.432 Z" fill="#000000" fill-rule="nonzero" fill-opacity="1" /><path clip-path="url(#clip300)" d="M2352.32 161.657 Q2343.29 161.657 2339.8 163.723 Q2336.32 165.789 2336.32 170.772 Q2336.32 174.742 2338.91 177.091 Q2341.54 179.4 2346.04 179.4 Q2352.24 179.4 2355.96 175.025 Q2359.73 170.61 2359.73 163.318 L2359.73 161.657 L2352.32 161.657 M2367.19 158.579 L2367.19 184.464 L2359.73 184.464 L2359.73 177.577 Q2357.18 181.709 2353.37 183.694 Q2349.56 185.639 2344.06 185.639 Q2337.09 185.639 2332.96 181.75 Q2328.86 177.821 2328.86 171.258 Q2328.86 163.602 2333.97 159.713 Q2339.11 155.824 2349.28 155.824 L2359.73 155.824 L2359.73 155.095 Q2359.73 149.95 2356.33 147.155 Q2352.97 144.32 2346.85 144.32 Q2342.96 144.32 2339.28 145.251 Q2335.59 146.183 2332.19 148.046 L2332.19 141.16 Q2336.28 139.58 2340.13 138.81 Q2343.97 138 2347.62 138 Q2357.46 138 2362.32 143.104 Q2367.19 148.208 2367.19 158.579 Z" fill="#000000" fill-rule="nonzero" fill-opacity="1" /><path clip-path="url(#clip300)" d="M2415.19 140.836 L2415.19 147.803 Q2412.03 146.061 2408.83 145.211 Q2405.67 144.32 2402.43 144.32 Q2395.18 144.32 2391.17 148.938 Q2387.16 153.515 2387.16 161.819 Q2387.16 170.124 2391.17 174.742 Q2395.18 179.319 2402.43 179.319 Q2405.67 179.319 2408.83 178.469 Q2412.03 177.577 2415.19 175.836 L2415.19 182.722 Q2412.07 184.18 2408.71 184.91 Q2405.39 185.639 2401.62 185.639 Q2391.37 185.639 2385.33 179.198 Q2379.3 172.757 2379.3 161.819 Q2379.3 150.72 2385.37 144.36 Q2391.49 138 2402.1 138 Q2405.55 138 2408.83 138.729 Q2412.11 139.418 2415.19 140.836 Z" fill="#000000" fill-rule="nonzero" fill-opacity="1" /><path clip-path="url(#clip300)" d="M2427.87 121.432 L2435.36 121.432 L2435.36 158.66 L2457.6 139.094 L2467.12 139.094 L2443.06 160.321 L2468.13 184.464 L2458.41 184.464 L2435.36 162.306 L2435.36 184.464 L2427.87 184.464 L2427.87 121.432 Z" fill="#000000" fill-rule="nonzero" fill-opacity="1" /><path clip-path="url(#clip300)" d="M2505.12 140.431 L2505.12 147.479 Q2501.96 145.859 2498.56 145.049 Q2495.15 144.239 2491.51 144.239 Q2485.96 144.239 2483.16 145.94 Q2480.41 147.641 2480.41 151.044 Q2480.41 153.637 2482.39 155.135 Q2484.38 156.594 2490.37 157.931 L2492.93 158.498 Q2500.87 160.199 2504.19 163.318 Q2507.55 166.397 2507.55 171.947 Q2507.55 178.266 2502.53 181.952 Q2497.54 185.639 2488.79 185.639 Q2485.15 185.639 2481.18 184.91 Q2477.25 184.221 2472.87 182.803 L2472.87 175.106 Q2477.01 177.253 2481.02 178.347 Q2485.03 179.4 2488.96 179.4 Q2494.22 179.4 2497.06 177.618 Q2499.89 175.795 2499.89 172.514 Q2499.89 169.476 2497.83 167.855 Q2495.8 166.235 2488.88 164.736 L2486.28 164.128 Q2479.36 162.67 2476.28 159.672 Q2473.2 156.634 2473.2 151.368 Q2473.2 144.968 2477.74 141.484 Q2482.27 138 2490.62 138 Q2494.75 138 2498.39 138.608 Q2502.04 139.215 2505.12 140.431 Z" fill="#000000" fill-rule="nonzero" fill-opacity="1" /><path clip-path="url(#clip300)" d="M2537 144.32 Q2531 144.32 2527.52 149.019 Q2524.04 153.677 2524.04 161.819 Q2524.04 169.962 2527.48 174.661 Q2530.96 179.319 2537 179.319 Q2542.95 179.319 2546.44 174.62 Q2549.92 169.921 2549.92 161.819 Q2549.92 153.758 2546.44 149.059 Q2542.95 144.32 2537 144.32 M2537 138 Q2546.72 138 2552.27 144.32 Q2557.82 150.639 2557.82 161.819 Q2557.82 172.959 2552.27 179.319 Q2546.72 185.639 2537 185.639 Q2527.24 185.639 2521.69 179.319 Q2516.18 172.959 2516.18 161.819 Q2516.18 150.639 2521.69 144.32 Q2527.24 138 2537 138 Z" fill="#000000" fill-rule="nonzero" fill-opacity="1" /><path clip-path="url(#clip300)" d="M2607.89 157.08 L2607.89 184.464 L2600.44 184.464 L2600.44 157.323 Q2600.44 150.882 2597.93 147.682 Q2595.41 144.482 2590.39 144.482 Q2584.35 144.482 2580.87 148.33 Q2577.39 152.178 2577.39 158.822 L2577.39 184.464 L2569.89 184.464 L2569.89 139.094 L2577.39 139.094 L2577.39 146.142 Q2580.06 142.051 2583.67 140.026 Q2587.31 138 2592.05 138 Q2599.87 138 2603.88 142.861 Q2607.89 147.682 2607.89 157.08 Z" fill="#000000" fill-rule="nonzero" fill-opacity="1" /><polyline clip-path="url(#clip302)" style="stroke:#0000ff; stroke-linecap:round; stroke-linejoin:round; stroke-width:6; stroke-opacity:1; fill:none" points="438.821,1940.71 933.096,1282.16 1756.89,1598.62 3404.47,706.655 "/>
<circle clip-path="url(#clip302)" cx="438.821" cy="1940.71" r="14.4" fill="#0000ff" fill-rule="evenodd" fill-opacity="1" stroke="none"/>
<circle clip-path="url(#clip302)" cx="933.096" cy="1282.16" r="14.4" fill="#0000ff" fill-rule="evenodd" fill-opacity="1" stroke="none"/>
<circle clip-path="url(#clip302)" cx="1756.89" cy="1598.62" r="14.4" fill="#0000ff" fill-rule="evenodd" fill-opacity="1" stroke="none"/>
<circle clip-path="url(#clip302)" cx="3404.47" cy="706.655" r="14.4" fill="#0000ff" fill-rule="evenodd" fill-opacity="1" stroke="none"/>
<polyline clip-path="url(#clip302)" style="stroke:#008000; stroke-linecap:round; stroke-linejoin:round; stroke-width:6; stroke-opacity:1; fill:none" points="438.821,2008.3 933.096,1969.39 1756.89,1567.29 3404.47,300.989 "/>
<path clip-path="url(#clip302)" d="M438.821 1992.3 L422.821 2008.3 L438.821 2024.3 L454.821 2008.3 L438.821 1992.3 Z" fill="#008000" fill-rule="evenodd" fill-opacity="1" stroke="none"/>
<path clip-path="url(#clip302)" d="M933.096 1953.39 L917.096 1969.39 L933.096 1985.39 L949.096 1969.39 L933.096 1953.39 Z" fill="#008000" fill-rule="evenodd" fill-opacity="1" stroke="none"/>
<path clip-path="url(#clip302)" d="M1756.89 1551.29 L1740.89 1567.29 L1756.89 1583.29 L1772.89 1567.29 L1756.89 1551.29 Z" fill="#008000" fill-rule="evenodd" fill-opacity="1" stroke="none"/>
<path clip-path="url(#clip302)" d="M3404.47 284.989 L3388.47 300.989 L3404.47 316.989 L3420.47 300.989 L3404.47 284.989 Z" fill="#008000" fill-rule="evenodd" fill-opacity="1" stroke="none"/>
<polyline clip-path="url(#clip302)" style="stroke:#ff0000; stroke-linecap:round; stroke-linejoin:round; stroke-width:6; stroke-opacity:1; fill:none" points="438.821,2004.03 933.096,1498.79 1756.89,1827.62 3404.47,1553.8 "/>
<path clip-path="url(#clip302)" d="M422.821 1988.03 L422.821 2020.03 L454.821 2020.03 L454.821 1988.03 L422.821 1988.03 Z" fill="#ff0000" fill-rule="evenodd" fill-opacity="1" stroke="none"/>
<path clip-path="url(#clip302)" d="M917.096 1482.79 L917.096 1514.79 L949.096 1514.79 L949.096 1482.79 L917.096 1482.79 Z" fill="#ff0000" fill-rule="evenodd" fill-opacity="1" stroke="none"/>
<path clip-path="url(#clip302)" d="M1740.89 1811.62 L1740.89 1843.62 L1772.89 1843.62 L1772.89 1811.62 L1740.89 1811.62 Z" fill="#ff0000" fill-rule="evenodd" fill-opacity="1" stroke="none"/>
<path clip-path="url(#clip302)" d="M3388.47 1537.8 L3388.47 1569.8 L3420.47 1569.8 L3420.47 1537.8 L3388.47 1537.8 Z" fill="#ff0000" fill-rule="evenodd" fill-opacity="1" stroke="none"/>
<polyline clip-path="url(#clip302)" style="stroke:#ffa500; stroke-linecap:round; stroke-linejoin:round; stroke-width:6; stroke-opacity:1; fill:none" points="438.821,2090.92 933.096,2097.07 1756.89,1947.88 3404.47,1467.16 "/>
<path clip-path="url(#clip302)" d="M438.821 2074.92 L422.821 2106.92 L454.821 2106.92 L438.821 2074.92 Z" fill="#ffa500" fill-rule="evenodd" fill-opacity="1" stroke="none"/>
<path clip-path="url(#clip302)" d="M933.096 2081.07 L917.096 2113.07 L949.096 2113.07 L933.096 2081.07 Z" fill="#ffa500" fill-rule="evenodd" fill-opacity="1" stroke="none"/>
<path clip-path="url(#clip302)" d="M1756.89 1931.88 L1740.89 1963.88 L1772.89 1963.88 L1756.89 1931.88 Z" fill="#ffa500" fill-rule="evenodd" fill-opacity="1" stroke="none"/>
<path clip-path="url(#clip302)" d="M3404.47 1451.16 L3388.47 1483.16 L3420.47 1483.16 L3404.47 1451.16 Z" fill="#ffa500" fill-rule="evenodd" fill-opacity="1" stroke="none"/>
<polyline clip-path="url(#clip302)" style="stroke:#800080; stroke-linecap:round; stroke-linejoin:round; stroke-width:6; stroke-opacity:1; fill:none" points="438.821,2021.52 933.096,1534.93 1756.89,1841.19 3404.47,1570.5 "/>
<path clip-path="url(#clip302)" d="M454.821 2005.52 L422.821 2005.52 L438.821 2037.52 L454.821 2005.52 Z" fill="#800080" fill-rule="evenodd" fill-opacity="1" stroke="none"/>
<path clip-path="url(#clip302)" d="M949.096 1518.93 L917.096 1518.93 L933.096 1550.93 L949.096 1518.93 Z" fill="#800080" fill-rule="evenodd" fill-opacity="1" stroke="none"/>
<path clip-path="url(#clip302)" d="M1772.89 1825.19 L1740.89 1825.19 L1756.89 1857.19 L1772.89 1825.19 Z" fill="#800080" fill-rule="evenodd" fill-opacity="1" stroke="none"/>
<path clip-path="url(#clip302)" d="M3420.47 1554.5 L3388.47 1554.5 L3404.47 1586.5 L3420.47 1554.5 Z" fill="#800080" fill-rule="evenodd" fill-opacity="1" stroke="none"/>
<polyline clip-path="url(#clip302)" style="stroke:#a52a2a; stroke-linecap:round; stroke-linejoin:round; stroke-width:6; stroke-opacity:1; fill:none" points="438.821,2098.87 933.096,2102.46 1756.89,1954.13 3404.47,1554.8 "/>
<path clip-path="url(#clip302)" d="M438.821 2082.87 L435.061 2093.69 L423.605 2093.93 L432.741 2100.85 L429.413 2111.81 L438.821 2105.27 L448.229 2111.81 L444.901 2100.85 L454.037 2093.93 L442.581 2093.69 L438.821 2082.87 Z" fill="#a52a2a" fill-rule="evenodd" fill-opacity="1" stroke="none"/>
<path clip-path="url(#clip302)" d="M933.096 2086.46 L929.336 2097.28 L917.88 2097.52 L927.016 2104.45 L923.688 2115.41 L933.096 2108.86 L942.504 2115.41 L939.176 2104.45 L948.312 2097.52 L936.856 2097.28 L933.096 2086.46 Z" fill="#a52a2a" fill-rule="evenodd" fill-opacity="1" stroke="none"/>
<path clip-path="url(#clip302)" d="M1756.89 1938.13 L1753.13 1948.95 L1741.67 1949.19 L1750.81 1956.11 L1747.48 1967.07 L1756.89 1960.53 L1766.3 1967.07 L1762.97 1956.11 L1772.1 1949.19 L1760.65 1948.95 L1756.89 1938.13 Z" fill="#a52a2a" fill-rule="evenodd" fill-opacity="1" stroke="none"/>
<path clip-path="url(#clip302)" d="M3404.47 1538.8 L3400.71 1549.61 L3389.26 1549.85 L3398.39 1556.78 L3395.07 1567.74 L3404.47 1561.2 L3413.88 1567.74 L3410.55 1556.78 L3419.69 1549.85 L3408.23 1549.61 L3404.47 1538.8 Z" fill="#a52a2a" fill-rule="evenodd" fill-opacity="1" stroke="none"/>
<path clip-path="url(#clip300)" d="M2747.73 2092.86 L3444.02 2092.86 L3444.02 1729.98 L2747.73 1729.98  Z" fill="#ffffff" fill-rule="evenodd" fill-opacity="1"/>
<polyline clip-path="url(#clip300)" style="stroke:#000000; stroke-linecap:round; stroke-linejoin:round; stroke-width:4; stroke-opacity:1; fill:none" points="2747.73,2092.86 3444.02,2092.86 3444.02,1729.98 2747.73,1729.98 2747.73,2092.86 "/>
<polyline clip-path="url(#clip300)" style="stroke:#0000ff; stroke-linecap:round; stroke-linejoin:round; stroke-width:6; stroke-opacity:1; fill:none" points="2783.97,1781.82 3001.45,1781.82 "/>
<circle clip-path="url(#clip300)" cx="2892.71" cy="1781.82" r="23.04" fill="#0000ff" fill-rule="evenodd" fill-opacity="1" stroke="none"/>
<path clip-path="url(#clip300)" d="M3048.33 1763.12 Q3045.22 1768.45 3043.72 1773.66 Q3042.21 1778.86 3042.21 1784.21 Q3042.21 1789.56 3043.72 1794.81 Q3045.25 1800.04 3048.33 1805.35 L3044.62 1805.35 Q3041.15 1799.91 3039.41 1794.65 Q3037.7 1789.4 3037.7 1784.21 Q3037.7 1779.05 3039.41 1773.82 Q3041.13 1768.59 3044.62 1763.12 L3048.33 1763.12 Z" fill="#000000" fill-rule="nonzero" fill-opacity="1" /><path clip-path="url(#clip300)" d="M3068.37 1786.06 Q3063.21 1786.06 3061.22 1787.24 Q3059.23 1788.42 3059.23 1791.27 Q3059.23 1793.54 3060.71 1794.88 Q3062.21 1796.2 3064.78 1796.2 Q3068.33 1796.2 3070.46 1793.7 Q3072.61 1791.18 3072.61 1787.01 L3072.61 1786.06 L3068.37 1786.06 M3076.87 1784.3 L3076.87 1799.1 L3072.61 1799.1 L3072.61 1795.16 Q3071.15 1797.52 3068.97 1798.66 Q3066.8 1799.77 3063.65 1799.77 Q3059.67 1799.77 3057.31 1797.54 Q3054.97 1795.3 3054.97 1791.55 Q3054.97 1787.17 3057.89 1784.95 Q3060.83 1782.73 3066.64 1782.73 L3072.61 1782.73 L3072.61 1782.31 Q3072.61 1779.37 3070.66 1777.78 Q3068.74 1776.16 3065.25 1776.16 Q3063.02 1776.16 3060.92 1776.69 Q3058.81 1777.22 3056.87 1778.29 L3056.87 1774.35 Q3059.21 1773.45 3061.4 1773.01 Q3063.6 1772.54 3065.69 1772.54 Q3071.31 1772.54 3074.09 1775.46 Q3076.87 1778.38 3076.87 1784.3 Z" fill="#000000" fill-rule="nonzero" fill-opacity="1" /><path clip-path="url(#clip300)" d="M3102.7 1777.1 L3102.7 1763.08 L3106.96 1763.08 L3106.96 1799.1 L3102.7 1799.1 L3102.7 1795.21 Q3101.36 1797.52 3099.3 1798.66 Q3097.26 1799.77 3094.39 1799.77 Q3089.69 1799.77 3086.73 1796.02 Q3083.79 1792.27 3083.79 1786.16 Q3083.79 1780.04 3086.73 1776.29 Q3089.69 1772.54 3094.39 1772.54 Q3097.26 1772.54 3099.3 1773.68 Q3101.36 1774.79 3102.7 1777.1 M3088.19 1786.16 Q3088.19 1790.85 3090.11 1793.54 Q3092.05 1796.2 3095.43 1796.2 Q3098.81 1796.2 3100.76 1793.54 Q3102.7 1790.85 3102.7 1786.16 Q3102.7 1781.46 3100.76 1778.79 Q3098.81 1776.11 3095.43 1776.11 Q3092.05 1776.11 3090.11 1778.79 Q3088.19 1781.46 3088.19 1786.16 Z" fill="#000000" fill-rule="nonzero" fill-opacity="1" /><path clip-path="url(#clip300)" d="M3137.28 1783.45 L3137.28 1799.1 L3133.02 1799.1 L3133.02 1783.59 Q3133.02 1779.91 3131.59 1778.08 Q3130.15 1776.25 3127.28 1776.25 Q3123.83 1776.25 3121.84 1778.45 Q3119.85 1780.65 3119.85 1784.44 L3119.85 1799.1 L3115.57 1799.1 L3115.57 1773.17 L3119.85 1773.17 L3119.85 1777.2 Q3121.38 1774.86 3123.44 1773.7 Q3125.52 1772.54 3128.23 1772.54 Q3132.7 1772.54 3134.99 1775.32 Q3137.28 1778.08 3137.28 1783.45 Z" fill="#000000" fill-rule="nonzero" fill-opacity="1" /><path clip-path="url(#clip300)" d="M3145.78 1763.08 L3150.04 1763.08 L3150.04 1799.1 L3145.78 1799.1 L3145.78 1763.08 Z" fill="#000000" fill-rule="nonzero" fill-opacity="1" /><path clip-path="url(#clip300)" d="M3163.07 1795.21 L3163.07 1808.96 L3158.79 1808.96 L3158.79 1773.17 L3163.07 1773.17 L3163.07 1777.1 Q3164.41 1774.79 3166.45 1773.68 Q3168.51 1772.54 3171.36 1772.54 Q3176.08 1772.54 3179.02 1776.29 Q3181.98 1780.04 3181.98 1786.16 Q3181.98 1792.27 3179.02 1796.02 Q3176.08 1799.77 3171.36 1799.77 Q3168.51 1799.77 3166.45 1798.66 Q3164.41 1797.52 3163.07 1795.21 M3177.56 1786.16 Q3177.56 1781.46 3175.62 1778.79 Q3173.7 1776.11 3170.32 1776.11 Q3166.94 1776.11 3164.99 1778.79 Q3163.07 1781.46 3163.07 1786.16 Q3163.07 1790.85 3164.99 1793.54 Q3166.94 1796.2 3170.32 1796.2 Q3173.7 1796.2 3175.62 1793.54 Q3177.56 1790.85 3177.56 1786.16 Z" fill="#000000" fill-rule="nonzero" fill-opacity="1" /><path clip-path="url(#clip300)" d="M3190.13 1793.22 L3195.01 1793.22 L3195.01 1797.2 L3191.22 1804.6 L3188.23 1804.6 L3190.13 1797.2 L3190.13 1793.22 Z" fill="#000000" fill-rule="nonzero" fill-opacity="1" /><path clip-path="url(#clip300)" d="M3219.18 1773.17 L3223.44 1773.17 L3223.44 1799.1 L3219.18 1799.1 L3219.18 1773.17 M3219.18 1763.08 L3223.44 1763.08 L3223.44 1768.47 L3219.18 1768.47 L3219.18 1763.08 Z" fill="#000000" fill-rule="nonzero" fill-opacity="1" /><path clip-path="url(#clip300)" d="M3236.47 1795.21 L3236.47 1808.96 L3232.19 1808.96 L3232.19 1773.17 L3236.47 1773.17 L3236.47 1777.1 Q3237.82 1774.79 3239.85 1773.68 Q3241.91 1772.54 3244.76 1772.54 Q3249.48 1772.54 3252.42 1776.29 Q3255.39 1780.04 3255.39 1786.16 Q3255.39 1792.27 3252.42 1796.02 Q3249.48 1799.77 3244.76 1799.77 Q3241.91 1799.77 3239.85 1798.66 Q3237.82 1797.52 3236.47 1795.21 M3250.96 1786.16 Q3250.96 1781.46 3249.02 1778.79 Q3247.1 1776.11 3243.72 1776.11 Q3240.34 1776.11 3238.39 1778.79 Q3236.47 1781.46 3236.47 1786.16 Q3236.47 1790.85 3238.39 1793.54 Q3240.34 1796.2 3243.72 1796.2 Q3247.1 1796.2 3249.02 1793.54 Q3250.96 1790.85 3250.96 1786.16 Z" fill="#000000" fill-rule="nonzero" fill-opacity="1" /><path clip-path="url(#clip300)" d="M3272.49 1776.16 Q3269.07 1776.16 3267.07 1778.84 Q3265.08 1781.5 3265.08 1786.16 Q3265.08 1790.81 3267.05 1793.49 Q3269.04 1796.16 3272.49 1796.16 Q3275.89 1796.16 3277.88 1793.47 Q3279.88 1790.79 3279.88 1786.16 Q3279.88 1781.55 3277.88 1778.86 Q3275.89 1776.16 3272.49 1776.16 M3272.49 1772.54 Q3278.05 1772.54 3281.22 1776.16 Q3284.39 1779.77 3284.39 1786.16 Q3284.39 1792.52 3281.22 1796.16 Q3278.05 1799.77 3272.49 1799.77 Q3266.91 1799.77 3263.74 1796.16 Q3260.59 1792.52 3260.59 1786.16 Q3260.59 1779.77 3263.74 1776.16 Q3266.91 1772.54 3272.49 1772.54 Z" fill="#000000" fill-rule="nonzero" fill-opacity="1" /><path clip-path="url(#clip300)" d="M3295.57 1795.21 L3295.57 1808.96 L3291.29 1808.96 L3291.29 1773.17 L3295.57 1773.17 L3295.57 1777.1 Q3296.91 1774.79 3298.95 1773.68 Q3301.01 1772.54 3303.86 1772.54 Q3308.58 1772.54 3311.52 1776.29 Q3314.48 1780.04 3314.48 1786.16 Q3314.48 1792.27 3311.52 1796.02 Q3308.58 1799.77 3303.86 1799.77 Q3301.01 1799.77 3298.95 1798.66 Q3296.91 1797.52 3295.57 1795.21 M3310.06 1786.16 Q3310.06 1781.46 3308.12 1778.79 Q3306.19 1776.11 3302.82 1776.11 Q3299.44 1776.11 3297.49 1778.79 Q3295.57 1781.46 3295.57 1786.16 Q3295.57 1790.85 3297.49 1793.54 Q3299.44 1796.2 3302.82 1796.2 Q3306.19 1796.2 3308.12 1793.54 Q3310.06 1790.85 3310.06 1786.16 Z" fill="#000000" fill-rule="nonzero" fill-opacity="1" /><path clip-path="url(#clip300)" d="M3325.76 1765.81 L3325.76 1773.17 L3334.53 1773.17 L3334.53 1776.48 L3325.76 1776.48 L3325.76 1790.55 Q3325.76 1793.73 3326.61 1794.63 Q3327.49 1795.53 3330.15 1795.53 L3334.53 1795.53 L3334.53 1799.1 L3330.15 1799.1 Q3325.22 1799.1 3323.35 1797.27 Q3321.47 1795.42 3321.47 1790.55 L3321.47 1776.48 L3318.35 1776.48 L3318.35 1773.17 L3321.47 1773.17 L3321.47 1765.81 L3325.76 1765.81 Z" fill="#000000" fill-rule="nonzero" fill-opacity="1" /><path clip-path="url(#clip300)" d="M3339.46 1763.12 L3343.16 1763.12 Q3346.63 1768.59 3348.35 1773.82 Q3350.08 1779.05 3350.08 1784.21 Q3350.08 1789.4 3348.35 1794.65 Q3346.63 1799.91 3343.16 1805.35 L3339.46 1805.35 Q3342.54 1800.04 3344.04 1794.81 Q3345.57 1789.56 3345.57 1784.21 Q3345.57 1778.86 3344.04 1773.66 Q3342.54 1768.45 3339.46 1763.12 Z" fill="#000000" fill-rule="nonzero" fill-opacity="1" /><polyline clip-path="url(#clip300)" style="stroke:#008000; stroke-linecap:round; stroke-linejoin:round; stroke-width:6; stroke-opacity:1; fill:none" points="2783.97,1833.66 3001.45,1833.66 "/>
<path clip-path="url(#clip300)" d="M2892.71 1808.06 L2867.11 1833.66 L2892.71 1859.26 L2918.31 1833.66 L2892.71 1808.06 Z" fill="#008000" fill-rule="evenodd" fill-opacity="1" stroke="none"/>
<path clip-path="url(#clip300)" d="M3048.33 1814.96 Q3045.22 1820.29 3043.72 1825.5 Q3042.21 1830.7 3042.21 1836.05 Q3042.21 1841.4 3043.72 1846.65 Q3045.25 1851.88 3048.33 1857.19 L3044.62 1857.19 Q3041.15 1851.75 3039.41 1846.49 Q3037.7 1841.24 3037.7 1836.05 Q3037.7 1830.89 3039.41 1825.66 Q3041.13 1820.43 3044.62 1814.96 L3048.33 1814.96 Z" fill="#000000" fill-rule="nonzero" fill-opacity="1" /><path clip-path="url(#clip300)" d="M3068.37 1837.9 Q3063.21 1837.9 3061.22 1839.08 Q3059.23 1840.26 3059.23 1843.11 Q3059.23 1845.38 3060.71 1846.72 Q3062.21 1848.04 3064.78 1848.04 Q3068.33 1848.04 3070.46 1845.54 Q3072.61 1843.02 3072.61 1838.85 L3072.61 1837.9 L3068.37 1837.9 M3076.87 1836.14 L3076.87 1850.94 L3072.61 1850.94 L3072.61 1847 Q3071.15 1849.36 3068.97 1850.5 Q3066.8 1851.61 3063.65 1851.61 Q3059.67 1851.61 3057.31 1849.38 Q3054.97 1847.14 3054.97 1843.39 Q3054.97 1839.01 3057.89 1836.79 Q3060.83 1834.57 3066.64 1834.57 L3072.61 1834.57 L3072.61 1834.15 Q3072.61 1831.21 3070.66 1829.62 Q3068.74 1828 3065.25 1828 Q3063.02 1828 3060.92 1828.53 Q3058.81 1829.06 3056.87 1830.13 L3056.87 1826.19 Q3059.21 1825.29 3061.4 1824.85 Q3063.6 1824.38 3065.69 1824.38 Q3071.31 1824.38 3074.09 1827.3 Q3076.87 1830.22 3076.87 1836.14 Z" fill="#000000" fill-rule="nonzero" fill-opacity="1" /><path clip-path="url(#clip300)" d="M3102.7 1828.94 L3102.7 1814.92 L3106.96 1814.92 L3106.96 1850.94 L3102.7 1850.94 L3102.7 1847.05 Q3101.36 1849.36 3099.3 1850.5 Q3097.26 1851.61 3094.39 1851.61 Q3089.69 1851.61 3086.73 1847.86 Q3083.79 1844.11 3083.79 1838 Q3083.79 1831.88 3086.73 1828.13 Q3089.69 1824.38 3094.39 1824.38 Q3097.26 1824.38 3099.3 1825.52 Q3101.36 1826.63 3102.7 1828.94 M3088.19 1838 Q3088.19 1842.69 3090.11 1845.38 Q3092.05 1848.04 3095.43 1848.04 Q3098.81 1848.04 3100.76 1845.38 Q3102.7 1842.69 3102.7 1838 Q3102.7 1833.3 3100.76 1830.63 Q3098.81 1827.95 3095.43 1827.95 Q3092.05 1827.95 3090.11 1830.63 Q3088.19 1833.3 3088.19 1838 Z" fill="#000000" fill-rule="nonzero" fill-opacity="1" /><path clip-path="url(#clip300)" d="M3137.28 1835.29 L3137.28 1850.94 L3133.02 1850.94 L3133.02 1835.43 Q3133.02 1831.75 3131.59 1829.92 Q3130.15 1828.09 3127.28 1828.09 Q3123.83 1828.09 3121.84 1830.29 Q3119.85 1832.49 3119.85 1836.28 L3119.85 1850.94 L3115.57 1850.94 L3115.57 1825.01 L3119.85 1825.01 L3119.85 1829.04 Q3121.38 1826.7 3123.44 1825.54 Q3125.52 1824.38 3128.23 1824.38 Q3132.7 1824.38 3134.99 1827.16 Q3137.28 1829.92 3137.28 1835.29 Z" fill="#000000" fill-rule="nonzero" fill-opacity="1" /><path clip-path="url(#clip300)" d="M3145.78 1814.92 L3150.04 1814.92 L3150.04 1850.94 L3145.78 1850.94 L3145.78 1814.92 Z" fill="#000000" fill-rule="nonzero" fill-opacity="1" /><path clip-path="url(#clip300)" d="M3163.07 1847.05 L3163.07 1860.8 L3158.79 1860.8 L3158.79 1825.01 L3163.07 1825.01 L3163.07 1828.94 Q3164.41 1826.63 3166.45 1825.52 Q3168.51 1824.38 3171.36 1824.38 Q3176.08 1824.38 3179.02 1828.13 Q3181.98 1831.88 3181.98 1838 Q3181.98 1844.11 3179.02 1847.86 Q3176.08 1851.61 3171.36 1851.61 Q3168.51 1851.61 3166.45 1850.5 Q3164.41 1849.36 3163.07 1847.05 M3177.56 1838 Q3177.56 1833.3 3175.62 1830.63 Q3173.7 1827.95 3170.32 1827.95 Q3166.94 1827.95 3164.99 1830.63 Q3163.07 1833.3 3163.07 1838 Q3163.07 1842.69 3164.99 1845.38 Q3166.94 1848.04 3170.32 1848.04 Q3173.7 1848.04 3175.62 1845.38 Q3177.56 1842.69 3177.56 1838 Z" fill="#000000" fill-rule="nonzero" fill-opacity="1" /><path clip-path="url(#clip300)" d="M3190.13 1845.06 L3195.01 1845.06 L3195.01 1849.04 L3191.22 1856.44 L3188.23 1856.44 L3190.13 1849.04 L3190.13 1845.06 Z" fill="#000000" fill-rule="nonzero" fill-opacity="1" /><path clip-path="url(#clip300)" d="M3239.37 1829.99 Q3240.96 1827.12 3243.19 1825.75 Q3245.41 1824.38 3248.42 1824.38 Q3252.47 1824.38 3254.67 1827.23 Q3256.87 1830.06 3256.87 1835.29 L3256.87 1850.94 L3252.58 1850.94 L3252.58 1835.43 Q3252.58 1831.7 3251.26 1829.89 Q3249.95 1828.09 3247.24 1828.09 Q3243.93 1828.09 3242.01 1830.29 Q3240.08 1832.49 3240.08 1836.28 L3240.08 1850.94 L3235.8 1850.94 L3235.8 1835.43 Q3235.8 1831.68 3234.48 1829.89 Q3233.16 1828.09 3230.41 1828.09 Q3227.14 1828.09 3225.22 1830.31 Q3223.3 1832.51 3223.3 1836.28 L3223.3 1850.94 L3219.02 1850.94 L3219.02 1825.01 L3223.3 1825.01 L3223.3 1829.04 Q3224.76 1826.65 3226.8 1825.52 Q3228.83 1824.38 3231.64 1824.38 Q3234.46 1824.38 3236.43 1825.82 Q3238.42 1827.26 3239.37 1829.99 Z" fill="#000000" fill-rule="nonzero" fill-opacity="1" /><path clip-path="url(#clip300)" d="M3277.14 1837.9 Q3271.98 1837.9 3269.99 1839.08 Q3268 1840.26 3268 1843.11 Q3268 1845.38 3269.48 1846.72 Q3270.99 1848.04 3273.56 1848.04 Q3277.1 1848.04 3279.23 1845.54 Q3281.38 1843.02 3281.38 1838.85 L3281.38 1837.9 L3277.14 1837.9 M3285.64 1836.14 L3285.64 1850.94 L3281.38 1850.94 L3281.38 1847 Q3279.92 1849.36 3277.75 1850.5 Q3275.57 1851.61 3272.42 1851.61 Q3268.44 1851.61 3266.08 1849.38 Q3263.74 1847.14 3263.74 1843.39 Q3263.74 1839.01 3266.66 1836.79 Q3269.6 1834.57 3275.41 1834.57 L3281.38 1834.57 L3281.38 1834.15 Q3281.38 1831.21 3279.44 1829.62 Q3277.51 1828 3274.02 1828 Q3271.8 1828 3269.69 1828.53 Q3267.58 1829.06 3265.64 1830.13 L3265.64 1826.19 Q3267.98 1825.29 3270.18 1824.85 Q3272.38 1824.38 3274.46 1824.38 Q3280.08 1824.38 3282.86 1827.3 Q3285.64 1830.22 3285.64 1836.14 Z" fill="#000000" fill-rule="nonzero" fill-opacity="1" /><path clip-path="url(#clip300)" d="M3311.47 1828.94 L3311.47 1814.92 L3315.73 1814.92 L3315.73 1850.94 L3311.47 1850.94 L3311.47 1847.05 Q3310.13 1849.36 3308.07 1850.5 Q3306.03 1851.61 3303.16 1851.61 Q3298.46 1851.61 3295.5 1847.86 Q3292.56 1844.11 3292.56 1838 Q3292.56 1831.88 3295.5 1828.13 Q3298.46 1824.38 3303.16 1824.38 Q3306.03 1824.38 3308.07 1825.52 Q3310.13 1826.63 3311.47 1828.94 M3296.96 1838 Q3296.96 1842.69 3298.88 1845.38 Q3300.82 1848.04 3304.2 1848.04 Q3307.58 1848.04 3309.53 1845.38 Q3311.47 1842.69 3311.47 1838 Q3311.47 1833.3 3309.53 1830.63 Q3307.58 1827.95 3304.2 1827.95 Q3300.82 1827.95 3298.88 1830.63 Q3296.96 1833.3 3296.96 1838 Z" fill="#000000" fill-rule="nonzero" fill-opacity="1" /><path clip-path="url(#clip300)" d="M3346.06 1835.29 L3346.06 1850.94 L3341.8 1850.94 L3341.8 1835.43 Q3341.8 1831.75 3340.36 1829.92 Q3338.93 1828.09 3336.06 1828.09 Q3332.61 1828.09 3330.62 1830.29 Q3328.63 1832.49 3328.63 1836.28 L3328.63 1850.94 L3324.34 1850.94 L3324.34 1825.01 L3328.63 1825.01 L3328.63 1829.04 Q3330.15 1826.7 3332.21 1825.54 Q3334.3 1824.38 3337 1824.38 Q3341.47 1824.38 3343.76 1827.16 Q3346.06 1829.92 3346.06 1835.29 Z" fill="#000000" fill-rule="nonzero" fill-opacity="1" /><path clip-path="url(#clip300)" d="M3354.55 1814.92 L3358.81 1814.92 L3358.81 1850.94 L3354.55 1850.94 L3354.55 1814.92 Z" fill="#000000" fill-rule="nonzero" fill-opacity="1" /><path clip-path="url(#clip300)" d="M3371.84 1847.05 L3371.84 1860.8 L3367.56 1860.8 L3367.56 1825.01 L3371.84 1825.01 L3371.84 1828.94 Q3373.19 1826.63 3375.22 1825.52 Q3377.28 1824.38 3380.13 1824.38 Q3384.85 1824.38 3387.79 1828.13 Q3390.75 1831.88 3390.75 1838 Q3390.75 1844.11 3387.79 1847.86 Q3384.85 1851.61 3380.13 1851.61 Q3377.28 1851.61 3375.22 1850.5 Q3373.19 1849.36 3371.84 1847.05 M3386.33 1838 Q3386.33 1833.3 3384.39 1830.63 Q3382.47 1827.95 3379.09 1827.95 Q3375.71 1827.95 3373.76 1830.63 Q3371.84 1833.3 3371.84 1838 Q3371.84 1842.69 3373.76 1845.38 Q3375.71 1848.04 3379.09 1848.04 Q3382.47 1848.04 3384.39 1845.38 Q3386.33 1842.69 3386.33 1838 Z" fill="#000000" fill-rule="nonzero" fill-opacity="1" /><path clip-path="url(#clip300)" d="M3397.14 1814.96 L3400.85 1814.96 Q3404.32 1820.43 3406.03 1825.66 Q3407.77 1830.89 3407.77 1836.05 Q3407.77 1841.24 3406.03 1846.49 Q3404.32 1851.75 3400.85 1857.19 L3397.14 1857.19 Q3400.22 1851.88 3401.73 1846.65 Q3403.25 1841.4 3403.25 1836.05 Q3403.25 1830.7 3401.73 1825.5 Q3400.22 1820.29 3397.14 1814.96 Z" fill="#000000" fill-rule="nonzero" fill-opacity="1" /><polyline clip-path="url(#clip300)" style="stroke:#ff0000; stroke-linecap:round; stroke-linejoin:round; stroke-width:6; stroke-opacity:1; fill:none" points="2783.97,1885.5 3001.45,1885.5 "/>
<path clip-path="url(#clip300)" d="M2867.11 1859.9 L2867.11 1911.1 L2918.31 1911.1 L2918.31 1859.9 L2867.11 1859.9 Z" fill="#ff0000" fill-rule="evenodd" fill-opacity="1" stroke="none"/>
<path clip-path="url(#clip300)" d="M3048.33 1866.8 Q3045.22 1872.13 3043.72 1877.34 Q3042.21 1882.54 3042.21 1887.89 Q3042.21 1893.24 3043.72 1898.49 Q3045.25 1903.72 3048.33 1909.03 L3044.62 1909.03 Q3041.15 1903.59 3039.41 1898.33 Q3037.7 1893.08 3037.7 1887.89 Q3037.7 1882.73 3039.41 1877.5 Q3041.13 1872.27 3044.62 1866.8 L3048.33 1866.8 Z" fill="#000000" fill-rule="nonzero" fill-opacity="1" /><path clip-path="url(#clip300)" d="M3078.77 1888.75 L3078.77 1890.83 L3059.18 1890.83 Q3059.46 1895.23 3061.82 1897.54 Q3064.21 1899.84 3068.44 1899.84 Q3070.9 1899.84 3073.19 1899.23 Q3075.5 1898.63 3077.77 1897.43 L3077.77 1901.46 Q3075.48 1902.43 3073.07 1902.94 Q3070.66 1903.45 3068.19 1903.45 Q3061.98 1903.45 3058.35 1899.84 Q3054.74 1896.22 3054.74 1890.07 Q3054.74 1883.7 3058.16 1879.97 Q3061.61 1876.22 3067.45 1876.22 Q3072.68 1876.22 3075.71 1879.6 Q3078.77 1882.96 3078.77 1888.75 M3074.51 1887.5 Q3074.46 1884 3072.54 1881.92 Q3070.64 1879.84 3067.49 1879.84 Q3063.93 1879.84 3061.77 1881.85 Q3059.65 1883.86 3059.32 1887.52 L3074.51 1887.5 Z" fill="#000000" fill-rule="nonzero" fill-opacity="1" /><path clip-path="url(#clip300)" d="M3106.47 1876.85 L3097.1 1889.47 L3106.96 1902.78 L3101.94 1902.78 L3094.39 1892.59 L3086.84 1902.78 L3081.82 1902.78 L3091.89 1889.21 L3082.68 1876.85 L3087.7 1876.85 L3094.58 1886.09 L3101.45 1876.85 L3106.47 1876.85 Z" fill="#000000" fill-rule="nonzero" fill-opacity="1" /><path clip-path="url(#clip300)" d="M3124.76 1889.74 Q3119.6 1889.74 3117.61 1890.92 Q3115.62 1892.1 3115.62 1894.95 Q3115.62 1897.22 3117.1 1898.56 Q3118.6 1899.88 3121.17 1899.88 Q3124.71 1899.88 3126.84 1897.38 Q3129 1894.86 3129 1890.69 L3129 1889.74 L3124.76 1889.74 M3133.26 1887.98 L3133.26 1902.78 L3129 1902.78 L3129 1898.84 Q3127.54 1901.2 3125.36 1902.34 Q3123.19 1903.45 3120.04 1903.45 Q3116.06 1903.45 3113.7 1901.22 Q3111.36 1898.98 3111.36 1895.23 Q3111.36 1890.85 3114.27 1888.63 Q3117.21 1886.41 3123.02 1886.41 L3129 1886.41 L3129 1885.99 Q3129 1883.05 3127.05 1881.46 Q3125.13 1879.84 3121.64 1879.84 Q3119.41 1879.84 3117.31 1880.37 Q3115.2 1880.9 3113.26 1881.97 L3113.26 1878.03 Q3115.59 1877.13 3117.79 1876.69 Q3119.99 1876.22 3122.08 1876.22 Q3127.7 1876.22 3130.48 1879.14 Q3133.26 1882.06 3133.26 1887.98 Z" fill="#000000" fill-rule="nonzero" fill-opacity="1" /><path clip-path="url(#clip300)" d="M3143.12 1896.9 L3148 1896.9 L3148 1900.88 L3144.21 1908.28 L3141.22 1908.28 L3143.12 1900.88 L3143.12 1896.9 Z" fill="#000000" fill-rule="nonzero" fill-opacity="1" /><path clip-path="url(#clip300)" d="M3172.17 1876.85 L3176.43 1876.85 L3176.43 1902.78 L3172.17 1902.78 L3172.17 1876.85 M3172.17 1866.76 L3176.43 1866.76 L3176.43 1872.15 L3172.17 1872.15 L3172.17 1866.76 Z" fill="#000000" fill-rule="nonzero" fill-opacity="1" /><path clip-path="url(#clip300)" d="M3189.46 1898.89 L3189.46 1912.64 L3185.18 1912.64 L3185.18 1876.85 L3189.46 1876.85 L3189.46 1880.78 Q3190.8 1878.47 3192.84 1877.36 Q3194.9 1876.22 3197.75 1876.22 Q3202.47 1876.22 3205.41 1879.97 Q3208.37 1883.72 3208.37 1889.84 Q3208.37 1895.95 3205.41 1899.7 Q3202.47 1903.45 3197.75 1903.45 Q3194.9 1903.45 3192.84 1902.34 Q3190.8 1901.2 3189.46 1898.89 M3203.95 1889.84 Q3203.95 1885.14 3202.01 1882.47 Q3200.08 1879.79 3196.7 1879.79 Q3193.33 1879.79 3191.38 1882.47 Q3189.46 1885.14 3189.46 1889.84 Q3189.46 1894.53 3191.38 1897.22 Q3193.33 1899.88 3196.7 1899.88 Q3200.08 1899.88 3202.01 1897.22 Q3203.95 1894.53 3203.95 1889.84 Z" fill="#000000" fill-rule="nonzero" fill-opacity="1" /><path clip-path="url(#clip300)" d="M3225.48 1879.84 Q3222.05 1879.84 3220.06 1882.52 Q3218.07 1885.18 3218.07 1889.84 Q3218.07 1894.49 3220.04 1897.17 Q3222.03 1899.84 3225.48 1899.84 Q3228.88 1899.84 3230.87 1897.15 Q3232.86 1894.47 3232.86 1889.84 Q3232.86 1885.23 3230.87 1882.54 Q3228.88 1879.84 3225.48 1879.84 M3225.48 1876.22 Q3231.03 1876.22 3234.2 1879.84 Q3237.38 1883.45 3237.38 1889.84 Q3237.38 1896.2 3234.2 1899.84 Q3231.03 1903.45 3225.48 1903.45 Q3219.9 1903.45 3216.73 1899.84 Q3213.58 1896.2 3213.58 1889.84 Q3213.58 1883.45 3216.73 1879.84 Q3219.9 1876.22 3225.48 1876.22 Z" fill="#000000" fill-rule="nonzero" fill-opacity="1" /><path clip-path="url(#clip300)" d="M3248.56 1898.89 L3248.56 1912.64 L3244.27 1912.64 L3244.27 1876.85 L3248.56 1876.85 L3248.56 1880.78 Q3249.9 1878.47 3251.94 1877.36 Q3254 1876.22 3256.84 1876.22 Q3261.57 1876.22 3264.51 1879.97 Q3267.47 1883.72 3267.47 1889.84 Q3267.47 1895.95 3264.51 1899.7 Q3261.57 1903.45 3256.84 1903.45 Q3254 1903.45 3251.94 1902.34 Q3249.9 1901.2 3248.56 1898.89 M3263.05 1889.84 Q3263.05 1885.14 3261.1 1882.47 Q3259.18 1879.79 3255.8 1879.79 Q3252.42 1879.79 3250.48 1882.47 Q3248.56 1885.14 3248.56 1889.84 Q3248.56 1894.53 3250.48 1897.22 Q3252.42 1899.88 3255.8 1899.88 Q3259.18 1899.88 3261.1 1897.22 Q3263.05 1894.53 3263.05 1889.84 Z" fill="#000000" fill-rule="nonzero" fill-opacity="1" /><path clip-path="url(#clip300)" d="M3278.74 1869.49 L3278.74 1876.85 L3287.51 1876.85 L3287.51 1880.16 L3278.74 1880.16 L3278.74 1894.23 Q3278.74 1897.41 3279.6 1898.31 Q3280.48 1899.21 3283.14 1899.21 L3287.51 1899.21 L3287.51 1902.78 L3283.14 1902.78 Q3278.21 1902.78 3276.33 1900.95 Q3274.46 1899.1 3274.46 1894.23 L3274.46 1880.16 L3271.33 1880.16 L3271.33 1876.85 L3274.46 1876.85 L3274.46 1869.49 L3278.74 1869.49 Z" fill="#000000" fill-rule="nonzero" fill-opacity="1" /><path clip-path="url(#clip300)" d="M3292.45 1866.8 L3296.15 1866.8 Q3299.62 1872.27 3301.33 1877.5 Q3303.07 1882.73 3303.07 1887.89 Q3303.07 1893.08 3301.33 1898.33 Q3299.62 1903.59 3296.15 1909.03 L3292.45 1909.03 Q3295.52 1903.72 3297.03 1898.49 Q3298.56 1893.24 3298.56 1887.89 Q3298.56 1882.54 3297.03 1877.34 Q3295.52 1872.13 3292.45 1866.8 Z" fill="#000000" fill-rule="nonzero" fill-opacity="1" /><polyline clip-path="url(#clip300)" style="stroke:#ffa500; stroke-linecap:round; stroke-linejoin:round; stroke-width:6; stroke-opacity:1; fill:none" points="2783.97,1937.34 3001.45,1937.34 "/>
<path clip-path="url(#clip300)" d="M2892.71 1911.74 L2867.11 1962.94 L2918.31 1962.94 L2892.71 1911.74 Z" fill="#ffa500" fill-rule="evenodd" fill-opacity="1" stroke="none"/>
<path clip-path="url(#clip300)" d="M3048.33 1918.64 Q3045.22 1923.97 3043.72 1929.18 Q3042.21 1934.38 3042.21 1939.73 Q3042.21 1945.08 3043.72 1950.33 Q3045.25 1955.56 3048.33 1960.87 L3044.62 1960.87 Q3041.15 1955.43 3039.41 1950.17 Q3037.7 1944.92 3037.7 1939.73 Q3037.7 1934.57 3039.41 1929.34 Q3041.13 1924.11 3044.62 1918.64 L3048.33 1918.64 Z" fill="#000000" fill-rule="nonzero" fill-opacity="1" /><path clip-path="url(#clip300)" d="M3078.77 1940.59 L3078.77 1942.67 L3059.18 1942.67 Q3059.46 1947.07 3061.82 1949.38 Q3064.21 1951.68 3068.44 1951.68 Q3070.9 1951.68 3073.19 1951.07 Q3075.5 1950.47 3077.77 1949.27 L3077.77 1953.3 Q3075.48 1954.27 3073.07 1954.78 Q3070.66 1955.29 3068.19 1955.29 Q3061.98 1955.29 3058.35 1951.68 Q3054.74 1948.06 3054.74 1941.91 Q3054.74 1935.54 3058.16 1931.81 Q3061.61 1928.06 3067.45 1928.06 Q3072.68 1928.06 3075.71 1931.44 Q3078.77 1934.8 3078.77 1940.59 M3074.51 1939.34 Q3074.46 1935.84 3072.54 1933.76 Q3070.64 1931.68 3067.49 1931.68 Q3063.93 1931.68 3061.77 1933.69 Q3059.65 1935.7 3059.32 1939.36 L3074.51 1939.34 Z" fill="#000000" fill-rule="nonzero" fill-opacity="1" /><path clip-path="url(#clip300)" d="M3106.47 1928.69 L3097.1 1941.31 L3106.96 1954.62 L3101.94 1954.62 L3094.39 1944.43 L3086.84 1954.62 L3081.82 1954.62 L3091.89 1941.05 L3082.68 1928.69 L3087.7 1928.69 L3094.58 1937.93 L3101.45 1928.69 L3106.47 1928.69 Z" fill="#000000" fill-rule="nonzero" fill-opacity="1" /><path clip-path="url(#clip300)" d="M3124.76 1941.58 Q3119.6 1941.58 3117.61 1942.76 Q3115.62 1943.94 3115.62 1946.79 Q3115.62 1949.06 3117.1 1950.4 Q3118.6 1951.72 3121.17 1951.72 Q3124.71 1951.72 3126.84 1949.22 Q3129 1946.7 3129 1942.53 L3129 1941.58 L3124.76 1941.58 M3133.26 1939.82 L3133.26 1954.62 L3129 1954.62 L3129 1950.68 Q3127.54 1953.04 3125.36 1954.18 Q3123.19 1955.29 3120.04 1955.29 Q3116.06 1955.29 3113.7 1953.06 Q3111.36 1950.82 3111.36 1947.07 Q3111.36 1942.69 3114.27 1940.47 Q3117.21 1938.25 3123.02 1938.25 L3129 1938.25 L3129 1937.83 Q3129 1934.89 3127.05 1933.3 Q3125.13 1931.68 3121.64 1931.68 Q3119.41 1931.68 3117.31 1932.21 Q3115.2 1932.74 3113.26 1933.81 L3113.26 1929.87 Q3115.59 1928.97 3117.79 1928.53 Q3119.99 1928.06 3122.08 1928.06 Q3127.7 1928.06 3130.48 1930.98 Q3133.26 1933.9 3133.26 1939.82 Z" fill="#000000" fill-rule="nonzero" fill-opacity="1" /><path clip-path="url(#clip300)" d="M3143.12 1948.74 L3148 1948.74 L3148 1952.72 L3144.21 1960.12 L3141.22 1960.12 L3143.12 1952.72 L3143.12 1948.74 Z" fill="#000000" fill-rule="nonzero" fill-opacity="1" /><path clip-path="url(#clip300)" d="M3192.35 1933.67 Q3193.95 1930.8 3196.17 1929.43 Q3198.39 1928.06 3201.4 1928.06 Q3205.45 1928.06 3207.65 1930.91 Q3209.85 1933.74 3209.85 1938.97 L3209.85 1954.62 L3205.57 1954.62 L3205.57 1939.11 Q3205.57 1935.38 3204.25 1933.57 Q3202.93 1931.77 3200.22 1931.77 Q3196.91 1931.77 3194.99 1933.97 Q3193.07 1936.17 3193.07 1939.96 L3193.07 1954.62 L3188.79 1954.62 L3188.79 1939.11 Q3188.79 1935.36 3187.47 1933.57 Q3186.15 1931.77 3183.39 1931.77 Q3180.13 1931.77 3178.21 1933.99 Q3176.29 1936.19 3176.29 1939.96 L3176.29 1954.62 L3172.01 1954.62 L3172.01 1928.69 L3176.29 1928.69 L3176.29 1932.72 Q3177.75 1930.33 3179.78 1929.2 Q3181.82 1928.06 3184.62 1928.06 Q3187.45 1928.06 3189.41 1929.5 Q3191.4 1930.94 3192.35 1933.67 Z" fill="#000000" fill-rule="nonzero" fill-opacity="1" /><path clip-path="url(#clip300)" d="M3230.13 1941.58 Q3224.97 1941.58 3222.98 1942.76 Q3220.99 1943.94 3220.99 1946.79 Q3220.99 1949.06 3222.47 1950.4 Q3223.97 1951.72 3226.54 1951.72 Q3230.08 1951.72 3232.21 1949.22 Q3234.37 1946.7 3234.37 1942.53 L3234.37 1941.58 L3230.13 1941.58 M3238.63 1939.82 L3238.63 1954.62 L3234.37 1954.62 L3234.37 1950.68 Q3232.91 1953.04 3230.73 1954.18 Q3228.56 1955.29 3225.41 1955.29 Q3221.43 1955.29 3219.07 1953.06 Q3216.73 1950.82 3216.73 1947.07 Q3216.73 1942.69 3219.64 1940.47 Q3222.58 1938.25 3228.39 1938.25 L3234.37 1938.25 L3234.37 1937.83 Q3234.37 1934.89 3232.42 1933.3 Q3230.5 1931.68 3227.01 1931.68 Q3224.78 1931.68 3222.68 1932.21 Q3220.57 1932.74 3218.63 1933.81 L3218.63 1929.87 Q3220.96 1928.97 3223.16 1928.53 Q3225.36 1928.06 3227.45 1928.06 Q3233.07 1928.06 3235.85 1930.98 Q3238.63 1933.9 3238.63 1939.82 Z" fill="#000000" fill-rule="nonzero" fill-opacity="1" /><path clip-path="url(#clip300)" d="M3264.46 1932.62 L3264.46 1918.6 L3268.72 1918.6 L3268.72 1954.62 L3264.46 1954.62 L3264.46 1950.73 Q3263.12 1953.04 3261.06 1954.18 Q3259.02 1955.29 3256.15 1955.29 Q3251.45 1955.29 3248.49 1951.54 Q3245.55 1947.79 3245.55 1941.68 Q3245.55 1935.56 3248.49 1931.81 Q3251.45 1928.06 3256.15 1928.06 Q3259.02 1928.06 3261.06 1929.2 Q3263.12 1930.31 3264.46 1932.62 M3249.95 1941.68 Q3249.95 1946.37 3251.87 1949.06 Q3253.81 1951.72 3257.19 1951.72 Q3260.57 1951.72 3262.51 1949.06 Q3264.46 1946.37 3264.46 1941.68 Q3264.46 1936.98 3262.51 1934.31 Q3260.57 1931.63 3257.19 1931.63 Q3253.81 1931.63 3251.87 1934.31 Q3249.95 1936.98 3249.95 1941.68 Z" fill="#000000" fill-rule="nonzero" fill-opacity="1" /><path clip-path="url(#clip300)" d="M3299.04 1938.97 L3299.04 1954.62 L3294.78 1954.62 L3294.78 1939.11 Q3294.78 1935.43 3293.35 1933.6 Q3291.91 1931.77 3289.04 1931.77 Q3285.59 1931.77 3283.6 1933.97 Q3281.61 1936.17 3281.61 1939.96 L3281.61 1954.62 L3277.33 1954.62 L3277.33 1928.69 L3281.61 1928.69 L3281.61 1932.72 Q3283.14 1930.38 3285.2 1929.22 Q3287.28 1928.06 3289.99 1928.06 Q3294.46 1928.06 3296.75 1930.84 Q3299.04 1933.6 3299.04 1938.97 Z" fill="#000000" fill-rule="nonzero" fill-opacity="1" /><path clip-path="url(#clip300)" d="M3307.54 1918.6 L3311.8 1918.6 L3311.8 1954.62 L3307.54 1954.62 L3307.54 1918.6 Z" fill="#000000" fill-rule="nonzero" fill-opacity="1" /><path clip-path="url(#clip300)" d="M3324.83 1950.73 L3324.83 1964.48 L3320.55 1964.48 L3320.55 1928.69 L3324.83 1928.69 L3324.83 1932.62 Q3326.17 1930.31 3328.21 1929.2 Q3330.27 1928.06 3333.12 1928.06 Q3337.84 1928.06 3340.78 1931.81 Q3343.74 1935.56 3343.74 1941.68 Q3343.74 1947.79 3340.78 1951.54 Q3337.84 1955.29 3333.12 1955.29 Q3330.27 1955.29 3328.21 1954.18 Q3326.17 1953.04 3324.83 1950.73 M3339.32 1941.68 Q3339.32 1936.98 3337.38 1934.31 Q3335.45 1931.63 3332.07 1931.63 Q3328.69 1931.63 3326.75 1934.31 Q3324.83 1936.98 3324.83 1941.68 Q3324.83 1946.37 3326.75 1949.06 Q3328.69 1951.72 3332.07 1951.72 Q3335.45 1951.72 3337.38 1949.06 Q3339.32 1946.37 3339.32 1941.68 Z" fill="#000000" fill-rule="nonzero" fill-opacity="1" /><path clip-path="url(#clip300)" d="M3350.13 1918.64 L3353.83 1918.64 Q3357.31 1924.11 3359.02 1929.34 Q3360.75 1934.57 3360.75 1939.73 Q3360.75 1944.92 3359.02 1950.17 Q3357.31 1955.43 3353.83 1960.87 L3350.13 1960.87 Q3353.21 1955.56 3354.71 1950.33 Q3356.24 1945.08 3356.24 1939.73 Q3356.24 1934.38 3354.71 1929.18 Q3353.21 1923.97 3350.13 1918.64 Z" fill="#000000" fill-rule="nonzero" fill-opacity="1" /><polyline clip-path="url(#clip300)" style="stroke:#800080; stroke-linecap:round; stroke-linejoin:round; stroke-width:6; stroke-opacity:1; fill:none" points="2783.97,1989.18 3001.45,1989.18 "/>
<path clip-path="url(#clip300)" d="M2918.31 1963.58 L2867.11 1963.58 L2892.71 2014.78 L2918.31 1963.58 Z" fill="#800080" fill-rule="evenodd" fill-opacity="1" stroke="none"/>
<path clip-path="url(#clip300)" d="M3048.33 1970.48 Q3045.22 1975.81 3043.72 1981.02 Q3042.21 1986.22 3042.21 1991.57 Q3042.21 1996.92 3043.72 2002.17 Q3045.25 2007.4 3048.33 2012.71 L3044.62 2012.71 Q3041.15 2007.27 3039.41 2002.01 Q3037.7 1996.76 3037.7 1991.57 Q3037.7 1986.41 3039.41 1981.18 Q3041.13 1975.95 3044.62 1970.48 L3048.33 1970.48 Z" fill="#000000" fill-rule="nonzero" fill-opacity="1" /><path clip-path="url(#clip300)" d="M3056.59 1980.53 L3060.85 1980.53 L3060.85 2006.92 Q3060.85 2011.87 3058.95 2014.09 Q3057.08 2016.32 3052.89 2016.32 L3051.27 2016.32 L3051.27 2012.71 L3052.4 2012.71 Q3054.83 2012.71 3055.71 2011.57 Q3056.59 2010.46 3056.59 2006.92 L3056.59 1980.53 M3056.59 1970.44 L3060.85 1970.44 L3060.85 1975.83 L3056.59 1975.83 L3056.59 1970.44 Z" fill="#000000" fill-rule="nonzero" fill-opacity="1" /><path clip-path="url(#clip300)" d="M3069.32 1996.22 L3069.32 1980.53 L3073.58 1980.53 L3073.58 1996.06 Q3073.58 1999.74 3075.02 2001.59 Q3076.45 2003.42 3079.32 2003.42 Q3082.77 2003.42 3084.76 2001.22 Q3086.77 1999.03 3086.77 1995.23 L3086.77 1980.53 L3091.03 1980.53 L3091.03 2006.46 L3086.77 2006.46 L3086.77 2002.47 Q3085.22 2004.84 3083.16 2005.99 Q3081.13 2007.13 3078.42 2007.13 Q3073.95 2007.13 3071.64 2004.35 Q3069.32 2001.57 3069.32 1996.22 M3080.04 1979.9 L3080.04 1979.9 Z" fill="#000000" fill-rule="nonzero" fill-opacity="1" /><path clip-path="url(#clip300)" d="M3119.99 1985.51 Q3121.59 1982.64 3123.81 1981.27 Q3126.03 1979.9 3129.04 1979.9 Q3133.09 1979.9 3135.29 1982.75 Q3137.49 1985.58 3137.49 1990.81 L3137.49 2006.46 L3133.21 2006.46 L3133.21 1990.95 Q3133.21 1987.22 3131.89 1985.41 Q3130.57 1983.61 3127.86 1983.61 Q3124.55 1983.61 3122.63 1985.81 Q3120.71 1988.01 3120.71 1991.8 L3120.71 2006.46 L3116.43 2006.46 L3116.43 1990.95 Q3116.43 1987.2 3115.11 1985.41 Q3113.79 1983.61 3111.03 1983.61 Q3107.77 1983.61 3105.85 1985.83 Q3103.93 1988.03 3103.93 1991.8 L3103.93 2006.46 L3099.65 2006.46 L3099.65 1980.53 L3103.93 1980.53 L3103.93 1984.56 Q3105.39 1982.17 3107.42 1981.04 Q3109.46 1979.9 3112.26 1979.9 Q3115.08 1979.9 3117.05 1981.34 Q3119.04 1982.78 3119.99 1985.51 Z" fill="#000000" fill-rule="nonzero" fill-opacity="1" /><path clip-path="url(#clip300)" d="M3150.11 2002.57 L3150.11 2016.32 L3145.83 2016.32 L3145.83 1980.53 L3150.11 1980.53 L3150.11 1984.46 Q3151.45 1982.15 3153.49 1981.04 Q3155.55 1979.9 3158.39 1979.9 Q3163.12 1979.9 3166.06 1983.65 Q3169.02 1987.4 3169.02 1993.52 Q3169.02 1999.63 3166.06 2003.38 Q3163.12 2007.13 3158.39 2007.13 Q3155.55 2007.13 3153.49 2006.02 Q3151.45 2004.88 3150.11 2002.57 M3164.6 1993.52 Q3164.6 1988.82 3162.65 1986.15 Q3160.73 1983.47 3157.35 1983.47 Q3153.97 1983.47 3152.03 1986.15 Q3150.11 1988.82 3150.11 1993.52 Q3150.11 1998.21 3152.03 2000.9 Q3153.97 2003.56 3157.35 2003.56 Q3160.73 2003.56 3162.65 2000.9 Q3164.6 1998.21 3164.6 1993.52 Z" fill="#000000" fill-rule="nonzero" fill-opacity="1" /><path clip-path="url(#clip300)" d="M3177.17 2000.58 L3182.05 2000.58 L3182.05 2004.56 L3178.26 2011.96 L3175.27 2011.96 L3177.17 2004.56 L3177.17 2000.58 Z" fill="#000000" fill-rule="nonzero" fill-opacity="1" /><path clip-path="url(#clip300)" d="M3206.22 1980.53 L3210.48 1980.53 L3210.48 2006.46 L3206.22 2006.46 L3206.22 1980.53 M3206.22 1970.44 L3210.48 1970.44 L3210.48 1975.83 L3206.22 1975.83 L3206.22 1970.44 Z" fill="#000000" fill-rule="nonzero" fill-opacity="1" /><path clip-path="url(#clip300)" d="M3223.51 2002.57 L3223.51 2016.32 L3219.23 2016.32 L3219.23 1980.53 L3223.51 1980.53 L3223.51 1984.46 Q3224.85 1982.15 3226.89 1981.04 Q3228.95 1979.9 3231.8 1979.9 Q3236.52 1979.9 3239.46 1983.65 Q3242.42 1987.4 3242.42 1993.52 Q3242.42 1999.63 3239.46 2003.38 Q3236.52 2007.13 3231.8 2007.13 Q3228.95 2007.13 3226.89 2006.02 Q3224.85 2004.88 3223.51 2002.57 M3238 1993.52 Q3238 1988.82 3236.06 1986.15 Q3234.14 1983.47 3230.76 1983.47 Q3227.38 1983.47 3225.43 1986.15 Q3223.51 1988.82 3223.51 1993.52 Q3223.51 1998.21 3225.43 2000.9 Q3227.38 2003.56 3230.76 2003.56 Q3234.14 2003.56 3236.06 2000.9 Q3238 1998.21 3238 1993.52 Z" fill="#000000" fill-rule="nonzero" fill-opacity="1" /><path clip-path="url(#clip300)" d="M3259.53 1983.52 Q3256.1 1983.52 3254.11 1986.2 Q3252.12 1988.86 3252.12 1993.52 Q3252.12 1998.17 3254.09 2000.85 Q3256.08 2003.52 3259.53 2003.52 Q3262.93 2003.52 3264.92 2000.83 Q3266.91 1998.15 3266.91 1993.52 Q3266.91 1988.91 3264.92 1986.22 Q3262.93 1983.52 3259.53 1983.52 M3259.53 1979.9 Q3265.08 1979.9 3268.26 1983.52 Q3271.43 1987.13 3271.43 1993.52 Q3271.43 1999.88 3268.26 2003.52 Q3265.08 2007.13 3259.53 2007.13 Q3253.95 2007.13 3250.78 2003.52 Q3247.63 1999.88 3247.63 1993.52 Q3247.63 1987.13 3250.78 1983.52 Q3253.95 1979.9 3259.53 1979.9 Z" fill="#000000" fill-rule="nonzero" fill-opacity="1" /><path clip-path="url(#clip300)" d="M3282.61 2002.57 L3282.61 2016.32 L3278.32 2016.32 L3278.32 1980.53 L3282.61 1980.53 L3282.61 1984.46 Q3283.95 1982.15 3285.99 1981.04 Q3288.05 1979.9 3290.89 1979.9 Q3295.62 1979.9 3298.56 1983.65 Q3301.52 1987.4 3301.52 1993.52 Q3301.52 1999.63 3298.56 2003.38 Q3295.62 2007.13 3290.89 2007.13 Q3288.05 2007.13 3285.99 2006.02 Q3283.95 2004.88 3282.61 2002.57 M3297.1 1993.52 Q3297.1 1988.82 3295.15 1986.15 Q3293.23 1983.47 3289.85 1983.47 Q3286.47 1983.47 3284.53 1986.15 Q3282.61 1988.82 3282.61 1993.52 Q3282.61 1998.21 3284.53 2000.9 Q3286.47 2003.56 3289.85 2003.56 Q3293.23 2003.56 3295.15 2000.9 Q3297.1 1998.21 3297.1 1993.52 Z" fill="#000000" fill-rule="nonzero" fill-opacity="1" /><path clip-path="url(#clip300)" d="M3312.79 1973.17 L3312.79 1980.53 L3321.57 1980.53 L3321.57 1983.84 L3312.79 1983.84 L3312.79 1997.91 Q3312.79 2001.09 3313.65 2001.99 Q3314.53 2002.89 3317.19 2002.89 L3321.57 2002.89 L3321.57 2006.46 L3317.19 2006.46 Q3312.26 2006.46 3310.38 2004.63 Q3308.51 2002.78 3308.51 1997.91 L3308.51 1983.84 L3305.38 1983.84 L3305.38 1980.53 L3308.51 1980.53 L3308.51 1973.17 L3312.79 1973.17 Z" fill="#000000" fill-rule="nonzero" fill-opacity="1" /><path clip-path="url(#clip300)" d="M3326.5 1970.48 L3330.2 1970.48 Q3333.67 1975.95 3335.38 1981.18 Q3337.12 1986.41 3337.12 1991.57 Q3337.12 1996.76 3335.38 2002.01 Q3333.67 2007.27 3330.2 2012.71 L3326.5 2012.71 Q3329.57 2007.4 3331.08 2002.17 Q3332.61 1996.92 3332.61 1991.57 Q3332.61 1986.22 3331.08 1981.02 Q3329.57 1975.81 3326.5 1970.48 Z" fill="#000000" fill-rule="nonzero" fill-opacity="1" /><polyline clip-path="url(#clip300)" style="stroke:#a52a2a; stroke-linecap:round; stroke-linejoin:round; stroke-width:6; stroke-opacity:1; fill:none" points="2783.97,2041.02 3001.45,2041.02 "/>
<path clip-path="url(#clip300)" d="M2892.71 2015.42 L2886.7 2032.72 L2868.37 2033.11 L2882.99 2044.19 L2877.66 2061.73 L2892.71 2051.26 L2907.77 2061.73 L2902.44 2044.19 L2917.06 2033.11 L2898.73 2032.72 L2892.71 2015.42 Z" fill="#a52a2a" fill-rule="evenodd" fill-opacity="1" stroke="none"/>
<path clip-path="url(#clip300)" d="M3048.33 2022.32 Q3045.22 2027.65 3043.72 2032.86 Q3042.21 2038.06 3042.21 2043.41 Q3042.21 2048.76 3043.72 2054.01 Q3045.25 2059.24 3048.33 2064.55 L3044.62 2064.55 Q3041.15 2059.11 3039.41 2053.85 Q3037.7 2048.6 3037.7 2043.41 Q3037.7 2038.25 3039.41 2033.02 Q3041.13 2027.79 3044.62 2022.32 L3048.33 2022.32 Z" fill="#000000" fill-rule="nonzero" fill-opacity="1" /><path clip-path="url(#clip300)" d="M3056.59 2032.37 L3060.85 2032.37 L3060.85 2058.76 Q3060.85 2063.71 3058.95 2065.93 Q3057.08 2068.16 3052.89 2068.16 L3051.27 2068.16 L3051.27 2064.55 L3052.4 2064.55 Q3054.83 2064.55 3055.71 2063.41 Q3056.59 2062.3 3056.59 2058.76 L3056.59 2032.37 M3056.59 2022.28 L3060.85 2022.28 L3060.85 2027.67 L3056.59 2027.67 L3056.59 2022.28 Z" fill="#000000" fill-rule="nonzero" fill-opacity="1" /><path clip-path="url(#clip300)" d="M3069.32 2048.06 L3069.32 2032.37 L3073.58 2032.37 L3073.58 2047.9 Q3073.58 2051.58 3075.02 2053.43 Q3076.45 2055.26 3079.32 2055.26 Q3082.77 2055.26 3084.76 2053.06 Q3086.77 2050.87 3086.77 2047.07 L3086.77 2032.37 L3091.03 2032.37 L3091.03 2058.3 L3086.77 2058.3 L3086.77 2054.31 Q3085.22 2056.68 3083.16 2057.83 Q3081.13 2058.97 3078.42 2058.97 Q3073.95 2058.97 3071.64 2056.19 Q3069.32 2053.41 3069.32 2048.06 M3080.04 2031.74 L3080.04 2031.74 Z" fill="#000000" fill-rule="nonzero" fill-opacity="1" /><path clip-path="url(#clip300)" d="M3119.99 2037.35 Q3121.59 2034.48 3123.81 2033.11 Q3126.03 2031.74 3129.04 2031.74 Q3133.09 2031.74 3135.29 2034.59 Q3137.49 2037.42 3137.49 2042.65 L3137.49 2058.3 L3133.21 2058.3 L3133.21 2042.79 Q3133.21 2039.06 3131.89 2037.25 Q3130.57 2035.45 3127.86 2035.45 Q3124.55 2035.45 3122.63 2037.65 Q3120.71 2039.85 3120.71 2043.64 L3120.71 2058.3 L3116.43 2058.3 L3116.43 2042.79 Q3116.43 2039.04 3115.11 2037.25 Q3113.79 2035.45 3111.03 2035.45 Q3107.77 2035.45 3105.85 2037.67 Q3103.93 2039.87 3103.93 2043.64 L3103.93 2058.3 L3099.65 2058.3 L3099.65 2032.37 L3103.93 2032.37 L3103.93 2036.4 Q3105.39 2034.01 3107.42 2032.88 Q3109.46 2031.74 3112.26 2031.74 Q3115.08 2031.74 3117.05 2033.18 Q3119.04 2034.62 3119.99 2037.35 Z" fill="#000000" fill-rule="nonzero" fill-opacity="1" /><path clip-path="url(#clip300)" d="M3150.11 2054.41 L3150.11 2068.16 L3145.83 2068.16 L3145.83 2032.37 L3150.11 2032.37 L3150.11 2036.3 Q3151.45 2033.99 3153.49 2032.88 Q3155.55 2031.74 3158.39 2031.74 Q3163.12 2031.74 3166.06 2035.49 Q3169.02 2039.24 3169.02 2045.36 Q3169.02 2051.47 3166.06 2055.22 Q3163.12 2058.97 3158.39 2058.97 Q3155.55 2058.97 3153.49 2057.86 Q3151.45 2056.72 3150.11 2054.41 M3164.6 2045.36 Q3164.6 2040.66 3162.65 2037.99 Q3160.73 2035.31 3157.35 2035.31 Q3153.97 2035.31 3152.03 2037.99 Q3150.11 2040.66 3150.11 2045.36 Q3150.11 2050.05 3152.03 2052.74 Q3153.97 2055.4 3157.35 2055.4 Q3160.73 2055.4 3162.65 2052.74 Q3164.6 2050.05 3164.6 2045.36 Z" fill="#000000" fill-rule="nonzero" fill-opacity="1" /><path clip-path="url(#clip300)" d="M3177.17 2052.42 L3182.05 2052.42 L3182.05 2056.4 L3178.26 2063.8 L3175.27 2063.8 L3177.17 2056.4 L3177.17 2052.42 Z" fill="#000000" fill-rule="nonzero" fill-opacity="1" /><path clip-path="url(#clip300)" d="M3226.4 2037.35 Q3228 2034.48 3230.22 2033.11 Q3232.45 2031.74 3235.45 2031.74 Q3239.51 2031.74 3241.7 2034.59 Q3243.9 2037.42 3243.9 2042.65 L3243.9 2058.3 L3239.62 2058.3 L3239.62 2042.79 Q3239.62 2039.06 3238.3 2037.25 Q3236.98 2035.45 3234.27 2035.45 Q3230.96 2035.45 3229.04 2037.65 Q3227.12 2039.85 3227.12 2043.64 L3227.12 2058.3 L3222.84 2058.3 L3222.84 2042.79 Q3222.84 2039.04 3221.52 2037.25 Q3220.2 2035.45 3217.45 2035.45 Q3214.18 2035.45 3212.26 2037.67 Q3210.34 2039.87 3210.34 2043.64 L3210.34 2058.3 L3206.06 2058.3 L3206.06 2032.37 L3210.34 2032.37 L3210.34 2036.4 Q3211.8 2034.01 3213.83 2032.88 Q3215.87 2031.74 3218.67 2031.74 Q3221.5 2031.74 3223.46 2033.18 Q3225.45 2034.62 3226.4 2037.35 Z" fill="#000000" fill-rule="nonzero" fill-opacity="1" /><path clip-path="url(#clip300)" d="M3264.18 2045.26 Q3259.02 2045.26 3257.03 2046.44 Q3255.04 2047.62 3255.04 2050.47 Q3255.04 2052.74 3256.52 2054.08 Q3258.02 2055.4 3260.59 2055.4 Q3264.13 2055.4 3266.26 2052.9 Q3268.42 2050.38 3268.42 2046.21 L3268.42 2045.26 L3264.18 2045.26 M3272.68 2043.5 L3272.68 2058.3 L3268.42 2058.3 L3268.42 2054.36 Q3266.96 2056.72 3264.78 2057.86 Q3262.61 2058.97 3259.46 2058.97 Q3255.48 2058.97 3253.12 2056.74 Q3250.78 2054.5 3250.78 2050.75 Q3250.78 2046.37 3253.7 2044.15 Q3256.64 2041.93 3262.45 2041.93 L3268.42 2041.93 L3268.42 2041.51 Q3268.42 2038.57 3266.47 2036.98 Q3264.55 2035.36 3261.06 2035.36 Q3258.83 2035.36 3256.73 2035.89 Q3254.62 2036.42 3252.68 2037.49 L3252.68 2033.55 Q3255.01 2032.65 3257.21 2032.21 Q3259.41 2031.74 3261.5 2031.74 Q3267.12 2031.74 3269.9 2034.66 Q3272.68 2037.58 3272.68 2043.5 Z" fill="#000000" fill-rule="nonzero" fill-opacity="1" /><path clip-path="url(#clip300)" d="M3298.51 2036.3 L3298.51 2022.28 L3302.77 2022.28 L3302.77 2058.3 L3298.51 2058.3 L3298.51 2054.41 Q3297.17 2056.72 3295.11 2057.86 Q3293.07 2058.97 3290.2 2058.97 Q3285.5 2058.97 3282.54 2055.22 Q3279.6 2051.47 3279.6 2045.36 Q3279.6 2039.24 3282.54 2035.49 Q3285.5 2031.74 3290.2 2031.74 Q3293.07 2031.74 3295.11 2032.88 Q3297.17 2033.99 3298.51 2036.3 M3284 2045.36 Q3284 2050.05 3285.92 2052.74 Q3287.86 2055.4 3291.24 2055.4 Q3294.62 2055.4 3296.57 2052.74 Q3298.51 2050.05 3298.51 2045.36 Q3298.51 2040.66 3296.57 2037.99 Q3294.62 2035.31 3291.24 2035.31 Q3287.86 2035.31 3285.92 2037.99 Q3284 2040.66 3284 2045.36 Z" fill="#000000" fill-rule="nonzero" fill-opacity="1" /><path clip-path="url(#clip300)" d="M3333.09 2042.65 L3333.09 2058.3 L3328.83 2058.3 L3328.83 2042.79 Q3328.83 2039.11 3327.4 2037.28 Q3325.96 2035.45 3323.09 2035.45 Q3319.64 2035.45 3317.65 2037.65 Q3315.66 2039.85 3315.66 2043.64 L3315.66 2058.3 L3311.38 2058.3 L3311.38 2032.37 L3315.66 2032.37 L3315.66 2036.4 Q3317.19 2034.06 3319.25 2032.9 Q3321.33 2031.74 3324.04 2031.74 Q3328.51 2031.74 3330.8 2034.52 Q3333.09 2037.28 3333.09 2042.65 Z" fill="#000000" fill-rule="nonzero" fill-opacity="1" /><path clip-path="url(#clip300)" d="M3341.59 2022.28 L3345.85 2022.28 L3345.85 2058.3 L3341.59 2058.3 L3341.59 2022.28 Z" fill="#000000" fill-rule="nonzero" fill-opacity="1" /><path clip-path="url(#clip300)" d="M3358.88 2054.41 L3358.88 2068.16 L3354.6 2068.16 L3354.6 2032.37 L3358.88 2032.37 L3358.88 2036.3 Q3360.22 2033.99 3362.26 2032.88 Q3364.32 2031.74 3367.17 2031.74 Q3371.89 2031.74 3374.83 2035.49 Q3377.79 2039.24 3377.79 2045.36 Q3377.79 2051.47 3374.83 2055.22 Q3371.89 2058.97 3367.17 2058.97 Q3364.32 2058.97 3362.26 2057.86 Q3360.22 2056.72 3358.88 2054.41 M3373.37 2045.36 Q3373.37 2040.66 3371.43 2037.99 Q3369.5 2035.31 3366.13 2035.31 Q3362.75 2035.31 3360.8 2037.99 Q3358.88 2040.66 3358.88 2045.36 Q3358.88 2050.05 3360.8 2052.74 Q3362.75 2055.4 3366.13 2055.4 Q3369.5 2055.4 3371.43 2052.74 Q3373.37 2050.05 3373.37 2045.36 Z" fill="#000000" fill-rule="nonzero" fill-opacity="1" /><path clip-path="url(#clip300)" d="M3384.18 2022.32 L3387.88 2022.32 Q3391.36 2027.79 3393.07 2033.02 Q3394.81 2038.25 3394.81 2043.41 Q3394.81 2048.6 3393.07 2053.85 Q3391.36 2059.11 3387.88 2064.55 L3384.18 2064.55 Q3387.26 2059.24 3388.76 2054.01 Q3390.29 2048.76 3390.29 2043.41 Q3390.29 2038.06 3388.76 2032.86 Q3387.26 2027.65 3384.18 2022.32 Z" fill="#000000" fill-rule="nonzero" fill-opacity="1" /></svg>
