<?xml version="1.0" encoding="utf-8"?>
<svg xmlns="http://www.w3.org/2000/svg" xmlns:xlink="http://www.w3.org/1999/xlink" width="900" height="600" viewBox="0 0 3600 2400">
<defs>
  <clipPath id="clip140">
    <rect x="0" y="0" width="3600" height="2400"/>
  </clipPath>
</defs>
<path clip-path="url(#clip140)" d="M0 2400 L3600 2400 L3600 0 L0 0  Z" fill="#ffffff" fill-rule="evenodd" fill-opacity="1"/>
<defs>
  <clipPath id="clip141">
    <rect x="720" y="0" width="2521" height="2400"/>
  </clipPath>
</defs>
<path clip-path="url(#clip140)" d="M289.705 2144.22 L3552.76 2144.22 L3552.76 246.944 L289.705 246.944  Z" fill="#ffffff" fill-rule="evenodd" fill-opacity="1"/>
<defs>
  <clipPath id="clip142">
    <rect x="289" y="246" width="3264" height="1898"/>
  </clipPath>
</defs>
<polyline clip-path="url(#clip142)" style="stroke:#000000; stroke-linecap:round; stroke-linejoin:round; stroke-width:2; stroke-opacity:0.1; fill:none" points="438.026,2144.22 438.026,246.944 "/>
<polyline clip-path="url(#clip142)" style="stroke:#000000; stroke-linecap:round; stroke-linejoin:round; stroke-width:2; stroke-opacity:0.1; fill:none" points="1062.53,2144.22 1062.53,246.944 "/>
<polyline clip-path="url(#clip142)" style="stroke:#000000; stroke-linecap:round; stroke-linejoin:round; stroke-width:2; stroke-opacity:0.1; fill:none" points="1843.17,2144.22 1843.17,246.944 "/>
<polyline clip-path="url(#clip142)" style="stroke:#000000; stroke-linecap:round; stroke-linejoin:round; stroke-width:2; stroke-opacity:0.1; fill:none" points="3404.44,2144.22 3404.44,246.944 "/>
<polyline clip-path="url(#clip142)" style="stroke:#000000; stroke-linecap:round; stroke-linejoin:round; stroke-width:2; stroke-opacity:0.1; fill:none" points="289.705,1858.42 3552.76,1858.42 "/>
<polyline clip-path="url(#clip142)" style="stroke:#000000; stroke-linecap:round; stroke-linejoin:round; stroke-width:2; stroke-opacity:0.1; fill:none" points="289.705,1555.87 3552.76,1555.87 "/>
<polyline clip-path="url(#clip142)" style="stroke:#000000; stroke-linecap:round; stroke-linejoin:round; stroke-width:2; stroke-opacity:0.1; fill:none" points="289.705,1253.31 3552.76,1253.31 "/>
<polyline clip-path="url(#clip142)" style="stroke:#000000; stroke-linecap:round; stroke-linejoin:round; stroke-width:2; stroke-opacity:0.1; fill:none" points="289.705,950.754 3552.76,950.754 "/>
<polyline clip-path="url(#clip142)" style="stroke:#000000; stroke-linecap:round; stroke-linejoin:round; stroke-width:2; stroke-opacity:0.1; fill:none" points="289.705,648.198 3552.76,648.198 "/>
<polyline clip-path="url(#clip142)" style="stroke:#000000; stroke-linecap:round; stroke-linejoin:round; stroke-width:2; stroke-opacity:0.1; fill:none" points="289.705,345.643 3552.76,345.643 "/>
<polyline clip-path="url(#clip140)" style="stroke:#000000; stroke-linecap:round; stroke-linejoin:round; stroke-width:4; stroke-opacity:1; fill:none" points="289.705,2144.22 3552.76,2144.22 "/>
<polyline clip-path="url(#clip140)" style="stroke:#000000; stroke-linecap:round; stroke-linejoin:round; stroke-width:4; stroke-opacity:1; fill:none" points="438.026,2144.22 438.026,2125.33 "/>
<polyline clip-path="url(#clip140)" style="stroke:#000000; stroke-linecap:round; stroke-linejoin:round; stroke-width:4; stroke-opacity:1; fill:none" points="1062.53,2144.22 1062.53,2125.33 "/>
<polyline clip-path="url(#clip140)" style="stroke:#000000; stroke-linecap:round; stroke-linejoin:round; stroke-width:4; stroke-opacity:1; fill:none" points="1843.17,2144.22 1843.17,2125.33 "/>
<polyline clip-path="url(#clip140)" style="stroke:#000000; stroke-linecap:round; stroke-linejoin:round; stroke-width:4; stroke-opacity:1; fill:none" points="3404.44,2144.22 3404.44,2125.33 "/>
<path clip-path="url(#clip140)" d="M345.912 2227.95 L353.55 2227.95 L353.55 2201.58 L345.24 2203.25 L345.24 2198.99 L353.504 2197.32 L358.18 2197.32 L358.18 2227.95 L365.819 2227.95 L365.819 2231.88 L345.912 2231.88 L345.912 2227.95 Z" fill="#000000" fill-rule="nonzero" fill-opacity="1" /><path clip-path="url(#clip140)" d="M375.263 2226 L380.148 2226 L380.148 2231.88 L375.263 2231.88 L375.263 2226 Z" fill="#000000" fill-rule="nonzero" fill-opacity="1" /><path clip-path="url(#clip140)" d="M400.333 2200.4 Q396.722 2200.4 394.893 2203.97 Q393.087 2207.51 393.087 2214.64 Q393.087 2221.75 394.893 2225.31 Q396.722 2228.85 400.333 2228.85 Q403.967 2228.85 405.772 2225.31 Q407.601 2221.75 407.601 2214.64 Q407.601 2207.51 405.772 2203.97 Q403.967 2200.4 400.333 2200.4 M400.333 2196.7 Q406.143 2196.7 409.198 2201.31 Q412.277 2205.89 412.277 2214.64 Q412.277 2223.37 409.198 2227.97 Q406.143 2232.56 400.333 2232.56 Q394.522 2232.56 391.444 2227.97 Q388.388 2223.37 388.388 2214.64 Q388.388 2205.89 391.444 2201.31 Q394.522 2196.7 400.333 2196.7 Z" fill="#000000" fill-rule="nonzero" fill-opacity="1" /><path clip-path="url(#clip140)" d="M448.666 2206.42 L438.087 2217.05 L448.666 2227.63 L445.911 2230.43 L435.286 2219.8 L424.661 2230.43 L421.93 2227.63 L432.485 2217.05 L421.93 2206.42 L424.661 2203.62 L435.286 2214.25 L445.911 2203.62 L448.666 2206.42 Z" fill="#000000" fill-rule="nonzero" fill-opacity="1" /><path clip-path="url(#clip140)" d="M461.027 2227.95 L468.666 2227.95 L468.666 2201.58 L460.355 2203.25 L460.355 2198.99 L468.619 2197.32 L473.295 2197.32 L473.295 2227.95 L480.934 2227.95 L480.934 2231.88 L461.027 2231.88 L461.027 2227.95 Z" fill="#000000" fill-rule="nonzero" fill-opacity="1" /><path clip-path="url(#clip140)" d="M500.378 2200.4 Q496.767 2200.4 494.939 2203.97 Q493.133 2207.51 493.133 2214.64 Q493.133 2221.75 494.939 2225.31 Q496.767 2228.85 500.378 2228.85 Q504.013 2228.85 505.818 2225.31 Q507.647 2221.75 507.647 2214.64 Q507.647 2207.51 505.818 2203.97 Q504.013 2200.4 500.378 2200.4 M500.378 2196.7 Q506.189 2196.7 509.244 2201.31 Q512.323 2205.89 512.323 2214.64 Q512.323 2223.37 509.244 2227.97 Q506.189 2232.56 500.378 2232.56 Q494.568 2232.56 491.49 2227.97 Q488.434 2223.37 488.434 2214.64 Q488.434 2205.89 491.49 2201.31 Q494.568 2196.7 500.378 2196.7 Z" fill="#000000" fill-rule="nonzero" fill-opacity="1" /><path clip-path="url(#clip140)" d="M525.018 2189.33 Q527.745 2189.92 529.269 2191.76 Q530.811 2193.6 530.811 2196.31 Q530.811 2200.47 527.952 2202.74 Q525.093 2205.02 519.827 2205.02 Q518.059 2205.02 516.178 2204.66 Q514.316 2204.32 512.323 2203.63 L512.323 2199.96 Q513.903 2200.88 515.783 2201.35 Q517.664 2201.82 519.714 2201.82 Q523.288 2201.82 525.15 2200.41 Q527.03 2199 527.03 2196.31 Q527.03 2193.83 525.281 2192.44 Q523.551 2191.03 520.448 2191.03 L517.175 2191.03 L517.175 2187.9 L520.598 2187.9 Q523.401 2187.9 524.886 2186.79 Q526.372 2185.67 526.372 2183.56 Q526.372 2181.4 524.83 2180.25 Q523.306 2179.08 520.448 2179.08 Q518.887 2179.08 517.1 2179.42 Q515.313 2179.76 513.169 2180.48 L513.169 2177.09 Q515.332 2176.49 517.213 2176.19 Q519.112 2175.89 520.786 2175.89 Q525.112 2175.89 527.632 2177.86 Q530.153 2179.82 530.153 2183.16 Q530.153 2185.5 528.817 2187.11 Q527.482 2188.71 525.018 2189.33 Z" fill="#000000" fill-rule="nonzero" fill-opacity="1" /><path clip-path="url(#clip140)" d="M970.431 2197.32 L988.787 2197.32 L988.787 2201.26 L974.713 2201.26 L974.713 2209.73 Q975.731 2209.38 976.75 2209.22 Q977.768 2209.04 978.787 2209.04 Q984.574 2209.04 987.954 2212.21 Q991.333 2215.38 991.333 2220.8 Q991.333 2226.38 987.861 2229.48 Q984.389 2232.56 978.069 2232.56 Q975.893 2232.56 973.625 2232.19 Q971.38 2231.82 968.972 2231.07 L968.972 2226.38 Q971.056 2227.51 973.278 2228.07 Q975.5 2228.62 977.977 2228.62 Q981.981 2228.62 984.319 2226.51 Q986.657 2224.41 986.657 2220.8 Q986.657 2217.19 984.319 2215.08 Q981.981 2212.97 977.977 2212.97 Q976.102 2212.97 974.227 2213.39 Q972.375 2213.81 970.431 2214.69 L970.431 2197.32 Z" fill="#000000" fill-rule="nonzero" fill-opacity="1" /><path clip-path="url(#clip140)" d="M1000.55 2226 L1005.43 2226 L1005.43 2231.88 L1000.55 2231.88 L1000.55 2226 Z" fill="#000000" fill-rule="nonzero" fill-opacity="1" /><path clip-path="url(#clip140)" d="M1025.62 2200.4 Q1022 2200.4 1020.18 2203.97 Q1018.37 2207.51 1018.37 2214.64 Q1018.37 2221.75 1020.18 2225.31 Q1022 2228.85 1025.62 2228.85 Q1029.25 2228.85 1031.06 2225.31 Q1032.88 2221.75 1032.88 2214.64 Q1032.88 2207.51 1031.06 2203.97 Q1029.25 2200.4 1025.62 2200.4 M1025.62 2196.7 Q1031.43 2196.7 1034.48 2201.31 Q1037.56 2205.89 1037.56 2214.64 Q1037.56 2223.37 1034.48 2227.97 Q1031.43 2232.56 1025.62 2232.56 Q1019.81 2232.56 1016.73 2227.97 Q1013.67 2223.37 1013.67 2214.64 Q1013.67 2205.89 1016.73 2201.31 Q1019.81 2196.7 1025.62 2196.7 Z" fill="#000000" fill-rule="nonzero" fill-opacity="1" /><path clip-path="url(#clip140)" d="M1073.95 2206.42 L1063.37 2217.05 L1073.95 2227.63 L1071.19 2230.43 L1060.57 2219.8 L1049.94 2230.43 L1047.21 2227.63 L1057.77 2217.05 L1047.21 2206.42 L1049.94 2203.62 L1060.57 2214.25 L1071.19 2203.62 L1073.95 2206.42 Z" fill="#000000" fill-rule="nonzero" fill-opacity="1" /><path clip-path="url(#clip140)" d="M1086.31 2227.95 L1093.95 2227.95 L1093.95 2201.58 L1085.64 2203.25 L1085.64 2198.99 L1093.9 2197.32 L1098.58 2197.32 L1098.58 2227.95 L1106.22 2227.95 L1106.22 2231.88 L1086.31 2231.88 L1086.31 2227.95 Z" fill="#000000" fill-rule="nonzero" fill-opacity="1" /><path clip-path="url(#clip140)" d="M1125.66 2200.4 Q1122.05 2200.4 1120.22 2203.97 Q1118.42 2207.51 1118.42 2214.64 Q1118.42 2221.75 1120.22 2225.31 Q1122.05 2228.85 1125.66 2228.85 Q1129.3 2228.85 1131.1 2225.31 Q1132.93 2221.75 1132.93 2214.64 Q1132.93 2207.51 1131.1 2203.97 Q1129.3 2200.4 1125.66 2200.4 M1125.66 2196.7 Q1131.47 2196.7 1134.53 2201.31 Q1137.61 2205.89 1137.61 2214.64 Q1137.61 2223.37 1134.53 2227.97 Q1131.47 2232.56 1125.66 2232.56 Q1119.85 2232.56 1116.77 2227.97 Q1113.72 2223.37 1113.72 2214.64 Q1113.72 2205.89 1116.77 2201.31 Q1119.85 2196.7 1125.66 2196.7 Z" fill="#000000" fill-rule="nonzero" fill-opacity="1" /><path clip-path="url(#clip140)" d="M1150.3 2189.33 Q1153.03 2189.92 1154.55 2191.76 Q1156.09 2193.6 1156.09 2196.31 Q1156.09 2200.47 1153.23 2202.74 Q1150.38 2205.02 1145.11 2205.02 Q1143.34 2205.02 1141.46 2204.66 Q1139.6 2204.32 1137.61 2203.63 L1137.61 2199.96 Q1139.19 2200.88 1141.07 2201.35 Q1142.95 2201.82 1145 2201.82 Q1148.57 2201.82 1150.43 2200.41 Q1152.31 2199 1152.31 2196.31 Q1152.31 2193.83 1150.56 2192.44 Q1148.83 2191.03 1145.73 2191.03 L1142.46 2191.03 L1142.46 2187.9 L1145.88 2187.9 Q1148.68 2187.9 1150.17 2186.79 Q1151.65 2185.67 1151.65 2183.56 Q1151.65 2181.4 1150.11 2180.25 Q1148.59 2179.08 1145.73 2179.08 Q1144.17 2179.08 1142.38 2179.42 Q1140.6 2179.76 1138.45 2180.48 L1138.45 2177.09 Q1140.61 2176.49 1142.5 2176.19 Q1144.4 2175.89 1146.07 2175.89 Q1150.39 2175.89 1152.92 2177.86 Q1155.44 2179.82 1155.44 2183.16 Q1155.44 2185.5 1154.1 2187.11 Q1152.76 2188.71 1150.3 2189.33 Z" fill="#000000" fill-rule="nonzero" fill-opacity="1" /><path clip-path="url(#clip140)" d="M1750.07 2227.95 L1757.7 2227.95 L1757.7 2201.58 L1749.39 2203.25 L1749.39 2198.99 L1757.66 2197.32 L1762.33 2197.32 L1762.33 2227.95 L1769.97 2227.95 L1769.97 2231.88 L1750.07 2231.88 L1750.07 2227.95 Z" fill="#000000" fill-rule="nonzero" fill-opacity="1" /><path clip-path="url(#clip140)" d="M1779.42 2226 L1784.3 2226 L1784.3 2231.88 L1779.42 2231.88 L1779.42 2226 Z" fill="#000000" fill-rule="nonzero" fill-opacity="1" /><path clip-path="url(#clip140)" d="M1804.49 2200.4 Q1800.88 2200.4 1799.05 2203.97 Q1797.24 2207.51 1797.24 2214.64 Q1797.24 2221.75 1799.05 2225.31 Q1800.88 2228.85 1804.49 2228.85 Q1808.12 2228.85 1809.93 2225.31 Q1811.76 2221.75 1811.76 2214.64 Q1811.76 2207.51 1809.93 2203.97 Q1808.12 2200.4 1804.49 2200.4 M1804.49 2196.7 Q1810.3 2196.7 1813.35 2201.31 Q1816.43 2205.89 1816.43 2214.64 Q1816.43 2223.37 1813.35 2227.97 Q1810.3 2232.56 1804.49 2232.56 Q1798.68 2232.56 1795.6 2227.97 Q1792.54 2223.37 1792.54 2214.64 Q1792.54 2205.89 1795.6 2201.31 Q1798.68 2196.7 1804.49 2196.7 Z" fill="#000000" fill-rule="nonzero" fill-opacity="1" /><path clip-path="url(#clip140)" d="M1852.82 2206.42 L1842.24 2217.05 L1852.82 2227.63 L1850.07 2230.43 L1839.44 2219.8 L1828.82 2230.43 L1826.08 2227.63 L1836.64 2217.05 L1826.08 2206.42 L1828.82 2203.62 L1839.44 2214.25 L1850.07 2203.62 L1852.82 2206.42 Z" fill="#000000" fill-rule="nonzero" fill-opacity="1" /><path clip-path="url(#clip140)" d="M1865.18 2227.95 L1872.82 2227.95 L1872.82 2201.58 L1864.51 2203.25 L1864.51 2198.99 L1872.77 2197.32 L1877.45 2197.32 L1877.45 2227.95 L1885.09 2227.95 L1885.09 2231.88 L1865.18 2231.88 L1865.18 2227.95 Z" fill="#000000" fill-rule="nonzero" fill-opacity="1" /><path clip-path="url(#clip140)" d="M1904.53 2200.4 Q1900.92 2200.4 1899.09 2203.97 Q1897.29 2207.51 1897.29 2214.64 Q1897.29 2221.75 1899.09 2225.31 Q1900.92 2228.85 1904.53 2228.85 Q1908.17 2228.85 1909.97 2225.31 Q1911.8 2221.75 1911.8 2214.64 Q1911.8 2207.51 1909.97 2203.97 Q1908.17 2200.4 1904.53 2200.4 M1904.53 2196.7 Q1910.34 2196.7 1913.4 2201.31 Q1916.48 2205.89 1916.48 2214.64 Q1916.48 2223.37 1913.4 2227.97 Q1910.34 2232.56 1904.53 2232.56 Q1898.72 2232.56 1895.64 2227.97 Q1892.59 2223.37 1892.59 2214.64 Q1892.59 2205.89 1895.64 2201.31 Q1898.72 2196.7 1904.53 2196.7 Z" fill="#000000" fill-rule="nonzero" fill-opacity="1" /><path clip-path="url(#clip140)" d="M1929.15 2179.7 L1919.56 2194.69 L1929.15 2194.69 L1929.15 2179.7 M1928.16 2176.39 L1932.93 2176.39 L1932.93 2194.69 L1936.94 2194.69 L1936.94 2197.85 L1932.93 2197.85 L1932.93 2204.47 L1929.15 2204.47 L1929.15 2197.85 L1916.48 2197.85 L1916.48 2194.19 L1928.16 2176.39 Z" fill="#000000" fill-rule="nonzero" fill-opacity="1" /><path clip-path="url(#clip140)" d="M3315.42 2227.95 L3331.74 2227.95 L3331.74 2231.88 L3309.79 2231.88 L3309.79 2227.95 Q3312.46 2225.19 3317.04 2220.57 Q3321.65 2215.91 3322.83 2214.57 Q3325.07 2212.05 3325.95 2210.31 Q3326.85 2208.55 3326.85 2206.86 Q3326.85 2204.11 3324.91 2202.37 Q3322.99 2200.63 3319.89 2200.63 Q3317.69 2200.63 3315.23 2201.4 Q3312.8 2202.16 3310.03 2203.71 L3310.03 2198.99 Q3312.85 2197.86 3315.3 2197.28 Q3317.76 2196.7 3319.79 2196.7 Q3325.17 2196.7 3328.36 2199.38 Q3331.55 2202.07 3331.55 2206.56 Q3331.55 2208.69 3330.74 2210.61 Q3329.96 2212.51 3327.85 2215.1 Q3327.27 2215.77 3324.17 2218.99 Q3321.07 2222.19 3315.42 2227.95 Z" fill="#000000" fill-rule="nonzero" fill-opacity="1" /><path clip-path="url(#clip140)" d="M3341.55 2226 L3346.44 2226 L3346.44 2231.88 L3341.55 2231.88 L3341.55 2226 Z" fill="#000000" fill-rule="nonzero" fill-opacity="1" /><path clip-path="url(#clip140)" d="M3366.62 2200.4 Q3363.01 2200.4 3361.18 2203.97 Q3359.38 2207.51 3359.38 2214.64 Q3359.38 2221.75 3361.18 2225.31 Q3363.01 2228.85 3366.62 2228.85 Q3370.26 2228.85 3372.06 2225.31 Q3373.89 2221.75 3373.89 2214.64 Q3373.89 2207.51 3372.06 2203.97 Q3370.26 2200.4 3366.62 2200.4 M3366.62 2196.7 Q3372.43 2196.7 3375.49 2201.31 Q3378.57 2205.89 3378.57 2214.64 Q3378.57 2223.37 3375.49 2227.97 Q3372.43 2232.56 3366.62 2232.56 Q3360.81 2232.56 3357.73 2227.97 Q3354.68 2223.37 3354.68 2214.64 Q3354.68 2205.89 3357.73 2201.31 Q3360.81 2196.7 3366.62 2196.7 Z" fill="#000000" fill-rule="nonzero" fill-opacity="1" /><path clip-path="url(#clip140)" d="M3414.96 2206.42 L3404.38 2217.05 L3414.96 2227.63 L3412.2 2230.43 L3401.58 2219.8 L3390.95 2230.43 L3388.22 2227.63 L3398.78 2217.05 L3388.22 2206.42 L3390.95 2203.62 L3401.58 2214.25 L3412.2 2203.62 L3414.96 2206.42 Z" fill="#000000" fill-rule="nonzero" fill-opacity="1" /><path clip-path="url(#clip140)" d="M3427.32 2227.95 L3434.96 2227.95 L3434.96 2201.58 L3426.65 2203.25 L3426.65 2198.99 L3434.91 2197.32 L3439.59 2197.32 L3439.59 2227.95 L3447.22 2227.95 L3447.22 2231.88 L3427.32 2231.88 L3427.32 2227.95 Z" fill="#000000" fill-rule="nonzero" fill-opacity="1" /><path clip-path="url(#clip140)" d="M3466.67 2200.4 Q3463.06 2200.4 3461.23 2203.97 Q3459.42 2207.51 3459.42 2214.64 Q3459.42 2221.75 3461.23 2225.31 Q3463.06 2228.85 3466.67 2228.85 Q3470.3 2228.85 3472.11 2225.31 Q3473.94 2221.75 3473.94 2214.64 Q3473.94 2207.51 3472.11 2203.97 Q3470.3 2200.4 3466.67 2200.4 M3466.67 2196.7 Q3472.48 2196.7 3475.53 2201.31 Q3478.61 2205.89 3478.61 2214.64 Q3478.61 2223.37 3475.53 2227.97 Q3472.48 2232.56 3466.67 2232.56 Q3460.86 2232.56 3457.78 2227.97 Q3454.72 2223.37 3454.72 2214.64 Q3454.72 2205.89 3457.78 2201.31 Q3460.86 2196.7 3466.67 2196.7 Z" fill="#000000" fill-rule="nonzero" fill-opacity="1" /><path clip-path="url(#clip140)" d="M3491.29 2179.7 L3481.7 2194.69 L3491.29 2194.69 L3491.29 2179.7 M3490.29 2176.39 L3495.07 2176.39 L3495.07 2194.69 L3499.08 2194.69 L3499.08 2197.85 L3495.07 2197.85 L3495.07 2204.47 L3491.29 2204.47 L3491.29 2197.85 L3478.61 2197.85 L3478.61 2194.19 L3490.29 2176.39 Z" fill="#000000" fill-rule="nonzero" fill-opacity="1" /><path clip-path="url(#clip140)" d="M1797.11 2314.17 L1797.11 2302.56 L1787.57 2302.56 L1787.57 2297.76 L1802.9 2297.76 L1802.9 2316.31 Q1799.52 2318.71 1795.44 2319.95 Q1791.36 2321.17 1786.73 2321.17 Q1776.6 2321.17 1770.87 2315.27 Q1765.17 2309.33 1765.17 2298.77 Q1765.17 2288.18 1770.87 2282.28 Q1776.6 2276.35 1786.73 2276.35 Q1790.95 2276.35 1794.74 2277.39 Q1798.56 2278.43 1801.77 2280.46 L1801.77 2286.68 Q1798.53 2283.93 1794.89 2282.54 Q1791.24 2281.15 1787.22 2281.15 Q1779.29 2281.15 1775.3 2285.58 Q1771.33 2290.01 1771.33 2298.77 Q1771.33 2307.51 1775.3 2311.94 Q1779.29 2316.37 1787.22 2316.37 Q1790.31 2316.37 1792.74 2315.84 Q1795.18 2315.29 1797.11 2314.17 Z" fill="#000000" fill-rule="nonzero" fill-opacity="1" /><path clip-path="url(#clip140)" d="M1832.13 2292.9 Q1831.23 2292.38 1830.16 2292.15 Q1829.12 2291.89 1827.84 2291.89 Q1823.33 2291.89 1820.9 2294.84 Q1818.5 2297.76 1818.5 2303.26 L1818.5 2320.33 L1813.14 2320.33 L1813.14 2287.92 L1818.5 2287.92 L1818.5 2292.96 Q1820.17 2290.01 1822.87 2288.59 Q1825.56 2287.14 1829.41 2287.14 Q1829.95 2287.14 1830.62 2287.23 Q1831.29 2287.29 1832.1 2287.43 L1832.13 2292.9 Z" fill="#000000" fill-rule="nonzero" fill-opacity="1" /><path clip-path="url(#clip140)" d="M1837.71 2287.92 L1843.03 2287.92 L1843.03 2320.33 L1837.71 2320.33 L1837.71 2287.92 M1837.71 2275.31 L1843.03 2275.31 L1843.03 2282.05 L1837.71 2282.05 L1837.71 2275.31 Z" fill="#000000" fill-rule="nonzero" fill-opacity="1" /><path clip-path="url(#clip140)" d="M1875.5 2292.84 L1875.5 2275.31 L1880.82 2275.31 L1880.82 2320.33 L1875.5 2320.33 L1875.5 2315.47 Q1873.82 2318.36 1871.25 2319.78 Q1868.7 2321.17 1865.11 2321.17 Q1859.24 2321.17 1855.53 2316.48 Q1851.86 2311.79 1851.86 2304.15 Q1851.86 2296.52 1855.53 2291.83 Q1859.24 2287.14 1865.11 2287.14 Q1868.7 2287.14 1871.25 2288.56 Q1873.82 2289.95 1875.5 2292.84 M1857.36 2304.15 Q1857.36 2310.03 1859.76 2313.38 Q1862.19 2316.71 1866.41 2316.71 Q1870.64 2316.71 1873.07 2313.38 Q1875.5 2310.03 1875.5 2304.15 Q1875.5 2298.28 1873.07 2294.95 Q1870.64 2291.6 1866.41 2291.6 Q1862.19 2291.6 1859.76 2294.95 Q1857.36 2298.28 1857.36 2304.15 Z" fill="#000000" fill-rule="nonzero" fill-opacity="1" /><path clip-path="url(#clip140)" d="M1931.29 2288.88 L1931.29 2293.91 Q1929.03 2292.75 1926.6 2292.18 Q1924.17 2291.6 1921.56 2291.6 Q1917.6 2291.6 1915.6 2292.81 Q1913.64 2294.03 1913.64 2296.46 Q1913.64 2298.31 1915.05 2299.38 Q1916.47 2300.42 1920.75 2301.38 L1922.58 2301.78 Q1928.25 2303 1930.62 2305.23 Q1933.02 2307.42 1933.02 2311.39 Q1933.02 2315.9 1929.43 2318.54 Q1925.87 2321.17 1919.62 2321.17 Q1917.02 2321.17 1914.18 2320.65 Q1911.38 2320.16 1908.25 2319.14 L1908.25 2313.65 Q1911.2 2315.18 1914.07 2315.96 Q1916.93 2316.71 1919.74 2316.71 Q1923.5 2316.71 1925.53 2315.44 Q1927.55 2314.14 1927.55 2311.79 Q1927.55 2309.62 1926.08 2308.47 Q1924.63 2307.31 1919.68 2306.24 L1917.83 2305.8 Q1912.88 2304.76 1910.68 2302.62 Q1908.48 2300.45 1908.48 2296.69 Q1908.48 2292.12 1911.73 2289.63 Q1914.97 2287.14 1920.93 2287.14 Q1923.88 2287.14 1926.48 2287.57 Q1929.09 2288.01 1931.29 2288.88 Z" fill="#000000" fill-rule="nonzero" fill-opacity="1" /><path clip-path="url(#clip140)" d="M1941.5 2287.92 L1946.82 2287.92 L1946.82 2320.33 L1941.5 2320.33 L1941.5 2287.92 M1941.5 2275.31 L1946.82 2275.31 L1946.82 2282.05 L1941.5 2282.05 L1941.5 2275.31 Z" fill="#000000" fill-rule="nonzero" fill-opacity="1" /><path clip-path="url(#clip140)" d="M1955.65 2287.92 L1980.94 2287.92 L1980.94 2292.78 L1960.91 2316.08 L1980.94 2316.08 L1980.94 2320.33 L1954.93 2320.33 L1954.93 2315.47 L1974.95 2292.18 L1955.65 2292.18 L1955.65 2287.92 Z" fill="#000000" fill-rule="nonzero" fill-opacity="1" /><path clip-path="url(#clip140)" d="M2016.79 2302.79 L2016.79 2305.4 L1992.31 2305.4 Q1992.66 2310.9 1995.61 2313.79 Q1998.59 2316.65 2003.88 2316.65 Q2006.95 2316.65 2009.82 2315.9 Q2012.71 2315.15 2015.54 2313.65 L2015.54 2318.68 Q2012.68 2319.9 2009.67 2320.53 Q2006.66 2321.17 2003.57 2321.17 Q1995.81 2321.17 1991.27 2316.65 Q1986.75 2312.14 1986.75 2304.44 Q1986.75 2296.49 1991.04 2291.83 Q1995.35 2287.14 2002.64 2287.14 Q2009.18 2287.14 2012.97 2291.37 Q2016.79 2295.56 2016.79 2302.79 M2011.46 2301.23 Q2011.41 2296.86 2009 2294.26 Q2006.63 2291.65 2002.7 2291.65 Q1998.24 2291.65 1995.55 2294.17 Q1992.89 2296.69 1992.48 2301.26 L2011.46 2301.23 Z" fill="#000000" fill-rule="nonzero" fill-opacity="1" /><path clip-path="url(#clip140)" d="M2044.59 2277.13 L2052.47 2277.13 L2071.62 2313.27 L2071.62 2277.13 L2077.29 2277.13 L2077.29 2320.33 L2069.42 2320.33 L2050.27 2284.19 L2050.27 2320.33 L2044.59 2320.33 L2044.59 2277.13 Z" fill="#000000" fill-rule="nonzero" fill-opacity="1" /><polyline clip-path="url(#clip140)" style="stroke:#000000; stroke-linecap:round; stroke-linejoin:round; stroke-width:4; stroke-opacity:1; fill:none" points="289.705,2144.22 289.705,246.944 "/>
<polyline clip-path="url(#clip140)" style="stroke:#000000; stroke-linecap:round; stroke-linejoin:round; stroke-width:4; stroke-opacity:1; fill:none" points="289.705,1858.42 308.603,1858.42 "/>
<polyline clip-path="url(#clip140)" style="stroke:#000000; stroke-linecap:round; stroke-linejoin:round; stroke-width:4; stroke-opacity:1; fill:none" points="289.705,1555.87 308.603,1555.87 "/>
<polyline clip-path="url(#clip140)" style="stroke:#000000; stroke-linecap:round; stroke-linejoin:round; stroke-width:4; stroke-opacity:1; fill:none" points="289.705,1253.31 308.603,1253.31 "/>
<polyline clip-path="url(#clip140)" style="stroke:#000000; stroke-linecap:round; stroke-linejoin:round; stroke-width:4; stroke-opacity:1; fill:none" points="289.705,950.754 308.603,950.754 "/>
<polyline clip-path="url(#clip140)" style="stroke:#000000; stroke-linecap:round; stroke-linejoin:round; stroke-width:4; stroke-opacity:1; fill:none" points="289.705,648.198 308.603,648.198 "/>
<polyline clip-path="url(#clip140)" style="stroke:#000000; stroke-linecap:round; stroke-linejoin:round; stroke-width:4; stroke-opacity:1; fill:none" points="289.705,345.643 308.603,345.643 "/>
<path clip-path="url(#clip140)" d="M179.525 1844.22 Q175.914 1844.22 174.085 1847.78 Q172.279 1851.33 172.279 1858.46 Q172.279 1865.56 174.085 1869.13 Q175.914 1872.67 179.525 1872.67 Q183.159 1872.67 184.965 1869.13 Q186.793 1865.56 186.793 1858.46 Q186.793 1851.33 184.965 1847.78 Q183.159 1844.22 179.525 1844.22 M179.525 1840.52 Q185.335 1840.52 188.391 1845.12 Q191.469 1849.71 191.469 1858.46 Q191.469 1867.18 188.391 1871.79 Q185.335 1876.37 179.525 1876.37 Q173.715 1876.37 170.636 1871.79 Q167.58 1867.18 167.58 1858.46 Q167.58 1849.71 170.636 1845.12 Q173.715 1840.52 179.525 1840.52 Z" fill="#000000" fill-rule="nonzero" fill-opacity="1" /><path clip-path="url(#clip140)" d="M199.687 1869.82 L204.571 1869.82 L204.571 1875.7 L199.687 1875.7 L199.687 1869.82 Z" fill="#000000" fill-rule="nonzero" fill-opacity="1" /><path clip-path="url(#clip140)" d="M214.802 1841.14 L233.159 1841.14 L233.159 1845.08 L219.085 1845.08 L219.085 1853.55 Q220.103 1853.2 221.122 1853.04 Q222.14 1852.85 223.159 1852.85 Q228.946 1852.85 232.325 1856.02 Q235.705 1859.2 235.705 1864.61 Q235.705 1870.19 232.233 1873.29 Q228.761 1876.37 222.441 1876.37 Q220.265 1876.37 217.997 1876 Q215.751 1875.63 213.344 1874.89 L213.344 1870.19 Q215.427 1871.33 217.65 1871.88 Q219.872 1872.44 222.349 1872.44 Q226.353 1872.44 228.691 1870.33 Q231.029 1868.22 231.029 1864.61 Q231.029 1861 228.691 1858.9 Q226.353 1856.79 222.349 1856.79 Q220.474 1856.79 218.599 1857.21 Q216.747 1857.62 214.802 1858.5 L214.802 1841.14 Z" fill="#000000" fill-rule="nonzero" fill-opacity="1" /><path clip-path="url(#clip140)" d="M169.34 1569.21 L176.979 1569.21 L176.979 1542.84 L168.668 1544.51 L168.668 1540.25 L176.932 1538.59 L181.608 1538.59 L181.608 1569.21 L189.247 1569.21 L189.247 1573.15 L169.34 1573.15 L169.34 1569.21 Z" fill="#000000" fill-rule="nonzero" fill-opacity="1" /><path clip-path="url(#clip140)" d="M198.691 1567.27 L203.576 1567.27 L203.576 1573.15 L198.691 1573.15 L198.691 1567.27 Z" fill="#000000" fill-rule="nonzero" fill-opacity="1" /><path clip-path="url(#clip140)" d="M223.761 1541.66 Q220.15 1541.66 218.321 1545.23 Q216.515 1548.77 216.515 1555.9 Q216.515 1563.01 218.321 1566.57 Q220.15 1570.11 223.761 1570.11 Q227.395 1570.11 229.2 1566.57 Q231.029 1563.01 231.029 1555.9 Q231.029 1548.77 229.2 1545.23 Q227.395 1541.66 223.761 1541.66 M223.761 1537.96 Q229.571 1537.96 232.626 1542.57 Q235.705 1547.15 235.705 1555.9 Q235.705 1564.63 232.626 1569.23 Q229.571 1573.82 223.761 1573.82 Q217.951 1573.82 214.872 1569.23 Q211.816 1564.63 211.816 1555.9 Q211.816 1547.15 214.872 1542.57 Q217.951 1537.96 223.761 1537.96 Z" fill="#000000" fill-rule="nonzero" fill-opacity="1" /><path clip-path="url(#clip140)" d="M170.335 1266.65 L177.974 1266.65 L177.974 1240.29 L169.664 1241.96 L169.664 1237.7 L177.928 1236.03 L182.603 1236.03 L182.603 1266.65 L190.242 1266.65 L190.242 1270.59 L170.335 1270.59 L170.335 1266.65 Z" fill="#000000" fill-rule="nonzero" fill-opacity="1" /><path clip-path="url(#clip140)" d="M199.687 1264.71 L204.571 1264.71 L204.571 1270.59 L199.687 1270.59 L199.687 1264.71 Z" fill="#000000" fill-rule="nonzero" fill-opacity="1" /><path clip-path="url(#clip140)" d="M214.802 1236.03 L233.159 1236.03 L233.159 1239.96 L219.085 1239.96 L219.085 1248.44 Q220.103 1248.09 221.122 1247.93 Q222.14 1247.74 223.159 1247.74 Q228.946 1247.74 232.325 1250.91 Q235.705 1254.09 235.705 1259.5 Q235.705 1265.08 232.233 1268.18 Q228.761 1271.26 222.441 1271.26 Q220.265 1271.26 217.997 1270.89 Q215.751 1270.52 213.344 1269.78 L213.344 1265.08 Q215.427 1266.21 217.65 1266.77 Q219.872 1267.33 222.349 1267.33 Q226.353 1267.33 228.691 1265.22 Q231.029 1263.11 231.029 1259.5 Q231.029 1255.89 228.691 1253.78 Q226.353 1251.68 222.349 1251.68 Q220.474 1251.68 218.599 1252.09 Q216.747 1252.51 214.802 1253.39 L214.802 1236.03 Z" fill="#000000" fill-rule="nonzero" fill-opacity="1" /><path clip-path="url(#clip140)" d="M172.557 964.099 L188.877 964.099 L188.877 968.034 L166.932 968.034 L166.932 964.099 Q169.594 961.344 174.178 956.715 Q178.784 952.062 179.965 950.719 Q182.21 948.196 183.09 946.46 Q183.992 944.701 183.992 943.011 Q183.992 940.256 182.048 938.52 Q180.127 936.784 177.025 936.784 Q174.826 936.784 172.372 937.548 Q169.942 938.312 167.164 939.863 L167.164 935.141 Q169.988 934.006 172.442 933.428 Q174.895 932.849 176.932 932.849 Q182.303 932.849 185.497 935.534 Q188.691 938.219 188.691 942.71 Q188.691 944.84 187.881 946.761 Q187.094 948.659 184.988 951.252 Q184.409 951.923 181.307 955.14 Q178.205 958.335 172.557 964.099 Z" fill="#000000" fill-rule="nonzero" fill-opacity="1" /><path clip-path="url(#clip140)" d="M198.691 962.154 L203.576 962.154 L203.576 968.034 L198.691 968.034 L198.691 962.154 Z" fill="#000000" fill-rule="nonzero" fill-opacity="1" /><path clip-path="url(#clip140)" d="M223.761 936.553 Q220.15 936.553 218.321 940.117 Q216.515 943.659 216.515 950.789 Q216.515 957.895 218.321 961.46 Q220.15 965.002 223.761 965.002 Q227.395 965.002 229.2 961.46 Q231.029 957.895 231.029 950.789 Q231.029 943.659 229.2 940.117 Q227.395 936.553 223.761 936.553 M223.761 932.849 Q229.571 932.849 232.626 937.455 Q235.705 942.039 235.705 950.789 Q235.705 959.515 232.626 964.122 Q229.571 968.705 223.761 968.705 Q217.951 968.705 214.872 964.122 Q211.816 959.515 211.816 950.789 Q211.816 942.039 214.872 937.455 Q217.951 932.849 223.761 932.849 Z" fill="#000000" fill-rule="nonzero" fill-opacity="1" /><path clip-path="url(#clip140)" d="M173.553 661.543 L189.872 661.543 L189.872 665.478 L167.928 665.478 L167.928 661.543 Q170.59 658.789 175.173 654.159 Q179.779 649.506 180.96 648.164 Q183.205 645.64 184.085 643.904 Q184.988 642.145 184.988 640.455 Q184.988 637.701 183.043 635.965 Q181.122 634.228 178.02 634.228 Q175.821 634.228 173.367 634.992 Q170.937 635.756 168.159 637.307 L168.159 632.585 Q170.983 631.451 173.437 630.872 Q175.891 630.293 177.928 630.293 Q183.298 630.293 186.492 632.979 Q189.687 635.664 189.687 640.154 Q189.687 642.284 188.877 644.205 Q188.09 646.103 185.983 648.696 Q185.404 649.367 182.303 652.585 Q179.201 655.779 173.553 661.543 Z" fill="#000000" fill-rule="nonzero" fill-opacity="1" /><path clip-path="url(#clip140)" d="M199.687 659.599 L204.571 659.599 L204.571 665.478 L199.687 665.478 L199.687 659.599 Z" fill="#000000" fill-rule="nonzero" fill-opacity="1" /><path clip-path="url(#clip140)" d="M214.802 630.918 L233.159 630.918 L233.159 634.853 L219.085 634.853 L219.085 643.326 Q220.103 642.978 221.122 642.816 Q222.14 642.631 223.159 642.631 Q228.946 642.631 232.325 645.803 Q235.705 648.974 235.705 654.39 Q235.705 659.969 232.233 663.071 Q228.761 666.15 222.441 666.15 Q220.265 666.15 217.997 665.779 Q215.751 665.409 213.344 664.668 L213.344 659.969 Q215.427 661.103 217.65 661.659 Q219.872 662.214 222.349 662.214 Q226.353 662.214 228.691 660.108 Q231.029 658.002 231.029 654.39 Q231.029 650.779 228.691 648.673 Q226.353 646.566 222.349 646.566 Q220.474 646.566 218.599 646.983 Q216.747 647.4 214.802 648.279 L214.802 630.918 Z" fill="#000000" fill-rule="nonzero" fill-opacity="1" /><path clip-path="url(#clip140)" d="M182.696 344.289 Q186.053 345.006 187.928 347.275 Q189.826 349.543 189.826 352.876 Q189.826 357.992 186.307 360.793 Q182.789 363.594 176.307 363.594 Q174.131 363.594 171.817 363.154 Q169.525 362.738 167.071 361.881 L167.071 357.367 Q169.016 358.501 171.33 359.08 Q173.645 359.659 176.168 359.659 Q180.566 359.659 182.858 357.923 Q185.173 356.187 185.173 352.876 Q185.173 349.821 183.02 348.108 Q180.891 346.372 177.071 346.372 L173.043 346.372 L173.043 342.529 L177.256 342.529 Q180.705 342.529 182.534 341.164 Q184.363 339.775 184.363 337.182 Q184.363 334.52 182.465 333.108 Q180.59 331.673 177.071 331.673 Q175.15 331.673 172.951 332.09 Q170.752 332.506 168.113 333.386 L168.113 329.219 Q170.775 328.478 173.09 328.108 Q175.428 327.738 177.488 327.738 Q182.812 327.738 185.914 330.168 Q189.015 332.576 189.015 336.696 Q189.015 339.566 187.372 341.557 Q185.728 343.525 182.696 344.289 Z" fill="#000000" fill-rule="nonzero" fill-opacity="1" /><path clip-path="url(#clip140)" d="M198.691 357.043 L203.576 357.043 L203.576 362.923 L198.691 362.923 L198.691 357.043 Z" fill="#000000" fill-rule="nonzero" fill-opacity="1" /><path clip-path="url(#clip140)" d="M223.761 331.441 Q220.15 331.441 218.321 335.006 Q216.515 338.548 216.515 345.677 Q216.515 352.784 218.321 356.349 Q220.15 359.89 223.761 359.89 Q227.395 359.89 229.2 356.349 Q231.029 352.784 231.029 345.677 Q231.029 338.548 229.2 335.006 Q227.395 331.441 223.761 331.441 M223.761 327.738 Q229.571 327.738 232.626 332.344 Q235.705 336.927 235.705 345.677 Q235.705 354.404 232.626 359.011 Q229.571 363.594 223.761 363.594 Q217.951 363.594 214.872 359.011 Q211.816 354.404 211.816 345.677 Q211.816 336.927 214.872 332.344 Q217.951 327.738 223.761 327.738 Z" fill="#000000" fill-rule="nonzero" fill-opacity="1" /><path clip-path="url(#clip140)" d="M58.1901 1368.54 L63.8903 1368.54 Q62.2989 1371.87 61.5176 1374.82 Q60.7364 1377.77 60.7364 1380.52 Q60.7364 1385.3 62.5882 1387.9 Q64.4401 1390.48 67.8544 1390.48 Q70.719 1390.48 72.1947 1388.77 Q73.6414 1387.03 74.5384 1382.23 L75.2618 1378.7 Q76.506 1372.16 79.6599 1369.06 Q82.7849 1365.94 88.0511 1365.94 Q94.33 1365.94 97.5707 1370.16 Q100.811 1374.36 100.811 1382.49 Q100.811 1385.56 100.117 1389.03 Q99.4225 1392.47 98.0626 1396.18 L92.0441 1396.18 Q94.0406 1392.62 95.0533 1389.2 Q96.0661 1385.79 96.0661 1382.49 Q96.0661 1377.48 94.0985 1374.76 Q92.1309 1372.04 88.4851 1372.04 Q85.3022 1372.04 83.5083 1374.01 Q81.7143 1375.95 80.8173 1380.41 L80.1229 1383.97 Q78.8208 1390.51 76.043 1393.43 Q73.2653 1396.35 68.3174 1396.35 Q62.5882 1396.35 59.2896 1392.33 Q55.991 1388.28 55.991 1381.19 Q55.991 1378.15 56.5408 1375 Q57.0906 1371.84 58.1901 1368.54 Z" fill="#000000" fill-rule="nonzero" fill-opacity="1" /><path clip-path="url(#clip140)" d="M71.2977 1344.5 Q71.2977 1348.78 74.6541 1351.27 Q77.9817 1353.76 83.7976 1353.76 Q89.6135 1353.76 92.97 1351.3 Q96.2975 1348.81 96.2975 1344.5 Q96.2975 1340.25 92.9411 1337.76 Q89.5846 1335.27 83.7976 1335.27 Q78.0395 1335.27 74.6831 1337.76 Q71.2977 1340.25 71.2977 1344.5 M66.7838 1344.5 Q66.7838 1337.55 71.2977 1333.59 Q75.8115 1329.63 83.7976 1329.63 Q91.7547 1329.63 96.2975 1333.59 Q100.811 1337.55 100.811 1344.5 Q100.811 1351.47 96.2975 1355.44 Q91.7547 1359.37 83.7976 1359.37 Q75.8115 1359.37 71.2977 1355.44 Q66.7838 1351.47 66.7838 1344.5 Z" fill="#000000" fill-rule="nonzero" fill-opacity="1" /><path clip-path="url(#clip140)" d="M54.9494 1320.8 L54.9494 1315.48 L99.9723 1315.48 L99.9723 1320.8 L54.9494 1320.8 Z" fill="#000000" fill-rule="nonzero" fill-opacity="1" /><path clip-path="url(#clip140)" d="M67.565 1308.16 L67.565 1302.51 L94.764 1292.39 L67.565 1282.26 L67.565 1276.62 L99.9723 1288.77 L99.9723 1296 L67.565 1308.16 Z" fill="#000000" fill-rule="nonzero" fill-opacity="1" /><path clip-path="url(#clip140)" d="M82.4377 1241.55 L85.0418 1241.55 L85.0418 1266.03 Q90.5395 1265.68 93.433 1262.73 Q96.2975 1259.75 96.2975 1254.45 Q96.2975 1251.39 95.5452 1248.52 Q94.7929 1245.63 93.2883 1242.79 L98.323 1242.79 Q99.5383 1245.66 100.175 1248.67 Q100.811 1251.67 100.811 1254.77 Q100.811 1262.53 96.2975 1267.07 Q91.7837 1271.58 84.087 1271.58 Q76.1298 1271.58 71.4713 1267.3 Q66.7838 1262.99 66.7838 1255.7 Q66.7838 1249.16 71.0083 1245.37 Q75.2039 1241.55 82.4377 1241.55 M80.8752 1246.87 Q76.506 1246.93 73.9018 1249.33 Q71.2977 1251.7 71.2977 1255.64 Q71.2977 1260.1 73.815 1262.79 Q76.3324 1265.45 80.9041 1265.85 L80.8752 1246.87 Z" fill="#000000" fill-rule="nonzero" fill-opacity="1" /><path clip-path="url(#clip140)" d="M58.3637 1208.71 L67.565 1208.71 L67.565 1197.74 L71.7028 1197.74 L71.7028 1208.71 L89.2953 1208.71 Q93.2594 1208.71 94.3878 1207.64 Q95.5163 1206.54 95.5163 1203.21 L95.5163 1197.74 L99.9723 1197.74 L99.9723 1203.21 Q99.9723 1209.37 97.6864 1211.72 Q95.3716 1214.06 89.2953 1214.06 L71.7028 1214.06 L71.7028 1217.97 L67.565 1217.97 L67.565 1214.06 L58.3637 1214.06 L58.3637 1208.71 Z" fill="#000000" fill-rule="nonzero" fill-opacity="1" /><path clip-path="url(#clip140)" d="M67.565 1190.74 L67.565 1185.41 L99.9723 1185.41 L99.9723 1190.74 L67.565 1190.74 M54.9494 1190.74 L54.9494 1185.41 L61.6912 1185.41 L61.6912 1190.74 L54.9494 1190.74 Z" fill="#000000" fill-rule="nonzero" fill-opacity="1" /><path clip-path="url(#clip140)" d="M73.7861 1149.04 Q70.1981 1147.05 68.491 1144.27 Q66.7838 1141.49 66.7838 1137.73 Q66.7838 1132.67 70.3428 1129.92 Q73.8729 1127.17 80.4122 1127.17 L99.9723 1127.17 L99.9723 1132.52 L80.5858 1132.52 Q75.9273 1132.52 73.6703 1134.17 Q71.4134 1135.82 71.4134 1139.2 Q71.4134 1143.34 74.1622 1145.74 Q76.9111 1148.15 81.6564 1148.15 L99.9723 1148.15 L99.9723 1153.5 L80.5858 1153.5 Q75.8983 1153.5 73.6703 1155.15 Q71.4134 1156.8 71.4134 1160.24 Q71.4134 1164.32 74.1912 1166.72 Q76.94 1169.12 81.6564 1169.12 L99.9723 1169.12 L99.9723 1174.48 L67.565 1174.48 L67.565 1169.12 L72.5997 1169.12 Q69.6194 1167.3 68.2016 1164.75 Q66.7838 1162.21 66.7838 1158.71 Q66.7838 1155.18 68.5778 1152.72 Q70.3717 1150.23 73.7861 1149.04 Z" fill="#000000" fill-rule="nonzero" fill-opacity="1" /><path clip-path="url(#clip140)" d="M82.4377 1088.83 L85.0418 1088.83 L85.0418 1113.31 Q90.5395 1112.96 93.433 1110.01 Q96.2975 1107.03 96.2975 1101.73 Q96.2975 1098.67 95.5452 1095.8 Q94.7929 1092.91 93.2883 1090.07 L98.323 1090.07 Q99.5383 1092.94 100.175 1095.95 Q100.811 1098.96 100.811 1102.05 Q100.811 1109.81 96.2975 1114.35 Q91.7837 1118.86 84.087 1118.86 Q76.1298 1118.86 71.4713 1114.58 Q66.7838 1110.27 66.7838 1102.98 Q66.7838 1096.44 71.0083 1092.65 Q75.2039 1088.83 82.4377 1088.83 M80.8752 1094.15 Q76.506 1094.21 73.9018 1096.61 Q71.2977 1098.98 71.2977 1102.92 Q71.2977 1107.38 73.815 1110.07 Q76.3324 1112.73 80.9041 1113.13 L80.8752 1094.15 Z" fill="#000000" fill-rule="nonzero" fill-opacity="1" /><path clip-path="url(#clip140)" d="M55.0072 1048.46 Q61.6623 1052.34 68.1727 1054.22 Q74.6831 1056.1 81.3671 1056.1 Q88.0511 1056.1 94.6193 1054.22 Q101.159 1052.31 107.785 1048.46 L107.785 1053.09 Q100.985 1057.43 94.4168 1059.6 Q87.8485 1061.75 81.3671 1061.75 Q74.9145 1061.75 68.3752 1059.6 Q61.8359 1057.46 55.0072 1053.09 L55.0072 1048.46 Z" fill="#000000" fill-rule="nonzero" fill-opacity="1" /><path clip-path="url(#clip140)" d="M68.5199 1017.47 L73.5546 1017.47 Q72.3972 1019.73 71.8185 1022.16 Q71.2398 1024.59 71.2398 1027.2 Q71.2398 1031.16 72.4551 1033.16 Q73.6703 1035.13 76.1009 1035.13 Q77.9527 1035.13 79.0233 1033.71 Q80.065 1032.29 81.0198 1028.01 L81.4249 1026.18 Q82.6402 1020.51 84.8682 1018.14 Q87.0673 1015.74 91.0314 1015.74 Q95.5452 1015.74 98.1783 1019.33 Q100.811 1022.89 100.811 1029.14 Q100.811 1031.74 100.291 1034.58 Q99.7987 1037.38 98.7859 1040.51 L93.2883 1040.51 Q94.8218 1037.56 95.6031 1034.69 Q96.3554 1031.83 96.3554 1029.02 Q96.3554 1025.26 95.0823 1023.23 Q93.7802 1021.21 91.4364 1021.21 Q89.2663 1021.21 88.1089 1022.68 Q86.9515 1024.13 85.8809 1029.08 L85.4469 1030.93 Q84.4052 1035.88 82.264 1038.08 Q80.0939 1040.28 76.3324 1040.28 Q71.7606 1040.28 69.2722 1037.03 Q66.7838 1033.79 66.7838 1027.83 Q66.7838 1024.88 67.2178 1022.28 Q67.6519 1019.67 68.5199 1017.47 Z" fill="#000000" fill-rule="nonzero" fill-opacity="1" /><path clip-path="url(#clip140)" d="M55.0072 1008.1 L55.0072 1003.47 Q61.8359 999.13 68.3752 996.989 Q74.9145 994.819 81.3671 994.819 Q87.8485 994.819 94.4168 996.989 Q100.985 999.13 107.785 1003.47 L107.785 1008.1 Q101.159 1004.25 94.6193 1002.37 Q88.0511 1000.46 81.3671 1000.46 Q74.6831 1000.46 68.1727 1002.37 Q61.6623 1004.25 55.0072 1008.1 Z" fill="#000000" fill-rule="nonzero" fill-opacity="1" /><path clip-path="url(#clip140)" d="M1299.78 125.969 L1299.78 133.949 Q1295.12 131.721 1290.99 130.627 Q1286.86 129.534 1283.01 129.534 Q1276.33 129.534 1272.68 132.126 Q1269.08 134.719 1269.08 139.499 Q1269.08 143.509 1271.47 145.575 Q1273.9 147.601 1280.62 148.857 L1285.56 149.869 Q1294.72 151.611 1299.05 156.027 Q1303.43 160.402 1303.43 167.774 Q1303.43 176.565 1297.51 181.102 Q1291.64 185.639 1280.26 185.639 Q1275.96 185.639 1271.1 184.667 Q1266.28 183.694 1261.1 181.79 L1261.1 173.365 Q1266.08 176.16 1270.86 177.577 Q1275.64 178.995 1280.26 178.995 Q1287.26 178.995 1291.07 176.241 Q1294.88 173.486 1294.88 168.382 Q1294.88 163.926 1292.13 161.414 Q1289.41 158.903 1283.17 157.647 L1278.19 156.675 Q1269.03 154.852 1264.94 150.963 Q1260.85 147.074 1260.85 140.147 Q1260.85 132.126 1266.48 127.508 Q1272.15 122.89 1282.08 122.89 Q1286.33 122.89 1290.75 123.66 Q1295.16 124.43 1299.78 125.969 Z" fill="#000000" fill-rule="nonzero" fill-opacity="1" /><path clip-path="url(#clip140)" d="M1333.44 144.32 Q1327.45 144.32 1323.97 149.019 Q1320.48 153.677 1320.48 161.819 Q1320.48 169.962 1323.92 174.661 Q1327.41 179.319 1333.44 179.319 Q1339.4 179.319 1342.88 174.62 Q1346.37 169.921 1346.37 161.819 Q1346.37 153.758 1342.88 149.059 Q1339.4 144.32 1333.44 144.32 M1333.44 138 Q1343.17 138 1348.72 144.32 Q1354.27 150.639 1354.27 161.819 Q1354.27 172.959 1348.72 179.319 Q1343.17 185.639 1333.44 185.639 Q1323.68 185.639 1318.13 179.319 Q1312.62 172.959 1312.62 161.819 Q1312.62 150.639 1318.13 144.32 Q1323.68 138 1333.44 138 Z" fill="#000000" fill-rule="nonzero" fill-opacity="1" /><path clip-path="url(#clip140)" d="M1366.62 121.432 L1374.07 121.432 L1374.07 184.464 L1366.62 184.464 L1366.62 121.432 Z" fill="#000000" fill-rule="nonzero" fill-opacity="1" /><path clip-path="url(#clip140)" d="M1384.32 139.094 L1392.22 139.094 L1406.4 177.172 L1420.58 139.094 L1428.48 139.094 L1411.46 184.464 L1401.34 184.464 L1384.32 139.094 Z" fill="#000000" fill-rule="nonzero" fill-opacity="1" /><path clip-path="url(#clip140)" d="M1477.58 159.916 L1477.58 163.561 L1443.3 163.561 Q1443.79 171.258 1447.92 175.309 Q1452.1 179.319 1459.51 179.319 Q1463.8 179.319 1467.81 178.266 Q1471.86 177.213 1475.83 175.106 L1475.83 182.155 Q1471.82 183.856 1467.61 184.748 Q1463.4 185.639 1459.06 185.639 Q1448.21 185.639 1441.85 179.319 Q1435.53 173 1435.53 162.225 Q1435.53 151.085 1441.52 144.563 Q1447.56 138 1457.77 138 Q1466.92 138 1472.23 143.914 Q1477.58 149.788 1477.58 159.916 M1470.12 157.728 Q1470.04 151.611 1466.68 147.965 Q1463.36 144.32 1457.85 144.32 Q1451.61 144.32 1447.84 147.844 Q1444.11 151.368 1443.55 157.769 L1470.12 157.728 Z" fill="#000000" fill-rule="nonzero" fill-opacity="1" /><path clip-path="url(#clip140)" d="M1523.55 126.212 L1523.55 139.094 L1538.91 139.094 L1538.91 144.887 L1523.55 144.887 L1523.55 169.516 Q1523.55 175.066 1525.05 176.646 Q1526.59 178.226 1531.25 178.226 L1538.91 178.226 L1538.91 184.464 L1531.25 184.464 Q1522.62 184.464 1519.34 181.264 Q1516.06 178.023 1516.06 169.516 L1516.06 144.887 L1510.59 144.887 L1510.59 139.094 L1516.06 139.094 L1516.06 126.212 L1523.55 126.212 Z" fill="#000000" fill-rule="nonzero" fill-opacity="1" /><path clip-path="url(#clip140)" d="M1548.71 139.094 L1556.16 139.094 L1556.16 184.464 L1548.71 184.464 L1548.71 139.094 M1548.71 121.432 L1556.16 121.432 L1556.16 130.871 L1548.71 130.871 L1548.71 121.432 Z" fill="#000000" fill-rule="nonzero" fill-opacity="1" /><path clip-path="url(#clip140)" d="M1607.08 147.803 Q1609.88 142.78 1613.77 140.39 Q1617.66 138 1622.92 138 Q1630.01 138 1633.86 142.983 Q1637.71 147.925 1637.71 157.08 L1637.71 184.464 L1630.21 184.464 L1630.21 157.323 Q1630.21 150.801 1627.9 147.641 Q1625.6 144.482 1620.86 144.482 Q1615.06 144.482 1611.7 148.33 Q1608.34 152.178 1608.34 158.822 L1608.34 184.464 L1600.84 184.464 L1600.84 157.323 Q1600.84 150.76 1598.54 147.641 Q1596.23 144.482 1591.41 144.482 Q1585.69 144.482 1582.33 148.37 Q1578.97 152.219 1578.97 158.822 L1578.97 184.464 L1571.48 184.464 L1571.48 139.094 L1578.97 139.094 L1578.97 146.142 Q1581.52 141.97 1585.09 139.985 Q1588.65 138 1593.55 138 Q1598.49 138 1601.94 140.512 Q1605.42 143.023 1607.08 147.803 Z" fill="#000000" fill-rule="nonzero" fill-opacity="1" /><path clip-path="url(#clip140)" d="M1691.38 159.916 L1691.38 163.561 L1657.11 163.561 Q1657.6 171.258 1661.73 175.309 Q1665.9 179.319 1673.32 179.319 Q1677.61 179.319 1681.62 178.266 Q1685.67 177.213 1689.64 175.106 L1689.64 182.155 Q1685.63 183.856 1681.42 184.748 Q1677.2 185.639 1672.87 185.639 Q1662.01 185.639 1655.65 179.319 Q1649.33 173 1649.33 162.225 Q1649.33 151.085 1655.33 144.563 Q1661.36 138 1671.57 138 Q1680.73 138 1686.03 143.914 Q1691.38 149.788 1691.38 159.916 M1683.93 157.728 Q1683.85 151.611 1680.49 147.965 Q1677.16 144.32 1671.65 144.32 Q1665.42 144.32 1661.65 147.844 Q1657.92 151.368 1657.35 157.769 L1683.93 157.728 Z" fill="#000000" fill-rule="nonzero" fill-opacity="1" /><path clip-path="url(#clip140)" d="M1724.64 139.094 L1732.54 139.094 L1746.72 177.172 L1760.9 139.094 L1768.79 139.094 L1751.78 184.464 L1741.65 184.464 L1724.64 139.094 Z" fill="#000000" fill-rule="nonzero" fill-opacity="1" /><path clip-path="url(#clip140)" d="M1808.01 140.431 L1808.01 147.479 Q1804.85 145.859 1801.45 145.049 Q1798.04 144.239 1794.4 144.239 Q1788.85 144.239 1786.05 145.94 Q1783.3 147.641 1783.3 151.044 Q1783.3 153.637 1785.28 155.135 Q1787.27 156.594 1793.26 157.931 L1795.81 158.498 Q1803.75 160.199 1807.08 163.318 Q1810.44 166.397 1810.44 171.947 Q1810.44 178.266 1805.42 181.952 Q1800.43 185.639 1791.68 185.639 Q1788.04 185.639 1784.07 184.91 Q1780.14 184.221 1775.76 182.803 L1775.76 175.106 Q1779.89 177.253 1783.9 178.347 Q1787.92 179.4 1791.84 179.4 Q1797.11 179.4 1799.95 177.618 Q1802.78 175.795 1802.78 172.514 Q1802.78 169.476 1800.72 167.855 Q1798.69 166.235 1791.76 164.736 L1789.17 164.128 Q1782.24 162.67 1779.17 159.672 Q1776.09 156.634 1776.09 151.368 Q1776.09 144.968 1780.62 141.484 Q1785.16 138 1793.51 138 Q1797.64 138 1801.28 138.608 Q1804.93 139.215 1808.01 140.431 Z" fill="#000000" fill-rule="nonzero" fill-opacity="1" /><path clip-path="url(#clip140)" d="M1878.53 161.252 Q1878.53 153.151 1875.17 148.695 Q1871.85 144.239 1865.81 144.239 Q1859.82 144.239 1856.46 148.695 Q1853.13 153.151 1853.13 161.252 Q1853.13 169.314 1856.46 173.77 Q1859.82 178.226 1865.81 178.226 Q1871.85 178.226 1875.17 173.77 Q1878.53 169.314 1878.53 161.252 M1885.99 178.833 Q1885.99 190.419 1880.84 196.05 Q1875.7 201.721 1865.08 201.721 Q1861.16 201.721 1857.67 201.113 Q1854.19 200.546 1850.91 199.331 L1850.91 192.08 Q1854.19 193.862 1857.39 194.713 Q1860.59 195.563 1863.91 195.563 Q1871.24 195.563 1874.89 191.715 Q1878.53 187.907 1878.53 180.17 L1878.53 176.484 Q1876.22 180.494 1872.62 182.479 Q1869.01 184.464 1863.99 184.464 Q1855.65 184.464 1850.54 178.104 Q1845.44 171.744 1845.44 161.252 Q1845.44 150.72 1850.54 144.36 Q1855.65 138 1863.99 138 Q1869.01 138 1872.62 139.985 Q1876.22 141.97 1878.53 145.98 L1878.53 139.094 L1885.99 139.094 L1885.99 178.833 Z" fill="#000000" fill-rule="nonzero" fill-opacity="1" /><path clip-path="url(#clip140)" d="M1927.63 146.061 Q1926.38 145.332 1924.88 145.008 Q1923.42 144.644 1921.64 144.644 Q1915.32 144.644 1911.91 148.776 Q1908.55 152.867 1908.55 160.564 L1908.55 184.464 L1901.06 184.464 L1901.06 139.094 L1908.55 139.094 L1908.55 146.142 Q1910.9 142.011 1914.67 140.026 Q1918.44 138 1923.82 138 Q1924.59 138 1925.52 138.122 Q1926.46 138.203 1927.59 138.405 L1927.63 146.061 Z" fill="#000000" fill-rule="nonzero" fill-opacity="1" /><path clip-path="url(#clip140)" d="M1935.45 139.094 L1942.9 139.094 L1942.9 184.464 L1935.45 184.464 L1935.45 139.094 M1935.45 121.432 L1942.9 121.432 L1942.9 130.871 L1935.45 130.871 L1935.45 121.432 Z" fill="#000000" fill-rule="nonzero" fill-opacity="1" /><path clip-path="url(#clip140)" d="M1988.35 145.98 L1988.35 121.432 L1995.81 121.432 L1995.81 184.464 L1988.35 184.464 L1988.35 177.658 Q1986 181.709 1982.4 183.694 Q1978.83 185.639 1973.81 185.639 Q1965.59 185.639 1960.4 179.076 Q1955.26 172.514 1955.26 161.819 Q1955.26 151.125 1960.4 144.563 Q1965.59 138 1973.81 138 Q1978.83 138 1982.4 139.985 Q1986 141.93 1988.35 145.98 M1962.95 161.819 Q1962.95 170.043 1966.32 174.742 Q1969.72 179.4 1975.63 179.4 Q1981.55 179.4 1984.95 174.742 Q1988.35 170.043 1988.35 161.819 Q1988.35 153.596 1984.95 148.938 Q1981.55 144.239 1975.63 144.239 Q1969.72 144.239 1966.32 148.938 Q1962.95 153.596 1962.95 161.819 Z" fill="#000000" fill-rule="nonzero" fill-opacity="1" /><path clip-path="url(#clip140)" d="M2066.46 140.431 L2066.46 147.479 Q2063.3 145.859 2059.89 145.049 Q2056.49 144.239 2052.84 144.239 Q2047.29 144.239 2044.5 145.94 Q2041.74 147.641 2041.74 151.044 Q2041.74 153.637 2043.73 155.135 Q2045.71 156.594 2051.71 157.931 L2054.26 158.498 Q2062.2 160.199 2065.52 163.318 Q2068.89 166.397 2068.89 171.947 Q2068.89 178.266 2063.86 181.952 Q2058.88 185.639 2050.13 185.639 Q2046.48 185.639 2042.51 184.91 Q2038.59 184.221 2034.21 182.803 L2034.21 175.106 Q2038.34 177.253 2042.35 178.347 Q2046.36 179.4 2050.29 179.4 Q2055.56 179.4 2058.39 177.618 Q2061.23 175.795 2061.23 172.514 Q2061.23 169.476 2059.16 167.855 Q2057.14 166.235 2050.21 164.736 L2047.62 164.128 Q2040.69 162.67 2037.61 159.672 Q2034.53 156.634 2034.53 151.368 Q2034.53 144.968 2039.07 141.484 Q2043.61 138 2051.95 138 Q2056.09 138 2059.73 138.608 Q2063.38 139.215 2066.46 140.431 Z" fill="#000000" fill-rule="nonzero" fill-opacity="1" /><path clip-path="url(#clip140)" d="M2080.76 139.094 L2088.21 139.094 L2088.21 184.464 L2080.76 184.464 L2080.76 139.094 M2080.76 121.432 L2088.21 121.432 L2088.21 130.871 L2080.76 130.871 L2080.76 121.432 Z" fill="#000000" fill-rule="nonzero" fill-opacity="1" /><path clip-path="url(#clip140)" d="M2100.56 139.094 L2135.97 139.094 L2135.97 145.899 L2107.94 178.509 L2135.97 178.509 L2135.97 184.464 L2099.55 184.464 L2099.55 177.658 L2127.58 145.049 L2100.56 145.049 L2100.56 139.094 Z" fill="#000000" fill-rule="nonzero" fill-opacity="1" /><path clip-path="url(#clip140)" d="M2186.16 159.916 L2186.16 163.561 L2151.89 163.561 Q2152.38 171.258 2156.51 175.309 Q2160.68 179.319 2168.09 179.319 Q2172.39 179.319 2176.4 178.266 Q2180.45 177.213 2184.42 175.106 L2184.42 182.155 Q2180.41 183.856 2176.19 184.748 Q2171.98 185.639 2167.65 185.639 Q2156.79 185.639 2150.43 179.319 Q2144.11 173 2144.11 162.225 Q2144.11 151.085 2150.11 144.563 Q2156.14 138 2166.35 138 Q2175.51 138 2180.81 143.914 Q2186.16 149.788 2186.16 159.916 M2178.71 157.728 Q2178.62 151.611 2175.26 147.965 Q2171.94 144.32 2166.43 144.32 Q2160.19 144.32 2156.43 147.844 Q2152.7 151.368 2152.13 157.769 L2178.71 157.728 Z" fill="#000000" fill-rule="nonzero" fill-opacity="1" /><path clip-path="url(#clip140)" d="M2221 158.822 L2295.86 158.822 L2295.86 164.655 L2221 164.655 L2221 158.822 Z" fill="#000000" fill-rule="nonzero" fill-opacity="1" /><path clip-path="url(#clip140)" d="M2360.39 146.061 Q2359.13 145.332 2357.63 145.008 Q2356.18 144.644 2354.39 144.644 Q2348.07 144.644 2344.67 148.776 Q2341.31 152.867 2341.31 160.564 L2341.31 184.464 L2333.82 184.464 L2333.82 139.094 L2341.31 139.094 L2341.31 146.142 Q2343.66 142.011 2347.43 140.026 Q2351.19 138 2356.58 138 Q2357.35 138 2358.28 138.122 Q2359.21 138.203 2360.35 138.405 L2360.39 146.061 Z" fill="#000000" fill-rule="nonzero" fill-opacity="1" /><path clip-path="url(#clip140)" d="M2383.97 144.32 Q2377.97 144.32 2374.49 149.019 Q2371 153.677 2371 161.819 Q2371 169.962 2374.45 174.661 Q2377.93 179.319 2383.97 179.319 Q2389.92 179.319 2393.4 174.62 Q2396.89 169.921 2396.89 161.819 Q2396.89 153.758 2393.4 149.059 Q2389.92 144.32 2383.97 144.32 M2383.97 138 Q2393.69 138 2399.24 144.32 Q2404.79 150.639 2404.79 161.819 Q2404.79 172.959 2399.24 179.319 Q2393.69 185.639 2383.97 185.639 Q2374.2 185.639 2368.65 179.319 Q2363.14 172.959 2363.14 161.819 Q2363.14 150.639 2368.65 144.32 Q2374.2 138 2383.97 138 Z" fill="#000000" fill-rule="nonzero" fill-opacity="1" /><path clip-path="url(#clip140)" d="M2449.79 140.836 L2449.79 147.803 Q2446.63 146.061 2443.43 145.211 Q2440.27 144.32 2437.03 144.32 Q2429.78 144.32 2425.77 148.938 Q2421.76 153.515 2421.76 161.819 Q2421.76 170.124 2425.77 174.742 Q2429.78 179.319 2437.03 179.319 Q2440.27 179.319 2443.43 178.469 Q2446.63 177.577 2449.79 175.836 L2449.79 182.722 Q2446.67 184.18 2443.31 184.91 Q2439.99 185.639 2436.22 185.639 Q2425.97 185.639 2419.94 179.198 Q2413.9 172.757 2413.9 161.819 Q2413.9 150.72 2419.98 144.36 Q2426.09 138 2436.71 138 Q2440.15 138 2443.43 138.729 Q2446.71 139.418 2449.79 140.836 Z" fill="#000000" fill-rule="nonzero" fill-opacity="1" /><path clip-path="url(#clip140)" d="M2462.47 121.432 L2469.97 121.432 L2469.97 158.66 L2492.21 139.094 L2501.73 139.094 L2477.66 160.321 L2502.74 184.464 L2493.02 184.464 L2469.97 162.306 L2469.97 184.464 L2462.47 184.464 L2462.47 121.432 Z" fill="#000000" fill-rule="nonzero" fill-opacity="1" /><path clip-path="url(#clip140)" d="M2546.65 159.916 L2546.65 163.561 L2512.38 163.561 Q2512.87 171.258 2517 175.309 Q2521.17 179.319 2528.58 179.319 Q2532.88 179.319 2536.89 178.266 Q2540.94 177.213 2544.91 175.106 L2544.91 182.155 Q2540.9 183.856 2536.68 184.748 Q2532.47 185.639 2528.14 185.639 Q2517.28 185.639 2510.92 179.319 Q2504.6 173 2504.6 162.225 Q2504.6 151.085 2510.6 144.563 Q2516.63 138 2526.84 138 Q2536 138 2541.3 143.914 Q2546.65 149.788 2546.65 159.916 M2539.2 157.728 Q2539.11 151.611 2535.75 147.965 Q2532.43 144.32 2526.92 144.32 Q2520.68 144.32 2516.92 147.844 Q2513.19 151.368 2512.62 157.769 L2539.2 157.728 Z" fill="#000000" fill-rule="nonzero" fill-opacity="1" /><path clip-path="url(#clip140)" d="M2566.26 126.212 L2566.26 139.094 L2581.61 139.094 L2581.61 144.887 L2566.26 144.887 L2566.26 169.516 Q2566.26 175.066 2567.75 176.646 Q2569.29 178.226 2573.95 178.226 L2581.61 178.226 L2581.61 184.464 L2573.95 184.464 Q2565.32 184.464 2562.04 181.264 Q2558.76 178.023 2558.76 169.516 L2558.76 144.887 L2553.29 144.887 L2553.29 139.094 L2558.76 139.094 L2558.76 126.212 L2566.26 126.212 Z" fill="#000000" fill-rule="nonzero" fill-opacity="1" /><polyline clip-path="url(#clip142)" style="stroke:#ffa500; stroke-linecap:round; stroke-linejoin:round; stroke-width:6; stroke-opacity:1; fill:none" points="438.026,2090.53 1062.53,1714.73 1843.17,1252.53 3404.44,300.641 "/>
<path clip-path="url(#clip142)" d="M438.026 2074.53 L422.026 2106.53 L454.026 2106.53 L438.026 2074.53 Z" fill="#ffa500" fill-rule="evenodd" fill-opacity="1" stroke="none"/>
<path clip-path="url(#clip142)" d="M1062.53 1698.73 L1046.53 1730.73 L1078.53 1730.73 L1062.53 1698.73 Z" fill="#ffa500" fill-rule="evenodd" fill-opacity="1" stroke="none"/>
<path clip-path="url(#clip142)" d="M1843.17 1236.53 L1827.17 1268.53 L1859.17 1268.53 L1843.17 1236.53 Z" fill="#ffa500" fill-rule="evenodd" fill-opacity="1" stroke="none"/>
<path clip-path="url(#clip142)" d="M3404.44 284.641 L3388.44 316.641 L3420.44 316.641 L3404.44 284.641 Z" fill="#ffa500" fill-rule="evenodd" fill-opacity="1" stroke="none"/>
<polyline clip-path="url(#clip142)" style="stroke:#00ffff; stroke-linecap:round; stroke-linejoin:round; stroke-width:6; stroke-opacity:1; fill:none" points="438.026,1759.26 1062.53,1673.73 1843.17,1413.68 3404.44,789.598 "/>
<path clip-path="url(#clip142)" d="M438.026 1775.26 L424.17 1767.26 L424.17 1751.26 L438.026 1743.26 L451.882 1751.26 L451.882 1767.26 Z" fill="#00ffff" fill-rule="evenodd" fill-opacity="1" stroke="none"/>
<path clip-path="url(#clip142)" d="M1062.53 1689.73 L1048.68 1681.73 L1048.68 1665.73 L1062.53 1657.73 L1076.39 1665.73 L1076.39 1681.73 Z" fill="#00ffff" fill-rule="evenodd" fill-opacity="1" stroke="none"/>
<path clip-path="url(#clip142)" d="M1843.17 1429.68 L1829.31 1421.68 L1829.31 1405.68 L1843.17 1397.68 L1857.02 1405.68 L1857.02 1421.68 Z" fill="#00ffff" fill-rule="evenodd" fill-opacity="1" stroke="none"/>
<path clip-path="url(#clip142)" d="M3404.44 805.598 L3390.58 797.598 L3390.58 781.598 L3404.44 773.598 L3418.29 781.598 L3418.29 797.598 Z" fill="#00ffff" fill-rule="evenodd" fill-opacity="1" stroke="none"/>
<path clip-path="url(#clip140)" d="M2680.69 2080.98 L3443.99 2080.98 L3443.99 1925.46 L2680.69 1925.46  Z" fill="#ffffff" fill-rule="evenodd" fill-opacity="1"/>
<polyline clip-path="url(#clip140)" style="stroke:#000000; stroke-linecap:round; stroke-linejoin:round; stroke-width:4; stroke-opacity:1; fill:none" points="2680.69,2080.98 3443.99,2080.98 3443.99,1925.46 2680.69,1925.46 2680.69,2080.98 "/>
<polyline clip-path="url(#clip140)" style="stroke:#ffa500; stroke-linecap:round; stroke-linejoin:round; stroke-width:6; stroke-opacity:1; fill:none" points="2716.95,1977.3 2934.49,1977.3 "/>
<path clip-path="url(#clip140)" d="M2825.72 1951.7 L2800.12 2002.9 L2851.32 2002.9 L2825.72 1951.7 Z" fill="#ffa500" fill-rule="evenodd" fill-opacity="1" stroke="none"/>
<path clip-path="url(#clip140)" d="M2981.37 1958.61 Q2978.27 1963.93 2976.76 1969.14 Q2975.26 1974.35 2975.26 1979.7 Q2975.26 1985.04 2976.76 1990.3 Q2978.29 1995.53 2981.37 2000.83 L2977.66 2000.83 Q2974.19 1995.39 2972.46 1990.14 Q2970.74 1984.88 2970.74 1979.7 Q2970.74 1974.54 2972.46 1969.3 Q2974.17 1964.07 2977.66 1958.61 L2981.37 1958.61 Z" fill="#000000" fill-rule="nonzero" fill-opacity="1" /><path clip-path="url(#clip140)" d="M3011.81 1980.55 L3011.81 1982.64 L2992.22 1982.64 Q2992.5 1987.04 2994.86 1989.35 Q2997.25 1991.64 3001.48 1991.64 Q3003.94 1991.64 3006.23 1991.04 Q3008.54 1990.44 3010.81 1989.23 L3010.81 1993.26 Q3008.52 1994.23 3006.11 1994.74 Q3003.71 1995.25 3001.23 1995.25 Q2995.03 1995.25 2991.39 1991.64 Q2987.78 1988.03 2987.78 1981.87 Q2987.78 1975.51 2991.21 1971.78 Q2994.65 1968.03 3000.49 1968.03 Q3005.72 1968.03 3008.75 1971.41 Q3011.81 1974.77 3011.81 1980.55 M3007.55 1979.3 Q3007.5 1975.81 3005.58 1973.73 Q3003.68 1971.64 3000.53 1971.64 Q2996.97 1971.64 2994.82 1973.66 Q2992.69 1975.67 2992.36 1979.33 L3007.55 1979.3 Z" fill="#000000" fill-rule="nonzero" fill-opacity="1" /><path clip-path="url(#clip140)" d="M3039.52 1968.66 L3030.14 1981.27 L3040 1994.58 L3034.98 1994.58 L3027.43 1984.4 L3019.89 1994.58 L3014.86 1994.58 L3024.93 1981.02 L3015.72 1968.66 L3020.74 1968.66 L3027.62 1977.89 L3034.49 1968.66 L3039.52 1968.66 Z" fill="#000000" fill-rule="nonzero" fill-opacity="1" /><path clip-path="url(#clip140)" d="M3057.8 1981.55 Q3052.64 1981.55 3050.65 1982.73 Q3048.66 1983.91 3048.66 1986.76 Q3048.66 1989.03 3050.14 1990.37 Q3051.65 1991.69 3054.21 1991.69 Q3057.76 1991.69 3059.89 1989.19 Q3062.04 1986.67 3062.04 1982.5 L3062.04 1981.55 L3057.8 1981.55 M3066.3 1979.79 L3066.3 1994.58 L3062.04 1994.58 L3062.04 1990.65 Q3060.58 1993.01 3058.4 1994.14 Q3056.23 1995.25 3053.08 1995.25 Q3049.1 1995.25 3046.74 1993.03 Q3044.4 1990.79 3044.4 1987.04 Q3044.4 1982.66 3047.32 1980.44 Q3050.26 1978.22 3056.07 1978.22 L3062.04 1978.22 L3062.04 1977.8 Q3062.04 1974.86 3060.09 1973.26 Q3058.17 1971.64 3054.68 1971.64 Q3052.46 1971.64 3050.35 1972.17 Q3048.24 1972.71 3046.3 1973.77 L3046.3 1969.84 Q3048.64 1968.93 3050.84 1968.49 Q3053.03 1968.03 3055.12 1968.03 Q3060.74 1968.03 3063.52 1970.95 Q3066.3 1973.86 3066.3 1979.79 Z" fill="#000000" fill-rule="nonzero" fill-opacity="1" /><path clip-path="url(#clip140)" d="M3076.16 1988.7 L3081.04 1988.7 L3081.04 1992.68 L3077.25 2000.09 L3074.26 2000.09 L3076.16 1992.68 L3076.16 1988.7 Z" fill="#000000" fill-rule="nonzero" fill-opacity="1" /><path clip-path="url(#clip140)" d="M3125.39 1973.63 Q3126.99 1970.76 3129.21 1969.4 Q3131.44 1968.03 3134.45 1968.03 Q3138.5 1968.03 3140.7 1970.88 Q3142.89 1973.7 3142.89 1978.93 L3142.89 1994.58 L3138.61 1994.58 L3138.61 1979.07 Q3138.61 1975.35 3137.29 1973.54 Q3135.97 1971.73 3133.27 1971.73 Q3129.96 1971.73 3128.03 1973.93 Q3126.11 1976.13 3126.11 1979.93 L3126.11 1994.58 L3121.83 1994.58 L3121.83 1979.07 Q3121.83 1975.32 3120.51 1973.54 Q3119.19 1971.73 3116.44 1971.73 Q3113.17 1971.73 3111.25 1973.96 Q3109.33 1976.16 3109.33 1979.93 L3109.33 1994.58 L3105.05 1994.58 L3105.05 1968.66 L3109.33 1968.66 L3109.33 1972.68 Q3110.79 1970.3 3112.83 1969.17 Q3114.86 1968.03 3117.66 1968.03 Q3120.49 1968.03 3122.46 1969.47 Q3124.45 1970.9 3125.39 1973.63 Z" fill="#000000" fill-rule="nonzero" fill-opacity="1" /><path clip-path="url(#clip140)" d="M3163.17 1981.55 Q3158.01 1981.55 3156.02 1982.73 Q3154.03 1983.91 3154.03 1986.76 Q3154.03 1989.03 3155.51 1990.37 Q3157.02 1991.69 3159.58 1991.69 Q3163.13 1991.69 3165.26 1989.19 Q3167.41 1986.67 3167.41 1982.5 L3167.41 1981.55 L3163.17 1981.55 M3171.67 1979.79 L3171.67 1994.58 L3167.41 1994.58 L3167.41 1990.65 Q3165.95 1993.01 3163.77 1994.14 Q3161.6 1995.25 3158.45 1995.25 Q3154.47 1995.25 3152.11 1993.03 Q3149.77 1990.79 3149.77 1987.04 Q3149.77 1982.66 3152.69 1980.44 Q3155.63 1978.22 3161.44 1978.22 L3167.41 1978.22 L3167.41 1977.8 Q3167.41 1974.86 3165.46 1973.26 Q3163.54 1971.64 3160.05 1971.64 Q3157.83 1971.64 3155.72 1972.17 Q3153.61 1972.71 3151.67 1973.77 L3151.67 1969.84 Q3154.01 1968.93 3156.2 1968.49 Q3158.4 1968.03 3160.49 1968.03 Q3166.11 1968.03 3168.89 1970.95 Q3171.67 1973.86 3171.67 1979.79 Z" fill="#000000" fill-rule="nonzero" fill-opacity="1" /><path clip-path="url(#clip140)" d="M3197.5 1972.59 L3197.5 1958.56 L3201.76 1958.56 L3201.76 1994.58 L3197.5 1994.58 L3197.5 1990.69 Q3196.16 1993.01 3194.1 1994.14 Q3192.06 1995.25 3189.19 1995.25 Q3184.49 1995.25 3181.53 1991.5 Q3178.59 1987.75 3178.59 1981.64 Q3178.59 1975.53 3181.53 1971.78 Q3184.49 1968.03 3189.19 1968.03 Q3192.06 1968.03 3194.1 1969.17 Q3196.16 1970.28 3197.5 1972.59 M3182.99 1981.64 Q3182.99 1986.34 3184.91 1989.03 Q3186.85 1991.69 3190.23 1991.69 Q3193.61 1991.69 3195.56 1989.03 Q3197.5 1986.34 3197.5 1981.64 Q3197.5 1976.94 3195.56 1974.28 Q3193.61 1971.6 3190.23 1971.6 Q3186.85 1971.6 3184.91 1974.28 Q3182.99 1976.94 3182.99 1981.64 Z" fill="#000000" fill-rule="nonzero" fill-opacity="1" /><path clip-path="url(#clip140)" d="M3232.08 1978.93 L3232.08 1994.58 L3227.82 1994.58 L3227.82 1979.07 Q3227.82 1975.39 3226.39 1973.56 Q3224.95 1971.73 3222.08 1971.73 Q3218.64 1971.73 3216.64 1973.93 Q3214.65 1976.13 3214.65 1979.93 L3214.65 1994.58 L3210.37 1994.58 L3210.37 1968.66 L3214.65 1968.66 L3214.65 1972.68 Q3216.18 1970.35 3218.24 1969.19 Q3220.33 1968.03 3223.03 1968.03 Q3227.5 1968.03 3229.79 1970.81 Q3232.08 1973.56 3232.08 1978.93 Z" fill="#000000" fill-rule="nonzero" fill-opacity="1" /><path clip-path="url(#clip140)" d="M3240.58 1958.56 L3244.84 1958.56 L3244.84 1994.58 L3240.58 1994.58 L3240.58 1958.56 Z" fill="#000000" fill-rule="nonzero" fill-opacity="1" /><path clip-path="url(#clip140)" d="M3257.87 1990.69 L3257.87 2004.44 L3253.59 2004.44 L3253.59 1968.66 L3257.87 1968.66 L3257.87 1972.59 Q3259.21 1970.28 3261.25 1969.17 Q3263.31 1968.03 3266.16 1968.03 Q3270.88 1968.03 3273.82 1971.78 Q3276.78 1975.53 3276.78 1981.64 Q3276.78 1987.75 3273.82 1991.5 Q3270.88 1995.25 3266.16 1995.25 Q3263.31 1995.25 3261.25 1994.14 Q3259.21 1993.01 3257.87 1990.69 M3272.36 1981.64 Q3272.36 1976.94 3270.42 1974.28 Q3268.5 1971.6 3265.12 1971.6 Q3261.74 1971.6 3259.79 1974.28 Q3257.87 1976.94 3257.87 1981.64 Q3257.87 1986.34 3259.79 1989.03 Q3261.74 1991.69 3265.12 1991.69 Q3268.5 1991.69 3270.42 1989.03 Q3272.36 1986.34 3272.36 1981.64 Z" fill="#000000" fill-rule="nonzero" fill-opacity="1" /><path clip-path="url(#clip140)" d="M3283.17 1958.61 L3286.88 1958.61 Q3290.35 1964.07 3292.06 1969.3 Q3293.8 1974.54 3293.8 1979.7 Q3293.8 1984.88 3292.06 1990.14 Q3290.35 1995.39 3286.88 2000.83 L3283.17 2000.83 Q3286.25 1995.53 3287.76 1990.3 Q3289.28 1985.04 3289.28 1979.7 Q3289.28 1974.35 3287.76 1969.14 Q3286.25 1963.93 3283.17 1958.61 Z" fill="#000000" fill-rule="nonzero" fill-opacity="1" /><polyline clip-path="url(#clip140)" style="stroke:#00ffff; stroke-linecap:round; stroke-linejoin:round; stroke-width:6; stroke-opacity:1; fill:none" points="2716.95,2029.14 2934.49,2029.14 "/>
<path clip-path="url(#clip140)" d="M2825.72 2054.74 L2803.55 2041.94 L2803.55 2016.34 L2825.72 2003.54 L2847.89 2016.34 L2847.89 2041.94 Z" fill="#00ffff" fill-rule="evenodd" fill-opacity="1" stroke="none"/>
<path clip-path="url(#clip140)" d="M2981.37 2010.45 Q2978.27 2015.77 2976.76 2020.98 Q2975.26 2026.19 2975.26 2031.54 Q2975.26 2036.88 2976.76 2042.14 Q2978.29 2047.37 2981.37 2052.67 L2977.66 2052.67 Q2974.19 2047.23 2972.46 2041.98 Q2970.74 2036.72 2970.74 2031.54 Q2970.74 2026.38 2972.46 2021.14 Q2974.17 2015.91 2977.66 2010.45 L2981.37 2010.45 Z" fill="#000000" fill-rule="nonzero" fill-opacity="1" /><path clip-path="url(#clip140)" d="M3011.81 2032.39 L3011.81 2034.48 L2992.22 2034.48 Q2992.5 2038.88 2994.86 2041.19 Q2997.25 2043.48 3001.48 2043.48 Q3003.94 2043.48 3006.23 2042.88 Q3008.54 2042.28 3010.81 2041.07 L3010.81 2045.1 Q3008.52 2046.07 3006.11 2046.58 Q3003.71 2047.09 3001.23 2047.09 Q2995.03 2047.09 2991.39 2043.48 Q2987.78 2039.87 2987.78 2033.71 Q2987.78 2027.35 2991.21 2023.62 Q2994.65 2019.87 3000.49 2019.87 Q3005.72 2019.87 3008.75 2023.25 Q3011.81 2026.61 3011.81 2032.39 M3007.55 2031.14 Q3007.5 2027.65 3005.58 2025.57 Q3003.68 2023.48 3000.53 2023.48 Q2996.97 2023.48 2994.82 2025.5 Q2992.69 2027.51 2992.36 2031.17 L3007.55 2031.14 Z" fill="#000000" fill-rule="nonzero" fill-opacity="1" /><path clip-path="url(#clip140)" d="M3039.52 2020.5 L3030.14 2033.11 L3040 2046.42 L3034.98 2046.42 L3027.43 2036.24 L3019.89 2046.42 L3014.86 2046.42 L3024.93 2032.86 L3015.72 2020.5 L3020.74 2020.5 L3027.62 2029.73 L3034.49 2020.5 L3039.52 2020.5 Z" fill="#000000" fill-rule="nonzero" fill-opacity="1" /><path clip-path="url(#clip140)" d="M3057.8 2033.39 Q3052.64 2033.39 3050.65 2034.57 Q3048.66 2035.75 3048.66 2038.6 Q3048.66 2040.87 3050.14 2042.21 Q3051.65 2043.53 3054.21 2043.53 Q3057.76 2043.53 3059.89 2041.03 Q3062.04 2038.51 3062.04 2034.34 L3062.04 2033.39 L3057.8 2033.39 M3066.3 2031.63 L3066.3 2046.42 L3062.04 2046.42 L3062.04 2042.49 Q3060.58 2044.85 3058.4 2045.98 Q3056.23 2047.09 3053.08 2047.09 Q3049.1 2047.09 3046.74 2044.87 Q3044.4 2042.63 3044.4 2038.88 Q3044.4 2034.5 3047.32 2032.28 Q3050.26 2030.06 3056.07 2030.06 L3062.04 2030.06 L3062.04 2029.64 Q3062.04 2026.7 3060.09 2025.1 Q3058.17 2023.48 3054.68 2023.48 Q3052.46 2023.48 3050.35 2024.01 Q3048.24 2024.55 3046.3 2025.61 L3046.3 2021.68 Q3048.64 2020.77 3050.84 2020.33 Q3053.03 2019.87 3055.12 2019.87 Q3060.74 2019.87 3063.52 2022.79 Q3066.3 2025.7 3066.3 2031.63 Z" fill="#000000" fill-rule="nonzero" fill-opacity="1" /><path clip-path="url(#clip140)" d="M3094.77 2054.29 L3094.77 2057.6 L3070.14 2057.6 L3070.14 2054.29 L3094.77 2054.29 Z" fill="#000000" fill-rule="nonzero" fill-opacity="1" /><path clip-path="url(#clip140)" d="M3115.83 2033.16 Q3115.83 2028.53 3113.91 2025.98 Q3112.02 2023.44 3108.57 2023.44 Q3105.14 2023.44 3103.22 2025.98 Q3101.32 2028.53 3101.32 2033.16 Q3101.32 2037.76 3103.22 2040.31 Q3105.14 2042.86 3108.57 2042.86 Q3112.02 2042.86 3113.91 2040.31 Q3115.83 2037.76 3115.83 2033.16 M3120.09 2043.2 Q3120.09 2049.82 3117.15 2053.04 Q3114.21 2056.28 3108.15 2056.28 Q3105.9 2056.28 3103.91 2055.94 Q3101.92 2055.61 3100.05 2054.92 L3100.05 2050.77 Q3101.92 2051.79 3103.75 2052.28 Q3105.58 2052.76 3107.48 2052.76 Q3111.67 2052.76 3113.75 2050.57 Q3115.83 2048.39 3115.83 2043.97 L3115.83 2041.86 Q3114.52 2044.15 3112.46 2045.29 Q3110.4 2046.42 3107.52 2046.42 Q3102.76 2046.42 3099.84 2042.79 Q3096.92 2039.15 3096.92 2033.16 Q3096.92 2027.14 3099.84 2023.51 Q3102.76 2019.87 3107.52 2019.87 Q3110.4 2019.87 3112.46 2021.01 Q3114.52 2022.14 3115.83 2024.43 L3115.83 2020.5 L3120.09 2020.5 L3120.09 2043.2 Z" fill="#000000" fill-rule="nonzero" fill-opacity="1" /><path clip-path="url(#clip140)" d="M3132.99 2042.53 L3132.99 2056.28 L3128.71 2056.28 L3128.71 2020.5 L3132.99 2020.5 L3132.99 2024.43 Q3134.33 2022.12 3136.37 2021.01 Q3138.43 2019.87 3141.27 2019.87 Q3146 2019.87 3148.94 2023.62 Q3151.9 2027.37 3151.9 2033.48 Q3151.9 2039.59 3148.94 2043.34 Q3146 2047.09 3141.27 2047.09 Q3138.43 2047.09 3136.37 2045.98 Q3134.33 2044.85 3132.99 2042.53 M3147.48 2033.48 Q3147.48 2028.78 3145.53 2026.12 Q3143.61 2023.44 3140.23 2023.44 Q3136.85 2023.44 3134.91 2026.12 Q3132.99 2028.78 3132.99 2033.48 Q3132.99 2038.18 3134.91 2040.87 Q3136.85 2043.53 3140.23 2043.53 Q3143.61 2043.53 3145.53 2040.87 Q3147.48 2038.18 3147.48 2033.48 Z" fill="#000000" fill-rule="nonzero" fill-opacity="1" /><path clip-path="url(#clip140)" d="M3158.52 2036.19 L3158.52 2020.5 L3162.78 2020.5 L3162.78 2036.03 Q3162.78 2039.71 3164.21 2041.56 Q3165.65 2043.39 3168.52 2043.39 Q3171.97 2043.39 3173.96 2041.19 Q3175.97 2038.99 3175.97 2035.2 L3175.97 2020.5 L3180.23 2020.5 L3180.23 2046.42 L3175.97 2046.42 L3175.97 2042.44 Q3174.42 2044.8 3172.36 2045.96 Q3170.33 2047.09 3167.62 2047.09 Q3163.15 2047.09 3160.83 2044.32 Q3158.52 2041.54 3158.52 2036.19 M3169.24 2019.87 L3169.24 2019.87 Z" fill="#000000" fill-rule="nonzero" fill-opacity="1" /><path clip-path="url(#clip140)" d="M3190.09 2040.54 L3194.98 2040.54 L3194.98 2044.52 L3191.18 2051.93 L3188.2 2051.93 L3190.09 2044.52 L3190.09 2040.54 Z" fill="#000000" fill-rule="nonzero" fill-opacity="1" /><path clip-path="url(#clip140)" d="M3239.33 2025.47 Q3240.93 2022.6 3243.15 2021.24 Q3245.37 2019.87 3248.38 2019.87 Q3252.43 2019.87 3254.63 2022.72 Q3256.83 2025.54 3256.83 2030.77 L3256.83 2046.42 L3252.55 2046.42 L3252.55 2030.91 Q3252.55 2027.19 3251.23 2025.38 Q3249.91 2023.57 3247.2 2023.57 Q3243.89 2023.57 3241.97 2025.77 Q3240.05 2027.97 3240.05 2031.77 L3240.05 2046.42 L3235.76 2046.42 L3235.76 2030.91 Q3235.76 2027.16 3234.45 2025.38 Q3233.13 2023.57 3230.37 2023.57 Q3227.11 2023.57 3225.19 2025.8 Q3223.26 2028 3223.26 2031.77 L3223.26 2046.42 L3218.98 2046.42 L3218.98 2020.5 L3223.26 2020.5 L3223.26 2024.52 Q3224.72 2022.14 3226.76 2021.01 Q3228.8 2019.87 3231.6 2019.87 Q3234.42 2019.87 3236.39 2021.31 Q3238.38 2022.74 3239.33 2025.47 Z" fill="#000000" fill-rule="nonzero" fill-opacity="1" /><path clip-path="url(#clip140)" d="M3277.11 2033.39 Q3271.95 2033.39 3269.95 2034.57 Q3267.96 2035.75 3267.96 2038.6 Q3267.96 2040.87 3269.45 2042.21 Q3270.95 2043.53 3273.52 2043.53 Q3277.06 2043.53 3279.19 2041.03 Q3281.34 2038.51 3281.34 2034.34 L3281.34 2033.39 L3277.11 2033.39 M3285.6 2031.63 L3285.6 2046.42 L3281.34 2046.42 L3281.34 2042.49 Q3279.88 2044.85 3277.71 2045.98 Q3275.53 2047.09 3272.38 2047.09 Q3268.4 2047.09 3266.04 2044.87 Q3263.7 2042.63 3263.7 2038.88 Q3263.7 2034.5 3266.62 2032.28 Q3269.56 2030.06 3275.37 2030.06 L3281.34 2030.06 L3281.34 2029.64 Q3281.34 2026.7 3279.4 2025.1 Q3277.48 2023.48 3273.98 2023.48 Q3271.76 2023.48 3269.65 2024.01 Q3267.55 2024.55 3265.6 2025.61 L3265.6 2021.68 Q3267.94 2020.77 3270.14 2020.33 Q3272.34 2019.87 3274.42 2019.87 Q3280.05 2019.87 3282.82 2022.79 Q3285.6 2025.7 3285.6 2031.63 Z" fill="#000000" fill-rule="nonzero" fill-opacity="1" /><path clip-path="url(#clip140)" d="M3311.44 2024.43 L3311.44 2010.4 L3315.69 2010.4 L3315.69 2046.42 L3311.44 2046.42 L3311.44 2042.53 Q3310.09 2044.85 3308.03 2045.98 Q3306 2047.09 3303.13 2047.09 Q3298.43 2047.09 3295.46 2043.34 Q3292.52 2039.59 3292.52 2033.48 Q3292.52 2027.37 3295.46 2023.62 Q3298.43 2019.87 3303.13 2019.87 Q3306 2019.87 3308.03 2021.01 Q3310.09 2022.12 3311.44 2024.43 M3296.92 2033.48 Q3296.92 2038.18 3298.84 2040.87 Q3300.79 2043.53 3304.17 2043.53 Q3307.55 2043.53 3309.49 2040.87 Q3311.44 2038.18 3311.44 2033.48 Q3311.44 2028.78 3309.49 2026.12 Q3307.55 2023.44 3304.17 2023.44 Q3300.79 2023.44 3298.84 2026.12 Q3296.92 2028.78 3296.92 2033.48 Z" fill="#000000" fill-rule="nonzero" fill-opacity="1" /><path clip-path="url(#clip140)" d="M3346.02 2030.77 L3346.02 2046.42 L3341.76 2046.42 L3341.76 2030.91 Q3341.76 2027.23 3340.32 2025.4 Q3338.89 2023.57 3336.02 2023.57 Q3332.57 2023.57 3330.58 2025.77 Q3328.59 2027.97 3328.59 2031.77 L3328.59 2046.42 L3324.31 2046.42 L3324.31 2020.5 L3328.59 2020.5 L3328.59 2024.52 Q3330.12 2022.19 3332.18 2021.03 Q3334.26 2019.87 3336.97 2019.87 Q3341.44 2019.87 3343.73 2022.65 Q3346.02 2025.4 3346.02 2030.77 Z" fill="#000000" fill-rule="nonzero" fill-opacity="1" /><path clip-path="url(#clip140)" d="M3354.51 2010.4 L3358.77 2010.4 L3358.77 2046.42 L3354.51 2046.42 L3354.51 2010.4 Z" fill="#000000" fill-rule="nonzero" fill-opacity="1" /><path clip-path="url(#clip140)" d="M3371.81 2042.53 L3371.81 2056.28 L3367.52 2056.28 L3367.52 2020.5 L3371.81 2020.5 L3371.81 2024.43 Q3373.15 2022.12 3375.19 2021.01 Q3377.25 2019.87 3380.09 2019.87 Q3384.81 2019.87 3387.75 2023.62 Q3390.72 2027.37 3390.72 2033.48 Q3390.72 2039.59 3387.75 2043.34 Q3384.81 2047.09 3380.09 2047.09 Q3377.25 2047.09 3375.19 2045.98 Q3373.15 2044.85 3371.81 2042.53 M3386.3 2033.48 Q3386.3 2028.78 3384.35 2026.12 Q3382.43 2023.44 3379.05 2023.44 Q3375.67 2023.44 3373.73 2026.12 Q3371.81 2028.78 3371.81 2033.48 Q3371.81 2038.18 3373.73 2040.87 Q3375.67 2043.53 3379.05 2043.53 Q3382.43 2043.53 3384.35 2040.87 Q3386.3 2038.18 3386.3 2033.48 Z" fill="#000000" fill-rule="nonzero" fill-opacity="1" /><path clip-path="url(#clip140)" d="M3397.11 2010.45 L3400.81 2010.45 Q3404.28 2015.91 3406 2021.14 Q3407.73 2026.38 3407.73 2031.54 Q3407.73 2036.72 3406 2041.98 Q3404.28 2047.23 3400.81 2052.67 L3397.11 2052.67 Q3400.19 2047.37 3401.69 2042.14 Q3403.22 2036.88 3403.22 2031.54 Q3403.22 2026.19 3401.69 2020.98 Q3400.19 2015.77 3397.11 2010.45 Z" fill="#000000" fill-rule="nonzero" fill-opacity="1" /></svg>
