<?xml version="1.0" encoding="utf-8"?>
<svg xmlns="http://www.w3.org/2000/svg" xmlns:xlink="http://www.w3.org/1999/xlink" width="900" height="600" viewBox="0 0 3600 2400">
<defs>
  <clipPath id="clip140">
    <rect x="0" y="0" width="3600" height="2400"/>
  </clipPath>
</defs>
<path clip-path="url(#clip140)" d="M0 2400 L3600 2400 L3600 0 L0 0  Z" fill="#ffffff" fill-rule="evenodd" fill-opacity="1"/>
<defs>
  <clipPath id="clip141">
    <rect x="290" y="246" width="3264" height="1911"/>
  </clipPath>
</defs>
<path clip-path="url(#clip140)" d="M359.716 2156.51 L3552.76 2156.51 L3552.76 246.944 L359.716 246.944  Z" fill="#ffffff" fill-rule="evenodd" fill-opacity="1"/>
<defs>
  <clipPath id="clip142">
    <rect x="359" y="246" width="3194" height="1911"/>
  </clipPath>
</defs>
<polyline clip-path="url(#clip142)" style="stroke:#000000; stroke-linecap:round; stroke-linejoin:round; stroke-width:2; stroke-opacity:0.1; fill:none" points="504.854,2156.51 504.854,246.944 "/>
<polyline clip-path="url(#clip142)" style="stroke:#000000; stroke-linecap:round; stroke-linejoin:round; stroke-width:2; stroke-opacity:0.1; fill:none" points="2157.47,2156.51 2157.47,246.944 "/>
<polyline clip-path="url(#clip142)" style="stroke:#000000; stroke-linecap:round; stroke-linejoin:round; stroke-width:2; stroke-opacity:0.1; fill:none" points="3407.62,2156.51 3407.62,246.944 "/>
<polyline clip-path="url(#clip142)" style="stroke:#000000; stroke-linecap:round; stroke-linejoin:round; stroke-width:2; stroke-opacity:0.1; fill:none" points="359.716,1671.22 3552.76,1671.22 "/>
<polyline clip-path="url(#clip142)" style="stroke:#000000; stroke-linecap:round; stroke-linejoin:round; stroke-width:2; stroke-opacity:0.1; fill:none" points="359.716,1184.04 3552.76,1184.04 "/>
<polyline clip-path="url(#clip142)" style="stroke:#000000; stroke-linecap:round; stroke-linejoin:round; stroke-width:2; stroke-opacity:0.1; fill:none" points="359.716,696.864 3552.76,696.864 "/>
<polyline clip-path="url(#clip140)" style="stroke:#000000; stroke-linecap:round; stroke-linejoin:round; stroke-width:4; stroke-opacity:1; fill:none" points="359.716,2156.51 3552.76,2156.51 "/>
<polyline clip-path="url(#clip140)" style="stroke:#000000; stroke-linecap:round; stroke-linejoin:round; stroke-width:4; stroke-opacity:1; fill:none" points="504.854,2156.51 504.854,2137.61 "/>
<polyline clip-path="url(#clip140)" style="stroke:#000000; stroke-linecap:round; stroke-linejoin:round; stroke-width:4; stroke-opacity:1; fill:none" points="2157.47,2156.51 2157.47,2137.61 "/>
<polyline clip-path="url(#clip140)" style="stroke:#000000; stroke-linecap:round; stroke-linejoin:round; stroke-width:4; stroke-opacity:1; fill:none" points="3407.62,2156.51 3407.62,2137.61 "/>
<path clip-path="url(#clip140)" d="M468.547 2224.57 L484.866 2224.57 L484.866 2228.51 L462.922 2228.51 L462.922 2224.57 Q465.584 2221.82 470.167 2217.19 Q474.774 2212.54 475.954 2211.19 Q478.199 2208.67 479.079 2206.93 Q479.982 2205.17 479.982 2203.48 Q479.982 2200.73 478.037 2198.99 Q476.116 2197.26 473.014 2197.26 Q470.815 2197.26 468.362 2198.02 Q465.931 2198.79 463.153 2200.34 L463.153 2195.61 Q465.977 2194.48 468.431 2193.9 Q470.885 2193.32 472.922 2193.32 Q478.292 2193.32 481.486 2196.01 Q484.681 2198.69 484.681 2203.18 Q484.681 2205.31 483.871 2207.23 Q483.084 2209.13 480.977 2211.73 Q480.399 2212.4 477.297 2215.61 Q474.195 2218.81 468.547 2224.57 Z" fill="#000000" fill-rule="nonzero" fill-opacity="1" /><path clip-path="url(#clip140)" d="M504.681 2197.03 Q501.07 2197.03 499.241 2200.59 Q497.435 2204.13 497.435 2211.26 Q497.435 2218.37 499.241 2221.93 Q501.07 2225.48 504.681 2225.48 Q508.315 2225.48 510.121 2221.93 Q511.949 2218.37 511.949 2211.26 Q511.949 2204.13 510.121 2200.59 Q508.315 2197.03 504.681 2197.03 M504.681 2193.32 Q510.491 2193.32 513.547 2197.93 Q516.625 2202.51 516.625 2211.26 Q516.625 2219.99 513.547 2224.6 Q510.491 2229.18 504.681 2229.18 Q498.871 2229.18 495.792 2224.6 Q492.736 2219.99 492.736 2211.26 Q492.736 2202.51 495.792 2197.93 Q498.871 2193.32 504.681 2193.32 Z" fill="#000000" fill-rule="nonzero" fill-opacity="1" /><path clip-path="url(#clip140)" d="M534.843 2197.03 Q531.232 2197.03 529.403 2200.59 Q527.597 2204.13 527.597 2211.26 Q527.597 2218.37 529.403 2221.93 Q531.232 2225.48 534.843 2225.48 Q538.477 2225.48 540.282 2221.93 Q542.111 2218.37 542.111 2211.26 Q542.111 2204.13 540.282 2200.59 Q538.477 2197.03 534.843 2197.03 M534.843 2193.32 Q540.653 2193.32 543.708 2197.93 Q546.787 2202.51 546.787 2211.26 Q546.787 2219.99 543.708 2224.6 Q540.653 2229.18 534.843 2229.18 Q529.033 2229.18 525.954 2224.6 Q522.898 2219.99 522.898 2211.26 Q522.898 2202.51 525.954 2197.93 Q529.033 2193.32 534.843 2193.32 Z" fill="#000000" fill-rule="nonzero" fill-opacity="1" /><path clip-path="url(#clip140)" d="M2117.08 2193.95 L2135.44 2193.95 L2135.44 2197.88 L2121.37 2197.88 L2121.37 2206.36 Q2122.38 2206.01 2123.4 2205.85 Q2124.42 2205.66 2125.44 2205.66 Q2131.23 2205.66 2134.61 2208.83 Q2137.99 2212 2137.99 2217.42 Q2137.99 2223 2134.51 2226.1 Q2131.04 2229.18 2124.72 2229.18 Q2122.55 2229.18 2120.28 2228.81 Q2118.03 2228.44 2115.63 2227.7 L2115.63 2223 Q2117.71 2224.13 2119.93 2224.69 Q2122.15 2225.24 2124.63 2225.24 Q2128.63 2225.24 2130.97 2223.14 Q2133.31 2221.03 2133.31 2217.42 Q2133.31 2213.81 2130.97 2211.7 Q2128.63 2209.6 2124.63 2209.6 Q2122.76 2209.6 2120.88 2210.01 Q2119.03 2210.43 2117.08 2211.31 L2117.08 2193.95 Z" fill="#000000" fill-rule="nonzero" fill-opacity="1" /><path clip-path="url(#clip140)" d="M2157.2 2197.03 Q2153.59 2197.03 2151.76 2200.59 Q2149.95 2204.13 2149.95 2211.26 Q2149.95 2218.37 2151.76 2221.93 Q2153.59 2225.48 2157.2 2225.48 Q2160.83 2225.48 2162.64 2221.93 Q2164.47 2218.37 2164.47 2211.26 Q2164.47 2204.13 2162.64 2200.59 Q2160.83 2197.03 2157.2 2197.03 M2157.2 2193.32 Q2163.01 2193.32 2166.07 2197.93 Q2169.14 2202.51 2169.14 2211.26 Q2169.14 2219.99 2166.07 2224.6 Q2163.01 2229.18 2157.2 2229.18 Q2151.39 2229.18 2148.31 2224.6 Q2145.26 2219.99 2145.26 2211.26 Q2145.26 2202.51 2148.31 2197.93 Q2151.39 2193.32 2157.2 2193.32 Z" fill="#000000" fill-rule="nonzero" fill-opacity="1" /><path clip-path="url(#clip140)" d="M2187.36 2197.03 Q2183.75 2197.03 2181.92 2200.59 Q2180.12 2204.13 2180.12 2211.26 Q2180.12 2218.37 2181.92 2221.93 Q2183.75 2225.48 2187.36 2225.48 Q2191 2225.48 2192.8 2221.93 Q2194.63 2218.37 2194.63 2211.26 Q2194.63 2204.13 2192.8 2200.59 Q2191 2197.03 2187.36 2197.03 M2187.36 2193.32 Q2193.17 2193.32 2196.23 2197.93 Q2199.31 2202.51 2199.31 2211.26 Q2199.31 2219.99 2196.23 2224.6 Q2193.17 2229.18 2187.36 2229.18 Q2181.55 2229.18 2178.47 2224.6 Q2175.42 2219.99 2175.42 2211.26 Q2175.42 2202.51 2178.47 2197.93 Q2181.55 2193.32 2187.36 2193.32 Z" fill="#000000" fill-rule="nonzero" fill-opacity="1" /><path clip-path="url(#clip140)" d="M3352.14 2224.57 L3359.78 2224.57 L3359.78 2198.21 L3351.47 2199.87 L3351.47 2195.61 L3359.74 2193.95 L3364.41 2193.95 L3364.41 2224.57 L3372.05 2224.57 L3372.05 2228.51 L3352.14 2228.51 L3352.14 2224.57 Z" fill="#000000" fill-rule="nonzero" fill-opacity="1" /><path clip-path="url(#clip140)" d="M3391.5 2197.03 Q3387.88 2197.03 3386.06 2200.59 Q3384.25 2204.13 3384.25 2211.26 Q3384.25 2218.37 3386.06 2221.93 Q3387.88 2225.48 3391.5 2225.48 Q3395.13 2225.48 3396.93 2221.93 Q3398.76 2218.37 3398.76 2211.26 Q3398.76 2204.13 3396.93 2200.59 Q3395.13 2197.03 3391.5 2197.03 M3391.5 2193.32 Q3397.31 2193.32 3400.36 2197.93 Q3403.44 2202.51 3403.44 2211.26 Q3403.44 2219.99 3400.36 2224.6 Q3397.31 2229.18 3391.5 2229.18 Q3385.68 2229.18 3382.61 2224.6 Q3379.55 2219.99 3379.55 2211.26 Q3379.55 2202.51 3382.61 2197.93 Q3385.68 2193.32 3391.5 2193.32 Z" fill="#000000" fill-rule="nonzero" fill-opacity="1" /><path clip-path="url(#clip140)" d="M3421.66 2197.03 Q3418.05 2197.03 3416.22 2200.59 Q3414.41 2204.13 3414.41 2211.26 Q3414.41 2218.37 3416.22 2221.93 Q3418.05 2225.48 3421.66 2225.48 Q3425.29 2225.48 3427.1 2221.93 Q3428.93 2218.37 3428.93 2211.26 Q3428.93 2204.13 3427.1 2200.59 Q3425.29 2197.03 3421.66 2197.03 M3421.66 2193.32 Q3427.47 2193.32 3430.52 2197.93 Q3433.6 2202.51 3433.6 2211.26 Q3433.6 2219.99 3430.52 2224.6 Q3427.47 2229.18 3421.66 2229.18 Q3415.85 2229.18 3412.77 2224.6 Q3409.71 2219.99 3409.71 2211.26 Q3409.71 2202.51 3412.77 2197.93 Q3415.85 2193.32 3421.66 2193.32 Z" fill="#000000" fill-rule="nonzero" fill-opacity="1" /><path clip-path="url(#clip140)" d="M3451.82 2197.03 Q3448.21 2197.03 3446.38 2200.59 Q3444.57 2204.13 3444.57 2211.26 Q3444.57 2218.37 3446.38 2221.93 Q3448.21 2225.48 3451.82 2225.48 Q3455.45 2225.48 3457.26 2221.93 Q3459.09 2218.37 3459.09 2211.26 Q3459.09 2204.13 3457.26 2200.59 Q3455.45 2197.03 3451.82 2197.03 M3451.82 2193.32 Q3457.63 2193.32 3460.68 2197.93 Q3463.76 2202.51 3463.76 2211.26 Q3463.76 2219.99 3460.68 2224.6 Q3457.63 2229.18 3451.82 2229.18 Q3446.01 2229.18 3442.93 2224.6 Q3439.87 2219.99 3439.87 2211.26 Q3439.87 2202.51 3442.93 2197.93 Q3446.01 2193.32 3451.82 2193.32 Z" fill="#000000" fill-rule="nonzero" fill-opacity="1" /><path clip-path="url(#clip140)" d="M1832.12 2308.02 L1832.12 2296.42 L1822.57 2296.42 L1822.57 2291.62 L1837.91 2291.62 L1837.91 2310.17 Q1834.52 2312.57 1830.44 2313.81 Q1826.36 2315.03 1821.73 2315.03 Q1811.6 2315.03 1805.88 2309.12 Q1800.17 2303.19 1800.17 2292.63 Q1800.17 2282.04 1805.88 2276.14 Q1811.6 2270.21 1821.73 2270.21 Q1825.96 2270.21 1829.75 2271.25 Q1833.57 2272.29 1836.78 2274.32 L1836.78 2280.54 Q1833.54 2277.79 1829.89 2276.4 Q1826.25 2275.01 1822.22 2275.01 Q1814.3 2275.01 1810.3 2279.44 Q1806.34 2283.86 1806.34 2292.63 Q1806.34 2301.37 1810.3 2305.8 Q1814.3 2310.22 1822.22 2310.22 Q1825.32 2310.22 1827.75 2309.7 Q1830.18 2309.15 1832.12 2308.02 Z" fill="#000000" fill-rule="nonzero" fill-opacity="1" /><path clip-path="url(#clip140)" d="M1867.13 2286.76 Q1866.23 2286.24 1865.16 2286 Q1864.12 2285.74 1862.85 2285.74 Q1858.33 2285.74 1855.9 2288.7 Q1853.5 2291.62 1853.5 2297.12 L1853.5 2314.19 L1848.15 2314.19 L1848.15 2281.78 L1853.5 2281.78 L1853.5 2286.82 Q1855.18 2283.86 1857.87 2282.45 Q1860.56 2281 1864.41 2281 Q1864.96 2281 1865.63 2281.09 Q1866.29 2281.14 1867.1 2281.29 L1867.13 2286.76 Z" fill="#000000" fill-rule="nonzero" fill-opacity="1" /><path clip-path="url(#clip140)" d="M1872.72 2281.78 L1878.04 2281.78 L1878.04 2314.19 L1872.72 2314.19 L1872.72 2281.78 M1872.72 2269.16 L1878.04 2269.16 L1878.04 2275.91 L1872.72 2275.91 L1872.72 2269.16 Z" fill="#000000" fill-rule="nonzero" fill-opacity="1" /><path clip-path="url(#clip140)" d="M1910.5 2286.7 L1910.5 2269.16 L1915.83 2269.16 L1915.83 2314.19 L1910.5 2314.19 L1910.5 2309.33 Q1908.83 2312.22 1906.25 2313.64 Q1903.7 2315.03 1900.12 2315.03 Q1894.24 2315.03 1890.54 2310.34 Q1886.86 2305.65 1886.86 2298.01 Q1886.86 2290.37 1890.54 2285.69 Q1894.24 2281 1900.12 2281 Q1903.7 2281 1906.25 2282.42 Q1908.83 2283.81 1910.5 2286.7 M1892.36 2298.01 Q1892.36 2303.89 1894.76 2307.24 Q1897.19 2310.57 1901.42 2310.57 Q1905.64 2310.57 1908.07 2307.24 Q1910.5 2303.89 1910.5 2298.01 Q1910.5 2292.14 1908.07 2288.81 Q1905.64 2285.46 1901.42 2285.46 Q1897.19 2285.46 1894.76 2288.81 Q1892.36 2292.14 1892.36 2298.01 Z" fill="#000000" fill-rule="nonzero" fill-opacity="1" /><path clip-path="url(#clip140)" d="M1966.29 2282.74 L1966.29 2287.77 Q1964.03 2286.61 1961.6 2286.03 Q1959.17 2285.46 1956.57 2285.46 Q1952.6 2285.46 1950.61 2286.67 Q1948.64 2287.89 1948.64 2290.32 Q1948.64 2292.17 1950.06 2293.24 Q1951.48 2294.28 1955.76 2295.24 L1957.58 2295.64 Q1963.25 2296.86 1965.63 2299.08 Q1968.03 2301.28 1968.03 2305.25 Q1968.03 2309.76 1964.44 2312.39 Q1960.88 2315.03 1954.63 2315.03 Q1952.03 2315.03 1949.19 2314.51 Q1946.38 2314.01 1943.26 2313 L1943.26 2307.5 Q1946.21 2309.04 1949.07 2309.82 Q1951.94 2310.57 1954.75 2310.57 Q1958.51 2310.57 1960.53 2309.3 Q1962.56 2308 1962.56 2305.65 Q1962.56 2303.48 1961.08 2302.32 Q1959.64 2301.17 1954.69 2300.1 L1952.84 2299.66 Q1947.89 2298.62 1945.69 2296.48 Q1943.49 2294.31 1943.49 2290.55 Q1943.49 2285.98 1946.73 2283.49 Q1949.97 2281 1955.93 2281 Q1958.88 2281 1961.49 2281.43 Q1964.09 2281.87 1966.29 2282.74 Z" fill="#000000" fill-rule="nonzero" fill-opacity="1" /><path clip-path="url(#clip140)" d="M1976.51 2281.78 L1981.83 2281.78 L1981.83 2314.19 L1976.51 2314.19 L1976.51 2281.78 M1976.51 2269.16 L1981.83 2269.16 L1981.83 2275.91 L1976.51 2275.91 L1976.51 2269.16 Z" fill="#000000" fill-rule="nonzero" fill-opacity="1" /><path clip-path="url(#clip140)" d="M1990.65 2281.78 L2015.94 2281.78 L2015.94 2286.64 L1995.92 2309.93 L2015.94 2309.93 L2015.94 2314.19 L1989.93 2314.19 L1989.93 2309.33 L2009.95 2286.03 L1990.65 2286.03 L1990.65 2281.78 Z" fill="#000000" fill-rule="nonzero" fill-opacity="1" /><path clip-path="url(#clip140)" d="M2051.79 2296.65 L2051.79 2299.26 L2027.31 2299.26 Q2027.66 2304.75 2030.61 2307.65 Q2033.59 2310.51 2038.89 2310.51 Q2041.96 2310.51 2044.82 2309.76 Q2047.71 2309.01 2050.55 2307.5 L2050.55 2312.54 Q2047.69 2313.75 2044.68 2314.39 Q2041.67 2315.03 2038.57 2315.03 Q2030.82 2315.03 2026.27 2310.51 Q2021.76 2306 2021.76 2298.3 Q2021.76 2290.35 2026.04 2285.69 Q2030.35 2281 2037.64 2281 Q2044.18 2281 2047.97 2285.22 Q2051.79 2289.42 2051.79 2296.65 M2046.47 2295.09 Q2046.41 2290.72 2044.01 2288.12 Q2041.64 2285.51 2037.7 2285.51 Q2033.25 2285.51 2030.56 2288.03 Q2027.89 2290.55 2027.49 2295.12 L2046.47 2295.09 Z" fill="#000000" fill-rule="nonzero" fill-opacity="1" /><path clip-path="url(#clip140)" d="M2079.6 2270.99 L2087.47 2270.99 L2106.63 2307.13 L2106.63 2270.99 L2112.3 2270.99 L2112.3 2314.19 L2104.43 2314.19 L2085.27 2278.05 L2085.27 2314.19 L2079.6 2314.19 L2079.6 2270.99 Z" fill="#000000" fill-rule="nonzero" fill-opacity="1" /><polyline clip-path="url(#clip140)" style="stroke:#000000; stroke-linecap:round; stroke-linejoin:round; stroke-width:4; stroke-opacity:1; fill:none" points="359.716,2156.51 359.716,246.944 "/>
<polyline clip-path="url(#clip140)" style="stroke:#000000; stroke-linecap:round; stroke-linejoin:round; stroke-width:4; stroke-opacity:1; fill:none" points="359.716,1671.22 378.614,1671.22 "/>
<polyline clip-path="url(#clip140)" style="stroke:#000000; stroke-linecap:round; stroke-linejoin:round; stroke-width:4; stroke-opacity:1; fill:none" points="359.716,1184.04 378.614,1184.04 "/>
<polyline clip-path="url(#clip140)" style="stroke:#000000; stroke-linecap:round; stroke-linejoin:round; stroke-width:4; stroke-opacity:1; fill:none" points="359.716,696.864 378.614,696.864 "/>
<path clip-path="url(#clip140)" d="M167.604 1691.02 L175.242 1691.02 L175.242 1664.65 L166.932 1666.32 L166.932 1662.06 L175.196 1660.39 L179.872 1660.39 L179.872 1691.02 L187.511 1691.02 L187.511 1694.95 L167.604 1694.95 L167.604 1691.02 Z" fill="#000000" fill-rule="nonzero" fill-opacity="1" /><path clip-path="url(#clip140)" d="M206.955 1663.47 Q203.344 1663.47 201.515 1667.03 Q199.71 1670.58 199.71 1677.7 Q199.71 1684.81 201.515 1688.38 Q203.344 1691.92 206.955 1691.92 Q210.589 1691.92 212.395 1688.38 Q214.224 1684.81 214.224 1677.7 Q214.224 1670.58 212.395 1667.03 Q210.589 1663.47 206.955 1663.47 M206.955 1659.77 Q212.765 1659.77 215.821 1664.37 Q218.9 1668.95 218.9 1677.7 Q218.9 1686.43 215.821 1691.04 Q212.765 1695.62 206.955 1695.62 Q201.145 1695.62 198.066 1691.04 Q195.011 1686.43 195.011 1677.7 Q195.011 1668.95 198.066 1664.37 Q201.145 1659.77 206.955 1659.77 Z" fill="#000000" fill-rule="nonzero" fill-opacity="1" /><path clip-path="url(#clip140)" d="M218.9 1653.87 L243.011 1653.87 L243.011 1657.06 L218.9 1657.06 L218.9 1653.87 Z" fill="#000000" fill-rule="nonzero" fill-opacity="1" /><path clip-path="url(#clip140)" d="M251.87 1664.34 L258.076 1664.34 L258.076 1642.92 L251.324 1644.27 L251.324 1640.81 L258.039 1639.46 L261.838 1639.46 L261.838 1664.34 L268.044 1664.34 L268.044 1667.54 L251.87 1667.54 L251.87 1664.34 Z" fill="#000000" fill-rule="nonzero" fill-opacity="1" /><path clip-path="url(#clip140)" d="M275.718 1662.76 L279.686 1662.76 L279.686 1667.54 L275.718 1667.54 L275.718 1662.76 Z" fill="#000000" fill-rule="nonzero" fill-opacity="1" /><path clip-path="url(#clip140)" d="M296.087 1654.21 Q293.378 1654.21 291.817 1655.65 Q290.275 1657.1 290.275 1659.64 Q290.275 1662.18 291.817 1663.63 Q293.378 1665.08 296.087 1665.08 Q298.795 1665.08 300.356 1663.63 Q301.917 1662.16 301.917 1659.64 Q301.917 1657.1 300.356 1655.65 Q298.814 1654.21 296.087 1654.21 M292.288 1652.59 Q289.843 1651.99 288.47 1650.31 Q287.115 1648.64 287.115 1646.23 Q287.115 1642.86 289.504 1640.91 Q291.911 1638.95 296.087 1638.95 Q300.281 1638.95 302.669 1640.91 Q305.058 1642.86 305.058 1646.23 Q305.058 1648.64 303.685 1650.31 Q302.331 1651.99 299.905 1652.59 Q302.651 1653.23 304.174 1655.09 Q305.716 1656.95 305.716 1659.64 Q305.716 1663.72 303.215 1665.9 Q300.732 1668.09 296.087 1668.09 Q291.441 1668.09 288.94 1665.9 Q286.457 1663.72 286.457 1659.64 Q286.457 1656.95 287.999 1655.09 Q289.542 1653.23 292.288 1652.59 M290.896 1646.59 Q290.896 1648.77 292.25 1649.99 Q293.623 1651.21 296.087 1651.21 Q298.532 1651.21 299.905 1649.99 Q301.296 1648.77 301.296 1646.59 Q301.296 1644.41 299.905 1643.18 Q298.532 1641.96 296.087 1641.96 Q293.623 1641.96 292.25 1643.18 Q290.896 1644.41 290.896 1646.59 Z" fill="#000000" fill-rule="nonzero" fill-opacity="1" /><path clip-path="url(#clip140)" d="M168.337 1203.84 L175.976 1203.84 L175.976 1177.47 L167.666 1179.14 L167.666 1174.88 L175.93 1173.21 L180.606 1173.21 L180.606 1203.84 L188.244 1203.84 L188.244 1207.77 L168.337 1207.77 L168.337 1203.84 Z" fill="#000000" fill-rule="nonzero" fill-opacity="1" /><path clip-path="url(#clip140)" d="M207.689 1176.29 Q204.078 1176.29 202.249 1179.85 Q200.443 1183.4 200.443 1190.53 Q200.443 1197.63 202.249 1201.2 Q204.078 1204.74 207.689 1204.74 Q211.323 1204.74 213.129 1201.2 Q214.957 1197.63 214.957 1190.53 Q214.957 1183.4 213.129 1179.85 Q211.323 1176.29 207.689 1176.29 M207.689 1172.59 Q213.499 1172.59 216.554 1177.19 Q219.633 1181.78 219.633 1190.53 Q219.633 1199.25 216.554 1203.86 Q213.499 1208.44 207.689 1208.44 Q201.879 1208.44 198.8 1203.86 Q195.744 1199.25 195.744 1190.53 Q195.744 1181.78 198.8 1177.19 Q201.879 1172.59 207.689 1172.59 Z" fill="#000000" fill-rule="nonzero" fill-opacity="1" /><path clip-path="url(#clip140)" d="M219.633 1166.69 L243.745 1166.69 L243.745 1169.88 L219.633 1169.88 L219.633 1166.69 Z" fill="#000000" fill-rule="nonzero" fill-opacity="1" /><path clip-path="url(#clip140)" d="M252.603 1177.16 L258.81 1177.16 L258.81 1155.74 L252.058 1157.1 L252.058 1153.63 L258.772 1152.28 L262.571 1152.28 L262.571 1177.16 L268.778 1177.16 L268.778 1180.36 L252.603 1180.36 L252.603 1177.16 Z" fill="#000000" fill-rule="nonzero" fill-opacity="1" /><path clip-path="url(#clip140)" d="M276.451 1175.58 L280.42 1175.58 L280.42 1180.36 L276.451 1180.36 L276.451 1175.58 Z" fill="#000000" fill-rule="nonzero" fill-opacity="1" /><path clip-path="url(#clip140)" d="M288.733 1152.28 L303.647 1152.28 L303.647 1155.48 L292.212 1155.48 L292.212 1162.36 Q293.04 1162.08 293.867 1161.95 Q294.695 1161.8 295.522 1161.8 Q300.224 1161.8 302.97 1164.37 Q305.716 1166.95 305.716 1171.35 Q305.716 1175.88 302.895 1178.4 Q300.074 1180.91 294.939 1180.91 Q293.171 1180.91 291.328 1180.6 Q289.504 1180.3 287.548 1179.7 L287.548 1175.88 Q289.241 1176.81 291.046 1177.26 Q292.852 1177.71 294.864 1177.71 Q298.118 1177.71 300.018 1176 Q301.917 1174.29 301.917 1171.35 Q301.917 1168.42 300.018 1166.71 Q298.118 1164.99 294.864 1164.99 Q293.341 1164.99 291.817 1165.33 Q290.313 1165.67 288.733 1166.39 L288.733 1152.28 Z" fill="#000000" fill-rule="nonzero" fill-opacity="1" /><path clip-path="url(#clip140)" d="M168.826 716.656 L176.465 716.656 L176.465 690.29 L168.155 691.957 L168.155 687.698 L176.419 686.031 L181.095 686.031 L181.095 716.656 L188.733 716.656 L188.733 720.591 L168.826 720.591 L168.826 716.656 Z" fill="#000000" fill-rule="nonzero" fill-opacity="1" /><path clip-path="url(#clip140)" d="M208.178 689.11 Q204.567 689.11 202.738 692.675 Q200.932 696.216 200.932 703.346 Q200.932 710.452 202.738 714.017 Q204.567 717.559 208.178 717.559 Q211.812 717.559 213.618 714.017 Q215.446 710.452 215.446 703.346 Q215.446 696.216 213.618 692.675 Q211.812 689.11 208.178 689.11 M208.178 685.406 Q213.988 685.406 217.043 690.013 Q220.122 694.596 220.122 703.346 Q220.122 712.073 217.043 716.679 Q213.988 721.262 208.178 721.262 Q202.368 721.262 199.289 716.679 Q196.233 712.073 196.233 703.346 Q196.233 694.596 199.289 690.013 Q202.368 685.406 208.178 685.406 Z" fill="#000000" fill-rule="nonzero" fill-opacity="1" /><path clip-path="url(#clip140)" d="M220.122 679.508 L244.234 679.508 L244.234 682.705 L220.122 682.705 L220.122 679.508 Z" fill="#000000" fill-rule="nonzero" fill-opacity="1" /><path clip-path="url(#clip140)" d="M253.092 689.983 L259.299 689.983 L259.299 668.561 L252.547 669.916 L252.547 666.455 L259.261 665.101 L263.06 665.101 L263.06 689.983 L269.267 689.983 L269.267 693.181 L253.092 693.181 L253.092 689.983 Z" fill="#000000" fill-rule="nonzero" fill-opacity="1" /><path clip-path="url(#clip140)" d="M276.94 688.404 L280.909 688.404 L280.909 693.181 L276.94 693.181 L276.94 688.404 Z" fill="#000000" fill-rule="nonzero" fill-opacity="1" /><path clip-path="url(#clip140)" d="M292.457 689.983 L305.716 689.983 L305.716 693.181 L287.886 693.181 L287.886 689.983 Q290.049 687.745 293.773 683.984 Q297.516 680.203 298.475 679.113 Q300.3 677.063 301.014 675.652 Q301.748 674.223 301.748 672.85 Q301.748 670.611 300.168 669.201 Q298.607 667.79 296.087 667.79 Q294.3 667.79 292.306 668.411 Q290.332 669.032 288.075 670.292 L288.075 666.455 Q290.369 665.533 292.363 665.063 Q294.356 664.593 296.011 664.593 Q300.375 664.593 302.97 666.775 Q305.566 668.956 305.566 672.605 Q305.566 674.335 304.908 675.896 Q304.268 677.439 302.557 679.545 Q302.086 680.091 299.566 682.705 Q297.046 685.3 292.457 689.983 Z" fill="#000000" fill-rule="nonzero" fill-opacity="1" /><path clip-path="url(#clip140)" d="M58.1901 1374.69 L63.8903 1374.69 Q62.2989 1378.01 61.5176 1380.96 Q60.7364 1383.92 60.7364 1386.66 Q60.7364 1391.44 62.5882 1394.04 Q64.4401 1396.62 67.8544 1396.62 Q70.719 1396.62 72.1947 1394.91 Q73.6414 1393.17 74.5384 1388.37 L75.2618 1384.84 Q76.506 1378.3 79.6599 1375.21 Q82.7849 1372.08 88.0511 1372.08 Q94.33 1372.08 97.5707 1376.31 Q100.811 1380.5 100.811 1388.63 Q100.811 1391.7 100.117 1395.17 Q99.4225 1398.61 98.0626 1402.32 L92.0441 1402.32 Q94.0406 1398.76 95.0533 1395.34 Q96.0661 1391.93 96.0661 1388.63 Q96.0661 1383.63 94.0985 1380.91 Q92.1309 1378.19 88.4851 1378.19 Q85.3022 1378.19 83.5083 1380.15 Q81.7143 1382.09 80.8173 1386.55 L80.1229 1390.11 Q78.8208 1396.65 76.043 1399.57 Q73.2653 1402.49 68.3174 1402.49 Q62.5882 1402.49 59.2896 1398.47 Q55.991 1394.42 55.991 1387.33 Q55.991 1384.29 56.5408 1381.14 Q57.0906 1377.98 58.1901 1374.69 Z" fill="#000000" fill-rule="nonzero" fill-opacity="1" /><path clip-path="url(#clip140)" d="M71.2977 1350.64 Q71.2977 1354.92 74.6541 1357.41 Q77.9817 1359.9 83.7976 1359.9 Q89.6135 1359.9 92.97 1357.44 Q96.2975 1354.95 96.2975 1350.64 Q96.2975 1346.39 92.9411 1343.9 Q89.5846 1341.41 83.7976 1341.41 Q78.0395 1341.41 74.6831 1343.9 Q71.2977 1346.39 71.2977 1350.64 M66.7838 1350.64 Q66.7838 1343.7 71.2977 1339.73 Q75.8115 1335.77 83.7976 1335.77 Q91.7547 1335.77 96.2975 1339.73 Q100.811 1343.7 100.811 1350.64 Q100.811 1357.61 96.2975 1361.58 Q91.7547 1365.51 83.7976 1365.51 Q75.8115 1365.51 71.2977 1361.58 Q66.7838 1357.61 66.7838 1350.64 Z" fill="#000000" fill-rule="nonzero" fill-opacity="1" /><path clip-path="url(#clip140)" d="M54.9494 1326.94 L54.9494 1321.62 L99.9723 1321.62 L99.9723 1326.94 L54.9494 1326.94 Z" fill="#000000" fill-rule="nonzero" fill-opacity="1" /><path clip-path="url(#clip140)" d="M67.565 1314.3 L67.565 1308.66 L94.764 1298.53 L67.565 1288.4 L67.565 1282.76 L99.9723 1294.91 L99.9723 1302.15 L67.565 1314.3 Z" fill="#000000" fill-rule="nonzero" fill-opacity="1" /><path clip-path="url(#clip140)" d="M82.4377 1247.69 L85.0418 1247.69 L85.0418 1272.17 Q90.5395 1271.82 93.433 1268.87 Q96.2975 1265.89 96.2975 1260.59 Q96.2975 1257.53 95.5452 1254.66 Q94.7929 1251.77 93.2883 1248.93 L98.323 1248.93 Q99.5383 1251.8 100.175 1254.81 Q100.811 1257.82 100.811 1260.91 Q100.811 1268.67 96.2975 1273.21 Q91.7837 1277.72 84.087 1277.72 Q76.1298 1277.72 71.4713 1273.44 Q66.7838 1269.13 66.7838 1261.84 Q66.7838 1255.3 71.0083 1251.51 Q75.2039 1247.69 82.4377 1247.69 M80.8752 1253.01 Q76.506 1253.07 73.9018 1255.47 Q71.2977 1257.85 71.2977 1261.78 Q71.2977 1266.24 73.815 1268.93 Q76.3324 1271.59 80.9041 1271.99 L80.8752 1253.01 Z" fill="#000000" fill-rule="nonzero" fill-opacity="1" /><path clip-path="url(#clip140)" d="M58.3637 1214.85 L67.565 1214.85 L67.565 1203.88 L71.7028 1203.88 L71.7028 1214.85 L89.2953 1214.85 Q93.2594 1214.85 94.3878 1213.78 Q95.5163 1212.68 95.5163 1209.35 L95.5163 1203.88 L99.9723 1203.88 L99.9723 1209.35 Q99.9723 1215.51 97.6864 1217.86 Q95.3716 1220.2 89.2953 1220.2 L71.7028 1220.2 L71.7028 1224.11 L67.565 1224.11 L67.565 1220.2 L58.3637 1220.2 L58.3637 1214.85 Z" fill="#000000" fill-rule="nonzero" fill-opacity="1" /><path clip-path="url(#clip140)" d="M67.565 1196.88 L67.565 1191.56 L99.9723 1191.56 L99.9723 1196.88 L67.565 1196.88 M54.9494 1196.88 L54.9494 1191.56 L61.6912 1191.56 L61.6912 1196.88 L54.9494 1196.88 Z" fill="#000000" fill-rule="nonzero" fill-opacity="1" /><path clip-path="url(#clip140)" d="M73.7861 1155.18 Q70.1981 1153.19 68.491 1150.41 Q66.7838 1147.63 66.7838 1143.87 Q66.7838 1138.81 70.3428 1136.06 Q73.8729 1133.31 80.4122 1133.31 L99.9723 1133.31 L99.9723 1138.66 L80.5858 1138.66 Q75.9273 1138.66 73.6703 1140.31 Q71.4134 1141.96 71.4134 1145.35 Q71.4134 1149.48 74.1622 1151.89 Q76.9111 1154.29 81.6564 1154.29 L99.9723 1154.29 L99.9723 1159.64 L80.5858 1159.64 Q75.8983 1159.64 73.6703 1161.29 Q71.4134 1162.94 71.4134 1166.38 Q71.4134 1170.46 74.1912 1172.86 Q76.94 1175.26 81.6564 1175.26 L99.9723 1175.26 L99.9723 1180.62 L67.565 1180.62 L67.565 1175.26 L72.5997 1175.26 Q69.6194 1173.44 68.2016 1170.9 Q66.7838 1168.35 66.7838 1164.85 Q66.7838 1161.32 68.5778 1158.86 Q70.3717 1156.37 73.7861 1155.18 Z" fill="#000000" fill-rule="nonzero" fill-opacity="1" /><path clip-path="url(#clip140)" d="M82.4377 1094.97 L85.0418 1094.97 L85.0418 1119.45 Q90.5395 1119.1 93.433 1116.15 Q96.2975 1113.17 96.2975 1107.88 Q96.2975 1104.81 95.5452 1101.94 Q94.7929 1099.05 93.2883 1096.21 L98.323 1096.21 Q99.5383 1099.08 100.175 1102.09 Q100.811 1105.1 100.811 1108.19 Q100.811 1115.95 96.2975 1120.49 Q91.7837 1125 84.087 1125 Q76.1298 1125 71.4713 1120.72 Q66.7838 1116.41 66.7838 1109.12 Q66.7838 1102.58 71.0083 1098.79 Q75.2039 1094.97 82.4377 1094.97 M80.8752 1100.29 Q76.506 1100.35 73.9018 1102.75 Q71.2977 1105.13 71.2977 1109.06 Q71.2977 1113.52 73.815 1116.21 Q76.3324 1118.87 80.9041 1119.28 L80.8752 1100.29 Z" fill="#000000" fill-rule="nonzero" fill-opacity="1" /><path clip-path="url(#clip140)" d="M55.0072 1054.61 Q61.6623 1058.48 68.1727 1060.36 Q74.6831 1062.24 81.3671 1062.24 Q88.0511 1062.24 94.6193 1060.36 Q101.159 1058.45 107.785 1054.61 L107.785 1059.24 Q100.985 1063.58 94.4168 1065.75 Q87.8485 1067.89 81.3671 1067.89 Q74.9145 1067.89 68.3752 1065.75 Q61.8359 1063.6 55.0072 1059.24 L55.0072 1054.61 Z" fill="#000000" fill-rule="nonzero" fill-opacity="1" /><path clip-path="url(#clip140)" d="M68.5199 1023.62 L73.5546 1023.62 Q72.3972 1025.87 71.8185 1028.3 Q71.2398 1030.73 71.2398 1033.34 Q71.2398 1037.3 72.4551 1039.3 Q73.6703 1041.27 76.1009 1041.27 Q77.9527 1041.27 79.0233 1039.85 Q80.065 1038.43 81.0198 1034.15 L81.4249 1032.33 Q82.6402 1026.65 84.8682 1024.28 Q87.0673 1021.88 91.0314 1021.88 Q95.5452 1021.88 98.1783 1025.47 Q100.811 1029.03 100.811 1035.28 Q100.811 1037.88 100.291 1040.72 Q99.7987 1043.52 98.7859 1046.65 L93.2883 1046.65 Q94.8218 1043.7 95.6031 1040.83 Q96.3554 1037.97 96.3554 1035.16 Q96.3554 1031.4 95.0823 1029.37 Q93.7802 1027.35 91.4364 1027.35 Q89.2663 1027.35 88.1089 1028.82 Q86.9515 1030.27 85.8809 1035.22 L85.4469 1037.07 Q84.4052 1042.02 82.264 1044.22 Q80.0939 1046.42 76.3324 1046.42 Q71.7606 1046.42 69.2722 1043.18 Q66.7838 1039.94 66.7838 1033.98 Q66.7838 1031.02 67.2178 1028.42 Q67.6519 1025.82 68.5199 1023.62 Z" fill="#000000" fill-rule="nonzero" fill-opacity="1" /><path clip-path="url(#clip140)" d="M55.0072 1014.24 L55.0072 1009.61 Q61.8359 1005.27 68.3752 1003.13 Q74.9145 1000.96 81.3671 1000.96 Q87.8485 1000.96 94.4168 1003.13 Q100.985 1005.27 107.785 1009.61 L107.785 1014.24 Q101.159 1010.39 94.6193 1008.51 Q88.0511 1006.6 81.3671 1006.6 Q74.6831 1006.6 68.1727 1008.51 Q61.6623 1010.39 55.0072 1014.24 Z" fill="#000000" fill-rule="nonzero" fill-opacity="1" /><path clip-path="url(#clip140)" d="M1133.76 125.969 L1133.76 133.949 Q1129.1 131.721 1124.97 130.627 Q1120.84 129.534 1116.99 129.534 Q1110.31 129.534 1106.66 132.126 Q1103.05 134.719 1103.05 139.499 Q1103.05 143.509 1105.44 145.575 Q1107.88 147.601 1114.6 148.857 L1119.54 149.869 Q1128.7 151.611 1133.03 156.027 Q1137.41 160.402 1137.41 167.774 Q1137.41 176.565 1131.49 181.102 Q1125.62 185.639 1114.24 185.639 Q1109.94 185.639 1105.08 184.667 Q1100.26 183.694 1095.07 181.79 L1095.07 173.365 Q1100.06 176.16 1104.84 177.577 Q1109.62 178.995 1114.24 178.995 Q1121.24 178.995 1125.05 176.241 Q1128.86 173.486 1128.86 168.382 Q1128.86 163.926 1126.1 161.414 Q1123.39 158.903 1117.15 157.647 L1112.17 156.675 Q1103.01 154.852 1098.92 150.963 Q1094.83 147.074 1094.83 140.147 Q1094.83 132.126 1100.46 127.508 Q1106.13 122.89 1116.06 122.89 Q1120.31 122.89 1124.73 123.66 Q1129.14 124.43 1133.76 125.969 Z" fill="#000000" fill-rule="nonzero" fill-opacity="1" /><path clip-path="url(#clip140)" d="M1167.42 144.32 Q1161.43 144.32 1157.94 149.019 Q1154.46 153.677 1154.46 161.819 Q1154.46 169.962 1157.9 174.661 Q1161.39 179.319 1167.42 179.319 Q1173.38 179.319 1176.86 174.62 Q1180.35 169.921 1180.35 161.819 Q1180.35 153.758 1176.86 149.059 Q1173.38 144.32 1167.42 144.32 M1167.42 138 Q1177.15 138 1182.7 144.32 Q1188.25 150.639 1188.25 161.819 Q1188.25 172.959 1182.7 179.319 Q1177.15 185.639 1167.42 185.639 Q1157.66 185.639 1152.11 179.319 Q1146.6 172.959 1146.6 161.819 Q1146.6 150.639 1152.11 144.32 Q1157.66 138 1167.42 138 Z" fill="#000000" fill-rule="nonzero" fill-opacity="1" /><path clip-path="url(#clip140)" d="M1200.6 121.432 L1208.05 121.432 L1208.05 184.464 L1200.6 184.464 L1200.6 121.432 Z" fill="#000000" fill-rule="nonzero" fill-opacity="1" /><path clip-path="url(#clip140)" d="M1218.3 139.094 L1226.2 139.094 L1240.38 177.172 L1254.56 139.094 L1262.46 139.094 L1245.44 184.464 L1235.32 184.464 L1218.3 139.094 Z" fill="#000000" fill-rule="nonzero" fill-opacity="1" /><path clip-path="url(#clip140)" d="M1311.55 159.916 L1311.55 163.561 L1277.28 163.561 Q1277.77 171.258 1281.9 175.309 Q1286.07 179.319 1293.49 179.319 Q1297.78 179.319 1301.79 178.266 Q1305.84 177.213 1309.81 175.106 L1309.81 182.155 Q1305.8 183.856 1301.59 184.748 Q1297.38 185.639 1293.04 185.639 Q1282.19 185.639 1275.83 179.319 Q1269.51 173 1269.51 162.225 Q1269.51 151.085 1275.5 144.563 Q1281.54 138 1291.75 138 Q1300.9 138 1306.21 143.914 Q1311.55 149.788 1311.55 159.916 M1304.1 157.728 Q1304.02 151.611 1300.66 147.965 Q1297.34 144.32 1291.83 144.32 Q1285.59 144.32 1281.82 147.844 Q1278.09 151.368 1277.53 157.769 L1304.1 157.728 Z" fill="#000000" fill-rule="nonzero" fill-opacity="1" /><path clip-path="url(#clip140)" d="M1357.53 126.212 L1357.53 139.094 L1372.89 139.094 L1372.89 144.887 L1357.53 144.887 L1357.53 169.516 Q1357.53 175.066 1359.03 176.646 Q1360.57 178.226 1365.23 178.226 L1372.89 178.226 L1372.89 184.464 L1365.23 184.464 Q1356.6 184.464 1353.32 181.264 Q1350.04 178.023 1350.04 169.516 L1350.04 144.887 L1344.57 144.887 L1344.57 139.094 L1350.04 139.094 L1350.04 126.212 L1357.53 126.212 Z" fill="#000000" fill-rule="nonzero" fill-opacity="1" /><path clip-path="url(#clip140)" d="M1382.69 139.094 L1390.14 139.094 L1390.14 184.464 L1382.69 184.464 L1382.69 139.094 M1382.69 121.432 L1390.14 121.432 L1390.14 130.871 L1382.69 130.871 L1382.69 121.432 Z" fill="#000000" fill-rule="nonzero" fill-opacity="1" /><path clip-path="url(#clip140)" d="M1441.06 147.803 Q1443.86 142.78 1447.75 140.39 Q1451.64 138 1456.9 138 Q1463.99 138 1467.84 142.983 Q1471.69 147.925 1471.69 157.08 L1471.69 184.464 L1464.19 184.464 L1464.19 157.323 Q1464.19 150.801 1461.88 147.641 Q1459.57 144.482 1454.84 144.482 Q1449.04 144.482 1445.68 148.33 Q1442.32 152.178 1442.32 158.822 L1442.32 184.464 L1434.82 184.464 L1434.82 157.323 Q1434.82 150.76 1432.51 147.641 Q1430.21 144.482 1425.39 144.482 Q1419.67 144.482 1416.31 148.37 Q1412.95 152.219 1412.95 158.822 L1412.95 184.464 L1405.45 184.464 L1405.45 139.094 L1412.95 139.094 L1412.95 146.142 Q1415.5 141.97 1419.07 139.985 Q1422.63 138 1427.53 138 Q1432.47 138 1435.92 140.512 Q1439.4 143.023 1441.06 147.803 Z" fill="#000000" fill-rule="nonzero" fill-opacity="1" /><path clip-path="url(#clip140)" d="M1525.36 159.916 L1525.36 163.561 L1491.09 163.561 Q1491.58 171.258 1495.71 175.309 Q1499.88 179.319 1507.29 179.319 Q1511.59 179.319 1515.6 178.266 Q1519.65 177.213 1523.62 175.106 L1523.62 182.155 Q1519.61 183.856 1515.4 184.748 Q1511.18 185.639 1506.85 185.639 Q1495.99 185.639 1489.63 179.319 Q1483.31 173 1483.31 162.225 Q1483.31 151.085 1489.31 144.563 Q1495.34 138 1505.55 138 Q1514.71 138 1520.01 143.914 Q1525.36 149.788 1525.36 159.916 M1517.91 157.728 Q1517.83 151.611 1514.46 147.965 Q1511.14 144.32 1505.63 144.32 Q1499.4 144.32 1495.63 147.844 Q1491.9 151.368 1491.33 157.769 L1517.91 157.728 Z" fill="#000000" fill-rule="nonzero" fill-opacity="1" /><path clip-path="url(#clip140)" d="M1558.62 139.094 L1566.52 139.094 L1580.7 177.172 L1594.88 139.094 L1602.77 139.094 L1585.76 184.464 L1575.63 184.464 L1558.62 139.094 Z" fill="#000000" fill-rule="nonzero" fill-opacity="1" /><path clip-path="url(#clip140)" d="M1641.99 140.431 L1641.99 147.479 Q1638.83 145.859 1635.42 145.049 Q1632.02 144.239 1628.38 144.239 Q1622.83 144.239 1620.03 145.94 Q1617.28 147.641 1617.28 151.044 Q1617.28 153.637 1619.26 155.135 Q1621.25 156.594 1627.24 157.931 L1629.79 158.498 Q1637.73 160.199 1641.06 163.318 Q1644.42 166.397 1644.42 171.947 Q1644.42 178.266 1639.39 181.952 Q1634.41 185.639 1625.66 185.639 Q1622.02 185.639 1618.05 184.91 Q1614.12 184.221 1609.74 182.803 L1609.74 175.106 Q1613.87 177.253 1617.88 178.347 Q1621.89 179.4 1625.82 179.4 Q1631.09 179.4 1633.93 177.618 Q1636.76 175.795 1636.76 172.514 Q1636.76 169.476 1634.7 167.855 Q1632.67 166.235 1625.74 164.736 L1623.15 164.128 Q1616.22 162.67 1613.14 159.672 Q1610.07 156.634 1610.07 151.368 Q1610.07 144.968 1614.6 141.484 Q1619.14 138 1627.48 138 Q1631.62 138 1635.26 138.608 Q1638.91 139.215 1641.99 140.431 Z" fill="#000000" fill-rule="nonzero" fill-opacity="1" /><path clip-path="url(#clip140)" d="M1712.51 161.252 Q1712.51 153.151 1709.15 148.695 Q1705.83 144.239 1699.79 144.239 Q1693.8 144.239 1690.44 148.695 Q1687.11 153.151 1687.11 161.252 Q1687.11 169.314 1690.44 173.77 Q1693.8 178.226 1699.79 178.226 Q1705.83 178.226 1709.15 173.77 Q1712.51 169.314 1712.51 161.252 M1719.97 178.833 Q1719.97 190.419 1714.82 196.05 Q1709.68 201.721 1699.06 201.721 Q1695.14 201.721 1691.65 201.113 Q1688.17 200.546 1684.89 199.331 L1684.89 192.08 Q1688.17 193.862 1691.37 194.713 Q1694.57 195.563 1697.89 195.563 Q1705.22 195.563 1708.87 191.715 Q1712.51 187.907 1712.51 180.17 L1712.51 176.484 Q1710.2 180.494 1706.6 182.479 Q1702.99 184.464 1697.97 184.464 Q1689.63 184.464 1684.52 178.104 Q1679.42 171.744 1679.42 161.252 Q1679.42 150.72 1684.52 144.36 Q1689.63 138 1697.97 138 Q1702.99 138 1706.6 139.985 Q1710.2 141.97 1712.51 145.98 L1712.51 139.094 L1719.97 139.094 L1719.97 178.833 Z" fill="#000000" fill-rule="nonzero" fill-opacity="1" /><path clip-path="url(#clip140)" d="M1761.61 146.061 Q1760.35 145.332 1758.86 145.008 Q1757.4 144.644 1755.62 144.644 Q1749.3 144.644 1745.89 148.776 Q1742.53 152.867 1742.53 160.564 L1742.53 184.464 L1735.04 184.464 L1735.04 139.094 L1742.53 139.094 L1742.53 146.142 Q1744.88 142.011 1748.65 140.026 Q1752.41 138 1757.8 138 Q1758.57 138 1759.5 138.122 Q1760.44 138.203 1761.57 138.405 L1761.61 146.061 Z" fill="#000000" fill-rule="nonzero" fill-opacity="1" /><path clip-path="url(#clip140)" d="M1769.43 139.094 L1776.88 139.094 L1776.88 184.464 L1769.43 184.464 L1769.43 139.094 M1769.43 121.432 L1776.88 121.432 L1776.88 130.871 L1769.43 130.871 L1769.43 121.432 Z" fill="#000000" fill-rule="nonzero" fill-opacity="1" /><path clip-path="url(#clip140)" d="M1822.33 145.98 L1822.33 121.432 L1829.79 121.432 L1829.79 184.464 L1822.33 184.464 L1822.33 177.658 Q1819.98 181.709 1816.38 183.694 Q1812.81 185.639 1807.79 185.639 Q1799.57 185.639 1794.38 179.076 Q1789.24 172.514 1789.24 161.819 Q1789.24 151.125 1794.38 144.563 Q1799.57 138 1807.79 138 Q1812.81 138 1816.38 139.985 Q1819.98 141.93 1822.33 145.98 M1796.93 161.819 Q1796.93 170.043 1800.3 174.742 Q1803.7 179.4 1809.61 179.4 Q1815.53 179.4 1818.93 174.742 Q1822.33 170.043 1822.33 161.819 Q1822.33 153.596 1818.93 148.938 Q1815.53 144.239 1809.61 144.239 Q1803.7 144.239 1800.3 148.938 Q1796.93 153.596 1796.93 161.819 Z" fill="#000000" fill-rule="nonzero" fill-opacity="1" /><path clip-path="url(#clip140)" d="M1900.43 140.431 L1900.43 147.479 Q1897.28 145.859 1893.87 145.049 Q1890.47 144.239 1886.82 144.239 Q1881.27 144.239 1878.48 145.94 Q1875.72 147.641 1875.72 151.044 Q1875.72 153.637 1877.71 155.135 Q1879.69 156.594 1885.69 157.931 L1888.24 158.498 Q1896.18 160.199 1899.5 163.318 Q1902.87 166.397 1902.87 171.947 Q1902.87 178.266 1897.84 181.952 Q1892.86 185.639 1884.11 185.639 Q1880.46 185.639 1876.49 184.91 Q1872.56 184.221 1868.19 182.803 L1868.19 175.106 Q1872.32 177.253 1876.33 178.347 Q1880.34 179.4 1884.27 179.4 Q1889.54 179.4 1892.37 177.618 Q1895.21 175.795 1895.21 172.514 Q1895.21 169.476 1893.14 167.855 Q1891.12 166.235 1884.19 164.736 L1881.6 164.128 Q1874.67 162.67 1871.59 159.672 Q1868.51 156.634 1868.51 151.368 Q1868.51 144.968 1873.05 141.484 Q1877.59 138 1885.93 138 Q1890.06 138 1893.71 138.608 Q1897.36 139.215 1900.43 140.431 Z" fill="#000000" fill-rule="nonzero" fill-opacity="1" /><path clip-path="url(#clip140)" d="M1914.73 139.094 L1922.19 139.094 L1922.19 184.464 L1914.73 184.464 L1914.73 139.094 M1914.73 121.432 L1922.19 121.432 L1922.19 130.871 L1914.73 130.871 L1914.73 121.432 Z" fill="#000000" fill-rule="nonzero" fill-opacity="1" /><path clip-path="url(#clip140)" d="M1934.54 139.094 L1969.95 139.094 L1969.95 145.899 L1941.92 178.509 L1969.95 178.509 L1969.95 184.464 L1933.53 184.464 L1933.53 177.658 L1961.56 145.049 L1934.54 145.049 L1934.54 139.094 Z" fill="#000000" fill-rule="nonzero" fill-opacity="1" /><path clip-path="url(#clip140)" d="M2020.14 159.916 L2020.14 163.561 L1985.87 163.561 Q1986.35 171.258 1990.49 175.309 Q1994.66 179.319 2002.07 179.319 Q2006.37 179.319 2010.38 178.266 Q2014.43 177.213 2018.4 175.106 L2018.4 182.155 Q2014.39 183.856 2010.17 184.748 Q2005.96 185.639 2001.63 185.639 Q1990.77 185.639 1984.41 179.319 Q1978.09 173 1978.09 162.225 Q1978.09 151.085 1984.09 144.563 Q1990.12 138 2000.33 138 Q2009.49 138 2014.79 143.914 Q2020.14 149.788 2020.14 159.916 M2012.69 157.728 Q2012.6 151.611 2009.24 147.965 Q2005.92 144.32 2000.41 144.32 Q1994.17 144.32 1990.41 147.844 Q1986.68 151.368 1986.11 157.769 L2012.69 157.728 Z" fill="#000000" fill-rule="nonzero" fill-opacity="1" /><path clip-path="url(#clip140)" d="M2054.98 158.822 L2129.84 158.822 L2129.84 164.655 L2054.98 164.655 L2054.98 158.822 Z" fill="#000000" fill-rule="nonzero" fill-opacity="1" /><path clip-path="url(#clip140)" d="M2200.65 161.819 Q2200.65 153.596 2197.24 148.938 Q2193.88 144.239 2187.97 144.239 Q2182.05 144.239 2178.65 148.938 Q2175.29 153.596 2175.29 161.819 Q2175.29 170.043 2178.65 174.742 Q2182.05 179.4 2187.97 179.4 Q2193.88 179.4 2197.24 174.742 Q2200.65 170.043 2200.65 161.819 M2175.29 145.98 Q2177.64 141.93 2181.2 139.985 Q2184.81 138 2189.79 138 Q2198.05 138 2203.2 144.563 Q2208.38 151.125 2208.38 161.819 Q2208.38 172.514 2203.2 179.076 Q2198.05 185.639 2189.79 185.639 Q2184.81 185.639 2181.2 183.694 Q2177.64 181.709 2175.29 177.658 L2175.29 184.464 L2167.79 184.464 L2167.79 121.432 L2175.29 121.432 L2175.29 145.98 Z" fill="#000000" fill-rule="nonzero" fill-opacity="1" /><path clip-path="url(#clip140)" d="M2247.03 146.061 Q2245.77 145.332 2244.28 145.008 Q2242.82 144.644 2241.03 144.644 Q2234.72 144.644 2231.31 148.776 Q2227.95 152.867 2227.95 160.564 L2227.95 184.464 L2220.46 184.464 L2220.46 139.094 L2227.95 139.094 L2227.95 146.142 Q2230.3 142.011 2234.07 140.026 Q2237.83 138 2243.22 138 Q2243.99 138 2244.92 138.122 Q2245.86 138.203 2246.99 138.405 L2247.03 146.061 Z" fill="#000000" fill-rule="nonzero" fill-opacity="1" /><path clip-path="url(#clip140)" d="M2273.73 188.677 Q2270.57 196.779 2267.57 199.25 Q2264.57 201.721 2259.55 201.721 L2253.59 201.721 L2253.59 195.482 L2257.97 195.482 Q2261.05 195.482 2262.75 194.024 Q2264.45 192.566 2266.52 187.138 L2267.85 183.735 L2249.5 139.094 L2257.4 139.094 L2271.58 174.58 L2285.76 139.094 L2293.66 139.094 L2273.73 188.677 Z" fill="#000000" fill-rule="nonzero" fill-opacity="1" /><path clip-path="url(#clip140)" d="M2332.87 140.431 L2332.87 147.479 Q2329.71 145.859 2326.31 145.049 Q2322.9 144.239 2319.26 144.239 Q2313.71 144.239 2310.91 145.94 Q2308.16 147.641 2308.16 151.044 Q2308.16 153.637 2310.14 155.135 Q2312.13 156.594 2318.12 157.931 L2320.68 158.498 Q2328.62 160.199 2331.94 163.318 Q2335.3 166.397 2335.3 171.947 Q2335.3 178.266 2330.28 181.952 Q2325.29 185.639 2316.54 185.639 Q2312.9 185.639 2308.93 184.91 Q2305 184.221 2300.62 182.803 L2300.62 175.106 Q2304.76 177.253 2308.77 178.347 Q2312.78 179.4 2316.71 179.4 Q2321.97 179.4 2324.81 177.618 Q2327.64 175.795 2327.64 172.514 Q2327.64 169.476 2325.58 167.855 Q2323.55 166.235 2316.62 164.736 L2314.03 164.128 Q2307.11 162.67 2304.03 159.672 Q2300.95 156.634 2300.95 151.368 Q2300.95 144.968 2305.48 141.484 Q2310.02 138 2318.37 138 Q2322.5 138 2326.14 138.608 Q2329.79 139.215 2332.87 140.431 Z" fill="#000000" fill-rule="nonzero" fill-opacity="1" /><path clip-path="url(#clip140)" d="M2364.75 144.32 Q2358.75 144.32 2355.27 149.019 Q2351.79 153.677 2351.79 161.819 Q2351.79 169.962 2355.23 174.661 Q2358.71 179.319 2364.75 179.319 Q2370.7 179.319 2374.19 174.62 Q2377.67 169.921 2377.67 161.819 Q2377.67 153.758 2374.19 149.059 Q2370.7 144.32 2364.75 144.32 M2364.75 138 Q2374.47 138 2380.02 144.32 Q2385.57 150.639 2385.57 161.819 Q2385.57 172.959 2380.02 179.319 Q2374.47 185.639 2364.75 185.639 Q2354.99 185.639 2349.44 179.319 Q2343.93 172.959 2343.93 161.819 Q2343.93 150.639 2349.44 144.32 Q2354.99 138 2364.75 138 Z" fill="#000000" fill-rule="nonzero" fill-opacity="1" /><path clip-path="url(#clip140)" d="M2435.64 157.08 L2435.64 184.464 L2428.19 184.464 L2428.19 157.323 Q2428.19 150.882 2425.68 147.682 Q2423.16 144.482 2418.14 144.482 Q2412.1 144.482 2408.62 148.33 Q2405.14 152.178 2405.14 158.822 L2405.14 184.464 L2397.64 184.464 L2397.64 139.094 L2405.14 139.094 L2405.14 146.142 Q2407.81 142.051 2411.42 140.026 Q2415.06 138 2419.8 138 Q2427.62 138 2431.63 142.861 Q2435.64 147.682 2435.64 157.08 Z" fill="#000000" fill-rule="nonzero" fill-opacity="1" /><path clip-path="url(#clip140)" d="M2484.98 198.237 L2484.98 204.03 L2441.88 204.03 L2441.88 198.237 L2484.98 198.237 Z" fill="#000000" fill-rule="nonzero" fill-opacity="1" /><path clip-path="url(#clip140)" d="M2521.84 145.98 L2521.84 121.432 L2529.3 121.432 L2529.3 184.464 L2521.84 184.464 L2521.84 177.658 Q2519.49 181.709 2515.89 183.694 Q2512.32 185.639 2507.3 185.639 Q2499.08 185.639 2493.89 179.076 Q2488.75 172.514 2488.75 161.819 Q2488.75 151.125 2493.89 144.563 Q2499.08 138 2507.3 138 Q2512.32 138 2515.89 139.985 Q2519.49 141.93 2521.84 145.98 M2496.44 161.819 Q2496.44 170.043 2499.81 174.742 Q2503.21 179.4 2509.12 179.4 Q2515.04 179.4 2518.44 174.742 Q2521.84 170.043 2521.84 161.819 Q2521.84 153.596 2518.44 148.938 Q2515.04 144.239 2509.12 144.239 Q2503.21 144.239 2499.81 148.938 Q2496.44 153.596 2496.44 161.819 Z" fill="#000000" fill-rule="nonzero" fill-opacity="1" /><path clip-path="url(#clip140)" d="M2583.46 159.916 L2583.46 163.561 L2549.19 163.561 Q2549.67 171.258 2553.81 175.309 Q2557.98 179.319 2565.39 179.319 Q2569.68 179.319 2573.7 178.266 Q2577.75 177.213 2581.72 175.106 L2581.72 182.155 Q2577.71 183.856 2573.49 184.748 Q2569.28 185.639 2564.95 185.639 Q2554.09 185.639 2547.73 179.319 Q2541.41 173 2541.41 162.225 Q2541.41 151.085 2547.4 144.563 Q2553.44 138 2563.65 138 Q2572.8 138 2578.11 143.914 Q2583.46 149.788 2583.46 159.916 M2576 157.728 Q2575.92 151.611 2572.56 147.965 Q2569.24 144.32 2563.73 144.32 Q2557.49 144.32 2553.72 147.844 Q2550 151.368 2549.43 157.769 L2576 157.728 Z" fill="#000000" fill-rule="nonzero" fill-opacity="1" /><path clip-path="url(#clip140)" d="M2633.41 157.08 L2633.41 184.464 L2625.95 184.464 L2625.95 157.323 Q2625.95 150.882 2623.44 147.682 Q2620.93 144.482 2615.91 144.482 Q2609.87 144.482 2606.39 148.33 Q2602.9 152.178 2602.9 158.822 L2602.9 184.464 L2595.41 184.464 L2595.41 139.094 L2602.9 139.094 L2602.9 146.142 Q2605.58 142.051 2609.18 140.026 Q2612.83 138 2617.57 138 Q2625.38 138 2629.4 142.861 Q2633.41 147.682 2633.41 157.08 Z" fill="#000000" fill-rule="nonzero" fill-opacity="1" /><path clip-path="url(#clip140)" d="M2685.99 157.08 L2685.99 184.464 L2678.53 184.464 L2678.53 157.323 Q2678.53 150.882 2676.02 147.682 Q2673.51 144.482 2668.49 144.482 Q2662.45 144.482 2658.97 148.33 Q2655.48 152.178 2655.48 158.822 L2655.48 184.464 L2647.99 184.464 L2647.99 121.432 L2655.48 121.432 L2655.48 146.142 Q2658.16 142.051 2661.76 140.026 Q2665.41 138 2670.15 138 Q2677.97 138 2681.98 142.861 Q2685.99 147.682 2685.99 157.08 Z" fill="#000000" fill-rule="nonzero" fill-opacity="1" /><path clip-path="url(#clip140)" d="M2721.47 161.657 Q2712.44 161.657 2708.95 163.723 Q2705.47 165.789 2705.47 170.772 Q2705.47 174.742 2708.06 177.091 Q2710.7 179.4 2715.19 179.4 Q2721.39 179.4 2725.12 175.025 Q2728.89 170.61 2728.89 163.318 L2728.89 161.657 L2721.47 161.657 M2736.34 158.579 L2736.34 184.464 L2728.89 184.464 L2728.89 177.577 Q2726.33 181.709 2722.53 183.694 Q2718.72 185.639 2713.21 185.639 Q2706.24 185.639 2702.11 181.75 Q2698.02 177.821 2698.02 171.258 Q2698.02 163.602 2703.12 159.713 Q2708.27 155.824 2718.43 155.824 L2728.89 155.824 L2728.89 155.095 Q2728.89 149.95 2725.48 147.155 Q2722.12 144.32 2716 144.32 Q2712.11 144.32 2708.43 145.251 Q2704.74 146.183 2701.34 148.046 L2701.34 141.16 Q2705.43 139.58 2709.28 138.81 Q2713.13 138 2716.77 138 Q2726.62 138 2731.48 143.104 Q2736.34 148.208 2736.34 158.579 Z" fill="#000000" fill-rule="nonzero" fill-opacity="1" /><path clip-path="url(#clip140)" d="M2787.02 147.803 Q2789.81 142.78 2793.7 140.39 Q2797.59 138 2802.85 138 Q2809.94 138 2813.79 142.983 Q2817.64 147.925 2817.64 157.08 L2817.64 184.464 L2810.15 184.464 L2810.15 157.323 Q2810.15 150.801 2807.84 147.641 Q2805.53 144.482 2800.79 144.482 Q2795 144.482 2791.63 148.33 Q2788.27 152.178 2788.27 158.822 L2788.27 184.464 L2780.78 184.464 L2780.78 157.323 Q2780.78 150.76 2778.47 147.641 Q2776.16 144.482 2771.34 144.482 Q2765.63 144.482 2762.26 148.37 Q2758.9 152.219 2758.9 158.822 L2758.9 184.464 L2751.41 184.464 L2751.41 139.094 L2758.9 139.094 L2758.9 146.142 Q2761.45 141.97 2765.02 139.985 Q2768.58 138 2773.49 138 Q2778.43 138 2781.87 140.512 Q2785.35 143.023 2787.02 147.803 Z" fill="#000000" fill-rule="nonzero" fill-opacity="1" /><polyline clip-path="url(#clip142)" style="stroke:#4682b4; stroke-linecap:round; stroke-linejoin:round; stroke-width:6; stroke-opacity:1; fill:none" points="504.854,1627.21 2157.47,982.552 3407.62,300.989 "/>
<circle clip-path="url(#clip142)" cx="504.854" cy="1627.21" r="14.4" fill="#4682b4" fill-rule="evenodd" fill-opacity="1" stroke="none"/>
<circle clip-path="url(#clip142)" cx="2157.47" cy="982.552" r="14.4" fill="#4682b4" fill-rule="evenodd" fill-opacity="1" stroke="none"/>
<circle clip-path="url(#clip142)" cx="3407.62" cy="300.989" r="14.4" fill="#4682b4" fill-rule="evenodd" fill-opacity="1" stroke="none"/>
<polyline clip-path="url(#clip142)" style="stroke:#2e8b57; stroke-linecap:round; stroke-linejoin:round; stroke-width:6; stroke-opacity:1; fill:none" points="504.854,1800.15 2157.47,1054.53 3407.62,452.064 "/>
<path clip-path="url(#clip142)" d="M504.854 1784.15 L488.854 1800.15 L504.854 1816.15 L520.854 1800.15 L504.854 1784.15 Z" fill="#2e8b57" fill-rule="evenodd" fill-opacity="1" stroke="none"/>
<path clip-path="url(#clip142)" d="M2157.47 1038.53 L2141.47 1054.53 L2157.47 1070.53 L2173.47 1054.53 L2157.47 1038.53 Z" fill="#2e8b57" fill-rule="evenodd" fill-opacity="1" stroke="none"/>
<path clip-path="url(#clip142)" d="M3407.62 436.064 L3391.62 452.064 L3407.62 468.064 L3423.62 452.064 L3407.62 436.064 Z" fill="#2e8b57" fill-rule="evenodd" fill-opacity="1" stroke="none"/>
<polyline clip-path="url(#clip142)" style="stroke:#ff6347; stroke-linecap:round; stroke-linejoin:round; stroke-width:6; stroke-opacity:1; fill:none" points="504.854,1840.62 2157.47,1212.95 3407.62,565.142 "/>
<path clip-path="url(#clip142)" d="M488.854 1824.62 L488.854 1856.62 L520.854 1856.62 L520.854 1824.62 L488.854 1824.62 Z" fill="#ff6347" fill-rule="evenodd" fill-opacity="1" stroke="none"/>
<path clip-path="url(#clip142)" d="M2141.47 1196.95 L2141.47 1228.95 L2173.47 1228.95 L2173.47 1196.95 L2141.47 1196.95 Z" fill="#ff6347" fill-rule="evenodd" fill-opacity="1" stroke="none"/>
<path clip-path="url(#clip142)" d="M3391.62 549.142 L3391.62 581.142 L3423.62 581.142 L3423.62 549.142 L3391.62 549.142 Z" fill="#ff6347" fill-rule="evenodd" fill-opacity="1" stroke="none"/>
<polyline clip-path="url(#clip142)" style="stroke:#ff8c00; stroke-linecap:round; stroke-linejoin:round; stroke-width:6; stroke-opacity:1; fill:none" points="504.854,2078.37 2157.47,1405.63 3407.62,793.953 "/>
<path clip-path="url(#clip142)" d="M504.854 2062.37 L488.854 2094.37 L520.854 2094.37 L504.854 2062.37 Z" fill="#ff8c00" fill-rule="evenodd" fill-opacity="1" stroke="none"/>
<path clip-path="url(#clip142)" d="M2157.47 1389.63 L2141.47 1421.63 L2173.47 1421.63 L2157.47 1389.63 Z" fill="#ff8c00" fill-rule="evenodd" fill-opacity="1" stroke="none"/>
<path clip-path="url(#clip142)" d="M3407.62 777.953 L3391.62 809.953 L3423.62 809.953 L3407.62 777.953 Z" fill="#ff8c00" fill-rule="evenodd" fill-opacity="1" stroke="none"/>
<polyline clip-path="url(#clip142)" style="stroke:#9370db; stroke-linecap:round; stroke-linejoin:round; stroke-width:6; stroke-opacity:1; fill:none" points="504.854,1807.87 2157.47,1181.57 3407.62,556.868 "/>
<path clip-path="url(#clip142)" d="M520.854 1791.87 L488.854 1791.87 L504.854 1823.87 L520.854 1791.87 Z" fill="#9370db" fill-rule="evenodd" fill-opacity="1" stroke="none"/>
<path clip-path="url(#clip142)" d="M2173.47 1165.57 L2141.47 1165.57 L2157.47 1197.57 L2173.47 1165.57 Z" fill="#9370db" fill-rule="evenodd" fill-opacity="1" stroke="none"/>
<path clip-path="url(#clip142)" d="M3423.62 540.868 L3391.62 540.868 L3407.62 572.868 L3423.62 540.868 Z" fill="#9370db" fill-rule="evenodd" fill-opacity="1" stroke="none"/>
<polyline clip-path="url(#clip142)" style="stroke:#a0522d; stroke-linecap:round; stroke-linejoin:round; stroke-width:6; stroke-opacity:1; fill:none" points="504.854,2102.46 2157.47,1471.16 3407.62,743.002 "/>
<path clip-path="url(#clip142)" d="M504.854 2086.46 L501.094 2097.28 L489.638 2097.52 L498.774 2104.45 L495.446 2115.41 L504.854 2108.86 L514.262 2115.41 L510.934 2104.45 L520.07 2097.52 L508.614 2097.28 L504.854 2086.46 Z" fill="#a0522d" fill-rule="evenodd" fill-opacity="1" stroke="none"/>
<path clip-path="url(#clip142)" d="M2157.47 1455.16 L2153.71 1465.98 L2142.25 1466.22 L2151.39 1473.15 L2148.06 1484.11 L2157.47 1477.56 L2166.87 1484.11 L2163.55 1473.15 L2172.68 1466.22 L2161.23 1465.98 L2157.47 1455.16 Z" fill="#a0522d" fill-rule="evenodd" fill-opacity="1" stroke="none"/>
<path clip-path="url(#clip142)" d="M3407.62 727.002 L3403.86 737.818 L3392.4 738.058 L3401.54 744.986 L3398.21 755.946 L3407.62 749.402 L3417.03 755.946 L3413.7 744.986 L3422.83 738.058 L3411.38 737.818 L3407.62 727.002 Z" fill="#a0522d" fill-rule="evenodd" fill-opacity="1" stroke="none"/>
<path clip-path="url(#clip140)" d="M2756.95 2092.86 L3446.32 2092.86 L3446.32 1729.98 L2756.95 1729.98  Z" fill="#ffffff" fill-rule="evenodd" fill-opacity="1"/>
<polyline clip-path="url(#clip140)" style="stroke:#000000; stroke-linecap:round; stroke-linejoin:round; stroke-width:4; stroke-opacity:1; fill:none" points="2756.95,2092.86 3446.32,2092.86 3446.32,1729.98 2756.95,1729.98 2756.95,2092.86 "/>
<polyline clip-path="url(#clip140)" style="stroke:#4682b4; stroke-linecap:round; stroke-linejoin:round; stroke-width:6; stroke-opacity:1; fill:none" points="2792.43,1781.82 3005.3,1781.82 "/>
<circle clip-path="url(#clip140)" cx="2898.86" cy="1781.82" r="23.04" fill="#4682b4" fill-rule="evenodd" fill-opacity="1" stroke="none"/>
<path clip-path="url(#clip140)" d="M3051.4 1763.12 Q3048.3 1768.45 3046.79 1773.66 Q3045.29 1778.86 3045.29 1784.21 Q3045.29 1789.56 3046.79 1794.81 Q3048.32 1800.04 3051.4 1805.35 L3047.7 1805.35 Q3044.22 1799.91 3042.49 1794.65 Q3040.78 1789.4 3040.78 1784.21 Q3040.78 1779.05 3042.49 1773.82 Q3044.2 1768.59 3047.7 1763.12 L3051.4 1763.12 Z" fill="#000000" fill-rule="nonzero" fill-opacity="1" /><path clip-path="url(#clip140)" d="M3071.45 1786.06 Q3066.28 1786.06 3064.29 1787.24 Q3062.3 1788.42 3062.3 1791.27 Q3062.3 1793.54 3063.78 1794.88 Q3065.29 1796.2 3067.86 1796.2 Q3071.4 1796.2 3073.53 1793.7 Q3075.68 1791.18 3075.68 1787.01 L3075.68 1786.06 L3071.45 1786.06 M3079.94 1784.3 L3079.94 1799.1 L3075.68 1799.1 L3075.68 1795.16 Q3074.22 1797.52 3072.05 1798.66 Q3069.87 1799.77 3066.72 1799.77 Q3062.74 1799.77 3060.38 1797.54 Q3058.04 1795.3 3058.04 1791.55 Q3058.04 1787.17 3060.96 1784.95 Q3063.9 1782.73 3069.71 1782.73 L3075.68 1782.73 L3075.68 1782.31 Q3075.68 1779.37 3073.74 1777.78 Q3071.82 1776.16 3068.32 1776.16 Q3066.1 1776.16 3063.99 1776.69 Q3061.89 1777.22 3059.94 1778.29 L3059.94 1774.35 Q3062.28 1773.45 3064.48 1773.01 Q3066.68 1772.54 3068.76 1772.54 Q3074.39 1772.54 3077.16 1775.46 Q3079.94 1778.38 3079.94 1784.3 Z" fill="#000000" fill-rule="nonzero" fill-opacity="1" /><path clip-path="url(#clip140)" d="M3105.78 1777.1 L3105.78 1763.08 L3110.03 1763.08 L3110.03 1799.1 L3105.78 1799.1 L3105.78 1795.21 Q3104.43 1797.52 3102.37 1798.66 Q3100.34 1799.77 3097.47 1799.77 Q3092.77 1799.77 3089.8 1796.02 Q3086.86 1792.27 3086.86 1786.16 Q3086.86 1780.04 3089.8 1776.29 Q3092.77 1772.54 3097.47 1772.54 Q3100.34 1772.54 3102.37 1773.68 Q3104.43 1774.79 3105.78 1777.1 M3091.26 1786.16 Q3091.26 1790.85 3093.18 1793.54 Q3095.13 1796.2 3098.51 1796.2 Q3101.89 1796.2 3103.83 1793.54 Q3105.78 1790.85 3105.78 1786.16 Q3105.78 1781.46 3103.83 1778.79 Q3101.89 1776.11 3098.51 1776.11 Q3095.13 1776.11 3093.18 1778.79 Q3091.26 1781.46 3091.26 1786.16 Z" fill="#000000" fill-rule="nonzero" fill-opacity="1" /><path clip-path="url(#clip140)" d="M3140.36 1783.45 L3140.36 1799.1 L3136.1 1799.1 L3136.1 1783.59 Q3136.1 1779.91 3134.66 1778.08 Q3133.23 1776.25 3130.36 1776.25 Q3126.91 1776.25 3124.92 1778.45 Q3122.93 1780.65 3122.93 1784.44 L3122.93 1799.1 L3118.65 1799.1 L3118.65 1773.17 L3122.93 1773.17 L3122.93 1777.2 Q3124.46 1774.86 3126.52 1773.7 Q3128.6 1772.54 3131.31 1772.54 Q3135.78 1772.54 3138.07 1775.32 Q3140.36 1778.08 3140.36 1783.45 Z" fill="#000000" fill-rule="nonzero" fill-opacity="1" /><path clip-path="url(#clip140)" d="M3148.85 1763.08 L3153.11 1763.08 L3153.11 1799.1 L3148.85 1799.1 L3148.85 1763.08 Z" fill="#000000" fill-rule="nonzero" fill-opacity="1" /><path clip-path="url(#clip140)" d="M3166.15 1795.21 L3166.15 1808.96 L3161.86 1808.96 L3161.86 1773.17 L3166.15 1773.17 L3166.15 1777.1 Q3167.49 1774.79 3169.52 1773.68 Q3171.59 1772.54 3174.43 1772.54 Q3179.15 1772.54 3182.09 1776.29 Q3185.06 1780.04 3185.06 1786.16 Q3185.06 1792.27 3182.09 1796.02 Q3179.15 1799.77 3174.43 1799.77 Q3171.59 1799.77 3169.52 1798.66 Q3167.49 1797.52 3166.15 1795.21 M3180.64 1786.16 Q3180.64 1781.46 3178.69 1778.79 Q3176.77 1776.11 3173.39 1776.11 Q3170.01 1776.11 3168.07 1778.79 Q3166.15 1781.46 3166.15 1786.16 Q3166.15 1790.85 3168.07 1793.54 Q3170.01 1796.2 3173.39 1796.2 Q3176.77 1796.2 3178.69 1793.54 Q3180.64 1790.85 3180.64 1786.16 Z" fill="#000000" fill-rule="nonzero" fill-opacity="1" /><path clip-path="url(#clip140)" d="M3193.21 1793.22 L3198.09 1793.22 L3198.09 1797.2 L3194.29 1804.6 L3191.31 1804.6 L3193.21 1797.2 L3193.21 1793.22 Z" fill="#000000" fill-rule="nonzero" fill-opacity="1" /><path clip-path="url(#clip140)" d="M3222.26 1773.17 L3226.52 1773.17 L3226.52 1799.1 L3222.26 1799.1 L3222.26 1773.17 M3222.26 1763.08 L3226.52 1763.08 L3226.52 1768.47 L3222.26 1768.47 L3222.26 1763.08 Z" fill="#000000" fill-rule="nonzero" fill-opacity="1" /><path clip-path="url(#clip140)" d="M3239.55 1795.21 L3239.55 1808.96 L3235.27 1808.96 L3235.27 1773.17 L3239.55 1773.17 L3239.55 1777.1 Q3240.89 1774.79 3242.93 1773.68 Q3244.99 1772.54 3247.83 1772.54 Q3252.56 1772.54 3255.5 1776.29 Q3258.46 1780.04 3258.46 1786.16 Q3258.46 1792.27 3255.5 1796.02 Q3252.56 1799.77 3247.83 1799.77 Q3244.99 1799.77 3242.93 1798.66 Q3240.89 1797.52 3239.55 1795.21 M3254.04 1786.16 Q3254.04 1781.46 3252.09 1778.79 Q3250.17 1776.11 3246.79 1776.11 Q3243.41 1776.11 3241.47 1778.79 Q3239.55 1781.46 3239.55 1786.16 Q3239.55 1790.85 3241.47 1793.54 Q3243.41 1796.2 3246.79 1796.2 Q3250.17 1796.2 3252.09 1793.54 Q3254.04 1790.85 3254.04 1786.16 Z" fill="#000000" fill-rule="nonzero" fill-opacity="1" /><path clip-path="url(#clip140)" d="M3275.57 1776.16 Q3272.14 1776.16 3270.15 1778.84 Q3268.16 1781.5 3268.16 1786.16 Q3268.16 1790.81 3270.13 1793.49 Q3272.12 1796.16 3275.57 1796.16 Q3278.97 1796.16 3280.96 1793.47 Q3282.95 1790.79 3282.95 1786.16 Q3282.95 1781.55 3280.96 1778.86 Q3278.97 1776.16 3275.57 1776.16 M3275.57 1772.54 Q3281.12 1772.54 3284.29 1776.16 Q3287.46 1779.77 3287.46 1786.16 Q3287.46 1792.52 3284.29 1796.16 Q3281.12 1799.77 3275.57 1799.77 Q3269.99 1799.77 3266.82 1796.16 Q3263.67 1792.52 3263.67 1786.16 Q3263.67 1779.77 3266.82 1776.16 Q3269.99 1772.54 3275.57 1772.54 Z" fill="#000000" fill-rule="nonzero" fill-opacity="1" /><path clip-path="url(#clip140)" d="M3298.64 1795.21 L3298.64 1808.96 L3294.36 1808.96 L3294.36 1773.17 L3298.64 1773.17 L3298.64 1777.1 Q3299.99 1774.79 3302.02 1773.68 Q3304.08 1772.54 3306.93 1772.54 Q3311.65 1772.54 3314.59 1776.29 Q3317.56 1780.04 3317.56 1786.16 Q3317.56 1792.27 3314.59 1796.02 Q3311.65 1799.77 3306.93 1799.77 Q3304.08 1799.77 3302.02 1798.66 Q3299.99 1797.52 3298.64 1795.21 M3313.14 1786.16 Q3313.14 1781.46 3311.19 1778.79 Q3309.27 1776.11 3305.89 1776.11 Q3302.51 1776.11 3300.57 1778.79 Q3298.64 1781.46 3298.64 1786.16 Q3298.64 1790.85 3300.57 1793.54 Q3302.51 1796.2 3305.89 1796.2 Q3309.27 1796.2 3311.19 1793.54 Q3313.14 1790.85 3313.14 1786.16 Z" fill="#000000" fill-rule="nonzero" fill-opacity="1" /><path clip-path="url(#clip140)" d="M3328.83 1765.81 L3328.83 1773.17 L3337.6 1773.17 L3337.6 1776.48 L3328.83 1776.48 L3328.83 1790.55 Q3328.83 1793.73 3329.69 1794.63 Q3330.57 1795.53 3333.23 1795.53 L3337.6 1795.53 L3337.6 1799.1 L3333.23 1799.1 Q3328.3 1799.1 3326.42 1797.27 Q3324.55 1795.42 3324.55 1790.55 L3324.55 1776.48 L3321.42 1776.48 L3321.42 1773.17 L3324.55 1773.17 L3324.55 1765.81 L3328.83 1765.81 Z" fill="#000000" fill-rule="nonzero" fill-opacity="1" /><path clip-path="url(#clip140)" d="M3342.53 1763.12 L3346.24 1763.12 Q3349.71 1768.59 3351.42 1773.82 Q3353.16 1779.05 3353.16 1784.21 Q3353.16 1789.4 3351.42 1794.65 Q3349.71 1799.91 3346.24 1805.35 L3342.53 1805.35 Q3345.61 1800.04 3347.12 1794.81 Q3348.64 1789.56 3348.64 1784.21 Q3348.64 1778.86 3347.12 1773.66 Q3345.61 1768.45 3342.53 1763.12 Z" fill="#000000" fill-rule="nonzero" fill-opacity="1" /><polyline clip-path="url(#clip140)" style="stroke:#2e8b57; stroke-linecap:round; stroke-linejoin:round; stroke-width:6; stroke-opacity:1; fill:none" points="2792.43,1833.66 3005.3,1833.66 "/>
<path clip-path="url(#clip140)" d="M2898.86 1808.06 L2873.26 1833.66 L2898.86 1859.26 L2924.46 1833.66 L2898.86 1808.06 Z" fill="#2e8b57" fill-rule="evenodd" fill-opacity="1" stroke="none"/>
<path clip-path="url(#clip140)" d="M3051.4 1814.96 Q3048.3 1820.29 3046.79 1825.5 Q3045.29 1830.7 3045.29 1836.05 Q3045.29 1841.4 3046.79 1846.65 Q3048.32 1851.88 3051.4 1857.19 L3047.7 1857.19 Q3044.22 1851.75 3042.49 1846.49 Q3040.78 1841.24 3040.78 1836.05 Q3040.78 1830.89 3042.49 1825.66 Q3044.2 1820.43 3047.7 1814.96 L3051.4 1814.96 Z" fill="#000000" fill-rule="nonzero" fill-opacity="1" /><path clip-path="url(#clip140)" d="M3071.45 1837.9 Q3066.28 1837.9 3064.29 1839.08 Q3062.3 1840.26 3062.3 1843.11 Q3062.3 1845.38 3063.78 1846.72 Q3065.29 1848.04 3067.86 1848.04 Q3071.4 1848.04 3073.53 1845.54 Q3075.68 1843.02 3075.68 1838.85 L3075.68 1837.9 L3071.45 1837.9 M3079.94 1836.14 L3079.94 1850.94 L3075.68 1850.94 L3075.68 1847 Q3074.22 1849.36 3072.05 1850.5 Q3069.87 1851.61 3066.72 1851.61 Q3062.74 1851.61 3060.38 1849.38 Q3058.04 1847.14 3058.04 1843.39 Q3058.04 1839.01 3060.96 1836.79 Q3063.9 1834.57 3069.71 1834.57 L3075.68 1834.57 L3075.68 1834.15 Q3075.68 1831.21 3073.74 1829.62 Q3071.82 1828 3068.32 1828 Q3066.1 1828 3063.99 1828.53 Q3061.89 1829.06 3059.94 1830.13 L3059.94 1826.19 Q3062.28 1825.29 3064.48 1824.85 Q3066.68 1824.38 3068.76 1824.38 Q3074.39 1824.38 3077.16 1827.3 Q3079.94 1830.22 3079.94 1836.14 Z" fill="#000000" fill-rule="nonzero" fill-opacity="1" /><path clip-path="url(#clip140)" d="M3105.78 1828.94 L3105.78 1814.92 L3110.03 1814.92 L3110.03 1850.94 L3105.78 1850.94 L3105.78 1847.05 Q3104.43 1849.36 3102.37 1850.5 Q3100.34 1851.61 3097.47 1851.61 Q3092.77 1851.61 3089.8 1847.86 Q3086.86 1844.11 3086.86 1838 Q3086.86 1831.88 3089.8 1828.13 Q3092.77 1824.38 3097.47 1824.38 Q3100.34 1824.38 3102.37 1825.52 Q3104.43 1826.63 3105.78 1828.94 M3091.26 1838 Q3091.26 1842.69 3093.18 1845.38 Q3095.13 1848.04 3098.51 1848.04 Q3101.89 1848.04 3103.83 1845.38 Q3105.78 1842.69 3105.78 1838 Q3105.78 1833.3 3103.83 1830.63 Q3101.89 1827.95 3098.51 1827.95 Q3095.13 1827.95 3093.18 1830.63 Q3091.26 1833.3 3091.26 1838 Z" fill="#000000" fill-rule="nonzero" fill-opacity="1" /><path clip-path="url(#clip140)" d="M3140.36 1835.29 L3140.36 1850.94 L3136.1 1850.94 L3136.1 1835.43 Q3136.1 1831.75 3134.66 1829.92 Q3133.23 1828.09 3130.36 1828.09 Q3126.91 1828.09 3124.92 1830.29 Q3122.93 1832.49 3122.93 1836.28 L3122.93 1850.94 L3118.65 1850.94 L3118.65 1825.01 L3122.93 1825.01 L3122.93 1829.04 Q3124.46 1826.7 3126.52 1825.54 Q3128.6 1824.38 3131.31 1824.38 Q3135.78 1824.38 3138.07 1827.16 Q3140.36 1829.92 3140.36 1835.29 Z" fill="#000000" fill-rule="nonzero" fill-opacity="1" /><path clip-path="url(#clip140)" d="M3148.85 1814.92 L3153.11 1814.92 L3153.11 1850.94 L3148.85 1850.94 L3148.85 1814.92 Z" fill="#000000" fill-rule="nonzero" fill-opacity="1" /><path clip-path="url(#clip140)" d="M3166.15 1847.05 L3166.15 1860.8 L3161.86 1860.8 L3161.86 1825.01 L3166.15 1825.01 L3166.15 1828.94 Q3167.49 1826.63 3169.52 1825.52 Q3171.59 1824.38 3174.43 1824.38 Q3179.15 1824.38 3182.09 1828.13 Q3185.06 1831.88 3185.06 1838 Q3185.06 1844.11 3182.09 1847.86 Q3179.15 1851.61 3174.43 1851.61 Q3171.59 1851.61 3169.52 1850.5 Q3167.49 1849.36 3166.15 1847.05 M3180.64 1838 Q3180.64 1833.3 3178.69 1830.63 Q3176.77 1827.95 3173.39 1827.95 Q3170.01 1827.95 3168.07 1830.63 Q3166.15 1833.3 3166.15 1838 Q3166.15 1842.69 3168.07 1845.38 Q3170.01 1848.04 3173.39 1848.04 Q3176.77 1848.04 3178.69 1845.38 Q3180.64 1842.69 3180.64 1838 Z" fill="#000000" fill-rule="nonzero" fill-opacity="1" /><path clip-path="url(#clip140)" d="M3193.21 1845.06 L3198.09 1845.06 L3198.09 1849.04 L3194.29 1856.44 L3191.31 1856.44 L3193.21 1849.04 L3193.21 1845.06 Z" fill="#000000" fill-rule="nonzero" fill-opacity="1" /><path clip-path="url(#clip140)" d="M3242.44 1829.99 Q3244.04 1827.12 3246.26 1825.75 Q3248.48 1824.38 3251.49 1824.38 Q3255.54 1824.38 3257.74 1827.23 Q3259.94 1830.06 3259.94 1835.29 L3259.94 1850.94 L3255.66 1850.94 L3255.66 1835.43 Q3255.66 1831.7 3254.34 1829.89 Q3253.02 1828.09 3250.31 1828.09 Q3247 1828.09 3245.08 1830.29 Q3243.16 1832.49 3243.16 1836.28 L3243.16 1850.94 L3238.88 1850.94 L3238.88 1835.43 Q3238.88 1831.68 3237.56 1829.89 Q3236.24 1828.09 3233.48 1828.09 Q3230.22 1828.09 3228.3 1830.31 Q3226.38 1832.51 3226.38 1836.28 L3226.38 1850.94 L3222.09 1850.94 L3222.09 1825.01 L3226.38 1825.01 L3226.38 1829.04 Q3227.83 1826.65 3229.87 1825.52 Q3231.91 1824.38 3234.71 1824.38 Q3237.53 1824.38 3239.5 1825.82 Q3241.49 1827.26 3242.44 1829.99 Z" fill="#000000" fill-rule="nonzero" fill-opacity="1" /><path clip-path="url(#clip140)" d="M3280.22 1837.9 Q3275.06 1837.9 3273.07 1839.08 Q3271.08 1840.26 3271.08 1843.11 Q3271.08 1845.38 3272.56 1846.72 Q3274.06 1848.04 3276.63 1848.04 Q3280.17 1848.04 3282.3 1845.54 Q3284.45 1843.02 3284.45 1838.85 L3284.45 1837.9 L3280.22 1837.9 M3288.71 1836.14 L3288.71 1850.94 L3284.45 1850.94 L3284.45 1847 Q3283 1849.36 3280.82 1850.5 Q3278.64 1851.61 3275.5 1851.61 Q3271.52 1851.61 3269.15 1849.38 Q3266.82 1847.14 3266.82 1843.39 Q3266.82 1839.01 3269.73 1836.79 Q3272.67 1834.57 3278.48 1834.57 L3284.45 1834.57 L3284.45 1834.15 Q3284.45 1831.21 3282.51 1829.62 Q3280.59 1828 3277.09 1828 Q3274.87 1828 3272.77 1828.53 Q3270.66 1829.06 3268.71 1830.13 L3268.71 1826.19 Q3271.05 1825.29 3273.25 1824.85 Q3275.45 1824.38 3277.53 1824.38 Q3283.16 1824.38 3285.94 1827.3 Q3288.71 1830.22 3288.71 1836.14 Z" fill="#000000" fill-rule="nonzero" fill-opacity="1" /><path clip-path="url(#clip140)" d="M3314.55 1828.94 L3314.55 1814.92 L3318.81 1814.92 L3318.81 1850.94 L3314.55 1850.94 L3314.55 1847.05 Q3313.2 1849.36 3311.14 1850.5 Q3309.11 1851.61 3306.24 1851.61 Q3301.54 1851.61 3298.58 1847.86 Q3295.64 1844.11 3295.64 1838 Q3295.64 1831.88 3298.58 1828.13 Q3301.54 1824.38 3306.24 1824.38 Q3309.11 1824.38 3311.14 1825.52 Q3313.2 1826.63 3314.55 1828.94 M3300.03 1838 Q3300.03 1842.69 3301.95 1845.38 Q3303.9 1848.04 3307.28 1848.04 Q3310.66 1848.04 3312.6 1845.38 Q3314.55 1842.69 3314.55 1838 Q3314.55 1833.3 3312.6 1830.63 Q3310.66 1827.95 3307.28 1827.95 Q3303.9 1827.95 3301.95 1830.63 Q3300.03 1833.3 3300.03 1838 Z" fill="#000000" fill-rule="nonzero" fill-opacity="1" /><path clip-path="url(#clip140)" d="M3349.13 1835.29 L3349.13 1850.94 L3344.87 1850.94 L3344.87 1835.43 Q3344.87 1831.75 3343.44 1829.92 Q3342 1828.09 3339.13 1828.09 Q3335.68 1828.09 3333.69 1830.29 Q3331.7 1832.49 3331.7 1836.28 L3331.7 1850.94 L3327.42 1850.94 L3327.42 1825.01 L3331.7 1825.01 L3331.7 1829.04 Q3333.23 1826.7 3335.29 1825.54 Q3337.37 1824.38 3340.08 1824.38 Q3344.55 1824.38 3346.84 1827.16 Q3349.13 1829.92 3349.13 1835.29 Z" fill="#000000" fill-rule="nonzero" fill-opacity="1" /><path clip-path="url(#clip140)" d="M3357.63 1814.92 L3361.88 1814.92 L3361.88 1850.94 L3357.63 1850.94 L3357.63 1814.92 Z" fill="#000000" fill-rule="nonzero" fill-opacity="1" /><path clip-path="url(#clip140)" d="M3374.92 1847.05 L3374.92 1860.8 L3370.63 1860.8 L3370.63 1825.01 L3374.92 1825.01 L3374.92 1828.94 Q3376.26 1826.63 3378.3 1825.52 Q3380.36 1824.38 3383.2 1824.38 Q3387.93 1824.38 3390.87 1828.13 Q3393.83 1831.88 3393.83 1838 Q3393.83 1844.11 3390.87 1847.86 Q3387.93 1851.61 3383.2 1851.61 Q3380.36 1851.61 3378.3 1850.5 Q3376.26 1849.36 3374.92 1847.05 M3389.41 1838 Q3389.41 1833.3 3387.46 1830.63 Q3385.54 1827.95 3382.16 1827.95 Q3378.78 1827.95 3376.84 1830.63 Q3374.92 1833.3 3374.92 1838 Q3374.92 1842.69 3376.84 1845.38 Q3378.78 1848.04 3382.16 1848.04 Q3385.54 1848.04 3387.46 1845.38 Q3389.41 1842.69 3389.41 1838 Z" fill="#000000" fill-rule="nonzero" fill-opacity="1" /><path clip-path="url(#clip140)" d="M3400.22 1814.96 L3403.92 1814.96 Q3407.39 1820.43 3409.11 1825.66 Q3410.84 1830.89 3410.84 1836.05 Q3410.84 1841.24 3409.11 1846.49 Q3407.39 1851.75 3403.92 1857.19 L3400.22 1857.19 Q3403.3 1851.88 3404.8 1846.65 Q3406.33 1841.4 3406.33 1836.05 Q3406.33 1830.7 3404.8 1825.5 Q3403.3 1820.29 3400.22 1814.96 Z" fill="#000000" fill-rule="nonzero" fill-opacity="1" /><polyline clip-path="url(#clip140)" style="stroke:#ff6347; stroke-linecap:round; stroke-linejoin:round; stroke-width:6; stroke-opacity:1; fill:none" points="2792.43,1885.5 3005.3,1885.5 "/>
<path clip-path="url(#clip140)" d="M2873.26 1859.9 L2873.26 1911.1 L2924.46 1911.1 L2924.46 1859.9 L2873.26 1859.9 Z" fill="#ff6347" fill-rule="evenodd" fill-opacity="1" stroke="none"/>
<path clip-path="url(#clip140)" d="M3051.4 1866.8 Q3048.3 1872.13 3046.79 1877.34 Q3045.29 1882.54 3045.29 1887.89 Q3045.29 1893.24 3046.79 1898.49 Q3048.32 1903.72 3051.4 1909.03 L3047.7 1909.03 Q3044.22 1903.59 3042.49 1898.33 Q3040.78 1893.08 3040.78 1887.89 Q3040.78 1882.73 3042.49 1877.5 Q3044.2 1872.27 3047.7 1866.8 L3051.4 1866.8 Z" fill="#000000" fill-rule="nonzero" fill-opacity="1" /><path clip-path="url(#clip140)" d="M3081.84 1888.75 L3081.84 1890.83 L3062.26 1890.83 Q3062.53 1895.23 3064.9 1897.54 Q3067.28 1899.84 3071.52 1899.84 Q3073.97 1899.84 3076.26 1899.23 Q3078.58 1898.63 3080.84 1897.43 L3080.84 1901.46 Q3078.55 1902.43 3076.15 1902.94 Q3073.74 1903.45 3071.26 1903.45 Q3065.06 1903.45 3061.42 1899.84 Q3057.81 1896.22 3057.81 1890.07 Q3057.81 1883.7 3061.24 1879.97 Q3064.69 1876.22 3070.52 1876.22 Q3075.75 1876.22 3078.78 1879.6 Q3081.84 1882.96 3081.84 1888.75 M3077.58 1887.5 Q3077.53 1884 3075.61 1881.92 Q3073.72 1879.84 3070.57 1879.84 Q3067 1879.84 3064.85 1881.85 Q3062.72 1883.86 3062.4 1887.52 L3077.58 1887.5 Z" fill="#000000" fill-rule="nonzero" fill-opacity="1" /><path clip-path="url(#clip140)" d="M3109.55 1876.85 L3100.17 1889.47 L3110.03 1902.78 L3105.01 1902.78 L3097.47 1892.59 L3089.92 1902.78 L3084.9 1902.78 L3094.97 1889.21 L3085.75 1876.85 L3090.78 1876.85 L3097.65 1886.09 L3104.53 1876.85 L3109.55 1876.85 Z" fill="#000000" fill-rule="nonzero" fill-opacity="1" /><path clip-path="url(#clip140)" d="M3127.84 1889.74 Q3122.67 1889.74 3120.68 1890.92 Q3118.69 1892.1 3118.69 1894.95 Q3118.69 1897.22 3120.17 1898.56 Q3121.68 1899.88 3124.25 1899.88 Q3127.79 1899.88 3129.92 1897.38 Q3132.07 1894.86 3132.07 1890.69 L3132.07 1889.74 L3127.84 1889.74 M3136.33 1887.98 L3136.33 1902.78 L3132.07 1902.78 L3132.07 1898.84 Q3130.61 1901.2 3128.44 1902.34 Q3126.26 1903.45 3123.11 1903.45 Q3119.13 1903.45 3116.77 1901.22 Q3114.43 1898.98 3114.43 1895.23 Q3114.43 1890.85 3117.35 1888.63 Q3120.29 1886.41 3126.1 1886.41 L3132.07 1886.41 L3132.07 1885.99 Q3132.07 1883.05 3130.13 1881.46 Q3128.21 1879.84 3124.71 1879.84 Q3122.49 1879.84 3120.38 1880.37 Q3118.28 1880.9 3116.33 1881.97 L3116.33 1878.03 Q3118.67 1877.13 3120.87 1876.69 Q3123.07 1876.22 3125.15 1876.22 Q3130.78 1876.22 3133.55 1879.14 Q3136.33 1882.06 3136.33 1887.98 Z" fill="#000000" fill-rule="nonzero" fill-opacity="1" /><path clip-path="url(#clip140)" d="M3146.19 1896.9 L3151.08 1896.9 L3151.08 1900.88 L3147.28 1908.28 L3144.29 1908.28 L3146.19 1900.88 L3146.19 1896.9 Z" fill="#000000" fill-rule="nonzero" fill-opacity="1" /><path clip-path="url(#clip140)" d="M3175.24 1876.85 L3179.5 1876.85 L3179.5 1902.78 L3175.24 1902.78 L3175.24 1876.85 M3175.24 1866.76 L3179.5 1866.76 L3179.5 1872.15 L3175.24 1872.15 L3175.24 1866.76 Z" fill="#000000" fill-rule="nonzero" fill-opacity="1" /><path clip-path="url(#clip140)" d="M3192.53 1898.89 L3192.53 1912.64 L3188.25 1912.64 L3188.25 1876.85 L3192.53 1876.85 L3192.53 1880.78 Q3193.88 1878.47 3195.91 1877.36 Q3197.97 1876.22 3200.82 1876.22 Q3205.54 1876.22 3208.48 1879.97 Q3211.45 1883.72 3211.45 1889.84 Q3211.45 1895.95 3208.48 1899.7 Q3205.54 1903.45 3200.82 1903.45 Q3197.97 1903.45 3195.91 1902.34 Q3193.88 1901.2 3192.53 1898.89 M3207.02 1889.84 Q3207.02 1885.14 3205.08 1882.47 Q3203.16 1879.79 3199.78 1879.79 Q3196.4 1879.79 3194.46 1882.47 Q3192.53 1885.14 3192.53 1889.84 Q3192.53 1894.53 3194.46 1897.22 Q3196.4 1899.88 3199.78 1899.88 Q3203.16 1899.88 3205.08 1897.22 Q3207.02 1894.53 3207.02 1889.84 Z" fill="#000000" fill-rule="nonzero" fill-opacity="1" /><path clip-path="url(#clip140)" d="M3228.55 1879.84 Q3225.13 1879.84 3223.14 1882.52 Q3221.14 1885.18 3221.14 1889.84 Q3221.14 1894.49 3223.11 1897.17 Q3225.1 1899.84 3228.55 1899.84 Q3231.96 1899.84 3233.95 1897.15 Q3235.94 1894.47 3235.94 1889.84 Q3235.94 1885.23 3233.95 1882.54 Q3231.96 1879.84 3228.55 1879.84 M3228.55 1876.22 Q3234.11 1876.22 3237.28 1879.84 Q3240.45 1883.45 3240.45 1889.84 Q3240.45 1896.2 3237.28 1899.84 Q3234.11 1903.45 3228.55 1903.45 Q3222.97 1903.45 3219.8 1899.84 Q3216.65 1896.2 3216.65 1889.84 Q3216.65 1883.45 3219.8 1879.84 Q3222.97 1876.22 3228.55 1876.22 Z" fill="#000000" fill-rule="nonzero" fill-opacity="1" /><path clip-path="url(#clip140)" d="M3251.63 1898.89 L3251.63 1912.64 L3247.35 1912.64 L3247.35 1876.85 L3251.63 1876.85 L3251.63 1880.78 Q3252.97 1878.47 3255.01 1877.36 Q3257.07 1876.22 3259.92 1876.22 Q3264.64 1876.22 3267.58 1879.97 Q3270.54 1883.72 3270.54 1889.84 Q3270.54 1895.95 3267.58 1899.7 Q3264.64 1903.45 3259.92 1903.45 Q3257.07 1903.45 3255.01 1902.34 Q3252.97 1901.2 3251.63 1898.89 M3266.12 1889.84 Q3266.12 1885.14 3264.18 1882.47 Q3262.26 1879.79 3258.88 1879.79 Q3255.5 1879.79 3253.55 1882.47 Q3251.63 1885.14 3251.63 1889.84 Q3251.63 1894.53 3253.55 1897.22 Q3255.5 1899.88 3258.88 1899.88 Q3262.26 1899.88 3264.18 1897.22 Q3266.12 1894.53 3266.12 1889.84 Z" fill="#000000" fill-rule="nonzero" fill-opacity="1" /><path clip-path="url(#clip140)" d="M3281.82 1869.49 L3281.82 1876.85 L3290.59 1876.85 L3290.59 1880.16 L3281.82 1880.16 L3281.82 1894.23 Q3281.82 1897.41 3282.67 1898.31 Q3283.55 1899.21 3286.21 1899.21 L3290.59 1899.21 L3290.59 1902.78 L3286.21 1902.78 Q3281.28 1902.78 3279.41 1900.95 Q3277.53 1899.1 3277.53 1894.23 L3277.53 1880.16 L3274.41 1880.16 L3274.41 1876.85 L3277.53 1876.85 L3277.53 1869.49 L3281.82 1869.49 Z" fill="#000000" fill-rule="nonzero" fill-opacity="1" /><path clip-path="url(#clip140)" d="M3295.52 1866.8 L3299.22 1866.8 Q3302.7 1872.27 3304.41 1877.5 Q3306.14 1882.73 3306.14 1887.89 Q3306.14 1893.08 3304.41 1898.33 Q3302.7 1903.59 3299.22 1909.03 L3295.52 1909.03 Q3298.6 1903.72 3300.1 1898.49 Q3301.63 1893.24 3301.63 1887.89 Q3301.63 1882.54 3300.1 1877.34 Q3298.6 1872.13 3295.52 1866.8 Z" fill="#000000" fill-rule="nonzero" fill-opacity="1" /><polyline clip-path="url(#clip140)" style="stroke:#ff8c00; stroke-linecap:round; stroke-linejoin:round; stroke-width:6; stroke-opacity:1; fill:none" points="2792.43,1937.34 3005.3,1937.34 "/>
<path clip-path="url(#clip140)" d="M2898.86 1911.74 L2873.26 1962.94 L2924.46 1962.94 L2898.86 1911.74 Z" fill="#ff8c00" fill-rule="evenodd" fill-opacity="1" stroke="none"/>
<path clip-path="url(#clip140)" d="M3051.4 1918.64 Q3048.3 1923.97 3046.79 1929.18 Q3045.29 1934.38 3045.29 1939.73 Q3045.29 1945.08 3046.79 1950.33 Q3048.32 1955.56 3051.4 1960.87 L3047.7 1960.87 Q3044.22 1955.43 3042.49 1950.17 Q3040.78 1944.92 3040.78 1939.73 Q3040.78 1934.57 3042.49 1929.34 Q3044.2 1924.11 3047.7 1918.64 L3051.4 1918.64 Z" fill="#000000" fill-rule="nonzero" fill-opacity="1" /><path clip-path="url(#clip140)" d="M3081.84 1940.59 L3081.84 1942.67 L3062.26 1942.67 Q3062.53 1947.07 3064.9 1949.38 Q3067.28 1951.68 3071.52 1951.68 Q3073.97 1951.68 3076.26 1951.07 Q3078.58 1950.47 3080.84 1949.27 L3080.84 1953.3 Q3078.55 1954.27 3076.15 1954.78 Q3073.74 1955.29 3071.26 1955.29 Q3065.06 1955.29 3061.42 1951.68 Q3057.81 1948.06 3057.81 1941.91 Q3057.81 1935.54 3061.24 1931.81 Q3064.69 1928.06 3070.52 1928.06 Q3075.75 1928.06 3078.78 1931.44 Q3081.84 1934.8 3081.84 1940.59 M3077.58 1939.34 Q3077.53 1935.84 3075.61 1933.76 Q3073.72 1931.68 3070.57 1931.68 Q3067 1931.68 3064.85 1933.69 Q3062.72 1935.7 3062.4 1939.36 L3077.58 1939.34 Z" fill="#000000" fill-rule="nonzero" fill-opacity="1" /><path clip-path="url(#clip140)" d="M3109.55 1928.69 L3100.17 1941.31 L3110.03 1954.62 L3105.01 1954.62 L3097.47 1944.43 L3089.92 1954.62 L3084.9 1954.62 L3094.97 1941.05 L3085.75 1928.69 L3090.78 1928.69 L3097.65 1937.93 L3104.53 1928.69 L3109.55 1928.69 Z" fill="#000000" fill-rule="nonzero" fill-opacity="1" /><path clip-path="url(#clip140)" d="M3127.84 1941.58 Q3122.67 1941.58 3120.68 1942.76 Q3118.69 1943.94 3118.69 1946.79 Q3118.69 1949.06 3120.17 1950.4 Q3121.68 1951.72 3124.25 1951.72 Q3127.79 1951.72 3129.92 1949.22 Q3132.07 1946.7 3132.07 1942.53 L3132.07 1941.58 L3127.84 1941.58 M3136.33 1939.82 L3136.33 1954.62 L3132.07 1954.62 L3132.07 1950.68 Q3130.61 1953.04 3128.44 1954.18 Q3126.26 1955.29 3123.11 1955.29 Q3119.13 1955.29 3116.77 1953.06 Q3114.43 1950.82 3114.43 1947.07 Q3114.43 1942.69 3117.35 1940.47 Q3120.29 1938.25 3126.1 1938.25 L3132.07 1938.25 L3132.07 1937.83 Q3132.07 1934.89 3130.13 1933.3 Q3128.21 1931.68 3124.71 1931.68 Q3122.49 1931.68 3120.38 1932.21 Q3118.28 1932.74 3116.33 1933.81 L3116.33 1929.87 Q3118.67 1928.97 3120.87 1928.53 Q3123.07 1928.06 3125.15 1928.06 Q3130.78 1928.06 3133.55 1930.98 Q3136.33 1933.9 3136.33 1939.82 Z" fill="#000000" fill-rule="nonzero" fill-opacity="1" /><path clip-path="url(#clip140)" d="M3146.19 1948.74 L3151.08 1948.74 L3151.08 1952.72 L3147.28 1960.12 L3144.29 1960.12 L3146.19 1952.72 L3146.19 1948.74 Z" fill="#000000" fill-rule="nonzero" fill-opacity="1" /><path clip-path="url(#clip140)" d="M3195.43 1933.67 Q3197.02 1930.8 3199.25 1929.43 Q3201.47 1928.06 3204.48 1928.06 Q3208.53 1928.06 3210.73 1930.91 Q3212.93 1933.74 3212.93 1938.97 L3212.93 1954.62 L3208.65 1954.62 L3208.65 1939.11 Q3208.65 1935.38 3207.33 1933.57 Q3206.01 1931.77 3203.3 1931.77 Q3199.99 1931.77 3198.07 1933.97 Q3196.15 1936.17 3196.15 1939.96 L3196.15 1954.62 L3191.86 1954.62 L3191.86 1939.11 Q3191.86 1935.36 3190.54 1933.57 Q3189.22 1931.77 3186.47 1931.77 Q3183.21 1931.77 3181.28 1933.99 Q3179.36 1936.19 3179.36 1939.96 L3179.36 1954.62 L3175.08 1954.62 L3175.08 1928.69 L3179.36 1928.69 L3179.36 1932.72 Q3180.82 1930.33 3182.86 1929.2 Q3184.9 1928.06 3187.7 1928.06 Q3190.52 1928.06 3192.49 1929.5 Q3194.48 1930.94 3195.43 1933.67 Z" fill="#000000" fill-rule="nonzero" fill-opacity="1" /><path clip-path="url(#clip140)" d="M3233.21 1941.58 Q3228.04 1941.58 3226.05 1942.76 Q3224.06 1943.94 3224.06 1946.79 Q3224.06 1949.06 3225.54 1950.4 Q3227.05 1951.72 3229.62 1951.72 Q3233.16 1951.72 3235.29 1949.22 Q3237.44 1946.7 3237.44 1942.53 L3237.44 1941.58 L3233.21 1941.58 M3241.7 1939.82 L3241.7 1954.62 L3237.44 1954.62 L3237.44 1950.68 Q3235.98 1953.04 3233.81 1954.18 Q3231.63 1955.29 3228.48 1955.29 Q3224.5 1955.29 3222.14 1953.06 Q3219.8 1950.82 3219.8 1947.07 Q3219.8 1942.69 3222.72 1940.47 Q3225.66 1938.25 3231.47 1938.25 L3237.44 1938.25 L3237.44 1937.83 Q3237.44 1934.89 3235.5 1933.3 Q3233.58 1931.68 3230.08 1931.68 Q3227.86 1931.68 3225.75 1932.21 Q3223.64 1932.74 3221.7 1933.81 L3221.7 1929.87 Q3224.04 1928.97 3226.24 1928.53 Q3228.44 1928.06 3230.52 1928.06 Q3236.14 1928.06 3238.92 1930.98 Q3241.7 1933.9 3241.7 1939.82 Z" fill="#000000" fill-rule="nonzero" fill-opacity="1" /><path clip-path="url(#clip140)" d="M3267.53 1932.62 L3267.53 1918.6 L3271.79 1918.6 L3271.79 1954.62 L3267.53 1954.62 L3267.53 1950.73 Q3266.19 1953.04 3264.13 1954.18 Q3262.09 1955.29 3259.22 1955.29 Q3254.52 1955.29 3251.56 1951.54 Q3248.62 1947.79 3248.62 1941.68 Q3248.62 1935.56 3251.56 1931.81 Q3254.52 1928.06 3259.22 1928.06 Q3262.09 1928.06 3264.13 1929.2 Q3266.19 1930.31 3267.53 1932.62 M3253.02 1941.68 Q3253.02 1946.37 3254.94 1949.06 Q3256.89 1951.72 3260.27 1951.72 Q3263.64 1951.72 3265.59 1949.06 Q3267.53 1946.37 3267.53 1941.68 Q3267.53 1936.98 3265.59 1934.31 Q3263.64 1931.63 3260.27 1931.63 Q3256.89 1931.63 3254.94 1934.31 Q3253.02 1936.98 3253.02 1941.68 Z" fill="#000000" fill-rule="nonzero" fill-opacity="1" /><path clip-path="url(#clip140)" d="M3302.12 1938.97 L3302.12 1954.62 L3297.86 1954.62 L3297.86 1939.11 Q3297.86 1935.43 3296.42 1933.6 Q3294.99 1931.77 3292.12 1931.77 Q3288.67 1931.77 3286.68 1933.97 Q3284.69 1936.17 3284.69 1939.96 L3284.69 1954.62 L3280.4 1954.62 L3280.4 1928.69 L3284.69 1928.69 L3284.69 1932.72 Q3286.21 1930.38 3288.27 1929.22 Q3290.36 1928.06 3293.07 1928.06 Q3297.53 1928.06 3299.83 1930.84 Q3302.12 1933.6 3302.12 1938.97 Z" fill="#000000" fill-rule="nonzero" fill-opacity="1" /><path clip-path="url(#clip140)" d="M3310.61 1918.6 L3314.87 1918.6 L3314.87 1954.62 L3310.61 1954.62 L3310.61 1918.6 Z" fill="#000000" fill-rule="nonzero" fill-opacity="1" /><path clip-path="url(#clip140)" d="M3327.9 1950.73 L3327.9 1964.48 L3323.62 1964.48 L3323.62 1928.69 L3327.9 1928.69 L3327.9 1932.62 Q3329.25 1930.31 3331.28 1929.2 Q3333.34 1928.06 3336.19 1928.06 Q3340.91 1928.06 3343.85 1931.81 Q3346.82 1935.56 3346.82 1941.68 Q3346.82 1947.79 3343.85 1951.54 Q3340.91 1955.29 3336.19 1955.29 Q3333.34 1955.29 3331.28 1954.18 Q3329.25 1953.04 3327.9 1950.73 M3342.39 1941.68 Q3342.39 1936.98 3340.45 1934.31 Q3338.53 1931.63 3335.15 1931.63 Q3331.77 1931.63 3329.82 1934.31 Q3327.9 1936.98 3327.9 1941.68 Q3327.9 1946.37 3329.82 1949.06 Q3331.77 1951.72 3335.15 1951.72 Q3338.53 1951.72 3340.45 1949.06 Q3342.39 1946.37 3342.39 1941.68 Z" fill="#000000" fill-rule="nonzero" fill-opacity="1" /><path clip-path="url(#clip140)" d="M3353.2 1918.64 L3356.91 1918.64 Q3360.38 1924.11 3362.09 1929.34 Q3363.83 1934.57 3363.83 1939.73 Q3363.83 1944.92 3362.09 1950.17 Q3360.38 1955.43 3356.91 1960.87 L3353.2 1960.87 Q3356.28 1955.56 3357.79 1950.33 Q3359.32 1945.08 3359.32 1939.73 Q3359.32 1934.38 3357.79 1929.18 Q3356.28 1923.97 3353.2 1918.64 Z" fill="#000000" fill-rule="nonzero" fill-opacity="1" /><polyline clip-path="url(#clip140)" style="stroke:#9370db; stroke-linecap:round; stroke-linejoin:round; stroke-width:6; stroke-opacity:1; fill:none" points="2792.43,1989.18 3005.3,1989.18 "/>
<path clip-path="url(#clip140)" d="M2924.46 1963.58 L2873.26 1963.58 L2898.86 2014.78 L2924.46 1963.58 Z" fill="#9370db" fill-rule="evenodd" fill-opacity="1" stroke="none"/>
<path clip-path="url(#clip140)" d="M3051.4 1970.48 Q3048.3 1975.81 3046.79 1981.02 Q3045.29 1986.22 3045.29 1991.57 Q3045.29 1996.92 3046.79 2002.17 Q3048.32 2007.4 3051.4 2012.71 L3047.7 2012.71 Q3044.22 2007.27 3042.49 2002.01 Q3040.78 1996.76 3040.78 1991.57 Q3040.78 1986.41 3042.49 1981.18 Q3044.2 1975.95 3047.7 1970.48 L3051.4 1970.48 Z" fill="#000000" fill-rule="nonzero" fill-opacity="1" /><path clip-path="url(#clip140)" d="M3059.66 1980.53 L3063.92 1980.53 L3063.92 2006.92 Q3063.92 2011.87 3062.03 2014.09 Q3060.15 2016.32 3055.96 2016.32 L3054.34 2016.32 L3054.34 2012.71 L3055.47 2012.71 Q3057.91 2012.71 3058.78 2011.57 Q3059.66 2010.46 3059.66 2006.92 L3059.66 1980.53 M3059.66 1970.44 L3063.92 1970.44 L3063.92 1975.83 L3059.66 1975.83 L3059.66 1970.44 Z" fill="#000000" fill-rule="nonzero" fill-opacity="1" /><path clip-path="url(#clip140)" d="M3072.4 1996.22 L3072.4 1980.53 L3076.66 1980.53 L3076.66 1996.06 Q3076.66 1999.74 3078.09 2001.59 Q3079.53 2003.42 3082.4 2003.42 Q3085.84 2003.42 3087.84 2001.22 Q3089.85 1999.03 3089.85 1995.23 L3089.85 1980.53 L3094.11 1980.53 L3094.11 2006.46 L3089.85 2006.46 L3089.85 2002.47 Q3088.3 2004.84 3086.24 2005.99 Q3084.2 2007.13 3081.49 2007.13 Q3077.03 2007.13 3074.71 2004.35 Q3072.4 2001.57 3072.4 1996.22 M3083.11 1979.9 L3083.11 1979.9 Z" fill="#000000" fill-rule="nonzero" fill-opacity="1" /><path clip-path="url(#clip140)" d="M3123.07 1985.51 Q3124.66 1982.64 3126.89 1981.27 Q3129.11 1979.9 3132.12 1979.9 Q3136.17 1979.9 3138.37 1982.75 Q3140.57 1985.58 3140.57 1990.81 L3140.57 2006.46 L3136.28 2006.46 L3136.28 1990.95 Q3136.28 1987.22 3134.96 1985.41 Q3133.65 1983.61 3130.94 1983.61 Q3127.63 1983.61 3125.71 1985.81 Q3123.78 1988.01 3123.78 1991.8 L3123.78 2006.46 L3119.5 2006.46 L3119.5 1990.95 Q3119.5 1987.2 3118.18 1985.41 Q3116.86 1983.61 3114.11 1983.61 Q3110.84 1983.61 3108.92 1985.83 Q3107 1988.03 3107 1991.8 L3107 2006.46 L3102.72 2006.46 L3102.72 1980.53 L3107 1980.53 L3107 1984.56 Q3108.46 1982.17 3110.5 1981.04 Q3112.53 1979.9 3115.34 1979.9 Q3118.16 1979.9 3120.13 1981.34 Q3122.12 1982.78 3123.07 1985.51 Z" fill="#000000" fill-rule="nonzero" fill-opacity="1" /><path clip-path="url(#clip140)" d="M3153.18 2002.57 L3153.18 2016.32 L3148.9 2016.32 L3148.9 1980.53 L3153.18 1980.53 L3153.18 1984.46 Q3154.52 1982.15 3156.56 1981.04 Q3158.62 1979.9 3161.47 1979.9 Q3166.19 1979.9 3169.13 1983.65 Q3172.09 1987.4 3172.09 1993.52 Q3172.09 1999.63 3169.13 2003.38 Q3166.19 2007.13 3161.47 2007.13 Q3158.62 2007.13 3156.56 2006.02 Q3154.52 2004.88 3153.18 2002.57 M3167.67 1993.52 Q3167.67 1988.82 3165.73 1986.15 Q3163.81 1983.47 3160.43 1983.47 Q3157.05 1983.47 3155.1 1986.15 Q3153.18 1988.82 3153.18 1993.52 Q3153.18 1998.21 3155.1 2000.9 Q3157.05 2003.56 3160.43 2003.56 Q3163.81 2003.56 3165.73 2000.9 Q3167.67 1998.21 3167.67 1993.52 Z" fill="#000000" fill-rule="nonzero" fill-opacity="1" /><path clip-path="url(#clip140)" d="M3180.24 2000.58 L3185.13 2000.58 L3185.13 2004.56 L3181.33 2011.96 L3178.34 2011.96 L3180.24 2004.56 L3180.24 2000.58 Z" fill="#000000" fill-rule="nonzero" fill-opacity="1" /><path clip-path="url(#clip140)" d="M3209.29 1980.53 L3213.55 1980.53 L3213.55 2006.46 L3209.29 2006.46 L3209.29 1980.53 M3209.29 1970.44 L3213.55 1970.44 L3213.55 1975.83 L3209.29 1975.83 L3209.29 1970.44 Z" fill="#000000" fill-rule="nonzero" fill-opacity="1" /><path clip-path="url(#clip140)" d="M3226.58 2002.57 L3226.58 2016.32 L3222.3 2016.32 L3222.3 1980.53 L3226.58 1980.53 L3226.58 1984.46 Q3227.93 1982.15 3229.96 1981.04 Q3232.02 1979.9 3234.87 1979.9 Q3239.59 1979.9 3242.53 1983.65 Q3245.5 1987.4 3245.5 1993.52 Q3245.5 1999.63 3242.53 2003.38 Q3239.59 2007.13 3234.87 2007.13 Q3232.02 2007.13 3229.96 2006.02 Q3227.93 2004.88 3226.58 2002.57 M3241.08 1993.52 Q3241.08 1988.82 3239.13 1986.15 Q3237.21 1983.47 3233.83 1983.47 Q3230.45 1983.47 3228.51 1986.15 Q3226.58 1988.82 3226.58 1993.52 Q3226.58 1998.21 3228.51 2000.9 Q3230.45 2003.56 3233.83 2003.56 Q3237.21 2003.56 3239.13 2000.9 Q3241.08 1998.21 3241.08 1993.52 Z" fill="#000000" fill-rule="nonzero" fill-opacity="1" /><path clip-path="url(#clip140)" d="M3262.6 1983.52 Q3259.18 1983.52 3257.19 1986.2 Q3255.2 1988.86 3255.2 1993.52 Q3255.2 1998.17 3257.16 2000.85 Q3259.15 2003.52 3262.6 2003.52 Q3266.01 2003.52 3268 2000.83 Q3269.99 1998.15 3269.99 1993.52 Q3269.99 1988.91 3268 1986.22 Q3266.01 1983.52 3262.6 1983.52 M3262.6 1979.9 Q3268.16 1979.9 3271.33 1983.52 Q3274.5 1987.13 3274.5 1993.52 Q3274.5 1999.88 3271.33 2003.52 Q3268.16 2007.13 3262.6 2007.13 Q3257.02 2007.13 3253.85 2003.52 Q3250.71 1999.88 3250.71 1993.52 Q3250.71 1987.13 3253.85 1983.52 Q3257.02 1979.9 3262.6 1979.9 Z" fill="#000000" fill-rule="nonzero" fill-opacity="1" /><path clip-path="url(#clip140)" d="M3285.68 2002.57 L3285.68 2016.32 L3281.4 2016.32 L3281.4 1980.53 L3285.68 1980.53 L3285.68 1984.46 Q3287.02 1982.15 3289.06 1981.04 Q3291.12 1979.9 3293.97 1979.9 Q3298.69 1979.9 3301.63 1983.65 Q3304.59 1987.4 3304.59 1993.52 Q3304.59 1999.63 3301.63 2003.38 Q3298.69 2007.13 3293.97 2007.13 Q3291.12 2007.13 3289.06 2006.02 Q3287.02 2004.88 3285.68 2002.57 M3300.17 1993.52 Q3300.17 1988.82 3298.23 1986.15 Q3296.31 1983.47 3292.93 1983.47 Q3289.55 1983.47 3287.6 1986.15 Q3285.68 1988.82 3285.68 1993.52 Q3285.68 1998.21 3287.6 2000.9 Q3289.55 2003.56 3292.93 2003.56 Q3296.31 2003.56 3298.23 2000.9 Q3300.17 1998.21 3300.17 1993.52 Z" fill="#000000" fill-rule="nonzero" fill-opacity="1" /><path clip-path="url(#clip140)" d="M3315.87 1973.17 L3315.87 1980.53 L3324.64 1980.53 L3324.64 1983.84 L3315.87 1983.84 L3315.87 1997.91 Q3315.87 2001.09 3316.72 2001.99 Q3317.6 2002.89 3320.26 2002.89 L3324.64 2002.89 L3324.64 2006.46 L3320.26 2006.46 Q3315.33 2006.46 3313.46 2004.63 Q3311.58 2002.78 3311.58 1997.91 L3311.58 1983.84 L3308.46 1983.84 L3308.46 1980.53 L3311.58 1980.53 L3311.58 1973.17 L3315.87 1973.17 Z" fill="#000000" fill-rule="nonzero" fill-opacity="1" /><path clip-path="url(#clip140)" d="M3329.57 1970.48 L3333.27 1970.48 Q3336.75 1975.95 3338.46 1981.18 Q3340.2 1986.41 3340.2 1991.57 Q3340.2 1996.76 3338.46 2002.01 Q3336.75 2007.27 3333.27 2012.71 L3329.57 2012.71 Q3332.65 2007.4 3334.15 2002.17 Q3335.68 1996.92 3335.68 1991.57 Q3335.68 1986.22 3334.15 1981.02 Q3332.65 1975.81 3329.57 1970.48 Z" fill="#000000" fill-rule="nonzero" fill-opacity="1" /><polyline clip-path="url(#clip140)" style="stroke:#a0522d; stroke-linecap:round; stroke-linejoin:round; stroke-width:6; stroke-opacity:1; fill:none" points="2792.43,2041.02 3005.3,2041.02 "/>
<path clip-path="url(#clip140)" d="M2898.86 2015.42 L2892.85 2032.72 L2874.52 2033.11 L2889.13 2044.19 L2883.81 2061.73 L2898.86 2051.26 L2913.92 2061.73 L2908.59 2044.19 L2923.21 2033.11 L2904.88 2032.72 L2898.86 2015.42 Z" fill="#a0522d" fill-rule="evenodd" fill-opacity="1" stroke="none"/>
<path clip-path="url(#clip140)" d="M3051.4 2022.32 Q3048.3 2027.65 3046.79 2032.86 Q3045.29 2038.06 3045.29 2043.41 Q3045.29 2048.76 3046.79 2054.01 Q3048.32 2059.24 3051.4 2064.55 L3047.7 2064.55 Q3044.22 2059.11 3042.49 2053.85 Q3040.78 2048.6 3040.78 2043.41 Q3040.78 2038.25 3042.49 2033.02 Q3044.2 2027.79 3047.7 2022.32 L3051.4 2022.32 Z" fill="#000000" fill-rule="nonzero" fill-opacity="1" /><path clip-path="url(#clip140)" d="M3059.66 2032.37 L3063.92 2032.37 L3063.92 2058.76 Q3063.92 2063.71 3062.03 2065.93 Q3060.15 2068.16 3055.96 2068.16 L3054.34 2068.16 L3054.34 2064.55 L3055.47 2064.55 Q3057.91 2064.55 3058.78 2063.41 Q3059.66 2062.3 3059.66 2058.76 L3059.66 2032.37 M3059.66 2022.28 L3063.92 2022.28 L3063.92 2027.67 L3059.66 2027.67 L3059.66 2022.28 Z" fill="#000000" fill-rule="nonzero" fill-opacity="1" /><path clip-path="url(#clip140)" d="M3072.4 2048.06 L3072.4 2032.37 L3076.66 2032.37 L3076.66 2047.9 Q3076.66 2051.58 3078.09 2053.43 Q3079.53 2055.26 3082.4 2055.26 Q3085.84 2055.26 3087.84 2053.06 Q3089.85 2050.87 3089.85 2047.07 L3089.85 2032.37 L3094.11 2032.37 L3094.11 2058.3 L3089.85 2058.3 L3089.85 2054.31 Q3088.3 2056.68 3086.24 2057.83 Q3084.2 2058.97 3081.49 2058.97 Q3077.03 2058.97 3074.71 2056.19 Q3072.4 2053.41 3072.4 2048.06 M3083.11 2031.74 L3083.11 2031.74 Z" fill="#000000" fill-rule="nonzero" fill-opacity="1" /><path clip-path="url(#clip140)" d="M3123.07 2037.35 Q3124.66 2034.48 3126.89 2033.11 Q3129.11 2031.74 3132.12 2031.74 Q3136.17 2031.74 3138.37 2034.59 Q3140.57 2037.42 3140.57 2042.65 L3140.57 2058.3 L3136.28 2058.3 L3136.28 2042.79 Q3136.28 2039.06 3134.96 2037.25 Q3133.65 2035.45 3130.94 2035.45 Q3127.63 2035.45 3125.71 2037.65 Q3123.78 2039.85 3123.78 2043.64 L3123.78 2058.3 L3119.5 2058.3 L3119.5 2042.79 Q3119.5 2039.04 3118.18 2037.25 Q3116.86 2035.45 3114.11 2035.45 Q3110.84 2035.45 3108.92 2037.67 Q3107 2039.87 3107 2043.64 L3107 2058.3 L3102.72 2058.3 L3102.72 2032.37 L3107 2032.37 L3107 2036.4 Q3108.46 2034.01 3110.5 2032.88 Q3112.53 2031.74 3115.34 2031.74 Q3118.16 2031.74 3120.13 2033.18 Q3122.12 2034.62 3123.07 2037.35 Z" fill="#000000" fill-rule="nonzero" fill-opacity="1" /><path clip-path="url(#clip140)" d="M3153.18 2054.41 L3153.18 2068.16 L3148.9 2068.16 L3148.9 2032.37 L3153.18 2032.37 L3153.18 2036.3 Q3154.52 2033.99 3156.56 2032.88 Q3158.62 2031.74 3161.47 2031.74 Q3166.19 2031.74 3169.13 2035.49 Q3172.09 2039.24 3172.09 2045.36 Q3172.09 2051.47 3169.13 2055.22 Q3166.19 2058.97 3161.47 2058.97 Q3158.62 2058.97 3156.56 2057.86 Q3154.52 2056.72 3153.18 2054.41 M3167.67 2045.36 Q3167.67 2040.66 3165.73 2037.99 Q3163.81 2035.31 3160.43 2035.31 Q3157.05 2035.31 3155.1 2037.99 Q3153.18 2040.66 3153.18 2045.36 Q3153.18 2050.05 3155.1 2052.74 Q3157.05 2055.4 3160.43 2055.4 Q3163.81 2055.4 3165.73 2052.74 Q3167.67 2050.05 3167.67 2045.36 Z" fill="#000000" fill-rule="nonzero" fill-opacity="1" /><path clip-path="url(#clip140)" d="M3180.24 2052.42 L3185.13 2052.42 L3185.13 2056.4 L3181.33 2063.8 L3178.34 2063.8 L3180.24 2056.4 L3180.24 2052.42 Z" fill="#000000" fill-rule="nonzero" fill-opacity="1" /><path clip-path="url(#clip140)" d="M3229.48 2037.35 Q3231.08 2034.48 3233.3 2033.11 Q3235.52 2031.74 3238.53 2031.74 Q3242.58 2031.74 3244.78 2034.59 Q3246.98 2037.42 3246.98 2042.65 L3246.98 2058.3 L3242.7 2058.3 L3242.7 2042.79 Q3242.7 2039.06 3241.38 2037.25 Q3240.06 2035.45 3237.35 2035.45 Q3234.04 2035.45 3232.12 2037.65 Q3230.2 2039.85 3230.2 2043.64 L3230.2 2058.3 L3225.91 2058.3 L3225.91 2042.79 Q3225.91 2039.04 3224.59 2037.25 Q3223.27 2035.45 3220.52 2035.45 Q3217.26 2035.45 3215.33 2037.67 Q3213.41 2039.87 3213.41 2043.64 L3213.41 2058.3 L3209.13 2058.3 L3209.13 2032.37 L3213.41 2032.37 L3213.41 2036.4 Q3214.87 2034.01 3216.91 2032.88 Q3218.95 2031.74 3221.75 2031.74 Q3224.57 2031.74 3226.54 2033.18 Q3228.53 2034.62 3229.48 2037.35 Z" fill="#000000" fill-rule="nonzero" fill-opacity="1" /><path clip-path="url(#clip140)" d="M3267.26 2045.26 Q3262.09 2045.26 3260.1 2046.44 Q3258.11 2047.62 3258.11 2050.47 Q3258.11 2052.74 3259.59 2054.08 Q3261.1 2055.4 3263.67 2055.4 Q3267.21 2055.4 3269.34 2052.9 Q3271.49 2050.38 3271.49 2046.21 L3271.49 2045.26 L3267.26 2045.26 M3275.75 2043.5 L3275.75 2058.3 L3271.49 2058.3 L3271.49 2054.36 Q3270.03 2056.72 3267.86 2057.86 Q3265.68 2058.97 3262.53 2058.97 Q3258.55 2058.97 3256.19 2056.74 Q3253.85 2054.5 3253.85 2050.75 Q3253.85 2046.37 3256.77 2044.15 Q3259.71 2041.93 3265.52 2041.93 L3271.49 2041.93 L3271.49 2041.51 Q3271.49 2038.57 3269.55 2036.98 Q3267.63 2035.36 3264.13 2035.36 Q3261.91 2035.36 3259.8 2035.89 Q3257.7 2036.42 3255.75 2037.49 L3255.75 2033.55 Q3258.09 2032.65 3260.29 2032.21 Q3262.49 2031.74 3264.57 2031.74 Q3270.2 2031.74 3272.97 2034.66 Q3275.75 2037.58 3275.75 2043.5 Z" fill="#000000" fill-rule="nonzero" fill-opacity="1" /><path clip-path="url(#clip140)" d="M3301.58 2036.3 L3301.58 2022.28 L3305.84 2022.28 L3305.84 2058.3 L3301.58 2058.3 L3301.58 2054.41 Q3300.24 2056.72 3298.18 2057.86 Q3296.14 2058.97 3293.27 2058.97 Q3288.58 2058.97 3285.61 2055.22 Q3282.67 2051.47 3282.67 2045.36 Q3282.67 2039.24 3285.61 2035.49 Q3288.58 2031.74 3293.27 2031.74 Q3296.14 2031.74 3298.18 2032.88 Q3300.24 2033.99 3301.58 2036.3 M3287.07 2045.36 Q3287.07 2050.05 3288.99 2052.74 Q3290.94 2055.4 3294.32 2055.4 Q3297.7 2055.4 3299.64 2052.74 Q3301.58 2050.05 3301.58 2045.36 Q3301.58 2040.66 3299.64 2037.99 Q3297.7 2035.31 3294.32 2035.31 Q3290.94 2035.31 3288.99 2037.99 Q3287.07 2040.66 3287.07 2045.36 Z" fill="#000000" fill-rule="nonzero" fill-opacity="1" /><path clip-path="url(#clip140)" d="M3336.17 2042.65 L3336.17 2058.3 L3331.91 2058.3 L3331.91 2042.79 Q3331.91 2039.11 3330.47 2037.28 Q3329.04 2035.45 3326.17 2035.45 Q3322.72 2035.45 3320.73 2037.65 Q3318.74 2039.85 3318.74 2043.64 L3318.74 2058.3 L3314.45 2058.3 L3314.45 2032.37 L3318.74 2032.37 L3318.74 2036.4 Q3320.26 2034.06 3322.32 2032.9 Q3324.41 2031.74 3327.12 2031.74 Q3331.58 2031.74 3333.88 2034.52 Q3336.17 2037.28 3336.17 2042.65 Z" fill="#000000" fill-rule="nonzero" fill-opacity="1" /><path clip-path="url(#clip140)" d="M3344.66 2022.28 L3348.92 2022.28 L3348.92 2058.3 L3344.66 2058.3 L3344.66 2022.28 Z" fill="#000000" fill-rule="nonzero" fill-opacity="1" /><path clip-path="url(#clip140)" d="M3361.95 2054.41 L3361.95 2068.16 L3357.67 2068.16 L3357.67 2032.37 L3361.95 2032.37 L3361.95 2036.3 Q3363.3 2033.99 3365.33 2032.88 Q3367.39 2031.74 3370.24 2031.74 Q3374.96 2031.74 3377.9 2035.49 Q3380.87 2039.24 3380.87 2045.36 Q3380.87 2051.47 3377.9 2055.22 Q3374.96 2058.97 3370.24 2058.97 Q3367.39 2058.97 3365.33 2057.86 Q3363.3 2056.72 3361.95 2054.41 M3376.45 2045.36 Q3376.45 2040.66 3374.5 2037.99 Q3372.58 2035.31 3369.2 2035.31 Q3365.82 2035.31 3363.88 2037.99 Q3361.95 2040.66 3361.95 2045.36 Q3361.95 2050.05 3363.88 2052.74 Q3365.82 2055.4 3369.2 2055.4 Q3372.58 2055.4 3374.5 2052.74 Q3376.45 2050.05 3376.45 2045.36 Z" fill="#000000" fill-rule="nonzero" fill-opacity="1" /><path clip-path="url(#clip140)" d="M3387.26 2022.32 L3390.96 2022.32 Q3394.43 2027.79 3396.14 2033.02 Q3397.88 2038.25 3397.88 2043.41 Q3397.88 2048.6 3396.14 2053.85 Q3394.43 2059.11 3390.96 2064.55 L3387.26 2064.55 Q3390.33 2059.24 3391.84 2054.01 Q3393.37 2048.76 3393.37 2043.41 Q3393.37 2038.06 3391.84 2032.86 Q3390.33 2027.65 3387.26 2022.32 Z" fill="#000000" fill-rule="nonzero" fill-opacity="1" /></svg>
