<?xml version="1.0" encoding="utf-8"?>
<svg xmlns="http://www.w3.org/2000/svg" xmlns:xlink="http://www.w3.org/1999/xlink" width="900" height="600" viewBox="0 0 3600 2400">
<defs>
  <clipPath id="clip860">
    <rect x="0" y="0" width="3600" height="2400"/>
  </clipPath>
</defs>
<path clip-path="url(#clip860)" d="M0 2400 L3600 2400 L3600 0 L0 0  Z" fill="#ffffff" fill-rule="evenodd" fill-opacity="1"/>
<defs>
  <clipPath id="clip861">
    <rect x="320" y="246" width="3234" height="1911"/>
  </clipPath>
</defs>
<path clip-path="url(#clip860)" d="M292.309 2156.51 L3552.76 2156.51 L3552.76 246.944 L292.309 246.944  Z" fill="#ffffff" fill-rule="evenodd" fill-opacity="1"/>
<defs>
  <clipPath id="clip862">
    <rect x="292" y="246" width="3261" height="1911"/>
  </clipPath>
</defs>
<polyline clip-path="url(#clip862)" style="stroke:#000000; stroke-linecap:round; stroke-linejoin:round; stroke-width:2; stroke-opacity:0.1; fill:none" points="440.511,2156.51 440.511,246.944 "/>
<polyline clip-path="url(#clip862)" style="stroke:#000000; stroke-linecap:round; stroke-linejoin:round; stroke-width:2; stroke-opacity:0.1; fill:none" points="2128.01,2156.51 2128.01,246.944 "/>
<polyline clip-path="url(#clip862)" style="stroke:#000000; stroke-linecap:round; stroke-linejoin:round; stroke-width:2; stroke-opacity:0.1; fill:none" points="3404.55,2156.51 3404.55,246.944 "/>
<polyline clip-path="url(#clip862)" style="stroke:#000000; stroke-linecap:round; stroke-linejoin:round; stroke-width:2; stroke-opacity:0.1; fill:none" points="292.309,1378.01 3552.76,1378.01 "/>
<polyline clip-path="url(#clip862)" style="stroke:#000000; stroke-linecap:round; stroke-linejoin:round; stroke-width:2; stroke-opacity:0.1; fill:none" points="292.309,483.932 3552.76,483.932 "/>
<polyline clip-path="url(#clip860)" style="stroke:#000000; stroke-linecap:round; stroke-linejoin:round; stroke-width:4; stroke-opacity:1; fill:none" points="292.309,2156.51 3552.76,2156.51 "/>
<polyline clip-path="url(#clip860)" style="stroke:#000000; stroke-linecap:round; stroke-linejoin:round; stroke-width:4; stroke-opacity:1; fill:none" points="440.511,2156.51 440.511,2137.61 "/>
<polyline clip-path="url(#clip860)" style="stroke:#000000; stroke-linecap:round; stroke-linejoin:round; stroke-width:4; stroke-opacity:1; fill:none" points="2128.01,2156.51 2128.01,2137.61 "/>
<polyline clip-path="url(#clip860)" style="stroke:#000000; stroke-linecap:round; stroke-linejoin:round; stroke-width:4; stroke-opacity:1; fill:none" points="3404.55,2156.51 3404.55,2137.61 "/>
<path clip-path="url(#clip860)" d="M404.204 2224.57 L420.523 2224.57 L420.523 2228.51 L398.579 2228.51 L398.579 2224.57 Q401.241 2221.82 405.824 2217.19 Q410.43 2212.54 411.611 2211.19 Q413.856 2208.67 414.736 2206.93 Q415.639 2205.17 415.639 2203.48 Q415.639 2200.73 413.694 2198.99 Q411.773 2197.26 408.671 2197.26 Q406.472 2197.26 404.018 2198.02 Q401.588 2198.79 398.81 2200.34 L398.81 2195.61 Q401.634 2194.48 404.088 2193.9 Q406.542 2193.32 408.579 2193.32 Q413.949 2193.32 417.143 2196.01 Q420.338 2198.69 420.338 2203.18 Q420.338 2205.31 419.528 2207.23 Q418.741 2209.13 416.634 2211.73 Q416.055 2212.4 412.954 2215.61 Q409.852 2218.81 404.204 2224.57 Z" fill="#000000" fill-rule="nonzero" fill-opacity="1" /><path clip-path="url(#clip860)" d="M440.338 2197.03 Q436.727 2197.03 434.898 2200.59 Q433.092 2204.13 433.092 2211.26 Q433.092 2218.37 434.898 2221.93 Q436.727 2225.48 440.338 2225.48 Q443.972 2225.48 445.778 2221.93 Q447.606 2218.37 447.606 2211.26 Q447.606 2204.13 445.778 2200.59 Q443.972 2197.03 440.338 2197.03 M440.338 2193.32 Q446.148 2193.32 449.203 2197.93 Q452.282 2202.51 452.282 2211.26 Q452.282 2219.99 449.203 2224.6 Q446.148 2229.18 440.338 2229.18 Q434.528 2229.18 431.449 2224.6 Q428.393 2219.99 428.393 2211.26 Q428.393 2202.51 431.449 2197.93 Q434.528 2193.32 440.338 2193.32 Z" fill="#000000" fill-rule="nonzero" fill-opacity="1" /><path clip-path="url(#clip860)" d="M470.5 2197.03 Q466.889 2197.03 465.06 2200.59 Q463.254 2204.13 463.254 2211.26 Q463.254 2218.37 465.06 2221.93 Q466.889 2225.48 470.5 2225.48 Q474.134 2225.48 475.939 2221.93 Q477.768 2218.37 477.768 2211.26 Q477.768 2204.13 475.939 2200.59 Q474.134 2197.03 470.5 2197.03 M470.5 2193.32 Q476.31 2193.32 479.365 2197.93 Q482.444 2202.51 482.444 2211.26 Q482.444 2219.99 479.365 2224.6 Q476.31 2229.18 470.5 2229.18 Q464.689 2229.18 461.611 2224.6 Q458.555 2219.99 458.555 2211.26 Q458.555 2202.51 461.611 2197.93 Q464.689 2193.32 470.5 2193.32 Z" fill="#000000" fill-rule="nonzero" fill-opacity="1" /><path clip-path="url(#clip860)" d="M2087.63 2193.95 L2105.98 2193.95 L2105.98 2197.88 L2091.91 2197.88 L2091.91 2206.36 Q2092.93 2206.01 2093.95 2205.85 Q2094.97 2205.66 2095.98 2205.66 Q2101.77 2205.66 2105.15 2208.83 Q2108.53 2212 2108.53 2217.42 Q2108.53 2223 2105.06 2226.1 Q2101.59 2229.18 2095.27 2229.18 Q2093.09 2229.18 2090.82 2228.81 Q2088.58 2228.44 2086.17 2227.7 L2086.17 2223 Q2088.25 2224.13 2090.48 2224.69 Q2092.7 2225.24 2095.17 2225.24 Q2099.18 2225.24 2101.52 2223.14 Q2103.86 2221.03 2103.86 2217.42 Q2103.86 2213.81 2101.52 2211.7 Q2099.18 2209.6 2095.17 2209.6 Q2093.3 2209.6 2091.42 2210.01 Q2089.57 2210.43 2087.63 2211.31 L2087.63 2193.95 Z" fill="#000000" fill-rule="nonzero" fill-opacity="1" /><path clip-path="url(#clip860)" d="M2127.74 2197.03 Q2124.13 2197.03 2122.3 2200.59 Q2120.5 2204.13 2120.5 2211.26 Q2120.5 2218.37 2122.3 2221.93 Q2124.13 2225.48 2127.74 2225.48 Q2131.38 2225.48 2133.18 2221.93 Q2135.01 2218.37 2135.01 2211.26 Q2135.01 2204.13 2133.18 2200.59 Q2131.38 2197.03 2127.74 2197.03 M2127.74 2193.32 Q2133.55 2193.32 2136.61 2197.93 Q2139.69 2202.51 2139.69 2211.26 Q2139.69 2219.99 2136.61 2224.6 Q2133.55 2229.18 2127.74 2229.18 Q2121.93 2229.18 2118.86 2224.6 Q2115.8 2219.99 2115.8 2211.26 Q2115.8 2202.51 2118.86 2197.93 Q2121.93 2193.32 2127.74 2193.32 Z" fill="#000000" fill-rule="nonzero" fill-opacity="1" /><path clip-path="url(#clip860)" d="M2157.91 2197.03 Q2154.29 2197.03 2152.47 2200.59 Q2150.66 2204.13 2150.66 2211.26 Q2150.66 2218.37 2152.47 2221.93 Q2154.29 2225.48 2157.91 2225.48 Q2161.54 2225.48 2163.35 2221.93 Q2165.17 2218.37 2165.17 2211.26 Q2165.17 2204.13 2163.35 2200.59 Q2161.54 2197.03 2157.91 2197.03 M2157.91 2193.32 Q2163.72 2193.32 2166.77 2197.93 Q2169.85 2202.51 2169.85 2211.26 Q2169.85 2219.99 2166.77 2224.6 Q2163.72 2229.18 2157.91 2229.18 Q2152.1 2229.18 2149.02 2224.6 Q2145.96 2219.99 2145.96 2211.26 Q2145.96 2202.51 2149.02 2197.93 Q2152.1 2193.32 2157.91 2193.32 Z" fill="#000000" fill-rule="nonzero" fill-opacity="1" /><path clip-path="url(#clip860)" d="M3349.08 2224.57 L3356.72 2224.57 L3356.72 2198.21 L3348.41 2199.87 L3348.41 2195.61 L3356.67 2193.95 L3361.35 2193.95 L3361.35 2224.57 L3368.99 2224.57 L3368.99 2228.51 L3349.08 2228.51 L3349.08 2224.57 Z" fill="#000000" fill-rule="nonzero" fill-opacity="1" /><path clip-path="url(#clip860)" d="M3388.43 2197.03 Q3384.82 2197.03 3382.99 2200.59 Q3381.19 2204.13 3381.19 2211.26 Q3381.19 2218.37 3382.99 2221.93 Q3384.82 2225.48 3388.43 2225.48 Q3392.07 2225.48 3393.87 2221.93 Q3395.7 2218.37 3395.7 2211.26 Q3395.7 2204.13 3393.87 2200.59 Q3392.07 2197.03 3388.43 2197.03 M3388.43 2193.32 Q3394.24 2193.32 3397.3 2197.93 Q3400.38 2202.51 3400.38 2211.26 Q3400.38 2219.99 3397.3 2224.6 Q3394.24 2229.18 3388.43 2229.18 Q3382.62 2229.18 3379.54 2224.6 Q3376.49 2219.99 3376.49 2211.26 Q3376.49 2202.51 3379.54 2197.93 Q3382.62 2193.32 3388.43 2193.32 Z" fill="#000000" fill-rule="nonzero" fill-opacity="1" /><path clip-path="url(#clip860)" d="M3418.59 2197.03 Q3414.98 2197.03 3413.15 2200.59 Q3411.35 2204.13 3411.35 2211.26 Q3411.35 2218.37 3413.15 2221.93 Q3414.98 2225.48 3418.59 2225.48 Q3422.23 2225.48 3424.03 2221.93 Q3425.86 2218.37 3425.86 2211.26 Q3425.86 2204.13 3424.03 2200.59 Q3422.23 2197.03 3418.59 2197.03 M3418.59 2193.32 Q3424.4 2193.32 3427.46 2197.93 Q3430.54 2202.51 3430.54 2211.26 Q3430.54 2219.99 3427.46 2224.6 Q3424.4 2229.18 3418.59 2229.18 Q3412.78 2229.18 3409.7 2224.6 Q3406.65 2219.99 3406.65 2211.26 Q3406.65 2202.51 3409.7 2197.93 Q3412.78 2193.32 3418.59 2193.32 Z" fill="#000000" fill-rule="nonzero" fill-opacity="1" /><path clip-path="url(#clip860)" d="M3448.75 2197.03 Q3445.14 2197.03 3443.32 2200.59 Q3441.51 2204.13 3441.51 2211.26 Q3441.51 2218.37 3443.32 2221.93 Q3445.14 2225.48 3448.75 2225.48 Q3452.39 2225.48 3454.19 2221.93 Q3456.02 2218.37 3456.02 2211.26 Q3456.02 2204.13 3454.19 2200.59 Q3452.39 2197.03 3448.75 2197.03 M3448.75 2193.32 Q3454.57 2193.32 3457.62 2197.93 Q3460.7 2202.51 3460.7 2211.26 Q3460.7 2219.99 3457.62 2224.6 Q3454.57 2229.18 3448.75 2229.18 Q3442.94 2229.18 3439.87 2224.6 Q3436.81 2219.99 3436.81 2211.26 Q3436.81 2202.51 3439.87 2197.93 Q3442.94 2193.32 3448.75 2193.32 Z" fill="#000000" fill-rule="nonzero" fill-opacity="1" /><path clip-path="url(#clip860)" d="M1798.42 2308.02 L1798.42 2296.42 L1788.87 2296.42 L1788.87 2291.62 L1804.2 2291.62 L1804.2 2310.17 Q1800.82 2312.57 1796.74 2313.81 Q1792.66 2315.03 1788.03 2315.03 Q1777.9 2315.03 1772.17 2309.12 Q1766.47 2303.19 1766.47 2292.63 Q1766.47 2282.04 1772.17 2276.14 Q1777.9 2270.21 1788.03 2270.21 Q1792.25 2270.21 1796.04 2271.25 Q1799.86 2272.29 1803.07 2274.32 L1803.07 2280.54 Q1799.83 2277.79 1796.19 2276.4 Q1792.54 2275.01 1788.52 2275.01 Q1780.59 2275.01 1776.6 2279.44 Q1772.63 2283.86 1772.63 2292.63 Q1772.63 2301.37 1776.6 2305.8 Q1780.59 2310.22 1788.52 2310.22 Q1791.62 2310.22 1794.05 2309.7 Q1796.48 2309.15 1798.42 2308.02 Z" fill="#000000" fill-rule="nonzero" fill-opacity="1" /><path clip-path="url(#clip860)" d="M1833.43 2286.76 Q1832.53 2286.24 1831.46 2286 Q1830.42 2285.74 1829.14 2285.74 Q1824.63 2285.74 1822.2 2288.7 Q1819.8 2291.62 1819.8 2297.12 L1819.8 2314.19 L1814.45 2314.19 L1814.45 2281.78 L1819.8 2281.78 L1819.8 2286.82 Q1821.48 2283.86 1824.17 2282.45 Q1826.86 2281 1830.71 2281 Q1831.26 2281 1831.92 2281.09 Q1832.59 2281.14 1833.4 2281.29 L1833.43 2286.76 Z" fill="#000000" fill-rule="nonzero" fill-opacity="1" /><path clip-path="url(#clip860)" d="M1839.01 2281.78 L1844.34 2281.78 L1844.34 2314.19 L1839.01 2314.19 L1839.01 2281.78 M1839.01 2269.16 L1844.34 2269.16 L1844.34 2275.91 L1839.01 2275.91 L1839.01 2269.16 Z" fill="#000000" fill-rule="nonzero" fill-opacity="1" /><path clip-path="url(#clip860)" d="M1876.8 2286.7 L1876.8 2269.16 L1882.12 2269.16 L1882.12 2314.19 L1876.8 2314.19 L1876.8 2309.33 Q1875.12 2312.22 1872.55 2313.64 Q1870 2315.03 1866.41 2315.03 Q1860.54 2315.03 1856.84 2310.34 Q1853.16 2305.65 1853.16 2298.01 Q1853.16 2290.37 1856.84 2285.69 Q1860.54 2281 1866.41 2281 Q1870 2281 1872.55 2282.42 Q1875.12 2283.81 1876.8 2286.7 M1858.66 2298.01 Q1858.66 2303.89 1861.06 2307.24 Q1863.49 2310.57 1867.72 2310.57 Q1871.94 2310.57 1874.37 2307.24 Q1876.8 2303.89 1876.8 2298.01 Q1876.8 2292.14 1874.37 2288.81 Q1871.94 2285.46 1867.72 2285.46 Q1863.49 2285.46 1861.06 2288.81 Q1858.66 2292.14 1858.66 2298.01 Z" fill="#000000" fill-rule="nonzero" fill-opacity="1" /><path clip-path="url(#clip860)" d="M1932.59 2282.74 L1932.59 2287.77 Q1930.33 2286.61 1927.9 2286.03 Q1925.47 2285.46 1922.87 2285.46 Q1918.9 2285.46 1916.9 2286.67 Q1914.94 2287.89 1914.94 2290.32 Q1914.94 2292.17 1916.35 2293.24 Q1917.77 2294.28 1922.06 2295.24 L1923.88 2295.64 Q1929.55 2296.86 1931.92 2299.08 Q1934.32 2301.28 1934.32 2305.25 Q1934.32 2309.76 1930.74 2312.39 Q1927.18 2315.03 1920.93 2315.03 Q1918.32 2315.03 1915.49 2314.51 Q1912.68 2314.01 1909.56 2313 L1909.56 2307.5 Q1912.51 2309.04 1915.37 2309.82 Q1918.24 2310.57 1921.04 2310.57 Q1924.8 2310.57 1926.83 2309.3 Q1928.85 2308 1928.85 2305.65 Q1928.85 2303.48 1927.38 2302.32 Q1925.93 2301.17 1920.98 2300.1 L1919.13 2299.66 Q1914.18 2298.62 1911.99 2296.48 Q1909.79 2294.31 1909.79 2290.55 Q1909.79 2285.98 1913.03 2283.49 Q1916.27 2281 1922.23 2281 Q1925.18 2281 1927.78 2281.43 Q1930.39 2281.87 1932.59 2282.74 Z" fill="#000000" fill-rule="nonzero" fill-opacity="1" /><path clip-path="url(#clip860)" d="M1942.8 2281.78 L1948.13 2281.78 L1948.13 2314.19 L1942.8 2314.19 L1942.8 2281.78 M1942.8 2269.16 L1948.13 2269.16 L1948.13 2275.91 L1942.8 2275.91 L1942.8 2269.16 Z" fill="#000000" fill-rule="nonzero" fill-opacity="1" /><path clip-path="url(#clip860)" d="M1956.95 2281.78 L1982.24 2281.78 L1982.24 2286.64 L1962.22 2309.93 L1982.24 2309.93 L1982.24 2314.19 L1956.23 2314.19 L1956.23 2309.33 L1976.25 2286.03 L1956.95 2286.03 L1956.95 2281.78 Z" fill="#000000" fill-rule="nonzero" fill-opacity="1" /><path clip-path="url(#clip860)" d="M2018.09 2296.65 L2018.09 2299.26 L1993.61 2299.26 Q1993.96 2304.75 1996.91 2307.65 Q1999.89 2310.51 2005.19 2310.51 Q2008.25 2310.51 2011.12 2309.76 Q2014.01 2309.01 2016.85 2307.5 L2016.85 2312.54 Q2013.98 2313.75 2010.97 2314.39 Q2007.96 2315.03 2004.87 2315.03 Q1997.11 2315.03 1992.57 2310.51 Q1988.06 2306 1988.06 2298.3 Q1988.06 2290.35 1992.34 2285.69 Q1996.65 2281 2003.94 2281 Q2010.48 2281 2014.27 2285.22 Q2018.09 2289.42 2018.09 2296.65 M2012.77 2295.09 Q2012.71 2290.72 2010.31 2288.12 Q2007.93 2285.51 2004 2285.51 Q1999.54 2285.51 1996.85 2288.03 Q1994.19 2290.55 1993.79 2295.12 L2012.77 2295.09 Z" fill="#000000" fill-rule="nonzero" fill-opacity="1" /><path clip-path="url(#clip860)" d="M2045.9 2270.99 L2053.77 2270.99 L2072.92 2307.13 L2072.92 2270.99 L2078.59 2270.99 L2078.59 2314.19 L2070.72 2314.19 L2051.57 2278.05 L2051.57 2314.19 L2045.9 2314.19 L2045.9 2270.99 Z" fill="#000000" fill-rule="nonzero" fill-opacity="1" /><polyline clip-path="url(#clip860)" style="stroke:#000000; stroke-linecap:round; stroke-linejoin:round; stroke-width:4; stroke-opacity:1; fill:none" points="292.309,2156.51 292.309,246.944 "/>
<polyline clip-path="url(#clip860)" style="stroke:#000000; stroke-linecap:round; stroke-linejoin:round; stroke-width:4; stroke-opacity:1; fill:none" points="292.309,1378.01 311.207,1378.01 "/>
<polyline clip-path="url(#clip860)" style="stroke:#000000; stroke-linecap:round; stroke-linejoin:round; stroke-width:4; stroke-opacity:1; fill:none" points="292.309,483.932 311.207,483.932 "/>
<path clip-path="url(#clip860)" d="M167.604 1397.8 L175.242 1397.8 L175.242 1371.44 L166.932 1373.1 L166.932 1368.84 L175.196 1367.18 L179.872 1367.18 L179.872 1397.8 L187.511 1397.8 L187.511 1401.74 L167.604 1401.74 L167.604 1397.8 Z" fill="#000000" fill-rule="nonzero" fill-opacity="1" /><path clip-path="url(#clip860)" d="M206.955 1370.25 Q203.344 1370.25 201.515 1373.82 Q199.71 1377.36 199.71 1384.49 Q199.71 1391.6 201.515 1395.16 Q203.344 1398.7 206.955 1398.7 Q210.589 1398.7 212.395 1395.16 Q214.224 1391.6 214.224 1384.49 Q214.224 1377.36 212.395 1373.82 Q210.589 1370.25 206.955 1370.25 M206.955 1366.55 Q212.765 1366.55 215.821 1371.16 Q218.9 1375.74 218.9 1384.49 Q218.9 1393.22 215.821 1397.82 Q212.765 1402.41 206.955 1402.41 Q201.145 1402.41 198.066 1397.82 Q195.011 1393.22 195.011 1384.49 Q195.011 1375.74 198.066 1371.16 Q201.145 1366.55 206.955 1366.55 Z" fill="#000000" fill-rule="nonzero" fill-opacity="1" /><path clip-path="url(#clip860)" d="M228.604 1348.75 Q225.67 1348.75 224.185 1351.64 Q222.718 1354.52 222.718 1360.31 Q222.718 1366.09 224.185 1368.98 Q225.67 1371.86 228.604 1371.86 Q231.557 1371.86 233.024 1368.98 Q234.51 1366.09 234.51 1360.31 Q234.51 1354.52 233.024 1351.64 Q231.557 1348.75 228.604 1348.75 M228.604 1345.74 Q233.325 1345.74 235.808 1349.48 Q238.309 1353.2 238.309 1360.31 Q238.309 1367.4 235.808 1371.15 Q233.325 1374.87 228.604 1374.87 Q223.884 1374.87 221.382 1371.15 Q218.9 1367.4 218.9 1360.31 Q218.9 1353.2 221.382 1349.48 Q223.884 1345.74 228.604 1345.74 Z" fill="#000000" fill-rule="nonzero" fill-opacity="1" /><path clip-path="url(#clip860)" d="M170.293 503.724 L177.932 503.724 L177.932 477.359 L169.622 479.025 L169.622 474.766 L177.886 473.099 L182.562 473.099 L182.562 503.724 L190.2 503.724 L190.2 507.659 L170.293 507.659 L170.293 503.724 Z" fill="#000000" fill-rule="nonzero" fill-opacity="1" /><path clip-path="url(#clip860)" d="M209.645 476.178 Q206.034 476.178 204.205 479.743 Q202.399 483.285 202.399 490.414 Q202.399 497.521 204.205 501.085 Q206.034 504.627 209.645 504.627 Q213.279 504.627 215.085 501.085 Q216.913 497.521 216.913 490.414 Q216.913 483.285 215.085 479.743 Q213.279 476.178 209.645 476.178 M209.645 472.474 Q215.455 472.474 218.51 477.081 Q221.589 481.664 221.589 490.414 Q221.589 499.141 218.51 503.747 Q215.455 508.331 209.645 508.331 Q203.835 508.331 200.756 503.747 Q197.7 499.141 197.7 490.414 Q197.7 481.664 200.756 477.081 Q203.835 472.474 209.645 472.474 Z" fill="#000000" fill-rule="nonzero" fill-opacity="1" /><path clip-path="url(#clip860)" d="M222.135 477.052 L228.341 477.052 L228.341 455.63 L221.589 456.984 L221.589 453.523 L228.303 452.169 L232.103 452.169 L232.103 477.052 L238.309 477.052 L238.309 480.249 L222.135 480.249 L222.135 477.052 Z" fill="#000000" fill-rule="nonzero" fill-opacity="1" /><path clip-path="url(#clip860)" d="M58.1901 1374.69 L63.8903 1374.69 Q62.2989 1378.01 61.5176 1380.96 Q60.7364 1383.92 60.7364 1386.66 Q60.7364 1391.44 62.5882 1394.04 Q64.4401 1396.62 67.8544 1396.62 Q70.719 1396.62 72.1947 1394.91 Q73.6414 1393.17 74.5384 1388.37 L75.2618 1384.84 Q76.506 1378.3 79.6599 1375.21 Q82.7849 1372.08 88.0511 1372.08 Q94.33 1372.08 97.5707 1376.31 Q100.811 1380.5 100.811 1388.63 Q100.811 1391.7 100.117 1395.17 Q99.4225 1398.61 98.0626 1402.32 L92.0441 1402.32 Q94.0406 1398.76 95.0533 1395.34 Q96.0661 1391.93 96.0661 1388.63 Q96.0661 1383.63 94.0985 1380.91 Q92.1309 1378.19 88.4851 1378.19 Q85.3022 1378.19 83.5083 1380.15 Q81.7143 1382.09 80.8173 1386.55 L80.1229 1390.11 Q78.8208 1396.65 76.043 1399.57 Q73.2653 1402.49 68.3174 1402.49 Q62.5882 1402.49 59.2896 1398.47 Q55.991 1394.42 55.991 1387.33 Q55.991 1384.29 56.5408 1381.14 Q57.0906 1377.98 58.1901 1374.69 Z" fill="#000000" fill-rule="nonzero" fill-opacity="1" /><path clip-path="url(#clip860)" d="M71.2977 1350.64 Q71.2977 1354.92 74.6541 1357.41 Q77.9817 1359.9 83.7976 1359.9 Q89.6135 1359.9 92.97 1357.44 Q96.2975 1354.95 96.2975 1350.64 Q96.2975 1346.39 92.9411 1343.9 Q89.5846 1341.41 83.7976 1341.41 Q78.0395 1341.41 74.6831 1343.9 Q71.2977 1346.39 71.2977 1350.64 M66.7838 1350.64 Q66.7838 1343.7 71.2977 1339.73 Q75.8115 1335.77 83.7976 1335.77 Q91.7547 1335.77 96.2975 1339.73 Q100.811 1343.7 100.811 1350.64 Q100.811 1357.61 96.2975 1361.58 Q91.7547 1365.51 83.7976 1365.51 Q75.8115 1365.51 71.2977 1361.58 Q66.7838 1357.61 66.7838 1350.64 Z" fill="#000000" fill-rule="nonzero" fill-opacity="1" /><path clip-path="url(#clip860)" d="M54.9494 1326.94 L54.9494 1321.62 L99.9723 1321.62 L99.9723 1326.94 L54.9494 1326.94 Z" fill="#000000" fill-rule="nonzero" fill-opacity="1" /><path clip-path="url(#clip860)" d="M67.565 1314.3 L67.565 1308.66 L94.764 1298.53 L67.565 1288.4 L67.565 1282.76 L99.9723 1294.91 L99.9723 1302.15 L67.565 1314.3 Z" fill="#000000" fill-rule="nonzero" fill-opacity="1" /><path clip-path="url(#clip860)" d="M82.4377 1247.69 L85.0418 1247.69 L85.0418 1272.17 Q90.5395 1271.82 93.433 1268.87 Q96.2975 1265.89 96.2975 1260.59 Q96.2975 1257.53 95.5452 1254.66 Q94.7929 1251.77 93.2883 1248.93 L98.323 1248.93 Q99.5383 1251.8 100.175 1254.81 Q100.811 1257.82 100.811 1260.91 Q100.811 1268.67 96.2975 1273.21 Q91.7837 1277.72 84.087 1277.72 Q76.1298 1277.72 71.4713 1273.44 Q66.7838 1269.13 66.7838 1261.84 Q66.7838 1255.3 71.0083 1251.51 Q75.2039 1247.69 82.4377 1247.69 M80.8752 1253.01 Q76.506 1253.07 73.9018 1255.47 Q71.2977 1257.85 71.2977 1261.78 Q71.2977 1266.24 73.815 1268.93 Q76.3324 1271.59 80.9041 1271.99 L80.8752 1253.01 Z" fill="#000000" fill-rule="nonzero" fill-opacity="1" /><path clip-path="url(#clip860)" d="M58.3637 1214.85 L67.565 1214.85 L67.565 1203.88 L71.7028 1203.88 L71.7028 1214.85 L89.2953 1214.85 Q93.2594 1214.85 94.3878 1213.78 Q95.5163 1212.68 95.5163 1209.35 L95.5163 1203.88 L99.9723 1203.88 L99.9723 1209.35 Q99.9723 1215.51 97.6864 1217.86 Q95.3716 1220.2 89.2953 1220.2 L71.7028 1220.2 L71.7028 1224.11 L67.565 1224.11 L67.565 1220.2 L58.3637 1220.2 L58.3637 1214.85 Z" fill="#000000" fill-rule="nonzero" fill-opacity="1" /><path clip-path="url(#clip860)" d="M67.565 1196.88 L67.565 1191.56 L99.9723 1191.56 L99.9723 1196.88 L67.565 1196.88 M54.9494 1196.88 L54.9494 1191.56 L61.6912 1191.56 L61.6912 1196.88 L54.9494 1196.88 Z" fill="#000000" fill-rule="nonzero" fill-opacity="1" /><path clip-path="url(#clip860)" d="M73.7861 1155.18 Q70.1981 1153.19 68.491 1150.41 Q66.7838 1147.63 66.7838 1143.87 Q66.7838 1138.81 70.3428 1136.06 Q73.8729 1133.31 80.4122 1133.31 L99.9723 1133.31 L99.9723 1138.66 L80.5858 1138.66 Q75.9273 1138.66 73.6703 1140.31 Q71.4134 1141.96 71.4134 1145.35 Q71.4134 1149.48 74.1622 1151.89 Q76.9111 1154.29 81.6564 1154.29 L99.9723 1154.29 L99.9723 1159.64 L80.5858 1159.64 Q75.8983 1159.64 73.6703 1161.29 Q71.4134 1162.94 71.4134 1166.38 Q71.4134 1170.46 74.1912 1172.86 Q76.94 1175.26 81.6564 1175.26 L99.9723 1175.26 L99.9723 1180.62 L67.565 1180.62 L67.565 1175.26 L72.5997 1175.26 Q69.6194 1173.44 68.2016 1170.9 Q66.7838 1168.35 66.7838 1164.85 Q66.7838 1161.32 68.5778 1158.86 Q70.3717 1156.37 73.7861 1155.18 Z" fill="#000000" fill-rule="nonzero" fill-opacity="1" /><path clip-path="url(#clip860)" d="M82.4377 1094.97 L85.0418 1094.97 L85.0418 1119.45 Q90.5395 1119.1 93.433 1116.15 Q96.2975 1113.17 96.2975 1107.88 Q96.2975 1104.81 95.5452 1101.94 Q94.7929 1099.05 93.2883 1096.21 L98.323 1096.21 Q99.5383 1099.08 100.175 1102.09 Q100.811 1105.1 100.811 1108.19 Q100.811 1115.95 96.2975 1120.49 Q91.7837 1125 84.087 1125 Q76.1298 1125 71.4713 1120.72 Q66.7838 1116.41 66.7838 1109.12 Q66.7838 1102.58 71.0083 1098.79 Q75.2039 1094.97 82.4377 1094.97 M80.8752 1100.29 Q76.506 1100.35 73.9018 1102.75 Q71.2977 1105.13 71.2977 1109.06 Q71.2977 1113.52 73.815 1116.21 Q76.3324 1118.87 80.9041 1119.28 L80.8752 1100.29 Z" fill="#000000" fill-rule="nonzero" fill-opacity="1" /><path clip-path="url(#clip860)" d="M55.0072 1054.61 Q61.6623 1058.48 68.1727 1060.36 Q74.6831 1062.24 81.3671 1062.24 Q88.0511 1062.24 94.6193 1060.36 Q101.159 1058.45 107.785 1054.61 L107.785 1059.24 Q100.985 1063.58 94.4168 1065.75 Q87.8485 1067.89 81.3671 1067.89 Q74.9145 1067.89 68.3752 1065.75 Q61.8359 1063.6 55.0072 1059.24 L55.0072 1054.61 Z" fill="#000000" fill-rule="nonzero" fill-opacity="1" /><path clip-path="url(#clip860)" d="M68.5199 1023.62 L73.5546 1023.62 Q72.3972 1025.87 71.8185 1028.3 Q71.2398 1030.73 71.2398 1033.34 Q71.2398 1037.3 72.4551 1039.3 Q73.6703 1041.27 76.1009 1041.27 Q77.9527 1041.27 79.0233 1039.85 Q80.065 1038.43 81.0198 1034.15 L81.4249 1032.33 Q82.6402 1026.65 84.8682 1024.28 Q87.0673 1021.88 91.0314 1021.88 Q95.5452 1021.88 98.1783 1025.47 Q100.811 1029.03 100.811 1035.28 Q100.811 1037.88 100.291 1040.72 Q99.7987 1043.52 98.7859 1046.65 L93.2883 1046.65 Q94.8218 1043.7 95.6031 1040.83 Q96.3554 1037.97 96.3554 1035.16 Q96.3554 1031.4 95.0823 1029.37 Q93.7802 1027.35 91.4364 1027.35 Q89.2663 1027.35 88.1089 1028.82 Q86.9515 1030.27 85.8809 1035.22 L85.4469 1037.07 Q84.4052 1042.02 82.264 1044.22 Q80.0939 1046.42 76.3324 1046.42 Q71.7606 1046.42 69.2722 1043.18 Q66.7838 1039.94 66.7838 1033.98 Q66.7838 1031.02 67.2178 1028.42 Q67.6519 1025.82 68.5199 1023.62 Z" fill="#000000" fill-rule="nonzero" fill-opacity="1" /><path clip-path="url(#clip860)" d="M55.0072 1014.24 L55.0072 1009.61 Q61.8359 1005.27 68.3752 1003.13 Q74.9145 1000.96 81.3671 1000.96 Q87.8485 1000.96 94.4168 1003.13 Q100.985 1005.27 107.785 1009.61 L107.785 1014.24 Q101.159 1010.39 94.6193 1008.51 Q88.0511 1006.6 81.3671 1006.6 Q74.6831 1006.6 68.1727 1008.51 Q61.6623 1010.39 55.0072 1014.24 Z" fill="#000000" fill-rule="nonzero" fill-opacity="1" /><path clip-path="url(#clip860)" d="M1201.67 125.969 L1201.67 133.949 Q1197.02 131.721 1192.88 130.627 Q1188.75 129.534 1184.9 129.534 Q1178.22 129.534 1174.57 132.126 Q1170.97 134.719 1170.97 139.499 Q1170.97 143.509 1173.36 145.575 Q1175.79 147.601 1182.51 148.857 L1187.46 149.869 Q1196.61 151.611 1200.94 156.027 Q1205.32 160.402 1205.32 167.774 Q1205.32 176.565 1199.41 181.102 Q1193.53 185.639 1182.15 185.639 Q1177.85 185.639 1172.99 184.667 Q1168.17 183.694 1162.99 181.79 L1162.99 173.365 Q1167.97 176.16 1172.75 177.577 Q1177.53 178.995 1182.15 178.995 Q1189.16 178.995 1192.96 176.241 Q1196.77 173.486 1196.77 168.382 Q1196.77 163.926 1194.02 161.414 Q1191.3 158.903 1185.07 157.647 L1180.08 156.675 Q1170.93 154.852 1166.84 150.963 Q1162.74 147.074 1162.74 140.147 Q1162.74 132.126 1168.38 127.508 Q1174.05 122.89 1183.97 122.89 Q1188.23 122.89 1192.64 123.66 Q1197.06 124.43 1201.67 125.969 Z" fill="#000000" fill-rule="nonzero" fill-opacity="1" /><path clip-path="url(#clip860)" d="M1235.34 144.32 Q1229.34 144.32 1225.86 149.019 Q1222.37 153.677 1222.37 161.819 Q1222.37 169.962 1225.82 174.661 Q1229.3 179.319 1235.34 179.319 Q1241.29 179.319 1244.78 174.62 Q1248.26 169.921 1248.26 161.819 Q1248.26 153.758 1244.78 149.059 Q1241.29 144.32 1235.34 144.32 M1235.34 138 Q1245.06 138 1250.61 144.32 Q1256.16 150.639 1256.16 161.819 Q1256.16 172.959 1250.61 179.319 Q1245.06 185.639 1235.34 185.639 Q1225.57 185.639 1220.02 179.319 Q1214.52 172.959 1214.52 161.819 Q1214.52 150.639 1220.02 144.32 Q1225.57 138 1235.34 138 Z" fill="#000000" fill-rule="nonzero" fill-opacity="1" /><path clip-path="url(#clip860)" d="M1268.51 121.432 L1275.97 121.432 L1275.97 184.464 L1268.51 184.464 L1268.51 121.432 Z" fill="#000000" fill-rule="nonzero" fill-opacity="1" /><path clip-path="url(#clip860)" d="M1286.22 139.094 L1294.12 139.094 L1308.29 177.172 L1322.47 139.094 L1330.37 139.094 L1313.36 184.464 L1303.23 184.464 L1286.22 139.094 Z" fill="#000000" fill-rule="nonzero" fill-opacity="1" /><path clip-path="url(#clip860)" d="M1379.47 159.916 L1379.47 163.561 L1345.2 163.561 Q1345.68 171.258 1349.82 175.309 Q1353.99 179.319 1361.4 179.319 Q1365.7 179.319 1369.71 178.266 Q1373.76 177.213 1377.73 175.106 L1377.73 182.155 Q1373.72 183.856 1369.5 184.748 Q1365.29 185.639 1360.96 185.639 Q1350.1 185.639 1343.74 179.319 Q1337.42 173 1337.42 162.225 Q1337.42 151.085 1343.42 144.563 Q1349.45 138 1359.66 138 Q1368.81 138 1374.12 143.914 Q1379.47 149.788 1379.47 159.916 M1372.01 157.728 Q1371.93 151.611 1368.57 147.965 Q1365.25 144.32 1359.74 144.32 Q1353.5 144.32 1349.73 147.844 Q1346.01 151.368 1345.44 157.769 L1372.01 157.728 Z" fill="#000000" fill-rule="nonzero" fill-opacity="1" /><path clip-path="url(#clip860)" d="M1425.45 126.212 L1425.45 139.094 L1440.8 139.094 L1440.8 144.887 L1425.45 144.887 L1425.45 169.516 Q1425.45 175.066 1426.94 176.646 Q1428.48 178.226 1433.14 178.226 L1440.8 178.226 L1440.8 184.464 L1433.14 184.464 Q1424.51 184.464 1421.23 181.264 Q1417.95 178.023 1417.95 169.516 L1417.95 144.887 L1412.48 144.887 L1412.48 139.094 L1417.95 139.094 L1417.95 126.212 L1425.45 126.212 Z" fill="#000000" fill-rule="nonzero" fill-opacity="1" /><path clip-path="url(#clip860)" d="M1450.6 139.094 L1458.06 139.094 L1458.06 184.464 L1450.6 184.464 L1450.6 139.094 M1450.6 121.432 L1458.06 121.432 L1458.06 130.871 L1450.6 130.871 L1450.6 121.432 Z" fill="#000000" fill-rule="nonzero" fill-opacity="1" /><path clip-path="url(#clip860)" d="M1508.98 147.803 Q1511.77 142.78 1515.66 140.39 Q1519.55 138 1524.81 138 Q1531.9 138 1535.75 142.983 Q1539.6 147.925 1539.6 157.08 L1539.6 184.464 L1532.11 184.464 L1532.11 157.323 Q1532.11 150.801 1529.8 147.641 Q1527.49 144.482 1522.75 144.482 Q1516.96 144.482 1513.59 148.33 Q1510.23 152.178 1510.23 158.822 L1510.23 184.464 L1502.74 184.464 L1502.74 157.323 Q1502.74 150.76 1500.43 147.641 Q1498.12 144.482 1493.3 144.482 Q1487.59 144.482 1484.22 148.37 Q1480.86 152.219 1480.86 158.822 L1480.86 184.464 L1473.37 184.464 L1473.37 139.094 L1480.86 139.094 L1480.86 146.142 Q1483.41 141.97 1486.98 139.985 Q1490.54 138 1495.45 138 Q1500.39 138 1503.83 140.512 Q1507.31 143.023 1508.98 147.803 Z" fill="#000000" fill-rule="nonzero" fill-opacity="1" /><path clip-path="url(#clip860)" d="M1593.28 159.916 L1593.28 163.561 L1559 163.561 Q1559.49 171.258 1563.62 175.309 Q1567.79 179.319 1575.21 179.319 Q1579.5 179.319 1583.51 178.266 Q1587.56 177.213 1591.53 175.106 L1591.53 182.155 Q1587.52 183.856 1583.31 184.748 Q1579.1 185.639 1574.76 185.639 Q1563.91 185.639 1557.55 179.319 Q1551.23 173 1551.23 162.225 Q1551.23 151.085 1557.22 144.563 Q1563.26 138 1573.47 138 Q1582.62 138 1587.93 143.914 Q1593.28 149.788 1593.28 159.916 M1585.82 157.728 Q1585.74 151.611 1582.38 147.965 Q1579.06 144.32 1573.55 144.32 Q1567.31 144.32 1563.54 147.844 Q1559.81 151.368 1559.25 157.769 L1585.82 157.728 Z" fill="#000000" fill-rule="nonzero" fill-opacity="1" /><path clip-path="url(#clip860)" d="M1626.53 139.094 L1634.43 139.094 L1648.61 177.172 L1662.79 139.094 L1670.69 139.094 L1653.67 184.464 L1643.55 184.464 L1626.53 139.094 Z" fill="#000000" fill-rule="nonzero" fill-opacity="1" /><path clip-path="url(#clip860)" d="M1709.9 140.431 L1709.9 147.479 Q1706.74 145.859 1703.34 145.049 Q1699.94 144.239 1696.29 144.239 Q1690.74 144.239 1687.94 145.94 Q1685.19 147.641 1685.19 151.044 Q1685.19 153.637 1687.18 155.135 Q1689.16 156.594 1695.16 157.931 L1697.71 158.498 Q1705.65 160.199 1708.97 163.318 Q1712.33 166.397 1712.33 171.947 Q1712.33 178.266 1707.31 181.952 Q1702.33 185.639 1693.58 185.639 Q1689.93 185.639 1685.96 184.91 Q1682.03 184.221 1677.66 182.803 L1677.66 175.106 Q1681.79 177.253 1685.8 178.347 Q1689.81 179.4 1693.74 179.4 Q1699 179.4 1701.84 177.618 Q1704.67 175.795 1704.67 172.514 Q1704.67 169.476 1702.61 167.855 Q1700.58 166.235 1693.66 164.736 L1691.06 164.128 Q1684.14 162.67 1681.06 159.672 Q1677.98 156.634 1677.98 151.368 Q1677.98 144.968 1682.52 141.484 Q1687.05 138 1695.4 138 Q1699.53 138 1703.18 138.608 Q1706.82 139.215 1709.9 140.431 Z" fill="#000000" fill-rule="nonzero" fill-opacity="1" /><path clip-path="url(#clip860)" d="M1780.43 161.252 Q1780.43 153.151 1777.06 148.695 Q1773.74 144.239 1767.71 144.239 Q1761.71 144.239 1758.35 148.695 Q1755.03 153.151 1755.03 161.252 Q1755.03 169.314 1758.35 173.77 Q1761.71 178.226 1767.71 178.226 Q1773.74 178.226 1777.06 173.77 Q1780.43 169.314 1780.43 161.252 M1787.88 178.833 Q1787.88 190.419 1782.74 196.05 Q1777.59 201.721 1766.98 201.721 Q1763.05 201.721 1759.56 201.113 Q1756.08 200.546 1752.8 199.331 L1752.8 192.08 Q1756.08 193.862 1759.28 194.713 Q1762.48 195.563 1765.8 195.563 Q1773.14 195.563 1776.78 191.715 Q1780.43 187.907 1780.43 180.17 L1780.43 176.484 Q1778.12 180.494 1774.51 182.479 Q1770.91 184.464 1765.88 184.464 Q1757.54 184.464 1752.44 178.104 Q1747.33 171.744 1747.33 161.252 Q1747.33 150.72 1752.44 144.36 Q1757.54 138 1765.88 138 Q1770.91 138 1774.51 139.985 Q1778.12 141.97 1780.43 145.98 L1780.43 139.094 L1787.88 139.094 L1787.88 178.833 Z" fill="#000000" fill-rule="nonzero" fill-opacity="1" /><path clip-path="url(#clip860)" d="M1829.52 146.061 Q1828.27 145.332 1826.77 145.008 Q1825.31 144.644 1823.53 144.644 Q1817.21 144.644 1813.81 148.776 Q1810.44 152.867 1810.44 160.564 L1810.44 184.464 L1802.95 184.464 L1802.95 139.094 L1810.44 139.094 L1810.44 146.142 Q1812.79 142.011 1816.56 140.026 Q1820.33 138 1825.72 138 Q1826.49 138 1827.42 138.122 Q1828.35 138.203 1829.48 138.405 L1829.52 146.061 Z" fill="#000000" fill-rule="nonzero" fill-opacity="1" /><path clip-path="url(#clip860)" d="M1837.34 139.094 L1844.8 139.094 L1844.8 184.464 L1837.34 184.464 L1837.34 139.094 M1837.34 121.432 L1844.8 121.432 L1844.8 130.871 L1837.34 130.871 L1837.34 121.432 Z" fill="#000000" fill-rule="nonzero" fill-opacity="1" /><path clip-path="url(#clip860)" d="M1890.25 145.98 L1890.25 121.432 L1897.7 121.432 L1897.7 184.464 L1890.25 184.464 L1890.25 177.658 Q1887.9 181.709 1884.29 183.694 Q1880.73 185.639 1875.7 185.639 Q1867.48 185.639 1862.3 179.076 Q1857.15 172.514 1857.15 161.819 Q1857.15 151.125 1862.3 144.563 Q1867.48 138 1875.7 138 Q1880.73 138 1884.29 139.985 Q1887.9 141.93 1890.25 145.98 M1864.85 161.819 Q1864.85 170.043 1868.21 174.742 Q1871.61 179.4 1877.53 179.4 Q1883.44 179.4 1886.84 174.742 Q1890.25 170.043 1890.25 161.819 Q1890.25 153.596 1886.84 148.938 Q1883.44 144.239 1877.53 144.239 Q1871.61 144.239 1868.21 148.938 Q1864.85 153.596 1864.85 161.819 Z" fill="#000000" fill-rule="nonzero" fill-opacity="1" /><path clip-path="url(#clip860)" d="M1968.35 140.431 L1968.35 147.479 Q1965.19 145.859 1961.79 145.049 Q1958.38 144.239 1954.74 144.239 Q1949.19 144.239 1946.39 145.94 Q1943.64 147.641 1943.64 151.044 Q1943.64 153.637 1945.62 155.135 Q1947.61 156.594 1953.6 157.931 L1956.16 158.498 Q1964.09 160.199 1967.42 163.318 Q1970.78 166.397 1970.78 171.947 Q1970.78 178.266 1965.76 181.952 Q1960.77 185.639 1952.02 185.639 Q1948.38 185.639 1944.41 184.91 Q1940.48 184.221 1936.1 182.803 L1936.1 175.106 Q1940.24 177.253 1944.25 178.347 Q1948.26 179.4 1952.19 179.4 Q1957.45 179.4 1960.29 177.618 Q1963.12 175.795 1963.12 172.514 Q1963.12 169.476 1961.06 167.855 Q1959.03 166.235 1952.1 164.736 L1949.51 164.128 Q1942.58 162.67 1939.51 159.672 Q1936.43 156.634 1936.43 151.368 Q1936.43 144.968 1940.96 141.484 Q1945.5 138 1953.85 138 Q1957.98 138 1961.62 138.608 Q1965.27 139.215 1968.35 140.431 Z" fill="#000000" fill-rule="nonzero" fill-opacity="1" /><path clip-path="url(#clip860)" d="M1982.65 139.094 L1990.1 139.094 L1990.1 184.464 L1982.65 184.464 L1982.65 139.094 M1982.65 121.432 L1990.1 121.432 L1990.1 130.871 L1982.65 130.871 L1982.65 121.432 Z" fill="#000000" fill-rule="nonzero" fill-opacity="1" /><path clip-path="url(#clip860)" d="M2002.46 139.094 L2037.86 139.094 L2037.86 145.899 L2009.83 178.509 L2037.86 178.509 L2037.86 184.464 L2001.44 184.464 L2001.44 177.658 L2029.48 145.049 L2002.46 145.049 L2002.46 139.094 Z" fill="#000000" fill-rule="nonzero" fill-opacity="1" /><path clip-path="url(#clip860)" d="M2088.05 159.916 L2088.05 163.561 L2053.78 163.561 Q2054.27 171.258 2058.4 175.309 Q2062.57 179.319 2069.99 179.319 Q2074.28 179.319 2078.29 178.266 Q2082.34 177.213 2086.31 175.106 L2086.31 182.155 Q2082.3 183.856 2078.09 184.748 Q2073.87 185.639 2069.54 185.639 Q2058.68 185.639 2052.32 179.319 Q2046 173 2046 162.225 Q2046 151.085 2052 144.563 Q2058.04 138 2068.24 138 Q2077.4 138 2082.71 143.914 Q2088.05 149.788 2088.05 159.916 M2080.6 157.728 Q2080.52 151.611 2077.16 147.965 Q2073.83 144.32 2068.32 144.32 Q2062.09 144.32 2058.32 147.844 Q2054.59 151.368 2054.02 157.769 L2080.6 157.728 Z" fill="#000000" fill-rule="nonzero" fill-opacity="1" /><path clip-path="url(#clip860)" d="M2122.89 158.822 L2197.75 158.822 L2197.75 164.655 L2122.89 164.655 L2122.89 158.822 Z" fill="#000000" fill-rule="nonzero" fill-opacity="1" /><path clip-path="url(#clip860)" d="M2265.85 145.98 L2265.85 121.432 L2273.3 121.432 L2273.3 184.464 L2265.85 184.464 L2265.85 177.658 Q2263.5 181.709 2259.89 183.694 Q2256.33 185.639 2251.3 185.639 Q2243.08 185.639 2237.9 179.076 Q2232.75 172.514 2232.75 161.819 Q2232.75 151.125 2237.9 144.563 Q2243.08 138 2251.3 138 Q2256.33 138 2259.89 139.985 Q2263.5 141.93 2265.85 145.98 M2240.45 161.819 Q2240.45 170.043 2243.81 174.742 Q2247.21 179.4 2253.13 179.4 Q2259.04 179.4 2262.44 174.742 Q2265.85 170.043 2265.85 161.819 Q2265.85 153.596 2262.44 148.938 Q2259.04 144.239 2253.13 144.239 Q2247.21 144.239 2243.81 148.938 Q2240.45 153.596 2240.45 161.819 Z" fill="#000000" fill-rule="nonzero" fill-opacity="1" /><path clip-path="url(#clip860)" d="M2287.88 166.559 L2287.88 139.094 L2295.34 139.094 L2295.34 166.275 Q2295.34 172.716 2297.85 175.957 Q2300.36 179.157 2305.38 179.157 Q2311.42 179.157 2314.9 175.309 Q2318.43 171.461 2318.43 164.817 L2318.43 139.094 L2325.88 139.094 L2325.88 184.464 L2318.43 184.464 L2318.43 177.496 Q2315.71 181.628 2312.11 183.654 Q2308.54 185.639 2303.8 185.639 Q2295.99 185.639 2291.93 180.778 Q2287.88 175.917 2287.88 166.559 M2306.64 138 L2306.64 138 Z" fill="#000000" fill-rule="nonzero" fill-opacity="1" /><path clip-path="url(#clip860)" d="M2373.88 140.836 L2373.88 147.803 Q2370.72 146.061 2367.52 145.211 Q2364.36 144.32 2361.12 144.32 Q2353.87 144.32 2349.86 148.938 Q2345.85 153.515 2345.85 161.819 Q2345.85 170.124 2349.86 174.742 Q2353.87 179.319 2361.12 179.319 Q2364.36 179.319 2367.52 178.469 Q2370.72 177.577 2373.88 175.836 L2373.88 182.722 Q2370.77 184.18 2367.4 184.91 Q2364.08 185.639 2360.31 185.639 Q2350.06 185.639 2344.03 179.198 Q2337.99 172.757 2337.99 161.819 Q2337.99 150.72 2344.07 144.36 Q2350.19 138 2360.8 138 Q2364.24 138 2367.52 138.729 Q2370.81 139.418 2373.88 140.836 Z" fill="#000000" fill-rule="nonzero" fill-opacity="1" /><path clip-path="url(#clip860)" d="M2394.22 126.212 L2394.22 139.094 L2409.57 139.094 L2409.57 144.887 L2394.22 144.887 L2394.22 169.516 Q2394.22 175.066 2395.72 176.646 Q2397.26 178.226 2401.92 178.226 L2409.57 178.226 L2409.57 184.464 L2401.92 184.464 Q2393.29 184.464 2390.01 181.264 Q2386.73 178.023 2386.73 169.516 L2386.73 144.887 L2381.26 144.887 L2381.26 139.094 L2386.73 139.094 L2386.73 126.212 L2394.22 126.212 Z" fill="#000000" fill-rule="nonzero" fill-opacity="1" /><path clip-path="url(#clip860)" d="M2458.18 159.916 L2458.18 163.561 L2423.91 163.561 Q2424.4 171.258 2428.53 175.309 Q2432.7 179.319 2440.12 179.319 Q2444.41 179.319 2448.42 178.266 Q2452.47 177.213 2456.44 175.106 L2456.44 182.155 Q2452.43 183.856 2448.22 184.748 Q2444.01 185.639 2439.67 185.639 Q2428.81 185.639 2422.45 179.319 Q2416.14 173 2416.14 162.225 Q2416.14 151.085 2422.13 144.563 Q2428.17 138 2438.37 138 Q2447.53 138 2452.84 143.914 Q2458.18 149.788 2458.18 159.916 M2450.73 157.728 Q2450.65 151.611 2447.29 147.965 Q2443.96 144.32 2438.46 144.32 Q2432.22 144.32 2428.45 147.844 Q2424.72 151.368 2424.16 157.769 L2450.73 157.728 Z" fill="#000000" fill-rule="nonzero" fill-opacity="1" /><path clip-path="url(#clip860)" d="M2500.27 145.98 L2500.27 121.432 L2507.73 121.432 L2507.73 184.464 L2500.27 184.464 L2500.27 177.658 Q2497.92 181.709 2494.32 183.694 Q2490.75 185.639 2485.73 185.639 Q2477.51 185.639 2472.32 179.076 Q2467.18 172.514 2467.18 161.819 Q2467.18 151.125 2472.32 144.563 Q2477.51 138 2485.73 138 Q2490.75 138 2494.32 139.985 Q2497.92 141.93 2500.27 145.98 M2474.87 161.819 Q2474.87 170.043 2478.24 174.742 Q2481.64 179.4 2487.55 179.4 Q2493.47 179.4 2496.87 174.742 Q2500.27 170.043 2500.27 161.819 Q2500.27 153.596 2496.87 148.938 Q2493.47 144.239 2487.55 144.239 Q2481.64 144.239 2478.24 148.938 Q2474.87 153.596 2474.87 161.819 Z" fill="#000000" fill-rule="nonzero" fill-opacity="1" /><path clip-path="url(#clip860)" d="M2557.55 198.237 L2557.55 204.03 L2514.45 204.03 L2514.45 198.237 L2557.55 198.237 Z" fill="#000000" fill-rule="nonzero" fill-opacity="1" /><path clip-path="url(#clip860)" d="M2587.53 121.432 L2587.53 127.63 L2580.4 127.63 Q2576.39 127.63 2574.81 129.25 Q2573.27 130.871 2573.27 135.083 L2573.27 139.094 L2585.54 139.094 L2585.54 144.887 L2573.27 144.887 L2573.27 184.464 L2565.78 184.464 L2565.78 144.887 L2558.65 144.887 L2558.65 139.094 L2565.78 139.094 L2565.78 135.934 Q2565.78 128.359 2569.3 124.916 Q2572.82 121.432 2580.48 121.432 L2587.53 121.432 Z" fill="#000000" fill-rule="nonzero" fill-opacity="1" /><path clip-path="url(#clip860)" d="M2614.39 161.657 Q2605.35 161.657 2601.87 163.723 Q2598.39 165.789 2598.39 170.772 Q2598.39 174.742 2600.98 177.091 Q2603.61 179.4 2608.11 179.4 Q2614.31 179.4 2618.03 175.025 Q2621.8 170.61 2621.8 163.318 L2621.8 161.657 L2614.39 161.657 M2629.25 158.579 L2629.25 184.464 L2621.8 184.464 L2621.8 177.577 Q2619.25 181.709 2615.44 183.694 Q2611.63 185.639 2606.12 185.639 Q2599.16 185.639 2595.02 181.75 Q2590.93 177.821 2590.93 171.258 Q2590.93 163.602 2596.04 159.713 Q2601.18 155.824 2611.35 155.824 L2621.8 155.824 L2621.8 155.095 Q2621.8 149.95 2618.4 147.155 Q2615.03 144.32 2608.92 144.32 Q2605.03 144.32 2601.34 145.251 Q2597.66 146.183 2594.25 148.046 L2594.25 141.16 Q2598.34 139.58 2602.19 138.81 Q2606.04 138 2609.69 138 Q2619.53 138 2624.39 143.104 Q2629.25 148.208 2629.25 158.579 Z" fill="#000000" fill-rule="nonzero" fill-opacity="1" /><path clip-path="url(#clip860)" d="M2682.32 157.08 L2682.32 184.464 L2674.87 184.464 L2674.87 157.323 Q2674.87 150.882 2672.35 147.682 Q2669.84 144.482 2664.82 144.482 Q2658.78 144.482 2655.3 148.33 Q2651.82 152.178 2651.82 158.822 L2651.82 184.464 L2644.32 184.464 L2644.32 139.094 L2651.82 139.094 L2651.82 146.142 Q2654.49 142.051 2658.1 140.026 Q2661.74 138 2666.48 138 Q2674.3 138 2678.31 142.861 Q2682.32 147.682 2682.32 157.08 Z" fill="#000000" fill-rule="nonzero" fill-opacity="1" /><polyline clip-path="url(#clip862)" style="stroke:#4682b4; stroke-linecap:round; stroke-linejoin:round; stroke-width:6; stroke-opacity:1; fill:none" points="440.511,1398 2128.01,898.067 3404.55,332.938 "/>
<circle clip-path="url(#clip862)" cx="440.511" cy="1398" r="14.4" fill="#4682b4" fill-rule="evenodd" fill-opacity="1" stroke="none"/>
<circle clip-path="url(#clip862)" cx="2128.01" cy="898.067" r="14.4" fill="#4682b4" fill-rule="evenodd" fill-opacity="1" stroke="none"/>
<circle clip-path="url(#clip862)" cx="3404.55" cy="332.938" r="14.4" fill="#4682b4" fill-rule="evenodd" fill-opacity="1" stroke="none"/>
<polyline clip-path="url(#clip862)" style="stroke:#2e8b57; stroke-linecap:round; stroke-linejoin:round; stroke-width:6; stroke-opacity:1; fill:none" points="440.511,1884.93 2128.01,857.67 3404.55,885.667 "/>
<path clip-path="url(#clip862)" d="M440.511 1868.93 L424.511 1884.93 L440.511 1900.93 L456.511 1884.93 L440.511 1868.93 Z" fill="#2e8b57" fill-rule="evenodd" fill-opacity="1" stroke="none"/>
<path clip-path="url(#clip862)" d="M2128.01 841.67 L2112.01 857.67 L2128.01 873.67 L2144.01 857.67 L2128.01 841.67 Z" fill="#2e8b57" fill-rule="evenodd" fill-opacity="1" stroke="none"/>
<path clip-path="url(#clip862)" d="M3404.55 869.667 L3388.55 885.667 L3404.55 901.667 L3420.55 885.667 L3404.55 869.667 Z" fill="#2e8b57" fill-rule="evenodd" fill-opacity="1" stroke="none"/>
<polyline clip-path="url(#clip862)" style="stroke:#ff6347; stroke-linecap:round; stroke-linejoin:round; stroke-width:6; stroke-opacity:1; fill:none" points="440.511,1645.47 2128.01,1109.98 3404.55,300.989 "/>
<path clip-path="url(#clip862)" d="M424.511 1629.47 L424.511 1661.47 L456.511 1661.47 L456.511 1629.47 L424.511 1629.47 Z" fill="#ff6347" fill-rule="evenodd" fill-opacity="1" stroke="none"/>
<path clip-path="url(#clip862)" d="M2112.01 1093.98 L2112.01 1125.98 L2144.01 1125.98 L2144.01 1093.98 L2112.01 1093.98 Z" fill="#ff6347" fill-rule="evenodd" fill-opacity="1" stroke="none"/>
<path clip-path="url(#clip862)" d="M3388.55 284.989 L3388.55 316.989 L3420.55 316.989 L3420.55 284.989 L3388.55 284.989 Z" fill="#ff6347" fill-rule="evenodd" fill-opacity="1" stroke="none"/>
<polyline clip-path="url(#clip862)" style="stroke:#ff8c00; stroke-linecap:round; stroke-linejoin:round; stroke-width:6; stroke-opacity:1; fill:none" points="440.511,2102.46 2128.01,1523.17 3404.55,1147.34 "/>
<path clip-path="url(#clip862)" d="M440.511 2086.46 L424.511 2118.46 L456.511 2118.46 L440.511 2086.46 Z" fill="#ff8c00" fill-rule="evenodd" fill-opacity="1" stroke="none"/>
<path clip-path="url(#clip862)" d="M2128.01 1507.17 L2112.01 1539.17 L2144.01 1539.17 L2128.01 1507.17 Z" fill="#ff8c00" fill-rule="evenodd" fill-opacity="1" stroke="none"/>
<path clip-path="url(#clip862)" d="M3404.55 1131.34 L3388.55 1163.34 L3420.55 1163.34 L3404.55 1131.34 Z" fill="#ff8c00" fill-rule="evenodd" fill-opacity="1" stroke="none"/>
<polyline clip-path="url(#clip862)" style="stroke:#9370db; stroke-linecap:round; stroke-linejoin:round; stroke-width:6; stroke-opacity:1; fill:none" points="440.511,1514.73 2128.01,1261.41 3404.55,581.552 "/>
<path clip-path="url(#clip862)" d="M456.511 1498.73 L424.511 1498.73 L440.511 1530.73 L456.511 1498.73 Z" fill="#9370db" fill-rule="evenodd" fill-opacity="1" stroke="none"/>
<path clip-path="url(#clip862)" d="M2144.01 1245.41 L2112.01 1245.41 L2128.01 1277.41 L2144.01 1245.41 Z" fill="#9370db" fill-rule="evenodd" fill-opacity="1" stroke="none"/>
<path clip-path="url(#clip862)" d="M3420.55 565.552 L3388.55 565.552 L3404.55 597.552 L3420.55 565.552 Z" fill="#9370db" fill-rule="evenodd" fill-opacity="1" stroke="none"/>
<polyline clip-path="url(#clip862)" style="stroke:#a0522d; stroke-linecap:round; stroke-linejoin:round; stroke-width:6; stroke-opacity:1; fill:none" points="440.511,2032.14 2128.01,1337.72 3404.55,1117.15 "/>
<path clip-path="url(#clip862)" d="M440.511 2016.14 L436.751 2026.95 L425.295 2027.19 L434.431 2034.12 L431.103 2045.08 L440.511 2038.54 L449.919 2045.08 L446.591 2034.12 L455.727 2027.19 L444.271 2026.95 L440.511 2016.14 Z" fill="#a0522d" fill-rule="evenodd" fill-opacity="1" stroke="none"/>
<path clip-path="url(#clip862)" d="M2128.01 1321.72 L2124.25 1332.54 L2112.79 1332.78 L2121.93 1339.71 L2118.6 1350.67 L2128.01 1344.12 L2137.42 1350.67 L2134.09 1339.71 L2143.23 1332.78 L2131.77 1332.54 L2128.01 1321.72 Z" fill="#a0522d" fill-rule="evenodd" fill-opacity="1" stroke="none"/>
<path clip-path="url(#clip862)" d="M3404.55 1101.15 L3400.79 1111.96 L3389.34 1112.2 L3398.47 1119.13 L3395.15 1130.09 L3404.55 1123.55 L3413.96 1130.09 L3410.63 1119.13 L3419.77 1112.2 L3408.31 1111.96 L3404.55 1101.15 Z" fill="#a0522d" fill-rule="evenodd" fill-opacity="1" stroke="none"/>
<path clip-path="url(#clip860)" d="M2747.96 2092.86 L3444.07 2092.86 L3444.07 1729.98 L2747.96 1729.98  Z" fill="#ffffff" fill-rule="evenodd" fill-opacity="1"/>
<polyline clip-path="url(#clip860)" style="stroke:#000000; stroke-linecap:round; stroke-linejoin:round; stroke-width:4; stroke-opacity:1; fill:none" points="2747.96,2092.86 3444.07,2092.86 3444.07,1729.98 2747.96,1729.98 2747.96,2092.86 "/>
<polyline clip-path="url(#clip860)" style="stroke:#4682b4; stroke-linecap:round; stroke-linejoin:round; stroke-width:6; stroke-opacity:1; fill:none" points="2784.19,1781.82 3001.55,1781.82 "/>
<circle clip-path="url(#clip860)" cx="2892.87" cy="1781.82" r="23.04" fill="#4682b4" fill-rule="evenodd" fill-opacity="1" stroke="none"/>
<path clip-path="url(#clip860)" d="M3048.4 1763.12 Q3045.3 1768.45 3043.8 1773.66 Q3042.29 1778.86 3042.29 1784.21 Q3042.29 1789.56 3043.8 1794.81 Q3045.33 1800.04 3048.4 1805.35 L3044.7 1805.35 Q3041.23 1799.91 3039.49 1794.65 Q3037.78 1789.4 3037.78 1784.21 Q3037.78 1779.05 3039.49 1773.82 Q3041.21 1768.59 3044.7 1763.12 L3048.4 1763.12 Z" fill="#000000" fill-rule="nonzero" fill-opacity="1" /><path clip-path="url(#clip860)" d="M3068.45 1786.06 Q3063.29 1786.06 3061.3 1787.24 Q3059.31 1788.42 3059.31 1791.27 Q3059.31 1793.54 3060.79 1794.88 Q3062.29 1796.2 3064.86 1796.2 Q3068.4 1796.2 3070.53 1793.7 Q3072.69 1791.18 3072.69 1787.01 L3072.69 1786.06 L3068.45 1786.06 M3076.95 1784.3 L3076.95 1799.1 L3072.69 1799.1 L3072.69 1795.16 Q3071.23 1797.52 3069.05 1798.66 Q3066.88 1799.77 3063.73 1799.77 Q3059.75 1799.77 3057.39 1797.54 Q3055.05 1795.3 3055.05 1791.55 Q3055.05 1787.17 3057.96 1784.95 Q3060.9 1782.73 3066.71 1782.73 L3072.69 1782.73 L3072.69 1782.31 Q3072.69 1779.37 3070.74 1777.78 Q3068.82 1776.16 3065.33 1776.16 Q3063.1 1776.16 3061 1776.69 Q3058.89 1777.22 3056.95 1778.29 L3056.95 1774.35 Q3059.28 1773.45 3061.48 1773.01 Q3063.68 1772.54 3065.77 1772.54 Q3071.39 1772.54 3074.17 1775.46 Q3076.95 1778.38 3076.95 1784.3 Z" fill="#000000" fill-rule="nonzero" fill-opacity="1" /><path clip-path="url(#clip860)" d="M3102.78 1777.1 L3102.78 1763.08 L3107.04 1763.08 L3107.04 1799.1 L3102.78 1799.1 L3102.78 1795.21 Q3101.44 1797.52 3099.38 1798.66 Q3097.34 1799.77 3094.47 1799.77 Q3089.77 1799.77 3086.81 1796.02 Q3083.87 1792.27 3083.87 1786.16 Q3083.87 1780.04 3086.81 1776.29 Q3089.77 1772.54 3094.47 1772.54 Q3097.34 1772.54 3099.38 1773.68 Q3101.44 1774.79 3102.78 1777.1 M3088.27 1786.16 Q3088.27 1790.85 3090.19 1793.54 Q3092.13 1796.2 3095.51 1796.2 Q3098.89 1796.2 3100.83 1793.54 Q3102.78 1790.85 3102.78 1786.16 Q3102.78 1781.46 3100.83 1778.79 Q3098.89 1776.11 3095.51 1776.11 Q3092.13 1776.11 3090.19 1778.79 Q3088.27 1781.46 3088.27 1786.16 Z" fill="#000000" fill-rule="nonzero" fill-opacity="1" /><path clip-path="url(#clip860)" d="M3137.36 1783.45 L3137.36 1799.1 L3133.1 1799.1 L3133.1 1783.59 Q3133.1 1779.91 3131.67 1778.08 Q3130.23 1776.25 3127.36 1776.25 Q3123.91 1776.25 3121.92 1778.45 Q3119.93 1780.65 3119.93 1784.44 L3119.93 1799.1 L3115.65 1799.1 L3115.65 1773.17 L3119.93 1773.17 L3119.93 1777.2 Q3121.46 1774.86 3123.52 1773.7 Q3125.6 1772.54 3128.31 1772.54 Q3132.78 1772.54 3135.07 1775.32 Q3137.36 1778.08 3137.36 1783.45 Z" fill="#000000" fill-rule="nonzero" fill-opacity="1" /><path clip-path="url(#clip860)" d="M3145.86 1763.08 L3150.12 1763.08 L3150.12 1799.1 L3145.86 1799.1 L3145.86 1763.08 Z" fill="#000000" fill-rule="nonzero" fill-opacity="1" /><path clip-path="url(#clip860)" d="M3163.15 1795.21 L3163.15 1808.96 L3158.87 1808.96 L3158.87 1773.17 L3163.15 1773.17 L3163.15 1777.1 Q3164.49 1774.79 3166.53 1773.68 Q3168.59 1772.54 3171.44 1772.54 Q3176.16 1772.54 3179.1 1776.29 Q3182.06 1780.04 3182.06 1786.16 Q3182.06 1792.27 3179.1 1796.02 Q3176.16 1799.77 3171.44 1799.77 Q3168.59 1799.77 3166.53 1798.66 Q3164.49 1797.52 3163.15 1795.21 M3177.64 1786.16 Q3177.64 1781.46 3175.7 1778.79 Q3173.77 1776.11 3170.39 1776.11 Q3167.02 1776.11 3165.07 1778.79 Q3163.15 1781.46 3163.15 1786.16 Q3163.15 1790.85 3165.07 1793.54 Q3167.02 1796.2 3170.39 1796.2 Q3173.77 1796.2 3175.7 1793.54 Q3177.64 1790.85 3177.64 1786.16 Z" fill="#000000" fill-rule="nonzero" fill-opacity="1" /><path clip-path="url(#clip860)" d="M3190.21 1793.22 L3195.09 1793.22 L3195.09 1797.2 L3191.3 1804.6 L3188.31 1804.6 L3190.21 1797.2 L3190.21 1793.22 Z" fill="#000000" fill-rule="nonzero" fill-opacity="1" /><path clip-path="url(#clip860)" d="M3219.26 1773.17 L3223.52 1773.17 L3223.52 1799.1 L3219.26 1799.1 L3219.26 1773.17 M3219.26 1763.08 L3223.52 1763.08 L3223.52 1768.47 L3219.26 1768.47 L3219.26 1763.08 Z" fill="#000000" fill-rule="nonzero" fill-opacity="1" /><path clip-path="url(#clip860)" d="M3236.55 1795.21 L3236.55 1808.96 L3232.27 1808.96 L3232.27 1773.17 L3236.55 1773.17 L3236.55 1777.1 Q3237.89 1774.79 3239.93 1773.68 Q3241.99 1772.54 3244.84 1772.54 Q3249.56 1772.54 3252.5 1776.29 Q3255.46 1780.04 3255.46 1786.16 Q3255.46 1792.27 3252.5 1796.02 Q3249.56 1799.77 3244.84 1799.77 Q3241.99 1799.77 3239.93 1798.66 Q3237.89 1797.52 3236.55 1795.21 M3251.04 1786.16 Q3251.04 1781.46 3249.1 1778.79 Q3247.18 1776.11 3243.8 1776.11 Q3240.42 1776.11 3238.47 1778.79 Q3236.55 1781.46 3236.55 1786.16 Q3236.55 1790.85 3238.47 1793.54 Q3240.42 1796.2 3243.8 1796.2 Q3247.18 1796.2 3249.1 1793.54 Q3251.04 1790.85 3251.04 1786.16 Z" fill="#000000" fill-rule="nonzero" fill-opacity="1" /><path clip-path="url(#clip860)" d="M3272.57 1776.16 Q3269.14 1776.16 3267.15 1778.84 Q3265.16 1781.5 3265.16 1786.16 Q3265.16 1790.81 3267.13 1793.49 Q3269.12 1796.16 3272.57 1796.16 Q3275.97 1796.16 3277.96 1793.47 Q3279.95 1790.79 3279.95 1786.16 Q3279.95 1781.55 3277.96 1778.86 Q3275.97 1776.16 3272.57 1776.16 M3272.57 1772.54 Q3278.13 1772.54 3281.3 1776.16 Q3284.47 1779.77 3284.47 1786.16 Q3284.47 1792.52 3281.3 1796.16 Q3278.13 1799.77 3272.57 1799.77 Q3266.99 1799.77 3263.82 1796.16 Q3260.67 1792.52 3260.67 1786.16 Q3260.67 1779.77 3263.82 1776.16 Q3266.99 1772.54 3272.57 1772.54 Z" fill="#000000" fill-rule="nonzero" fill-opacity="1" /><path clip-path="url(#clip860)" d="M3295.65 1795.21 L3295.65 1808.96 L3291.37 1808.96 L3291.37 1773.17 L3295.65 1773.17 L3295.65 1777.1 Q3296.99 1774.79 3299.03 1773.68 Q3301.09 1772.54 3303.94 1772.54 Q3308.66 1772.54 3311.6 1776.29 Q3314.56 1780.04 3314.56 1786.16 Q3314.56 1792.27 3311.6 1796.02 Q3308.66 1799.77 3303.94 1799.77 Q3301.09 1799.77 3299.03 1798.66 Q3296.99 1797.52 3295.65 1795.21 M3310.14 1786.16 Q3310.14 1781.46 3308.19 1778.79 Q3306.27 1776.11 3302.89 1776.11 Q3299.51 1776.11 3297.57 1778.79 Q3295.65 1781.46 3295.65 1786.16 Q3295.65 1790.85 3297.57 1793.54 Q3299.51 1796.2 3302.89 1796.2 Q3306.27 1796.2 3308.19 1793.54 Q3310.14 1790.85 3310.14 1786.16 Z" fill="#000000" fill-rule="nonzero" fill-opacity="1" /><path clip-path="url(#clip860)" d="M3325.83 1765.81 L3325.83 1773.17 L3334.61 1773.17 L3334.61 1776.48 L3325.83 1776.48 L3325.83 1790.55 Q3325.83 1793.73 3326.69 1794.63 Q3327.57 1795.53 3330.23 1795.53 L3334.61 1795.53 L3334.61 1799.1 L3330.23 1799.1 Q3325.3 1799.1 3323.43 1797.27 Q3321.55 1795.42 3321.55 1790.55 L3321.55 1776.48 L3318.43 1776.48 L3318.43 1773.17 L3321.55 1773.17 L3321.55 1765.81 L3325.83 1765.81 Z" fill="#000000" fill-rule="nonzero" fill-opacity="1" /><path clip-path="url(#clip860)" d="M3339.54 1763.12 L3343.24 1763.12 Q3346.71 1768.59 3348.43 1773.82 Q3350.16 1779.05 3350.16 1784.21 Q3350.16 1789.4 3348.43 1794.65 Q3346.71 1799.91 3343.24 1805.35 L3339.54 1805.35 Q3342.62 1800.04 3344.12 1794.81 Q3345.65 1789.56 3345.65 1784.21 Q3345.65 1778.86 3344.12 1773.66 Q3342.62 1768.45 3339.54 1763.12 Z" fill="#000000" fill-rule="nonzero" fill-opacity="1" /><polyline clip-path="url(#clip860)" style="stroke:#2e8b57; stroke-linecap:round; stroke-linejoin:round; stroke-width:6; stroke-opacity:1; fill:none" points="2784.19,1833.66 3001.55,1833.66 "/>
<path clip-path="url(#clip860)" d="M2892.87 1808.06 L2867.27 1833.66 L2892.87 1859.26 L2918.47 1833.66 L2892.87 1808.06 Z" fill="#2e8b57" fill-rule="evenodd" fill-opacity="1" stroke="none"/>
<path clip-path="url(#clip860)" d="M3048.4 1814.96 Q3045.3 1820.29 3043.8 1825.5 Q3042.29 1830.7 3042.29 1836.05 Q3042.29 1841.4 3043.8 1846.65 Q3045.33 1851.88 3048.4 1857.19 L3044.7 1857.19 Q3041.23 1851.75 3039.49 1846.49 Q3037.78 1841.24 3037.78 1836.05 Q3037.78 1830.89 3039.49 1825.66 Q3041.21 1820.43 3044.7 1814.96 L3048.4 1814.96 Z" fill="#000000" fill-rule="nonzero" fill-opacity="1" /><path clip-path="url(#clip860)" d="M3068.45 1837.9 Q3063.29 1837.9 3061.3 1839.08 Q3059.31 1840.26 3059.31 1843.11 Q3059.31 1845.38 3060.79 1846.72 Q3062.29 1848.04 3064.86 1848.04 Q3068.4 1848.04 3070.53 1845.54 Q3072.69 1843.02 3072.69 1838.85 L3072.69 1837.9 L3068.45 1837.9 M3076.95 1836.14 L3076.95 1850.94 L3072.69 1850.94 L3072.69 1847 Q3071.23 1849.36 3069.05 1850.5 Q3066.88 1851.61 3063.73 1851.61 Q3059.75 1851.61 3057.39 1849.38 Q3055.05 1847.14 3055.05 1843.39 Q3055.05 1839.01 3057.96 1836.79 Q3060.9 1834.57 3066.71 1834.57 L3072.69 1834.57 L3072.69 1834.15 Q3072.69 1831.21 3070.74 1829.62 Q3068.82 1828 3065.33 1828 Q3063.1 1828 3061 1828.53 Q3058.89 1829.06 3056.95 1830.13 L3056.95 1826.19 Q3059.28 1825.29 3061.48 1824.85 Q3063.68 1824.38 3065.77 1824.38 Q3071.39 1824.38 3074.17 1827.3 Q3076.95 1830.22 3076.95 1836.14 Z" fill="#000000" fill-rule="nonzero" fill-opacity="1" /><path clip-path="url(#clip860)" d="M3102.78 1828.94 L3102.78 1814.92 L3107.04 1814.92 L3107.04 1850.94 L3102.78 1850.94 L3102.78 1847.05 Q3101.44 1849.36 3099.38 1850.5 Q3097.34 1851.61 3094.47 1851.61 Q3089.77 1851.61 3086.81 1847.86 Q3083.87 1844.11 3083.87 1838 Q3083.87 1831.88 3086.81 1828.13 Q3089.77 1824.38 3094.47 1824.38 Q3097.34 1824.38 3099.38 1825.52 Q3101.44 1826.63 3102.78 1828.94 M3088.27 1838 Q3088.27 1842.69 3090.19 1845.38 Q3092.13 1848.04 3095.51 1848.04 Q3098.89 1848.04 3100.83 1845.38 Q3102.78 1842.69 3102.78 1838 Q3102.78 1833.3 3100.83 1830.63 Q3098.89 1827.95 3095.51 1827.95 Q3092.13 1827.95 3090.19 1830.63 Q3088.27 1833.3 3088.27 1838 Z" fill="#000000" fill-rule="nonzero" fill-opacity="1" /><path clip-path="url(#clip860)" d="M3137.36 1835.29 L3137.36 1850.94 L3133.1 1850.94 L3133.1 1835.43 Q3133.1 1831.75 3131.67 1829.92 Q3130.23 1828.09 3127.36 1828.09 Q3123.91 1828.09 3121.92 1830.29 Q3119.93 1832.49 3119.93 1836.28 L3119.93 1850.94 L3115.65 1850.94 L3115.65 1825.01 L3119.93 1825.01 L3119.93 1829.04 Q3121.46 1826.7 3123.52 1825.54 Q3125.6 1824.38 3128.31 1824.38 Q3132.78 1824.38 3135.07 1827.16 Q3137.36 1829.92 3137.36 1835.29 Z" fill="#000000" fill-rule="nonzero" fill-opacity="1" /><path clip-path="url(#clip860)" d="M3145.86 1814.92 L3150.12 1814.92 L3150.12 1850.94 L3145.86 1850.94 L3145.86 1814.92 Z" fill="#000000" fill-rule="nonzero" fill-opacity="1" /><path clip-path="url(#clip860)" d="M3163.15 1847.05 L3163.15 1860.8 L3158.87 1860.8 L3158.87 1825.01 L3163.15 1825.01 L3163.15 1828.94 Q3164.49 1826.63 3166.53 1825.52 Q3168.59 1824.38 3171.44 1824.38 Q3176.16 1824.38 3179.1 1828.13 Q3182.06 1831.88 3182.06 1838 Q3182.06 1844.11 3179.1 1847.86 Q3176.16 1851.61 3171.44 1851.61 Q3168.59 1851.61 3166.53 1850.5 Q3164.49 1849.36 3163.15 1847.05 M3177.64 1838 Q3177.64 1833.3 3175.7 1830.63 Q3173.77 1827.95 3170.39 1827.95 Q3167.02 1827.95 3165.07 1830.63 Q3163.15 1833.3 3163.15 1838 Q3163.15 1842.69 3165.07 1845.38 Q3167.02 1848.04 3170.39 1848.04 Q3173.77 1848.04 3175.7 1845.38 Q3177.64 1842.69 3177.64 1838 Z" fill="#000000" fill-rule="nonzero" fill-opacity="1" /><path clip-path="url(#clip860)" d="M3190.21 1845.06 L3195.09 1845.06 L3195.09 1849.04 L3191.3 1856.44 L3188.31 1856.44 L3190.21 1849.04 L3190.21 1845.06 Z" fill="#000000" fill-rule="nonzero" fill-opacity="1" /><path clip-path="url(#clip860)" d="M3239.45 1829.99 Q3241.04 1827.12 3243.26 1825.75 Q3245.49 1824.38 3248.5 1824.38 Q3252.55 1824.38 3254.75 1827.23 Q3256.95 1830.06 3256.95 1835.29 L3256.95 1850.94 L3252.66 1850.94 L3252.66 1835.43 Q3252.66 1831.7 3251.34 1829.89 Q3250.02 1828.09 3247.32 1828.09 Q3244.01 1828.09 3242.08 1830.29 Q3240.16 1832.49 3240.16 1836.28 L3240.16 1850.94 L3235.88 1850.94 L3235.88 1835.43 Q3235.88 1831.68 3234.56 1829.89 Q3233.24 1828.09 3230.49 1828.09 Q3227.22 1828.09 3225.3 1830.31 Q3223.38 1832.51 3223.38 1836.28 L3223.38 1850.94 L3219.1 1850.94 L3219.1 1825.01 L3223.38 1825.01 L3223.38 1829.04 Q3224.84 1826.65 3226.88 1825.52 Q3228.91 1824.38 3231.71 1824.38 Q3234.54 1824.38 3236.51 1825.82 Q3238.5 1827.26 3239.45 1829.99 Z" fill="#000000" fill-rule="nonzero" fill-opacity="1" /><path clip-path="url(#clip860)" d="M3277.22 1837.9 Q3272.06 1837.9 3270.07 1839.08 Q3268.08 1840.26 3268.08 1843.11 Q3268.08 1845.38 3269.56 1846.72 Q3271.07 1848.04 3273.63 1848.04 Q3277.18 1848.04 3279.31 1845.54 Q3281.46 1843.02 3281.46 1838.85 L3281.46 1837.9 L3277.22 1837.9 M3285.72 1836.14 L3285.72 1850.94 L3281.46 1850.94 L3281.46 1847 Q3280 1849.36 3277.82 1850.5 Q3275.65 1851.61 3272.5 1851.61 Q3268.52 1851.61 3266.16 1849.38 Q3263.82 1847.14 3263.82 1843.39 Q3263.82 1839.01 3266.74 1836.79 Q3269.68 1834.57 3275.49 1834.57 L3281.46 1834.57 L3281.46 1834.15 Q3281.46 1831.21 3279.51 1829.62 Q3277.59 1828 3274.1 1828 Q3271.88 1828 3269.77 1828.53 Q3267.66 1829.06 3265.72 1830.13 L3265.72 1826.19 Q3268.06 1825.29 3270.26 1824.85 Q3272.45 1824.38 3274.54 1824.38 Q3280.16 1824.38 3282.94 1827.3 Q3285.72 1830.22 3285.72 1836.14 Z" fill="#000000" fill-rule="nonzero" fill-opacity="1" /><path clip-path="url(#clip860)" d="M3311.55 1828.94 L3311.55 1814.92 L3315.81 1814.92 L3315.81 1850.94 L3311.55 1850.94 L3311.55 1847.05 Q3310.21 1849.36 3308.15 1850.5 Q3306.11 1851.61 3303.24 1851.61 Q3298.54 1851.61 3295.58 1847.86 Q3292.64 1844.11 3292.64 1838 Q3292.64 1831.88 3295.58 1828.13 Q3298.54 1824.38 3303.24 1824.38 Q3306.11 1824.38 3308.15 1825.52 Q3310.21 1826.63 3311.55 1828.94 M3297.04 1838 Q3297.04 1842.69 3298.96 1845.38 Q3300.9 1848.04 3304.28 1848.04 Q3307.66 1848.04 3309.61 1845.38 Q3311.55 1842.69 3311.55 1838 Q3311.55 1833.3 3309.61 1830.63 Q3307.66 1827.95 3304.28 1827.95 Q3300.9 1827.95 3298.96 1830.63 Q3297.04 1833.3 3297.04 1838 Z" fill="#000000" fill-rule="nonzero" fill-opacity="1" /><path clip-path="url(#clip860)" d="M3346.13 1835.29 L3346.13 1850.94 L3341.88 1850.94 L3341.88 1835.43 Q3341.88 1831.75 3340.44 1829.92 Q3339 1828.09 3336.13 1828.09 Q3332.69 1828.09 3330.69 1830.29 Q3328.7 1832.49 3328.7 1836.28 L3328.7 1850.94 L3324.42 1850.94 L3324.42 1825.01 L3328.7 1825.01 L3328.7 1829.04 Q3330.23 1826.7 3332.29 1825.54 Q3334.38 1824.38 3337.08 1824.38 Q3341.55 1824.38 3343.84 1827.16 Q3346.13 1829.92 3346.13 1835.29 Z" fill="#000000" fill-rule="nonzero" fill-opacity="1" /><path clip-path="url(#clip860)" d="M3354.63 1814.92 L3358.89 1814.92 L3358.89 1850.94 L3354.63 1850.94 L3354.63 1814.92 Z" fill="#000000" fill-rule="nonzero" fill-opacity="1" /><path clip-path="url(#clip860)" d="M3371.92 1847.05 L3371.92 1860.8 L3367.64 1860.8 L3367.64 1825.01 L3371.92 1825.01 L3371.92 1828.94 Q3373.26 1826.63 3375.3 1825.52 Q3377.36 1824.38 3380.21 1824.38 Q3384.93 1824.38 3387.87 1828.13 Q3390.83 1831.88 3390.83 1838 Q3390.83 1844.11 3387.87 1847.86 Q3384.93 1851.61 3380.21 1851.61 Q3377.36 1851.61 3375.3 1850.5 Q3373.26 1849.36 3371.92 1847.05 M3386.41 1838 Q3386.41 1833.3 3384.47 1830.63 Q3382.55 1827.95 3379.17 1827.95 Q3375.79 1827.95 3373.84 1830.63 Q3371.92 1833.3 3371.92 1838 Q3371.92 1842.69 3373.84 1845.38 Q3375.79 1848.04 3379.17 1848.04 Q3382.55 1848.04 3384.47 1845.38 Q3386.41 1842.69 3386.41 1838 Z" fill="#000000" fill-rule="nonzero" fill-opacity="1" /><path clip-path="url(#clip860)" d="M3397.22 1814.96 L3400.93 1814.96 Q3404.4 1820.43 3406.11 1825.66 Q3407.85 1830.89 3407.85 1836.05 Q3407.85 1841.24 3406.11 1846.49 Q3404.4 1851.75 3400.93 1857.19 L3397.22 1857.19 Q3400.3 1851.88 3401.81 1846.65 Q3403.33 1841.4 3403.33 1836.05 Q3403.33 1830.7 3401.81 1825.5 Q3400.3 1820.29 3397.22 1814.96 Z" fill="#000000" fill-rule="nonzero" fill-opacity="1" /><polyline clip-path="url(#clip860)" style="stroke:#ff6347; stroke-linecap:round; stroke-linejoin:round; stroke-width:6; stroke-opacity:1; fill:none" points="2784.19,1885.5 3001.55,1885.5 "/>
<path clip-path="url(#clip860)" d="M2867.27 1859.9 L2867.27 1911.1 L2918.47 1911.1 L2918.47 1859.9 L2867.27 1859.9 Z" fill="#ff6347" fill-rule="evenodd" fill-opacity="1" stroke="none"/>
<path clip-path="url(#clip860)" d="M3048.4 1866.8 Q3045.3 1872.13 3043.8 1877.34 Q3042.29 1882.54 3042.29 1887.89 Q3042.29 1893.24 3043.8 1898.49 Q3045.33 1903.72 3048.4 1909.03 L3044.7 1909.03 Q3041.23 1903.59 3039.49 1898.33 Q3037.78 1893.08 3037.78 1887.89 Q3037.78 1882.73 3039.49 1877.5 Q3041.21 1872.27 3044.7 1866.8 L3048.4 1866.8 Z" fill="#000000" fill-rule="nonzero" fill-opacity="1" /><path clip-path="url(#clip860)" d="M3078.84 1888.75 L3078.84 1890.83 L3059.26 1890.83 Q3059.54 1895.23 3061.9 1897.54 Q3064.28 1899.84 3068.52 1899.84 Q3070.97 1899.84 3073.27 1899.23 Q3075.58 1898.63 3077.85 1897.43 L3077.85 1901.46 Q3075.56 1902.43 3073.15 1902.94 Q3070.74 1903.45 3068.27 1903.45 Q3062.06 1903.45 3058.43 1899.84 Q3054.82 1896.22 3054.82 1890.07 Q3054.82 1883.7 3058.24 1879.97 Q3061.69 1876.22 3067.52 1876.22 Q3072.76 1876.22 3075.79 1879.6 Q3078.84 1882.96 3078.84 1888.75 M3074.59 1887.5 Q3074.54 1884 3072.62 1881.92 Q3070.72 1879.84 3067.57 1879.84 Q3064.01 1879.84 3061.85 1881.85 Q3059.72 1883.86 3059.4 1887.52 L3074.59 1887.5 Z" fill="#000000" fill-rule="nonzero" fill-opacity="1" /><path clip-path="url(#clip860)" d="M3106.55 1876.85 L3097.18 1889.47 L3107.04 1902.78 L3102.02 1902.78 L3094.47 1892.59 L3086.92 1902.78 L3081.9 1902.78 L3091.97 1889.21 L3082.76 1876.85 L3087.78 1876.85 L3094.65 1886.09 L3101.53 1876.85 L3106.55 1876.85 Z" fill="#000000" fill-rule="nonzero" fill-opacity="1" /><path clip-path="url(#clip860)" d="M3124.84 1889.74 Q3119.68 1889.74 3117.69 1890.92 Q3115.7 1892.1 3115.7 1894.95 Q3115.7 1897.22 3117.18 1898.56 Q3118.68 1899.88 3121.25 1899.88 Q3124.79 1899.88 3126.92 1897.38 Q3129.08 1894.86 3129.08 1890.69 L3129.08 1889.74 L3124.84 1889.74 M3133.33 1887.98 L3133.33 1902.78 L3129.08 1902.78 L3129.08 1898.84 Q3127.62 1901.2 3125.44 1902.34 Q3123.27 1903.45 3120.12 1903.45 Q3116.14 1903.45 3113.77 1901.22 Q3111.44 1898.98 3111.44 1895.23 Q3111.44 1890.85 3114.35 1888.63 Q3117.29 1886.41 3123.1 1886.41 L3129.08 1886.41 L3129.08 1885.99 Q3129.08 1883.05 3127.13 1881.46 Q3125.21 1879.84 3121.71 1879.84 Q3119.49 1879.84 3117.39 1880.37 Q3115.28 1880.9 3113.33 1881.97 L3113.33 1878.03 Q3115.67 1877.13 3117.87 1876.69 Q3120.07 1876.22 3122.15 1876.22 Q3127.78 1876.22 3130.56 1879.14 Q3133.33 1882.06 3133.33 1887.98 Z" fill="#000000" fill-rule="nonzero" fill-opacity="1" /><path clip-path="url(#clip860)" d="M3143.2 1896.9 L3148.08 1896.9 L3148.08 1900.88 L3144.28 1908.28 L3141.3 1908.28 L3143.2 1900.88 L3143.2 1896.9 Z" fill="#000000" fill-rule="nonzero" fill-opacity="1" /><path clip-path="url(#clip860)" d="M3172.25 1876.85 L3176.51 1876.85 L3176.51 1902.78 L3172.25 1902.78 L3172.25 1876.85 M3172.25 1866.76 L3176.51 1866.76 L3176.51 1872.15 L3172.25 1872.15 L3172.25 1866.76 Z" fill="#000000" fill-rule="nonzero" fill-opacity="1" /><path clip-path="url(#clip860)" d="M3189.54 1898.89 L3189.54 1912.64 L3185.26 1912.64 L3185.26 1876.85 L3189.54 1876.85 L3189.54 1880.78 Q3190.88 1878.47 3192.92 1877.36 Q3194.98 1876.22 3197.83 1876.22 Q3202.55 1876.22 3205.49 1879.97 Q3208.45 1883.72 3208.45 1889.84 Q3208.45 1895.95 3205.49 1899.7 Q3202.55 1903.45 3197.83 1903.45 Q3194.98 1903.45 3192.92 1902.34 Q3190.88 1901.2 3189.54 1898.89 M3204.03 1889.84 Q3204.03 1885.14 3202.08 1882.47 Q3200.16 1879.79 3196.78 1879.79 Q3193.4 1879.79 3191.46 1882.47 Q3189.54 1885.14 3189.54 1889.84 Q3189.54 1894.53 3191.46 1897.22 Q3193.4 1899.88 3196.78 1899.88 Q3200.16 1899.88 3202.08 1897.22 Q3204.03 1894.53 3204.03 1889.84 Z" fill="#000000" fill-rule="nonzero" fill-opacity="1" /><path clip-path="url(#clip860)" d="M3225.56 1879.84 Q3222.13 1879.84 3220.14 1882.52 Q3218.15 1885.18 3218.15 1889.84 Q3218.15 1894.49 3220.12 1897.17 Q3222.11 1899.84 3225.56 1899.84 Q3228.96 1899.84 3230.95 1897.15 Q3232.94 1894.47 3232.94 1889.84 Q3232.94 1885.23 3230.95 1882.54 Q3228.96 1879.84 3225.56 1879.84 M3225.56 1876.22 Q3231.11 1876.22 3234.28 1879.84 Q3237.45 1883.45 3237.45 1889.84 Q3237.45 1896.2 3234.28 1899.84 Q3231.11 1903.45 3225.56 1903.45 Q3219.98 1903.45 3216.81 1899.84 Q3213.66 1896.2 3213.66 1889.84 Q3213.66 1883.45 3216.81 1879.84 Q3219.98 1876.22 3225.56 1876.22 Z" fill="#000000" fill-rule="nonzero" fill-opacity="1" /><path clip-path="url(#clip860)" d="M3248.64 1898.89 L3248.64 1912.64 L3244.35 1912.64 L3244.35 1876.85 L3248.64 1876.85 L3248.64 1880.78 Q3249.98 1878.47 3252.01 1877.36 Q3254.07 1876.22 3256.92 1876.22 Q3261.64 1876.22 3264.58 1879.97 Q3267.55 1883.72 3267.55 1889.84 Q3267.55 1895.95 3264.58 1899.7 Q3261.64 1903.45 3256.92 1903.45 Q3254.07 1903.45 3252.01 1902.34 Q3249.98 1901.2 3248.64 1898.89 M3263.13 1889.84 Q3263.13 1885.14 3261.18 1882.47 Q3259.26 1879.79 3255.88 1879.79 Q3252.5 1879.79 3250.56 1882.47 Q3248.64 1885.14 3248.64 1889.84 Q3248.64 1894.53 3250.56 1897.22 Q3252.5 1899.88 3255.88 1899.88 Q3259.26 1899.88 3261.18 1897.22 Q3263.13 1894.53 3263.13 1889.84 Z" fill="#000000" fill-rule="nonzero" fill-opacity="1" /><path clip-path="url(#clip860)" d="M3278.82 1869.49 L3278.82 1876.85 L3287.59 1876.85 L3287.59 1880.16 L3278.82 1880.16 L3278.82 1894.23 Q3278.82 1897.41 3279.68 1898.31 Q3280.56 1899.21 3283.22 1899.21 L3287.59 1899.21 L3287.59 1902.78 L3283.22 1902.78 Q3278.29 1902.78 3276.41 1900.95 Q3274.54 1899.1 3274.54 1894.23 L3274.54 1880.16 L3271.41 1880.16 L3271.41 1876.85 L3274.54 1876.85 L3274.54 1869.49 L3278.82 1869.49 Z" fill="#000000" fill-rule="nonzero" fill-opacity="1" /><path clip-path="url(#clip860)" d="M3292.52 1866.8 L3296.23 1866.8 Q3299.7 1872.27 3301.41 1877.5 Q3303.15 1882.73 3303.15 1887.89 Q3303.15 1893.08 3301.41 1898.33 Q3299.7 1903.59 3296.23 1909.03 L3292.52 1909.03 Q3295.6 1903.72 3297.11 1898.49 Q3298.63 1893.24 3298.63 1887.89 Q3298.63 1882.54 3297.11 1877.34 Q3295.6 1872.13 3292.52 1866.8 Z" fill="#000000" fill-rule="nonzero" fill-opacity="1" /><polyline clip-path="url(#clip860)" style="stroke:#ff8c00; stroke-linecap:round; stroke-linejoin:round; stroke-width:6; stroke-opacity:1; fill:none" points="2784.19,1937.34 3001.55,1937.34 "/>
<path clip-path="url(#clip860)" d="M2892.87 1911.74 L2867.27 1962.94 L2918.47 1962.94 L2892.87 1911.74 Z" fill="#ff8c00" fill-rule="evenodd" fill-opacity="1" stroke="none"/>
<path clip-path="url(#clip860)" d="M3048.4 1918.64 Q3045.3 1923.97 3043.8 1929.18 Q3042.29 1934.38 3042.29 1939.73 Q3042.29 1945.08 3043.8 1950.33 Q3045.33 1955.56 3048.4 1960.87 L3044.7 1960.87 Q3041.23 1955.43 3039.49 1950.17 Q3037.78 1944.92 3037.78 1939.73 Q3037.78 1934.57 3039.49 1929.34 Q3041.21 1924.11 3044.7 1918.64 L3048.4 1918.64 Z" fill="#000000" fill-rule="nonzero" fill-opacity="1" /><path clip-path="url(#clip860)" d="M3078.84 1940.59 L3078.84 1942.67 L3059.26 1942.67 Q3059.54 1947.07 3061.9 1949.38 Q3064.28 1951.68 3068.52 1951.68 Q3070.97 1951.68 3073.27 1951.07 Q3075.58 1950.47 3077.85 1949.27 L3077.85 1953.3 Q3075.56 1954.27 3073.15 1954.78 Q3070.74 1955.29 3068.27 1955.29 Q3062.06 1955.29 3058.43 1951.68 Q3054.82 1948.06 3054.82 1941.91 Q3054.82 1935.54 3058.24 1931.81 Q3061.69 1928.06 3067.52 1928.06 Q3072.76 1928.06 3075.79 1931.44 Q3078.84 1934.8 3078.84 1940.59 M3074.59 1939.34 Q3074.54 1935.84 3072.62 1933.76 Q3070.72 1931.68 3067.57 1931.68 Q3064.01 1931.68 3061.85 1933.69 Q3059.72 1935.7 3059.4 1939.36 L3074.59 1939.34 Z" fill="#000000" fill-rule="nonzero" fill-opacity="1" /><path clip-path="url(#clip860)" d="M3106.55 1928.69 L3097.18 1941.31 L3107.04 1954.62 L3102.02 1954.62 L3094.47 1944.43 L3086.92 1954.62 L3081.9 1954.62 L3091.97 1941.05 L3082.76 1928.69 L3087.78 1928.69 L3094.65 1937.93 L3101.53 1928.69 L3106.55 1928.69 Z" fill="#000000" fill-rule="nonzero" fill-opacity="1" /><path clip-path="url(#clip860)" d="M3124.84 1941.58 Q3119.68 1941.58 3117.69 1942.76 Q3115.7 1943.94 3115.7 1946.79 Q3115.7 1949.06 3117.18 1950.4 Q3118.68 1951.72 3121.25 1951.72 Q3124.79 1951.72 3126.92 1949.22 Q3129.08 1946.7 3129.08 1942.53 L3129.08 1941.58 L3124.84 1941.58 M3133.33 1939.82 L3133.33 1954.62 L3129.08 1954.62 L3129.08 1950.68 Q3127.62 1953.04 3125.44 1954.18 Q3123.27 1955.29 3120.12 1955.29 Q3116.14 1955.29 3113.77 1953.06 Q3111.44 1950.82 3111.44 1947.07 Q3111.44 1942.69 3114.35 1940.47 Q3117.29 1938.25 3123.1 1938.25 L3129.08 1938.25 L3129.08 1937.83 Q3129.08 1934.89 3127.13 1933.3 Q3125.21 1931.68 3121.71 1931.68 Q3119.49 1931.68 3117.39 1932.21 Q3115.28 1932.74 3113.33 1933.81 L3113.33 1929.87 Q3115.67 1928.97 3117.87 1928.53 Q3120.07 1928.06 3122.15 1928.06 Q3127.78 1928.06 3130.56 1930.98 Q3133.33 1933.9 3133.33 1939.82 Z" fill="#000000" fill-rule="nonzero" fill-opacity="1" /><path clip-path="url(#clip860)" d="M3143.2 1948.74 L3148.08 1948.74 L3148.08 1952.72 L3144.28 1960.12 L3141.3 1960.12 L3143.2 1952.72 L3143.2 1948.74 Z" fill="#000000" fill-rule="nonzero" fill-opacity="1" /><path clip-path="url(#clip860)" d="M3192.43 1933.67 Q3194.03 1930.8 3196.25 1929.43 Q3198.47 1928.06 3201.48 1928.06 Q3205.53 1928.06 3207.73 1930.91 Q3209.93 1933.74 3209.93 1938.97 L3209.93 1954.62 L3205.65 1954.62 L3205.65 1939.11 Q3205.65 1935.38 3204.33 1933.57 Q3203.01 1931.77 3200.3 1931.77 Q3196.99 1931.77 3195.07 1933.97 Q3193.15 1936.17 3193.15 1939.96 L3193.15 1954.62 L3188.87 1954.62 L3188.87 1939.11 Q3188.87 1935.36 3187.55 1933.57 Q3186.23 1931.77 3183.47 1931.77 Q3180.21 1931.77 3178.29 1933.99 Q3176.37 1936.19 3176.37 1939.96 L3176.37 1954.62 L3172.08 1954.62 L3172.08 1928.69 L3176.37 1928.69 L3176.37 1932.72 Q3177.83 1930.33 3179.86 1929.2 Q3181.9 1928.06 3184.7 1928.06 Q3187.52 1928.06 3189.49 1929.5 Q3191.48 1930.94 3192.43 1933.67 Z" fill="#000000" fill-rule="nonzero" fill-opacity="1" /><path clip-path="url(#clip860)" d="M3230.21 1941.58 Q3225.05 1941.58 3223.06 1942.76 Q3221.07 1943.94 3221.07 1946.79 Q3221.07 1949.06 3222.55 1950.4 Q3224.05 1951.72 3226.62 1951.72 Q3230.16 1951.72 3232.29 1949.22 Q3234.45 1946.7 3234.45 1942.53 L3234.45 1941.58 L3230.21 1941.58 M3238.7 1939.82 L3238.7 1954.62 L3234.45 1954.62 L3234.45 1950.68 Q3232.99 1953.04 3230.81 1954.18 Q3228.64 1955.29 3225.49 1955.29 Q3221.51 1955.29 3219.14 1953.06 Q3216.81 1950.82 3216.81 1947.07 Q3216.81 1942.69 3219.72 1940.47 Q3222.66 1938.25 3228.47 1938.25 L3234.45 1938.25 L3234.45 1937.83 Q3234.45 1934.89 3232.5 1933.3 Q3230.58 1931.68 3227.08 1931.68 Q3224.86 1931.68 3222.76 1932.21 Q3220.65 1932.74 3218.7 1933.81 L3218.7 1929.87 Q3221.04 1928.97 3223.24 1928.53 Q3225.44 1928.06 3227.52 1928.06 Q3233.15 1928.06 3235.93 1930.98 Q3238.7 1933.9 3238.7 1939.82 Z" fill="#000000" fill-rule="nonzero" fill-opacity="1" /><path clip-path="url(#clip860)" d="M3264.54 1932.62 L3264.54 1918.6 L3268.8 1918.6 L3268.8 1954.62 L3264.54 1954.62 L3264.54 1950.73 Q3263.2 1953.04 3261.13 1954.18 Q3259.1 1955.29 3256.23 1955.29 Q3251.53 1955.29 3248.57 1951.54 Q3245.63 1947.79 3245.63 1941.68 Q3245.63 1935.56 3248.57 1931.81 Q3251.53 1928.06 3256.23 1928.06 Q3259.1 1928.06 3261.13 1929.2 Q3263.2 1930.31 3264.54 1932.62 M3250.02 1941.68 Q3250.02 1946.37 3251.95 1949.06 Q3253.89 1951.72 3257.27 1951.72 Q3260.65 1951.72 3262.59 1949.06 Q3264.54 1946.37 3264.54 1941.68 Q3264.54 1936.98 3262.59 1934.31 Q3260.65 1931.63 3257.27 1931.63 Q3253.89 1931.63 3251.95 1934.31 Q3250.02 1936.98 3250.02 1941.68 Z" fill="#000000" fill-rule="nonzero" fill-opacity="1" /><path clip-path="url(#clip860)" d="M3299.12 1938.97 L3299.12 1954.62 L3294.86 1954.62 L3294.86 1939.11 Q3294.86 1935.43 3293.43 1933.6 Q3291.99 1931.77 3289.12 1931.77 Q3285.67 1931.77 3283.68 1933.97 Q3281.69 1936.17 3281.69 1939.96 L3281.69 1954.62 L3277.41 1954.62 L3277.41 1928.69 L3281.69 1928.69 L3281.69 1932.72 Q3283.22 1930.38 3285.28 1929.22 Q3287.36 1928.06 3290.07 1928.06 Q3294.54 1928.06 3296.83 1930.84 Q3299.12 1933.6 3299.12 1938.97 Z" fill="#000000" fill-rule="nonzero" fill-opacity="1" /><path clip-path="url(#clip860)" d="M3307.62 1918.6 L3311.88 1918.6 L3311.88 1954.62 L3307.62 1954.62 L3307.62 1918.6 Z" fill="#000000" fill-rule="nonzero" fill-opacity="1" /><path clip-path="url(#clip860)" d="M3324.91 1950.73 L3324.91 1964.48 L3320.63 1964.48 L3320.63 1928.69 L3324.91 1928.69 L3324.91 1932.62 Q3326.25 1930.31 3328.29 1929.2 Q3330.35 1928.06 3333.19 1928.06 Q3337.92 1928.06 3340.86 1931.81 Q3343.82 1935.56 3343.82 1941.68 Q3343.82 1947.79 3340.86 1951.54 Q3337.92 1955.29 3333.19 1955.29 Q3330.35 1955.29 3328.29 1954.18 Q3326.25 1953.04 3324.91 1950.73 M3339.4 1941.68 Q3339.4 1936.98 3337.45 1934.31 Q3335.53 1931.63 3332.15 1931.63 Q3328.77 1931.63 3326.83 1934.31 Q3324.91 1936.98 3324.91 1941.68 Q3324.91 1946.37 3326.83 1949.06 Q3328.77 1951.72 3332.15 1951.72 Q3335.53 1951.72 3337.45 1949.06 Q3339.4 1946.37 3339.4 1941.68 Z" fill="#000000" fill-rule="nonzero" fill-opacity="1" /><path clip-path="url(#clip860)" d="M3350.21 1918.64 L3353.91 1918.64 Q3357.38 1924.11 3359.1 1929.34 Q3360.83 1934.57 3360.83 1939.73 Q3360.83 1944.92 3359.1 1950.17 Q3357.38 1955.43 3353.91 1960.87 L3350.21 1960.87 Q3353.29 1955.56 3354.79 1950.33 Q3356.32 1945.08 3356.32 1939.73 Q3356.32 1934.38 3354.79 1929.18 Q3353.29 1923.97 3350.21 1918.64 Z" fill="#000000" fill-rule="nonzero" fill-opacity="1" /><polyline clip-path="url(#clip860)" style="stroke:#9370db; stroke-linecap:round; stroke-linejoin:round; stroke-width:6; stroke-opacity:1; fill:none" points="2784.19,1989.18 3001.55,1989.18 "/>
<path clip-path="url(#clip860)" d="M2918.47 1963.58 L2867.27 1963.58 L2892.87 2014.78 L2918.47 1963.58 Z" fill="#9370db" fill-rule="evenodd" fill-opacity="1" stroke="none"/>
<path clip-path="url(#clip860)" d="M3048.4 1970.48 Q3045.3 1975.81 3043.8 1981.02 Q3042.29 1986.22 3042.29 1991.57 Q3042.29 1996.92 3043.8 2002.17 Q3045.33 2007.4 3048.4 2012.71 L3044.7 2012.71 Q3041.23 2007.27 3039.49 2002.01 Q3037.78 1996.76 3037.78 1991.57 Q3037.78 1986.41 3039.49 1981.18 Q3041.21 1975.95 3044.7 1970.48 L3048.4 1970.48 Z" fill="#000000" fill-rule="nonzero" fill-opacity="1" /><path clip-path="url(#clip860)" d="M3056.67 1980.53 L3060.93 1980.53 L3060.93 2006.92 Q3060.93 2011.87 3059.03 2014.09 Q3057.15 2016.32 3052.96 2016.32 L3051.34 2016.32 L3051.34 2012.71 L3052.48 2012.71 Q3054.91 2012.71 3055.79 2011.57 Q3056.67 2010.46 3056.67 2006.92 L3056.67 1980.53 M3056.67 1970.44 L3060.93 1970.44 L3060.93 1975.83 L3056.67 1975.83 L3056.67 1970.44 Z" fill="#000000" fill-rule="nonzero" fill-opacity="1" /><path clip-path="url(#clip860)" d="M3069.4 1996.22 L3069.4 1980.53 L3073.66 1980.53 L3073.66 1996.06 Q3073.66 1999.74 3075.09 2001.59 Q3076.53 2003.42 3079.4 2003.42 Q3082.85 2003.42 3084.84 2001.22 Q3086.85 1999.03 3086.85 1995.23 L3086.85 1980.53 L3091.11 1980.53 L3091.11 2006.46 L3086.85 2006.46 L3086.85 2002.47 Q3085.3 2004.84 3083.24 2005.99 Q3081.21 2007.13 3078.5 2007.13 Q3074.03 2007.13 3071.71 2004.35 Q3069.4 2001.57 3069.4 1996.22 M3080.12 1979.9 L3080.12 1979.9 Z" fill="#000000" fill-rule="nonzero" fill-opacity="1" /><path clip-path="url(#clip860)" d="M3120.07 1985.51 Q3121.67 1982.64 3123.89 1981.27 Q3126.11 1979.9 3129.12 1979.9 Q3133.17 1979.9 3135.37 1982.75 Q3137.57 1985.58 3137.57 1990.81 L3137.57 2006.46 L3133.29 2006.46 L3133.29 1990.95 Q3133.29 1987.22 3131.97 1985.41 Q3130.65 1983.61 3127.94 1983.61 Q3124.63 1983.61 3122.71 1985.81 Q3120.79 1988.01 3120.79 1991.8 L3120.79 2006.46 L3116.51 2006.46 L3116.51 1990.95 Q3116.51 1987.2 3115.19 1985.41 Q3113.87 1983.61 3111.11 1983.61 Q3107.85 1983.61 3105.93 1985.83 Q3104.01 1988.03 3104.01 1991.8 L3104.01 2006.46 L3099.72 2006.46 L3099.72 1980.53 L3104.01 1980.53 L3104.01 1984.56 Q3105.46 1982.17 3107.5 1981.04 Q3109.54 1979.9 3112.34 1979.9 Q3115.16 1979.9 3117.13 1981.34 Q3119.12 1982.78 3120.07 1985.51 Z" fill="#000000" fill-rule="nonzero" fill-opacity="1" /><path clip-path="url(#clip860)" d="M3150.19 2002.57 L3150.19 2016.32 L3145.9 2016.32 L3145.9 1980.53 L3150.19 1980.53 L3150.19 1984.46 Q3151.53 1982.15 3153.57 1981.04 Q3155.63 1979.9 3158.47 1979.9 Q3163.2 1979.9 3166.14 1983.65 Q3169.1 1987.4 3169.1 1993.52 Q3169.1 1999.63 3166.14 2003.38 Q3163.2 2007.13 3158.47 2007.13 Q3155.63 2007.13 3153.57 2006.02 Q3151.53 2004.88 3150.19 2002.57 M3164.68 1993.52 Q3164.68 1988.82 3162.73 1986.15 Q3160.81 1983.47 3157.43 1983.47 Q3154.05 1983.47 3152.11 1986.15 Q3150.19 1988.82 3150.19 1993.52 Q3150.19 1998.21 3152.11 2000.9 Q3154.05 2003.56 3157.43 2003.56 Q3160.81 2003.56 3162.73 2000.9 Q3164.68 1998.21 3164.68 1993.52 Z" fill="#000000" fill-rule="nonzero" fill-opacity="1" /><path clip-path="url(#clip860)" d="M3177.25 2000.58 L3182.13 2000.58 L3182.13 2004.56 L3178.33 2011.96 L3175.35 2011.96 L3177.25 2004.56 L3177.25 2000.58 Z" fill="#000000" fill-rule="nonzero" fill-opacity="1" /><path clip-path="url(#clip860)" d="M3206.3 1980.53 L3210.56 1980.53 L3210.56 2006.46 L3206.3 2006.46 L3206.3 1980.53 M3206.3 1970.44 L3210.56 1970.44 L3210.56 1975.83 L3206.3 1975.83 L3206.3 1970.44 Z" fill="#000000" fill-rule="nonzero" fill-opacity="1" /><path clip-path="url(#clip860)" d="M3223.59 2002.57 L3223.59 2016.32 L3219.31 2016.32 L3219.31 1980.53 L3223.59 1980.53 L3223.59 1984.46 Q3224.93 1982.15 3226.97 1981.04 Q3229.03 1979.9 3231.88 1979.9 Q3236.6 1979.9 3239.54 1983.65 Q3242.5 1987.4 3242.5 1993.52 Q3242.5 1999.63 3239.54 2003.38 Q3236.6 2007.13 3231.88 2007.13 Q3229.03 2007.13 3226.97 2006.02 Q3224.93 2004.88 3223.59 2002.57 M3238.08 1993.52 Q3238.08 1988.82 3236.14 1986.15 Q3234.21 1983.47 3230.83 1983.47 Q3227.45 1983.47 3225.51 1986.15 Q3223.59 1988.82 3223.59 1993.52 Q3223.59 1998.21 3225.51 2000.9 Q3227.45 2003.56 3230.83 2003.56 Q3234.21 2003.56 3236.14 2000.9 Q3238.08 1998.21 3238.08 1993.52 Z" fill="#000000" fill-rule="nonzero" fill-opacity="1" /><path clip-path="url(#clip860)" d="M3259.61 1983.52 Q3256.18 1983.52 3254.19 1986.2 Q3252.2 1988.86 3252.2 1993.52 Q3252.2 1998.17 3254.17 2000.85 Q3256.16 2003.52 3259.61 2003.52 Q3263.01 2003.52 3265 2000.83 Q3266.99 1998.15 3266.99 1993.52 Q3266.99 1988.91 3265 1986.22 Q3263.01 1983.52 3259.61 1983.52 M3259.61 1979.9 Q3265.16 1979.9 3268.33 1983.52 Q3271.51 1987.13 3271.51 1993.52 Q3271.51 1999.88 3268.33 2003.52 Q3265.16 2007.13 3259.61 2007.13 Q3254.03 2007.13 3250.86 2003.52 Q3247.71 1999.88 3247.71 1993.52 Q3247.71 1987.13 3250.86 1983.52 Q3254.03 1979.9 3259.61 1979.9 Z" fill="#000000" fill-rule="nonzero" fill-opacity="1" /><path clip-path="url(#clip860)" d="M3282.69 2002.57 L3282.69 2016.32 L3278.4 2016.32 L3278.4 1980.53 L3282.69 1980.53 L3282.69 1984.46 Q3284.03 1982.15 3286.07 1981.04 Q3288.13 1979.9 3290.97 1979.9 Q3295.69 1979.9 3298.63 1983.65 Q3301.6 1987.4 3301.6 1993.52 Q3301.6 1999.63 3298.63 2003.38 Q3295.69 2007.13 3290.97 2007.13 Q3288.13 2007.13 3286.07 2006.02 Q3284.03 2004.88 3282.69 2002.57 M3297.18 1993.52 Q3297.18 1988.82 3295.23 1986.15 Q3293.31 1983.47 3289.93 1983.47 Q3286.55 1983.47 3284.61 1986.15 Q3282.69 1988.82 3282.69 1993.52 Q3282.69 1998.21 3284.61 2000.9 Q3286.55 2003.56 3289.93 2003.56 Q3293.31 2003.56 3295.23 2000.9 Q3297.18 1998.21 3297.18 1993.52 Z" fill="#000000" fill-rule="nonzero" fill-opacity="1" /><path clip-path="url(#clip860)" d="M3312.87 1973.17 L3312.87 1980.53 L3321.64 1980.53 L3321.64 1983.84 L3312.87 1983.84 L3312.87 1997.91 Q3312.87 2001.09 3313.73 2001.99 Q3314.61 2002.89 3317.27 2002.89 L3321.64 2002.89 L3321.64 2006.46 L3317.27 2006.46 Q3312.34 2006.46 3310.46 2004.63 Q3308.59 2002.78 3308.59 1997.91 L3308.59 1983.84 L3305.46 1983.84 L3305.46 1980.53 L3308.59 1980.53 L3308.59 1973.17 L3312.87 1973.17 Z" fill="#000000" fill-rule="nonzero" fill-opacity="1" /><path clip-path="url(#clip860)" d="M3326.57 1970.48 L3330.28 1970.48 Q3333.75 1975.95 3335.46 1981.18 Q3337.2 1986.41 3337.2 1991.57 Q3337.2 1996.76 3335.46 2002.01 Q3333.75 2007.27 3330.28 2012.71 L3326.57 2012.71 Q3329.65 2007.4 3331.16 2002.17 Q3332.69 1996.92 3332.69 1991.57 Q3332.69 1986.22 3331.16 1981.02 Q3329.65 1975.81 3326.57 1970.48 Z" fill="#000000" fill-rule="nonzero" fill-opacity="1" /><polyline clip-path="url(#clip860)" style="stroke:#a0522d; stroke-linecap:round; stroke-linejoin:round; stroke-width:6; stroke-opacity:1; fill:none" points="2784.19,2041.02 3001.55,2041.02 "/>
<path clip-path="url(#clip860)" d="M2892.87 2015.42 L2886.85 2032.72 L2868.53 2033.11 L2883.14 2044.19 L2877.82 2061.73 L2892.87 2051.26 L2907.92 2061.73 L2902.6 2044.19 L2917.22 2033.11 L2898.89 2032.72 L2892.87 2015.42 Z" fill="#a0522d" fill-rule="evenodd" fill-opacity="1" stroke="none"/>
<path clip-path="url(#clip860)" d="M3048.4 2022.32 Q3045.3 2027.65 3043.8 2032.86 Q3042.29 2038.06 3042.29 2043.41 Q3042.29 2048.76 3043.8 2054.01 Q3045.33 2059.24 3048.4 2064.55 L3044.7 2064.55 Q3041.23 2059.11 3039.49 2053.85 Q3037.78 2048.6 3037.78 2043.41 Q3037.78 2038.25 3039.49 2033.02 Q3041.21 2027.79 3044.7 2022.32 L3048.4 2022.32 Z" fill="#000000" fill-rule="nonzero" fill-opacity="1" /><path clip-path="url(#clip860)" d="M3056.67 2032.37 L3060.93 2032.37 L3060.93 2058.76 Q3060.93 2063.71 3059.03 2065.93 Q3057.15 2068.16 3052.96 2068.16 L3051.34 2068.16 L3051.34 2064.55 L3052.48 2064.55 Q3054.91 2064.55 3055.79 2063.41 Q3056.67 2062.3 3056.67 2058.76 L3056.67 2032.37 M3056.67 2022.28 L3060.93 2022.28 L3060.93 2027.67 L3056.67 2027.67 L3056.67 2022.28 Z" fill="#000000" fill-rule="nonzero" fill-opacity="1" /><path clip-path="url(#clip860)" d="M3069.4 2048.06 L3069.4 2032.37 L3073.66 2032.37 L3073.66 2047.9 Q3073.66 2051.58 3075.09 2053.43 Q3076.53 2055.26 3079.4 2055.26 Q3082.85 2055.26 3084.84 2053.06 Q3086.85 2050.87 3086.85 2047.07 L3086.85 2032.37 L3091.11 2032.37 L3091.11 2058.3 L3086.85 2058.3 L3086.85 2054.31 Q3085.3 2056.68 3083.24 2057.83 Q3081.21 2058.97 3078.5 2058.97 Q3074.03 2058.97 3071.71 2056.19 Q3069.4 2053.41 3069.4 2048.06 M3080.12 2031.74 L3080.12 2031.74 Z" fill="#000000" fill-rule="nonzero" fill-opacity="1" /><path clip-path="url(#clip860)" d="M3120.07 2037.35 Q3121.67 2034.48 3123.89 2033.11 Q3126.11 2031.74 3129.12 2031.74 Q3133.17 2031.74 3135.37 2034.59 Q3137.57 2037.42 3137.57 2042.65 L3137.57 2058.3 L3133.29 2058.3 L3133.29 2042.79 Q3133.29 2039.06 3131.97 2037.25 Q3130.65 2035.45 3127.94 2035.45 Q3124.63 2035.45 3122.71 2037.65 Q3120.79 2039.85 3120.79 2043.64 L3120.79 2058.3 L3116.51 2058.3 L3116.51 2042.79 Q3116.51 2039.04 3115.19 2037.25 Q3113.87 2035.45 3111.11 2035.45 Q3107.85 2035.45 3105.93 2037.67 Q3104.01 2039.87 3104.01 2043.64 L3104.01 2058.3 L3099.72 2058.3 L3099.72 2032.37 L3104.01 2032.37 L3104.01 2036.4 Q3105.46 2034.01 3107.5 2032.88 Q3109.54 2031.74 3112.34 2031.74 Q3115.16 2031.74 3117.13 2033.18 Q3119.12 2034.62 3120.07 2037.35 Z" fill="#000000" fill-rule="nonzero" fill-opacity="1" /><path clip-path="url(#clip860)" d="M3150.19 2054.41 L3150.19 2068.16 L3145.9 2068.16 L3145.9 2032.37 L3150.19 2032.37 L3150.19 2036.3 Q3151.53 2033.99 3153.57 2032.88 Q3155.63 2031.74 3158.47 2031.74 Q3163.2 2031.74 3166.14 2035.49 Q3169.1 2039.24 3169.1 2045.36 Q3169.1 2051.47 3166.14 2055.22 Q3163.2 2058.97 3158.47 2058.97 Q3155.63 2058.97 3153.57 2057.86 Q3151.53 2056.72 3150.19 2054.41 M3164.68 2045.36 Q3164.68 2040.66 3162.73 2037.99 Q3160.81 2035.31 3157.43 2035.31 Q3154.05 2035.31 3152.11 2037.99 Q3150.19 2040.66 3150.19 2045.36 Q3150.19 2050.05 3152.11 2052.74 Q3154.05 2055.4 3157.43 2055.4 Q3160.81 2055.4 3162.73 2052.74 Q3164.68 2050.05 3164.68 2045.36 Z" fill="#000000" fill-rule="nonzero" fill-opacity="1" /><path clip-path="url(#clip860)" d="M3177.25 2052.42 L3182.13 2052.42 L3182.13 2056.4 L3178.33 2063.8 L3175.35 2063.8 L3177.25 2056.4 L3177.25 2052.42 Z" fill="#000000" fill-rule="nonzero" fill-opacity="1" /><path clip-path="url(#clip860)" d="M3226.48 2037.35 Q3228.08 2034.48 3230.3 2033.11 Q3232.52 2031.74 3235.53 2031.74 Q3239.58 2031.74 3241.78 2034.59 Q3243.98 2037.42 3243.98 2042.65 L3243.98 2058.3 L3239.7 2058.3 L3239.7 2042.79 Q3239.7 2039.06 3238.38 2037.25 Q3237.06 2035.45 3234.35 2035.45 Q3231.04 2035.45 3229.12 2037.65 Q3227.2 2039.85 3227.2 2043.64 L3227.2 2058.3 L3222.92 2058.3 L3222.92 2042.79 Q3222.92 2039.04 3221.6 2037.25 Q3220.28 2035.45 3217.52 2035.45 Q3214.26 2035.45 3212.34 2037.67 Q3210.42 2039.87 3210.42 2043.64 L3210.42 2058.3 L3206.14 2058.3 L3206.14 2032.37 L3210.42 2032.37 L3210.42 2036.4 Q3211.88 2034.01 3213.91 2032.88 Q3215.95 2031.74 3218.75 2031.74 Q3221.58 2031.74 3223.54 2033.18 Q3225.53 2034.62 3226.48 2037.35 Z" fill="#000000" fill-rule="nonzero" fill-opacity="1" /><path clip-path="url(#clip860)" d="M3264.26 2045.26 Q3259.1 2045.26 3257.11 2046.44 Q3255.12 2047.62 3255.12 2050.47 Q3255.12 2052.74 3256.6 2054.08 Q3258.1 2055.4 3260.67 2055.4 Q3264.21 2055.4 3266.34 2052.9 Q3268.5 2050.38 3268.5 2046.21 L3268.5 2045.26 L3264.26 2045.26 M3272.76 2043.5 L3272.76 2058.3 L3268.5 2058.3 L3268.5 2054.36 Q3267.04 2056.72 3264.86 2057.86 Q3262.69 2058.97 3259.54 2058.97 Q3255.56 2058.97 3253.2 2056.74 Q3250.86 2054.5 3250.86 2050.75 Q3250.86 2046.37 3253.77 2044.15 Q3256.71 2041.93 3262.52 2041.93 L3268.5 2041.93 L3268.5 2041.51 Q3268.5 2038.57 3266.55 2036.98 Q3264.63 2035.36 3261.13 2035.36 Q3258.91 2035.36 3256.81 2035.89 Q3254.7 2036.42 3252.76 2037.49 L3252.76 2033.55 Q3255.09 2032.65 3257.29 2032.21 Q3259.49 2031.74 3261.57 2031.74 Q3267.2 2031.74 3269.98 2034.66 Q3272.76 2037.58 3272.76 2043.5 Z" fill="#000000" fill-rule="nonzero" fill-opacity="1" /><path clip-path="url(#clip860)" d="M3298.59 2036.3 L3298.59 2022.28 L3302.85 2022.28 L3302.85 2058.3 L3298.59 2058.3 L3298.59 2054.41 Q3297.25 2056.72 3295.19 2057.86 Q3293.15 2058.97 3290.28 2058.97 Q3285.58 2058.97 3282.62 2055.22 Q3279.68 2051.47 3279.68 2045.36 Q3279.68 2039.24 3282.62 2035.49 Q3285.58 2031.74 3290.28 2031.74 Q3293.15 2031.74 3295.19 2032.88 Q3297.25 2033.99 3298.59 2036.3 M3284.07 2045.36 Q3284.07 2050.05 3286 2052.74 Q3287.94 2055.4 3291.32 2055.4 Q3294.7 2055.4 3296.64 2052.74 Q3298.59 2050.05 3298.59 2045.36 Q3298.59 2040.66 3296.64 2037.99 Q3294.7 2035.31 3291.32 2035.31 Q3287.94 2035.31 3286 2037.99 Q3284.07 2040.66 3284.07 2045.36 Z" fill="#000000" fill-rule="nonzero" fill-opacity="1" /><path clip-path="url(#clip860)" d="M3333.17 2042.65 L3333.17 2058.3 L3328.91 2058.3 L3328.91 2042.79 Q3328.91 2039.11 3327.48 2037.28 Q3326.04 2035.45 3323.17 2035.45 Q3319.72 2035.45 3317.73 2037.65 Q3315.74 2039.85 3315.74 2043.64 L3315.74 2058.3 L3311.46 2058.3 L3311.46 2032.37 L3315.74 2032.37 L3315.74 2036.4 Q3317.27 2034.06 3319.33 2032.9 Q3321.41 2031.74 3324.12 2031.74 Q3328.59 2031.74 3330.88 2034.52 Q3333.17 2037.28 3333.17 2042.65 Z" fill="#000000" fill-rule="nonzero" fill-opacity="1" /><path clip-path="url(#clip860)" d="M3341.67 2022.28 L3345.93 2022.28 L3345.93 2058.3 L3341.67 2058.3 L3341.67 2022.28 Z" fill="#000000" fill-rule="nonzero" fill-opacity="1" /><path clip-path="url(#clip860)" d="M3358.96 2054.41 L3358.96 2068.16 L3354.68 2068.16 L3354.68 2032.37 L3358.96 2032.37 L3358.96 2036.3 Q3360.3 2033.99 3362.34 2032.88 Q3364.4 2031.74 3367.25 2031.74 Q3371.97 2031.74 3374.91 2035.49 Q3377.87 2039.24 3377.87 2045.36 Q3377.87 2051.47 3374.91 2055.22 Q3371.97 2058.97 3367.25 2058.97 Q3364.4 2058.97 3362.34 2057.86 Q3360.3 2056.72 3358.96 2054.41 M3373.45 2045.36 Q3373.45 2040.66 3371.5 2037.99 Q3369.58 2035.31 3366.2 2035.31 Q3362.82 2035.31 3360.88 2037.99 Q3358.96 2040.66 3358.96 2045.36 Q3358.96 2050.05 3360.88 2052.74 Q3362.82 2055.4 3366.2 2055.4 Q3369.58 2055.4 3371.5 2052.74 Q3373.45 2050.05 3373.45 2045.36 Z" fill="#000000" fill-rule="nonzero" fill-opacity="1" /><path clip-path="url(#clip860)" d="M3384.26 2022.32 L3387.96 2022.32 Q3391.44 2027.79 3393.15 2033.02 Q3394.88 2038.25 3394.88 2043.41 Q3394.88 2048.6 3393.15 2053.85 Q3391.44 2059.11 3387.96 2064.55 L3384.26 2064.55 Q3387.34 2059.24 3388.84 2054.01 Q3390.37 2048.76 3390.37 2043.41 Q3390.37 2038.06 3388.84 2032.86 Q3387.34 2027.65 3384.26 2022.32 Z" fill="#000000" fill-rule="nonzero" fill-opacity="1" /></svg>
