<?xml version="1.0" encoding="utf-8"?>
<svg xmlns="http://www.w3.org/2000/svg" xmlns:xlink="http://www.w3.org/1999/xlink" width="900" height="600" viewBox="0 0 3600 2400">
<defs>
  <clipPath id="clip410">
    <rect x="0" y="0" width="3600" height="2400"/>
  </clipPath>
</defs>
<path clip-path="url(#clip410)" d="M0 2400 L3600 2400 L3600 0 L0 0  Z" fill="#ffffff" fill-rule="evenodd" fill-opacity="1"/>
<defs>
  <clipPath id="clip411">
    <rect x="290" y="246" width="3264" height="1911"/>
  </clipPath>
</defs>
<path clip-path="url(#clip410)" d="M359.791 2156.51 L3552.76 2156.51 L3552.76 246.944 L359.791 246.944  Z" fill="#ffffff" fill-rule="evenodd" fill-opacity="1"/>
<defs>
  <clipPath id="clip412">
    <rect x="359" y="246" width="3194" height="1911"/>
  </clipPath>
</defs>
<polyline clip-path="url(#clip412)" style="stroke:#000000; stroke-linecap:round; stroke-linejoin:round; stroke-width:2; stroke-opacity:0.1; fill:none" points="952.197,2156.51 952.197,246.944 "/>
<polyline clip-path="url(#clip412)" style="stroke:#000000; stroke-linecap:round; stroke-linejoin:round; stroke-width:2; stroke-opacity:0.1; fill:none" points="1579.74,2156.51 1579.74,246.944 "/>
<polyline clip-path="url(#clip412)" style="stroke:#000000; stroke-linecap:round; stroke-linejoin:round; stroke-width:2; stroke-opacity:0.1; fill:none" points="2207.29,2156.51 2207.29,246.944 "/>
<polyline clip-path="url(#clip412)" style="stroke:#000000; stroke-linecap:round; stroke-linejoin:round; stroke-width:2; stroke-opacity:0.1; fill:none" points="2834.84,2156.51 2834.84,246.944 "/>
<polyline clip-path="url(#clip412)" style="stroke:#000000; stroke-linecap:round; stroke-linejoin:round; stroke-width:2; stroke-opacity:0.1; fill:none" points="3462.39,2156.51 3462.39,246.944 "/>
<polyline clip-path="url(#clip412)" style="stroke:#000000; stroke-linecap:round; stroke-linejoin:round; stroke-width:2; stroke-opacity:0.1; fill:none" points="359.791,1572.18 3552.76,1572.18 "/>
<polyline clip-path="url(#clip412)" style="stroke:#000000; stroke-linecap:round; stroke-linejoin:round; stroke-width:2; stroke-opacity:0.1; fill:none" points="359.791,943.391 3552.76,943.391 "/>
<polyline clip-path="url(#clip412)" style="stroke:#000000; stroke-linecap:round; stroke-linejoin:round; stroke-width:2; stroke-opacity:0.1; fill:none" points="359.791,314.604 3552.76,314.604 "/>
<polyline clip-path="url(#clip410)" style="stroke:#000000; stroke-linecap:round; stroke-linejoin:round; stroke-width:4; stroke-opacity:1; fill:none" points="359.791,2156.51 3552.76,2156.51 "/>
<polyline clip-path="url(#clip410)" style="stroke:#000000; stroke-linecap:round; stroke-linejoin:round; stroke-width:4; stroke-opacity:1; fill:none" points="952.197,2156.51 952.197,2137.61 "/>
<polyline clip-path="url(#clip410)" style="stroke:#000000; stroke-linecap:round; stroke-linejoin:round; stroke-width:4; stroke-opacity:1; fill:none" points="1579.74,2156.51 1579.74,2137.61 "/>
<polyline clip-path="url(#clip410)" style="stroke:#000000; stroke-linecap:round; stroke-linejoin:round; stroke-width:4; stroke-opacity:1; fill:none" points="2207.29,2156.51 2207.29,2137.61 "/>
<polyline clip-path="url(#clip410)" style="stroke:#000000; stroke-linecap:round; stroke-linejoin:round; stroke-width:4; stroke-opacity:1; fill:none" points="2834.84,2156.51 2834.84,2137.61 "/>
<polyline clip-path="url(#clip410)" style="stroke:#000000; stroke-linecap:round; stroke-linejoin:round; stroke-width:4; stroke-opacity:1; fill:none" points="3462.39,2156.51 3462.39,2137.61 "/>
<path clip-path="url(#clip410)" d="M930.97 2224.57 L947.289 2224.57 L947.289 2228.51 L925.345 2228.51 L925.345 2224.57 Q928.007 2221.82 932.59 2217.19 Q937.197 2212.54 938.377 2211.19 Q940.623 2208.67 941.502 2206.93 Q942.405 2205.17 942.405 2203.48 Q942.405 2200.73 940.461 2198.99 Q938.54 2197.26 935.438 2197.26 Q933.239 2197.26 930.785 2198.02 Q928.354 2198.79 925.577 2200.34 L925.577 2195.61 Q928.401 2194.48 930.854 2193.9 Q933.308 2193.32 935.345 2193.32 Q940.715 2193.32 943.91 2196.01 Q947.104 2198.69 947.104 2203.18 Q947.104 2205.31 946.294 2207.23 Q945.507 2209.13 943.401 2211.73 Q942.822 2212.4 939.72 2215.61 Q936.618 2218.81 930.97 2224.57 Z" fill="#000000" fill-rule="nonzero" fill-opacity="1" /><path clip-path="url(#clip410)" d="M967.104 2197.03 Q963.493 2197.03 961.664 2200.59 Q959.859 2204.13 959.859 2211.26 Q959.859 2218.37 961.664 2221.93 Q963.493 2225.48 967.104 2225.48 Q970.738 2225.48 972.544 2221.93 Q974.373 2218.37 974.373 2211.26 Q974.373 2204.13 972.544 2200.59 Q970.738 2197.03 967.104 2197.03 M967.104 2193.32 Q972.914 2193.32 975.97 2197.93 Q979.049 2202.51 979.049 2211.26 Q979.049 2219.99 975.97 2224.6 Q972.914 2229.18 967.104 2229.18 Q961.294 2229.18 958.215 2224.6 Q955.16 2219.99 955.16 2211.26 Q955.16 2202.51 958.215 2197.93 Q961.294 2193.32 967.104 2193.32 Z" fill="#000000" fill-rule="nonzero" fill-opacity="1" /><path clip-path="url(#clip410)" d="M1559.02 2224.57 L1575.34 2224.57 L1575.34 2228.51 L1553.39 2228.51 L1553.39 2224.57 Q1556.05 2221.82 1560.64 2217.19 Q1565.24 2212.54 1566.42 2211.19 Q1568.67 2208.67 1569.55 2206.93 Q1570.45 2205.17 1570.45 2203.48 Q1570.45 2200.73 1568.51 2198.99 Q1566.59 2197.26 1563.48 2197.26 Q1561.28 2197.26 1558.83 2198.02 Q1556.4 2198.79 1553.62 2200.34 L1553.62 2195.61 Q1556.45 2194.48 1558.9 2193.9 Q1561.35 2193.32 1563.39 2193.32 Q1568.76 2193.32 1571.96 2196.01 Q1575.15 2198.69 1575.15 2203.18 Q1575.15 2205.31 1574.34 2207.23 Q1573.55 2209.13 1571.45 2211.73 Q1570.87 2212.4 1567.77 2215.61 Q1564.66 2218.81 1559.02 2224.57 Z" fill="#000000" fill-rule="nonzero" fill-opacity="1" /><path clip-path="url(#clip410)" d="M1585.2 2193.95 L1603.55 2193.95 L1603.55 2197.88 L1589.48 2197.88 L1589.48 2206.36 Q1590.5 2206.01 1591.52 2205.85 Q1592.53 2205.66 1593.55 2205.66 Q1599.34 2205.66 1602.72 2208.83 Q1606.1 2212 1606.1 2217.42 Q1606.1 2223 1602.63 2226.1 Q1599.15 2229.18 1592.84 2229.18 Q1590.66 2229.18 1588.39 2228.81 Q1586.15 2228.44 1583.74 2227.7 L1583.74 2223 Q1585.82 2224.13 1588.04 2224.69 Q1590.27 2225.24 1592.74 2225.24 Q1596.75 2225.24 1599.09 2223.14 Q1601.42 2221.03 1601.42 2217.42 Q1601.42 2213.81 1599.09 2211.7 Q1596.75 2209.6 1592.74 2209.6 Q1590.87 2209.6 1588.99 2210.01 Q1587.14 2210.43 1585.2 2211.31 L1585.2 2193.95 Z" fill="#000000" fill-rule="nonzero" fill-opacity="1" /><path clip-path="url(#clip410)" d="M2196.14 2209.87 Q2199.49 2210.59 2201.37 2212.86 Q2203.27 2215.13 2203.27 2218.46 Q2203.27 2223.58 2199.75 2226.38 Q2196.23 2229.18 2189.75 2229.18 Q2187.57 2229.18 2185.26 2228.74 Q2182.96 2228.32 2180.51 2227.47 L2180.51 2222.95 Q2182.46 2224.09 2184.77 2224.67 Q2187.08 2225.24 2189.61 2225.24 Q2194.01 2225.24 2196.3 2223.51 Q2198.61 2221.77 2198.61 2218.46 Q2198.61 2215.41 2196.46 2213.69 Q2194.33 2211.96 2190.51 2211.96 L2186.48 2211.96 L2186.48 2208.11 L2190.7 2208.11 Q2194.14 2208.11 2195.97 2206.75 Q2197.8 2205.36 2197.8 2202.77 Q2197.8 2200.11 2195.9 2198.69 Q2194.03 2197.26 2190.51 2197.26 Q2188.59 2197.26 2186.39 2197.67 Q2184.19 2198.09 2181.55 2198.97 L2181.55 2194.8 Q2184.21 2194.06 2186.53 2193.69 Q2188.87 2193.32 2190.93 2193.32 Q2196.25 2193.32 2199.35 2195.75 Q2202.45 2198.16 2202.45 2202.28 Q2202.45 2205.15 2200.81 2207.14 Q2199.17 2209.11 2196.14 2209.87 Z" fill="#000000" fill-rule="nonzero" fill-opacity="1" /><path clip-path="url(#clip410)" d="M2222.13 2197.03 Q2218.52 2197.03 2216.69 2200.59 Q2214.89 2204.13 2214.89 2211.26 Q2214.89 2218.37 2216.69 2221.93 Q2218.52 2225.48 2222.13 2225.48 Q2225.77 2225.48 2227.57 2221.93 Q2229.4 2218.37 2229.4 2211.26 Q2229.4 2204.13 2227.57 2200.59 Q2225.77 2197.03 2222.13 2197.03 M2222.13 2193.32 Q2227.94 2193.32 2231 2197.93 Q2234.08 2202.51 2234.08 2211.26 Q2234.08 2219.99 2231 2224.6 Q2227.94 2229.18 2222.13 2229.18 Q2216.32 2229.18 2213.24 2224.6 Q2210.19 2219.99 2210.19 2211.26 Q2210.19 2202.51 2213.24 2197.93 Q2216.32 2193.32 2222.13 2193.32 Z" fill="#000000" fill-rule="nonzero" fill-opacity="1" /><path clip-path="url(#clip410)" d="M2824.18 2209.87 Q2827.54 2210.59 2829.41 2212.86 Q2831.31 2215.13 2831.31 2218.46 Q2831.31 2223.58 2827.79 2226.38 Q2824.27 2229.18 2817.79 2229.18 Q2815.62 2229.18 2813.3 2228.74 Q2811.01 2228.32 2808.56 2227.47 L2808.56 2222.95 Q2810.5 2224.09 2812.82 2224.67 Q2815.13 2225.24 2817.65 2225.24 Q2822.05 2225.24 2824.34 2223.51 Q2826.66 2221.77 2826.66 2218.46 Q2826.66 2215.41 2824.51 2213.69 Q2822.38 2211.96 2818.56 2211.96 L2814.53 2211.96 L2814.53 2208.11 L2818.74 2208.11 Q2822.19 2208.11 2824.02 2206.75 Q2825.85 2205.36 2825.85 2202.77 Q2825.85 2200.11 2823.95 2198.69 Q2822.07 2197.26 2818.56 2197.26 Q2816.64 2197.26 2814.44 2197.67 Q2812.24 2198.09 2809.6 2198.97 L2809.6 2194.8 Q2812.26 2194.06 2814.57 2193.69 Q2816.91 2193.32 2818.97 2193.32 Q2824.3 2193.32 2827.4 2195.75 Q2830.5 2198.16 2830.5 2202.28 Q2830.5 2205.15 2828.86 2207.14 Q2827.21 2209.11 2824.18 2209.87 Z" fill="#000000" fill-rule="nonzero" fill-opacity="1" /><path clip-path="url(#clip410)" d="M2840.22 2193.95 L2858.58 2193.95 L2858.58 2197.88 L2844.51 2197.88 L2844.51 2206.36 Q2845.52 2206.01 2846.54 2205.85 Q2847.56 2205.66 2848.58 2205.66 Q2854.37 2205.66 2857.75 2208.83 Q2861.13 2212 2861.13 2217.42 Q2861.13 2223 2857.65 2226.1 Q2854.18 2229.18 2847.86 2229.18 Q2845.69 2229.18 2843.42 2228.81 Q2841.17 2228.44 2838.76 2227.7 L2838.76 2223 Q2840.85 2224.13 2843.07 2224.69 Q2845.29 2225.24 2847.77 2225.24 Q2851.77 2225.24 2854.11 2223.14 Q2856.45 2221.03 2856.45 2217.42 Q2856.45 2213.81 2854.11 2211.7 Q2851.77 2209.6 2847.77 2209.6 Q2845.89 2209.6 2844.02 2210.01 Q2842.17 2210.43 2840.22 2211.31 L2840.22 2193.95 Z" fill="#000000" fill-rule="nonzero" fill-opacity="1" /><path clip-path="url(#clip410)" d="M3450.56 2198.02 L3438.75 2216.47 L3450.56 2216.47 L3450.56 2198.02 M3449.33 2193.95 L3455.21 2193.95 L3455.21 2216.47 L3460.14 2216.47 L3460.14 2220.36 L3455.21 2220.36 L3455.21 2228.51 L3450.56 2228.51 L3450.56 2220.36 L3434.96 2220.36 L3434.96 2215.85 L3449.33 2193.95 Z" fill="#000000" fill-rule="nonzero" fill-opacity="1" /><path clip-path="url(#clip410)" d="M3477.88 2197.03 Q3474.26 2197.03 3472.44 2200.59 Q3470.63 2204.13 3470.63 2211.26 Q3470.63 2218.37 3472.44 2221.93 Q3474.26 2225.48 3477.88 2225.48 Q3481.51 2225.48 3483.31 2221.93 Q3485.14 2218.37 3485.14 2211.26 Q3485.14 2204.13 3483.31 2200.59 Q3481.51 2197.03 3477.88 2197.03 M3477.88 2193.32 Q3483.69 2193.32 3486.74 2197.93 Q3489.82 2202.51 3489.82 2211.26 Q3489.82 2219.99 3486.74 2224.6 Q3483.69 2229.18 3477.88 2229.18 Q3472.06 2229.18 3468.99 2224.6 Q3465.93 2219.99 3465.93 2211.26 Q3465.93 2202.51 3468.99 2197.93 Q3472.06 2193.32 3477.88 2193.32 Z" fill="#000000" fill-rule="nonzero" fill-opacity="1" /><path clip-path="url(#clip410)" d="M1819.51 2270.99 L1825.36 2270.99 L1825.36 2314.19 L1819.51 2314.19 L1819.51 2270.99 Z" fill="#000000" fill-rule="nonzero" fill-opacity="1" /><path clip-path="url(#clip410)" d="M1842.02 2272.58 L1842.02 2281.78 L1852.99 2281.78 L1852.99 2285.92 L1842.02 2285.92 L1842.02 2303.51 Q1842.02 2307.47 1843.09 2308.6 Q1844.19 2309.73 1847.52 2309.73 L1852.99 2309.73 L1852.99 2314.19 L1847.52 2314.19 Q1841.36 2314.19 1839.01 2311.9 Q1836.67 2309.59 1836.67 2303.51 L1836.67 2285.92 L1832.76 2285.92 L1832.76 2281.78 L1836.67 2281.78 L1836.67 2272.58 L1842.02 2272.58 Z" fill="#000000" fill-rule="nonzero" fill-opacity="1" /><path clip-path="url(#clip410)" d="M1887.71 2296.65 L1887.71 2299.26 L1863.23 2299.26 Q1863.58 2304.75 1866.53 2307.65 Q1869.51 2310.51 1874.81 2310.51 Q1877.87 2310.51 1880.74 2309.76 Q1883.63 2309.01 1886.47 2307.5 L1886.47 2312.54 Q1883.6 2313.75 1880.59 2314.39 Q1877.58 2315.03 1874.49 2315.03 Q1866.73 2315.03 1862.19 2310.51 Q1857.68 2306 1857.68 2298.3 Q1857.68 2290.35 1861.96 2285.69 Q1866.27 2281 1873.56 2281 Q1880.1 2281 1883.89 2285.22 Q1887.71 2289.42 1887.71 2296.65 M1882.39 2295.09 Q1882.33 2290.72 1879.93 2288.12 Q1877.56 2285.51 1873.62 2285.51 Q1869.16 2285.51 1866.47 2288.03 Q1863.81 2290.55 1863.41 2295.12 L1882.39 2295.09 Z" fill="#000000" fill-rule="nonzero" fill-opacity="1" /><path clip-path="url(#clip410)" d="M1915.23 2286.76 Q1914.33 2286.24 1913.26 2286 Q1912.22 2285.74 1910.95 2285.74 Q1906.43 2285.74 1904 2288.7 Q1901.6 2291.62 1901.6 2297.12 L1901.6 2314.19 L1896.25 2314.19 L1896.25 2281.78 L1901.6 2281.78 L1901.6 2286.82 Q1903.28 2283.86 1905.97 2282.45 Q1908.66 2281 1912.51 2281 Q1913.06 2281 1913.72 2281.09 Q1914.39 2281.14 1915.2 2281.29 L1915.23 2286.76 Z" fill="#000000" fill-rule="nonzero" fill-opacity="1" /><path clip-path="url(#clip410)" d="M1935.54 2297.9 Q1929.09 2297.9 1926.6 2299.37 Q1924.11 2300.85 1924.11 2304.41 Q1924.11 2307.24 1925.96 2308.92 Q1927.85 2310.57 1931.06 2310.57 Q1935.48 2310.57 1938.15 2307.45 Q1940.84 2304.29 1940.84 2299.08 L1940.84 2297.9 L1935.54 2297.9 M1946.16 2295.7 L1946.16 2314.19 L1940.84 2314.19 L1940.84 2309.27 Q1939.01 2312.22 1936.29 2313.64 Q1933.57 2315.03 1929.64 2315.03 Q1924.66 2315.03 1921.71 2312.25 Q1918.79 2309.44 1918.79 2304.75 Q1918.79 2299.29 1922.43 2296.51 Q1926.11 2293.73 1933.37 2293.73 L1940.84 2293.73 L1940.84 2293.21 Q1940.84 2289.54 1938.41 2287.54 Q1936 2285.51 1931.64 2285.51 Q1928.86 2285.51 1926.22 2286.18 Q1923.59 2286.84 1921.16 2288.18 L1921.16 2283.26 Q1924.08 2282.13 1926.83 2281.58 Q1929.58 2281 1932.19 2281 Q1939.22 2281 1942.69 2284.65 Q1946.16 2288.29 1946.16 2295.7 Z" fill="#000000" fill-rule="nonzero" fill-opacity="1" /><path clip-path="url(#clip410)" d="M1962.39 2272.58 L1962.39 2281.78 L1973.36 2281.78 L1973.36 2285.92 L1962.39 2285.92 L1962.39 2303.51 Q1962.39 2307.47 1963.46 2308.6 Q1964.56 2309.73 1967.89 2309.73 L1973.36 2309.73 L1973.36 2314.19 L1967.89 2314.19 Q1961.73 2314.19 1959.38 2311.9 Q1957.04 2309.59 1957.04 2303.51 L1957.04 2285.92 L1953.13 2285.92 L1953.13 2281.78 L1957.04 2281.78 L1957.04 2272.58 L1962.39 2272.58 Z" fill="#000000" fill-rule="nonzero" fill-opacity="1" /><path clip-path="url(#clip410)" d="M1980.36 2281.78 L1985.69 2281.78 L1985.69 2314.19 L1980.36 2314.19 L1980.36 2281.78 M1980.36 2269.16 L1985.69 2269.16 L1985.69 2275.91 L1980.36 2275.91 L1980.36 2269.16 Z" fill="#000000" fill-rule="nonzero" fill-opacity="1" /><path clip-path="url(#clip410)" d="M2009.38 2285.51 Q2005.1 2285.51 2002.61 2288.87 Q2000.12 2292.2 2000.12 2298.01 Q2000.12 2303.83 2002.58 2307.19 Q2005.07 2310.51 2009.38 2310.51 Q2013.64 2310.51 2016.13 2307.16 Q2018.61 2303.8 2018.61 2298.01 Q2018.61 2292.25 2016.13 2288.9 Q2013.64 2285.51 2009.38 2285.51 M2009.38 2281 Q2016.33 2281 2020.29 2285.51 Q2024.26 2290.03 2024.26 2298.01 Q2024.26 2305.97 2020.29 2310.51 Q2016.33 2315.03 2009.38 2315.03 Q2002.41 2315.03 1998.45 2310.51 Q1994.51 2305.97 1994.51 2298.01 Q1994.51 2290.03 1998.45 2285.51 Q2002.41 2281 2009.38 2281 Z" fill="#000000" fill-rule="nonzero" fill-opacity="1" /><path clip-path="url(#clip410)" d="M2060.02 2294.63 L2060.02 2314.19 L2054.7 2314.19 L2054.7 2294.8 Q2054.7 2290.2 2052.9 2287.91 Q2051.11 2285.63 2047.52 2285.63 Q2043.21 2285.63 2040.72 2288.38 Q2038.23 2291.13 2038.23 2295.87 L2038.23 2314.19 L2032.88 2314.19 L2032.88 2281.78 L2038.23 2281.78 L2038.23 2286.82 Q2040.14 2283.89 2042.72 2282.45 Q2045.32 2281 2048.71 2281 Q2054.29 2281 2057.16 2284.47 Q2060.02 2287.91 2060.02 2294.63 Z" fill="#000000" fill-rule="nonzero" fill-opacity="1" /><path clip-path="url(#clip410)" d="M2091.3 2282.74 L2091.3 2287.77 Q2089.04 2286.61 2086.61 2286.03 Q2084.18 2285.46 2081.58 2285.46 Q2077.61 2285.46 2075.62 2286.67 Q2073.65 2287.89 2073.65 2290.32 Q2073.65 2292.17 2075.07 2293.24 Q2076.48 2294.28 2080.77 2295.24 L2082.59 2295.64 Q2088.26 2296.86 2090.63 2299.08 Q2093.04 2301.28 2093.04 2305.25 Q2093.04 2309.76 2089.45 2312.39 Q2085.89 2315.03 2079.64 2315.03 Q2077.03 2315.03 2074.2 2314.51 Q2071.39 2314.01 2068.27 2313 L2068.27 2307.5 Q2071.22 2309.04 2074.08 2309.82 Q2076.95 2310.57 2079.75 2310.57 Q2083.52 2310.57 2085.54 2309.3 Q2087.57 2308 2087.57 2305.65 Q2087.57 2303.48 2086.09 2302.32 Q2084.64 2301.17 2079.7 2300.1 L2077.84 2299.66 Q2072.9 2298.62 2070.7 2296.48 Q2068.5 2294.31 2068.5 2290.55 Q2068.5 2285.98 2071.74 2283.49 Q2074.98 2281 2080.94 2281 Q2083.89 2281 2086.5 2281.43 Q2089.1 2281.87 2091.3 2282.74 Z" fill="#000000" fill-rule="nonzero" fill-opacity="1" /><polyline clip-path="url(#clip410)" style="stroke:#000000; stroke-linecap:round; stroke-linejoin:round; stroke-width:4; stroke-opacity:1; fill:none" points="359.791,2156.51 359.791,246.944 "/>
<polyline clip-path="url(#clip410)" style="stroke:#000000; stroke-linecap:round; stroke-linejoin:round; stroke-width:4; stroke-opacity:1; fill:none" points="359.791,1572.18 378.689,1572.18 "/>
<polyline clip-path="url(#clip410)" style="stroke:#000000; stroke-linecap:round; stroke-linejoin:round; stroke-width:4; stroke-opacity:1; fill:none" points="359.791,943.391 378.689,943.391 "/>
<polyline clip-path="url(#clip410)" style="stroke:#000000; stroke-linecap:round; stroke-linejoin:round; stroke-width:4; stroke-opacity:1; fill:none" points="359.791,314.604 378.689,314.604 "/>
<path clip-path="url(#clip410)" d="M168.412 1591.97 L176.051 1591.97 L176.051 1565.61 L167.741 1567.27 L167.741 1563.01 L176.005 1561.35 L180.681 1561.35 L180.681 1591.97 L188.32 1591.97 L188.32 1595.91 L168.412 1595.91 L168.412 1591.97 Z" fill="#000000" fill-rule="nonzero" fill-opacity="1" /><path clip-path="url(#clip410)" d="M207.764 1564.42 Q204.153 1564.42 202.324 1567.99 Q200.519 1571.53 200.519 1578.66 Q200.519 1585.77 202.324 1589.33 Q204.153 1592.87 207.764 1592.87 Q211.398 1592.87 213.204 1589.33 Q215.032 1585.77 215.032 1578.66 Q215.032 1571.53 213.204 1567.99 Q211.398 1564.42 207.764 1564.42 M207.764 1560.72 Q213.574 1560.72 216.63 1565.33 Q219.708 1569.91 219.708 1578.66 Q219.708 1587.39 216.63 1591.99 Q213.574 1596.58 207.764 1596.58 Q201.954 1596.58 198.875 1591.99 Q195.82 1587.39 195.82 1578.66 Q195.82 1569.91 198.875 1565.33 Q201.954 1560.72 207.764 1560.72 Z" fill="#000000" fill-rule="nonzero" fill-opacity="1" /><path clip-path="url(#clip410)" d="M219.708 1554.82 L243.82 1554.82 L243.82 1558.02 L219.708 1558.02 L219.708 1554.82 Z" fill="#000000" fill-rule="nonzero" fill-opacity="1" /><path clip-path="url(#clip410)" d="M252.678 1565.3 L258.885 1565.3 L258.885 1543.88 L252.133 1545.23 L252.133 1541.77 L258.847 1540.42 L262.646 1540.42 L262.646 1565.3 L268.853 1565.3 L268.853 1568.5 L252.678 1568.5 L252.678 1565.3 Z" fill="#000000" fill-rule="nonzero" fill-opacity="1" /><path clip-path="url(#clip410)" d="M276.527 1563.72 L280.495 1563.72 L280.495 1568.5 L276.527 1568.5 L276.527 1563.72 Z" fill="#000000" fill-rule="nonzero" fill-opacity="1" /><path clip-path="url(#clip410)" d="M288.808 1540.42 L303.723 1540.42 L303.723 1543.61 L292.288 1543.61 L292.288 1550.5 Q293.115 1550.21 293.943 1550.08 Q294.77 1549.93 295.598 1549.93 Q300.3 1549.93 303.046 1552.51 Q305.791 1555.09 305.791 1559.49 Q305.791 1564.02 302.97 1566.54 Q300.149 1569.04 295.015 1569.04 Q293.247 1569.04 291.404 1568.74 Q289.579 1568.44 287.623 1567.84 L287.623 1564.02 Q289.316 1564.94 291.121 1565.39 Q292.927 1565.84 294.939 1565.84 Q298.193 1565.84 300.093 1564.13 Q301.992 1562.42 301.992 1559.49 Q301.992 1556.55 300.093 1554.84 Q298.193 1553.13 294.939 1553.13 Q293.416 1553.13 291.893 1553.47 Q290.388 1553.81 288.808 1554.52 L288.808 1540.42 Z" fill="#000000" fill-rule="nonzero" fill-opacity="1" /><path clip-path="url(#clip410)" d="M167.604 963.184 L175.242 963.184 L175.242 936.818 L166.932 938.485 L166.932 934.225 L175.196 932.559 L179.872 932.559 L179.872 963.184 L187.511 963.184 L187.511 967.119 L167.604 967.119 L167.604 963.184 Z" fill="#000000" fill-rule="nonzero" fill-opacity="1" /><path clip-path="url(#clip410)" d="M206.955 935.637 Q203.344 935.637 201.515 939.202 Q199.71 942.744 199.71 949.874 Q199.71 956.98 201.515 960.545 Q203.344 964.086 206.955 964.086 Q210.589 964.086 212.395 960.545 Q214.224 956.98 214.224 949.874 Q214.224 942.744 212.395 939.202 Q210.589 935.637 206.955 935.637 M206.955 931.934 Q212.765 931.934 215.821 936.54 Q218.9 941.124 218.9 949.874 Q218.9 958.6 215.821 963.207 Q212.765 967.79 206.955 967.79 Q201.145 967.79 198.066 963.207 Q195.011 958.6 195.011 949.874 Q195.011 941.124 198.066 936.54 Q201.145 931.934 206.955 931.934 Z" fill="#000000" fill-rule="nonzero" fill-opacity="1" /><path clip-path="url(#clip410)" d="M218.9 926.035 L243.011 926.035 L243.011 929.232 L218.9 929.232 L218.9 926.035 Z" fill="#000000" fill-rule="nonzero" fill-opacity="1" /><path clip-path="url(#clip410)" d="M251.87 936.511 L258.076 936.511 L258.076 915.089 L251.324 916.443 L251.324 912.983 L258.039 911.628 L261.838 911.628 L261.838 936.511 L268.044 936.511 L268.044 939.708 L251.87 939.708 L251.87 936.511 Z" fill="#000000" fill-rule="nonzero" fill-opacity="1" /><path clip-path="url(#clip410)" d="M275.718 934.931 L279.686 934.931 L279.686 939.708 L275.718 939.708 L275.718 934.931 Z" fill="#000000" fill-rule="nonzero" fill-opacity="1" /><path clip-path="url(#clip410)" d="M296.087 914.13 Q293.153 914.13 291.667 917.026 Q290.2 919.904 290.2 925.697 Q290.2 931.471 291.667 934.367 Q293.153 937.245 296.087 937.245 Q299.04 937.245 300.507 934.367 Q301.992 931.471 301.992 925.697 Q301.992 919.904 300.507 917.026 Q299.04 914.13 296.087 914.13 M296.087 911.121 Q300.807 911.121 303.29 914.863 Q305.791 918.587 305.791 925.697 Q305.791 932.787 303.29 936.53 Q300.807 940.254 296.087 940.254 Q291.366 940.254 288.865 936.53 Q286.382 932.787 286.382 925.697 Q286.382 918.587 288.865 914.863 Q291.366 911.121 296.087 911.121 Z" fill="#000000" fill-rule="nonzero" fill-opacity="1" /><path clip-path="url(#clip410)" d="M168.412 334.396 L176.051 334.396 L176.051 308.031 L167.741 309.698 L167.741 305.438 L176.005 303.772 L180.681 303.772 L180.681 334.396 L188.32 334.396 L188.32 338.332 L168.412 338.332 L168.412 334.396 Z" fill="#000000" fill-rule="nonzero" fill-opacity="1" /><path clip-path="url(#clip410)" d="M207.764 306.85 Q204.153 306.85 202.324 310.415 Q200.519 313.957 200.519 321.086 Q200.519 328.193 202.324 331.758 Q204.153 335.299 207.764 335.299 Q211.398 335.299 213.204 331.758 Q215.032 328.193 215.032 321.086 Q215.032 313.957 213.204 310.415 Q211.398 306.85 207.764 306.85 M207.764 303.147 Q213.574 303.147 216.63 307.753 Q219.708 312.336 219.708 321.086 Q219.708 329.813 216.63 334.42 Q213.574 339.003 207.764 339.003 Q201.954 339.003 198.875 334.42 Q195.82 329.813 195.82 321.086 Q195.82 312.336 198.875 307.753 Q201.954 303.147 207.764 303.147 Z" fill="#000000" fill-rule="nonzero" fill-opacity="1" /><path clip-path="url(#clip410)" d="M219.708 297.248 L243.82 297.248 L243.82 300.445 L219.708 300.445 L219.708 297.248 Z" fill="#000000" fill-rule="nonzero" fill-opacity="1" /><path clip-path="url(#clip410)" d="M260.145 285.343 Q257.211 285.343 255.725 288.239 Q254.258 291.117 254.258 296.909 Q254.258 302.683 255.725 305.58 Q257.211 308.457 260.145 308.457 Q263.098 308.457 264.565 305.58 Q266.051 302.683 266.051 296.909 Q266.051 291.117 264.565 288.239 Q263.098 285.343 260.145 285.343 M260.145 282.333 Q264.866 282.333 267.348 286.076 Q269.85 289.8 269.85 296.909 Q269.85 304 267.348 307.743 Q264.866 311.467 260.145 311.467 Q255.424 311.467 252.923 307.743 Q250.44 304 250.44 296.909 Q250.44 289.8 252.923 286.076 Q255.424 282.333 260.145 282.333 Z" fill="#000000" fill-rule="nonzero" fill-opacity="1" /><path clip-path="url(#clip410)" d="M276.527 306.144 L280.495 306.144 L280.495 310.921 L276.527 310.921 L276.527 306.144 Z" fill="#000000" fill-rule="nonzero" fill-opacity="1" /><path clip-path="url(#clip410)" d="M288.808 282.841 L303.723 282.841 L303.723 286.039 L292.288 286.039 L292.288 292.922 Q293.115 292.64 293.943 292.508 Q294.77 292.358 295.598 292.358 Q300.3 292.358 303.046 294.935 Q305.791 297.511 305.791 301.912 Q305.791 306.445 302.97 308.965 Q300.149 311.467 295.015 311.467 Q293.247 311.467 291.404 311.166 Q289.579 310.865 287.623 310.263 L287.623 306.445 Q289.316 307.367 291.121 307.818 Q292.927 308.269 294.939 308.269 Q298.193 308.269 300.093 306.558 Q301.992 304.846 301.992 301.912 Q301.992 298.978 300.093 297.267 Q298.193 295.555 294.939 295.555 Q293.416 295.555 291.893 295.894 Q290.388 296.232 288.808 296.947 L288.808 282.841 Z" fill="#000000" fill-rule="nonzero" fill-opacity="1" /><path clip-path="url(#clip410)" d="M60.0998 1347.25 L66.263 1347.25 Q63.5141 1350.21 62.1542 1353.56 Q60.7943 1356.89 60.7943 1360.65 Q60.7943 1368.06 65.3371 1371.99 Q69.8509 1375.93 78.4157 1375.93 Q86.9515 1375.93 91.4943 1371.99 Q96.0082 1368.06 96.0082 1360.65 Q96.0082 1356.89 94.6482 1353.56 Q93.2883 1350.21 90.5395 1347.25 L96.6448 1347.25 Q98.7281 1350.32 99.7697 1353.77 Q100.811 1357.18 100.811 1361 Q100.811 1370.81 94.8218 1376.45 Q88.8034 1382.09 78.4157 1382.09 Q67.9991 1382.09 62.0095 1376.45 Q55.991 1370.81 55.991 1361 Q55.991 1357.12 57.0327 1353.71 Q58.0454 1350.26 60.0998 1347.25 Z" fill="#000000" fill-rule="nonzero" fill-opacity="1" /><path clip-path="url(#clip410)" d="M61.5755 1332.38 L77.8081 1332.38 L77.8081 1325.03 Q77.8081 1320.95 75.6958 1318.72 Q73.5835 1316.5 69.6773 1316.5 Q65.8 1316.5 63.6878 1318.72 Q61.5755 1320.95 61.5755 1325.03 L61.5755 1332.38 M56.7723 1338.23 L56.7723 1325.03 Q56.7723 1317.77 60.0709 1314.07 Q63.3405 1310.33 69.6773 1310.33 Q76.0719 1310.33 79.3416 1314.07 Q82.6113 1317.77 82.6113 1325.03 L82.6113 1332.38 L99.9723 1332.38 L99.9723 1338.23 L56.7723 1338.23 Z" fill="#000000" fill-rule="nonzero" fill-opacity="1" /><path clip-path="url(#clip410)" d="M56.7723 1303.16 L56.7723 1297.28 L83.0164 1297.28 Q89.9608 1297.28 93.0279 1294.77 Q96.0661 1292.25 96.0661 1286.61 Q96.0661 1280.99 93.0279 1278.48 Q89.9608 1275.96 83.0164 1275.96 L56.7723 1275.96 L56.7723 1270.08 L83.7397 1270.08 Q92.1888 1270.08 96.5001 1274.28 Q100.811 1278.45 100.811 1286.61 Q100.811 1294.8 96.5001 1298.99 Q92.1888 1303.16 83.7397 1303.16 L56.7723 1303.16 Z" fill="#000000" fill-rule="nonzero" fill-opacity="1" /><path clip-path="url(#clip410)" d="M58.3637 1235.25 L67.565 1235.25 L67.565 1224.28 L71.7028 1224.28 L71.7028 1235.25 L89.2953 1235.25 Q93.2594 1235.25 94.3878 1234.18 Q95.5163 1233.08 95.5163 1229.75 L95.5163 1224.28 L99.9723 1224.28 L99.9723 1229.75 Q99.9723 1235.91 97.6864 1238.26 Q95.3716 1240.6 89.2953 1240.6 L71.7028 1240.6 L71.7028 1244.51 L67.565 1244.51 L67.565 1240.6 L58.3637 1240.6 L58.3637 1235.25 Z" fill="#000000" fill-rule="nonzero" fill-opacity="1" /><path clip-path="url(#clip410)" d="M67.565 1217.28 L67.565 1211.95 L99.9723 1211.95 L99.9723 1217.28 L67.565 1217.28 M54.9494 1217.28 L54.9494 1211.95 L61.6912 1211.95 L61.6912 1217.28 L54.9494 1217.28 Z" fill="#000000" fill-rule="nonzero" fill-opacity="1" /><path clip-path="url(#clip410)" d="M73.7861 1175.58 Q70.1981 1173.59 68.491 1170.81 Q66.7838 1168.03 66.7838 1164.27 Q66.7838 1159.21 70.3428 1156.46 Q73.8729 1153.71 80.4122 1153.71 L99.9723 1153.71 L99.9723 1159.06 L80.5858 1159.06 Q75.9273 1159.06 73.6703 1160.71 Q71.4134 1162.36 71.4134 1165.75 Q71.4134 1169.88 74.1622 1172.28 Q76.9111 1174.69 81.6564 1174.69 L99.9723 1174.69 L99.9723 1180.04 L80.5858 1180.04 Q75.8983 1180.04 73.6703 1181.69 Q71.4134 1183.34 71.4134 1186.78 Q71.4134 1190.86 74.1912 1193.26 Q76.94 1195.66 81.6564 1195.66 L99.9723 1195.66 L99.9723 1201.02 L67.565 1201.02 L67.565 1195.66 L72.5997 1195.66 Q69.6194 1193.84 68.2016 1191.29 Q66.7838 1188.75 66.7838 1185.25 Q66.7838 1181.72 68.5778 1179.26 Q70.3717 1176.77 73.7861 1175.58 Z" fill="#000000" fill-rule="nonzero" fill-opacity="1" /><path clip-path="url(#clip410)" d="M82.4377 1115.37 L85.0418 1115.37 L85.0418 1139.85 Q90.5395 1139.5 93.433 1136.55 Q96.2975 1133.57 96.2975 1128.27 Q96.2975 1125.21 95.5452 1122.34 Q94.7929 1119.45 93.2883 1116.61 L98.323 1116.61 Q99.5383 1119.48 100.175 1122.49 Q100.811 1125.5 100.811 1128.59 Q100.811 1136.35 96.2975 1140.89 Q91.7837 1145.4 84.087 1145.4 Q76.1298 1145.4 71.4713 1141.12 Q66.7838 1136.81 66.7838 1129.52 Q66.7838 1122.98 71.0083 1119.19 Q75.2039 1115.37 82.4377 1115.37 M80.8752 1120.69 Q76.506 1120.75 73.9018 1123.15 Q71.2977 1125.53 71.2977 1129.46 Q71.2977 1133.92 73.815 1136.61 Q76.3324 1139.27 80.9041 1139.67 L80.8752 1120.69 Z" fill="#000000" fill-rule="nonzero" fill-opacity="1" /><path clip-path="url(#clip410)" d="M55.0072 1075.01 Q61.6623 1078.88 68.1727 1080.76 Q74.6831 1082.64 81.3671 1082.64 Q88.0511 1082.64 94.6193 1080.76 Q101.159 1078.85 107.785 1075.01 L107.785 1079.63 Q100.985 1083.97 94.4168 1086.15 Q87.8485 1088.29 81.3671 1088.29 Q74.9145 1088.29 68.3752 1086.15 Q61.8359 1084 55.0072 1079.63 L55.0072 1075.01 Z" fill="#000000" fill-rule="nonzero" fill-opacity="1" /><path clip-path="url(#clip410)" d="M68.5199 1044.02 L73.5546 1044.02 Q72.3972 1046.27 71.8185 1048.7 Q71.2398 1051.13 71.2398 1053.74 Q71.2398 1057.7 72.4551 1059.7 Q73.6703 1061.67 76.1009 1061.67 Q77.9527 1061.67 79.0233 1060.25 Q80.065 1058.83 81.0198 1054.55 L81.4249 1052.73 Q82.6402 1047.05 84.8682 1044.68 Q87.0673 1042.28 91.0314 1042.28 Q95.5452 1042.28 98.1783 1045.87 Q100.811 1049.43 100.811 1055.68 Q100.811 1058.28 100.291 1061.12 Q99.7987 1063.92 98.7859 1067.05 L93.2883 1067.05 Q94.8218 1064.1 95.6031 1061.23 Q96.3554 1058.37 96.3554 1055.56 Q96.3554 1051.8 95.0823 1049.77 Q93.7802 1047.75 91.4364 1047.75 Q89.2663 1047.75 88.1089 1049.22 Q86.9515 1050.67 85.8809 1055.62 L85.4469 1057.47 Q84.4052 1062.42 82.264 1064.62 Q80.0939 1066.82 76.3324 1066.82 Q71.7606 1066.82 69.2722 1063.58 Q66.7838 1060.33 66.7838 1054.37 Q66.7838 1051.42 67.2178 1048.82 Q67.6519 1046.21 68.5199 1044.02 Z" fill="#000000" fill-rule="nonzero" fill-opacity="1" /><path clip-path="url(#clip410)" d="M55.0072 1034.64 L55.0072 1030.01 Q61.8359 1025.67 68.3752 1023.53 Q74.9145 1021.36 81.3671 1021.36 Q87.8485 1021.36 94.4168 1023.53 Q100.985 1025.67 107.785 1030.01 L107.785 1034.64 Q101.159 1030.79 94.6193 1028.91 Q88.0511 1027 81.3671 1027 Q74.6831 1027 68.1727 1028.91 Q61.6623 1030.79 55.0072 1034.64 Z" fill="#000000" fill-rule="nonzero" fill-opacity="1" /><path clip-path="url(#clip410)" d="M1317 123.984 L1325.18 123.984 L1325.18 184.464 L1317 184.464 L1317 123.984 Z" fill="#000000" fill-rule="nonzero" fill-opacity="1" /><path clip-path="url(#clip410)" d="M1348.52 126.212 L1348.52 139.094 L1363.87 139.094 L1363.87 144.887 L1348.52 144.887 L1348.52 169.516 Q1348.52 175.066 1350.02 176.646 Q1351.55 178.226 1356.21 178.226 L1363.87 178.226 L1363.87 184.464 L1356.21 184.464 Q1347.58 184.464 1344.3 181.264 Q1341.02 178.023 1341.02 169.516 L1341.02 144.887 L1335.55 144.887 L1335.55 139.094 L1341.02 139.094 L1341.02 126.212 L1348.52 126.212 Z" fill="#000000" fill-rule="nonzero" fill-opacity="1" /><path clip-path="url(#clip410)" d="M1412.48 159.916 L1412.48 163.561 L1378.21 163.561 Q1378.7 171.258 1382.83 175.309 Q1387 179.319 1394.41 179.319 Q1398.71 179.319 1402.72 178.266 Q1406.77 177.213 1410.74 175.106 L1410.74 182.155 Q1406.73 183.856 1402.52 184.748 Q1398.3 185.639 1393.97 185.639 Q1383.11 185.639 1376.75 179.319 Q1370.43 173 1370.43 162.225 Q1370.43 151.085 1376.43 144.563 Q1382.46 138 1392.67 138 Q1401.83 138 1407.13 143.914 Q1412.48 149.788 1412.48 159.916 M1405.03 157.728 Q1404.95 151.611 1401.58 147.965 Q1398.26 144.32 1392.75 144.32 Q1386.51 144.32 1382.75 147.844 Q1379.02 151.368 1378.45 157.769 L1405.03 157.728 Z" fill="#000000" fill-rule="nonzero" fill-opacity="1" /><path clip-path="url(#clip410)" d="M1451 146.061 Q1449.75 145.332 1448.25 145.008 Q1446.79 144.644 1445.01 144.644 Q1438.69 144.644 1435.29 148.776 Q1431.92 152.867 1431.92 160.564 L1431.92 184.464 L1424.43 184.464 L1424.43 139.094 L1431.92 139.094 L1431.92 146.142 Q1434.27 142.011 1438.04 140.026 Q1441.81 138 1447.2 138 Q1447.97 138 1448.9 138.122 Q1449.83 138.203 1450.96 138.405 L1451 146.061 Z" fill="#000000" fill-rule="nonzero" fill-opacity="1" /><path clip-path="url(#clip410)" d="M1479.44 161.657 Q1470.41 161.657 1466.92 163.723 Q1463.44 165.789 1463.44 170.772 Q1463.44 174.742 1466.03 177.091 Q1468.67 179.4 1473.16 179.4 Q1479.36 179.4 1483.09 175.025 Q1486.85 170.61 1486.85 163.318 L1486.85 161.657 L1479.44 161.657 M1494.31 158.579 L1494.31 184.464 L1486.85 184.464 L1486.85 177.577 Q1484.3 181.709 1480.49 183.694 Q1476.69 185.639 1471.18 185.639 Q1464.21 185.639 1460.08 181.75 Q1455.99 177.821 1455.99 171.258 Q1455.99 163.602 1461.09 159.713 Q1466.24 155.824 1476.4 155.824 L1486.85 155.824 L1486.85 155.095 Q1486.85 149.95 1483.45 147.155 Q1480.09 144.32 1473.97 144.32 Q1470.08 144.32 1466.4 145.251 Q1462.71 146.183 1459.31 148.046 L1459.31 141.16 Q1463.4 139.58 1467.25 138.81 Q1471.1 138 1474.74 138 Q1484.59 138 1489.45 143.104 Q1494.31 148.208 1494.31 158.579 Z" fill="#000000" fill-rule="nonzero" fill-opacity="1" /><path clip-path="url(#clip410)" d="M1517.03 126.212 L1517.03 139.094 L1532.39 139.094 L1532.39 144.887 L1517.03 144.887 L1517.03 169.516 Q1517.03 175.066 1518.53 176.646 Q1520.07 178.226 1524.73 178.226 L1532.39 178.226 L1532.39 184.464 L1524.73 184.464 Q1516.1 184.464 1512.82 181.264 Q1509.54 178.023 1509.54 169.516 L1509.54 144.887 L1504.07 144.887 L1504.07 139.094 L1509.54 139.094 L1509.54 126.212 L1517.03 126.212 Z" fill="#000000" fill-rule="nonzero" fill-opacity="1" /><path clip-path="url(#clip410)" d="M1542.19 139.094 L1549.64 139.094 L1549.64 184.464 L1542.19 184.464 L1542.19 139.094 M1542.19 121.432 L1549.64 121.432 L1549.64 130.871 L1542.19 130.871 L1542.19 121.432 Z" fill="#000000" fill-rule="nonzero" fill-opacity="1" /><path clip-path="url(#clip410)" d="M1582.82 144.32 Q1576.83 144.32 1573.34 149.019 Q1569.86 153.677 1569.86 161.819 Q1569.86 169.962 1573.3 174.661 Q1576.78 179.319 1582.82 179.319 Q1588.78 179.319 1592.26 174.62 Q1595.74 169.921 1595.74 161.819 Q1595.74 153.758 1592.26 149.059 Q1588.78 144.32 1582.82 144.32 M1582.82 138 Q1592.54 138 1598.09 144.32 Q1603.64 150.639 1603.64 161.819 Q1603.64 172.959 1598.09 179.319 Q1592.54 185.639 1582.82 185.639 Q1573.06 185.639 1567.51 179.319 Q1562 172.959 1562 161.819 Q1562 150.639 1567.51 144.32 Q1573.06 138 1582.82 138 Z" fill="#000000" fill-rule="nonzero" fill-opacity="1" /><path clip-path="url(#clip410)" d="M1653.71 157.08 L1653.71 184.464 L1646.26 184.464 L1646.26 157.323 Q1646.26 150.882 1643.75 147.682 Q1641.23 144.482 1636.21 144.482 Q1630.18 144.482 1626.69 148.33 Q1623.21 152.178 1623.21 158.822 L1623.21 184.464 L1615.71 184.464 L1615.71 139.094 L1623.21 139.094 L1623.21 146.142 Q1625.88 142.051 1629.49 140.026 Q1633.13 138 1637.87 138 Q1645.69 138 1649.7 142.861 Q1653.71 147.682 1653.71 157.08 Z" fill="#000000" fill-rule="nonzero" fill-opacity="1" /><path clip-path="url(#clip410)" d="M1697.5 140.431 L1697.5 147.479 Q1694.34 145.859 1690.94 145.049 Q1687.54 144.239 1683.89 144.239 Q1678.34 144.239 1675.55 145.94 Q1672.79 147.641 1672.79 151.044 Q1672.79 153.637 1674.78 155.135 Q1676.76 156.594 1682.76 157.931 L1685.31 158.498 Q1693.25 160.199 1696.57 163.318 Q1699.93 166.397 1699.93 171.947 Q1699.93 178.266 1694.91 181.952 Q1689.93 185.639 1681.18 185.639 Q1677.53 185.639 1673.56 184.91 Q1669.63 184.221 1665.26 182.803 L1665.26 175.106 Q1669.39 177.253 1673.4 178.347 Q1677.41 179.4 1681.34 179.4 Q1686.61 179.4 1689.44 177.618 Q1692.28 175.795 1692.28 172.514 Q1692.28 169.476 1690.21 167.855 Q1688.18 166.235 1681.26 164.736 L1678.67 164.128 Q1671.74 162.67 1668.66 159.672 Q1665.58 156.634 1665.58 151.368 Q1665.58 144.968 1670.12 141.484 Q1674.65 138 1683 138 Q1687.13 138 1690.78 138.608 Q1694.42 139.215 1697.5 140.431 Z" fill="#000000" fill-rule="nonzero" fill-opacity="1" /><path clip-path="url(#clip410)" d="M1732.83 139.094 L1740.73 139.094 L1754.9 177.172 L1769.08 139.094 L1776.98 139.094 L1759.97 184.464 L1749.84 184.464 L1732.83 139.094 Z" fill="#000000" fill-rule="nonzero" fill-opacity="1" /><path clip-path="url(#clip410)" d="M1816.19 140.431 L1816.19 147.479 Q1813.03 145.859 1809.63 145.049 Q1806.23 144.239 1802.58 144.239 Q1797.03 144.239 1794.24 145.94 Q1791.48 147.641 1791.48 151.044 Q1791.48 153.637 1793.47 155.135 Q1795.45 156.594 1801.45 157.931 L1804 158.498 Q1811.94 160.199 1815.26 163.318 Q1818.62 166.397 1818.62 171.947 Q1818.62 178.266 1813.6 181.952 Q1808.62 185.639 1799.87 185.639 Q1796.22 185.639 1792.25 184.91 Q1788.32 184.221 1783.95 182.803 L1783.95 175.106 Q1788.08 177.253 1792.09 178.347 Q1796.1 179.4 1800.03 179.4 Q1805.3 179.4 1808.13 177.618 Q1810.97 175.795 1810.97 172.514 Q1810.97 169.476 1808.9 167.855 Q1806.88 166.235 1799.95 164.736 L1797.36 164.128 Q1790.43 162.67 1787.35 159.672 Q1784.27 156.634 1784.27 151.368 Q1784.27 144.968 1788.81 141.484 Q1793.35 138 1801.69 138 Q1805.82 138 1809.47 138.608 Q1813.11 139.215 1816.19 140.431 Z" fill="#000000" fill-rule="nonzero" fill-opacity="1" /><path clip-path="url(#clip410)" d="M1902.48 128.643 L1902.48 137.271 Q1898.35 133.423 1893.65 131.519 Q1888.99 129.615 1883.72 129.615 Q1873.35 129.615 1867.84 135.975 Q1862.33 142.294 1862.33 154.285 Q1862.33 166.235 1867.84 172.595 Q1873.35 178.914 1883.72 178.914 Q1888.99 178.914 1893.65 177.01 Q1898.35 175.106 1902.48 171.258 L1902.48 179.805 Q1898.18 182.722 1893.36 184.18 Q1888.58 185.639 1883.24 185.639 Q1869.5 185.639 1861.6 177.253 Q1853.7 168.828 1853.7 154.285 Q1853.7 139.702 1861.6 131.316 Q1869.5 122.89 1883.24 122.89 Q1888.66 122.89 1893.44 124.349 Q1898.26 125.766 1902.48 128.643 Z" fill="#000000" fill-rule="nonzero" fill-opacity="1" /><path clip-path="url(#clip410)" d="M1923.3 130.709 L1923.3 153.434 L1933.59 153.434 Q1939.3 153.434 1942.42 150.477 Q1945.54 147.52 1945.54 142.051 Q1945.54 136.623 1942.42 133.666 Q1939.3 130.709 1933.59 130.709 L1923.3 130.709 M1915.12 123.984 L1933.59 123.984 Q1943.76 123.984 1948.94 128.602 Q1954.17 133.18 1954.17 142.051 Q1954.17 151.004 1948.94 155.581 Q1943.76 160.159 1933.59 160.159 L1923.3 160.159 L1923.3 184.464 L1915.12 184.464 L1915.12 123.984 Z" fill="#000000" fill-rule="nonzero" fill-opacity="1" /><path clip-path="url(#clip410)" d="M1964.21 123.984 L1972.44 123.984 L1972.44 160.726 Q1972.44 170.448 1975.96 174.742 Q1979.49 178.995 1987.38 178.995 Q1995.24 178.995 1998.77 174.742 Q2002.29 170.448 2002.29 160.726 L2002.29 123.984 L2010.52 123.984 L2010.52 161.738 Q2010.52 173.567 2004.64 179.603 Q1998.81 185.639 1987.38 185.639 Q1975.92 185.639 1970.05 179.603 Q1964.21 173.567 1964.21 161.738 L1964.21 123.984 Z" fill="#000000" fill-rule="nonzero" fill-opacity="1" /><path clip-path="url(#clip410)" d="M2059.29 126.212 L2059.29 139.094 L2074.64 139.094 L2074.64 144.887 L2059.29 144.887 L2059.29 169.516 Q2059.29 175.066 2060.79 176.646 Q2062.33 178.226 2066.98 178.226 L2074.64 178.226 L2074.64 184.464 L2066.98 184.464 Q2058.36 184.464 2055.08 181.264 Q2051.79 178.023 2051.79 169.516 L2051.79 144.887 L2046.33 144.887 L2046.33 139.094 L2051.79 139.094 L2051.79 126.212 L2059.29 126.212 Z" fill="#000000" fill-rule="nonzero" fill-opacity="1" /><path clip-path="url(#clip410)" d="M2084.44 139.094 L2091.9 139.094 L2091.9 184.464 L2084.44 184.464 L2084.44 139.094 M2084.44 121.432 L2091.9 121.432 L2091.9 130.871 L2084.44 130.871 L2084.44 121.432 Z" fill="#000000" fill-rule="nonzero" fill-opacity="1" /><path clip-path="url(#clip410)" d="M2142.82 147.803 Q2145.61 142.78 2149.5 140.39 Q2153.39 138 2158.66 138 Q2165.75 138 2169.59 142.983 Q2173.44 147.925 2173.44 157.08 L2173.44 184.464 L2165.95 184.464 L2165.95 157.323 Q2165.95 150.801 2163.64 147.641 Q2161.33 144.482 2156.59 144.482 Q2150.8 144.482 2147.44 148.33 Q2144.07 152.178 2144.07 158.822 L2144.07 184.464 L2136.58 184.464 L2136.58 157.323 Q2136.58 150.76 2134.27 147.641 Q2131.96 144.482 2127.14 144.482 Q2121.43 144.482 2118.07 148.37 Q2114.7 152.219 2114.7 158.822 L2114.7 184.464 L2107.21 184.464 L2107.21 139.094 L2114.7 139.094 L2114.7 146.142 Q2117.26 141.97 2120.82 139.985 Q2124.39 138 2129.29 138 Q2134.23 138 2137.67 140.512 Q2141.16 143.023 2142.82 147.803 Z" fill="#000000" fill-rule="nonzero" fill-opacity="1" /><path clip-path="url(#clip410)" d="M2227.12 159.916 L2227.12 163.561 L2192.85 163.561 Q2193.33 171.258 2197.46 175.309 Q2201.64 179.319 2209.05 179.319 Q2213.34 179.319 2217.35 178.266 Q2221.41 177.213 2225.38 175.106 L2225.38 182.155 Q2221.36 183.856 2217.15 184.748 Q2212.94 185.639 2208.6 185.639 Q2197.75 185.639 2191.39 179.319 Q2185.07 173 2185.07 162.225 Q2185.07 151.085 2191.06 144.563 Q2197.1 138 2207.31 138 Q2216.46 138 2221.77 143.914 Q2227.12 149.788 2227.12 159.916 M2219.66 157.728 Q2219.58 151.611 2216.22 147.965 Q2212.9 144.32 2207.39 144.32 Q2201.15 144.32 2197.38 147.844 Q2193.66 151.368 2193.09 157.769 L2219.66 157.728 Z" fill="#000000" fill-rule="nonzero" fill-opacity="1" /><path clip-path="url(#clip410)" d="M2261.95 158.822 L2336.82 158.822 L2336.82 164.655 L2261.95 164.655 L2261.95 158.822 Z" fill="#000000" fill-rule="nonzero" fill-opacity="1" /><path clip-path="url(#clip410)" d="M2407.63 161.819 Q2407.63 153.596 2404.22 148.938 Q2400.86 144.239 2394.95 144.239 Q2389.03 144.239 2385.63 148.938 Q2382.27 153.596 2382.27 161.819 Q2382.27 170.043 2385.63 174.742 Q2389.03 179.4 2394.95 179.4 Q2400.86 179.4 2404.22 174.742 Q2407.63 170.043 2407.63 161.819 M2382.27 145.98 Q2384.62 141.93 2388.18 139.985 Q2391.79 138 2396.77 138 Q2405.03 138 2410.18 144.563 Q2415.36 151.125 2415.36 161.819 Q2415.36 172.514 2410.18 179.076 Q2405.03 185.639 2396.77 185.639 Q2391.79 185.639 2388.18 183.694 Q2384.62 181.709 2382.27 177.658 L2382.27 184.464 L2374.77 184.464 L2374.77 121.432 L2382.27 121.432 L2382.27 145.98 Z" fill="#000000" fill-rule="nonzero" fill-opacity="1" /><path clip-path="url(#clip410)" d="M2466.53 159.916 L2466.53 163.561 L2432.25 163.561 Q2432.74 171.258 2436.87 175.309 Q2441.05 179.319 2448.46 179.319 Q2452.75 179.319 2456.76 178.266 Q2460.81 177.213 2464.78 175.106 L2464.78 182.155 Q2460.77 183.856 2456.56 184.748 Q2452.35 185.639 2448.01 185.639 Q2437.16 185.639 2430.8 179.319 Q2424.48 173 2424.48 162.225 Q2424.48 151.085 2430.47 144.563 Q2436.51 138 2446.72 138 Q2455.87 138 2461.18 143.914 Q2466.53 149.788 2466.53 159.916 M2459.07 157.728 Q2458.99 151.611 2455.63 147.965 Q2452.31 144.32 2446.8 144.32 Q2440.56 144.32 2436.79 147.844 Q2433.07 151.368 2432.5 157.769 L2459.07 157.728 Z" fill="#000000" fill-rule="nonzero" fill-opacity="1" /><path clip-path="url(#clip410)" d="M2499.38 161.657 Q2490.34 161.657 2486.86 163.723 Q2483.38 165.789 2483.38 170.772 Q2483.38 174.742 2485.97 177.091 Q2488.6 179.4 2493.1 179.4 Q2499.3 179.4 2503.02 175.025 Q2506.79 170.61 2506.79 163.318 L2506.79 161.657 L2499.38 161.657 M2514.25 158.579 L2514.25 184.464 L2506.79 184.464 L2506.79 177.577 Q2504.24 181.709 2500.43 183.694 Q2496.62 185.639 2491.11 185.639 Q2484.15 185.639 2480.02 181.75 Q2475.92 177.821 2475.92 171.258 Q2475.92 163.602 2481.03 159.713 Q2486.17 155.824 2496.34 155.824 L2506.79 155.824 L2506.79 155.095 Q2506.79 149.95 2503.39 147.155 Q2500.03 144.32 2493.91 144.32 Q2490.02 144.32 2486.33 145.251 Q2482.65 146.183 2479.25 148.046 L2479.25 141.16 Q2483.34 139.58 2487.19 138.81 Q2491.03 138 2494.68 138 Q2504.52 138 2509.38 143.104 Q2514.25 148.208 2514.25 158.579 Z" fill="#000000" fill-rule="nonzero" fill-opacity="1" /><path clip-path="url(#clip410)" d="M2564.92 147.803 Q2567.72 142.78 2571.61 140.39 Q2575.49 138 2580.76 138 Q2587.85 138 2591.7 142.983 Q2595.55 147.925 2595.55 157.08 L2595.55 184.464 L2588.05 184.464 L2588.05 157.323 Q2588.05 150.801 2585.74 147.641 Q2583.43 144.482 2578.7 144.482 Q2572.9 144.482 2569.54 148.33 Q2566.18 152.178 2566.18 158.822 L2566.18 184.464 L2558.68 184.464 L2558.68 157.323 Q2558.68 150.76 2556.37 147.641 Q2554.07 144.482 2549.25 144.482 Q2543.53 144.482 2540.17 148.37 Q2536.81 152.219 2536.81 158.822 L2536.81 184.464 L2529.31 184.464 L2529.31 139.094 L2536.81 139.094 L2536.81 146.142 Q2539.36 141.97 2542.93 139.985 Q2546.49 138 2551.39 138 Q2556.33 138 2559.78 140.512 Q2563.26 143.023 2564.92 147.803 Z" fill="#000000" fill-rule="nonzero" fill-opacity="1" /><path clip-path="url(#clip412)" d="M474.158 1951.24 L426.158 1951.24 L450.158 1999.24 L474.158 1951.24 Z" fill="#9370db" fill-rule="evenodd" fill-opacity="1" stroke="none"/>
<path clip-path="url(#clip412)" d="M725.178 1475.1 L677.178 1475.1 L701.178 1523.1 L725.178 1475.1 Z" fill="#9370db" fill-rule="evenodd" fill-opacity="1" stroke="none"/>
<path clip-path="url(#clip412)" d="M2231.29 883.886 L2183.29 883.886 L2207.29 931.886 L2231.29 883.886 Z" fill="#9370db" fill-rule="evenodd" fill-opacity="1" stroke="none"/>
<path clip-path="url(#clip412)" d="M2482.31 492.765 L2434.31 492.765 L2458.31 540.765 L2482.31 492.765 Z" fill="#9370db" fill-rule="evenodd" fill-opacity="1" stroke="none"/>
<circle clip-path="url(#clip412)" cx="450.158" cy="1825.03" r="21.6" fill="#4682b4" fill-rule="evenodd" fill-opacity="1" stroke="none"/>
<circle clip-path="url(#clip412)" cx="701.178" cy="1353.58" r="21.6" fill="#4682b4" fill-rule="evenodd" fill-opacity="1" stroke="none"/>
<circle clip-path="url(#clip412)" cx="2583.82" cy="713.511" r="21.6" fill="#4682b4" fill-rule="evenodd" fill-opacity="1" stroke="none"/>
<circle clip-path="url(#clip412)" cx="2709.33" cy="307.735" r="21.6" fill="#4682b4" fill-rule="evenodd" fill-opacity="1" stroke="none"/>
<path clip-path="url(#clip412)" d="M426.158 1946.52 L426.158 1994.52 L474.158 1994.52 L474.158 1946.52 L426.158 1946.52 Z" fill="#ff6347" fill-rule="evenodd" fill-opacity="1" stroke="none"/>
<path clip-path="url(#clip412)" d="M677.178 1488.3 L677.178 1536.3 L725.178 1536.3 L725.178 1488.3 L677.178 1488.3 Z" fill="#ff6347" fill-rule="evenodd" fill-opacity="1" stroke="none"/>
<path clip-path="url(#clip412)" d="M2559.82 846.365 L2559.82 894.365 L2607.82 894.365 L2607.82 846.365 L2559.82 846.365 Z" fill="#ff6347" fill-rule="evenodd" fill-opacity="1" stroke="none"/>
<path clip-path="url(#clip412)" d="M2057.78 544.531 L2057.78 592.531 L2105.78 592.531 L2105.78 544.531 L2057.78 544.531 Z" fill="#ff6347" fill-rule="evenodd" fill-opacity="1" stroke="none"/>
<path clip-path="url(#clip412)" d="M1077.71 2078.46 L1072.07 2094.69 L1054.88 2095.05 L1068.59 2105.44 L1063.59 2121.88 L1077.71 2112.06 L1091.82 2121.88 L1086.83 2105.44 L1100.53 2095.05 L1083.35 2094.69 L1077.71 2078.46 Z" fill="#a0522d" fill-rule="evenodd" fill-opacity="1" stroke="none"/>
<path clip-path="url(#clip412)" d="M701.178 1738.5 L695.538 1754.73 L678.354 1755.09 L692.058 1765.48 L687.066 1781.92 L701.178 1772.1 L715.29 1781.92 L710.298 1765.48 L724.002 1755.09 L706.818 1754.73 L701.178 1738.5 Z" fill="#a0522d" fill-rule="evenodd" fill-opacity="1" stroke="none"/>
<path clip-path="url(#clip412)" d="M1956.27 1144.99 L1950.63 1161.22 L1933.45 1161.58 L1947.15 1171.97 L1942.16 1188.41 L1956.27 1178.59 L1970.39 1188.41 L1965.39 1171.97 L1979.1 1161.58 L1961.91 1161.22 L1956.27 1144.99 Z" fill="#a0522d" fill-rule="evenodd" fill-opacity="1" stroke="none"/>
<path clip-path="url(#clip412)" d="M3336.88 526.661 L3331.24 542.885 L3314.06 543.245 L3327.76 553.637 L3322.77 570.077 L3336.88 560.261 L3350.99 570.077 L3346 553.637 L3359.7 543.245 L3342.52 542.885 L3336.88 526.661 Z" fill="#a0522d" fill-rule="evenodd" fill-opacity="1" stroke="none"/>
<path clip-path="url(#clip412)" d="M1077.71 1871.72 L1053.71 1895.72 L1077.71 1919.72 L1101.71 1895.72 L1077.71 1871.72 Z" fill="#2e8b57" fill-rule="evenodd" fill-opacity="1" stroke="none"/>
<path clip-path="url(#clip412)" d="M701.178 1498.03 L677.178 1522.03 L701.178 1546.03 L725.178 1522.03 L701.178 1498.03 Z" fill="#2e8b57" fill-rule="evenodd" fill-opacity="1" stroke="none"/>
<path clip-path="url(#clip412)" d="M1705.25 952.63 L1681.25 976.63 L1705.25 1000.63 L1729.25 976.63 L1705.25 952.63 Z" fill="#2e8b57" fill-rule="evenodd" fill-opacity="1" stroke="none"/>
<path clip-path="url(#clip412)" d="M3462.39 276.989 L3438.39 300.989 L3462.39 324.989 L3486.39 300.989 L3462.39 276.989 Z" fill="#2e8b57" fill-rule="evenodd" fill-opacity="1" stroke="none"/>
<path clip-path="url(#clip412)" d="M1077.71 2059.03 L1053.71 2107.03 L1101.71 2107.03 L1077.71 2059.03 Z" fill="#ff8c00" fill-rule="evenodd" fill-opacity="1" stroke="none"/>
<path clip-path="url(#clip412)" d="M701.178 1699.04 L677.178 1747.04 L725.178 1747.04 L701.178 1699.04 Z" fill="#ff8c00" fill-rule="evenodd" fill-opacity="1" stroke="none"/>
<path clip-path="url(#clip412)" d="M1956.27 1125.98 L1932.27 1173.98 L1980.27 1173.98 L1956.27 1125.98 Z" fill="#ff8c00" fill-rule="evenodd" fill-opacity="1" stroke="none"/>
<path clip-path="url(#clip412)" d="M3085.86 502.375 L3061.86 550.375 L3109.86 550.375 L3085.86 502.375 Z" fill="#ff8c00" fill-rule="evenodd" fill-opacity="1" stroke="none"/>
<path clip-path="url(#clip410)" d="M466.224 673.476 L1155.59 673.476 L1155.59 310.596 L466.224 310.596  Z" fill="#ffffff" fill-rule="evenodd" fill-opacity="1"/>
<polyline clip-path="url(#clip410)" style="stroke:#000000; stroke-linecap:round; stroke-linejoin:round; stroke-width:4; stroke-opacity:1; fill:none" points="466.224,673.476 1155.59,673.476 1155.59,310.596 466.224,310.596 466.224,673.476 "/>
<path clip-path="url(#clip410)" d="M633.733 336.836 L582.533 336.836 L608.133 388.036 L633.733 336.836 Z" fill="#9370db" fill-rule="evenodd" fill-opacity="1" stroke="none"/>
<path clip-path="url(#clip410)" d="M760.668 343.744 Q757.566 349.068 756.061 354.277 Q754.557 359.485 754.557 364.832 Q754.557 370.179 756.061 375.434 Q757.589 380.665 760.668 385.966 L756.964 385.966 Q753.492 380.527 751.756 375.272 Q750.043 370.017 750.043 364.832 Q750.043 359.67 751.756 354.439 Q753.469 349.207 756.964 343.744 L760.668 343.744 Z" fill="#000000" fill-rule="nonzero" fill-opacity="1" /><path clip-path="url(#clip410)" d="M768.931 353.791 L773.191 353.791 L773.191 380.179 Q773.191 385.133 771.293 387.355 Q769.418 389.577 765.228 389.577 L763.607 389.577 L763.607 385.966 L764.742 385.966 Q767.172 385.966 768.052 384.832 Q768.931 383.721 768.931 380.179 L768.931 353.791 M768.931 343.698 L773.191 343.698 L773.191 349.092 L768.931 349.092 L768.931 343.698 Z" fill="#000000" fill-rule="nonzero" fill-opacity="1" /><path clip-path="url(#clip410)" d="M781.663 369.485 L781.663 353.791 L785.922 353.791 L785.922 369.323 Q785.922 373.003 787.357 374.855 Q788.792 376.684 791.663 376.684 Q795.112 376.684 797.103 374.485 Q799.117 372.286 799.117 368.49 L799.117 353.791 L803.376 353.791 L803.376 379.716 L799.117 379.716 L799.117 375.735 Q797.566 378.096 795.505 379.253 Q793.468 380.388 790.76 380.388 Q786.293 380.388 783.978 377.61 Q781.663 374.832 781.663 369.485 M792.38 353.166 L792.38 353.166 Z" fill="#000000" fill-rule="nonzero" fill-opacity="1" /><path clip-path="url(#clip410)" d="M832.334 358.767 Q833.931 355.897 836.153 354.531 Q838.376 353.166 841.385 353.166 Q845.436 353.166 847.635 356.013 Q849.834 358.837 849.834 364.068 L849.834 379.716 L845.551 379.716 L845.551 364.207 Q845.551 360.48 844.232 358.675 Q842.913 356.869 840.204 356.869 Q836.894 356.869 834.973 359.068 Q833.052 361.267 833.052 365.064 L833.052 379.716 L828.769 379.716 L828.769 364.207 Q828.769 360.457 827.45 358.675 Q826.13 356.869 823.376 356.869 Q820.112 356.869 818.19 359.091 Q816.269 361.291 816.269 365.064 L816.269 379.716 L811.987 379.716 L811.987 353.791 L816.269 353.791 L816.269 357.818 Q817.728 355.434 819.765 354.3 Q821.802 353.166 824.602 353.166 Q827.427 353.166 829.394 354.601 Q831.385 356.036 832.334 358.767 Z" fill="#000000" fill-rule="nonzero" fill-opacity="1" /><path clip-path="url(#clip410)" d="M862.45 375.827 L862.45 389.577 L858.167 389.577 L858.167 353.791 L862.45 353.791 L862.45 357.726 Q863.792 355.411 865.829 354.3 Q867.889 353.166 870.736 353.166 Q875.459 353.166 878.398 356.916 Q881.361 360.666 881.361 366.777 Q881.361 372.888 878.398 376.638 Q875.459 380.388 870.736 380.388 Q867.889 380.388 865.829 379.277 Q863.792 378.142 862.45 375.827 M876.94 366.777 Q876.94 362.078 874.996 359.416 Q873.074 356.73 869.695 356.73 Q866.315 356.73 864.371 359.416 Q862.45 362.078 862.45 366.777 Q862.45 371.476 864.371 374.161 Q866.315 376.823 869.695 376.823 Q873.074 376.823 874.996 374.161 Q876.94 371.476 876.94 366.777 Z" fill="#000000" fill-rule="nonzero" fill-opacity="1" /><path clip-path="url(#clip410)" d="M889.51 373.837 L894.394 373.837 L894.394 377.818 L890.598 385.226 L887.611 385.226 L889.51 377.818 L889.51 373.837 Z" fill="#000000" fill-rule="nonzero" fill-opacity="1" /><path clip-path="url(#clip410)" d="M918.56 353.791 L922.82 353.791 L922.82 379.716 L918.56 379.716 L918.56 353.791 M918.56 343.698 L922.82 343.698 L922.82 349.092 L918.56 349.092 L918.56 343.698 Z" fill="#000000" fill-rule="nonzero" fill-opacity="1" /><path clip-path="url(#clip410)" d="M935.852 375.827 L935.852 389.577 L931.57 389.577 L931.57 353.791 L935.852 353.791 L935.852 357.726 Q937.194 355.411 939.232 354.3 Q941.292 353.166 944.139 353.166 Q948.861 353.166 951.801 356.916 Q954.764 360.666 954.764 366.777 Q954.764 372.888 951.801 376.638 Q948.861 380.388 944.139 380.388 Q941.292 380.388 939.232 379.277 Q937.194 378.142 935.852 375.827 M950.343 366.777 Q950.343 362.078 948.398 359.416 Q946.477 356.73 943.097 356.73 Q939.718 356.73 937.773 359.416 Q935.852 362.078 935.852 366.777 Q935.852 371.476 937.773 374.161 Q939.718 376.823 943.097 376.823 Q946.477 376.823 948.398 374.161 Q950.343 371.476 950.343 366.777 Z" fill="#000000" fill-rule="nonzero" fill-opacity="1" /><path clip-path="url(#clip410)" d="M971.87 356.777 Q968.444 356.777 966.454 359.462 Q964.463 362.124 964.463 366.777 Q964.463 371.429 966.43 374.115 Q968.421 376.777 971.87 376.777 Q975.273 376.777 977.264 374.091 Q979.254 371.406 979.254 366.777 Q979.254 362.17 977.264 359.485 Q975.273 356.777 971.87 356.777 M971.87 353.166 Q977.426 353.166 980.597 356.777 Q983.768 360.388 983.768 366.777 Q983.768 373.142 980.597 376.777 Q977.426 380.388 971.87 380.388 Q966.292 380.388 963.12 376.777 Q959.972 373.142 959.972 366.777 Q959.972 360.388 963.12 356.777 Q966.292 353.166 971.87 353.166 Z" fill="#000000" fill-rule="nonzero" fill-opacity="1" /><path clip-path="url(#clip410)" d="M994.949 375.827 L994.949 389.577 L990.666 389.577 L990.666 353.791 L994.949 353.791 L994.949 357.726 Q996.291 355.411 998.328 354.3 Q1000.39 353.166 1003.24 353.166 Q1007.96 353.166 1010.9 356.916 Q1013.86 360.666 1013.86 366.777 Q1013.86 372.888 1010.9 376.638 Q1007.96 380.388 1003.24 380.388 Q1000.39 380.388 998.328 379.277 Q996.291 378.142 994.949 375.827 M1009.44 366.777 Q1009.44 362.078 1007.5 359.416 Q1005.57 356.73 1002.19 356.73 Q998.815 356.73 996.87 359.416 Q994.949 362.078 994.949 366.777 Q994.949 371.476 996.87 374.161 Q998.815 376.823 1002.19 376.823 Q1005.57 376.823 1007.5 374.161 Q1009.44 371.476 1009.44 366.777 Z" fill="#000000" fill-rule="nonzero" fill-opacity="1" /><path clip-path="url(#clip410)" d="M1025.13 346.43 L1025.13 353.791 L1033.91 353.791 L1033.91 357.101 L1025.13 357.101 L1025.13 371.175 Q1025.13 374.346 1025.99 375.249 Q1026.87 376.152 1029.53 376.152 L1033.91 376.152 L1033.91 379.716 L1029.53 379.716 Q1024.6 379.716 1022.73 377.888 Q1020.85 376.036 1020.85 371.175 L1020.85 357.101 L1017.73 357.101 L1017.73 353.791 L1020.85 353.791 L1020.85 346.43 L1025.13 346.43 Z" fill="#000000" fill-rule="nonzero" fill-opacity="1" /><path clip-path="url(#clip410)" d="M1038.84 343.744 L1042.54 343.744 Q1046.01 349.207 1047.73 354.439 Q1049.46 359.67 1049.46 364.832 Q1049.46 370.017 1047.73 375.272 Q1046.01 380.527 1042.54 385.966 L1038.84 385.966 Q1041.92 380.665 1043.42 375.434 Q1044.95 370.179 1044.95 364.832 Q1044.95 359.485 1043.42 354.277 Q1041.92 349.068 1038.84 343.744 Z" fill="#000000" fill-rule="nonzero" fill-opacity="1" /><circle clip-path="url(#clip410)" cx="608.133" cy="414.276" r="23.04" fill="#4682b4" fill-rule="evenodd" fill-opacity="1" stroke="none"/>
<path clip-path="url(#clip410)" d="M760.668 395.584 Q757.566 400.908 756.061 406.117 Q754.557 411.325 754.557 416.672 Q754.557 422.019 756.061 427.274 Q757.589 432.505 760.668 437.806 L756.964 437.806 Q753.492 432.367 751.756 427.112 Q750.043 421.857 750.043 416.672 Q750.043 411.51 751.756 406.279 Q753.469 401.047 756.964 395.584 L760.668 395.584 Z" fill="#000000" fill-rule="nonzero" fill-opacity="1" /><path clip-path="url(#clip410)" d="M780.714 418.524 Q775.552 418.524 773.561 419.705 Q771.57 420.885 771.57 423.732 Q771.57 426.001 773.052 427.343 Q774.556 428.663 777.126 428.663 Q780.668 428.663 782.797 426.163 Q784.95 423.64 784.95 419.473 L784.95 418.524 L780.714 418.524 M789.209 416.765 L789.209 431.556 L784.95 431.556 L784.95 427.621 Q783.492 429.982 781.316 431.117 Q779.14 432.228 775.992 432.228 Q772.01 432.228 769.649 430.005 Q767.311 427.76 767.311 424.01 Q767.311 419.635 770.228 417.413 Q773.168 415.191 778.978 415.191 L784.95 415.191 L784.95 414.774 Q784.95 411.834 783.005 410.237 Q781.084 408.617 777.589 408.617 Q775.367 408.617 773.26 409.149 Q771.154 409.681 769.209 410.746 L769.209 406.811 Q771.547 405.908 773.746 405.469 Q775.945 405.006 778.029 405.006 Q783.654 405.006 786.431 407.922 Q789.209 410.839 789.209 416.765 Z" fill="#000000" fill-rule="nonzero" fill-opacity="1" /><path clip-path="url(#clip410)" d="M815.042 409.566 L815.042 395.538 L819.302 395.538 L819.302 431.556 L815.042 431.556 L815.042 427.667 Q813.7 429.982 811.64 431.117 Q809.603 432.228 806.732 432.228 Q802.033 432.228 799.07 428.478 Q796.13 424.728 796.13 418.617 Q796.13 412.506 799.07 408.756 Q802.033 405.006 806.732 405.006 Q809.603 405.006 811.64 406.14 Q813.7 407.251 815.042 409.566 M800.529 418.617 Q800.529 423.316 802.45 426.001 Q804.394 428.663 807.774 428.663 Q811.153 428.663 813.098 426.001 Q815.042 423.316 815.042 418.617 Q815.042 413.918 813.098 411.256 Q811.153 408.57 807.774 408.57 Q804.394 408.57 802.45 411.256 Q800.529 413.918 800.529 418.617 Z" fill="#000000" fill-rule="nonzero" fill-opacity="1" /><path clip-path="url(#clip410)" d="M849.625 415.908 L849.625 431.556 L845.366 431.556 L845.366 416.047 Q845.366 412.367 843.931 410.538 Q842.496 408.709 839.626 408.709 Q836.176 408.709 834.186 410.908 Q832.195 413.107 832.195 416.904 L832.195 431.556 L827.913 431.556 L827.913 405.631 L832.195 405.631 L832.195 409.658 Q833.723 407.32 835.783 406.163 Q837.866 405.006 840.575 405.006 Q845.042 405.006 847.334 407.783 Q849.625 410.538 849.625 415.908 Z" fill="#000000" fill-rule="nonzero" fill-opacity="1" /><path clip-path="url(#clip410)" d="M858.121 395.538 L862.38 395.538 L862.38 431.556 L858.121 431.556 L858.121 395.538 Z" fill="#000000" fill-rule="nonzero" fill-opacity="1" /><path clip-path="url(#clip410)" d="M875.412 427.667 L875.412 441.417 L871.13 441.417 L871.13 405.631 L875.412 405.631 L875.412 409.566 Q876.755 407.251 878.792 406.14 Q880.852 405.006 883.699 405.006 Q888.422 405.006 891.361 408.756 Q894.324 412.506 894.324 418.617 Q894.324 424.728 891.361 428.478 Q888.422 432.228 883.699 432.228 Q880.852 432.228 878.792 431.117 Q876.755 429.982 875.412 427.667 M889.903 418.617 Q889.903 413.918 887.959 411.256 Q886.037 408.57 882.658 408.57 Q879.278 408.57 877.334 411.256 Q875.412 413.918 875.412 418.617 Q875.412 423.316 877.334 426.001 Q879.278 428.663 882.658 428.663 Q886.037 428.663 887.959 426.001 Q889.903 423.316 889.903 418.617 Z" fill="#000000" fill-rule="nonzero" fill-opacity="1" /><path clip-path="url(#clip410)" d="M902.472 425.677 L907.357 425.677 L907.357 429.658 L903.56 437.066 L900.574 437.066 L902.472 429.658 L902.472 425.677 Z" fill="#000000" fill-rule="nonzero" fill-opacity="1" /><path clip-path="url(#clip410)" d="M931.523 405.631 L935.782 405.631 L935.782 431.556 L931.523 431.556 L931.523 405.631 M931.523 395.538 L935.782 395.538 L935.782 400.932 L931.523 400.932 L931.523 395.538 Z" fill="#000000" fill-rule="nonzero" fill-opacity="1" /><path clip-path="url(#clip410)" d="M948.815 427.667 L948.815 441.417 L944.532 441.417 L944.532 405.631 L948.815 405.631 L948.815 409.566 Q950.157 407.251 952.194 406.14 Q954.255 405.006 957.102 405.006 Q961.824 405.006 964.764 408.756 Q967.727 412.506 967.727 418.617 Q967.727 424.728 964.764 428.478 Q961.824 432.228 957.102 432.228 Q954.255 432.228 952.194 431.117 Q950.157 429.982 948.815 427.667 M963.305 418.617 Q963.305 413.918 961.361 411.256 Q959.44 408.57 956.06 408.57 Q952.681 408.57 950.736 411.256 Q948.815 413.918 948.815 418.617 Q948.815 423.316 950.736 426.001 Q952.681 428.663 956.06 428.663 Q959.44 428.663 961.361 426.001 Q963.305 423.316 963.305 418.617 Z" fill="#000000" fill-rule="nonzero" fill-opacity="1" /><path clip-path="url(#clip410)" d="M984.833 408.617 Q981.407 408.617 979.416 411.302 Q977.426 413.964 977.426 418.617 Q977.426 423.269 979.393 425.955 Q981.384 428.617 984.833 428.617 Q988.236 428.617 990.227 425.931 Q992.217 423.246 992.217 418.617 Q992.217 414.01 990.227 411.325 Q988.236 408.617 984.833 408.617 M984.833 405.006 Q990.389 405.006 993.56 408.617 Q996.731 412.228 996.731 418.617 Q996.731 424.982 993.56 428.617 Q990.389 432.228 984.833 432.228 Q979.254 432.228 976.083 428.617 Q972.935 424.982 972.935 418.617 Q972.935 412.228 976.083 408.617 Q979.254 405.006 984.833 405.006 Z" fill="#000000" fill-rule="nonzero" fill-opacity="1" /><path clip-path="url(#clip410)" d="M1007.91 427.667 L1007.91 441.417 L1003.63 441.417 L1003.63 405.631 L1007.91 405.631 L1007.91 409.566 Q1009.25 407.251 1011.29 406.14 Q1013.35 405.006 1016.2 405.006 Q1020.92 405.006 1023.86 408.756 Q1026.82 412.506 1026.82 418.617 Q1026.82 424.728 1023.86 428.478 Q1020.92 432.228 1016.2 432.228 Q1013.35 432.228 1011.29 431.117 Q1009.25 429.982 1007.91 427.667 M1022.4 418.617 Q1022.4 413.918 1020.46 411.256 Q1018.54 408.57 1015.16 408.57 Q1011.78 408.57 1009.83 411.256 Q1007.91 413.918 1007.91 418.617 Q1007.91 423.316 1009.83 426.001 Q1011.78 428.663 1015.16 428.663 Q1018.54 428.663 1020.46 426.001 Q1022.4 423.316 1022.4 418.617 Z" fill="#000000" fill-rule="nonzero" fill-opacity="1" /><path clip-path="url(#clip410)" d="M1038.1 398.27 L1038.1 405.631 L1046.87 405.631 L1046.87 408.941 L1038.1 408.941 L1038.1 423.015 Q1038.1 426.186 1038.95 427.089 Q1039.83 427.992 1042.49 427.992 L1046.87 427.992 L1046.87 431.556 L1042.49 431.556 Q1037.56 431.556 1035.69 429.728 Q1033.81 427.876 1033.81 423.015 L1033.81 408.941 L1030.69 408.941 L1030.69 405.631 L1033.81 405.631 L1033.81 398.27 L1038.1 398.27 Z" fill="#000000" fill-rule="nonzero" fill-opacity="1" /><path clip-path="url(#clip410)" d="M1051.8 395.584 L1055.5 395.584 Q1058.98 401.047 1060.69 406.279 Q1062.43 411.51 1062.43 416.672 Q1062.43 421.857 1060.69 427.112 Q1058.98 432.367 1055.5 437.806 L1051.8 437.806 Q1054.88 432.505 1056.38 427.274 Q1057.91 422.019 1057.91 416.672 Q1057.91 411.325 1056.38 406.117 Q1054.88 400.908 1051.8 395.584 Z" fill="#000000" fill-rule="nonzero" fill-opacity="1" /><path clip-path="url(#clip410)" d="M582.533 440.516 L582.533 491.716 L633.733 491.716 L633.733 440.516 L582.533 440.516 Z" fill="#ff6347" fill-rule="evenodd" fill-opacity="1" stroke="none"/>
<path clip-path="url(#clip410)" d="M760.668 447.424 Q757.566 452.748 756.061 457.957 Q754.557 463.165 754.557 468.512 Q754.557 473.859 756.061 479.114 Q757.589 484.345 760.668 489.646 L756.964 489.646 Q753.492 484.207 751.756 478.952 Q750.043 473.697 750.043 468.512 Q750.043 463.35 751.756 458.119 Q753.469 452.887 756.964 447.424 L760.668 447.424 Z" fill="#000000" fill-rule="nonzero" fill-opacity="1" /><path clip-path="url(#clip410)" d="M791.107 469.369 L791.107 471.452 L771.524 471.452 Q771.802 475.85 774.163 478.165 Q776.547 480.457 780.783 480.457 Q783.237 480.457 785.529 479.855 Q787.843 479.253 790.112 478.049 L790.112 482.077 Q787.82 483.049 785.413 483.558 Q783.005 484.068 780.529 484.068 Q774.325 484.068 770.691 480.457 Q767.08 476.845 767.08 470.688 Q767.08 464.322 770.506 460.596 Q773.955 456.846 779.788 456.846 Q785.019 456.846 788.052 460.225 Q791.107 463.582 791.107 469.369 M786.848 468.119 Q786.802 464.623 784.88 462.54 Q782.982 460.457 779.834 460.457 Q776.269 460.457 774.117 462.471 Q771.987 464.484 771.663 468.142 L786.848 468.119 Z" fill="#000000" fill-rule="nonzero" fill-opacity="1" /><path clip-path="url(#clip410)" d="M818.815 457.471 L809.441 470.086 L819.302 483.396 L814.278 483.396 L806.732 473.211 L799.186 483.396 L794.163 483.396 L804.232 469.832 L795.019 457.471 L800.042 457.471 L806.917 466.707 L813.792 457.471 L818.815 457.471 Z" fill="#000000" fill-rule="nonzero" fill-opacity="1" /><path clip-path="url(#clip410)" d="M837.102 470.364 Q831.94 470.364 829.95 471.545 Q827.959 472.725 827.959 475.572 Q827.959 477.841 829.44 479.183 Q830.945 480.503 833.514 480.503 Q837.056 480.503 839.186 478.003 Q841.339 475.48 841.339 471.313 L841.339 470.364 L837.102 470.364 M845.598 468.605 L845.598 483.396 L841.339 483.396 L841.339 479.461 Q839.88 481.822 837.704 482.957 Q835.528 484.068 832.38 484.068 Q828.399 484.068 826.038 481.845 Q823.7 479.6 823.7 475.85 Q823.7 471.475 826.616 469.253 Q829.556 467.031 835.366 467.031 L841.339 467.031 L841.339 466.614 Q841.339 463.674 839.394 462.077 Q837.473 460.457 833.977 460.457 Q831.755 460.457 829.649 460.989 Q827.542 461.521 825.598 462.586 L825.598 458.651 Q827.936 457.748 830.135 457.309 Q832.334 456.846 834.417 456.846 Q840.042 456.846 842.82 459.762 Q845.598 462.679 845.598 468.605 Z" fill="#000000" fill-rule="nonzero" fill-opacity="1" /><path clip-path="url(#clip410)" d="M855.459 477.517 L860.343 477.517 L860.343 481.498 L856.547 488.906 L853.561 488.906 L855.459 481.498 L855.459 477.517 Z" fill="#000000" fill-rule="nonzero" fill-opacity="1" /><path clip-path="url(#clip410)" d="M884.51 457.471 L888.769 457.471 L888.769 483.396 L884.51 483.396 L884.51 457.471 M884.51 447.378 L888.769 447.378 L888.769 452.772 L884.51 452.772 L884.51 447.378 Z" fill="#000000" fill-rule="nonzero" fill-opacity="1" /><path clip-path="url(#clip410)" d="M901.801 479.507 L901.801 493.257 L897.519 493.257 L897.519 457.471 L901.801 457.471 L901.801 461.406 Q903.144 459.091 905.181 457.98 Q907.241 456.846 910.088 456.846 Q914.81 456.846 917.75 460.596 Q920.713 464.346 920.713 470.457 Q920.713 476.568 917.75 480.318 Q914.81 484.068 910.088 484.068 Q907.241 484.068 905.181 482.957 Q903.144 481.822 901.801 479.507 M916.292 470.457 Q916.292 465.758 914.347 463.096 Q912.426 460.41 909.046 460.41 Q905.667 460.41 903.722 463.096 Q901.801 465.758 901.801 470.457 Q901.801 475.156 903.722 477.841 Q905.667 480.503 909.046 480.503 Q912.426 480.503 914.347 477.841 Q916.292 475.156 916.292 470.457 Z" fill="#000000" fill-rule="nonzero" fill-opacity="1" /><path clip-path="url(#clip410)" d="M937.819 460.457 Q934.394 460.457 932.403 463.142 Q930.412 465.804 930.412 470.457 Q930.412 475.109 932.38 477.795 Q934.37 480.457 937.819 480.457 Q941.222 480.457 943.213 477.771 Q945.204 475.086 945.204 470.457 Q945.204 465.85 943.213 463.165 Q941.222 460.457 937.819 460.457 M937.819 456.846 Q943.375 456.846 946.546 460.457 Q949.718 464.068 949.718 470.457 Q949.718 476.822 946.546 480.457 Q943.375 484.068 937.819 484.068 Q932.241 484.068 929.07 480.457 Q925.921 476.822 925.921 470.457 Q925.921 464.068 929.07 460.457 Q932.241 456.846 937.819 456.846 Z" fill="#000000" fill-rule="nonzero" fill-opacity="1" /><path clip-path="url(#clip410)" d="M960.898 479.507 L960.898 493.257 L956.616 493.257 L956.616 457.471 L960.898 457.471 L960.898 461.406 Q962.241 459.091 964.278 457.98 Q966.338 456.846 969.185 456.846 Q973.907 456.846 976.847 460.596 Q979.81 464.346 979.81 470.457 Q979.81 476.568 976.847 480.318 Q973.907 484.068 969.185 484.068 Q966.338 484.068 964.278 482.957 Q962.241 481.822 960.898 479.507 M975.389 470.457 Q975.389 465.758 973.444 463.096 Q971.523 460.41 968.143 460.41 Q964.764 460.41 962.819 463.096 Q960.898 465.758 960.898 470.457 Q960.898 475.156 962.819 477.841 Q964.764 480.503 968.143 480.503 Q971.523 480.503 973.444 477.841 Q975.389 475.156 975.389 470.457 Z" fill="#000000" fill-rule="nonzero" fill-opacity="1" /><path clip-path="url(#clip410)" d="M991.083 450.11 L991.083 457.471 L999.856 457.471 L999.856 460.781 L991.083 460.781 L991.083 474.855 Q991.083 478.026 991.94 478.929 Q992.819 479.832 995.481 479.832 L999.856 479.832 L999.856 483.396 L995.481 483.396 Q990.551 483.396 988.676 481.568 Q986.801 479.716 986.801 474.855 L986.801 460.781 L983.676 460.781 L983.676 457.471 L986.801 457.471 L986.801 450.11 L991.083 450.11 Z" fill="#000000" fill-rule="nonzero" fill-opacity="1" /><path clip-path="url(#clip410)" d="M1004.79 447.424 L1008.49 447.424 Q1011.96 452.887 1013.68 458.119 Q1015.41 463.35 1015.41 468.512 Q1015.41 473.697 1013.68 478.952 Q1011.96 484.207 1008.49 489.646 L1004.79 489.646 Q1007.87 484.345 1009.37 479.114 Q1010.9 473.859 1010.9 468.512 Q1010.9 463.165 1009.37 457.957 Q1007.87 452.748 1004.79 447.424 Z" fill="#000000" fill-rule="nonzero" fill-opacity="1" /><path clip-path="url(#clip410)" d="M608.133 492.356 L602.117 509.662 L583.788 510.046 L598.405 521.131 L593.08 538.667 L608.133 528.196 L623.186 538.667 L617.861 521.131 L632.479 510.046 L614.149 509.662 L608.133 492.356 Z" fill="#a0522d" fill-rule="evenodd" fill-opacity="1" stroke="none"/>
<path clip-path="url(#clip410)" d="M760.668 499.264 Q757.566 504.588 756.061 509.797 Q754.557 515.005 754.557 520.352 Q754.557 525.699 756.061 530.954 Q757.589 536.185 760.668 541.486 L756.964 541.486 Q753.492 536.047 751.756 530.792 Q750.043 525.537 750.043 520.352 Q750.043 515.19 751.756 509.959 Q753.469 504.727 756.964 499.264 L760.668 499.264 Z" fill="#000000" fill-rule="nonzero" fill-opacity="1" /><path clip-path="url(#clip410)" d="M768.931 509.311 L773.191 509.311 L773.191 535.699 Q773.191 540.653 771.293 542.875 Q769.418 545.097 765.228 545.097 L763.607 545.097 L763.607 541.486 L764.742 541.486 Q767.172 541.486 768.052 540.352 Q768.931 539.241 768.931 535.699 L768.931 509.311 M768.931 499.218 L773.191 499.218 L773.191 504.612 L768.931 504.612 L768.931 499.218 Z" fill="#000000" fill-rule="nonzero" fill-opacity="1" /><path clip-path="url(#clip410)" d="M781.663 525.005 L781.663 509.311 L785.922 509.311 L785.922 524.843 Q785.922 528.523 787.357 530.375 Q788.792 532.204 791.663 532.204 Q795.112 532.204 797.103 530.005 Q799.117 527.806 799.117 524.01 L799.117 509.311 L803.376 509.311 L803.376 535.236 L799.117 535.236 L799.117 531.255 Q797.566 533.616 795.505 534.773 Q793.468 535.908 790.76 535.908 Q786.293 535.908 783.978 533.13 Q781.663 530.352 781.663 525.005 M792.38 508.686 L792.38 508.686 Z" fill="#000000" fill-rule="nonzero" fill-opacity="1" /><path clip-path="url(#clip410)" d="M832.334 514.287 Q833.931 511.417 836.153 510.051 Q838.376 508.686 841.385 508.686 Q845.436 508.686 847.635 511.533 Q849.834 514.357 849.834 519.588 L849.834 535.236 L845.551 535.236 L845.551 519.727 Q845.551 516 844.232 514.195 Q842.913 512.389 840.204 512.389 Q836.894 512.389 834.973 514.588 Q833.052 516.787 833.052 520.584 L833.052 535.236 L828.769 535.236 L828.769 519.727 Q828.769 515.977 827.45 514.195 Q826.13 512.389 823.376 512.389 Q820.112 512.389 818.19 514.611 Q816.269 516.811 816.269 520.584 L816.269 535.236 L811.987 535.236 L811.987 509.311 L816.269 509.311 L816.269 513.338 Q817.728 510.954 819.765 509.82 Q821.802 508.686 824.602 508.686 Q827.427 508.686 829.394 510.121 Q831.385 511.556 832.334 514.287 Z" fill="#000000" fill-rule="nonzero" fill-opacity="1" /><path clip-path="url(#clip410)" d="M862.45 531.347 L862.45 545.097 L858.167 545.097 L858.167 509.311 L862.45 509.311 L862.45 513.246 Q863.792 510.931 865.829 509.82 Q867.889 508.686 870.736 508.686 Q875.459 508.686 878.398 512.436 Q881.361 516.186 881.361 522.297 Q881.361 528.408 878.398 532.158 Q875.459 535.908 870.736 535.908 Q867.889 535.908 865.829 534.797 Q863.792 533.662 862.45 531.347 M876.94 522.297 Q876.94 517.598 874.996 514.936 Q873.074 512.25 869.695 512.25 Q866.315 512.25 864.371 514.936 Q862.45 517.598 862.45 522.297 Q862.45 526.996 864.371 529.681 Q866.315 532.343 869.695 532.343 Q873.074 532.343 874.996 529.681 Q876.94 526.996 876.94 522.297 Z" fill="#000000" fill-rule="nonzero" fill-opacity="1" /><path clip-path="url(#clip410)" d="M889.51 529.357 L894.394 529.357 L894.394 533.338 L890.598 540.746 L887.611 540.746 L889.51 533.338 L889.51 529.357 Z" fill="#000000" fill-rule="nonzero" fill-opacity="1" /><path clip-path="url(#clip410)" d="M938.745 514.287 Q940.343 511.417 942.565 510.051 Q944.787 508.686 947.796 508.686 Q951.847 508.686 954.046 511.533 Q956.245 514.357 956.245 519.588 L956.245 535.236 L951.963 535.236 L951.963 519.727 Q951.963 516 950.643 514.195 Q949.324 512.389 946.616 512.389 Q943.306 512.389 941.384 514.588 Q939.463 516.787 939.463 520.584 L939.463 535.236 L935.181 535.236 L935.181 519.727 Q935.181 515.977 933.861 514.195 Q932.542 512.389 929.787 512.389 Q926.523 512.389 924.602 514.611 Q922.681 516.811 922.681 520.584 L922.681 535.236 L918.398 535.236 L918.398 509.311 L922.681 509.311 L922.681 513.338 Q924.139 510.954 926.176 509.82 Q928.213 508.686 931.014 508.686 Q933.838 508.686 935.806 510.121 Q937.796 511.556 938.745 514.287 Z" fill="#000000" fill-rule="nonzero" fill-opacity="1" /><path clip-path="url(#clip410)" d="M976.523 522.204 Q971.361 522.204 969.37 523.385 Q967.379 524.565 967.379 527.412 Q967.379 529.681 968.861 531.023 Q970.366 532.343 972.935 532.343 Q976.477 532.343 978.606 529.843 Q980.759 527.32 980.759 523.153 L980.759 522.204 L976.523 522.204 M985.018 520.445 L985.018 535.236 L980.759 535.236 L980.759 531.301 Q979.301 533.662 977.125 534.797 Q974.949 535.908 971.801 535.908 Q967.819 535.908 965.458 533.685 Q963.12 531.44 963.12 527.69 Q963.12 523.315 966.037 521.093 Q968.977 518.871 974.787 518.871 L980.759 518.871 L980.759 518.454 Q980.759 515.514 978.815 513.917 Q976.893 512.297 973.398 512.297 Q971.176 512.297 969.069 512.829 Q966.963 513.361 965.018 514.426 L965.018 510.491 Q967.356 509.588 969.555 509.149 Q971.754 508.686 973.838 508.686 Q979.463 508.686 982.241 511.602 Q985.018 514.519 985.018 520.445 Z" fill="#000000" fill-rule="nonzero" fill-opacity="1" /><path clip-path="url(#clip410)" d="M1010.85 513.246 L1010.85 499.218 L1015.11 499.218 L1015.11 535.236 L1010.85 535.236 L1010.85 531.347 Q1009.51 533.662 1007.45 534.797 Q1005.41 535.908 1002.54 535.908 Q997.842 535.908 994.879 532.158 Q991.94 528.408 991.94 522.297 Q991.94 516.186 994.879 512.436 Q997.842 508.686 1002.54 508.686 Q1005.41 508.686 1007.45 509.82 Q1009.51 510.931 1010.85 513.246 M996.338 522.297 Q996.338 526.996 998.259 529.681 Q1000.2 532.343 1003.58 532.343 Q1006.96 532.343 1008.91 529.681 Q1010.85 526.996 1010.85 522.297 Q1010.85 517.598 1008.91 514.936 Q1006.96 512.25 1003.58 512.25 Q1000.2 512.25 998.259 514.936 Q996.338 517.598 996.338 522.297 Z" fill="#000000" fill-rule="nonzero" fill-opacity="1" /><path clip-path="url(#clip410)" d="M1045.43 519.588 L1045.43 535.236 L1041.18 535.236 L1041.18 519.727 Q1041.18 516.047 1039.74 514.218 Q1038.31 512.389 1035.43 512.389 Q1031.99 512.389 1029.99 514.588 Q1028 516.787 1028 520.584 L1028 535.236 L1023.72 535.236 L1023.72 509.311 L1028 509.311 L1028 513.338 Q1029.53 511 1031.59 509.843 Q1033.68 508.686 1036.38 508.686 Q1040.85 508.686 1043.14 511.463 Q1045.43 514.218 1045.43 519.588 Z" fill="#000000" fill-rule="nonzero" fill-opacity="1" /><path clip-path="url(#clip410)" d="M1053.93 499.218 L1058.19 499.218 L1058.19 535.236 L1053.93 535.236 L1053.93 499.218 Z" fill="#000000" fill-rule="nonzero" fill-opacity="1" /><path clip-path="url(#clip410)" d="M1071.22 531.347 L1071.22 545.097 L1066.94 545.097 L1066.94 509.311 L1071.22 509.311 L1071.22 513.246 Q1072.56 510.931 1074.6 509.82 Q1076.66 508.686 1079.51 508.686 Q1084.23 508.686 1087.17 512.436 Q1090.13 516.186 1090.13 522.297 Q1090.13 528.408 1087.17 532.158 Q1084.23 535.908 1079.51 535.908 Q1076.66 535.908 1074.6 534.797 Q1072.56 533.662 1071.22 531.347 M1085.71 522.297 Q1085.71 517.598 1083.77 514.936 Q1081.85 512.25 1078.47 512.25 Q1075.09 512.25 1073.14 514.936 Q1071.22 517.598 1071.22 522.297 Q1071.22 526.996 1073.14 529.681 Q1075.09 532.343 1078.47 532.343 Q1081.85 532.343 1083.77 529.681 Q1085.71 526.996 1085.71 522.297 Z" fill="#000000" fill-rule="nonzero" fill-opacity="1" /><path clip-path="url(#clip410)" d="M1096.52 499.264 L1100.23 499.264 Q1103.7 504.727 1105.41 509.959 Q1107.15 515.19 1107.15 520.352 Q1107.15 525.537 1105.41 530.792 Q1103.7 536.047 1100.23 541.486 L1096.52 541.486 Q1099.6 536.185 1101.11 530.954 Q1102.63 525.699 1102.63 520.352 Q1102.63 515.005 1101.11 509.797 Q1099.6 504.588 1096.52 499.264 Z" fill="#000000" fill-rule="nonzero" fill-opacity="1" /><path clip-path="url(#clip410)" d="M608.133 544.196 L582.533 569.796 L608.133 595.396 L633.733 569.796 L608.133 544.196 Z" fill="#2e8b57" fill-rule="evenodd" fill-opacity="1" stroke="none"/>
<path clip-path="url(#clip410)" d="M760.668 551.104 Q757.566 556.428 756.061 561.637 Q754.557 566.845 754.557 572.192 Q754.557 577.539 756.061 582.794 Q757.589 588.025 760.668 593.326 L756.964 593.326 Q753.492 587.887 751.756 582.632 Q750.043 577.377 750.043 572.192 Q750.043 567.03 751.756 561.799 Q753.469 556.567 756.964 551.104 L760.668 551.104 Z" fill="#000000" fill-rule="nonzero" fill-opacity="1" /><path clip-path="url(#clip410)" d="M780.714 574.044 Q775.552 574.044 773.561 575.225 Q771.57 576.405 771.57 579.252 Q771.57 581.521 773.052 582.863 Q774.556 584.183 777.126 584.183 Q780.668 584.183 782.797 581.683 Q784.95 579.16 784.95 574.993 L784.95 574.044 L780.714 574.044 M789.209 572.285 L789.209 587.076 L784.95 587.076 L784.95 583.141 Q783.492 585.502 781.316 586.637 Q779.14 587.748 775.992 587.748 Q772.01 587.748 769.649 585.525 Q767.311 583.28 767.311 579.53 Q767.311 575.155 770.228 572.933 Q773.168 570.711 778.978 570.711 L784.95 570.711 L784.95 570.294 Q784.95 567.354 783.005 565.757 Q781.084 564.137 777.589 564.137 Q775.367 564.137 773.26 564.669 Q771.154 565.201 769.209 566.266 L769.209 562.331 Q771.547 561.428 773.746 560.989 Q775.945 560.526 778.029 560.526 Q783.654 560.526 786.431 563.442 Q789.209 566.359 789.209 572.285 Z" fill="#000000" fill-rule="nonzero" fill-opacity="1" /><path clip-path="url(#clip410)" d="M815.042 565.086 L815.042 551.058 L819.302 551.058 L819.302 587.076 L815.042 587.076 L815.042 583.187 Q813.7 585.502 811.64 586.637 Q809.603 587.748 806.732 587.748 Q802.033 587.748 799.07 583.998 Q796.13 580.248 796.13 574.137 Q796.13 568.026 799.07 564.276 Q802.033 560.526 806.732 560.526 Q809.603 560.526 811.64 561.66 Q813.7 562.771 815.042 565.086 M800.529 574.137 Q800.529 578.836 802.45 581.521 Q804.394 584.183 807.774 584.183 Q811.153 584.183 813.098 581.521 Q815.042 578.836 815.042 574.137 Q815.042 569.438 813.098 566.776 Q811.153 564.09 807.774 564.09 Q804.394 564.09 802.45 566.776 Q800.529 569.438 800.529 574.137 Z" fill="#000000" fill-rule="nonzero" fill-opacity="1" /><path clip-path="url(#clip410)" d="M849.625 571.428 L849.625 587.076 L845.366 587.076 L845.366 571.567 Q845.366 567.887 843.931 566.058 Q842.496 564.229 839.626 564.229 Q836.176 564.229 834.186 566.428 Q832.195 568.627 832.195 572.424 L832.195 587.076 L827.913 587.076 L827.913 561.151 L832.195 561.151 L832.195 565.178 Q833.723 562.84 835.783 561.683 Q837.866 560.526 840.575 560.526 Q845.042 560.526 847.334 563.303 Q849.625 566.058 849.625 571.428 Z" fill="#000000" fill-rule="nonzero" fill-opacity="1" /><path clip-path="url(#clip410)" d="M858.121 551.058 L862.38 551.058 L862.38 587.076 L858.121 587.076 L858.121 551.058 Z" fill="#000000" fill-rule="nonzero" fill-opacity="1" /><path clip-path="url(#clip410)" d="M875.412 583.187 L875.412 596.937 L871.13 596.937 L871.13 561.151 L875.412 561.151 L875.412 565.086 Q876.755 562.771 878.792 561.66 Q880.852 560.526 883.699 560.526 Q888.422 560.526 891.361 564.276 Q894.324 568.026 894.324 574.137 Q894.324 580.248 891.361 583.998 Q888.422 587.748 883.699 587.748 Q880.852 587.748 878.792 586.637 Q876.755 585.502 875.412 583.187 M889.903 574.137 Q889.903 569.438 887.959 566.776 Q886.037 564.09 882.658 564.09 Q879.278 564.09 877.334 566.776 Q875.412 569.438 875.412 574.137 Q875.412 578.836 877.334 581.521 Q879.278 584.183 882.658 584.183 Q886.037 584.183 887.959 581.521 Q889.903 578.836 889.903 574.137 Z" fill="#000000" fill-rule="nonzero" fill-opacity="1" /><path clip-path="url(#clip410)" d="M902.472 581.197 L907.357 581.197 L907.357 585.178 L903.56 592.586 L900.574 592.586 L902.472 585.178 L902.472 581.197 Z" fill="#000000" fill-rule="nonzero" fill-opacity="1" /><path clip-path="url(#clip410)" d="M951.708 566.127 Q953.305 563.257 955.528 561.891 Q957.75 560.526 960.759 560.526 Q964.81 560.526 967.009 563.373 Q969.208 566.197 969.208 571.428 L969.208 587.076 L964.926 587.076 L964.926 571.567 Q964.926 567.84 963.606 566.035 Q962.287 564.229 959.579 564.229 Q956.268 564.229 954.347 566.428 Q952.426 568.627 952.426 572.424 L952.426 587.076 L948.143 587.076 L948.143 571.567 Q948.143 567.817 946.824 566.035 Q945.505 564.229 942.75 564.229 Q939.486 564.229 937.565 566.451 Q935.644 568.651 935.644 572.424 L935.644 587.076 L931.361 587.076 L931.361 561.151 L935.644 561.151 L935.644 565.178 Q937.102 562.794 939.139 561.66 Q941.176 560.526 943.977 560.526 Q946.801 560.526 948.768 561.961 Q950.759 563.396 951.708 566.127 Z" fill="#000000" fill-rule="nonzero" fill-opacity="1" /><path clip-path="url(#clip410)" d="M989.486 574.044 Q984.324 574.044 982.333 575.225 Q980.342 576.405 980.342 579.252 Q980.342 581.521 981.824 582.863 Q983.328 584.183 985.898 584.183 Q989.44 584.183 991.569 581.683 Q993.722 579.16 993.722 574.993 L993.722 574.044 L989.486 574.044 M997.981 572.285 L997.981 587.076 L993.722 587.076 L993.722 583.141 Q992.264 585.502 990.088 586.637 Q987.912 587.748 984.764 587.748 Q980.782 587.748 978.421 585.525 Q976.083 583.28 976.083 579.53 Q976.083 575.155 979 572.933 Q981.94 570.711 987.75 570.711 L993.722 570.711 L993.722 570.294 Q993.722 567.354 991.778 565.757 Q989.856 564.137 986.361 564.137 Q984.139 564.137 982.032 564.669 Q979.926 565.201 977.981 566.266 L977.981 562.331 Q980.319 561.428 982.518 560.989 Q984.717 560.526 986.801 560.526 Q992.426 560.526 995.203 563.442 Q997.981 566.359 997.981 572.285 Z" fill="#000000" fill-rule="nonzero" fill-opacity="1" /><path clip-path="url(#clip410)" d="M1023.81 565.086 L1023.81 551.058 L1028.07 551.058 L1028.07 587.076 L1023.81 587.076 L1023.81 583.187 Q1022.47 585.502 1020.41 586.637 Q1018.37 587.748 1015.5 587.748 Q1010.81 587.748 1007.84 583.998 Q1004.9 580.248 1004.9 574.137 Q1004.9 568.026 1007.84 564.276 Q1010.81 560.526 1015.5 560.526 Q1018.37 560.526 1020.41 561.66 Q1022.47 562.771 1023.81 565.086 M1009.3 574.137 Q1009.3 578.836 1011.22 581.521 Q1013.17 584.183 1016.55 584.183 Q1019.93 584.183 1021.87 581.521 Q1023.81 578.836 1023.81 574.137 Q1023.81 569.438 1021.87 566.776 Q1019.93 564.09 1016.55 564.09 Q1013.17 564.09 1011.22 566.776 Q1009.3 569.438 1009.3 574.137 Z" fill="#000000" fill-rule="nonzero" fill-opacity="1" /><path clip-path="url(#clip410)" d="M1058.4 571.428 L1058.4 587.076 L1054.14 587.076 L1054.14 571.567 Q1054.14 567.887 1052.7 566.058 Q1051.27 564.229 1048.4 564.229 Q1044.95 564.229 1042.96 566.428 Q1040.97 568.627 1040.97 572.424 L1040.97 587.076 L1036.68 587.076 L1036.68 561.151 L1040.97 561.151 L1040.97 565.178 Q1042.49 562.84 1044.56 561.683 Q1046.64 560.526 1049.35 560.526 Q1053.81 560.526 1056.11 563.303 Q1058.4 566.058 1058.4 571.428 Z" fill="#000000" fill-rule="nonzero" fill-opacity="1" /><path clip-path="url(#clip410)" d="M1066.89 551.058 L1071.15 551.058 L1071.15 587.076 L1066.89 587.076 L1066.89 551.058 Z" fill="#000000" fill-rule="nonzero" fill-opacity="1" /><path clip-path="url(#clip410)" d="M1084.18 583.187 L1084.18 596.937 L1079.9 596.937 L1079.9 561.151 L1084.18 561.151 L1084.18 565.086 Q1085.53 562.771 1087.56 561.66 Q1089.62 560.526 1092.47 560.526 Q1097.19 560.526 1100.13 564.276 Q1103.1 568.026 1103.1 574.137 Q1103.1 580.248 1100.13 583.998 Q1097.19 587.748 1092.47 587.748 Q1089.62 587.748 1087.56 586.637 Q1085.53 585.502 1084.18 583.187 M1098.68 574.137 Q1098.68 569.438 1096.73 566.776 Q1094.81 564.09 1091.43 564.09 Q1088.05 564.09 1086.11 566.776 Q1084.18 569.438 1084.18 574.137 Q1084.18 578.836 1086.11 581.521 Q1088.05 584.183 1091.43 584.183 Q1094.81 584.183 1096.73 581.521 Q1098.68 578.836 1098.68 574.137 Z" fill="#000000" fill-rule="nonzero" fill-opacity="1" /><path clip-path="url(#clip410)" d="M1109.49 551.104 L1113.19 551.104 Q1116.66 556.567 1118.37 561.799 Q1120.11 567.03 1120.11 572.192 Q1120.11 577.377 1118.37 582.632 Q1116.66 587.887 1113.19 593.326 L1109.49 593.326 Q1112.56 588.025 1114.07 582.794 Q1115.6 577.539 1115.6 572.192 Q1115.6 566.845 1114.07 561.637 Q1112.56 556.428 1109.49 551.104 Z" fill="#000000" fill-rule="nonzero" fill-opacity="1" /><path clip-path="url(#clip410)" d="M608.133 596.036 L582.533 647.236 L633.733 647.236 L608.133 596.036 Z" fill="#ff8c00" fill-rule="evenodd" fill-opacity="1" stroke="none"/>
<path clip-path="url(#clip410)" d="M760.668 602.944 Q757.566 608.268 756.061 613.477 Q754.557 618.685 754.557 624.032 Q754.557 629.379 756.061 634.634 Q757.589 639.865 760.668 645.166 L756.964 645.166 Q753.492 639.727 751.756 634.472 Q750.043 629.217 750.043 624.032 Q750.043 618.87 751.756 613.639 Q753.469 608.407 756.964 602.944 L760.668 602.944 Z" fill="#000000" fill-rule="nonzero" fill-opacity="1" /><path clip-path="url(#clip410)" d="M791.107 624.889 L791.107 626.972 L771.524 626.972 Q771.802 631.37 774.163 633.685 Q776.547 635.977 780.783 635.977 Q783.237 635.977 785.529 635.375 Q787.843 634.773 790.112 633.569 L790.112 637.597 Q787.82 638.569 785.413 639.078 Q783.005 639.588 780.529 639.588 Q774.325 639.588 770.691 635.977 Q767.08 632.365 767.08 626.208 Q767.08 619.842 770.506 616.116 Q773.955 612.366 779.788 612.366 Q785.019 612.366 788.052 615.745 Q791.107 619.102 791.107 624.889 M786.848 623.639 Q786.802 620.143 784.88 618.06 Q782.982 615.977 779.834 615.977 Q776.269 615.977 774.117 617.991 Q771.987 620.004 771.663 623.662 L786.848 623.639 Z" fill="#000000" fill-rule="nonzero" fill-opacity="1" /><path clip-path="url(#clip410)" d="M818.815 612.991 L809.441 625.606 L819.302 638.916 L814.278 638.916 L806.732 628.731 L799.186 638.916 L794.163 638.916 L804.232 625.352 L795.019 612.991 L800.042 612.991 L806.917 622.227 L813.792 612.991 L818.815 612.991 Z" fill="#000000" fill-rule="nonzero" fill-opacity="1" /><path clip-path="url(#clip410)" d="M837.102 625.884 Q831.94 625.884 829.95 627.065 Q827.959 628.245 827.959 631.092 Q827.959 633.361 829.44 634.703 Q830.945 636.023 833.514 636.023 Q837.056 636.023 839.186 633.523 Q841.339 631 841.339 626.833 L841.339 625.884 L837.102 625.884 M845.598 624.125 L845.598 638.916 L841.339 638.916 L841.339 634.981 Q839.88 637.342 837.704 638.477 Q835.528 639.588 832.38 639.588 Q828.399 639.588 826.038 637.365 Q823.7 635.12 823.7 631.37 Q823.7 626.995 826.616 624.773 Q829.556 622.551 835.366 622.551 L841.339 622.551 L841.339 622.134 Q841.339 619.194 839.394 617.597 Q837.473 615.977 833.977 615.977 Q831.755 615.977 829.649 616.509 Q827.542 617.041 825.598 618.106 L825.598 614.171 Q827.936 613.268 830.135 612.829 Q832.334 612.366 834.417 612.366 Q840.042 612.366 842.82 615.282 Q845.598 618.199 845.598 624.125 Z" fill="#000000" fill-rule="nonzero" fill-opacity="1" /><path clip-path="url(#clip410)" d="M855.459 633.037 L860.343 633.037 L860.343 637.018 L856.547 644.426 L853.561 644.426 L855.459 637.018 L855.459 633.037 Z" fill="#000000" fill-rule="nonzero" fill-opacity="1" /><path clip-path="url(#clip410)" d="M904.695 617.967 Q906.292 615.097 908.514 613.731 Q910.736 612.366 913.746 612.366 Q917.796 612.366 919.995 615.213 Q922.195 618.037 922.195 623.268 L922.195 638.916 L917.912 638.916 L917.912 623.407 Q917.912 619.68 916.593 617.875 Q915.273 616.069 912.565 616.069 Q909.255 616.069 907.334 618.268 Q905.412 620.467 905.412 624.264 L905.412 638.916 L901.13 638.916 L901.13 623.407 Q901.13 619.657 899.81 617.875 Q898.491 616.069 895.736 616.069 Q892.472 616.069 890.551 618.291 Q888.63 620.491 888.63 624.264 L888.63 638.916 L884.348 638.916 L884.348 612.991 L888.63 612.991 L888.63 617.018 Q890.088 614.634 892.125 613.5 Q894.162 612.366 896.963 612.366 Q899.787 612.366 901.755 613.801 Q903.746 615.236 904.695 617.967 Z" fill="#000000" fill-rule="nonzero" fill-opacity="1" /><path clip-path="url(#clip410)" d="M942.472 625.884 Q937.31 625.884 935.319 627.065 Q933.329 628.245 933.329 631.092 Q933.329 633.361 934.81 634.703 Q936.315 636.023 938.884 636.023 Q942.426 636.023 944.556 633.523 Q946.708 631 946.708 626.833 L946.708 625.884 L942.472 625.884 M950.968 624.125 L950.968 638.916 L946.708 638.916 L946.708 634.981 Q945.25 637.342 943.074 638.477 Q940.898 639.588 937.75 639.588 Q933.769 639.588 931.407 637.365 Q929.07 635.12 929.07 631.37 Q929.07 626.995 931.986 624.773 Q934.926 622.551 940.736 622.551 L946.708 622.551 L946.708 622.134 Q946.708 619.194 944.764 617.597 Q942.843 615.977 939.347 615.977 Q937.125 615.977 935.019 616.509 Q932.912 617.041 930.968 618.106 L930.968 614.171 Q933.306 613.268 935.505 612.829 Q937.704 612.366 939.787 612.366 Q945.412 612.366 948.19 615.282 Q950.968 618.199 950.968 624.125 Z" fill="#000000" fill-rule="nonzero" fill-opacity="1" /><path clip-path="url(#clip410)" d="M976.801 616.926 L976.801 602.898 L981.06 602.898 L981.06 638.916 L976.801 638.916 L976.801 635.027 Q975.458 637.342 973.398 638.477 Q971.361 639.588 968.491 639.588 Q963.792 639.588 960.829 635.838 Q957.889 632.088 957.889 625.977 Q957.889 619.866 960.829 616.116 Q963.792 612.366 968.491 612.366 Q971.361 612.366 973.398 613.5 Q975.458 614.611 976.801 616.926 M962.287 625.977 Q962.287 630.676 964.208 633.361 Q966.153 636.023 969.532 636.023 Q972.912 636.023 974.856 633.361 Q976.801 630.676 976.801 625.977 Q976.801 621.278 974.856 618.616 Q972.912 615.93 969.532 615.93 Q966.153 615.93 964.208 618.616 Q962.287 621.278 962.287 625.977 Z" fill="#000000" fill-rule="nonzero" fill-opacity="1" /><path clip-path="url(#clip410)" d="M1011.38 623.268 L1011.38 638.916 L1007.12 638.916 L1007.12 623.407 Q1007.12 619.727 1005.69 617.898 Q1004.25 616.069 1001.38 616.069 Q997.935 616.069 995.944 618.268 Q993.953 620.467 993.953 624.264 L993.953 638.916 L989.671 638.916 L989.671 612.991 L993.953 612.991 L993.953 617.018 Q995.481 614.68 997.541 613.523 Q999.625 612.366 1002.33 612.366 Q1006.8 612.366 1009.09 615.143 Q1011.38 617.898 1011.38 623.268 Z" fill="#000000" fill-rule="nonzero" fill-opacity="1" /><path clip-path="url(#clip410)" d="M1019.88 602.898 L1024.14 602.898 L1024.14 638.916 L1019.88 638.916 L1019.88 602.898 Z" fill="#000000" fill-rule="nonzero" fill-opacity="1" /><path clip-path="url(#clip410)" d="M1037.17 635.027 L1037.17 648.777 L1032.89 648.777 L1032.89 612.991 L1037.17 612.991 L1037.17 616.926 Q1038.51 614.611 1040.55 613.5 Q1042.61 612.366 1045.46 612.366 Q1050.18 612.366 1053.12 616.116 Q1056.08 619.866 1056.08 625.977 Q1056.08 632.088 1053.12 635.838 Q1050.18 639.588 1045.46 639.588 Q1042.61 639.588 1040.55 638.477 Q1038.51 637.342 1037.17 635.027 M1051.66 625.977 Q1051.66 621.278 1049.72 618.616 Q1047.8 615.93 1044.42 615.93 Q1041.04 615.93 1039.09 618.616 Q1037.17 621.278 1037.17 625.977 Q1037.17 630.676 1039.09 633.361 Q1041.04 636.023 1044.42 636.023 Q1047.8 636.023 1049.72 633.361 Q1051.66 630.676 1051.66 625.977 Z" fill="#000000" fill-rule="nonzero" fill-opacity="1" /><path clip-path="url(#clip410)" d="M1062.47 602.944 L1066.18 602.944 Q1069.65 608.407 1071.36 613.639 Q1073.1 618.87 1073.1 624.032 Q1073.1 629.217 1071.36 634.472 Q1069.65 639.727 1066.18 645.166 L1062.47 645.166 Q1065.55 639.865 1067.05 634.634 Q1068.58 629.379 1068.58 624.032 Q1068.58 618.685 1067.05 613.477 Q1065.55 608.268 1062.47 602.944 Z" fill="#000000" fill-rule="nonzero" fill-opacity="1" /></svg>
