<?xml version="1.0" encoding="utf-8"?>
<svg xmlns="http://www.w3.org/2000/svg" xmlns:xlink="http://www.w3.org/1999/xlink" width="900" height="600" viewBox="0 0 3600 2400">
<defs>
  <clipPath id="clip940">
    <rect x="0" y="0" width="3600" height="2400"/>
  </clipPath>
</defs>
<path clip-path="url(#clip940)" d="M0 2400 L3600 2400 L3600 0 L0 0  Z" fill="#ffffff" fill-rule="evenodd" fill-opacity="1"/>
<defs>
  <clipPath id="clip941">
    <rect x="290" y="246" width="3263" height="1911"/>
  </clipPath>
</defs>
<path clip-path="url(#clip940)" d="M359.791 2156.51 L3552.76 2156.51 L3552.76 246.944 L359.791 246.944  Z" fill="#ffffff" fill-rule="evenodd" fill-opacity="1"/>
<defs>
  <clipPath id="clip942">
    <rect x="359" y="246" width="3194" height="1911"/>
  </clipPath>
</defs>
<polyline clip-path="url(#clip942)" style="stroke:#000000; stroke-linecap:round; stroke-linejoin:round; stroke-width:2; stroke-opacity:0.1; fill:none" points="527.395,2156.51 527.395,246.944 "/>
<polyline clip-path="url(#clip942)" style="stroke:#000000; stroke-linecap:round; stroke-linejoin:round; stroke-width:2; stroke-opacity:0.1; fill:none" points="1299.76,2156.51 1299.76,246.944 "/>
<polyline clip-path="url(#clip942)" style="stroke:#000000; stroke-linecap:round; stroke-linejoin:round; stroke-width:2; stroke-opacity:0.1; fill:none" points="2072.13,2156.51 2072.13,246.944 "/>
<polyline clip-path="url(#clip942)" style="stroke:#000000; stroke-linecap:round; stroke-linejoin:round; stroke-width:2; stroke-opacity:0.1; fill:none" points="2844.5,2156.51 2844.5,246.944 "/>
<polyline clip-path="url(#clip942)" style="stroke:#000000; stroke-linecap:round; stroke-linejoin:round; stroke-width:2; stroke-opacity:0.1; fill:none" points="359.791,1592.22 3552.76,1592.22 "/>
<polyline clip-path="url(#clip942)" style="stroke:#000000; stroke-linecap:round; stroke-linejoin:round; stroke-width:2; stroke-opacity:0.1; fill:none" points="359.791,808.559 3552.76,808.559 "/>
<polyline clip-path="url(#clip940)" style="stroke:#000000; stroke-linecap:round; stroke-linejoin:round; stroke-width:4; stroke-opacity:1; fill:none" points="359.791,2156.51 3552.76,2156.51 "/>
<polyline clip-path="url(#clip940)" style="stroke:#000000; stroke-linecap:round; stroke-linejoin:round; stroke-width:4; stroke-opacity:1; fill:none" points="527.395,2156.51 527.395,2137.61 "/>
<polyline clip-path="url(#clip940)" style="stroke:#000000; stroke-linecap:round; stroke-linejoin:round; stroke-width:4; stroke-opacity:1; fill:none" points="1299.76,2156.51 1299.76,2137.61 "/>
<polyline clip-path="url(#clip940)" style="stroke:#000000; stroke-linecap:round; stroke-linejoin:round; stroke-width:4; stroke-opacity:1; fill:none" points="2072.13,2156.51 2072.13,2137.61 "/>
<polyline clip-path="url(#clip940)" style="stroke:#000000; stroke-linecap:round; stroke-linejoin:round; stroke-width:4; stroke-opacity:1; fill:none" points="2844.5,2156.51 2844.5,2137.61 "/>
<path clip-path="url(#clip940)" d="M506.168 2224.57 L522.488 2224.57 L522.488 2228.51 L500.543 2228.51 L500.543 2224.57 Q503.205 2221.82 507.789 2217.19 Q512.395 2212.54 513.576 2211.19 Q515.821 2208.67 516.701 2206.93 Q517.603 2205.17 517.603 2203.48 Q517.603 2200.73 515.659 2198.99 Q513.738 2197.26 510.636 2197.26 Q508.437 2197.26 505.983 2198.02 Q503.553 2198.79 500.775 2200.34 L500.775 2195.61 Q503.599 2194.48 506.053 2193.9 Q508.506 2193.32 510.543 2193.32 Q515.914 2193.32 519.108 2196.01 Q522.303 2198.69 522.303 2203.18 Q522.303 2205.31 521.492 2207.23 Q520.705 2209.13 518.599 2211.73 Q518.02 2212.4 514.918 2215.61 Q511.816 2218.81 506.168 2224.57 Z" fill="#000000" fill-rule="nonzero" fill-opacity="1" /><path clip-path="url(#clip940)" d="M542.302 2197.03 Q538.691 2197.03 536.863 2200.59 Q535.057 2204.13 535.057 2211.26 Q535.057 2218.37 536.863 2221.93 Q538.691 2225.48 542.302 2225.48 Q545.937 2225.48 547.742 2221.93 Q549.571 2218.37 549.571 2211.26 Q549.571 2204.13 547.742 2200.59 Q545.937 2197.03 542.302 2197.03 M542.302 2193.32 Q548.113 2193.32 551.168 2197.93 Q554.247 2202.51 554.247 2211.26 Q554.247 2219.99 551.168 2224.6 Q548.113 2229.18 542.302 2229.18 Q536.492 2229.18 533.414 2224.6 Q530.358 2219.99 530.358 2211.26 Q530.358 2202.51 533.414 2197.93 Q536.492 2193.32 542.302 2193.32 Z" fill="#000000" fill-rule="nonzero" fill-opacity="1" /><path clip-path="url(#clip940)" d="M1288.6 2209.87 Q1291.96 2210.59 1293.84 2212.86 Q1295.73 2215.13 1295.73 2218.46 Q1295.73 2223.58 1292.22 2226.38 Q1288.7 2229.18 1282.22 2229.18 Q1280.04 2229.18 1277.72 2228.74 Q1275.43 2228.32 1272.98 2227.47 L1272.98 2222.95 Q1274.92 2224.09 1277.24 2224.67 Q1279.55 2225.24 1282.08 2225.24 Q1286.47 2225.24 1288.77 2223.51 Q1291.08 2221.77 1291.08 2218.46 Q1291.08 2215.41 1288.93 2213.69 Q1286.8 2211.96 1282.98 2211.96 L1278.95 2211.96 L1278.95 2208.11 L1283.16 2208.11 Q1286.61 2208.11 1288.44 2206.75 Q1290.27 2205.36 1290.27 2202.77 Q1290.27 2200.11 1288.37 2198.69 Q1286.5 2197.26 1282.98 2197.26 Q1281.06 2197.26 1278.86 2197.67 Q1276.66 2198.09 1274.02 2198.97 L1274.02 2194.8 Q1276.68 2194.06 1279 2193.69 Q1281.34 2193.32 1283.4 2193.32 Q1288.72 2193.32 1291.82 2195.75 Q1294.92 2198.16 1294.92 2202.28 Q1294.92 2205.15 1293.28 2207.14 Q1291.64 2209.11 1288.6 2209.87 Z" fill="#000000" fill-rule="nonzero" fill-opacity="1" /><path clip-path="url(#clip940)" d="M1314.6 2197.03 Q1310.99 2197.03 1309.16 2200.59 Q1307.35 2204.13 1307.35 2211.26 Q1307.35 2218.37 1309.16 2221.93 Q1310.99 2225.48 1314.6 2225.48 Q1318.23 2225.48 1320.04 2221.93 Q1321.87 2218.37 1321.87 2211.26 Q1321.87 2204.13 1320.04 2200.59 Q1318.23 2197.03 1314.6 2197.03 M1314.6 2193.32 Q1320.41 2193.32 1323.47 2197.93 Q1326.54 2202.51 1326.54 2211.26 Q1326.54 2219.99 1323.47 2224.6 Q1320.41 2229.18 1314.6 2229.18 Q1308.79 2229.18 1305.71 2224.6 Q1302.66 2219.99 1302.66 2211.26 Q1302.66 2202.51 1305.71 2197.93 Q1308.79 2193.32 1314.6 2193.32 Z" fill="#000000" fill-rule="nonzero" fill-opacity="1" /><path clip-path="url(#clip940)" d="M2060.3 2198.02 L2048.49 2216.47 L2060.3 2216.47 L2060.3 2198.02 M2059.07 2193.95 L2064.95 2193.95 L2064.95 2216.47 L2069.88 2216.47 L2069.88 2220.36 L2064.95 2220.36 L2064.95 2228.51 L2060.3 2228.51 L2060.3 2220.36 L2044.7 2220.36 L2044.7 2215.85 L2059.07 2193.95 Z" fill="#000000" fill-rule="nonzero" fill-opacity="1" /><path clip-path="url(#clip940)" d="M2087.61 2197.03 Q2084 2197.03 2082.17 2200.59 Q2080.37 2204.13 2080.37 2211.26 Q2080.37 2218.37 2082.17 2221.93 Q2084 2225.48 2087.61 2225.48 Q2091.25 2225.48 2093.05 2221.93 Q2094.88 2218.37 2094.88 2211.26 Q2094.88 2204.13 2093.05 2200.59 Q2091.25 2197.03 2087.61 2197.03 M2087.61 2193.32 Q2093.42 2193.32 2096.48 2197.93 Q2099.56 2202.51 2099.56 2211.26 Q2099.56 2219.99 2096.48 2224.6 Q2093.42 2229.18 2087.61 2229.18 Q2081.8 2229.18 2078.73 2224.6 Q2075.67 2219.99 2075.67 2211.26 Q2075.67 2202.51 2078.73 2197.93 Q2081.8 2193.32 2087.61 2193.32 Z" fill="#000000" fill-rule="nonzero" fill-opacity="1" /><path clip-path="url(#clip940)" d="M2819.19 2193.95 L2837.55 2193.95 L2837.55 2197.88 L2823.48 2197.88 L2823.48 2206.36 Q2824.5 2206.01 2825.51 2205.85 Q2826.53 2205.66 2827.55 2205.66 Q2833.34 2205.66 2836.72 2208.83 Q2840.1 2212 2840.1 2217.42 Q2840.1 2223 2836.63 2226.1 Q2833.15 2229.18 2826.83 2229.18 Q2824.66 2229.18 2822.39 2228.81 Q2820.14 2228.44 2817.74 2227.7 L2817.74 2223 Q2819.82 2224.13 2822.04 2224.69 Q2824.26 2225.24 2826.74 2225.24 Q2830.75 2225.24 2833.08 2223.14 Q2835.42 2221.03 2835.42 2217.42 Q2835.42 2213.81 2833.08 2211.7 Q2830.75 2209.6 2826.74 2209.6 Q2824.87 2209.6 2822.99 2210.01 Q2821.14 2210.43 2819.19 2211.31 L2819.19 2193.95 Z" fill="#000000" fill-rule="nonzero" fill-opacity="1" /><path clip-path="url(#clip940)" d="M2859.31 2197.03 Q2855.7 2197.03 2853.87 2200.59 Q2852.06 2204.13 2852.06 2211.26 Q2852.06 2218.37 2853.87 2221.93 Q2855.7 2225.48 2859.31 2225.48 Q2862.94 2225.48 2864.75 2221.93 Q2866.58 2218.37 2866.58 2211.26 Q2866.58 2204.13 2864.75 2200.59 Q2862.94 2197.03 2859.31 2197.03 M2859.31 2193.32 Q2865.12 2193.32 2868.18 2197.93 Q2871.25 2202.51 2871.25 2211.26 Q2871.25 2219.99 2868.18 2224.6 Q2865.12 2229.18 2859.31 2229.18 Q2853.5 2229.18 2850.42 2224.6 Q2847.37 2219.99 2847.37 2211.26 Q2847.37 2202.51 2850.42 2197.93 Q2853.5 2193.32 2859.31 2193.32 Z" fill="#000000" fill-rule="nonzero" fill-opacity="1" /><path clip-path="url(#clip940)" d="M1819.51 2270.99 L1825.36 2270.99 L1825.36 2314.19 L1819.51 2314.19 L1819.51 2270.99 Z" fill="#000000" fill-rule="nonzero" fill-opacity="1" /><path clip-path="url(#clip940)" d="M1842.02 2272.58 L1842.02 2281.78 L1852.99 2281.78 L1852.99 2285.92 L1842.02 2285.92 L1842.02 2303.51 Q1842.02 2307.47 1843.09 2308.6 Q1844.19 2309.73 1847.52 2309.73 L1852.99 2309.73 L1852.99 2314.19 L1847.52 2314.19 Q1841.36 2314.19 1839.01 2311.9 Q1836.67 2309.59 1836.67 2303.51 L1836.67 2285.92 L1832.76 2285.92 L1832.76 2281.78 L1836.67 2281.78 L1836.67 2272.58 L1842.02 2272.58 Z" fill="#000000" fill-rule="nonzero" fill-opacity="1" /><path clip-path="url(#clip940)" d="M1887.71 2296.65 L1887.71 2299.26 L1863.23 2299.26 Q1863.58 2304.75 1866.53 2307.65 Q1869.51 2310.51 1874.81 2310.51 Q1877.87 2310.51 1880.74 2309.76 Q1883.63 2309.01 1886.47 2307.5 L1886.47 2312.54 Q1883.6 2313.75 1880.59 2314.39 Q1877.58 2315.03 1874.49 2315.03 Q1866.73 2315.03 1862.19 2310.51 Q1857.68 2306 1857.68 2298.3 Q1857.68 2290.35 1861.96 2285.69 Q1866.27 2281 1873.56 2281 Q1880.1 2281 1883.89 2285.22 Q1887.71 2289.42 1887.71 2296.65 M1882.39 2295.09 Q1882.33 2290.72 1879.93 2288.12 Q1877.56 2285.51 1873.62 2285.51 Q1869.16 2285.51 1866.47 2288.03 Q1863.81 2290.55 1863.41 2295.12 L1882.39 2295.09 Z" fill="#000000" fill-rule="nonzero" fill-opacity="1" /><path clip-path="url(#clip940)" d="M1915.23 2286.76 Q1914.33 2286.24 1913.26 2286 Q1912.22 2285.74 1910.95 2285.74 Q1906.43 2285.74 1904 2288.7 Q1901.6 2291.62 1901.6 2297.12 L1901.6 2314.19 L1896.25 2314.19 L1896.25 2281.78 L1901.6 2281.78 L1901.6 2286.82 Q1903.28 2283.86 1905.97 2282.45 Q1908.66 2281 1912.51 2281 Q1913.06 2281 1913.72 2281.09 Q1914.39 2281.14 1915.2 2281.29 L1915.23 2286.76 Z" fill="#000000" fill-rule="nonzero" fill-opacity="1" /><path clip-path="url(#clip940)" d="M1935.54 2297.9 Q1929.09 2297.9 1926.6 2299.37 Q1924.11 2300.85 1924.11 2304.41 Q1924.11 2307.24 1925.96 2308.92 Q1927.85 2310.57 1931.06 2310.57 Q1935.48 2310.57 1938.15 2307.45 Q1940.84 2304.29 1940.84 2299.08 L1940.84 2297.9 L1935.54 2297.9 M1946.16 2295.7 L1946.16 2314.19 L1940.84 2314.19 L1940.84 2309.27 Q1939.01 2312.22 1936.29 2313.64 Q1933.57 2315.03 1929.64 2315.03 Q1924.66 2315.03 1921.71 2312.25 Q1918.79 2309.44 1918.79 2304.75 Q1918.79 2299.29 1922.43 2296.51 Q1926.11 2293.73 1933.37 2293.73 L1940.84 2293.73 L1940.84 2293.21 Q1940.84 2289.54 1938.41 2287.54 Q1936 2285.51 1931.64 2285.51 Q1928.86 2285.51 1926.22 2286.18 Q1923.59 2286.84 1921.16 2288.18 L1921.16 2283.26 Q1924.08 2282.13 1926.83 2281.58 Q1929.58 2281 1932.19 2281 Q1939.22 2281 1942.69 2284.65 Q1946.16 2288.29 1946.16 2295.7 Z" fill="#000000" fill-rule="nonzero" fill-opacity="1" /><path clip-path="url(#clip940)" d="M1962.39 2272.58 L1962.39 2281.78 L1973.36 2281.78 L1973.36 2285.92 L1962.39 2285.92 L1962.39 2303.51 Q1962.39 2307.47 1963.46 2308.6 Q1964.56 2309.73 1967.89 2309.73 L1973.36 2309.73 L1973.36 2314.19 L1967.89 2314.19 Q1961.73 2314.19 1959.38 2311.9 Q1957.04 2309.59 1957.04 2303.51 L1957.04 2285.92 L1953.13 2285.92 L1953.13 2281.78 L1957.04 2281.78 L1957.04 2272.58 L1962.39 2272.58 Z" fill="#000000" fill-rule="nonzero" fill-opacity="1" /><path clip-path="url(#clip940)" d="M1980.36 2281.78 L1985.69 2281.78 L1985.69 2314.19 L1980.36 2314.19 L1980.36 2281.78 M1980.36 2269.16 L1985.69 2269.16 L1985.69 2275.91 L1980.36 2275.91 L1980.36 2269.16 Z" fill="#000000" fill-rule="nonzero" fill-opacity="1" /><path clip-path="url(#clip940)" d="M2009.38 2285.51 Q2005.1 2285.51 2002.61 2288.87 Q2000.12 2292.2 2000.12 2298.01 Q2000.12 2303.83 2002.58 2307.19 Q2005.07 2310.51 2009.38 2310.51 Q2013.64 2310.51 2016.13 2307.16 Q2018.61 2303.8 2018.61 2298.01 Q2018.61 2292.25 2016.13 2288.9 Q2013.64 2285.51 2009.38 2285.51 M2009.38 2281 Q2016.33 2281 2020.29 2285.51 Q2024.26 2290.03 2024.26 2298.01 Q2024.26 2305.97 2020.29 2310.51 Q2016.33 2315.03 2009.38 2315.03 Q2002.41 2315.03 1998.45 2310.51 Q1994.51 2305.97 1994.51 2298.01 Q1994.51 2290.03 1998.45 2285.51 Q2002.41 2281 2009.38 2281 Z" fill="#000000" fill-rule="nonzero" fill-opacity="1" /><path clip-path="url(#clip940)" d="M2060.02 2294.63 L2060.02 2314.19 L2054.7 2314.19 L2054.7 2294.8 Q2054.7 2290.2 2052.9 2287.91 Q2051.11 2285.63 2047.52 2285.63 Q2043.21 2285.63 2040.72 2288.38 Q2038.23 2291.13 2038.23 2295.87 L2038.23 2314.19 L2032.88 2314.19 L2032.88 2281.78 L2038.23 2281.78 L2038.23 2286.82 Q2040.14 2283.89 2042.72 2282.45 Q2045.32 2281 2048.71 2281 Q2054.29 2281 2057.16 2284.47 Q2060.02 2287.91 2060.02 2294.63 Z" fill="#000000" fill-rule="nonzero" fill-opacity="1" /><path clip-path="url(#clip940)" d="M2091.3 2282.74 L2091.3 2287.77 Q2089.04 2286.61 2086.61 2286.03 Q2084.18 2285.46 2081.58 2285.46 Q2077.61 2285.46 2075.62 2286.67 Q2073.65 2287.89 2073.65 2290.32 Q2073.65 2292.17 2075.07 2293.24 Q2076.48 2294.28 2080.77 2295.24 L2082.59 2295.64 Q2088.26 2296.86 2090.63 2299.08 Q2093.04 2301.28 2093.04 2305.25 Q2093.04 2309.76 2089.45 2312.39 Q2085.89 2315.03 2079.64 2315.03 Q2077.03 2315.03 2074.2 2314.51 Q2071.39 2314.01 2068.27 2313 L2068.27 2307.5 Q2071.22 2309.04 2074.08 2309.82 Q2076.95 2310.57 2079.75 2310.57 Q2083.52 2310.57 2085.54 2309.3 Q2087.57 2308 2087.57 2305.65 Q2087.57 2303.48 2086.09 2302.32 Q2084.64 2301.17 2079.7 2300.1 L2077.84 2299.66 Q2072.9 2298.62 2070.7 2296.48 Q2068.5 2294.31 2068.5 2290.55 Q2068.5 2285.98 2071.74 2283.49 Q2074.98 2281 2080.94 2281 Q2083.89 2281 2086.5 2281.43 Q2089.1 2281.87 2091.3 2282.74 Z" fill="#000000" fill-rule="nonzero" fill-opacity="1" /><polyline clip-path="url(#clip940)" style="stroke:#000000; stroke-linecap:round; stroke-linejoin:round; stroke-width:4; stroke-opacity:1; fill:none" points="359.791,2156.51 359.791,246.944 "/>
<polyline clip-path="url(#clip940)" style="stroke:#000000; stroke-linecap:round; stroke-linejoin:round; stroke-width:4; stroke-opacity:1; fill:none" points="359.791,1592.22 378.689,1592.22 "/>
<polyline clip-path="url(#clip940)" style="stroke:#000000; stroke-linecap:round; stroke-linejoin:round; stroke-width:4; stroke-opacity:1; fill:none" points="359.791,808.559 378.689,808.559 "/>
<path clip-path="url(#clip940)" d="M167.604 1612.02 L175.242 1612.02 L175.242 1585.65 L166.932 1587.32 L166.932 1583.06 L175.196 1581.39 L179.872 1581.39 L179.872 1612.02 L187.511 1612.02 L187.511 1615.95 L167.604 1615.95 L167.604 1612.02 Z" fill="#000000" fill-rule="nonzero" fill-opacity="1" /><path clip-path="url(#clip940)" d="M206.955 1584.47 Q203.344 1584.47 201.515 1588.04 Q199.71 1591.58 199.71 1598.71 Q199.71 1605.81 201.515 1609.38 Q203.344 1612.92 206.955 1612.92 Q210.589 1612.92 212.395 1609.38 Q214.224 1605.81 214.224 1598.71 Q214.224 1591.58 212.395 1588.04 Q210.589 1584.47 206.955 1584.47 M206.955 1580.77 Q212.765 1580.77 215.821 1585.37 Q218.9 1589.96 218.9 1598.71 Q218.9 1607.43 215.821 1612.04 Q212.765 1616.62 206.955 1616.62 Q201.145 1616.62 198.066 1612.04 Q195.011 1607.43 195.011 1598.71 Q195.011 1589.96 198.066 1585.37 Q201.145 1580.77 206.955 1580.77 Z" fill="#000000" fill-rule="nonzero" fill-opacity="1" /><path clip-path="url(#clip940)" d="M218.9 1574.87 L243.011 1574.87 L243.011 1578.07 L218.9 1578.07 L218.9 1574.87 Z" fill="#000000" fill-rule="nonzero" fill-opacity="1" /><path clip-path="url(#clip940)" d="M251.87 1585.34 L258.076 1585.34 L258.076 1563.92 L251.324 1565.28 L251.324 1561.82 L258.039 1560.46 L261.838 1560.46 L261.838 1585.34 L268.044 1585.34 L268.044 1588.54 L251.87 1588.54 L251.87 1585.34 Z" fill="#000000" fill-rule="nonzero" fill-opacity="1" /><path clip-path="url(#clip940)" d="M275.718 1583.76 L279.686 1583.76 L279.686 1588.54 L275.718 1588.54 L275.718 1583.76 Z" fill="#000000" fill-rule="nonzero" fill-opacity="1" /><path clip-path="url(#clip940)" d="M296.087 1562.96 Q293.153 1562.96 291.667 1565.86 Q290.2 1568.74 290.2 1574.53 Q290.2 1580.3 291.667 1583.2 Q293.153 1586.08 296.087 1586.08 Q299.04 1586.08 300.507 1583.2 Q301.992 1580.3 301.992 1574.53 Q301.992 1568.74 300.507 1565.86 Q299.04 1562.96 296.087 1562.96 M296.087 1559.95 Q300.807 1559.95 303.29 1563.7 Q305.791 1567.42 305.791 1574.53 Q305.791 1581.62 303.29 1585.36 Q300.807 1589.09 296.087 1589.09 Q291.366 1589.09 288.865 1585.36 Q286.382 1581.62 286.382 1574.53 Q286.382 1567.42 288.865 1563.7 Q291.366 1559.95 296.087 1559.95 Z" fill="#000000" fill-rule="nonzero" fill-opacity="1" /><path clip-path="url(#clip940)" d="M168.412 828.352 L176.051 828.352 L176.051 801.986 L167.741 803.653 L167.741 799.394 L176.005 797.727 L180.681 797.727 L180.681 828.352 L188.32 828.352 L188.32 832.287 L168.412 832.287 L168.412 828.352 Z" fill="#000000" fill-rule="nonzero" fill-opacity="1" /><path clip-path="url(#clip940)" d="M207.764 800.806 Q204.153 800.806 202.324 804.37 Q200.519 807.912 200.519 815.042 Q200.519 822.148 202.324 825.713 Q204.153 829.255 207.764 829.255 Q211.398 829.255 213.204 825.713 Q215.032 822.148 215.032 815.042 Q215.032 807.912 213.204 804.37 Q211.398 800.806 207.764 800.806 M207.764 797.102 Q213.574 797.102 216.63 801.708 Q219.708 806.292 219.708 815.042 Q219.708 823.768 216.63 828.375 Q213.574 832.958 207.764 832.958 Q201.954 832.958 198.875 828.375 Q195.82 823.768 195.82 815.042 Q195.82 806.292 198.875 801.708 Q201.954 797.102 207.764 797.102 Z" fill="#000000" fill-rule="nonzero" fill-opacity="1" /><path clip-path="url(#clip940)" d="M219.708 791.203 L243.82 791.203 L243.82 794.401 L219.708 794.401 L219.708 791.203 Z" fill="#000000" fill-rule="nonzero" fill-opacity="1" /><path clip-path="url(#clip940)" d="M260.145 779.298 Q257.211 779.298 255.725 782.194 Q254.258 785.072 254.258 790.865 Q254.258 796.639 255.725 799.535 Q257.211 802.413 260.145 802.413 Q263.098 802.413 264.565 799.535 Q266.051 796.639 266.051 790.865 Q266.051 785.072 264.565 782.194 Q263.098 779.298 260.145 779.298 M260.145 776.289 Q264.866 776.289 267.348 780.031 Q269.85 783.755 269.85 790.865 Q269.85 797.955 267.348 801.698 Q264.866 805.422 260.145 805.422 Q255.424 805.422 252.923 801.698 Q250.44 797.955 250.44 790.865 Q250.44 783.755 252.923 780.031 Q255.424 776.289 260.145 776.289 Z" fill="#000000" fill-rule="nonzero" fill-opacity="1" /><path clip-path="url(#clip940)" d="M276.527 800.099 L280.495 800.099 L280.495 804.877 L276.527 804.877 L276.527 800.099 Z" fill="#000000" fill-rule="nonzero" fill-opacity="1" /><path clip-path="url(#clip940)" d="M288.808 776.797 L303.723 776.797 L303.723 779.994 L292.288 779.994 L292.288 786.878 Q293.115 786.595 293.943 786.464 Q294.77 786.313 295.598 786.313 Q300.3 786.313 303.046 788.89 Q305.791 791.467 305.791 795.868 Q305.791 800.4 302.97 802.921 Q300.149 805.422 295.015 805.422 Q293.247 805.422 291.404 805.121 Q289.579 804.82 287.623 804.218 L287.623 800.4 Q289.316 801.322 291.121 801.773 Q292.927 802.225 294.939 802.225 Q298.193 802.225 300.093 800.513 Q301.992 798.802 301.992 795.868 Q301.992 792.934 300.093 791.222 Q298.193 789.511 294.939 789.511 Q293.416 789.511 291.893 789.849 Q290.388 790.188 288.808 790.902 L288.808 776.797 Z" fill="#000000" fill-rule="nonzero" fill-opacity="1" /><path clip-path="url(#clip940)" d="M60.0998 1347.25 L66.263 1347.25 Q63.5141 1350.21 62.1542 1353.56 Q60.7943 1356.89 60.7943 1360.65 Q60.7943 1368.06 65.3371 1371.99 Q69.8509 1375.93 78.4157 1375.93 Q86.9515 1375.93 91.4943 1371.99 Q96.0082 1368.06 96.0082 1360.65 Q96.0082 1356.89 94.6482 1353.56 Q93.2883 1350.21 90.5395 1347.25 L96.6448 1347.25 Q98.7281 1350.32 99.7697 1353.77 Q100.811 1357.18 100.811 1361 Q100.811 1370.81 94.8218 1376.45 Q88.8034 1382.09 78.4157 1382.09 Q67.9991 1382.09 62.0095 1376.45 Q55.991 1370.81 55.991 1361 Q55.991 1357.12 57.0327 1353.71 Q58.0454 1350.26 60.0998 1347.25 Z" fill="#000000" fill-rule="nonzero" fill-opacity="1" /><path clip-path="url(#clip940)" d="M61.5755 1332.38 L77.8081 1332.38 L77.8081 1325.03 Q77.8081 1320.95 75.6958 1318.72 Q73.5835 1316.5 69.6773 1316.5 Q65.8 1316.5 63.6878 1318.72 Q61.5755 1320.95 61.5755 1325.03 L61.5755 1332.38 M56.7723 1338.23 L56.7723 1325.03 Q56.7723 1317.77 60.0709 1314.07 Q63.3405 1310.33 69.6773 1310.33 Q76.0719 1310.33 79.3416 1314.07 Q82.6113 1317.77 82.6113 1325.03 L82.6113 1332.38 L99.9723 1332.38 L99.9723 1338.23 L56.7723 1338.23 Z" fill="#000000" fill-rule="nonzero" fill-opacity="1" /><path clip-path="url(#clip940)" d="M56.7723 1303.16 L56.7723 1297.28 L83.0164 1297.28 Q89.9608 1297.28 93.0279 1294.77 Q96.0661 1292.25 96.0661 1286.61 Q96.0661 1280.99 93.0279 1278.48 Q89.9608 1275.96 83.0164 1275.96 L56.7723 1275.96 L56.7723 1270.08 L83.7397 1270.08 Q92.1888 1270.08 96.5001 1274.28 Q100.811 1278.45 100.811 1286.61 Q100.811 1294.8 96.5001 1298.99 Q92.1888 1303.16 83.7397 1303.16 L56.7723 1303.16 Z" fill="#000000" fill-rule="nonzero" fill-opacity="1" /><path clip-path="url(#clip940)" d="M58.3637 1235.25 L67.565 1235.25 L67.565 1224.28 L71.7028 1224.28 L71.7028 1235.25 L89.2953 1235.25 Q93.2594 1235.25 94.3878 1234.18 Q95.5163 1233.08 95.5163 1229.75 L95.5163 1224.28 L99.9723 1224.28 L99.9723 1229.75 Q99.9723 1235.91 97.6864 1238.26 Q95.3716 1240.6 89.2953 1240.6 L71.7028 1240.6 L71.7028 1244.51 L67.565 1244.51 L67.565 1240.6 L58.3637 1240.6 L58.3637 1235.25 Z" fill="#000000" fill-rule="nonzero" fill-opacity="1" /><path clip-path="url(#clip940)" d="M67.565 1217.28 L67.565 1211.95 L99.9723 1211.95 L99.9723 1217.28 L67.565 1217.28 M54.9494 1217.28 L54.9494 1211.95 L61.6912 1211.95 L61.6912 1217.28 L54.9494 1217.28 Z" fill="#000000" fill-rule="nonzero" fill-opacity="1" /><path clip-path="url(#clip940)" d="M73.7861 1175.58 Q70.1981 1173.59 68.491 1170.81 Q66.7838 1168.03 66.7838 1164.27 Q66.7838 1159.21 70.3428 1156.46 Q73.8729 1153.71 80.4122 1153.71 L99.9723 1153.71 L99.9723 1159.06 L80.5858 1159.06 Q75.9273 1159.06 73.6703 1160.71 Q71.4134 1162.36 71.4134 1165.75 Q71.4134 1169.88 74.1622 1172.28 Q76.9111 1174.69 81.6564 1174.69 L99.9723 1174.69 L99.9723 1180.04 L80.5858 1180.04 Q75.8983 1180.04 73.6703 1181.69 Q71.4134 1183.34 71.4134 1186.78 Q71.4134 1190.86 74.1912 1193.26 Q76.94 1195.66 81.6564 1195.66 L99.9723 1195.66 L99.9723 1201.02 L67.565 1201.02 L67.565 1195.66 L72.5997 1195.66 Q69.6194 1193.84 68.2016 1191.29 Q66.7838 1188.75 66.7838 1185.25 Q66.7838 1181.72 68.5778 1179.26 Q70.3717 1176.77 73.7861 1175.58 Z" fill="#000000" fill-rule="nonzero" fill-opacity="1" /><path clip-path="url(#clip940)" d="M82.4377 1115.37 L85.0418 1115.37 L85.0418 1139.85 Q90.5395 1139.5 93.433 1136.55 Q96.2975 1133.57 96.2975 1128.27 Q96.2975 1125.21 95.5452 1122.34 Q94.7929 1119.45 93.2883 1116.61 L98.323 1116.61 Q99.5383 1119.48 100.175 1122.49 Q100.811 1125.5 100.811 1128.59 Q100.811 1136.35 96.2975 1140.89 Q91.7837 1145.4 84.087 1145.4 Q76.1298 1145.4 71.4713 1141.12 Q66.7838 1136.81 66.7838 1129.52 Q66.7838 1122.98 71.0083 1119.19 Q75.2039 1115.37 82.4377 1115.37 M80.8752 1120.69 Q76.506 1120.75 73.9018 1123.15 Q71.2977 1125.53 71.2977 1129.46 Q71.2977 1133.92 73.815 1136.61 Q76.3324 1139.27 80.9041 1139.67 L80.8752 1120.69 Z" fill="#000000" fill-rule="nonzero" fill-opacity="1" /><path clip-path="url(#clip940)" d="M55.0072 1075.01 Q61.6623 1078.88 68.1727 1080.76 Q74.6831 1082.64 81.3671 1082.64 Q88.0511 1082.64 94.6193 1080.76 Q101.159 1078.85 107.785 1075.01 L107.785 1079.63 Q100.985 1083.97 94.4168 1086.15 Q87.8485 1088.29 81.3671 1088.29 Q74.9145 1088.29 68.3752 1086.15 Q61.8359 1084 55.0072 1079.63 L55.0072 1075.01 Z" fill="#000000" fill-rule="nonzero" fill-opacity="1" /><path clip-path="url(#clip940)" d="M68.5199 1044.02 L73.5546 1044.02 Q72.3972 1046.27 71.8185 1048.7 Q71.2398 1051.13 71.2398 1053.74 Q71.2398 1057.7 72.4551 1059.7 Q73.6703 1061.67 76.1009 1061.67 Q77.9527 1061.67 79.0233 1060.25 Q80.065 1058.83 81.0198 1054.55 L81.4249 1052.73 Q82.6402 1047.05 84.8682 1044.68 Q87.0673 1042.28 91.0314 1042.28 Q95.5452 1042.28 98.1783 1045.87 Q100.811 1049.43 100.811 1055.68 Q100.811 1058.28 100.291 1061.12 Q99.7987 1063.92 98.7859 1067.05 L93.2883 1067.05 Q94.8218 1064.1 95.6031 1061.23 Q96.3554 1058.37 96.3554 1055.56 Q96.3554 1051.8 95.0823 1049.77 Q93.7802 1047.75 91.4364 1047.75 Q89.2663 1047.75 88.1089 1049.22 Q86.9515 1050.67 85.8809 1055.62 L85.4469 1057.47 Q84.4052 1062.42 82.264 1064.62 Q80.0939 1066.82 76.3324 1066.82 Q71.7606 1066.82 69.2722 1063.58 Q66.7838 1060.33 66.7838 1054.37 Q66.7838 1051.42 67.2178 1048.82 Q67.6519 1046.21 68.5199 1044.02 Z" fill="#000000" fill-rule="nonzero" fill-opacity="1" /><path clip-path="url(#clip940)" d="M55.0072 1034.64 L55.0072 1030.01 Q61.8359 1025.67 68.3752 1023.53 Q74.9145 1021.36 81.3671 1021.36 Q87.8485 1021.36 94.4168 1023.53 Q100.985 1025.67 107.785 1030.01 L107.785 1034.64 Q101.159 1030.79 94.6193 1028.91 Q88.0511 1027 81.3671 1027 Q74.6831 1027 68.1727 1028.91 Q61.6623 1030.79 55.0072 1034.64 Z" fill="#000000" fill-rule="nonzero" fill-opacity="1" /><path clip-path="url(#clip940)" d="M1277.63 123.984 L1285.81 123.984 L1285.81 184.464 L1277.63 184.464 L1277.63 123.984 Z" fill="#000000" fill-rule="nonzero" fill-opacity="1" /><path clip-path="url(#clip940)" d="M1309.14 126.212 L1309.14 139.094 L1324.49 139.094 L1324.49 144.887 L1309.14 144.887 L1309.14 169.516 Q1309.14 175.066 1310.64 176.646 Q1312.18 178.226 1316.84 178.226 L1324.49 178.226 L1324.49 184.464 L1316.84 184.464 Q1308.21 184.464 1304.93 181.264 Q1301.65 178.023 1301.65 169.516 L1301.65 144.887 L1296.18 144.887 L1296.18 139.094 L1301.65 139.094 L1301.65 126.212 L1309.14 126.212 Z" fill="#000000" fill-rule="nonzero" fill-opacity="1" /><path clip-path="url(#clip940)" d="M1373.11 159.916 L1373.11 163.561 L1338.83 163.561 Q1339.32 171.258 1343.45 175.309 Q1347.63 179.319 1355.04 179.319 Q1359.33 179.319 1363.34 178.266 Q1367.39 177.213 1371.36 175.106 L1371.36 182.155 Q1367.35 183.856 1363.14 184.748 Q1358.93 185.639 1354.59 185.639 Q1343.74 185.639 1337.38 179.319 Q1331.06 173 1331.06 162.225 Q1331.06 151.085 1337.05 144.563 Q1343.09 138 1353.3 138 Q1362.45 138 1367.76 143.914 Q1373.11 149.788 1373.11 159.916 M1365.65 157.728 Q1365.57 151.611 1362.21 147.965 Q1358.89 144.32 1353.38 144.32 Q1347.14 144.32 1343.37 147.844 Q1339.65 151.368 1339.08 157.769 L1365.65 157.728 Z" fill="#000000" fill-rule="nonzero" fill-opacity="1" /><path clip-path="url(#clip940)" d="M1411.63 146.061 Q1410.37 145.332 1408.88 145.008 Q1407.42 144.644 1405.63 144.644 Q1399.31 144.644 1395.91 148.776 Q1392.55 152.867 1392.55 160.564 L1392.55 184.464 L1385.06 184.464 L1385.06 139.094 L1392.55 139.094 L1392.55 146.142 Q1394.9 142.011 1398.67 140.026 Q1402.43 138 1407.82 138 Q1408.59 138 1409.52 138.122 Q1410.45 138.203 1411.59 138.405 L1411.63 146.061 Z" fill="#000000" fill-rule="nonzero" fill-opacity="1" /><path clip-path="url(#clip940)" d="M1440.07 161.657 Q1431.03 161.657 1427.55 163.723 Q1424.07 165.789 1424.07 170.772 Q1424.07 174.742 1426.66 177.091 Q1429.29 179.4 1433.79 179.4 Q1439.99 179.4 1443.71 175.025 Q1447.48 170.61 1447.48 163.318 L1447.48 161.657 L1440.07 161.657 M1454.93 158.579 L1454.93 184.464 L1447.48 184.464 L1447.48 177.577 Q1444.93 181.709 1441.12 183.694 Q1437.31 185.639 1431.8 185.639 Q1424.84 185.639 1420.7 181.75 Q1416.61 177.821 1416.61 171.258 Q1416.61 163.602 1421.72 159.713 Q1426.86 155.824 1437.03 155.824 L1447.48 155.824 L1447.48 155.095 Q1447.48 149.95 1444.08 147.155 Q1440.72 144.32 1434.6 144.32 Q1430.71 144.32 1427.02 145.251 Q1423.34 146.183 1419.93 148.046 L1419.93 141.16 Q1424.03 139.58 1427.87 138.81 Q1431.72 138 1435.37 138 Q1445.21 138 1450.07 143.104 Q1454.93 148.208 1454.93 158.579 Z" fill="#000000" fill-rule="nonzero" fill-opacity="1" /><path clip-path="url(#clip940)" d="M1477.66 126.212 L1477.66 139.094 L1493.01 139.094 L1493.01 144.887 L1477.66 144.887 L1477.66 169.516 Q1477.66 175.066 1479.16 176.646 Q1480.7 178.226 1485.36 178.226 L1493.01 178.226 L1493.01 184.464 L1485.36 184.464 Q1476.73 184.464 1473.45 181.264 Q1470.17 178.023 1470.17 169.516 L1470.17 144.887 L1464.7 144.887 L1464.7 139.094 L1470.17 139.094 L1470.17 126.212 L1477.66 126.212 Z" fill="#000000" fill-rule="nonzero" fill-opacity="1" /><path clip-path="url(#clip940)" d="M1502.82 139.094 L1510.27 139.094 L1510.27 184.464 L1502.82 184.464 L1502.82 139.094 M1502.82 121.432 L1510.27 121.432 L1510.27 130.871 L1502.82 130.871 L1502.82 121.432 Z" fill="#000000" fill-rule="nonzero" fill-opacity="1" /><path clip-path="url(#clip940)" d="M1543.45 144.32 Q1537.45 144.32 1533.97 149.019 Q1530.48 153.677 1530.48 161.819 Q1530.48 169.962 1533.93 174.661 Q1537.41 179.319 1543.45 179.319 Q1549.4 179.319 1552.88 174.62 Q1556.37 169.921 1556.37 161.819 Q1556.37 153.758 1552.88 149.059 Q1549.4 144.32 1543.45 144.32 M1543.45 138 Q1553.17 138 1558.72 144.32 Q1564.27 150.639 1564.27 161.819 Q1564.27 172.959 1558.72 179.319 Q1553.17 185.639 1543.45 185.639 Q1533.68 185.639 1528.13 179.319 Q1522.62 172.959 1522.62 161.819 Q1522.62 150.639 1528.13 144.32 Q1533.68 138 1543.45 138 Z" fill="#000000" fill-rule="nonzero" fill-opacity="1" /><path clip-path="url(#clip940)" d="M1614.34 157.08 L1614.34 184.464 L1606.88 184.464 L1606.88 157.323 Q1606.88 150.882 1604.37 147.682 Q1601.86 144.482 1596.84 144.482 Q1590.8 144.482 1587.32 148.33 Q1583.83 152.178 1583.83 158.822 L1583.83 184.464 L1576.34 184.464 L1576.34 139.094 L1583.83 139.094 L1583.83 146.142 Q1586.51 142.051 1590.11 140.026 Q1593.76 138 1598.5 138 Q1606.32 138 1610.33 142.861 Q1614.34 147.682 1614.34 157.08 Z" fill="#000000" fill-rule="nonzero" fill-opacity="1" /><path clip-path="url(#clip940)" d="M1658.13 140.431 L1658.13 147.479 Q1654.97 145.859 1651.56 145.049 Q1648.16 144.239 1644.52 144.239 Q1638.97 144.239 1636.17 145.94 Q1633.42 147.641 1633.42 151.044 Q1633.42 153.637 1635.4 155.135 Q1637.39 156.594 1643.38 157.931 L1645.93 158.498 Q1653.87 160.199 1657.2 163.318 Q1660.56 166.397 1660.56 171.947 Q1660.56 178.266 1655.53 181.952 Q1650.55 185.639 1641.8 185.639 Q1638.16 185.639 1634.19 184.91 Q1630.26 184.221 1625.88 182.803 L1625.88 175.106 Q1630.01 177.253 1634.02 178.347 Q1638.03 179.4 1641.96 179.4 Q1647.23 179.4 1650.07 177.618 Q1652.9 175.795 1652.9 172.514 Q1652.9 169.476 1650.84 167.855 Q1648.81 166.235 1641.88 164.736 L1639.29 164.128 Q1632.36 162.67 1629.28 159.672 Q1626.21 156.634 1626.21 151.368 Q1626.21 144.968 1630.74 141.484 Q1635.28 138 1643.62 138 Q1647.76 138 1651.4 138.608 Q1655.05 139.215 1658.13 140.431 Z" fill="#000000" fill-rule="nonzero" fill-opacity="1" /><path clip-path="url(#clip940)" d="M1693.45 139.094 L1701.35 139.094 L1715.53 177.172 L1729.71 139.094 L1737.61 139.094 L1720.59 184.464 L1710.46 184.464 L1693.45 139.094 Z" fill="#000000" fill-rule="nonzero" fill-opacity="1" /><path clip-path="url(#clip940)" d="M1776.82 140.431 L1776.82 147.479 Q1773.66 145.859 1770.26 145.049 Q1766.85 144.239 1763.21 144.239 Q1757.66 144.239 1754.86 145.94 Q1752.11 147.641 1752.11 151.044 Q1752.11 153.637 1754.09 155.135 Q1756.08 156.594 1762.07 157.931 L1764.63 158.498 Q1772.57 160.199 1775.89 163.318 Q1779.25 166.397 1779.25 171.947 Q1779.25 178.266 1774.23 181.952 Q1769.24 185.639 1760.49 185.639 Q1756.85 185.639 1752.88 184.91 Q1748.95 184.221 1744.57 182.803 L1744.57 175.106 Q1748.71 177.253 1752.72 178.347 Q1756.73 179.4 1760.66 179.4 Q1765.92 179.4 1768.76 177.618 Q1771.59 175.795 1771.59 172.514 Q1771.59 169.476 1769.53 167.855 Q1767.5 166.235 1760.57 164.736 L1757.98 164.128 Q1751.05 162.67 1747.98 159.672 Q1744.9 156.634 1744.9 151.368 Q1744.9 144.968 1749.43 141.484 Q1753.97 138 1762.32 138 Q1766.45 138 1770.09 138.608 Q1773.74 139.215 1776.82 140.431 Z" fill="#000000" fill-rule="nonzero" fill-opacity="1" /><path clip-path="url(#clip940)" d="M1863.1 128.643 L1863.1 137.271 Q1858.97 133.423 1854.27 131.519 Q1849.61 129.615 1844.35 129.615 Q1833.98 129.615 1828.47 135.975 Q1822.96 142.294 1822.96 154.285 Q1822.96 166.235 1828.47 172.595 Q1833.98 178.914 1844.35 178.914 Q1849.61 178.914 1854.27 177.01 Q1858.97 175.106 1863.1 171.258 L1863.1 179.805 Q1858.81 182.722 1853.99 184.18 Q1849.21 185.639 1843.86 185.639 Q1830.13 185.639 1822.23 177.253 Q1814.33 168.828 1814.33 154.285 Q1814.33 139.702 1822.23 131.316 Q1830.13 122.89 1843.86 122.89 Q1849.29 122.89 1854.07 124.349 Q1858.89 125.766 1863.1 128.643 Z" fill="#000000" fill-rule="nonzero" fill-opacity="1" /><path clip-path="url(#clip940)" d="M1883.92 130.709 L1883.92 153.434 L1894.21 153.434 Q1899.93 153.434 1903.04 150.477 Q1906.16 147.52 1906.16 142.051 Q1906.16 136.623 1903.04 133.666 Q1899.93 130.709 1894.21 130.709 L1883.92 130.709 M1875.74 123.984 L1894.21 123.984 Q1904.38 123.984 1909.57 128.602 Q1914.79 133.18 1914.79 142.051 Q1914.79 151.004 1909.57 155.581 Q1904.38 160.159 1894.21 160.159 L1883.92 160.159 L1883.92 184.464 L1875.74 184.464 L1875.74 123.984 Z" fill="#000000" fill-rule="nonzero" fill-opacity="1" /><path clip-path="url(#clip940)" d="M1924.84 123.984 L1933.06 123.984 L1933.06 160.726 Q1933.06 170.448 1936.59 174.742 Q1940.11 178.995 1948.01 178.995 Q1955.87 178.995 1959.39 174.742 Q1962.92 170.448 1962.92 160.726 L1962.92 123.984 L1971.14 123.984 L1971.14 161.738 Q1971.14 173.567 1965.27 179.603 Q1959.43 185.639 1948.01 185.639 Q1936.55 185.639 1930.67 179.603 Q1924.84 173.567 1924.84 161.738 L1924.84 123.984 Z" fill="#000000" fill-rule="nonzero" fill-opacity="1" /><path clip-path="url(#clip940)" d="M2019.91 126.212 L2019.91 139.094 L2035.27 139.094 L2035.27 144.887 L2019.91 144.887 L2019.91 169.516 Q2019.91 175.066 2021.41 176.646 Q2022.95 178.226 2027.61 178.226 L2035.27 178.226 L2035.27 184.464 L2027.61 184.464 Q2018.98 184.464 2015.7 181.264 Q2012.42 178.023 2012.42 169.516 L2012.42 144.887 L2006.95 144.887 L2006.95 139.094 L2012.42 139.094 L2012.42 126.212 L2019.91 126.212 Z" fill="#000000" fill-rule="nonzero" fill-opacity="1" /><path clip-path="url(#clip940)" d="M2045.07 139.094 L2052.52 139.094 L2052.52 184.464 L2045.07 184.464 L2045.07 139.094 M2045.07 121.432 L2052.52 121.432 L2052.52 130.871 L2045.07 130.871 L2045.07 121.432 Z" fill="#000000" fill-rule="nonzero" fill-opacity="1" /><path clip-path="url(#clip940)" d="M2103.44 147.803 Q2106.24 142.78 2110.13 140.39 Q2114.02 138 2119.28 138 Q2126.37 138 2130.22 142.983 Q2134.07 147.925 2134.07 157.08 L2134.07 184.464 L2126.57 184.464 L2126.57 157.323 Q2126.57 150.801 2124.26 147.641 Q2121.96 144.482 2117.22 144.482 Q2111.42 144.482 2108.06 148.33 Q2104.7 152.178 2104.7 158.822 L2104.7 184.464 L2097.2 184.464 L2097.2 157.323 Q2097.2 150.76 2094.9 147.641 Q2092.59 144.482 2087.77 144.482 Q2082.05 144.482 2078.69 148.37 Q2075.33 152.219 2075.33 158.822 L2075.33 184.464 L2067.84 184.464 L2067.84 139.094 L2075.33 139.094 L2075.33 146.142 Q2077.88 141.97 2081.45 139.985 Q2085.01 138 2089.91 138 Q2094.86 138 2098.3 140.512 Q2101.78 143.023 2103.44 147.803 Z" fill="#000000" fill-rule="nonzero" fill-opacity="1" /><path clip-path="url(#clip940)" d="M2187.74 159.916 L2187.74 163.561 L2153.47 163.561 Q2153.96 171.258 2158.09 175.309 Q2162.26 179.319 2169.68 179.319 Q2173.97 179.319 2177.98 178.266 Q2182.03 177.213 2186 175.106 L2186 182.155 Q2181.99 183.856 2177.78 184.748 Q2173.56 185.639 2169.23 185.639 Q2158.37 185.639 2152.01 179.319 Q2145.69 173 2145.69 162.225 Q2145.69 151.085 2151.69 144.563 Q2157.73 138 2167.93 138 Q2177.09 138 2182.4 143.914 Q2187.74 149.788 2187.74 159.916 M2180.29 157.728 Q2180.21 151.611 2176.85 147.965 Q2173.52 144.32 2168.01 144.32 Q2161.78 144.32 2158.01 147.844 Q2154.28 151.368 2153.71 157.769 L2180.29 157.728 Z" fill="#000000" fill-rule="nonzero" fill-opacity="1" /><path clip-path="url(#clip940)" d="M2222.58 158.822 L2297.44 158.822 L2297.44 164.655 L2222.58 164.655 L2222.58 158.822 Z" fill="#000000" fill-rule="nonzero" fill-opacity="1" /><path clip-path="url(#clip940)" d="M2335.68 139.094 L2343.14 139.094 L2343.14 185.274 Q2343.14 193.943 2339.81 197.832 Q2336.53 201.721 2329.2 201.721 L2326.36 201.721 L2326.36 195.401 L2328.35 195.401 Q2332.6 195.401 2334.14 193.416 Q2335.68 191.472 2335.68 185.274 L2335.68 139.094 M2335.68 121.432 L2343.14 121.432 L2343.14 130.871 L2335.68 130.871 L2335.68 121.432 Z" fill="#000000" fill-rule="nonzero" fill-opacity="1" /><path clip-path="url(#clip940)" d="M2379.35 161.657 Q2370.32 161.657 2366.83 163.723 Q2363.35 165.789 2363.35 170.772 Q2363.35 174.742 2365.94 177.091 Q2368.57 179.4 2373.07 179.4 Q2379.27 179.4 2383 175.025 Q2386.76 170.61 2386.76 163.318 L2386.76 161.657 L2379.35 161.657 M2394.22 158.579 L2394.22 184.464 L2386.76 184.464 L2386.76 177.577 Q2384.21 181.709 2380.4 183.694 Q2376.6 185.639 2371.09 185.639 Q2364.12 185.639 2359.99 181.75 Q2355.9 177.821 2355.9 171.258 Q2355.9 163.602 2361 159.713 Q2366.14 155.824 2376.31 155.824 L2386.76 155.824 L2386.76 155.095 Q2386.76 149.95 2383.36 147.155 Q2380 144.32 2373.88 144.32 Q2369.99 144.32 2366.31 145.251 Q2362.62 146.183 2359.22 148.046 L2359.22 141.16 Q2363.31 139.58 2367.16 138.81 Q2371.01 138 2374.65 138 Q2384.49 138 2389.36 143.104 Q2394.22 148.208 2394.22 158.579 Z" fill="#000000" fill-rule="nonzero" fill-opacity="1" /><path clip-path="url(#clip940)" d="M2442.22 140.836 L2442.22 147.803 Q2439.06 146.061 2435.86 145.211 Q2432.7 144.32 2429.46 144.32 Q2422.21 144.32 2418.2 148.938 Q2414.19 153.515 2414.19 161.819 Q2414.19 170.124 2418.2 174.742 Q2422.21 179.319 2429.46 179.319 Q2432.7 179.319 2435.86 178.469 Q2439.06 177.577 2442.22 175.836 L2442.22 182.722 Q2439.1 184.18 2435.74 184.91 Q2432.42 185.639 2428.65 185.639 Q2418.4 185.639 2412.37 179.198 Q2406.33 172.757 2406.33 161.819 Q2406.33 150.72 2412.41 144.36 Q2418.52 138 2429.14 138 Q2432.58 138 2435.86 138.729 Q2439.14 139.418 2442.22 140.836 Z" fill="#000000" fill-rule="nonzero" fill-opacity="1" /><path clip-path="url(#clip940)" d="M2454.9 121.432 L2462.39 121.432 L2462.39 158.66 L2484.63 139.094 L2494.15 139.094 L2470.09 160.321 L2495.17 184.464 L2485.44 184.464 L2462.39 162.306 L2462.39 184.464 L2454.9 184.464 L2454.9 121.432 Z" fill="#000000" fill-rule="nonzero" fill-opacity="1" /><path clip-path="url(#clip940)" d="M2532.15 140.431 L2532.15 147.479 Q2528.99 145.859 2525.59 145.049 Q2522.19 144.239 2518.54 144.239 Q2512.99 144.239 2510.19 145.94 Q2507.44 147.641 2507.44 151.044 Q2507.44 153.637 2509.42 155.135 Q2511.41 156.594 2517.4 157.931 L2519.96 158.498 Q2527.9 160.199 2531.22 163.318 Q2534.58 166.397 2534.58 171.947 Q2534.58 178.266 2529.56 181.952 Q2524.58 185.639 2515.83 185.639 Q2512.18 185.639 2508.21 184.91 Q2504.28 184.221 2499.91 182.803 L2499.91 175.106 Q2504.04 177.253 2508.05 178.347 Q2512.06 179.4 2515.99 179.4 Q2521.25 179.4 2524.09 177.618 Q2526.92 175.795 2526.92 172.514 Q2526.92 169.476 2524.86 167.855 Q2522.83 166.235 2515.91 164.736 L2513.31 164.128 Q2506.39 162.67 2503.31 159.672 Q2500.23 156.634 2500.23 151.368 Q2500.23 144.968 2504.77 141.484 Q2509.3 138 2517.65 138 Q2521.78 138 2525.43 138.608 Q2529.07 139.215 2532.15 140.431 Z" fill="#000000" fill-rule="nonzero" fill-opacity="1" /><path clip-path="url(#clip940)" d="M2564.03 144.32 Q2558.04 144.32 2554.55 149.019 Q2551.07 153.677 2551.07 161.819 Q2551.07 169.962 2554.51 174.661 Q2558 179.319 2564.03 179.319 Q2569.99 179.319 2573.47 174.62 Q2576.95 169.921 2576.95 161.819 Q2576.95 153.758 2573.47 149.059 Q2569.99 144.32 2564.03 144.32 M2564.03 138 Q2573.75 138 2579.3 144.32 Q2584.85 150.639 2584.85 161.819 Q2584.85 172.959 2579.3 179.319 Q2573.75 185.639 2564.03 185.639 Q2554.27 185.639 2548.72 179.319 Q2543.21 172.959 2543.21 161.819 Q2543.21 150.639 2548.72 144.32 Q2554.27 138 2564.03 138 Z" fill="#000000" fill-rule="nonzero" fill-opacity="1" /><path clip-path="url(#clip940)" d="M2634.92 157.08 L2634.92 184.464 L2627.47 184.464 L2627.47 157.323 Q2627.47 150.882 2624.96 147.682 Q2622.44 144.482 2617.42 144.482 Q2611.39 144.482 2607.9 148.33 Q2604.42 152.178 2604.42 158.822 L2604.42 184.464 L2596.92 184.464 L2596.92 139.094 L2604.42 139.094 L2604.42 146.142 Q2607.09 142.051 2610.7 140.026 Q2614.34 138 2619.08 138 Q2626.9 138 2630.91 142.861 Q2634.92 147.682 2634.92 157.08 Z" fill="#000000" fill-rule="nonzero" fill-opacity="1" /><path clip-path="url(#clip942)" d="M2250.6 1763.29 L2202.6 1763.29 L2226.6 1811.29 L2250.6 1763.29 Z" fill="#9370db" fill-rule="evenodd" fill-opacity="1" stroke="none"/>
<path clip-path="url(#clip942)" d="M3486.39 965.643 L3438.39 965.643 L3462.39 1013.64 L3486.39 965.643 Z" fill="#9370db" fill-rule="evenodd" fill-opacity="1" stroke="none"/>
<path clip-path="url(#clip942)" d="M628.632 1353.55 L580.632 1353.55 L604.632 1401.55 L628.632 1353.55 Z" fill="#9370db" fill-rule="evenodd" fill-opacity="1" stroke="none"/>
<path clip-path="url(#clip942)" d="M474.158 1000.88 L426.158 1000.88 L450.158 1048.88 L474.158 1000.88 Z" fill="#9370db" fill-rule="evenodd" fill-opacity="1" stroke="none"/>
<circle clip-path="url(#clip942)" cx="2226.6" cy="1573.01" r="21.6" fill="#4682b4" fill-rule="evenodd" fill-opacity="1" stroke="none"/>
<circle clip-path="url(#clip942)" cx="3462.39" cy="781.067" r="21.6" fill="#4682b4" fill-rule="evenodd" fill-opacity="1" stroke="none"/>
<circle clip-path="url(#clip942)" cx="604.632" cy="1054.09" r="21.6" fill="#4682b4" fill-rule="evenodd" fill-opacity="1" stroke="none"/>
<circle clip-path="url(#clip942)" cx="450.158" cy="460.77" r="21.6" fill="#4682b4" fill-rule="evenodd" fill-opacity="1" stroke="none"/>
<path clip-path="url(#clip942)" d="M2202.6 1710.87 L2202.6 1758.87 L2250.6 1758.87 L2250.6 1710.87 L2202.6 1710.87 Z" fill="#ff6347" fill-rule="evenodd" fill-opacity="1" stroke="none"/>
<path clip-path="url(#clip942)" d="M3438.39 931.614 L3438.39 979.614 L3486.39 979.614 L3486.39 931.614 L3438.39 931.614 Z" fill="#ff6347" fill-rule="evenodd" fill-opacity="1" stroke="none"/>
<path clip-path="url(#clip942)" d="M580.632 1330.78 L580.632 1378.78 L628.632 1378.78 L628.632 1330.78 L580.632 1330.78 Z" fill="#ff6347" fill-rule="evenodd" fill-opacity="1" stroke="none"/>
<path clip-path="url(#clip942)" d="M426.158 984.109 L426.158 1032.11 L474.158 1032.11 L474.158 984.109 L426.158 984.109 Z" fill="#ff6347" fill-rule="evenodd" fill-opacity="1" stroke="none"/>
<path clip-path="url(#clip942)" d="M2072.13 2060.89 L2066.49 2077.12 L2049.3 2077.48 L2063.01 2087.87 L2058.02 2104.31 L2072.13 2094.49 L2086.24 2104.31 L2081.25 2087.87 L2094.95 2077.48 L2077.77 2077.12 L2072.13 2060.89 Z" fill="#a0522d" fill-rule="evenodd" fill-opacity="1" stroke="none"/>
<path clip-path="url(#clip942)" d="M681.868 2078.46 L676.228 2094.69 L659.044 2095.05 L672.748 2105.44 L667.756 2121.88 L681.868 2112.06 L695.98 2121.88 L690.988 2105.44 L704.692 2095.05 L687.508 2094.69 L681.868 2078.46 Z" fill="#a0522d" fill-rule="evenodd" fill-opacity="1" stroke="none"/>
<path clip-path="url(#clip942)" d="M759.105 1580.24 L753.465 1596.47 L736.281 1596.83 L749.985 1607.22 L744.993 1623.66 L759.105 1613.84 L773.217 1623.66 L768.225 1607.22 L781.929 1596.83 L764.745 1596.47 L759.105 1580.24 Z" fill="#a0522d" fill-rule="evenodd" fill-opacity="1" stroke="none"/>
<path clip-path="url(#clip942)" d="M759.105 985.099 L753.465 1001.32 L736.281 1001.68 L749.985 1012.08 L744.993 1028.52 L759.105 1018.7 L773.217 1028.52 L768.225 1012.08 L781.929 1001.68 L764.745 1001.32 L759.105 985.099 Z" fill="#a0522d" fill-rule="evenodd" fill-opacity="1" stroke="none"/>
<path clip-path="url(#clip942)" d="M2072.13 1723.29 L2048.13 1747.29 L2072.13 1771.29 L2096.13 1747.29 L2072.13 1723.29 Z" fill="#2e8b57" fill-rule="evenodd" fill-opacity="1" stroke="none"/>
<path clip-path="url(#clip942)" d="M681.868 1617.61 L657.868 1641.61 L681.868 1665.61 L705.868 1641.61 L681.868 1617.61 Z" fill="#2e8b57" fill-rule="evenodd" fill-opacity="1" stroke="none"/>
<path clip-path="url(#clip942)" d="M759.105 997.621 L735.105 1021.62 L759.105 1045.62 L783.105 1021.62 L759.105 997.621 Z" fill="#2e8b57" fill-rule="evenodd" fill-opacity="1" stroke="none"/>
<path clip-path="url(#clip942)" d="M759.105 276.989 L735.105 300.989 L759.105 324.989 L783.105 300.989 L759.105 276.989 Z" fill="#2e8b57" fill-rule="evenodd" fill-opacity="1" stroke="none"/>
<path clip-path="url(#clip942)" d="M2072.13 2023.56 L2048.13 2071.56 L2096.13 2071.56 L2072.13 2023.56 Z" fill="#ff8c00" fill-rule="evenodd" fill-opacity="1" stroke="none"/>
<path clip-path="url(#clip942)" d="M681.868 2052.26 L657.868 2100.26 L705.868 2100.26 L681.868 2052.26 Z" fill="#ff8c00" fill-rule="evenodd" fill-opacity="1" stroke="none"/>
<path clip-path="url(#clip942)" d="M759.105 1565.53 L735.105 1613.53 L783.105 1613.53 L759.105 1565.53 Z" fill="#ff8c00" fill-rule="evenodd" fill-opacity="1" stroke="none"/>
<path clip-path="url(#clip942)" d="M759.105 903.166 L735.105 951.166 L783.105 951.166 L759.105 903.166 Z" fill="#ff8c00" fill-rule="evenodd" fill-opacity="1" stroke="none"/>
<path clip-path="url(#clip940)" d="M2756.96 673.476 L3446.32 673.476 L3446.32 310.596 L2756.96 310.596  Z" fill="#ffffff" fill-rule="evenodd" fill-opacity="1"/>
<polyline clip-path="url(#clip940)" style="stroke:#000000; stroke-linecap:round; stroke-linejoin:round; stroke-width:4; stroke-opacity:1; fill:none" points="2756.96,673.476 3446.32,673.476 3446.32,310.596 2756.96,310.596 2756.96,673.476 "/>
<path clip-path="url(#clip940)" d="M2924.47 336.836 L2873.27 336.836 L2898.87 388.036 L2924.47 336.836 Z" fill="#9370db" fill-rule="evenodd" fill-opacity="1" stroke="none"/>
<path clip-path="url(#clip940)" d="M3051.4 343.744 Q3048.3 349.068 3046.8 354.277 Q3045.29 359.485 3045.29 364.832 Q3045.29 370.179 3046.8 375.434 Q3048.33 380.665 3051.4 385.966 L3047.7 385.966 Q3044.23 380.527 3042.49 375.272 Q3040.78 370.017 3040.78 364.832 Q3040.78 359.67 3042.49 354.439 Q3044.2 349.207 3047.7 343.744 L3051.4 343.744 Z" fill="#000000" fill-rule="nonzero" fill-opacity="1" /><path clip-path="url(#clip940)" d="M3059.67 353.791 L3063.93 353.791 L3063.93 380.179 Q3063.93 385.133 3062.03 387.355 Q3060.15 389.577 3055.96 389.577 L3054.34 389.577 L3054.34 385.966 L3055.48 385.966 Q3057.91 385.966 3058.79 384.832 Q3059.67 383.721 3059.67 380.179 L3059.67 353.791 M3059.67 343.698 L3063.93 343.698 L3063.93 349.092 L3059.67 349.092 L3059.67 343.698 Z" fill="#000000" fill-rule="nonzero" fill-opacity="1" /><path clip-path="url(#clip940)" d="M3072.4 369.485 L3072.4 353.791 L3076.66 353.791 L3076.66 369.323 Q3076.66 373.003 3078.09 374.855 Q3079.53 376.684 3082.4 376.684 Q3085.85 376.684 3087.84 374.485 Q3089.85 372.286 3089.85 368.49 L3089.85 353.791 L3094.11 353.791 L3094.11 379.716 L3089.85 379.716 L3089.85 375.735 Q3088.3 378.096 3086.24 379.253 Q3084.2 380.388 3081.5 380.388 Q3077.03 380.388 3074.71 377.61 Q3072.4 374.832 3072.4 369.485 M3083.12 353.166 L3083.12 353.166 Z" fill="#000000" fill-rule="nonzero" fill-opacity="1" /><path clip-path="url(#clip940)" d="M3123.07 358.767 Q3124.67 355.897 3126.89 354.531 Q3129.11 353.166 3132.12 353.166 Q3136.17 353.166 3138.37 356.013 Q3140.57 358.837 3140.57 364.068 L3140.57 379.716 L3136.29 379.716 L3136.29 364.207 Q3136.29 360.48 3134.97 358.675 Q3133.65 356.869 3130.94 356.869 Q3127.63 356.869 3125.71 359.068 Q3123.79 361.267 3123.79 365.064 L3123.79 379.716 L3119.51 379.716 L3119.51 364.207 Q3119.51 360.457 3118.19 358.675 Q3116.87 356.869 3114.11 356.869 Q3110.85 356.869 3108.93 359.091 Q3107.01 361.291 3107.01 365.064 L3107.01 379.716 L3102.72 379.716 L3102.72 353.791 L3107.01 353.791 L3107.01 357.818 Q3108.46 355.434 3110.5 354.3 Q3112.54 353.166 3115.34 353.166 Q3118.16 353.166 3120.13 354.601 Q3122.12 356.036 3123.07 358.767 Z" fill="#000000" fill-rule="nonzero" fill-opacity="1" /><path clip-path="url(#clip940)" d="M3153.19 375.827 L3153.19 389.577 L3148.9 389.577 L3148.9 353.791 L3153.19 353.791 L3153.19 357.726 Q3154.53 355.411 3156.57 354.3 Q3158.63 353.166 3161.47 353.166 Q3166.19 353.166 3169.13 356.916 Q3172.1 360.666 3172.1 366.777 Q3172.1 372.888 3169.13 376.638 Q3166.19 380.388 3161.47 380.388 Q3158.63 380.388 3156.57 379.277 Q3154.53 378.142 3153.19 375.827 M3167.68 366.777 Q3167.68 362.078 3165.73 359.416 Q3163.81 356.73 3160.43 356.73 Q3157.05 356.73 3155.11 359.416 Q3153.19 362.078 3153.19 366.777 Q3153.19 371.476 3155.11 374.161 Q3157.05 376.823 3160.43 376.823 Q3163.81 376.823 3165.73 374.161 Q3167.68 371.476 3167.68 366.777 Z" fill="#000000" fill-rule="nonzero" fill-opacity="1" /><path clip-path="url(#clip940)" d="M3180.25 373.837 L3185.13 373.837 L3185.13 377.818 L3181.33 385.226 L3178.35 385.226 L3180.25 377.818 L3180.25 373.837 Z" fill="#000000" fill-rule="nonzero" fill-opacity="1" /><path clip-path="url(#clip940)" d="M3209.3 353.791 L3213.56 353.791 L3213.56 379.716 L3209.3 379.716 L3209.3 353.791 M3209.3 343.698 L3213.56 343.698 L3213.56 349.092 L3209.3 349.092 L3209.3 343.698 Z" fill="#000000" fill-rule="nonzero" fill-opacity="1" /><path clip-path="url(#clip940)" d="M3226.59 375.827 L3226.59 389.577 L3222.31 389.577 L3222.31 353.791 L3226.59 353.791 L3226.59 357.726 Q3227.93 355.411 3229.97 354.3 Q3232.03 353.166 3234.88 353.166 Q3239.6 353.166 3242.54 356.916 Q3245.5 360.666 3245.5 366.777 Q3245.5 372.888 3242.54 376.638 Q3239.6 380.388 3234.88 380.388 Q3232.03 380.388 3229.97 379.277 Q3227.93 378.142 3226.59 375.827 M3241.08 366.777 Q3241.08 362.078 3239.13 359.416 Q3237.21 356.73 3233.83 356.73 Q3230.45 356.73 3228.51 359.416 Q3226.59 362.078 3226.59 366.777 Q3226.59 371.476 3228.51 374.161 Q3230.45 376.823 3233.83 376.823 Q3237.21 376.823 3239.13 374.161 Q3241.08 371.476 3241.08 366.777 Z" fill="#000000" fill-rule="nonzero" fill-opacity="1" /><path clip-path="url(#clip940)" d="M3262.61 356.777 Q3259.18 356.777 3257.19 359.462 Q3255.2 362.124 3255.2 366.777 Q3255.2 371.429 3257.17 374.115 Q3259.16 376.777 3262.61 376.777 Q3266.01 376.777 3268 374.091 Q3269.99 371.406 3269.99 366.777 Q3269.99 362.17 3268 359.485 Q3266.01 356.777 3262.61 356.777 M3262.61 353.166 Q3268.16 353.166 3271.33 356.777 Q3274.5 360.388 3274.5 366.777 Q3274.5 373.142 3271.33 376.777 Q3268.16 380.388 3262.61 380.388 Q3257.03 380.388 3253.86 376.777 Q3250.71 373.142 3250.71 366.777 Q3250.71 360.388 3253.86 356.777 Q3257.03 353.166 3262.61 353.166 Z" fill="#000000" fill-rule="nonzero" fill-opacity="1" /><path clip-path="url(#clip940)" d="M3285.69 375.827 L3285.69 389.577 L3281.4 389.577 L3281.4 353.791 L3285.69 353.791 L3285.69 357.726 Q3287.03 355.411 3289.06 354.3 Q3291.12 353.166 3293.97 353.166 Q3298.69 353.166 3301.63 356.916 Q3304.6 360.666 3304.6 366.777 Q3304.6 372.888 3301.63 376.638 Q3298.69 380.388 3293.97 380.388 Q3291.12 380.388 3289.06 379.277 Q3287.03 378.142 3285.69 375.827 M3300.18 366.777 Q3300.18 362.078 3298.23 359.416 Q3296.31 356.73 3292.93 356.73 Q3289.55 356.73 3287.61 359.416 Q3285.69 362.078 3285.69 366.777 Q3285.69 371.476 3287.61 374.161 Q3289.55 376.823 3292.93 376.823 Q3296.31 376.823 3298.23 374.161 Q3300.18 371.476 3300.18 366.777 Z" fill="#000000" fill-rule="nonzero" fill-opacity="1" /><path clip-path="url(#clip940)" d="M3315.87 346.43 L3315.87 353.791 L3324.64 353.791 L3324.64 357.101 L3315.87 357.101 L3315.87 371.175 Q3315.87 374.346 3316.73 375.249 Q3317.61 376.152 3320.27 376.152 L3324.64 376.152 L3324.64 379.716 L3320.27 379.716 Q3315.34 379.716 3313.46 377.888 Q3311.59 376.036 3311.59 371.175 L3311.59 357.101 L3308.46 357.101 L3308.46 353.791 L3311.59 353.791 L3311.59 346.43 L3315.87 346.43 Z" fill="#000000" fill-rule="nonzero" fill-opacity="1" /><path clip-path="url(#clip940)" d="M3329.57 343.744 L3333.28 343.744 Q3336.75 349.207 3338.46 354.439 Q3340.2 359.67 3340.2 364.832 Q3340.2 370.017 3338.46 375.272 Q3336.75 380.527 3333.28 385.966 L3329.57 385.966 Q3332.65 380.665 3334.16 375.434 Q3335.68 370.179 3335.68 364.832 Q3335.68 359.485 3334.16 354.277 Q3332.65 349.068 3329.57 343.744 Z" fill="#000000" fill-rule="nonzero" fill-opacity="1" /><circle clip-path="url(#clip940)" cx="2898.87" cy="414.276" r="23.04" fill="#4682b4" fill-rule="evenodd" fill-opacity="1" stroke="none"/>
<path clip-path="url(#clip940)" d="M3051.4 395.584 Q3048.3 400.908 3046.8 406.117 Q3045.29 411.325 3045.29 416.672 Q3045.29 422.019 3046.8 427.274 Q3048.33 432.505 3051.4 437.806 L3047.7 437.806 Q3044.23 432.367 3042.49 427.112 Q3040.78 421.857 3040.78 416.672 Q3040.78 411.51 3042.49 406.279 Q3044.2 401.047 3047.7 395.584 L3051.4 395.584 Z" fill="#000000" fill-rule="nonzero" fill-opacity="1" /><path clip-path="url(#clip940)" d="M3071.45 418.524 Q3066.29 418.524 3064.3 419.705 Q3062.31 420.885 3062.31 423.732 Q3062.31 426.001 3063.79 427.343 Q3065.29 428.663 3067.86 428.663 Q3071.4 428.663 3073.53 426.163 Q3075.69 423.64 3075.69 419.473 L3075.69 418.524 L3071.45 418.524 M3079.95 416.765 L3079.95 431.556 L3075.69 431.556 L3075.69 427.621 Q3074.23 429.982 3072.05 431.117 Q3069.88 432.228 3066.73 432.228 Q3062.75 432.228 3060.39 430.005 Q3058.05 427.76 3058.05 424.01 Q3058.05 419.635 3060.96 417.413 Q3063.9 415.191 3069.71 415.191 L3075.69 415.191 L3075.69 414.774 Q3075.69 411.834 3073.74 410.237 Q3071.82 408.617 3068.33 408.617 Q3066.1 408.617 3064 409.149 Q3061.89 409.681 3059.95 410.746 L3059.95 406.811 Q3062.28 405.908 3064.48 405.469 Q3066.68 405.006 3068.76 405.006 Q3074.39 405.006 3077.17 407.922 Q3079.95 410.839 3079.95 416.765 Z" fill="#000000" fill-rule="nonzero" fill-opacity="1" /><path clip-path="url(#clip940)" d="M3105.78 409.566 L3105.78 395.538 L3110.04 395.538 L3110.04 431.556 L3105.78 431.556 L3105.78 427.667 Q3104.44 429.982 3102.38 431.117 Q3100.34 432.228 3097.47 432.228 Q3092.77 432.228 3089.81 428.478 Q3086.87 424.728 3086.87 418.617 Q3086.87 412.506 3089.81 408.756 Q3092.77 405.006 3097.47 405.006 Q3100.34 405.006 3102.38 406.14 Q3104.44 407.251 3105.78 409.566 M3091.26 418.617 Q3091.26 423.316 3093.19 426.001 Q3095.13 428.663 3098.51 428.663 Q3101.89 428.663 3103.83 426.001 Q3105.78 423.316 3105.78 418.617 Q3105.78 413.918 3103.83 411.256 Q3101.89 408.57 3098.51 408.57 Q3095.13 408.57 3093.19 411.256 Q3091.26 413.918 3091.26 418.617 Z" fill="#000000" fill-rule="nonzero" fill-opacity="1" /><path clip-path="url(#clip940)" d="M3140.36 415.908 L3140.36 431.556 L3136.1 431.556 L3136.1 416.047 Q3136.1 412.367 3134.67 410.538 Q3133.23 408.709 3130.36 408.709 Q3126.91 408.709 3124.92 410.908 Q3122.93 413.107 3122.93 416.904 L3122.93 431.556 L3118.65 431.556 L3118.65 405.631 L3122.93 405.631 L3122.93 409.658 Q3124.46 407.32 3126.52 406.163 Q3128.6 405.006 3131.31 405.006 Q3135.78 405.006 3138.07 407.783 Q3140.36 410.538 3140.36 415.908 Z" fill="#000000" fill-rule="nonzero" fill-opacity="1" /><path clip-path="url(#clip940)" d="M3148.86 395.538 L3153.12 395.538 L3153.12 431.556 L3148.86 431.556 L3148.86 395.538 Z" fill="#000000" fill-rule="nonzero" fill-opacity="1" /><path clip-path="url(#clip940)" d="M3166.15 427.667 L3166.15 441.417 L3161.87 441.417 L3161.87 405.631 L3166.15 405.631 L3166.15 409.566 Q3167.49 407.251 3169.53 406.14 Q3171.59 405.006 3174.44 405.006 Q3179.16 405.006 3182.1 408.756 Q3185.06 412.506 3185.06 418.617 Q3185.06 424.728 3182.1 428.478 Q3179.16 432.228 3174.44 432.228 Q3171.59 432.228 3169.53 431.117 Q3167.49 429.982 3166.15 427.667 M3180.64 418.617 Q3180.64 413.918 3178.69 411.256 Q3176.77 408.57 3173.39 408.57 Q3170.01 408.57 3168.07 411.256 Q3166.15 413.918 3166.15 418.617 Q3166.15 423.316 3168.07 426.001 Q3170.01 428.663 3173.39 428.663 Q3176.77 428.663 3178.69 426.001 Q3180.64 423.316 3180.64 418.617 Z" fill="#000000" fill-rule="nonzero" fill-opacity="1" /><path clip-path="url(#clip940)" d="M3193.21 425.677 L3198.09 425.677 L3198.09 429.658 L3194.3 437.066 L3191.31 437.066 L3193.21 429.658 L3193.21 425.677 Z" fill="#000000" fill-rule="nonzero" fill-opacity="1" /><path clip-path="url(#clip940)" d="M3222.26 405.631 L3226.52 405.631 L3226.52 431.556 L3222.26 431.556 L3222.26 405.631 M3222.26 395.538 L3226.52 395.538 L3226.52 400.932 L3222.26 400.932 L3222.26 395.538 Z" fill="#000000" fill-rule="nonzero" fill-opacity="1" /><path clip-path="url(#clip940)" d="M3239.55 427.667 L3239.55 441.417 L3235.27 441.417 L3235.27 405.631 L3239.55 405.631 L3239.55 409.566 Q3240.89 407.251 3242.93 406.14 Q3244.99 405.006 3247.84 405.006 Q3252.56 405.006 3255.5 408.756 Q3258.46 412.506 3258.46 418.617 Q3258.46 424.728 3255.5 428.478 Q3252.56 432.228 3247.84 432.228 Q3244.99 432.228 3242.93 431.117 Q3240.89 429.982 3239.55 427.667 M3254.04 418.617 Q3254.04 413.918 3252.1 411.256 Q3250.18 408.57 3246.8 408.57 Q3243.42 408.57 3241.47 411.256 Q3239.55 413.918 3239.55 418.617 Q3239.55 423.316 3241.47 426.001 Q3243.42 428.663 3246.8 428.663 Q3250.18 428.663 3252.1 426.001 Q3254.04 423.316 3254.04 418.617 Z" fill="#000000" fill-rule="nonzero" fill-opacity="1" /><path clip-path="url(#clip940)" d="M3275.57 408.617 Q3272.14 408.617 3270.15 411.302 Q3268.16 413.964 3268.16 418.617 Q3268.16 423.269 3270.13 425.955 Q3272.12 428.617 3275.57 428.617 Q3278.97 428.617 3280.96 425.931 Q3282.95 423.246 3282.95 418.617 Q3282.95 414.01 3280.96 411.325 Q3278.97 408.617 3275.57 408.617 M3275.57 405.006 Q3281.12 405.006 3284.3 408.617 Q3287.47 412.228 3287.47 418.617 Q3287.47 424.982 3284.3 428.617 Q3281.12 432.228 3275.57 432.228 Q3269.99 432.228 3266.82 428.617 Q3263.67 424.982 3263.67 418.617 Q3263.67 412.228 3266.82 408.617 Q3269.99 405.006 3275.57 405.006 Z" fill="#000000" fill-rule="nonzero" fill-opacity="1" /><path clip-path="url(#clip940)" d="M3298.65 427.667 L3298.65 441.417 L3294.37 441.417 L3294.37 405.631 L3298.65 405.631 L3298.65 409.566 Q3299.99 407.251 3302.03 406.14 Q3304.09 405.006 3306.93 405.006 Q3311.66 405.006 3314.6 408.756 Q3317.56 412.506 3317.56 418.617 Q3317.56 424.728 3314.6 428.478 Q3311.66 432.228 3306.93 432.228 Q3304.09 432.228 3302.03 431.117 Q3299.99 429.982 3298.65 427.667 M3313.14 418.617 Q3313.14 413.918 3311.19 411.256 Q3309.27 408.57 3305.89 408.57 Q3302.51 408.57 3300.57 411.256 Q3298.65 413.918 3298.65 418.617 Q3298.65 423.316 3300.57 426.001 Q3302.51 428.663 3305.89 428.663 Q3309.27 428.663 3311.19 426.001 Q3313.14 423.316 3313.14 418.617 Z" fill="#000000" fill-rule="nonzero" fill-opacity="1" /><path clip-path="url(#clip940)" d="M3328.83 398.27 L3328.83 405.631 L3337.61 405.631 L3337.61 408.941 L3328.83 408.941 L3328.83 423.015 Q3328.83 426.186 3329.69 427.089 Q3330.57 427.992 3333.23 427.992 L3337.61 427.992 L3337.61 431.556 L3333.23 431.556 Q3328.3 431.556 3326.43 429.728 Q3324.55 427.876 3324.55 423.015 L3324.55 408.941 L3321.43 408.941 L3321.43 405.631 L3324.55 405.631 L3324.55 398.27 L3328.83 398.27 Z" fill="#000000" fill-rule="nonzero" fill-opacity="1" /><path clip-path="url(#clip940)" d="M3342.54 395.584 L3346.24 395.584 Q3349.71 401.047 3351.43 406.279 Q3353.16 411.51 3353.16 416.672 Q3353.16 421.857 3351.43 427.112 Q3349.71 432.367 3346.24 437.806 L3342.54 437.806 Q3345.62 432.505 3347.12 427.274 Q3348.65 422.019 3348.65 416.672 Q3348.65 411.325 3347.12 406.117 Q3345.62 400.908 3342.54 395.584 Z" fill="#000000" fill-rule="nonzero" fill-opacity="1" /><path clip-path="url(#clip940)" d="M2873.27 440.516 L2873.27 491.716 L2924.47 491.716 L2924.47 440.516 L2873.27 440.516 Z" fill="#ff6347" fill-rule="evenodd" fill-opacity="1" stroke="none"/>
<path clip-path="url(#clip940)" d="M3051.4 447.424 Q3048.3 452.748 3046.8 457.957 Q3045.29 463.165 3045.29 468.512 Q3045.29 473.859 3046.8 479.114 Q3048.33 484.345 3051.4 489.646 L3047.7 489.646 Q3044.23 484.207 3042.49 478.952 Q3040.78 473.697 3040.78 468.512 Q3040.78 463.35 3042.49 458.119 Q3044.2 452.887 3047.7 447.424 L3051.4 447.424 Z" fill="#000000" fill-rule="nonzero" fill-opacity="1" /><path clip-path="url(#clip940)" d="M3081.84 469.369 L3081.84 471.452 L3062.26 471.452 Q3062.54 475.85 3064.9 478.165 Q3067.28 480.457 3071.52 480.457 Q3073.97 480.457 3076.26 479.855 Q3078.58 479.253 3080.85 478.049 L3080.85 482.077 Q3078.56 483.049 3076.15 483.558 Q3073.74 484.068 3071.26 484.068 Q3065.06 484.068 3061.43 480.457 Q3057.82 476.845 3057.82 470.688 Q3057.82 464.322 3061.24 460.596 Q3064.69 456.846 3070.52 456.846 Q3075.76 456.846 3078.79 460.225 Q3081.84 463.582 3081.84 469.369 M3077.58 468.119 Q3077.54 464.623 3075.62 462.54 Q3073.72 460.457 3070.57 460.457 Q3067.01 460.457 3064.85 462.471 Q3062.72 464.484 3062.4 468.142 L3077.58 468.119 Z" fill="#000000" fill-rule="nonzero" fill-opacity="1" /><path clip-path="url(#clip940)" d="M3109.55 457.471 L3100.18 470.086 L3110.04 483.396 L3105.01 483.396 L3097.47 473.211 L3089.92 483.396 L3084.9 483.396 L3094.97 469.832 L3085.76 457.471 L3090.78 457.471 L3097.65 466.707 L3104.53 457.471 L3109.55 457.471 Z" fill="#000000" fill-rule="nonzero" fill-opacity="1" /><path clip-path="url(#clip940)" d="M3127.84 470.364 Q3122.68 470.364 3120.69 471.545 Q3118.7 472.725 3118.7 475.572 Q3118.7 477.841 3120.18 479.183 Q3121.68 480.503 3124.25 480.503 Q3127.79 480.503 3129.92 478.003 Q3132.07 475.48 3132.07 471.313 L3132.07 470.364 L3127.84 470.364 M3136.33 468.605 L3136.33 483.396 L3132.07 483.396 L3132.07 479.461 Q3130.62 481.822 3128.44 482.957 Q3126.26 484.068 3123.12 484.068 Q3119.13 484.068 3116.77 481.845 Q3114.44 479.6 3114.44 475.85 Q3114.44 471.475 3117.35 469.253 Q3120.29 467.031 3126.1 467.031 L3132.07 467.031 L3132.07 466.614 Q3132.07 463.674 3130.13 462.077 Q3128.21 460.457 3124.71 460.457 Q3122.49 460.457 3120.38 460.989 Q3118.28 461.521 3116.33 462.586 L3116.33 458.651 Q3118.67 457.748 3120.87 457.309 Q3123.07 456.846 3125.15 456.846 Q3130.78 456.846 3133.56 459.762 Q3136.33 462.679 3136.33 468.605 Z" fill="#000000" fill-rule="nonzero" fill-opacity="1" /><path clip-path="url(#clip940)" d="M3146.2 477.517 L3151.08 477.517 L3151.08 481.498 L3147.28 488.906 L3144.3 488.906 L3146.2 481.498 L3146.2 477.517 Z" fill="#000000" fill-rule="nonzero" fill-opacity="1" /><path clip-path="url(#clip940)" d="M3175.25 457.471 L3179.51 457.471 L3179.51 483.396 L3175.25 483.396 L3175.25 457.471 M3175.25 447.378 L3179.51 447.378 L3179.51 452.772 L3175.25 452.772 L3175.25 447.378 Z" fill="#000000" fill-rule="nonzero" fill-opacity="1" /><path clip-path="url(#clip940)" d="M3192.54 479.507 L3192.54 493.257 L3188.25 493.257 L3188.25 457.471 L3192.54 457.471 L3192.54 461.406 Q3193.88 459.091 3195.92 457.98 Q3197.98 456.846 3200.82 456.846 Q3205.55 456.846 3208.49 460.596 Q3211.45 464.346 3211.45 470.457 Q3211.45 476.568 3208.49 480.318 Q3205.55 484.068 3200.82 484.068 Q3197.98 484.068 3195.92 482.957 Q3193.88 481.822 3192.54 479.507 M3207.03 470.457 Q3207.03 465.758 3205.08 463.096 Q3203.16 460.41 3199.78 460.41 Q3196.4 460.41 3194.46 463.096 Q3192.54 465.758 3192.54 470.457 Q3192.54 475.156 3194.46 477.841 Q3196.4 480.503 3199.78 480.503 Q3203.16 480.503 3205.08 477.841 Q3207.03 475.156 3207.03 470.457 Z" fill="#000000" fill-rule="nonzero" fill-opacity="1" /><path clip-path="url(#clip940)" d="M3228.56 460.457 Q3225.13 460.457 3223.14 463.142 Q3221.15 465.804 3221.15 470.457 Q3221.15 475.109 3223.12 477.795 Q3225.11 480.457 3228.56 480.457 Q3231.96 480.457 3233.95 477.771 Q3235.94 475.086 3235.94 470.457 Q3235.94 465.85 3233.95 463.165 Q3231.96 460.457 3228.56 460.457 M3228.56 456.846 Q3234.11 456.846 3237.28 460.457 Q3240.45 464.068 3240.45 470.457 Q3240.45 476.822 3237.28 480.457 Q3234.11 484.068 3228.56 484.068 Q3222.98 484.068 3219.81 480.457 Q3216.66 476.822 3216.66 470.457 Q3216.66 464.068 3219.81 460.457 Q3222.98 456.846 3228.56 456.846 Z" fill="#000000" fill-rule="nonzero" fill-opacity="1" /><path clip-path="url(#clip940)" d="M3251.63 479.507 L3251.63 493.257 L3247.35 493.257 L3247.35 457.471 L3251.63 457.471 L3251.63 461.406 Q3252.98 459.091 3255.01 457.98 Q3257.07 456.846 3259.92 456.846 Q3264.64 456.846 3267.58 460.596 Q3270.55 464.346 3270.55 470.457 Q3270.55 476.568 3267.58 480.318 Q3264.64 484.068 3259.92 484.068 Q3257.07 484.068 3255.01 482.957 Q3252.98 481.822 3251.63 479.507 M3266.12 470.457 Q3266.12 465.758 3264.18 463.096 Q3262.26 460.41 3258.88 460.41 Q3255.5 460.41 3253.56 463.096 Q3251.63 465.758 3251.63 470.457 Q3251.63 475.156 3253.56 477.841 Q3255.5 480.503 3258.88 480.503 Q3262.26 480.503 3264.18 477.841 Q3266.12 475.156 3266.12 470.457 Z" fill="#000000" fill-rule="nonzero" fill-opacity="1" /><path clip-path="url(#clip940)" d="M3281.82 450.11 L3281.82 457.471 L3290.59 457.471 L3290.59 460.781 L3281.82 460.781 L3281.82 474.855 Q3281.82 478.026 3282.68 478.929 Q3283.56 479.832 3286.22 479.832 L3290.59 479.832 L3290.59 483.396 L3286.22 483.396 Q3281.29 483.396 3279.41 481.568 Q3277.54 479.716 3277.54 474.855 L3277.54 460.781 L3274.41 460.781 L3274.41 457.471 L3277.54 457.471 L3277.54 450.11 L3281.82 450.11 Z" fill="#000000" fill-rule="nonzero" fill-opacity="1" /><path clip-path="url(#clip940)" d="M3295.52 447.424 L3299.23 447.424 Q3302.7 452.887 3304.41 458.119 Q3306.15 463.35 3306.15 468.512 Q3306.15 473.697 3304.41 478.952 Q3302.7 484.207 3299.23 489.646 L3295.52 489.646 Q3298.6 484.345 3300.11 479.114 Q3301.63 473.859 3301.63 468.512 Q3301.63 463.165 3300.11 457.957 Q3298.6 452.748 3295.52 447.424 Z" fill="#000000" fill-rule="nonzero" fill-opacity="1" /><path clip-path="url(#clip940)" d="M2898.87 492.356 L2892.85 509.662 L2874.52 510.046 L2889.14 521.131 L2883.82 538.667 L2898.87 528.196 L2913.92 538.667 L2908.6 521.131 L2923.21 510.046 L2904.89 509.662 L2898.87 492.356 Z" fill="#a0522d" fill-rule="evenodd" fill-opacity="1" stroke="none"/>
<path clip-path="url(#clip940)" d="M3051.4 499.264 Q3048.3 504.588 3046.8 509.797 Q3045.29 515.005 3045.29 520.352 Q3045.29 525.699 3046.8 530.954 Q3048.33 536.185 3051.4 541.486 L3047.7 541.486 Q3044.23 536.047 3042.49 530.792 Q3040.78 525.537 3040.78 520.352 Q3040.78 515.19 3042.49 509.959 Q3044.2 504.727 3047.7 499.264 L3051.4 499.264 Z" fill="#000000" fill-rule="nonzero" fill-opacity="1" /><path clip-path="url(#clip940)" d="M3059.67 509.311 L3063.93 509.311 L3063.93 535.699 Q3063.93 540.653 3062.03 542.875 Q3060.15 545.097 3055.96 545.097 L3054.34 545.097 L3054.34 541.486 L3055.48 541.486 Q3057.91 541.486 3058.79 540.352 Q3059.67 539.241 3059.67 535.699 L3059.67 509.311 M3059.67 499.218 L3063.93 499.218 L3063.93 504.612 L3059.67 504.612 L3059.67 499.218 Z" fill="#000000" fill-rule="nonzero" fill-opacity="1" /><path clip-path="url(#clip940)" d="M3072.4 525.005 L3072.4 509.311 L3076.66 509.311 L3076.66 524.843 Q3076.66 528.523 3078.09 530.375 Q3079.53 532.204 3082.4 532.204 Q3085.85 532.204 3087.84 530.005 Q3089.85 527.806 3089.85 524.01 L3089.85 509.311 L3094.11 509.311 L3094.11 535.236 L3089.85 535.236 L3089.85 531.255 Q3088.3 533.616 3086.24 534.773 Q3084.2 535.908 3081.5 535.908 Q3077.03 535.908 3074.71 533.13 Q3072.4 530.352 3072.4 525.005 M3083.12 508.686 L3083.12 508.686 Z" fill="#000000" fill-rule="nonzero" fill-opacity="1" /><path clip-path="url(#clip940)" d="M3123.07 514.287 Q3124.67 511.417 3126.89 510.051 Q3129.11 508.686 3132.12 508.686 Q3136.17 508.686 3138.37 511.533 Q3140.57 514.357 3140.57 519.588 L3140.57 535.236 L3136.29 535.236 L3136.29 519.727 Q3136.29 516 3134.97 514.195 Q3133.65 512.389 3130.94 512.389 Q3127.63 512.389 3125.71 514.588 Q3123.79 516.787 3123.79 520.584 L3123.79 535.236 L3119.51 535.236 L3119.51 519.727 Q3119.51 515.977 3118.19 514.195 Q3116.87 512.389 3114.11 512.389 Q3110.85 512.389 3108.93 514.611 Q3107.01 516.811 3107.01 520.584 L3107.01 535.236 L3102.72 535.236 L3102.72 509.311 L3107.01 509.311 L3107.01 513.338 Q3108.46 510.954 3110.5 509.82 Q3112.54 508.686 3115.34 508.686 Q3118.16 508.686 3120.13 510.121 Q3122.12 511.556 3123.07 514.287 Z" fill="#000000" fill-rule="nonzero" fill-opacity="1" /><path clip-path="url(#clip940)" d="M3153.19 531.347 L3153.19 545.097 L3148.9 545.097 L3148.9 509.311 L3153.19 509.311 L3153.19 513.246 Q3154.53 510.931 3156.57 509.82 Q3158.63 508.686 3161.47 508.686 Q3166.19 508.686 3169.13 512.436 Q3172.1 516.186 3172.1 522.297 Q3172.1 528.408 3169.13 532.158 Q3166.19 535.908 3161.47 535.908 Q3158.63 535.908 3156.57 534.797 Q3154.53 533.662 3153.19 531.347 M3167.68 522.297 Q3167.68 517.598 3165.73 514.936 Q3163.81 512.25 3160.43 512.25 Q3157.05 512.25 3155.11 514.936 Q3153.19 517.598 3153.19 522.297 Q3153.19 526.996 3155.11 529.681 Q3157.05 532.343 3160.43 532.343 Q3163.81 532.343 3165.73 529.681 Q3167.68 526.996 3167.68 522.297 Z" fill="#000000" fill-rule="nonzero" fill-opacity="1" /><path clip-path="url(#clip940)" d="M3180.25 529.357 L3185.13 529.357 L3185.13 533.338 L3181.33 540.746 L3178.35 540.746 L3180.25 533.338 L3180.25 529.357 Z" fill="#000000" fill-rule="nonzero" fill-opacity="1" /><path clip-path="url(#clip940)" d="M3229.48 514.287 Q3231.08 511.417 3233.3 510.051 Q3235.52 508.686 3238.53 508.686 Q3242.58 508.686 3244.78 511.533 Q3246.98 514.357 3246.98 519.588 L3246.98 535.236 L3242.7 535.236 L3242.7 519.727 Q3242.7 516 3241.38 514.195 Q3240.06 512.389 3237.35 512.389 Q3234.04 512.389 3232.12 514.588 Q3230.2 516.787 3230.2 520.584 L3230.2 535.236 L3225.92 535.236 L3225.92 519.727 Q3225.92 515.977 3224.6 514.195 Q3223.28 512.389 3220.52 512.389 Q3217.26 512.389 3215.34 514.611 Q3213.42 516.811 3213.42 520.584 L3213.42 535.236 L3209.13 535.236 L3209.13 509.311 L3213.42 509.311 L3213.42 513.338 Q3214.88 510.954 3216.91 509.82 Q3218.95 508.686 3221.75 508.686 Q3224.57 508.686 3226.54 510.121 Q3228.53 511.556 3229.48 514.287 Z" fill="#000000" fill-rule="nonzero" fill-opacity="1" /><path clip-path="url(#clip940)" d="M3267.26 522.204 Q3262.1 522.204 3260.11 523.385 Q3258.12 524.565 3258.12 527.412 Q3258.12 529.681 3259.6 531.023 Q3261.1 532.343 3263.67 532.343 Q3267.21 532.343 3269.34 529.843 Q3271.5 527.32 3271.5 523.153 L3271.5 522.204 L3267.26 522.204 M3275.75 520.445 L3275.75 535.236 L3271.5 535.236 L3271.5 531.301 Q3270.04 533.662 3267.86 534.797 Q3265.69 535.908 3262.54 535.908 Q3258.56 535.908 3256.19 533.685 Q3253.86 531.44 3253.86 527.69 Q3253.86 523.315 3256.77 521.093 Q3259.71 518.871 3265.52 518.871 L3271.5 518.871 L3271.5 518.454 Q3271.5 515.514 3269.55 513.917 Q3267.63 512.297 3264.13 512.297 Q3261.91 512.297 3259.81 512.829 Q3257.7 513.361 3255.75 514.426 L3255.75 510.491 Q3258.09 509.588 3260.29 509.149 Q3262.49 508.686 3264.57 508.686 Q3270.2 508.686 3272.98 511.602 Q3275.75 514.519 3275.75 520.445 Z" fill="#000000" fill-rule="nonzero" fill-opacity="1" /><path clip-path="url(#clip940)" d="M3301.59 513.246 L3301.59 499.218 L3305.85 499.218 L3305.85 535.236 L3301.59 535.236 L3301.59 531.347 Q3300.25 533.662 3298.18 534.797 Q3296.15 535.908 3293.28 535.908 Q3288.58 535.908 3285.62 532.158 Q3282.68 528.408 3282.68 522.297 Q3282.68 516.186 3285.62 512.436 Q3288.58 508.686 3293.28 508.686 Q3296.15 508.686 3298.18 509.82 Q3300.25 510.931 3301.59 513.246 M3287.07 522.297 Q3287.07 526.996 3289 529.681 Q3290.94 532.343 3294.32 532.343 Q3297.7 532.343 3299.64 529.681 Q3301.59 526.996 3301.59 522.297 Q3301.59 517.598 3299.64 514.936 Q3297.7 512.25 3294.32 512.25 Q3290.94 512.25 3289 514.936 Q3287.07 517.598 3287.07 522.297 Z" fill="#000000" fill-rule="nonzero" fill-opacity="1" /><path clip-path="url(#clip940)" d="M3336.17 519.588 L3336.17 535.236 L3331.91 535.236 L3331.91 519.727 Q3331.91 516.047 3330.48 514.218 Q3329.04 512.389 3326.17 512.389 Q3322.72 512.389 3320.73 514.588 Q3318.74 516.787 3318.74 520.584 L3318.74 535.236 L3314.46 535.236 L3314.46 509.311 L3318.74 509.311 L3318.74 513.338 Q3320.27 511 3322.33 509.843 Q3324.41 508.686 3327.12 508.686 Q3331.59 508.686 3333.88 511.463 Q3336.17 514.218 3336.17 519.588 Z" fill="#000000" fill-rule="nonzero" fill-opacity="1" /><path clip-path="url(#clip940)" d="M3344.67 499.218 L3348.93 499.218 L3348.93 535.236 L3344.67 535.236 L3344.67 499.218 Z" fill="#000000" fill-rule="nonzero" fill-opacity="1" /><path clip-path="url(#clip940)" d="M3361.96 531.347 L3361.96 545.097 L3357.68 545.097 L3357.68 509.311 L3361.96 509.311 L3361.96 513.246 Q3363.3 510.931 3365.34 509.82 Q3367.4 508.686 3370.24 508.686 Q3374.97 508.686 3377.91 512.436 Q3380.87 516.186 3380.87 522.297 Q3380.87 528.408 3377.91 532.158 Q3374.97 535.908 3370.24 535.908 Q3367.4 535.908 3365.34 534.797 Q3363.3 533.662 3361.96 531.347 M3376.45 522.297 Q3376.45 517.598 3374.5 514.936 Q3372.58 512.25 3369.2 512.25 Q3365.82 512.25 3363.88 514.936 Q3361.96 517.598 3361.96 522.297 Q3361.96 526.996 3363.88 529.681 Q3365.82 532.343 3369.2 532.343 Q3372.58 532.343 3374.5 529.681 Q3376.45 526.996 3376.45 522.297 Z" fill="#000000" fill-rule="nonzero" fill-opacity="1" /><path clip-path="url(#clip940)" d="M3387.26 499.264 L3390.96 499.264 Q3394.43 504.727 3396.15 509.959 Q3397.88 515.19 3397.88 520.352 Q3397.88 525.537 3396.15 530.792 Q3394.43 536.047 3390.96 541.486 L3387.26 541.486 Q3390.34 536.185 3391.84 530.954 Q3393.37 525.699 3393.37 520.352 Q3393.37 515.005 3391.84 509.797 Q3390.34 504.588 3387.26 499.264 Z" fill="#000000" fill-rule="nonzero" fill-opacity="1" /><path clip-path="url(#clip940)" d="M2898.87 544.196 L2873.27 569.796 L2898.87 595.396 L2924.47 569.796 L2898.87 544.196 Z" fill="#2e8b57" fill-rule="evenodd" fill-opacity="1" stroke="none"/>
<path clip-path="url(#clip940)" d="M3051.4 551.104 Q3048.3 556.428 3046.8 561.637 Q3045.29 566.845 3045.29 572.192 Q3045.29 577.539 3046.8 582.794 Q3048.33 588.025 3051.4 593.326 L3047.7 593.326 Q3044.23 587.887 3042.49 582.632 Q3040.78 577.377 3040.78 572.192 Q3040.78 567.03 3042.49 561.799 Q3044.2 556.567 3047.7 551.104 L3051.4 551.104 Z" fill="#000000" fill-rule="nonzero" fill-opacity="1" /><path clip-path="url(#clip940)" d="M3071.45 574.044 Q3066.29 574.044 3064.3 575.225 Q3062.31 576.405 3062.31 579.252 Q3062.31 581.521 3063.79 582.863 Q3065.29 584.183 3067.86 584.183 Q3071.4 584.183 3073.53 581.683 Q3075.69 579.16 3075.69 574.993 L3075.69 574.044 L3071.45 574.044 M3079.95 572.285 L3079.95 587.076 L3075.69 587.076 L3075.69 583.141 Q3074.23 585.502 3072.05 586.637 Q3069.88 587.748 3066.73 587.748 Q3062.75 587.748 3060.39 585.525 Q3058.05 583.28 3058.05 579.53 Q3058.05 575.155 3060.96 572.933 Q3063.9 570.711 3069.71 570.711 L3075.69 570.711 L3075.69 570.294 Q3075.69 567.354 3073.74 565.757 Q3071.82 564.137 3068.33 564.137 Q3066.1 564.137 3064 564.669 Q3061.89 565.201 3059.95 566.266 L3059.95 562.331 Q3062.28 561.428 3064.48 560.989 Q3066.68 560.526 3068.76 560.526 Q3074.39 560.526 3077.17 563.442 Q3079.95 566.359 3079.95 572.285 Z" fill="#000000" fill-rule="nonzero" fill-opacity="1" /><path clip-path="url(#clip940)" d="M3105.78 565.086 L3105.78 551.058 L3110.04 551.058 L3110.04 587.076 L3105.78 587.076 L3105.78 583.187 Q3104.44 585.502 3102.38 586.637 Q3100.34 587.748 3097.47 587.748 Q3092.77 587.748 3089.81 583.998 Q3086.87 580.248 3086.87 574.137 Q3086.87 568.026 3089.81 564.276 Q3092.77 560.526 3097.47 560.526 Q3100.34 560.526 3102.38 561.66 Q3104.44 562.771 3105.78 565.086 M3091.26 574.137 Q3091.26 578.836 3093.19 581.521 Q3095.13 584.183 3098.51 584.183 Q3101.89 584.183 3103.83 581.521 Q3105.78 578.836 3105.78 574.137 Q3105.78 569.438 3103.83 566.776 Q3101.89 564.09 3098.51 564.09 Q3095.13 564.09 3093.19 566.776 Q3091.26 569.438 3091.26 574.137 Z" fill="#000000" fill-rule="nonzero" fill-opacity="1" /><path clip-path="url(#clip940)" d="M3140.36 571.428 L3140.36 587.076 L3136.1 587.076 L3136.1 571.567 Q3136.1 567.887 3134.67 566.058 Q3133.23 564.229 3130.36 564.229 Q3126.91 564.229 3124.92 566.428 Q3122.93 568.627 3122.93 572.424 L3122.93 587.076 L3118.65 587.076 L3118.65 561.151 L3122.93 561.151 L3122.93 565.178 Q3124.46 562.84 3126.52 561.683 Q3128.6 560.526 3131.31 560.526 Q3135.78 560.526 3138.07 563.303 Q3140.36 566.058 3140.36 571.428 Z" fill="#000000" fill-rule="nonzero" fill-opacity="1" /><path clip-path="url(#clip940)" d="M3148.86 551.058 L3153.12 551.058 L3153.12 587.076 L3148.86 587.076 L3148.86 551.058 Z" fill="#000000" fill-rule="nonzero" fill-opacity="1" /><path clip-path="url(#clip940)" d="M3166.15 583.187 L3166.15 596.937 L3161.87 596.937 L3161.87 561.151 L3166.15 561.151 L3166.15 565.086 Q3167.49 562.771 3169.53 561.66 Q3171.59 560.526 3174.44 560.526 Q3179.16 560.526 3182.1 564.276 Q3185.06 568.026 3185.06 574.137 Q3185.06 580.248 3182.1 583.998 Q3179.16 587.748 3174.44 587.748 Q3171.59 587.748 3169.53 586.637 Q3167.49 585.502 3166.15 583.187 M3180.64 574.137 Q3180.64 569.438 3178.69 566.776 Q3176.77 564.09 3173.39 564.09 Q3170.01 564.09 3168.07 566.776 Q3166.15 569.438 3166.15 574.137 Q3166.15 578.836 3168.07 581.521 Q3170.01 584.183 3173.39 584.183 Q3176.77 584.183 3178.69 581.521 Q3180.64 578.836 3180.64 574.137 Z" fill="#000000" fill-rule="nonzero" fill-opacity="1" /><path clip-path="url(#clip940)" d="M3193.21 581.197 L3198.09 581.197 L3198.09 585.178 L3194.3 592.586 L3191.31 592.586 L3193.21 585.178 L3193.21 581.197 Z" fill="#000000" fill-rule="nonzero" fill-opacity="1" /><path clip-path="url(#clip940)" d="M3242.44 566.127 Q3244.04 563.257 3246.26 561.891 Q3248.49 560.526 3251.5 560.526 Q3255.55 560.526 3257.75 563.373 Q3259.94 566.197 3259.94 571.428 L3259.94 587.076 L3255.66 587.076 L3255.66 571.567 Q3255.66 567.84 3254.34 566.035 Q3253.02 564.229 3250.31 564.229 Q3247 564.229 3245.08 566.428 Q3243.16 568.627 3243.16 572.424 L3243.16 587.076 L3238.88 587.076 L3238.88 571.567 Q3238.88 567.817 3237.56 566.035 Q3236.24 564.229 3233.49 564.229 Q3230.22 564.229 3228.3 566.451 Q3226.38 568.651 3226.38 572.424 L3226.38 587.076 L3222.1 587.076 L3222.1 561.151 L3226.38 561.151 L3226.38 565.178 Q3227.84 562.794 3229.88 561.66 Q3231.91 560.526 3234.71 560.526 Q3237.54 560.526 3239.5 561.961 Q3241.5 563.396 3242.44 566.127 Z" fill="#000000" fill-rule="nonzero" fill-opacity="1" /><path clip-path="url(#clip940)" d="M3280.22 574.044 Q3275.06 574.044 3273.07 575.225 Q3271.08 576.405 3271.08 579.252 Q3271.08 581.521 3272.56 582.863 Q3274.06 584.183 3276.63 584.183 Q3280.18 584.183 3282.31 581.683 Q3284.46 579.16 3284.46 574.993 L3284.46 574.044 L3280.22 574.044 M3288.72 572.285 L3288.72 587.076 L3284.46 587.076 L3284.46 583.141 Q3283 585.502 3280.82 586.637 Q3278.65 587.748 3275.5 587.748 Q3271.52 587.748 3269.16 585.525 Q3266.82 583.28 3266.82 579.53 Q3266.82 575.155 3269.74 572.933 Q3272.68 570.711 3278.49 570.711 L3284.46 570.711 L3284.46 570.294 Q3284.46 567.354 3282.51 565.757 Q3280.59 564.137 3277.1 564.137 Q3274.87 564.137 3272.77 564.669 Q3270.66 565.201 3268.72 566.266 L3268.72 562.331 Q3271.06 561.428 3273.25 560.989 Q3275.45 560.526 3277.54 560.526 Q3283.16 560.526 3285.94 563.442 Q3288.72 566.359 3288.72 572.285 Z" fill="#000000" fill-rule="nonzero" fill-opacity="1" /><path clip-path="url(#clip940)" d="M3314.55 565.086 L3314.55 551.058 L3318.81 551.058 L3318.81 587.076 L3314.55 587.076 L3314.55 583.187 Q3313.21 585.502 3311.15 586.637 Q3309.11 587.748 3306.24 587.748 Q3301.54 587.748 3298.58 583.998 Q3295.64 580.248 3295.64 574.137 Q3295.64 568.026 3298.58 564.276 Q3301.54 560.526 3306.24 560.526 Q3309.11 560.526 3311.15 561.66 Q3313.21 562.771 3314.55 565.086 M3300.04 574.137 Q3300.04 578.836 3301.96 581.521 Q3303.9 584.183 3307.28 584.183 Q3310.66 584.183 3312.61 581.521 Q3314.55 578.836 3314.55 574.137 Q3314.55 569.438 3312.61 566.776 Q3310.66 564.09 3307.28 564.09 Q3303.9 564.09 3301.96 566.776 Q3300.04 569.438 3300.04 574.137 Z" fill="#000000" fill-rule="nonzero" fill-opacity="1" /><path clip-path="url(#clip940)" d="M3349.13 571.428 L3349.13 587.076 L3344.87 587.076 L3344.87 571.567 Q3344.87 567.887 3343.44 566.058 Q3342 564.229 3339.13 564.229 Q3335.68 564.229 3333.69 566.428 Q3331.7 568.627 3331.7 572.424 L3331.7 587.076 L3327.42 587.076 L3327.42 561.151 L3331.7 561.151 L3331.7 565.178 Q3333.23 562.84 3335.29 561.683 Q3337.37 560.526 3340.08 560.526 Q3344.55 560.526 3346.84 563.303 Q3349.13 566.058 3349.13 571.428 Z" fill="#000000" fill-rule="nonzero" fill-opacity="1" /><path clip-path="url(#clip940)" d="M3357.63 551.058 L3361.89 551.058 L3361.89 587.076 L3357.63 587.076 L3357.63 551.058 Z" fill="#000000" fill-rule="nonzero" fill-opacity="1" /><path clip-path="url(#clip940)" d="M3374.92 583.187 L3374.92 596.937 L3370.64 596.937 L3370.64 561.151 L3374.92 561.151 L3374.92 565.086 Q3376.26 562.771 3378.3 561.66 Q3380.36 560.526 3383.21 560.526 Q3387.93 560.526 3390.87 564.276 Q3393.83 568.026 3393.83 574.137 Q3393.83 580.248 3390.87 583.998 Q3387.93 587.748 3383.21 587.748 Q3380.36 587.748 3378.3 586.637 Q3376.26 585.502 3374.92 583.187 M3389.41 574.137 Q3389.41 569.438 3387.47 566.776 Q3385.55 564.09 3382.17 564.09 Q3378.79 564.09 3376.84 566.776 Q3374.92 569.438 3374.92 574.137 Q3374.92 578.836 3376.84 581.521 Q3378.79 584.183 3382.17 584.183 Q3385.55 584.183 3387.47 581.521 Q3389.41 578.836 3389.41 574.137 Z" fill="#000000" fill-rule="nonzero" fill-opacity="1" /><path clip-path="url(#clip940)" d="M3400.22 551.104 L3403.93 551.104 Q3407.4 556.567 3409.11 561.799 Q3410.85 567.03 3410.85 572.192 Q3410.85 577.377 3409.11 582.632 Q3407.4 587.887 3403.93 593.326 L3400.22 593.326 Q3403.3 588.025 3404.8 582.794 Q3406.33 577.539 3406.33 572.192 Q3406.33 566.845 3404.8 561.637 Q3403.3 556.428 3400.22 551.104 Z" fill="#000000" fill-rule="nonzero" fill-opacity="1" /><path clip-path="url(#clip940)" d="M2898.87 596.036 L2873.27 647.236 L2924.47 647.236 L2898.87 596.036 Z" fill="#ff8c00" fill-rule="evenodd" fill-opacity="1" stroke="none"/>
<path clip-path="url(#clip940)" d="M3051.4 602.944 Q3048.3 608.268 3046.8 613.477 Q3045.29 618.685 3045.29 624.032 Q3045.29 629.379 3046.8 634.634 Q3048.33 639.865 3051.4 645.166 L3047.7 645.166 Q3044.23 639.727 3042.49 634.472 Q3040.78 629.217 3040.78 624.032 Q3040.78 618.87 3042.49 613.639 Q3044.2 608.407 3047.7 602.944 L3051.4 602.944 Z" fill="#000000" fill-rule="nonzero" fill-opacity="1" /><path clip-path="url(#clip940)" d="M3081.84 624.889 L3081.84 626.972 L3062.26 626.972 Q3062.54 631.37 3064.9 633.685 Q3067.28 635.977 3071.52 635.977 Q3073.97 635.977 3076.26 635.375 Q3078.58 634.773 3080.85 633.569 L3080.85 637.597 Q3078.56 638.569 3076.15 639.078 Q3073.74 639.588 3071.26 639.588 Q3065.06 639.588 3061.43 635.977 Q3057.82 632.365 3057.82 626.208 Q3057.82 619.842 3061.24 616.116 Q3064.69 612.366 3070.52 612.366 Q3075.76 612.366 3078.79 615.745 Q3081.84 619.102 3081.84 624.889 M3077.58 623.639 Q3077.54 620.143 3075.62 618.06 Q3073.72 615.977 3070.57 615.977 Q3067.01 615.977 3064.85 617.991 Q3062.72 620.004 3062.4 623.662 L3077.58 623.639 Z" fill="#000000" fill-rule="nonzero" fill-opacity="1" /><path clip-path="url(#clip940)" d="M3109.55 612.991 L3100.18 625.606 L3110.04 638.916 L3105.01 638.916 L3097.47 628.731 L3089.92 638.916 L3084.9 638.916 L3094.97 625.352 L3085.76 612.991 L3090.78 612.991 L3097.65 622.227 L3104.53 612.991 L3109.55 612.991 Z" fill="#000000" fill-rule="nonzero" fill-opacity="1" /><path clip-path="url(#clip940)" d="M3127.84 625.884 Q3122.68 625.884 3120.69 627.065 Q3118.7 628.245 3118.7 631.092 Q3118.7 633.361 3120.18 634.703 Q3121.68 636.023 3124.25 636.023 Q3127.79 636.023 3129.92 633.523 Q3132.07 631 3132.07 626.833 L3132.07 625.884 L3127.84 625.884 M3136.33 624.125 L3136.33 638.916 L3132.07 638.916 L3132.07 634.981 Q3130.62 637.342 3128.44 638.477 Q3126.26 639.588 3123.12 639.588 Q3119.13 639.588 3116.77 637.365 Q3114.44 635.12 3114.44 631.37 Q3114.44 626.995 3117.35 624.773 Q3120.29 622.551 3126.1 622.551 L3132.07 622.551 L3132.07 622.134 Q3132.07 619.194 3130.13 617.597 Q3128.21 615.977 3124.71 615.977 Q3122.49 615.977 3120.38 616.509 Q3118.28 617.041 3116.33 618.106 L3116.33 614.171 Q3118.67 613.268 3120.87 612.829 Q3123.07 612.366 3125.15 612.366 Q3130.78 612.366 3133.56 615.282 Q3136.33 618.199 3136.33 624.125 Z" fill="#000000" fill-rule="nonzero" fill-opacity="1" /><path clip-path="url(#clip940)" d="M3146.2 633.037 L3151.08 633.037 L3151.08 637.018 L3147.28 644.426 L3144.3 644.426 L3146.2 637.018 L3146.2 633.037 Z" fill="#000000" fill-rule="nonzero" fill-opacity="1" /><path clip-path="url(#clip940)" d="M3195.43 617.967 Q3197.03 615.097 3199.25 613.731 Q3201.47 612.366 3204.48 612.366 Q3208.53 612.366 3210.73 615.213 Q3212.93 618.037 3212.93 623.268 L3212.93 638.916 L3208.65 638.916 L3208.65 623.407 Q3208.65 619.68 3207.33 617.875 Q3206.01 616.069 3203.3 616.069 Q3199.99 616.069 3198.07 618.268 Q3196.15 620.467 3196.15 624.264 L3196.15 638.916 L3191.87 638.916 L3191.87 623.407 Q3191.87 619.657 3190.55 617.875 Q3189.23 616.069 3186.47 616.069 Q3183.21 616.069 3181.29 618.291 Q3179.37 620.491 3179.37 624.264 L3179.37 638.916 L3175.08 638.916 L3175.08 612.991 L3179.37 612.991 L3179.37 617.018 Q3180.82 614.634 3182.86 613.5 Q3184.9 612.366 3187.7 612.366 Q3190.52 612.366 3192.49 613.801 Q3194.48 615.236 3195.43 617.967 Z" fill="#000000" fill-rule="nonzero" fill-opacity="1" /><path clip-path="url(#clip940)" d="M3233.21 625.884 Q3228.05 625.884 3226.06 627.065 Q3224.06 628.245 3224.06 631.092 Q3224.06 633.361 3225.55 634.703 Q3227.05 636.023 3229.62 636.023 Q3233.16 636.023 3235.29 633.523 Q3237.44 631 3237.44 626.833 L3237.44 625.884 L3233.21 625.884 M3241.7 624.125 L3241.7 638.916 L3237.44 638.916 L3237.44 634.981 Q3235.99 637.342 3233.81 638.477 Q3231.63 639.588 3228.49 639.588 Q3224.5 639.588 3222.14 637.365 Q3219.81 635.12 3219.81 631.37 Q3219.81 626.995 3222.72 624.773 Q3225.66 622.551 3231.47 622.551 L3237.44 622.551 L3237.44 622.134 Q3237.44 619.194 3235.5 617.597 Q3233.58 615.977 3230.08 615.977 Q3227.86 615.977 3225.75 616.509 Q3223.65 617.041 3221.7 618.106 L3221.7 614.171 Q3224.04 613.268 3226.24 612.829 Q3228.44 612.366 3230.52 612.366 Q3236.15 612.366 3238.93 615.282 Q3241.7 618.199 3241.7 624.125 Z" fill="#000000" fill-rule="nonzero" fill-opacity="1" /><path clip-path="url(#clip940)" d="M3267.54 616.926 L3267.54 602.898 L3271.8 602.898 L3271.8 638.916 L3267.54 638.916 L3267.54 635.027 Q3266.19 637.342 3264.13 638.477 Q3262.1 639.588 3259.23 639.588 Q3254.53 639.588 3251.56 635.838 Q3248.63 632.088 3248.63 625.977 Q3248.63 619.866 3251.56 616.116 Q3254.53 612.366 3259.23 612.366 Q3262.1 612.366 3264.13 613.5 Q3266.19 614.611 3267.54 616.926 M3253.02 625.977 Q3253.02 630.676 3254.94 633.361 Q3256.89 636.023 3260.27 636.023 Q3263.65 636.023 3265.59 633.361 Q3267.54 630.676 3267.54 625.977 Q3267.54 621.278 3265.59 618.616 Q3263.65 615.93 3260.27 615.93 Q3256.89 615.93 3254.94 618.616 Q3253.02 621.278 3253.02 625.977 Z" fill="#000000" fill-rule="nonzero" fill-opacity="1" /><path clip-path="url(#clip940)" d="M3302.12 623.268 L3302.12 638.916 L3297.86 638.916 L3297.86 623.407 Q3297.86 619.727 3296.43 617.898 Q3294.99 616.069 3292.12 616.069 Q3288.67 616.069 3286.68 618.268 Q3284.69 620.467 3284.69 624.264 L3284.69 638.916 L3280.41 638.916 L3280.41 612.991 L3284.69 612.991 L3284.69 617.018 Q3286.22 614.68 3288.28 613.523 Q3290.36 612.366 3293.07 612.366 Q3297.54 612.366 3299.83 615.143 Q3302.12 617.898 3302.12 623.268 Z" fill="#000000" fill-rule="nonzero" fill-opacity="1" /><path clip-path="url(#clip940)" d="M3310.62 602.898 L3314.87 602.898 L3314.87 638.916 L3310.62 638.916 L3310.62 602.898 Z" fill="#000000" fill-rule="nonzero" fill-opacity="1" /><path clip-path="url(#clip940)" d="M3327.91 635.027 L3327.91 648.777 L3323.62 648.777 L3323.62 612.991 L3327.91 612.991 L3327.91 616.926 Q3329.25 614.611 3331.29 613.5 Q3333.35 612.366 3336.19 612.366 Q3340.92 612.366 3343.86 616.116 Q3346.82 619.866 3346.82 625.977 Q3346.82 632.088 3343.86 635.838 Q3340.92 639.588 3336.19 639.588 Q3333.35 639.588 3331.29 638.477 Q3329.25 637.342 3327.91 635.027 M3342.4 625.977 Q3342.4 621.278 3340.45 618.616 Q3338.53 615.93 3335.15 615.93 Q3331.77 615.93 3329.83 618.616 Q3327.91 621.278 3327.91 625.977 Q3327.91 630.676 3329.83 633.361 Q3331.77 636.023 3335.15 636.023 Q3338.53 636.023 3340.45 633.361 Q3342.4 630.676 3342.4 625.977 Z" fill="#000000" fill-rule="nonzero" fill-opacity="1" /><path clip-path="url(#clip940)" d="M3353.21 602.944 L3356.91 602.944 Q3360.38 608.407 3362.1 613.639 Q3363.83 618.87 3363.83 624.032 Q3363.83 629.217 3362.1 634.472 Q3360.38 639.727 3356.91 645.166 L3353.21 645.166 Q3356.29 639.865 3357.79 634.634 Q3359.32 629.379 3359.32 624.032 Q3359.32 618.685 3357.79 613.477 Q3356.29 608.268 3353.21 602.944 Z" fill="#000000" fill-rule="nonzero" fill-opacity="1" /></svg>
