<?xml version="1.0" encoding="utf-8"?>
<svg xmlns="http://www.w3.org/2000/svg" xmlns:xlink="http://www.w3.org/1999/xlink" width="900" height="600" viewBox="0 0 3600 2400">
<defs>
  <clipPath id="clip030">
    <rect x="0" y="0" width="3600" height="2400"/>
  </clipPath>
</defs>
<path clip-path="url(#clip030)" d="M0 2400 L3600 2400 L3600 0 L0 0  Z" fill="#ffffff" fill-rule="evenodd" fill-opacity="1"/>
<defs>
  <clipPath id="clip031">
    <rect x="720" y="0" width="2521" height="2400"/>
  </clipPath>
</defs>
<path clip-path="url(#clip030)" d="M244.821 2144.22 L3552.76 2144.22 L3552.76 246.944 L244.821 246.944  Z" fill="#ffffff" fill-rule="evenodd" fill-opacity="1"/>
<defs>
  <clipPath id="clip032">
    <rect x="244" y="246" width="3309" height="1898"/>
  </clipPath>
</defs>
<polyline clip-path="url(#clip032)" style="stroke:#000000; stroke-linecap:round; stroke-linejoin:round; stroke-width:2; stroke-opacity:0.1; fill:none" points="395.182,2144.22 395.182,246.944 "/>
<polyline clip-path="url(#clip032)" style="stroke:#000000; stroke-linecap:round; stroke-linejoin:round; stroke-width:2; stroke-opacity:0.1; fill:none" points="1028.28,2144.22 1028.28,246.944 "/>
<polyline clip-path="url(#clip032)" style="stroke:#000000; stroke-linecap:round; stroke-linejoin:round; stroke-width:2; stroke-opacity:0.1; fill:none" points="1819.65,2144.22 1819.65,246.944 "/>
<polyline clip-path="url(#clip032)" style="stroke:#000000; stroke-linecap:round; stroke-linejoin:round; stroke-width:2; stroke-opacity:0.1; fill:none" points="3402.4,2144.22 3402.4,246.944 "/>
<polyline clip-path="url(#clip032)" style="stroke:#000000; stroke-linecap:round; stroke-linejoin:round; stroke-width:2; stroke-opacity:0.1; fill:none" points="244.821,2108.31 3552.76,2108.31 "/>
<polyline clip-path="url(#clip032)" style="stroke:#000000; stroke-linecap:round; stroke-linejoin:round; stroke-width:2; stroke-opacity:0.1; fill:none" points="244.821,1590.07 3552.76,1590.07 "/>
<polyline clip-path="url(#clip032)" style="stroke:#000000; stroke-linecap:round; stroke-linejoin:round; stroke-width:2; stroke-opacity:0.1; fill:none" points="244.821,1071.82 3552.76,1071.82 "/>
<polyline clip-path="url(#clip032)" style="stroke:#000000; stroke-linecap:round; stroke-linejoin:round; stroke-width:2; stroke-opacity:0.1; fill:none" points="244.821,553.579 3552.76,553.579 "/>
<polyline clip-path="url(#clip030)" style="stroke:#000000; stroke-linecap:round; stroke-linejoin:round; stroke-width:4; stroke-opacity:1; fill:none" points="244.821,2144.22 3552.76,2144.22 "/>
<polyline clip-path="url(#clip030)" style="stroke:#000000; stroke-linecap:round; stroke-linejoin:round; stroke-width:4; stroke-opacity:1; fill:none" points="395.182,2144.22 395.182,2125.33 "/>
<polyline clip-path="url(#clip030)" style="stroke:#000000; stroke-linecap:round; stroke-linejoin:round; stroke-width:4; stroke-opacity:1; fill:none" points="1028.28,2144.22 1028.28,2125.33 "/>
<polyline clip-path="url(#clip030)" style="stroke:#000000; stroke-linecap:round; stroke-linejoin:round; stroke-width:4; stroke-opacity:1; fill:none" points="1819.65,2144.22 1819.65,2125.33 "/>
<polyline clip-path="url(#clip030)" style="stroke:#000000; stroke-linecap:round; stroke-linejoin:round; stroke-width:4; stroke-opacity:1; fill:none" points="3402.4,2144.22 3402.4,2125.33 "/>
<path clip-path="url(#clip030)" d="M303.068 2227.95 L310.707 2227.95 L310.707 2201.58 L302.396 2203.25 L302.396 2198.99 L310.66 2197.32 L315.336 2197.32 L315.336 2227.95 L322.975 2227.95 L322.975 2231.88 L303.068 2231.88 L303.068 2227.95 Z" fill="#000000" fill-rule="nonzero" fill-opacity="1" /><path clip-path="url(#clip030)" d="M332.419 2226 L337.304 2226 L337.304 2231.88 L332.419 2231.88 L332.419 2226 Z" fill="#000000" fill-rule="nonzero" fill-opacity="1" /><path clip-path="url(#clip030)" d="M357.489 2200.4 Q353.878 2200.4 352.049 2203.97 Q350.243 2207.51 350.243 2214.64 Q350.243 2221.75 352.049 2225.31 Q353.878 2228.85 357.489 2228.85 Q361.123 2228.85 362.929 2225.31 Q364.757 2221.75 364.757 2214.64 Q364.757 2207.51 362.929 2203.97 Q361.123 2200.4 357.489 2200.4 M357.489 2196.7 Q363.299 2196.7 366.354 2201.31 Q369.433 2205.89 369.433 2214.64 Q369.433 2223.37 366.354 2227.97 Q363.299 2232.56 357.489 2232.56 Q351.679 2232.56 348.6 2227.97 Q345.544 2223.37 345.544 2214.64 Q345.544 2205.89 348.6 2201.31 Q351.679 2196.7 357.489 2196.7 Z" fill="#000000" fill-rule="nonzero" fill-opacity="1" /><path clip-path="url(#clip030)" d="M405.822 2206.42 L395.243 2217.05 L405.822 2227.63 L403.067 2230.43 L392.442 2219.8 L381.817 2230.43 L379.086 2227.63 L389.641 2217.05 L379.086 2206.42 L381.817 2203.62 L392.442 2214.25 L403.067 2203.62 L405.822 2206.42 Z" fill="#000000" fill-rule="nonzero" fill-opacity="1" /><path clip-path="url(#clip030)" d="M418.183 2227.95 L425.822 2227.95 L425.822 2201.58 L417.512 2203.25 L417.512 2198.99 L425.775 2197.32 L430.451 2197.32 L430.451 2227.95 L438.09 2227.95 L438.09 2231.88 L418.183 2231.88 L418.183 2227.95 Z" fill="#000000" fill-rule="nonzero" fill-opacity="1" /><path clip-path="url(#clip030)" d="M457.535 2200.4 Q453.923 2200.4 452.095 2203.97 Q450.289 2207.51 450.289 2214.64 Q450.289 2221.75 452.095 2225.31 Q453.923 2228.85 457.535 2228.85 Q461.169 2228.85 462.974 2225.31 Q464.803 2221.75 464.803 2214.64 Q464.803 2207.51 462.974 2203.97 Q461.169 2200.4 457.535 2200.4 M457.535 2196.7 Q463.345 2196.7 466.4 2201.31 Q469.479 2205.89 469.479 2214.64 Q469.479 2223.37 466.4 2227.97 Q463.345 2232.56 457.535 2232.56 Q451.724 2232.56 448.646 2227.97 Q445.59 2223.37 445.59 2214.64 Q445.59 2205.89 448.646 2201.31 Q451.724 2196.7 457.535 2196.7 Z" fill="#000000" fill-rule="nonzero" fill-opacity="1" /><path clip-path="url(#clip030)" d="M482.174 2189.33 Q484.901 2189.92 486.425 2191.76 Q487.967 2193.6 487.967 2196.31 Q487.967 2200.47 485.108 2202.74 Q482.249 2205.02 476.983 2205.02 Q475.215 2205.02 473.335 2204.66 Q471.473 2204.32 469.479 2203.63 L469.479 2199.96 Q471.059 2200.88 472.94 2201.35 Q474.82 2201.82 476.87 2201.82 Q480.444 2201.82 482.306 2200.41 Q484.187 2199 484.187 2196.31 Q484.187 2193.83 482.437 2192.44 Q480.707 2191.03 477.604 2191.03 L474.331 2191.03 L474.331 2187.9 L477.754 2187.9 Q480.557 2187.9 482.043 2186.79 Q483.528 2185.67 483.528 2183.56 Q483.528 2181.4 481.986 2180.25 Q480.463 2179.08 477.604 2179.08 Q476.043 2179.08 474.256 2179.42 Q472.469 2179.76 470.325 2180.48 L470.325 2177.09 Q472.488 2176.49 474.369 2176.19 Q476.269 2175.89 477.942 2175.89 Q482.268 2175.89 484.788 2177.86 Q487.309 2179.82 487.309 2183.16 Q487.309 2185.5 485.973 2187.11 Q484.638 2188.71 482.174 2189.33 Z" fill="#000000" fill-rule="nonzero" fill-opacity="1" /><path clip-path="url(#clip030)" d="M936.177 2197.32 L954.533 2197.32 L954.533 2201.26 L940.459 2201.26 L940.459 2209.73 Q941.478 2209.38 942.496 2209.22 Q943.515 2209.04 944.533 2209.04 Q950.32 2209.04 953.7 2212.21 Q957.08 2215.38 957.08 2220.8 Q957.08 2226.38 953.607 2229.48 Q950.135 2232.56 943.816 2232.56 Q941.64 2232.56 939.371 2232.19 Q937.126 2231.82 934.719 2231.07 L934.719 2226.38 Q936.802 2227.51 939.024 2228.07 Q941.246 2228.62 943.723 2228.62 Q947.728 2228.62 950.066 2226.51 Q952.404 2224.41 952.404 2220.8 Q952.404 2217.19 950.066 2215.08 Q947.728 2212.97 943.723 2212.97 Q941.848 2212.97 939.973 2213.39 Q938.121 2213.81 936.177 2214.69 L936.177 2197.32 Z" fill="#000000" fill-rule="nonzero" fill-opacity="1" /><path clip-path="url(#clip030)" d="M966.293 2226 L971.177 2226 L971.177 2231.88 L966.293 2231.88 L966.293 2226 Z" fill="#000000" fill-rule="nonzero" fill-opacity="1" /><path clip-path="url(#clip030)" d="M991.362 2200.4 Q987.751 2200.4 985.922 2203.97 Q984.116 2207.51 984.116 2214.64 Q984.116 2221.75 985.922 2225.31 Q987.751 2228.85 991.362 2228.85 Q994.996 2228.85 996.802 2225.31 Q998.63 2221.75 998.63 2214.64 Q998.63 2207.51 996.802 2203.97 Q994.996 2200.4 991.362 2200.4 M991.362 2196.7 Q997.172 2196.7 1000.23 2201.31 Q1003.31 2205.89 1003.31 2214.64 Q1003.31 2223.37 1000.23 2227.97 Q997.172 2232.56 991.362 2232.56 Q985.552 2232.56 982.473 2227.97 Q979.417 2223.37 979.417 2214.64 Q979.417 2205.89 982.473 2201.31 Q985.552 2196.7 991.362 2196.7 Z" fill="#000000" fill-rule="nonzero" fill-opacity="1" /><path clip-path="url(#clip030)" d="M1039.69 2206.42 L1029.12 2217.05 L1039.69 2227.63 L1036.94 2230.43 L1026.32 2219.8 L1015.69 2230.43 L1012.96 2227.63 L1023.51 2217.05 L1012.96 2206.42 L1015.69 2203.62 L1026.32 2214.25 L1036.94 2203.62 L1039.69 2206.42 Z" fill="#000000" fill-rule="nonzero" fill-opacity="1" /><path clip-path="url(#clip030)" d="M1052.06 2227.95 L1059.69 2227.95 L1059.69 2201.58 L1051.38 2203.25 L1051.38 2198.99 L1059.65 2197.32 L1064.32 2197.32 L1064.32 2227.95 L1071.96 2227.95 L1071.96 2231.88 L1052.06 2231.88 L1052.06 2227.95 Z" fill="#000000" fill-rule="nonzero" fill-opacity="1" /><path clip-path="url(#clip030)" d="M1091.41 2200.4 Q1087.8 2200.4 1085.97 2203.97 Q1084.16 2207.51 1084.16 2214.64 Q1084.16 2221.75 1085.97 2225.31 Q1087.8 2228.85 1091.41 2228.85 Q1095.04 2228.85 1096.85 2225.31 Q1098.68 2221.75 1098.68 2214.64 Q1098.68 2207.51 1096.85 2203.97 Q1095.04 2200.4 1091.41 2200.4 M1091.41 2196.7 Q1097.22 2196.7 1100.27 2201.31 Q1103.35 2205.89 1103.35 2214.64 Q1103.35 2223.37 1100.27 2227.97 Q1097.22 2232.56 1091.41 2232.56 Q1085.6 2232.56 1082.52 2227.97 Q1079.46 2223.37 1079.46 2214.64 Q1079.46 2205.89 1082.52 2201.31 Q1085.6 2196.7 1091.41 2196.7 Z" fill="#000000" fill-rule="nonzero" fill-opacity="1" /><path clip-path="url(#clip030)" d="M1116.05 2189.33 Q1118.77 2189.92 1120.3 2191.76 Q1121.84 2193.6 1121.84 2196.31 Q1121.84 2200.47 1118.98 2202.74 Q1116.12 2205.02 1110.86 2205.02 Q1109.09 2205.02 1107.21 2204.66 Q1105.35 2204.32 1103.35 2203.63 L1103.35 2199.96 Q1104.93 2200.88 1106.81 2201.35 Q1108.69 2201.82 1110.74 2201.82 Q1114.32 2201.82 1116.18 2200.41 Q1118.06 2199 1118.06 2196.31 Q1118.06 2193.83 1116.31 2192.44 Q1114.58 2191.03 1111.48 2191.03 L1108.2 2191.03 L1108.2 2187.9 L1111.63 2187.9 Q1114.43 2187.9 1115.92 2186.79 Q1117.4 2185.67 1117.4 2183.56 Q1117.4 2181.4 1115.86 2180.25 Q1114.34 2179.08 1111.48 2179.08 Q1109.92 2179.08 1108.13 2179.42 Q1106.34 2179.76 1104.2 2180.48 L1104.2 2177.09 Q1106.36 2176.49 1108.24 2176.19 Q1110.14 2175.89 1111.82 2175.89 Q1116.14 2175.89 1118.66 2177.86 Q1121.18 2179.82 1121.18 2183.16 Q1121.18 2185.5 1119.85 2187.11 Q1118.51 2188.71 1116.05 2189.33 Z" fill="#000000" fill-rule="nonzero" fill-opacity="1" /><path clip-path="url(#clip030)" d="M1726.55 2227.95 L1734.19 2227.95 L1734.19 2201.58 L1725.88 2203.25 L1725.88 2198.99 L1734.14 2197.32 L1738.82 2197.32 L1738.82 2227.95 L1746.46 2227.95 L1746.46 2231.88 L1726.55 2231.88 L1726.55 2227.95 Z" fill="#000000" fill-rule="nonzero" fill-opacity="1" /><path clip-path="url(#clip030)" d="M1755.9 2226 L1760.79 2226 L1760.79 2231.88 L1755.9 2231.88 L1755.9 2226 Z" fill="#000000" fill-rule="nonzero" fill-opacity="1" /><path clip-path="url(#clip030)" d="M1780.97 2200.4 Q1777.36 2200.4 1775.53 2203.97 Q1773.73 2207.51 1773.73 2214.64 Q1773.73 2221.75 1775.53 2225.31 Q1777.36 2228.85 1780.97 2228.85 Q1784.61 2228.85 1786.41 2225.31 Q1788.24 2221.75 1788.24 2214.64 Q1788.24 2207.51 1786.41 2203.97 Q1784.61 2200.4 1780.97 2200.4 M1780.97 2196.7 Q1786.78 2196.7 1789.84 2201.31 Q1792.92 2205.89 1792.92 2214.64 Q1792.92 2223.37 1789.84 2227.97 Q1786.78 2232.56 1780.97 2232.56 Q1775.16 2232.56 1772.08 2227.97 Q1769.03 2223.37 1769.03 2214.64 Q1769.03 2205.89 1772.08 2201.31 Q1775.16 2196.7 1780.97 2196.7 Z" fill="#000000" fill-rule="nonzero" fill-opacity="1" /><path clip-path="url(#clip030)" d="M1829.3 2206.42 L1818.73 2217.05 L1829.3 2227.63 L1826.55 2230.43 L1815.92 2219.8 L1805.3 2230.43 L1802.57 2227.63 L1813.12 2217.05 L1802.57 2206.42 L1805.3 2203.62 L1815.92 2214.25 L1826.55 2203.62 L1829.3 2206.42 Z" fill="#000000" fill-rule="nonzero" fill-opacity="1" /><path clip-path="url(#clip030)" d="M1841.67 2227.95 L1849.3 2227.95 L1849.3 2201.58 L1840.99 2203.25 L1840.99 2198.99 L1849.26 2197.32 L1853.93 2197.32 L1853.93 2227.95 L1861.57 2227.95 L1861.57 2231.88 L1841.67 2231.88 L1841.67 2227.95 Z" fill="#000000" fill-rule="nonzero" fill-opacity="1" /><path clip-path="url(#clip030)" d="M1881.02 2200.4 Q1877.41 2200.4 1875.58 2203.97 Q1873.77 2207.51 1873.77 2214.64 Q1873.77 2221.75 1875.58 2225.31 Q1877.41 2228.85 1881.02 2228.85 Q1884.65 2228.85 1886.46 2225.31 Q1888.29 2221.75 1888.29 2214.64 Q1888.29 2207.51 1886.46 2203.97 Q1884.65 2200.4 1881.02 2200.4 M1881.02 2196.7 Q1886.83 2196.7 1889.88 2201.31 Q1892.96 2205.89 1892.96 2214.64 Q1892.96 2223.37 1889.88 2227.97 Q1886.83 2232.56 1881.02 2232.56 Q1875.21 2232.56 1872.13 2227.97 Q1869.07 2223.37 1869.07 2214.64 Q1869.07 2205.89 1872.13 2201.31 Q1875.21 2196.7 1881.02 2196.7 Z" fill="#000000" fill-rule="nonzero" fill-opacity="1" /><path clip-path="url(#clip030)" d="M1905.64 2179.7 L1896.05 2194.69 L1905.64 2194.69 L1905.64 2179.7 M1904.64 2176.39 L1909.42 2176.39 L1909.42 2194.69 L1913.42 2194.69 L1913.42 2197.85 L1909.42 2197.85 L1909.42 2204.47 L1905.64 2204.47 L1905.64 2197.85 L1892.96 2197.85 L1892.96 2194.19 L1904.64 2176.39 Z" fill="#000000" fill-rule="nonzero" fill-opacity="1" /><path clip-path="url(#clip030)" d="M3313.38 2227.95 L3329.7 2227.95 L3329.7 2231.88 L3307.75 2231.88 L3307.75 2227.95 Q3310.42 2225.19 3315 2220.57 Q3319.61 2215.91 3320.79 2214.57 Q3323.03 2212.05 3323.91 2210.31 Q3324.81 2208.55 3324.81 2206.86 Q3324.81 2204.11 3322.87 2202.37 Q3320.95 2200.63 3317.85 2200.63 Q3315.65 2200.63 3313.19 2201.4 Q3310.76 2202.16 3307.99 2203.71 L3307.99 2198.99 Q3310.81 2197.86 3313.26 2197.28 Q3315.72 2196.7 3317.75 2196.7 Q3323.12 2196.7 3326.32 2199.38 Q3329.51 2202.07 3329.51 2206.56 Q3329.51 2208.69 3328.7 2210.61 Q3327.92 2212.51 3325.81 2215.1 Q3325.23 2215.77 3322.13 2218.99 Q3319.03 2222.19 3313.38 2227.95 Z" fill="#000000" fill-rule="nonzero" fill-opacity="1" /><path clip-path="url(#clip030)" d="M3339.51 2226 L3344.4 2226 L3344.4 2231.88 L3339.51 2231.88 L3339.51 2226 Z" fill="#000000" fill-rule="nonzero" fill-opacity="1" /><path clip-path="url(#clip030)" d="M3364.58 2200.4 Q3360.97 2200.4 3359.14 2203.97 Q3357.34 2207.51 3357.34 2214.64 Q3357.34 2221.75 3359.14 2225.31 Q3360.97 2228.85 3364.58 2228.85 Q3368.22 2228.85 3370.02 2225.31 Q3371.85 2221.75 3371.85 2214.64 Q3371.85 2207.51 3370.02 2203.97 Q3368.22 2200.4 3364.58 2200.4 M3364.58 2196.7 Q3370.39 2196.7 3373.45 2201.31 Q3376.53 2205.89 3376.53 2214.64 Q3376.53 2223.37 3373.45 2227.97 Q3370.39 2232.56 3364.58 2232.56 Q3358.77 2232.56 3355.69 2227.97 Q3352.64 2223.37 3352.64 2214.64 Q3352.64 2205.89 3355.69 2201.31 Q3358.77 2196.7 3364.58 2196.7 Z" fill="#000000" fill-rule="nonzero" fill-opacity="1" /><path clip-path="url(#clip030)" d="M3412.92 2206.42 L3402.34 2217.05 L3412.92 2227.63 L3410.16 2230.43 L3399.54 2219.8 L3388.91 2230.43 L3386.18 2227.63 L3396.74 2217.05 L3386.18 2206.42 L3388.91 2203.62 L3399.54 2214.25 L3410.16 2203.62 L3412.92 2206.42 Z" fill="#000000" fill-rule="nonzero" fill-opacity="1" /><path clip-path="url(#clip030)" d="M3425.28 2227.95 L3432.92 2227.95 L3432.92 2201.58 L3424.61 2203.25 L3424.61 2198.99 L3432.87 2197.32 L3437.55 2197.32 L3437.55 2227.95 L3445.18 2227.95 L3445.18 2231.88 L3425.28 2231.88 L3425.28 2227.95 Z" fill="#000000" fill-rule="nonzero" fill-opacity="1" /><path clip-path="url(#clip030)" d="M3464.63 2200.4 Q3461.02 2200.4 3459.19 2203.97 Q3457.38 2207.51 3457.38 2214.64 Q3457.38 2221.75 3459.19 2225.31 Q3461.02 2228.85 3464.63 2228.85 Q3468.26 2228.85 3470.07 2225.31 Q3471.9 2221.75 3471.9 2214.64 Q3471.9 2207.51 3470.07 2203.97 Q3468.26 2200.4 3464.63 2200.4 M3464.63 2196.7 Q3470.44 2196.7 3473.49 2201.31 Q3476.57 2205.89 3476.57 2214.64 Q3476.57 2223.37 3473.49 2227.97 Q3470.44 2232.56 3464.63 2232.56 Q3458.82 2232.56 3455.74 2227.97 Q3452.68 2223.37 3452.68 2214.64 Q3452.68 2205.89 3455.74 2201.31 Q3458.82 2196.7 3464.63 2196.7 Z" fill="#000000" fill-rule="nonzero" fill-opacity="1" /><path clip-path="url(#clip030)" d="M3489.25 2179.7 L3479.66 2194.69 L3489.25 2194.69 L3489.25 2179.7 M3488.25 2176.39 L3493.03 2176.39 L3493.03 2194.69 L3497.04 2194.69 L3497.04 2197.85 L3493.03 2197.85 L3493.03 2204.47 L3489.25 2204.47 L3489.25 2197.85 L3476.57 2197.85 L3476.57 2194.19 L3488.25 2176.39 Z" fill="#000000" fill-rule="nonzero" fill-opacity="1" /><path clip-path="url(#clip030)" d="M1774.67 2314.17 L1774.67 2302.56 L1765.12 2302.56 L1765.12 2297.76 L1780.46 2297.76 L1780.46 2316.31 Q1777.07 2318.71 1772.99 2319.95 Q1768.91 2321.17 1764.28 2321.17 Q1754.16 2321.17 1748.43 2315.27 Q1742.73 2309.33 1742.73 2298.77 Q1742.73 2288.18 1748.43 2282.28 Q1754.16 2276.35 1764.28 2276.35 Q1768.51 2276.35 1772.3 2277.39 Q1776.12 2278.43 1779.33 2280.46 L1779.33 2286.68 Q1776.09 2283.93 1772.44 2282.54 Q1768.8 2281.15 1764.78 2281.15 Q1756.85 2281.15 1752.85 2285.58 Q1748.89 2290.01 1748.89 2298.77 Q1748.89 2307.51 1752.85 2311.94 Q1756.85 2316.37 1764.78 2316.37 Q1767.87 2316.37 1770.3 2315.84 Q1772.73 2315.29 1774.67 2314.17 Z" fill="#000000" fill-rule="nonzero" fill-opacity="1" /><path clip-path="url(#clip030)" d="M1809.68 2292.9 Q1808.79 2292.38 1807.72 2292.15 Q1806.67 2291.89 1805.4 2291.89 Q1800.89 2291.89 1798.46 2294.84 Q1796.05 2297.76 1796.05 2303.26 L1796.05 2320.33 L1790.7 2320.33 L1790.7 2287.92 L1796.05 2287.92 L1796.05 2292.96 Q1797.73 2290.01 1800.42 2288.59 Q1803.11 2287.14 1806.96 2287.14 Q1807.51 2287.14 1808.18 2287.23 Q1808.84 2287.29 1809.65 2287.43 L1809.68 2292.9 Z" fill="#000000" fill-rule="nonzero" fill-opacity="1" /><path clip-path="url(#clip030)" d="M1815.27 2287.92 L1820.59 2287.92 L1820.59 2320.33 L1815.27 2320.33 L1815.27 2287.92 M1815.27 2275.31 L1820.59 2275.31 L1820.59 2282.05 L1815.27 2282.05 L1815.27 2275.31 Z" fill="#000000" fill-rule="nonzero" fill-opacity="1" /><path clip-path="url(#clip030)" d="M1853.06 2292.84 L1853.06 2275.31 L1858.38 2275.31 L1858.38 2320.33 L1853.06 2320.33 L1853.06 2315.47 Q1851.38 2318.36 1848.8 2319.78 Q1846.26 2321.17 1842.67 2321.17 Q1836.8 2321.17 1833.09 2316.48 Q1829.42 2311.79 1829.42 2304.15 Q1829.42 2296.52 1833.09 2291.83 Q1836.8 2287.14 1842.67 2287.14 Q1846.26 2287.14 1848.8 2288.56 Q1851.38 2289.95 1853.06 2292.84 M1834.91 2304.15 Q1834.91 2310.03 1837.32 2313.38 Q1839.75 2316.71 1843.97 2316.71 Q1848.2 2316.71 1850.63 2313.38 Q1853.06 2310.03 1853.06 2304.15 Q1853.06 2298.28 1850.63 2294.95 Q1848.2 2291.6 1843.97 2291.6 Q1839.75 2291.6 1837.32 2294.95 Q1834.91 2298.28 1834.91 2304.15 Z" fill="#000000" fill-rule="nonzero" fill-opacity="1" /><path clip-path="url(#clip030)" d="M1908.84 2288.88 L1908.84 2293.91 Q1906.59 2292.75 1904.16 2292.18 Q1901.73 2291.6 1899.12 2291.6 Q1895.16 2291.6 1893.16 2292.81 Q1891.19 2294.03 1891.19 2296.46 Q1891.19 2298.31 1892.61 2299.38 Q1894.03 2300.42 1898.31 2301.38 L1900.13 2301.78 Q1905.81 2303 1908.18 2305.23 Q1910.58 2307.42 1910.58 2311.39 Q1910.58 2315.9 1906.99 2318.54 Q1903.43 2321.17 1897.18 2321.17 Q1894.58 2321.17 1891.74 2320.65 Q1888.94 2320.16 1885.81 2319.14 L1885.81 2313.65 Q1888.76 2315.18 1891.63 2315.96 Q1894.49 2316.71 1897.3 2316.71 Q1901.06 2316.71 1903.09 2315.44 Q1905.11 2314.14 1905.11 2311.79 Q1905.11 2309.62 1903.64 2308.47 Q1902.19 2307.31 1897.24 2306.24 L1895.39 2305.8 Q1890.44 2304.76 1888.24 2302.62 Q1886.04 2300.45 1886.04 2296.69 Q1886.04 2292.12 1889.28 2289.63 Q1892.52 2287.14 1898.48 2287.14 Q1901.44 2287.14 1904.04 2287.57 Q1906.64 2288.01 1908.84 2288.88 Z" fill="#000000" fill-rule="nonzero" fill-opacity="1" /><path clip-path="url(#clip030)" d="M1919.06 2287.92 L1924.38 2287.92 L1924.38 2320.33 L1919.06 2320.33 L1919.06 2287.92 M1919.06 2275.31 L1924.38 2275.31 L1924.38 2282.05 L1919.06 2282.05 L1919.06 2275.31 Z" fill="#000000" fill-rule="nonzero" fill-opacity="1" /><path clip-path="url(#clip030)" d="M1933.21 2287.92 L1958.5 2287.92 L1958.5 2292.78 L1938.47 2316.08 L1958.5 2316.08 L1958.5 2320.33 L1932.48 2320.33 L1932.48 2315.47 L1952.51 2292.18 L1933.21 2292.18 L1933.21 2287.92 Z" fill="#000000" fill-rule="nonzero" fill-opacity="1" /><path clip-path="url(#clip030)" d="M1994.35 2302.79 L1994.35 2305.4 L1969.87 2305.4 Q1970.21 2310.9 1973.17 2313.79 Q1976.15 2316.65 1981.44 2316.65 Q1984.51 2316.65 1987.37 2315.9 Q1990.27 2315.15 1993.1 2313.65 L1993.1 2318.68 Q1990.24 2319.9 1987.23 2320.53 Q1984.22 2321.17 1981.12 2321.17 Q1973.37 2321.17 1968.83 2316.65 Q1964.31 2312.14 1964.31 2304.44 Q1964.31 2296.49 1968.59 2291.83 Q1972.91 2287.14 1980.2 2287.14 Q1986.74 2287.14 1990.53 2291.37 Q1994.35 2295.56 1994.35 2302.79 M1989.02 2301.23 Q1988.96 2296.86 1986.56 2294.26 Q1984.19 2291.65 1980.26 2291.65 Q1975.8 2291.65 1973.11 2294.17 Q1970.45 2296.69 1970.04 2301.26 L1989.02 2301.23 Z" fill="#000000" fill-rule="nonzero" fill-opacity="1" /><path clip-path="url(#clip030)" d="M2022.15 2277.13 L2030.02 2277.13 L2049.18 2313.27 L2049.18 2277.13 L2054.85 2277.13 L2054.85 2320.33 L2046.98 2320.33 L2027.82 2284.19 L2027.82 2320.33 L2022.15 2320.33 L2022.15 2277.13 Z" fill="#000000" fill-rule="nonzero" fill-opacity="1" /><polyline clip-path="url(#clip030)" style="stroke:#000000; stroke-linecap:round; stroke-linejoin:round; stroke-width:4; stroke-opacity:1; fill:none" points="244.821,2144.22 244.821,246.944 "/>
<polyline clip-path="url(#clip030)" style="stroke:#000000; stroke-linecap:round; stroke-linejoin:round; stroke-width:4; stroke-opacity:1; fill:none" points="244.821,2108.31 263.719,2108.31 "/>
<polyline clip-path="url(#clip030)" style="stroke:#000000; stroke-linecap:round; stroke-linejoin:round; stroke-width:4; stroke-opacity:1; fill:none" points="244.821,1590.07 263.719,1590.07 "/>
<polyline clip-path="url(#clip030)" style="stroke:#000000; stroke-linecap:round; stroke-linejoin:round; stroke-width:4; stroke-opacity:1; fill:none" points="244.821,1071.82 263.719,1071.82 "/>
<polyline clip-path="url(#clip030)" style="stroke:#000000; stroke-linecap:round; stroke-linejoin:round; stroke-width:4; stroke-opacity:1; fill:none" points="244.821,553.579 263.719,553.579 "/>
<path clip-path="url(#clip030)" d="M178.877 2094.11 Q175.266 2094.11 173.437 2097.68 Q171.631 2101.22 171.631 2108.35 Q171.631 2115.45 173.437 2119.02 Q175.266 2122.56 178.877 2122.56 Q182.511 2122.56 184.316 2119.02 Q186.145 2115.45 186.145 2108.35 Q186.145 2101.22 184.316 2097.68 Q182.511 2094.11 178.877 2094.11 M178.877 2090.41 Q184.687 2090.41 187.742 2095.01 Q190.821 2099.6 190.821 2108.35 Q190.821 2117.07 187.742 2121.68 Q184.687 2126.26 178.877 2126.26 Q173.067 2126.26 169.988 2121.68 Q166.932 2117.07 166.932 2108.35 Q166.932 2099.6 169.988 2095.01 Q173.067 2090.41 178.877 2090.41 Z" fill="#000000" fill-rule="nonzero" fill-opacity="1" /><path clip-path="url(#clip030)" d="M170.914 1603.41 L178.553 1603.41 L178.553 1577.05 L170.242 1578.71 L170.242 1574.45 L178.506 1572.79 L183.182 1572.79 L183.182 1603.41 L190.821 1603.41 L190.821 1607.35 L170.914 1607.35 L170.914 1603.41 Z" fill="#000000" fill-rule="nonzero" fill-opacity="1" /><path clip-path="url(#clip030)" d="M174.502 1085.17 L190.821 1085.17 L190.821 1089.1 L168.877 1089.1 L168.877 1085.17 Q171.539 1082.41 176.122 1077.78 Q180.729 1073.13 181.909 1071.79 Q184.154 1069.27 185.034 1067.53 Q185.937 1065.77 185.937 1064.08 Q185.937 1061.33 183.992 1059.59 Q182.071 1057.85 178.969 1057.85 Q176.77 1057.85 174.317 1058.62 Q171.886 1059.38 169.108 1060.93 L169.108 1056.21 Q171.932 1055.08 174.386 1054.5 Q176.84 1053.92 178.877 1053.92 Q184.247 1053.92 187.441 1056.6 Q190.636 1059.29 190.636 1063.78 Q190.636 1065.91 189.826 1067.83 Q189.039 1069.73 186.932 1072.32 Q186.353 1072.99 183.252 1076.21 Q180.15 1079.4 174.502 1085.17 Z" fill="#000000" fill-rule="nonzero" fill-opacity="1" /><path clip-path="url(#clip030)" d="M183.691 552.225 Q187.048 552.943 188.923 555.211 Q190.821 557.48 190.821 560.813 Q190.821 565.929 187.303 568.729 Q183.784 571.53 177.303 571.53 Q175.127 571.53 172.812 571.091 Q170.52 570.674 168.067 569.817 L168.067 565.304 Q170.011 566.438 172.326 567.017 Q174.641 567.595 177.164 567.595 Q181.562 567.595 183.853 565.859 Q186.168 564.123 186.168 560.813 Q186.168 557.757 184.016 556.044 Q181.886 554.308 178.066 554.308 L174.039 554.308 L174.039 550.466 L178.252 550.466 Q181.701 550.466 183.529 549.1 Q185.358 547.711 185.358 545.118 Q185.358 542.456 183.46 541.044 Q181.585 539.609 178.066 539.609 Q176.145 539.609 173.946 540.026 Q171.747 540.443 169.108 541.322 L169.108 537.156 Q171.77 536.415 174.085 536.044 Q176.423 535.674 178.483 535.674 Q183.807 535.674 186.909 538.105 Q190.011 540.512 190.011 544.632 Q190.011 547.503 188.367 549.493 Q186.724 551.461 183.691 552.225 Z" fill="#000000" fill-rule="nonzero" fill-opacity="1" /><path clip-path="url(#clip030)" d="M58.1901 1368.54 L63.8903 1368.54 Q62.2989 1371.87 61.5176 1374.82 Q60.7364 1377.77 60.7364 1380.52 Q60.7364 1385.3 62.5882 1387.9 Q64.4401 1390.48 67.8544 1390.48 Q70.719 1390.48 72.1947 1388.77 Q73.6414 1387.03 74.5384 1382.23 L75.2618 1378.7 Q76.506 1372.16 79.6599 1369.06 Q82.7849 1365.94 88.0511 1365.94 Q94.33 1365.94 97.5707 1370.16 Q100.811 1374.36 100.811 1382.49 Q100.811 1385.56 100.117 1389.03 Q99.4225 1392.47 98.0626 1396.18 L92.0441 1396.18 Q94.0406 1392.62 95.0533 1389.2 Q96.0661 1385.79 96.0661 1382.49 Q96.0661 1377.48 94.0985 1374.76 Q92.1309 1372.04 88.4851 1372.04 Q85.3022 1372.04 83.5083 1374.01 Q81.7143 1375.95 80.8173 1380.41 L80.1229 1383.97 Q78.8208 1390.51 76.043 1393.43 Q73.2653 1396.35 68.3174 1396.35 Q62.5882 1396.35 59.2896 1392.33 Q55.991 1388.28 55.991 1381.19 Q55.991 1378.15 56.5408 1375 Q57.0906 1371.84 58.1901 1368.54 Z" fill="#000000" fill-rule="nonzero" fill-opacity="1" /><path clip-path="url(#clip030)" d="M71.2977 1344.5 Q71.2977 1348.78 74.6541 1351.27 Q77.9817 1353.76 83.7976 1353.76 Q89.6135 1353.76 92.97 1351.3 Q96.2975 1348.81 96.2975 1344.5 Q96.2975 1340.25 92.9411 1337.76 Q89.5846 1335.27 83.7976 1335.27 Q78.0395 1335.27 74.6831 1337.76 Q71.2977 1340.25 71.2977 1344.5 M66.7838 1344.5 Q66.7838 1337.55 71.2977 1333.59 Q75.8115 1329.63 83.7976 1329.63 Q91.7547 1329.63 96.2975 1333.59 Q100.811 1337.55 100.811 1344.5 Q100.811 1351.47 96.2975 1355.44 Q91.7547 1359.37 83.7976 1359.37 Q75.8115 1359.37 71.2977 1355.44 Q66.7838 1351.47 66.7838 1344.5 Z" fill="#000000" fill-rule="nonzero" fill-opacity="1" /><path clip-path="url(#clip030)" d="M54.9494 1320.8 L54.9494 1315.48 L99.9723 1315.48 L99.9723 1320.8 L54.9494 1320.8 Z" fill="#000000" fill-rule="nonzero" fill-opacity="1" /><path clip-path="url(#clip030)" d="M67.565 1308.16 L67.565 1302.51 L94.764 1292.39 L67.565 1282.26 L67.565 1276.62 L99.9723 1288.77 L99.9723 1296 L67.565 1308.16 Z" fill="#000000" fill-rule="nonzero" fill-opacity="1" /><path clip-path="url(#clip030)" d="M82.4377 1241.55 L85.0418 1241.55 L85.0418 1266.03 Q90.5395 1265.68 93.433 1262.73 Q96.2975 1259.75 96.2975 1254.45 Q96.2975 1251.39 95.5452 1248.52 Q94.7929 1245.63 93.2883 1242.79 L98.323 1242.79 Q99.5383 1245.66 100.175 1248.67 Q100.811 1251.67 100.811 1254.77 Q100.811 1262.53 96.2975 1267.07 Q91.7837 1271.58 84.087 1271.58 Q76.1298 1271.58 71.4713 1267.3 Q66.7838 1262.99 66.7838 1255.7 Q66.7838 1249.16 71.0083 1245.37 Q75.2039 1241.55 82.4377 1241.55 M80.8752 1246.87 Q76.506 1246.93 73.9018 1249.33 Q71.2977 1251.7 71.2977 1255.64 Q71.2977 1260.1 73.815 1262.79 Q76.3324 1265.45 80.9041 1265.85 L80.8752 1246.87 Z" fill="#000000" fill-rule="nonzero" fill-opacity="1" /><path clip-path="url(#clip030)" d="M58.3637 1208.71 L67.565 1208.71 L67.565 1197.74 L71.7028 1197.74 L71.7028 1208.71 L89.2953 1208.71 Q93.2594 1208.71 94.3878 1207.64 Q95.5163 1206.54 95.5163 1203.21 L95.5163 1197.74 L99.9723 1197.74 L99.9723 1203.21 Q99.9723 1209.37 97.6864 1211.72 Q95.3716 1214.06 89.2953 1214.06 L71.7028 1214.06 L71.7028 1217.97 L67.565 1217.97 L67.565 1214.06 L58.3637 1214.06 L58.3637 1208.71 Z" fill="#000000" fill-rule="nonzero" fill-opacity="1" /><path clip-path="url(#clip030)" d="M67.565 1190.74 L67.565 1185.41 L99.9723 1185.41 L99.9723 1190.74 L67.565 1190.74 M54.9494 1190.74 L54.9494 1185.41 L61.6912 1185.41 L61.6912 1190.74 L54.9494 1190.74 Z" fill="#000000" fill-rule="nonzero" fill-opacity="1" /><path clip-path="url(#clip030)" d="M73.7861 1149.04 Q70.1981 1147.05 68.491 1144.27 Q66.7838 1141.49 66.7838 1137.73 Q66.7838 1132.67 70.3428 1129.92 Q73.8729 1127.17 80.4122 1127.17 L99.9723 1127.17 L99.9723 1132.52 L80.5858 1132.52 Q75.9273 1132.52 73.6703 1134.17 Q71.4134 1135.82 71.4134 1139.2 Q71.4134 1143.34 74.1622 1145.74 Q76.9111 1148.15 81.6564 1148.15 L99.9723 1148.15 L99.9723 1153.5 L80.5858 1153.5 Q75.8983 1153.5 73.6703 1155.15 Q71.4134 1156.8 71.4134 1160.24 Q71.4134 1164.32 74.1912 1166.72 Q76.94 1169.12 81.6564 1169.12 L99.9723 1169.12 L99.9723 1174.48 L67.565 1174.48 L67.565 1169.12 L72.5997 1169.12 Q69.6194 1167.3 68.2016 1164.75 Q66.7838 1162.21 66.7838 1158.71 Q66.7838 1155.18 68.5778 1152.72 Q70.3717 1150.23 73.7861 1149.04 Z" fill="#000000" fill-rule="nonzero" fill-opacity="1" /><path clip-path="url(#clip030)" d="M82.4377 1088.83 L85.0418 1088.83 L85.0418 1113.31 Q90.5395 1112.96 93.433 1110.01 Q96.2975 1107.03 96.2975 1101.73 Q96.2975 1098.67 95.5452 1095.8 Q94.7929 1092.91 93.2883 1090.07 L98.323 1090.07 Q99.5383 1092.94 100.175 1095.95 Q100.811 1098.96 100.811 1102.05 Q100.811 1109.81 96.2975 1114.35 Q91.7837 1118.86 84.087 1118.86 Q76.1298 1118.86 71.4713 1114.58 Q66.7838 1110.27 66.7838 1102.98 Q66.7838 1096.44 71.0083 1092.65 Q75.2039 1088.83 82.4377 1088.83 M80.8752 1094.15 Q76.506 1094.21 73.9018 1096.61 Q71.2977 1098.98 71.2977 1102.92 Q71.2977 1107.38 73.815 1110.07 Q76.3324 1112.73 80.9041 1113.13 L80.8752 1094.15 Z" fill="#000000" fill-rule="nonzero" fill-opacity="1" /><path clip-path="url(#clip030)" d="M55.0072 1048.46 Q61.6623 1052.34 68.1727 1054.22 Q74.6831 1056.1 81.3671 1056.1 Q88.0511 1056.1 94.6193 1054.22 Q101.159 1052.31 107.785 1048.46 L107.785 1053.09 Q100.985 1057.43 94.4168 1059.6 Q87.8485 1061.75 81.3671 1061.75 Q74.9145 1061.75 68.3752 1059.6 Q61.8359 1057.46 55.0072 1053.09 L55.0072 1048.46 Z" fill="#000000" fill-rule="nonzero" fill-opacity="1" /><path clip-path="url(#clip030)" d="M68.5199 1017.47 L73.5546 1017.47 Q72.3972 1019.73 71.8185 1022.16 Q71.2398 1024.59 71.2398 1027.2 Q71.2398 1031.16 72.4551 1033.16 Q73.6703 1035.13 76.1009 1035.13 Q77.9527 1035.13 79.0233 1033.71 Q80.065 1032.29 81.0198 1028.01 L81.4249 1026.18 Q82.6402 1020.51 84.8682 1018.14 Q87.0673 1015.74 91.0314 1015.74 Q95.5452 1015.74 98.1783 1019.33 Q100.811 1022.89 100.811 1029.14 Q100.811 1031.74 100.291 1034.58 Q99.7987 1037.38 98.7859 1040.51 L93.2883 1040.51 Q94.8218 1037.56 95.6031 1034.69 Q96.3554 1031.83 96.3554 1029.02 Q96.3554 1025.26 95.0823 1023.23 Q93.7802 1021.21 91.4364 1021.21 Q89.2663 1021.21 88.1089 1022.68 Q86.9515 1024.13 85.8809 1029.08 L85.4469 1030.93 Q84.4052 1035.88 82.264 1038.08 Q80.0939 1040.28 76.3324 1040.28 Q71.7606 1040.28 69.2722 1037.03 Q66.7838 1033.79 66.7838 1027.83 Q66.7838 1024.88 67.2178 1022.28 Q67.6519 1019.67 68.5199 1017.47 Z" fill="#000000" fill-rule="nonzero" fill-opacity="1" /><path clip-path="url(#clip030)" d="M55.0072 1008.1 L55.0072 1003.47 Q61.8359 999.13 68.3752 996.989 Q74.9145 994.819 81.3671 994.819 Q87.8485 994.819 94.4168 996.989 Q100.985 999.13 107.785 1003.47 L107.785 1008.1 Q101.159 1004.25 94.6193 1002.37 Q88.0511 1000.46 81.3671 1000.46 Q74.6831 1000.46 68.1727 1002.37 Q61.6623 1004.25 55.0072 1008.1 Z" fill="#000000" fill-rule="nonzero" fill-opacity="1" /><path clip-path="url(#clip030)" d="M1296.2 125.969 L1296.2 133.949 Q1291.54 131.721 1287.41 130.627 Q1283.27 129.534 1279.43 129.534 Q1272.74 129.534 1269.1 132.126 Q1265.49 134.719 1265.49 139.499 Q1265.49 143.509 1267.88 145.575 Q1270.31 147.601 1277.04 148.857 L1281.98 149.869 Q1291.13 151.611 1295.47 156.027 Q1299.84 160.402 1299.84 167.774 Q1299.84 176.565 1293.93 181.102 Q1288.05 185.639 1276.67 185.639 Q1272.38 185.639 1267.52 184.667 Q1262.7 183.694 1257.51 181.79 L1257.51 173.365 Q1262.49 176.16 1267.27 177.577 Q1272.05 178.995 1276.67 178.995 Q1283.68 178.995 1287.49 176.241 Q1291.29 173.486 1291.29 168.382 Q1291.29 163.926 1288.54 161.414 Q1285.83 158.903 1279.59 157.647 L1274.6 156.675 Q1265.45 154.852 1261.36 150.963 Q1257.27 147.074 1257.27 140.147 Q1257.27 132.126 1262.9 127.508 Q1268.57 122.89 1278.49 122.89 Q1282.75 122.89 1287.16 123.66 Q1291.58 124.43 1296.2 125.969 Z" fill="#000000" fill-rule="nonzero" fill-opacity="1" /><path clip-path="url(#clip030)" d="M1329.86 144.32 Q1323.86 144.32 1320.38 149.019 Q1316.9 153.677 1316.9 161.819 Q1316.9 169.962 1320.34 174.661 Q1323.82 179.319 1329.86 179.319 Q1335.81 179.319 1339.3 174.62 Q1342.78 169.921 1342.78 161.819 Q1342.78 153.758 1339.3 149.059 Q1335.81 144.32 1329.86 144.32 M1329.86 138 Q1339.58 138 1345.13 144.32 Q1350.68 150.639 1350.68 161.819 Q1350.68 172.959 1345.13 179.319 Q1339.58 185.639 1329.86 185.639 Q1320.1 185.639 1314.55 179.319 Q1309.04 172.959 1309.04 161.819 Q1309.04 150.639 1314.55 144.32 Q1320.1 138 1329.86 138 Z" fill="#000000" fill-rule="nonzero" fill-opacity="1" /><path clip-path="url(#clip030)" d="M1363.04 121.432 L1370.49 121.432 L1370.49 184.464 L1363.04 184.464 L1363.04 121.432 Z" fill="#000000" fill-rule="nonzero" fill-opacity="1" /><path clip-path="url(#clip030)" d="M1380.74 139.094 L1388.64 139.094 L1402.82 177.172 L1416.99 139.094 L1424.89 139.094 L1407.88 184.464 L1397.75 184.464 L1380.74 139.094 Z" fill="#000000" fill-rule="nonzero" fill-opacity="1" /><path clip-path="url(#clip030)" d="M1473.99 159.916 L1473.99 163.561 L1439.72 163.561 Q1440.21 171.258 1444.34 175.309 Q1448.51 179.319 1455.92 179.319 Q1460.22 179.319 1464.23 178.266 Q1468.28 177.213 1472.25 175.106 L1472.25 182.155 Q1468.24 183.856 1464.03 184.748 Q1459.81 185.639 1455.48 185.639 Q1444.62 185.639 1438.26 179.319 Q1431.94 173 1431.94 162.225 Q1431.94 151.085 1437.94 144.563 Q1443.97 138 1454.18 138 Q1463.34 138 1468.64 143.914 Q1473.99 149.788 1473.99 159.916 M1466.54 157.728 Q1466.46 151.611 1463.09 147.965 Q1459.77 144.32 1454.26 144.32 Q1448.02 144.32 1444.26 147.844 Q1440.53 151.368 1439.96 157.769 L1466.54 157.728 Z" fill="#000000" fill-rule="nonzero" fill-opacity="1" /><path clip-path="url(#clip030)" d="M1519.97 126.212 L1519.97 139.094 L1535.32 139.094 L1535.32 144.887 L1519.97 144.887 L1519.97 169.516 Q1519.97 175.066 1521.47 176.646 Q1523.01 178.226 1527.66 178.226 L1535.32 178.226 L1535.32 184.464 L1527.66 184.464 Q1519.04 184.464 1515.76 181.264 Q1512.47 178.023 1512.47 169.516 L1512.47 144.887 L1507.01 144.887 L1507.01 139.094 L1512.47 139.094 L1512.47 126.212 L1519.97 126.212 Z" fill="#000000" fill-rule="nonzero" fill-opacity="1" /><path clip-path="url(#clip030)" d="M1545.12 139.094 L1552.58 139.094 L1552.58 184.464 L1545.12 184.464 L1545.12 139.094 M1545.12 121.432 L1552.58 121.432 L1552.58 130.871 L1545.12 130.871 L1545.12 121.432 Z" fill="#000000" fill-rule="nonzero" fill-opacity="1" /><path clip-path="url(#clip030)" d="M1603.5 147.803 Q1606.29 142.78 1610.18 140.39 Q1614.07 138 1619.34 138 Q1626.43 138 1630.27 142.983 Q1634.12 147.925 1634.12 157.08 L1634.12 184.464 L1626.63 184.464 L1626.63 157.323 Q1626.63 150.801 1624.32 147.641 Q1622.01 144.482 1617.27 144.482 Q1611.48 144.482 1608.12 148.33 Q1604.75 152.178 1604.75 158.822 L1604.75 184.464 L1597.26 184.464 L1597.26 157.323 Q1597.26 150.76 1594.95 147.641 Q1592.64 144.482 1587.82 144.482 Q1582.11 144.482 1578.75 148.37 Q1575.38 152.219 1575.38 158.822 L1575.38 184.464 L1567.89 184.464 L1567.89 139.094 L1575.38 139.094 L1575.38 146.142 Q1577.94 141.97 1581.5 139.985 Q1585.07 138 1589.97 138 Q1594.91 138 1598.35 140.512 Q1601.84 143.023 1603.5 147.803 Z" fill="#000000" fill-rule="nonzero" fill-opacity="1" /><path clip-path="url(#clip030)" d="M1687.8 159.916 L1687.8 163.561 L1653.53 163.561 Q1654.01 171.258 1658.14 175.309 Q1662.32 179.319 1669.73 179.319 Q1674.02 179.319 1678.03 178.266 Q1682.09 177.213 1686.06 175.106 L1686.06 182.155 Q1682.04 183.856 1677.83 184.748 Q1673.62 185.639 1669.28 185.639 Q1658.43 185.639 1652.07 179.319 Q1645.75 173 1645.75 162.225 Q1645.75 151.085 1651.74 144.563 Q1657.78 138 1667.99 138 Q1677.14 138 1682.45 143.914 Q1687.8 149.788 1687.8 159.916 M1680.34 157.728 Q1680.26 151.611 1676.9 147.965 Q1673.58 144.32 1668.07 144.32 Q1661.83 144.32 1658.06 147.844 Q1654.34 151.368 1653.77 157.769 L1680.34 157.728 Z" fill="#000000" fill-rule="nonzero" fill-opacity="1" /><path clip-path="url(#clip030)" d="M1721.06 139.094 L1728.95 139.094 L1743.13 177.172 L1757.31 139.094 L1765.21 139.094 L1748.2 184.464 L1738.07 184.464 L1721.06 139.094 Z" fill="#000000" fill-rule="nonzero" fill-opacity="1" /><path clip-path="url(#clip030)" d="M1804.42 140.431 L1804.42 147.479 Q1801.26 145.859 1797.86 145.049 Q1794.46 144.239 1790.81 144.239 Q1785.26 144.239 1782.47 145.94 Q1779.71 147.641 1779.71 151.044 Q1779.71 153.637 1781.7 155.135 Q1783.68 156.594 1789.68 157.931 L1792.23 158.498 Q1800.17 160.199 1803.49 163.318 Q1806.85 166.397 1806.85 171.947 Q1806.85 178.266 1801.83 181.952 Q1796.85 185.639 1788.1 185.639 Q1784.45 185.639 1780.48 184.91 Q1776.55 184.221 1772.18 182.803 L1772.18 175.106 Q1776.31 177.253 1780.32 178.347 Q1784.33 179.4 1788.26 179.4 Q1793.53 179.4 1796.36 177.618 Q1799.2 175.795 1799.2 172.514 Q1799.2 169.476 1797.13 167.855 Q1795.11 166.235 1788.18 164.736 L1785.59 164.128 Q1778.66 162.67 1775.58 159.672 Q1772.5 156.634 1772.5 151.368 Q1772.5 144.968 1777.04 141.484 Q1781.58 138 1789.92 138 Q1794.05 138 1797.7 138.608 Q1801.34 139.215 1804.42 140.431 Z" fill="#000000" fill-rule="nonzero" fill-opacity="1" /><path clip-path="url(#clip030)" d="M1874.95 161.252 Q1874.95 153.151 1871.59 148.695 Q1868.26 144.239 1862.23 144.239 Q1856.23 144.239 1852.87 148.695 Q1849.55 153.151 1849.55 161.252 Q1849.55 169.314 1852.87 173.77 Q1856.23 178.226 1862.23 178.226 Q1868.26 178.226 1871.59 173.77 Q1874.95 169.314 1874.95 161.252 M1882.4 178.833 Q1882.4 190.419 1877.26 196.05 Q1872.11 201.721 1861.5 201.721 Q1857.57 201.721 1854.09 201.113 Q1850.6 200.546 1847.32 199.331 L1847.32 192.08 Q1850.6 193.862 1853.8 194.713 Q1857 195.563 1860.33 195.563 Q1867.66 195.563 1871.3 191.715 Q1874.95 187.907 1874.95 180.17 L1874.95 176.484 Q1872.64 180.494 1869.03 182.479 Q1865.43 184.464 1860.41 184.464 Q1852.06 184.464 1846.96 178.104 Q1841.85 171.744 1841.85 161.252 Q1841.85 150.72 1846.96 144.36 Q1852.06 138 1860.41 138 Q1865.43 138 1869.03 139.985 Q1872.64 141.97 1874.95 145.98 L1874.95 139.094 L1882.4 139.094 L1882.4 178.833 Z" fill="#000000" fill-rule="nonzero" fill-opacity="1" /><path clip-path="url(#clip030)" d="M1924.05 146.061 Q1922.79 145.332 1921.29 145.008 Q1919.83 144.644 1918.05 144.644 Q1911.73 144.644 1908.33 148.776 Q1904.97 152.867 1904.97 160.564 L1904.97 184.464 L1897.47 184.464 L1897.47 139.094 L1904.97 139.094 L1904.97 146.142 Q1907.32 142.011 1911.08 140.026 Q1914.85 138 1920.24 138 Q1921.01 138 1921.94 138.122 Q1922.87 138.203 1924.01 138.405 L1924.05 146.061 Z" fill="#000000" fill-rule="nonzero" fill-opacity="1" /><path clip-path="url(#clip030)" d="M1931.86 139.094 L1939.32 139.094 L1939.32 184.464 L1931.86 184.464 L1931.86 139.094 M1931.86 121.432 L1939.32 121.432 L1939.32 130.871 L1931.86 130.871 L1931.86 121.432 Z" fill="#000000" fill-rule="nonzero" fill-opacity="1" /><path clip-path="url(#clip030)" d="M1984.77 145.98 L1984.77 121.432 L1992.22 121.432 L1992.22 184.464 L1984.77 184.464 L1984.77 177.658 Q1982.42 181.709 1978.81 183.694 Q1975.25 185.639 1970.23 185.639 Q1962 185.639 1956.82 179.076 Q1951.67 172.514 1951.67 161.819 Q1951.67 151.125 1956.82 144.563 Q1962 138 1970.23 138 Q1975.25 138 1978.81 139.985 Q1982.42 141.93 1984.77 145.98 M1959.37 161.819 Q1959.37 170.043 1962.73 174.742 Q1966.13 179.4 1972.05 179.4 Q1977.96 179.4 1981.37 174.742 Q1984.77 170.043 1984.77 161.819 Q1984.77 153.596 1981.37 148.938 Q1977.96 144.239 1972.05 144.239 Q1966.13 144.239 1962.73 148.938 Q1959.37 153.596 1959.37 161.819 Z" fill="#000000" fill-rule="nonzero" fill-opacity="1" /><path clip-path="url(#clip030)" d="M2062.87 140.431 L2062.87 147.479 Q2059.71 145.859 2056.31 145.049 Q2052.91 144.239 2049.26 144.239 Q2043.71 144.239 2040.91 145.94 Q2038.16 147.641 2038.16 151.044 Q2038.16 153.637 2040.14 155.135 Q2042.13 156.594 2048.13 157.931 L2050.68 158.498 Q2058.62 160.199 2061.94 163.318 Q2065.3 166.397 2065.3 171.947 Q2065.3 178.266 2060.28 181.952 Q2055.3 185.639 2046.55 185.639 Q2042.9 185.639 2038.93 184.91 Q2035 184.221 2030.63 182.803 L2030.63 175.106 Q2034.76 177.253 2038.77 178.347 Q2042.78 179.4 2046.71 179.4 Q2051.97 179.4 2054.81 177.618 Q2057.64 175.795 2057.64 172.514 Q2057.64 169.476 2055.58 167.855 Q2053.55 166.235 2046.63 164.736 L2044.03 164.128 Q2037.11 162.67 2034.03 159.672 Q2030.95 156.634 2030.95 151.368 Q2030.95 144.968 2035.49 141.484 Q2040.02 138 2048.37 138 Q2052.5 138 2056.15 138.608 Q2059.79 139.215 2062.87 140.431 Z" fill="#000000" fill-rule="nonzero" fill-opacity="1" /><path clip-path="url(#clip030)" d="M2077.17 139.094 L2084.62 139.094 L2084.62 184.464 L2077.17 184.464 L2077.17 139.094 M2077.17 121.432 L2084.62 121.432 L2084.62 130.871 L2077.17 130.871 L2077.17 121.432 Z" fill="#000000" fill-rule="nonzero" fill-opacity="1" /><path clip-path="url(#clip030)" d="M2096.98 139.094 L2132.38 139.094 L2132.38 145.899 L2104.35 178.509 L2132.38 178.509 L2132.38 184.464 L2095.97 184.464 L2095.97 177.658 L2124 145.049 L2096.98 145.049 L2096.98 139.094 Z" fill="#000000" fill-rule="nonzero" fill-opacity="1" /><path clip-path="url(#clip030)" d="M2182.57 159.916 L2182.57 163.561 L2148.3 163.561 Q2148.79 171.258 2152.92 175.309 Q2157.09 179.319 2164.51 179.319 Q2168.8 179.319 2172.81 178.266 Q2176.86 177.213 2180.83 175.106 L2180.83 182.155 Q2176.82 183.856 2172.61 184.748 Q2168.4 185.639 2164.06 185.639 Q2153.21 185.639 2146.85 179.319 Q2140.53 173 2140.53 162.225 Q2140.53 151.085 2146.52 144.563 Q2152.56 138 2162.77 138 Q2171.92 138 2177.23 143.914 Q2182.57 149.788 2182.57 159.916 M2175.12 157.728 Q2175.04 151.611 2171.68 147.965 Q2168.36 144.32 2162.85 144.32 Q2156.61 144.32 2152.84 147.844 Q2149.11 151.368 2148.55 157.769 L2175.12 157.728 Z" fill="#000000" fill-rule="nonzero" fill-opacity="1" /><path clip-path="url(#clip030)" d="M2217.41 158.822 L2292.27 158.822 L2292.27 164.655 L2217.41 164.655 L2217.41 158.822 Z" fill="#000000" fill-rule="nonzero" fill-opacity="1" /><path clip-path="url(#clip030)" d="M2363.16 140.836 L2363.16 147.803 Q2360 146.061 2356.8 145.211 Q2353.64 144.32 2350.4 144.32 Q2343.15 144.32 2339.14 148.938 Q2335.13 153.515 2335.13 161.819 Q2335.13 170.124 2339.14 174.742 Q2343.15 179.319 2350.4 179.319 Q2353.64 179.319 2356.8 178.469 Q2360 177.577 2363.16 175.836 L2363.16 182.722 Q2360.04 184.18 2356.68 184.91 Q2353.36 185.639 2349.59 185.639 Q2339.34 185.639 2333.31 179.198 Q2327.27 172.757 2327.27 161.819 Q2327.27 150.72 2333.35 144.36 Q2339.47 138 2350.08 138 Q2353.52 138 2356.8 138.729 Q2360.09 139.418 2363.16 140.836 Z" fill="#000000" fill-rule="nonzero" fill-opacity="1" /><path clip-path="url(#clip030)" d="M2413.84 157.08 L2413.84 184.464 L2406.39 184.464 L2406.39 157.323 Q2406.39 150.882 2403.88 147.682 Q2401.36 144.482 2396.34 144.482 Q2390.3 144.482 2386.82 148.33 Q2383.34 152.178 2383.34 158.822 L2383.34 184.464 L2375.84 184.464 L2375.84 121.432 L2383.34 121.432 L2383.34 146.142 Q2386.01 142.051 2389.62 140.026 Q2393.26 138 2398 138 Q2405.82 138 2409.83 142.861 Q2413.84 147.682 2413.84 157.08 Z" fill="#000000" fill-rule="nonzero" fill-opacity="1" /><path clip-path="url(#clip030)" d="M2449.33 161.657 Q2440.29 161.657 2436.81 163.723 Q2433.33 165.789 2433.33 170.772 Q2433.33 174.742 2435.92 177.091 Q2438.55 179.4 2443.05 179.4 Q2449.25 179.4 2452.97 175.025 Q2456.74 170.61 2456.74 163.318 L2456.74 161.657 L2449.33 161.657 M2464.19 158.579 L2464.19 184.464 L2456.74 184.464 L2456.74 177.577 Q2454.19 181.709 2450.38 183.694 Q2446.57 185.639 2441.06 185.639 Q2434.1 185.639 2429.96 181.75 Q2425.87 177.821 2425.87 171.258 Q2425.87 163.602 2430.98 159.713 Q2436.12 155.824 2446.29 155.824 L2456.74 155.824 L2456.74 155.095 Q2456.74 149.95 2453.34 147.155 Q2449.97 144.32 2443.86 144.32 Q2439.97 144.32 2436.28 145.251 Q2432.6 146.183 2429.19 148.046 L2429.19 141.16 Q2433.29 139.58 2437.13 138.81 Q2440.98 138 2444.63 138 Q2454.47 138 2459.33 143.104 Q2464.19 148.208 2464.19 158.579 Z" fill="#000000" fill-rule="nonzero" fill-opacity="1" /><path clip-path="url(#clip030)" d="M2479.55 139.094 L2487 139.094 L2487 184.464 L2479.55 184.464 L2479.55 139.094 M2479.55 121.432 L2487 121.432 L2487 130.871 L2479.55 130.871 L2479.55 121.432 Z" fill="#000000" fill-rule="nonzero" fill-opacity="1" /><path clip-path="url(#clip030)" d="M2540.31 157.08 L2540.31 184.464 L2532.86 184.464 L2532.86 157.323 Q2532.86 150.882 2530.34 147.682 Q2527.83 144.482 2522.81 144.482 Q2516.77 144.482 2513.29 148.33 Q2509.81 152.178 2509.81 158.822 L2509.81 184.464 L2502.31 184.464 L2502.31 139.094 L2509.81 139.094 L2509.81 146.142 Q2512.48 142.051 2516.09 140.026 Q2519.73 138 2524.47 138 Q2532.29 138 2536.3 142.861 Q2540.31 147.682 2540.31 157.08 Z" fill="#000000" fill-rule="nonzero" fill-opacity="1" /><polyline clip-path="url(#clip032)" style="stroke:#ffa500; stroke-linecap:round; stroke-linejoin:round; stroke-width:6; stroke-opacity:1; fill:none" points="395.182,2090.53 1028.28,1939.61 1819.65,1755.48 3402.4,1344.35 "/>
<path clip-path="url(#clip032)" d="M395.182 2074.53 L379.182 2106.53 L411.182 2106.53 L395.182 2074.53 Z" fill="#ffa500" fill-rule="evenodd" fill-opacity="1" stroke="none"/>
<path clip-path="url(#clip032)" d="M1028.28 1923.61 L1012.28 1955.61 L1044.28 1955.61 L1028.28 1923.61 Z" fill="#ffa500" fill-rule="evenodd" fill-opacity="1" stroke="none"/>
<path clip-path="url(#clip032)" d="M1819.65 1739.48 L1803.65 1771.48 L1835.65 1771.48 L1819.65 1739.48 Z" fill="#ffa500" fill-rule="evenodd" fill-opacity="1" stroke="none"/>
<path clip-path="url(#clip032)" d="M3402.4 1328.35 L3386.4 1360.35 L3418.4 1360.35 L3402.4 1328.35 Z" fill="#ffa500" fill-rule="evenodd" fill-opacity="1" stroke="none"/>
<polyline clip-path="url(#clip032)" style="stroke:#00ffff; stroke-linecap:round; stroke-linejoin:round; stroke-width:6; stroke-opacity:1; fill:none" points="395.182,2052.33 1028.28,2016.15 1819.65,300.641 3402.4,1952.31 "/>
<path clip-path="url(#clip032)" d="M395.182 2068.33 L381.326 2060.33 L381.326 2044.33 L395.182 2036.33 L409.038 2044.33 L409.038 2060.33 Z" fill="#00ffff" fill-rule="evenodd" fill-opacity="1" stroke="none"/>
<path clip-path="url(#clip032)" d="M1028.28 2032.15 L1014.42 2024.15 L1014.42 2008.15 L1028.28 2000.15 L1042.14 2008.15 L1042.14 2024.15 Z" fill="#00ffff" fill-rule="evenodd" fill-opacity="1" stroke="none"/>
<path clip-path="url(#clip032)" d="M1819.65 316.641 L1805.8 308.641 L1805.8 292.641 L1819.65 284.641 L1833.51 292.641 L1833.51 308.641 Z" fill="#00ffff" fill-rule="evenodd" fill-opacity="1" stroke="none"/>
<path clip-path="url(#clip032)" d="M3402.4 1968.31 L3388.54 1960.31 L3388.54 1944.31 L3402.4 1936.31 L3416.25 1944.31 L3416.25 1960.31 Z" fill="#00ffff" fill-rule="evenodd" fill-opacity="1" stroke="none"/>
<path clip-path="url(#clip030)" d="M2674.71 2080.98 L3442.49 2080.98 L3442.49 1925.46 L2674.71 1925.46  Z" fill="#ffffff" fill-rule="evenodd" fill-opacity="1"/>
<polyline clip-path="url(#clip030)" style="stroke:#000000; stroke-linecap:round; stroke-linejoin:round; stroke-width:4; stroke-opacity:1; fill:none" points="2674.71,2080.98 3442.49,2080.98 3442.49,1925.46 2674.71,1925.46 2674.71,2080.98 "/>
<polyline clip-path="url(#clip030)" style="stroke:#ffa500; stroke-linecap:round; stroke-linejoin:round; stroke-width:6; stroke-opacity:1; fill:none" points="2711.46,1977.3 2931.99,1977.3 "/>
<path clip-path="url(#clip030)" d="M2821.73 1951.7 L2796.13 2002.9 L2847.33 2002.9 L2821.73 1951.7 Z" fill="#ffa500" fill-rule="evenodd" fill-opacity="1" stroke="none"/>
<path clip-path="url(#clip030)" d="M2979.37 1958.61 Q2976.27 1963.93 2974.77 1969.14 Q2973.26 1974.35 2973.26 1979.7 Q2973.26 1985.04 2974.77 1990.3 Q2976.29 1995.53 2979.37 2000.83 L2975.67 2000.83 Q2972.2 1995.39 2970.46 1990.14 Q2968.75 1984.88 2968.75 1979.7 Q2968.75 1974.54 2970.46 1969.3 Q2972.17 1964.07 2975.67 1958.61 L2979.37 1958.61 Z" fill="#000000" fill-rule="nonzero" fill-opacity="1" /><path clip-path="url(#clip030)" d="M3009.81 1980.55 L3009.81 1982.64 L2990.23 1982.64 Q2990.51 1987.04 2992.87 1989.35 Q2995.25 1991.64 2999.49 1991.64 Q3001.94 1991.64 3004.23 1991.04 Q3006.55 1990.44 3008.82 1989.23 L3008.82 1993.26 Q3006.53 1994.23 3004.12 1994.74 Q3001.71 1995.25 2999.23 1995.25 Q2993.03 1995.25 2989.4 1991.64 Q2985.79 1988.03 2985.79 1981.87 Q2985.79 1975.51 2989.21 1971.78 Q2992.66 1968.03 2998.49 1968.03 Q3003.72 1968.03 3006.76 1971.41 Q3009.81 1974.77 3009.81 1980.55 M3005.55 1979.3 Q3005.51 1975.81 3003.59 1973.73 Q3001.69 1971.64 2998.54 1971.64 Q2994.97 1971.64 2992.82 1973.66 Q2990.69 1975.67 2990.37 1979.33 L3005.55 1979.3 Z" fill="#000000" fill-rule="nonzero" fill-opacity="1" /><path clip-path="url(#clip030)" d="M3037.52 1968.66 L3028.15 1981.27 L3038.01 1994.58 L3032.98 1994.58 L3025.44 1984.4 L3017.89 1994.58 L3012.87 1994.58 L3022.94 1981.02 L3013.72 1968.66 L3018.75 1968.66 L3025.62 1977.89 L3032.5 1968.66 L3037.52 1968.66 Z" fill="#000000" fill-rule="nonzero" fill-opacity="1" /><path clip-path="url(#clip030)" d="M3055.81 1981.55 Q3050.65 1981.55 3048.66 1982.73 Q3046.66 1983.91 3046.66 1986.76 Q3046.66 1989.03 3048.15 1990.37 Q3049.65 1991.69 3052.22 1991.69 Q3055.76 1991.69 3057.89 1989.19 Q3060.04 1986.67 3060.04 1982.5 L3060.04 1981.55 L3055.81 1981.55 M3064.3 1979.79 L3064.3 1994.58 L3060.04 1994.58 L3060.04 1990.65 Q3058.59 1993.01 3056.41 1994.14 Q3054.23 1995.25 3051.09 1995.25 Q3047.1 1995.25 3044.74 1993.03 Q3042.41 1990.79 3042.41 1987.04 Q3042.41 1982.66 3045.32 1980.44 Q3048.26 1978.22 3054.07 1978.22 L3060.04 1978.22 L3060.04 1977.8 Q3060.04 1974.86 3058.1 1973.26 Q3056.18 1971.64 3052.68 1971.64 Q3050.46 1971.64 3048.35 1972.17 Q3046.25 1972.71 3044.3 1973.77 L3044.3 1969.84 Q3046.64 1968.93 3048.84 1968.49 Q3051.04 1968.03 3053.12 1968.03 Q3058.75 1968.03 3061.53 1970.95 Q3064.3 1973.86 3064.3 1979.79 Z" fill="#000000" fill-rule="nonzero" fill-opacity="1" /><path clip-path="url(#clip030)" d="M3074.16 1988.7 L3079.05 1988.7 L3079.05 1992.68 L3075.25 2000.09 L3072.27 2000.09 L3074.16 1992.68 L3074.16 1988.7 Z" fill="#000000" fill-rule="nonzero" fill-opacity="1" /><path clip-path="url(#clip030)" d="M3123.4 1973.63 Q3125 1970.76 3127.22 1969.4 Q3129.44 1968.03 3132.45 1968.03 Q3136.5 1968.03 3138.7 1970.88 Q3140.9 1973.7 3140.9 1978.93 L3140.9 1994.58 L3136.62 1994.58 L3136.62 1979.07 Q3136.62 1975.35 3135.3 1973.54 Q3133.98 1971.73 3131.27 1971.73 Q3127.96 1971.73 3126.04 1973.93 Q3124.12 1976.13 3124.12 1979.93 L3124.12 1994.58 L3119.84 1994.58 L3119.84 1979.07 Q3119.84 1975.32 3118.52 1973.54 Q3117.2 1971.73 3114.44 1971.73 Q3111.18 1971.73 3109.26 1973.96 Q3107.34 1976.16 3107.34 1979.93 L3107.34 1994.58 L3103.05 1994.58 L3103.05 1968.66 L3107.34 1968.66 L3107.34 1972.68 Q3108.79 1970.3 3110.83 1969.17 Q3112.87 1968.03 3115.67 1968.03 Q3118.49 1968.03 3120.46 1969.47 Q3122.45 1970.9 3123.4 1973.63 Z" fill="#000000" fill-rule="nonzero" fill-opacity="1" /><path clip-path="url(#clip030)" d="M3161.18 1981.55 Q3156.02 1981.55 3154.02 1982.73 Q3152.03 1983.91 3152.03 1986.76 Q3152.03 1989.03 3153.52 1990.37 Q3155.02 1991.69 3157.59 1991.69 Q3161.13 1991.69 3163.26 1989.19 Q3165.41 1986.67 3165.41 1982.5 L3165.41 1981.55 L3161.18 1981.55 M3169.67 1979.79 L3169.67 1994.58 L3165.41 1994.58 L3165.41 1990.65 Q3163.96 1993.01 3161.78 1994.14 Q3159.6 1995.25 3156.46 1995.25 Q3152.47 1995.25 3150.11 1993.03 Q3147.77 1990.79 3147.77 1987.04 Q3147.77 1982.66 3150.69 1980.44 Q3153.63 1978.22 3159.44 1978.22 L3165.41 1978.22 L3165.41 1977.8 Q3165.41 1974.86 3163.47 1973.26 Q3161.55 1971.64 3158.05 1971.64 Q3155.83 1971.64 3153.72 1972.17 Q3151.62 1972.71 3149.67 1973.77 L3149.67 1969.84 Q3152.01 1968.93 3154.21 1968.49 Q3156.41 1968.03 3158.49 1968.03 Q3164.12 1968.03 3166.9 1970.95 Q3169.67 1973.86 3169.67 1979.79 Z" fill="#000000" fill-rule="nonzero" fill-opacity="1" /><path clip-path="url(#clip030)" d="M3195.51 1972.59 L3195.51 1958.56 L3199.77 1958.56 L3199.77 1994.58 L3195.51 1994.58 L3195.51 1990.69 Q3194.16 1993.01 3192.1 1994.14 Q3190.07 1995.25 3187.2 1995.25 Q3182.5 1995.25 3179.53 1991.5 Q3176.59 1987.75 3176.59 1981.64 Q3176.59 1975.53 3179.53 1971.78 Q3182.5 1968.03 3187.2 1968.03 Q3190.07 1968.03 3192.1 1969.17 Q3194.16 1970.28 3195.51 1972.59 M3180.99 1981.64 Q3180.99 1986.34 3182.91 1989.03 Q3184.86 1991.69 3188.24 1991.69 Q3191.62 1991.69 3193.56 1989.03 Q3195.51 1986.34 3195.51 1981.64 Q3195.51 1976.94 3193.56 1974.28 Q3191.62 1971.6 3188.24 1971.6 Q3184.86 1971.6 3182.91 1974.28 Q3180.99 1976.94 3180.99 1981.64 Z" fill="#000000" fill-rule="nonzero" fill-opacity="1" /><path clip-path="url(#clip030)" d="M3230.09 1978.93 L3230.09 1994.58 L3225.83 1994.58 L3225.83 1979.07 Q3225.83 1975.39 3224.39 1973.56 Q3222.96 1971.73 3220.09 1971.73 Q3216.64 1971.73 3214.65 1973.93 Q3212.66 1976.13 3212.66 1979.93 L3212.66 1994.58 L3208.38 1994.58 L3208.38 1968.66 L3212.66 1968.66 L3212.66 1972.68 Q3214.19 1970.35 3216.25 1969.19 Q3218.33 1968.03 3221.04 1968.03 Q3225.51 1968.03 3227.8 1970.81 Q3230.09 1973.56 3230.09 1978.93 Z" fill="#000000" fill-rule="nonzero" fill-opacity="1" /><path clip-path="url(#clip030)" d="M3238.58 1958.56 L3242.84 1958.56 L3242.84 1994.58 L3238.58 1994.58 L3238.58 1958.56 Z" fill="#000000" fill-rule="nonzero" fill-opacity="1" /><path clip-path="url(#clip030)" d="M3255.88 1990.69 L3255.88 2004.44 L3251.59 2004.44 L3251.59 1968.66 L3255.88 1968.66 L3255.88 1972.59 Q3257.22 1970.28 3259.26 1969.17 Q3261.32 1968.03 3264.16 1968.03 Q3268.89 1968.03 3271.83 1971.78 Q3274.79 1975.53 3274.79 1981.64 Q3274.79 1987.75 3271.83 1991.5 Q3268.89 1995.25 3264.16 1995.25 Q3261.32 1995.25 3259.26 1994.14 Q3257.22 1993.01 3255.88 1990.69 M3270.37 1981.64 Q3270.37 1976.94 3268.42 1974.28 Q3266.5 1971.6 3263.12 1971.6 Q3259.74 1971.6 3257.8 1974.28 Q3255.88 1976.94 3255.88 1981.64 Q3255.88 1986.34 3257.8 1989.03 Q3259.74 1991.69 3263.12 1991.69 Q3266.5 1991.69 3268.42 1989.03 Q3270.37 1986.34 3270.37 1981.64 Z" fill="#000000" fill-rule="nonzero" fill-opacity="1" /><path clip-path="url(#clip030)" d="M3281.18 1958.61 L3284.88 1958.61 Q3288.35 1964.07 3290.07 1969.3 Q3291.8 1974.54 3291.8 1979.7 Q3291.8 1984.88 3290.07 1990.14 Q3288.35 1995.39 3284.88 2000.83 L3281.18 2000.83 Q3284.26 1995.53 3285.76 1990.3 Q3287.29 1985.04 3287.29 1979.7 Q3287.29 1974.35 3285.76 1969.14 Q3284.26 1963.93 3281.18 1958.61 Z" fill="#000000" fill-rule="nonzero" fill-opacity="1" /><polyline clip-path="url(#clip030)" style="stroke:#00ffff; stroke-linecap:round; stroke-linejoin:round; stroke-width:6; stroke-opacity:1; fill:none" points="2711.46,2029.14 2931.99,2029.14 "/>
<path clip-path="url(#clip030)" d="M2821.73 2054.74 L2799.56 2041.94 L2799.56 2016.34 L2821.73 2003.54 L2843.9 2016.34 L2843.9 2041.94 Z" fill="#00ffff" fill-rule="evenodd" fill-opacity="1" stroke="none"/>
<path clip-path="url(#clip030)" d="M2979.37 2010.45 Q2976.27 2015.77 2974.77 2020.98 Q2973.26 2026.19 2973.26 2031.54 Q2973.26 2036.88 2974.77 2042.14 Q2976.29 2047.37 2979.37 2052.67 L2975.67 2052.67 Q2972.2 2047.23 2970.46 2041.98 Q2968.75 2036.72 2968.75 2031.54 Q2968.75 2026.38 2970.46 2021.14 Q2972.17 2015.91 2975.67 2010.45 L2979.37 2010.45 Z" fill="#000000" fill-rule="nonzero" fill-opacity="1" /><path clip-path="url(#clip030)" d="M3009.81 2032.39 L3009.81 2034.48 L2990.23 2034.48 Q2990.51 2038.88 2992.87 2041.19 Q2995.25 2043.48 2999.49 2043.48 Q3001.94 2043.48 3004.23 2042.88 Q3006.55 2042.28 3008.82 2041.07 L3008.82 2045.1 Q3006.53 2046.07 3004.12 2046.58 Q3001.71 2047.09 2999.23 2047.09 Q2993.03 2047.09 2989.4 2043.48 Q2985.79 2039.87 2985.79 2033.71 Q2985.79 2027.35 2989.21 2023.62 Q2992.66 2019.87 2998.49 2019.87 Q3003.72 2019.87 3006.76 2023.25 Q3009.81 2026.61 3009.81 2032.39 M3005.55 2031.14 Q3005.51 2027.65 3003.59 2025.57 Q3001.69 2023.48 2998.54 2023.48 Q2994.97 2023.48 2992.82 2025.5 Q2990.69 2027.51 2990.37 2031.17 L3005.55 2031.14 Z" fill="#000000" fill-rule="nonzero" fill-opacity="1" /><path clip-path="url(#clip030)" d="M3037.52 2020.5 L3028.15 2033.11 L3038.01 2046.42 L3032.98 2046.42 L3025.44 2036.24 L3017.89 2046.42 L3012.87 2046.42 L3022.94 2032.86 L3013.72 2020.5 L3018.75 2020.5 L3025.62 2029.73 L3032.5 2020.5 L3037.52 2020.5 Z" fill="#000000" fill-rule="nonzero" fill-opacity="1" /><path clip-path="url(#clip030)" d="M3055.81 2033.39 Q3050.65 2033.39 3048.66 2034.57 Q3046.66 2035.75 3046.66 2038.6 Q3046.66 2040.87 3048.15 2042.21 Q3049.65 2043.53 3052.22 2043.53 Q3055.76 2043.53 3057.89 2041.03 Q3060.04 2038.51 3060.04 2034.34 L3060.04 2033.39 L3055.81 2033.39 M3064.3 2031.63 L3064.3 2046.42 L3060.04 2046.42 L3060.04 2042.49 Q3058.59 2044.85 3056.41 2045.98 Q3054.23 2047.09 3051.09 2047.09 Q3047.1 2047.09 3044.74 2044.87 Q3042.41 2042.63 3042.41 2038.88 Q3042.41 2034.5 3045.32 2032.28 Q3048.26 2030.06 3054.07 2030.06 L3060.04 2030.06 L3060.04 2029.64 Q3060.04 2026.7 3058.1 2025.1 Q3056.18 2023.48 3052.68 2023.48 Q3050.46 2023.48 3048.35 2024.01 Q3046.25 2024.55 3044.3 2025.61 L3044.3 2021.68 Q3046.64 2020.77 3048.84 2020.33 Q3051.04 2019.87 3053.12 2019.87 Q3058.75 2019.87 3061.53 2022.79 Q3064.3 2025.7 3064.3 2031.63 Z" fill="#000000" fill-rule="nonzero" fill-opacity="1" /><path clip-path="url(#clip030)" d="M3092.78 2054.29 L3092.78 2057.6 L3068.15 2057.6 L3068.15 2054.29 L3092.78 2054.29 Z" fill="#000000" fill-rule="nonzero" fill-opacity="1" /><path clip-path="url(#clip030)" d="M3113.84 2033.16 Q3113.84 2028.53 3111.92 2025.98 Q3110.02 2023.44 3106.57 2023.44 Q3103.15 2023.44 3101.22 2025.98 Q3099.33 2028.53 3099.33 2033.16 Q3099.33 2037.76 3101.22 2040.31 Q3103.15 2042.86 3106.57 2042.86 Q3110.02 2042.86 3111.92 2040.31 Q3113.84 2037.76 3113.84 2033.16 M3118.1 2043.2 Q3118.1 2049.82 3115.16 2053.04 Q3112.22 2056.28 3106.15 2056.28 Q3103.91 2056.28 3101.92 2055.94 Q3099.93 2055.61 3098.05 2054.92 L3098.05 2050.77 Q3099.93 2051.79 3101.76 2052.28 Q3103.59 2052.76 3105.48 2052.76 Q3109.67 2052.76 3111.76 2050.57 Q3113.84 2048.39 3113.84 2043.97 L3113.84 2041.86 Q3112.52 2044.15 3110.46 2045.29 Q3108.4 2046.42 3105.53 2046.42 Q3100.76 2046.42 3097.84 2042.79 Q3094.93 2039.15 3094.93 2033.16 Q3094.93 2027.14 3097.84 2023.51 Q3100.76 2019.87 3105.53 2019.87 Q3108.4 2019.87 3110.46 2021.01 Q3112.52 2022.14 3113.84 2024.43 L3113.84 2020.5 L3118.1 2020.5 L3118.1 2043.2 Z" fill="#000000" fill-rule="nonzero" fill-opacity="1" /><path clip-path="url(#clip030)" d="M3130.99 2042.53 L3130.99 2056.28 L3126.71 2056.28 L3126.71 2020.5 L3130.99 2020.5 L3130.99 2024.43 Q3132.34 2022.12 3134.37 2021.01 Q3136.43 2019.87 3139.28 2019.87 Q3144 2019.87 3146.94 2023.62 Q3149.9 2027.37 3149.9 2033.48 Q3149.9 2039.59 3146.94 2043.34 Q3144 2047.09 3139.28 2047.09 Q3136.43 2047.09 3134.37 2045.98 Q3132.34 2044.85 3130.99 2042.53 M3145.48 2033.48 Q3145.48 2028.78 3143.54 2026.12 Q3141.62 2023.44 3138.24 2023.44 Q3134.86 2023.44 3132.91 2026.12 Q3130.99 2028.78 3130.99 2033.48 Q3130.99 2038.18 3132.91 2040.87 Q3134.86 2043.53 3138.24 2043.53 Q3141.62 2043.53 3143.54 2040.87 Q3145.48 2038.18 3145.48 2033.48 Z" fill="#000000" fill-rule="nonzero" fill-opacity="1" /><path clip-path="url(#clip030)" d="M3156.52 2036.19 L3156.52 2020.5 L3160.78 2020.5 L3160.78 2036.03 Q3160.78 2039.71 3162.22 2041.56 Q3163.65 2043.39 3166.52 2043.39 Q3169.97 2043.39 3171.96 2041.19 Q3173.98 2038.99 3173.98 2035.2 L3173.98 2020.5 L3178.24 2020.5 L3178.24 2046.42 L3173.98 2046.42 L3173.98 2042.44 Q3172.43 2044.8 3170.37 2045.96 Q3168.33 2047.09 3165.62 2047.09 Q3161.15 2047.09 3158.84 2044.32 Q3156.52 2041.54 3156.52 2036.19 M3167.24 2019.87 L3167.24 2019.87 Z" fill="#000000" fill-rule="nonzero" fill-opacity="1" /><path clip-path="url(#clip030)" d="M3188.1 2040.54 L3192.98 2040.54 L3192.98 2044.52 L3189.19 2051.93 L3186.2 2051.93 L3188.1 2044.52 L3188.1 2040.54 Z" fill="#000000" fill-rule="nonzero" fill-opacity="1" /><path clip-path="url(#clip030)" d="M3237.33 2025.47 Q3238.93 2022.6 3241.15 2021.24 Q3243.38 2019.87 3246.39 2019.87 Q3250.44 2019.87 3252.64 2022.72 Q3254.83 2025.54 3254.83 2030.77 L3254.83 2046.42 L3250.55 2046.42 L3250.55 2030.91 Q3250.55 2027.19 3249.23 2025.38 Q3247.91 2023.57 3245.21 2023.57 Q3241.89 2023.57 3239.97 2025.77 Q3238.05 2027.97 3238.05 2031.77 L3238.05 2046.42 L3233.77 2046.42 L3233.77 2030.91 Q3233.77 2027.16 3232.45 2025.38 Q3231.13 2023.57 3228.38 2023.57 Q3225.11 2023.57 3223.19 2025.8 Q3221.27 2028 3221.27 2031.77 L3221.27 2046.42 L3216.99 2046.42 L3216.99 2020.5 L3221.27 2020.5 L3221.27 2024.52 Q3222.73 2022.14 3224.77 2021.01 Q3226.8 2019.87 3229.6 2019.87 Q3232.43 2019.87 3234.39 2021.31 Q3236.39 2022.74 3237.33 2025.47 Z" fill="#000000" fill-rule="nonzero" fill-opacity="1" /><path clip-path="url(#clip030)" d="M3275.11 2033.39 Q3269.95 2033.39 3267.96 2034.57 Q3265.97 2035.75 3265.97 2038.6 Q3265.97 2040.87 3267.45 2042.21 Q3268.95 2043.53 3271.52 2043.53 Q3275.07 2043.53 3277.2 2041.03 Q3279.35 2038.51 3279.35 2034.34 L3279.35 2033.39 L3275.11 2033.39 M3283.61 2031.63 L3283.61 2046.42 L3279.35 2046.42 L3279.35 2042.49 Q3277.89 2044.85 3275.71 2045.98 Q3273.54 2047.09 3270.39 2047.09 Q3266.41 2047.09 3264.05 2044.87 Q3261.71 2042.63 3261.71 2038.88 Q3261.71 2034.5 3264.63 2032.28 Q3267.57 2030.06 3273.38 2030.06 L3279.35 2030.06 L3279.35 2029.64 Q3279.35 2026.7 3277.4 2025.1 Q3275.48 2023.48 3271.99 2023.48 Q3269.77 2023.48 3267.66 2024.01 Q3265.55 2024.55 3263.61 2025.61 L3263.61 2021.68 Q3265.95 2020.77 3268.14 2020.33 Q3270.34 2019.87 3272.43 2019.87 Q3278.05 2019.87 3280.83 2022.79 Q3283.61 2025.7 3283.61 2031.63 Z" fill="#000000" fill-rule="nonzero" fill-opacity="1" /><path clip-path="url(#clip030)" d="M3309.44 2024.43 L3309.44 2010.4 L3313.7 2010.4 L3313.7 2046.42 L3309.44 2046.42 L3309.44 2042.53 Q3308.1 2044.85 3306.04 2045.98 Q3304 2047.09 3301.13 2047.09 Q3296.43 2047.09 3293.47 2043.34 Q3290.53 2039.59 3290.53 2033.48 Q3290.53 2027.37 3293.47 2023.62 Q3296.43 2019.87 3301.13 2019.87 Q3304 2019.87 3306.04 2021.01 Q3308.1 2022.12 3309.44 2024.43 M3294.93 2033.48 Q3294.93 2038.18 3296.85 2040.87 Q3298.79 2043.53 3302.17 2043.53 Q3305.55 2043.53 3307.5 2040.87 Q3309.44 2038.18 3309.44 2033.48 Q3309.44 2028.78 3307.5 2026.12 Q3305.55 2023.44 3302.17 2023.44 Q3298.79 2023.44 3296.85 2026.12 Q3294.93 2028.78 3294.93 2033.48 Z" fill="#000000" fill-rule="nonzero" fill-opacity="1" /><path clip-path="url(#clip030)" d="M3344.02 2030.77 L3344.02 2046.42 L3339.76 2046.42 L3339.76 2030.91 Q3339.76 2027.23 3338.33 2025.4 Q3336.89 2023.57 3334.02 2023.57 Q3330.57 2023.57 3328.58 2025.77 Q3326.59 2027.97 3326.59 2031.77 L3326.59 2046.42 L3322.31 2046.42 L3322.31 2020.5 L3326.59 2020.5 L3326.59 2024.52 Q3328.12 2022.19 3330.18 2021.03 Q3332.26 2019.87 3334.97 2019.87 Q3339.44 2019.87 3341.73 2022.65 Q3344.02 2025.4 3344.02 2030.77 Z" fill="#000000" fill-rule="nonzero" fill-opacity="1" /><path clip-path="url(#clip030)" d="M3352.52 2010.4 L3356.78 2010.4 L3356.78 2046.42 L3352.52 2046.42 L3352.52 2010.4 Z" fill="#000000" fill-rule="nonzero" fill-opacity="1" /><path clip-path="url(#clip030)" d="M3369.81 2042.53 L3369.81 2056.28 L3365.53 2056.28 L3365.53 2020.5 L3369.81 2020.5 L3369.81 2024.43 Q3371.15 2022.12 3373.19 2021.01 Q3375.25 2019.87 3378.1 2019.87 Q3382.82 2019.87 3385.76 2023.62 Q3388.72 2027.37 3388.72 2033.48 Q3388.72 2039.59 3385.76 2043.34 Q3382.82 2047.09 3378.1 2047.09 Q3375.25 2047.09 3373.19 2045.98 Q3371.15 2044.85 3369.81 2042.53 M3384.3 2033.48 Q3384.3 2028.78 3382.36 2026.12 Q3380.44 2023.44 3377.06 2023.44 Q3373.68 2023.44 3371.73 2026.12 Q3369.81 2028.78 3369.81 2033.48 Q3369.81 2038.18 3371.73 2040.87 Q3373.68 2043.53 3377.06 2043.53 Q3380.44 2043.53 3382.36 2040.87 Q3384.3 2038.18 3384.3 2033.48 Z" fill="#000000" fill-rule="nonzero" fill-opacity="1" /><path clip-path="url(#clip030)" d="M3395.11 2010.45 L3398.82 2010.45 Q3402.29 2015.91 3404 2021.14 Q3405.74 2026.38 3405.74 2031.54 Q3405.74 2036.72 3404 2041.98 Q3402.29 2047.23 3398.82 2052.67 L3395.11 2052.67 Q3398.19 2047.37 3399.69 2042.14 Q3401.22 2036.88 3401.22 2031.54 Q3401.22 2026.19 3399.69 2020.98 Q3398.19 2015.77 3395.11 2010.45 Z" fill="#000000" fill-rule="nonzero" fill-opacity="1" /></svg>
