<?xml version="1.0" encoding="utf-8"?>
<svg xmlns="http://www.w3.org/2000/svg" xmlns:xlink="http://www.w3.org/1999/xlink" width="900" height="600" viewBox="0 0 3600 2400">
<defs>
  <clipPath id="clip060">
    <rect x="0" y="0" width="3600" height="2400"/>
  </clipPath>
</defs>
<path clip-path="url(#clip060)" d="M0 2400 L3600 2400 L3600 0 L0 0  Z" fill="#ffffff" fill-rule="evenodd" fill-opacity="1"/>
<defs>
  <clipPath id="clip061">
    <rect x="720" y="0" width="2521" height="2400"/>
  </clipPath>
</defs>
<path clip-path="url(#clip060)" d="M244.821 2156.51 L3552.76 2156.51 L3552.76 246.944 L244.821 246.944  Z" fill="#ffffff" fill-rule="evenodd" fill-opacity="1"/>
<defs>
  <clipPath id="clip062">
    <rect x="244" y="246" width="3309" height="1911"/>
  </clipPath>
</defs>
<polyline clip-path="url(#clip062)" style="stroke:#000000; stroke-linecap:round; stroke-linejoin:round; stroke-width:2; stroke-opacity:0.1; fill:none" points="651.376,2156.51 651.376,246.944 "/>
<polyline clip-path="url(#clip062)" style="stroke:#000000; stroke-linecap:round; stroke-linejoin:round; stroke-width:2; stroke-opacity:0.1; fill:none" points="1482.98,2156.51 1482.98,246.944 "/>
<polyline clip-path="url(#clip062)" style="stroke:#000000; stroke-linecap:round; stroke-linejoin:round; stroke-width:2; stroke-opacity:0.1; fill:none" points="2314.59,2156.51 2314.59,246.944 "/>
<polyline clip-path="url(#clip062)" style="stroke:#000000; stroke-linecap:round; stroke-linejoin:round; stroke-width:2; stroke-opacity:0.1; fill:none" points="3146.2,2156.51 3146.2,246.944 "/>
<polyline clip-path="url(#clip062)" style="stroke:#000000; stroke-linecap:round; stroke-linejoin:round; stroke-width:2; stroke-opacity:0.1; fill:none" points="244.821,2156.51 3552.76,2156.51 "/>
<polyline clip-path="url(#clip062)" style="stroke:#000000; stroke-linecap:round; stroke-linejoin:round; stroke-width:2; stroke-opacity:0.1; fill:none" points="244.821,1609.05 3552.76,1609.05 "/>
<polyline clip-path="url(#clip062)" style="stroke:#000000; stroke-linecap:round; stroke-linejoin:round; stroke-width:2; stroke-opacity:0.1; fill:none" points="244.821,1061.6 3552.76,1061.6 "/>
<polyline clip-path="url(#clip062)" style="stroke:#000000; stroke-linecap:round; stroke-linejoin:round; stroke-width:2; stroke-opacity:0.1; fill:none" points="244.821,514.14 3552.76,514.14 "/>
<polyline clip-path="url(#clip060)" style="stroke:#000000; stroke-linecap:round; stroke-linejoin:round; stroke-width:4; stroke-opacity:1; fill:none" points="244.821,2156.51 3552.76,2156.51 "/>
<polyline clip-path="url(#clip060)" style="stroke:#000000; stroke-linecap:round; stroke-linejoin:round; stroke-width:4; stroke-opacity:1; fill:none" points="651.376,2156.51 651.376,2137.61 "/>
<polyline clip-path="url(#clip060)" style="stroke:#000000; stroke-linecap:round; stroke-linejoin:round; stroke-width:4; stroke-opacity:1; fill:none" points="1482.98,2156.51 1482.98,2137.61 "/>
<polyline clip-path="url(#clip060)" style="stroke:#000000; stroke-linecap:round; stroke-linejoin:round; stroke-width:4; stroke-opacity:1; fill:none" points="2314.59,2156.51 2314.59,2137.61 "/>
<polyline clip-path="url(#clip060)" style="stroke:#000000; stroke-linecap:round; stroke-linejoin:round; stroke-width:4; stroke-opacity:1; fill:none" points="3146.2,2156.51 3146.2,2137.61 "/>
<path clip-path="url(#clip060)" d="M595.902 2224.57 L603.541 2224.57 L603.541 2198.21 L595.231 2199.87 L595.231 2195.61 L603.494 2193.95 L608.17 2193.95 L608.17 2224.57 L615.809 2224.57 L615.809 2228.51 L595.902 2228.51 L595.902 2224.57 Z" fill="#000000" fill-rule="nonzero" fill-opacity="1" /><path clip-path="url(#clip060)" d="M635.253 2197.03 Q631.642 2197.03 629.814 2200.59 Q628.008 2204.13 628.008 2211.26 Q628.008 2218.37 629.814 2221.93 Q631.642 2225.48 635.253 2225.48 Q638.888 2225.48 640.693 2221.93 Q642.522 2218.37 642.522 2211.26 Q642.522 2204.13 640.693 2200.59 Q638.888 2197.03 635.253 2197.03 M635.253 2193.32 Q641.064 2193.32 644.119 2197.93 Q647.198 2202.51 647.198 2211.26 Q647.198 2219.99 644.119 2224.6 Q641.064 2229.18 635.253 2229.18 Q629.443 2229.18 626.365 2224.6 Q623.309 2219.99 623.309 2211.26 Q623.309 2202.51 626.365 2197.93 Q629.443 2193.32 635.253 2193.32 Z" fill="#000000" fill-rule="nonzero" fill-opacity="1" /><path clip-path="url(#clip060)" d="M665.415 2197.03 Q661.804 2197.03 659.976 2200.59 Q658.17 2204.13 658.17 2211.26 Q658.17 2218.37 659.976 2221.93 Q661.804 2225.48 665.415 2225.48 Q669.05 2225.48 670.855 2221.93 Q672.684 2218.37 672.684 2211.26 Q672.684 2204.13 670.855 2200.59 Q669.05 2197.03 665.415 2197.03 M665.415 2193.32 Q671.225 2193.32 674.281 2197.93 Q677.36 2202.51 677.36 2211.26 Q677.36 2219.99 674.281 2224.6 Q671.225 2229.18 665.415 2229.18 Q659.605 2229.18 656.526 2224.6 Q653.471 2219.99 653.471 2211.26 Q653.471 2202.51 656.526 2197.93 Q659.605 2193.32 665.415 2193.32 Z" fill="#000000" fill-rule="nonzero" fill-opacity="1" /><path clip-path="url(#clip060)" d="M695.577 2197.03 Q691.966 2197.03 690.137 2200.59 Q688.332 2204.13 688.332 2211.26 Q688.332 2218.37 690.137 2221.93 Q691.966 2225.48 695.577 2225.48 Q699.211 2225.48 701.017 2221.93 Q702.846 2218.37 702.846 2211.26 Q702.846 2204.13 701.017 2200.59 Q699.211 2197.03 695.577 2197.03 M695.577 2193.32 Q701.387 2193.32 704.443 2197.93 Q707.522 2202.51 707.522 2211.26 Q707.522 2219.99 704.443 2224.6 Q701.387 2229.18 695.577 2229.18 Q689.767 2229.18 686.688 2224.6 Q683.633 2219.99 683.633 2211.26 Q683.633 2202.51 686.688 2197.93 Q689.767 2193.32 695.577 2193.32 Z" fill="#000000" fill-rule="nonzero" fill-opacity="1" /><path clip-path="url(#clip060)" d="M1427.52 2193.95 L1445.88 2193.95 L1445.88 2197.88 L1431.8 2197.88 L1431.8 2206.36 Q1432.82 2206.01 1433.84 2205.85 Q1434.86 2205.66 1435.88 2205.66 Q1441.67 2205.66 1445.04 2208.83 Q1448.42 2212 1448.42 2217.42 Q1448.42 2223 1444.95 2226.1 Q1441.48 2229.18 1435.16 2229.18 Q1432.98 2229.18 1430.72 2228.81 Q1428.47 2228.44 1426.06 2227.7 L1426.06 2223 Q1428.15 2224.13 1430.37 2224.69 Q1432.59 2225.24 1435.07 2225.24 Q1439.07 2225.24 1441.41 2223.14 Q1443.75 2221.03 1443.75 2217.42 Q1443.75 2213.81 1441.41 2211.7 Q1439.07 2209.6 1435.07 2209.6 Q1433.19 2209.6 1431.32 2210.01 Q1429.47 2210.43 1427.52 2211.31 L1427.52 2193.95 Z" fill="#000000" fill-rule="nonzero" fill-opacity="1" /><path clip-path="url(#clip060)" d="M1467.64 2197.03 Q1464.03 2197.03 1462.2 2200.59 Q1460.39 2204.13 1460.39 2211.26 Q1460.39 2218.37 1462.2 2221.93 Q1464.03 2225.48 1467.64 2225.48 Q1471.27 2225.48 1473.08 2221.93 Q1474.91 2218.37 1474.91 2211.26 Q1474.91 2204.13 1473.08 2200.59 Q1471.27 2197.03 1467.64 2197.03 M1467.64 2193.32 Q1473.45 2193.32 1476.5 2197.93 Q1479.58 2202.51 1479.58 2211.26 Q1479.58 2219.99 1476.5 2224.6 Q1473.45 2229.18 1467.64 2229.18 Q1461.83 2229.18 1458.75 2224.6 Q1455.69 2219.99 1455.69 2211.26 Q1455.69 2202.51 1458.75 2197.93 Q1461.83 2193.32 1467.64 2193.32 Z" fill="#000000" fill-rule="nonzero" fill-opacity="1" /><path clip-path="url(#clip060)" d="M1497.8 2197.03 Q1494.19 2197.03 1492.36 2200.59 Q1490.55 2204.13 1490.55 2211.26 Q1490.55 2218.37 1492.36 2221.93 Q1494.19 2225.48 1497.8 2225.48 Q1501.43 2225.48 1503.24 2221.93 Q1505.07 2218.37 1505.07 2211.26 Q1505.07 2204.13 1503.24 2200.59 Q1501.43 2197.03 1497.8 2197.03 M1497.8 2193.32 Q1503.61 2193.32 1506.66 2197.93 Q1509.74 2202.51 1509.74 2211.26 Q1509.74 2219.99 1506.66 2224.6 Q1503.61 2229.18 1497.8 2229.18 Q1491.99 2229.18 1488.91 2224.6 Q1485.85 2219.99 1485.85 2211.26 Q1485.85 2202.51 1488.91 2197.93 Q1491.99 2193.32 1497.8 2193.32 Z" fill="#000000" fill-rule="nonzero" fill-opacity="1" /><path clip-path="url(#clip060)" d="M1527.96 2197.03 Q1524.35 2197.03 1522.52 2200.59 Q1520.72 2204.13 1520.72 2211.26 Q1520.72 2218.37 1522.52 2221.93 Q1524.35 2225.48 1527.96 2225.48 Q1531.6 2225.48 1533.4 2221.93 Q1535.23 2218.37 1535.23 2211.26 Q1535.23 2204.13 1533.4 2200.59 Q1531.6 2197.03 1527.96 2197.03 M1527.96 2193.32 Q1533.77 2193.32 1536.83 2197.93 Q1539.91 2202.51 1539.91 2211.26 Q1539.91 2219.99 1536.83 2224.6 Q1533.77 2229.18 1527.96 2229.18 Q1522.15 2229.18 1519.07 2224.6 Q1516.02 2219.99 1516.02 2211.26 Q1516.02 2202.51 1519.07 2197.93 Q1522.15 2193.32 1527.96 2193.32 Z" fill="#000000" fill-rule="nonzero" fill-opacity="1" /><path clip-path="url(#clip060)" d="M2244.04 2224.57 L2251.68 2224.57 L2251.68 2198.21 L2243.37 2199.87 L2243.37 2195.61 L2251.63 2193.95 L2256.31 2193.95 L2256.31 2224.57 L2263.94 2224.57 L2263.94 2228.51 L2244.04 2228.51 L2244.04 2224.57 Z" fill="#000000" fill-rule="nonzero" fill-opacity="1" /><path clip-path="url(#clip060)" d="M2283.39 2197.03 Q2279.78 2197.03 2277.95 2200.59 Q2276.14 2204.13 2276.14 2211.26 Q2276.14 2218.37 2277.95 2221.93 Q2279.78 2225.48 2283.39 2225.48 Q2287.02 2225.48 2288.83 2221.93 Q2290.66 2218.37 2290.66 2211.26 Q2290.66 2204.13 2288.83 2200.59 Q2287.02 2197.03 2283.39 2197.03 M2283.39 2193.32 Q2289.2 2193.32 2292.25 2197.93 Q2295.33 2202.51 2295.33 2211.26 Q2295.33 2219.99 2292.25 2224.6 Q2289.2 2229.18 2283.39 2229.18 Q2277.58 2229.18 2274.5 2224.6 Q2271.44 2219.99 2271.44 2211.26 Q2271.44 2202.51 2274.5 2197.93 Q2277.58 2193.32 2283.39 2193.32 Z" fill="#000000" fill-rule="nonzero" fill-opacity="1" /><path clip-path="url(#clip060)" d="M2313.55 2197.03 Q2309.94 2197.03 2308.11 2200.59 Q2306.31 2204.13 2306.31 2211.26 Q2306.31 2218.37 2308.11 2221.93 Q2309.94 2225.48 2313.55 2225.48 Q2317.19 2225.48 2318.99 2221.93 Q2320.82 2218.37 2320.82 2211.26 Q2320.82 2204.13 2318.99 2200.59 Q2317.19 2197.03 2313.55 2197.03 M2313.55 2193.32 Q2319.36 2193.32 2322.42 2197.93 Q2325.5 2202.51 2325.5 2211.26 Q2325.5 2219.99 2322.42 2224.6 Q2319.36 2229.18 2313.55 2229.18 Q2307.74 2229.18 2304.66 2224.6 Q2301.61 2219.99 2301.61 2211.26 Q2301.61 2202.51 2304.66 2197.93 Q2307.74 2193.32 2313.55 2193.32 Z" fill="#000000" fill-rule="nonzero" fill-opacity="1" /><path clip-path="url(#clip060)" d="M2343.71 2197.03 Q2340.1 2197.03 2338.27 2200.59 Q2336.47 2204.13 2336.47 2211.26 Q2336.47 2218.37 2338.27 2221.93 Q2340.1 2225.48 2343.71 2225.48 Q2347.35 2225.48 2349.15 2221.93 Q2350.98 2218.37 2350.98 2211.26 Q2350.98 2204.13 2349.15 2200.59 Q2347.35 2197.03 2343.71 2197.03 M2343.71 2193.32 Q2349.52 2193.32 2352.58 2197.93 Q2355.66 2202.51 2355.66 2211.26 Q2355.66 2219.99 2352.58 2224.6 Q2349.52 2229.18 2343.71 2229.18 Q2337.9 2229.18 2334.82 2224.6 Q2331.77 2219.99 2331.77 2211.26 Q2331.77 2202.51 2334.82 2197.93 Q2337.9 2193.32 2343.71 2193.32 Z" fill="#000000" fill-rule="nonzero" fill-opacity="1" /><path clip-path="url(#clip060)" d="M2373.87 2197.03 Q2370.26 2197.03 2368.43 2200.59 Q2366.63 2204.13 2366.63 2211.26 Q2366.63 2218.37 2368.43 2221.93 Q2370.26 2225.48 2373.87 2225.48 Q2377.51 2225.48 2379.31 2221.93 Q2381.14 2218.37 2381.14 2211.26 Q2381.14 2204.13 2379.31 2200.59 Q2377.51 2197.03 2373.87 2197.03 M2373.87 2193.32 Q2379.68 2193.32 2382.74 2197.93 Q2385.82 2202.51 2385.82 2211.26 Q2385.82 2219.99 2382.74 2224.6 Q2379.68 2229.18 2373.87 2229.18 Q2368.06 2229.18 2364.99 2224.6 Q2361.93 2219.99 2361.93 2211.26 Q2361.93 2202.51 2364.99 2197.93 Q2368.06 2193.32 2373.87 2193.32 Z" fill="#000000" fill-rule="nonzero" fill-opacity="1" /><path clip-path="url(#clip060)" d="M3079.73 2224.57 L3096.05 2224.57 L3096.05 2228.51 L3074.11 2228.51 L3074.11 2224.57 Q3076.77 2221.82 3081.35 2217.19 Q3085.96 2212.54 3087.14 2211.19 Q3089.38 2208.67 3090.26 2206.93 Q3091.17 2205.17 3091.17 2203.48 Q3091.17 2200.73 3089.22 2198.99 Q3087.3 2197.26 3084.2 2197.26 Q3082 2197.26 3079.55 2198.02 Q3077.12 2198.79 3074.34 2200.34 L3074.34 2195.61 Q3077.16 2194.48 3079.62 2193.9 Q3082.07 2193.32 3084.11 2193.32 Q3089.48 2193.32 3092.67 2196.01 Q3095.87 2198.69 3095.87 2203.18 Q3095.87 2205.31 3095.06 2207.23 Q3094.27 2209.13 3092.16 2211.73 Q3091.58 2212.4 3088.48 2215.61 Q3085.38 2218.81 3079.73 2224.57 Z" fill="#000000" fill-rule="nonzero" fill-opacity="1" /><path clip-path="url(#clip060)" d="M3115.87 2197.03 Q3112.25 2197.03 3110.43 2200.59 Q3108.62 2204.13 3108.62 2211.26 Q3108.62 2218.37 3110.43 2221.93 Q3112.25 2225.48 3115.87 2225.48 Q3119.5 2225.48 3121.31 2221.93 Q3123.13 2218.37 3123.13 2211.26 Q3123.13 2204.13 3121.31 2200.59 Q3119.5 2197.03 3115.87 2197.03 M3115.87 2193.32 Q3121.68 2193.32 3124.73 2197.93 Q3127.81 2202.51 3127.81 2211.26 Q3127.81 2219.99 3124.73 2224.6 Q3121.68 2229.18 3115.87 2229.18 Q3110.06 2229.18 3106.98 2224.6 Q3103.92 2219.99 3103.92 2211.26 Q3103.92 2202.51 3106.98 2197.93 Q3110.06 2193.32 3115.87 2193.32 Z" fill="#000000" fill-rule="nonzero" fill-opacity="1" /><path clip-path="url(#clip060)" d="M3146.03 2197.03 Q3142.42 2197.03 3140.59 2200.59 Q3138.78 2204.13 3138.78 2211.26 Q3138.78 2218.37 3140.59 2221.93 Q3142.42 2225.48 3146.03 2225.48 Q3149.66 2225.48 3151.47 2221.93 Q3153.3 2218.37 3153.3 2211.26 Q3153.3 2204.13 3151.47 2200.59 Q3149.66 2197.03 3146.03 2197.03 M3146.03 2193.32 Q3151.84 2193.32 3154.89 2197.93 Q3157.97 2202.51 3157.97 2211.26 Q3157.97 2219.99 3154.89 2224.6 Q3151.84 2229.18 3146.03 2229.18 Q3140.22 2229.18 3137.14 2224.6 Q3134.08 2219.99 3134.08 2211.26 Q3134.08 2202.51 3137.14 2197.93 Q3140.22 2193.32 3146.03 2193.32 Z" fill="#000000" fill-rule="nonzero" fill-opacity="1" /><path clip-path="url(#clip060)" d="M3176.19 2197.03 Q3172.58 2197.03 3170.75 2200.59 Q3168.94 2204.13 3168.94 2211.26 Q3168.94 2218.37 3170.75 2221.93 Q3172.58 2225.48 3176.19 2225.48 Q3179.82 2225.48 3181.63 2221.93 Q3183.46 2218.37 3183.46 2211.26 Q3183.46 2204.13 3181.63 2200.59 Q3179.82 2197.03 3176.19 2197.03 M3176.19 2193.32 Q3182 2193.32 3185.05 2197.93 Q3188.13 2202.51 3188.13 2211.26 Q3188.13 2219.99 3185.05 2224.6 Q3182 2229.18 3176.19 2229.18 Q3170.38 2229.18 3167.3 2224.6 Q3164.24 2219.99 3164.24 2211.26 Q3164.24 2202.51 3167.3 2197.93 Q3170.38 2193.32 3176.19 2193.32 Z" fill="#000000" fill-rule="nonzero" fill-opacity="1" /><path clip-path="url(#clip060)" d="M3206.35 2197.03 Q3202.74 2197.03 3200.91 2200.59 Q3199.11 2204.13 3199.11 2211.26 Q3199.11 2218.37 3200.91 2221.93 Q3202.74 2225.48 3206.35 2225.48 Q3209.99 2225.48 3211.79 2221.93 Q3213.62 2218.37 3213.62 2211.26 Q3213.62 2204.13 3211.79 2200.59 Q3209.99 2197.03 3206.35 2197.03 M3206.35 2193.32 Q3212.16 2193.32 3215.22 2197.93 Q3218.3 2202.51 3218.3 2211.26 Q3218.3 2219.99 3215.22 2224.6 Q3212.16 2229.18 3206.35 2229.18 Q3200.54 2229.18 3197.46 2224.6 Q3194.41 2219.99 3194.41 2211.26 Q3194.41 2202.51 3197.46 2197.93 Q3200.54 2193.32 3206.35 2193.32 Z" fill="#000000" fill-rule="nonzero" fill-opacity="1" /><path clip-path="url(#clip060)" d="M1774.67 2308.02 L1774.67 2296.42 L1765.12 2296.42 L1765.12 2291.62 L1780.46 2291.62 L1780.46 2310.17 Q1777.07 2312.57 1772.99 2313.81 Q1768.91 2315.03 1764.28 2315.03 Q1754.16 2315.03 1748.43 2309.12 Q1742.73 2303.19 1742.73 2292.63 Q1742.73 2282.04 1748.43 2276.14 Q1754.16 2270.21 1764.28 2270.21 Q1768.51 2270.21 1772.3 2271.25 Q1776.12 2272.29 1779.33 2274.32 L1779.33 2280.54 Q1776.09 2277.79 1772.44 2276.4 Q1768.8 2275.01 1764.78 2275.01 Q1756.85 2275.01 1752.85 2279.44 Q1748.89 2283.86 1748.89 2292.63 Q1748.89 2301.37 1752.85 2305.8 Q1756.85 2310.22 1764.78 2310.22 Q1767.87 2310.22 1770.3 2309.7 Q1772.73 2309.15 1774.67 2308.02 Z" fill="#000000" fill-rule="nonzero" fill-opacity="1" /><path clip-path="url(#clip060)" d="M1809.68 2286.76 Q1808.79 2286.24 1807.72 2286 Q1806.67 2285.74 1805.4 2285.74 Q1800.89 2285.74 1798.46 2288.7 Q1796.05 2291.62 1796.05 2297.12 L1796.05 2314.19 L1790.7 2314.19 L1790.7 2281.78 L1796.05 2281.78 L1796.05 2286.82 Q1797.73 2283.86 1800.42 2282.45 Q1803.11 2281 1806.96 2281 Q1807.51 2281 1808.18 2281.09 Q1808.84 2281.14 1809.65 2281.29 L1809.68 2286.76 Z" fill="#000000" fill-rule="nonzero" fill-opacity="1" /><path clip-path="url(#clip060)" d="M1815.27 2281.78 L1820.59 2281.78 L1820.59 2314.19 L1815.27 2314.19 L1815.27 2281.78 M1815.27 2269.16 L1820.59 2269.16 L1820.59 2275.91 L1815.27 2275.91 L1815.27 2269.16 Z" fill="#000000" fill-rule="nonzero" fill-opacity="1" /><path clip-path="url(#clip060)" d="M1853.06 2286.7 L1853.06 2269.16 L1858.38 2269.16 L1858.38 2314.19 L1853.06 2314.19 L1853.06 2309.33 Q1851.38 2312.22 1848.8 2313.64 Q1846.26 2315.03 1842.67 2315.03 Q1836.8 2315.03 1833.09 2310.34 Q1829.42 2305.65 1829.42 2298.01 Q1829.42 2290.37 1833.09 2285.69 Q1836.8 2281 1842.67 2281 Q1846.26 2281 1848.8 2282.42 Q1851.38 2283.81 1853.06 2286.7 M1834.91 2298.01 Q1834.91 2303.89 1837.32 2307.24 Q1839.75 2310.57 1843.97 2310.57 Q1848.2 2310.57 1850.63 2307.24 Q1853.06 2303.89 1853.06 2298.01 Q1853.06 2292.14 1850.63 2288.81 Q1848.2 2285.46 1843.97 2285.46 Q1839.75 2285.46 1837.32 2288.81 Q1834.91 2292.14 1834.91 2298.01 Z" fill="#000000" fill-rule="nonzero" fill-opacity="1" /><path clip-path="url(#clip060)" d="M1908.84 2282.74 L1908.84 2287.77 Q1906.59 2286.61 1904.16 2286.03 Q1901.73 2285.46 1899.12 2285.46 Q1895.16 2285.46 1893.16 2286.67 Q1891.19 2287.89 1891.19 2290.32 Q1891.19 2292.17 1892.61 2293.24 Q1894.03 2294.28 1898.31 2295.24 L1900.13 2295.64 Q1905.81 2296.86 1908.18 2299.08 Q1910.58 2301.28 1910.58 2305.25 Q1910.58 2309.76 1906.99 2312.39 Q1903.43 2315.03 1897.18 2315.03 Q1894.58 2315.03 1891.74 2314.51 Q1888.94 2314.01 1885.81 2313 L1885.81 2307.5 Q1888.76 2309.04 1891.63 2309.82 Q1894.49 2310.57 1897.3 2310.57 Q1901.06 2310.57 1903.09 2309.3 Q1905.11 2308 1905.11 2305.65 Q1905.11 2303.48 1903.64 2302.32 Q1902.19 2301.17 1897.24 2300.1 L1895.39 2299.66 Q1890.44 2298.62 1888.24 2296.48 Q1886.04 2294.31 1886.04 2290.55 Q1886.04 2285.98 1889.28 2283.49 Q1892.52 2281 1898.48 2281 Q1901.44 2281 1904.04 2281.43 Q1906.64 2281.87 1908.84 2282.74 Z" fill="#000000" fill-rule="nonzero" fill-opacity="1" /><path clip-path="url(#clip060)" d="M1919.06 2281.78 L1924.38 2281.78 L1924.38 2314.19 L1919.06 2314.19 L1919.06 2281.78 M1919.06 2269.16 L1924.38 2269.16 L1924.38 2275.91 L1919.06 2275.91 L1919.06 2269.16 Z" fill="#000000" fill-rule="nonzero" fill-opacity="1" /><path clip-path="url(#clip060)" d="M1933.21 2281.78 L1958.5 2281.78 L1958.5 2286.64 L1938.47 2309.93 L1958.5 2309.93 L1958.5 2314.19 L1932.48 2314.19 L1932.48 2309.33 L1952.51 2286.03 L1933.21 2286.03 L1933.21 2281.78 Z" fill="#000000" fill-rule="nonzero" fill-opacity="1" /><path clip-path="url(#clip060)" d="M1994.35 2296.65 L1994.35 2299.26 L1969.87 2299.26 Q1970.21 2304.75 1973.17 2307.65 Q1976.15 2310.51 1981.44 2310.51 Q1984.51 2310.51 1987.37 2309.76 Q1990.27 2309.01 1993.1 2307.5 L1993.1 2312.54 Q1990.24 2313.75 1987.23 2314.39 Q1984.22 2315.03 1981.12 2315.03 Q1973.37 2315.03 1968.83 2310.51 Q1964.31 2306 1964.31 2298.3 Q1964.31 2290.35 1968.59 2285.69 Q1972.91 2281 1980.2 2281 Q1986.74 2281 1990.53 2285.22 Q1994.35 2289.42 1994.35 2296.65 M1989.02 2295.09 Q1988.96 2290.72 1986.56 2288.12 Q1984.19 2285.51 1980.26 2285.51 Q1975.8 2285.51 1973.11 2288.03 Q1970.45 2290.55 1970.04 2295.12 L1989.02 2295.09 Z" fill="#000000" fill-rule="nonzero" fill-opacity="1" /><path clip-path="url(#clip060)" d="M2022.15 2270.99 L2030.02 2270.99 L2049.18 2307.13 L2049.18 2270.99 L2054.85 2270.99 L2054.85 2314.19 L2046.98 2314.19 L2027.82 2278.05 L2027.82 2314.19 L2022.15 2314.19 L2022.15 2270.99 Z" fill="#000000" fill-rule="nonzero" fill-opacity="1" /><polyline clip-path="url(#clip060)" style="stroke:#000000; stroke-linecap:round; stroke-linejoin:round; stroke-width:4; stroke-opacity:1; fill:none" points="244.821,2156.51 244.821,246.944 "/>
<polyline clip-path="url(#clip060)" style="stroke:#000000; stroke-linecap:round; stroke-linejoin:round; stroke-width:4; stroke-opacity:1; fill:none" points="244.821,2156.51 263.719,2156.51 "/>
<polyline clip-path="url(#clip060)" style="stroke:#000000; stroke-linecap:round; stroke-linejoin:round; stroke-width:4; stroke-opacity:1; fill:none" points="244.821,1609.05 263.719,1609.05 "/>
<polyline clip-path="url(#clip060)" style="stroke:#000000; stroke-linecap:round; stroke-linejoin:round; stroke-width:4; stroke-opacity:1; fill:none" points="244.821,1061.6 263.719,1061.6 "/>
<polyline clip-path="url(#clip060)" style="stroke:#000000; stroke-linecap:round; stroke-linejoin:round; stroke-width:4; stroke-opacity:1; fill:none" points="244.821,514.14 263.719,514.14 "/>
<path clip-path="url(#clip060)" d="M178.877 2142.31 Q175.266 2142.31 173.437 2145.87 Q171.631 2149.41 171.631 2156.54 Q171.631 2163.65 173.437 2167.21 Q175.266 2170.76 178.877 2170.76 Q182.511 2170.76 184.316 2167.21 Q186.145 2163.65 186.145 2156.54 Q186.145 2149.41 184.316 2145.87 Q182.511 2142.31 178.877 2142.31 M178.877 2138.6 Q184.687 2138.6 187.742 2143.21 Q190.821 2147.79 190.821 2156.54 Q190.821 2165.27 187.742 2169.88 Q184.687 2174.46 178.877 2174.46 Q173.067 2174.46 169.988 2169.88 Q166.932 2165.27 166.932 2156.54 Q166.932 2147.79 169.988 2143.21 Q173.067 2138.6 178.877 2138.6 Z" fill="#000000" fill-rule="nonzero" fill-opacity="1" /><path clip-path="url(#clip060)" d="M170.914 1622.4 L178.553 1622.4 L178.553 1596.03 L170.242 1597.7 L170.242 1593.44 L178.506 1591.77 L183.182 1591.77 L183.182 1622.4 L190.821 1622.4 L190.821 1626.33 L170.914 1626.33 L170.914 1622.4 Z" fill="#000000" fill-rule="nonzero" fill-opacity="1" /><path clip-path="url(#clip060)" d="M174.502 1074.94 L190.821 1074.94 L190.821 1078.88 L168.877 1078.88 L168.877 1074.94 Q171.539 1072.19 176.122 1067.56 Q180.729 1062.9 181.909 1061.56 Q184.154 1059.04 185.034 1057.3 Q185.937 1055.54 185.937 1053.85 Q185.937 1051.1 183.992 1049.36 Q182.071 1047.63 178.969 1047.63 Q176.77 1047.63 174.317 1048.39 Q171.886 1049.15 169.108 1050.7 L169.108 1045.98 Q171.932 1044.85 174.386 1044.27 Q176.84 1043.69 178.877 1043.69 Q184.247 1043.69 187.441 1046.38 Q190.636 1049.06 190.636 1053.55 Q190.636 1055.68 189.826 1057.6 Q189.039 1059.5 186.932 1062.09 Q186.353 1062.76 183.252 1065.98 Q180.15 1069.18 174.502 1074.94 Z" fill="#000000" fill-rule="nonzero" fill-opacity="1" /><path clip-path="url(#clip060)" d="M183.691 512.786 Q187.048 513.503 188.923 515.772 Q190.821 518.04 190.821 521.373 Q190.821 526.489 187.303 529.29 Q183.784 532.091 177.303 532.091 Q175.127 532.091 172.812 531.651 Q170.52 531.234 168.067 530.378 L168.067 525.864 Q170.011 526.998 172.326 527.577 Q174.641 528.156 177.164 528.156 Q181.562 528.156 183.853 526.42 Q186.168 524.684 186.168 521.373 Q186.168 518.318 184.016 516.605 Q181.886 514.869 178.066 514.869 L174.039 514.869 L174.039 511.026 L178.252 511.026 Q181.701 511.026 183.529 509.661 Q185.358 508.272 185.358 505.679 Q185.358 503.017 183.46 501.605 Q181.585 500.17 178.066 500.17 Q176.145 500.17 173.946 500.587 Q171.747 501.003 169.108 501.883 L169.108 497.716 Q171.77 496.975 174.085 496.605 Q176.423 496.235 178.483 496.235 Q183.807 496.235 186.909 498.665 Q190.011 501.073 190.011 505.193 Q190.011 508.063 188.367 510.054 Q186.724 512.022 183.691 512.786 Z" fill="#000000" fill-rule="nonzero" fill-opacity="1" /><path clip-path="url(#clip060)" d="M58.1901 1374.69 L63.8903 1374.69 Q62.2989 1378.01 61.5176 1380.96 Q60.7364 1383.92 60.7364 1386.66 Q60.7364 1391.44 62.5882 1394.04 Q64.4401 1396.62 67.8544 1396.62 Q70.719 1396.62 72.1947 1394.91 Q73.6414 1393.17 74.5384 1388.37 L75.2618 1384.84 Q76.506 1378.3 79.6599 1375.21 Q82.7849 1372.08 88.0511 1372.08 Q94.33 1372.08 97.5707 1376.31 Q100.811 1380.5 100.811 1388.63 Q100.811 1391.7 100.117 1395.17 Q99.4225 1398.61 98.0626 1402.32 L92.0441 1402.32 Q94.0406 1398.76 95.0533 1395.34 Q96.0661 1391.93 96.0661 1388.63 Q96.0661 1383.63 94.0985 1380.91 Q92.1309 1378.19 88.4851 1378.19 Q85.3022 1378.19 83.5083 1380.15 Q81.7143 1382.09 80.8173 1386.55 L80.1229 1390.11 Q78.8208 1396.65 76.043 1399.57 Q73.2653 1402.49 68.3174 1402.49 Q62.5882 1402.49 59.2896 1398.47 Q55.991 1394.42 55.991 1387.33 Q55.991 1384.29 56.5408 1381.14 Q57.0906 1377.98 58.1901 1374.69 Z" fill="#000000" fill-rule="nonzero" fill-opacity="1" /><path clip-path="url(#clip060)" d="M71.2977 1350.64 Q71.2977 1354.92 74.6541 1357.41 Q77.9817 1359.9 83.7976 1359.9 Q89.6135 1359.9 92.97 1357.44 Q96.2975 1354.95 96.2975 1350.64 Q96.2975 1346.39 92.9411 1343.9 Q89.5846 1341.41 83.7976 1341.41 Q78.0395 1341.41 74.6831 1343.9 Q71.2977 1346.39 71.2977 1350.64 M66.7838 1350.64 Q66.7838 1343.7 71.2977 1339.73 Q75.8115 1335.77 83.7976 1335.77 Q91.7547 1335.77 96.2975 1339.73 Q100.811 1343.7 100.811 1350.64 Q100.811 1357.61 96.2975 1361.58 Q91.7547 1365.51 83.7976 1365.51 Q75.8115 1365.51 71.2977 1361.58 Q66.7838 1357.61 66.7838 1350.64 Z" fill="#000000" fill-rule="nonzero" fill-opacity="1" /><path clip-path="url(#clip060)" d="M54.9494 1326.94 L54.9494 1321.62 L99.9723 1321.62 L99.9723 1326.94 L54.9494 1326.94 Z" fill="#000000" fill-rule="nonzero" fill-opacity="1" /><path clip-path="url(#clip060)" d="M67.565 1314.3 L67.565 1308.66 L94.764 1298.53 L67.565 1288.4 L67.565 1282.76 L99.9723 1294.91 L99.9723 1302.15 L67.565 1314.3 Z" fill="#000000" fill-rule="nonzero" fill-opacity="1" /><path clip-path="url(#clip060)" d="M82.4377 1247.69 L85.0418 1247.69 L85.0418 1272.17 Q90.5395 1271.82 93.433 1268.87 Q96.2975 1265.89 96.2975 1260.59 Q96.2975 1257.53 95.5452 1254.66 Q94.7929 1251.77 93.2883 1248.93 L98.323 1248.93 Q99.5383 1251.8 100.175 1254.81 Q100.811 1257.82 100.811 1260.91 Q100.811 1268.67 96.2975 1273.21 Q91.7837 1277.72 84.087 1277.72 Q76.1298 1277.72 71.4713 1273.44 Q66.7838 1269.13 66.7838 1261.84 Q66.7838 1255.3 71.0083 1251.51 Q75.2039 1247.69 82.4377 1247.69 M80.8752 1253.01 Q76.506 1253.07 73.9018 1255.47 Q71.2977 1257.85 71.2977 1261.78 Q71.2977 1266.24 73.815 1268.93 Q76.3324 1271.59 80.9041 1271.99 L80.8752 1253.01 Z" fill="#000000" fill-rule="nonzero" fill-opacity="1" /><path clip-path="url(#clip060)" d="M58.3637 1214.85 L67.565 1214.85 L67.565 1203.88 L71.7028 1203.88 L71.7028 1214.85 L89.2953 1214.85 Q93.2594 1214.85 94.3878 1213.78 Q95.5163 1212.68 95.5163 1209.35 L95.5163 1203.88 L99.9723 1203.88 L99.9723 1209.35 Q99.9723 1215.51 97.6864 1217.86 Q95.3716 1220.2 89.2953 1220.2 L71.7028 1220.2 L71.7028 1224.11 L67.565 1224.11 L67.565 1220.2 L58.3637 1220.2 L58.3637 1214.85 Z" fill="#000000" fill-rule="nonzero" fill-opacity="1" /><path clip-path="url(#clip060)" d="M67.565 1196.88 L67.565 1191.56 L99.9723 1191.56 L99.9723 1196.88 L67.565 1196.88 M54.9494 1196.88 L54.9494 1191.56 L61.6912 1191.56 L61.6912 1196.88 L54.9494 1196.88 Z" fill="#000000" fill-rule="nonzero" fill-opacity="1" /><path clip-path="url(#clip060)" d="M73.7861 1155.18 Q70.1981 1153.19 68.491 1150.41 Q66.7838 1147.63 66.7838 1143.87 Q66.7838 1138.81 70.3428 1136.06 Q73.8729 1133.31 80.4122 1133.31 L99.9723 1133.31 L99.9723 1138.66 L80.5858 1138.66 Q75.9273 1138.66 73.6703 1140.31 Q71.4134 1141.96 71.4134 1145.35 Q71.4134 1149.48 74.1622 1151.89 Q76.9111 1154.29 81.6564 1154.29 L99.9723 1154.29 L99.9723 1159.64 L80.5858 1159.64 Q75.8983 1159.64 73.6703 1161.29 Q71.4134 1162.94 71.4134 1166.38 Q71.4134 1170.46 74.1912 1172.86 Q76.94 1175.26 81.6564 1175.26 L99.9723 1175.26 L99.9723 1180.62 L67.565 1180.62 L67.565 1175.26 L72.5997 1175.26 Q69.6194 1173.44 68.2016 1170.9 Q66.7838 1168.35 66.7838 1164.85 Q66.7838 1161.32 68.5778 1158.86 Q70.3717 1156.37 73.7861 1155.18 Z" fill="#000000" fill-rule="nonzero" fill-opacity="1" /><path clip-path="url(#clip060)" d="M82.4377 1094.97 L85.0418 1094.97 L85.0418 1119.45 Q90.5395 1119.1 93.433 1116.15 Q96.2975 1113.17 96.2975 1107.88 Q96.2975 1104.81 95.5452 1101.94 Q94.7929 1099.05 93.2883 1096.21 L98.323 1096.21 Q99.5383 1099.08 100.175 1102.09 Q100.811 1105.1 100.811 1108.19 Q100.811 1115.95 96.2975 1120.49 Q91.7837 1125 84.087 1125 Q76.1298 1125 71.4713 1120.72 Q66.7838 1116.41 66.7838 1109.12 Q66.7838 1102.58 71.0083 1098.79 Q75.2039 1094.97 82.4377 1094.97 M80.8752 1100.29 Q76.506 1100.35 73.9018 1102.75 Q71.2977 1105.13 71.2977 1109.06 Q71.2977 1113.52 73.815 1116.21 Q76.3324 1118.87 80.9041 1119.28 L80.8752 1100.29 Z" fill="#000000" fill-rule="nonzero" fill-opacity="1" /><path clip-path="url(#clip060)" d="M55.0072 1054.61 Q61.6623 1058.48 68.1727 1060.36 Q74.6831 1062.24 81.3671 1062.24 Q88.0511 1062.24 94.6193 1060.36 Q101.159 1058.45 107.785 1054.61 L107.785 1059.24 Q100.985 1063.58 94.4168 1065.75 Q87.8485 1067.89 81.3671 1067.89 Q74.9145 1067.89 68.3752 1065.75 Q61.8359 1063.6 55.0072 1059.24 L55.0072 1054.61 Z" fill="#000000" fill-rule="nonzero" fill-opacity="1" /><path clip-path="url(#clip060)" d="M68.5199 1023.62 L73.5546 1023.62 Q72.3972 1025.87 71.8185 1028.3 Q71.2398 1030.73 71.2398 1033.34 Q71.2398 1037.3 72.4551 1039.3 Q73.6703 1041.27 76.1009 1041.27 Q77.9527 1041.27 79.0233 1039.85 Q80.065 1038.43 81.0198 1034.15 L81.4249 1032.33 Q82.6402 1026.65 84.8682 1024.28 Q87.0673 1021.88 91.0314 1021.88 Q95.5452 1021.88 98.1783 1025.47 Q100.811 1029.03 100.811 1035.28 Q100.811 1037.88 100.291 1040.72 Q99.7987 1043.52 98.7859 1046.65 L93.2883 1046.65 Q94.8218 1043.7 95.6031 1040.83 Q96.3554 1037.97 96.3554 1035.16 Q96.3554 1031.4 95.0823 1029.37 Q93.7802 1027.35 91.4364 1027.35 Q89.2663 1027.35 88.1089 1028.82 Q86.9515 1030.27 85.8809 1035.22 L85.4469 1037.07 Q84.4052 1042.02 82.264 1044.22 Q80.0939 1046.42 76.3324 1046.42 Q71.7606 1046.42 69.2722 1043.18 Q66.7838 1039.94 66.7838 1033.98 Q66.7838 1031.02 67.2178 1028.42 Q67.6519 1025.82 68.5199 1023.62 Z" fill="#000000" fill-rule="nonzero" fill-opacity="1" /><path clip-path="url(#clip060)" d="M55.0072 1014.24 L55.0072 1009.61 Q61.8359 1005.27 68.3752 1003.13 Q74.9145 1000.96 81.3671 1000.96 Q87.8485 1000.96 94.4168 1003.13 Q100.985 1005.27 107.785 1009.61 L107.785 1014.24 Q101.159 1010.39 94.6193 1008.51 Q88.0511 1006.6 81.3671 1006.6 Q74.6831 1006.6 68.1727 1008.51 Q61.6623 1010.39 55.0072 1014.24 Z" fill="#000000" fill-rule="nonzero" fill-opacity="1" /><path clip-path="url(#clip060)" d="M1181.84 125.969 L1181.84 133.949 Q1177.18 131.721 1173.05 130.627 Q1168.92 129.534 1165.07 129.534 Q1158.38 129.534 1154.74 132.126 Q1151.13 134.719 1151.13 139.499 Q1151.13 143.509 1153.52 145.575 Q1155.95 147.601 1162.68 148.857 L1167.62 149.869 Q1176.78 151.611 1181.11 156.027 Q1185.49 160.402 1185.49 167.774 Q1185.49 176.565 1179.57 181.102 Q1173.7 185.639 1162.31 185.639 Q1158.02 185.639 1153.16 184.667 Q1148.34 183.694 1143.15 181.79 L1143.15 173.365 Q1148.14 176.16 1152.92 177.577 Q1157.7 178.995 1162.31 178.995 Q1169.32 178.995 1173.13 176.241 Q1176.94 173.486 1176.94 168.382 Q1176.94 163.926 1174.18 161.414 Q1171.47 158.903 1165.23 157.647 L1160.25 156.675 Q1151.09 154.852 1147 150.963 Q1142.91 147.074 1142.91 140.147 Q1142.91 132.126 1148.54 127.508 Q1154.21 122.89 1164.14 122.89 Q1168.39 122.89 1172.81 123.66 Q1177.22 124.43 1181.84 125.969 Z" fill="#000000" fill-rule="nonzero" fill-opacity="1" /><path clip-path="url(#clip060)" d="M1215.5 144.32 Q1209.51 144.32 1206.02 149.019 Q1202.54 153.677 1202.54 161.819 Q1202.54 169.962 1205.98 174.661 Q1209.47 179.319 1215.5 179.319 Q1221.46 179.319 1224.94 174.62 Q1228.42 169.921 1228.42 161.819 Q1228.42 153.758 1224.94 149.059 Q1221.46 144.32 1215.5 144.32 M1215.5 138 Q1225.22 138 1230.77 144.32 Q1236.32 150.639 1236.32 161.819 Q1236.32 172.959 1230.77 179.319 Q1225.22 185.639 1215.5 185.639 Q1205.74 185.639 1200.19 179.319 Q1194.68 172.959 1194.68 161.819 Q1194.68 150.639 1200.19 144.32 Q1205.74 138 1215.5 138 Z" fill="#000000" fill-rule="nonzero" fill-opacity="1" /><path clip-path="url(#clip060)" d="M1248.68 121.432 L1256.13 121.432 L1256.13 184.464 L1248.68 184.464 L1248.68 121.432 Z" fill="#000000" fill-rule="nonzero" fill-opacity="1" /><path clip-path="url(#clip060)" d="M1266.38 139.094 L1274.28 139.094 L1288.46 177.172 L1302.64 139.094 L1310.54 139.094 L1293.52 184.464 L1283.4 184.464 L1266.38 139.094 Z" fill="#000000" fill-rule="nonzero" fill-opacity="1" /><path clip-path="url(#clip060)" d="M1359.63 159.916 L1359.63 163.561 L1325.36 163.561 Q1325.85 171.258 1329.98 175.309 Q1334.15 179.319 1341.57 179.319 Q1345.86 179.319 1349.87 178.266 Q1353.92 177.213 1357.89 175.106 L1357.89 182.155 Q1353.88 183.856 1349.67 184.748 Q1345.46 185.639 1341.12 185.639 Q1330.26 185.639 1323.9 179.319 Q1317.58 173 1317.58 162.225 Q1317.58 151.085 1323.58 144.563 Q1329.62 138 1339.82 138 Q1348.98 138 1354.29 143.914 Q1359.63 149.788 1359.63 159.916 M1352.18 157.728 Q1352.1 151.611 1348.74 147.965 Q1345.41 144.32 1339.91 144.32 Q1333.67 144.32 1329.9 147.844 Q1326.17 151.368 1325.61 157.769 L1352.18 157.728 Z" fill="#000000" fill-rule="nonzero" fill-opacity="1" /><path clip-path="url(#clip060)" d="M1405.61 126.212 L1405.61 139.094 L1420.96 139.094 L1420.96 144.887 L1405.61 144.887 L1405.61 169.516 Q1405.61 175.066 1407.11 176.646 Q1408.65 178.226 1413.31 178.226 L1420.96 178.226 L1420.96 184.464 L1413.31 184.464 Q1404.68 184.464 1401.4 181.264 Q1398.12 178.023 1398.12 169.516 L1398.12 144.887 L1392.65 144.887 L1392.65 139.094 L1398.12 139.094 L1398.12 126.212 L1405.61 126.212 Z" fill="#000000" fill-rule="nonzero" fill-opacity="1" /><path clip-path="url(#clip060)" d="M1430.77 139.094 L1438.22 139.094 L1438.22 184.464 L1430.77 184.464 L1430.77 139.094 M1430.77 121.432 L1438.22 121.432 L1438.22 130.871 L1430.77 130.871 L1430.77 121.432 Z" fill="#000000" fill-rule="nonzero" fill-opacity="1" /><path clip-path="url(#clip060)" d="M1489.14 147.803 Q1491.94 142.78 1495.82 140.39 Q1499.71 138 1504.98 138 Q1512.07 138 1515.92 142.983 Q1519.77 147.925 1519.77 157.08 L1519.77 184.464 L1512.27 184.464 L1512.27 157.323 Q1512.27 150.801 1509.96 147.641 Q1507.65 144.482 1502.91 144.482 Q1497.12 144.482 1493.76 148.33 Q1490.4 152.178 1490.4 158.822 L1490.4 184.464 L1482.9 184.464 L1482.9 157.323 Q1482.9 150.76 1480.59 147.641 Q1478.28 144.482 1473.46 144.482 Q1467.75 144.482 1464.39 148.37 Q1461.03 152.219 1461.03 158.822 L1461.03 184.464 L1453.53 184.464 L1453.53 139.094 L1461.03 139.094 L1461.03 146.142 Q1463.58 141.97 1467.14 139.985 Q1470.71 138 1475.61 138 Q1480.55 138 1484 140.512 Q1487.48 143.023 1489.14 147.803 Z" fill="#000000" fill-rule="nonzero" fill-opacity="1" /><path clip-path="url(#clip060)" d="M1573.44 159.916 L1573.44 163.561 L1539.17 163.561 Q1539.66 171.258 1543.79 175.309 Q1547.96 179.319 1555.37 179.319 Q1559.67 179.319 1563.68 178.266 Q1567.73 177.213 1571.7 175.106 L1571.7 182.155 Q1567.69 183.856 1563.47 184.748 Q1559.26 185.639 1554.93 185.639 Q1544.07 185.639 1537.71 179.319 Q1531.39 173 1531.39 162.225 Q1531.39 151.085 1537.39 144.563 Q1543.42 138 1553.63 138 Q1562.79 138 1568.09 143.914 Q1573.44 149.788 1573.44 159.916 M1565.99 157.728 Q1565.91 151.611 1562.54 147.965 Q1559.22 144.32 1553.71 144.32 Q1547.47 144.32 1543.71 147.844 Q1539.98 151.368 1539.41 157.769 L1565.99 157.728 Z" fill="#000000" fill-rule="nonzero" fill-opacity="1" /><path clip-path="url(#clip060)" d="M1606.7 139.094 L1614.6 139.094 L1628.78 177.172 L1642.95 139.094 L1650.85 139.094 L1633.84 184.464 L1623.71 184.464 L1606.7 139.094 Z" fill="#000000" fill-rule="nonzero" fill-opacity="1" /><path clip-path="url(#clip060)" d="M1690.07 140.431 L1690.07 147.479 Q1686.91 145.859 1683.5 145.049 Q1680.1 144.239 1676.45 144.239 Q1670.9 144.239 1668.11 145.94 Q1665.36 147.641 1665.36 151.044 Q1665.36 153.637 1667.34 155.135 Q1669.33 156.594 1675.32 157.931 L1677.87 158.498 Q1685.81 160.199 1689.13 163.318 Q1692.5 166.397 1692.5 171.947 Q1692.5 178.266 1687.47 181.952 Q1682.49 185.639 1673.74 185.639 Q1670.09 185.639 1666.12 184.91 Q1662.2 184.221 1657.82 182.803 L1657.82 175.106 Q1661.95 177.253 1665.96 178.347 Q1669.97 179.4 1673.9 179.4 Q1679.17 179.4 1682 177.618 Q1684.84 175.795 1684.84 172.514 Q1684.84 169.476 1682.77 167.855 Q1680.75 166.235 1673.82 164.736 L1671.23 164.128 Q1664.3 162.67 1661.22 159.672 Q1658.14 156.634 1658.14 151.368 Q1658.14 144.968 1662.68 141.484 Q1667.22 138 1675.56 138 Q1679.7 138 1683.34 138.608 Q1686.99 139.215 1690.07 140.431 Z" fill="#000000" fill-rule="nonzero" fill-opacity="1" /><path clip-path="url(#clip060)" d="M1760.59 161.252 Q1760.59 153.151 1757.23 148.695 Q1753.91 144.239 1747.87 144.239 Q1741.88 144.239 1738.51 148.695 Q1735.19 153.151 1735.19 161.252 Q1735.19 169.314 1738.51 173.77 Q1741.88 178.226 1747.87 178.226 Q1753.91 178.226 1757.23 173.77 Q1760.59 169.314 1760.59 161.252 M1768.05 178.833 Q1768.05 190.419 1762.9 196.05 Q1757.76 201.721 1747.14 201.721 Q1743.21 201.721 1739.73 201.113 Q1736.25 200.546 1732.96 199.331 L1732.96 192.08 Q1736.25 193.862 1739.45 194.713 Q1742.65 195.563 1745.97 195.563 Q1753.3 195.563 1756.95 191.715 Q1760.59 187.907 1760.59 180.17 L1760.59 176.484 Q1758.28 180.494 1754.68 182.479 Q1751.07 184.464 1746.05 184.464 Q1737.7 184.464 1732.6 178.104 Q1727.5 171.744 1727.5 161.252 Q1727.5 150.72 1732.6 144.36 Q1737.7 138 1746.05 138 Q1751.07 138 1754.68 139.985 Q1758.28 141.97 1760.59 145.98 L1760.59 139.094 L1768.05 139.094 L1768.05 178.833 Z" fill="#000000" fill-rule="nonzero" fill-opacity="1" /><path clip-path="url(#clip060)" d="M1809.69 146.061 Q1808.43 145.332 1806.93 145.008 Q1805.48 144.644 1803.69 144.644 Q1797.37 144.644 1793.97 148.776 Q1790.61 152.867 1790.61 160.564 L1790.61 184.464 L1783.11 184.464 L1783.11 139.094 L1790.61 139.094 L1790.61 146.142 Q1792.96 142.011 1796.73 140.026 Q1800.49 138 1805.88 138 Q1806.65 138 1807.58 138.122 Q1808.51 138.203 1809.65 138.405 L1809.69 146.061 Z" fill="#000000" fill-rule="nonzero" fill-opacity="1" /><path clip-path="url(#clip060)" d="M1817.51 139.094 L1824.96 139.094 L1824.96 184.464 L1817.51 184.464 L1817.51 139.094 M1817.51 121.432 L1824.96 121.432 L1824.96 130.871 L1817.51 130.871 L1817.51 121.432 Z" fill="#000000" fill-rule="nonzero" fill-opacity="1" /><path clip-path="url(#clip060)" d="M1870.41 145.98 L1870.41 121.432 L1877.87 121.432 L1877.87 184.464 L1870.41 184.464 L1870.41 177.658 Q1868.06 181.709 1864.46 183.694 Q1860.89 185.639 1855.87 185.639 Q1847.65 185.639 1842.46 179.076 Q1837.32 172.514 1837.32 161.819 Q1837.32 151.125 1842.46 144.563 Q1847.65 138 1855.87 138 Q1860.89 138 1864.46 139.985 Q1868.06 141.93 1870.41 145.98 M1845.01 161.819 Q1845.01 170.043 1848.37 174.742 Q1851.78 179.4 1857.69 179.4 Q1863.61 179.4 1867.01 174.742 Q1870.41 170.043 1870.41 161.819 Q1870.41 153.596 1867.01 148.938 Q1863.61 144.239 1857.69 144.239 Q1851.78 144.239 1848.37 148.938 Q1845.01 153.596 1845.01 161.819 Z" fill="#000000" fill-rule="nonzero" fill-opacity="1" /><path clip-path="url(#clip060)" d="M1948.51 140.431 L1948.51 147.479 Q1945.35 145.859 1941.95 145.049 Q1938.55 144.239 1934.9 144.239 Q1929.35 144.239 1926.56 145.94 Q1923.8 147.641 1923.8 151.044 Q1923.8 153.637 1925.79 155.135 Q1927.77 156.594 1933.77 157.931 L1936.32 158.498 Q1944.26 160.199 1947.58 163.318 Q1950.94 166.397 1950.94 171.947 Q1950.94 178.266 1945.92 181.952 Q1940.94 185.639 1932.19 185.639 Q1928.54 185.639 1924.57 184.91 Q1920.64 184.221 1916.27 182.803 L1916.27 175.106 Q1920.4 177.253 1924.41 178.347 Q1928.42 179.4 1932.35 179.4 Q1937.62 179.4 1940.45 177.618 Q1943.29 175.795 1943.29 172.514 Q1943.29 169.476 1941.22 167.855 Q1939.2 166.235 1932.27 164.736 L1929.68 164.128 Q1922.75 162.67 1919.67 159.672 Q1916.59 156.634 1916.59 151.368 Q1916.59 144.968 1921.13 141.484 Q1925.67 138 1934.01 138 Q1938.14 138 1941.79 138.608 Q1945.43 139.215 1948.51 140.431 Z" fill="#000000" fill-rule="nonzero" fill-opacity="1" /><path clip-path="url(#clip060)" d="M1962.81 139.094 L1970.27 139.094 L1970.27 184.464 L1962.81 184.464 L1962.81 139.094 M1962.81 121.432 L1970.27 121.432 L1970.27 130.871 L1962.81 130.871 L1962.81 121.432 Z" fill="#000000" fill-rule="nonzero" fill-opacity="1" /><path clip-path="url(#clip060)" d="M1982.62 139.094 L2018.03 139.094 L2018.03 145.899 L1989.99 178.509 L2018.03 178.509 L2018.03 184.464 L1981.61 184.464 L1981.61 177.658 L2009.64 145.049 L1982.62 145.049 L1982.62 139.094 Z" fill="#000000" fill-rule="nonzero" fill-opacity="1" /><path clip-path="url(#clip060)" d="M2068.22 159.916 L2068.22 163.561 L2033.95 163.561 Q2034.43 171.258 2038.56 175.309 Q2042.74 179.319 2050.15 179.319 Q2054.44 179.319 2058.45 178.266 Q2062.51 177.213 2066.48 175.106 L2066.48 182.155 Q2062.47 183.856 2058.25 184.748 Q2054.04 185.639 2049.7 185.639 Q2038.85 185.639 2032.49 179.319 Q2026.17 173 2026.17 162.225 Q2026.17 151.085 2032.16 144.563 Q2038.2 138 2048.41 138 Q2057.56 138 2062.87 143.914 Q2068.22 149.788 2068.22 159.916 M2060.76 157.728 Q2060.68 151.611 2057.32 147.965 Q2054 144.32 2048.49 144.32 Q2042.25 144.32 2038.48 147.844 Q2034.76 151.368 2034.19 157.769 L2060.76 157.728 Z" fill="#000000" fill-rule="nonzero" fill-opacity="1" /><path clip-path="url(#clip060)" d="M2124.73 121.513 Q2119.3 130.83 2116.67 139.945 Q2114.03 149.059 2114.03 158.417 Q2114.03 167.774 2116.67 176.97 Q2119.34 186.125 2124.73 195.401 L2118.25 195.401 Q2112.17 185.882 2109.13 176.686 Q2106.13 167.491 2106.13 158.417 Q2106.13 149.383 2109.13 140.228 Q2112.13 131.073 2118.25 121.513 L2124.73 121.513 Z" fill="#000000" fill-rule="nonzero" fill-opacity="1" /><path clip-path="url(#clip060)" d="M2171.76 161.819 Q2171.76 153.596 2168.36 148.938 Q2164.99 144.239 2159.08 144.239 Q2153.17 144.239 2149.76 148.938 Q2146.4 153.596 2146.4 161.819 Q2146.4 170.043 2149.76 174.742 Q2153.17 179.4 2159.08 179.4 Q2164.99 179.4 2168.36 174.742 Q2171.76 170.043 2171.76 161.819 M2146.4 145.98 Q2148.75 141.93 2152.31 139.985 Q2155.92 138 2160.9 138 Q2169.17 138 2174.31 144.563 Q2179.5 151.125 2179.5 161.819 Q2179.5 172.514 2174.31 179.076 Q2169.17 185.639 2160.9 185.639 Q2155.92 185.639 2152.31 183.694 Q2148.75 181.709 2146.4 177.658 L2146.4 184.464 L2138.91 184.464 L2138.91 121.432 L2146.4 121.432 L2146.4 145.98 Z" fill="#000000" fill-rule="nonzero" fill-opacity="1" /><path clip-path="url(#clip060)" d="M2212.47 161.657 Q2203.44 161.657 2199.95 163.723 Q2196.47 165.789 2196.47 170.772 Q2196.47 174.742 2199.06 177.091 Q2201.69 179.4 2206.19 179.4 Q2212.39 179.4 2216.12 175.025 Q2219.88 170.61 2219.88 163.318 L2219.88 161.657 L2212.47 161.657 M2227.34 158.579 L2227.34 184.464 L2219.88 184.464 L2219.88 177.577 Q2217.33 181.709 2213.52 183.694 Q2209.72 185.639 2204.21 185.639 Q2197.24 185.639 2193.11 181.75 Q2189.02 177.821 2189.02 171.258 Q2189.02 163.602 2194.12 159.713 Q2199.26 155.824 2209.43 155.824 L2219.88 155.824 L2219.88 155.095 Q2219.88 149.95 2216.48 147.155 Q2213.12 144.32 2207 144.32 Q2203.11 144.32 2199.43 145.251 Q2195.74 146.183 2192.34 148.046 L2192.34 141.16 Q2196.43 139.58 2200.28 138.81 Q2204.13 138 2207.77 138 Q2217.61 138 2222.48 143.104 Q2227.34 148.208 2227.34 158.579 Z" fill="#000000" fill-rule="nonzero" fill-opacity="1" /><path clip-path="url(#clip060)" d="M2268.98 146.061 Q2267.72 145.332 2266.23 145.008 Q2264.77 144.644 2262.99 144.644 Q2256.67 144.644 2253.26 148.776 Q2249.9 152.867 2249.9 160.564 L2249.9 184.464 L2242.41 184.464 L2242.41 139.094 L2249.9 139.094 L2249.9 146.142 Q2252.25 142.011 2256.02 140.026 Q2259.78 138 2265.17 138 Q2265.94 138 2266.87 138.122 Q2267.81 138.203 2268.94 138.405 L2268.98 146.061 Z" fill="#000000" fill-rule="nonzero" fill-opacity="1" /><path clip-path="url(#clip060)" d="M2275.62 121.513 L2282.11 121.513 Q2288.18 131.073 2291.18 140.228 Q2294.22 149.383 2294.22 158.417 Q2294.22 167.491 2291.18 176.686 Q2288.18 185.882 2282.11 195.401 L2275.62 195.401 Q2281.01 186.125 2283.64 176.97 Q2286.32 167.774 2286.32 158.417 Q2286.32 149.059 2283.64 139.945 Q2281.01 130.83 2275.62 121.513 Z" fill="#000000" fill-rule="nonzero" fill-opacity="1" /><path clip-path="url(#clip060)" d="M2331.77 158.822 L2406.63 158.822 L2406.63 164.655 L2331.77 164.655 L2331.77 158.822 Z" fill="#000000" fill-rule="nonzero" fill-opacity="1" /><path clip-path="url(#clip060)" d="M2477.52 140.836 L2477.52 147.803 Q2474.36 146.061 2471.16 145.211 Q2468 144.32 2464.76 144.32 Q2457.51 144.32 2453.5 148.938 Q2449.49 153.515 2449.49 161.819 Q2449.49 170.124 2453.5 174.742 Q2457.51 179.319 2464.76 179.319 Q2468 179.319 2471.16 178.469 Q2474.36 177.577 2477.52 175.836 L2477.52 182.722 Q2474.4 184.18 2471.04 184.91 Q2467.72 185.639 2463.95 185.639 Q2453.7 185.639 2447.67 179.198 Q2441.63 172.757 2441.63 161.819 Q2441.63 150.72 2447.71 144.36 Q2453.82 138 2464.44 138 Q2467.88 138 2471.16 138.729 Q2474.44 139.418 2477.52 140.836 Z" fill="#000000" fill-rule="nonzero" fill-opacity="1" /><path clip-path="url(#clip060)" d="M2528.2 157.08 L2528.2 184.464 L2520.74 184.464 L2520.74 157.323 Q2520.74 150.882 2518.23 147.682 Q2515.72 144.482 2510.7 144.482 Q2504.66 144.482 2501.18 148.33 Q2497.69 152.178 2497.69 158.822 L2497.69 184.464 L2490.2 184.464 L2490.2 121.432 L2497.69 121.432 L2497.69 146.142 Q2500.37 142.051 2503.97 140.026 Q2507.62 138 2512.36 138 Q2520.18 138 2524.19 142.861 Q2528.2 147.682 2528.2 157.08 Z" fill="#000000" fill-rule="nonzero" fill-opacity="1" /><path clip-path="url(#clip060)" d="M2563.68 161.657 Q2554.65 161.657 2551.17 163.723 Q2547.68 165.789 2547.68 170.772 Q2547.68 174.742 2550.28 177.091 Q2552.91 179.4 2557.4 179.4 Q2563.6 179.4 2567.33 175.025 Q2571.1 170.61 2571.1 163.318 L2571.1 161.657 L2563.68 161.657 M2578.55 158.579 L2578.55 184.464 L2571.1 184.464 L2571.1 177.577 Q2568.54 181.709 2564.74 183.694 Q2560.93 185.639 2555.42 185.639 Q2548.45 185.639 2544.32 181.75 Q2540.23 177.821 2540.23 171.258 Q2540.23 163.602 2545.33 159.713 Q2550.48 155.824 2560.65 155.824 L2571.1 155.824 L2571.1 155.095 Q2571.1 149.95 2567.69 147.155 Q2564.33 144.32 2558.21 144.32 Q2554.33 144.32 2550.64 145.251 Q2546.95 146.183 2543.55 148.046 L2543.55 141.16 Q2547.64 139.58 2551.49 138.81 Q2555.34 138 2558.98 138 Q2568.83 138 2573.69 143.104 Q2578.55 148.208 2578.55 158.579 Z" fill="#000000" fill-rule="nonzero" fill-opacity="1" /><path clip-path="url(#clip060)" d="M2593.9 139.094 L2601.36 139.094 L2601.36 184.464 L2593.9 184.464 L2593.9 139.094 M2593.9 121.432 L2601.36 121.432 L2601.36 130.871 L2593.9 130.871 L2593.9 121.432 Z" fill="#000000" fill-rule="nonzero" fill-opacity="1" /><path clip-path="url(#clip060)" d="M2654.67 157.08 L2654.67 184.464 L2647.21 184.464 L2647.21 157.323 Q2647.21 150.882 2644.7 147.682 Q2642.19 144.482 2637.17 144.482 Q2631.13 144.482 2627.65 148.33 Q2624.16 152.178 2624.16 158.822 L2624.16 184.464 L2616.67 184.464 L2616.67 139.094 L2624.16 139.094 L2624.16 146.142 Q2626.84 142.051 2630.44 140.026 Q2634.09 138 2638.83 138 Q2646.65 138 2650.66 142.861 Q2654.67 147.682 2654.67 157.08 Z" fill="#000000" fill-rule="nonzero" fill-opacity="1" /><path clip-path="url(#clip062)" d="M418.526 2137.72 L418.526 2156.51 L593.163 2156.51 L593.163 2137.72 L418.526 2137.72 L418.526 2137.72  Z" fill="#ffa500" fill-rule="evenodd" fill-opacity="1"/>
<polyline clip-path="url(#clip062)" style="stroke:#000000; stroke-linecap:round; stroke-linejoin:round; stroke-width:0; stroke-opacity:0; fill:none" points="418.526,2137.72 418.526,2156.51 593.163,2156.51 593.163,2137.72 418.526,2137.72 "/>
<path clip-path="url(#clip062)" d="M1250.13 1978.3 L1250.13 2156.51 L1424.77 2156.51 L1424.77 1978.3 L1250.13 1978.3 L1250.13 1978.3  Z" fill="#ffa500" fill-rule="evenodd" fill-opacity="1"/>
<polyline clip-path="url(#clip062)" style="stroke:#000000; stroke-linecap:round; stroke-linejoin:round; stroke-width:0; stroke-opacity:0; fill:none" points="1250.13,1978.3 1250.13,2156.51 1424.77,2156.51 1424.77,1978.3 1250.13,1978.3 "/>
<path clip-path="url(#clip062)" d="M2081.74 1783.79 L2081.74 2156.51 L2256.38 2156.51 L2256.38 1783.79 L2081.74 1783.79 L2081.74 1783.79  Z" fill="#ffa500" fill-rule="evenodd" fill-opacity="1"/>
<polyline clip-path="url(#clip062)" style="stroke:#000000; stroke-linecap:round; stroke-linejoin:round; stroke-width:0; stroke-opacity:0; fill:none" points="2081.74,1783.79 2081.74,2156.51 2256.38,2156.51 2256.38,1783.79 2081.74,1783.79 "/>
<path clip-path="url(#clip062)" d="M2913.35 1349.48 L2913.35 2156.51 L3087.99 2156.51 L3087.99 1349.48 L2913.35 1349.48 L2913.35 1349.48  Z" fill="#ffa500" fill-rule="evenodd" fill-opacity="1"/>
<polyline clip-path="url(#clip062)" style="stroke:#000000; stroke-linecap:round; stroke-linejoin:round; stroke-width:0; stroke-opacity:0; fill:none" points="2913.35,1349.48 2913.35,2156.51 3087.99,2156.51 3087.99,1349.48 2913.35,1349.48 "/>
<circle clip-path="url(#clip062)" style="fill:#ffa500; stroke:none; fill-opacity:0" cx="505.845" cy="2137.72" r="2"/>
<circle clip-path="url(#clip062)" style="fill:#ffa500; stroke:none; fill-opacity:0" cx="1337.45" cy="1978.3" r="2"/>
<circle clip-path="url(#clip062)" style="fill:#ffa500; stroke:none; fill-opacity:0" cx="2169.06" cy="1783.79" r="2"/>
<circle clip-path="url(#clip062)" style="fill:#ffa500; stroke:none; fill-opacity:0" cx="3000.67" cy="1349.48" r="2"/>
<path clip-path="url(#clip062)" d="M709.589 2097.37 L709.589 2156.51 L884.226 2156.51 L884.226 2097.37 L709.589 2097.37 L709.589 2097.37  Z" fill="#00ffff" fill-rule="evenodd" fill-opacity="1"/>
<polyline clip-path="url(#clip062)" style="stroke:#000000; stroke-linecap:round; stroke-linejoin:round; stroke-width:0; stroke-opacity:0; fill:none" points="709.589,2097.37 709.589,2156.51 884.226,2156.51 884.226,2097.37 709.589,2097.37 "/>
<path clip-path="url(#clip062)" d="M1541.2 2059.15 L1541.2 2156.51 L1715.83 2156.51 L1715.83 2059.15 L1541.2 2059.15 L1541.2 2059.15  Z" fill="#00ffff" fill-rule="evenodd" fill-opacity="1"/>
<polyline clip-path="url(#clip062)" style="stroke:#000000; stroke-linecap:round; stroke-linejoin:round; stroke-width:0; stroke-opacity:0; fill:none" points="1541.2,2059.15 1541.2,2156.51 1715.83,2156.51 1715.83,2059.15 1541.2,2059.15 "/>
<path clip-path="url(#clip062)" d="M2372.81 246.944 L2372.81 2156.51 L2547.44 2156.51 L2547.44 246.944 L2372.81 246.944 L2372.81 246.944  Z" fill="#00ffff" fill-rule="evenodd" fill-opacity="1"/>
<polyline clip-path="url(#clip062)" style="stroke:#000000; stroke-linecap:round; stroke-linejoin:round; stroke-width:0; stroke-opacity:0; fill:none" points="2372.81,246.944 2372.81,2156.51 2547.44,2156.51 2547.44,246.944 2372.81,246.944 "/>
<path clip-path="url(#clip062)" d="M3204.41 1991.71 L3204.41 2156.51 L3379.05 2156.51 L3379.05 1991.71 L3204.41 1991.71 L3204.41 1991.71  Z" fill="#00ffff" fill-rule="evenodd" fill-opacity="1"/>
<polyline clip-path="url(#clip062)" style="stroke:#000000; stroke-linecap:round; stroke-linejoin:round; stroke-width:0; stroke-opacity:0; fill:none" points="3204.41,1991.71 3204.41,2156.51 3379.05,2156.51 3379.05,1991.71 3204.41,1991.71 "/>
<circle clip-path="url(#clip062)" style="fill:#00ffff; stroke:none; fill-opacity:0" cx="796.907" cy="2097.37" r="2"/>
<circle clip-path="url(#clip062)" style="fill:#00ffff; stroke:none; fill-opacity:0" cx="1628.52" cy="2059.15" r="2"/>
<circle clip-path="url(#clip062)" style="fill:#00ffff; stroke:none; fill-opacity:0" cx="2460.12" cy="246.944" r="2"/>
<circle clip-path="url(#clip062)" style="fill:#00ffff; stroke:none; fill-opacity:0" cx="3291.73" cy="1991.71" r="2"/>
<path clip-path="url(#clip060)" d="M355.086 466.116 L1122.87 466.116 L1122.87 310.596 L355.086 310.596  Z" fill="#ffffff" fill-rule="evenodd" fill-opacity="1"/>
<polyline clip-path="url(#clip060)" style="stroke:#000000; stroke-linecap:round; stroke-linejoin:round; stroke-width:4; stroke-opacity:1; fill:none" points="355.086,466.116 1122.87,466.116 1122.87,310.596 355.086,310.596 355.086,466.116 "/>
<path clip-path="url(#clip060)" d="M391.84 383.172 L612.369 383.172 L612.369 341.7 L391.84 341.7 L391.84 383.172  Z" fill="#ffa500" fill-rule="evenodd" fill-opacity="1"/>
<polyline clip-path="url(#clip060)" style="stroke:#000000; stroke-linecap:round; stroke-linejoin:round; stroke-width:0.8; stroke-opacity:0; fill:none" points="391.84,383.172 612.369,383.172 612.369,341.7 391.84,341.7 391.84,383.172 "/>
<path clip-path="url(#clip060)" d="M659.749 343.744 Q656.647 349.068 655.143 354.277 Q653.638 359.485 653.638 364.832 Q653.638 370.179 655.143 375.434 Q656.67 380.665 659.749 385.966 L656.045 385.966 Q652.573 380.527 650.837 375.272 Q649.124 370.017 649.124 364.832 Q649.124 359.67 650.837 354.439 Q652.55 349.207 656.045 343.744 L659.749 343.744 Z" fill="#000000" fill-rule="nonzero" fill-opacity="1" /><path clip-path="url(#clip060)" d="M690.189 365.689 L690.189 367.772 L670.606 367.772 Q670.883 372.17 673.244 374.485 Q675.629 376.777 679.865 376.777 Q682.318 376.777 684.61 376.175 Q686.925 375.573 689.193 374.369 L689.193 378.397 Q686.902 379.369 684.494 379.878 Q682.087 380.388 679.61 380.388 Q673.406 380.388 669.772 376.777 Q666.161 373.165 666.161 367.008 Q666.161 360.642 669.587 356.916 Q673.036 353.166 678.869 353.166 Q684.101 353.166 687.133 356.545 Q690.189 359.902 690.189 365.689 M685.93 364.439 Q685.883 360.943 683.962 358.86 Q682.064 356.777 678.916 356.777 Q675.351 356.777 673.198 358.791 Q671.069 360.804 670.744 364.462 L685.93 364.439 Z" fill="#000000" fill-rule="nonzero" fill-opacity="1" /><path clip-path="url(#clip060)" d="M717.897 353.791 L708.522 366.406 L718.383 379.716 L713.36 379.716 L705.814 369.531 L698.267 379.716 L693.244 379.716 L703.314 366.152 L694.101 353.791 L699.124 353.791 L705.999 363.027 L712.874 353.791 L717.897 353.791 Z" fill="#000000" fill-rule="nonzero" fill-opacity="1" /><path clip-path="url(#clip060)" d="M736.184 366.684 Q731.022 366.684 729.031 367.865 Q727.04 369.045 727.04 371.892 Q727.04 374.161 728.522 375.503 Q730.027 376.823 732.596 376.823 Q736.138 376.823 738.267 374.323 Q740.42 371.8 740.42 367.633 L740.42 366.684 L736.184 366.684 M744.679 364.925 L744.679 379.716 L740.42 379.716 L740.42 375.781 Q738.962 378.142 736.786 379.277 Q734.61 380.388 731.462 380.388 Q727.48 380.388 725.119 378.165 Q722.781 375.92 722.781 372.17 Q722.781 367.795 725.698 365.573 Q728.638 363.351 734.448 363.351 L740.42 363.351 L740.42 362.934 Q740.42 359.994 738.476 358.397 Q736.554 356.777 733.059 356.777 Q730.837 356.777 728.73 357.309 Q726.624 357.841 724.679 358.906 L724.679 354.971 Q727.017 354.068 729.216 353.629 Q731.415 353.166 733.499 353.166 Q739.124 353.166 741.901 356.082 Q744.679 358.999 744.679 364.925 Z" fill="#000000" fill-rule="nonzero" fill-opacity="1" /><path clip-path="url(#clip060)" d="M754.54 373.837 L759.425 373.837 L759.425 377.818 L755.628 385.226 L752.642 385.226 L754.54 377.818 L754.54 373.837 Z" fill="#000000" fill-rule="nonzero" fill-opacity="1" /><path clip-path="url(#clip060)" d="M803.776 358.767 Q805.373 355.897 807.596 354.531 Q809.818 353.166 812.827 353.166 Q816.878 353.166 819.077 356.013 Q821.276 358.837 821.276 364.068 L821.276 379.716 L816.994 379.716 L816.994 364.207 Q816.994 360.48 815.674 358.675 Q814.355 356.869 811.646 356.869 Q808.336 356.869 806.415 359.068 Q804.494 361.267 804.494 365.064 L804.494 379.716 L800.211 379.716 L800.211 364.207 Q800.211 360.457 798.892 358.675 Q797.572 356.869 794.818 356.869 Q791.554 356.869 789.633 359.091 Q787.711 361.291 787.711 365.064 L787.711 379.716 L783.429 379.716 L783.429 353.791 L787.711 353.791 L787.711 357.818 Q789.17 355.434 791.207 354.3 Q793.244 353.166 796.045 353.166 Q798.869 353.166 800.836 354.601 Q802.827 356.036 803.776 358.767 Z" fill="#000000" fill-rule="nonzero" fill-opacity="1" /><path clip-path="url(#clip060)" d="M841.554 366.684 Q836.392 366.684 834.401 367.865 Q832.41 369.045 832.41 371.892 Q832.41 374.161 833.892 375.503 Q835.396 376.823 837.966 376.823 Q841.507 376.823 843.637 374.323 Q845.79 371.8 845.79 367.633 L845.79 366.684 L841.554 366.684 M850.049 364.925 L850.049 379.716 L845.79 379.716 L845.79 375.781 Q844.331 378.142 842.156 379.277 Q839.98 380.388 836.832 380.388 Q832.85 380.388 830.489 378.165 Q828.151 375.92 828.151 372.17 Q828.151 367.795 831.068 365.573 Q834.007 363.351 839.818 363.351 L845.79 363.351 L845.79 362.934 Q845.79 359.994 843.845 358.397 Q841.924 356.777 838.429 356.777 Q836.207 356.777 834.1 357.309 Q831.994 357.841 830.049 358.906 L830.049 354.971 Q832.387 354.068 834.586 353.629 Q836.785 353.166 838.869 353.166 Q844.494 353.166 847.271 356.082 Q850.049 358.999 850.049 364.925 Z" fill="#000000" fill-rule="nonzero" fill-opacity="1" /><path clip-path="url(#clip060)" d="M875.882 357.726 L875.882 343.698 L880.141 343.698 L880.141 379.716 L875.882 379.716 L875.882 375.827 Q874.54 378.142 872.479 379.277 Q870.442 380.388 867.572 380.388 Q862.873 380.388 859.91 376.638 Q856.97 372.888 856.97 366.777 Q856.97 360.666 859.91 356.916 Q862.873 353.166 867.572 353.166 Q870.442 353.166 872.479 354.3 Q874.54 355.411 875.882 357.726 M861.368 366.777 Q861.368 371.476 863.29 374.161 Q865.234 376.823 868.614 376.823 Q871.993 376.823 873.938 374.161 Q875.882 371.476 875.882 366.777 Q875.882 362.078 873.938 359.416 Q871.993 356.73 868.614 356.73 Q865.234 356.73 863.29 359.416 Q861.368 362.078 861.368 366.777 Z" fill="#000000" fill-rule="nonzero" fill-opacity="1" /><path clip-path="url(#clip060)" d="M910.465 364.068 L910.465 379.716 L906.206 379.716 L906.206 364.207 Q906.206 360.527 904.771 358.698 Q903.336 356.869 900.465 356.869 Q897.016 356.869 895.026 359.068 Q893.035 361.267 893.035 365.064 L893.035 379.716 L888.753 379.716 L888.753 353.791 L893.035 353.791 L893.035 357.818 Q894.563 355.48 896.623 354.323 Q898.706 353.166 901.415 353.166 Q905.882 353.166 908.174 355.943 Q910.465 358.698 910.465 364.068 Z" fill="#000000" fill-rule="nonzero" fill-opacity="1" /><path clip-path="url(#clip060)" d="M918.961 343.698 L923.22 343.698 L923.22 379.716 L918.961 379.716 L918.961 343.698 Z" fill="#000000" fill-rule="nonzero" fill-opacity="1" /><path clip-path="url(#clip060)" d="M936.252 375.827 L936.252 389.577 L931.97 389.577 L931.97 353.791 L936.252 353.791 L936.252 357.726 Q937.595 355.411 939.632 354.3 Q941.692 353.166 944.539 353.166 Q949.261 353.166 952.201 356.916 Q955.164 360.666 955.164 366.777 Q955.164 372.888 952.201 376.638 Q949.261 380.388 944.539 380.388 Q941.692 380.388 939.632 379.277 Q937.595 378.142 936.252 375.827 M950.743 366.777 Q950.743 362.078 948.799 359.416 Q946.877 356.73 943.498 356.73 Q940.118 356.73 938.174 359.416 Q936.252 362.078 936.252 366.777 Q936.252 371.476 938.174 374.161 Q940.118 376.823 943.498 376.823 Q946.877 376.823 948.799 374.161 Q950.743 371.476 950.743 366.777 Z" fill="#000000" fill-rule="nonzero" fill-opacity="1" /><path clip-path="url(#clip060)" d="M961.553 343.744 L965.257 343.744 Q968.729 349.207 970.442 354.439 Q972.178 359.67 972.178 364.832 Q972.178 370.017 970.442 375.272 Q968.729 380.527 965.257 385.966 L961.553 385.966 Q964.632 380.665 966.136 375.434 Q967.664 370.179 967.664 364.832 Q967.664 359.485 966.136 354.277 Q964.632 349.068 961.553 343.744 Z" fill="#000000" fill-rule="nonzero" fill-opacity="1" /><path clip-path="url(#clip060)" d="M391.84 435.012 L612.369 435.012 L612.369 393.54 L391.84 393.54 L391.84 435.012  Z" fill="#00ffff" fill-rule="evenodd" fill-opacity="1"/>
<polyline clip-path="url(#clip060)" style="stroke:#000000; stroke-linecap:round; stroke-linejoin:round; stroke-width:0.8; stroke-opacity:0; fill:none" points="391.84,435.012 612.369,435.012 612.369,393.54 391.84,393.54 391.84,435.012 "/>
<path clip-path="url(#clip060)" d="M659.749 395.584 Q656.647 400.908 655.143 406.117 Q653.638 411.325 653.638 416.672 Q653.638 422.019 655.143 427.274 Q656.67 432.505 659.749 437.806 L656.045 437.806 Q652.573 432.367 650.837 427.112 Q649.124 421.857 649.124 416.672 Q649.124 411.51 650.837 406.279 Q652.55 401.047 656.045 395.584 L659.749 395.584 Z" fill="#000000" fill-rule="nonzero" fill-opacity="1" /><path clip-path="url(#clip060)" d="M690.189 417.529 L690.189 419.612 L670.606 419.612 Q670.883 424.01 673.244 426.325 Q675.629 428.617 679.865 428.617 Q682.318 428.617 684.61 428.015 Q686.925 427.413 689.193 426.209 L689.193 430.237 Q686.902 431.209 684.494 431.718 Q682.087 432.228 679.61 432.228 Q673.406 432.228 669.772 428.617 Q666.161 425.005 666.161 418.848 Q666.161 412.482 669.587 408.756 Q673.036 405.006 678.869 405.006 Q684.101 405.006 687.133 408.385 Q690.189 411.742 690.189 417.529 M685.93 416.279 Q685.883 412.783 683.962 410.7 Q682.064 408.617 678.916 408.617 Q675.351 408.617 673.198 410.631 Q671.069 412.644 670.744 416.302 L685.93 416.279 Z" fill="#000000" fill-rule="nonzero" fill-opacity="1" /><path clip-path="url(#clip060)" d="M717.897 405.631 L708.522 418.246 L718.383 431.556 L713.36 431.556 L705.814 421.371 L698.267 431.556 L693.244 431.556 L703.314 417.992 L694.101 405.631 L699.124 405.631 L705.999 414.867 L712.874 405.631 L717.897 405.631 Z" fill="#000000" fill-rule="nonzero" fill-opacity="1" /><path clip-path="url(#clip060)" d="M736.184 418.524 Q731.022 418.524 729.031 419.705 Q727.04 420.885 727.04 423.732 Q727.04 426.001 728.522 427.343 Q730.027 428.663 732.596 428.663 Q736.138 428.663 738.267 426.163 Q740.42 423.64 740.42 419.473 L740.42 418.524 L736.184 418.524 M744.679 416.765 L744.679 431.556 L740.42 431.556 L740.42 427.621 Q738.962 429.982 736.786 431.117 Q734.61 432.228 731.462 432.228 Q727.48 432.228 725.119 430.005 Q722.781 427.76 722.781 424.01 Q722.781 419.635 725.698 417.413 Q728.638 415.191 734.448 415.191 L740.42 415.191 L740.42 414.774 Q740.42 411.834 738.476 410.237 Q736.554 408.617 733.059 408.617 Q730.837 408.617 728.73 409.149 Q726.624 409.681 724.679 410.746 L724.679 406.811 Q727.017 405.908 729.216 405.469 Q731.415 405.006 733.499 405.006 Q739.124 405.006 741.901 407.922 Q744.679 410.839 744.679 416.765 Z" fill="#000000" fill-rule="nonzero" fill-opacity="1" /><path clip-path="url(#clip060)" d="M773.151 439.427 L773.151 442.737 L748.522 442.737 L748.522 439.427 L773.151 439.427 Z" fill="#000000" fill-rule="nonzero" fill-opacity="1" /><path clip-path="url(#clip060)" d="M794.216 418.293 Q794.216 413.663 792.295 411.117 Q790.397 408.57 786.948 408.57 Q783.522 408.57 781.6 411.117 Q779.702 413.663 779.702 418.293 Q779.702 422.899 781.6 425.445 Q783.522 427.992 786.948 427.992 Q790.397 427.992 792.295 425.445 Q794.216 422.899 794.216 418.293 M798.475 428.339 Q798.475 434.959 795.535 438.177 Q792.596 441.417 786.531 441.417 Q784.286 441.417 782.295 441.07 Q780.304 440.746 778.429 440.052 L778.429 435.908 Q780.304 436.927 782.133 437.413 Q783.961 437.899 785.86 437.899 Q790.049 437.899 792.133 435.7 Q794.216 433.524 794.216 429.103 L794.216 426.996 Q792.897 429.288 790.836 430.422 Q788.776 431.556 785.906 431.556 Q781.137 431.556 778.221 427.922 Q775.304 424.288 775.304 418.293 Q775.304 412.274 778.221 408.64 Q781.137 405.006 785.906 405.006 Q788.776 405.006 790.836 406.14 Q792.897 407.274 794.216 409.566 L794.216 405.631 L798.475 405.631 L798.475 428.339 Z" fill="#000000" fill-rule="nonzero" fill-opacity="1" /><path clip-path="url(#clip060)" d="M811.369 427.667 L811.369 441.417 L807.086 441.417 L807.086 405.631 L811.369 405.631 L811.369 409.566 Q812.711 407.251 814.748 406.14 Q816.808 405.006 819.656 405.006 Q824.378 405.006 827.318 408.756 Q830.281 412.506 830.281 418.617 Q830.281 424.728 827.318 428.478 Q824.378 432.228 819.656 432.228 Q816.808 432.228 814.748 431.117 Q812.711 429.982 811.369 427.667 M825.859 418.617 Q825.859 413.918 823.915 411.256 Q821.994 408.57 818.614 408.57 Q815.234 408.57 813.29 411.256 Q811.369 413.918 811.369 418.617 Q811.369 423.316 813.29 426.001 Q815.234 428.663 818.614 428.663 Q821.994 428.663 823.915 426.001 Q825.859 423.316 825.859 418.617 Z" fill="#000000" fill-rule="nonzero" fill-opacity="1" /><path clip-path="url(#clip060)" d="M836.901 421.325 L836.901 405.631 L841.16 405.631 L841.16 421.163 Q841.16 424.843 842.595 426.695 Q844.031 428.524 846.901 428.524 Q850.35 428.524 852.341 426.325 Q854.355 424.126 854.355 420.33 L854.355 405.631 L858.614 405.631 L858.614 431.556 L854.355 431.556 L854.355 427.575 Q852.804 429.936 850.743 431.093 Q848.706 432.228 845.998 432.228 Q841.531 432.228 839.216 429.45 Q836.901 426.672 836.901 421.325 M847.619 405.006 L847.619 405.006 Z" fill="#000000" fill-rule="nonzero" fill-opacity="1" /><path clip-path="url(#clip060)" d="M868.475 425.677 L873.359 425.677 L873.359 429.658 L869.563 437.066 L866.577 437.066 L868.475 429.658 L868.475 425.677 Z" fill="#000000" fill-rule="nonzero" fill-opacity="1" /><path clip-path="url(#clip060)" d="M917.711 410.607 Q919.308 407.737 921.53 406.371 Q923.752 405.006 926.762 405.006 Q930.812 405.006 933.012 407.853 Q935.211 410.677 935.211 415.908 L935.211 431.556 L930.928 431.556 L930.928 416.047 Q930.928 412.32 929.609 410.515 Q928.289 408.709 925.581 408.709 Q922.271 408.709 920.35 410.908 Q918.428 413.107 918.428 416.904 L918.428 431.556 L914.146 431.556 L914.146 416.047 Q914.146 412.297 912.826 410.515 Q911.507 408.709 908.752 408.709 Q905.489 408.709 903.567 410.931 Q901.646 413.131 901.646 416.904 L901.646 431.556 L897.364 431.556 L897.364 405.631 L901.646 405.631 L901.646 409.658 Q903.104 407.274 905.141 406.14 Q907.178 405.006 909.979 405.006 Q912.803 405.006 914.771 406.441 Q916.762 407.876 917.711 410.607 Z" fill="#000000" fill-rule="nonzero" fill-opacity="1" /><path clip-path="url(#clip060)" d="M955.488 418.524 Q950.326 418.524 948.336 419.705 Q946.345 420.885 946.345 423.732 Q946.345 426.001 947.826 427.343 Q949.331 428.663 951.9 428.663 Q955.442 428.663 957.572 426.163 Q959.724 423.64 959.724 419.473 L959.724 418.524 L955.488 418.524 M963.984 416.765 L963.984 431.556 L959.724 431.556 L959.724 427.621 Q958.266 429.982 956.09 431.117 Q953.914 432.228 950.766 432.228 Q946.785 432.228 944.424 430.005 Q942.086 427.76 942.086 424.01 Q942.086 419.635 945.002 417.413 Q947.942 415.191 953.752 415.191 L959.724 415.191 L959.724 414.774 Q959.724 411.834 957.78 410.237 Q955.859 408.617 952.363 408.617 Q950.141 408.617 948.035 409.149 Q945.928 409.681 943.984 410.746 L943.984 406.811 Q946.322 405.908 948.521 405.469 Q950.72 405.006 952.803 405.006 Q958.428 405.006 961.206 407.922 Q963.984 410.839 963.984 416.765 Z" fill="#000000" fill-rule="nonzero" fill-opacity="1" /><path clip-path="url(#clip060)" d="M989.817 409.566 L989.817 395.538 L994.076 395.538 L994.076 431.556 L989.817 431.556 L989.817 427.667 Q988.474 429.982 986.414 431.117 Q984.377 432.228 981.507 432.228 Q976.808 432.228 973.845 428.478 Q970.905 424.728 970.905 418.617 Q970.905 412.506 973.845 408.756 Q976.808 405.006 981.507 405.006 Q984.377 405.006 986.414 406.14 Q988.474 407.251 989.817 409.566 M975.303 418.617 Q975.303 423.316 977.224 426.001 Q979.169 428.663 982.548 428.663 Q985.928 428.663 987.872 426.001 Q989.817 423.316 989.817 418.617 Q989.817 413.918 987.872 411.256 Q985.928 408.57 982.548 408.57 Q979.169 408.57 977.224 411.256 Q975.303 413.918 975.303 418.617 Z" fill="#000000" fill-rule="nonzero" fill-opacity="1" /><path clip-path="url(#clip060)" d="M1024.4 415.908 L1024.4 431.556 L1020.14 431.556 L1020.14 416.047 Q1020.14 412.367 1018.71 410.538 Q1017.27 408.709 1014.4 408.709 Q1010.95 408.709 1008.96 410.908 Q1006.97 413.107 1006.97 416.904 L1006.97 431.556 L1002.69 431.556 L1002.69 405.631 L1006.97 405.631 L1006.97 409.658 Q1008.5 407.32 1010.56 406.163 Q1012.64 405.006 1015.35 405.006 Q1019.82 405.006 1022.11 407.783 Q1024.4 410.538 1024.4 415.908 Z" fill="#000000" fill-rule="nonzero" fill-opacity="1" /><path clip-path="url(#clip060)" d="M1032.9 395.538 L1037.15 395.538 L1037.15 431.556 L1032.9 431.556 L1032.9 395.538 Z" fill="#000000" fill-rule="nonzero" fill-opacity="1" /><path clip-path="url(#clip060)" d="M1050.19 427.667 L1050.19 441.417 L1045.9 441.417 L1045.9 405.631 L1050.19 405.631 L1050.19 409.566 Q1051.53 407.251 1053.57 406.14 Q1055.63 405.006 1058.47 405.006 Q1063.2 405.006 1066.14 408.756 Q1069.1 412.506 1069.1 418.617 Q1069.1 424.728 1066.14 428.478 Q1063.2 432.228 1058.47 432.228 Q1055.63 432.228 1053.57 431.117 Q1051.53 429.982 1050.19 427.667 M1064.68 418.617 Q1064.68 413.918 1062.73 411.256 Q1060.81 408.57 1057.43 408.57 Q1054.05 408.57 1052.11 411.256 Q1050.19 413.918 1050.19 418.617 Q1050.19 423.316 1052.11 426.001 Q1054.05 428.663 1057.43 428.663 Q1060.81 428.663 1062.73 426.001 Q1064.68 423.316 1064.68 418.617 Z" fill="#000000" fill-rule="nonzero" fill-opacity="1" /><path clip-path="url(#clip060)" d="M1075.49 395.584 L1079.19 395.584 Q1082.66 401.047 1084.38 406.279 Q1086.11 411.51 1086.11 416.672 Q1086.11 421.857 1084.38 427.112 Q1082.66 432.367 1079.19 437.806 L1075.49 437.806 Q1078.57 432.505 1080.07 427.274 Q1081.6 422.019 1081.6 416.672 Q1081.6 411.325 1080.07 406.117 Q1078.57 400.908 1075.49 395.584 Z" fill="#000000" fill-rule="nonzero" fill-opacity="1" /></svg>
