<?xml version="1.0" encoding="utf-8"?>
<svg xmlns="http://www.w3.org/2000/svg" xmlns:xlink="http://www.w3.org/1999/xlink" width="900" height="600" viewBox="0 0 3600 2400">
<defs>
  <clipPath id="clip420">
    <rect x="0" y="0" width="3600" height="2400"/>
  </clipPath>
</defs>
<path clip-path="url(#clip420)" d="M0 2400 L3600 2400 L3600 0 L0 0  Z" fill="#ffffff" fill-rule="evenodd" fill-opacity="1"/>
<defs>
  <clipPath id="clip421">
    <rect x="720" y="0" width="2521" height="2400"/>
  </clipPath>
</defs>
<path clip-path="url(#clip420)" d="M290.538 2156.51 L3552.76 2156.51 L3552.76 246.944 L290.538 246.944  Z" fill="#ffffff" fill-rule="evenodd" fill-opacity="1"/>
<defs>
  <clipPath id="clip422">
    <rect x="290" y="246" width="3263" height="1911"/>
  </clipPath>
</defs>
<polyline clip-path="url(#clip422)" style="stroke:#000000; stroke-linecap:round; stroke-linejoin:round; stroke-width:2; stroke-opacity:0.1; fill:none" points="691.475,2156.51 691.475,246.944 "/>
<polyline clip-path="url(#clip422)" style="stroke:#000000; stroke-linecap:round; stroke-linejoin:round; stroke-width:2; stroke-opacity:0.1; fill:none" points="1511.59,2156.51 1511.59,246.944 "/>
<polyline clip-path="url(#clip422)" style="stroke:#000000; stroke-linecap:round; stroke-linejoin:round; stroke-width:2; stroke-opacity:0.1; fill:none" points="2331.7,2156.51 2331.7,246.944 "/>
<polyline clip-path="url(#clip422)" style="stroke:#000000; stroke-linecap:round; stroke-linejoin:round; stroke-width:2; stroke-opacity:0.1; fill:none" points="3151.82,2156.51 3151.82,246.944 "/>
<polyline clip-path="url(#clip422)" style="stroke:#000000; stroke-linecap:round; stroke-linejoin:round; stroke-width:2; stroke-opacity:0.1; fill:none" points="290.538,2156.51 3552.76,2156.51 "/>
<polyline clip-path="url(#clip422)" style="stroke:#000000; stroke-linecap:round; stroke-linejoin:round; stroke-width:2; stroke-opacity:0.1; fill:none" points="290.538,1847.47 3552.76,1847.47 "/>
<polyline clip-path="url(#clip422)" style="stroke:#000000; stroke-linecap:round; stroke-linejoin:round; stroke-width:2; stroke-opacity:0.1; fill:none" points="290.538,1538.42 3552.76,1538.42 "/>
<polyline clip-path="url(#clip422)" style="stroke:#000000; stroke-linecap:round; stroke-linejoin:round; stroke-width:2; stroke-opacity:0.1; fill:none" points="290.538,1229.38 3552.76,1229.38 "/>
<polyline clip-path="url(#clip422)" style="stroke:#000000; stroke-linecap:round; stroke-linejoin:round; stroke-width:2; stroke-opacity:0.1; fill:none" points="290.538,920.34 3552.76,920.34 "/>
<polyline clip-path="url(#clip422)" style="stroke:#000000; stroke-linecap:round; stroke-linejoin:round; stroke-width:2; stroke-opacity:0.1; fill:none" points="290.538,611.298 3552.76,611.298 "/>
<polyline clip-path="url(#clip422)" style="stroke:#000000; stroke-linecap:round; stroke-linejoin:round; stroke-width:2; stroke-opacity:0.1; fill:none" points="290.538,302.256 3552.76,302.256 "/>
<polyline clip-path="url(#clip420)" style="stroke:#000000; stroke-linecap:round; stroke-linejoin:round; stroke-width:4; stroke-opacity:1; fill:none" points="290.538,2156.51 3552.76,2156.51 "/>
<polyline clip-path="url(#clip420)" style="stroke:#000000; stroke-linecap:round; stroke-linejoin:round; stroke-width:4; stroke-opacity:1; fill:none" points="691.475,2156.51 691.475,2137.61 "/>
<polyline clip-path="url(#clip420)" style="stroke:#000000; stroke-linecap:round; stroke-linejoin:round; stroke-width:4; stroke-opacity:1; fill:none" points="1511.59,2156.51 1511.59,2137.61 "/>
<polyline clip-path="url(#clip420)" style="stroke:#000000; stroke-linecap:round; stroke-linejoin:round; stroke-width:4; stroke-opacity:1; fill:none" points="2331.7,2156.51 2331.7,2137.61 "/>
<polyline clip-path="url(#clip420)" style="stroke:#000000; stroke-linecap:round; stroke-linejoin:round; stroke-width:4; stroke-opacity:1; fill:none" points="3151.82,2156.51 3151.82,2137.61 "/>
<path clip-path="url(#clip420)" d="M636 2224.57 L643.639 2224.57 L643.639 2198.21 L635.329 2199.87 L635.329 2195.61 L643.593 2193.95 L648.269 2193.95 L648.269 2224.57 L655.908 2224.57 L655.908 2228.51 L636 2228.51 L636 2224.57 Z" fill="#000000" fill-rule="nonzero" fill-opacity="1" /><path clip-path="url(#clip420)" d="M675.352 2197.03 Q671.741 2197.03 669.912 2200.59 Q668.107 2204.13 668.107 2211.26 Q668.107 2218.37 669.912 2221.93 Q671.741 2225.48 675.352 2225.48 Q678.986 2225.48 680.792 2221.93 Q682.62 2218.37 682.62 2211.26 Q682.62 2204.13 680.792 2200.59 Q678.986 2197.03 675.352 2197.03 M675.352 2193.32 Q681.162 2193.32 684.218 2197.93 Q687.296 2202.51 687.296 2211.26 Q687.296 2219.99 684.218 2224.6 Q681.162 2229.18 675.352 2229.18 Q669.542 2229.18 666.463 2224.6 Q663.408 2219.99 663.408 2211.26 Q663.408 2202.51 666.463 2197.93 Q669.542 2193.32 675.352 2193.32 Z" fill="#000000" fill-rule="nonzero" fill-opacity="1" /><path clip-path="url(#clip420)" d="M705.514 2197.03 Q701.903 2197.03 700.074 2200.59 Q698.269 2204.13 698.269 2211.26 Q698.269 2218.37 700.074 2221.93 Q701.903 2225.48 705.514 2225.48 Q709.148 2225.48 710.954 2221.93 Q712.782 2218.37 712.782 2211.26 Q712.782 2204.13 710.954 2200.59 Q709.148 2197.03 705.514 2197.03 M705.514 2193.32 Q711.324 2193.32 714.38 2197.93 Q717.458 2202.51 717.458 2211.26 Q717.458 2219.99 714.38 2224.6 Q711.324 2229.18 705.514 2229.18 Q699.704 2229.18 696.625 2224.6 Q693.569 2219.99 693.569 2211.26 Q693.569 2202.51 696.625 2197.93 Q699.704 2193.32 705.514 2193.32 Z" fill="#000000" fill-rule="nonzero" fill-opacity="1" /><path clip-path="url(#clip420)" d="M735.676 2197.03 Q732.065 2197.03 730.236 2200.59 Q728.43 2204.13 728.43 2211.26 Q728.43 2218.37 730.236 2221.93 Q732.065 2225.48 735.676 2225.48 Q739.31 2225.48 741.116 2221.93 Q742.944 2218.37 742.944 2211.26 Q742.944 2204.13 741.116 2200.59 Q739.31 2197.03 735.676 2197.03 M735.676 2193.32 Q741.486 2193.32 744.541 2197.93 Q747.62 2202.51 747.62 2211.26 Q747.62 2219.99 744.541 2224.6 Q741.486 2229.18 735.676 2229.18 Q729.866 2229.18 726.787 2224.6 Q723.731 2219.99 723.731 2211.26 Q723.731 2202.51 726.787 2197.93 Q729.866 2193.32 735.676 2193.32 Z" fill="#000000" fill-rule="nonzero" fill-opacity="1" /><path clip-path="url(#clip420)" d="M1456.13 2193.95 L1474.48 2193.95 L1474.48 2197.88 L1460.41 2197.88 L1460.41 2206.36 Q1461.43 2206.01 1462.45 2205.85 Q1463.46 2205.66 1464.48 2205.66 Q1470.27 2205.66 1473.65 2208.83 Q1477.03 2212 1477.03 2217.42 Q1477.03 2223 1473.56 2226.1 Q1470.09 2229.18 1463.77 2229.18 Q1461.59 2229.18 1459.32 2228.81 Q1457.08 2228.44 1454.67 2227.7 L1454.67 2223 Q1456.75 2224.13 1458.97 2224.69 Q1461.2 2225.24 1463.67 2225.24 Q1467.68 2225.24 1470.02 2223.14 Q1472.35 2221.03 1472.35 2217.42 Q1472.35 2213.81 1470.02 2211.7 Q1467.68 2209.6 1463.67 2209.6 Q1461.8 2209.6 1459.92 2210.01 Q1458.07 2210.43 1456.13 2211.31 L1456.13 2193.95 Z" fill="#000000" fill-rule="nonzero" fill-opacity="1" /><path clip-path="url(#clip420)" d="M1496.24 2197.03 Q1492.63 2197.03 1490.8 2200.59 Q1489 2204.13 1489 2211.26 Q1489 2218.37 1490.8 2221.93 Q1492.63 2225.48 1496.24 2225.48 Q1499.88 2225.48 1501.68 2221.93 Q1503.51 2218.37 1503.51 2211.26 Q1503.51 2204.13 1501.68 2200.59 Q1499.88 2197.03 1496.24 2197.03 M1496.24 2193.32 Q1502.05 2193.32 1505.11 2197.93 Q1508.19 2202.51 1508.19 2211.26 Q1508.19 2219.99 1505.11 2224.6 Q1502.05 2229.18 1496.24 2229.18 Q1490.43 2229.18 1487.35 2224.6 Q1484.3 2219.99 1484.3 2211.26 Q1484.3 2202.51 1487.35 2197.93 Q1490.43 2193.32 1496.24 2193.32 Z" fill="#000000" fill-rule="nonzero" fill-opacity="1" /><path clip-path="url(#clip420)" d="M1526.4 2197.03 Q1522.79 2197.03 1520.96 2200.59 Q1519.16 2204.13 1519.16 2211.26 Q1519.16 2218.37 1520.96 2221.93 Q1522.79 2225.48 1526.4 2225.48 Q1530.04 2225.48 1531.84 2221.93 Q1533.67 2218.37 1533.67 2211.26 Q1533.67 2204.13 1531.84 2200.59 Q1530.04 2197.03 1526.4 2197.03 M1526.4 2193.32 Q1532.21 2193.32 1535.27 2197.93 Q1538.35 2202.51 1538.35 2211.26 Q1538.35 2219.99 1535.27 2224.6 Q1532.21 2229.18 1526.4 2229.18 Q1520.59 2229.18 1517.52 2224.6 Q1514.46 2219.99 1514.46 2211.26 Q1514.46 2202.51 1517.52 2197.93 Q1520.59 2193.32 1526.4 2193.32 Z" fill="#000000" fill-rule="nonzero" fill-opacity="1" /><path clip-path="url(#clip420)" d="M1556.57 2197.03 Q1552.96 2197.03 1551.13 2200.59 Q1549.32 2204.13 1549.32 2211.26 Q1549.32 2218.37 1551.13 2221.93 Q1552.96 2225.48 1556.57 2225.48 Q1560.2 2225.48 1562.01 2221.93 Q1563.83 2218.37 1563.83 2211.26 Q1563.83 2204.13 1562.01 2200.59 Q1560.2 2197.03 1556.57 2197.03 M1556.57 2193.32 Q1562.38 2193.32 1565.43 2197.93 Q1568.51 2202.51 1568.51 2211.26 Q1568.51 2219.99 1565.43 2224.6 Q1562.38 2229.18 1556.57 2229.18 Q1550.76 2229.18 1547.68 2224.6 Q1544.62 2219.99 1544.62 2211.26 Q1544.62 2202.51 1547.68 2197.93 Q1550.76 2193.32 1556.57 2193.32 Z" fill="#000000" fill-rule="nonzero" fill-opacity="1" /><path clip-path="url(#clip420)" d="M2261.15 2224.57 L2268.79 2224.57 L2268.79 2198.21 L2260.48 2199.87 L2260.48 2195.61 L2268.74 2193.95 L2273.42 2193.95 L2273.42 2224.57 L2281.06 2224.57 L2281.06 2228.51 L2261.15 2228.51 L2261.15 2224.57 Z" fill="#000000" fill-rule="nonzero" fill-opacity="1" /><path clip-path="url(#clip420)" d="M2300.5 2197.03 Q2296.89 2197.03 2295.06 2200.59 Q2293.26 2204.13 2293.26 2211.26 Q2293.26 2218.37 2295.06 2221.93 Q2296.89 2225.48 2300.5 2225.48 Q2304.14 2225.48 2305.94 2221.93 Q2307.77 2218.37 2307.77 2211.26 Q2307.77 2204.13 2305.94 2200.59 Q2304.14 2197.03 2300.5 2197.03 M2300.5 2193.32 Q2306.31 2193.32 2309.37 2197.93 Q2312.45 2202.51 2312.45 2211.26 Q2312.45 2219.99 2309.37 2224.6 Q2306.31 2229.18 2300.5 2229.18 Q2294.69 2229.18 2291.61 2224.6 Q2288.56 2219.99 2288.56 2211.26 Q2288.56 2202.51 2291.61 2197.93 Q2294.69 2193.32 2300.5 2193.32 Z" fill="#000000" fill-rule="nonzero" fill-opacity="1" /><path clip-path="url(#clip420)" d="M2330.66 2197.03 Q2327.05 2197.03 2325.22 2200.59 Q2323.42 2204.13 2323.42 2211.26 Q2323.42 2218.37 2325.22 2221.93 Q2327.05 2225.48 2330.66 2225.48 Q2334.3 2225.48 2336.1 2221.93 Q2337.93 2218.37 2337.93 2211.26 Q2337.93 2204.13 2336.1 2200.59 Q2334.3 2197.03 2330.66 2197.03 M2330.66 2193.32 Q2336.47 2193.32 2339.53 2197.93 Q2342.61 2202.51 2342.61 2211.26 Q2342.61 2219.99 2339.53 2224.6 Q2336.47 2229.18 2330.66 2229.18 Q2324.85 2229.18 2321.77 2224.6 Q2318.72 2219.99 2318.72 2211.26 Q2318.72 2202.51 2321.77 2197.93 Q2324.85 2193.32 2330.66 2193.32 Z" fill="#000000" fill-rule="nonzero" fill-opacity="1" /><path clip-path="url(#clip420)" d="M2360.82 2197.03 Q2357.21 2197.03 2355.39 2200.59 Q2353.58 2204.13 2353.58 2211.26 Q2353.58 2218.37 2355.39 2221.93 Q2357.21 2225.48 2360.82 2225.48 Q2364.46 2225.48 2366.26 2221.93 Q2368.09 2218.37 2368.09 2211.26 Q2368.09 2204.13 2366.26 2200.59 Q2364.46 2197.03 2360.82 2197.03 M2360.82 2193.32 Q2366.64 2193.32 2369.69 2197.93 Q2372.77 2202.51 2372.77 2211.26 Q2372.77 2219.99 2369.69 2224.6 Q2366.64 2229.18 2360.82 2229.18 Q2355.01 2229.18 2351.94 2224.6 Q2348.88 2219.99 2348.88 2211.26 Q2348.88 2202.51 2351.94 2197.93 Q2355.01 2193.32 2360.82 2193.32 Z" fill="#000000" fill-rule="nonzero" fill-opacity="1" /><path clip-path="url(#clip420)" d="M2390.99 2197.03 Q2387.38 2197.03 2385.55 2200.59 Q2383.74 2204.13 2383.74 2211.26 Q2383.74 2218.37 2385.55 2221.93 Q2387.38 2225.48 2390.99 2225.48 Q2394.62 2225.48 2396.43 2221.93 Q2398.26 2218.37 2398.26 2211.26 Q2398.26 2204.13 2396.43 2200.59 Q2394.62 2197.03 2390.99 2197.03 M2390.99 2193.32 Q2396.8 2193.32 2399.85 2197.93 Q2402.93 2202.51 2402.93 2211.26 Q2402.93 2219.99 2399.85 2224.6 Q2396.8 2229.18 2390.99 2229.18 Q2385.18 2229.18 2382.1 2224.6 Q2379.04 2219.99 2379.04 2211.26 Q2379.04 2202.51 2382.1 2197.93 Q2385.18 2193.32 2390.99 2193.32 Z" fill="#000000" fill-rule="nonzero" fill-opacity="1" /><path clip-path="url(#clip420)" d="M3085.35 2224.57 L3101.67 2224.57 L3101.67 2228.51 L3079.73 2228.51 L3079.73 2224.57 Q3082.39 2221.82 3086.97 2217.19 Q3091.58 2212.54 3092.76 2211.19 Q3095 2208.67 3095.88 2206.93 Q3096.79 2205.17 3096.79 2203.48 Q3096.79 2200.73 3094.84 2198.99 Q3092.92 2197.26 3089.82 2197.26 Q3087.62 2197.26 3085.16 2198.02 Q3082.73 2198.79 3079.96 2200.34 L3079.96 2195.61 Q3082.78 2194.48 3085.23 2193.9 Q3087.69 2193.32 3089.73 2193.32 Q3095.1 2193.32 3098.29 2196.01 Q3101.48 2198.69 3101.48 2203.18 Q3101.48 2205.31 3100.67 2207.23 Q3099.89 2209.13 3097.78 2211.73 Q3097.2 2212.4 3094.1 2215.61 Q3091 2218.81 3085.35 2224.57 Z" fill="#000000" fill-rule="nonzero" fill-opacity="1" /><path clip-path="url(#clip420)" d="M3121.48 2197.03 Q3117.87 2197.03 3116.04 2200.59 Q3114.24 2204.13 3114.24 2211.26 Q3114.24 2218.37 3116.04 2221.93 Q3117.87 2225.48 3121.48 2225.48 Q3125.12 2225.48 3126.92 2221.93 Q3128.75 2218.37 3128.75 2211.26 Q3128.75 2204.13 3126.92 2200.59 Q3125.12 2197.03 3121.48 2197.03 M3121.48 2193.32 Q3127.29 2193.32 3130.35 2197.93 Q3133.43 2202.51 3133.43 2211.26 Q3133.43 2219.99 3130.35 2224.6 Q3127.29 2229.18 3121.48 2229.18 Q3115.67 2229.18 3112.6 2224.6 Q3109.54 2219.99 3109.54 2211.26 Q3109.54 2202.51 3112.6 2197.93 Q3115.67 2193.32 3121.48 2193.32 Z" fill="#000000" fill-rule="nonzero" fill-opacity="1" /><path clip-path="url(#clip420)" d="M3151.65 2197.03 Q3148.04 2197.03 3146.21 2200.59 Q3144.4 2204.13 3144.4 2211.26 Q3144.4 2218.37 3146.21 2221.93 Q3148.04 2225.48 3151.65 2225.48 Q3155.28 2225.48 3157.09 2221.93 Q3158.91 2218.37 3158.91 2211.26 Q3158.91 2204.13 3157.09 2200.59 Q3155.28 2197.03 3151.65 2197.03 M3151.65 2193.32 Q3157.46 2193.32 3160.51 2197.93 Q3163.59 2202.51 3163.59 2211.26 Q3163.59 2219.99 3160.51 2224.6 Q3157.46 2229.18 3151.65 2229.18 Q3145.84 2229.18 3142.76 2224.6 Q3139.7 2219.99 3139.7 2211.26 Q3139.7 2202.51 3142.76 2197.93 Q3145.84 2193.32 3151.65 2193.32 Z" fill="#000000" fill-rule="nonzero" fill-opacity="1" /><path clip-path="url(#clip420)" d="M3181.81 2197.03 Q3178.2 2197.03 3176.37 2200.59 Q3174.56 2204.13 3174.56 2211.26 Q3174.56 2218.37 3176.37 2221.93 Q3178.2 2225.48 3181.81 2225.48 Q3185.44 2225.48 3187.25 2221.93 Q3189.08 2218.37 3189.08 2211.26 Q3189.08 2204.13 3187.25 2200.59 Q3185.44 2197.03 3181.81 2197.03 M3181.81 2193.32 Q3187.62 2193.32 3190.67 2197.93 Q3193.75 2202.51 3193.75 2211.26 Q3193.75 2219.99 3190.67 2224.6 Q3187.62 2229.18 3181.81 2229.18 Q3176 2229.18 3172.92 2224.6 Q3169.86 2219.99 3169.86 2211.26 Q3169.86 2202.51 3172.92 2197.93 Q3176 2193.32 3181.81 2193.32 Z" fill="#000000" fill-rule="nonzero" fill-opacity="1" /><path clip-path="url(#clip420)" d="M3211.97 2197.03 Q3208.36 2197.03 3206.53 2200.59 Q3204.72 2204.13 3204.72 2211.26 Q3204.72 2218.37 3206.53 2221.93 Q3208.36 2225.48 3211.97 2225.48 Q3215.6 2225.48 3217.41 2221.93 Q3219.24 2218.37 3219.24 2211.26 Q3219.24 2204.13 3217.41 2200.59 Q3215.6 2197.03 3211.97 2197.03 M3211.97 2193.32 Q3217.78 2193.32 3220.84 2197.93 Q3223.91 2202.51 3223.91 2211.26 Q3223.91 2219.99 3220.84 2224.6 Q3217.78 2229.18 3211.97 2229.18 Q3206.16 2229.18 3203.08 2224.6 Q3200.03 2219.99 3200.03 2211.26 Q3200.03 2202.51 3203.08 2197.93 Q3206.16 2193.32 3211.97 2193.32 Z" fill="#000000" fill-rule="nonzero" fill-opacity="1" /><path clip-path="url(#clip420)" d="M1797.53 2308.02 L1797.53 2296.42 L1787.98 2296.42 L1787.98 2291.62 L1803.32 2291.62 L1803.32 2310.17 Q1799.93 2312.57 1795.85 2313.81 Q1791.77 2315.03 1787.14 2315.03 Q1777.02 2315.03 1771.29 2309.12 Q1765.59 2303.19 1765.59 2292.63 Q1765.59 2282.04 1771.29 2276.14 Q1777.02 2270.21 1787.14 2270.21 Q1791.37 2270.21 1795.16 2271.25 Q1798.98 2272.29 1802.19 2274.32 L1802.19 2280.54 Q1798.95 2277.79 1795.3 2276.4 Q1791.66 2275.01 1787.63 2275.01 Q1779.71 2275.01 1775.71 2279.44 Q1771.75 2283.86 1771.75 2292.63 Q1771.75 2301.37 1775.71 2305.8 Q1779.71 2310.22 1787.63 2310.22 Q1790.73 2310.22 1793.16 2309.7 Q1795.59 2309.15 1797.53 2308.02 Z" fill="#000000" fill-rule="nonzero" fill-opacity="1" /><path clip-path="url(#clip420)" d="M1832.54 2286.76 Q1831.64 2286.24 1830.57 2286 Q1829.53 2285.74 1828.26 2285.74 Q1823.75 2285.74 1821.31 2288.7 Q1818.91 2291.62 1818.91 2297.12 L1818.91 2314.19 L1813.56 2314.19 L1813.56 2281.78 L1818.91 2281.78 L1818.91 2286.82 Q1820.59 2283.86 1823.28 2282.45 Q1825.97 2281 1829.82 2281 Q1830.37 2281 1831.04 2281.09 Q1831.7 2281.14 1832.51 2281.29 L1832.54 2286.76 Z" fill="#000000" fill-rule="nonzero" fill-opacity="1" /><path clip-path="url(#clip420)" d="M1838.13 2281.78 L1843.45 2281.78 L1843.45 2314.19 L1838.13 2314.19 L1838.13 2281.78 M1838.13 2269.16 L1843.45 2269.16 L1843.45 2275.91 L1838.13 2275.91 L1838.13 2269.16 Z" fill="#000000" fill-rule="nonzero" fill-opacity="1" /><path clip-path="url(#clip420)" d="M1875.92 2286.7 L1875.92 2269.16 L1881.24 2269.16 L1881.24 2314.19 L1875.92 2314.19 L1875.92 2309.33 Q1874.24 2312.22 1871.66 2313.64 Q1869.12 2315.03 1865.53 2315.03 Q1859.65 2315.03 1855.95 2310.34 Q1852.28 2305.65 1852.28 2298.01 Q1852.28 2290.37 1855.95 2285.69 Q1859.65 2281 1865.53 2281 Q1869.12 2281 1871.66 2282.42 Q1874.24 2283.81 1875.92 2286.7 M1857.77 2298.01 Q1857.77 2303.89 1860.17 2307.24 Q1862.61 2310.57 1866.83 2310.57 Q1871.05 2310.57 1873.48 2307.24 Q1875.92 2303.89 1875.92 2298.01 Q1875.92 2292.14 1873.48 2288.81 Q1871.05 2285.46 1866.83 2285.46 Q1862.61 2285.46 1860.17 2288.81 Q1857.77 2292.14 1857.77 2298.01 Z" fill="#000000" fill-rule="nonzero" fill-opacity="1" /><path clip-path="url(#clip420)" d="M1931.7 2282.74 L1931.7 2287.77 Q1929.45 2286.61 1927.01 2286.03 Q1924.58 2285.46 1921.98 2285.46 Q1918.02 2285.46 1916.02 2286.67 Q1914.05 2287.89 1914.05 2290.32 Q1914.05 2292.17 1915.47 2293.24 Q1916.89 2294.28 1921.17 2295.24 L1922.99 2295.64 Q1928.66 2296.86 1931.04 2299.08 Q1933.44 2301.28 1933.44 2305.25 Q1933.44 2309.76 1929.85 2312.39 Q1926.29 2315.03 1920.04 2315.03 Q1917.44 2315.03 1914.6 2314.51 Q1911.79 2314.01 1908.67 2313 L1908.67 2307.5 Q1911.62 2309.04 1914.49 2309.82 Q1917.35 2310.57 1920.16 2310.57 Q1923.92 2310.57 1925.94 2309.3 Q1927.97 2308 1927.97 2305.65 Q1927.97 2303.48 1926.49 2302.32 Q1925.05 2301.17 1920.1 2300.1 L1918.25 2299.66 Q1913.3 2298.62 1911.1 2296.48 Q1908.9 2294.31 1908.9 2290.55 Q1908.9 2285.98 1912.14 2283.49 Q1915.38 2281 1921.34 2281 Q1924.29 2281 1926.9 2281.43 Q1929.5 2281.87 1931.7 2282.74 Z" fill="#000000" fill-rule="nonzero" fill-opacity="1" /><path clip-path="url(#clip420)" d="M1941.92 2281.78 L1947.24 2281.78 L1947.24 2314.19 L1941.92 2314.19 L1941.92 2281.78 M1941.92 2269.16 L1947.24 2269.16 L1947.24 2275.91 L1941.92 2275.91 L1941.92 2269.16 Z" fill="#000000" fill-rule="nonzero" fill-opacity="1" /><path clip-path="url(#clip420)" d="M1956.07 2281.78 L1981.35 2281.78 L1981.35 2286.64 L1961.33 2309.93 L1981.35 2309.93 L1981.35 2314.19 L1955.34 2314.19 L1955.34 2309.33 L1975.37 2286.03 L1956.07 2286.03 L1956.07 2281.78 Z" fill="#000000" fill-rule="nonzero" fill-opacity="1" /><path clip-path="url(#clip420)" d="M2017.21 2296.65 L2017.21 2299.26 L1992.73 2299.26 Q1993.07 2304.75 1996.02 2307.65 Q1999 2310.51 2004.3 2310.51 Q2007.37 2310.51 2010.23 2309.76 Q2013.13 2309.01 2015.96 2307.5 L2015.96 2312.54 Q2013.1 2313.75 2010.09 2314.39 Q2007.08 2315.03 2003.98 2315.03 Q1996.23 2315.03 1991.68 2310.51 Q1987.17 2306 1987.17 2298.3 Q1987.17 2290.35 1991.45 2285.69 Q1995.76 2281 2003.06 2281 Q2009.6 2281 2013.39 2285.22 Q2017.21 2289.42 2017.21 2296.65 M2011.88 2295.09 Q2011.82 2290.72 2009.42 2288.12 Q2007.05 2285.51 2003.11 2285.51 Q1998.66 2285.51 1995.97 2288.03 Q1993.3 2290.55 1992.9 2295.12 L2011.88 2295.09 Z" fill="#000000" fill-rule="nonzero" fill-opacity="1" /><path clip-path="url(#clip420)" d="M2045.01 2270.99 L2052.88 2270.99 L2072.04 2307.13 L2072.04 2270.99 L2077.71 2270.99 L2077.71 2314.19 L2069.84 2314.19 L2050.68 2278.05 L2050.68 2314.19 L2045.01 2314.19 L2045.01 2270.99 Z" fill="#000000" fill-rule="nonzero" fill-opacity="1" /><polyline clip-path="url(#clip420)" style="stroke:#000000; stroke-linecap:round; stroke-linejoin:round; stroke-width:4; stroke-opacity:1; fill:none" points="290.538,2156.51 290.538,246.944 "/>
<polyline clip-path="url(#clip420)" style="stroke:#000000; stroke-linecap:round; stroke-linejoin:round; stroke-width:4; stroke-opacity:1; fill:none" points="290.538,2156.51 309.436,2156.51 "/>
<polyline clip-path="url(#clip420)" style="stroke:#000000; stroke-linecap:round; stroke-linejoin:round; stroke-width:4; stroke-opacity:1; fill:none" points="290.538,1847.47 309.436,1847.47 "/>
<polyline clip-path="url(#clip420)" style="stroke:#000000; stroke-linecap:round; stroke-linejoin:round; stroke-width:4; stroke-opacity:1; fill:none" points="290.538,1538.42 309.436,1538.42 "/>
<polyline clip-path="url(#clip420)" style="stroke:#000000; stroke-linecap:round; stroke-linejoin:round; stroke-width:4; stroke-opacity:1; fill:none" points="290.538,1229.38 309.436,1229.38 "/>
<polyline clip-path="url(#clip420)" style="stroke:#000000; stroke-linecap:round; stroke-linejoin:round; stroke-width:4; stroke-opacity:1; fill:none" points="290.538,920.34 309.436,920.34 "/>
<polyline clip-path="url(#clip420)" style="stroke:#000000; stroke-linecap:round; stroke-linejoin:round; stroke-width:4; stroke-opacity:1; fill:none" points="290.538,611.298 309.436,611.298 "/>
<polyline clip-path="url(#clip420)" style="stroke:#000000; stroke-linecap:round; stroke-linejoin:round; stroke-width:4; stroke-opacity:1; fill:none" points="290.538,302.256 309.436,302.256 "/>
<path clip-path="url(#clip420)" d="M179.363 2142.31 Q175.752 2142.31 173.923 2145.87 Q172.117 2149.41 172.117 2156.54 Q172.117 2163.65 173.923 2167.21 Q175.752 2170.76 179.363 2170.76 Q182.997 2170.76 184.803 2167.21 Q186.631 2163.65 186.631 2156.54 Q186.631 2149.41 184.803 2145.87 Q182.997 2142.31 179.363 2142.31 M179.363 2138.6 Q185.173 2138.6 188.228 2143.21 Q191.307 2147.79 191.307 2156.54 Q191.307 2165.27 188.228 2169.88 Q185.173 2174.46 179.363 2174.46 Q173.553 2174.46 170.474 2169.88 Q167.418 2165.27 167.418 2156.54 Q167.418 2147.79 170.474 2143.21 Q173.553 2138.6 179.363 2138.6 Z" fill="#000000" fill-rule="nonzero" fill-opacity="1" /><path clip-path="url(#clip420)" d="M199.525 2167.91 L204.409 2167.91 L204.409 2173.79 L199.525 2173.79 L199.525 2167.91 Z" fill="#000000" fill-rule="nonzero" fill-opacity="1" /><path clip-path="url(#clip420)" d="M224.594 2142.31 Q220.983 2142.31 219.154 2145.87 Q217.349 2149.41 217.349 2156.54 Q217.349 2163.65 219.154 2167.21 Q220.983 2170.76 224.594 2170.76 Q228.228 2170.76 230.034 2167.21 Q231.862 2163.65 231.862 2156.54 Q231.862 2149.41 230.034 2145.87 Q228.228 2142.31 224.594 2142.31 M224.594 2138.6 Q230.404 2138.6 233.46 2143.21 Q236.538 2147.79 236.538 2156.54 Q236.538 2165.27 233.46 2169.88 Q230.404 2174.46 224.594 2174.46 Q218.784 2174.46 215.705 2169.88 Q212.65 2165.27 212.65 2156.54 Q212.65 2147.79 215.705 2143.21 Q218.784 2138.6 224.594 2138.6 Z" fill="#000000" fill-rule="nonzero" fill-opacity="1" /><path clip-path="url(#clip420)" d="M180.59 1833.26 Q176.979 1833.26 175.15 1836.83 Q173.344 1840.37 173.344 1847.5 Q173.344 1854.61 175.15 1858.17 Q176.979 1861.71 180.59 1861.71 Q184.224 1861.71 186.029 1858.17 Q187.858 1854.61 187.858 1847.5 Q187.858 1840.37 186.029 1836.83 Q184.224 1833.26 180.59 1833.26 M180.59 1829.56 Q186.4 1829.56 189.455 1834.17 Q192.534 1838.75 192.534 1847.5 Q192.534 1856.23 189.455 1860.83 Q186.4 1865.42 180.59 1865.42 Q174.779 1865.42 171.701 1860.83 Q168.645 1856.23 168.645 1847.5 Q168.645 1838.75 171.701 1834.17 Q174.779 1829.56 180.59 1829.56 Z" fill="#000000" fill-rule="nonzero" fill-opacity="1" /><path clip-path="url(#clip420)" d="M200.752 1858.87 L205.636 1858.87 L205.636 1864.75 L200.752 1864.75 L200.752 1858.87 Z" fill="#000000" fill-rule="nonzero" fill-opacity="1" /><path clip-path="url(#clip420)" d="M216.631 1860.81 L224.27 1860.81 L224.27 1834.44 L215.96 1836.11 L215.96 1831.85 L224.224 1830.19 L228.9 1830.19 L228.9 1860.81 L236.538 1860.81 L236.538 1864.75 L216.631 1864.75 L216.631 1860.81 Z" fill="#000000" fill-rule="nonzero" fill-opacity="1" /><path clip-path="url(#clip420)" d="M180.96 1524.22 Q177.349 1524.22 175.52 1527.79 Q173.715 1531.33 173.715 1538.46 Q173.715 1545.56 175.52 1549.13 Q177.349 1552.67 180.96 1552.67 Q184.594 1552.67 186.4 1549.13 Q188.228 1545.56 188.228 1538.46 Q188.228 1531.33 186.4 1527.79 Q184.594 1524.22 180.96 1524.22 M180.96 1520.52 Q186.77 1520.52 189.826 1525.13 Q192.904 1529.71 192.904 1538.46 Q192.904 1547.19 189.826 1551.79 Q186.77 1556.38 180.96 1556.38 Q175.15 1556.38 172.071 1551.79 Q169.016 1547.19 169.016 1538.46 Q169.016 1529.71 172.071 1525.13 Q175.15 1520.52 180.96 1520.52 Z" fill="#000000" fill-rule="nonzero" fill-opacity="1" /><path clip-path="url(#clip420)" d="M201.122 1549.82 L206.006 1549.82 L206.006 1555.7 L201.122 1555.7 L201.122 1549.82 Z" fill="#000000" fill-rule="nonzero" fill-opacity="1" /><path clip-path="url(#clip420)" d="M220.219 1551.77 L236.538 1551.77 L236.538 1555.7 L214.594 1555.7 L214.594 1551.77 Q217.256 1549.01 221.839 1544.38 Q226.446 1539.73 227.626 1538.39 Q229.872 1535.87 230.751 1534.13 Q231.654 1532.37 231.654 1530.68 Q231.654 1527.93 229.71 1526.19 Q227.788 1524.45 224.687 1524.45 Q222.488 1524.45 220.034 1525.22 Q217.603 1525.98 214.826 1527.53 L214.826 1522.81 Q217.65 1521.68 220.103 1521.1 Q222.557 1520.52 224.594 1520.52 Q229.964 1520.52 233.159 1523.2 Q236.353 1525.89 236.353 1530.38 Q236.353 1532.51 235.543 1534.43 Q234.756 1536.33 232.65 1538.92 Q232.071 1539.59 228.969 1542.81 Q225.867 1546 220.219 1551.77 Z" fill="#000000" fill-rule="nonzero" fill-opacity="1" /><path clip-path="url(#clip420)" d="M180.011 1215.18 Q176.4 1215.18 174.571 1218.75 Q172.766 1222.29 172.766 1229.42 Q172.766 1236.52 174.571 1240.09 Q176.4 1243.63 180.011 1243.63 Q183.645 1243.63 185.451 1240.09 Q187.279 1236.52 187.279 1229.42 Q187.279 1222.29 185.451 1218.75 Q183.645 1215.18 180.011 1215.18 M180.011 1211.48 Q185.821 1211.48 188.877 1216.08 Q191.955 1220.67 191.955 1229.42 Q191.955 1238.14 188.877 1242.75 Q185.821 1247.33 180.011 1247.33 Q174.201 1247.33 171.122 1242.75 Q168.067 1238.14 168.067 1229.42 Q168.067 1220.67 171.122 1216.08 Q174.201 1211.48 180.011 1211.48 Z" fill="#000000" fill-rule="nonzero" fill-opacity="1" /><path clip-path="url(#clip420)" d="M200.173 1240.78 L205.057 1240.78 L205.057 1246.66 L200.173 1246.66 L200.173 1240.78 Z" fill="#000000" fill-rule="nonzero" fill-opacity="1" /><path clip-path="url(#clip420)" d="M229.409 1228.03 Q232.765 1228.75 234.64 1231.01 Q236.538 1233.28 236.538 1236.62 Q236.538 1241.73 233.02 1244.53 Q229.501 1247.33 223.02 1247.33 Q220.844 1247.33 218.529 1246.89 Q216.238 1246.48 213.784 1245.62 L213.784 1241.11 Q215.728 1242.24 218.043 1242.82 Q220.358 1243.4 222.881 1243.4 Q227.279 1243.4 229.571 1241.66 Q231.886 1239.93 231.886 1236.62 Q231.886 1233.56 229.733 1231.85 Q227.603 1230.11 223.784 1230.11 L219.756 1230.11 L219.756 1226.27 L223.969 1226.27 Q227.418 1226.27 229.247 1224.9 Q231.075 1223.51 231.075 1220.92 Q231.075 1218.26 229.177 1216.85 Q227.302 1215.41 223.784 1215.41 Q221.863 1215.41 219.663 1215.83 Q217.464 1216.25 214.826 1217.12 L214.826 1212.96 Q217.488 1212.22 219.802 1211.85 Q222.14 1211.48 224.2 1211.48 Q229.525 1211.48 232.626 1213.91 Q235.728 1216.31 235.728 1220.44 Q235.728 1223.31 234.085 1225.3 Q232.441 1227.26 229.409 1228.03 Z" fill="#000000" fill-rule="nonzero" fill-opacity="1" /><path clip-path="url(#clip420)" d="M178.877 906.139 Q175.266 906.139 173.437 909.703 Q171.631 913.245 171.631 920.375 Q171.631 927.481 173.437 931.046 Q175.266 934.587 178.877 934.587 Q182.511 934.587 184.316 931.046 Q186.145 927.481 186.145 920.375 Q186.145 913.245 184.316 909.703 Q182.511 906.139 178.877 906.139 M178.877 902.435 Q184.687 902.435 187.742 907.041 Q190.821 911.625 190.821 920.375 Q190.821 929.101 187.742 933.708 Q184.687 938.291 178.877 938.291 Q173.067 938.291 169.988 933.708 Q166.932 929.101 166.932 920.375 Q166.932 911.625 169.988 907.041 Q173.067 902.435 178.877 902.435 Z" fill="#000000" fill-rule="nonzero" fill-opacity="1" /><path clip-path="url(#clip420)" d="M199.039 931.74 L203.923 931.74 L203.923 937.62 L199.039 937.62 L199.039 931.74 Z" fill="#000000" fill-rule="nonzero" fill-opacity="1" /><path clip-path="url(#clip420)" d="M226.955 907.134 L215.15 925.583 L226.955 925.583 L226.955 907.134 M225.728 903.06 L231.608 903.06 L231.608 925.583 L236.538 925.583 L236.538 929.472 L231.608 929.472 L231.608 937.62 L226.955 937.62 L226.955 929.472 L211.353 929.472 L211.353 924.958 L225.728 903.06 Z" fill="#000000" fill-rule="nonzero" fill-opacity="1" /><path clip-path="url(#clip420)" d="M180.358 597.097 Q176.747 597.097 174.918 600.661 Q173.113 604.203 173.113 611.333 Q173.113 618.439 174.918 622.004 Q176.747 625.545 180.358 625.545 Q183.992 625.545 185.798 622.004 Q187.627 618.439 187.627 611.333 Q187.627 604.203 185.798 600.661 Q183.992 597.097 180.358 597.097 M180.358 593.393 Q186.168 593.393 189.224 597.999 Q192.303 602.583 192.303 611.333 Q192.303 620.059 189.224 624.666 Q186.168 629.249 180.358 629.249 Q174.548 629.249 171.469 624.666 Q168.414 620.059 168.414 611.333 Q168.414 602.583 171.469 597.999 Q174.548 593.393 180.358 593.393 Z" fill="#000000" fill-rule="nonzero" fill-opacity="1" /><path clip-path="url(#clip420)" d="M200.52 622.698 L205.404 622.698 L205.404 628.578 L200.52 628.578 L200.52 622.698 Z" fill="#000000" fill-rule="nonzero" fill-opacity="1" /><path clip-path="url(#clip420)" d="M215.636 594.018 L233.992 594.018 L233.992 597.953 L219.918 597.953 L219.918 606.425 Q220.937 606.078 221.955 605.916 Q222.974 605.731 223.992 605.731 Q229.779 605.731 233.159 608.902 Q236.538 612.073 236.538 617.49 Q236.538 623.069 233.066 626.17 Q229.594 629.249 223.275 629.249 Q221.099 629.249 218.83 628.879 Q216.585 628.508 214.177 627.768 L214.177 623.069 Q216.261 624.203 218.483 624.758 Q220.705 625.314 223.182 625.314 Q227.187 625.314 229.525 623.208 Q231.862 621.101 231.862 617.49 Q231.862 613.879 229.525 611.772 Q227.187 609.666 223.182 609.666 Q221.307 609.666 219.432 610.083 Q217.58 610.499 215.636 611.379 L215.636 594.018 Z" fill="#000000" fill-rule="nonzero" fill-opacity="1" /><path clip-path="url(#clip420)" d="M179.201 288.055 Q175.59 288.055 173.761 291.619 Q171.955 295.161 171.955 302.291 Q171.955 309.397 173.761 312.962 Q175.59 316.504 179.201 316.504 Q182.835 316.504 184.641 312.962 Q186.469 309.397 186.469 302.291 Q186.469 295.161 184.641 291.619 Q182.835 288.055 179.201 288.055 M179.201 284.351 Q185.011 284.351 188.066 288.957 Q191.145 293.541 191.145 302.291 Q191.145 311.017 188.066 315.624 Q185.011 320.207 179.201 320.207 Q173.391 320.207 170.312 315.624 Q167.256 311.017 167.256 302.291 Q167.256 293.541 170.312 288.957 Q173.391 284.351 179.201 284.351 Z" fill="#000000" fill-rule="nonzero" fill-opacity="1" /><path clip-path="url(#clip420)" d="M199.363 313.656 L204.247 313.656 L204.247 319.536 L199.363 319.536 L199.363 313.656 Z" fill="#000000" fill-rule="nonzero" fill-opacity="1" /><path clip-path="url(#clip420)" d="M225.011 300.392 Q221.863 300.392 220.011 302.545 Q218.182 304.698 218.182 308.448 Q218.182 312.175 220.011 314.351 Q221.863 316.504 225.011 316.504 Q228.159 316.504 229.988 314.351 Q231.839 312.175 231.839 308.448 Q231.839 304.698 229.988 302.545 Q228.159 300.392 225.011 300.392 M234.293 285.74 L234.293 289.999 Q232.534 289.166 230.728 288.726 Q228.946 288.286 227.187 288.286 Q222.557 288.286 220.103 291.411 Q217.673 294.536 217.326 300.855 Q218.691 298.842 220.751 297.777 Q222.812 296.689 225.288 296.689 Q230.497 296.689 233.506 299.86 Q236.538 303.008 236.538 308.448 Q236.538 313.772 233.39 316.99 Q230.242 320.207 225.011 320.207 Q219.015 320.207 215.844 315.624 Q212.673 311.017 212.673 302.291 Q212.673 294.096 216.562 289.235 Q220.451 284.351 227.001 284.351 Q228.761 284.351 230.543 284.698 Q232.349 285.045 234.293 285.74 Z" fill="#000000" fill-rule="nonzero" fill-opacity="1" /><path clip-path="url(#clip420)" d="M58.1901 1374.69 L63.8903 1374.69 Q62.2989 1378.01 61.5176 1380.96 Q60.7364 1383.92 60.7364 1386.66 Q60.7364 1391.44 62.5882 1394.04 Q64.4401 1396.62 67.8544 1396.62 Q70.719 1396.62 72.1947 1394.91 Q73.6414 1393.17 74.5384 1388.37 L75.2618 1384.84 Q76.506 1378.3 79.6599 1375.21 Q82.7849 1372.08 88.0511 1372.08 Q94.33 1372.08 97.5707 1376.31 Q100.811 1380.5 100.811 1388.63 Q100.811 1391.7 100.117 1395.17 Q99.4225 1398.61 98.0626 1402.32 L92.0441 1402.32 Q94.0406 1398.76 95.0533 1395.34 Q96.0661 1391.93 96.0661 1388.63 Q96.0661 1383.63 94.0985 1380.91 Q92.1309 1378.19 88.4851 1378.19 Q85.3022 1378.19 83.5083 1380.15 Q81.7143 1382.09 80.8173 1386.55 L80.1229 1390.11 Q78.8208 1396.65 76.043 1399.57 Q73.2653 1402.49 68.3174 1402.49 Q62.5882 1402.49 59.2896 1398.47 Q55.991 1394.42 55.991 1387.33 Q55.991 1384.29 56.5408 1381.14 Q57.0906 1377.98 58.1901 1374.69 Z" fill="#000000" fill-rule="nonzero" fill-opacity="1" /><path clip-path="url(#clip420)" d="M71.2977 1350.64 Q71.2977 1354.92 74.6541 1357.41 Q77.9817 1359.9 83.7976 1359.9 Q89.6135 1359.9 92.97 1357.44 Q96.2975 1354.95 96.2975 1350.64 Q96.2975 1346.39 92.9411 1343.9 Q89.5846 1341.41 83.7976 1341.41 Q78.0395 1341.41 74.6831 1343.9 Q71.2977 1346.39 71.2977 1350.64 M66.7838 1350.64 Q66.7838 1343.7 71.2977 1339.73 Q75.8115 1335.77 83.7976 1335.77 Q91.7547 1335.77 96.2975 1339.73 Q100.811 1343.7 100.811 1350.64 Q100.811 1357.61 96.2975 1361.58 Q91.7547 1365.51 83.7976 1365.51 Q75.8115 1365.51 71.2977 1361.58 Q66.7838 1357.61 66.7838 1350.64 Z" fill="#000000" fill-rule="nonzero" fill-opacity="1" /><path clip-path="url(#clip420)" d="M54.9494 1326.94 L54.9494 1321.62 L99.9723 1321.62 L99.9723 1326.94 L54.9494 1326.94 Z" fill="#000000" fill-rule="nonzero" fill-opacity="1" /><path clip-path="url(#clip420)" d="M67.565 1314.3 L67.565 1308.66 L94.764 1298.53 L67.565 1288.4 L67.565 1282.76 L99.9723 1294.91 L99.9723 1302.15 L67.565 1314.3 Z" fill="#000000" fill-rule="nonzero" fill-opacity="1" /><path clip-path="url(#clip420)" d="M82.4377 1247.69 L85.0418 1247.69 L85.0418 1272.17 Q90.5395 1271.82 93.433 1268.87 Q96.2975 1265.89 96.2975 1260.59 Q96.2975 1257.53 95.5452 1254.66 Q94.7929 1251.77 93.2883 1248.93 L98.323 1248.93 Q99.5383 1251.8 100.175 1254.81 Q100.811 1257.82 100.811 1260.91 Q100.811 1268.67 96.2975 1273.21 Q91.7837 1277.72 84.087 1277.72 Q76.1298 1277.72 71.4713 1273.44 Q66.7838 1269.13 66.7838 1261.84 Q66.7838 1255.3 71.0083 1251.51 Q75.2039 1247.69 82.4377 1247.69 M80.8752 1253.01 Q76.506 1253.07 73.9018 1255.47 Q71.2977 1257.85 71.2977 1261.78 Q71.2977 1266.24 73.815 1268.93 Q76.3324 1271.59 80.9041 1271.99 L80.8752 1253.01 Z" fill="#000000" fill-rule="nonzero" fill-opacity="1" /><path clip-path="url(#clip420)" d="M58.3637 1214.85 L67.565 1214.85 L67.565 1203.88 L71.7028 1203.88 L71.7028 1214.85 L89.2953 1214.85 Q93.2594 1214.85 94.3878 1213.78 Q95.5163 1212.68 95.5163 1209.35 L95.5163 1203.88 L99.9723 1203.88 L99.9723 1209.35 Q99.9723 1215.51 97.6864 1217.86 Q95.3716 1220.2 89.2953 1220.2 L71.7028 1220.2 L71.7028 1224.11 L67.565 1224.11 L67.565 1220.2 L58.3637 1220.2 L58.3637 1214.85 Z" fill="#000000" fill-rule="nonzero" fill-opacity="1" /><path clip-path="url(#clip420)" d="M67.565 1196.88 L67.565 1191.56 L99.9723 1191.56 L99.9723 1196.88 L67.565 1196.88 M54.9494 1196.88 L54.9494 1191.56 L61.6912 1191.56 L61.6912 1196.88 L54.9494 1196.88 Z" fill="#000000" fill-rule="nonzero" fill-opacity="1" /><path clip-path="url(#clip420)" d="M73.7861 1155.18 Q70.1981 1153.19 68.491 1150.41 Q66.7838 1147.63 66.7838 1143.87 Q66.7838 1138.81 70.3428 1136.06 Q73.8729 1133.31 80.4122 1133.31 L99.9723 1133.31 L99.9723 1138.66 L80.5858 1138.66 Q75.9273 1138.66 73.6703 1140.31 Q71.4134 1141.96 71.4134 1145.35 Q71.4134 1149.48 74.1622 1151.89 Q76.9111 1154.29 81.6564 1154.29 L99.9723 1154.29 L99.9723 1159.64 L80.5858 1159.64 Q75.8983 1159.64 73.6703 1161.29 Q71.4134 1162.94 71.4134 1166.38 Q71.4134 1170.46 74.1912 1172.86 Q76.94 1175.26 81.6564 1175.26 L99.9723 1175.26 L99.9723 1180.62 L67.565 1180.62 L67.565 1175.26 L72.5997 1175.26 Q69.6194 1173.44 68.2016 1170.9 Q66.7838 1168.35 66.7838 1164.85 Q66.7838 1161.32 68.5778 1158.86 Q70.3717 1156.37 73.7861 1155.18 Z" fill="#000000" fill-rule="nonzero" fill-opacity="1" /><path clip-path="url(#clip420)" d="M82.4377 1094.97 L85.0418 1094.97 L85.0418 1119.45 Q90.5395 1119.1 93.433 1116.15 Q96.2975 1113.17 96.2975 1107.88 Q96.2975 1104.81 95.5452 1101.94 Q94.7929 1099.05 93.2883 1096.21 L98.323 1096.21 Q99.5383 1099.08 100.175 1102.09 Q100.811 1105.1 100.811 1108.19 Q100.811 1115.95 96.2975 1120.49 Q91.7837 1125 84.087 1125 Q76.1298 1125 71.4713 1120.72 Q66.7838 1116.41 66.7838 1109.12 Q66.7838 1102.58 71.0083 1098.79 Q75.2039 1094.97 82.4377 1094.97 M80.8752 1100.29 Q76.506 1100.35 73.9018 1102.75 Q71.2977 1105.13 71.2977 1109.06 Q71.2977 1113.52 73.815 1116.21 Q76.3324 1118.87 80.9041 1119.28 L80.8752 1100.29 Z" fill="#000000" fill-rule="nonzero" fill-opacity="1" /><path clip-path="url(#clip420)" d="M55.0072 1054.61 Q61.6623 1058.48 68.1727 1060.36 Q74.6831 1062.24 81.3671 1062.24 Q88.0511 1062.24 94.6193 1060.36 Q101.159 1058.45 107.785 1054.61 L107.785 1059.24 Q100.985 1063.58 94.4168 1065.75 Q87.8485 1067.89 81.3671 1067.89 Q74.9145 1067.89 68.3752 1065.75 Q61.8359 1063.6 55.0072 1059.24 L55.0072 1054.61 Z" fill="#000000" fill-rule="nonzero" fill-opacity="1" /><path clip-path="url(#clip420)" d="M68.5199 1023.62 L73.5546 1023.62 Q72.3972 1025.87 71.8185 1028.3 Q71.2398 1030.73 71.2398 1033.34 Q71.2398 1037.3 72.4551 1039.3 Q73.6703 1041.27 76.1009 1041.27 Q77.9527 1041.27 79.0233 1039.85 Q80.065 1038.43 81.0198 1034.15 L81.4249 1032.33 Q82.6402 1026.65 84.8682 1024.28 Q87.0673 1021.88 91.0314 1021.88 Q95.5452 1021.88 98.1783 1025.47 Q100.811 1029.03 100.811 1035.28 Q100.811 1037.88 100.291 1040.72 Q99.7987 1043.52 98.7859 1046.65 L93.2883 1046.65 Q94.8218 1043.7 95.6031 1040.83 Q96.3554 1037.97 96.3554 1035.16 Q96.3554 1031.4 95.0823 1029.37 Q93.7802 1027.35 91.4364 1027.35 Q89.2663 1027.35 88.1089 1028.82 Q86.9515 1030.27 85.8809 1035.22 L85.4469 1037.07 Q84.4052 1042.02 82.264 1044.22 Q80.0939 1046.42 76.3324 1046.42 Q71.7606 1046.42 69.2722 1043.18 Q66.7838 1039.94 66.7838 1033.98 Q66.7838 1031.02 67.2178 1028.42 Q67.6519 1025.82 68.5199 1023.62 Z" fill="#000000" fill-rule="nonzero" fill-opacity="1" /><path clip-path="url(#clip420)" d="M55.0072 1014.24 L55.0072 1009.61 Q61.8359 1005.27 68.3752 1003.13 Q74.9145 1000.96 81.3671 1000.96 Q87.8485 1000.96 94.4168 1003.13 Q100.985 1005.27 107.785 1009.61 L107.785 1014.24 Q101.159 1010.39 94.6193 1008.51 Q88.0511 1006.6 81.3671 1006.6 Q74.6831 1006.6 68.1727 1008.51 Q61.6623 1010.39 55.0072 1014.24 Z" fill="#000000" fill-rule="nonzero" fill-opacity="1" /><path clip-path="url(#clip420)" d="M994.213 125.969 L994.213 133.949 Q989.554 131.721 985.422 130.627 Q981.29 129.534 977.442 129.534 Q970.758 129.534 967.112 132.126 Q963.507 134.719 963.507 139.499 Q963.507 143.509 965.897 145.575 Q968.328 147.601 975.052 148.857 L979.994 149.869 Q989.149 151.611 993.484 156.027 Q997.859 160.402 997.859 167.774 Q997.859 176.565 991.944 181.102 Q986.071 185.639 974.688 185.639 Q970.394 185.639 965.532 184.667 Q960.712 183.694 955.527 181.79 L955.527 173.365 Q960.509 176.16 965.289 177.577 Q970.069 178.995 974.688 178.995 Q981.696 178.995 985.503 176.241 Q989.311 173.486 989.311 168.382 Q989.311 163.926 986.557 161.414 Q983.843 158.903 977.604 157.647 L972.622 156.675 Q963.467 154.852 959.375 150.963 Q955.284 147.074 955.284 140.147 Q955.284 132.126 960.914 127.508 Q966.586 122.89 976.51 122.89 Q980.764 122.89 985.179 123.66 Q989.595 124.43 994.213 125.969 Z" fill="#000000" fill-rule="nonzero" fill-opacity="1" /><path clip-path="url(#clip420)" d="M1027.88 144.32 Q1021.88 144.32 1018.4 149.019 Q1014.91 153.677 1014.91 161.819 Q1014.91 169.962 1018.36 174.661 Q1021.84 179.319 1027.88 179.319 Q1033.83 179.319 1037.31 174.62 Q1040.8 169.921 1040.8 161.819 Q1040.8 153.758 1037.31 149.059 Q1033.83 144.32 1027.88 144.32 M1027.88 138 Q1037.6 138 1043.15 144.32 Q1048.7 150.639 1048.7 161.819 Q1048.7 172.959 1043.15 179.319 Q1037.6 185.639 1027.88 185.639 Q1018.11 185.639 1012.56 179.319 Q1007.05 172.959 1007.05 161.819 Q1007.05 150.639 1012.56 144.32 Q1018.11 138 1027.88 138 Z" fill="#000000" fill-rule="nonzero" fill-opacity="1" /><path clip-path="url(#clip420)" d="M1061.05 121.432 L1068.51 121.432 L1068.51 184.464 L1061.05 184.464 L1061.05 121.432 Z" fill="#000000" fill-rule="nonzero" fill-opacity="1" /><path clip-path="url(#clip420)" d="M1078.76 139.094 L1086.65 139.094 L1100.83 177.172 L1115.01 139.094 L1122.91 139.094 L1105.9 184.464 L1095.77 184.464 L1078.76 139.094 Z" fill="#000000" fill-rule="nonzero" fill-opacity="1" /><path clip-path="url(#clip420)" d="M1172.01 159.916 L1172.01 163.561 L1137.74 163.561 Q1138.22 171.258 1142.35 175.309 Q1146.53 179.319 1153.94 179.319 Q1158.23 179.319 1162.24 178.266 Q1166.3 177.213 1170.27 175.106 L1170.27 182.155 Q1166.25 183.856 1162.04 184.748 Q1157.83 185.639 1153.49 185.639 Q1142.64 185.639 1136.28 179.319 Q1129.96 173 1129.96 162.225 Q1129.96 151.085 1135.95 144.563 Q1141.99 138 1152.2 138 Q1161.35 138 1166.66 143.914 Q1172.01 149.788 1172.01 159.916 M1164.55 157.728 Q1164.47 151.611 1161.11 147.965 Q1157.79 144.32 1152.28 144.32 Q1146.04 144.32 1142.27 147.844 Q1138.55 151.368 1137.98 157.769 L1164.55 157.728 Z" fill="#000000" fill-rule="nonzero" fill-opacity="1" /><path clip-path="url(#clip420)" d="M1217.98 126.212 L1217.98 139.094 L1233.34 139.094 L1233.34 144.887 L1217.98 144.887 L1217.98 169.516 Q1217.98 175.066 1219.48 176.646 Q1221.02 178.226 1225.68 178.226 L1233.34 178.226 L1233.34 184.464 L1225.68 184.464 Q1217.05 184.464 1213.77 181.264 Q1210.49 178.023 1210.49 169.516 L1210.49 144.887 L1205.02 144.887 L1205.02 139.094 L1210.49 139.094 L1210.49 126.212 L1217.98 126.212 Z" fill="#000000" fill-rule="nonzero" fill-opacity="1" /><path clip-path="url(#clip420)" d="M1243.14 139.094 L1250.59 139.094 L1250.59 184.464 L1243.14 184.464 L1243.14 139.094 M1243.14 121.432 L1250.59 121.432 L1250.59 130.871 L1243.14 130.871 L1243.14 121.432 Z" fill="#000000" fill-rule="nonzero" fill-opacity="1" /><path clip-path="url(#clip420)" d="M1301.51 147.803 Q1304.31 142.78 1308.2 140.39 Q1312.09 138 1317.35 138 Q1324.44 138 1328.29 142.983 Q1332.14 147.925 1332.14 157.08 L1332.14 184.464 L1324.65 184.464 L1324.65 157.323 Q1324.65 150.801 1322.34 147.641 Q1320.03 144.482 1315.29 144.482 Q1309.49 144.482 1306.13 148.33 Q1302.77 152.178 1302.77 158.822 L1302.77 184.464 L1295.28 184.464 L1295.28 157.323 Q1295.28 150.76 1292.97 147.641 Q1290.66 144.482 1285.84 144.482 Q1280.13 144.482 1276.76 148.37 Q1273.4 152.219 1273.4 158.822 L1273.4 184.464 L1265.91 184.464 L1265.91 139.094 L1273.4 139.094 L1273.4 146.142 Q1275.95 141.97 1279.52 139.985 Q1283.08 138 1287.98 138 Q1292.93 138 1296.37 140.512 Q1299.85 143.023 1301.51 147.803 Z" fill="#000000" fill-rule="nonzero" fill-opacity="1" /><path clip-path="url(#clip420)" d="M1385.81 159.916 L1385.81 163.561 L1351.54 163.561 Q1352.03 171.258 1356.16 175.309 Q1360.33 179.319 1367.75 179.319 Q1372.04 179.319 1376.05 178.266 Q1380.1 177.213 1384.07 175.106 L1384.07 182.155 Q1380.06 183.856 1375.85 184.748 Q1371.64 185.639 1367.3 185.639 Q1356.44 185.639 1350.08 179.319 Q1343.77 173 1343.77 162.225 Q1343.77 151.085 1349.76 144.563 Q1355.8 138 1366 138 Q1375.16 138 1380.47 143.914 Q1385.81 149.788 1385.81 159.916 M1378.36 157.728 Q1378.28 151.611 1374.92 147.965 Q1371.6 144.32 1366.09 144.32 Q1359.85 144.32 1356.08 147.844 Q1352.35 151.368 1351.79 157.769 L1378.36 157.728 Z" fill="#000000" fill-rule="nonzero" fill-opacity="1" /><path clip-path="url(#clip420)" d="M1419.07 139.094 L1426.97 139.094 L1441.15 177.172 L1455.33 139.094 L1463.23 139.094 L1446.21 184.464 L1436.09 184.464 L1419.07 139.094 Z" fill="#000000" fill-rule="nonzero" fill-opacity="1" /><path clip-path="url(#clip420)" d="M1502.44 140.431 L1502.44 147.479 Q1499.28 145.859 1495.88 145.049 Q1492.47 144.239 1488.83 144.239 Q1483.28 144.239 1480.48 145.94 Q1477.73 147.641 1477.73 151.044 Q1477.73 153.637 1479.71 155.135 Q1481.7 156.594 1487.69 157.931 L1490.25 158.498 Q1498.19 160.199 1501.51 163.318 Q1504.87 166.397 1504.87 171.947 Q1504.87 178.266 1499.85 181.952 Q1494.86 185.639 1486.11 185.639 Q1482.47 185.639 1478.5 184.91 Q1474.57 184.221 1470.19 182.803 L1470.19 175.106 Q1474.33 177.253 1478.34 178.347 Q1482.35 179.4 1486.28 179.4 Q1491.54 179.4 1494.38 177.618 Q1497.21 175.795 1497.21 172.514 Q1497.21 169.476 1495.15 167.855 Q1493.12 166.235 1486.2 164.736 L1483.6 164.128 Q1476.68 162.67 1473.6 159.672 Q1470.52 156.634 1470.52 151.368 Q1470.52 144.968 1475.06 141.484 Q1479.59 138 1487.94 138 Q1492.07 138 1495.71 138.608 Q1499.36 139.215 1502.44 140.431 Z" fill="#000000" fill-rule="nonzero" fill-opacity="1" /><path clip-path="url(#clip420)" d="M1572.97 161.252 Q1572.97 153.151 1569.6 148.695 Q1566.28 144.239 1560.25 144.239 Q1554.25 144.239 1550.89 148.695 Q1547.57 153.151 1547.57 161.252 Q1547.57 169.314 1550.89 173.77 Q1554.25 178.226 1560.25 178.226 Q1566.28 178.226 1569.6 173.77 Q1572.97 169.314 1572.97 161.252 M1580.42 178.833 Q1580.42 190.419 1575.27 196.05 Q1570.13 201.721 1559.52 201.721 Q1555.59 201.721 1552.1 201.113 Q1548.62 200.546 1545.34 199.331 L1545.34 192.08 Q1548.62 193.862 1551.82 194.713 Q1555.02 195.563 1558.34 195.563 Q1565.67 195.563 1569.32 191.715 Q1572.97 187.907 1572.97 180.17 L1572.97 176.484 Q1570.66 180.494 1567.05 182.479 Q1563.45 184.464 1558.42 184.464 Q1550.08 184.464 1544.97 178.104 Q1539.87 171.744 1539.87 161.252 Q1539.87 150.72 1544.97 144.36 Q1550.08 138 1558.42 138 Q1563.45 138 1567.05 139.985 Q1570.66 141.97 1572.97 145.98 L1572.97 139.094 L1580.42 139.094 L1580.42 178.833 Z" fill="#000000" fill-rule="nonzero" fill-opacity="1" /><path clip-path="url(#clip420)" d="M1622.06 146.061 Q1620.81 145.332 1619.31 145.008 Q1617.85 144.644 1616.07 144.644 Q1609.75 144.644 1606.35 148.776 Q1602.98 152.867 1602.98 160.564 L1602.98 184.464 L1595.49 184.464 L1595.49 139.094 L1602.98 139.094 L1602.98 146.142 Q1605.33 142.011 1609.1 140.026 Q1612.87 138 1618.25 138 Q1619.02 138 1619.96 138.122 Q1620.89 138.203 1622.02 138.405 L1622.06 146.061 Z" fill="#000000" fill-rule="nonzero" fill-opacity="1" /><path clip-path="url(#clip420)" d="M1629.88 139.094 L1637.33 139.094 L1637.33 184.464 L1629.88 184.464 L1629.88 139.094 M1629.88 121.432 L1637.33 121.432 L1637.33 130.871 L1629.88 130.871 L1629.88 121.432 Z" fill="#000000" fill-rule="nonzero" fill-opacity="1" /><path clip-path="url(#clip420)" d="M1682.79 145.98 L1682.79 121.432 L1690.24 121.432 L1690.24 184.464 L1682.79 184.464 L1682.79 177.658 Q1680.44 181.709 1676.83 183.694 Q1673.27 185.639 1668.24 185.639 Q1660.02 185.639 1654.83 179.076 Q1649.69 172.514 1649.69 161.819 Q1649.69 151.125 1654.83 144.563 Q1660.02 138 1668.24 138 Q1673.27 138 1676.83 139.985 Q1680.44 141.93 1682.79 145.98 M1657.39 161.819 Q1657.39 170.043 1660.75 174.742 Q1664.15 179.4 1670.07 179.4 Q1675.98 179.4 1679.38 174.742 Q1682.79 170.043 1682.79 161.819 Q1682.79 153.596 1679.38 148.938 Q1675.98 144.239 1670.07 144.239 Q1664.15 144.239 1660.75 148.938 Q1657.39 153.596 1657.39 161.819 Z" fill="#000000" fill-rule="nonzero" fill-opacity="1" /><path clip-path="url(#clip420)" d="M1760.89 140.431 L1760.89 147.479 Q1757.73 145.859 1754.32 145.049 Q1750.92 144.239 1747.28 144.239 Q1741.73 144.239 1738.93 145.94 Q1736.18 147.641 1736.18 151.044 Q1736.18 153.637 1738.16 155.135 Q1740.15 156.594 1746.14 157.931 L1748.69 158.498 Q1756.63 160.199 1759.96 163.318 Q1763.32 166.397 1763.32 171.947 Q1763.32 178.266 1758.29 181.952 Q1753.31 185.639 1744.56 185.639 Q1740.92 185.639 1736.95 184.91 Q1733.02 184.221 1728.64 182.803 L1728.64 175.106 Q1732.77 177.253 1736.78 178.347 Q1740.79 179.4 1744.72 179.4 Q1749.99 179.4 1752.83 177.618 Q1755.66 175.795 1755.66 172.514 Q1755.66 169.476 1753.6 167.855 Q1751.57 166.235 1744.64 164.736 L1742.05 164.128 Q1735.12 162.67 1732.04 159.672 Q1728.97 156.634 1728.97 151.368 Q1728.97 144.968 1733.5 141.484 Q1738.04 138 1746.38 138 Q1750.52 138 1754.16 138.608 Q1757.81 139.215 1760.89 140.431 Z" fill="#000000" fill-rule="nonzero" fill-opacity="1" /><path clip-path="url(#clip420)" d="M1775.19 139.094 L1782.64 139.094 L1782.64 184.464 L1775.19 184.464 L1775.19 139.094 M1775.19 121.432 L1782.64 121.432 L1782.64 130.871 L1775.19 130.871 L1775.19 121.432 Z" fill="#000000" fill-rule="nonzero" fill-opacity="1" /><path clip-path="url(#clip420)" d="M1795 139.094 L1830.4 139.094 L1830.4 145.899 L1802.37 178.509 L1830.4 178.509 L1830.4 184.464 L1793.98 184.464 L1793.98 177.658 L1822.02 145.049 L1795 145.049 L1795 139.094 Z" fill="#000000" fill-rule="nonzero" fill-opacity="1" /><path clip-path="url(#clip420)" d="M1880.59 159.916 L1880.59 163.561 L1846.32 163.561 Q1846.81 171.258 1850.94 175.309 Q1855.11 179.319 1862.52 179.319 Q1866.82 179.319 1870.83 178.266 Q1874.88 177.213 1878.85 175.106 L1878.85 182.155 Q1874.84 183.856 1870.63 184.748 Q1866.41 185.639 1862.08 185.639 Q1851.22 185.639 1844.86 179.319 Q1838.54 173 1838.54 162.225 Q1838.54 151.085 1844.54 144.563 Q1850.57 138 1860.78 138 Q1869.94 138 1875.24 143.914 Q1880.59 149.788 1880.59 159.916 M1873.14 157.728 Q1873.06 151.611 1869.69 147.965 Q1866.37 144.32 1860.86 144.32 Q1854.62 144.32 1850.86 147.844 Q1847.13 151.368 1846.56 157.769 L1873.14 157.728 Z" fill="#000000" fill-rule="nonzero" fill-opacity="1" /><path clip-path="url(#clip420)" d="M1937.1 121.513 Q1931.67 130.83 1929.04 139.945 Q1926.41 149.059 1926.41 158.417 Q1926.41 167.774 1929.04 176.97 Q1931.71 186.125 1937.1 195.401 L1930.62 195.401 Q1924.54 185.882 1921.51 176.686 Q1918.51 167.491 1918.51 158.417 Q1918.51 149.383 1921.51 140.228 Q1924.5 131.073 1930.62 121.513 L1937.1 121.513 Z" fill="#000000" fill-rule="nonzero" fill-opacity="1" /><path clip-path="url(#clip420)" d="M1984.13 161.819 Q1984.13 153.596 1980.73 148.938 Q1977.37 144.239 1971.45 144.239 Q1965.54 144.239 1962.14 148.938 Q1958.77 153.596 1958.77 161.819 Q1958.77 170.043 1962.14 174.742 Q1965.54 179.4 1971.45 179.4 Q1977.37 179.4 1980.73 174.742 Q1984.13 170.043 1984.13 161.819 M1958.77 145.98 Q1961.12 141.93 1964.69 139.985 Q1968.29 138 1973.28 138 Q1981.54 138 1986.68 144.563 Q1991.87 151.125 1991.87 161.819 Q1991.87 172.514 1986.68 179.076 Q1981.54 185.639 1973.28 185.639 Q1968.29 185.639 1964.69 183.694 Q1961.12 181.709 1958.77 177.658 L1958.77 184.464 L1951.28 184.464 L1951.28 121.432 L1958.77 121.432 L1958.77 145.98 Z" fill="#000000" fill-rule="nonzero" fill-opacity="1" /><path clip-path="url(#clip420)" d="M2024.84 161.657 Q2015.81 161.657 2012.33 163.723 Q2008.84 165.789 2008.84 170.772 Q2008.84 174.742 2011.44 177.091 Q2014.07 179.4 2018.57 179.4 Q2024.76 179.4 2028.49 175.025 Q2032.26 170.61 2032.26 163.318 L2032.26 161.657 L2024.84 161.657 M2039.71 158.579 L2039.71 184.464 L2032.26 184.464 L2032.26 177.577 Q2029.71 181.709 2025.9 183.694 Q2022.09 185.639 2016.58 185.639 Q2009.61 185.639 2005.48 181.75 Q2001.39 177.821 2001.39 171.258 Q2001.39 163.602 2006.49 159.713 Q2011.64 155.824 2021.81 155.824 L2032.26 155.824 L2032.26 155.095 Q2032.26 149.95 2028.85 147.155 Q2025.49 144.32 2019.38 144.32 Q2015.49 144.32 2011.8 145.251 Q2008.11 146.183 2004.71 148.046 L2004.71 141.16 Q2008.8 139.58 2012.65 138.81 Q2016.5 138 2020.14 138 Q2029.99 138 2034.85 143.104 Q2039.71 148.208 2039.71 158.579 Z" fill="#000000" fill-rule="nonzero" fill-opacity="1" /><path clip-path="url(#clip420)" d="M2081.35 146.061 Q2080.1 145.332 2078.6 145.008 Q2077.14 144.644 2075.36 144.644 Q2069.04 144.644 2065.64 148.776 Q2062.27 152.867 2062.27 160.564 L2062.27 184.464 L2054.78 184.464 L2054.78 139.094 L2062.27 139.094 L2062.27 146.142 Q2064.62 142.011 2068.39 140.026 Q2072.16 138 2077.55 138 Q2078.32 138 2079.25 138.122 Q2080.18 138.203 2081.31 138.405 L2081.35 146.061 Z" fill="#000000" fill-rule="nonzero" fill-opacity="1" /><path clip-path="url(#clip420)" d="M2088 121.513 L2094.48 121.513 Q2100.56 131.073 2103.55 140.228 Q2106.59 149.383 2106.59 158.417 Q2106.59 167.491 2103.55 176.686 Q2100.56 185.882 2094.48 195.401 L2088 195.401 Q2093.39 186.125 2096.02 176.97 Q2098.69 167.774 2098.69 158.417 Q2098.69 149.059 2096.02 139.945 Q2093.39 130.83 2088 121.513 Z" fill="#000000" fill-rule="nonzero" fill-opacity="1" /><path clip-path="url(#clip420)" d="M2144.14 158.822 L2219 158.822 L2219 164.655 L2144.14 164.655 L2144.14 158.822 Z" fill="#000000" fill-rule="nonzero" fill-opacity="1" /><path clip-path="url(#clip420)" d="M2296.05 159.916 L2296.05 163.561 L2261.78 163.561 Q2262.27 171.258 2266.4 175.309 Q2270.57 179.319 2277.98 179.319 Q2282.28 179.319 2286.29 178.266 Q2290.34 177.213 2294.31 175.106 L2294.31 182.155 Q2290.3 183.856 2286.09 184.748 Q2281.87 185.639 2277.54 185.639 Q2266.68 185.639 2260.32 179.319 Q2254 173 2254 162.225 Q2254 151.085 2260 144.563 Q2266.03 138 2276.24 138 Q2285.4 138 2290.7 143.914 Q2296.05 149.788 2296.05 159.916 M2288.6 157.728 Q2288.52 151.611 2285.16 147.965 Q2281.83 144.32 2276.32 144.32 Q2270.09 144.32 2266.32 147.844 Q2262.59 151.368 2262.02 157.769 L2288.6 157.728 Z" fill="#000000" fill-rule="nonzero" fill-opacity="1" /><path clip-path="url(#clip420)" d="M2308.29 121.432 L2315.74 121.432 L2315.74 184.464 L2308.29 184.464 L2308.29 121.432 Z" fill="#000000" fill-rule="nonzero" fill-opacity="1" /><path clip-path="url(#clip420)" d="M2370.14 159.916 L2370.14 163.561 L2335.87 163.561 Q2336.36 171.258 2340.49 175.309 Q2344.66 179.319 2352.08 179.319 Q2356.37 179.319 2360.38 178.266 Q2364.43 177.213 2368.4 175.106 L2368.4 182.155 Q2364.39 183.856 2360.18 184.748 Q2355.96 185.639 2351.63 185.639 Q2340.77 185.639 2334.41 179.319 Q2328.09 173 2328.09 162.225 Q2328.09 151.085 2334.09 144.563 Q2340.13 138 2350.33 138 Q2359.49 138 2364.8 143.914 Q2370.14 149.788 2370.14 159.916 M2362.69 157.728 Q2362.61 151.611 2359.25 147.965 Q2355.92 144.32 2350.42 144.32 Q2344.18 144.32 2340.41 147.844 Q2336.68 151.368 2336.12 157.769 L2362.69 157.728 Z" fill="#000000" fill-rule="nonzero" fill-opacity="1" /><path clip-path="url(#clip420)" d="M2415.03 140.836 L2415.03 147.803 Q2411.87 146.061 2408.67 145.211 Q2405.51 144.32 2402.27 144.32 Q2395.02 144.32 2391.01 148.938 Q2386.99 153.515 2386.99 161.819 Q2386.99 170.124 2391.01 174.742 Q2395.02 179.319 2402.27 179.319 Q2405.51 179.319 2408.67 178.469 Q2411.87 177.577 2415.03 175.836 L2415.03 182.722 Q2411.91 184.18 2408.55 184.91 Q2405.22 185.639 2401.46 185.639 Q2391.21 185.639 2385.17 179.198 Q2379.14 172.757 2379.14 161.819 Q2379.14 150.72 2385.21 144.36 Q2391.33 138 2401.94 138 Q2405.39 138 2408.67 138.729 Q2411.95 139.418 2415.03 140.836 Z" fill="#000000" fill-rule="nonzero" fill-opacity="1" /><path clip-path="url(#clip420)" d="M2435.36 126.212 L2435.36 139.094 L2450.72 139.094 L2450.72 144.887 L2435.36 144.887 L2435.36 169.516 Q2435.36 175.066 2436.86 176.646 Q2438.4 178.226 2443.06 178.226 L2450.72 178.226 L2450.72 184.464 L2443.06 184.464 Q2434.43 184.464 2431.15 181.264 Q2427.87 178.023 2427.87 169.516 L2427.87 144.887 L2422.4 144.887 L2422.4 139.094 L2427.87 139.094 L2427.87 126.212 L2435.36 126.212 Z" fill="#000000" fill-rule="nonzero" fill-opacity="1" /><path clip-path="url(#clip420)" d="M2486.81 146.061 Q2485.55 145.332 2484.05 145.008 Q2482.6 144.644 2480.81 144.644 Q2474.49 144.644 2471.09 148.776 Q2467.73 152.867 2467.73 160.564 L2467.73 184.464 L2460.24 184.464 L2460.24 139.094 L2467.73 139.094 L2467.73 146.142 Q2470.08 142.011 2473.85 140.026 Q2477.61 138 2483 138 Q2483.77 138 2484.7 138.122 Q2485.63 138.203 2486.77 138.405 L2486.81 146.061 Z" fill="#000000" fill-rule="nonzero" fill-opacity="1" /><path clip-path="url(#clip420)" d="M2494.63 139.094 L2502.08 139.094 L2502.08 184.464 L2494.63 184.464 L2494.63 139.094 M2494.63 121.432 L2502.08 121.432 L2502.08 130.871 L2494.63 130.871 L2494.63 121.432 Z" fill="#000000" fill-rule="nonzero" fill-opacity="1" /><path clip-path="url(#clip420)" d="M2550.33 140.836 L2550.33 147.803 Q2547.17 146.061 2543.97 145.211 Q2540.81 144.32 2537.57 144.32 Q2530.32 144.32 2526.31 148.938 Q2522.29 153.515 2522.29 161.819 Q2522.29 170.124 2526.31 174.742 Q2530.32 179.319 2537.57 179.319 Q2540.81 179.319 2543.97 178.469 Q2547.17 177.577 2550.33 175.836 L2550.33 182.722 Q2547.21 184.18 2543.85 184.91 Q2540.52 185.639 2536.76 185.639 Q2526.51 185.639 2520.47 179.198 Q2514.44 172.757 2514.44 161.819 Q2514.44 150.72 2520.51 144.36 Q2526.63 138 2537.24 138 Q2540.69 138 2543.97 138.729 Q2547.25 139.418 2550.33 140.836 Z" fill="#000000" fill-rule="nonzero" fill-opacity="1" /><path clip-path="url(#clip420)" d="M2597.76 198.237 L2597.76 204.03 L2554.66 204.03 L2554.66 198.237 L2597.76 198.237 Z" fill="#000000" fill-rule="nonzero" fill-opacity="1" /><path clip-path="url(#clip420)" d="M2599.42 139.094 L2607.32 139.094 L2621.5 177.172 L2635.68 139.094 L2643.58 139.094 L2626.57 184.464 L2616.44 184.464 L2599.42 139.094 Z" fill="#000000" fill-rule="nonzero" fill-opacity="1" /><path clip-path="url(#clip420)" d="M2692.68 159.916 L2692.68 163.561 L2658.41 163.561 Q2658.89 171.258 2663.02 175.309 Q2667.2 179.319 2674.61 179.319 Q2678.9 179.319 2682.91 178.266 Q2686.96 177.213 2690.93 175.106 L2690.93 182.155 Q2686.92 183.856 2682.71 184.748 Q2678.5 185.639 2674.16 185.639 Q2663.31 185.639 2656.95 179.319 Q2650.63 173 2650.63 162.225 Q2650.63 151.085 2656.62 144.563 Q2662.66 138 2672.87 138 Q2682.02 138 2687.33 143.914 Q2692.68 149.788 2692.68 159.916 M2685.22 157.728 Q2685.14 151.611 2681.78 147.965 Q2678.46 144.32 2672.95 144.32 Q2666.71 144.32 2662.94 147.844 Q2659.22 151.368 2658.65 157.769 L2685.22 157.728 Z" fill="#000000" fill-rule="nonzero" fill-opacity="1" /><path clip-path="url(#clip420)" d="M2742.62 157.08 L2742.62 184.464 L2735.17 184.464 L2735.17 157.323 Q2735.17 150.882 2732.66 147.682 Q2730.15 144.482 2725.12 144.482 Q2719.09 144.482 2715.6 148.33 Q2712.12 152.178 2712.12 158.822 L2712.12 184.464 L2704.63 184.464 L2704.63 121.432 L2712.12 121.432 L2712.12 146.142 Q2714.79 142.051 2718.4 140.026 Q2722.05 138 2726.78 138 Q2734.6 138 2738.61 142.861 Q2742.62 147.682 2742.62 157.08 Z" fill="#000000" fill-rule="nonzero" fill-opacity="1" /><path clip-path="url(#clip420)" d="M2757.49 139.094 L2764.94 139.094 L2764.94 184.464 L2757.49 184.464 L2757.49 139.094 M2757.49 121.432 L2764.94 121.432 L2764.94 130.871 L2757.49 130.871 L2757.49 121.432 Z" fill="#000000" fill-rule="nonzero" fill-opacity="1" /><path clip-path="url(#clip420)" d="M2813.19 140.836 L2813.19 147.803 Q2810.03 146.061 2806.83 145.211 Q2803.67 144.32 2800.43 144.32 Q2793.18 144.32 2789.17 148.938 Q2785.16 153.515 2785.16 161.819 Q2785.16 170.124 2789.17 174.742 Q2793.18 179.319 2800.43 179.319 Q2803.67 179.319 2806.83 178.469 Q2810.03 177.577 2813.19 175.836 L2813.19 182.722 Q2810.07 184.18 2806.71 184.91 Q2803.39 185.639 2799.62 185.639 Q2789.37 185.639 2783.34 179.198 Q2777.3 172.757 2777.3 161.819 Q2777.3 150.72 2783.38 144.36 Q2789.49 138 2800.11 138 Q2803.55 138 2806.83 138.729 Q2810.11 139.418 2813.19 140.836 Z" fill="#000000" fill-rule="nonzero" fill-opacity="1" /><path clip-path="url(#clip420)" d="M2826.15 121.432 L2833.61 121.432 L2833.61 184.464 L2826.15 184.464 L2826.15 121.432 Z" fill="#000000" fill-rule="nonzero" fill-opacity="1" /><path clip-path="url(#clip420)" d="M2888.01 159.916 L2888.01 163.561 L2853.74 163.561 Q2854.23 171.258 2858.36 175.309 Q2862.53 179.319 2869.94 179.319 Q2874.24 179.319 2878.25 178.266 Q2882.3 177.213 2886.27 175.106 L2886.27 182.155 Q2882.26 183.856 2878.05 184.748 Q2873.83 185.639 2869.5 185.639 Q2858.64 185.639 2852.28 179.319 Q2845.96 173 2845.96 162.225 Q2845.96 151.085 2851.96 144.563 Q2857.99 138 2868.2 138 Q2877.36 138 2882.66 143.914 Q2888.01 149.788 2888.01 159.916 M2880.56 157.728 Q2880.48 151.611 2877.11 147.965 Q2873.79 144.32 2868.28 144.32 Q2862.04 144.32 2858.28 147.844 Q2854.55 151.368 2853.98 157.769 L2880.56 157.728 Z" fill="#000000" fill-rule="nonzero" fill-opacity="1" /><path clip-path="url(#clip422)" d="M461.842 2112.56 L461.842 2156.51 L634.067 2156.51 L634.067 2112.56 L461.842 2112.56 L461.842 2112.56  Z" fill="#ffa500" fill-rule="evenodd" fill-opacity="1"/>
<polyline clip-path="url(#clip422)" style="stroke:#000000; stroke-linecap:round; stroke-linejoin:round; stroke-width:0; stroke-opacity:0; fill:none" points="461.842,2112.56 461.842,2156.51 634.067,2156.51 634.067,2112.56 461.842,2112.56 "/>
<path clip-path="url(#clip422)" d="M1281.96 1736.05 L1281.96 2156.51 L1454.18 2156.51 L1454.18 1736.05 L1281.96 1736.05 L1281.96 1736.05  Z" fill="#ffa500" fill-rule="evenodd" fill-opacity="1"/>
<polyline clip-path="url(#clip422)" style="stroke:#000000; stroke-linecap:round; stroke-linejoin:round; stroke-width:0; stroke-opacity:0; fill:none" points="1281.96,1736.05 1281.96,2156.51 1454.18,2156.51 1454.18,1736.05 1281.96,1736.05 "/>
<path clip-path="url(#clip422)" d="M2102.07 1237.8 L2102.07 2156.51 L2274.3 2156.51 L2274.3 1237.8 L2102.07 1237.8 L2102.07 1237.8  Z" fill="#ffa500" fill-rule="evenodd" fill-opacity="1"/>
<polyline clip-path="url(#clip422)" style="stroke:#000000; stroke-linecap:round; stroke-linejoin:round; stroke-width:0; stroke-opacity:0; fill:none" points="2102.07,1237.8 2102.07,2156.51 2274.3,2156.51 2274.3,1237.8 2102.07,1237.8 "/>
<path clip-path="url(#clip422)" d="M2922.19 246.944 L2922.19 2156.51 L3094.41 2156.51 L3094.41 246.944 L2922.19 246.944 L2922.19 246.944  Z" fill="#ffa500" fill-rule="evenodd" fill-opacity="1"/>
<polyline clip-path="url(#clip422)" style="stroke:#000000; stroke-linecap:round; stroke-linejoin:round; stroke-width:0; stroke-opacity:0; fill:none" points="2922.19,246.944 2922.19,2156.51 3094.41,2156.51 3094.41,246.944 2922.19,246.944 "/>
<circle clip-path="url(#clip422)" style="fill:#ffa500; stroke:none; fill-opacity:0" cx="547.954" cy="2112.56" r="2"/>
<circle clip-path="url(#clip422)" style="fill:#ffa500; stroke:none; fill-opacity:0" cx="1368.07" cy="1736.05" r="2"/>
<circle clip-path="url(#clip422)" style="fill:#ffa500; stroke:none; fill-opacity:0" cx="2188.18" cy="1237.8" r="2"/>
<circle clip-path="url(#clip422)" style="fill:#ffa500; stroke:none; fill-opacity:0" cx="3008.3" cy="246.944" r="2"/>
<path clip-path="url(#clip422)" d="M748.883 1899.11 L748.883 2156.51 L921.107 2156.51 L921.107 1899.11 L748.883 1899.11 L748.883 1899.11  Z" fill="#00ffff" fill-rule="evenodd" fill-opacity="1"/>
<polyline clip-path="url(#clip422)" style="stroke:#000000; stroke-linecap:round; stroke-linejoin:round; stroke-width:0; stroke-opacity:0; fill:none" points="748.883,1899.11 748.883,2156.51 921.107,2156.51 921.107,1899.11 748.883,1899.11 "/>
<path clip-path="url(#clip422)" d="M1569 1843.38 L1569 2156.51 L1741.22 2156.51 L1741.22 1843.38 L1569 1843.38 L1569 1843.38  Z" fill="#00ffff" fill-rule="evenodd" fill-opacity="1"/>
<polyline clip-path="url(#clip422)" style="stroke:#000000; stroke-linecap:round; stroke-linejoin:round; stroke-width:0; stroke-opacity:0; fill:none" points="1569,1843.38 1569,2156.51 1741.22,2156.51 1741.22,1843.38 1569,1843.38 "/>
<path clip-path="url(#clip422)" d="M2389.11 1790.46 L2389.11 2156.51 L2561.34 2156.51 L2561.34 1790.46 L2389.11 1790.46 L2389.11 1790.46  Z" fill="#00ffff" fill-rule="evenodd" fill-opacity="1"/>
<polyline clip-path="url(#clip422)" style="stroke:#000000; stroke-linecap:round; stroke-linejoin:round; stroke-width:0; stroke-opacity:0; fill:none" points="2389.11,1790.46 2389.11,2156.51 2561.34,2156.51 2561.34,1790.46 2389.11,1790.46 "/>
<path clip-path="url(#clip422)" d="M3209.23 1675.49 L3209.23 2156.51 L3381.45 2156.51 L3381.45 1675.49 L3209.23 1675.49 L3209.23 1675.49  Z" fill="#00ffff" fill-rule="evenodd" fill-opacity="1"/>
<polyline clip-path="url(#clip422)" style="stroke:#000000; stroke-linecap:round; stroke-linejoin:round; stroke-width:0; stroke-opacity:0; fill:none" points="3209.23,1675.49 3209.23,2156.51 3381.45,2156.51 3381.45,1675.49 3209.23,1675.49 "/>
<circle clip-path="url(#clip422)" style="fill:#00ffff; stroke:none; fill-opacity:0" cx="834.995" cy="1899.11" r="2"/>
<circle clip-path="url(#clip422)" style="fill:#00ffff; stroke:none; fill-opacity:0" cx="1655.11" cy="1843.38" r="2"/>
<circle clip-path="url(#clip422)" style="fill:#00ffff; stroke:none; fill-opacity:0" cx="2475.22" cy="1790.46" r="2"/>
<circle clip-path="url(#clip422)" style="fill:#00ffff; stroke:none; fill-opacity:0" cx="3295.34" cy="1675.49" r="2"/>
<path clip-path="url(#clip420)" d="M399.279 466.116 L1162.49 466.116 L1162.49 310.596 L399.279 310.596  Z" fill="#ffffff" fill-rule="evenodd" fill-opacity="1"/>
<polyline clip-path="url(#clip420)" style="stroke:#000000; stroke-linecap:round; stroke-linejoin:round; stroke-width:4; stroke-opacity:1; fill:none" points="399.279,466.116 1162.49,466.116 1162.49,310.596 399.279,310.596 399.279,466.116 "/>
<path clip-path="url(#clip420)" d="M435.526 383.172 L653.007 383.172 L653.007 341.7 L435.526 341.7 L435.526 383.172  Z" fill="#ffa500" fill-rule="evenodd" fill-opacity="1"/>
<polyline clip-path="url(#clip420)" style="stroke:#000000; stroke-linecap:round; stroke-linejoin:round; stroke-width:0.8; stroke-opacity:0; fill:none" points="435.526,383.172 653.007,383.172 653.007,341.7 435.526,341.7 435.526,383.172 "/>
<path clip-path="url(#clip420)" d="M699.879 343.744 Q696.777 349.068 695.272 354.277 Q693.768 359.485 693.768 364.832 Q693.768 370.179 695.272 375.434 Q696.8 380.665 699.879 385.966 L696.175 385.966 Q692.703 380.527 690.967 375.272 Q689.254 370.017 689.254 364.832 Q689.254 359.67 690.967 354.439 Q692.68 349.207 696.175 343.744 L699.879 343.744 Z" fill="#000000" fill-rule="nonzero" fill-opacity="1" /><path clip-path="url(#clip420)" d="M730.318 365.689 L730.318 367.772 L710.735 367.772 Q711.013 372.17 713.374 374.485 Q715.758 376.777 719.994 376.777 Q722.448 376.777 724.74 376.175 Q727.055 375.573 729.323 374.369 L729.323 378.397 Q727.031 379.369 724.624 379.878 Q722.217 380.388 719.74 380.388 Q713.536 380.388 709.902 376.777 Q706.291 373.165 706.291 367.008 Q706.291 360.642 709.717 356.916 Q713.166 353.166 718.999 353.166 Q724.231 353.166 727.263 356.545 Q730.318 359.902 730.318 365.689 M726.059 364.439 Q726.013 360.943 724.092 358.86 Q722.194 356.777 719.045 356.777 Q715.481 356.777 713.328 358.791 Q711.198 360.804 710.874 364.462 L726.059 364.439 Z" fill="#000000" fill-rule="nonzero" fill-opacity="1" /><path clip-path="url(#clip420)" d="M758.027 353.791 L748.652 366.406 L758.513 379.716 L753.49 379.716 L745.943 369.531 L738.397 379.716 L733.374 379.716 L743.443 366.152 L734.23 353.791 L739.254 353.791 L746.129 363.027 L753.004 353.791 L758.027 353.791 Z" fill="#000000" fill-rule="nonzero" fill-opacity="1" /><path clip-path="url(#clip420)" d="M776.314 366.684 Q771.152 366.684 769.161 367.865 Q767.17 369.045 767.17 371.892 Q767.17 374.161 768.652 375.503 Q770.156 376.823 772.726 376.823 Q776.267 376.823 778.397 374.323 Q780.55 371.8 780.55 367.633 L780.55 366.684 L776.314 366.684 M784.809 364.925 L784.809 379.716 L780.55 379.716 L780.55 375.781 Q779.091 378.142 776.915 379.277 Q774.74 380.388 771.591 380.388 Q767.61 380.388 765.249 378.165 Q762.911 375.92 762.911 372.17 Q762.911 367.795 765.828 365.573 Q768.767 363.351 774.577 363.351 L780.55 363.351 L780.55 362.934 Q780.55 359.994 778.605 358.397 Q776.684 356.777 773.189 356.777 Q770.966 356.777 768.86 357.309 Q766.753 357.841 764.809 358.906 L764.809 354.971 Q767.147 354.068 769.346 353.629 Q771.545 353.166 773.628 353.166 Q779.253 353.166 782.031 356.082 Q784.809 358.999 784.809 364.925 Z" fill="#000000" fill-rule="nonzero" fill-opacity="1" /><path clip-path="url(#clip420)" d="M794.67 373.837 L799.554 373.837 L799.554 377.818 L795.758 385.226 L792.772 385.226 L794.67 377.818 L794.67 373.837 Z" fill="#000000" fill-rule="nonzero" fill-opacity="1" /><path clip-path="url(#clip420)" d="M843.906 358.767 Q845.503 355.897 847.725 354.531 Q849.947 353.166 852.957 353.166 Q857.008 353.166 859.207 356.013 Q861.406 358.837 861.406 364.068 L861.406 379.716 L857.123 379.716 L857.123 364.207 Q857.123 360.48 855.804 358.675 Q854.484 356.869 851.776 356.869 Q848.466 356.869 846.545 359.068 Q844.623 361.267 844.623 365.064 L844.623 379.716 L840.341 379.716 L840.341 364.207 Q840.341 360.457 839.022 358.675 Q837.702 356.869 834.948 356.869 Q831.684 356.869 829.762 359.091 Q827.841 361.291 827.841 365.064 L827.841 379.716 L823.559 379.716 L823.559 353.791 L827.841 353.791 L827.841 357.818 Q829.299 355.434 831.336 354.3 Q833.373 353.166 836.174 353.166 Q838.998 353.166 840.966 354.601 Q842.957 356.036 843.906 358.767 Z" fill="#000000" fill-rule="nonzero" fill-opacity="1" /><path clip-path="url(#clip420)" d="M881.683 366.684 Q876.521 366.684 874.531 367.865 Q872.54 369.045 872.54 371.892 Q872.54 374.161 874.021 375.503 Q875.526 376.823 878.095 376.823 Q881.637 376.823 883.767 374.323 Q885.919 371.8 885.919 367.633 L885.919 366.684 L881.683 366.684 M890.179 364.925 L890.179 379.716 L885.919 379.716 L885.919 375.781 Q884.461 378.142 882.285 379.277 Q880.109 380.388 876.961 380.388 Q872.98 380.388 870.619 378.165 Q868.281 375.92 868.281 372.17 Q868.281 367.795 871.197 365.573 Q874.137 363.351 879.947 363.351 L885.919 363.351 L885.919 362.934 Q885.919 359.994 883.975 358.397 Q882.054 356.777 878.558 356.777 Q876.336 356.777 874.23 357.309 Q872.123 357.841 870.179 358.906 L870.179 354.971 Q872.517 354.068 874.716 353.629 Q876.915 353.166 878.998 353.166 Q884.623 353.166 887.401 356.082 Q890.179 358.999 890.179 364.925 Z" fill="#000000" fill-rule="nonzero" fill-opacity="1" /><path clip-path="url(#clip420)" d="M916.012 357.726 L916.012 343.698 L920.271 343.698 L920.271 379.716 L916.012 379.716 L916.012 375.827 Q914.669 378.142 912.609 379.277 Q910.572 380.388 907.702 380.388 Q903.003 380.388 900.04 376.638 Q897.1 372.888 897.1 366.777 Q897.1 360.666 900.04 356.916 Q903.003 353.166 907.702 353.166 Q910.572 353.166 912.609 354.3 Q914.669 355.411 916.012 357.726 M901.498 366.777 Q901.498 371.476 903.419 374.161 Q905.364 376.823 908.743 376.823 Q912.123 376.823 914.067 374.161 Q916.012 371.476 916.012 366.777 Q916.012 362.078 914.067 359.416 Q912.123 356.73 908.743 356.73 Q905.364 356.73 903.419 359.416 Q901.498 362.078 901.498 366.777 Z" fill="#000000" fill-rule="nonzero" fill-opacity="1" /><path clip-path="url(#clip420)" d="M950.595 364.068 L950.595 379.716 L946.336 379.716 L946.336 364.207 Q946.336 360.527 944.901 358.698 Q943.465 356.869 940.595 356.869 Q937.146 356.869 935.155 359.068 Q933.165 361.267 933.165 365.064 L933.165 379.716 L928.882 379.716 L928.882 353.791 L933.165 353.791 L933.165 357.818 Q934.692 355.48 936.753 354.323 Q938.836 353.166 941.544 353.166 Q946.012 353.166 948.303 355.943 Q950.595 358.698 950.595 364.068 Z" fill="#000000" fill-rule="nonzero" fill-opacity="1" /><path clip-path="url(#clip420)" d="M959.09 343.698 L963.35 343.698 L963.35 379.716 L959.09 379.716 L959.09 343.698 Z" fill="#000000" fill-rule="nonzero" fill-opacity="1" /><path clip-path="url(#clip420)" d="M976.382 375.827 L976.382 389.577 L972.1 389.577 L972.1 353.791 L976.382 353.791 L976.382 357.726 Q977.725 355.411 979.762 354.3 Q981.822 353.166 984.669 353.166 Q989.391 353.166 992.331 356.916 Q995.294 360.666 995.294 366.777 Q995.294 372.888 992.331 376.638 Q989.391 380.388 984.669 380.388 Q981.822 380.388 979.762 379.277 Q977.725 378.142 976.382 375.827 M990.873 366.777 Q990.873 362.078 988.928 359.416 Q987.007 356.73 983.627 356.73 Q980.248 356.73 978.303 359.416 Q976.382 362.078 976.382 366.777 Q976.382 371.476 978.303 374.161 Q980.248 376.823 983.627 376.823 Q987.007 376.823 988.928 374.161 Q990.873 371.476 990.873 366.777 Z" fill="#000000" fill-rule="nonzero" fill-opacity="1" /><path clip-path="url(#clip420)" d="M1001.68 343.744 L1005.39 343.744 Q1008.86 349.207 1010.57 354.439 Q1012.31 359.67 1012.31 364.832 Q1012.31 370.017 1010.57 375.272 Q1008.86 380.527 1005.39 385.966 L1001.68 385.966 Q1004.76 380.665 1006.27 375.434 Q1007.79 370.179 1007.79 364.832 Q1007.79 359.485 1006.27 354.277 Q1004.76 349.068 1001.68 343.744 Z" fill="#000000" fill-rule="nonzero" fill-opacity="1" /><path clip-path="url(#clip420)" d="M435.526 435.012 L653.007 435.012 L653.007 393.54 L435.526 393.54 L435.526 435.012  Z" fill="#00ffff" fill-rule="evenodd" fill-opacity="1"/>
<polyline clip-path="url(#clip420)" style="stroke:#000000; stroke-linecap:round; stroke-linejoin:round; stroke-width:0.8; stroke-opacity:0; fill:none" points="435.526,435.012 653.007,435.012 653.007,393.54 435.526,393.54 435.526,435.012 "/>
<path clip-path="url(#clip420)" d="M699.879 395.584 Q696.777 400.908 695.272 406.117 Q693.768 411.325 693.768 416.672 Q693.768 422.019 695.272 427.274 Q696.8 432.505 699.879 437.806 L696.175 437.806 Q692.703 432.367 690.967 427.112 Q689.254 421.857 689.254 416.672 Q689.254 411.51 690.967 406.279 Q692.68 401.047 696.175 395.584 L699.879 395.584 Z" fill="#000000" fill-rule="nonzero" fill-opacity="1" /><path clip-path="url(#clip420)" d="M730.318 417.529 L730.318 419.612 L710.735 419.612 Q711.013 424.01 713.374 426.325 Q715.758 428.617 719.994 428.617 Q722.448 428.617 724.74 428.015 Q727.055 427.413 729.323 426.209 L729.323 430.237 Q727.031 431.209 724.624 431.718 Q722.217 432.228 719.74 432.228 Q713.536 432.228 709.902 428.617 Q706.291 425.005 706.291 418.848 Q706.291 412.482 709.717 408.756 Q713.166 405.006 718.999 405.006 Q724.231 405.006 727.263 408.385 Q730.318 411.742 730.318 417.529 M726.059 416.279 Q726.013 412.783 724.092 410.7 Q722.194 408.617 719.045 408.617 Q715.481 408.617 713.328 410.631 Q711.198 412.644 710.874 416.302 L726.059 416.279 Z" fill="#000000" fill-rule="nonzero" fill-opacity="1" /><path clip-path="url(#clip420)" d="M758.027 405.631 L748.652 418.246 L758.513 431.556 L753.49 431.556 L745.943 421.371 L738.397 431.556 L733.374 431.556 L743.443 417.992 L734.23 405.631 L739.254 405.631 L746.129 414.867 L753.004 405.631 L758.027 405.631 Z" fill="#000000" fill-rule="nonzero" fill-opacity="1" /><path clip-path="url(#clip420)" d="M776.314 418.524 Q771.152 418.524 769.161 419.705 Q767.17 420.885 767.17 423.732 Q767.17 426.001 768.652 427.343 Q770.156 428.663 772.726 428.663 Q776.267 428.663 778.397 426.163 Q780.55 423.64 780.55 419.473 L780.55 418.524 L776.314 418.524 M784.809 416.765 L784.809 431.556 L780.55 431.556 L780.55 427.621 Q779.091 429.982 776.915 431.117 Q774.74 432.228 771.591 432.228 Q767.61 432.228 765.249 430.005 Q762.911 427.76 762.911 424.01 Q762.911 419.635 765.828 417.413 Q768.767 415.191 774.577 415.191 L780.55 415.191 L780.55 414.774 Q780.55 411.834 778.605 410.237 Q776.684 408.617 773.189 408.617 Q770.966 408.617 768.86 409.149 Q766.753 409.681 764.809 410.746 L764.809 406.811 Q767.147 405.908 769.346 405.469 Q771.545 405.006 773.628 405.006 Q779.253 405.006 782.031 407.922 Q784.809 410.839 784.809 416.765 Z" fill="#000000" fill-rule="nonzero" fill-opacity="1" /><path clip-path="url(#clip420)" d="M813.281 439.427 L813.281 442.737 L788.651 442.737 L788.651 439.427 L813.281 439.427 Z" fill="#000000" fill-rule="nonzero" fill-opacity="1" /><path clip-path="url(#clip420)" d="M834.346 418.293 Q834.346 413.663 832.424 411.117 Q830.526 408.57 827.077 408.57 Q823.651 408.57 821.73 411.117 Q819.832 413.663 819.832 418.293 Q819.832 422.899 821.73 425.445 Q823.651 427.992 827.077 427.992 Q830.526 427.992 832.424 425.445 Q834.346 422.899 834.346 418.293 M838.605 428.339 Q838.605 434.959 835.665 438.177 Q832.725 441.417 826.661 441.417 Q824.415 441.417 822.424 441.07 Q820.434 440.746 818.559 440.052 L818.559 435.908 Q820.434 436.927 822.262 437.413 Q824.091 437.899 825.989 437.899 Q830.179 437.899 832.262 435.7 Q834.346 433.524 834.346 429.103 L834.346 426.996 Q833.026 429.288 830.966 430.422 Q828.906 431.556 826.036 431.556 Q821.267 431.556 818.35 427.922 Q815.434 424.288 815.434 418.293 Q815.434 412.274 818.35 408.64 Q821.267 405.006 826.036 405.006 Q828.906 405.006 830.966 406.14 Q833.026 407.274 834.346 409.566 L834.346 405.631 L838.605 405.631 L838.605 428.339 Z" fill="#000000" fill-rule="nonzero" fill-opacity="1" /><path clip-path="url(#clip420)" d="M851.498 427.667 L851.498 441.417 L847.216 441.417 L847.216 405.631 L851.498 405.631 L851.498 409.566 Q852.841 407.251 854.878 406.14 Q856.938 405.006 859.785 405.006 Q864.508 405.006 867.447 408.756 Q870.41 412.506 870.41 418.617 Q870.41 424.728 867.447 428.478 Q864.508 432.228 859.785 432.228 Q856.938 432.228 854.878 431.117 Q852.841 429.982 851.498 427.667 M865.989 418.617 Q865.989 413.918 864.045 411.256 Q862.123 408.57 858.744 408.57 Q855.364 408.57 853.42 411.256 Q851.498 413.918 851.498 418.617 Q851.498 423.316 853.42 426.001 Q855.364 428.663 858.744 428.663 Q862.123 428.663 864.045 426.001 Q865.989 423.316 865.989 418.617 Z" fill="#000000" fill-rule="nonzero" fill-opacity="1" /><path clip-path="url(#clip420)" d="M877.031 421.325 L877.031 405.631 L881.29 405.631 L881.29 421.163 Q881.29 424.843 882.725 426.695 Q884.16 428.524 887.031 428.524 Q890.48 428.524 892.47 426.325 Q894.484 424.126 894.484 420.33 L894.484 405.631 L898.743 405.631 L898.743 431.556 L894.484 431.556 L894.484 427.575 Q892.933 429.936 890.873 431.093 Q888.836 432.228 886.128 432.228 Q881.66 432.228 879.345 429.45 Q877.031 426.672 877.031 421.325 M887.748 405.006 L887.748 405.006 Z" fill="#000000" fill-rule="nonzero" fill-opacity="1" /><path clip-path="url(#clip420)" d="M908.605 425.677 L913.489 425.677 L913.489 429.658 L909.692 437.066 L906.706 437.066 L908.605 429.658 L908.605 425.677 Z" fill="#000000" fill-rule="nonzero" fill-opacity="1" /><path clip-path="url(#clip420)" d="M957.84 410.607 Q959.438 407.737 961.66 406.371 Q963.882 405.006 966.891 405.006 Q970.942 405.006 973.141 407.853 Q975.34 410.677 975.34 415.908 L975.34 431.556 L971.058 431.556 L971.058 416.047 Q971.058 412.32 969.738 410.515 Q968.419 408.709 965.711 408.709 Q962.401 408.709 960.479 410.908 Q958.558 413.107 958.558 416.904 L958.558 431.556 L954.276 431.556 L954.276 416.047 Q954.276 412.297 952.956 410.515 Q951.637 408.709 948.882 408.709 Q945.618 408.709 943.697 410.931 Q941.776 413.131 941.776 416.904 L941.776 431.556 L937.493 431.556 L937.493 405.631 L941.776 405.631 L941.776 409.658 Q943.234 407.274 945.271 406.14 Q947.308 405.006 950.109 405.006 Q952.933 405.006 954.901 406.441 Q956.891 407.876 957.84 410.607 Z" fill="#000000" fill-rule="nonzero" fill-opacity="1" /><path clip-path="url(#clip420)" d="M995.618 418.524 Q990.456 418.524 988.465 419.705 Q986.474 420.885 986.474 423.732 Q986.474 426.001 987.956 427.343 Q989.461 428.663 992.03 428.663 Q995.572 428.663 997.701 426.163 Q999.854 423.64 999.854 419.473 L999.854 418.524 L995.618 418.524 M1004.11 416.765 L1004.11 431.556 L999.854 431.556 L999.854 427.621 Q998.396 429.982 996.22 431.117 Q994.044 432.228 990.896 432.228 Q986.914 432.228 984.553 430.005 Q982.215 427.76 982.215 424.01 Q982.215 419.635 985.132 417.413 Q988.072 415.191 993.882 415.191 L999.854 415.191 L999.854 414.774 Q999.854 411.834 997.91 410.237 Q995.988 408.617 992.493 408.617 Q990.271 408.617 988.164 409.149 Q986.058 409.681 984.113 410.746 L984.113 406.811 Q986.451 405.908 988.65 405.469 Q990.849 405.006 992.933 405.006 Q998.558 405.006 1001.34 407.922 Q1004.11 410.839 1004.11 416.765 Z" fill="#000000" fill-rule="nonzero" fill-opacity="1" /><path clip-path="url(#clip420)" d="M1029.95 409.566 L1029.95 395.538 L1034.21 395.538 L1034.21 431.556 L1029.95 431.556 L1029.95 427.667 Q1028.6 429.982 1026.54 431.117 Q1024.51 432.228 1021.64 432.228 Q1016.94 432.228 1013.97 428.478 Q1011.03 424.728 1011.03 418.617 Q1011.03 412.506 1013.97 408.756 Q1016.94 405.006 1021.64 405.006 Q1024.51 405.006 1026.54 406.14 Q1028.6 407.251 1029.95 409.566 M1015.43 418.617 Q1015.43 423.316 1017.35 426.001 Q1019.3 428.663 1022.68 428.663 Q1026.06 428.663 1028 426.001 Q1029.95 423.316 1029.95 418.617 Q1029.95 413.918 1028 411.256 Q1026.06 408.57 1022.68 408.57 Q1019.3 408.57 1017.35 411.256 Q1015.43 413.918 1015.43 418.617 Z" fill="#000000" fill-rule="nonzero" fill-opacity="1" /><path clip-path="url(#clip420)" d="M1064.53 415.908 L1064.53 431.556 L1060.27 431.556 L1060.27 416.047 Q1060.27 412.367 1058.84 410.538 Q1057.4 408.709 1054.53 408.709 Q1051.08 408.709 1049.09 410.908 Q1047.1 413.107 1047.1 416.904 L1047.1 431.556 L1042.82 431.556 L1042.82 405.631 L1047.1 405.631 L1047.1 409.658 Q1048.63 407.32 1050.69 406.163 Q1052.77 405.006 1055.48 405.006 Q1059.95 405.006 1062.24 407.783 Q1064.53 410.538 1064.53 415.908 Z" fill="#000000" fill-rule="nonzero" fill-opacity="1" /><path clip-path="url(#clip420)" d="M1073.02 395.538 L1077.28 395.538 L1077.28 431.556 L1073.02 431.556 L1073.02 395.538 Z" fill="#000000" fill-rule="nonzero" fill-opacity="1" /><path clip-path="url(#clip420)" d="M1090.32 427.667 L1090.32 441.417 L1086.03 441.417 L1086.03 405.631 L1090.32 405.631 L1090.32 409.566 Q1091.66 407.251 1093.7 406.14 Q1095.76 405.006 1098.6 405.006 Q1103.33 405.006 1106.27 408.756 Q1109.23 412.506 1109.23 418.617 Q1109.23 424.728 1106.27 428.478 Q1103.33 432.228 1098.6 432.228 Q1095.76 432.228 1093.7 431.117 Q1091.66 429.982 1090.32 427.667 M1104.81 418.617 Q1104.81 413.918 1102.86 411.256 Q1100.94 408.57 1097.56 408.57 Q1094.18 408.57 1092.24 411.256 Q1090.32 413.918 1090.32 418.617 Q1090.32 423.316 1092.24 426.001 Q1094.18 428.663 1097.56 428.663 Q1100.94 428.663 1102.86 426.001 Q1104.81 423.316 1104.81 418.617 Z" fill="#000000" fill-rule="nonzero" fill-opacity="1" /><path clip-path="url(#clip420)" d="M1115.62 395.584 L1119.32 395.584 Q1122.79 401.047 1124.51 406.279 Q1126.24 411.51 1126.24 416.672 Q1126.24 421.857 1124.51 427.112 Q1122.79 432.367 1119.32 437.806 L1115.62 437.806 Q1118.7 432.505 1120.2 427.274 Q1121.73 422.019 1121.73 416.672 Q1121.73 411.325 1120.2 406.117 Q1118.7 400.908 1115.62 395.584 Z" fill="#000000" fill-rule="nonzero" fill-opacity="1" /></svg>
