<?xml version="1.0" encoding="utf-8"?>
<svg xmlns="http://www.w3.org/2000/svg" xmlns:xlink="http://www.w3.org/1999/xlink" width="900" height="600" viewBox="0 0 3600 2400">
<defs>
  <clipPath id="clip780">
    <rect x="0" y="0" width="3600" height="2400"/>
  </clipPath>
</defs>
<path clip-path="url(#clip780)" d="M0 2400 L3600 2400 L3600 0 L0 0  Z" fill="#ffffff" fill-rule="evenodd" fill-opacity="1"/>
<defs>
  <clipPath id="clip781">
    <rect x="720" y="0" width="2521" height="2400"/>
  </clipPath>
</defs>
<path clip-path="url(#clip780)" d="M304.798 2156.51 L3552.76 2156.51 L3552.76 246.944 L304.798 246.944  Z" fill="#ffffff" fill-rule="evenodd" fill-opacity="1"/>
<defs>
  <clipPath id="clip782">
    <rect x="304" y="246" width="3249" height="1911"/>
  </clipPath>
</defs>
<polyline clip-path="url(#clip782)" style="stroke:#000000; stroke-linecap:round; stroke-linejoin:round; stroke-width:2; stroke-opacity:0.1; fill:none" points="703.981,2156.51 703.981,246.944 "/>
<polyline clip-path="url(#clip782)" style="stroke:#000000; stroke-linecap:round; stroke-linejoin:round; stroke-width:2; stroke-opacity:0.1; fill:none" points="1520.51,2156.51 1520.51,246.944 "/>
<polyline clip-path="url(#clip782)" style="stroke:#000000; stroke-linecap:round; stroke-linejoin:round; stroke-width:2; stroke-opacity:0.1; fill:none" points="2337.04,2156.51 2337.04,246.944 "/>
<polyline clip-path="url(#clip782)" style="stroke:#000000; stroke-linecap:round; stroke-linejoin:round; stroke-width:2; stroke-opacity:0.1; fill:none" points="3153.57,2156.51 3153.57,246.944 "/>
<polyline clip-path="url(#clip782)" style="stroke:#000000; stroke-linecap:round; stroke-linejoin:round; stroke-width:2; stroke-opacity:0.1; fill:none" points="304.798,2156.51 3552.76,2156.51 "/>
<polyline clip-path="url(#clip782)" style="stroke:#000000; stroke-linecap:round; stroke-linejoin:round; stroke-width:2; stroke-opacity:0.1; fill:none" points="304.798,1669.66 3552.76,1669.66 "/>
<polyline clip-path="url(#clip782)" style="stroke:#000000; stroke-linecap:round; stroke-linejoin:round; stroke-width:2; stroke-opacity:0.1; fill:none" points="304.798,1182.8 3552.76,1182.8 "/>
<polyline clip-path="url(#clip782)" style="stroke:#000000; stroke-linecap:round; stroke-linejoin:round; stroke-width:2; stroke-opacity:0.1; fill:none" points="304.798,695.953 3552.76,695.953 "/>
<polyline clip-path="url(#clip780)" style="stroke:#000000; stroke-linecap:round; stroke-linejoin:round; stroke-width:4; stroke-opacity:1; fill:none" points="304.798,2156.51 3552.76,2156.51 "/>
<polyline clip-path="url(#clip780)" style="stroke:#000000; stroke-linecap:round; stroke-linejoin:round; stroke-width:4; stroke-opacity:1; fill:none" points="703.981,2156.51 703.981,2137.61 "/>
<polyline clip-path="url(#clip780)" style="stroke:#000000; stroke-linecap:round; stroke-linejoin:round; stroke-width:4; stroke-opacity:1; fill:none" points="1520.51,2156.51 1520.51,2137.61 "/>
<polyline clip-path="url(#clip780)" style="stroke:#000000; stroke-linecap:round; stroke-linejoin:round; stroke-width:4; stroke-opacity:1; fill:none" points="2337.04,2156.51 2337.04,2137.61 "/>
<polyline clip-path="url(#clip780)" style="stroke:#000000; stroke-linecap:round; stroke-linejoin:round; stroke-width:4; stroke-opacity:1; fill:none" points="3153.57,2156.51 3153.57,2137.61 "/>
<path clip-path="url(#clip780)" d="M648.507 2224.57 L656.146 2224.57 L656.146 2198.21 L647.836 2199.87 L647.836 2195.61 L656.1 2193.95 L660.775 2193.95 L660.775 2224.57 L668.414 2224.57 L668.414 2228.51 L648.507 2228.51 L648.507 2224.57 Z" fill="#000000" fill-rule="nonzero" fill-opacity="1" /><path clip-path="url(#clip780)" d="M687.859 2197.03 Q684.248 2197.03 682.419 2200.59 Q680.613 2204.13 680.613 2211.26 Q680.613 2218.37 682.419 2221.93 Q684.248 2225.48 687.859 2225.48 Q691.493 2225.48 693.298 2221.93 Q695.127 2218.37 695.127 2211.26 Q695.127 2204.13 693.298 2200.59 Q691.493 2197.03 687.859 2197.03 M687.859 2193.32 Q693.669 2193.32 696.724 2197.93 Q699.803 2202.51 699.803 2211.26 Q699.803 2219.99 696.724 2224.6 Q693.669 2229.18 687.859 2229.18 Q682.049 2229.18 678.97 2224.6 Q675.914 2219.99 675.914 2211.26 Q675.914 2202.51 678.97 2197.93 Q682.049 2193.32 687.859 2193.32 Z" fill="#000000" fill-rule="nonzero" fill-opacity="1" /><path clip-path="url(#clip780)" d="M718.021 2197.03 Q714.409 2197.03 712.581 2200.59 Q710.775 2204.13 710.775 2211.26 Q710.775 2218.37 712.581 2221.93 Q714.409 2225.48 718.021 2225.48 Q721.655 2225.48 723.46 2221.93 Q725.289 2218.37 725.289 2211.26 Q725.289 2204.13 723.46 2200.59 Q721.655 2197.03 718.021 2197.03 M718.021 2193.32 Q723.831 2193.32 726.886 2197.93 Q729.965 2202.51 729.965 2211.26 Q729.965 2219.99 726.886 2224.6 Q723.831 2229.18 718.021 2229.18 Q712.21 2229.18 709.132 2224.6 Q706.076 2219.99 706.076 2211.26 Q706.076 2202.51 709.132 2197.93 Q712.21 2193.32 718.021 2193.32 Z" fill="#000000" fill-rule="nonzero" fill-opacity="1" /><path clip-path="url(#clip780)" d="M748.182 2197.03 Q744.571 2197.03 742.743 2200.59 Q740.937 2204.13 740.937 2211.26 Q740.937 2218.37 742.743 2221.93 Q744.571 2225.48 748.182 2225.48 Q751.817 2225.48 753.622 2221.93 Q755.451 2218.37 755.451 2211.26 Q755.451 2204.13 753.622 2200.59 Q751.817 2197.03 748.182 2197.03 M748.182 2193.32 Q753.993 2193.32 757.048 2197.93 Q760.127 2202.51 760.127 2211.26 Q760.127 2219.99 757.048 2224.6 Q753.993 2229.18 748.182 2229.18 Q742.372 2229.18 739.294 2224.6 Q736.238 2219.99 736.238 2211.26 Q736.238 2202.51 739.294 2197.93 Q742.372 2193.32 748.182 2193.32 Z" fill="#000000" fill-rule="nonzero" fill-opacity="1" /><path clip-path="url(#clip780)" d="M1465.05 2193.95 L1483.41 2193.95 L1483.41 2197.88 L1469.33 2197.88 L1469.33 2206.36 Q1470.35 2206.01 1471.37 2205.85 Q1472.39 2205.66 1473.41 2205.66 Q1479.19 2205.66 1482.57 2208.83 Q1485.95 2212 1485.95 2217.42 Q1485.95 2223 1482.48 2226.1 Q1479.01 2229.18 1472.69 2229.18 Q1470.51 2229.18 1468.24 2228.81 Q1466 2228.44 1463.59 2227.7 L1463.59 2223 Q1465.67 2224.13 1467.9 2224.69 Q1470.12 2225.24 1472.6 2225.24 Q1476.6 2225.24 1478.94 2223.14 Q1481.28 2221.03 1481.28 2217.42 Q1481.28 2213.81 1478.94 2211.7 Q1476.6 2209.6 1472.6 2209.6 Q1470.72 2209.6 1468.85 2210.01 Q1466.99 2210.43 1465.05 2211.31 L1465.05 2193.95 Z" fill="#000000" fill-rule="nonzero" fill-opacity="1" /><path clip-path="url(#clip780)" d="M1505.16 2197.03 Q1501.55 2197.03 1499.72 2200.59 Q1497.92 2204.13 1497.92 2211.26 Q1497.92 2218.37 1499.72 2221.93 Q1501.55 2225.48 1505.16 2225.48 Q1508.8 2225.48 1510.6 2221.93 Q1512.43 2218.37 1512.43 2211.26 Q1512.43 2204.13 1510.6 2200.59 Q1508.8 2197.03 1505.16 2197.03 M1505.16 2193.32 Q1510.97 2193.32 1514.03 2197.93 Q1517.11 2202.51 1517.11 2211.26 Q1517.11 2219.99 1514.03 2224.6 Q1510.97 2229.18 1505.16 2229.18 Q1499.35 2229.18 1496.28 2224.6 Q1493.22 2219.99 1493.22 2211.26 Q1493.22 2202.51 1496.28 2197.93 Q1499.35 2193.32 1505.16 2193.32 Z" fill="#000000" fill-rule="nonzero" fill-opacity="1" /><path clip-path="url(#clip780)" d="M1535.33 2197.03 Q1531.72 2197.03 1529.89 2200.59 Q1528.08 2204.13 1528.08 2211.26 Q1528.08 2218.37 1529.89 2221.93 Q1531.72 2225.48 1535.33 2225.48 Q1538.96 2225.48 1540.77 2221.93 Q1542.59 2218.37 1542.59 2211.26 Q1542.59 2204.13 1540.77 2200.59 Q1538.96 2197.03 1535.33 2197.03 M1535.33 2193.32 Q1541.14 2193.32 1544.19 2197.93 Q1547.27 2202.51 1547.27 2211.26 Q1547.27 2219.99 1544.19 2224.6 Q1541.14 2229.18 1535.33 2229.18 Q1529.52 2229.18 1526.44 2224.6 Q1523.38 2219.99 1523.38 2211.26 Q1523.38 2202.51 1526.44 2197.93 Q1529.52 2193.32 1535.33 2193.32 Z" fill="#000000" fill-rule="nonzero" fill-opacity="1" /><path clip-path="url(#clip780)" d="M1565.49 2197.03 Q1561.88 2197.03 1560.05 2200.59 Q1558.24 2204.13 1558.24 2211.26 Q1558.24 2218.37 1560.05 2221.93 Q1561.88 2225.48 1565.49 2225.48 Q1569.12 2225.48 1570.93 2221.93 Q1572.76 2218.37 1572.76 2211.26 Q1572.76 2204.13 1570.93 2200.59 Q1569.12 2197.03 1565.49 2197.03 M1565.49 2193.32 Q1571.3 2193.32 1574.35 2197.93 Q1577.43 2202.51 1577.43 2211.26 Q1577.43 2219.99 1574.35 2224.6 Q1571.3 2229.18 1565.49 2229.18 Q1559.68 2229.18 1556.6 2224.6 Q1553.54 2219.99 1553.54 2211.26 Q1553.54 2202.51 1556.6 2197.93 Q1559.68 2193.32 1565.49 2193.32 Z" fill="#000000" fill-rule="nonzero" fill-opacity="1" /><path clip-path="url(#clip780)" d="M2266.49 2224.57 L2274.13 2224.57 L2274.13 2198.21 L2265.82 2199.87 L2265.82 2195.61 L2274.08 2193.95 L2278.76 2193.95 L2278.76 2224.57 L2286.39 2224.57 L2286.39 2228.51 L2266.49 2228.51 L2266.49 2224.57 Z" fill="#000000" fill-rule="nonzero" fill-opacity="1" /><path clip-path="url(#clip780)" d="M2305.84 2197.03 Q2302.23 2197.03 2300.4 2200.59 Q2298.59 2204.13 2298.59 2211.26 Q2298.59 2218.37 2300.4 2221.93 Q2302.23 2225.48 2305.84 2225.48 Q2309.47 2225.48 2311.28 2221.93 Q2313.11 2218.37 2313.11 2211.26 Q2313.11 2204.13 2311.28 2200.59 Q2309.47 2197.03 2305.84 2197.03 M2305.84 2193.32 Q2311.65 2193.32 2314.7 2197.93 Q2317.78 2202.51 2317.78 2211.26 Q2317.78 2219.99 2314.7 2224.6 Q2311.65 2229.18 2305.84 2229.18 Q2300.03 2229.18 2296.95 2224.6 Q2293.89 2219.99 2293.89 2211.26 Q2293.89 2202.51 2296.95 2197.93 Q2300.03 2193.32 2305.84 2193.32 Z" fill="#000000" fill-rule="nonzero" fill-opacity="1" /><path clip-path="url(#clip780)" d="M2336 2197.03 Q2332.39 2197.03 2330.56 2200.59 Q2328.75 2204.13 2328.75 2211.26 Q2328.75 2218.37 2330.56 2221.93 Q2332.39 2225.48 2336 2225.48 Q2339.63 2225.48 2341.44 2221.93 Q2343.27 2218.37 2343.27 2211.26 Q2343.27 2204.13 2341.44 2200.59 Q2339.63 2197.03 2336 2197.03 M2336 2193.32 Q2341.81 2193.32 2344.87 2197.93 Q2347.94 2202.51 2347.94 2211.26 Q2347.94 2219.99 2344.87 2224.6 Q2341.81 2229.18 2336 2229.18 Q2330.19 2229.18 2327.11 2224.6 Q2324.06 2219.99 2324.06 2211.26 Q2324.06 2202.51 2327.11 2197.93 Q2330.19 2193.32 2336 2193.32 Z" fill="#000000" fill-rule="nonzero" fill-opacity="1" /><path clip-path="url(#clip780)" d="M2366.16 2197.03 Q2362.55 2197.03 2360.72 2200.59 Q2358.92 2204.13 2358.92 2211.26 Q2358.92 2218.37 2360.72 2221.93 Q2362.55 2225.48 2366.16 2225.48 Q2369.8 2225.48 2371.6 2221.93 Q2373.43 2218.37 2373.43 2211.26 Q2373.43 2204.13 2371.6 2200.59 Q2369.8 2197.03 2366.16 2197.03 M2366.16 2193.32 Q2371.97 2193.32 2375.03 2197.93 Q2378.11 2202.51 2378.11 2211.26 Q2378.11 2219.99 2375.03 2224.6 Q2371.97 2229.18 2366.16 2229.18 Q2360.35 2229.18 2357.27 2224.6 Q2354.22 2219.99 2354.22 2211.26 Q2354.22 2202.51 2357.27 2197.93 Q2360.35 2193.32 2366.16 2193.32 Z" fill="#000000" fill-rule="nonzero" fill-opacity="1" /><path clip-path="url(#clip780)" d="M2396.32 2197.03 Q2392.71 2197.03 2390.88 2200.59 Q2389.08 2204.13 2389.08 2211.26 Q2389.08 2218.37 2390.88 2221.93 Q2392.71 2225.48 2396.32 2225.48 Q2399.96 2225.48 2401.76 2221.93 Q2403.59 2218.37 2403.59 2211.26 Q2403.59 2204.13 2401.76 2200.59 Q2399.96 2197.03 2396.32 2197.03 M2396.32 2193.32 Q2402.13 2193.32 2405.19 2197.93 Q2408.27 2202.51 2408.27 2211.26 Q2408.27 2219.99 2405.19 2224.6 Q2402.13 2229.18 2396.32 2229.18 Q2390.51 2229.18 2387.44 2224.6 Q2384.38 2219.99 2384.38 2211.26 Q2384.38 2202.51 2387.44 2197.93 Q2390.51 2193.32 2396.32 2193.32 Z" fill="#000000" fill-rule="nonzero" fill-opacity="1" /><path clip-path="url(#clip780)" d="M3087.1 2224.57 L3103.42 2224.57 L3103.42 2228.51 L3081.48 2228.51 L3081.48 2224.57 Q3084.14 2221.82 3088.72 2217.19 Q3093.33 2212.54 3094.51 2211.19 Q3096.76 2208.67 3097.64 2206.93 Q3098.54 2205.17 3098.54 2203.48 Q3098.54 2200.73 3096.59 2198.99 Q3094.67 2197.26 3091.57 2197.26 Q3089.37 2197.26 3086.92 2198.02 Q3084.49 2198.79 3081.71 2200.34 L3081.71 2195.61 Q3084.53 2194.48 3086.99 2193.9 Q3089.44 2193.32 3091.48 2193.32 Q3096.85 2193.32 3100.04 2196.01 Q3103.24 2198.69 3103.24 2203.18 Q3103.24 2205.31 3102.43 2207.23 Q3101.64 2209.13 3099.53 2211.73 Q3098.95 2212.4 3095.85 2215.61 Q3092.75 2218.81 3087.1 2224.57 Z" fill="#000000" fill-rule="nonzero" fill-opacity="1" /><path clip-path="url(#clip780)" d="M3123.24 2197.03 Q3119.63 2197.03 3117.8 2200.59 Q3115.99 2204.13 3115.99 2211.26 Q3115.99 2218.37 3117.8 2221.93 Q3119.63 2225.48 3123.24 2225.48 Q3126.87 2225.48 3128.68 2221.93 Q3130.51 2218.37 3130.51 2211.26 Q3130.51 2204.13 3128.68 2200.59 Q3126.87 2197.03 3123.24 2197.03 M3123.24 2193.32 Q3129.05 2193.32 3132.1 2197.93 Q3135.18 2202.51 3135.18 2211.26 Q3135.18 2219.99 3132.1 2224.6 Q3129.05 2229.18 3123.24 2229.18 Q3117.43 2229.18 3114.35 2224.6 Q3111.29 2219.99 3111.29 2211.26 Q3111.29 2202.51 3114.35 2197.93 Q3117.43 2193.32 3123.24 2193.32 Z" fill="#000000" fill-rule="nonzero" fill-opacity="1" /><path clip-path="url(#clip780)" d="M3153.4 2197.03 Q3149.79 2197.03 3147.96 2200.59 Q3146.15 2204.13 3146.15 2211.26 Q3146.15 2218.37 3147.96 2221.93 Q3149.79 2225.48 3153.4 2225.48 Q3157.03 2225.48 3158.84 2221.93 Q3160.67 2218.37 3160.67 2211.26 Q3160.67 2204.13 3158.84 2200.59 Q3157.03 2197.03 3153.4 2197.03 M3153.4 2193.32 Q3159.21 2193.32 3162.26 2197.93 Q3165.34 2202.51 3165.34 2211.26 Q3165.34 2219.99 3162.26 2224.6 Q3159.21 2229.18 3153.4 2229.18 Q3147.59 2229.18 3144.51 2224.6 Q3141.45 2219.99 3141.45 2211.26 Q3141.45 2202.51 3144.51 2197.93 Q3147.59 2193.32 3153.4 2193.32 Z" fill="#000000" fill-rule="nonzero" fill-opacity="1" /><path clip-path="url(#clip780)" d="M3183.56 2197.03 Q3179.95 2197.03 3178.12 2200.59 Q3176.32 2204.13 3176.32 2211.26 Q3176.32 2218.37 3178.12 2221.93 Q3179.95 2225.48 3183.56 2225.48 Q3187.19 2225.48 3189 2221.93 Q3190.83 2218.37 3190.83 2211.26 Q3190.83 2204.13 3189 2200.59 Q3187.19 2197.03 3183.56 2197.03 M3183.56 2193.32 Q3189.37 2193.32 3192.43 2197.93 Q3195.5 2202.51 3195.5 2211.26 Q3195.5 2219.99 3192.43 2224.6 Q3189.37 2229.18 3183.56 2229.18 Q3177.75 2229.18 3174.67 2224.6 Q3171.62 2219.99 3171.62 2211.26 Q3171.62 2202.51 3174.67 2197.93 Q3177.75 2193.32 3183.56 2193.32 Z" fill="#000000" fill-rule="nonzero" fill-opacity="1" /><path clip-path="url(#clip780)" d="M3213.72 2197.03 Q3210.11 2197.03 3208.28 2200.59 Q3206.48 2204.13 3206.48 2211.26 Q3206.48 2218.37 3208.28 2221.93 Q3210.11 2225.48 3213.72 2225.48 Q3217.36 2225.48 3219.16 2221.93 Q3220.99 2218.37 3220.99 2211.26 Q3220.99 2204.13 3219.16 2200.59 Q3217.36 2197.03 3213.72 2197.03 M3213.72 2193.32 Q3219.53 2193.32 3222.59 2197.93 Q3225.67 2202.51 3225.67 2211.26 Q3225.67 2219.99 3222.59 2224.6 Q3219.53 2229.18 3213.72 2229.18 Q3207.91 2229.18 3204.83 2224.6 Q3201.78 2219.99 3201.78 2211.26 Q3201.78 2202.51 3204.83 2197.93 Q3207.91 2193.32 3213.72 2193.32 Z" fill="#000000" fill-rule="nonzero" fill-opacity="1" /><path clip-path="url(#clip780)" d="M1804.66 2308.02 L1804.66 2296.42 L1795.11 2296.42 L1795.11 2291.62 L1810.45 2291.62 L1810.45 2310.17 Q1807.06 2312.57 1802.98 2313.81 Q1798.9 2315.03 1794.27 2315.03 Q1784.14 2315.03 1778.42 2309.12 Q1772.72 2303.19 1772.72 2292.63 Q1772.72 2282.04 1778.42 2276.14 Q1784.14 2270.21 1794.27 2270.21 Q1798.5 2270.21 1802.29 2271.25 Q1806.11 2272.29 1809.32 2274.32 L1809.32 2280.54 Q1806.08 2277.79 1802.43 2276.4 Q1798.79 2275.01 1794.76 2275.01 Q1786.84 2275.01 1782.84 2279.44 Q1778.88 2283.86 1778.88 2292.63 Q1778.88 2301.37 1782.84 2305.8 Q1786.84 2310.22 1794.76 2310.22 Q1797.86 2310.22 1800.29 2309.7 Q1802.72 2309.15 1804.66 2308.02 Z" fill="#000000" fill-rule="nonzero" fill-opacity="1" /><path clip-path="url(#clip780)" d="M1839.67 2286.76 Q1838.77 2286.24 1837.7 2286 Q1836.66 2285.74 1835.39 2285.74 Q1830.88 2285.74 1828.44 2288.7 Q1826.04 2291.62 1826.04 2297.12 L1826.04 2314.19 L1820.69 2314.19 L1820.69 2281.78 L1826.04 2281.78 L1826.04 2286.82 Q1827.72 2283.86 1830.41 2282.45 Q1833.1 2281 1836.95 2281 Q1837.5 2281 1838.17 2281.09 Q1838.83 2281.14 1839.64 2281.29 L1839.67 2286.76 Z" fill="#000000" fill-rule="nonzero" fill-opacity="1" /><path clip-path="url(#clip780)" d="M1845.26 2281.78 L1850.58 2281.78 L1850.58 2314.19 L1845.26 2314.19 L1845.26 2281.78 M1845.26 2269.16 L1850.58 2269.16 L1850.58 2275.91 L1845.26 2275.91 L1845.26 2269.16 Z" fill="#000000" fill-rule="nonzero" fill-opacity="1" /><path clip-path="url(#clip780)" d="M1883.04 2286.7 L1883.04 2269.16 L1888.37 2269.16 L1888.37 2314.19 L1883.04 2314.19 L1883.04 2309.33 Q1881.37 2312.22 1878.79 2313.64 Q1876.25 2315.03 1872.66 2315.03 Q1866.78 2315.03 1863.08 2310.34 Q1859.41 2305.65 1859.41 2298.01 Q1859.41 2290.37 1863.08 2285.69 Q1866.78 2281 1872.66 2281 Q1876.25 2281 1878.79 2282.42 Q1881.37 2283.81 1883.04 2286.7 M1864.9 2298.01 Q1864.9 2303.89 1867.3 2307.24 Q1869.73 2310.57 1873.96 2310.57 Q1878.18 2310.57 1880.61 2307.24 Q1883.04 2303.89 1883.04 2298.01 Q1883.04 2292.14 1880.61 2288.81 Q1878.18 2285.46 1873.96 2285.46 Q1869.73 2285.46 1867.3 2288.81 Q1864.9 2292.14 1864.9 2298.01 Z" fill="#000000" fill-rule="nonzero" fill-opacity="1" /><path clip-path="url(#clip780)" d="M1938.83 2282.74 L1938.83 2287.77 Q1936.57 2286.61 1934.14 2286.03 Q1931.71 2285.46 1929.11 2285.46 Q1925.15 2285.46 1923.15 2286.67 Q1921.18 2287.89 1921.18 2290.32 Q1921.18 2292.17 1922.6 2293.24 Q1924.02 2294.28 1928.3 2295.24 L1930.12 2295.64 Q1935.79 2296.86 1938.17 2299.08 Q1940.57 2301.28 1940.57 2305.25 Q1940.57 2309.76 1936.98 2312.39 Q1933.42 2315.03 1927.17 2315.03 Q1924.57 2315.03 1921.73 2314.51 Q1918.92 2314.01 1915.8 2313 L1915.8 2307.5 Q1918.75 2309.04 1921.62 2309.82 Q1924.48 2310.57 1927.29 2310.57 Q1931.05 2310.57 1933.07 2309.3 Q1935.1 2308 1935.1 2305.65 Q1935.1 2303.48 1933.62 2302.32 Q1932.18 2301.17 1927.23 2300.1 L1925.38 2299.66 Q1920.43 2298.62 1918.23 2296.48 Q1916.03 2294.31 1916.03 2290.55 Q1916.03 2285.98 1919.27 2283.49 Q1922.51 2281 1928.47 2281 Q1931.42 2281 1934.03 2281.43 Q1936.63 2281.87 1938.83 2282.74 Z" fill="#000000" fill-rule="nonzero" fill-opacity="1" /><path clip-path="url(#clip780)" d="M1949.05 2281.78 L1954.37 2281.78 L1954.37 2314.19 L1949.05 2314.19 L1949.05 2281.78 M1949.05 2269.16 L1954.37 2269.16 L1954.37 2275.91 L1949.05 2275.91 L1949.05 2269.16 Z" fill="#000000" fill-rule="nonzero" fill-opacity="1" /><path clip-path="url(#clip780)" d="M1963.19 2281.78 L1988.48 2281.78 L1988.48 2286.64 L1968.46 2309.93 L1988.48 2309.93 L1988.48 2314.19 L1962.47 2314.19 L1962.47 2309.33 L1982.49 2286.03 L1963.19 2286.03 L1963.19 2281.78 Z" fill="#000000" fill-rule="nonzero" fill-opacity="1" /><path clip-path="url(#clip780)" d="M2024.33 2296.65 L2024.33 2299.26 L1999.86 2299.26 Q2000.2 2304.75 2003.15 2307.65 Q2006.13 2310.51 2011.43 2310.51 Q2014.5 2310.51 2017.36 2309.76 Q2020.25 2309.01 2023.09 2307.5 L2023.09 2312.54 Q2020.23 2313.75 2017.22 2314.39 Q2014.21 2315.03 2011.11 2315.03 Q2003.36 2315.03 1998.81 2310.51 Q1994.3 2306 1994.3 2298.3 Q1994.3 2290.35 1998.58 2285.69 Q2002.89 2281 2010.19 2281 Q2016.72 2281 2020.52 2285.22 Q2024.33 2289.42 2024.33 2296.65 M2019.01 2295.09 Q2018.95 2290.72 2016.55 2288.12 Q2014.18 2285.51 2010.24 2285.51 Q2005.79 2285.51 2003.1 2288.03 Q2000.43 2290.55 2000.03 2295.12 L2019.01 2295.09 Z" fill="#000000" fill-rule="nonzero" fill-opacity="1" /><path clip-path="url(#clip780)" d="M2052.14 2270.99 L2060.01 2270.99 L2079.17 2307.13 L2079.17 2270.99 L2084.84 2270.99 L2084.84 2314.19 L2076.97 2314.19 L2057.81 2278.05 L2057.81 2314.19 L2052.14 2314.19 L2052.14 2270.99 Z" fill="#000000" fill-rule="nonzero" fill-opacity="1" /><polyline clip-path="url(#clip780)" style="stroke:#000000; stroke-linecap:round; stroke-linejoin:round; stroke-width:4; stroke-opacity:1; fill:none" points="304.798,2156.51 304.798,246.944 "/>
<polyline clip-path="url(#clip780)" style="stroke:#000000; stroke-linecap:round; stroke-linejoin:round; stroke-width:4; stroke-opacity:1; fill:none" points="304.798,2156.51 323.695,2156.51 "/>
<polyline clip-path="url(#clip780)" style="stroke:#000000; stroke-linecap:round; stroke-linejoin:round; stroke-width:4; stroke-opacity:1; fill:none" points="304.798,1669.66 323.695,1669.66 "/>
<polyline clip-path="url(#clip780)" style="stroke:#000000; stroke-linecap:round; stroke-linejoin:round; stroke-width:4; stroke-opacity:1; fill:none" points="304.798,1182.8 323.695,1182.8 "/>
<polyline clip-path="url(#clip780)" style="stroke:#000000; stroke-linecap:round; stroke-linejoin:round; stroke-width:4; stroke-opacity:1; fill:none" points="304.798,695.953 323.695,695.953 "/>
<path clip-path="url(#clip780)" d="M238.853 2142.31 Q235.242 2142.31 233.413 2145.87 Q231.608 2149.41 231.608 2156.54 Q231.608 2163.65 233.413 2167.21 Q235.242 2170.76 238.853 2170.76 Q242.487 2170.76 244.293 2167.21 Q246.122 2163.65 246.122 2156.54 Q246.122 2149.41 244.293 2145.87 Q242.487 2142.31 238.853 2142.31 M238.853 2138.6 Q244.663 2138.6 247.719 2143.21 Q250.798 2147.79 250.798 2156.54 Q250.798 2165.27 247.719 2169.88 Q244.663 2174.46 238.853 2174.46 Q233.043 2174.46 229.964 2169.88 Q226.909 2165.27 226.909 2156.54 Q226.909 2147.79 229.964 2143.21 Q233.043 2138.6 238.853 2138.6 Z" fill="#000000" fill-rule="nonzero" fill-opacity="1" /><path clip-path="url(#clip780)" d="M169.34 1683 L176.979 1683 L176.979 1656.64 L168.668 1658.3 L168.668 1654.04 L176.932 1652.38 L181.608 1652.38 L181.608 1683 L189.247 1683 L189.247 1686.94 L169.34 1686.94 L169.34 1683 Z" fill="#000000" fill-rule="nonzero" fill-opacity="1" /><path clip-path="url(#clip780)" d="M208.691 1655.45 Q205.08 1655.45 203.252 1659.02 Q201.446 1662.56 201.446 1669.69 Q201.446 1676.8 203.252 1680.36 Q205.08 1683.9 208.691 1683.9 Q212.326 1683.9 214.131 1680.36 Q215.96 1676.8 215.96 1669.69 Q215.96 1662.56 214.131 1659.02 Q212.326 1655.45 208.691 1655.45 M208.691 1651.75 Q214.501 1651.75 217.557 1656.36 Q220.636 1660.94 220.636 1669.69 Q220.636 1678.42 217.557 1683.02 Q214.501 1687.61 208.691 1687.61 Q202.881 1687.61 199.802 1683.02 Q196.747 1678.42 196.747 1669.69 Q196.747 1660.94 199.802 1656.36 Q202.881 1651.75 208.691 1651.75 Z" fill="#000000" fill-rule="nonzero" fill-opacity="1" /><path clip-path="url(#clip780)" d="M238.853 1655.45 Q235.242 1655.45 233.413 1659.02 Q231.608 1662.56 231.608 1669.69 Q231.608 1676.8 233.413 1680.36 Q235.242 1683.9 238.853 1683.9 Q242.487 1683.9 244.293 1680.36 Q246.122 1676.8 246.122 1669.69 Q246.122 1662.56 244.293 1659.02 Q242.487 1655.45 238.853 1655.45 M238.853 1651.75 Q244.663 1651.75 247.719 1656.36 Q250.798 1660.94 250.798 1669.69 Q250.798 1678.42 247.719 1683.02 Q244.663 1687.61 238.853 1687.61 Q233.043 1687.61 229.964 1683.02 Q226.909 1678.42 226.909 1669.69 Q226.909 1660.94 229.964 1656.36 Q233.043 1651.75 238.853 1651.75 Z" fill="#000000" fill-rule="nonzero" fill-opacity="1" /><path clip-path="url(#clip780)" d="M172.557 1196.15 L188.877 1196.15 L188.877 1200.08 L166.932 1200.08 L166.932 1196.15 Q169.594 1193.39 174.178 1188.77 Q178.784 1184.11 179.965 1182.77 Q182.21 1180.25 183.09 1178.51 Q183.992 1176.75 183.992 1175.06 Q183.992 1172.31 182.048 1170.57 Q180.127 1168.83 177.025 1168.83 Q174.826 1168.83 172.372 1169.6 Q169.942 1170.36 167.164 1171.91 L167.164 1167.19 Q169.988 1166.06 172.442 1165.48 Q174.895 1164.9 176.932 1164.9 Q182.303 1164.9 185.497 1167.58 Q188.691 1170.27 188.691 1174.76 Q188.691 1176.89 187.881 1178.81 Q187.094 1180.71 184.988 1183.3 Q184.409 1183.97 181.307 1187.19 Q178.205 1190.39 172.557 1196.15 Z" fill="#000000" fill-rule="nonzero" fill-opacity="1" /><path clip-path="url(#clip780)" d="M208.691 1168.6 Q205.08 1168.6 203.252 1172.17 Q201.446 1175.71 201.446 1182.84 Q201.446 1189.95 203.252 1193.51 Q205.08 1197.05 208.691 1197.05 Q212.326 1197.05 214.131 1193.51 Q215.96 1189.95 215.96 1182.84 Q215.96 1175.71 214.131 1172.17 Q212.326 1168.6 208.691 1168.6 M208.691 1164.9 Q214.501 1164.9 217.557 1169.51 Q220.636 1174.09 220.636 1182.84 Q220.636 1191.57 217.557 1196.17 Q214.501 1200.76 208.691 1200.76 Q202.881 1200.76 199.802 1196.17 Q196.747 1191.57 196.747 1182.84 Q196.747 1174.09 199.802 1169.51 Q202.881 1164.9 208.691 1164.9 Z" fill="#000000" fill-rule="nonzero" fill-opacity="1" /><path clip-path="url(#clip780)" d="M238.853 1168.6 Q235.242 1168.6 233.413 1172.17 Q231.608 1175.71 231.608 1182.84 Q231.608 1189.95 233.413 1193.51 Q235.242 1197.05 238.853 1197.05 Q242.487 1197.05 244.293 1193.51 Q246.122 1189.95 246.122 1182.84 Q246.122 1175.71 244.293 1172.17 Q242.487 1168.6 238.853 1168.6 M238.853 1164.9 Q244.663 1164.9 247.719 1169.51 Q250.798 1174.09 250.798 1182.84 Q250.798 1191.57 247.719 1196.17 Q244.663 1200.76 238.853 1200.76 Q233.043 1200.76 229.964 1196.17 Q226.909 1191.57 226.909 1182.84 Q226.909 1174.09 229.964 1169.51 Q233.043 1164.9 238.853 1164.9 Z" fill="#000000" fill-rule="nonzero" fill-opacity="1" /><path clip-path="url(#clip780)" d="M182.696 694.599 Q186.053 695.316 187.928 697.585 Q189.826 699.853 189.826 703.186 Q189.826 708.302 186.307 711.103 Q182.789 713.904 176.307 713.904 Q174.131 713.904 171.817 713.464 Q169.525 713.048 167.071 712.191 L167.071 707.677 Q169.016 708.811 171.33 709.39 Q173.645 709.969 176.168 709.969 Q180.566 709.969 182.858 708.233 Q185.173 706.497 185.173 703.186 Q185.173 700.131 183.02 698.418 Q180.891 696.682 177.071 696.682 L173.043 696.682 L173.043 692.839 L177.256 692.839 Q180.705 692.839 182.534 691.474 Q184.363 690.085 184.363 687.492 Q184.363 684.83 182.465 683.418 Q180.59 681.983 177.071 681.983 Q175.15 681.983 172.951 682.4 Q170.752 682.816 168.113 683.696 L168.113 679.529 Q170.775 678.788 173.09 678.418 Q175.428 678.048 177.488 678.048 Q182.812 678.048 185.914 680.478 Q189.015 682.886 189.015 687.006 Q189.015 689.876 187.372 691.867 Q185.728 693.835 182.696 694.599 Z" fill="#000000" fill-rule="nonzero" fill-opacity="1" /><path clip-path="url(#clip780)" d="M208.691 681.751 Q205.08 681.751 203.252 685.316 Q201.446 688.858 201.446 695.987 Q201.446 703.094 203.252 706.659 Q205.08 710.2 208.691 710.2 Q212.326 710.2 214.131 706.659 Q215.96 703.094 215.96 695.987 Q215.96 688.858 214.131 685.316 Q212.326 681.751 208.691 681.751 M208.691 678.048 Q214.501 678.048 217.557 682.654 Q220.636 687.237 220.636 695.987 Q220.636 704.714 217.557 709.321 Q214.501 713.904 208.691 713.904 Q202.881 713.904 199.802 709.321 Q196.747 704.714 196.747 695.987 Q196.747 687.237 199.802 682.654 Q202.881 678.048 208.691 678.048 Z" fill="#000000" fill-rule="nonzero" fill-opacity="1" /><path clip-path="url(#clip780)" d="M238.853 681.751 Q235.242 681.751 233.413 685.316 Q231.608 688.858 231.608 695.987 Q231.608 703.094 233.413 706.659 Q235.242 710.2 238.853 710.2 Q242.487 710.2 244.293 706.659 Q246.122 703.094 246.122 695.987 Q246.122 688.858 244.293 685.316 Q242.487 681.751 238.853 681.751 M238.853 678.048 Q244.663 678.048 247.719 682.654 Q250.798 687.237 250.798 695.987 Q250.798 704.714 247.719 709.321 Q244.663 713.904 238.853 713.904 Q233.043 713.904 229.964 709.321 Q226.909 704.714 226.909 695.987 Q226.909 687.237 229.964 682.654 Q233.043 678.048 238.853 678.048 Z" fill="#000000" fill-rule="nonzero" fill-opacity="1" /><path clip-path="url(#clip780)" d="M58.1901 1374.69 L63.8903 1374.69 Q62.2989 1378.01 61.5176 1380.96 Q60.7364 1383.92 60.7364 1386.66 Q60.7364 1391.44 62.5882 1394.04 Q64.4401 1396.62 67.8544 1396.62 Q70.719 1396.62 72.1947 1394.91 Q73.6414 1393.17 74.5384 1388.37 L75.2618 1384.84 Q76.506 1378.3 79.6599 1375.21 Q82.7849 1372.08 88.0511 1372.08 Q94.33 1372.08 97.5707 1376.31 Q100.811 1380.5 100.811 1388.63 Q100.811 1391.7 100.117 1395.17 Q99.4225 1398.61 98.0626 1402.32 L92.0441 1402.32 Q94.0406 1398.76 95.0533 1395.34 Q96.0661 1391.93 96.0661 1388.63 Q96.0661 1383.63 94.0985 1380.91 Q92.1309 1378.19 88.4851 1378.19 Q85.3022 1378.19 83.5083 1380.15 Q81.7143 1382.09 80.8173 1386.55 L80.1229 1390.11 Q78.8208 1396.65 76.043 1399.57 Q73.2653 1402.49 68.3174 1402.49 Q62.5882 1402.49 59.2896 1398.47 Q55.991 1394.42 55.991 1387.33 Q55.991 1384.29 56.5408 1381.14 Q57.0906 1377.98 58.1901 1374.69 Z" fill="#000000" fill-rule="nonzero" fill-opacity="1" /><path clip-path="url(#clip780)" d="M71.2977 1350.64 Q71.2977 1354.92 74.6541 1357.41 Q77.9817 1359.9 83.7976 1359.9 Q89.6135 1359.9 92.97 1357.44 Q96.2975 1354.95 96.2975 1350.64 Q96.2975 1346.39 92.9411 1343.9 Q89.5846 1341.41 83.7976 1341.41 Q78.0395 1341.41 74.6831 1343.9 Q71.2977 1346.39 71.2977 1350.64 M66.7838 1350.64 Q66.7838 1343.7 71.2977 1339.73 Q75.8115 1335.77 83.7976 1335.77 Q91.7547 1335.77 96.2975 1339.73 Q100.811 1343.7 100.811 1350.64 Q100.811 1357.61 96.2975 1361.58 Q91.7547 1365.51 83.7976 1365.51 Q75.8115 1365.51 71.2977 1361.58 Q66.7838 1357.61 66.7838 1350.64 Z" fill="#000000" fill-rule="nonzero" fill-opacity="1" /><path clip-path="url(#clip780)" d="M54.9494 1326.94 L54.9494 1321.62 L99.9723 1321.62 L99.9723 1326.94 L54.9494 1326.94 Z" fill="#000000" fill-rule="nonzero" fill-opacity="1" /><path clip-path="url(#clip780)" d="M67.565 1314.3 L67.565 1308.66 L94.764 1298.53 L67.565 1288.4 L67.565 1282.76 L99.9723 1294.91 L99.9723 1302.15 L67.565 1314.3 Z" fill="#000000" fill-rule="nonzero" fill-opacity="1" /><path clip-path="url(#clip780)" d="M82.4377 1247.69 L85.0418 1247.69 L85.0418 1272.17 Q90.5395 1271.82 93.433 1268.87 Q96.2975 1265.89 96.2975 1260.59 Q96.2975 1257.53 95.5452 1254.66 Q94.7929 1251.77 93.2883 1248.93 L98.323 1248.93 Q99.5383 1251.8 100.175 1254.81 Q100.811 1257.82 100.811 1260.91 Q100.811 1268.67 96.2975 1273.21 Q91.7837 1277.72 84.087 1277.72 Q76.1298 1277.72 71.4713 1273.44 Q66.7838 1269.13 66.7838 1261.84 Q66.7838 1255.3 71.0083 1251.51 Q75.2039 1247.69 82.4377 1247.69 M80.8752 1253.01 Q76.506 1253.07 73.9018 1255.47 Q71.2977 1257.85 71.2977 1261.78 Q71.2977 1266.24 73.815 1268.93 Q76.3324 1271.59 80.9041 1271.99 L80.8752 1253.01 Z" fill="#000000" fill-rule="nonzero" fill-opacity="1" /><path clip-path="url(#clip780)" d="M58.3637 1214.85 L67.565 1214.85 L67.565 1203.88 L71.7028 1203.88 L71.7028 1214.85 L89.2953 1214.85 Q93.2594 1214.85 94.3878 1213.78 Q95.5163 1212.68 95.5163 1209.35 L95.5163 1203.88 L99.9723 1203.88 L99.9723 1209.35 Q99.9723 1215.51 97.6864 1217.86 Q95.3716 1220.2 89.2953 1220.2 L71.7028 1220.2 L71.7028 1224.11 L67.565 1224.11 L67.565 1220.2 L58.3637 1220.2 L58.3637 1214.85 Z" fill="#000000" fill-rule="nonzero" fill-opacity="1" /><path clip-path="url(#clip780)" d="M67.565 1196.88 L67.565 1191.56 L99.9723 1191.56 L99.9723 1196.88 L67.565 1196.88 M54.9494 1196.88 L54.9494 1191.56 L61.6912 1191.56 L61.6912 1196.88 L54.9494 1196.88 Z" fill="#000000" fill-rule="nonzero" fill-opacity="1" /><path clip-path="url(#clip780)" d="M73.7861 1155.18 Q70.1981 1153.19 68.491 1150.41 Q66.7838 1147.63 66.7838 1143.87 Q66.7838 1138.81 70.3428 1136.06 Q73.8729 1133.31 80.4122 1133.31 L99.9723 1133.31 L99.9723 1138.66 L80.5858 1138.66 Q75.9273 1138.66 73.6703 1140.31 Q71.4134 1141.96 71.4134 1145.35 Q71.4134 1149.48 74.1622 1151.89 Q76.9111 1154.29 81.6564 1154.29 L99.9723 1154.29 L99.9723 1159.64 L80.5858 1159.64 Q75.8983 1159.64 73.6703 1161.29 Q71.4134 1162.94 71.4134 1166.38 Q71.4134 1170.46 74.1912 1172.86 Q76.94 1175.26 81.6564 1175.26 L99.9723 1175.26 L99.9723 1180.62 L67.565 1180.62 L67.565 1175.26 L72.5997 1175.26 Q69.6194 1173.44 68.2016 1170.9 Q66.7838 1168.35 66.7838 1164.85 Q66.7838 1161.32 68.5778 1158.86 Q70.3717 1156.37 73.7861 1155.18 Z" fill="#000000" fill-rule="nonzero" fill-opacity="1" /><path clip-path="url(#clip780)" d="M82.4377 1094.97 L85.0418 1094.97 L85.0418 1119.45 Q90.5395 1119.1 93.433 1116.15 Q96.2975 1113.17 96.2975 1107.88 Q96.2975 1104.81 95.5452 1101.94 Q94.7929 1099.05 93.2883 1096.21 L98.323 1096.21 Q99.5383 1099.08 100.175 1102.09 Q100.811 1105.1 100.811 1108.19 Q100.811 1115.95 96.2975 1120.49 Q91.7837 1125 84.087 1125 Q76.1298 1125 71.4713 1120.72 Q66.7838 1116.41 66.7838 1109.12 Q66.7838 1102.58 71.0083 1098.79 Q75.2039 1094.97 82.4377 1094.97 M80.8752 1100.29 Q76.506 1100.35 73.9018 1102.75 Q71.2977 1105.13 71.2977 1109.06 Q71.2977 1113.52 73.815 1116.21 Q76.3324 1118.87 80.9041 1119.28 L80.8752 1100.29 Z" fill="#000000" fill-rule="nonzero" fill-opacity="1" /><path clip-path="url(#clip780)" d="M55.0072 1054.61 Q61.6623 1058.48 68.1727 1060.36 Q74.6831 1062.24 81.3671 1062.24 Q88.0511 1062.24 94.6193 1060.36 Q101.159 1058.45 107.785 1054.61 L107.785 1059.24 Q100.985 1063.58 94.4168 1065.75 Q87.8485 1067.89 81.3671 1067.89 Q74.9145 1067.89 68.3752 1065.75 Q61.8359 1063.6 55.0072 1059.24 L55.0072 1054.61 Z" fill="#000000" fill-rule="nonzero" fill-opacity="1" /><path clip-path="url(#clip780)" d="M68.5199 1023.62 L73.5546 1023.62 Q72.3972 1025.87 71.8185 1028.3 Q71.2398 1030.73 71.2398 1033.34 Q71.2398 1037.3 72.4551 1039.3 Q73.6703 1041.27 76.1009 1041.27 Q77.9527 1041.27 79.0233 1039.85 Q80.065 1038.43 81.0198 1034.15 L81.4249 1032.33 Q82.6402 1026.65 84.8682 1024.28 Q87.0673 1021.88 91.0314 1021.88 Q95.5452 1021.88 98.1783 1025.47 Q100.811 1029.03 100.811 1035.28 Q100.811 1037.88 100.291 1040.72 Q99.7987 1043.52 98.7859 1046.65 L93.2883 1046.65 Q94.8218 1043.7 95.6031 1040.83 Q96.3554 1037.97 96.3554 1035.16 Q96.3554 1031.4 95.0823 1029.37 Q93.7802 1027.35 91.4364 1027.35 Q89.2663 1027.35 88.1089 1028.82 Q86.9515 1030.27 85.8809 1035.22 L85.4469 1037.07 Q84.4052 1042.02 82.264 1044.22 Q80.0939 1046.42 76.3324 1046.42 Q71.7606 1046.42 69.2722 1043.18 Q66.7838 1039.94 66.7838 1033.98 Q66.7838 1031.02 67.2178 1028.42 Q67.6519 1025.82 68.5199 1023.62 Z" fill="#000000" fill-rule="nonzero" fill-opacity="1" /><path clip-path="url(#clip780)" d="M55.0072 1014.24 L55.0072 1009.61 Q61.8359 1005.27 68.3752 1003.13 Q74.9145 1000.96 81.3671 1000.96 Q87.8485 1000.96 94.4168 1003.13 Q100.985 1005.27 107.785 1009.61 L107.785 1014.24 Q101.159 1010.39 94.6193 1008.51 Q88.0511 1006.6 81.3671 1006.6 Q74.6831 1006.6 68.1727 1008.51 Q61.6623 1010.39 55.0072 1014.24 Z" fill="#000000" fill-rule="nonzero" fill-opacity="1" /><path clip-path="url(#clip780)" d="M1120.03 125.969 L1120.03 133.949 Q1115.38 131.721 1111.24 130.627 Q1107.11 129.534 1103.26 129.534 Q1096.58 129.534 1092.93 132.126 Q1089.33 134.719 1089.33 139.499 Q1089.33 143.509 1091.72 145.575 Q1094.15 147.601 1100.87 148.857 L1105.82 149.869 Q1114.97 151.611 1119.3 156.027 Q1123.68 160.402 1123.68 167.774 Q1123.68 176.565 1117.77 181.102 Q1111.89 185.639 1100.51 185.639 Q1096.21 185.639 1091.35 184.667 Q1086.53 183.694 1081.35 181.79 L1081.35 173.365 Q1086.33 176.16 1091.11 177.577 Q1095.89 178.995 1100.51 178.995 Q1107.52 178.995 1111.32 176.241 Q1115.13 173.486 1115.13 168.382 Q1115.13 163.926 1112.38 161.414 Q1109.66 158.903 1103.43 157.647 L1098.44 156.675 Q1089.29 154.852 1085.2 150.963 Q1081.1 147.074 1081.1 140.147 Q1081.1 132.126 1086.74 127.508 Q1092.41 122.89 1102.33 122.89 Q1106.58 122.89 1111 123.66 Q1115.42 124.43 1120.03 125.969 Z" fill="#000000" fill-rule="nonzero" fill-opacity="1" /><path clip-path="url(#clip780)" d="M1153.7 144.32 Q1147.7 144.32 1144.22 149.019 Q1140.73 153.677 1140.73 161.819 Q1140.73 169.962 1144.18 174.661 Q1147.66 179.319 1153.7 179.319 Q1159.65 179.319 1163.14 174.62 Q1166.62 169.921 1166.62 161.819 Q1166.62 153.758 1163.14 149.059 Q1159.65 144.32 1153.7 144.32 M1153.7 138 Q1163.42 138 1168.97 144.32 Q1174.52 150.639 1174.52 161.819 Q1174.52 172.959 1168.97 179.319 Q1163.42 185.639 1153.7 185.639 Q1143.93 185.639 1138.38 179.319 Q1132.88 172.959 1132.88 161.819 Q1132.88 150.639 1138.38 144.32 Q1143.93 138 1153.7 138 Z" fill="#000000" fill-rule="nonzero" fill-opacity="1" /><path clip-path="url(#clip780)" d="M1186.87 121.432 L1194.33 121.432 L1194.33 184.464 L1186.87 184.464 L1186.87 121.432 Z" fill="#000000" fill-rule="nonzero" fill-opacity="1" /><path clip-path="url(#clip780)" d="M1204.58 139.094 L1212.48 139.094 L1226.65 177.172 L1240.83 139.094 L1248.73 139.094 L1231.72 184.464 L1221.59 184.464 L1204.58 139.094 Z" fill="#000000" fill-rule="nonzero" fill-opacity="1" /><path clip-path="url(#clip780)" d="M1297.83 159.916 L1297.83 163.561 L1263.56 163.561 Q1264.04 171.258 1268.18 175.309 Q1272.35 179.319 1279.76 179.319 Q1284.06 179.319 1288.07 178.266 Q1292.12 177.213 1296.09 175.106 L1296.09 182.155 Q1292.08 183.856 1287.86 184.748 Q1283.65 185.639 1279.32 185.639 Q1268.46 185.639 1262.1 179.319 Q1255.78 173 1255.78 162.225 Q1255.78 151.085 1261.78 144.563 Q1267.81 138 1278.02 138 Q1287.17 138 1292.48 143.914 Q1297.83 149.788 1297.83 159.916 M1290.37 157.728 Q1290.29 151.611 1286.93 147.965 Q1283.61 144.32 1278.1 144.32 Q1271.86 144.32 1268.09 147.844 Q1264.37 151.368 1263.8 157.769 L1290.37 157.728 Z" fill="#000000" fill-rule="nonzero" fill-opacity="1" /><path clip-path="url(#clip780)" d="M1343.81 126.212 L1343.81 139.094 L1359.16 139.094 L1359.16 144.887 L1343.81 144.887 L1343.81 169.516 Q1343.81 175.066 1345.3 176.646 Q1346.84 178.226 1351.5 178.226 L1359.16 178.226 L1359.16 184.464 L1351.5 184.464 Q1342.87 184.464 1339.59 181.264 Q1336.31 178.023 1336.31 169.516 L1336.31 144.887 L1330.84 144.887 L1330.84 139.094 L1336.31 139.094 L1336.31 126.212 L1343.81 126.212 Z" fill="#000000" fill-rule="nonzero" fill-opacity="1" /><path clip-path="url(#clip780)" d="M1368.96 139.094 L1376.42 139.094 L1376.42 184.464 L1368.96 184.464 L1368.96 139.094 M1368.96 121.432 L1376.42 121.432 L1376.42 130.871 L1368.96 130.871 L1368.96 121.432 Z" fill="#000000" fill-rule="nonzero" fill-opacity="1" /><path clip-path="url(#clip780)" d="M1427.34 147.803 Q1430.13 142.78 1434.02 140.39 Q1437.91 138 1443.17 138 Q1450.26 138 1454.11 142.983 Q1457.96 147.925 1457.96 157.08 L1457.96 184.464 L1450.47 184.464 L1450.47 157.323 Q1450.47 150.801 1448.16 147.641 Q1445.85 144.482 1441.11 144.482 Q1435.32 144.482 1431.95 148.33 Q1428.59 152.178 1428.59 158.822 L1428.59 184.464 L1421.1 184.464 L1421.1 157.323 Q1421.1 150.76 1418.79 147.641 Q1416.48 144.482 1411.66 144.482 Q1405.95 144.482 1402.58 148.37 Q1399.22 152.219 1399.22 158.822 L1399.22 184.464 L1391.73 184.464 L1391.73 139.094 L1399.22 139.094 L1399.22 146.142 Q1401.77 141.97 1405.34 139.985 Q1408.9 138 1413.81 138 Q1418.75 138 1422.19 140.512 Q1425.67 143.023 1427.34 147.803 Z" fill="#000000" fill-rule="nonzero" fill-opacity="1" /><path clip-path="url(#clip780)" d="M1511.63 159.916 L1511.63 163.561 L1477.36 163.561 Q1477.85 171.258 1481.98 175.309 Q1486.15 179.319 1493.57 179.319 Q1497.86 179.319 1501.87 178.266 Q1505.92 177.213 1509.89 175.106 L1509.89 182.155 Q1505.88 183.856 1501.67 184.748 Q1497.46 185.639 1493.12 185.639 Q1482.27 185.639 1475.91 179.319 Q1469.59 173 1469.59 162.225 Q1469.59 151.085 1475.58 144.563 Q1481.62 138 1491.83 138 Q1500.98 138 1506.29 143.914 Q1511.63 149.788 1511.63 159.916 M1504.18 157.728 Q1504.1 151.611 1500.74 147.965 Q1497.42 144.32 1491.91 144.32 Q1485.67 144.32 1481.9 147.844 Q1478.17 151.368 1477.61 157.769 L1504.18 157.728 Z" fill="#000000" fill-rule="nonzero" fill-opacity="1" /><path clip-path="url(#clip780)" d="M1544.89 139.094 L1552.79 139.094 L1566.97 177.172 L1581.15 139.094 L1589.05 139.094 L1572.03 184.464 L1561.91 184.464 L1544.89 139.094 Z" fill="#000000" fill-rule="nonzero" fill-opacity="1" /><path clip-path="url(#clip780)" d="M1628.26 140.431 L1628.26 147.479 Q1625.1 145.859 1621.7 145.049 Q1618.3 144.239 1614.65 144.239 Q1609.1 144.239 1606.3 145.94 Q1603.55 147.641 1603.55 151.044 Q1603.55 153.637 1605.53 155.135 Q1607.52 156.594 1613.52 157.931 L1616.07 158.498 Q1624.01 160.199 1627.33 163.318 Q1630.69 166.397 1630.69 171.947 Q1630.69 178.266 1625.67 181.952 Q1620.69 185.639 1611.94 185.639 Q1608.29 185.639 1604.32 184.91 Q1600.39 184.221 1596.02 182.803 L1596.02 175.106 Q1600.15 177.253 1604.16 178.347 Q1608.17 179.4 1612.1 179.4 Q1617.36 179.4 1620.2 177.618 Q1623.03 175.795 1623.03 172.514 Q1623.03 169.476 1620.97 167.855 Q1618.94 166.235 1612.02 164.736 L1609.42 164.128 Q1602.5 162.67 1599.42 159.672 Q1596.34 156.634 1596.34 151.368 Q1596.34 144.968 1600.88 141.484 Q1605.41 138 1613.76 138 Q1617.89 138 1621.54 138.608 Q1625.18 139.215 1628.26 140.431 Z" fill="#000000" fill-rule="nonzero" fill-opacity="1" /><path clip-path="url(#clip780)" d="M1698.79 161.252 Q1698.79 153.151 1695.42 148.695 Q1692.1 144.239 1686.07 144.239 Q1680.07 144.239 1676.71 148.695 Q1673.39 153.151 1673.39 161.252 Q1673.39 169.314 1676.71 173.77 Q1680.07 178.226 1686.07 178.226 Q1692.1 178.226 1695.42 173.77 Q1698.79 169.314 1698.79 161.252 M1706.24 178.833 Q1706.24 190.419 1701.1 196.05 Q1695.95 201.721 1685.34 201.721 Q1681.41 201.721 1677.92 201.113 Q1674.44 200.546 1671.16 199.331 L1671.16 192.08 Q1674.44 193.862 1677.64 194.713 Q1680.84 195.563 1684.16 195.563 Q1691.5 195.563 1695.14 191.715 Q1698.79 187.907 1698.79 180.17 L1698.79 176.484 Q1696.48 180.494 1692.87 182.479 Q1689.27 184.464 1684.24 184.464 Q1675.9 184.464 1670.79 178.104 Q1665.69 171.744 1665.69 161.252 Q1665.69 150.72 1670.79 144.36 Q1675.9 138 1684.24 138 Q1689.27 138 1692.87 139.985 Q1696.48 141.97 1698.79 145.98 L1698.79 139.094 L1706.24 139.094 L1706.24 178.833 Z" fill="#000000" fill-rule="nonzero" fill-opacity="1" /><path clip-path="url(#clip780)" d="M1747.88 146.061 Q1746.63 145.332 1745.13 145.008 Q1743.67 144.644 1741.89 144.644 Q1735.57 144.644 1732.17 148.776 Q1728.8 152.867 1728.8 160.564 L1728.8 184.464 L1721.31 184.464 L1721.31 139.094 L1728.8 139.094 L1728.8 146.142 Q1731.15 142.011 1734.92 140.026 Q1738.69 138 1744.08 138 Q1744.85 138 1745.78 138.122 Q1746.71 138.203 1747.84 138.405 L1747.88 146.061 Z" fill="#000000" fill-rule="nonzero" fill-opacity="1" /><path clip-path="url(#clip780)" d="M1755.7 139.094 L1763.16 139.094 L1763.16 184.464 L1755.7 184.464 L1755.7 139.094 M1755.7 121.432 L1763.16 121.432 L1763.16 130.871 L1755.7 130.871 L1755.7 121.432 Z" fill="#000000" fill-rule="nonzero" fill-opacity="1" /><path clip-path="url(#clip780)" d="M1808.61 145.98 L1808.61 121.432 L1816.06 121.432 L1816.06 184.464 L1808.61 184.464 L1808.61 177.658 Q1806.26 181.709 1802.65 183.694 Q1799.09 185.639 1794.06 185.639 Q1785.84 185.639 1780.66 179.076 Q1775.51 172.514 1775.51 161.819 Q1775.51 151.125 1780.66 144.563 Q1785.84 138 1794.06 138 Q1799.09 138 1802.65 139.985 Q1806.26 141.93 1808.61 145.98 M1783.21 161.819 Q1783.21 170.043 1786.57 174.742 Q1789.97 179.4 1795.89 179.4 Q1801.8 179.4 1805.2 174.742 Q1808.61 170.043 1808.61 161.819 Q1808.61 153.596 1805.2 148.938 Q1801.8 144.239 1795.89 144.239 Q1789.97 144.239 1786.57 148.938 Q1783.21 153.596 1783.21 161.819 Z" fill="#000000" fill-rule="nonzero" fill-opacity="1" /><path clip-path="url(#clip780)" d="M1886.71 140.431 L1886.71 147.479 Q1883.55 145.859 1880.15 145.049 Q1876.74 144.239 1873.1 144.239 Q1867.55 144.239 1864.75 145.94 Q1862 147.641 1862 151.044 Q1862 153.637 1863.98 155.135 Q1865.97 156.594 1871.96 157.931 L1874.51 158.498 Q1882.45 160.199 1885.78 163.318 Q1889.14 166.397 1889.14 171.947 Q1889.14 178.266 1884.12 181.952 Q1879.13 185.639 1870.38 185.639 Q1866.74 185.639 1862.77 184.91 Q1858.84 184.221 1854.46 182.803 L1854.46 175.106 Q1858.59 177.253 1862.61 178.347 Q1866.62 179.4 1870.54 179.4 Q1875.81 179.4 1878.65 177.618 Q1881.48 175.795 1881.48 172.514 Q1881.48 169.476 1879.42 167.855 Q1877.39 166.235 1870.46 164.736 L1867.87 164.128 Q1860.94 162.67 1857.87 159.672 Q1854.79 156.634 1854.79 151.368 Q1854.79 144.968 1859.32 141.484 Q1863.86 138 1872.21 138 Q1876.34 138 1879.98 138.608 Q1883.63 139.215 1886.71 140.431 Z" fill="#000000" fill-rule="nonzero" fill-opacity="1" /><path clip-path="url(#clip780)" d="M1901.01 139.094 L1908.46 139.094 L1908.46 184.464 L1901.01 184.464 L1901.01 139.094 M1901.01 121.432 L1908.46 121.432 L1908.46 130.871 L1901.01 130.871 L1901.01 121.432 Z" fill="#000000" fill-rule="nonzero" fill-opacity="1" /><path clip-path="url(#clip780)" d="M1920.82 139.094 L1956.22 139.094 L1956.22 145.899 L1928.19 178.509 L1956.22 178.509 L1956.22 184.464 L1919.8 184.464 L1919.8 177.658 L1947.84 145.049 L1920.82 145.049 L1920.82 139.094 Z" fill="#000000" fill-rule="nonzero" fill-opacity="1" /><path clip-path="url(#clip780)" d="M2006.41 159.916 L2006.41 163.561 L1972.14 163.561 Q1972.63 171.258 1976.76 175.309 Q1980.93 179.319 1988.35 179.319 Q1992.64 179.319 1996.65 178.266 Q2000.7 177.213 2004.67 175.106 L2004.67 182.155 Q2000.66 183.856 1996.45 184.748 Q1992.23 185.639 1987.9 185.639 Q1977.04 185.639 1970.68 179.319 Q1964.36 173 1964.36 162.225 Q1964.36 151.085 1970.36 144.563 Q1976.4 138 1986.6 138 Q1995.76 138 2001.07 143.914 Q2006.41 149.788 2006.41 159.916 M1998.96 157.728 Q1998.88 151.611 1995.52 147.965 Q1992.19 144.32 1986.68 144.32 Q1980.45 144.32 1976.68 147.844 Q1972.95 151.368 1972.38 157.769 L1998.96 157.728 Z" fill="#000000" fill-rule="nonzero" fill-opacity="1" /><path clip-path="url(#clip780)" d="M2062.92 121.513 Q2057.49 130.83 2054.86 139.945 Q2052.23 149.059 2052.23 158.417 Q2052.23 167.774 2054.86 176.97 Q2057.53 186.125 2062.92 195.401 L2056.44 195.401 Q2050.36 185.882 2047.33 176.686 Q2044.33 167.491 2044.33 158.417 Q2044.33 149.383 2047.33 140.228 Q2050.32 131.073 2056.44 121.513 L2062.92 121.513 Z" fill="#000000" fill-rule="nonzero" fill-opacity="1" /><path clip-path="url(#clip780)" d="M2109.95 161.819 Q2109.95 153.596 2106.55 148.938 Q2103.19 144.239 2097.27 144.239 Q2091.36 144.239 2087.96 148.938 Q2084.59 153.596 2084.59 161.819 Q2084.59 170.043 2087.96 174.742 Q2091.36 179.4 2097.27 179.4 Q2103.19 179.4 2106.55 174.742 Q2109.95 170.043 2109.95 161.819 M2084.59 145.98 Q2086.94 141.93 2090.51 139.985 Q2094.11 138 2099.1 138 Q2107.36 138 2112.51 144.563 Q2117.69 151.125 2117.69 161.819 Q2117.69 172.514 2112.51 179.076 Q2107.36 185.639 2099.1 185.639 Q2094.11 185.639 2090.51 183.694 Q2086.94 181.709 2084.59 177.658 L2084.59 184.464 L2077.1 184.464 L2077.1 121.432 L2084.59 121.432 L2084.59 145.98 Z" fill="#000000" fill-rule="nonzero" fill-opacity="1" /><path clip-path="url(#clip780)" d="M2150.67 161.657 Q2141.63 161.657 2138.15 163.723 Q2134.66 165.789 2134.66 170.772 Q2134.66 174.742 2137.26 177.091 Q2139.89 179.4 2144.39 179.4 Q2150.58 179.4 2154.31 175.025 Q2158.08 170.61 2158.08 163.318 L2158.08 161.657 L2150.67 161.657 M2165.53 158.579 L2165.53 184.464 L2158.08 184.464 L2158.08 177.577 Q2155.53 181.709 2151.72 183.694 Q2147.91 185.639 2142.4 185.639 Q2135.43 185.639 2131.3 181.75 Q2127.21 177.821 2127.21 171.258 Q2127.21 163.602 2132.31 159.713 Q2137.46 155.824 2147.63 155.824 L2158.08 155.824 L2158.08 155.095 Q2158.08 149.95 2154.68 147.155 Q2151.31 144.32 2145.2 144.32 Q2141.31 144.32 2137.62 145.251 Q2133.93 146.183 2130.53 148.046 L2130.53 141.16 Q2134.62 139.58 2138.47 138.81 Q2142.32 138 2145.97 138 Q2155.81 138 2160.67 143.104 Q2165.53 148.208 2165.53 158.579 Z" fill="#000000" fill-rule="nonzero" fill-opacity="1" /><path clip-path="url(#clip780)" d="M2207.18 146.061 Q2205.92 145.332 2204.42 145.008 Q2202.96 144.644 2201.18 144.644 Q2194.86 144.644 2191.46 148.776 Q2188.1 152.867 2188.1 160.564 L2188.1 184.464 L2180.6 184.464 L2180.6 139.094 L2188.1 139.094 L2188.1 146.142 Q2190.44 142.011 2194.21 140.026 Q2197.98 138 2203.37 138 Q2204.14 138 2205.07 138.122 Q2206 138.203 2207.13 138.405 L2207.18 146.061 Z" fill="#000000" fill-rule="nonzero" fill-opacity="1" /><path clip-path="url(#clip780)" d="M2213.82 121.513 L2220.3 121.513 Q2226.38 131.073 2229.37 140.228 Q2232.41 149.383 2232.41 158.417 Q2232.41 167.491 2229.37 176.686 Q2226.38 185.882 2220.3 195.401 L2213.82 195.401 Q2219.21 186.125 2221.84 176.97 Q2224.51 167.774 2224.51 158.417 Q2224.51 149.059 2221.84 139.945 Q2219.21 130.83 2213.82 121.513 Z" fill="#000000" fill-rule="nonzero" fill-opacity="1" /><path clip-path="url(#clip780)" d="M2269.96 158.822 L2344.82 158.822 L2344.82 164.655 L2269.96 164.655 L2269.96 158.822 Z" fill="#000000" fill-rule="nonzero" fill-opacity="1" /><path clip-path="url(#clip780)" d="M2383.07 139.094 L2390.52 139.094 L2390.52 184.464 L2383.07 184.464 L2383.07 139.094 M2383.07 121.432 L2390.52 121.432 L2390.52 130.871 L2383.07 130.871 L2383.07 121.432 Z" fill="#000000" fill-rule="nonzero" fill-opacity="1" /><path clip-path="url(#clip780)" d="M2443.83 157.08 L2443.83 184.464 L2436.38 184.464 L2436.38 157.323 Q2436.38 150.882 2433.86 147.682 Q2431.35 144.482 2426.33 144.482 Q2420.29 144.482 2416.81 148.33 Q2413.33 152.178 2413.33 158.822 L2413.33 184.464 L2405.83 184.464 L2405.83 139.094 L2413.33 139.094 L2413.33 146.142 Q2416 142.051 2419.6 140.026 Q2423.25 138 2427.99 138 Q2435.81 138 2439.82 142.861 Q2443.83 147.682 2443.83 157.08 Z" fill="#000000" fill-rule="nonzero" fill-opacity="1" /><path clip-path="url(#clip780)" d="M2487.62 140.431 L2487.62 147.479 Q2484.46 145.859 2481.06 145.049 Q2477.65 144.239 2474.01 144.239 Q2468.46 144.239 2465.66 145.94 Q2462.91 147.641 2462.91 151.044 Q2462.91 153.637 2464.89 155.135 Q2466.88 156.594 2472.87 157.931 L2475.43 158.498 Q2483.37 160.199 2486.69 163.318 Q2490.05 166.397 2490.05 171.947 Q2490.05 178.266 2485.03 181.952 Q2480.04 185.639 2471.29 185.639 Q2467.65 185.639 2463.68 184.91 Q2459.75 184.221 2455.37 182.803 L2455.37 175.106 Q2459.51 177.253 2463.52 178.347 Q2467.53 179.4 2471.46 179.4 Q2476.72 179.4 2479.56 177.618 Q2482.39 175.795 2482.39 172.514 Q2482.39 169.476 2480.33 167.855 Q2478.3 166.235 2471.38 164.736 L2468.78 164.128 Q2461.86 162.67 2458.78 159.672 Q2455.7 156.634 2455.7 151.368 Q2455.7 144.968 2460.24 141.484 Q2464.77 138 2473.12 138 Q2477.25 138 2480.89 138.608 Q2484.54 139.215 2487.62 140.431 Z" fill="#000000" fill-rule="nonzero" fill-opacity="1" /><path clip-path="url(#clip780)" d="M2501.15 166.559 L2501.15 139.094 L2508.6 139.094 L2508.6 166.275 Q2508.6 172.716 2511.11 175.957 Q2513.63 179.157 2518.65 179.157 Q2524.69 179.157 2528.17 175.309 Q2531.69 171.461 2531.69 164.817 L2531.69 139.094 L2539.15 139.094 L2539.15 184.464 L2531.69 184.464 L2531.69 177.496 Q2528.98 181.628 2525.37 183.654 Q2521.81 185.639 2517.07 185.639 Q2509.25 185.639 2505.2 180.778 Q2501.15 175.917 2501.15 166.559 M2519.9 138 L2519.9 138 Z" fill="#000000" fill-rule="nonzero" fill-opacity="1" /><path clip-path="url(#clip780)" d="M2580.79 146.061 Q2579.53 145.332 2578.04 145.008 Q2576.58 144.644 2574.79 144.644 Q2568.48 144.644 2565.07 148.776 Q2561.71 152.867 2561.71 160.564 L2561.71 184.464 L2554.22 184.464 L2554.22 139.094 L2561.71 139.094 L2561.71 146.142 Q2564.06 142.011 2567.83 140.026 Q2571.59 138 2576.98 138 Q2577.75 138 2578.68 138.122 Q2579.62 138.203 2580.75 138.405 L2580.79 146.061 Z" fill="#000000" fill-rule="nonzero" fill-opacity="1" /><path clip-path="url(#clip780)" d="M2609.23 161.657 Q2600.19 161.657 2596.71 163.723 Q2593.23 165.789 2593.23 170.772 Q2593.23 174.742 2595.82 177.091 Q2598.45 179.4 2602.95 179.4 Q2609.15 179.4 2612.87 175.025 Q2616.64 170.61 2616.64 163.318 L2616.64 161.657 L2609.23 161.657 M2624.09 158.579 L2624.09 184.464 L2616.64 184.464 L2616.64 177.577 Q2614.09 181.709 2610.28 183.694 Q2606.47 185.639 2600.96 185.639 Q2594 185.639 2589.86 181.75 Q2585.77 177.821 2585.77 171.258 Q2585.77 163.602 2590.88 159.713 Q2596.02 155.824 2606.19 155.824 L2616.64 155.824 L2616.64 155.095 Q2616.64 149.95 2613.24 147.155 Q2609.88 144.32 2603.76 144.32 Q2599.87 144.32 2596.18 145.251 Q2592.5 146.183 2589.09 148.046 L2589.09 141.16 Q2593.19 139.58 2597.03 138.81 Q2600.88 138 2604.53 138 Q2614.37 138 2619.23 143.104 Q2624.09 148.208 2624.09 158.579 Z" fill="#000000" fill-rule="nonzero" fill-opacity="1" /><path clip-path="url(#clip780)" d="M2677.16 157.08 L2677.16 184.464 L2669.71 184.464 L2669.71 157.323 Q2669.71 150.882 2667.2 147.682 Q2664.68 144.482 2659.66 144.482 Q2653.63 144.482 2650.14 148.33 Q2646.66 152.178 2646.66 158.822 L2646.66 184.464 L2639.16 184.464 L2639.16 139.094 L2646.66 139.094 L2646.66 146.142 Q2649.33 142.051 2652.94 140.026 Q2656.58 138 2661.32 138 Q2669.14 138 2673.15 142.861 Q2677.16 147.682 2677.16 157.08 Z" fill="#000000" fill-rule="nonzero" fill-opacity="1" /><path clip-path="url(#clip780)" d="M2724.68 140.836 L2724.68 147.803 Q2721.52 146.061 2718.32 145.211 Q2715.16 144.32 2711.92 144.32 Q2704.67 144.32 2700.66 148.938 Q2696.65 153.515 2696.65 161.819 Q2696.65 170.124 2700.66 174.742 Q2704.67 179.319 2711.92 179.319 Q2715.16 179.319 2718.32 178.469 Q2721.52 177.577 2724.68 175.836 L2724.68 182.722 Q2721.56 184.18 2718.2 184.91 Q2714.87 185.639 2711.11 185.639 Q2700.86 185.639 2694.82 179.198 Q2688.79 172.757 2688.79 161.819 Q2688.79 150.72 2694.86 144.36 Q2700.98 138 2711.59 138 Q2715.04 138 2718.32 138.729 Q2721.6 139.418 2724.68 140.836 Z" fill="#000000" fill-rule="nonzero" fill-opacity="1" /><path clip-path="url(#clip780)" d="M2776.45 159.916 L2776.45 163.561 L2742.18 163.561 Q2742.66 171.258 2746.8 175.309 Q2750.97 179.319 2758.38 179.319 Q2762.68 179.319 2766.69 178.266 Q2770.74 177.213 2774.71 175.106 L2774.71 182.155 Q2770.7 183.856 2766.48 184.748 Q2762.27 185.639 2757.94 185.639 Q2747.08 185.639 2740.72 179.319 Q2734.4 173 2734.4 162.225 Q2734.4 151.085 2740.4 144.563 Q2746.43 138 2756.64 138 Q2765.79 138 2771.1 143.914 Q2776.45 149.788 2776.45 159.916 M2769 157.728 Q2768.91 151.611 2765.55 147.965 Q2762.23 144.32 2756.72 144.32 Q2750.48 144.32 2746.72 147.844 Q2742.99 151.368 2742.42 157.769 L2769 157.728 Z" fill="#000000" fill-rule="nonzero" fill-opacity="1" /><path clip-path="url(#clip782)" d="M475.353 2106.35 L475.353 2156.51 L646.824 2156.51 L646.824 2106.35 L475.353 2106.35 L475.353 2106.35  Z" fill="#ffa500" fill-rule="evenodd" fill-opacity="1"/>
<polyline clip-path="url(#clip782)" style="stroke:#000000; stroke-linecap:round; stroke-linejoin:round; stroke-width:0; stroke-opacity:0; fill:none" points="475.353,2106.35 475.353,2156.51 646.824,2156.51 646.824,2106.35 475.353,2106.35 "/>
<path clip-path="url(#clip782)" d="M1291.88 1722.41 L1291.88 2156.51 L1463.35 2156.51 L1463.35 1722.41 L1291.88 1722.41 L1291.88 1722.41  Z" fill="#ffa500" fill-rule="evenodd" fill-opacity="1"/>
<polyline clip-path="url(#clip782)" style="stroke:#000000; stroke-linecap:round; stroke-linejoin:round; stroke-width:0; stroke-opacity:0; fill:none" points="1291.88,1722.41 1291.88,2156.51 1463.35,2156.51 1463.35,1722.41 1291.88,1722.41 "/>
<path clip-path="url(#clip782)" d="M2108.41 1439.66 L2108.41 2156.51 L2279.88 2156.51 L2279.88 1439.66 L2108.41 1439.66 L2108.41 1439.66  Z" fill="#ffa500" fill-rule="evenodd" fill-opacity="1"/>
<polyline clip-path="url(#clip782)" style="stroke:#000000; stroke-linecap:round; stroke-linejoin:round; stroke-width:0; stroke-opacity:0; fill:none" points="2108.41,1439.66 2108.41,2156.51 2279.88,2156.51 2279.88,1439.66 2108.41,1439.66 "/>
<path clip-path="url(#clip782)" d="M2924.94 246.944 L2924.94 2156.51 L3096.42 2156.51 L3096.42 246.944 L2924.94 246.944 L2924.94 246.944  Z" fill="#ffa500" fill-rule="evenodd" fill-opacity="1"/>
<polyline clip-path="url(#clip782)" style="stroke:#000000; stroke-linecap:round; stroke-linejoin:round; stroke-width:0; stroke-opacity:0; fill:none" points="2924.94,246.944 2924.94,2156.51 3096.42,2156.51 3096.42,246.944 2924.94,246.944 "/>
<circle clip-path="url(#clip782)" style="fill:#ffa500; stroke:none; fill-opacity:0" cx="561.088" cy="2106.35" r="2"/>
<circle clip-path="url(#clip782)" style="fill:#ffa500; stroke:none; fill-opacity:0" cx="1377.62" cy="1722.41" r="2"/>
<circle clip-path="url(#clip782)" style="fill:#ffa500; stroke:none; fill-opacity:0" cx="2194.15" cy="1439.66" r="2"/>
<circle clip-path="url(#clip782)" style="fill:#ffa500; stroke:none; fill-opacity:0" cx="3010.68" cy="246.944" r="2"/>
<path clip-path="url(#clip782)" d="M761.138 2153.69 L761.138 2156.51 L932.61 2156.51 L932.61 2153.69 L761.138 2153.69 L761.138 2153.69  Z" fill="#00ffff" fill-rule="evenodd" fill-opacity="1"/>
<polyline clip-path="url(#clip782)" style="stroke:#000000; stroke-linecap:round; stroke-linejoin:round; stroke-width:0; stroke-opacity:0; fill:none" points="761.138,2153.69 761.138,2156.51 932.61,2156.51 932.61,2153.69 761.138,2153.69 "/>
<path clip-path="url(#clip782)" d="M1577.67 2137.93 L1577.67 2156.51 L1749.14 2156.51 L1749.14 2137.93 L1577.67 2137.93 L1577.67 2137.93  Z" fill="#00ffff" fill-rule="evenodd" fill-opacity="1"/>
<polyline clip-path="url(#clip782)" style="stroke:#000000; stroke-linecap:round; stroke-linejoin:round; stroke-width:0; stroke-opacity:0; fill:none" points="1577.67,2137.93 1577.67,2156.51 1749.14,2156.51 1749.14,2137.93 1577.67,2137.93 "/>
<path clip-path="url(#clip782)" d="M2394.2 2106.76 L2394.2 2156.51 L2565.67 2156.51 L2565.67 2106.76 L2394.2 2106.76 L2394.2 2106.76  Z" fill="#00ffff" fill-rule="evenodd" fill-opacity="1"/>
<polyline clip-path="url(#clip782)" style="stroke:#000000; stroke-linecap:round; stroke-linejoin:round; stroke-width:0; stroke-opacity:0; fill:none" points="2394.2,2106.76 2394.2,2156.51 2565.67,2156.51 2565.67,2106.76 2394.2,2106.76 "/>
<path clip-path="url(#clip782)" d="M3210.73 2136.53 L3210.73 2156.51 L3382.2 2156.51 L3382.2 2136.53 L3210.73 2136.53 L3210.73 2136.53  Z" fill="#00ffff" fill-rule="evenodd" fill-opacity="1"/>
<polyline clip-path="url(#clip782)" style="stroke:#000000; stroke-linecap:round; stroke-linejoin:round; stroke-width:0; stroke-opacity:0; fill:none" points="3210.73,2136.53 3210.73,2156.51 3382.2,2156.51 3382.2,2136.53 3210.73,2136.53 "/>
<circle clip-path="url(#clip782)" style="fill:#00ffff; stroke:none; fill-opacity:0" cx="846.874" cy="2153.69" r="2"/>
<circle clip-path="url(#clip782)" style="fill:#00ffff; stroke:none; fill-opacity:0" cx="1663.4" cy="2137.93" r="2"/>
<circle clip-path="url(#clip782)" style="fill:#00ffff; stroke:none; fill-opacity:0" cx="2479.93" cy="2106.76" r="2"/>
<circle clip-path="url(#clip782)" style="fill:#00ffff; stroke:none; fill-opacity:0" cx="3296.47" cy="2136.53" r="2"/>
<path clip-path="url(#clip780)" d="M413.063 466.116 L1174.85 466.116 L1174.85 310.596 L413.063 310.596  Z" fill="#ffffff" fill-rule="evenodd" fill-opacity="1"/>
<polyline clip-path="url(#clip780)" style="stroke:#000000; stroke-linecap:round; stroke-linejoin:round; stroke-width:4; stroke-opacity:1; fill:none" points="413.063,466.116 1174.85,466.116 1174.85,310.596 413.063,310.596 413.063,466.116 "/>
<path clip-path="url(#clip780)" d="M449.151 383.172 L665.682 383.172 L665.682 341.7 L449.151 341.7 L449.151 383.172  Z" fill="#ffa500" fill-rule="evenodd" fill-opacity="1"/>
<polyline clip-path="url(#clip780)" style="stroke:#000000; stroke-linecap:round; stroke-linejoin:round; stroke-width:0.8; stroke-opacity:0; fill:none" points="449.151,383.172 665.682,383.172 665.682,341.7 449.151,341.7 449.151,383.172 "/>
<path clip-path="url(#clip780)" d="M712.395 343.744 Q709.293 349.068 707.789 354.277 Q706.284 359.485 706.284 364.832 Q706.284 370.179 707.789 375.434 Q709.317 380.665 712.395 385.966 L708.692 385.966 Q705.219 380.527 703.483 375.272 Q701.77 370.017 701.77 364.832 Q701.77 359.67 703.483 354.439 Q705.196 349.207 708.692 343.744 L712.395 343.744 Z" fill="#000000" fill-rule="nonzero" fill-opacity="1" /><path clip-path="url(#clip780)" d="M742.835 365.689 L742.835 367.772 L723.252 367.772 Q723.529 372.17 725.891 374.485 Q728.275 376.777 732.511 376.777 Q734.965 376.777 737.256 376.175 Q739.571 375.573 741.839 374.369 L741.839 378.397 Q739.548 379.369 737.14 379.878 Q734.733 380.388 732.256 380.388 Q726.053 380.388 722.418 376.777 Q718.807 373.165 718.807 367.008 Q718.807 360.642 722.233 356.916 Q725.682 353.166 731.515 353.166 Q736.747 353.166 739.779 356.545 Q742.835 359.902 742.835 365.689 M738.576 364.439 Q738.529 360.943 736.608 358.86 Q734.71 356.777 731.562 356.777 Q727.997 356.777 725.844 358.791 Q723.715 360.804 723.391 364.462 L738.576 364.439 Z" fill="#000000" fill-rule="nonzero" fill-opacity="1" /><path clip-path="url(#clip780)" d="M770.543 353.791 L761.168 366.406 L771.029 379.716 L766.006 379.716 L758.46 369.531 L750.914 379.716 L745.89 379.716 L755.96 366.152 L746.747 353.791 L751.77 353.791 L758.645 363.027 L765.52 353.791 L770.543 353.791 Z" fill="#000000" fill-rule="nonzero" fill-opacity="1" /><path clip-path="url(#clip780)" d="M788.83 366.684 Q783.668 366.684 781.677 367.865 Q779.687 369.045 779.687 371.892 Q779.687 374.161 781.168 375.503 Q782.673 376.823 785.242 376.823 Q788.784 376.823 790.913 374.323 Q793.066 371.8 793.066 367.633 L793.066 366.684 L788.83 366.684 M797.325 364.925 L797.325 379.716 L793.066 379.716 L793.066 375.781 Q791.608 378.142 789.432 379.277 Q787.256 380.388 784.108 380.388 Q780.126 380.388 777.765 378.165 Q775.427 375.92 775.427 372.17 Q775.427 367.795 778.344 365.573 Q781.284 363.351 787.094 363.351 L793.066 363.351 L793.066 362.934 Q793.066 359.994 791.122 358.397 Q789.2 356.777 785.705 356.777 Q783.483 356.777 781.376 357.309 Q779.27 357.841 777.325 358.906 L777.325 354.971 Q779.663 354.068 781.862 353.629 Q784.061 353.166 786.145 353.166 Q791.77 353.166 794.548 356.082 Q797.325 358.999 797.325 364.925 Z" fill="#000000" fill-rule="nonzero" fill-opacity="1" /><path clip-path="url(#clip780)" d="M807.186 373.837 L812.071 373.837 L812.071 377.818 L808.274 385.226 L805.288 385.226 L807.186 377.818 L807.186 373.837 Z" fill="#000000" fill-rule="nonzero" fill-opacity="1" /><path clip-path="url(#clip780)" d="M856.422 358.767 Q858.019 355.897 860.242 354.531 Q862.464 353.166 865.473 353.166 Q869.524 353.166 871.723 356.013 Q873.922 358.837 873.922 364.068 L873.922 379.716 L869.64 379.716 L869.64 364.207 Q869.64 360.48 868.32 358.675 Q867.001 356.869 864.293 356.869 Q860.982 356.869 859.061 359.068 Q857.14 361.267 857.14 365.064 L857.14 379.716 L852.857 379.716 L852.857 364.207 Q852.857 360.457 851.538 358.675 Q850.219 356.869 847.464 356.869 Q844.2 356.869 842.279 359.091 Q840.357 361.291 840.357 365.064 L840.357 379.716 L836.075 379.716 L836.075 353.791 L840.357 353.791 L840.357 357.818 Q841.816 355.434 843.853 354.3 Q845.89 353.166 848.691 353.166 Q851.515 353.166 853.482 354.601 Q855.473 356.036 856.422 358.767 Z" fill="#000000" fill-rule="nonzero" fill-opacity="1" /><path clip-path="url(#clip780)" d="M894.2 366.684 Q889.038 366.684 887.047 367.865 Q885.056 369.045 885.056 371.892 Q885.056 374.161 886.538 375.503 Q888.042 376.823 890.612 376.823 Q894.153 376.823 896.283 374.323 Q898.436 371.8 898.436 367.633 L898.436 366.684 L894.2 366.684 M902.695 364.925 L902.695 379.716 L898.436 379.716 L898.436 375.781 Q896.978 378.142 894.802 379.277 Q892.626 380.388 889.478 380.388 Q885.496 380.388 883.135 378.165 Q880.797 375.92 880.797 372.17 Q880.797 367.795 883.714 365.573 Q886.654 363.351 892.464 363.351 L898.436 363.351 L898.436 362.934 Q898.436 359.994 896.491 358.397 Q894.57 356.777 891.075 356.777 Q888.853 356.777 886.746 357.309 Q884.64 357.841 882.695 358.906 L882.695 354.971 Q885.033 354.068 887.232 353.629 Q889.431 353.166 891.515 353.166 Q897.14 353.166 899.917 356.082 Q902.695 358.999 902.695 364.925 Z" fill="#000000" fill-rule="nonzero" fill-opacity="1" /><path clip-path="url(#clip780)" d="M928.528 357.726 L928.528 343.698 L932.788 343.698 L932.788 379.716 L928.528 379.716 L928.528 375.827 Q927.186 378.142 925.126 379.277 Q923.089 380.388 920.218 380.388 Q915.519 380.388 912.556 376.638 Q909.616 372.888 909.616 366.777 Q909.616 360.666 912.556 356.916 Q915.519 353.166 920.218 353.166 Q923.089 353.166 925.126 354.3 Q927.186 355.411 928.528 357.726 M914.014 366.777 Q914.014 371.476 915.936 374.161 Q917.88 376.823 921.26 376.823 Q924.639 376.823 926.584 374.161 Q928.528 371.476 928.528 366.777 Q928.528 362.078 926.584 359.416 Q924.639 356.73 921.26 356.73 Q917.88 356.73 915.936 359.416 Q914.014 362.078 914.014 366.777 Z" fill="#000000" fill-rule="nonzero" fill-opacity="1" /><path clip-path="url(#clip780)" d="M963.111 364.068 L963.111 379.716 L958.852 379.716 L958.852 364.207 Q958.852 360.527 957.417 358.698 Q955.982 356.869 953.112 356.869 Q949.662 356.869 947.672 359.068 Q945.681 361.267 945.681 365.064 L945.681 379.716 L941.399 379.716 L941.399 353.791 L945.681 353.791 L945.681 357.818 Q947.209 355.48 949.269 354.323 Q951.352 353.166 954.061 353.166 Q958.528 353.166 960.82 355.943 Q963.111 358.698 963.111 364.068 Z" fill="#000000" fill-rule="nonzero" fill-opacity="1" /><path clip-path="url(#clip780)" d="M971.607 343.698 L975.866 343.698 L975.866 379.716 L971.607 379.716 L971.607 343.698 Z" fill="#000000" fill-rule="nonzero" fill-opacity="1" /><path clip-path="url(#clip780)" d="M988.898 375.827 L988.898 389.577 L984.616 389.577 L984.616 353.791 L988.898 353.791 L988.898 357.726 Q990.241 355.411 992.278 354.3 Q994.338 353.166 997.185 353.166 Q1001.91 353.166 1004.85 356.916 Q1007.81 360.666 1007.81 366.777 Q1007.81 372.888 1004.85 376.638 Q1001.91 380.388 997.185 380.388 Q994.338 380.388 992.278 379.277 Q990.241 378.142 988.898 375.827 M1003.39 366.777 Q1003.39 362.078 1001.44 359.416 Q999.523 356.73 996.144 356.73 Q992.764 356.73 990.82 359.416 Q988.898 362.078 988.898 366.777 Q988.898 371.476 990.82 374.161 Q992.764 376.823 996.144 376.823 Q999.523 376.823 1001.44 374.161 Q1003.39 371.476 1003.39 366.777 Z" fill="#000000" fill-rule="nonzero" fill-opacity="1" /><path clip-path="url(#clip780)" d="M1014.2 343.744 L1017.9 343.744 Q1021.38 349.207 1023.09 354.439 Q1024.82 359.67 1024.82 364.832 Q1024.82 370.017 1023.09 375.272 Q1021.38 380.527 1017.9 385.966 L1014.2 385.966 Q1017.28 380.665 1018.78 375.434 Q1020.31 370.179 1020.31 364.832 Q1020.31 359.485 1018.78 354.277 Q1017.28 349.068 1014.2 343.744 Z" fill="#000000" fill-rule="nonzero" fill-opacity="1" /><path clip-path="url(#clip780)" d="M449.151 435.012 L665.682 435.012 L665.682 393.54 L449.151 393.54 L449.151 435.012  Z" fill="#00ffff" fill-rule="evenodd" fill-opacity="1"/>
<polyline clip-path="url(#clip780)" style="stroke:#000000; stroke-linecap:round; stroke-linejoin:round; stroke-width:0.8; stroke-opacity:0; fill:none" points="449.151,435.012 665.682,435.012 665.682,393.54 449.151,393.54 449.151,435.012 "/>
<path clip-path="url(#clip780)" d="M712.395 395.584 Q709.293 400.908 707.789 406.117 Q706.284 411.325 706.284 416.672 Q706.284 422.019 707.789 427.274 Q709.317 432.505 712.395 437.806 L708.692 437.806 Q705.219 432.367 703.483 427.112 Q701.77 421.857 701.77 416.672 Q701.77 411.51 703.483 406.279 Q705.196 401.047 708.692 395.584 L712.395 395.584 Z" fill="#000000" fill-rule="nonzero" fill-opacity="1" /><path clip-path="url(#clip780)" d="M742.835 417.529 L742.835 419.612 L723.252 419.612 Q723.529 424.01 725.891 426.325 Q728.275 428.617 732.511 428.617 Q734.965 428.617 737.256 428.015 Q739.571 427.413 741.839 426.209 L741.839 430.237 Q739.548 431.209 737.14 431.718 Q734.733 432.228 732.256 432.228 Q726.053 432.228 722.418 428.617 Q718.807 425.005 718.807 418.848 Q718.807 412.482 722.233 408.756 Q725.682 405.006 731.515 405.006 Q736.747 405.006 739.779 408.385 Q742.835 411.742 742.835 417.529 M738.576 416.279 Q738.529 412.783 736.608 410.7 Q734.71 408.617 731.562 408.617 Q727.997 408.617 725.844 410.631 Q723.715 412.644 723.391 416.302 L738.576 416.279 Z" fill="#000000" fill-rule="nonzero" fill-opacity="1" /><path clip-path="url(#clip780)" d="M770.543 405.631 L761.168 418.246 L771.029 431.556 L766.006 431.556 L758.46 421.371 L750.914 431.556 L745.89 431.556 L755.96 417.992 L746.747 405.631 L751.77 405.631 L758.645 414.867 L765.52 405.631 L770.543 405.631 Z" fill="#000000" fill-rule="nonzero" fill-opacity="1" /><path clip-path="url(#clip780)" d="M788.83 418.524 Q783.668 418.524 781.677 419.705 Q779.687 420.885 779.687 423.732 Q779.687 426.001 781.168 427.343 Q782.673 428.663 785.242 428.663 Q788.784 428.663 790.913 426.163 Q793.066 423.64 793.066 419.473 L793.066 418.524 L788.83 418.524 M797.325 416.765 L797.325 431.556 L793.066 431.556 L793.066 427.621 Q791.608 429.982 789.432 431.117 Q787.256 432.228 784.108 432.228 Q780.126 432.228 777.765 430.005 Q775.427 427.76 775.427 424.01 Q775.427 419.635 778.344 417.413 Q781.284 415.191 787.094 415.191 L793.066 415.191 L793.066 414.774 Q793.066 411.834 791.122 410.237 Q789.2 408.617 785.705 408.617 Q783.483 408.617 781.376 409.149 Q779.27 409.681 777.325 410.746 L777.325 406.811 Q779.663 405.908 781.862 405.469 Q784.061 405.006 786.145 405.006 Q791.77 405.006 794.548 407.922 Q797.325 410.839 797.325 416.765 Z" fill="#000000" fill-rule="nonzero" fill-opacity="1" /><path clip-path="url(#clip780)" d="M825.797 439.427 L825.797 442.737 L801.168 442.737 L801.168 439.427 L825.797 439.427 Z" fill="#000000" fill-rule="nonzero" fill-opacity="1" /><path clip-path="url(#clip780)" d="M846.862 418.293 Q846.862 413.663 844.941 411.117 Q843.043 408.57 839.594 408.57 Q836.168 408.57 834.246 411.117 Q832.348 413.663 832.348 418.293 Q832.348 422.899 834.246 425.445 Q836.168 427.992 839.594 427.992 Q843.043 427.992 844.941 425.445 Q846.862 422.899 846.862 418.293 M851.121 428.339 Q851.121 434.959 848.182 438.177 Q845.242 441.417 839.177 441.417 Q836.932 441.417 834.941 441.07 Q832.95 440.746 831.075 440.052 L831.075 435.908 Q832.95 436.927 834.779 437.413 Q836.608 437.899 838.506 437.899 Q842.695 437.899 844.779 435.7 Q846.862 433.524 846.862 429.103 L846.862 426.996 Q845.543 429.288 843.482 430.422 Q841.422 431.556 838.552 431.556 Q833.783 431.556 830.867 427.922 Q827.95 424.288 827.95 418.293 Q827.95 412.274 830.867 408.64 Q833.783 405.006 838.552 405.006 Q841.422 405.006 843.482 406.14 Q845.543 407.274 846.862 409.566 L846.862 405.631 L851.121 405.631 L851.121 428.339 Z" fill="#000000" fill-rule="nonzero" fill-opacity="1" /><path clip-path="url(#clip780)" d="M864.015 427.667 L864.015 441.417 L859.732 441.417 L859.732 405.631 L864.015 405.631 L864.015 409.566 Q865.357 407.251 867.394 406.14 Q869.455 405.006 872.302 405.006 Q877.024 405.006 879.964 408.756 Q882.927 412.506 882.927 418.617 Q882.927 424.728 879.964 428.478 Q877.024 432.228 872.302 432.228 Q869.455 432.228 867.394 431.117 Q865.357 429.982 864.015 427.667 M878.505 418.617 Q878.505 413.918 876.561 411.256 Q874.64 408.57 871.26 408.57 Q867.88 408.57 865.936 411.256 Q864.015 413.918 864.015 418.617 Q864.015 423.316 865.936 426.001 Q867.88 428.663 871.26 428.663 Q874.64 428.663 876.561 426.001 Q878.505 423.316 878.505 418.617 Z" fill="#000000" fill-rule="nonzero" fill-opacity="1" /><path clip-path="url(#clip780)" d="M889.547 421.325 L889.547 405.631 L893.806 405.631 L893.806 421.163 Q893.806 424.843 895.241 426.695 Q896.677 428.524 899.547 428.524 Q902.996 428.524 904.987 426.325 Q907.001 424.126 907.001 420.33 L907.001 405.631 L911.26 405.631 L911.26 431.556 L907.001 431.556 L907.001 427.575 Q905.45 429.936 903.39 431.093 Q901.353 432.228 898.644 432.228 Q894.177 432.228 891.862 429.45 Q889.547 426.672 889.547 421.325 M900.265 405.006 L900.265 405.006 Z" fill="#000000" fill-rule="nonzero" fill-opacity="1" /><path clip-path="url(#clip780)" d="M921.121 425.677 L926.005 425.677 L926.005 429.658 L922.209 437.066 L919.223 437.066 L921.121 429.658 L921.121 425.677 Z" fill="#000000" fill-rule="nonzero" fill-opacity="1" /><path clip-path="url(#clip780)" d="M970.357 410.607 Q971.954 407.737 974.176 406.371 Q976.398 405.006 979.408 405.006 Q983.459 405.006 985.658 407.853 Q987.857 410.677 987.857 415.908 L987.857 431.556 L983.574 431.556 L983.574 416.047 Q983.574 412.32 982.255 410.515 Q980.935 408.709 978.227 408.709 Q974.917 408.709 972.996 410.908 Q971.074 413.107 971.074 416.904 L971.074 431.556 L966.792 431.556 L966.792 416.047 Q966.792 412.297 965.473 410.515 Q964.153 408.709 961.398 408.709 Q958.135 408.709 956.213 410.931 Q954.292 413.131 954.292 416.904 L954.292 431.556 L950.01 431.556 L950.01 405.631 L954.292 405.631 L954.292 409.658 Q955.75 407.274 957.787 406.14 Q959.824 405.006 962.625 405.006 Q965.449 405.006 967.417 406.441 Q969.408 407.876 970.357 410.607 Z" fill="#000000" fill-rule="nonzero" fill-opacity="1" /><path clip-path="url(#clip780)" d="M1008.13 418.524 Q1002.97 418.524 1000.98 419.705 Q998.991 420.885 998.991 423.732 Q998.991 426.001 1000.47 427.343 Q1001.98 428.663 1004.55 428.663 Q1008.09 428.663 1010.22 426.163 Q1012.37 423.64 1012.37 419.473 L1012.37 418.524 L1008.13 418.524 M1016.63 416.765 L1016.63 431.556 L1012.37 431.556 L1012.37 427.621 Q1010.91 429.982 1008.74 431.117 Q1006.56 432.228 1003.41 432.228 Q999.431 432.228 997.07 430.005 Q994.732 427.76 994.732 424.01 Q994.732 419.635 997.648 417.413 Q1000.59 415.191 1006.4 415.191 L1012.37 415.191 L1012.37 414.774 Q1012.37 411.834 1010.43 410.237 Q1008.5 408.617 1005.01 408.617 Q1002.79 408.617 1000.68 409.149 Q998.574 409.681 996.63 410.746 L996.63 406.811 Q998.968 405.908 1001.17 405.469 Q1003.37 405.006 1005.45 405.006 Q1011.07 405.006 1013.85 407.922 Q1016.63 410.839 1016.63 416.765 Z" fill="#000000" fill-rule="nonzero" fill-opacity="1" /><path clip-path="url(#clip780)" d="M1042.46 409.566 L1042.46 395.538 L1046.72 395.538 L1046.72 431.556 L1042.46 431.556 L1042.46 427.667 Q1041.12 429.982 1039.06 431.117 Q1037.02 432.228 1034.15 432.228 Q1029.45 432.228 1026.49 428.478 Q1023.55 424.728 1023.55 418.617 Q1023.55 412.506 1026.49 408.756 Q1029.45 405.006 1034.15 405.006 Q1037.02 405.006 1039.06 406.14 Q1041.12 407.251 1042.46 409.566 M1027.95 418.617 Q1027.95 423.316 1029.87 426.001 Q1031.81 428.663 1035.19 428.663 Q1038.57 428.663 1040.52 426.001 Q1042.46 423.316 1042.46 418.617 Q1042.46 413.918 1040.52 411.256 Q1038.57 408.57 1035.19 408.57 Q1031.81 408.57 1029.87 411.256 Q1027.95 413.918 1027.95 418.617 Z" fill="#000000" fill-rule="nonzero" fill-opacity="1" /><path clip-path="url(#clip780)" d="M1077.05 415.908 L1077.05 431.556 L1072.79 431.556 L1072.79 416.047 Q1072.79 412.367 1071.35 410.538 Q1069.92 408.709 1067.05 408.709 Q1063.6 408.709 1061.61 410.908 Q1059.62 413.107 1059.62 416.904 L1059.62 431.556 L1055.33 431.556 L1055.33 405.631 L1059.62 405.631 L1059.62 409.658 Q1061.14 407.32 1063.2 406.163 Q1065.29 405.006 1068 405.006 Q1072.46 405.006 1074.75 407.783 Q1077.05 410.538 1077.05 415.908 Z" fill="#000000" fill-rule="nonzero" fill-opacity="1" /><path clip-path="url(#clip780)" d="M1085.54 395.538 L1089.8 395.538 L1089.8 431.556 L1085.54 431.556 L1085.54 395.538 Z" fill="#000000" fill-rule="nonzero" fill-opacity="1" /><path clip-path="url(#clip780)" d="M1102.83 427.667 L1102.83 441.417 L1098.55 441.417 L1098.55 405.631 L1102.83 405.631 L1102.83 409.566 Q1104.18 407.251 1106.21 406.14 Q1108.27 405.006 1111.12 405.006 Q1115.84 405.006 1118.78 408.756 Q1121.74 412.506 1121.74 418.617 Q1121.74 424.728 1118.78 428.478 Q1115.84 432.228 1111.12 432.228 Q1108.27 432.228 1106.21 431.117 Q1104.18 429.982 1102.83 427.667 M1117.32 418.617 Q1117.32 413.918 1115.38 411.256 Q1113.46 408.57 1110.08 408.57 Q1106.7 408.57 1104.75 411.256 Q1102.83 413.918 1102.83 418.617 Q1102.83 423.316 1104.75 426.001 Q1106.7 428.663 1110.08 428.663 Q1113.46 428.663 1115.38 426.001 Q1117.32 423.316 1117.32 418.617 Z" fill="#000000" fill-rule="nonzero" fill-opacity="1" /><path clip-path="url(#clip780)" d="M1128.13 395.584 L1131.84 395.584 Q1135.31 401.047 1137.02 406.279 Q1138.76 411.51 1138.76 416.672 Q1138.76 421.857 1137.02 427.112 Q1135.31 432.367 1131.84 437.806 L1128.13 437.806 Q1131.21 432.505 1132.72 427.274 Q1134.24 422.019 1134.24 416.672 Q1134.24 411.325 1132.72 406.117 Q1131.21 400.908 1128.13 395.584 Z" fill="#000000" fill-rule="nonzero" fill-opacity="1" /></svg>
