<?xml version="1.0" encoding="utf-8"?>
<svg xmlns="http://www.w3.org/2000/svg" xmlns:xlink="http://www.w3.org/1999/xlink" width="900" height="600" viewBox="0 0 3600 2400">
<defs>
  <clipPath id="clip230">
    <rect x="0" y="0" width="3600" height="2400"/>
  </clipPath>
</defs>
<path clip-path="url(#clip230)" d="M0 2400 L3600 2400 L3600 0 L0 0  Z" fill="#ffffff" fill-rule="evenodd" fill-opacity="1"/>
<defs>
  <clipPath id="clip231">
    <rect x="720" y="0" width="2521" height="2400"/>
  </clipPath>
</defs>
<path clip-path="url(#clip230)" d="M272.9 2156.51 L3552.76 2156.51 L3552.76 246.944 L272.9 246.944  Z" fill="#ffffff" fill-rule="evenodd" fill-opacity="1"/>
<defs>
  <clipPath id="clip232">
    <rect x="272" y="246" width="3281" height="1911"/>
  </clipPath>
</defs>
<polyline clip-path="url(#clip232)" style="stroke:#000000; stroke-linecap:round; stroke-linejoin:round; stroke-width:2; stroke-opacity:0.1; fill:none" points="398.085,2156.51 398.085,246.944 "/>
<polyline clip-path="url(#clip232)" style="stroke:#000000; stroke-linecap:round; stroke-linejoin:round; stroke-width:2; stroke-opacity:0.1; fill:none" points="585.863,2156.51 585.863,246.944 "/>
<polyline clip-path="url(#clip232)" style="stroke:#000000; stroke-linecap:round; stroke-linejoin:round; stroke-width:2; stroke-opacity:0.1; fill:none" points="898.826,2156.51 898.826,246.944 "/>
<polyline clip-path="url(#clip232)" style="stroke:#000000; stroke-linecap:round; stroke-linejoin:round; stroke-width:2; stroke-opacity:0.1; fill:none" points="1524.75,2156.51 1524.75,246.944 "/>
<polyline clip-path="url(#clip232)" style="stroke:#000000; stroke-linecap:round; stroke-linejoin:round; stroke-width:2; stroke-opacity:0.1; fill:none" points="3402.53,2156.51 3402.53,246.944 "/>
<polyline clip-path="url(#clip232)" style="stroke:#000000; stroke-linecap:round; stroke-linejoin:round; stroke-width:2; stroke-opacity:0.1; fill:none" points="272.9,2111.91 3552.76,2111.91 "/>
<polyline clip-path="url(#clip232)" style="stroke:#000000; stroke-linecap:round; stroke-linejoin:round; stroke-width:2; stroke-opacity:0.1; fill:none" points="272.9,1517.86 3552.76,1517.86 "/>
<polyline clip-path="url(#clip232)" style="stroke:#000000; stroke-linecap:round; stroke-linejoin:round; stroke-width:2; stroke-opacity:0.1; fill:none" points="272.9,923.808 3552.76,923.808 "/>
<polyline clip-path="url(#clip232)" style="stroke:#000000; stroke-linecap:round; stroke-linejoin:round; stroke-width:2; stroke-opacity:0.1; fill:none" points="272.9,329.757 3552.76,329.757 "/>
<polyline clip-path="url(#clip230)" style="stroke:#000000; stroke-linecap:round; stroke-linejoin:round; stroke-width:4; stroke-opacity:1; fill:none" points="272.9,2156.51 3552.76,2156.51 "/>
<polyline clip-path="url(#clip230)" style="stroke:#000000; stroke-linecap:round; stroke-linejoin:round; stroke-width:4; stroke-opacity:1; fill:none" points="398.085,2156.51 398.085,2137.61 "/>
<polyline clip-path="url(#clip230)" style="stroke:#000000; stroke-linecap:round; stroke-linejoin:round; stroke-width:4; stroke-opacity:1; fill:none" points="585.863,2156.51 585.863,2137.61 "/>
<polyline clip-path="url(#clip230)" style="stroke:#000000; stroke-linecap:round; stroke-linejoin:round; stroke-width:4; stroke-opacity:1; fill:none" points="898.826,2156.51 898.826,2137.61 "/>
<polyline clip-path="url(#clip230)" style="stroke:#000000; stroke-linecap:round; stroke-linejoin:round; stroke-width:4; stroke-opacity:1; fill:none" points="1524.75,2156.51 1524.75,2137.61 "/>
<polyline clip-path="url(#clip230)" style="stroke:#000000; stroke-linecap:round; stroke-linejoin:round; stroke-width:4; stroke-opacity:1; fill:none" points="3402.53,2156.51 3402.53,2137.61 "/>
<path clip-path="url(#clip230)" d="M361.777 2224.57 L378.097 2224.57 L378.097 2228.51 L356.152 2228.51 L356.152 2224.57 Q358.814 2221.82 363.398 2217.19 Q368.004 2212.54 369.185 2211.19 Q371.43 2208.67 372.31 2206.93 Q373.212 2205.17 373.212 2203.48 Q373.212 2200.73 371.268 2198.99 Q369.347 2197.26 366.245 2197.26 Q364.046 2197.26 361.592 2198.02 Q359.162 2198.79 356.384 2200.34 L356.384 2195.61 Q359.208 2194.48 361.662 2193.9 Q364.115 2193.32 366.152 2193.32 Q371.523 2193.32 374.717 2196.01 Q377.911 2198.69 377.911 2203.18 Q377.911 2205.31 377.101 2207.23 Q376.314 2209.13 374.208 2211.73 Q373.629 2212.4 370.527 2215.61 Q367.425 2218.81 361.777 2224.57 Z" fill="#000000" fill-rule="nonzero" fill-opacity="1" /><path clip-path="url(#clip230)" d="M397.911 2197.03 Q394.3 2197.03 392.472 2200.59 Q390.666 2204.13 390.666 2211.26 Q390.666 2218.37 392.472 2221.93 Q394.3 2225.48 397.911 2225.48 Q401.546 2225.48 403.351 2221.93 Q405.18 2218.37 405.18 2211.26 Q405.18 2204.13 403.351 2200.59 Q401.546 2197.03 397.911 2197.03 M397.911 2193.32 Q403.721 2193.32 406.777 2197.93 Q409.856 2202.51 409.856 2211.26 Q409.856 2219.99 406.777 2224.6 Q403.721 2229.18 397.911 2229.18 Q392.101 2229.18 389.023 2224.6 Q385.967 2219.99 385.967 2211.26 Q385.967 2202.51 389.023 2197.93 Q392.101 2193.32 397.911 2193.32 Z" fill="#000000" fill-rule="nonzero" fill-opacity="1" /><path clip-path="url(#clip230)" d="M428.073 2197.03 Q424.462 2197.03 422.633 2200.59 Q420.828 2204.13 420.828 2211.26 Q420.828 2218.37 422.633 2221.93 Q424.462 2225.48 428.073 2225.48 Q431.707 2225.48 433.513 2221.93 Q435.342 2218.37 435.342 2211.26 Q435.342 2204.13 433.513 2200.59 Q431.707 2197.03 428.073 2197.03 M428.073 2193.32 Q433.883 2193.32 436.939 2197.93 Q440.018 2202.51 440.018 2211.26 Q440.018 2219.99 436.939 2224.6 Q433.883 2229.18 428.073 2229.18 Q422.263 2229.18 419.184 2224.6 Q416.129 2219.99 416.129 2211.26 Q416.129 2202.51 419.184 2197.93 Q422.263 2193.32 428.073 2193.32 Z" fill="#000000" fill-rule="nonzero" fill-opacity="1" /><path clip-path="url(#clip230)" d="M545.481 2193.95 L563.838 2193.95 L563.838 2197.88 L549.764 2197.88 L549.764 2206.36 Q550.782 2206.01 551.801 2205.85 Q552.819 2205.66 553.838 2205.66 Q559.625 2205.66 563.004 2208.83 Q566.384 2212 566.384 2217.42 Q566.384 2223 562.912 2226.1 Q559.44 2229.18 553.12 2229.18 Q550.944 2229.18 548.676 2228.81 Q546.43 2228.44 544.023 2227.7 L544.023 2223 Q546.106 2224.13 548.328 2224.69 Q550.551 2225.24 553.028 2225.24 Q557.032 2225.24 559.37 2223.14 Q561.708 2221.03 561.708 2217.42 Q561.708 2213.81 559.37 2211.7 Q557.032 2209.6 553.028 2209.6 Q551.153 2209.6 549.278 2210.01 Q547.426 2210.43 545.481 2211.31 L545.481 2193.95 Z" fill="#000000" fill-rule="nonzero" fill-opacity="1" /><path clip-path="url(#clip230)" d="M585.597 2197.03 Q581.986 2197.03 580.157 2200.59 Q578.351 2204.13 578.351 2211.26 Q578.351 2218.37 580.157 2221.93 Q581.986 2225.48 585.597 2225.48 Q589.231 2225.48 591.037 2221.93 Q592.865 2218.37 592.865 2211.26 Q592.865 2204.13 591.037 2200.59 Q589.231 2197.03 585.597 2197.03 M585.597 2193.32 Q591.407 2193.32 594.462 2197.93 Q597.541 2202.51 597.541 2211.26 Q597.541 2219.99 594.462 2224.6 Q591.407 2229.18 585.597 2229.18 Q579.787 2229.18 576.708 2224.6 Q573.652 2219.99 573.652 2211.26 Q573.652 2202.51 576.708 2197.93 Q579.787 2193.32 585.597 2193.32 Z" fill="#000000" fill-rule="nonzero" fill-opacity="1" /><path clip-path="url(#clip230)" d="M615.759 2197.03 Q612.148 2197.03 610.319 2200.59 Q608.513 2204.13 608.513 2211.26 Q608.513 2218.37 610.319 2221.93 Q612.148 2225.48 615.759 2225.48 Q619.393 2225.48 621.198 2221.93 Q623.027 2218.37 623.027 2211.26 Q623.027 2204.13 621.198 2200.59 Q619.393 2197.03 615.759 2197.03 M615.759 2193.32 Q621.569 2193.32 624.624 2197.93 Q627.703 2202.51 627.703 2211.26 Q627.703 2219.99 624.624 2224.6 Q621.569 2229.18 615.759 2229.18 Q609.949 2229.18 606.87 2224.6 Q603.814 2219.99 603.814 2211.26 Q603.814 2202.51 606.87 2197.93 Q609.949 2193.32 615.759 2193.32 Z" fill="#000000" fill-rule="nonzero" fill-opacity="1" /><path clip-path="url(#clip230)" d="M843.352 2224.57 L850.991 2224.57 L850.991 2198.21 L842.681 2199.87 L842.681 2195.61 L850.945 2193.95 L855.621 2193.95 L855.621 2224.57 L863.259 2224.57 L863.259 2228.51 L843.352 2228.51 L843.352 2224.57 Z" fill="#000000" fill-rule="nonzero" fill-opacity="1" /><path clip-path="url(#clip230)" d="M882.704 2197.03 Q879.093 2197.03 877.264 2200.59 Q875.458 2204.13 875.458 2211.26 Q875.458 2218.37 877.264 2221.93 Q879.093 2225.48 882.704 2225.48 Q886.338 2225.48 888.144 2221.93 Q889.972 2218.37 889.972 2211.26 Q889.972 2204.13 888.144 2200.59 Q886.338 2197.03 882.704 2197.03 M882.704 2193.32 Q888.514 2193.32 891.569 2197.93 Q894.648 2202.51 894.648 2211.26 Q894.648 2219.99 891.569 2224.6 Q888.514 2229.18 882.704 2229.18 Q876.894 2229.18 873.815 2224.6 Q870.759 2219.99 870.759 2211.26 Q870.759 2202.51 873.815 2197.93 Q876.894 2193.32 882.704 2193.32 Z" fill="#000000" fill-rule="nonzero" fill-opacity="1" /><path clip-path="url(#clip230)" d="M912.866 2197.03 Q909.255 2197.03 907.426 2200.59 Q905.62 2204.13 905.62 2211.26 Q905.62 2218.37 907.426 2221.93 Q909.255 2225.48 912.866 2225.48 Q916.5 2225.48 918.305 2221.93 Q920.134 2218.37 920.134 2211.26 Q920.134 2204.13 918.305 2200.59 Q916.5 2197.03 912.866 2197.03 M912.866 2193.32 Q918.676 2193.32 921.731 2197.93 Q924.81 2202.51 924.81 2211.26 Q924.81 2219.99 921.731 2224.6 Q918.676 2229.18 912.866 2229.18 Q907.055 2229.18 903.977 2224.6 Q900.921 2219.99 900.921 2211.26 Q900.921 2202.51 903.977 2197.93 Q907.055 2193.32 912.866 2193.32 Z" fill="#000000" fill-rule="nonzero" fill-opacity="1" /><path clip-path="url(#clip230)" d="M943.028 2197.03 Q939.416 2197.03 937.588 2200.59 Q935.782 2204.13 935.782 2211.26 Q935.782 2218.37 937.588 2221.93 Q939.416 2225.48 943.028 2225.48 Q946.662 2225.48 948.467 2221.93 Q950.296 2218.37 950.296 2211.26 Q950.296 2204.13 948.467 2200.59 Q946.662 2197.03 943.028 2197.03 M943.028 2193.32 Q948.838 2193.32 951.893 2197.93 Q954.972 2202.51 954.972 2211.26 Q954.972 2219.99 951.893 2224.6 Q948.838 2229.18 943.028 2229.18 Q937.217 2229.18 934.139 2224.6 Q931.083 2219.99 931.083 2211.26 Q931.083 2202.51 934.139 2197.93 Q937.217 2193.32 943.028 2193.32 Z" fill="#000000" fill-rule="nonzero" fill-opacity="1" /><path clip-path="url(#clip230)" d="M1473.36 2224.57 L1489.68 2224.57 L1489.68 2228.51 L1467.74 2228.51 L1467.74 2224.57 Q1470.4 2221.82 1474.98 2217.19 Q1479.59 2212.54 1480.77 2211.19 Q1483.02 2208.67 1483.9 2206.93 Q1484.8 2205.17 1484.8 2203.48 Q1484.8 2200.73 1482.86 2198.99 Q1480.93 2197.26 1477.83 2197.26 Q1475.63 2197.26 1473.18 2198.02 Q1470.75 2198.79 1467.97 2200.34 L1467.97 2195.61 Q1470.8 2194.48 1473.25 2193.9 Q1475.7 2193.32 1477.74 2193.32 Q1483.11 2193.32 1486.3 2196.01 Q1489.5 2198.69 1489.5 2203.18 Q1489.5 2205.31 1488.69 2207.23 Q1487.9 2209.13 1485.8 2211.73 Q1485.22 2212.4 1482.11 2215.61 Q1479.01 2218.81 1473.36 2224.57 Z" fill="#000000" fill-rule="nonzero" fill-opacity="1" /><path clip-path="url(#clip230)" d="M1509.5 2197.03 Q1505.89 2197.03 1504.06 2200.59 Q1502.25 2204.13 1502.25 2211.26 Q1502.25 2218.37 1504.06 2221.93 Q1505.89 2225.48 1509.5 2225.48 Q1513.13 2225.48 1514.94 2221.93 Q1516.77 2218.37 1516.77 2211.26 Q1516.77 2204.13 1514.94 2200.59 Q1513.13 2197.03 1509.5 2197.03 M1509.5 2193.32 Q1515.31 2193.32 1518.36 2197.93 Q1521.44 2202.51 1521.44 2211.26 Q1521.44 2219.99 1518.36 2224.6 Q1515.31 2229.18 1509.5 2229.18 Q1503.69 2229.18 1500.61 2224.6 Q1497.55 2219.99 1497.55 2211.26 Q1497.55 2202.51 1500.61 2197.93 Q1503.69 2193.32 1509.5 2193.32 Z" fill="#000000" fill-rule="nonzero" fill-opacity="1" /><path clip-path="url(#clip230)" d="M1539.66 2197.03 Q1536.05 2197.03 1534.22 2200.59 Q1532.42 2204.13 1532.42 2211.26 Q1532.42 2218.37 1534.22 2221.93 Q1536.05 2225.48 1539.66 2225.48 Q1543.29 2225.48 1545.1 2221.93 Q1546.93 2218.37 1546.93 2211.26 Q1546.93 2204.13 1545.1 2200.59 Q1543.29 2197.03 1539.66 2197.03 M1539.66 2193.32 Q1545.47 2193.32 1548.53 2197.93 Q1551.6 2202.51 1551.6 2211.26 Q1551.6 2219.99 1548.53 2224.6 Q1545.47 2229.18 1539.66 2229.18 Q1533.85 2229.18 1530.77 2224.6 Q1527.72 2219.99 1527.72 2211.26 Q1527.72 2202.51 1530.77 2197.93 Q1533.85 2193.32 1539.66 2193.32 Z" fill="#000000" fill-rule="nonzero" fill-opacity="1" /><path clip-path="url(#clip230)" d="M1569.82 2197.03 Q1566.21 2197.03 1564.38 2200.59 Q1562.58 2204.13 1562.58 2211.26 Q1562.58 2218.37 1564.38 2221.93 Q1566.21 2225.48 1569.82 2225.48 Q1573.46 2225.48 1575.26 2221.93 Q1577.09 2218.37 1577.09 2211.26 Q1577.09 2204.13 1575.26 2200.59 Q1573.46 2197.03 1569.82 2197.03 M1569.82 2193.32 Q1575.63 2193.32 1578.69 2197.93 Q1581.77 2202.51 1581.77 2211.26 Q1581.77 2219.99 1578.69 2224.6 Q1575.63 2229.18 1569.82 2229.18 Q1564.01 2229.18 1560.93 2224.6 Q1557.88 2219.99 1557.88 2211.26 Q1557.88 2202.51 1560.93 2197.93 Q1564.01 2193.32 1569.82 2193.32 Z" fill="#000000" fill-rule="nonzero" fill-opacity="1" /><path clip-path="url(#clip230)" d="M3347.07 2193.95 L3365.43 2193.95 L3365.43 2197.88 L3351.35 2197.88 L3351.35 2206.36 Q3352.37 2206.01 3353.39 2205.85 Q3354.41 2205.66 3355.43 2205.66 Q3361.21 2205.66 3364.59 2208.83 Q3367.97 2212 3367.97 2217.42 Q3367.97 2223 3364.5 2226.1 Q3361.03 2229.18 3354.71 2229.18 Q3352.53 2229.18 3350.27 2228.81 Q3348.02 2228.44 3345.61 2227.7 L3345.61 2223 Q3347.7 2224.13 3349.92 2224.69 Q3352.14 2225.24 3354.62 2225.24 Q3358.62 2225.24 3360.96 2223.14 Q3363.3 2221.03 3363.3 2217.42 Q3363.3 2213.81 3360.96 2211.7 Q3358.62 2209.6 3354.62 2209.6 Q3352.74 2209.6 3350.87 2210.01 Q3349.02 2210.43 3347.07 2211.31 L3347.07 2193.95 Z" fill="#000000" fill-rule="nonzero" fill-opacity="1" /><path clip-path="url(#clip230)" d="M3387.19 2197.03 Q3383.58 2197.03 3381.75 2200.59 Q3379.94 2204.13 3379.94 2211.26 Q3379.94 2218.37 3381.75 2221.93 Q3383.58 2225.48 3387.19 2225.48 Q3390.82 2225.48 3392.63 2221.93 Q3394.45 2218.37 3394.45 2211.26 Q3394.45 2204.13 3392.63 2200.59 Q3390.82 2197.03 3387.19 2197.03 M3387.19 2193.32 Q3393 2193.32 3396.05 2197.93 Q3399.13 2202.51 3399.13 2211.26 Q3399.13 2219.99 3396.05 2224.6 Q3393 2229.18 3387.19 2229.18 Q3381.38 2229.18 3378.3 2224.6 Q3375.24 2219.99 3375.24 2211.26 Q3375.24 2202.51 3378.3 2197.93 Q3381.38 2193.32 3387.19 2193.32 Z" fill="#000000" fill-rule="nonzero" fill-opacity="1" /><path clip-path="url(#clip230)" d="M3417.35 2197.03 Q3413.74 2197.03 3411.91 2200.59 Q3410.1 2204.13 3410.1 2211.26 Q3410.1 2218.37 3411.91 2221.93 Q3413.74 2225.48 3417.35 2225.48 Q3420.98 2225.48 3422.79 2221.93 Q3424.62 2218.37 3424.62 2211.26 Q3424.62 2204.13 3422.79 2200.59 Q3420.98 2197.03 3417.35 2197.03 M3417.35 2193.32 Q3423.16 2193.32 3426.21 2197.93 Q3429.29 2202.51 3429.29 2211.26 Q3429.29 2219.99 3426.21 2224.6 Q3423.16 2229.18 3417.35 2229.18 Q3411.54 2229.18 3408.46 2224.6 Q3405.4 2219.99 3405.4 2211.26 Q3405.4 2202.51 3408.46 2197.93 Q3411.54 2193.32 3417.35 2193.32 Z" fill="#000000" fill-rule="nonzero" fill-opacity="1" /><path clip-path="url(#clip230)" d="M3447.51 2197.03 Q3443.9 2197.03 3442.07 2200.59 Q3440.26 2204.13 3440.26 2211.26 Q3440.26 2218.37 3442.07 2221.93 Q3443.9 2225.48 3447.51 2225.48 Q3451.14 2225.48 3452.95 2221.93 Q3454.78 2218.37 3454.78 2211.26 Q3454.78 2204.13 3452.95 2200.59 Q3451.14 2197.03 3447.51 2197.03 M3447.51 2193.32 Q3453.32 2193.32 3456.38 2197.93 Q3459.45 2202.51 3459.45 2211.26 Q3459.45 2219.99 3456.38 2224.6 Q3453.32 2229.18 3447.51 2229.18 Q3441.7 2229.18 3438.62 2224.6 Q3435.57 2219.99 3435.57 2211.26 Q3435.57 2202.51 3438.62 2197.93 Q3441.7 2193.32 3447.51 2193.32 Z" fill="#000000" fill-rule="nonzero" fill-opacity="1" /><path clip-path="url(#clip230)" d="M1788.71 2308.02 L1788.71 2296.42 L1779.16 2296.42 L1779.16 2291.62 L1794.5 2291.62 L1794.5 2310.17 Q1791.11 2312.57 1787.03 2313.81 Q1782.95 2315.03 1778.32 2315.03 Q1768.2 2315.03 1762.47 2309.12 Q1756.77 2303.19 1756.77 2292.63 Q1756.77 2282.04 1762.47 2276.14 Q1768.2 2270.21 1778.32 2270.21 Q1782.55 2270.21 1786.34 2271.25 Q1790.16 2272.29 1793.37 2274.32 L1793.37 2280.54 Q1790.13 2277.79 1786.48 2276.4 Q1782.84 2275.01 1778.82 2275.01 Q1770.89 2275.01 1766.89 2279.44 Q1762.93 2283.86 1762.93 2292.63 Q1762.93 2301.37 1766.89 2305.8 Q1770.89 2310.22 1778.82 2310.22 Q1781.91 2310.22 1784.34 2309.7 Q1786.77 2309.15 1788.71 2308.02 Z" fill="#000000" fill-rule="nonzero" fill-opacity="1" /><path clip-path="url(#clip230)" d="M1823.72 2286.76 Q1822.83 2286.24 1821.75 2286 Q1820.71 2285.74 1819.44 2285.74 Q1814.93 2285.74 1812.5 2288.7 Q1810.09 2291.62 1810.09 2297.12 L1810.09 2314.19 L1804.74 2314.19 L1804.74 2281.78 L1810.09 2281.78 L1810.09 2286.82 Q1811.77 2283.86 1814.46 2282.45 Q1817.15 2281 1821 2281 Q1821.55 2281 1822.22 2281.09 Q1822.88 2281.14 1823.69 2281.29 L1823.72 2286.76 Z" fill="#000000" fill-rule="nonzero" fill-opacity="1" /><path clip-path="url(#clip230)" d="M1829.31 2281.78 L1834.63 2281.78 L1834.63 2314.19 L1829.31 2314.19 L1829.31 2281.78 M1829.31 2269.16 L1834.63 2269.16 L1834.63 2275.91 L1829.31 2275.91 L1829.31 2269.16 Z" fill="#000000" fill-rule="nonzero" fill-opacity="1" /><path clip-path="url(#clip230)" d="M1867.1 2286.7 L1867.1 2269.16 L1872.42 2269.16 L1872.42 2314.19 L1867.1 2314.19 L1867.1 2309.33 Q1865.42 2312.22 1862.84 2313.64 Q1860.3 2315.03 1856.71 2315.03 Q1850.83 2315.03 1847.13 2310.34 Q1843.46 2305.65 1843.46 2298.01 Q1843.46 2290.37 1847.13 2285.69 Q1850.83 2281 1856.71 2281 Q1860.3 2281 1862.84 2282.42 Q1865.42 2283.81 1867.1 2286.7 M1848.95 2298.01 Q1848.95 2303.89 1851.36 2307.24 Q1853.79 2310.57 1858.01 2310.57 Q1862.23 2310.57 1864.67 2307.24 Q1867.1 2303.89 1867.1 2298.01 Q1867.1 2292.14 1864.67 2288.81 Q1862.23 2285.46 1858.01 2285.46 Q1853.79 2285.46 1851.36 2288.81 Q1848.95 2292.14 1848.95 2298.01 Z" fill="#000000" fill-rule="nonzero" fill-opacity="1" /><path clip-path="url(#clip230)" d="M1922.88 2282.74 L1922.88 2287.77 Q1920.63 2286.61 1918.2 2286.03 Q1915.76 2285.46 1913.16 2285.46 Q1909.2 2285.46 1907.2 2286.67 Q1905.23 2287.89 1905.23 2290.32 Q1905.23 2292.17 1906.65 2293.24 Q1908.07 2294.28 1912.35 2295.24 L1914.17 2295.64 Q1919.84 2296.86 1922.22 2299.08 Q1924.62 2301.28 1924.62 2305.25 Q1924.62 2309.76 1921.03 2312.39 Q1917.47 2315.03 1911.22 2315.03 Q1908.62 2315.03 1905.78 2314.51 Q1902.98 2314.01 1899.85 2313 L1899.85 2307.5 Q1902.8 2309.04 1905.67 2309.82 Q1908.53 2310.57 1911.34 2310.57 Q1915.1 2310.57 1917.12 2309.3 Q1919.15 2308 1919.15 2305.65 Q1919.15 2303.48 1917.67 2302.32 Q1916.23 2301.17 1911.28 2300.1 L1909.43 2299.66 Q1904.48 2298.62 1902.28 2296.48 Q1900.08 2294.31 1900.08 2290.55 Q1900.08 2285.98 1903.32 2283.49 Q1906.56 2281 1912.52 2281 Q1915.48 2281 1918.08 2281.43 Q1920.68 2281.87 1922.88 2282.74 Z" fill="#000000" fill-rule="nonzero" fill-opacity="1" /><path clip-path="url(#clip230)" d="M1933.1 2281.78 L1938.42 2281.78 L1938.42 2314.19 L1933.1 2314.19 L1933.1 2281.78 M1933.1 2269.16 L1938.42 2269.16 L1938.42 2275.91 L1933.1 2275.91 L1933.1 2269.16 Z" fill="#000000" fill-rule="nonzero" fill-opacity="1" /><path clip-path="url(#clip230)" d="M1947.25 2281.78 L1972.54 2281.78 L1972.54 2286.64 L1952.51 2309.93 L1972.54 2309.93 L1972.54 2314.19 L1946.52 2314.19 L1946.52 2309.33 L1966.55 2286.03 L1947.25 2286.03 L1947.25 2281.78 Z" fill="#000000" fill-rule="nonzero" fill-opacity="1" /><path clip-path="url(#clip230)" d="M2008.39 2296.65 L2008.39 2299.26 L1983.91 2299.26 Q1984.25 2304.75 1987.21 2307.65 Q1990.19 2310.51 1995.48 2310.51 Q1998.55 2310.51 2001.41 2309.76 Q2004.31 2309.01 2007.14 2307.5 L2007.14 2312.54 Q2004.28 2313.75 2001.27 2314.39 Q1998.26 2315.03 1995.16 2315.03 Q1987.41 2315.03 1982.86 2310.51 Q1978.35 2306 1978.35 2298.3 Q1978.35 2290.35 1982.63 2285.69 Q1986.94 2281 1994.24 2281 Q2000.78 2281 2004.57 2285.22 Q2008.39 2289.42 2008.39 2296.65 M2003.06 2295.09 Q2003 2290.72 2000.6 2288.12 Q1998.23 2285.51 1994.29 2285.51 Q1989.84 2285.51 1987.15 2288.03 Q1984.49 2290.55 1984.08 2295.12 L2003.06 2295.09 Z" fill="#000000" fill-rule="nonzero" fill-opacity="1" /><path clip-path="url(#clip230)" d="M2036.19 2270.99 L2044.06 2270.99 L2063.22 2307.13 L2063.22 2270.99 L2068.89 2270.99 L2068.89 2314.19 L2061.02 2314.19 L2041.86 2278.05 L2041.86 2314.19 L2036.19 2314.19 L2036.19 2270.99 Z" fill="#000000" fill-rule="nonzero" fill-opacity="1" /><polyline clip-path="url(#clip230)" style="stroke:#000000; stroke-linecap:round; stroke-linejoin:round; stroke-width:4; stroke-opacity:1; fill:none" points="272.9,2156.51 272.9,246.944 "/>
<polyline clip-path="url(#clip230)" style="stroke:#000000; stroke-linecap:round; stroke-linejoin:round; stroke-width:4; stroke-opacity:1; fill:none" points="272.9,2111.91 291.797,2111.91 "/>
<polyline clip-path="url(#clip230)" style="stroke:#000000; stroke-linecap:round; stroke-linejoin:round; stroke-width:4; stroke-opacity:1; fill:none" points="272.9,1517.86 291.797,1517.86 "/>
<polyline clip-path="url(#clip230)" style="stroke:#000000; stroke-linecap:round; stroke-linejoin:round; stroke-width:4; stroke-opacity:1; fill:none" points="272.9,923.808 291.797,923.808 "/>
<polyline clip-path="url(#clip230)" style="stroke:#000000; stroke-linecap:round; stroke-linejoin:round; stroke-width:4; stroke-opacity:1; fill:none" points="272.9,329.757 291.797,329.757 "/>
<path clip-path="url(#clip230)" d="M206.955 2097.71 Q203.344 2097.71 201.515 2101.27 Q199.71 2104.82 199.71 2111.94 Q199.71 2119.05 201.515 2122.62 Q203.344 2126.16 206.955 2126.16 Q210.589 2126.16 212.395 2122.62 Q214.224 2119.05 214.224 2111.94 Q214.224 2104.82 212.395 2101.27 Q210.589 2097.71 206.955 2097.71 M206.955 2094 Q212.765 2094 215.821 2098.61 Q218.9 2103.19 218.9 2111.94 Q218.9 2120.67 215.821 2125.28 Q212.765 2129.86 206.955 2129.86 Q201.145 2129.86 198.066 2125.28 Q195.011 2120.67 195.011 2111.94 Q195.011 2103.19 198.066 2098.61 Q201.145 2094 206.955 2094 Z" fill="#000000" fill-rule="nonzero" fill-opacity="1" /><path clip-path="url(#clip230)" d="M197.997 1500.58 L216.353 1500.58 L216.353 1504.51 L202.279 1504.51 L202.279 1512.99 Q203.298 1512.64 204.316 1512.48 Q205.335 1512.29 206.353 1512.29 Q212.14 1512.29 215.52 1515.46 Q218.9 1518.63 218.9 1524.05 Q218.9 1529.63 215.427 1532.73 Q211.955 1535.81 205.636 1535.81 Q203.46 1535.81 201.191 1535.44 Q198.946 1535.07 196.539 1534.33 L196.539 1529.63 Q198.622 1530.76 200.844 1531.32 Q203.066 1531.88 205.543 1531.88 Q209.548 1531.88 211.886 1529.77 Q214.224 1527.66 214.224 1524.05 Q214.224 1520.44 211.886 1518.33 Q209.548 1516.23 205.543 1516.23 Q203.668 1516.23 201.793 1516.64 Q199.941 1517.06 197.997 1517.94 L197.997 1500.58 Z" fill="#000000" fill-rule="nonzero" fill-opacity="1" /><path clip-path="url(#clip230)" d="M167.604 937.153 L175.242 937.153 L175.242 910.787 L166.932 912.454 L166.932 908.194 L175.196 906.528 L179.872 906.528 L179.872 937.153 L187.511 937.153 L187.511 941.088 L167.604 941.088 L167.604 937.153 Z" fill="#000000" fill-rule="nonzero" fill-opacity="1" /><path clip-path="url(#clip230)" d="M206.955 909.607 Q203.344 909.607 201.515 913.171 Q199.71 916.713 199.71 923.843 Q199.71 930.949 201.515 934.514 Q203.344 938.055 206.955 938.055 Q210.589 938.055 212.395 934.514 Q214.224 930.949 214.224 923.843 Q214.224 916.713 212.395 913.171 Q210.589 909.607 206.955 909.607 M206.955 905.903 Q212.765 905.903 215.821 910.509 Q218.9 915.093 218.9 923.843 Q218.9 932.569 215.821 937.176 Q212.765 941.759 206.955 941.759 Q201.145 941.759 198.066 937.176 Q195.011 932.569 195.011 923.843 Q195.011 915.093 198.066 910.509 Q201.145 905.903 206.955 905.903 Z" fill="#000000" fill-rule="nonzero" fill-opacity="1" /><path clip-path="url(#clip230)" d="M168.599 343.102 L176.238 343.102 L176.238 316.736 L167.928 318.403 L167.928 314.143 L176.191 312.477 L180.867 312.477 L180.867 343.102 L188.506 343.102 L188.506 347.037 L168.599 347.037 L168.599 343.102 Z" fill="#000000" fill-rule="nonzero" fill-opacity="1" /><path clip-path="url(#clip230)" d="M197.997 312.477 L216.353 312.477 L216.353 316.412 L202.279 316.412 L202.279 324.884 Q203.298 324.537 204.316 324.375 Q205.335 324.19 206.353 324.19 Q212.14 324.19 215.52 327.361 Q218.9 330.532 218.9 335.949 Q218.9 341.528 215.427 344.629 Q211.955 347.708 205.636 347.708 Q203.46 347.708 201.191 347.338 Q198.946 346.967 196.539 346.227 L196.539 341.528 Q198.622 342.662 200.844 343.217 Q203.066 343.773 205.543 343.773 Q209.548 343.773 211.886 341.666 Q214.224 339.56 214.224 335.949 Q214.224 332.338 211.886 330.231 Q209.548 328.125 205.543 328.125 Q203.668 328.125 201.793 328.541 Q199.941 328.958 197.997 329.838 L197.997 312.477 Z" fill="#000000" fill-rule="nonzero" fill-opacity="1" /><path clip-path="url(#clip230)" d="M58.1901 1374.69 L63.8903 1374.69 Q62.2989 1378.01 61.5176 1380.96 Q60.7364 1383.92 60.7364 1386.66 Q60.7364 1391.44 62.5882 1394.04 Q64.4401 1396.62 67.8544 1396.62 Q70.719 1396.62 72.1947 1394.91 Q73.6414 1393.17 74.5384 1388.37 L75.2618 1384.84 Q76.506 1378.3 79.6599 1375.21 Q82.7849 1372.08 88.0511 1372.08 Q94.33 1372.08 97.5707 1376.31 Q100.811 1380.5 100.811 1388.63 Q100.811 1391.7 100.117 1395.17 Q99.4225 1398.61 98.0626 1402.32 L92.0441 1402.32 Q94.0406 1398.76 95.0533 1395.34 Q96.0661 1391.93 96.0661 1388.63 Q96.0661 1383.63 94.0985 1380.91 Q92.1309 1378.19 88.4851 1378.19 Q85.3022 1378.19 83.5083 1380.15 Q81.7143 1382.09 80.8173 1386.55 L80.1229 1390.11 Q78.8208 1396.65 76.043 1399.57 Q73.2653 1402.49 68.3174 1402.49 Q62.5882 1402.49 59.2896 1398.47 Q55.991 1394.42 55.991 1387.33 Q55.991 1384.29 56.5408 1381.14 Q57.0906 1377.98 58.1901 1374.69 Z" fill="#000000" fill-rule="nonzero" fill-opacity="1" /><path clip-path="url(#clip230)" d="M71.2977 1350.64 Q71.2977 1354.92 74.6541 1357.41 Q77.9817 1359.9 83.7976 1359.9 Q89.6135 1359.9 92.97 1357.44 Q96.2975 1354.95 96.2975 1350.64 Q96.2975 1346.39 92.9411 1343.9 Q89.5846 1341.41 83.7976 1341.41 Q78.0395 1341.41 74.6831 1343.9 Q71.2977 1346.39 71.2977 1350.64 M66.7838 1350.64 Q66.7838 1343.7 71.2977 1339.73 Q75.8115 1335.77 83.7976 1335.77 Q91.7547 1335.77 96.2975 1339.73 Q100.811 1343.7 100.811 1350.64 Q100.811 1357.61 96.2975 1361.58 Q91.7547 1365.51 83.7976 1365.51 Q75.8115 1365.51 71.2977 1361.58 Q66.7838 1357.61 66.7838 1350.64 Z" fill="#000000" fill-rule="nonzero" fill-opacity="1" /><path clip-path="url(#clip230)" d="M54.9494 1326.94 L54.9494 1321.62 L99.9723 1321.62 L99.9723 1326.94 L54.9494 1326.94 Z" fill="#000000" fill-rule="nonzero" fill-opacity="1" /><path clip-path="url(#clip230)" d="M67.565 1314.3 L67.565 1308.66 L94.764 1298.53 L67.565 1288.4 L67.565 1282.76 L99.9723 1294.91 L99.9723 1302.15 L67.565 1314.3 Z" fill="#000000" fill-rule="nonzero" fill-opacity="1" /><path clip-path="url(#clip230)" d="M82.4377 1247.69 L85.0418 1247.69 L85.0418 1272.17 Q90.5395 1271.82 93.433 1268.87 Q96.2975 1265.89 96.2975 1260.59 Q96.2975 1257.53 95.5452 1254.66 Q94.7929 1251.77 93.2883 1248.93 L98.323 1248.93 Q99.5383 1251.8 100.175 1254.81 Q100.811 1257.82 100.811 1260.91 Q100.811 1268.67 96.2975 1273.21 Q91.7837 1277.72 84.087 1277.72 Q76.1298 1277.72 71.4713 1273.44 Q66.7838 1269.13 66.7838 1261.84 Q66.7838 1255.3 71.0083 1251.51 Q75.2039 1247.69 82.4377 1247.69 M80.8752 1253.01 Q76.506 1253.07 73.9018 1255.47 Q71.2977 1257.85 71.2977 1261.78 Q71.2977 1266.24 73.815 1268.93 Q76.3324 1271.59 80.9041 1271.99 L80.8752 1253.01 Z" fill="#000000" fill-rule="nonzero" fill-opacity="1" /><path clip-path="url(#clip230)" d="M58.3637 1214.85 L67.565 1214.85 L67.565 1203.88 L71.7028 1203.88 L71.7028 1214.85 L89.2953 1214.85 Q93.2594 1214.85 94.3878 1213.78 Q95.5163 1212.68 95.5163 1209.35 L95.5163 1203.88 L99.9723 1203.88 L99.9723 1209.35 Q99.9723 1215.51 97.6864 1217.86 Q95.3716 1220.2 89.2953 1220.2 L71.7028 1220.2 L71.7028 1224.11 L67.565 1224.11 L67.565 1220.2 L58.3637 1220.2 L58.3637 1214.85 Z" fill="#000000" fill-rule="nonzero" fill-opacity="1" /><path clip-path="url(#clip230)" d="M67.565 1196.88 L67.565 1191.56 L99.9723 1191.56 L99.9723 1196.88 L67.565 1196.88 M54.9494 1196.88 L54.9494 1191.56 L61.6912 1191.56 L61.6912 1196.88 L54.9494 1196.88 Z" fill="#000000" fill-rule="nonzero" fill-opacity="1" /><path clip-path="url(#clip230)" d="M73.7861 1155.18 Q70.1981 1153.19 68.491 1150.41 Q66.7838 1147.63 66.7838 1143.87 Q66.7838 1138.81 70.3428 1136.06 Q73.8729 1133.31 80.4122 1133.31 L99.9723 1133.31 L99.9723 1138.66 L80.5858 1138.66 Q75.9273 1138.66 73.6703 1140.31 Q71.4134 1141.96 71.4134 1145.35 Q71.4134 1149.48 74.1622 1151.89 Q76.9111 1154.29 81.6564 1154.29 L99.9723 1154.29 L99.9723 1159.64 L80.5858 1159.64 Q75.8983 1159.64 73.6703 1161.29 Q71.4134 1162.94 71.4134 1166.38 Q71.4134 1170.46 74.1912 1172.86 Q76.94 1175.26 81.6564 1175.26 L99.9723 1175.26 L99.9723 1180.62 L67.565 1180.62 L67.565 1175.26 L72.5997 1175.26 Q69.6194 1173.44 68.2016 1170.9 Q66.7838 1168.35 66.7838 1164.85 Q66.7838 1161.32 68.5778 1158.86 Q70.3717 1156.37 73.7861 1155.18 Z" fill="#000000" fill-rule="nonzero" fill-opacity="1" /><path clip-path="url(#clip230)" d="M82.4377 1094.97 L85.0418 1094.97 L85.0418 1119.45 Q90.5395 1119.1 93.433 1116.15 Q96.2975 1113.17 96.2975 1107.88 Q96.2975 1104.81 95.5452 1101.94 Q94.7929 1099.05 93.2883 1096.21 L98.323 1096.21 Q99.5383 1099.08 100.175 1102.09 Q100.811 1105.1 100.811 1108.19 Q100.811 1115.95 96.2975 1120.49 Q91.7837 1125 84.087 1125 Q76.1298 1125 71.4713 1120.72 Q66.7838 1116.41 66.7838 1109.12 Q66.7838 1102.58 71.0083 1098.79 Q75.2039 1094.97 82.4377 1094.97 M80.8752 1100.29 Q76.506 1100.35 73.9018 1102.75 Q71.2977 1105.13 71.2977 1109.06 Q71.2977 1113.52 73.815 1116.21 Q76.3324 1118.87 80.9041 1119.28 L80.8752 1100.29 Z" fill="#000000" fill-rule="nonzero" fill-opacity="1" /><path clip-path="url(#clip230)" d="M55.0072 1054.61 Q61.6623 1058.48 68.1727 1060.36 Q74.6831 1062.24 81.3671 1062.24 Q88.0511 1062.24 94.6193 1060.36 Q101.159 1058.45 107.785 1054.61 L107.785 1059.24 Q100.985 1063.58 94.4168 1065.75 Q87.8485 1067.89 81.3671 1067.89 Q74.9145 1067.89 68.3752 1065.75 Q61.8359 1063.6 55.0072 1059.24 L55.0072 1054.61 Z" fill="#000000" fill-rule="nonzero" fill-opacity="1" /><path clip-path="url(#clip230)" d="M68.5199 1023.62 L73.5546 1023.62 Q72.3972 1025.87 71.8185 1028.3 Q71.2398 1030.73 71.2398 1033.34 Q71.2398 1037.3 72.4551 1039.3 Q73.6703 1041.27 76.1009 1041.27 Q77.9527 1041.27 79.0233 1039.85 Q80.065 1038.43 81.0198 1034.15 L81.4249 1032.33 Q82.6402 1026.65 84.8682 1024.28 Q87.0673 1021.88 91.0314 1021.88 Q95.5452 1021.88 98.1783 1025.47 Q100.811 1029.03 100.811 1035.28 Q100.811 1037.88 100.291 1040.72 Q99.7987 1043.52 98.7859 1046.65 L93.2883 1046.65 Q94.8218 1043.7 95.6031 1040.83 Q96.3554 1037.97 96.3554 1035.16 Q96.3554 1031.4 95.0823 1029.37 Q93.7802 1027.35 91.4364 1027.35 Q89.2663 1027.35 88.1089 1028.82 Q86.9515 1030.27 85.8809 1035.22 L85.4469 1037.07 Q84.4052 1042.02 82.264 1044.22 Q80.0939 1046.42 76.3324 1046.42 Q71.7606 1046.42 69.2722 1043.18 Q66.7838 1039.94 66.7838 1033.98 Q66.7838 1031.02 67.2178 1028.42 Q67.6519 1025.82 68.5199 1023.62 Z" fill="#000000" fill-rule="nonzero" fill-opacity="1" /><path clip-path="url(#clip230)" d="M55.0072 1014.24 L55.0072 1009.61 Q61.8359 1005.27 68.3752 1003.13 Q74.9145 1000.96 81.3671 1000.96 Q87.8485 1000.96 94.4168 1003.13 Q100.985 1005.27 107.785 1009.61 L107.785 1014.24 Q101.159 1010.39 94.6193 1008.51 Q88.0511 1006.6 81.3671 1006.6 Q74.6831 1006.6 68.1727 1008.51 Q61.6623 1010.39 55.0072 1014.24 Z" fill="#000000" fill-rule="nonzero" fill-opacity="1" /><path clip-path="url(#clip230)" d="M1310.54 125.969 L1310.54 133.949 Q1305.88 131.721 1301.75 130.627 Q1297.62 129.534 1293.77 129.534 Q1287.08 129.534 1283.44 132.126 Q1279.83 134.719 1279.83 139.499 Q1279.83 143.509 1282.22 145.575 Q1284.65 147.601 1291.38 148.857 L1296.32 149.869 Q1305.48 151.611 1309.81 156.027 Q1314.19 160.402 1314.19 167.774 Q1314.19 176.565 1308.27 181.102 Q1302.4 185.639 1291.01 185.639 Q1286.72 185.639 1281.86 184.667 Q1277.04 183.694 1271.85 181.79 L1271.85 173.365 Q1276.84 176.16 1281.62 177.577 Q1286.4 178.995 1291.01 178.995 Q1298.02 178.995 1301.83 176.241 Q1305.64 173.486 1305.64 168.382 Q1305.64 163.926 1302.88 161.414 Q1300.17 158.903 1293.93 157.647 L1288.95 156.675 Q1279.79 154.852 1275.7 150.963 Q1271.61 147.074 1271.61 140.147 Q1271.61 132.126 1277.24 127.508 Q1282.91 122.89 1292.84 122.89 Q1297.09 122.89 1301.51 123.66 Q1305.92 124.43 1310.54 125.969 Z" fill="#000000" fill-rule="nonzero" fill-opacity="1" /><path clip-path="url(#clip230)" d="M1344.2 144.32 Q1338.21 144.32 1334.72 149.019 Q1331.24 153.677 1331.24 161.819 Q1331.24 169.962 1334.68 174.661 Q1338.17 179.319 1344.2 179.319 Q1350.16 179.319 1353.64 174.62 Q1357.12 169.921 1357.12 161.819 Q1357.12 153.758 1353.64 149.059 Q1350.16 144.32 1344.2 144.32 M1344.2 138 Q1353.92 138 1359.47 144.32 Q1365.02 150.639 1365.02 161.819 Q1365.02 172.959 1359.47 179.319 Q1353.92 185.639 1344.2 185.639 Q1334.44 185.639 1328.89 179.319 Q1323.38 172.959 1323.38 161.819 Q1323.38 150.639 1328.89 144.32 Q1334.44 138 1344.2 138 Z" fill="#000000" fill-rule="nonzero" fill-opacity="1" /><path clip-path="url(#clip230)" d="M1377.38 121.432 L1384.83 121.432 L1384.83 184.464 L1377.38 184.464 L1377.38 121.432 Z" fill="#000000" fill-rule="nonzero" fill-opacity="1" /><path clip-path="url(#clip230)" d="M1395.08 139.094 L1402.98 139.094 L1417.16 177.172 L1431.34 139.094 L1439.24 139.094 L1422.22 184.464 L1412.1 184.464 L1395.08 139.094 Z" fill="#000000" fill-rule="nonzero" fill-opacity="1" /><path clip-path="url(#clip230)" d="M1488.33 159.916 L1488.33 163.561 L1454.06 163.561 Q1454.55 171.258 1458.68 175.309 Q1462.85 179.319 1470.27 179.319 Q1474.56 179.319 1478.57 178.266 Q1482.62 177.213 1486.59 175.106 L1486.59 182.155 Q1482.58 183.856 1478.37 184.748 Q1474.16 185.639 1469.82 185.639 Q1458.96 185.639 1452.6 179.319 Q1446.29 173 1446.29 162.225 Q1446.29 151.085 1452.28 144.563 Q1458.32 138 1468.52 138 Q1477.68 138 1482.99 143.914 Q1488.33 149.788 1488.33 159.916 M1480.88 157.728 Q1480.8 151.611 1477.44 147.965 Q1474.11 144.32 1468.61 144.32 Q1462.37 144.32 1458.6 147.844 Q1454.87 151.368 1454.31 157.769 L1480.88 157.728 Z" fill="#000000" fill-rule="nonzero" fill-opacity="1" /><path clip-path="url(#clip230)" d="M1534.31 126.212 L1534.31 139.094 L1549.66 139.094 L1549.66 144.887 L1534.31 144.887 L1534.31 169.516 Q1534.31 175.066 1535.81 176.646 Q1537.35 178.226 1542.01 178.226 L1549.66 178.226 L1549.66 184.464 L1542.01 184.464 Q1533.38 184.464 1530.1 181.264 Q1526.82 178.023 1526.82 169.516 L1526.82 144.887 L1521.35 144.887 L1521.35 139.094 L1526.82 139.094 L1526.82 126.212 L1534.31 126.212 Z" fill="#000000" fill-rule="nonzero" fill-opacity="1" /><path clip-path="url(#clip230)" d="M1559.47 139.094 L1566.92 139.094 L1566.92 184.464 L1559.47 184.464 L1559.47 139.094 M1559.47 121.432 L1566.92 121.432 L1566.92 130.871 L1559.47 130.871 L1559.47 121.432 Z" fill="#000000" fill-rule="nonzero" fill-opacity="1" /><path clip-path="url(#clip230)" d="M1617.84 147.803 Q1620.64 142.78 1624.52 140.39 Q1628.41 138 1633.68 138 Q1640.77 138 1644.62 142.983 Q1648.47 147.925 1648.47 157.08 L1648.47 184.464 L1640.97 184.464 L1640.97 157.323 Q1640.97 150.801 1638.66 147.641 Q1636.35 144.482 1631.61 144.482 Q1625.82 144.482 1622.46 148.33 Q1619.1 152.178 1619.1 158.822 L1619.1 184.464 L1611.6 184.464 L1611.6 157.323 Q1611.6 150.76 1609.29 147.641 Q1606.98 144.482 1602.16 144.482 Q1596.45 144.482 1593.09 148.37 Q1589.73 152.219 1589.73 158.822 L1589.73 184.464 L1582.23 184.464 L1582.23 139.094 L1589.73 139.094 L1589.73 146.142 Q1592.28 141.97 1595.84 139.985 Q1599.41 138 1604.31 138 Q1609.25 138 1612.7 140.512 Q1616.18 143.023 1617.84 147.803 Z" fill="#000000" fill-rule="nonzero" fill-opacity="1" /><path clip-path="url(#clip230)" d="M1702.14 159.916 L1702.14 163.561 L1667.87 163.561 Q1668.36 171.258 1672.49 175.309 Q1676.66 179.319 1684.07 179.319 Q1688.37 179.319 1692.38 178.266 Q1696.43 177.213 1700.4 175.106 L1700.4 182.155 Q1696.39 183.856 1692.17 184.748 Q1687.96 185.639 1683.63 185.639 Q1672.77 185.639 1666.41 179.319 Q1660.09 173 1660.09 162.225 Q1660.09 151.085 1666.09 144.563 Q1672.12 138 1682.33 138 Q1691.49 138 1696.79 143.914 Q1702.14 149.788 1702.14 159.916 M1694.69 157.728 Q1694.61 151.611 1691.24 147.965 Q1687.92 144.32 1682.41 144.32 Q1676.17 144.32 1672.41 147.844 Q1668.68 151.368 1668.11 157.769 L1694.69 157.728 Z" fill="#000000" fill-rule="nonzero" fill-opacity="1" /><path clip-path="url(#clip230)" d="M1735.4 139.094 L1743.3 139.094 L1757.48 177.172 L1771.65 139.094 L1779.55 139.094 L1762.54 184.464 L1752.41 184.464 L1735.4 139.094 Z" fill="#000000" fill-rule="nonzero" fill-opacity="1" /><path clip-path="url(#clip230)" d="M1818.77 140.431 L1818.77 147.479 Q1815.61 145.859 1812.2 145.049 Q1808.8 144.239 1805.15 144.239 Q1799.6 144.239 1796.81 145.94 Q1794.06 147.641 1794.06 151.044 Q1794.06 153.637 1796.04 155.135 Q1798.03 156.594 1804.02 157.931 L1806.57 158.498 Q1814.51 160.199 1817.83 163.318 Q1821.2 166.397 1821.2 171.947 Q1821.2 178.266 1816.17 181.952 Q1811.19 185.639 1802.44 185.639 Q1798.79 185.639 1794.82 184.91 Q1790.9 184.221 1786.52 182.803 L1786.52 175.106 Q1790.65 177.253 1794.66 178.347 Q1798.67 179.4 1802.6 179.4 Q1807.87 179.4 1810.7 177.618 Q1813.54 175.795 1813.54 172.514 Q1813.54 169.476 1811.47 167.855 Q1809.45 166.235 1802.52 164.736 L1799.93 164.128 Q1793 162.67 1789.92 159.672 Q1786.84 156.634 1786.84 151.368 Q1786.84 144.968 1791.38 141.484 Q1795.92 138 1804.26 138 Q1808.4 138 1812.04 138.608 Q1815.69 139.215 1818.77 140.431 Z" fill="#000000" fill-rule="nonzero" fill-opacity="1" /><path clip-path="url(#clip230)" d="M1889.29 161.252 Q1889.29 153.151 1885.93 148.695 Q1882.61 144.239 1876.57 144.239 Q1870.58 144.239 1867.21 148.695 Q1863.89 153.151 1863.89 161.252 Q1863.89 169.314 1867.21 173.77 Q1870.58 178.226 1876.57 178.226 Q1882.61 178.226 1885.93 173.77 Q1889.29 169.314 1889.29 161.252 M1896.75 178.833 Q1896.75 190.419 1891.6 196.05 Q1886.46 201.721 1875.84 201.721 Q1871.91 201.721 1868.43 201.113 Q1864.95 200.546 1861.66 199.331 L1861.66 192.08 Q1864.95 193.862 1868.15 194.713 Q1871.35 195.563 1874.67 195.563 Q1882 195.563 1885.65 191.715 Q1889.29 187.907 1889.29 180.17 L1889.29 176.484 Q1886.98 180.494 1883.38 182.479 Q1879.77 184.464 1874.75 184.464 Q1866.4 184.464 1861.3 178.104 Q1856.2 171.744 1856.2 161.252 Q1856.2 150.72 1861.3 144.36 Q1866.4 138 1874.75 138 Q1879.77 138 1883.38 139.985 Q1886.98 141.97 1889.29 145.98 L1889.29 139.094 L1896.75 139.094 L1896.75 178.833 Z" fill="#000000" fill-rule="nonzero" fill-opacity="1" /><path clip-path="url(#clip230)" d="M1938.39 146.061 Q1937.13 145.332 1935.63 145.008 Q1934.18 144.644 1932.39 144.644 Q1926.07 144.644 1922.67 148.776 Q1919.31 152.867 1919.31 160.564 L1919.31 184.464 L1911.82 184.464 L1911.82 139.094 L1919.31 139.094 L1919.31 146.142 Q1921.66 142.011 1925.43 140.026 Q1929.19 138 1934.58 138 Q1935.35 138 1936.28 138.122 Q1937.21 138.203 1938.35 138.405 L1938.39 146.061 Z" fill="#000000" fill-rule="nonzero" fill-opacity="1" /><path clip-path="url(#clip230)" d="M1946.21 139.094 L1953.66 139.094 L1953.66 184.464 L1946.21 184.464 L1946.21 139.094 M1946.21 121.432 L1953.66 121.432 L1953.66 130.871 L1946.21 130.871 L1946.21 121.432 Z" fill="#000000" fill-rule="nonzero" fill-opacity="1" /><path clip-path="url(#clip230)" d="M1999.11 145.98 L1999.11 121.432 L2006.57 121.432 L2006.57 184.464 L1999.11 184.464 L1999.11 177.658 Q1996.76 181.709 1993.16 183.694 Q1989.59 185.639 1984.57 185.639 Q1976.35 185.639 1971.16 179.076 Q1966.02 172.514 1966.02 161.819 Q1966.02 151.125 1971.16 144.563 Q1976.35 138 1984.57 138 Q1989.59 138 1993.16 139.985 Q1996.76 141.93 1999.11 145.98 M1973.71 161.819 Q1973.71 170.043 1977.08 174.742 Q1980.48 179.4 1986.39 179.4 Q1992.31 179.4 1995.71 174.742 Q1999.11 170.043 1999.11 161.819 Q1999.11 153.596 1995.71 148.938 Q1992.31 144.239 1986.39 144.239 Q1980.48 144.239 1977.08 148.938 Q1973.71 153.596 1973.71 161.819 Z" fill="#000000" fill-rule="nonzero" fill-opacity="1" /><path clip-path="url(#clip230)" d="M2077.21 140.431 L2077.21 147.479 Q2074.05 145.859 2070.65 145.049 Q2067.25 144.239 2063.6 144.239 Q2058.05 144.239 2055.26 145.94 Q2052.5 147.641 2052.5 151.044 Q2052.5 153.637 2054.49 155.135 Q2056.47 156.594 2062.47 157.931 L2065.02 158.498 Q2072.96 160.199 2076.28 163.318 Q2079.64 166.397 2079.64 171.947 Q2079.64 178.266 2074.62 181.952 Q2069.64 185.639 2060.89 185.639 Q2057.24 185.639 2053.27 184.91 Q2049.34 184.221 2044.97 182.803 L2044.97 175.106 Q2049.1 177.253 2053.11 178.347 Q2057.12 179.4 2061.05 179.4 Q2066.32 179.4 2069.15 177.618 Q2071.99 175.795 2071.99 172.514 Q2071.99 169.476 2069.92 167.855 Q2067.9 166.235 2060.97 164.736 L2058.38 164.128 Q2051.45 162.67 2048.37 159.672 Q2045.29 156.634 2045.29 151.368 Q2045.29 144.968 2049.83 141.484 Q2054.37 138 2062.71 138 Q2066.84 138 2070.49 138.608 Q2074.13 139.215 2077.21 140.431 Z" fill="#000000" fill-rule="nonzero" fill-opacity="1" /><path clip-path="url(#clip230)" d="M2091.51 139.094 L2098.97 139.094 L2098.97 184.464 L2091.51 184.464 L2091.51 139.094 M2091.51 121.432 L2098.97 121.432 L2098.97 130.871 L2091.51 130.871 L2091.51 121.432 Z" fill="#000000" fill-rule="nonzero" fill-opacity="1" /><path clip-path="url(#clip230)" d="M2111.32 139.094 L2146.73 139.094 L2146.73 145.899 L2118.69 178.509 L2146.73 178.509 L2146.73 184.464 L2110.31 184.464 L2110.31 177.658 L2138.34 145.049 L2111.32 145.049 L2111.32 139.094 Z" fill="#000000" fill-rule="nonzero" fill-opacity="1" /><path clip-path="url(#clip230)" d="M2196.92 159.916 L2196.92 163.561 L2162.65 163.561 Q2163.13 171.258 2167.27 175.309 Q2171.44 179.319 2178.85 179.319 Q2183.14 179.319 2187.15 178.266 Q2191.21 177.213 2195.18 175.106 L2195.18 182.155 Q2191.17 183.856 2186.95 184.748 Q2182.74 185.639 2178.41 185.639 Q2167.55 185.639 2161.19 179.319 Q2154.87 173 2154.87 162.225 Q2154.87 151.085 2160.86 144.563 Q2166.9 138 2177.11 138 Q2186.26 138 2191.57 143.914 Q2196.92 149.788 2196.92 159.916 M2189.46 157.728 Q2189.38 151.611 2186.02 147.965 Q2182.7 144.32 2177.19 144.32 Q2170.95 144.32 2167.18 147.844 Q2163.46 151.368 2162.89 157.769 L2189.46 157.728 Z" fill="#000000" fill-rule="nonzero" fill-opacity="1" /><path clip-path="url(#clip230)" d="M2231.76 158.822 L2306.62 158.822 L2306.62 164.655 L2231.76 164.655 L2231.76 158.822 Z" fill="#000000" fill-rule="nonzero" fill-opacity="1" /><path clip-path="url(#clip230)" d="M2371.15 146.061 Q2369.89 145.332 2368.39 145.008 Q2366.93 144.644 2365.15 144.644 Q2358.83 144.644 2355.43 148.776 Q2352.07 152.867 2352.07 160.564 L2352.07 184.464 L2344.57 184.464 L2344.57 139.094 L2352.07 139.094 L2352.07 146.142 Q2354.42 142.011 2358.18 140.026 Q2361.95 138 2367.34 138 Q2368.11 138 2369.04 138.122 Q2369.97 138.203 2371.11 138.405 L2371.15 146.061 Z" fill="#000000" fill-rule="nonzero" fill-opacity="1" /><path clip-path="url(#clip230)" d="M2394.72 144.32 Q2388.73 144.32 2385.24 149.019 Q2381.76 153.677 2381.76 161.819 Q2381.76 169.962 2385.2 174.661 Q2388.69 179.319 2394.72 179.319 Q2400.68 179.319 2404.16 174.62 Q2407.65 169.921 2407.65 161.819 Q2407.65 153.758 2404.16 149.059 Q2400.68 144.32 2394.72 144.32 M2394.72 138 Q2404.45 138 2410 144.32 Q2415.54 150.639 2415.54 161.819 Q2415.54 172.959 2410 179.319 Q2404.45 185.639 2394.72 185.639 Q2384.96 185.639 2379.41 179.319 Q2373.9 172.959 2373.9 161.819 Q2373.9 150.639 2379.41 144.32 Q2384.96 138 2394.72 138 Z" fill="#000000" fill-rule="nonzero" fill-opacity="1" /><path clip-path="url(#clip230)" d="M2460.47 161.819 Q2460.47 153.596 2457.07 148.938 Q2453.7 144.239 2447.79 144.239 Q2441.88 144.239 2438.47 148.938 Q2435.11 153.596 2435.11 161.819 Q2435.11 170.043 2438.47 174.742 Q2441.88 179.4 2447.79 179.4 Q2453.7 179.4 2457.07 174.742 Q2460.47 170.043 2460.47 161.819 M2435.11 145.98 Q2437.46 141.93 2441.03 139.985 Q2444.63 138 2449.61 138 Q2457.88 138 2463.02 144.563 Q2468.21 151.125 2468.21 161.819 Q2468.21 172.514 2463.02 179.076 Q2457.88 185.639 2449.61 185.639 Q2444.63 185.639 2441.03 183.694 Q2437.46 181.709 2435.11 177.658 L2435.11 184.464 L2427.62 184.464 L2427.62 121.432 L2435.11 121.432 L2435.11 145.98 Z" fill="#000000" fill-rule="nonzero" fill-opacity="1" /><path clip-path="url(#clip230)" d="M2498.14 144.32 Q2492.15 144.32 2488.66 149.019 Q2485.18 153.677 2485.18 161.819 Q2485.18 169.962 2488.62 174.661 Q2492.11 179.319 2498.14 179.319 Q2504.1 179.319 2507.58 174.62 Q2511.07 169.921 2511.07 161.819 Q2511.07 153.758 2507.58 149.059 Q2504.1 144.32 2498.14 144.32 M2498.14 138 Q2507.87 138 2513.41 144.32 Q2518.96 150.639 2518.96 161.819 Q2518.96 172.959 2513.41 179.319 Q2507.87 185.639 2498.14 185.639 Q2488.38 185.639 2482.83 179.319 Q2477.32 172.959 2477.32 161.819 Q2477.32 150.639 2482.83 144.32 Q2488.38 138 2498.14 138 Z" fill="#000000" fill-rule="nonzero" fill-opacity="1" /><path clip-path="url(#clip230)" d="M2538.69 126.212 L2538.69 139.094 L2554.05 139.094 L2554.05 144.887 L2538.69 144.887 L2538.69 169.516 Q2538.69 175.066 2540.19 176.646 Q2541.73 178.226 2546.39 178.226 L2554.05 178.226 L2554.05 184.464 L2546.39 184.464 Q2537.76 184.464 2534.48 181.264 Q2531.2 178.023 2531.2 169.516 L2531.2 144.887 L2525.73 144.887 L2525.73 139.094 L2531.2 139.094 L2531.2 126.212 L2538.69 126.212 Z" fill="#000000" fill-rule="nonzero" fill-opacity="1" /><polyline clip-path="url(#clip232)" style="stroke:#0000ff; stroke-linecap:round; stroke-linejoin:round; stroke-width:6; stroke-opacity:1; fill:none" points="398.085,2094.78 585.863,2058.83 898.826,1814.15 1524.75,1553.75 3402.53,598.741 "/>
<circle clip-path="url(#clip232)" cx="398.085" cy="2094.78" r="14.4" fill="#0000ff" fill-rule="evenodd" fill-opacity="1" stroke="none"/>
<circle clip-path="url(#clip232)" cx="585.863" cy="2058.83" r="14.4" fill="#0000ff" fill-rule="evenodd" fill-opacity="1" stroke="none"/>
<circle clip-path="url(#clip232)" cx="898.826" cy="1814.15" r="14.4" fill="#0000ff" fill-rule="evenodd" fill-opacity="1" stroke="none"/>
<circle clip-path="url(#clip232)" cx="1524.75" cy="1553.75" r="14.4" fill="#0000ff" fill-rule="evenodd" fill-opacity="1" stroke="none"/>
<circle clip-path="url(#clip232)" cx="3402.53" cy="598.741" r="14.4" fill="#0000ff" fill-rule="evenodd" fill-opacity="1" stroke="none"/>
<polyline clip-path="url(#clip232)" style="stroke:#008000; stroke-linecap:round; stroke-linejoin:round; stroke-width:6; stroke-opacity:1; fill:none" points="398.085,2092.32 585.863,2024.12 898.826,1944.34 1524.75,1102.56 3402.53,300.989 "/>
<path clip-path="url(#clip232)" d="M398.085 2076.32 L382.085 2092.32 L398.085 2108.32 L414.085 2092.32 L398.085 2076.32 Z" fill="#008000" fill-rule="evenodd" fill-opacity="1" stroke="none"/>
<path clip-path="url(#clip232)" d="M585.863 2008.12 L569.863 2024.12 L585.863 2040.12 L601.863 2024.12 L585.863 2008.12 Z" fill="#008000" fill-rule="evenodd" fill-opacity="1" stroke="none"/>
<path clip-path="url(#clip232)" d="M898.826 1928.34 L882.826 1944.34 L898.826 1960.34 L914.826 1944.34 L898.826 1928.34 Z" fill="#008000" fill-rule="evenodd" fill-opacity="1" stroke="none"/>
<path clip-path="url(#clip232)" d="M1524.75 1086.56 L1508.75 1102.56 L1524.75 1118.56 L1540.75 1102.56 L1524.75 1086.56 Z" fill="#008000" fill-rule="evenodd" fill-opacity="1" stroke="none"/>
<path clip-path="url(#clip232)" d="M3402.53 284.989 L3386.53 300.989 L3402.53 316.989 L3418.53 300.989 L3402.53 284.989 Z" fill="#008000" fill-rule="evenodd" fill-opacity="1" stroke="none"/>
<polyline clip-path="url(#clip232)" style="stroke:#ff0000; stroke-linecap:round; stroke-linejoin:round; stroke-width:6; stroke-opacity:1; fill:none" points="398.085,2102.46 585.863,2085.6 898.826,2027.7 1524.75,1895.84 3402.53,1471.21 "/>
<path clip-path="url(#clip232)" d="M382.085 2086.46 L382.085 2118.46 L414.085 2118.46 L414.085 2086.46 L382.085 2086.46 Z" fill="#ff0000" fill-rule="evenodd" fill-opacity="1" stroke="none"/>
<path clip-path="url(#clip232)" d="M569.863 2069.6 L569.863 2101.6 L601.863 2101.6 L601.863 2069.6 L569.863 2069.6 Z" fill="#ff0000" fill-rule="evenodd" fill-opacity="1" stroke="none"/>
<path clip-path="url(#clip232)" d="M882.826 2011.7 L882.826 2043.7 L914.826 2043.7 L914.826 2011.7 L882.826 2011.7 Z" fill="#ff0000" fill-rule="evenodd" fill-opacity="1" stroke="none"/>
<path clip-path="url(#clip232)" d="M1508.75 1879.84 L1508.75 1911.84 L1540.75 1911.84 L1540.75 1879.84 L1508.75 1879.84 Z" fill="#ff0000" fill-rule="evenodd" fill-opacity="1" stroke="none"/>
<path clip-path="url(#clip232)" d="M3386.53 1455.21 L3386.53 1487.21 L3418.53 1487.21 L3418.53 1455.21 L3386.53 1455.21 Z" fill="#ff0000" fill-rule="evenodd" fill-opacity="1" stroke="none"/>
<polyline clip-path="url(#clip232)" style="stroke:#ffa500; stroke-linecap:round; stroke-linejoin:round; stroke-width:6; stroke-opacity:1; fill:none" points="398.085,2101.99 585.863,2080.37 898.826,2033.86 1524.75,1721.65 3402.53,1112.31 "/>
<path clip-path="url(#clip232)" d="M398.085 2085.99 L382.085 2117.99 L414.085 2117.99 L398.085 2085.99 Z" fill="#ffa500" fill-rule="evenodd" fill-opacity="1" stroke="none"/>
<path clip-path="url(#clip232)" d="M585.863 2064.37 L569.863 2096.37 L601.863 2096.37 L585.863 2064.37 Z" fill="#ffa500" fill-rule="evenodd" fill-opacity="1" stroke="none"/>
<path clip-path="url(#clip232)" d="M898.826 2017.86 L882.826 2049.86 L914.826 2049.86 L898.826 2017.86 Z" fill="#ffa500" fill-rule="evenodd" fill-opacity="1" stroke="none"/>
<path clip-path="url(#clip232)" d="M1524.75 1705.65 L1508.75 1737.65 L1540.75 1737.65 L1524.75 1705.65 Z" fill="#ffa500" fill-rule="evenodd" fill-opacity="1" stroke="none"/>
<path clip-path="url(#clip232)" d="M3402.53 1096.31 L3386.53 1128.31 L3418.53 1128.31 L3402.53 1096.31 Z" fill="#ffa500" fill-rule="evenodd" fill-opacity="1" stroke="none"/>
<polyline clip-path="url(#clip232)" style="stroke:#800080; stroke-linecap:round; stroke-linejoin:round; stroke-width:6; stroke-opacity:1; fill:none" points="398.085,2097.86 585.863,2066.02 898.826,1946.84 1524.75,1737.31 3402.53,1111.98 "/>
<path clip-path="url(#clip232)" d="M414.085 2081.86 L382.085 2081.86 L398.085 2113.86 L414.085 2081.86 Z" fill="#800080" fill-rule="evenodd" fill-opacity="1" stroke="none"/>
<path clip-path="url(#clip232)" d="M601.863 2050.02 L569.863 2050.02 L585.863 2082.02 L601.863 2050.02 Z" fill="#800080" fill-rule="evenodd" fill-opacity="1" stroke="none"/>
<path clip-path="url(#clip232)" d="M914.826 1930.84 L882.826 1930.84 L898.826 1962.84 L914.826 1930.84 Z" fill="#800080" fill-rule="evenodd" fill-opacity="1" stroke="none"/>
<path clip-path="url(#clip232)" d="M1540.75 1721.31 L1508.75 1721.31 L1524.75 1753.31 L1540.75 1721.31 Z" fill="#800080" fill-rule="evenodd" fill-opacity="1" stroke="none"/>
<path clip-path="url(#clip232)" d="M3418.53 1095.98 L3386.53 1095.98 L3402.53 1127.98 L3418.53 1095.98 Z" fill="#800080" fill-rule="evenodd" fill-opacity="1" stroke="none"/>
<polyline clip-path="url(#clip232)" style="stroke:#a52a2a; stroke-linecap:round; stroke-linejoin:round; stroke-width:6; stroke-opacity:1; fill:none" points="398.085,2092.37 585.863,2045.45 898.826,1956.74 1524.75,1645.21 3402.53,501.624 "/>
<path clip-path="url(#clip232)" d="M398.085 2076.37 L394.325 2087.19 L382.869 2087.43 L392.005 2094.35 L388.677 2105.31 L398.085 2098.77 L407.493 2105.31 L404.165 2094.35 L413.301 2087.43 L401.845 2087.19 L398.085 2076.37 Z" fill="#a52a2a" fill-rule="evenodd" fill-opacity="1" stroke="none"/>
<path clip-path="url(#clip232)" d="M585.863 2029.45 L582.103 2040.26 L570.647 2040.5 L579.783 2047.43 L576.455 2058.39 L585.863 2051.85 L595.271 2058.39 L591.943 2047.43 L601.079 2040.5 L589.623 2040.26 L585.863 2029.45 Z" fill="#a52a2a" fill-rule="evenodd" fill-opacity="1" stroke="none"/>
<path clip-path="url(#clip232)" d="M898.826 1940.74 L895.066 1951.56 L883.61 1951.8 L892.746 1958.73 L889.418 1969.69 L898.826 1963.14 L908.234 1969.69 L904.906 1958.73 L914.042 1951.8 L902.586 1951.56 L898.826 1940.74 Z" fill="#a52a2a" fill-rule="evenodd" fill-opacity="1" stroke="none"/>
<path clip-path="url(#clip232)" d="M1524.75 1629.21 L1520.99 1640.03 L1509.54 1640.27 L1518.67 1647.2 L1515.35 1658.16 L1524.75 1651.61 L1534.16 1658.16 L1530.83 1647.2 L1539.97 1640.27 L1528.51 1640.03 L1524.75 1629.21 Z" fill="#a52a2a" fill-rule="evenodd" fill-opacity="1" stroke="none"/>
<path clip-path="url(#clip232)" d="M3402.53 485.624 L3398.77 496.44 L3387.32 496.68 L3396.45 503.608 L3393.13 514.568 L3402.53 508.024 L3411.94 514.568 L3408.61 503.608 L3417.75 496.68 L3406.29 496.44 L3402.53 485.624 Z" fill="#a52a2a" fill-rule="evenodd" fill-opacity="1" stroke="none"/>
<path clip-path="url(#clip230)" d="M2745.37 2092.86 L3443.43 2092.86 L3443.43 1729.98 L2745.37 1729.98  Z" fill="#ffffff" fill-rule="evenodd" fill-opacity="1"/>
<polyline clip-path="url(#clip230)" style="stroke:#000000; stroke-linecap:round; stroke-linejoin:round; stroke-width:4; stroke-opacity:1; fill:none" points="2745.37,2092.86 3443.43,2092.86 3443.43,1729.98 2745.37,1729.98 2745.37,2092.86 "/>
<polyline clip-path="url(#clip230)" style="stroke:#0000ff; stroke-linecap:round; stroke-linejoin:round; stroke-width:6; stroke-opacity:1; fill:none" points="2781.82,1781.82 3000.47,1781.82 "/>
<circle clip-path="url(#clip230)" cx="2891.15" cy="1781.82" r="23.04" fill="#0000ff" fill-rule="evenodd" fill-opacity="1" stroke="none"/>
<path clip-path="url(#clip230)" d="M3047.54 1763.12 Q3044.44 1768.45 3042.94 1773.66 Q3041.43 1778.86 3041.43 1784.21 Q3041.43 1789.56 3042.94 1794.81 Q3044.46 1800.04 3047.54 1805.35 L3043.84 1805.35 Q3040.37 1799.91 3038.63 1794.65 Q3036.92 1789.4 3036.92 1784.21 Q3036.92 1779.05 3038.63 1773.82 Q3040.34 1768.59 3043.84 1763.12 L3047.54 1763.12 Z" fill="#000000" fill-rule="nonzero" fill-opacity="1" /><path clip-path="url(#clip230)" d="M3067.59 1786.06 Q3062.43 1786.06 3060.44 1787.24 Q3058.44 1788.42 3058.44 1791.27 Q3058.44 1793.54 3059.93 1794.88 Q3061.43 1796.2 3064 1796.2 Q3067.54 1796.2 3069.67 1793.7 Q3071.82 1791.18 3071.82 1787.01 L3071.82 1786.06 L3067.59 1786.06 M3076.08 1784.3 L3076.08 1799.1 L3071.82 1799.1 L3071.82 1795.16 Q3070.37 1797.52 3068.19 1798.66 Q3066.01 1799.77 3062.87 1799.77 Q3058.88 1799.77 3056.52 1797.54 Q3054.19 1795.3 3054.19 1791.55 Q3054.19 1787.17 3057.1 1784.95 Q3060.04 1782.73 3065.85 1782.73 L3071.82 1782.73 L3071.82 1782.31 Q3071.82 1779.37 3069.88 1777.78 Q3067.96 1776.16 3064.46 1776.16 Q3062.24 1776.16 3060.13 1776.69 Q3058.03 1777.22 3056.08 1778.29 L3056.08 1774.35 Q3058.42 1773.45 3060.62 1773.01 Q3062.82 1772.54 3064.9 1772.54 Q3070.53 1772.54 3073.31 1775.46 Q3076.08 1778.38 3076.08 1784.3 Z" fill="#000000" fill-rule="nonzero" fill-opacity="1" /><path clip-path="url(#clip230)" d="M3101.92 1777.1 L3101.92 1763.08 L3106.18 1763.08 L3106.18 1799.1 L3101.92 1799.1 L3101.92 1795.21 Q3100.57 1797.52 3098.51 1798.66 Q3096.48 1799.77 3093.61 1799.77 Q3088.91 1799.77 3085.94 1796.02 Q3083 1792.27 3083 1786.16 Q3083 1780.04 3085.94 1776.29 Q3088.91 1772.54 3093.61 1772.54 Q3096.48 1772.54 3098.51 1773.68 Q3100.57 1774.79 3101.92 1777.1 M3087.4 1786.16 Q3087.4 1790.85 3089.32 1793.54 Q3091.27 1796.2 3094.65 1796.2 Q3098.03 1796.2 3099.97 1793.54 Q3101.92 1790.85 3101.92 1786.16 Q3101.92 1781.46 3099.97 1778.79 Q3098.03 1776.11 3094.65 1776.11 Q3091.27 1776.11 3089.32 1778.79 Q3087.4 1781.46 3087.4 1786.16 Z" fill="#000000" fill-rule="nonzero" fill-opacity="1" /><path clip-path="url(#clip230)" d="M3136.5 1783.45 L3136.5 1799.1 L3132.24 1799.1 L3132.24 1783.59 Q3132.24 1779.91 3130.81 1778.08 Q3129.37 1776.25 3126.5 1776.25 Q3123.05 1776.25 3121.06 1778.45 Q3119.07 1780.65 3119.07 1784.44 L3119.07 1799.1 L3114.79 1799.1 L3114.79 1773.17 L3119.07 1773.17 L3119.07 1777.2 Q3120.6 1774.86 3122.66 1773.7 Q3124.74 1772.54 3127.45 1772.54 Q3131.92 1772.54 3134.21 1775.32 Q3136.5 1778.08 3136.5 1783.45 Z" fill="#000000" fill-rule="nonzero" fill-opacity="1" /><path clip-path="url(#clip230)" d="M3145 1763.08 L3149.25 1763.08 L3149.25 1799.1 L3145 1799.1 L3145 1763.08 Z" fill="#000000" fill-rule="nonzero" fill-opacity="1" /><path clip-path="url(#clip230)" d="M3162.29 1795.21 L3162.29 1808.96 L3158 1808.96 L3158 1773.17 L3162.29 1773.17 L3162.29 1777.1 Q3163.63 1774.79 3165.67 1773.68 Q3167.73 1772.54 3170.57 1772.54 Q3175.3 1772.54 3178.24 1776.29 Q3181.2 1780.04 3181.2 1786.16 Q3181.2 1792.27 3178.24 1796.02 Q3175.3 1799.77 3170.57 1799.77 Q3167.73 1799.77 3165.67 1798.66 Q3163.63 1797.52 3162.29 1795.21 M3176.78 1786.16 Q3176.78 1781.46 3174.83 1778.79 Q3172.91 1776.11 3169.53 1776.11 Q3166.15 1776.11 3164.21 1778.79 Q3162.29 1781.46 3162.29 1786.16 Q3162.29 1790.85 3164.21 1793.54 Q3166.15 1796.2 3169.53 1796.2 Q3172.91 1796.2 3174.83 1793.54 Q3176.78 1790.85 3176.78 1786.16 Z" fill="#000000" fill-rule="nonzero" fill-opacity="1" /><path clip-path="url(#clip230)" d="M3189.35 1793.22 L3194.23 1793.22 L3194.23 1797.2 L3190.43 1804.6 L3187.45 1804.6 L3189.35 1797.2 L3189.35 1793.22 Z" fill="#000000" fill-rule="nonzero" fill-opacity="1" /><path clip-path="url(#clip230)" d="M3218.4 1773.17 L3222.66 1773.17 L3222.66 1799.1 L3218.4 1799.1 L3218.4 1773.17 M3218.4 1763.08 L3222.66 1763.08 L3222.66 1768.47 L3218.4 1768.47 L3218.4 1763.08 Z" fill="#000000" fill-rule="nonzero" fill-opacity="1" /><path clip-path="url(#clip230)" d="M3235.69 1795.21 L3235.69 1808.96 L3231.41 1808.96 L3231.41 1773.17 L3235.69 1773.17 L3235.69 1777.1 Q3237.03 1774.79 3239.07 1773.68 Q3241.13 1772.54 3243.98 1772.54 Q3248.7 1772.54 3251.64 1776.29 Q3254.6 1780.04 3254.6 1786.16 Q3254.6 1792.27 3251.64 1796.02 Q3248.7 1799.77 3243.98 1799.77 Q3241.13 1799.77 3239.07 1798.66 Q3237.03 1797.52 3235.69 1795.21 M3250.18 1786.16 Q3250.18 1781.46 3248.24 1778.79 Q3246.31 1776.11 3242.93 1776.11 Q3239.55 1776.11 3237.61 1778.79 Q3235.69 1781.46 3235.69 1786.16 Q3235.69 1790.85 3237.61 1793.54 Q3239.55 1796.2 3242.93 1796.2 Q3246.31 1796.2 3248.24 1793.54 Q3250.18 1790.85 3250.18 1786.16 Z" fill="#000000" fill-rule="nonzero" fill-opacity="1" /><path clip-path="url(#clip230)" d="M3271.71 1776.16 Q3268.28 1776.16 3266.29 1778.84 Q3264.3 1781.5 3264.3 1786.16 Q3264.3 1790.81 3266.27 1793.49 Q3268.26 1796.16 3271.71 1796.16 Q3275.11 1796.16 3277.1 1793.47 Q3279.09 1790.79 3279.09 1786.16 Q3279.09 1781.55 3277.1 1778.86 Q3275.11 1776.16 3271.71 1776.16 M3271.71 1772.54 Q3277.26 1772.54 3280.43 1776.16 Q3283.61 1779.77 3283.61 1786.16 Q3283.61 1792.52 3280.43 1796.16 Q3277.26 1799.77 3271.71 1799.77 Q3266.13 1799.77 3262.96 1796.16 Q3259.81 1792.52 3259.81 1786.16 Q3259.81 1779.77 3262.96 1776.16 Q3266.13 1772.54 3271.71 1772.54 Z" fill="#000000" fill-rule="nonzero" fill-opacity="1" /><path clip-path="url(#clip230)" d="M3294.79 1795.21 L3294.79 1808.96 L3290.5 1808.96 L3290.5 1773.17 L3294.79 1773.17 L3294.79 1777.1 Q3296.13 1774.79 3298.17 1773.68 Q3300.23 1772.54 3303.07 1772.54 Q3307.8 1772.54 3310.74 1776.29 Q3313.7 1780.04 3313.7 1786.16 Q3313.7 1792.27 3310.74 1796.02 Q3307.8 1799.77 3303.07 1799.77 Q3300.23 1799.77 3298.17 1798.66 Q3296.13 1797.52 3294.79 1795.21 M3309.28 1786.16 Q3309.28 1781.46 3307.33 1778.79 Q3305.41 1776.11 3302.03 1776.11 Q3298.65 1776.11 3296.71 1778.79 Q3294.79 1781.46 3294.79 1786.16 Q3294.79 1790.85 3296.71 1793.54 Q3298.65 1796.2 3302.03 1796.2 Q3305.41 1796.2 3307.33 1793.54 Q3309.28 1790.85 3309.28 1786.16 Z" fill="#000000" fill-rule="nonzero" fill-opacity="1" /><path clip-path="url(#clip230)" d="M3324.97 1765.81 L3324.97 1773.17 L3333.74 1773.17 L3333.74 1776.48 L3324.97 1776.48 L3324.97 1790.55 Q3324.97 1793.73 3325.83 1794.63 Q3326.71 1795.53 3329.37 1795.53 L3333.74 1795.53 L3333.74 1799.1 L3329.37 1799.1 Q3324.44 1799.1 3322.56 1797.27 Q3320.69 1795.42 3320.69 1790.55 L3320.69 1776.48 L3317.56 1776.48 L3317.56 1773.17 L3320.69 1773.17 L3320.69 1765.81 L3324.97 1765.81 Z" fill="#000000" fill-rule="nonzero" fill-opacity="1" /><path clip-path="url(#clip230)" d="M3338.67 1763.12 L3342.38 1763.12 Q3345.85 1768.59 3347.56 1773.82 Q3349.3 1779.05 3349.3 1784.21 Q3349.3 1789.4 3347.56 1794.65 Q3345.85 1799.91 3342.38 1805.35 L3338.67 1805.35 Q3341.75 1800.04 3343.26 1794.81 Q3344.79 1789.56 3344.79 1784.21 Q3344.79 1778.86 3343.26 1773.66 Q3341.75 1768.45 3338.67 1763.12 Z" fill="#000000" fill-rule="nonzero" fill-opacity="1" /><polyline clip-path="url(#clip230)" style="stroke:#008000; stroke-linecap:round; stroke-linejoin:round; stroke-width:6; stroke-opacity:1; fill:none" points="2781.82,1833.66 3000.47,1833.66 "/>
<path clip-path="url(#clip230)" d="M2891.15 1808.06 L2865.55 1833.66 L2891.15 1859.26 L2916.75 1833.66 L2891.15 1808.06 Z" fill="#008000" fill-rule="evenodd" fill-opacity="1" stroke="none"/>
<path clip-path="url(#clip230)" d="M3047.54 1814.96 Q3044.44 1820.29 3042.94 1825.5 Q3041.43 1830.7 3041.43 1836.05 Q3041.43 1841.4 3042.94 1846.65 Q3044.46 1851.88 3047.54 1857.19 L3043.84 1857.19 Q3040.37 1851.75 3038.63 1846.49 Q3036.92 1841.24 3036.92 1836.05 Q3036.92 1830.89 3038.63 1825.66 Q3040.34 1820.43 3043.84 1814.96 L3047.54 1814.96 Z" fill="#000000" fill-rule="nonzero" fill-opacity="1" /><path clip-path="url(#clip230)" d="M3067.59 1837.9 Q3062.43 1837.9 3060.44 1839.08 Q3058.44 1840.26 3058.44 1843.11 Q3058.44 1845.38 3059.93 1846.72 Q3061.43 1848.04 3064 1848.04 Q3067.54 1848.04 3069.67 1845.54 Q3071.82 1843.02 3071.82 1838.85 L3071.82 1837.9 L3067.59 1837.9 M3076.08 1836.14 L3076.08 1850.94 L3071.82 1850.94 L3071.82 1847 Q3070.37 1849.36 3068.19 1850.5 Q3066.01 1851.61 3062.87 1851.61 Q3058.88 1851.61 3056.52 1849.38 Q3054.19 1847.14 3054.19 1843.39 Q3054.19 1839.01 3057.1 1836.79 Q3060.04 1834.57 3065.85 1834.57 L3071.82 1834.57 L3071.82 1834.15 Q3071.82 1831.21 3069.88 1829.62 Q3067.96 1828 3064.46 1828 Q3062.24 1828 3060.13 1828.53 Q3058.03 1829.06 3056.08 1830.13 L3056.08 1826.19 Q3058.42 1825.29 3060.62 1824.85 Q3062.82 1824.38 3064.9 1824.38 Q3070.53 1824.38 3073.31 1827.3 Q3076.08 1830.22 3076.08 1836.14 Z" fill="#000000" fill-rule="nonzero" fill-opacity="1" /><path clip-path="url(#clip230)" d="M3101.92 1828.94 L3101.92 1814.92 L3106.18 1814.92 L3106.18 1850.94 L3101.92 1850.94 L3101.92 1847.05 Q3100.57 1849.36 3098.51 1850.5 Q3096.48 1851.61 3093.61 1851.61 Q3088.91 1851.61 3085.94 1847.86 Q3083 1844.11 3083 1838 Q3083 1831.88 3085.94 1828.13 Q3088.91 1824.38 3093.61 1824.38 Q3096.48 1824.38 3098.51 1825.52 Q3100.57 1826.63 3101.92 1828.94 M3087.4 1838 Q3087.4 1842.69 3089.32 1845.38 Q3091.27 1848.04 3094.65 1848.04 Q3098.03 1848.04 3099.97 1845.38 Q3101.92 1842.69 3101.92 1838 Q3101.92 1833.3 3099.97 1830.63 Q3098.03 1827.95 3094.65 1827.95 Q3091.27 1827.95 3089.32 1830.63 Q3087.4 1833.3 3087.4 1838 Z" fill="#000000" fill-rule="nonzero" fill-opacity="1" /><path clip-path="url(#clip230)" d="M3136.5 1835.29 L3136.5 1850.94 L3132.24 1850.94 L3132.24 1835.43 Q3132.24 1831.75 3130.81 1829.92 Q3129.37 1828.09 3126.5 1828.09 Q3123.05 1828.09 3121.06 1830.29 Q3119.07 1832.49 3119.07 1836.28 L3119.07 1850.94 L3114.79 1850.94 L3114.79 1825.01 L3119.07 1825.01 L3119.07 1829.04 Q3120.6 1826.7 3122.66 1825.54 Q3124.74 1824.38 3127.45 1824.38 Q3131.92 1824.38 3134.21 1827.16 Q3136.5 1829.92 3136.5 1835.29 Z" fill="#000000" fill-rule="nonzero" fill-opacity="1" /><path clip-path="url(#clip230)" d="M3145 1814.92 L3149.25 1814.92 L3149.25 1850.94 L3145 1850.94 L3145 1814.92 Z" fill="#000000" fill-rule="nonzero" fill-opacity="1" /><path clip-path="url(#clip230)" d="M3162.29 1847.05 L3162.29 1860.8 L3158 1860.8 L3158 1825.01 L3162.29 1825.01 L3162.29 1828.94 Q3163.63 1826.63 3165.67 1825.52 Q3167.73 1824.38 3170.57 1824.38 Q3175.3 1824.38 3178.24 1828.13 Q3181.2 1831.88 3181.2 1838 Q3181.2 1844.11 3178.24 1847.86 Q3175.3 1851.61 3170.57 1851.61 Q3167.73 1851.61 3165.67 1850.5 Q3163.63 1849.36 3162.29 1847.05 M3176.78 1838 Q3176.78 1833.3 3174.83 1830.63 Q3172.91 1827.95 3169.53 1827.95 Q3166.15 1827.95 3164.21 1830.63 Q3162.29 1833.3 3162.29 1838 Q3162.29 1842.69 3164.21 1845.38 Q3166.15 1848.04 3169.53 1848.04 Q3172.91 1848.04 3174.83 1845.38 Q3176.78 1842.69 3176.78 1838 Z" fill="#000000" fill-rule="nonzero" fill-opacity="1" /><path clip-path="url(#clip230)" d="M3189.35 1845.06 L3194.23 1845.06 L3194.23 1849.04 L3190.43 1856.44 L3187.45 1856.44 L3189.35 1849.04 L3189.35 1845.06 Z" fill="#000000" fill-rule="nonzero" fill-opacity="1" /><path clip-path="url(#clip230)" d="M3238.58 1829.99 Q3240.18 1827.12 3242.4 1825.75 Q3244.62 1824.38 3247.63 1824.38 Q3251.68 1824.38 3253.88 1827.23 Q3256.08 1830.06 3256.08 1835.29 L3256.08 1850.94 L3251.8 1850.94 L3251.8 1835.43 Q3251.8 1831.7 3250.48 1829.89 Q3249.16 1828.09 3246.45 1828.09 Q3243.14 1828.09 3241.22 1830.29 Q3239.3 1832.49 3239.3 1836.28 L3239.3 1850.94 L3235.02 1850.94 L3235.02 1835.43 Q3235.02 1831.68 3233.7 1829.89 Q3232.38 1828.09 3229.62 1828.09 Q3226.36 1828.09 3224.44 1830.31 Q3222.52 1832.51 3222.52 1836.28 L3222.52 1850.94 L3218.24 1850.94 L3218.24 1825.01 L3222.52 1825.01 L3222.52 1829.04 Q3223.98 1826.65 3226.01 1825.52 Q3228.05 1824.38 3230.85 1824.38 Q3233.68 1824.38 3235.64 1825.82 Q3237.63 1827.26 3238.58 1829.99 Z" fill="#000000" fill-rule="nonzero" fill-opacity="1" /><path clip-path="url(#clip230)" d="M3276.36 1837.9 Q3271.2 1837.9 3269.21 1839.08 Q3267.22 1840.26 3267.22 1843.11 Q3267.22 1845.38 3268.7 1846.72 Q3270.2 1848.04 3272.77 1848.04 Q3276.31 1848.04 3278.44 1845.54 Q3280.6 1843.02 3280.6 1838.85 L3280.6 1837.9 L3276.36 1837.9 M3284.86 1836.14 L3284.86 1850.94 L3280.6 1850.94 L3280.6 1847 Q3279.14 1849.36 3276.96 1850.5 Q3274.79 1851.61 3271.64 1851.61 Q3267.66 1851.61 3265.3 1849.38 Q3262.96 1847.14 3262.96 1843.39 Q3262.96 1839.01 3265.87 1836.79 Q3268.81 1834.57 3274.62 1834.57 L3280.6 1834.57 L3280.6 1834.15 Q3280.6 1831.21 3278.65 1829.62 Q3276.73 1828 3273.24 1828 Q3271.01 1828 3268.91 1828.53 Q3266.8 1829.06 3264.86 1830.13 L3264.86 1826.19 Q3267.19 1825.29 3269.39 1824.85 Q3271.59 1824.38 3273.68 1824.38 Q3279.3 1824.38 3282.08 1827.3 Q3284.86 1830.22 3284.86 1836.14 Z" fill="#000000" fill-rule="nonzero" fill-opacity="1" /><path clip-path="url(#clip230)" d="M3310.69 1828.94 L3310.69 1814.92 L3314.95 1814.92 L3314.95 1850.94 L3310.69 1850.94 L3310.69 1847.05 Q3309.35 1849.36 3307.29 1850.5 Q3305.25 1851.61 3302.38 1851.61 Q3297.68 1851.61 3294.72 1847.86 Q3291.78 1844.11 3291.78 1838 Q3291.78 1831.88 3294.72 1828.13 Q3297.68 1824.38 3302.38 1824.38 Q3305.25 1824.38 3307.29 1825.52 Q3309.35 1826.63 3310.69 1828.94 M3296.17 1838 Q3296.17 1842.69 3298.1 1845.38 Q3300.04 1848.04 3303.42 1848.04 Q3306.8 1848.04 3308.74 1845.38 Q3310.69 1842.69 3310.69 1838 Q3310.69 1833.3 3308.74 1830.63 Q3306.8 1827.95 3303.42 1827.95 Q3300.04 1827.95 3298.1 1830.63 Q3296.17 1833.3 3296.17 1838 Z" fill="#000000" fill-rule="nonzero" fill-opacity="1" /><path clip-path="url(#clip230)" d="M3345.27 1835.29 L3345.27 1850.94 L3341.01 1850.94 L3341.01 1835.43 Q3341.01 1831.75 3339.58 1829.92 Q3338.14 1828.09 3335.27 1828.09 Q3331.82 1828.09 3329.83 1830.29 Q3327.84 1832.49 3327.84 1836.28 L3327.84 1850.94 L3323.56 1850.94 L3323.56 1825.01 L3327.84 1825.01 L3327.84 1829.04 Q3329.37 1826.7 3331.43 1825.54 Q3333.51 1824.38 3336.22 1824.38 Q3340.69 1824.38 3342.98 1827.16 Q3345.27 1829.92 3345.27 1835.29 Z" fill="#000000" fill-rule="nonzero" fill-opacity="1" /><path clip-path="url(#clip230)" d="M3353.77 1814.92 L3358.03 1814.92 L3358.03 1850.94 L3353.77 1850.94 L3353.77 1814.92 Z" fill="#000000" fill-rule="nonzero" fill-opacity="1" /><path clip-path="url(#clip230)" d="M3371.06 1847.05 L3371.06 1860.8 L3366.78 1860.8 L3366.78 1825.01 L3371.06 1825.01 L3371.06 1828.94 Q3372.4 1826.63 3374.44 1825.52 Q3376.5 1824.38 3379.35 1824.38 Q3384.07 1824.38 3387.01 1828.13 Q3389.97 1831.88 3389.97 1838 Q3389.97 1844.11 3387.01 1847.86 Q3384.07 1851.61 3379.35 1851.61 Q3376.5 1851.61 3374.44 1850.5 Q3372.4 1849.36 3371.06 1847.05 M3385.55 1838 Q3385.55 1833.3 3383.61 1830.63 Q3381.68 1827.95 3378.3 1827.95 Q3374.92 1827.95 3372.98 1830.63 Q3371.06 1833.3 3371.06 1838 Q3371.06 1842.69 3372.98 1845.38 Q3374.92 1848.04 3378.3 1848.04 Q3381.68 1848.04 3383.61 1845.38 Q3385.55 1842.69 3385.55 1838 Z" fill="#000000" fill-rule="nonzero" fill-opacity="1" /><path clip-path="url(#clip230)" d="M3396.36 1814.96 L3400.06 1814.96 Q3403.54 1820.43 3405.25 1825.66 Q3406.98 1830.89 3406.98 1836.05 Q3406.98 1841.24 3405.25 1846.49 Q3403.54 1851.75 3400.06 1857.19 L3396.36 1857.19 Q3399.44 1851.88 3400.94 1846.65 Q3402.47 1841.4 3402.47 1836.05 Q3402.47 1830.7 3400.94 1825.5 Q3399.44 1820.29 3396.36 1814.96 Z" fill="#000000" fill-rule="nonzero" fill-opacity="1" /><polyline clip-path="url(#clip230)" style="stroke:#ff0000; stroke-linecap:round; stroke-linejoin:round; stroke-width:6; stroke-opacity:1; fill:none" points="2781.82,1885.5 3000.47,1885.5 "/>
<path clip-path="url(#clip230)" d="M2865.55 1859.9 L2865.55 1911.1 L2916.75 1911.1 L2916.75 1859.9 L2865.55 1859.9 Z" fill="#ff0000" fill-rule="evenodd" fill-opacity="1" stroke="none"/>
<path clip-path="url(#clip230)" d="M3047.54 1866.8 Q3044.44 1872.13 3042.94 1877.34 Q3041.43 1882.54 3041.43 1887.89 Q3041.43 1893.24 3042.94 1898.49 Q3044.46 1903.72 3047.54 1909.03 L3043.84 1909.03 Q3040.37 1903.59 3038.63 1898.33 Q3036.92 1893.08 3036.92 1887.89 Q3036.92 1882.73 3038.63 1877.5 Q3040.34 1872.27 3043.84 1866.8 L3047.54 1866.8 Z" fill="#000000" fill-rule="nonzero" fill-opacity="1" /><path clip-path="url(#clip230)" d="M3077.98 1888.75 L3077.98 1890.83 L3058.4 1890.83 Q3058.68 1895.23 3061.04 1897.54 Q3063.42 1899.84 3067.66 1899.84 Q3070.11 1899.84 3072.4 1899.23 Q3074.72 1898.63 3076.99 1897.43 L3076.99 1901.46 Q3074.69 1902.43 3072.29 1902.94 Q3069.88 1903.45 3067.4 1903.45 Q3061.2 1903.45 3057.57 1899.84 Q3053.95 1896.22 3053.95 1890.07 Q3053.95 1883.7 3057.38 1879.97 Q3060.83 1876.22 3066.66 1876.22 Q3071.89 1876.22 3074.93 1879.6 Q3077.98 1882.96 3077.98 1888.75 M3073.72 1887.5 Q3073.68 1884 3071.75 1881.92 Q3069.86 1879.84 3066.71 1879.84 Q3063.14 1879.84 3060.99 1881.85 Q3058.86 1883.86 3058.54 1887.52 L3073.72 1887.5 Z" fill="#000000" fill-rule="nonzero" fill-opacity="1" /><path clip-path="url(#clip230)" d="M3105.69 1876.85 L3096.31 1889.47 L3106.18 1902.78 L3101.15 1902.78 L3093.61 1892.59 L3086.06 1902.78 L3081.04 1902.78 L3091.11 1889.21 L3081.89 1876.85 L3086.92 1876.85 L3093.79 1886.09 L3100.67 1876.85 L3105.69 1876.85 Z" fill="#000000" fill-rule="nonzero" fill-opacity="1" /><path clip-path="url(#clip230)" d="M3123.98 1889.74 Q3118.81 1889.74 3116.82 1890.92 Q3114.83 1892.1 3114.83 1894.95 Q3114.83 1897.22 3116.31 1898.56 Q3117.82 1899.88 3120.39 1899.88 Q3123.93 1899.88 3126.06 1897.38 Q3128.21 1894.86 3128.21 1890.69 L3128.21 1889.74 L3123.98 1889.74 M3132.47 1887.98 L3132.47 1902.78 L3128.21 1902.78 L3128.21 1898.84 Q3126.75 1901.2 3124.58 1902.34 Q3122.4 1903.45 3119.25 1903.45 Q3115.27 1903.45 3112.91 1901.22 Q3110.57 1898.98 3110.57 1895.23 Q3110.57 1890.85 3113.49 1888.63 Q3116.43 1886.41 3122.24 1886.41 L3128.21 1886.41 L3128.21 1885.99 Q3128.21 1883.05 3126.27 1881.46 Q3124.35 1879.84 3120.85 1879.84 Q3118.63 1879.84 3116.52 1880.37 Q3114.42 1880.9 3112.47 1881.97 L3112.47 1878.03 Q3114.81 1877.13 3117.01 1876.69 Q3119.21 1876.22 3121.29 1876.22 Q3126.92 1876.22 3129.69 1879.14 Q3132.47 1882.06 3132.47 1887.98 Z" fill="#000000" fill-rule="nonzero" fill-opacity="1" /><path clip-path="url(#clip230)" d="M3142.33 1896.9 L3147.22 1896.9 L3147.22 1900.88 L3143.42 1908.28 L3140.44 1908.28 L3142.33 1900.88 L3142.33 1896.9 Z" fill="#000000" fill-rule="nonzero" fill-opacity="1" /><path clip-path="url(#clip230)" d="M3171.38 1876.85 L3175.64 1876.85 L3175.64 1902.78 L3171.38 1902.78 L3171.38 1876.85 M3171.38 1866.76 L3175.64 1866.76 L3175.64 1872.15 L3171.38 1872.15 L3171.38 1866.76 Z" fill="#000000" fill-rule="nonzero" fill-opacity="1" /><path clip-path="url(#clip230)" d="M3188.68 1898.89 L3188.68 1912.64 L3184.39 1912.64 L3184.39 1876.85 L3188.68 1876.85 L3188.68 1880.78 Q3190.02 1878.47 3192.06 1877.36 Q3194.12 1876.22 3196.96 1876.22 Q3201.68 1876.22 3204.62 1879.97 Q3207.59 1883.72 3207.59 1889.84 Q3207.59 1895.95 3204.62 1899.7 Q3201.68 1903.45 3196.96 1903.45 Q3194.12 1903.45 3192.06 1902.34 Q3190.02 1901.2 3188.68 1898.89 M3203.17 1889.84 Q3203.17 1885.14 3201.22 1882.47 Q3199.3 1879.79 3195.92 1879.79 Q3192.54 1879.79 3190.6 1882.47 Q3188.68 1885.14 3188.68 1889.84 Q3188.68 1894.53 3190.6 1897.22 Q3192.54 1899.88 3195.92 1899.88 Q3199.3 1899.88 3201.22 1897.22 Q3203.17 1894.53 3203.17 1889.84 Z" fill="#000000" fill-rule="nonzero" fill-opacity="1" /><path clip-path="url(#clip230)" d="M3224.69 1879.84 Q3221.27 1879.84 3219.28 1882.52 Q3217.29 1885.18 3217.29 1889.84 Q3217.29 1894.49 3219.25 1897.17 Q3221.24 1899.84 3224.69 1899.84 Q3228.1 1899.84 3230.09 1897.15 Q3232.08 1894.47 3232.08 1889.84 Q3232.08 1885.23 3230.09 1882.54 Q3228.1 1879.84 3224.69 1879.84 M3224.69 1876.22 Q3230.25 1876.22 3233.42 1879.84 Q3236.59 1883.45 3236.59 1889.84 Q3236.59 1896.2 3233.42 1899.84 Q3230.25 1903.45 3224.69 1903.45 Q3219.12 1903.45 3215.94 1899.84 Q3212.8 1896.2 3212.8 1889.84 Q3212.8 1883.45 3215.94 1879.84 Q3219.12 1876.22 3224.69 1876.22 Z" fill="#000000" fill-rule="nonzero" fill-opacity="1" /><path clip-path="url(#clip230)" d="M3247.77 1898.89 L3247.77 1912.64 L3243.49 1912.64 L3243.49 1876.85 L3247.77 1876.85 L3247.77 1880.78 Q3249.11 1878.47 3251.15 1877.36 Q3253.21 1876.22 3256.06 1876.22 Q3260.78 1876.22 3263.72 1879.97 Q3266.68 1883.72 3266.68 1889.84 Q3266.68 1895.95 3263.72 1899.7 Q3260.78 1903.45 3256.06 1903.45 Q3253.21 1903.45 3251.15 1902.34 Q3249.11 1901.2 3247.77 1898.89 M3262.26 1889.84 Q3262.26 1885.14 3260.32 1882.47 Q3258.4 1879.79 3255.02 1879.79 Q3251.64 1879.79 3249.69 1882.47 Q3247.77 1885.14 3247.77 1889.84 Q3247.77 1894.53 3249.69 1897.22 Q3251.64 1899.88 3255.02 1899.88 Q3258.4 1899.88 3260.32 1897.22 Q3262.26 1894.53 3262.26 1889.84 Z" fill="#000000" fill-rule="nonzero" fill-opacity="1" /><path clip-path="url(#clip230)" d="M3277.96 1869.49 L3277.96 1876.85 L3286.73 1876.85 L3286.73 1880.16 L3277.96 1880.16 L3277.96 1894.23 Q3277.96 1897.41 3278.81 1898.31 Q3279.69 1899.21 3282.36 1899.21 L3286.73 1899.21 L3286.73 1902.78 L3282.36 1902.78 Q3277.43 1902.78 3275.55 1900.95 Q3273.68 1899.1 3273.68 1894.23 L3273.68 1880.16 L3270.55 1880.16 L3270.55 1876.85 L3273.68 1876.85 L3273.68 1869.49 L3277.96 1869.49 Z" fill="#000000" fill-rule="nonzero" fill-opacity="1" /><path clip-path="url(#clip230)" d="M3291.66 1866.8 L3295.36 1866.8 Q3298.84 1872.27 3300.55 1877.5 Q3302.29 1882.73 3302.29 1887.89 Q3302.29 1893.08 3300.55 1898.33 Q3298.84 1903.59 3295.36 1909.03 L3291.66 1909.03 Q3294.74 1903.72 3296.24 1898.49 Q3297.77 1893.24 3297.77 1887.89 Q3297.77 1882.54 3296.24 1877.34 Q3294.74 1872.13 3291.66 1866.8 Z" fill="#000000" fill-rule="nonzero" fill-opacity="1" /><polyline clip-path="url(#clip230)" style="stroke:#ffa500; stroke-linecap:round; stroke-linejoin:round; stroke-width:6; stroke-opacity:1; fill:none" points="2781.82,1937.34 3000.47,1937.34 "/>
<path clip-path="url(#clip230)" d="M2891.15 1911.74 L2865.55 1962.94 L2916.75 1962.94 L2891.15 1911.74 Z" fill="#ffa500" fill-rule="evenodd" fill-opacity="1" stroke="none"/>
<path clip-path="url(#clip230)" d="M3047.54 1918.64 Q3044.44 1923.97 3042.94 1929.18 Q3041.43 1934.38 3041.43 1939.73 Q3041.43 1945.08 3042.94 1950.33 Q3044.46 1955.56 3047.54 1960.87 L3043.84 1960.87 Q3040.37 1955.43 3038.63 1950.17 Q3036.92 1944.92 3036.92 1939.73 Q3036.92 1934.57 3038.63 1929.34 Q3040.34 1924.11 3043.84 1918.64 L3047.54 1918.64 Z" fill="#000000" fill-rule="nonzero" fill-opacity="1" /><path clip-path="url(#clip230)" d="M3077.98 1940.59 L3077.98 1942.67 L3058.4 1942.67 Q3058.68 1947.07 3061.04 1949.38 Q3063.42 1951.68 3067.66 1951.68 Q3070.11 1951.68 3072.4 1951.07 Q3074.72 1950.47 3076.99 1949.27 L3076.99 1953.3 Q3074.69 1954.27 3072.29 1954.78 Q3069.88 1955.29 3067.4 1955.29 Q3061.2 1955.29 3057.57 1951.68 Q3053.95 1948.06 3053.95 1941.91 Q3053.95 1935.54 3057.38 1931.81 Q3060.83 1928.06 3066.66 1928.06 Q3071.89 1928.06 3074.93 1931.44 Q3077.98 1934.8 3077.98 1940.59 M3073.72 1939.34 Q3073.68 1935.84 3071.75 1933.76 Q3069.86 1931.68 3066.71 1931.68 Q3063.14 1931.68 3060.99 1933.69 Q3058.86 1935.7 3058.54 1939.36 L3073.72 1939.34 Z" fill="#000000" fill-rule="nonzero" fill-opacity="1" /><path clip-path="url(#clip230)" d="M3105.69 1928.69 L3096.31 1941.31 L3106.18 1954.62 L3101.15 1954.62 L3093.61 1944.43 L3086.06 1954.62 L3081.04 1954.62 L3091.11 1941.05 L3081.89 1928.69 L3086.92 1928.69 L3093.79 1937.93 L3100.67 1928.69 L3105.69 1928.69 Z" fill="#000000" fill-rule="nonzero" fill-opacity="1" /><path clip-path="url(#clip230)" d="M3123.98 1941.58 Q3118.81 1941.58 3116.82 1942.76 Q3114.83 1943.94 3114.83 1946.79 Q3114.83 1949.06 3116.31 1950.4 Q3117.82 1951.72 3120.39 1951.72 Q3123.93 1951.72 3126.06 1949.22 Q3128.21 1946.7 3128.21 1942.53 L3128.21 1941.58 L3123.98 1941.58 M3132.47 1939.82 L3132.47 1954.62 L3128.21 1954.62 L3128.21 1950.68 Q3126.75 1953.04 3124.58 1954.18 Q3122.4 1955.29 3119.25 1955.29 Q3115.27 1955.29 3112.91 1953.06 Q3110.57 1950.82 3110.57 1947.07 Q3110.57 1942.69 3113.49 1940.47 Q3116.43 1938.25 3122.24 1938.25 L3128.21 1938.25 L3128.21 1937.83 Q3128.21 1934.89 3126.27 1933.3 Q3124.35 1931.68 3120.85 1931.68 Q3118.63 1931.68 3116.52 1932.21 Q3114.42 1932.74 3112.47 1933.81 L3112.47 1929.87 Q3114.81 1928.97 3117.01 1928.53 Q3119.21 1928.06 3121.29 1928.06 Q3126.92 1928.06 3129.69 1930.98 Q3132.47 1933.9 3132.47 1939.82 Z" fill="#000000" fill-rule="nonzero" fill-opacity="1" /><path clip-path="url(#clip230)" d="M3142.33 1948.74 L3147.22 1948.74 L3147.22 1952.72 L3143.42 1960.12 L3140.44 1960.12 L3142.33 1952.72 L3142.33 1948.74 Z" fill="#000000" fill-rule="nonzero" fill-opacity="1" /><path clip-path="url(#clip230)" d="M3191.57 1933.67 Q3193.17 1930.8 3195.39 1929.43 Q3197.61 1928.06 3200.62 1928.06 Q3204.67 1928.06 3206.87 1930.91 Q3209.07 1933.74 3209.07 1938.97 L3209.07 1954.62 L3204.79 1954.62 L3204.79 1939.11 Q3204.79 1935.38 3203.47 1933.57 Q3202.15 1931.77 3199.44 1931.77 Q3196.13 1931.77 3194.21 1933.97 Q3192.29 1936.17 3192.29 1939.96 L3192.29 1954.62 L3188 1954.62 L3188 1939.11 Q3188 1935.36 3186.68 1933.57 Q3185.37 1931.77 3182.61 1931.77 Q3179.35 1931.77 3177.43 1933.99 Q3175.5 1936.19 3175.5 1939.96 L3175.5 1954.62 L3171.22 1954.62 L3171.22 1928.69 L3175.5 1928.69 L3175.5 1932.72 Q3176.96 1930.33 3179 1929.2 Q3181.04 1928.06 3183.84 1928.06 Q3186.66 1928.06 3188.63 1929.5 Q3190.62 1930.94 3191.57 1933.67 Z" fill="#000000" fill-rule="nonzero" fill-opacity="1" /><path clip-path="url(#clip230)" d="M3229.35 1941.58 Q3224.18 1941.58 3222.19 1942.76 Q3220.2 1943.94 3220.2 1946.79 Q3220.2 1949.06 3221.68 1950.4 Q3223.19 1951.72 3225.76 1951.72 Q3229.3 1951.72 3231.43 1949.22 Q3233.58 1946.7 3233.58 1942.53 L3233.58 1941.58 L3229.35 1941.58 M3237.84 1939.82 L3237.84 1954.62 L3233.58 1954.62 L3233.58 1950.68 Q3232.12 1953.04 3229.95 1954.18 Q3227.77 1955.29 3224.62 1955.29 Q3220.64 1955.29 3218.28 1953.06 Q3215.94 1950.82 3215.94 1947.07 Q3215.94 1942.69 3218.86 1940.47 Q3221.8 1938.25 3227.61 1938.25 L3233.58 1938.25 L3233.58 1937.83 Q3233.58 1934.89 3231.64 1933.3 Q3229.72 1931.68 3226.22 1931.68 Q3224 1931.68 3221.89 1932.21 Q3219.79 1932.74 3217.84 1933.81 L3217.84 1929.87 Q3220.18 1928.97 3222.38 1928.53 Q3224.58 1928.06 3226.66 1928.06 Q3232.29 1928.06 3235.06 1930.98 Q3237.84 1933.9 3237.84 1939.82 Z" fill="#000000" fill-rule="nonzero" fill-opacity="1" /><path clip-path="url(#clip230)" d="M3263.68 1932.62 L3263.68 1918.6 L3267.93 1918.6 L3267.93 1954.62 L3263.68 1954.62 L3263.68 1950.73 Q3262.33 1953.04 3260.27 1954.18 Q3258.24 1955.29 3255.36 1955.29 Q3250.67 1955.29 3247.7 1951.54 Q3244.76 1947.79 3244.76 1941.68 Q3244.76 1935.56 3247.7 1931.81 Q3250.67 1928.06 3255.36 1928.06 Q3258.24 1928.06 3260.27 1929.2 Q3262.33 1930.31 3263.68 1932.62 M3249.16 1941.68 Q3249.16 1946.37 3251.08 1949.06 Q3253.03 1951.72 3256.41 1951.72 Q3259.79 1951.72 3261.73 1949.06 Q3263.68 1946.37 3263.68 1941.68 Q3263.68 1936.98 3261.73 1934.31 Q3259.79 1931.63 3256.41 1931.63 Q3253.03 1931.63 3251.08 1934.31 Q3249.16 1936.98 3249.16 1941.68 Z" fill="#000000" fill-rule="nonzero" fill-opacity="1" /><path clip-path="url(#clip230)" d="M3298.26 1938.97 L3298.26 1954.62 L3294 1954.62 L3294 1939.11 Q3294 1935.43 3292.56 1933.6 Q3291.13 1931.77 3288.26 1931.77 Q3284.81 1931.77 3282.82 1933.97 Q3280.83 1936.17 3280.83 1939.96 L3280.83 1954.62 L3276.55 1954.62 L3276.55 1928.69 L3280.83 1928.69 L3280.83 1932.72 Q3282.36 1930.38 3284.42 1929.22 Q3286.5 1928.06 3289.21 1928.06 Q3293.67 1928.06 3295.97 1930.84 Q3298.26 1933.6 3298.26 1938.97 Z" fill="#000000" fill-rule="nonzero" fill-opacity="1" /><path clip-path="url(#clip230)" d="M3306.75 1918.6 L3311.01 1918.6 L3311.01 1954.62 L3306.75 1954.62 L3306.75 1918.6 Z" fill="#000000" fill-rule="nonzero" fill-opacity="1" /><path clip-path="url(#clip230)" d="M3324.05 1950.73 L3324.05 1964.48 L3319.76 1964.48 L3319.76 1928.69 L3324.05 1928.69 L3324.05 1932.62 Q3325.39 1930.31 3327.42 1929.2 Q3329.48 1928.06 3332.33 1928.06 Q3337.05 1928.06 3339.99 1931.81 Q3342.96 1935.56 3342.96 1941.68 Q3342.96 1947.79 3339.99 1951.54 Q3337.05 1955.29 3332.33 1955.29 Q3329.48 1955.29 3327.42 1954.18 Q3325.39 1953.04 3324.05 1950.73 M3338.54 1941.68 Q3338.54 1936.98 3336.59 1934.31 Q3334.67 1931.63 3331.29 1931.63 Q3327.91 1931.63 3325.97 1934.31 Q3324.05 1936.98 3324.05 1941.68 Q3324.05 1946.37 3325.97 1949.06 Q3327.91 1951.72 3331.29 1951.72 Q3334.67 1951.72 3336.59 1949.06 Q3338.54 1946.37 3338.54 1941.68 Z" fill="#000000" fill-rule="nonzero" fill-opacity="1" /><path clip-path="url(#clip230)" d="M3349.35 1918.64 L3353.05 1918.64 Q3356.52 1924.11 3358.23 1929.34 Q3359.97 1934.57 3359.97 1939.73 Q3359.97 1944.92 3358.23 1950.17 Q3356.52 1955.43 3353.05 1960.87 L3349.35 1960.87 Q3352.42 1955.56 3353.93 1950.33 Q3355.46 1945.08 3355.46 1939.73 Q3355.46 1934.38 3353.93 1929.18 Q3352.42 1923.97 3349.35 1918.64 Z" fill="#000000" fill-rule="nonzero" fill-opacity="1" /><polyline clip-path="url(#clip230)" style="stroke:#800080; stroke-linecap:round; stroke-linejoin:round; stroke-width:6; stroke-opacity:1; fill:none" points="2781.82,1989.18 3000.47,1989.18 "/>
<path clip-path="url(#clip230)" d="M2916.75 1963.58 L2865.55 1963.58 L2891.15 2014.78 L2916.75 1963.58 Z" fill="#800080" fill-rule="evenodd" fill-opacity="1" stroke="none"/>
<path clip-path="url(#clip230)" d="M3047.54 1970.48 Q3044.44 1975.81 3042.94 1981.02 Q3041.43 1986.22 3041.43 1991.57 Q3041.43 1996.92 3042.94 2002.17 Q3044.46 2007.4 3047.54 2012.71 L3043.84 2012.71 Q3040.37 2007.27 3038.63 2002.01 Q3036.92 1996.76 3036.92 1991.57 Q3036.92 1986.41 3038.63 1981.18 Q3040.34 1975.95 3043.84 1970.48 L3047.54 1970.48 Z" fill="#000000" fill-rule="nonzero" fill-opacity="1" /><path clip-path="url(#clip230)" d="M3055.81 1980.53 L3060.07 1980.53 L3060.07 2006.92 Q3060.07 2011.87 3058.17 2014.09 Q3056.29 2016.32 3052.1 2016.32 L3050.48 2016.32 L3050.48 2012.71 L3051.62 2012.71 Q3054.05 2012.71 3054.93 2011.57 Q3055.81 2010.46 3055.81 2006.92 L3055.81 1980.53 M3055.81 1970.44 L3060.07 1970.44 L3060.07 1975.83 L3055.81 1975.83 L3055.81 1970.44 Z" fill="#000000" fill-rule="nonzero" fill-opacity="1" /><path clip-path="url(#clip230)" d="M3068.54 1996.22 L3068.54 1980.53 L3072.8 1980.53 L3072.8 1996.06 Q3072.8 1999.74 3074.23 2001.59 Q3075.67 2003.42 3078.54 2003.42 Q3081.99 2003.42 3083.98 2001.22 Q3085.99 1999.03 3085.99 1995.23 L3085.99 1980.53 L3090.25 1980.53 L3090.25 2006.46 L3085.99 2006.46 L3085.99 2002.47 Q3084.44 2004.84 3082.38 2005.99 Q3080.34 2007.13 3077.63 2007.13 Q3073.17 2007.13 3070.85 2004.35 Q3068.54 2001.57 3068.54 1996.22 M3079.25 1979.9 L3079.25 1979.9 Z" fill="#000000" fill-rule="nonzero" fill-opacity="1" /><path clip-path="url(#clip230)" d="M3119.21 1985.51 Q3120.81 1982.64 3123.03 1981.27 Q3125.25 1979.9 3128.26 1979.9 Q3132.31 1979.9 3134.51 1982.75 Q3136.71 1985.58 3136.71 1990.81 L3136.71 2006.46 L3132.43 2006.46 L3132.43 1990.95 Q3132.43 1987.22 3131.11 1985.41 Q3129.79 1983.61 3127.08 1983.61 Q3123.77 1983.61 3121.85 1985.81 Q3119.93 1988.01 3119.93 1991.8 L3119.93 2006.46 L3115.64 2006.46 L3115.64 1990.95 Q3115.64 1987.2 3114.32 1985.41 Q3113 1983.61 3110.25 1983.61 Q3106.99 1983.61 3105.06 1985.83 Q3103.14 1988.03 3103.14 1991.8 L3103.14 2006.46 L3098.86 2006.46 L3098.86 1980.53 L3103.14 1980.53 L3103.14 1984.56 Q3104.6 1982.17 3106.64 1981.04 Q3108.68 1979.9 3111.48 1979.9 Q3114.3 1979.9 3116.27 1981.34 Q3118.26 1982.78 3119.21 1985.51 Z" fill="#000000" fill-rule="nonzero" fill-opacity="1" /><path clip-path="url(#clip230)" d="M3149.32 2002.57 L3149.32 2016.32 L3145.04 2016.32 L3145.04 1980.53 L3149.32 1980.53 L3149.32 1984.46 Q3150.67 1982.15 3152.7 1981.04 Q3154.76 1979.9 3157.61 1979.9 Q3162.33 1979.9 3165.27 1983.65 Q3168.24 1987.4 3168.24 1993.52 Q3168.24 1999.63 3165.27 2003.38 Q3162.33 2007.13 3157.61 2007.13 Q3154.76 2007.13 3152.7 2006.02 Q3150.67 2004.88 3149.32 2002.57 M3163.81 1993.52 Q3163.81 1988.82 3161.87 1986.15 Q3159.95 1983.47 3156.57 1983.47 Q3153.19 1983.47 3151.25 1986.15 Q3149.32 1988.82 3149.32 1993.52 Q3149.32 1998.21 3151.25 2000.9 Q3153.19 2003.56 3156.57 2003.56 Q3159.95 2003.56 3161.87 2000.9 Q3163.81 1998.21 3163.81 1993.52 Z" fill="#000000" fill-rule="nonzero" fill-opacity="1" /><path clip-path="url(#clip230)" d="M3176.38 2000.58 L3181.27 2000.58 L3181.27 2004.56 L3177.47 2011.96 L3174.49 2011.96 L3176.38 2004.56 L3176.38 2000.58 Z" fill="#000000" fill-rule="nonzero" fill-opacity="1" /><path clip-path="url(#clip230)" d="M3205.43 1980.53 L3209.69 1980.53 L3209.69 2006.46 L3205.43 2006.46 L3205.43 1980.53 M3205.43 1970.44 L3209.69 1970.44 L3209.69 1975.83 L3205.43 1975.83 L3205.43 1970.44 Z" fill="#000000" fill-rule="nonzero" fill-opacity="1" /><path clip-path="url(#clip230)" d="M3222.73 2002.57 L3222.73 2016.32 L3218.44 2016.32 L3218.44 1980.53 L3222.73 1980.53 L3222.73 1984.46 Q3224.07 1982.15 3226.11 1981.04 Q3228.17 1979.9 3231.01 1979.9 Q3235.74 1979.9 3238.68 1983.65 Q3241.64 1987.4 3241.64 1993.52 Q3241.64 1999.63 3238.68 2003.38 Q3235.74 2007.13 3231.01 2007.13 Q3228.17 2007.13 3226.11 2006.02 Q3224.07 2004.88 3222.73 2002.57 M3237.22 1993.52 Q3237.22 1988.82 3235.27 1986.15 Q3233.35 1983.47 3229.97 1983.47 Q3226.59 1983.47 3224.65 1986.15 Q3222.73 1988.82 3222.73 1993.52 Q3222.73 1998.21 3224.65 2000.9 Q3226.59 2003.56 3229.97 2003.56 Q3233.35 2003.56 3235.27 2000.9 Q3237.22 1998.21 3237.22 1993.52 Z" fill="#000000" fill-rule="nonzero" fill-opacity="1" /><path clip-path="url(#clip230)" d="M3258.74 1983.52 Q3255.32 1983.52 3253.33 1986.2 Q3251.34 1988.86 3251.34 1993.52 Q3251.34 1998.17 3253.3 2000.85 Q3255.3 2003.52 3258.74 2003.52 Q3262.15 2003.52 3264.14 2000.83 Q3266.13 1998.15 3266.13 1993.52 Q3266.13 1988.91 3264.14 1986.22 Q3262.15 1983.52 3258.74 1983.52 M3258.74 1979.9 Q3264.3 1979.9 3267.47 1983.52 Q3270.64 1987.13 3270.64 1993.52 Q3270.64 1999.88 3267.47 2003.52 Q3264.3 2007.13 3258.74 2007.13 Q3253.17 2007.13 3249.99 2003.52 Q3246.85 1999.88 3246.85 1993.52 Q3246.85 1987.13 3249.99 1983.52 Q3253.17 1979.9 3258.74 1979.9 Z" fill="#000000" fill-rule="nonzero" fill-opacity="1" /><path clip-path="url(#clip230)" d="M3281.82 2002.57 L3281.82 2016.32 L3277.54 2016.32 L3277.54 1980.53 L3281.82 1980.53 L3281.82 1984.46 Q3283.17 1982.15 3285.2 1981.04 Q3287.26 1979.9 3290.11 1979.9 Q3294.83 1979.9 3297.77 1983.65 Q3300.74 1987.4 3300.74 1993.52 Q3300.74 1999.63 3297.77 2003.38 Q3294.83 2007.13 3290.11 2007.13 Q3287.26 2007.13 3285.2 2006.02 Q3283.17 2004.88 3281.82 2002.57 M3296.31 1993.52 Q3296.31 1988.82 3294.37 1986.15 Q3292.45 1983.47 3289.07 1983.47 Q3285.69 1983.47 3283.74 1986.15 Q3281.82 1988.82 3281.82 1993.52 Q3281.82 1998.21 3283.74 2000.9 Q3285.69 2003.56 3289.07 2003.56 Q3292.45 2003.56 3294.37 2000.9 Q3296.31 1998.21 3296.31 1993.52 Z" fill="#000000" fill-rule="nonzero" fill-opacity="1" /><path clip-path="url(#clip230)" d="M3312.01 1973.17 L3312.01 1980.53 L3320.78 1980.53 L3320.78 1983.84 L3312.01 1983.84 L3312.01 1997.91 Q3312.01 2001.09 3312.86 2001.99 Q3313.74 2002.89 3316.41 2002.89 L3320.78 2002.89 L3320.78 2006.46 L3316.41 2006.46 Q3311.48 2006.46 3309.6 2004.63 Q3307.73 2002.78 3307.73 1997.91 L3307.73 1983.84 L3304.6 1983.84 L3304.6 1980.53 L3307.73 1980.53 L3307.73 1973.17 L3312.01 1973.17 Z" fill="#000000" fill-rule="nonzero" fill-opacity="1" /><path clip-path="url(#clip230)" d="M3325.71 1970.48 L3329.42 1970.48 Q3332.89 1975.95 3334.6 1981.18 Q3336.34 1986.41 3336.34 1991.57 Q3336.34 1996.76 3334.6 2002.01 Q3332.89 2007.27 3329.42 2012.71 L3325.71 2012.71 Q3328.79 2007.4 3330.3 2002.17 Q3331.82 1996.92 3331.82 1991.57 Q3331.82 1986.22 3330.3 1981.02 Q3328.79 1975.81 3325.71 1970.48 Z" fill="#000000" fill-rule="nonzero" fill-opacity="1" /><polyline clip-path="url(#clip230)" style="stroke:#a52a2a; stroke-linecap:round; stroke-linejoin:round; stroke-width:6; stroke-opacity:1; fill:none" points="2781.82,2041.02 3000.47,2041.02 "/>
<path clip-path="url(#clip230)" d="M2891.15 2015.42 L2885.13 2032.72 L2866.8 2033.11 L2881.42 2044.19 L2876.09 2061.73 L2891.15 2051.26 L2906.2 2061.73 L2900.87 2044.19 L2915.49 2033.11 L2897.16 2032.72 L2891.15 2015.42 Z" fill="#a52a2a" fill-rule="evenodd" fill-opacity="1" stroke="none"/>
<path clip-path="url(#clip230)" d="M3047.54 2022.32 Q3044.44 2027.65 3042.94 2032.86 Q3041.43 2038.06 3041.43 2043.41 Q3041.43 2048.76 3042.94 2054.01 Q3044.46 2059.24 3047.54 2064.55 L3043.84 2064.55 Q3040.37 2059.11 3038.63 2053.85 Q3036.92 2048.6 3036.92 2043.41 Q3036.92 2038.25 3038.63 2033.02 Q3040.34 2027.79 3043.84 2022.32 L3047.54 2022.32 Z" fill="#000000" fill-rule="nonzero" fill-opacity="1" /><path clip-path="url(#clip230)" d="M3055.81 2032.37 L3060.07 2032.37 L3060.07 2058.76 Q3060.07 2063.71 3058.17 2065.93 Q3056.29 2068.16 3052.1 2068.16 L3050.48 2068.16 L3050.48 2064.55 L3051.62 2064.55 Q3054.05 2064.55 3054.93 2063.41 Q3055.81 2062.3 3055.81 2058.76 L3055.81 2032.37 M3055.81 2022.28 L3060.07 2022.28 L3060.07 2027.67 L3055.81 2027.67 L3055.81 2022.28 Z" fill="#000000" fill-rule="nonzero" fill-opacity="1" /><path clip-path="url(#clip230)" d="M3068.54 2048.06 L3068.54 2032.37 L3072.8 2032.37 L3072.8 2047.9 Q3072.8 2051.58 3074.23 2053.43 Q3075.67 2055.26 3078.54 2055.26 Q3081.99 2055.26 3083.98 2053.06 Q3085.99 2050.87 3085.99 2047.07 L3085.99 2032.37 L3090.25 2032.37 L3090.25 2058.3 L3085.99 2058.3 L3085.99 2054.31 Q3084.44 2056.68 3082.38 2057.83 Q3080.34 2058.97 3077.63 2058.97 Q3073.17 2058.97 3070.85 2056.19 Q3068.54 2053.41 3068.54 2048.06 M3079.25 2031.74 L3079.25 2031.74 Z" fill="#000000" fill-rule="nonzero" fill-opacity="1" /><path clip-path="url(#clip230)" d="M3119.21 2037.35 Q3120.81 2034.48 3123.03 2033.11 Q3125.25 2031.74 3128.26 2031.74 Q3132.31 2031.74 3134.51 2034.59 Q3136.71 2037.42 3136.71 2042.65 L3136.71 2058.3 L3132.43 2058.3 L3132.43 2042.79 Q3132.43 2039.06 3131.11 2037.25 Q3129.79 2035.45 3127.08 2035.45 Q3123.77 2035.45 3121.85 2037.65 Q3119.93 2039.85 3119.93 2043.64 L3119.93 2058.3 L3115.64 2058.3 L3115.64 2042.79 Q3115.64 2039.04 3114.32 2037.25 Q3113 2035.45 3110.25 2035.45 Q3106.99 2035.45 3105.06 2037.67 Q3103.14 2039.87 3103.14 2043.64 L3103.14 2058.3 L3098.86 2058.3 L3098.86 2032.37 L3103.14 2032.37 L3103.14 2036.4 Q3104.6 2034.01 3106.64 2032.88 Q3108.68 2031.74 3111.48 2031.74 Q3114.3 2031.74 3116.27 2033.18 Q3118.26 2034.62 3119.21 2037.35 Z" fill="#000000" fill-rule="nonzero" fill-opacity="1" /><path clip-path="url(#clip230)" d="M3149.32 2054.41 L3149.32 2068.16 L3145.04 2068.16 L3145.04 2032.37 L3149.32 2032.37 L3149.32 2036.3 Q3150.67 2033.99 3152.7 2032.88 Q3154.76 2031.74 3157.61 2031.74 Q3162.33 2031.74 3165.27 2035.49 Q3168.24 2039.24 3168.24 2045.36 Q3168.24 2051.47 3165.27 2055.22 Q3162.33 2058.97 3157.61 2058.97 Q3154.76 2058.97 3152.7 2057.86 Q3150.67 2056.72 3149.32 2054.41 M3163.81 2045.36 Q3163.81 2040.66 3161.87 2037.99 Q3159.95 2035.31 3156.57 2035.31 Q3153.19 2035.31 3151.25 2037.99 Q3149.32 2040.66 3149.32 2045.36 Q3149.32 2050.05 3151.25 2052.74 Q3153.19 2055.4 3156.57 2055.4 Q3159.95 2055.4 3161.87 2052.74 Q3163.81 2050.05 3163.81 2045.36 Z" fill="#000000" fill-rule="nonzero" fill-opacity="1" /><path clip-path="url(#clip230)" d="M3176.38 2052.42 L3181.27 2052.42 L3181.27 2056.4 L3177.47 2063.8 L3174.49 2063.8 L3176.38 2056.4 L3176.38 2052.42 Z" fill="#000000" fill-rule="nonzero" fill-opacity="1" /><path clip-path="url(#clip230)" d="M3225.62 2037.35 Q3227.22 2034.48 3229.44 2033.11 Q3231.66 2031.74 3234.67 2031.74 Q3238.72 2031.74 3240.92 2034.59 Q3243.12 2037.42 3243.12 2042.65 L3243.12 2058.3 L3238.84 2058.3 L3238.84 2042.79 Q3238.84 2039.06 3237.52 2037.25 Q3236.2 2035.45 3233.49 2035.45 Q3230.18 2035.45 3228.26 2037.65 Q3226.34 2039.85 3226.34 2043.64 L3226.34 2058.3 L3222.05 2058.3 L3222.05 2042.79 Q3222.05 2039.04 3220.74 2037.25 Q3219.42 2035.45 3216.66 2035.45 Q3213.4 2035.45 3211.48 2037.67 Q3209.56 2039.87 3209.56 2043.64 L3209.56 2058.3 L3205.27 2058.3 L3205.27 2032.37 L3209.56 2032.37 L3209.56 2036.4 Q3211.01 2034.01 3213.05 2032.88 Q3215.09 2031.74 3217.89 2031.74 Q3220.71 2031.74 3222.68 2033.18 Q3224.67 2034.62 3225.62 2037.35 Z" fill="#000000" fill-rule="nonzero" fill-opacity="1" /><path clip-path="url(#clip230)" d="M3263.4 2045.26 Q3258.24 2045.26 3256.24 2046.44 Q3254.25 2047.62 3254.25 2050.47 Q3254.25 2052.74 3255.74 2054.08 Q3257.24 2055.4 3259.81 2055.4 Q3263.35 2055.4 3265.48 2052.9 Q3267.63 2050.38 3267.63 2046.21 L3267.63 2045.26 L3263.4 2045.26 M3271.89 2043.5 L3271.89 2058.3 L3267.63 2058.3 L3267.63 2054.36 Q3266.18 2056.72 3264 2057.86 Q3261.82 2058.97 3258.68 2058.97 Q3254.69 2058.97 3252.33 2056.74 Q3249.99 2054.5 3249.99 2050.75 Q3249.99 2046.37 3252.91 2044.15 Q3255.85 2041.93 3261.66 2041.93 L3267.63 2041.93 L3267.63 2041.51 Q3267.63 2038.57 3265.69 2036.98 Q3263.77 2035.36 3260.27 2035.36 Q3258.05 2035.36 3255.94 2035.89 Q3253.84 2036.42 3251.89 2037.49 L3251.89 2033.55 Q3254.23 2032.65 3256.43 2032.21 Q3258.63 2031.74 3260.71 2031.74 Q3266.34 2031.74 3269.11 2034.66 Q3271.89 2037.58 3271.89 2043.5 Z" fill="#000000" fill-rule="nonzero" fill-opacity="1" /><path clip-path="url(#clip230)" d="M3297.73 2036.3 L3297.73 2022.28 L3301.99 2022.28 L3301.99 2058.3 L3297.73 2058.3 L3297.73 2054.41 Q3296.38 2056.72 3294.32 2057.86 Q3292.29 2058.97 3289.42 2058.97 Q3284.72 2058.97 3281.75 2055.22 Q3278.81 2051.47 3278.81 2045.36 Q3278.81 2039.24 3281.75 2035.49 Q3284.72 2031.74 3289.42 2031.74 Q3292.29 2031.74 3294.32 2032.88 Q3296.38 2033.99 3297.73 2036.3 M3283.21 2045.36 Q3283.21 2050.05 3285.13 2052.74 Q3287.08 2055.4 3290.46 2055.4 Q3293.84 2055.4 3295.78 2052.74 Q3297.73 2050.05 3297.73 2045.36 Q3297.73 2040.66 3295.78 2037.99 Q3293.84 2035.31 3290.46 2035.31 Q3287.08 2035.31 3285.13 2037.99 Q3283.21 2040.66 3283.21 2045.36 Z" fill="#000000" fill-rule="nonzero" fill-opacity="1" /><path clip-path="url(#clip230)" d="M3332.31 2042.65 L3332.31 2058.3 L3328.05 2058.3 L3328.05 2042.79 Q3328.05 2039.11 3326.61 2037.28 Q3325.18 2035.45 3322.31 2035.45 Q3318.86 2035.45 3316.87 2037.65 Q3314.88 2039.85 3314.88 2043.64 L3314.88 2058.3 L3310.6 2058.3 L3310.6 2032.37 L3314.88 2032.37 L3314.88 2036.4 Q3316.41 2034.06 3318.47 2032.9 Q3320.55 2031.74 3323.26 2031.74 Q3327.73 2031.74 3330.02 2034.52 Q3332.31 2037.28 3332.31 2042.65 Z" fill="#000000" fill-rule="nonzero" fill-opacity="1" /><path clip-path="url(#clip230)" d="M3340.8 2022.28 L3345.06 2022.28 L3345.06 2058.3 L3340.8 2058.3 L3340.8 2022.28 Z" fill="#000000" fill-rule="nonzero" fill-opacity="1" /><path clip-path="url(#clip230)" d="M3358.1 2054.41 L3358.1 2068.16 L3353.81 2068.16 L3353.81 2032.37 L3358.1 2032.37 L3358.1 2036.3 Q3359.44 2033.99 3361.48 2032.88 Q3363.54 2031.74 3366.38 2031.74 Q3371.11 2031.74 3374.04 2035.49 Q3377.01 2039.24 3377.01 2045.36 Q3377.01 2051.47 3374.04 2055.22 Q3371.11 2058.97 3366.38 2058.97 Q3363.54 2058.97 3361.48 2057.86 Q3359.44 2056.72 3358.1 2054.41 M3372.59 2045.36 Q3372.59 2040.66 3370.64 2037.99 Q3368.72 2035.31 3365.34 2035.31 Q3361.96 2035.31 3360.02 2037.99 Q3358.1 2040.66 3358.1 2045.36 Q3358.1 2050.05 3360.02 2052.74 Q3361.96 2055.4 3365.34 2055.4 Q3368.72 2055.4 3370.64 2052.74 Q3372.59 2050.05 3372.59 2045.36 Z" fill="#000000" fill-rule="nonzero" fill-opacity="1" /><path clip-path="url(#clip230)" d="M3383.4 2022.32 L3387.1 2022.32 Q3390.57 2027.79 3392.29 2033.02 Q3394.02 2038.25 3394.02 2043.41 Q3394.02 2048.6 3392.29 2053.85 Q3390.57 2059.11 3387.1 2064.55 L3383.4 2064.55 Q3386.48 2059.24 3387.98 2054.01 Q3389.51 2048.76 3389.51 2043.41 Q3389.51 2038.06 3387.98 2032.86 Q3386.48 2027.65 3383.4 2022.32 Z" fill="#000000" fill-rule="nonzero" fill-opacity="1" /></svg>
