<?xml version="1.0" encoding="utf-8"?>
<svg xmlns="http://www.w3.org/2000/svg" xmlns:xlink="http://www.w3.org/1999/xlink" width="900" height="600" viewBox="0 0 3600 2400">
<defs>
  <clipPath id="clip140">
    <rect x="0" y="0" width="3600" height="2400"/>
  </clipPath>
</defs>
<path clip-path="url(#clip140)" d="M0 2400 L3600 2400 L3600 0 L0 0  Z" fill="#ffffff" fill-rule="evenodd" fill-opacity="1"/>
<defs>
  <clipPath id="clip141">
    <rect x="322" y="246" width="3232" height="1911"/>
  </clipPath>
</defs>
<path clip-path="url(#clip140)" d="M322.044 2156.51 L3552.76 2156.51 L3552.76 246.944 L322.044 246.944  Z" fill="#ffffff" fill-rule="evenodd" fill-opacity="1"/>
<polyline clip-path="url(#clip141)" style="stroke:#000000; stroke-linecap:round; stroke-linejoin:round; stroke-width:2; stroke-opacity:0.1; fill:none" points="468.895,2156.51 468.895,246.944 "/>
<polyline clip-path="url(#clip141)" style="stroke:#000000; stroke-linecap:round; stroke-linejoin:round; stroke-width:2; stroke-opacity:0.1; fill:none" points="1637.65,2156.51 1637.65,246.944 "/>
<polyline clip-path="url(#clip141)" style="stroke:#000000; stroke-linecap:round; stroke-linejoin:round; stroke-width:2; stroke-opacity:0.1; fill:none" points="2521.78,2156.51 2521.78,246.944 "/>
<polyline clip-path="url(#clip141)" style="stroke:#000000; stroke-linecap:round; stroke-linejoin:round; stroke-width:2; stroke-opacity:0.1; fill:none" points="3405.91,2156.51 3405.91,246.944 "/>
<polyline clip-path="url(#clip141)" style="stroke:#000000; stroke-linecap:round; stroke-linejoin:round; stroke-width:2; stroke-opacity:0.1; fill:none" points="322.044,2002.03 3552.76,2002.03 "/>
<polyline clip-path="url(#clip141)" style="stroke:#000000; stroke-linecap:round; stroke-linejoin:round; stroke-width:2; stroke-opacity:0.1; fill:none" points="322.044,806.47 3552.76,806.47 "/>
<polyline clip-path="url(#clip140)" style="stroke:#000000; stroke-linecap:round; stroke-linejoin:round; stroke-width:4; stroke-opacity:1; fill:none" points="322.044,2156.51 3552.76,2156.51 "/>
<polyline clip-path="url(#clip140)" style="stroke:#000000; stroke-linecap:round; stroke-linejoin:round; stroke-width:4; stroke-opacity:1; fill:none" points="468.895,2156.51 468.895,2137.61 "/>
<polyline clip-path="url(#clip140)" style="stroke:#000000; stroke-linecap:round; stroke-linejoin:round; stroke-width:4; stroke-opacity:1; fill:none" points="1637.65,2156.51 1637.65,2137.61 "/>
<polyline clip-path="url(#clip140)" style="stroke:#000000; stroke-linecap:round; stroke-linejoin:round; stroke-width:4; stroke-opacity:1; fill:none" points="2521.78,2156.51 2521.78,2137.61 "/>
<polyline clip-path="url(#clip140)" style="stroke:#000000; stroke-linecap:round; stroke-linejoin:round; stroke-width:4; stroke-opacity:1; fill:none" points="3405.91,2156.51 3405.91,2137.61 "/>
<path clip-path="url(#clip140)" d="M432.587 2224.57 L448.907 2224.57 L448.907 2228.51 L426.962 2228.51 L426.962 2224.57 Q429.624 2221.82 434.208 2217.19 Q438.814 2212.54 439.995 2211.19 Q442.24 2208.67 443.12 2206.93 Q444.022 2205.17 444.022 2203.48 Q444.022 2200.73 442.078 2198.99 Q440.157 2197.26 437.055 2197.26 Q434.856 2197.26 432.402 2198.02 Q429.971 2198.79 427.194 2200.34 L427.194 2195.61 Q430.018 2194.48 432.471 2193.9 Q434.925 2193.32 436.962 2193.32 Q442.332 2193.32 445.527 2196.01 Q448.721 2198.69 448.721 2203.18 Q448.721 2205.31 447.911 2207.23 Q447.124 2209.13 445.018 2211.73 Q444.439 2212.4 441.337 2215.61 Q438.235 2218.81 432.587 2224.57 Z" fill="#000000" fill-rule="nonzero" fill-opacity="1" /><path clip-path="url(#clip140)" d="M468.721 2197.03 Q465.11 2197.03 463.281 2200.59 Q461.476 2204.13 461.476 2211.26 Q461.476 2218.37 463.281 2221.93 Q465.11 2225.48 468.721 2225.48 Q472.355 2225.48 474.161 2221.93 Q475.99 2218.37 475.99 2211.26 Q475.99 2204.13 474.161 2200.59 Q472.355 2197.03 468.721 2197.03 M468.721 2193.32 Q474.531 2193.32 477.587 2197.93 Q480.666 2202.51 480.666 2211.26 Q480.666 2219.99 477.587 2224.6 Q474.531 2229.18 468.721 2229.18 Q462.911 2229.18 459.832 2224.6 Q456.777 2219.99 456.777 2211.26 Q456.777 2202.51 459.832 2197.93 Q462.911 2193.32 468.721 2193.32 Z" fill="#000000" fill-rule="nonzero" fill-opacity="1" /><path clip-path="url(#clip140)" d="M498.883 2197.03 Q495.272 2197.03 493.443 2200.59 Q491.638 2204.13 491.638 2211.26 Q491.638 2218.37 493.443 2221.93 Q495.272 2225.48 498.883 2225.48 Q502.517 2225.48 504.323 2221.93 Q506.152 2218.37 506.152 2211.26 Q506.152 2204.13 504.323 2200.59 Q502.517 2197.03 498.883 2197.03 M498.883 2193.32 Q504.693 2193.32 507.749 2197.93 Q510.827 2202.51 510.827 2211.26 Q510.827 2219.99 507.749 2224.6 Q504.693 2229.18 498.883 2229.18 Q493.073 2229.18 489.994 2224.6 Q486.939 2219.99 486.939 2211.26 Q486.939 2202.51 489.994 2197.93 Q493.073 2193.32 498.883 2193.32 Z" fill="#000000" fill-rule="nonzero" fill-opacity="1" /><path clip-path="url(#clip140)" d="M1597.27 2193.95 L1615.62 2193.95 L1615.62 2197.88 L1601.55 2197.88 L1601.55 2206.36 Q1602.57 2206.01 1603.59 2205.85 Q1604.61 2205.66 1605.62 2205.66 Q1611.41 2205.66 1614.79 2208.83 Q1618.17 2212 1618.17 2217.42 Q1618.17 2223 1614.7 2226.1 Q1611.23 2229.18 1604.91 2229.18 Q1602.73 2229.18 1600.46 2228.81 Q1598.22 2228.44 1595.81 2227.7 L1595.81 2223 Q1597.89 2224.13 1600.11 2224.69 Q1602.34 2225.24 1604.81 2225.24 Q1608.82 2225.24 1611.16 2223.14 Q1613.49 2221.03 1613.49 2217.42 Q1613.49 2213.81 1611.16 2211.7 Q1608.82 2209.6 1604.81 2209.6 Q1602.94 2209.6 1601.06 2210.01 Q1599.21 2210.43 1597.27 2211.31 L1597.27 2193.95 Z" fill="#000000" fill-rule="nonzero" fill-opacity="1" /><path clip-path="url(#clip140)" d="M1637.38 2197.03 Q1633.77 2197.03 1631.94 2200.59 Q1630.14 2204.13 1630.14 2211.26 Q1630.14 2218.37 1631.94 2221.93 Q1633.77 2225.48 1637.38 2225.48 Q1641.02 2225.48 1642.82 2221.93 Q1644.65 2218.37 1644.65 2211.26 Q1644.65 2204.13 1642.82 2200.59 Q1641.02 2197.03 1637.38 2197.03 M1637.38 2193.32 Q1643.19 2193.32 1646.25 2197.93 Q1649.33 2202.51 1649.33 2211.26 Q1649.33 2219.99 1646.25 2224.6 Q1643.19 2229.18 1637.38 2229.18 Q1631.57 2229.18 1628.49 2224.6 Q1625.44 2219.99 1625.44 2211.26 Q1625.44 2202.51 1628.49 2197.93 Q1631.57 2193.32 1637.38 2193.32 Z" fill="#000000" fill-rule="nonzero" fill-opacity="1" /><path clip-path="url(#clip140)" d="M1667.54 2197.03 Q1663.93 2197.03 1662.1 2200.59 Q1660.3 2204.13 1660.3 2211.26 Q1660.3 2218.37 1662.1 2221.93 Q1663.93 2225.48 1667.54 2225.48 Q1671.18 2225.48 1672.98 2221.93 Q1674.81 2218.37 1674.81 2211.26 Q1674.81 2204.13 1672.98 2200.59 Q1671.18 2197.03 1667.54 2197.03 M1667.54 2193.32 Q1673.35 2193.32 1676.41 2197.93 Q1679.49 2202.51 1679.49 2211.26 Q1679.49 2219.99 1676.41 2224.6 Q1673.35 2229.18 1667.54 2229.18 Q1661.73 2229.18 1658.66 2224.6 Q1655.6 2219.99 1655.6 2211.26 Q1655.6 2202.51 1658.66 2197.93 Q1661.73 2193.32 1667.54 2193.32 Z" fill="#000000" fill-rule="nonzero" fill-opacity="1" /><path clip-path="url(#clip140)" d="M2466.3 2224.57 L2473.94 2224.57 L2473.94 2198.21 L2465.63 2199.87 L2465.63 2195.61 L2473.9 2193.95 L2478.57 2193.95 L2478.57 2224.57 L2486.21 2224.57 L2486.21 2228.51 L2466.3 2228.51 L2466.3 2224.57 Z" fill="#000000" fill-rule="nonzero" fill-opacity="1" /><path clip-path="url(#clip140)" d="M2505.65 2197.03 Q2502.04 2197.03 2500.21 2200.59 Q2498.41 2204.13 2498.41 2211.26 Q2498.41 2218.37 2500.21 2221.93 Q2502.04 2225.48 2505.65 2225.48 Q2509.29 2225.48 2511.09 2221.93 Q2512.92 2218.37 2512.92 2211.26 Q2512.92 2204.13 2511.09 2200.59 Q2509.29 2197.03 2505.65 2197.03 M2505.65 2193.32 Q2511.46 2193.32 2514.52 2197.93 Q2517.6 2202.51 2517.6 2211.26 Q2517.6 2219.99 2514.52 2224.6 Q2511.46 2229.18 2505.65 2229.18 Q2499.84 2229.18 2496.77 2224.6 Q2493.71 2219.99 2493.71 2211.26 Q2493.71 2202.51 2496.77 2197.93 Q2499.84 2193.32 2505.65 2193.32 Z" fill="#000000" fill-rule="nonzero" fill-opacity="1" /><path clip-path="url(#clip140)" d="M2535.82 2197.03 Q2532.21 2197.03 2530.38 2200.59 Q2528.57 2204.13 2528.57 2211.26 Q2528.57 2218.37 2530.38 2221.93 Q2532.21 2225.48 2535.82 2225.48 Q2539.45 2225.48 2541.26 2221.93 Q2543.08 2218.37 2543.08 2211.26 Q2543.08 2204.13 2541.26 2200.59 Q2539.45 2197.03 2535.82 2197.03 M2535.82 2193.32 Q2541.63 2193.32 2544.68 2197.93 Q2547.76 2202.51 2547.76 2211.26 Q2547.76 2219.99 2544.68 2224.6 Q2541.63 2229.18 2535.82 2229.18 Q2530.01 2229.18 2526.93 2224.6 Q2523.87 2219.99 2523.87 2211.26 Q2523.87 2202.51 2526.93 2197.93 Q2530.01 2193.32 2535.82 2193.32 Z" fill="#000000" fill-rule="nonzero" fill-opacity="1" /><path clip-path="url(#clip140)" d="M2565.98 2197.03 Q2562.37 2197.03 2560.54 2200.59 Q2558.73 2204.13 2558.73 2211.26 Q2558.73 2218.37 2560.54 2221.93 Q2562.37 2225.48 2565.98 2225.48 Q2569.61 2225.48 2571.42 2221.93 Q2573.25 2218.37 2573.25 2211.26 Q2573.25 2204.13 2571.42 2200.59 Q2569.61 2197.03 2565.98 2197.03 M2565.98 2193.32 Q2571.79 2193.32 2574.84 2197.93 Q2577.92 2202.51 2577.92 2211.26 Q2577.92 2219.99 2574.84 2224.6 Q2571.79 2229.18 2565.98 2229.18 Q2560.17 2229.18 2557.09 2224.6 Q2554.03 2219.99 2554.03 2211.26 Q2554.03 2202.51 2557.09 2197.93 Q2560.17 2193.32 2565.98 2193.32 Z" fill="#000000" fill-rule="nonzero" fill-opacity="1" /><path clip-path="url(#clip140)" d="M3354.52 2224.57 L3370.84 2224.57 L3370.84 2228.51 L3348.89 2228.51 L3348.89 2224.57 Q3351.55 2221.82 3356.14 2217.19 Q3360.74 2212.54 3361.92 2211.19 Q3364.17 2208.67 3365.05 2206.93 Q3365.95 2205.17 3365.95 2203.48 Q3365.95 2200.73 3364.01 2198.99 Q3362.09 2197.26 3358.98 2197.26 Q3356.79 2197.26 3354.33 2198.02 Q3351.9 2198.79 3349.12 2200.34 L3349.12 2195.61 Q3351.95 2194.48 3354.4 2193.9 Q3356.85 2193.32 3358.89 2193.32 Q3364.26 2193.32 3367.46 2196.01 Q3370.65 2198.69 3370.65 2203.18 Q3370.65 2205.31 3369.84 2207.23 Q3369.05 2209.13 3366.95 2211.73 Q3366.37 2212.4 3363.27 2215.61 Q3360.16 2218.81 3354.52 2224.57 Z" fill="#000000" fill-rule="nonzero" fill-opacity="1" /><path clip-path="url(#clip140)" d="M3390.65 2197.03 Q3387.04 2197.03 3385.21 2200.59 Q3383.41 2204.13 3383.41 2211.26 Q3383.41 2218.37 3385.21 2221.93 Q3387.04 2225.48 3390.65 2225.48 Q3394.29 2225.48 3396.09 2221.93 Q3397.92 2218.37 3397.92 2211.26 Q3397.92 2204.13 3396.09 2200.59 Q3394.29 2197.03 3390.65 2197.03 M3390.65 2193.32 Q3396.46 2193.32 3399.52 2197.93 Q3402.6 2202.51 3402.6 2211.26 Q3402.6 2219.99 3399.52 2224.6 Q3396.46 2229.18 3390.65 2229.18 Q3384.84 2229.18 3381.76 2224.6 Q3378.71 2219.99 3378.71 2211.26 Q3378.71 2202.51 3381.76 2197.93 Q3384.84 2193.32 3390.65 2193.32 Z" fill="#000000" fill-rule="nonzero" fill-opacity="1" /><path clip-path="url(#clip140)" d="M3420.81 2197.03 Q3417.2 2197.03 3415.37 2200.59 Q3413.57 2204.13 3413.57 2211.26 Q3413.57 2218.37 3415.37 2221.93 Q3417.2 2225.48 3420.81 2225.48 Q3424.45 2225.48 3426.25 2221.93 Q3428.08 2218.37 3428.08 2211.26 Q3428.08 2204.13 3426.25 2200.59 Q3424.45 2197.03 3420.81 2197.03 M3420.81 2193.32 Q3426.62 2193.32 3429.68 2197.93 Q3432.76 2202.51 3432.76 2211.26 Q3432.76 2219.99 3429.68 2224.6 Q3426.62 2229.18 3420.81 2229.18 Q3415 2229.18 3411.92 2224.6 Q3408.87 2219.99 3408.87 2211.26 Q3408.87 2202.51 3411.92 2197.93 Q3415 2193.32 3420.81 2193.32 Z" fill="#000000" fill-rule="nonzero" fill-opacity="1" /><path clip-path="url(#clip140)" d="M3450.97 2197.03 Q3447.36 2197.03 3445.53 2200.59 Q3443.73 2204.13 3443.73 2211.26 Q3443.73 2218.37 3445.53 2221.93 Q3447.36 2225.48 3450.97 2225.48 Q3454.61 2225.48 3456.41 2221.93 Q3458.24 2218.37 3458.24 2211.26 Q3458.24 2204.13 3456.41 2200.59 Q3454.61 2197.03 3450.97 2197.03 M3450.97 2193.32 Q3456.78 2193.32 3459.84 2197.93 Q3462.92 2202.51 3462.92 2211.26 Q3462.92 2219.99 3459.84 2224.6 Q3456.78 2229.18 3450.97 2229.18 Q3445.16 2229.18 3442.09 2224.6 Q3439.03 2219.99 3439.03 2211.26 Q3439.03 2202.51 3442.09 2197.93 Q3445.16 2193.32 3450.97 2193.32 Z" fill="#000000" fill-rule="nonzero" fill-opacity="1" /><path clip-path="url(#clip140)" d="M1813.28 2308.02 L1813.28 2296.42 L1803.73 2296.42 L1803.73 2291.62 L1819.07 2291.62 L1819.07 2310.17 Q1815.68 2312.57 1811.61 2313.81 Q1807.53 2315.03 1802.9 2315.03 Q1792.77 2315.03 1787.04 2309.12 Q1781.34 2303.19 1781.34 2292.63 Q1781.34 2282.04 1787.04 2276.14 Q1792.77 2270.21 1802.9 2270.21 Q1807.12 2270.21 1810.91 2271.25 Q1814.73 2272.29 1817.94 2274.32 L1817.94 2280.54 Q1814.7 2277.79 1811.06 2276.4 Q1807.41 2275.01 1803.39 2275.01 Q1795.46 2275.01 1791.47 2279.44 Q1787.5 2283.86 1787.5 2292.63 Q1787.5 2301.37 1791.47 2305.8 Q1795.46 2310.22 1803.39 2310.22 Q1806.48 2310.22 1808.91 2309.7 Q1811.34 2309.15 1813.28 2308.02 Z" fill="#000000" fill-rule="nonzero" fill-opacity="1" /><path clip-path="url(#clip140)" d="M1848.29 2286.76 Q1847.4 2286.24 1846.33 2286 Q1845.29 2285.74 1844.01 2285.74 Q1839.5 2285.74 1837.07 2288.7 Q1834.67 2291.62 1834.67 2297.12 L1834.67 2314.19 L1829.31 2314.19 L1829.31 2281.78 L1834.67 2281.78 L1834.67 2286.82 Q1836.34 2283.86 1839.04 2282.45 Q1841.73 2281 1845.57 2281 Q1846.12 2281 1846.79 2281.09 Q1847.46 2281.14 1848.27 2281.29 L1848.29 2286.76 Z" fill="#000000" fill-rule="nonzero" fill-opacity="1" /><path clip-path="url(#clip140)" d="M1853.88 2281.78 L1859.2 2281.78 L1859.2 2314.19 L1853.88 2314.19 L1853.88 2281.78 M1853.88 2269.16 L1859.2 2269.16 L1859.2 2275.91 L1853.88 2275.91 L1853.88 2269.16 Z" fill="#000000" fill-rule="nonzero" fill-opacity="1" /><path clip-path="url(#clip140)" d="M1891.67 2286.7 L1891.67 2269.16 L1896.99 2269.16 L1896.99 2314.19 L1891.67 2314.19 L1891.67 2309.33 Q1889.99 2312.22 1887.41 2313.64 Q1884.87 2315.03 1881.28 2315.03 Q1875.41 2315.03 1871.7 2310.34 Q1868.03 2305.65 1868.03 2298.01 Q1868.03 2290.37 1871.7 2285.69 Q1875.41 2281 1881.28 2281 Q1884.87 2281 1887.41 2282.42 Q1889.99 2283.81 1891.67 2286.7 M1873.53 2298.01 Q1873.53 2303.89 1875.93 2307.24 Q1878.36 2310.57 1882.58 2310.57 Q1886.81 2310.57 1889.24 2307.24 Q1891.67 2303.89 1891.67 2298.01 Q1891.67 2292.14 1889.24 2288.81 Q1886.81 2285.46 1882.58 2285.46 Q1878.36 2285.46 1875.93 2288.81 Q1873.53 2292.14 1873.53 2298.01 Z" fill="#000000" fill-rule="nonzero" fill-opacity="1" /><path clip-path="url(#clip140)" d="M1947.46 2282.74 L1947.46 2287.77 Q1945.2 2286.61 1942.77 2286.03 Q1940.34 2285.46 1937.73 2285.46 Q1933.77 2285.46 1931.77 2286.67 Q1929.8 2287.89 1929.8 2290.32 Q1929.8 2292.17 1931.22 2293.24 Q1932.64 2294.28 1936.92 2295.24 L1938.75 2295.64 Q1944.42 2296.86 1946.79 2299.08 Q1949.19 2301.28 1949.19 2305.25 Q1949.19 2309.76 1945.6 2312.39 Q1942.04 2315.03 1935.79 2315.03 Q1933.19 2315.03 1930.35 2314.51 Q1927.55 2314.01 1924.42 2313 L1924.42 2307.5 Q1927.37 2309.04 1930.24 2309.82 Q1933.1 2310.57 1935.91 2310.57 Q1939.67 2310.57 1941.7 2309.3 Q1943.72 2308 1943.72 2305.65 Q1943.72 2303.48 1942.25 2302.32 Q1940.8 2301.17 1935.85 2300.1 L1934 2299.66 Q1929.05 2298.62 1926.85 2296.48 Q1924.65 2294.31 1924.65 2290.55 Q1924.65 2285.98 1927.89 2283.49 Q1931.14 2281 1937.1 2281 Q1940.05 2281 1942.65 2281.43 Q1945.26 2281.87 1947.46 2282.74 Z" fill="#000000" fill-rule="nonzero" fill-opacity="1" /><path clip-path="url(#clip140)" d="M1957.67 2281.78 L1962.99 2281.78 L1962.99 2314.19 L1957.67 2314.19 L1957.67 2281.78 M1957.67 2269.16 L1962.99 2269.16 L1962.99 2275.91 L1957.67 2275.91 L1957.67 2269.16 Z" fill="#000000" fill-rule="nonzero" fill-opacity="1" /><path clip-path="url(#clip140)" d="M1971.82 2281.78 L1997.11 2281.78 L1997.11 2286.64 L1977.08 2309.93 L1997.11 2309.93 L1997.11 2314.19 L1971.09 2314.19 L1971.09 2309.33 L1991.12 2286.03 L1971.82 2286.03 L1971.82 2281.78 Z" fill="#000000" fill-rule="nonzero" fill-opacity="1" /><path clip-path="url(#clip140)" d="M2032.96 2296.65 L2032.96 2299.26 L2008.48 2299.26 Q2008.83 2304.75 2011.78 2307.65 Q2014.76 2310.51 2020.05 2310.51 Q2023.12 2310.51 2025.98 2309.76 Q2028.88 2309.01 2031.71 2307.5 L2031.71 2312.54 Q2028.85 2313.75 2025.84 2314.39 Q2022.83 2315.03 2019.73 2315.03 Q2011.98 2315.03 2007.44 2310.51 Q2002.92 2306 2002.92 2298.3 Q2002.92 2290.35 2007.21 2285.69 Q2011.52 2281 2018.81 2281 Q2025.35 2281 2029.14 2285.22 Q2032.96 2289.42 2032.96 2296.65 M2027.63 2295.09 Q2027.58 2290.72 2025.17 2288.12 Q2022.8 2285.51 2018.87 2285.51 Q2014.41 2285.51 2011.72 2288.03 Q2009.06 2290.55 2008.65 2295.12 L2027.63 2295.09 Z" fill="#000000" fill-rule="nonzero" fill-opacity="1" /><path clip-path="url(#clip140)" d="M2060.76 2270.99 L2068.63 2270.99 L2087.79 2307.13 L2087.79 2270.99 L2093.46 2270.99 L2093.46 2314.19 L2085.59 2314.19 L2066.44 2278.05 L2066.44 2314.19 L2060.76 2314.19 L2060.76 2270.99 Z" fill="#000000" fill-rule="nonzero" fill-opacity="1" /><polyline clip-path="url(#clip140)" style="stroke:#000000; stroke-linecap:round; stroke-linejoin:round; stroke-width:4; stroke-opacity:1; fill:none" points="322.044,2156.51 322.044,246.944 "/>
<polyline clip-path="url(#clip140)" style="stroke:#000000; stroke-linecap:round; stroke-linejoin:round; stroke-width:4; stroke-opacity:1; fill:none" points="322.044,2002.03 340.942,2002.03 "/>
<polyline clip-path="url(#clip140)" style="stroke:#000000; stroke-linecap:round; stroke-linejoin:round; stroke-width:4; stroke-opacity:1; fill:none" points="322.044,806.47 340.942,806.47 "/>
<path clip-path="url(#clip140)" d="M167.905 2021.82 L175.543 2021.82 L175.543 1995.46 L167.233 1997.12 L167.233 1992.87 L175.497 1991.2 L180.173 1991.2 L180.173 2021.82 L187.812 2021.82 L187.812 2025.76 L167.905 2025.76 L167.905 2021.82 Z" fill="#000000" fill-rule="nonzero" fill-opacity="1" /><path clip-path="url(#clip140)" d="M207.256 1994.28 Q203.645 1994.28 201.816 1997.84 Q200.011 2001.38 200.011 2008.51 Q200.011 2015.62 201.816 2019.18 Q203.645 2022.73 207.256 2022.73 Q210.89 2022.73 212.696 2019.18 Q214.525 2015.62 214.525 2008.51 Q214.525 2001.38 212.696 1997.84 Q210.89 1994.28 207.256 1994.28 M207.256 1990.57 Q213.066 1990.57 216.122 1995.18 Q219.201 1999.76 219.201 2008.51 Q219.201 2017.24 216.122 2021.85 Q213.066 2026.43 207.256 2026.43 Q201.446 2026.43 198.367 2021.85 Q195.312 2017.24 195.312 2008.51 Q195.312 1999.76 198.367 1995.18 Q201.446 1990.57 207.256 1990.57 Z" fill="#000000" fill-rule="nonzero" fill-opacity="1" /><path clip-path="url(#clip140)" d="M219.201 1984.67 L243.312 1984.67 L243.312 1987.87 L219.201 1987.87 L219.201 1984.67 Z" fill="#000000" fill-rule="nonzero" fill-opacity="1" /><path clip-path="url(#clip140)" d="M254.785 1995.15 L268.044 1995.15 L268.044 1998.35 L250.215 1998.35 L250.215 1995.15 Q252.377 1992.91 256.101 1989.15 Q259.844 1985.37 260.803 1984.28 Q262.628 1982.23 263.342 1980.82 Q264.076 1979.39 264.076 1978.02 Q264.076 1975.78 262.496 1974.37 Q260.935 1972.96 258.415 1972.96 Q256.628 1972.96 254.634 1973.58 Q252.66 1974.2 250.403 1975.46 L250.403 1971.62 Q252.697 1970.7 254.691 1970.23 Q256.684 1969.76 258.339 1969.76 Q262.703 1969.76 265.298 1971.94 Q267.894 1974.12 267.894 1977.77 Q267.894 1979.5 267.236 1981.06 Q266.596 1982.61 264.885 1984.71 Q264.414 1985.26 261.894 1987.87 Q259.374 1990.47 254.785 1995.15 Z" fill="#000000" fill-rule="nonzero" fill-opacity="1" /><path clip-path="url(#clip140)" d="M167.604 826.262 L175.242 826.262 L175.242 799.896 L166.932 801.563 L166.932 797.304 L175.196 795.637 L179.872 795.637 L179.872 826.262 L187.511 826.262 L187.511 830.197 L167.604 830.197 L167.604 826.262 Z" fill="#000000" fill-rule="nonzero" fill-opacity="1" /><path clip-path="url(#clip140)" d="M206.955 798.716 Q203.344 798.716 201.515 802.281 Q199.71 805.822 199.71 812.952 Q199.71 820.058 201.515 823.623 Q203.344 827.165 206.955 827.165 Q210.589 827.165 212.395 823.623 Q214.224 820.058 214.224 812.952 Q214.224 805.822 212.395 802.281 Q210.589 798.716 206.955 798.716 M206.955 795.012 Q212.765 795.012 215.821 799.619 Q218.9 804.202 218.9 812.952 Q218.9 821.679 215.821 826.285 Q212.765 830.868 206.955 830.868 Q201.145 830.868 198.066 826.285 Q195.011 821.679 195.011 812.952 Q195.011 804.202 198.066 799.619 Q201.145 795.012 206.955 795.012 Z" fill="#000000" fill-rule="nonzero" fill-opacity="1" /><path clip-path="url(#clip140)" d="M218.9 789.114 L243.011 789.114 L243.011 792.311 L218.9 792.311 L218.9 789.114 Z" fill="#000000" fill-rule="nonzero" fill-opacity="1" /><path clip-path="url(#clip140)" d="M251.87 799.589 L258.076 799.589 L258.076 778.167 L251.324 779.522 L251.324 776.061 L258.039 774.707 L261.838 774.707 L261.838 799.589 L268.044 799.589 L268.044 802.787 L251.87 802.787 L251.87 799.589 Z" fill="#000000" fill-rule="nonzero" fill-opacity="1" /><path clip-path="url(#clip140)" d="M58.1901 1374.69 L63.8903 1374.69 Q62.2989 1378.01 61.5176 1380.96 Q60.7364 1383.92 60.7364 1386.66 Q60.7364 1391.44 62.5882 1394.04 Q64.4401 1396.62 67.8544 1396.62 Q70.719 1396.62 72.1947 1394.91 Q73.6414 1393.17 74.5384 1388.37 L75.2618 1384.84 Q76.506 1378.3 79.6599 1375.21 Q82.7849 1372.08 88.0511 1372.08 Q94.33 1372.08 97.5707 1376.31 Q100.811 1380.5 100.811 1388.63 Q100.811 1391.7 100.117 1395.17 Q99.4225 1398.61 98.0626 1402.32 L92.0441 1402.32 Q94.0406 1398.76 95.0533 1395.34 Q96.0661 1391.93 96.0661 1388.63 Q96.0661 1383.63 94.0985 1380.91 Q92.1309 1378.19 88.4851 1378.19 Q85.3022 1378.19 83.5083 1380.15 Q81.7143 1382.09 80.8173 1386.55 L80.1229 1390.11 Q78.8208 1396.65 76.043 1399.57 Q73.2653 1402.49 68.3174 1402.49 Q62.5882 1402.49 59.2896 1398.47 Q55.991 1394.42 55.991 1387.33 Q55.991 1384.29 56.5408 1381.14 Q57.0906 1377.98 58.1901 1374.69 Z" fill="#000000" fill-rule="nonzero" fill-opacity="1" /><path clip-path="url(#clip140)" d="M71.2977 1350.64 Q71.2977 1354.92 74.6541 1357.41 Q77.9817 1359.9 83.7976 1359.9 Q89.6135 1359.9 92.97 1357.44 Q96.2975 1354.95 96.2975 1350.64 Q96.2975 1346.39 92.9411 1343.9 Q89.5846 1341.41 83.7976 1341.41 Q78.0395 1341.41 74.6831 1343.9 Q71.2977 1346.39 71.2977 1350.64 M66.7838 1350.64 Q66.7838 1343.7 71.2977 1339.73 Q75.8115 1335.77 83.7976 1335.77 Q91.7547 1335.77 96.2975 1339.73 Q100.811 1343.7 100.811 1350.64 Q100.811 1357.61 96.2975 1361.58 Q91.7547 1365.51 83.7976 1365.51 Q75.8115 1365.51 71.2977 1361.58 Q66.7838 1357.61 66.7838 1350.64 Z" fill="#000000" fill-rule="nonzero" fill-opacity="1" /><path clip-path="url(#clip140)" d="M54.9494 1326.94 L54.9494 1321.62 L99.9723 1321.62 L99.9723 1326.94 L54.9494 1326.94 Z" fill="#000000" fill-rule="nonzero" fill-opacity="1" /><path clip-path="url(#clip140)" d="M67.565 1314.3 L67.565 1308.66 L94.764 1298.53 L67.565 1288.4 L67.565 1282.76 L99.9723 1294.91 L99.9723 1302.15 L67.565 1314.3 Z" fill="#000000" fill-rule="nonzero" fill-opacity="1" /><path clip-path="url(#clip140)" d="M82.4377 1247.69 L85.0418 1247.69 L85.0418 1272.17 Q90.5395 1271.82 93.433 1268.87 Q96.2975 1265.89 96.2975 1260.59 Q96.2975 1257.53 95.5452 1254.66 Q94.7929 1251.77 93.2883 1248.93 L98.323 1248.93 Q99.5383 1251.8 100.175 1254.81 Q100.811 1257.82 100.811 1260.91 Q100.811 1268.67 96.2975 1273.21 Q91.7837 1277.72 84.087 1277.72 Q76.1298 1277.72 71.4713 1273.44 Q66.7838 1269.13 66.7838 1261.84 Q66.7838 1255.3 71.0083 1251.51 Q75.2039 1247.69 82.4377 1247.69 M80.8752 1253.01 Q76.506 1253.07 73.9018 1255.47 Q71.2977 1257.85 71.2977 1261.78 Q71.2977 1266.24 73.815 1268.93 Q76.3324 1271.59 80.9041 1271.99 L80.8752 1253.01 Z" fill="#000000" fill-rule="nonzero" fill-opacity="1" /><path clip-path="url(#clip140)" d="M58.3637 1214.85 L67.565 1214.85 L67.565 1203.88 L71.7028 1203.88 L71.7028 1214.85 L89.2953 1214.85 Q93.2594 1214.85 94.3878 1213.78 Q95.5163 1212.68 95.5163 1209.35 L95.5163 1203.88 L99.9723 1203.88 L99.9723 1209.35 Q99.9723 1215.51 97.6864 1217.86 Q95.3716 1220.2 89.2953 1220.2 L71.7028 1220.2 L71.7028 1224.11 L67.565 1224.11 L67.565 1220.2 L58.3637 1220.2 L58.3637 1214.85 Z" fill="#000000" fill-rule="nonzero" fill-opacity="1" /><path clip-path="url(#clip140)" d="M67.565 1196.88 L67.565 1191.56 L99.9723 1191.56 L99.9723 1196.88 L67.565 1196.88 M54.9494 1196.88 L54.9494 1191.56 L61.6912 1191.56 L61.6912 1196.88 L54.9494 1196.88 Z" fill="#000000" fill-rule="nonzero" fill-opacity="1" /><path clip-path="url(#clip140)" d="M73.7861 1155.18 Q70.1981 1153.19 68.491 1150.41 Q66.7838 1147.63 66.7838 1143.87 Q66.7838 1138.81 70.3428 1136.06 Q73.8729 1133.31 80.4122 1133.31 L99.9723 1133.31 L99.9723 1138.66 L80.5858 1138.66 Q75.9273 1138.66 73.6703 1140.31 Q71.4134 1141.96 71.4134 1145.35 Q71.4134 1149.48 74.1622 1151.89 Q76.9111 1154.29 81.6564 1154.29 L99.9723 1154.29 L99.9723 1159.64 L80.5858 1159.64 Q75.8983 1159.64 73.6703 1161.29 Q71.4134 1162.94 71.4134 1166.38 Q71.4134 1170.46 74.1912 1172.86 Q76.94 1175.26 81.6564 1175.26 L99.9723 1175.26 L99.9723 1180.62 L67.565 1180.62 L67.565 1175.26 L72.5997 1175.26 Q69.6194 1173.44 68.2016 1170.9 Q66.7838 1168.35 66.7838 1164.85 Q66.7838 1161.32 68.5778 1158.86 Q70.3717 1156.37 73.7861 1155.18 Z" fill="#000000" fill-rule="nonzero" fill-opacity="1" /><path clip-path="url(#clip140)" d="M82.4377 1094.97 L85.0418 1094.97 L85.0418 1119.45 Q90.5395 1119.1 93.433 1116.15 Q96.2975 1113.17 96.2975 1107.88 Q96.2975 1104.81 95.5452 1101.94 Q94.7929 1099.05 93.2883 1096.21 L98.323 1096.21 Q99.5383 1099.08 100.175 1102.09 Q100.811 1105.1 100.811 1108.19 Q100.811 1115.95 96.2975 1120.49 Q91.7837 1125 84.087 1125 Q76.1298 1125 71.4713 1120.72 Q66.7838 1116.41 66.7838 1109.12 Q66.7838 1102.58 71.0083 1098.79 Q75.2039 1094.97 82.4377 1094.97 M80.8752 1100.29 Q76.506 1100.35 73.9018 1102.75 Q71.2977 1105.13 71.2977 1109.06 Q71.2977 1113.52 73.815 1116.21 Q76.3324 1118.87 80.9041 1119.28 L80.8752 1100.29 Z" fill="#000000" fill-rule="nonzero" fill-opacity="1" /><path clip-path="url(#clip140)" d="M55.0072 1054.61 Q61.6623 1058.48 68.1727 1060.36 Q74.6831 1062.24 81.3671 1062.24 Q88.0511 1062.24 94.6193 1060.36 Q101.159 1058.45 107.785 1054.61 L107.785 1059.24 Q100.985 1063.58 94.4168 1065.75 Q87.8485 1067.89 81.3671 1067.89 Q74.9145 1067.89 68.3752 1065.75 Q61.8359 1063.6 55.0072 1059.24 L55.0072 1054.61 Z" fill="#000000" fill-rule="nonzero" fill-opacity="1" /><path clip-path="url(#clip140)" d="M68.5199 1023.62 L73.5546 1023.62 Q72.3972 1025.87 71.8185 1028.3 Q71.2398 1030.73 71.2398 1033.34 Q71.2398 1037.3 72.4551 1039.3 Q73.6703 1041.27 76.1009 1041.27 Q77.9527 1041.27 79.0233 1039.85 Q80.065 1038.43 81.0198 1034.15 L81.4249 1032.33 Q82.6402 1026.65 84.8682 1024.28 Q87.0673 1021.88 91.0314 1021.88 Q95.5452 1021.88 98.1783 1025.47 Q100.811 1029.03 100.811 1035.28 Q100.811 1037.88 100.291 1040.72 Q99.7987 1043.52 98.7859 1046.65 L93.2883 1046.65 Q94.8218 1043.7 95.6031 1040.83 Q96.3554 1037.97 96.3554 1035.16 Q96.3554 1031.4 95.0823 1029.37 Q93.7802 1027.35 91.4364 1027.35 Q89.2663 1027.35 88.1089 1028.82 Q86.9515 1030.27 85.8809 1035.22 L85.4469 1037.07 Q84.4052 1042.02 82.264 1044.22 Q80.0939 1046.42 76.3324 1046.42 Q71.7606 1046.42 69.2722 1043.18 Q66.7838 1039.94 66.7838 1033.98 Q66.7838 1031.02 67.2178 1028.42 Q67.6519 1025.82 68.5199 1023.62 Z" fill="#000000" fill-rule="nonzero" fill-opacity="1" /><path clip-path="url(#clip140)" d="M55.0072 1014.24 L55.0072 1009.61 Q61.8359 1005.27 68.3752 1003.13 Q74.9145 1000.96 81.3671 1000.96 Q87.8485 1000.96 94.4168 1003.13 Q100.985 1005.27 107.785 1009.61 L107.785 1014.24 Q101.159 1010.39 94.6193 1008.51 Q88.0511 1006.6 81.3671 1006.6 Q74.6831 1006.6 68.1727 1008.51 Q61.6623 1010.39 55.0072 1014.24 Z" fill="#000000" fill-rule="nonzero" fill-opacity="1" /><path clip-path="url(#clip140)" d="M1093.01 125.969 L1093.01 133.949 Q1088.35 131.721 1084.22 130.627 Q1080.09 129.534 1076.24 129.534 Q1069.55 129.534 1065.91 132.126 Q1062.3 134.719 1062.3 139.499 Q1062.3 143.509 1064.69 145.575 Q1067.12 147.601 1073.85 148.857 L1078.79 149.869 Q1087.95 151.611 1092.28 156.027 Q1096.66 160.402 1096.66 167.774 Q1096.66 176.565 1090.74 181.102 Q1084.87 185.639 1073.48 185.639 Q1069.19 185.639 1064.33 184.667 Q1059.51 183.694 1054.32 181.79 L1054.32 173.365 Q1059.31 176.16 1064.09 177.577 Q1068.87 178.995 1073.48 178.995 Q1080.49 178.995 1084.3 176.241 Q1088.11 173.486 1088.11 168.382 Q1088.11 163.926 1085.35 161.414 Q1082.64 158.903 1076.4 157.647 L1071.42 156.675 Q1062.26 154.852 1058.17 150.963 Q1054.08 147.074 1054.08 140.147 Q1054.08 132.126 1059.71 127.508 Q1065.38 122.89 1075.31 122.89 Q1079.56 122.89 1083.98 123.66 Q1088.39 124.43 1093.01 125.969 Z" fill="#000000" fill-rule="nonzero" fill-opacity="1" /><path clip-path="url(#clip140)" d="M1126.67 144.32 Q1120.68 144.32 1117.19 149.019 Q1113.71 153.677 1113.71 161.819 Q1113.71 169.962 1117.15 174.661 Q1120.64 179.319 1126.67 179.319 Q1132.63 179.319 1136.11 174.62 Q1139.59 169.921 1139.59 161.819 Q1139.59 153.758 1136.11 149.059 Q1132.63 144.32 1126.67 144.32 M1126.67 138 Q1136.39 138 1141.94 144.32 Q1147.49 150.639 1147.49 161.819 Q1147.49 172.959 1141.94 179.319 Q1136.39 185.639 1126.67 185.639 Q1116.91 185.639 1111.36 179.319 Q1105.85 172.959 1105.85 161.819 Q1105.85 150.639 1111.36 144.32 Q1116.91 138 1126.67 138 Z" fill="#000000" fill-rule="nonzero" fill-opacity="1" /><path clip-path="url(#clip140)" d="M1159.85 121.432 L1167.3 121.432 L1167.3 184.464 L1159.85 184.464 L1159.85 121.432 Z" fill="#000000" fill-rule="nonzero" fill-opacity="1" /><path clip-path="url(#clip140)" d="M1177.55 139.094 L1185.45 139.094 L1199.63 177.172 L1213.81 139.094 L1221.71 139.094 L1204.69 184.464 L1194.57 184.464 L1177.55 139.094 Z" fill="#000000" fill-rule="nonzero" fill-opacity="1" /><path clip-path="url(#clip140)" d="M1270.8 159.916 L1270.8 163.561 L1236.53 163.561 Q1237.02 171.258 1241.15 175.309 Q1245.32 179.319 1252.74 179.319 Q1257.03 179.319 1261.04 178.266 Q1265.09 177.213 1269.06 175.106 L1269.06 182.155 Q1265.05 183.856 1260.84 184.748 Q1256.63 185.639 1252.29 185.639 Q1241.43 185.639 1235.07 179.319 Q1228.76 173 1228.76 162.225 Q1228.76 151.085 1234.75 144.563 Q1240.79 138 1250.99 138 Q1260.15 138 1265.46 143.914 Q1270.8 149.788 1270.8 159.916 M1263.35 157.728 Q1263.27 151.611 1259.91 147.965 Q1256.58 144.32 1251.08 144.32 Q1244.84 144.32 1241.07 147.844 Q1237.34 151.368 1236.78 157.769 L1263.35 157.728 Z" fill="#000000" fill-rule="nonzero" fill-opacity="1" /><path clip-path="url(#clip140)" d="M1316.78 126.212 L1316.78 139.094 L1332.13 139.094 L1332.13 144.887 L1316.78 144.887 L1316.78 169.516 Q1316.78 175.066 1318.28 176.646 Q1319.82 178.226 1324.48 178.226 L1332.13 178.226 L1332.13 184.464 L1324.48 184.464 Q1315.85 184.464 1312.57 181.264 Q1309.29 178.023 1309.29 169.516 L1309.29 144.887 L1303.82 144.887 L1303.82 139.094 L1309.29 139.094 L1309.29 126.212 L1316.78 126.212 Z" fill="#000000" fill-rule="nonzero" fill-opacity="1" /><path clip-path="url(#clip140)" d="M1341.94 139.094 L1349.39 139.094 L1349.39 184.464 L1341.94 184.464 L1341.94 139.094 M1341.94 121.432 L1349.39 121.432 L1349.39 130.871 L1341.94 130.871 L1341.94 121.432 Z" fill="#000000" fill-rule="nonzero" fill-opacity="1" /><path clip-path="url(#clip140)" d="M1400.31 147.803 Q1403.11 142.78 1406.99 140.39 Q1410.88 138 1416.15 138 Q1423.24 138 1427.09 142.983 Q1430.94 147.925 1430.94 157.08 L1430.94 184.464 L1423.44 184.464 L1423.44 157.323 Q1423.44 150.801 1421.13 147.641 Q1418.82 144.482 1414.08 144.482 Q1408.29 144.482 1404.93 148.33 Q1401.57 152.178 1401.57 158.822 L1401.57 184.464 L1394.07 184.464 L1394.07 157.323 Q1394.07 150.76 1391.76 147.641 Q1389.45 144.482 1384.63 144.482 Q1378.92 144.482 1375.56 148.37 Q1372.2 152.219 1372.2 158.822 L1372.2 184.464 L1364.7 184.464 L1364.7 139.094 L1372.2 139.094 L1372.2 146.142 Q1374.75 141.97 1378.31 139.985 Q1381.88 138 1386.78 138 Q1391.72 138 1395.17 140.512 Q1398.65 143.023 1400.31 147.803 Z" fill="#000000" fill-rule="nonzero" fill-opacity="1" /><path clip-path="url(#clip140)" d="M1484.61 159.916 L1484.61 163.561 L1450.34 163.561 Q1450.83 171.258 1454.96 175.309 Q1459.13 179.319 1466.54 179.319 Q1470.84 179.319 1474.85 178.266 Q1478.9 177.213 1482.87 175.106 L1482.87 182.155 Q1478.86 183.856 1474.65 184.748 Q1470.43 185.639 1466.1 185.639 Q1455.24 185.639 1448.88 179.319 Q1442.56 173 1442.56 162.225 Q1442.56 151.085 1448.56 144.563 Q1454.59 138 1464.8 138 Q1473.96 138 1479.26 143.914 Q1484.61 149.788 1484.61 159.916 M1477.16 157.728 Q1477.08 151.611 1473.71 147.965 Q1470.39 144.32 1464.88 144.32 Q1458.64 144.32 1454.88 147.844 Q1451.15 151.368 1450.58 157.769 L1477.16 157.728 Z" fill="#000000" fill-rule="nonzero" fill-opacity="1" /><path clip-path="url(#clip140)" d="M1517.87 139.094 L1525.77 139.094 L1539.95 177.172 L1554.12 139.094 L1562.02 139.094 L1545.01 184.464 L1534.88 184.464 L1517.87 139.094 Z" fill="#000000" fill-rule="nonzero" fill-opacity="1" /><path clip-path="url(#clip140)" d="M1601.24 140.431 L1601.24 147.479 Q1598.08 145.859 1594.67 145.049 Q1591.27 144.239 1587.62 144.239 Q1582.08 144.239 1579.28 145.94 Q1576.53 147.641 1576.53 151.044 Q1576.53 153.637 1578.51 155.135 Q1580.5 156.594 1586.49 157.931 L1589.04 158.498 Q1596.98 160.199 1600.3 163.318 Q1603.67 166.397 1603.67 171.947 Q1603.67 178.266 1598.64 181.952 Q1593.66 185.639 1584.91 185.639 Q1581.26 185.639 1577.29 184.91 Q1573.37 184.221 1568.99 182.803 L1568.99 175.106 Q1573.12 177.253 1577.13 178.347 Q1581.14 179.4 1585.07 179.4 Q1590.34 179.4 1593.17 177.618 Q1596.01 175.795 1596.01 172.514 Q1596.01 169.476 1593.94 167.855 Q1591.92 166.235 1584.99 164.736 L1582.4 164.128 Q1575.47 162.67 1572.39 159.672 Q1569.31 156.634 1569.31 151.368 Q1569.31 144.968 1573.85 141.484 Q1578.39 138 1586.73 138 Q1590.87 138 1594.51 138.608 Q1598.16 139.215 1601.24 140.431 Z" fill="#000000" fill-rule="nonzero" fill-opacity="1" /><path clip-path="url(#clip140)" d="M1671.76 161.252 Q1671.76 153.151 1668.4 148.695 Q1665.08 144.239 1659.04 144.239 Q1653.05 144.239 1649.68 148.695 Q1646.36 153.151 1646.36 161.252 Q1646.36 169.314 1649.68 173.77 Q1653.05 178.226 1659.04 178.226 Q1665.08 178.226 1668.4 173.77 Q1671.76 169.314 1671.76 161.252 M1679.22 178.833 Q1679.22 190.419 1674.07 196.05 Q1668.93 201.721 1658.31 201.721 Q1654.38 201.721 1650.9 201.113 Q1647.42 200.546 1644.13 199.331 L1644.13 192.08 Q1647.42 193.862 1650.62 194.713 Q1653.82 195.563 1657.14 195.563 Q1664.47 195.563 1668.12 191.715 Q1671.76 187.907 1671.76 180.17 L1671.76 176.484 Q1669.45 180.494 1665.85 182.479 Q1662.24 184.464 1657.22 184.464 Q1648.87 184.464 1643.77 178.104 Q1638.67 171.744 1638.67 161.252 Q1638.67 150.72 1643.77 144.36 Q1648.87 138 1657.22 138 Q1662.24 138 1665.85 139.985 Q1669.45 141.97 1671.76 145.98 L1671.76 139.094 L1679.22 139.094 L1679.22 178.833 Z" fill="#000000" fill-rule="nonzero" fill-opacity="1" /><path clip-path="url(#clip140)" d="M1720.86 146.061 Q1719.6 145.332 1718.1 145.008 Q1716.65 144.644 1714.86 144.644 Q1708.54 144.644 1705.14 148.776 Q1701.78 152.867 1701.78 160.564 L1701.78 184.464 L1694.29 184.464 L1694.29 139.094 L1701.78 139.094 L1701.78 146.142 Q1704.13 142.011 1707.9 140.026 Q1711.66 138 1717.05 138 Q1717.82 138 1718.75 138.122 Q1719.68 138.203 1720.82 138.405 L1720.86 146.061 Z" fill="#000000" fill-rule="nonzero" fill-opacity="1" /><path clip-path="url(#clip140)" d="M1728.68 139.094 L1736.13 139.094 L1736.13 184.464 L1728.68 184.464 L1728.68 139.094 M1728.68 121.432 L1736.13 121.432 L1736.13 130.871 L1728.68 130.871 L1728.68 121.432 Z" fill="#000000" fill-rule="nonzero" fill-opacity="1" /><path clip-path="url(#clip140)" d="M1781.58 145.98 L1781.58 121.432 L1789.04 121.432 L1789.04 184.464 L1781.58 184.464 L1781.58 177.658 Q1779.23 181.709 1775.63 183.694 Q1772.06 185.639 1767.04 185.639 Q1758.82 185.639 1753.63 179.076 Q1748.49 172.514 1748.49 161.819 Q1748.49 151.125 1753.63 144.563 Q1758.82 138 1767.04 138 Q1772.06 138 1775.63 139.985 Q1779.23 141.93 1781.58 145.98 M1756.18 161.819 Q1756.18 170.043 1759.55 174.742 Q1762.95 179.4 1768.86 179.4 Q1774.78 179.4 1778.18 174.742 Q1781.58 170.043 1781.58 161.819 Q1781.58 153.596 1778.18 148.938 Q1774.78 144.239 1768.86 144.239 Q1762.95 144.239 1759.55 148.938 Q1756.18 153.596 1756.18 161.819 Z" fill="#000000" fill-rule="nonzero" fill-opacity="1" /><path clip-path="url(#clip140)" d="M1859.68 140.431 L1859.68 147.479 Q1856.52 145.859 1853.12 145.049 Q1849.72 144.239 1846.07 144.239 Q1840.52 144.239 1837.73 145.94 Q1834.97 147.641 1834.97 151.044 Q1834.97 153.637 1836.96 155.135 Q1838.94 156.594 1844.94 157.931 L1847.49 158.498 Q1855.43 160.199 1858.75 163.318 Q1862.11 166.397 1862.11 171.947 Q1862.11 178.266 1857.09 181.952 Q1852.11 185.639 1843.36 185.639 Q1839.71 185.639 1835.74 184.91 Q1831.81 184.221 1827.44 182.803 L1827.44 175.106 Q1831.57 177.253 1835.58 178.347 Q1839.59 179.4 1843.52 179.4 Q1848.79 179.4 1851.62 177.618 Q1854.46 175.795 1854.46 172.514 Q1854.46 169.476 1852.39 167.855 Q1850.37 166.235 1843.44 164.736 L1840.85 164.128 Q1833.92 162.67 1830.84 159.672 Q1827.76 156.634 1827.76 151.368 Q1827.76 144.968 1832.3 141.484 Q1836.84 138 1845.18 138 Q1849.31 138 1852.96 138.608 Q1856.6 139.215 1859.68 140.431 Z" fill="#000000" fill-rule="nonzero" fill-opacity="1" /><path clip-path="url(#clip140)" d="M1873.98 139.094 L1881.44 139.094 L1881.44 184.464 L1873.98 184.464 L1873.98 139.094 M1873.98 121.432 L1881.44 121.432 L1881.44 130.871 L1873.98 130.871 L1873.98 121.432 Z" fill="#000000" fill-rule="nonzero" fill-opacity="1" /><path clip-path="url(#clip140)" d="M1893.79 139.094 L1929.2 139.094 L1929.2 145.899 L1901.16 178.509 L1929.2 178.509 L1929.2 184.464 L1892.78 184.464 L1892.78 177.658 L1920.81 145.049 L1893.79 145.049 L1893.79 139.094 Z" fill="#000000" fill-rule="nonzero" fill-opacity="1" /><path clip-path="url(#clip140)" d="M1979.39 159.916 L1979.39 163.561 L1945.12 163.561 Q1945.6 171.258 1949.74 175.309 Q1953.91 179.319 1961.32 179.319 Q1965.61 179.319 1969.63 178.266 Q1973.68 177.213 1977.65 175.106 L1977.65 182.155 Q1973.64 183.856 1969.42 184.748 Q1965.21 185.639 1960.88 185.639 Q1950.02 185.639 1943.66 179.319 Q1937.34 173 1937.34 162.225 Q1937.34 151.085 1943.33 144.563 Q1949.37 138 1959.58 138 Q1968.73 138 1974.04 143.914 Q1979.39 149.788 1979.39 159.916 M1971.93 157.728 Q1971.85 151.611 1968.49 147.965 Q1965.17 144.32 1959.66 144.32 Q1953.42 144.32 1949.65 147.844 Q1945.93 151.368 1945.36 157.769 L1971.93 157.728 Z" fill="#000000" fill-rule="nonzero" fill-opacity="1" /><path clip-path="url(#clip140)" d="M2014.23 158.822 L2089.09 158.822 L2089.09 164.655 L2014.23 164.655 L2014.23 158.822 Z" fill="#000000" fill-rule="nonzero" fill-opacity="1" /><path clip-path="url(#clip140)" d="M2157.18 145.98 L2157.18 121.432 L2164.64 121.432 L2164.64 184.464 L2157.18 184.464 L2157.18 177.658 Q2154.83 181.709 2151.23 183.694 Q2147.66 185.639 2142.64 185.639 Q2134.42 185.639 2129.23 179.076 Q2124.09 172.514 2124.09 161.819 Q2124.09 151.125 2129.23 144.563 Q2134.42 138 2142.64 138 Q2147.66 138 2151.23 139.985 Q2154.83 141.93 2157.18 145.98 M2131.78 161.819 Q2131.78 170.043 2135.14 174.742 Q2138.55 179.4 2144.46 179.4 Q2150.38 179.4 2153.78 174.742 Q2157.18 170.043 2157.18 161.819 Q2157.18 153.596 2153.78 148.938 Q2150.38 144.239 2144.46 144.239 Q2138.55 144.239 2135.14 148.938 Q2131.78 153.596 2131.78 161.819 Z" fill="#000000" fill-rule="nonzero" fill-opacity="1" /><path clip-path="url(#clip140)" d="M2197.57 144.32 Q2191.57 144.32 2188.09 149.019 Q2184.61 153.677 2184.61 161.819 Q2184.61 169.962 2188.05 174.661 Q2191.53 179.319 2197.57 179.319 Q2203.52 179.319 2207.01 174.62 Q2210.49 169.921 2210.49 161.819 Q2210.49 153.758 2207.01 149.059 Q2203.52 144.32 2197.57 144.32 M2197.57 138 Q2207.29 138 2212.84 144.32 Q2218.39 150.639 2218.39 161.819 Q2218.39 172.959 2212.84 179.319 Q2207.29 185.639 2197.57 185.639 Q2187.81 185.639 2182.26 179.319 Q2176.75 172.959 2176.75 161.819 Q2176.75 150.639 2182.26 144.32 Q2187.81 138 2197.57 138 Z" fill="#000000" fill-rule="nonzero" fill-opacity="1" /><path clip-path="url(#clip140)" d="M2229.98 166.559 L2229.98 139.094 L2237.43 139.094 L2237.43 166.275 Q2237.43 172.716 2239.94 175.957 Q2242.45 179.157 2247.48 179.157 Q2253.51 179.157 2257 175.309 Q2260.52 171.461 2260.52 164.817 L2260.52 139.094 L2267.97 139.094 L2267.97 184.464 L2260.52 184.464 L2260.52 177.496 Q2257.81 181.628 2254.2 183.654 Q2250.64 185.639 2245.9 185.639 Q2238.08 185.639 2234.03 180.778 Q2229.98 175.917 2229.98 166.559 M2248.73 138 L2248.73 138 Z" fill="#000000" fill-rule="nonzero" fill-opacity="1" /><path clip-path="url(#clip140)" d="M2315.9 161.819 Q2315.9 153.596 2312.49 148.938 Q2309.13 144.239 2303.22 144.239 Q2297.3 144.239 2293.9 148.938 Q2290.54 153.596 2290.54 161.819 Q2290.54 170.043 2293.9 174.742 Q2297.3 179.4 2303.22 179.4 Q2309.13 179.4 2312.49 174.742 Q2315.9 170.043 2315.9 161.819 M2290.54 145.98 Q2292.89 141.93 2296.45 139.985 Q2300.06 138 2305.04 138 Q2313.3 138 2318.45 144.563 Q2323.63 151.125 2323.63 161.819 Q2323.63 172.514 2318.45 179.076 Q2313.3 185.639 2305.04 185.639 Q2300.06 185.639 2296.45 183.694 Q2292.89 181.709 2290.54 177.658 L2290.54 184.464 L2283.04 184.464 L2283.04 121.432 L2290.54 121.432 L2290.54 145.98 Z" fill="#000000" fill-rule="nonzero" fill-opacity="1" /><path clip-path="url(#clip140)" d="M2335.99 121.432 L2343.44 121.432 L2343.44 184.464 L2335.99 184.464 L2335.99 121.432 Z" fill="#000000" fill-rule="nonzero" fill-opacity="1" /><path clip-path="url(#clip140)" d="M2397.85 159.916 L2397.85 163.561 L2363.58 163.561 Q2364.06 171.258 2368.19 175.309 Q2372.37 179.319 2379.78 179.319 Q2384.07 179.319 2388.08 178.266 Q2392.13 177.213 2396.1 175.106 L2396.1 182.155 Q2392.09 183.856 2387.88 184.748 Q2383.67 185.639 2379.33 185.639 Q2368.48 185.639 2362.12 179.319 Q2355.8 173 2355.8 162.225 Q2355.8 151.085 2361.79 144.563 Q2367.83 138 2378.04 138 Q2387.19 138 2392.5 143.914 Q2397.85 149.788 2397.85 159.916 M2390.39 157.728 Q2390.31 151.611 2386.95 147.965 Q2383.63 144.32 2378.12 144.32 Q2371.88 144.32 2368.11 147.844 Q2364.39 151.368 2363.82 157.769 L2390.39 157.728 Z" fill="#000000" fill-rule="nonzero" fill-opacity="1" /><path clip-path="url(#clip140)" d="M2444.55 198.237 L2444.55 204.03 L2401.45 204.03 L2401.45 198.237 L2444.55 198.237 Z" fill="#000000" fill-rule="nonzero" fill-opacity="1" /><path clip-path="url(#clip140)" d="M2469.14 144.32 Q2463.15 144.32 2459.66 149.019 Q2456.18 153.677 2456.18 161.819 Q2456.18 169.962 2459.62 174.661 Q2463.11 179.319 2469.14 179.319 Q2475.1 179.319 2478.58 174.62 Q2482.06 169.921 2482.06 161.819 Q2482.06 153.758 2478.58 149.059 Q2475.1 144.32 2469.14 144.32 M2469.14 138 Q2478.86 138 2484.41 144.32 Q2489.96 150.639 2489.96 161.819 Q2489.96 172.959 2484.41 179.319 Q2478.86 185.639 2469.14 185.639 Q2459.38 185.639 2453.83 179.319 Q2448.32 172.959 2448.32 161.819 Q2448.32 150.639 2453.83 144.32 Q2459.38 138 2469.14 138 Z" fill="#000000" fill-rule="nonzero" fill-opacity="1" /><path clip-path="url(#clip140)" d="M2531.24 140.431 L2531.24 147.479 Q2528.08 145.859 2524.68 145.049 Q2521.28 144.239 2517.63 144.239 Q2512.08 144.239 2509.29 145.94 Q2506.53 147.641 2506.53 151.044 Q2506.53 153.637 2508.52 155.135 Q2510.5 156.594 2516.5 157.931 L2519.05 158.498 Q2526.99 160.199 2530.31 163.318 Q2533.67 166.397 2533.67 171.947 Q2533.67 178.266 2528.65 181.952 Q2523.67 185.639 2514.92 185.639 Q2511.27 185.639 2507.3 184.91 Q2503.37 184.221 2499 182.803 L2499 175.106 Q2503.13 177.253 2507.14 178.347 Q2511.15 179.4 2515.08 179.4 Q2520.35 179.4 2523.18 177.618 Q2526.02 175.795 2526.02 172.514 Q2526.02 169.476 2523.95 167.855 Q2521.93 166.235 2515 164.736 L2512.41 164.128 Q2505.48 162.67 2502.4 159.672 Q2499.32 156.634 2499.32 151.368 Q2499.32 144.968 2503.86 141.484 Q2508.4 138 2516.74 138 Q2520.87 138 2524.52 138.608 Q2528.16 139.215 2531.24 140.431 Z" fill="#000000" fill-rule="nonzero" fill-opacity="1" /><path clip-path="url(#clip140)" d="M2578.19 140.836 L2578.19 147.803 Q2575.03 146.061 2571.83 145.211 Q2568.67 144.32 2565.43 144.32 Q2558.18 144.32 2554.17 148.938 Q2550.16 153.515 2550.16 161.819 Q2550.16 170.124 2554.17 174.742 Q2558.18 179.319 2565.43 179.319 Q2568.67 179.319 2571.83 178.469 Q2575.03 177.577 2578.19 175.836 L2578.19 182.722 Q2575.07 184.18 2571.71 184.91 Q2568.39 185.639 2564.62 185.639 Q2554.37 185.639 2548.34 179.198 Q2542.3 172.757 2542.3 161.819 Q2542.3 150.72 2548.38 144.36 Q2554.49 138 2565.11 138 Q2568.55 138 2571.83 138.729 Q2575.11 139.418 2578.19 140.836 Z" fill="#000000" fill-rule="nonzero" fill-opacity="1" /><path clip-path="url(#clip140)" d="M2591.16 139.094 L2598.61 139.094 L2598.61 184.464 L2591.16 184.464 L2591.16 139.094 M2591.16 121.432 L2598.61 121.432 L2598.61 130.871 L2591.16 130.871 L2591.16 121.432 Z" fill="#000000" fill-rule="nonzero" fill-opacity="1" /><path clip-path="url(#clip140)" d="M2614.2 121.432 L2621.66 121.432 L2621.66 184.464 L2614.2 184.464 L2614.2 121.432 Z" fill="#000000" fill-rule="nonzero" fill-opacity="1" /><path clip-path="url(#clip140)" d="M2637.25 121.432 L2644.71 121.432 L2644.71 184.464 L2637.25 184.464 L2637.25 121.432 Z" fill="#000000" fill-rule="nonzero" fill-opacity="1" /><path clip-path="url(#clip140)" d="M2680.92 161.657 Q2671.89 161.657 2668.41 163.723 Q2664.92 165.789 2664.92 170.772 Q2664.92 174.742 2667.51 177.091 Q2670.15 179.4 2674.64 179.4 Q2680.84 179.4 2684.57 175.025 Q2688.34 170.61 2688.34 163.318 L2688.34 161.657 L2680.92 161.657 M2695.79 158.579 L2695.79 184.464 L2688.34 184.464 L2688.34 177.577 Q2685.78 181.709 2681.98 183.694 Q2678.17 185.639 2672.66 185.639 Q2665.69 185.639 2661.56 181.75 Q2657.47 177.821 2657.47 171.258 Q2657.47 163.602 2662.57 159.713 Q2667.72 155.824 2677.89 155.824 L2688.34 155.824 L2688.34 155.095 Q2688.34 149.95 2684.93 147.155 Q2681.57 144.32 2675.45 144.32 Q2671.57 144.32 2667.88 145.251 Q2664.19 146.183 2660.79 148.046 L2660.79 141.16 Q2664.88 139.58 2668.73 138.81 Q2672.58 138 2676.22 138 Q2686.07 138 2690.93 143.104 Q2695.79 148.208 2695.79 158.579 Z" fill="#000000" fill-rule="nonzero" fill-opacity="1" /><path clip-path="url(#clip140)" d="M2718.52 126.212 L2718.52 139.094 L2733.87 139.094 L2733.87 144.887 L2718.52 144.887 L2718.52 169.516 Q2718.52 175.066 2720.01 176.646 Q2721.55 178.226 2726.21 178.226 L2733.87 178.226 L2733.87 184.464 L2726.21 184.464 Q2717.58 184.464 2714.3 181.264 Q2711.02 178.023 2711.02 169.516 L2711.02 144.887 L2705.55 144.887 L2705.55 139.094 L2711.02 139.094 L2711.02 126.212 L2718.52 126.212 Z" fill="#000000" fill-rule="nonzero" fill-opacity="1" /><path clip-path="url(#clip140)" d="M2761.25 144.32 Q2755.26 144.32 2751.77 149.019 Q2748.29 153.677 2748.29 161.819 Q2748.29 169.962 2751.73 174.661 Q2755.22 179.319 2761.25 179.319 Q2767.21 179.319 2770.69 174.62 Q2774.18 169.921 2774.18 161.819 Q2774.18 153.758 2770.69 149.059 Q2767.21 144.32 2761.25 144.32 M2761.25 138 Q2770.97 138 2776.52 144.32 Q2782.07 150.639 2782.07 161.819 Q2782.07 172.959 2776.52 179.319 Q2770.97 185.639 2761.25 185.639 Q2751.49 185.639 2745.94 179.319 Q2740.43 172.959 2740.43 161.819 Q2740.43 150.639 2745.94 144.32 Q2751.49 138 2761.25 138 Z" fill="#000000" fill-rule="nonzero" fill-opacity="1" /><path clip-path="url(#clip140)" d="M2820.72 146.061 Q2819.46 145.332 2817.97 145.008 Q2816.51 144.644 2814.72 144.644 Q2808.41 144.644 2805 148.776 Q2801.64 152.867 2801.64 160.564 L2801.64 184.464 L2794.15 184.464 L2794.15 139.094 L2801.64 139.094 L2801.64 146.142 Q2803.99 142.011 2807.76 140.026 Q2811.52 138 2816.91 138 Q2817.68 138 2818.61 138.122 Q2819.55 138.203 2820.68 138.405 L2820.72 146.061 Z" fill="#000000" fill-rule="nonzero" fill-opacity="1" /><polyline clip-path="url(#clip141)" style="stroke:#4682b4; stroke-linecap:round; stroke-linejoin:round; stroke-width:6; stroke-opacity:1; fill:none" points="468.895,1726.07 1637.65,1278.18 2521.78,866.811 3405.91,483.34 "/>
<circle clip-path="url(#clip141)" cx="468.895" cy="1726.07" r="14.4" fill="#4682b4" fill-rule="evenodd" fill-opacity="1" stroke="none"/>
<circle clip-path="url(#clip141)" cx="1637.65" cy="1278.18" r="14.4" fill="#4682b4" fill-rule="evenodd" fill-opacity="1" stroke="none"/>
<circle clip-path="url(#clip141)" cx="2521.78" cy="866.811" r="14.4" fill="#4682b4" fill-rule="evenodd" fill-opacity="1" stroke="none"/>
<circle clip-path="url(#clip141)" cx="3405.91" cy="483.34" r="14.4" fill="#4682b4" fill-rule="evenodd" fill-opacity="1" stroke="none"/>
<polyline clip-path="url(#clip141)" style="stroke:#2e8b57; stroke-linecap:round; stroke-linejoin:round; stroke-width:6; stroke-opacity:1; fill:none" points="468.895,1767.87 1637.65,1198.53 2521.78,822.137 3405.91,300.989 "/>
<path clip-path="url(#clip141)" d="M468.895 1751.87 L452.895 1767.87 L468.895 1783.87 L484.895 1767.87 L468.895 1751.87 Z" fill="#2e8b57" fill-rule="evenodd" fill-opacity="1" stroke="none"/>
<path clip-path="url(#clip141)" d="M1637.65 1182.53 L1621.65 1198.53 L1637.65 1214.53 L1653.65 1198.53 L1637.65 1182.53 Z" fill="#2e8b57" fill-rule="evenodd" fill-opacity="1" stroke="none"/>
<path clip-path="url(#clip141)" d="M2521.78 806.137 L2505.78 822.137 L2521.78 838.137 L2537.78 822.137 L2521.78 806.137 Z" fill="#2e8b57" fill-rule="evenodd" fill-opacity="1" stroke="none"/>
<path clip-path="url(#clip141)" d="M3405.91 284.989 L3389.91 300.989 L3405.91 316.989 L3421.91 300.989 L3405.91 284.989 Z" fill="#2e8b57" fill-rule="evenodd" fill-opacity="1" stroke="none"/>
<polyline clip-path="url(#clip141)" style="stroke:#ff6347; stroke-linecap:round; stroke-linejoin:round; stroke-width:6; stroke-opacity:1; fill:none" points="468.895,1947.74 1637.65,1527.75 2521.78,1187.64 3405.91,835.717 "/>
<path clip-path="url(#clip141)" d="M452.895 1931.74 L452.895 1963.74 L484.895 1963.74 L484.895 1931.74 L452.895 1931.74 Z" fill="#ff6347" fill-rule="evenodd" fill-opacity="1" stroke="none"/>
<path clip-path="url(#clip141)" d="M1621.65 1511.75 L1621.65 1543.75 L1653.65 1543.75 L1653.65 1511.75 L1621.65 1511.75 Z" fill="#ff6347" fill-rule="evenodd" fill-opacity="1" stroke="none"/>
<path clip-path="url(#clip141)" d="M2505.78 1171.64 L2505.78 1203.64 L2537.78 1203.64 L2537.78 1171.64 L2505.78 1171.64 Z" fill="#ff6347" fill-rule="evenodd" fill-opacity="1" stroke="none"/>
<path clip-path="url(#clip141)" d="M3389.91 819.717 L3389.91 851.717 L3421.91 851.717 L3421.91 819.717 L3389.91 819.717 Z" fill="#ff6347" fill-rule="evenodd" fill-opacity="1" stroke="none"/>
<polyline clip-path="url(#clip141)" style="stroke:#ff8c00; stroke-linecap:round; stroke-linejoin:round; stroke-width:6; stroke-opacity:1; fill:none" points="468.895,2102.46 1637.65,1599.87 2521.78,1249.97 3405.91,517.539 "/>
<path clip-path="url(#clip141)" d="M468.895 2086.46 L452.895 2118.46 L484.895 2118.46 L468.895 2086.46 Z" fill="#ff8c00" fill-rule="evenodd" fill-opacity="1" stroke="none"/>
<path clip-path="url(#clip141)" d="M1637.65 1583.87 L1621.65 1615.87 L1653.65 1615.87 L1637.65 1583.87 Z" fill="#ff8c00" fill-rule="evenodd" fill-opacity="1" stroke="none"/>
<path clip-path="url(#clip141)" d="M2521.78 1233.97 L2505.78 1265.97 L2537.78 1265.97 L2521.78 1233.97 Z" fill="#ff8c00" fill-rule="evenodd" fill-opacity="1" stroke="none"/>
<path clip-path="url(#clip141)" d="M3405.91 501.539 L3389.91 533.539 L3421.91 533.539 L3405.91 501.539 Z" fill="#ff8c00" fill-rule="evenodd" fill-opacity="1" stroke="none"/>
<polyline clip-path="url(#clip141)" style="stroke:#9370db; stroke-linecap:round; stroke-linejoin:round; stroke-width:6; stroke-opacity:1; fill:none" points="468.895,2035.46 1637.65,1630.39 2521.78,1297.45 3405.91,953.45 "/>
<path clip-path="url(#clip141)" d="M484.895 2019.46 L452.895 2019.46 L468.895 2051.46 L484.895 2019.46 Z" fill="#9370db" fill-rule="evenodd" fill-opacity="1" stroke="none"/>
<path clip-path="url(#clip141)" d="M1653.65 1614.39 L1621.65 1614.39 L1637.65 1646.39 L1653.65 1614.39 Z" fill="#9370db" fill-rule="evenodd" fill-opacity="1" stroke="none"/>
<path clip-path="url(#clip141)" d="M2537.78 1281.45 L2505.78 1281.45 L2521.78 1313.45 L2537.78 1281.45 Z" fill="#9370db" fill-rule="evenodd" fill-opacity="1" stroke="none"/>
<path clip-path="url(#clip141)" d="M3421.91 937.45 L3389.91 937.45 L3405.91 969.45 L3421.91 937.45 Z" fill="#9370db" fill-rule="evenodd" fill-opacity="1" stroke="none"/>
<polyline clip-path="url(#clip141)" style="stroke:#a0522d; stroke-linecap:round; stroke-linejoin:round; stroke-width:6; stroke-opacity:1; fill:none" points="468.895,2091.13 1637.65,1639.51 2521.78,1292.45 3405.91,687.12 "/>
<path clip-path="url(#clip141)" d="M468.895 2075.13 L465.135 2085.95 L453.679 2086.19 L462.815 2093.12 L459.487 2104.08 L468.895 2097.53 L478.303 2104.08 L474.975 2093.12 L484.111 2086.19 L472.655 2085.95 L468.895 2075.13 Z" fill="#a0522d" fill-rule="evenodd" fill-opacity="1" stroke="none"/>
<path clip-path="url(#clip141)" d="M1637.65 1623.51 L1633.89 1634.32 L1622.43 1634.56 L1631.57 1641.49 L1628.24 1652.45 L1637.65 1645.91 L1647.06 1652.45 L1643.73 1641.49 L1652.86 1634.56 L1641.41 1634.32 L1637.65 1623.51 Z" fill="#a0522d" fill-rule="evenodd" fill-opacity="1" stroke="none"/>
<path clip-path="url(#clip141)" d="M2521.78 1276.45 L2518.02 1287.27 L2506.56 1287.51 L2515.7 1294.43 L2512.37 1305.39 L2521.78 1298.85 L2531.19 1305.39 L2527.86 1294.43 L2536.99 1287.51 L2525.54 1287.27 L2521.78 1276.45 Z" fill="#a0522d" fill-rule="evenodd" fill-opacity="1" stroke="none"/>
<path clip-path="url(#clip141)" d="M3405.91 671.12 L3402.15 681.936 L3390.69 682.176 L3399.83 689.104 L3396.5 700.064 L3405.91 693.52 L3415.31 700.064 L3411.99 689.104 L3421.12 682.176 L3409.67 681.936 L3405.91 671.12 Z" fill="#a0522d" fill-rule="evenodd" fill-opacity="1" stroke="none"/>
<path clip-path="url(#clip140)" d="M2751.93 2092.86 L3445.07 2092.86 L3445.07 1729.98 L2751.93 1729.98  Z" fill="#ffffff" fill-rule="evenodd" fill-opacity="1"/>
<polyline clip-path="url(#clip140)" style="stroke:#000000; stroke-linecap:round; stroke-linejoin:round; stroke-width:4; stroke-opacity:1; fill:none" points="2751.93,2092.86 3445.07,2092.86 3445.07,1729.98 2751.93,1729.98 2751.93,2092.86 "/>
<polyline clip-path="url(#clip140)" style="stroke:#4682b4; stroke-linecap:round; stroke-linejoin:round; stroke-width:6; stroke-opacity:1; fill:none" points="2787.82,1781.82 3003.2,1781.82 "/>
<circle clip-path="url(#clip140)" cx="2895.51" cy="1781.82" r="23.04" fill="#4682b4" fill-rule="evenodd" fill-opacity="1" stroke="none"/>
<path clip-path="url(#clip140)" d="M3049.73 1763.12 Q3046.62 1768.45 3045.12 1773.66 Q3043.62 1778.86 3043.62 1784.21 Q3043.62 1789.56 3045.12 1794.81 Q3046.65 1800.04 3049.73 1805.35 L3046.02 1805.35 Q3042.55 1799.91 3040.81 1794.65 Q3039.1 1789.4 3039.1 1784.21 Q3039.1 1779.05 3040.81 1773.82 Q3042.53 1768.59 3046.02 1763.12 L3049.73 1763.12 Z" fill="#000000" fill-rule="nonzero" fill-opacity="1" /><path clip-path="url(#clip140)" d="M3069.77 1786.06 Q3064.61 1786.06 3062.62 1787.24 Q3060.63 1788.42 3060.63 1791.27 Q3060.63 1793.54 3062.11 1794.88 Q3063.62 1796.2 3066.18 1796.2 Q3069.73 1796.2 3071.86 1793.7 Q3074.01 1791.18 3074.01 1787.01 L3074.01 1786.06 L3069.77 1786.06 M3078.27 1784.3 L3078.27 1799.1 L3074.01 1799.1 L3074.01 1795.16 Q3072.55 1797.52 3070.37 1798.66 Q3068.2 1799.77 3065.05 1799.77 Q3061.07 1799.77 3058.71 1797.54 Q3056.37 1795.3 3056.37 1791.55 Q3056.37 1787.17 3059.29 1784.95 Q3062.23 1782.73 3068.04 1782.73 L3074.01 1782.73 L3074.01 1782.31 Q3074.01 1779.37 3072.06 1777.78 Q3070.14 1776.16 3066.65 1776.16 Q3064.43 1776.16 3062.32 1776.69 Q3060.21 1777.22 3058.27 1778.29 L3058.27 1774.35 Q3060.61 1773.45 3062.8 1773.01 Q3065 1772.54 3067.09 1772.54 Q3072.71 1772.54 3075.49 1775.46 Q3078.27 1778.38 3078.27 1784.3 Z" fill="#000000" fill-rule="nonzero" fill-opacity="1" /><path clip-path="url(#clip140)" d="M3104.1 1777.1 L3104.1 1763.08 L3108.36 1763.08 L3108.36 1799.1 L3104.1 1799.1 L3104.1 1795.21 Q3102.76 1797.52 3100.7 1798.66 Q3098.66 1799.77 3095.79 1799.77 Q3091.09 1799.77 3088.13 1796.02 Q3085.19 1792.27 3085.19 1786.16 Q3085.19 1780.04 3088.13 1776.29 Q3091.09 1772.54 3095.79 1772.54 Q3098.66 1772.54 3100.7 1773.68 Q3102.76 1774.79 3104.1 1777.1 M3089.59 1786.16 Q3089.59 1790.85 3091.51 1793.54 Q3093.45 1796.2 3096.83 1796.2 Q3100.21 1796.2 3102.16 1793.54 Q3104.1 1790.85 3104.1 1786.16 Q3104.1 1781.46 3102.16 1778.79 Q3100.21 1776.11 3096.83 1776.11 Q3093.45 1776.11 3091.51 1778.79 Q3089.59 1781.46 3089.59 1786.16 Z" fill="#000000" fill-rule="nonzero" fill-opacity="1" /><path clip-path="url(#clip140)" d="M3138.68 1783.45 L3138.68 1799.1 L3134.42 1799.1 L3134.42 1783.59 Q3134.42 1779.91 3132.99 1778.08 Q3131.55 1776.25 3128.68 1776.25 Q3125.24 1776.25 3123.24 1778.45 Q3121.25 1780.65 3121.25 1784.44 L3121.25 1799.1 L3116.97 1799.1 L3116.97 1773.17 L3121.25 1773.17 L3121.25 1777.2 Q3122.78 1774.86 3124.84 1773.7 Q3126.92 1772.54 3129.63 1772.54 Q3134.1 1772.54 3136.39 1775.32 Q3138.68 1778.08 3138.68 1783.45 Z" fill="#000000" fill-rule="nonzero" fill-opacity="1" /><path clip-path="url(#clip140)" d="M3147.18 1763.08 L3151.44 1763.08 L3151.44 1799.1 L3147.18 1799.1 L3147.18 1763.08 Z" fill="#000000" fill-rule="nonzero" fill-opacity="1" /><path clip-path="url(#clip140)" d="M3164.47 1795.21 L3164.47 1808.96 L3160.19 1808.96 L3160.19 1773.17 L3164.47 1773.17 L3164.47 1777.1 Q3165.81 1774.79 3167.85 1773.68 Q3169.91 1772.54 3172.76 1772.54 Q3177.48 1772.54 3180.42 1776.29 Q3183.38 1780.04 3183.38 1786.16 Q3183.38 1792.27 3180.42 1796.02 Q3177.48 1799.77 3172.76 1799.77 Q3169.91 1799.77 3167.85 1798.66 Q3165.81 1797.52 3164.47 1795.21 M3178.96 1786.16 Q3178.96 1781.46 3177.02 1778.79 Q3175.1 1776.11 3171.72 1776.11 Q3168.34 1776.11 3166.39 1778.79 Q3164.47 1781.46 3164.47 1786.16 Q3164.47 1790.85 3166.39 1793.54 Q3168.34 1796.2 3171.72 1796.2 Q3175.1 1796.2 3177.02 1793.54 Q3178.96 1790.85 3178.96 1786.16 Z" fill="#000000" fill-rule="nonzero" fill-opacity="1" /><path clip-path="url(#clip140)" d="M3191.53 1793.22 L3196.42 1793.22 L3196.42 1797.2 L3192.62 1804.6 L3189.63 1804.6 L3191.53 1797.2 L3191.53 1793.22 Z" fill="#000000" fill-rule="nonzero" fill-opacity="1" /><path clip-path="url(#clip140)" d="M3220.58 1773.17 L3224.84 1773.17 L3224.84 1799.1 L3220.58 1799.1 L3220.58 1773.17 M3220.58 1763.08 L3224.84 1763.08 L3224.84 1768.47 L3220.58 1768.47 L3220.58 1763.08 Z" fill="#000000" fill-rule="nonzero" fill-opacity="1" /><path clip-path="url(#clip140)" d="M3237.87 1795.21 L3237.87 1808.96 L3233.59 1808.96 L3233.59 1773.17 L3237.87 1773.17 L3237.87 1777.1 Q3239.22 1774.79 3241.25 1773.68 Q3243.31 1772.54 3246.16 1772.54 Q3250.88 1772.54 3253.82 1776.29 Q3256.79 1780.04 3256.79 1786.16 Q3256.79 1792.27 3253.82 1796.02 Q3250.88 1799.77 3246.16 1799.77 Q3243.31 1799.77 3241.25 1798.66 Q3239.22 1797.52 3237.87 1795.21 M3252.36 1786.16 Q3252.36 1781.46 3250.42 1778.79 Q3248.5 1776.11 3245.12 1776.11 Q3241.74 1776.11 3239.79 1778.79 Q3237.87 1781.46 3237.87 1786.16 Q3237.87 1790.85 3239.79 1793.54 Q3241.74 1796.2 3245.12 1796.2 Q3248.5 1796.2 3250.42 1793.54 Q3252.36 1790.85 3252.36 1786.16 Z" fill="#000000" fill-rule="nonzero" fill-opacity="1" /><path clip-path="url(#clip140)" d="M3273.89 1776.16 Q3270.47 1776.16 3268.48 1778.84 Q3266.48 1781.5 3266.48 1786.16 Q3266.48 1790.81 3268.45 1793.49 Q3270.44 1796.16 3273.89 1796.16 Q3277.29 1796.16 3279.29 1793.47 Q3281.28 1790.79 3281.28 1786.16 Q3281.28 1781.55 3279.29 1778.86 Q3277.29 1776.16 3273.89 1776.16 M3273.89 1772.54 Q3279.45 1772.54 3282.62 1776.16 Q3285.79 1779.77 3285.79 1786.16 Q3285.79 1792.52 3282.62 1796.16 Q3279.45 1799.77 3273.89 1799.77 Q3268.31 1799.77 3265.14 1796.16 Q3261.99 1792.52 3261.99 1786.16 Q3261.99 1779.77 3265.14 1776.16 Q3268.31 1772.54 3273.89 1772.54 Z" fill="#000000" fill-rule="nonzero" fill-opacity="1" /><path clip-path="url(#clip140)" d="M3296.97 1795.21 L3296.97 1808.96 L3292.69 1808.96 L3292.69 1773.17 L3296.97 1773.17 L3296.97 1777.1 Q3298.31 1774.79 3300.35 1773.68 Q3302.41 1772.54 3305.26 1772.54 Q3309.98 1772.54 3312.92 1776.29 Q3315.88 1780.04 3315.88 1786.16 Q3315.88 1792.27 3312.92 1796.02 Q3309.98 1799.77 3305.26 1799.77 Q3302.41 1799.77 3300.35 1798.66 Q3298.31 1797.52 3296.97 1795.21 M3311.46 1786.16 Q3311.46 1781.46 3309.52 1778.79 Q3307.6 1776.11 3304.22 1776.11 Q3300.84 1776.11 3298.89 1778.79 Q3296.97 1781.46 3296.97 1786.16 Q3296.97 1790.85 3298.89 1793.54 Q3300.84 1796.2 3304.22 1796.2 Q3307.6 1796.2 3309.52 1793.54 Q3311.46 1790.85 3311.46 1786.16 Z" fill="#000000" fill-rule="nonzero" fill-opacity="1" /><path clip-path="url(#clip140)" d="M3327.16 1765.81 L3327.16 1773.17 L3335.93 1773.17 L3335.93 1776.48 L3327.16 1776.48 L3327.16 1790.55 Q3327.16 1793.73 3328.01 1794.63 Q3328.89 1795.53 3331.55 1795.53 L3335.93 1795.53 L3335.93 1799.1 L3331.55 1799.1 Q3326.62 1799.1 3324.75 1797.27 Q3322.87 1795.42 3322.87 1790.55 L3322.87 1776.48 L3319.75 1776.48 L3319.75 1773.17 L3322.87 1773.17 L3322.87 1765.81 L3327.16 1765.81 Z" fill="#000000" fill-rule="nonzero" fill-opacity="1" /><path clip-path="url(#clip140)" d="M3340.86 1763.12 L3344.56 1763.12 Q3348.03 1768.59 3349.75 1773.82 Q3351.48 1779.05 3351.48 1784.21 Q3351.48 1789.4 3349.75 1794.65 Q3348.03 1799.91 3344.56 1805.35 L3340.86 1805.35 Q3343.94 1800.04 3345.44 1794.81 Q3346.97 1789.56 3346.97 1784.21 Q3346.97 1778.86 3345.44 1773.66 Q3343.94 1768.45 3340.86 1763.12 Z" fill="#000000" fill-rule="nonzero" fill-opacity="1" /><polyline clip-path="url(#clip140)" style="stroke:#2e8b57; stroke-linecap:round; stroke-linejoin:round; stroke-width:6; stroke-opacity:1; fill:none" points="2787.82,1833.66 3003.2,1833.66 "/>
<path clip-path="url(#clip140)" d="M2895.51 1808.06 L2869.91 1833.66 L2895.51 1859.26 L2921.11 1833.66 L2895.51 1808.06 Z" fill="#2e8b57" fill-rule="evenodd" fill-opacity="1" stroke="none"/>
<path clip-path="url(#clip140)" d="M3049.73 1814.96 Q3046.62 1820.29 3045.12 1825.5 Q3043.62 1830.7 3043.62 1836.05 Q3043.62 1841.4 3045.12 1846.65 Q3046.65 1851.88 3049.73 1857.19 L3046.02 1857.19 Q3042.55 1851.75 3040.81 1846.49 Q3039.1 1841.24 3039.1 1836.05 Q3039.1 1830.89 3040.81 1825.66 Q3042.53 1820.43 3046.02 1814.96 L3049.73 1814.96 Z" fill="#000000" fill-rule="nonzero" fill-opacity="1" /><path clip-path="url(#clip140)" d="M3069.77 1837.9 Q3064.61 1837.9 3062.62 1839.08 Q3060.63 1840.26 3060.63 1843.11 Q3060.63 1845.38 3062.11 1846.72 Q3063.62 1848.04 3066.18 1848.04 Q3069.73 1848.04 3071.86 1845.54 Q3074.01 1843.02 3074.01 1838.85 L3074.01 1837.9 L3069.77 1837.9 M3078.27 1836.14 L3078.27 1850.94 L3074.01 1850.94 L3074.01 1847 Q3072.55 1849.36 3070.37 1850.5 Q3068.2 1851.61 3065.05 1851.61 Q3061.07 1851.61 3058.71 1849.38 Q3056.37 1847.14 3056.37 1843.39 Q3056.37 1839.01 3059.29 1836.79 Q3062.23 1834.57 3068.04 1834.57 L3074.01 1834.57 L3074.01 1834.15 Q3074.01 1831.21 3072.06 1829.62 Q3070.14 1828 3066.65 1828 Q3064.43 1828 3062.32 1828.53 Q3060.21 1829.06 3058.27 1830.13 L3058.27 1826.19 Q3060.61 1825.29 3062.8 1824.85 Q3065 1824.38 3067.09 1824.38 Q3072.71 1824.38 3075.49 1827.3 Q3078.27 1830.22 3078.27 1836.14 Z" fill="#000000" fill-rule="nonzero" fill-opacity="1" /><path clip-path="url(#clip140)" d="M3104.1 1828.94 L3104.1 1814.92 L3108.36 1814.92 L3108.36 1850.94 L3104.1 1850.94 L3104.1 1847.05 Q3102.76 1849.36 3100.7 1850.5 Q3098.66 1851.61 3095.79 1851.61 Q3091.09 1851.61 3088.13 1847.86 Q3085.19 1844.11 3085.19 1838 Q3085.19 1831.88 3088.13 1828.13 Q3091.09 1824.38 3095.79 1824.38 Q3098.66 1824.38 3100.7 1825.52 Q3102.76 1826.63 3104.1 1828.94 M3089.59 1838 Q3089.59 1842.69 3091.51 1845.38 Q3093.45 1848.04 3096.83 1848.04 Q3100.21 1848.04 3102.16 1845.38 Q3104.1 1842.69 3104.1 1838 Q3104.1 1833.3 3102.16 1830.63 Q3100.21 1827.95 3096.83 1827.95 Q3093.45 1827.95 3091.51 1830.63 Q3089.59 1833.3 3089.59 1838 Z" fill="#000000" fill-rule="nonzero" fill-opacity="1" /><path clip-path="url(#clip140)" d="M3138.68 1835.29 L3138.68 1850.94 L3134.42 1850.94 L3134.42 1835.43 Q3134.42 1831.75 3132.99 1829.92 Q3131.55 1828.09 3128.68 1828.09 Q3125.24 1828.09 3123.24 1830.29 Q3121.25 1832.49 3121.25 1836.28 L3121.25 1850.94 L3116.97 1850.94 L3116.97 1825.01 L3121.25 1825.01 L3121.25 1829.04 Q3122.78 1826.7 3124.84 1825.54 Q3126.92 1824.38 3129.63 1824.38 Q3134.1 1824.38 3136.39 1827.16 Q3138.68 1829.92 3138.68 1835.29 Z" fill="#000000" fill-rule="nonzero" fill-opacity="1" /><path clip-path="url(#clip140)" d="M3147.18 1814.92 L3151.44 1814.92 L3151.44 1850.94 L3147.18 1850.94 L3147.18 1814.92 Z" fill="#000000" fill-rule="nonzero" fill-opacity="1" /><path clip-path="url(#clip140)" d="M3164.47 1847.05 L3164.47 1860.8 L3160.19 1860.8 L3160.19 1825.01 L3164.47 1825.01 L3164.47 1828.94 Q3165.81 1826.63 3167.85 1825.52 Q3169.91 1824.38 3172.76 1824.38 Q3177.48 1824.38 3180.42 1828.13 Q3183.38 1831.88 3183.38 1838 Q3183.38 1844.11 3180.42 1847.86 Q3177.48 1851.61 3172.76 1851.61 Q3169.91 1851.61 3167.85 1850.5 Q3165.81 1849.36 3164.47 1847.05 M3178.96 1838 Q3178.96 1833.3 3177.02 1830.63 Q3175.1 1827.95 3171.72 1827.95 Q3168.34 1827.95 3166.39 1830.63 Q3164.47 1833.3 3164.47 1838 Q3164.47 1842.69 3166.39 1845.38 Q3168.34 1848.04 3171.72 1848.04 Q3175.1 1848.04 3177.02 1845.38 Q3178.96 1842.69 3178.96 1838 Z" fill="#000000" fill-rule="nonzero" fill-opacity="1" /><path clip-path="url(#clip140)" d="M3191.53 1845.06 L3196.42 1845.06 L3196.42 1849.04 L3192.62 1856.44 L3189.63 1856.44 L3191.53 1849.04 L3191.53 1845.06 Z" fill="#000000" fill-rule="nonzero" fill-opacity="1" /><path clip-path="url(#clip140)" d="M3240.77 1829.99 Q3242.36 1827.12 3244.59 1825.75 Q3246.81 1824.38 3249.82 1824.38 Q3253.87 1824.38 3256.07 1827.23 Q3258.27 1830.06 3258.27 1835.29 L3258.27 1850.94 L3253.98 1850.94 L3253.98 1835.43 Q3253.98 1831.7 3252.66 1829.89 Q3251.35 1828.09 3248.64 1828.09 Q3245.33 1828.09 3243.41 1830.29 Q3241.48 1832.49 3241.48 1836.28 L3241.48 1850.94 L3237.2 1850.94 L3237.2 1835.43 Q3237.2 1831.68 3235.88 1829.89 Q3234.56 1828.09 3231.81 1828.09 Q3228.54 1828.09 3226.62 1830.31 Q3224.7 1832.51 3224.7 1836.28 L3224.7 1850.94 L3220.42 1850.94 L3220.42 1825.01 L3224.7 1825.01 L3224.7 1829.04 Q3226.16 1826.65 3228.2 1825.52 Q3230.23 1824.38 3233.04 1824.38 Q3235.86 1824.38 3237.83 1825.82 Q3239.82 1827.26 3240.77 1829.99 Z" fill="#000000" fill-rule="nonzero" fill-opacity="1" /><path clip-path="url(#clip140)" d="M3278.54 1837.9 Q3273.38 1837.9 3271.39 1839.08 Q3269.4 1840.26 3269.4 1843.11 Q3269.4 1845.38 3270.88 1846.72 Q3272.39 1848.04 3274.96 1848.04 Q3278.5 1848.04 3280.63 1845.54 Q3282.78 1843.02 3282.78 1838.85 L3282.78 1837.9 L3278.54 1837.9 M3287.04 1836.14 L3287.04 1850.94 L3282.78 1850.94 L3282.78 1847 Q3281.32 1849.36 3279.15 1850.5 Q3276.97 1851.61 3273.82 1851.61 Q3269.84 1851.61 3267.48 1849.38 Q3265.14 1847.14 3265.14 1843.39 Q3265.14 1839.01 3268.06 1836.79 Q3271 1834.57 3276.81 1834.57 L3282.78 1834.57 L3282.78 1834.15 Q3282.78 1831.21 3280.84 1829.62 Q3278.91 1828 3275.42 1828 Q3273.2 1828 3271.09 1828.53 Q3268.98 1829.06 3267.04 1830.13 L3267.04 1826.19 Q3269.38 1825.29 3271.58 1824.85 Q3273.78 1824.38 3275.86 1824.38 Q3281.48 1824.38 3284.26 1827.3 Q3287.04 1830.22 3287.04 1836.14 Z" fill="#000000" fill-rule="nonzero" fill-opacity="1" /><path clip-path="url(#clip140)" d="M3312.87 1828.94 L3312.87 1814.92 L3317.13 1814.92 L3317.13 1850.94 L3312.87 1850.94 L3312.87 1847.05 Q3311.53 1849.36 3309.47 1850.5 Q3307.43 1851.61 3304.56 1851.61 Q3299.86 1851.61 3296.9 1847.86 Q3293.96 1844.11 3293.96 1838 Q3293.96 1831.88 3296.9 1828.13 Q3299.86 1824.38 3304.56 1824.38 Q3307.43 1824.38 3309.47 1825.52 Q3311.53 1826.63 3312.87 1828.94 M3298.36 1838 Q3298.36 1842.69 3300.28 1845.38 Q3302.22 1848.04 3305.6 1848.04 Q3308.98 1848.04 3310.93 1845.38 Q3312.87 1842.69 3312.87 1838 Q3312.87 1833.3 3310.93 1830.63 Q3308.98 1827.95 3305.6 1827.95 Q3302.22 1827.95 3300.28 1830.63 Q3298.36 1833.3 3298.36 1838 Z" fill="#000000" fill-rule="nonzero" fill-opacity="1" /><path clip-path="url(#clip140)" d="M3347.46 1835.29 L3347.46 1850.94 L3343.2 1850.94 L3343.2 1835.43 Q3343.2 1831.75 3341.76 1829.92 Q3340.33 1828.09 3337.46 1828.09 Q3334.01 1828.09 3332.02 1830.29 Q3330.03 1832.49 3330.03 1836.28 L3330.03 1850.94 L3325.74 1850.94 L3325.74 1825.01 L3330.03 1825.01 L3330.03 1829.04 Q3331.55 1826.7 3333.61 1825.54 Q3335.7 1824.38 3338.41 1824.38 Q3342.87 1824.38 3345.16 1827.16 Q3347.46 1829.92 3347.46 1835.29 Z" fill="#000000" fill-rule="nonzero" fill-opacity="1" /><path clip-path="url(#clip140)" d="M3355.95 1814.92 L3360.21 1814.92 L3360.21 1850.94 L3355.95 1850.94 L3355.95 1814.92 Z" fill="#000000" fill-rule="nonzero" fill-opacity="1" /><path clip-path="url(#clip140)" d="M3373.24 1847.05 L3373.24 1860.8 L3368.96 1860.8 L3368.96 1825.01 L3373.24 1825.01 L3373.24 1828.94 Q3374.59 1826.63 3376.62 1825.52 Q3378.68 1824.38 3381.53 1824.38 Q3386.25 1824.38 3389.19 1828.13 Q3392.15 1831.88 3392.15 1838 Q3392.15 1844.11 3389.19 1847.86 Q3386.25 1851.61 3381.53 1851.61 Q3378.68 1851.61 3376.62 1850.5 Q3374.59 1849.36 3373.24 1847.05 M3387.73 1838 Q3387.73 1833.3 3385.79 1830.63 Q3383.87 1827.95 3380.49 1827.95 Q3377.11 1827.95 3375.16 1830.63 Q3373.24 1833.3 3373.24 1838 Q3373.24 1842.69 3375.16 1845.38 Q3377.11 1848.04 3380.49 1848.04 Q3383.87 1848.04 3385.79 1845.38 Q3387.73 1842.69 3387.73 1838 Z" fill="#000000" fill-rule="nonzero" fill-opacity="1" /><path clip-path="url(#clip140)" d="M3398.54 1814.96 L3402.25 1814.96 Q3405.72 1820.43 3407.43 1825.66 Q3409.17 1830.89 3409.17 1836.05 Q3409.17 1841.24 3407.43 1846.49 Q3405.72 1851.75 3402.25 1857.19 L3398.54 1857.19 Q3401.62 1851.88 3403.13 1846.65 Q3404.65 1841.4 3404.65 1836.05 Q3404.65 1830.7 3403.13 1825.5 Q3401.62 1820.29 3398.54 1814.96 Z" fill="#000000" fill-rule="nonzero" fill-opacity="1" /><polyline clip-path="url(#clip140)" style="stroke:#ff6347; stroke-linecap:round; stroke-linejoin:round; stroke-width:6; stroke-opacity:1; fill:none" points="2787.82,1885.5 3003.2,1885.5 "/>
<path clip-path="url(#clip140)" d="M2869.91 1859.9 L2869.91 1911.1 L2921.11 1911.1 L2921.11 1859.9 L2869.91 1859.9 Z" fill="#ff6347" fill-rule="evenodd" fill-opacity="1" stroke="none"/>
<path clip-path="url(#clip140)" d="M3049.73 1866.8 Q3046.62 1872.13 3045.12 1877.34 Q3043.62 1882.54 3043.62 1887.89 Q3043.62 1893.24 3045.12 1898.49 Q3046.65 1903.72 3049.73 1909.03 L3046.02 1909.03 Q3042.55 1903.59 3040.81 1898.33 Q3039.1 1893.08 3039.1 1887.89 Q3039.1 1882.73 3040.81 1877.5 Q3042.53 1872.27 3046.02 1866.8 L3049.73 1866.8 Z" fill="#000000" fill-rule="nonzero" fill-opacity="1" /><path clip-path="url(#clip140)" d="M3080.17 1888.75 L3080.17 1890.83 L3060.58 1890.83 Q3060.86 1895.23 3063.22 1897.54 Q3065.61 1899.84 3069.84 1899.84 Q3072.3 1899.84 3074.59 1899.23 Q3076.9 1898.63 3079.17 1897.43 L3079.17 1901.46 Q3076.88 1902.43 3074.47 1902.94 Q3072.06 1903.45 3069.59 1903.45 Q3063.38 1903.45 3059.75 1899.84 Q3056.14 1896.22 3056.14 1890.07 Q3056.14 1883.7 3059.56 1879.97 Q3063.01 1876.22 3068.85 1876.22 Q3074.08 1876.22 3077.11 1879.6 Q3080.17 1882.96 3080.17 1888.75 M3075.91 1887.5 Q3075.86 1884 3073.94 1881.92 Q3072.04 1879.84 3068.89 1879.84 Q3065.33 1879.84 3063.18 1881.85 Q3061.05 1883.86 3060.72 1887.52 L3075.91 1887.5 Z" fill="#000000" fill-rule="nonzero" fill-opacity="1" /><path clip-path="url(#clip140)" d="M3107.87 1876.85 L3098.5 1889.47 L3108.36 1902.78 L3103.34 1902.78 L3095.79 1892.59 L3088.24 1902.78 L3083.22 1902.78 L3093.29 1889.21 L3084.08 1876.85 L3089.1 1876.85 L3095.98 1886.09 L3102.85 1876.85 L3107.87 1876.85 Z" fill="#000000" fill-rule="nonzero" fill-opacity="1" /><path clip-path="url(#clip140)" d="M3126.16 1889.74 Q3121 1889.74 3119.01 1890.92 Q3117.02 1892.1 3117.02 1894.95 Q3117.02 1897.22 3118.5 1898.56 Q3120 1899.88 3122.57 1899.88 Q3126.11 1899.88 3128.24 1897.38 Q3130.4 1894.86 3130.4 1890.69 L3130.4 1889.74 L3126.16 1889.74 M3134.66 1887.98 L3134.66 1902.78 L3130.4 1902.78 L3130.4 1898.84 Q3128.94 1901.2 3126.76 1902.34 Q3124.59 1903.45 3121.44 1903.45 Q3117.46 1903.45 3115.1 1901.22 Q3112.76 1898.98 3112.76 1895.23 Q3112.76 1890.85 3115.67 1888.63 Q3118.61 1886.41 3124.42 1886.41 L3130.4 1886.41 L3130.4 1885.99 Q3130.4 1883.05 3128.45 1881.46 Q3126.53 1879.84 3123.04 1879.84 Q3120.81 1879.84 3118.71 1880.37 Q3116.6 1880.9 3114.66 1881.97 L3114.66 1878.03 Q3116.99 1877.13 3119.19 1876.69 Q3121.39 1876.22 3123.48 1876.22 Q3129.1 1876.22 3131.88 1879.14 Q3134.66 1882.06 3134.66 1887.98 Z" fill="#000000" fill-rule="nonzero" fill-opacity="1" /><path clip-path="url(#clip140)" d="M3144.52 1896.9 L3149.4 1896.9 L3149.4 1900.88 L3145.61 1908.28 L3142.62 1908.28 L3144.52 1900.88 L3144.52 1896.9 Z" fill="#000000" fill-rule="nonzero" fill-opacity="1" /><path clip-path="url(#clip140)" d="M3173.57 1876.85 L3177.83 1876.85 L3177.83 1902.78 L3173.57 1902.78 L3173.57 1876.85 M3173.57 1866.76 L3177.83 1866.76 L3177.83 1872.15 L3173.57 1872.15 L3173.57 1866.76 Z" fill="#000000" fill-rule="nonzero" fill-opacity="1" /><path clip-path="url(#clip140)" d="M3190.86 1898.89 L3190.86 1912.64 L3186.58 1912.64 L3186.58 1876.85 L3190.86 1876.85 L3190.86 1880.78 Q3192.2 1878.47 3194.24 1877.36 Q3196.3 1876.22 3199.15 1876.22 Q3203.87 1876.22 3206.81 1879.97 Q3209.77 1883.72 3209.77 1889.84 Q3209.77 1895.95 3206.81 1899.7 Q3203.87 1903.45 3199.15 1903.45 Q3196.3 1903.45 3194.24 1902.34 Q3192.2 1901.2 3190.86 1898.89 M3205.35 1889.84 Q3205.35 1885.14 3203.41 1882.47 Q3201.48 1879.79 3198.11 1879.79 Q3194.73 1879.79 3192.78 1882.47 Q3190.86 1885.14 3190.86 1889.84 Q3190.86 1894.53 3192.78 1897.22 Q3194.73 1899.88 3198.11 1899.88 Q3201.48 1899.88 3203.41 1897.22 Q3205.35 1894.53 3205.35 1889.84 Z" fill="#000000" fill-rule="nonzero" fill-opacity="1" /><path clip-path="url(#clip140)" d="M3226.88 1879.84 Q3223.45 1879.84 3221.46 1882.52 Q3219.47 1885.18 3219.47 1889.84 Q3219.47 1894.49 3221.44 1897.17 Q3223.43 1899.84 3226.88 1899.84 Q3230.28 1899.84 3232.27 1897.15 Q3234.26 1894.47 3234.26 1889.84 Q3234.26 1885.23 3232.27 1882.54 Q3230.28 1879.84 3226.88 1879.84 M3226.88 1876.22 Q3232.43 1876.22 3235.6 1879.84 Q3238.78 1883.45 3238.78 1889.84 Q3238.78 1896.2 3235.6 1899.84 Q3232.43 1903.45 3226.88 1903.45 Q3221.3 1903.45 3218.13 1899.84 Q3214.98 1896.2 3214.98 1889.84 Q3214.98 1883.45 3218.13 1879.84 Q3221.3 1876.22 3226.88 1876.22 Z" fill="#000000" fill-rule="nonzero" fill-opacity="1" /><path clip-path="url(#clip140)" d="M3249.96 1898.89 L3249.96 1912.64 L3245.67 1912.64 L3245.67 1876.85 L3249.96 1876.85 L3249.96 1880.78 Q3251.3 1878.47 3253.34 1877.36 Q3255.4 1876.22 3258.24 1876.22 Q3262.97 1876.22 3265.91 1879.97 Q3268.87 1883.72 3268.87 1889.84 Q3268.87 1895.95 3265.91 1899.7 Q3262.97 1903.45 3258.24 1903.45 Q3255.4 1903.45 3253.34 1902.34 Q3251.3 1901.2 3249.96 1898.89 M3264.45 1889.84 Q3264.45 1885.14 3262.5 1882.47 Q3260.58 1879.79 3257.2 1879.79 Q3253.82 1879.79 3251.88 1882.47 Q3249.96 1885.14 3249.96 1889.84 Q3249.96 1894.53 3251.88 1897.22 Q3253.82 1899.88 3257.2 1899.88 Q3260.58 1899.88 3262.5 1897.22 Q3264.45 1894.53 3264.45 1889.84 Z" fill="#000000" fill-rule="nonzero" fill-opacity="1" /><path clip-path="url(#clip140)" d="M3280.14 1869.49 L3280.14 1876.85 L3288.91 1876.85 L3288.91 1880.16 L3280.14 1880.16 L3280.14 1894.23 Q3280.14 1897.41 3281 1898.31 Q3281.88 1899.21 3284.54 1899.21 L3288.91 1899.21 L3288.91 1902.78 L3284.54 1902.78 Q3279.61 1902.78 3277.73 1900.95 Q3275.86 1899.1 3275.86 1894.23 L3275.86 1880.16 L3272.73 1880.16 L3272.73 1876.85 L3275.86 1876.85 L3275.86 1869.49 L3280.14 1869.49 Z" fill="#000000" fill-rule="nonzero" fill-opacity="1" /><path clip-path="url(#clip140)" d="M3293.85 1866.8 L3297.55 1866.8 Q3301.02 1872.27 3302.73 1877.5 Q3304.47 1882.73 3304.47 1887.89 Q3304.47 1893.08 3302.73 1898.33 Q3301.02 1903.59 3297.55 1909.03 L3293.85 1909.03 Q3296.92 1903.72 3298.43 1898.49 Q3299.96 1893.24 3299.96 1887.89 Q3299.96 1882.54 3298.43 1877.34 Q3296.92 1872.13 3293.85 1866.8 Z" fill="#000000" fill-rule="nonzero" fill-opacity="1" /><polyline clip-path="url(#clip140)" style="stroke:#ff8c00; stroke-linecap:round; stroke-linejoin:round; stroke-width:6; stroke-opacity:1; fill:none" points="2787.82,1937.34 3003.2,1937.34 "/>
<path clip-path="url(#clip140)" d="M2895.51 1911.74 L2869.91 1962.94 L2921.11 1962.94 L2895.51 1911.74 Z" fill="#ff8c00" fill-rule="evenodd" fill-opacity="1" stroke="none"/>
<path clip-path="url(#clip140)" d="M3049.73 1918.64 Q3046.62 1923.97 3045.12 1929.18 Q3043.62 1934.38 3043.62 1939.73 Q3043.62 1945.08 3045.12 1950.33 Q3046.65 1955.56 3049.73 1960.87 L3046.02 1960.87 Q3042.55 1955.43 3040.81 1950.17 Q3039.1 1944.92 3039.1 1939.73 Q3039.1 1934.57 3040.81 1929.34 Q3042.53 1924.11 3046.02 1918.64 L3049.73 1918.64 Z" fill="#000000" fill-rule="nonzero" fill-opacity="1" /><path clip-path="url(#clip140)" d="M3080.17 1940.59 L3080.17 1942.67 L3060.58 1942.67 Q3060.86 1947.07 3063.22 1949.38 Q3065.61 1951.68 3069.84 1951.68 Q3072.3 1951.68 3074.59 1951.07 Q3076.9 1950.47 3079.17 1949.27 L3079.17 1953.3 Q3076.88 1954.27 3074.47 1954.78 Q3072.06 1955.29 3069.59 1955.29 Q3063.38 1955.29 3059.75 1951.68 Q3056.14 1948.06 3056.14 1941.91 Q3056.14 1935.54 3059.56 1931.81 Q3063.01 1928.06 3068.85 1928.06 Q3074.08 1928.06 3077.11 1931.44 Q3080.17 1934.8 3080.17 1940.59 M3075.91 1939.34 Q3075.86 1935.84 3073.94 1933.76 Q3072.04 1931.68 3068.89 1931.68 Q3065.33 1931.68 3063.18 1933.69 Q3061.05 1935.7 3060.72 1939.36 L3075.91 1939.34 Z" fill="#000000" fill-rule="nonzero" fill-opacity="1" /><path clip-path="url(#clip140)" d="M3107.87 1928.69 L3098.5 1941.31 L3108.36 1954.62 L3103.34 1954.62 L3095.79 1944.43 L3088.24 1954.62 L3083.22 1954.62 L3093.29 1941.05 L3084.08 1928.69 L3089.1 1928.69 L3095.98 1937.93 L3102.85 1928.69 L3107.87 1928.69 Z" fill="#000000" fill-rule="nonzero" fill-opacity="1" /><path clip-path="url(#clip140)" d="M3126.16 1941.58 Q3121 1941.58 3119.01 1942.76 Q3117.02 1943.94 3117.02 1946.79 Q3117.02 1949.06 3118.5 1950.4 Q3120 1951.72 3122.57 1951.72 Q3126.11 1951.72 3128.24 1949.22 Q3130.4 1946.7 3130.4 1942.53 L3130.4 1941.58 L3126.16 1941.58 M3134.66 1939.82 L3134.66 1954.62 L3130.4 1954.62 L3130.4 1950.68 Q3128.94 1953.04 3126.76 1954.18 Q3124.59 1955.29 3121.44 1955.29 Q3117.46 1955.29 3115.1 1953.06 Q3112.76 1950.82 3112.76 1947.07 Q3112.76 1942.69 3115.67 1940.47 Q3118.61 1938.25 3124.42 1938.25 L3130.4 1938.25 L3130.4 1937.83 Q3130.4 1934.89 3128.45 1933.3 Q3126.53 1931.68 3123.04 1931.68 Q3120.81 1931.68 3118.71 1932.21 Q3116.6 1932.74 3114.66 1933.81 L3114.66 1929.87 Q3116.99 1928.97 3119.19 1928.53 Q3121.39 1928.06 3123.48 1928.06 Q3129.1 1928.06 3131.88 1930.98 Q3134.66 1933.9 3134.66 1939.82 Z" fill="#000000" fill-rule="nonzero" fill-opacity="1" /><path clip-path="url(#clip140)" d="M3144.52 1948.74 L3149.4 1948.74 L3149.4 1952.72 L3145.61 1960.12 L3142.62 1960.12 L3144.52 1952.72 L3144.52 1948.74 Z" fill="#000000" fill-rule="nonzero" fill-opacity="1" /><path clip-path="url(#clip140)" d="M3193.75 1933.67 Q3195.35 1930.8 3197.57 1929.43 Q3199.79 1928.06 3202.8 1928.06 Q3206.85 1928.06 3209.05 1930.91 Q3211.25 1933.74 3211.25 1938.97 L3211.25 1954.62 L3206.97 1954.62 L3206.97 1939.11 Q3206.97 1935.38 3205.65 1933.57 Q3204.33 1931.77 3201.62 1931.77 Q3198.31 1931.77 3196.39 1933.97 Q3194.47 1936.17 3194.47 1939.96 L3194.47 1954.62 L3190.19 1954.62 L3190.19 1939.11 Q3190.19 1935.36 3188.87 1933.57 Q3187.55 1931.77 3184.79 1931.77 Q3181.53 1931.77 3179.61 1933.99 Q3177.69 1936.19 3177.69 1939.96 L3177.69 1954.62 L3173.41 1954.62 L3173.41 1928.69 L3177.69 1928.69 L3177.69 1932.72 Q3179.15 1930.33 3181.18 1929.2 Q3183.22 1928.06 3186.02 1928.06 Q3188.85 1928.06 3190.81 1929.5 Q3192.8 1930.94 3193.75 1933.67 Z" fill="#000000" fill-rule="nonzero" fill-opacity="1" /><path clip-path="url(#clip140)" d="M3231.53 1941.58 Q3226.37 1941.58 3224.38 1942.76 Q3222.39 1943.94 3222.39 1946.79 Q3222.39 1949.06 3223.87 1950.4 Q3225.37 1951.72 3227.94 1951.72 Q3231.48 1951.72 3233.61 1949.22 Q3235.77 1946.7 3235.77 1942.53 L3235.77 1941.58 L3231.53 1941.58 M3240.03 1939.82 L3240.03 1954.62 L3235.77 1954.62 L3235.77 1950.68 Q3234.31 1953.04 3232.13 1954.18 Q3229.96 1955.29 3226.81 1955.29 Q3222.83 1955.29 3220.47 1953.06 Q3218.13 1950.82 3218.13 1947.07 Q3218.13 1942.69 3221.04 1940.47 Q3223.98 1938.25 3229.79 1938.25 L3235.77 1938.25 L3235.77 1937.83 Q3235.77 1934.89 3233.82 1933.3 Q3231.9 1931.68 3228.41 1931.68 Q3226.18 1931.68 3224.08 1932.21 Q3221.97 1932.74 3220.03 1933.81 L3220.03 1929.87 Q3222.36 1928.97 3224.56 1928.53 Q3226.76 1928.06 3228.85 1928.06 Q3234.47 1928.06 3237.25 1930.98 Q3240.03 1933.9 3240.03 1939.82 Z" fill="#000000" fill-rule="nonzero" fill-opacity="1" /><path clip-path="url(#clip140)" d="M3265.86 1932.62 L3265.86 1918.6 L3270.12 1918.6 L3270.12 1954.62 L3265.86 1954.62 L3265.86 1950.73 Q3264.52 1953.04 3262.46 1954.18 Q3260.42 1955.29 3257.55 1955.29 Q3252.85 1955.29 3249.89 1951.54 Q3246.95 1947.79 3246.95 1941.68 Q3246.95 1935.56 3249.89 1931.81 Q3252.85 1928.06 3257.55 1928.06 Q3260.42 1928.06 3262.46 1929.2 Q3264.52 1930.31 3265.86 1932.62 M3251.35 1941.68 Q3251.35 1946.37 3253.27 1949.06 Q3255.21 1951.72 3258.59 1951.72 Q3261.97 1951.72 3263.91 1949.06 Q3265.86 1946.37 3265.86 1941.68 Q3265.86 1936.98 3263.91 1934.31 Q3261.97 1931.63 3258.59 1931.63 Q3255.21 1931.63 3253.27 1934.31 Q3251.35 1936.98 3251.35 1941.68 Z" fill="#000000" fill-rule="nonzero" fill-opacity="1" /><path clip-path="url(#clip140)" d="M3300.44 1938.97 L3300.44 1954.62 L3296.18 1954.62 L3296.18 1939.11 Q3296.18 1935.43 3294.75 1933.6 Q3293.31 1931.77 3290.44 1931.77 Q3286.99 1931.77 3285 1933.97 Q3283.01 1936.17 3283.01 1939.96 L3283.01 1954.62 L3278.73 1954.62 L3278.73 1928.69 L3283.01 1928.69 L3283.01 1932.72 Q3284.54 1930.38 3286.6 1929.22 Q3288.68 1928.06 3291.39 1928.06 Q3295.86 1928.06 3298.15 1930.84 Q3300.44 1933.6 3300.44 1938.97 Z" fill="#000000" fill-rule="nonzero" fill-opacity="1" /><path clip-path="url(#clip140)" d="M3308.94 1918.6 L3313.2 1918.6 L3313.2 1954.62 L3308.94 1954.62 L3308.94 1918.6 Z" fill="#000000" fill-rule="nonzero" fill-opacity="1" /><path clip-path="url(#clip140)" d="M3326.23 1950.73 L3326.23 1964.48 L3321.95 1964.48 L3321.95 1928.69 L3326.23 1928.69 L3326.23 1932.62 Q3327.57 1930.31 3329.61 1929.2 Q3331.67 1928.06 3334.52 1928.06 Q3339.24 1928.06 3342.18 1931.81 Q3345.14 1935.56 3345.14 1941.68 Q3345.14 1947.79 3342.18 1951.54 Q3339.24 1955.29 3334.52 1955.29 Q3331.67 1955.29 3329.61 1954.18 Q3327.57 1953.04 3326.23 1950.73 M3340.72 1941.68 Q3340.72 1936.98 3338.78 1934.31 Q3336.85 1931.63 3333.47 1931.63 Q3330.1 1931.63 3328.15 1934.31 Q3326.23 1936.98 3326.23 1941.68 Q3326.23 1946.37 3328.15 1949.06 Q3330.1 1951.72 3333.47 1951.72 Q3336.85 1951.72 3338.78 1949.06 Q3340.72 1946.37 3340.72 1941.68 Z" fill="#000000" fill-rule="nonzero" fill-opacity="1" /><path clip-path="url(#clip140)" d="M3351.53 1918.64 L3355.23 1918.64 Q3358.71 1924.11 3360.42 1929.34 Q3362.16 1934.57 3362.16 1939.73 Q3362.16 1944.92 3360.42 1950.17 Q3358.71 1955.43 3355.23 1960.87 L3351.53 1960.87 Q3354.61 1955.56 3356.11 1950.33 Q3357.64 1945.08 3357.64 1939.73 Q3357.64 1934.38 3356.11 1929.18 Q3354.61 1923.97 3351.53 1918.64 Z" fill="#000000" fill-rule="nonzero" fill-opacity="1" /><polyline clip-path="url(#clip140)" style="stroke:#9370db; stroke-linecap:round; stroke-linejoin:round; stroke-width:6; stroke-opacity:1; fill:none" points="2787.82,1989.18 3003.2,1989.18 "/>
<path clip-path="url(#clip140)" d="M2921.11 1963.58 L2869.91 1963.58 L2895.51 2014.78 L2921.11 1963.58 Z" fill="#9370db" fill-rule="evenodd" fill-opacity="1" stroke="none"/>
<path clip-path="url(#clip140)" d="M3049.73 1970.48 Q3046.62 1975.81 3045.12 1981.02 Q3043.62 1986.22 3043.62 1991.57 Q3043.62 1996.92 3045.12 2002.17 Q3046.65 2007.4 3049.73 2012.71 L3046.02 2012.71 Q3042.55 2007.27 3040.81 2002.01 Q3039.1 1996.76 3039.1 1991.57 Q3039.1 1986.41 3040.81 1981.18 Q3042.53 1975.95 3046.02 1970.48 L3049.73 1970.48 Z" fill="#000000" fill-rule="nonzero" fill-opacity="1" /><path clip-path="url(#clip140)" d="M3057.99 1980.53 L3062.25 1980.53 L3062.25 2006.92 Q3062.25 2011.87 3060.35 2014.09 Q3058.48 2016.32 3054.29 2016.32 L3052.67 2016.32 L3052.67 2012.71 L3053.8 2012.71 Q3056.23 2012.71 3057.11 2011.57 Q3057.99 2010.46 3057.99 2006.92 L3057.99 1980.53 M3057.99 1970.44 L3062.25 1970.44 L3062.25 1975.83 L3057.99 1975.83 L3057.99 1970.44 Z" fill="#000000" fill-rule="nonzero" fill-opacity="1" /><path clip-path="url(#clip140)" d="M3070.72 1996.22 L3070.72 1980.53 L3074.98 1980.53 L3074.98 1996.06 Q3074.98 1999.74 3076.42 2001.59 Q3077.85 2003.42 3080.72 2003.42 Q3084.17 2003.42 3086.16 2001.22 Q3088.18 1999.03 3088.18 1995.23 L3088.18 1980.53 L3092.43 1980.53 L3092.43 2006.46 L3088.18 2006.46 L3088.18 2002.47 Q3086.62 2004.84 3084.56 2005.99 Q3082.53 2007.13 3079.82 2007.13 Q3075.35 2007.13 3073.04 2004.35 Q3070.72 2001.57 3070.72 1996.22 M3081.44 1979.9 L3081.44 1979.9 Z" fill="#000000" fill-rule="nonzero" fill-opacity="1" /><path clip-path="url(#clip140)" d="M3121.39 1985.51 Q3122.99 1982.64 3125.21 1981.27 Q3127.43 1979.9 3130.44 1979.9 Q3134.49 1979.9 3136.69 1982.75 Q3138.89 1985.58 3138.89 1990.81 L3138.89 2006.46 L3134.61 2006.46 L3134.61 1990.95 Q3134.61 1987.22 3133.29 1985.41 Q3131.97 1983.61 3129.26 1983.61 Q3125.95 1983.61 3124.03 1985.81 Q3122.11 1988.01 3122.11 1991.8 L3122.11 2006.46 L3117.83 2006.46 L3117.83 1990.95 Q3117.83 1987.2 3116.51 1985.41 Q3115.19 1983.61 3112.43 1983.61 Q3109.17 1983.61 3107.25 1985.83 Q3105.33 1988.03 3105.33 1991.8 L3105.33 2006.46 L3101.05 2006.46 L3101.05 1980.53 L3105.33 1980.53 L3105.33 1984.56 Q3106.79 1982.17 3108.82 1981.04 Q3110.86 1979.9 3113.66 1979.9 Q3116.49 1979.9 3118.45 1981.34 Q3120.44 1982.78 3121.39 1985.51 Z" fill="#000000" fill-rule="nonzero" fill-opacity="1" /><path clip-path="url(#clip140)" d="M3151.51 2002.57 L3151.51 2016.32 L3147.23 2016.32 L3147.23 1980.53 L3151.51 1980.53 L3151.51 1984.46 Q3152.85 1982.15 3154.89 1981.04 Q3156.95 1979.9 3159.8 1979.9 Q3164.52 1979.9 3167.46 1983.65 Q3170.42 1987.4 3170.42 1993.52 Q3170.42 1999.63 3167.46 2003.38 Q3164.52 2007.13 3159.8 2007.13 Q3156.95 2007.13 3154.89 2006.02 Q3152.85 2004.88 3151.51 2002.57 M3166 1993.52 Q3166 1988.82 3164.05 1986.15 Q3162.13 1983.47 3158.75 1983.47 Q3155.37 1983.47 3153.43 1986.15 Q3151.51 1988.82 3151.51 1993.52 Q3151.51 1998.21 3153.43 2000.9 Q3155.37 2003.56 3158.75 2003.56 Q3162.13 2003.56 3164.05 2000.9 Q3166 1998.21 3166 1993.52 Z" fill="#000000" fill-rule="nonzero" fill-opacity="1" /><path clip-path="url(#clip140)" d="M3178.57 2000.58 L3183.45 2000.58 L3183.45 2004.56 L3179.66 2011.96 L3176.67 2011.96 L3178.57 2004.56 L3178.57 2000.58 Z" fill="#000000" fill-rule="nonzero" fill-opacity="1" /><path clip-path="url(#clip140)" d="M3207.62 1980.53 L3211.88 1980.53 L3211.88 2006.46 L3207.62 2006.46 L3207.62 1980.53 M3207.62 1970.44 L3211.88 1970.44 L3211.88 1975.83 L3207.62 1975.83 L3207.62 1970.44 Z" fill="#000000" fill-rule="nonzero" fill-opacity="1" /><path clip-path="url(#clip140)" d="M3224.91 2002.57 L3224.91 2016.32 L3220.63 2016.32 L3220.63 1980.53 L3224.91 1980.53 L3224.91 1984.46 Q3226.25 1982.15 3228.29 1981.04 Q3230.35 1979.9 3233.2 1979.9 Q3237.92 1979.9 3240.86 1983.65 Q3243.82 1987.4 3243.82 1993.52 Q3243.82 1999.63 3240.86 2003.38 Q3237.92 2007.13 3233.2 2007.13 Q3230.35 2007.13 3228.29 2006.02 Q3226.25 2004.88 3224.91 2002.57 M3239.4 1993.52 Q3239.4 1988.82 3237.46 1986.15 Q3235.54 1983.47 3232.16 1983.47 Q3228.78 1983.47 3226.83 1986.15 Q3224.91 1988.82 3224.91 1993.52 Q3224.91 1998.21 3226.83 2000.9 Q3228.78 2003.56 3232.16 2003.56 Q3235.54 2003.56 3237.46 2000.9 Q3239.4 1998.21 3239.4 1993.52 Z" fill="#000000" fill-rule="nonzero" fill-opacity="1" /><path clip-path="url(#clip140)" d="M3260.93 1983.52 Q3257.5 1983.52 3255.51 1986.2 Q3253.52 1988.86 3253.52 1993.52 Q3253.52 1998.17 3255.49 2000.85 Q3257.48 2003.52 3260.93 2003.52 Q3264.33 2003.52 3266.32 2000.83 Q3268.31 1998.15 3268.31 1993.52 Q3268.31 1988.91 3266.32 1986.22 Q3264.33 1983.52 3260.93 1983.52 M3260.93 1979.9 Q3266.48 1979.9 3269.66 1983.52 Q3272.83 1987.13 3272.83 1993.52 Q3272.83 1999.88 3269.66 2003.52 Q3266.48 2007.13 3260.93 2007.13 Q3255.35 2007.13 3252.18 2003.52 Q3249.03 1999.88 3249.03 1993.52 Q3249.03 1987.13 3252.18 1983.52 Q3255.35 1979.9 3260.93 1979.9 Z" fill="#000000" fill-rule="nonzero" fill-opacity="1" /><path clip-path="url(#clip140)" d="M3284.01 2002.57 L3284.01 2016.32 L3279.72 2016.32 L3279.72 1980.53 L3284.01 1980.53 L3284.01 1984.46 Q3285.35 1982.15 3287.39 1981.04 Q3289.45 1979.9 3292.29 1979.9 Q3297.02 1979.9 3299.96 1983.65 Q3302.92 1987.4 3302.92 1993.52 Q3302.92 1999.63 3299.96 2003.38 Q3297.02 2007.13 3292.29 2007.13 Q3289.45 2007.13 3287.39 2006.02 Q3285.35 2004.88 3284.01 2002.57 M3298.5 1993.52 Q3298.5 1988.82 3296.55 1986.15 Q3294.63 1983.47 3291.25 1983.47 Q3287.87 1983.47 3285.93 1986.15 Q3284.01 1988.82 3284.01 1993.52 Q3284.01 1998.21 3285.93 2000.9 Q3287.87 2003.56 3291.25 2003.56 Q3294.63 2003.56 3296.55 2000.9 Q3298.5 1998.21 3298.5 1993.52 Z" fill="#000000" fill-rule="nonzero" fill-opacity="1" /><path clip-path="url(#clip140)" d="M3314.19 1973.17 L3314.19 1980.53 L3322.97 1980.53 L3322.97 1983.84 L3314.19 1983.84 L3314.19 1997.91 Q3314.19 2001.09 3315.05 2001.99 Q3315.93 2002.89 3318.59 2002.89 L3322.97 2002.89 L3322.97 2006.46 L3318.59 2006.46 Q3313.66 2006.46 3311.78 2004.63 Q3309.91 2002.78 3309.91 1997.91 L3309.91 1983.84 L3306.79 1983.84 L3306.79 1980.53 L3309.91 1980.53 L3309.91 1973.17 L3314.19 1973.17 Z" fill="#000000" fill-rule="nonzero" fill-opacity="1" /><path clip-path="url(#clip140)" d="M3327.9 1970.48 L3331.6 1970.48 Q3335.07 1975.95 3336.78 1981.18 Q3338.52 1986.41 3338.52 1991.57 Q3338.52 1996.76 3336.78 2002.01 Q3335.07 2007.27 3331.6 2012.71 L3327.9 2012.71 Q3330.97 2007.4 3332.48 2002.17 Q3334.01 1996.92 3334.01 1991.57 Q3334.01 1986.22 3332.48 1981.02 Q3330.97 1975.81 3327.9 1970.48 Z" fill="#000000" fill-rule="nonzero" fill-opacity="1" /><polyline clip-path="url(#clip140)" style="stroke:#a0522d; stroke-linecap:round; stroke-linejoin:round; stroke-width:6; stroke-opacity:1; fill:none" points="2787.82,2041.02 3003.2,2041.02 "/>
<path clip-path="url(#clip140)" d="M2895.51 2015.42 L2889.5 2032.72 L2871.17 2033.11 L2885.79 2044.19 L2880.46 2061.73 L2895.51 2051.26 L2910.57 2061.73 L2905.24 2044.19 L2919.86 2033.11 L2901.53 2032.72 L2895.51 2015.42 Z" fill="#a0522d" fill-rule="evenodd" fill-opacity="1" stroke="none"/>
<path clip-path="url(#clip140)" d="M3049.73 2022.32 Q3046.62 2027.65 3045.12 2032.86 Q3043.62 2038.06 3043.62 2043.41 Q3043.62 2048.76 3045.12 2054.01 Q3046.65 2059.24 3049.73 2064.55 L3046.02 2064.55 Q3042.55 2059.11 3040.81 2053.85 Q3039.1 2048.6 3039.1 2043.41 Q3039.1 2038.25 3040.81 2033.02 Q3042.53 2027.79 3046.02 2022.32 L3049.73 2022.32 Z" fill="#000000" fill-rule="nonzero" fill-opacity="1" /><path clip-path="url(#clip140)" d="M3057.99 2032.37 L3062.25 2032.37 L3062.25 2058.76 Q3062.25 2063.71 3060.35 2065.93 Q3058.48 2068.16 3054.29 2068.16 L3052.67 2068.16 L3052.67 2064.55 L3053.8 2064.55 Q3056.23 2064.55 3057.11 2063.41 Q3057.99 2062.3 3057.99 2058.76 L3057.99 2032.37 M3057.99 2022.28 L3062.25 2022.28 L3062.25 2027.67 L3057.99 2027.67 L3057.99 2022.28 Z" fill="#000000" fill-rule="nonzero" fill-opacity="1" /><path clip-path="url(#clip140)" d="M3070.72 2048.06 L3070.72 2032.37 L3074.98 2032.37 L3074.98 2047.9 Q3074.98 2051.58 3076.42 2053.43 Q3077.85 2055.26 3080.72 2055.26 Q3084.17 2055.26 3086.16 2053.06 Q3088.18 2050.87 3088.18 2047.07 L3088.18 2032.37 L3092.43 2032.37 L3092.43 2058.3 L3088.18 2058.3 L3088.18 2054.31 Q3086.62 2056.68 3084.56 2057.83 Q3082.53 2058.97 3079.82 2058.97 Q3075.35 2058.97 3073.04 2056.19 Q3070.72 2053.41 3070.72 2048.06 M3081.44 2031.74 L3081.44 2031.74 Z" fill="#000000" fill-rule="nonzero" fill-opacity="1" /><path clip-path="url(#clip140)" d="M3121.39 2037.35 Q3122.99 2034.48 3125.21 2033.11 Q3127.43 2031.74 3130.44 2031.74 Q3134.49 2031.74 3136.69 2034.59 Q3138.89 2037.42 3138.89 2042.65 L3138.89 2058.3 L3134.61 2058.3 L3134.61 2042.79 Q3134.61 2039.06 3133.29 2037.25 Q3131.97 2035.45 3129.26 2035.45 Q3125.95 2035.45 3124.03 2037.65 Q3122.11 2039.85 3122.11 2043.64 L3122.11 2058.3 L3117.83 2058.3 L3117.83 2042.79 Q3117.83 2039.04 3116.51 2037.25 Q3115.19 2035.45 3112.43 2035.45 Q3109.17 2035.45 3107.25 2037.67 Q3105.33 2039.87 3105.33 2043.64 L3105.33 2058.3 L3101.05 2058.3 L3101.05 2032.37 L3105.33 2032.37 L3105.33 2036.4 Q3106.79 2034.01 3108.82 2032.88 Q3110.86 2031.74 3113.66 2031.74 Q3116.49 2031.74 3118.45 2033.18 Q3120.44 2034.62 3121.39 2037.35 Z" fill="#000000" fill-rule="nonzero" fill-opacity="1" /><path clip-path="url(#clip140)" d="M3151.51 2054.41 L3151.51 2068.16 L3147.23 2068.16 L3147.23 2032.37 L3151.51 2032.37 L3151.51 2036.3 Q3152.85 2033.99 3154.89 2032.88 Q3156.95 2031.74 3159.8 2031.74 Q3164.52 2031.74 3167.46 2035.49 Q3170.42 2039.24 3170.42 2045.36 Q3170.42 2051.47 3167.46 2055.22 Q3164.52 2058.97 3159.8 2058.97 Q3156.95 2058.97 3154.89 2057.86 Q3152.85 2056.72 3151.51 2054.41 M3166 2045.36 Q3166 2040.66 3164.05 2037.99 Q3162.13 2035.31 3158.75 2035.31 Q3155.37 2035.31 3153.43 2037.99 Q3151.51 2040.66 3151.51 2045.36 Q3151.51 2050.05 3153.43 2052.74 Q3155.37 2055.4 3158.75 2055.4 Q3162.13 2055.4 3164.05 2052.74 Q3166 2050.05 3166 2045.36 Z" fill="#000000" fill-rule="nonzero" fill-opacity="1" /><path clip-path="url(#clip140)" d="M3178.57 2052.42 L3183.45 2052.42 L3183.45 2056.4 L3179.66 2063.8 L3176.67 2063.8 L3178.57 2056.4 L3178.57 2052.42 Z" fill="#000000" fill-rule="nonzero" fill-opacity="1" /><path clip-path="url(#clip140)" d="M3227.8 2037.35 Q3229.4 2034.48 3231.62 2033.11 Q3233.85 2031.74 3236.85 2031.74 Q3240.91 2031.74 3243.1 2034.59 Q3245.3 2037.42 3245.3 2042.65 L3245.3 2058.3 L3241.02 2058.3 L3241.02 2042.79 Q3241.02 2039.06 3239.7 2037.25 Q3238.38 2035.45 3235.67 2035.45 Q3232.36 2035.45 3230.44 2037.65 Q3228.52 2039.85 3228.52 2043.64 L3228.52 2058.3 L3224.24 2058.3 L3224.24 2042.79 Q3224.24 2039.04 3222.92 2037.25 Q3221.6 2035.45 3218.85 2035.45 Q3215.58 2035.45 3213.66 2037.67 Q3211.74 2039.87 3211.74 2043.64 L3211.74 2058.3 L3207.46 2058.3 L3207.46 2032.37 L3211.74 2032.37 L3211.74 2036.4 Q3213.2 2034.01 3215.23 2032.88 Q3217.27 2031.74 3220.07 2031.74 Q3222.9 2031.74 3224.86 2033.18 Q3226.85 2034.62 3227.8 2037.35 Z" fill="#000000" fill-rule="nonzero" fill-opacity="1" /><path clip-path="url(#clip140)" d="M3265.58 2045.26 Q3260.42 2045.26 3258.43 2046.44 Q3256.44 2047.62 3256.44 2050.47 Q3256.44 2052.74 3257.92 2054.08 Q3259.42 2055.4 3261.99 2055.4 Q3265.54 2055.4 3267.66 2052.9 Q3269.82 2050.38 3269.82 2046.21 L3269.82 2045.26 L3265.58 2045.26 M3274.08 2043.5 L3274.08 2058.3 L3269.82 2058.3 L3269.82 2054.36 Q3268.36 2056.72 3266.18 2057.86 Q3264.01 2058.97 3260.86 2058.97 Q3256.88 2058.97 3254.52 2056.74 Q3252.18 2054.5 3252.18 2050.75 Q3252.18 2046.37 3255.1 2044.15 Q3258.04 2041.93 3263.85 2041.93 L3269.82 2041.93 L3269.82 2041.51 Q3269.82 2038.57 3267.87 2036.98 Q3265.95 2035.36 3262.46 2035.36 Q3260.23 2035.36 3258.13 2035.89 Q3256.02 2036.42 3254.08 2037.49 L3254.08 2033.55 Q3256.41 2032.65 3258.61 2032.21 Q3260.81 2031.74 3262.9 2031.74 Q3268.52 2031.74 3271.3 2034.66 Q3274.08 2037.58 3274.08 2043.5 Z" fill="#000000" fill-rule="nonzero" fill-opacity="1" /><path clip-path="url(#clip140)" d="M3299.91 2036.3 L3299.91 2022.28 L3304.17 2022.28 L3304.17 2058.3 L3299.91 2058.3 L3299.91 2054.41 Q3298.57 2056.72 3296.51 2057.86 Q3294.47 2058.97 3291.6 2058.97 Q3286.9 2058.97 3283.94 2055.22 Q3281 2051.47 3281 2045.36 Q3281 2039.24 3283.94 2035.49 Q3286.9 2031.74 3291.6 2031.74 Q3294.47 2031.74 3296.51 2032.88 Q3298.57 2033.99 3299.91 2036.3 M3285.4 2045.36 Q3285.4 2050.05 3287.32 2052.74 Q3289.26 2055.4 3292.64 2055.4 Q3296.02 2055.4 3297.97 2052.74 Q3299.91 2050.05 3299.91 2045.36 Q3299.91 2040.66 3297.97 2037.99 Q3296.02 2035.31 3292.64 2035.31 Q3289.26 2035.31 3287.32 2037.99 Q3285.4 2040.66 3285.4 2045.36 Z" fill="#000000" fill-rule="nonzero" fill-opacity="1" /><path clip-path="url(#clip140)" d="M3334.49 2042.65 L3334.49 2058.3 L3330.23 2058.3 L3330.23 2042.79 Q3330.23 2039.11 3328.8 2037.28 Q3327.36 2035.45 3324.49 2035.45 Q3321.04 2035.45 3319.05 2037.65 Q3317.06 2039.85 3317.06 2043.64 L3317.06 2058.3 L3312.78 2058.3 L3312.78 2032.37 L3317.06 2032.37 L3317.06 2036.4 Q3318.59 2034.06 3320.65 2032.9 Q3322.73 2031.74 3325.44 2031.74 Q3329.91 2031.74 3332.2 2034.52 Q3334.49 2037.28 3334.49 2042.65 Z" fill="#000000" fill-rule="nonzero" fill-opacity="1" /><path clip-path="url(#clip140)" d="M3342.99 2022.28 L3347.25 2022.28 L3347.25 2058.3 L3342.99 2058.3 L3342.99 2022.28 Z" fill="#000000" fill-rule="nonzero" fill-opacity="1" /><path clip-path="url(#clip140)" d="M3360.28 2054.41 L3360.28 2068.16 L3356 2068.16 L3356 2032.37 L3360.28 2032.37 L3360.28 2036.3 Q3361.62 2033.99 3363.66 2032.88 Q3365.72 2031.74 3368.57 2031.74 Q3373.29 2031.74 3376.23 2035.49 Q3379.19 2039.24 3379.19 2045.36 Q3379.19 2051.47 3376.23 2055.22 Q3373.29 2058.97 3368.57 2058.97 Q3365.72 2058.97 3363.66 2057.86 Q3361.62 2056.72 3360.28 2054.41 M3374.77 2045.36 Q3374.77 2040.66 3372.83 2037.99 Q3370.91 2035.31 3367.53 2035.31 Q3364.15 2035.31 3362.2 2037.99 Q3360.28 2040.66 3360.28 2045.36 Q3360.28 2050.05 3362.2 2052.74 Q3364.15 2055.4 3367.53 2055.4 Q3370.91 2055.4 3372.83 2052.74 Q3374.77 2050.05 3374.77 2045.36 Z" fill="#000000" fill-rule="nonzero" fill-opacity="1" /><path clip-path="url(#clip140)" d="M3385.58 2022.32 L3389.28 2022.32 Q3392.76 2027.79 3394.47 2033.02 Q3396.21 2038.25 3396.21 2043.41 Q3396.21 2048.6 3394.47 2053.85 Q3392.76 2059.11 3389.28 2064.55 L3385.58 2064.55 Q3388.66 2059.24 3390.16 2054.01 Q3391.69 2048.76 3391.69 2043.41 Q3391.69 2038.06 3390.16 2032.86 Q3388.66 2027.65 3385.58 2022.32 Z" fill="#000000" fill-rule="nonzero" fill-opacity="1" /></svg>
