<?xml version="1.0" encoding="utf-8"?>
<svg xmlns="http://www.w3.org/2000/svg" xmlns:xlink="http://www.w3.org/1999/xlink" width="900" height="600" viewBox="0 0 3600 2400">
<defs>
  <clipPath id="clip850">
    <rect x="0" y="0" width="3600" height="2400"/>
  </clipPath>
</defs>
<path clip-path="url(#clip850)" d="M0 2400 L3600 2400 L3600 0 L0 0  Z" fill="#ffffff" fill-rule="evenodd" fill-opacity="1"/>
<defs>
  <clipPath id="clip851">
    <rect x="720" y="0" width="2521" height="2400"/>
  </clipPath>
</defs>
<path clip-path="url(#clip850)" d="M244.821 2156.51 L3552.76 2156.51 L3552.76 246.944 L244.821 246.944  Z" fill="#ffffff" fill-rule="evenodd" fill-opacity="1"/>
<defs>
  <clipPath id="clip852">
    <rect x="244" y="246" width="3309" height="1911"/>
  </clipPath>
</defs>
<polyline clip-path="url(#clip852)" style="stroke:#000000; stroke-linecap:round; stroke-linejoin:round; stroke-width:2; stroke-opacity:0.1; fill:none" points="371.078,2156.51 371.078,246.944 "/>
<polyline clip-path="url(#clip852)" style="stroke:#000000; stroke-linecap:round; stroke-linejoin:round; stroke-width:2; stroke-opacity:0.1; fill:none" points="560.464,2156.51 560.464,246.944 "/>
<polyline clip-path="url(#clip852)" style="stroke:#000000; stroke-linecap:round; stroke-linejoin:round; stroke-width:2; stroke-opacity:0.1; fill:none" points="876.106,2156.51 876.106,246.944 "/>
<polyline clip-path="url(#clip852)" style="stroke:#000000; stroke-linecap:round; stroke-linejoin:round; stroke-width:2; stroke-opacity:0.1; fill:none" points="1507.39,2156.51 1507.39,246.944 "/>
<polyline clip-path="url(#clip852)" style="stroke:#000000; stroke-linecap:round; stroke-linejoin:round; stroke-width:2; stroke-opacity:0.1; fill:none" points="3401.25,2156.51 3401.25,246.944 "/>
<polyline clip-path="url(#clip852)" style="stroke:#000000; stroke-linecap:round; stroke-linejoin:round; stroke-width:2; stroke-opacity:0.1; fill:none" points="244.821,2114.83 3552.76,2114.83 "/>
<polyline clip-path="url(#clip852)" style="stroke:#000000; stroke-linecap:round; stroke-linejoin:round; stroke-width:2; stroke-opacity:0.1; fill:none" points="244.821,1647.8 3552.76,1647.8 "/>
<polyline clip-path="url(#clip852)" style="stroke:#000000; stroke-linecap:round; stroke-linejoin:round; stroke-width:2; stroke-opacity:0.1; fill:none" points="244.821,1180.78 3552.76,1180.78 "/>
<polyline clip-path="url(#clip852)" style="stroke:#000000; stroke-linecap:round; stroke-linejoin:round; stroke-width:2; stroke-opacity:0.1; fill:none" points="244.821,713.75 3552.76,713.75 "/>
<polyline clip-path="url(#clip850)" style="stroke:#000000; stroke-linecap:round; stroke-linejoin:round; stroke-width:4; stroke-opacity:1; fill:none" points="244.821,2156.51 3552.76,2156.51 "/>
<polyline clip-path="url(#clip850)" style="stroke:#000000; stroke-linecap:round; stroke-linejoin:round; stroke-width:4; stroke-opacity:1; fill:none" points="371.078,2156.51 371.078,2137.61 "/>
<polyline clip-path="url(#clip850)" style="stroke:#000000; stroke-linecap:round; stroke-linejoin:round; stroke-width:4; stroke-opacity:1; fill:none" points="560.464,2156.51 560.464,2137.61 "/>
<polyline clip-path="url(#clip850)" style="stroke:#000000; stroke-linecap:round; stroke-linejoin:round; stroke-width:4; stroke-opacity:1; fill:none" points="876.106,2156.51 876.106,2137.61 "/>
<polyline clip-path="url(#clip850)" style="stroke:#000000; stroke-linecap:round; stroke-linejoin:round; stroke-width:4; stroke-opacity:1; fill:none" points="1507.39,2156.51 1507.39,2137.61 "/>
<polyline clip-path="url(#clip850)" style="stroke:#000000; stroke-linecap:round; stroke-linejoin:round; stroke-width:4; stroke-opacity:1; fill:none" points="3401.25,2156.51 3401.25,2137.61 "/>
<path clip-path="url(#clip850)" d="M334.77 2224.57 L351.09 2224.57 L351.09 2228.51 L329.145 2228.51 L329.145 2224.57 Q331.807 2221.82 336.391 2217.19 Q340.997 2212.54 342.178 2211.19 Q344.423 2208.67 345.303 2206.93 Q346.206 2205.17 346.206 2203.48 Q346.206 2200.73 344.261 2198.99 Q342.34 2197.26 339.238 2197.26 Q337.039 2197.26 334.585 2198.02 Q332.155 2198.79 329.377 2200.34 L329.377 2195.61 Q332.201 2194.48 334.655 2193.9 Q337.108 2193.32 339.145 2193.32 Q344.516 2193.32 347.71 2196.01 Q350.905 2198.69 350.905 2203.18 Q350.905 2205.31 350.094 2207.23 Q349.307 2209.13 347.201 2211.73 Q346.622 2212.4 343.52 2215.61 Q340.419 2218.81 334.77 2224.57 Z" fill="#000000" fill-rule="nonzero" fill-opacity="1" /><path clip-path="url(#clip850)" d="M370.904 2197.03 Q367.293 2197.03 365.465 2200.59 Q363.659 2204.13 363.659 2211.26 Q363.659 2218.37 365.465 2221.93 Q367.293 2225.48 370.904 2225.48 Q374.539 2225.48 376.344 2221.93 Q378.173 2218.37 378.173 2211.26 Q378.173 2204.13 376.344 2200.59 Q374.539 2197.03 370.904 2197.03 M370.904 2193.32 Q376.715 2193.32 379.77 2197.93 Q382.849 2202.51 382.849 2211.26 Q382.849 2219.99 379.77 2224.6 Q376.715 2229.18 370.904 2229.18 Q365.094 2229.18 362.016 2224.6 Q358.96 2219.99 358.96 2211.26 Q358.96 2202.51 362.016 2197.93 Q365.094 2193.32 370.904 2193.32 Z" fill="#000000" fill-rule="nonzero" fill-opacity="1" /><path clip-path="url(#clip850)" d="M401.066 2197.03 Q397.455 2197.03 395.627 2200.59 Q393.821 2204.13 393.821 2211.26 Q393.821 2218.37 395.627 2221.93 Q397.455 2225.48 401.066 2225.48 Q404.701 2225.48 406.506 2221.93 Q408.335 2218.37 408.335 2211.26 Q408.335 2204.13 406.506 2200.59 Q404.701 2197.03 401.066 2197.03 M401.066 2193.32 Q406.877 2193.32 409.932 2197.93 Q413.011 2202.51 413.011 2211.26 Q413.011 2219.99 409.932 2224.6 Q406.877 2229.18 401.066 2229.18 Q395.256 2229.18 392.178 2224.6 Q389.122 2219.99 389.122 2211.26 Q389.122 2202.51 392.178 2197.93 Q395.256 2193.32 401.066 2193.32 Z" fill="#000000" fill-rule="nonzero" fill-opacity="1" /><path clip-path="url(#clip850)" d="M520.082 2193.95 L538.438 2193.95 L538.438 2197.88 L524.364 2197.88 L524.364 2206.36 Q525.383 2206.01 526.401 2205.85 Q527.42 2205.66 528.438 2205.66 Q534.225 2205.66 537.605 2208.83 Q540.985 2212 540.985 2217.42 Q540.985 2223 537.512 2226.1 Q534.04 2229.18 527.721 2229.18 Q525.545 2229.18 523.276 2228.81 Q521.031 2228.44 518.624 2227.7 L518.624 2223 Q520.707 2224.13 522.929 2224.69 Q525.151 2225.24 527.628 2225.24 Q531.633 2225.24 533.971 2223.14 Q536.309 2221.03 536.309 2217.42 Q536.309 2213.81 533.971 2211.7 Q531.633 2209.6 527.628 2209.6 Q525.753 2209.6 523.878 2210.01 Q522.026 2210.43 520.082 2211.31 L520.082 2193.95 Z" fill="#000000" fill-rule="nonzero" fill-opacity="1" /><path clip-path="url(#clip850)" d="M560.197 2197.03 Q556.586 2197.03 554.758 2200.59 Q552.952 2204.13 552.952 2211.26 Q552.952 2218.37 554.758 2221.93 Q556.586 2225.48 560.197 2225.48 Q563.832 2225.48 565.637 2221.93 Q567.466 2218.37 567.466 2211.26 Q567.466 2204.13 565.637 2200.59 Q563.832 2197.03 560.197 2197.03 M560.197 2193.32 Q566.008 2193.32 569.063 2197.93 Q572.142 2202.51 572.142 2211.26 Q572.142 2219.99 569.063 2224.6 Q566.008 2229.18 560.197 2229.18 Q554.387 2229.18 551.309 2224.6 Q548.253 2219.99 548.253 2211.26 Q548.253 2202.51 551.309 2197.93 Q554.387 2193.32 560.197 2193.32 Z" fill="#000000" fill-rule="nonzero" fill-opacity="1" /><path clip-path="url(#clip850)" d="M590.359 2197.03 Q586.748 2197.03 584.92 2200.59 Q583.114 2204.13 583.114 2211.26 Q583.114 2218.37 584.92 2221.93 Q586.748 2225.48 590.359 2225.48 Q593.994 2225.48 595.799 2221.93 Q597.628 2218.37 597.628 2211.26 Q597.628 2204.13 595.799 2200.59 Q593.994 2197.03 590.359 2197.03 M590.359 2193.32 Q596.17 2193.32 599.225 2197.93 Q602.304 2202.51 602.304 2211.26 Q602.304 2219.99 599.225 2224.6 Q596.17 2229.18 590.359 2229.18 Q584.549 2229.18 581.471 2224.6 Q578.415 2219.99 578.415 2211.26 Q578.415 2202.51 581.471 2197.93 Q584.549 2193.32 590.359 2193.32 Z" fill="#000000" fill-rule="nonzero" fill-opacity="1" /><path clip-path="url(#clip850)" d="M820.632 2224.57 L828.271 2224.57 L828.271 2198.21 L819.961 2199.87 L819.961 2195.61 L828.225 2193.95 L832.901 2193.95 L832.901 2224.57 L840.539 2224.57 L840.539 2228.51 L820.632 2228.51 L820.632 2224.57 Z" fill="#000000" fill-rule="nonzero" fill-opacity="1" /><path clip-path="url(#clip850)" d="M859.984 2197.03 Q856.373 2197.03 854.544 2200.59 Q852.738 2204.13 852.738 2211.26 Q852.738 2218.37 854.544 2221.93 Q856.373 2225.48 859.984 2225.48 Q863.618 2225.48 865.424 2221.93 Q867.252 2218.37 867.252 2211.26 Q867.252 2204.13 865.424 2200.59 Q863.618 2197.03 859.984 2197.03 M859.984 2193.32 Q865.794 2193.32 868.849 2197.93 Q871.928 2202.51 871.928 2211.26 Q871.928 2219.99 868.849 2224.6 Q865.794 2229.18 859.984 2229.18 Q854.174 2229.18 851.095 2224.6 Q848.039 2219.99 848.039 2211.26 Q848.039 2202.51 851.095 2197.93 Q854.174 2193.32 859.984 2193.32 Z" fill="#000000" fill-rule="nonzero" fill-opacity="1" /><path clip-path="url(#clip850)" d="M890.146 2197.03 Q886.535 2197.03 884.706 2200.59 Q882.9 2204.13 882.9 2211.26 Q882.9 2218.37 884.706 2221.93 Q886.535 2225.48 890.146 2225.48 Q893.78 2225.48 895.585 2221.93 Q897.414 2218.37 897.414 2211.26 Q897.414 2204.13 895.585 2200.59 Q893.78 2197.03 890.146 2197.03 M890.146 2193.32 Q895.956 2193.32 899.011 2197.93 Q902.09 2202.51 902.09 2211.26 Q902.09 2219.99 899.011 2224.6 Q895.956 2229.18 890.146 2229.18 Q884.335 2229.18 881.257 2224.6 Q878.201 2219.99 878.201 2211.26 Q878.201 2202.51 881.257 2197.93 Q884.335 2193.32 890.146 2193.32 Z" fill="#000000" fill-rule="nonzero" fill-opacity="1" /><path clip-path="url(#clip850)" d="M920.307 2197.03 Q916.696 2197.03 914.868 2200.59 Q913.062 2204.13 913.062 2211.26 Q913.062 2218.37 914.868 2221.93 Q916.696 2225.48 920.307 2225.48 Q923.942 2225.48 925.747 2221.93 Q927.576 2218.37 927.576 2211.26 Q927.576 2204.13 925.747 2200.59 Q923.942 2197.03 920.307 2197.03 M920.307 2193.32 Q926.118 2193.32 929.173 2197.93 Q932.252 2202.51 932.252 2211.26 Q932.252 2219.99 929.173 2224.6 Q926.118 2229.18 920.307 2229.18 Q914.497 2229.18 911.419 2224.6 Q908.363 2219.99 908.363 2211.26 Q908.363 2202.51 911.419 2197.93 Q914.497 2193.32 920.307 2193.32 Z" fill="#000000" fill-rule="nonzero" fill-opacity="1" /><path clip-path="url(#clip850)" d="M1456 2224.57 L1472.32 2224.57 L1472.32 2228.51 L1450.38 2228.51 L1450.38 2224.57 Q1453.04 2221.82 1457.62 2217.19 Q1462.23 2212.54 1463.41 2211.19 Q1465.66 2208.67 1466.54 2206.93 Q1467.44 2205.17 1467.44 2203.48 Q1467.44 2200.73 1465.49 2198.99 Q1463.57 2197.26 1460.47 2197.26 Q1458.27 2197.26 1455.82 2198.02 Q1453.39 2198.79 1450.61 2200.34 L1450.61 2195.61 Q1453.43 2194.48 1455.89 2193.9 Q1458.34 2193.32 1460.38 2193.32 Q1465.75 2193.32 1468.94 2196.01 Q1472.14 2198.69 1472.14 2203.18 Q1472.14 2205.31 1471.33 2207.23 Q1470.54 2209.13 1468.43 2211.73 Q1467.85 2212.4 1464.75 2215.61 Q1461.65 2218.81 1456 2224.57 Z" fill="#000000" fill-rule="nonzero" fill-opacity="1" /><path clip-path="url(#clip850)" d="M1492.14 2197.03 Q1488.53 2197.03 1486.7 2200.59 Q1484.89 2204.13 1484.89 2211.26 Q1484.89 2218.37 1486.7 2221.93 Q1488.53 2225.48 1492.14 2225.48 Q1495.77 2225.48 1497.58 2221.93 Q1499.41 2218.37 1499.41 2211.26 Q1499.41 2204.13 1497.58 2200.59 Q1495.77 2197.03 1492.14 2197.03 M1492.14 2193.32 Q1497.95 2193.32 1501 2197.93 Q1504.08 2202.51 1504.08 2211.26 Q1504.08 2219.99 1501 2224.6 Q1497.95 2229.18 1492.14 2229.18 Q1486.33 2229.18 1483.25 2224.6 Q1480.19 2219.99 1480.19 2211.26 Q1480.19 2202.51 1483.25 2197.93 Q1486.33 2193.32 1492.14 2193.32 Z" fill="#000000" fill-rule="nonzero" fill-opacity="1" /><path clip-path="url(#clip850)" d="M1522.3 2197.03 Q1518.69 2197.03 1516.86 2200.59 Q1515.05 2204.13 1515.05 2211.26 Q1515.05 2218.37 1516.86 2221.93 Q1518.69 2225.48 1522.3 2225.48 Q1525.93 2225.48 1527.74 2221.93 Q1529.57 2218.37 1529.57 2211.26 Q1529.57 2204.13 1527.74 2200.59 Q1525.93 2197.03 1522.3 2197.03 M1522.3 2193.32 Q1528.11 2193.32 1531.16 2197.93 Q1534.24 2202.51 1534.24 2211.26 Q1534.24 2219.99 1531.16 2224.6 Q1528.11 2229.18 1522.3 2229.18 Q1516.49 2229.18 1513.41 2224.6 Q1510.35 2219.99 1510.35 2211.26 Q1510.35 2202.51 1513.41 2197.93 Q1516.49 2193.32 1522.3 2193.32 Z" fill="#000000" fill-rule="nonzero" fill-opacity="1" /><path clip-path="url(#clip850)" d="M1552.46 2197.03 Q1548.85 2197.03 1547.02 2200.59 Q1545.22 2204.13 1545.22 2211.26 Q1545.22 2218.37 1547.02 2221.93 Q1548.85 2225.48 1552.46 2225.48 Q1556.1 2225.48 1557.9 2221.93 Q1559.73 2218.37 1559.73 2211.26 Q1559.73 2204.13 1557.9 2200.59 Q1556.1 2197.03 1552.46 2197.03 M1552.46 2193.32 Q1558.27 2193.32 1561.33 2197.93 Q1564.41 2202.51 1564.41 2211.26 Q1564.41 2219.99 1561.33 2224.6 Q1558.27 2229.18 1552.46 2229.18 Q1546.65 2229.18 1543.57 2224.6 Q1540.52 2219.99 1540.52 2211.26 Q1540.52 2202.51 1543.57 2197.93 Q1546.65 2193.32 1552.46 2193.32 Z" fill="#000000" fill-rule="nonzero" fill-opacity="1" /><path clip-path="url(#clip850)" d="M3345.78 2193.95 L3364.14 2193.95 L3364.14 2197.88 L3350.07 2197.88 L3350.07 2206.36 Q3351.09 2206.01 3352.1 2205.85 Q3353.12 2205.66 3354.14 2205.66 Q3359.93 2205.66 3363.31 2208.83 Q3366.69 2212 3366.69 2217.42 Q3366.69 2223 3363.22 2226.1 Q3359.74 2229.18 3353.42 2229.18 Q3351.25 2229.18 3348.98 2228.81 Q3346.73 2228.44 3344.33 2227.7 L3344.33 2223 Q3346.41 2224.13 3348.63 2224.69 Q3350.85 2225.24 3353.33 2225.24 Q3357.34 2225.24 3359.67 2223.14 Q3362.01 2221.03 3362.01 2217.42 Q3362.01 2213.81 3359.67 2211.7 Q3357.34 2209.6 3353.33 2209.6 Q3351.46 2209.6 3349.58 2210.01 Q3347.73 2210.43 3345.78 2211.31 L3345.78 2193.95 Z" fill="#000000" fill-rule="nonzero" fill-opacity="1" /><path clip-path="url(#clip850)" d="M3385.9 2197.03 Q3382.29 2197.03 3380.46 2200.59 Q3378.65 2204.13 3378.65 2211.26 Q3378.65 2218.37 3380.46 2221.93 Q3382.29 2225.48 3385.9 2225.48 Q3389.53 2225.48 3391.34 2221.93 Q3393.17 2218.37 3393.17 2211.26 Q3393.17 2204.13 3391.34 2200.59 Q3389.53 2197.03 3385.9 2197.03 M3385.9 2193.32 Q3391.71 2193.32 3394.77 2197.93 Q3397.84 2202.51 3397.84 2211.26 Q3397.84 2219.99 3394.77 2224.6 Q3391.71 2229.18 3385.9 2229.18 Q3380.09 2229.18 3377.01 2224.6 Q3373.96 2219.99 3373.96 2211.26 Q3373.96 2202.51 3377.01 2197.93 Q3380.09 2193.32 3385.9 2193.32 Z" fill="#000000" fill-rule="nonzero" fill-opacity="1" /><path clip-path="url(#clip850)" d="M3416.06 2197.03 Q3412.45 2197.03 3410.62 2200.59 Q3408.82 2204.13 3408.82 2211.26 Q3408.82 2218.37 3410.62 2221.93 Q3412.45 2225.48 3416.06 2225.48 Q3419.7 2225.48 3421.5 2221.93 Q3423.33 2218.37 3423.33 2211.26 Q3423.33 2204.13 3421.5 2200.59 Q3419.7 2197.03 3416.06 2197.03 M3416.06 2193.32 Q3421.87 2193.32 3424.93 2197.93 Q3428.01 2202.51 3428.01 2211.26 Q3428.01 2219.99 3424.93 2224.6 Q3421.87 2229.18 3416.06 2229.18 Q3410.25 2229.18 3407.17 2224.6 Q3404.12 2219.99 3404.12 2211.26 Q3404.12 2202.51 3407.17 2197.93 Q3410.25 2193.32 3416.06 2193.32 Z" fill="#000000" fill-rule="nonzero" fill-opacity="1" /><path clip-path="url(#clip850)" d="M3446.22 2197.03 Q3442.61 2197.03 3440.78 2200.59 Q3438.98 2204.13 3438.98 2211.26 Q3438.98 2218.37 3440.78 2221.93 Q3442.61 2225.48 3446.22 2225.48 Q3449.86 2225.48 3451.66 2221.93 Q3453.49 2218.37 3453.49 2211.26 Q3453.49 2204.13 3451.66 2200.59 Q3449.86 2197.03 3446.22 2197.03 M3446.22 2193.32 Q3452.03 2193.32 3455.09 2197.93 Q3458.17 2202.51 3458.17 2211.26 Q3458.17 2219.99 3455.09 2224.6 Q3452.03 2229.18 3446.22 2229.18 Q3440.41 2229.18 3437.34 2224.6 Q3434.28 2219.99 3434.28 2211.26 Q3434.28 2202.51 3437.34 2197.93 Q3440.41 2193.32 3446.22 2193.32 Z" fill="#000000" fill-rule="nonzero" fill-opacity="1" /><path clip-path="url(#clip850)" d="M1774.67 2308.02 L1774.67 2296.42 L1765.12 2296.42 L1765.12 2291.62 L1780.46 2291.62 L1780.46 2310.17 Q1777.07 2312.57 1772.99 2313.81 Q1768.91 2315.03 1764.28 2315.03 Q1754.16 2315.03 1748.43 2309.12 Q1742.73 2303.19 1742.73 2292.63 Q1742.73 2282.04 1748.43 2276.14 Q1754.16 2270.21 1764.28 2270.21 Q1768.51 2270.21 1772.3 2271.25 Q1776.12 2272.29 1779.33 2274.32 L1779.33 2280.54 Q1776.09 2277.79 1772.44 2276.4 Q1768.8 2275.01 1764.78 2275.01 Q1756.85 2275.01 1752.85 2279.44 Q1748.89 2283.86 1748.89 2292.63 Q1748.89 2301.37 1752.85 2305.8 Q1756.85 2310.22 1764.78 2310.22 Q1767.87 2310.22 1770.3 2309.7 Q1772.73 2309.15 1774.67 2308.02 Z" fill="#000000" fill-rule="nonzero" fill-opacity="1" /><path clip-path="url(#clip850)" d="M1809.68 2286.76 Q1808.79 2286.24 1807.72 2286 Q1806.67 2285.74 1805.4 2285.74 Q1800.89 2285.74 1798.46 2288.7 Q1796.05 2291.62 1796.05 2297.12 L1796.05 2314.19 L1790.7 2314.19 L1790.7 2281.78 L1796.05 2281.78 L1796.05 2286.82 Q1797.73 2283.86 1800.42 2282.45 Q1803.11 2281 1806.96 2281 Q1807.51 2281 1808.18 2281.09 Q1808.84 2281.14 1809.65 2281.29 L1809.68 2286.76 Z" fill="#000000" fill-rule="nonzero" fill-opacity="1" /><path clip-path="url(#clip850)" d="M1815.27 2281.78 L1820.59 2281.78 L1820.59 2314.19 L1815.27 2314.19 L1815.27 2281.78 M1815.27 2269.16 L1820.59 2269.16 L1820.59 2275.91 L1815.27 2275.91 L1815.27 2269.16 Z" fill="#000000" fill-rule="nonzero" fill-opacity="1" /><path clip-path="url(#clip850)" d="M1853.06 2286.7 L1853.06 2269.16 L1858.38 2269.16 L1858.38 2314.19 L1853.06 2314.19 L1853.06 2309.33 Q1851.38 2312.22 1848.8 2313.64 Q1846.26 2315.03 1842.67 2315.03 Q1836.8 2315.03 1833.09 2310.34 Q1829.42 2305.65 1829.42 2298.01 Q1829.42 2290.37 1833.09 2285.69 Q1836.8 2281 1842.67 2281 Q1846.26 2281 1848.8 2282.42 Q1851.38 2283.81 1853.06 2286.7 M1834.91 2298.01 Q1834.91 2303.89 1837.32 2307.24 Q1839.75 2310.57 1843.97 2310.57 Q1848.2 2310.57 1850.63 2307.24 Q1853.06 2303.89 1853.06 2298.01 Q1853.06 2292.14 1850.63 2288.81 Q1848.2 2285.46 1843.97 2285.46 Q1839.75 2285.46 1837.32 2288.81 Q1834.91 2292.14 1834.91 2298.01 Z" fill="#000000" fill-rule="nonzero" fill-opacity="1" /><path clip-path="url(#clip850)" d="M1908.84 2282.74 L1908.84 2287.77 Q1906.59 2286.61 1904.16 2286.03 Q1901.73 2285.46 1899.12 2285.46 Q1895.16 2285.46 1893.16 2286.67 Q1891.19 2287.89 1891.19 2290.32 Q1891.19 2292.17 1892.61 2293.24 Q1894.03 2294.28 1898.31 2295.24 L1900.13 2295.64 Q1905.81 2296.86 1908.18 2299.08 Q1910.58 2301.28 1910.58 2305.25 Q1910.58 2309.76 1906.99 2312.39 Q1903.43 2315.03 1897.18 2315.03 Q1894.58 2315.03 1891.74 2314.51 Q1888.94 2314.01 1885.81 2313 L1885.81 2307.5 Q1888.76 2309.04 1891.63 2309.82 Q1894.49 2310.57 1897.3 2310.57 Q1901.06 2310.57 1903.09 2309.3 Q1905.11 2308 1905.11 2305.65 Q1905.11 2303.48 1903.64 2302.32 Q1902.19 2301.17 1897.24 2300.1 L1895.39 2299.66 Q1890.44 2298.62 1888.24 2296.48 Q1886.04 2294.31 1886.04 2290.55 Q1886.04 2285.98 1889.28 2283.49 Q1892.52 2281 1898.48 2281 Q1901.44 2281 1904.04 2281.43 Q1906.64 2281.87 1908.84 2282.74 Z" fill="#000000" fill-rule="nonzero" fill-opacity="1" /><path clip-path="url(#clip850)" d="M1919.06 2281.78 L1924.38 2281.78 L1924.38 2314.19 L1919.06 2314.19 L1919.06 2281.78 M1919.06 2269.16 L1924.38 2269.16 L1924.38 2275.91 L1919.06 2275.91 L1919.06 2269.16 Z" fill="#000000" fill-rule="nonzero" fill-opacity="1" /><path clip-path="url(#clip850)" d="M1933.21 2281.78 L1958.5 2281.78 L1958.5 2286.64 L1938.47 2309.93 L1958.5 2309.93 L1958.5 2314.19 L1932.48 2314.19 L1932.48 2309.33 L1952.51 2286.03 L1933.21 2286.03 L1933.21 2281.78 Z" fill="#000000" fill-rule="nonzero" fill-opacity="1" /><path clip-path="url(#clip850)" d="M1994.35 2296.65 L1994.35 2299.26 L1969.87 2299.26 Q1970.21 2304.75 1973.17 2307.65 Q1976.15 2310.51 1981.44 2310.51 Q1984.51 2310.51 1987.37 2309.76 Q1990.27 2309.01 1993.1 2307.5 L1993.1 2312.54 Q1990.24 2313.75 1987.23 2314.39 Q1984.22 2315.03 1981.12 2315.03 Q1973.37 2315.03 1968.83 2310.51 Q1964.31 2306 1964.31 2298.3 Q1964.31 2290.35 1968.59 2285.69 Q1972.91 2281 1980.2 2281 Q1986.74 2281 1990.53 2285.22 Q1994.35 2289.42 1994.35 2296.65 M1989.02 2295.09 Q1988.96 2290.72 1986.56 2288.12 Q1984.19 2285.51 1980.26 2285.51 Q1975.8 2285.51 1973.11 2288.03 Q1970.45 2290.55 1970.04 2295.12 L1989.02 2295.09 Z" fill="#000000" fill-rule="nonzero" fill-opacity="1" /><path clip-path="url(#clip850)" d="M2022.15 2270.99 L2030.02 2270.99 L2049.18 2307.13 L2049.18 2270.99 L2054.85 2270.99 L2054.85 2314.19 L2046.98 2314.19 L2027.82 2278.05 L2027.82 2314.19 L2022.15 2314.19 L2022.15 2270.99 Z" fill="#000000" fill-rule="nonzero" fill-opacity="1" /><polyline clip-path="url(#clip850)" style="stroke:#000000; stroke-linecap:round; stroke-linejoin:round; stroke-width:4; stroke-opacity:1; fill:none" points="244.821,2156.51 244.821,246.944 "/>
<polyline clip-path="url(#clip850)" style="stroke:#000000; stroke-linecap:round; stroke-linejoin:round; stroke-width:4; stroke-opacity:1; fill:none" points="244.821,2114.83 263.719,2114.83 "/>
<polyline clip-path="url(#clip850)" style="stroke:#000000; stroke-linecap:round; stroke-linejoin:round; stroke-width:4; stroke-opacity:1; fill:none" points="244.821,1647.8 263.719,1647.8 "/>
<polyline clip-path="url(#clip850)" style="stroke:#000000; stroke-linecap:round; stroke-linejoin:round; stroke-width:4; stroke-opacity:1; fill:none" points="244.821,1180.78 263.719,1180.78 "/>
<polyline clip-path="url(#clip850)" style="stroke:#000000; stroke-linecap:round; stroke-linejoin:round; stroke-width:4; stroke-opacity:1; fill:none" points="244.821,713.75 263.719,713.75 "/>
<path clip-path="url(#clip850)" d="M178.877 2100.63 Q175.266 2100.63 173.437 2104.2 Q171.631 2107.74 171.631 2114.87 Q171.631 2121.97 173.437 2125.54 Q175.266 2129.08 178.877 2129.08 Q182.511 2129.08 184.316 2125.54 Q186.145 2121.97 186.145 2114.87 Q186.145 2107.74 184.316 2104.2 Q182.511 2100.63 178.877 2100.63 M178.877 2096.93 Q184.687 2096.93 187.742 2101.53 Q190.821 2106.12 190.821 2114.87 Q190.821 2123.59 187.742 2128.2 Q184.687 2132.78 178.877 2132.78 Q173.067 2132.78 169.988 2128.2 Q166.932 2123.59 166.932 2114.87 Q166.932 2106.12 169.988 2101.53 Q173.067 2096.93 178.877 2096.93 Z" fill="#000000" fill-rule="nonzero" fill-opacity="1" /><path clip-path="url(#clip850)" d="M170.914 1661.15 L178.553 1661.15 L178.553 1634.78 L170.242 1636.45 L170.242 1632.19 L178.506 1630.52 L183.182 1630.52 L183.182 1661.15 L190.821 1661.15 L190.821 1665.08 L170.914 1665.08 L170.914 1661.15 Z" fill="#000000" fill-rule="nonzero" fill-opacity="1" /><path clip-path="url(#clip850)" d="M174.502 1194.12 L190.821 1194.12 L190.821 1198.06 L168.877 1198.06 L168.877 1194.12 Q171.539 1191.37 176.122 1186.74 Q180.729 1182.09 181.909 1180.74 Q184.154 1178.22 185.034 1176.48 Q185.937 1174.72 185.937 1173.03 Q185.937 1170.28 183.992 1168.54 Q182.071 1166.81 178.969 1166.81 Q176.77 1166.81 174.317 1167.57 Q171.886 1168.34 169.108 1169.89 L169.108 1165.16 Q171.932 1164.03 174.386 1163.45 Q176.84 1162.87 178.877 1162.87 Q184.247 1162.87 187.441 1165.56 Q190.636 1168.24 190.636 1172.73 Q190.636 1174.86 189.826 1176.78 Q189.039 1178.68 186.932 1181.28 Q186.353 1181.95 183.252 1185.16 Q180.15 1188.36 174.502 1194.12 Z" fill="#000000" fill-rule="nonzero" fill-opacity="1" /><path clip-path="url(#clip850)" d="M183.691 712.396 Q187.048 713.114 188.923 715.382 Q190.821 717.651 190.821 720.984 Q190.821 726.1 187.303 728.9 Q183.784 731.701 177.303 731.701 Q175.127 731.701 172.812 731.262 Q170.52 730.845 168.067 729.988 L168.067 725.475 Q170.011 726.609 172.326 727.188 Q174.641 727.766 177.164 727.766 Q181.562 727.766 183.853 726.03 Q186.168 724.294 186.168 720.984 Q186.168 717.928 184.016 716.215 Q181.886 714.479 178.066 714.479 L174.039 714.479 L174.039 710.637 L178.252 710.637 Q181.701 710.637 183.529 709.271 Q185.358 707.882 185.358 705.29 Q185.358 702.627 183.46 701.215 Q181.585 699.78 178.066 699.78 Q176.145 699.78 173.946 700.197 Q171.747 700.614 169.108 701.493 L169.108 697.327 Q171.77 696.586 174.085 696.215 Q176.423 695.845 178.483 695.845 Q183.807 695.845 186.909 698.276 Q190.011 700.683 190.011 704.803 Q190.011 707.674 188.367 709.664 Q186.724 711.632 183.691 712.396 Z" fill="#000000" fill-rule="nonzero" fill-opacity="1" /><path clip-path="url(#clip850)" d="M58.1901 1374.69 L63.8903 1374.69 Q62.2989 1378.01 61.5176 1380.96 Q60.7364 1383.92 60.7364 1386.66 Q60.7364 1391.44 62.5882 1394.04 Q64.4401 1396.62 67.8544 1396.62 Q70.719 1396.62 72.1947 1394.91 Q73.6414 1393.17 74.5384 1388.37 L75.2618 1384.84 Q76.506 1378.3 79.6599 1375.21 Q82.7849 1372.08 88.0511 1372.08 Q94.33 1372.08 97.5707 1376.31 Q100.811 1380.5 100.811 1388.63 Q100.811 1391.7 100.117 1395.17 Q99.4225 1398.61 98.0626 1402.32 L92.0441 1402.32 Q94.0406 1398.76 95.0533 1395.34 Q96.0661 1391.93 96.0661 1388.63 Q96.0661 1383.63 94.0985 1380.91 Q92.1309 1378.19 88.4851 1378.19 Q85.3022 1378.19 83.5083 1380.15 Q81.7143 1382.09 80.8173 1386.55 L80.1229 1390.11 Q78.8208 1396.65 76.043 1399.57 Q73.2653 1402.49 68.3174 1402.49 Q62.5882 1402.49 59.2896 1398.47 Q55.991 1394.42 55.991 1387.33 Q55.991 1384.29 56.5408 1381.14 Q57.0906 1377.98 58.1901 1374.69 Z" fill="#000000" fill-rule="nonzero" fill-opacity="1" /><path clip-path="url(#clip850)" d="M71.2977 1350.64 Q71.2977 1354.92 74.6541 1357.41 Q77.9817 1359.9 83.7976 1359.9 Q89.6135 1359.9 92.97 1357.44 Q96.2975 1354.95 96.2975 1350.64 Q96.2975 1346.39 92.9411 1343.9 Q89.5846 1341.41 83.7976 1341.41 Q78.0395 1341.41 74.6831 1343.9 Q71.2977 1346.39 71.2977 1350.64 M66.7838 1350.64 Q66.7838 1343.7 71.2977 1339.73 Q75.8115 1335.77 83.7976 1335.77 Q91.7547 1335.77 96.2975 1339.73 Q100.811 1343.7 100.811 1350.64 Q100.811 1357.61 96.2975 1361.58 Q91.7547 1365.51 83.7976 1365.51 Q75.8115 1365.51 71.2977 1361.58 Q66.7838 1357.61 66.7838 1350.64 Z" fill="#000000" fill-rule="nonzero" fill-opacity="1" /><path clip-path="url(#clip850)" d="M54.9494 1326.94 L54.9494 1321.62 L99.9723 1321.62 L99.9723 1326.94 L54.9494 1326.94 Z" fill="#000000" fill-rule="nonzero" fill-opacity="1" /><path clip-path="url(#clip850)" d="M67.565 1314.3 L67.565 1308.66 L94.764 1298.53 L67.565 1288.4 L67.565 1282.76 L99.9723 1294.91 L99.9723 1302.15 L67.565 1314.3 Z" fill="#000000" fill-rule="nonzero" fill-opacity="1" /><path clip-path="url(#clip850)" d="M82.4377 1247.69 L85.0418 1247.69 L85.0418 1272.17 Q90.5395 1271.82 93.433 1268.87 Q96.2975 1265.89 96.2975 1260.59 Q96.2975 1257.53 95.5452 1254.66 Q94.7929 1251.77 93.2883 1248.93 L98.323 1248.93 Q99.5383 1251.8 100.175 1254.81 Q100.811 1257.82 100.811 1260.91 Q100.811 1268.67 96.2975 1273.21 Q91.7837 1277.72 84.087 1277.72 Q76.1298 1277.72 71.4713 1273.44 Q66.7838 1269.13 66.7838 1261.84 Q66.7838 1255.3 71.0083 1251.51 Q75.2039 1247.69 82.4377 1247.69 M80.8752 1253.01 Q76.506 1253.07 73.9018 1255.47 Q71.2977 1257.85 71.2977 1261.78 Q71.2977 1266.24 73.815 1268.93 Q76.3324 1271.59 80.9041 1271.99 L80.8752 1253.01 Z" fill="#000000" fill-rule="nonzero" fill-opacity="1" /><path clip-path="url(#clip850)" d="M58.3637 1214.85 L67.565 1214.85 L67.565 1203.88 L71.7028 1203.88 L71.7028 1214.85 L89.2953 1214.85 Q93.2594 1214.85 94.3878 1213.78 Q95.5163 1212.68 95.5163 1209.35 L95.5163 1203.88 L99.9723 1203.88 L99.9723 1209.35 Q99.9723 1215.51 97.6864 1217.86 Q95.3716 1220.2 89.2953 1220.2 L71.7028 1220.2 L71.7028 1224.11 L67.565 1224.11 L67.565 1220.2 L58.3637 1220.2 L58.3637 1214.85 Z" fill="#000000" fill-rule="nonzero" fill-opacity="1" /><path clip-path="url(#clip850)" d="M67.565 1196.88 L67.565 1191.56 L99.9723 1191.56 L99.9723 1196.88 L67.565 1196.88 M54.9494 1196.88 L54.9494 1191.56 L61.6912 1191.56 L61.6912 1196.88 L54.9494 1196.88 Z" fill="#000000" fill-rule="nonzero" fill-opacity="1" /><path clip-path="url(#clip850)" d="M73.7861 1155.18 Q70.1981 1153.19 68.491 1150.41 Q66.7838 1147.63 66.7838 1143.87 Q66.7838 1138.81 70.3428 1136.06 Q73.8729 1133.31 80.4122 1133.31 L99.9723 1133.31 L99.9723 1138.66 L80.5858 1138.66 Q75.9273 1138.66 73.6703 1140.31 Q71.4134 1141.96 71.4134 1145.35 Q71.4134 1149.48 74.1622 1151.89 Q76.9111 1154.29 81.6564 1154.29 L99.9723 1154.29 L99.9723 1159.64 L80.5858 1159.64 Q75.8983 1159.64 73.6703 1161.29 Q71.4134 1162.94 71.4134 1166.38 Q71.4134 1170.46 74.1912 1172.86 Q76.94 1175.26 81.6564 1175.26 L99.9723 1175.26 L99.9723 1180.62 L67.565 1180.62 L67.565 1175.26 L72.5997 1175.26 Q69.6194 1173.44 68.2016 1170.9 Q66.7838 1168.35 66.7838 1164.85 Q66.7838 1161.32 68.5778 1158.86 Q70.3717 1156.37 73.7861 1155.18 Z" fill="#000000" fill-rule="nonzero" fill-opacity="1" /><path clip-path="url(#clip850)" d="M82.4377 1094.97 L85.0418 1094.97 L85.0418 1119.45 Q90.5395 1119.1 93.433 1116.15 Q96.2975 1113.17 96.2975 1107.88 Q96.2975 1104.81 95.5452 1101.94 Q94.7929 1099.05 93.2883 1096.21 L98.323 1096.21 Q99.5383 1099.08 100.175 1102.09 Q100.811 1105.1 100.811 1108.19 Q100.811 1115.95 96.2975 1120.49 Q91.7837 1125 84.087 1125 Q76.1298 1125 71.4713 1120.72 Q66.7838 1116.41 66.7838 1109.12 Q66.7838 1102.58 71.0083 1098.79 Q75.2039 1094.97 82.4377 1094.97 M80.8752 1100.29 Q76.506 1100.35 73.9018 1102.75 Q71.2977 1105.13 71.2977 1109.06 Q71.2977 1113.52 73.815 1116.21 Q76.3324 1118.87 80.9041 1119.28 L80.8752 1100.29 Z" fill="#000000" fill-rule="nonzero" fill-opacity="1" /><path clip-path="url(#clip850)" d="M55.0072 1054.61 Q61.6623 1058.48 68.1727 1060.36 Q74.6831 1062.24 81.3671 1062.24 Q88.0511 1062.24 94.6193 1060.36 Q101.159 1058.45 107.785 1054.61 L107.785 1059.24 Q100.985 1063.58 94.4168 1065.75 Q87.8485 1067.89 81.3671 1067.89 Q74.9145 1067.89 68.3752 1065.75 Q61.8359 1063.6 55.0072 1059.24 L55.0072 1054.61 Z" fill="#000000" fill-rule="nonzero" fill-opacity="1" /><path clip-path="url(#clip850)" d="M68.5199 1023.62 L73.5546 1023.62 Q72.3972 1025.87 71.8185 1028.3 Q71.2398 1030.73 71.2398 1033.34 Q71.2398 1037.3 72.4551 1039.3 Q73.6703 1041.27 76.1009 1041.27 Q77.9527 1041.27 79.0233 1039.85 Q80.065 1038.43 81.0198 1034.15 L81.4249 1032.33 Q82.6402 1026.65 84.8682 1024.28 Q87.0673 1021.88 91.0314 1021.88 Q95.5452 1021.88 98.1783 1025.47 Q100.811 1029.03 100.811 1035.28 Q100.811 1037.88 100.291 1040.72 Q99.7987 1043.52 98.7859 1046.65 L93.2883 1046.65 Q94.8218 1043.7 95.6031 1040.83 Q96.3554 1037.97 96.3554 1035.16 Q96.3554 1031.4 95.0823 1029.37 Q93.7802 1027.35 91.4364 1027.35 Q89.2663 1027.35 88.1089 1028.82 Q86.9515 1030.27 85.8809 1035.22 L85.4469 1037.07 Q84.4052 1042.02 82.264 1044.22 Q80.0939 1046.42 76.3324 1046.42 Q71.7606 1046.42 69.2722 1043.18 Q66.7838 1039.94 66.7838 1033.98 Q66.7838 1031.02 67.2178 1028.42 Q67.6519 1025.82 68.5199 1023.62 Z" fill="#000000" fill-rule="nonzero" fill-opacity="1" /><path clip-path="url(#clip850)" d="M55.0072 1014.24 L55.0072 1009.61 Q61.8359 1005.27 68.3752 1003.13 Q74.9145 1000.96 81.3671 1000.96 Q87.8485 1000.96 94.4168 1003.13 Q100.985 1005.27 107.785 1009.61 L107.785 1014.24 Q101.159 1010.39 94.6193 1008.51 Q88.0511 1006.6 81.3671 1006.6 Q74.6831 1006.6 68.1727 1008.51 Q61.6623 1010.39 55.0072 1014.24 Z" fill="#000000" fill-rule="nonzero" fill-opacity="1" /><path clip-path="url(#clip850)" d="M1238.65 125.969 L1238.65 133.949 Q1233.99 131.721 1229.86 130.627 Q1225.73 129.534 1221.88 129.534 Q1215.2 129.534 1211.55 132.126 Q1207.95 134.719 1207.95 139.499 Q1207.95 143.509 1210.34 145.575 Q1212.77 147.601 1219.49 148.857 L1224.43 149.869 Q1233.59 151.611 1237.92 156.027 Q1242.3 160.402 1242.3 167.774 Q1242.3 176.565 1236.38 181.102 Q1230.51 185.639 1219.13 185.639 Q1214.83 185.639 1209.97 184.667 Q1205.15 183.694 1199.97 181.79 L1199.97 173.365 Q1204.95 176.16 1209.73 177.577 Q1214.51 178.995 1219.13 178.995 Q1226.14 178.995 1229.94 176.241 Q1233.75 173.486 1233.75 168.382 Q1233.75 163.926 1231 161.414 Q1228.28 158.903 1222.04 157.647 L1217.06 156.675 Q1207.91 154.852 1203.82 150.963 Q1199.72 147.074 1199.72 140.147 Q1199.72 132.126 1205.35 127.508 Q1211.03 122.89 1220.95 122.89 Q1225.2 122.89 1229.62 123.66 Q1234.04 124.43 1238.65 125.969 Z" fill="#000000" fill-rule="nonzero" fill-opacity="1" /><path clip-path="url(#clip850)" d="M1272.32 144.32 Q1266.32 144.32 1262.84 149.019 Q1259.35 153.677 1259.35 161.819 Q1259.35 169.962 1262.8 174.661 Q1266.28 179.319 1272.32 179.319 Q1278.27 179.319 1281.75 174.62 Q1285.24 169.921 1285.24 161.819 Q1285.24 153.758 1281.75 149.059 Q1278.27 144.32 1272.32 144.32 M1272.32 138 Q1282.04 138 1287.59 144.32 Q1293.14 150.639 1293.14 161.819 Q1293.14 172.959 1287.59 179.319 Q1282.04 185.639 1272.32 185.639 Q1262.55 185.639 1257 179.319 Q1251.49 172.959 1251.49 161.819 Q1251.49 150.639 1257 144.32 Q1262.55 138 1272.32 138 Z" fill="#000000" fill-rule="nonzero" fill-opacity="1" /><path clip-path="url(#clip850)" d="M1305.49 121.432 L1312.95 121.432 L1312.95 184.464 L1305.49 184.464 L1305.49 121.432 Z" fill="#000000" fill-rule="nonzero" fill-opacity="1" /><path clip-path="url(#clip850)" d="M1323.2 139.094 L1331.09 139.094 L1345.27 177.172 L1359.45 139.094 L1367.35 139.094 L1350.34 184.464 L1340.21 184.464 L1323.2 139.094 Z" fill="#000000" fill-rule="nonzero" fill-opacity="1" /><path clip-path="url(#clip850)" d="M1416.45 159.916 L1416.45 163.561 L1382.18 163.561 Q1382.66 171.258 1386.79 175.309 Q1390.97 179.319 1398.38 179.319 Q1402.67 179.319 1406.68 178.266 Q1410.74 177.213 1414.71 175.106 L1414.71 182.155 Q1410.7 183.856 1406.48 184.748 Q1402.27 185.639 1397.93 185.639 Q1387.08 185.639 1380.72 179.319 Q1374.4 173 1374.4 162.225 Q1374.4 151.085 1380.39 144.563 Q1386.43 138 1396.64 138 Q1405.79 138 1411.1 143.914 Q1416.45 149.788 1416.45 159.916 M1408.99 157.728 Q1408.91 151.611 1405.55 147.965 Q1402.23 144.32 1396.72 144.32 Q1390.48 144.32 1386.71 147.844 Q1382.99 151.368 1382.42 157.769 L1408.99 157.728 Z" fill="#000000" fill-rule="nonzero" fill-opacity="1" /><path clip-path="url(#clip850)" d="M1462.43 126.212 L1462.43 139.094 L1477.78 139.094 L1477.78 144.887 L1462.43 144.887 L1462.43 169.516 Q1462.43 175.066 1463.92 176.646 Q1465.46 178.226 1470.12 178.226 L1477.78 178.226 L1477.78 184.464 L1470.12 184.464 Q1461.49 184.464 1458.21 181.264 Q1454.93 178.023 1454.93 169.516 L1454.93 144.887 L1449.46 144.887 L1449.46 139.094 L1454.93 139.094 L1454.93 126.212 L1462.43 126.212 Z" fill="#000000" fill-rule="nonzero" fill-opacity="1" /><path clip-path="url(#clip850)" d="M1487.58 139.094 L1495.03 139.094 L1495.03 184.464 L1487.58 184.464 L1487.58 139.094 M1487.58 121.432 L1495.03 121.432 L1495.03 130.871 L1487.58 130.871 L1487.58 121.432 Z" fill="#000000" fill-rule="nonzero" fill-opacity="1" /><path clip-path="url(#clip850)" d="M1545.95 147.803 Q1548.75 142.78 1552.64 140.39 Q1556.53 138 1561.79 138 Q1568.88 138 1572.73 142.983 Q1576.58 147.925 1576.58 157.08 L1576.58 184.464 L1569.09 184.464 L1569.09 157.323 Q1569.09 150.801 1566.78 147.641 Q1564.47 144.482 1559.73 144.482 Q1553.93 144.482 1550.57 148.33 Q1547.21 152.178 1547.21 158.822 L1547.21 184.464 L1539.72 184.464 L1539.72 157.323 Q1539.72 150.76 1537.41 147.641 Q1535.1 144.482 1530.28 144.482 Q1524.57 144.482 1521.2 148.37 Q1517.84 152.219 1517.84 158.822 L1517.84 184.464 L1510.35 184.464 L1510.35 139.094 L1517.84 139.094 L1517.84 146.142 Q1520.39 141.97 1523.96 139.985 Q1527.52 138 1532.42 138 Q1537.37 138 1540.81 140.512 Q1544.29 143.023 1545.95 147.803 Z" fill="#000000" fill-rule="nonzero" fill-opacity="1" /><path clip-path="url(#clip850)" d="M1630.25 159.916 L1630.25 163.561 L1595.98 163.561 Q1596.47 171.258 1600.6 175.309 Q1604.77 179.319 1612.19 179.319 Q1616.48 179.319 1620.49 178.266 Q1624.54 177.213 1628.51 175.106 L1628.51 182.155 Q1624.5 183.856 1620.29 184.748 Q1616.08 185.639 1611.74 185.639 Q1600.88 185.639 1594.53 179.319 Q1588.21 173 1588.21 162.225 Q1588.21 151.085 1594.2 144.563 Q1600.24 138 1610.45 138 Q1619.6 138 1624.91 143.914 Q1630.25 149.788 1630.25 159.916 M1622.8 157.728 Q1622.72 151.611 1619.36 147.965 Q1616.04 144.32 1610.53 144.32 Q1604.29 144.32 1600.52 147.844 Q1596.79 151.368 1596.23 157.769 L1622.8 157.728 Z" fill="#000000" fill-rule="nonzero" fill-opacity="1" /><path clip-path="url(#clip850)" d="M1663.51 139.094 L1671.41 139.094 L1685.59 177.172 L1699.77 139.094 L1707.67 139.094 L1690.65 184.464 L1680.53 184.464 L1663.51 139.094 Z" fill="#000000" fill-rule="nonzero" fill-opacity="1" /><path clip-path="url(#clip850)" d="M1746.88 140.431 L1746.88 147.479 Q1743.72 145.859 1740.32 145.049 Q1736.91 144.239 1733.27 144.239 Q1727.72 144.239 1724.92 145.94 Q1722.17 147.641 1722.17 151.044 Q1722.17 153.637 1724.15 155.135 Q1726.14 156.594 1732.13 157.931 L1734.69 158.498 Q1742.63 160.199 1745.95 163.318 Q1749.31 166.397 1749.31 171.947 Q1749.31 178.266 1744.29 181.952 Q1739.3 185.639 1730.55 185.639 Q1726.91 185.639 1722.94 184.91 Q1719.01 184.221 1714.63 182.803 L1714.63 175.106 Q1718.77 177.253 1722.78 178.347 Q1726.79 179.4 1730.72 179.4 Q1735.98 179.4 1738.82 177.618 Q1741.65 175.795 1741.65 172.514 Q1741.65 169.476 1739.59 167.855 Q1737.56 166.235 1730.64 164.736 L1728.04 164.128 Q1721.12 162.67 1718.04 159.672 Q1714.96 156.634 1714.96 151.368 Q1714.96 144.968 1719.5 141.484 Q1724.03 138 1732.38 138 Q1736.51 138 1740.16 138.608 Q1743.8 139.215 1746.88 140.431 Z" fill="#000000" fill-rule="nonzero" fill-opacity="1" /><path clip-path="url(#clip850)" d="M1817.41 161.252 Q1817.41 153.151 1814.04 148.695 Q1810.72 144.239 1804.69 144.239 Q1798.69 144.239 1795.33 148.695 Q1792.01 153.151 1792.01 161.252 Q1792.01 169.314 1795.33 173.77 Q1798.69 178.226 1804.69 178.226 Q1810.72 178.226 1814.04 173.77 Q1817.41 169.314 1817.41 161.252 M1824.86 178.833 Q1824.86 190.419 1819.71 196.05 Q1814.57 201.721 1803.96 201.721 Q1800.03 201.721 1796.54 201.113 Q1793.06 200.546 1789.78 199.331 L1789.78 192.08 Q1793.06 193.862 1796.26 194.713 Q1799.46 195.563 1802.78 195.563 Q1810.11 195.563 1813.76 191.715 Q1817.41 187.907 1817.41 180.17 L1817.41 176.484 Q1815.1 180.494 1811.49 182.479 Q1807.89 184.464 1802.86 184.464 Q1794.52 184.464 1789.41 178.104 Q1784.31 171.744 1784.31 161.252 Q1784.31 150.72 1789.41 144.36 Q1794.52 138 1802.86 138 Q1807.89 138 1811.49 139.985 Q1815.1 141.97 1817.41 145.98 L1817.41 139.094 L1824.86 139.094 L1824.86 178.833 Z" fill="#000000" fill-rule="nonzero" fill-opacity="1" /><path clip-path="url(#clip850)" d="M1866.5 146.061 Q1865.25 145.332 1863.75 145.008 Q1862.29 144.644 1860.51 144.644 Q1854.19 144.644 1850.79 148.776 Q1847.42 152.867 1847.42 160.564 L1847.42 184.464 L1839.93 184.464 L1839.93 139.094 L1847.42 139.094 L1847.42 146.142 Q1849.77 142.011 1853.54 140.026 Q1857.31 138 1862.69 138 Q1863.46 138 1864.4 138.122 Q1865.33 138.203 1866.46 138.405 L1866.5 146.061 Z" fill="#000000" fill-rule="nonzero" fill-opacity="1" /><path clip-path="url(#clip850)" d="M1874.32 139.094 L1881.77 139.094 L1881.77 184.464 L1874.32 184.464 L1874.32 139.094 M1874.32 121.432 L1881.77 121.432 L1881.77 130.871 L1874.32 130.871 L1874.32 121.432 Z" fill="#000000" fill-rule="nonzero" fill-opacity="1" /><path clip-path="url(#clip850)" d="M1927.23 145.98 L1927.23 121.432 L1934.68 121.432 L1934.68 184.464 L1927.23 184.464 L1927.23 177.658 Q1924.88 181.709 1921.27 183.694 Q1917.71 185.639 1912.68 185.639 Q1904.46 185.639 1899.27 179.076 Q1894.13 172.514 1894.13 161.819 Q1894.13 151.125 1899.27 144.563 Q1904.46 138 1912.68 138 Q1917.71 138 1921.27 139.985 Q1924.88 141.93 1927.23 145.98 M1901.83 161.819 Q1901.83 170.043 1905.19 174.742 Q1908.59 179.4 1914.51 179.4 Q1920.42 179.4 1923.82 174.742 Q1927.23 170.043 1927.23 161.819 Q1927.23 153.596 1923.82 148.938 Q1920.42 144.239 1914.51 144.239 Q1908.59 144.239 1905.19 148.938 Q1901.83 153.596 1901.83 161.819 Z" fill="#000000" fill-rule="nonzero" fill-opacity="1" /><path clip-path="url(#clip850)" d="M2005.33 140.431 L2005.33 147.479 Q2002.17 145.859 1998.76 145.049 Q1995.36 144.239 1991.72 144.239 Q1986.17 144.239 1983.37 145.94 Q1980.62 147.641 1980.62 151.044 Q1980.62 153.637 1982.6 155.135 Q1984.59 156.594 1990.58 157.931 L1993.13 158.498 Q2001.07 160.199 2004.4 163.318 Q2007.76 166.397 2007.76 171.947 Q2007.76 178.266 2002.73 181.952 Q1997.75 185.639 1989 185.639 Q1985.36 185.639 1981.39 184.91 Q1977.46 184.221 1973.08 182.803 L1973.08 175.106 Q1977.21 177.253 1981.22 178.347 Q1985.23 179.4 1989.16 179.4 Q1994.43 179.4 1997.27 177.618 Q2000.1 175.795 2000.1 172.514 Q2000.1 169.476 1998.04 167.855 Q1996.01 166.235 1989.08 164.736 L1986.49 164.128 Q1979.56 162.67 1976.48 159.672 Q1973.41 156.634 1973.41 151.368 Q1973.41 144.968 1977.94 141.484 Q1982.48 138 1990.83 138 Q1994.96 138 1998.6 138.608 Q2002.25 139.215 2005.33 140.431 Z" fill="#000000" fill-rule="nonzero" fill-opacity="1" /><path clip-path="url(#clip850)" d="M2019.63 139.094 L2027.08 139.094 L2027.08 184.464 L2019.63 184.464 L2019.63 139.094 M2019.63 121.432 L2027.08 121.432 L2027.08 130.871 L2019.63 130.871 L2019.63 121.432 Z" fill="#000000" fill-rule="nonzero" fill-opacity="1" /><path clip-path="url(#clip850)" d="M2039.44 139.094 L2074.84 139.094 L2074.84 145.899 L2046.81 178.509 L2074.84 178.509 L2074.84 184.464 L2038.42 184.464 L2038.42 177.658 L2066.46 145.049 L2039.44 145.049 L2039.44 139.094 Z" fill="#000000" fill-rule="nonzero" fill-opacity="1" /><path clip-path="url(#clip850)" d="M2125.03 159.916 L2125.03 163.561 L2090.76 163.561 Q2091.25 171.258 2095.38 175.309 Q2099.55 179.319 2106.96 179.319 Q2111.26 179.319 2115.27 178.266 Q2119.32 177.213 2123.29 175.106 L2123.29 182.155 Q2119.28 183.856 2115.07 184.748 Q2110.85 185.639 2106.52 185.639 Q2095.66 185.639 2089.3 179.319 Q2082.98 173 2082.98 162.225 Q2082.98 151.085 2088.98 144.563 Q2095.01 138 2105.22 138 Q2114.38 138 2119.68 143.914 Q2125.03 149.788 2125.03 159.916 M2117.58 157.728 Q2117.5 151.611 2114.13 147.965 Q2110.81 144.32 2105.3 144.32 Q2099.07 144.32 2095.3 147.844 Q2091.57 151.368 2091 157.769 L2117.58 157.728 Z" fill="#000000" fill-rule="nonzero" fill-opacity="1" /><path clip-path="url(#clip850)" d="M2159.87 158.822 L2234.73 158.822 L2234.73 164.655 L2159.87 164.655 L2159.87 158.822 Z" fill="#000000" fill-rule="nonzero" fill-opacity="1" /><path clip-path="url(#clip850)" d="M2301.89 140.431 L2301.89 147.479 Q2298.73 145.859 2295.33 145.049 Q2291.93 144.239 2288.28 144.239 Q2282.73 144.239 2279.94 145.94 Q2277.18 147.641 2277.18 151.044 Q2277.18 153.637 2279.17 155.135 Q2281.15 156.594 2287.15 157.931 L2289.7 158.498 Q2297.64 160.199 2300.96 163.318 Q2304.32 166.397 2304.32 171.947 Q2304.32 178.266 2299.3 181.952 Q2294.32 185.639 2285.57 185.639 Q2281.92 185.639 2277.95 184.91 Q2274.02 184.221 2269.65 182.803 L2269.65 175.106 Q2273.78 177.253 2277.79 178.347 Q2281.8 179.4 2285.73 179.4 Q2291 179.4 2293.83 177.618 Q2296.67 175.795 2296.67 172.514 Q2296.67 169.476 2294.6 167.855 Q2292.58 166.235 2285.65 164.736 L2283.06 164.128 Q2276.13 162.67 2273.05 159.672 Q2269.97 156.634 2269.97 151.368 Q2269.97 144.968 2274.51 141.484 Q2279.05 138 2287.39 138 Q2291.52 138 2295.17 138.608 Q2298.82 139.215 2301.89 140.431 Z" fill="#000000" fill-rule="nonzero" fill-opacity="1" /><path clip-path="url(#clip850)" d="M2323.57 126.212 L2323.57 139.094 L2338.92 139.094 L2338.92 144.887 L2323.57 144.887 L2323.57 169.516 Q2323.57 175.066 2325.07 176.646 Q2326.6 178.226 2331.26 178.226 L2338.92 178.226 L2338.92 184.464 L2331.26 184.464 Q2322.63 184.464 2319.35 181.264 Q2316.07 178.023 2316.07 169.516 L2316.07 144.887 L2310.6 144.887 L2310.6 139.094 L2316.07 139.094 L2316.07 126.212 L2323.57 126.212 Z" fill="#000000" fill-rule="nonzero" fill-opacity="1" /><path clip-path="url(#clip850)" d="M2387.53 159.916 L2387.53 163.561 L2353.26 163.561 Q2353.75 171.258 2357.88 175.309 Q2362.05 179.319 2369.46 179.319 Q2373.76 179.319 2377.77 178.266 Q2381.82 177.213 2385.79 175.106 L2385.79 182.155 Q2381.78 183.856 2377.56 184.748 Q2373.35 185.639 2369.02 185.639 Q2358.16 185.639 2351.8 179.319 Q2345.48 173 2345.48 162.225 Q2345.48 151.085 2351.48 144.563 Q2357.51 138 2367.72 138 Q2376.88 138 2382.18 143.914 Q2387.53 149.788 2387.53 159.916 M2380.08 157.728 Q2380 151.611 2376.63 147.965 Q2373.31 144.32 2367.8 144.32 Q2361.56 144.32 2357.8 147.844 Q2354.07 151.368 2353.5 157.769 L2380.08 157.728 Z" fill="#000000" fill-rule="nonzero" fill-opacity="1" /><path clip-path="url(#clip850)" d="M2438.57 159.916 L2438.57 163.561 L2404.3 163.561 Q2404.79 171.258 2408.92 175.309 Q2413.09 179.319 2420.5 179.319 Q2424.8 179.319 2428.81 178.266 Q2432.86 177.213 2436.83 175.106 L2436.83 182.155 Q2432.82 183.856 2428.61 184.748 Q2424.39 185.639 2420.06 185.639 Q2409.2 185.639 2402.84 179.319 Q2396.52 173 2396.52 162.225 Q2396.52 151.085 2402.52 144.563 Q2408.55 138 2418.76 138 Q2427.92 138 2433.22 143.914 Q2438.57 149.788 2438.57 159.916 M2431.12 157.728 Q2431.04 151.611 2427.67 147.965 Q2424.35 144.32 2418.84 144.32 Q2412.61 144.32 2408.84 147.844 Q2405.11 151.368 2404.54 157.769 L2431.12 157.728 Z" fill="#000000" fill-rule="nonzero" fill-opacity="1" /><path clip-path="url(#clip850)" d="M2477.1 146.061 Q2475.84 145.332 2474.34 145.008 Q2472.88 144.644 2471.1 144.644 Q2464.78 144.644 2461.38 148.776 Q2458.02 152.867 2458.02 160.564 L2458.02 184.464 L2450.52 184.464 L2450.52 139.094 L2458.02 139.094 L2458.02 146.142 Q2460.37 142.011 2464.13 140.026 Q2467.9 138 2473.29 138 Q2474.06 138 2474.99 138.122 Q2475.92 138.203 2477.06 138.405 L2477.1 146.061 Z" fill="#000000" fill-rule="nonzero" fill-opacity="1" /><path clip-path="url(#clip850)" d="M2484.91 139.094 L2492.37 139.094 L2492.37 184.464 L2484.91 184.464 L2484.91 139.094 M2484.91 121.432 L2492.37 121.432 L2492.37 130.871 L2484.91 130.871 L2484.91 121.432 Z" fill="#000000" fill-rule="nonzero" fill-opacity="1" /><path clip-path="url(#clip850)" d="M2545.68 157.08 L2545.68 184.464 L2538.22 184.464 L2538.22 157.323 Q2538.22 150.882 2535.71 147.682 Q2533.2 144.482 2528.18 144.482 Q2522.14 144.482 2518.66 148.33 Q2515.17 152.178 2515.17 158.822 L2515.17 184.464 L2507.68 184.464 L2507.68 139.094 L2515.17 139.094 L2515.17 146.142 Q2517.85 142.051 2521.45 140.026 Q2525.1 138 2529.84 138 Q2537.66 138 2541.67 142.861 Q2545.68 147.682 2545.68 157.08 Z" fill="#000000" fill-rule="nonzero" fill-opacity="1" /><path clip-path="url(#clip850)" d="M2590.4 161.252 Q2590.4 153.151 2587.04 148.695 Q2583.72 144.239 2577.68 144.239 Q2571.68 144.239 2568.32 148.695 Q2565 153.151 2565 161.252 Q2565 169.314 2568.32 173.77 Q2571.68 178.226 2577.68 178.226 Q2583.72 178.226 2587.04 173.77 Q2590.4 169.314 2590.4 161.252 M2597.85 178.833 Q2597.85 190.419 2592.71 196.05 Q2587.56 201.721 2576.95 201.721 Q2573.02 201.721 2569.54 201.113 Q2566.05 200.546 2562.77 199.331 L2562.77 192.08 Q2566.05 193.862 2569.25 194.713 Q2572.45 195.563 2575.78 195.563 Q2583.11 195.563 2586.75 191.715 Q2590.4 187.907 2590.4 180.17 L2590.4 176.484 Q2588.09 180.494 2584.49 182.479 Q2580.88 184.464 2575.86 184.464 Q2567.51 184.464 2562.41 178.104 Q2557.3 171.744 2557.3 161.252 Q2557.3 150.72 2562.41 144.36 Q2567.51 138 2575.86 138 Q2580.88 138 2584.49 139.985 Q2588.09 141.97 2590.4 145.98 L2590.4 139.094 L2597.85 139.094 L2597.85 178.833 Z" fill="#000000" fill-rule="nonzero" fill-opacity="1" /><polyline clip-path="url(#clip852)" style="stroke:#0000ff; stroke-linecap:round; stroke-linejoin:round; stroke-width:6; stroke-opacity:1; fill:none" points="371.078,2091.09 560.464,2039.72 876.106,1931.5 1507.39,1547.48 3401.25,300.989 "/>
<circle clip-path="url(#clip852)" cx="371.078" cy="2091.09" r="14.4" fill="#0000ff" fill-rule="evenodd" fill-opacity="1" stroke="none"/>
<circle clip-path="url(#clip852)" cx="560.464" cy="2039.72" r="14.4" fill="#0000ff" fill-rule="evenodd" fill-opacity="1" stroke="none"/>
<circle clip-path="url(#clip852)" cx="876.106" cy="1931.5" r="14.4" fill="#0000ff" fill-rule="evenodd" fill-opacity="1" stroke="none"/>
<circle clip-path="url(#clip852)" cx="1507.39" cy="1547.48" r="14.4" fill="#0000ff" fill-rule="evenodd" fill-opacity="1" stroke="none"/>
<circle clip-path="url(#clip852)" cx="3401.25" cy="300.989" r="14.4" fill="#0000ff" fill-rule="evenodd" fill-opacity="1" stroke="none"/>
<polyline clip-path="url(#clip852)" style="stroke:#008000; stroke-linecap:round; stroke-linejoin:round; stroke-width:6; stroke-opacity:1; fill:none" points="371.078,2093.84 560.464,2053.21 876.106,1947.93 1507.39,1665.29 3401.25,363.422 "/>
<path clip-path="url(#clip852)" d="M371.078 2077.84 L355.078 2093.84 L371.078 2109.84 L387.078 2093.84 L371.078 2077.84 Z" fill="#008000" fill-rule="evenodd" fill-opacity="1" stroke="none"/>
<path clip-path="url(#clip852)" d="M560.464 2037.21 L544.464 2053.21 L560.464 2069.21 L576.464 2053.21 L560.464 2037.21 Z" fill="#008000" fill-rule="evenodd" fill-opacity="1" stroke="none"/>
<path clip-path="url(#clip852)" d="M876.106 1931.93 L860.106 1947.93 L876.106 1963.93 L892.106 1947.93 L876.106 1931.93 Z" fill="#008000" fill-rule="evenodd" fill-opacity="1" stroke="none"/>
<path clip-path="url(#clip852)" d="M1507.39 1649.29 L1491.39 1665.29 L1507.39 1681.29 L1523.39 1665.29 L1507.39 1649.29 Z" fill="#008000" fill-rule="evenodd" fill-opacity="1" stroke="none"/>
<path clip-path="url(#clip852)" d="M3401.25 347.422 L3385.25 363.422 L3401.25 379.422 L3417.25 363.422 L3401.25 347.422 Z" fill="#008000" fill-rule="evenodd" fill-opacity="1" stroke="none"/>
<polyline clip-path="url(#clip852)" style="stroke:#ff0000; stroke-linecap:round; stroke-linejoin:round; stroke-width:6; stroke-opacity:1; fill:none" points="371.078,2100.03 560.464,2065.28 876.106,2008.02 1507.39,1817.05 3401.25,1191.71 "/>
<path clip-path="url(#clip852)" d="M355.078 2084.03 L355.078 2116.03 L387.078 2116.03 L387.078 2084.03 L355.078 2084.03 Z" fill="#ff0000" fill-rule="evenodd" fill-opacity="1" stroke="none"/>
<path clip-path="url(#clip852)" d="M544.464 2049.28 L544.464 2081.28 L576.464 2081.28 L576.464 2049.28 L544.464 2049.28 Z" fill="#ff0000" fill-rule="evenodd" fill-opacity="1" stroke="none"/>
<path clip-path="url(#clip852)" d="M860.106 1992.02 L860.106 2024.02 L892.106 2024.02 L892.106 1992.02 L860.106 1992.02 Z" fill="#ff0000" fill-rule="evenodd" fill-opacity="1" stroke="none"/>
<path clip-path="url(#clip852)" d="M1491.39 1801.05 L1491.39 1833.05 L1523.39 1833.05 L1523.39 1801.05 L1491.39 1801.05 Z" fill="#ff0000" fill-rule="evenodd" fill-opacity="1" stroke="none"/>
<path clip-path="url(#clip852)" d="M3385.25 1175.71 L3385.25 1207.71 L3417.25 1207.71 L3417.25 1175.71 L3385.25 1175.71 Z" fill="#ff0000" fill-rule="evenodd" fill-opacity="1" stroke="none"/>
<polyline clip-path="url(#clip852)" style="stroke:#ffa500; stroke-linecap:round; stroke-linejoin:round; stroke-width:6; stroke-opacity:1; fill:none" points="371.078,2102.46 560.464,2082.45 876.106,2043.04 1507.39,1916.9 3401.25,1506.79 "/>
<path clip-path="url(#clip852)" d="M371.078 2086.46 L355.078 2118.46 L387.078 2118.46 L371.078 2086.46 Z" fill="#ffa500" fill-rule="evenodd" fill-opacity="1" stroke="none"/>
<path clip-path="url(#clip852)" d="M560.464 2066.45 L544.464 2098.45 L576.464 2098.45 L560.464 2066.45 Z" fill="#ffa500" fill-rule="evenodd" fill-opacity="1" stroke="none"/>
<path clip-path="url(#clip852)" d="M876.106 2027.04 L860.106 2059.04 L892.106 2059.04 L876.106 2027.04 Z" fill="#ffa500" fill-rule="evenodd" fill-opacity="1" stroke="none"/>
<path clip-path="url(#clip852)" d="M1507.39 1900.9 L1491.39 1932.9 L1523.39 1932.9 L1507.39 1900.9 Z" fill="#ffa500" fill-rule="evenodd" fill-opacity="1" stroke="none"/>
<path clip-path="url(#clip852)" d="M3401.25 1490.79 L3385.25 1522.79 L3417.25 1522.79 L3401.25 1490.79 Z" fill="#ffa500" fill-rule="evenodd" fill-opacity="1" stroke="none"/>
<polyline clip-path="url(#clip852)" style="stroke:#800080; stroke-linecap:round; stroke-linejoin:round; stroke-width:6; stroke-opacity:1; fill:none" points="371.078,2096.29 560.464,2052.61 876.106,1968.94 1507.39,1678.06 3401.25,778.319 "/>
<path clip-path="url(#clip852)" d="M387.078 2080.29 L355.078 2080.29 L371.078 2112.29 L387.078 2080.29 Z" fill="#800080" fill-rule="evenodd" fill-opacity="1" stroke="none"/>
<path clip-path="url(#clip852)" d="M576.464 2036.61 L544.464 2036.61 L560.464 2068.61 L576.464 2036.61 Z" fill="#800080" fill-rule="evenodd" fill-opacity="1" stroke="none"/>
<path clip-path="url(#clip852)" d="M892.106 1952.94 L860.106 1952.94 L876.106 1984.94 L892.106 1952.94 Z" fill="#800080" fill-rule="evenodd" fill-opacity="1" stroke="none"/>
<path clip-path="url(#clip852)" d="M1523.39 1662.06 L1491.39 1662.06 L1507.39 1694.06 L1523.39 1662.06 Z" fill="#800080" fill-rule="evenodd" fill-opacity="1" stroke="none"/>
<path clip-path="url(#clip852)" d="M3417.25 762.319 L3385.25 762.319 L3401.25 794.319 L3417.25 762.319 Z" fill="#800080" fill-rule="evenodd" fill-opacity="1" stroke="none"/>
<polyline clip-path="url(#clip852)" style="stroke:#a52a2a; stroke-linecap:round; stroke-linejoin:round; stroke-width:6; stroke-opacity:1; fill:none" points="371.078,2095.32 560.464,2064.79 876.106,1999.82 1507.39,1780.63 3401.25,1025.57 "/>
<path clip-path="url(#clip852)" d="M371.078 2079.32 L367.318 2090.14 L355.862 2090.38 L364.998 2097.31 L361.67 2108.27 L371.078 2101.72 L380.486 2108.27 L377.158 2097.31 L386.294 2090.38 L374.838 2090.14 L371.078 2079.32 Z" fill="#a52a2a" fill-rule="evenodd" fill-opacity="1" stroke="none"/>
<path clip-path="url(#clip852)" d="M560.464 2048.79 L556.704 2059.6 L545.248 2059.84 L554.384 2066.77 L551.056 2077.73 L560.464 2071.19 L569.872 2077.73 L566.544 2066.77 L575.68 2059.84 L564.224 2059.6 L560.464 2048.79 Z" fill="#a52a2a" fill-rule="evenodd" fill-opacity="1" stroke="none"/>
<path clip-path="url(#clip852)" d="M876.106 1983.82 L872.346 1994.63 L860.89 1994.87 L870.026 2001.8 L866.698 2012.76 L876.106 2006.22 L885.514 2012.76 L882.186 2001.8 L891.322 1994.87 L879.866 1994.63 L876.106 1983.82 Z" fill="#a52a2a" fill-rule="evenodd" fill-opacity="1" stroke="none"/>
<path clip-path="url(#clip852)" d="M1507.39 1764.63 L1503.63 1775.45 L1492.18 1775.69 L1501.31 1782.61 L1497.98 1793.57 L1507.39 1787.03 L1516.8 1793.57 L1513.47 1782.61 L1522.61 1775.69 L1511.15 1775.45 L1507.39 1764.63 Z" fill="#a52a2a" fill-rule="evenodd" fill-opacity="1" stroke="none"/>
<path clip-path="url(#clip852)" d="M3401.25 1009.57 L3397.49 1020.39 L3386.03 1020.63 L3395.17 1027.56 L3391.84 1038.52 L3401.25 1031.97 L3410.66 1038.52 L3407.33 1027.56 L3416.46 1020.63 L3405.01 1020.39 L3401.25 1009.57 Z" fill="#a52a2a" fill-rule="evenodd" fill-opacity="1" stroke="none"/>
<path clip-path="url(#clip850)" d="M2741.63 2092.86 L3442.49 2092.86 L3442.49 1729.98 L2741.63 1729.98  Z" fill="#ffffff" fill-rule="evenodd" fill-opacity="1"/>
<polyline clip-path="url(#clip850)" style="stroke:#000000; stroke-linecap:round; stroke-linejoin:round; stroke-width:4; stroke-opacity:1; fill:none" points="2741.63,2092.86 3442.49,2092.86 3442.49,1729.98 2741.63,1729.98 2741.63,2092.86 "/>
<polyline clip-path="url(#clip850)" style="stroke:#0000ff; stroke-linecap:round; stroke-linejoin:round; stroke-width:6; stroke-opacity:1; fill:none" points="2778.39,1781.82 2998.91,1781.82 "/>
<circle clip-path="url(#clip850)" cx="2888.65" cy="1781.82" r="23.04" fill="#0000ff" fill-rule="evenodd" fill-opacity="1" stroke="none"/>
<path clip-path="url(#clip850)" d="M3046.29 1763.12 Q3043.19 1768.45 3041.69 1773.66 Q3040.18 1778.86 3040.18 1784.21 Q3040.18 1789.56 3041.69 1794.81 Q3043.22 1800.04 3046.29 1805.35 L3042.59 1805.35 Q3039.12 1799.91 3037.38 1794.65 Q3035.67 1789.4 3035.67 1784.21 Q3035.67 1779.05 3037.38 1773.82 Q3039.1 1768.59 3042.59 1763.12 L3046.29 1763.12 Z" fill="#000000" fill-rule="nonzero" fill-opacity="1" /><path clip-path="url(#clip850)" d="M3066.34 1786.06 Q3061.18 1786.06 3059.19 1787.24 Q3057.2 1788.42 3057.2 1791.27 Q3057.2 1793.54 3058.68 1794.88 Q3060.18 1796.2 3062.75 1796.2 Q3066.29 1796.2 3068.42 1793.7 Q3070.58 1791.18 3070.58 1787.01 L3070.58 1786.06 L3066.34 1786.06 M3074.84 1784.3 L3074.84 1799.1 L3070.58 1799.1 L3070.58 1795.16 Q3069.12 1797.52 3066.94 1798.66 Q3064.77 1799.77 3061.62 1799.77 Q3057.64 1799.77 3055.28 1797.54 Q3052.94 1795.3 3052.94 1791.55 Q3052.94 1787.17 3055.85 1784.95 Q3058.79 1782.73 3064.6 1782.73 L3070.58 1782.73 L3070.58 1782.31 Q3070.58 1779.37 3068.63 1777.78 Q3066.71 1776.16 3063.22 1776.16 Q3060.99 1776.16 3058.89 1776.69 Q3056.78 1777.22 3054.84 1778.29 L3054.84 1774.35 Q3057.17 1773.45 3059.37 1773.01 Q3061.57 1772.54 3063.66 1772.54 Q3069.28 1772.54 3072.06 1775.46 Q3074.84 1778.38 3074.84 1784.3 Z" fill="#000000" fill-rule="nonzero" fill-opacity="1" /><path clip-path="url(#clip850)" d="M3100.67 1777.1 L3100.67 1763.08 L3104.93 1763.08 L3104.93 1799.1 L3100.67 1799.1 L3100.67 1795.21 Q3099.33 1797.52 3097.27 1798.66 Q3095.23 1799.77 3092.36 1799.77 Q3087.66 1799.77 3084.7 1796.02 Q3081.76 1792.27 3081.76 1786.16 Q3081.76 1780.04 3084.7 1776.29 Q3087.66 1772.54 3092.36 1772.54 Q3095.23 1772.54 3097.27 1773.68 Q3099.33 1774.79 3100.67 1777.1 M3086.15 1786.16 Q3086.15 1790.85 3088.08 1793.54 Q3090.02 1796.2 3093.4 1796.2 Q3096.78 1796.2 3098.72 1793.54 Q3100.67 1790.85 3100.67 1786.16 Q3100.67 1781.46 3098.72 1778.79 Q3096.78 1776.11 3093.4 1776.11 Q3090.02 1776.11 3088.08 1778.79 Q3086.15 1781.46 3086.15 1786.16 Z" fill="#000000" fill-rule="nonzero" fill-opacity="1" /><path clip-path="url(#clip850)" d="M3135.25 1783.45 L3135.25 1799.1 L3130.99 1799.1 L3130.99 1783.59 Q3130.99 1779.91 3129.56 1778.08 Q3128.12 1776.25 3125.25 1776.25 Q3121.8 1776.25 3119.81 1778.45 Q3117.82 1780.65 3117.82 1784.44 L3117.82 1799.1 L3113.54 1799.1 L3113.54 1773.17 L3117.82 1773.17 L3117.82 1777.2 Q3119.35 1774.86 3121.41 1773.7 Q3123.49 1772.54 3126.2 1772.54 Q3130.67 1772.54 3132.96 1775.32 Q3135.25 1778.08 3135.25 1783.45 Z" fill="#000000" fill-rule="nonzero" fill-opacity="1" /><path clip-path="url(#clip850)" d="M3143.75 1763.08 L3148.01 1763.08 L3148.01 1799.1 L3143.75 1799.1 L3143.75 1763.08 Z" fill="#000000" fill-rule="nonzero" fill-opacity="1" /><path clip-path="url(#clip850)" d="M3161.04 1795.21 L3161.04 1808.96 L3156.76 1808.96 L3156.76 1773.17 L3161.04 1773.17 L3161.04 1777.1 Q3162.38 1774.79 3164.42 1773.68 Q3166.48 1772.54 3169.33 1772.54 Q3174.05 1772.54 3176.99 1776.29 Q3179.95 1780.04 3179.95 1786.16 Q3179.95 1792.27 3176.99 1796.02 Q3174.05 1799.77 3169.33 1799.77 Q3166.48 1799.77 3164.42 1798.66 Q3162.38 1797.52 3161.04 1795.21 M3175.53 1786.16 Q3175.53 1781.46 3173.59 1778.79 Q3171.66 1776.11 3168.28 1776.11 Q3164.9 1776.11 3162.96 1778.79 Q3161.04 1781.46 3161.04 1786.16 Q3161.04 1790.85 3162.96 1793.54 Q3164.9 1796.2 3168.28 1796.2 Q3171.66 1796.2 3173.59 1793.54 Q3175.53 1790.85 3175.53 1786.16 Z" fill="#000000" fill-rule="nonzero" fill-opacity="1" /><path clip-path="url(#clip850)" d="M3188.1 1793.22 L3192.98 1793.22 L3192.98 1797.2 L3189.19 1804.6 L3186.2 1804.6 L3188.1 1797.2 L3188.1 1793.22 Z" fill="#000000" fill-rule="nonzero" fill-opacity="1" /><path clip-path="url(#clip850)" d="M3217.15 1773.17 L3221.41 1773.17 L3221.41 1799.1 L3217.15 1799.1 L3217.15 1773.17 M3217.15 1763.08 L3221.41 1763.08 L3221.41 1768.47 L3217.15 1768.47 L3217.15 1763.08 Z" fill="#000000" fill-rule="nonzero" fill-opacity="1" /><path clip-path="url(#clip850)" d="M3234.44 1795.21 L3234.44 1808.96 L3230.16 1808.96 L3230.16 1773.17 L3234.44 1773.17 L3234.44 1777.1 Q3235.78 1774.79 3237.82 1773.68 Q3239.88 1772.54 3242.73 1772.54 Q3247.45 1772.54 3250.39 1776.29 Q3253.35 1780.04 3253.35 1786.16 Q3253.35 1792.27 3250.39 1796.02 Q3247.45 1799.77 3242.73 1799.77 Q3239.88 1799.77 3237.82 1798.66 Q3235.78 1797.52 3234.44 1795.21 M3248.93 1786.16 Q3248.93 1781.46 3246.99 1778.79 Q3245.07 1776.11 3241.69 1776.11 Q3238.31 1776.11 3236.36 1778.79 Q3234.44 1781.46 3234.44 1786.16 Q3234.44 1790.85 3236.36 1793.54 Q3238.31 1796.2 3241.69 1796.2 Q3245.07 1796.2 3246.99 1793.54 Q3248.93 1790.85 3248.93 1786.16 Z" fill="#000000" fill-rule="nonzero" fill-opacity="1" /><path clip-path="url(#clip850)" d="M3270.46 1776.16 Q3267.03 1776.16 3265.04 1778.84 Q3263.05 1781.5 3263.05 1786.16 Q3263.05 1790.81 3265.02 1793.49 Q3267.01 1796.16 3270.46 1796.16 Q3273.86 1796.16 3275.85 1793.47 Q3277.84 1790.79 3277.84 1786.16 Q3277.84 1781.55 3275.85 1778.86 Q3273.86 1776.16 3270.46 1776.16 M3270.46 1772.54 Q3276.02 1772.54 3279.19 1776.16 Q3282.36 1779.77 3282.36 1786.16 Q3282.36 1792.52 3279.19 1796.16 Q3276.02 1799.77 3270.46 1799.77 Q3264.88 1799.77 3261.71 1796.16 Q3258.56 1792.52 3258.56 1786.16 Q3258.56 1779.77 3261.71 1776.16 Q3264.88 1772.54 3270.46 1772.54 Z" fill="#000000" fill-rule="nonzero" fill-opacity="1" /><path clip-path="url(#clip850)" d="M3293.54 1795.21 L3293.54 1808.96 L3289.26 1808.96 L3289.26 1773.17 L3293.54 1773.17 L3293.54 1777.1 Q3294.88 1774.79 3296.92 1773.68 Q3298.98 1772.54 3301.83 1772.54 Q3306.55 1772.54 3309.49 1776.29 Q3312.45 1780.04 3312.45 1786.16 Q3312.45 1792.27 3309.49 1796.02 Q3306.55 1799.77 3301.83 1799.77 Q3298.98 1799.77 3296.92 1798.66 Q3294.88 1797.52 3293.54 1795.21 M3308.03 1786.16 Q3308.03 1781.46 3306.08 1778.79 Q3304.16 1776.11 3300.78 1776.11 Q3297.4 1776.11 3295.46 1778.79 Q3293.54 1781.46 3293.54 1786.16 Q3293.54 1790.85 3295.46 1793.54 Q3297.4 1796.2 3300.78 1796.2 Q3304.16 1796.2 3306.08 1793.54 Q3308.03 1790.85 3308.03 1786.16 Z" fill="#000000" fill-rule="nonzero" fill-opacity="1" /><path clip-path="url(#clip850)" d="M3323.72 1765.81 L3323.72 1773.17 L3332.5 1773.17 L3332.5 1776.48 L3323.72 1776.48 L3323.72 1790.55 Q3323.72 1793.73 3324.58 1794.63 Q3325.46 1795.53 3328.12 1795.53 L3332.5 1795.53 L3332.5 1799.1 L3328.12 1799.1 Q3323.19 1799.1 3321.32 1797.27 Q3319.44 1795.42 3319.44 1790.55 L3319.44 1776.48 L3316.32 1776.48 L3316.32 1773.17 L3319.44 1773.17 L3319.44 1765.81 L3323.72 1765.81 Z" fill="#000000" fill-rule="nonzero" fill-opacity="1" /><path clip-path="url(#clip850)" d="M3337.43 1763.12 L3341.13 1763.12 Q3344.6 1768.59 3346.32 1773.82 Q3348.05 1779.05 3348.05 1784.21 Q3348.05 1789.4 3346.32 1794.65 Q3344.6 1799.91 3341.13 1805.35 L3337.43 1805.35 Q3340.51 1800.04 3342.01 1794.81 Q3343.54 1789.56 3343.54 1784.21 Q3343.54 1778.86 3342.01 1773.66 Q3340.51 1768.45 3337.43 1763.12 Z" fill="#000000" fill-rule="nonzero" fill-opacity="1" /><polyline clip-path="url(#clip850)" style="stroke:#008000; stroke-linecap:round; stroke-linejoin:round; stroke-width:6; stroke-opacity:1; fill:none" points="2778.39,1833.66 2998.91,1833.66 "/>
<path clip-path="url(#clip850)" d="M2888.65 1808.06 L2863.05 1833.66 L2888.65 1859.26 L2914.25 1833.66 L2888.65 1808.06 Z" fill="#008000" fill-rule="evenodd" fill-opacity="1" stroke="none"/>
<path clip-path="url(#clip850)" d="M3046.29 1814.96 Q3043.19 1820.29 3041.69 1825.5 Q3040.18 1830.7 3040.18 1836.05 Q3040.18 1841.4 3041.69 1846.65 Q3043.22 1851.88 3046.29 1857.19 L3042.59 1857.19 Q3039.12 1851.75 3037.38 1846.49 Q3035.67 1841.24 3035.67 1836.05 Q3035.67 1830.89 3037.38 1825.66 Q3039.1 1820.43 3042.59 1814.96 L3046.29 1814.96 Z" fill="#000000" fill-rule="nonzero" fill-opacity="1" /><path clip-path="url(#clip850)" d="M3066.34 1837.9 Q3061.18 1837.9 3059.19 1839.08 Q3057.2 1840.26 3057.2 1843.11 Q3057.2 1845.38 3058.68 1846.72 Q3060.18 1848.04 3062.75 1848.04 Q3066.29 1848.04 3068.42 1845.54 Q3070.58 1843.02 3070.58 1838.85 L3070.58 1837.9 L3066.34 1837.9 M3074.84 1836.14 L3074.84 1850.94 L3070.58 1850.94 L3070.58 1847 Q3069.12 1849.36 3066.94 1850.5 Q3064.77 1851.61 3061.62 1851.61 Q3057.64 1851.61 3055.28 1849.38 Q3052.94 1847.14 3052.94 1843.39 Q3052.94 1839.01 3055.85 1836.79 Q3058.79 1834.57 3064.6 1834.57 L3070.58 1834.57 L3070.58 1834.15 Q3070.58 1831.21 3068.63 1829.62 Q3066.71 1828 3063.22 1828 Q3060.99 1828 3058.89 1828.53 Q3056.78 1829.06 3054.84 1830.13 L3054.84 1826.19 Q3057.17 1825.29 3059.37 1824.85 Q3061.57 1824.38 3063.66 1824.38 Q3069.28 1824.38 3072.06 1827.3 Q3074.84 1830.22 3074.84 1836.14 Z" fill="#000000" fill-rule="nonzero" fill-opacity="1" /><path clip-path="url(#clip850)" d="M3100.67 1828.94 L3100.67 1814.92 L3104.93 1814.92 L3104.93 1850.94 L3100.67 1850.94 L3100.67 1847.05 Q3099.33 1849.36 3097.27 1850.5 Q3095.23 1851.61 3092.36 1851.61 Q3087.66 1851.61 3084.7 1847.86 Q3081.76 1844.11 3081.76 1838 Q3081.76 1831.88 3084.7 1828.13 Q3087.66 1824.38 3092.36 1824.38 Q3095.23 1824.38 3097.27 1825.52 Q3099.33 1826.63 3100.67 1828.94 M3086.15 1838 Q3086.15 1842.69 3088.08 1845.38 Q3090.02 1848.04 3093.4 1848.04 Q3096.78 1848.04 3098.72 1845.38 Q3100.67 1842.69 3100.67 1838 Q3100.67 1833.3 3098.72 1830.63 Q3096.78 1827.95 3093.4 1827.95 Q3090.02 1827.95 3088.08 1830.63 Q3086.15 1833.3 3086.15 1838 Z" fill="#000000" fill-rule="nonzero" fill-opacity="1" /><path clip-path="url(#clip850)" d="M3135.25 1835.29 L3135.25 1850.94 L3130.99 1850.94 L3130.99 1835.43 Q3130.99 1831.75 3129.56 1829.92 Q3128.12 1828.09 3125.25 1828.09 Q3121.8 1828.09 3119.81 1830.29 Q3117.82 1832.49 3117.82 1836.28 L3117.82 1850.94 L3113.54 1850.94 L3113.54 1825.01 L3117.82 1825.01 L3117.82 1829.04 Q3119.35 1826.7 3121.41 1825.54 Q3123.49 1824.38 3126.2 1824.38 Q3130.67 1824.38 3132.96 1827.16 Q3135.25 1829.92 3135.25 1835.29 Z" fill="#000000" fill-rule="nonzero" fill-opacity="1" /><path clip-path="url(#clip850)" d="M3143.75 1814.92 L3148.01 1814.92 L3148.01 1850.94 L3143.75 1850.94 L3143.75 1814.92 Z" fill="#000000" fill-rule="nonzero" fill-opacity="1" /><path clip-path="url(#clip850)" d="M3161.04 1847.05 L3161.04 1860.8 L3156.76 1860.8 L3156.76 1825.01 L3161.04 1825.01 L3161.04 1828.94 Q3162.38 1826.63 3164.42 1825.52 Q3166.48 1824.38 3169.33 1824.38 Q3174.05 1824.38 3176.99 1828.13 Q3179.95 1831.88 3179.95 1838 Q3179.95 1844.11 3176.99 1847.86 Q3174.05 1851.61 3169.33 1851.61 Q3166.48 1851.61 3164.42 1850.5 Q3162.38 1849.36 3161.04 1847.05 M3175.53 1838 Q3175.53 1833.3 3173.59 1830.63 Q3171.66 1827.95 3168.28 1827.95 Q3164.9 1827.95 3162.96 1830.63 Q3161.04 1833.3 3161.04 1838 Q3161.04 1842.69 3162.96 1845.38 Q3164.9 1848.04 3168.28 1848.04 Q3171.66 1848.04 3173.59 1845.38 Q3175.53 1842.69 3175.53 1838 Z" fill="#000000" fill-rule="nonzero" fill-opacity="1" /><path clip-path="url(#clip850)" d="M3188.1 1845.06 L3192.98 1845.06 L3192.98 1849.04 L3189.19 1856.44 L3186.2 1856.44 L3188.1 1849.04 L3188.1 1845.06 Z" fill="#000000" fill-rule="nonzero" fill-opacity="1" /><path clip-path="url(#clip850)" d="M3237.33 1829.99 Q3238.93 1827.12 3241.15 1825.75 Q3243.38 1824.38 3246.39 1824.38 Q3250.44 1824.38 3252.64 1827.23 Q3254.83 1830.06 3254.83 1835.29 L3254.83 1850.94 L3250.55 1850.94 L3250.55 1835.43 Q3250.55 1831.7 3249.23 1829.89 Q3247.91 1828.09 3245.21 1828.09 Q3241.89 1828.09 3239.97 1830.29 Q3238.05 1832.49 3238.05 1836.28 L3238.05 1850.94 L3233.77 1850.94 L3233.77 1835.43 Q3233.77 1831.68 3232.45 1829.89 Q3231.13 1828.09 3228.38 1828.09 Q3225.11 1828.09 3223.19 1830.31 Q3221.27 1832.51 3221.27 1836.28 L3221.27 1850.94 L3216.99 1850.94 L3216.99 1825.01 L3221.27 1825.01 L3221.27 1829.04 Q3222.73 1826.65 3224.77 1825.52 Q3226.8 1824.38 3229.6 1824.38 Q3232.43 1824.38 3234.39 1825.82 Q3236.39 1827.26 3237.33 1829.99 Z" fill="#000000" fill-rule="nonzero" fill-opacity="1" /><path clip-path="url(#clip850)" d="M3275.11 1837.9 Q3269.95 1837.9 3267.96 1839.08 Q3265.97 1840.26 3265.97 1843.11 Q3265.97 1845.38 3267.45 1846.72 Q3268.95 1848.04 3271.52 1848.04 Q3275.07 1848.04 3277.2 1845.54 Q3279.35 1843.02 3279.35 1838.85 L3279.35 1837.9 L3275.11 1837.9 M3283.61 1836.14 L3283.61 1850.94 L3279.35 1850.94 L3279.35 1847 Q3277.89 1849.36 3275.71 1850.5 Q3273.54 1851.61 3270.39 1851.61 Q3266.41 1851.61 3264.05 1849.38 Q3261.71 1847.14 3261.71 1843.39 Q3261.71 1839.01 3264.63 1836.79 Q3267.57 1834.57 3273.38 1834.57 L3279.35 1834.57 L3279.35 1834.15 Q3279.35 1831.21 3277.4 1829.62 Q3275.48 1828 3271.99 1828 Q3269.77 1828 3267.66 1828.53 Q3265.55 1829.06 3263.61 1830.13 L3263.61 1826.19 Q3265.95 1825.29 3268.14 1824.85 Q3270.34 1824.38 3272.43 1824.38 Q3278.05 1824.38 3280.83 1827.3 Q3283.61 1830.22 3283.61 1836.14 Z" fill="#000000" fill-rule="nonzero" fill-opacity="1" /><path clip-path="url(#clip850)" d="M3309.44 1828.94 L3309.44 1814.92 L3313.7 1814.92 L3313.7 1850.94 L3309.44 1850.94 L3309.44 1847.05 Q3308.1 1849.36 3306.04 1850.5 Q3304 1851.61 3301.13 1851.61 Q3296.43 1851.61 3293.47 1847.86 Q3290.53 1844.11 3290.53 1838 Q3290.53 1831.88 3293.47 1828.13 Q3296.43 1824.38 3301.13 1824.38 Q3304 1824.38 3306.04 1825.52 Q3308.1 1826.63 3309.44 1828.94 M3294.93 1838 Q3294.93 1842.69 3296.85 1845.38 Q3298.79 1848.04 3302.17 1848.04 Q3305.55 1848.04 3307.5 1845.38 Q3309.44 1842.69 3309.44 1838 Q3309.44 1833.3 3307.5 1830.63 Q3305.55 1827.95 3302.17 1827.95 Q3298.79 1827.95 3296.85 1830.63 Q3294.93 1833.3 3294.93 1838 Z" fill="#000000" fill-rule="nonzero" fill-opacity="1" /><path clip-path="url(#clip850)" d="M3344.02 1835.29 L3344.02 1850.94 L3339.76 1850.94 L3339.76 1835.43 Q3339.76 1831.75 3338.33 1829.92 Q3336.89 1828.09 3334.02 1828.09 Q3330.57 1828.09 3328.58 1830.29 Q3326.59 1832.49 3326.59 1836.28 L3326.59 1850.94 L3322.31 1850.94 L3322.31 1825.01 L3326.59 1825.01 L3326.59 1829.04 Q3328.12 1826.7 3330.18 1825.54 Q3332.26 1824.38 3334.97 1824.38 Q3339.44 1824.38 3341.73 1827.16 Q3344.02 1829.92 3344.02 1835.29 Z" fill="#000000" fill-rule="nonzero" fill-opacity="1" /><path clip-path="url(#clip850)" d="M3352.52 1814.92 L3356.78 1814.92 L3356.78 1850.94 L3352.52 1850.94 L3352.52 1814.92 Z" fill="#000000" fill-rule="nonzero" fill-opacity="1" /><path clip-path="url(#clip850)" d="M3369.81 1847.05 L3369.81 1860.8 L3365.53 1860.8 L3365.53 1825.01 L3369.81 1825.01 L3369.81 1828.94 Q3371.15 1826.63 3373.19 1825.52 Q3375.25 1824.38 3378.1 1824.38 Q3382.82 1824.38 3385.76 1828.13 Q3388.72 1831.88 3388.72 1838 Q3388.72 1844.11 3385.76 1847.86 Q3382.82 1851.61 3378.1 1851.61 Q3375.25 1851.61 3373.19 1850.5 Q3371.15 1849.36 3369.81 1847.05 M3384.3 1838 Q3384.3 1833.3 3382.36 1830.63 Q3380.44 1827.95 3377.06 1827.95 Q3373.68 1827.95 3371.73 1830.63 Q3369.81 1833.3 3369.81 1838 Q3369.81 1842.69 3371.73 1845.38 Q3373.68 1848.04 3377.06 1848.04 Q3380.44 1848.04 3382.36 1845.38 Q3384.3 1842.69 3384.3 1838 Z" fill="#000000" fill-rule="nonzero" fill-opacity="1" /><path clip-path="url(#clip850)" d="M3395.11 1814.96 L3398.82 1814.96 Q3402.29 1820.43 3404 1825.66 Q3405.74 1830.89 3405.74 1836.05 Q3405.74 1841.24 3404 1846.49 Q3402.29 1851.75 3398.82 1857.19 L3395.11 1857.19 Q3398.19 1851.88 3399.69 1846.65 Q3401.22 1841.4 3401.22 1836.05 Q3401.22 1830.7 3399.69 1825.5 Q3398.19 1820.29 3395.11 1814.96 Z" fill="#000000" fill-rule="nonzero" fill-opacity="1" /><polyline clip-path="url(#clip850)" style="stroke:#ff0000; stroke-linecap:round; stroke-linejoin:round; stroke-width:6; stroke-opacity:1; fill:none" points="2778.39,1885.5 2998.91,1885.5 "/>
<path clip-path="url(#clip850)" d="M2863.05 1859.9 L2863.05 1911.1 L2914.25 1911.1 L2914.25 1859.9 L2863.05 1859.9 Z" fill="#ff0000" fill-rule="evenodd" fill-opacity="1" stroke="none"/>
<path clip-path="url(#clip850)" d="M3046.29 1866.8 Q3043.19 1872.13 3041.69 1877.34 Q3040.18 1882.54 3040.18 1887.89 Q3040.18 1893.24 3041.69 1898.49 Q3043.22 1903.72 3046.29 1909.03 L3042.59 1909.03 Q3039.12 1903.59 3037.38 1898.33 Q3035.67 1893.08 3035.67 1887.89 Q3035.67 1882.73 3037.38 1877.5 Q3039.1 1872.27 3042.59 1866.8 L3046.29 1866.8 Z" fill="#000000" fill-rule="nonzero" fill-opacity="1" /><path clip-path="url(#clip850)" d="M3076.73 1888.75 L3076.73 1890.83 L3057.15 1890.83 Q3057.43 1895.23 3059.79 1897.54 Q3062.17 1899.84 3066.41 1899.84 Q3068.86 1899.84 3071.16 1899.23 Q3073.47 1898.63 3075.74 1897.43 L3075.74 1901.46 Q3073.45 1902.43 3071.04 1902.94 Q3068.63 1903.45 3066.16 1903.45 Q3059.95 1903.45 3056.32 1899.84 Q3052.71 1896.22 3052.71 1890.07 Q3052.71 1883.7 3056.13 1879.97 Q3059.58 1876.22 3065.41 1876.22 Q3070.65 1876.22 3073.68 1879.6 Q3076.73 1882.96 3076.73 1888.75 M3072.47 1887.5 Q3072.43 1884 3070.51 1881.92 Q3068.61 1879.84 3065.46 1879.84 Q3061.9 1879.84 3059.74 1881.85 Q3057.61 1883.86 3057.29 1887.52 L3072.47 1887.5 Z" fill="#000000" fill-rule="nonzero" fill-opacity="1" /><path clip-path="url(#clip850)" d="M3104.44 1876.85 L3095.07 1889.47 L3104.93 1902.78 L3099.9 1902.78 L3092.36 1892.59 L3084.81 1902.78 L3079.79 1902.78 L3089.86 1889.21 L3080.65 1876.85 L3085.67 1876.85 L3092.54 1886.09 L3099.42 1876.85 L3104.44 1876.85 Z" fill="#000000" fill-rule="nonzero" fill-opacity="1" /><path clip-path="url(#clip850)" d="M3122.73 1889.74 Q3117.57 1889.74 3115.58 1890.92 Q3113.59 1892.1 3113.59 1894.95 Q3113.59 1897.22 3115.07 1898.56 Q3116.57 1899.88 3119.14 1899.88 Q3122.68 1899.88 3124.81 1897.38 Q3126.96 1894.86 3126.96 1890.69 L3126.96 1889.74 L3122.73 1889.74 M3131.22 1887.98 L3131.22 1902.78 L3126.96 1902.78 L3126.96 1898.84 Q3125.51 1901.2 3123.33 1902.34 Q3121.15 1903.45 3118.01 1903.45 Q3114.03 1903.45 3111.66 1901.22 Q3109.33 1898.98 3109.33 1895.23 Q3109.33 1890.85 3112.24 1888.63 Q3115.18 1886.41 3120.99 1886.41 L3126.96 1886.41 L3126.96 1885.99 Q3126.96 1883.05 3125.02 1881.46 Q3123.1 1879.84 3119.6 1879.84 Q3117.38 1879.84 3115.28 1880.37 Q3113.17 1880.9 3111.22 1881.97 L3111.22 1878.03 Q3113.56 1877.13 3115.76 1876.69 Q3117.96 1876.22 3120.04 1876.22 Q3125.67 1876.22 3128.45 1879.14 Q3131.22 1882.06 3131.22 1887.98 Z" fill="#000000" fill-rule="nonzero" fill-opacity="1" /><path clip-path="url(#clip850)" d="M3141.09 1896.9 L3145.97 1896.9 L3145.97 1900.88 L3142.17 1908.28 L3139.19 1908.28 L3141.09 1900.88 L3141.09 1896.9 Z" fill="#000000" fill-rule="nonzero" fill-opacity="1" /><path clip-path="url(#clip850)" d="M3170.14 1876.85 L3174.4 1876.85 L3174.4 1902.78 L3170.14 1902.78 L3170.14 1876.85 M3170.14 1866.76 L3174.4 1866.76 L3174.4 1872.15 L3170.14 1872.15 L3170.14 1866.76 Z" fill="#000000" fill-rule="nonzero" fill-opacity="1" /><path clip-path="url(#clip850)" d="M3187.43 1898.89 L3187.43 1912.64 L3183.15 1912.64 L3183.15 1876.85 L3187.43 1876.85 L3187.43 1880.78 Q3188.77 1878.47 3190.81 1877.36 Q3192.87 1876.22 3195.71 1876.22 Q3200.44 1876.22 3203.38 1879.97 Q3206.34 1883.72 3206.34 1889.84 Q3206.34 1895.95 3203.38 1899.7 Q3200.44 1903.45 3195.71 1903.45 Q3192.87 1903.45 3190.81 1902.34 Q3188.77 1901.2 3187.43 1898.89 M3201.92 1889.84 Q3201.92 1885.14 3199.97 1882.47 Q3198.05 1879.79 3194.67 1879.79 Q3191.29 1879.79 3189.35 1882.47 Q3187.43 1885.14 3187.43 1889.84 Q3187.43 1894.53 3189.35 1897.22 Q3191.29 1899.88 3194.67 1899.88 Q3198.05 1899.88 3199.97 1897.22 Q3201.92 1894.53 3201.92 1889.84 Z" fill="#000000" fill-rule="nonzero" fill-opacity="1" /><path clip-path="url(#clip850)" d="M3223.45 1879.84 Q3220.02 1879.84 3218.03 1882.52 Q3216.04 1885.18 3216.04 1889.84 Q3216.04 1894.49 3218.01 1897.17 Q3220 1899.84 3223.45 1899.84 Q3226.85 1899.84 3228.84 1897.15 Q3230.83 1894.47 3230.83 1889.84 Q3230.83 1885.23 3228.84 1882.54 Q3226.85 1879.84 3223.45 1879.84 M3223.45 1876.22 Q3229 1876.22 3232.17 1879.84 Q3235.34 1883.45 3235.34 1889.84 Q3235.34 1896.2 3232.17 1899.84 Q3229 1903.45 3223.45 1903.45 Q3217.87 1903.45 3214.7 1899.84 Q3211.55 1896.2 3211.55 1889.84 Q3211.55 1883.45 3214.7 1879.84 Q3217.87 1876.22 3223.45 1876.22 Z" fill="#000000" fill-rule="nonzero" fill-opacity="1" /><path clip-path="url(#clip850)" d="M3246.52 1898.89 L3246.52 1912.64 L3242.24 1912.64 L3242.24 1876.85 L3246.52 1876.85 L3246.52 1880.78 Q3247.87 1878.47 3249.9 1877.36 Q3251.96 1876.22 3254.81 1876.22 Q3259.53 1876.22 3262.47 1879.97 Q3265.44 1883.72 3265.44 1889.84 Q3265.44 1895.95 3262.47 1899.7 Q3259.53 1903.45 3254.81 1903.45 Q3251.96 1903.45 3249.9 1902.34 Q3247.87 1901.2 3246.52 1898.89 M3261.02 1889.84 Q3261.02 1885.14 3259.07 1882.47 Q3257.15 1879.79 3253.77 1879.79 Q3250.39 1879.79 3248.45 1882.47 Q3246.52 1885.14 3246.52 1889.84 Q3246.52 1894.53 3248.45 1897.22 Q3250.39 1899.88 3253.77 1899.88 Q3257.15 1899.88 3259.07 1897.22 Q3261.02 1894.53 3261.02 1889.84 Z" fill="#000000" fill-rule="nonzero" fill-opacity="1" /><path clip-path="url(#clip850)" d="M3276.71 1869.49 L3276.71 1876.85 L3285.48 1876.85 L3285.48 1880.16 L3276.71 1880.16 L3276.71 1894.23 Q3276.71 1897.41 3277.57 1898.31 Q3278.45 1899.21 3281.11 1899.21 L3285.48 1899.21 L3285.48 1902.78 L3281.11 1902.78 Q3276.18 1902.78 3274.3 1900.95 Q3272.43 1899.1 3272.43 1894.23 L3272.43 1880.16 L3269.3 1880.16 L3269.3 1876.85 L3272.43 1876.85 L3272.43 1869.49 L3276.71 1869.49 Z" fill="#000000" fill-rule="nonzero" fill-opacity="1" /><path clip-path="url(#clip850)" d="M3290.41 1866.8 L3294.12 1866.8 Q3297.59 1872.27 3299.3 1877.5 Q3301.04 1882.73 3301.04 1887.89 Q3301.04 1893.08 3299.3 1898.33 Q3297.59 1903.59 3294.12 1909.03 L3290.41 1909.03 Q3293.49 1903.72 3295 1898.49 Q3296.52 1893.24 3296.52 1887.89 Q3296.52 1882.54 3295 1877.34 Q3293.49 1872.13 3290.41 1866.8 Z" fill="#000000" fill-rule="nonzero" fill-opacity="1" /><polyline clip-path="url(#clip850)" style="stroke:#ffa500; stroke-linecap:round; stroke-linejoin:round; stroke-width:6; stroke-opacity:1; fill:none" points="2778.39,1937.34 2998.91,1937.34 "/>
<path clip-path="url(#clip850)" d="M2888.65 1911.74 L2863.05 1962.94 L2914.25 1962.94 L2888.65 1911.74 Z" fill="#ffa500" fill-rule="evenodd" fill-opacity="1" stroke="none"/>
<path clip-path="url(#clip850)" d="M3046.29 1918.64 Q3043.19 1923.97 3041.69 1929.18 Q3040.18 1934.38 3040.18 1939.73 Q3040.18 1945.08 3041.69 1950.33 Q3043.22 1955.56 3046.29 1960.87 L3042.59 1960.87 Q3039.12 1955.43 3037.38 1950.17 Q3035.67 1944.92 3035.67 1939.73 Q3035.67 1934.57 3037.38 1929.34 Q3039.1 1924.11 3042.59 1918.64 L3046.29 1918.64 Z" fill="#000000" fill-rule="nonzero" fill-opacity="1" /><path clip-path="url(#clip850)" d="M3076.73 1940.59 L3076.73 1942.67 L3057.15 1942.67 Q3057.43 1947.07 3059.79 1949.38 Q3062.17 1951.68 3066.41 1951.68 Q3068.86 1951.68 3071.16 1951.07 Q3073.47 1950.47 3075.74 1949.27 L3075.74 1953.3 Q3073.45 1954.27 3071.04 1954.78 Q3068.63 1955.29 3066.16 1955.29 Q3059.95 1955.29 3056.32 1951.68 Q3052.71 1948.06 3052.71 1941.91 Q3052.71 1935.54 3056.13 1931.81 Q3059.58 1928.06 3065.41 1928.06 Q3070.65 1928.06 3073.68 1931.44 Q3076.73 1934.8 3076.73 1940.59 M3072.47 1939.34 Q3072.43 1935.84 3070.51 1933.76 Q3068.61 1931.68 3065.46 1931.68 Q3061.9 1931.68 3059.74 1933.69 Q3057.61 1935.7 3057.29 1939.36 L3072.47 1939.34 Z" fill="#000000" fill-rule="nonzero" fill-opacity="1" /><path clip-path="url(#clip850)" d="M3104.44 1928.69 L3095.07 1941.31 L3104.93 1954.62 L3099.9 1954.62 L3092.36 1944.43 L3084.81 1954.62 L3079.79 1954.62 L3089.86 1941.05 L3080.65 1928.69 L3085.67 1928.69 L3092.54 1937.93 L3099.42 1928.69 L3104.44 1928.69 Z" fill="#000000" fill-rule="nonzero" fill-opacity="1" /><path clip-path="url(#clip850)" d="M3122.73 1941.58 Q3117.57 1941.58 3115.58 1942.76 Q3113.59 1943.94 3113.59 1946.79 Q3113.59 1949.06 3115.07 1950.4 Q3116.57 1951.72 3119.14 1951.72 Q3122.68 1951.72 3124.81 1949.22 Q3126.96 1946.7 3126.96 1942.53 L3126.96 1941.58 L3122.73 1941.58 M3131.22 1939.82 L3131.22 1954.62 L3126.96 1954.62 L3126.96 1950.68 Q3125.51 1953.04 3123.33 1954.18 Q3121.15 1955.29 3118.01 1955.29 Q3114.03 1955.29 3111.66 1953.06 Q3109.33 1950.82 3109.33 1947.07 Q3109.33 1942.69 3112.24 1940.47 Q3115.18 1938.25 3120.99 1938.25 L3126.96 1938.25 L3126.96 1937.83 Q3126.96 1934.89 3125.02 1933.3 Q3123.1 1931.68 3119.6 1931.68 Q3117.38 1931.68 3115.28 1932.21 Q3113.17 1932.74 3111.22 1933.81 L3111.22 1929.87 Q3113.56 1928.97 3115.76 1928.53 Q3117.96 1928.06 3120.04 1928.06 Q3125.67 1928.06 3128.45 1930.98 Q3131.22 1933.9 3131.22 1939.82 Z" fill="#000000" fill-rule="nonzero" fill-opacity="1" /><path clip-path="url(#clip850)" d="M3141.09 1948.74 L3145.97 1948.74 L3145.97 1952.72 L3142.17 1960.12 L3139.19 1960.12 L3141.09 1952.72 L3141.09 1948.74 Z" fill="#000000" fill-rule="nonzero" fill-opacity="1" /><path clip-path="url(#clip850)" d="M3190.32 1933.67 Q3191.92 1930.8 3194.14 1929.43 Q3196.36 1928.06 3199.37 1928.06 Q3203.42 1928.06 3205.62 1930.91 Q3207.82 1933.74 3207.82 1938.97 L3207.82 1954.62 L3203.54 1954.62 L3203.54 1939.11 Q3203.54 1935.38 3202.22 1933.57 Q3200.9 1931.77 3198.19 1931.77 Q3194.88 1931.77 3192.96 1933.97 Q3191.04 1936.17 3191.04 1939.96 L3191.04 1954.62 L3186.76 1954.62 L3186.76 1939.11 Q3186.76 1935.36 3185.44 1933.57 Q3184.12 1931.77 3181.36 1931.77 Q3178.1 1931.77 3176.18 1933.99 Q3174.26 1936.19 3174.26 1939.96 L3174.26 1954.62 L3169.97 1954.62 L3169.97 1928.69 L3174.26 1928.69 L3174.26 1932.72 Q3175.71 1930.33 3177.75 1929.2 Q3179.79 1928.06 3182.59 1928.06 Q3185.41 1928.06 3187.38 1929.5 Q3189.37 1930.94 3190.32 1933.67 Z" fill="#000000" fill-rule="nonzero" fill-opacity="1" /><path clip-path="url(#clip850)" d="M3228.1 1941.58 Q3222.94 1941.58 3220.95 1942.76 Q3218.96 1943.94 3218.96 1946.79 Q3218.96 1949.06 3220.44 1950.4 Q3221.94 1951.72 3224.51 1951.72 Q3228.05 1951.72 3230.18 1949.22 Q3232.33 1946.7 3232.33 1942.53 L3232.33 1941.58 L3228.1 1941.58 M3236.59 1939.82 L3236.59 1954.62 L3232.33 1954.62 L3232.33 1950.68 Q3230.88 1953.04 3228.7 1954.18 Q3226.52 1955.29 3223.38 1955.29 Q3219.39 1955.29 3217.03 1953.06 Q3214.7 1950.82 3214.7 1947.07 Q3214.7 1942.69 3217.61 1940.47 Q3220.55 1938.25 3226.36 1938.25 L3232.33 1938.25 L3232.33 1937.83 Q3232.33 1934.89 3230.39 1933.3 Q3228.47 1931.68 3224.97 1931.68 Q3222.75 1931.68 3220.64 1932.21 Q3218.54 1932.74 3216.59 1933.81 L3216.59 1929.87 Q3218.93 1928.97 3221.13 1928.53 Q3223.33 1928.06 3225.41 1928.06 Q3231.04 1928.06 3233.82 1930.98 Q3236.59 1933.9 3236.59 1939.82 Z" fill="#000000" fill-rule="nonzero" fill-opacity="1" /><path clip-path="url(#clip850)" d="M3262.43 1932.62 L3262.43 1918.6 L3266.69 1918.6 L3266.69 1954.62 L3262.43 1954.62 L3262.43 1950.73 Q3261.08 1953.04 3259.02 1954.18 Q3256.99 1955.29 3254.12 1955.29 Q3249.42 1955.29 3246.46 1951.54 Q3243.52 1947.79 3243.52 1941.68 Q3243.52 1935.56 3246.46 1931.81 Q3249.42 1928.06 3254.12 1928.06 Q3256.99 1928.06 3259.02 1929.2 Q3261.08 1930.31 3262.43 1932.62 M3247.91 1941.68 Q3247.91 1946.37 3249.83 1949.06 Q3251.78 1951.72 3255.16 1951.72 Q3258.54 1951.72 3260.48 1949.06 Q3262.43 1946.37 3262.43 1941.68 Q3262.43 1936.98 3260.48 1934.31 Q3258.54 1931.63 3255.16 1931.63 Q3251.78 1931.63 3249.83 1934.31 Q3247.91 1936.98 3247.91 1941.68 Z" fill="#000000" fill-rule="nonzero" fill-opacity="1" /><path clip-path="url(#clip850)" d="M3297.01 1938.97 L3297.01 1954.62 L3292.75 1954.62 L3292.75 1939.11 Q3292.75 1935.43 3291.32 1933.6 Q3289.88 1931.77 3287.01 1931.77 Q3283.56 1931.77 3281.57 1933.97 Q3279.58 1936.17 3279.58 1939.96 L3279.58 1954.62 L3275.3 1954.62 L3275.3 1928.69 L3279.58 1928.69 L3279.58 1932.72 Q3281.11 1930.38 3283.17 1929.22 Q3285.25 1928.06 3287.96 1928.06 Q3292.43 1928.06 3294.72 1930.84 Q3297.01 1933.6 3297.01 1938.97 Z" fill="#000000" fill-rule="nonzero" fill-opacity="1" /><path clip-path="url(#clip850)" d="M3305.51 1918.6 L3309.76 1918.6 L3309.76 1954.62 L3305.51 1954.62 L3305.51 1918.6 Z" fill="#000000" fill-rule="nonzero" fill-opacity="1" /><path clip-path="url(#clip850)" d="M3322.8 1950.73 L3322.8 1964.48 L3318.51 1964.48 L3318.51 1928.69 L3322.8 1928.69 L3322.8 1932.62 Q3324.14 1930.31 3326.18 1929.2 Q3328.24 1928.06 3331.08 1928.06 Q3335.81 1928.06 3338.75 1931.81 Q3341.71 1935.56 3341.71 1941.68 Q3341.71 1947.79 3338.75 1951.54 Q3335.81 1955.29 3331.08 1955.29 Q3328.24 1955.29 3326.18 1954.18 Q3324.14 1953.04 3322.8 1950.73 M3337.29 1941.68 Q3337.29 1936.98 3335.34 1934.31 Q3333.42 1931.63 3330.04 1931.63 Q3326.66 1931.63 3324.72 1934.31 Q3322.8 1936.98 3322.8 1941.68 Q3322.8 1946.37 3324.72 1949.06 Q3326.66 1951.72 3330.04 1951.72 Q3333.42 1951.72 3335.34 1949.06 Q3337.29 1946.37 3337.29 1941.68 Z" fill="#000000" fill-rule="nonzero" fill-opacity="1" /><path clip-path="url(#clip850)" d="M3348.1 1918.64 L3351.8 1918.64 Q3355.27 1924.11 3356.99 1929.34 Q3358.72 1934.57 3358.72 1939.73 Q3358.72 1944.92 3356.99 1950.17 Q3355.27 1955.43 3351.8 1960.87 L3348.1 1960.87 Q3351.18 1955.56 3352.68 1950.33 Q3354.21 1945.08 3354.21 1939.73 Q3354.21 1934.38 3352.68 1929.18 Q3351.18 1923.97 3348.1 1918.64 Z" fill="#000000" fill-rule="nonzero" fill-opacity="1" /><polyline clip-path="url(#clip850)" style="stroke:#800080; stroke-linecap:round; stroke-linejoin:round; stroke-width:6; stroke-opacity:1; fill:none" points="2778.39,1989.18 2998.91,1989.18 "/>
<path clip-path="url(#clip850)" d="M2914.25 1963.58 L2863.05 1963.58 L2888.65 2014.78 L2914.25 1963.58 Z" fill="#800080" fill-rule="evenodd" fill-opacity="1" stroke="none"/>
<path clip-path="url(#clip850)" d="M3046.29 1970.48 Q3043.19 1975.81 3041.69 1981.02 Q3040.18 1986.22 3040.18 1991.57 Q3040.18 1996.92 3041.69 2002.17 Q3043.22 2007.4 3046.29 2012.71 L3042.59 2012.71 Q3039.12 2007.27 3037.38 2002.01 Q3035.67 1996.76 3035.67 1991.57 Q3035.67 1986.41 3037.38 1981.18 Q3039.1 1975.95 3042.59 1970.48 L3046.29 1970.48 Z" fill="#000000" fill-rule="nonzero" fill-opacity="1" /><path clip-path="url(#clip850)" d="M3054.56 1980.53 L3058.82 1980.53 L3058.82 2006.92 Q3058.82 2011.87 3056.92 2014.09 Q3055.04 2016.32 3050.85 2016.32 L3049.23 2016.32 L3049.23 2012.71 L3050.37 2012.71 Q3052.8 2012.71 3053.68 2011.57 Q3054.56 2010.46 3054.56 2006.92 L3054.56 1980.53 M3054.56 1970.44 L3058.82 1970.44 L3058.82 1975.83 L3054.56 1975.83 L3054.56 1970.44 Z" fill="#000000" fill-rule="nonzero" fill-opacity="1" /><path clip-path="url(#clip850)" d="M3067.29 1996.22 L3067.29 1980.53 L3071.55 1980.53 L3071.55 1996.06 Q3071.55 1999.74 3072.98 2001.59 Q3074.42 2003.42 3077.29 2003.42 Q3080.74 2003.42 3082.73 2001.22 Q3084.74 1999.03 3084.74 1995.23 L3084.74 1980.53 L3089 1980.53 L3089 2006.46 L3084.74 2006.46 L3084.74 2002.47 Q3083.19 2004.84 3081.13 2005.99 Q3079.09 2007.13 3076.39 2007.13 Q3071.92 2007.13 3069.6 2004.35 Q3067.29 2001.57 3067.29 1996.22 M3078.01 1979.9 L3078.01 1979.9 Z" fill="#000000" fill-rule="nonzero" fill-opacity="1" /><path clip-path="url(#clip850)" d="M3117.96 1985.51 Q3119.56 1982.64 3121.78 1981.27 Q3124 1979.9 3127.01 1979.9 Q3131.06 1979.9 3133.26 1982.75 Q3135.46 1985.58 3135.46 1990.81 L3135.46 2006.46 L3131.18 2006.46 L3131.18 1990.95 Q3131.18 1987.22 3129.86 1985.41 Q3128.54 1983.61 3125.83 1983.61 Q3122.52 1983.61 3120.6 1985.81 Q3118.68 1988.01 3118.68 1991.8 L3118.68 2006.46 L3114.4 2006.46 L3114.4 1990.95 Q3114.4 1987.2 3113.08 1985.41 Q3111.76 1983.61 3109 1983.61 Q3105.74 1983.61 3103.82 1985.83 Q3101.9 1988.03 3101.9 1991.8 L3101.9 2006.46 L3097.61 2006.46 L3097.61 1980.53 L3101.9 1980.53 L3101.9 1984.56 Q3103.35 1982.17 3105.39 1981.04 Q3107.43 1979.9 3110.23 1979.9 Q3113.05 1979.9 3115.02 1981.34 Q3117.01 1982.78 3117.96 1985.51 Z" fill="#000000" fill-rule="nonzero" fill-opacity="1" /><path clip-path="url(#clip850)" d="M3148.08 2002.57 L3148.08 2016.32 L3143.79 2016.32 L3143.79 1980.53 L3148.08 1980.53 L3148.08 1984.46 Q3149.42 1982.15 3151.46 1981.04 Q3153.52 1979.9 3156.36 1979.9 Q3161.09 1979.9 3164.02 1983.65 Q3166.99 1987.4 3166.99 1993.52 Q3166.99 1999.63 3164.02 2003.38 Q3161.09 2007.13 3156.36 2007.13 Q3153.52 2007.13 3151.46 2006.02 Q3149.42 2004.88 3148.08 2002.57 M3162.57 1993.52 Q3162.57 1988.82 3160.62 1986.15 Q3158.7 1983.47 3155.32 1983.47 Q3151.94 1983.47 3150 1986.15 Q3148.08 1988.82 3148.08 1993.52 Q3148.08 1998.21 3150 2000.9 Q3151.94 2003.56 3155.32 2003.56 Q3158.7 2003.56 3160.62 2000.9 Q3162.57 1998.21 3162.57 1993.52 Z" fill="#000000" fill-rule="nonzero" fill-opacity="1" /><path clip-path="url(#clip850)" d="M3175.14 2000.58 L3180.02 2000.58 L3180.02 2004.56 L3176.22 2011.96 L3173.24 2011.96 L3175.14 2004.56 L3175.14 2000.58 Z" fill="#000000" fill-rule="nonzero" fill-opacity="1" /><path clip-path="url(#clip850)" d="M3204.19 1980.53 L3208.45 1980.53 L3208.45 2006.46 L3204.19 2006.46 L3204.19 1980.53 M3204.19 1970.44 L3208.45 1970.44 L3208.45 1975.83 L3204.19 1975.83 L3204.19 1970.44 Z" fill="#000000" fill-rule="nonzero" fill-opacity="1" /><path clip-path="url(#clip850)" d="M3221.48 2002.57 L3221.48 2016.32 L3217.2 2016.32 L3217.2 1980.53 L3221.48 1980.53 L3221.48 1984.46 Q3222.82 1982.15 3224.86 1981.04 Q3226.92 1979.9 3229.77 1979.9 Q3234.49 1979.9 3237.43 1983.65 Q3240.39 1987.4 3240.39 1993.52 Q3240.39 1999.63 3237.43 2003.38 Q3234.49 2007.13 3229.77 2007.13 Q3226.92 2007.13 3224.86 2006.02 Q3222.82 2004.88 3221.48 2002.57 M3235.97 1993.52 Q3235.97 1988.82 3234.02 1986.15 Q3232.1 1983.47 3228.72 1983.47 Q3225.34 1983.47 3223.4 1986.15 Q3221.48 1988.82 3221.48 1993.52 Q3221.48 1998.21 3223.4 2000.9 Q3225.34 2003.56 3228.72 2003.56 Q3232.1 2003.56 3234.02 2000.9 Q3235.97 1998.21 3235.97 1993.52 Z" fill="#000000" fill-rule="nonzero" fill-opacity="1" /><path clip-path="url(#clip850)" d="M3257.5 1983.52 Q3254.07 1983.52 3252.08 1986.2 Q3250.09 1988.86 3250.09 1993.52 Q3250.09 1998.17 3252.06 2000.85 Q3254.05 2003.52 3257.5 2003.52 Q3260.9 2003.52 3262.89 2000.83 Q3264.88 1998.15 3264.88 1993.52 Q3264.88 1988.91 3262.89 1986.22 Q3260.9 1983.52 3257.5 1983.52 M3257.5 1979.9 Q3263.05 1979.9 3266.22 1983.52 Q3269.39 1987.13 3269.39 1993.52 Q3269.39 1999.88 3266.22 2003.52 Q3263.05 2007.13 3257.5 2007.13 Q3251.92 2007.13 3248.75 2003.52 Q3245.6 1999.88 3245.6 1993.52 Q3245.6 1987.13 3248.75 1983.52 Q3251.92 1979.9 3257.5 1979.9 Z" fill="#000000" fill-rule="nonzero" fill-opacity="1" /><path clip-path="url(#clip850)" d="M3280.58 2002.57 L3280.58 2016.32 L3276.29 2016.32 L3276.29 1980.53 L3280.58 1980.53 L3280.58 1984.46 Q3281.92 1982.15 3283.95 1981.04 Q3286.01 1979.9 3288.86 1979.9 Q3293.58 1979.9 3296.52 1983.65 Q3299.49 1987.4 3299.49 1993.52 Q3299.49 1999.63 3296.52 2003.38 Q3293.58 2007.13 3288.86 2007.13 Q3286.01 2007.13 3283.95 2006.02 Q3281.92 2004.88 3280.58 2002.57 M3295.07 1993.52 Q3295.07 1988.82 3293.12 1986.15 Q3291.2 1983.47 3287.82 1983.47 Q3284.44 1983.47 3282.5 1986.15 Q3280.58 1988.82 3280.58 1993.52 Q3280.58 1998.21 3282.5 2000.9 Q3284.44 2003.56 3287.82 2003.56 Q3291.2 2003.56 3293.12 2000.9 Q3295.07 1998.21 3295.07 1993.52 Z" fill="#000000" fill-rule="nonzero" fill-opacity="1" /><path clip-path="url(#clip850)" d="M3310.76 1973.17 L3310.76 1980.53 L3319.53 1980.53 L3319.53 1983.84 L3310.76 1983.84 L3310.76 1997.91 Q3310.76 2001.09 3311.62 2001.99 Q3312.5 2002.89 3315.16 2002.89 L3319.53 2002.89 L3319.53 2006.46 L3315.16 2006.46 Q3310.23 2006.46 3308.35 2004.63 Q3306.48 2002.78 3306.48 1997.91 L3306.48 1983.84 L3303.35 1983.84 L3303.35 1980.53 L3306.48 1980.53 L3306.48 1973.17 L3310.76 1973.17 Z" fill="#000000" fill-rule="nonzero" fill-opacity="1" /><path clip-path="url(#clip850)" d="M3324.46 1970.48 L3328.17 1970.48 Q3331.64 1975.95 3333.35 1981.18 Q3335.09 1986.41 3335.09 1991.57 Q3335.09 1996.76 3333.35 2002.01 Q3331.64 2007.27 3328.17 2012.71 L3324.46 2012.71 Q3327.54 2007.4 3329.05 2002.17 Q3330.57 1996.92 3330.57 1991.57 Q3330.57 1986.22 3329.05 1981.02 Q3327.54 1975.81 3324.46 1970.48 Z" fill="#000000" fill-rule="nonzero" fill-opacity="1" /><polyline clip-path="url(#clip850)" style="stroke:#a52a2a; stroke-linecap:round; stroke-linejoin:round; stroke-width:6; stroke-opacity:1; fill:none" points="2778.39,2041.02 2998.91,2041.02 "/>
<path clip-path="url(#clip850)" d="M2888.65 2015.42 L2882.63 2032.72 L2864.3 2033.11 L2878.92 2044.19 L2873.6 2061.73 L2888.65 2051.26 L2903.7 2061.73 L2898.38 2044.19 L2913 2033.11 L2894.67 2032.72 L2888.65 2015.42 Z" fill="#a52a2a" fill-rule="evenodd" fill-opacity="1" stroke="none"/>
<path clip-path="url(#clip850)" d="M3046.29 2022.32 Q3043.19 2027.65 3041.69 2032.86 Q3040.18 2038.06 3040.18 2043.41 Q3040.18 2048.76 3041.69 2054.01 Q3043.22 2059.24 3046.29 2064.55 L3042.59 2064.55 Q3039.12 2059.11 3037.38 2053.85 Q3035.67 2048.6 3035.67 2043.41 Q3035.67 2038.25 3037.38 2033.02 Q3039.1 2027.79 3042.59 2022.32 L3046.29 2022.32 Z" fill="#000000" fill-rule="nonzero" fill-opacity="1" /><path clip-path="url(#clip850)" d="M3054.56 2032.37 L3058.82 2032.37 L3058.82 2058.76 Q3058.82 2063.71 3056.92 2065.93 Q3055.04 2068.16 3050.85 2068.16 L3049.23 2068.16 L3049.23 2064.55 L3050.37 2064.55 Q3052.8 2064.55 3053.68 2063.41 Q3054.56 2062.3 3054.56 2058.76 L3054.56 2032.37 M3054.56 2022.28 L3058.82 2022.28 L3058.82 2027.67 L3054.56 2027.67 L3054.56 2022.28 Z" fill="#000000" fill-rule="nonzero" fill-opacity="1" /><path clip-path="url(#clip850)" d="M3067.29 2048.06 L3067.29 2032.37 L3071.55 2032.37 L3071.55 2047.9 Q3071.55 2051.58 3072.98 2053.43 Q3074.42 2055.26 3077.29 2055.26 Q3080.74 2055.26 3082.73 2053.06 Q3084.74 2050.87 3084.74 2047.07 L3084.74 2032.37 L3089 2032.37 L3089 2058.3 L3084.74 2058.3 L3084.74 2054.31 Q3083.19 2056.68 3081.13 2057.83 Q3079.09 2058.97 3076.39 2058.97 Q3071.92 2058.97 3069.6 2056.19 Q3067.29 2053.41 3067.29 2048.06 M3078.01 2031.74 L3078.01 2031.74 Z" fill="#000000" fill-rule="nonzero" fill-opacity="1" /><path clip-path="url(#clip850)" d="M3117.96 2037.35 Q3119.56 2034.48 3121.78 2033.11 Q3124 2031.74 3127.01 2031.74 Q3131.06 2031.74 3133.26 2034.59 Q3135.46 2037.42 3135.46 2042.65 L3135.46 2058.3 L3131.18 2058.3 L3131.18 2042.79 Q3131.18 2039.06 3129.86 2037.25 Q3128.54 2035.45 3125.83 2035.45 Q3122.52 2035.45 3120.6 2037.65 Q3118.68 2039.85 3118.68 2043.64 L3118.68 2058.3 L3114.4 2058.3 L3114.4 2042.79 Q3114.4 2039.04 3113.08 2037.25 Q3111.76 2035.45 3109 2035.45 Q3105.74 2035.45 3103.82 2037.67 Q3101.9 2039.87 3101.9 2043.64 L3101.9 2058.3 L3097.61 2058.3 L3097.61 2032.37 L3101.9 2032.37 L3101.9 2036.4 Q3103.35 2034.01 3105.39 2032.88 Q3107.43 2031.74 3110.23 2031.74 Q3113.05 2031.74 3115.02 2033.18 Q3117.01 2034.62 3117.96 2037.35 Z" fill="#000000" fill-rule="nonzero" fill-opacity="1" /><path clip-path="url(#clip850)" d="M3148.08 2054.41 L3148.08 2068.16 L3143.79 2068.16 L3143.79 2032.37 L3148.08 2032.37 L3148.08 2036.3 Q3149.42 2033.99 3151.46 2032.88 Q3153.52 2031.74 3156.36 2031.74 Q3161.09 2031.74 3164.02 2035.49 Q3166.99 2039.24 3166.99 2045.36 Q3166.99 2051.47 3164.02 2055.22 Q3161.09 2058.97 3156.36 2058.97 Q3153.52 2058.97 3151.46 2057.86 Q3149.42 2056.72 3148.08 2054.41 M3162.57 2045.36 Q3162.57 2040.66 3160.62 2037.99 Q3158.7 2035.31 3155.32 2035.31 Q3151.94 2035.31 3150 2037.99 Q3148.08 2040.66 3148.08 2045.36 Q3148.08 2050.05 3150 2052.74 Q3151.94 2055.4 3155.32 2055.4 Q3158.7 2055.4 3160.62 2052.74 Q3162.57 2050.05 3162.57 2045.36 Z" fill="#000000" fill-rule="nonzero" fill-opacity="1" /><path clip-path="url(#clip850)" d="M3175.14 2052.42 L3180.02 2052.42 L3180.02 2056.4 L3176.22 2063.8 L3173.24 2063.8 L3175.14 2056.4 L3175.14 2052.42 Z" fill="#000000" fill-rule="nonzero" fill-opacity="1" /><path clip-path="url(#clip850)" d="M3224.37 2037.35 Q3225.97 2034.48 3228.19 2033.11 Q3230.41 2031.74 3233.42 2031.74 Q3237.47 2031.74 3239.67 2034.59 Q3241.87 2037.42 3241.87 2042.65 L3241.87 2058.3 L3237.59 2058.3 L3237.59 2042.79 Q3237.59 2039.06 3236.27 2037.25 Q3234.95 2035.45 3232.24 2035.45 Q3228.93 2035.45 3227.01 2037.65 Q3225.09 2039.85 3225.09 2043.64 L3225.09 2058.3 L3220.81 2058.3 L3220.81 2042.79 Q3220.81 2039.04 3219.49 2037.25 Q3218.17 2035.45 3215.41 2035.45 Q3212.15 2035.45 3210.23 2037.67 Q3208.31 2039.87 3208.31 2043.64 L3208.31 2058.3 L3204.02 2058.3 L3204.02 2032.37 L3208.31 2032.37 L3208.31 2036.4 Q3209.77 2034.01 3211.8 2032.88 Q3213.84 2031.74 3216.64 2031.74 Q3219.46 2031.74 3221.43 2033.18 Q3223.42 2034.62 3224.37 2037.35 Z" fill="#000000" fill-rule="nonzero" fill-opacity="1" /><path clip-path="url(#clip850)" d="M3262.15 2045.26 Q3256.99 2045.26 3255 2046.44 Q3253.01 2047.62 3253.01 2050.47 Q3253.01 2052.74 3254.49 2054.08 Q3255.99 2055.4 3258.56 2055.4 Q3262.1 2055.4 3264.23 2052.9 Q3266.39 2050.38 3266.39 2046.21 L3266.39 2045.26 L3262.15 2045.26 M3270.64 2043.5 L3270.64 2058.3 L3266.39 2058.3 L3266.39 2054.36 Q3264.93 2056.72 3262.75 2057.86 Q3260.58 2058.97 3257.43 2058.97 Q3253.45 2058.97 3251.08 2056.74 Q3248.75 2054.5 3248.75 2050.75 Q3248.75 2046.37 3251.66 2044.15 Q3254.6 2041.93 3260.41 2041.93 L3266.39 2041.93 L3266.39 2041.51 Q3266.39 2038.57 3264.44 2036.98 Q3262.52 2035.36 3259.02 2035.36 Q3256.8 2035.36 3254.7 2035.89 Q3252.59 2036.42 3250.64 2037.49 L3250.64 2033.55 Q3252.98 2032.65 3255.18 2032.21 Q3257.38 2031.74 3259.46 2031.74 Q3265.09 2031.74 3267.87 2034.66 Q3270.64 2037.58 3270.64 2043.5 Z" fill="#000000" fill-rule="nonzero" fill-opacity="1" /><path clip-path="url(#clip850)" d="M3296.48 2036.3 L3296.48 2022.28 L3300.74 2022.28 L3300.74 2058.3 L3296.48 2058.3 L3296.48 2054.41 Q3295.14 2056.72 3293.08 2057.86 Q3291.04 2058.97 3288.17 2058.97 Q3283.47 2058.97 3280.51 2055.22 Q3277.57 2051.47 3277.57 2045.36 Q3277.57 2039.24 3280.51 2035.49 Q3283.47 2031.74 3288.17 2031.74 Q3291.04 2031.74 3293.08 2032.88 Q3295.14 2033.99 3296.48 2036.3 M3281.96 2045.36 Q3281.96 2050.05 3283.89 2052.74 Q3285.83 2055.4 3289.21 2055.4 Q3292.59 2055.4 3294.53 2052.74 Q3296.48 2050.05 3296.48 2045.36 Q3296.48 2040.66 3294.53 2037.99 Q3292.59 2035.31 3289.21 2035.31 Q3285.83 2035.31 3283.89 2037.99 Q3281.96 2040.66 3281.96 2045.36 Z" fill="#000000" fill-rule="nonzero" fill-opacity="1" /><path clip-path="url(#clip850)" d="M3331.06 2042.65 L3331.06 2058.3 L3326.8 2058.3 L3326.8 2042.79 Q3326.8 2039.11 3325.37 2037.28 Q3323.93 2035.45 3321.06 2035.45 Q3317.61 2035.45 3315.62 2037.65 Q3313.63 2039.85 3313.63 2043.64 L3313.63 2058.3 L3309.35 2058.3 L3309.35 2032.37 L3313.63 2032.37 L3313.63 2036.4 Q3315.16 2034.06 3317.22 2032.9 Q3319.3 2031.74 3322.01 2031.74 Q3326.48 2031.74 3328.77 2034.52 Q3331.06 2037.28 3331.06 2042.65 Z" fill="#000000" fill-rule="nonzero" fill-opacity="1" /><path clip-path="url(#clip850)" d="M3339.56 2022.28 L3343.82 2022.28 L3343.82 2058.3 L3339.56 2058.3 L3339.56 2022.28 Z" fill="#000000" fill-rule="nonzero" fill-opacity="1" /><path clip-path="url(#clip850)" d="M3356.85 2054.41 L3356.85 2068.16 L3352.57 2068.16 L3352.57 2032.37 L3356.85 2032.37 L3356.85 2036.3 Q3358.19 2033.99 3360.23 2032.88 Q3362.29 2031.74 3365.13 2031.74 Q3369.86 2031.74 3372.8 2035.49 Q3375.76 2039.24 3375.76 2045.36 Q3375.76 2051.47 3372.8 2055.22 Q3369.86 2058.97 3365.13 2058.97 Q3362.29 2058.97 3360.23 2057.86 Q3358.19 2056.72 3356.85 2054.41 M3371.34 2045.36 Q3371.34 2040.66 3369.39 2037.99 Q3367.47 2035.31 3364.09 2035.31 Q3360.71 2035.31 3358.77 2037.99 Q3356.85 2040.66 3356.85 2045.36 Q3356.85 2050.05 3358.77 2052.74 Q3360.71 2055.4 3364.09 2055.4 Q3367.47 2055.4 3369.39 2052.74 Q3371.34 2050.05 3371.34 2045.36 Z" fill="#000000" fill-rule="nonzero" fill-opacity="1" /><path clip-path="url(#clip850)" d="M3382.15 2022.32 L3385.85 2022.32 Q3389.32 2027.79 3391.04 2033.02 Q3392.77 2038.25 3392.77 2043.41 Q3392.77 2048.6 3391.04 2053.85 Q3389.32 2059.11 3385.85 2064.55 L3382.15 2064.55 Q3385.23 2059.24 3386.73 2054.01 Q3388.26 2048.76 3388.26 2043.41 Q3388.26 2038.06 3386.73 2032.86 Q3385.23 2027.65 3382.15 2022.32 Z" fill="#000000" fill-rule="nonzero" fill-opacity="1" /></svg>
