<?xml version="1.0" encoding="utf-8"?>
<svg xmlns="http://www.w3.org/2000/svg" xmlns:xlink="http://www.w3.org/1999/xlink" width="900" height="600" viewBox="0 0 3600 2400">
<defs>
  <clipPath id="clip600">
    <rect x="0" y="0" width="3600" height="2400"/>
  </clipPath>
</defs>
<path clip-path="url(#clip600)" d="M0 2400 L3600 2400 L3600 0 L0 0  Z" fill="#ffffff" fill-rule="evenodd" fill-opacity="1"/>
<defs>
  <clipPath id="clip601">
    <rect x="720" y="0" width="2521" height="2400"/>
  </clipPath>
</defs>
<path clip-path="url(#clip600)" d="M290.052 2156.51 L3552.76 2156.51 L3552.76 169.184 L290.052 169.184  Z" fill="#ffffff" fill-rule="evenodd" fill-opacity="1"/>
<defs>
  <clipPath id="clip602">
    <rect x="290" y="169" width="3264" height="1988"/>
  </clipPath>
</defs>
<polyline clip-path="url(#clip602)" style="stroke:#000000; stroke-linecap:round; stroke-linejoin:round; stroke-width:2; stroke-opacity:0.1; fill:none" points="414.583,2156.51 414.583,169.184 "/>
<polyline clip-path="url(#clip602)" style="stroke:#000000; stroke-linecap:round; stroke-linejoin:round; stroke-width:2; stroke-opacity:0.1; fill:none" points="601.379,2156.51 601.379,169.184 "/>
<polyline clip-path="url(#clip602)" style="stroke:#000000; stroke-linecap:round; stroke-linejoin:round; stroke-width:2; stroke-opacity:0.1; fill:none" points="912.706,2156.51 912.706,169.184 "/>
<polyline clip-path="url(#clip602)" style="stroke:#000000; stroke-linecap:round; stroke-linejoin:round; stroke-width:2; stroke-opacity:0.1; fill:none" points="1535.36,2156.51 1535.36,169.184 "/>
<polyline clip-path="url(#clip602)" style="stroke:#000000; stroke-linecap:round; stroke-linejoin:round; stroke-width:2; stroke-opacity:0.1; fill:none" points="3403.32,2156.51 3403.32,169.184 "/>
<polyline clip-path="url(#clip602)" style="stroke:#000000; stroke-linecap:round; stroke-linejoin:round; stroke-width:2; stroke-opacity:0.1; fill:none" points="290.052,2110.79 3552.76,2110.79 "/>
<polyline clip-path="url(#clip602)" style="stroke:#000000; stroke-linecap:round; stroke-linejoin:round; stroke-width:2; stroke-opacity:0.1; fill:none" points="290.052,1663.29 3552.76,1663.29 "/>
<polyline clip-path="url(#clip602)" style="stroke:#000000; stroke-linecap:round; stroke-linejoin:round; stroke-width:2; stroke-opacity:0.1; fill:none" points="290.052,1215.8 3552.76,1215.8 "/>
<polyline clip-path="url(#clip602)" style="stroke:#000000; stroke-linecap:round; stroke-linejoin:round; stroke-width:2; stroke-opacity:0.1; fill:none" points="290.052,768.313 3552.76,768.313 "/>
<polyline clip-path="url(#clip602)" style="stroke:#000000; stroke-linecap:round; stroke-linejoin:round; stroke-width:2; stroke-opacity:0.1; fill:none" points="290.052,320.822 3552.76,320.822 "/>
<polyline clip-path="url(#clip600)" style="stroke:#000000; stroke-linecap:round; stroke-linejoin:round; stroke-width:4; stroke-opacity:1; fill:none" points="290.052,2156.51 3552.76,2156.51 "/>
<polyline clip-path="url(#clip600)" style="stroke:#000000; stroke-linecap:round; stroke-linejoin:round; stroke-width:4; stroke-opacity:1; fill:none" points="414.583,2156.51 414.583,2137.61 "/>
<polyline clip-path="url(#clip600)" style="stroke:#000000; stroke-linecap:round; stroke-linejoin:round; stroke-width:4; stroke-opacity:1; fill:none" points="601.379,2156.51 601.379,2137.61 "/>
<polyline clip-path="url(#clip600)" style="stroke:#000000; stroke-linecap:round; stroke-linejoin:round; stroke-width:4; stroke-opacity:1; fill:none" points="912.706,2156.51 912.706,2137.61 "/>
<polyline clip-path="url(#clip600)" style="stroke:#000000; stroke-linecap:round; stroke-linejoin:round; stroke-width:4; stroke-opacity:1; fill:none" points="1535.36,2156.51 1535.36,2137.61 "/>
<polyline clip-path="url(#clip600)" style="stroke:#000000; stroke-linecap:round; stroke-linejoin:round; stroke-width:4; stroke-opacity:1; fill:none" points="3403.32,2156.51 3403.32,2137.61 "/>
<path clip-path="url(#clip600)" d="M378.275 2224.57 L394.595 2224.57 L394.595 2228.51 L372.65 2228.51 L372.65 2224.57 Q375.312 2221.82 379.896 2217.19 Q384.502 2212.54 385.683 2211.19 Q387.928 2208.67 388.808 2206.93 Q389.71 2205.17 389.71 2203.48 Q389.71 2200.73 387.766 2198.99 Q385.845 2197.26 382.743 2197.26 Q380.544 2197.26 378.09 2198.02 Q375.66 2198.79 372.882 2200.34 L372.882 2195.61 Q375.706 2194.48 378.16 2193.9 Q380.613 2193.32 382.65 2193.32 Q388.021 2193.32 391.215 2196.01 Q394.409 2198.69 394.409 2203.18 Q394.409 2205.31 393.599 2207.23 Q392.812 2209.13 390.706 2211.73 Q390.127 2212.4 387.025 2215.61 Q383.923 2218.81 378.275 2224.57 Z" fill="#000000" fill-rule="nonzero" fill-opacity="1" /><path clip-path="url(#clip600)" d="M414.409 2197.03 Q410.798 2197.03 408.97 2200.59 Q407.164 2204.13 407.164 2211.26 Q407.164 2218.37 408.97 2221.93 Q410.798 2225.48 414.409 2225.48 Q418.044 2225.48 419.849 2221.93 Q421.678 2218.37 421.678 2211.26 Q421.678 2204.13 419.849 2200.59 Q418.044 2197.03 414.409 2197.03 M414.409 2193.32 Q420.219 2193.32 423.275 2197.93 Q426.354 2202.51 426.354 2211.26 Q426.354 2219.99 423.275 2224.6 Q420.219 2229.18 414.409 2229.18 Q408.599 2229.18 405.521 2224.6 Q402.465 2219.99 402.465 2211.26 Q402.465 2202.51 405.521 2197.93 Q408.599 2193.32 414.409 2193.32 Z" fill="#000000" fill-rule="nonzero" fill-opacity="1" /><path clip-path="url(#clip600)" d="M444.571 2197.03 Q440.96 2197.03 439.131 2200.59 Q437.326 2204.13 437.326 2211.26 Q437.326 2218.37 439.131 2221.93 Q440.96 2225.48 444.571 2225.48 Q448.205 2225.48 450.011 2221.93 Q451.84 2218.37 451.84 2211.26 Q451.84 2204.13 450.011 2200.59 Q448.205 2197.03 444.571 2197.03 M444.571 2193.32 Q450.381 2193.32 453.437 2197.93 Q456.516 2202.51 456.516 2211.26 Q456.516 2219.99 453.437 2224.6 Q450.381 2229.18 444.571 2229.18 Q438.761 2229.18 435.682 2224.6 Q432.627 2219.99 432.627 2211.26 Q432.627 2202.51 435.682 2197.93 Q438.761 2193.32 444.571 2193.32 Z" fill="#000000" fill-rule="nonzero" fill-opacity="1" /><path clip-path="url(#clip600)" d="M560.997 2193.95 L579.354 2193.95 L579.354 2197.88 L565.28 2197.88 L565.28 2206.36 Q566.298 2206.01 567.317 2205.85 Q568.335 2205.66 569.354 2205.66 Q575.141 2205.66 578.52 2208.83 Q581.9 2212 581.9 2217.42 Q581.9 2223 578.428 2226.1 Q574.955 2229.18 568.636 2229.18 Q566.46 2229.18 564.192 2228.81 Q561.946 2228.44 559.539 2227.7 L559.539 2223 Q561.622 2224.13 563.844 2224.69 Q566.067 2225.24 568.543 2225.24 Q572.548 2225.24 574.886 2223.14 Q577.224 2221.03 577.224 2217.42 Q577.224 2213.81 574.886 2211.7 Q572.548 2209.6 568.543 2209.6 Q566.669 2209.6 564.794 2210.01 Q562.942 2210.43 560.997 2211.31 L560.997 2193.95 Z" fill="#000000" fill-rule="nonzero" fill-opacity="1" /><path clip-path="url(#clip600)" d="M601.113 2197.03 Q597.502 2197.03 595.673 2200.59 Q593.867 2204.13 593.867 2211.26 Q593.867 2218.37 595.673 2221.93 Q597.502 2225.48 601.113 2225.48 Q604.747 2225.48 606.553 2221.93 Q608.381 2218.37 608.381 2211.26 Q608.381 2204.13 606.553 2200.59 Q604.747 2197.03 601.113 2197.03 M601.113 2193.32 Q606.923 2193.32 609.978 2197.93 Q613.057 2202.51 613.057 2211.26 Q613.057 2219.99 609.978 2224.6 Q606.923 2229.18 601.113 2229.18 Q595.303 2229.18 592.224 2224.6 Q589.168 2219.99 589.168 2211.26 Q589.168 2202.51 592.224 2197.93 Q595.303 2193.32 601.113 2193.32 Z" fill="#000000" fill-rule="nonzero" fill-opacity="1" /><path clip-path="url(#clip600)" d="M631.275 2197.03 Q627.664 2197.03 625.835 2200.59 Q624.029 2204.13 624.029 2211.26 Q624.029 2218.37 625.835 2221.93 Q627.664 2225.48 631.275 2225.48 Q634.909 2225.48 636.714 2221.93 Q638.543 2218.37 638.543 2211.26 Q638.543 2204.13 636.714 2200.59 Q634.909 2197.03 631.275 2197.03 M631.275 2193.32 Q637.085 2193.32 640.14 2197.93 Q643.219 2202.51 643.219 2211.26 Q643.219 2219.99 640.14 2224.6 Q637.085 2229.18 631.275 2229.18 Q625.464 2229.18 622.386 2224.6 Q619.33 2219.99 619.33 2211.26 Q619.33 2202.51 622.386 2197.93 Q625.464 2193.32 631.275 2193.32 Z" fill="#000000" fill-rule="nonzero" fill-opacity="1" /><path clip-path="url(#clip600)" d="M857.231 2224.57 L864.87 2224.57 L864.87 2198.21 L856.56 2199.87 L856.56 2195.61 L864.824 2193.95 L869.5 2193.95 L869.5 2224.57 L877.139 2224.57 L877.139 2228.51 L857.231 2228.51 L857.231 2224.57 Z" fill="#000000" fill-rule="nonzero" fill-opacity="1" /><path clip-path="url(#clip600)" d="M896.583 2197.03 Q892.972 2197.03 891.143 2200.59 Q889.338 2204.13 889.338 2211.26 Q889.338 2218.37 891.143 2221.93 Q892.972 2225.48 896.583 2225.48 Q900.217 2225.48 902.023 2221.93 Q903.852 2218.37 903.852 2211.26 Q903.852 2204.13 902.023 2200.59 Q900.217 2197.03 896.583 2197.03 M896.583 2193.32 Q902.393 2193.32 905.449 2197.93 Q908.527 2202.51 908.527 2211.26 Q908.527 2219.99 905.449 2224.6 Q902.393 2229.18 896.583 2229.18 Q890.773 2229.18 887.694 2224.6 Q884.639 2219.99 884.639 2211.26 Q884.639 2202.51 887.694 2197.93 Q890.773 2193.32 896.583 2193.32 Z" fill="#000000" fill-rule="nonzero" fill-opacity="1" /><path clip-path="url(#clip600)" d="M926.745 2197.03 Q923.134 2197.03 921.305 2200.59 Q919.5 2204.13 919.5 2211.26 Q919.5 2218.37 921.305 2221.93 Q923.134 2225.48 926.745 2225.48 Q930.379 2225.48 932.185 2221.93 Q934.013 2218.37 934.013 2211.26 Q934.013 2204.13 932.185 2200.59 Q930.379 2197.03 926.745 2197.03 M926.745 2193.32 Q932.555 2193.32 935.611 2197.93 Q938.689 2202.51 938.689 2211.26 Q938.689 2219.99 935.611 2224.6 Q932.555 2229.18 926.745 2229.18 Q920.935 2229.18 917.856 2224.6 Q914.801 2219.99 914.801 2211.26 Q914.801 2202.51 917.856 2197.93 Q920.935 2193.32 926.745 2193.32 Z" fill="#000000" fill-rule="nonzero" fill-opacity="1" /><path clip-path="url(#clip600)" d="M956.907 2197.03 Q953.296 2197.03 951.467 2200.59 Q949.661 2204.13 949.661 2211.26 Q949.661 2218.37 951.467 2221.93 Q953.296 2225.48 956.907 2225.48 Q960.541 2225.48 962.347 2221.93 Q964.175 2218.37 964.175 2211.26 Q964.175 2204.13 962.347 2200.59 Q960.541 2197.03 956.907 2197.03 M956.907 2193.32 Q962.717 2193.32 965.772 2197.93 Q968.851 2202.51 968.851 2211.26 Q968.851 2219.99 965.772 2224.6 Q962.717 2229.18 956.907 2229.18 Q951.097 2229.18 948.018 2224.6 Q944.962 2219.99 944.962 2211.26 Q944.962 2202.51 948.018 2197.93 Q951.097 2193.32 956.907 2193.32 Z" fill="#000000" fill-rule="nonzero" fill-opacity="1" /><path clip-path="url(#clip600)" d="M1483.97 2224.57 L1500.29 2224.57 L1500.29 2228.51 L1478.35 2228.51 L1478.35 2224.57 Q1481.01 2221.82 1485.59 2217.19 Q1490.2 2212.54 1491.38 2211.19 Q1493.62 2208.67 1494.5 2206.93 Q1495.41 2205.17 1495.41 2203.48 Q1495.41 2200.73 1493.46 2198.99 Q1491.54 2197.26 1488.44 2197.26 Q1486.24 2197.26 1483.79 2198.02 Q1481.35 2198.79 1478.58 2200.34 L1478.58 2195.61 Q1481.4 2194.48 1483.85 2193.9 Q1486.31 2193.32 1488.35 2193.32 Q1493.72 2193.32 1496.91 2196.01 Q1500.1 2198.69 1500.1 2203.18 Q1500.1 2205.31 1499.29 2207.23 Q1498.51 2209.13 1496.4 2211.73 Q1495.82 2212.4 1492.72 2215.61 Q1489.62 2218.81 1483.97 2224.57 Z" fill="#000000" fill-rule="nonzero" fill-opacity="1" /><path clip-path="url(#clip600)" d="M1520.1 2197.03 Q1516.49 2197.03 1514.66 2200.59 Q1512.86 2204.13 1512.86 2211.26 Q1512.86 2218.37 1514.66 2221.93 Q1516.49 2225.48 1520.1 2225.48 Q1523.74 2225.48 1525.54 2221.93 Q1527.37 2218.37 1527.37 2211.26 Q1527.37 2204.13 1525.54 2200.59 Q1523.74 2197.03 1520.1 2197.03 M1520.1 2193.32 Q1525.91 2193.32 1528.97 2197.93 Q1532.05 2202.51 1532.05 2211.26 Q1532.05 2219.99 1528.97 2224.6 Q1525.91 2229.18 1520.1 2229.18 Q1514.29 2229.18 1511.22 2224.6 Q1508.16 2219.99 1508.16 2211.26 Q1508.16 2202.51 1511.22 2197.93 Q1514.29 2193.32 1520.1 2193.32 Z" fill="#000000" fill-rule="nonzero" fill-opacity="1" /><path clip-path="url(#clip600)" d="M1550.27 2197.03 Q1546.66 2197.03 1544.83 2200.59 Q1543.02 2204.13 1543.02 2211.26 Q1543.02 2218.37 1544.83 2221.93 Q1546.66 2225.48 1550.27 2225.48 Q1553.9 2225.48 1555.71 2221.93 Q1557.53 2218.37 1557.53 2211.26 Q1557.53 2204.13 1555.71 2200.59 Q1553.9 2197.03 1550.27 2197.03 M1550.27 2193.32 Q1556.08 2193.32 1559.13 2197.93 Q1562.21 2202.51 1562.21 2211.26 Q1562.21 2219.99 1559.13 2224.6 Q1556.08 2229.18 1550.27 2229.18 Q1544.46 2229.18 1541.38 2224.6 Q1538.32 2219.99 1538.32 2211.26 Q1538.32 2202.51 1541.38 2197.93 Q1544.46 2193.32 1550.27 2193.32 Z" fill="#000000" fill-rule="nonzero" fill-opacity="1" /><path clip-path="url(#clip600)" d="M1580.43 2197.03 Q1576.82 2197.03 1574.99 2200.59 Q1573.18 2204.13 1573.18 2211.26 Q1573.18 2218.37 1574.99 2221.93 Q1576.82 2225.48 1580.43 2225.48 Q1584.06 2225.48 1585.87 2221.93 Q1587.7 2218.37 1587.7 2211.26 Q1587.7 2204.13 1585.87 2200.59 Q1584.06 2197.03 1580.43 2197.03 M1580.43 2193.32 Q1586.24 2193.32 1589.29 2197.93 Q1592.37 2202.51 1592.37 2211.26 Q1592.37 2219.99 1589.29 2224.6 Q1586.24 2229.18 1580.43 2229.18 Q1574.62 2229.18 1571.54 2224.6 Q1568.48 2219.99 1568.48 2211.26 Q1568.48 2202.51 1571.54 2197.93 Q1574.62 2193.32 1580.43 2193.32 Z" fill="#000000" fill-rule="nonzero" fill-opacity="1" /><path clip-path="url(#clip600)" d="M3347.86 2193.95 L3366.21 2193.95 L3366.21 2197.88 L3352.14 2197.88 L3352.14 2206.36 Q3353.16 2206.01 3354.18 2205.85 Q3355.19 2205.66 3356.21 2205.66 Q3362 2205.66 3365.38 2208.83 Q3368.76 2212 3368.76 2217.42 Q3368.76 2223 3365.29 2226.1 Q3361.81 2229.18 3355.5 2229.18 Q3353.32 2229.18 3351.05 2228.81 Q3348.81 2228.44 3346.4 2227.7 L3346.4 2223 Q3348.48 2224.13 3350.7 2224.69 Q3352.93 2225.24 3355.4 2225.24 Q3359.41 2225.24 3361.75 2223.14 Q3364.08 2221.03 3364.08 2217.42 Q3364.08 2213.81 3361.75 2211.7 Q3359.41 2209.6 3355.4 2209.6 Q3353.53 2209.6 3351.65 2210.01 Q3349.8 2210.43 3347.86 2211.31 L3347.86 2193.95 Z" fill="#000000" fill-rule="nonzero" fill-opacity="1" /><path clip-path="url(#clip600)" d="M3387.97 2197.03 Q3384.36 2197.03 3382.53 2200.59 Q3380.73 2204.13 3380.73 2211.26 Q3380.73 2218.37 3382.53 2221.93 Q3384.36 2225.48 3387.97 2225.48 Q3391.61 2225.48 3393.41 2221.93 Q3395.24 2218.37 3395.24 2211.26 Q3395.24 2204.13 3393.41 2200.59 Q3391.61 2197.03 3387.97 2197.03 M3387.97 2193.32 Q3393.78 2193.32 3396.84 2197.93 Q3399.92 2202.51 3399.92 2211.26 Q3399.92 2219.99 3396.84 2224.6 Q3393.78 2229.18 3387.97 2229.18 Q3382.16 2229.18 3379.08 2224.6 Q3376.03 2219.99 3376.03 2211.26 Q3376.03 2202.51 3379.08 2197.93 Q3382.16 2193.32 3387.97 2193.32 Z" fill="#000000" fill-rule="nonzero" fill-opacity="1" /><path clip-path="url(#clip600)" d="M3418.13 2197.03 Q3414.52 2197.03 3412.69 2200.59 Q3410.89 2204.13 3410.89 2211.26 Q3410.89 2218.37 3412.69 2221.93 Q3414.52 2225.48 3418.13 2225.48 Q3421.77 2225.48 3423.57 2221.93 Q3425.4 2218.37 3425.4 2211.26 Q3425.4 2204.13 3423.57 2200.59 Q3421.77 2197.03 3418.13 2197.03 M3418.13 2193.32 Q3423.94 2193.32 3427 2197.93 Q3430.08 2202.51 3430.08 2211.26 Q3430.08 2219.99 3427 2224.6 Q3423.94 2229.18 3418.13 2229.18 Q3412.32 2229.18 3409.24 2224.6 Q3406.19 2219.99 3406.19 2211.26 Q3406.19 2202.51 3409.24 2197.93 Q3412.32 2193.32 3418.13 2193.32 Z" fill="#000000" fill-rule="nonzero" fill-opacity="1" /><path clip-path="url(#clip600)" d="M3448.3 2197.03 Q3444.68 2197.03 3442.86 2200.59 Q3441.05 2204.13 3441.05 2211.26 Q3441.05 2218.37 3442.86 2221.93 Q3444.68 2225.48 3448.3 2225.48 Q3451.93 2225.48 3453.74 2221.93 Q3455.56 2218.37 3455.56 2211.26 Q3455.56 2204.13 3453.74 2200.59 Q3451.93 2197.03 3448.3 2197.03 M3448.3 2193.32 Q3454.11 2193.32 3457.16 2197.93 Q3460.24 2202.51 3460.24 2211.26 Q3460.24 2219.99 3457.16 2224.6 Q3454.11 2229.18 3448.3 2229.18 Q3442.49 2229.18 3439.41 2224.6 Q3436.35 2219.99 3436.35 2211.26 Q3436.35 2202.51 3439.41 2197.93 Q3442.49 2193.32 3448.3 2193.32 Z" fill="#000000" fill-rule="nonzero" fill-opacity="1" /><path clip-path="url(#clip600)" d="M1797.29 2308.02 L1797.29 2296.42 L1787.74 2296.42 L1787.74 2291.62 L1803.07 2291.62 L1803.07 2310.17 Q1799.69 2312.57 1795.61 2313.81 Q1791.53 2315.03 1786.9 2315.03 Q1776.77 2315.03 1771.04 2309.12 Q1765.34 2303.19 1765.34 2292.63 Q1765.34 2282.04 1771.04 2276.14 Q1776.77 2270.21 1786.9 2270.21 Q1791.12 2270.21 1794.91 2271.25 Q1798.73 2272.29 1801.95 2274.32 L1801.95 2280.54 Q1798.71 2277.79 1795.06 2276.4 Q1791.41 2275.01 1787.39 2275.01 Q1779.46 2275.01 1775.47 2279.44 Q1771.51 2283.86 1771.51 2292.63 Q1771.51 2301.37 1775.47 2305.8 Q1779.46 2310.22 1787.39 2310.22 Q1790.49 2310.22 1792.92 2309.7 Q1795.35 2309.15 1797.29 2308.02 Z" fill="#000000" fill-rule="nonzero" fill-opacity="1" /><path clip-path="url(#clip600)" d="M1832.3 2286.76 Q1831.4 2286.24 1830.33 2286 Q1829.29 2285.74 1828.02 2285.74 Q1823.5 2285.74 1821.07 2288.7 Q1818.67 2291.62 1818.67 2297.12 L1818.67 2314.19 L1813.32 2314.19 L1813.32 2281.78 L1818.67 2281.78 L1818.67 2286.82 Q1820.35 2283.86 1823.04 2282.45 Q1825.73 2281 1829.58 2281 Q1830.13 2281 1830.79 2281.09 Q1831.46 2281.14 1832.27 2281.29 L1832.3 2286.76 Z" fill="#000000" fill-rule="nonzero" fill-opacity="1" /><path clip-path="url(#clip600)" d="M1837.88 2281.78 L1843.21 2281.78 L1843.21 2314.19 L1837.88 2314.19 L1837.88 2281.78 M1837.88 2269.16 L1843.21 2269.16 L1843.21 2275.91 L1837.88 2275.91 L1837.88 2269.16 Z" fill="#000000" fill-rule="nonzero" fill-opacity="1" /><path clip-path="url(#clip600)" d="M1875.67 2286.7 L1875.67 2269.16 L1881 2269.16 L1881 2314.19 L1875.67 2314.19 L1875.67 2309.33 Q1873.99 2312.22 1871.42 2313.64 Q1868.87 2315.03 1865.28 2315.03 Q1859.41 2315.03 1855.71 2310.34 Q1852.03 2305.65 1852.03 2298.01 Q1852.03 2290.37 1855.71 2285.69 Q1859.41 2281 1865.28 2281 Q1868.87 2281 1871.42 2282.42 Q1873.99 2283.81 1875.67 2286.7 M1857.53 2298.01 Q1857.53 2303.89 1859.93 2307.24 Q1862.36 2310.57 1866.59 2310.57 Q1870.81 2310.57 1873.24 2307.24 Q1875.67 2303.89 1875.67 2298.01 Q1875.67 2292.14 1873.24 2288.81 Q1870.81 2285.46 1866.59 2285.46 Q1862.36 2285.46 1859.93 2288.81 Q1857.53 2292.14 1857.53 2298.01 Z" fill="#000000" fill-rule="nonzero" fill-opacity="1" /><path clip-path="url(#clip600)" d="M1931.46 2282.74 L1931.46 2287.77 Q1929.2 2286.61 1926.77 2286.03 Q1924.34 2285.46 1921.74 2285.46 Q1917.77 2285.46 1915.78 2286.67 Q1913.81 2287.89 1913.81 2290.32 Q1913.81 2292.17 1915.23 2293.24 Q1916.64 2294.28 1920.93 2295.24 L1922.75 2295.64 Q1928.42 2296.86 1930.79 2299.08 Q1933.2 2301.28 1933.2 2305.25 Q1933.2 2309.76 1929.61 2312.39 Q1926.05 2315.03 1919.8 2315.03 Q1917.19 2315.03 1914.36 2314.51 Q1911.55 2314.01 1908.43 2313 L1908.43 2307.5 Q1911.38 2309.04 1914.24 2309.82 Q1917.11 2310.57 1919.91 2310.57 Q1923.68 2310.57 1925.7 2309.3 Q1927.73 2308 1927.73 2305.65 Q1927.73 2303.48 1926.25 2302.32 Q1924.8 2301.17 1919.86 2300.1 L1918 2299.66 Q1913.06 2298.62 1910.86 2296.48 Q1908.66 2294.31 1908.66 2290.55 Q1908.66 2285.98 1911.9 2283.49 Q1915.14 2281 1921.1 2281 Q1924.05 2281 1926.66 2281.43 Q1929.26 2281.87 1931.46 2282.74 Z" fill="#000000" fill-rule="nonzero" fill-opacity="1" /><path clip-path="url(#clip600)" d="M1941.67 2281.78 L1947 2281.78 L1947 2314.19 L1941.67 2314.19 L1941.67 2281.78 M1941.67 2269.16 L1947 2269.16 L1947 2275.91 L1941.67 2275.91 L1941.67 2269.16 Z" fill="#000000" fill-rule="nonzero" fill-opacity="1" /><path clip-path="url(#clip600)" d="M1955.82 2281.78 L1981.11 2281.78 L1981.11 2286.64 L1961.09 2309.93 L1981.11 2309.93 L1981.11 2314.19 L1955.1 2314.19 L1955.1 2309.33 L1975.12 2286.03 L1955.82 2286.03 L1955.82 2281.78 Z" fill="#000000" fill-rule="nonzero" fill-opacity="1" /><path clip-path="url(#clip600)" d="M2016.96 2296.65 L2016.96 2299.26 L1992.48 2299.26 Q1992.83 2304.75 1995.78 2307.65 Q1998.76 2310.51 2004.06 2310.51 Q2007.12 2310.51 2009.99 2309.76 Q2012.88 2309.01 2015.72 2307.5 L2015.72 2312.54 Q2012.85 2313.75 2009.84 2314.39 Q2006.83 2315.03 2003.74 2315.03 Q1995.98 2315.03 1991.44 2310.51 Q1986.93 2306 1986.93 2298.3 Q1986.93 2290.35 1991.21 2285.69 Q1995.52 2281 2002.81 2281 Q2009.35 2281 2013.14 2285.22 Q2016.96 2289.42 2016.96 2296.65 M2011.64 2295.09 Q2011.58 2290.72 2009.18 2288.12 Q2006.81 2285.51 2002.87 2285.51 Q1998.41 2285.51 1995.72 2288.03 Q1993.06 2290.55 1992.66 2295.12 L2011.64 2295.09 Z" fill="#000000" fill-rule="nonzero" fill-opacity="1" /><path clip-path="url(#clip600)" d="M2044.77 2270.99 L2052.64 2270.99 L2071.79 2307.13 L2071.79 2270.99 L2077.47 2270.99 L2077.47 2314.19 L2069.59 2314.19 L2050.44 2278.05 L2050.44 2314.19 L2044.77 2314.19 L2044.77 2270.99 Z" fill="#000000" fill-rule="nonzero" fill-opacity="1" /><polyline clip-path="url(#clip600)" style="stroke:#000000; stroke-linecap:round; stroke-linejoin:round; stroke-width:4; stroke-opacity:1; fill:none" points="290.052,2156.51 290.052,169.184 "/>
<polyline clip-path="url(#clip600)" style="stroke:#000000; stroke-linecap:round; stroke-linejoin:round; stroke-width:4; stroke-opacity:1; fill:none" points="290.052,2110.79 308.95,2110.79 "/>
<polyline clip-path="url(#clip600)" style="stroke:#000000; stroke-linecap:round; stroke-linejoin:round; stroke-width:4; stroke-opacity:1; fill:none" points="290.052,1663.29 308.95,1663.29 "/>
<polyline clip-path="url(#clip600)" style="stroke:#000000; stroke-linecap:round; stroke-linejoin:round; stroke-width:4; stroke-opacity:1; fill:none" points="290.052,1215.8 308.95,1215.8 "/>
<polyline clip-path="url(#clip600)" style="stroke:#000000; stroke-linecap:round; stroke-linejoin:round; stroke-width:4; stroke-opacity:1; fill:none" points="290.052,768.313 308.95,768.313 "/>
<polyline clip-path="url(#clip600)" style="stroke:#000000; stroke-linecap:round; stroke-linejoin:round; stroke-width:4; stroke-opacity:1; fill:none" points="290.052,320.822 308.95,320.822 "/>
<path clip-path="url(#clip600)" d="M178.877 2096.58 Q175.266 2096.58 173.437 2100.15 Q171.631 2103.69 171.631 2110.82 Q171.631 2117.93 173.437 2121.49 Q175.266 2125.03 178.877 2125.03 Q182.511 2125.03 184.316 2121.49 Q186.145 2117.93 186.145 2110.82 Q186.145 2103.69 184.316 2100.15 Q182.511 2096.58 178.877 2096.58 M178.877 2092.88 Q184.687 2092.88 187.742 2097.49 Q190.821 2102.07 190.821 2110.82 Q190.821 2119.55 187.742 2124.15 Q184.687 2128.74 178.877 2128.74 Q173.067 2128.74 169.988 2124.15 Q166.932 2119.55 166.932 2110.82 Q166.932 2102.07 169.988 2097.49 Q173.067 2092.88 178.877 2092.88 Z" fill="#000000" fill-rule="nonzero" fill-opacity="1" /><path clip-path="url(#clip600)" d="M199.039 2122.19 L203.923 2122.19 L203.923 2128.07 L199.039 2128.07 L199.039 2122.19 Z" fill="#000000" fill-rule="nonzero" fill-opacity="1" /><path clip-path="url(#clip600)" d="M224.108 2096.58 Q220.497 2096.58 218.668 2100.15 Q216.863 2103.69 216.863 2110.82 Q216.863 2117.93 218.668 2121.49 Q220.497 2125.03 224.108 2125.03 Q227.742 2125.03 229.548 2121.49 Q231.376 2117.93 231.376 2110.82 Q231.376 2103.69 229.548 2100.15 Q227.742 2096.58 224.108 2096.58 M224.108 2092.88 Q229.918 2092.88 232.974 2097.49 Q236.052 2102.07 236.052 2110.82 Q236.052 2119.55 232.974 2124.15 Q229.918 2128.74 224.108 2128.74 Q218.298 2128.74 215.219 2124.15 Q212.164 2119.55 212.164 2110.82 Q212.164 2102.07 215.219 2097.49 Q218.298 2092.88 224.108 2092.88 Z" fill="#000000" fill-rule="nonzero" fill-opacity="1" /><path clip-path="url(#clip600)" d="M179.872 1649.09 Q176.261 1649.09 174.432 1652.66 Q172.627 1656.2 172.627 1663.33 Q172.627 1670.44 174.432 1674 Q176.261 1677.54 179.872 1677.54 Q183.506 1677.54 185.312 1674 Q187.141 1670.44 187.141 1663.33 Q187.141 1656.2 185.312 1652.66 Q183.506 1649.09 179.872 1649.09 M179.872 1645.39 Q185.682 1645.39 188.738 1650 Q191.816 1654.58 191.816 1663.33 Q191.816 1672.06 188.738 1676.66 Q185.682 1681.25 179.872 1681.25 Q174.062 1681.25 170.983 1676.66 Q167.928 1672.06 167.928 1663.33 Q167.928 1654.58 170.983 1650 Q174.062 1645.39 179.872 1645.39 Z" fill="#000000" fill-rule="nonzero" fill-opacity="1" /><path clip-path="url(#clip600)" d="M200.034 1674.7 L204.918 1674.7 L204.918 1680.57 L200.034 1680.57 L200.034 1674.7 Z" fill="#000000" fill-rule="nonzero" fill-opacity="1" /><path clip-path="url(#clip600)" d="M215.15 1646.01 L233.506 1646.01 L233.506 1649.95 L219.432 1649.95 L219.432 1658.42 Q220.451 1658.07 221.469 1657.91 Q222.488 1657.73 223.506 1657.73 Q229.293 1657.73 232.673 1660.9 Q236.052 1664.07 236.052 1669.49 Q236.052 1675.07 232.58 1678.17 Q229.108 1681.25 222.788 1681.25 Q220.613 1681.25 218.344 1680.88 Q216.099 1680.51 213.691 1679.76 L213.691 1675.07 Q215.775 1676.2 217.997 1676.76 Q220.219 1677.31 222.696 1677.31 Q226.7 1677.31 229.038 1675.2 Q231.376 1673.1 231.376 1669.49 Q231.376 1665.88 229.038 1663.77 Q226.7 1661.66 222.696 1661.66 Q220.821 1661.66 218.946 1662.08 Q217.094 1662.5 215.15 1663.38 L215.15 1646.01 Z" fill="#000000" fill-rule="nonzero" fill-opacity="1" /><path clip-path="url(#clip600)" d="M169.687 1229.15 L177.326 1229.15 L177.326 1202.78 L169.016 1204.45 L169.016 1200.19 L177.279 1198.52 L181.955 1198.52 L181.955 1229.15 L189.594 1229.15 L189.594 1233.08 L169.687 1233.08 L169.687 1229.15 Z" fill="#000000" fill-rule="nonzero" fill-opacity="1" /><path clip-path="url(#clip600)" d="M199.039 1227.2 L203.923 1227.2 L203.923 1233.08 L199.039 1233.08 L199.039 1227.2 Z" fill="#000000" fill-rule="nonzero" fill-opacity="1" /><path clip-path="url(#clip600)" d="M224.108 1201.6 Q220.497 1201.6 218.668 1205.17 Q216.863 1208.71 216.863 1215.84 Q216.863 1222.94 218.668 1226.51 Q220.497 1230.05 224.108 1230.05 Q227.742 1230.05 229.548 1226.51 Q231.376 1222.94 231.376 1215.84 Q231.376 1208.71 229.548 1205.17 Q227.742 1201.6 224.108 1201.6 M224.108 1197.9 Q229.918 1197.9 232.974 1202.51 Q236.052 1207.09 236.052 1215.84 Q236.052 1224.57 232.974 1229.17 Q229.918 1233.76 224.108 1233.76 Q218.298 1233.76 215.219 1229.17 Q212.164 1224.57 212.164 1215.84 Q212.164 1207.09 215.219 1202.51 Q218.298 1197.9 224.108 1197.9 Z" fill="#000000" fill-rule="nonzero" fill-opacity="1" /><path clip-path="url(#clip600)" d="M170.682 781.658 L178.321 781.658 L178.321 755.292 L170.011 756.959 L170.011 752.699 L178.275 751.033 L182.951 751.033 L182.951 781.658 L190.59 781.658 L190.59 785.593 L170.682 785.593 L170.682 781.658 Z" fill="#000000" fill-rule="nonzero" fill-opacity="1" /><path clip-path="url(#clip600)" d="M200.034 779.713 L204.918 779.713 L204.918 785.593 L200.034 785.593 L200.034 779.713 Z" fill="#000000" fill-rule="nonzero" fill-opacity="1" /><path clip-path="url(#clip600)" d="M215.15 751.033 L233.506 751.033 L233.506 754.968 L219.432 754.968 L219.432 763.44 Q220.451 763.093 221.469 762.931 Q222.488 762.746 223.506 762.746 Q229.293 762.746 232.673 765.917 Q236.052 769.088 236.052 774.505 Q236.052 780.084 232.58 783.185 Q229.108 786.264 222.788 786.264 Q220.613 786.264 218.344 785.894 Q216.099 785.523 213.691 784.783 L213.691 780.084 Q215.775 781.218 217.997 781.773 Q220.219 782.329 222.696 782.329 Q226.7 782.329 229.038 780.222 Q231.376 778.116 231.376 774.505 Q231.376 770.894 229.038 768.787 Q226.7 766.681 222.696 766.681 Q220.821 766.681 218.946 767.098 Q217.094 767.514 215.15 768.394 L215.15 751.033 Z" fill="#000000" fill-rule="nonzero" fill-opacity="1" /><path clip-path="url(#clip600)" d="M172.904 334.167 L189.224 334.167 L189.224 338.102 L167.28 338.102 L167.28 334.167 Q169.942 331.412 174.525 326.783 Q179.131 322.13 180.312 320.787 Q182.557 318.264 183.437 316.528 Q184.34 314.769 184.34 313.079 Q184.34 310.324 182.395 308.588 Q180.474 306.852 177.372 306.852 Q175.173 306.852 172.719 307.616 Q170.289 308.38 167.511 309.931 L167.511 305.209 Q170.335 304.074 172.789 303.496 Q175.242 302.917 177.279 302.917 Q182.65 302.917 185.844 305.602 Q189.039 308.287 189.039 312.778 Q189.039 314.908 188.228 316.829 Q187.441 318.727 185.335 321.32 Q184.756 321.991 181.654 325.208 Q178.553 328.403 172.904 334.167 Z" fill="#000000" fill-rule="nonzero" fill-opacity="1" /><path clip-path="url(#clip600)" d="M199.039 332.222 L203.923 332.222 L203.923 338.102 L199.039 338.102 L199.039 332.222 Z" fill="#000000" fill-rule="nonzero" fill-opacity="1" /><path clip-path="url(#clip600)" d="M224.108 306.621 Q220.497 306.621 218.668 310.185 Q216.863 313.727 216.863 320.857 Q216.863 327.963 218.668 331.528 Q220.497 335.07 224.108 335.07 Q227.742 335.07 229.548 331.528 Q231.376 327.963 231.376 320.857 Q231.376 313.727 229.548 310.185 Q227.742 306.621 224.108 306.621 M224.108 302.917 Q229.918 302.917 232.974 307.523 Q236.052 312.107 236.052 320.857 Q236.052 329.583 232.974 334.19 Q229.918 338.773 224.108 338.773 Q218.298 338.773 215.219 334.19 Q212.164 329.583 212.164 320.857 Q212.164 312.107 215.219 307.523 Q218.298 302.917 224.108 302.917 Z" fill="#000000" fill-rule="nonzero" fill-opacity="1" /><path clip-path="url(#clip600)" d="M58.1901 1335.81 L63.8903 1335.81 Q62.2989 1339.13 61.5176 1342.08 Q60.7364 1345.04 60.7364 1347.78 Q60.7364 1352.56 62.5882 1355.16 Q64.4401 1357.74 67.8544 1357.74 Q70.719 1357.74 72.1947 1356.03 Q73.6414 1354.29 74.5384 1349.49 L75.2618 1345.96 Q76.506 1339.42 79.6599 1336.33 Q82.7849 1333.2 88.0511 1333.2 Q94.33 1333.2 97.5707 1337.43 Q100.811 1341.62 100.811 1349.75 Q100.811 1352.82 100.117 1356.29 Q99.4225 1359.73 98.0626 1363.44 L92.0441 1363.44 Q94.0406 1359.88 95.0533 1356.46 Q96.0661 1353.05 96.0661 1349.75 Q96.0661 1344.75 94.0985 1342.03 Q92.1309 1339.31 88.4851 1339.31 Q85.3022 1339.31 83.5083 1341.27 Q81.7143 1343.21 80.8173 1347.67 L80.1229 1351.23 Q78.8208 1357.77 76.043 1360.69 Q73.2653 1363.61 68.3174 1363.61 Q62.5882 1363.61 59.2896 1359.59 Q55.991 1355.54 55.991 1348.45 Q55.991 1345.41 56.5408 1342.26 Q57.0906 1339.1 58.1901 1335.81 Z" fill="#000000" fill-rule="nonzero" fill-opacity="1" /><path clip-path="url(#clip600)" d="M71.2977 1311.76 Q71.2977 1316.04 74.6541 1318.53 Q77.9817 1321.02 83.7976 1321.02 Q89.6135 1321.02 92.97 1318.56 Q96.2975 1316.07 96.2975 1311.76 Q96.2975 1307.51 92.9411 1305.02 Q89.5846 1302.53 83.7976 1302.53 Q78.0395 1302.53 74.6831 1305.02 Q71.2977 1307.51 71.2977 1311.76 M66.7838 1311.76 Q66.7838 1304.82 71.2977 1300.85 Q75.8115 1296.89 83.7976 1296.89 Q91.7547 1296.89 96.2975 1300.85 Q100.811 1304.82 100.811 1311.76 Q100.811 1318.73 96.2975 1322.7 Q91.7547 1326.63 83.7976 1326.63 Q75.8115 1326.63 71.2977 1322.7 Q66.7838 1318.73 66.7838 1311.76 Z" fill="#000000" fill-rule="nonzero" fill-opacity="1" /><path clip-path="url(#clip600)" d="M54.9494 1288.06 L54.9494 1282.74 L99.9723 1282.74 L99.9723 1288.06 L54.9494 1288.06 Z" fill="#000000" fill-rule="nonzero" fill-opacity="1" /><path clip-path="url(#clip600)" d="M67.565 1275.42 L67.565 1269.78 L94.764 1259.65 L67.565 1249.52 L67.565 1243.88 L99.9723 1256.03 L99.9723 1263.27 L67.565 1275.42 Z" fill="#000000" fill-rule="nonzero" fill-opacity="1" /><path clip-path="url(#clip600)" d="M82.4377 1208.81 L85.0418 1208.81 L85.0418 1233.29 Q90.5395 1232.94 93.433 1229.99 Q96.2975 1227.01 96.2975 1221.71 Q96.2975 1218.65 95.5452 1215.78 Q94.7929 1212.89 93.2883 1210.05 L98.323 1210.05 Q99.5383 1212.92 100.175 1215.93 Q100.811 1218.94 100.811 1222.03 Q100.811 1229.79 96.2975 1234.33 Q91.7837 1238.84 84.087 1238.84 Q76.1298 1238.84 71.4713 1234.56 Q66.7838 1230.25 66.7838 1222.96 Q66.7838 1216.42 71.0083 1212.63 Q75.2039 1208.81 82.4377 1208.81 M80.8752 1214.13 Q76.506 1214.19 73.9018 1216.59 Q71.2977 1218.97 71.2977 1222.9 Q71.2977 1227.36 73.815 1230.05 Q76.3324 1232.71 80.9041 1233.11 L80.8752 1214.13 Z" fill="#000000" fill-rule="nonzero" fill-opacity="1" /><path clip-path="url(#clip600)" d="M58.3637 1175.97 L67.565 1175.97 L67.565 1165 L71.7028 1165 L71.7028 1175.97 L89.2953 1175.97 Q93.2594 1175.97 94.3878 1174.9 Q95.5163 1173.8 95.5163 1170.47 L95.5163 1165 L99.9723 1165 L99.9723 1170.47 Q99.9723 1176.63 97.6864 1178.98 Q95.3716 1181.32 89.2953 1181.32 L71.7028 1181.32 L71.7028 1185.23 L67.565 1185.23 L67.565 1181.32 L58.3637 1181.32 L58.3637 1175.97 Z" fill="#000000" fill-rule="nonzero" fill-opacity="1" /><path clip-path="url(#clip600)" d="M67.565 1158 L67.565 1152.68 L99.9723 1152.68 L99.9723 1158 L67.565 1158 M54.9494 1158 L54.9494 1152.68 L61.6912 1152.68 L61.6912 1158 L54.9494 1158 Z" fill="#000000" fill-rule="nonzero" fill-opacity="1" /><path clip-path="url(#clip600)" d="M73.7861 1116.3 Q70.1981 1114.31 68.491 1111.53 Q66.7838 1108.75 66.7838 1104.99 Q66.7838 1099.93 70.3428 1097.18 Q73.8729 1094.43 80.4122 1094.43 L99.9723 1094.43 L99.9723 1099.78 L80.5858 1099.78 Q75.9273 1099.78 73.6703 1101.43 Q71.4134 1103.08 71.4134 1106.47 Q71.4134 1110.6 74.1622 1113.01 Q76.9111 1115.41 81.6564 1115.41 L99.9723 1115.41 L99.9723 1120.76 L80.5858 1120.76 Q75.8983 1120.76 73.6703 1122.41 Q71.4134 1124.06 71.4134 1127.5 Q71.4134 1131.58 74.1912 1133.98 Q76.94 1136.38 81.6564 1136.38 L99.9723 1136.38 L99.9723 1141.74 L67.565 1141.74 L67.565 1136.38 L72.5997 1136.38 Q69.6194 1134.56 68.2016 1132.02 Q66.7838 1129.47 66.7838 1125.97 Q66.7838 1122.44 68.5778 1119.98 Q70.3717 1117.49 73.7861 1116.3 Z" fill="#000000" fill-rule="nonzero" fill-opacity="1" /><path clip-path="url(#clip600)" d="M82.4377 1056.09 L85.0418 1056.09 L85.0418 1080.57 Q90.5395 1080.22 93.433 1077.27 Q96.2975 1074.29 96.2975 1069 Q96.2975 1065.93 95.5452 1063.06 Q94.7929 1060.17 93.2883 1057.33 L98.323 1057.33 Q99.5383 1060.2 100.175 1063.21 Q100.811 1066.22 100.811 1069.31 Q100.811 1077.07 96.2975 1081.61 Q91.7837 1086.12 84.087 1086.12 Q76.1298 1086.12 71.4713 1081.84 Q66.7838 1077.53 66.7838 1070.24 Q66.7838 1063.7 71.0083 1059.91 Q75.2039 1056.09 82.4377 1056.09 M80.8752 1061.41 Q76.506 1061.47 73.9018 1063.87 Q71.2977 1066.25 71.2977 1070.18 Q71.2977 1074.64 73.815 1077.33 Q76.3324 1079.99 80.9041 1080.4 L80.8752 1061.41 Z" fill="#000000" fill-rule="nonzero" fill-opacity="1" /><path clip-path="url(#clip600)" d="M55.0072 1015.73 Q61.6623 1019.6 68.1727 1021.48 Q74.6831 1023.36 81.3671 1023.36 Q88.0511 1023.36 94.6193 1021.48 Q101.159 1019.57 107.785 1015.73 L107.785 1020.36 Q100.985 1024.7 94.4168 1026.87 Q87.8485 1029.01 81.3671 1029.01 Q74.9145 1029.01 68.3752 1026.87 Q61.8359 1024.72 55.0072 1020.36 L55.0072 1015.73 Z" fill="#000000" fill-rule="nonzero" fill-opacity="1" /><path clip-path="url(#clip600)" d="M68.5199 984.736 L73.5546 984.736 Q72.3972 986.993 71.8185 989.424 Q71.2398 991.854 71.2398 994.459 Q71.2398 998.423 72.4551 1000.42 Q73.6703 1002.39 76.1009 1002.39 Q77.9527 1002.39 79.0233 1000.97 Q80.065 999.551 81.0198 995.269 L81.4249 993.446 Q82.6402 987.775 84.8682 985.402 Q87.0673 983 91.0314 983 Q95.5452 983 98.1783 986.588 Q100.811 990.147 100.811 996.397 Q100.811 999.001 100.291 1001.84 Q99.7987 1004.64 98.7859 1007.77 L93.2883 1007.77 Q94.8218 1004.82 95.6031 1001.95 Q96.3554 999.088 96.3554 996.281 Q96.3554 992.52 95.0823 990.494 Q93.7802 988.469 91.4364 988.469 Q89.2663 988.469 88.1089 989.945 Q86.9515 991.391 85.8809 996.339 L85.4469 998.191 Q84.4052 1003.14 82.264 1005.34 Q80.0939 1007.54 76.3324 1007.54 Q71.7606 1007.54 69.2722 1004.3 Q66.7838 1001.06 66.7838 995.095 Q66.7838 992.144 67.2178 989.54 Q67.6519 986.935 68.5199 984.736 Z" fill="#000000" fill-rule="nonzero" fill-opacity="1" /><path clip-path="url(#clip600)" d="M55.0072 975.361 L55.0072 970.732 Q61.8359 966.392 68.3752 964.25 Q74.9145 962.08 81.3671 962.08 Q87.8485 962.08 94.4168 964.25 Q100.985 966.392 107.785 970.732 L107.785 975.361 Q101.159 971.513 94.6193 969.632 Q88.0511 967.723 81.3671 967.723 Q74.6831 967.723 68.1727 969.632 Q61.6623 971.513 55.0072 975.361 Z" fill="#000000" fill-rule="nonzero" fill-opacity="1" /><path clip-path="url(#clip600)" d="M1487.16 10.0578 L1487.16 15.758 Q1483.83 14.1666 1480.88 13.3853 Q1477.93 12.6041 1475.18 12.6041 Q1470.41 12.6041 1467.8 14.4559 Q1465.23 16.3078 1465.23 19.7221 Q1465.23 22.5867 1466.94 24.0624 Q1468.67 25.5091 1473.48 26.4061 L1477.01 27.1295 Q1483.54 28.3737 1486.64 31.5276 Q1489.77 34.6526 1489.77 39.9188 Q1489.77 46.1977 1485.54 49.4384 Q1481.35 52.6791 1473.21 52.6791 Q1470.15 52.6791 1466.68 51.9847 Q1463.23 51.2902 1459.53 49.9303 L1459.53 43.9118 Q1463.09 45.9083 1466.5 46.921 Q1469.92 47.9338 1473.21 47.9338 Q1478.22 47.9338 1480.94 45.9662 Q1483.66 43.9986 1483.66 40.3528 Q1483.66 37.1699 1481.69 35.376 Q1479.75 33.582 1475.3 32.685 L1471.74 31.9906 Q1465.2 30.6885 1462.28 27.9107 Q1459.36 25.133 1459.36 20.1851 Q1459.36 14.4559 1463.38 11.1573 Q1467.43 7.85875 1474.52 7.85875 Q1477.56 7.85875 1480.71 8.40852 Q1483.86 8.95829 1487.16 10.0578 Z" fill="#000000" fill-rule="nonzero" fill-opacity="1" /><path clip-path="url(#clip600)" d="M1511.21 23.1654 Q1506.92 23.1654 1504.44 26.5218 Q1501.95 29.8494 1501.95 35.6653 Q1501.95 41.4813 1504.41 44.8377 Q1506.9 48.1653 1511.21 48.1653 Q1515.46 48.1653 1517.95 44.8088 Q1520.44 41.4523 1520.44 35.6653 Q1520.44 29.9072 1517.95 26.5508 Q1515.46 23.1654 1511.21 23.1654 M1511.21 18.6515 Q1518.15 18.6515 1522.12 23.1654 Q1526.08 27.6792 1526.08 35.6653 Q1526.08 43.6225 1522.12 48.1653 Q1518.15 52.6791 1511.21 52.6791 Q1504.23 52.6791 1500.27 48.1653 Q1496.33 43.6225 1496.33 35.6653 Q1496.33 27.6792 1500.27 23.1654 Q1504.23 18.6515 1511.21 18.6515 Z" fill="#000000" fill-rule="nonzero" fill-opacity="1" /><path clip-path="url(#clip600)" d="M1534.9 6.81709 L1540.23 6.81709 L1540.23 51.84 L1534.9 51.84 L1534.9 6.81709 Z" fill="#000000" fill-rule="nonzero" fill-opacity="1" /><path clip-path="url(#clip600)" d="M1547.55 19.4328 L1553.19 19.4328 L1563.32 46.6317 L1573.45 19.4328 L1579.09 19.4328 L1566.94 51.84 L1559.7 51.84 L1547.55 19.4328 Z" fill="#000000" fill-rule="nonzero" fill-opacity="1" /><path clip-path="url(#clip600)" d="M1614.16 34.3054 L1614.16 36.9095 L1589.68 36.9095 Q1590.03 42.4072 1592.98 45.3007 Q1595.96 48.1653 1601.25 48.1653 Q1604.32 48.1653 1607.18 47.4129 Q1610.08 46.6606 1612.91 45.156 L1612.91 50.1907 Q1610.05 51.406 1607.04 52.0425 Q1604.03 52.6791 1600.93 52.6791 Q1593.18 52.6791 1588.64 48.1653 Q1584.12 43.6514 1584.12 35.9547 Q1584.12 27.9975 1588.41 23.339 Q1592.72 18.6515 1600.01 18.6515 Q1606.55 18.6515 1610.34 22.876 Q1614.16 27.0716 1614.16 34.3054 M1608.83 32.7429 Q1608.78 28.3737 1606.37 25.7695 Q1604 23.1654 1600.07 23.1654 Q1595.61 23.1654 1592.92 25.6827 Q1590.26 28.2001 1589.85 32.7718 L1608.83 32.7429 Z" fill="#000000" fill-rule="nonzero" fill-opacity="1" /><path clip-path="url(#clip600)" d="M1647 10.2314 L1647 19.4328 L1657.97 19.4328 L1657.97 23.5705 L1647 23.5705 L1647 41.163 Q1647 45.1271 1648.07 46.2555 Q1649.17 47.384 1652.5 47.384 L1657.97 47.384 L1657.97 51.84 L1652.5 51.84 Q1646.33 51.84 1643.99 49.5541 Q1641.65 47.2393 1641.65 41.163 L1641.65 23.5705 L1637.74 23.5705 L1637.74 19.4328 L1641.65 19.4328 L1641.65 10.2314 L1647 10.2314 Z" fill="#000000" fill-rule="nonzero" fill-opacity="1" /><path clip-path="url(#clip600)" d="M1664.97 19.4328 L1670.29 19.4328 L1670.29 51.84 L1664.97 51.84 L1664.97 19.4328 M1664.97 6.81709 L1670.29 6.81709 L1670.29 13.559 L1664.97 13.559 L1664.97 6.81709 Z" fill="#000000" fill-rule="nonzero" fill-opacity="1" /><path clip-path="url(#clip600)" d="M1706.66 25.6538 Q1708.66 22.0659 1711.44 20.3587 Q1714.21 18.6515 1717.98 18.6515 Q1723.04 18.6515 1725.79 22.2105 Q1728.54 25.7406 1728.54 32.2799 L1728.54 51.84 L1723.18 51.84 L1723.18 32.4535 Q1723.18 27.795 1721.54 25.5381 Q1719.89 23.2811 1716.5 23.2811 Q1712.36 23.2811 1709.96 26.03 Q1707.56 28.7788 1707.56 33.5241 L1707.56 51.84 L1702.21 51.84 L1702.21 32.4535 Q1702.21 27.7661 1700.56 25.5381 Q1698.91 23.2811 1695.46 23.2811 Q1691.39 23.2811 1688.98 26.0589 Q1686.58 28.8077 1686.58 33.5241 L1686.58 51.84 L1681.23 51.84 L1681.23 19.4328 L1686.58 19.4328 L1686.58 24.4675 Q1688.4 21.4872 1690.95 20.0693 Q1693.5 18.6515 1697 18.6515 Q1700.53 18.6515 1702.99 20.4455 Q1705.48 22.2395 1706.66 25.6538 Z" fill="#000000" fill-rule="nonzero" fill-opacity="1" /><path clip-path="url(#clip600)" d="M1766.88 34.3054 L1766.88 36.9095 L1742.4 36.9095 Q1742.74 42.4072 1745.7 45.3007 Q1748.68 48.1653 1753.97 48.1653 Q1757.04 48.1653 1759.9 47.4129 Q1762.8 46.6606 1765.63 45.156 L1765.63 50.1907 Q1762.77 51.406 1759.76 52.0425 Q1756.75 52.6791 1753.65 52.6791 Q1745.9 52.6791 1741.36 48.1653 Q1736.84 43.6514 1736.84 35.9547 Q1736.84 27.9975 1741.12 23.339 Q1745.44 18.6515 1752.73 18.6515 Q1759.27 18.6515 1763.06 22.876 Q1766.88 27.0716 1766.88 34.3054 M1761.55 32.7429 Q1761.49 28.3737 1759.09 25.7695 Q1756.72 23.1654 1752.79 23.1654 Q1748.33 23.1654 1745.64 25.6827 Q1742.98 28.2001 1742.57 32.7718 L1761.55 32.7429 Z" fill="#000000" fill-rule="nonzero" fill-opacity="1" /><path clip-path="url(#clip600)" d="M1790.63 19.4328 L1796.27 19.4328 L1806.4 46.6317 L1816.53 19.4328 L1822.17 19.4328 L1810.02 51.84 L1802.78 51.84 L1790.63 19.4328 Z" fill="#000000" fill-rule="nonzero" fill-opacity="1" /><path clip-path="url(#clip600)" d="M1850.18 20.3876 L1850.18 25.4223 Q1847.92 24.2649 1845.49 23.6862 Q1843.06 23.1075 1840.46 23.1075 Q1836.49 23.1075 1834.5 24.3228 Q1832.53 25.5381 1832.53 27.9686 Q1832.53 29.8204 1833.95 30.891 Q1835.37 31.9327 1839.65 32.8876 L1841.47 33.2926 Q1847.14 34.5079 1849.52 36.7359 Q1851.92 38.935 1851.92 42.8991 Q1851.92 47.4129 1848.33 50.046 Q1844.77 52.6791 1838.52 52.6791 Q1835.92 52.6791 1833.08 52.1583 Q1830.27 51.6664 1827.15 50.6537 L1827.15 45.156 Q1830.1 46.6896 1832.96 47.4708 Q1835.83 48.2231 1838.64 48.2231 Q1842.4 48.2231 1844.42 46.95 Q1846.45 45.6479 1846.45 43.3042 Q1846.45 41.134 1844.97 39.9766 Q1843.53 38.8192 1838.58 37.7486 L1836.73 37.3146 Q1831.78 36.273 1829.58 34.1318 Q1827.38 31.9616 1827.38 28.2001 Q1827.38 23.6283 1830.62 21.1399 Q1833.86 18.6515 1839.82 18.6515 Q1842.77 18.6515 1845.38 19.0855 Q1847.98 19.5196 1850.18 20.3876 Z" fill="#000000" fill-rule="nonzero" fill-opacity="1" /><path clip-path="url(#clip600)" d="M1900.56 35.2602 Q1900.56 29.4732 1898.15 26.2904 Q1895.78 23.1075 1891.47 23.1075 Q1887.19 23.1075 1884.79 26.2904 Q1882.41 29.4732 1882.41 35.2602 Q1882.41 41.0183 1884.79 44.2012 Q1887.19 47.384 1891.47 47.384 Q1895.78 47.384 1898.15 44.2012 Q1900.56 41.0183 1900.56 35.2602 M1905.88 47.818 Q1905.88 56.0934 1902.21 60.1154 Q1898.53 64.1663 1890.95 64.1663 Q1888.14 64.1663 1885.65 63.7323 Q1883.17 63.3272 1880.82 62.4592 L1880.82 57.2798 Q1883.17 58.5529 1885.45 59.1606 Q1887.74 59.7682 1890.11 59.7682 Q1895.35 59.7682 1897.95 57.0194 Q1900.56 54.2995 1900.56 48.7729 L1900.56 46.1398 Q1898.91 49.0044 1896.33 50.4222 Q1893.76 51.84 1890.17 51.84 Q1884.21 51.84 1880.56 47.2972 Q1876.92 42.7544 1876.92 35.2602 Q1876.92 27.7371 1880.56 23.1943 Q1884.21 18.6515 1890.17 18.6515 Q1893.76 18.6515 1896.33 20.0693 Q1898.91 21.4872 1900.56 24.3517 L1900.56 19.4328 L1905.88 19.4328 L1905.88 47.818 Z" fill="#000000" fill-rule="nonzero" fill-opacity="1" /><path clip-path="url(#clip600)" d="M1935.63 24.4096 Q1934.73 23.8888 1933.66 23.6573 Q1932.62 23.3969 1931.34 23.3969 Q1926.83 23.3969 1924.4 26.3482 Q1922 29.2707 1922 34.7683 L1922 51.84 L1916.64 51.84 L1916.64 19.4328 L1922 19.4328 L1922 24.4675 Q1923.68 21.5161 1926.37 20.0983 Q1929.06 18.6515 1932.91 18.6515 Q1933.46 18.6515 1934.12 18.7383 Q1934.79 18.7962 1935.6 18.9409 L1935.63 24.4096 Z" fill="#000000" fill-rule="nonzero" fill-opacity="1" /><path clip-path="url(#clip600)" d="M1941.21 19.4328 L1946.53 19.4328 L1946.53 51.84 L1941.21 51.84 L1941.21 19.4328 M1941.21 6.81709 L1946.53 6.81709 L1946.53 13.559 L1941.21 13.559 L1941.21 6.81709 Z" fill="#000000" fill-rule="nonzero" fill-opacity="1" /><path clip-path="url(#clip600)" d="M1979 24.3517 L1979 6.81709 L1984.32 6.81709 L1984.32 51.84 L1979 51.84 L1979 46.9789 Q1977.32 49.8724 1974.75 51.2902 Q1972.2 52.6791 1968.61 52.6791 Q1962.74 52.6791 1959.03 47.9916 Q1955.36 43.3042 1955.36 35.6653 Q1955.36 28.0265 1959.03 23.339 Q1962.74 18.6515 1968.61 18.6515 Q1972.2 18.6515 1974.75 20.0693 Q1977.32 21.4582 1979 24.3517 M1960.86 35.6653 Q1960.86 41.5391 1963.26 44.8956 Q1965.69 48.2231 1969.91 48.2231 Q1974.14 48.2231 1976.57 44.8956 Q1979 41.5391 1979 35.6653 Q1979 29.7915 1976.57 26.464 Q1974.14 23.1075 1969.91 23.1075 Q1965.69 23.1075 1963.26 26.464 Q1960.86 29.7915 1960.86 35.6653 Z" fill="#000000" fill-rule="nonzero" fill-opacity="1" /><path clip-path="url(#clip600)" d="M2034.79 20.3876 L2034.79 25.4223 Q2032.53 24.2649 2030.1 23.6862 Q2027.67 23.1075 2025.06 23.1075 Q2021.1 23.1075 2019.1 24.3228 Q2017.14 25.5381 2017.14 27.9686 Q2017.14 29.8204 2018.55 30.891 Q2019.97 31.9327 2024.25 32.8876 L2026.08 33.2926 Q2031.75 34.5079 2034.12 36.7359 Q2036.52 38.935 2036.52 42.8991 Q2036.52 47.4129 2032.93 50.046 Q2029.38 52.6791 2023.13 52.6791 Q2020.52 52.6791 2017.69 52.1583 Q2014.88 51.6664 2011.75 50.6537 L2011.75 45.156 Q2014.71 46.6896 2017.57 47.4708 Q2020.43 48.2231 2023.24 48.2231 Q2027 48.2231 2029.03 46.95 Q2031.05 45.6479 2031.05 43.3042 Q2031.05 41.134 2029.58 39.9766 Q2028.13 38.8192 2023.18 37.7486 L2021.33 37.3146 Q2016.38 36.273 2014.18 34.1318 Q2011.99 31.9616 2011.99 28.2001 Q2011.99 23.6283 2015.23 21.1399 Q2018.47 18.6515 2024.43 18.6515 Q2027.38 18.6515 2029.98 19.0855 Q2032.59 19.5196 2034.79 20.3876 Z" fill="#000000" fill-rule="nonzero" fill-opacity="1" /><path clip-path="url(#clip600)" d="M2045 19.4328 L2050.32 19.4328 L2050.32 51.84 L2045 51.84 L2045 19.4328 M2045 6.81709 L2050.32 6.81709 L2050.32 13.559 L2045 13.559 L2045 6.81709 Z" fill="#000000" fill-rule="nonzero" fill-opacity="1" /><path clip-path="url(#clip600)" d="M2059.15 19.4328 L2084.44 19.4328 L2084.44 24.2939 L2064.42 47.5866 L2084.44 47.5866 L2084.44 51.84 L2058.43 51.84 L2058.43 46.9789 L2078.45 23.6862 L2059.15 23.6862 L2059.15 19.4328 Z" fill="#000000" fill-rule="nonzero" fill-opacity="1" /><path clip-path="url(#clip600)" d="M2120.29 34.3054 L2120.29 36.9095 L2095.81 36.9095 Q2096.16 42.4072 2099.11 45.3007 Q2102.09 48.1653 2107.38 48.1653 Q2110.45 48.1653 2113.32 47.4129 Q2116.21 46.6606 2119.04 45.156 L2119.04 50.1907 Q2116.18 51.406 2113.17 52.0425 Q2110.16 52.6791 2107.07 52.6791 Q2099.31 52.6791 2094.77 48.1653 Q2090.25 43.6514 2090.25 35.9547 Q2090.25 27.9975 2094.54 23.339 Q2098.85 18.6515 2106.14 18.6515 Q2112.68 18.6515 2116.47 22.876 Q2120.29 27.0716 2120.29 34.3054 M2114.96 32.7429 Q2114.91 28.3737 2112.51 25.7695 Q2110.13 23.1654 2106.2 23.1654 Q2101.74 23.1654 2099.05 25.6827 Q2096.39 28.2001 2095.98 32.7718 L2114.96 32.7429 Z" fill="#000000" fill-rule="nonzero" fill-opacity="1" /><path clip-path="url(#clip600)" d="M2145.17 33.5241 L2198.65 33.5241 L2198.65 37.6908 L2145.17 37.6908 L2145.17 33.5241 Z" fill="#000000" fill-rule="nonzero" fill-opacity="1" /><path clip-path="url(#clip600)" d="M2249.22 35.6653 Q2249.22 29.7915 2246.79 26.464 Q2244.39 23.1075 2240.17 23.1075 Q2235.94 23.1075 2233.51 26.464 Q2231.11 29.7915 2231.11 35.6653 Q2231.11 41.5391 2233.51 44.8956 Q2235.94 48.2231 2240.17 48.2231 Q2244.39 48.2231 2246.79 44.8956 Q2249.22 41.5391 2249.22 35.6653 M2231.11 24.3517 Q2232.79 21.4582 2235.33 20.0693 Q2237.91 18.6515 2241.47 18.6515 Q2247.37 18.6515 2251.05 23.339 Q2254.75 28.0265 2254.75 35.6653 Q2254.75 43.3042 2251.05 47.9916 Q2247.37 52.6791 2241.47 52.6791 Q2237.91 52.6791 2235.33 51.2902 Q2232.79 49.8724 2231.11 46.9789 L2231.11 51.84 L2225.76 51.84 L2225.76 6.81709 L2231.11 6.81709 L2231.11 24.3517 Z" fill="#000000" fill-rule="nonzero" fill-opacity="1" /><path clip-path="url(#clip600)" d="M2291.3 34.3054 L2291.3 36.9095 L2266.82 36.9095 Q2267.16 42.4072 2270.11 45.3007 Q2273.09 48.1653 2278.39 48.1653 Q2281.46 48.1653 2284.32 47.4129 Q2287.22 46.6606 2290.05 45.156 L2290.05 50.1907 Q2287.19 51.406 2284.18 52.0425 Q2281.17 52.6791 2278.07 52.6791 Q2270.32 52.6791 2265.77 48.1653 Q2261.26 43.6514 2261.26 35.9547 Q2261.26 27.9975 2265.54 23.339 Q2269.85 18.6515 2277.15 18.6515 Q2283.69 18.6515 2287.48 22.876 Q2291.3 27.0716 2291.3 34.3054 M2285.97 32.7429 Q2285.91 28.3737 2283.51 25.7695 Q2281.14 23.1654 2277.2 23.1654 Q2272.75 23.1654 2270.06 25.6827 Q2267.39 28.2001 2266.99 32.7718 L2285.97 32.7429 Z" fill="#000000" fill-rule="nonzero" fill-opacity="1" /><path clip-path="url(#clip600)" d="M2314.76 35.5496 Q2308.31 35.5496 2305.82 37.0253 Q2303.33 38.501 2303.33 42.06 Q2303.33 44.8956 2305.18 46.5738 Q2307.06 48.2231 2310.28 48.2231 Q2314.7 48.2231 2317.37 45.0981 Q2320.06 41.9442 2320.06 36.7359 L2320.06 35.5496 L2314.76 35.5496 M2325.38 33.3505 L2325.38 51.84 L2320.06 51.84 L2320.06 46.921 Q2318.23 49.8724 2315.51 51.2902 Q2312.79 52.6791 2308.86 52.6791 Q2303.88 52.6791 2300.93 49.9014 Q2298.01 47.0947 2298.01 42.4072 Q2298.01 36.9385 2301.65 34.1607 Q2305.33 31.3829 2312.59 31.3829 L2320.06 31.3829 L2320.06 30.8621 Q2320.06 27.1874 2317.63 25.1908 Q2315.22 23.1654 2310.86 23.1654 Q2308.08 23.1654 2305.44 23.8309 Q2302.81 24.4964 2300.38 25.8274 L2300.38 20.9085 Q2303.3 19.78 2306.05 19.2302 Q2308.8 18.6515 2311.4 18.6515 Q2318.44 18.6515 2321.91 22.2973 Q2325.38 25.9431 2325.38 33.3505 Z" fill="#000000" fill-rule="nonzero" fill-opacity="1" /><path clip-path="url(#clip600)" d="M2361.58 25.6538 Q2363.57 22.0659 2366.35 20.3587 Q2369.13 18.6515 2372.89 18.6515 Q2377.96 18.6515 2380.7 22.2105 Q2383.45 25.7406 2383.45 32.2799 L2383.45 51.84 L2378.1 51.84 L2378.1 32.4535 Q2378.1 27.795 2376.45 25.5381 Q2374.8 23.2811 2371.42 23.2811 Q2367.28 23.2811 2364.88 26.03 Q2362.48 28.7788 2362.48 33.5241 L2362.48 51.84 L2357.12 51.84 L2357.12 32.4535 Q2357.12 27.7661 2355.47 25.5381 Q2353.82 23.2811 2350.38 23.2811 Q2346.3 23.2811 2343.9 26.0589 Q2341.5 28.8077 2341.5 33.5241 L2341.5 51.84 L2336.14 51.84 L2336.14 19.4328 L2341.5 19.4328 L2341.5 24.4675 Q2343.32 21.4872 2345.87 20.0693 Q2348.41 18.6515 2351.91 18.6515 Q2355.44 18.6515 2357.9 20.4455 Q2360.39 22.2395 2361.58 25.6538 Z" fill="#000000" fill-rule="nonzero" fill-opacity="1" /><polyline clip-path="url(#clip602)" style="stroke:#0000ff; stroke-linecap:round; stroke-linejoin:round; stroke-width:6; stroke-opacity:1; fill:none" points="414.583,2099.15 601.379,2081.58 912.706,2023.42 1535.36,1959.27 3403.32,1086.84 "/>
<circle clip-path="url(#clip602)" cx="414.583" cy="2099.15" r="14.4" fill="#0000ff" fill-rule="evenodd" fill-opacity="1" stroke="none"/>
<circle clip-path="url(#clip602)" cx="601.379" cy="2081.58" r="14.4" fill="#0000ff" fill-rule="evenodd" fill-opacity="1" stroke="none"/>
<circle clip-path="url(#clip602)" cx="912.706" cy="2023.42" r="14.4" fill="#0000ff" fill-rule="evenodd" fill-opacity="1" stroke="none"/>
<circle clip-path="url(#clip602)" cx="1535.36" cy="1959.27" r="14.4" fill="#0000ff" fill-rule="evenodd" fill-opacity="1" stroke="none"/>
<circle clip-path="url(#clip602)" cx="3403.32" cy="1086.84" r="14.4" fill="#0000ff" fill-rule="evenodd" fill-opacity="1" stroke="none"/>
<polyline clip-path="url(#clip602)" style="stroke:#ff0000; stroke-linecap:round; stroke-linejoin:round; stroke-width:6; stroke-opacity:1; fill:none" points="414.583,2100.26 601.379,2090.22 912.706,2058.85 1535.36,1978.02 3403.32,1743.4 "/>
<circle clip-path="url(#clip602)" cx="414.583" cy="2100.26" r="14.4" fill="#ff0000" fill-rule="evenodd" fill-opacity="1" stroke="none"/>
<circle clip-path="url(#clip602)" cx="601.379" cy="2090.22" r="14.4" fill="#ff0000" fill-rule="evenodd" fill-opacity="1" stroke="none"/>
<circle clip-path="url(#clip602)" cx="912.706" cy="2058.85" r="14.4" fill="#ff0000" fill-rule="evenodd" fill-opacity="1" stroke="none"/>
<circle clip-path="url(#clip602)" cx="1535.36" cy="1978.02" r="14.4" fill="#ff0000" fill-rule="evenodd" fill-opacity="1" stroke="none"/>
<circle clip-path="url(#clip602)" cx="3403.32" cy="1743.4" r="14.4" fill="#ff0000" fill-rule="evenodd" fill-opacity="1" stroke="none"/>
<polyline clip-path="url(#clip602)" style="stroke:#008000; stroke-linecap:round; stroke-linejoin:round; stroke-width:6; stroke-opacity:1; fill:none" points="414.583,2095.14 601.379,2071.21 912.706,1990.03 1535.36,1827.61 3403.32,225.429 "/>
<circle clip-path="url(#clip602)" cx="414.583" cy="2095.14" r="14.4" fill="#008000" fill-rule="evenodd" fill-opacity="1" stroke="none"/>
<circle clip-path="url(#clip602)" cx="601.379" cy="2071.21" r="14.4" fill="#008000" fill-rule="evenodd" fill-opacity="1" stroke="none"/>
<circle clip-path="url(#clip602)" cx="912.706" cy="1990.03" r="14.4" fill="#008000" fill-rule="evenodd" fill-opacity="1" stroke="none"/>
<circle clip-path="url(#clip602)" cx="1535.36" cy="1827.61" r="14.4" fill="#008000" fill-rule="evenodd" fill-opacity="1" stroke="none"/>
<circle clip-path="url(#clip602)" cx="3403.32" cy="225.429" r="14.4" fill="#008000" fill-rule="evenodd" fill-opacity="1" stroke="none"/>
<polyline clip-path="url(#clip602)" style="stroke:#ffa500; stroke-linecap:round; stroke-linejoin:round; stroke-width:6; stroke-opacity:1; fill:none" points="414.583,2095.1 601.379,2079.32 912.706,2028.88 1535.36,1903.82 3403.32,1417.75 "/>
<circle clip-path="url(#clip602)" cx="414.583" cy="2095.1" r="14.4" fill="#ffa500" fill-rule="evenodd" fill-opacity="1" stroke="none"/>
<circle clip-path="url(#clip602)" cx="601.379" cy="2079.32" r="14.4" fill="#ffa500" fill-rule="evenodd" fill-opacity="1" stroke="none"/>
<circle clip-path="url(#clip602)" cx="912.706" cy="2028.88" r="14.4" fill="#ffa500" fill-rule="evenodd" fill-opacity="1" stroke="none"/>
<circle clip-path="url(#clip602)" cx="1535.36" cy="1903.82" r="14.4" fill="#ffa500" fill-rule="evenodd" fill-opacity="1" stroke="none"/>
<circle clip-path="url(#clip602)" cx="3403.32" cy="1417.75" r="14.4" fill="#ffa500" fill-rule="evenodd" fill-opacity="1" stroke="none"/>
<polyline clip-path="url(#clip602)" style="stroke:#800080; stroke-linecap:round; stroke-linejoin:round; stroke-width:6; stroke-opacity:1; fill:none" points="414.583,2099.09 601.379,2082.33 912.706,2020.55 1535.36,1935.72 3403.32,1111.81 "/>
<circle clip-path="url(#clip602)" cx="414.583" cy="2099.09" r="14.4" fill="#800080" fill-rule="evenodd" fill-opacity="1" stroke="none"/>
<circle clip-path="url(#clip602)" cx="601.379" cy="2082.33" r="14.4" fill="#800080" fill-rule="evenodd" fill-opacity="1" stroke="none"/>
<circle clip-path="url(#clip602)" cx="912.706" cy="2020.55" r="14.4" fill="#800080" fill-rule="evenodd" fill-opacity="1" stroke="none"/>
<circle clip-path="url(#clip602)" cx="1535.36" cy="1935.72" r="14.4" fill="#800080" fill-rule="evenodd" fill-opacity="1" stroke="none"/>
<circle clip-path="url(#clip602)" cx="3403.32" cy="1111.81" r="14.4" fill="#800080" fill-rule="evenodd" fill-opacity="1" stroke="none"/>
<polyline clip-path="url(#clip602)" style="stroke:#a52a2a; stroke-linecap:round; stroke-linejoin:round; stroke-width:6; stroke-opacity:1; fill:none" points="414.583,2100.25 601.379,2090.04 912.706,2058.13 1535.36,1970.7 3403.32,1824.94 "/>
<circle clip-path="url(#clip602)" cx="414.583" cy="2100.25" r="14.4" fill="#a52a2a" fill-rule="evenodd" fill-opacity="1" stroke="none"/>
<circle clip-path="url(#clip602)" cx="601.379" cy="2090.04" r="14.4" fill="#a52a2a" fill-rule="evenodd" fill-opacity="1" stroke="none"/>
<circle clip-path="url(#clip602)" cx="912.706" cy="2058.13" r="14.4" fill="#a52a2a" fill-rule="evenodd" fill-opacity="1" stroke="none"/>
<circle clip-path="url(#clip602)" cx="1535.36" cy="1970.7" r="14.4" fill="#a52a2a" fill-rule="evenodd" fill-opacity="1" stroke="none"/>
<circle clip-path="url(#clip602)" cx="3403.32" cy="1824.94" r="14.4" fill="#a52a2a" fill-rule="evenodd" fill-opacity="1" stroke="none"/>
<path clip-path="url(#clip600)" d="M2747.66 2090.26 L3444 2090.26 L3444 1727.38 L2747.66 1727.38  Z" fill="#ffffff" fill-rule="evenodd" fill-opacity="1"/>
<polyline clip-path="url(#clip600)" style="stroke:#000000; stroke-linecap:round; stroke-linejoin:round; stroke-width:4; stroke-opacity:1; fill:none" points="2747.66,2090.26 3444,2090.26 3444,1727.38 2747.66,1727.38 2747.66,2090.26 "/>
<polyline clip-path="url(#clip600)" style="stroke:#0000ff; stroke-linecap:round; stroke-linejoin:round; stroke-width:6; stroke-opacity:1; fill:none" points="2783.91,1779.22 3001.43,1779.22 "/>
<circle clip-path="url(#clip600)" cx="2892.67" cy="1779.22" r="23.04" fill="#0000ff" fill-rule="evenodd" fill-opacity="1" stroke="none"/>
<path clip-path="url(#clip600)" d="M3048.3 1760.53 Q3045.2 1765.86 3043.7 1771.06 Q3042.19 1776.27 3042.19 1781.62 Q3042.19 1786.97 3043.7 1792.22 Q3045.23 1797.45 3048.3 1802.75 L3044.6 1802.75 Q3041.13 1797.31 3039.39 1792.06 Q3037.68 1786.8 3037.68 1781.62 Q3037.68 1776.46 3039.39 1771.23 Q3041.11 1765.99 3044.6 1760.53 L3048.3 1760.53 Z" fill="#000000" fill-rule="nonzero" fill-opacity="1" /><path clip-path="url(#clip600)" d="M3056.75 1761.94 L3061.43 1761.94 L3061.43 1794.1 Q3061.43 1800.35 3059.05 1803.17 Q3056.68 1805.99 3051.43 1805.99 L3049.65 1805.99 L3049.65 1802.06 L3051.11 1802.06 Q3054.21 1802.06 3055.48 1800.32 Q3056.75 1798.59 3056.75 1794.1 L3056.75 1761.94 Z" fill="#000000" fill-rule="nonzero" fill-opacity="1" /><path clip-path="url(#clip600)" d="M3070.11 1786.27 L3070.11 1770.58 L3074.37 1770.58 L3074.37 1786.11 Q3074.37 1789.79 3075.8 1791.64 Q3077.24 1793.47 3080.11 1793.47 Q3083.56 1793.47 3085.55 1791.27 Q3087.56 1789.07 3087.56 1785.28 L3087.56 1770.58 L3091.82 1770.58 L3091.82 1796.5 L3087.56 1796.5 L3087.56 1792.52 Q3086.01 1794.88 3083.95 1796.04 Q3081.92 1797.17 3079.21 1797.17 Q3074.74 1797.17 3072.42 1794.4 Q3070.11 1791.62 3070.11 1786.27 M3080.83 1769.95 L3080.83 1769.95 Z" fill="#000000" fill-rule="nonzero" fill-opacity="1" /><path clip-path="url(#clip600)" d="M3100.78 1761.94 L3107.75 1761.94 L3116.57 1785.46 L3125.43 1761.94 L3132.4 1761.94 L3132.4 1796.5 L3127.84 1796.5 L3127.84 1766.16 L3118.93 1789.86 L3114.23 1789.86 L3105.32 1766.16 L3105.32 1796.5 L3100.78 1796.5 L3100.78 1761.94 Z" fill="#000000" fill-rule="nonzero" fill-opacity="1" /><path clip-path="url(#clip600)" d="M3146.36 1765.79 L3146.36 1778.77 L3152.24 1778.77 Q3155.5 1778.77 3157.29 1777.08 Q3159.07 1775.39 3159.07 1772.27 Q3159.07 1769.17 3157.29 1767.48 Q3155.5 1765.79 3152.24 1765.79 L3146.36 1765.79 M3141.68 1761.94 L3152.24 1761.94 Q3158.05 1761.94 3161.01 1764.58 Q3164 1767.2 3164 1772.27 Q3164 1777.38 3161.01 1780 Q3158.05 1782.61 3152.24 1782.61 L3146.36 1782.61 L3146.36 1796.5 L3141.68 1796.5 L3141.68 1761.94 Z" fill="#000000" fill-rule="nonzero" fill-opacity="1" /><path clip-path="url(#clip600)" d="M3171.17 1790.62 L3176.06 1790.62 L3176.06 1794.61 L3172.26 1802.01 L3169.28 1802.01 L3171.17 1794.61 L3171.17 1790.62 Z" fill="#000000" fill-rule="nonzero" fill-opacity="1" /><path clip-path="url(#clip600)" d="M3200.22 1770.58 L3204.48 1770.58 L3204.48 1796.5 L3200.22 1796.5 L3200.22 1770.58 M3200.22 1760.49 L3204.48 1760.49 L3204.48 1765.88 L3200.22 1765.88 L3200.22 1760.49 Z" fill="#000000" fill-rule="nonzero" fill-opacity="1" /><path clip-path="url(#clip600)" d="M3217.52 1792.61 L3217.52 1806.36 L3213.23 1806.36 L3213.23 1770.58 L3217.52 1770.58 L3217.52 1774.51 Q3218.86 1772.2 3220.9 1771.09 Q3222.96 1769.95 3225.8 1769.95 Q3230.53 1769.95 3233.47 1773.7 Q3236.43 1777.45 3236.43 1783.56 Q3236.43 1789.67 3233.47 1793.42 Q3230.53 1797.17 3225.8 1797.17 Q3222.96 1797.17 3220.9 1796.06 Q3218.86 1794.93 3217.52 1792.61 M3232.01 1783.56 Q3232.01 1778.86 3230.06 1776.2 Q3228.14 1773.52 3224.76 1773.52 Q3221.38 1773.52 3219.44 1776.2 Q3217.52 1778.86 3217.52 1783.56 Q3217.52 1788.26 3219.44 1790.95 Q3221.38 1793.61 3224.76 1793.61 Q3228.14 1793.61 3230.06 1790.95 Q3232.01 1788.26 3232.01 1783.56 Z" fill="#000000" fill-rule="nonzero" fill-opacity="1" /><path clip-path="url(#clip600)" d="M3253.53 1773.56 Q3250.11 1773.56 3248.12 1776.25 Q3246.13 1778.91 3246.13 1783.56 Q3246.13 1788.22 3248.09 1790.9 Q3250.09 1793.56 3253.53 1793.56 Q3256.94 1793.56 3258.93 1790.88 Q3260.92 1788.19 3260.92 1783.56 Q3260.92 1778.96 3258.93 1776.27 Q3256.94 1773.56 3253.53 1773.56 M3253.53 1769.95 Q3259.09 1769.95 3262.26 1773.56 Q3265.43 1777.18 3265.43 1783.56 Q3265.43 1789.93 3262.26 1793.56 Q3259.09 1797.17 3253.53 1797.17 Q3247.96 1797.17 3244.78 1793.56 Q3241.64 1789.93 3241.64 1783.56 Q3241.64 1777.18 3244.78 1773.56 Q3247.96 1769.95 3253.53 1769.95 Z" fill="#000000" fill-rule="nonzero" fill-opacity="1" /><path clip-path="url(#clip600)" d="M3276.61 1792.61 L3276.61 1806.36 L3272.33 1806.36 L3272.33 1770.58 L3276.61 1770.58 L3276.61 1774.51 Q3277.96 1772.2 3279.99 1771.09 Q3282.05 1769.95 3284.9 1769.95 Q3289.62 1769.95 3292.56 1773.7 Q3295.53 1777.45 3295.53 1783.56 Q3295.53 1789.67 3292.56 1793.42 Q3289.62 1797.17 3284.9 1797.17 Q3282.05 1797.17 3279.99 1796.06 Q3277.96 1794.93 3276.61 1792.61 M3291.1 1783.56 Q3291.1 1778.86 3289.16 1776.2 Q3287.24 1773.52 3283.86 1773.52 Q3280.48 1773.52 3278.53 1776.2 Q3276.61 1778.86 3276.61 1783.56 Q3276.61 1788.26 3278.53 1790.95 Q3280.48 1793.61 3283.86 1793.61 Q3287.24 1793.61 3289.16 1790.95 Q3291.1 1788.26 3291.1 1783.56 Z" fill="#000000" fill-rule="nonzero" fill-opacity="1" /><path clip-path="url(#clip600)" d="M3306.8 1763.22 L3306.8 1770.58 L3315.57 1770.58 L3315.57 1773.89 L3306.8 1773.89 L3306.8 1787.96 Q3306.8 1791.13 3307.65 1792.04 Q3308.53 1792.94 3311.2 1792.94 L3315.57 1792.94 L3315.57 1796.5 L3311.2 1796.5 Q3306.27 1796.5 3304.39 1794.67 Q3302.52 1792.82 3302.52 1787.96 L3302.52 1773.89 L3299.39 1773.89 L3299.39 1770.58 L3302.52 1770.58 L3302.52 1763.22 L3306.8 1763.22 Z" fill="#000000" fill-rule="nonzero" fill-opacity="1" /><path clip-path="url(#clip600)" d="M3320.5 1760.53 L3324.21 1760.53 Q3327.68 1765.99 3329.39 1771.23 Q3331.13 1776.46 3331.13 1781.62 Q3331.13 1786.8 3329.39 1792.06 Q3327.68 1797.31 3324.21 1802.75 L3320.5 1802.75 Q3323.58 1797.45 3325.09 1792.22 Q3326.61 1786.97 3326.61 1781.62 Q3326.61 1776.27 3325.09 1771.06 Q3323.58 1765.86 3320.5 1760.53 Z" fill="#000000" fill-rule="nonzero" fill-opacity="1" /><polyline clip-path="url(#clip600)" style="stroke:#ff0000; stroke-linecap:round; stroke-linejoin:round; stroke-width:6; stroke-opacity:1; fill:none" points="2783.91,1831.06 3001.43,1831.06 "/>
<circle clip-path="url(#clip600)" cx="2892.67" cy="1831.06" r="23.04" fill="#ff0000" fill-rule="evenodd" fill-opacity="1" stroke="none"/>
<path clip-path="url(#clip600)" d="M3048.3 1812.37 Q3045.2 1817.7 3043.7 1822.9 Q3042.19 1828.11 3042.19 1833.46 Q3042.19 1838.81 3043.7 1844.06 Q3045.23 1849.29 3048.3 1854.59 L3044.6 1854.59 Q3041.13 1849.15 3039.39 1843.9 Q3037.68 1838.64 3037.68 1833.46 Q3037.68 1828.3 3039.39 1823.07 Q3041.11 1817.83 3044.6 1812.37 L3048.3 1812.37 Z" fill="#000000" fill-rule="nonzero" fill-opacity="1" /><path clip-path="url(#clip600)" d="M3056.75 1813.78 L3061.43 1813.78 L3061.43 1845.94 Q3061.43 1852.19 3059.05 1855.01 Q3056.68 1857.83 3051.43 1857.83 L3049.65 1857.83 L3049.65 1853.9 L3051.11 1853.9 Q3054.21 1853.9 3055.48 1852.16 Q3056.75 1850.43 3056.75 1845.94 L3056.75 1813.78 Z" fill="#000000" fill-rule="nonzero" fill-opacity="1" /><path clip-path="url(#clip600)" d="M3070.11 1838.11 L3070.11 1822.42 L3074.37 1822.42 L3074.37 1837.95 Q3074.37 1841.63 3075.8 1843.48 Q3077.24 1845.31 3080.11 1845.31 Q3083.56 1845.31 3085.55 1843.11 Q3087.56 1840.91 3087.56 1837.12 L3087.56 1822.42 L3091.82 1822.42 L3091.82 1848.34 L3087.56 1848.34 L3087.56 1844.36 Q3086.01 1846.72 3083.95 1847.88 Q3081.92 1849.01 3079.21 1849.01 Q3074.74 1849.01 3072.42 1846.24 Q3070.11 1843.46 3070.11 1838.11 M3080.83 1821.79 L3080.83 1821.79 Z" fill="#000000" fill-rule="nonzero" fill-opacity="1" /><path clip-path="url(#clip600)" d="M3100.78 1813.78 L3107.75 1813.78 L3116.57 1837.3 L3125.43 1813.78 L3132.4 1813.78 L3132.4 1848.34 L3127.84 1848.34 L3127.84 1818 L3118.93 1841.7 L3114.23 1841.7 L3105.32 1818 L3105.32 1848.34 L3100.78 1848.34 L3100.78 1813.78 Z" fill="#000000" fill-rule="nonzero" fill-opacity="1" /><path clip-path="url(#clip600)" d="M3146.36 1817.63 L3146.36 1830.61 L3152.24 1830.61 Q3155.5 1830.61 3157.29 1828.92 Q3159.07 1827.23 3159.07 1824.11 Q3159.07 1821.01 3157.29 1819.32 Q3155.5 1817.63 3152.24 1817.63 L3146.36 1817.63 M3141.68 1813.78 L3152.24 1813.78 Q3158.05 1813.78 3161.01 1816.42 Q3164 1819.04 3164 1824.11 Q3164 1829.22 3161.01 1831.84 Q3158.05 1834.45 3152.24 1834.45 L3146.36 1834.45 L3146.36 1848.34 L3141.68 1848.34 L3141.68 1813.78 Z" fill="#000000" fill-rule="nonzero" fill-opacity="1" /><path clip-path="url(#clip600)" d="M3171.17 1842.46 L3176.06 1842.46 L3176.06 1846.45 L3172.26 1853.85 L3169.28 1853.85 L3171.17 1846.45 L3171.17 1842.46 Z" fill="#000000" fill-rule="nonzero" fill-opacity="1" /><path clip-path="url(#clip600)" d="M3220.41 1827.39 Q3222.01 1824.52 3224.23 1823.16 Q3226.45 1821.79 3229.46 1821.79 Q3233.51 1821.79 3235.71 1824.64 Q3237.91 1827.46 3237.91 1832.7 L3237.91 1848.34 L3233.63 1848.34 L3233.63 1832.83 Q3233.63 1829.11 3232.31 1827.3 Q3230.99 1825.5 3228.28 1825.5 Q3224.97 1825.5 3223.05 1827.7 Q3221.13 1829.89 3221.13 1833.69 L3221.13 1848.34 L3216.85 1848.34 L3216.85 1832.83 Q3216.85 1829.08 3215.53 1827.3 Q3214.21 1825.5 3211.45 1825.5 Q3208.19 1825.5 3206.27 1827.72 Q3204.35 1829.92 3204.35 1833.69 L3204.35 1848.34 L3200.06 1848.34 L3200.06 1822.42 L3204.35 1822.42 L3204.35 1826.45 Q3205.8 1824.06 3207.84 1822.93 Q3209.88 1821.79 3212.68 1821.79 Q3215.5 1821.79 3217.47 1823.23 Q3219.46 1824.66 3220.41 1827.39 Z" fill="#000000" fill-rule="nonzero" fill-opacity="1" /><path clip-path="url(#clip600)" d="M3258.19 1835.31 Q3253.03 1835.31 3251.03 1836.49 Q3249.04 1837.67 3249.04 1840.52 Q3249.04 1842.79 3250.53 1844.13 Q3252.03 1845.45 3254.6 1845.45 Q3258.14 1845.45 3260.27 1842.95 Q3262.42 1840.43 3262.42 1836.26 L3262.42 1835.31 L3258.19 1835.31 M3266.68 1833.55 L3266.68 1848.34 L3262.42 1848.34 L3262.42 1844.41 Q3260.97 1846.77 3258.79 1847.9 Q3256.61 1849.01 3253.47 1849.01 Q3249.48 1849.01 3247.12 1846.79 Q3244.78 1844.55 3244.78 1840.8 Q3244.78 1836.42 3247.7 1834.2 Q3250.64 1831.98 3256.45 1831.98 L3262.42 1831.98 L3262.42 1831.56 Q3262.42 1828.62 3260.48 1827.02 Q3258.56 1825.4 3255.06 1825.4 Q3252.84 1825.4 3250.73 1825.94 Q3248.63 1826.47 3246.68 1827.53 L3246.68 1823.6 Q3249.02 1822.7 3251.22 1822.26 Q3253.42 1821.79 3255.5 1821.79 Q3261.13 1821.79 3263.91 1824.71 Q3266.68 1827.63 3266.68 1833.55 Z" fill="#000000" fill-rule="nonzero" fill-opacity="1" /><path clip-path="url(#clip600)" d="M3292.52 1826.35 L3292.52 1812.33 L3296.78 1812.33 L3296.78 1848.34 L3292.52 1848.34 L3292.52 1844.45 Q3291.17 1846.77 3289.11 1847.9 Q3287.08 1849.01 3284.21 1849.01 Q3279.51 1849.01 3276.54 1845.26 Q3273.6 1841.51 3273.6 1835.4 Q3273.6 1829.29 3276.54 1825.54 Q3279.51 1821.79 3284.21 1821.79 Q3287.08 1821.79 3289.11 1822.93 Q3291.17 1824.04 3292.52 1826.35 M3278 1835.4 Q3278 1840.1 3279.92 1842.79 Q3281.87 1845.45 3285.25 1845.45 Q3288.63 1845.45 3290.57 1842.79 Q3292.52 1840.1 3292.52 1835.4 Q3292.52 1830.7 3290.57 1828.04 Q3288.63 1825.36 3285.25 1825.36 Q3281.87 1825.36 3279.92 1828.04 Q3278 1830.7 3278 1835.4 Z" fill="#000000" fill-rule="nonzero" fill-opacity="1" /><path clip-path="url(#clip600)" d="M3327.1 1832.7 L3327.1 1848.34 L3322.84 1848.34 L3322.84 1832.83 Q3322.84 1829.15 3321.4 1827.33 Q3319.97 1825.5 3317.1 1825.5 Q3313.65 1825.5 3311.66 1827.7 Q3309.67 1829.89 3309.67 1833.69 L3309.67 1848.34 L3305.39 1848.34 L3305.39 1822.42 L3309.67 1822.42 L3309.67 1826.45 Q3311.2 1824.11 3313.26 1822.95 Q3315.34 1821.79 3318.05 1821.79 Q3322.52 1821.79 3324.81 1824.57 Q3327.1 1827.33 3327.1 1832.7 Z" fill="#000000" fill-rule="nonzero" fill-opacity="1" /><path clip-path="url(#clip600)" d="M3335.59 1812.33 L3339.85 1812.33 L3339.85 1848.34 L3335.59 1848.34 L3335.59 1812.33 Z" fill="#000000" fill-rule="nonzero" fill-opacity="1" /><path clip-path="url(#clip600)" d="M3352.89 1844.45 L3352.89 1858.2 L3348.6 1858.2 L3348.6 1822.42 L3352.89 1822.42 L3352.89 1826.35 Q3354.23 1824.04 3356.27 1822.93 Q3358.33 1821.79 3361.17 1821.79 Q3365.9 1821.79 3368.84 1825.54 Q3371.8 1829.29 3371.8 1835.4 Q3371.8 1841.51 3368.84 1845.26 Q3365.9 1849.01 3361.17 1849.01 Q3358.33 1849.01 3356.27 1847.9 Q3354.23 1846.77 3352.89 1844.45 M3367.38 1835.4 Q3367.38 1830.7 3365.43 1828.04 Q3363.51 1825.36 3360.13 1825.36 Q3356.75 1825.36 3354.81 1828.04 Q3352.89 1830.7 3352.89 1835.4 Q3352.89 1840.1 3354.81 1842.79 Q3356.75 1845.45 3360.13 1845.45 Q3363.51 1845.45 3365.43 1842.79 Q3367.38 1840.1 3367.38 1835.4 Z" fill="#000000" fill-rule="nonzero" fill-opacity="1" /><path clip-path="url(#clip600)" d="M3378.19 1812.37 L3381.89 1812.37 Q3385.36 1817.83 3387.08 1823.07 Q3388.81 1828.3 3388.81 1833.46 Q3388.81 1838.64 3387.08 1843.9 Q3385.36 1849.15 3381.89 1854.59 L3378.19 1854.59 Q3381.27 1849.29 3382.77 1844.06 Q3384.3 1838.81 3384.3 1833.46 Q3384.3 1828.11 3382.77 1822.9 Q3381.27 1817.7 3378.19 1812.37 Z" fill="#000000" fill-rule="nonzero" fill-opacity="1" /><polyline clip-path="url(#clip600)" style="stroke:#008000; stroke-linecap:round; stroke-linejoin:round; stroke-width:6; stroke-opacity:1; fill:none" points="2783.91,1882.9 3001.43,1882.9 "/>
<circle clip-path="url(#clip600)" cx="2892.67" cy="1882.9" r="23.04" fill="#008000" fill-rule="evenodd" fill-opacity="1" stroke="none"/>
<path clip-path="url(#clip600)" d="M3048.3 1864.21 Q3045.2 1869.54 3043.7 1874.74 Q3042.19 1879.95 3042.19 1885.3 Q3042.19 1890.65 3043.7 1895.9 Q3045.23 1901.13 3048.3 1906.43 L3044.6 1906.43 Q3041.13 1900.99 3039.39 1895.74 Q3037.68 1890.48 3037.68 1885.3 Q3037.68 1880.14 3039.39 1874.91 Q3041.11 1869.67 3044.6 1864.21 L3048.3 1864.21 Z" fill="#000000" fill-rule="nonzero" fill-opacity="1" /><path clip-path="url(#clip600)" d="M3068.35 1887.15 Q3063.19 1887.15 3061.2 1888.33 Q3059.21 1889.51 3059.21 1892.36 Q3059.21 1894.63 3060.69 1895.97 Q3062.19 1897.29 3064.76 1897.29 Q3068.3 1897.29 3070.43 1894.79 Q3072.59 1892.27 3072.59 1888.1 L3072.59 1887.15 L3068.35 1887.15 M3076.85 1885.39 L3076.85 1900.18 L3072.59 1900.18 L3072.59 1896.25 Q3071.13 1898.61 3068.95 1899.74 Q3066.78 1900.85 3063.63 1900.85 Q3059.65 1900.85 3057.29 1898.63 Q3054.95 1896.39 3054.95 1892.64 Q3054.95 1888.26 3057.86 1886.04 Q3060.8 1883.82 3066.61 1883.82 L3072.59 1883.82 L3072.59 1883.4 Q3072.59 1880.46 3070.64 1878.86 Q3068.72 1877.24 3065.23 1877.24 Q3063 1877.24 3060.9 1877.78 Q3058.79 1878.31 3056.85 1879.37 L3056.85 1875.44 Q3059.18 1874.54 3061.38 1874.1 Q3063.58 1873.63 3065.67 1873.63 Q3071.29 1873.63 3074.07 1876.55 Q3076.85 1879.47 3076.85 1885.39 Z" fill="#000000" fill-rule="nonzero" fill-opacity="1" /><path clip-path="url(#clip600)" d="M3102.68 1878.19 L3102.68 1864.17 L3106.94 1864.17 L3106.94 1900.18 L3102.68 1900.18 L3102.68 1896.29 Q3101.34 1898.61 3099.28 1899.74 Q3097.24 1900.85 3094.37 1900.85 Q3089.67 1900.85 3086.71 1897.1 Q3083.77 1893.35 3083.77 1887.24 Q3083.77 1881.13 3086.71 1877.38 Q3089.67 1873.63 3094.37 1873.63 Q3097.24 1873.63 3099.28 1874.77 Q3101.34 1875.88 3102.68 1878.19 M3088.17 1887.24 Q3088.17 1891.94 3090.09 1894.63 Q3092.03 1897.29 3095.41 1897.29 Q3098.79 1897.29 3100.73 1894.63 Q3102.68 1891.94 3102.68 1887.24 Q3102.68 1882.54 3100.73 1879.88 Q3098.79 1877.2 3095.41 1877.2 Q3092.03 1877.2 3090.09 1879.88 Q3088.17 1882.54 3088.17 1887.24 Z" fill="#000000" fill-rule="nonzero" fill-opacity="1" /><path clip-path="url(#clip600)" d="M3137.26 1884.54 L3137.26 1900.18 L3133 1900.18 L3133 1884.67 Q3133 1880.99 3131.57 1879.17 Q3130.13 1877.34 3127.26 1877.34 Q3123.81 1877.34 3121.82 1879.54 Q3119.83 1881.73 3119.83 1885.53 L3119.83 1900.18 L3115.55 1900.18 L3115.55 1874.26 L3119.83 1874.26 L3119.83 1878.29 Q3121.36 1875.95 3123.42 1874.79 Q3125.5 1873.63 3128.21 1873.63 Q3132.68 1873.63 3134.97 1876.41 Q3137.26 1879.17 3137.26 1884.54 Z" fill="#000000" fill-rule="nonzero" fill-opacity="1" /><path clip-path="url(#clip600)" d="M3145.76 1864.17 L3150.02 1864.17 L3150.02 1900.18 L3145.76 1900.18 L3145.76 1864.17 Z" fill="#000000" fill-rule="nonzero" fill-opacity="1" /><path clip-path="url(#clip600)" d="M3163.05 1896.29 L3163.05 1910.04 L3158.77 1910.04 L3158.77 1874.26 L3163.05 1874.26 L3163.05 1878.19 Q3164.39 1875.88 3166.43 1874.77 Q3168.49 1873.63 3171.34 1873.63 Q3176.06 1873.63 3179 1877.38 Q3181.96 1881.13 3181.96 1887.24 Q3181.96 1893.35 3179 1897.1 Q3176.06 1900.85 3171.34 1900.85 Q3168.49 1900.85 3166.43 1899.74 Q3164.39 1898.61 3163.05 1896.29 M3177.54 1887.24 Q3177.54 1882.54 3175.6 1879.88 Q3173.67 1877.2 3170.29 1877.2 Q3166.91 1877.2 3164.97 1879.88 Q3163.05 1882.54 3163.05 1887.24 Q3163.05 1891.94 3164.97 1894.63 Q3166.91 1897.29 3170.29 1897.29 Q3173.67 1897.29 3175.6 1894.63 Q3177.54 1891.94 3177.54 1887.24 Z" fill="#000000" fill-rule="nonzero" fill-opacity="1" /><path clip-path="url(#clip600)" d="M3190.11 1894.3 L3194.99 1894.3 L3194.99 1898.29 L3191.2 1905.69 L3188.21 1905.69 L3190.11 1898.29 L3190.11 1894.3 Z" fill="#000000" fill-rule="nonzero" fill-opacity="1" /><path clip-path="url(#clip600)" d="M3219.16 1874.26 L3223.42 1874.26 L3223.42 1900.18 L3219.16 1900.18 L3219.16 1874.26 M3219.16 1864.17 L3223.42 1864.17 L3223.42 1869.56 L3219.16 1869.56 L3219.16 1864.17 Z" fill="#000000" fill-rule="nonzero" fill-opacity="1" /><path clip-path="url(#clip600)" d="M3236.45 1896.29 L3236.45 1910.04 L3232.17 1910.04 L3232.17 1874.26 L3236.45 1874.26 L3236.45 1878.19 Q3237.79 1875.88 3239.83 1874.77 Q3241.89 1873.63 3244.74 1873.63 Q3249.46 1873.63 3252.4 1877.38 Q3255.36 1881.13 3255.36 1887.24 Q3255.36 1893.35 3252.4 1897.1 Q3249.46 1900.85 3244.74 1900.85 Q3241.89 1900.85 3239.83 1899.74 Q3237.79 1898.61 3236.45 1896.29 M3250.94 1887.24 Q3250.94 1882.54 3249 1879.88 Q3247.08 1877.2 3243.7 1877.2 Q3240.32 1877.2 3238.37 1879.88 Q3236.45 1882.54 3236.45 1887.24 Q3236.45 1891.94 3238.37 1894.63 Q3240.32 1897.29 3243.7 1897.29 Q3247.08 1897.29 3249 1894.63 Q3250.94 1891.94 3250.94 1887.24 Z" fill="#000000" fill-rule="nonzero" fill-opacity="1" /><path clip-path="url(#clip600)" d="M3272.47 1877.24 Q3269.04 1877.24 3267.05 1879.93 Q3265.06 1882.59 3265.06 1887.24 Q3265.06 1891.9 3267.03 1894.58 Q3269.02 1897.24 3272.47 1897.24 Q3275.87 1897.24 3277.86 1894.56 Q3279.85 1891.87 3279.85 1887.24 Q3279.85 1882.64 3277.86 1879.95 Q3275.87 1877.24 3272.47 1877.24 M3272.47 1873.63 Q3278.03 1873.63 3281.2 1877.24 Q3284.37 1880.86 3284.37 1887.24 Q3284.37 1893.61 3281.2 1897.24 Q3278.03 1900.85 3272.47 1900.85 Q3266.89 1900.85 3263.72 1897.24 Q3260.57 1893.61 3260.57 1887.24 Q3260.57 1880.86 3263.72 1877.24 Q3266.89 1873.63 3272.47 1873.63 Z" fill="#000000" fill-rule="nonzero" fill-opacity="1" /><path clip-path="url(#clip600)" d="M3295.55 1896.29 L3295.55 1910.04 L3291.27 1910.04 L3291.27 1874.26 L3295.55 1874.26 L3295.55 1878.19 Q3296.89 1875.88 3298.93 1874.77 Q3300.99 1873.63 3303.84 1873.63 Q3308.56 1873.63 3311.5 1877.38 Q3314.46 1881.13 3314.46 1887.24 Q3314.46 1893.35 3311.5 1897.1 Q3308.56 1900.85 3303.84 1900.85 Q3300.99 1900.85 3298.93 1899.74 Q3296.89 1898.61 3295.55 1896.29 M3310.04 1887.24 Q3310.04 1882.54 3308.09 1879.88 Q3306.17 1877.2 3302.79 1877.2 Q3299.41 1877.2 3297.47 1879.88 Q3295.55 1882.54 3295.55 1887.24 Q3295.55 1891.94 3297.47 1894.63 Q3299.41 1897.29 3302.79 1897.29 Q3306.17 1897.29 3308.09 1894.63 Q3310.04 1891.94 3310.04 1887.24 Z" fill="#000000" fill-rule="nonzero" fill-opacity="1" /><path clip-path="url(#clip600)" d="M3325.73 1866.9 L3325.73 1874.26 L3334.51 1874.26 L3334.51 1877.57 L3325.73 1877.57 L3325.73 1891.64 Q3325.73 1894.81 3326.59 1895.72 Q3327.47 1896.62 3330.13 1896.62 L3334.51 1896.62 L3334.51 1900.18 L3330.13 1900.18 Q3325.2 1900.18 3323.33 1898.35 Q3321.45 1896.5 3321.45 1891.64 L3321.45 1877.57 L3318.33 1877.57 L3318.33 1874.26 L3321.45 1874.26 L3321.45 1866.9 L3325.73 1866.9 Z" fill="#000000" fill-rule="nonzero" fill-opacity="1" /><path clip-path="url(#clip600)" d="M3339.44 1864.21 L3343.14 1864.21 Q3346.61 1869.67 3348.33 1874.91 Q3350.06 1880.14 3350.06 1885.3 Q3350.06 1890.48 3348.33 1895.74 Q3346.61 1900.99 3343.14 1906.43 L3339.44 1906.43 Q3342.52 1901.13 3344.02 1895.9 Q3345.55 1890.65 3345.55 1885.3 Q3345.55 1879.95 3344.02 1874.74 Q3342.52 1869.54 3339.44 1864.21 Z" fill="#000000" fill-rule="nonzero" fill-opacity="1" /><polyline clip-path="url(#clip600)" style="stroke:#ffa500; stroke-linecap:round; stroke-linejoin:round; stroke-width:6; stroke-opacity:1; fill:none" points="2783.91,1934.74 3001.43,1934.74 "/>
<circle clip-path="url(#clip600)" cx="2892.67" cy="1934.74" r="23.04" fill="#ffa500" fill-rule="evenodd" fill-opacity="1" stroke="none"/>
<path clip-path="url(#clip600)" d="M3048.3 1916.05 Q3045.2 1921.38 3043.7 1926.58 Q3042.19 1931.79 3042.19 1937.14 Q3042.19 1942.49 3043.7 1947.74 Q3045.23 1952.97 3048.3 1958.27 L3044.6 1958.27 Q3041.13 1952.83 3039.39 1947.58 Q3037.68 1942.32 3037.68 1937.14 Q3037.68 1931.98 3039.39 1926.75 Q3041.11 1921.51 3044.6 1916.05 L3048.3 1916.05 Z" fill="#000000" fill-rule="nonzero" fill-opacity="1" /><path clip-path="url(#clip600)" d="M3068.35 1938.99 Q3063.19 1938.99 3061.2 1940.17 Q3059.21 1941.35 3059.21 1944.2 Q3059.21 1946.47 3060.69 1947.81 Q3062.19 1949.13 3064.76 1949.13 Q3068.3 1949.13 3070.43 1946.63 Q3072.59 1944.11 3072.59 1939.94 L3072.59 1938.99 L3068.35 1938.99 M3076.85 1937.23 L3076.85 1952.02 L3072.59 1952.02 L3072.59 1948.09 Q3071.13 1950.45 3068.95 1951.58 Q3066.78 1952.69 3063.63 1952.69 Q3059.65 1952.69 3057.29 1950.47 Q3054.95 1948.23 3054.95 1944.48 Q3054.95 1940.1 3057.86 1937.88 Q3060.8 1935.66 3066.61 1935.66 L3072.59 1935.66 L3072.59 1935.24 Q3072.59 1932.3 3070.64 1930.7 Q3068.72 1929.08 3065.23 1929.08 Q3063 1929.08 3060.9 1929.62 Q3058.79 1930.15 3056.85 1931.21 L3056.85 1927.28 Q3059.18 1926.38 3061.38 1925.94 Q3063.58 1925.47 3065.67 1925.47 Q3071.29 1925.47 3074.07 1928.39 Q3076.85 1931.31 3076.85 1937.23 Z" fill="#000000" fill-rule="nonzero" fill-opacity="1" /><path clip-path="url(#clip600)" d="M3102.68 1930.03 L3102.68 1916.01 L3106.94 1916.01 L3106.94 1952.02 L3102.68 1952.02 L3102.68 1948.13 Q3101.34 1950.45 3099.28 1951.58 Q3097.24 1952.69 3094.37 1952.69 Q3089.67 1952.69 3086.71 1948.94 Q3083.77 1945.19 3083.77 1939.08 Q3083.77 1932.97 3086.71 1929.22 Q3089.67 1925.47 3094.37 1925.47 Q3097.24 1925.47 3099.28 1926.61 Q3101.34 1927.72 3102.68 1930.03 M3088.17 1939.08 Q3088.17 1943.78 3090.09 1946.47 Q3092.03 1949.13 3095.41 1949.13 Q3098.79 1949.13 3100.73 1946.47 Q3102.68 1943.78 3102.68 1939.08 Q3102.68 1934.38 3100.73 1931.72 Q3098.79 1929.04 3095.41 1929.04 Q3092.03 1929.04 3090.09 1931.72 Q3088.17 1934.38 3088.17 1939.08 Z" fill="#000000" fill-rule="nonzero" fill-opacity="1" /><path clip-path="url(#clip600)" d="M3137.26 1936.38 L3137.26 1952.02 L3133 1952.02 L3133 1936.51 Q3133 1932.83 3131.57 1931.01 Q3130.13 1929.18 3127.26 1929.18 Q3123.81 1929.18 3121.82 1931.38 Q3119.83 1933.57 3119.83 1937.37 L3119.83 1952.02 L3115.55 1952.02 L3115.55 1926.1 L3119.83 1926.1 L3119.83 1930.13 Q3121.36 1927.79 3123.42 1926.63 Q3125.5 1925.47 3128.21 1925.47 Q3132.68 1925.47 3134.97 1928.25 Q3137.26 1931.01 3137.26 1936.38 Z" fill="#000000" fill-rule="nonzero" fill-opacity="1" /><path clip-path="url(#clip600)" d="M3145.76 1916.01 L3150.02 1916.01 L3150.02 1952.02 L3145.76 1952.02 L3145.76 1916.01 Z" fill="#000000" fill-rule="nonzero" fill-opacity="1" /><path clip-path="url(#clip600)" d="M3163.05 1948.13 L3163.05 1961.88 L3158.77 1961.88 L3158.77 1926.1 L3163.05 1926.1 L3163.05 1930.03 Q3164.39 1927.72 3166.43 1926.61 Q3168.49 1925.47 3171.34 1925.47 Q3176.06 1925.47 3179 1929.22 Q3181.96 1932.97 3181.96 1939.08 Q3181.96 1945.19 3179 1948.94 Q3176.06 1952.69 3171.34 1952.69 Q3168.49 1952.69 3166.43 1951.58 Q3164.39 1950.45 3163.05 1948.13 M3177.54 1939.08 Q3177.54 1934.38 3175.6 1931.72 Q3173.67 1929.04 3170.29 1929.04 Q3166.91 1929.04 3164.97 1931.72 Q3163.05 1934.38 3163.05 1939.08 Q3163.05 1943.78 3164.97 1946.47 Q3166.91 1949.13 3170.29 1949.13 Q3173.67 1949.13 3175.6 1946.47 Q3177.54 1943.78 3177.54 1939.08 Z" fill="#000000" fill-rule="nonzero" fill-opacity="1" /><path clip-path="url(#clip600)" d="M3190.11 1946.14 L3194.99 1946.14 L3194.99 1950.13 L3191.2 1957.53 L3188.21 1957.53 L3190.11 1950.13 L3190.11 1946.14 Z" fill="#000000" fill-rule="nonzero" fill-opacity="1" /><path clip-path="url(#clip600)" d="M3239.34 1931.07 Q3240.94 1928.2 3243.16 1926.84 Q3245.39 1925.47 3248.4 1925.47 Q3252.45 1925.47 3254.65 1928.32 Q3256.84 1931.14 3256.84 1936.38 L3256.84 1952.02 L3252.56 1952.02 L3252.56 1936.51 Q3252.56 1932.79 3251.24 1930.98 Q3249.92 1929.18 3247.22 1929.18 Q3243.91 1929.18 3241.98 1931.38 Q3240.06 1933.57 3240.06 1937.37 L3240.06 1952.02 L3235.78 1952.02 L3235.78 1936.51 Q3235.78 1932.76 3234.46 1930.98 Q3233.14 1929.18 3230.39 1929.18 Q3227.12 1929.18 3225.2 1931.4 Q3223.28 1933.6 3223.28 1937.37 L3223.28 1952.02 L3219 1952.02 L3219 1926.1 L3223.28 1926.1 L3223.28 1930.13 Q3224.74 1927.74 3226.78 1926.61 Q3228.81 1925.47 3231.61 1925.47 Q3234.44 1925.47 3236.41 1926.91 Q3238.4 1928.34 3239.34 1931.07 Z" fill="#000000" fill-rule="nonzero" fill-opacity="1" /><path clip-path="url(#clip600)" d="M3277.12 1938.99 Q3271.96 1938.99 3269.97 1940.17 Q3267.98 1941.35 3267.98 1944.2 Q3267.98 1946.47 3269.46 1947.81 Q3270.97 1949.13 3273.53 1949.13 Q3277.08 1949.13 3279.21 1946.63 Q3281.36 1944.11 3281.36 1939.94 L3281.36 1938.99 L3277.12 1938.99 M3285.62 1937.23 L3285.62 1952.02 L3281.36 1952.02 L3281.36 1948.09 Q3279.9 1950.45 3277.72 1951.58 Q3275.55 1952.69 3272.4 1952.69 Q3268.42 1952.69 3266.06 1950.47 Q3263.72 1948.23 3263.72 1944.48 Q3263.72 1940.1 3266.64 1937.88 Q3269.58 1935.66 3275.39 1935.66 L3281.36 1935.66 L3281.36 1935.24 Q3281.36 1932.3 3279.41 1930.7 Q3277.49 1929.08 3274 1929.08 Q3271.78 1929.08 3269.67 1929.62 Q3267.56 1930.15 3265.62 1931.21 L3265.62 1927.28 Q3267.96 1926.38 3270.16 1925.94 Q3272.35 1925.47 3274.44 1925.47 Q3280.06 1925.47 3282.84 1928.39 Q3285.62 1931.31 3285.62 1937.23 Z" fill="#000000" fill-rule="nonzero" fill-opacity="1" /><path clip-path="url(#clip600)" d="M3311.45 1930.03 L3311.45 1916.01 L3315.71 1916.01 L3315.71 1952.02 L3311.45 1952.02 L3311.45 1948.13 Q3310.11 1950.45 3308.05 1951.58 Q3306.01 1952.69 3303.14 1952.69 Q3298.44 1952.69 3295.48 1948.94 Q3292.54 1945.19 3292.54 1939.08 Q3292.54 1932.97 3295.48 1929.22 Q3298.44 1925.47 3303.14 1925.47 Q3306.01 1925.47 3308.05 1926.61 Q3310.11 1927.72 3311.45 1930.03 M3296.94 1939.08 Q3296.94 1943.78 3298.86 1946.47 Q3300.8 1949.13 3304.18 1949.13 Q3307.56 1949.13 3309.51 1946.47 Q3311.45 1943.78 3311.45 1939.08 Q3311.45 1934.38 3309.51 1931.72 Q3307.56 1929.04 3304.18 1929.04 Q3300.8 1929.04 3298.86 1931.72 Q3296.94 1934.38 3296.94 1939.08 Z" fill="#000000" fill-rule="nonzero" fill-opacity="1" /><path clip-path="url(#clip600)" d="M3346.03 1936.38 L3346.03 1952.02 L3341.77 1952.02 L3341.77 1936.51 Q3341.77 1932.83 3340.34 1931.01 Q3338.9 1929.18 3336.03 1929.18 Q3332.59 1929.18 3330.59 1931.38 Q3328.6 1933.57 3328.6 1937.37 L3328.6 1952.02 L3324.32 1952.02 L3324.32 1926.1 L3328.6 1926.1 L3328.6 1930.13 Q3330.13 1927.79 3332.19 1926.63 Q3334.28 1925.47 3336.98 1925.47 Q3341.45 1925.47 3343.74 1928.25 Q3346.03 1931.01 3346.03 1936.38 Z" fill="#000000" fill-rule="nonzero" fill-opacity="1" /><path clip-path="url(#clip600)" d="M3354.53 1916.01 L3358.79 1916.01 L3358.79 1952.02 L3354.53 1952.02 L3354.53 1916.01 Z" fill="#000000" fill-rule="nonzero" fill-opacity="1" /><path clip-path="url(#clip600)" d="M3371.82 1948.13 L3371.82 1961.88 L3367.54 1961.88 L3367.54 1926.1 L3371.82 1926.1 L3371.82 1930.03 Q3373.16 1927.72 3375.2 1926.61 Q3377.26 1925.47 3380.11 1925.47 Q3384.83 1925.47 3387.77 1929.22 Q3390.73 1932.97 3390.73 1939.08 Q3390.73 1945.19 3387.77 1948.94 Q3384.83 1952.69 3380.11 1952.69 Q3377.26 1952.69 3375.2 1951.58 Q3373.16 1950.45 3371.82 1948.13 M3386.31 1939.08 Q3386.31 1934.38 3384.37 1931.72 Q3382.45 1929.04 3379.07 1929.04 Q3375.69 1929.04 3373.74 1931.72 Q3371.82 1934.38 3371.82 1939.08 Q3371.82 1943.78 3373.74 1946.47 Q3375.69 1949.13 3379.07 1949.13 Q3382.45 1949.13 3384.37 1946.47 Q3386.31 1943.78 3386.31 1939.08 Z" fill="#000000" fill-rule="nonzero" fill-opacity="1" /><path clip-path="url(#clip600)" d="M3397.12 1916.05 L3400.83 1916.05 Q3404.3 1921.51 3406.01 1926.75 Q3407.75 1931.98 3407.75 1937.14 Q3407.75 1942.32 3406.01 1947.58 Q3404.3 1952.83 3400.83 1958.27 L3397.12 1958.27 Q3400.2 1952.97 3401.71 1947.74 Q3403.23 1942.49 3403.23 1937.14 Q3403.23 1931.79 3401.71 1926.58 Q3400.2 1921.38 3397.12 1916.05 Z" fill="#000000" fill-rule="nonzero" fill-opacity="1" /><polyline clip-path="url(#clip600)" style="stroke:#800080; stroke-linecap:round; stroke-linejoin:round; stroke-width:6; stroke-opacity:1; fill:none" points="2783.91,1986.58 3001.43,1986.58 "/>
<circle clip-path="url(#clip600)" cx="2892.67" cy="1986.58" r="23.04" fill="#800080" fill-rule="evenodd" fill-opacity="1" stroke="none"/>
<path clip-path="url(#clip600)" d="M3048.3 1967.89 Q3045.2 1973.22 3043.7 1978.42 Q3042.19 1983.63 3042.19 1988.98 Q3042.19 1994.33 3043.7 1999.58 Q3045.23 2004.81 3048.3 2010.11 L3044.6 2010.11 Q3041.13 2004.67 3039.39 1999.42 Q3037.68 1994.16 3037.68 1988.98 Q3037.68 1983.82 3039.39 1978.59 Q3041.11 1973.35 3044.6 1967.89 L3048.3 1967.89 Z" fill="#000000" fill-rule="nonzero" fill-opacity="1" /><path clip-path="url(#clip600)" d="M3078.74 1989.84 L3078.74 1991.92 L3059.16 1991.92 Q3059.44 1996.32 3061.8 1998.63 Q3064.18 2000.92 3068.42 2000.92 Q3070.87 2000.92 3073.17 2000.32 Q3075.48 1999.72 3077.75 1998.52 L3077.75 2002.54 Q3075.46 2003.52 3073.05 2004.03 Q3070.64 2004.53 3068.17 2004.53 Q3061.96 2004.53 3058.33 2000.92 Q3054.72 1997.31 3054.72 1991.16 Q3054.72 1984.79 3058.14 1981.06 Q3061.59 1977.31 3067.42 1977.31 Q3072.66 1977.31 3075.69 1980.69 Q3078.74 1984.05 3078.74 1989.84 M3074.48 1988.59 Q3074.44 1985.09 3072.52 1983.01 Q3070.62 1980.92 3067.47 1980.92 Q3063.91 1980.92 3061.75 1982.94 Q3059.62 1984.95 3059.3 1988.61 L3074.48 1988.59 Z" fill="#000000" fill-rule="nonzero" fill-opacity="1" /><path clip-path="url(#clip600)" d="M3106.45 1977.94 L3097.08 1990.55 L3106.94 2003.86 L3101.92 2003.86 L3094.37 1993.68 L3086.82 2003.86 L3081.8 2003.86 L3091.87 1990.3 L3082.66 1977.94 L3087.68 1977.94 L3094.55 1987.17 L3101.43 1977.94 L3106.45 1977.94 Z" fill="#000000" fill-rule="nonzero" fill-opacity="1" /><path clip-path="url(#clip600)" d="M3124.74 1990.83 Q3119.58 1990.83 3117.59 1992.01 Q3115.6 1993.19 3115.6 1996.04 Q3115.6 1998.31 3117.08 1999.65 Q3118.58 2000.97 3121.15 2000.97 Q3124.69 2000.97 3126.82 1998.47 Q3128.98 1995.95 3128.98 1991.78 L3128.98 1990.83 L3124.74 1990.83 M3133.23 1989.07 L3133.23 2003.86 L3128.98 2003.86 L3128.98 1999.93 Q3127.52 2002.29 3125.34 2003.42 Q3123.17 2004.53 3120.02 2004.53 Q3116.04 2004.53 3113.67 2002.31 Q3111.34 2000.07 3111.34 1996.32 Q3111.34 1991.94 3114.25 1989.72 Q3117.19 1987.5 3123 1987.5 L3128.98 1987.5 L3128.98 1987.08 Q3128.98 1984.14 3127.03 1982.54 Q3125.11 1980.92 3121.61 1980.92 Q3119.39 1980.92 3117.29 1981.46 Q3115.18 1981.99 3113.23 1983.05 L3113.23 1979.12 Q3115.57 1978.22 3117.77 1977.78 Q3119.97 1977.31 3122.05 1977.31 Q3127.68 1977.31 3130.46 1980.23 Q3133.23 1983.15 3133.23 1989.07 Z" fill="#000000" fill-rule="nonzero" fill-opacity="1" /><path clip-path="url(#clip600)" d="M3143.1 1997.98 L3147.98 1997.98 L3147.98 2001.97 L3144.18 2009.37 L3141.2 2009.37 L3143.1 2001.97 L3143.1 1997.98 Z" fill="#000000" fill-rule="nonzero" fill-opacity="1" /><path clip-path="url(#clip600)" d="M3172.15 1977.94 L3176.41 1977.94 L3176.41 2003.86 L3172.15 2003.86 L3172.15 1977.94 M3172.15 1967.85 L3176.41 1967.85 L3176.41 1973.24 L3172.15 1973.24 L3172.15 1967.85 Z" fill="#000000" fill-rule="nonzero" fill-opacity="1" /><path clip-path="url(#clip600)" d="M3189.44 1999.97 L3189.44 2013.72 L3185.16 2013.72 L3185.16 1977.94 L3189.44 1977.94 L3189.44 1981.87 Q3190.78 1979.56 3192.82 1978.45 Q3194.88 1977.31 3197.72 1977.31 Q3202.45 1977.31 3205.39 1981.06 Q3208.35 1984.81 3208.35 1990.92 Q3208.35 1997.03 3205.39 2000.78 Q3202.45 2004.53 3197.72 2004.53 Q3194.88 2004.53 3192.82 2003.42 Q3190.78 2002.29 3189.44 1999.97 M3203.93 1990.92 Q3203.93 1986.22 3201.98 1983.56 Q3200.06 1980.88 3196.68 1980.88 Q3193.3 1980.88 3191.36 1983.56 Q3189.44 1986.22 3189.44 1990.92 Q3189.44 1995.62 3191.36 1998.31 Q3193.3 2000.97 3196.68 2000.97 Q3200.06 2000.97 3201.98 1998.31 Q3203.93 1995.62 3203.93 1990.92 Z" fill="#000000" fill-rule="nonzero" fill-opacity="1" /><path clip-path="url(#clip600)" d="M3225.46 1980.92 Q3222.03 1980.92 3220.04 1983.61 Q3218.05 1986.27 3218.05 1990.92 Q3218.05 1995.58 3220.02 1998.26 Q3222.01 2000.92 3225.46 2000.92 Q3228.86 2000.92 3230.85 1998.24 Q3232.84 1995.55 3232.84 1990.92 Q3232.84 1986.32 3230.85 1983.63 Q3228.86 1980.92 3225.46 1980.92 M3225.46 1977.31 Q3231.01 1977.31 3234.18 1980.92 Q3237.35 1984.54 3237.35 1990.92 Q3237.35 1997.29 3234.18 2000.92 Q3231.01 2004.53 3225.46 2004.53 Q3219.88 2004.53 3216.71 2000.92 Q3213.56 1997.29 3213.56 1990.92 Q3213.56 1984.54 3216.71 1980.92 Q3219.88 1977.31 3225.46 1977.31 Z" fill="#000000" fill-rule="nonzero" fill-opacity="1" /><path clip-path="url(#clip600)" d="M3248.53 1999.97 L3248.53 2013.72 L3244.25 2013.72 L3244.25 1977.94 L3248.53 1977.94 L3248.53 1981.87 Q3249.88 1979.56 3251.91 1978.45 Q3253.97 1977.31 3256.82 1977.31 Q3261.54 1977.31 3264.48 1981.06 Q3267.45 1984.81 3267.45 1990.92 Q3267.45 1997.03 3264.48 2000.78 Q3261.54 2004.53 3256.82 2004.53 Q3253.97 2004.53 3251.91 2003.42 Q3249.88 2002.29 3248.53 1999.97 M3263.03 1990.92 Q3263.03 1986.22 3261.08 1983.56 Q3259.16 1980.88 3255.78 1980.88 Q3252.4 1980.88 3250.46 1983.56 Q3248.53 1986.22 3248.53 1990.92 Q3248.53 1995.62 3250.46 1998.31 Q3252.4 2000.97 3255.78 2000.97 Q3259.16 2000.97 3261.08 1998.31 Q3263.03 1995.62 3263.03 1990.92 Z" fill="#000000" fill-rule="nonzero" fill-opacity="1" /><path clip-path="url(#clip600)" d="M3278.72 1970.58 L3278.72 1977.94 L3287.49 1977.94 L3287.49 1981.25 L3278.72 1981.25 L3278.72 1995.32 Q3278.72 1998.49 3279.58 1999.4 Q3280.46 2000.3 3283.12 2000.3 L3287.49 2000.3 L3287.49 2003.86 L3283.12 2003.86 Q3278.19 2003.86 3276.31 2002.03 Q3274.44 2000.18 3274.44 1995.32 L3274.44 1981.25 L3271.31 1981.25 L3271.31 1977.94 L3274.44 1977.94 L3274.44 1970.58 L3278.72 1970.58 Z" fill="#000000" fill-rule="nonzero" fill-opacity="1" /><path clip-path="url(#clip600)" d="M3292.42 1967.89 L3296.13 1967.89 Q3299.6 1973.35 3301.31 1978.59 Q3303.05 1983.82 3303.05 1988.98 Q3303.05 1994.16 3301.31 1999.42 Q3299.6 2004.67 3296.13 2010.11 L3292.42 2010.11 Q3295.5 2004.81 3297.01 1999.58 Q3298.53 1994.33 3298.53 1988.98 Q3298.53 1983.63 3297.01 1978.42 Q3295.5 1973.22 3292.42 1967.89 Z" fill="#000000" fill-rule="nonzero" fill-opacity="1" /><polyline clip-path="url(#clip600)" style="stroke:#a52a2a; stroke-linecap:round; stroke-linejoin:round; stroke-width:6; stroke-opacity:1; fill:none" points="2783.91,2038.42 3001.43,2038.42 "/>
<circle clip-path="url(#clip600)" cx="2892.67" cy="2038.42" r="23.04" fill="#a52a2a" fill-rule="evenodd" fill-opacity="1" stroke="none"/>
<path clip-path="url(#clip600)" d="M3048.3 2019.73 Q3045.2 2025.06 3043.7 2030.26 Q3042.19 2035.47 3042.19 2040.82 Q3042.19 2046.17 3043.7 2051.42 Q3045.23 2056.65 3048.3 2061.95 L3044.6 2061.95 Q3041.13 2056.51 3039.39 2051.26 Q3037.68 2046 3037.68 2040.82 Q3037.68 2035.66 3039.39 2030.43 Q3041.11 2025.19 3044.6 2019.73 L3048.3 2019.73 Z" fill="#000000" fill-rule="nonzero" fill-opacity="1" /><path clip-path="url(#clip600)" d="M3078.74 2041.68 L3078.74 2043.76 L3059.16 2043.76 Q3059.44 2048.16 3061.8 2050.47 Q3064.18 2052.76 3068.42 2052.76 Q3070.87 2052.76 3073.17 2052.16 Q3075.48 2051.56 3077.75 2050.36 L3077.75 2054.38 Q3075.46 2055.36 3073.05 2055.87 Q3070.64 2056.37 3068.17 2056.37 Q3061.96 2056.37 3058.33 2052.76 Q3054.72 2049.15 3054.72 2043 Q3054.72 2036.63 3058.14 2032.9 Q3061.59 2029.15 3067.42 2029.15 Q3072.66 2029.15 3075.69 2032.53 Q3078.74 2035.89 3078.74 2041.68 M3074.48 2040.43 Q3074.44 2036.93 3072.52 2034.85 Q3070.62 2032.76 3067.47 2032.76 Q3063.91 2032.76 3061.75 2034.78 Q3059.62 2036.79 3059.3 2040.45 L3074.48 2040.43 Z" fill="#000000" fill-rule="nonzero" fill-opacity="1" /><path clip-path="url(#clip600)" d="M3106.45 2029.78 L3097.08 2042.39 L3106.94 2055.7 L3101.92 2055.7 L3094.37 2045.52 L3086.82 2055.7 L3081.8 2055.7 L3091.87 2042.14 L3082.66 2029.78 L3087.68 2029.78 L3094.55 2039.01 L3101.43 2029.78 L3106.45 2029.78 Z" fill="#000000" fill-rule="nonzero" fill-opacity="1" /><path clip-path="url(#clip600)" d="M3124.74 2042.67 Q3119.58 2042.67 3117.59 2043.85 Q3115.6 2045.03 3115.6 2047.88 Q3115.6 2050.15 3117.08 2051.49 Q3118.58 2052.81 3121.15 2052.81 Q3124.69 2052.81 3126.82 2050.31 Q3128.98 2047.79 3128.98 2043.62 L3128.98 2042.67 L3124.74 2042.67 M3133.23 2040.91 L3133.23 2055.7 L3128.98 2055.7 L3128.98 2051.77 Q3127.52 2054.13 3125.34 2055.26 Q3123.17 2056.37 3120.02 2056.37 Q3116.04 2056.37 3113.67 2054.15 Q3111.34 2051.91 3111.34 2048.16 Q3111.34 2043.78 3114.25 2041.56 Q3117.19 2039.34 3123 2039.34 L3128.98 2039.34 L3128.98 2038.92 Q3128.98 2035.98 3127.03 2034.38 Q3125.11 2032.76 3121.61 2032.76 Q3119.39 2032.76 3117.29 2033.3 Q3115.18 2033.83 3113.23 2034.89 L3113.23 2030.96 Q3115.57 2030.06 3117.77 2029.62 Q3119.97 2029.15 3122.05 2029.15 Q3127.68 2029.15 3130.46 2032.07 Q3133.23 2034.99 3133.23 2040.91 Z" fill="#000000" fill-rule="nonzero" fill-opacity="1" /><path clip-path="url(#clip600)" d="M3143.1 2049.82 L3147.98 2049.82 L3147.98 2053.81 L3144.18 2061.21 L3141.2 2061.21 L3143.1 2053.81 L3143.1 2049.82 Z" fill="#000000" fill-rule="nonzero" fill-opacity="1" /><path clip-path="url(#clip600)" d="M3192.33 2034.75 Q3193.93 2031.88 3196.15 2030.52 Q3198.37 2029.15 3201.38 2029.15 Q3205.43 2029.15 3207.63 2032 Q3209.83 2034.82 3209.83 2040.06 L3209.83 2055.7 L3205.55 2055.7 L3205.55 2040.19 Q3205.55 2036.47 3204.23 2034.66 Q3202.91 2032.86 3200.2 2032.86 Q3196.89 2032.86 3194.97 2035.06 Q3193.05 2037.25 3193.05 2041.05 L3193.05 2055.7 L3188.77 2055.7 L3188.77 2040.19 Q3188.77 2036.44 3187.45 2034.66 Q3186.13 2032.86 3183.37 2032.86 Q3180.11 2032.86 3178.19 2035.08 Q3176.27 2037.28 3176.27 2041.05 L3176.27 2055.7 L3171.98 2055.7 L3171.98 2029.78 L3176.27 2029.78 L3176.27 2033.81 Q3177.72 2031.42 3179.76 2030.29 Q3181.8 2029.15 3184.6 2029.15 Q3187.42 2029.15 3189.39 2030.59 Q3191.38 2032.02 3192.33 2034.75 Z" fill="#000000" fill-rule="nonzero" fill-opacity="1" /><path clip-path="url(#clip600)" d="M3230.11 2042.67 Q3224.95 2042.67 3222.96 2043.85 Q3220.97 2045.03 3220.97 2047.88 Q3220.97 2050.15 3222.45 2051.49 Q3223.95 2052.81 3226.52 2052.81 Q3230.06 2052.81 3232.19 2050.31 Q3234.35 2047.79 3234.35 2043.62 L3234.35 2042.67 L3230.11 2042.67 M3238.6 2040.91 L3238.6 2055.7 L3234.35 2055.7 L3234.35 2051.77 Q3232.89 2054.13 3230.71 2055.26 Q3228.53 2056.37 3225.39 2056.37 Q3221.41 2056.37 3219.04 2054.15 Q3216.71 2051.91 3216.71 2048.16 Q3216.71 2043.78 3219.62 2041.56 Q3222.56 2039.34 3228.37 2039.34 L3234.35 2039.34 L3234.35 2038.92 Q3234.35 2035.98 3232.4 2034.38 Q3230.48 2032.76 3226.98 2032.76 Q3224.76 2032.76 3222.66 2033.3 Q3220.55 2033.83 3218.6 2034.89 L3218.6 2030.96 Q3220.94 2030.06 3223.14 2029.62 Q3225.34 2029.15 3227.42 2029.15 Q3233.05 2029.15 3235.83 2032.07 Q3238.6 2034.99 3238.6 2040.91 Z" fill="#000000" fill-rule="nonzero" fill-opacity="1" /><path clip-path="url(#clip600)" d="M3264.44 2033.71 L3264.44 2019.69 L3268.7 2019.69 L3268.7 2055.7 L3264.44 2055.7 L3264.44 2051.81 Q3263.09 2054.13 3261.03 2055.26 Q3259 2056.37 3256.13 2056.37 Q3251.43 2056.37 3248.47 2052.62 Q3245.53 2048.87 3245.53 2042.76 Q3245.53 2036.65 3248.47 2032.9 Q3251.43 2029.15 3256.13 2029.15 Q3259 2029.15 3261.03 2030.29 Q3263.09 2031.4 3264.44 2033.71 M3249.92 2042.76 Q3249.92 2047.46 3251.84 2050.15 Q3253.79 2052.81 3257.17 2052.81 Q3260.55 2052.81 3262.49 2050.15 Q3264.44 2047.46 3264.44 2042.76 Q3264.44 2038.06 3262.49 2035.4 Q3260.55 2032.72 3257.17 2032.72 Q3253.79 2032.72 3251.84 2035.4 Q3249.92 2038.06 3249.92 2042.76 Z" fill="#000000" fill-rule="nonzero" fill-opacity="1" /><path clip-path="url(#clip600)" d="M3299.02 2040.06 L3299.02 2055.7 L3294.76 2055.7 L3294.76 2040.19 Q3294.76 2036.51 3293.33 2034.69 Q3291.89 2032.86 3289.02 2032.86 Q3285.57 2032.86 3283.58 2035.06 Q3281.59 2037.25 3281.59 2041.05 L3281.59 2055.7 L3277.31 2055.7 L3277.31 2029.78 L3281.59 2029.78 L3281.59 2033.81 Q3283.12 2031.47 3285.18 2030.31 Q3287.26 2029.15 3289.97 2029.15 Q3294.44 2029.15 3296.73 2031.93 Q3299.02 2034.69 3299.02 2040.06 Z" fill="#000000" fill-rule="nonzero" fill-opacity="1" /><path clip-path="url(#clip600)" d="M3307.52 2019.69 L3311.78 2019.69 L3311.78 2055.7 L3307.52 2055.7 L3307.52 2019.69 Z" fill="#000000" fill-rule="nonzero" fill-opacity="1" /><path clip-path="url(#clip600)" d="M3324.81 2051.81 L3324.81 2065.56 L3320.53 2065.56 L3320.53 2029.78 L3324.81 2029.78 L3324.81 2033.71 Q3326.15 2031.4 3328.19 2030.29 Q3330.25 2029.15 3333.09 2029.15 Q3337.82 2029.15 3340.76 2032.9 Q3343.72 2036.65 3343.72 2042.76 Q3343.72 2048.87 3340.76 2052.62 Q3337.82 2056.37 3333.09 2056.37 Q3330.25 2056.37 3328.19 2055.26 Q3326.15 2054.13 3324.81 2051.81 M3339.3 2042.76 Q3339.3 2038.06 3337.35 2035.4 Q3335.43 2032.72 3332.05 2032.72 Q3328.67 2032.72 3326.73 2035.4 Q3324.81 2038.06 3324.81 2042.76 Q3324.81 2047.46 3326.73 2050.15 Q3328.67 2052.81 3332.05 2052.81 Q3335.43 2052.81 3337.35 2050.15 Q3339.3 2047.46 3339.3 2042.76 Z" fill="#000000" fill-rule="nonzero" fill-opacity="1" /><path clip-path="url(#clip600)" d="M3350.11 2019.73 L3353.81 2019.73 Q3357.28 2025.19 3359 2030.43 Q3360.73 2035.66 3360.73 2040.82 Q3360.73 2046 3359 2051.26 Q3357.28 2056.51 3353.81 2061.95 L3350.11 2061.95 Q3353.19 2056.65 3354.69 2051.42 Q3356.22 2046.17 3356.22 2040.82 Q3356.22 2035.47 3354.69 2030.26 Q3353.19 2025.06 3350.11 2019.73 Z" fill="#000000" fill-rule="nonzero" fill-opacity="1" /></svg>
