<?xml version="1.0" encoding="utf-8"?>
<svg xmlns="http://www.w3.org/2000/svg" xmlns:xlink="http://www.w3.org/1999/xlink" width="900" height="600" viewBox="0 0 3600 2400">
<defs>
  <clipPath id="clip940">
    <rect x="0" y="0" width="3600" height="2400"/>
  </clipPath>
</defs>
<path clip-path="url(#clip940)" d="M0 2400 L3600 2400 L3600 0 L0 0  Z" fill="#ffffff" fill-rule="evenodd" fill-opacity="1"/>
<defs>
  <clipPath id="clip941">
    <rect x="720" y="0" width="2521" height="2400"/>
  </clipPath>
</defs>
<path clip-path="url(#clip940)" d="M320.214 2156.51 L3552.76 2156.51 L3552.76 169.184 L320.214 169.184  Z" fill="#ffffff" fill-rule="evenodd" fill-opacity="1"/>
<defs>
  <clipPath id="clip942">
    <rect x="320" y="169" width="3234" height="1988"/>
  </clipPath>
</defs>
<polyline clip-path="url(#clip942)" style="stroke:#000000; stroke-linecap:round; stroke-linejoin:round; stroke-width:2; stroke-opacity:0.1; fill:none" points="717.503,2156.51 717.503,169.184 "/>
<polyline clip-path="url(#clip942)" style="stroke:#000000; stroke-linecap:round; stroke-linejoin:round; stroke-width:2; stroke-opacity:0.1; fill:none" points="1530.16,2156.51 1530.16,169.184 "/>
<polyline clip-path="url(#clip942)" style="stroke:#000000; stroke-linecap:round; stroke-linejoin:round; stroke-width:2; stroke-opacity:0.1; fill:none" points="2342.81,2156.51 2342.81,169.184 "/>
<polyline clip-path="url(#clip942)" style="stroke:#000000; stroke-linecap:round; stroke-linejoin:round; stroke-width:2; stroke-opacity:0.1; fill:none" points="3155.47,2156.51 3155.47,169.184 "/>
<polyline clip-path="url(#clip942)" style="stroke:#000000; stroke-linecap:round; stroke-linejoin:round; stroke-width:2; stroke-opacity:0.1; fill:none" points="320.214,2156.51 3552.76,2156.51 "/>
<polyline clip-path="url(#clip942)" style="stroke:#000000; stroke-linecap:round; stroke-linejoin:round; stroke-width:2; stroke-opacity:0.1; fill:none" points="320.214,1751.25 3552.76,1751.25 "/>
<polyline clip-path="url(#clip942)" style="stroke:#000000; stroke-linecap:round; stroke-linejoin:round; stroke-width:2; stroke-opacity:0.1; fill:none" points="320.214,1345.99 3552.76,1345.99 "/>
<polyline clip-path="url(#clip942)" style="stroke:#000000; stroke-linecap:round; stroke-linejoin:round; stroke-width:2; stroke-opacity:0.1; fill:none" points="320.214,940.735 3552.76,940.735 "/>
<polyline clip-path="url(#clip942)" style="stroke:#000000; stroke-linecap:round; stroke-linejoin:round; stroke-width:2; stroke-opacity:0.1; fill:none" points="320.214,535.477 3552.76,535.477 "/>
<polyline clip-path="url(#clip940)" style="stroke:#000000; stroke-linecap:round; stroke-linejoin:round; stroke-width:4; stroke-opacity:1; fill:none" points="320.214,2156.51 3552.76,2156.51 "/>
<polyline clip-path="url(#clip940)" style="stroke:#000000; stroke-linecap:round; stroke-linejoin:round; stroke-width:4; stroke-opacity:1; fill:none" points="717.503,2156.51 717.503,2137.61 "/>
<polyline clip-path="url(#clip940)" style="stroke:#000000; stroke-linecap:round; stroke-linejoin:round; stroke-width:4; stroke-opacity:1; fill:none" points="1530.16,2156.51 1530.16,2137.61 "/>
<polyline clip-path="url(#clip940)" style="stroke:#000000; stroke-linecap:round; stroke-linejoin:round; stroke-width:4; stroke-opacity:1; fill:none" points="2342.81,2156.51 2342.81,2137.61 "/>
<polyline clip-path="url(#clip940)" style="stroke:#000000; stroke-linecap:round; stroke-linejoin:round; stroke-width:4; stroke-opacity:1; fill:none" points="3155.47,2156.51 3155.47,2137.61 "/>
<path clip-path="url(#clip940)" d="M662.029 2224.57 L669.668 2224.57 L669.668 2198.21 L661.358 2199.87 L661.358 2195.61 L669.621 2193.95 L674.297 2193.95 L674.297 2224.57 L681.936 2224.57 L681.936 2228.51 L662.029 2228.51 L662.029 2224.57 Z" fill="#000000" fill-rule="nonzero" fill-opacity="1" /><path clip-path="url(#clip940)" d="M701.381 2197.03 Q697.769 2197.03 695.941 2200.59 Q694.135 2204.13 694.135 2211.26 Q694.135 2218.37 695.941 2221.93 Q697.769 2225.48 701.381 2225.48 Q705.015 2225.48 706.82 2221.93 Q708.649 2218.37 708.649 2211.26 Q708.649 2204.13 706.82 2200.59 Q705.015 2197.03 701.381 2197.03 M701.381 2193.32 Q707.191 2193.32 710.246 2197.93 Q713.325 2202.51 713.325 2211.26 Q713.325 2219.99 710.246 2224.6 Q707.191 2229.18 701.381 2229.18 Q695.57 2229.18 692.492 2224.6 Q689.436 2219.99 689.436 2211.26 Q689.436 2202.51 692.492 2197.93 Q695.57 2193.32 701.381 2193.32 Z" fill="#000000" fill-rule="nonzero" fill-opacity="1" /><path clip-path="url(#clip940)" d="M731.542 2197.03 Q727.931 2197.03 726.103 2200.59 Q724.297 2204.13 724.297 2211.26 Q724.297 2218.37 726.103 2221.93 Q727.931 2225.48 731.542 2225.48 Q735.177 2225.48 736.982 2221.93 Q738.811 2218.37 738.811 2211.26 Q738.811 2204.13 736.982 2200.59 Q735.177 2197.03 731.542 2197.03 M731.542 2193.32 Q737.353 2193.32 740.408 2197.93 Q743.487 2202.51 743.487 2211.26 Q743.487 2219.99 740.408 2224.6 Q737.353 2229.18 731.542 2229.18 Q725.732 2229.18 722.654 2224.6 Q719.598 2219.99 719.598 2211.26 Q719.598 2202.51 722.654 2197.93 Q725.732 2193.32 731.542 2193.32 Z" fill="#000000" fill-rule="nonzero" fill-opacity="1" /><path clip-path="url(#clip940)" d="M761.704 2197.03 Q758.093 2197.03 756.264 2200.59 Q754.459 2204.13 754.459 2211.26 Q754.459 2218.37 756.264 2221.93 Q758.093 2225.48 761.704 2225.48 Q765.339 2225.48 767.144 2221.93 Q768.973 2218.37 768.973 2211.26 Q768.973 2204.13 767.144 2200.59 Q765.339 2197.03 761.704 2197.03 M761.704 2193.32 Q767.514 2193.32 770.57 2197.93 Q773.649 2202.51 773.649 2211.26 Q773.649 2219.99 770.57 2224.6 Q767.514 2229.18 761.704 2229.18 Q755.894 2229.18 752.815 2224.6 Q749.76 2219.99 749.76 2211.26 Q749.76 2202.51 752.815 2197.93 Q755.894 2193.32 761.704 2193.32 Z" fill="#000000" fill-rule="nonzero" fill-opacity="1" /><path clip-path="url(#clip940)" d="M1474.7 2193.95 L1493.05 2193.95 L1493.05 2197.88 L1478.98 2197.88 L1478.98 2206.36 Q1480 2206.01 1481.01 2205.85 Q1482.03 2205.66 1483.05 2205.66 Q1488.84 2205.66 1492.22 2208.83 Q1495.6 2212 1495.6 2217.42 Q1495.6 2223 1492.13 2226.1 Q1488.65 2229.18 1482.33 2229.18 Q1480.16 2229.18 1477.89 2228.81 Q1475.64 2228.44 1473.24 2227.7 L1473.24 2223 Q1475.32 2224.13 1477.54 2224.69 Q1479.76 2225.24 1482.24 2225.24 Q1486.25 2225.24 1488.58 2223.14 Q1490.92 2221.03 1490.92 2217.42 Q1490.92 2213.81 1488.58 2211.7 Q1486.25 2209.6 1482.24 2209.6 Q1480.37 2209.6 1478.49 2210.01 Q1476.64 2210.43 1474.7 2211.31 L1474.7 2193.95 Z" fill="#000000" fill-rule="nonzero" fill-opacity="1" /><path clip-path="url(#clip940)" d="M1514.81 2197.03 Q1511.2 2197.03 1509.37 2200.59 Q1507.57 2204.13 1507.57 2211.26 Q1507.57 2218.37 1509.37 2221.93 Q1511.2 2225.48 1514.81 2225.48 Q1518.44 2225.48 1520.25 2221.93 Q1522.08 2218.37 1522.08 2211.26 Q1522.08 2204.13 1520.25 2200.59 Q1518.44 2197.03 1514.81 2197.03 M1514.81 2193.32 Q1520.62 2193.32 1523.68 2197.93 Q1526.75 2202.51 1526.75 2211.26 Q1526.75 2219.99 1523.68 2224.6 Q1520.62 2229.18 1514.81 2229.18 Q1509 2229.18 1505.92 2224.6 Q1502.87 2219.99 1502.87 2211.26 Q1502.87 2202.51 1505.92 2197.93 Q1509 2193.32 1514.81 2193.32 Z" fill="#000000" fill-rule="nonzero" fill-opacity="1" /><path clip-path="url(#clip940)" d="M1544.97 2197.03 Q1541.36 2197.03 1539.53 2200.59 Q1537.73 2204.13 1537.73 2211.26 Q1537.73 2218.37 1539.53 2221.93 Q1541.36 2225.48 1544.97 2225.48 Q1548.61 2225.48 1550.41 2221.93 Q1552.24 2218.37 1552.24 2211.26 Q1552.24 2204.13 1550.41 2200.59 Q1548.61 2197.03 1544.97 2197.03 M1544.97 2193.32 Q1550.78 2193.32 1553.84 2197.93 Q1556.92 2202.51 1556.92 2211.26 Q1556.92 2219.99 1553.84 2224.6 Q1550.78 2229.18 1544.97 2229.18 Q1539.16 2229.18 1536.08 2224.6 Q1533.03 2219.99 1533.03 2211.26 Q1533.03 2202.51 1536.08 2197.93 Q1539.16 2193.32 1544.97 2193.32 Z" fill="#000000" fill-rule="nonzero" fill-opacity="1" /><path clip-path="url(#clip940)" d="M1575.13 2197.03 Q1571.52 2197.03 1569.69 2200.59 Q1567.89 2204.13 1567.89 2211.26 Q1567.89 2218.37 1569.69 2221.93 Q1571.52 2225.48 1575.13 2225.48 Q1578.77 2225.48 1580.57 2221.93 Q1582.4 2218.37 1582.4 2211.26 Q1582.4 2204.13 1580.57 2200.59 Q1578.77 2197.03 1575.13 2197.03 M1575.13 2193.32 Q1580.94 2193.32 1584 2197.93 Q1587.08 2202.51 1587.08 2211.26 Q1587.08 2219.99 1584 2224.6 Q1580.94 2229.18 1575.13 2229.18 Q1569.32 2229.18 1566.25 2224.6 Q1563.19 2219.99 1563.19 2211.26 Q1563.19 2202.51 1566.25 2197.93 Q1569.32 2193.32 1575.13 2193.32 Z" fill="#000000" fill-rule="nonzero" fill-opacity="1" /><path clip-path="url(#clip940)" d="M2272.26 2224.57 L2279.9 2224.57 L2279.9 2198.21 L2271.59 2199.87 L2271.59 2195.61 L2279.85 2193.95 L2284.53 2193.95 L2284.53 2224.57 L2292.16 2224.57 L2292.16 2228.51 L2272.26 2228.51 L2272.26 2224.57 Z" fill="#000000" fill-rule="nonzero" fill-opacity="1" /><path clip-path="url(#clip940)" d="M2311.61 2197.03 Q2308 2197.03 2306.17 2200.59 Q2304.36 2204.13 2304.36 2211.26 Q2304.36 2218.37 2306.17 2221.93 Q2308 2225.48 2311.61 2225.48 Q2315.24 2225.48 2317.05 2221.93 Q2318.88 2218.37 2318.88 2211.26 Q2318.88 2204.13 2317.05 2200.59 Q2315.24 2197.03 2311.61 2197.03 M2311.61 2193.32 Q2317.42 2193.32 2320.47 2197.93 Q2323.55 2202.51 2323.55 2211.26 Q2323.55 2219.99 2320.47 2224.6 Q2317.42 2229.18 2311.61 2229.18 Q2305.8 2229.18 2302.72 2224.6 Q2299.66 2219.99 2299.66 2211.26 Q2299.66 2202.51 2302.72 2197.93 Q2305.8 2193.32 2311.61 2193.32 Z" fill="#000000" fill-rule="nonzero" fill-opacity="1" /><path clip-path="url(#clip940)" d="M2341.77 2197.03 Q2338.16 2197.03 2336.33 2200.59 Q2334.53 2204.13 2334.53 2211.26 Q2334.53 2218.37 2336.33 2221.93 Q2338.16 2225.48 2341.77 2225.48 Q2345.4 2225.48 2347.21 2221.93 Q2349.04 2218.37 2349.04 2211.26 Q2349.04 2204.13 2347.21 2200.59 Q2345.4 2197.03 2341.77 2197.03 M2341.77 2193.32 Q2347.58 2193.32 2350.64 2197.93 Q2353.72 2202.51 2353.72 2211.26 Q2353.72 2219.99 2350.64 2224.6 Q2347.58 2229.18 2341.77 2229.18 Q2335.96 2229.18 2332.88 2224.6 Q2329.83 2219.99 2329.83 2211.26 Q2329.83 2202.51 2332.88 2197.93 Q2335.96 2193.32 2341.77 2193.32 Z" fill="#000000" fill-rule="nonzero" fill-opacity="1" /><path clip-path="url(#clip940)" d="M2371.93 2197.03 Q2368.32 2197.03 2366.49 2200.59 Q2364.69 2204.13 2364.69 2211.26 Q2364.69 2218.37 2366.49 2221.93 Q2368.32 2225.48 2371.93 2225.48 Q2375.57 2225.48 2377.37 2221.93 Q2379.2 2218.37 2379.2 2211.26 Q2379.2 2204.13 2377.37 2200.59 Q2375.57 2197.03 2371.93 2197.03 M2371.93 2193.32 Q2377.74 2193.32 2380.8 2197.93 Q2383.88 2202.51 2383.88 2211.26 Q2383.88 2219.99 2380.8 2224.6 Q2377.74 2229.18 2371.93 2229.18 Q2366.12 2229.18 2363.04 2224.6 Q2359.99 2219.99 2359.99 2211.26 Q2359.99 2202.51 2363.04 2197.93 Q2366.12 2193.32 2371.93 2193.32 Z" fill="#000000" fill-rule="nonzero" fill-opacity="1" /><path clip-path="url(#clip940)" d="M2402.09 2197.03 Q2398.48 2197.03 2396.65 2200.59 Q2394.85 2204.13 2394.85 2211.26 Q2394.85 2218.37 2396.65 2221.93 Q2398.48 2225.48 2402.09 2225.48 Q2405.73 2225.48 2407.53 2221.93 Q2409.36 2218.37 2409.36 2211.26 Q2409.36 2204.13 2407.53 2200.59 Q2405.73 2197.03 2402.09 2197.03 M2402.09 2193.32 Q2407.9 2193.32 2410.96 2197.93 Q2414.04 2202.51 2414.04 2211.26 Q2414.04 2219.99 2410.96 2224.6 Q2407.9 2229.18 2402.09 2229.18 Q2396.28 2229.18 2393.21 2224.6 Q2390.15 2219.99 2390.15 2211.26 Q2390.15 2202.51 2393.21 2197.93 Q2396.28 2193.32 2402.09 2193.32 Z" fill="#000000" fill-rule="nonzero" fill-opacity="1" /><path clip-path="url(#clip940)" d="M3089 2224.57 L3105.32 2224.57 L3105.32 2228.51 L3083.37 2228.51 L3083.37 2224.57 Q3086.03 2221.82 3090.62 2217.19 Q3095.22 2212.54 3096.4 2211.19 Q3098.65 2208.67 3099.53 2206.93 Q3100.43 2205.17 3100.43 2203.48 Q3100.43 2200.73 3098.49 2198.99 Q3096.57 2197.26 3093.46 2197.26 Q3091.27 2197.26 3088.81 2198.02 Q3086.38 2198.79 3083.6 2200.34 L3083.6 2195.61 Q3086.43 2194.48 3088.88 2193.9 Q3091.34 2193.32 3093.37 2193.32 Q3098.74 2193.32 3101.94 2196.01 Q3105.13 2198.69 3105.13 2203.18 Q3105.13 2205.31 3104.32 2207.23 Q3103.53 2209.13 3101.43 2211.73 Q3100.85 2212.4 3097.75 2215.61 Q3094.65 2218.81 3089 2224.57 Z" fill="#000000" fill-rule="nonzero" fill-opacity="1" /><path clip-path="url(#clip940)" d="M3125.13 2197.03 Q3121.52 2197.03 3119.69 2200.59 Q3117.89 2204.13 3117.89 2211.26 Q3117.89 2218.37 3119.69 2221.93 Q3121.52 2225.48 3125.13 2225.48 Q3128.77 2225.48 3130.57 2221.93 Q3132.4 2218.37 3132.4 2211.26 Q3132.4 2204.13 3130.57 2200.59 Q3128.77 2197.03 3125.13 2197.03 M3125.13 2193.32 Q3130.94 2193.32 3134 2197.93 Q3137.08 2202.51 3137.08 2211.26 Q3137.08 2219.99 3134 2224.6 Q3130.94 2229.18 3125.13 2229.18 Q3119.32 2229.18 3116.24 2224.6 Q3113.19 2219.99 3113.19 2211.26 Q3113.19 2202.51 3116.24 2197.93 Q3119.32 2193.32 3125.13 2193.32 Z" fill="#000000" fill-rule="nonzero" fill-opacity="1" /><path clip-path="url(#clip940)" d="M3155.29 2197.03 Q3151.68 2197.03 3149.85 2200.59 Q3148.05 2204.13 3148.05 2211.26 Q3148.05 2218.37 3149.85 2221.93 Q3151.68 2225.48 3155.29 2225.48 Q3158.93 2225.48 3160.73 2221.93 Q3162.56 2218.37 3162.56 2211.26 Q3162.56 2204.13 3160.73 2200.59 Q3158.93 2197.03 3155.29 2197.03 M3155.29 2193.32 Q3161.1 2193.32 3164.16 2197.93 Q3167.24 2202.51 3167.24 2211.26 Q3167.24 2219.99 3164.16 2224.6 Q3161.1 2229.18 3155.29 2229.18 Q3149.48 2229.18 3146.4 2224.6 Q3143.35 2219.99 3143.35 2211.26 Q3143.35 2202.51 3146.4 2197.93 Q3149.48 2193.32 3155.29 2193.32 Z" fill="#000000" fill-rule="nonzero" fill-opacity="1" /><path clip-path="url(#clip940)" d="M3185.46 2197.03 Q3181.84 2197.03 3180.02 2200.59 Q3178.21 2204.13 3178.21 2211.26 Q3178.21 2218.37 3180.02 2221.93 Q3181.84 2225.48 3185.46 2225.48 Q3189.09 2225.48 3190.89 2221.93 Q3192.72 2218.37 3192.72 2211.26 Q3192.72 2204.13 3190.89 2200.59 Q3189.09 2197.03 3185.46 2197.03 M3185.46 2193.32 Q3191.27 2193.32 3194.32 2197.93 Q3197.4 2202.51 3197.4 2211.26 Q3197.4 2219.99 3194.32 2224.6 Q3191.27 2229.18 3185.46 2229.18 Q3179.65 2229.18 3176.57 2224.6 Q3173.51 2219.99 3173.51 2211.26 Q3173.51 2202.51 3176.57 2197.93 Q3179.65 2193.32 3185.46 2193.32 Z" fill="#000000" fill-rule="nonzero" fill-opacity="1" /><path clip-path="url(#clip940)" d="M3215.62 2197.03 Q3212.01 2197.03 3210.18 2200.59 Q3208.37 2204.13 3208.37 2211.26 Q3208.37 2218.37 3210.18 2221.93 Q3212.01 2225.48 3215.62 2225.48 Q3219.25 2225.48 3221.06 2221.93 Q3222.89 2218.37 3222.89 2211.26 Q3222.89 2204.13 3221.06 2200.59 Q3219.25 2197.03 3215.62 2197.03 M3215.62 2193.32 Q3221.43 2193.32 3224.48 2197.93 Q3227.56 2202.51 3227.56 2211.26 Q3227.56 2219.99 3224.48 2224.6 Q3221.43 2229.18 3215.62 2229.18 Q3209.81 2229.18 3206.73 2224.6 Q3203.67 2219.99 3203.67 2211.26 Q3203.67 2202.51 3206.73 2197.93 Q3209.81 2193.32 3215.62 2193.32 Z" fill="#000000" fill-rule="nonzero" fill-opacity="1" /><path clip-path="url(#clip940)" d="M1812.37 2308.02 L1812.37 2296.42 L1802.82 2296.42 L1802.82 2291.62 L1818.16 2291.62 L1818.16 2310.17 Q1814.77 2312.57 1810.69 2313.81 Q1806.61 2315.03 1801.98 2315.03 Q1791.85 2315.03 1786.12 2309.12 Q1780.42 2303.19 1780.42 2292.63 Q1780.42 2282.04 1786.12 2276.14 Q1791.85 2270.21 1801.98 2270.21 Q1806.21 2270.21 1810 2271.25 Q1813.81 2272.29 1817.03 2274.32 L1817.03 2280.54 Q1813.79 2277.79 1810.14 2276.4 Q1806.49 2275.01 1802.47 2275.01 Q1794.54 2275.01 1790.55 2279.44 Q1786.59 2283.86 1786.59 2292.63 Q1786.59 2301.37 1790.55 2305.8 Q1794.54 2310.22 1802.47 2310.22 Q1805.57 2310.22 1808 2309.7 Q1810.43 2309.15 1812.37 2308.02 Z" fill="#000000" fill-rule="nonzero" fill-opacity="1" /><path clip-path="url(#clip940)" d="M1847.38 2286.76 Q1846.48 2286.24 1845.41 2286 Q1844.37 2285.74 1843.1 2285.74 Q1838.58 2285.74 1836.15 2288.7 Q1833.75 2291.62 1833.75 2297.12 L1833.75 2314.19 L1828.4 2314.19 L1828.4 2281.78 L1833.75 2281.78 L1833.75 2286.82 Q1835.43 2283.86 1838.12 2282.45 Q1840.81 2281 1844.66 2281 Q1845.21 2281 1845.87 2281.09 Q1846.54 2281.14 1847.35 2281.29 L1847.38 2286.76 Z" fill="#000000" fill-rule="nonzero" fill-opacity="1" /><path clip-path="url(#clip940)" d="M1852.96 2281.78 L1858.29 2281.78 L1858.29 2314.19 L1852.96 2314.19 L1852.96 2281.78 M1852.96 2269.16 L1858.29 2269.16 L1858.29 2275.91 L1852.96 2275.91 L1852.96 2269.16 Z" fill="#000000" fill-rule="nonzero" fill-opacity="1" /><path clip-path="url(#clip940)" d="M1890.75 2286.7 L1890.75 2269.16 L1896.08 2269.16 L1896.08 2314.19 L1890.75 2314.19 L1890.75 2309.33 Q1889.07 2312.22 1886.5 2313.64 Q1883.95 2315.03 1880.37 2315.03 Q1874.49 2315.03 1870.79 2310.34 Q1867.11 2305.65 1867.11 2298.01 Q1867.11 2290.37 1870.79 2285.69 Q1874.49 2281 1880.37 2281 Q1883.95 2281 1886.5 2282.42 Q1889.07 2283.81 1890.75 2286.7 M1872.61 2298.01 Q1872.61 2303.89 1875.01 2307.24 Q1877.44 2310.57 1881.67 2310.57 Q1885.89 2310.57 1888.32 2307.24 Q1890.75 2303.89 1890.75 2298.01 Q1890.75 2292.14 1888.32 2288.81 Q1885.89 2285.46 1881.67 2285.46 Q1877.44 2285.46 1875.01 2288.81 Q1872.61 2292.14 1872.61 2298.01 Z" fill="#000000" fill-rule="nonzero" fill-opacity="1" /><path clip-path="url(#clip940)" d="M1946.54 2282.74 L1946.54 2287.77 Q1944.28 2286.61 1941.85 2286.03 Q1939.42 2285.46 1936.82 2285.46 Q1932.85 2285.46 1930.86 2286.67 Q1928.89 2287.89 1928.89 2290.32 Q1928.89 2292.17 1930.31 2293.24 Q1931.73 2294.28 1936.01 2295.24 L1937.83 2295.64 Q1943.5 2296.86 1945.87 2299.08 Q1948.28 2301.28 1948.28 2305.25 Q1948.28 2309.76 1944.69 2312.39 Q1941.13 2315.03 1934.88 2315.03 Q1932.27 2315.03 1929.44 2314.51 Q1926.63 2314.01 1923.51 2313 L1923.51 2307.5 Q1926.46 2309.04 1929.32 2309.82 Q1932.19 2310.57 1934.99 2310.57 Q1938.76 2310.57 1940.78 2309.3 Q1942.81 2308 1942.81 2305.65 Q1942.81 2303.48 1941.33 2302.32 Q1939.88 2301.17 1934.94 2300.1 L1933.09 2299.66 Q1928.14 2298.62 1925.94 2296.48 Q1923.74 2294.31 1923.74 2290.55 Q1923.74 2285.98 1926.98 2283.49 Q1930.22 2281 1936.18 2281 Q1939.13 2281 1941.74 2281.43 Q1944.34 2281.87 1946.54 2282.74 Z" fill="#000000" fill-rule="nonzero" fill-opacity="1" /><path clip-path="url(#clip940)" d="M1956.75 2281.78 L1962.08 2281.78 L1962.08 2314.19 L1956.75 2314.19 L1956.75 2281.78 M1956.75 2269.16 L1962.08 2269.16 L1962.08 2275.91 L1956.75 2275.91 L1956.75 2269.16 Z" fill="#000000" fill-rule="nonzero" fill-opacity="1" /><path clip-path="url(#clip940)" d="M1970.9 2281.78 L1996.19 2281.78 L1996.19 2286.64 L1976.17 2309.93 L1996.19 2309.93 L1996.19 2314.19 L1970.18 2314.19 L1970.18 2309.33 L1990.2 2286.03 L1970.9 2286.03 L1970.9 2281.78 Z" fill="#000000" fill-rule="nonzero" fill-opacity="1" /><path clip-path="url(#clip940)" d="M2032.04 2296.65 L2032.04 2299.26 L2007.56 2299.26 Q2007.91 2304.75 2010.86 2307.65 Q2013.84 2310.51 2019.14 2310.51 Q2022.21 2310.51 2025.07 2309.76 Q2027.96 2309.01 2030.8 2307.5 L2030.8 2312.54 Q2027.93 2313.75 2024.92 2314.39 Q2021.92 2315.03 2018.82 2315.03 Q2011.07 2315.03 2006.52 2310.51 Q2002.01 2306 2002.01 2298.3 Q2002.01 2290.35 2006.29 2285.69 Q2010.6 2281 2017.89 2281 Q2024.43 2281 2028.22 2285.22 Q2032.04 2289.42 2032.04 2296.65 M2026.72 2295.09 Q2026.66 2290.72 2024.26 2288.12 Q2021.89 2285.51 2017.95 2285.51 Q2013.5 2285.51 2010.8 2288.03 Q2008.14 2290.55 2007.74 2295.12 L2026.72 2295.09 Z" fill="#000000" fill-rule="nonzero" fill-opacity="1" /><path clip-path="url(#clip940)" d="M2059.85 2270.99 L2067.72 2270.99 L2086.87 2307.13 L2086.87 2270.99 L2092.55 2270.99 L2092.55 2314.19 L2084.68 2314.19 L2065.52 2278.05 L2065.52 2314.19 L2059.85 2314.19 L2059.85 2270.99 Z" fill="#000000" fill-rule="nonzero" fill-opacity="1" /><polyline clip-path="url(#clip940)" style="stroke:#000000; stroke-linecap:round; stroke-linejoin:round; stroke-width:4; stroke-opacity:1; fill:none" points="320.214,2156.51 320.214,169.184 "/>
<polyline clip-path="url(#clip940)" style="stroke:#000000; stroke-linecap:round; stroke-linejoin:round; stroke-width:4; stroke-opacity:1; fill:none" points="320.214,2156.51 339.112,2156.51 "/>
<polyline clip-path="url(#clip940)" style="stroke:#000000; stroke-linecap:round; stroke-linejoin:round; stroke-width:4; stroke-opacity:1; fill:none" points="320.214,1751.25 339.112,1751.25 "/>
<polyline clip-path="url(#clip940)" style="stroke:#000000; stroke-linecap:round; stroke-linejoin:round; stroke-width:4; stroke-opacity:1; fill:none" points="320.214,1345.99 339.112,1345.99 "/>
<polyline clip-path="url(#clip940)" style="stroke:#000000; stroke-linecap:round; stroke-linejoin:round; stroke-width:4; stroke-opacity:1; fill:none" points="320.214,940.735 339.112,940.735 "/>
<polyline clip-path="url(#clip940)" style="stroke:#000000; stroke-linecap:round; stroke-linejoin:round; stroke-width:4; stroke-opacity:1; fill:none" points="320.214,535.477 339.112,535.477 "/>
<path clip-path="url(#clip940)" d="M178.877 2142.31 Q175.266 2142.31 173.437 2145.87 Q171.631 2149.41 171.631 2156.54 Q171.631 2163.65 173.437 2167.21 Q175.266 2170.76 178.877 2170.76 Q182.511 2170.76 184.316 2167.21 Q186.145 2163.65 186.145 2156.54 Q186.145 2149.41 184.316 2145.87 Q182.511 2142.31 178.877 2142.31 M178.877 2138.6 Q184.687 2138.6 187.742 2143.21 Q190.821 2147.79 190.821 2156.54 Q190.821 2165.27 187.742 2169.88 Q184.687 2174.46 178.877 2174.46 Q173.067 2174.46 169.988 2169.88 Q166.932 2165.27 166.932 2156.54 Q166.932 2147.79 169.988 2143.21 Q173.067 2138.6 178.877 2138.6 Z" fill="#000000" fill-rule="nonzero" fill-opacity="1" /><path clip-path="url(#clip940)" d="M199.039 2167.91 L203.923 2167.91 L203.923 2173.79 L199.039 2173.79 L199.039 2167.91 Z" fill="#000000" fill-rule="nonzero" fill-opacity="1" /><path clip-path="url(#clip940)" d="M224.108 2142.31 Q220.497 2142.31 218.668 2145.87 Q216.863 2149.41 216.863 2156.54 Q216.863 2163.65 218.668 2167.21 Q220.497 2170.76 224.108 2170.76 Q227.742 2170.76 229.548 2167.21 Q231.376 2163.65 231.376 2156.54 Q231.376 2149.41 229.548 2145.87 Q227.742 2142.31 224.108 2142.31 M224.108 2138.6 Q229.918 2138.6 232.974 2143.21 Q236.052 2147.79 236.052 2156.54 Q236.052 2165.27 232.974 2169.88 Q229.918 2174.46 224.108 2174.46 Q218.298 2174.46 215.219 2169.88 Q212.164 2165.27 212.164 2156.54 Q212.164 2147.79 215.219 2143.21 Q218.298 2138.6 224.108 2138.6 Z" fill="#000000" fill-rule="nonzero" fill-opacity="1" /><path clip-path="url(#clip940)" d="M254.27 2142.31 Q250.659 2142.31 248.83 2145.87 Q247.024 2149.41 247.024 2156.54 Q247.024 2163.65 248.83 2167.21 Q250.659 2170.76 254.27 2170.76 Q257.904 2170.76 259.71 2167.21 Q261.538 2163.65 261.538 2156.54 Q261.538 2149.41 259.71 2145.87 Q257.904 2142.31 254.27 2142.31 M254.27 2138.6 Q260.08 2138.6 263.135 2143.21 Q266.214 2147.79 266.214 2156.54 Q266.214 2165.27 263.135 2169.88 Q260.08 2174.46 254.27 2174.46 Q248.46 2174.46 245.381 2169.88 Q242.325 2165.27 242.325 2156.54 Q242.325 2147.79 245.381 2143.21 Q248.46 2138.6 254.27 2138.6 Z" fill="#000000" fill-rule="nonzero" fill-opacity="1" /><path clip-path="url(#clip940)" d="M179.872 1737.05 Q176.261 1737.05 174.432 1740.61 Q172.627 1744.16 172.627 1751.28 Q172.627 1758.39 174.432 1761.96 Q176.261 1765.5 179.872 1765.5 Q183.506 1765.5 185.312 1761.96 Q187.141 1758.39 187.141 1751.28 Q187.141 1744.16 185.312 1740.61 Q183.506 1737.05 179.872 1737.05 M179.872 1733.35 Q185.682 1733.35 188.738 1737.95 Q191.816 1742.53 191.816 1751.28 Q191.816 1760.01 188.738 1764.62 Q185.682 1769.2 179.872 1769.2 Q174.062 1769.2 170.983 1764.62 Q167.928 1760.01 167.928 1751.28 Q167.928 1742.53 170.983 1737.95 Q174.062 1733.35 179.872 1733.35 Z" fill="#000000" fill-rule="nonzero" fill-opacity="1" /><path clip-path="url(#clip940)" d="M200.034 1762.65 L204.918 1762.65 L204.918 1768.53 L200.034 1768.53 L200.034 1762.65 Z" fill="#000000" fill-rule="nonzero" fill-opacity="1" /><path clip-path="url(#clip940)" d="M219.131 1764.59 L235.45 1764.59 L235.45 1768.53 L213.506 1768.53 L213.506 1764.59 Q216.168 1761.84 220.751 1757.21 Q225.358 1752.56 226.538 1751.22 Q228.784 1748.69 229.663 1746.96 Q230.566 1745.2 230.566 1743.51 Q230.566 1740.75 228.622 1739.02 Q226.7 1737.28 223.599 1737.28 Q221.4 1737.28 218.946 1738.04 Q216.515 1738.81 213.738 1740.36 L213.738 1735.64 Q216.562 1734.5 219.015 1733.92 Q221.469 1733.35 223.506 1733.35 Q228.876 1733.35 232.071 1736.03 Q235.265 1738.72 235.265 1743.21 Q235.265 1745.34 234.455 1747.26 Q233.668 1749.16 231.562 1751.75 Q230.983 1752.42 227.881 1755.64 Q224.779 1758.83 219.131 1764.59 Z" fill="#000000" fill-rule="nonzero" fill-opacity="1" /><path clip-path="url(#clip940)" d="M245.311 1733.97 L263.668 1733.97 L263.668 1737.91 L249.594 1737.91 L249.594 1746.38 Q250.612 1746.03 251.631 1745.87 Q252.649 1745.68 253.668 1745.68 Q259.455 1745.68 262.835 1748.85 Q266.214 1752.03 266.214 1757.44 Q266.214 1763.02 262.742 1766.12 Q259.27 1769.2 252.95 1769.2 Q250.774 1769.2 248.506 1768.83 Q246.261 1768.46 243.853 1767.72 L243.853 1763.02 Q245.936 1764.16 248.159 1764.71 Q250.381 1765.27 252.858 1765.27 Q256.862 1765.27 259.2 1763.16 Q261.538 1761.05 261.538 1757.44 Q261.538 1753.83 259.2 1751.72 Q256.862 1749.62 252.858 1749.62 Q250.983 1749.62 249.108 1750.03 Q247.256 1750.45 245.311 1751.33 L245.311 1733.97 Z" fill="#000000" fill-rule="nonzero" fill-opacity="1" /><path clip-path="url(#clip940)" d="M178.877 1331.79 Q175.266 1331.79 173.437 1335.36 Q171.631 1338.9 171.631 1346.03 Q171.631 1353.13 173.437 1356.7 Q175.266 1360.24 178.877 1360.24 Q182.511 1360.24 184.316 1356.7 Q186.145 1353.13 186.145 1346.03 Q186.145 1338.9 184.316 1335.36 Q182.511 1331.79 178.877 1331.79 M178.877 1328.09 Q184.687 1328.09 187.742 1332.69 Q190.821 1337.28 190.821 1346.03 Q190.821 1354.75 187.742 1359.36 Q184.687 1363.94 178.877 1363.94 Q173.067 1363.94 169.988 1359.36 Q166.932 1354.75 166.932 1346.03 Q166.932 1337.28 169.988 1332.69 Q173.067 1328.09 178.877 1328.09 Z" fill="#000000" fill-rule="nonzero" fill-opacity="1" /><path clip-path="url(#clip940)" d="M199.039 1357.39 L203.923 1357.39 L203.923 1363.27 L199.039 1363.27 L199.039 1357.39 Z" fill="#000000" fill-rule="nonzero" fill-opacity="1" /><path clip-path="url(#clip940)" d="M214.154 1328.71 L232.511 1328.71 L232.511 1332.65 L218.437 1332.65 L218.437 1341.12 Q219.455 1340.77 220.474 1340.61 Q221.492 1340.43 222.511 1340.43 Q228.298 1340.43 231.677 1343.6 Q235.057 1346.77 235.057 1352.18 Q235.057 1357.76 231.585 1360.87 Q228.113 1363.94 221.793 1363.94 Q219.617 1363.94 217.349 1363.57 Q215.103 1363.2 212.696 1362.46 L212.696 1357.76 Q214.779 1358.9 217.001 1359.45 Q219.224 1360.01 221.701 1360.01 Q225.705 1360.01 228.043 1357.9 Q230.381 1355.8 230.381 1352.18 Q230.381 1348.57 228.043 1346.47 Q225.705 1344.36 221.701 1344.36 Q219.826 1344.36 217.951 1344.78 Q216.099 1345.19 214.154 1346.07 L214.154 1328.71 Z" fill="#000000" fill-rule="nonzero" fill-opacity="1" /><path clip-path="url(#clip940)" d="M254.27 1331.79 Q250.659 1331.79 248.83 1335.36 Q247.024 1338.9 247.024 1346.03 Q247.024 1353.13 248.83 1356.7 Q250.659 1360.24 254.27 1360.24 Q257.904 1360.24 259.71 1356.7 Q261.538 1353.13 261.538 1346.03 Q261.538 1338.9 259.71 1335.36 Q257.904 1331.79 254.27 1331.79 M254.27 1328.09 Q260.08 1328.09 263.135 1332.69 Q266.214 1337.28 266.214 1346.03 Q266.214 1354.75 263.135 1359.36 Q260.08 1363.94 254.27 1363.94 Q248.46 1363.94 245.381 1359.36 Q242.325 1354.75 242.325 1346.03 Q242.325 1337.28 245.381 1332.69 Q248.46 1328.09 254.27 1328.09 Z" fill="#000000" fill-rule="nonzero" fill-opacity="1" /><path clip-path="url(#clip940)" d="M179.872 926.534 Q176.261 926.534 174.432 930.098 Q172.627 933.64 172.627 940.77 Q172.627 947.876 174.432 951.441 Q176.261 954.983 179.872 954.983 Q183.506 954.983 185.312 951.441 Q187.141 947.876 187.141 940.77 Q187.141 933.64 185.312 930.098 Q183.506 926.534 179.872 926.534 M179.872 922.83 Q185.682 922.83 188.738 927.436 Q191.816 932.02 191.816 940.77 Q191.816 949.497 188.738 954.103 Q185.682 958.686 179.872 958.686 Q174.062 958.686 170.983 954.103 Q167.928 949.497 167.928 940.77 Q167.928 932.02 170.983 927.436 Q174.062 922.83 179.872 922.83 Z" fill="#000000" fill-rule="nonzero" fill-opacity="1" /><path clip-path="url(#clip940)" d="M200.034 952.135 L204.918 952.135 L204.918 958.015 L200.034 958.015 L200.034 952.135 Z" fill="#000000" fill-rule="nonzero" fill-opacity="1" /><path clip-path="url(#clip940)" d="M213.923 923.455 L236.145 923.455 L236.145 925.446 L223.599 958.015 L218.714 958.015 L230.52 927.39 L213.923 927.39 L213.923 923.455 Z" fill="#000000" fill-rule="nonzero" fill-opacity="1" /><path clip-path="url(#clip940)" d="M245.311 923.455 L263.668 923.455 L263.668 927.39 L249.594 927.39 L249.594 935.862 Q250.612 935.515 251.631 935.353 Q252.649 935.168 253.668 935.168 Q259.455 935.168 262.835 938.339 Q266.214 941.51 266.214 946.927 Q266.214 952.506 262.742 955.608 Q259.27 958.686 252.95 958.686 Q250.774 958.686 248.506 958.316 Q246.261 957.946 243.853 957.205 L243.853 952.506 Q245.936 953.64 248.159 954.196 Q250.381 954.751 252.858 954.751 Q256.862 954.751 259.2 952.645 Q261.538 950.538 261.538 946.927 Q261.538 943.316 259.2 941.21 Q256.862 939.103 252.858 939.103 Q250.983 939.103 249.108 939.52 Q247.256 939.936 245.311 940.816 L245.311 923.455 Z" fill="#000000" fill-rule="nonzero" fill-opacity="1" /><path clip-path="url(#clip940)" d="M169.687 548.822 L177.326 548.822 L177.326 522.457 L169.016 524.123 L169.016 519.864 L177.279 518.197 L181.955 518.197 L181.955 548.822 L189.594 548.822 L189.594 552.757 L169.687 552.757 L169.687 548.822 Z" fill="#000000" fill-rule="nonzero" fill-opacity="1" /><path clip-path="url(#clip940)" d="M199.039 546.878 L203.923 546.878 L203.923 552.757 L199.039 552.757 L199.039 546.878 Z" fill="#000000" fill-rule="nonzero" fill-opacity="1" /><path clip-path="url(#clip940)" d="M224.108 521.276 Q220.497 521.276 218.668 524.841 Q216.863 528.383 216.863 535.512 Q216.863 542.619 218.668 546.183 Q220.497 549.725 224.108 549.725 Q227.742 549.725 229.548 546.183 Q231.376 542.619 231.376 535.512 Q231.376 528.383 229.548 524.841 Q227.742 521.276 224.108 521.276 M224.108 517.572 Q229.918 517.572 232.974 522.179 Q236.052 526.762 236.052 535.512 Q236.052 544.239 232.974 548.845 Q229.918 553.429 224.108 553.429 Q218.298 553.429 215.219 548.845 Q212.164 544.239 212.164 535.512 Q212.164 526.762 215.219 522.179 Q218.298 517.572 224.108 517.572 Z" fill="#000000" fill-rule="nonzero" fill-opacity="1" /><path clip-path="url(#clip940)" d="M254.27 521.276 Q250.659 521.276 248.83 524.841 Q247.024 528.383 247.024 535.512 Q247.024 542.619 248.83 546.183 Q250.659 549.725 254.27 549.725 Q257.904 549.725 259.71 546.183 Q261.538 542.619 261.538 535.512 Q261.538 528.383 259.71 524.841 Q257.904 521.276 254.27 521.276 M254.27 517.572 Q260.08 517.572 263.135 522.179 Q266.214 526.762 266.214 535.512 Q266.214 544.239 263.135 548.845 Q260.08 553.429 254.27 553.429 Q248.46 553.429 245.381 548.845 Q242.325 544.239 242.325 535.512 Q242.325 526.762 245.381 522.179 Q248.46 517.572 254.27 517.572 Z" fill="#000000" fill-rule="nonzero" fill-opacity="1" /><path clip-path="url(#clip940)" d="M58.1901 1335.81 L63.8903 1335.81 Q62.2989 1339.13 61.5176 1342.08 Q60.7364 1345.04 60.7364 1347.78 Q60.7364 1352.56 62.5882 1355.16 Q64.4401 1357.74 67.8544 1357.74 Q70.719 1357.74 72.1947 1356.03 Q73.6414 1354.29 74.5384 1349.49 L75.2618 1345.96 Q76.506 1339.42 79.6599 1336.33 Q82.7849 1333.2 88.0511 1333.2 Q94.33 1333.2 97.5707 1337.43 Q100.811 1341.62 100.811 1349.75 Q100.811 1352.82 100.117 1356.29 Q99.4225 1359.73 98.0626 1363.44 L92.0441 1363.44 Q94.0406 1359.88 95.0533 1356.46 Q96.0661 1353.05 96.0661 1349.75 Q96.0661 1344.75 94.0985 1342.03 Q92.1309 1339.31 88.4851 1339.31 Q85.3022 1339.31 83.5083 1341.27 Q81.7143 1343.21 80.8173 1347.67 L80.1229 1351.23 Q78.8208 1357.77 76.043 1360.69 Q73.2653 1363.61 68.3174 1363.61 Q62.5882 1363.61 59.2896 1359.59 Q55.991 1355.54 55.991 1348.45 Q55.991 1345.41 56.5408 1342.26 Q57.0906 1339.1 58.1901 1335.81 Z" fill="#000000" fill-rule="nonzero" fill-opacity="1" /><path clip-path="url(#clip940)" d="M71.2977 1311.76 Q71.2977 1316.04 74.6541 1318.53 Q77.9817 1321.02 83.7976 1321.02 Q89.6135 1321.02 92.97 1318.56 Q96.2975 1316.07 96.2975 1311.76 Q96.2975 1307.51 92.9411 1305.02 Q89.5846 1302.53 83.7976 1302.53 Q78.0395 1302.53 74.6831 1305.02 Q71.2977 1307.51 71.2977 1311.76 M66.7838 1311.76 Q66.7838 1304.82 71.2977 1300.85 Q75.8115 1296.89 83.7976 1296.89 Q91.7547 1296.89 96.2975 1300.85 Q100.811 1304.82 100.811 1311.76 Q100.811 1318.73 96.2975 1322.7 Q91.7547 1326.63 83.7976 1326.63 Q75.8115 1326.63 71.2977 1322.7 Q66.7838 1318.73 66.7838 1311.76 Z" fill="#000000" fill-rule="nonzero" fill-opacity="1" /><path clip-path="url(#clip940)" d="M54.9494 1288.06 L54.9494 1282.74 L99.9723 1282.74 L99.9723 1288.06 L54.9494 1288.06 Z" fill="#000000" fill-rule="nonzero" fill-opacity="1" /><path clip-path="url(#clip940)" d="M67.565 1275.42 L67.565 1269.78 L94.764 1259.65 L67.565 1249.52 L67.565 1243.88 L99.9723 1256.03 L99.9723 1263.27 L67.565 1275.42 Z" fill="#000000" fill-rule="nonzero" fill-opacity="1" /><path clip-path="url(#clip940)" d="M82.4377 1208.81 L85.0418 1208.81 L85.0418 1233.29 Q90.5395 1232.94 93.433 1229.99 Q96.2975 1227.01 96.2975 1221.71 Q96.2975 1218.65 95.5452 1215.78 Q94.7929 1212.89 93.2883 1210.05 L98.323 1210.05 Q99.5383 1212.92 100.175 1215.93 Q100.811 1218.94 100.811 1222.03 Q100.811 1229.79 96.2975 1234.33 Q91.7837 1238.84 84.087 1238.84 Q76.1298 1238.84 71.4713 1234.56 Q66.7838 1230.25 66.7838 1222.96 Q66.7838 1216.42 71.0083 1212.63 Q75.2039 1208.81 82.4377 1208.81 M80.8752 1214.13 Q76.506 1214.19 73.9018 1216.59 Q71.2977 1218.97 71.2977 1222.9 Q71.2977 1227.36 73.815 1230.05 Q76.3324 1232.71 80.9041 1233.11 L80.8752 1214.13 Z" fill="#000000" fill-rule="nonzero" fill-opacity="1" /><path clip-path="url(#clip940)" d="M58.3637 1175.97 L67.565 1175.97 L67.565 1165 L71.7028 1165 L71.7028 1175.97 L89.2953 1175.97 Q93.2594 1175.97 94.3878 1174.9 Q95.5163 1173.8 95.5163 1170.47 L95.5163 1165 L99.9723 1165 L99.9723 1170.47 Q99.9723 1176.63 97.6864 1178.98 Q95.3716 1181.32 89.2953 1181.32 L71.7028 1181.32 L71.7028 1185.23 L67.565 1185.23 L67.565 1181.32 L58.3637 1181.32 L58.3637 1175.97 Z" fill="#000000" fill-rule="nonzero" fill-opacity="1" /><path clip-path="url(#clip940)" d="M67.565 1158 L67.565 1152.68 L99.9723 1152.68 L99.9723 1158 L67.565 1158 M54.9494 1158 L54.9494 1152.68 L61.6912 1152.68 L61.6912 1158 L54.9494 1158 Z" fill="#000000" fill-rule="nonzero" fill-opacity="1" /><path clip-path="url(#clip940)" d="M73.7861 1116.3 Q70.1981 1114.31 68.491 1111.53 Q66.7838 1108.75 66.7838 1104.99 Q66.7838 1099.93 70.3428 1097.18 Q73.8729 1094.43 80.4122 1094.43 L99.9723 1094.43 L99.9723 1099.78 L80.5858 1099.78 Q75.9273 1099.78 73.6703 1101.43 Q71.4134 1103.08 71.4134 1106.47 Q71.4134 1110.6 74.1622 1113.01 Q76.9111 1115.41 81.6564 1115.41 L99.9723 1115.41 L99.9723 1120.76 L80.5858 1120.76 Q75.8983 1120.76 73.6703 1122.41 Q71.4134 1124.06 71.4134 1127.5 Q71.4134 1131.58 74.1912 1133.98 Q76.94 1136.38 81.6564 1136.38 L99.9723 1136.38 L99.9723 1141.74 L67.565 1141.74 L67.565 1136.38 L72.5997 1136.38 Q69.6194 1134.56 68.2016 1132.02 Q66.7838 1129.47 66.7838 1125.97 Q66.7838 1122.44 68.5778 1119.98 Q70.3717 1117.49 73.7861 1116.3 Z" fill="#000000" fill-rule="nonzero" fill-opacity="1" /><path clip-path="url(#clip940)" d="M82.4377 1056.09 L85.0418 1056.09 L85.0418 1080.57 Q90.5395 1080.22 93.433 1077.27 Q96.2975 1074.29 96.2975 1069 Q96.2975 1065.93 95.5452 1063.06 Q94.7929 1060.17 93.2883 1057.33 L98.323 1057.33 Q99.5383 1060.2 100.175 1063.21 Q100.811 1066.22 100.811 1069.31 Q100.811 1077.07 96.2975 1081.61 Q91.7837 1086.12 84.087 1086.12 Q76.1298 1086.12 71.4713 1081.84 Q66.7838 1077.53 66.7838 1070.24 Q66.7838 1063.7 71.0083 1059.91 Q75.2039 1056.09 82.4377 1056.09 M80.8752 1061.41 Q76.506 1061.47 73.9018 1063.87 Q71.2977 1066.25 71.2977 1070.18 Q71.2977 1074.64 73.815 1077.33 Q76.3324 1079.99 80.9041 1080.4 L80.8752 1061.41 Z" fill="#000000" fill-rule="nonzero" fill-opacity="1" /><path clip-path="url(#clip940)" d="M55.0072 1015.73 Q61.6623 1019.6 68.1727 1021.48 Q74.6831 1023.36 81.3671 1023.36 Q88.0511 1023.36 94.6193 1021.48 Q101.159 1019.57 107.785 1015.73 L107.785 1020.36 Q100.985 1024.7 94.4168 1026.87 Q87.8485 1029.01 81.3671 1029.01 Q74.9145 1029.01 68.3752 1026.87 Q61.8359 1024.72 55.0072 1020.36 L55.0072 1015.73 Z" fill="#000000" fill-rule="nonzero" fill-opacity="1" /><path clip-path="url(#clip940)" d="M68.5199 984.736 L73.5546 984.736 Q72.3972 986.993 71.8185 989.424 Q71.2398 991.854 71.2398 994.459 Q71.2398 998.423 72.4551 1000.42 Q73.6703 1002.39 76.1009 1002.39 Q77.9527 1002.39 79.0233 1000.97 Q80.065 999.551 81.0198 995.269 L81.4249 993.446 Q82.6402 987.775 84.8682 985.402 Q87.0673 983 91.0314 983 Q95.5452 983 98.1783 986.588 Q100.811 990.147 100.811 996.397 Q100.811 999.001 100.291 1001.84 Q99.7987 1004.64 98.7859 1007.77 L93.2883 1007.77 Q94.8218 1004.82 95.6031 1001.95 Q96.3554 999.088 96.3554 996.281 Q96.3554 992.52 95.0823 990.494 Q93.7802 988.469 91.4364 988.469 Q89.2663 988.469 88.1089 989.945 Q86.9515 991.391 85.8809 996.339 L85.4469 998.191 Q84.4052 1003.14 82.264 1005.34 Q80.0939 1007.54 76.3324 1007.54 Q71.7606 1007.54 69.2722 1004.3 Q66.7838 1001.06 66.7838 995.095 Q66.7838 992.144 67.2178 989.54 Q67.6519 986.935 68.5199 984.736 Z" fill="#000000" fill-rule="nonzero" fill-opacity="1" /><path clip-path="url(#clip940)" d="M55.0072 975.361 L55.0072 970.732 Q61.8359 966.392 68.3752 964.25 Q74.9145 962.08 81.3671 962.08 Q87.8485 962.08 94.4168 964.25 Q100.985 966.392 107.785 970.732 L107.785 975.361 Q101.159 971.513 94.6193 969.632 Q88.0511 967.723 81.3671 967.723 Q74.6831 967.723 68.1727 969.632 Q61.6623 971.513 55.0072 975.361 Z" fill="#000000" fill-rule="nonzero" fill-opacity="1" /><path clip-path="url(#clip940)" d="M1420.56 10.0578 L1420.56 15.758 Q1417.23 14.1666 1414.28 13.3853 Q1411.33 12.6041 1408.58 12.6041 Q1403.81 12.6041 1401.2 14.4559 Q1398.63 16.3078 1398.63 19.7221 Q1398.63 22.5867 1400.33 24.0624 Q1402.07 25.5091 1406.87 26.4061 L1410.4 27.1295 Q1416.94 28.3737 1420.04 31.5276 Q1423.16 34.6526 1423.16 39.9188 Q1423.16 46.1977 1418.94 49.4384 Q1414.74 52.6791 1406.61 52.6791 Q1403.55 52.6791 1400.07 51.9847 Q1396.63 51.2902 1392.93 49.9303 L1392.93 43.9118 Q1396.49 45.9083 1399.9 46.921 Q1403.31 47.9338 1406.61 47.9338 Q1411.62 47.9338 1414.34 45.9662 Q1417.06 43.9986 1417.06 40.3528 Q1417.06 37.1699 1415.09 35.376 Q1413.15 33.582 1408.7 32.685 L1405.14 31.9906 Q1398.6 30.6885 1395.67 27.9107 Q1392.75 25.133 1392.75 20.1851 Q1392.75 14.4559 1396.77 11.1573 Q1400.83 7.85875 1407.91 7.85875 Q1410.95 7.85875 1414.11 8.40852 Q1417.26 8.95829 1420.56 10.0578 Z" fill="#000000" fill-rule="nonzero" fill-opacity="1" /><path clip-path="url(#clip940)" d="M1444.6 23.1654 Q1440.32 23.1654 1437.83 26.5218 Q1435.34 29.8494 1435.34 35.6653 Q1435.34 41.4813 1437.8 44.8377 Q1440.29 48.1653 1444.6 48.1653 Q1448.86 48.1653 1451.35 44.8088 Q1453.83 41.4523 1453.83 35.6653 Q1453.83 29.9072 1451.35 26.5508 Q1448.86 23.1654 1444.6 23.1654 M1444.6 18.6515 Q1451.55 18.6515 1455.51 23.1654 Q1459.48 27.6792 1459.48 35.6653 Q1459.48 43.6225 1455.51 48.1653 Q1451.55 52.6791 1444.6 52.6791 Q1437.63 52.6791 1433.67 48.1653 Q1429.73 43.6225 1429.73 35.6653 Q1429.73 27.6792 1433.67 23.1654 Q1437.63 18.6515 1444.6 18.6515 Z" fill="#000000" fill-rule="nonzero" fill-opacity="1" /><path clip-path="url(#clip940)" d="M1468.3 6.81709 L1473.63 6.81709 L1473.63 51.84 L1468.3 51.84 L1468.3 6.81709 Z" fill="#000000" fill-rule="nonzero" fill-opacity="1" /><path clip-path="url(#clip940)" d="M1480.95 19.4328 L1486.59 19.4328 L1496.72 46.6317 L1506.84 19.4328 L1512.49 19.4328 L1500.33 51.84 L1493.1 51.84 L1480.95 19.4328 Z" fill="#000000" fill-rule="nonzero" fill-opacity="1" /><path clip-path="url(#clip940)" d="M1547.55 34.3054 L1547.55 36.9095 L1523.08 36.9095 Q1523.42 42.4072 1526.37 45.3007 Q1529.35 48.1653 1534.65 48.1653 Q1537.72 48.1653 1540.58 47.4129 Q1543.47 46.6606 1546.31 45.156 L1546.31 50.1907 Q1543.45 51.406 1540.44 52.0425 Q1537.43 52.6791 1534.33 52.6791 Q1526.58 52.6791 1522.03 48.1653 Q1517.52 43.6514 1517.52 35.9547 Q1517.52 27.9975 1521.8 23.339 Q1526.11 18.6515 1533.41 18.6515 Q1539.94 18.6515 1543.74 22.876 Q1547.55 27.0716 1547.55 34.3054 M1542.23 32.7429 Q1542.17 28.3737 1539.77 25.7695 Q1537.4 23.1654 1533.46 23.1654 Q1529.01 23.1654 1526.32 25.6827 Q1523.65 28.2001 1523.25 32.7718 L1542.23 32.7429 Z" fill="#000000" fill-rule="nonzero" fill-opacity="1" /><path clip-path="url(#clip940)" d="M1580.4 10.2314 L1580.4 19.4328 L1591.36 19.4328 L1591.36 23.5705 L1580.4 23.5705 L1580.4 41.163 Q1580.4 45.1271 1581.47 46.2555 Q1582.57 47.384 1585.89 47.384 L1591.36 47.384 L1591.36 51.84 L1585.89 51.84 Q1579.73 51.84 1577.39 49.5541 Q1575.04 47.2393 1575.04 41.163 L1575.04 23.5705 L1571.14 23.5705 L1571.14 19.4328 L1575.04 19.4328 L1575.04 10.2314 L1580.4 10.2314 Z" fill="#000000" fill-rule="nonzero" fill-opacity="1" /><path clip-path="url(#clip940)" d="M1598.36 19.4328 L1603.69 19.4328 L1603.69 51.84 L1598.36 51.84 L1598.36 19.4328 M1598.36 6.81709 L1603.69 6.81709 L1603.69 13.559 L1598.36 13.559 L1598.36 6.81709 Z" fill="#000000" fill-rule="nonzero" fill-opacity="1" /><path clip-path="url(#clip940)" d="M1640.06 25.6538 Q1642.06 22.0659 1644.83 20.3587 Q1647.61 18.6515 1651.37 18.6515 Q1656.44 18.6515 1659.19 22.2105 Q1661.93 25.7406 1661.93 32.2799 L1661.93 51.84 L1656.58 51.84 L1656.58 32.4535 Q1656.58 27.795 1654.93 25.5381 Q1653.28 23.2811 1649.9 23.2811 Q1645.76 23.2811 1643.36 26.03 Q1640.96 28.7788 1640.96 33.5241 L1640.96 51.84 L1635.6 51.84 L1635.6 32.4535 Q1635.6 27.7661 1633.95 25.5381 Q1632.31 23.2811 1628.86 23.2811 Q1624.78 23.2811 1622.38 26.0589 Q1619.98 28.8077 1619.98 33.5241 L1619.98 51.84 L1614.63 51.84 L1614.63 19.4328 L1619.98 19.4328 L1619.98 24.4675 Q1621.8 21.4872 1624.35 20.0693 Q1626.89 18.6515 1630.4 18.6515 Q1633.93 18.6515 1636.39 20.4455 Q1638.87 22.2395 1640.06 25.6538 Z" fill="#000000" fill-rule="nonzero" fill-opacity="1" /><path clip-path="url(#clip940)" d="M1700.27 34.3054 L1700.27 36.9095 L1675.79 36.9095 Q1676.14 42.4072 1679.09 45.3007 Q1682.07 48.1653 1687.37 48.1653 Q1690.44 48.1653 1693.3 47.4129 Q1696.19 46.6606 1699.03 45.156 L1699.03 50.1907 Q1696.17 51.406 1693.16 52.0425 Q1690.15 52.6791 1687.05 52.6791 Q1679.3 52.6791 1674.75 48.1653 Q1670.24 43.6514 1670.24 35.9547 Q1670.24 27.9975 1674.52 23.339 Q1678.83 18.6515 1686.12 18.6515 Q1692.66 18.6515 1696.45 22.876 Q1700.27 27.0716 1700.27 34.3054 M1694.95 32.7429 Q1694.89 28.3737 1692.49 25.7695 Q1690.12 23.1654 1686.18 23.1654 Q1681.73 23.1654 1679.04 25.6827 Q1676.37 28.2001 1675.97 32.7718 L1694.95 32.7429 Z" fill="#000000" fill-rule="nonzero" fill-opacity="1" /><path clip-path="url(#clip940)" d="M1724.03 19.4328 L1729.67 19.4328 L1739.8 46.6317 L1749.93 19.4328 L1755.57 19.4328 L1743.42 51.84 L1736.18 51.84 L1724.03 19.4328 Z" fill="#000000" fill-rule="nonzero" fill-opacity="1" /><path clip-path="url(#clip940)" d="M1783.58 20.3876 L1783.58 25.4223 Q1781.32 24.2649 1778.89 23.6862 Q1776.46 23.1075 1773.86 23.1075 Q1769.89 23.1075 1767.9 24.3228 Q1765.93 25.5381 1765.93 27.9686 Q1765.93 29.8204 1767.35 30.891 Q1768.76 31.9327 1773.05 32.8876 L1774.87 33.2926 Q1780.54 34.5079 1782.91 36.7359 Q1785.31 38.935 1785.31 42.8991 Q1785.31 47.4129 1781.73 50.046 Q1778.17 52.6791 1771.92 52.6791 Q1769.31 52.6791 1766.48 52.1583 Q1763.67 51.6664 1760.55 50.6537 L1760.55 45.156 Q1763.5 46.6896 1766.36 47.4708 Q1769.23 48.2231 1772.03 48.2231 Q1775.79 48.2231 1777.82 46.95 Q1779.85 45.6479 1779.85 43.3042 Q1779.85 41.134 1778.37 39.9766 Q1776.92 38.8192 1771.97 37.7486 L1770.12 37.3146 Q1765.18 36.273 1762.98 34.1318 Q1760.78 31.9616 1760.78 28.2001 Q1760.78 23.6283 1764.02 21.1399 Q1767.26 18.6515 1773.22 18.6515 Q1776.17 18.6515 1778.77 19.0855 Q1781.38 19.5196 1783.58 20.3876 Z" fill="#000000" fill-rule="nonzero" fill-opacity="1" /><path clip-path="url(#clip940)" d="M1833.95 35.2602 Q1833.95 29.4732 1831.55 26.2904 Q1829.18 23.1075 1824.87 23.1075 Q1820.59 23.1075 1818.18 26.2904 Q1815.81 29.4732 1815.81 35.2602 Q1815.81 41.0183 1818.18 44.2012 Q1820.59 47.384 1824.87 47.384 Q1829.18 47.384 1831.55 44.2012 Q1833.95 41.0183 1833.95 35.2602 M1839.28 47.818 Q1839.28 56.0934 1835.6 60.1154 Q1831.93 64.1663 1824.35 64.1663 Q1821.54 64.1663 1819.05 63.7323 Q1816.56 63.3272 1814.22 62.4592 L1814.22 57.2798 Q1816.56 58.5529 1818.85 59.1606 Q1821.14 59.7682 1823.51 59.7682 Q1828.75 59.7682 1831.35 57.0194 Q1833.95 54.2995 1833.95 48.7729 L1833.95 46.1398 Q1832.3 49.0044 1829.73 50.4222 Q1827.15 51.84 1823.57 51.84 Q1817.61 51.84 1813.96 47.2972 Q1810.31 42.7544 1810.31 35.2602 Q1810.31 27.7371 1813.96 23.1943 Q1817.61 18.6515 1823.57 18.6515 Q1827.15 18.6515 1829.73 20.0693 Q1832.3 21.4872 1833.95 24.3517 L1833.95 19.4328 L1839.28 19.4328 L1839.28 47.818 Z" fill="#000000" fill-rule="nonzero" fill-opacity="1" /><path clip-path="url(#clip940)" d="M1869.02 24.4096 Q1868.13 23.8888 1867.06 23.6573 Q1866.01 23.3969 1864.74 23.3969 Q1860.23 23.3969 1857.8 26.3482 Q1855.39 29.2707 1855.39 34.7683 L1855.39 51.84 L1850.04 51.84 L1850.04 19.4328 L1855.39 19.4328 L1855.39 24.4675 Q1857.07 21.5161 1859.76 20.0983 Q1862.45 18.6515 1866.3 18.6515 Q1866.85 18.6515 1867.52 18.7383 Q1868.18 18.7962 1868.99 18.9409 L1869.02 24.4096 Z" fill="#000000" fill-rule="nonzero" fill-opacity="1" /><path clip-path="url(#clip940)" d="M1874.61 19.4328 L1879.93 19.4328 L1879.93 51.84 L1874.61 51.84 L1874.61 19.4328 M1874.61 6.81709 L1879.93 6.81709 L1879.93 13.559 L1874.61 13.559 L1874.61 6.81709 Z" fill="#000000" fill-rule="nonzero" fill-opacity="1" /><path clip-path="url(#clip940)" d="M1912.4 24.3517 L1912.4 6.81709 L1917.72 6.81709 L1917.72 51.84 L1912.4 51.84 L1912.4 46.9789 Q1910.72 49.8724 1908.14 51.2902 Q1905.6 52.6791 1902.01 52.6791 Q1896.14 52.6791 1892.43 47.9916 Q1888.76 43.3042 1888.76 35.6653 Q1888.76 28.0265 1892.43 23.339 Q1896.14 18.6515 1902.01 18.6515 Q1905.6 18.6515 1908.14 20.0693 Q1910.72 21.4582 1912.4 24.3517 M1894.25 35.6653 Q1894.25 41.5391 1896.66 44.8956 Q1899.09 48.2231 1903.31 48.2231 Q1907.54 48.2231 1909.97 44.8956 Q1912.4 41.5391 1912.4 35.6653 Q1912.4 29.7915 1909.97 26.464 Q1907.54 23.1075 1903.31 23.1075 Q1899.09 23.1075 1896.66 26.464 Q1894.25 29.7915 1894.25 35.6653 Z" fill="#000000" fill-rule="nonzero" fill-opacity="1" /><path clip-path="url(#clip940)" d="M1968.18 20.3876 L1968.18 25.4223 Q1965.93 24.2649 1963.5 23.6862 Q1961.07 23.1075 1958.46 23.1075 Q1954.5 23.1075 1952.5 24.3228 Q1950.53 25.5381 1950.53 27.9686 Q1950.53 29.8204 1951.95 30.891 Q1953.37 31.9327 1957.65 32.8876 L1959.47 33.2926 Q1965.15 34.5079 1967.52 36.7359 Q1969.92 38.935 1969.92 42.8991 Q1969.92 47.4129 1966.33 50.046 Q1962.77 52.6791 1956.52 52.6791 Q1953.92 52.6791 1951.08 52.1583 Q1948.28 51.6664 1945.15 50.6537 L1945.15 45.156 Q1948.1 46.6896 1950.97 47.4708 Q1953.83 48.2231 1956.64 48.2231 Q1960.4 48.2231 1962.43 46.95 Q1964.45 45.6479 1964.45 43.3042 Q1964.45 41.134 1962.98 39.9766 Q1961.53 38.8192 1956.58 37.7486 L1954.73 37.3146 Q1949.78 36.273 1947.58 34.1318 Q1945.38 31.9616 1945.38 28.2001 Q1945.38 23.6283 1948.62 21.1399 Q1951.86 18.6515 1957.82 18.6515 Q1960.78 18.6515 1963.38 19.0855 Q1965.98 19.5196 1968.18 20.3876 Z" fill="#000000" fill-rule="nonzero" fill-opacity="1" /><path clip-path="url(#clip940)" d="M1978.4 19.4328 L1983.72 19.4328 L1983.72 51.84 L1978.4 51.84 L1978.4 19.4328 M1978.4 6.81709 L1983.72 6.81709 L1983.72 13.559 L1978.4 13.559 L1978.4 6.81709 Z" fill="#000000" fill-rule="nonzero" fill-opacity="1" /><path clip-path="url(#clip940)" d="M1992.55 19.4328 L2017.84 19.4328 L2017.84 24.2939 L1997.81 47.5866 L2017.84 47.5866 L2017.84 51.84 L1991.82 51.84 L1991.82 46.9789 L2011.85 23.6862 L1992.55 23.6862 L1992.55 19.4328 Z" fill="#000000" fill-rule="nonzero" fill-opacity="1" /><path clip-path="url(#clip940)" d="M2053.69 34.3054 L2053.69 36.9095 L2029.21 36.9095 Q2029.55 42.4072 2032.51 45.3007 Q2035.49 48.1653 2040.78 48.1653 Q2043.85 48.1653 2046.71 47.4129 Q2049.61 46.6606 2052.44 45.156 L2052.44 50.1907 Q2049.58 51.406 2046.57 52.0425 Q2043.56 52.6791 2040.46 52.6791 Q2032.71 52.6791 2028.17 48.1653 Q2023.65 43.6514 2023.65 35.9547 Q2023.65 27.9975 2027.93 23.339 Q2032.25 18.6515 2039.54 18.6515 Q2046.08 18.6515 2049.87 22.876 Q2053.69 27.0716 2053.69 34.3054 M2048.36 32.7429 Q2048.3 28.3737 2045.9 25.7695 Q2043.53 23.1654 2039.6 23.1654 Q2035.14 23.1654 2032.45 25.6827 Q2029.79 28.2001 2029.38 32.7718 L2048.36 32.7429 Z" fill="#000000" fill-rule="nonzero" fill-opacity="1" /><path clip-path="url(#clip940)" d="M2094.05 6.87496 Q2090.17 13.53 2088.29 20.0404 Q2086.41 26.5508 2086.41 33.2348 Q2086.41 39.9188 2088.29 46.487 Q2090.2 53.0263 2094.05 59.6525 L2089.42 59.6525 Q2085.08 52.8527 2082.91 46.2845 Q2080.77 39.7162 2080.77 33.2348 Q2080.77 26.7823 2082.91 20.2429 Q2085.05 13.7036 2089.42 6.87496 L2094.05 6.87496 Z" fill="#000000" fill-rule="nonzero" fill-opacity="1" /><path clip-path="url(#clip940)" d="M2127.64 35.6653 Q2127.64 29.7915 2125.21 26.464 Q2122.81 23.1075 2118.59 23.1075 Q2114.36 23.1075 2111.93 26.464 Q2109.53 29.7915 2109.53 35.6653 Q2109.53 41.5391 2111.93 44.8956 Q2114.36 48.2231 2118.59 48.2231 Q2122.81 48.2231 2125.21 44.8956 Q2127.64 41.5391 2127.64 35.6653 M2109.53 24.3517 Q2111.21 21.4582 2113.76 20.0693 Q2116.33 18.6515 2119.89 18.6515 Q2125.79 18.6515 2129.47 23.339 Q2133.17 28.0265 2133.17 35.6653 Q2133.17 43.3042 2129.47 47.9916 Q2125.79 52.6791 2119.89 52.6791 Q2116.33 52.6791 2113.76 51.2902 Q2111.21 49.8724 2109.53 46.9789 L2109.53 51.84 L2104.18 51.84 L2104.18 6.81709 L2109.53 6.81709 L2109.53 24.3517 Z" fill="#000000" fill-rule="nonzero" fill-opacity="1" /><path clip-path="url(#clip940)" d="M2156.72 35.5496 Q2150.27 35.5496 2147.78 37.0253 Q2145.29 38.501 2145.29 42.06 Q2145.29 44.8956 2147.15 46.5738 Q2149.03 48.2231 2152.24 48.2231 Q2156.67 48.2231 2159.33 45.0981 Q2162.02 41.9442 2162.02 36.7359 L2162.02 35.5496 L2156.72 35.5496 M2167.34 33.3505 L2167.34 51.84 L2162.02 51.84 L2162.02 46.921 Q2160.2 49.8724 2157.48 51.2902 Q2154.76 52.6791 2150.82 52.6791 Q2145.84 52.6791 2142.89 49.9014 Q2139.97 47.0947 2139.97 42.4072 Q2139.97 36.9385 2143.62 34.1607 Q2147.29 31.3829 2154.55 31.3829 L2162.02 31.3829 L2162.02 30.8621 Q2162.02 27.1874 2159.59 25.1908 Q2157.19 23.1654 2152.82 23.1654 Q2150.04 23.1654 2147.41 23.8309 Q2144.77 24.4964 2142.34 25.8274 L2142.34 20.9085 Q2145.27 19.78 2148.01 19.2302 Q2150.76 18.6515 2153.37 18.6515 Q2160.4 18.6515 2163.87 22.2973 Q2167.34 25.9431 2167.34 33.3505 Z" fill="#000000" fill-rule="nonzero" fill-opacity="1" /><path clip-path="url(#clip940)" d="M2197.09 24.4096 Q2196.19 23.8888 2195.12 23.6573 Q2194.08 23.3969 2192.81 23.3969 Q2188.29 23.3969 2185.86 26.3482 Q2183.46 29.2707 2183.46 34.7683 L2183.46 51.84 L2178.11 51.84 L2178.11 19.4328 L2183.46 19.4328 L2183.46 24.4675 Q2185.14 21.5161 2187.83 20.0983 Q2190.52 18.6515 2194.37 18.6515 Q2194.92 18.6515 2195.58 18.7383 Q2196.25 18.7962 2197.06 18.9409 L2197.09 24.4096 Z" fill="#000000" fill-rule="nonzero" fill-opacity="1" /><path clip-path="url(#clip940)" d="M2201.83 6.87496 L2206.46 6.87496 Q2210.8 13.7036 2212.94 20.2429 Q2215.11 26.7823 2215.11 33.2348 Q2215.11 39.7162 2212.94 46.2845 Q2210.8 52.8527 2206.46 59.6525 L2201.83 59.6525 Q2205.68 53.0263 2207.56 46.487 Q2209.47 39.9188 2209.47 33.2348 Q2209.47 26.5508 2207.56 20.0404 Q2205.68 13.53 2201.83 6.87496 Z" fill="#000000" fill-rule="nonzero" fill-opacity="1" /><path clip-path="url(#clip940)" d="M2241.94 33.5241 L2295.41 33.5241 L2295.41 37.6908 L2241.94 37.6908 L2241.94 33.5241 Z" fill="#000000" fill-rule="nonzero" fill-opacity="1" /><path clip-path="url(#clip940)" d="M2345.99 35.6653 Q2345.99 29.7915 2343.56 26.464 Q2341.16 23.1075 2336.93 23.1075 Q2332.71 23.1075 2330.28 26.464 Q2327.87 29.7915 2327.87 35.6653 Q2327.87 41.5391 2330.28 44.8956 Q2332.71 48.2231 2336.93 48.2231 Q2341.16 48.2231 2343.56 44.8956 Q2345.99 41.5391 2345.99 35.6653 M2327.87 24.3517 Q2329.55 21.4582 2332.1 20.0693 Q2334.67 18.6515 2338.23 18.6515 Q2344.14 18.6515 2347.81 23.339 Q2351.51 28.0265 2351.51 35.6653 Q2351.51 43.3042 2347.81 47.9916 Q2344.14 52.6791 2338.23 52.6791 Q2334.67 52.6791 2332.1 51.2902 Q2329.55 49.8724 2327.87 46.9789 L2327.87 51.84 L2322.52 51.84 L2322.52 6.81709 L2327.87 6.81709 L2327.87 24.3517 Z" fill="#000000" fill-rule="nonzero" fill-opacity="1" /><path clip-path="url(#clip940)" d="M2388.06 34.3054 L2388.06 36.9095 L2363.58 36.9095 Q2363.93 42.4072 2366.88 45.3007 Q2369.86 48.1653 2375.15 48.1653 Q2378.22 48.1653 2381.09 47.4129 Q2383.98 46.6606 2386.82 45.156 L2386.82 50.1907 Q2383.95 51.406 2380.94 52.0425 Q2377.93 52.6791 2374.84 52.6791 Q2367.08 52.6791 2362.54 48.1653 Q2358.03 43.6514 2358.03 35.9547 Q2358.03 27.9975 2362.31 23.339 Q2366.62 18.6515 2373.91 18.6515 Q2380.45 18.6515 2384.24 22.876 Q2388.06 27.0716 2388.06 34.3054 M2382.74 32.7429 Q2382.68 28.3737 2380.28 25.7695 Q2377.9 23.1654 2373.97 23.1654 Q2369.51 23.1654 2366.82 25.6827 Q2364.16 28.2001 2363.75 32.7718 L2382.74 32.7429 Z" fill="#000000" fill-rule="nonzero" fill-opacity="1" /><path clip-path="url(#clip940)" d="M2411.53 35.5496 Q2405.07 35.5496 2402.58 37.0253 Q2400.1 38.501 2400.1 42.06 Q2400.1 44.8956 2401.95 46.5738 Q2403.83 48.2231 2407.04 48.2231 Q2411.47 48.2231 2414.13 45.0981 Q2416.82 41.9442 2416.82 36.7359 L2416.82 35.5496 L2411.53 35.5496 M2422.15 33.3505 L2422.15 51.84 L2416.82 51.84 L2416.82 46.921 Q2415 49.8724 2412.28 51.2902 Q2409.56 52.6791 2405.62 52.6791 Q2400.65 52.6791 2397.69 49.9014 Q2394.77 47.0947 2394.77 42.4072 Q2394.77 36.9385 2398.42 34.1607 Q2402.09 31.3829 2409.36 31.3829 L2416.82 31.3829 L2416.82 30.8621 Q2416.82 27.1874 2414.39 25.1908 Q2411.99 23.1654 2407.62 23.1654 Q2404.84 23.1654 2402.21 23.8309 Q2399.58 24.4964 2397.15 25.8274 L2397.15 20.9085 Q2400.07 19.78 2402.82 19.2302 Q2405.57 18.6515 2408.17 18.6515 Q2415.2 18.6515 2418.67 22.2973 Q2422.15 25.9431 2422.15 33.3505 Z" fill="#000000" fill-rule="nonzero" fill-opacity="1" /><path clip-path="url(#clip940)" d="M2458.34 25.6538 Q2460.34 22.0659 2463.12 20.3587 Q2465.89 18.6515 2469.66 18.6515 Q2474.72 18.6515 2477.47 22.2105 Q2480.22 25.7406 2480.22 32.2799 L2480.22 51.84 L2474.86 51.84 L2474.86 32.4535 Q2474.86 27.795 2473.22 25.5381 Q2471.57 23.2811 2468.18 23.2811 Q2464.04 23.2811 2461.64 26.03 Q2459.24 28.7788 2459.24 33.5241 L2459.24 51.84 L2453.89 51.84 L2453.89 32.4535 Q2453.89 27.7661 2452.24 25.5381 Q2450.59 23.2811 2447.14 23.2811 Q2443.07 23.2811 2440.66 26.0589 Q2438.26 28.8077 2438.26 33.5241 L2438.26 51.84 L2432.91 51.84 L2432.91 19.4328 L2438.26 19.4328 L2438.26 24.4675 Q2440.08 21.4872 2442.63 20.0693 Q2445.18 18.6515 2448.68 18.6515 Q2452.21 18.6515 2454.67 20.4455 Q2457.16 22.2395 2458.34 25.6538 Z" fill="#000000" fill-rule="nonzero" fill-opacity="1" /><path clip-path="url(#clip942)" d="M489.96 2056.15 L489.96 2156.51 L660.617 2156.51 L660.617 2056.15 L489.96 2056.15 L489.96 2056.15  Z" fill="#ffa500" fill-rule="evenodd" fill-opacity="1"/>
<polyline clip-path="url(#clip942)" style="stroke:#000000; stroke-linecap:round; stroke-linejoin:round; stroke-width:0; stroke-opacity:0; fill:none" points="489.96,2056.15 489.96,2156.51 660.617,2156.51 660.617,2056.15 489.96,2056.15 "/>
<path clip-path="url(#clip942)" d="M1302.61 1621.5 L1302.61 2156.51 L1473.27 2156.51 L1473.27 1621.5 L1302.61 1621.5 L1302.61 1621.5  Z" fill="#ffa500" fill-rule="evenodd" fill-opacity="1"/>
<polyline clip-path="url(#clip942)" style="stroke:#000000; stroke-linecap:round; stroke-linejoin:round; stroke-width:0; stroke-opacity:0; fill:none" points="1302.61,1621.5 1302.61,2156.51 1473.27,2156.51 1473.27,1621.5 1302.61,1621.5 "/>
<path clip-path="url(#clip942)" d="M2115.27 978.43 L2115.27 2156.51 L2285.93 2156.51 L2285.93 978.43 L2115.27 978.43 L2115.27 978.43  Z" fill="#ffa500" fill-rule="evenodd" fill-opacity="1"/>
<polyline clip-path="url(#clip942)" style="stroke:#000000; stroke-linecap:round; stroke-linejoin:round; stroke-width:0; stroke-opacity:0; fill:none" points="2115.27,978.43 2115.27,2156.51 2285.93,2156.51 2285.93,978.43 2115.27,978.43 "/>
<path clip-path="url(#clip942)" d="M2927.92 169.184 L2927.92 2156.51 L3098.58 2156.51 L3098.58 169.184 L2927.92 169.184 L2927.92 169.184  Z" fill="#ffa500" fill-rule="evenodd" fill-opacity="1"/>
<polyline clip-path="url(#clip942)" style="stroke:#000000; stroke-linecap:round; stroke-linejoin:round; stroke-width:0; stroke-opacity:0; fill:none" points="2927.92,169.184 2927.92,2156.51 3098.58,2156.51 3098.58,169.184 2927.92,169.184 "/>
<circle clip-path="url(#clip942)" style="fill:#ffa500; stroke:none; fill-opacity:0" cx="575.289" cy="2056.15" r="2"/>
<circle clip-path="url(#clip942)" style="fill:#ffa500; stroke:none; fill-opacity:0" cx="1387.94" cy="1621.5" r="2"/>
<circle clip-path="url(#clip942)" style="fill:#ffa500; stroke:none; fill-opacity:0" cx="2200.6" cy="978.43" r="2"/>
<circle clip-path="url(#clip942)" style="fill:#ffa500; stroke:none; fill-opacity:0" cx="3013.25" cy="169.184" r="2"/>
<path clip-path="url(#clip942)" d="M774.389 1899.11 L774.389 2156.51 L945.046 2156.51 L945.046 1899.11 L774.389 1899.11 L774.389 1899.11  Z" fill="#00ffff" fill-rule="evenodd" fill-opacity="1"/>
<polyline clip-path="url(#clip942)" style="stroke:#000000; stroke-linecap:round; stroke-linejoin:round; stroke-width:0; stroke-opacity:0; fill:none" points="774.389,1899.11 774.389,2156.51 945.046,2156.51 945.046,1899.11 774.389,1899.11 "/>
<path clip-path="url(#clip942)" d="M1587.04 1799.57 L1587.04 2156.51 L1757.7 2156.51 L1757.7 1799.57 L1587.04 1799.57 L1587.04 1799.57  Z" fill="#00ffff" fill-rule="evenodd" fill-opacity="1"/>
<polyline clip-path="url(#clip942)" style="stroke:#000000; stroke-linecap:round; stroke-linejoin:round; stroke-width:0; stroke-opacity:0; fill:none" points="1587.04,1799.57 1587.04,2156.51 1757.7,2156.51 1757.7,1799.57 1587.04,1799.57 "/>
<path clip-path="url(#clip942)" d="M2399.7 1810 L2399.7 2156.51 L2570.36 2156.51 L2570.36 1810 L2399.7 1810 L2399.7 1810  Z" fill="#00ffff" fill-rule="evenodd" fill-opacity="1"/>
<polyline clip-path="url(#clip942)" style="stroke:#000000; stroke-linecap:round; stroke-linejoin:round; stroke-width:0; stroke-opacity:0; fill:none" points="2399.7,1810 2399.7,2156.51 2570.36,2156.51 2570.36,1810 2399.7,1810 "/>
<path clip-path="url(#clip942)" d="M3212.35 1687.33 L3212.35 2156.51 L3383.01 2156.51 L3383.01 1687.33 L3212.35 1687.33 L3212.35 1687.33  Z" fill="#00ffff" fill-rule="evenodd" fill-opacity="1"/>
<polyline clip-path="url(#clip942)" style="stroke:#000000; stroke-linecap:round; stroke-linejoin:round; stroke-width:0; stroke-opacity:0; fill:none" points="3212.35,1687.33 3212.35,2156.51 3383.01,2156.51 3383.01,1687.33 3212.35,1687.33 "/>
<circle clip-path="url(#clip942)" style="fill:#00ffff; stroke:none; fill-opacity:0" cx="859.718" cy="1899.11" r="2"/>
<circle clip-path="url(#clip942)" style="fill:#00ffff; stroke:none; fill-opacity:0" cx="1672.37" cy="1799.57" r="2"/>
<circle clip-path="url(#clip942)" style="fill:#00ffff; stroke:none; fill-opacity:0" cx="2485.03" cy="1810" r="2"/>
<circle clip-path="url(#clip942)" style="fill:#00ffff; stroke:none; fill-opacity:0" cx="3297.68" cy="1687.33" r="2"/>
<path clip-path="url(#clip940)" d="M427.966 390.948 L1188.21 390.948 L1188.21 235.428 L427.966 235.428  Z" fill="#ffffff" fill-rule="evenodd" fill-opacity="1"/>
<polyline clip-path="url(#clip940)" style="stroke:#000000; stroke-linecap:round; stroke-linejoin:round; stroke-width:4; stroke-opacity:1; fill:none" points="427.966,390.948 1188.21,390.948 1188.21,235.428 427.966,235.428 427.966,390.948 "/>
<path clip-path="url(#clip940)" d="M463.883 308.004 L679.385 308.004 L679.385 266.532 L463.883 266.532 L463.883 308.004  Z" fill="#ffa500" fill-rule="evenodd" fill-opacity="1"/>
<polyline clip-path="url(#clip940)" style="stroke:#000000; stroke-linecap:round; stroke-linejoin:round; stroke-width:0.8; stroke-opacity:0; fill:none" points="463.883,308.004 679.385,308.004 679.385,266.532 463.883,266.532 463.883,308.004 "/>
<path clip-path="url(#clip940)" d="M725.928 268.576 Q722.826 273.9 721.321 279.109 Q719.816 284.317 719.816 289.664 Q719.816 295.011 721.321 300.266 Q722.849 305.497 725.928 310.798 L722.224 310.798 Q718.752 305.359 717.016 300.104 Q715.303 294.849 715.303 289.664 Q715.303 284.502 717.016 279.271 Q718.729 274.039 722.224 268.576 L725.928 268.576 Z" fill="#000000" fill-rule="nonzero" fill-opacity="1" /><path clip-path="url(#clip940)" d="M756.367 290.521 L756.367 292.604 L736.784 292.604 Q737.062 297.002 739.423 299.317 Q741.807 301.609 746.043 301.609 Q748.497 301.609 750.789 301.007 Q753.103 300.405 755.372 299.201 L755.372 303.229 Q753.08 304.201 750.673 304.71 Q748.265 305.22 745.789 305.22 Q739.585 305.22 735.951 301.609 Q732.34 297.997 732.34 291.84 Q732.34 285.474 735.765 281.748 Q739.215 277.998 745.048 277.998 Q750.279 277.998 753.312 281.377 Q756.367 284.734 756.367 290.521 M752.108 289.271 Q752.062 285.775 750.14 283.692 Q748.242 281.609 745.094 281.609 Q741.529 281.609 739.377 283.623 Q737.247 285.636 736.923 289.294 L752.108 289.271 Z" fill="#000000" fill-rule="nonzero" fill-opacity="1" /><path clip-path="url(#clip940)" d="M784.075 278.623 L774.7 291.238 L784.561 304.548 L779.538 304.548 L771.992 294.363 L764.446 304.548 L759.423 304.548 L769.492 290.984 L760.279 278.623 L765.302 278.623 L772.177 287.859 L779.052 278.623 L784.075 278.623 Z" fill="#000000" fill-rule="nonzero" fill-opacity="1" /><path clip-path="url(#clip940)" d="M802.362 291.516 Q797.2 291.516 795.21 292.697 Q793.219 293.877 793.219 296.724 Q793.219 298.993 794.7 300.335 Q796.205 301.655 798.774 301.655 Q802.316 301.655 804.446 299.155 Q806.598 296.632 806.598 292.465 L806.598 291.516 L802.362 291.516 M810.858 289.757 L810.858 304.548 L806.598 304.548 L806.598 300.613 Q805.14 302.974 802.964 304.109 Q800.788 305.22 797.64 305.22 Q793.659 305.22 791.298 302.997 Q788.96 300.752 788.96 297.002 Q788.96 292.627 791.876 290.405 Q794.816 288.183 800.626 288.183 L806.598 288.183 L806.598 287.766 Q806.598 284.826 804.654 283.229 Q802.733 281.609 799.237 281.609 Q797.015 281.609 794.909 282.141 Q792.802 282.673 790.858 283.738 L790.858 279.803 Q793.196 278.9 795.395 278.461 Q797.594 277.998 799.677 277.998 Q805.302 277.998 808.08 280.914 Q810.858 283.831 810.858 289.757 Z" fill="#000000" fill-rule="nonzero" fill-opacity="1" /><path clip-path="url(#clip940)" d="M820.719 298.669 L825.603 298.669 L825.603 302.65 L821.807 310.058 L818.821 310.058 L820.719 302.65 L820.719 298.669 Z" fill="#000000" fill-rule="nonzero" fill-opacity="1" /><path clip-path="url(#clip940)" d="M869.955 283.599 Q871.552 280.729 873.774 279.363 Q875.996 277.998 879.005 277.998 Q883.056 277.998 885.255 280.845 Q887.454 283.669 887.454 288.9 L887.454 304.548 L883.172 304.548 L883.172 289.039 Q883.172 285.312 881.853 283.507 Q880.533 281.701 877.825 281.701 Q874.515 281.701 872.593 283.9 Q870.672 286.099 870.672 289.896 L870.672 304.548 L866.39 304.548 L866.39 289.039 Q866.39 285.289 865.07 283.507 Q863.751 281.701 860.996 281.701 Q857.732 281.701 855.811 283.923 Q853.89 286.123 853.89 289.896 L853.89 304.548 L849.607 304.548 L849.607 278.623 L853.89 278.623 L853.89 282.65 Q855.348 280.266 857.385 279.132 Q859.422 277.998 862.223 277.998 Q865.047 277.998 867.015 279.433 Q869.005 280.868 869.955 283.599 Z" fill="#000000" fill-rule="nonzero" fill-opacity="1" /><path clip-path="url(#clip940)" d="M907.732 291.516 Q902.57 291.516 900.579 292.697 Q898.589 293.877 898.589 296.724 Q898.589 298.993 900.07 300.335 Q901.575 301.655 904.144 301.655 Q907.686 301.655 909.815 299.155 Q911.968 296.632 911.968 292.465 L911.968 291.516 L907.732 291.516 M916.227 289.757 L916.227 304.548 L911.968 304.548 L911.968 300.613 Q910.51 302.974 908.334 304.109 Q906.158 305.22 903.01 305.22 Q899.028 305.22 896.667 302.997 Q894.329 300.752 894.329 297.002 Q894.329 292.627 897.246 290.405 Q900.186 288.183 905.996 288.183 L911.968 288.183 L911.968 287.766 Q911.968 284.826 910.024 283.229 Q908.102 281.609 904.607 281.609 Q902.385 281.609 900.278 282.141 Q898.172 282.673 896.228 283.738 L896.228 279.803 Q898.566 278.9 900.765 278.461 Q902.964 277.998 905.047 277.998 Q910.672 277.998 913.45 280.914 Q916.227 283.831 916.227 289.757 Z" fill="#000000" fill-rule="nonzero" fill-opacity="1" /><path clip-path="url(#clip940)" d="M942.061 282.558 L942.061 268.53 L946.32 268.53 L946.32 304.548 L942.061 304.548 L942.061 300.659 Q940.718 302.974 938.658 304.109 Q936.621 305.22 933.75 305.22 Q929.051 305.22 926.089 301.47 Q923.149 297.72 923.149 291.609 Q923.149 285.498 926.089 281.748 Q929.051 277.998 933.75 277.998 Q936.621 277.998 938.658 279.132 Q940.718 280.243 942.061 282.558 M927.547 291.609 Q927.547 296.308 929.468 298.993 Q931.413 301.655 934.792 301.655 Q938.172 301.655 940.116 298.993 Q942.061 296.308 942.061 291.609 Q942.061 286.91 940.116 284.248 Q938.172 281.562 934.792 281.562 Q931.413 281.562 929.468 284.248 Q927.547 286.91 927.547 291.609 Z" fill="#000000" fill-rule="nonzero" fill-opacity="1" /><path clip-path="url(#clip940)" d="M976.644 288.9 L976.644 304.548 L972.385 304.548 L972.385 289.039 Q972.385 285.359 970.949 283.53 Q969.514 281.701 966.644 281.701 Q963.195 281.701 961.204 283.9 Q959.213 286.099 959.213 289.896 L959.213 304.548 L954.931 304.548 L954.931 278.623 L959.213 278.623 L959.213 282.65 Q960.741 280.312 962.801 279.155 Q964.885 277.998 967.593 277.998 Q972.06 277.998 974.352 280.775 Q976.644 283.53 976.644 288.9 Z" fill="#000000" fill-rule="nonzero" fill-opacity="1" /><path clip-path="url(#clip940)" d="M985.139 268.53 L989.398 268.53 L989.398 304.548 L985.139 304.548 L985.139 268.53 Z" fill="#000000" fill-rule="nonzero" fill-opacity="1" /><path clip-path="url(#clip940)" d="M1002.43 300.659 L1002.43 314.409 L998.148 314.409 L998.148 278.623 L1002.43 278.623 L1002.43 282.558 Q1003.77 280.243 1005.81 279.132 Q1007.87 277.998 1010.72 277.998 Q1015.44 277.998 1018.38 281.748 Q1021.34 285.498 1021.34 291.609 Q1021.34 297.72 1018.38 301.47 Q1015.44 305.22 1010.72 305.22 Q1007.87 305.22 1005.81 304.109 Q1003.77 302.974 1002.43 300.659 M1016.92 291.609 Q1016.92 286.91 1014.98 284.248 Q1013.06 281.562 1009.68 281.562 Q1006.3 281.562 1004.35 284.248 Q1002.43 286.91 1002.43 291.609 Q1002.43 296.308 1004.35 298.993 Q1006.3 301.655 1009.68 301.655 Q1013.06 301.655 1014.98 298.993 Q1016.92 296.308 1016.92 291.609 Z" fill="#000000" fill-rule="nonzero" fill-opacity="1" /><path clip-path="url(#clip940)" d="M1027.73 268.576 L1031.44 268.576 Q1034.91 274.039 1036.62 279.271 Q1038.36 284.502 1038.36 289.664 Q1038.36 294.849 1036.62 300.104 Q1034.91 305.359 1031.44 310.798 L1027.73 310.798 Q1030.81 305.497 1032.31 300.266 Q1033.84 295.011 1033.84 289.664 Q1033.84 284.317 1032.31 279.109 Q1030.81 273.9 1027.73 268.576 Z" fill="#000000" fill-rule="nonzero" fill-opacity="1" /><path clip-path="url(#clip940)" d="M463.883 359.844 L679.385 359.844 L679.385 318.372 L463.883 318.372 L463.883 359.844  Z" fill="#00ffff" fill-rule="evenodd" fill-opacity="1"/>
<polyline clip-path="url(#clip940)" style="stroke:#000000; stroke-linecap:round; stroke-linejoin:round; stroke-width:0.8; stroke-opacity:0; fill:none" points="463.883,359.844 679.385,359.844 679.385,318.372 463.883,318.372 463.883,359.844 "/>
<path clip-path="url(#clip940)" d="M725.928 320.416 Q722.826 325.74 721.321 330.949 Q719.816 336.157 719.816 341.504 Q719.816 346.851 721.321 352.106 Q722.849 357.337 725.928 362.638 L722.224 362.638 Q718.752 357.199 717.016 351.944 Q715.303 346.689 715.303 341.504 Q715.303 336.342 717.016 331.111 Q718.729 325.879 722.224 320.416 L725.928 320.416 Z" fill="#000000" fill-rule="nonzero" fill-opacity="1" /><path clip-path="url(#clip940)" d="M756.367 342.361 L756.367 344.444 L736.784 344.444 Q737.062 348.842 739.423 351.157 Q741.807 353.449 746.043 353.449 Q748.497 353.449 750.789 352.847 Q753.103 352.245 755.372 351.041 L755.372 355.069 Q753.08 356.041 750.673 356.55 Q748.265 357.06 745.789 357.06 Q739.585 357.06 735.951 353.449 Q732.34 349.837 732.34 343.68 Q732.34 337.314 735.765 333.588 Q739.215 329.838 745.048 329.838 Q750.279 329.838 753.312 333.217 Q756.367 336.574 756.367 342.361 M752.108 341.111 Q752.062 337.615 750.14 335.532 Q748.242 333.449 745.094 333.449 Q741.529 333.449 739.377 335.463 Q737.247 337.476 736.923 341.134 L752.108 341.111 Z" fill="#000000" fill-rule="nonzero" fill-opacity="1" /><path clip-path="url(#clip940)" d="M784.075 330.463 L774.7 343.078 L784.561 356.388 L779.538 356.388 L771.992 346.203 L764.446 356.388 L759.423 356.388 L769.492 342.824 L760.279 330.463 L765.302 330.463 L772.177 339.699 L779.052 330.463 L784.075 330.463 Z" fill="#000000" fill-rule="nonzero" fill-opacity="1" /><path clip-path="url(#clip940)" d="M802.362 343.356 Q797.2 343.356 795.21 344.537 Q793.219 345.717 793.219 348.564 Q793.219 350.833 794.7 352.175 Q796.205 353.495 798.774 353.495 Q802.316 353.495 804.446 350.995 Q806.598 348.472 806.598 344.305 L806.598 343.356 L802.362 343.356 M810.858 341.597 L810.858 356.388 L806.598 356.388 L806.598 352.453 Q805.14 354.814 802.964 355.949 Q800.788 357.06 797.64 357.06 Q793.659 357.06 791.298 354.837 Q788.96 352.592 788.96 348.842 Q788.96 344.467 791.876 342.245 Q794.816 340.023 800.626 340.023 L806.598 340.023 L806.598 339.606 Q806.598 336.666 804.654 335.069 Q802.733 333.449 799.237 333.449 Q797.015 333.449 794.909 333.981 Q792.802 334.513 790.858 335.578 L790.858 331.643 Q793.196 330.74 795.395 330.301 Q797.594 329.838 799.677 329.838 Q805.302 329.838 808.08 332.754 Q810.858 335.671 810.858 341.597 Z" fill="#000000" fill-rule="nonzero" fill-opacity="1" /><path clip-path="url(#clip940)" d="M839.33 364.259 L839.33 367.569 L814.7 367.569 L814.7 364.259 L839.33 364.259 Z" fill="#000000" fill-rule="nonzero" fill-opacity="1" /><path clip-path="url(#clip940)" d="M860.394 343.125 Q860.394 338.495 858.473 335.949 Q856.575 333.402 853.126 333.402 Q849.7 333.402 847.779 335.949 Q845.881 338.495 845.881 343.125 Q845.881 347.731 847.779 350.277 Q849.7 352.824 853.126 352.824 Q856.575 352.824 858.473 350.277 Q860.394 347.731 860.394 343.125 M864.654 353.171 Q864.654 359.791 861.714 363.009 Q858.774 366.249 852.709 366.249 Q850.464 366.249 848.473 365.902 Q846.482 365.578 844.607 364.884 L844.607 360.74 Q846.482 361.759 848.311 362.245 Q850.14 362.731 852.038 362.731 Q856.228 362.731 858.311 360.532 Q860.394 358.356 860.394 353.935 L860.394 351.828 Q859.075 354.12 857.015 355.254 Q854.955 356.388 852.084 356.388 Q847.316 356.388 844.399 352.754 Q841.482 349.12 841.482 343.125 Q841.482 337.106 844.399 333.472 Q847.316 329.838 852.084 329.838 Q854.955 329.838 857.015 330.972 Q859.075 332.106 860.394 334.398 L860.394 330.463 L864.654 330.463 L864.654 353.171 Z" fill="#000000" fill-rule="nonzero" fill-opacity="1" /><path clip-path="url(#clip940)" d="M877.547 352.499 L877.547 366.249 L873.265 366.249 L873.265 330.463 L877.547 330.463 L877.547 334.398 Q878.89 332.083 880.927 330.972 Q882.987 329.838 885.834 329.838 Q890.556 329.838 893.496 333.588 Q896.459 337.338 896.459 343.449 Q896.459 349.56 893.496 353.31 Q890.556 357.06 885.834 357.06 Q882.987 357.06 880.927 355.949 Q878.89 354.814 877.547 352.499 M892.038 343.449 Q892.038 338.75 890.093 336.088 Q888.172 333.402 884.792 333.402 Q881.413 333.402 879.468 336.088 Q877.547 338.75 877.547 343.449 Q877.547 348.148 879.468 350.833 Q881.413 353.495 884.792 353.495 Q888.172 353.495 890.093 350.833 Q892.038 348.148 892.038 343.449 Z" fill="#000000" fill-rule="nonzero" fill-opacity="1" /><path clip-path="url(#clip940)" d="M903.079 346.157 L903.079 330.463 L907.339 330.463 L907.339 345.995 Q907.339 349.675 908.774 351.527 Q910.209 353.356 913.079 353.356 Q916.528 353.356 918.519 351.157 Q920.533 348.958 920.533 345.162 L920.533 330.463 L924.792 330.463 L924.792 356.388 L920.533 356.388 L920.533 352.407 Q918.982 354.768 916.922 355.925 Q914.885 357.06 912.177 357.06 Q907.709 357.06 905.394 354.282 Q903.079 351.504 903.079 346.157 M913.797 329.838 L913.797 329.838 Z" fill="#000000" fill-rule="nonzero" fill-opacity="1" /><path clip-path="url(#clip940)" d="M934.653 350.509 L939.538 350.509 L939.538 354.49 L935.741 361.898 L932.755 361.898 L934.653 354.49 L934.653 350.509 Z" fill="#000000" fill-rule="nonzero" fill-opacity="1" /><path clip-path="url(#clip940)" d="M983.889 335.439 Q985.486 332.569 987.709 331.203 Q989.931 329.838 992.94 329.838 Q996.991 329.838 999.19 332.685 Q1001.39 335.509 1001.39 340.74 L1001.39 356.388 L997.107 356.388 L997.107 340.879 Q997.107 337.152 995.787 335.347 Q994.468 333.541 991.759 333.541 Q988.449 333.541 986.528 335.74 Q984.607 337.939 984.607 341.736 L984.607 356.388 L980.324 356.388 L980.324 340.879 Q980.324 337.129 979.005 335.347 Q977.685 333.541 974.931 333.541 Q971.667 333.541 969.746 335.763 Q967.824 337.963 967.824 341.736 L967.824 356.388 L963.542 356.388 L963.542 330.463 L967.824 330.463 L967.824 334.49 Q969.283 332.106 971.32 330.972 Q973.357 329.838 976.158 329.838 Q978.982 329.838 980.949 331.273 Q982.94 332.708 983.889 335.439 Z" fill="#000000" fill-rule="nonzero" fill-opacity="1" /><path clip-path="url(#clip940)" d="M1021.67 343.356 Q1016.5 343.356 1014.51 344.537 Q1012.52 345.717 1012.52 348.564 Q1012.52 350.833 1014 352.175 Q1015.51 353.495 1018.08 353.495 Q1021.62 353.495 1023.75 350.995 Q1025.9 348.472 1025.9 344.305 L1025.9 343.356 L1021.67 343.356 M1030.16 341.597 L1030.16 356.388 L1025.9 356.388 L1025.9 352.453 Q1024.44 354.814 1022.27 355.949 Q1020.09 357.06 1016.94 357.06 Q1012.96 357.06 1010.6 354.837 Q1008.26 352.592 1008.26 348.842 Q1008.26 344.467 1011.18 342.245 Q1014.12 340.023 1019.93 340.023 L1025.9 340.023 L1025.9 339.606 Q1025.9 336.666 1023.96 335.069 Q1022.04 333.449 1018.54 333.449 Q1016.32 333.449 1014.21 333.981 Q1012.11 334.513 1010.16 335.578 L1010.16 331.643 Q1012.5 330.74 1014.7 330.301 Q1016.9 329.838 1018.98 329.838 Q1024.61 329.838 1027.38 332.754 Q1030.16 335.671 1030.16 341.597 Z" fill="#000000" fill-rule="nonzero" fill-opacity="1" /><path clip-path="url(#clip940)" d="M1056 334.398 L1056 320.37 L1060.25 320.37 L1060.25 356.388 L1056 356.388 L1056 352.499 Q1054.65 354.814 1052.59 355.949 Q1050.56 357.06 1047.69 357.06 Q1042.99 357.06 1040.02 353.31 Q1037.08 349.56 1037.08 343.449 Q1037.08 337.338 1040.02 333.588 Q1042.99 329.838 1047.69 329.838 Q1050.56 329.838 1052.59 330.972 Q1054.65 332.083 1056 334.398 M1041.48 343.449 Q1041.48 348.148 1043.4 350.833 Q1045.35 353.495 1048.73 353.495 Q1052.11 353.495 1054.05 350.833 Q1056 348.148 1056 343.449 Q1056 338.75 1054.05 336.088 Q1052.11 333.402 1048.73 333.402 Q1045.35 333.402 1043.4 336.088 Q1041.48 338.75 1041.48 343.449 Z" fill="#000000" fill-rule="nonzero" fill-opacity="1" /><path clip-path="url(#clip940)" d="M1090.58 340.74 L1090.58 356.388 L1086.32 356.388 L1086.32 340.879 Q1086.32 337.199 1084.88 335.37 Q1083.45 333.541 1080.58 333.541 Q1077.13 333.541 1075.14 335.74 Q1073.15 337.939 1073.15 341.736 L1073.15 356.388 L1068.87 356.388 L1068.87 330.463 L1073.15 330.463 L1073.15 334.49 Q1074.68 332.152 1076.74 330.995 Q1078.82 329.838 1081.53 329.838 Q1086 329.838 1088.29 332.615 Q1090.58 335.37 1090.58 340.74 Z" fill="#000000" fill-rule="nonzero" fill-opacity="1" /><path clip-path="url(#clip940)" d="M1099.07 320.37 L1103.33 320.37 L1103.33 356.388 L1099.07 356.388 L1099.07 320.37 Z" fill="#000000" fill-rule="nonzero" fill-opacity="1" /><path clip-path="url(#clip940)" d="M1116.37 352.499 L1116.37 366.249 L1112.08 366.249 L1112.08 330.463 L1116.37 330.463 L1116.37 334.398 Q1117.71 332.083 1119.74 330.972 Q1121.81 329.838 1124.65 329.838 Q1129.37 329.838 1132.31 333.588 Q1135.28 337.338 1135.28 343.449 Q1135.28 349.56 1132.31 353.31 Q1129.37 357.06 1124.65 357.06 Q1121.81 357.06 1119.74 355.949 Q1117.71 354.814 1116.37 352.499 M1130.86 343.449 Q1130.86 338.75 1128.91 336.088 Q1126.99 333.402 1123.61 333.402 Q1120.23 333.402 1118.29 336.088 Q1116.37 338.75 1116.37 343.449 Q1116.37 348.148 1118.29 350.833 Q1120.23 353.495 1123.61 353.495 Q1126.99 353.495 1128.91 350.833 Q1130.86 348.148 1130.86 343.449 Z" fill="#000000" fill-rule="nonzero" fill-opacity="1" /><path clip-path="url(#clip940)" d="M1141.67 320.416 L1145.37 320.416 Q1148.84 325.879 1150.55 331.111 Q1152.29 336.342 1152.29 341.504 Q1152.29 346.689 1150.55 351.944 Q1148.84 357.199 1145.37 362.638 L1141.67 362.638 Q1144.74 357.337 1146.25 352.106 Q1147.78 346.851 1147.78 341.504 Q1147.78 336.157 1146.25 330.949 Q1144.74 325.74 1141.67 320.416 Z" fill="#000000" fill-rule="nonzero" fill-opacity="1" /></svg>
