<?xml version="1.0" encoding="utf-8"?>
<svg xmlns="http://www.w3.org/2000/svg" xmlns:xlink="http://www.w3.org/1999/xlink" width="900" height="600" viewBox="0 0 3600 2400">
<defs>
  <clipPath id="clip910">
    <rect x="0" y="0" width="3600" height="2400"/>
  </clipPath>
</defs>
<path clip-path="url(#clip910)" d="M0 2400 L3600 2400 L3600 0 L0 0  Z" fill="#ffffff" fill-rule="evenodd" fill-opacity="1"/>
<defs>
  <clipPath id="clip911">
    <rect x="290" y="246" width="3264" height="1911"/>
  </clipPath>
</defs>
<path clip-path="url(#clip910)" d="M322.044 2156.51 L3552.76 2156.51 L3552.76 246.944 L322.044 246.944  Z" fill="#ffffff" fill-rule="evenodd" fill-opacity="1"/>
<defs>
  <clipPath id="clip912">
    <rect x="322" y="246" width="3232" height="1911"/>
  </clipPath>
</defs>
<polyline clip-path="url(#clip912)" style="stroke:#000000; stroke-linecap:round; stroke-linejoin:round; stroke-width:2; stroke-opacity:0.1; fill:none" points="491.629,2156.51 491.629,246.944 "/>
<polyline clip-path="url(#clip912)" style="stroke:#000000; stroke-linecap:round; stroke-linejoin:round; stroke-width:2; stroke-opacity:0.1; fill:none" points="1273.13,2156.51 1273.13,246.944 "/>
<polyline clip-path="url(#clip912)" style="stroke:#000000; stroke-linecap:round; stroke-linejoin:round; stroke-width:2; stroke-opacity:0.1; fill:none" points="2054.62,2156.51 2054.62,246.944 "/>
<polyline clip-path="url(#clip912)" style="stroke:#000000; stroke-linecap:round; stroke-linejoin:round; stroke-width:2; stroke-opacity:0.1; fill:none" points="2836.12,2156.51 2836.12,246.944 "/>
<polyline clip-path="url(#clip912)" style="stroke:#000000; stroke-linecap:round; stroke-linejoin:round; stroke-width:2; stroke-opacity:0.1; fill:none" points="322.044,1804.53 3552.76,1804.53 "/>
<polyline clip-path="url(#clip912)" style="stroke:#000000; stroke-linecap:round; stroke-linejoin:round; stroke-width:2; stroke-opacity:0.1; fill:none" points="322.044,756.878 3552.76,756.878 "/>
<polyline clip-path="url(#clip910)" style="stroke:#000000; stroke-linecap:round; stroke-linejoin:round; stroke-width:4; stroke-opacity:1; fill:none" points="322.044,2156.51 3552.76,2156.51 "/>
<polyline clip-path="url(#clip910)" style="stroke:#000000; stroke-linecap:round; stroke-linejoin:round; stroke-width:4; stroke-opacity:1; fill:none" points="491.629,2156.51 491.629,2137.61 "/>
<polyline clip-path="url(#clip910)" style="stroke:#000000; stroke-linecap:round; stroke-linejoin:round; stroke-width:4; stroke-opacity:1; fill:none" points="1273.13,2156.51 1273.13,2137.61 "/>
<polyline clip-path="url(#clip910)" style="stroke:#000000; stroke-linecap:round; stroke-linejoin:round; stroke-width:4; stroke-opacity:1; fill:none" points="2054.62,2156.51 2054.62,2137.61 "/>
<polyline clip-path="url(#clip910)" style="stroke:#000000; stroke-linecap:round; stroke-linejoin:round; stroke-width:4; stroke-opacity:1; fill:none" points="2836.12,2156.51 2836.12,2137.61 "/>
<path clip-path="url(#clip910)" d="M470.403 2224.57 L486.722 2224.57 L486.722 2228.51 L464.778 2228.51 L464.778 2224.57 Q467.44 2221.82 472.023 2217.19 Q476.629 2212.54 477.81 2211.19 Q480.055 2208.67 480.935 2206.93 Q481.838 2205.17 481.838 2203.48 Q481.838 2200.73 479.893 2198.99 Q477.972 2197.26 474.87 2197.26 Q472.671 2197.26 470.217 2198.02 Q467.787 2198.79 465.009 2200.34 L465.009 2195.61 Q467.833 2194.48 470.287 2193.9 Q472.741 2193.32 474.778 2193.32 Q480.148 2193.32 483.342 2196.01 Q486.537 2198.69 486.537 2203.18 Q486.537 2205.31 485.727 2207.23 Q484.94 2209.13 482.833 2211.73 Q482.254 2212.4 479.153 2215.61 Q476.051 2218.81 470.403 2224.57 Z" fill="#000000" fill-rule="nonzero" fill-opacity="1" /><path clip-path="url(#clip910)" d="M506.537 2197.03 Q502.926 2197.03 501.097 2200.59 Q499.291 2204.13 499.291 2211.26 Q499.291 2218.37 501.097 2221.93 Q502.926 2225.48 506.537 2225.48 Q510.171 2225.48 511.976 2221.93 Q513.805 2218.37 513.805 2211.26 Q513.805 2204.13 511.976 2200.59 Q510.171 2197.03 506.537 2197.03 M506.537 2193.32 Q512.347 2193.32 515.402 2197.93 Q518.481 2202.51 518.481 2211.26 Q518.481 2219.99 515.402 2224.6 Q512.347 2229.18 506.537 2229.18 Q500.726 2229.18 497.648 2224.6 Q494.592 2219.99 494.592 2211.26 Q494.592 2202.51 497.648 2197.93 Q500.726 2193.32 506.537 2193.32 Z" fill="#000000" fill-rule="nonzero" fill-opacity="1" /><path clip-path="url(#clip910)" d="M1261.97 2209.87 Q1265.33 2210.59 1267.2 2212.86 Q1269.1 2215.13 1269.1 2218.46 Q1269.1 2223.58 1265.58 2226.38 Q1262.06 2229.18 1255.58 2229.18 Q1253.4 2229.18 1251.09 2228.74 Q1248.8 2228.32 1246.34 2227.47 L1246.34 2222.95 Q1248.29 2224.09 1250.6 2224.67 Q1252.92 2225.24 1255.44 2225.24 Q1259.84 2225.24 1262.13 2223.51 Q1264.45 2221.77 1264.45 2218.46 Q1264.45 2215.41 1262.29 2213.69 Q1260.16 2211.96 1256.34 2211.96 L1252.32 2211.96 L1252.32 2208.11 L1256.53 2208.11 Q1259.98 2208.11 1261.81 2206.75 Q1263.64 2205.36 1263.64 2202.77 Q1263.64 2200.11 1261.74 2198.69 Q1259.86 2197.26 1256.34 2197.26 Q1254.42 2197.26 1252.22 2197.67 Q1250.03 2198.09 1247.39 2198.97 L1247.39 2194.8 Q1250.05 2194.06 1252.36 2193.69 Q1254.7 2193.32 1256.76 2193.32 Q1262.09 2193.32 1265.19 2195.75 Q1268.29 2198.16 1268.29 2202.28 Q1268.29 2205.15 1266.65 2207.14 Q1265 2209.11 1261.97 2209.87 Z" fill="#000000" fill-rule="nonzero" fill-opacity="1" /><path clip-path="url(#clip910)" d="M1287.96 2197.03 Q1284.35 2197.03 1282.53 2200.59 Q1280.72 2204.13 1280.72 2211.26 Q1280.72 2218.37 1282.53 2221.93 Q1284.35 2225.48 1287.96 2225.48 Q1291.6 2225.48 1293.4 2221.93 Q1295.23 2218.37 1295.23 2211.26 Q1295.23 2204.13 1293.4 2200.59 Q1291.6 2197.03 1287.96 2197.03 M1287.96 2193.32 Q1293.78 2193.32 1296.83 2197.93 Q1299.91 2202.51 1299.91 2211.26 Q1299.91 2219.99 1296.83 2224.6 Q1293.78 2229.18 1287.96 2229.18 Q1282.15 2229.18 1279.08 2224.6 Q1276.02 2219.99 1276.02 2211.26 Q1276.02 2202.51 1279.08 2197.93 Q1282.15 2193.32 1287.96 2193.32 Z" fill="#000000" fill-rule="nonzero" fill-opacity="1" /><path clip-path="url(#clip910)" d="M2042.8 2198.02 L2030.99 2216.47 L2042.8 2216.47 L2042.8 2198.02 M2041.57 2193.95 L2047.45 2193.95 L2047.45 2216.47 L2052.38 2216.47 L2052.38 2220.36 L2047.45 2220.36 L2047.45 2228.51 L2042.8 2228.51 L2042.8 2220.36 L2027.19 2220.36 L2027.19 2215.85 L2041.57 2193.95 Z" fill="#000000" fill-rule="nonzero" fill-opacity="1" /><path clip-path="url(#clip910)" d="M2070.11 2197.03 Q2066.5 2197.03 2064.67 2200.59 Q2062.87 2204.13 2062.87 2211.26 Q2062.87 2218.37 2064.67 2221.93 Q2066.5 2225.48 2070.11 2225.48 Q2073.75 2225.48 2075.55 2221.93 Q2077.38 2218.37 2077.38 2211.26 Q2077.38 2204.13 2075.55 2200.59 Q2073.75 2197.03 2070.11 2197.03 M2070.11 2193.32 Q2075.92 2193.32 2078.98 2197.93 Q2082.06 2202.51 2082.06 2211.26 Q2082.06 2219.99 2078.98 2224.6 Q2075.92 2229.18 2070.11 2229.18 Q2064.3 2229.18 2061.22 2224.6 Q2058.17 2219.99 2058.17 2211.26 Q2058.17 2202.51 2061.22 2197.93 Q2064.3 2193.32 2070.11 2193.32 Z" fill="#000000" fill-rule="nonzero" fill-opacity="1" /><path clip-path="url(#clip910)" d="M2810.82 2193.95 L2829.18 2193.95 L2829.18 2197.88 L2815.1 2197.88 L2815.1 2206.36 Q2816.12 2206.01 2817.14 2205.85 Q2818.16 2205.66 2819.18 2205.66 Q2824.97 2205.66 2828.34 2208.83 Q2831.72 2212 2831.72 2217.42 Q2831.72 2223 2828.25 2226.1 Q2824.78 2229.18 2818.46 2229.18 Q2816.28 2229.18 2814.02 2228.81 Q2811.77 2228.44 2809.36 2227.7 L2809.36 2223 Q2811.45 2224.13 2813.67 2224.69 Q2815.89 2225.24 2818.37 2225.24 Q2822.37 2225.24 2824.71 2223.14 Q2827.05 2221.03 2827.05 2217.42 Q2827.05 2213.81 2824.71 2211.7 Q2822.37 2209.6 2818.37 2209.6 Q2816.49 2209.6 2814.62 2210.01 Q2812.77 2210.43 2810.82 2211.31 L2810.82 2193.95 Z" fill="#000000" fill-rule="nonzero" fill-opacity="1" /><path clip-path="url(#clip910)" d="M2850.94 2197.03 Q2847.33 2197.03 2845.5 2200.59 Q2843.69 2204.13 2843.69 2211.26 Q2843.69 2218.37 2845.5 2221.93 Q2847.33 2225.48 2850.94 2225.48 Q2854.57 2225.48 2856.38 2221.93 Q2858.21 2218.37 2858.21 2211.26 Q2858.21 2204.13 2856.38 2200.59 Q2854.57 2197.03 2850.94 2197.03 M2850.94 2193.32 Q2856.75 2193.32 2859.8 2197.93 Q2862.88 2202.51 2862.88 2211.26 Q2862.88 2219.99 2859.8 2224.6 Q2856.75 2229.18 2850.94 2229.18 Q2845.13 2229.18 2842.05 2224.6 Q2838.99 2219.99 2838.99 2211.26 Q2838.99 2202.51 2842.05 2197.93 Q2845.13 2193.32 2850.94 2193.32 Z" fill="#000000" fill-rule="nonzero" fill-opacity="1" /><path clip-path="url(#clip910)" d="M1800.64 2270.99 L1806.48 2270.99 L1806.48 2314.19 L1800.64 2314.19 L1800.64 2270.99 Z" fill="#000000" fill-rule="nonzero" fill-opacity="1" /><path clip-path="url(#clip910)" d="M1823.15 2272.58 L1823.15 2281.78 L1834.12 2281.78 L1834.12 2285.92 L1823.15 2285.92 L1823.15 2303.51 Q1823.15 2307.47 1824.22 2308.6 Q1825.32 2309.73 1828.65 2309.73 L1834.12 2309.73 L1834.12 2314.19 L1828.65 2314.19 Q1822.48 2314.19 1820.14 2311.9 Q1817.8 2309.59 1817.8 2303.51 L1817.8 2285.92 L1813.89 2285.92 L1813.89 2281.78 L1817.8 2281.78 L1817.8 2272.58 L1823.15 2272.58 Z" fill="#000000" fill-rule="nonzero" fill-opacity="1" /><path clip-path="url(#clip910)" d="M1868.84 2296.65 L1868.84 2299.26 L1844.36 2299.26 Q1844.71 2304.75 1847.66 2307.65 Q1850.64 2310.51 1855.93 2310.51 Q1859 2310.51 1861.87 2309.76 Q1864.76 2309.01 1867.59 2307.5 L1867.59 2312.54 Q1864.73 2313.75 1861.72 2314.39 Q1858.71 2315.03 1855.62 2315.03 Q1847.86 2315.03 1843.32 2310.51 Q1838.8 2306 1838.8 2298.3 Q1838.8 2290.35 1843.09 2285.69 Q1847.4 2281 1854.69 2281 Q1861.23 2281 1865.02 2285.22 Q1868.84 2289.42 1868.84 2296.65 M1863.51 2295.09 Q1863.46 2290.72 1861.06 2288.12 Q1858.68 2285.51 1854.75 2285.51 Q1850.29 2285.51 1847.6 2288.03 Q1844.94 2290.55 1844.53 2295.12 L1863.51 2295.09 Z" fill="#000000" fill-rule="nonzero" fill-opacity="1" /><path clip-path="url(#clip910)" d="M1896.36 2286.76 Q1895.46 2286.24 1894.39 2286 Q1893.35 2285.74 1892.07 2285.74 Q1887.56 2285.74 1885.13 2288.7 Q1882.73 2291.62 1882.73 2297.12 L1882.73 2314.19 L1877.37 2314.19 L1877.37 2281.78 L1882.73 2281.78 L1882.73 2286.82 Q1884.41 2283.86 1887.1 2282.45 Q1889.79 2281 1893.64 2281 Q1894.19 2281 1894.85 2281.09 Q1895.52 2281.14 1896.33 2281.29 L1896.36 2286.76 Z" fill="#000000" fill-rule="nonzero" fill-opacity="1" /><path clip-path="url(#clip910)" d="M1916.67 2297.9 Q1910.22 2297.9 1907.73 2299.37 Q1905.24 2300.85 1905.24 2304.41 Q1905.24 2307.24 1907.09 2308.92 Q1908.97 2310.57 1912.18 2310.57 Q1916.61 2310.57 1919.27 2307.45 Q1921.96 2304.29 1921.96 2299.08 L1921.96 2297.9 L1916.67 2297.9 M1927.29 2295.7 L1927.29 2314.19 L1921.96 2314.19 L1921.96 2309.27 Q1920.14 2312.22 1917.42 2313.64 Q1914.7 2315.03 1910.77 2315.03 Q1905.79 2315.03 1902.84 2312.25 Q1899.91 2309.44 1899.91 2304.75 Q1899.91 2299.29 1903.56 2296.51 Q1907.24 2293.73 1914.5 2293.73 L1921.96 2293.73 L1921.96 2293.21 Q1921.96 2289.54 1919.53 2287.54 Q1917.13 2285.51 1912.76 2285.51 Q1909.98 2285.51 1907.35 2286.18 Q1904.72 2286.84 1902.29 2288.18 L1902.29 2283.26 Q1905.21 2282.13 1907.96 2281.58 Q1910.71 2281 1913.31 2281 Q1920.34 2281 1923.82 2284.65 Q1927.29 2288.29 1927.29 2295.7 Z" fill="#000000" fill-rule="nonzero" fill-opacity="1" /><path clip-path="url(#clip910)" d="M1943.52 2272.58 L1943.52 2281.78 L1954.49 2281.78 L1954.49 2285.92 L1943.52 2285.92 L1943.52 2303.51 Q1943.52 2307.47 1944.59 2308.6 Q1945.69 2309.73 1949.02 2309.73 L1954.49 2309.73 L1954.49 2314.19 L1949.02 2314.19 Q1942.85 2314.19 1940.51 2311.9 Q1938.17 2309.59 1938.17 2303.51 L1938.17 2285.92 L1934.26 2285.92 L1934.26 2281.78 L1938.17 2281.78 L1938.17 2272.58 L1943.52 2272.58 Z" fill="#000000" fill-rule="nonzero" fill-opacity="1" /><path clip-path="url(#clip910)" d="M1961.49 2281.78 L1966.81 2281.78 L1966.81 2314.19 L1961.49 2314.19 L1961.49 2281.78 M1961.49 2269.16 L1966.81 2269.16 L1966.81 2275.91 L1961.49 2275.91 L1961.49 2269.16 Z" fill="#000000" fill-rule="nonzero" fill-opacity="1" /><path clip-path="url(#clip910)" d="M1990.51 2285.51 Q1986.23 2285.51 1983.74 2288.87 Q1981.25 2292.2 1981.25 2298.01 Q1981.25 2303.83 1983.71 2307.19 Q1986.2 2310.51 1990.51 2310.51 Q1994.76 2310.51 1997.25 2307.16 Q1999.74 2303.8 1999.74 2298.01 Q1999.74 2292.25 1997.25 2288.9 Q1994.76 2285.51 1990.51 2285.51 M1990.51 2281 Q1997.45 2281 2001.42 2285.51 Q2005.38 2290.03 2005.38 2298.01 Q2005.38 2305.97 2001.42 2310.51 Q1997.45 2315.03 1990.51 2315.03 Q1983.54 2315.03 1979.57 2310.51 Q1975.64 2305.97 1975.64 2298.01 Q1975.64 2290.03 1979.57 2285.51 Q1983.54 2281 1990.51 2281 Z" fill="#000000" fill-rule="nonzero" fill-opacity="1" /><path clip-path="url(#clip910)" d="M2041.15 2294.63 L2041.15 2314.19 L2035.82 2314.19 L2035.82 2294.8 Q2035.82 2290.2 2034.03 2287.91 Q2032.23 2285.63 2028.65 2285.63 Q2024.34 2285.63 2021.85 2288.38 Q2019.36 2291.13 2019.36 2295.87 L2019.36 2314.19 L2014.01 2314.19 L2014.01 2281.78 L2019.36 2281.78 L2019.36 2286.82 Q2021.27 2283.89 2023.84 2282.45 Q2026.45 2281 2029.83 2281 Q2035.42 2281 2038.28 2284.47 Q2041.15 2287.91 2041.15 2294.63 Z" fill="#000000" fill-rule="nonzero" fill-opacity="1" /><path clip-path="url(#clip910)" d="M2072.43 2282.74 L2072.43 2287.77 Q2070.17 2286.61 2067.74 2286.03 Q2065.31 2285.46 2062.7 2285.46 Q2058.74 2285.46 2056.74 2286.67 Q2054.78 2287.89 2054.78 2290.32 Q2054.78 2292.17 2056.19 2293.24 Q2057.61 2294.28 2061.89 2295.24 L2063.72 2295.64 Q2069.39 2296.86 2071.76 2299.08 Q2074.16 2301.28 2074.16 2305.25 Q2074.16 2309.76 2070.57 2312.39 Q2067.01 2315.03 2060.76 2315.03 Q2058.16 2315.03 2055.32 2314.51 Q2052.52 2314.01 2049.39 2313 L2049.39 2307.5 Q2052.34 2309.04 2055.21 2309.82 Q2058.07 2310.57 2060.88 2310.57 Q2064.64 2310.57 2066.67 2309.3 Q2068.69 2308 2068.69 2305.65 Q2068.69 2303.48 2067.22 2302.32 Q2065.77 2301.17 2060.82 2300.1 L2058.97 2299.66 Q2054.02 2298.62 2051.82 2296.48 Q2049.62 2294.31 2049.62 2290.55 Q2049.62 2285.98 2052.87 2283.49 Q2056.11 2281 2062.07 2281 Q2065.02 2281 2067.62 2281.43 Q2070.23 2281.87 2072.43 2282.74 Z" fill="#000000" fill-rule="nonzero" fill-opacity="1" /><polyline clip-path="url(#clip910)" style="stroke:#000000; stroke-linecap:round; stroke-linejoin:round; stroke-width:4; stroke-opacity:1; fill:none" points="322.044,2156.51 322.044,246.944 "/>
<polyline clip-path="url(#clip910)" style="stroke:#000000; stroke-linecap:round; stroke-linejoin:round; stroke-width:4; stroke-opacity:1; fill:none" points="322.044,1804.53 340.942,1804.53 "/>
<polyline clip-path="url(#clip910)" style="stroke:#000000; stroke-linecap:round; stroke-linejoin:round; stroke-width:4; stroke-opacity:1; fill:none" points="322.044,756.878 340.942,756.878 "/>
<path clip-path="url(#clip910)" d="M167.604 1824.32 L175.242 1824.32 L175.242 1797.95 L166.932 1799.62 L166.932 1795.36 L175.196 1793.69 L179.872 1793.69 L179.872 1824.32 L187.511 1824.32 L187.511 1828.25 L167.604 1828.25 L167.604 1824.32 Z" fill="#000000" fill-rule="nonzero" fill-opacity="1" /><path clip-path="url(#clip910)" d="M206.955 1796.77 Q203.344 1796.77 201.515 1800.34 Q199.71 1803.88 199.71 1811.01 Q199.71 1818.11 201.515 1821.68 Q203.344 1825.22 206.955 1825.22 Q210.589 1825.22 212.395 1821.68 Q214.224 1818.11 214.224 1811.01 Q214.224 1803.88 212.395 1800.34 Q210.589 1796.77 206.955 1796.77 M206.955 1793.07 Q212.765 1793.07 215.821 1797.67 Q218.9 1802.26 218.9 1811.01 Q218.9 1819.73 215.821 1824.34 Q212.765 1828.92 206.955 1828.92 Q201.145 1828.92 198.066 1824.34 Q195.011 1819.73 195.011 1811.01 Q195.011 1802.26 198.066 1797.67 Q201.145 1793.07 206.955 1793.07 Z" fill="#000000" fill-rule="nonzero" fill-opacity="1" /><path clip-path="url(#clip910)" d="M218.9 1787.17 L243.011 1787.17 L243.011 1790.37 L218.9 1790.37 L218.9 1787.17 Z" fill="#000000" fill-rule="nonzero" fill-opacity="1" /><path clip-path="url(#clip910)" d="M251.87 1797.65 L258.076 1797.65 L258.076 1776.22 L251.324 1777.58 L251.324 1774.12 L258.039 1772.76 L261.838 1772.76 L261.838 1797.65 L268.044 1797.65 L268.044 1800.84 L251.87 1800.84 L251.87 1797.65 Z" fill="#000000" fill-rule="nonzero" fill-opacity="1" /><path clip-path="url(#clip910)" d="M197.339 776.671 L204.978 776.671 L204.978 750.305 L196.667 751.972 L196.667 747.713 L204.931 746.046 L209.607 746.046 L209.607 776.671 L217.246 776.671 L217.246 780.606 L197.339 780.606 L197.339 776.671 Z" fill="#000000" fill-rule="nonzero" fill-opacity="1" /><path clip-path="url(#clip910)" d="M236.69 749.125 Q233.079 749.125 231.251 752.689 Q229.445 756.231 229.445 763.361 Q229.445 770.467 231.251 774.032 Q233.079 777.574 236.69 777.574 Q240.325 777.574 242.13 774.032 Q243.959 770.467 243.959 763.361 Q243.959 756.231 242.13 752.689 Q240.325 749.125 236.69 749.125 M236.69 745.421 Q242.5 745.421 245.556 750.027 Q248.635 754.611 248.635 763.361 Q248.635 772.088 245.556 776.694 Q242.5 781.277 236.69 781.277 Q230.88 781.277 227.801 776.694 Q224.746 772.088 224.746 763.361 Q224.746 754.611 227.801 750.027 Q230.88 745.421 236.69 745.421 Z" fill="#000000" fill-rule="nonzero" fill-opacity="1" /><path clip-path="url(#clip910)" d="M258.339 727.617 Q255.405 727.617 253.92 730.513 Q252.453 733.391 252.453 739.184 Q252.453 744.958 253.92 747.854 Q255.405 750.732 258.339 750.732 Q261.292 750.732 262.759 747.854 Q264.245 744.958 264.245 739.184 Q264.245 733.391 262.759 730.513 Q261.292 727.617 258.339 727.617 M258.339 724.608 Q263.06 724.608 265.543 728.351 Q268.044 732.074 268.044 739.184 Q268.044 746.274 265.543 750.017 Q263.06 753.741 258.339 753.741 Q253.619 753.741 251.117 750.017 Q248.635 746.274 248.635 739.184 Q248.635 732.074 251.117 728.351 Q253.619 724.608 258.339 724.608 Z" fill="#000000" fill-rule="nonzero" fill-opacity="1" /><path clip-path="url(#clip910)" d="M60.0998 1347.25 L66.263 1347.25 Q63.5141 1350.21 62.1542 1353.56 Q60.7943 1356.89 60.7943 1360.65 Q60.7943 1368.06 65.3371 1371.99 Q69.8509 1375.93 78.4157 1375.93 Q86.9515 1375.93 91.4943 1371.99 Q96.0082 1368.06 96.0082 1360.65 Q96.0082 1356.89 94.6482 1353.56 Q93.2883 1350.21 90.5395 1347.25 L96.6448 1347.25 Q98.7281 1350.32 99.7697 1353.77 Q100.811 1357.18 100.811 1361 Q100.811 1370.81 94.8218 1376.45 Q88.8034 1382.09 78.4157 1382.09 Q67.9991 1382.09 62.0095 1376.45 Q55.991 1370.81 55.991 1361 Q55.991 1357.12 57.0327 1353.71 Q58.0454 1350.26 60.0998 1347.25 Z" fill="#000000" fill-rule="nonzero" fill-opacity="1" /><path clip-path="url(#clip910)" d="M61.5755 1332.38 L77.8081 1332.38 L77.8081 1325.03 Q77.8081 1320.95 75.6958 1318.72 Q73.5835 1316.5 69.6773 1316.5 Q65.8 1316.5 63.6878 1318.72 Q61.5755 1320.95 61.5755 1325.03 L61.5755 1332.38 M56.7723 1338.23 L56.7723 1325.03 Q56.7723 1317.77 60.0709 1314.07 Q63.3405 1310.33 69.6773 1310.33 Q76.0719 1310.33 79.3416 1314.07 Q82.6113 1317.77 82.6113 1325.03 L82.6113 1332.38 L99.9723 1332.38 L99.9723 1338.23 L56.7723 1338.23 Z" fill="#000000" fill-rule="nonzero" fill-opacity="1" /><path clip-path="url(#clip910)" d="M56.7723 1303.16 L56.7723 1297.28 L83.0164 1297.28 Q89.9608 1297.28 93.0279 1294.77 Q96.0661 1292.25 96.0661 1286.61 Q96.0661 1280.99 93.0279 1278.48 Q89.9608 1275.96 83.0164 1275.96 L56.7723 1275.96 L56.7723 1270.08 L83.7397 1270.08 Q92.1888 1270.08 96.5001 1274.28 Q100.811 1278.45 100.811 1286.61 Q100.811 1294.8 96.5001 1298.99 Q92.1888 1303.16 83.7397 1303.16 L56.7723 1303.16 Z" fill="#000000" fill-rule="nonzero" fill-opacity="1" /><path clip-path="url(#clip910)" d="M58.3637 1235.25 L67.565 1235.25 L67.565 1224.28 L71.7028 1224.28 L71.7028 1235.25 L89.2953 1235.25 Q93.2594 1235.25 94.3878 1234.18 Q95.5163 1233.08 95.5163 1229.75 L95.5163 1224.28 L99.9723 1224.28 L99.9723 1229.75 Q99.9723 1235.91 97.6864 1238.26 Q95.3716 1240.6 89.2953 1240.6 L71.7028 1240.6 L71.7028 1244.51 L67.565 1244.51 L67.565 1240.6 L58.3637 1240.6 L58.3637 1235.25 Z" fill="#000000" fill-rule="nonzero" fill-opacity="1" /><path clip-path="url(#clip910)" d="M67.565 1217.28 L67.565 1211.95 L99.9723 1211.95 L99.9723 1217.28 L67.565 1217.28 M54.9494 1217.28 L54.9494 1211.95 L61.6912 1211.95 L61.6912 1217.28 L54.9494 1217.28 Z" fill="#000000" fill-rule="nonzero" fill-opacity="1" /><path clip-path="url(#clip910)" d="M73.7861 1175.58 Q70.1981 1173.59 68.491 1170.81 Q66.7838 1168.03 66.7838 1164.27 Q66.7838 1159.21 70.3428 1156.46 Q73.8729 1153.71 80.4122 1153.71 L99.9723 1153.71 L99.9723 1159.06 L80.5858 1159.06 Q75.9273 1159.06 73.6703 1160.71 Q71.4134 1162.36 71.4134 1165.75 Q71.4134 1169.88 74.1622 1172.28 Q76.9111 1174.69 81.6564 1174.69 L99.9723 1174.69 L99.9723 1180.04 L80.5858 1180.04 Q75.8983 1180.04 73.6703 1181.69 Q71.4134 1183.34 71.4134 1186.78 Q71.4134 1190.86 74.1912 1193.26 Q76.94 1195.66 81.6564 1195.66 L99.9723 1195.66 L99.9723 1201.02 L67.565 1201.02 L67.565 1195.66 L72.5997 1195.66 Q69.6194 1193.84 68.2016 1191.29 Q66.7838 1188.75 66.7838 1185.25 Q66.7838 1181.72 68.5778 1179.26 Q70.3717 1176.77 73.7861 1175.58 Z" fill="#000000" fill-rule="nonzero" fill-opacity="1" /><path clip-path="url(#clip910)" d="M82.4377 1115.37 L85.0418 1115.37 L85.0418 1139.85 Q90.5395 1139.5 93.433 1136.55 Q96.2975 1133.57 96.2975 1128.27 Q96.2975 1125.21 95.5452 1122.34 Q94.7929 1119.45 93.2883 1116.61 L98.323 1116.61 Q99.5383 1119.48 100.175 1122.49 Q100.811 1125.5 100.811 1128.59 Q100.811 1136.35 96.2975 1140.89 Q91.7837 1145.4 84.087 1145.4 Q76.1298 1145.4 71.4713 1141.12 Q66.7838 1136.81 66.7838 1129.52 Q66.7838 1122.98 71.0083 1119.19 Q75.2039 1115.37 82.4377 1115.37 M80.8752 1120.69 Q76.506 1120.75 73.9018 1123.15 Q71.2977 1125.53 71.2977 1129.46 Q71.2977 1133.92 73.815 1136.61 Q76.3324 1139.27 80.9041 1139.67 L80.8752 1120.69 Z" fill="#000000" fill-rule="nonzero" fill-opacity="1" /><path clip-path="url(#clip910)" d="M55.0072 1075.01 Q61.6623 1078.88 68.1727 1080.76 Q74.6831 1082.64 81.3671 1082.64 Q88.0511 1082.64 94.6193 1080.76 Q101.159 1078.85 107.785 1075.01 L107.785 1079.63 Q100.985 1083.97 94.4168 1086.15 Q87.8485 1088.29 81.3671 1088.29 Q74.9145 1088.29 68.3752 1086.15 Q61.8359 1084 55.0072 1079.63 L55.0072 1075.01 Z" fill="#000000" fill-rule="nonzero" fill-opacity="1" /><path clip-path="url(#clip910)" d="M68.5199 1044.02 L73.5546 1044.02 Q72.3972 1046.27 71.8185 1048.7 Q71.2398 1051.13 71.2398 1053.74 Q71.2398 1057.7 72.4551 1059.7 Q73.6703 1061.67 76.1009 1061.67 Q77.9527 1061.67 79.0233 1060.25 Q80.065 1058.83 81.0198 1054.55 L81.4249 1052.73 Q82.6402 1047.05 84.8682 1044.68 Q87.0673 1042.28 91.0314 1042.28 Q95.5452 1042.28 98.1783 1045.87 Q100.811 1049.43 100.811 1055.68 Q100.811 1058.28 100.291 1061.12 Q99.7987 1063.92 98.7859 1067.05 L93.2883 1067.05 Q94.8218 1064.1 95.6031 1061.23 Q96.3554 1058.37 96.3554 1055.56 Q96.3554 1051.8 95.0823 1049.77 Q93.7802 1047.75 91.4364 1047.75 Q89.2663 1047.75 88.1089 1049.22 Q86.9515 1050.67 85.8809 1055.62 L85.4469 1057.47 Q84.4052 1062.42 82.264 1064.62 Q80.0939 1066.82 76.3324 1066.82 Q71.7606 1066.82 69.2722 1063.58 Q66.7838 1060.33 66.7838 1054.37 Q66.7838 1051.42 67.2178 1048.82 Q67.6519 1046.21 68.5199 1044.02 Z" fill="#000000" fill-rule="nonzero" fill-opacity="1" /><path clip-path="url(#clip910)" d="M55.0072 1034.64 L55.0072 1030.01 Q61.8359 1025.67 68.3752 1023.53 Q74.9145 1021.36 81.3671 1021.36 Q87.8485 1021.36 94.4168 1023.53 Q100.985 1025.67 107.785 1030.01 L107.785 1034.64 Q101.159 1030.79 94.6193 1028.91 Q88.0511 1027 81.3671 1027 Q74.6831 1027 68.1727 1028.91 Q61.6623 1030.79 55.0072 1034.64 Z" fill="#000000" fill-rule="nonzero" fill-opacity="1" /><path clip-path="url(#clip910)" d="M1258.75 123.984 L1266.93 123.984 L1266.93 184.464 L1258.75 184.464 L1258.75 123.984 Z" fill="#000000" fill-rule="nonzero" fill-opacity="1" /><path clip-path="url(#clip910)" d="M1290.27 126.212 L1290.27 139.094 L1305.62 139.094 L1305.62 144.887 L1290.27 144.887 L1290.27 169.516 Q1290.27 175.066 1291.77 176.646 Q1293.31 178.226 1297.96 178.226 L1305.62 178.226 L1305.62 184.464 L1297.96 184.464 Q1289.34 184.464 1286.06 181.264 Q1282.77 178.023 1282.77 169.516 L1282.77 144.887 L1277.31 144.887 L1277.31 139.094 L1282.77 139.094 L1282.77 126.212 L1290.27 126.212 Z" fill="#000000" fill-rule="nonzero" fill-opacity="1" /><path clip-path="url(#clip910)" d="M1354.23 159.916 L1354.23 163.561 L1319.96 163.561 Q1320.45 171.258 1324.58 175.309 Q1328.75 179.319 1336.16 179.319 Q1340.46 179.319 1344.47 178.266 Q1348.52 177.213 1352.49 175.106 L1352.49 182.155 Q1348.48 183.856 1344.27 184.748 Q1340.05 185.639 1335.72 185.639 Q1324.86 185.639 1318.5 179.319 Q1312.18 173 1312.18 162.225 Q1312.18 151.085 1318.18 144.563 Q1324.21 138 1334.42 138 Q1343.58 138 1348.88 143.914 Q1354.23 149.788 1354.23 159.916 M1346.78 157.728 Q1346.7 151.611 1343.33 147.965 Q1340.01 144.32 1334.5 144.32 Q1328.27 144.32 1324.5 147.844 Q1320.77 151.368 1320.2 157.769 L1346.78 157.728 Z" fill="#000000" fill-rule="nonzero" fill-opacity="1" /><path clip-path="url(#clip910)" d="M1392.76 146.061 Q1391.5 145.332 1390 145.008 Q1388.54 144.644 1386.76 144.644 Q1380.44 144.644 1377.04 148.776 Q1373.68 152.867 1373.68 160.564 L1373.68 184.464 L1366.18 184.464 L1366.18 139.094 L1373.68 139.094 L1373.68 146.142 Q1376.03 142.011 1379.79 140.026 Q1383.56 138 1388.95 138 Q1389.72 138 1390.65 138.122 Q1391.58 138.203 1392.72 138.405 L1392.76 146.061 Z" fill="#000000" fill-rule="nonzero" fill-opacity="1" /><path clip-path="url(#clip910)" d="M1421.19 161.657 Q1412.16 161.657 1408.68 163.723 Q1405.19 165.789 1405.19 170.772 Q1405.19 174.742 1407.78 177.091 Q1410.42 179.4 1414.91 179.4 Q1421.11 179.4 1424.84 175.025 Q1428.61 170.61 1428.61 163.318 L1428.61 161.657 L1421.19 161.657 M1436.06 158.579 L1436.06 184.464 L1428.61 184.464 L1428.61 177.577 Q1426.05 181.709 1422.25 183.694 Q1418.44 185.639 1412.93 185.639 Q1405.96 185.639 1401.83 181.75 Q1397.74 177.821 1397.74 171.258 Q1397.74 163.602 1402.84 159.713 Q1407.99 155.824 1418.16 155.824 L1428.61 155.824 L1428.61 155.095 Q1428.61 149.95 1425.2 147.155 Q1421.84 144.32 1415.72 144.32 Q1411.84 144.32 1408.15 145.251 Q1404.46 146.183 1401.06 148.046 L1401.06 141.16 Q1405.15 139.58 1409 138.81 Q1412.85 138 1416.49 138 Q1426.34 138 1431.2 143.104 Q1436.06 148.208 1436.06 158.579 Z" fill="#000000" fill-rule="nonzero" fill-opacity="1" /><path clip-path="url(#clip910)" d="M1458.79 126.212 L1458.79 139.094 L1474.14 139.094 L1474.14 144.887 L1458.79 144.887 L1458.79 169.516 Q1458.79 175.066 1460.28 176.646 Q1461.82 178.226 1466.48 178.226 L1474.14 178.226 L1474.14 184.464 L1466.48 184.464 Q1457.85 184.464 1454.57 181.264 Q1451.29 178.023 1451.29 169.516 L1451.29 144.887 L1445.82 144.887 L1445.82 139.094 L1451.29 139.094 L1451.29 126.212 L1458.79 126.212 Z" fill="#000000" fill-rule="nonzero" fill-opacity="1" /><path clip-path="url(#clip910)" d="M1483.94 139.094 L1491.4 139.094 L1491.4 184.464 L1483.94 184.464 L1483.94 139.094 M1483.94 121.432 L1491.4 121.432 L1491.4 130.871 L1483.94 130.871 L1483.94 121.432 Z" fill="#000000" fill-rule="nonzero" fill-opacity="1" /><path clip-path="url(#clip910)" d="M1524.57 144.32 Q1518.58 144.32 1515.09 149.019 Q1511.61 153.677 1511.61 161.819 Q1511.61 169.962 1515.05 174.661 Q1518.54 179.319 1524.57 179.319 Q1530.53 179.319 1534.01 174.62 Q1537.49 169.921 1537.49 161.819 Q1537.49 153.758 1534.01 149.059 Q1530.53 144.32 1524.57 144.32 M1524.57 138 Q1534.29 138 1539.84 144.32 Q1545.39 150.639 1545.39 161.819 Q1545.39 172.959 1539.84 179.319 Q1534.29 185.639 1524.57 185.639 Q1514.81 185.639 1509.26 179.319 Q1503.75 172.959 1503.75 161.819 Q1503.75 150.639 1509.26 144.32 Q1514.81 138 1524.57 138 Z" fill="#000000" fill-rule="nonzero" fill-opacity="1" /><path clip-path="url(#clip910)" d="M1595.46 157.08 L1595.46 184.464 L1588.01 184.464 L1588.01 157.323 Q1588.01 150.882 1585.5 147.682 Q1582.99 144.482 1577.96 144.482 Q1571.93 144.482 1568.44 148.33 Q1564.96 152.178 1564.96 158.822 L1564.96 184.464 L1557.47 184.464 L1557.47 139.094 L1564.96 139.094 L1564.96 146.142 Q1567.63 142.051 1571.24 140.026 Q1574.88 138 1579.62 138 Q1587.44 138 1591.45 142.861 Q1595.46 147.682 1595.46 157.08 Z" fill="#000000" fill-rule="nonzero" fill-opacity="1" /><path clip-path="url(#clip910)" d="M1639.25 140.431 L1639.25 147.479 Q1636.09 145.859 1632.69 145.049 Q1629.29 144.239 1625.64 144.239 Q1620.09 144.239 1617.3 145.94 Q1614.54 147.641 1614.54 151.044 Q1614.54 153.637 1616.53 155.135 Q1618.51 156.594 1624.51 157.931 L1627.06 158.498 Q1635 160.199 1638.32 163.318 Q1641.68 166.397 1641.68 171.947 Q1641.68 178.266 1636.66 181.952 Q1631.68 185.639 1622.93 185.639 Q1619.28 185.639 1615.31 184.91 Q1611.38 184.221 1607.01 182.803 L1607.01 175.106 Q1611.14 177.253 1615.15 178.347 Q1619.16 179.4 1623.09 179.4 Q1628.36 179.4 1631.19 177.618 Q1634.03 175.795 1634.03 172.514 Q1634.03 169.476 1631.96 167.855 Q1629.94 166.235 1623.01 164.736 L1620.42 164.128 Q1613.49 162.67 1610.41 159.672 Q1607.33 156.634 1607.33 151.368 Q1607.33 144.968 1611.87 141.484 Q1616.41 138 1624.75 138 Q1628.88 138 1632.53 138.608 Q1636.17 139.215 1639.25 140.431 Z" fill="#000000" fill-rule="nonzero" fill-opacity="1" /><path clip-path="url(#clip910)" d="M1674.58 139.094 L1682.48 139.094 L1696.65 177.172 L1710.83 139.094 L1718.73 139.094 L1701.72 184.464 L1691.59 184.464 L1674.58 139.094 Z" fill="#000000" fill-rule="nonzero" fill-opacity="1" /><path clip-path="url(#clip910)" d="M1757.95 140.431 L1757.95 147.479 Q1754.79 145.859 1751.38 145.049 Q1747.98 144.239 1744.33 144.239 Q1738.78 144.239 1735.99 145.94 Q1733.23 147.641 1733.23 151.044 Q1733.23 153.637 1735.22 155.135 Q1737.2 156.594 1743.2 157.931 L1745.75 158.498 Q1753.69 160.199 1757.01 163.318 Q1760.38 166.397 1760.38 171.947 Q1760.38 178.266 1755.35 181.952 Q1750.37 185.639 1741.62 185.639 Q1737.97 185.639 1734 184.91 Q1730.07 184.221 1725.7 182.803 L1725.7 175.106 Q1729.83 177.253 1733.84 178.347 Q1737.85 179.4 1741.78 179.4 Q1747.05 179.4 1749.88 177.618 Q1752.72 175.795 1752.72 172.514 Q1752.72 169.476 1750.65 167.855 Q1748.63 166.235 1741.7 164.736 L1739.11 164.128 Q1732.18 162.67 1729.1 159.672 Q1726.02 156.634 1726.02 151.368 Q1726.02 144.968 1730.56 141.484 Q1735.1 138 1743.44 138 Q1747.57 138 1751.22 138.608 Q1754.87 139.215 1757.95 140.431 Z" fill="#000000" fill-rule="nonzero" fill-opacity="1" /><path clip-path="url(#clip910)" d="M1844.23 128.643 L1844.23 137.271 Q1840.1 133.423 1835.4 131.519 Q1830.74 129.615 1825.47 129.615 Q1815.1 129.615 1809.59 135.975 Q1804.08 142.294 1804.08 154.285 Q1804.08 166.235 1809.59 172.595 Q1815.1 178.914 1825.47 178.914 Q1830.74 178.914 1835.4 177.01 Q1840.1 175.106 1844.23 171.258 L1844.23 179.805 Q1839.94 182.722 1835.11 184.18 Q1830.33 185.639 1824.99 185.639 Q1811.25 185.639 1803.36 177.253 Q1795.46 168.828 1795.46 154.285 Q1795.46 139.702 1803.36 131.316 Q1811.25 122.89 1824.99 122.89 Q1830.42 122.89 1835.2 124.349 Q1840.02 125.766 1844.23 128.643 Z" fill="#000000" fill-rule="nonzero" fill-opacity="1" /><path clip-path="url(#clip910)" d="M1865.05 130.709 L1865.05 153.434 L1875.34 153.434 Q1881.05 153.434 1884.17 150.477 Q1887.29 147.52 1887.29 142.051 Q1887.29 136.623 1884.17 133.666 Q1881.05 130.709 1875.34 130.709 L1865.05 130.709 M1856.87 123.984 L1875.34 123.984 Q1885.51 123.984 1890.69 128.602 Q1895.92 133.18 1895.92 142.051 Q1895.92 151.004 1890.69 155.581 Q1885.51 160.159 1875.34 160.159 L1865.05 160.159 L1865.05 184.464 L1856.87 184.464 L1856.87 123.984 Z" fill="#000000" fill-rule="nonzero" fill-opacity="1" /><path clip-path="url(#clip910)" d="M1905.97 123.984 L1914.19 123.984 L1914.19 160.726 Q1914.19 170.448 1917.71 174.742 Q1921.24 178.995 1929.14 178.995 Q1937 178.995 1940.52 174.742 Q1944.04 170.448 1944.04 160.726 L1944.04 123.984 L1952.27 123.984 L1952.27 161.738 Q1952.27 173.567 1946.39 179.603 Q1940.56 185.639 1929.14 185.639 Q1917.67 185.639 1911.8 179.603 Q1905.97 173.567 1905.97 161.738 L1905.97 123.984 Z" fill="#000000" fill-rule="nonzero" fill-opacity="1" /><path clip-path="url(#clip910)" d="M2001.04 126.212 L2001.04 139.094 L2016.39 139.094 L2016.39 144.887 L2001.04 144.887 L2001.04 169.516 Q2001.04 175.066 2002.54 176.646 Q2004.08 178.226 2008.74 178.226 L2016.39 178.226 L2016.39 184.464 L2008.74 184.464 Q2000.11 184.464 1996.83 181.264 Q1993.55 178.023 1993.55 169.516 L1993.55 144.887 L1988.08 144.887 L1988.08 139.094 L1993.55 139.094 L1993.55 126.212 L2001.04 126.212 Z" fill="#000000" fill-rule="nonzero" fill-opacity="1" /><path clip-path="url(#clip910)" d="M2026.2 139.094 L2033.65 139.094 L2033.65 184.464 L2026.2 184.464 L2026.2 139.094 M2026.2 121.432 L2033.65 121.432 L2033.65 130.871 L2026.2 130.871 L2026.2 121.432 Z" fill="#000000" fill-rule="nonzero" fill-opacity="1" /><path clip-path="url(#clip910)" d="M2084.57 147.803 Q2087.36 142.78 2091.25 140.39 Q2095.14 138 2100.41 138 Q2107.5 138 2111.35 142.983 Q2115.19 147.925 2115.19 157.08 L2115.19 184.464 L2107.7 184.464 L2107.7 157.323 Q2107.7 150.801 2105.39 147.641 Q2103.08 144.482 2098.34 144.482 Q2092.55 144.482 2089.19 148.33 Q2085.83 152.178 2085.83 158.822 L2085.83 184.464 L2078.33 184.464 L2078.33 157.323 Q2078.33 150.76 2076.02 147.641 Q2073.71 144.482 2068.89 144.482 Q2063.18 144.482 2059.82 148.37 Q2056.46 152.219 2056.46 158.822 L2056.46 184.464 L2048.96 184.464 L2048.96 139.094 L2056.46 139.094 L2056.46 146.142 Q2059.01 141.97 2062.57 139.985 Q2066.14 138 2071.04 138 Q2075.98 138 2079.42 140.512 Q2082.91 143.023 2084.57 147.803 Z" fill="#000000" fill-rule="nonzero" fill-opacity="1" /><path clip-path="url(#clip910)" d="M2168.87 159.916 L2168.87 163.561 L2134.6 163.561 Q2135.08 171.258 2139.22 175.309 Q2143.39 179.319 2150.8 179.319 Q2155.1 179.319 2159.11 178.266 Q2163.16 177.213 2167.13 175.106 L2167.13 182.155 Q2163.12 183.856 2158.9 184.748 Q2154.69 185.639 2150.36 185.639 Q2139.5 185.639 2133.14 179.319 Q2126.82 173 2126.82 162.225 Q2126.82 151.085 2132.82 144.563 Q2138.85 138 2149.06 138 Q2158.21 138 2163.52 143.914 Q2168.87 149.788 2168.87 159.916 M2161.42 157.728 Q2161.33 151.611 2157.97 147.965 Q2154.65 144.32 2149.14 144.32 Q2142.9 144.32 2139.14 147.844 Q2135.41 151.368 2134.84 157.769 L2161.42 157.728 Z" fill="#000000" fill-rule="nonzero" fill-opacity="1" /><path clip-path="url(#clip910)" d="M2203.71 158.822 L2278.57 158.822 L2278.57 164.655 L2203.71 164.655 L2203.71 158.822 Z" fill="#000000" fill-rule="nonzero" fill-opacity="1" /><path clip-path="url(#clip910)" d="M2316.81 139.094 L2324.26 139.094 L2324.26 185.274 Q2324.26 193.943 2320.94 197.832 Q2317.66 201.721 2310.33 201.721 L2307.49 201.721 L2307.49 195.401 L2309.48 195.401 Q2313.73 195.401 2315.27 193.416 Q2316.81 191.472 2316.81 185.274 L2316.81 139.094 M2316.81 121.432 L2324.26 121.432 L2324.26 130.871 L2316.81 130.871 L2316.81 121.432 Z" fill="#000000" fill-rule="nonzero" fill-opacity="1" /><path clip-path="url(#clip910)" d="M2360.48 161.657 Q2351.44 161.657 2347.96 163.723 Q2344.48 165.789 2344.48 170.772 Q2344.48 174.742 2347.07 177.091 Q2349.7 179.4 2354.2 179.4 Q2360.4 179.4 2364.12 175.025 Q2367.89 170.61 2367.89 163.318 L2367.89 161.657 L2360.48 161.657 M2375.34 158.579 L2375.34 184.464 L2367.89 184.464 L2367.89 177.577 Q2365.34 181.709 2361.53 183.694 Q2357.72 185.639 2352.21 185.639 Q2345.25 185.639 2341.11 181.75 Q2337.02 177.821 2337.02 171.258 Q2337.02 163.602 2342.13 159.713 Q2347.27 155.824 2357.44 155.824 L2367.89 155.824 L2367.89 155.095 Q2367.89 149.95 2364.49 147.155 Q2361.12 144.32 2355.01 144.32 Q2351.12 144.32 2347.43 145.251 Q2343.75 146.183 2340.34 148.046 L2340.34 141.16 Q2344.43 139.58 2348.28 138.81 Q2352.13 138 2355.78 138 Q2365.62 138 2370.48 143.104 Q2375.34 148.208 2375.34 158.579 Z" fill="#000000" fill-rule="nonzero" fill-opacity="1" /><path clip-path="url(#clip910)" d="M2423.35 140.836 L2423.35 147.803 Q2420.19 146.061 2416.99 145.211 Q2413.83 144.32 2410.59 144.32 Q2403.34 144.32 2399.32 148.938 Q2395.31 153.515 2395.31 161.819 Q2395.31 170.124 2399.32 174.742 Q2403.34 179.319 2410.59 179.319 Q2413.83 179.319 2416.99 178.469 Q2420.19 177.577 2423.35 175.836 L2423.35 182.722 Q2420.23 184.18 2416.87 184.91 Q2413.54 185.639 2409.78 185.639 Q2399.53 185.639 2393.49 179.198 Q2387.46 172.757 2387.46 161.819 Q2387.46 150.72 2393.53 144.36 Q2399.65 138 2410.26 138 Q2413.71 138 2416.99 138.729 Q2420.27 139.418 2423.35 140.836 Z" fill="#000000" fill-rule="nonzero" fill-opacity="1" /><path clip-path="url(#clip910)" d="M2436.03 121.432 L2443.52 121.432 L2443.52 158.66 L2465.76 139.094 L2475.28 139.094 L2451.22 160.321 L2476.29 184.464 L2466.57 184.464 L2443.52 162.306 L2443.52 184.464 L2436.03 184.464 L2436.03 121.432 Z" fill="#000000" fill-rule="nonzero" fill-opacity="1" /><path clip-path="url(#clip910)" d="M2513.28 140.431 L2513.28 147.479 Q2510.12 145.859 2506.71 145.049 Q2503.31 144.239 2499.67 144.239 Q2494.12 144.239 2491.32 145.94 Q2488.57 147.641 2488.57 151.044 Q2488.57 153.637 2490.55 155.135 Q2492.54 156.594 2498.53 157.931 L2501.08 158.498 Q2509.02 160.199 2512.34 163.318 Q2515.71 166.397 2515.71 171.947 Q2515.71 178.266 2510.68 181.952 Q2505.7 185.639 2496.95 185.639 Q2493.31 185.639 2489.34 184.91 Q2485.41 184.221 2481.03 182.803 L2481.03 175.106 Q2485.16 177.253 2489.17 178.347 Q2493.18 179.4 2497.11 179.4 Q2502.38 179.4 2505.22 177.618 Q2508.05 175.795 2508.05 172.514 Q2508.05 169.476 2505.99 167.855 Q2503.96 166.235 2497.03 164.736 L2494.44 164.128 Q2487.51 162.67 2484.43 159.672 Q2481.36 156.634 2481.36 151.368 Q2481.36 144.968 2485.89 141.484 Q2490.43 138 2498.77 138 Q2502.91 138 2506.55 138.608 Q2510.2 139.215 2513.28 140.431 Z" fill="#000000" fill-rule="nonzero" fill-opacity="1" /><path clip-path="url(#clip910)" d="M2545.16 144.32 Q2539.16 144.32 2535.68 149.019 Q2532.19 153.677 2532.19 161.819 Q2532.19 169.962 2535.64 174.661 Q2539.12 179.319 2545.16 179.319 Q2551.11 179.319 2554.6 174.62 Q2558.08 169.921 2558.08 161.819 Q2558.08 153.758 2554.6 149.059 Q2551.11 144.32 2545.16 144.32 M2545.16 138 Q2554.88 138 2560.43 144.32 Q2565.98 150.639 2565.98 161.819 Q2565.98 172.959 2560.43 179.319 Q2554.88 185.639 2545.16 185.639 Q2535.39 185.639 2529.84 179.319 Q2524.34 172.959 2524.34 161.819 Q2524.34 150.639 2529.84 144.32 Q2535.39 138 2545.16 138 Z" fill="#000000" fill-rule="nonzero" fill-opacity="1" /><path clip-path="url(#clip910)" d="M2616.05 157.08 L2616.05 184.464 L2608.59 184.464 L2608.59 157.323 Q2608.59 150.882 2606.08 147.682 Q2603.57 144.482 2598.55 144.482 Q2592.51 144.482 2589.03 148.33 Q2585.54 152.178 2585.54 158.822 L2585.54 184.464 L2578.05 184.464 L2578.05 139.094 L2585.54 139.094 L2585.54 146.142 Q2588.22 142.051 2591.82 140.026 Q2595.47 138 2600.21 138 Q2608.03 138 2612.04 142.861 Q2616.05 147.682 2616.05 157.08 Z" fill="#000000" fill-rule="nonzero" fill-opacity="1" /><path clip-path="url(#clip912)" d="M2234.92 1895.11 L2186.92 1895.11 L2210.92 1943.11 L2234.92 1895.11 Z" fill="#9370db" fill-rule="evenodd" fill-opacity="1" stroke="none"/>
<path clip-path="url(#clip912)" d="M3485.32 1368.18 L3437.32 1368.18 L3461.32 1416.18 L3485.32 1368.18 Z" fill="#9370db" fill-rule="evenodd" fill-opacity="1" stroke="none"/>
<path clip-path="url(#clip912)" d="M593.779 1603.67 L545.779 1603.67 L569.779 1651.67 L593.779 1603.67 Z" fill="#9370db" fill-rule="evenodd" fill-opacity="1" stroke="none"/>
<path clip-path="url(#clip912)" d="M437.48 1373.22 L389.48 1373.22 L413.48 1421.22 L437.48 1373.22 Z" fill="#9370db" fill-rule="evenodd" fill-opacity="1" stroke="none"/>
<path clip-path="url(#clip912)" d="M437.48 922.942 L389.48 922.942 L413.48 970.942 L437.48 922.942 Z" fill="#9370db" fill-rule="evenodd" fill-opacity="1" stroke="none"/>
<circle clip-path="url(#clip912)" cx="2210.92" cy="1755.64" r="21.6" fill="#4682b4" fill-rule="evenodd" fill-opacity="1" stroke="none"/>
<circle clip-path="url(#clip912)" cx="3461.32" cy="1212.52" r="21.6" fill="#4682b4" fill-rule="evenodd" fill-opacity="1" stroke="none"/>
<circle clip-path="url(#clip912)" cx="569.779" cy="1351.03" r="21.6" fill="#4682b4" fill-rule="evenodd" fill-opacity="1" stroke="none"/>
<circle clip-path="url(#clip912)" cx="413.48" cy="971.319" r="21.6" fill="#4682b4" fill-rule="evenodd" fill-opacity="1" stroke="none"/>
<circle clip-path="url(#clip912)" cx="413.48" cy="411.711" r="21.6" fill="#4682b4" fill-rule="evenodd" fill-opacity="1" stroke="none"/>
<path clip-path="url(#clip912)" d="M2186.92 1856.39 L2186.92 1904.39 L2234.92 1904.39 L2234.92 1856.39 L2186.92 1856.39 Z" fill="#ff6347" fill-rule="evenodd" fill-opacity="1" stroke="none"/>
<path clip-path="url(#clip912)" d="M3437.32 1328.71 L3437.32 1376.71 L3485.32 1376.71 L3485.32 1328.71 L3437.32 1328.71 Z" fill="#ff6347" fill-rule="evenodd" fill-opacity="1" stroke="none"/>
<path clip-path="url(#clip912)" d="M545.779 1596.01 L545.779 1644.01 L593.779 1644.01 L593.779 1596.01 L545.779 1596.01 Z" fill="#ff6347" fill-rule="evenodd" fill-opacity="1" stroke="none"/>
<path clip-path="url(#clip912)" d="M389.48 1361.57 L389.48 1409.57 L437.48 1409.57 L437.48 1361.57 L389.48 1361.57 Z" fill="#ff6347" fill-rule="evenodd" fill-opacity="1" stroke="none"/>
<path clip-path="url(#clip912)" d="M389.48 924.268 L389.48 972.268 L437.48 972.268 L437.48 924.268 L389.48 924.268 Z" fill="#ff6347" fill-rule="evenodd" fill-opacity="1" stroke="none"/>
<path clip-path="url(#clip912)" d="M2054.62 2078.46 L2048.98 2094.69 L2031.8 2095.05 L2045.5 2105.44 L2040.51 2121.88 L2054.62 2112.06 L2068.74 2121.88 L2063.74 2105.44 L2077.45 2095.05 L2060.26 2094.69 L2054.62 2078.46 Z" fill="#a0522d" fill-rule="evenodd" fill-opacity="1" stroke="none"/>
<path clip-path="url(#clip912)" d="M647.929 2056.79 L642.289 2073.02 L625.105 2073.38 L638.809 2083.77 L633.817 2100.21 L647.929 2090.39 L662.041 2100.21 L657.049 2083.77 L670.753 2073.38 L653.569 2073.02 L647.929 2056.79 Z" fill="#a0522d" fill-rule="evenodd" fill-opacity="1" stroke="none"/>
<path clip-path="url(#clip912)" d="M726.079 1741.3 L720.439 1757.52 L703.255 1757.88 L716.959 1768.27 L711.967 1784.71 L726.079 1774.9 L740.191 1784.71 L735.199 1768.27 L748.903 1757.88 L731.719 1757.52 L726.079 1741.3 Z" fill="#a0522d" fill-rule="evenodd" fill-opacity="1" stroke="none"/>
<path clip-path="url(#clip912)" d="M726.079 1319.83 L720.439 1336.06 L703.255 1336.42 L716.959 1346.81 L711.967 1363.25 L726.079 1353.43 L740.191 1363.25 L735.199 1346.81 L748.903 1336.42 L731.719 1336.06 L726.079 1319.83 Z" fill="#a0522d" fill-rule="evenodd" fill-opacity="1" stroke="none"/>
<path clip-path="url(#clip912)" d="M726.079 849.687 L720.439 865.911 L703.255 866.271 L716.959 876.663 L711.967 893.103 L726.079 883.287 L740.191 893.103 L735.199 876.663 L748.903 866.271 L731.719 865.911 L726.079 849.687 Z" fill="#a0522d" fill-rule="evenodd" fill-opacity="1" stroke="none"/>
<path clip-path="url(#clip912)" d="M2054.62 1816.02 L2030.62 1840.02 L2054.62 1864.02 L2078.62 1840.02 L2054.62 1816.02 Z" fill="#2e8b57" fill-rule="evenodd" fill-opacity="1" stroke="none"/>
<path clip-path="url(#clip912)" d="M647.929 1728.26 L623.929 1752.26 L647.929 1776.26 L671.929 1752.26 L647.929 1728.26 Z" fill="#2e8b57" fill-rule="evenodd" fill-opacity="1" stroke="none"/>
<path clip-path="url(#clip912)" d="M726.079 1280.53 L702.079 1304.53 L726.079 1328.53 L750.079 1304.53 L726.079 1280.53 Z" fill="#2e8b57" fill-rule="evenodd" fill-opacity="1" stroke="none"/>
<path clip-path="url(#clip912)" d="M726.079 829.945 L702.079 853.945 L726.079 877.945 L750.079 853.945 L726.079 829.945 Z" fill="#2e8b57" fill-rule="evenodd" fill-opacity="1" stroke="none"/>
<path clip-path="url(#clip912)" d="M726.079 276.989 L702.079 300.989 L726.079 324.989 L750.079 300.989 L726.079 276.989 Z" fill="#2e8b57" fill-rule="evenodd" fill-opacity="1" stroke="none"/>
<path clip-path="url(#clip912)" d="M2054.62 2059.18 L2030.62 2107.18 L2078.62 2107.18 L2054.62 2059.18 Z" fill="#ff8c00" fill-rule="evenodd" fill-opacity="1" stroke="none"/>
<path clip-path="url(#clip912)" d="M647.929 2061.24 L623.929 2109.24 L671.929 2109.24 L647.929 2061.24 Z" fill="#ff8c00" fill-rule="evenodd" fill-opacity="1" stroke="none"/>
<path clip-path="url(#clip912)" d="M726.079 1732.69 L702.079 1780.69 L750.079 1780.69 L726.079 1732.69 Z" fill="#ff8c00" fill-rule="evenodd" fill-opacity="1" stroke="none"/>
<path clip-path="url(#clip912)" d="M726.079 1282.39 L702.079 1330.39 L750.079 1330.39 L726.079 1282.39 Z" fill="#ff8c00" fill-rule="evenodd" fill-opacity="1" stroke="none"/>
<path clip-path="url(#clip912)" d="M726.079 807.408 L702.079 855.408 L750.079 855.408 L726.079 807.408 Z" fill="#ff8c00" fill-rule="evenodd" fill-opacity="1" stroke="none"/>
<path clip-path="url(#clip910)" d="M2751.93 673.476 L3445.07 673.476 L3445.07 310.596 L2751.93 310.596  Z" fill="#ffffff" fill-rule="evenodd" fill-opacity="1"/>
<polyline clip-path="url(#clip910)" style="stroke:#000000; stroke-linecap:round; stroke-linejoin:round; stroke-width:4; stroke-opacity:1; fill:none" points="2751.93,673.476 3445.07,673.476 3445.07,310.596 2751.93,310.596 2751.93,673.476 "/>
<path clip-path="url(#clip910)" d="M2921.11 336.836 L2869.91 336.836 L2895.51 388.036 L2921.11 336.836 Z" fill="#9370db" fill-rule="evenodd" fill-opacity="1" stroke="none"/>
<path clip-path="url(#clip910)" d="M3049.73 343.744 Q3046.62 349.068 3045.12 354.277 Q3043.62 359.485 3043.62 364.832 Q3043.62 370.179 3045.12 375.434 Q3046.65 380.665 3049.73 385.966 L3046.02 385.966 Q3042.55 380.527 3040.81 375.272 Q3039.1 370.017 3039.1 364.832 Q3039.1 359.67 3040.81 354.439 Q3042.53 349.207 3046.02 343.744 L3049.73 343.744 Z" fill="#000000" fill-rule="nonzero" fill-opacity="1" /><path clip-path="url(#clip910)" d="M3057.99 353.791 L3062.25 353.791 L3062.25 380.179 Q3062.25 385.133 3060.35 387.355 Q3058.48 389.577 3054.29 389.577 L3052.67 389.577 L3052.67 385.966 L3053.8 385.966 Q3056.23 385.966 3057.11 384.832 Q3057.99 383.721 3057.99 380.179 L3057.99 353.791 M3057.99 343.698 L3062.25 343.698 L3062.25 349.092 L3057.99 349.092 L3057.99 343.698 Z" fill="#000000" fill-rule="nonzero" fill-opacity="1" /><path clip-path="url(#clip910)" d="M3070.72 369.485 L3070.72 353.791 L3074.98 353.791 L3074.98 369.323 Q3074.98 373.003 3076.42 374.855 Q3077.85 376.684 3080.72 376.684 Q3084.17 376.684 3086.16 374.485 Q3088.18 372.286 3088.18 368.49 L3088.18 353.791 L3092.43 353.791 L3092.43 379.716 L3088.18 379.716 L3088.18 375.735 Q3086.62 378.096 3084.56 379.253 Q3082.53 380.388 3079.82 380.388 Q3075.35 380.388 3073.04 377.61 Q3070.72 374.832 3070.72 369.485 M3081.44 353.166 L3081.44 353.166 Z" fill="#000000" fill-rule="nonzero" fill-opacity="1" /><path clip-path="url(#clip910)" d="M3121.39 358.767 Q3122.99 355.897 3125.21 354.531 Q3127.43 353.166 3130.44 353.166 Q3134.49 353.166 3136.69 356.013 Q3138.89 358.837 3138.89 364.068 L3138.89 379.716 L3134.61 379.716 L3134.61 364.207 Q3134.61 360.48 3133.29 358.675 Q3131.97 356.869 3129.26 356.869 Q3125.95 356.869 3124.03 359.068 Q3122.11 361.267 3122.11 365.064 L3122.11 379.716 L3117.83 379.716 L3117.83 364.207 Q3117.83 360.457 3116.51 358.675 Q3115.19 356.869 3112.43 356.869 Q3109.17 356.869 3107.25 359.091 Q3105.33 361.291 3105.33 365.064 L3105.33 379.716 L3101.05 379.716 L3101.05 353.791 L3105.33 353.791 L3105.33 357.818 Q3106.79 355.434 3108.82 354.3 Q3110.86 353.166 3113.66 353.166 Q3116.49 353.166 3118.45 354.601 Q3120.44 356.036 3121.39 358.767 Z" fill="#000000" fill-rule="nonzero" fill-opacity="1" /><path clip-path="url(#clip910)" d="M3151.51 375.827 L3151.51 389.577 L3147.23 389.577 L3147.23 353.791 L3151.51 353.791 L3151.51 357.726 Q3152.85 355.411 3154.89 354.3 Q3156.95 353.166 3159.8 353.166 Q3164.52 353.166 3167.46 356.916 Q3170.42 360.666 3170.42 366.777 Q3170.42 372.888 3167.46 376.638 Q3164.52 380.388 3159.8 380.388 Q3156.95 380.388 3154.89 379.277 Q3152.85 378.142 3151.51 375.827 M3166 366.777 Q3166 362.078 3164.05 359.416 Q3162.13 356.73 3158.75 356.73 Q3155.37 356.73 3153.43 359.416 Q3151.51 362.078 3151.51 366.777 Q3151.51 371.476 3153.43 374.161 Q3155.37 376.823 3158.75 376.823 Q3162.13 376.823 3164.05 374.161 Q3166 371.476 3166 366.777 Z" fill="#000000" fill-rule="nonzero" fill-opacity="1" /><path clip-path="url(#clip910)" d="M3178.57 373.837 L3183.45 373.837 L3183.45 377.818 L3179.66 385.226 L3176.67 385.226 L3178.57 377.818 L3178.57 373.837 Z" fill="#000000" fill-rule="nonzero" fill-opacity="1" /><path clip-path="url(#clip910)" d="M3207.62 353.791 L3211.88 353.791 L3211.88 379.716 L3207.62 379.716 L3207.62 353.791 M3207.62 343.698 L3211.88 343.698 L3211.88 349.092 L3207.62 349.092 L3207.62 343.698 Z" fill="#000000" fill-rule="nonzero" fill-opacity="1" /><path clip-path="url(#clip910)" d="M3224.91 375.827 L3224.91 389.577 L3220.63 389.577 L3220.63 353.791 L3224.91 353.791 L3224.91 357.726 Q3226.25 355.411 3228.29 354.3 Q3230.35 353.166 3233.2 353.166 Q3237.92 353.166 3240.86 356.916 Q3243.82 360.666 3243.82 366.777 Q3243.82 372.888 3240.86 376.638 Q3237.92 380.388 3233.2 380.388 Q3230.35 380.388 3228.29 379.277 Q3226.25 378.142 3224.91 375.827 M3239.4 366.777 Q3239.4 362.078 3237.46 359.416 Q3235.54 356.73 3232.16 356.73 Q3228.78 356.73 3226.83 359.416 Q3224.91 362.078 3224.91 366.777 Q3224.91 371.476 3226.83 374.161 Q3228.78 376.823 3232.16 376.823 Q3235.54 376.823 3237.46 374.161 Q3239.4 371.476 3239.4 366.777 Z" fill="#000000" fill-rule="nonzero" fill-opacity="1" /><path clip-path="url(#clip910)" d="M3260.93 356.777 Q3257.5 356.777 3255.51 359.462 Q3253.52 362.124 3253.52 366.777 Q3253.52 371.429 3255.49 374.115 Q3257.48 376.777 3260.93 376.777 Q3264.33 376.777 3266.32 374.091 Q3268.31 371.406 3268.31 366.777 Q3268.31 362.17 3266.32 359.485 Q3264.33 356.777 3260.93 356.777 M3260.93 353.166 Q3266.48 353.166 3269.66 356.777 Q3272.83 360.388 3272.83 366.777 Q3272.83 373.142 3269.66 376.777 Q3266.48 380.388 3260.93 380.388 Q3255.35 380.388 3252.18 376.777 Q3249.03 373.142 3249.03 366.777 Q3249.03 360.388 3252.18 356.777 Q3255.35 353.166 3260.93 353.166 Z" fill="#000000" fill-rule="nonzero" fill-opacity="1" /><path clip-path="url(#clip910)" d="M3284.01 375.827 L3284.01 389.577 L3279.72 389.577 L3279.72 353.791 L3284.01 353.791 L3284.01 357.726 Q3285.35 355.411 3287.39 354.3 Q3289.45 353.166 3292.29 353.166 Q3297.02 353.166 3299.96 356.916 Q3302.92 360.666 3302.92 366.777 Q3302.92 372.888 3299.96 376.638 Q3297.02 380.388 3292.29 380.388 Q3289.45 380.388 3287.39 379.277 Q3285.35 378.142 3284.01 375.827 M3298.5 366.777 Q3298.5 362.078 3296.55 359.416 Q3294.63 356.73 3291.25 356.73 Q3287.87 356.73 3285.93 359.416 Q3284.01 362.078 3284.01 366.777 Q3284.01 371.476 3285.93 374.161 Q3287.87 376.823 3291.25 376.823 Q3294.63 376.823 3296.55 374.161 Q3298.5 371.476 3298.5 366.777 Z" fill="#000000" fill-rule="nonzero" fill-opacity="1" /><path clip-path="url(#clip910)" d="M3314.19 346.43 L3314.19 353.791 L3322.97 353.791 L3322.97 357.101 L3314.19 357.101 L3314.19 371.175 Q3314.19 374.346 3315.05 375.249 Q3315.93 376.152 3318.59 376.152 L3322.97 376.152 L3322.97 379.716 L3318.59 379.716 Q3313.66 379.716 3311.78 377.888 Q3309.91 376.036 3309.91 371.175 L3309.91 357.101 L3306.79 357.101 L3306.79 353.791 L3309.91 353.791 L3309.91 346.43 L3314.19 346.43 Z" fill="#000000" fill-rule="nonzero" fill-opacity="1" /><path clip-path="url(#clip910)" d="M3327.9 343.744 L3331.6 343.744 Q3335.07 349.207 3336.78 354.439 Q3338.52 359.67 3338.52 364.832 Q3338.52 370.017 3336.78 375.272 Q3335.07 380.527 3331.6 385.966 L3327.9 385.966 Q3330.97 380.665 3332.48 375.434 Q3334.01 370.179 3334.01 364.832 Q3334.01 359.485 3332.48 354.277 Q3330.97 349.068 3327.9 343.744 Z" fill="#000000" fill-rule="nonzero" fill-opacity="1" /><circle clip-path="url(#clip910)" cx="2895.51" cy="414.276" r="23.04" fill="#4682b4" fill-rule="evenodd" fill-opacity="1" stroke="none"/>
<path clip-path="url(#clip910)" d="M3049.73 395.584 Q3046.62 400.908 3045.12 406.117 Q3043.62 411.325 3043.62 416.672 Q3043.62 422.019 3045.12 427.274 Q3046.65 432.505 3049.73 437.806 L3046.02 437.806 Q3042.55 432.367 3040.81 427.112 Q3039.1 421.857 3039.1 416.672 Q3039.1 411.51 3040.81 406.279 Q3042.53 401.047 3046.02 395.584 L3049.73 395.584 Z" fill="#000000" fill-rule="nonzero" fill-opacity="1" /><path clip-path="url(#clip910)" d="M3069.77 418.524 Q3064.61 418.524 3062.62 419.705 Q3060.63 420.885 3060.63 423.732 Q3060.63 426.001 3062.11 427.343 Q3063.62 428.663 3066.18 428.663 Q3069.73 428.663 3071.86 426.163 Q3074.01 423.64 3074.01 419.473 L3074.01 418.524 L3069.77 418.524 M3078.27 416.765 L3078.27 431.556 L3074.01 431.556 L3074.01 427.621 Q3072.55 429.982 3070.37 431.117 Q3068.2 432.228 3065.05 432.228 Q3061.07 432.228 3058.71 430.005 Q3056.37 427.76 3056.37 424.01 Q3056.37 419.635 3059.29 417.413 Q3062.23 415.191 3068.04 415.191 L3074.01 415.191 L3074.01 414.774 Q3074.01 411.834 3072.06 410.237 Q3070.14 408.617 3066.65 408.617 Q3064.43 408.617 3062.32 409.149 Q3060.21 409.681 3058.27 410.746 L3058.27 406.811 Q3060.61 405.908 3062.8 405.469 Q3065 405.006 3067.09 405.006 Q3072.71 405.006 3075.49 407.922 Q3078.27 410.839 3078.27 416.765 Z" fill="#000000" fill-rule="nonzero" fill-opacity="1" /><path clip-path="url(#clip910)" d="M3104.1 409.566 L3104.1 395.538 L3108.36 395.538 L3108.36 431.556 L3104.1 431.556 L3104.1 427.667 Q3102.76 429.982 3100.7 431.117 Q3098.66 432.228 3095.79 432.228 Q3091.09 432.228 3088.13 428.478 Q3085.19 424.728 3085.19 418.617 Q3085.19 412.506 3088.13 408.756 Q3091.09 405.006 3095.79 405.006 Q3098.66 405.006 3100.7 406.14 Q3102.76 407.251 3104.1 409.566 M3089.59 418.617 Q3089.59 423.316 3091.51 426.001 Q3093.45 428.663 3096.83 428.663 Q3100.21 428.663 3102.16 426.001 Q3104.1 423.316 3104.1 418.617 Q3104.1 413.918 3102.16 411.256 Q3100.21 408.57 3096.83 408.57 Q3093.45 408.57 3091.51 411.256 Q3089.59 413.918 3089.59 418.617 Z" fill="#000000" fill-rule="nonzero" fill-opacity="1" /><path clip-path="url(#clip910)" d="M3138.68 415.908 L3138.68 431.556 L3134.42 431.556 L3134.42 416.047 Q3134.42 412.367 3132.99 410.538 Q3131.55 408.709 3128.68 408.709 Q3125.24 408.709 3123.24 410.908 Q3121.25 413.107 3121.25 416.904 L3121.25 431.556 L3116.97 431.556 L3116.97 405.631 L3121.25 405.631 L3121.25 409.658 Q3122.78 407.32 3124.84 406.163 Q3126.92 405.006 3129.63 405.006 Q3134.1 405.006 3136.39 407.783 Q3138.68 410.538 3138.68 415.908 Z" fill="#000000" fill-rule="nonzero" fill-opacity="1" /><path clip-path="url(#clip910)" d="M3147.18 395.538 L3151.44 395.538 L3151.44 431.556 L3147.18 431.556 L3147.18 395.538 Z" fill="#000000" fill-rule="nonzero" fill-opacity="1" /><path clip-path="url(#clip910)" d="M3164.47 427.667 L3164.47 441.417 L3160.19 441.417 L3160.19 405.631 L3164.47 405.631 L3164.47 409.566 Q3165.81 407.251 3167.85 406.14 Q3169.91 405.006 3172.76 405.006 Q3177.48 405.006 3180.42 408.756 Q3183.38 412.506 3183.38 418.617 Q3183.38 424.728 3180.42 428.478 Q3177.48 432.228 3172.76 432.228 Q3169.91 432.228 3167.85 431.117 Q3165.81 429.982 3164.47 427.667 M3178.96 418.617 Q3178.96 413.918 3177.02 411.256 Q3175.1 408.57 3171.72 408.57 Q3168.34 408.57 3166.39 411.256 Q3164.47 413.918 3164.47 418.617 Q3164.47 423.316 3166.39 426.001 Q3168.34 428.663 3171.72 428.663 Q3175.1 428.663 3177.02 426.001 Q3178.96 423.316 3178.96 418.617 Z" fill="#000000" fill-rule="nonzero" fill-opacity="1" /><path clip-path="url(#clip910)" d="M3191.53 425.677 L3196.42 425.677 L3196.42 429.658 L3192.62 437.066 L3189.63 437.066 L3191.53 429.658 L3191.53 425.677 Z" fill="#000000" fill-rule="nonzero" fill-opacity="1" /><path clip-path="url(#clip910)" d="M3220.58 405.631 L3224.84 405.631 L3224.84 431.556 L3220.58 431.556 L3220.58 405.631 M3220.58 395.538 L3224.84 395.538 L3224.84 400.932 L3220.58 400.932 L3220.58 395.538 Z" fill="#000000" fill-rule="nonzero" fill-opacity="1" /><path clip-path="url(#clip910)" d="M3237.87 427.667 L3237.87 441.417 L3233.59 441.417 L3233.59 405.631 L3237.87 405.631 L3237.87 409.566 Q3239.22 407.251 3241.25 406.14 Q3243.31 405.006 3246.16 405.006 Q3250.88 405.006 3253.82 408.756 Q3256.79 412.506 3256.79 418.617 Q3256.79 424.728 3253.82 428.478 Q3250.88 432.228 3246.16 432.228 Q3243.31 432.228 3241.25 431.117 Q3239.22 429.982 3237.87 427.667 M3252.36 418.617 Q3252.36 413.918 3250.42 411.256 Q3248.5 408.57 3245.12 408.57 Q3241.74 408.57 3239.79 411.256 Q3237.87 413.918 3237.87 418.617 Q3237.87 423.316 3239.79 426.001 Q3241.74 428.663 3245.12 428.663 Q3248.5 428.663 3250.42 426.001 Q3252.36 423.316 3252.36 418.617 Z" fill="#000000" fill-rule="nonzero" fill-opacity="1" /><path clip-path="url(#clip910)" d="M3273.89 408.617 Q3270.47 408.617 3268.48 411.302 Q3266.48 413.964 3266.48 418.617 Q3266.48 423.269 3268.45 425.955 Q3270.44 428.617 3273.89 428.617 Q3277.29 428.617 3279.29 425.931 Q3281.28 423.246 3281.28 418.617 Q3281.28 414.01 3279.29 411.325 Q3277.29 408.617 3273.89 408.617 M3273.89 405.006 Q3279.45 405.006 3282.62 408.617 Q3285.79 412.228 3285.79 418.617 Q3285.79 424.982 3282.62 428.617 Q3279.45 432.228 3273.89 432.228 Q3268.31 432.228 3265.14 428.617 Q3261.99 424.982 3261.99 418.617 Q3261.99 412.228 3265.14 408.617 Q3268.31 405.006 3273.89 405.006 Z" fill="#000000" fill-rule="nonzero" fill-opacity="1" /><path clip-path="url(#clip910)" d="M3296.97 427.667 L3296.97 441.417 L3292.69 441.417 L3292.69 405.631 L3296.97 405.631 L3296.97 409.566 Q3298.31 407.251 3300.35 406.14 Q3302.41 405.006 3305.26 405.006 Q3309.98 405.006 3312.92 408.756 Q3315.88 412.506 3315.88 418.617 Q3315.88 424.728 3312.92 428.478 Q3309.98 432.228 3305.26 432.228 Q3302.41 432.228 3300.35 431.117 Q3298.31 429.982 3296.97 427.667 M3311.46 418.617 Q3311.46 413.918 3309.52 411.256 Q3307.6 408.57 3304.22 408.57 Q3300.84 408.57 3298.89 411.256 Q3296.97 413.918 3296.97 418.617 Q3296.97 423.316 3298.89 426.001 Q3300.84 428.663 3304.22 428.663 Q3307.6 428.663 3309.52 426.001 Q3311.46 423.316 3311.46 418.617 Z" fill="#000000" fill-rule="nonzero" fill-opacity="1" /><path clip-path="url(#clip910)" d="M3327.16 398.27 L3327.16 405.631 L3335.93 405.631 L3335.93 408.941 L3327.16 408.941 L3327.16 423.015 Q3327.16 426.186 3328.01 427.089 Q3328.89 427.992 3331.55 427.992 L3335.93 427.992 L3335.93 431.556 L3331.55 431.556 Q3326.62 431.556 3324.75 429.728 Q3322.87 427.876 3322.87 423.015 L3322.87 408.941 L3319.75 408.941 L3319.75 405.631 L3322.87 405.631 L3322.87 398.27 L3327.16 398.27 Z" fill="#000000" fill-rule="nonzero" fill-opacity="1" /><path clip-path="url(#clip910)" d="M3340.86 395.584 L3344.56 395.584 Q3348.03 401.047 3349.75 406.279 Q3351.48 411.51 3351.48 416.672 Q3351.48 421.857 3349.75 427.112 Q3348.03 432.367 3344.56 437.806 L3340.86 437.806 Q3343.94 432.505 3345.44 427.274 Q3346.97 422.019 3346.97 416.672 Q3346.97 411.325 3345.44 406.117 Q3343.94 400.908 3340.86 395.584 Z" fill="#000000" fill-rule="nonzero" fill-opacity="1" /><path clip-path="url(#clip910)" d="M2869.91 440.516 L2869.91 491.716 L2921.11 491.716 L2921.11 440.516 L2869.91 440.516 Z" fill="#ff6347" fill-rule="evenodd" fill-opacity="1" stroke="none"/>
<path clip-path="url(#clip910)" d="M3049.73 447.424 Q3046.62 452.748 3045.12 457.957 Q3043.62 463.165 3043.62 468.512 Q3043.62 473.859 3045.12 479.114 Q3046.65 484.345 3049.73 489.646 L3046.02 489.646 Q3042.55 484.207 3040.81 478.952 Q3039.1 473.697 3039.1 468.512 Q3039.1 463.35 3040.81 458.119 Q3042.53 452.887 3046.02 447.424 L3049.73 447.424 Z" fill="#000000" fill-rule="nonzero" fill-opacity="1" /><path clip-path="url(#clip910)" d="M3080.17 469.369 L3080.17 471.452 L3060.58 471.452 Q3060.86 475.85 3063.22 478.165 Q3065.61 480.457 3069.84 480.457 Q3072.3 480.457 3074.59 479.855 Q3076.9 479.253 3079.17 478.049 L3079.17 482.077 Q3076.88 483.049 3074.47 483.558 Q3072.06 484.068 3069.59 484.068 Q3063.38 484.068 3059.75 480.457 Q3056.14 476.845 3056.14 470.688 Q3056.14 464.322 3059.56 460.596 Q3063.01 456.846 3068.85 456.846 Q3074.08 456.846 3077.11 460.225 Q3080.17 463.582 3080.17 469.369 M3075.91 468.119 Q3075.86 464.623 3073.94 462.54 Q3072.04 460.457 3068.89 460.457 Q3065.33 460.457 3063.18 462.471 Q3061.05 464.484 3060.72 468.142 L3075.91 468.119 Z" fill="#000000" fill-rule="nonzero" fill-opacity="1" /><path clip-path="url(#clip910)" d="M3107.87 457.471 L3098.5 470.086 L3108.36 483.396 L3103.34 483.396 L3095.79 473.211 L3088.24 483.396 L3083.22 483.396 L3093.29 469.832 L3084.08 457.471 L3089.1 457.471 L3095.98 466.707 L3102.85 457.471 L3107.87 457.471 Z" fill="#000000" fill-rule="nonzero" fill-opacity="1" /><path clip-path="url(#clip910)" d="M3126.16 470.364 Q3121 470.364 3119.01 471.545 Q3117.02 472.725 3117.02 475.572 Q3117.02 477.841 3118.5 479.183 Q3120 480.503 3122.57 480.503 Q3126.11 480.503 3128.24 478.003 Q3130.4 475.48 3130.4 471.313 L3130.4 470.364 L3126.16 470.364 M3134.66 468.605 L3134.66 483.396 L3130.4 483.396 L3130.4 479.461 Q3128.94 481.822 3126.76 482.957 Q3124.59 484.068 3121.44 484.068 Q3117.46 484.068 3115.1 481.845 Q3112.76 479.6 3112.76 475.85 Q3112.76 471.475 3115.67 469.253 Q3118.61 467.031 3124.42 467.031 L3130.4 467.031 L3130.4 466.614 Q3130.4 463.674 3128.45 462.077 Q3126.53 460.457 3123.04 460.457 Q3120.81 460.457 3118.71 460.989 Q3116.6 461.521 3114.66 462.586 L3114.66 458.651 Q3116.99 457.748 3119.19 457.309 Q3121.39 456.846 3123.48 456.846 Q3129.1 456.846 3131.88 459.762 Q3134.66 462.679 3134.66 468.605 Z" fill="#000000" fill-rule="nonzero" fill-opacity="1" /><path clip-path="url(#clip910)" d="M3144.52 477.517 L3149.4 477.517 L3149.4 481.498 L3145.61 488.906 L3142.62 488.906 L3144.52 481.498 L3144.52 477.517 Z" fill="#000000" fill-rule="nonzero" fill-opacity="1" /><path clip-path="url(#clip910)" d="M3173.57 457.471 L3177.83 457.471 L3177.83 483.396 L3173.57 483.396 L3173.57 457.471 M3173.57 447.378 L3177.83 447.378 L3177.83 452.772 L3173.57 452.772 L3173.57 447.378 Z" fill="#000000" fill-rule="nonzero" fill-opacity="1" /><path clip-path="url(#clip910)" d="M3190.86 479.507 L3190.86 493.257 L3186.58 493.257 L3186.58 457.471 L3190.86 457.471 L3190.86 461.406 Q3192.2 459.091 3194.24 457.98 Q3196.3 456.846 3199.15 456.846 Q3203.87 456.846 3206.81 460.596 Q3209.77 464.346 3209.77 470.457 Q3209.77 476.568 3206.81 480.318 Q3203.87 484.068 3199.15 484.068 Q3196.3 484.068 3194.24 482.957 Q3192.2 481.822 3190.86 479.507 M3205.35 470.457 Q3205.35 465.758 3203.41 463.096 Q3201.48 460.41 3198.11 460.41 Q3194.73 460.41 3192.78 463.096 Q3190.86 465.758 3190.86 470.457 Q3190.86 475.156 3192.78 477.841 Q3194.73 480.503 3198.11 480.503 Q3201.48 480.503 3203.41 477.841 Q3205.35 475.156 3205.35 470.457 Z" fill="#000000" fill-rule="nonzero" fill-opacity="1" /><path clip-path="url(#clip910)" d="M3226.88 460.457 Q3223.45 460.457 3221.46 463.142 Q3219.47 465.804 3219.47 470.457 Q3219.47 475.109 3221.44 477.795 Q3223.43 480.457 3226.88 480.457 Q3230.28 480.457 3232.27 477.771 Q3234.26 475.086 3234.26 470.457 Q3234.26 465.85 3232.27 463.165 Q3230.28 460.457 3226.88 460.457 M3226.88 456.846 Q3232.43 456.846 3235.6 460.457 Q3238.78 464.068 3238.78 470.457 Q3238.78 476.822 3235.6 480.457 Q3232.43 484.068 3226.88 484.068 Q3221.3 484.068 3218.13 480.457 Q3214.98 476.822 3214.98 470.457 Q3214.98 464.068 3218.13 460.457 Q3221.3 456.846 3226.88 456.846 Z" fill="#000000" fill-rule="nonzero" fill-opacity="1" /><path clip-path="url(#clip910)" d="M3249.96 479.507 L3249.96 493.257 L3245.67 493.257 L3245.67 457.471 L3249.96 457.471 L3249.96 461.406 Q3251.3 459.091 3253.34 457.98 Q3255.4 456.846 3258.24 456.846 Q3262.97 456.846 3265.91 460.596 Q3268.87 464.346 3268.87 470.457 Q3268.87 476.568 3265.91 480.318 Q3262.97 484.068 3258.24 484.068 Q3255.4 484.068 3253.34 482.957 Q3251.3 481.822 3249.96 479.507 M3264.45 470.457 Q3264.45 465.758 3262.5 463.096 Q3260.58 460.41 3257.2 460.41 Q3253.82 460.41 3251.88 463.096 Q3249.96 465.758 3249.96 470.457 Q3249.96 475.156 3251.88 477.841 Q3253.82 480.503 3257.2 480.503 Q3260.58 480.503 3262.5 477.841 Q3264.45 475.156 3264.45 470.457 Z" fill="#000000" fill-rule="nonzero" fill-opacity="1" /><path clip-path="url(#clip910)" d="M3280.14 450.11 L3280.14 457.471 L3288.91 457.471 L3288.91 460.781 L3280.14 460.781 L3280.14 474.855 Q3280.14 478.026 3281 478.929 Q3281.88 479.832 3284.54 479.832 L3288.91 479.832 L3288.91 483.396 L3284.54 483.396 Q3279.61 483.396 3277.73 481.568 Q3275.86 479.716 3275.86 474.855 L3275.86 460.781 L3272.73 460.781 L3272.73 457.471 L3275.86 457.471 L3275.86 450.11 L3280.14 450.11 Z" fill="#000000" fill-rule="nonzero" fill-opacity="1" /><path clip-path="url(#clip910)" d="M3293.85 447.424 L3297.55 447.424 Q3301.02 452.887 3302.73 458.119 Q3304.47 463.35 3304.47 468.512 Q3304.47 473.697 3302.73 478.952 Q3301.02 484.207 3297.55 489.646 L3293.85 489.646 Q3296.92 484.345 3298.43 479.114 Q3299.96 473.859 3299.96 468.512 Q3299.96 463.165 3298.43 457.957 Q3296.92 452.748 3293.85 447.424 Z" fill="#000000" fill-rule="nonzero" fill-opacity="1" /><path clip-path="url(#clip910)" d="M2895.51 492.356 L2889.5 509.662 L2871.17 510.046 L2885.79 521.131 L2880.46 538.667 L2895.51 528.196 L2910.57 538.667 L2905.24 521.131 L2919.86 510.046 L2901.53 509.662 L2895.51 492.356 Z" fill="#a0522d" fill-rule="evenodd" fill-opacity="1" stroke="none"/>
<path clip-path="url(#clip910)" d="M3049.73 499.264 Q3046.62 504.588 3045.12 509.797 Q3043.62 515.005 3043.62 520.352 Q3043.62 525.699 3045.12 530.954 Q3046.65 536.185 3049.73 541.486 L3046.02 541.486 Q3042.55 536.047 3040.81 530.792 Q3039.1 525.537 3039.1 520.352 Q3039.1 515.19 3040.81 509.959 Q3042.53 504.727 3046.02 499.264 L3049.73 499.264 Z" fill="#000000" fill-rule="nonzero" fill-opacity="1" /><path clip-path="url(#clip910)" d="M3057.99 509.311 L3062.25 509.311 L3062.25 535.699 Q3062.25 540.653 3060.35 542.875 Q3058.48 545.097 3054.29 545.097 L3052.67 545.097 L3052.67 541.486 L3053.8 541.486 Q3056.23 541.486 3057.11 540.352 Q3057.99 539.241 3057.99 535.699 L3057.99 509.311 M3057.99 499.218 L3062.25 499.218 L3062.25 504.612 L3057.99 504.612 L3057.99 499.218 Z" fill="#000000" fill-rule="nonzero" fill-opacity="1" /><path clip-path="url(#clip910)" d="M3070.72 525.005 L3070.72 509.311 L3074.98 509.311 L3074.98 524.843 Q3074.98 528.523 3076.42 530.375 Q3077.85 532.204 3080.72 532.204 Q3084.17 532.204 3086.16 530.005 Q3088.18 527.806 3088.18 524.01 L3088.18 509.311 L3092.43 509.311 L3092.43 535.236 L3088.18 535.236 L3088.18 531.255 Q3086.62 533.616 3084.56 534.773 Q3082.53 535.908 3079.82 535.908 Q3075.35 535.908 3073.04 533.13 Q3070.72 530.352 3070.72 525.005 M3081.44 508.686 L3081.44 508.686 Z" fill="#000000" fill-rule="nonzero" fill-opacity="1" /><path clip-path="url(#clip910)" d="M3121.39 514.287 Q3122.99 511.417 3125.21 510.051 Q3127.43 508.686 3130.44 508.686 Q3134.49 508.686 3136.69 511.533 Q3138.89 514.357 3138.89 519.588 L3138.89 535.236 L3134.61 535.236 L3134.61 519.727 Q3134.61 516 3133.29 514.195 Q3131.97 512.389 3129.26 512.389 Q3125.95 512.389 3124.03 514.588 Q3122.11 516.787 3122.11 520.584 L3122.11 535.236 L3117.83 535.236 L3117.83 519.727 Q3117.83 515.977 3116.51 514.195 Q3115.19 512.389 3112.43 512.389 Q3109.17 512.389 3107.25 514.611 Q3105.33 516.811 3105.33 520.584 L3105.33 535.236 L3101.05 535.236 L3101.05 509.311 L3105.33 509.311 L3105.33 513.338 Q3106.79 510.954 3108.82 509.82 Q3110.86 508.686 3113.66 508.686 Q3116.49 508.686 3118.45 510.121 Q3120.44 511.556 3121.39 514.287 Z" fill="#000000" fill-rule="nonzero" fill-opacity="1" /><path clip-path="url(#clip910)" d="M3151.51 531.347 L3151.51 545.097 L3147.23 545.097 L3147.23 509.311 L3151.51 509.311 L3151.51 513.246 Q3152.85 510.931 3154.89 509.82 Q3156.95 508.686 3159.8 508.686 Q3164.52 508.686 3167.46 512.436 Q3170.42 516.186 3170.42 522.297 Q3170.42 528.408 3167.46 532.158 Q3164.52 535.908 3159.8 535.908 Q3156.95 535.908 3154.89 534.797 Q3152.85 533.662 3151.51 531.347 M3166 522.297 Q3166 517.598 3164.05 514.936 Q3162.13 512.25 3158.75 512.25 Q3155.37 512.25 3153.43 514.936 Q3151.51 517.598 3151.51 522.297 Q3151.51 526.996 3153.43 529.681 Q3155.37 532.343 3158.75 532.343 Q3162.13 532.343 3164.05 529.681 Q3166 526.996 3166 522.297 Z" fill="#000000" fill-rule="nonzero" fill-opacity="1" /><path clip-path="url(#clip910)" d="M3178.57 529.357 L3183.45 529.357 L3183.45 533.338 L3179.66 540.746 L3176.67 540.746 L3178.57 533.338 L3178.57 529.357 Z" fill="#000000" fill-rule="nonzero" fill-opacity="1" /><path clip-path="url(#clip910)" d="M3227.8 514.287 Q3229.4 511.417 3231.62 510.051 Q3233.85 508.686 3236.85 508.686 Q3240.91 508.686 3243.1 511.533 Q3245.3 514.357 3245.3 519.588 L3245.3 535.236 L3241.02 535.236 L3241.02 519.727 Q3241.02 516 3239.7 514.195 Q3238.38 512.389 3235.67 512.389 Q3232.36 512.389 3230.44 514.588 Q3228.52 516.787 3228.52 520.584 L3228.52 535.236 L3224.24 535.236 L3224.24 519.727 Q3224.24 515.977 3222.92 514.195 Q3221.6 512.389 3218.85 512.389 Q3215.58 512.389 3213.66 514.611 Q3211.74 516.811 3211.74 520.584 L3211.74 535.236 L3207.46 535.236 L3207.46 509.311 L3211.74 509.311 L3211.74 513.338 Q3213.2 510.954 3215.23 509.82 Q3217.27 508.686 3220.07 508.686 Q3222.9 508.686 3224.86 510.121 Q3226.85 511.556 3227.8 514.287 Z" fill="#000000" fill-rule="nonzero" fill-opacity="1" /><path clip-path="url(#clip910)" d="M3265.58 522.204 Q3260.42 522.204 3258.43 523.385 Q3256.44 524.565 3256.44 527.412 Q3256.44 529.681 3257.92 531.023 Q3259.42 532.343 3261.99 532.343 Q3265.54 532.343 3267.66 529.843 Q3269.82 527.32 3269.82 523.153 L3269.82 522.204 L3265.58 522.204 M3274.08 520.445 L3274.08 535.236 L3269.82 535.236 L3269.82 531.301 Q3268.36 533.662 3266.18 534.797 Q3264.01 535.908 3260.86 535.908 Q3256.88 535.908 3254.52 533.685 Q3252.18 531.44 3252.18 527.69 Q3252.18 523.315 3255.1 521.093 Q3258.04 518.871 3263.85 518.871 L3269.82 518.871 L3269.82 518.454 Q3269.82 515.514 3267.87 513.917 Q3265.95 512.297 3262.46 512.297 Q3260.23 512.297 3258.13 512.829 Q3256.02 513.361 3254.08 514.426 L3254.08 510.491 Q3256.41 509.588 3258.61 509.149 Q3260.81 508.686 3262.9 508.686 Q3268.52 508.686 3271.3 511.602 Q3274.08 514.519 3274.08 520.445 Z" fill="#000000" fill-rule="nonzero" fill-opacity="1" /><path clip-path="url(#clip910)" d="M3299.91 513.246 L3299.91 499.218 L3304.17 499.218 L3304.17 535.236 L3299.91 535.236 L3299.91 531.347 Q3298.57 533.662 3296.51 534.797 Q3294.47 535.908 3291.6 535.908 Q3286.9 535.908 3283.94 532.158 Q3281 528.408 3281 522.297 Q3281 516.186 3283.94 512.436 Q3286.9 508.686 3291.6 508.686 Q3294.47 508.686 3296.51 509.82 Q3298.57 510.931 3299.91 513.246 M3285.4 522.297 Q3285.4 526.996 3287.32 529.681 Q3289.26 532.343 3292.64 532.343 Q3296.02 532.343 3297.97 529.681 Q3299.91 526.996 3299.91 522.297 Q3299.91 517.598 3297.97 514.936 Q3296.02 512.25 3292.64 512.25 Q3289.26 512.25 3287.32 514.936 Q3285.4 517.598 3285.4 522.297 Z" fill="#000000" fill-rule="nonzero" fill-opacity="1" /><path clip-path="url(#clip910)" d="M3334.49 519.588 L3334.49 535.236 L3330.23 535.236 L3330.23 519.727 Q3330.23 516.047 3328.8 514.218 Q3327.36 512.389 3324.49 512.389 Q3321.04 512.389 3319.05 514.588 Q3317.06 516.787 3317.06 520.584 L3317.06 535.236 L3312.78 535.236 L3312.78 509.311 L3317.06 509.311 L3317.06 513.338 Q3318.59 511 3320.65 509.843 Q3322.73 508.686 3325.44 508.686 Q3329.91 508.686 3332.2 511.463 Q3334.49 514.218 3334.49 519.588 Z" fill="#000000" fill-rule="nonzero" fill-opacity="1" /><path clip-path="url(#clip910)" d="M3342.99 499.218 L3347.25 499.218 L3347.25 535.236 L3342.99 535.236 L3342.99 499.218 Z" fill="#000000" fill-rule="nonzero" fill-opacity="1" /><path clip-path="url(#clip910)" d="M3360.28 531.347 L3360.28 545.097 L3356 545.097 L3356 509.311 L3360.28 509.311 L3360.28 513.246 Q3361.62 510.931 3363.66 509.82 Q3365.72 508.686 3368.57 508.686 Q3373.29 508.686 3376.23 512.436 Q3379.19 516.186 3379.19 522.297 Q3379.19 528.408 3376.23 532.158 Q3373.29 535.908 3368.57 535.908 Q3365.72 535.908 3363.66 534.797 Q3361.62 533.662 3360.28 531.347 M3374.77 522.297 Q3374.77 517.598 3372.83 514.936 Q3370.91 512.25 3367.53 512.25 Q3364.15 512.25 3362.2 514.936 Q3360.28 517.598 3360.28 522.297 Q3360.28 526.996 3362.2 529.681 Q3364.15 532.343 3367.53 532.343 Q3370.91 532.343 3372.83 529.681 Q3374.77 526.996 3374.77 522.297 Z" fill="#000000" fill-rule="nonzero" fill-opacity="1" /><path clip-path="url(#clip910)" d="M3385.58 499.264 L3389.28 499.264 Q3392.76 504.727 3394.47 509.959 Q3396.21 515.19 3396.21 520.352 Q3396.21 525.537 3394.47 530.792 Q3392.76 536.047 3389.28 541.486 L3385.58 541.486 Q3388.66 536.185 3390.16 530.954 Q3391.69 525.699 3391.69 520.352 Q3391.69 515.005 3390.16 509.797 Q3388.66 504.588 3385.58 499.264 Z" fill="#000000" fill-rule="nonzero" fill-opacity="1" /><path clip-path="url(#clip910)" d="M2895.51 544.196 L2869.91 569.796 L2895.51 595.396 L2921.11 569.796 L2895.51 544.196 Z" fill="#2e8b57" fill-rule="evenodd" fill-opacity="1" stroke="none"/>
<path clip-path="url(#clip910)" d="M3049.73 551.104 Q3046.62 556.428 3045.12 561.637 Q3043.62 566.845 3043.62 572.192 Q3043.62 577.539 3045.12 582.794 Q3046.65 588.025 3049.73 593.326 L3046.02 593.326 Q3042.55 587.887 3040.81 582.632 Q3039.1 577.377 3039.1 572.192 Q3039.1 567.03 3040.81 561.799 Q3042.53 556.567 3046.02 551.104 L3049.73 551.104 Z" fill="#000000" fill-rule="nonzero" fill-opacity="1" /><path clip-path="url(#clip910)" d="M3069.77 574.044 Q3064.61 574.044 3062.62 575.225 Q3060.63 576.405 3060.63 579.252 Q3060.63 581.521 3062.11 582.863 Q3063.62 584.183 3066.18 584.183 Q3069.73 584.183 3071.86 581.683 Q3074.01 579.16 3074.01 574.993 L3074.01 574.044 L3069.77 574.044 M3078.27 572.285 L3078.27 587.076 L3074.01 587.076 L3074.01 583.141 Q3072.55 585.502 3070.37 586.637 Q3068.2 587.748 3065.05 587.748 Q3061.07 587.748 3058.71 585.525 Q3056.37 583.28 3056.37 579.53 Q3056.37 575.155 3059.29 572.933 Q3062.23 570.711 3068.04 570.711 L3074.01 570.711 L3074.01 570.294 Q3074.01 567.354 3072.06 565.757 Q3070.14 564.137 3066.65 564.137 Q3064.43 564.137 3062.32 564.669 Q3060.21 565.201 3058.27 566.266 L3058.27 562.331 Q3060.61 561.428 3062.8 560.989 Q3065 560.526 3067.09 560.526 Q3072.71 560.526 3075.49 563.442 Q3078.27 566.359 3078.27 572.285 Z" fill="#000000" fill-rule="nonzero" fill-opacity="1" /><path clip-path="url(#clip910)" d="M3104.1 565.086 L3104.1 551.058 L3108.36 551.058 L3108.36 587.076 L3104.1 587.076 L3104.1 583.187 Q3102.76 585.502 3100.7 586.637 Q3098.66 587.748 3095.79 587.748 Q3091.09 587.748 3088.13 583.998 Q3085.19 580.248 3085.19 574.137 Q3085.19 568.026 3088.13 564.276 Q3091.09 560.526 3095.79 560.526 Q3098.66 560.526 3100.7 561.66 Q3102.76 562.771 3104.1 565.086 M3089.59 574.137 Q3089.59 578.836 3091.51 581.521 Q3093.45 584.183 3096.83 584.183 Q3100.21 584.183 3102.16 581.521 Q3104.1 578.836 3104.1 574.137 Q3104.1 569.438 3102.16 566.776 Q3100.21 564.09 3096.83 564.09 Q3093.45 564.09 3091.51 566.776 Q3089.59 569.438 3089.59 574.137 Z" fill="#000000" fill-rule="nonzero" fill-opacity="1" /><path clip-path="url(#clip910)" d="M3138.68 571.428 L3138.68 587.076 L3134.42 587.076 L3134.42 571.567 Q3134.42 567.887 3132.99 566.058 Q3131.55 564.229 3128.68 564.229 Q3125.24 564.229 3123.24 566.428 Q3121.25 568.627 3121.25 572.424 L3121.25 587.076 L3116.97 587.076 L3116.97 561.151 L3121.25 561.151 L3121.25 565.178 Q3122.78 562.84 3124.84 561.683 Q3126.92 560.526 3129.63 560.526 Q3134.1 560.526 3136.39 563.303 Q3138.68 566.058 3138.68 571.428 Z" fill="#000000" fill-rule="nonzero" fill-opacity="1" /><path clip-path="url(#clip910)" d="M3147.18 551.058 L3151.44 551.058 L3151.44 587.076 L3147.18 587.076 L3147.18 551.058 Z" fill="#000000" fill-rule="nonzero" fill-opacity="1" /><path clip-path="url(#clip910)" d="M3164.47 583.187 L3164.47 596.937 L3160.19 596.937 L3160.19 561.151 L3164.47 561.151 L3164.47 565.086 Q3165.81 562.771 3167.85 561.66 Q3169.91 560.526 3172.76 560.526 Q3177.48 560.526 3180.42 564.276 Q3183.38 568.026 3183.38 574.137 Q3183.38 580.248 3180.42 583.998 Q3177.48 587.748 3172.76 587.748 Q3169.91 587.748 3167.85 586.637 Q3165.81 585.502 3164.47 583.187 M3178.96 574.137 Q3178.96 569.438 3177.02 566.776 Q3175.1 564.09 3171.72 564.09 Q3168.34 564.09 3166.39 566.776 Q3164.47 569.438 3164.47 574.137 Q3164.47 578.836 3166.39 581.521 Q3168.34 584.183 3171.72 584.183 Q3175.1 584.183 3177.02 581.521 Q3178.96 578.836 3178.96 574.137 Z" fill="#000000" fill-rule="nonzero" fill-opacity="1" /><path clip-path="url(#clip910)" d="M3191.53 581.197 L3196.42 581.197 L3196.42 585.178 L3192.62 592.586 L3189.63 592.586 L3191.53 585.178 L3191.53 581.197 Z" fill="#000000" fill-rule="nonzero" fill-opacity="1" /><path clip-path="url(#clip910)" d="M3240.77 566.127 Q3242.36 563.257 3244.59 561.891 Q3246.81 560.526 3249.82 560.526 Q3253.87 560.526 3256.07 563.373 Q3258.27 566.197 3258.27 571.428 L3258.27 587.076 L3253.98 587.076 L3253.98 571.567 Q3253.98 567.84 3252.66 566.035 Q3251.35 564.229 3248.64 564.229 Q3245.33 564.229 3243.41 566.428 Q3241.48 568.627 3241.48 572.424 L3241.48 587.076 L3237.2 587.076 L3237.2 571.567 Q3237.2 567.817 3235.88 566.035 Q3234.56 564.229 3231.81 564.229 Q3228.54 564.229 3226.62 566.451 Q3224.7 568.651 3224.7 572.424 L3224.7 587.076 L3220.42 587.076 L3220.42 561.151 L3224.7 561.151 L3224.7 565.178 Q3226.16 562.794 3228.2 561.66 Q3230.23 560.526 3233.04 560.526 Q3235.86 560.526 3237.83 561.961 Q3239.82 563.396 3240.77 566.127 Z" fill="#000000" fill-rule="nonzero" fill-opacity="1" /><path clip-path="url(#clip910)" d="M3278.54 574.044 Q3273.38 574.044 3271.39 575.225 Q3269.4 576.405 3269.4 579.252 Q3269.4 581.521 3270.88 582.863 Q3272.39 584.183 3274.96 584.183 Q3278.5 584.183 3280.63 581.683 Q3282.78 579.16 3282.78 574.993 L3282.78 574.044 L3278.54 574.044 M3287.04 572.285 L3287.04 587.076 L3282.78 587.076 L3282.78 583.141 Q3281.32 585.502 3279.15 586.637 Q3276.97 587.748 3273.82 587.748 Q3269.84 587.748 3267.48 585.525 Q3265.14 583.28 3265.14 579.53 Q3265.14 575.155 3268.06 572.933 Q3271 570.711 3276.81 570.711 L3282.78 570.711 L3282.78 570.294 Q3282.78 567.354 3280.84 565.757 Q3278.91 564.137 3275.42 564.137 Q3273.2 564.137 3271.09 564.669 Q3268.98 565.201 3267.04 566.266 L3267.04 562.331 Q3269.38 561.428 3271.58 560.989 Q3273.78 560.526 3275.86 560.526 Q3281.48 560.526 3284.26 563.442 Q3287.04 566.359 3287.04 572.285 Z" fill="#000000" fill-rule="nonzero" fill-opacity="1" /><path clip-path="url(#clip910)" d="M3312.87 565.086 L3312.87 551.058 L3317.13 551.058 L3317.13 587.076 L3312.87 587.076 L3312.87 583.187 Q3311.53 585.502 3309.47 586.637 Q3307.43 587.748 3304.56 587.748 Q3299.86 587.748 3296.9 583.998 Q3293.96 580.248 3293.96 574.137 Q3293.96 568.026 3296.9 564.276 Q3299.86 560.526 3304.56 560.526 Q3307.43 560.526 3309.47 561.66 Q3311.53 562.771 3312.87 565.086 M3298.36 574.137 Q3298.36 578.836 3300.28 581.521 Q3302.22 584.183 3305.6 584.183 Q3308.98 584.183 3310.93 581.521 Q3312.87 578.836 3312.87 574.137 Q3312.87 569.438 3310.93 566.776 Q3308.98 564.09 3305.6 564.09 Q3302.22 564.09 3300.28 566.776 Q3298.36 569.438 3298.36 574.137 Z" fill="#000000" fill-rule="nonzero" fill-opacity="1" /><path clip-path="url(#clip910)" d="M3347.46 571.428 L3347.46 587.076 L3343.2 587.076 L3343.2 571.567 Q3343.2 567.887 3341.76 566.058 Q3340.33 564.229 3337.46 564.229 Q3334.01 564.229 3332.02 566.428 Q3330.03 568.627 3330.03 572.424 L3330.03 587.076 L3325.74 587.076 L3325.74 561.151 L3330.03 561.151 L3330.03 565.178 Q3331.55 562.84 3333.61 561.683 Q3335.7 560.526 3338.41 560.526 Q3342.87 560.526 3345.16 563.303 Q3347.46 566.058 3347.46 571.428 Z" fill="#000000" fill-rule="nonzero" fill-opacity="1" /><path clip-path="url(#clip910)" d="M3355.95 551.058 L3360.21 551.058 L3360.21 587.076 L3355.95 587.076 L3355.95 551.058 Z" fill="#000000" fill-rule="nonzero" fill-opacity="1" /><path clip-path="url(#clip910)" d="M3373.24 583.187 L3373.24 596.937 L3368.96 596.937 L3368.96 561.151 L3373.24 561.151 L3373.24 565.086 Q3374.59 562.771 3376.62 561.66 Q3378.68 560.526 3381.53 560.526 Q3386.25 560.526 3389.19 564.276 Q3392.15 568.026 3392.15 574.137 Q3392.15 580.248 3389.19 583.998 Q3386.25 587.748 3381.53 587.748 Q3378.68 587.748 3376.62 586.637 Q3374.59 585.502 3373.24 583.187 M3387.73 574.137 Q3387.73 569.438 3385.79 566.776 Q3383.87 564.09 3380.49 564.09 Q3377.11 564.09 3375.16 566.776 Q3373.24 569.438 3373.24 574.137 Q3373.24 578.836 3375.16 581.521 Q3377.11 584.183 3380.49 584.183 Q3383.87 584.183 3385.79 581.521 Q3387.73 578.836 3387.73 574.137 Z" fill="#000000" fill-rule="nonzero" fill-opacity="1" /><path clip-path="url(#clip910)" d="M3398.54 551.104 L3402.25 551.104 Q3405.72 556.567 3407.43 561.799 Q3409.17 567.03 3409.17 572.192 Q3409.17 577.377 3407.43 582.632 Q3405.72 587.887 3402.25 593.326 L3398.54 593.326 Q3401.62 588.025 3403.13 582.794 Q3404.65 577.539 3404.65 572.192 Q3404.65 566.845 3403.13 561.637 Q3401.62 556.428 3398.54 551.104 Z" fill="#000000" fill-rule="nonzero" fill-opacity="1" /><path clip-path="url(#clip910)" d="M2895.51 596.036 L2869.91 647.236 L2921.11 647.236 L2895.51 596.036 Z" fill="#ff8c00" fill-rule="evenodd" fill-opacity="1" stroke="none"/>
<path clip-path="url(#clip910)" d="M3049.73 602.944 Q3046.62 608.268 3045.12 613.477 Q3043.62 618.685 3043.62 624.032 Q3043.62 629.379 3045.12 634.634 Q3046.65 639.865 3049.73 645.166 L3046.02 645.166 Q3042.55 639.727 3040.81 634.472 Q3039.1 629.217 3039.1 624.032 Q3039.1 618.87 3040.81 613.639 Q3042.53 608.407 3046.02 602.944 L3049.73 602.944 Z" fill="#000000" fill-rule="nonzero" fill-opacity="1" /><path clip-path="url(#clip910)" d="M3080.17 624.889 L3080.17 626.972 L3060.58 626.972 Q3060.86 631.37 3063.22 633.685 Q3065.61 635.977 3069.84 635.977 Q3072.3 635.977 3074.59 635.375 Q3076.9 634.773 3079.17 633.569 L3079.17 637.597 Q3076.88 638.569 3074.47 639.078 Q3072.06 639.588 3069.59 639.588 Q3063.38 639.588 3059.75 635.977 Q3056.14 632.365 3056.14 626.208 Q3056.14 619.842 3059.56 616.116 Q3063.01 612.366 3068.85 612.366 Q3074.08 612.366 3077.11 615.745 Q3080.17 619.102 3080.17 624.889 M3075.91 623.639 Q3075.86 620.143 3073.94 618.06 Q3072.04 615.977 3068.89 615.977 Q3065.33 615.977 3063.18 617.991 Q3061.05 620.004 3060.72 623.662 L3075.91 623.639 Z" fill="#000000" fill-rule="nonzero" fill-opacity="1" /><path clip-path="url(#clip910)" d="M3107.87 612.991 L3098.5 625.606 L3108.36 638.916 L3103.34 638.916 L3095.79 628.731 L3088.24 638.916 L3083.22 638.916 L3093.29 625.352 L3084.08 612.991 L3089.1 612.991 L3095.98 622.227 L3102.85 612.991 L3107.87 612.991 Z" fill="#000000" fill-rule="nonzero" fill-opacity="1" /><path clip-path="url(#clip910)" d="M3126.16 625.884 Q3121 625.884 3119.01 627.065 Q3117.02 628.245 3117.02 631.092 Q3117.02 633.361 3118.5 634.703 Q3120 636.023 3122.57 636.023 Q3126.11 636.023 3128.24 633.523 Q3130.4 631 3130.4 626.833 L3130.4 625.884 L3126.16 625.884 M3134.66 624.125 L3134.66 638.916 L3130.4 638.916 L3130.4 634.981 Q3128.94 637.342 3126.76 638.477 Q3124.59 639.588 3121.44 639.588 Q3117.46 639.588 3115.1 637.365 Q3112.76 635.12 3112.76 631.37 Q3112.76 626.995 3115.67 624.773 Q3118.61 622.551 3124.42 622.551 L3130.4 622.551 L3130.4 622.134 Q3130.4 619.194 3128.45 617.597 Q3126.53 615.977 3123.04 615.977 Q3120.81 615.977 3118.71 616.509 Q3116.6 617.041 3114.66 618.106 L3114.66 614.171 Q3116.99 613.268 3119.19 612.829 Q3121.39 612.366 3123.48 612.366 Q3129.1 612.366 3131.88 615.282 Q3134.66 618.199 3134.66 624.125 Z" fill="#000000" fill-rule="nonzero" fill-opacity="1" /><path clip-path="url(#clip910)" d="M3144.52 633.037 L3149.4 633.037 L3149.4 637.018 L3145.61 644.426 L3142.62 644.426 L3144.52 637.018 L3144.52 633.037 Z" fill="#000000" fill-rule="nonzero" fill-opacity="1" /><path clip-path="url(#clip910)" d="M3193.75 617.967 Q3195.35 615.097 3197.57 613.731 Q3199.79 612.366 3202.8 612.366 Q3206.85 612.366 3209.05 615.213 Q3211.25 618.037 3211.25 623.268 L3211.25 638.916 L3206.97 638.916 L3206.97 623.407 Q3206.97 619.68 3205.65 617.875 Q3204.33 616.069 3201.62 616.069 Q3198.31 616.069 3196.39 618.268 Q3194.47 620.467 3194.47 624.264 L3194.47 638.916 L3190.19 638.916 L3190.19 623.407 Q3190.19 619.657 3188.87 617.875 Q3187.55 616.069 3184.79 616.069 Q3181.53 616.069 3179.61 618.291 Q3177.69 620.491 3177.69 624.264 L3177.69 638.916 L3173.41 638.916 L3173.41 612.991 L3177.69 612.991 L3177.69 617.018 Q3179.15 614.634 3181.18 613.5 Q3183.22 612.366 3186.02 612.366 Q3188.85 612.366 3190.81 613.801 Q3192.8 615.236 3193.75 617.967 Z" fill="#000000" fill-rule="nonzero" fill-opacity="1" /><path clip-path="url(#clip910)" d="M3231.53 625.884 Q3226.37 625.884 3224.38 627.065 Q3222.39 628.245 3222.39 631.092 Q3222.39 633.361 3223.87 634.703 Q3225.37 636.023 3227.94 636.023 Q3231.48 636.023 3233.61 633.523 Q3235.77 631 3235.77 626.833 L3235.77 625.884 L3231.53 625.884 M3240.03 624.125 L3240.03 638.916 L3235.77 638.916 L3235.77 634.981 Q3234.31 637.342 3232.13 638.477 Q3229.96 639.588 3226.81 639.588 Q3222.83 639.588 3220.47 637.365 Q3218.13 635.12 3218.13 631.37 Q3218.13 626.995 3221.04 624.773 Q3223.98 622.551 3229.79 622.551 L3235.77 622.551 L3235.77 622.134 Q3235.77 619.194 3233.82 617.597 Q3231.9 615.977 3228.41 615.977 Q3226.18 615.977 3224.08 616.509 Q3221.97 617.041 3220.03 618.106 L3220.03 614.171 Q3222.36 613.268 3224.56 612.829 Q3226.76 612.366 3228.85 612.366 Q3234.47 612.366 3237.25 615.282 Q3240.03 618.199 3240.03 624.125 Z" fill="#000000" fill-rule="nonzero" fill-opacity="1" /><path clip-path="url(#clip910)" d="M3265.86 616.926 L3265.86 602.898 L3270.12 602.898 L3270.12 638.916 L3265.86 638.916 L3265.86 635.027 Q3264.52 637.342 3262.46 638.477 Q3260.42 639.588 3257.55 639.588 Q3252.85 639.588 3249.89 635.838 Q3246.95 632.088 3246.95 625.977 Q3246.95 619.866 3249.89 616.116 Q3252.85 612.366 3257.55 612.366 Q3260.42 612.366 3262.46 613.5 Q3264.52 614.611 3265.86 616.926 M3251.35 625.977 Q3251.35 630.676 3253.27 633.361 Q3255.21 636.023 3258.59 636.023 Q3261.97 636.023 3263.91 633.361 Q3265.86 630.676 3265.86 625.977 Q3265.86 621.278 3263.91 618.616 Q3261.97 615.93 3258.59 615.93 Q3255.21 615.93 3253.27 618.616 Q3251.35 621.278 3251.35 625.977 Z" fill="#000000" fill-rule="nonzero" fill-opacity="1" /><path clip-path="url(#clip910)" d="M3300.44 623.268 L3300.44 638.916 L3296.18 638.916 L3296.18 623.407 Q3296.18 619.727 3294.75 617.898 Q3293.31 616.069 3290.44 616.069 Q3286.99 616.069 3285 618.268 Q3283.01 620.467 3283.01 624.264 L3283.01 638.916 L3278.73 638.916 L3278.73 612.991 L3283.01 612.991 L3283.01 617.018 Q3284.54 614.68 3286.6 613.523 Q3288.68 612.366 3291.39 612.366 Q3295.86 612.366 3298.15 615.143 Q3300.44 617.898 3300.44 623.268 Z" fill="#000000" fill-rule="nonzero" fill-opacity="1" /><path clip-path="url(#clip910)" d="M3308.94 602.898 L3313.2 602.898 L3313.2 638.916 L3308.94 638.916 L3308.94 602.898 Z" fill="#000000" fill-rule="nonzero" fill-opacity="1" /><path clip-path="url(#clip910)" d="M3326.23 635.027 L3326.23 648.777 L3321.95 648.777 L3321.95 612.991 L3326.23 612.991 L3326.23 616.926 Q3327.57 614.611 3329.61 613.5 Q3331.67 612.366 3334.52 612.366 Q3339.24 612.366 3342.18 616.116 Q3345.14 619.866 3345.14 625.977 Q3345.14 632.088 3342.18 635.838 Q3339.24 639.588 3334.52 639.588 Q3331.67 639.588 3329.61 638.477 Q3327.57 637.342 3326.23 635.027 M3340.72 625.977 Q3340.72 621.278 3338.78 618.616 Q3336.85 615.93 3333.47 615.93 Q3330.1 615.93 3328.15 618.616 Q3326.23 621.278 3326.23 625.977 Q3326.23 630.676 3328.15 633.361 Q3330.1 636.023 3333.47 636.023 Q3336.85 636.023 3338.78 633.361 Q3340.72 630.676 3340.72 625.977 Z" fill="#000000" fill-rule="nonzero" fill-opacity="1" /><path clip-path="url(#clip910)" d="M3351.53 602.944 L3355.23 602.944 Q3358.71 608.407 3360.42 613.639 Q3362.16 618.87 3362.16 624.032 Q3362.16 629.217 3360.42 634.472 Q3358.71 639.727 3355.23 645.166 L3351.53 645.166 Q3354.61 639.865 3356.11 634.634 Q3357.64 629.379 3357.64 624.032 Q3357.64 618.685 3356.11 613.477 Q3354.61 608.268 3351.53 602.944 Z" fill="#000000" fill-rule="nonzero" fill-opacity="1" /></svg>
