<?xml version="1.0" encoding="utf-8"?>
<svg xmlns="http://www.w3.org/2000/svg" xmlns:xlink="http://www.w3.org/1999/xlink" width="900" height="600" viewBox="0 0 3600 2400">
<defs>
  <clipPath id="clip760">
    <rect x="0" y="0" width="3600" height="2400"/>
  </clipPath>
</defs>
<path clip-path="url(#clip760)" d="M0 2400 L3600 2400 L3600 0 L0 0  Z" fill="#ffffff" fill-rule="evenodd" fill-opacity="1"/>
<defs>
  <clipPath id="clip761">
    <rect x="292" y="246" width="3261" height="1911"/>
  </clipPath>
</defs>
<path clip-path="url(#clip760)" d="M318.131 2156.51 L3552.76 2156.51 L3552.76 246.944 L318.131 246.944  Z" fill="#ffffff" fill-rule="evenodd" fill-opacity="1"/>
<defs>
  <clipPath id="clip762">
    <rect x="318" y="246" width="3236" height="1911"/>
  </clipPath>
</defs>
<polyline clip-path="url(#clip762)" style="stroke:#000000; stroke-linecap:round; stroke-linejoin:round; stroke-width:2; stroke-opacity:0.1; fill:none" points="588.439,2156.51 588.439,246.944 "/>
<polyline clip-path="url(#clip762)" style="stroke:#000000; stroke-linecap:round; stroke-linejoin:round; stroke-width:2; stroke-opacity:0.1; fill:none" points="1486.44,2156.51 1486.44,246.944 "/>
<polyline clip-path="url(#clip762)" style="stroke:#000000; stroke-linecap:round; stroke-linejoin:round; stroke-width:2; stroke-opacity:0.1; fill:none" points="2384.44,2156.51 2384.44,246.944 "/>
<polyline clip-path="url(#clip762)" style="stroke:#000000; stroke-linecap:round; stroke-linejoin:round; stroke-width:2; stroke-opacity:0.1; fill:none" points="3282.45,2156.51 3282.45,246.944 "/>
<polyline clip-path="url(#clip762)" style="stroke:#000000; stroke-linecap:round; stroke-linejoin:round; stroke-width:2; stroke-opacity:0.1; fill:none" points="318.131,2156.51 3552.76,2156.51 "/>
<polyline clip-path="url(#clip762)" style="stroke:#000000; stroke-linecap:round; stroke-linejoin:round; stroke-width:2; stroke-opacity:0.1; fill:none" points="318.131,1752.99 3552.76,1752.99 "/>
<polyline clip-path="url(#clip762)" style="stroke:#000000; stroke-linecap:round; stroke-linejoin:round; stroke-width:2; stroke-opacity:0.1; fill:none" points="318.131,1349.47 3552.76,1349.47 "/>
<polyline clip-path="url(#clip762)" style="stroke:#000000; stroke-linecap:round; stroke-linejoin:round; stroke-width:2; stroke-opacity:0.1; fill:none" points="318.131,945.95 3552.76,945.95 "/>
<polyline clip-path="url(#clip762)" style="stroke:#000000; stroke-linecap:round; stroke-linejoin:round; stroke-width:2; stroke-opacity:0.1; fill:none" points="318.131,542.431 3552.76,542.431 "/>
<polyline clip-path="url(#clip760)" style="stroke:#000000; stroke-linecap:round; stroke-linejoin:round; stroke-width:4; stroke-opacity:1; fill:none" points="318.131,2156.51 3552.76,2156.51 "/>
<polyline clip-path="url(#clip760)" style="stroke:#000000; stroke-linecap:round; stroke-linejoin:round; stroke-width:4; stroke-opacity:1; fill:none" points="588.439,2156.51 588.439,2137.61 "/>
<polyline clip-path="url(#clip760)" style="stroke:#000000; stroke-linecap:round; stroke-linejoin:round; stroke-width:4; stroke-opacity:1; fill:none" points="1486.44,2156.51 1486.44,2137.61 "/>
<polyline clip-path="url(#clip760)" style="stroke:#000000; stroke-linecap:round; stroke-linejoin:round; stroke-width:4; stroke-opacity:1; fill:none" points="2384.44,2156.51 2384.44,2137.61 "/>
<polyline clip-path="url(#clip760)" style="stroke:#000000; stroke-linecap:round; stroke-linejoin:round; stroke-width:4; stroke-opacity:1; fill:none" points="3282.45,2156.51 3282.45,2137.61 "/>
<path clip-path="url(#clip760)" d="M532.965 2224.57 L540.604 2224.57 L540.604 2198.21 L532.294 2199.87 L532.294 2195.61 L540.558 2193.95 L545.233 2193.95 L545.233 2224.57 L552.872 2224.57 L552.872 2228.51 L532.965 2228.51 L532.965 2224.57 Z" fill="#000000" fill-rule="nonzero" fill-opacity="1" /><path clip-path="url(#clip760)" d="M572.317 2197.03 Q568.706 2197.03 566.877 2200.59 Q565.071 2204.13 565.071 2211.26 Q565.071 2218.37 566.877 2221.93 Q568.706 2225.48 572.317 2225.48 Q575.951 2225.48 577.756 2221.93 Q579.585 2218.37 579.585 2211.26 Q579.585 2204.13 577.756 2200.59 Q575.951 2197.03 572.317 2197.03 M572.317 2193.32 Q578.127 2193.32 581.182 2197.93 Q584.261 2202.51 584.261 2211.26 Q584.261 2219.99 581.182 2224.6 Q578.127 2229.18 572.317 2229.18 Q566.506 2229.18 563.428 2224.6 Q560.372 2219.99 560.372 2211.26 Q560.372 2202.51 563.428 2197.93 Q566.506 2193.32 572.317 2193.32 Z" fill="#000000" fill-rule="nonzero" fill-opacity="1" /><path clip-path="url(#clip760)" d="M602.479 2197.03 Q598.867 2197.03 597.039 2200.59 Q595.233 2204.13 595.233 2211.26 Q595.233 2218.37 597.039 2221.93 Q598.867 2225.48 602.479 2225.48 Q606.113 2225.48 607.918 2221.93 Q609.747 2218.37 609.747 2211.26 Q609.747 2204.13 607.918 2200.59 Q606.113 2197.03 602.479 2197.03 M602.479 2193.32 Q608.289 2193.32 611.344 2197.93 Q614.423 2202.51 614.423 2211.26 Q614.423 2219.99 611.344 2224.6 Q608.289 2229.18 602.479 2229.18 Q596.668 2229.18 593.59 2224.6 Q590.534 2219.99 590.534 2211.26 Q590.534 2202.51 593.59 2197.93 Q596.668 2193.32 602.479 2193.32 Z" fill="#000000" fill-rule="nonzero" fill-opacity="1" /><path clip-path="url(#clip760)" d="M632.64 2197.03 Q629.029 2197.03 627.201 2200.59 Q625.395 2204.13 625.395 2211.26 Q625.395 2218.37 627.201 2221.93 Q629.029 2225.48 632.64 2225.48 Q636.275 2225.48 638.08 2221.93 Q639.909 2218.37 639.909 2211.26 Q639.909 2204.13 638.08 2200.59 Q636.275 2197.03 632.64 2197.03 M632.64 2193.32 Q638.451 2193.32 641.506 2197.93 Q644.585 2202.51 644.585 2211.26 Q644.585 2219.99 641.506 2224.6 Q638.451 2229.18 632.64 2229.18 Q626.83 2229.18 623.752 2224.6 Q620.696 2219.99 620.696 2211.26 Q620.696 2202.51 623.752 2197.93 Q626.83 2193.32 632.64 2193.32 Z" fill="#000000" fill-rule="nonzero" fill-opacity="1" /><path clip-path="url(#clip760)" d="M1430.98 2193.95 L1449.34 2193.95 L1449.34 2197.88 L1435.26 2197.88 L1435.26 2206.36 Q1436.28 2206.01 1437.3 2205.85 Q1438.32 2205.66 1439.34 2205.66 Q1445.12 2205.66 1448.5 2208.83 Q1451.88 2212 1451.88 2217.42 Q1451.88 2223 1448.41 2226.1 Q1444.94 2229.18 1438.62 2229.18 Q1436.44 2229.18 1434.17 2228.81 Q1431.93 2228.44 1429.52 2227.7 L1429.52 2223 Q1431.6 2224.13 1433.83 2224.69 Q1436.05 2225.24 1438.53 2225.24 Q1442.53 2225.24 1444.87 2223.14 Q1447.21 2221.03 1447.21 2217.42 Q1447.21 2213.81 1444.87 2211.7 Q1442.53 2209.6 1438.53 2209.6 Q1436.65 2209.6 1434.78 2210.01 Q1432.92 2210.43 1430.98 2211.31 L1430.98 2193.95 Z" fill="#000000" fill-rule="nonzero" fill-opacity="1" /><path clip-path="url(#clip760)" d="M1471.09 2197.03 Q1467.48 2197.03 1465.66 2200.59 Q1463.85 2204.13 1463.85 2211.26 Q1463.85 2218.37 1465.66 2221.93 Q1467.48 2225.48 1471.09 2225.48 Q1474.73 2225.48 1476.53 2221.93 Q1478.36 2218.37 1478.36 2211.26 Q1478.36 2204.13 1476.53 2200.59 Q1474.73 2197.03 1471.09 2197.03 M1471.09 2193.32 Q1476.91 2193.32 1479.96 2197.93 Q1483.04 2202.51 1483.04 2211.26 Q1483.04 2219.99 1479.96 2224.6 Q1476.91 2229.18 1471.09 2229.18 Q1465.28 2229.18 1462.21 2224.6 Q1459.15 2219.99 1459.15 2211.26 Q1459.15 2202.51 1462.21 2197.93 Q1465.28 2193.32 1471.09 2193.32 Z" fill="#000000" fill-rule="nonzero" fill-opacity="1" /><path clip-path="url(#clip760)" d="M1501.26 2197.03 Q1497.65 2197.03 1495.82 2200.59 Q1494.01 2204.13 1494.01 2211.26 Q1494.01 2218.37 1495.82 2221.93 Q1497.65 2225.48 1501.26 2225.48 Q1504.89 2225.48 1506.7 2221.93 Q1508.53 2218.37 1508.53 2211.26 Q1508.53 2204.13 1506.7 2200.59 Q1504.89 2197.03 1501.26 2197.03 M1501.26 2193.32 Q1507.07 2193.32 1510.12 2197.93 Q1513.2 2202.51 1513.2 2211.26 Q1513.2 2219.99 1510.12 2224.6 Q1507.07 2229.18 1501.26 2229.18 Q1495.45 2229.18 1492.37 2224.6 Q1489.31 2219.99 1489.31 2211.26 Q1489.31 2202.51 1492.37 2197.93 Q1495.45 2193.32 1501.26 2193.32 Z" fill="#000000" fill-rule="nonzero" fill-opacity="1" /><path clip-path="url(#clip760)" d="M1531.42 2197.03 Q1527.81 2197.03 1525.98 2200.59 Q1524.17 2204.13 1524.17 2211.26 Q1524.17 2218.37 1525.98 2221.93 Q1527.81 2225.48 1531.42 2225.48 Q1535.05 2225.48 1536.86 2221.93 Q1538.69 2218.37 1538.69 2211.26 Q1538.69 2204.13 1536.86 2200.59 Q1535.05 2197.03 1531.42 2197.03 M1531.42 2193.32 Q1537.23 2193.32 1540.28 2197.93 Q1543.36 2202.51 1543.36 2211.26 Q1543.36 2219.99 1540.28 2224.6 Q1537.23 2229.18 1531.42 2229.18 Q1525.61 2229.18 1522.53 2224.6 Q1519.47 2219.99 1519.47 2211.26 Q1519.47 2202.51 1522.53 2197.93 Q1525.61 2193.32 1531.42 2193.32 Z" fill="#000000" fill-rule="nonzero" fill-opacity="1" /><path clip-path="url(#clip760)" d="M2313.89 2224.57 L2321.53 2224.57 L2321.53 2198.21 L2313.22 2199.87 L2313.22 2195.61 L2321.48 2193.95 L2326.16 2193.95 L2326.16 2224.57 L2333.8 2224.57 L2333.8 2228.51 L2313.89 2228.51 L2313.89 2224.57 Z" fill="#000000" fill-rule="nonzero" fill-opacity="1" /><path clip-path="url(#clip760)" d="M2353.24 2197.03 Q2349.63 2197.03 2347.8 2200.59 Q2346 2204.13 2346 2211.26 Q2346 2218.37 2347.8 2221.93 Q2349.63 2225.48 2353.24 2225.48 Q2356.88 2225.48 2358.68 2221.93 Q2360.51 2218.37 2360.51 2211.26 Q2360.51 2204.13 2358.68 2200.59 Q2356.88 2197.03 2353.24 2197.03 M2353.24 2193.32 Q2359.05 2193.32 2362.11 2197.93 Q2365.19 2202.51 2365.19 2211.26 Q2365.19 2219.99 2362.11 2224.6 Q2359.05 2229.18 2353.24 2229.18 Q2347.43 2229.18 2344.35 2224.6 Q2341.3 2219.99 2341.3 2211.26 Q2341.3 2202.51 2344.35 2197.93 Q2347.43 2193.32 2353.24 2193.32 Z" fill="#000000" fill-rule="nonzero" fill-opacity="1" /><path clip-path="url(#clip760)" d="M2383.4 2197.03 Q2379.79 2197.03 2377.96 2200.59 Q2376.16 2204.13 2376.16 2211.26 Q2376.16 2218.37 2377.96 2221.93 Q2379.79 2225.48 2383.4 2225.48 Q2387.04 2225.48 2388.84 2221.93 Q2390.67 2218.37 2390.67 2211.26 Q2390.67 2204.13 2388.84 2200.59 Q2387.04 2197.03 2383.4 2197.03 M2383.4 2193.32 Q2389.21 2193.32 2392.27 2197.93 Q2395.35 2202.51 2395.35 2211.26 Q2395.35 2219.99 2392.27 2224.6 Q2389.21 2229.18 2383.4 2229.18 Q2377.59 2229.18 2374.51 2224.6 Q2371.46 2219.99 2371.46 2211.26 Q2371.46 2202.51 2374.51 2197.93 Q2377.59 2193.32 2383.4 2193.32 Z" fill="#000000" fill-rule="nonzero" fill-opacity="1" /><path clip-path="url(#clip760)" d="M2413.56 2197.03 Q2409.95 2197.03 2408.13 2200.59 Q2406.32 2204.13 2406.32 2211.26 Q2406.32 2218.37 2408.13 2221.93 Q2409.95 2225.48 2413.56 2225.48 Q2417.2 2225.48 2419 2221.93 Q2420.83 2218.37 2420.83 2211.26 Q2420.83 2204.13 2419 2200.59 Q2417.2 2197.03 2413.56 2197.03 M2413.56 2193.32 Q2419.38 2193.32 2422.43 2197.93 Q2425.51 2202.51 2425.51 2211.26 Q2425.51 2219.99 2422.43 2224.6 Q2419.38 2229.18 2413.56 2229.18 Q2407.75 2229.18 2404.68 2224.6 Q2401.62 2219.99 2401.62 2211.26 Q2401.62 2202.51 2404.68 2197.93 Q2407.75 2193.32 2413.56 2193.32 Z" fill="#000000" fill-rule="nonzero" fill-opacity="1" /><path clip-path="url(#clip760)" d="M2443.73 2197.03 Q2440.12 2197.03 2438.29 2200.59 Q2436.48 2204.13 2436.48 2211.26 Q2436.48 2218.37 2438.29 2221.93 Q2440.12 2225.48 2443.73 2225.48 Q2447.36 2225.48 2449.17 2221.93 Q2451 2218.37 2451 2211.26 Q2451 2204.13 2449.17 2200.59 Q2447.36 2197.03 2443.73 2197.03 M2443.73 2193.32 Q2449.54 2193.32 2452.59 2197.93 Q2455.67 2202.51 2455.67 2211.26 Q2455.67 2219.99 2452.59 2224.6 Q2449.54 2229.18 2443.73 2229.18 Q2437.92 2229.18 2434.84 2224.6 Q2431.78 2219.99 2431.78 2211.26 Q2431.78 2202.51 2434.84 2197.93 Q2437.92 2193.32 2443.73 2193.32 Z" fill="#000000" fill-rule="nonzero" fill-opacity="1" /><path clip-path="url(#clip760)" d="M3215.98 2224.57 L3232.3 2224.57 L3232.3 2228.51 L3210.35 2228.51 L3210.35 2224.57 Q3213.02 2221.82 3217.6 2217.19 Q3222.2 2212.54 3223.39 2211.19 Q3225.63 2208.67 3226.51 2206.93 Q3227.41 2205.17 3227.41 2203.48 Q3227.41 2200.73 3225.47 2198.99 Q3223.55 2197.26 3220.45 2197.26 Q3218.25 2197.26 3215.79 2198.02 Q3213.36 2198.79 3210.58 2200.34 L3210.58 2195.61 Q3213.41 2194.48 3215.86 2193.9 Q3218.32 2193.32 3220.35 2193.32 Q3225.72 2193.32 3228.92 2196.01 Q3232.11 2198.69 3232.11 2203.18 Q3232.11 2205.31 3231.3 2207.23 Q3230.51 2209.13 3228.41 2211.73 Q3227.83 2212.4 3224.73 2215.61 Q3221.63 2218.81 3215.98 2224.57 Z" fill="#000000" fill-rule="nonzero" fill-opacity="1" /><path clip-path="url(#clip760)" d="M3252.11 2197.03 Q3248.5 2197.03 3246.67 2200.59 Q3244.87 2204.13 3244.87 2211.26 Q3244.87 2218.37 3246.67 2221.93 Q3248.5 2225.48 3252.11 2225.48 Q3255.75 2225.48 3257.55 2221.93 Q3259.38 2218.37 3259.38 2211.26 Q3259.38 2204.13 3257.55 2200.59 Q3255.75 2197.03 3252.11 2197.03 M3252.11 2193.32 Q3257.92 2193.32 3260.98 2197.93 Q3264.06 2202.51 3264.06 2211.26 Q3264.06 2219.99 3260.98 2224.6 Q3257.92 2229.18 3252.11 2229.18 Q3246.3 2229.18 3243.22 2224.6 Q3240.17 2219.99 3240.17 2211.26 Q3240.17 2202.51 3243.22 2197.93 Q3246.3 2193.32 3252.11 2193.32 Z" fill="#000000" fill-rule="nonzero" fill-opacity="1" /><path clip-path="url(#clip760)" d="M3282.27 2197.03 Q3278.66 2197.03 3276.83 2200.59 Q3275.03 2204.13 3275.03 2211.26 Q3275.03 2218.37 3276.83 2221.93 Q3278.66 2225.48 3282.27 2225.48 Q3285.91 2225.48 3287.71 2221.93 Q3289.54 2218.37 3289.54 2211.26 Q3289.54 2204.13 3287.71 2200.59 Q3285.91 2197.03 3282.27 2197.03 M3282.27 2193.32 Q3288.08 2193.32 3291.14 2197.93 Q3294.22 2202.51 3294.22 2211.26 Q3294.22 2219.99 3291.14 2224.6 Q3288.08 2229.18 3282.27 2229.18 Q3276.46 2229.18 3273.39 2224.6 Q3270.33 2219.99 3270.33 2211.26 Q3270.33 2202.51 3273.39 2197.93 Q3276.46 2193.32 3282.27 2193.32 Z" fill="#000000" fill-rule="nonzero" fill-opacity="1" /><path clip-path="url(#clip760)" d="M3312.44 2197.03 Q3308.82 2197.03 3307 2200.59 Q3305.19 2204.13 3305.19 2211.26 Q3305.19 2218.37 3307 2221.93 Q3308.82 2225.48 3312.44 2225.48 Q3316.07 2225.48 3317.88 2221.93 Q3319.7 2218.37 3319.7 2211.26 Q3319.7 2204.13 3317.88 2200.59 Q3316.07 2197.03 3312.44 2197.03 M3312.44 2193.32 Q3318.25 2193.32 3321.3 2197.93 Q3324.38 2202.51 3324.38 2211.26 Q3324.38 2219.99 3321.3 2224.6 Q3318.25 2229.18 3312.44 2229.18 Q3306.63 2229.18 3303.55 2224.6 Q3300.49 2219.99 3300.49 2211.26 Q3300.49 2202.51 3303.55 2197.93 Q3306.63 2193.32 3312.44 2193.32 Z" fill="#000000" fill-rule="nonzero" fill-opacity="1" /><path clip-path="url(#clip760)" d="M3342.6 2197.03 Q3338.99 2197.03 3337.16 2200.59 Q3335.35 2204.13 3335.35 2211.26 Q3335.35 2218.37 3337.16 2221.93 Q3338.99 2225.48 3342.6 2225.48 Q3346.23 2225.48 3348.04 2221.93 Q3349.87 2218.37 3349.87 2211.26 Q3349.87 2204.13 3348.04 2200.59 Q3346.23 2197.03 3342.6 2197.03 M3342.6 2193.32 Q3348.41 2193.32 3351.46 2197.93 Q3354.54 2202.51 3354.54 2211.26 Q3354.54 2219.99 3351.46 2224.6 Q3348.41 2229.18 3342.6 2229.18 Q3336.79 2229.18 3333.71 2224.6 Q3330.65 2219.99 3330.65 2211.26 Q3330.65 2202.51 3333.71 2197.93 Q3336.79 2193.32 3342.6 2193.32 Z" fill="#000000" fill-rule="nonzero" fill-opacity="1" /><path clip-path="url(#clip760)" d="M1811.33 2308.02 L1811.33 2296.42 L1801.78 2296.42 L1801.78 2291.62 L1817.11 2291.62 L1817.11 2310.17 Q1813.73 2312.57 1809.65 2313.81 Q1805.57 2315.03 1800.94 2315.03 Q1790.81 2315.03 1785.08 2309.12 Q1779.38 2303.19 1779.38 2292.63 Q1779.38 2282.04 1785.08 2276.14 Q1790.81 2270.21 1800.94 2270.21 Q1805.16 2270.21 1808.95 2271.25 Q1812.77 2272.29 1815.99 2274.32 L1815.99 2280.54 Q1812.74 2277.79 1809.1 2276.4 Q1805.45 2275.01 1801.43 2275.01 Q1793.5 2275.01 1789.51 2279.44 Q1785.55 2283.86 1785.55 2292.63 Q1785.55 2301.37 1789.51 2305.8 Q1793.5 2310.22 1801.43 2310.22 Q1804.53 2310.22 1806.96 2309.7 Q1809.39 2309.15 1811.33 2308.02 Z" fill="#000000" fill-rule="nonzero" fill-opacity="1" /><path clip-path="url(#clip760)" d="M1846.34 2286.76 Q1845.44 2286.24 1844.37 2286 Q1843.33 2285.74 1842.06 2285.74 Q1837.54 2285.74 1835.11 2288.7 Q1832.71 2291.62 1832.71 2297.12 L1832.71 2314.19 L1827.36 2314.19 L1827.36 2281.78 L1832.71 2281.78 L1832.71 2286.82 Q1834.39 2283.86 1837.08 2282.45 Q1839.77 2281 1843.62 2281 Q1844.17 2281 1844.83 2281.09 Q1845.5 2281.14 1846.31 2281.29 L1846.34 2286.76 Z" fill="#000000" fill-rule="nonzero" fill-opacity="1" /><path clip-path="url(#clip760)" d="M1851.92 2281.78 L1857.25 2281.78 L1857.25 2314.19 L1851.92 2314.19 L1851.92 2281.78 M1851.92 2269.16 L1857.25 2269.16 L1857.25 2275.91 L1851.92 2275.91 L1851.92 2269.16 Z" fill="#000000" fill-rule="nonzero" fill-opacity="1" /><path clip-path="url(#clip760)" d="M1889.71 2286.7 L1889.71 2269.16 L1895.04 2269.16 L1895.04 2314.19 L1889.71 2314.19 L1889.71 2309.33 Q1888.03 2312.22 1885.46 2313.64 Q1882.91 2315.03 1879.32 2315.03 Q1873.45 2315.03 1869.75 2310.34 Q1866.07 2305.65 1866.07 2298.01 Q1866.07 2290.37 1869.75 2285.69 Q1873.45 2281 1879.32 2281 Q1882.91 2281 1885.46 2282.42 Q1888.03 2283.81 1889.71 2286.7 M1871.57 2298.01 Q1871.57 2303.89 1873.97 2307.24 Q1876.4 2310.57 1880.63 2310.57 Q1884.85 2310.57 1887.28 2307.24 Q1889.71 2303.89 1889.71 2298.01 Q1889.71 2292.14 1887.28 2288.81 Q1884.85 2285.46 1880.63 2285.46 Q1876.4 2285.46 1873.97 2288.81 Q1871.57 2292.14 1871.57 2298.01 Z" fill="#000000" fill-rule="nonzero" fill-opacity="1" /><path clip-path="url(#clip760)" d="M1945.5 2282.74 L1945.5 2287.77 Q1943.24 2286.61 1940.81 2286.03 Q1938.38 2285.46 1935.78 2285.46 Q1931.81 2285.46 1929.82 2286.67 Q1927.85 2287.89 1927.85 2290.32 Q1927.85 2292.17 1929.27 2293.24 Q1930.68 2294.28 1934.97 2295.24 L1936.79 2295.64 Q1942.46 2296.86 1944.83 2299.08 Q1947.23 2301.28 1947.23 2305.25 Q1947.23 2309.76 1943.65 2312.39 Q1940.09 2315.03 1933.84 2315.03 Q1931.23 2315.03 1928.4 2314.51 Q1925.59 2314.01 1922.47 2313 L1922.47 2307.5 Q1925.42 2309.04 1928.28 2309.82 Q1931.15 2310.57 1933.95 2310.57 Q1937.71 2310.57 1939.74 2309.3 Q1941.77 2308 1941.77 2305.65 Q1941.77 2303.48 1940.29 2302.32 Q1938.84 2301.17 1933.9 2300.1 L1932.04 2299.66 Q1927.1 2298.62 1924.9 2296.48 Q1922.7 2294.31 1922.7 2290.55 Q1922.7 2285.98 1925.94 2283.49 Q1929.18 2281 1935.14 2281 Q1938.09 2281 1940.7 2281.43 Q1943.3 2281.87 1945.5 2282.74 Z" fill="#000000" fill-rule="nonzero" fill-opacity="1" /><path clip-path="url(#clip760)" d="M1955.71 2281.78 L1961.04 2281.78 L1961.04 2314.19 L1955.71 2314.19 L1955.71 2281.78 M1955.71 2269.16 L1961.04 2269.16 L1961.04 2275.91 L1955.71 2275.91 L1955.71 2269.16 Z" fill="#000000" fill-rule="nonzero" fill-opacity="1" /><path clip-path="url(#clip760)" d="M1969.86 2281.78 L1995.15 2281.78 L1995.15 2286.64 L1975.13 2309.93 L1995.15 2309.93 L1995.15 2314.19 L1969.14 2314.19 L1969.14 2309.33 L1989.16 2286.03 L1969.86 2286.03 L1969.86 2281.78 Z" fill="#000000" fill-rule="nonzero" fill-opacity="1" /><path clip-path="url(#clip760)" d="M2031 2296.65 L2031 2299.26 L2006.52 2299.26 Q2006.87 2304.75 2009.82 2307.65 Q2012.8 2310.51 2018.1 2310.51 Q2021.16 2310.51 2024.03 2309.76 Q2026.92 2309.01 2029.76 2307.5 L2029.76 2312.54 Q2026.89 2313.75 2023.88 2314.39 Q2020.87 2315.03 2017.78 2315.03 Q2010.02 2315.03 2005.48 2310.51 Q2000.97 2306 2000.97 2298.3 Q2000.97 2290.35 2005.25 2285.69 Q2009.56 2281 2016.85 2281 Q2023.39 2281 2027.18 2285.22 Q2031 2289.42 2031 2296.65 M2025.68 2295.09 Q2025.62 2290.72 2023.22 2288.12 Q2020.85 2285.51 2016.91 2285.51 Q2012.45 2285.51 2009.76 2288.03 Q2007.1 2290.55 2006.7 2295.12 L2025.68 2295.09 Z" fill="#000000" fill-rule="nonzero" fill-opacity="1" /><path clip-path="url(#clip760)" d="M2058.81 2270.99 L2066.68 2270.99 L2085.83 2307.13 L2085.83 2270.99 L2091.5 2270.99 L2091.5 2314.19 L2083.63 2314.19 L2064.48 2278.05 L2064.48 2314.19 L2058.81 2314.19 L2058.81 2270.99 Z" fill="#000000" fill-rule="nonzero" fill-opacity="1" /><polyline clip-path="url(#clip760)" style="stroke:#000000; stroke-linecap:round; stroke-linejoin:round; stroke-width:4; stroke-opacity:1; fill:none" points="318.131,2156.51 318.131,246.944 "/>
<polyline clip-path="url(#clip760)" style="stroke:#000000; stroke-linecap:round; stroke-linejoin:round; stroke-width:4; stroke-opacity:1; fill:none" points="318.131,2156.51 337.028,2156.51 "/>
<polyline clip-path="url(#clip760)" style="stroke:#000000; stroke-linecap:round; stroke-linejoin:round; stroke-width:4; stroke-opacity:1; fill:none" points="318.131,1752.99 337.028,1752.99 "/>
<polyline clip-path="url(#clip760)" style="stroke:#000000; stroke-linecap:round; stroke-linejoin:round; stroke-width:4; stroke-opacity:1; fill:none" points="318.131,1349.47 337.028,1349.47 "/>
<polyline clip-path="url(#clip760)" style="stroke:#000000; stroke-linecap:round; stroke-linejoin:round; stroke-width:4; stroke-opacity:1; fill:none" points="318.131,945.95 337.028,945.95 "/>
<polyline clip-path="url(#clip760)" style="stroke:#000000; stroke-linecap:round; stroke-linejoin:round; stroke-width:4; stroke-opacity:1; fill:none" points="318.131,542.431 337.028,542.431 "/>
<path clip-path="url(#clip760)" d="M206.955 2142.31 Q203.344 2142.31 201.515 2145.87 Q199.71 2149.41 199.71 2156.54 Q199.71 2163.65 201.515 2167.21 Q203.344 2170.76 206.955 2170.76 Q210.589 2170.76 212.395 2167.21 Q214.224 2163.65 214.224 2156.54 Q214.224 2149.41 212.395 2145.87 Q210.589 2142.31 206.955 2142.31 M206.955 2138.6 Q212.765 2138.6 215.821 2143.21 Q218.9 2147.79 218.9 2156.54 Q218.9 2165.27 215.821 2169.88 Q212.765 2174.46 206.955 2174.46 Q201.145 2174.46 198.066 2169.88 Q195.011 2165.27 195.011 2156.54 Q195.011 2147.79 198.066 2143.21 Q201.145 2138.6 206.955 2138.6 Z" fill="#000000" fill-rule="nonzero" fill-opacity="1" /><path clip-path="url(#clip760)" d="M227.117 2167.91 L232.001 2167.91 L232.001 2173.79 L227.117 2173.79 L227.117 2167.91 Z" fill="#000000" fill-rule="nonzero" fill-opacity="1" /><path clip-path="url(#clip760)" d="M252.186 2142.31 Q248.575 2142.31 246.747 2145.87 Q244.941 2149.41 244.941 2156.54 Q244.941 2163.65 246.747 2167.21 Q248.575 2170.76 252.186 2170.76 Q255.821 2170.76 257.626 2167.21 Q259.455 2163.65 259.455 2156.54 Q259.455 2149.41 257.626 2145.87 Q255.821 2142.31 252.186 2142.31 M252.186 2138.6 Q257.997 2138.6 261.052 2143.21 Q264.131 2147.79 264.131 2156.54 Q264.131 2165.27 261.052 2169.88 Q257.997 2174.46 252.186 2174.46 Q246.376 2174.46 243.298 2169.88 Q240.242 2165.27 240.242 2156.54 Q240.242 2147.79 243.298 2143.21 Q246.376 2138.6 252.186 2138.6 Z" fill="#000000" fill-rule="nonzero" fill-opacity="1" /><path clip-path="url(#clip760)" d="M201.978 1766.33 L218.298 1766.33 L218.298 1770.27 L196.353 1770.27 L196.353 1766.33 Q199.015 1763.58 203.599 1758.95 Q208.205 1754.3 209.386 1752.95 Q211.631 1750.43 212.511 1748.69 Q213.414 1746.94 213.414 1745.25 Q213.414 1742.49 211.469 1740.75 Q209.548 1739.02 206.446 1739.02 Q204.247 1739.02 201.793 1739.78 Q199.363 1740.55 196.585 1742.1 L196.585 1737.38 Q199.409 1736.24 201.863 1735.66 Q204.316 1735.08 206.353 1735.08 Q211.724 1735.08 214.918 1737.77 Q218.113 1740.45 218.113 1744.94 Q218.113 1747.07 217.302 1749 Q216.515 1750.89 214.409 1753.49 Q213.83 1754.16 210.728 1757.38 Q207.627 1760.57 201.978 1766.33 Z" fill="#000000" fill-rule="nonzero" fill-opacity="1" /><path clip-path="url(#clip760)" d="M228.113 1764.39 L232.997 1764.39 L232.997 1770.27 L228.113 1770.27 L228.113 1764.39 Z" fill="#000000" fill-rule="nonzero" fill-opacity="1" /><path clip-path="url(#clip760)" d="M243.228 1735.71 L261.585 1735.71 L261.585 1739.64 L247.511 1739.64 L247.511 1748.12 Q248.529 1747.77 249.548 1747.61 Q250.566 1747.42 251.585 1747.42 Q257.372 1747.42 260.751 1750.59 Q264.131 1753.76 264.131 1759.18 Q264.131 1764.76 260.659 1767.86 Q257.186 1770.94 250.867 1770.94 Q248.691 1770.94 246.423 1770.57 Q244.177 1770.2 241.77 1769.46 L241.77 1764.76 Q243.853 1765.89 246.075 1766.45 Q248.298 1767 250.774 1767 Q254.779 1767 257.117 1764.9 Q259.455 1762.79 259.455 1759.18 Q259.455 1755.57 257.117 1753.46 Q254.779 1751.36 250.774 1751.36 Q248.899 1751.36 247.024 1751.77 Q245.173 1752.19 243.228 1753.07 L243.228 1735.71 Z" fill="#000000" fill-rule="nonzero" fill-opacity="1" /><path clip-path="url(#clip760)" d="M197.002 1332.19 L215.358 1332.19 L215.358 1336.12 L201.284 1336.12 L201.284 1344.6 Q202.302 1344.25 203.321 1344.09 Q204.339 1343.9 205.358 1343.9 Q211.145 1343.9 214.525 1347.07 Q217.904 1350.24 217.904 1355.66 Q217.904 1361.24 214.432 1364.34 Q210.96 1367.42 204.64 1367.42 Q202.465 1367.42 200.196 1367.05 Q197.951 1366.68 195.543 1365.94 L195.543 1361.24 Q197.627 1362.37 199.849 1362.93 Q202.071 1363.49 204.548 1363.49 Q208.552 1363.49 210.89 1361.38 Q213.228 1359.27 213.228 1355.66 Q213.228 1352.05 210.89 1349.94 Q208.552 1347.84 204.548 1347.84 Q202.673 1347.84 200.798 1348.25 Q198.946 1348.67 197.002 1349.55 L197.002 1332.19 Z" fill="#000000" fill-rule="nonzero" fill-opacity="1" /><path clip-path="url(#clip760)" d="M227.117 1360.87 L232.001 1360.87 L232.001 1366.75 L227.117 1366.75 L227.117 1360.87 Z" fill="#000000" fill-rule="nonzero" fill-opacity="1" /><path clip-path="url(#clip760)" d="M252.186 1335.27 Q248.575 1335.27 246.747 1338.83 Q244.941 1342.37 244.941 1349.5 Q244.941 1356.61 246.747 1360.18 Q248.575 1363.72 252.186 1363.72 Q255.821 1363.72 257.626 1360.18 Q259.455 1356.61 259.455 1349.5 Q259.455 1342.37 257.626 1338.83 Q255.821 1335.27 252.186 1335.27 M252.186 1331.56 Q257.997 1331.56 261.052 1336.17 Q264.131 1340.75 264.131 1349.5 Q264.131 1358.23 261.052 1362.84 Q257.997 1367.42 252.186 1367.42 Q246.376 1367.42 243.298 1362.84 Q240.242 1358.23 240.242 1349.5 Q240.242 1340.75 243.298 1336.17 Q246.376 1331.56 252.186 1331.56 Z" fill="#000000" fill-rule="nonzero" fill-opacity="1" /><path clip-path="url(#clip760)" d="M196.77 928.67 L218.992 928.67 L218.992 930.661 L206.446 963.23 L201.562 963.23 L213.367 932.605 L196.77 932.605 L196.77 928.67 Z" fill="#000000" fill-rule="nonzero" fill-opacity="1" /><path clip-path="url(#clip760)" d="M228.113 957.351 L232.997 957.351 L232.997 963.23 L228.113 963.23 L228.113 957.351 Z" fill="#000000" fill-rule="nonzero" fill-opacity="1" /><path clip-path="url(#clip760)" d="M243.228 928.67 L261.585 928.67 L261.585 932.605 L247.511 932.605 L247.511 941.078 Q248.529 940.73 249.548 940.568 Q250.566 940.383 251.585 940.383 Q257.372 940.383 260.751 943.554 Q264.131 946.726 264.131 952.142 Q264.131 957.721 260.659 960.823 Q257.186 963.902 250.867 963.902 Q248.691 963.902 246.423 963.531 Q244.177 963.161 241.77 962.42 L241.77 957.721 Q243.853 958.855 246.075 959.411 Q248.298 959.966 250.774 959.966 Q254.779 959.966 257.117 957.86 Q259.455 955.753 259.455 952.142 Q259.455 948.531 257.117 946.425 Q254.779 944.318 250.774 944.318 Q248.899 944.318 247.024 944.735 Q245.173 945.152 243.228 946.031 L243.228 928.67 Z" fill="#000000" fill-rule="nonzero" fill-opacity="1" /><path clip-path="url(#clip760)" d="M167.604 555.776 L175.242 555.776 L175.242 529.41 L166.932 531.077 L166.932 526.818 L175.196 525.151 L179.872 525.151 L179.872 555.776 L187.511 555.776 L187.511 559.711 L167.604 559.711 L167.604 555.776 Z" fill="#000000" fill-rule="nonzero" fill-opacity="1" /><path clip-path="url(#clip760)" d="M206.955 528.23 Q203.344 528.23 201.515 531.795 Q199.71 535.336 199.71 542.466 Q199.71 549.572 201.515 553.137 Q203.344 556.679 206.955 556.679 Q210.589 556.679 212.395 553.137 Q214.224 549.572 214.224 542.466 Q214.224 535.336 212.395 531.795 Q210.589 528.23 206.955 528.23 M206.955 524.526 Q212.765 524.526 215.821 529.133 Q218.9 533.716 218.9 542.466 Q218.9 551.193 215.821 555.799 Q212.765 560.382 206.955 560.382 Q201.145 560.382 198.066 555.799 Q195.011 551.193 195.011 542.466 Q195.011 533.716 198.066 529.133 Q201.145 524.526 206.955 524.526 Z" fill="#000000" fill-rule="nonzero" fill-opacity="1" /><path clip-path="url(#clip760)" d="M227.117 553.831 L232.001 553.831 L232.001 559.711 L227.117 559.711 L227.117 553.831 Z" fill="#000000" fill-rule="nonzero" fill-opacity="1" /><path clip-path="url(#clip760)" d="M252.186 528.23 Q248.575 528.23 246.747 531.795 Q244.941 535.336 244.941 542.466 Q244.941 549.572 246.747 553.137 Q248.575 556.679 252.186 556.679 Q255.821 556.679 257.626 553.137 Q259.455 549.572 259.455 542.466 Q259.455 535.336 257.626 531.795 Q255.821 528.23 252.186 528.23 M252.186 524.526 Q257.997 524.526 261.052 529.133 Q264.131 533.716 264.131 542.466 Q264.131 551.193 261.052 555.799 Q257.997 560.382 252.186 560.382 Q246.376 560.382 243.298 555.799 Q240.242 551.193 240.242 542.466 Q240.242 533.716 243.298 529.133 Q246.376 524.526 252.186 524.526 Z" fill="#000000" fill-rule="nonzero" fill-opacity="1" /><path clip-path="url(#clip760)" d="M58.1901 1374.69 L63.8903 1374.69 Q62.2989 1378.01 61.5176 1380.96 Q60.7364 1383.92 60.7364 1386.66 Q60.7364 1391.44 62.5882 1394.04 Q64.4401 1396.62 67.8544 1396.62 Q70.719 1396.62 72.1947 1394.91 Q73.6414 1393.17 74.5384 1388.37 L75.2618 1384.84 Q76.506 1378.3 79.6599 1375.21 Q82.7849 1372.08 88.0511 1372.08 Q94.33 1372.08 97.5707 1376.31 Q100.811 1380.5 100.811 1388.63 Q100.811 1391.7 100.117 1395.17 Q99.4225 1398.61 98.0626 1402.32 L92.0441 1402.32 Q94.0406 1398.76 95.0533 1395.34 Q96.0661 1391.93 96.0661 1388.63 Q96.0661 1383.63 94.0985 1380.91 Q92.1309 1378.19 88.4851 1378.19 Q85.3022 1378.19 83.5083 1380.15 Q81.7143 1382.09 80.8173 1386.55 L80.1229 1390.11 Q78.8208 1396.65 76.043 1399.57 Q73.2653 1402.49 68.3174 1402.49 Q62.5882 1402.49 59.2896 1398.47 Q55.991 1394.42 55.991 1387.33 Q55.991 1384.29 56.5408 1381.14 Q57.0906 1377.98 58.1901 1374.69 Z" fill="#000000" fill-rule="nonzero" fill-opacity="1" /><path clip-path="url(#clip760)" d="M71.2977 1350.64 Q71.2977 1354.92 74.6541 1357.41 Q77.9817 1359.9 83.7976 1359.9 Q89.6135 1359.9 92.97 1357.44 Q96.2975 1354.95 96.2975 1350.64 Q96.2975 1346.39 92.9411 1343.9 Q89.5846 1341.41 83.7976 1341.41 Q78.0395 1341.41 74.6831 1343.9 Q71.2977 1346.39 71.2977 1350.64 M66.7838 1350.64 Q66.7838 1343.7 71.2977 1339.73 Q75.8115 1335.77 83.7976 1335.77 Q91.7547 1335.77 96.2975 1339.73 Q100.811 1343.7 100.811 1350.64 Q100.811 1357.61 96.2975 1361.58 Q91.7547 1365.51 83.7976 1365.51 Q75.8115 1365.51 71.2977 1361.58 Q66.7838 1357.61 66.7838 1350.64 Z" fill="#000000" fill-rule="nonzero" fill-opacity="1" /><path clip-path="url(#clip760)" d="M54.9494 1326.94 L54.9494 1321.62 L99.9723 1321.62 L99.9723 1326.94 L54.9494 1326.94 Z" fill="#000000" fill-rule="nonzero" fill-opacity="1" /><path clip-path="url(#clip760)" d="M67.565 1314.3 L67.565 1308.66 L94.764 1298.53 L67.565 1288.4 L67.565 1282.76 L99.9723 1294.91 L99.9723 1302.15 L67.565 1314.3 Z" fill="#000000" fill-rule="nonzero" fill-opacity="1" /><path clip-path="url(#clip760)" d="M82.4377 1247.69 L85.0418 1247.69 L85.0418 1272.17 Q90.5395 1271.82 93.433 1268.87 Q96.2975 1265.89 96.2975 1260.59 Q96.2975 1257.53 95.5452 1254.66 Q94.7929 1251.77 93.2883 1248.93 L98.323 1248.93 Q99.5383 1251.8 100.175 1254.81 Q100.811 1257.82 100.811 1260.91 Q100.811 1268.67 96.2975 1273.21 Q91.7837 1277.72 84.087 1277.72 Q76.1298 1277.72 71.4713 1273.44 Q66.7838 1269.13 66.7838 1261.84 Q66.7838 1255.3 71.0083 1251.51 Q75.2039 1247.69 82.4377 1247.69 M80.8752 1253.01 Q76.506 1253.07 73.9018 1255.47 Q71.2977 1257.85 71.2977 1261.78 Q71.2977 1266.24 73.815 1268.93 Q76.3324 1271.59 80.9041 1271.99 L80.8752 1253.01 Z" fill="#000000" fill-rule="nonzero" fill-opacity="1" /><path clip-path="url(#clip760)" d="M58.3637 1214.85 L67.565 1214.85 L67.565 1203.88 L71.7028 1203.88 L71.7028 1214.85 L89.2953 1214.85 Q93.2594 1214.85 94.3878 1213.78 Q95.5163 1212.68 95.5163 1209.35 L95.5163 1203.88 L99.9723 1203.88 L99.9723 1209.35 Q99.9723 1215.51 97.6864 1217.86 Q95.3716 1220.2 89.2953 1220.2 L71.7028 1220.2 L71.7028 1224.11 L67.565 1224.11 L67.565 1220.2 L58.3637 1220.2 L58.3637 1214.85 Z" fill="#000000" fill-rule="nonzero" fill-opacity="1" /><path clip-path="url(#clip760)" d="M67.565 1196.88 L67.565 1191.56 L99.9723 1191.56 L99.9723 1196.88 L67.565 1196.88 M54.9494 1196.88 L54.9494 1191.56 L61.6912 1191.56 L61.6912 1196.88 L54.9494 1196.88 Z" fill="#000000" fill-rule="nonzero" fill-opacity="1" /><path clip-path="url(#clip760)" d="M73.7861 1155.18 Q70.1981 1153.19 68.491 1150.41 Q66.7838 1147.63 66.7838 1143.87 Q66.7838 1138.81 70.3428 1136.06 Q73.8729 1133.31 80.4122 1133.31 L99.9723 1133.31 L99.9723 1138.66 L80.5858 1138.66 Q75.9273 1138.66 73.6703 1140.31 Q71.4134 1141.96 71.4134 1145.35 Q71.4134 1149.48 74.1622 1151.89 Q76.9111 1154.29 81.6564 1154.29 L99.9723 1154.29 L99.9723 1159.64 L80.5858 1159.64 Q75.8983 1159.64 73.6703 1161.29 Q71.4134 1162.94 71.4134 1166.38 Q71.4134 1170.46 74.1912 1172.86 Q76.94 1175.26 81.6564 1175.26 L99.9723 1175.26 L99.9723 1180.62 L67.565 1180.62 L67.565 1175.26 L72.5997 1175.26 Q69.6194 1173.44 68.2016 1170.9 Q66.7838 1168.35 66.7838 1164.85 Q66.7838 1161.32 68.5778 1158.86 Q70.3717 1156.37 73.7861 1155.18 Z" fill="#000000" fill-rule="nonzero" fill-opacity="1" /><path clip-path="url(#clip760)" d="M82.4377 1094.97 L85.0418 1094.97 L85.0418 1119.45 Q90.5395 1119.1 93.433 1116.15 Q96.2975 1113.17 96.2975 1107.88 Q96.2975 1104.81 95.5452 1101.94 Q94.7929 1099.05 93.2883 1096.21 L98.323 1096.21 Q99.5383 1099.08 100.175 1102.09 Q100.811 1105.1 100.811 1108.19 Q100.811 1115.95 96.2975 1120.49 Q91.7837 1125 84.087 1125 Q76.1298 1125 71.4713 1120.72 Q66.7838 1116.41 66.7838 1109.12 Q66.7838 1102.58 71.0083 1098.79 Q75.2039 1094.97 82.4377 1094.97 M80.8752 1100.29 Q76.506 1100.35 73.9018 1102.75 Q71.2977 1105.13 71.2977 1109.06 Q71.2977 1113.52 73.815 1116.21 Q76.3324 1118.87 80.9041 1119.28 L80.8752 1100.29 Z" fill="#000000" fill-rule="nonzero" fill-opacity="1" /><path clip-path="url(#clip760)" d="M55.0072 1054.61 Q61.6623 1058.48 68.1727 1060.36 Q74.6831 1062.24 81.3671 1062.24 Q88.0511 1062.24 94.6193 1060.36 Q101.159 1058.45 107.785 1054.61 L107.785 1059.24 Q100.985 1063.58 94.4168 1065.75 Q87.8485 1067.89 81.3671 1067.89 Q74.9145 1067.89 68.3752 1065.75 Q61.8359 1063.6 55.0072 1059.24 L55.0072 1054.61 Z" fill="#000000" fill-rule="nonzero" fill-opacity="1" /><path clip-path="url(#clip760)" d="M68.5199 1023.62 L73.5546 1023.62 Q72.3972 1025.87 71.8185 1028.3 Q71.2398 1030.73 71.2398 1033.34 Q71.2398 1037.3 72.4551 1039.3 Q73.6703 1041.27 76.1009 1041.27 Q77.9527 1041.27 79.0233 1039.85 Q80.065 1038.43 81.0198 1034.15 L81.4249 1032.33 Q82.6402 1026.65 84.8682 1024.28 Q87.0673 1021.88 91.0314 1021.88 Q95.5452 1021.88 98.1783 1025.47 Q100.811 1029.03 100.811 1035.28 Q100.811 1037.88 100.291 1040.72 Q99.7987 1043.52 98.7859 1046.65 L93.2883 1046.65 Q94.8218 1043.7 95.6031 1040.83 Q96.3554 1037.97 96.3554 1035.16 Q96.3554 1031.4 95.0823 1029.37 Q93.7802 1027.35 91.4364 1027.35 Q89.2663 1027.35 88.1089 1028.82 Q86.9515 1030.27 85.8809 1035.22 L85.4469 1037.07 Q84.4052 1042.02 82.264 1044.22 Q80.0939 1046.42 76.3324 1046.42 Q71.7606 1046.42 69.2722 1043.18 Q66.7838 1039.94 66.7838 1033.98 Q66.7838 1031.02 67.2178 1028.42 Q67.6519 1025.82 68.5199 1023.62 Z" fill="#000000" fill-rule="nonzero" fill-opacity="1" /><path clip-path="url(#clip760)" d="M55.0072 1014.24 L55.0072 1009.61 Q61.8359 1005.27 68.3752 1003.13 Q74.9145 1000.96 81.3671 1000.96 Q87.8485 1000.96 94.4168 1003.13 Q100.985 1005.27 107.785 1009.61 L107.785 1014.24 Q101.159 1010.39 94.6193 1008.51 Q88.0511 1006.6 81.3671 1006.6 Q74.6831 1006.6 68.1727 1008.51 Q61.6623 1010.39 55.0072 1014.24 Z" fill="#000000" fill-rule="nonzero" fill-opacity="1" /><path clip-path="url(#clip760)" d="M1175.72 125.969 L1175.72 133.949 Q1171.06 131.721 1166.93 130.627 Q1162.79 129.534 1158.95 129.534 Q1152.26 129.534 1148.62 132.126 Q1145.01 134.719 1145.01 139.499 Q1145.01 143.509 1147.4 145.575 Q1149.83 147.601 1156.56 148.857 L1161.5 149.869 Q1170.65 151.611 1174.99 156.027 Q1179.36 160.402 1179.36 167.774 Q1179.36 176.565 1173.45 181.102 Q1167.57 185.639 1156.19 185.639 Q1151.9 185.639 1147.04 184.667 Q1142.22 183.694 1137.03 181.79 L1137.03 173.365 Q1142.01 176.16 1146.79 177.577 Q1151.57 178.995 1156.19 178.995 Q1163.2 178.995 1167.01 176.241 Q1170.81 173.486 1170.81 168.382 Q1170.81 163.926 1168.06 161.414 Q1165.35 158.903 1159.11 157.647 L1154.13 156.675 Q1144.97 154.852 1140.88 150.963 Q1136.79 147.074 1136.79 140.147 Q1136.79 132.126 1142.42 127.508 Q1148.09 122.89 1158.01 122.89 Q1162.27 122.89 1166.68 123.66 Q1171.1 124.43 1175.72 125.969 Z" fill="#000000" fill-rule="nonzero" fill-opacity="1" /><path clip-path="url(#clip760)" d="M1209.38 144.32 Q1203.38 144.32 1199.9 149.019 Q1196.42 153.677 1196.42 161.819 Q1196.42 169.962 1199.86 174.661 Q1203.34 179.319 1209.38 179.319 Q1215.33 179.319 1218.82 174.62 Q1222.3 169.921 1222.3 161.819 Q1222.3 153.758 1218.82 149.059 Q1215.33 144.32 1209.38 144.32 M1209.38 138 Q1219.1 138 1224.65 144.32 Q1230.2 150.639 1230.2 161.819 Q1230.2 172.959 1224.65 179.319 Q1219.1 185.639 1209.38 185.639 Q1199.62 185.639 1194.07 179.319 Q1188.56 172.959 1188.56 161.819 Q1188.56 150.639 1194.07 144.32 Q1199.62 138 1209.38 138 Z" fill="#000000" fill-rule="nonzero" fill-opacity="1" /><path clip-path="url(#clip760)" d="M1242.56 121.432 L1250.01 121.432 L1250.01 184.464 L1242.56 184.464 L1242.56 121.432 Z" fill="#000000" fill-rule="nonzero" fill-opacity="1" /><path clip-path="url(#clip760)" d="M1260.26 139.094 L1268.16 139.094 L1282.34 177.172 L1296.51 139.094 L1304.41 139.094 L1287.4 184.464 L1277.27 184.464 L1260.26 139.094 Z" fill="#000000" fill-rule="nonzero" fill-opacity="1" /><path clip-path="url(#clip760)" d="M1353.51 159.916 L1353.51 163.561 L1319.24 163.561 Q1319.73 171.258 1323.86 175.309 Q1328.03 179.319 1335.44 179.319 Q1339.74 179.319 1343.75 178.266 Q1347.8 177.213 1351.77 175.106 L1351.77 182.155 Q1347.76 183.856 1343.55 184.748 Q1339.33 185.639 1335 185.639 Q1324.14 185.639 1317.78 179.319 Q1311.46 173 1311.46 162.225 Q1311.46 151.085 1317.46 144.563 Q1323.49 138 1333.7 138 Q1342.86 138 1348.16 143.914 Q1353.51 149.788 1353.51 159.916 M1346.06 157.728 Q1345.98 151.611 1342.61 147.965 Q1339.29 144.32 1333.78 144.32 Q1327.54 144.32 1323.78 147.844 Q1320.05 151.368 1319.48 157.769 L1346.06 157.728 Z" fill="#000000" fill-rule="nonzero" fill-opacity="1" /><path clip-path="url(#clip760)" d="M1399.49 126.212 L1399.49 139.094 L1414.84 139.094 L1414.84 144.887 L1399.49 144.887 L1399.49 169.516 Q1399.49 175.066 1400.99 176.646 Q1402.53 178.226 1407.19 178.226 L1414.84 178.226 L1414.84 184.464 L1407.19 184.464 Q1398.56 184.464 1395.28 181.264 Q1391.99 178.023 1391.99 169.516 L1391.99 144.887 L1386.53 144.887 L1386.53 139.094 L1391.99 139.094 L1391.99 126.212 L1399.49 126.212 Z" fill="#000000" fill-rule="nonzero" fill-opacity="1" /><path clip-path="url(#clip760)" d="M1424.64 139.094 L1432.1 139.094 L1432.1 184.464 L1424.64 184.464 L1424.64 139.094 M1424.64 121.432 L1432.1 121.432 L1432.1 130.871 L1424.64 130.871 L1424.64 121.432 Z" fill="#000000" fill-rule="nonzero" fill-opacity="1" /><path clip-path="url(#clip760)" d="M1483.02 147.803 Q1485.81 142.78 1489.7 140.39 Q1493.59 138 1498.86 138 Q1505.95 138 1509.79 142.983 Q1513.64 147.925 1513.64 157.08 L1513.64 184.464 L1506.15 184.464 L1506.15 157.323 Q1506.15 150.801 1503.84 147.641 Q1501.53 144.482 1496.79 144.482 Q1491 144.482 1487.64 148.33 Q1484.27 152.178 1484.27 158.822 L1484.27 184.464 L1476.78 184.464 L1476.78 157.323 Q1476.78 150.76 1474.47 147.641 Q1472.16 144.482 1467.34 144.482 Q1461.63 144.482 1458.27 148.37 Q1454.9 152.219 1454.9 158.822 L1454.9 184.464 L1447.41 184.464 L1447.41 139.094 L1454.9 139.094 L1454.9 146.142 Q1457.46 141.97 1461.02 139.985 Q1464.59 138 1469.49 138 Q1474.43 138 1477.87 140.512 Q1481.36 143.023 1483.02 147.803 Z" fill="#000000" fill-rule="nonzero" fill-opacity="1" /><path clip-path="url(#clip760)" d="M1567.32 159.916 L1567.32 163.561 L1533.05 163.561 Q1533.53 171.258 1537.66 175.309 Q1541.84 179.319 1549.25 179.319 Q1553.54 179.319 1557.55 178.266 Q1561.61 177.213 1565.58 175.106 L1565.58 182.155 Q1561.57 183.856 1557.35 184.748 Q1553.14 185.639 1548.8 185.639 Q1537.95 185.639 1531.59 179.319 Q1525.27 173 1525.27 162.225 Q1525.27 151.085 1531.26 144.563 Q1537.3 138 1547.51 138 Q1556.66 138 1561.97 143.914 Q1567.32 149.788 1567.32 159.916 M1559.86 157.728 Q1559.78 151.611 1556.42 147.965 Q1553.1 144.32 1547.59 144.32 Q1541.35 144.32 1537.58 147.844 Q1533.86 151.368 1533.29 157.769 L1559.86 157.728 Z" fill="#000000" fill-rule="nonzero" fill-opacity="1" /><path clip-path="url(#clip760)" d="M1600.58 139.094 L1608.47 139.094 L1622.65 177.172 L1636.83 139.094 L1644.73 139.094 L1627.72 184.464 L1617.59 184.464 L1600.58 139.094 Z" fill="#000000" fill-rule="nonzero" fill-opacity="1" /><path clip-path="url(#clip760)" d="M1683.94 140.431 L1683.94 147.479 Q1680.78 145.859 1677.38 145.049 Q1673.98 144.239 1670.33 144.239 Q1664.78 144.239 1661.99 145.94 Q1659.23 147.641 1659.23 151.044 Q1659.23 153.637 1661.22 155.135 Q1663.2 156.594 1669.2 157.931 L1671.75 158.498 Q1679.69 160.199 1683.01 163.318 Q1686.37 166.397 1686.37 171.947 Q1686.37 178.266 1681.35 181.952 Q1676.37 185.639 1667.62 185.639 Q1663.97 185.639 1660 184.91 Q1656.07 184.221 1651.7 182.803 L1651.7 175.106 Q1655.83 177.253 1659.84 178.347 Q1663.85 179.4 1667.78 179.4 Q1673.05 179.4 1675.88 177.618 Q1678.72 175.795 1678.72 172.514 Q1678.72 169.476 1676.65 167.855 Q1674.63 166.235 1667.7 164.736 L1665.11 164.128 Q1658.18 162.67 1655.1 159.672 Q1652.02 156.634 1652.02 151.368 Q1652.02 144.968 1656.56 141.484 Q1661.1 138 1669.44 138 Q1673.57 138 1677.22 138.608 Q1680.86 139.215 1683.94 140.431 Z" fill="#000000" fill-rule="nonzero" fill-opacity="1" /><path clip-path="url(#clip760)" d="M1754.47 161.252 Q1754.47 153.151 1751.11 148.695 Q1747.79 144.239 1741.75 144.239 Q1735.75 144.239 1732.39 148.695 Q1729.07 153.151 1729.07 161.252 Q1729.07 169.314 1732.39 173.77 Q1735.75 178.226 1741.75 178.226 Q1747.79 178.226 1751.11 173.77 Q1754.47 169.314 1754.47 161.252 M1761.92 178.833 Q1761.92 190.419 1756.78 196.05 Q1751.63 201.721 1741.02 201.721 Q1737.09 201.721 1733.61 201.113 Q1730.12 200.546 1726.84 199.331 L1726.84 192.08 Q1730.12 193.862 1733.32 194.713 Q1736.52 195.563 1739.85 195.563 Q1747.18 195.563 1750.82 191.715 Q1754.47 187.907 1754.47 180.17 L1754.47 176.484 Q1752.16 180.494 1748.55 182.479 Q1744.95 184.464 1739.93 184.464 Q1731.58 184.464 1726.48 178.104 Q1721.37 171.744 1721.37 161.252 Q1721.37 150.72 1726.48 144.36 Q1731.58 138 1739.93 138 Q1744.95 138 1748.55 139.985 Q1752.16 141.97 1754.47 145.98 L1754.47 139.094 L1761.92 139.094 L1761.92 178.833 Z" fill="#000000" fill-rule="nonzero" fill-opacity="1" /><path clip-path="url(#clip760)" d="M1803.57 146.061 Q1802.31 145.332 1800.81 145.008 Q1799.35 144.644 1797.57 144.644 Q1791.25 144.644 1787.85 148.776 Q1784.49 152.867 1784.49 160.564 L1784.49 184.464 L1776.99 184.464 L1776.99 139.094 L1784.49 139.094 L1784.49 146.142 Q1786.84 142.011 1790.6 140.026 Q1794.37 138 1799.76 138 Q1800.53 138 1801.46 138.122 Q1802.39 138.203 1803.53 138.405 L1803.57 146.061 Z" fill="#000000" fill-rule="nonzero" fill-opacity="1" /><path clip-path="url(#clip760)" d="M1811.38 139.094 L1818.84 139.094 L1818.84 184.464 L1811.38 184.464 L1811.38 139.094 M1811.38 121.432 L1818.84 121.432 L1818.84 130.871 L1811.38 130.871 L1811.38 121.432 Z" fill="#000000" fill-rule="nonzero" fill-opacity="1" /><path clip-path="url(#clip760)" d="M1864.29 145.98 L1864.29 121.432 L1871.74 121.432 L1871.74 184.464 L1864.29 184.464 L1864.29 177.658 Q1861.94 181.709 1858.33 183.694 Q1854.77 185.639 1849.75 185.639 Q1841.52 185.639 1836.34 179.076 Q1831.19 172.514 1831.19 161.819 Q1831.19 151.125 1836.34 144.563 Q1841.52 138 1849.75 138 Q1854.77 138 1858.33 139.985 Q1861.94 141.93 1864.29 145.98 M1838.89 161.819 Q1838.89 170.043 1842.25 174.742 Q1845.66 179.4 1851.57 179.4 Q1857.48 179.4 1860.89 174.742 Q1864.29 170.043 1864.29 161.819 Q1864.29 153.596 1860.89 148.938 Q1857.48 144.239 1851.57 144.239 Q1845.66 144.239 1842.25 148.938 Q1838.89 153.596 1838.89 161.819 Z" fill="#000000" fill-rule="nonzero" fill-opacity="1" /><path clip-path="url(#clip760)" d="M1942.39 140.431 L1942.39 147.479 Q1939.23 145.859 1935.83 145.049 Q1932.43 144.239 1928.78 144.239 Q1923.23 144.239 1920.43 145.94 Q1917.68 147.641 1917.68 151.044 Q1917.68 153.637 1919.67 155.135 Q1921.65 156.594 1927.65 157.931 L1930.2 158.498 Q1938.14 160.199 1941.46 163.318 Q1944.82 166.397 1944.82 171.947 Q1944.82 178.266 1939.8 181.952 Q1934.82 185.639 1926.07 185.639 Q1922.42 185.639 1918.45 184.91 Q1914.52 184.221 1910.15 182.803 L1910.15 175.106 Q1914.28 177.253 1918.29 178.347 Q1922.3 179.4 1926.23 179.4 Q1931.49 179.4 1934.33 177.618 Q1937.17 175.795 1937.17 172.514 Q1937.17 169.476 1935.1 167.855 Q1933.07 166.235 1926.15 164.736 L1923.55 164.128 Q1916.63 162.67 1913.55 159.672 Q1910.47 156.634 1910.47 151.368 Q1910.47 144.968 1915.01 141.484 Q1919.54 138 1927.89 138 Q1932.02 138 1935.67 138.608 Q1939.31 139.215 1942.39 140.431 Z" fill="#000000" fill-rule="nonzero" fill-opacity="1" /><path clip-path="url(#clip760)" d="M1956.69 139.094 L1964.14 139.094 L1964.14 184.464 L1956.69 184.464 L1956.69 139.094 M1956.69 121.432 L1964.14 121.432 L1964.14 130.871 L1956.69 130.871 L1956.69 121.432 Z" fill="#000000" fill-rule="nonzero" fill-opacity="1" /><path clip-path="url(#clip760)" d="M1976.5 139.094 L2011.9 139.094 L2011.9 145.899 L1983.87 178.509 L2011.9 178.509 L2011.9 184.464 L1975.49 184.464 L1975.49 177.658 L2003.52 145.049 L1976.5 145.049 L1976.5 139.094 Z" fill="#000000" fill-rule="nonzero" fill-opacity="1" /><path clip-path="url(#clip760)" d="M2062.09 159.916 L2062.09 163.561 L2027.82 163.561 Q2028.31 171.258 2032.44 175.309 Q2036.61 179.319 2044.03 179.319 Q2048.32 179.319 2052.33 178.266 Q2056.38 177.213 2060.35 175.106 L2060.35 182.155 Q2056.34 183.856 2052.13 184.748 Q2047.92 185.639 2043.58 185.639 Q2032.73 185.639 2026.37 179.319 Q2020.05 173 2020.05 162.225 Q2020.05 151.085 2026.04 144.563 Q2032.08 138 2042.29 138 Q2051.44 138 2056.75 143.914 Q2062.09 149.788 2062.09 159.916 M2054.64 157.728 Q2054.56 151.611 2051.2 147.965 Q2047.88 144.32 2042.37 144.32 Q2036.13 144.32 2032.36 147.844 Q2028.63 151.368 2028.07 157.769 L2054.64 157.728 Z" fill="#000000" fill-rule="nonzero" fill-opacity="1" /><path clip-path="url(#clip760)" d="M2118.61 121.513 Q2113.18 130.83 2110.54 139.945 Q2107.91 149.059 2107.91 158.417 Q2107.91 167.774 2110.54 176.97 Q2113.22 186.125 2118.61 195.401 L2112.12 195.401 Q2106.05 185.882 2103.01 176.686 Q2100.01 167.491 2100.01 158.417 Q2100.01 149.383 2103.01 140.228 Q2106.01 131.073 2112.12 121.513 L2118.61 121.513 Z" fill="#000000" fill-rule="nonzero" fill-opacity="1" /><path clip-path="url(#clip760)" d="M2165.64 161.819 Q2165.64 153.596 2162.23 148.938 Q2158.87 144.239 2152.96 144.239 Q2147.04 144.239 2143.64 148.938 Q2140.28 153.596 2140.28 161.819 Q2140.28 170.043 2143.64 174.742 Q2147.04 179.4 2152.96 179.4 Q2158.87 179.4 2162.23 174.742 Q2165.64 170.043 2165.64 161.819 M2140.28 145.98 Q2142.63 141.93 2146.19 139.985 Q2149.8 138 2154.78 138 Q2163.04 138 2168.19 144.563 Q2173.37 151.125 2173.37 161.819 Q2173.37 172.514 2168.19 179.076 Q2163.04 185.639 2154.78 185.639 Q2149.8 185.639 2146.19 183.694 Q2142.63 181.709 2140.28 177.658 L2140.28 184.464 L2132.78 184.464 L2132.78 121.432 L2140.28 121.432 L2140.28 145.98 Z" fill="#000000" fill-rule="nonzero" fill-opacity="1" /><path clip-path="url(#clip760)" d="M2206.35 161.657 Q2197.31 161.657 2193.83 163.723 Q2190.35 165.789 2190.35 170.772 Q2190.35 174.742 2192.94 177.091 Q2195.57 179.4 2200.07 179.4 Q2206.27 179.4 2209.99 175.025 Q2213.76 170.61 2213.76 163.318 L2213.76 161.657 L2206.35 161.657 M2221.21 158.579 L2221.21 184.464 L2213.76 184.464 L2213.76 177.577 Q2211.21 181.709 2207.4 183.694 Q2203.59 185.639 2198.08 185.639 Q2191.12 185.639 2186.98 181.75 Q2182.89 177.821 2182.89 171.258 Q2182.89 163.602 2188 159.713 Q2193.14 155.824 2203.31 155.824 L2213.76 155.824 L2213.76 155.095 Q2213.76 149.95 2210.36 147.155 Q2207 144.32 2200.88 144.32 Q2196.99 144.32 2193.3 145.251 Q2189.62 146.183 2186.21 148.046 L2186.21 141.16 Q2190.31 139.58 2194.15 138.81 Q2198 138 2201.65 138 Q2211.49 138 2216.35 143.104 Q2221.21 148.208 2221.21 158.579 Z" fill="#000000" fill-rule="nonzero" fill-opacity="1" /><path clip-path="url(#clip760)" d="M2262.86 146.061 Q2261.6 145.332 2260.1 145.008 Q2258.64 144.644 2256.86 144.644 Q2250.54 144.644 2247.14 148.776 Q2243.78 152.867 2243.78 160.564 L2243.78 184.464 L2236.28 184.464 L2236.28 139.094 L2243.78 139.094 L2243.78 146.142 Q2246.13 142.011 2249.89 140.026 Q2253.66 138 2259.05 138 Q2259.82 138 2260.75 138.122 Q2261.68 138.203 2262.82 138.405 L2262.86 146.061 Z" fill="#000000" fill-rule="nonzero" fill-opacity="1" /><path clip-path="url(#clip760)" d="M2269.5 121.513 L2275.98 121.513 Q2282.06 131.073 2285.06 140.228 Q2288.09 149.383 2288.09 158.417 Q2288.09 167.491 2285.06 176.686 Q2282.06 185.882 2275.98 195.401 L2269.5 195.401 Q2274.89 186.125 2277.52 176.97 Q2280.2 167.774 2280.2 158.417 Q2280.2 149.059 2277.52 139.945 Q2274.89 130.83 2269.5 121.513 Z" fill="#000000" fill-rule="nonzero" fill-opacity="1" /><path clip-path="url(#clip760)" d="M2325.65 158.822 L2400.51 158.822 L2400.51 164.655 L2325.65 164.655 L2325.65 158.822 Z" fill="#000000" fill-rule="nonzero" fill-opacity="1" /><path clip-path="url(#clip760)" d="M2465.04 146.061 Q2463.78 145.332 2462.28 145.008 Q2460.83 144.644 2459.04 144.644 Q2452.72 144.644 2449.32 148.776 Q2445.96 152.867 2445.96 160.564 L2445.96 184.464 L2438.46 184.464 L2438.46 139.094 L2445.96 139.094 L2445.96 146.142 Q2448.31 142.011 2452.08 140.026 Q2455.84 138 2461.23 138 Q2462 138 2462.93 138.122 Q2463.86 138.203 2465 138.405 L2465.04 146.061 Z" fill="#000000" fill-rule="nonzero" fill-opacity="1" /><path clip-path="url(#clip760)" d="M2488.61 144.32 Q2482.62 144.32 2479.14 149.019 Q2475.65 153.677 2475.65 161.819 Q2475.65 169.962 2479.09 174.661 Q2482.58 179.319 2488.61 179.319 Q2494.57 179.319 2498.05 174.62 Q2501.54 169.921 2501.54 161.819 Q2501.54 153.758 2498.05 149.059 Q2494.57 144.32 2488.61 144.32 M2488.61 138 Q2498.34 138 2503.89 144.32 Q2509.44 150.639 2509.44 161.819 Q2509.44 172.959 2503.89 179.319 Q2498.34 185.639 2488.61 185.639 Q2478.85 185.639 2473.3 179.319 Q2467.79 172.959 2467.79 161.819 Q2467.79 150.639 2473.3 144.32 Q2478.85 138 2488.61 138 Z" fill="#000000" fill-rule="nonzero" fill-opacity="1" /><path clip-path="url(#clip760)" d="M2554.36 161.819 Q2554.36 153.596 2550.96 148.938 Q2547.6 144.239 2541.68 144.239 Q2535.77 144.239 2532.36 148.938 Q2529 153.596 2529 161.819 Q2529 170.043 2532.36 174.742 Q2535.77 179.4 2541.68 179.4 Q2547.6 179.4 2550.96 174.742 Q2554.36 170.043 2554.36 161.819 M2529 145.98 Q2531.35 141.93 2534.92 139.985 Q2538.52 138 2543.5 138 Q2551.77 138 2556.91 144.563 Q2562.1 151.125 2562.1 161.819 Q2562.1 172.514 2556.91 179.076 Q2551.77 185.639 2543.5 185.639 Q2538.52 185.639 2534.92 183.694 Q2531.35 181.709 2529 177.658 L2529 184.464 L2521.51 184.464 L2521.51 121.432 L2529 121.432 L2529 145.98 Z" fill="#000000" fill-rule="nonzero" fill-opacity="1" /><path clip-path="url(#clip760)" d="M2607.02 161.819 Q2607.02 153.596 2603.62 148.938 Q2600.26 144.239 2594.34 144.239 Q2588.43 144.239 2585.03 148.938 Q2581.66 153.596 2581.66 161.819 Q2581.66 170.043 2585.03 174.742 Q2588.43 179.4 2594.34 179.4 Q2600.26 179.4 2603.62 174.742 Q2607.02 170.043 2607.02 161.819 M2581.66 145.98 Q2584.01 141.93 2587.58 139.985 Q2591.18 138 2596.17 138 Q2604.43 138 2609.57 144.563 Q2614.76 151.125 2614.76 161.819 Q2614.76 172.514 2609.57 179.076 Q2604.43 185.639 2596.17 185.639 Q2591.18 185.639 2587.58 183.694 Q2584.01 181.709 2581.66 177.658 L2581.66 184.464 L2574.17 184.464 L2574.17 121.432 L2581.66 121.432 L2581.66 145.98 Z" fill="#000000" fill-rule="nonzero" fill-opacity="1" /><path clip-path="url(#clip760)" d="M2627.12 139.094 L2634.57 139.094 L2634.57 184.464 L2627.12 184.464 L2627.12 139.094 M2627.12 121.432 L2634.57 121.432 L2634.57 130.871 L2627.12 130.871 L2627.12 121.432 Z" fill="#000000" fill-rule="nonzero" fill-opacity="1" /><path clip-path="url(#clip760)" d="M2687.88 157.08 L2687.88 184.464 L2680.42 184.464 L2680.42 157.323 Q2680.42 150.882 2677.91 147.682 Q2675.4 144.482 2670.38 144.482 Q2664.34 144.482 2660.86 148.33 Q2657.38 152.178 2657.38 158.822 L2657.38 184.464 L2649.88 184.464 L2649.88 139.094 L2657.38 139.094 L2657.38 146.142 Q2660.05 142.051 2663.65 140.026 Q2667.3 138 2672.04 138 Q2679.86 138 2683.87 142.861 Q2687.88 147.682 2687.88 157.08 Z" fill="#000000" fill-rule="nonzero" fill-opacity="1" /><path clip-path="url(#clip760)" d="M2731.67 140.431 L2731.67 147.479 Q2728.51 145.859 2725.11 145.049 Q2721.7 144.239 2718.06 144.239 Q2712.51 144.239 2709.71 145.94 Q2706.96 147.641 2706.96 151.044 Q2706.96 153.637 2708.94 155.135 Q2710.93 156.594 2716.92 157.931 L2719.48 158.498 Q2727.42 160.199 2730.74 163.318 Q2734.1 166.397 2734.1 171.947 Q2734.1 178.266 2729.08 181.952 Q2724.09 185.639 2715.34 185.639 Q2711.7 185.639 2707.73 184.91 Q2703.8 184.221 2699.42 182.803 L2699.42 175.106 Q2703.56 177.253 2707.57 178.347 Q2711.58 179.4 2715.51 179.4 Q2720.77 179.4 2723.61 177.618 Q2726.44 175.795 2726.44 172.514 Q2726.44 169.476 2724.38 167.855 Q2722.35 166.235 2715.42 164.736 L2712.83 164.128 Q2705.91 162.67 2702.83 159.672 Q2699.75 156.634 2699.75 151.368 Q2699.75 144.968 2704.28 141.484 Q2708.82 138 2717.17 138 Q2721.3 138 2724.94 138.608 Q2728.59 139.215 2731.67 140.431 Z" fill="#000000" fill-rule="nonzero" fill-opacity="1" /><path clip-path="url(#clip762)" d="M492.652 2108.1 L492.652 2156.51 L564.493 2156.51 L564.493 2108.1 L492.652 2108.1 L492.652 2108.1  Z" fill="#ffa500" fill-rule="evenodd" fill-opacity="1"/>
<polyline clip-path="url(#clip762)" style="stroke:#000000; stroke-linecap:round; stroke-linejoin:round; stroke-width:0; stroke-opacity:0; fill:none" points="492.652,2108.1 492.652,2156.51 564.493,2156.51 564.493,2108.1 492.652,2108.1 "/>
<path clip-path="url(#clip762)" d="M1390.66 1750.28 L1390.66 2156.51 L1462.5 2156.51 L1462.5 1750.28 L1390.66 1750.28 L1390.66 1750.28  Z" fill="#ffa500" fill-rule="evenodd" fill-opacity="1"/>
<polyline clip-path="url(#clip762)" style="stroke:#000000; stroke-linecap:round; stroke-linejoin:round; stroke-width:0; stroke-opacity:0; fill:none" points="1390.66,1750.28 1390.66,2156.51 1462.5,2156.51 1462.5,1750.28 1390.66,1750.28 "/>
<path clip-path="url(#clip762)" d="M2288.66 1477.77 L2288.66 2156.51 L2360.5 2156.51 L2360.5 1477.77 L2288.66 1477.77 L2288.66 1477.77  Z" fill="#ffa500" fill-rule="evenodd" fill-opacity="1"/>
<polyline clip-path="url(#clip762)" style="stroke:#000000; stroke-linecap:round; stroke-linejoin:round; stroke-width:0; stroke-opacity:0; fill:none" points="2288.66,1477.77 2288.66,2156.51 2360.5,2156.51 2360.5,1477.77 2288.66,1477.77 "/>
<path clip-path="url(#clip762)" d="M3186.66 246.944 L3186.66 2156.51 L3258.5 2156.51 L3258.5 246.944 L3186.66 246.944 L3186.66 246.944  Z" fill="#ffa500" fill-rule="evenodd" fill-opacity="1"/>
<polyline clip-path="url(#clip762)" style="stroke:#000000; stroke-linecap:round; stroke-linejoin:round; stroke-width:0; stroke-opacity:0; fill:none" points="3186.66,246.944 3186.66,2156.51 3258.5,2156.51 3258.5,246.944 3186.66,246.944 "/>
<circle clip-path="url(#clip762)" style="fill:#ffa500; stroke:none; fill-opacity:0" cx="528.572" cy="2108.1" r="2"/>
<circle clip-path="url(#clip762)" style="fill:#ffa500; stroke:none; fill-opacity:0" cx="1426.58" cy="1750.28" r="2"/>
<circle clip-path="url(#clip762)" style="fill:#ffa500; stroke:none; fill-opacity:0" cx="2324.58" cy="1477.77" r="2"/>
<circle clip-path="url(#clip762)" style="fill:#ffa500; stroke:none; fill-opacity:0" cx="3222.58" cy="246.944" r="2"/>
<path clip-path="url(#clip762)" d="M612.386 2096.99 L612.386 2156.51 L684.226 2156.51 L684.226 2096.99 L612.386 2096.99 L612.386 2096.99  Z" fill="#00ffff" fill-rule="evenodd" fill-opacity="1"/>
<polyline clip-path="url(#clip762)" style="stroke:#000000; stroke-linecap:round; stroke-linejoin:round; stroke-width:0; stroke-opacity:0; fill:none" points="612.386,2096.99 612.386,2156.51 684.226,2156.51 684.226,2096.99 612.386,2096.99 "/>
<path clip-path="url(#clip762)" d="M1510.39 2076.95 L1510.39 2156.51 L1582.23 2156.51 L1582.23 2076.95 L1510.39 2076.95 L1510.39 2076.95  Z" fill="#00ffff" fill-rule="evenodd" fill-opacity="1"/>
<polyline clip-path="url(#clip762)" style="stroke:#000000; stroke-linecap:round; stroke-linejoin:round; stroke-width:0; stroke-opacity:0; fill:none" points="1510.39,2076.95 1510.39,2156.51 1582.23,2156.51 1582.23,2076.95 1510.39,2076.95 "/>
<path clip-path="url(#clip762)" d="M2408.39 1984.26 L2408.39 2156.51 L2480.23 2156.51 L2480.23 1984.26 L2408.39 1984.26 L2408.39 1984.26  Z" fill="#00ffff" fill-rule="evenodd" fill-opacity="1"/>
<polyline clip-path="url(#clip762)" style="stroke:#000000; stroke-linecap:round; stroke-linejoin:round; stroke-width:0; stroke-opacity:0; fill:none" points="2408.39,1984.26 2408.39,2156.51 2480.23,2156.51 2480.23,1984.26 2408.39,1984.26 "/>
<path clip-path="url(#clip762)" d="M3306.39 1953.94 L3306.39 2156.51 L3378.23 2156.51 L3378.23 1953.94 L3306.39 1953.94 L3306.39 1953.94  Z" fill="#00ffff" fill-rule="evenodd" fill-opacity="1"/>
<polyline clip-path="url(#clip762)" style="stroke:#000000; stroke-linecap:round; stroke-linejoin:round; stroke-width:0; stroke-opacity:0; fill:none" points="3306.39,1953.94 3306.39,2156.51 3378.23,2156.51 3378.23,1953.94 3306.39,1953.94 "/>
<circle clip-path="url(#clip762)" style="fill:#00ffff; stroke:none; fill-opacity:0" cx="648.306" cy="2096.99" r="2"/>
<circle clip-path="url(#clip762)" style="fill:#00ffff; stroke:none; fill-opacity:0" cx="1546.31" cy="2076.95" r="2"/>
<circle clip-path="url(#clip762)" style="fill:#00ffff; stroke:none; fill-opacity:0" cx="2444.31" cy="1984.26" r="2"/>
<circle clip-path="url(#clip762)" style="fill:#00ffff; stroke:none; fill-opacity:0" cx="3342.31" cy="1953.94" r="2"/>
<path clip-path="url(#clip760)" d="M425.952 466.116 L1186.4 466.116 L1186.4 310.596 L425.952 310.596  Z" fill="#ffffff" fill-rule="evenodd" fill-opacity="1"/>
<polyline clip-path="url(#clip760)" style="stroke:#000000; stroke-linecap:round; stroke-linejoin:round; stroke-width:4; stroke-opacity:1; fill:none" points="425.952,466.116 1186.4,466.116 1186.4,310.596 425.952,310.596 425.952,466.116 "/>
<path clip-path="url(#clip760)" d="M461.892 383.172 L677.534 383.172 L677.534 341.7 L461.892 341.7 L461.892 383.172  Z" fill="#ffa500" fill-rule="evenodd" fill-opacity="1"/>
<polyline clip-path="url(#clip760)" style="stroke:#000000; stroke-linecap:round; stroke-linejoin:round; stroke-width:0.8; stroke-opacity:0; fill:none" points="461.892,383.172 677.534,383.172 677.534,341.7 461.892,341.7 461.892,383.172 "/>
<path clip-path="url(#clip760)" d="M724.099 343.744 Q720.997 349.068 719.492 354.277 Q717.988 359.485 717.988 364.832 Q717.988 370.179 719.492 375.434 Q721.02 380.665 724.099 385.966 L720.395 385.966 Q716.923 380.527 715.187 375.272 Q713.474 370.017 713.474 364.832 Q713.474 359.67 715.187 354.439 Q716.9 349.207 720.395 343.744 L724.099 343.744 Z" fill="#000000" fill-rule="nonzero" fill-opacity="1" /><path clip-path="url(#clip760)" d="M754.538 365.689 L754.538 367.772 L734.955 367.772 Q735.233 372.17 737.594 374.485 Q739.978 376.777 744.214 376.777 Q746.668 376.777 748.96 376.175 Q751.275 375.573 753.543 374.369 L753.543 378.397 Q751.251 379.369 748.844 379.878 Q746.437 380.388 743.96 380.388 Q737.756 380.388 734.122 376.777 Q730.511 373.165 730.511 367.008 Q730.511 360.642 733.937 356.916 Q737.386 353.166 743.219 353.166 Q748.451 353.166 751.483 356.545 Q754.538 359.902 754.538 365.689 M750.279 364.439 Q750.233 360.943 748.312 358.86 Q746.414 356.777 743.265 356.777 Q739.701 356.777 737.548 358.791 Q735.418 360.804 735.094 364.462 L750.279 364.439 Z" fill="#000000" fill-rule="nonzero" fill-opacity="1" /><path clip-path="url(#clip760)" d="M782.247 353.791 L772.872 366.406 L782.733 379.716 L777.71 379.716 L770.163 369.531 L762.617 379.716 L757.594 379.716 L767.663 366.152 L758.451 353.791 L763.474 353.791 L770.349 363.027 L777.224 353.791 L782.247 353.791 Z" fill="#000000" fill-rule="nonzero" fill-opacity="1" /><path clip-path="url(#clip760)" d="M800.534 366.684 Q795.372 366.684 793.381 367.865 Q791.39 369.045 791.39 371.892 Q791.39 374.161 792.872 375.503 Q794.376 376.823 796.946 376.823 Q800.487 376.823 802.617 374.323 Q804.77 371.8 804.77 367.633 L804.77 366.684 L800.534 366.684 M809.029 364.925 L809.029 379.716 L804.77 379.716 L804.77 375.781 Q803.311 378.142 801.135 379.277 Q798.96 380.388 795.811 380.388 Q791.83 380.388 789.469 378.165 Q787.131 375.92 787.131 372.17 Q787.131 367.795 790.048 365.573 Q792.987 363.351 798.798 363.351 L804.77 363.351 L804.77 362.934 Q804.77 359.994 802.825 358.397 Q800.904 356.777 797.409 356.777 Q795.186 356.777 793.08 357.309 Q790.973 357.841 789.029 358.906 L789.029 354.971 Q791.367 354.068 793.566 353.629 Q795.765 353.166 797.848 353.166 Q803.473 353.166 806.251 356.082 Q809.029 358.999 809.029 364.925 Z" fill="#000000" fill-rule="nonzero" fill-opacity="1" /><path clip-path="url(#clip760)" d="M818.89 373.837 L823.774 373.837 L823.774 377.818 L819.978 385.226 L816.992 385.226 L818.89 377.818 L818.89 373.837 Z" fill="#000000" fill-rule="nonzero" fill-opacity="1" /><path clip-path="url(#clip760)" d="M868.126 358.767 Q869.723 355.897 871.945 354.531 Q874.167 353.166 877.177 353.166 Q881.228 353.166 883.427 356.013 Q885.626 358.837 885.626 364.068 L885.626 379.716 L881.343 379.716 L881.343 364.207 Q881.343 360.48 880.024 358.675 Q878.704 356.869 875.996 356.869 Q872.686 356.869 870.765 359.068 Q868.843 361.267 868.843 365.064 L868.843 379.716 L864.561 379.716 L864.561 364.207 Q864.561 360.457 863.242 358.675 Q861.922 356.869 859.168 356.869 Q855.904 356.869 853.982 359.091 Q852.061 361.291 852.061 365.064 L852.061 379.716 L847.779 379.716 L847.779 353.791 L852.061 353.791 L852.061 357.818 Q853.519 355.434 855.556 354.3 Q857.593 353.166 860.394 353.166 Q863.218 353.166 865.186 354.601 Q867.177 356.036 868.126 358.767 Z" fill="#000000" fill-rule="nonzero" fill-opacity="1" /><path clip-path="url(#clip760)" d="M905.903 366.684 Q900.741 366.684 898.751 367.865 Q896.76 369.045 896.76 371.892 Q896.76 374.161 898.241 375.503 Q899.746 376.823 902.315 376.823 Q905.857 376.823 907.987 374.323 Q910.14 371.8 910.14 367.633 L910.14 366.684 L905.903 366.684 M914.399 364.925 L914.399 379.716 L910.14 379.716 L910.14 375.781 Q908.681 378.142 906.505 379.277 Q904.329 380.388 901.181 380.388 Q897.2 380.388 894.839 378.165 Q892.501 375.92 892.501 372.17 Q892.501 367.795 895.417 365.573 Q898.357 363.351 904.167 363.351 L910.14 363.351 L910.14 362.934 Q910.14 359.994 908.195 358.397 Q906.274 356.777 902.778 356.777 Q900.556 356.777 898.45 357.309 Q896.343 357.841 894.399 358.906 L894.399 354.971 Q896.737 354.068 898.936 353.629 Q901.135 353.166 903.218 353.166 Q908.843 353.166 911.621 356.082 Q914.399 358.999 914.399 364.925 Z" fill="#000000" fill-rule="nonzero" fill-opacity="1" /><path clip-path="url(#clip760)" d="M940.232 357.726 L940.232 343.698 L944.491 343.698 L944.491 379.716 L940.232 379.716 L940.232 375.827 Q938.889 378.142 936.829 379.277 Q934.792 380.388 931.922 380.388 Q927.223 380.388 924.26 376.638 Q921.32 372.888 921.32 366.777 Q921.32 360.666 924.26 356.916 Q927.223 353.166 931.922 353.166 Q934.792 353.166 936.829 354.3 Q938.889 355.411 940.232 357.726 M925.718 366.777 Q925.718 371.476 927.639 374.161 Q929.584 376.823 932.963 376.823 Q936.343 376.823 938.288 374.161 Q940.232 371.476 940.232 366.777 Q940.232 362.078 938.288 359.416 Q936.343 356.73 932.963 356.73 Q929.584 356.73 927.639 359.416 Q925.718 362.078 925.718 366.777 Z" fill="#000000" fill-rule="nonzero" fill-opacity="1" /><path clip-path="url(#clip760)" d="M974.815 364.068 L974.815 379.716 L970.556 379.716 L970.556 364.207 Q970.556 360.527 969.121 358.698 Q967.686 356.869 964.815 356.869 Q961.366 356.869 959.375 359.068 Q957.385 361.267 957.385 365.064 L957.385 379.716 L953.102 379.716 L953.102 353.791 L957.385 353.791 L957.385 357.818 Q958.912 355.48 960.973 354.323 Q963.056 353.166 965.764 353.166 Q970.232 353.166 972.523 355.943 Q974.815 358.698 974.815 364.068 Z" fill="#000000" fill-rule="nonzero" fill-opacity="1" /><path clip-path="url(#clip760)" d="M983.31 343.698 L987.57 343.698 L987.57 379.716 L983.31 379.716 L983.31 343.698 Z" fill="#000000" fill-rule="nonzero" fill-opacity="1" /><path clip-path="url(#clip760)" d="M1000.6 375.827 L1000.6 389.577 L996.32 389.577 L996.32 353.791 L1000.6 353.791 L1000.6 357.726 Q1001.94 355.411 1003.98 354.3 Q1006.04 353.166 1008.89 353.166 Q1013.61 353.166 1016.55 356.916 Q1019.51 360.666 1019.51 366.777 Q1019.51 372.888 1016.55 376.638 Q1013.61 380.388 1008.89 380.388 Q1006.04 380.388 1003.98 379.277 Q1001.94 378.142 1000.6 375.827 M1015.09 366.777 Q1015.09 362.078 1013.15 359.416 Q1011.23 356.73 1007.85 356.73 Q1004.47 356.73 1002.52 359.416 Q1000.6 362.078 1000.6 366.777 Q1000.6 371.476 1002.52 374.161 Q1004.47 376.823 1007.85 376.823 Q1011.23 376.823 1013.15 374.161 Q1015.09 371.476 1015.09 366.777 Z" fill="#000000" fill-rule="nonzero" fill-opacity="1" /><path clip-path="url(#clip760)" d="M1025.9 343.744 L1029.61 343.744 Q1033.08 349.207 1034.79 354.439 Q1036.53 359.67 1036.53 364.832 Q1036.53 370.017 1034.79 375.272 Q1033.08 380.527 1029.61 385.966 L1025.9 385.966 Q1028.98 380.665 1030.49 375.434 Q1032.01 370.179 1032.01 364.832 Q1032.01 359.485 1030.49 354.277 Q1028.98 349.068 1025.9 343.744 Z" fill="#000000" fill-rule="nonzero" fill-opacity="1" /><path clip-path="url(#clip760)" d="M461.892 435.012 L677.534 435.012 L677.534 393.54 L461.892 393.54 L461.892 435.012  Z" fill="#00ffff" fill-rule="evenodd" fill-opacity="1"/>
<polyline clip-path="url(#clip760)" style="stroke:#000000; stroke-linecap:round; stroke-linejoin:round; stroke-width:0.8; stroke-opacity:0; fill:none" points="461.892,435.012 677.534,435.012 677.534,393.54 461.892,393.54 461.892,435.012 "/>
<path clip-path="url(#clip760)" d="M724.099 395.584 Q720.997 400.908 719.492 406.117 Q717.988 411.325 717.988 416.672 Q717.988 422.019 719.492 427.274 Q721.02 432.505 724.099 437.806 L720.395 437.806 Q716.923 432.367 715.187 427.112 Q713.474 421.857 713.474 416.672 Q713.474 411.51 715.187 406.279 Q716.9 401.047 720.395 395.584 L724.099 395.584 Z" fill="#000000" fill-rule="nonzero" fill-opacity="1" /><path clip-path="url(#clip760)" d="M754.538 417.529 L754.538 419.612 L734.955 419.612 Q735.233 424.01 737.594 426.325 Q739.978 428.617 744.214 428.617 Q746.668 428.617 748.96 428.015 Q751.275 427.413 753.543 426.209 L753.543 430.237 Q751.251 431.209 748.844 431.718 Q746.437 432.228 743.96 432.228 Q737.756 432.228 734.122 428.617 Q730.511 425.005 730.511 418.848 Q730.511 412.482 733.937 408.756 Q737.386 405.006 743.219 405.006 Q748.451 405.006 751.483 408.385 Q754.538 411.742 754.538 417.529 M750.279 416.279 Q750.233 412.783 748.312 410.7 Q746.414 408.617 743.265 408.617 Q739.701 408.617 737.548 410.631 Q735.418 412.644 735.094 416.302 L750.279 416.279 Z" fill="#000000" fill-rule="nonzero" fill-opacity="1" /><path clip-path="url(#clip760)" d="M782.247 405.631 L772.872 418.246 L782.733 431.556 L777.71 431.556 L770.163 421.371 L762.617 431.556 L757.594 431.556 L767.663 417.992 L758.451 405.631 L763.474 405.631 L770.349 414.867 L777.224 405.631 L782.247 405.631 Z" fill="#000000" fill-rule="nonzero" fill-opacity="1" /><path clip-path="url(#clip760)" d="M800.534 418.524 Q795.372 418.524 793.381 419.705 Q791.39 420.885 791.39 423.732 Q791.39 426.001 792.872 427.343 Q794.376 428.663 796.946 428.663 Q800.487 428.663 802.617 426.163 Q804.77 423.64 804.77 419.473 L804.77 418.524 L800.534 418.524 M809.029 416.765 L809.029 431.556 L804.77 431.556 L804.77 427.621 Q803.311 429.982 801.135 431.117 Q798.96 432.228 795.811 432.228 Q791.83 432.228 789.469 430.005 Q787.131 427.76 787.131 424.01 Q787.131 419.635 790.048 417.413 Q792.987 415.191 798.798 415.191 L804.77 415.191 L804.77 414.774 Q804.77 411.834 802.825 410.237 Q800.904 408.617 797.409 408.617 Q795.186 408.617 793.08 409.149 Q790.973 409.681 789.029 410.746 L789.029 406.811 Q791.367 405.908 793.566 405.469 Q795.765 405.006 797.848 405.006 Q803.473 405.006 806.251 407.922 Q809.029 410.839 809.029 416.765 Z" fill="#000000" fill-rule="nonzero" fill-opacity="1" /><path clip-path="url(#clip760)" d="M837.501 439.427 L837.501 442.737 L812.872 442.737 L812.872 439.427 L837.501 439.427 Z" fill="#000000" fill-rule="nonzero" fill-opacity="1" /><path clip-path="url(#clip760)" d="M858.566 418.293 Q858.566 413.663 856.644 411.117 Q854.746 408.57 851.297 408.57 Q847.871 408.57 845.95 411.117 Q844.052 413.663 844.052 418.293 Q844.052 422.899 845.95 425.445 Q847.871 427.992 851.297 427.992 Q854.746 427.992 856.644 425.445 Q858.566 422.899 858.566 418.293 M862.825 428.339 Q862.825 434.959 859.885 438.177 Q856.945 441.417 850.881 441.417 Q848.635 441.417 846.644 441.07 Q844.654 440.746 842.779 440.052 L842.779 435.908 Q844.654 436.927 846.482 437.413 Q848.311 437.899 850.209 437.899 Q854.399 437.899 856.482 435.7 Q858.566 433.524 858.566 429.103 L858.566 426.996 Q857.246 429.288 855.186 430.422 Q853.126 431.556 850.256 431.556 Q845.487 431.556 842.57 427.922 Q839.654 424.288 839.654 418.293 Q839.654 412.274 842.57 408.64 Q845.487 405.006 850.256 405.006 Q853.126 405.006 855.186 406.14 Q857.246 407.274 858.566 409.566 L858.566 405.631 L862.825 405.631 L862.825 428.339 Z" fill="#000000" fill-rule="nonzero" fill-opacity="1" /><path clip-path="url(#clip760)" d="M875.718 427.667 L875.718 441.417 L871.436 441.417 L871.436 405.631 L875.718 405.631 L875.718 409.566 Q877.061 407.251 879.098 406.14 Q881.158 405.006 884.005 405.006 Q888.728 405.006 891.667 408.756 Q894.63 412.506 894.63 418.617 Q894.63 424.728 891.667 428.478 Q888.728 432.228 884.005 432.228 Q881.158 432.228 879.098 431.117 Q877.061 429.982 875.718 427.667 M890.209 418.617 Q890.209 413.918 888.265 411.256 Q886.343 408.57 882.964 408.57 Q879.584 408.57 877.64 411.256 Q875.718 413.918 875.718 418.617 Q875.718 423.316 877.64 426.001 Q879.584 428.663 882.964 428.663 Q886.343 428.663 888.265 426.001 Q890.209 423.316 890.209 418.617 Z" fill="#000000" fill-rule="nonzero" fill-opacity="1" /><path clip-path="url(#clip760)" d="M901.251 421.325 L901.251 405.631 L905.51 405.631 L905.51 421.163 Q905.51 424.843 906.945 426.695 Q908.38 428.524 911.251 428.524 Q914.7 428.524 916.69 426.325 Q918.704 424.126 918.704 420.33 L918.704 405.631 L922.964 405.631 L922.964 431.556 L918.704 431.556 L918.704 427.575 Q917.153 429.936 915.093 431.093 Q913.056 432.228 910.348 432.228 Q905.88 432.228 903.565 429.45 Q901.251 426.672 901.251 421.325 M911.968 405.006 L911.968 405.006 Z" fill="#000000" fill-rule="nonzero" fill-opacity="1" /><path clip-path="url(#clip760)" d="M932.825 425.677 L937.709 425.677 L937.709 429.658 L933.913 437.066 L930.926 437.066 L932.825 429.658 L932.825 425.677 Z" fill="#000000" fill-rule="nonzero" fill-opacity="1" /><path clip-path="url(#clip760)" d="M982.06 410.607 Q983.658 407.737 985.88 406.371 Q988.102 405.006 991.111 405.006 Q995.162 405.006 997.361 407.853 Q999.56 410.677 999.56 415.908 L999.56 431.556 L995.278 431.556 L995.278 416.047 Q995.278 412.32 993.959 410.515 Q992.639 408.709 989.931 408.709 Q986.621 408.709 984.699 410.908 Q982.778 413.107 982.778 416.904 L982.778 431.556 L978.496 431.556 L978.496 416.047 Q978.496 412.297 977.176 410.515 Q975.857 408.709 973.102 408.709 Q969.838 408.709 967.917 410.931 Q965.996 413.131 965.996 416.904 L965.996 431.556 L961.713 431.556 L961.713 405.631 L965.996 405.631 L965.996 409.658 Q967.454 407.274 969.491 406.14 Q971.528 405.006 974.329 405.006 Q977.153 405.006 979.121 406.441 Q981.111 407.876 982.06 410.607 Z" fill="#000000" fill-rule="nonzero" fill-opacity="1" /><path clip-path="url(#clip760)" d="M1019.84 418.524 Q1014.68 418.524 1012.69 419.705 Q1010.69 420.885 1010.69 423.732 Q1010.69 426.001 1012.18 427.343 Q1013.68 428.663 1016.25 428.663 Q1019.79 428.663 1021.92 426.163 Q1024.07 423.64 1024.07 419.473 L1024.07 418.524 L1019.84 418.524 M1028.33 416.765 L1028.33 431.556 L1024.07 431.556 L1024.07 427.621 Q1022.62 429.982 1020.44 431.117 Q1018.26 432.228 1015.12 432.228 Q1011.13 432.228 1008.77 430.005 Q1006.44 427.76 1006.44 424.01 Q1006.44 419.635 1009.35 417.413 Q1012.29 415.191 1018.1 415.191 L1024.07 415.191 L1024.07 414.774 Q1024.07 411.834 1022.13 410.237 Q1020.21 408.617 1016.71 408.617 Q1014.49 408.617 1012.38 409.149 Q1010.28 409.681 1008.33 410.746 L1008.33 406.811 Q1010.67 405.908 1012.87 405.469 Q1015.07 405.006 1017.15 405.006 Q1022.78 405.006 1025.56 407.922 Q1028.33 410.839 1028.33 416.765 Z" fill="#000000" fill-rule="nonzero" fill-opacity="1" /><path clip-path="url(#clip760)" d="M1054.17 409.566 L1054.17 395.538 L1058.43 395.538 L1058.43 431.556 L1054.17 431.556 L1054.17 427.667 Q1052.82 429.982 1050.76 431.117 Q1048.73 432.228 1045.86 432.228 Q1041.16 432.228 1038.19 428.478 Q1035.25 424.728 1035.25 418.617 Q1035.25 412.506 1038.19 408.756 Q1041.16 405.006 1045.86 405.006 Q1048.73 405.006 1050.76 406.14 Q1052.82 407.251 1054.17 409.566 M1039.65 418.617 Q1039.65 423.316 1041.57 426.001 Q1043.52 428.663 1046.9 428.663 Q1050.28 428.663 1052.22 426.001 Q1054.17 423.316 1054.17 418.617 Q1054.17 413.918 1052.22 411.256 Q1050.28 408.57 1046.9 408.57 Q1043.52 408.57 1041.57 411.256 Q1039.65 413.918 1039.65 418.617 Z" fill="#000000" fill-rule="nonzero" fill-opacity="1" /><path clip-path="url(#clip760)" d="M1088.75 415.908 L1088.75 431.556 L1084.49 431.556 L1084.49 416.047 Q1084.49 412.367 1083.06 410.538 Q1081.62 408.709 1078.75 408.709 Q1075.3 408.709 1073.31 410.908 Q1071.32 413.107 1071.32 416.904 L1071.32 431.556 L1067.04 431.556 L1067.04 405.631 L1071.32 405.631 L1071.32 409.658 Q1072.85 407.32 1074.91 406.163 Q1076.99 405.006 1079.7 405.006 Q1084.17 405.006 1086.46 407.783 Q1088.75 410.538 1088.75 415.908 Z" fill="#000000" fill-rule="nonzero" fill-opacity="1" /><path clip-path="url(#clip760)" d="M1097.24 395.538 L1101.5 395.538 L1101.5 431.556 L1097.24 431.556 L1097.24 395.538 Z" fill="#000000" fill-rule="nonzero" fill-opacity="1" /><path clip-path="url(#clip760)" d="M1114.54 427.667 L1114.54 441.417 L1110.25 441.417 L1110.25 405.631 L1114.54 405.631 L1114.54 409.566 Q1115.88 407.251 1117.92 406.14 Q1119.98 405.006 1122.82 405.006 Q1127.55 405.006 1130.49 408.756 Q1133.45 412.506 1133.45 418.617 Q1133.45 424.728 1130.49 428.478 Q1127.55 432.228 1122.82 432.228 Q1119.98 432.228 1117.92 431.117 Q1115.88 429.982 1114.54 427.667 M1129.03 418.617 Q1129.03 413.918 1127.08 411.256 Q1125.16 408.57 1121.78 408.57 Q1118.4 408.57 1116.46 411.256 Q1114.54 413.918 1114.54 418.617 Q1114.54 423.316 1116.46 426.001 Q1118.4 428.663 1121.78 428.663 Q1125.16 428.663 1127.08 426.001 Q1129.03 423.316 1129.03 418.617 Z" fill="#000000" fill-rule="nonzero" fill-opacity="1" /><path clip-path="url(#clip760)" d="M1139.84 395.584 L1143.54 395.584 Q1147.01 401.047 1148.73 406.279 Q1150.46 411.51 1150.46 416.672 Q1150.46 421.857 1148.73 427.112 Q1147.01 432.367 1143.54 437.806 L1139.84 437.806 Q1142.92 432.505 1144.42 427.274 Q1145.95 422.019 1145.95 416.672 Q1145.95 411.325 1144.42 406.117 Q1142.92 400.908 1139.84 395.584 Z" fill="#000000" fill-rule="nonzero" fill-opacity="1" /></svg>
