<?xml version="1.0" encoding="utf-8"?>
<svg xmlns="http://www.w3.org/2000/svg" xmlns:xlink="http://www.w3.org/1999/xlink" width="900" height="600" viewBox="0 0 3600 2400">
<defs>
  <clipPath id="clip260">
    <rect x="0" y="0" width="3600" height="2400"/>
  </clipPath>
</defs>
<path clip-path="url(#clip260)" d="M0 2400 L3600 2400 L3600 0 L0 0  Z" fill="#ffffff" fill-rule="evenodd" fill-opacity="1"/>
<defs>
  <clipPath id="clip261">
    <rect x="246" y="246" width="3308" height="1911"/>
  </clipPath>
</defs>
<path clip-path="url(#clip260)" d="M358.983 2156.51 L3552.76 2156.51 L3552.76 246.944 L358.983 246.944  Z" fill="#ffffff" fill-rule="evenodd" fill-opacity="1"/>
<defs>
  <clipPath id="clip262">
    <rect x="358" y="246" width="3195" height="1911"/>
  </clipPath>
</defs>
<polyline clip-path="url(#clip262)" style="stroke:#000000; stroke-linecap:round; stroke-linejoin:round; stroke-width:2; stroke-opacity:0.1; fill:none" points="825.997,2156.51 825.997,246.944 "/>
<polyline clip-path="url(#clip262)" style="stroke:#000000; stroke-linecap:round; stroke-linejoin:round; stroke-width:2; stroke-opacity:0.1; fill:none" points="1579.25,2156.51 1579.25,246.944 "/>
<polyline clip-path="url(#clip262)" style="stroke:#000000; stroke-linecap:round; stroke-linejoin:round; stroke-width:2; stroke-opacity:0.1; fill:none" points="2332.49,2156.51 2332.49,246.944 "/>
<polyline clip-path="url(#clip262)" style="stroke:#000000; stroke-linecap:round; stroke-linejoin:round; stroke-width:2; stroke-opacity:0.1; fill:none" points="3085.74,2156.51 3085.74,246.944 "/>
<polyline clip-path="url(#clip262)" style="stroke:#000000; stroke-linecap:round; stroke-linejoin:round; stroke-width:2; stroke-opacity:0.1; fill:none" points="358.983,1681.62 3552.76,1681.62 "/>
<polyline clip-path="url(#clip262)" style="stroke:#000000; stroke-linecap:round; stroke-linejoin:round; stroke-width:2; stroke-opacity:0.1; fill:none" points="358.983,1063.65 3552.76,1063.65 "/>
<polyline clip-path="url(#clip262)" style="stroke:#000000; stroke-linecap:round; stroke-linejoin:round; stroke-width:2; stroke-opacity:0.1; fill:none" points="358.983,445.682 3552.76,445.682 "/>
<polyline clip-path="url(#clip260)" style="stroke:#000000; stroke-linecap:round; stroke-linejoin:round; stroke-width:4; stroke-opacity:1; fill:none" points="358.983,2156.51 3552.76,2156.51 "/>
<polyline clip-path="url(#clip260)" style="stroke:#000000; stroke-linecap:round; stroke-linejoin:round; stroke-width:4; stroke-opacity:1; fill:none" points="825.997,2156.51 825.997,2137.61 "/>
<polyline clip-path="url(#clip260)" style="stroke:#000000; stroke-linecap:round; stroke-linejoin:round; stroke-width:4; stroke-opacity:1; fill:none" points="1579.25,2156.51 1579.25,2137.61 "/>
<polyline clip-path="url(#clip260)" style="stroke:#000000; stroke-linecap:round; stroke-linejoin:round; stroke-width:4; stroke-opacity:1; fill:none" points="2332.49,2156.51 2332.49,2137.61 "/>
<polyline clip-path="url(#clip260)" style="stroke:#000000; stroke-linecap:round; stroke-linejoin:round; stroke-width:4; stroke-opacity:1; fill:none" points="3085.74,2156.51 3085.74,2137.61 "/>
<path clip-path="url(#clip260)" d="M805.569 2224.57 L821.888 2224.57 L821.888 2228.51 L799.944 2228.51 L799.944 2224.57 Q802.606 2221.82 807.189 2217.19 Q811.795 2212.54 812.976 2211.19 Q815.221 2208.67 816.101 2206.93 Q817.004 2205.17 817.004 2203.48 Q817.004 2200.73 815.059 2198.99 Q813.138 2197.26 810.036 2197.26 Q807.837 2197.26 805.383 2198.02 Q802.953 2198.79 800.175 2200.34 L800.175 2195.61 Q802.999 2194.48 805.453 2193.9 Q807.907 2193.32 809.944 2193.32 Q815.314 2193.32 818.508 2196.01 Q821.703 2198.69 821.703 2203.18 Q821.703 2205.31 820.893 2207.23 Q820.106 2209.13 817.999 2211.73 Q817.42 2212.4 814.319 2215.61 Q811.217 2218.81 805.569 2224.57 Z" fill="#000000" fill-rule="nonzero" fill-opacity="1" /><path clip-path="url(#clip260)" d="M835.731 2224.57 L852.05 2224.57 L852.05 2228.51 L830.106 2228.51 L830.106 2224.57 Q832.768 2221.82 837.351 2217.19 Q841.957 2212.54 843.138 2211.19 Q845.383 2208.67 846.263 2206.93 Q847.166 2205.17 847.166 2203.48 Q847.166 2200.73 845.221 2198.99 Q843.3 2197.26 840.198 2197.26 Q837.999 2197.26 835.545 2198.02 Q833.115 2198.79 830.337 2200.34 L830.337 2195.61 Q833.161 2194.48 835.615 2193.9 Q838.068 2193.32 840.105 2193.32 Q845.476 2193.32 848.67 2196.01 Q851.865 2198.69 851.865 2203.18 Q851.865 2205.31 851.054 2207.23 Q850.267 2209.13 848.161 2211.73 Q847.582 2212.4 844.48 2215.61 Q841.379 2218.81 835.731 2224.57 Z" fill="#000000" fill-rule="nonzero" fill-opacity="1" /><path clip-path="url(#clip260)" d="M1557.78 2224.57 L1574.09 2224.57 L1574.09 2228.51 L1552.15 2228.51 L1552.15 2224.57 Q1554.81 2221.82 1559.4 2217.19 Q1564 2212.54 1565.18 2211.19 Q1567.43 2208.67 1568.31 2206.93 Q1569.21 2205.17 1569.21 2203.48 Q1569.21 2200.73 1567.27 2198.99 Q1565.34 2197.26 1562.24 2197.26 Q1560.04 2197.26 1557.59 2198.02 Q1555.16 2198.79 1552.38 2200.34 L1552.38 2195.61 Q1555.21 2194.48 1557.66 2193.9 Q1560.11 2193.32 1562.15 2193.32 Q1567.52 2193.32 1570.72 2196.01 Q1573.91 2198.69 1573.91 2203.18 Q1573.91 2205.31 1573.1 2207.23 Q1572.31 2209.13 1570.21 2211.73 Q1569.63 2212.4 1566.53 2215.61 Q1563.42 2218.81 1557.78 2224.57 Z" fill="#000000" fill-rule="nonzero" fill-opacity="1" /><path clip-path="url(#clip260)" d="M1596.76 2198.02 L1584.95 2216.47 L1596.76 2216.47 L1596.76 2198.02 M1595.53 2193.95 L1601.41 2193.95 L1601.41 2216.47 L1606.34 2216.47 L1606.34 2220.36 L1601.41 2220.36 L1601.41 2228.51 L1596.76 2228.51 L1596.76 2220.36 L1581.15 2220.36 L1581.15 2215.85 L1595.53 2193.95 Z" fill="#000000" fill-rule="nonzero" fill-opacity="1" /><path clip-path="url(#clip260)" d="M2311.19 2224.57 L2327.51 2224.57 L2327.51 2228.51 L2305.56 2228.51 L2305.56 2224.57 Q2308.22 2221.82 2312.81 2217.19 Q2317.41 2212.54 2318.59 2211.19 Q2320.84 2208.67 2321.72 2206.93 Q2322.62 2205.17 2322.62 2203.48 Q2322.62 2200.73 2320.68 2198.99 Q2318.76 2197.26 2315.65 2197.26 Q2313.45 2197.26 2311 2198.02 Q2308.57 2198.79 2305.79 2200.34 L2305.79 2195.61 Q2308.62 2194.48 2311.07 2193.9 Q2313.52 2193.32 2315.56 2193.32 Q2320.93 2193.32 2324.13 2196.01 Q2327.32 2198.69 2327.32 2203.18 Q2327.32 2205.31 2326.51 2207.23 Q2325.72 2209.13 2323.62 2211.73 Q2323.04 2212.4 2319.94 2215.61 Q2316.83 2218.81 2311.19 2224.57 Z" fill="#000000" fill-rule="nonzero" fill-opacity="1" /><path clip-path="url(#clip260)" d="M2347.9 2209.36 Q2344.75 2209.36 2342.9 2211.52 Q2341.07 2213.67 2341.07 2217.42 Q2341.07 2221.15 2342.9 2223.32 Q2344.75 2225.48 2347.9 2225.48 Q2351.05 2225.48 2352.88 2223.32 Q2354.73 2221.15 2354.73 2217.42 Q2354.73 2213.67 2352.88 2211.52 Q2351.05 2209.36 2347.9 2209.36 M2357.18 2194.71 L2357.18 2198.97 Q2355.42 2198.14 2353.62 2197.7 Q2351.83 2197.26 2350.07 2197.26 Q2345.44 2197.26 2342.99 2200.38 Q2340.56 2203.51 2340.21 2209.83 Q2341.58 2207.81 2343.64 2206.75 Q2345.7 2205.66 2348.18 2205.66 Q2353.38 2205.66 2356.39 2208.83 Q2359.43 2211.98 2359.43 2217.42 Q2359.43 2222.74 2356.28 2225.96 Q2353.13 2229.18 2347.9 2229.18 Q2341.9 2229.18 2338.73 2224.6 Q2335.56 2219.99 2335.56 2211.26 Q2335.56 2203.07 2339.45 2198.21 Q2343.34 2193.32 2349.89 2193.32 Q2351.65 2193.32 2353.43 2193.67 Q2355.24 2194.02 2357.18 2194.71 Z" fill="#000000" fill-rule="nonzero" fill-opacity="1" /><path clip-path="url(#clip260)" d="M3064.56 2224.57 L3080.88 2224.57 L3080.88 2228.51 L3058.94 2228.51 L3058.94 2224.57 Q3061.6 2221.82 3066.18 2217.19 Q3070.79 2212.54 3071.97 2211.19 Q3074.21 2208.67 3075.09 2206.93 Q3076 2205.17 3076 2203.48 Q3076 2200.73 3074.05 2198.99 Q3072.13 2197.26 3069.03 2197.26 Q3066.83 2197.26 3064.38 2198.02 Q3061.95 2198.79 3059.17 2200.34 L3059.17 2195.61 Q3061.99 2194.48 3064.45 2193.9 Q3066.9 2193.32 3068.94 2193.32 Q3074.31 2193.32 3077.5 2196.01 Q3080.7 2198.69 3080.7 2203.18 Q3080.7 2205.31 3079.89 2207.23 Q3079.1 2209.13 3076.99 2211.73 Q3076.41 2212.4 3073.31 2215.61 Q3070.21 2218.81 3064.56 2224.57 Z" fill="#000000" fill-rule="nonzero" fill-opacity="1" /><path clip-path="url(#clip260)" d="M3100.7 2212.1 Q3097.36 2212.1 3095.44 2213.88 Q3093.54 2215.66 3093.54 2218.79 Q3093.54 2221.91 3095.44 2223.69 Q3097.36 2225.48 3100.7 2225.48 Q3104.03 2225.48 3105.95 2223.69 Q3107.87 2221.89 3107.87 2218.79 Q3107.87 2215.66 3105.95 2213.88 Q3104.05 2212.1 3100.7 2212.1 M3096.02 2210.11 Q3093.01 2209.36 3091.32 2207.3 Q3089.65 2205.24 3089.65 2202.28 Q3089.65 2198.14 3092.59 2195.73 Q3095.56 2193.32 3100.7 2193.32 Q3105.86 2193.32 3108.8 2195.73 Q3111.74 2198.14 3111.74 2202.28 Q3111.74 2205.24 3110.05 2207.3 Q3108.38 2209.36 3105.39 2210.11 Q3108.77 2210.89 3110.65 2213.18 Q3112.55 2215.48 3112.55 2218.79 Q3112.55 2223.81 3109.47 2226.49 Q3106.41 2229.18 3100.7 2229.18 Q3094.98 2229.18 3091.9 2226.49 Q3088.84 2223.81 3088.84 2218.79 Q3088.84 2215.48 3090.74 2213.18 Q3092.64 2210.89 3096.02 2210.11 M3094.31 2202.72 Q3094.31 2205.41 3095.97 2206.91 Q3097.66 2208.42 3100.7 2208.42 Q3103.7 2208.42 3105.39 2206.91 Q3107.11 2205.41 3107.11 2202.72 Q3107.11 2200.04 3105.39 2198.53 Q3103.7 2197.03 3100.7 2197.03 Q3097.66 2197.03 3095.97 2198.53 Q3094.31 2200.04 3094.31 2202.72 Z" fill="#000000" fill-rule="nonzero" fill-opacity="1" /><path clip-path="url(#clip260)" d="M1819.11 2270.99 L1824.95 2270.99 L1824.95 2314.19 L1819.11 2314.19 L1819.11 2270.99 Z" fill="#000000" fill-rule="nonzero" fill-opacity="1" /><path clip-path="url(#clip260)" d="M1841.62 2272.58 L1841.62 2281.78 L1852.59 2281.78 L1852.59 2285.92 L1841.62 2285.92 L1841.62 2303.51 Q1841.62 2307.47 1842.69 2308.6 Q1843.79 2309.73 1847.12 2309.73 L1852.59 2309.73 L1852.59 2314.19 L1847.12 2314.19 Q1840.95 2314.19 1838.61 2311.9 Q1836.27 2309.59 1836.27 2303.51 L1836.27 2285.92 L1832.36 2285.92 L1832.36 2281.78 L1836.27 2281.78 L1836.27 2272.58 L1841.62 2272.58 Z" fill="#000000" fill-rule="nonzero" fill-opacity="1" /><path clip-path="url(#clip260)" d="M1887.31 2296.65 L1887.31 2299.26 L1862.83 2299.26 Q1863.18 2304.75 1866.13 2307.65 Q1869.11 2310.51 1874.4 2310.51 Q1877.47 2310.51 1880.33 2309.76 Q1883.23 2309.01 1886.06 2307.5 L1886.06 2312.54 Q1883.2 2313.75 1880.19 2314.39 Q1877.18 2315.03 1874.08 2315.03 Q1866.33 2315.03 1861.79 2310.51 Q1857.27 2306 1857.27 2298.3 Q1857.27 2290.35 1861.56 2285.69 Q1865.87 2281 1873.16 2281 Q1879.7 2281 1883.49 2285.22 Q1887.31 2289.42 1887.31 2296.65 M1881.98 2295.09 Q1881.93 2290.72 1879.52 2288.12 Q1877.15 2285.51 1873.22 2285.51 Q1868.76 2285.51 1866.07 2288.03 Q1863.41 2290.55 1863 2295.12 L1881.98 2295.09 Z" fill="#000000" fill-rule="nonzero" fill-opacity="1" /><path clip-path="url(#clip260)" d="M1914.82 2286.76 Q1913.93 2286.24 1912.86 2286 Q1911.82 2285.74 1910.54 2285.74 Q1906.03 2285.74 1903.6 2288.7 Q1901.2 2291.62 1901.2 2297.12 L1901.2 2314.19 L1895.84 2314.19 L1895.84 2281.78 L1901.2 2281.78 L1901.2 2286.82 Q1902.87 2283.86 1905.57 2282.45 Q1908.26 2281 1912.11 2281 Q1912.65 2281 1913.32 2281.09 Q1913.99 2281.14 1914.8 2281.29 L1914.82 2286.76 Z" fill="#000000" fill-rule="nonzero" fill-opacity="1" /><path clip-path="url(#clip260)" d="M1935.14 2297.9 Q1928.68 2297.9 1926.2 2299.37 Q1923.71 2300.85 1923.71 2304.41 Q1923.71 2307.24 1925.56 2308.92 Q1927.44 2310.57 1930.65 2310.57 Q1935.08 2310.57 1937.74 2307.45 Q1940.43 2304.29 1940.43 2299.08 L1940.43 2297.9 L1935.14 2297.9 M1945.76 2295.7 L1945.76 2314.19 L1940.43 2314.19 L1940.43 2309.27 Q1938.61 2312.22 1935.89 2313.64 Q1933.17 2315.03 1929.23 2315.03 Q1924.26 2315.03 1921.31 2312.25 Q1918.38 2309.44 1918.38 2304.75 Q1918.38 2299.29 1922.03 2296.51 Q1925.7 2293.73 1932.97 2293.73 L1940.43 2293.73 L1940.43 2293.21 Q1940.43 2289.54 1938 2287.54 Q1935.6 2285.51 1931.23 2285.51 Q1928.45 2285.51 1925.82 2286.18 Q1923.19 2286.84 1920.76 2288.18 L1920.76 2283.26 Q1923.68 2282.13 1926.43 2281.58 Q1929.18 2281 1931.78 2281 Q1938.81 2281 1942.28 2284.65 Q1945.76 2288.29 1945.76 2295.7 Z" fill="#000000" fill-rule="nonzero" fill-opacity="1" /><path clip-path="url(#clip260)" d="M1961.99 2272.58 L1961.99 2281.78 L1972.96 2281.78 L1972.96 2285.92 L1961.99 2285.92 L1961.99 2303.51 Q1961.99 2307.47 1963.06 2308.6 Q1964.16 2309.73 1967.49 2309.73 L1972.96 2309.73 L1972.96 2314.19 L1967.49 2314.19 Q1961.32 2314.19 1958.98 2311.9 Q1956.64 2309.59 1956.64 2303.51 L1956.64 2285.92 L1952.73 2285.92 L1952.73 2281.78 L1956.64 2281.78 L1956.64 2272.58 L1961.99 2272.58 Z" fill="#000000" fill-rule="nonzero" fill-opacity="1" /><path clip-path="url(#clip260)" d="M1979.96 2281.78 L1985.28 2281.78 L1985.28 2314.19 L1979.96 2314.19 L1979.96 2281.78 M1979.96 2269.16 L1985.28 2269.16 L1985.28 2275.91 L1979.96 2275.91 L1979.96 2269.16 Z" fill="#000000" fill-rule="nonzero" fill-opacity="1" /><path clip-path="url(#clip260)" d="M2008.98 2285.51 Q2004.7 2285.51 2002.21 2288.87 Q1999.72 2292.2 1999.72 2298.01 Q1999.72 2303.83 2002.18 2307.19 Q2004.67 2310.51 2008.98 2310.51 Q2013.23 2310.51 2015.72 2307.16 Q2018.21 2303.8 2018.21 2298.01 Q2018.21 2292.25 2015.72 2288.9 Q2013.23 2285.51 2008.98 2285.51 M2008.98 2281 Q2015.92 2281 2019.89 2285.51 Q2023.85 2290.03 2023.85 2298.01 Q2023.85 2305.97 2019.89 2310.51 Q2015.92 2315.03 2008.98 2315.03 Q2002.01 2315.03 1998.04 2310.51 Q1994.11 2305.97 1994.11 2298.01 Q1994.11 2290.03 1998.04 2285.51 Q2002.01 2281 2008.98 2281 Z" fill="#000000" fill-rule="nonzero" fill-opacity="1" /><path clip-path="url(#clip260)" d="M2059.62 2294.63 L2059.62 2314.19 L2054.29 2314.19 L2054.29 2294.8 Q2054.29 2290.2 2052.5 2287.91 Q2050.7 2285.63 2047.12 2285.63 Q2042.8 2285.63 2040.32 2288.38 Q2037.83 2291.13 2037.83 2295.87 L2037.83 2314.19 L2032.47 2314.19 L2032.47 2281.78 L2037.83 2281.78 L2037.83 2286.82 Q2039.74 2283.89 2042.31 2282.45 Q2044.92 2281 2048.3 2281 Q2053.89 2281 2056.75 2284.47 Q2059.62 2287.91 2059.62 2294.63 Z" fill="#000000" fill-rule="nonzero" fill-opacity="1" /><path clip-path="url(#clip260)" d="M2090.89 2282.74 L2090.89 2287.77 Q2088.64 2286.61 2086.21 2286.03 Q2083.78 2285.46 2081.17 2285.46 Q2077.21 2285.46 2075.21 2286.67 Q2073.24 2287.89 2073.24 2290.32 Q2073.24 2292.17 2074.66 2293.24 Q2076.08 2294.28 2080.36 2295.24 L2082.19 2295.64 Q2087.86 2296.86 2090.23 2299.08 Q2092.63 2301.28 2092.63 2305.25 Q2092.63 2309.76 2089.04 2312.39 Q2085.48 2315.03 2079.23 2315.03 Q2076.63 2315.03 2073.79 2314.51 Q2070.99 2314.01 2067.86 2313 L2067.86 2307.5 Q2070.81 2309.04 2073.68 2309.82 Q2076.54 2310.57 2079.35 2310.57 Q2083.11 2310.57 2085.14 2309.3 Q2087.16 2308 2087.16 2305.65 Q2087.16 2303.48 2085.69 2302.32 Q2084.24 2301.17 2079.29 2300.1 L2077.44 2299.66 Q2072.49 2298.62 2070.29 2296.48 Q2068.09 2294.31 2068.09 2290.55 Q2068.09 2285.98 2071.33 2283.49 Q2074.58 2281 2080.54 2281 Q2083.49 2281 2086.09 2281.43 Q2088.7 2281.87 2090.89 2282.74 Z" fill="#000000" fill-rule="nonzero" fill-opacity="1" /><polyline clip-path="url(#clip260)" style="stroke:#000000; stroke-linecap:round; stroke-linejoin:round; stroke-width:4; stroke-opacity:1; fill:none" points="358.983,2156.51 358.983,246.944 "/>
<polyline clip-path="url(#clip260)" style="stroke:#000000; stroke-linecap:round; stroke-linejoin:round; stroke-width:4; stroke-opacity:1; fill:none" points="358.983,1681.62 377.88,1681.62 "/>
<polyline clip-path="url(#clip260)" style="stroke:#000000; stroke-linecap:round; stroke-linejoin:round; stroke-width:4; stroke-opacity:1; fill:none" points="358.983,1063.65 377.88,1063.65 "/>
<polyline clip-path="url(#clip260)" style="stroke:#000000; stroke-linecap:round; stroke-linejoin:round; stroke-width:4; stroke-opacity:1; fill:none" points="358.983,445.682 377.88,445.682 "/>
<path clip-path="url(#clip260)" d="M167.604 1701.41 L175.242 1701.41 L175.242 1675.04 L166.932 1676.71 L166.932 1672.45 L175.196 1670.78 L179.872 1670.78 L179.872 1701.41 L187.511 1701.41 L187.511 1705.34 L167.604 1705.34 L167.604 1701.41 Z" fill="#000000" fill-rule="nonzero" fill-opacity="1" /><path clip-path="url(#clip260)" d="M206.955 1673.86 Q203.344 1673.86 201.515 1677.43 Q199.71 1680.97 199.71 1688.1 Q199.71 1695.2 201.515 1698.77 Q203.344 1702.31 206.955 1702.31 Q210.589 1702.31 212.395 1698.77 Q214.224 1695.2 214.224 1688.1 Q214.224 1680.97 212.395 1677.43 Q210.589 1673.86 206.955 1673.86 M206.955 1670.16 Q212.765 1670.16 215.821 1674.77 Q218.9 1679.35 218.9 1688.1 Q218.9 1696.83 215.821 1701.43 Q212.765 1706.01 206.955 1706.01 Q201.145 1706.01 198.066 1701.43 Q195.011 1696.83 195.011 1688.1 Q195.011 1679.35 198.066 1674.77 Q201.145 1670.16 206.955 1670.16 Z" fill="#000000" fill-rule="nonzero" fill-opacity="1" /><path clip-path="url(#clip260)" d="M218.9 1664.26 L243.011 1664.26 L243.011 1667.46 L218.9 1667.46 L218.9 1664.26 Z" fill="#000000" fill-rule="nonzero" fill-opacity="1" /><path clip-path="url(#clip260)" d="M259.336 1652.35 Q256.402 1652.35 254.916 1655.25 Q253.449 1658.13 253.449 1663.92 Q253.449 1669.7 254.916 1672.59 Q256.402 1675.47 259.336 1675.47 Q262.289 1675.47 263.756 1672.59 Q265.242 1669.7 265.242 1663.92 Q265.242 1658.13 263.756 1655.25 Q262.289 1652.35 259.336 1652.35 M259.336 1649.35 Q264.057 1649.35 266.54 1653.09 Q269.041 1656.81 269.041 1663.92 Q269.041 1671.01 266.54 1674.75 Q264.057 1678.48 259.336 1678.48 Q254.616 1678.48 252.114 1674.75 Q249.631 1671.01 249.631 1663.92 Q249.631 1656.81 252.114 1653.09 Q254.616 1649.35 259.336 1649.35 Z" fill="#000000" fill-rule="nonzero" fill-opacity="1" /><path clip-path="url(#clip260)" d="M275.718 1673.16 L279.686 1673.16 L279.686 1677.93 L275.718 1677.93 L275.718 1673.16 Z" fill="#000000" fill-rule="nonzero" fill-opacity="1" /><path clip-path="url(#clip260)" d="M287.999 1649.85 L302.914 1649.85 L302.914 1653.05 L291.479 1653.05 L291.479 1659.93 Q292.306 1659.65 293.134 1659.52 Q293.961 1659.37 294.789 1659.37 Q299.491 1659.37 302.237 1661.95 Q304.983 1664.52 304.983 1668.92 Q304.983 1673.46 302.162 1675.98 Q299.34 1678.48 294.206 1678.48 Q292.438 1678.48 290.595 1678.18 Q288.77 1677.88 286.814 1677.27 L286.814 1673.46 Q288.507 1674.38 290.313 1674.83 Q292.118 1675.28 294.131 1675.28 Q297.384 1675.28 299.284 1673.57 Q301.184 1671.86 301.184 1668.92 Q301.184 1665.99 299.284 1664.28 Q297.384 1662.57 294.131 1662.57 Q292.607 1662.57 291.084 1662.91 Q289.579 1663.24 287.999 1663.96 L287.999 1649.85 Z" fill="#000000" fill-rule="nonzero" fill-opacity="1" /><path clip-path="url(#clip260)" d="M197.527 1083.44 L205.166 1083.44 L205.166 1057.08 L196.855 1058.74 L196.855 1054.48 L205.119 1052.82 L209.795 1052.82 L209.795 1083.44 L217.434 1083.44 L217.434 1087.38 L197.527 1087.38 L197.527 1083.44 Z" fill="#000000" fill-rule="nonzero" fill-opacity="1" /><path clip-path="url(#clip260)" d="M236.878 1055.9 Q233.267 1055.9 231.439 1059.46 Q229.633 1063 229.633 1070.13 Q229.633 1077.24 231.439 1080.8 Q233.267 1084.34 236.878 1084.34 Q240.513 1084.34 242.318 1080.8 Q244.147 1077.24 244.147 1070.13 Q244.147 1063 242.318 1059.46 Q240.513 1055.9 236.878 1055.9 M236.878 1052.19 Q242.689 1052.19 245.744 1056.8 Q248.823 1061.38 248.823 1070.13 Q248.823 1078.86 245.744 1083.46 Q242.689 1088.05 236.878 1088.05 Q231.068 1088.05 227.99 1083.46 Q224.934 1078.86 224.934 1070.13 Q224.934 1061.38 227.99 1056.8 Q231.068 1052.19 236.878 1052.19 Z" fill="#000000" fill-rule="nonzero" fill-opacity="1" /><path clip-path="url(#clip260)" d="M258.528 1034.39 Q255.594 1034.39 254.108 1037.28 Q252.641 1040.16 252.641 1045.95 Q252.641 1051.73 254.108 1054.62 Q255.594 1057.5 258.528 1057.5 Q261.48 1057.5 262.947 1054.62 Q264.433 1051.73 264.433 1045.95 Q264.433 1040.16 262.947 1037.28 Q261.48 1034.39 258.528 1034.39 M258.528 1031.38 Q263.248 1031.38 265.731 1035.12 Q268.232 1038.85 268.232 1045.95 Q268.232 1053.05 265.731 1056.79 Q263.248 1060.51 258.528 1060.51 Q253.807 1060.51 251.305 1056.79 Q248.823 1053.05 248.823 1045.95 Q248.823 1038.85 251.305 1035.12 Q253.807 1031.38 258.528 1031.38 Z" fill="#000000" fill-rule="nonzero" fill-opacity="1" /><path clip-path="url(#clip260)" d="M274.909 1055.19 L278.878 1055.19 L278.878 1059.97 L274.909 1059.97 L274.909 1055.19 Z" fill="#000000" fill-rule="nonzero" fill-opacity="1" /><path clip-path="url(#clip260)" d="M295.278 1034.39 Q292.344 1034.39 290.858 1037.28 Q289.391 1040.16 289.391 1045.95 Q289.391 1051.73 290.858 1054.62 Q292.344 1057.5 295.278 1057.5 Q298.231 1057.5 299.698 1054.62 Q301.184 1051.73 301.184 1045.95 Q301.184 1040.16 299.698 1037.28 Q298.231 1034.39 295.278 1034.39 M295.278 1031.38 Q299.999 1031.38 302.481 1035.12 Q304.983 1038.85 304.983 1045.95 Q304.983 1053.05 302.481 1056.79 Q299.999 1060.51 295.278 1060.51 Q290.557 1060.51 288.056 1056.79 Q285.573 1053.05 285.573 1045.95 Q285.573 1038.85 288.056 1035.12 Q290.557 1031.38 295.278 1031.38 Z" fill="#000000" fill-rule="nonzero" fill-opacity="1" /><path clip-path="url(#clip260)" d="M198.335 465.475 L205.974 465.475 L205.974 439.109 L197.664 440.776 L197.664 436.517 L205.928 434.85 L210.604 434.85 L210.604 465.475 L218.243 465.475 L218.243 469.41 L198.335 469.41 L198.335 465.475 Z" fill="#000000" fill-rule="nonzero" fill-opacity="1" /><path clip-path="url(#clip260)" d="M237.687 437.929 Q234.076 437.929 232.247 441.493 Q230.442 445.035 230.442 452.165 Q230.442 459.271 232.247 462.836 Q234.076 466.378 237.687 466.378 Q241.321 466.378 243.127 462.836 Q244.956 459.271 244.956 452.165 Q244.956 445.035 243.127 441.493 Q241.321 437.929 237.687 437.929 M237.687 434.225 Q243.497 434.225 246.553 438.831 Q249.631 443.415 249.631 452.165 Q249.631 460.891 246.553 465.498 Q243.497 470.081 237.687 470.081 Q231.877 470.081 228.798 465.498 Q225.743 460.891 225.743 452.165 Q225.743 443.415 228.798 438.831 Q231.877 434.225 237.687 434.225 Z" fill="#000000" fill-rule="nonzero" fill-opacity="1" /><path clip-path="url(#clip260)" d="M259.336 416.421 Q256.402 416.421 254.916 419.317 Q253.449 422.195 253.449 427.988 Q253.449 433.762 254.916 436.658 Q256.402 439.536 259.336 439.536 Q262.289 439.536 263.756 436.658 Q265.242 433.762 265.242 427.988 Q265.242 422.195 263.756 419.317 Q262.289 416.421 259.336 416.421 M259.336 413.412 Q264.057 413.412 266.54 417.154 Q269.041 420.878 269.041 427.988 Q269.041 435.078 266.54 438.821 Q264.057 442.545 259.336 442.545 Q254.616 442.545 252.114 438.821 Q249.631 435.078 249.631 427.988 Q249.631 420.878 252.114 417.154 Q254.616 413.412 259.336 413.412 Z" fill="#000000" fill-rule="nonzero" fill-opacity="1" /><path clip-path="url(#clip260)" d="M275.718 437.222 L279.686 437.222 L279.686 441.999 L275.718 441.999 L275.718 437.222 Z" fill="#000000" fill-rule="nonzero" fill-opacity="1" /><path clip-path="url(#clip260)" d="M287.999 413.919 L302.914 413.919 L302.914 417.117 L291.479 417.117 L291.479 424 Q292.306 423.718 293.134 423.587 Q293.961 423.436 294.789 423.436 Q299.491 423.436 302.237 426.013 Q304.983 428.59 304.983 432.991 Q304.983 437.523 302.162 440.043 Q299.34 442.545 294.206 442.545 Q292.438 442.545 290.595 442.244 Q288.77 441.943 286.814 441.341 L286.814 437.523 Q288.507 438.445 290.313 438.896 Q292.118 439.348 294.131 439.348 Q297.384 439.348 299.284 437.636 Q301.184 435.925 301.184 432.991 Q301.184 430.057 299.284 428.345 Q297.384 426.634 294.131 426.634 Q292.607 426.634 291.084 426.972 Q289.579 427.311 287.999 428.025 L287.999 413.919 Z" fill="#000000" fill-rule="nonzero" fill-opacity="1" /><path clip-path="url(#clip260)" d="M60.0998 1347.25 L66.263 1347.25 Q63.5141 1350.21 62.1542 1353.56 Q60.7943 1356.89 60.7943 1360.65 Q60.7943 1368.06 65.3371 1371.99 Q69.8509 1375.93 78.4157 1375.93 Q86.9515 1375.93 91.4943 1371.99 Q96.0082 1368.06 96.0082 1360.65 Q96.0082 1356.89 94.6482 1353.56 Q93.2883 1350.21 90.5395 1347.25 L96.6448 1347.25 Q98.7281 1350.32 99.7697 1353.77 Q100.811 1357.18 100.811 1361 Q100.811 1370.81 94.8218 1376.45 Q88.8034 1382.09 78.4157 1382.09 Q67.9991 1382.09 62.0095 1376.45 Q55.991 1370.81 55.991 1361 Q55.991 1357.12 57.0327 1353.71 Q58.0454 1350.26 60.0998 1347.25 Z" fill="#000000" fill-rule="nonzero" fill-opacity="1" /><path clip-path="url(#clip260)" d="M61.5755 1332.38 L77.8081 1332.38 L77.8081 1325.03 Q77.8081 1320.95 75.6958 1318.72 Q73.5835 1316.5 69.6773 1316.5 Q65.8 1316.5 63.6878 1318.72 Q61.5755 1320.95 61.5755 1325.03 L61.5755 1332.38 M56.7723 1338.23 L56.7723 1325.03 Q56.7723 1317.77 60.0709 1314.07 Q63.3405 1310.33 69.6773 1310.33 Q76.0719 1310.33 79.3416 1314.07 Q82.6113 1317.77 82.6113 1325.03 L82.6113 1332.38 L99.9723 1332.38 L99.9723 1338.23 L56.7723 1338.23 Z" fill="#000000" fill-rule="nonzero" fill-opacity="1" /><path clip-path="url(#clip260)" d="M56.7723 1303.16 L56.7723 1297.28 L83.0164 1297.28 Q89.9608 1297.28 93.0279 1294.77 Q96.0661 1292.25 96.0661 1286.61 Q96.0661 1280.99 93.0279 1278.48 Q89.9608 1275.96 83.0164 1275.96 L56.7723 1275.96 L56.7723 1270.08 L83.7397 1270.08 Q92.1888 1270.08 96.5001 1274.28 Q100.811 1278.45 100.811 1286.61 Q100.811 1294.8 96.5001 1298.99 Q92.1888 1303.16 83.7397 1303.16 L56.7723 1303.16 Z" fill="#000000" fill-rule="nonzero" fill-opacity="1" /><path clip-path="url(#clip260)" d="M58.3637 1235.25 L67.565 1235.25 L67.565 1224.28 L71.7028 1224.28 L71.7028 1235.25 L89.2953 1235.25 Q93.2594 1235.25 94.3878 1234.18 Q95.5163 1233.08 95.5163 1229.75 L95.5163 1224.28 L99.9723 1224.28 L99.9723 1229.75 Q99.9723 1235.91 97.6864 1238.26 Q95.3716 1240.6 89.2953 1240.6 L71.7028 1240.6 L71.7028 1244.51 L67.565 1244.51 L67.565 1240.6 L58.3637 1240.6 L58.3637 1235.25 Z" fill="#000000" fill-rule="nonzero" fill-opacity="1" /><path clip-path="url(#clip260)" d="M67.565 1217.28 L67.565 1211.95 L99.9723 1211.95 L99.9723 1217.28 L67.565 1217.28 M54.9494 1217.28 L54.9494 1211.95 L61.6912 1211.95 L61.6912 1217.28 L54.9494 1217.28 Z" fill="#000000" fill-rule="nonzero" fill-opacity="1" /><path clip-path="url(#clip260)" d="M73.7861 1175.58 Q70.1981 1173.59 68.491 1170.81 Q66.7838 1168.03 66.7838 1164.27 Q66.7838 1159.21 70.3428 1156.46 Q73.8729 1153.71 80.4122 1153.71 L99.9723 1153.71 L99.9723 1159.06 L80.5858 1159.06 Q75.9273 1159.06 73.6703 1160.71 Q71.4134 1162.36 71.4134 1165.75 Q71.4134 1169.88 74.1622 1172.28 Q76.9111 1174.69 81.6564 1174.69 L99.9723 1174.69 L99.9723 1180.04 L80.5858 1180.04 Q75.8983 1180.04 73.6703 1181.69 Q71.4134 1183.34 71.4134 1186.78 Q71.4134 1190.86 74.1912 1193.26 Q76.94 1195.66 81.6564 1195.66 L99.9723 1195.66 L99.9723 1201.02 L67.565 1201.02 L67.565 1195.66 L72.5997 1195.66 Q69.6194 1193.84 68.2016 1191.29 Q66.7838 1188.75 66.7838 1185.25 Q66.7838 1181.72 68.5778 1179.26 Q70.3717 1176.77 73.7861 1175.58 Z" fill="#000000" fill-rule="nonzero" fill-opacity="1" /><path clip-path="url(#clip260)" d="M82.4377 1115.37 L85.0418 1115.37 L85.0418 1139.85 Q90.5395 1139.5 93.433 1136.55 Q96.2975 1133.57 96.2975 1128.27 Q96.2975 1125.21 95.5452 1122.34 Q94.7929 1119.45 93.2883 1116.61 L98.323 1116.61 Q99.5383 1119.48 100.175 1122.49 Q100.811 1125.5 100.811 1128.59 Q100.811 1136.35 96.2975 1140.89 Q91.7837 1145.4 84.087 1145.4 Q76.1298 1145.4 71.4713 1141.12 Q66.7838 1136.81 66.7838 1129.52 Q66.7838 1122.98 71.0083 1119.19 Q75.2039 1115.37 82.4377 1115.37 M80.8752 1120.69 Q76.506 1120.75 73.9018 1123.15 Q71.2977 1125.53 71.2977 1129.46 Q71.2977 1133.92 73.815 1136.61 Q76.3324 1139.27 80.9041 1139.67 L80.8752 1120.69 Z" fill="#000000" fill-rule="nonzero" fill-opacity="1" /><path clip-path="url(#clip260)" d="M55.0072 1075.01 Q61.6623 1078.88 68.1727 1080.76 Q74.6831 1082.64 81.3671 1082.64 Q88.0511 1082.64 94.6193 1080.76 Q101.159 1078.85 107.785 1075.01 L107.785 1079.63 Q100.985 1083.97 94.4168 1086.15 Q87.8485 1088.29 81.3671 1088.29 Q74.9145 1088.29 68.3752 1086.15 Q61.8359 1084 55.0072 1079.63 L55.0072 1075.01 Z" fill="#000000" fill-rule="nonzero" fill-opacity="1" /><path clip-path="url(#clip260)" d="M68.5199 1044.02 L73.5546 1044.02 Q72.3972 1046.27 71.8185 1048.7 Q71.2398 1051.13 71.2398 1053.74 Q71.2398 1057.7 72.4551 1059.7 Q73.6703 1061.67 76.1009 1061.67 Q77.9527 1061.67 79.0233 1060.25 Q80.065 1058.83 81.0198 1054.55 L81.4249 1052.73 Q82.6402 1047.05 84.8682 1044.68 Q87.0673 1042.28 91.0314 1042.28 Q95.5452 1042.28 98.1783 1045.87 Q100.811 1049.43 100.811 1055.68 Q100.811 1058.28 100.291 1061.12 Q99.7987 1063.92 98.7859 1067.05 L93.2883 1067.05 Q94.8218 1064.1 95.6031 1061.23 Q96.3554 1058.37 96.3554 1055.56 Q96.3554 1051.8 95.0823 1049.77 Q93.7802 1047.75 91.4364 1047.75 Q89.2663 1047.75 88.1089 1049.22 Q86.9515 1050.67 85.8809 1055.62 L85.4469 1057.47 Q84.4052 1062.42 82.264 1064.62 Q80.0939 1066.82 76.3324 1066.82 Q71.7606 1066.82 69.2722 1063.58 Q66.7838 1060.33 66.7838 1054.37 Q66.7838 1051.42 67.2178 1048.82 Q67.6519 1046.21 68.5199 1044.02 Z" fill="#000000" fill-rule="nonzero" fill-opacity="1" /><path clip-path="url(#clip260)" d="M55.0072 1034.64 L55.0072 1030.01 Q61.8359 1025.67 68.3752 1023.53 Q74.9145 1021.36 81.3671 1021.36 Q87.8485 1021.36 94.4168 1023.53 Q100.985 1025.67 107.785 1030.01 L107.785 1034.64 Q101.159 1030.79 94.6193 1028.91 Q88.0511 1027 81.3671 1027 Q74.6831 1027 68.1727 1028.91 Q61.6623 1030.79 55.0072 1034.64 Z" fill="#000000" fill-rule="nonzero" fill-opacity="1" /><path clip-path="url(#clip260)" d="M1303.09 123.984 L1311.27 123.984 L1311.27 184.464 L1303.09 184.464 L1303.09 123.984 Z" fill="#000000" fill-rule="nonzero" fill-opacity="1" /><path clip-path="url(#clip260)" d="M1334.6 126.212 L1334.6 139.094 L1349.96 139.094 L1349.96 144.887 L1334.6 144.887 L1334.6 169.516 Q1334.6 175.066 1336.1 176.646 Q1337.64 178.226 1342.3 178.226 L1349.96 178.226 L1349.96 184.464 L1342.3 184.464 Q1333.67 184.464 1330.39 181.264 Q1327.11 178.023 1327.11 169.516 L1327.11 144.887 L1321.64 144.887 L1321.64 139.094 L1327.11 139.094 L1327.11 126.212 L1334.6 126.212 Z" fill="#000000" fill-rule="nonzero" fill-opacity="1" /><path clip-path="url(#clip260)" d="M1398.57 159.916 L1398.57 163.561 L1364.3 163.561 Q1364.78 171.258 1368.91 175.309 Q1373.09 179.319 1380.5 179.319 Q1384.79 179.319 1388.8 178.266 Q1392.85 177.213 1396.82 175.106 L1396.82 182.155 Q1392.81 183.856 1388.6 184.748 Q1384.39 185.639 1380.05 185.639 Q1369.2 185.639 1362.84 179.319 Q1356.52 173 1356.52 162.225 Q1356.52 151.085 1362.51 144.563 Q1368.55 138 1378.76 138 Q1387.91 138 1393.22 143.914 Q1398.57 149.788 1398.57 159.916 M1391.11 157.728 Q1391.03 151.611 1387.67 147.965 Q1384.35 144.32 1378.84 144.32 Q1372.6 144.32 1368.83 147.844 Q1365.11 151.368 1364.54 157.769 L1391.11 157.728 Z" fill="#000000" fill-rule="nonzero" fill-opacity="1" /><path clip-path="url(#clip260)" d="M1437.09 146.061 Q1435.83 145.332 1434.34 145.008 Q1432.88 144.644 1431.09 144.644 Q1424.78 144.644 1421.37 148.776 Q1418.01 152.867 1418.01 160.564 L1418.01 184.464 L1410.52 184.464 L1410.52 139.094 L1418.01 139.094 L1418.01 146.142 Q1420.36 142.011 1424.13 140.026 Q1427.89 138 1433.28 138 Q1434.05 138 1434.98 138.122 Q1435.92 138.203 1437.05 138.405 L1437.09 146.061 Z" fill="#000000" fill-rule="nonzero" fill-opacity="1" /><path clip-path="url(#clip260)" d="M1465.53 161.657 Q1456.49 161.657 1453.01 163.723 Q1449.53 165.789 1449.53 170.772 Q1449.53 174.742 1452.12 177.091 Q1454.75 179.4 1459.25 179.4 Q1465.45 179.4 1469.17 175.025 Q1472.94 170.61 1472.94 163.318 L1472.94 161.657 L1465.53 161.657 M1480.39 158.579 L1480.39 184.464 L1472.94 184.464 L1472.94 177.577 Q1470.39 181.709 1466.58 183.694 Q1462.77 185.639 1457.26 185.639 Q1450.3 185.639 1446.16 181.75 Q1442.07 177.821 1442.07 171.258 Q1442.07 163.602 1447.18 159.713 Q1452.32 155.824 1462.49 155.824 L1472.94 155.824 L1472.94 155.095 Q1472.94 149.95 1469.54 147.155 Q1466.18 144.32 1460.06 144.32 Q1456.17 144.32 1452.48 145.251 Q1448.8 146.183 1445.39 148.046 L1445.39 141.16 Q1449.49 139.58 1453.33 138.81 Q1457.18 138 1460.83 138 Q1470.67 138 1475.53 143.104 Q1480.39 148.208 1480.39 158.579 Z" fill="#000000" fill-rule="nonzero" fill-opacity="1" /><path clip-path="url(#clip260)" d="M1503.12 126.212 L1503.12 139.094 L1518.47 139.094 L1518.47 144.887 L1503.12 144.887 L1503.12 169.516 Q1503.12 175.066 1504.62 176.646 Q1506.16 178.226 1510.82 178.226 L1518.47 178.226 L1518.47 184.464 L1510.82 184.464 Q1502.19 184.464 1498.91 181.264 Q1495.63 178.023 1495.63 169.516 L1495.63 144.887 L1490.16 144.887 L1490.16 139.094 L1495.63 139.094 L1495.63 126.212 L1503.12 126.212 Z" fill="#000000" fill-rule="nonzero" fill-opacity="1" /><path clip-path="url(#clip260)" d="M1528.28 139.094 L1535.73 139.094 L1535.73 184.464 L1528.28 184.464 L1528.28 139.094 M1528.28 121.432 L1535.73 121.432 L1535.73 130.871 L1528.28 130.871 L1528.28 121.432 Z" fill="#000000" fill-rule="nonzero" fill-opacity="1" /><path clip-path="url(#clip260)" d="M1568.91 144.32 Q1562.91 144.32 1559.43 149.019 Q1555.94 153.677 1555.94 161.819 Q1555.94 169.962 1559.39 174.661 Q1562.87 179.319 1568.91 179.319 Q1574.86 179.319 1578.35 174.62 Q1581.83 169.921 1581.83 161.819 Q1581.83 153.758 1578.35 149.059 Q1574.86 144.32 1568.91 144.32 M1568.91 138 Q1578.63 138 1584.18 144.32 Q1589.73 150.639 1589.73 161.819 Q1589.73 172.959 1584.18 179.319 Q1578.63 185.639 1568.91 185.639 Q1559.14 185.639 1553.59 179.319 Q1548.09 172.959 1548.09 161.819 Q1548.09 150.639 1553.59 144.32 Q1559.14 138 1568.91 138 Z" fill="#000000" fill-rule="nonzero" fill-opacity="1" /><path clip-path="url(#clip260)" d="M1639.8 157.08 L1639.8 184.464 L1632.34 184.464 L1632.34 157.323 Q1632.34 150.882 1629.83 147.682 Q1627.32 144.482 1622.3 144.482 Q1616.26 144.482 1612.78 148.33 Q1609.29 152.178 1609.29 158.822 L1609.29 184.464 L1601.8 184.464 L1601.8 139.094 L1609.29 139.094 L1609.29 146.142 Q1611.97 142.051 1615.57 140.026 Q1619.22 138 1623.96 138 Q1631.78 138 1635.79 142.861 Q1639.8 147.682 1639.8 157.08 Z" fill="#000000" fill-rule="nonzero" fill-opacity="1" /><path clip-path="url(#clip260)" d="M1683.59 140.431 L1683.59 147.479 Q1680.43 145.859 1677.03 145.049 Q1673.62 144.239 1669.98 144.239 Q1664.43 144.239 1661.63 145.94 Q1658.88 147.641 1658.88 151.044 Q1658.88 153.637 1660.86 155.135 Q1662.85 156.594 1668.84 157.931 L1671.39 158.498 Q1679.33 160.199 1682.66 163.318 Q1686.02 166.397 1686.02 171.947 Q1686.02 178.266 1681 181.952 Q1676.01 185.639 1667.26 185.639 Q1663.62 185.639 1659.65 184.91 Q1655.72 184.221 1651.34 182.803 L1651.34 175.106 Q1655.47 177.253 1659.48 178.347 Q1663.5 179.4 1667.42 179.4 Q1672.69 179.4 1675.53 177.618 Q1678.36 175.795 1678.36 172.514 Q1678.36 169.476 1676.3 167.855 Q1674.27 166.235 1667.34 164.736 L1664.75 164.128 Q1657.82 162.67 1654.75 159.672 Q1651.67 156.634 1651.67 151.368 Q1651.67 144.968 1656.2 141.484 Q1660.74 138 1669.09 138 Q1673.22 138 1676.86 138.608 Q1680.51 139.215 1683.59 140.431 Z" fill="#000000" fill-rule="nonzero" fill-opacity="1" /><path clip-path="url(#clip260)" d="M1718.91 139.094 L1726.81 139.094 L1740.99 177.172 L1755.17 139.094 L1763.07 139.094 L1746.05 184.464 L1735.93 184.464 L1718.91 139.094 Z" fill="#000000" fill-rule="nonzero" fill-opacity="1" /><path clip-path="url(#clip260)" d="M1802.28 140.431 L1802.28 147.479 Q1799.12 145.859 1795.72 145.049 Q1792.31 144.239 1788.67 144.239 Q1783.12 144.239 1780.32 145.94 Q1777.57 147.641 1777.57 151.044 Q1777.57 153.637 1779.55 155.135 Q1781.54 156.594 1787.53 157.931 L1790.09 158.498 Q1798.03 160.199 1801.35 163.318 Q1804.71 166.397 1804.71 171.947 Q1804.71 178.266 1799.69 181.952 Q1794.7 185.639 1785.95 185.639 Q1782.31 185.639 1778.34 184.91 Q1774.41 184.221 1770.03 182.803 L1770.03 175.106 Q1774.17 177.253 1778.18 178.347 Q1782.19 179.4 1786.12 179.4 Q1791.38 179.4 1794.22 177.618 Q1797.05 175.795 1797.05 172.514 Q1797.05 169.476 1794.99 167.855 Q1792.96 166.235 1786.04 164.736 L1783.44 164.128 Q1776.52 162.67 1773.44 159.672 Q1770.36 156.634 1770.36 151.368 Q1770.36 144.968 1774.9 141.484 Q1779.43 138 1787.78 138 Q1791.91 138 1795.55 138.608 Q1799.2 139.215 1802.28 140.431 Z" fill="#000000" fill-rule="nonzero" fill-opacity="1" /><path clip-path="url(#clip260)" d="M1888.56 128.643 L1888.56 137.271 Q1884.43 133.423 1879.73 131.519 Q1875.07 129.615 1869.81 129.615 Q1859.44 129.615 1853.93 135.975 Q1848.42 142.294 1848.42 154.285 Q1848.42 166.235 1853.93 172.595 Q1859.44 178.914 1869.81 178.914 Q1875.07 178.914 1879.73 177.01 Q1884.43 175.106 1888.56 171.258 L1888.56 179.805 Q1884.27 182.722 1879.45 184.18 Q1874.67 185.639 1869.32 185.639 Q1855.59 185.639 1847.69 177.253 Q1839.79 168.828 1839.79 154.285 Q1839.79 139.702 1847.69 131.316 Q1855.59 122.89 1869.32 122.89 Q1874.75 122.89 1879.53 124.349 Q1884.35 125.766 1888.56 128.643 Z" fill="#000000" fill-rule="nonzero" fill-opacity="1" /><path clip-path="url(#clip260)" d="M1909.39 130.709 L1909.39 153.434 L1919.67 153.434 Q1925.39 153.434 1928.51 150.477 Q1931.62 147.52 1931.62 142.051 Q1931.62 136.623 1928.51 133.666 Q1925.39 130.709 1919.67 130.709 L1909.39 130.709 M1901.2 123.984 L1919.67 123.984 Q1929.84 123.984 1935.03 128.602 Q1940.25 133.18 1940.25 142.051 Q1940.25 151.004 1935.03 155.581 Q1929.84 160.159 1919.67 160.159 L1909.39 160.159 L1909.39 184.464 L1901.2 184.464 L1901.2 123.984 Z" fill="#000000" fill-rule="nonzero" fill-opacity="1" /><path clip-path="url(#clip260)" d="M1950.3 123.984 L1958.52 123.984 L1958.52 160.726 Q1958.52 170.448 1962.05 174.742 Q1965.57 178.995 1973.47 178.995 Q1981.33 178.995 1984.85 174.742 Q1988.38 170.448 1988.38 160.726 L1988.38 123.984 L1996.6 123.984 L1996.6 161.738 Q1996.6 173.567 1990.73 179.603 Q1984.89 185.639 1973.47 185.639 Q1962.01 185.639 1956.13 179.603 Q1950.3 173.567 1950.3 161.738 L1950.3 123.984 Z" fill="#000000" fill-rule="nonzero" fill-opacity="1" /><path clip-path="url(#clip260)" d="M2045.37 126.212 L2045.37 139.094 L2060.73 139.094 L2060.73 144.887 L2045.37 144.887 L2045.37 169.516 Q2045.37 175.066 2046.87 176.646 Q2048.41 178.226 2053.07 178.226 L2060.73 178.226 L2060.73 184.464 L2053.07 184.464 Q2044.44 184.464 2041.16 181.264 Q2037.88 178.023 2037.88 169.516 L2037.88 144.887 L2032.41 144.887 L2032.41 139.094 L2037.88 139.094 L2037.88 126.212 L2045.37 126.212 Z" fill="#000000" fill-rule="nonzero" fill-opacity="1" /><path clip-path="url(#clip260)" d="M2070.53 139.094 L2077.98 139.094 L2077.98 184.464 L2070.53 184.464 L2070.53 139.094 M2070.53 121.432 L2077.98 121.432 L2077.98 130.871 L2070.53 130.871 L2070.53 121.432 Z" fill="#000000" fill-rule="nonzero" fill-opacity="1" /><path clip-path="url(#clip260)" d="M2128.9 147.803 Q2131.7 142.78 2135.59 140.39 Q2139.48 138 2144.74 138 Q2151.83 138 2155.68 142.983 Q2159.53 147.925 2159.53 157.08 L2159.53 184.464 L2152.03 184.464 L2152.03 157.323 Q2152.03 150.801 2149.73 147.641 Q2147.42 144.482 2142.68 144.482 Q2136.88 144.482 2133.52 148.33 Q2130.16 152.178 2130.16 158.822 L2130.16 184.464 L2122.67 184.464 L2122.67 157.323 Q2122.67 150.76 2120.36 147.641 Q2118.05 144.482 2113.23 144.482 Q2107.51 144.482 2104.15 148.37 Q2100.79 152.219 2100.79 158.822 L2100.79 184.464 L2093.3 184.464 L2093.3 139.094 L2100.79 139.094 L2100.79 146.142 Q2103.34 141.97 2106.91 139.985 Q2110.47 138 2115.37 138 Q2120.32 138 2123.76 140.512 Q2127.24 143.023 2128.9 147.803 Z" fill="#000000" fill-rule="nonzero" fill-opacity="1" /><path clip-path="url(#clip260)" d="M2213.2 159.916 L2213.2 163.561 L2178.93 163.561 Q2179.42 171.258 2183.55 175.309 Q2187.72 179.319 2195.14 179.319 Q2199.43 179.319 2203.44 178.266 Q2207.49 177.213 2211.46 175.106 L2211.46 182.155 Q2207.45 183.856 2203.24 184.748 Q2199.02 185.639 2194.69 185.639 Q2183.83 185.639 2177.47 179.319 Q2171.15 173 2171.15 162.225 Q2171.15 151.085 2177.15 144.563 Q2183.19 138 2193.39 138 Q2202.55 138 2207.86 143.914 Q2213.2 149.788 2213.2 159.916 M2205.75 157.728 Q2205.67 151.611 2202.31 147.965 Q2198.98 144.32 2193.48 144.32 Q2187.24 144.32 2183.47 147.844 Q2179.74 151.368 2179.18 157.769 L2205.75 157.728 Z" fill="#000000" fill-rule="nonzero" fill-opacity="1" /><path clip-path="url(#clip260)" d="M2248.04 158.822 L2322.9 158.822 L2322.9 164.655 L2248.04 164.655 L2248.04 158.822 Z" fill="#000000" fill-rule="nonzero" fill-opacity="1" /><path clip-path="url(#clip260)" d="M2387.43 146.061 Q2386.18 145.332 2384.68 145.008 Q2383.22 144.644 2381.44 144.644 Q2375.12 144.644 2371.71 148.776 Q2368.35 152.867 2368.35 160.564 L2368.35 184.464 L2360.86 184.464 L2360.86 139.094 L2368.35 139.094 L2368.35 146.142 Q2370.7 142.011 2374.47 140.026 Q2378.24 138 2383.62 138 Q2384.39 138 2385.33 138.122 Q2386.26 138.203 2387.39 138.405 L2387.43 146.061 Z" fill="#000000" fill-rule="nonzero" fill-opacity="1" /><path clip-path="url(#clip260)" d="M2411.01 144.32 Q2405.01 144.32 2401.53 149.019 Q2398.05 153.677 2398.05 161.819 Q2398.05 169.962 2401.49 174.661 Q2404.97 179.319 2411.01 179.319 Q2416.96 179.319 2420.45 174.62 Q2423.93 169.921 2423.93 161.819 Q2423.93 153.758 2420.45 149.059 Q2416.96 144.32 2411.01 144.32 M2411.01 138 Q2420.73 138 2426.28 144.32 Q2431.83 150.639 2431.83 161.819 Q2431.83 172.959 2426.28 179.319 Q2420.73 185.639 2411.01 185.639 Q2401.25 185.639 2395.7 179.319 Q2390.19 172.959 2390.19 161.819 Q2390.19 150.639 2395.7 144.32 Q2401.25 138 2411.01 138 Z" fill="#000000" fill-rule="nonzero" fill-opacity="1" /><path clip-path="url(#clip260)" d="M2476.84 140.836 L2476.84 147.803 Q2473.68 146.061 2470.48 145.211 Q2467.32 144.32 2464.08 144.32 Q2456.82 144.32 2452.81 148.938 Q2448.8 153.515 2448.8 161.819 Q2448.8 170.124 2452.81 174.742 Q2456.82 179.319 2464.08 179.319 Q2467.32 179.319 2470.48 178.469 Q2473.68 177.577 2476.84 175.836 L2476.84 182.722 Q2473.72 184.18 2470.35 184.91 Q2467.03 185.639 2463.27 185.639 Q2453.02 185.639 2446.98 179.198 Q2440.94 172.757 2440.94 161.819 Q2440.94 150.72 2447.02 144.36 Q2453.14 138 2463.75 138 Q2467.19 138 2470.48 138.729 Q2473.76 139.418 2476.84 140.836 Z" fill="#000000" fill-rule="nonzero" fill-opacity="1" /><path clip-path="url(#clip260)" d="M2489.52 121.432 L2497.01 121.432 L2497.01 158.66 L2519.25 139.094 L2528.77 139.094 L2504.71 160.321 L2529.78 184.464 L2520.06 184.464 L2497.01 162.306 L2497.01 184.464 L2489.52 184.464 L2489.52 121.432 Z" fill="#000000" fill-rule="nonzero" fill-opacity="1" /><path clip-path="url(#clip260)" d="M2573.69 159.916 L2573.69 163.561 L2539.42 163.561 Q2539.91 171.258 2544.04 175.309 Q2548.21 179.319 2555.63 179.319 Q2559.92 179.319 2563.93 178.266 Q2567.98 177.213 2571.95 175.106 L2571.95 182.155 Q2567.94 183.856 2563.73 184.748 Q2559.51 185.639 2555.18 185.639 Q2544.32 185.639 2537.96 179.319 Q2531.64 173 2531.64 162.225 Q2531.64 151.085 2537.64 144.563 Q2543.68 138 2553.88 138 Q2563.04 138 2568.35 143.914 Q2573.69 149.788 2573.69 159.916 M2566.24 157.728 Q2566.16 151.611 2562.8 147.965 Q2559.47 144.32 2553.97 144.32 Q2547.73 144.32 2543.96 147.844 Q2540.23 151.368 2539.67 157.769 L2566.24 157.728 Z" fill="#000000" fill-rule="nonzero" fill-opacity="1" /><path clip-path="url(#clip260)" d="M2593.3 126.212 L2593.3 139.094 L2608.65 139.094 L2608.65 144.887 L2593.3 144.887 L2593.3 169.516 Q2593.3 175.066 2594.8 176.646 Q2596.34 178.226 2601 178.226 L2608.65 178.226 L2608.65 184.464 L2601 184.464 Q2592.37 184.464 2589.09 181.264 Q2585.81 178.023 2585.81 169.516 L2585.81 144.887 L2580.34 144.887 L2580.34 139.094 L2585.81 139.094 L2585.81 126.212 L2593.3 126.212 Z" fill="#000000" fill-rule="nonzero" fill-opacity="1" /><path clip-path="url(#clip262)" d="M1202.62 2078.46 L1178.62 2126.46 L1226.62 2126.46 L1202.62 2078.46 Z" fill="#ffa500" fill-rule="evenodd" fill-opacity="1" stroke="none"/>
<path clip-path="url(#clip262)" d="M449.373 1072.04 L425.373 1120.04 L473.373 1120.04 L449.373 1072.04 Z" fill="#ffa500" fill-rule="evenodd" fill-opacity="1" stroke="none"/>
<path clip-path="url(#clip262)" d="M1579.25 578.388 L1555.25 626.388 L1603.25 626.388 L1579.25 578.388 Z" fill="#ffa500" fill-rule="evenodd" fill-opacity="1" stroke="none"/>
<path clip-path="url(#clip262)" d="M449.373 276.989 L425.373 324.989 L473.373 324.989 L449.373 276.989 Z" fill="#ffa500" fill-rule="evenodd" fill-opacity="1" stroke="none"/>
<path clip-path="url(#clip262)" d="M1579.25 1657.2 L1558.46 1645.2 L1558.46 1621.2 L1579.25 1609.2 L1600.03 1621.2 L1600.03 1645.2 Z" fill="#00ffff" fill-rule="evenodd" fill-opacity="1" stroke="none"/>
<path clip-path="url(#clip262)" d="M2709.12 1177.33 L2688.33 1165.33 L2688.33 1141.33 L2709.12 1129.33 L2729.9 1141.33 L2729.9 1165.33 Z" fill="#00ffff" fill-rule="evenodd" fill-opacity="1" stroke="none"/>
<path clip-path="url(#clip262)" d="M2709.12 857.583 L2688.33 845.583 L2688.33 821.583 L2709.12 809.583 L2729.9 821.583 L2729.9 845.583 Z" fill="#00ffff" fill-rule="evenodd" fill-opacity="1" stroke="none"/>
<path clip-path="url(#clip262)" d="M3462.37 563.41 L3441.58 551.41 L3441.58 527.41 L3462.37 515.41 L3483.15 527.41 L3483.15 551.41 Z" fill="#00ffff" fill-rule="evenodd" fill-opacity="1" stroke="none"/>
<path clip-path="url(#clip260)" d="M2689.93 466.116 L3446.3 466.116 L3446.3 310.596 L2689.93 310.596  Z" fill="#ffffff" fill-rule="evenodd" fill-opacity="1"/>
<polyline clip-path="url(#clip260)" style="stroke:#000000; stroke-linecap:round; stroke-linejoin:round; stroke-width:4; stroke-opacity:1; fill:none" points="2689.93,466.116 3446.3,466.116 3446.3,310.596 2689.93,310.596 2689.93,466.116 "/>
<path clip-path="url(#clip260)" d="M2831.88 336.836 L2806.28 388.036 L2857.48 388.036 L2831.88 336.836 Z" fill="#ffa500" fill-rule="evenodd" fill-opacity="1" stroke="none"/>
<path clip-path="url(#clip260)" d="M2984.45 343.744 Q2981.35 349.068 2979.84 354.277 Q2978.34 359.485 2978.34 364.832 Q2978.34 370.179 2979.84 375.434 Q2981.37 380.665 2984.45 385.966 L2980.74 385.966 Q2977.27 380.527 2975.53 375.272 Q2973.82 370.017 2973.82 364.832 Q2973.82 359.67 2975.53 354.439 Q2977.25 349.207 2980.74 343.744 L2984.45 343.744 Z" fill="#000000" fill-rule="nonzero" fill-opacity="1" /><path clip-path="url(#clip260)" d="M3014.89 365.689 L3014.89 367.772 L2995.3 367.772 Q2995.58 372.17 2997.94 374.485 Q3000.33 376.777 3004.56 376.777 Q3007.02 376.777 3009.31 376.175 Q3011.62 375.573 3013.89 374.369 L3013.89 378.397 Q3011.6 379.369 3009.19 379.878 Q3006.78 380.388 3004.31 380.388 Q2998.1 380.388 2994.47 376.777 Q2990.86 373.165 2990.86 367.008 Q2990.86 360.642 2994.28 356.916 Q2997.73 353.166 3003.57 353.166 Q3008.8 353.166 3011.83 356.545 Q3014.89 359.902 3014.89 365.689 M3010.63 364.439 Q3010.58 360.943 3008.66 358.86 Q3006.76 356.777 3003.61 356.777 Q3000.05 356.777 2997.9 358.791 Q2995.77 360.804 2995.44 364.462 L3010.63 364.439 Z" fill="#000000" fill-rule="nonzero" fill-opacity="1" /><path clip-path="url(#clip260)" d="M3042.59 353.791 L3033.22 366.406 L3043.08 379.716 L3038.06 379.716 L3030.51 369.531 L3022.97 379.716 L3017.94 379.716 L3028.01 366.152 L3018.8 353.791 L3023.82 353.791 L3030.7 363.027 L3037.57 353.791 L3042.59 353.791 Z" fill="#000000" fill-rule="nonzero" fill-opacity="1" /><path clip-path="url(#clip260)" d="M3060.88 366.684 Q3055.72 366.684 3053.73 367.865 Q3051.74 369.045 3051.74 371.892 Q3051.74 374.161 3053.22 375.503 Q3054.72 376.823 3057.29 376.823 Q3060.84 376.823 3062.97 374.323 Q3065.12 371.8 3065.12 367.633 L3065.12 366.684 L3060.88 366.684 M3069.38 364.925 L3069.38 379.716 L3065.12 379.716 L3065.12 375.781 Q3063.66 378.142 3061.48 379.277 Q3059.31 380.388 3056.16 380.388 Q3052.18 380.388 3049.82 378.165 Q3047.48 375.92 3047.48 372.17 Q3047.48 367.795 3050.4 365.573 Q3053.34 363.351 3059.15 363.351 L3065.12 363.351 L3065.12 362.934 Q3065.12 359.994 3063.17 358.397 Q3061.25 356.777 3057.76 356.777 Q3055.53 356.777 3053.43 357.309 Q3051.32 357.841 3049.38 358.906 L3049.38 354.971 Q3051.72 354.068 3053.91 353.629 Q3056.11 353.166 3058.2 353.166 Q3063.82 353.166 3066.6 356.082 Q3069.38 358.999 3069.38 364.925 Z" fill="#000000" fill-rule="nonzero" fill-opacity="1" /><path clip-path="url(#clip260)" d="M3079.24 373.837 L3084.12 373.837 L3084.12 377.818 L3080.33 385.226 L3077.34 385.226 L3079.24 377.818 L3079.24 373.837 Z" fill="#000000" fill-rule="nonzero" fill-opacity="1" /><path clip-path="url(#clip260)" d="M3128.47 358.767 Q3130.07 355.897 3132.29 354.531 Q3134.52 353.166 3137.52 353.166 Q3141.58 353.166 3143.77 356.013 Q3145.97 358.837 3145.97 364.068 L3145.97 379.716 L3141.69 379.716 L3141.69 364.207 Q3141.69 360.48 3140.37 358.675 Q3139.05 356.869 3136.34 356.869 Q3133.03 356.869 3131.11 359.068 Q3129.19 361.267 3129.19 365.064 L3129.19 379.716 L3124.91 379.716 L3124.91 364.207 Q3124.91 360.457 3123.59 358.675 Q3122.27 356.869 3119.52 356.869 Q3116.25 356.869 3114.33 359.091 Q3112.41 361.291 3112.41 365.064 L3112.41 379.716 L3108.13 379.716 L3108.13 353.791 L3112.41 353.791 L3112.41 357.818 Q3113.87 355.434 3115.9 354.3 Q3117.94 353.166 3120.74 353.166 Q3123.57 353.166 3125.53 354.601 Q3127.52 356.036 3128.47 358.767 Z" fill="#000000" fill-rule="nonzero" fill-opacity="1" /><path clip-path="url(#clip260)" d="M3166.25 366.684 Q3161.09 366.684 3159.1 367.865 Q3157.11 369.045 3157.11 371.892 Q3157.11 374.161 3158.59 375.503 Q3160.09 376.823 3162.66 376.823 Q3166.21 376.823 3168.33 374.323 Q3170.49 371.8 3170.49 367.633 L3170.49 366.684 L3166.25 366.684 M3174.75 364.925 L3174.75 379.716 L3170.49 379.716 L3170.49 375.781 Q3169.03 378.142 3166.85 379.277 Q3164.68 380.388 3161.53 380.388 Q3157.55 380.388 3155.19 378.165 Q3152.85 375.92 3152.85 372.17 Q3152.85 367.795 3155.77 365.573 Q3158.71 363.351 3164.52 363.351 L3170.49 363.351 L3170.49 362.934 Q3170.49 359.994 3168.54 358.397 Q3166.62 356.777 3163.13 356.777 Q3160.9 356.777 3158.8 357.309 Q3156.69 357.841 3154.75 358.906 L3154.75 354.971 Q3157.08 354.068 3159.28 353.629 Q3161.48 353.166 3163.57 353.166 Q3169.19 353.166 3171.97 356.082 Q3174.75 358.999 3174.75 364.925 Z" fill="#000000" fill-rule="nonzero" fill-opacity="1" /><path clip-path="url(#clip260)" d="M3200.58 357.726 L3200.58 343.698 L3204.84 343.698 L3204.84 379.716 L3200.58 379.716 L3200.58 375.827 Q3199.24 378.142 3197.18 379.277 Q3195.14 380.388 3192.27 380.388 Q3187.57 380.388 3184.61 376.638 Q3181.67 372.888 3181.67 366.777 Q3181.67 360.666 3184.61 356.916 Q3187.57 353.166 3192.27 353.166 Q3195.14 353.166 3197.18 354.3 Q3199.24 355.411 3200.58 357.726 M3186.07 366.777 Q3186.07 371.476 3187.99 374.161 Q3189.93 376.823 3193.31 376.823 Q3196.69 376.823 3198.64 374.161 Q3200.58 371.476 3200.58 366.777 Q3200.58 362.078 3198.64 359.416 Q3196.69 356.73 3193.31 356.73 Q3189.93 356.73 3187.99 359.416 Q3186.07 362.078 3186.07 366.777 Z" fill="#000000" fill-rule="nonzero" fill-opacity="1" /><path clip-path="url(#clip260)" d="M3235.16 364.068 L3235.16 379.716 L3230.9 379.716 L3230.9 364.207 Q3230.9 360.527 3229.47 358.698 Q3228.03 356.869 3225.16 356.869 Q3221.71 356.869 3219.72 359.068 Q3217.73 361.267 3217.73 365.064 L3217.73 379.716 L3213.45 379.716 L3213.45 353.791 L3217.73 353.791 L3217.73 357.818 Q3219.26 355.48 3221.32 354.323 Q3223.4 353.166 3226.11 353.166 Q3230.58 353.166 3232.87 355.943 Q3235.16 358.698 3235.16 364.068 Z" fill="#000000" fill-rule="nonzero" fill-opacity="1" /><path clip-path="url(#clip260)" d="M3243.66 343.698 L3247.92 343.698 L3247.92 379.716 L3243.66 379.716 L3243.66 343.698 Z" fill="#000000" fill-rule="nonzero" fill-opacity="1" /><path clip-path="url(#clip260)" d="M3260.95 375.827 L3260.95 389.577 L3256.67 389.577 L3256.67 353.791 L3260.95 353.791 L3260.95 357.726 Q3262.29 355.411 3264.33 354.3 Q3266.39 353.166 3269.24 353.166 Q3273.96 353.166 3276.9 356.916 Q3279.86 360.666 3279.86 366.777 Q3279.86 372.888 3276.9 376.638 Q3273.96 380.388 3269.24 380.388 Q3266.39 380.388 3264.33 379.277 Q3262.29 378.142 3260.95 375.827 M3275.44 366.777 Q3275.44 362.078 3273.5 359.416 Q3271.58 356.73 3268.2 356.73 Q3264.82 356.73 3262.87 359.416 Q3260.95 362.078 3260.95 366.777 Q3260.95 371.476 3262.87 374.161 Q3264.82 376.823 3268.2 376.823 Q3271.58 376.823 3273.5 374.161 Q3275.44 371.476 3275.44 366.777 Z" fill="#000000" fill-rule="nonzero" fill-opacity="1" /><path clip-path="url(#clip260)" d="M3286.25 343.744 L3289.95 343.744 Q3293.43 349.207 3295.14 354.439 Q3296.88 359.67 3296.88 364.832 Q3296.88 370.017 3295.14 375.272 Q3293.43 380.527 3289.95 385.966 L3286.25 385.966 Q3289.33 380.665 3290.83 375.434 Q3292.36 370.179 3292.36 364.832 Q3292.36 359.485 3290.83 354.277 Q3289.33 349.068 3286.25 343.744 Z" fill="#000000" fill-rule="nonzero" fill-opacity="1" /><path clip-path="url(#clip260)" d="M2831.88 439.876 L2809.71 427.076 L2809.71 401.476 L2831.88 388.676 L2854.05 401.476 L2854.05 427.076 Z" fill="#00ffff" fill-rule="evenodd" fill-opacity="1" stroke="none"/>
<path clip-path="url(#clip260)" d="M2984.45 395.584 Q2981.35 400.908 2979.84 406.117 Q2978.34 411.325 2978.34 416.672 Q2978.34 422.019 2979.84 427.274 Q2981.37 432.505 2984.45 437.806 L2980.74 437.806 Q2977.27 432.367 2975.53 427.112 Q2973.82 421.857 2973.82 416.672 Q2973.82 411.51 2975.53 406.279 Q2977.25 401.047 2980.74 395.584 L2984.45 395.584 Z" fill="#000000" fill-rule="nonzero" fill-opacity="1" /><path clip-path="url(#clip260)" d="M3014.89 417.529 L3014.89 419.612 L2995.3 419.612 Q2995.58 424.01 2997.94 426.325 Q3000.33 428.617 3004.56 428.617 Q3007.02 428.617 3009.31 428.015 Q3011.62 427.413 3013.89 426.209 L3013.89 430.237 Q3011.6 431.209 3009.19 431.718 Q3006.78 432.228 3004.31 432.228 Q2998.1 432.228 2994.47 428.617 Q2990.86 425.005 2990.86 418.848 Q2990.86 412.482 2994.28 408.756 Q2997.73 405.006 3003.57 405.006 Q3008.8 405.006 3011.83 408.385 Q3014.89 411.742 3014.89 417.529 M3010.63 416.279 Q3010.58 412.783 3008.66 410.7 Q3006.76 408.617 3003.61 408.617 Q3000.05 408.617 2997.9 410.631 Q2995.77 412.644 2995.44 416.302 L3010.63 416.279 Z" fill="#000000" fill-rule="nonzero" fill-opacity="1" /><path clip-path="url(#clip260)" d="M3042.59 405.631 L3033.22 418.246 L3043.08 431.556 L3038.06 431.556 L3030.51 421.371 L3022.97 431.556 L3017.94 431.556 L3028.01 417.992 L3018.8 405.631 L3023.82 405.631 L3030.7 414.867 L3037.57 405.631 L3042.59 405.631 Z" fill="#000000" fill-rule="nonzero" fill-opacity="1" /><path clip-path="url(#clip260)" d="M3060.88 418.524 Q3055.72 418.524 3053.73 419.705 Q3051.74 420.885 3051.74 423.732 Q3051.74 426.001 3053.22 427.343 Q3054.72 428.663 3057.29 428.663 Q3060.84 428.663 3062.97 426.163 Q3065.12 423.64 3065.12 419.473 L3065.12 418.524 L3060.88 418.524 M3069.38 416.765 L3069.38 431.556 L3065.12 431.556 L3065.12 427.621 Q3063.66 429.982 3061.48 431.117 Q3059.31 432.228 3056.16 432.228 Q3052.18 432.228 3049.82 430.005 Q3047.48 427.76 3047.48 424.01 Q3047.48 419.635 3050.4 417.413 Q3053.34 415.191 3059.15 415.191 L3065.12 415.191 L3065.12 414.774 Q3065.12 411.834 3063.17 410.237 Q3061.25 408.617 3057.76 408.617 Q3055.53 408.617 3053.43 409.149 Q3051.32 409.681 3049.38 410.746 L3049.38 406.811 Q3051.72 405.908 3053.91 405.469 Q3056.11 405.006 3058.2 405.006 Q3063.82 405.006 3066.6 407.922 Q3069.38 410.839 3069.38 416.765 Z" fill="#000000" fill-rule="nonzero" fill-opacity="1" /><path clip-path="url(#clip260)" d="M3097.85 439.427 L3097.85 442.737 L3073.22 442.737 L3073.22 439.427 L3097.85 439.427 Z" fill="#000000" fill-rule="nonzero" fill-opacity="1" /><path clip-path="url(#clip260)" d="M3118.91 418.293 Q3118.91 413.663 3116.99 411.117 Q3115.09 408.57 3111.65 408.57 Q3108.22 408.57 3106.3 411.117 Q3104.4 413.663 3104.4 418.293 Q3104.4 422.899 3106.3 425.445 Q3108.22 427.992 3111.65 427.992 Q3115.09 427.992 3116.99 425.445 Q3118.91 422.899 3118.91 418.293 M3123.17 428.339 Q3123.17 434.959 3120.23 438.177 Q3117.29 441.417 3111.23 441.417 Q3108.98 441.417 3106.99 441.07 Q3105 440.746 3103.13 440.052 L3103.13 435.908 Q3105 436.927 3106.83 437.413 Q3108.66 437.899 3110.56 437.899 Q3114.75 437.899 3116.83 435.7 Q3118.91 433.524 3118.91 429.103 L3118.91 426.996 Q3117.59 429.288 3115.53 430.422 Q3113.47 431.556 3110.6 431.556 Q3105.84 431.556 3102.92 427.922 Q3100 424.288 3100 418.293 Q3100 412.274 3102.92 408.64 Q3105.84 405.006 3110.6 405.006 Q3113.47 405.006 3115.53 406.14 Q3117.59 407.274 3118.91 409.566 L3118.91 405.631 L3123.17 405.631 L3123.17 428.339 Z" fill="#000000" fill-rule="nonzero" fill-opacity="1" /><path clip-path="url(#clip260)" d="M3136.07 427.667 L3136.07 441.417 L3131.78 441.417 L3131.78 405.631 L3136.07 405.631 L3136.07 409.566 Q3137.41 407.251 3139.45 406.14 Q3141.51 405.006 3144.35 405.006 Q3149.08 405.006 3152.02 408.756 Q3154.98 412.506 3154.98 418.617 Q3154.98 424.728 3152.02 428.478 Q3149.08 432.228 3144.35 432.228 Q3141.51 432.228 3139.45 431.117 Q3137.41 429.982 3136.07 427.667 M3150.56 418.617 Q3150.56 413.918 3148.61 411.256 Q3146.69 408.57 3143.31 408.57 Q3139.93 408.57 3137.99 411.256 Q3136.07 413.918 3136.07 418.617 Q3136.07 423.316 3137.99 426.001 Q3139.93 428.663 3143.31 428.663 Q3146.69 428.663 3148.61 426.001 Q3150.56 423.316 3150.56 418.617 Z" fill="#000000" fill-rule="nonzero" fill-opacity="1" /><path clip-path="url(#clip260)" d="M3161.6 421.325 L3161.6 405.631 L3165.86 405.631 L3165.86 421.163 Q3165.86 424.843 3167.29 426.695 Q3168.73 428.524 3171.6 428.524 Q3175.05 428.524 3177.04 426.325 Q3179.05 424.126 3179.05 420.33 L3179.05 405.631 L3183.31 405.631 L3183.31 431.556 L3179.05 431.556 L3179.05 427.575 Q3177.5 429.936 3175.44 431.093 Q3173.4 432.228 3170.7 432.228 Q3166.23 432.228 3163.91 429.45 Q3161.6 426.672 3161.6 421.325 M3172.32 405.006 L3172.32 405.006 Z" fill="#000000" fill-rule="nonzero" fill-opacity="1" /><path clip-path="url(#clip260)" d="M3193.17 425.677 L3198.06 425.677 L3198.06 429.658 L3194.26 437.066 L3191.27 437.066 L3193.17 429.658 L3193.17 425.677 Z" fill="#000000" fill-rule="nonzero" fill-opacity="1" /><path clip-path="url(#clip260)" d="M3242.41 410.607 Q3244.01 407.737 3246.23 406.371 Q3248.45 405.006 3251.46 405.006 Q3255.51 405.006 3257.71 407.853 Q3259.91 410.677 3259.91 415.908 L3259.91 431.556 L3255.63 431.556 L3255.63 416.047 Q3255.63 412.32 3254.31 410.515 Q3252.99 408.709 3250.28 408.709 Q3246.97 408.709 3245.05 410.908 Q3243.13 413.107 3243.13 416.904 L3243.13 431.556 L3238.84 431.556 L3238.84 416.047 Q3238.84 412.297 3237.52 410.515 Q3236.2 408.709 3233.45 408.709 Q3230.19 408.709 3228.27 410.931 Q3226.34 413.131 3226.34 416.904 L3226.34 431.556 L3222.06 431.556 L3222.06 405.631 L3226.34 405.631 L3226.34 409.658 Q3227.8 407.274 3229.84 406.14 Q3231.88 405.006 3234.68 405.006 Q3237.5 405.006 3239.47 406.441 Q3241.46 407.876 3242.41 410.607 Z" fill="#000000" fill-rule="nonzero" fill-opacity="1" /><path clip-path="url(#clip260)" d="M3280.19 418.524 Q3275.02 418.524 3273.03 419.705 Q3271.04 420.885 3271.04 423.732 Q3271.04 426.001 3272.52 427.343 Q3274.03 428.663 3276.6 428.663 Q3280.14 428.663 3282.27 426.163 Q3284.42 423.64 3284.42 419.473 L3284.42 418.524 L3280.19 418.524 M3288.68 416.765 L3288.68 431.556 L3284.42 431.556 L3284.42 427.621 Q3282.96 429.982 3280.79 431.117 Q3278.61 432.228 3275.46 432.228 Q3271.48 432.228 3269.12 430.005 Q3266.78 427.76 3266.78 424.01 Q3266.78 419.635 3269.7 417.413 Q3272.64 415.191 3278.45 415.191 L3284.42 415.191 L3284.42 414.774 Q3284.42 411.834 3282.48 410.237 Q3280.56 408.617 3277.06 408.617 Q3274.84 408.617 3272.73 409.149 Q3270.63 409.681 3268.68 410.746 L3268.68 406.811 Q3271.02 405.908 3273.22 405.469 Q3275.42 405.006 3277.5 405.006 Q3283.13 405.006 3285.9 407.922 Q3288.68 410.839 3288.68 416.765 Z" fill="#000000" fill-rule="nonzero" fill-opacity="1" /><path clip-path="url(#clip260)" d="M3314.51 409.566 L3314.51 395.538 L3318.77 395.538 L3318.77 431.556 L3314.51 431.556 L3314.51 427.667 Q3313.17 429.982 3311.11 431.117 Q3309.07 432.228 3306.2 432.228 Q3301.51 432.228 3298.54 428.478 Q3295.6 424.728 3295.6 418.617 Q3295.6 412.506 3298.54 408.756 Q3301.51 405.006 3306.2 405.006 Q3309.07 405.006 3311.11 406.14 Q3313.17 407.251 3314.51 409.566 M3300 418.617 Q3300 423.316 3301.92 426.001 Q3303.87 428.663 3307.25 428.663 Q3310.63 428.663 3312.57 426.001 Q3314.51 423.316 3314.51 418.617 Q3314.51 413.918 3312.57 411.256 Q3310.63 408.57 3307.25 408.57 Q3303.87 408.57 3301.92 411.256 Q3300 413.918 3300 418.617 Z" fill="#000000" fill-rule="nonzero" fill-opacity="1" /><path clip-path="url(#clip260)" d="M3349.1 415.908 L3349.1 431.556 L3344.84 431.556 L3344.84 416.047 Q3344.84 412.367 3343.4 410.538 Q3341.97 408.709 3339.1 408.709 Q3335.65 408.709 3333.66 410.908 Q3331.67 413.107 3331.67 416.904 L3331.67 431.556 L3327.38 431.556 L3327.38 405.631 L3331.67 405.631 L3331.67 409.658 Q3333.2 407.32 3335.26 406.163 Q3337.34 405.006 3340.05 405.006 Q3344.51 405.006 3346.81 407.783 Q3349.1 410.538 3349.1 415.908 Z" fill="#000000" fill-rule="nonzero" fill-opacity="1" /><path clip-path="url(#clip260)" d="M3357.59 395.538 L3361.85 395.538 L3361.85 431.556 L3357.59 431.556 L3357.59 395.538 Z" fill="#000000" fill-rule="nonzero" fill-opacity="1" /><path clip-path="url(#clip260)" d="M3374.88 427.667 L3374.88 441.417 L3370.6 441.417 L3370.6 405.631 L3374.88 405.631 L3374.88 409.566 Q3376.23 407.251 3378.26 406.14 Q3380.32 405.006 3383.17 405.006 Q3387.89 405.006 3390.83 408.756 Q3393.8 412.506 3393.8 418.617 Q3393.8 424.728 3390.83 428.478 Q3387.89 432.228 3383.17 432.228 Q3380.32 432.228 3378.26 431.117 Q3376.23 429.982 3374.88 427.667 M3389.38 418.617 Q3389.38 413.918 3387.43 411.256 Q3385.51 408.57 3382.13 408.57 Q3378.75 408.57 3376.81 411.256 Q3374.88 413.918 3374.88 418.617 Q3374.88 423.316 3376.81 426.001 Q3378.75 428.663 3382.13 428.663 Q3385.51 428.663 3387.43 426.001 Q3389.38 423.316 3389.38 418.617 Z" fill="#000000" fill-rule="nonzero" fill-opacity="1" /><path clip-path="url(#clip260)" d="M3400.19 395.584 L3403.89 395.584 Q3407.36 401.047 3409.07 406.279 Q3410.81 411.51 3410.81 416.672 Q3410.81 421.857 3409.07 427.112 Q3407.36 432.367 3403.89 437.806 L3400.19 437.806 Q3403.26 432.505 3404.77 427.274 Q3406.3 422.019 3406.3 416.672 Q3406.3 411.325 3404.77 406.117 Q3403.26 400.908 3400.19 395.584 Z" fill="#000000" fill-rule="nonzero" fill-opacity="1" /></svg>
