<?xml version="1.0" encoding="utf-8"?>
<svg xmlns="http://www.w3.org/2000/svg" xmlns:xlink="http://www.w3.org/1999/xlink" width="900" height="600" viewBox="0 0 3600 2400">
<defs>
  <clipPath id="clip680">
    <rect x="0" y="0" width="3600" height="2400"/>
  </clipPath>
</defs>
<path clip-path="url(#clip680)" d="M0 2400 L3600 2400 L3600 0 L0 0  Z" fill="#ffffff" fill-rule="evenodd" fill-opacity="1"/>
<defs>
  <clipPath id="clip681">
    <rect x="322" y="246" width="3232" height="1911"/>
  </clipPath>
</defs>
<path clip-path="url(#clip680)" d="M290.538 2156.51 L3552.76 2156.51 L3552.76 246.944 L290.538 246.944  Z" fill="#ffffff" fill-rule="evenodd" fill-opacity="1"/>
<defs>
  <clipPath id="clip682">
    <rect x="290" y="246" width="3263" height="1911"/>
  </clipPath>
</defs>
<polyline clip-path="url(#clip682)" style="stroke:#000000; stroke-linecap:round; stroke-linejoin:round; stroke-width:2; stroke-opacity:0.1; fill:none" points="605.399,2156.51 605.399,246.944 "/>
<polyline clip-path="url(#clip682)" style="stroke:#000000; stroke-linecap:round; stroke-linejoin:round; stroke-width:2; stroke-opacity:0.1; fill:none" points="1921.65,2156.51 1921.65,246.944 "/>
<polyline clip-path="url(#clip682)" style="stroke:#000000; stroke-linecap:round; stroke-linejoin:round; stroke-width:2; stroke-opacity:0.1; fill:none" points="3237.9,2156.51 3237.9,246.944 "/>
<polyline clip-path="url(#clip682)" style="stroke:#000000; stroke-linecap:round; stroke-linejoin:round; stroke-width:2; stroke-opacity:0.1; fill:none" points="290.538,2156.51 3552.76,2156.51 "/>
<polyline clip-path="url(#clip682)" style="stroke:#000000; stroke-linecap:round; stroke-linejoin:round; stroke-width:2; stroke-opacity:0.1; fill:none" points="290.538,1859.1 3552.76,1859.1 "/>
<polyline clip-path="url(#clip682)" style="stroke:#000000; stroke-linecap:round; stroke-linejoin:round; stroke-width:2; stroke-opacity:0.1; fill:none" points="290.538,1561.7 3552.76,1561.7 "/>
<polyline clip-path="url(#clip682)" style="stroke:#000000; stroke-linecap:round; stroke-linejoin:round; stroke-width:2; stroke-opacity:0.1; fill:none" points="290.538,1264.29 3552.76,1264.29 "/>
<polyline clip-path="url(#clip682)" style="stroke:#000000; stroke-linecap:round; stroke-linejoin:round; stroke-width:2; stroke-opacity:0.1; fill:none" points="290.538,966.888 3552.76,966.888 "/>
<polyline clip-path="url(#clip682)" style="stroke:#000000; stroke-linecap:round; stroke-linejoin:round; stroke-width:2; stroke-opacity:0.1; fill:none" points="290.538,669.483 3552.76,669.483 "/>
<polyline clip-path="url(#clip682)" style="stroke:#000000; stroke-linecap:round; stroke-linejoin:round; stroke-width:2; stroke-opacity:0.1; fill:none" points="290.538,372.078 3552.76,372.078 "/>
<polyline clip-path="url(#clip680)" style="stroke:#000000; stroke-linecap:round; stroke-linejoin:round; stroke-width:4; stroke-opacity:1; fill:none" points="290.538,2156.51 3552.76,2156.51 "/>
<polyline clip-path="url(#clip680)" style="stroke:#000000; stroke-linecap:round; stroke-linejoin:round; stroke-width:4; stroke-opacity:1; fill:none" points="605.399,2156.51 605.399,2137.61 "/>
<polyline clip-path="url(#clip680)" style="stroke:#000000; stroke-linecap:round; stroke-linejoin:round; stroke-width:4; stroke-opacity:1; fill:none" points="1921.65,2156.51 1921.65,2137.61 "/>
<polyline clip-path="url(#clip680)" style="stroke:#000000; stroke-linecap:round; stroke-linejoin:round; stroke-width:4; stroke-opacity:1; fill:none" points="3237.9,2156.51 3237.9,2137.61 "/>
<path clip-path="url(#clip680)" d="M549.925 2224.57 L557.564 2224.57 L557.564 2198.21 L549.253 2199.87 L549.253 2195.61 L557.517 2193.95 L562.193 2193.95 L562.193 2224.57 L569.832 2224.57 L569.832 2228.51 L549.925 2228.51 L549.925 2224.57 Z" fill="#000000" fill-rule="nonzero" fill-opacity="1" /><path clip-path="url(#clip680)" d="M589.276 2197.03 Q585.665 2197.03 583.837 2200.59 Q582.031 2204.13 582.031 2211.26 Q582.031 2218.37 583.837 2221.93 Q585.665 2225.48 589.276 2225.48 Q592.911 2225.48 594.716 2221.93 Q596.545 2218.37 596.545 2211.26 Q596.545 2204.13 594.716 2200.59 Q592.911 2197.03 589.276 2197.03 M589.276 2193.32 Q595.087 2193.32 598.142 2197.93 Q601.221 2202.51 601.221 2211.26 Q601.221 2219.99 598.142 2224.6 Q595.087 2229.18 589.276 2229.18 Q583.466 2229.18 580.388 2224.6 Q577.332 2219.99 577.332 2211.26 Q577.332 2202.51 580.388 2197.93 Q583.466 2193.32 589.276 2193.32 Z" fill="#000000" fill-rule="nonzero" fill-opacity="1" /><path clip-path="url(#clip680)" d="M619.438 2197.03 Q615.827 2197.03 613.998 2200.59 Q612.193 2204.13 612.193 2211.26 Q612.193 2218.37 613.998 2221.93 Q615.827 2225.48 619.438 2225.48 Q623.073 2225.48 624.878 2221.93 Q626.707 2218.37 626.707 2211.26 Q626.707 2204.13 624.878 2200.59 Q623.073 2197.03 619.438 2197.03 M619.438 2193.32 Q625.248 2193.32 628.304 2197.93 Q631.383 2202.51 631.383 2211.26 Q631.383 2219.99 628.304 2224.6 Q625.248 2229.18 619.438 2229.18 Q613.628 2229.18 610.549 2224.6 Q607.494 2219.99 607.494 2211.26 Q607.494 2202.51 610.549 2197.93 Q613.628 2193.32 619.438 2193.32 Z" fill="#000000" fill-rule="nonzero" fill-opacity="1" /><path clip-path="url(#clip680)" d="M649.6 2197.03 Q645.989 2197.03 644.16 2200.59 Q642.355 2204.13 642.355 2211.26 Q642.355 2218.37 644.16 2221.93 Q645.989 2225.48 649.6 2225.48 Q653.234 2225.48 655.04 2221.93 Q656.869 2218.37 656.869 2211.26 Q656.869 2204.13 655.04 2200.59 Q653.234 2197.03 649.6 2197.03 M649.6 2193.32 Q655.41 2193.32 658.466 2197.93 Q661.545 2202.51 661.545 2211.26 Q661.545 2219.99 658.466 2224.6 Q655.41 2229.18 649.6 2229.18 Q643.79 2229.18 640.711 2224.6 Q637.656 2219.99 637.656 2211.26 Q637.656 2202.51 640.711 2197.93 Q643.79 2193.32 649.6 2193.32 Z" fill="#000000" fill-rule="nonzero" fill-opacity="1" /><path clip-path="url(#clip680)" d="M1866.18 2193.95 L1884.54 2193.95 L1884.54 2197.88 L1870.47 2197.88 L1870.47 2206.36 Q1871.49 2206.01 1872.5 2205.85 Q1873.52 2205.66 1874.54 2205.66 Q1880.33 2205.66 1883.71 2208.83 Q1887.09 2212 1887.09 2217.42 Q1887.09 2223 1883.61 2226.1 Q1880.14 2229.18 1873.82 2229.18 Q1871.65 2229.18 1869.38 2228.81 Q1867.13 2228.44 1864.73 2227.7 L1864.73 2223 Q1866.81 2224.13 1869.03 2224.69 Q1871.25 2225.24 1873.73 2225.24 Q1877.74 2225.24 1880.07 2223.14 Q1882.41 2221.03 1882.41 2217.42 Q1882.41 2213.81 1880.07 2211.7 Q1877.74 2209.6 1873.73 2209.6 Q1871.86 2209.6 1869.98 2210.01 Q1868.13 2210.43 1866.18 2211.31 L1866.18 2193.95 Z" fill="#000000" fill-rule="nonzero" fill-opacity="1" /><path clip-path="url(#clip680)" d="M1906.3 2197.03 Q1902.69 2197.03 1900.86 2200.59 Q1899.05 2204.13 1899.05 2211.26 Q1899.05 2218.37 1900.86 2221.93 Q1902.69 2225.48 1906.3 2225.48 Q1909.93 2225.48 1911.74 2221.93 Q1913.57 2218.37 1913.57 2211.26 Q1913.57 2204.13 1911.74 2200.59 Q1909.93 2197.03 1906.3 2197.03 M1906.3 2193.32 Q1912.11 2193.32 1915.17 2197.93 Q1918.24 2202.51 1918.24 2211.26 Q1918.24 2219.99 1915.17 2224.6 Q1912.11 2229.18 1906.3 2229.18 Q1900.49 2229.18 1897.41 2224.6 Q1894.36 2219.99 1894.36 2211.26 Q1894.36 2202.51 1897.41 2197.93 Q1900.49 2193.32 1906.3 2193.32 Z" fill="#000000" fill-rule="nonzero" fill-opacity="1" /><path clip-path="url(#clip680)" d="M1936.46 2197.03 Q1932.85 2197.03 1931.02 2200.59 Q1929.22 2204.13 1929.22 2211.26 Q1929.22 2218.37 1931.02 2221.93 Q1932.85 2225.48 1936.46 2225.48 Q1940.1 2225.48 1941.9 2221.93 Q1943.73 2218.37 1943.73 2211.26 Q1943.73 2204.13 1941.9 2200.59 Q1940.1 2197.03 1936.46 2197.03 M1936.46 2193.32 Q1942.27 2193.32 1945.33 2197.93 Q1948.41 2202.51 1948.41 2211.26 Q1948.41 2219.99 1945.33 2224.6 Q1942.27 2229.18 1936.46 2229.18 Q1930.65 2229.18 1927.57 2224.6 Q1924.52 2219.99 1924.52 2211.26 Q1924.52 2202.51 1927.57 2197.93 Q1930.65 2193.32 1936.46 2193.32 Z" fill="#000000" fill-rule="nonzero" fill-opacity="1" /><path clip-path="url(#clip680)" d="M1966.62 2197.03 Q1963.01 2197.03 1961.18 2200.59 Q1959.38 2204.13 1959.38 2211.26 Q1959.38 2218.37 1961.18 2221.93 Q1963.01 2225.48 1966.62 2225.48 Q1970.26 2225.48 1972.06 2221.93 Q1973.89 2218.37 1973.89 2211.26 Q1973.89 2204.13 1972.06 2200.59 Q1970.26 2197.03 1966.62 2197.03 M1966.62 2193.32 Q1972.43 2193.32 1975.49 2197.93 Q1978.57 2202.51 1978.57 2211.26 Q1978.57 2219.99 1975.49 2224.6 Q1972.43 2229.18 1966.62 2229.18 Q1960.81 2229.18 1957.73 2224.6 Q1954.68 2219.99 1954.68 2211.26 Q1954.68 2202.51 1957.73 2197.93 Q1960.81 2193.32 1966.62 2193.32 Z" fill="#000000" fill-rule="nonzero" fill-opacity="1" /><path clip-path="url(#clip680)" d="M3167.34 2224.57 L3174.98 2224.57 L3174.98 2198.21 L3166.67 2199.87 L3166.67 2195.61 L3174.93 2193.95 L3179.61 2193.95 L3179.61 2224.57 L3187.25 2224.57 L3187.25 2228.51 L3167.34 2228.51 L3167.34 2224.57 Z" fill="#000000" fill-rule="nonzero" fill-opacity="1" /><path clip-path="url(#clip680)" d="M3206.69 2197.03 Q3203.08 2197.03 3201.25 2200.59 Q3199.45 2204.13 3199.45 2211.26 Q3199.45 2218.37 3201.25 2221.93 Q3203.08 2225.48 3206.69 2225.48 Q3210.33 2225.48 3212.13 2221.93 Q3213.96 2218.37 3213.96 2211.26 Q3213.96 2204.13 3212.13 2200.59 Q3210.33 2197.03 3206.69 2197.03 M3206.69 2193.32 Q3212.5 2193.32 3215.56 2197.93 Q3218.64 2202.51 3218.64 2211.26 Q3218.64 2219.99 3215.56 2224.6 Q3212.5 2229.18 3206.69 2229.18 Q3200.88 2229.18 3197.8 2224.6 Q3194.75 2219.99 3194.75 2211.26 Q3194.75 2202.51 3197.8 2197.93 Q3200.88 2193.32 3206.69 2193.32 Z" fill="#000000" fill-rule="nonzero" fill-opacity="1" /><path clip-path="url(#clip680)" d="M3236.85 2197.03 Q3233.24 2197.03 3231.41 2200.59 Q3229.61 2204.13 3229.61 2211.26 Q3229.61 2218.37 3231.41 2221.93 Q3233.24 2225.48 3236.85 2225.48 Q3240.49 2225.48 3242.29 2221.93 Q3244.12 2218.37 3244.12 2211.26 Q3244.12 2204.13 3242.29 2200.59 Q3240.49 2197.03 3236.85 2197.03 M3236.85 2193.32 Q3242.66 2193.32 3245.72 2197.93 Q3248.8 2202.51 3248.8 2211.26 Q3248.8 2219.99 3245.72 2224.6 Q3242.66 2229.18 3236.85 2229.18 Q3231.04 2229.18 3227.96 2224.6 Q3224.91 2219.99 3224.91 2211.26 Q3224.91 2202.51 3227.96 2197.93 Q3231.04 2193.32 3236.85 2193.32 Z" fill="#000000" fill-rule="nonzero" fill-opacity="1" /><path clip-path="url(#clip680)" d="M3267.02 2197.03 Q3263.4 2197.03 3261.58 2200.59 Q3259.77 2204.13 3259.77 2211.26 Q3259.77 2218.37 3261.58 2221.93 Q3263.4 2225.48 3267.02 2225.48 Q3270.65 2225.48 3272.46 2221.93 Q3274.28 2218.37 3274.28 2211.26 Q3274.28 2204.13 3272.46 2200.59 Q3270.65 2197.03 3267.02 2197.03 M3267.02 2193.32 Q3272.83 2193.32 3275.88 2197.93 Q3278.96 2202.51 3278.96 2211.26 Q3278.96 2219.99 3275.88 2224.6 Q3272.83 2229.18 3267.02 2229.18 Q3261.21 2229.18 3258.13 2224.6 Q3255.07 2219.99 3255.07 2211.26 Q3255.07 2202.51 3258.13 2197.93 Q3261.21 2193.32 3267.02 2193.32 Z" fill="#000000" fill-rule="nonzero" fill-opacity="1" /><path clip-path="url(#clip680)" d="M3297.18 2197.03 Q3293.57 2197.03 3291.74 2200.59 Q3289.93 2204.13 3289.93 2211.26 Q3289.93 2218.37 3291.74 2221.93 Q3293.57 2225.48 3297.18 2225.48 Q3300.81 2225.48 3302.62 2221.93 Q3304.45 2218.37 3304.45 2211.26 Q3304.45 2204.13 3302.62 2200.59 Q3300.81 2197.03 3297.18 2197.03 M3297.18 2193.32 Q3302.99 2193.32 3306.04 2197.93 Q3309.12 2202.51 3309.12 2211.26 Q3309.12 2219.99 3306.04 2224.6 Q3302.99 2229.18 3297.18 2229.18 Q3291.37 2229.18 3288.29 2224.6 Q3285.23 2219.99 3285.23 2211.26 Q3285.23 2202.51 3288.29 2197.93 Q3291.37 2193.32 3297.18 2193.32 Z" fill="#000000" fill-rule="nonzero" fill-opacity="1" /><path clip-path="url(#clip680)" d="M1797.53 2308.02 L1797.53 2296.42 L1787.98 2296.42 L1787.98 2291.62 L1803.32 2291.62 L1803.32 2310.17 Q1799.93 2312.57 1795.85 2313.81 Q1791.77 2315.03 1787.14 2315.03 Q1777.02 2315.03 1771.29 2309.12 Q1765.59 2303.19 1765.59 2292.63 Q1765.59 2282.04 1771.29 2276.14 Q1777.02 2270.21 1787.14 2270.21 Q1791.37 2270.21 1795.16 2271.25 Q1798.98 2272.29 1802.19 2274.32 L1802.19 2280.54 Q1798.95 2277.79 1795.3 2276.4 Q1791.66 2275.01 1787.63 2275.01 Q1779.71 2275.01 1775.71 2279.44 Q1771.75 2283.86 1771.75 2292.63 Q1771.75 2301.37 1775.71 2305.8 Q1779.71 2310.22 1787.63 2310.22 Q1790.73 2310.22 1793.16 2309.7 Q1795.59 2309.15 1797.53 2308.02 Z" fill="#000000" fill-rule="nonzero" fill-opacity="1" /><path clip-path="url(#clip680)" d="M1832.54 2286.76 Q1831.64 2286.24 1830.57 2286 Q1829.53 2285.74 1828.26 2285.74 Q1823.75 2285.74 1821.31 2288.7 Q1818.91 2291.62 1818.91 2297.12 L1818.91 2314.19 L1813.56 2314.19 L1813.56 2281.78 L1818.91 2281.78 L1818.91 2286.82 Q1820.59 2283.86 1823.28 2282.45 Q1825.97 2281 1829.82 2281 Q1830.37 2281 1831.04 2281.09 Q1831.7 2281.14 1832.51 2281.29 L1832.54 2286.76 Z" fill="#000000" fill-rule="nonzero" fill-opacity="1" /><path clip-path="url(#clip680)" d="M1838.13 2281.78 L1843.45 2281.78 L1843.45 2314.19 L1838.13 2314.19 L1838.13 2281.78 M1838.13 2269.16 L1843.45 2269.16 L1843.45 2275.91 L1838.13 2275.91 L1838.13 2269.16 Z" fill="#000000" fill-rule="nonzero" fill-opacity="1" /><path clip-path="url(#clip680)" d="M1875.92 2286.7 L1875.92 2269.16 L1881.24 2269.16 L1881.24 2314.19 L1875.92 2314.19 L1875.92 2309.33 Q1874.24 2312.22 1871.66 2313.64 Q1869.12 2315.03 1865.53 2315.03 Q1859.65 2315.03 1855.95 2310.34 Q1852.28 2305.65 1852.28 2298.01 Q1852.28 2290.37 1855.95 2285.69 Q1859.65 2281 1865.53 2281 Q1869.12 2281 1871.66 2282.42 Q1874.24 2283.81 1875.92 2286.7 M1857.77 2298.01 Q1857.77 2303.89 1860.17 2307.24 Q1862.61 2310.57 1866.83 2310.57 Q1871.05 2310.57 1873.48 2307.24 Q1875.92 2303.89 1875.92 2298.01 Q1875.92 2292.14 1873.48 2288.81 Q1871.05 2285.46 1866.83 2285.46 Q1862.61 2285.46 1860.17 2288.81 Q1857.77 2292.14 1857.77 2298.01 Z" fill="#000000" fill-rule="nonzero" fill-opacity="1" /><path clip-path="url(#clip680)" d="M1931.7 2282.74 L1931.7 2287.77 Q1929.45 2286.61 1927.01 2286.03 Q1924.58 2285.46 1921.98 2285.46 Q1918.02 2285.46 1916.02 2286.67 Q1914.05 2287.89 1914.05 2290.32 Q1914.05 2292.17 1915.47 2293.24 Q1916.89 2294.28 1921.17 2295.24 L1922.99 2295.64 Q1928.66 2296.86 1931.04 2299.08 Q1933.44 2301.28 1933.44 2305.25 Q1933.44 2309.76 1929.85 2312.39 Q1926.29 2315.03 1920.04 2315.03 Q1917.44 2315.03 1914.6 2314.51 Q1911.79 2314.01 1908.67 2313 L1908.67 2307.5 Q1911.62 2309.04 1914.49 2309.82 Q1917.35 2310.57 1920.16 2310.57 Q1923.92 2310.57 1925.94 2309.3 Q1927.97 2308 1927.97 2305.65 Q1927.97 2303.48 1926.49 2302.32 Q1925.05 2301.17 1920.1 2300.1 L1918.25 2299.66 Q1913.3 2298.62 1911.1 2296.48 Q1908.9 2294.31 1908.9 2290.55 Q1908.9 2285.98 1912.14 2283.49 Q1915.38 2281 1921.34 2281 Q1924.29 2281 1926.9 2281.43 Q1929.5 2281.87 1931.7 2282.74 Z" fill="#000000" fill-rule="nonzero" fill-opacity="1" /><path clip-path="url(#clip680)" d="M1941.92 2281.78 L1947.24 2281.78 L1947.24 2314.19 L1941.92 2314.19 L1941.92 2281.78 M1941.92 2269.16 L1947.24 2269.16 L1947.24 2275.91 L1941.92 2275.91 L1941.92 2269.16 Z" fill="#000000" fill-rule="nonzero" fill-opacity="1" /><path clip-path="url(#clip680)" d="M1956.07 2281.78 L1981.35 2281.78 L1981.35 2286.64 L1961.33 2309.93 L1981.35 2309.93 L1981.35 2314.19 L1955.34 2314.19 L1955.34 2309.33 L1975.37 2286.03 L1956.07 2286.03 L1956.07 2281.78 Z" fill="#000000" fill-rule="nonzero" fill-opacity="1" /><path clip-path="url(#clip680)" d="M2017.21 2296.65 L2017.21 2299.26 L1992.73 2299.26 Q1993.07 2304.75 1996.02 2307.65 Q1999 2310.51 2004.3 2310.51 Q2007.37 2310.51 2010.23 2309.76 Q2013.13 2309.01 2015.96 2307.5 L2015.96 2312.54 Q2013.1 2313.75 2010.09 2314.39 Q2007.08 2315.03 2003.98 2315.03 Q1996.23 2315.03 1991.68 2310.51 Q1987.17 2306 1987.17 2298.3 Q1987.17 2290.35 1991.45 2285.69 Q1995.76 2281 2003.06 2281 Q2009.6 2281 2013.39 2285.22 Q2017.21 2289.42 2017.21 2296.65 M2011.88 2295.09 Q2011.82 2290.72 2009.42 2288.12 Q2007.05 2285.51 2003.11 2285.51 Q1998.66 2285.51 1995.97 2288.03 Q1993.3 2290.55 1992.9 2295.12 L2011.88 2295.09 Z" fill="#000000" fill-rule="nonzero" fill-opacity="1" /><path clip-path="url(#clip680)" d="M2045.01 2270.99 L2052.88 2270.99 L2072.04 2307.13 L2072.04 2270.99 L2077.71 2270.99 L2077.71 2314.19 L2069.84 2314.19 L2050.68 2278.05 L2050.68 2314.19 L2045.01 2314.19 L2045.01 2270.99 Z" fill="#000000" fill-rule="nonzero" fill-opacity="1" /><polyline clip-path="url(#clip680)" style="stroke:#000000; stroke-linecap:round; stroke-linejoin:round; stroke-width:4; stroke-opacity:1; fill:none" points="290.538,2156.51 290.538,246.944 "/>
<polyline clip-path="url(#clip680)" style="stroke:#000000; stroke-linecap:round; stroke-linejoin:round; stroke-width:4; stroke-opacity:1; fill:none" points="290.538,2156.51 309.436,2156.51 "/>
<polyline clip-path="url(#clip680)" style="stroke:#000000; stroke-linecap:round; stroke-linejoin:round; stroke-width:4; stroke-opacity:1; fill:none" points="290.538,1859.1 309.436,1859.1 "/>
<polyline clip-path="url(#clip680)" style="stroke:#000000; stroke-linecap:round; stroke-linejoin:round; stroke-width:4; stroke-opacity:1; fill:none" points="290.538,1561.7 309.436,1561.7 "/>
<polyline clip-path="url(#clip680)" style="stroke:#000000; stroke-linecap:round; stroke-linejoin:round; stroke-width:4; stroke-opacity:1; fill:none" points="290.538,1264.29 309.436,1264.29 "/>
<polyline clip-path="url(#clip680)" style="stroke:#000000; stroke-linecap:round; stroke-linejoin:round; stroke-width:4; stroke-opacity:1; fill:none" points="290.538,966.888 309.436,966.888 "/>
<polyline clip-path="url(#clip680)" style="stroke:#000000; stroke-linecap:round; stroke-linejoin:round; stroke-width:4; stroke-opacity:1; fill:none" points="290.538,669.483 309.436,669.483 "/>
<polyline clip-path="url(#clip680)" style="stroke:#000000; stroke-linecap:round; stroke-linejoin:round; stroke-width:4; stroke-opacity:1; fill:none" points="290.538,372.078 309.436,372.078 "/>
<path clip-path="url(#clip680)" d="M179.363 2142.31 Q175.752 2142.31 173.923 2145.87 Q172.117 2149.41 172.117 2156.54 Q172.117 2163.65 173.923 2167.21 Q175.752 2170.76 179.363 2170.76 Q182.997 2170.76 184.803 2167.21 Q186.631 2163.65 186.631 2156.54 Q186.631 2149.41 184.803 2145.87 Q182.997 2142.31 179.363 2142.31 M179.363 2138.6 Q185.173 2138.6 188.228 2143.21 Q191.307 2147.79 191.307 2156.54 Q191.307 2165.27 188.228 2169.88 Q185.173 2174.46 179.363 2174.46 Q173.553 2174.46 170.474 2169.88 Q167.418 2165.27 167.418 2156.54 Q167.418 2147.79 170.474 2143.21 Q173.553 2138.6 179.363 2138.6 Z" fill="#000000" fill-rule="nonzero" fill-opacity="1" /><path clip-path="url(#clip680)" d="M199.525 2167.91 L204.409 2167.91 L204.409 2173.79 L199.525 2173.79 L199.525 2167.91 Z" fill="#000000" fill-rule="nonzero" fill-opacity="1" /><path clip-path="url(#clip680)" d="M224.594 2142.31 Q220.983 2142.31 219.154 2145.87 Q217.349 2149.41 217.349 2156.54 Q217.349 2163.65 219.154 2167.21 Q220.983 2170.76 224.594 2170.76 Q228.228 2170.76 230.034 2167.21 Q231.862 2163.65 231.862 2156.54 Q231.862 2149.41 230.034 2145.87 Q228.228 2142.31 224.594 2142.31 M224.594 2138.6 Q230.404 2138.6 233.46 2143.21 Q236.538 2147.79 236.538 2156.54 Q236.538 2165.27 233.46 2169.88 Q230.404 2174.46 224.594 2174.46 Q218.784 2174.46 215.705 2169.88 Q212.65 2165.27 212.65 2156.54 Q212.65 2147.79 215.705 2143.21 Q218.784 2138.6 224.594 2138.6 Z" fill="#000000" fill-rule="nonzero" fill-opacity="1" /><path clip-path="url(#clip680)" d="M180.96 1844.9 Q177.349 1844.9 175.52 1848.47 Q173.715 1852.01 173.715 1859.14 Q173.715 1866.24 175.52 1869.81 Q177.349 1873.35 180.96 1873.35 Q184.594 1873.35 186.4 1869.81 Q188.228 1866.24 188.228 1859.14 Q188.228 1852.01 186.4 1848.47 Q184.594 1844.9 180.96 1844.9 M180.96 1841.2 Q186.77 1841.2 189.826 1845.8 Q192.904 1850.39 192.904 1859.14 Q192.904 1867.86 189.826 1872.47 Q186.77 1877.05 180.96 1877.05 Q175.15 1877.05 172.071 1872.47 Q169.016 1867.86 169.016 1859.14 Q169.016 1850.39 172.071 1845.8 Q175.15 1841.2 180.96 1841.2 Z" fill="#000000" fill-rule="nonzero" fill-opacity="1" /><path clip-path="url(#clip680)" d="M201.122 1870.5 L206.006 1870.5 L206.006 1876.38 L201.122 1876.38 L201.122 1870.5 Z" fill="#000000" fill-rule="nonzero" fill-opacity="1" /><path clip-path="url(#clip680)" d="M220.219 1872.45 L236.538 1872.45 L236.538 1876.38 L214.594 1876.38 L214.594 1872.45 Q217.256 1869.69 221.839 1865.06 Q226.446 1860.41 227.626 1859.07 Q229.872 1856.54 230.751 1854.81 Q231.654 1853.05 231.654 1851.36 Q231.654 1848.61 229.71 1846.87 Q227.788 1845.13 224.687 1845.13 Q222.488 1845.13 220.034 1845.9 Q217.603 1846.66 214.826 1848.21 L214.826 1843.49 Q217.65 1842.36 220.103 1841.78 Q222.557 1841.2 224.594 1841.2 Q229.964 1841.2 233.159 1843.88 Q236.353 1846.57 236.353 1851.06 Q236.353 1853.19 235.543 1855.11 Q234.756 1857.01 232.65 1859.6 Q232.071 1860.27 228.969 1863.49 Q225.867 1866.68 220.219 1872.45 Z" fill="#000000" fill-rule="nonzero" fill-opacity="1" /><path clip-path="url(#clip680)" d="M178.877 1547.5 Q175.266 1547.5 173.437 1551.06 Q171.631 1554.6 171.631 1561.73 Q171.631 1568.84 173.437 1572.4 Q175.266 1575.95 178.877 1575.95 Q182.511 1575.95 184.316 1572.4 Q186.145 1568.84 186.145 1561.73 Q186.145 1554.6 184.316 1551.06 Q182.511 1547.5 178.877 1547.5 M178.877 1543.79 Q184.687 1543.79 187.742 1548.4 Q190.821 1552.98 190.821 1561.73 Q190.821 1570.46 187.742 1575.07 Q184.687 1579.65 178.877 1579.65 Q173.067 1579.65 169.988 1575.07 Q166.932 1570.46 166.932 1561.73 Q166.932 1552.98 169.988 1548.4 Q173.067 1543.79 178.877 1543.79 Z" fill="#000000" fill-rule="nonzero" fill-opacity="1" /><path clip-path="url(#clip680)" d="M199.039 1573.1 L203.923 1573.1 L203.923 1578.98 L199.039 1578.98 L199.039 1573.1 Z" fill="#000000" fill-rule="nonzero" fill-opacity="1" /><path clip-path="url(#clip680)" d="M226.955 1548.49 L215.15 1566.94 L226.955 1566.94 L226.955 1548.49 M225.728 1544.42 L231.608 1544.42 L231.608 1566.94 L236.538 1566.94 L236.538 1570.83 L231.608 1570.83 L231.608 1578.98 L226.955 1578.98 L226.955 1570.83 L211.353 1570.83 L211.353 1566.32 L225.728 1544.42 Z" fill="#000000" fill-rule="nonzero" fill-opacity="1" /><path clip-path="url(#clip680)" d="M179.201 1250.09 Q175.59 1250.09 173.761 1253.66 Q171.955 1257.2 171.955 1264.33 Q171.955 1271.43 173.761 1275 Q175.59 1278.54 179.201 1278.54 Q182.835 1278.54 184.641 1275 Q186.469 1271.43 186.469 1264.33 Q186.469 1257.2 184.641 1253.66 Q182.835 1250.09 179.201 1250.09 M179.201 1246.39 Q185.011 1246.39 188.066 1250.99 Q191.145 1255.58 191.145 1264.33 Q191.145 1273.05 188.066 1277.66 Q185.011 1282.24 179.201 1282.24 Q173.391 1282.24 170.312 1277.66 Q167.256 1273.05 167.256 1264.33 Q167.256 1255.58 170.312 1250.99 Q173.391 1246.39 179.201 1246.39 Z" fill="#000000" fill-rule="nonzero" fill-opacity="1" /><path clip-path="url(#clip680)" d="M199.363 1275.69 L204.247 1275.69 L204.247 1281.57 L199.363 1281.57 L199.363 1275.69 Z" fill="#000000" fill-rule="nonzero" fill-opacity="1" /><path clip-path="url(#clip680)" d="M225.011 1262.43 Q221.863 1262.43 220.011 1264.58 Q218.182 1266.73 218.182 1270.48 Q218.182 1274.21 220.011 1276.39 Q221.863 1278.54 225.011 1278.54 Q228.159 1278.54 229.988 1276.39 Q231.839 1274.21 231.839 1270.48 Q231.839 1266.73 229.988 1264.58 Q228.159 1262.43 225.011 1262.43 M234.293 1247.78 L234.293 1252.04 Q232.534 1251.2 230.728 1250.76 Q228.946 1250.32 227.187 1250.32 Q222.557 1250.32 220.103 1253.45 Q217.673 1256.57 217.326 1262.89 Q218.691 1260.88 220.751 1259.81 Q222.812 1258.73 225.288 1258.73 Q230.497 1258.73 233.506 1261.9 Q236.538 1265.04 236.538 1270.48 Q236.538 1275.81 233.39 1279.03 Q230.242 1282.24 225.011 1282.24 Q219.015 1282.24 215.844 1277.66 Q212.673 1273.05 212.673 1264.33 Q212.673 1256.13 216.562 1251.27 Q220.451 1246.39 227.001 1246.39 Q228.761 1246.39 230.543 1246.73 Q232.349 1247.08 234.293 1247.78 Z" fill="#000000" fill-rule="nonzero" fill-opacity="1" /><path clip-path="url(#clip680)" d="M179.455 952.686 Q175.844 952.686 174.016 956.251 Q172.21 959.793 172.21 966.922 Q172.21 974.029 174.016 977.594 Q175.844 981.135 179.455 981.135 Q183.09 981.135 184.895 977.594 Q186.724 974.029 186.724 966.922 Q186.724 959.793 184.895 956.251 Q183.09 952.686 179.455 952.686 M179.455 948.983 Q185.266 948.983 188.321 953.589 Q191.4 958.172 191.4 966.922 Q191.4 975.649 188.321 980.256 Q185.266 984.839 179.455 984.839 Q173.645 984.839 170.567 980.256 Q167.511 975.649 167.511 966.922 Q167.511 958.172 170.567 953.589 Q173.645 948.983 179.455 948.983 Z" fill="#000000" fill-rule="nonzero" fill-opacity="1" /><path clip-path="url(#clip680)" d="M199.617 978.288 L204.502 978.288 L204.502 984.168 L199.617 984.168 L199.617 978.288 Z" fill="#000000" fill-rule="nonzero" fill-opacity="1" /><path clip-path="url(#clip680)" d="M224.687 967.756 Q221.353 967.756 219.432 969.538 Q217.534 971.32 217.534 974.445 Q217.534 977.57 219.432 979.353 Q221.353 981.135 224.687 981.135 Q228.02 981.135 229.941 979.353 Q231.862 977.547 231.862 974.445 Q231.862 971.32 229.941 969.538 Q228.043 967.756 224.687 967.756 M220.011 965.765 Q217.001 965.024 215.312 962.964 Q213.645 960.904 213.645 957.941 Q213.645 953.797 216.585 951.39 Q219.548 948.983 224.687 948.983 Q229.849 948.983 232.788 951.39 Q235.728 953.797 235.728 957.941 Q235.728 960.904 234.038 962.964 Q232.372 965.024 229.386 965.765 Q232.765 966.552 234.64 968.844 Q236.538 971.135 236.538 974.445 Q236.538 979.469 233.46 982.154 Q230.404 984.839 224.687 984.839 Q218.969 984.839 215.89 982.154 Q212.835 979.469 212.835 974.445 Q212.835 971.135 214.733 968.844 Q216.631 966.552 220.011 965.765 M218.298 958.381 Q218.298 961.066 219.964 962.571 Q221.654 964.075 224.687 964.075 Q227.696 964.075 229.386 962.571 Q231.099 961.066 231.099 958.381 Q231.099 955.696 229.386 954.191 Q227.696 952.686 224.687 952.686 Q221.654 952.686 219.964 954.191 Q218.298 955.696 218.298 958.381 Z" fill="#000000" fill-rule="nonzero" fill-opacity="1" /><path clip-path="url(#clip680)" d="M170.173 682.827 L177.812 682.827 L177.812 656.462 L169.502 658.128 L169.502 653.869 L177.766 652.203 L182.441 652.203 L182.441 682.827 L190.08 682.827 L190.08 686.763 L170.173 686.763 L170.173 682.827 Z" fill="#000000" fill-rule="nonzero" fill-opacity="1" /><path clip-path="url(#clip680)" d="M199.525 680.883 L204.409 680.883 L204.409 686.763 L199.525 686.763 L199.525 680.883 Z" fill="#000000" fill-rule="nonzero" fill-opacity="1" /><path clip-path="url(#clip680)" d="M224.594 655.281 Q220.983 655.281 219.154 658.846 Q217.349 662.388 217.349 669.517 Q217.349 676.624 219.154 680.189 Q220.983 683.73 224.594 683.73 Q228.228 683.73 230.034 680.189 Q231.862 676.624 231.862 669.517 Q231.862 662.388 230.034 658.846 Q228.228 655.281 224.594 655.281 M224.594 651.578 Q230.404 651.578 233.46 656.184 Q236.538 660.767 236.538 669.517 Q236.538 678.244 233.46 682.851 Q230.404 687.434 224.594 687.434 Q218.784 687.434 215.705 682.851 Q212.65 678.244 212.65 669.517 Q212.65 660.767 215.705 656.184 Q218.784 651.578 224.594 651.578 Z" fill="#000000" fill-rule="nonzero" fill-opacity="1" /><path clip-path="url(#clip680)" d="M171.77 385.422 L179.409 385.422 L179.409 359.057 L171.099 360.723 L171.099 356.464 L179.363 354.798 L184.039 354.798 L184.039 385.422 L191.678 385.422 L191.678 389.358 L171.77 389.358 L171.77 385.422 Z" fill="#000000" fill-rule="nonzero" fill-opacity="1" /><path clip-path="url(#clip680)" d="M201.122 383.478 L206.006 383.478 L206.006 389.358 L201.122 389.358 L201.122 383.478 Z" fill="#000000" fill-rule="nonzero" fill-opacity="1" /><path clip-path="url(#clip680)" d="M220.219 385.422 L236.538 385.422 L236.538 389.358 L214.594 389.358 L214.594 385.422 Q217.256 382.668 221.839 378.038 Q226.446 373.385 227.626 372.043 Q229.872 369.52 230.751 367.784 Q231.654 366.024 231.654 364.335 Q231.654 361.58 229.71 359.844 Q227.788 358.108 224.687 358.108 Q222.488 358.108 220.034 358.872 Q217.603 359.636 214.826 361.186 L214.826 356.464 Q217.65 355.33 220.103 354.751 Q222.557 354.173 224.594 354.173 Q229.964 354.173 233.159 356.858 Q236.353 359.543 236.353 364.034 Q236.353 366.163 235.543 368.085 Q234.756 369.983 232.65 372.575 Q232.071 373.247 228.969 376.464 Q225.867 379.659 220.219 385.422 Z" fill="#000000" fill-rule="nonzero" fill-opacity="1" /><path clip-path="url(#clip680)" d="M58.1901 1374.69 L63.8903 1374.69 Q62.2989 1378.01 61.5176 1380.96 Q60.7364 1383.92 60.7364 1386.66 Q60.7364 1391.44 62.5882 1394.04 Q64.4401 1396.62 67.8544 1396.62 Q70.719 1396.62 72.1947 1394.91 Q73.6414 1393.17 74.5384 1388.37 L75.2618 1384.84 Q76.506 1378.3 79.6599 1375.21 Q82.7849 1372.08 88.0511 1372.08 Q94.33 1372.08 97.5707 1376.31 Q100.811 1380.5 100.811 1388.63 Q100.811 1391.7 100.117 1395.17 Q99.4225 1398.61 98.0626 1402.32 L92.0441 1402.32 Q94.0406 1398.76 95.0533 1395.34 Q96.0661 1391.93 96.0661 1388.63 Q96.0661 1383.63 94.0985 1380.91 Q92.1309 1378.19 88.4851 1378.19 Q85.3022 1378.19 83.5083 1380.15 Q81.7143 1382.09 80.8173 1386.55 L80.1229 1390.11 Q78.8208 1396.65 76.043 1399.57 Q73.2653 1402.49 68.3174 1402.49 Q62.5882 1402.49 59.2896 1398.47 Q55.991 1394.42 55.991 1387.33 Q55.991 1384.29 56.5408 1381.14 Q57.0906 1377.98 58.1901 1374.69 Z" fill="#000000" fill-rule="nonzero" fill-opacity="1" /><path clip-path="url(#clip680)" d="M71.2977 1350.64 Q71.2977 1354.92 74.6541 1357.41 Q77.9817 1359.9 83.7976 1359.9 Q89.6135 1359.9 92.97 1357.44 Q96.2975 1354.95 96.2975 1350.64 Q96.2975 1346.39 92.9411 1343.9 Q89.5846 1341.41 83.7976 1341.41 Q78.0395 1341.41 74.6831 1343.9 Q71.2977 1346.39 71.2977 1350.64 M66.7838 1350.64 Q66.7838 1343.7 71.2977 1339.73 Q75.8115 1335.77 83.7976 1335.77 Q91.7547 1335.77 96.2975 1339.73 Q100.811 1343.7 100.811 1350.64 Q100.811 1357.61 96.2975 1361.58 Q91.7547 1365.51 83.7976 1365.51 Q75.8115 1365.51 71.2977 1361.58 Q66.7838 1357.61 66.7838 1350.64 Z" fill="#000000" fill-rule="nonzero" fill-opacity="1" /><path clip-path="url(#clip680)" d="M54.9494 1326.94 L54.9494 1321.62 L99.9723 1321.62 L99.9723 1326.94 L54.9494 1326.94 Z" fill="#000000" fill-rule="nonzero" fill-opacity="1" /><path clip-path="url(#clip680)" d="M67.565 1314.3 L67.565 1308.66 L94.764 1298.53 L67.565 1288.4 L67.565 1282.76 L99.9723 1294.91 L99.9723 1302.15 L67.565 1314.3 Z" fill="#000000" fill-rule="nonzero" fill-opacity="1" /><path clip-path="url(#clip680)" d="M82.4377 1247.69 L85.0418 1247.69 L85.0418 1272.17 Q90.5395 1271.82 93.433 1268.87 Q96.2975 1265.89 96.2975 1260.59 Q96.2975 1257.53 95.5452 1254.66 Q94.7929 1251.77 93.2883 1248.93 L98.323 1248.93 Q99.5383 1251.8 100.175 1254.81 Q100.811 1257.82 100.811 1260.91 Q100.811 1268.67 96.2975 1273.21 Q91.7837 1277.72 84.087 1277.72 Q76.1298 1277.72 71.4713 1273.44 Q66.7838 1269.13 66.7838 1261.84 Q66.7838 1255.3 71.0083 1251.51 Q75.2039 1247.69 82.4377 1247.69 M80.8752 1253.01 Q76.506 1253.07 73.9018 1255.47 Q71.2977 1257.85 71.2977 1261.78 Q71.2977 1266.24 73.815 1268.93 Q76.3324 1271.59 80.9041 1271.99 L80.8752 1253.01 Z" fill="#000000" fill-rule="nonzero" fill-opacity="1" /><path clip-path="url(#clip680)" d="M58.3637 1214.85 L67.565 1214.85 L67.565 1203.88 L71.7028 1203.88 L71.7028 1214.85 L89.2953 1214.85 Q93.2594 1214.85 94.3878 1213.78 Q95.5163 1212.68 95.5163 1209.35 L95.5163 1203.88 L99.9723 1203.88 L99.9723 1209.35 Q99.9723 1215.51 97.6864 1217.86 Q95.3716 1220.2 89.2953 1220.2 L71.7028 1220.2 L71.7028 1224.11 L67.565 1224.11 L67.565 1220.2 L58.3637 1220.2 L58.3637 1214.85 Z" fill="#000000" fill-rule="nonzero" fill-opacity="1" /><path clip-path="url(#clip680)" d="M67.565 1196.88 L67.565 1191.56 L99.9723 1191.56 L99.9723 1196.88 L67.565 1196.88 M54.9494 1196.88 L54.9494 1191.56 L61.6912 1191.56 L61.6912 1196.88 L54.9494 1196.88 Z" fill="#000000" fill-rule="nonzero" fill-opacity="1" /><path clip-path="url(#clip680)" d="M73.7861 1155.18 Q70.1981 1153.19 68.491 1150.41 Q66.7838 1147.63 66.7838 1143.87 Q66.7838 1138.81 70.3428 1136.06 Q73.8729 1133.31 80.4122 1133.31 L99.9723 1133.31 L99.9723 1138.66 L80.5858 1138.66 Q75.9273 1138.66 73.6703 1140.31 Q71.4134 1141.96 71.4134 1145.35 Q71.4134 1149.48 74.1622 1151.89 Q76.9111 1154.29 81.6564 1154.29 L99.9723 1154.29 L99.9723 1159.64 L80.5858 1159.64 Q75.8983 1159.64 73.6703 1161.29 Q71.4134 1162.94 71.4134 1166.38 Q71.4134 1170.46 74.1912 1172.86 Q76.94 1175.26 81.6564 1175.26 L99.9723 1175.26 L99.9723 1180.62 L67.565 1180.62 L67.565 1175.26 L72.5997 1175.26 Q69.6194 1173.44 68.2016 1170.9 Q66.7838 1168.35 66.7838 1164.85 Q66.7838 1161.32 68.5778 1158.86 Q70.3717 1156.37 73.7861 1155.18 Z" fill="#000000" fill-rule="nonzero" fill-opacity="1" /><path clip-path="url(#clip680)" d="M82.4377 1094.97 L85.0418 1094.97 L85.0418 1119.45 Q90.5395 1119.1 93.433 1116.15 Q96.2975 1113.17 96.2975 1107.88 Q96.2975 1104.81 95.5452 1101.94 Q94.7929 1099.05 93.2883 1096.21 L98.323 1096.21 Q99.5383 1099.08 100.175 1102.09 Q100.811 1105.1 100.811 1108.19 Q100.811 1115.95 96.2975 1120.49 Q91.7837 1125 84.087 1125 Q76.1298 1125 71.4713 1120.72 Q66.7838 1116.41 66.7838 1109.12 Q66.7838 1102.58 71.0083 1098.79 Q75.2039 1094.97 82.4377 1094.97 M80.8752 1100.29 Q76.506 1100.35 73.9018 1102.75 Q71.2977 1105.13 71.2977 1109.06 Q71.2977 1113.52 73.815 1116.21 Q76.3324 1118.87 80.9041 1119.28 L80.8752 1100.29 Z" fill="#000000" fill-rule="nonzero" fill-opacity="1" /><path clip-path="url(#clip680)" d="M55.0072 1054.61 Q61.6623 1058.48 68.1727 1060.36 Q74.6831 1062.24 81.3671 1062.24 Q88.0511 1062.24 94.6193 1060.36 Q101.159 1058.45 107.785 1054.61 L107.785 1059.24 Q100.985 1063.58 94.4168 1065.75 Q87.8485 1067.89 81.3671 1067.89 Q74.9145 1067.89 68.3752 1065.75 Q61.8359 1063.6 55.0072 1059.24 L55.0072 1054.61 Z" fill="#000000" fill-rule="nonzero" fill-opacity="1" /><path clip-path="url(#clip680)" d="M68.5199 1023.62 L73.5546 1023.62 Q72.3972 1025.87 71.8185 1028.3 Q71.2398 1030.73 71.2398 1033.34 Q71.2398 1037.3 72.4551 1039.3 Q73.6703 1041.27 76.1009 1041.27 Q77.9527 1041.27 79.0233 1039.85 Q80.065 1038.43 81.0198 1034.15 L81.4249 1032.33 Q82.6402 1026.65 84.8682 1024.28 Q87.0673 1021.88 91.0314 1021.88 Q95.5452 1021.88 98.1783 1025.47 Q100.811 1029.03 100.811 1035.28 Q100.811 1037.88 100.291 1040.72 Q99.7987 1043.52 98.7859 1046.65 L93.2883 1046.65 Q94.8218 1043.7 95.6031 1040.83 Q96.3554 1037.97 96.3554 1035.16 Q96.3554 1031.4 95.0823 1029.37 Q93.7802 1027.35 91.4364 1027.35 Q89.2663 1027.35 88.1089 1028.82 Q86.9515 1030.27 85.8809 1035.22 L85.4469 1037.07 Q84.4052 1042.02 82.264 1044.22 Q80.0939 1046.42 76.3324 1046.42 Q71.7606 1046.42 69.2722 1043.18 Q66.7838 1039.94 66.7838 1033.98 Q66.7838 1031.02 67.2178 1028.42 Q67.6519 1025.82 68.5199 1023.62 Z" fill="#000000" fill-rule="nonzero" fill-opacity="1" /><path clip-path="url(#clip680)" d="M55.0072 1014.24 L55.0072 1009.61 Q61.8359 1005.27 68.3752 1003.13 Q74.9145 1000.96 81.3671 1000.96 Q87.8485 1000.96 94.4168 1003.13 Q100.985 1005.27 107.785 1009.61 L107.785 1014.24 Q101.159 1010.39 94.6193 1008.51 Q88.0511 1006.6 81.3671 1006.6 Q74.6831 1006.6 68.1727 1008.51 Q61.6623 1010.39 55.0072 1014.24 Z" fill="#000000" fill-rule="nonzero" fill-opacity="1" /><path clip-path="url(#clip680)" d="M962.899 125.969 L962.899 133.949 Q958.241 131.721 954.109 130.627 Q949.977 129.534 946.129 129.534 Q939.445 129.534 935.799 132.126 Q932.194 134.719 932.194 139.499 Q932.194 143.509 934.584 145.575 Q937.014 147.601 943.739 148.857 L948.681 149.869 Q957.836 151.611 962.17 156.027 Q966.545 160.402 966.545 167.774 Q966.545 176.565 960.631 181.102 Q954.757 185.639 943.374 185.639 Q939.08 185.639 934.219 184.667 Q929.398 183.694 924.213 181.79 L924.213 173.365 Q929.196 176.16 933.976 177.577 Q938.756 178.995 943.374 178.995 Q950.382 178.995 954.19 176.241 Q957.998 173.486 957.998 168.382 Q957.998 163.926 955.243 161.414 Q952.529 158.903 946.291 157.647 L941.308 156.675 Q932.153 154.852 928.062 150.963 Q923.97 147.074 923.97 140.147 Q923.97 132.126 929.601 127.508 Q935.272 122.89 945.197 122.89 Q949.45 122.89 953.866 123.66 Q958.281 124.43 962.899 125.969 Z" fill="#000000" fill-rule="nonzero" fill-opacity="1" /><path clip-path="url(#clip680)" d="M996.562 144.32 Q990.567 144.32 987.083 149.019 Q983.6 153.677 983.6 161.819 Q983.6 169.962 987.043 174.661 Q990.527 179.319 996.562 179.319 Q1002.52 179.319 1006 174.62 Q1009.48 169.921 1009.48 161.819 Q1009.48 153.758 1006 149.059 Q1002.52 144.32 996.562 144.32 M996.562 138 Q1006.28 138 1011.83 144.32 Q1017.38 150.639 1017.38 161.819 Q1017.38 172.959 1011.83 179.319 Q1006.28 185.639 996.562 185.639 Q986.8 185.639 981.25 179.319 Q975.741 172.959 975.741 161.819 Q975.741 150.639 981.25 144.32 Q986.8 138 996.562 138 Z" fill="#000000" fill-rule="nonzero" fill-opacity="1" /><path clip-path="url(#clip680)" d="M1029.74 121.432 L1037.19 121.432 L1037.19 184.464 L1029.74 184.464 L1029.74 121.432 Z" fill="#000000" fill-rule="nonzero" fill-opacity="1" /><path clip-path="url(#clip680)" d="M1047.44 139.094 L1055.34 139.094 L1069.52 177.172 L1083.7 139.094 L1091.6 139.094 L1074.58 184.464 L1064.46 184.464 L1047.44 139.094 Z" fill="#000000" fill-rule="nonzero" fill-opacity="1" /><path clip-path="url(#clip680)" d="M1140.69 159.916 L1140.69 163.561 L1106.42 163.561 Q1106.91 171.258 1111.04 175.309 Q1115.21 179.319 1122.63 179.319 Q1126.92 179.319 1130.93 178.266 Q1134.98 177.213 1138.95 175.106 L1138.95 182.155 Q1134.94 183.856 1130.73 184.748 Q1126.52 185.639 1122.18 185.639 Q1111.32 185.639 1104.96 179.319 Q1098.65 173 1098.65 162.225 Q1098.65 151.085 1104.64 144.563 Q1110.68 138 1120.88 138 Q1130.04 138 1135.35 143.914 Q1140.69 149.788 1140.69 159.916 M1133.24 157.728 Q1133.16 151.611 1129.8 147.965 Q1126.47 144.32 1120.97 144.32 Q1114.73 144.32 1110.96 147.844 Q1107.23 151.368 1106.67 157.769 L1133.24 157.728 Z" fill="#000000" fill-rule="nonzero" fill-opacity="1" /><path clip-path="url(#clip680)" d="M1186.67 126.212 L1186.67 139.094 L1202.02 139.094 L1202.02 144.887 L1186.67 144.887 L1186.67 169.516 Q1186.67 175.066 1188.17 176.646 Q1189.71 178.226 1194.37 178.226 L1202.02 178.226 L1202.02 184.464 L1194.37 184.464 Q1185.74 184.464 1182.46 181.264 Q1179.18 178.023 1179.18 169.516 L1179.18 144.887 L1173.71 144.887 L1173.71 139.094 L1179.18 139.094 L1179.18 126.212 L1186.67 126.212 Z" fill="#000000" fill-rule="nonzero" fill-opacity="1" /><path clip-path="url(#clip680)" d="M1211.83 139.094 L1219.28 139.094 L1219.28 184.464 L1211.83 184.464 L1211.83 139.094 M1211.83 121.432 L1219.28 121.432 L1219.28 130.871 L1211.83 130.871 L1211.83 121.432 Z" fill="#000000" fill-rule="nonzero" fill-opacity="1" /><path clip-path="url(#clip680)" d="M1270.2 147.803 Q1273 142.78 1276.88 140.39 Q1280.77 138 1286.04 138 Q1293.13 138 1296.98 142.983 Q1300.83 147.925 1300.83 157.08 L1300.83 184.464 L1293.33 184.464 L1293.33 157.323 Q1293.33 150.801 1291.02 147.641 Q1288.71 144.482 1283.97 144.482 Q1278.18 144.482 1274.82 148.33 Q1271.46 152.178 1271.46 158.822 L1271.46 184.464 L1263.96 184.464 L1263.96 157.323 Q1263.96 150.76 1261.65 147.641 Q1259.34 144.482 1254.52 144.482 Q1248.81 144.482 1245.45 148.37 Q1242.09 152.219 1242.09 158.822 L1242.09 184.464 L1234.59 184.464 L1234.59 139.094 L1242.09 139.094 L1242.09 146.142 Q1244.64 141.97 1248.2 139.985 Q1251.77 138 1256.67 138 Q1261.61 138 1265.06 140.512 Q1268.54 143.023 1270.2 147.803 Z" fill="#000000" fill-rule="nonzero" fill-opacity="1" /><path clip-path="url(#clip680)" d="M1354.5 159.916 L1354.5 163.561 L1320.23 163.561 Q1320.72 171.258 1324.85 175.309 Q1329.02 179.319 1336.43 179.319 Q1340.73 179.319 1344.74 178.266 Q1348.79 177.213 1352.76 175.106 L1352.76 182.155 Q1348.75 183.856 1344.54 184.748 Q1340.32 185.639 1335.99 185.639 Q1325.13 185.639 1318.77 179.319 Q1312.45 173 1312.45 162.225 Q1312.45 151.085 1318.45 144.563 Q1324.48 138 1334.69 138 Q1343.85 138 1349.15 143.914 Q1354.5 149.788 1354.5 159.916 M1347.05 157.728 Q1346.97 151.611 1343.6 147.965 Q1340.28 144.32 1334.77 144.32 Q1328.53 144.32 1324.77 147.844 Q1321.04 151.368 1320.47 157.769 L1347.05 157.728 Z" fill="#000000" fill-rule="nonzero" fill-opacity="1" /><path clip-path="url(#clip680)" d="M1387.76 139.094 L1395.66 139.094 L1409.84 177.172 L1424.01 139.094 L1431.91 139.094 L1414.9 184.464 L1404.77 184.464 L1387.76 139.094 Z" fill="#000000" fill-rule="nonzero" fill-opacity="1" /><path clip-path="url(#clip680)" d="M1471.13 140.431 L1471.13 147.479 Q1467.97 145.859 1464.56 145.049 Q1461.16 144.239 1457.51 144.239 Q1451.97 144.239 1449.17 145.94 Q1446.42 147.641 1446.42 151.044 Q1446.42 153.637 1448.4 155.135 Q1450.39 156.594 1456.38 157.931 L1458.93 158.498 Q1466.87 160.199 1470.19 163.318 Q1473.56 166.397 1473.56 171.947 Q1473.56 178.266 1468.53 181.952 Q1463.55 185.639 1454.8 185.639 Q1451.15 185.639 1447.18 184.91 Q1443.26 184.221 1438.88 182.803 L1438.88 175.106 Q1443.01 177.253 1447.02 178.347 Q1451.03 179.4 1454.96 179.4 Q1460.23 179.4 1463.06 177.618 Q1465.9 175.795 1465.9 172.514 Q1465.9 169.476 1463.83 167.855 Q1461.81 166.235 1454.88 164.736 L1452.29 164.128 Q1445.36 162.67 1442.28 159.672 Q1439.2 156.634 1439.2 151.368 Q1439.2 144.968 1443.74 141.484 Q1448.28 138 1456.62 138 Q1460.76 138 1464.4 138.608 Q1468.05 139.215 1471.13 140.431 Z" fill="#000000" fill-rule="nonzero" fill-opacity="1" /><path clip-path="url(#clip680)" d="M1541.65 161.252 Q1541.65 153.151 1538.29 148.695 Q1534.97 144.239 1528.93 144.239 Q1522.94 144.239 1519.57 148.695 Q1516.25 153.151 1516.25 161.252 Q1516.25 169.314 1519.57 173.77 Q1522.94 178.226 1528.93 178.226 Q1534.97 178.226 1538.29 173.77 Q1541.65 169.314 1541.65 161.252 M1549.11 178.833 Q1549.11 190.419 1543.96 196.05 Q1538.82 201.721 1528.2 201.721 Q1524.27 201.721 1520.79 201.113 Q1517.31 200.546 1514.02 199.331 L1514.02 192.08 Q1517.31 193.862 1520.51 194.713 Q1523.71 195.563 1527.03 195.563 Q1534.36 195.563 1538.01 191.715 Q1541.65 187.907 1541.65 180.17 L1541.65 176.484 Q1539.34 180.494 1535.74 182.479 Q1532.13 184.464 1527.11 184.464 Q1518.76 184.464 1513.66 178.104 Q1508.56 171.744 1508.56 161.252 Q1508.56 150.72 1513.66 144.36 Q1518.76 138 1527.11 138 Q1532.13 138 1535.74 139.985 Q1539.34 141.97 1541.65 145.98 L1541.65 139.094 L1549.11 139.094 L1549.11 178.833 Z" fill="#000000" fill-rule="nonzero" fill-opacity="1" /><path clip-path="url(#clip680)" d="M1590.75 146.061 Q1589.49 145.332 1587.99 145.008 Q1586.54 144.644 1584.75 144.644 Q1578.43 144.644 1575.03 148.776 Q1571.67 152.867 1571.67 160.564 L1571.67 184.464 L1564.18 184.464 L1564.18 139.094 L1571.67 139.094 L1571.67 146.142 Q1574.02 142.011 1577.79 140.026 Q1581.55 138 1586.94 138 Q1587.71 138 1588.64 138.122 Q1589.57 138.203 1590.71 138.405 L1590.75 146.061 Z" fill="#000000" fill-rule="nonzero" fill-opacity="1" /><path clip-path="url(#clip680)" d="M1598.57 139.094 L1606.02 139.094 L1606.02 184.464 L1598.57 184.464 L1598.57 139.094 M1598.57 121.432 L1606.02 121.432 L1606.02 130.871 L1598.57 130.871 L1598.57 121.432 Z" fill="#000000" fill-rule="nonzero" fill-opacity="1" /><path clip-path="url(#clip680)" d="M1651.47 145.98 L1651.47 121.432 L1658.93 121.432 L1658.93 184.464 L1651.47 184.464 L1651.47 177.658 Q1649.12 181.709 1645.52 183.694 Q1641.95 185.639 1636.93 185.639 Q1628.71 185.639 1623.52 179.076 Q1618.38 172.514 1618.38 161.819 Q1618.38 151.125 1623.52 144.563 Q1628.71 138 1636.93 138 Q1641.95 138 1645.52 139.985 Q1649.12 141.93 1651.47 145.98 M1626.07 161.819 Q1626.07 170.043 1629.44 174.742 Q1632.84 179.4 1638.75 179.4 Q1644.67 179.4 1648.07 174.742 Q1651.47 170.043 1651.47 161.819 Q1651.47 153.596 1648.07 148.938 Q1644.67 144.239 1638.75 144.239 Q1632.84 144.239 1629.44 148.938 Q1626.07 153.596 1626.07 161.819 Z" fill="#000000" fill-rule="nonzero" fill-opacity="1" /><path clip-path="url(#clip680)" d="M1729.57 140.431 L1729.57 147.479 Q1726.41 145.859 1723.01 145.049 Q1719.61 144.239 1715.96 144.239 Q1710.41 144.239 1707.62 145.94 Q1704.86 147.641 1704.86 151.044 Q1704.86 153.637 1706.85 155.135 Q1708.83 156.594 1714.83 157.931 L1717.38 158.498 Q1725.32 160.199 1728.64 163.318 Q1732 166.397 1732 171.947 Q1732 178.266 1726.98 181.952 Q1722 185.639 1713.25 185.639 Q1709.6 185.639 1705.63 184.91 Q1701.7 184.221 1697.33 182.803 L1697.33 175.106 Q1701.46 177.253 1705.47 178.347 Q1709.48 179.4 1713.41 179.4 Q1718.68 179.4 1721.51 177.618 Q1724.35 175.795 1724.35 172.514 Q1724.35 169.476 1722.28 167.855 Q1720.26 166.235 1713.33 164.736 L1710.74 164.128 Q1703.81 162.67 1700.73 159.672 Q1697.65 156.634 1697.65 151.368 Q1697.65 144.968 1702.19 141.484 Q1706.73 138 1715.07 138 Q1719.2 138 1722.85 138.608 Q1726.49 139.215 1729.57 140.431 Z" fill="#000000" fill-rule="nonzero" fill-opacity="1" /><path clip-path="url(#clip680)" d="M1743.87 139.094 L1751.33 139.094 L1751.33 184.464 L1743.87 184.464 L1743.87 139.094 M1743.87 121.432 L1751.33 121.432 L1751.33 130.871 L1743.87 130.871 L1743.87 121.432 Z" fill="#000000" fill-rule="nonzero" fill-opacity="1" /><path clip-path="url(#clip680)" d="M1763.68 139.094 L1799.09 139.094 L1799.09 145.899 L1771.05 178.509 L1799.09 178.509 L1799.09 184.464 L1762.67 184.464 L1762.67 177.658 L1790.7 145.049 L1763.68 145.049 L1763.68 139.094 Z" fill="#000000" fill-rule="nonzero" fill-opacity="1" /><path clip-path="url(#clip680)" d="M1849.28 159.916 L1849.28 163.561 L1815.01 163.561 Q1815.49 171.258 1819.63 175.309 Q1823.8 179.319 1831.21 179.319 Q1835.5 179.319 1839.52 178.266 Q1843.57 177.213 1847.54 175.106 L1847.54 182.155 Q1843.53 183.856 1839.31 184.748 Q1835.1 185.639 1830.77 185.639 Q1819.91 185.639 1813.55 179.319 Q1807.23 173 1807.23 162.225 Q1807.23 151.085 1813.22 144.563 Q1819.26 138 1829.47 138 Q1838.62 138 1843.93 143.914 Q1849.28 149.788 1849.28 159.916 M1841.82 157.728 Q1841.74 151.611 1838.38 147.965 Q1835.06 144.32 1829.55 144.32 Q1823.31 144.32 1819.54 147.844 Q1815.82 151.368 1815.25 157.769 L1841.82 157.728 Z" fill="#000000" fill-rule="nonzero" fill-opacity="1" /><path clip-path="url(#clip680)" d="M1905.79 121.513 Q1900.36 130.83 1897.73 139.945 Q1895.09 149.059 1895.09 158.417 Q1895.09 167.774 1897.73 176.97 Q1900.4 186.125 1905.79 195.401 L1899.31 195.401 Q1893.23 185.882 1890.19 176.686 Q1887.19 167.491 1887.19 158.417 Q1887.19 149.383 1890.19 140.228 Q1893.19 131.073 1899.31 121.513 L1905.79 121.513 Z" fill="#000000" fill-rule="nonzero" fill-opacity="1" /><path clip-path="url(#clip680)" d="M1952.82 161.819 Q1952.82 153.596 1949.42 148.938 Q1946.05 144.239 1940.14 144.239 Q1934.23 144.239 1930.82 148.938 Q1927.46 153.596 1927.46 161.819 Q1927.46 170.043 1930.82 174.742 Q1934.23 179.4 1940.14 179.4 Q1946.05 179.4 1949.42 174.742 Q1952.82 170.043 1952.82 161.819 M1927.46 145.98 Q1929.81 141.93 1933.37 139.985 Q1936.98 138 1941.96 138 Q1950.23 138 1955.37 144.563 Q1960.56 151.125 1960.56 161.819 Q1960.56 172.514 1955.37 179.076 Q1950.23 185.639 1941.96 185.639 Q1936.98 185.639 1933.37 183.694 Q1929.81 181.709 1927.46 177.658 L1927.46 184.464 L1919.97 184.464 L1919.97 121.432 L1927.46 121.432 L1927.46 145.98 Z" fill="#000000" fill-rule="nonzero" fill-opacity="1" /><path clip-path="url(#clip680)" d="M1993.53 161.657 Q1984.5 161.657 1981.01 163.723 Q1977.53 165.789 1977.53 170.772 Q1977.53 174.742 1980.12 177.091 Q1982.76 179.4 1987.25 179.4 Q1993.45 179.4 1997.18 175.025 Q2000.94 170.61 2000.94 163.318 L2000.94 161.657 L1993.53 161.657 M2008.4 158.579 L2008.4 184.464 L2000.94 184.464 L2000.94 177.577 Q1998.39 181.709 1994.58 183.694 Q1990.78 185.639 1985.27 185.639 Q1978.3 185.639 1974.17 181.75 Q1970.08 177.821 1970.08 171.258 Q1970.08 163.602 1975.18 159.713 Q1980.32 155.824 1990.49 155.824 L2000.94 155.824 L2000.94 155.095 Q2000.94 149.95 1997.54 147.155 Q1994.18 144.32 1988.06 144.32 Q1984.17 144.32 1980.49 145.251 Q1976.8 146.183 1973.4 148.046 L1973.4 141.16 Q1977.49 139.58 1981.34 138.81 Q1985.19 138 1988.83 138 Q1998.68 138 2003.54 143.104 Q2008.4 148.208 2008.4 158.579 Z" fill="#000000" fill-rule="nonzero" fill-opacity="1" /><path clip-path="url(#clip680)" d="M2050.04 146.061 Q2048.78 145.332 2047.29 145.008 Q2045.83 144.644 2044.05 144.644 Q2037.73 144.644 2034.32 148.776 Q2030.96 152.867 2030.96 160.564 L2030.96 184.464 L2023.47 184.464 L2023.47 139.094 L2030.96 139.094 L2030.96 146.142 Q2033.31 142.011 2037.08 140.026 Q2040.85 138 2046.23 138 Q2047 138 2047.93 138.122 Q2048.87 138.203 2050 138.405 L2050.04 146.061 Z" fill="#000000" fill-rule="nonzero" fill-opacity="1" /><path clip-path="url(#clip680)" d="M2056.68 121.513 L2063.17 121.513 Q2069.24 131.073 2072.24 140.228 Q2075.28 149.383 2075.28 158.417 Q2075.28 167.491 2072.24 176.686 Q2069.24 185.882 2063.17 195.401 L2056.68 195.401 Q2062.07 186.125 2064.7 176.97 Q2067.38 167.774 2067.38 158.417 Q2067.38 149.059 2064.7 139.945 Q2062.07 130.83 2056.68 121.513 Z" fill="#000000" fill-rule="nonzero" fill-opacity="1" /><path clip-path="url(#clip680)" d="M2112.83 158.822 L2187.69 158.822 L2187.69 164.655 L2112.83 164.655 L2112.83 158.822 Z" fill="#000000" fill-rule="nonzero" fill-opacity="1" /><path clip-path="url(#clip680)" d="M2255.79 145.98 L2255.79 121.432 L2263.24 121.432 L2263.24 184.464 L2255.79 184.464 L2255.79 177.658 Q2253.44 181.709 2249.83 183.694 Q2246.27 185.639 2241.24 185.639 Q2233.02 185.639 2227.83 179.076 Q2222.69 172.514 2222.69 161.819 Q2222.69 151.125 2227.83 144.563 Q2233.02 138 2241.24 138 Q2246.27 138 2249.83 139.985 Q2253.44 141.93 2255.79 145.98 M2230.39 161.819 Q2230.39 170.043 2233.75 174.742 Q2237.15 179.4 2243.07 179.4 Q2248.98 179.4 2252.38 174.742 Q2255.79 170.043 2255.79 161.819 Q2255.79 153.596 2252.38 148.938 Q2248.98 144.239 2243.07 144.239 Q2237.15 144.239 2233.75 148.938 Q2230.39 153.596 2230.39 161.819 Z" fill="#000000" fill-rule="nonzero" fill-opacity="1" /><path clip-path="url(#clip680)" d="M2296.17 144.32 Q2290.18 144.32 2286.69 149.019 Q2283.21 153.677 2283.21 161.819 Q2283.21 169.962 2286.65 174.661 Q2290.14 179.319 2296.17 179.319 Q2302.13 179.319 2305.61 174.62 Q2309.1 169.921 2309.1 161.819 Q2309.1 153.758 2305.61 149.059 Q2302.13 144.32 2296.17 144.32 M2296.17 138 Q2305.9 138 2311.45 144.32 Q2317 150.639 2317 161.819 Q2317 172.959 2311.45 179.319 Q2305.9 185.639 2296.17 185.639 Q2286.41 185.639 2280.86 179.319 Q2275.35 172.959 2275.35 161.819 Q2275.35 150.639 2280.86 144.32 Q2286.41 138 2296.17 138 Z" fill="#000000" fill-rule="nonzero" fill-opacity="1" /><path clip-path="url(#clip680)" d="M2328.58 166.559 L2328.58 139.094 L2336.03 139.094 L2336.03 166.275 Q2336.03 172.716 2338.55 175.957 Q2341.06 179.157 2346.08 179.157 Q2352.12 179.157 2355.6 175.309 Q2359.12 171.461 2359.12 164.817 L2359.12 139.094 L2366.58 139.094 L2366.58 184.464 L2359.12 184.464 L2359.12 177.496 Q2356.41 181.628 2352.81 183.654 Q2349.24 185.639 2344.5 185.639 Q2336.68 185.639 2332.63 180.778 Q2328.58 175.917 2328.58 166.559 M2347.34 138 L2347.34 138 Z" fill="#000000" fill-rule="nonzero" fill-opacity="1" /><path clip-path="url(#clip680)" d="M2414.5 161.819 Q2414.5 153.596 2411.1 148.938 Q2407.74 144.239 2401.82 144.239 Q2395.91 144.239 2392.5 148.938 Q2389.14 153.596 2389.14 161.819 Q2389.14 170.043 2392.5 174.742 Q2395.91 179.4 2401.82 179.4 Q2407.74 179.4 2411.1 174.742 Q2414.5 170.043 2414.5 161.819 M2389.14 145.98 Q2391.49 141.93 2395.06 139.985 Q2398.66 138 2403.64 138 Q2411.91 138 2417.05 144.563 Q2422.24 151.125 2422.24 161.819 Q2422.24 172.514 2417.05 179.076 Q2411.91 185.639 2403.64 185.639 Q2398.66 185.639 2395.06 183.694 Q2391.49 181.709 2389.14 177.658 L2389.14 184.464 L2381.65 184.464 L2381.65 121.432 L2389.14 121.432 L2389.14 145.98 Z" fill="#000000" fill-rule="nonzero" fill-opacity="1" /><path clip-path="url(#clip680)" d="M2434.59 121.432 L2442.05 121.432 L2442.05 184.464 L2434.59 184.464 L2434.59 121.432 Z" fill="#000000" fill-rule="nonzero" fill-opacity="1" /><path clip-path="url(#clip680)" d="M2496.45 159.916 L2496.45 163.561 L2462.18 163.561 Q2462.67 171.258 2466.8 175.309 Q2470.97 179.319 2478.38 179.319 Q2482.68 179.319 2486.69 178.266 Q2490.74 177.213 2494.71 175.106 L2494.71 182.155 Q2490.7 183.856 2486.48 184.748 Q2482.27 185.639 2477.94 185.639 Q2467.08 185.639 2460.72 179.319 Q2454.4 173 2454.4 162.225 Q2454.4 151.085 2460.4 144.563 Q2466.43 138 2476.64 138 Q2485.8 138 2491.1 143.914 Q2496.45 149.788 2496.45 159.916 M2489 157.728 Q2488.92 151.611 2485.55 147.965 Q2482.23 144.32 2476.72 144.32 Q2470.48 144.32 2466.72 147.844 Q2462.99 151.368 2462.42 157.769 L2489 157.728 Z" fill="#000000" fill-rule="nonzero" fill-opacity="1" /><path clip-path="url(#clip680)" d="M2543.16 198.237 L2543.16 204.03 L2500.06 204.03 L2500.06 198.237 L2543.16 198.237 Z" fill="#000000" fill-rule="nonzero" fill-opacity="1" /><path clip-path="url(#clip680)" d="M2567.75 144.32 Q2561.75 144.32 2558.27 149.019 Q2554.78 153.677 2554.78 161.819 Q2554.78 169.962 2558.23 174.661 Q2561.71 179.319 2567.75 179.319 Q2573.7 179.319 2577.18 174.62 Q2580.67 169.921 2580.67 161.819 Q2580.67 153.758 2577.18 149.059 Q2573.7 144.32 2567.75 144.32 M2567.75 138 Q2577.47 138 2583.02 144.32 Q2588.57 150.639 2588.57 161.819 Q2588.57 172.959 2583.02 179.319 Q2577.47 185.639 2567.75 185.639 Q2557.98 185.639 2552.43 179.319 Q2546.92 172.959 2546.92 161.819 Q2546.92 150.639 2552.43 144.32 Q2557.98 138 2567.75 138 Z" fill="#000000" fill-rule="nonzero" fill-opacity="1" /><path clip-path="url(#clip680)" d="M2629.85 140.431 L2629.85 147.479 Q2626.69 145.859 2623.28 145.049 Q2619.88 144.239 2616.24 144.239 Q2610.69 144.239 2607.89 145.94 Q2605.14 147.641 2605.14 151.044 Q2605.14 153.637 2607.12 155.135 Q2609.11 156.594 2615.1 157.931 L2617.65 158.498 Q2625.59 160.199 2628.91 163.318 Q2632.28 166.397 2632.28 171.947 Q2632.28 178.266 2627.25 181.952 Q2622.27 185.639 2613.52 185.639 Q2609.88 185.639 2605.91 184.91 Q2601.98 184.221 2597.6 182.803 L2597.6 175.106 Q2601.73 177.253 2605.74 178.347 Q2609.75 179.4 2613.68 179.4 Q2618.95 179.4 2621.79 177.618 Q2624.62 175.795 2624.62 172.514 Q2624.62 169.476 2622.55 167.855 Q2620.53 166.235 2613.6 164.736 L2611.01 164.128 Q2604.08 162.67 2601 159.672 Q2597.93 156.634 2597.93 151.368 Q2597.93 144.968 2602.46 141.484 Q2607 138 2615.34 138 Q2619.48 138 2623.12 138.608 Q2626.77 139.215 2629.85 140.431 Z" fill="#000000" fill-rule="nonzero" fill-opacity="1" /><path clip-path="url(#clip680)" d="M2676.8 140.836 L2676.8 147.803 Q2673.64 146.061 2670.44 145.211 Q2667.28 144.32 2664.04 144.32 Q2656.78 144.32 2652.77 148.938 Q2648.76 153.515 2648.76 161.819 Q2648.76 170.124 2652.77 174.742 Q2656.78 179.319 2664.04 179.319 Q2667.28 179.319 2670.44 178.469 Q2673.64 177.577 2676.8 175.836 L2676.8 182.722 Q2673.68 184.18 2670.32 184.91 Q2666.99 185.639 2663.23 185.639 Q2652.98 185.639 2646.94 179.198 Q2640.91 172.757 2640.91 161.819 Q2640.91 150.72 2646.98 144.36 Q2653.1 138 2663.71 138 Q2667.16 138 2670.44 138.729 Q2673.72 139.418 2676.8 140.836 Z" fill="#000000" fill-rule="nonzero" fill-opacity="1" /><path clip-path="url(#clip680)" d="M2689.76 139.094 L2697.21 139.094 L2697.21 184.464 L2689.76 184.464 L2689.76 139.094 M2689.76 121.432 L2697.21 121.432 L2697.21 130.871 L2689.76 130.871 L2689.76 121.432 Z" fill="#000000" fill-rule="nonzero" fill-opacity="1" /><path clip-path="url(#clip680)" d="M2712.81 121.432 L2720.26 121.432 L2720.26 184.464 L2712.81 184.464 L2712.81 121.432 Z" fill="#000000" fill-rule="nonzero" fill-opacity="1" /><path clip-path="url(#clip680)" d="M2735.86 121.432 L2743.31 121.432 L2743.31 184.464 L2735.86 184.464 L2735.86 121.432 Z" fill="#000000" fill-rule="nonzero" fill-opacity="1" /><path clip-path="url(#clip680)" d="M2779.53 161.657 Q2770.49 161.657 2767.01 163.723 Q2763.53 165.789 2763.53 170.772 Q2763.53 174.742 2766.12 177.091 Q2768.75 179.4 2773.25 179.4 Q2779.45 179.4 2783.17 175.025 Q2786.94 170.61 2786.94 163.318 L2786.94 161.657 L2779.53 161.657 M2794.39 158.579 L2794.39 184.464 L2786.94 184.464 L2786.94 177.577 Q2784.39 181.709 2780.58 183.694 Q2776.77 185.639 2771.26 185.639 Q2764.3 185.639 2760.16 181.75 Q2756.07 177.821 2756.07 171.258 Q2756.07 163.602 2761.18 159.713 Q2766.32 155.824 2776.49 155.824 L2786.94 155.824 L2786.94 155.095 Q2786.94 149.95 2783.54 147.155 Q2780.18 144.32 2774.06 144.32 Q2770.17 144.32 2766.48 145.251 Q2762.8 146.183 2759.39 148.046 L2759.39 141.16 Q2763.49 139.58 2767.33 138.81 Q2771.18 138 2774.83 138 Q2784.67 138 2789.53 143.104 Q2794.39 148.208 2794.39 158.579 Z" fill="#000000" fill-rule="nonzero" fill-opacity="1" /><path clip-path="url(#clip680)" d="M2817.12 126.212 L2817.12 139.094 L2832.47 139.094 L2832.47 144.887 L2817.12 144.887 L2817.12 169.516 Q2817.12 175.066 2818.62 176.646 Q2820.16 178.226 2824.82 178.226 L2832.47 178.226 L2832.47 184.464 L2824.82 184.464 Q2816.19 184.464 2812.91 181.264 Q2809.63 178.023 2809.63 169.516 L2809.63 144.887 L2804.16 144.887 L2804.16 139.094 L2809.63 139.094 L2809.63 126.212 L2817.12 126.212 Z" fill="#000000" fill-rule="nonzero" fill-opacity="1" /><path clip-path="url(#clip680)" d="M2859.86 144.32 Q2853.86 144.32 2850.38 149.019 Q2846.89 153.677 2846.89 161.819 Q2846.89 169.962 2850.34 174.661 Q2853.82 179.319 2859.86 179.319 Q2865.81 179.319 2869.3 174.62 Q2872.78 169.921 2872.78 161.819 Q2872.78 153.758 2869.3 149.059 Q2865.81 144.32 2859.86 144.32 M2859.86 138 Q2869.58 138 2875.13 144.32 Q2880.68 150.639 2880.68 161.819 Q2880.68 172.959 2875.13 179.319 Q2869.58 185.639 2859.86 185.639 Q2850.09 185.639 2844.54 179.319 Q2839.04 172.959 2839.04 161.819 Q2839.04 150.639 2844.54 144.32 Q2850.09 138 2859.86 138 Z" fill="#000000" fill-rule="nonzero" fill-opacity="1" /><path clip-path="url(#clip680)" d="M2919.32 146.061 Q2918.07 145.332 2916.57 145.008 Q2915.11 144.644 2913.33 144.644 Q2907.01 144.644 2903.61 148.776 Q2900.24 152.867 2900.24 160.564 L2900.24 184.464 L2892.75 184.464 L2892.75 139.094 L2900.24 139.094 L2900.24 146.142 Q2902.59 142.011 2906.36 140.026 Q2910.13 138 2915.52 138 Q2916.29 138 2917.22 138.122 Q2918.15 138.203 2919.28 138.405 L2919.32 146.061 Z" fill="#000000" fill-rule="nonzero" fill-opacity="1" /><path clip-path="url(#clip682)" d="M464.999 2086.18 L464.999 2156.51 L570.299 2156.51 L570.299 2086.18 L464.999 2086.18 L464.999 2086.18  Z" fill="#ffa500" fill-rule="evenodd" fill-opacity="1"/>
<polyline clip-path="url(#clip682)" style="stroke:#000000; stroke-linecap:round; stroke-linejoin:round; stroke-width:0; stroke-opacity:0; fill:none" points="464.999,2086.18 464.999,2156.51 570.299,2156.51 570.299,2086.18 464.999,2086.18 "/>
<path clip-path="url(#clip682)" d="M1781.25 1282.47 L1781.25 2156.51 L1886.55 2156.51 L1886.55 1282.47 L1781.25 1282.47 L1781.25 1282.47  Z" fill="#ffa500" fill-rule="evenodd" fill-opacity="1"/>
<polyline clip-path="url(#clip682)" style="stroke:#000000; stroke-linecap:round; stroke-linejoin:round; stroke-width:0; stroke-opacity:0; fill:none" points="1781.25,1282.47 1781.25,2156.51 1886.55,2156.51 1886.55,1282.47 1781.25,1282.47 "/>
<path clip-path="url(#clip682)" d="M3097.5 246.944 L3097.5 2156.51 L3202.8 2156.51 L3202.8 246.944 L3097.5 246.944 L3097.5 246.944  Z" fill="#ffa500" fill-rule="evenodd" fill-opacity="1"/>
<polyline clip-path="url(#clip682)" style="stroke:#000000; stroke-linecap:round; stroke-linejoin:round; stroke-width:0; stroke-opacity:0; fill:none" points="3097.5,246.944 3097.5,2156.51 3202.8,2156.51 3202.8,246.944 3097.5,246.944 "/>
<circle clip-path="url(#clip682)" style="fill:#ffa500; stroke:none; fill-opacity:0" cx="517.649" cy="2086.18" r="2"/>
<circle clip-path="url(#clip682)" style="fill:#ffa500; stroke:none; fill-opacity:0" cx="1833.9" cy="1282.47" r="2"/>
<circle clip-path="url(#clip682)" style="fill:#ffa500; stroke:none; fill-opacity:0" cx="3150.15" cy="246.944" r="2"/>
<path clip-path="url(#clip682)" d="M640.499 2049.74 L640.499 2156.51 L745.799 2156.51 L745.799 2049.74 L640.499 2049.74 L640.499 2049.74  Z" fill="#00ffff" fill-rule="evenodd" fill-opacity="1"/>
<polyline clip-path="url(#clip682)" style="stroke:#000000; stroke-linecap:round; stroke-linejoin:round; stroke-width:0; stroke-opacity:0; fill:none" points="640.499,2049.74 640.499,2156.51 745.799,2156.51 745.799,2049.74 640.499,2049.74 "/>
<path clip-path="url(#clip682)" d="M1956.75 1936.39 L1956.75 2156.51 L2062.05 2156.51 L2062.05 1936.39 L1956.75 1936.39 L1956.75 1936.39  Z" fill="#00ffff" fill-rule="evenodd" fill-opacity="1"/>
<polyline clip-path="url(#clip682)" style="stroke:#000000; stroke-linecap:round; stroke-linejoin:round; stroke-width:0; stroke-opacity:0; fill:none" points="1956.75,1936.39 1956.75,2156.51 2062.05,2156.51 2062.05,1936.39 1956.75,1936.39 "/>
<path clip-path="url(#clip682)" d="M3273 1798.47 L3273 2156.51 L3378.3 2156.51 L3378.3 1798.47 L3273 1798.47 L3273 1798.47  Z" fill="#00ffff" fill-rule="evenodd" fill-opacity="1"/>
<polyline clip-path="url(#clip682)" style="stroke:#000000; stroke-linecap:round; stroke-linejoin:round; stroke-width:0; stroke-opacity:0; fill:none" points="3273,1798.47 3273,2156.51 3378.3,2156.51 3378.3,1798.47 3273,1798.47 "/>
<circle clip-path="url(#clip682)" style="fill:#00ffff; stroke:none; fill-opacity:0" cx="693.149" cy="2049.74" r="2"/>
<circle clip-path="url(#clip682)" style="fill:#00ffff; stroke:none; fill-opacity:0" cx="2009.4" cy="1936.39" r="2"/>
<circle clip-path="url(#clip682)" style="fill:#00ffff; stroke:none; fill-opacity:0" cx="3325.65" cy="1798.47" r="2"/>
<path clip-path="url(#clip680)" d="M399.279 466.116 L1162.49 466.116 L1162.49 310.596 L399.279 310.596  Z" fill="#ffffff" fill-rule="evenodd" fill-opacity="1"/>
<polyline clip-path="url(#clip680)" style="stroke:#000000; stroke-linecap:round; stroke-linejoin:round; stroke-width:4; stroke-opacity:1; fill:none" points="399.279,466.116 1162.49,466.116 1162.49,310.596 399.279,310.596 399.279,466.116 "/>
<path clip-path="url(#clip680)" d="M435.526 383.172 L653.007 383.172 L653.007 341.7 L435.526 341.7 L435.526 383.172  Z" fill="#ffa500" fill-rule="evenodd" fill-opacity="1"/>
<polyline clip-path="url(#clip680)" style="stroke:#000000; stroke-linecap:round; stroke-linejoin:round; stroke-width:0.8; stroke-opacity:0; fill:none" points="435.526,383.172 653.007,383.172 653.007,341.7 435.526,341.7 435.526,383.172 "/>
<path clip-path="url(#clip680)" d="M699.879 343.744 Q696.777 349.068 695.272 354.277 Q693.768 359.485 693.768 364.832 Q693.768 370.179 695.272 375.434 Q696.8 380.665 699.879 385.966 L696.175 385.966 Q692.703 380.527 690.967 375.272 Q689.254 370.017 689.254 364.832 Q689.254 359.67 690.967 354.439 Q692.68 349.207 696.175 343.744 L699.879 343.744 Z" fill="#000000" fill-rule="nonzero" fill-opacity="1" /><path clip-path="url(#clip680)" d="M730.318 365.689 L730.318 367.772 L710.735 367.772 Q711.013 372.17 713.374 374.485 Q715.758 376.777 719.994 376.777 Q722.448 376.777 724.74 376.175 Q727.055 375.573 729.323 374.369 L729.323 378.397 Q727.031 379.369 724.624 379.878 Q722.217 380.388 719.74 380.388 Q713.536 380.388 709.902 376.777 Q706.291 373.165 706.291 367.008 Q706.291 360.642 709.717 356.916 Q713.166 353.166 718.999 353.166 Q724.231 353.166 727.263 356.545 Q730.318 359.902 730.318 365.689 M726.059 364.439 Q726.013 360.943 724.092 358.86 Q722.194 356.777 719.045 356.777 Q715.481 356.777 713.328 358.791 Q711.198 360.804 710.874 364.462 L726.059 364.439 Z" fill="#000000" fill-rule="nonzero" fill-opacity="1" /><path clip-path="url(#clip680)" d="M758.027 353.791 L748.652 366.406 L758.513 379.716 L753.49 379.716 L745.943 369.531 L738.397 379.716 L733.374 379.716 L743.443 366.152 L734.23 353.791 L739.254 353.791 L746.129 363.027 L753.004 353.791 L758.027 353.791 Z" fill="#000000" fill-rule="nonzero" fill-opacity="1" /><path clip-path="url(#clip680)" d="M776.314 366.684 Q771.152 366.684 769.161 367.865 Q767.17 369.045 767.17 371.892 Q767.17 374.161 768.652 375.503 Q770.156 376.823 772.726 376.823 Q776.267 376.823 778.397 374.323 Q780.55 371.8 780.55 367.633 L780.55 366.684 L776.314 366.684 M784.809 364.925 L784.809 379.716 L780.55 379.716 L780.55 375.781 Q779.091 378.142 776.915 379.277 Q774.74 380.388 771.591 380.388 Q767.61 380.388 765.249 378.165 Q762.911 375.92 762.911 372.17 Q762.911 367.795 765.828 365.573 Q768.767 363.351 774.577 363.351 L780.55 363.351 L780.55 362.934 Q780.55 359.994 778.605 358.397 Q776.684 356.777 773.189 356.777 Q770.966 356.777 768.86 357.309 Q766.753 357.841 764.809 358.906 L764.809 354.971 Q767.147 354.068 769.346 353.629 Q771.545 353.166 773.628 353.166 Q779.253 353.166 782.031 356.082 Q784.809 358.999 784.809 364.925 Z" fill="#000000" fill-rule="nonzero" fill-opacity="1" /><path clip-path="url(#clip680)" d="M794.67 373.837 L799.554 373.837 L799.554 377.818 L795.758 385.226 L792.772 385.226 L794.67 377.818 L794.67 373.837 Z" fill="#000000" fill-rule="nonzero" fill-opacity="1" /><path clip-path="url(#clip680)" d="M843.906 358.767 Q845.503 355.897 847.725 354.531 Q849.947 353.166 852.957 353.166 Q857.008 353.166 859.207 356.013 Q861.406 358.837 861.406 364.068 L861.406 379.716 L857.123 379.716 L857.123 364.207 Q857.123 360.48 855.804 358.675 Q854.484 356.869 851.776 356.869 Q848.466 356.869 846.545 359.068 Q844.623 361.267 844.623 365.064 L844.623 379.716 L840.341 379.716 L840.341 364.207 Q840.341 360.457 839.022 358.675 Q837.702 356.869 834.948 356.869 Q831.684 356.869 829.762 359.091 Q827.841 361.291 827.841 365.064 L827.841 379.716 L823.559 379.716 L823.559 353.791 L827.841 353.791 L827.841 357.818 Q829.299 355.434 831.336 354.3 Q833.373 353.166 836.174 353.166 Q838.998 353.166 840.966 354.601 Q842.957 356.036 843.906 358.767 Z" fill="#000000" fill-rule="nonzero" fill-opacity="1" /><path clip-path="url(#clip680)" d="M881.683 366.684 Q876.521 366.684 874.531 367.865 Q872.54 369.045 872.54 371.892 Q872.54 374.161 874.021 375.503 Q875.526 376.823 878.095 376.823 Q881.637 376.823 883.767 374.323 Q885.919 371.8 885.919 367.633 L885.919 366.684 L881.683 366.684 M890.179 364.925 L890.179 379.716 L885.919 379.716 L885.919 375.781 Q884.461 378.142 882.285 379.277 Q880.109 380.388 876.961 380.388 Q872.98 380.388 870.619 378.165 Q868.281 375.92 868.281 372.17 Q868.281 367.795 871.197 365.573 Q874.137 363.351 879.947 363.351 L885.919 363.351 L885.919 362.934 Q885.919 359.994 883.975 358.397 Q882.054 356.777 878.558 356.777 Q876.336 356.777 874.23 357.309 Q872.123 357.841 870.179 358.906 L870.179 354.971 Q872.517 354.068 874.716 353.629 Q876.915 353.166 878.998 353.166 Q884.623 353.166 887.401 356.082 Q890.179 358.999 890.179 364.925 Z" fill="#000000" fill-rule="nonzero" fill-opacity="1" /><path clip-path="url(#clip680)" d="M916.012 357.726 L916.012 343.698 L920.271 343.698 L920.271 379.716 L916.012 379.716 L916.012 375.827 Q914.669 378.142 912.609 379.277 Q910.572 380.388 907.702 380.388 Q903.003 380.388 900.04 376.638 Q897.1 372.888 897.1 366.777 Q897.1 360.666 900.04 356.916 Q903.003 353.166 907.702 353.166 Q910.572 353.166 912.609 354.3 Q914.669 355.411 916.012 357.726 M901.498 366.777 Q901.498 371.476 903.419 374.161 Q905.364 376.823 908.743 376.823 Q912.123 376.823 914.067 374.161 Q916.012 371.476 916.012 366.777 Q916.012 362.078 914.067 359.416 Q912.123 356.73 908.743 356.73 Q905.364 356.73 903.419 359.416 Q901.498 362.078 901.498 366.777 Z" fill="#000000" fill-rule="nonzero" fill-opacity="1" /><path clip-path="url(#clip680)" d="M950.595 364.068 L950.595 379.716 L946.336 379.716 L946.336 364.207 Q946.336 360.527 944.901 358.698 Q943.465 356.869 940.595 356.869 Q937.146 356.869 935.155 359.068 Q933.165 361.267 933.165 365.064 L933.165 379.716 L928.882 379.716 L928.882 353.791 L933.165 353.791 L933.165 357.818 Q934.692 355.48 936.753 354.323 Q938.836 353.166 941.544 353.166 Q946.012 353.166 948.303 355.943 Q950.595 358.698 950.595 364.068 Z" fill="#000000" fill-rule="nonzero" fill-opacity="1" /><path clip-path="url(#clip680)" d="M959.09 343.698 L963.35 343.698 L963.35 379.716 L959.09 379.716 L959.09 343.698 Z" fill="#000000" fill-rule="nonzero" fill-opacity="1" /><path clip-path="url(#clip680)" d="M976.382 375.827 L976.382 389.577 L972.1 389.577 L972.1 353.791 L976.382 353.791 L976.382 357.726 Q977.725 355.411 979.762 354.3 Q981.822 353.166 984.669 353.166 Q989.391 353.166 992.331 356.916 Q995.294 360.666 995.294 366.777 Q995.294 372.888 992.331 376.638 Q989.391 380.388 984.669 380.388 Q981.822 380.388 979.762 379.277 Q977.725 378.142 976.382 375.827 M990.873 366.777 Q990.873 362.078 988.928 359.416 Q987.007 356.73 983.627 356.73 Q980.248 356.73 978.303 359.416 Q976.382 362.078 976.382 366.777 Q976.382 371.476 978.303 374.161 Q980.248 376.823 983.627 376.823 Q987.007 376.823 988.928 374.161 Q990.873 371.476 990.873 366.777 Z" fill="#000000" fill-rule="nonzero" fill-opacity="1" /><path clip-path="url(#clip680)" d="M1001.68 343.744 L1005.39 343.744 Q1008.86 349.207 1010.57 354.439 Q1012.31 359.67 1012.31 364.832 Q1012.31 370.017 1010.57 375.272 Q1008.86 380.527 1005.39 385.966 L1001.68 385.966 Q1004.76 380.665 1006.27 375.434 Q1007.79 370.179 1007.79 364.832 Q1007.79 359.485 1006.27 354.277 Q1004.76 349.068 1001.68 343.744 Z" fill="#000000" fill-rule="nonzero" fill-opacity="1" /><path clip-path="url(#clip680)" d="M435.526 435.012 L653.007 435.012 L653.007 393.54 L435.526 393.54 L435.526 435.012  Z" fill="#00ffff" fill-rule="evenodd" fill-opacity="1"/>
<polyline clip-path="url(#clip680)" style="stroke:#000000; stroke-linecap:round; stroke-linejoin:round; stroke-width:0.8; stroke-opacity:0; fill:none" points="435.526,435.012 653.007,435.012 653.007,393.54 435.526,393.54 435.526,435.012 "/>
<path clip-path="url(#clip680)" d="M699.879 395.584 Q696.777 400.908 695.272 406.117 Q693.768 411.325 693.768 416.672 Q693.768 422.019 695.272 427.274 Q696.8 432.505 699.879 437.806 L696.175 437.806 Q692.703 432.367 690.967 427.112 Q689.254 421.857 689.254 416.672 Q689.254 411.51 690.967 406.279 Q692.68 401.047 696.175 395.584 L699.879 395.584 Z" fill="#000000" fill-rule="nonzero" fill-opacity="1" /><path clip-path="url(#clip680)" d="M730.318 417.529 L730.318 419.612 L710.735 419.612 Q711.013 424.01 713.374 426.325 Q715.758 428.617 719.994 428.617 Q722.448 428.617 724.74 428.015 Q727.055 427.413 729.323 426.209 L729.323 430.237 Q727.031 431.209 724.624 431.718 Q722.217 432.228 719.74 432.228 Q713.536 432.228 709.902 428.617 Q706.291 425.005 706.291 418.848 Q706.291 412.482 709.717 408.756 Q713.166 405.006 718.999 405.006 Q724.231 405.006 727.263 408.385 Q730.318 411.742 730.318 417.529 M726.059 416.279 Q726.013 412.783 724.092 410.7 Q722.194 408.617 719.045 408.617 Q715.481 408.617 713.328 410.631 Q711.198 412.644 710.874 416.302 L726.059 416.279 Z" fill="#000000" fill-rule="nonzero" fill-opacity="1" /><path clip-path="url(#clip680)" d="M758.027 405.631 L748.652 418.246 L758.513 431.556 L753.49 431.556 L745.943 421.371 L738.397 431.556 L733.374 431.556 L743.443 417.992 L734.23 405.631 L739.254 405.631 L746.129 414.867 L753.004 405.631 L758.027 405.631 Z" fill="#000000" fill-rule="nonzero" fill-opacity="1" /><path clip-path="url(#clip680)" d="M776.314 418.524 Q771.152 418.524 769.161 419.705 Q767.17 420.885 767.17 423.732 Q767.17 426.001 768.652 427.343 Q770.156 428.663 772.726 428.663 Q776.267 428.663 778.397 426.163 Q780.55 423.64 780.55 419.473 L780.55 418.524 L776.314 418.524 M784.809 416.765 L784.809 431.556 L780.55 431.556 L780.55 427.621 Q779.091 429.982 776.915 431.117 Q774.74 432.228 771.591 432.228 Q767.61 432.228 765.249 430.005 Q762.911 427.76 762.911 424.01 Q762.911 419.635 765.828 417.413 Q768.767 415.191 774.577 415.191 L780.55 415.191 L780.55 414.774 Q780.55 411.834 778.605 410.237 Q776.684 408.617 773.189 408.617 Q770.966 408.617 768.86 409.149 Q766.753 409.681 764.809 410.746 L764.809 406.811 Q767.147 405.908 769.346 405.469 Q771.545 405.006 773.628 405.006 Q779.253 405.006 782.031 407.922 Q784.809 410.839 784.809 416.765 Z" fill="#000000" fill-rule="nonzero" fill-opacity="1" /><path clip-path="url(#clip680)" d="M813.281 439.427 L813.281 442.737 L788.651 442.737 L788.651 439.427 L813.281 439.427 Z" fill="#000000" fill-rule="nonzero" fill-opacity="1" /><path clip-path="url(#clip680)" d="M834.346 418.293 Q834.346 413.663 832.424 411.117 Q830.526 408.57 827.077 408.57 Q823.651 408.57 821.73 411.117 Q819.832 413.663 819.832 418.293 Q819.832 422.899 821.73 425.445 Q823.651 427.992 827.077 427.992 Q830.526 427.992 832.424 425.445 Q834.346 422.899 834.346 418.293 M838.605 428.339 Q838.605 434.959 835.665 438.177 Q832.725 441.417 826.661 441.417 Q824.415 441.417 822.424 441.07 Q820.434 440.746 818.559 440.052 L818.559 435.908 Q820.434 436.927 822.262 437.413 Q824.091 437.899 825.989 437.899 Q830.179 437.899 832.262 435.7 Q834.346 433.524 834.346 429.103 L834.346 426.996 Q833.026 429.288 830.966 430.422 Q828.906 431.556 826.036 431.556 Q821.267 431.556 818.35 427.922 Q815.434 424.288 815.434 418.293 Q815.434 412.274 818.35 408.64 Q821.267 405.006 826.036 405.006 Q828.906 405.006 830.966 406.14 Q833.026 407.274 834.346 409.566 L834.346 405.631 L838.605 405.631 L838.605 428.339 Z" fill="#000000" fill-rule="nonzero" fill-opacity="1" /><path clip-path="url(#clip680)" d="M851.498 427.667 L851.498 441.417 L847.216 441.417 L847.216 405.631 L851.498 405.631 L851.498 409.566 Q852.841 407.251 854.878 406.14 Q856.938 405.006 859.785 405.006 Q864.508 405.006 867.447 408.756 Q870.41 412.506 870.41 418.617 Q870.41 424.728 867.447 428.478 Q864.508 432.228 859.785 432.228 Q856.938 432.228 854.878 431.117 Q852.841 429.982 851.498 427.667 M865.989 418.617 Q865.989 413.918 864.045 411.256 Q862.123 408.57 858.744 408.57 Q855.364 408.57 853.42 411.256 Q851.498 413.918 851.498 418.617 Q851.498 423.316 853.42 426.001 Q855.364 428.663 858.744 428.663 Q862.123 428.663 864.045 426.001 Q865.989 423.316 865.989 418.617 Z" fill="#000000" fill-rule="nonzero" fill-opacity="1" /><path clip-path="url(#clip680)" d="M877.031 421.325 L877.031 405.631 L881.29 405.631 L881.29 421.163 Q881.29 424.843 882.725 426.695 Q884.16 428.524 887.031 428.524 Q890.48 428.524 892.47 426.325 Q894.484 424.126 894.484 420.33 L894.484 405.631 L898.743 405.631 L898.743 431.556 L894.484 431.556 L894.484 427.575 Q892.933 429.936 890.873 431.093 Q888.836 432.228 886.128 432.228 Q881.66 432.228 879.345 429.45 Q877.031 426.672 877.031 421.325 M887.748 405.006 L887.748 405.006 Z" fill="#000000" fill-rule="nonzero" fill-opacity="1" /><path clip-path="url(#clip680)" d="M908.605 425.677 L913.489 425.677 L913.489 429.658 L909.692 437.066 L906.706 437.066 L908.605 429.658 L908.605 425.677 Z" fill="#000000" fill-rule="nonzero" fill-opacity="1" /><path clip-path="url(#clip680)" d="M957.84 410.607 Q959.438 407.737 961.66 406.371 Q963.882 405.006 966.891 405.006 Q970.942 405.006 973.141 407.853 Q975.34 410.677 975.34 415.908 L975.34 431.556 L971.058 431.556 L971.058 416.047 Q971.058 412.32 969.738 410.515 Q968.419 408.709 965.711 408.709 Q962.401 408.709 960.479 410.908 Q958.558 413.107 958.558 416.904 L958.558 431.556 L954.276 431.556 L954.276 416.047 Q954.276 412.297 952.956 410.515 Q951.637 408.709 948.882 408.709 Q945.618 408.709 943.697 410.931 Q941.776 413.131 941.776 416.904 L941.776 431.556 L937.493 431.556 L937.493 405.631 L941.776 405.631 L941.776 409.658 Q943.234 407.274 945.271 406.14 Q947.308 405.006 950.109 405.006 Q952.933 405.006 954.901 406.441 Q956.891 407.876 957.84 410.607 Z" fill="#000000" fill-rule="nonzero" fill-opacity="1" /><path clip-path="url(#clip680)" d="M995.618 418.524 Q990.456 418.524 988.465 419.705 Q986.474 420.885 986.474 423.732 Q986.474 426.001 987.956 427.343 Q989.461 428.663 992.03 428.663 Q995.572 428.663 997.701 426.163 Q999.854 423.64 999.854 419.473 L999.854 418.524 L995.618 418.524 M1004.11 416.765 L1004.11 431.556 L999.854 431.556 L999.854 427.621 Q998.396 429.982 996.22 431.117 Q994.044 432.228 990.896 432.228 Q986.914 432.228 984.553 430.005 Q982.215 427.76 982.215 424.01 Q982.215 419.635 985.132 417.413 Q988.072 415.191 993.882 415.191 L999.854 415.191 L999.854 414.774 Q999.854 411.834 997.91 410.237 Q995.988 408.617 992.493 408.617 Q990.271 408.617 988.164 409.149 Q986.058 409.681 984.113 410.746 L984.113 406.811 Q986.451 405.908 988.65 405.469 Q990.849 405.006 992.933 405.006 Q998.558 405.006 1001.34 407.922 Q1004.11 410.839 1004.11 416.765 Z" fill="#000000" fill-rule="nonzero" fill-opacity="1" /><path clip-path="url(#clip680)" d="M1029.95 409.566 L1029.95 395.538 L1034.21 395.538 L1034.21 431.556 L1029.95 431.556 L1029.95 427.667 Q1028.6 429.982 1026.54 431.117 Q1024.51 432.228 1021.64 432.228 Q1016.94 432.228 1013.97 428.478 Q1011.03 424.728 1011.03 418.617 Q1011.03 412.506 1013.97 408.756 Q1016.94 405.006 1021.64 405.006 Q1024.51 405.006 1026.54 406.14 Q1028.6 407.251 1029.95 409.566 M1015.43 418.617 Q1015.43 423.316 1017.35 426.001 Q1019.3 428.663 1022.68 428.663 Q1026.06 428.663 1028 426.001 Q1029.95 423.316 1029.95 418.617 Q1029.95 413.918 1028 411.256 Q1026.06 408.57 1022.68 408.57 Q1019.3 408.57 1017.35 411.256 Q1015.43 413.918 1015.43 418.617 Z" fill="#000000" fill-rule="nonzero" fill-opacity="1" /><path clip-path="url(#clip680)" d="M1064.53 415.908 L1064.53 431.556 L1060.27 431.556 L1060.27 416.047 Q1060.27 412.367 1058.84 410.538 Q1057.4 408.709 1054.53 408.709 Q1051.08 408.709 1049.09 410.908 Q1047.1 413.107 1047.1 416.904 L1047.1 431.556 L1042.82 431.556 L1042.82 405.631 L1047.1 405.631 L1047.1 409.658 Q1048.63 407.32 1050.69 406.163 Q1052.77 405.006 1055.48 405.006 Q1059.95 405.006 1062.24 407.783 Q1064.53 410.538 1064.53 415.908 Z" fill="#000000" fill-rule="nonzero" fill-opacity="1" /><path clip-path="url(#clip680)" d="M1073.02 395.538 L1077.28 395.538 L1077.28 431.556 L1073.02 431.556 L1073.02 395.538 Z" fill="#000000" fill-rule="nonzero" fill-opacity="1" /><path clip-path="url(#clip680)" d="M1090.32 427.667 L1090.32 441.417 L1086.03 441.417 L1086.03 405.631 L1090.32 405.631 L1090.32 409.566 Q1091.66 407.251 1093.7 406.14 Q1095.76 405.006 1098.6 405.006 Q1103.33 405.006 1106.27 408.756 Q1109.23 412.506 1109.23 418.617 Q1109.23 424.728 1106.27 428.478 Q1103.33 432.228 1098.6 432.228 Q1095.76 432.228 1093.7 431.117 Q1091.66 429.982 1090.32 427.667 M1104.81 418.617 Q1104.81 413.918 1102.86 411.256 Q1100.94 408.57 1097.56 408.57 Q1094.18 408.57 1092.24 411.256 Q1090.32 413.918 1090.32 418.617 Q1090.32 423.316 1092.24 426.001 Q1094.18 428.663 1097.56 428.663 Q1100.94 428.663 1102.86 426.001 Q1104.81 423.316 1104.81 418.617 Z" fill="#000000" fill-rule="nonzero" fill-opacity="1" /><path clip-path="url(#clip680)" d="M1115.62 395.584 L1119.32 395.584 Q1122.79 401.047 1124.51 406.279 Q1126.24 411.51 1126.24 416.672 Q1126.24 421.857 1124.51 427.112 Q1122.79 432.367 1119.32 437.806 L1115.62 437.806 Q1118.7 432.505 1120.2 427.274 Q1121.73 422.019 1121.73 416.672 Q1121.73 411.325 1120.2 406.117 Q1118.7 400.908 1115.62 395.584 Z" fill="#000000" fill-rule="nonzero" fill-opacity="1" /></svg>
