<?xml version="1.0" encoding="utf-8"?>
<svg xmlns="http://www.w3.org/2000/svg" xmlns:xlink="http://www.w3.org/1999/xlink" width="900" height="600" viewBox="0 0 3600 2400">
<defs>
  <clipPath id="clip920">
    <rect x="0" y="0" width="3600" height="2400"/>
  </clipPath>
</defs>
<path clip-path="url(#clip920)" d="M0 2400 L3600 2400 L3600 0 L0 0  Z" fill="#ffffff" fill-rule="evenodd" fill-opacity="1"/>
<defs>
  <clipPath id="clip921">
    <rect x="322" y="246" width="3232" height="1911"/>
  </clipPath>
</defs>
<path clip-path="url(#clip920)" d="M359.791 2156.51 L3552.76 2156.51 L3552.76 246.944 L359.791 246.944  Z" fill="#ffffff" fill-rule="evenodd" fill-opacity="1"/>
<defs>
  <clipPath id="clip922">
    <rect x="359" y="246" width="3194" height="1911"/>
  </clipPath>
</defs>
<polyline clip-path="url(#clip922)" style="stroke:#000000; stroke-linecap:round; stroke-linejoin:round; stroke-width:2; stroke-opacity:0.1; fill:none" points="504.926,2156.51 504.926,246.944 "/>
<polyline clip-path="url(#clip922)" style="stroke:#000000; stroke-linecap:round; stroke-linejoin:round; stroke-width:2; stroke-opacity:0.1; fill:none" points="2533.82,2156.51 2533.82,246.944 "/>
<polyline clip-path="url(#clip922)" style="stroke:#000000; stroke-linecap:round; stroke-linejoin:round; stroke-width:2; stroke-opacity:0.1; fill:none" points="3407.62,2156.51 3407.62,246.944 "/>
<polyline clip-path="url(#clip922)" style="stroke:#000000; stroke-linecap:round; stroke-linejoin:round; stroke-width:2; stroke-opacity:0.1; fill:none" points="359.791,1738.2 3552.76,1738.2 "/>
<polyline clip-path="url(#clip922)" style="stroke:#000000; stroke-linecap:round; stroke-linejoin:round; stroke-width:2; stroke-opacity:0.1; fill:none" points="359.791,1065.33 3552.76,1065.33 "/>
<polyline clip-path="url(#clip922)" style="stroke:#000000; stroke-linecap:round; stroke-linejoin:round; stroke-width:2; stroke-opacity:0.1; fill:none" points="359.791,392.465 3552.76,392.465 "/>
<polyline clip-path="url(#clip920)" style="stroke:#000000; stroke-linecap:round; stroke-linejoin:round; stroke-width:4; stroke-opacity:1; fill:none" points="359.791,2156.51 3552.76,2156.51 "/>
<polyline clip-path="url(#clip920)" style="stroke:#000000; stroke-linecap:round; stroke-linejoin:round; stroke-width:4; stroke-opacity:1; fill:none" points="504.926,2156.51 504.926,2137.61 "/>
<polyline clip-path="url(#clip920)" style="stroke:#000000; stroke-linecap:round; stroke-linejoin:round; stroke-width:4; stroke-opacity:1; fill:none" points="2533.82,2156.51 2533.82,2137.61 "/>
<polyline clip-path="url(#clip920)" style="stroke:#000000; stroke-linecap:round; stroke-linejoin:round; stroke-width:4; stroke-opacity:1; fill:none" points="3407.62,2156.51 3407.62,2137.61 "/>
<path clip-path="url(#clip920)" d="M449.452 2224.57 L457.091 2224.57 L457.091 2198.21 L448.781 2199.87 L448.781 2195.61 L457.045 2193.95 L461.72 2193.95 L461.72 2224.57 L469.359 2224.57 L469.359 2228.51 L449.452 2228.51 L449.452 2224.57 Z" fill="#000000" fill-rule="nonzero" fill-opacity="1" /><path clip-path="url(#clip920)" d="M488.804 2197.03 Q485.193 2197.03 483.364 2200.59 Q481.558 2204.13 481.558 2211.26 Q481.558 2218.37 483.364 2221.93 Q485.193 2225.48 488.804 2225.48 Q492.438 2225.48 494.243 2221.93 Q496.072 2218.37 496.072 2211.26 Q496.072 2204.13 494.243 2200.59 Q492.438 2197.03 488.804 2197.03 M488.804 2193.32 Q494.614 2193.32 497.669 2197.93 Q500.748 2202.51 500.748 2211.26 Q500.748 2219.99 497.669 2224.6 Q494.614 2229.18 488.804 2229.18 Q482.993 2229.18 479.915 2224.6 Q476.859 2219.99 476.859 2211.26 Q476.859 2202.51 479.915 2197.93 Q482.993 2193.32 488.804 2193.32 Z" fill="#000000" fill-rule="nonzero" fill-opacity="1" /><path clip-path="url(#clip920)" d="M518.966 2197.03 Q515.354 2197.03 513.526 2200.59 Q511.72 2204.13 511.72 2211.26 Q511.72 2218.37 513.526 2221.93 Q515.354 2225.48 518.966 2225.48 Q522.6 2225.48 524.405 2221.93 Q526.234 2218.37 526.234 2211.26 Q526.234 2204.13 524.405 2200.59 Q522.6 2197.03 518.966 2197.03 M518.966 2193.32 Q524.776 2193.32 527.831 2197.93 Q530.91 2202.51 530.91 2211.26 Q530.91 2219.99 527.831 2224.6 Q524.776 2229.18 518.966 2229.18 Q513.155 2229.18 510.077 2224.6 Q507.021 2219.99 507.021 2211.26 Q507.021 2202.51 510.077 2197.93 Q513.155 2193.32 518.966 2193.32 Z" fill="#000000" fill-rule="nonzero" fill-opacity="1" /><path clip-path="url(#clip920)" d="M549.127 2197.03 Q545.516 2197.03 543.688 2200.59 Q541.882 2204.13 541.882 2211.26 Q541.882 2218.37 543.688 2221.93 Q545.516 2225.48 549.127 2225.48 Q552.762 2225.48 554.567 2221.93 Q556.396 2218.37 556.396 2211.26 Q556.396 2204.13 554.567 2200.59 Q552.762 2197.03 549.127 2197.03 M549.127 2193.32 Q554.938 2193.32 557.993 2197.93 Q561.072 2202.51 561.072 2211.26 Q561.072 2219.99 557.993 2224.6 Q554.938 2229.18 549.127 2229.18 Q543.317 2229.18 540.239 2224.6 Q537.183 2219.99 537.183 2211.26 Q537.183 2202.51 540.239 2197.93 Q543.317 2193.32 549.127 2193.32 Z" fill="#000000" fill-rule="nonzero" fill-opacity="1" /><path clip-path="url(#clip920)" d="M2478.36 2193.95 L2496.72 2193.95 L2496.72 2197.88 L2482.64 2197.88 L2482.64 2206.36 Q2483.66 2206.01 2484.68 2205.85 Q2485.7 2205.66 2486.72 2205.66 Q2492.5 2205.66 2495.88 2208.83 Q2499.26 2212 2499.26 2217.42 Q2499.26 2223 2495.79 2226.1 Q2492.32 2229.18 2486 2229.18 Q2483.82 2229.18 2481.55 2228.81 Q2479.31 2228.44 2476.9 2227.7 L2476.9 2223 Q2478.99 2224.13 2481.21 2224.69 Q2483.43 2225.24 2485.91 2225.24 Q2489.91 2225.24 2492.25 2223.14 Q2494.59 2221.03 2494.59 2217.42 Q2494.59 2213.81 2492.25 2211.7 Q2489.91 2209.6 2485.91 2209.6 Q2484.03 2209.6 2482.16 2210.01 Q2480.3 2210.43 2478.36 2211.31 L2478.36 2193.95 Z" fill="#000000" fill-rule="nonzero" fill-opacity="1" /><path clip-path="url(#clip920)" d="M2518.48 2197.03 Q2514.86 2197.03 2513.04 2200.59 Q2511.23 2204.13 2511.23 2211.26 Q2511.23 2218.37 2513.04 2221.93 Q2514.86 2225.48 2518.48 2225.48 Q2522.11 2225.48 2523.92 2221.93 Q2525.74 2218.37 2525.74 2211.26 Q2525.74 2204.13 2523.92 2200.59 Q2522.11 2197.03 2518.48 2197.03 M2518.48 2193.32 Q2524.29 2193.32 2527.34 2197.93 Q2530.42 2202.51 2530.42 2211.26 Q2530.42 2219.99 2527.34 2224.6 Q2524.29 2229.18 2518.48 2229.18 Q2512.67 2229.18 2509.59 2224.6 Q2506.53 2219.99 2506.53 2211.26 Q2506.53 2202.51 2509.59 2197.93 Q2512.67 2193.32 2518.48 2193.32 Z" fill="#000000" fill-rule="nonzero" fill-opacity="1" /><path clip-path="url(#clip920)" d="M2548.64 2197.03 Q2545.03 2197.03 2543.2 2200.59 Q2541.39 2204.13 2541.39 2211.26 Q2541.39 2218.37 2543.2 2221.93 Q2545.03 2225.48 2548.64 2225.48 Q2552.27 2225.48 2554.08 2221.93 Q2555.91 2218.37 2555.91 2211.26 Q2555.91 2204.13 2554.08 2200.59 Q2552.27 2197.03 2548.64 2197.03 M2548.64 2193.32 Q2554.45 2193.32 2557.5 2197.93 Q2560.58 2202.51 2560.58 2211.26 Q2560.58 2219.99 2557.5 2224.6 Q2554.45 2229.18 2548.64 2229.18 Q2542.83 2229.18 2539.75 2224.6 Q2536.69 2219.99 2536.69 2211.26 Q2536.69 2202.51 2539.75 2197.93 Q2542.83 2193.32 2548.64 2193.32 Z" fill="#000000" fill-rule="nonzero" fill-opacity="1" /><path clip-path="url(#clip920)" d="M2578.8 2197.03 Q2575.19 2197.03 2573.36 2200.59 Q2571.55 2204.13 2571.55 2211.26 Q2571.55 2218.37 2573.36 2221.93 Q2575.19 2225.48 2578.8 2225.48 Q2582.43 2225.48 2584.24 2221.93 Q2586.07 2218.37 2586.07 2211.26 Q2586.07 2204.13 2584.24 2200.59 Q2582.43 2197.03 2578.8 2197.03 M2578.8 2193.32 Q2584.61 2193.32 2587.67 2197.93 Q2590.74 2202.51 2590.74 2211.26 Q2590.74 2219.99 2587.67 2224.6 Q2584.61 2229.18 2578.8 2229.18 Q2572.99 2229.18 2569.91 2224.6 Q2566.86 2219.99 2566.86 2211.26 Q2566.86 2202.51 2569.91 2197.93 Q2572.99 2193.32 2578.8 2193.32 Z" fill="#000000" fill-rule="nonzero" fill-opacity="1" /><path clip-path="url(#clip920)" d="M3337.07 2224.57 L3344.7 2224.57 L3344.7 2198.21 L3336.39 2199.87 L3336.39 2195.61 L3344.66 2193.95 L3349.33 2193.95 L3349.33 2224.57 L3356.97 2224.57 L3356.97 2228.51 L3337.07 2228.51 L3337.07 2224.57 Z" fill="#000000" fill-rule="nonzero" fill-opacity="1" /><path clip-path="url(#clip920)" d="M3376.42 2197.03 Q3372.81 2197.03 3370.98 2200.59 Q3369.17 2204.13 3369.17 2211.26 Q3369.17 2218.37 3370.98 2221.93 Q3372.81 2225.48 3376.42 2225.48 Q3380.05 2225.48 3381.86 2221.93 Q3383.69 2218.37 3383.69 2211.26 Q3383.69 2204.13 3381.86 2200.59 Q3380.05 2197.03 3376.42 2197.03 M3376.42 2193.32 Q3382.23 2193.32 3385.28 2197.93 Q3388.36 2202.51 3388.36 2211.26 Q3388.36 2219.99 3385.28 2224.6 Q3382.23 2229.18 3376.42 2229.18 Q3370.61 2229.18 3367.53 2224.6 Q3364.47 2219.99 3364.47 2211.26 Q3364.47 2202.51 3367.53 2197.93 Q3370.61 2193.32 3376.42 2193.32 Z" fill="#000000" fill-rule="nonzero" fill-opacity="1" /><path clip-path="url(#clip920)" d="M3406.58 2197.03 Q3402.97 2197.03 3401.14 2200.59 Q3399.33 2204.13 3399.33 2211.26 Q3399.33 2218.37 3401.14 2221.93 Q3402.97 2225.48 3406.58 2225.48 Q3410.21 2225.48 3412.02 2221.93 Q3413.85 2218.37 3413.85 2211.26 Q3413.85 2204.13 3412.02 2200.59 Q3410.21 2197.03 3406.58 2197.03 M3406.58 2193.32 Q3412.39 2193.32 3415.45 2197.93 Q3418.52 2202.51 3418.52 2211.26 Q3418.52 2219.99 3415.45 2224.6 Q3412.39 2229.18 3406.58 2229.18 Q3400.77 2229.18 3397.69 2224.6 Q3394.64 2219.99 3394.64 2211.26 Q3394.64 2202.51 3397.69 2197.93 Q3400.77 2193.32 3406.58 2193.32 Z" fill="#000000" fill-rule="nonzero" fill-opacity="1" /><path clip-path="url(#clip920)" d="M3436.74 2197.03 Q3433.13 2197.03 3431.3 2200.59 Q3429.5 2204.13 3429.5 2211.26 Q3429.5 2218.37 3431.3 2221.93 Q3433.13 2225.48 3436.74 2225.48 Q3440.38 2225.48 3442.18 2221.93 Q3444.01 2218.37 3444.01 2211.26 Q3444.01 2204.13 3442.18 2200.59 Q3440.38 2197.03 3436.74 2197.03 M3436.74 2193.32 Q3442.55 2193.32 3445.61 2197.93 Q3448.69 2202.51 3448.69 2211.26 Q3448.69 2219.99 3445.61 2224.6 Q3442.55 2229.18 3436.74 2229.18 Q3430.93 2229.18 3427.85 2224.6 Q3424.8 2219.99 3424.8 2211.26 Q3424.8 2202.51 3427.85 2197.93 Q3430.93 2193.32 3436.74 2193.32 Z" fill="#000000" fill-rule="nonzero" fill-opacity="1" /><path clip-path="url(#clip920)" d="M3466.9 2197.03 Q3463.29 2197.03 3461.46 2200.59 Q3459.66 2204.13 3459.66 2211.26 Q3459.66 2218.37 3461.46 2221.93 Q3463.29 2225.48 3466.9 2225.48 Q3470.54 2225.48 3472.34 2221.93 Q3474.17 2218.37 3474.17 2211.26 Q3474.17 2204.13 3472.34 2200.59 Q3470.54 2197.03 3466.9 2197.03 M3466.9 2193.32 Q3472.71 2193.32 3475.77 2197.93 Q3478.85 2202.51 3478.85 2211.26 Q3478.85 2219.99 3475.77 2224.6 Q3472.71 2229.18 3466.9 2229.18 Q3461.09 2229.18 3458.01 2224.6 Q3454.96 2219.99 3454.96 2211.26 Q3454.96 2202.51 3458.01 2197.93 Q3461.09 2193.32 3466.9 2193.32 Z" fill="#000000" fill-rule="nonzero" fill-opacity="1" /><path clip-path="url(#clip920)" d="M1832.16 2308.02 L1832.16 2296.42 L1822.61 2296.42 L1822.61 2291.62 L1837.94 2291.62 L1837.94 2310.17 Q1834.56 2312.57 1830.48 2313.81 Q1826.4 2315.03 1821.77 2315.03 Q1811.64 2315.03 1805.91 2309.12 Q1800.21 2303.19 1800.21 2292.63 Q1800.21 2282.04 1805.91 2276.14 Q1811.64 2270.21 1821.77 2270.21 Q1825.99 2270.21 1829.78 2271.25 Q1833.6 2272.29 1836.82 2274.32 L1836.82 2280.54 Q1833.57 2277.79 1829.93 2276.4 Q1826.28 2275.01 1822.26 2275.01 Q1814.33 2275.01 1810.34 2279.44 Q1806.38 2283.86 1806.38 2292.63 Q1806.38 2301.37 1810.34 2305.8 Q1814.33 2310.22 1822.26 2310.22 Q1825.36 2310.22 1827.79 2309.7 Q1830.22 2309.15 1832.16 2308.02 Z" fill="#000000" fill-rule="nonzero" fill-opacity="1" /><path clip-path="url(#clip920)" d="M1867.17 2286.76 Q1866.27 2286.24 1865.2 2286 Q1864.16 2285.74 1862.89 2285.74 Q1858.37 2285.74 1855.94 2288.7 Q1853.54 2291.62 1853.54 2297.12 L1853.54 2314.19 L1848.19 2314.19 L1848.19 2281.78 L1853.54 2281.78 L1853.54 2286.82 Q1855.22 2283.86 1857.91 2282.45 Q1860.6 2281 1864.45 2281 Q1865 2281 1865.66 2281.09 Q1866.33 2281.14 1867.14 2281.29 L1867.17 2286.76 Z" fill="#000000" fill-rule="nonzero" fill-opacity="1" /><path clip-path="url(#clip920)" d="M1872.75 2281.78 L1878.08 2281.78 L1878.08 2314.19 L1872.75 2314.19 L1872.75 2281.78 M1872.75 2269.16 L1878.08 2269.16 L1878.08 2275.91 L1872.75 2275.91 L1872.75 2269.16 Z" fill="#000000" fill-rule="nonzero" fill-opacity="1" /><path clip-path="url(#clip920)" d="M1910.54 2286.7 L1910.54 2269.16 L1915.87 2269.16 L1915.87 2314.19 L1910.54 2314.19 L1910.54 2309.33 Q1908.86 2312.22 1906.29 2313.64 Q1903.74 2315.03 1900.15 2315.03 Q1894.28 2315.03 1890.58 2310.34 Q1886.9 2305.65 1886.9 2298.01 Q1886.9 2290.37 1890.58 2285.69 Q1894.28 2281 1900.15 2281 Q1903.74 2281 1906.29 2282.42 Q1908.86 2283.81 1910.54 2286.7 M1892.4 2298.01 Q1892.4 2303.89 1894.8 2307.24 Q1897.23 2310.57 1901.46 2310.57 Q1905.68 2310.57 1908.11 2307.24 Q1910.54 2303.89 1910.54 2298.01 Q1910.54 2292.14 1908.11 2288.81 Q1905.68 2285.46 1901.46 2285.46 Q1897.23 2285.46 1894.8 2288.81 Q1892.4 2292.14 1892.4 2298.01 Z" fill="#000000" fill-rule="nonzero" fill-opacity="1" /><path clip-path="url(#clip920)" d="M1966.33 2282.74 L1966.33 2287.77 Q1964.07 2286.61 1961.64 2286.03 Q1959.21 2285.46 1956.61 2285.46 Q1952.64 2285.46 1950.65 2286.67 Q1948.68 2287.89 1948.68 2290.32 Q1948.68 2292.17 1950.1 2293.24 Q1951.51 2294.28 1955.8 2295.24 L1957.62 2295.64 Q1963.29 2296.86 1965.66 2299.08 Q1968.06 2301.28 1968.06 2305.25 Q1968.06 2309.76 1964.48 2312.39 Q1960.92 2315.03 1954.67 2315.03 Q1952.06 2315.03 1949.23 2314.51 Q1946.42 2314.01 1943.3 2313 L1943.3 2307.5 Q1946.25 2309.04 1949.11 2309.82 Q1951.98 2310.57 1954.78 2310.57 Q1958.55 2310.57 1960.57 2309.3 Q1962.6 2308 1962.6 2305.65 Q1962.6 2303.48 1961.12 2302.32 Q1959.67 2301.17 1954.73 2300.1 L1952.87 2299.66 Q1947.93 2298.62 1945.73 2296.48 Q1943.53 2294.31 1943.53 2290.55 Q1943.53 2285.98 1946.77 2283.49 Q1950.01 2281 1955.97 2281 Q1958.92 2281 1961.53 2281.43 Q1964.13 2281.87 1966.33 2282.74 Z" fill="#000000" fill-rule="nonzero" fill-opacity="1" /><path clip-path="url(#clip920)" d="M1976.54 2281.78 L1981.87 2281.78 L1981.87 2314.19 L1976.54 2314.19 L1976.54 2281.78 M1976.54 2269.16 L1981.87 2269.16 L1981.87 2275.91 L1976.54 2275.91 L1976.54 2269.16 Z" fill="#000000" fill-rule="nonzero" fill-opacity="1" /><path clip-path="url(#clip920)" d="M1990.69 2281.78 L2015.98 2281.78 L2015.98 2286.64 L1995.96 2309.93 L2015.98 2309.93 L2015.98 2314.19 L1989.97 2314.19 L1989.97 2309.33 L2009.99 2286.03 L1990.69 2286.03 L1990.69 2281.78 Z" fill="#000000" fill-rule="nonzero" fill-opacity="1" /><path clip-path="url(#clip920)" d="M2051.83 2296.65 L2051.83 2299.26 L2027.35 2299.26 Q2027.7 2304.75 2030.65 2307.65 Q2033.63 2310.51 2038.93 2310.51 Q2041.99 2310.51 2044.86 2309.76 Q2047.75 2309.01 2050.59 2307.5 L2050.59 2312.54 Q2047.72 2313.75 2044.71 2314.39 Q2041.7 2315.03 2038.61 2315.03 Q2030.85 2315.03 2026.31 2310.51 Q2021.8 2306 2021.8 2298.3 Q2021.8 2290.35 2026.08 2285.69 Q2030.39 2281 2037.68 2281 Q2044.22 2281 2048.01 2285.22 Q2051.83 2289.42 2051.83 2296.65 M2046.51 2295.09 Q2046.45 2290.72 2044.05 2288.12 Q2041.68 2285.51 2037.74 2285.51 Q2033.28 2285.51 2030.59 2288.03 Q2027.93 2290.55 2027.53 2295.12 L2046.51 2295.09 Z" fill="#000000" fill-rule="nonzero" fill-opacity="1" /><path clip-path="url(#clip920)" d="M2079.64 2270.99 L2087.51 2270.99 L2106.66 2307.13 L2106.66 2270.99 L2112.33 2270.99 L2112.33 2314.19 L2104.46 2314.19 L2085.31 2278.05 L2085.31 2314.19 L2079.64 2314.19 L2079.64 2270.99 Z" fill="#000000" fill-rule="nonzero" fill-opacity="1" /><polyline clip-path="url(#clip920)" style="stroke:#000000; stroke-linecap:round; stroke-linejoin:round; stroke-width:4; stroke-opacity:1; fill:none" points="359.791,2156.51 359.791,246.944 "/>
<polyline clip-path="url(#clip920)" style="stroke:#000000; stroke-linecap:round; stroke-linejoin:round; stroke-width:4; stroke-opacity:1; fill:none" points="359.791,1738.2 378.689,1738.2 "/>
<polyline clip-path="url(#clip920)" style="stroke:#000000; stroke-linecap:round; stroke-linejoin:round; stroke-width:4; stroke-opacity:1; fill:none" points="359.791,1065.33 378.689,1065.33 "/>
<polyline clip-path="url(#clip920)" style="stroke:#000000; stroke-linecap:round; stroke-linejoin:round; stroke-width:4; stroke-opacity:1; fill:none" points="359.791,392.465 378.689,392.465 "/>
<path clip-path="url(#clip920)" d="M168.412 1757.99 L176.051 1757.99 L176.051 1731.63 L167.741 1733.29 L167.741 1729.03 L176.005 1727.37 L180.681 1727.37 L180.681 1757.99 L188.32 1757.99 L188.32 1761.93 L168.412 1761.93 L168.412 1757.99 Z" fill="#000000" fill-rule="nonzero" fill-opacity="1" /><path clip-path="url(#clip920)" d="M207.764 1730.44 Q204.153 1730.44 202.324 1734.01 Q200.519 1737.55 200.519 1744.68 Q200.519 1751.79 202.324 1755.35 Q204.153 1758.89 207.764 1758.89 Q211.398 1758.89 213.204 1755.35 Q215.032 1751.79 215.032 1744.68 Q215.032 1737.55 213.204 1734.01 Q211.398 1730.44 207.764 1730.44 M207.764 1726.74 Q213.574 1726.74 216.63 1731.35 Q219.708 1735.93 219.708 1744.68 Q219.708 1753.41 216.63 1758.01 Q213.574 1762.6 207.764 1762.6 Q201.954 1762.6 198.875 1758.01 Q195.82 1753.41 195.82 1744.68 Q195.82 1735.93 198.875 1731.35 Q201.954 1726.74 207.764 1726.74 Z" fill="#000000" fill-rule="nonzero" fill-opacity="1" /><path clip-path="url(#clip920)" d="M219.708 1720.84 L243.82 1720.84 L243.82 1724.04 L219.708 1724.04 L219.708 1720.84 Z" fill="#000000" fill-rule="nonzero" fill-opacity="1" /><path clip-path="url(#clip920)" d="M252.678 1731.32 L258.885 1731.32 L258.885 1709.9 L252.133 1711.25 L252.133 1707.79 L258.847 1706.44 L262.646 1706.44 L262.646 1731.32 L268.853 1731.32 L268.853 1734.52 L252.678 1734.52 L252.678 1731.32 Z" fill="#000000" fill-rule="nonzero" fill-opacity="1" /><path clip-path="url(#clip920)" d="M276.527 1729.74 L280.495 1729.74 L280.495 1734.52 L276.527 1734.52 L276.527 1729.74 Z" fill="#000000" fill-rule="nonzero" fill-opacity="1" /><path clip-path="url(#clip920)" d="M288.808 1706.44 L303.723 1706.44 L303.723 1709.63 L292.288 1709.63 L292.288 1716.52 Q293.115 1716.23 293.943 1716.1 Q294.77 1715.95 295.598 1715.95 Q300.3 1715.95 303.046 1718.53 Q305.791 1721.11 305.791 1725.51 Q305.791 1730.04 302.97 1732.56 Q300.149 1735.06 295.015 1735.06 Q293.247 1735.06 291.404 1734.76 Q289.579 1734.46 287.623 1733.86 L287.623 1730.04 Q289.316 1730.96 291.121 1731.41 Q292.927 1731.86 294.939 1731.86 Q298.193 1731.86 300.093 1730.15 Q301.992 1728.44 301.992 1725.51 Q301.992 1722.57 300.093 1720.86 Q298.193 1719.15 294.939 1719.15 Q293.416 1719.15 291.893 1719.49 Q290.388 1719.83 288.808 1720.54 L288.808 1706.44 Z" fill="#000000" fill-rule="nonzero" fill-opacity="1" /><path clip-path="url(#clip920)" d="M167.604 1085.12 L175.242 1085.12 L175.242 1058.76 L166.932 1060.43 L166.932 1056.17 L175.196 1054.5 L179.872 1054.5 L179.872 1085.12 L187.511 1085.12 L187.511 1089.06 L167.604 1089.06 L167.604 1085.12 Z" fill="#000000" fill-rule="nonzero" fill-opacity="1" /><path clip-path="url(#clip920)" d="M206.955 1057.58 Q203.344 1057.58 201.515 1061.14 Q199.71 1064.68 199.71 1071.81 Q199.71 1078.92 201.515 1082.49 Q203.344 1086.03 206.955 1086.03 Q210.589 1086.03 212.395 1082.49 Q214.224 1078.92 214.224 1071.81 Q214.224 1064.68 212.395 1061.14 Q210.589 1057.58 206.955 1057.58 M206.955 1053.87 Q212.765 1053.87 215.821 1058.48 Q218.9 1063.06 218.9 1071.81 Q218.9 1080.54 215.821 1085.15 Q212.765 1089.73 206.955 1089.73 Q201.145 1089.73 198.066 1085.15 Q195.011 1080.54 195.011 1071.81 Q195.011 1063.06 198.066 1058.48 Q201.145 1053.87 206.955 1053.87 Z" fill="#000000" fill-rule="nonzero" fill-opacity="1" /><path clip-path="url(#clip920)" d="M218.9 1047.98 L243.011 1047.98 L243.011 1051.17 L218.9 1051.17 L218.9 1047.98 Z" fill="#000000" fill-rule="nonzero" fill-opacity="1" /><path clip-path="url(#clip920)" d="M251.87 1058.45 L258.076 1058.45 L258.076 1037.03 L251.324 1038.38 L251.324 1034.92 L258.039 1033.57 L261.838 1033.57 L261.838 1058.45 L268.044 1058.45 L268.044 1061.65 L251.87 1061.65 L251.87 1058.45 Z" fill="#000000" fill-rule="nonzero" fill-opacity="1" /><path clip-path="url(#clip920)" d="M275.718 1056.87 L279.686 1056.87 L279.686 1061.65 L275.718 1061.65 L275.718 1056.87 Z" fill="#000000" fill-rule="nonzero" fill-opacity="1" /><path clip-path="url(#clip920)" d="M296.087 1036.07 Q293.153 1036.07 291.667 1038.97 Q290.2 1041.84 290.2 1047.64 Q290.2 1053.41 291.667 1056.31 Q293.153 1059.19 296.087 1059.19 Q299.04 1059.19 300.507 1056.31 Q301.992 1053.41 301.992 1047.64 Q301.992 1041.84 300.507 1038.97 Q299.04 1036.07 296.087 1036.07 M296.087 1033.06 Q300.807 1033.06 303.29 1036.8 Q305.791 1040.53 305.791 1047.64 Q305.791 1054.73 303.29 1058.47 Q300.807 1062.19 296.087 1062.19 Q291.366 1062.19 288.865 1058.47 Q286.382 1054.73 286.382 1047.64 Q286.382 1040.53 288.865 1036.8 Q291.366 1033.06 296.087 1033.06 Z" fill="#000000" fill-rule="nonzero" fill-opacity="1" /><path clip-path="url(#clip920)" d="M168.412 412.258 L176.051 412.258 L176.051 385.892 L167.741 387.559 L167.741 383.3 L176.005 381.633 L180.681 381.633 L180.681 412.258 L188.32 412.258 L188.32 416.193 L168.412 416.193 L168.412 412.258 Z" fill="#000000" fill-rule="nonzero" fill-opacity="1" /><path clip-path="url(#clip920)" d="M207.764 384.712 Q204.153 384.712 202.324 388.276 Q200.519 391.818 200.519 398.948 Q200.519 406.054 202.324 409.619 Q204.153 413.161 207.764 413.161 Q211.398 413.161 213.204 409.619 Q215.032 406.054 215.032 398.948 Q215.032 391.818 213.204 388.276 Q211.398 384.712 207.764 384.712 M207.764 381.008 Q213.574 381.008 216.63 385.614 Q219.708 390.198 219.708 398.948 Q219.708 407.674 216.63 412.281 Q213.574 416.864 207.764 416.864 Q201.954 416.864 198.875 412.281 Q195.82 407.674 195.82 398.948 Q195.82 390.198 198.875 385.614 Q201.954 381.008 207.764 381.008 Z" fill="#000000" fill-rule="nonzero" fill-opacity="1" /><path clip-path="url(#clip920)" d="M219.708 375.109 L243.82 375.109 L243.82 378.307 L219.708 378.307 L219.708 375.109 Z" fill="#000000" fill-rule="nonzero" fill-opacity="1" /><path clip-path="url(#clip920)" d="M260.145 363.204 Q257.211 363.204 255.725 366.1 Q254.258 368.978 254.258 374.771 Q254.258 380.545 255.725 383.441 Q257.211 386.319 260.145 386.319 Q263.098 386.319 264.565 383.441 Q266.051 380.545 266.051 374.771 Q266.051 368.978 264.565 366.1 Q263.098 363.204 260.145 363.204 M260.145 360.195 Q264.866 360.195 267.348 363.937 Q269.85 367.661 269.85 374.771 Q269.85 381.861 267.348 385.604 Q264.866 389.328 260.145 389.328 Q255.424 389.328 252.923 385.604 Q250.44 381.861 250.44 374.771 Q250.44 367.661 252.923 363.937 Q255.424 360.195 260.145 360.195 Z" fill="#000000" fill-rule="nonzero" fill-opacity="1" /><path clip-path="url(#clip920)" d="M276.527 384.005 L280.495 384.005 L280.495 388.783 L276.527 388.783 L276.527 384.005 Z" fill="#000000" fill-rule="nonzero" fill-opacity="1" /><path clip-path="url(#clip920)" d="M288.808 360.703 L303.723 360.703 L303.723 363.9 L292.288 363.9 L292.288 370.783 Q293.115 370.501 293.943 370.37 Q294.77 370.219 295.598 370.219 Q300.3 370.219 303.046 372.796 Q305.791 375.373 305.791 379.774 Q305.791 384.306 302.97 386.827 Q300.149 389.328 295.015 389.328 Q293.247 389.328 291.404 389.027 Q289.579 388.726 287.623 388.124 L287.623 384.306 Q289.316 385.228 291.121 385.679 Q292.927 386.131 294.939 386.131 Q298.193 386.131 300.093 384.419 Q301.992 382.708 301.992 379.774 Q301.992 376.84 300.093 375.128 Q298.193 373.417 294.939 373.417 Q293.416 373.417 291.893 373.755 Q290.388 374.094 288.808 374.808 L288.808 360.703 Z" fill="#000000" fill-rule="nonzero" fill-opacity="1" /><path clip-path="url(#clip920)" d="M58.1901 1374.69 L63.8903 1374.69 Q62.2989 1378.01 61.5176 1380.96 Q60.7364 1383.92 60.7364 1386.66 Q60.7364 1391.44 62.5882 1394.04 Q64.4401 1396.62 67.8544 1396.62 Q70.719 1396.62 72.1947 1394.91 Q73.6414 1393.17 74.5384 1388.37 L75.2618 1384.84 Q76.506 1378.3 79.6599 1375.21 Q82.7849 1372.08 88.0511 1372.08 Q94.33 1372.08 97.5707 1376.31 Q100.811 1380.5 100.811 1388.63 Q100.811 1391.7 100.117 1395.17 Q99.4225 1398.61 98.0626 1402.32 L92.0441 1402.32 Q94.0406 1398.76 95.0533 1395.34 Q96.0661 1391.93 96.0661 1388.63 Q96.0661 1383.63 94.0985 1380.91 Q92.1309 1378.19 88.4851 1378.19 Q85.3022 1378.19 83.5083 1380.15 Q81.7143 1382.09 80.8173 1386.55 L80.1229 1390.11 Q78.8208 1396.65 76.043 1399.57 Q73.2653 1402.49 68.3174 1402.49 Q62.5882 1402.49 59.2896 1398.47 Q55.991 1394.42 55.991 1387.33 Q55.991 1384.29 56.5408 1381.14 Q57.0906 1377.98 58.1901 1374.69 Z" fill="#000000" fill-rule="nonzero" fill-opacity="1" /><path clip-path="url(#clip920)" d="M71.2977 1350.64 Q71.2977 1354.92 74.6541 1357.41 Q77.9817 1359.9 83.7976 1359.9 Q89.6135 1359.9 92.97 1357.44 Q96.2975 1354.95 96.2975 1350.64 Q96.2975 1346.39 92.9411 1343.9 Q89.5846 1341.41 83.7976 1341.41 Q78.0395 1341.41 74.6831 1343.9 Q71.2977 1346.39 71.2977 1350.64 M66.7838 1350.64 Q66.7838 1343.7 71.2977 1339.73 Q75.8115 1335.77 83.7976 1335.77 Q91.7547 1335.77 96.2975 1339.73 Q100.811 1343.7 100.811 1350.64 Q100.811 1357.61 96.2975 1361.58 Q91.7547 1365.51 83.7976 1365.51 Q75.8115 1365.51 71.2977 1361.58 Q66.7838 1357.61 66.7838 1350.64 Z" fill="#000000" fill-rule="nonzero" fill-opacity="1" /><path clip-path="url(#clip920)" d="M54.9494 1326.94 L54.9494 1321.62 L99.9723 1321.62 L99.9723 1326.94 L54.9494 1326.94 Z" fill="#000000" fill-rule="nonzero" fill-opacity="1" /><path clip-path="url(#clip920)" d="M67.565 1314.3 L67.565 1308.66 L94.764 1298.53 L67.565 1288.4 L67.565 1282.76 L99.9723 1294.91 L99.9723 1302.15 L67.565 1314.3 Z" fill="#000000" fill-rule="nonzero" fill-opacity="1" /><path clip-path="url(#clip920)" d="M82.4377 1247.69 L85.0418 1247.69 L85.0418 1272.17 Q90.5395 1271.82 93.433 1268.87 Q96.2975 1265.89 96.2975 1260.59 Q96.2975 1257.53 95.5452 1254.66 Q94.7929 1251.77 93.2883 1248.93 L98.323 1248.93 Q99.5383 1251.8 100.175 1254.81 Q100.811 1257.82 100.811 1260.91 Q100.811 1268.67 96.2975 1273.21 Q91.7837 1277.72 84.087 1277.72 Q76.1298 1277.72 71.4713 1273.44 Q66.7838 1269.13 66.7838 1261.84 Q66.7838 1255.3 71.0083 1251.51 Q75.2039 1247.69 82.4377 1247.69 M80.8752 1253.01 Q76.506 1253.07 73.9018 1255.47 Q71.2977 1257.85 71.2977 1261.78 Q71.2977 1266.24 73.815 1268.93 Q76.3324 1271.59 80.9041 1271.99 L80.8752 1253.01 Z" fill="#000000" fill-rule="nonzero" fill-opacity="1" /><path clip-path="url(#clip920)" d="M58.3637 1214.85 L67.565 1214.85 L67.565 1203.88 L71.7028 1203.88 L71.7028 1214.85 L89.2953 1214.85 Q93.2594 1214.85 94.3878 1213.78 Q95.5163 1212.68 95.5163 1209.35 L95.5163 1203.88 L99.9723 1203.88 L99.9723 1209.35 Q99.9723 1215.51 97.6864 1217.86 Q95.3716 1220.2 89.2953 1220.2 L71.7028 1220.2 L71.7028 1224.11 L67.565 1224.11 L67.565 1220.2 L58.3637 1220.2 L58.3637 1214.85 Z" fill="#000000" fill-rule="nonzero" fill-opacity="1" /><path clip-path="url(#clip920)" d="M67.565 1196.88 L67.565 1191.56 L99.9723 1191.56 L99.9723 1196.88 L67.565 1196.88 M54.9494 1196.88 L54.9494 1191.56 L61.6912 1191.56 L61.6912 1196.88 L54.9494 1196.88 Z" fill="#000000" fill-rule="nonzero" fill-opacity="1" /><path clip-path="url(#clip920)" d="M73.7861 1155.18 Q70.1981 1153.19 68.491 1150.41 Q66.7838 1147.63 66.7838 1143.87 Q66.7838 1138.81 70.3428 1136.06 Q73.8729 1133.31 80.4122 1133.31 L99.9723 1133.31 L99.9723 1138.66 L80.5858 1138.66 Q75.9273 1138.66 73.6703 1140.31 Q71.4134 1141.96 71.4134 1145.35 Q71.4134 1149.48 74.1622 1151.89 Q76.9111 1154.29 81.6564 1154.29 L99.9723 1154.29 L99.9723 1159.64 L80.5858 1159.64 Q75.8983 1159.64 73.6703 1161.29 Q71.4134 1162.94 71.4134 1166.38 Q71.4134 1170.46 74.1912 1172.86 Q76.94 1175.26 81.6564 1175.26 L99.9723 1175.26 L99.9723 1180.62 L67.565 1180.62 L67.565 1175.26 L72.5997 1175.26 Q69.6194 1173.44 68.2016 1170.9 Q66.7838 1168.35 66.7838 1164.85 Q66.7838 1161.32 68.5778 1158.86 Q70.3717 1156.37 73.7861 1155.18 Z" fill="#000000" fill-rule="nonzero" fill-opacity="1" /><path clip-path="url(#clip920)" d="M82.4377 1094.97 L85.0418 1094.97 L85.0418 1119.45 Q90.5395 1119.1 93.433 1116.15 Q96.2975 1113.17 96.2975 1107.88 Q96.2975 1104.81 95.5452 1101.94 Q94.7929 1099.05 93.2883 1096.21 L98.323 1096.21 Q99.5383 1099.08 100.175 1102.09 Q100.811 1105.1 100.811 1108.19 Q100.811 1115.95 96.2975 1120.49 Q91.7837 1125 84.087 1125 Q76.1298 1125 71.4713 1120.72 Q66.7838 1116.41 66.7838 1109.12 Q66.7838 1102.58 71.0083 1098.79 Q75.2039 1094.97 82.4377 1094.97 M80.8752 1100.29 Q76.506 1100.35 73.9018 1102.75 Q71.2977 1105.13 71.2977 1109.06 Q71.2977 1113.52 73.815 1116.21 Q76.3324 1118.87 80.9041 1119.28 L80.8752 1100.29 Z" fill="#000000" fill-rule="nonzero" fill-opacity="1" /><path clip-path="url(#clip920)" d="M55.0072 1054.61 Q61.6623 1058.48 68.1727 1060.36 Q74.6831 1062.24 81.3671 1062.24 Q88.0511 1062.24 94.6193 1060.36 Q101.159 1058.45 107.785 1054.61 L107.785 1059.24 Q100.985 1063.58 94.4168 1065.75 Q87.8485 1067.89 81.3671 1067.89 Q74.9145 1067.89 68.3752 1065.75 Q61.8359 1063.6 55.0072 1059.24 L55.0072 1054.61 Z" fill="#000000" fill-rule="nonzero" fill-opacity="1" /><path clip-path="url(#clip920)" d="M68.5199 1023.62 L73.5546 1023.62 Q72.3972 1025.87 71.8185 1028.3 Q71.2398 1030.73 71.2398 1033.34 Q71.2398 1037.3 72.4551 1039.3 Q73.6703 1041.27 76.1009 1041.27 Q77.9527 1041.27 79.0233 1039.85 Q80.065 1038.43 81.0198 1034.15 L81.4249 1032.33 Q82.6402 1026.65 84.8682 1024.28 Q87.0673 1021.88 91.0314 1021.88 Q95.5452 1021.88 98.1783 1025.47 Q100.811 1029.03 100.811 1035.28 Q100.811 1037.88 100.291 1040.72 Q99.7987 1043.52 98.7859 1046.65 L93.2883 1046.65 Q94.8218 1043.7 95.6031 1040.83 Q96.3554 1037.97 96.3554 1035.16 Q96.3554 1031.4 95.0823 1029.37 Q93.7802 1027.35 91.4364 1027.35 Q89.2663 1027.35 88.1089 1028.82 Q86.9515 1030.27 85.8809 1035.22 L85.4469 1037.07 Q84.4052 1042.02 82.264 1044.22 Q80.0939 1046.42 76.3324 1046.42 Q71.7606 1046.42 69.2722 1043.18 Q66.7838 1039.94 66.7838 1033.98 Q66.7838 1031.02 67.2178 1028.42 Q67.6519 1025.82 68.5199 1023.62 Z" fill="#000000" fill-rule="nonzero" fill-opacity="1" /><path clip-path="url(#clip920)" d="M55.0072 1014.24 L55.0072 1009.61 Q61.8359 1005.27 68.3752 1003.13 Q74.9145 1000.96 81.3671 1000.96 Q87.8485 1000.96 94.4168 1003.13 Q100.985 1005.27 107.785 1009.61 L107.785 1014.24 Q101.159 1010.39 94.6193 1008.51 Q88.0511 1006.6 81.3671 1006.6 Q74.6831 1006.6 68.1727 1008.51 Q61.6623 1010.39 55.0072 1014.24 Z" fill="#000000" fill-rule="nonzero" fill-opacity="1" /><path clip-path="url(#clip920)" d="M1143.2 125.969 L1143.2 133.949 Q1138.54 131.721 1134.41 130.627 Q1130.27 129.534 1126.43 129.534 Q1119.74 129.534 1116.1 132.126 Q1112.49 134.719 1112.49 139.499 Q1112.49 143.509 1114.88 145.575 Q1117.31 147.601 1124.04 148.857 L1128.98 149.869 Q1138.13 151.611 1142.47 156.027 Q1146.84 160.402 1146.84 167.774 Q1146.84 176.565 1140.93 181.102 Q1135.05 185.639 1123.67 185.639 Q1119.38 185.639 1114.52 184.667 Q1109.7 183.694 1104.51 181.79 L1104.51 173.365 Q1109.49 176.16 1114.27 177.577 Q1119.05 178.995 1123.67 178.995 Q1130.68 178.995 1134.49 176.241 Q1138.29 173.486 1138.29 168.382 Q1138.29 163.926 1135.54 161.414 Q1132.83 158.903 1126.59 157.647 L1121.61 156.675 Q1112.45 154.852 1108.36 150.963 Q1104.27 147.074 1104.27 140.147 Q1104.27 132.126 1109.9 127.508 Q1115.57 122.89 1125.49 122.89 Q1129.75 122.89 1134.16 123.66 Q1138.58 124.43 1143.2 125.969 Z" fill="#000000" fill-rule="nonzero" fill-opacity="1" /><path clip-path="url(#clip920)" d="M1176.86 144.32 Q1170.86 144.32 1167.38 149.019 Q1163.9 153.677 1163.9 161.819 Q1163.9 169.962 1167.34 174.661 Q1170.82 179.319 1176.86 179.319 Q1182.81 179.319 1186.3 174.62 Q1189.78 169.921 1189.78 161.819 Q1189.78 153.758 1186.3 149.059 Q1182.81 144.32 1176.86 144.32 M1176.86 138 Q1186.58 138 1192.13 144.32 Q1197.68 150.639 1197.68 161.819 Q1197.68 172.959 1192.13 179.319 Q1186.58 185.639 1176.86 185.639 Q1167.1 185.639 1161.55 179.319 Q1156.04 172.959 1156.04 161.819 Q1156.04 150.639 1161.55 144.32 Q1167.1 138 1176.86 138 Z" fill="#000000" fill-rule="nonzero" fill-opacity="1" /><path clip-path="url(#clip920)" d="M1210.04 121.432 L1217.49 121.432 L1217.49 184.464 L1210.04 184.464 L1210.04 121.432 Z" fill="#000000" fill-rule="nonzero" fill-opacity="1" /><path clip-path="url(#clip920)" d="M1227.74 139.094 L1235.64 139.094 L1249.82 177.172 L1263.99 139.094 L1271.89 139.094 L1254.88 184.464 L1244.75 184.464 L1227.74 139.094 Z" fill="#000000" fill-rule="nonzero" fill-opacity="1" /><path clip-path="url(#clip920)" d="M1320.99 159.916 L1320.99 163.561 L1286.72 163.561 Q1287.21 171.258 1291.34 175.309 Q1295.51 179.319 1302.92 179.319 Q1307.22 179.319 1311.23 178.266 Q1315.28 177.213 1319.25 175.106 L1319.25 182.155 Q1315.24 183.856 1311.03 184.748 Q1306.81 185.639 1302.48 185.639 Q1291.62 185.639 1285.26 179.319 Q1278.94 173 1278.94 162.225 Q1278.94 151.085 1284.94 144.563 Q1290.97 138 1301.18 138 Q1310.34 138 1315.64 143.914 Q1320.99 149.788 1320.99 159.916 M1313.54 157.728 Q1313.46 151.611 1310.09 147.965 Q1306.77 144.32 1301.26 144.32 Q1295.02 144.32 1291.26 147.844 Q1287.53 151.368 1286.96 157.769 L1313.54 157.728 Z" fill="#000000" fill-rule="nonzero" fill-opacity="1" /><path clip-path="url(#clip920)" d="M1366.97 126.212 L1366.97 139.094 L1382.32 139.094 L1382.32 144.887 L1366.97 144.887 L1366.97 169.516 Q1366.97 175.066 1368.47 176.646 Q1370.01 178.226 1374.67 178.226 L1382.32 178.226 L1382.32 184.464 L1374.67 184.464 Q1366.04 184.464 1362.76 181.264 Q1359.47 178.023 1359.47 169.516 L1359.47 144.887 L1354.01 144.887 L1354.01 139.094 L1359.47 139.094 L1359.47 126.212 L1366.97 126.212 Z" fill="#000000" fill-rule="nonzero" fill-opacity="1" /><path clip-path="url(#clip920)" d="M1392.12 139.094 L1399.58 139.094 L1399.58 184.464 L1392.12 184.464 L1392.12 139.094 M1392.12 121.432 L1399.58 121.432 L1399.58 130.871 L1392.12 130.871 L1392.12 121.432 Z" fill="#000000" fill-rule="nonzero" fill-opacity="1" /><path clip-path="url(#clip920)" d="M1450.5 147.803 Q1453.29 142.78 1457.18 140.39 Q1461.07 138 1466.34 138 Q1473.43 138 1477.27 142.983 Q1481.12 147.925 1481.12 157.08 L1481.12 184.464 L1473.63 184.464 L1473.63 157.323 Q1473.63 150.801 1471.32 147.641 Q1469.01 144.482 1464.27 144.482 Q1458.48 144.482 1455.12 148.33 Q1451.75 152.178 1451.75 158.822 L1451.75 184.464 L1444.26 184.464 L1444.26 157.323 Q1444.26 150.76 1441.95 147.641 Q1439.64 144.482 1434.82 144.482 Q1429.11 144.482 1425.75 148.37 Q1422.38 152.219 1422.38 158.822 L1422.38 184.464 L1414.89 184.464 L1414.89 139.094 L1422.38 139.094 L1422.38 146.142 Q1424.94 141.97 1428.5 139.985 Q1432.07 138 1436.97 138 Q1441.91 138 1445.35 140.512 Q1448.84 143.023 1450.5 147.803 Z" fill="#000000" fill-rule="nonzero" fill-opacity="1" /><path clip-path="url(#clip920)" d="M1534.8 159.916 L1534.8 163.561 L1500.53 163.561 Q1501.01 171.258 1505.14 175.309 Q1509.32 179.319 1516.73 179.319 Q1521.02 179.319 1525.03 178.266 Q1529.09 177.213 1533.06 175.106 L1533.06 182.155 Q1529.05 183.856 1524.83 184.748 Q1520.62 185.639 1516.28 185.639 Q1505.43 185.639 1499.07 179.319 Q1492.75 173 1492.75 162.225 Q1492.75 151.085 1498.74 144.563 Q1504.78 138 1514.99 138 Q1524.14 138 1529.45 143.914 Q1534.8 149.788 1534.8 159.916 M1527.34 157.728 Q1527.26 151.611 1523.9 147.965 Q1520.58 144.32 1515.07 144.32 Q1508.83 144.32 1505.06 147.844 Q1501.34 151.368 1500.77 157.769 L1527.34 157.728 Z" fill="#000000" fill-rule="nonzero" fill-opacity="1" /><path clip-path="url(#clip920)" d="M1568.06 139.094 L1575.95 139.094 L1590.13 177.172 L1604.31 139.094 L1612.21 139.094 L1595.2 184.464 L1585.07 184.464 L1568.06 139.094 Z" fill="#000000" fill-rule="nonzero" fill-opacity="1" /><path clip-path="url(#clip920)" d="M1651.42 140.431 L1651.42 147.479 Q1648.26 145.859 1644.86 145.049 Q1641.46 144.239 1637.81 144.239 Q1632.26 144.239 1629.47 145.94 Q1626.71 147.641 1626.71 151.044 Q1626.71 153.637 1628.7 155.135 Q1630.68 156.594 1636.68 157.931 L1639.23 158.498 Q1647.17 160.199 1650.49 163.318 Q1653.85 166.397 1653.85 171.947 Q1653.85 178.266 1648.83 181.952 Q1643.85 185.639 1635.1 185.639 Q1631.45 185.639 1627.48 184.91 Q1623.55 184.221 1619.18 182.803 L1619.18 175.106 Q1623.31 177.253 1627.32 178.347 Q1631.33 179.4 1635.26 179.4 Q1640.53 179.4 1643.36 177.618 Q1646.2 175.795 1646.2 172.514 Q1646.2 169.476 1644.13 167.855 Q1642.11 166.235 1635.18 164.736 L1632.59 164.128 Q1625.66 162.67 1622.58 159.672 Q1619.5 156.634 1619.5 151.368 Q1619.5 144.968 1624.04 141.484 Q1628.58 138 1636.92 138 Q1641.05 138 1644.7 138.608 Q1648.34 139.215 1651.42 140.431 Z" fill="#000000" fill-rule="nonzero" fill-opacity="1" /><path clip-path="url(#clip920)" d="M1721.95 161.252 Q1721.95 153.151 1718.59 148.695 Q1715.27 144.239 1709.23 144.239 Q1703.23 144.239 1699.87 148.695 Q1696.55 153.151 1696.55 161.252 Q1696.55 169.314 1699.87 173.77 Q1703.23 178.226 1709.23 178.226 Q1715.27 178.226 1718.59 173.77 Q1721.95 169.314 1721.95 161.252 M1729.4 178.833 Q1729.4 190.419 1724.26 196.05 Q1719.11 201.721 1708.5 201.721 Q1704.57 201.721 1701.09 201.113 Q1697.6 200.546 1694.32 199.331 L1694.32 192.08 Q1697.6 193.862 1700.8 194.713 Q1704 195.563 1707.33 195.563 Q1714.66 195.563 1718.3 191.715 Q1721.95 187.907 1721.95 180.17 L1721.95 176.484 Q1719.64 180.494 1716.03 182.479 Q1712.43 184.464 1707.41 184.464 Q1699.06 184.464 1693.96 178.104 Q1688.85 171.744 1688.85 161.252 Q1688.85 150.72 1693.96 144.36 Q1699.06 138 1707.41 138 Q1712.43 138 1716.03 139.985 Q1719.64 141.97 1721.95 145.98 L1721.95 139.094 L1729.4 139.094 L1729.4 178.833 Z" fill="#000000" fill-rule="nonzero" fill-opacity="1" /><path clip-path="url(#clip920)" d="M1771.05 146.061 Q1769.79 145.332 1768.29 145.008 Q1766.83 144.644 1765.05 144.644 Q1758.73 144.644 1755.33 148.776 Q1751.97 152.867 1751.97 160.564 L1751.97 184.464 L1744.47 184.464 L1744.47 139.094 L1751.97 139.094 L1751.97 146.142 Q1754.32 142.011 1758.08 140.026 Q1761.85 138 1767.24 138 Q1768.01 138 1768.94 138.122 Q1769.87 138.203 1771.01 138.405 L1771.05 146.061 Z" fill="#000000" fill-rule="nonzero" fill-opacity="1" /><path clip-path="url(#clip920)" d="M1778.86 139.094 L1786.32 139.094 L1786.32 184.464 L1778.86 184.464 L1778.86 139.094 M1778.86 121.432 L1786.32 121.432 L1786.32 130.871 L1778.86 130.871 L1778.86 121.432 Z" fill="#000000" fill-rule="nonzero" fill-opacity="1" /><path clip-path="url(#clip920)" d="M1831.77 145.98 L1831.77 121.432 L1839.22 121.432 L1839.22 184.464 L1831.77 184.464 L1831.77 177.658 Q1829.42 181.709 1825.81 183.694 Q1822.25 185.639 1817.23 185.639 Q1809 185.639 1803.82 179.076 Q1798.67 172.514 1798.67 161.819 Q1798.67 151.125 1803.82 144.563 Q1809 138 1817.23 138 Q1822.25 138 1825.81 139.985 Q1829.42 141.93 1831.77 145.98 M1806.37 161.819 Q1806.37 170.043 1809.73 174.742 Q1813.13 179.4 1819.05 179.4 Q1824.96 179.4 1828.37 174.742 Q1831.77 170.043 1831.77 161.819 Q1831.77 153.596 1828.37 148.938 Q1824.96 144.239 1819.05 144.239 Q1813.13 144.239 1809.73 148.938 Q1806.37 153.596 1806.37 161.819 Z" fill="#000000" fill-rule="nonzero" fill-opacity="1" /><path clip-path="url(#clip920)" d="M1909.87 140.431 L1909.87 147.479 Q1906.71 145.859 1903.31 145.049 Q1899.91 144.239 1896.26 144.239 Q1890.71 144.239 1887.91 145.94 Q1885.16 147.641 1885.16 151.044 Q1885.16 153.637 1887.15 155.135 Q1889.13 156.594 1895.13 157.931 L1897.68 158.498 Q1905.62 160.199 1908.94 163.318 Q1912.3 166.397 1912.3 171.947 Q1912.3 178.266 1907.28 181.952 Q1902.3 185.639 1893.55 185.639 Q1889.9 185.639 1885.93 184.91 Q1882 184.221 1877.63 182.803 L1877.63 175.106 Q1881.76 177.253 1885.77 178.347 Q1889.78 179.4 1893.71 179.4 Q1898.97 179.4 1901.81 177.618 Q1904.64 175.795 1904.64 172.514 Q1904.64 169.476 1902.58 167.855 Q1900.55 166.235 1893.63 164.736 L1891.03 164.128 Q1884.11 162.67 1881.03 159.672 Q1877.95 156.634 1877.95 151.368 Q1877.95 144.968 1882.49 141.484 Q1887.02 138 1895.37 138 Q1899.5 138 1903.15 138.608 Q1906.79 139.215 1909.87 140.431 Z" fill="#000000" fill-rule="nonzero" fill-opacity="1" /><path clip-path="url(#clip920)" d="M1924.17 139.094 L1931.62 139.094 L1931.62 184.464 L1924.17 184.464 L1924.17 139.094 M1924.17 121.432 L1931.62 121.432 L1931.62 130.871 L1924.17 130.871 L1924.17 121.432 Z" fill="#000000" fill-rule="nonzero" fill-opacity="1" /><path clip-path="url(#clip920)" d="M1943.98 139.094 L1979.38 139.094 L1979.38 145.899 L1951.35 178.509 L1979.38 178.509 L1979.38 184.464 L1942.97 184.464 L1942.97 177.658 L1971 145.049 L1943.98 145.049 L1943.98 139.094 Z" fill="#000000" fill-rule="nonzero" fill-opacity="1" /><path clip-path="url(#clip920)" d="M2029.57 159.916 L2029.57 163.561 L1995.3 163.561 Q1995.79 171.258 1999.92 175.309 Q2004.09 179.319 2011.51 179.319 Q2015.8 179.319 2019.81 178.266 Q2023.86 177.213 2027.83 175.106 L2027.83 182.155 Q2023.82 183.856 2019.61 184.748 Q2015.4 185.639 2011.06 185.639 Q2000.21 185.639 1993.85 179.319 Q1987.53 173 1987.53 162.225 Q1987.53 151.085 1993.52 144.563 Q1999.56 138 2009.77 138 Q2018.92 138 2024.23 143.914 Q2029.57 149.788 2029.57 159.916 M2022.12 157.728 Q2022.04 151.611 2018.68 147.965 Q2015.36 144.32 2009.85 144.32 Q2003.61 144.32 1999.84 147.844 Q1996.11 151.368 1995.55 157.769 L2022.12 157.728 Z" fill="#000000" fill-rule="nonzero" fill-opacity="1" /><path clip-path="url(#clip920)" d="M2064.41 158.822 L2139.27 158.822 L2139.27 164.655 L2064.41 164.655 L2064.41 158.822 Z" fill="#000000" fill-rule="nonzero" fill-opacity="1" /><path clip-path="url(#clip920)" d="M2216.32 159.916 L2216.32 163.561 L2182.05 163.561 Q2182.54 171.258 2186.67 175.309 Q2190.84 179.319 2198.25 179.319 Q2202.55 179.319 2206.56 178.266 Q2210.61 177.213 2214.58 175.106 L2214.58 182.155 Q2210.57 183.856 2206.36 184.748 Q2202.14 185.639 2197.81 185.639 Q2186.95 185.639 2180.59 179.319 Q2174.27 173 2174.27 162.225 Q2174.27 151.085 2180.27 144.563 Q2186.3 138 2196.51 138 Q2205.67 138 2210.97 143.914 Q2216.32 149.788 2216.32 159.916 M2208.87 157.728 Q2208.79 151.611 2205.42 147.965 Q2202.1 144.32 2196.59 144.32 Q2190.36 144.32 2186.59 147.844 Q2182.86 151.368 2182.29 157.769 L2208.87 157.728 Z" fill="#000000" fill-rule="nonzero" fill-opacity="1" /><path clip-path="url(#clip920)" d="M2228.56 121.432 L2236.01 121.432 L2236.01 184.464 L2228.56 184.464 L2228.56 121.432 Z" fill="#000000" fill-rule="nonzero" fill-opacity="1" /><path clip-path="url(#clip920)" d="M2290.41 159.916 L2290.41 163.561 L2256.14 163.561 Q2256.63 171.258 2260.76 175.309 Q2264.93 179.319 2272.35 179.319 Q2276.64 179.319 2280.65 178.266 Q2284.7 177.213 2288.67 175.106 L2288.67 182.155 Q2284.66 183.856 2280.45 184.748 Q2276.23 185.639 2271.9 185.639 Q2261.04 185.639 2254.68 179.319 Q2248.36 173 2248.36 162.225 Q2248.36 151.085 2254.36 144.563 Q2260.4 138 2270.6 138 Q2279.76 138 2285.07 143.914 Q2290.41 149.788 2290.41 159.916 M2282.96 157.728 Q2282.88 151.611 2279.52 147.965 Q2276.19 144.32 2270.68 144.32 Q2264.45 144.32 2260.68 147.844 Q2256.95 151.368 2256.38 157.769 L2282.96 157.728 Z" fill="#000000" fill-rule="nonzero" fill-opacity="1" /><path clip-path="url(#clip920)" d="M2335.3 140.836 L2335.3 147.803 Q2332.14 146.061 2328.94 145.211 Q2325.78 144.32 2322.54 144.32 Q2315.29 144.32 2311.27 148.938 Q2307.26 153.515 2307.26 161.819 Q2307.26 170.124 2311.27 174.742 Q2315.29 179.319 2322.54 179.319 Q2325.78 179.319 2328.94 178.469 Q2332.14 177.577 2335.3 175.836 L2335.3 182.722 Q2332.18 184.18 2328.82 184.91 Q2325.49 185.639 2321.73 185.639 Q2311.48 185.639 2305.44 179.198 Q2299.41 172.757 2299.41 161.819 Q2299.41 150.72 2305.48 144.36 Q2311.6 138 2322.21 138 Q2325.66 138 2328.94 138.729 Q2332.22 139.418 2335.3 140.836 Z" fill="#000000" fill-rule="nonzero" fill-opacity="1" /><path clip-path="url(#clip920)" d="M2355.63 126.212 L2355.63 139.094 L2370.99 139.094 L2370.99 144.887 L2355.63 144.887 L2355.63 169.516 Q2355.63 175.066 2357.13 176.646 Q2358.67 178.226 2363.33 178.226 L2370.99 178.226 L2370.99 184.464 L2363.33 184.464 Q2354.7 184.464 2351.42 181.264 Q2348.14 178.023 2348.14 169.516 L2348.14 144.887 L2342.67 144.887 L2342.67 139.094 L2348.14 139.094 L2348.14 126.212 L2355.63 126.212 Z" fill="#000000" fill-rule="nonzero" fill-opacity="1" /><path clip-path="url(#clip920)" d="M2407.08 146.061 Q2405.82 145.332 2404.32 145.008 Q2402.87 144.644 2401.08 144.644 Q2394.76 144.644 2391.36 148.776 Q2388 152.867 2388 160.564 L2388 184.464 L2380.5 184.464 L2380.5 139.094 L2388 139.094 L2388 146.142 Q2390.35 142.011 2394.12 140.026 Q2397.88 138 2403.27 138 Q2404.04 138 2404.97 138.122 Q2405.9 138.203 2407.04 138.405 L2407.08 146.061 Z" fill="#000000" fill-rule="nonzero" fill-opacity="1" /><path clip-path="url(#clip920)" d="M2414.9 139.094 L2422.35 139.094 L2422.35 184.464 L2414.9 184.464 L2414.9 139.094 M2414.9 121.432 L2422.35 121.432 L2422.35 130.871 L2414.9 130.871 L2414.9 121.432 Z" fill="#000000" fill-rule="nonzero" fill-opacity="1" /><path clip-path="url(#clip920)" d="M2470.6 140.836 L2470.6 147.803 Q2467.44 146.061 2464.24 145.211 Q2461.08 144.32 2457.84 144.32 Q2450.59 144.32 2446.57 148.938 Q2442.56 153.515 2442.56 161.819 Q2442.56 170.124 2446.57 174.742 Q2450.59 179.319 2457.84 179.319 Q2461.08 179.319 2464.24 178.469 Q2467.44 177.577 2470.6 175.836 L2470.6 182.722 Q2467.48 184.18 2464.12 184.91 Q2460.79 185.639 2457.03 185.639 Q2446.78 185.639 2440.74 179.198 Q2434.71 172.757 2434.71 161.819 Q2434.71 150.72 2440.78 144.36 Q2446.9 138 2457.51 138 Q2460.96 138 2464.24 138.729 Q2467.52 139.418 2470.6 140.836 Z" fill="#000000" fill-rule="nonzero" fill-opacity="1" /><path clip-path="url(#clip920)" d="M2518.03 198.237 L2518.03 204.03 L2474.93 204.03 L2474.93 198.237 L2518.03 198.237 Z" fill="#000000" fill-rule="nonzero" fill-opacity="1" /><path clip-path="url(#clip920)" d="M2519.69 139.094 L2527.59 139.094 L2541.77 177.172 L2555.95 139.094 L2563.85 139.094 L2546.83 184.464 L2536.71 184.464 L2519.69 139.094 Z" fill="#000000" fill-rule="nonzero" fill-opacity="1" /><path clip-path="url(#clip920)" d="M2612.95 159.916 L2612.95 163.561 L2578.67 163.561 Q2579.16 171.258 2583.29 175.309 Q2587.47 179.319 2594.88 179.319 Q2599.17 179.319 2603.18 178.266 Q2607.23 177.213 2611.2 175.106 L2611.2 182.155 Q2607.19 183.856 2602.98 184.748 Q2598.77 185.639 2594.43 185.639 Q2583.58 185.639 2577.22 179.319 Q2570.9 173 2570.9 162.225 Q2570.9 151.085 2576.89 144.563 Q2582.93 138 2593.14 138 Q2602.29 138 2607.6 143.914 Q2612.95 149.788 2612.95 159.916 M2605.49 157.728 Q2605.41 151.611 2602.05 147.965 Q2598.73 144.32 2593.22 144.32 Q2586.98 144.32 2583.21 147.844 Q2579.49 151.368 2578.92 157.769 L2605.49 157.728 Z" fill="#000000" fill-rule="nonzero" fill-opacity="1" /><path clip-path="url(#clip920)" d="M2662.89 157.08 L2662.89 184.464 L2655.44 184.464 L2655.44 157.323 Q2655.44 150.882 2652.93 147.682 Q2650.42 144.482 2645.39 144.482 Q2639.36 144.482 2635.87 148.33 Q2632.39 152.178 2632.39 158.822 L2632.39 184.464 L2624.9 184.464 L2624.9 121.432 L2632.39 121.432 L2632.39 146.142 Q2635.06 142.051 2638.67 140.026 Q2642.31 138 2647.05 138 Q2654.87 138 2658.88 142.861 Q2662.89 147.682 2662.89 157.08 Z" fill="#000000" fill-rule="nonzero" fill-opacity="1" /><path clip-path="url(#clip920)" d="M2677.76 139.094 L2685.21 139.094 L2685.21 184.464 L2677.76 184.464 L2677.76 139.094 M2677.76 121.432 L2685.21 121.432 L2685.21 130.871 L2677.76 130.871 L2677.76 121.432 Z" fill="#000000" fill-rule="nonzero" fill-opacity="1" /><path clip-path="url(#clip920)" d="M2733.46 140.836 L2733.46 147.803 Q2730.3 146.061 2727.1 145.211 Q2723.94 144.32 2720.7 144.32 Q2713.45 144.32 2709.44 148.938 Q2705.43 153.515 2705.43 161.819 Q2705.43 170.124 2709.44 174.742 Q2713.45 179.319 2720.7 179.319 Q2723.94 179.319 2727.1 178.469 Q2730.3 177.577 2733.46 175.836 L2733.46 182.722 Q2730.34 184.18 2726.98 184.91 Q2723.66 185.639 2719.89 185.639 Q2709.64 185.639 2703.6 179.198 Q2697.57 172.757 2697.57 161.819 Q2697.57 150.72 2703.65 144.36 Q2709.76 138 2720.38 138 Q2723.82 138 2727.1 138.729 Q2730.38 139.418 2733.46 140.836 Z" fill="#000000" fill-rule="nonzero" fill-opacity="1" /><path clip-path="url(#clip920)" d="M2746.42 121.432 L2753.88 121.432 L2753.88 184.464 L2746.42 184.464 L2746.42 121.432 Z" fill="#000000" fill-rule="nonzero" fill-opacity="1" /><path clip-path="url(#clip920)" d="M2808.28 159.916 L2808.28 163.561 L2774.01 163.561 Q2774.5 171.258 2778.63 175.309 Q2782.8 179.319 2790.21 179.319 Q2794.51 179.319 2798.52 178.266 Q2802.57 177.213 2806.54 175.106 L2806.54 182.155 Q2802.53 183.856 2798.31 184.748 Q2794.1 185.639 2789.77 185.639 Q2778.91 185.639 2772.55 179.319 Q2766.23 173 2766.23 162.225 Q2766.23 151.085 2772.23 144.563 Q2778.26 138 2788.47 138 Q2797.63 138 2802.93 143.914 Q2808.28 149.788 2808.28 159.916 M2800.83 157.728 Q2800.75 151.611 2797.38 147.965 Q2794.06 144.32 2788.55 144.32 Q2782.31 144.32 2778.55 147.844 Q2774.82 151.368 2774.25 157.769 L2800.83 157.728 Z" fill="#000000" fill-rule="nonzero" fill-opacity="1" /><polyline clip-path="url(#clip922)" style="stroke:#ffa500; stroke-linecap:round; stroke-linejoin:round; stroke-width:6; stroke-opacity:1; fill:none" points="504.926,2102.46 2533.82,800.815 3407.62,300.989 "/>
<path clip-path="url(#clip922)" d="M504.926 2086.46 L488.926 2118.46 L520.926 2118.46 L504.926 2086.46 Z" fill="#ffa500" fill-rule="evenodd" fill-opacity="1" stroke="none"/>
<path clip-path="url(#clip922)" d="M2533.82 784.815 L2517.82 816.815 L2549.82 816.815 L2533.82 784.815 Z" fill="#ffa500" fill-rule="evenodd" fill-opacity="1" stroke="none"/>
<path clip-path="url(#clip922)" d="M3407.62 284.989 L3391.62 316.989 L3423.62 316.989 L3407.62 284.989 Z" fill="#ffa500" fill-rule="evenodd" fill-opacity="1" stroke="none"/>
<polyline clip-path="url(#clip922)" style="stroke:#00ffff; stroke-linecap:round; stroke-linejoin:round; stroke-width:6; stroke-opacity:1; fill:none" points="504.926,1147.67 2533.82,1046.19 3407.62,919.902 "/>
<path clip-path="url(#clip922)" d="M504.926 1163.67 L491.07 1155.67 L491.07 1139.67 L504.926 1131.67 L518.782 1139.67 L518.782 1155.67 Z" fill="#00ffff" fill-rule="evenodd" fill-opacity="1" stroke="none"/>
<path clip-path="url(#clip922)" d="M2533.82 1062.19 L2519.97 1054.19 L2519.97 1038.19 L2533.82 1030.19 L2547.68 1038.19 L2547.68 1054.19 Z" fill="#00ffff" fill-rule="evenodd" fill-opacity="1" stroke="none"/>
<path clip-path="url(#clip922)" d="M3407.62 935.902 L3393.77 927.902 L3393.77 911.902 L3407.62 903.902 L3421.48 911.902 L3421.48 927.902 Z" fill="#00ffff" fill-rule="evenodd" fill-opacity="1" stroke="none"/>
<path clip-path="url(#clip920)" d="M2690.04 2092.86 L3446.32 2092.86 L3446.32 1937.34 L2690.04 1937.34  Z" fill="#ffffff" fill-rule="evenodd" fill-opacity="1"/>
<polyline clip-path="url(#clip920)" style="stroke:#000000; stroke-linecap:round; stroke-linejoin:round; stroke-width:4; stroke-opacity:1; fill:none" points="2690.04,2092.86 3446.32,2092.86 3446.32,1937.34 2690.04,1937.34 2690.04,2092.86 "/>
<polyline clip-path="url(#clip920)" style="stroke:#ffa500; stroke-linecap:round; stroke-linejoin:round; stroke-width:6; stroke-opacity:1; fill:none" points="2725.52,1989.18 2938.38,1989.18 "/>
<path clip-path="url(#clip920)" d="M2831.95 1963.58 L2806.35 2014.78 L2857.55 2014.78 L2831.95 1963.58 Z" fill="#ffa500" fill-rule="evenodd" fill-opacity="1" stroke="none"/>
<path clip-path="url(#clip920)" d="M2984.48 1970.48 Q2981.38 1975.81 2979.88 1981.02 Q2978.37 1986.22 2978.37 1991.57 Q2978.37 1996.92 2979.88 2002.17 Q2981.4 2007.4 2984.48 2012.71 L2980.78 2012.71 Q2977.31 2007.27 2975.57 2002.01 Q2973.86 1996.76 2973.86 1991.57 Q2973.86 1986.41 2975.57 1981.18 Q2977.28 1975.95 2980.78 1970.48 L2984.48 1970.48 Z" fill="#000000" fill-rule="nonzero" fill-opacity="1" /><path clip-path="url(#clip920)" d="M3014.92 1992.43 L3014.92 1994.51 L2995.34 1994.51 Q2995.62 1998.91 2997.98 2001.22 Q3000.36 2003.52 3004.6 2003.52 Q3007.05 2003.52 3009.34 2002.91 Q3011.66 2002.31 3013.93 2001.11 L3013.93 2005.14 Q3011.64 2006.11 3009.23 2006.62 Q3006.82 2007.13 3004.34 2007.13 Q2998.14 2007.13 2994.51 2003.52 Q2990.89 1999.9 2990.89 1993.75 Q2990.89 1987.38 2994.32 1983.65 Q2997.77 1979.9 3003.6 1979.9 Q3008.83 1979.9 3011.87 1983.28 Q3014.92 1986.64 3014.92 1992.43 M3010.66 1991.18 Q3010.62 1987.68 3008.7 1985.6 Q3006.8 1983.52 3003.65 1983.52 Q3000.08 1983.52 2997.93 1985.53 Q2995.8 1987.54 2995.48 1991.2 L3010.66 1991.18 Z" fill="#000000" fill-rule="nonzero" fill-opacity="1" /><path clip-path="url(#clip920)" d="M3042.63 1980.53 L3033.26 1993.15 L3043.12 2006.46 L3038.09 2006.46 L3030.55 1996.27 L3023 2006.46 L3017.98 2006.46 L3028.05 1992.89 L3018.83 1980.53 L3023.86 1980.53 L3030.73 1989.77 L3037.61 1980.53 L3042.63 1980.53 Z" fill="#000000" fill-rule="nonzero" fill-opacity="1" /><path clip-path="url(#clip920)" d="M3060.92 1993.42 Q3055.76 1993.42 3053.76 1994.6 Q3051.77 1995.78 3051.77 1998.63 Q3051.77 2000.9 3053.26 2002.24 Q3054.76 2003.56 3057.33 2003.56 Q3060.87 2003.56 3063 2001.06 Q3065.15 1998.54 3065.15 1994.37 L3065.15 1993.42 L3060.92 1993.42 M3069.41 1991.66 L3069.41 2006.46 L3065.15 2006.46 L3065.15 2002.52 Q3063.7 2004.88 3061.52 2006.02 Q3059.34 2007.13 3056.2 2007.13 Q3052.21 2007.13 3049.85 2004.9 Q3047.51 2002.66 3047.51 1998.91 Q3047.51 1994.53 3050.43 1992.31 Q3053.37 1990.09 3059.18 1990.09 L3065.15 1990.09 L3065.15 1989.67 Q3065.15 1986.73 3063.21 1985.14 Q3061.29 1983.52 3057.79 1983.52 Q3055.57 1983.52 3053.46 1984.05 Q3051.36 1984.58 3049.41 1985.65 L3049.41 1981.71 Q3051.75 1980.81 3053.95 1980.37 Q3056.15 1979.9 3058.23 1979.9 Q3063.86 1979.9 3066.64 1982.82 Q3069.41 1985.74 3069.41 1991.66 Z" fill="#000000" fill-rule="nonzero" fill-opacity="1" /><path clip-path="url(#clip920)" d="M3079.27 2000.58 L3084.16 2000.58 L3084.16 2004.56 L3080.36 2011.96 L3077.38 2011.96 L3079.27 2004.56 L3079.27 2000.58 Z" fill="#000000" fill-rule="nonzero" fill-opacity="1" /><path clip-path="url(#clip920)" d="M3128.51 1985.51 Q3130.11 1982.64 3132.33 1981.27 Q3134.55 1979.9 3137.56 1979.9 Q3141.61 1979.9 3143.81 1982.75 Q3146.01 1985.58 3146.01 1990.81 L3146.01 2006.46 L3141.73 2006.46 L3141.73 1990.95 Q3141.73 1987.22 3140.41 1985.41 Q3139.09 1983.61 3136.38 1983.61 Q3133.07 1983.61 3131.15 1985.81 Q3129.23 1988.01 3129.23 1991.8 L3129.23 2006.46 L3124.95 2006.46 L3124.95 1990.95 Q3124.95 1987.2 3123.63 1985.41 Q3122.31 1983.61 3119.55 1983.61 Q3116.29 1983.61 3114.37 1985.83 Q3112.45 1988.03 3112.45 1991.8 L3112.45 2006.46 L3108.16 2006.46 L3108.16 1980.53 L3112.45 1980.53 L3112.45 1984.56 Q3113.9 1982.17 3115.94 1981.04 Q3117.98 1979.9 3120.78 1979.9 Q3123.6 1979.9 3125.57 1981.34 Q3127.56 1982.78 3128.51 1985.51 Z" fill="#000000" fill-rule="nonzero" fill-opacity="1" /><path clip-path="url(#clip920)" d="M3166.29 1993.42 Q3161.13 1993.42 3159.13 1994.6 Q3157.14 1995.78 3157.14 1998.63 Q3157.14 2000.9 3158.63 2002.24 Q3160.13 2003.56 3162.7 2003.56 Q3166.24 2003.56 3168.37 2001.06 Q3170.52 1998.54 3170.52 1994.37 L3170.52 1993.42 L3166.29 1993.42 M3174.78 1991.66 L3174.78 2006.46 L3170.52 2006.46 L3170.52 2002.52 Q3169.07 2004.88 3166.89 2006.02 Q3164.71 2007.13 3161.57 2007.13 Q3157.58 2007.13 3155.22 2004.9 Q3152.88 2002.66 3152.88 1998.91 Q3152.88 1994.53 3155.8 1992.31 Q3158.74 1990.09 3164.55 1990.09 L3170.52 1990.09 L3170.52 1989.67 Q3170.52 1986.73 3168.58 1985.14 Q3166.66 1983.52 3163.16 1983.52 Q3160.94 1983.52 3158.83 1984.05 Q3156.73 1984.58 3154.78 1985.65 L3154.78 1981.71 Q3157.12 1980.81 3159.32 1980.37 Q3161.52 1979.9 3163.6 1979.9 Q3169.23 1979.9 3172.01 1982.82 Q3174.78 1985.74 3174.78 1991.66 Z" fill="#000000" fill-rule="nonzero" fill-opacity="1" /><path clip-path="url(#clip920)" d="M3200.62 1984.46 L3200.62 1970.44 L3204.88 1970.44 L3204.88 2006.46 L3200.62 2006.46 L3200.62 2002.57 Q3199.27 2004.88 3197.21 2006.02 Q3195.18 2007.13 3192.31 2007.13 Q3187.61 2007.13 3184.64 2003.38 Q3181.7 1999.63 3181.7 1993.52 Q3181.7 1987.4 3184.64 1983.65 Q3187.61 1979.9 3192.31 1979.9 Q3195.18 1979.9 3197.21 1981.04 Q3199.27 1982.15 3200.62 1984.46 M3186.1 1993.52 Q3186.1 1998.21 3188.02 2000.9 Q3189.97 2003.56 3193.35 2003.56 Q3196.73 2003.56 3198.67 2000.9 Q3200.62 1998.21 3200.62 1993.52 Q3200.62 1988.82 3198.67 1986.15 Q3196.73 1983.47 3193.35 1983.47 Q3189.97 1983.47 3188.02 1986.15 Q3186.1 1988.82 3186.1 1993.52 Z" fill="#000000" fill-rule="nonzero" fill-opacity="1" /><path clip-path="url(#clip920)" d="M3235.2 1990.81 L3235.2 2006.46 L3230.94 2006.46 L3230.94 1990.95 Q3230.94 1987.27 3229.5 1985.44 Q3228.07 1983.61 3225.2 1983.61 Q3221.75 1983.61 3219.76 1985.81 Q3217.77 1988.01 3217.77 1991.8 L3217.77 2006.46 L3213.49 2006.46 L3213.49 1980.53 L3217.77 1980.53 L3217.77 1984.56 Q3219.3 1982.22 3221.36 1981.06 Q3223.44 1979.9 3226.15 1979.9 Q3230.62 1979.9 3232.91 1982.68 Q3235.2 1985.44 3235.2 1990.81 Z" fill="#000000" fill-rule="nonzero" fill-opacity="1" /><path clip-path="url(#clip920)" d="M3243.69 1970.44 L3247.95 1970.44 L3247.95 2006.46 L3243.69 2006.46 L3243.69 1970.44 Z" fill="#000000" fill-rule="nonzero" fill-opacity="1" /><path clip-path="url(#clip920)" d="M3260.99 2002.57 L3260.99 2016.32 L3256.7 2016.32 L3256.7 1980.53 L3260.99 1980.53 L3260.99 1984.46 Q3262.33 1982.15 3264.37 1981.04 Q3266.43 1979.9 3269.27 1979.9 Q3274 1979.9 3276.94 1983.65 Q3279.9 1987.4 3279.9 1993.52 Q3279.9 1999.63 3276.94 2003.38 Q3274 2007.13 3269.27 2007.13 Q3266.43 2007.13 3264.37 2006.02 Q3262.33 2004.88 3260.99 2002.57 M3275.48 1993.52 Q3275.48 1988.82 3273.53 1986.15 Q3271.61 1983.47 3268.23 1983.47 Q3264.85 1983.47 3262.91 1986.15 Q3260.99 1988.82 3260.99 1993.52 Q3260.99 1998.21 3262.91 2000.9 Q3264.85 2003.56 3268.23 2003.56 Q3271.61 2003.56 3273.53 2000.9 Q3275.48 1998.21 3275.48 1993.52 Z" fill="#000000" fill-rule="nonzero" fill-opacity="1" /><path clip-path="url(#clip920)" d="M3286.29 1970.48 L3289.99 1970.48 Q3293.46 1975.95 3295.18 1981.18 Q3296.91 1986.41 3296.91 1991.57 Q3296.91 1996.76 3295.18 2002.01 Q3293.46 2007.27 3289.99 2012.71 L3286.29 2012.71 Q3289.37 2007.4 3290.87 2002.17 Q3292.4 1996.92 3292.4 1991.57 Q3292.4 1986.22 3290.87 1981.02 Q3289.37 1975.81 3286.29 1970.48 Z" fill="#000000" fill-rule="nonzero" fill-opacity="1" /><polyline clip-path="url(#clip920)" style="stroke:#00ffff; stroke-linecap:round; stroke-linejoin:round; stroke-width:6; stroke-opacity:1; fill:none" points="2725.52,2041.02 2938.38,2041.02 "/>
<path clip-path="url(#clip920)" d="M2831.95 2066.62 L2809.78 2053.82 L2809.78 2028.22 L2831.95 2015.42 L2854.12 2028.22 L2854.12 2053.82 Z" fill="#00ffff" fill-rule="evenodd" fill-opacity="1" stroke="none"/>
<path clip-path="url(#clip920)" d="M2984.48 2022.32 Q2981.38 2027.65 2979.88 2032.86 Q2978.37 2038.06 2978.37 2043.41 Q2978.37 2048.76 2979.88 2054.01 Q2981.4 2059.24 2984.48 2064.55 L2980.78 2064.55 Q2977.31 2059.11 2975.57 2053.85 Q2973.86 2048.6 2973.86 2043.41 Q2973.86 2038.25 2975.57 2033.02 Q2977.28 2027.79 2980.78 2022.32 L2984.48 2022.32 Z" fill="#000000" fill-rule="nonzero" fill-opacity="1" /><path clip-path="url(#clip920)" d="M3014.92 2044.27 L3014.92 2046.35 L2995.34 2046.35 Q2995.62 2050.75 2997.98 2053.06 Q3000.36 2055.36 3004.6 2055.36 Q3007.05 2055.36 3009.34 2054.75 Q3011.66 2054.15 3013.93 2052.95 L3013.93 2056.98 Q3011.64 2057.95 3009.23 2058.46 Q3006.82 2058.97 3004.34 2058.97 Q2998.14 2058.97 2994.51 2055.36 Q2990.89 2051.74 2990.89 2045.59 Q2990.89 2039.22 2994.32 2035.49 Q2997.77 2031.74 3003.6 2031.74 Q3008.83 2031.74 3011.87 2035.12 Q3014.92 2038.48 3014.92 2044.27 M3010.66 2043.02 Q3010.62 2039.52 3008.7 2037.44 Q3006.8 2035.36 3003.65 2035.36 Q3000.08 2035.36 2997.93 2037.37 Q2995.8 2039.38 2995.48 2043.04 L3010.66 2043.02 Z" fill="#000000" fill-rule="nonzero" fill-opacity="1" /><path clip-path="url(#clip920)" d="M3042.63 2032.37 L3033.26 2044.99 L3043.12 2058.3 L3038.09 2058.3 L3030.55 2048.11 L3023 2058.3 L3017.98 2058.3 L3028.05 2044.73 L3018.83 2032.37 L3023.86 2032.37 L3030.73 2041.61 L3037.61 2032.37 L3042.63 2032.37 Z" fill="#000000" fill-rule="nonzero" fill-opacity="1" /><path clip-path="url(#clip920)" d="M3060.92 2045.26 Q3055.76 2045.26 3053.76 2046.44 Q3051.77 2047.62 3051.77 2050.47 Q3051.77 2052.74 3053.26 2054.08 Q3054.76 2055.4 3057.33 2055.4 Q3060.87 2055.4 3063 2052.9 Q3065.15 2050.38 3065.15 2046.21 L3065.15 2045.26 L3060.92 2045.26 M3069.41 2043.5 L3069.41 2058.3 L3065.15 2058.3 L3065.15 2054.36 Q3063.7 2056.72 3061.52 2057.86 Q3059.34 2058.97 3056.2 2058.97 Q3052.21 2058.97 3049.85 2056.74 Q3047.51 2054.5 3047.51 2050.75 Q3047.51 2046.37 3050.43 2044.15 Q3053.37 2041.93 3059.18 2041.93 L3065.15 2041.93 L3065.15 2041.51 Q3065.15 2038.57 3063.21 2036.98 Q3061.29 2035.36 3057.79 2035.36 Q3055.57 2035.36 3053.46 2035.89 Q3051.36 2036.42 3049.41 2037.49 L3049.41 2033.55 Q3051.75 2032.65 3053.95 2032.21 Q3056.15 2031.74 3058.23 2031.74 Q3063.86 2031.74 3066.64 2034.66 Q3069.41 2037.58 3069.41 2043.5 Z" fill="#000000" fill-rule="nonzero" fill-opacity="1" /><path clip-path="url(#clip920)" d="M3097.89 2066.17 L3097.89 2069.48 L3073.26 2069.48 L3073.26 2066.17 L3097.89 2066.17 Z" fill="#000000" fill-rule="nonzero" fill-opacity="1" /><path clip-path="url(#clip920)" d="M3118.95 2045.03 Q3118.95 2040.4 3117.03 2037.86 Q3115.13 2035.31 3111.68 2035.31 Q3108.26 2035.31 3106.33 2037.86 Q3104.44 2040.4 3104.44 2045.03 Q3104.44 2049.64 3106.33 2052.18 Q3108.26 2054.73 3111.68 2054.73 Q3115.13 2054.73 3117.03 2052.18 Q3118.95 2049.64 3118.95 2045.03 M3123.21 2055.08 Q3123.21 2061.7 3120.27 2064.92 Q3117.33 2068.16 3111.26 2068.16 Q3109.02 2068.16 3107.03 2067.81 Q3105.04 2067.49 3103.16 2066.79 L3103.16 2062.65 Q3105.04 2063.67 3106.87 2064.15 Q3108.7 2064.64 3110.59 2064.64 Q3114.78 2064.64 3116.87 2062.44 Q3118.95 2060.26 3118.95 2055.84 L3118.95 2053.74 Q3117.63 2056.03 3115.57 2057.16 Q3113.51 2058.3 3110.64 2058.3 Q3105.87 2058.3 3102.95 2054.66 Q3100.04 2051.03 3100.04 2045.03 Q3100.04 2039.01 3102.95 2035.38 Q3105.87 2031.74 3110.64 2031.74 Q3113.51 2031.74 3115.57 2032.88 Q3117.63 2034.01 3118.95 2036.3 L3118.95 2032.37 L3123.21 2032.37 L3123.21 2055.08 Z" fill="#000000" fill-rule="nonzero" fill-opacity="1" /><path clip-path="url(#clip920)" d="M3136.1 2054.41 L3136.1 2068.16 L3131.82 2068.16 L3131.82 2032.37 L3136.1 2032.37 L3136.1 2036.3 Q3137.45 2033.99 3139.48 2032.88 Q3141.54 2031.74 3144.39 2031.74 Q3149.11 2031.74 3152.05 2035.49 Q3155.01 2039.24 3155.01 2045.36 Q3155.01 2051.47 3152.05 2055.22 Q3149.11 2058.97 3144.39 2058.97 Q3141.54 2058.97 3139.48 2057.86 Q3137.45 2056.72 3136.1 2054.41 M3150.59 2045.36 Q3150.59 2040.66 3148.65 2037.99 Q3146.73 2035.31 3143.35 2035.31 Q3139.97 2035.31 3138.02 2037.99 Q3136.1 2040.66 3136.1 2045.36 Q3136.1 2050.05 3138.02 2052.74 Q3139.97 2055.4 3143.35 2055.4 Q3146.73 2055.4 3148.65 2052.74 Q3150.59 2050.05 3150.59 2045.36 Z" fill="#000000" fill-rule="nonzero" fill-opacity="1" /><path clip-path="url(#clip920)" d="M3161.63 2048.06 L3161.63 2032.37 L3165.89 2032.37 L3165.89 2047.9 Q3165.89 2051.58 3167.33 2053.43 Q3168.76 2055.26 3171.63 2055.26 Q3175.08 2055.26 3177.07 2053.06 Q3179.09 2050.87 3179.09 2047.07 L3179.09 2032.37 L3183.35 2032.37 L3183.35 2058.3 L3179.09 2058.3 L3179.09 2054.31 Q3177.54 2056.68 3175.48 2057.83 Q3173.44 2058.97 3170.73 2058.97 Q3166.26 2058.97 3163.95 2056.19 Q3161.63 2053.41 3161.63 2048.06 M3172.35 2031.74 L3172.35 2031.74 Z" fill="#000000" fill-rule="nonzero" fill-opacity="1" /><path clip-path="url(#clip920)" d="M3193.21 2052.42 L3198.09 2052.42 L3198.09 2056.4 L3194.3 2063.8 L3191.31 2063.8 L3193.21 2056.4 L3193.21 2052.42 Z" fill="#000000" fill-rule="nonzero" fill-opacity="1" /><path clip-path="url(#clip920)" d="M3242.44 2037.35 Q3244.04 2034.48 3246.26 2033.11 Q3248.49 2031.74 3251.5 2031.74 Q3255.55 2031.74 3257.75 2034.59 Q3259.94 2037.42 3259.94 2042.65 L3259.94 2058.3 L3255.66 2058.3 L3255.66 2042.79 Q3255.66 2039.06 3254.34 2037.25 Q3253.02 2035.45 3250.31 2035.45 Q3247 2035.45 3245.08 2037.65 Q3243.16 2039.85 3243.16 2043.64 L3243.16 2058.3 L3238.88 2058.3 L3238.88 2042.79 Q3238.88 2039.04 3237.56 2037.25 Q3236.24 2035.45 3233.49 2035.45 Q3230.22 2035.45 3228.3 2037.67 Q3226.38 2039.87 3226.38 2043.64 L3226.38 2058.3 L3222.1 2058.3 L3222.1 2032.37 L3226.38 2032.37 L3226.38 2036.4 Q3227.84 2034.01 3229.88 2032.88 Q3231.91 2031.74 3234.71 2031.74 Q3237.54 2031.74 3239.5 2033.18 Q3241.5 2034.62 3242.44 2037.35 Z" fill="#000000" fill-rule="nonzero" fill-opacity="1" /><path clip-path="url(#clip920)" d="M3280.22 2045.26 Q3275.06 2045.26 3273.07 2046.44 Q3271.08 2047.62 3271.08 2050.47 Q3271.08 2052.74 3272.56 2054.08 Q3274.06 2055.4 3276.63 2055.4 Q3280.18 2055.4 3282.31 2052.9 Q3284.46 2050.38 3284.46 2046.21 L3284.46 2045.26 L3280.22 2045.26 M3288.72 2043.5 L3288.72 2058.3 L3284.46 2058.3 L3284.46 2054.36 Q3283 2056.72 3280.82 2057.86 Q3278.65 2058.97 3275.5 2058.97 Q3271.52 2058.97 3269.16 2056.74 Q3266.82 2054.5 3266.82 2050.75 Q3266.82 2046.37 3269.74 2044.15 Q3272.68 2041.93 3278.49 2041.93 L3284.46 2041.93 L3284.46 2041.51 Q3284.46 2038.57 3282.51 2036.98 Q3280.59 2035.36 3277.1 2035.36 Q3274.87 2035.36 3272.77 2035.89 Q3270.66 2036.42 3268.72 2037.49 L3268.72 2033.55 Q3271.06 2032.65 3273.25 2032.21 Q3275.45 2031.74 3277.54 2031.74 Q3283.16 2031.74 3285.94 2034.66 Q3288.72 2037.58 3288.72 2043.5 Z" fill="#000000" fill-rule="nonzero" fill-opacity="1" /><path clip-path="url(#clip920)" d="M3314.55 2036.3 L3314.55 2022.28 L3318.81 2022.28 L3318.81 2058.3 L3314.55 2058.3 L3314.55 2054.41 Q3313.21 2056.72 3311.15 2057.86 Q3309.11 2058.97 3306.24 2058.97 Q3301.54 2058.97 3298.58 2055.22 Q3295.64 2051.47 3295.64 2045.36 Q3295.64 2039.24 3298.58 2035.49 Q3301.54 2031.74 3306.24 2031.74 Q3309.11 2031.74 3311.15 2032.88 Q3313.21 2033.99 3314.55 2036.3 M3300.04 2045.36 Q3300.04 2050.05 3301.96 2052.74 Q3303.9 2055.4 3307.28 2055.4 Q3310.66 2055.4 3312.61 2052.74 Q3314.55 2050.05 3314.55 2045.36 Q3314.55 2040.66 3312.61 2037.99 Q3310.66 2035.31 3307.28 2035.31 Q3303.9 2035.31 3301.96 2037.99 Q3300.04 2040.66 3300.04 2045.36 Z" fill="#000000" fill-rule="nonzero" fill-opacity="1" /><path clip-path="url(#clip920)" d="M3349.13 2042.65 L3349.13 2058.3 L3344.87 2058.3 L3344.87 2042.79 Q3344.87 2039.11 3343.44 2037.28 Q3342 2035.45 3339.13 2035.45 Q3335.68 2035.45 3333.69 2037.65 Q3331.7 2039.85 3331.7 2043.64 L3331.7 2058.3 L3327.42 2058.3 L3327.42 2032.37 L3331.7 2032.37 L3331.7 2036.4 Q3333.23 2034.06 3335.29 2032.9 Q3337.37 2031.74 3340.08 2031.74 Q3344.55 2031.74 3346.84 2034.52 Q3349.13 2037.28 3349.13 2042.65 Z" fill="#000000" fill-rule="nonzero" fill-opacity="1" /><path clip-path="url(#clip920)" d="M3357.63 2022.28 L3361.89 2022.28 L3361.89 2058.3 L3357.63 2058.3 L3357.63 2022.28 Z" fill="#000000" fill-rule="nonzero" fill-opacity="1" /><path clip-path="url(#clip920)" d="M3374.92 2054.41 L3374.92 2068.16 L3370.64 2068.16 L3370.64 2032.37 L3374.92 2032.37 L3374.92 2036.3 Q3376.26 2033.99 3378.3 2032.88 Q3380.36 2031.74 3383.21 2031.74 Q3387.93 2031.74 3390.87 2035.49 Q3393.83 2039.24 3393.83 2045.36 Q3393.83 2051.47 3390.87 2055.22 Q3387.93 2058.97 3383.21 2058.97 Q3380.36 2058.97 3378.3 2057.86 Q3376.26 2056.72 3374.92 2054.41 M3389.41 2045.36 Q3389.41 2040.66 3387.47 2037.99 Q3385.55 2035.31 3382.17 2035.31 Q3378.79 2035.31 3376.84 2037.99 Q3374.92 2040.66 3374.92 2045.36 Q3374.92 2050.05 3376.84 2052.74 Q3378.79 2055.4 3382.17 2055.4 Q3385.55 2055.4 3387.47 2052.74 Q3389.41 2050.05 3389.41 2045.36 Z" fill="#000000" fill-rule="nonzero" fill-opacity="1" /><path clip-path="url(#clip920)" d="M3400.22 2022.32 L3403.93 2022.32 Q3407.4 2027.79 3409.11 2033.02 Q3410.85 2038.25 3410.85 2043.41 Q3410.85 2048.6 3409.11 2053.85 Q3407.4 2059.11 3403.93 2064.55 L3400.22 2064.55 Q3403.3 2059.24 3404.8 2054.01 Q3406.33 2048.76 3406.33 2043.41 Q3406.33 2038.06 3404.8 2032.86 Q3403.3 2027.65 3400.22 2022.32 Z" fill="#000000" fill-rule="nonzero" fill-opacity="1" /></svg>
