<?xml version="1.0" encoding="utf-8"?>
<svg xmlns="http://www.w3.org/2000/svg" xmlns:xlink="http://www.w3.org/1999/xlink" width="900" height="600" viewBox="0 0 3600 2400">
<defs>
  <clipPath id="clip700">
    <rect x="0" y="0" width="3600" height="2400"/>
  </clipPath>
</defs>
<path clip-path="url(#clip700)" d="M0 2400 L3600 2400 L3600 0 L0 0  Z" fill="#ffffff" fill-rule="evenodd" fill-opacity="1"/>
<defs>
  <clipPath id="clip701">
    <rect x="290" y="246" width="3264" height="1911"/>
  </clipPath>
</defs>
<path clip-path="url(#clip700)" d="M359.791 2156.51 L3552.76 2156.51 L3552.76 246.944 L359.791 246.944  Z" fill="#ffffff" fill-rule="evenodd" fill-opacity="1"/>
<defs>
  <clipPath id="clip702">
    <rect x="359" y="246" width="3194" height="1911"/>
  </clipPath>
</defs>
<polyline clip-path="url(#clip702)" style="stroke:#000000; stroke-linecap:round; stroke-linejoin:round; stroke-width:2; stroke-opacity:0.1; fill:none" points="450.158,2156.51 450.158,246.944 "/>
<polyline clip-path="url(#clip702)" style="stroke:#000000; stroke-linecap:round; stroke-linejoin:round; stroke-width:2; stroke-opacity:0.1; fill:none" points="1203.22,2156.51 1203.22,246.944 "/>
<polyline clip-path="url(#clip702)" style="stroke:#000000; stroke-linecap:round; stroke-linejoin:round; stroke-width:2; stroke-opacity:0.1; fill:none" points="1956.27,2156.51 1956.27,246.944 "/>
<polyline clip-path="url(#clip702)" style="stroke:#000000; stroke-linecap:round; stroke-linejoin:round; stroke-width:2; stroke-opacity:0.1; fill:none" points="2709.33,2156.51 2709.33,246.944 "/>
<polyline clip-path="url(#clip702)" style="stroke:#000000; stroke-linecap:round; stroke-linejoin:round; stroke-width:2; stroke-opacity:0.1; fill:none" points="3462.39,2156.51 3462.39,246.944 "/>
<polyline clip-path="url(#clip702)" style="stroke:#000000; stroke-linecap:round; stroke-linejoin:round; stroke-width:2; stroke-opacity:0.1; fill:none" points="359.791,2155.66 3552.76,2155.66 "/>
<polyline clip-path="url(#clip702)" style="stroke:#000000; stroke-linecap:round; stroke-linejoin:round; stroke-width:2; stroke-opacity:0.1; fill:none" points="359.791,1431.37 3552.76,1431.37 "/>
<polyline clip-path="url(#clip702)" style="stroke:#000000; stroke-linecap:round; stroke-linejoin:round; stroke-width:2; stroke-opacity:0.1; fill:none" points="359.791,707.083 3552.76,707.083 "/>
<polyline clip-path="url(#clip700)" style="stroke:#000000; stroke-linecap:round; stroke-linejoin:round; stroke-width:4; stroke-opacity:1; fill:none" points="359.791,2156.51 3552.76,2156.51 "/>
<polyline clip-path="url(#clip700)" style="stroke:#000000; stroke-linecap:round; stroke-linejoin:round; stroke-width:4; stroke-opacity:1; fill:none" points="450.158,2156.51 450.158,2137.61 "/>
<polyline clip-path="url(#clip700)" style="stroke:#000000; stroke-linecap:round; stroke-linejoin:round; stroke-width:4; stroke-opacity:1; fill:none" points="1203.22,2156.51 1203.22,2137.61 "/>
<polyline clip-path="url(#clip700)" style="stroke:#000000; stroke-linecap:round; stroke-linejoin:round; stroke-width:4; stroke-opacity:1; fill:none" points="1956.27,2156.51 1956.27,2137.61 "/>
<polyline clip-path="url(#clip700)" style="stroke:#000000; stroke-linecap:round; stroke-linejoin:round; stroke-width:4; stroke-opacity:1; fill:none" points="2709.33,2156.51 2709.33,2137.61 "/>
<polyline clip-path="url(#clip700)" style="stroke:#000000; stroke-linecap:round; stroke-linejoin:round; stroke-width:4; stroke-opacity:1; fill:none" points="3462.39,2156.51 3462.39,2137.61 "/>
<path clip-path="url(#clip700)" d="M391.235 2224.57 L407.554 2224.57 L407.554 2228.51 L385.61 2228.51 L385.61 2224.57 Q388.272 2221.82 392.855 2217.19 Q397.462 2212.54 398.642 2211.19 Q400.888 2208.67 401.767 2206.93 Q402.67 2205.17 402.67 2203.48 Q402.67 2200.73 400.726 2198.99 Q398.805 2197.26 395.703 2197.26 Q393.504 2197.26 391.05 2198.02 Q388.619 2198.79 385.842 2200.34 L385.842 2195.61 Q388.666 2194.48 391.119 2193.9 Q393.573 2193.32 395.61 2193.32 Q400.98 2193.32 404.175 2196.01 Q407.369 2198.69 407.369 2203.18 Q407.369 2205.31 406.559 2207.23 Q405.772 2209.13 403.666 2211.73 Q403.087 2212.4 399.985 2215.61 Q396.883 2218.81 391.235 2224.57 Z" fill="#000000" fill-rule="nonzero" fill-opacity="1" /><path clip-path="url(#clip700)" d="M431.536 2209.87 Q434.892 2210.59 436.767 2212.86 Q438.665 2215.13 438.665 2218.46 Q438.665 2223.58 435.147 2226.38 Q431.628 2229.18 425.147 2229.18 Q422.971 2229.18 420.656 2228.74 Q418.365 2228.32 415.911 2227.47 L415.911 2222.95 Q417.855 2224.09 420.17 2224.67 Q422.485 2225.24 425.008 2225.24 Q429.406 2225.24 431.698 2223.51 Q434.013 2221.77 434.013 2218.46 Q434.013 2215.41 431.86 2213.69 Q429.73 2211.96 425.911 2211.96 L421.883 2211.96 L421.883 2208.11 L426.096 2208.11 Q429.545 2208.11 431.374 2206.75 Q433.202 2205.36 433.202 2202.77 Q433.202 2200.11 431.304 2198.69 Q429.429 2197.26 425.911 2197.26 Q423.99 2197.26 421.791 2197.67 Q419.591 2198.09 416.953 2198.97 L416.953 2194.8 Q419.615 2194.06 421.929 2193.69 Q424.267 2193.32 426.328 2193.32 Q431.652 2193.32 434.753 2195.75 Q437.855 2198.16 437.855 2202.28 Q437.855 2205.15 436.212 2207.14 Q434.568 2209.11 431.536 2209.87 Z" fill="#000000" fill-rule="nonzero" fill-opacity="1" /><path clip-path="url(#clip700)" d="M447.531 2222.63 L452.415 2222.63 L452.415 2228.51 L447.531 2228.51 L447.531 2222.63 Z" fill="#000000" fill-rule="nonzero" fill-opacity="1" /><path clip-path="url(#clip700)" d="M472.6 2197.03 Q468.989 2197.03 467.161 2200.59 Q465.355 2204.13 465.355 2211.26 Q465.355 2218.37 467.161 2221.93 Q468.989 2225.48 472.6 2225.48 Q476.235 2225.48 478.04 2221.93 Q479.869 2218.37 479.869 2211.26 Q479.869 2204.13 478.04 2200.59 Q476.235 2197.03 472.6 2197.03 M472.6 2193.32 Q478.411 2193.32 481.466 2197.93 Q484.545 2202.51 484.545 2211.26 Q484.545 2219.99 481.466 2224.6 Q478.411 2229.18 472.6 2229.18 Q466.79 2229.18 463.712 2224.6 Q460.656 2219.99 460.656 2211.26 Q460.656 2202.51 463.712 2197.93 Q466.79 2193.32 472.6 2193.32 Z" fill="#000000" fill-rule="nonzero" fill-opacity="1" /><path clip-path="url(#clip700)" d="M502.762 2197.03 Q499.151 2197.03 497.323 2200.59 Q495.517 2204.13 495.517 2211.26 Q495.517 2218.37 497.323 2221.93 Q499.151 2225.48 502.762 2225.48 Q506.397 2225.48 508.202 2221.93 Q510.031 2218.37 510.031 2211.26 Q510.031 2204.13 508.202 2200.59 Q506.397 2197.03 502.762 2197.03 M502.762 2193.32 Q508.572 2193.32 511.628 2197.93 Q514.707 2202.51 514.707 2211.26 Q514.707 2219.99 511.628 2224.6 Q508.572 2229.18 502.762 2229.18 Q496.952 2229.18 493.873 2224.6 Q490.818 2219.99 490.818 2211.26 Q490.818 2202.51 493.873 2197.93 Q496.952 2193.32 502.762 2193.32 Z" fill="#000000" fill-rule="nonzero" fill-opacity="1" /><path clip-path="url(#clip700)" d="M1144.79 2224.57 L1161.11 2224.57 L1161.11 2228.51 L1139.17 2228.51 L1139.17 2224.57 Q1141.83 2221.82 1146.41 2217.19 Q1151.02 2212.54 1152.2 2211.19 Q1154.44 2208.67 1155.32 2206.93 Q1156.23 2205.17 1156.23 2203.48 Q1156.23 2200.73 1154.28 2198.99 Q1152.36 2197.26 1149.26 2197.26 Q1147.06 2197.26 1144.61 2198.02 Q1142.17 2198.79 1139.4 2200.34 L1139.4 2195.61 Q1142.22 2194.48 1144.67 2193.9 Q1147.13 2193.32 1149.17 2193.32 Q1154.54 2193.32 1157.73 2196.01 Q1160.92 2198.69 1160.92 2203.18 Q1160.92 2205.31 1160.11 2207.23 Q1159.33 2209.13 1157.22 2211.73 Q1156.64 2212.4 1153.54 2215.61 Q1150.44 2218.81 1144.79 2224.57 Z" fill="#000000" fill-rule="nonzero" fill-opacity="1" /><path clip-path="url(#clip700)" d="M1185.09 2209.87 Q1188.45 2210.59 1190.32 2212.86 Q1192.22 2215.13 1192.22 2218.46 Q1192.22 2223.58 1188.7 2226.38 Q1185.18 2229.18 1178.7 2229.18 Q1176.53 2229.18 1174.21 2228.74 Q1171.92 2228.32 1169.47 2227.47 L1169.47 2222.95 Q1171.41 2224.09 1173.73 2224.67 Q1176.04 2225.24 1178.56 2225.24 Q1182.96 2225.24 1185.25 2223.51 Q1187.57 2221.77 1187.57 2218.46 Q1187.57 2215.41 1185.42 2213.69 Q1183.29 2211.96 1179.47 2211.96 L1175.44 2211.96 L1175.44 2208.11 L1179.65 2208.11 Q1183.1 2208.11 1184.93 2206.75 Q1186.76 2205.36 1186.76 2202.77 Q1186.76 2200.11 1184.86 2198.69 Q1182.98 2197.26 1179.47 2197.26 Q1177.54 2197.26 1175.35 2197.67 Q1173.15 2198.09 1170.51 2198.97 L1170.51 2194.8 Q1173.17 2194.06 1175.48 2193.69 Q1177.82 2193.32 1179.88 2193.32 Q1185.21 2193.32 1188.31 2195.75 Q1191.41 2198.16 1191.41 2202.28 Q1191.41 2205.15 1189.77 2207.14 Q1188.12 2209.11 1185.09 2209.87 Z" fill="#000000" fill-rule="nonzero" fill-opacity="1" /><path clip-path="url(#clip700)" d="M1201.09 2222.63 L1205.97 2222.63 L1205.97 2228.51 L1201.09 2228.51 L1201.09 2222.63 Z" fill="#000000" fill-rule="nonzero" fill-opacity="1" /><path clip-path="url(#clip700)" d="M1220.18 2224.57 L1236.5 2224.57 L1236.5 2228.51 L1214.56 2228.51 L1214.56 2224.57 Q1217.22 2221.82 1221.8 2217.19 Q1226.41 2212.54 1227.59 2211.19 Q1229.84 2208.67 1230.72 2206.93 Q1231.62 2205.17 1231.62 2203.48 Q1231.62 2200.73 1229.67 2198.99 Q1227.75 2197.26 1224.65 2197.26 Q1222.45 2197.26 1220 2198.02 Q1217.57 2198.79 1214.79 2200.34 L1214.79 2195.61 Q1217.61 2194.48 1220.07 2193.9 Q1222.52 2193.32 1224.56 2193.32 Q1229.93 2193.32 1233.12 2196.01 Q1236.32 2198.69 1236.32 2203.18 Q1236.32 2205.31 1235.51 2207.23 Q1234.72 2209.13 1232.61 2211.73 Q1232.04 2212.4 1228.93 2215.61 Q1225.83 2218.81 1220.18 2224.57 Z" fill="#000000" fill-rule="nonzero" fill-opacity="1" /><path clip-path="url(#clip700)" d="M1246.36 2193.95 L1264.72 2193.95 L1264.72 2197.88 L1250.65 2197.88 L1250.65 2206.36 Q1251.66 2206.01 1252.68 2205.85 Q1253.7 2205.66 1254.72 2205.66 Q1260.51 2205.66 1263.89 2208.83 Q1267.27 2212 1267.27 2217.42 Q1267.27 2223 1263.79 2226.1 Q1260.32 2229.18 1254 2229.18 Q1251.83 2229.18 1249.56 2228.81 Q1247.31 2228.44 1244.91 2227.7 L1244.91 2223 Q1246.99 2224.13 1249.21 2224.69 Q1251.43 2225.24 1253.91 2225.24 Q1257.91 2225.24 1260.25 2223.14 Q1262.59 2221.03 1262.59 2217.42 Q1262.59 2213.81 1260.25 2211.7 Q1257.91 2209.6 1253.91 2209.6 Q1252.04 2209.6 1250.16 2210.01 Q1248.31 2210.43 1246.36 2211.31 L1246.36 2193.95 Z" fill="#000000" fill-rule="nonzero" fill-opacity="1" /><path clip-path="url(#clip700)" d="M1897.35 2224.57 L1913.67 2224.57 L1913.67 2228.51 L1891.73 2228.51 L1891.73 2224.57 Q1894.39 2221.82 1898.97 2217.19 Q1903.58 2212.54 1904.76 2211.19 Q1907 2208.67 1907.88 2206.93 Q1908.79 2205.17 1908.79 2203.48 Q1908.79 2200.73 1906.84 2198.99 Q1904.92 2197.26 1901.82 2197.26 Q1899.62 2197.26 1897.17 2198.02 Q1894.73 2198.79 1891.96 2200.34 L1891.96 2195.61 Q1894.78 2194.48 1897.23 2193.9 Q1899.69 2193.32 1901.73 2193.32 Q1907.1 2193.32 1910.29 2196.01 Q1913.48 2198.69 1913.48 2203.18 Q1913.48 2205.31 1912.67 2207.23 Q1911.89 2209.13 1909.78 2211.73 Q1909.2 2212.4 1906.1 2215.61 Q1903 2218.81 1897.35 2224.57 Z" fill="#000000" fill-rule="nonzero" fill-opacity="1" /><path clip-path="url(#clip700)" d="M1937.65 2209.87 Q1941.01 2210.59 1942.88 2212.86 Q1944.78 2215.13 1944.78 2218.46 Q1944.78 2223.58 1941.26 2226.38 Q1937.74 2229.18 1931.26 2229.18 Q1929.09 2229.18 1926.77 2228.74 Q1924.48 2228.32 1922.03 2227.47 L1922.03 2222.95 Q1923.97 2224.09 1926.29 2224.67 Q1928.6 2225.24 1931.12 2225.24 Q1935.52 2225.24 1937.81 2223.51 Q1940.13 2221.77 1940.13 2218.46 Q1940.13 2215.41 1937.98 2213.69 Q1935.85 2211.96 1932.03 2211.96 L1928 2211.96 L1928 2208.11 L1932.21 2208.11 Q1935.66 2208.11 1937.49 2206.75 Q1939.32 2205.36 1939.32 2202.77 Q1939.32 2200.11 1937.42 2198.69 Q1935.54 2197.26 1932.03 2197.26 Q1930.1 2197.26 1927.91 2197.67 Q1925.71 2198.09 1923.07 2198.97 L1923.07 2194.8 Q1925.73 2194.06 1928.04 2193.69 Q1930.38 2193.32 1932.44 2193.32 Q1937.77 2193.32 1940.87 2195.75 Q1943.97 2198.16 1943.97 2202.28 Q1943.97 2205.15 1942.33 2207.14 Q1940.68 2209.11 1937.65 2209.87 Z" fill="#000000" fill-rule="nonzero" fill-opacity="1" /><path clip-path="url(#clip700)" d="M1953.65 2222.63 L1958.53 2222.63 L1958.53 2228.51 L1953.65 2228.51 L1953.65 2222.63 Z" fill="#000000" fill-rule="nonzero" fill-opacity="1" /><path clip-path="url(#clip700)" d="M1968.76 2193.95 L1987.12 2193.95 L1987.12 2197.88 L1973.04 2197.88 L1973.04 2206.36 Q1974.06 2206.01 1975.08 2205.85 Q1976.1 2205.66 1977.12 2205.66 Q1982.91 2205.66 1986.29 2208.83 Q1989.66 2212 1989.66 2217.42 Q1989.66 2223 1986.19 2226.1 Q1982.72 2229.18 1976.4 2229.18 Q1974.22 2229.18 1971.96 2228.81 Q1969.71 2228.44 1967.3 2227.7 L1967.3 2223 Q1969.39 2224.13 1971.61 2224.69 Q1973.83 2225.24 1976.31 2225.24 Q1980.31 2225.24 1982.65 2223.14 Q1984.99 2221.03 1984.99 2217.42 Q1984.99 2213.81 1982.65 2211.7 Q1980.31 2209.6 1976.31 2209.6 Q1974.43 2209.6 1972.56 2210.01 Q1970.71 2210.43 1968.76 2211.31 L1968.76 2193.95 Z" fill="#000000" fill-rule="nonzero" fill-opacity="1" /><path clip-path="url(#clip700)" d="M2008.88 2197.03 Q2005.27 2197.03 2003.44 2200.59 Q2001.63 2204.13 2001.63 2211.26 Q2001.63 2218.37 2003.44 2221.93 Q2005.27 2225.48 2008.88 2225.48 Q2012.51 2225.48 2014.32 2221.93 Q2016.15 2218.37 2016.15 2211.26 Q2016.15 2204.13 2014.32 2200.59 Q2012.51 2197.03 2008.88 2197.03 M2008.88 2193.32 Q2014.69 2193.32 2017.74 2197.93 Q2020.82 2202.51 2020.82 2211.26 Q2020.82 2219.99 2017.74 2224.6 Q2014.69 2229.18 2008.88 2229.18 Q2003.07 2229.18 1999.99 2224.6 Q1996.93 2219.99 1996.93 2211.26 Q1996.93 2202.51 1999.99 2197.93 Q2003.07 2193.32 2008.88 2193.32 Z" fill="#000000" fill-rule="nonzero" fill-opacity="1" /><path clip-path="url(#clip700)" d="M2650.91 2224.57 L2667.23 2224.57 L2667.23 2228.51 L2645.28 2228.51 L2645.28 2224.57 Q2647.94 2221.82 2652.53 2217.19 Q2657.13 2212.54 2658.31 2211.19 Q2660.56 2208.67 2661.44 2206.93 Q2662.34 2205.17 2662.34 2203.48 Q2662.34 2200.73 2660.4 2198.99 Q2658.48 2197.26 2655.37 2197.26 Q2653.17 2197.26 2650.72 2198.02 Q2648.29 2198.79 2645.51 2200.34 L2645.51 2195.61 Q2648.34 2194.48 2650.79 2193.9 Q2653.24 2193.32 2655.28 2193.32 Q2660.65 2193.32 2663.85 2196.01 Q2667.04 2198.69 2667.04 2203.18 Q2667.04 2205.31 2666.23 2207.23 Q2665.44 2209.13 2663.34 2211.73 Q2662.76 2212.4 2659.66 2215.61 Q2656.55 2218.81 2650.91 2224.57 Z" fill="#000000" fill-rule="nonzero" fill-opacity="1" /><path clip-path="url(#clip700)" d="M2691.21 2209.87 Q2694.56 2210.59 2696.44 2212.86 Q2698.34 2215.13 2698.34 2218.46 Q2698.34 2223.58 2694.82 2226.38 Q2691.3 2229.18 2684.82 2229.18 Q2682.64 2229.18 2680.33 2228.74 Q2678.04 2228.32 2675.58 2227.47 L2675.58 2222.95 Q2677.53 2224.09 2679.84 2224.67 Q2682.16 2225.24 2684.68 2225.24 Q2689.08 2225.24 2691.37 2223.51 Q2693.68 2221.77 2693.68 2218.46 Q2693.68 2215.41 2691.53 2213.69 Q2689.4 2211.96 2685.58 2211.96 L2681.55 2211.96 L2681.55 2208.11 L2685.77 2208.11 Q2689.22 2208.11 2691.04 2206.75 Q2692.87 2205.36 2692.87 2202.77 Q2692.87 2200.11 2690.97 2198.69 Q2689.1 2197.26 2685.58 2197.26 Q2683.66 2197.26 2681.46 2197.67 Q2679.26 2198.09 2676.62 2198.97 L2676.62 2194.8 Q2679.29 2194.06 2681.6 2193.69 Q2683.94 2193.32 2686 2193.32 Q2691.32 2193.32 2694.42 2195.75 Q2697.53 2198.16 2697.53 2202.28 Q2697.53 2205.15 2695.88 2207.14 Q2694.24 2209.11 2691.21 2209.87 Z" fill="#000000" fill-rule="nonzero" fill-opacity="1" /><path clip-path="url(#clip700)" d="M2707.2 2222.63 L2712.09 2222.63 L2712.09 2228.51 L2707.2 2228.51 L2707.2 2222.63 Z" fill="#000000" fill-rule="nonzero" fill-opacity="1" /><path clip-path="url(#clip700)" d="M2721.09 2193.95 L2743.31 2193.95 L2743.31 2195.94 L2730.77 2228.51 L2725.88 2228.51 L2737.69 2197.88 L2721.09 2197.88 L2721.09 2193.95 Z" fill="#000000" fill-rule="nonzero" fill-opacity="1" /><path clip-path="url(#clip700)" d="M2752.48 2193.95 L2770.84 2193.95 L2770.84 2197.88 L2756.76 2197.88 L2756.76 2206.36 Q2757.78 2206.01 2758.8 2205.85 Q2759.82 2205.66 2760.84 2205.66 Q2766.62 2205.66 2770 2208.83 Q2773.38 2212 2773.38 2217.42 Q2773.38 2223 2769.91 2226.1 Q2766.44 2229.18 2760.12 2229.18 Q2757.94 2229.18 2755.67 2228.81 Q2753.43 2228.44 2751.02 2227.7 L2751.02 2223 Q2753.1 2224.13 2755.33 2224.69 Q2757.55 2225.24 2760.03 2225.24 Q2764.03 2225.24 2766.37 2223.14 Q2768.71 2221.03 2768.71 2217.42 Q2768.71 2213.81 2766.37 2211.7 Q2764.03 2209.6 2760.03 2209.6 Q2758.15 2209.6 2756.28 2210.01 Q2754.42 2210.43 2752.48 2211.31 L2752.48 2193.95 Z" fill="#000000" fill-rule="nonzero" fill-opacity="1" /><path clip-path="url(#clip700)" d="M3403.47 2224.57 L3419.79 2224.57 L3419.79 2228.51 L3397.84 2228.51 L3397.84 2224.57 Q3400.5 2221.82 3405.09 2217.19 Q3409.69 2212.54 3410.87 2211.19 Q3413.12 2208.67 3414 2206.93 Q3414.9 2205.17 3414.9 2203.48 Q3414.9 2200.73 3412.96 2198.99 Q3411.04 2197.26 3407.93 2197.26 Q3405.73 2197.26 3403.28 2198.02 Q3400.85 2198.79 3398.07 2200.34 L3398.07 2195.61 Q3400.9 2194.48 3403.35 2193.9 Q3405.8 2193.32 3407.84 2193.32 Q3413.21 2193.32 3416.41 2196.01 Q3419.6 2198.69 3419.6 2203.18 Q3419.6 2205.31 3418.79 2207.23 Q3418 2209.13 3415.9 2211.73 Q3415.32 2212.4 3412.22 2215.61 Q3409.11 2218.81 3403.47 2224.57 Z" fill="#000000" fill-rule="nonzero" fill-opacity="1" /><path clip-path="url(#clip700)" d="M3442.45 2198.02 L3430.64 2216.47 L3442.45 2216.47 L3442.45 2198.02 M3441.22 2193.95 L3447.1 2193.95 L3447.1 2216.47 L3452.03 2216.47 L3452.03 2220.36 L3447.1 2220.36 L3447.1 2228.51 L3442.45 2228.51 L3442.45 2220.36 L3426.85 2220.36 L3426.85 2215.85 L3441.22 2193.95 Z" fill="#000000" fill-rule="nonzero" fill-opacity="1" /><path clip-path="url(#clip700)" d="M3459.76 2222.63 L3464.65 2222.63 L3464.65 2228.51 L3459.76 2228.51 L3459.76 2222.63 Z" fill="#000000" fill-rule="nonzero" fill-opacity="1" /><path clip-path="url(#clip700)" d="M3484.83 2197.03 Q3481.22 2197.03 3479.39 2200.59 Q3477.59 2204.13 3477.59 2211.26 Q3477.59 2218.37 3479.39 2221.93 Q3481.22 2225.48 3484.83 2225.48 Q3488.47 2225.48 3490.27 2221.93 Q3492.1 2218.37 3492.1 2211.26 Q3492.1 2204.13 3490.27 2200.59 Q3488.47 2197.03 3484.83 2197.03 M3484.83 2193.32 Q3490.64 2193.32 3493.7 2197.93 Q3496.78 2202.51 3496.78 2211.26 Q3496.78 2219.99 3493.7 2224.6 Q3490.64 2229.18 3484.83 2229.18 Q3479.02 2229.18 3475.94 2224.6 Q3472.89 2219.99 3472.89 2211.26 Q3472.89 2202.51 3475.94 2197.93 Q3479.02 2193.32 3484.83 2193.32 Z" fill="#000000" fill-rule="nonzero" fill-opacity="1" /><path clip-path="url(#clip700)" d="M3514.99 2197.03 Q3511.38 2197.03 3509.55 2200.59 Q3507.75 2204.13 3507.75 2211.26 Q3507.75 2218.37 3509.55 2221.93 Q3511.38 2225.48 3514.99 2225.48 Q3518.63 2225.48 3520.43 2221.93 Q3522.26 2218.37 3522.26 2211.26 Q3522.26 2204.13 3520.43 2200.59 Q3518.63 2197.03 3514.99 2197.03 M3514.99 2193.32 Q3520.8 2193.32 3523.86 2197.93 Q3526.94 2202.51 3526.94 2211.26 Q3526.94 2219.99 3523.86 2224.6 Q3520.8 2229.18 3514.99 2229.18 Q3509.18 2229.18 3506.1 2224.6 Q3503.05 2219.99 3503.05 2211.26 Q3503.05 2202.51 3506.1 2197.93 Q3509.18 2193.32 3514.99 2193.32 Z" fill="#000000" fill-rule="nonzero" fill-opacity="1" /><path clip-path="url(#clip700)" d="M1819.51 2270.99 L1825.36 2270.99 L1825.36 2314.19 L1819.51 2314.19 L1819.51 2270.99 Z" fill="#000000" fill-rule="nonzero" fill-opacity="1" /><path clip-path="url(#clip700)" d="M1842.02 2272.58 L1842.02 2281.78 L1852.99 2281.78 L1852.99 2285.92 L1842.02 2285.92 L1842.02 2303.51 Q1842.02 2307.47 1843.09 2308.6 Q1844.19 2309.73 1847.52 2309.73 L1852.99 2309.73 L1852.99 2314.19 L1847.52 2314.19 Q1841.36 2314.19 1839.01 2311.9 Q1836.67 2309.59 1836.67 2303.51 L1836.67 2285.92 L1832.76 2285.92 L1832.76 2281.78 L1836.67 2281.78 L1836.67 2272.58 L1842.02 2272.58 Z" fill="#000000" fill-rule="nonzero" fill-opacity="1" /><path clip-path="url(#clip700)" d="M1887.71 2296.65 L1887.71 2299.26 L1863.23 2299.26 Q1863.58 2304.75 1866.53 2307.65 Q1869.51 2310.51 1874.81 2310.51 Q1877.87 2310.51 1880.74 2309.76 Q1883.63 2309.01 1886.47 2307.5 L1886.47 2312.54 Q1883.6 2313.75 1880.59 2314.39 Q1877.58 2315.03 1874.49 2315.03 Q1866.73 2315.03 1862.19 2310.51 Q1857.68 2306 1857.68 2298.3 Q1857.68 2290.35 1861.96 2285.69 Q1866.27 2281 1873.56 2281 Q1880.1 2281 1883.89 2285.22 Q1887.71 2289.42 1887.71 2296.65 M1882.39 2295.09 Q1882.33 2290.72 1879.93 2288.12 Q1877.56 2285.51 1873.62 2285.51 Q1869.16 2285.51 1866.47 2288.03 Q1863.81 2290.55 1863.41 2295.12 L1882.39 2295.09 Z" fill="#000000" fill-rule="nonzero" fill-opacity="1" /><path clip-path="url(#clip700)" d="M1915.23 2286.76 Q1914.33 2286.24 1913.26 2286 Q1912.22 2285.74 1910.95 2285.74 Q1906.43 2285.74 1904 2288.7 Q1901.6 2291.62 1901.6 2297.12 L1901.6 2314.19 L1896.25 2314.19 L1896.25 2281.78 L1901.6 2281.78 L1901.6 2286.82 Q1903.28 2283.86 1905.97 2282.45 Q1908.66 2281 1912.51 2281 Q1913.06 2281 1913.72 2281.09 Q1914.39 2281.14 1915.2 2281.29 L1915.23 2286.76 Z" fill="#000000" fill-rule="nonzero" fill-opacity="1" /><path clip-path="url(#clip700)" d="M1935.54 2297.9 Q1929.09 2297.9 1926.6 2299.37 Q1924.11 2300.85 1924.11 2304.41 Q1924.11 2307.24 1925.96 2308.92 Q1927.85 2310.57 1931.06 2310.57 Q1935.48 2310.57 1938.15 2307.45 Q1940.84 2304.29 1940.84 2299.08 L1940.84 2297.9 L1935.54 2297.9 M1946.16 2295.7 L1946.16 2314.19 L1940.84 2314.19 L1940.84 2309.27 Q1939.01 2312.22 1936.29 2313.64 Q1933.57 2315.03 1929.64 2315.03 Q1924.66 2315.03 1921.71 2312.25 Q1918.79 2309.44 1918.79 2304.75 Q1918.79 2299.29 1922.43 2296.51 Q1926.11 2293.73 1933.37 2293.73 L1940.84 2293.73 L1940.84 2293.21 Q1940.84 2289.54 1938.41 2287.54 Q1936 2285.51 1931.64 2285.51 Q1928.86 2285.51 1926.22 2286.18 Q1923.59 2286.84 1921.16 2288.18 L1921.16 2283.26 Q1924.08 2282.13 1926.83 2281.58 Q1929.58 2281 1932.19 2281 Q1939.22 2281 1942.69 2284.65 Q1946.16 2288.29 1946.16 2295.7 Z" fill="#000000" fill-rule="nonzero" fill-opacity="1" /><path clip-path="url(#clip700)" d="M1962.39 2272.58 L1962.39 2281.78 L1973.36 2281.78 L1973.36 2285.92 L1962.39 2285.92 L1962.39 2303.51 Q1962.39 2307.47 1963.46 2308.6 Q1964.56 2309.73 1967.89 2309.73 L1973.36 2309.73 L1973.36 2314.19 L1967.89 2314.19 Q1961.73 2314.19 1959.38 2311.9 Q1957.04 2309.59 1957.04 2303.51 L1957.04 2285.92 L1953.13 2285.92 L1953.13 2281.78 L1957.04 2281.78 L1957.04 2272.58 L1962.39 2272.58 Z" fill="#000000" fill-rule="nonzero" fill-opacity="1" /><path clip-path="url(#clip700)" d="M1980.36 2281.78 L1985.69 2281.78 L1985.69 2314.19 L1980.36 2314.19 L1980.36 2281.78 M1980.36 2269.16 L1985.69 2269.16 L1985.69 2275.91 L1980.36 2275.91 L1980.36 2269.16 Z" fill="#000000" fill-rule="nonzero" fill-opacity="1" /><path clip-path="url(#clip700)" d="M2009.38 2285.51 Q2005.1 2285.51 2002.61 2288.87 Q2000.12 2292.2 2000.12 2298.01 Q2000.12 2303.83 2002.58 2307.19 Q2005.07 2310.51 2009.38 2310.51 Q2013.64 2310.51 2016.13 2307.16 Q2018.61 2303.8 2018.61 2298.01 Q2018.61 2292.25 2016.13 2288.9 Q2013.64 2285.51 2009.38 2285.51 M2009.38 2281 Q2016.33 2281 2020.29 2285.51 Q2024.26 2290.03 2024.26 2298.01 Q2024.26 2305.97 2020.29 2310.51 Q2016.33 2315.03 2009.38 2315.03 Q2002.41 2315.03 1998.45 2310.51 Q1994.51 2305.97 1994.51 2298.01 Q1994.51 2290.03 1998.45 2285.51 Q2002.41 2281 2009.38 2281 Z" fill="#000000" fill-rule="nonzero" fill-opacity="1" /><path clip-path="url(#clip700)" d="M2060.02 2294.63 L2060.02 2314.19 L2054.7 2314.19 L2054.7 2294.8 Q2054.7 2290.2 2052.9 2287.91 Q2051.11 2285.63 2047.52 2285.63 Q2043.21 2285.63 2040.72 2288.38 Q2038.23 2291.13 2038.23 2295.87 L2038.23 2314.19 L2032.88 2314.19 L2032.88 2281.78 L2038.23 2281.78 L2038.23 2286.82 Q2040.14 2283.89 2042.72 2282.45 Q2045.32 2281 2048.71 2281 Q2054.29 2281 2057.16 2284.47 Q2060.02 2287.91 2060.02 2294.63 Z" fill="#000000" fill-rule="nonzero" fill-opacity="1" /><path clip-path="url(#clip700)" d="M2091.3 2282.74 L2091.3 2287.77 Q2089.04 2286.61 2086.61 2286.03 Q2084.18 2285.46 2081.58 2285.46 Q2077.61 2285.46 2075.62 2286.67 Q2073.65 2287.89 2073.65 2290.32 Q2073.65 2292.17 2075.07 2293.24 Q2076.48 2294.28 2080.77 2295.24 L2082.59 2295.64 Q2088.26 2296.86 2090.63 2299.08 Q2093.04 2301.28 2093.04 2305.25 Q2093.04 2309.76 2089.45 2312.39 Q2085.89 2315.03 2079.64 2315.03 Q2077.03 2315.03 2074.2 2314.51 Q2071.39 2314.01 2068.27 2313 L2068.27 2307.5 Q2071.22 2309.04 2074.08 2309.82 Q2076.95 2310.57 2079.75 2310.57 Q2083.52 2310.57 2085.54 2309.3 Q2087.57 2308 2087.57 2305.65 Q2087.57 2303.48 2086.09 2302.32 Q2084.64 2301.17 2079.7 2300.1 L2077.84 2299.66 Q2072.9 2298.62 2070.7 2296.48 Q2068.5 2294.31 2068.5 2290.55 Q2068.5 2285.98 2071.74 2283.49 Q2074.98 2281 2080.94 2281 Q2083.89 2281 2086.5 2281.43 Q2089.1 2281.87 2091.3 2282.74 Z" fill="#000000" fill-rule="nonzero" fill-opacity="1" /><polyline clip-path="url(#clip700)" style="stroke:#000000; stroke-linecap:round; stroke-linejoin:round; stroke-width:4; stroke-opacity:1; fill:none" points="359.791,2156.51 359.791,246.944 "/>
<polyline clip-path="url(#clip700)" style="stroke:#000000; stroke-linecap:round; stroke-linejoin:round; stroke-width:4; stroke-opacity:1; fill:none" points="359.791,2155.66 378.689,2155.66 "/>
<polyline clip-path="url(#clip700)" style="stroke:#000000; stroke-linecap:round; stroke-linejoin:round; stroke-width:4; stroke-opacity:1; fill:none" points="359.791,1431.37 378.689,1431.37 "/>
<polyline clip-path="url(#clip700)" style="stroke:#000000; stroke-linecap:round; stroke-linejoin:round; stroke-width:4; stroke-opacity:1; fill:none" points="359.791,707.083 378.689,707.083 "/>
<path clip-path="url(#clip700)" d="M167.604 2175.45 L175.242 2175.45 L175.242 2149.08 L166.932 2150.75 L166.932 2146.49 L175.196 2144.82 L179.872 2144.82 L179.872 2175.45 L187.511 2175.45 L187.511 2179.38 L167.604 2179.38 L167.604 2175.45 Z" fill="#000000" fill-rule="nonzero" fill-opacity="1" /><path clip-path="url(#clip700)" d="M206.955 2147.9 Q203.344 2147.9 201.515 2151.47 Q199.71 2155.01 199.71 2162.14 Q199.71 2169.25 201.515 2172.81 Q203.344 2176.35 206.955 2176.35 Q210.589 2176.35 212.395 2172.81 Q214.224 2169.25 214.224 2162.14 Q214.224 2155.01 212.395 2151.47 Q210.589 2147.9 206.955 2147.9 M206.955 2144.2 Q212.765 2144.2 215.821 2148.81 Q218.9 2153.39 218.9 2162.14 Q218.9 2170.87 215.821 2175.47 Q212.765 2180.06 206.955 2180.06 Q201.145 2180.06 198.066 2175.47 Q195.011 2170.87 195.011 2162.14 Q195.011 2153.39 198.066 2148.81 Q201.145 2144.2 206.955 2144.2 Z" fill="#000000" fill-rule="nonzero" fill-opacity="1" /><path clip-path="url(#clip700)" d="M218.9 2138.3 L243.011 2138.3 L243.011 2141.5 L218.9 2141.5 L218.9 2138.3 Z" fill="#000000" fill-rule="nonzero" fill-opacity="1" /><path clip-path="url(#clip700)" d="M251.87 2148.78 L258.076 2148.78 L258.076 2127.35 L251.324 2128.71 L251.324 2125.25 L258.039 2123.89 L261.838 2123.89 L261.838 2148.78 L268.044 2148.78 L268.044 2151.97 L251.87 2151.97 L251.87 2148.78 Z" fill="#000000" fill-rule="nonzero" fill-opacity="1" /><path clip-path="url(#clip700)" d="M275.718 2147.2 L279.686 2147.2 L279.686 2151.97 L275.718 2151.97 L275.718 2147.2 Z" fill="#000000" fill-rule="nonzero" fill-opacity="1" /><path clip-path="url(#clip700)" d="M296.087 2126.4 Q293.153 2126.4 291.667 2129.29 Q290.2 2132.17 290.2 2137.96 Q290.2 2143.74 291.667 2146.63 Q293.153 2149.51 296.087 2149.51 Q299.04 2149.51 300.507 2146.63 Q301.992 2143.74 301.992 2137.96 Q301.992 2132.17 300.507 2129.29 Q299.04 2126.4 296.087 2126.4 M296.087 2123.39 Q300.807 2123.39 303.29 2127.13 Q305.791 2130.85 305.791 2137.96 Q305.791 2145.05 303.29 2148.8 Q300.807 2152.52 296.087 2152.52 Q291.366 2152.52 288.865 2148.8 Q286.382 2145.05 286.382 2137.96 Q286.382 2130.85 288.865 2127.13 Q291.366 2123.39 296.087 2123.39 Z" fill="#000000" fill-rule="nonzero" fill-opacity="1" /><path clip-path="url(#clip700)" d="M168.412 1451.16 L176.051 1451.16 L176.051 1424.8 L167.741 1426.46 L167.741 1422.2 L176.005 1420.54 L180.681 1420.54 L180.681 1451.16 L188.32 1451.16 L188.32 1455.1 L168.412 1455.1 L168.412 1451.16 Z" fill="#000000" fill-rule="nonzero" fill-opacity="1" /><path clip-path="url(#clip700)" d="M207.764 1423.62 Q204.153 1423.62 202.324 1427.18 Q200.519 1430.72 200.519 1437.85 Q200.519 1444.96 202.324 1448.52 Q204.153 1452.07 207.764 1452.07 Q211.398 1452.07 213.204 1448.52 Q215.032 1444.96 215.032 1437.85 Q215.032 1430.72 213.204 1427.18 Q211.398 1423.62 207.764 1423.62 M207.764 1419.91 Q213.574 1419.91 216.63 1424.52 Q219.708 1429.1 219.708 1437.85 Q219.708 1446.58 216.63 1451.19 Q213.574 1455.77 207.764 1455.77 Q201.954 1455.77 198.875 1451.19 Q195.82 1446.58 195.82 1437.85 Q195.82 1429.1 198.875 1424.52 Q201.954 1419.91 207.764 1419.91 Z" fill="#000000" fill-rule="nonzero" fill-opacity="1" /><path clip-path="url(#clip700)" d="M219.708 1414.01 L243.82 1414.01 L243.82 1417.21 L219.708 1417.21 L219.708 1414.01 Z" fill="#000000" fill-rule="nonzero" fill-opacity="1" /><path clip-path="url(#clip700)" d="M260.145 1402.11 Q257.211 1402.11 255.725 1405 Q254.258 1407.88 254.258 1413.68 Q254.258 1419.45 255.725 1422.35 Q257.211 1425.22 260.145 1425.22 Q263.098 1425.22 264.565 1422.35 Q266.051 1419.45 266.051 1413.68 Q266.051 1407.88 264.565 1405 Q263.098 1402.11 260.145 1402.11 M260.145 1399.1 Q264.866 1399.1 267.348 1402.84 Q269.85 1406.57 269.85 1413.68 Q269.85 1420.77 267.348 1424.51 Q264.866 1428.23 260.145 1428.23 Q255.424 1428.23 252.923 1424.51 Q250.44 1420.77 250.44 1413.68 Q250.44 1406.57 252.923 1402.84 Q255.424 1399.1 260.145 1399.1 Z" fill="#000000" fill-rule="nonzero" fill-opacity="1" /><path clip-path="url(#clip700)" d="M276.527 1422.91 L280.495 1422.91 L280.495 1427.69 L276.527 1427.69 L276.527 1422.91 Z" fill="#000000" fill-rule="nonzero" fill-opacity="1" /><path clip-path="url(#clip700)" d="M288.808 1399.61 L303.723 1399.61 L303.723 1402.8 L292.288 1402.8 L292.288 1409.69 Q293.115 1409.41 293.943 1409.27 Q294.77 1409.12 295.598 1409.12 Q300.3 1409.12 303.046 1411.7 Q305.791 1414.28 305.791 1418.68 Q305.791 1423.21 302.97 1425.73 Q300.149 1428.23 295.015 1428.23 Q293.247 1428.23 291.404 1427.93 Q289.579 1427.63 287.623 1427.03 L287.623 1423.21 Q289.316 1424.13 291.121 1424.58 Q292.927 1425.04 294.939 1425.04 Q298.193 1425.04 300.093 1423.32 Q301.992 1421.61 301.992 1418.68 Q301.992 1415.74 300.093 1414.03 Q298.193 1412.32 294.939 1412.32 Q293.416 1412.32 291.893 1412.66 Q290.388 1413 288.808 1413.71 L288.808 1399.61 Z" fill="#000000" fill-rule="nonzero" fill-opacity="1" /><path clip-path="url(#clip700)" d="M198.335 726.875 L205.974 726.875 L205.974 700.51 L197.664 702.176 L197.664 697.917 L205.928 696.25 L210.604 696.25 L210.604 726.875 L218.243 726.875 L218.243 730.81 L198.335 730.81 L198.335 726.875 Z" fill="#000000" fill-rule="nonzero" fill-opacity="1" /><path clip-path="url(#clip700)" d="M237.687 699.329 Q234.076 699.329 232.247 702.894 Q230.442 706.436 230.442 713.565 Q230.442 720.672 232.247 724.236 Q234.076 727.778 237.687 727.778 Q241.321 727.778 243.127 724.236 Q244.956 720.672 244.956 713.565 Q244.956 706.436 243.127 702.894 Q241.321 699.329 237.687 699.329 M237.687 695.625 Q243.497 695.625 246.553 700.232 Q249.631 704.815 249.631 713.565 Q249.631 722.292 246.553 726.898 Q243.497 731.482 237.687 731.482 Q231.877 731.482 228.798 726.898 Q225.743 722.292 225.743 713.565 Q225.743 704.815 228.798 700.232 Q231.877 695.625 237.687 695.625 Z" fill="#000000" fill-rule="nonzero" fill-opacity="1" /><path clip-path="url(#clip700)" d="M259.336 677.821 Q256.402 677.821 254.916 680.718 Q253.449 683.595 253.449 689.388 Q253.449 695.162 254.916 698.059 Q256.402 700.936 259.336 700.936 Q262.289 700.936 263.756 698.059 Q265.242 695.162 265.242 689.388 Q265.242 683.595 263.756 680.718 Q262.289 677.821 259.336 677.821 M259.336 674.812 Q264.057 674.812 266.54 678.555 Q269.041 682.279 269.041 689.388 Q269.041 696.479 266.54 700.222 Q264.057 703.945 259.336 703.945 Q254.616 703.945 252.114 700.222 Q249.631 696.479 249.631 689.388 Q249.631 682.279 252.114 678.555 Q254.616 674.812 259.336 674.812 Z" fill="#000000" fill-rule="nonzero" fill-opacity="1" /><path clip-path="url(#clip700)" d="M275.718 698.623 L279.686 698.623 L279.686 703.4 L275.718 703.4 L275.718 698.623 Z" fill="#000000" fill-rule="nonzero" fill-opacity="1" /><path clip-path="url(#clip700)" d="M296.087 677.821 Q293.153 677.821 291.667 680.718 Q290.2 683.595 290.2 689.388 Q290.2 695.162 291.667 698.059 Q293.153 700.936 296.087 700.936 Q299.04 700.936 300.507 698.059 Q301.992 695.162 301.992 689.388 Q301.992 683.595 300.507 680.718 Q299.04 677.821 296.087 677.821 M296.087 674.812 Q300.807 674.812 303.29 678.555 Q305.791 682.279 305.791 689.388 Q305.791 696.479 303.29 700.222 Q300.807 703.945 296.087 703.945 Q291.366 703.945 288.865 700.222 Q286.382 696.479 286.382 689.388 Q286.382 682.279 288.865 678.555 Q291.366 674.812 296.087 674.812 Z" fill="#000000" fill-rule="nonzero" fill-opacity="1" /><path clip-path="url(#clip700)" d="M60.0998 1347.25 L66.263 1347.25 Q63.5141 1350.21 62.1542 1353.56 Q60.7943 1356.89 60.7943 1360.65 Q60.7943 1368.06 65.3371 1371.99 Q69.8509 1375.93 78.4157 1375.93 Q86.9515 1375.93 91.4943 1371.99 Q96.0082 1368.06 96.0082 1360.65 Q96.0082 1356.89 94.6482 1353.56 Q93.2883 1350.21 90.5395 1347.25 L96.6448 1347.25 Q98.7281 1350.32 99.7697 1353.77 Q100.811 1357.18 100.811 1361 Q100.811 1370.81 94.8218 1376.45 Q88.8034 1382.09 78.4157 1382.09 Q67.9991 1382.09 62.0095 1376.45 Q55.991 1370.81 55.991 1361 Q55.991 1357.12 57.0327 1353.71 Q58.0454 1350.26 60.0998 1347.25 Z" fill="#000000" fill-rule="nonzero" fill-opacity="1" /><path clip-path="url(#clip700)" d="M61.5755 1332.38 L77.8081 1332.38 L77.8081 1325.03 Q77.8081 1320.95 75.6958 1318.72 Q73.5835 1316.5 69.6773 1316.5 Q65.8 1316.5 63.6878 1318.72 Q61.5755 1320.95 61.5755 1325.03 L61.5755 1332.38 M56.7723 1338.23 L56.7723 1325.03 Q56.7723 1317.77 60.0709 1314.07 Q63.3405 1310.33 69.6773 1310.33 Q76.0719 1310.33 79.3416 1314.07 Q82.6113 1317.77 82.6113 1325.03 L82.6113 1332.38 L99.9723 1332.38 L99.9723 1338.23 L56.7723 1338.23 Z" fill="#000000" fill-rule="nonzero" fill-opacity="1" /><path clip-path="url(#clip700)" d="M56.7723 1303.16 L56.7723 1297.28 L83.0164 1297.28 Q89.9608 1297.28 93.0279 1294.77 Q96.0661 1292.25 96.0661 1286.61 Q96.0661 1280.99 93.0279 1278.48 Q89.9608 1275.96 83.0164 1275.96 L56.7723 1275.96 L56.7723 1270.08 L83.7397 1270.08 Q92.1888 1270.08 96.5001 1274.28 Q100.811 1278.45 100.811 1286.61 Q100.811 1294.8 96.5001 1298.99 Q92.1888 1303.16 83.7397 1303.16 L56.7723 1303.16 Z" fill="#000000" fill-rule="nonzero" fill-opacity="1" /><path clip-path="url(#clip700)" d="M58.3637 1235.25 L67.565 1235.25 L67.565 1224.28 L71.7028 1224.28 L71.7028 1235.25 L89.2953 1235.25 Q93.2594 1235.25 94.3878 1234.18 Q95.5163 1233.08 95.5163 1229.75 L95.5163 1224.28 L99.9723 1224.28 L99.9723 1229.75 Q99.9723 1235.91 97.6864 1238.26 Q95.3716 1240.6 89.2953 1240.6 L71.7028 1240.6 L71.7028 1244.51 L67.565 1244.51 L67.565 1240.6 L58.3637 1240.6 L58.3637 1235.25 Z" fill="#000000" fill-rule="nonzero" fill-opacity="1" /><path clip-path="url(#clip700)" d="M67.565 1217.28 L67.565 1211.95 L99.9723 1211.95 L99.9723 1217.28 L67.565 1217.28 M54.9494 1217.28 L54.9494 1211.95 L61.6912 1211.95 L61.6912 1217.28 L54.9494 1217.28 Z" fill="#000000" fill-rule="nonzero" fill-opacity="1" /><path clip-path="url(#clip700)" d="M73.7861 1175.58 Q70.1981 1173.59 68.491 1170.81 Q66.7838 1168.03 66.7838 1164.27 Q66.7838 1159.21 70.3428 1156.46 Q73.8729 1153.71 80.4122 1153.71 L99.9723 1153.71 L99.9723 1159.06 L80.5858 1159.06 Q75.9273 1159.06 73.6703 1160.71 Q71.4134 1162.36 71.4134 1165.75 Q71.4134 1169.88 74.1622 1172.28 Q76.9111 1174.69 81.6564 1174.69 L99.9723 1174.69 L99.9723 1180.04 L80.5858 1180.04 Q75.8983 1180.04 73.6703 1181.69 Q71.4134 1183.34 71.4134 1186.78 Q71.4134 1190.86 74.1912 1193.26 Q76.94 1195.66 81.6564 1195.66 L99.9723 1195.66 L99.9723 1201.02 L67.565 1201.02 L67.565 1195.66 L72.5997 1195.66 Q69.6194 1193.84 68.2016 1191.29 Q66.7838 1188.75 66.7838 1185.25 Q66.7838 1181.72 68.5778 1179.26 Q70.3717 1176.77 73.7861 1175.58 Z" fill="#000000" fill-rule="nonzero" fill-opacity="1" /><path clip-path="url(#clip700)" d="M82.4377 1115.37 L85.0418 1115.37 L85.0418 1139.85 Q90.5395 1139.5 93.433 1136.55 Q96.2975 1133.57 96.2975 1128.27 Q96.2975 1125.21 95.5452 1122.34 Q94.7929 1119.45 93.2883 1116.61 L98.323 1116.61 Q99.5383 1119.48 100.175 1122.49 Q100.811 1125.5 100.811 1128.59 Q100.811 1136.35 96.2975 1140.89 Q91.7837 1145.4 84.087 1145.4 Q76.1298 1145.4 71.4713 1141.12 Q66.7838 1136.81 66.7838 1129.52 Q66.7838 1122.98 71.0083 1119.19 Q75.2039 1115.37 82.4377 1115.37 M80.8752 1120.69 Q76.506 1120.75 73.9018 1123.15 Q71.2977 1125.53 71.2977 1129.46 Q71.2977 1133.92 73.815 1136.61 Q76.3324 1139.27 80.9041 1139.67 L80.8752 1120.69 Z" fill="#000000" fill-rule="nonzero" fill-opacity="1" /><path clip-path="url(#clip700)" d="M55.0072 1075.01 Q61.6623 1078.88 68.1727 1080.76 Q74.6831 1082.64 81.3671 1082.64 Q88.0511 1082.64 94.6193 1080.76 Q101.159 1078.85 107.785 1075.01 L107.785 1079.63 Q100.985 1083.97 94.4168 1086.15 Q87.8485 1088.29 81.3671 1088.29 Q74.9145 1088.29 68.3752 1086.15 Q61.8359 1084 55.0072 1079.63 L55.0072 1075.01 Z" fill="#000000" fill-rule="nonzero" fill-opacity="1" /><path clip-path="url(#clip700)" d="M68.5199 1044.02 L73.5546 1044.02 Q72.3972 1046.27 71.8185 1048.7 Q71.2398 1051.13 71.2398 1053.74 Q71.2398 1057.7 72.4551 1059.7 Q73.6703 1061.67 76.1009 1061.67 Q77.9527 1061.67 79.0233 1060.25 Q80.065 1058.83 81.0198 1054.55 L81.4249 1052.73 Q82.6402 1047.05 84.8682 1044.68 Q87.0673 1042.28 91.0314 1042.28 Q95.5452 1042.28 98.1783 1045.87 Q100.811 1049.43 100.811 1055.68 Q100.811 1058.28 100.291 1061.12 Q99.7987 1063.92 98.7859 1067.05 L93.2883 1067.05 Q94.8218 1064.1 95.6031 1061.23 Q96.3554 1058.37 96.3554 1055.56 Q96.3554 1051.8 95.0823 1049.77 Q93.7802 1047.75 91.4364 1047.75 Q89.2663 1047.75 88.1089 1049.22 Q86.9515 1050.67 85.8809 1055.62 L85.4469 1057.47 Q84.4052 1062.42 82.264 1064.62 Q80.0939 1066.82 76.3324 1066.82 Q71.7606 1066.82 69.2722 1063.58 Q66.7838 1060.33 66.7838 1054.37 Q66.7838 1051.42 67.2178 1048.82 Q67.6519 1046.21 68.5199 1044.02 Z" fill="#000000" fill-rule="nonzero" fill-opacity="1" /><path clip-path="url(#clip700)" d="M55.0072 1034.64 L55.0072 1030.01 Q61.8359 1025.67 68.3752 1023.53 Q74.9145 1021.36 81.3671 1021.36 Q87.8485 1021.36 94.4168 1023.53 Q100.985 1025.67 107.785 1030.01 L107.785 1034.64 Q101.159 1030.79 94.6193 1028.91 Q88.0511 1027 81.3671 1027 Q74.6831 1027 68.1727 1028.91 Q61.6623 1030.79 55.0072 1034.64 Z" fill="#000000" fill-rule="nonzero" fill-opacity="1" /><path clip-path="url(#clip700)" d="M1277.63 123.984 L1285.81 123.984 L1285.81 184.464 L1277.63 184.464 L1277.63 123.984 Z" fill="#000000" fill-rule="nonzero" fill-opacity="1" /><path clip-path="url(#clip700)" d="M1309.14 126.212 L1309.14 139.094 L1324.49 139.094 L1324.49 144.887 L1309.14 144.887 L1309.14 169.516 Q1309.14 175.066 1310.64 176.646 Q1312.18 178.226 1316.84 178.226 L1324.49 178.226 L1324.49 184.464 L1316.84 184.464 Q1308.21 184.464 1304.93 181.264 Q1301.65 178.023 1301.65 169.516 L1301.65 144.887 L1296.18 144.887 L1296.18 139.094 L1301.65 139.094 L1301.65 126.212 L1309.14 126.212 Z" fill="#000000" fill-rule="nonzero" fill-opacity="1" /><path clip-path="url(#clip700)" d="M1373.11 159.916 L1373.11 163.561 L1338.83 163.561 Q1339.32 171.258 1343.45 175.309 Q1347.63 179.319 1355.04 179.319 Q1359.33 179.319 1363.34 178.266 Q1367.39 177.213 1371.36 175.106 L1371.36 182.155 Q1367.35 183.856 1363.14 184.748 Q1358.93 185.639 1354.59 185.639 Q1343.74 185.639 1337.38 179.319 Q1331.06 173 1331.06 162.225 Q1331.06 151.085 1337.05 144.563 Q1343.09 138 1353.3 138 Q1362.45 138 1367.76 143.914 Q1373.11 149.788 1373.11 159.916 M1365.65 157.728 Q1365.57 151.611 1362.21 147.965 Q1358.89 144.32 1353.38 144.32 Q1347.14 144.32 1343.37 147.844 Q1339.65 151.368 1339.08 157.769 L1365.65 157.728 Z" fill="#000000" fill-rule="nonzero" fill-opacity="1" /><path clip-path="url(#clip700)" d="M1411.63 146.061 Q1410.37 145.332 1408.88 145.008 Q1407.42 144.644 1405.63 144.644 Q1399.31 144.644 1395.91 148.776 Q1392.55 152.867 1392.55 160.564 L1392.55 184.464 L1385.06 184.464 L1385.06 139.094 L1392.55 139.094 L1392.55 146.142 Q1394.9 142.011 1398.67 140.026 Q1402.43 138 1407.82 138 Q1408.59 138 1409.52 138.122 Q1410.45 138.203 1411.59 138.405 L1411.63 146.061 Z" fill="#000000" fill-rule="nonzero" fill-opacity="1" /><path clip-path="url(#clip700)" d="M1440.07 161.657 Q1431.03 161.657 1427.55 163.723 Q1424.07 165.789 1424.07 170.772 Q1424.07 174.742 1426.66 177.091 Q1429.29 179.4 1433.79 179.4 Q1439.99 179.4 1443.71 175.025 Q1447.48 170.61 1447.48 163.318 L1447.48 161.657 L1440.07 161.657 M1454.93 158.579 L1454.93 184.464 L1447.48 184.464 L1447.48 177.577 Q1444.93 181.709 1441.12 183.694 Q1437.31 185.639 1431.8 185.639 Q1424.84 185.639 1420.7 181.75 Q1416.61 177.821 1416.61 171.258 Q1416.61 163.602 1421.72 159.713 Q1426.86 155.824 1437.03 155.824 L1447.48 155.824 L1447.48 155.095 Q1447.48 149.95 1444.08 147.155 Q1440.72 144.32 1434.6 144.32 Q1430.71 144.32 1427.02 145.251 Q1423.34 146.183 1419.93 148.046 L1419.93 141.16 Q1424.03 139.58 1427.87 138.81 Q1431.72 138 1435.37 138 Q1445.21 138 1450.07 143.104 Q1454.93 148.208 1454.93 158.579 Z" fill="#000000" fill-rule="nonzero" fill-opacity="1" /><path clip-path="url(#clip700)" d="M1477.66 126.212 L1477.66 139.094 L1493.01 139.094 L1493.01 144.887 L1477.66 144.887 L1477.66 169.516 Q1477.66 175.066 1479.16 176.646 Q1480.7 178.226 1485.36 178.226 L1493.01 178.226 L1493.01 184.464 L1485.36 184.464 Q1476.73 184.464 1473.45 181.264 Q1470.17 178.023 1470.17 169.516 L1470.17 144.887 L1464.7 144.887 L1464.7 139.094 L1470.17 139.094 L1470.17 126.212 L1477.66 126.212 Z" fill="#000000" fill-rule="nonzero" fill-opacity="1" /><path clip-path="url(#clip700)" d="M1502.82 139.094 L1510.27 139.094 L1510.27 184.464 L1502.82 184.464 L1502.82 139.094 M1502.82 121.432 L1510.27 121.432 L1510.27 130.871 L1502.82 130.871 L1502.82 121.432 Z" fill="#000000" fill-rule="nonzero" fill-opacity="1" /><path clip-path="url(#clip700)" d="M1543.45 144.32 Q1537.45 144.32 1533.97 149.019 Q1530.48 153.677 1530.48 161.819 Q1530.48 169.962 1533.93 174.661 Q1537.41 179.319 1543.45 179.319 Q1549.4 179.319 1552.88 174.62 Q1556.37 169.921 1556.37 161.819 Q1556.37 153.758 1552.88 149.059 Q1549.4 144.32 1543.45 144.32 M1543.45 138 Q1553.17 138 1558.72 144.32 Q1564.27 150.639 1564.27 161.819 Q1564.27 172.959 1558.72 179.319 Q1553.17 185.639 1543.45 185.639 Q1533.68 185.639 1528.13 179.319 Q1522.62 172.959 1522.62 161.819 Q1522.62 150.639 1528.13 144.32 Q1533.68 138 1543.45 138 Z" fill="#000000" fill-rule="nonzero" fill-opacity="1" /><path clip-path="url(#clip700)" d="M1614.34 157.08 L1614.34 184.464 L1606.88 184.464 L1606.88 157.323 Q1606.88 150.882 1604.37 147.682 Q1601.86 144.482 1596.84 144.482 Q1590.8 144.482 1587.32 148.33 Q1583.83 152.178 1583.83 158.822 L1583.83 184.464 L1576.34 184.464 L1576.34 139.094 L1583.83 139.094 L1583.83 146.142 Q1586.51 142.051 1590.11 140.026 Q1593.76 138 1598.5 138 Q1606.32 138 1610.33 142.861 Q1614.34 147.682 1614.34 157.08 Z" fill="#000000" fill-rule="nonzero" fill-opacity="1" /><path clip-path="url(#clip700)" d="M1658.13 140.431 L1658.13 147.479 Q1654.97 145.859 1651.56 145.049 Q1648.16 144.239 1644.52 144.239 Q1638.97 144.239 1636.17 145.94 Q1633.42 147.641 1633.42 151.044 Q1633.42 153.637 1635.4 155.135 Q1637.39 156.594 1643.38 157.931 L1645.93 158.498 Q1653.87 160.199 1657.2 163.318 Q1660.56 166.397 1660.56 171.947 Q1660.56 178.266 1655.53 181.952 Q1650.55 185.639 1641.8 185.639 Q1638.16 185.639 1634.19 184.91 Q1630.26 184.221 1625.88 182.803 L1625.88 175.106 Q1630.01 177.253 1634.02 178.347 Q1638.03 179.4 1641.96 179.4 Q1647.23 179.4 1650.07 177.618 Q1652.9 175.795 1652.9 172.514 Q1652.9 169.476 1650.84 167.855 Q1648.81 166.235 1641.88 164.736 L1639.29 164.128 Q1632.36 162.67 1629.28 159.672 Q1626.21 156.634 1626.21 151.368 Q1626.21 144.968 1630.74 141.484 Q1635.28 138 1643.62 138 Q1647.76 138 1651.4 138.608 Q1655.05 139.215 1658.13 140.431 Z" fill="#000000" fill-rule="nonzero" fill-opacity="1" /><path clip-path="url(#clip700)" d="M1693.45 139.094 L1701.35 139.094 L1715.53 177.172 L1729.71 139.094 L1737.61 139.094 L1720.59 184.464 L1710.46 184.464 L1693.45 139.094 Z" fill="#000000" fill-rule="nonzero" fill-opacity="1" /><path clip-path="url(#clip700)" d="M1776.82 140.431 L1776.82 147.479 Q1773.66 145.859 1770.26 145.049 Q1766.85 144.239 1763.21 144.239 Q1757.66 144.239 1754.86 145.94 Q1752.11 147.641 1752.11 151.044 Q1752.11 153.637 1754.09 155.135 Q1756.08 156.594 1762.07 157.931 L1764.63 158.498 Q1772.57 160.199 1775.89 163.318 Q1779.25 166.397 1779.25 171.947 Q1779.25 178.266 1774.23 181.952 Q1769.24 185.639 1760.49 185.639 Q1756.85 185.639 1752.88 184.91 Q1748.95 184.221 1744.57 182.803 L1744.57 175.106 Q1748.71 177.253 1752.72 178.347 Q1756.73 179.4 1760.66 179.4 Q1765.92 179.4 1768.76 177.618 Q1771.59 175.795 1771.59 172.514 Q1771.59 169.476 1769.53 167.855 Q1767.5 166.235 1760.57 164.736 L1757.98 164.128 Q1751.05 162.67 1747.98 159.672 Q1744.9 156.634 1744.9 151.368 Q1744.9 144.968 1749.43 141.484 Q1753.97 138 1762.32 138 Q1766.45 138 1770.09 138.608 Q1773.74 139.215 1776.82 140.431 Z" fill="#000000" fill-rule="nonzero" fill-opacity="1" /><path clip-path="url(#clip700)" d="M1863.1 128.643 L1863.1 137.271 Q1858.97 133.423 1854.27 131.519 Q1849.61 129.615 1844.35 129.615 Q1833.98 129.615 1828.47 135.975 Q1822.96 142.294 1822.96 154.285 Q1822.96 166.235 1828.47 172.595 Q1833.98 178.914 1844.35 178.914 Q1849.61 178.914 1854.27 177.01 Q1858.97 175.106 1863.1 171.258 L1863.1 179.805 Q1858.81 182.722 1853.99 184.18 Q1849.21 185.639 1843.86 185.639 Q1830.13 185.639 1822.23 177.253 Q1814.33 168.828 1814.33 154.285 Q1814.33 139.702 1822.23 131.316 Q1830.13 122.89 1843.86 122.89 Q1849.29 122.89 1854.07 124.349 Q1858.89 125.766 1863.1 128.643 Z" fill="#000000" fill-rule="nonzero" fill-opacity="1" /><path clip-path="url(#clip700)" d="M1883.92 130.709 L1883.92 153.434 L1894.21 153.434 Q1899.93 153.434 1903.04 150.477 Q1906.16 147.52 1906.16 142.051 Q1906.16 136.623 1903.04 133.666 Q1899.93 130.709 1894.21 130.709 L1883.92 130.709 M1875.74 123.984 L1894.21 123.984 Q1904.38 123.984 1909.57 128.602 Q1914.79 133.18 1914.79 142.051 Q1914.79 151.004 1909.57 155.581 Q1904.38 160.159 1894.21 160.159 L1883.92 160.159 L1883.92 184.464 L1875.74 184.464 L1875.74 123.984 Z" fill="#000000" fill-rule="nonzero" fill-opacity="1" /><path clip-path="url(#clip700)" d="M1924.84 123.984 L1933.06 123.984 L1933.06 160.726 Q1933.06 170.448 1936.59 174.742 Q1940.11 178.995 1948.01 178.995 Q1955.87 178.995 1959.39 174.742 Q1962.92 170.448 1962.92 160.726 L1962.92 123.984 L1971.14 123.984 L1971.14 161.738 Q1971.14 173.567 1965.27 179.603 Q1959.43 185.639 1948.01 185.639 Q1936.55 185.639 1930.67 179.603 Q1924.84 173.567 1924.84 161.738 L1924.84 123.984 Z" fill="#000000" fill-rule="nonzero" fill-opacity="1" /><path clip-path="url(#clip700)" d="M2019.91 126.212 L2019.91 139.094 L2035.27 139.094 L2035.27 144.887 L2019.91 144.887 L2019.91 169.516 Q2019.91 175.066 2021.41 176.646 Q2022.95 178.226 2027.61 178.226 L2035.27 178.226 L2035.27 184.464 L2027.61 184.464 Q2018.98 184.464 2015.7 181.264 Q2012.42 178.023 2012.42 169.516 L2012.42 144.887 L2006.95 144.887 L2006.95 139.094 L2012.42 139.094 L2012.42 126.212 L2019.91 126.212 Z" fill="#000000" fill-rule="nonzero" fill-opacity="1" /><path clip-path="url(#clip700)" d="M2045.07 139.094 L2052.52 139.094 L2052.52 184.464 L2045.07 184.464 L2045.07 139.094 M2045.07 121.432 L2052.52 121.432 L2052.52 130.871 L2045.07 130.871 L2045.07 121.432 Z" fill="#000000" fill-rule="nonzero" fill-opacity="1" /><path clip-path="url(#clip700)" d="M2103.44 147.803 Q2106.24 142.78 2110.13 140.39 Q2114.02 138 2119.28 138 Q2126.37 138 2130.22 142.983 Q2134.07 147.925 2134.07 157.08 L2134.07 184.464 L2126.57 184.464 L2126.57 157.323 Q2126.57 150.801 2124.26 147.641 Q2121.96 144.482 2117.22 144.482 Q2111.42 144.482 2108.06 148.33 Q2104.7 152.178 2104.7 158.822 L2104.7 184.464 L2097.2 184.464 L2097.2 157.323 Q2097.2 150.76 2094.9 147.641 Q2092.59 144.482 2087.77 144.482 Q2082.05 144.482 2078.69 148.37 Q2075.33 152.219 2075.33 158.822 L2075.33 184.464 L2067.84 184.464 L2067.84 139.094 L2075.33 139.094 L2075.33 146.142 Q2077.88 141.97 2081.45 139.985 Q2085.01 138 2089.91 138 Q2094.86 138 2098.3 140.512 Q2101.78 143.023 2103.44 147.803 Z" fill="#000000" fill-rule="nonzero" fill-opacity="1" /><path clip-path="url(#clip700)" d="M2187.74 159.916 L2187.74 163.561 L2153.47 163.561 Q2153.96 171.258 2158.09 175.309 Q2162.26 179.319 2169.68 179.319 Q2173.97 179.319 2177.98 178.266 Q2182.03 177.213 2186 175.106 L2186 182.155 Q2181.99 183.856 2177.78 184.748 Q2173.56 185.639 2169.23 185.639 Q2158.37 185.639 2152.01 179.319 Q2145.69 173 2145.69 162.225 Q2145.69 151.085 2151.69 144.563 Q2157.73 138 2167.93 138 Q2177.09 138 2182.4 143.914 Q2187.74 149.788 2187.74 159.916 M2180.29 157.728 Q2180.21 151.611 2176.85 147.965 Q2173.52 144.32 2168.01 144.32 Q2161.78 144.32 2158.01 147.844 Q2154.28 151.368 2153.71 157.769 L2180.29 157.728 Z" fill="#000000" fill-rule="nonzero" fill-opacity="1" /><path clip-path="url(#clip700)" d="M2222.58 158.822 L2297.44 158.822 L2297.44 164.655 L2222.58 164.655 L2222.58 158.822 Z" fill="#000000" fill-rule="nonzero" fill-opacity="1" /><path clip-path="url(#clip700)" d="M2335.68 139.094 L2343.14 139.094 L2343.14 185.274 Q2343.14 193.943 2339.81 197.832 Q2336.53 201.721 2329.2 201.721 L2326.36 201.721 L2326.36 195.401 L2328.35 195.401 Q2332.6 195.401 2334.14 193.416 Q2335.68 191.472 2335.68 185.274 L2335.68 139.094 M2335.68 121.432 L2343.14 121.432 L2343.14 130.871 L2335.68 130.871 L2335.68 121.432 Z" fill="#000000" fill-rule="nonzero" fill-opacity="1" /><path clip-path="url(#clip700)" d="M2379.35 161.657 Q2370.32 161.657 2366.83 163.723 Q2363.35 165.789 2363.35 170.772 Q2363.35 174.742 2365.94 177.091 Q2368.57 179.4 2373.07 179.4 Q2379.27 179.4 2383 175.025 Q2386.76 170.61 2386.76 163.318 L2386.76 161.657 L2379.35 161.657 M2394.22 158.579 L2394.22 184.464 L2386.76 184.464 L2386.76 177.577 Q2384.21 181.709 2380.4 183.694 Q2376.6 185.639 2371.09 185.639 Q2364.12 185.639 2359.99 181.75 Q2355.9 177.821 2355.9 171.258 Q2355.9 163.602 2361 159.713 Q2366.14 155.824 2376.31 155.824 L2386.76 155.824 L2386.76 155.095 Q2386.76 149.95 2383.36 147.155 Q2380 144.32 2373.88 144.32 Q2369.99 144.32 2366.31 145.251 Q2362.62 146.183 2359.22 148.046 L2359.22 141.16 Q2363.31 139.58 2367.16 138.81 Q2371.01 138 2374.65 138 Q2384.49 138 2389.36 143.104 Q2394.22 148.208 2394.22 158.579 Z" fill="#000000" fill-rule="nonzero" fill-opacity="1" /><path clip-path="url(#clip700)" d="M2442.22 140.836 L2442.22 147.803 Q2439.06 146.061 2435.86 145.211 Q2432.7 144.32 2429.46 144.32 Q2422.21 144.32 2418.2 148.938 Q2414.19 153.515 2414.19 161.819 Q2414.19 170.124 2418.2 174.742 Q2422.21 179.319 2429.46 179.319 Q2432.7 179.319 2435.86 178.469 Q2439.06 177.577 2442.22 175.836 L2442.22 182.722 Q2439.1 184.18 2435.74 184.91 Q2432.42 185.639 2428.65 185.639 Q2418.4 185.639 2412.37 179.198 Q2406.33 172.757 2406.33 161.819 Q2406.33 150.72 2412.41 144.36 Q2418.52 138 2429.14 138 Q2432.58 138 2435.86 138.729 Q2439.14 139.418 2442.22 140.836 Z" fill="#000000" fill-rule="nonzero" fill-opacity="1" /><path clip-path="url(#clip700)" d="M2454.9 121.432 L2462.39 121.432 L2462.39 158.66 L2484.63 139.094 L2494.15 139.094 L2470.09 160.321 L2495.17 184.464 L2485.44 184.464 L2462.39 162.306 L2462.39 184.464 L2454.9 184.464 L2454.9 121.432 Z" fill="#000000" fill-rule="nonzero" fill-opacity="1" /><path clip-path="url(#clip700)" d="M2532.15 140.431 L2532.15 147.479 Q2528.99 145.859 2525.59 145.049 Q2522.19 144.239 2518.54 144.239 Q2512.99 144.239 2510.19 145.94 Q2507.44 147.641 2507.44 151.044 Q2507.44 153.637 2509.42 155.135 Q2511.41 156.594 2517.4 157.931 L2519.96 158.498 Q2527.9 160.199 2531.22 163.318 Q2534.58 166.397 2534.58 171.947 Q2534.58 178.266 2529.56 181.952 Q2524.58 185.639 2515.83 185.639 Q2512.18 185.639 2508.21 184.91 Q2504.28 184.221 2499.91 182.803 L2499.91 175.106 Q2504.04 177.253 2508.05 178.347 Q2512.06 179.4 2515.99 179.4 Q2521.25 179.4 2524.09 177.618 Q2526.92 175.795 2526.92 172.514 Q2526.92 169.476 2524.86 167.855 Q2522.83 166.235 2515.91 164.736 L2513.31 164.128 Q2506.39 162.67 2503.31 159.672 Q2500.23 156.634 2500.23 151.368 Q2500.23 144.968 2504.77 141.484 Q2509.3 138 2517.65 138 Q2521.78 138 2525.43 138.608 Q2529.07 139.215 2532.15 140.431 Z" fill="#000000" fill-rule="nonzero" fill-opacity="1" /><path clip-path="url(#clip700)" d="M2564.03 144.32 Q2558.04 144.32 2554.55 149.019 Q2551.07 153.677 2551.07 161.819 Q2551.07 169.962 2554.51 174.661 Q2558 179.319 2564.03 179.319 Q2569.99 179.319 2573.47 174.62 Q2576.95 169.921 2576.95 161.819 Q2576.95 153.758 2573.47 149.059 Q2569.99 144.32 2564.03 144.32 M2564.03 138 Q2573.75 138 2579.3 144.32 Q2584.85 150.639 2584.85 161.819 Q2584.85 172.959 2579.3 179.319 Q2573.75 185.639 2564.03 185.639 Q2554.27 185.639 2548.72 179.319 Q2543.21 172.959 2543.21 161.819 Q2543.21 150.639 2548.72 144.32 Q2554.27 138 2564.03 138 Z" fill="#000000" fill-rule="nonzero" fill-opacity="1" /><path clip-path="url(#clip700)" d="M2634.92 157.08 L2634.92 184.464 L2627.47 184.464 L2627.47 157.323 Q2627.47 150.882 2624.96 147.682 Q2622.44 144.482 2617.42 144.482 Q2611.39 144.482 2607.9 148.33 Q2604.42 152.178 2604.42 158.822 L2604.42 184.464 L2596.92 184.464 L2596.92 139.094 L2604.42 139.094 L2604.42 146.142 Q2607.09 142.051 2610.7 140.026 Q2614.34 138 2619.08 138 Q2626.9 138 2630.91 142.861 Q2634.92 147.682 2634.92 157.08 Z" fill="#000000" fill-rule="nonzero" fill-opacity="1" /><path clip-path="url(#clip702)" d="M450.158 2078.46 L426.158 2126.46 L474.158 2126.46 L450.158 2078.46 Z" fill="#ffa500" fill-rule="evenodd" fill-opacity="1" stroke="none"/>
<path clip-path="url(#clip702)" d="M450.158 772.953 L426.158 820.953 L474.158 820.953 L450.158 772.953 Z" fill="#ffa500" fill-rule="evenodd" fill-opacity="1" stroke="none"/>
<path clip-path="url(#clip702)" d="M3462.39 276.989 L3438.39 324.989 L3486.39 324.989 L3462.39 276.989 Z" fill="#ffa500" fill-rule="evenodd" fill-opacity="1" stroke="none"/>
<path clip-path="url(#clip702)" d="M450.158 1944.45 L429.374 1932.45 L429.374 1908.45 L450.158 1896.45 L470.942 1908.45 L470.942 1932.45 Z" fill="#00ffff" fill-rule="evenodd" fill-opacity="1" stroke="none"/>
<path clip-path="url(#clip702)" d="M3462.39 1740.56 L3441.6 1728.56 L3441.6 1704.56 L3462.39 1692.56 L3483.17 1704.56 L3483.17 1728.56 Z" fill="#00ffff" fill-rule="evenodd" fill-opacity="1" stroke="none"/>
<path clip-path="url(#clip702)" d="M3462.39 1527.2 L3441.6 1515.2 L3441.6 1491.2 L3462.39 1479.2 L3483.17 1491.2 L3483.17 1515.2 Z" fill="#00ffff" fill-rule="evenodd" fill-opacity="1" stroke="none"/>
<path clip-path="url(#clip700)" d="M466.224 466.116 L1222.51 466.116 L1222.51 310.596 L466.224 310.596  Z" fill="#ffffff" fill-rule="evenodd" fill-opacity="1"/>
<polyline clip-path="url(#clip700)" style="stroke:#000000; stroke-linecap:round; stroke-linejoin:round; stroke-width:4; stroke-opacity:1; fill:none" points="466.224,466.116 1222.51,466.116 1222.51,310.596 466.224,310.596 466.224,466.116 "/>
<path clip-path="url(#clip700)" d="M608.133 336.836 L582.533 388.036 L633.733 388.036 L608.133 336.836 Z" fill="#ffa500" fill-rule="evenodd" fill-opacity="1" stroke="none"/>
<path clip-path="url(#clip700)" d="M760.668 343.744 Q757.566 349.068 756.061 354.277 Q754.557 359.485 754.557 364.832 Q754.557 370.179 756.061 375.434 Q757.589 380.665 760.668 385.966 L756.964 385.966 Q753.492 380.527 751.756 375.272 Q750.043 370.017 750.043 364.832 Q750.043 359.67 751.756 354.439 Q753.469 349.207 756.964 343.744 L760.668 343.744 Z" fill="#000000" fill-rule="nonzero" fill-opacity="1" /><path clip-path="url(#clip700)" d="M791.107 365.689 L791.107 367.772 L771.524 367.772 Q771.802 372.17 774.163 374.485 Q776.547 376.777 780.783 376.777 Q783.237 376.777 785.529 376.175 Q787.843 375.573 790.112 374.369 L790.112 378.397 Q787.82 379.369 785.413 379.878 Q783.005 380.388 780.529 380.388 Q774.325 380.388 770.691 376.777 Q767.08 373.165 767.08 367.008 Q767.08 360.642 770.506 356.916 Q773.955 353.166 779.788 353.166 Q785.019 353.166 788.052 356.545 Q791.107 359.902 791.107 365.689 M786.848 364.439 Q786.802 360.943 784.88 358.86 Q782.982 356.777 779.834 356.777 Q776.269 356.777 774.117 358.791 Q771.987 360.804 771.663 364.462 L786.848 364.439 Z" fill="#000000" fill-rule="nonzero" fill-opacity="1" /><path clip-path="url(#clip700)" d="M818.815 353.791 L809.441 366.406 L819.302 379.716 L814.278 379.716 L806.732 369.531 L799.186 379.716 L794.163 379.716 L804.232 366.152 L795.019 353.791 L800.042 353.791 L806.917 363.027 L813.792 353.791 L818.815 353.791 Z" fill="#000000" fill-rule="nonzero" fill-opacity="1" /><path clip-path="url(#clip700)" d="M837.102 366.684 Q831.94 366.684 829.95 367.865 Q827.959 369.045 827.959 371.892 Q827.959 374.161 829.44 375.503 Q830.945 376.823 833.514 376.823 Q837.056 376.823 839.186 374.323 Q841.339 371.8 841.339 367.633 L841.339 366.684 L837.102 366.684 M845.598 364.925 L845.598 379.716 L841.339 379.716 L841.339 375.781 Q839.88 378.142 837.704 379.277 Q835.528 380.388 832.38 380.388 Q828.399 380.388 826.038 378.165 Q823.7 375.92 823.7 372.17 Q823.7 367.795 826.616 365.573 Q829.556 363.351 835.366 363.351 L841.339 363.351 L841.339 362.934 Q841.339 359.994 839.394 358.397 Q837.473 356.777 833.977 356.777 Q831.755 356.777 829.649 357.309 Q827.542 357.841 825.598 358.906 L825.598 354.971 Q827.936 354.068 830.135 353.629 Q832.334 353.166 834.417 353.166 Q840.042 353.166 842.82 356.082 Q845.598 358.999 845.598 364.925 Z" fill="#000000" fill-rule="nonzero" fill-opacity="1" /><path clip-path="url(#clip700)" d="M855.459 373.837 L860.343 373.837 L860.343 377.818 L856.547 385.226 L853.561 385.226 L855.459 377.818 L855.459 373.837 Z" fill="#000000" fill-rule="nonzero" fill-opacity="1" /><path clip-path="url(#clip700)" d="M904.695 358.767 Q906.292 355.897 908.514 354.531 Q910.736 353.166 913.746 353.166 Q917.796 353.166 919.995 356.013 Q922.195 358.837 922.195 364.068 L922.195 379.716 L917.912 379.716 L917.912 364.207 Q917.912 360.48 916.593 358.675 Q915.273 356.869 912.565 356.869 Q909.255 356.869 907.334 359.068 Q905.412 361.267 905.412 365.064 L905.412 379.716 L901.13 379.716 L901.13 364.207 Q901.13 360.457 899.81 358.675 Q898.491 356.869 895.736 356.869 Q892.472 356.869 890.551 359.091 Q888.63 361.291 888.63 365.064 L888.63 379.716 L884.348 379.716 L884.348 353.791 L888.63 353.791 L888.63 357.818 Q890.088 355.434 892.125 354.3 Q894.162 353.166 896.963 353.166 Q899.787 353.166 901.755 354.601 Q903.746 356.036 904.695 358.767 Z" fill="#000000" fill-rule="nonzero" fill-opacity="1" /><path clip-path="url(#clip700)" d="M942.472 366.684 Q937.31 366.684 935.319 367.865 Q933.329 369.045 933.329 371.892 Q933.329 374.161 934.81 375.503 Q936.315 376.823 938.884 376.823 Q942.426 376.823 944.556 374.323 Q946.708 371.8 946.708 367.633 L946.708 366.684 L942.472 366.684 M950.968 364.925 L950.968 379.716 L946.708 379.716 L946.708 375.781 Q945.25 378.142 943.074 379.277 Q940.898 380.388 937.75 380.388 Q933.769 380.388 931.407 378.165 Q929.07 375.92 929.07 372.17 Q929.07 367.795 931.986 365.573 Q934.926 363.351 940.736 363.351 L946.708 363.351 L946.708 362.934 Q946.708 359.994 944.764 358.397 Q942.843 356.777 939.347 356.777 Q937.125 356.777 935.019 357.309 Q932.912 357.841 930.968 358.906 L930.968 354.971 Q933.306 354.068 935.505 353.629 Q937.704 353.166 939.787 353.166 Q945.412 353.166 948.19 356.082 Q950.968 358.999 950.968 364.925 Z" fill="#000000" fill-rule="nonzero" fill-opacity="1" /><path clip-path="url(#clip700)" d="M976.801 357.726 L976.801 343.698 L981.06 343.698 L981.06 379.716 L976.801 379.716 L976.801 375.827 Q975.458 378.142 973.398 379.277 Q971.361 380.388 968.491 380.388 Q963.792 380.388 960.829 376.638 Q957.889 372.888 957.889 366.777 Q957.889 360.666 960.829 356.916 Q963.792 353.166 968.491 353.166 Q971.361 353.166 973.398 354.3 Q975.458 355.411 976.801 357.726 M962.287 366.777 Q962.287 371.476 964.208 374.161 Q966.153 376.823 969.532 376.823 Q972.912 376.823 974.856 374.161 Q976.801 371.476 976.801 366.777 Q976.801 362.078 974.856 359.416 Q972.912 356.73 969.532 356.73 Q966.153 356.73 964.208 359.416 Q962.287 362.078 962.287 366.777 Z" fill="#000000" fill-rule="nonzero" fill-opacity="1" /><path clip-path="url(#clip700)" d="M1011.38 364.068 L1011.38 379.716 L1007.12 379.716 L1007.12 364.207 Q1007.12 360.527 1005.69 358.698 Q1004.25 356.869 1001.38 356.869 Q997.935 356.869 995.944 359.068 Q993.953 361.267 993.953 365.064 L993.953 379.716 L989.671 379.716 L989.671 353.791 L993.953 353.791 L993.953 357.818 Q995.481 355.48 997.541 354.323 Q999.625 353.166 1002.33 353.166 Q1006.8 353.166 1009.09 355.943 Q1011.38 358.698 1011.38 364.068 Z" fill="#000000" fill-rule="nonzero" fill-opacity="1" /><path clip-path="url(#clip700)" d="M1019.88 343.698 L1024.14 343.698 L1024.14 379.716 L1019.88 379.716 L1019.88 343.698 Z" fill="#000000" fill-rule="nonzero" fill-opacity="1" /><path clip-path="url(#clip700)" d="M1037.17 375.827 L1037.17 389.577 L1032.89 389.577 L1032.89 353.791 L1037.17 353.791 L1037.17 357.726 Q1038.51 355.411 1040.55 354.3 Q1042.61 353.166 1045.46 353.166 Q1050.18 353.166 1053.12 356.916 Q1056.08 360.666 1056.08 366.777 Q1056.08 372.888 1053.12 376.638 Q1050.18 380.388 1045.46 380.388 Q1042.61 380.388 1040.55 379.277 Q1038.51 378.142 1037.17 375.827 M1051.66 366.777 Q1051.66 362.078 1049.72 359.416 Q1047.8 356.73 1044.42 356.73 Q1041.04 356.73 1039.09 359.416 Q1037.17 362.078 1037.17 366.777 Q1037.17 371.476 1039.09 374.161 Q1041.04 376.823 1044.42 376.823 Q1047.8 376.823 1049.72 374.161 Q1051.66 371.476 1051.66 366.777 Z" fill="#000000" fill-rule="nonzero" fill-opacity="1" /><path clip-path="url(#clip700)" d="M1062.47 343.744 L1066.18 343.744 Q1069.65 349.207 1071.36 354.439 Q1073.1 359.67 1073.1 364.832 Q1073.1 370.017 1071.36 375.272 Q1069.65 380.527 1066.18 385.966 L1062.47 385.966 Q1065.55 380.665 1067.05 375.434 Q1068.58 370.179 1068.58 364.832 Q1068.58 359.485 1067.05 354.277 Q1065.55 349.068 1062.47 343.744 Z" fill="#000000" fill-rule="nonzero" fill-opacity="1" /><path clip-path="url(#clip700)" d="M608.133 439.876 L585.964 427.076 L585.964 401.476 L608.133 388.676 L630.303 401.476 L630.303 427.076 Z" fill="#00ffff" fill-rule="evenodd" fill-opacity="1" stroke="none"/>
<path clip-path="url(#clip700)" d="M760.668 395.584 Q757.566 400.908 756.061 406.117 Q754.557 411.325 754.557 416.672 Q754.557 422.019 756.061 427.274 Q757.589 432.505 760.668 437.806 L756.964 437.806 Q753.492 432.367 751.756 427.112 Q750.043 421.857 750.043 416.672 Q750.043 411.51 751.756 406.279 Q753.469 401.047 756.964 395.584 L760.668 395.584 Z" fill="#000000" fill-rule="nonzero" fill-opacity="1" /><path clip-path="url(#clip700)" d="M791.107 417.529 L791.107 419.612 L771.524 419.612 Q771.802 424.01 774.163 426.325 Q776.547 428.617 780.783 428.617 Q783.237 428.617 785.529 428.015 Q787.843 427.413 790.112 426.209 L790.112 430.237 Q787.82 431.209 785.413 431.718 Q783.005 432.228 780.529 432.228 Q774.325 432.228 770.691 428.617 Q767.08 425.005 767.08 418.848 Q767.08 412.482 770.506 408.756 Q773.955 405.006 779.788 405.006 Q785.019 405.006 788.052 408.385 Q791.107 411.742 791.107 417.529 M786.848 416.279 Q786.802 412.783 784.88 410.7 Q782.982 408.617 779.834 408.617 Q776.269 408.617 774.117 410.631 Q771.987 412.644 771.663 416.302 L786.848 416.279 Z" fill="#000000" fill-rule="nonzero" fill-opacity="1" /><path clip-path="url(#clip700)" d="M818.815 405.631 L809.441 418.246 L819.302 431.556 L814.278 431.556 L806.732 421.371 L799.186 431.556 L794.163 431.556 L804.232 417.992 L795.019 405.631 L800.042 405.631 L806.917 414.867 L813.792 405.631 L818.815 405.631 Z" fill="#000000" fill-rule="nonzero" fill-opacity="1" /><path clip-path="url(#clip700)" d="M837.102 418.524 Q831.94 418.524 829.95 419.705 Q827.959 420.885 827.959 423.732 Q827.959 426.001 829.44 427.343 Q830.945 428.663 833.514 428.663 Q837.056 428.663 839.186 426.163 Q841.339 423.64 841.339 419.473 L841.339 418.524 L837.102 418.524 M845.598 416.765 L845.598 431.556 L841.339 431.556 L841.339 427.621 Q839.88 429.982 837.704 431.117 Q835.528 432.228 832.38 432.228 Q828.399 432.228 826.038 430.005 Q823.7 427.76 823.7 424.01 Q823.7 419.635 826.616 417.413 Q829.556 415.191 835.366 415.191 L841.339 415.191 L841.339 414.774 Q841.339 411.834 839.394 410.237 Q837.473 408.617 833.977 408.617 Q831.755 408.617 829.649 409.149 Q827.542 409.681 825.598 410.746 L825.598 406.811 Q827.936 405.908 830.135 405.469 Q832.334 405.006 834.417 405.006 Q840.042 405.006 842.82 407.922 Q845.598 410.839 845.598 416.765 Z" fill="#000000" fill-rule="nonzero" fill-opacity="1" /><path clip-path="url(#clip700)" d="M874.07 439.427 L874.07 442.737 L849.44 442.737 L849.44 439.427 L874.07 439.427 Z" fill="#000000" fill-rule="nonzero" fill-opacity="1" /><path clip-path="url(#clip700)" d="M895.135 418.293 Q895.135 413.663 893.213 411.117 Q891.315 408.57 887.866 408.57 Q884.44 408.57 882.519 411.117 Q880.621 413.663 880.621 418.293 Q880.621 422.899 882.519 425.445 Q884.44 427.992 887.866 427.992 Q891.315 427.992 893.213 425.445 Q895.135 422.899 895.135 418.293 M899.394 428.339 Q899.394 434.959 896.454 438.177 Q893.514 441.417 887.449 441.417 Q885.204 441.417 883.213 441.07 Q881.223 440.746 879.348 440.052 L879.348 435.908 Q881.223 436.927 883.051 437.413 Q884.88 437.899 886.778 437.899 Q890.968 437.899 893.051 435.7 Q895.135 433.524 895.135 429.103 L895.135 426.996 Q893.815 429.288 891.755 430.422 Q889.695 431.556 886.824 431.556 Q882.056 431.556 879.139 427.922 Q876.223 424.288 876.223 418.293 Q876.223 412.274 879.139 408.64 Q882.056 405.006 886.824 405.006 Q889.695 405.006 891.755 406.14 Q893.815 407.274 895.135 409.566 L895.135 405.631 L899.394 405.631 L899.394 428.339 Z" fill="#000000" fill-rule="nonzero" fill-opacity="1" /><path clip-path="url(#clip700)" d="M912.287 427.667 L912.287 441.417 L908.005 441.417 L908.005 405.631 L912.287 405.631 L912.287 409.566 Q913.63 407.251 915.667 406.14 Q917.727 405.006 920.574 405.006 Q925.296 405.006 928.236 408.756 Q931.199 412.506 931.199 418.617 Q931.199 424.728 928.236 428.478 Q925.296 432.228 920.574 432.228 Q917.727 432.228 915.667 431.117 Q913.63 429.982 912.287 427.667 M926.778 418.617 Q926.778 413.918 924.833 411.256 Q922.912 408.57 919.533 408.57 Q916.153 408.57 914.208 411.256 Q912.287 413.918 912.287 418.617 Q912.287 423.316 914.208 426.001 Q916.153 428.663 919.533 428.663 Q922.912 428.663 924.833 426.001 Q926.778 423.316 926.778 418.617 Z" fill="#000000" fill-rule="nonzero" fill-opacity="1" /><path clip-path="url(#clip700)" d="M937.819 421.325 L937.819 405.631 L942.079 405.631 L942.079 421.163 Q942.079 424.843 943.514 426.695 Q944.949 428.524 947.819 428.524 Q951.268 428.524 953.259 426.325 Q955.273 424.126 955.273 420.33 L955.273 405.631 L959.532 405.631 L959.532 431.556 L955.273 431.556 L955.273 427.575 Q953.722 429.936 951.662 431.093 Q949.625 432.228 946.917 432.228 Q942.449 432.228 940.134 429.45 Q937.819 426.672 937.819 421.325 M948.537 405.006 L948.537 405.006 Z" fill="#000000" fill-rule="nonzero" fill-opacity="1" /><path clip-path="url(#clip700)" d="M969.393 425.677 L974.278 425.677 L974.278 429.658 L970.481 437.066 L967.495 437.066 L969.393 429.658 L969.393 425.677 Z" fill="#000000" fill-rule="nonzero" fill-opacity="1" /><path clip-path="url(#clip700)" d="M1018.63 410.607 Q1020.23 407.737 1022.45 406.371 Q1024.67 405.006 1027.68 405.006 Q1031.73 405.006 1033.93 407.853 Q1036.13 410.677 1036.13 415.908 L1036.13 431.556 L1031.85 431.556 L1031.85 416.047 Q1031.85 412.32 1030.53 410.515 Q1029.21 408.709 1026.5 408.709 Q1023.19 408.709 1021.27 410.908 Q1019.35 413.107 1019.35 416.904 L1019.35 431.556 L1015.06 431.556 L1015.06 416.047 Q1015.06 412.297 1013.74 410.515 Q1012.43 408.709 1009.67 408.709 Q1006.41 408.709 1004.49 410.931 Q1002.56 413.131 1002.56 416.904 L1002.56 431.556 L998.282 431.556 L998.282 405.631 L1002.56 405.631 L1002.56 409.658 Q1004.02 407.274 1006.06 406.14 Q1008.1 405.006 1010.9 405.006 Q1013.72 405.006 1015.69 406.441 Q1017.68 407.876 1018.63 410.607 Z" fill="#000000" fill-rule="nonzero" fill-opacity="1" /><path clip-path="url(#clip700)" d="M1056.41 418.524 Q1051.24 418.524 1049.25 419.705 Q1047.26 420.885 1047.26 423.732 Q1047.26 426.001 1048.74 427.343 Q1050.25 428.663 1052.82 428.663 Q1056.36 428.663 1058.49 426.163 Q1060.64 423.64 1060.64 419.473 L1060.64 418.524 L1056.41 418.524 M1064.9 416.765 L1064.9 431.556 L1060.64 431.556 L1060.64 427.621 Q1059.18 429.982 1057.01 431.117 Q1054.83 432.228 1051.68 432.228 Q1047.7 432.228 1045.34 430.005 Q1043 427.76 1043 424.01 Q1043 419.635 1045.92 417.413 Q1048.86 415.191 1054.67 415.191 L1060.64 415.191 L1060.64 414.774 Q1060.64 411.834 1058.7 410.237 Q1056.78 408.617 1053.28 408.617 Q1051.06 408.617 1048.95 409.149 Q1046.85 409.681 1044.9 410.746 L1044.9 406.811 Q1047.24 405.908 1049.44 405.469 Q1051.64 405.006 1053.72 405.006 Q1059.35 405.006 1062.12 407.922 Q1064.9 410.839 1064.9 416.765 Z" fill="#000000" fill-rule="nonzero" fill-opacity="1" /><path clip-path="url(#clip700)" d="M1090.74 409.566 L1090.74 395.538 L1094.99 395.538 L1094.99 431.556 L1090.74 431.556 L1090.74 427.667 Q1089.39 429.982 1087.33 431.117 Q1085.3 432.228 1082.43 432.228 Q1077.73 432.228 1074.76 428.478 Q1071.82 424.728 1071.82 418.617 Q1071.82 412.506 1074.76 408.756 Q1077.73 405.006 1082.43 405.006 Q1085.3 405.006 1087.33 406.14 Q1089.39 407.251 1090.74 409.566 M1076.22 418.617 Q1076.22 423.316 1078.14 426.001 Q1080.09 428.663 1083.47 428.663 Q1086.85 428.663 1088.79 426.001 Q1090.74 423.316 1090.74 418.617 Q1090.74 413.918 1088.79 411.256 Q1086.85 408.57 1083.47 408.57 Q1080.09 408.57 1078.14 411.256 Q1076.22 413.918 1076.22 418.617 Z" fill="#000000" fill-rule="nonzero" fill-opacity="1" /><path clip-path="url(#clip700)" d="M1125.32 415.908 L1125.32 431.556 L1121.06 431.556 L1121.06 416.047 Q1121.06 412.367 1119.62 410.538 Q1118.19 408.709 1115.32 408.709 Q1111.87 408.709 1109.88 410.908 Q1107.89 413.107 1107.89 416.904 L1107.89 431.556 L1103.61 431.556 L1103.61 405.631 L1107.89 405.631 L1107.89 409.658 Q1109.42 407.32 1111.48 406.163 Q1113.56 405.006 1116.27 405.006 Q1120.74 405.006 1123.03 407.783 Q1125.32 410.538 1125.32 415.908 Z" fill="#000000" fill-rule="nonzero" fill-opacity="1" /><path clip-path="url(#clip700)" d="M1133.81 395.538 L1138.07 395.538 L1138.07 431.556 L1133.81 431.556 L1133.81 395.538 Z" fill="#000000" fill-rule="nonzero" fill-opacity="1" /><path clip-path="url(#clip700)" d="M1151.11 427.667 L1151.11 441.417 L1146.82 441.417 L1146.82 405.631 L1151.11 405.631 L1151.11 409.566 Q1152.45 407.251 1154.48 406.14 Q1156.55 405.006 1159.39 405.006 Q1164.11 405.006 1167.05 408.756 Q1170.02 412.506 1170.02 418.617 Q1170.02 424.728 1167.05 428.478 Q1164.11 432.228 1159.39 432.228 Q1156.55 432.228 1154.48 431.117 Q1152.45 429.982 1151.11 427.667 M1165.6 418.617 Q1165.6 413.918 1163.65 411.256 Q1161.73 408.57 1158.35 408.57 Q1154.97 408.57 1153.03 411.256 Q1151.11 413.918 1151.11 418.617 Q1151.11 423.316 1153.03 426.001 Q1154.97 428.663 1158.35 428.663 Q1161.73 428.663 1163.65 426.001 Q1165.6 423.316 1165.6 418.617 Z" fill="#000000" fill-rule="nonzero" fill-opacity="1" /><path clip-path="url(#clip700)" d="M1176.41 395.584 L1180.11 395.584 Q1183.58 401.047 1185.29 406.279 Q1187.03 411.51 1187.03 416.672 Q1187.03 421.857 1185.29 427.112 Q1183.58 432.367 1180.11 437.806 L1176.41 437.806 Q1179.48 432.505 1180.99 427.274 Q1182.52 422.019 1182.52 416.672 Q1182.52 411.325 1180.99 406.117 Q1179.48 400.908 1176.41 395.584 Z" fill="#000000" fill-rule="nonzero" fill-opacity="1" /></svg>
