<?xml version="1.0" encoding="utf-8"?>
<svg xmlns="http://www.w3.org/2000/svg" xmlns:xlink="http://www.w3.org/1999/xlink" width="900" height="600" viewBox="0 0 3600 2400">
<defs>
  <clipPath id="clip970">
    <rect x="0" y="0" width="3600" height="2400"/>
  </clipPath>
</defs>
<path clip-path="url(#clip970)" d="M0 2400 L3600 2400 L3600 0 L0 0  Z" fill="#ffffff" fill-rule="evenodd" fill-opacity="1"/>
<defs>
  <clipPath id="clip971">
    <rect x="246" y="246" width="3308" height="1911"/>
  </clipPath>
</defs>
<path clip-path="url(#clip970)" d="M358.983 2156.51 L3552.76 2156.51 L3552.76 246.944 L358.983 246.944  Z" fill="#ffffff" fill-rule="evenodd" fill-opacity="1"/>
<defs>
  <clipPath id="clip972">
    <rect x="358" y="246" width="3195" height="1911"/>
  </clipPath>
</defs>
<polyline clip-path="url(#clip972)" style="stroke:#000000; stroke-linecap:round; stroke-linejoin:round; stroke-width:2; stroke-opacity:0.1; fill:none" points="537.99,2156.51 537.99,246.944 "/>
<polyline clip-path="url(#clip972)" style="stroke:#000000; stroke-linecap:round; stroke-linejoin:round; stroke-width:2; stroke-opacity:0.1; fill:none" points="981.077,2156.51 981.077,246.944 "/>
<polyline clip-path="url(#clip972)" style="stroke:#000000; stroke-linecap:round; stroke-linejoin:round; stroke-width:2; stroke-opacity:0.1; fill:none" points="1424.16,2156.51 1424.16,246.944 "/>
<polyline clip-path="url(#clip972)" style="stroke:#000000; stroke-linecap:round; stroke-linejoin:round; stroke-width:2; stroke-opacity:0.1; fill:none" points="1867.25,2156.51 1867.25,246.944 "/>
<polyline clip-path="url(#clip972)" style="stroke:#000000; stroke-linecap:round; stroke-linejoin:round; stroke-width:2; stroke-opacity:0.1; fill:none" points="2310.34,2156.51 2310.34,246.944 "/>
<polyline clip-path="url(#clip972)" style="stroke:#000000; stroke-linecap:round; stroke-linejoin:round; stroke-width:2; stroke-opacity:0.1; fill:none" points="2753.43,2156.51 2753.43,246.944 "/>
<polyline clip-path="url(#clip972)" style="stroke:#000000; stroke-linecap:round; stroke-linejoin:round; stroke-width:2; stroke-opacity:0.1; fill:none" points="3196.51,2156.51 3196.51,246.944 "/>
<polyline clip-path="url(#clip972)" style="stroke:#000000; stroke-linecap:round; stroke-linejoin:round; stroke-width:2; stroke-opacity:0.1; fill:none" points="358.983,1812.1 3552.76,1812.1 "/>
<polyline clip-path="url(#clip972)" style="stroke:#000000; stroke-linecap:round; stroke-linejoin:round; stroke-width:2; stroke-opacity:0.1; fill:none" points="358.983,1164.23 3552.76,1164.23 "/>
<polyline clip-path="url(#clip972)" style="stroke:#000000; stroke-linecap:round; stroke-linejoin:round; stroke-width:2; stroke-opacity:0.1; fill:none" points="358.983,516.356 3552.76,516.356 "/>
<polyline clip-path="url(#clip970)" style="stroke:#000000; stroke-linecap:round; stroke-linejoin:round; stroke-width:4; stroke-opacity:1; fill:none" points="358.983,2156.51 3552.76,2156.51 "/>
<polyline clip-path="url(#clip970)" style="stroke:#000000; stroke-linecap:round; stroke-linejoin:round; stroke-width:4; stroke-opacity:1; fill:none" points="537.99,2156.51 537.99,2137.61 "/>
<polyline clip-path="url(#clip970)" style="stroke:#000000; stroke-linecap:round; stroke-linejoin:round; stroke-width:4; stroke-opacity:1; fill:none" points="981.077,2156.51 981.077,2137.61 "/>
<polyline clip-path="url(#clip970)" style="stroke:#000000; stroke-linecap:round; stroke-linejoin:round; stroke-width:4; stroke-opacity:1; fill:none" points="1424.16,2156.51 1424.16,2137.61 "/>
<polyline clip-path="url(#clip970)" style="stroke:#000000; stroke-linecap:round; stroke-linejoin:round; stroke-width:4; stroke-opacity:1; fill:none" points="1867.25,2156.51 1867.25,2137.61 "/>
<polyline clip-path="url(#clip970)" style="stroke:#000000; stroke-linecap:round; stroke-linejoin:round; stroke-width:4; stroke-opacity:1; fill:none" points="2310.34,2156.51 2310.34,2137.61 "/>
<polyline clip-path="url(#clip970)" style="stroke:#000000; stroke-linecap:round; stroke-linejoin:round; stroke-width:4; stroke-opacity:1; fill:none" points="2753.43,2156.51 2753.43,2137.61 "/>
<polyline clip-path="url(#clip970)" style="stroke:#000000; stroke-linecap:round; stroke-linejoin:round; stroke-width:4; stroke-opacity:1; fill:none" points="3196.51,2156.51 3196.51,2137.61 "/>
<path clip-path="url(#clip970)" d="M526.659 2198.02 L514.854 2216.47 L526.659 2216.47 L526.659 2198.02 M525.432 2193.95 L531.312 2193.95 L531.312 2216.47 L536.242 2216.47 L536.242 2220.36 L531.312 2220.36 L531.312 2228.51 L526.659 2228.51 L526.659 2220.36 L511.057 2220.36 L511.057 2215.85 L525.432 2193.95 Z" fill="#000000" fill-rule="nonzero" fill-opacity="1" /><path clip-path="url(#clip970)" d="M544.02 2193.95 L562.376 2193.95 L562.376 2197.88 L548.302 2197.88 L548.302 2206.36 Q549.321 2206.01 550.339 2205.85 Q551.358 2205.66 552.377 2205.66 Q558.164 2205.66 561.543 2208.83 Q564.923 2212 564.923 2217.42 Q564.923 2223 561.451 2226.1 Q557.978 2229.18 551.659 2229.18 Q549.483 2229.18 547.215 2228.81 Q544.969 2228.44 542.562 2227.7 L542.562 2223 Q544.645 2224.13 546.867 2224.69 Q549.089 2225.24 551.566 2225.24 Q555.571 2225.24 557.909 2223.14 Q560.247 2221.03 560.247 2217.42 Q560.247 2213.81 557.909 2211.7 Q555.571 2209.6 551.566 2209.6 Q549.691 2209.6 547.816 2210.01 Q545.965 2210.43 544.02 2211.31 L544.02 2193.95 Z" fill="#000000" fill-rule="nonzero" fill-opacity="1" /><path clip-path="url(#clip970)" d="M955.777 2193.95 L974.133 2193.95 L974.133 2197.88 L960.059 2197.88 L960.059 2206.36 Q961.077 2206.01 962.096 2205.85 Q963.114 2205.66 964.133 2205.66 Q969.92 2205.66 973.3 2208.83 Q976.679 2212 976.679 2217.42 Q976.679 2223 973.207 2226.1 Q969.735 2229.18 963.415 2229.18 Q961.239 2229.18 958.971 2228.81 Q956.726 2228.44 954.318 2227.7 L954.318 2223 Q956.402 2224.13 958.624 2224.69 Q960.846 2225.24 963.323 2225.24 Q967.327 2225.24 969.665 2223.14 Q972.003 2221.03 972.003 2217.42 Q972.003 2213.81 969.665 2211.7 Q967.327 2209.6 963.323 2209.6 Q961.448 2209.6 959.573 2210.01 Q957.721 2210.43 955.777 2211.31 L955.777 2193.95 Z" fill="#000000" fill-rule="nonzero" fill-opacity="1" /><path clip-path="url(#clip970)" d="M995.892 2197.03 Q992.281 2197.03 990.452 2200.59 Q988.647 2204.13 988.647 2211.26 Q988.647 2218.37 990.452 2221.93 Q992.281 2225.48 995.892 2225.48 Q999.526 2225.48 1001.33 2221.93 Q1003.16 2218.37 1003.16 2211.26 Q1003.16 2204.13 1001.33 2200.59 Q999.526 2197.03 995.892 2197.03 M995.892 2193.32 Q1001.7 2193.32 1004.76 2197.93 Q1007.84 2202.51 1007.84 2211.26 Q1007.84 2219.99 1004.76 2224.6 Q1001.7 2229.18 995.892 2229.18 Q990.082 2229.18 987.003 2224.6 Q983.948 2219.99 983.948 2211.26 Q983.948 2202.51 987.003 2197.93 Q990.082 2193.32 995.892 2193.32 Z" fill="#000000" fill-rule="nonzero" fill-opacity="1" /><path clip-path="url(#clip970)" d="M1399.36 2193.95 L1417.72 2193.95 L1417.72 2197.88 L1403.64 2197.88 L1403.64 2206.36 Q1404.66 2206.01 1405.68 2205.85 Q1406.7 2205.66 1407.72 2205.66 Q1413.5 2205.66 1416.88 2208.83 Q1420.26 2212 1420.26 2217.42 Q1420.26 2223 1416.79 2226.1 Q1413.32 2229.18 1407 2229.18 Q1404.82 2229.18 1402.56 2228.81 Q1400.31 2228.44 1397.9 2227.7 L1397.9 2223 Q1399.99 2224.13 1402.21 2224.69 Q1404.43 2225.24 1406.91 2225.24 Q1410.91 2225.24 1413.25 2223.14 Q1415.59 2221.03 1415.59 2217.42 Q1415.59 2213.81 1413.25 2211.7 Q1410.91 2209.6 1406.91 2209.6 Q1405.03 2209.6 1403.16 2210.01 Q1401.31 2210.43 1399.36 2211.31 L1399.36 2193.95 Z" fill="#000000" fill-rule="nonzero" fill-opacity="1" /><path clip-path="url(#clip970)" d="M1429.52 2193.95 L1447.88 2193.95 L1447.88 2197.88 L1433.81 2197.88 L1433.81 2206.36 Q1434.82 2206.01 1435.84 2205.85 Q1436.86 2205.66 1437.88 2205.66 Q1443.67 2205.66 1447.05 2208.83 Q1450.43 2212 1450.43 2217.42 Q1450.43 2223 1446.95 2226.1 Q1443.48 2229.18 1437.16 2229.18 Q1434.99 2229.18 1432.72 2228.81 Q1430.47 2228.44 1428.07 2227.7 L1428.07 2223 Q1430.15 2224.13 1432.37 2224.69 Q1434.59 2225.24 1437.07 2225.24 Q1441.07 2225.24 1443.41 2223.14 Q1445.75 2221.03 1445.75 2217.42 Q1445.75 2213.81 1443.41 2211.7 Q1441.07 2209.6 1437.07 2209.6 Q1435.19 2209.6 1433.32 2210.01 Q1431.47 2210.43 1429.52 2211.31 L1429.52 2193.95 Z" fill="#000000" fill-rule="nonzero" fill-opacity="1" /><path clip-path="url(#clip970)" d="M1852.66 2209.36 Q1849.51 2209.36 1847.66 2211.52 Q1845.83 2213.67 1845.83 2217.42 Q1845.83 2221.15 1847.66 2223.32 Q1849.51 2225.48 1852.66 2225.48 Q1855.81 2225.48 1857.63 2223.32 Q1859.49 2221.15 1859.49 2217.42 Q1859.49 2213.67 1857.63 2211.52 Q1855.81 2209.36 1852.66 2209.36 M1861.94 2194.71 L1861.94 2198.97 Q1860.18 2198.14 1858.37 2197.7 Q1856.59 2197.26 1854.83 2197.26 Q1850.2 2197.26 1847.75 2200.38 Q1845.32 2203.51 1844.97 2209.83 Q1846.34 2207.81 1848.4 2206.75 Q1850.46 2205.66 1852.93 2205.66 Q1858.14 2205.66 1861.15 2208.83 Q1864.18 2211.98 1864.18 2217.42 Q1864.18 2222.74 1861.04 2225.96 Q1857.89 2229.18 1852.66 2229.18 Q1846.66 2229.18 1843.49 2224.6 Q1840.32 2219.99 1840.32 2211.26 Q1840.32 2203.07 1844.21 2198.21 Q1848.1 2193.32 1854.65 2193.32 Q1856.41 2193.32 1858.19 2193.67 Q1859.99 2194.02 1861.94 2194.71 Z" fill="#000000" fill-rule="nonzero" fill-opacity="1" /><path clip-path="url(#clip970)" d="M1882.24 2197.03 Q1878.63 2197.03 1876.8 2200.59 Q1874.99 2204.13 1874.99 2211.26 Q1874.99 2218.37 1876.8 2221.93 Q1878.63 2225.48 1882.24 2225.48 Q1885.87 2225.48 1887.68 2221.93 Q1889.51 2218.37 1889.51 2211.26 Q1889.51 2204.13 1887.68 2200.59 Q1885.87 2197.03 1882.24 2197.03 M1882.24 2193.32 Q1888.05 2193.32 1891.11 2197.93 Q1894.18 2202.51 1894.18 2211.26 Q1894.18 2219.99 1891.11 2224.6 Q1888.05 2229.18 1882.24 2229.18 Q1876.43 2229.18 1873.35 2224.6 Q1870.3 2219.99 1870.3 2211.26 Q1870.3 2202.51 1873.35 2197.93 Q1876.43 2193.32 1882.24 2193.32 Z" fill="#000000" fill-rule="nonzero" fill-opacity="1" /><path clip-path="url(#clip970)" d="M2296.24 2209.36 Q2293.09 2209.36 2291.24 2211.52 Q2289.41 2213.67 2289.41 2217.42 Q2289.41 2221.15 2291.24 2223.32 Q2293.09 2225.48 2296.24 2225.48 Q2299.39 2225.48 2301.22 2223.32 Q2303.07 2221.15 2303.07 2217.42 Q2303.07 2213.67 2301.22 2211.52 Q2299.39 2209.36 2296.24 2209.36 M2305.52 2194.71 L2305.52 2198.97 Q2303.77 2198.14 2301.96 2197.7 Q2300.18 2197.26 2298.42 2197.26 Q2293.79 2197.26 2291.33 2200.38 Q2288.9 2203.51 2288.56 2209.83 Q2289.92 2207.81 2291.98 2206.75 Q2294.04 2205.66 2296.52 2205.66 Q2301.73 2205.66 2304.74 2208.83 Q2307.77 2211.98 2307.77 2217.42 Q2307.77 2222.74 2304.62 2225.96 Q2301.47 2229.18 2296.24 2229.18 Q2290.25 2229.18 2287.08 2224.6 Q2283.9 2219.99 2283.9 2211.26 Q2283.9 2203.07 2287.79 2198.21 Q2291.68 2193.32 2298.23 2193.32 Q2299.99 2193.32 2301.77 2193.67 Q2303.58 2194.02 2305.52 2194.71 Z" fill="#000000" fill-rule="nonzero" fill-opacity="1" /><path clip-path="url(#clip970)" d="M2315.87 2193.95 L2334.23 2193.95 L2334.23 2197.88 L2320.15 2197.88 L2320.15 2206.36 Q2321.17 2206.01 2322.19 2205.85 Q2323.21 2205.66 2324.23 2205.66 Q2330.01 2205.66 2333.39 2208.83 Q2336.77 2212 2336.77 2217.42 Q2336.77 2223 2333.3 2226.1 Q2329.83 2229.18 2323.51 2229.18 Q2321.33 2229.18 2319.07 2228.81 Q2316.82 2228.44 2314.41 2227.7 L2314.41 2223 Q2316.5 2224.13 2318.72 2224.69 Q2320.94 2225.24 2323.42 2225.24 Q2327.42 2225.24 2329.76 2223.14 Q2332.1 2221.03 2332.1 2217.42 Q2332.1 2213.81 2329.76 2211.7 Q2327.42 2209.6 2323.42 2209.6 Q2321.54 2209.6 2319.67 2210.01 Q2317.82 2210.43 2315.87 2211.31 L2315.87 2193.95 Z" fill="#000000" fill-rule="nonzero" fill-opacity="1" /><path clip-path="url(#clip970)" d="M2726.78 2193.95 L2749.01 2193.95 L2749.01 2195.94 L2736.46 2228.51 L2731.57 2228.51 L2743.38 2197.88 L2726.78 2197.88 L2726.78 2193.95 Z" fill="#000000" fill-rule="nonzero" fill-opacity="1" /><path clip-path="url(#clip970)" d="M2768.13 2197.03 Q2764.51 2197.03 2762.69 2200.59 Q2760.88 2204.13 2760.88 2211.26 Q2760.88 2218.37 2762.69 2221.93 Q2764.51 2225.48 2768.13 2225.48 Q2771.76 2225.48 2773.57 2221.93 Q2775.39 2218.37 2775.39 2211.26 Q2775.39 2204.13 2773.57 2200.59 Q2771.76 2197.03 2768.13 2197.03 M2768.13 2193.32 Q2773.94 2193.32 2776.99 2197.93 Q2780.07 2202.51 2780.07 2211.26 Q2780.07 2219.99 2776.99 2224.6 Q2773.94 2229.18 2768.13 2229.18 Q2762.32 2229.18 2759.24 2224.6 Q2756.18 2219.99 2756.18 2211.26 Q2756.18 2202.51 2759.24 2197.93 Q2762.32 2193.32 2768.13 2193.32 Z" fill="#000000" fill-rule="nonzero" fill-opacity="1" /><path clip-path="url(#clip970)" d="M3170.37 2193.95 L3192.59 2193.95 L3192.59 2195.94 L3180.04 2228.51 L3175.16 2228.51 L3186.97 2197.88 L3170.37 2197.88 L3170.37 2193.95 Z" fill="#000000" fill-rule="nonzero" fill-opacity="1" /><path clip-path="url(#clip970)" d="M3201.76 2193.95 L3220.11 2193.95 L3220.11 2197.88 L3206.04 2197.88 L3206.04 2206.36 Q3207.06 2206.01 3208.08 2205.85 Q3209.09 2205.66 3210.11 2205.66 Q3215.9 2205.66 3219.28 2208.83 Q3222.66 2212 3222.66 2217.42 Q3222.66 2223 3219.19 2226.1 Q3215.72 2229.18 3209.4 2229.18 Q3207.22 2229.18 3204.95 2228.81 Q3202.71 2228.44 3200.3 2227.7 L3200.3 2223 Q3202.38 2224.13 3204.6 2224.69 Q3206.83 2225.24 3209.3 2225.24 Q3213.31 2225.24 3215.65 2223.14 Q3217.98 2221.03 3217.98 2217.42 Q3217.98 2213.81 3215.65 2211.7 Q3213.31 2209.6 3209.3 2209.6 Q3207.43 2209.6 3205.55 2210.01 Q3203.7 2210.43 3201.76 2211.31 L3201.76 2193.95 Z" fill="#000000" fill-rule="nonzero" fill-opacity="1" /><path clip-path="url(#clip970)" d="M1819.11 2270.99 L1824.95 2270.99 L1824.95 2314.19 L1819.11 2314.19 L1819.11 2270.99 Z" fill="#000000" fill-rule="nonzero" fill-opacity="1" /><path clip-path="url(#clip970)" d="M1841.62 2272.58 L1841.62 2281.78 L1852.59 2281.78 L1852.59 2285.92 L1841.62 2285.92 L1841.62 2303.51 Q1841.62 2307.47 1842.69 2308.6 Q1843.79 2309.73 1847.12 2309.73 L1852.59 2309.73 L1852.59 2314.19 L1847.12 2314.19 Q1840.95 2314.19 1838.61 2311.9 Q1836.27 2309.59 1836.27 2303.51 L1836.27 2285.92 L1832.36 2285.92 L1832.36 2281.78 L1836.27 2281.78 L1836.27 2272.58 L1841.62 2272.58 Z" fill="#000000" fill-rule="nonzero" fill-opacity="1" /><path clip-path="url(#clip970)" d="M1887.31 2296.65 L1887.31 2299.26 L1862.83 2299.26 Q1863.18 2304.75 1866.13 2307.65 Q1869.11 2310.51 1874.4 2310.51 Q1877.47 2310.51 1880.33 2309.76 Q1883.23 2309.01 1886.06 2307.5 L1886.06 2312.54 Q1883.2 2313.75 1880.19 2314.39 Q1877.18 2315.03 1874.08 2315.03 Q1866.33 2315.03 1861.79 2310.51 Q1857.27 2306 1857.27 2298.3 Q1857.27 2290.35 1861.56 2285.69 Q1865.87 2281 1873.16 2281 Q1879.7 2281 1883.49 2285.22 Q1887.31 2289.42 1887.31 2296.65 M1881.98 2295.09 Q1881.93 2290.72 1879.52 2288.12 Q1877.15 2285.51 1873.22 2285.51 Q1868.76 2285.51 1866.07 2288.03 Q1863.41 2290.55 1863 2295.12 L1881.98 2295.09 Z" fill="#000000" fill-rule="nonzero" fill-opacity="1" /><path clip-path="url(#clip970)" d="M1914.82 2286.76 Q1913.93 2286.24 1912.86 2286 Q1911.82 2285.74 1910.54 2285.74 Q1906.03 2285.74 1903.6 2288.7 Q1901.2 2291.62 1901.2 2297.12 L1901.2 2314.19 L1895.84 2314.19 L1895.84 2281.78 L1901.2 2281.78 L1901.2 2286.82 Q1902.87 2283.86 1905.57 2282.45 Q1908.26 2281 1912.11 2281 Q1912.65 2281 1913.32 2281.09 Q1913.99 2281.14 1914.8 2281.29 L1914.82 2286.76 Z" fill="#000000" fill-rule="nonzero" fill-opacity="1" /><path clip-path="url(#clip970)" d="M1935.14 2297.9 Q1928.68 2297.9 1926.2 2299.37 Q1923.71 2300.85 1923.71 2304.41 Q1923.71 2307.24 1925.56 2308.92 Q1927.44 2310.57 1930.65 2310.57 Q1935.08 2310.57 1937.74 2307.45 Q1940.43 2304.29 1940.43 2299.08 L1940.43 2297.9 L1935.14 2297.9 M1945.76 2295.7 L1945.76 2314.19 L1940.43 2314.19 L1940.43 2309.27 Q1938.61 2312.22 1935.89 2313.64 Q1933.17 2315.03 1929.23 2315.03 Q1924.26 2315.03 1921.31 2312.25 Q1918.38 2309.44 1918.38 2304.75 Q1918.38 2299.29 1922.03 2296.51 Q1925.7 2293.73 1932.97 2293.73 L1940.43 2293.73 L1940.43 2293.21 Q1940.43 2289.54 1938 2287.54 Q1935.6 2285.51 1931.23 2285.51 Q1928.45 2285.51 1925.82 2286.18 Q1923.19 2286.84 1920.76 2288.18 L1920.76 2283.26 Q1923.68 2282.13 1926.43 2281.58 Q1929.18 2281 1931.78 2281 Q1938.81 2281 1942.28 2284.65 Q1945.76 2288.29 1945.76 2295.7 Z" fill="#000000" fill-rule="nonzero" fill-opacity="1" /><path clip-path="url(#clip970)" d="M1961.99 2272.58 L1961.99 2281.78 L1972.96 2281.78 L1972.96 2285.92 L1961.99 2285.92 L1961.99 2303.51 Q1961.99 2307.47 1963.06 2308.6 Q1964.16 2309.73 1967.49 2309.73 L1972.96 2309.73 L1972.96 2314.19 L1967.49 2314.19 Q1961.32 2314.19 1958.98 2311.9 Q1956.64 2309.59 1956.64 2303.51 L1956.64 2285.92 L1952.73 2285.92 L1952.73 2281.78 L1956.64 2281.78 L1956.64 2272.58 L1961.99 2272.58 Z" fill="#000000" fill-rule="nonzero" fill-opacity="1" /><path clip-path="url(#clip970)" d="M1979.96 2281.78 L1985.28 2281.78 L1985.28 2314.19 L1979.96 2314.19 L1979.96 2281.78 M1979.96 2269.16 L1985.28 2269.16 L1985.28 2275.91 L1979.96 2275.91 L1979.96 2269.16 Z" fill="#000000" fill-rule="nonzero" fill-opacity="1" /><path clip-path="url(#clip970)" d="M2008.98 2285.51 Q2004.7 2285.51 2002.21 2288.87 Q1999.72 2292.2 1999.72 2298.01 Q1999.72 2303.83 2002.18 2307.19 Q2004.67 2310.51 2008.98 2310.51 Q2013.23 2310.51 2015.72 2307.16 Q2018.21 2303.8 2018.21 2298.01 Q2018.21 2292.25 2015.72 2288.9 Q2013.23 2285.51 2008.98 2285.51 M2008.98 2281 Q2015.92 2281 2019.89 2285.51 Q2023.85 2290.03 2023.85 2298.01 Q2023.85 2305.97 2019.89 2310.51 Q2015.92 2315.03 2008.98 2315.03 Q2002.01 2315.03 1998.04 2310.51 Q1994.11 2305.97 1994.11 2298.01 Q1994.11 2290.03 1998.04 2285.51 Q2002.01 2281 2008.98 2281 Z" fill="#000000" fill-rule="nonzero" fill-opacity="1" /><path clip-path="url(#clip970)" d="M2059.62 2294.63 L2059.62 2314.19 L2054.29 2314.19 L2054.29 2294.8 Q2054.29 2290.2 2052.5 2287.91 Q2050.7 2285.63 2047.12 2285.63 Q2042.8 2285.63 2040.32 2288.38 Q2037.83 2291.13 2037.83 2295.87 L2037.83 2314.19 L2032.47 2314.19 L2032.47 2281.78 L2037.83 2281.78 L2037.83 2286.82 Q2039.74 2283.89 2042.31 2282.45 Q2044.92 2281 2048.3 2281 Q2053.89 2281 2056.75 2284.47 Q2059.62 2287.91 2059.62 2294.63 Z" fill="#000000" fill-rule="nonzero" fill-opacity="1" /><path clip-path="url(#clip970)" d="M2090.89 2282.74 L2090.89 2287.77 Q2088.64 2286.61 2086.21 2286.03 Q2083.78 2285.46 2081.17 2285.46 Q2077.21 2285.46 2075.21 2286.67 Q2073.24 2287.89 2073.24 2290.32 Q2073.24 2292.17 2074.66 2293.24 Q2076.08 2294.28 2080.36 2295.24 L2082.19 2295.64 Q2087.86 2296.86 2090.23 2299.08 Q2092.63 2301.28 2092.63 2305.25 Q2092.63 2309.76 2089.04 2312.39 Q2085.48 2315.03 2079.23 2315.03 Q2076.63 2315.03 2073.79 2314.51 Q2070.99 2314.01 2067.86 2313 L2067.86 2307.5 Q2070.81 2309.04 2073.68 2309.82 Q2076.54 2310.57 2079.35 2310.57 Q2083.11 2310.57 2085.14 2309.3 Q2087.16 2308 2087.16 2305.65 Q2087.16 2303.48 2085.69 2302.32 Q2084.24 2301.17 2079.29 2300.1 L2077.44 2299.66 Q2072.49 2298.62 2070.29 2296.48 Q2068.09 2294.31 2068.09 2290.55 Q2068.09 2285.98 2071.33 2283.49 Q2074.58 2281 2080.54 2281 Q2083.49 2281 2086.09 2281.43 Q2088.7 2281.87 2090.89 2282.74 Z" fill="#000000" fill-rule="nonzero" fill-opacity="1" /><polyline clip-path="url(#clip970)" style="stroke:#000000; stroke-linecap:round; stroke-linejoin:round; stroke-width:4; stroke-opacity:1; fill:none" points="358.983,2156.51 358.983,246.944 "/>
<polyline clip-path="url(#clip970)" style="stroke:#000000; stroke-linecap:round; stroke-linejoin:round; stroke-width:4; stroke-opacity:1; fill:none" points="358.983,1812.1 377.88,1812.1 "/>
<polyline clip-path="url(#clip970)" style="stroke:#000000; stroke-linecap:round; stroke-linejoin:round; stroke-width:4; stroke-opacity:1; fill:none" points="358.983,1164.23 377.88,1164.23 "/>
<polyline clip-path="url(#clip970)" style="stroke:#000000; stroke-linecap:round; stroke-linejoin:round; stroke-width:4; stroke-opacity:1; fill:none" points="358.983,516.356 377.88,516.356 "/>
<path clip-path="url(#clip970)" d="M167.604 1831.89 L175.242 1831.89 L175.242 1805.52 L166.932 1807.19 L166.932 1802.93 L175.196 1801.26 L179.872 1801.26 L179.872 1831.89 L187.511 1831.89 L187.511 1835.82 L167.604 1835.82 L167.604 1831.89 Z" fill="#000000" fill-rule="nonzero" fill-opacity="1" /><path clip-path="url(#clip970)" d="M206.955 1804.34 Q203.344 1804.34 201.515 1807.91 Q199.71 1811.45 199.71 1818.58 Q199.71 1825.69 201.515 1829.25 Q203.344 1832.79 206.955 1832.79 Q210.589 1832.79 212.395 1829.25 Q214.224 1825.69 214.224 1818.58 Q214.224 1811.45 212.395 1807.91 Q210.589 1804.34 206.955 1804.34 M206.955 1800.64 Q212.765 1800.64 215.821 1805.25 Q218.9 1809.83 218.9 1818.58 Q218.9 1827.31 215.821 1831.91 Q212.765 1836.5 206.955 1836.5 Q201.145 1836.5 198.066 1831.91 Q195.011 1827.31 195.011 1818.58 Q195.011 1809.83 198.066 1805.25 Q201.145 1800.64 206.955 1800.64 Z" fill="#000000" fill-rule="nonzero" fill-opacity="1" /><path clip-path="url(#clip970)" d="M218.9 1794.74 L243.011 1794.74 L243.011 1797.94 L218.9 1797.94 L218.9 1794.74 Z" fill="#000000" fill-rule="nonzero" fill-opacity="1" /><path clip-path="url(#clip970)" d="M259.336 1782.84 Q256.402 1782.84 254.916 1785.73 Q253.449 1788.61 253.449 1794.4 Q253.449 1800.18 254.916 1803.07 Q256.402 1805.95 259.336 1805.95 Q262.289 1805.95 263.756 1803.07 Q265.242 1800.18 265.242 1794.4 Q265.242 1788.61 263.756 1785.73 Q262.289 1782.84 259.336 1782.84 M259.336 1779.83 Q264.057 1779.83 266.54 1783.57 Q269.041 1787.29 269.041 1794.4 Q269.041 1801.49 266.54 1805.24 Q264.057 1808.96 259.336 1808.96 Q254.616 1808.96 252.114 1805.24 Q249.631 1801.49 249.631 1794.4 Q249.631 1787.29 252.114 1783.57 Q254.616 1779.83 259.336 1779.83 Z" fill="#000000" fill-rule="nonzero" fill-opacity="1" /><path clip-path="url(#clip970)" d="M275.718 1803.64 L279.686 1803.64 L279.686 1808.41 L275.718 1808.41 L275.718 1803.64 Z" fill="#000000" fill-rule="nonzero" fill-opacity="1" /><path clip-path="url(#clip970)" d="M287.999 1780.33 L302.914 1780.33 L302.914 1783.53 L291.479 1783.53 L291.479 1790.41 Q292.306 1790.13 293.134 1790 Q293.961 1789.85 294.789 1789.85 Q299.491 1789.85 302.237 1792.43 Q304.983 1795 304.983 1799.4 Q304.983 1803.94 302.162 1806.46 Q299.34 1808.96 294.206 1808.96 Q292.438 1808.96 290.595 1808.66 Q288.77 1808.36 286.814 1807.76 L286.814 1803.94 Q288.507 1804.86 290.313 1805.31 Q292.118 1805.76 294.131 1805.76 Q297.384 1805.76 299.284 1804.05 Q301.184 1802.34 301.184 1799.4 Q301.184 1796.47 299.284 1794.76 Q297.384 1793.05 294.131 1793.05 Q292.607 1793.05 291.084 1793.39 Q289.579 1793.73 287.999 1794.44 L287.999 1780.33 Z" fill="#000000" fill-rule="nonzero" fill-opacity="1" /><path clip-path="url(#clip970)" d="M197.527 1184.02 L205.166 1184.02 L205.166 1157.65 L196.855 1159.32 L196.855 1155.06 L205.119 1153.39 L209.795 1153.39 L209.795 1184.02 L217.434 1184.02 L217.434 1187.95 L197.527 1187.95 L197.527 1184.02 Z" fill="#000000" fill-rule="nonzero" fill-opacity="1" /><path clip-path="url(#clip970)" d="M236.878 1156.47 Q233.267 1156.47 231.439 1160.04 Q229.633 1163.58 229.633 1170.71 Q229.633 1177.81 231.439 1181.38 Q233.267 1184.92 236.878 1184.92 Q240.513 1184.92 242.318 1181.38 Q244.147 1177.81 244.147 1170.71 Q244.147 1163.58 242.318 1160.04 Q240.513 1156.47 236.878 1156.47 M236.878 1152.77 Q242.689 1152.77 245.744 1157.38 Q248.823 1161.96 248.823 1170.71 Q248.823 1179.44 245.744 1184.04 Q242.689 1188.63 236.878 1188.63 Q231.068 1188.63 227.99 1184.04 Q224.934 1179.44 224.934 1170.71 Q224.934 1161.96 227.99 1157.38 Q231.068 1152.77 236.878 1152.77 Z" fill="#000000" fill-rule="nonzero" fill-opacity="1" /><path clip-path="url(#clip970)" d="M258.528 1134.96 Q255.594 1134.96 254.108 1137.86 Q252.641 1140.74 252.641 1146.53 Q252.641 1152.31 254.108 1155.2 Q255.594 1158.08 258.528 1158.08 Q261.48 1158.08 262.947 1155.2 Q264.433 1152.31 264.433 1146.53 Q264.433 1140.74 262.947 1137.86 Q261.48 1134.96 258.528 1134.96 M258.528 1131.96 Q263.248 1131.96 265.731 1135.7 Q268.232 1139.42 268.232 1146.53 Q268.232 1153.62 265.731 1157.36 Q263.248 1161.09 258.528 1161.09 Q253.807 1161.09 251.305 1157.36 Q248.823 1153.62 248.823 1146.53 Q248.823 1139.42 251.305 1135.7 Q253.807 1131.96 258.528 1131.96 Z" fill="#000000" fill-rule="nonzero" fill-opacity="1" /><path clip-path="url(#clip970)" d="M274.909 1155.77 L278.878 1155.77 L278.878 1160.54 L274.909 1160.54 L274.909 1155.77 Z" fill="#000000" fill-rule="nonzero" fill-opacity="1" /><path clip-path="url(#clip970)" d="M295.278 1134.96 Q292.344 1134.96 290.858 1137.86 Q289.391 1140.74 289.391 1146.53 Q289.391 1152.31 290.858 1155.2 Q292.344 1158.08 295.278 1158.08 Q298.231 1158.08 299.698 1155.2 Q301.184 1152.31 301.184 1146.53 Q301.184 1140.74 299.698 1137.86 Q298.231 1134.96 295.278 1134.96 M295.278 1131.96 Q299.999 1131.96 302.481 1135.7 Q304.983 1139.42 304.983 1146.53 Q304.983 1153.62 302.481 1157.36 Q299.999 1161.09 295.278 1161.09 Q290.557 1161.09 288.056 1157.36 Q285.573 1153.62 285.573 1146.53 Q285.573 1139.42 288.056 1135.7 Q290.557 1131.96 295.278 1131.96 Z" fill="#000000" fill-rule="nonzero" fill-opacity="1" /><path clip-path="url(#clip970)" d="M198.335 536.148 L205.974 536.148 L205.974 509.783 L197.664 511.449 L197.664 507.19 L205.928 505.523 L210.604 505.523 L210.604 536.148 L218.243 536.148 L218.243 540.083 L198.335 540.083 L198.335 536.148 Z" fill="#000000" fill-rule="nonzero" fill-opacity="1" /><path clip-path="url(#clip970)" d="M237.687 508.602 Q234.076 508.602 232.247 512.167 Q230.442 515.708 230.442 522.838 Q230.442 529.945 232.247 533.509 Q234.076 537.051 237.687 537.051 Q241.321 537.051 243.127 533.509 Q244.956 529.945 244.956 522.838 Q244.956 515.708 243.127 512.167 Q241.321 508.602 237.687 508.602 M237.687 504.898 Q243.497 504.898 246.553 509.505 Q249.631 514.088 249.631 522.838 Q249.631 531.565 246.553 536.171 Q243.497 540.755 237.687 540.755 Q231.877 540.755 228.798 536.171 Q225.743 531.565 225.743 522.838 Q225.743 514.088 228.798 509.505 Q231.877 504.898 237.687 504.898 Z" fill="#000000" fill-rule="nonzero" fill-opacity="1" /><path clip-path="url(#clip970)" d="M259.336 487.094 Q256.402 487.094 254.916 489.991 Q253.449 492.868 253.449 498.661 Q253.449 504.435 254.916 507.332 Q256.402 510.209 259.336 510.209 Q262.289 510.209 263.756 507.332 Q265.242 504.435 265.242 498.661 Q265.242 492.868 263.756 489.991 Q262.289 487.094 259.336 487.094 M259.336 484.085 Q264.057 484.085 266.54 487.828 Q269.041 491.552 269.041 498.661 Q269.041 505.752 266.54 509.494 Q264.057 513.218 259.336 513.218 Q254.616 513.218 252.114 509.494 Q249.631 505.752 249.631 498.661 Q249.631 491.552 252.114 487.828 Q254.616 484.085 259.336 484.085 Z" fill="#000000" fill-rule="nonzero" fill-opacity="1" /><path clip-path="url(#clip970)" d="M275.718 507.896 L279.686 507.896 L279.686 512.673 L275.718 512.673 L275.718 507.896 Z" fill="#000000" fill-rule="nonzero" fill-opacity="1" /><path clip-path="url(#clip970)" d="M287.999 484.593 L302.914 484.593 L302.914 487.79 L291.479 487.79 L291.479 494.674 Q292.306 494.392 293.134 494.26 Q293.961 494.11 294.789 494.11 Q299.491 494.11 302.237 496.686 Q304.983 499.263 304.983 503.664 Q304.983 508.197 302.162 510.717 Q299.34 513.218 294.206 513.218 Q292.438 513.218 290.595 512.917 Q288.77 512.617 286.814 512.015 L286.814 508.197 Q288.507 509.118 290.313 509.57 Q292.118 510.021 294.131 510.021 Q297.384 510.021 299.284 508.31 Q301.184 506.598 301.184 503.664 Q301.184 500.73 299.284 499.019 Q297.384 497.307 294.131 497.307 Q292.607 497.307 291.084 497.646 Q289.579 497.984 287.999 498.699 L287.999 484.593 Z" fill="#000000" fill-rule="nonzero" fill-opacity="1" /><path clip-path="url(#clip970)" d="M60.0998 1347.25 L66.263 1347.25 Q63.5141 1350.21 62.1542 1353.56 Q60.7943 1356.89 60.7943 1360.65 Q60.7943 1368.06 65.3371 1371.99 Q69.8509 1375.93 78.4157 1375.93 Q86.9515 1375.93 91.4943 1371.99 Q96.0082 1368.06 96.0082 1360.65 Q96.0082 1356.89 94.6482 1353.56 Q93.2883 1350.21 90.5395 1347.25 L96.6448 1347.25 Q98.7281 1350.32 99.7697 1353.77 Q100.811 1357.18 100.811 1361 Q100.811 1370.81 94.8218 1376.45 Q88.8034 1382.09 78.4157 1382.09 Q67.9991 1382.09 62.0095 1376.45 Q55.991 1370.81 55.991 1361 Q55.991 1357.12 57.0327 1353.71 Q58.0454 1350.26 60.0998 1347.25 Z" fill="#000000" fill-rule="nonzero" fill-opacity="1" /><path clip-path="url(#clip970)" d="M61.5755 1332.38 L77.8081 1332.38 L77.8081 1325.03 Q77.8081 1320.95 75.6958 1318.72 Q73.5835 1316.5 69.6773 1316.5 Q65.8 1316.5 63.6878 1318.72 Q61.5755 1320.95 61.5755 1325.03 L61.5755 1332.38 M56.7723 1338.23 L56.7723 1325.03 Q56.7723 1317.77 60.0709 1314.07 Q63.3405 1310.33 69.6773 1310.33 Q76.0719 1310.33 79.3416 1314.07 Q82.6113 1317.77 82.6113 1325.03 L82.6113 1332.38 L99.9723 1332.38 L99.9723 1338.23 L56.7723 1338.23 Z" fill="#000000" fill-rule="nonzero" fill-opacity="1" /><path clip-path="url(#clip970)" d="M56.7723 1303.16 L56.7723 1297.28 L83.0164 1297.28 Q89.9608 1297.28 93.0279 1294.77 Q96.0661 1292.25 96.0661 1286.61 Q96.0661 1280.99 93.0279 1278.48 Q89.9608 1275.96 83.0164 1275.96 L56.7723 1275.96 L56.7723 1270.08 L83.7397 1270.08 Q92.1888 1270.08 96.5001 1274.28 Q100.811 1278.45 100.811 1286.61 Q100.811 1294.8 96.5001 1298.99 Q92.1888 1303.16 83.7397 1303.16 L56.7723 1303.16 Z" fill="#000000" fill-rule="nonzero" fill-opacity="1" /><path clip-path="url(#clip970)" d="M58.3637 1235.25 L67.565 1235.25 L67.565 1224.28 L71.7028 1224.28 L71.7028 1235.25 L89.2953 1235.25 Q93.2594 1235.25 94.3878 1234.18 Q95.5163 1233.08 95.5163 1229.75 L95.5163 1224.28 L99.9723 1224.28 L99.9723 1229.75 Q99.9723 1235.91 97.6864 1238.26 Q95.3716 1240.6 89.2953 1240.6 L71.7028 1240.6 L71.7028 1244.51 L67.565 1244.51 L67.565 1240.6 L58.3637 1240.6 L58.3637 1235.25 Z" fill="#000000" fill-rule="nonzero" fill-opacity="1" /><path clip-path="url(#clip970)" d="M67.565 1217.28 L67.565 1211.95 L99.9723 1211.95 L99.9723 1217.28 L67.565 1217.28 M54.9494 1217.28 L54.9494 1211.95 L61.6912 1211.95 L61.6912 1217.28 L54.9494 1217.28 Z" fill="#000000" fill-rule="nonzero" fill-opacity="1" /><path clip-path="url(#clip970)" d="M73.7861 1175.58 Q70.1981 1173.59 68.491 1170.81 Q66.7838 1168.03 66.7838 1164.27 Q66.7838 1159.21 70.3428 1156.46 Q73.8729 1153.71 80.4122 1153.71 L99.9723 1153.71 L99.9723 1159.06 L80.5858 1159.06 Q75.9273 1159.06 73.6703 1160.71 Q71.4134 1162.36 71.4134 1165.75 Q71.4134 1169.88 74.1622 1172.28 Q76.9111 1174.69 81.6564 1174.69 L99.9723 1174.69 L99.9723 1180.04 L80.5858 1180.04 Q75.8983 1180.04 73.6703 1181.69 Q71.4134 1183.34 71.4134 1186.78 Q71.4134 1190.86 74.1912 1193.26 Q76.94 1195.66 81.6564 1195.66 L99.9723 1195.66 L99.9723 1201.02 L67.565 1201.02 L67.565 1195.66 L72.5997 1195.66 Q69.6194 1193.84 68.2016 1191.29 Q66.7838 1188.75 66.7838 1185.25 Q66.7838 1181.72 68.5778 1179.26 Q70.3717 1176.77 73.7861 1175.58 Z" fill="#000000" fill-rule="nonzero" fill-opacity="1" /><path clip-path="url(#clip970)" d="M82.4377 1115.37 L85.0418 1115.37 L85.0418 1139.85 Q90.5395 1139.5 93.433 1136.55 Q96.2975 1133.57 96.2975 1128.27 Q96.2975 1125.21 95.5452 1122.34 Q94.7929 1119.45 93.2883 1116.61 L98.323 1116.61 Q99.5383 1119.48 100.175 1122.49 Q100.811 1125.5 100.811 1128.59 Q100.811 1136.35 96.2975 1140.89 Q91.7837 1145.4 84.087 1145.4 Q76.1298 1145.4 71.4713 1141.12 Q66.7838 1136.81 66.7838 1129.52 Q66.7838 1122.98 71.0083 1119.19 Q75.2039 1115.37 82.4377 1115.37 M80.8752 1120.69 Q76.506 1120.75 73.9018 1123.15 Q71.2977 1125.53 71.2977 1129.46 Q71.2977 1133.92 73.815 1136.61 Q76.3324 1139.27 80.9041 1139.67 L80.8752 1120.69 Z" fill="#000000" fill-rule="nonzero" fill-opacity="1" /><path clip-path="url(#clip970)" d="M55.0072 1075.01 Q61.6623 1078.88 68.1727 1080.76 Q74.6831 1082.64 81.3671 1082.64 Q88.0511 1082.64 94.6193 1080.76 Q101.159 1078.85 107.785 1075.01 L107.785 1079.63 Q100.985 1083.97 94.4168 1086.15 Q87.8485 1088.29 81.3671 1088.29 Q74.9145 1088.29 68.3752 1086.15 Q61.8359 1084 55.0072 1079.63 L55.0072 1075.01 Z" fill="#000000" fill-rule="nonzero" fill-opacity="1" /><path clip-path="url(#clip970)" d="M68.5199 1044.02 L73.5546 1044.02 Q72.3972 1046.27 71.8185 1048.7 Q71.2398 1051.13 71.2398 1053.74 Q71.2398 1057.7 72.4551 1059.7 Q73.6703 1061.67 76.1009 1061.67 Q77.9527 1061.67 79.0233 1060.25 Q80.065 1058.83 81.0198 1054.55 L81.4249 1052.73 Q82.6402 1047.05 84.8682 1044.68 Q87.0673 1042.28 91.0314 1042.28 Q95.5452 1042.28 98.1783 1045.87 Q100.811 1049.43 100.811 1055.68 Q100.811 1058.28 100.291 1061.12 Q99.7987 1063.92 98.7859 1067.05 L93.2883 1067.05 Q94.8218 1064.1 95.6031 1061.23 Q96.3554 1058.37 96.3554 1055.56 Q96.3554 1051.8 95.0823 1049.77 Q93.7802 1047.75 91.4364 1047.75 Q89.2663 1047.75 88.1089 1049.22 Q86.9515 1050.67 85.8809 1055.62 L85.4469 1057.47 Q84.4052 1062.42 82.264 1064.62 Q80.0939 1066.82 76.3324 1066.82 Q71.7606 1066.82 69.2722 1063.58 Q66.7838 1060.33 66.7838 1054.37 Q66.7838 1051.42 67.2178 1048.82 Q67.6519 1046.21 68.5199 1044.02 Z" fill="#000000" fill-rule="nonzero" fill-opacity="1" /><path clip-path="url(#clip970)" d="M55.0072 1034.64 L55.0072 1030.01 Q61.8359 1025.67 68.3752 1023.53 Q74.9145 1021.36 81.3671 1021.36 Q87.8485 1021.36 94.4168 1023.53 Q100.985 1025.67 107.785 1030.01 L107.785 1034.64 Q101.159 1030.79 94.6193 1028.91 Q88.0511 1027 81.3671 1027 Q74.6831 1027 68.1727 1028.91 Q61.6623 1030.79 55.0072 1034.64 Z" fill="#000000" fill-rule="nonzero" fill-opacity="1" /><path clip-path="url(#clip970)" d="M1279.17 123.984 L1287.35 123.984 L1287.35 184.464 L1279.17 184.464 L1279.17 123.984 Z" fill="#000000" fill-rule="nonzero" fill-opacity="1" /><path clip-path="url(#clip970)" d="M1310.68 126.212 L1310.68 139.094 L1326.03 139.094 L1326.03 144.887 L1310.68 144.887 L1310.68 169.516 Q1310.68 175.066 1312.18 176.646 Q1313.72 178.226 1318.38 178.226 L1326.03 178.226 L1326.03 184.464 L1318.38 184.464 Q1309.75 184.464 1306.47 181.264 Q1303.19 178.023 1303.19 169.516 L1303.19 144.887 L1297.72 144.887 L1297.72 139.094 L1303.19 139.094 L1303.19 126.212 L1310.68 126.212 Z" fill="#000000" fill-rule="nonzero" fill-opacity="1" /><path clip-path="url(#clip970)" d="M1374.65 159.916 L1374.65 163.561 L1340.37 163.561 Q1340.86 171.258 1344.99 175.309 Q1349.17 179.319 1356.58 179.319 Q1360.87 179.319 1364.88 178.266 Q1368.93 177.213 1372.9 175.106 L1372.9 182.155 Q1368.89 183.856 1364.68 184.748 Q1360.47 185.639 1356.13 185.639 Q1345.28 185.639 1338.92 179.319 Q1332.6 173 1332.6 162.225 Q1332.6 151.085 1338.59 144.563 Q1344.63 138 1354.84 138 Q1363.99 138 1369.3 143.914 Q1374.65 149.788 1374.65 159.916 M1367.19 157.728 Q1367.11 151.611 1363.75 147.965 Q1360.43 144.32 1354.92 144.32 Q1348.68 144.32 1344.91 147.844 Q1341.19 151.368 1340.62 157.769 L1367.19 157.728 Z" fill="#000000" fill-rule="nonzero" fill-opacity="1" /><path clip-path="url(#clip970)" d="M1413.17 146.061 Q1411.91 145.332 1410.42 145.008 Q1408.96 144.644 1407.17 144.644 Q1400.85 144.644 1397.45 148.776 Q1394.09 152.867 1394.09 160.564 L1394.09 184.464 L1386.6 184.464 L1386.6 139.094 L1394.09 139.094 L1394.09 146.142 Q1396.44 142.011 1400.21 140.026 Q1403.97 138 1409.36 138 Q1410.13 138 1411.06 138.122 Q1411.99 138.203 1413.13 138.405 L1413.17 146.061 Z" fill="#000000" fill-rule="nonzero" fill-opacity="1" /><path clip-path="url(#clip970)" d="M1441.61 161.657 Q1432.57 161.657 1429.09 163.723 Q1425.61 165.789 1425.61 170.772 Q1425.61 174.742 1428.2 177.091 Q1430.83 179.4 1435.33 179.4 Q1441.53 179.4 1445.25 175.025 Q1449.02 170.61 1449.02 163.318 L1449.02 161.657 L1441.61 161.657 M1456.47 158.579 L1456.47 184.464 L1449.02 184.464 L1449.02 177.577 Q1446.47 181.709 1442.66 183.694 Q1438.85 185.639 1433.34 185.639 Q1426.38 185.639 1422.24 181.75 Q1418.15 177.821 1418.15 171.258 Q1418.15 163.602 1423.26 159.713 Q1428.4 155.824 1438.57 155.824 L1449.02 155.824 L1449.02 155.095 Q1449.02 149.95 1445.62 147.155 Q1442.26 144.32 1436.14 144.32 Q1432.25 144.32 1428.56 145.251 Q1424.88 146.183 1421.47 148.046 L1421.47 141.16 Q1425.57 139.58 1429.41 138.81 Q1433.26 138 1436.91 138 Q1446.75 138 1451.61 143.104 Q1456.47 148.208 1456.47 158.579 Z" fill="#000000" fill-rule="nonzero" fill-opacity="1" /><path clip-path="url(#clip970)" d="M1479.2 126.212 L1479.2 139.094 L1494.55 139.094 L1494.55 144.887 L1479.2 144.887 L1479.2 169.516 Q1479.2 175.066 1480.7 176.646 Q1482.24 178.226 1486.9 178.226 L1494.55 178.226 L1494.55 184.464 L1486.9 184.464 Q1478.27 184.464 1474.99 181.264 Q1471.71 178.023 1471.71 169.516 L1471.71 144.887 L1466.24 144.887 L1466.24 139.094 L1471.71 139.094 L1471.71 126.212 L1479.2 126.212 Z" fill="#000000" fill-rule="nonzero" fill-opacity="1" /><path clip-path="url(#clip970)" d="M1504.36 139.094 L1511.81 139.094 L1511.81 184.464 L1504.36 184.464 L1504.36 139.094 M1504.36 121.432 L1511.81 121.432 L1511.81 130.871 L1504.36 130.871 L1504.36 121.432 Z" fill="#000000" fill-rule="nonzero" fill-opacity="1" /><path clip-path="url(#clip970)" d="M1544.99 144.32 Q1538.99 144.32 1535.51 149.019 Q1532.02 153.677 1532.02 161.819 Q1532.02 169.962 1535.47 174.661 Q1538.95 179.319 1544.99 179.319 Q1550.94 179.319 1554.42 174.62 Q1557.91 169.921 1557.91 161.819 Q1557.91 153.758 1554.42 149.059 Q1550.94 144.32 1544.99 144.32 M1544.99 138 Q1554.71 138 1560.26 144.32 Q1565.81 150.639 1565.81 161.819 Q1565.81 172.959 1560.26 179.319 Q1554.71 185.639 1544.99 185.639 Q1535.22 185.639 1529.67 179.319 Q1524.16 172.959 1524.16 161.819 Q1524.16 150.639 1529.67 144.32 Q1535.22 138 1544.99 138 Z" fill="#000000" fill-rule="nonzero" fill-opacity="1" /><path clip-path="url(#clip970)" d="M1615.88 157.08 L1615.88 184.464 L1608.42 184.464 L1608.42 157.323 Q1608.42 150.882 1605.91 147.682 Q1603.4 144.482 1598.38 144.482 Q1592.34 144.482 1588.86 148.33 Q1585.37 152.178 1585.37 158.822 L1585.37 184.464 L1577.88 184.464 L1577.88 139.094 L1585.37 139.094 L1585.37 146.142 Q1588.05 142.051 1591.65 140.026 Q1595.3 138 1600.04 138 Q1607.86 138 1611.87 142.861 Q1615.88 147.682 1615.88 157.08 Z" fill="#000000" fill-rule="nonzero" fill-opacity="1" /><path clip-path="url(#clip970)" d="M1659.67 140.431 L1659.67 147.479 Q1656.51 145.859 1653.1 145.049 Q1649.7 144.239 1646.06 144.239 Q1640.51 144.239 1637.71 145.94 Q1634.96 147.641 1634.96 151.044 Q1634.96 153.637 1636.94 155.135 Q1638.93 156.594 1644.92 157.931 L1647.47 158.498 Q1655.41 160.199 1658.74 163.318 Q1662.1 166.397 1662.1 171.947 Q1662.1 178.266 1657.07 181.952 Q1652.09 185.639 1643.34 185.639 Q1639.7 185.639 1635.73 184.91 Q1631.8 184.221 1627.42 182.803 L1627.42 175.106 Q1631.55 177.253 1635.56 178.347 Q1639.57 179.4 1643.5 179.4 Q1648.77 179.4 1651.61 177.618 Q1654.44 175.795 1654.44 172.514 Q1654.44 169.476 1652.38 167.855 Q1650.35 166.235 1643.42 164.736 L1640.83 164.128 Q1633.9 162.67 1630.82 159.672 Q1627.75 156.634 1627.75 151.368 Q1627.75 144.968 1632.28 141.484 Q1636.82 138 1645.16 138 Q1649.3 138 1652.94 138.608 Q1656.59 139.215 1659.67 140.431 Z" fill="#000000" fill-rule="nonzero" fill-opacity="1" /><path clip-path="url(#clip970)" d="M1694.99 139.094 L1702.89 139.094 L1717.07 177.172 L1731.25 139.094 L1739.15 139.094 L1722.13 184.464 L1712 184.464 L1694.99 139.094 Z" fill="#000000" fill-rule="nonzero" fill-opacity="1" /><path clip-path="url(#clip970)" d="M1778.36 140.431 L1778.36 147.479 Q1775.2 145.859 1771.8 145.049 Q1768.39 144.239 1764.75 144.239 Q1759.2 144.239 1756.4 145.94 Q1753.65 147.641 1753.65 151.044 Q1753.65 153.637 1755.63 155.135 Q1757.62 156.594 1763.61 157.931 L1766.17 158.498 Q1774.11 160.199 1777.43 163.318 Q1780.79 166.397 1780.79 171.947 Q1780.79 178.266 1775.77 181.952 Q1770.78 185.639 1762.03 185.639 Q1758.39 185.639 1754.42 184.91 Q1750.49 184.221 1746.11 182.803 L1746.11 175.106 Q1750.25 177.253 1754.26 178.347 Q1758.27 179.4 1762.2 179.4 Q1767.46 179.4 1770.3 177.618 Q1773.13 175.795 1773.13 172.514 Q1773.13 169.476 1771.07 167.855 Q1769.04 166.235 1762.11 164.736 L1759.52 164.128 Q1752.59 162.67 1749.52 159.672 Q1746.44 156.634 1746.44 151.368 Q1746.44 144.968 1750.97 141.484 Q1755.51 138 1763.86 138 Q1767.99 138 1771.63 138.608 Q1775.28 139.215 1778.36 140.431 Z" fill="#000000" fill-rule="nonzero" fill-opacity="1" /><path clip-path="url(#clip970)" d="M1864.64 128.643 L1864.64 137.271 Q1860.51 133.423 1855.81 131.519 Q1851.15 129.615 1845.89 129.615 Q1835.52 129.615 1830.01 135.975 Q1824.5 142.294 1824.5 154.285 Q1824.5 166.235 1830.01 172.595 Q1835.52 178.914 1845.89 178.914 Q1851.15 178.914 1855.81 177.01 Q1860.51 175.106 1864.64 171.258 L1864.64 179.805 Q1860.35 182.722 1855.53 184.18 Q1850.75 185.639 1845.4 185.639 Q1831.67 185.639 1823.77 177.253 Q1815.87 168.828 1815.87 154.285 Q1815.87 139.702 1823.77 131.316 Q1831.67 122.89 1845.4 122.89 Q1850.83 122.89 1855.61 124.349 Q1860.43 125.766 1864.64 128.643 Z" fill="#000000" fill-rule="nonzero" fill-opacity="1" /><path clip-path="url(#clip970)" d="M1885.46 130.709 L1885.46 153.434 L1895.75 153.434 Q1901.47 153.434 1904.58 150.477 Q1907.7 147.52 1907.7 142.051 Q1907.7 136.623 1904.58 133.666 Q1901.47 130.709 1895.75 130.709 L1885.46 130.709 M1877.28 123.984 L1895.75 123.984 Q1905.92 123.984 1911.11 128.602 Q1916.33 133.18 1916.33 142.051 Q1916.33 151.004 1911.11 155.581 Q1905.92 160.159 1895.75 160.159 L1885.46 160.159 L1885.46 184.464 L1877.28 184.464 L1877.28 123.984 Z" fill="#000000" fill-rule="nonzero" fill-opacity="1" /><path clip-path="url(#clip970)" d="M1926.38 123.984 L1934.6 123.984 L1934.6 160.726 Q1934.6 170.448 1938.13 174.742 Q1941.65 178.995 1949.55 178.995 Q1957.41 178.995 1960.93 174.742 Q1964.46 170.448 1964.46 160.726 L1964.46 123.984 L1972.68 123.984 L1972.68 161.738 Q1972.68 173.567 1966.81 179.603 Q1960.97 185.639 1949.55 185.639 Q1938.09 185.639 1932.21 179.603 Q1926.38 173.567 1926.38 161.738 L1926.38 123.984 Z" fill="#000000" fill-rule="nonzero" fill-opacity="1" /><path clip-path="url(#clip970)" d="M2021.45 126.212 L2021.45 139.094 L2036.81 139.094 L2036.81 144.887 L2021.45 144.887 L2021.45 169.516 Q2021.45 175.066 2022.95 176.646 Q2024.49 178.226 2029.15 178.226 L2036.81 178.226 L2036.81 184.464 L2029.15 184.464 Q2020.52 184.464 2017.24 181.264 Q2013.96 178.023 2013.96 169.516 L2013.96 144.887 L2008.49 144.887 L2008.49 139.094 L2013.96 139.094 L2013.96 126.212 L2021.45 126.212 Z" fill="#000000" fill-rule="nonzero" fill-opacity="1" /><path clip-path="url(#clip970)" d="M2046.61 139.094 L2054.06 139.094 L2054.06 184.464 L2046.61 184.464 L2046.61 139.094 M2046.61 121.432 L2054.06 121.432 L2054.06 130.871 L2046.61 130.871 L2046.61 121.432 Z" fill="#000000" fill-rule="nonzero" fill-opacity="1" /><path clip-path="url(#clip970)" d="M2104.98 147.803 Q2107.78 142.78 2111.67 140.39 Q2115.56 138 2120.82 138 Q2127.91 138 2131.76 142.983 Q2135.61 147.925 2135.61 157.08 L2135.61 184.464 L2128.11 184.464 L2128.11 157.323 Q2128.11 150.801 2125.8 147.641 Q2123.5 144.482 2118.76 144.482 Q2112.96 144.482 2109.6 148.33 Q2106.24 152.178 2106.24 158.822 L2106.24 184.464 L2098.74 184.464 L2098.74 157.323 Q2098.74 150.76 2096.44 147.641 Q2094.13 144.482 2089.31 144.482 Q2083.59 144.482 2080.23 148.37 Q2076.87 152.219 2076.87 158.822 L2076.87 184.464 L2069.38 184.464 L2069.38 139.094 L2076.87 139.094 L2076.87 146.142 Q2079.42 141.97 2082.99 139.985 Q2086.55 138 2091.45 138 Q2096.4 138 2099.84 140.512 Q2103.32 143.023 2104.98 147.803 Z" fill="#000000" fill-rule="nonzero" fill-opacity="1" /><path clip-path="url(#clip970)" d="M2189.28 159.916 L2189.28 163.561 L2155.01 163.561 Q2155.5 171.258 2159.63 175.309 Q2163.8 179.319 2171.22 179.319 Q2175.51 179.319 2179.52 178.266 Q2183.57 177.213 2187.54 175.106 L2187.54 182.155 Q2183.53 183.856 2179.32 184.748 Q2175.1 185.639 2170.77 185.639 Q2159.91 185.639 2153.55 179.319 Q2147.23 173 2147.23 162.225 Q2147.23 151.085 2153.23 144.563 Q2159.27 138 2169.47 138 Q2178.63 138 2183.94 143.914 Q2189.28 149.788 2189.28 159.916 M2181.83 157.728 Q2181.75 151.611 2178.39 147.965 Q2175.06 144.32 2169.55 144.32 Q2163.32 144.32 2159.55 147.844 Q2155.82 151.368 2155.25 157.769 L2181.83 157.728 Z" fill="#000000" fill-rule="nonzero" fill-opacity="1" /><path clip-path="url(#clip970)" d="M2224.12 158.822 L2298.98 158.822 L2298.98 164.655 L2224.12 164.655 L2224.12 158.822 Z" fill="#000000" fill-rule="nonzero" fill-opacity="1" /><path clip-path="url(#clip970)" d="M2363.51 146.061 Q2362.26 145.332 2360.76 145.008 Q2359.3 144.644 2357.52 144.644 Q2351.2 144.644 2347.79 148.776 Q2344.43 152.867 2344.43 160.564 L2344.43 184.464 L2336.94 184.464 L2336.94 139.094 L2344.43 139.094 L2344.43 146.142 Q2346.78 142.011 2350.55 140.026 Q2354.32 138 2359.7 138 Q2360.47 138 2361.41 138.122 Q2362.34 138.203 2363.47 138.405 L2363.51 146.061 Z" fill="#000000" fill-rule="nonzero" fill-opacity="1" /><path clip-path="url(#clip970)" d="M2387.09 144.32 Q2381.09 144.32 2377.61 149.019 Q2374.13 153.677 2374.13 161.819 Q2374.13 169.962 2377.57 174.661 Q2381.05 179.319 2387.09 179.319 Q2393.04 179.319 2396.53 174.62 Q2400.01 169.921 2400.01 161.819 Q2400.01 153.758 2396.53 149.059 Q2393.04 144.32 2387.09 144.32 M2387.09 138 Q2396.81 138 2402.36 144.32 Q2407.91 150.639 2407.91 161.819 Q2407.91 172.959 2402.36 179.319 Q2396.81 185.639 2387.09 185.639 Q2377.33 185.639 2371.78 179.319 Q2366.27 172.959 2366.27 161.819 Q2366.27 150.639 2371.78 144.32 Q2377.33 138 2387.09 138 Z" fill="#000000" fill-rule="nonzero" fill-opacity="1" /><path clip-path="url(#clip970)" d="M2452.83 161.819 Q2452.83 153.596 2449.43 148.938 Q2446.07 144.239 2440.15 144.239 Q2434.24 144.239 2430.84 148.938 Q2427.48 153.596 2427.48 161.819 Q2427.48 170.043 2430.84 174.742 Q2434.24 179.4 2440.15 179.4 Q2446.07 179.4 2449.43 174.742 Q2452.83 170.043 2452.83 161.819 M2427.48 145.98 Q2429.83 141.93 2433.39 139.985 Q2437 138 2441.98 138 Q2450.24 138 2455.39 144.563 Q2460.57 151.125 2460.57 161.819 Q2460.57 172.514 2455.39 179.076 Q2450.24 185.639 2441.98 185.639 Q2437 185.639 2433.39 183.694 Q2429.83 181.709 2427.48 177.658 L2427.48 184.464 L2419.98 184.464 L2419.98 121.432 L2427.48 121.432 L2427.48 145.98 Z" fill="#000000" fill-rule="nonzero" fill-opacity="1" /><path clip-path="url(#clip970)" d="M2505.5 161.819 Q2505.5 153.596 2502.09 148.938 Q2498.73 144.239 2492.82 144.239 Q2486.9 144.239 2483.5 148.938 Q2480.14 153.596 2480.14 161.819 Q2480.14 170.043 2483.5 174.742 Q2486.9 179.4 2492.82 179.4 Q2498.73 179.4 2502.09 174.742 Q2505.5 170.043 2505.5 161.819 M2480.14 145.98 Q2482.49 141.93 2486.05 139.985 Q2489.66 138 2494.64 138 Q2502.9 138 2508.05 144.563 Q2513.23 151.125 2513.23 161.819 Q2513.23 172.514 2508.05 179.076 Q2502.9 185.639 2494.64 185.639 Q2489.66 185.639 2486.05 183.694 Q2482.49 181.709 2480.14 177.658 L2480.14 184.464 L2472.64 184.464 L2472.64 121.432 L2480.14 121.432 L2480.14 145.98 Z" fill="#000000" fill-rule="nonzero" fill-opacity="1" /><path clip-path="url(#clip970)" d="M2525.59 139.094 L2533.04 139.094 L2533.04 184.464 L2525.59 184.464 L2525.59 139.094 M2525.59 121.432 L2533.04 121.432 L2533.04 130.871 L2525.59 130.871 L2525.59 121.432 Z" fill="#000000" fill-rule="nonzero" fill-opacity="1" /><path clip-path="url(#clip970)" d="M2586.35 157.08 L2586.35 184.464 L2578.9 184.464 L2578.9 157.323 Q2578.9 150.882 2576.39 147.682 Q2573.88 144.482 2568.85 144.482 Q2562.82 144.482 2559.33 148.33 Q2555.85 152.178 2555.85 158.822 L2555.85 184.464 L2548.35 184.464 L2548.35 139.094 L2555.85 139.094 L2555.85 146.142 Q2558.52 142.051 2562.13 140.026 Q2565.77 138 2570.51 138 Q2578.33 138 2582.34 142.861 Q2586.35 147.682 2586.35 157.08 Z" fill="#000000" fill-rule="nonzero" fill-opacity="1" /><path clip-path="url(#clip970)" d="M2630.14 140.431 L2630.14 147.479 Q2626.98 145.859 2623.58 145.049 Q2620.18 144.239 2616.53 144.239 Q2610.98 144.239 2608.19 145.94 Q2605.43 147.641 2605.43 151.044 Q2605.43 153.637 2607.42 155.135 Q2609.4 156.594 2615.4 157.931 L2617.95 158.498 Q2625.89 160.199 2629.21 163.318 Q2632.57 166.397 2632.57 171.947 Q2632.57 178.266 2627.55 181.952 Q2622.57 185.639 2613.82 185.639 Q2610.17 185.639 2606.2 184.91 Q2602.27 184.221 2597.9 182.803 L2597.9 175.106 Q2602.03 177.253 2606.04 178.347 Q2610.05 179.4 2613.98 179.4 Q2619.25 179.4 2622.08 177.618 Q2624.92 175.795 2624.92 172.514 Q2624.92 169.476 2622.85 167.855 Q2620.83 166.235 2613.9 164.736 L2611.31 164.128 Q2604.38 162.67 2601.3 159.672 Q2598.22 156.634 2598.22 151.368 Q2598.22 144.968 2602.76 141.484 Q2607.3 138 2615.64 138 Q2619.77 138 2623.42 138.608 Q2627.06 139.215 2630.14 140.431 Z" fill="#000000" fill-rule="nonzero" fill-opacity="1" /><path clip-path="url(#clip972)" d="M981.077 2078.46 L957.077 2126.46 L1005.08 2126.46 L981.077 2078.46 Z" fill="#ffa500" fill-rule="evenodd" fill-opacity="1" stroke="none"/>
<path clip-path="url(#clip972)" d="M3373.75 651.089 L3349.75 699.089 L3397.75 699.089 L3373.75 651.089 Z" fill="#ffa500" fill-rule="evenodd" fill-opacity="1" stroke="none"/>
<path clip-path="url(#clip972)" d="M2576.19 276.989 L2552.19 324.989 L2600.19 324.989 L2576.19 276.989 Z" fill="#ffa500" fill-rule="evenodd" fill-opacity="1" stroke="none"/>
<path clip-path="url(#clip972)" d="M449.373 1892.52 L428.589 1880.52 L428.589 1856.52 L449.373 1844.52 L470.157 1856.52 L470.157 1880.52 Z" fill="#00ffff" fill-rule="evenodd" fill-opacity="1" stroke="none"/>
<path clip-path="url(#clip972)" d="M715.225 1725.42 L694.441 1713.42 L694.441 1689.42 L715.225 1677.42 L736.009 1689.42 L736.009 1713.42 Z" fill="#00ffff" fill-rule="evenodd" fill-opacity="1" stroke="none"/>
<path clip-path="url(#clip972)" d="M3462.37 1334.58 L3441.58 1322.58 L3441.58 1298.58 L3462.37 1286.58 L3483.15 1298.58 L3483.15 1322.58 Z" fill="#00ffff" fill-rule="evenodd" fill-opacity="1" stroke="none"/>
<path clip-path="url(#clip970)" d="M2689.93 466.116 L3446.3 466.116 L3446.3 310.596 L2689.93 310.596  Z" fill="#ffffff" fill-rule="evenodd" fill-opacity="1"/>
<polyline clip-path="url(#clip970)" style="stroke:#000000; stroke-linecap:round; stroke-linejoin:round; stroke-width:4; stroke-opacity:1; fill:none" points="2689.93,466.116 3446.3,466.116 3446.3,310.596 2689.93,310.596 2689.93,466.116 "/>
<path clip-path="url(#clip970)" d="M2831.88 336.836 L2806.28 388.036 L2857.48 388.036 L2831.88 336.836 Z" fill="#ffa500" fill-rule="evenodd" fill-opacity="1" stroke="none"/>
<path clip-path="url(#clip970)" d="M2984.45 343.744 Q2981.35 349.068 2979.84 354.277 Q2978.34 359.485 2978.34 364.832 Q2978.34 370.179 2979.84 375.434 Q2981.37 380.665 2984.45 385.966 L2980.74 385.966 Q2977.27 380.527 2975.53 375.272 Q2973.82 370.017 2973.82 364.832 Q2973.82 359.67 2975.53 354.439 Q2977.25 349.207 2980.74 343.744 L2984.45 343.744 Z" fill="#000000" fill-rule="nonzero" fill-opacity="1" /><path clip-path="url(#clip970)" d="M3014.89 365.689 L3014.89 367.772 L2995.3 367.772 Q2995.58 372.17 2997.94 374.485 Q3000.33 376.777 3004.56 376.777 Q3007.02 376.777 3009.31 376.175 Q3011.62 375.573 3013.89 374.369 L3013.89 378.397 Q3011.6 379.369 3009.19 379.878 Q3006.78 380.388 3004.31 380.388 Q2998.1 380.388 2994.47 376.777 Q2990.86 373.165 2990.86 367.008 Q2990.86 360.642 2994.28 356.916 Q2997.73 353.166 3003.57 353.166 Q3008.8 353.166 3011.83 356.545 Q3014.89 359.902 3014.89 365.689 M3010.63 364.439 Q3010.58 360.943 3008.66 358.86 Q3006.76 356.777 3003.61 356.777 Q3000.05 356.777 2997.9 358.791 Q2995.77 360.804 2995.44 364.462 L3010.63 364.439 Z" fill="#000000" fill-rule="nonzero" fill-opacity="1" /><path clip-path="url(#clip970)" d="M3042.59 353.791 L3033.22 366.406 L3043.08 379.716 L3038.06 379.716 L3030.51 369.531 L3022.97 379.716 L3017.94 379.716 L3028.01 366.152 L3018.8 353.791 L3023.82 353.791 L3030.7 363.027 L3037.57 353.791 L3042.59 353.791 Z" fill="#000000" fill-rule="nonzero" fill-opacity="1" /><path clip-path="url(#clip970)" d="M3060.88 366.684 Q3055.72 366.684 3053.73 367.865 Q3051.74 369.045 3051.74 371.892 Q3051.74 374.161 3053.22 375.503 Q3054.72 376.823 3057.29 376.823 Q3060.84 376.823 3062.97 374.323 Q3065.12 371.8 3065.12 367.633 L3065.12 366.684 L3060.88 366.684 M3069.38 364.925 L3069.38 379.716 L3065.12 379.716 L3065.12 375.781 Q3063.66 378.142 3061.48 379.277 Q3059.31 380.388 3056.16 380.388 Q3052.18 380.388 3049.82 378.165 Q3047.48 375.92 3047.48 372.17 Q3047.48 367.795 3050.4 365.573 Q3053.34 363.351 3059.15 363.351 L3065.12 363.351 L3065.12 362.934 Q3065.12 359.994 3063.17 358.397 Q3061.25 356.777 3057.76 356.777 Q3055.53 356.777 3053.43 357.309 Q3051.32 357.841 3049.38 358.906 L3049.38 354.971 Q3051.72 354.068 3053.91 353.629 Q3056.11 353.166 3058.2 353.166 Q3063.82 353.166 3066.6 356.082 Q3069.38 358.999 3069.38 364.925 Z" fill="#000000" fill-rule="nonzero" fill-opacity="1" /><path clip-path="url(#clip970)" d="M3079.24 373.837 L3084.12 373.837 L3084.12 377.818 L3080.33 385.226 L3077.34 385.226 L3079.24 377.818 L3079.24 373.837 Z" fill="#000000" fill-rule="nonzero" fill-opacity="1" /><path clip-path="url(#clip970)" d="M3128.47 358.767 Q3130.07 355.897 3132.29 354.531 Q3134.52 353.166 3137.52 353.166 Q3141.58 353.166 3143.77 356.013 Q3145.97 358.837 3145.97 364.068 L3145.97 379.716 L3141.69 379.716 L3141.69 364.207 Q3141.69 360.48 3140.37 358.675 Q3139.05 356.869 3136.34 356.869 Q3133.03 356.869 3131.11 359.068 Q3129.19 361.267 3129.19 365.064 L3129.19 379.716 L3124.91 379.716 L3124.91 364.207 Q3124.91 360.457 3123.59 358.675 Q3122.27 356.869 3119.52 356.869 Q3116.25 356.869 3114.33 359.091 Q3112.41 361.291 3112.41 365.064 L3112.41 379.716 L3108.13 379.716 L3108.13 353.791 L3112.41 353.791 L3112.41 357.818 Q3113.87 355.434 3115.9 354.3 Q3117.94 353.166 3120.74 353.166 Q3123.57 353.166 3125.53 354.601 Q3127.52 356.036 3128.47 358.767 Z" fill="#000000" fill-rule="nonzero" fill-opacity="1" /><path clip-path="url(#clip970)" d="M3166.25 366.684 Q3161.09 366.684 3159.1 367.865 Q3157.11 369.045 3157.11 371.892 Q3157.11 374.161 3158.59 375.503 Q3160.09 376.823 3162.66 376.823 Q3166.21 376.823 3168.33 374.323 Q3170.49 371.8 3170.49 367.633 L3170.49 366.684 L3166.25 366.684 M3174.75 364.925 L3174.75 379.716 L3170.49 379.716 L3170.49 375.781 Q3169.03 378.142 3166.85 379.277 Q3164.68 380.388 3161.53 380.388 Q3157.55 380.388 3155.19 378.165 Q3152.85 375.92 3152.85 372.17 Q3152.85 367.795 3155.77 365.573 Q3158.71 363.351 3164.52 363.351 L3170.49 363.351 L3170.49 362.934 Q3170.49 359.994 3168.54 358.397 Q3166.62 356.777 3163.13 356.777 Q3160.9 356.777 3158.8 357.309 Q3156.69 357.841 3154.75 358.906 L3154.75 354.971 Q3157.08 354.068 3159.28 353.629 Q3161.48 353.166 3163.57 353.166 Q3169.19 353.166 3171.97 356.082 Q3174.75 358.999 3174.75 364.925 Z" fill="#000000" fill-rule="nonzero" fill-opacity="1" /><path clip-path="url(#clip970)" d="M3200.58 357.726 L3200.58 343.698 L3204.84 343.698 L3204.84 379.716 L3200.58 379.716 L3200.58 375.827 Q3199.24 378.142 3197.18 379.277 Q3195.14 380.388 3192.27 380.388 Q3187.57 380.388 3184.61 376.638 Q3181.67 372.888 3181.67 366.777 Q3181.67 360.666 3184.61 356.916 Q3187.57 353.166 3192.27 353.166 Q3195.14 353.166 3197.18 354.3 Q3199.24 355.411 3200.58 357.726 M3186.07 366.777 Q3186.07 371.476 3187.99 374.161 Q3189.93 376.823 3193.31 376.823 Q3196.69 376.823 3198.64 374.161 Q3200.58 371.476 3200.58 366.777 Q3200.58 362.078 3198.64 359.416 Q3196.69 356.73 3193.31 356.73 Q3189.93 356.73 3187.99 359.416 Q3186.07 362.078 3186.07 366.777 Z" fill="#000000" fill-rule="nonzero" fill-opacity="1" /><path clip-path="url(#clip970)" d="M3235.16 364.068 L3235.16 379.716 L3230.9 379.716 L3230.9 364.207 Q3230.9 360.527 3229.47 358.698 Q3228.03 356.869 3225.16 356.869 Q3221.71 356.869 3219.72 359.068 Q3217.73 361.267 3217.73 365.064 L3217.73 379.716 L3213.45 379.716 L3213.45 353.791 L3217.73 353.791 L3217.73 357.818 Q3219.26 355.48 3221.32 354.323 Q3223.4 353.166 3226.11 353.166 Q3230.58 353.166 3232.87 355.943 Q3235.16 358.698 3235.16 364.068 Z" fill="#000000" fill-rule="nonzero" fill-opacity="1" /><path clip-path="url(#clip970)" d="M3243.66 343.698 L3247.92 343.698 L3247.92 379.716 L3243.66 379.716 L3243.66 343.698 Z" fill="#000000" fill-rule="nonzero" fill-opacity="1" /><path clip-path="url(#clip970)" d="M3260.95 375.827 L3260.95 389.577 L3256.67 389.577 L3256.67 353.791 L3260.95 353.791 L3260.95 357.726 Q3262.29 355.411 3264.33 354.3 Q3266.39 353.166 3269.24 353.166 Q3273.96 353.166 3276.9 356.916 Q3279.86 360.666 3279.86 366.777 Q3279.86 372.888 3276.9 376.638 Q3273.96 380.388 3269.24 380.388 Q3266.39 380.388 3264.33 379.277 Q3262.29 378.142 3260.95 375.827 M3275.44 366.777 Q3275.44 362.078 3273.5 359.416 Q3271.58 356.73 3268.2 356.73 Q3264.82 356.73 3262.87 359.416 Q3260.95 362.078 3260.95 366.777 Q3260.95 371.476 3262.87 374.161 Q3264.82 376.823 3268.2 376.823 Q3271.58 376.823 3273.5 374.161 Q3275.44 371.476 3275.44 366.777 Z" fill="#000000" fill-rule="nonzero" fill-opacity="1" /><path clip-path="url(#clip970)" d="M3286.25 343.744 L3289.95 343.744 Q3293.43 349.207 3295.14 354.439 Q3296.88 359.67 3296.88 364.832 Q3296.88 370.017 3295.14 375.272 Q3293.43 380.527 3289.95 385.966 L3286.25 385.966 Q3289.33 380.665 3290.83 375.434 Q3292.36 370.179 3292.36 364.832 Q3292.36 359.485 3290.83 354.277 Q3289.33 349.068 3286.25 343.744 Z" fill="#000000" fill-rule="nonzero" fill-opacity="1" /><path clip-path="url(#clip970)" d="M2831.88 439.876 L2809.71 427.076 L2809.71 401.476 L2831.88 388.676 L2854.05 401.476 L2854.05 427.076 Z" fill="#00ffff" fill-rule="evenodd" fill-opacity="1" stroke="none"/>
<path clip-path="url(#clip970)" d="M2984.45 395.584 Q2981.35 400.908 2979.84 406.117 Q2978.34 411.325 2978.34 416.672 Q2978.34 422.019 2979.84 427.274 Q2981.37 432.505 2984.45 437.806 L2980.74 437.806 Q2977.27 432.367 2975.53 427.112 Q2973.82 421.857 2973.82 416.672 Q2973.82 411.51 2975.53 406.279 Q2977.25 401.047 2980.74 395.584 L2984.45 395.584 Z" fill="#000000" fill-rule="nonzero" fill-opacity="1" /><path clip-path="url(#clip970)" d="M3014.89 417.529 L3014.89 419.612 L2995.3 419.612 Q2995.58 424.01 2997.94 426.325 Q3000.33 428.617 3004.56 428.617 Q3007.02 428.617 3009.31 428.015 Q3011.62 427.413 3013.89 426.209 L3013.89 430.237 Q3011.6 431.209 3009.19 431.718 Q3006.78 432.228 3004.31 432.228 Q2998.1 432.228 2994.47 428.617 Q2990.86 425.005 2990.86 418.848 Q2990.86 412.482 2994.28 408.756 Q2997.73 405.006 3003.57 405.006 Q3008.8 405.006 3011.83 408.385 Q3014.89 411.742 3014.89 417.529 M3010.63 416.279 Q3010.58 412.783 3008.66 410.7 Q3006.76 408.617 3003.61 408.617 Q3000.05 408.617 2997.9 410.631 Q2995.77 412.644 2995.44 416.302 L3010.63 416.279 Z" fill="#000000" fill-rule="nonzero" fill-opacity="1" /><path clip-path="url(#clip970)" d="M3042.59 405.631 L3033.22 418.246 L3043.08 431.556 L3038.06 431.556 L3030.51 421.371 L3022.97 431.556 L3017.94 431.556 L3028.01 417.992 L3018.8 405.631 L3023.82 405.631 L3030.7 414.867 L3037.57 405.631 L3042.59 405.631 Z" fill="#000000" fill-rule="nonzero" fill-opacity="1" /><path clip-path="url(#clip970)" d="M3060.88 418.524 Q3055.72 418.524 3053.73 419.705 Q3051.74 420.885 3051.74 423.732 Q3051.74 426.001 3053.22 427.343 Q3054.72 428.663 3057.29 428.663 Q3060.84 428.663 3062.97 426.163 Q3065.12 423.64 3065.12 419.473 L3065.12 418.524 L3060.88 418.524 M3069.38 416.765 L3069.38 431.556 L3065.12 431.556 L3065.12 427.621 Q3063.66 429.982 3061.48 431.117 Q3059.31 432.228 3056.16 432.228 Q3052.18 432.228 3049.82 430.005 Q3047.48 427.76 3047.48 424.01 Q3047.48 419.635 3050.4 417.413 Q3053.34 415.191 3059.15 415.191 L3065.12 415.191 L3065.12 414.774 Q3065.12 411.834 3063.17 410.237 Q3061.25 408.617 3057.76 408.617 Q3055.53 408.617 3053.43 409.149 Q3051.32 409.681 3049.38 410.746 L3049.38 406.811 Q3051.72 405.908 3053.91 405.469 Q3056.11 405.006 3058.2 405.006 Q3063.82 405.006 3066.6 407.922 Q3069.38 410.839 3069.38 416.765 Z" fill="#000000" fill-rule="nonzero" fill-opacity="1" /><path clip-path="url(#clip970)" d="M3097.85 439.427 L3097.85 442.737 L3073.22 442.737 L3073.22 439.427 L3097.85 439.427 Z" fill="#000000" fill-rule="nonzero" fill-opacity="1" /><path clip-path="url(#clip970)" d="M3118.91 418.293 Q3118.91 413.663 3116.99 411.117 Q3115.09 408.57 3111.65 408.57 Q3108.22 408.57 3106.3 411.117 Q3104.4 413.663 3104.4 418.293 Q3104.4 422.899 3106.3 425.445 Q3108.22 427.992 3111.65 427.992 Q3115.09 427.992 3116.99 425.445 Q3118.91 422.899 3118.91 418.293 M3123.17 428.339 Q3123.17 434.959 3120.23 438.177 Q3117.29 441.417 3111.23 441.417 Q3108.98 441.417 3106.99 441.07 Q3105 440.746 3103.13 440.052 L3103.13 435.908 Q3105 436.927 3106.83 437.413 Q3108.66 437.899 3110.56 437.899 Q3114.75 437.899 3116.83 435.7 Q3118.91 433.524 3118.91 429.103 L3118.91 426.996 Q3117.59 429.288 3115.53 430.422 Q3113.47 431.556 3110.6 431.556 Q3105.84 431.556 3102.92 427.922 Q3100 424.288 3100 418.293 Q3100 412.274 3102.92 408.64 Q3105.84 405.006 3110.6 405.006 Q3113.47 405.006 3115.53 406.14 Q3117.59 407.274 3118.91 409.566 L3118.91 405.631 L3123.17 405.631 L3123.17 428.339 Z" fill="#000000" fill-rule="nonzero" fill-opacity="1" /><path clip-path="url(#clip970)" d="M3136.07 427.667 L3136.07 441.417 L3131.78 441.417 L3131.78 405.631 L3136.07 405.631 L3136.07 409.566 Q3137.41 407.251 3139.45 406.14 Q3141.51 405.006 3144.35 405.006 Q3149.08 405.006 3152.02 408.756 Q3154.98 412.506 3154.98 418.617 Q3154.98 424.728 3152.02 428.478 Q3149.08 432.228 3144.35 432.228 Q3141.51 432.228 3139.45 431.117 Q3137.41 429.982 3136.07 427.667 M3150.56 418.617 Q3150.56 413.918 3148.61 411.256 Q3146.69 408.57 3143.31 408.57 Q3139.93 408.57 3137.99 411.256 Q3136.07 413.918 3136.07 418.617 Q3136.07 423.316 3137.99 426.001 Q3139.93 428.663 3143.31 428.663 Q3146.69 428.663 3148.61 426.001 Q3150.56 423.316 3150.56 418.617 Z" fill="#000000" fill-rule="nonzero" fill-opacity="1" /><path clip-path="url(#clip970)" d="M3161.6 421.325 L3161.6 405.631 L3165.86 405.631 L3165.86 421.163 Q3165.86 424.843 3167.29 426.695 Q3168.73 428.524 3171.6 428.524 Q3175.05 428.524 3177.04 426.325 Q3179.05 424.126 3179.05 420.33 L3179.05 405.631 L3183.31 405.631 L3183.31 431.556 L3179.05 431.556 L3179.05 427.575 Q3177.5 429.936 3175.44 431.093 Q3173.4 432.228 3170.7 432.228 Q3166.23 432.228 3163.91 429.45 Q3161.6 426.672 3161.6 421.325 M3172.32 405.006 L3172.32 405.006 Z" fill="#000000" fill-rule="nonzero" fill-opacity="1" /><path clip-path="url(#clip970)" d="M3193.17 425.677 L3198.06 425.677 L3198.06 429.658 L3194.26 437.066 L3191.27 437.066 L3193.17 429.658 L3193.17 425.677 Z" fill="#000000" fill-rule="nonzero" fill-opacity="1" /><path clip-path="url(#clip970)" d="M3242.41 410.607 Q3244.01 407.737 3246.23 406.371 Q3248.45 405.006 3251.46 405.006 Q3255.51 405.006 3257.71 407.853 Q3259.91 410.677 3259.91 415.908 L3259.91 431.556 L3255.63 431.556 L3255.63 416.047 Q3255.63 412.32 3254.31 410.515 Q3252.99 408.709 3250.28 408.709 Q3246.97 408.709 3245.05 410.908 Q3243.13 413.107 3243.13 416.904 L3243.13 431.556 L3238.84 431.556 L3238.84 416.047 Q3238.84 412.297 3237.52 410.515 Q3236.2 408.709 3233.45 408.709 Q3230.19 408.709 3228.27 410.931 Q3226.34 413.131 3226.34 416.904 L3226.34 431.556 L3222.06 431.556 L3222.06 405.631 L3226.34 405.631 L3226.34 409.658 Q3227.8 407.274 3229.84 406.14 Q3231.88 405.006 3234.68 405.006 Q3237.5 405.006 3239.47 406.441 Q3241.46 407.876 3242.41 410.607 Z" fill="#000000" fill-rule="nonzero" fill-opacity="1" /><path clip-path="url(#clip970)" d="M3280.19 418.524 Q3275.02 418.524 3273.03 419.705 Q3271.04 420.885 3271.04 423.732 Q3271.04 426.001 3272.52 427.343 Q3274.03 428.663 3276.6 428.663 Q3280.14 428.663 3282.27 426.163 Q3284.42 423.64 3284.42 419.473 L3284.42 418.524 L3280.19 418.524 M3288.68 416.765 L3288.68 431.556 L3284.42 431.556 L3284.42 427.621 Q3282.96 429.982 3280.79 431.117 Q3278.61 432.228 3275.46 432.228 Q3271.48 432.228 3269.12 430.005 Q3266.78 427.76 3266.78 424.01 Q3266.78 419.635 3269.7 417.413 Q3272.64 415.191 3278.45 415.191 L3284.42 415.191 L3284.42 414.774 Q3284.42 411.834 3282.48 410.237 Q3280.56 408.617 3277.06 408.617 Q3274.84 408.617 3272.73 409.149 Q3270.63 409.681 3268.68 410.746 L3268.68 406.811 Q3271.02 405.908 3273.22 405.469 Q3275.42 405.006 3277.5 405.006 Q3283.13 405.006 3285.9 407.922 Q3288.68 410.839 3288.68 416.765 Z" fill="#000000" fill-rule="nonzero" fill-opacity="1" /><path clip-path="url(#clip970)" d="M3314.51 409.566 L3314.51 395.538 L3318.77 395.538 L3318.77 431.556 L3314.51 431.556 L3314.51 427.667 Q3313.17 429.982 3311.11 431.117 Q3309.07 432.228 3306.2 432.228 Q3301.51 432.228 3298.54 428.478 Q3295.6 424.728 3295.6 418.617 Q3295.6 412.506 3298.54 408.756 Q3301.51 405.006 3306.2 405.006 Q3309.07 405.006 3311.11 406.14 Q3313.17 407.251 3314.51 409.566 M3300 418.617 Q3300 423.316 3301.92 426.001 Q3303.87 428.663 3307.25 428.663 Q3310.63 428.663 3312.57 426.001 Q3314.51 423.316 3314.51 418.617 Q3314.51 413.918 3312.57 411.256 Q3310.63 408.57 3307.25 408.57 Q3303.87 408.57 3301.92 411.256 Q3300 413.918 3300 418.617 Z" fill="#000000" fill-rule="nonzero" fill-opacity="1" /><path clip-path="url(#clip970)" d="M3349.1 415.908 L3349.1 431.556 L3344.84 431.556 L3344.84 416.047 Q3344.84 412.367 3343.4 410.538 Q3341.97 408.709 3339.1 408.709 Q3335.65 408.709 3333.66 410.908 Q3331.67 413.107 3331.67 416.904 L3331.67 431.556 L3327.38 431.556 L3327.38 405.631 L3331.67 405.631 L3331.67 409.658 Q3333.2 407.32 3335.26 406.163 Q3337.34 405.006 3340.05 405.006 Q3344.51 405.006 3346.81 407.783 Q3349.1 410.538 3349.1 415.908 Z" fill="#000000" fill-rule="nonzero" fill-opacity="1" /><path clip-path="url(#clip970)" d="M3357.59 395.538 L3361.85 395.538 L3361.85 431.556 L3357.59 431.556 L3357.59 395.538 Z" fill="#000000" fill-rule="nonzero" fill-opacity="1" /><path clip-path="url(#clip970)" d="M3374.88 427.667 L3374.88 441.417 L3370.6 441.417 L3370.6 405.631 L3374.88 405.631 L3374.88 409.566 Q3376.23 407.251 3378.26 406.14 Q3380.32 405.006 3383.17 405.006 Q3387.89 405.006 3390.83 408.756 Q3393.8 412.506 3393.8 418.617 Q3393.8 424.728 3390.83 428.478 Q3387.89 432.228 3383.17 432.228 Q3380.32 432.228 3378.26 431.117 Q3376.23 429.982 3374.88 427.667 M3389.38 418.617 Q3389.38 413.918 3387.43 411.256 Q3385.51 408.57 3382.13 408.57 Q3378.75 408.57 3376.81 411.256 Q3374.88 413.918 3374.88 418.617 Q3374.88 423.316 3376.81 426.001 Q3378.75 428.663 3382.13 428.663 Q3385.51 428.663 3387.43 426.001 Q3389.38 423.316 3389.38 418.617 Z" fill="#000000" fill-rule="nonzero" fill-opacity="1" /><path clip-path="url(#clip970)" d="M3400.19 395.584 L3403.89 395.584 Q3407.36 401.047 3409.07 406.279 Q3410.81 411.51 3410.81 416.672 Q3410.81 421.857 3409.07 427.112 Q3407.36 432.367 3403.89 437.806 L3400.19 437.806 Q3403.26 432.505 3404.77 427.274 Q3406.3 422.019 3406.3 416.672 Q3406.3 411.325 3404.77 406.117 Q3403.26 400.908 3400.19 395.584 Z" fill="#000000" fill-rule="nonzero" fill-opacity="1" /></svg>
