<?xml version="1.0" encoding="utf-8"?>
<svg xmlns="http://www.w3.org/2000/svg" xmlns:xlink="http://www.w3.org/1999/xlink" width="900" height="600" viewBox="0 0 3600 2400">
<defs>
  <clipPath id="clip020">
    <rect x="0" y="0" width="3600" height="2400"/>
  </clipPath>
</defs>
<path clip-path="url(#clip020)" d="M0 2400 L3600 2400 L3600 0 L0 0  Z" fill="#ffffff" fill-rule="evenodd" fill-opacity="1"/>
<defs>
  <clipPath id="clip021">
    <rect x="359" y="246" width="3194" height="1911"/>
  </clipPath>
</defs>
<path clip-path="url(#clip020)" d="M290.052 2156.51 L3552.76 2156.51 L3552.76 246.944 L290.052 246.944  Z" fill="#ffffff" fill-rule="evenodd" fill-opacity="1"/>
<defs>
  <clipPath id="clip022">
    <rect x="290" y="246" width="3264" height="1911"/>
  </clipPath>
</defs>
<polyline clip-path="url(#clip022)" style="stroke:#000000; stroke-linecap:round; stroke-linejoin:round; stroke-width:2; stroke-opacity:0.1; fill:none" points="604.96,2156.51 604.96,246.944 "/>
<polyline clip-path="url(#clip022)" style="stroke:#000000; stroke-linecap:round; stroke-linejoin:round; stroke-width:2; stroke-opacity:0.1; fill:none" points="1921.4,2156.51 1921.4,246.944 "/>
<polyline clip-path="url(#clip022)" style="stroke:#000000; stroke-linecap:round; stroke-linejoin:round; stroke-width:2; stroke-opacity:0.1; fill:none" points="3237.85,2156.51 3237.85,246.944 "/>
<polyline clip-path="url(#clip022)" style="stroke:#000000; stroke-linecap:round; stroke-linejoin:round; stroke-width:2; stroke-opacity:0.1; fill:none" points="290.052,2156.51 3552.76,2156.51 "/>
<polyline clip-path="url(#clip022)" style="stroke:#000000; stroke-linecap:round; stroke-linejoin:round; stroke-width:2; stroke-opacity:0.1; fill:none" points="290.052,1583.19 3552.76,1583.19 "/>
<polyline clip-path="url(#clip022)" style="stroke:#000000; stroke-linecap:round; stroke-linejoin:round; stroke-width:2; stroke-opacity:0.1; fill:none" points="290.052,1009.87 3552.76,1009.87 "/>
<polyline clip-path="url(#clip022)" style="stroke:#000000; stroke-linecap:round; stroke-linejoin:round; stroke-width:2; stroke-opacity:0.1; fill:none" points="290.052,436.558 3552.76,436.558 "/>
<polyline clip-path="url(#clip020)" style="stroke:#000000; stroke-linecap:round; stroke-linejoin:round; stroke-width:4; stroke-opacity:1; fill:none" points="290.052,2156.51 3552.76,2156.51 "/>
<polyline clip-path="url(#clip020)" style="stroke:#000000; stroke-linecap:round; stroke-linejoin:round; stroke-width:4; stroke-opacity:1; fill:none" points="604.96,2156.51 604.96,2137.61 "/>
<polyline clip-path="url(#clip020)" style="stroke:#000000; stroke-linecap:round; stroke-linejoin:round; stroke-width:4; stroke-opacity:1; fill:none" points="1921.4,2156.51 1921.4,2137.61 "/>
<polyline clip-path="url(#clip020)" style="stroke:#000000; stroke-linecap:round; stroke-linejoin:round; stroke-width:4; stroke-opacity:1; fill:none" points="3237.85,2156.51 3237.85,2137.61 "/>
<path clip-path="url(#clip020)" d="M549.486 2224.57 L557.124 2224.57 L557.124 2198.21 L548.814 2199.87 L548.814 2195.61 L557.078 2193.95 L561.754 2193.95 L561.754 2224.57 L569.393 2224.57 L569.393 2228.51 L549.486 2228.51 L549.486 2224.57 Z" fill="#000000" fill-rule="nonzero" fill-opacity="1" /><path clip-path="url(#clip020)" d="M588.837 2197.03 Q585.226 2197.03 583.397 2200.59 Q581.592 2204.13 581.592 2211.26 Q581.592 2218.37 583.397 2221.93 Q585.226 2225.48 588.837 2225.48 Q592.471 2225.48 594.277 2221.93 Q596.106 2218.37 596.106 2211.26 Q596.106 2204.13 594.277 2200.59 Q592.471 2197.03 588.837 2197.03 M588.837 2193.32 Q594.647 2193.32 597.703 2197.93 Q600.782 2202.51 600.782 2211.26 Q600.782 2219.99 597.703 2224.6 Q594.647 2229.18 588.837 2229.18 Q583.027 2229.18 579.948 2224.6 Q576.893 2219.99 576.893 2211.26 Q576.893 2202.51 579.948 2197.93 Q583.027 2193.32 588.837 2193.32 Z" fill="#000000" fill-rule="nonzero" fill-opacity="1" /><path clip-path="url(#clip020)" d="M618.999 2197.03 Q615.388 2197.03 613.559 2200.59 Q611.754 2204.13 611.754 2211.26 Q611.754 2218.37 613.559 2221.93 Q615.388 2225.48 618.999 2225.48 Q622.633 2225.48 624.439 2221.93 Q626.268 2218.37 626.268 2211.26 Q626.268 2204.13 624.439 2200.59 Q622.633 2197.03 618.999 2197.03 M618.999 2193.32 Q624.809 2193.32 627.865 2197.93 Q630.943 2202.51 630.943 2211.26 Q630.943 2219.99 627.865 2224.6 Q624.809 2229.18 618.999 2229.18 Q613.189 2229.18 610.11 2224.6 Q607.055 2219.99 607.055 2211.26 Q607.055 2202.51 610.11 2197.93 Q613.189 2193.32 618.999 2193.32 Z" fill="#000000" fill-rule="nonzero" fill-opacity="1" /><path clip-path="url(#clip020)" d="M649.161 2197.03 Q645.55 2197.03 643.721 2200.59 Q641.916 2204.13 641.916 2211.26 Q641.916 2218.37 643.721 2221.93 Q645.55 2225.48 649.161 2225.48 Q652.795 2225.48 654.601 2221.93 Q656.429 2218.37 656.429 2211.26 Q656.429 2204.13 654.601 2200.59 Q652.795 2197.03 649.161 2197.03 M649.161 2193.32 Q654.971 2193.32 658.027 2197.93 Q661.105 2202.51 661.105 2211.26 Q661.105 2219.99 658.027 2224.6 Q654.971 2229.18 649.161 2229.18 Q643.351 2229.18 640.272 2224.6 Q637.217 2219.99 637.217 2211.26 Q637.217 2202.51 640.272 2197.93 Q643.351 2193.32 649.161 2193.32 Z" fill="#000000" fill-rule="nonzero" fill-opacity="1" /><path clip-path="url(#clip020)" d="M1865.94 2193.95 L1884.3 2193.95 L1884.3 2197.88 L1870.22 2197.88 L1870.22 2206.36 Q1871.24 2206.01 1872.26 2205.85 Q1873.28 2205.66 1874.3 2205.66 Q1880.08 2205.66 1883.46 2208.83 Q1886.84 2212 1886.84 2217.42 Q1886.84 2223 1883.37 2226.1 Q1879.9 2229.18 1873.58 2229.18 Q1871.4 2229.18 1869.14 2228.81 Q1866.89 2228.44 1864.48 2227.7 L1864.48 2223 Q1866.57 2224.13 1868.79 2224.69 Q1871.01 2225.24 1873.49 2225.24 Q1877.49 2225.24 1879.83 2223.14 Q1882.17 2221.03 1882.17 2217.42 Q1882.17 2213.81 1879.83 2211.7 Q1877.49 2209.6 1873.49 2209.6 Q1871.61 2209.6 1869.74 2210.01 Q1867.89 2210.43 1865.94 2211.31 L1865.94 2193.95 Z" fill="#000000" fill-rule="nonzero" fill-opacity="1" /><path clip-path="url(#clip020)" d="M1906.06 2197.03 Q1902.45 2197.03 1900.62 2200.59 Q1898.81 2204.13 1898.81 2211.26 Q1898.81 2218.37 1900.62 2221.93 Q1902.45 2225.48 1906.06 2225.48 Q1909.69 2225.48 1911.5 2221.93 Q1913.33 2218.37 1913.33 2211.26 Q1913.33 2204.13 1911.5 2200.59 Q1909.69 2197.03 1906.06 2197.03 M1906.06 2193.32 Q1911.87 2193.32 1914.92 2197.93 Q1918 2202.51 1918 2211.26 Q1918 2219.99 1914.92 2224.6 Q1911.87 2229.18 1906.06 2229.18 Q1900.25 2229.18 1897.17 2224.6 Q1894.11 2219.99 1894.11 2211.26 Q1894.11 2202.51 1897.17 2197.93 Q1900.25 2193.32 1906.06 2193.32 Z" fill="#000000" fill-rule="nonzero" fill-opacity="1" /><path clip-path="url(#clip020)" d="M1936.22 2197.03 Q1932.61 2197.03 1930.78 2200.59 Q1928.97 2204.13 1928.97 2211.26 Q1928.97 2218.37 1930.78 2221.93 Q1932.61 2225.48 1936.22 2225.48 Q1939.85 2225.48 1941.66 2221.93 Q1943.49 2218.37 1943.49 2211.26 Q1943.49 2204.13 1941.66 2200.59 Q1939.85 2197.03 1936.22 2197.03 M1936.22 2193.32 Q1942.03 2193.32 1945.08 2197.93 Q1948.16 2202.51 1948.16 2211.26 Q1948.16 2219.99 1945.08 2224.6 Q1942.03 2229.18 1936.22 2229.18 Q1930.41 2229.18 1927.33 2224.6 Q1924.27 2219.99 1924.27 2211.26 Q1924.27 2202.51 1927.33 2197.93 Q1930.41 2193.32 1936.22 2193.32 Z" fill="#000000" fill-rule="nonzero" fill-opacity="1" /><path clip-path="url(#clip020)" d="M1966.38 2197.03 Q1962.77 2197.03 1960.94 2200.59 Q1959.14 2204.13 1959.14 2211.26 Q1959.14 2218.37 1960.94 2221.93 Q1962.77 2225.48 1966.38 2225.48 Q1970.01 2225.48 1971.82 2221.93 Q1973.65 2218.37 1973.65 2211.26 Q1973.65 2204.13 1971.82 2200.59 Q1970.01 2197.03 1966.38 2197.03 M1966.38 2193.32 Q1972.19 2193.32 1975.25 2197.93 Q1978.33 2202.51 1978.33 2211.26 Q1978.33 2219.99 1975.25 2224.6 Q1972.19 2229.18 1966.38 2229.18 Q1960.57 2229.18 1957.49 2224.6 Q1954.44 2219.99 1954.44 2211.26 Q1954.44 2202.51 1957.49 2197.93 Q1960.57 2193.32 1966.38 2193.32 Z" fill="#000000" fill-rule="nonzero" fill-opacity="1" /><path clip-path="url(#clip020)" d="M3167.29 2224.57 L3174.93 2224.57 L3174.93 2198.21 L3166.62 2199.87 L3166.62 2195.61 L3174.89 2193.95 L3179.56 2193.95 L3179.56 2224.57 L3187.2 2224.57 L3187.2 2228.51 L3167.29 2228.51 L3167.29 2224.57 Z" fill="#000000" fill-rule="nonzero" fill-opacity="1" /><path clip-path="url(#clip020)" d="M3206.64 2197.03 Q3203.03 2197.03 3201.21 2200.59 Q3199.4 2204.13 3199.4 2211.26 Q3199.4 2218.37 3201.21 2221.93 Q3203.03 2225.48 3206.64 2225.48 Q3210.28 2225.48 3212.08 2221.93 Q3213.91 2218.37 3213.91 2211.26 Q3213.91 2204.13 3212.08 2200.59 Q3210.28 2197.03 3206.64 2197.03 M3206.64 2193.32 Q3212.46 2193.32 3215.51 2197.93 Q3218.59 2202.51 3218.59 2211.26 Q3218.59 2219.99 3215.51 2224.6 Q3212.46 2229.18 3206.64 2229.18 Q3200.83 2229.18 3197.76 2224.6 Q3194.7 2219.99 3194.7 2211.26 Q3194.7 2202.51 3197.76 2197.93 Q3200.83 2193.32 3206.64 2193.32 Z" fill="#000000" fill-rule="nonzero" fill-opacity="1" /><path clip-path="url(#clip020)" d="M3236.81 2197.03 Q3233.2 2197.03 3231.37 2200.59 Q3229.56 2204.13 3229.56 2211.26 Q3229.56 2218.37 3231.37 2221.93 Q3233.2 2225.48 3236.81 2225.48 Q3240.44 2225.48 3242.25 2221.93 Q3244.08 2218.37 3244.08 2211.26 Q3244.08 2204.13 3242.25 2200.59 Q3240.44 2197.03 3236.81 2197.03 M3236.81 2193.32 Q3242.62 2193.32 3245.67 2197.93 Q3248.75 2202.51 3248.75 2211.26 Q3248.75 2219.99 3245.67 2224.6 Q3242.62 2229.18 3236.81 2229.18 Q3231 2229.18 3227.92 2224.6 Q3224.86 2219.99 3224.86 2211.26 Q3224.86 2202.51 3227.92 2197.93 Q3231 2193.32 3236.81 2193.32 Z" fill="#000000" fill-rule="nonzero" fill-opacity="1" /><path clip-path="url(#clip020)" d="M3266.97 2197.03 Q3263.36 2197.03 3261.53 2200.59 Q3259.72 2204.13 3259.72 2211.26 Q3259.72 2218.37 3261.53 2221.93 Q3263.36 2225.48 3266.97 2225.48 Q3270.6 2225.48 3272.41 2221.93 Q3274.24 2218.37 3274.24 2211.26 Q3274.24 2204.13 3272.41 2200.59 Q3270.6 2197.03 3266.97 2197.03 M3266.97 2193.32 Q3272.78 2193.32 3275.83 2197.93 Q3278.91 2202.51 3278.91 2211.26 Q3278.91 2219.99 3275.83 2224.6 Q3272.78 2229.18 3266.97 2229.18 Q3261.16 2229.18 3258.08 2224.6 Q3255.02 2219.99 3255.02 2211.26 Q3255.02 2202.51 3258.08 2197.93 Q3261.16 2193.32 3266.97 2193.32 Z" fill="#000000" fill-rule="nonzero" fill-opacity="1" /><path clip-path="url(#clip020)" d="M3297.13 2197.03 Q3293.52 2197.03 3291.69 2200.59 Q3289.89 2204.13 3289.89 2211.26 Q3289.89 2218.37 3291.69 2221.93 Q3293.52 2225.48 3297.13 2225.48 Q3300.76 2225.48 3302.57 2221.93 Q3304.4 2218.37 3304.4 2211.26 Q3304.4 2204.13 3302.57 2200.59 Q3300.76 2197.03 3297.13 2197.03 M3297.13 2193.32 Q3302.94 2193.32 3306 2197.93 Q3309.07 2202.51 3309.07 2211.26 Q3309.07 2219.99 3306 2224.6 Q3302.94 2229.18 3297.13 2229.18 Q3291.32 2229.18 3288.24 2224.6 Q3285.19 2219.99 3285.19 2211.26 Q3285.19 2202.51 3288.24 2197.93 Q3291.32 2193.32 3297.13 2193.32 Z" fill="#000000" fill-rule="nonzero" fill-opacity="1" /><path clip-path="url(#clip020)" d="M1797.29 2308.02 L1797.29 2296.42 L1787.74 2296.42 L1787.74 2291.62 L1803.07 2291.62 L1803.07 2310.17 Q1799.69 2312.57 1795.61 2313.81 Q1791.53 2315.03 1786.9 2315.03 Q1776.77 2315.03 1771.04 2309.12 Q1765.34 2303.19 1765.34 2292.63 Q1765.34 2282.04 1771.04 2276.14 Q1776.77 2270.21 1786.9 2270.21 Q1791.12 2270.21 1794.91 2271.25 Q1798.73 2272.29 1801.95 2274.32 L1801.95 2280.54 Q1798.71 2277.79 1795.06 2276.4 Q1791.41 2275.01 1787.39 2275.01 Q1779.46 2275.01 1775.47 2279.44 Q1771.51 2283.86 1771.51 2292.63 Q1771.51 2301.37 1775.47 2305.8 Q1779.46 2310.22 1787.39 2310.22 Q1790.49 2310.22 1792.92 2309.7 Q1795.35 2309.15 1797.29 2308.02 Z" fill="#000000" fill-rule="nonzero" fill-opacity="1" /><path clip-path="url(#clip020)" d="M1832.3 2286.76 Q1831.4 2286.24 1830.33 2286 Q1829.29 2285.74 1828.02 2285.74 Q1823.5 2285.74 1821.07 2288.7 Q1818.67 2291.62 1818.67 2297.12 L1818.67 2314.19 L1813.32 2314.19 L1813.32 2281.78 L1818.67 2281.78 L1818.67 2286.82 Q1820.35 2283.86 1823.04 2282.45 Q1825.73 2281 1829.58 2281 Q1830.13 2281 1830.79 2281.09 Q1831.46 2281.14 1832.27 2281.29 L1832.3 2286.76 Z" fill="#000000" fill-rule="nonzero" fill-opacity="1" /><path clip-path="url(#clip020)" d="M1837.88 2281.78 L1843.21 2281.78 L1843.21 2314.19 L1837.88 2314.19 L1837.88 2281.78 M1837.88 2269.16 L1843.21 2269.16 L1843.21 2275.91 L1837.88 2275.91 L1837.88 2269.16 Z" fill="#000000" fill-rule="nonzero" fill-opacity="1" /><path clip-path="url(#clip020)" d="M1875.67 2286.7 L1875.67 2269.16 L1881 2269.16 L1881 2314.19 L1875.67 2314.19 L1875.67 2309.33 Q1873.99 2312.22 1871.42 2313.64 Q1868.87 2315.03 1865.28 2315.03 Q1859.41 2315.03 1855.71 2310.34 Q1852.03 2305.65 1852.03 2298.01 Q1852.03 2290.37 1855.71 2285.69 Q1859.41 2281 1865.28 2281 Q1868.87 2281 1871.42 2282.42 Q1873.99 2283.81 1875.67 2286.7 M1857.53 2298.01 Q1857.53 2303.89 1859.93 2307.24 Q1862.36 2310.57 1866.59 2310.57 Q1870.81 2310.57 1873.24 2307.24 Q1875.67 2303.89 1875.67 2298.01 Q1875.67 2292.14 1873.24 2288.81 Q1870.81 2285.46 1866.59 2285.46 Q1862.36 2285.46 1859.93 2288.81 Q1857.53 2292.14 1857.53 2298.01 Z" fill="#000000" fill-rule="nonzero" fill-opacity="1" /><path clip-path="url(#clip020)" d="M1931.46 2282.74 L1931.46 2287.77 Q1929.2 2286.61 1926.77 2286.03 Q1924.34 2285.46 1921.74 2285.46 Q1917.77 2285.46 1915.78 2286.67 Q1913.81 2287.89 1913.81 2290.32 Q1913.81 2292.17 1915.23 2293.24 Q1916.64 2294.28 1920.93 2295.24 L1922.75 2295.64 Q1928.42 2296.86 1930.79 2299.08 Q1933.2 2301.28 1933.2 2305.25 Q1933.2 2309.76 1929.61 2312.39 Q1926.05 2315.03 1919.8 2315.03 Q1917.19 2315.03 1914.36 2314.51 Q1911.55 2314.01 1908.43 2313 L1908.43 2307.5 Q1911.38 2309.04 1914.24 2309.82 Q1917.11 2310.57 1919.91 2310.57 Q1923.68 2310.57 1925.7 2309.3 Q1927.73 2308 1927.73 2305.65 Q1927.73 2303.48 1926.25 2302.32 Q1924.8 2301.17 1919.86 2300.1 L1918 2299.66 Q1913.06 2298.62 1910.86 2296.48 Q1908.66 2294.31 1908.66 2290.55 Q1908.66 2285.98 1911.9 2283.49 Q1915.14 2281 1921.1 2281 Q1924.05 2281 1926.66 2281.43 Q1929.26 2281.87 1931.46 2282.74 Z" fill="#000000" fill-rule="nonzero" fill-opacity="1" /><path clip-path="url(#clip020)" d="M1941.67 2281.78 L1947 2281.78 L1947 2314.19 L1941.67 2314.19 L1941.67 2281.78 M1941.67 2269.16 L1947 2269.16 L1947 2275.91 L1941.67 2275.91 L1941.67 2269.16 Z" fill="#000000" fill-rule="nonzero" fill-opacity="1" /><path clip-path="url(#clip020)" d="M1955.82 2281.78 L1981.11 2281.78 L1981.11 2286.64 L1961.09 2309.93 L1981.11 2309.93 L1981.11 2314.19 L1955.1 2314.19 L1955.1 2309.33 L1975.12 2286.03 L1955.82 2286.03 L1955.82 2281.78 Z" fill="#000000" fill-rule="nonzero" fill-opacity="1" /><path clip-path="url(#clip020)" d="M2016.96 2296.65 L2016.96 2299.26 L1992.48 2299.26 Q1992.83 2304.75 1995.78 2307.65 Q1998.76 2310.51 2004.06 2310.51 Q2007.12 2310.51 2009.99 2309.76 Q2012.88 2309.01 2015.72 2307.5 L2015.72 2312.54 Q2012.85 2313.75 2009.84 2314.39 Q2006.83 2315.03 2003.74 2315.03 Q1995.98 2315.03 1991.44 2310.51 Q1986.93 2306 1986.93 2298.3 Q1986.93 2290.35 1991.21 2285.69 Q1995.52 2281 2002.81 2281 Q2009.35 2281 2013.14 2285.22 Q2016.96 2289.42 2016.96 2296.65 M2011.64 2295.09 Q2011.58 2290.72 2009.18 2288.12 Q2006.81 2285.51 2002.87 2285.51 Q1998.41 2285.51 1995.72 2288.03 Q1993.06 2290.55 1992.66 2295.12 L2011.64 2295.09 Z" fill="#000000" fill-rule="nonzero" fill-opacity="1" /><path clip-path="url(#clip020)" d="M2044.77 2270.99 L2052.64 2270.99 L2071.79 2307.13 L2071.79 2270.99 L2077.47 2270.99 L2077.47 2314.19 L2069.59 2314.19 L2050.44 2278.05 L2050.44 2314.19 L2044.77 2314.19 L2044.77 2270.99 Z" fill="#000000" fill-rule="nonzero" fill-opacity="1" /><polyline clip-path="url(#clip020)" style="stroke:#000000; stroke-linecap:round; stroke-linejoin:round; stroke-width:4; stroke-opacity:1; fill:none" points="290.052,2156.51 290.052,246.944 "/>
<polyline clip-path="url(#clip020)" style="stroke:#000000; stroke-linecap:round; stroke-linejoin:round; stroke-width:4; stroke-opacity:1; fill:none" points="290.052,2156.51 308.95,2156.51 "/>
<polyline clip-path="url(#clip020)" style="stroke:#000000; stroke-linecap:round; stroke-linejoin:round; stroke-width:4; stroke-opacity:1; fill:none" points="290.052,1583.19 308.95,1583.19 "/>
<polyline clip-path="url(#clip020)" style="stroke:#000000; stroke-linecap:round; stroke-linejoin:round; stroke-width:4; stroke-opacity:1; fill:none" points="290.052,1009.87 308.95,1009.87 "/>
<polyline clip-path="url(#clip020)" style="stroke:#000000; stroke-linecap:round; stroke-linejoin:round; stroke-width:4; stroke-opacity:1; fill:none" points="290.052,436.558 308.95,436.558 "/>
<path clip-path="url(#clip020)" d="M178.877 2142.31 Q175.266 2142.31 173.437 2145.87 Q171.631 2149.41 171.631 2156.54 Q171.631 2163.65 173.437 2167.21 Q175.266 2170.76 178.877 2170.76 Q182.511 2170.76 184.316 2167.21 Q186.145 2163.65 186.145 2156.54 Q186.145 2149.41 184.316 2145.87 Q182.511 2142.31 178.877 2142.31 M178.877 2138.6 Q184.687 2138.6 187.742 2143.21 Q190.821 2147.79 190.821 2156.54 Q190.821 2165.27 187.742 2169.88 Q184.687 2174.46 178.877 2174.46 Q173.067 2174.46 169.988 2169.88 Q166.932 2165.27 166.932 2156.54 Q166.932 2147.79 169.988 2143.21 Q173.067 2138.6 178.877 2138.6 Z" fill="#000000" fill-rule="nonzero" fill-opacity="1" /><path clip-path="url(#clip020)" d="M199.039 2167.91 L203.923 2167.91 L203.923 2173.79 L199.039 2173.79 L199.039 2167.91 Z" fill="#000000" fill-rule="nonzero" fill-opacity="1" /><path clip-path="url(#clip020)" d="M224.108 2142.31 Q220.497 2142.31 218.668 2145.87 Q216.863 2149.41 216.863 2156.54 Q216.863 2163.65 218.668 2167.21 Q220.497 2170.76 224.108 2170.76 Q227.742 2170.76 229.548 2167.21 Q231.376 2163.65 231.376 2156.54 Q231.376 2149.41 229.548 2145.87 Q227.742 2142.31 224.108 2142.31 M224.108 2138.6 Q229.918 2138.6 232.974 2143.21 Q236.052 2147.79 236.052 2156.54 Q236.052 2165.27 232.974 2169.88 Q229.918 2174.46 224.108 2174.46 Q218.298 2174.46 215.219 2169.88 Q212.164 2165.27 212.164 2156.54 Q212.164 2147.79 215.219 2143.21 Q218.298 2138.6 224.108 2138.6 Z" fill="#000000" fill-rule="nonzero" fill-opacity="1" /><path clip-path="url(#clip020)" d="M180.104 1568.99 Q176.492 1568.99 174.664 1572.55 Q172.858 1576.1 172.858 1583.23 Q172.858 1590.33 174.664 1593.9 Q176.492 1597.44 180.104 1597.44 Q183.738 1597.44 185.543 1593.9 Q187.372 1590.33 187.372 1583.23 Q187.372 1576.1 185.543 1572.55 Q183.738 1568.99 180.104 1568.99 M180.104 1565.29 Q185.914 1565.29 188.969 1569.89 Q192.048 1574.48 192.048 1583.23 Q192.048 1591.95 188.969 1596.56 Q185.914 1601.14 180.104 1601.14 Q174.293 1601.14 171.215 1596.56 Q168.159 1591.95 168.159 1583.23 Q168.159 1574.48 171.215 1569.89 Q174.293 1565.29 180.104 1565.29 Z" fill="#000000" fill-rule="nonzero" fill-opacity="1" /><path clip-path="url(#clip020)" d="M200.265 1594.59 L205.15 1594.59 L205.15 1600.47 L200.265 1600.47 L200.265 1594.59 Z" fill="#000000" fill-rule="nonzero" fill-opacity="1" /><path clip-path="url(#clip020)" d="M216.145 1596.54 L223.784 1596.54 L223.784 1570.17 L215.474 1571.84 L215.474 1567.58 L223.738 1565.91 L228.413 1565.91 L228.413 1596.54 L236.052 1596.54 L236.052 1600.47 L216.145 1600.47 L216.145 1596.54 Z" fill="#000000" fill-rule="nonzero" fill-opacity="1" /><path clip-path="url(#clip020)" d="M180.474 995.673 Q176.863 995.673 175.034 999.238 Q173.229 1002.78 173.229 1009.91 Q173.229 1017.02 175.034 1020.58 Q176.863 1024.12 180.474 1024.12 Q184.108 1024.12 185.914 1020.58 Q187.742 1017.02 187.742 1009.91 Q187.742 1002.78 185.914 999.238 Q184.108 995.673 180.474 995.673 M180.474 991.969 Q186.284 991.969 189.34 996.576 Q192.418 1001.16 192.418 1009.91 Q192.418 1018.64 189.34 1023.24 Q186.284 1027.83 180.474 1027.83 Q174.664 1027.83 171.585 1023.24 Q168.529 1018.64 168.529 1009.91 Q168.529 1001.16 171.585 996.576 Q174.664 991.969 180.474 991.969 Z" fill="#000000" fill-rule="nonzero" fill-opacity="1" /><path clip-path="url(#clip020)" d="M200.636 1021.27 L205.52 1021.27 L205.52 1027.15 L200.636 1027.15 L200.636 1021.27 Z" fill="#000000" fill-rule="nonzero" fill-opacity="1" /><path clip-path="url(#clip020)" d="M219.733 1023.22 L236.052 1023.22 L236.052 1027.15 L214.108 1027.15 L214.108 1023.22 Q216.77 1020.46 221.353 1015.84 Q225.96 1011.18 227.14 1009.84 Q229.386 1007.32 230.265 1005.58 Q231.168 1003.82 231.168 1002.13 Q231.168 999.377 229.224 997.641 Q227.302 995.905 224.2 995.905 Q222.001 995.905 219.548 996.669 Q217.117 997.432 214.339 998.983 L214.339 994.261 Q217.163 993.127 219.617 992.548 Q222.071 991.969 224.108 991.969 Q229.478 991.969 232.673 994.655 Q235.867 997.34 235.867 1001.83 Q235.867 1003.96 235.057 1005.88 Q234.27 1007.78 232.163 1010.37 Q231.585 1011.04 228.483 1014.26 Q225.381 1017.46 219.733 1023.22 Z" fill="#000000" fill-rule="nonzero" fill-opacity="1" /><path clip-path="url(#clip020)" d="M179.525 422.357 Q175.914 422.357 174.085 425.921 Q172.279 429.463 172.279 436.593 Q172.279 443.699 174.085 447.264 Q175.914 450.805 179.525 450.805 Q183.159 450.805 184.965 447.264 Q186.793 443.699 186.793 436.593 Q186.793 429.463 184.965 425.921 Q183.159 422.357 179.525 422.357 M179.525 418.653 Q185.335 418.653 188.391 423.259 Q191.469 427.843 191.469 436.593 Q191.469 445.319 188.391 449.926 Q185.335 454.509 179.525 454.509 Q173.715 454.509 170.636 449.926 Q167.58 445.319 167.58 436.593 Q167.58 427.843 170.636 423.259 Q173.715 418.653 179.525 418.653 Z" fill="#000000" fill-rule="nonzero" fill-opacity="1" /><path clip-path="url(#clip020)" d="M199.687 447.958 L204.571 447.958 L204.571 453.838 L199.687 453.838 L199.687 447.958 Z" fill="#000000" fill-rule="nonzero" fill-opacity="1" /><path clip-path="url(#clip020)" d="M228.923 435.204 Q232.279 435.921 234.154 438.19 Q236.052 440.458 236.052 443.792 Q236.052 448.907 232.534 451.708 Q229.015 454.509 222.534 454.509 Q220.358 454.509 218.043 454.069 Q215.751 453.653 213.298 452.796 L213.298 448.282 Q215.242 449.417 217.557 449.995 Q219.872 450.574 222.395 450.574 Q226.793 450.574 229.085 448.838 Q231.4 447.102 231.4 443.792 Q231.4 440.736 229.247 439.023 Q227.117 437.287 223.298 437.287 L219.27 437.287 L219.27 433.444 L223.483 433.444 Q226.932 433.444 228.761 432.079 Q230.589 430.69 230.589 428.097 Q230.589 425.435 228.691 424.023 Q226.816 422.588 223.298 422.588 Q221.376 422.588 219.177 423.005 Q216.978 423.421 214.339 424.301 L214.339 420.134 Q217.001 419.394 219.316 419.023 Q221.654 418.653 223.714 418.653 Q229.038 418.653 232.14 421.083 Q235.242 423.491 235.242 427.611 Q235.242 430.481 233.599 432.472 Q231.955 434.44 228.923 435.204 Z" fill="#000000" fill-rule="nonzero" fill-opacity="1" /><path clip-path="url(#clip020)" d="M58.1901 1374.69 L63.8903 1374.69 Q62.2989 1378.01 61.5176 1380.96 Q60.7364 1383.92 60.7364 1386.66 Q60.7364 1391.44 62.5882 1394.04 Q64.4401 1396.62 67.8544 1396.62 Q70.719 1396.62 72.1947 1394.91 Q73.6414 1393.17 74.5384 1388.37 L75.2618 1384.84 Q76.506 1378.3 79.6599 1375.21 Q82.7849 1372.08 88.0511 1372.08 Q94.33 1372.08 97.5707 1376.31 Q100.811 1380.5 100.811 1388.63 Q100.811 1391.7 100.117 1395.17 Q99.4225 1398.61 98.0626 1402.32 L92.0441 1402.32 Q94.0406 1398.76 95.0533 1395.34 Q96.0661 1391.93 96.0661 1388.63 Q96.0661 1383.63 94.0985 1380.91 Q92.1309 1378.19 88.4851 1378.19 Q85.3022 1378.19 83.5083 1380.15 Q81.7143 1382.09 80.8173 1386.55 L80.1229 1390.11 Q78.8208 1396.65 76.043 1399.57 Q73.2653 1402.49 68.3174 1402.49 Q62.5882 1402.49 59.2896 1398.47 Q55.991 1394.42 55.991 1387.33 Q55.991 1384.29 56.5408 1381.14 Q57.0906 1377.98 58.1901 1374.69 Z" fill="#000000" fill-rule="nonzero" fill-opacity="1" /><path clip-path="url(#clip020)" d="M71.2977 1350.64 Q71.2977 1354.92 74.6541 1357.41 Q77.9817 1359.9 83.7976 1359.9 Q89.6135 1359.9 92.97 1357.44 Q96.2975 1354.95 96.2975 1350.64 Q96.2975 1346.39 92.9411 1343.9 Q89.5846 1341.41 83.7976 1341.41 Q78.0395 1341.41 74.6831 1343.9 Q71.2977 1346.39 71.2977 1350.64 M66.7838 1350.64 Q66.7838 1343.7 71.2977 1339.73 Q75.8115 1335.77 83.7976 1335.77 Q91.7547 1335.77 96.2975 1339.73 Q100.811 1343.7 100.811 1350.64 Q100.811 1357.61 96.2975 1361.58 Q91.7547 1365.51 83.7976 1365.51 Q75.8115 1365.51 71.2977 1361.58 Q66.7838 1357.61 66.7838 1350.64 Z" fill="#000000" fill-rule="nonzero" fill-opacity="1" /><path clip-path="url(#clip020)" d="M54.9494 1326.94 L54.9494 1321.62 L99.9723 1321.62 L99.9723 1326.94 L54.9494 1326.94 Z" fill="#000000" fill-rule="nonzero" fill-opacity="1" /><path clip-path="url(#clip020)" d="M67.565 1314.3 L67.565 1308.66 L94.764 1298.53 L67.565 1288.4 L67.565 1282.76 L99.9723 1294.91 L99.9723 1302.15 L67.565 1314.3 Z" fill="#000000" fill-rule="nonzero" fill-opacity="1" /><path clip-path="url(#clip020)" d="M82.4377 1247.69 L85.0418 1247.69 L85.0418 1272.17 Q90.5395 1271.82 93.433 1268.87 Q96.2975 1265.89 96.2975 1260.59 Q96.2975 1257.53 95.5452 1254.66 Q94.7929 1251.77 93.2883 1248.93 L98.323 1248.93 Q99.5383 1251.8 100.175 1254.81 Q100.811 1257.82 100.811 1260.91 Q100.811 1268.67 96.2975 1273.21 Q91.7837 1277.72 84.087 1277.72 Q76.1298 1277.72 71.4713 1273.44 Q66.7838 1269.13 66.7838 1261.84 Q66.7838 1255.3 71.0083 1251.51 Q75.2039 1247.69 82.4377 1247.69 M80.8752 1253.01 Q76.506 1253.07 73.9018 1255.47 Q71.2977 1257.85 71.2977 1261.78 Q71.2977 1266.24 73.815 1268.93 Q76.3324 1271.59 80.9041 1271.99 L80.8752 1253.01 Z" fill="#000000" fill-rule="nonzero" fill-opacity="1" /><path clip-path="url(#clip020)" d="M58.3637 1214.85 L67.565 1214.85 L67.565 1203.88 L71.7028 1203.88 L71.7028 1214.85 L89.2953 1214.85 Q93.2594 1214.85 94.3878 1213.78 Q95.5163 1212.68 95.5163 1209.35 L95.5163 1203.88 L99.9723 1203.88 L99.9723 1209.35 Q99.9723 1215.51 97.6864 1217.86 Q95.3716 1220.2 89.2953 1220.2 L71.7028 1220.2 L71.7028 1224.11 L67.565 1224.11 L67.565 1220.2 L58.3637 1220.2 L58.3637 1214.85 Z" fill="#000000" fill-rule="nonzero" fill-opacity="1" /><path clip-path="url(#clip020)" d="M67.565 1196.88 L67.565 1191.56 L99.9723 1191.56 L99.9723 1196.88 L67.565 1196.88 M54.9494 1196.88 L54.9494 1191.56 L61.6912 1191.56 L61.6912 1196.88 L54.9494 1196.88 Z" fill="#000000" fill-rule="nonzero" fill-opacity="1" /><path clip-path="url(#clip020)" d="M73.7861 1155.18 Q70.1981 1153.19 68.491 1150.41 Q66.7838 1147.63 66.7838 1143.87 Q66.7838 1138.81 70.3428 1136.06 Q73.8729 1133.31 80.4122 1133.31 L99.9723 1133.31 L99.9723 1138.66 L80.5858 1138.66 Q75.9273 1138.66 73.6703 1140.31 Q71.4134 1141.96 71.4134 1145.35 Q71.4134 1149.48 74.1622 1151.89 Q76.9111 1154.29 81.6564 1154.29 L99.9723 1154.29 L99.9723 1159.64 L80.5858 1159.64 Q75.8983 1159.64 73.6703 1161.29 Q71.4134 1162.94 71.4134 1166.38 Q71.4134 1170.46 74.1912 1172.86 Q76.94 1175.26 81.6564 1175.26 L99.9723 1175.26 L99.9723 1180.62 L67.565 1180.62 L67.565 1175.26 L72.5997 1175.26 Q69.6194 1173.44 68.2016 1170.9 Q66.7838 1168.35 66.7838 1164.85 Q66.7838 1161.32 68.5778 1158.86 Q70.3717 1156.37 73.7861 1155.18 Z" fill="#000000" fill-rule="nonzero" fill-opacity="1" /><path clip-path="url(#clip020)" d="M82.4377 1094.97 L85.0418 1094.97 L85.0418 1119.45 Q90.5395 1119.1 93.433 1116.15 Q96.2975 1113.17 96.2975 1107.88 Q96.2975 1104.81 95.5452 1101.94 Q94.7929 1099.05 93.2883 1096.21 L98.323 1096.21 Q99.5383 1099.08 100.175 1102.09 Q100.811 1105.1 100.811 1108.19 Q100.811 1115.95 96.2975 1120.49 Q91.7837 1125 84.087 1125 Q76.1298 1125 71.4713 1120.72 Q66.7838 1116.41 66.7838 1109.12 Q66.7838 1102.58 71.0083 1098.79 Q75.2039 1094.97 82.4377 1094.97 M80.8752 1100.29 Q76.506 1100.35 73.9018 1102.75 Q71.2977 1105.13 71.2977 1109.06 Q71.2977 1113.52 73.815 1116.21 Q76.3324 1118.87 80.9041 1119.28 L80.8752 1100.29 Z" fill="#000000" fill-rule="nonzero" fill-opacity="1" /><path clip-path="url(#clip020)" d="M55.0072 1054.61 Q61.6623 1058.48 68.1727 1060.36 Q74.6831 1062.24 81.3671 1062.24 Q88.0511 1062.24 94.6193 1060.36 Q101.159 1058.45 107.785 1054.61 L107.785 1059.24 Q100.985 1063.58 94.4168 1065.75 Q87.8485 1067.89 81.3671 1067.89 Q74.9145 1067.89 68.3752 1065.75 Q61.8359 1063.6 55.0072 1059.24 L55.0072 1054.61 Z" fill="#000000" fill-rule="nonzero" fill-opacity="1" /><path clip-path="url(#clip020)" d="M68.5199 1023.62 L73.5546 1023.62 Q72.3972 1025.87 71.8185 1028.3 Q71.2398 1030.73 71.2398 1033.34 Q71.2398 1037.3 72.4551 1039.3 Q73.6703 1041.27 76.1009 1041.27 Q77.9527 1041.27 79.0233 1039.85 Q80.065 1038.43 81.0198 1034.15 L81.4249 1032.33 Q82.6402 1026.65 84.8682 1024.28 Q87.0673 1021.88 91.0314 1021.88 Q95.5452 1021.88 98.1783 1025.47 Q100.811 1029.03 100.811 1035.28 Q100.811 1037.88 100.291 1040.72 Q99.7987 1043.52 98.7859 1046.65 L93.2883 1046.65 Q94.8218 1043.7 95.6031 1040.83 Q96.3554 1037.97 96.3554 1035.16 Q96.3554 1031.4 95.0823 1029.37 Q93.7802 1027.35 91.4364 1027.35 Q89.2663 1027.35 88.1089 1028.82 Q86.9515 1030.27 85.8809 1035.22 L85.4469 1037.07 Q84.4052 1042.02 82.264 1044.22 Q80.0939 1046.42 76.3324 1046.42 Q71.7606 1046.42 69.2722 1043.18 Q66.7838 1039.94 66.7838 1033.98 Q66.7838 1031.02 67.2178 1028.42 Q67.6519 1025.82 68.5199 1023.62 Z" fill="#000000" fill-rule="nonzero" fill-opacity="1" /><path clip-path="url(#clip020)" d="M55.0072 1014.24 L55.0072 1009.61 Q61.8359 1005.27 68.3752 1003.13 Q74.9145 1000.96 81.3671 1000.96 Q87.8485 1000.96 94.4168 1003.13 Q100.985 1005.27 107.785 1009.61 L107.785 1014.24 Q101.159 1010.39 94.6193 1008.51 Q88.0511 1006.6 81.3671 1006.6 Q74.6831 1006.6 68.1727 1008.51 Q61.6623 1010.39 55.0072 1014.24 Z" fill="#000000" fill-rule="nonzero" fill-opacity="1" /><path clip-path="url(#clip020)" d="M1108.75 125.969 L1108.75 133.949 Q1104.09 131.721 1099.96 130.627 Q1095.83 129.534 1091.98 129.534 Q1085.3 129.534 1081.65 132.126 Q1078.05 134.719 1078.05 139.499 Q1078.05 143.509 1080.44 145.575 Q1082.87 147.601 1089.59 148.857 L1094.53 149.869 Q1103.69 151.611 1108.02 156.027 Q1112.4 160.402 1112.4 167.774 Q1112.4 176.565 1106.48 181.102 Q1100.61 185.639 1089.23 185.639 Q1084.93 185.639 1080.07 184.667 Q1075.25 183.694 1070.07 181.79 L1070.07 173.365 Q1075.05 176.16 1079.83 177.577 Q1084.61 178.995 1089.23 178.995 Q1096.23 178.995 1100.04 176.241 Q1103.85 173.486 1103.85 168.382 Q1103.85 163.926 1101.1 161.414 Q1098.38 158.903 1092.14 157.647 L1087.16 156.675 Q1078.01 154.852 1073.91 150.963 Q1069.82 147.074 1069.82 140.147 Q1069.82 132.126 1075.45 127.508 Q1081.13 122.89 1091.05 122.89 Q1095.3 122.89 1099.72 123.66 Q1104.13 124.43 1108.75 125.969 Z" fill="#000000" fill-rule="nonzero" fill-opacity="1" /><path clip-path="url(#clip020)" d="M1142.42 144.32 Q1136.42 144.32 1132.94 149.019 Q1129.45 153.677 1129.45 161.819 Q1129.45 169.962 1132.9 174.661 Q1136.38 179.319 1142.42 179.319 Q1148.37 179.319 1151.85 174.62 Q1155.34 169.921 1155.34 161.819 Q1155.34 153.758 1151.85 149.059 Q1148.37 144.32 1142.42 144.32 M1142.42 138 Q1152.14 138 1157.69 144.32 Q1163.24 150.639 1163.24 161.819 Q1163.24 172.959 1157.69 179.319 Q1152.14 185.639 1142.42 185.639 Q1132.65 185.639 1127.1 179.319 Q1121.59 172.959 1121.59 161.819 Q1121.59 150.639 1127.1 144.32 Q1132.65 138 1142.42 138 Z" fill="#000000" fill-rule="nonzero" fill-opacity="1" /><path clip-path="url(#clip020)" d="M1175.59 121.432 L1183.05 121.432 L1183.05 184.464 L1175.59 184.464 L1175.59 121.432 Z" fill="#000000" fill-rule="nonzero" fill-opacity="1" /><path clip-path="url(#clip020)" d="M1193.29 139.094 L1201.19 139.094 L1215.37 177.172 L1229.55 139.094 L1237.45 139.094 L1220.44 184.464 L1210.31 184.464 L1193.29 139.094 Z" fill="#000000" fill-rule="nonzero" fill-opacity="1" /><path clip-path="url(#clip020)" d="M1286.55 159.916 L1286.55 163.561 L1252.28 163.561 Q1252.76 171.258 1256.89 175.309 Q1261.07 179.319 1268.48 179.319 Q1272.77 179.319 1276.78 178.266 Q1280.83 177.213 1284.8 175.106 L1284.8 182.155 Q1280.79 183.856 1276.58 184.748 Q1272.37 185.639 1268.03 185.639 Q1257.18 185.639 1250.82 179.319 Q1244.5 173 1244.5 162.225 Q1244.5 151.085 1250.49 144.563 Q1256.53 138 1266.74 138 Q1275.89 138 1281.2 143.914 Q1286.55 149.788 1286.55 159.916 M1279.09 157.728 Q1279.01 151.611 1275.65 147.965 Q1272.33 144.32 1266.82 144.32 Q1260.58 144.32 1256.81 147.844 Q1253.09 151.368 1252.52 157.769 L1279.09 157.728 Z" fill="#000000" fill-rule="nonzero" fill-opacity="1" /><path clip-path="url(#clip020)" d="M1332.52 126.212 L1332.52 139.094 L1347.88 139.094 L1347.88 144.887 L1332.52 144.887 L1332.52 169.516 Q1332.52 175.066 1334.02 176.646 Q1335.56 178.226 1340.22 178.226 L1347.88 178.226 L1347.88 184.464 L1340.22 184.464 Q1331.59 184.464 1328.31 181.264 Q1325.03 178.023 1325.03 169.516 L1325.03 144.887 L1319.56 144.887 L1319.56 139.094 L1325.03 139.094 L1325.03 126.212 L1332.52 126.212 Z" fill="#000000" fill-rule="nonzero" fill-opacity="1" /><path clip-path="url(#clip020)" d="M1357.68 139.094 L1365.13 139.094 L1365.13 184.464 L1357.68 184.464 L1357.68 139.094 M1357.68 121.432 L1365.13 121.432 L1365.13 130.871 L1357.68 130.871 L1357.68 121.432 Z" fill="#000000" fill-rule="nonzero" fill-opacity="1" /><path clip-path="url(#clip020)" d="M1416.05 147.803 Q1418.85 142.78 1422.74 140.39 Q1426.63 138 1431.89 138 Q1438.98 138 1442.83 142.983 Q1446.68 147.925 1446.68 157.08 L1446.68 184.464 L1439.18 184.464 L1439.18 157.323 Q1439.18 150.801 1436.88 147.641 Q1434.57 144.482 1429.83 144.482 Q1424.03 144.482 1420.67 148.33 Q1417.31 152.178 1417.31 158.822 L1417.31 184.464 L1409.82 184.464 L1409.82 157.323 Q1409.82 150.76 1407.51 147.641 Q1405.2 144.482 1400.38 144.482 Q1394.67 144.482 1391.3 148.37 Q1387.94 152.219 1387.94 158.822 L1387.94 184.464 L1380.45 184.464 L1380.45 139.094 L1387.94 139.094 L1387.94 146.142 Q1390.49 141.97 1394.06 139.985 Q1397.62 138 1402.52 138 Q1407.47 138 1410.91 140.512 Q1414.39 143.023 1416.05 147.803 Z" fill="#000000" fill-rule="nonzero" fill-opacity="1" /><path clip-path="url(#clip020)" d="M1500.35 159.916 L1500.35 163.561 L1466.08 163.561 Q1466.57 171.258 1470.7 175.309 Q1474.87 179.319 1482.29 179.319 Q1486.58 179.319 1490.59 178.266 Q1494.64 177.213 1498.61 175.106 L1498.61 182.155 Q1494.6 183.856 1490.39 184.748 Q1486.17 185.639 1481.84 185.639 Q1470.98 185.639 1464.62 179.319 Q1458.3 173 1458.3 162.225 Q1458.3 151.085 1464.3 144.563 Q1470.34 138 1480.54 138 Q1489.7 138 1495.01 143.914 Q1500.35 149.788 1500.35 159.916 M1492.9 157.728 Q1492.82 151.611 1489.46 147.965 Q1486.13 144.32 1480.63 144.32 Q1474.39 144.32 1470.62 147.844 Q1466.89 151.368 1466.33 157.769 L1492.9 157.728 Z" fill="#000000" fill-rule="nonzero" fill-opacity="1" /><path clip-path="url(#clip020)" d="M1533.61 139.094 L1541.51 139.094 L1555.69 177.172 L1569.87 139.094 L1577.77 139.094 L1560.75 184.464 L1550.62 184.464 L1533.61 139.094 Z" fill="#000000" fill-rule="nonzero" fill-opacity="1" /><path clip-path="url(#clip020)" d="M1616.98 140.431 L1616.98 147.479 Q1613.82 145.859 1610.42 145.049 Q1607.01 144.239 1603.37 144.239 Q1597.82 144.239 1595.02 145.94 Q1592.27 147.641 1592.27 151.044 Q1592.27 153.637 1594.25 155.135 Q1596.24 156.594 1602.23 157.931 L1604.79 158.498 Q1612.73 160.199 1616.05 163.318 Q1619.41 166.397 1619.41 171.947 Q1619.41 178.266 1614.39 181.952 Q1609.4 185.639 1600.65 185.639 Q1597.01 185.639 1593.04 184.91 Q1589.11 184.221 1584.73 182.803 L1584.73 175.106 Q1588.87 177.253 1592.88 178.347 Q1596.89 179.4 1600.82 179.4 Q1606.08 179.4 1608.92 177.618 Q1611.75 175.795 1611.75 172.514 Q1611.75 169.476 1609.69 167.855 Q1607.66 166.235 1600.73 164.736 L1598.14 164.128 Q1591.21 162.67 1588.14 159.672 Q1585.06 156.634 1585.06 151.368 Q1585.06 144.968 1589.59 141.484 Q1594.13 138 1602.48 138 Q1606.61 138 1610.25 138.608 Q1613.9 139.215 1616.98 140.431 Z" fill="#000000" fill-rule="nonzero" fill-opacity="1" /><path clip-path="url(#clip020)" d="M1687.5 161.252 Q1687.5 153.151 1684.14 148.695 Q1680.82 144.239 1674.79 144.239 Q1668.79 144.239 1665.43 148.695 Q1662.11 153.151 1662.11 161.252 Q1662.11 169.314 1665.43 173.77 Q1668.79 178.226 1674.79 178.226 Q1680.82 178.226 1684.14 173.77 Q1687.5 169.314 1687.5 161.252 M1694.96 178.833 Q1694.96 190.419 1689.81 196.05 Q1684.67 201.721 1674.06 201.721 Q1670.13 201.721 1666.64 201.113 Q1663.16 200.546 1659.88 199.331 L1659.88 192.08 Q1663.16 193.862 1666.36 194.713 Q1669.56 195.563 1672.88 195.563 Q1680.21 195.563 1683.86 191.715 Q1687.5 187.907 1687.5 180.17 L1687.5 176.484 Q1685.2 180.494 1681.59 182.479 Q1677.99 184.464 1672.96 184.464 Q1664.62 184.464 1659.51 178.104 Q1654.41 171.744 1654.41 161.252 Q1654.41 150.72 1659.51 144.36 Q1664.62 138 1672.96 138 Q1677.99 138 1681.59 139.985 Q1685.2 141.97 1687.5 145.98 L1687.5 139.094 L1694.96 139.094 L1694.96 178.833 Z" fill="#000000" fill-rule="nonzero" fill-opacity="1" /><path clip-path="url(#clip020)" d="M1736.6 146.061 Q1735.35 145.332 1733.85 145.008 Q1732.39 144.644 1730.61 144.644 Q1724.29 144.644 1720.88 148.776 Q1717.52 152.867 1717.52 160.564 L1717.52 184.464 L1710.03 184.464 L1710.03 139.094 L1717.52 139.094 L1717.52 146.142 Q1719.87 142.011 1723.64 140.026 Q1727.41 138 1732.79 138 Q1733.56 138 1734.5 138.122 Q1735.43 138.203 1736.56 138.405 L1736.6 146.061 Z" fill="#000000" fill-rule="nonzero" fill-opacity="1" /><path clip-path="url(#clip020)" d="M1744.42 139.094 L1751.87 139.094 L1751.87 184.464 L1744.42 184.464 L1744.42 139.094 M1744.42 121.432 L1751.87 121.432 L1751.87 130.871 L1744.42 130.871 L1744.42 121.432 Z" fill="#000000" fill-rule="nonzero" fill-opacity="1" /><path clip-path="url(#clip020)" d="M1797.32 145.98 L1797.32 121.432 L1804.78 121.432 L1804.78 184.464 L1797.32 184.464 L1797.32 177.658 Q1794.98 181.709 1791.37 183.694 Q1787.81 185.639 1782.78 185.639 Q1774.56 185.639 1769.37 179.076 Q1764.23 172.514 1764.23 161.819 Q1764.23 151.125 1769.37 144.563 Q1774.56 138 1782.78 138 Q1787.81 138 1791.37 139.985 Q1794.98 141.93 1797.32 145.98 M1771.93 161.819 Q1771.93 170.043 1775.29 174.742 Q1778.69 179.4 1784.61 179.4 Q1790.52 179.4 1793.92 174.742 Q1797.32 170.043 1797.32 161.819 Q1797.32 153.596 1793.92 148.938 Q1790.52 144.239 1784.61 144.239 Q1778.69 144.239 1775.29 148.938 Q1771.93 153.596 1771.93 161.819 Z" fill="#000000" fill-rule="nonzero" fill-opacity="1" /><path clip-path="url(#clip020)" d="M1875.43 140.431 L1875.43 147.479 Q1872.27 145.859 1868.86 145.049 Q1865.46 144.239 1861.82 144.239 Q1856.27 144.239 1853.47 145.94 Q1850.72 147.641 1850.72 151.044 Q1850.72 153.637 1852.7 155.135 Q1854.69 156.594 1860.68 157.931 L1863.23 158.498 Q1871.17 160.199 1874.49 163.318 Q1877.86 166.397 1877.86 171.947 Q1877.86 178.266 1872.83 181.952 Q1867.85 185.639 1859.1 185.639 Q1855.46 185.639 1851.49 184.91 Q1847.56 184.221 1843.18 182.803 L1843.18 175.106 Q1847.31 177.253 1851.32 178.347 Q1855.33 179.4 1859.26 179.4 Q1864.53 179.4 1867.37 177.618 Q1870.2 175.795 1870.2 172.514 Q1870.2 169.476 1868.13 167.855 Q1866.11 166.235 1859.18 164.736 L1856.59 164.128 Q1849.66 162.67 1846.58 159.672 Q1843.51 156.634 1843.51 151.368 Q1843.51 144.968 1848.04 141.484 Q1852.58 138 1860.92 138 Q1865.06 138 1868.7 138.608 Q1872.35 139.215 1875.43 140.431 Z" fill="#000000" fill-rule="nonzero" fill-opacity="1" /><path clip-path="url(#clip020)" d="M1889.73 139.094 L1897.18 139.094 L1897.18 184.464 L1889.73 184.464 L1889.73 139.094 M1889.73 121.432 L1897.18 121.432 L1897.18 130.871 L1889.73 130.871 L1889.73 121.432 Z" fill="#000000" fill-rule="nonzero" fill-opacity="1" /><path clip-path="url(#clip020)" d="M1909.53 139.094 L1944.94 139.094 L1944.94 145.899 L1916.91 178.509 L1944.94 178.509 L1944.94 184.464 L1908.52 184.464 L1908.52 177.658 L1936.55 145.049 L1909.53 145.049 L1909.53 139.094 Z" fill="#000000" fill-rule="nonzero" fill-opacity="1" /><path clip-path="url(#clip020)" d="M1995.13 159.916 L1995.13 163.561 L1960.86 163.561 Q1961.35 171.258 1965.48 175.309 Q1969.65 179.319 1977.06 179.319 Q1981.36 179.319 1985.37 178.266 Q1989.42 177.213 1993.39 175.106 L1993.39 182.155 Q1989.38 183.856 1985.17 184.748 Q1980.95 185.639 1976.62 185.639 Q1965.76 185.639 1959.4 179.319 Q1953.08 173 1953.08 162.225 Q1953.08 151.085 1959.08 144.563 Q1965.11 138 1975.32 138 Q1984.48 138 1989.78 143.914 Q1995.13 149.788 1995.13 159.916 M1987.68 157.728 Q1987.6 151.611 1984.23 147.965 Q1980.91 144.32 1975.4 144.32 Q1969.16 144.32 1965.4 147.844 Q1961.67 151.368 1961.1 157.769 L1987.68 157.728 Z" fill="#000000" fill-rule="nonzero" fill-opacity="1" /><path clip-path="url(#clip020)" d="M2051.64 121.513 Q2046.21 130.83 2043.58 139.945 Q2040.95 149.059 2040.95 158.417 Q2040.95 167.774 2043.58 176.97 Q2046.25 186.125 2051.64 195.401 L2045.16 195.401 Q2039.08 185.882 2036.04 176.686 Q2033.05 167.491 2033.05 158.417 Q2033.05 149.383 2036.04 140.228 Q2039.04 131.073 2045.16 121.513 L2051.64 121.513 Z" fill="#000000" fill-rule="nonzero" fill-opacity="1" /><path clip-path="url(#clip020)" d="M2098.67 161.819 Q2098.67 153.596 2095.27 148.938 Q2091.91 144.239 2085.99 144.239 Q2080.08 144.239 2076.68 148.938 Q2073.31 153.596 2073.31 161.819 Q2073.31 170.043 2076.68 174.742 Q2080.08 179.4 2085.99 179.4 Q2091.91 179.4 2095.27 174.742 Q2098.67 170.043 2098.67 161.819 M2073.31 145.98 Q2075.66 141.93 2079.23 139.985 Q2082.83 138 2087.82 138 Q2096.08 138 2101.22 144.563 Q2106.41 151.125 2106.41 161.819 Q2106.41 172.514 2101.22 179.076 Q2096.08 185.639 2087.82 185.639 Q2082.83 185.639 2079.23 183.694 Q2075.66 181.709 2073.31 177.658 L2073.31 184.464 L2065.82 184.464 L2065.82 121.432 L2073.31 121.432 L2073.31 145.98 Z" fill="#000000" fill-rule="nonzero" fill-opacity="1" /><path clip-path="url(#clip020)" d="M2139.38 161.657 Q2130.35 161.657 2126.87 163.723 Q2123.38 165.789 2123.38 170.772 Q2123.38 174.742 2125.97 177.091 Q2128.61 179.4 2133.1 179.4 Q2139.3 179.4 2143.03 175.025 Q2146.8 170.61 2146.8 163.318 L2146.8 161.657 L2139.38 161.657 M2154.25 158.579 L2154.25 184.464 L2146.8 184.464 L2146.8 177.577 Q2144.24 181.709 2140.44 183.694 Q2136.63 185.639 2131.12 185.639 Q2124.15 185.639 2120.02 181.75 Q2115.93 177.821 2115.93 171.258 Q2115.93 163.602 2121.03 159.713 Q2126.18 155.824 2136.35 155.824 L2146.8 155.824 L2146.8 155.095 Q2146.8 149.95 2143.39 147.155 Q2140.03 144.32 2133.91 144.32 Q2130.03 144.32 2126.34 145.251 Q2122.65 146.183 2119.25 148.046 L2119.25 141.16 Q2123.34 139.58 2127.19 138.81 Q2131.04 138 2134.68 138 Q2144.53 138 2149.39 143.104 Q2154.25 148.208 2154.25 158.579 Z" fill="#000000" fill-rule="nonzero" fill-opacity="1" /><path clip-path="url(#clip020)" d="M2195.89 146.061 Q2194.64 145.332 2193.14 145.008 Q2191.68 144.644 2189.9 144.644 Q2183.58 144.644 2180.18 148.776 Q2176.81 152.867 2176.81 160.564 L2176.81 184.464 L2169.32 184.464 L2169.32 139.094 L2176.81 139.094 L2176.81 146.142 Q2179.16 142.011 2182.93 140.026 Q2186.7 138 2192.09 138 Q2192.86 138 2193.79 138.122 Q2194.72 138.203 2195.85 138.405 L2195.89 146.061 Z" fill="#000000" fill-rule="nonzero" fill-opacity="1" /><path clip-path="url(#clip020)" d="M2202.54 121.513 L2209.02 121.513 Q2215.09 131.073 2218.09 140.228 Q2221.13 149.383 2221.13 158.417 Q2221.13 167.491 2218.09 176.686 Q2215.09 185.882 2209.02 195.401 L2202.54 195.401 Q2207.92 186.125 2210.56 176.97 Q2213.23 167.774 2213.23 158.417 Q2213.23 149.059 2210.56 139.945 Q2207.92 130.83 2202.54 121.513 Z" fill="#000000" fill-rule="nonzero" fill-opacity="1" /><path clip-path="url(#clip020)" d="M2258.68 158.822 L2333.54 158.822 L2333.54 164.655 L2258.68 164.655 L2258.68 158.822 Z" fill="#000000" fill-rule="nonzero" fill-opacity="1" /><path clip-path="url(#clip020)" d="M2366.44 139.094 L2374.34 139.094 L2388.51 177.172 L2402.69 139.094 L2410.59 139.094 L2393.58 184.464 L2383.45 184.464 L2366.44 139.094 Z" fill="#000000" fill-rule="nonzero" fill-opacity="1" /><path clip-path="url(#clip020)" d="M2441.5 161.657 Q2432.47 161.657 2428.98 163.723 Q2425.5 165.789 2425.5 170.772 Q2425.5 174.742 2428.09 177.091 Q2430.72 179.4 2435.22 179.4 Q2441.42 179.4 2445.15 175.025 Q2448.91 170.61 2448.91 163.318 L2448.91 161.657 L2441.5 161.657 M2456.37 158.579 L2456.37 184.464 L2448.91 184.464 L2448.91 177.577 Q2446.36 181.709 2442.55 183.694 Q2438.75 185.639 2433.24 185.639 Q2426.27 185.639 2422.14 181.75 Q2418.04 177.821 2418.04 171.258 Q2418.04 163.602 2423.15 159.713 Q2428.29 155.824 2438.46 155.824 L2448.91 155.824 L2448.91 155.095 Q2448.91 149.95 2445.51 147.155 Q2442.15 144.32 2436.03 144.32 Q2432.14 144.32 2428.46 145.251 Q2424.77 146.183 2421.37 148.046 L2421.37 141.16 Q2425.46 139.58 2429.31 138.81 Q2433.15 138 2436.8 138 Q2446.64 138 2451.51 143.104 Q2456.37 148.208 2456.37 158.579 Z" fill="#000000" fill-rule="nonzero" fill-opacity="1" /><path clip-path="url(#clip020)" d="M2509.43 157.08 L2509.43 184.464 L2501.98 184.464 L2501.98 157.323 Q2501.98 150.882 2499.47 147.682 Q2496.96 144.482 2491.93 144.482 Q2485.9 144.482 2482.41 148.33 Q2478.93 152.178 2478.93 158.822 L2478.93 184.464 L2471.44 184.464 L2471.44 139.094 L2478.93 139.094 L2478.93 146.142 Q2481.6 142.051 2485.21 140.026 Q2488.85 138 2493.59 138 Q2501.41 138 2505.42 142.861 Q2509.43 147.682 2509.43 157.08 Z" fill="#000000" fill-rule="nonzero" fill-opacity="1" /><path clip-path="url(#clip020)" d="M2554.16 145.98 L2554.16 121.432 L2561.61 121.432 L2561.61 184.464 L2554.16 184.464 L2554.16 177.658 Q2551.81 181.709 2548.2 183.694 Q2544.64 185.639 2539.61 185.639 Q2531.39 185.639 2526.2 179.076 Q2521.06 172.514 2521.06 161.819 Q2521.06 151.125 2526.2 144.563 Q2531.39 138 2539.61 138 Q2544.64 138 2548.2 139.985 Q2551.81 141.93 2554.16 145.98 M2528.76 161.819 Q2528.76 170.043 2532.12 174.742 Q2535.52 179.4 2541.44 179.4 Q2547.35 179.4 2550.75 174.742 Q2554.16 170.043 2554.16 161.819 Q2554.16 153.596 2550.75 148.938 Q2547.35 144.239 2541.44 144.239 Q2535.52 144.239 2532.12 148.938 Q2528.76 153.596 2528.76 161.819 Z" fill="#000000" fill-rule="nonzero" fill-opacity="1" /><path clip-path="url(#clip020)" d="M2615.77 159.916 L2615.77 163.561 L2581.5 163.561 Q2581.99 171.258 2586.12 175.309 Q2590.29 179.319 2597.7 179.319 Q2602 179.319 2606.01 178.266 Q2610.06 177.213 2614.03 175.106 L2614.03 182.155 Q2610.02 183.856 2605.8 184.748 Q2601.59 185.639 2597.26 185.639 Q2586.4 185.639 2580.04 179.319 Q2573.72 173 2573.72 162.225 Q2573.72 151.085 2579.72 144.563 Q2585.75 138 2595.96 138 Q2605.12 138 2610.42 143.914 Q2615.77 149.788 2615.77 159.916 M2608.32 157.728 Q2608.23 151.611 2604.87 147.965 Q2601.55 144.32 2596.04 144.32 Q2589.8 144.32 2586.04 147.844 Q2582.31 151.368 2581.74 157.769 L2608.32 157.728 Z" fill="#000000" fill-rule="nonzero" fill-opacity="1" /><path clip-path="url(#clip020)" d="M2654.29 146.061 Q2653.04 145.332 2651.54 145.008 Q2650.08 144.644 2648.3 144.644 Q2641.98 144.644 2638.58 148.776 Q2635.21 152.867 2635.21 160.564 L2635.21 184.464 L2627.72 184.464 L2627.72 139.094 L2635.21 139.094 L2635.21 146.142 Q2637.56 142.011 2641.33 140.026 Q2645.1 138 2650.49 138 Q2651.26 138 2652.19 138.122 Q2653.12 138.203 2654.25 138.405 L2654.29 146.061 Z" fill="#000000" fill-rule="nonzero" fill-opacity="1" /><path clip-path="url(#clip020)" d="M2669.32 177.658 L2669.32 201.721 L2661.83 201.721 L2661.83 139.094 L2669.32 139.094 L2669.32 145.98 Q2671.67 141.93 2675.24 139.985 Q2678.84 138 2683.82 138 Q2692.09 138 2697.23 144.563 Q2702.42 151.125 2702.42 161.819 Q2702.42 172.514 2697.23 179.076 Q2692.09 185.639 2683.82 185.639 Q2678.84 185.639 2675.24 183.694 Q2671.67 181.709 2669.32 177.658 M2694.68 161.819 Q2694.68 153.596 2691.28 148.938 Q2687.92 144.239 2682 144.239 Q2676.09 144.239 2672.68 148.938 Q2669.32 153.596 2669.32 161.819 Q2669.32 170.043 2672.68 174.742 Q2676.09 179.4 2682 179.4 Q2687.92 179.4 2691.28 174.742 Q2694.68 170.043 2694.68 161.819 Z" fill="#000000" fill-rule="nonzero" fill-opacity="1" /><path clip-path="url(#clip020)" d="M2732.35 144.32 Q2726.36 144.32 2722.88 149.019 Q2719.39 153.677 2719.39 161.819 Q2719.39 169.962 2722.83 174.661 Q2726.32 179.319 2732.35 179.319 Q2738.31 179.319 2741.79 174.62 Q2745.28 169.921 2745.28 161.819 Q2745.28 153.758 2741.79 149.059 Q2738.31 144.32 2732.35 144.32 M2732.35 138 Q2742.08 138 2747.63 144.32 Q2753.18 150.639 2753.18 161.819 Q2753.18 172.959 2747.63 179.319 Q2742.08 185.639 2732.35 185.639 Q2722.59 185.639 2717.04 179.319 Q2711.53 172.959 2711.53 161.819 Q2711.53 150.639 2717.04 144.32 Q2722.59 138 2732.35 138 Z" fill="#000000" fill-rule="nonzero" fill-opacity="1" /><path clip-path="url(#clip020)" d="M2765.53 121.432 L2772.99 121.432 L2772.99 184.464 L2765.53 184.464 L2765.53 121.432 Z" fill="#000000" fill-rule="nonzero" fill-opacity="1" /><path clip-path="url(#clip022)" d="M464.539 2073.57 L464.539 2156.51 L569.855 2156.51 L569.855 2073.57 L464.539 2073.57 L464.539 2073.57  Z" fill="#ffa500" fill-rule="evenodd" fill-opacity="1"/>
<polyline clip-path="url(#clip022)" style="stroke:#000000; stroke-linecap:round; stroke-linejoin:round; stroke-width:0; stroke-opacity:0; fill:none" points="464.539,2073.57 464.539,2156.51 569.855,2156.51 569.855,2073.57 464.539,2073.57 "/>
<path clip-path="url(#clip022)" d="M1780.98 1298.38 L1780.98 2156.51 L1886.3 2156.51 L1886.3 1298.38 L1780.98 1298.38 L1780.98 1298.38  Z" fill="#ffa500" fill-rule="evenodd" fill-opacity="1"/>
<polyline clip-path="url(#clip022)" style="stroke:#000000; stroke-linecap:round; stroke-linejoin:round; stroke-width:0; stroke-opacity:0; fill:none" points="1780.98,1298.38 1780.98,2156.51 1886.3,2156.51 1886.3,1298.38 1780.98,1298.38 "/>
<path clip-path="url(#clip022)" d="M3097.43 246.944 L3097.43 2156.51 L3202.74 2156.51 L3202.74 246.944 L3097.43 246.944 L3097.43 246.944  Z" fill="#ffa500" fill-rule="evenodd" fill-opacity="1"/>
<polyline clip-path="url(#clip022)" style="stroke:#000000; stroke-linecap:round; stroke-linejoin:round; stroke-width:0; stroke-opacity:0; fill:none" points="3097.43,246.944 3097.43,2156.51 3202.74,2156.51 3202.74,246.944 3097.43,246.944 "/>
<circle clip-path="url(#clip022)" style="fill:#ffa500; stroke:none; fill-opacity:0" cx="517.197" cy="2073.57" r="2"/>
<circle clip-path="url(#clip022)" style="fill:#ffa500; stroke:none; fill-opacity:0" cx="1833.64" cy="1298.38" r="2"/>
<circle clip-path="url(#clip022)" style="fill:#ffa500; stroke:none; fill-opacity:0" cx="3150.09" cy="246.944" r="2"/>
<path clip-path="url(#clip022)" d="M640.065 1600.14 L640.065 2156.51 L745.381 2156.51 L745.381 1600.14 L640.065 1600.14 L640.065 1600.14  Z" fill="#00ffff" fill-rule="evenodd" fill-opacity="1"/>
<polyline clip-path="url(#clip022)" style="stroke:#000000; stroke-linecap:round; stroke-linejoin:round; stroke-width:0; stroke-opacity:0; fill:none" points="640.065,1600.14 640.065,2156.51 745.381,2156.51 745.381,1600.14 640.065,1600.14 "/>
<path clip-path="url(#clip022)" d="M1956.51 1499.82 L1956.51 2156.51 L2061.82 2156.51 L2061.82 1499.82 L1956.51 1499.82 L1956.51 1499.82  Z" fill="#00ffff" fill-rule="evenodd" fill-opacity="1"/>
<polyline clip-path="url(#clip022)" style="stroke:#000000; stroke-linecap:round; stroke-linejoin:round; stroke-width:0; stroke-opacity:0; fill:none" points="1956.51,1499.82 1956.51,2156.51 2061.82,2156.51 2061.82,1499.82 1956.51,1499.82 "/>
<path clip-path="url(#clip022)" d="M3272.95 1443.12 L3272.95 2156.51 L3378.27 2156.51 L3378.27 1443.12 L3272.95 1443.12 L3272.95 1443.12  Z" fill="#00ffff" fill-rule="evenodd" fill-opacity="1"/>
<polyline clip-path="url(#clip022)" style="stroke:#000000; stroke-linecap:round; stroke-linejoin:round; stroke-width:0; stroke-opacity:0; fill:none" points="3272.95,1443.12 3272.95,2156.51 3378.27,2156.51 3378.27,1443.12 3272.95,1443.12 "/>
<circle clip-path="url(#clip022)" style="fill:#00ffff; stroke:none; fill-opacity:0" cx="692.723" cy="1600.14" r="2"/>
<circle clip-path="url(#clip022)" style="fill:#00ffff; stroke:none; fill-opacity:0" cx="2009.17" cy="1499.82" r="2"/>
<circle clip-path="url(#clip022)" style="fill:#00ffff; stroke:none; fill-opacity:0" cx="3325.61" cy="1443.12" r="2"/>
<path clip-path="url(#clip020)" d="M398.809 466.116 L1162.07 466.116 L1162.07 310.596 L398.809 310.596  Z" fill="#ffffff" fill-rule="evenodd" fill-opacity="1"/>
<polyline clip-path="url(#clip020)" style="stroke:#000000; stroke-linecap:round; stroke-linejoin:round; stroke-width:4; stroke-opacity:1; fill:none" points="398.809,466.116 1162.07,466.116 1162.07,310.596 398.809,310.596 398.809,466.116 "/>
<path clip-path="url(#clip020)" d="M435.061 383.172 L652.575 383.172 L652.575 341.7 L435.061 341.7 L435.061 383.172  Z" fill="#ffa500" fill-rule="evenodd" fill-opacity="1"/>
<polyline clip-path="url(#clip020)" style="stroke:#000000; stroke-linecap:round; stroke-linejoin:round; stroke-width:0.8; stroke-opacity:0; fill:none" points="435.061,383.172 652.575,383.172 652.575,341.7 435.061,341.7 435.061,383.172 "/>
<path clip-path="url(#clip020)" d="M699.452 343.744 Q696.35 349.068 694.846 354.277 Q693.341 359.485 693.341 364.832 Q693.341 370.179 694.846 375.434 Q696.373 380.665 699.452 385.966 L695.748 385.966 Q692.276 380.527 690.54 375.272 Q688.827 370.017 688.827 364.832 Q688.827 359.67 690.54 354.439 Q692.253 349.207 695.748 343.744 L699.452 343.744 Z" fill="#000000" fill-rule="nonzero" fill-opacity="1" /><path clip-path="url(#clip020)" d="M729.892 365.689 L729.892 367.772 L710.309 367.772 Q710.586 372.17 712.947 374.485 Q715.332 376.777 719.568 376.777 Q722.021 376.777 724.313 376.175 Q726.628 375.573 728.896 374.369 L728.896 378.397 Q726.605 379.369 724.197 379.878 Q721.79 380.388 719.313 380.388 Q713.109 380.388 709.475 376.777 Q705.864 373.165 705.864 367.008 Q705.864 360.642 709.29 356.916 Q712.739 353.166 718.572 353.166 Q723.804 353.166 726.836 356.545 Q729.892 359.902 729.892 365.689 M725.633 364.439 Q725.586 360.943 723.665 358.86 Q721.767 356.777 718.619 356.777 Q715.054 356.777 712.901 358.791 Q710.771 360.804 710.447 364.462 L725.633 364.439 Z" fill="#000000" fill-rule="nonzero" fill-opacity="1" /><path clip-path="url(#clip020)" d="M757.6 353.791 L748.225 366.406 L758.086 379.716 L753.063 379.716 L745.517 369.531 L737.97 379.716 L732.947 379.716 L743.017 366.152 L733.804 353.791 L738.827 353.791 L745.702 363.027 L752.577 353.791 L757.6 353.791 Z" fill="#000000" fill-rule="nonzero" fill-opacity="1" /><path clip-path="url(#clip020)" d="M775.887 366.684 Q770.725 366.684 768.734 367.865 Q766.743 369.045 766.743 371.892 Q766.743 374.161 768.225 375.503 Q769.73 376.823 772.299 376.823 Q775.841 376.823 777.97 374.323 Q780.123 371.8 780.123 367.633 L780.123 366.684 L775.887 366.684 M784.382 364.925 L784.382 379.716 L780.123 379.716 L780.123 375.781 Q778.665 378.142 776.489 379.277 Q774.313 380.388 771.165 380.388 Q767.183 380.388 764.822 378.165 Q762.484 375.92 762.484 372.17 Q762.484 367.795 765.401 365.573 Q768.341 363.351 774.151 363.351 L780.123 363.351 L780.123 362.934 Q780.123 359.994 778.179 358.397 Q776.257 356.777 772.762 356.777 Q770.54 356.777 768.433 357.309 Q766.327 357.841 764.382 358.906 L764.382 354.971 Q766.72 354.068 768.919 353.629 Q771.118 353.166 773.202 353.166 Q778.827 353.166 781.604 356.082 Q784.382 358.999 784.382 364.925 Z" fill="#000000" fill-rule="nonzero" fill-opacity="1" /><path clip-path="url(#clip020)" d="M794.243 373.837 L799.128 373.837 L799.128 377.818 L795.331 385.226 L792.345 385.226 L794.243 377.818 L794.243 373.837 Z" fill="#000000" fill-rule="nonzero" fill-opacity="1" /><path clip-path="url(#clip020)" d="M843.479 358.767 Q845.076 355.897 847.299 354.531 Q849.521 353.166 852.53 353.166 Q856.581 353.166 858.78 356.013 Q860.979 358.837 860.979 364.068 L860.979 379.716 L856.697 379.716 L856.697 364.207 Q856.697 360.48 855.377 358.675 Q854.058 356.869 851.349 356.869 Q848.039 356.869 846.118 359.068 Q844.197 361.267 844.197 365.064 L844.197 379.716 L839.914 379.716 L839.914 364.207 Q839.914 360.457 838.595 358.675 Q837.275 356.869 834.521 356.869 Q831.257 356.869 829.336 359.091 Q827.414 361.291 827.414 365.064 L827.414 379.716 L823.132 379.716 L823.132 353.791 L827.414 353.791 L827.414 357.818 Q828.873 355.434 830.91 354.3 Q832.947 353.166 835.748 353.166 Q838.572 353.166 840.539 354.601 Q842.53 356.036 843.479 358.767 Z" fill="#000000" fill-rule="nonzero" fill-opacity="1" /><path clip-path="url(#clip020)" d="M881.257 366.684 Q876.095 366.684 874.104 367.865 Q872.113 369.045 872.113 371.892 Q872.113 374.161 873.595 375.503 Q875.099 376.823 877.669 376.823 Q881.21 376.823 883.34 374.323 Q885.493 371.8 885.493 367.633 L885.493 366.684 L881.257 366.684 M889.752 364.925 L889.752 379.716 L885.493 379.716 L885.493 375.781 Q884.034 378.142 881.859 379.277 Q879.683 380.388 876.534 380.388 Q872.553 380.388 870.192 378.165 Q867.854 375.92 867.854 372.17 Q867.854 367.795 870.771 365.573 Q873.71 363.351 879.521 363.351 L885.493 363.351 L885.493 362.934 Q885.493 359.994 883.548 358.397 Q881.627 356.777 878.132 356.777 Q875.91 356.777 873.803 357.309 Q871.697 357.841 869.752 358.906 L869.752 354.971 Q872.09 354.068 874.289 353.629 Q876.488 353.166 878.572 353.166 Q884.196 353.166 886.974 356.082 Q889.752 358.999 889.752 364.925 Z" fill="#000000" fill-rule="nonzero" fill-opacity="1" /><path clip-path="url(#clip020)" d="M915.585 357.726 L915.585 343.698 L919.844 343.698 L919.844 379.716 L915.585 379.716 L915.585 375.827 Q914.243 378.142 912.182 379.277 Q910.145 380.388 907.275 380.388 Q902.576 380.388 899.613 376.638 Q896.673 372.888 896.673 366.777 Q896.673 360.666 899.613 356.916 Q902.576 353.166 907.275 353.166 Q910.145 353.166 912.182 354.3 Q914.243 355.411 915.585 357.726 M901.071 366.777 Q901.071 371.476 902.993 374.161 Q904.937 376.823 908.317 376.823 Q911.696 376.823 913.641 374.161 Q915.585 371.476 915.585 366.777 Q915.585 362.078 913.641 359.416 Q911.696 356.73 908.317 356.73 Q904.937 356.73 902.993 359.416 Q901.071 362.078 901.071 366.777 Z" fill="#000000" fill-rule="nonzero" fill-opacity="1" /><path clip-path="url(#clip020)" d="M950.168 364.068 L950.168 379.716 L945.909 379.716 L945.909 364.207 Q945.909 360.527 944.474 358.698 Q943.039 356.869 940.168 356.869 Q936.719 356.869 934.729 359.068 Q932.738 361.267 932.738 365.064 L932.738 379.716 L928.456 379.716 L928.456 353.791 L932.738 353.791 L932.738 357.818 Q934.266 355.48 936.326 354.323 Q938.409 353.166 941.117 353.166 Q945.585 353.166 947.877 355.943 Q950.168 358.698 950.168 364.068 Z" fill="#000000" fill-rule="nonzero" fill-opacity="1" /><path clip-path="url(#clip020)" d="M958.664 343.698 L962.923 343.698 L962.923 379.716 L958.664 379.716 L958.664 343.698 Z" fill="#000000" fill-rule="nonzero" fill-opacity="1" /><path clip-path="url(#clip020)" d="M975.955 375.827 L975.955 389.577 L971.673 389.577 L971.673 353.791 L975.955 353.791 L975.955 357.726 Q977.298 355.411 979.335 354.3 Q981.395 353.166 984.242 353.166 Q988.964 353.166 991.904 356.916 Q994.867 360.666 994.867 366.777 Q994.867 372.888 991.904 376.638 Q988.964 380.388 984.242 380.388 Q981.395 380.388 979.335 379.277 Q977.298 378.142 975.955 375.827 M990.446 366.777 Q990.446 362.078 988.501 359.416 Q986.58 356.73 983.201 356.73 Q979.821 356.73 977.877 359.416 Q975.955 362.078 975.955 366.777 Q975.955 371.476 977.877 374.161 Q979.821 376.823 983.201 376.823 Q986.58 376.823 988.501 374.161 Q990.446 371.476 990.446 366.777 Z" fill="#000000" fill-rule="nonzero" fill-opacity="1" /><path clip-path="url(#clip020)" d="M1001.26 343.744 L1004.96 343.744 Q1008.43 349.207 1010.14 354.439 Q1011.88 359.67 1011.88 364.832 Q1011.88 370.017 1010.14 375.272 Q1008.43 380.527 1004.96 385.966 L1001.26 385.966 Q1004.33 380.665 1005.84 375.434 Q1007.37 370.179 1007.37 364.832 Q1007.37 359.485 1005.84 354.277 Q1004.33 349.068 1001.26 343.744 Z" fill="#000000" fill-rule="nonzero" fill-opacity="1" /><path clip-path="url(#clip020)" d="M435.061 435.012 L652.575 435.012 L652.575 393.54 L435.061 393.54 L435.061 435.012  Z" fill="#00ffff" fill-rule="evenodd" fill-opacity="1"/>
<polyline clip-path="url(#clip020)" style="stroke:#000000; stroke-linecap:round; stroke-linejoin:round; stroke-width:0.8; stroke-opacity:0; fill:none" points="435.061,435.012 652.575,435.012 652.575,393.54 435.061,393.54 435.061,435.012 "/>
<path clip-path="url(#clip020)" d="M699.452 395.584 Q696.35 400.908 694.846 406.117 Q693.341 411.325 693.341 416.672 Q693.341 422.019 694.846 427.274 Q696.373 432.505 699.452 437.806 L695.748 437.806 Q692.276 432.367 690.54 427.112 Q688.827 421.857 688.827 416.672 Q688.827 411.51 690.54 406.279 Q692.253 401.047 695.748 395.584 L699.452 395.584 Z" fill="#000000" fill-rule="nonzero" fill-opacity="1" /><path clip-path="url(#clip020)" d="M729.892 417.529 L729.892 419.612 L710.309 419.612 Q710.586 424.01 712.947 426.325 Q715.332 428.617 719.568 428.617 Q722.021 428.617 724.313 428.015 Q726.628 427.413 728.896 426.209 L728.896 430.237 Q726.605 431.209 724.197 431.718 Q721.79 432.228 719.313 432.228 Q713.109 432.228 709.475 428.617 Q705.864 425.005 705.864 418.848 Q705.864 412.482 709.29 408.756 Q712.739 405.006 718.572 405.006 Q723.804 405.006 726.836 408.385 Q729.892 411.742 729.892 417.529 M725.633 416.279 Q725.586 412.783 723.665 410.7 Q721.767 408.617 718.619 408.617 Q715.054 408.617 712.901 410.631 Q710.771 412.644 710.447 416.302 L725.633 416.279 Z" fill="#000000" fill-rule="nonzero" fill-opacity="1" /><path clip-path="url(#clip020)" d="M757.6 405.631 L748.225 418.246 L758.086 431.556 L753.063 431.556 L745.517 421.371 L737.97 431.556 L732.947 431.556 L743.017 417.992 L733.804 405.631 L738.827 405.631 L745.702 414.867 L752.577 405.631 L757.6 405.631 Z" fill="#000000" fill-rule="nonzero" fill-opacity="1" /><path clip-path="url(#clip020)" d="M775.887 418.524 Q770.725 418.524 768.734 419.705 Q766.743 420.885 766.743 423.732 Q766.743 426.001 768.225 427.343 Q769.73 428.663 772.299 428.663 Q775.841 428.663 777.97 426.163 Q780.123 423.64 780.123 419.473 L780.123 418.524 L775.887 418.524 M784.382 416.765 L784.382 431.556 L780.123 431.556 L780.123 427.621 Q778.665 429.982 776.489 431.117 Q774.313 432.228 771.165 432.228 Q767.183 432.228 764.822 430.005 Q762.484 427.76 762.484 424.01 Q762.484 419.635 765.401 417.413 Q768.341 415.191 774.151 415.191 L780.123 415.191 L780.123 414.774 Q780.123 411.834 778.179 410.237 Q776.257 408.617 772.762 408.617 Q770.54 408.617 768.433 409.149 Q766.327 409.681 764.382 410.746 L764.382 406.811 Q766.72 405.908 768.919 405.469 Q771.118 405.006 773.202 405.006 Q778.827 405.006 781.604 407.922 Q784.382 410.839 784.382 416.765 Z" fill="#000000" fill-rule="nonzero" fill-opacity="1" /><path clip-path="url(#clip020)" d="M812.854 439.427 L812.854 442.737 L788.225 442.737 L788.225 439.427 L812.854 439.427 Z" fill="#000000" fill-rule="nonzero" fill-opacity="1" /><path clip-path="url(#clip020)" d="M833.919 418.293 Q833.919 413.663 831.998 411.117 Q830.1 408.57 826.651 408.57 Q823.225 408.57 821.303 411.117 Q819.405 413.663 819.405 418.293 Q819.405 422.899 821.303 425.445 Q823.225 427.992 826.651 427.992 Q830.1 427.992 831.998 425.445 Q833.919 422.899 833.919 418.293 M838.178 428.339 Q838.178 434.959 835.238 438.177 Q832.299 441.417 826.234 441.417 Q823.988 441.417 821.998 441.07 Q820.007 440.746 818.132 440.052 L818.132 435.908 Q820.007 436.927 821.836 437.413 Q823.664 437.899 825.563 437.899 Q829.752 437.899 831.836 435.7 Q833.919 433.524 833.919 429.103 L833.919 426.996 Q832.6 429.288 830.539 430.422 Q828.479 431.556 825.609 431.556 Q820.84 431.556 817.924 427.922 Q815.007 424.288 815.007 418.293 Q815.007 412.274 817.924 408.64 Q820.84 405.006 825.609 405.006 Q828.479 405.006 830.539 406.14 Q832.6 407.274 833.919 409.566 L833.919 405.631 L838.178 405.631 L838.178 428.339 Z" fill="#000000" fill-rule="nonzero" fill-opacity="1" /><path clip-path="url(#clip020)" d="M851.072 427.667 L851.072 441.417 L846.789 441.417 L846.789 405.631 L851.072 405.631 L851.072 409.566 Q852.414 407.251 854.451 406.14 Q856.511 405.006 859.359 405.006 Q864.081 405.006 867.021 408.756 Q869.984 412.506 869.984 418.617 Q869.984 424.728 867.021 428.478 Q864.081 432.228 859.359 432.228 Q856.511 432.228 854.451 431.117 Q852.414 429.982 851.072 427.667 M865.562 418.617 Q865.562 413.918 863.618 411.256 Q861.697 408.57 858.317 408.57 Q854.937 408.57 852.993 411.256 Q851.072 413.918 851.072 418.617 Q851.072 423.316 852.993 426.001 Q854.937 428.663 858.317 428.663 Q861.697 428.663 863.618 426.001 Q865.562 423.316 865.562 418.617 Z" fill="#000000" fill-rule="nonzero" fill-opacity="1" /><path clip-path="url(#clip020)" d="M876.604 421.325 L876.604 405.631 L880.863 405.631 L880.863 421.163 Q880.863 424.843 882.298 426.695 Q883.734 428.524 886.604 428.524 Q890.053 428.524 892.044 426.325 Q894.058 424.126 894.058 420.33 L894.058 405.631 L898.317 405.631 L898.317 431.556 L894.058 431.556 L894.058 427.575 Q892.507 429.936 890.446 431.093 Q888.409 432.228 885.701 432.228 Q881.234 432.228 878.919 429.45 Q876.604 426.672 876.604 421.325 M887.321 405.006 L887.321 405.006 Z" fill="#000000" fill-rule="nonzero" fill-opacity="1" /><path clip-path="url(#clip020)" d="M908.178 425.677 L913.062 425.677 L913.062 429.658 L909.266 437.066 L906.28 437.066 L908.178 429.658 L908.178 425.677 Z" fill="#000000" fill-rule="nonzero" fill-opacity="1" /><path clip-path="url(#clip020)" d="M957.414 410.607 Q959.011 407.737 961.233 406.371 Q963.455 405.006 966.465 405.006 Q970.515 405.006 972.715 407.853 Q974.914 410.677 974.914 415.908 L974.914 431.556 L970.631 431.556 L970.631 416.047 Q970.631 412.32 969.312 410.515 Q967.992 408.709 965.284 408.709 Q961.974 408.709 960.053 410.908 Q958.131 413.107 958.131 416.904 L958.131 431.556 L953.849 431.556 L953.849 416.047 Q953.849 412.297 952.529 410.515 Q951.21 408.709 948.455 408.709 Q945.192 408.709 943.27 410.931 Q941.349 413.131 941.349 416.904 L941.349 431.556 L937.067 431.556 L937.067 405.631 L941.349 405.631 L941.349 409.658 Q942.807 407.274 944.844 406.14 Q946.881 405.006 949.682 405.006 Q952.506 405.006 954.474 406.441 Q956.465 407.876 957.414 410.607 Z" fill="#000000" fill-rule="nonzero" fill-opacity="1" /><path clip-path="url(#clip020)" d="M995.191 418.524 Q990.029 418.524 988.039 419.705 Q986.048 420.885 986.048 423.732 Q986.048 426.001 987.529 427.343 Q989.034 428.663 991.603 428.663 Q995.145 428.663 997.275 426.163 Q999.427 423.64 999.427 419.473 L999.427 418.524 L995.191 418.524 M1003.69 416.765 L1003.69 431.556 L999.427 431.556 L999.427 427.621 Q997.969 429.982 995.793 431.117 Q993.617 432.228 990.469 432.228 Q986.488 432.228 984.127 430.005 Q981.789 427.76 981.789 424.01 Q981.789 419.635 984.705 417.413 Q987.645 415.191 993.455 415.191 L999.427 415.191 L999.427 414.774 Q999.427 411.834 997.483 410.237 Q995.562 408.617 992.066 408.617 Q989.844 408.617 987.738 409.149 Q985.631 409.681 983.687 410.746 L983.687 406.811 Q986.025 405.908 988.224 405.469 Q990.423 405.006 992.506 405.006 Q998.131 405.006 1000.91 407.922 Q1003.69 410.839 1003.69 416.765 Z" fill="#000000" fill-rule="nonzero" fill-opacity="1" /><path clip-path="url(#clip020)" d="M1029.52 409.566 L1029.52 395.538 L1033.78 395.538 L1033.78 431.556 L1029.52 431.556 L1029.52 427.667 Q1028.18 429.982 1026.12 431.117 Q1024.08 432.228 1021.21 432.228 Q1016.51 432.228 1013.55 428.478 Q1010.61 424.728 1010.61 418.617 Q1010.61 412.506 1013.55 408.756 Q1016.51 405.006 1021.21 405.006 Q1024.08 405.006 1026.12 406.14 Q1028.18 407.251 1029.52 409.566 M1015.01 418.617 Q1015.01 423.316 1016.93 426.001 Q1018.87 428.663 1022.25 428.663 Q1025.63 428.663 1027.58 426.001 Q1029.52 423.316 1029.52 418.617 Q1029.52 413.918 1027.58 411.256 Q1025.63 408.57 1022.25 408.57 Q1018.87 408.57 1016.93 411.256 Q1015.01 413.918 1015.01 418.617 Z" fill="#000000" fill-rule="nonzero" fill-opacity="1" /><path clip-path="url(#clip020)" d="M1064.1 415.908 L1064.1 431.556 L1059.84 431.556 L1059.84 416.047 Q1059.84 412.367 1058.41 410.538 Q1056.97 408.709 1054.1 408.709 Q1050.65 408.709 1048.66 410.908 Q1046.67 413.107 1046.67 416.904 L1046.67 431.556 L1042.39 431.556 L1042.39 405.631 L1046.67 405.631 L1046.67 409.658 Q1048.2 407.32 1050.26 406.163 Q1052.34 405.006 1055.05 405.006 Q1059.52 405.006 1061.81 407.783 Q1064.1 410.538 1064.1 415.908 Z" fill="#000000" fill-rule="nonzero" fill-opacity="1" /><path clip-path="url(#clip020)" d="M1072.6 395.538 L1076.86 395.538 L1076.86 431.556 L1072.6 431.556 L1072.6 395.538 Z" fill="#000000" fill-rule="nonzero" fill-opacity="1" /><path clip-path="url(#clip020)" d="M1089.89 427.667 L1089.89 441.417 L1085.61 441.417 L1085.61 405.631 L1089.89 405.631 L1089.89 409.566 Q1091.23 407.251 1093.27 406.14 Q1095.33 405.006 1098.18 405.006 Q1102.9 405.006 1105.84 408.756 Q1108.8 412.506 1108.8 418.617 Q1108.8 424.728 1105.84 428.478 Q1102.9 432.228 1098.18 432.228 Q1095.33 432.228 1093.27 431.117 Q1091.23 429.982 1089.89 427.667 M1104.38 418.617 Q1104.38 413.918 1102.44 411.256 Q1100.51 408.57 1097.14 408.57 Q1093.76 408.57 1091.81 411.256 Q1089.89 413.918 1089.89 418.617 Q1089.89 423.316 1091.81 426.001 Q1093.76 428.663 1097.14 428.663 Q1100.51 428.663 1102.44 426.001 Q1104.38 423.316 1104.38 418.617 Z" fill="#000000" fill-rule="nonzero" fill-opacity="1" /><path clip-path="url(#clip020)" d="M1115.19 395.584 L1118.89 395.584 Q1122.37 401.047 1124.08 406.279 Q1125.82 411.51 1125.82 416.672 Q1125.82 421.857 1124.08 427.112 Q1122.37 432.367 1118.89 437.806 L1115.19 437.806 Q1118.27 432.505 1119.77 427.274 Q1121.3 422.019 1121.3 416.672 Q1121.3 411.325 1119.77 406.117 Q1118.27 400.908 1115.19 395.584 Z" fill="#000000" fill-rule="nonzero" fill-opacity="1" /></svg>
