<?xml version="1.0" encoding="utf-8"?>
<svg xmlns="http://www.w3.org/2000/svg" xmlns:xlink="http://www.w3.org/1999/xlink" width="900" height="600" viewBox="0 0 3600 2400">
<defs>
  <clipPath id="clip440">
    <rect x="0" y="0" width="3600" height="2400"/>
  </clipPath>
</defs>
<path clip-path="url(#clip440)" d="M0 2400 L3600 2400 L3600 0 L0 0  Z" fill="#ffffff" fill-rule="evenodd" fill-opacity="1"/>
<defs>
  <clipPath id="clip441">
    <rect x="359" y="246" width="3194" height="1911"/>
  </clipPath>
</defs>
<path clip-path="url(#clip440)" d="M290.052 2156.51 L3552.76 2156.51 L3552.76 246.944 L290.052 246.944  Z" fill="#ffffff" fill-rule="evenodd" fill-opacity="1"/>
<defs>
  <clipPath id="clip442">
    <rect x="290" y="246" width="3264" height="1911"/>
  </clipPath>
</defs>
<polyline clip-path="url(#clip442)" style="stroke:#000000; stroke-linecap:round; stroke-linejoin:round; stroke-width:2; stroke-opacity:0.1; fill:none" points="813.219,2156.51 813.219,246.944 "/>
<polyline clip-path="url(#clip442)" style="stroke:#000000; stroke-linecap:round; stroke-linejoin:round; stroke-width:2; stroke-opacity:0.1; fill:none" points="1921.4,2156.51 1921.4,246.944 "/>
<polyline clip-path="url(#clip442)" style="stroke:#000000; stroke-linecap:round; stroke-linejoin:round; stroke-width:2; stroke-opacity:0.1; fill:none" points="3029.59,2156.51 3029.59,246.944 "/>
<polyline clip-path="url(#clip442)" style="stroke:#000000; stroke-linecap:round; stroke-linejoin:round; stroke-width:2; stroke-opacity:0.1; fill:none" points="290.052,2156.51 3552.76,2156.51 "/>
<polyline clip-path="url(#clip442)" style="stroke:#000000; stroke-linecap:round; stroke-linejoin:round; stroke-width:2; stroke-opacity:0.1; fill:none" points="290.052,1564.95 3552.76,1564.95 "/>
<polyline clip-path="url(#clip442)" style="stroke:#000000; stroke-linecap:round; stroke-linejoin:round; stroke-width:2; stroke-opacity:0.1; fill:none" points="290.052,973.393 3552.76,973.393 "/>
<polyline clip-path="url(#clip442)" style="stroke:#000000; stroke-linecap:round; stroke-linejoin:round; stroke-width:2; stroke-opacity:0.1; fill:none" points="290.052,381.836 3552.76,381.836 "/>
<polyline clip-path="url(#clip440)" style="stroke:#000000; stroke-linecap:round; stroke-linejoin:round; stroke-width:4; stroke-opacity:1; fill:none" points="290.052,2156.51 3552.76,2156.51 "/>
<polyline clip-path="url(#clip440)" style="stroke:#000000; stroke-linecap:round; stroke-linejoin:round; stroke-width:4; stroke-opacity:1; fill:none" points="813.219,2156.51 813.219,2137.61 "/>
<polyline clip-path="url(#clip440)" style="stroke:#000000; stroke-linecap:round; stroke-linejoin:round; stroke-width:4; stroke-opacity:1; fill:none" points="1921.4,2156.51 1921.4,2137.61 "/>
<polyline clip-path="url(#clip440)" style="stroke:#000000; stroke-linecap:round; stroke-linejoin:round; stroke-width:4; stroke-opacity:1; fill:none" points="3029.59,2156.51 3029.59,2137.61 "/>
<path clip-path="url(#clip440)" d="M776.911 2224.57 L793.23 2224.57 L793.23 2228.51 L771.286 2228.51 L771.286 2224.57 Q773.948 2221.82 778.531 2217.19 Q783.138 2212.54 784.318 2211.19 Q786.564 2208.67 787.443 2206.93 Q788.346 2205.17 788.346 2203.48 Q788.346 2200.73 786.402 2198.99 Q784.48 2197.26 781.378 2197.26 Q779.179 2197.26 776.726 2198.02 Q774.295 2198.79 771.517 2200.34 L771.517 2195.61 Q774.341 2194.48 776.795 2193.9 Q779.249 2193.32 781.286 2193.32 Q786.656 2193.32 789.851 2196.01 Q793.045 2198.69 793.045 2203.18 Q793.045 2205.31 792.235 2207.23 Q791.448 2209.13 789.341 2211.73 Q788.763 2212.4 785.661 2215.61 Q782.559 2218.81 776.911 2224.57 Z" fill="#000000" fill-rule="nonzero" fill-opacity="1" /><path clip-path="url(#clip440)" d="M813.045 2197.03 Q809.434 2197.03 807.605 2200.59 Q805.8 2204.13 805.8 2211.26 Q805.8 2218.37 807.605 2221.93 Q809.434 2225.48 813.045 2225.48 Q816.679 2225.48 818.485 2221.93 Q820.313 2218.37 820.313 2211.26 Q820.313 2204.13 818.485 2200.59 Q816.679 2197.03 813.045 2197.03 M813.045 2193.32 Q818.855 2193.32 821.911 2197.93 Q824.989 2202.51 824.989 2211.26 Q824.989 2219.99 821.911 2224.6 Q818.855 2229.18 813.045 2229.18 Q807.235 2229.18 804.156 2224.6 Q801.101 2219.99 801.101 2211.26 Q801.101 2202.51 804.156 2197.93 Q807.235 2193.32 813.045 2193.32 Z" fill="#000000" fill-rule="nonzero" fill-opacity="1" /><path clip-path="url(#clip440)" d="M843.207 2197.03 Q839.596 2197.03 837.767 2200.59 Q835.961 2204.13 835.961 2211.26 Q835.961 2218.37 837.767 2221.93 Q839.596 2225.48 843.207 2225.48 Q846.841 2225.48 848.647 2221.93 Q850.475 2218.37 850.475 2211.26 Q850.475 2204.13 848.647 2200.59 Q846.841 2197.03 843.207 2197.03 M843.207 2193.32 Q849.017 2193.32 852.073 2197.93 Q855.151 2202.51 855.151 2211.26 Q855.151 2219.99 852.073 2224.6 Q849.017 2229.18 843.207 2229.18 Q837.397 2229.18 834.318 2224.6 Q831.262 2219.99 831.262 2211.26 Q831.262 2202.51 834.318 2197.93 Q837.397 2193.32 843.207 2193.32 Z" fill="#000000" fill-rule="nonzero" fill-opacity="1" /><path clip-path="url(#clip440)" d="M1881.02 2193.95 L1899.38 2193.95 L1899.38 2197.88 L1885.3 2197.88 L1885.3 2206.36 Q1886.32 2206.01 1887.34 2205.85 Q1888.36 2205.66 1889.38 2205.66 Q1895.17 2205.66 1898.55 2208.83 Q1901.93 2212 1901.93 2217.42 Q1901.93 2223 1898.45 2226.1 Q1894.98 2229.18 1888.66 2229.18 Q1886.49 2229.18 1884.22 2228.81 Q1881.97 2228.44 1879.56 2227.7 L1879.56 2223 Q1881.65 2224.13 1883.87 2224.69 Q1886.09 2225.24 1888.57 2225.24 Q1892.57 2225.24 1894.91 2223.14 Q1897.25 2221.03 1897.25 2217.42 Q1897.25 2213.81 1894.91 2211.7 Q1892.57 2209.6 1888.57 2209.6 Q1886.69 2209.6 1884.82 2210.01 Q1882.97 2210.43 1881.02 2211.31 L1881.02 2193.95 Z" fill="#000000" fill-rule="nonzero" fill-opacity="1" /><path clip-path="url(#clip440)" d="M1921.14 2197.03 Q1917.53 2197.03 1915.7 2200.59 Q1913.89 2204.13 1913.89 2211.26 Q1913.89 2218.37 1915.7 2221.93 Q1917.53 2225.48 1921.14 2225.48 Q1924.77 2225.48 1926.58 2221.93 Q1928.41 2218.37 1928.41 2211.26 Q1928.41 2204.13 1926.58 2200.59 Q1924.77 2197.03 1921.14 2197.03 M1921.14 2193.32 Q1926.95 2193.32 1930 2197.93 Q1933.08 2202.51 1933.08 2211.26 Q1933.08 2219.99 1930 2224.6 Q1926.95 2229.18 1921.14 2229.18 Q1915.33 2229.18 1912.25 2224.6 Q1909.19 2219.99 1909.19 2211.26 Q1909.19 2202.51 1912.25 2197.93 Q1915.33 2193.32 1921.14 2193.32 Z" fill="#000000" fill-rule="nonzero" fill-opacity="1" /><path clip-path="url(#clip440)" d="M1951.3 2197.03 Q1947.69 2197.03 1945.86 2200.59 Q1944.05 2204.13 1944.05 2211.26 Q1944.05 2218.37 1945.86 2221.93 Q1947.69 2225.48 1951.3 2225.48 Q1954.93 2225.48 1956.74 2221.93 Q1958.57 2218.37 1958.57 2211.26 Q1958.57 2204.13 1956.74 2200.59 Q1954.93 2197.03 1951.3 2197.03 M1951.3 2193.32 Q1957.11 2193.32 1960.17 2197.93 Q1963.24 2202.51 1963.24 2211.26 Q1963.24 2219.99 1960.17 2224.6 Q1957.11 2229.18 1951.3 2229.18 Q1945.49 2229.18 1942.41 2224.6 Q1939.36 2219.99 1939.36 2211.26 Q1939.36 2202.51 1942.41 2197.93 Q1945.49 2193.32 1951.3 2193.32 Z" fill="#000000" fill-rule="nonzero" fill-opacity="1" /><path clip-path="url(#clip440)" d="M2974.12 2224.57 L2981.75 2224.57 L2981.75 2198.21 L2973.44 2199.87 L2973.44 2195.61 L2981.71 2193.95 L2986.38 2193.95 L2986.38 2224.57 L2994.02 2224.57 L2994.02 2228.51 L2974.12 2228.51 L2974.12 2224.57 Z" fill="#000000" fill-rule="nonzero" fill-opacity="1" /><path clip-path="url(#clip440)" d="M3013.47 2197.03 Q3009.86 2197.03 3008.03 2200.59 Q3006.22 2204.13 3006.22 2211.26 Q3006.22 2218.37 3008.03 2221.93 Q3009.86 2225.48 3013.47 2225.48 Q3017.1 2225.48 3018.91 2221.93 Q3020.74 2218.37 3020.74 2211.26 Q3020.74 2204.13 3018.91 2200.59 Q3017.1 2197.03 3013.47 2197.03 M3013.47 2193.32 Q3019.28 2193.32 3022.33 2197.93 Q3025.41 2202.51 3025.41 2211.26 Q3025.41 2219.99 3022.33 2224.6 Q3019.28 2229.18 3013.47 2229.18 Q3007.66 2229.18 3004.58 2224.6 Q3001.52 2219.99 3001.52 2211.26 Q3001.52 2202.51 3004.58 2197.93 Q3007.66 2193.32 3013.47 2193.32 Z" fill="#000000" fill-rule="nonzero" fill-opacity="1" /><path clip-path="url(#clip440)" d="M3043.63 2197.03 Q3040.02 2197.03 3038.19 2200.59 Q3036.38 2204.13 3036.38 2211.26 Q3036.38 2218.37 3038.19 2221.93 Q3040.02 2225.48 3043.63 2225.48 Q3047.26 2225.48 3049.07 2221.93 Q3050.9 2218.37 3050.9 2211.26 Q3050.9 2204.13 3049.07 2200.59 Q3047.26 2197.03 3043.63 2197.03 M3043.63 2193.32 Q3049.44 2193.32 3052.49 2197.93 Q3055.57 2202.51 3055.57 2211.26 Q3055.57 2219.99 3052.49 2224.6 Q3049.44 2229.18 3043.63 2229.18 Q3037.82 2229.18 3034.74 2224.6 Q3031.68 2219.99 3031.68 2211.26 Q3031.68 2202.51 3034.74 2197.93 Q3037.82 2193.32 3043.63 2193.32 Z" fill="#000000" fill-rule="nonzero" fill-opacity="1" /><path clip-path="url(#clip440)" d="M3073.79 2197.03 Q3070.18 2197.03 3068.35 2200.59 Q3066.55 2204.13 3066.55 2211.26 Q3066.55 2218.37 3068.35 2221.93 Q3070.18 2225.48 3073.79 2225.48 Q3077.43 2225.48 3079.23 2221.93 Q3081.06 2218.37 3081.06 2211.26 Q3081.06 2204.13 3079.23 2200.59 Q3077.43 2197.03 3073.79 2197.03 M3073.79 2193.32 Q3079.6 2193.32 3082.66 2197.93 Q3085.74 2202.51 3085.74 2211.26 Q3085.74 2219.99 3082.66 2224.6 Q3079.6 2229.18 3073.79 2229.18 Q3067.98 2229.18 3064.9 2224.6 Q3061.85 2219.99 3061.85 2211.26 Q3061.85 2202.51 3064.9 2197.93 Q3067.98 2193.32 3073.79 2193.32 Z" fill="#000000" fill-rule="nonzero" fill-opacity="1" /><path clip-path="url(#clip440)" d="M1797.29 2308.02 L1797.29 2296.42 L1787.74 2296.42 L1787.74 2291.62 L1803.07 2291.62 L1803.07 2310.17 Q1799.69 2312.57 1795.61 2313.81 Q1791.53 2315.03 1786.9 2315.03 Q1776.77 2315.03 1771.04 2309.12 Q1765.34 2303.19 1765.34 2292.63 Q1765.34 2282.04 1771.04 2276.14 Q1776.77 2270.21 1786.9 2270.21 Q1791.12 2270.21 1794.91 2271.25 Q1798.73 2272.29 1801.95 2274.32 L1801.95 2280.54 Q1798.71 2277.79 1795.06 2276.4 Q1791.41 2275.01 1787.39 2275.01 Q1779.46 2275.01 1775.47 2279.44 Q1771.51 2283.86 1771.51 2292.63 Q1771.51 2301.37 1775.47 2305.8 Q1779.46 2310.22 1787.39 2310.22 Q1790.49 2310.22 1792.92 2309.7 Q1795.35 2309.15 1797.29 2308.02 Z" fill="#000000" fill-rule="nonzero" fill-opacity="1" /><path clip-path="url(#clip440)" d="M1832.3 2286.76 Q1831.4 2286.24 1830.33 2286 Q1829.29 2285.74 1828.02 2285.74 Q1823.5 2285.74 1821.07 2288.7 Q1818.67 2291.62 1818.67 2297.12 L1818.67 2314.19 L1813.32 2314.19 L1813.32 2281.78 L1818.67 2281.78 L1818.67 2286.82 Q1820.35 2283.86 1823.04 2282.45 Q1825.73 2281 1829.58 2281 Q1830.13 2281 1830.79 2281.09 Q1831.46 2281.14 1832.27 2281.29 L1832.3 2286.76 Z" fill="#000000" fill-rule="nonzero" fill-opacity="1" /><path clip-path="url(#clip440)" d="M1837.88 2281.78 L1843.21 2281.78 L1843.21 2314.19 L1837.88 2314.19 L1837.88 2281.78 M1837.88 2269.16 L1843.21 2269.16 L1843.21 2275.91 L1837.88 2275.91 L1837.88 2269.16 Z" fill="#000000" fill-rule="nonzero" fill-opacity="1" /><path clip-path="url(#clip440)" d="M1875.67 2286.7 L1875.67 2269.16 L1881 2269.16 L1881 2314.19 L1875.67 2314.19 L1875.67 2309.33 Q1873.99 2312.22 1871.42 2313.64 Q1868.87 2315.03 1865.28 2315.03 Q1859.41 2315.03 1855.71 2310.34 Q1852.03 2305.65 1852.03 2298.01 Q1852.03 2290.37 1855.71 2285.69 Q1859.41 2281 1865.28 2281 Q1868.87 2281 1871.42 2282.42 Q1873.99 2283.81 1875.67 2286.7 M1857.53 2298.01 Q1857.53 2303.89 1859.93 2307.24 Q1862.36 2310.57 1866.59 2310.57 Q1870.81 2310.57 1873.24 2307.24 Q1875.67 2303.89 1875.67 2298.01 Q1875.67 2292.14 1873.24 2288.81 Q1870.81 2285.46 1866.59 2285.46 Q1862.36 2285.46 1859.93 2288.81 Q1857.53 2292.14 1857.53 2298.01 Z" fill="#000000" fill-rule="nonzero" fill-opacity="1" /><path clip-path="url(#clip440)" d="M1931.46 2282.74 L1931.46 2287.77 Q1929.2 2286.61 1926.77 2286.03 Q1924.34 2285.46 1921.74 2285.46 Q1917.77 2285.46 1915.78 2286.67 Q1913.81 2287.89 1913.81 2290.32 Q1913.81 2292.17 1915.23 2293.24 Q1916.64 2294.28 1920.93 2295.24 L1922.75 2295.64 Q1928.42 2296.86 1930.79 2299.08 Q1933.2 2301.28 1933.2 2305.25 Q1933.2 2309.76 1929.61 2312.39 Q1926.05 2315.03 1919.8 2315.03 Q1917.19 2315.03 1914.36 2314.51 Q1911.55 2314.01 1908.43 2313 L1908.43 2307.5 Q1911.38 2309.04 1914.24 2309.82 Q1917.11 2310.57 1919.91 2310.57 Q1923.68 2310.57 1925.7 2309.3 Q1927.73 2308 1927.73 2305.65 Q1927.73 2303.48 1926.25 2302.32 Q1924.8 2301.17 1919.86 2300.1 L1918 2299.66 Q1913.06 2298.62 1910.86 2296.48 Q1908.66 2294.31 1908.66 2290.55 Q1908.66 2285.98 1911.9 2283.49 Q1915.14 2281 1921.1 2281 Q1924.05 2281 1926.66 2281.43 Q1929.26 2281.87 1931.46 2282.74 Z" fill="#000000" fill-rule="nonzero" fill-opacity="1" /><path clip-path="url(#clip440)" d="M1941.67 2281.78 L1947 2281.78 L1947 2314.19 L1941.67 2314.19 L1941.67 2281.78 M1941.67 2269.16 L1947 2269.16 L1947 2275.91 L1941.67 2275.91 L1941.67 2269.16 Z" fill="#000000" fill-rule="nonzero" fill-opacity="1" /><path clip-path="url(#clip440)" d="M1955.82 2281.78 L1981.11 2281.78 L1981.11 2286.64 L1961.09 2309.93 L1981.11 2309.93 L1981.11 2314.19 L1955.1 2314.19 L1955.1 2309.33 L1975.12 2286.03 L1955.82 2286.03 L1955.82 2281.78 Z" fill="#000000" fill-rule="nonzero" fill-opacity="1" /><path clip-path="url(#clip440)" d="M2016.96 2296.65 L2016.96 2299.26 L1992.48 2299.26 Q1992.83 2304.75 1995.78 2307.65 Q1998.76 2310.51 2004.06 2310.51 Q2007.12 2310.51 2009.99 2309.76 Q2012.88 2309.01 2015.72 2307.5 L2015.72 2312.54 Q2012.85 2313.75 2009.84 2314.39 Q2006.83 2315.03 2003.74 2315.03 Q1995.98 2315.03 1991.44 2310.51 Q1986.93 2306 1986.93 2298.3 Q1986.93 2290.35 1991.21 2285.69 Q1995.52 2281 2002.81 2281 Q2009.35 2281 2013.14 2285.22 Q2016.96 2289.42 2016.96 2296.65 M2011.64 2295.09 Q2011.58 2290.72 2009.18 2288.12 Q2006.81 2285.51 2002.87 2285.51 Q1998.41 2285.51 1995.72 2288.03 Q1993.06 2290.55 1992.66 2295.12 L2011.64 2295.09 Z" fill="#000000" fill-rule="nonzero" fill-opacity="1" /><path clip-path="url(#clip440)" d="M2044.77 2270.99 L2052.64 2270.99 L2071.79 2307.13 L2071.79 2270.99 L2077.47 2270.99 L2077.47 2314.19 L2069.59 2314.19 L2050.44 2278.05 L2050.44 2314.19 L2044.77 2314.19 L2044.77 2270.99 Z" fill="#000000" fill-rule="nonzero" fill-opacity="1" /><polyline clip-path="url(#clip440)" style="stroke:#000000; stroke-linecap:round; stroke-linejoin:round; stroke-width:4; stroke-opacity:1; fill:none" points="290.052,2156.51 290.052,246.944 "/>
<polyline clip-path="url(#clip440)" style="stroke:#000000; stroke-linecap:round; stroke-linejoin:round; stroke-width:4; stroke-opacity:1; fill:none" points="290.052,2156.51 308.95,2156.51 "/>
<polyline clip-path="url(#clip440)" style="stroke:#000000; stroke-linecap:round; stroke-linejoin:round; stroke-width:4; stroke-opacity:1; fill:none" points="290.052,1564.95 308.95,1564.95 "/>
<polyline clip-path="url(#clip440)" style="stroke:#000000; stroke-linecap:round; stroke-linejoin:round; stroke-width:4; stroke-opacity:1; fill:none" points="290.052,973.393 308.95,973.393 "/>
<polyline clip-path="url(#clip440)" style="stroke:#000000; stroke-linecap:round; stroke-linejoin:round; stroke-width:4; stroke-opacity:1; fill:none" points="290.052,381.836 308.95,381.836 "/>
<path clip-path="url(#clip440)" d="M178.877 2142.31 Q175.266 2142.31 173.437 2145.87 Q171.631 2149.41 171.631 2156.54 Q171.631 2163.65 173.437 2167.21 Q175.266 2170.76 178.877 2170.76 Q182.511 2170.76 184.316 2167.21 Q186.145 2163.65 186.145 2156.54 Q186.145 2149.41 184.316 2145.87 Q182.511 2142.31 178.877 2142.31 M178.877 2138.6 Q184.687 2138.6 187.742 2143.21 Q190.821 2147.79 190.821 2156.54 Q190.821 2165.27 187.742 2169.88 Q184.687 2174.46 178.877 2174.46 Q173.067 2174.46 169.988 2169.88 Q166.932 2165.27 166.932 2156.54 Q166.932 2147.79 169.988 2143.21 Q173.067 2138.6 178.877 2138.6 Z" fill="#000000" fill-rule="nonzero" fill-opacity="1" /><path clip-path="url(#clip440)" d="M199.039 2167.91 L203.923 2167.91 L203.923 2173.79 L199.039 2173.79 L199.039 2167.91 Z" fill="#000000" fill-rule="nonzero" fill-opacity="1" /><path clip-path="url(#clip440)" d="M224.108 2142.31 Q220.497 2142.31 218.668 2145.87 Q216.863 2149.41 216.863 2156.54 Q216.863 2163.65 218.668 2167.21 Q220.497 2170.76 224.108 2170.76 Q227.742 2170.76 229.548 2167.21 Q231.376 2163.65 231.376 2156.54 Q231.376 2149.41 229.548 2145.87 Q227.742 2142.31 224.108 2142.31 M224.108 2138.6 Q229.918 2138.6 232.974 2143.21 Q236.052 2147.79 236.052 2156.54 Q236.052 2165.27 232.974 2169.88 Q229.918 2174.46 224.108 2174.46 Q218.298 2174.46 215.219 2169.88 Q212.164 2165.27 212.164 2156.54 Q212.164 2147.79 215.219 2143.21 Q218.298 2138.6 224.108 2138.6 Z" fill="#000000" fill-rule="nonzero" fill-opacity="1" /><path clip-path="url(#clip440)" d="M180.104 1550.75 Q176.492 1550.75 174.664 1554.31 Q172.858 1557.86 172.858 1564.99 Q172.858 1572.09 174.664 1575.66 Q176.492 1579.2 180.104 1579.2 Q183.738 1579.2 185.543 1575.66 Q187.372 1572.09 187.372 1564.99 Q187.372 1557.86 185.543 1554.31 Q183.738 1550.75 180.104 1550.75 M180.104 1547.05 Q185.914 1547.05 188.969 1551.65 Q192.048 1556.24 192.048 1564.99 Q192.048 1573.71 188.969 1578.32 Q185.914 1582.9 180.104 1582.9 Q174.293 1582.9 171.215 1578.32 Q168.159 1573.71 168.159 1564.99 Q168.159 1556.24 171.215 1551.65 Q174.293 1547.05 180.104 1547.05 Z" fill="#000000" fill-rule="nonzero" fill-opacity="1" /><path clip-path="url(#clip440)" d="M200.265 1576.35 L205.15 1576.35 L205.15 1582.23 L200.265 1582.23 L200.265 1576.35 Z" fill="#000000" fill-rule="nonzero" fill-opacity="1" /><path clip-path="url(#clip440)" d="M216.145 1578.3 L223.784 1578.3 L223.784 1551.93 L215.474 1553.6 L215.474 1549.34 L223.738 1547.67 L228.413 1547.67 L228.413 1578.3 L236.052 1578.3 L236.052 1582.23 L216.145 1582.23 L216.145 1578.3 Z" fill="#000000" fill-rule="nonzero" fill-opacity="1" /><path clip-path="url(#clip440)" d="M180.474 959.192 Q176.863 959.192 175.034 962.757 Q173.229 966.298 173.229 973.428 Q173.229 980.534 175.034 984.099 Q176.863 987.641 180.474 987.641 Q184.108 987.641 185.914 984.099 Q187.742 980.534 187.742 973.428 Q187.742 966.298 185.914 962.757 Q184.108 959.192 180.474 959.192 M180.474 955.488 Q186.284 955.488 189.34 960.095 Q192.418 964.678 192.418 973.428 Q192.418 982.155 189.34 986.761 Q186.284 991.344 180.474 991.344 Q174.664 991.344 171.585 986.761 Q168.529 982.155 168.529 973.428 Q168.529 964.678 171.585 960.095 Q174.664 955.488 180.474 955.488 Z" fill="#000000" fill-rule="nonzero" fill-opacity="1" /><path clip-path="url(#clip440)" d="M200.636 984.794 L205.52 984.794 L205.52 990.673 L200.636 990.673 L200.636 984.794 Z" fill="#000000" fill-rule="nonzero" fill-opacity="1" /><path clip-path="url(#clip440)" d="M219.733 986.738 L236.052 986.738 L236.052 990.673 L214.108 990.673 L214.108 986.738 Q216.77 983.983 221.353 979.354 Q225.96 974.701 227.14 973.358 Q229.386 970.835 230.265 969.099 Q231.168 967.34 231.168 965.65 Q231.168 962.896 229.224 961.159 Q227.302 959.423 224.2 959.423 Q222.001 959.423 219.548 960.187 Q217.117 960.951 214.339 962.502 L214.339 957.78 Q217.163 956.646 219.617 956.067 Q222.071 955.488 224.108 955.488 Q229.478 955.488 232.673 958.173 Q235.867 960.859 235.867 965.349 Q235.867 967.479 235.057 969.4 Q234.27 971.298 232.163 973.891 Q231.585 974.562 228.483 977.78 Q225.381 980.974 219.733 986.738 Z" fill="#000000" fill-rule="nonzero" fill-opacity="1" /><path clip-path="url(#clip440)" d="M179.525 367.635 Q175.914 367.635 174.085 371.199 Q172.279 374.741 172.279 381.871 Q172.279 388.977 174.085 392.542 Q175.914 396.084 179.525 396.084 Q183.159 396.084 184.965 392.542 Q186.793 388.977 186.793 381.871 Q186.793 374.741 184.965 371.199 Q183.159 367.635 179.525 367.635 M179.525 363.931 Q185.335 363.931 188.391 368.537 Q191.469 373.121 191.469 381.871 Q191.469 390.597 188.391 395.204 Q185.335 399.787 179.525 399.787 Q173.715 399.787 170.636 395.204 Q167.58 390.597 167.58 381.871 Q167.58 373.121 170.636 368.537 Q173.715 363.931 179.525 363.931 Z" fill="#000000" fill-rule="nonzero" fill-opacity="1" /><path clip-path="url(#clip440)" d="M199.687 393.236 L204.571 393.236 L204.571 399.116 L199.687 399.116 L199.687 393.236 Z" fill="#000000" fill-rule="nonzero" fill-opacity="1" /><path clip-path="url(#clip440)" d="M228.923 380.482 Q232.279 381.199 234.154 383.468 Q236.052 385.736 236.052 389.07 Q236.052 394.185 232.534 396.986 Q229.015 399.787 222.534 399.787 Q220.358 399.787 218.043 399.347 Q215.751 398.931 213.298 398.074 L213.298 393.56 Q215.242 394.695 217.557 395.273 Q219.872 395.852 222.395 395.852 Q226.793 395.852 229.085 394.116 Q231.4 392.38 231.4 389.07 Q231.4 386.014 229.247 384.301 Q227.117 382.565 223.298 382.565 L219.27 382.565 L219.27 378.723 L223.483 378.723 Q226.932 378.723 228.761 377.357 Q230.589 375.968 230.589 373.375 Q230.589 370.713 228.691 369.301 Q226.816 367.866 223.298 367.866 Q221.376 367.866 219.177 368.283 Q216.978 368.699 214.339 369.579 L214.339 365.412 Q217.001 364.672 219.316 364.301 Q221.654 363.931 223.714 363.931 Q229.038 363.931 232.14 366.361 Q235.242 368.769 235.242 372.889 Q235.242 375.76 233.599 377.75 Q231.955 379.718 228.923 380.482 Z" fill="#000000" fill-rule="nonzero" fill-opacity="1" /><path clip-path="url(#clip440)" d="M58.1901 1374.69 L63.8903 1374.69 Q62.2989 1378.01 61.5176 1380.96 Q60.7364 1383.92 60.7364 1386.66 Q60.7364 1391.44 62.5882 1394.04 Q64.4401 1396.62 67.8544 1396.62 Q70.719 1396.62 72.1947 1394.91 Q73.6414 1393.17 74.5384 1388.37 L75.2618 1384.84 Q76.506 1378.3 79.6599 1375.21 Q82.7849 1372.08 88.0511 1372.08 Q94.33 1372.08 97.5707 1376.31 Q100.811 1380.5 100.811 1388.63 Q100.811 1391.7 100.117 1395.17 Q99.4225 1398.61 98.0626 1402.32 L92.0441 1402.32 Q94.0406 1398.76 95.0533 1395.34 Q96.0661 1391.93 96.0661 1388.63 Q96.0661 1383.63 94.0985 1380.91 Q92.1309 1378.19 88.4851 1378.19 Q85.3022 1378.19 83.5083 1380.15 Q81.7143 1382.09 80.8173 1386.55 L80.1229 1390.11 Q78.8208 1396.65 76.043 1399.57 Q73.2653 1402.49 68.3174 1402.49 Q62.5882 1402.49 59.2896 1398.47 Q55.991 1394.42 55.991 1387.33 Q55.991 1384.29 56.5408 1381.14 Q57.0906 1377.98 58.1901 1374.69 Z" fill="#000000" fill-rule="nonzero" fill-opacity="1" /><path clip-path="url(#clip440)" d="M71.2977 1350.64 Q71.2977 1354.92 74.6541 1357.41 Q77.9817 1359.9 83.7976 1359.9 Q89.6135 1359.9 92.97 1357.44 Q96.2975 1354.95 96.2975 1350.64 Q96.2975 1346.39 92.9411 1343.9 Q89.5846 1341.41 83.7976 1341.41 Q78.0395 1341.41 74.6831 1343.9 Q71.2977 1346.39 71.2977 1350.64 M66.7838 1350.64 Q66.7838 1343.7 71.2977 1339.73 Q75.8115 1335.77 83.7976 1335.77 Q91.7547 1335.77 96.2975 1339.73 Q100.811 1343.7 100.811 1350.64 Q100.811 1357.61 96.2975 1361.58 Q91.7547 1365.51 83.7976 1365.51 Q75.8115 1365.51 71.2977 1361.58 Q66.7838 1357.61 66.7838 1350.64 Z" fill="#000000" fill-rule="nonzero" fill-opacity="1" /><path clip-path="url(#clip440)" d="M54.9494 1326.94 L54.9494 1321.62 L99.9723 1321.62 L99.9723 1326.94 L54.9494 1326.94 Z" fill="#000000" fill-rule="nonzero" fill-opacity="1" /><path clip-path="url(#clip440)" d="M67.565 1314.3 L67.565 1308.66 L94.764 1298.53 L67.565 1288.4 L67.565 1282.76 L99.9723 1294.91 L99.9723 1302.15 L67.565 1314.3 Z" fill="#000000" fill-rule="nonzero" fill-opacity="1" /><path clip-path="url(#clip440)" d="M82.4377 1247.69 L85.0418 1247.69 L85.0418 1272.17 Q90.5395 1271.82 93.433 1268.87 Q96.2975 1265.89 96.2975 1260.59 Q96.2975 1257.53 95.5452 1254.66 Q94.7929 1251.77 93.2883 1248.93 L98.323 1248.93 Q99.5383 1251.8 100.175 1254.81 Q100.811 1257.82 100.811 1260.91 Q100.811 1268.67 96.2975 1273.21 Q91.7837 1277.72 84.087 1277.72 Q76.1298 1277.72 71.4713 1273.44 Q66.7838 1269.13 66.7838 1261.84 Q66.7838 1255.3 71.0083 1251.51 Q75.2039 1247.69 82.4377 1247.69 M80.8752 1253.01 Q76.506 1253.07 73.9018 1255.47 Q71.2977 1257.85 71.2977 1261.78 Q71.2977 1266.24 73.815 1268.93 Q76.3324 1271.59 80.9041 1271.99 L80.8752 1253.01 Z" fill="#000000" fill-rule="nonzero" fill-opacity="1" /><path clip-path="url(#clip440)" d="M58.3637 1214.85 L67.565 1214.85 L67.565 1203.88 L71.7028 1203.88 L71.7028 1214.85 L89.2953 1214.85 Q93.2594 1214.85 94.3878 1213.78 Q95.5163 1212.68 95.5163 1209.35 L95.5163 1203.88 L99.9723 1203.88 L99.9723 1209.35 Q99.9723 1215.51 97.6864 1217.86 Q95.3716 1220.2 89.2953 1220.2 L71.7028 1220.2 L71.7028 1224.11 L67.565 1224.11 L67.565 1220.2 L58.3637 1220.2 L58.3637 1214.85 Z" fill="#000000" fill-rule="nonzero" fill-opacity="1" /><path clip-path="url(#clip440)" d="M67.565 1196.88 L67.565 1191.56 L99.9723 1191.56 L99.9723 1196.88 L67.565 1196.88 M54.9494 1196.88 L54.9494 1191.56 L61.6912 1191.56 L61.6912 1196.88 L54.9494 1196.88 Z" fill="#000000" fill-rule="nonzero" fill-opacity="1" /><path clip-path="url(#clip440)" d="M73.7861 1155.18 Q70.1981 1153.19 68.491 1150.41 Q66.7838 1147.63 66.7838 1143.87 Q66.7838 1138.81 70.3428 1136.06 Q73.8729 1133.31 80.4122 1133.31 L99.9723 1133.31 L99.9723 1138.66 L80.5858 1138.66 Q75.9273 1138.66 73.6703 1140.31 Q71.4134 1141.96 71.4134 1145.35 Q71.4134 1149.48 74.1622 1151.89 Q76.9111 1154.29 81.6564 1154.29 L99.9723 1154.29 L99.9723 1159.64 L80.5858 1159.64 Q75.8983 1159.64 73.6703 1161.29 Q71.4134 1162.94 71.4134 1166.38 Q71.4134 1170.46 74.1912 1172.86 Q76.94 1175.26 81.6564 1175.26 L99.9723 1175.26 L99.9723 1180.62 L67.565 1180.62 L67.565 1175.26 L72.5997 1175.26 Q69.6194 1173.44 68.2016 1170.9 Q66.7838 1168.35 66.7838 1164.85 Q66.7838 1161.32 68.5778 1158.86 Q70.3717 1156.37 73.7861 1155.18 Z" fill="#000000" fill-rule="nonzero" fill-opacity="1" /><path clip-path="url(#clip440)" d="M82.4377 1094.97 L85.0418 1094.97 L85.0418 1119.45 Q90.5395 1119.1 93.433 1116.15 Q96.2975 1113.17 96.2975 1107.88 Q96.2975 1104.81 95.5452 1101.94 Q94.7929 1099.05 93.2883 1096.21 L98.323 1096.21 Q99.5383 1099.08 100.175 1102.09 Q100.811 1105.1 100.811 1108.19 Q100.811 1115.95 96.2975 1120.49 Q91.7837 1125 84.087 1125 Q76.1298 1125 71.4713 1120.72 Q66.7838 1116.41 66.7838 1109.12 Q66.7838 1102.58 71.0083 1098.79 Q75.2039 1094.97 82.4377 1094.97 M80.8752 1100.29 Q76.506 1100.35 73.9018 1102.75 Q71.2977 1105.13 71.2977 1109.06 Q71.2977 1113.52 73.815 1116.21 Q76.3324 1118.87 80.9041 1119.28 L80.8752 1100.29 Z" fill="#000000" fill-rule="nonzero" fill-opacity="1" /><path clip-path="url(#clip440)" d="M55.0072 1054.61 Q61.6623 1058.48 68.1727 1060.36 Q74.6831 1062.24 81.3671 1062.24 Q88.0511 1062.24 94.6193 1060.36 Q101.159 1058.45 107.785 1054.61 L107.785 1059.24 Q100.985 1063.58 94.4168 1065.75 Q87.8485 1067.89 81.3671 1067.89 Q74.9145 1067.89 68.3752 1065.75 Q61.8359 1063.6 55.0072 1059.24 L55.0072 1054.61 Z" fill="#000000" fill-rule="nonzero" fill-opacity="1" /><path clip-path="url(#clip440)" d="M68.5199 1023.62 L73.5546 1023.62 Q72.3972 1025.87 71.8185 1028.3 Q71.2398 1030.73 71.2398 1033.34 Q71.2398 1037.3 72.4551 1039.3 Q73.6703 1041.27 76.1009 1041.27 Q77.9527 1041.27 79.0233 1039.85 Q80.065 1038.43 81.0198 1034.15 L81.4249 1032.33 Q82.6402 1026.65 84.8682 1024.28 Q87.0673 1021.88 91.0314 1021.88 Q95.5452 1021.88 98.1783 1025.47 Q100.811 1029.03 100.811 1035.28 Q100.811 1037.88 100.291 1040.72 Q99.7987 1043.52 98.7859 1046.65 L93.2883 1046.65 Q94.8218 1043.7 95.6031 1040.83 Q96.3554 1037.97 96.3554 1035.16 Q96.3554 1031.4 95.0823 1029.37 Q93.7802 1027.35 91.4364 1027.35 Q89.2663 1027.35 88.1089 1028.82 Q86.9515 1030.27 85.8809 1035.22 L85.4469 1037.07 Q84.4052 1042.02 82.264 1044.22 Q80.0939 1046.42 76.3324 1046.42 Q71.7606 1046.42 69.2722 1043.18 Q66.7838 1039.94 66.7838 1033.98 Q66.7838 1031.02 67.2178 1028.42 Q67.6519 1025.82 68.5199 1023.62 Z" fill="#000000" fill-rule="nonzero" fill-opacity="1" /><path clip-path="url(#clip440)" d="M55.0072 1014.24 L55.0072 1009.61 Q61.8359 1005.27 68.3752 1003.13 Q74.9145 1000.96 81.3671 1000.96 Q87.8485 1000.96 94.4168 1003.13 Q100.985 1005.27 107.785 1009.61 L107.785 1014.24 Q101.159 1010.39 94.6193 1008.51 Q88.0511 1006.6 81.3671 1006.6 Q74.6831 1006.6 68.1727 1008.51 Q61.6623 1010.39 55.0072 1014.24 Z" fill="#000000" fill-rule="nonzero" fill-opacity="1" /><path clip-path="url(#clip440)" d="M1161.68 125.969 L1161.68 133.949 Q1157.02 131.721 1152.89 130.627 Q1148.75 129.534 1144.91 129.534 Q1138.22 129.534 1134.58 132.126 Q1130.97 134.719 1130.97 139.499 Q1130.97 143.509 1133.36 145.575 Q1135.79 147.601 1142.52 148.857 L1147.46 149.869 Q1156.61 151.611 1160.95 156.027 Q1165.32 160.402 1165.32 167.774 Q1165.32 176.565 1159.41 181.102 Q1153.53 185.639 1142.15 185.639 Q1137.86 185.639 1133 184.667 Q1128.18 183.694 1122.99 181.79 L1122.99 173.365 Q1127.97 176.16 1132.75 177.577 Q1137.53 178.995 1142.15 178.995 Q1149.16 178.995 1152.97 176.241 Q1156.78 173.486 1156.78 168.382 Q1156.78 163.926 1154.02 161.414 Q1151.31 158.903 1145.07 157.647 L1140.09 156.675 Q1130.93 154.852 1126.84 150.963 Q1122.75 147.074 1122.75 140.147 Q1122.75 132.126 1128.38 127.508 Q1134.05 122.89 1143.97 122.89 Q1148.23 122.89 1152.64 123.66 Q1157.06 124.43 1161.68 125.969 Z" fill="#000000" fill-rule="nonzero" fill-opacity="1" /><path clip-path="url(#clip440)" d="M1195.34 144.32 Q1189.34 144.32 1185.86 149.019 Q1182.38 153.677 1182.38 161.819 Q1182.38 169.962 1185.82 174.661 Q1189.3 179.319 1195.34 179.319 Q1201.3 179.319 1204.78 174.62 Q1208.26 169.921 1208.26 161.819 Q1208.26 153.758 1204.78 149.059 Q1201.3 144.32 1195.34 144.32 M1195.34 138 Q1205.06 138 1210.61 144.32 Q1216.16 150.639 1216.16 161.819 Q1216.16 172.959 1210.61 179.319 Q1205.06 185.639 1195.34 185.639 Q1185.58 185.639 1180.03 179.319 Q1174.52 172.959 1174.52 161.819 Q1174.52 150.639 1180.03 144.32 Q1185.58 138 1195.34 138 Z" fill="#000000" fill-rule="nonzero" fill-opacity="1" /><path clip-path="url(#clip440)" d="M1228.52 121.432 L1235.97 121.432 L1235.97 184.464 L1228.52 184.464 L1228.52 121.432 Z" fill="#000000" fill-rule="nonzero" fill-opacity="1" /><path clip-path="url(#clip440)" d="M1246.22 139.094 L1254.12 139.094 L1268.3 177.172 L1282.48 139.094 L1290.37 139.094 L1273.36 184.464 L1263.23 184.464 L1246.22 139.094 Z" fill="#000000" fill-rule="nonzero" fill-opacity="1" /><path clip-path="url(#clip440)" d="M1339.47 159.916 L1339.47 163.561 L1305.2 163.561 Q1305.69 171.258 1309.82 175.309 Q1313.99 179.319 1321.4 179.319 Q1325.7 179.319 1329.71 178.266 Q1333.76 177.213 1337.73 175.106 L1337.73 182.155 Q1333.72 183.856 1329.51 184.748 Q1325.29 185.639 1320.96 185.639 Q1310.1 185.639 1303.74 179.319 Q1297.42 173 1297.42 162.225 Q1297.42 151.085 1303.42 144.563 Q1309.45 138 1319.66 138 Q1328.82 138 1334.12 143.914 Q1339.47 149.788 1339.47 159.916 M1332.02 157.728 Q1331.94 151.611 1328.57 147.965 Q1325.25 144.32 1319.74 144.32 Q1313.51 144.32 1309.74 147.844 Q1306.01 151.368 1305.44 157.769 L1332.02 157.728 Z" fill="#000000" fill-rule="nonzero" fill-opacity="1" /><path clip-path="url(#clip440)" d="M1385.45 126.212 L1385.45 139.094 L1400.8 139.094 L1400.8 144.887 L1385.45 144.887 L1385.45 169.516 Q1385.45 175.066 1386.95 176.646 Q1388.49 178.226 1393.15 178.226 L1400.8 178.226 L1400.8 184.464 L1393.15 184.464 Q1384.52 184.464 1381.24 181.264 Q1377.96 178.023 1377.96 169.516 L1377.96 144.887 L1372.49 144.887 L1372.49 139.094 L1377.96 139.094 L1377.96 126.212 L1385.45 126.212 Z" fill="#000000" fill-rule="nonzero" fill-opacity="1" /><path clip-path="url(#clip440)" d="M1410.61 139.094 L1418.06 139.094 L1418.06 184.464 L1410.61 184.464 L1410.61 139.094 M1410.61 121.432 L1418.06 121.432 L1418.06 130.871 L1410.61 130.871 L1410.61 121.432 Z" fill="#000000" fill-rule="nonzero" fill-opacity="1" /><path clip-path="url(#clip440)" d="M1468.98 147.803 Q1471.77 142.78 1475.66 140.39 Q1479.55 138 1484.82 138 Q1491.91 138 1495.76 142.983 Q1499.6 147.925 1499.6 157.08 L1499.6 184.464 L1492.11 184.464 L1492.11 157.323 Q1492.11 150.801 1489.8 147.641 Q1487.49 144.482 1482.75 144.482 Q1476.96 144.482 1473.6 148.33 Q1470.23 152.178 1470.23 158.822 L1470.23 184.464 L1462.74 184.464 L1462.74 157.323 Q1462.74 150.76 1460.43 147.641 Q1458.12 144.482 1453.3 144.482 Q1447.59 144.482 1444.23 148.37 Q1440.87 152.219 1440.87 158.822 L1440.87 184.464 L1433.37 184.464 L1433.37 139.094 L1440.87 139.094 L1440.87 146.142 Q1443.42 141.97 1446.98 139.985 Q1450.55 138 1455.45 138 Q1460.39 138 1463.83 140.512 Q1467.32 143.023 1468.98 147.803 Z" fill="#000000" fill-rule="nonzero" fill-opacity="1" /><path clip-path="url(#clip440)" d="M1553.28 159.916 L1553.28 163.561 L1519.01 163.561 Q1519.49 171.258 1523.63 175.309 Q1527.8 179.319 1535.21 179.319 Q1539.51 179.319 1543.52 178.266 Q1547.57 177.213 1551.54 175.106 L1551.54 182.155 Q1547.53 183.856 1543.31 184.748 Q1539.1 185.639 1534.77 185.639 Q1523.91 185.639 1517.55 179.319 Q1511.23 173 1511.23 162.225 Q1511.23 151.085 1517.23 144.563 Q1523.26 138 1533.47 138 Q1542.62 138 1547.93 143.914 Q1553.28 149.788 1553.28 159.916 M1545.82 157.728 Q1545.74 151.611 1542.38 147.965 Q1539.06 144.32 1533.55 144.32 Q1527.31 144.32 1523.54 147.844 Q1519.82 151.368 1519.25 157.769 L1545.82 157.728 Z" fill="#000000" fill-rule="nonzero" fill-opacity="1" /><path clip-path="url(#clip440)" d="M1586.54 139.094 L1594.44 139.094 L1608.61 177.172 L1622.79 139.094 L1630.69 139.094 L1613.68 184.464 L1603.55 184.464 L1586.54 139.094 Z" fill="#000000" fill-rule="nonzero" fill-opacity="1" /><path clip-path="url(#clip440)" d="M1669.9 140.431 L1669.9 147.479 Q1666.74 145.859 1663.34 145.049 Q1659.94 144.239 1656.29 144.239 Q1650.74 144.239 1647.95 145.94 Q1645.19 147.641 1645.19 151.044 Q1645.19 153.637 1647.18 155.135 Q1649.16 156.594 1655.16 157.931 L1657.71 158.498 Q1665.65 160.199 1668.97 163.318 Q1672.33 166.397 1672.33 171.947 Q1672.33 178.266 1667.31 181.952 Q1662.33 185.639 1653.58 185.639 Q1649.93 185.639 1645.96 184.91 Q1642.03 184.221 1637.66 182.803 L1637.66 175.106 Q1641.79 177.253 1645.8 178.347 Q1649.81 179.4 1653.74 179.4 Q1659.01 179.4 1661.84 177.618 Q1664.68 175.795 1664.68 172.514 Q1664.68 169.476 1662.61 167.855 Q1660.59 166.235 1653.66 164.736 L1651.07 164.128 Q1644.14 162.67 1641.06 159.672 Q1637.98 156.634 1637.98 151.368 Q1637.98 144.968 1642.52 141.484 Q1647.06 138 1655.4 138 Q1659.53 138 1663.18 138.608 Q1666.83 139.215 1669.9 140.431 Z" fill="#000000" fill-rule="nonzero" fill-opacity="1" /><path clip-path="url(#clip440)" d="M1740.43 161.252 Q1740.43 153.151 1737.07 148.695 Q1733.75 144.239 1727.71 144.239 Q1721.71 144.239 1718.35 148.695 Q1715.03 153.151 1715.03 161.252 Q1715.03 169.314 1718.35 173.77 Q1721.71 178.226 1727.71 178.226 Q1733.75 178.226 1737.07 173.77 Q1740.43 169.314 1740.43 161.252 M1747.88 178.833 Q1747.88 190.419 1742.74 196.05 Q1737.59 201.721 1726.98 201.721 Q1723.05 201.721 1719.57 201.113 Q1716.08 200.546 1712.8 199.331 L1712.8 192.08 Q1716.08 193.862 1719.28 194.713 Q1722.48 195.563 1725.81 195.563 Q1733.14 195.563 1736.78 191.715 Q1740.43 187.907 1740.43 180.17 L1740.43 176.484 Q1738.12 180.494 1734.52 182.479 Q1730.91 184.464 1725.89 184.464 Q1717.54 184.464 1712.44 178.104 Q1707.33 171.744 1707.33 161.252 Q1707.33 150.72 1712.44 144.36 Q1717.54 138 1725.89 138 Q1730.91 138 1734.52 139.985 Q1738.12 141.97 1740.43 145.98 L1740.43 139.094 L1747.88 139.094 L1747.88 178.833 Z" fill="#000000" fill-rule="nonzero" fill-opacity="1" /><path clip-path="url(#clip440)" d="M1789.53 146.061 Q1788.27 145.332 1786.77 145.008 Q1785.31 144.644 1783.53 144.644 Q1777.21 144.644 1773.81 148.776 Q1770.45 152.867 1770.45 160.564 L1770.45 184.464 L1762.95 184.464 L1762.95 139.094 L1770.45 139.094 L1770.45 146.142 Q1772.8 142.011 1776.56 140.026 Q1780.33 138 1785.72 138 Q1786.49 138 1787.42 138.122 Q1788.35 138.203 1789.49 138.405 L1789.53 146.061 Z" fill="#000000" fill-rule="nonzero" fill-opacity="1" /><path clip-path="url(#clip440)" d="M1797.35 139.094 L1804.8 139.094 L1804.8 184.464 L1797.35 184.464 L1797.35 139.094 M1797.35 121.432 L1804.8 121.432 L1804.8 130.871 L1797.35 130.871 L1797.35 121.432 Z" fill="#000000" fill-rule="nonzero" fill-opacity="1" /><path clip-path="url(#clip440)" d="M1850.25 145.98 L1850.25 121.432 L1857.7 121.432 L1857.7 184.464 L1850.25 184.464 L1850.25 177.658 Q1847.9 181.709 1844.3 183.694 Q1840.73 185.639 1835.71 185.639 Q1827.48 185.639 1822.3 179.076 Q1817.15 172.514 1817.15 161.819 Q1817.15 151.125 1822.3 144.563 Q1827.48 138 1835.71 138 Q1840.73 138 1844.3 139.985 Q1847.9 141.93 1850.25 145.98 M1824.85 161.819 Q1824.85 170.043 1828.21 174.742 Q1831.62 179.4 1837.53 179.4 Q1843.44 179.4 1846.85 174.742 Q1850.25 170.043 1850.25 161.819 Q1850.25 153.596 1846.85 148.938 Q1843.44 144.239 1837.53 144.239 Q1831.62 144.239 1828.21 148.938 Q1824.85 153.596 1824.85 161.819 Z" fill="#000000" fill-rule="nonzero" fill-opacity="1" /><path clip-path="url(#clip440)" d="M1928.35 140.431 L1928.35 147.479 Q1925.19 145.859 1921.79 145.049 Q1918.39 144.239 1914.74 144.239 Q1909.19 144.239 1906.4 145.94 Q1903.64 147.641 1903.64 151.044 Q1903.64 153.637 1905.63 155.135 Q1907.61 156.594 1913.61 157.931 L1916.16 158.498 Q1924.1 160.199 1927.42 163.318 Q1930.78 166.397 1930.78 171.947 Q1930.78 178.266 1925.76 181.952 Q1920.78 185.639 1912.03 185.639 Q1908.38 185.639 1904.41 184.91 Q1900.48 184.221 1896.11 182.803 L1896.11 175.106 Q1900.24 177.253 1904.25 178.347 Q1908.26 179.4 1912.19 179.4 Q1917.45 179.4 1920.29 177.618 Q1923.13 175.795 1923.13 172.514 Q1923.13 169.476 1921.06 167.855 Q1919.03 166.235 1912.11 164.736 L1909.51 164.128 Q1902.59 162.67 1899.51 159.672 Q1896.43 156.634 1896.43 151.368 Q1896.43 144.968 1900.97 141.484 Q1905.5 138 1913.85 138 Q1917.98 138 1921.63 138.608 Q1925.27 139.215 1928.35 140.431 Z" fill="#000000" fill-rule="nonzero" fill-opacity="1" /><path clip-path="url(#clip440)" d="M1942.65 139.094 L1950.1 139.094 L1950.1 184.464 L1942.65 184.464 L1942.65 139.094 M1942.65 121.432 L1950.1 121.432 L1950.1 130.871 L1942.65 130.871 L1942.65 121.432 Z" fill="#000000" fill-rule="nonzero" fill-opacity="1" /><path clip-path="url(#clip440)" d="M1962.46 139.094 L1997.86 139.094 L1997.86 145.899 L1969.83 178.509 L1997.86 178.509 L1997.86 184.464 L1961.45 184.464 L1961.45 177.658 L1989.48 145.049 L1962.46 145.049 L1962.46 139.094 Z" fill="#000000" fill-rule="nonzero" fill-opacity="1" /><path clip-path="url(#clip440)" d="M2048.06 159.916 L2048.06 163.561 L2013.78 163.561 Q2014.27 171.258 2018.4 175.309 Q2022.58 179.319 2029.99 179.319 Q2034.28 179.319 2038.29 178.266 Q2042.34 177.213 2046.31 175.106 L2046.31 182.155 Q2042.3 183.856 2038.09 184.748 Q2033.88 185.639 2029.54 185.639 Q2018.69 185.639 2012.33 179.319 Q2006.01 173 2006.01 162.225 Q2006.01 151.085 2012 144.563 Q2018.04 138 2028.25 138 Q2037.4 138 2042.71 143.914 Q2048.06 149.788 2048.06 159.916 M2040.6 157.728 Q2040.52 151.611 2037.16 147.965 Q2033.84 144.32 2028.33 144.32 Q2022.09 144.32 2018.32 147.844 Q2014.6 151.368 2014.03 157.769 L2040.6 157.728 Z" fill="#000000" fill-rule="nonzero" fill-opacity="1" /><path clip-path="url(#clip440)" d="M2104.57 121.513 Q2099.14 130.83 2096.5 139.945 Q2093.87 149.059 2093.87 158.417 Q2093.87 167.774 2096.5 176.97 Q2099.18 186.125 2104.57 195.401 L2098.08 195.401 Q2092.01 185.882 2088.97 176.686 Q2085.97 167.491 2085.97 158.417 Q2085.97 149.383 2088.97 140.228 Q2091.97 131.073 2098.08 121.513 L2104.57 121.513 Z" fill="#000000" fill-rule="nonzero" fill-opacity="1" /><path clip-path="url(#clip440)" d="M2151.6 161.819 Q2151.6 153.596 2148.19 148.938 Q2144.83 144.239 2138.92 144.239 Q2133 144.239 2129.6 148.938 Q2126.24 153.596 2126.24 161.819 Q2126.24 170.043 2129.6 174.742 Q2133 179.4 2138.92 179.4 Q2144.83 179.4 2148.19 174.742 Q2151.6 170.043 2151.6 161.819 M2126.24 145.98 Q2128.59 141.93 2132.15 139.985 Q2135.76 138 2140.74 138 Q2149 138 2154.15 144.563 Q2159.33 151.125 2159.33 161.819 Q2159.33 172.514 2154.15 179.076 Q2149 185.639 2140.74 185.639 Q2135.76 185.639 2132.15 183.694 Q2128.59 181.709 2126.24 177.658 L2126.24 184.464 L2118.74 184.464 L2118.74 121.432 L2126.24 121.432 L2126.24 145.98 Z" fill="#000000" fill-rule="nonzero" fill-opacity="1" /><path clip-path="url(#clip440)" d="M2192.31 161.657 Q2183.27 161.657 2179.79 163.723 Q2176.31 165.789 2176.31 170.772 Q2176.31 174.742 2178.9 177.091 Q2181.53 179.4 2186.03 179.4 Q2192.23 179.4 2195.95 175.025 Q2199.72 170.61 2199.72 163.318 L2199.72 161.657 L2192.31 161.657 M2207.18 158.579 L2207.18 184.464 L2199.72 184.464 L2199.72 177.577 Q2197.17 181.709 2193.36 183.694 Q2189.55 185.639 2184.04 185.639 Q2177.08 185.639 2172.94 181.75 Q2168.85 177.821 2168.85 171.258 Q2168.85 163.602 2173.96 159.713 Q2179.1 155.824 2189.27 155.824 L2199.72 155.824 L2199.72 155.095 Q2199.72 149.95 2196.32 147.155 Q2192.96 144.32 2186.84 144.32 Q2182.95 144.32 2179.26 145.251 Q2175.58 146.183 2172.18 148.046 L2172.18 141.16 Q2176.27 139.58 2180.12 138.81 Q2183.96 138 2187.61 138 Q2197.45 138 2202.31 143.104 Q2207.18 148.208 2207.18 158.579 Z" fill="#000000" fill-rule="nonzero" fill-opacity="1" /><path clip-path="url(#clip440)" d="M2248.82 146.061 Q2247.56 145.332 2246.06 145.008 Q2244.61 144.644 2242.82 144.644 Q2236.5 144.644 2233.1 148.776 Q2229.74 152.867 2229.74 160.564 L2229.74 184.464 L2222.24 184.464 L2222.24 139.094 L2229.74 139.094 L2229.74 146.142 Q2232.09 142.011 2235.86 140.026 Q2239.62 138 2245.01 138 Q2245.78 138 2246.71 138.122 Q2247.64 138.203 2248.78 138.405 L2248.82 146.061 Z" fill="#000000" fill-rule="nonzero" fill-opacity="1" /><path clip-path="url(#clip440)" d="M2255.46 121.513 L2261.94 121.513 Q2268.02 131.073 2271.02 140.228 Q2274.06 149.383 2274.06 158.417 Q2274.06 167.491 2271.02 176.686 Q2268.02 185.882 2261.94 195.401 L2255.46 195.401 Q2260.85 186.125 2263.48 176.97 Q2266.16 167.774 2266.16 158.417 Q2266.16 149.059 2263.48 139.945 Q2260.85 130.83 2255.46 121.513 Z" fill="#000000" fill-rule="nonzero" fill-opacity="1" /><path clip-path="url(#clip440)" d="M2311.61 158.822 L2386.47 158.822 L2386.47 164.655 L2311.61 164.655 L2311.61 158.822 Z" fill="#000000" fill-rule="nonzero" fill-opacity="1" /><path clip-path="url(#clip440)" d="M2451 146.061 Q2449.74 145.332 2448.24 145.008 Q2446.79 144.644 2445 144.644 Q2438.68 144.644 2435.28 148.776 Q2431.92 152.867 2431.92 160.564 L2431.92 184.464 L2424.43 184.464 L2424.43 139.094 L2431.92 139.094 L2431.92 146.142 Q2434.27 142.011 2438.04 140.026 Q2441.8 138 2447.19 138 Q2447.96 138 2448.89 138.122 Q2449.82 138.203 2450.96 138.405 L2451 146.061 Z" fill="#000000" fill-rule="nonzero" fill-opacity="1" /><path clip-path="url(#clip440)" d="M2474.58 144.32 Q2468.58 144.32 2465.1 149.019 Q2461.61 153.677 2461.61 161.819 Q2461.61 169.962 2465.06 174.661 Q2468.54 179.319 2474.58 179.319 Q2480.53 179.319 2484.01 174.62 Q2487.5 169.921 2487.5 161.819 Q2487.5 153.758 2484.01 149.059 Q2480.53 144.32 2474.58 144.32 M2474.58 138 Q2484.3 138 2489.85 144.32 Q2495.4 150.639 2495.4 161.819 Q2495.4 172.959 2489.85 179.319 Q2484.3 185.639 2474.58 185.639 Q2464.81 185.639 2459.26 179.319 Q2453.75 172.959 2453.75 161.819 Q2453.75 150.639 2459.26 144.32 Q2464.81 138 2474.58 138 Z" fill="#000000" fill-rule="nonzero" fill-opacity="1" /><path clip-path="url(#clip440)" d="M2540.32 161.819 Q2540.32 153.596 2536.92 148.938 Q2533.56 144.239 2527.64 144.239 Q2521.73 144.239 2518.33 148.938 Q2514.96 153.596 2514.96 161.819 Q2514.96 170.043 2518.33 174.742 Q2521.73 179.4 2527.64 179.4 Q2533.56 179.4 2536.92 174.742 Q2540.32 170.043 2540.32 161.819 M2514.96 145.98 Q2517.31 141.93 2520.88 139.985 Q2524.48 138 2529.47 138 Q2537.73 138 2542.87 144.563 Q2548.06 151.125 2548.06 161.819 Q2548.06 172.514 2542.87 179.076 Q2537.73 185.639 2529.47 185.639 Q2524.48 185.639 2520.88 183.694 Q2517.31 181.709 2514.96 177.658 L2514.96 184.464 L2507.47 184.464 L2507.47 121.432 L2514.96 121.432 L2514.96 145.98 Z" fill="#000000" fill-rule="nonzero" fill-opacity="1" /><path clip-path="url(#clip440)" d="M2592.98 161.819 Q2592.98 153.596 2589.58 148.938 Q2586.22 144.239 2580.3 144.239 Q2574.39 144.239 2570.99 148.938 Q2567.62 153.596 2567.62 161.819 Q2567.62 170.043 2570.99 174.742 Q2574.39 179.4 2580.3 179.4 Q2586.22 179.4 2589.58 174.742 Q2592.98 170.043 2592.98 161.819 M2567.62 145.98 Q2569.97 141.93 2573.54 139.985 Q2577.14 138 2582.13 138 Q2590.39 138 2595.54 144.563 Q2600.72 151.125 2600.72 161.819 Q2600.72 172.514 2595.54 179.076 Q2590.39 185.639 2582.13 185.639 Q2577.14 185.639 2573.54 183.694 Q2569.97 181.709 2567.62 177.658 L2567.62 184.464 L2560.13 184.464 L2560.13 121.432 L2567.62 121.432 L2567.62 145.98 Z" fill="#000000" fill-rule="nonzero" fill-opacity="1" /><path clip-path="url(#clip440)" d="M2613.08 139.094 L2620.53 139.094 L2620.53 184.464 L2613.08 184.464 L2613.08 139.094 M2613.08 121.432 L2620.53 121.432 L2620.53 130.871 L2613.08 130.871 L2613.08 121.432 Z" fill="#000000" fill-rule="nonzero" fill-opacity="1" /><path clip-path="url(#clip440)" d="M2673.84 157.08 L2673.84 184.464 L2666.39 184.464 L2666.39 157.323 Q2666.39 150.882 2663.87 147.682 Q2661.36 144.482 2656.34 144.482 Q2650.3 144.482 2646.82 148.33 Q2643.34 152.178 2643.34 158.822 L2643.34 184.464 L2635.84 184.464 L2635.84 139.094 L2643.34 139.094 L2643.34 146.142 Q2646.01 142.051 2649.61 140.026 Q2653.26 138 2658 138 Q2665.82 138 2669.83 142.861 Q2673.84 147.682 2673.84 157.08 Z" fill="#000000" fill-rule="nonzero" fill-opacity="1" /><path clip-path="url(#clip440)" d="M2717.63 140.431 L2717.63 147.479 Q2714.47 145.859 2711.07 145.049 Q2707.66 144.239 2704.02 144.239 Q2698.47 144.239 2695.67 145.94 Q2692.92 147.641 2692.92 151.044 Q2692.92 153.637 2694.9 155.135 Q2696.89 156.594 2702.88 157.931 L2705.44 158.498 Q2713.38 160.199 2716.7 163.318 Q2720.06 166.397 2720.06 171.947 Q2720.06 178.266 2715.04 181.952 Q2710.05 185.639 2701.3 185.639 Q2697.66 185.639 2693.69 184.91 Q2689.76 184.221 2685.38 182.803 L2685.38 175.106 Q2689.52 177.253 2693.53 178.347 Q2697.54 179.4 2701.47 179.4 Q2706.73 179.4 2709.57 177.618 Q2712.4 175.795 2712.4 172.514 Q2712.4 169.476 2710.34 167.855 Q2708.31 166.235 2701.39 164.736 L2698.79 164.128 Q2691.87 162.67 2688.79 159.672 Q2685.71 156.634 2685.71 151.368 Q2685.71 144.968 2690.25 141.484 Q2694.78 138 2703.13 138 Q2707.26 138 2710.91 138.608 Q2714.55 139.215 2717.63 140.431 Z" fill="#000000" fill-rule="nonzero" fill-opacity="1" /><path clip-path="url(#clip442)" d="M451.211 1954.13 L451.211 2156.51 L528.784 2156.51 L528.784 1954.13 L451.211 1954.13 L451.211 1954.13  Z" fill="#4682b4" fill-rule="evenodd" fill-opacity="1"/>
<polyline clip-path="url(#clip442)" style="stroke:#000000; stroke-linecap:round; stroke-linejoin:round; stroke-width:0; stroke-opacity:0; fill:none" points="451.211,1954.13 451.211,2156.51 528.784,2156.51 528.784,1954.13 451.211,1954.13 "/>
<path clip-path="url(#clip442)" d="M1559.4 1726.07 L1559.4 2156.51 L1636.97 2156.51 L1636.97 1726.07 L1559.4 1726.07 L1559.4 1726.07  Z" fill="#4682b4" fill-rule="evenodd" fill-opacity="1"/>
<polyline clip-path="url(#clip442)" style="stroke:#000000; stroke-linecap:round; stroke-linejoin:round; stroke-width:0; stroke-opacity:0; fill:none" points="1559.4,1726.07 1559.4,2156.51 1636.97,2156.51 1636.97,1726.07 1559.4,1726.07 "/>
<path clip-path="url(#clip442)" d="M2667.58 874.735 L2667.58 2156.51 L2745.16 2156.51 L2745.16 874.735 L2667.58 874.735 L2667.58 874.735  Z" fill="#4682b4" fill-rule="evenodd" fill-opacity="1"/>
<polyline clip-path="url(#clip442)" style="stroke:#000000; stroke-linecap:round; stroke-linejoin:round; stroke-width:0; stroke-opacity:0; fill:none" points="2667.58,874.735 2667.58,2156.51 2745.16,2156.51 2745.16,874.735 2667.58,874.735 "/>
<circle clip-path="url(#clip442)" style="fill:#4682b4; stroke:none; fill-opacity:0" cx="489.998" cy="1954.13" r="2"/>
<circle clip-path="url(#clip442)" style="fill:#4682b4; stroke:none; fill-opacity:0" cx="1598.18" cy="1726.07" r="2"/>
<circle clip-path="url(#clip442)" style="fill:#4682b4; stroke:none; fill-opacity:0" cx="2706.37" cy="874.735" r="2"/>
<path clip-path="url(#clip442)" d="M580.5 1901.06 L580.5 2156.51 L658.073 2156.51 L658.073 1901.06 L580.5 1901.06 L580.5 1901.06  Z" fill="#2e8b57" fill-rule="evenodd" fill-opacity="1"/>
<polyline clip-path="url(#clip442)" style="stroke:#000000; stroke-linecap:round; stroke-linejoin:round; stroke-width:0; stroke-opacity:0; fill:none" points="580.5,1901.06 580.5,2156.51 658.073,2156.51 658.073,1901.06 580.5,1901.06 "/>
<path clip-path="url(#clip442)" d="M1688.69 1637.84 L1688.69 2156.51 L1766.26 2156.51 L1766.26 1637.84 L1688.69 1637.84 L1688.69 1637.84  Z" fill="#2e8b57" fill-rule="evenodd" fill-opacity="1"/>
<polyline clip-path="url(#clip442)" style="stroke:#000000; stroke-linecap:round; stroke-linejoin:round; stroke-width:0; stroke-opacity:0; fill:none" points="1688.69,1637.84 1688.69,2156.51 1766.26,2156.51 1766.26,1637.84 1688.69,1637.84 "/>
<path clip-path="url(#clip442)" d="M2796.87 246.944 L2796.87 2156.51 L2874.44 2156.51 L2874.44 246.944 L2796.87 246.944 L2796.87 246.944  Z" fill="#2e8b57" fill-rule="evenodd" fill-opacity="1"/>
<polyline clip-path="url(#clip442)" style="stroke:#000000; stroke-linecap:round; stroke-linejoin:round; stroke-width:0; stroke-opacity:0; fill:none" points="2796.87,246.944 2796.87,2156.51 2874.44,2156.51 2874.44,246.944 2796.87,246.944 "/>
<circle clip-path="url(#clip442)" style="fill:#2e8b57; stroke:none; fill-opacity:0" cx="619.286" cy="1901.06" r="2"/>
<circle clip-path="url(#clip442)" style="fill:#2e8b57; stroke:none; fill-opacity:0" cx="1727.47" cy="1637.84" r="2"/>
<circle clip-path="url(#clip442)" style="fill:#2e8b57; stroke:none; fill-opacity:0" cx="2835.66" cy="246.944" r="2"/>
<path clip-path="url(#clip442)" d="M709.788 2019.16 L709.788 2156.51 L787.361 2156.51 L787.361 2019.16 L709.788 2019.16 L709.788 2019.16  Z" fill="#ff6347" fill-rule="evenodd" fill-opacity="1"/>
<polyline clip-path="url(#clip442)" style="stroke:#000000; stroke-linecap:round; stroke-linejoin:round; stroke-width:0; stroke-opacity:0; fill:none" points="709.788,2019.16 709.788,2156.51 787.361,2156.51 787.361,2019.16 709.788,2019.16 "/>
<path clip-path="url(#clip442)" d="M1817.97 1858.15 L1817.97 2156.51 L1895.55 2156.51 L1895.55 1858.15 L1817.97 1858.15 L1817.97 1858.15  Z" fill="#ff6347" fill-rule="evenodd" fill-opacity="1"/>
<polyline clip-path="url(#clip442)" style="stroke:#000000; stroke-linecap:round; stroke-linejoin:round; stroke-width:0; stroke-opacity:0; fill:none" points="1817.97,1858.15 1817.97,2156.51 1895.55,2156.51 1895.55,1858.15 1817.97,1858.15 "/>
<path clip-path="url(#clip442)" d="M2926.16 1335.73 L2926.16 2156.51 L3003.73 2156.51 L3003.73 1335.73 L2926.16 1335.73 L2926.16 1335.73  Z" fill="#ff6347" fill-rule="evenodd" fill-opacity="1"/>
<polyline clip-path="url(#clip442)" style="stroke:#000000; stroke-linecap:round; stroke-linejoin:round; stroke-width:0; stroke-opacity:0; fill:none" points="2926.16,1335.73 2926.16,2156.51 3003.73,2156.51 3003.73,1335.73 2926.16,1335.73 "/>
<circle clip-path="url(#clip442)" style="fill:#ff6347; stroke:none; fill-opacity:0" cx="748.574" cy="2019.16" r="2"/>
<circle clip-path="url(#clip442)" style="fill:#ff6347; stroke:none; fill-opacity:0" cx="1856.76" cy="1858.15" r="2"/>
<circle clip-path="url(#clip442)" style="fill:#ff6347; stroke:none; fill-opacity:0" cx="2964.95" cy="1335.73" r="2"/>
<path clip-path="url(#clip442)" d="M839.076 2000.32 L839.076 2156.51 L916.649 2156.51 L916.649 2000.32 L839.076 2000.32 L839.076 2000.32  Z" fill="#ff8c00" fill-rule="evenodd" fill-opacity="1"/>
<polyline clip-path="url(#clip442)" style="stroke:#000000; stroke-linecap:round; stroke-linejoin:round; stroke-width:0; stroke-opacity:0; fill:none" points="839.076,2000.32 839.076,2156.51 916.649,2156.51 916.649,2000.32 839.076,2000.32 "/>
<path clip-path="url(#clip442)" d="M1947.26 1843.37 L1947.26 2156.51 L2024.83 2156.51 L2024.83 1843.37 L1947.26 1843.37 L1947.26 1843.37  Z" fill="#ff8c00" fill-rule="evenodd" fill-opacity="1"/>
<polyline clip-path="url(#clip442)" style="stroke:#000000; stroke-linecap:round; stroke-linejoin:round; stroke-width:0; stroke-opacity:0; fill:none" points="1947.26,1843.37 1947.26,2156.51 2024.83,2156.51 2024.83,1843.37 1947.26,1843.37 "/>
<path clip-path="url(#clip442)" d="M3055.45 1150.99 L3055.45 2156.51 L3133.02 2156.51 L3133.02 1150.99 L3055.45 1150.99 L3055.45 1150.99  Z" fill="#ff8c00" fill-rule="evenodd" fill-opacity="1"/>
<polyline clip-path="url(#clip442)" style="stroke:#000000; stroke-linecap:round; stroke-linejoin:round; stroke-width:0; stroke-opacity:0; fill:none" points="3055.45,1150.99 3055.45,2156.51 3133.02,2156.51 3133.02,1150.99 3055.45,1150.99 "/>
<circle clip-path="url(#clip442)" style="fill:#ff8c00; stroke:none; fill-opacity:0" cx="877.863" cy="2000.32" r="2"/>
<circle clip-path="url(#clip442)" style="fill:#ff8c00; stroke:none; fill-opacity:0" cx="1986.05" cy="1843.37" r="2"/>
<circle clip-path="url(#clip442)" style="fill:#ff8c00; stroke:none; fill-opacity:0" cx="3094.23" cy="1150.99" r="2"/>
<path clip-path="url(#clip442)" d="M968.365 2006.31 L968.365 2156.51 L1045.94 2156.51 L1045.94 2006.31 L968.365 2006.31 L968.365 2006.31  Z" fill="#9370db" fill-rule="evenodd" fill-opacity="1"/>
<polyline clip-path="url(#clip442)" style="stroke:#000000; stroke-linecap:round; stroke-linejoin:round; stroke-width:0; stroke-opacity:0; fill:none" points="968.365,2006.31 968.365,2156.51 1045.94,2156.51 1045.94,2006.31 968.365,2006.31 "/>
<path clip-path="url(#clip442)" d="M2076.55 1864.28 L2076.55 2156.51 L2154.12 2156.51 L2154.12 1864.28 L2076.55 1864.28 L2076.55 1864.28  Z" fill="#9370db" fill-rule="evenodd" fill-opacity="1"/>
<polyline clip-path="url(#clip442)" style="stroke:#000000; stroke-linecap:round; stroke-linejoin:round; stroke-width:0; stroke-opacity:0; fill:none" points="2076.55,1864.28 2076.55,2156.51 2154.12,2156.51 2154.12,1864.28 2076.55,1864.28 "/>
<path clip-path="url(#clip442)" d="M3184.74 1353.22 L3184.74 2156.51 L3262.31 2156.51 L3262.31 1353.22 L3184.74 1353.22 L3184.74 1353.22  Z" fill="#9370db" fill-rule="evenodd" fill-opacity="1"/>
<polyline clip-path="url(#clip442)" style="stroke:#000000; stroke-linecap:round; stroke-linejoin:round; stroke-width:0; stroke-opacity:0; fill:none" points="3184.74,1353.22 3184.74,2156.51 3262.31,2156.51 3262.31,1353.22 3184.74,1353.22 "/>
<circle clip-path="url(#clip442)" style="fill:#9370db; stroke:none; fill-opacity:0" cx="1007.15" cy="2006.31" r="2"/>
<circle clip-path="url(#clip442)" style="fill:#9370db; stroke:none; fill-opacity:0" cx="2115.34" cy="1864.28" r="2"/>
<circle clip-path="url(#clip442)" style="fill:#9370db; stroke:none; fill-opacity:0" cx="3223.52" cy="1353.22" r="2"/>
<path clip-path="url(#clip442)" d="M1097.65 2004.43 L1097.65 2156.51 L1175.23 2156.51 L1175.23 2004.43 L1097.65 2004.43 L1097.65 2004.43  Z" fill="#a0522d" fill-rule="evenodd" fill-opacity="1"/>
<polyline clip-path="url(#clip442)" style="stroke:#000000; stroke-linecap:round; stroke-linejoin:round; stroke-width:0; stroke-opacity:0; fill:none" points="1097.65,2004.43 1097.65,2156.51 1175.23,2156.51 1175.23,2004.43 1097.65,2004.43 "/>
<path clip-path="url(#clip442)" d="M2205.84 1829.77 L2205.84 2156.51 L2283.41 2156.51 L2283.41 1829.77 L2205.84 1829.77 L2205.84 1829.77  Z" fill="#a0522d" fill-rule="evenodd" fill-opacity="1"/>
<polyline clip-path="url(#clip442)" style="stroke:#000000; stroke-linecap:round; stroke-linejoin:round; stroke-width:0; stroke-opacity:0; fill:none" points="2205.84,1829.77 2205.84,2156.51 2283.41,2156.51 2283.41,1829.77 2205.84,1829.77 "/>
<path clip-path="url(#clip442)" d="M3314.02 1178.26 L3314.02 2156.51 L3391.6 2156.51 L3391.6 1178.26 L3314.02 1178.26 L3314.02 1178.26  Z" fill="#a0522d" fill-rule="evenodd" fill-opacity="1"/>
<polyline clip-path="url(#clip442)" style="stroke:#000000; stroke-linecap:round; stroke-linejoin:round; stroke-width:0; stroke-opacity:0; fill:none" points="3314.02,1178.26 3314.02,2156.51 3391.6,2156.51 3391.6,1178.26 3314.02,1178.26 "/>
<circle clip-path="url(#clip442)" style="fill:#a0522d; stroke:none; fill-opacity:0" cx="1136.44" cy="2004.43" r="2"/>
<circle clip-path="url(#clip442)" style="fill:#a0522d; stroke:none; fill-opacity:0" cx="2244.62" cy="1829.77" r="2"/>
<circle clip-path="url(#clip442)" style="fill:#a0522d; stroke:none; fill-opacity:0" cx="3352.81" cy="1178.26" r="2"/>
<path clip-path="url(#clip440)" d="M398.809 673.476 L1095.15 673.476 L1095.15 310.596 L398.809 310.596  Z" fill="#ffffff" fill-rule="evenodd" fill-opacity="1"/>
<polyline clip-path="url(#clip440)" style="stroke:#000000; stroke-linecap:round; stroke-linejoin:round; stroke-width:4; stroke-opacity:1; fill:none" points="398.809,673.476 1095.15,673.476 1095.15,310.596 398.809,310.596 398.809,673.476 "/>
<path clip-path="url(#clip440)" d="M435.061 383.172 L652.575 383.172 L652.575 341.7 L435.061 341.7 L435.061 383.172  Z" fill="#4682b4" fill-rule="evenodd" fill-opacity="1"/>
<polyline clip-path="url(#clip440)" style="stroke:#000000; stroke-linecap:round; stroke-linejoin:round; stroke-width:0.8; stroke-opacity:0; fill:none" points="435.061,383.172 652.575,383.172 652.575,341.7 435.061,341.7 435.061,383.172 "/>
<path clip-path="url(#clip440)" d="M699.452 343.744 Q696.35 349.068 694.846 354.277 Q693.341 359.485 693.341 364.832 Q693.341 370.179 694.846 375.434 Q696.373 380.665 699.452 385.966 L695.748 385.966 Q692.276 380.527 690.54 375.272 Q688.827 370.017 688.827 364.832 Q688.827 359.67 690.54 354.439 Q692.253 349.207 695.748 343.744 L699.452 343.744 Z" fill="#000000" fill-rule="nonzero" fill-opacity="1" /><path clip-path="url(#clip440)" d="M719.498 366.684 Q714.336 366.684 712.346 367.865 Q710.355 369.045 710.355 371.892 Q710.355 374.161 711.836 375.503 Q713.341 376.823 715.91 376.823 Q719.452 376.823 721.582 374.323 Q723.734 371.8 723.734 367.633 L723.734 366.684 L719.498 366.684 M727.994 364.925 L727.994 379.716 L723.734 379.716 L723.734 375.781 Q722.276 378.142 720.1 379.277 Q717.924 380.388 714.776 380.388 Q710.795 380.388 708.434 378.165 Q706.096 375.92 706.096 372.17 Q706.096 367.795 709.012 365.573 Q711.952 363.351 717.762 363.351 L723.734 363.351 L723.734 362.934 Q723.734 359.994 721.79 358.397 Q719.869 356.777 716.373 356.777 Q714.151 356.777 712.045 357.309 Q709.938 357.841 707.994 358.906 L707.994 354.971 Q710.332 354.068 712.531 353.629 Q714.73 353.166 716.813 353.166 Q722.438 353.166 725.216 356.082 Q727.994 358.999 727.994 364.925 Z" fill="#000000" fill-rule="nonzero" fill-opacity="1" /><path clip-path="url(#clip440)" d="M753.827 357.726 L753.827 343.698 L758.086 343.698 L758.086 379.716 L753.827 379.716 L753.827 375.827 Q752.484 378.142 750.424 379.277 Q748.387 380.388 745.517 380.388 Q740.818 380.388 737.855 376.638 Q734.915 372.888 734.915 366.777 Q734.915 360.666 737.855 356.916 Q740.818 353.166 745.517 353.166 Q748.387 353.166 750.424 354.3 Q752.484 355.411 753.827 357.726 M739.313 366.777 Q739.313 371.476 741.234 374.161 Q743.179 376.823 746.558 376.823 Q749.938 376.823 751.882 374.161 Q753.827 371.476 753.827 366.777 Q753.827 362.078 751.882 359.416 Q749.938 356.73 746.558 356.73 Q743.179 356.73 741.234 359.416 Q739.313 362.078 739.313 366.777 Z" fill="#000000" fill-rule="nonzero" fill-opacity="1" /><path clip-path="url(#clip440)" d="M788.41 364.068 L788.41 379.716 L784.151 379.716 L784.151 364.207 Q784.151 360.527 782.716 358.698 Q781.28 356.869 778.41 356.869 Q774.961 356.869 772.97 359.068 Q770.98 361.267 770.98 365.064 L770.98 379.716 L766.697 379.716 L766.697 353.791 L770.98 353.791 L770.98 357.818 Q772.507 355.48 774.567 354.323 Q776.651 353.166 779.359 353.166 Q783.827 353.166 786.118 355.943 Q788.41 358.698 788.41 364.068 Z" fill="#000000" fill-rule="nonzero" fill-opacity="1" /><path clip-path="url(#clip440)" d="M796.905 343.698 L801.165 343.698 L801.165 379.716 L796.905 379.716 L796.905 343.698 Z" fill="#000000" fill-rule="nonzero" fill-opacity="1" /><path clip-path="url(#clip440)" d="M814.197 375.827 L814.197 389.577 L809.914 389.577 L809.914 353.791 L814.197 353.791 L814.197 357.726 Q815.539 355.411 817.576 354.3 Q819.637 353.166 822.484 353.166 Q827.206 353.166 830.146 356.916 Q833.109 360.666 833.109 366.777 Q833.109 372.888 830.146 376.638 Q827.206 380.388 822.484 380.388 Q819.637 380.388 817.576 379.277 Q815.539 378.142 814.197 375.827 M828.688 366.777 Q828.688 362.078 826.743 359.416 Q824.822 356.73 821.442 356.73 Q818.063 356.73 816.118 359.416 Q814.197 362.078 814.197 366.777 Q814.197 371.476 816.118 374.161 Q818.063 376.823 821.442 376.823 Q824.822 376.823 826.743 374.161 Q828.688 371.476 828.688 366.777 Z" fill="#000000" fill-rule="nonzero" fill-opacity="1" /><path clip-path="url(#clip440)" d="M841.257 373.837 L846.141 373.837 L846.141 377.818 L842.345 385.226 L839.359 385.226 L841.257 377.818 L841.257 373.837 Z" fill="#000000" fill-rule="nonzero" fill-opacity="1" /><path clip-path="url(#clip440)" d="M870.308 353.791 L874.567 353.791 L874.567 379.716 L870.308 379.716 L870.308 353.791 M870.308 343.698 L874.567 343.698 L874.567 349.092 L870.308 349.092 L870.308 343.698 Z" fill="#000000" fill-rule="nonzero" fill-opacity="1" /><path clip-path="url(#clip440)" d="M887.599 375.827 L887.599 389.577 L883.317 389.577 L883.317 353.791 L887.599 353.791 L887.599 357.726 Q888.942 355.411 890.979 354.3 Q893.039 353.166 895.886 353.166 Q900.608 353.166 903.548 356.916 Q906.511 360.666 906.511 366.777 Q906.511 372.888 903.548 376.638 Q900.608 380.388 895.886 380.388 Q893.039 380.388 890.979 379.277 Q888.942 378.142 887.599 375.827 M902.09 366.777 Q902.09 362.078 900.145 359.416 Q898.224 356.73 894.845 356.73 Q891.465 356.73 889.521 359.416 Q887.599 362.078 887.599 366.777 Q887.599 371.476 889.521 374.161 Q891.465 376.823 894.845 376.823 Q898.224 376.823 900.145 374.161 Q902.09 371.476 902.09 366.777 Z" fill="#000000" fill-rule="nonzero" fill-opacity="1" /><path clip-path="url(#clip440)" d="M923.618 356.777 Q920.192 356.777 918.201 359.462 Q916.21 362.124 916.21 366.777 Q916.21 371.429 918.178 374.115 Q920.169 376.777 923.618 376.777 Q927.02 376.777 929.011 374.091 Q931.002 371.406 931.002 366.777 Q931.002 362.17 929.011 359.485 Q927.02 356.777 923.618 356.777 M923.618 353.166 Q929.173 353.166 932.344 356.777 Q935.516 360.388 935.516 366.777 Q935.516 373.142 932.344 376.777 Q929.173 380.388 923.618 380.388 Q918.039 380.388 914.868 376.777 Q911.719 373.142 911.719 366.777 Q911.719 360.388 914.868 356.777 Q918.039 353.166 923.618 353.166 Z" fill="#000000" fill-rule="nonzero" fill-opacity="1" /><path clip-path="url(#clip440)" d="M946.696 375.827 L946.696 389.577 L942.414 389.577 L942.414 353.791 L946.696 353.791 L946.696 357.726 Q948.039 355.411 950.076 354.3 Q952.136 353.166 954.983 353.166 Q959.705 353.166 962.645 356.916 Q965.608 360.666 965.608 366.777 Q965.608 372.888 962.645 376.638 Q959.705 380.388 954.983 380.388 Q952.136 380.388 950.076 379.277 Q948.039 378.142 946.696 375.827 M961.187 366.777 Q961.187 362.078 959.242 359.416 Q957.321 356.73 953.941 356.73 Q950.562 356.73 948.617 359.416 Q946.696 362.078 946.696 366.777 Q946.696 371.476 948.617 374.161 Q950.562 376.823 953.941 376.823 Q957.321 376.823 959.242 374.161 Q961.187 371.476 961.187 366.777 Z" fill="#000000" fill-rule="nonzero" fill-opacity="1" /><path clip-path="url(#clip440)" d="M976.881 346.43 L976.881 353.791 L985.654 353.791 L985.654 357.101 L976.881 357.101 L976.881 371.175 Q976.881 374.346 977.738 375.249 Q978.617 376.152 981.279 376.152 L985.654 376.152 L985.654 379.716 L981.279 379.716 Q976.349 379.716 974.474 377.888 Q972.599 376.036 972.599 371.175 L972.599 357.101 L969.474 357.101 L969.474 353.791 L972.599 353.791 L972.599 346.43 L976.881 346.43 Z" fill="#000000" fill-rule="nonzero" fill-opacity="1" /><path clip-path="url(#clip440)" d="M990.585 343.744 L994.288 343.744 Q997.761 349.207 999.474 354.439 Q1001.21 359.67 1001.21 364.832 Q1001.21 370.017 999.474 375.272 Q997.761 380.527 994.288 385.966 L990.585 385.966 Q993.664 380.665 995.168 375.434 Q996.696 370.179 996.696 364.832 Q996.696 359.485 995.168 354.277 Q993.664 349.068 990.585 343.744 Z" fill="#000000" fill-rule="nonzero" fill-opacity="1" /><path clip-path="url(#clip440)" d="M435.061 435.012 L652.575 435.012 L652.575 393.54 L435.061 393.54 L435.061 435.012  Z" fill="#2e8b57" fill-rule="evenodd" fill-opacity="1"/>
<polyline clip-path="url(#clip440)" style="stroke:#000000; stroke-linecap:round; stroke-linejoin:round; stroke-width:0.8; stroke-opacity:0; fill:none" points="435.061,435.012 652.575,435.012 652.575,393.54 435.061,393.54 435.061,435.012 "/>
<path clip-path="url(#clip440)" d="M699.452 395.584 Q696.35 400.908 694.846 406.117 Q693.341 411.325 693.341 416.672 Q693.341 422.019 694.846 427.274 Q696.373 432.505 699.452 437.806 L695.748 437.806 Q692.276 432.367 690.54 427.112 Q688.827 421.857 688.827 416.672 Q688.827 411.51 690.54 406.279 Q692.253 401.047 695.748 395.584 L699.452 395.584 Z" fill="#000000" fill-rule="nonzero" fill-opacity="1" /><path clip-path="url(#clip440)" d="M719.498 418.524 Q714.336 418.524 712.346 419.705 Q710.355 420.885 710.355 423.732 Q710.355 426.001 711.836 427.343 Q713.341 428.663 715.91 428.663 Q719.452 428.663 721.582 426.163 Q723.734 423.64 723.734 419.473 L723.734 418.524 L719.498 418.524 M727.994 416.765 L727.994 431.556 L723.734 431.556 L723.734 427.621 Q722.276 429.982 720.1 431.117 Q717.924 432.228 714.776 432.228 Q710.795 432.228 708.434 430.005 Q706.096 427.76 706.096 424.01 Q706.096 419.635 709.012 417.413 Q711.952 415.191 717.762 415.191 L723.734 415.191 L723.734 414.774 Q723.734 411.834 721.79 410.237 Q719.869 408.617 716.373 408.617 Q714.151 408.617 712.045 409.149 Q709.938 409.681 707.994 410.746 L707.994 406.811 Q710.332 405.908 712.531 405.469 Q714.73 405.006 716.813 405.006 Q722.438 405.006 725.216 407.922 Q727.994 410.839 727.994 416.765 Z" fill="#000000" fill-rule="nonzero" fill-opacity="1" /><path clip-path="url(#clip440)" d="M753.827 409.566 L753.827 395.538 L758.086 395.538 L758.086 431.556 L753.827 431.556 L753.827 427.667 Q752.484 429.982 750.424 431.117 Q748.387 432.228 745.517 432.228 Q740.818 432.228 737.855 428.478 Q734.915 424.728 734.915 418.617 Q734.915 412.506 737.855 408.756 Q740.818 405.006 745.517 405.006 Q748.387 405.006 750.424 406.14 Q752.484 407.251 753.827 409.566 M739.313 418.617 Q739.313 423.316 741.234 426.001 Q743.179 428.663 746.558 428.663 Q749.938 428.663 751.882 426.001 Q753.827 423.316 753.827 418.617 Q753.827 413.918 751.882 411.256 Q749.938 408.57 746.558 408.57 Q743.179 408.57 741.234 411.256 Q739.313 413.918 739.313 418.617 Z" fill="#000000" fill-rule="nonzero" fill-opacity="1" /><path clip-path="url(#clip440)" d="M788.41 415.908 L788.41 431.556 L784.151 431.556 L784.151 416.047 Q784.151 412.367 782.716 410.538 Q781.28 408.709 778.41 408.709 Q774.961 408.709 772.97 410.908 Q770.98 413.107 770.98 416.904 L770.98 431.556 L766.697 431.556 L766.697 405.631 L770.98 405.631 L770.98 409.658 Q772.507 407.32 774.567 406.163 Q776.651 405.006 779.359 405.006 Q783.827 405.006 786.118 407.783 Q788.41 410.538 788.41 415.908 Z" fill="#000000" fill-rule="nonzero" fill-opacity="1" /><path clip-path="url(#clip440)" d="M796.905 395.538 L801.165 395.538 L801.165 431.556 L796.905 431.556 L796.905 395.538 Z" fill="#000000" fill-rule="nonzero" fill-opacity="1" /><path clip-path="url(#clip440)" d="M814.197 427.667 L814.197 441.417 L809.914 441.417 L809.914 405.631 L814.197 405.631 L814.197 409.566 Q815.539 407.251 817.576 406.14 Q819.637 405.006 822.484 405.006 Q827.206 405.006 830.146 408.756 Q833.109 412.506 833.109 418.617 Q833.109 424.728 830.146 428.478 Q827.206 432.228 822.484 432.228 Q819.637 432.228 817.576 431.117 Q815.539 429.982 814.197 427.667 M828.688 418.617 Q828.688 413.918 826.743 411.256 Q824.822 408.57 821.442 408.57 Q818.063 408.57 816.118 411.256 Q814.197 413.918 814.197 418.617 Q814.197 423.316 816.118 426.001 Q818.063 428.663 821.442 428.663 Q824.822 428.663 826.743 426.001 Q828.688 423.316 828.688 418.617 Z" fill="#000000" fill-rule="nonzero" fill-opacity="1" /><path clip-path="url(#clip440)" d="M841.257 425.677 L846.141 425.677 L846.141 429.658 L842.345 437.066 L839.359 437.066 L841.257 429.658 L841.257 425.677 Z" fill="#000000" fill-rule="nonzero" fill-opacity="1" /><path clip-path="url(#clip440)" d="M890.493 410.607 Q892.09 407.737 894.312 406.371 Q896.534 405.006 899.544 405.006 Q903.595 405.006 905.794 407.853 Q907.993 410.677 907.993 415.908 L907.993 431.556 L903.71 431.556 L903.71 416.047 Q903.71 412.32 902.391 410.515 Q901.071 408.709 898.363 408.709 Q895.053 408.709 893.132 410.908 Q891.21 413.107 891.21 416.904 L891.21 431.556 L886.928 431.556 L886.928 416.047 Q886.928 412.297 885.609 410.515 Q884.289 408.709 881.534 408.709 Q878.271 408.709 876.349 410.931 Q874.428 413.131 874.428 416.904 L874.428 431.556 L870.146 431.556 L870.146 405.631 L874.428 405.631 L874.428 409.658 Q875.886 407.274 877.923 406.14 Q879.96 405.006 882.761 405.006 Q885.585 405.006 887.553 406.441 Q889.544 407.876 890.493 410.607 Z" fill="#000000" fill-rule="nonzero" fill-opacity="1" /><path clip-path="url(#clip440)" d="M928.27 418.524 Q923.108 418.524 921.118 419.705 Q919.127 420.885 919.127 423.732 Q919.127 426.001 920.608 427.343 Q922.113 428.663 924.682 428.663 Q928.224 428.663 930.354 426.163 Q932.506 423.64 932.506 419.473 L932.506 418.524 L928.27 418.524 M936.766 416.765 L936.766 431.556 L932.506 431.556 L932.506 427.621 Q931.048 429.982 928.872 431.117 Q926.696 432.228 923.548 432.228 Q919.567 432.228 917.206 430.005 Q914.868 427.76 914.868 424.01 Q914.868 419.635 917.784 417.413 Q920.724 415.191 926.534 415.191 L932.506 415.191 L932.506 414.774 Q932.506 411.834 930.562 410.237 Q928.641 408.617 925.145 408.617 Q922.923 408.617 920.817 409.149 Q918.71 409.681 916.766 410.746 L916.766 406.811 Q919.104 405.908 921.303 405.469 Q923.502 405.006 925.585 405.006 Q931.21 405.006 933.988 407.922 Q936.766 410.839 936.766 416.765 Z" fill="#000000" fill-rule="nonzero" fill-opacity="1" /><path clip-path="url(#clip440)" d="M962.599 409.566 L962.599 395.538 L966.858 395.538 L966.858 431.556 L962.599 431.556 L962.599 427.667 Q961.256 429.982 959.196 431.117 Q957.159 432.228 954.289 432.228 Q949.59 432.228 946.627 428.478 Q943.687 424.728 943.687 418.617 Q943.687 412.506 946.627 408.756 Q949.59 405.006 954.289 405.006 Q957.159 405.006 959.196 406.14 Q961.256 407.251 962.599 409.566 M948.085 418.617 Q948.085 423.316 950.006 426.001 Q951.951 428.663 955.33 428.663 Q958.71 428.663 960.654 426.001 Q962.599 423.316 962.599 418.617 Q962.599 413.918 960.654 411.256 Q958.71 408.57 955.33 408.57 Q951.951 408.57 950.006 411.256 Q948.085 413.918 948.085 418.617 Z" fill="#000000" fill-rule="nonzero" fill-opacity="1" /><path clip-path="url(#clip440)" d="M997.182 415.908 L997.182 431.556 L992.923 431.556 L992.923 416.047 Q992.923 412.367 991.488 410.538 Q990.052 408.709 987.182 408.709 Q983.733 408.709 981.742 410.908 Q979.752 413.107 979.752 416.904 L979.752 431.556 L975.469 431.556 L975.469 405.631 L979.752 405.631 L979.752 409.658 Q981.279 407.32 983.339 406.163 Q985.423 405.006 988.131 405.006 Q992.599 405.006 994.89 407.783 Q997.182 410.538 997.182 415.908 Z" fill="#000000" fill-rule="nonzero" fill-opacity="1" /><path clip-path="url(#clip440)" d="M1005.68 395.538 L1009.94 395.538 L1009.94 431.556 L1005.68 431.556 L1005.68 395.538 Z" fill="#000000" fill-rule="nonzero" fill-opacity="1" /><path clip-path="url(#clip440)" d="M1022.97 427.667 L1022.97 441.417 L1018.69 441.417 L1018.69 405.631 L1022.97 405.631 L1022.97 409.566 Q1024.31 407.251 1026.35 406.14 Q1028.41 405.006 1031.26 405.006 Q1035.98 405.006 1038.92 408.756 Q1041.88 412.506 1041.88 418.617 Q1041.88 424.728 1038.92 428.478 Q1035.98 432.228 1031.26 432.228 Q1028.41 432.228 1026.35 431.117 Q1024.31 429.982 1022.97 427.667 M1037.46 418.617 Q1037.46 413.918 1035.52 411.256 Q1033.59 408.57 1030.21 408.57 Q1026.83 408.57 1024.89 411.256 Q1022.97 413.918 1022.97 418.617 Q1022.97 423.316 1024.89 426.001 Q1026.83 428.663 1030.21 428.663 Q1033.59 428.663 1035.52 426.001 Q1037.46 423.316 1037.46 418.617 Z" fill="#000000" fill-rule="nonzero" fill-opacity="1" /><path clip-path="url(#clip440)" d="M1048.27 395.584 L1051.97 395.584 Q1055.45 401.047 1057.16 406.279 Q1058.89 411.51 1058.89 416.672 Q1058.89 421.857 1057.16 427.112 Q1055.45 432.367 1051.97 437.806 L1048.27 437.806 Q1051.35 432.505 1052.85 427.274 Q1054.38 422.019 1054.38 416.672 Q1054.38 411.325 1052.85 406.117 Q1051.35 400.908 1048.27 395.584 Z" fill="#000000" fill-rule="nonzero" fill-opacity="1" /><path clip-path="url(#clip440)" d="M435.061 486.852 L652.575 486.852 L652.575 445.38 L435.061 445.38 L435.061 486.852  Z" fill="#ff6347" fill-rule="evenodd" fill-opacity="1"/>
<polyline clip-path="url(#clip440)" style="stroke:#000000; stroke-linecap:round; stroke-linejoin:round; stroke-width:0.8; stroke-opacity:0; fill:none" points="435.061,486.852 652.575,486.852 652.575,445.38 435.061,445.38 435.061,486.852 "/>
<path clip-path="url(#clip440)" d="M699.452 447.424 Q696.35 452.748 694.846 457.957 Q693.341 463.165 693.341 468.512 Q693.341 473.859 694.846 479.114 Q696.373 484.345 699.452 489.646 L695.748 489.646 Q692.276 484.207 690.54 478.952 Q688.827 473.697 688.827 468.512 Q688.827 463.35 690.54 458.119 Q692.253 452.887 695.748 447.424 L699.452 447.424 Z" fill="#000000" fill-rule="nonzero" fill-opacity="1" /><path clip-path="url(#clip440)" d="M729.892 469.369 L729.892 471.452 L710.309 471.452 Q710.586 475.85 712.947 478.165 Q715.332 480.457 719.568 480.457 Q722.021 480.457 724.313 479.855 Q726.628 479.253 728.896 478.049 L728.896 482.077 Q726.605 483.049 724.197 483.558 Q721.79 484.068 719.313 484.068 Q713.109 484.068 709.475 480.457 Q705.864 476.845 705.864 470.688 Q705.864 464.322 709.29 460.596 Q712.739 456.846 718.572 456.846 Q723.804 456.846 726.836 460.225 Q729.892 463.582 729.892 469.369 M725.633 468.119 Q725.586 464.623 723.665 462.54 Q721.767 460.457 718.619 460.457 Q715.054 460.457 712.901 462.471 Q710.771 464.484 710.447 468.142 L725.633 468.119 Z" fill="#000000" fill-rule="nonzero" fill-opacity="1" /><path clip-path="url(#clip440)" d="M757.6 457.471 L748.225 470.086 L758.086 483.396 L753.063 483.396 L745.517 473.211 L737.97 483.396 L732.947 483.396 L743.017 469.832 L733.804 457.471 L738.827 457.471 L745.702 466.707 L752.577 457.471 L757.6 457.471 Z" fill="#000000" fill-rule="nonzero" fill-opacity="1" /><path clip-path="url(#clip440)" d="M775.887 470.364 Q770.725 470.364 768.734 471.545 Q766.743 472.725 766.743 475.572 Q766.743 477.841 768.225 479.183 Q769.73 480.503 772.299 480.503 Q775.841 480.503 777.97 478.003 Q780.123 475.48 780.123 471.313 L780.123 470.364 L775.887 470.364 M784.382 468.605 L784.382 483.396 L780.123 483.396 L780.123 479.461 Q778.665 481.822 776.489 482.957 Q774.313 484.068 771.165 484.068 Q767.183 484.068 764.822 481.845 Q762.484 479.6 762.484 475.85 Q762.484 471.475 765.401 469.253 Q768.341 467.031 774.151 467.031 L780.123 467.031 L780.123 466.614 Q780.123 463.674 778.179 462.077 Q776.257 460.457 772.762 460.457 Q770.54 460.457 768.433 460.989 Q766.327 461.521 764.382 462.586 L764.382 458.651 Q766.72 457.748 768.919 457.309 Q771.118 456.846 773.202 456.846 Q778.827 456.846 781.604 459.762 Q784.382 462.679 784.382 468.605 Z" fill="#000000" fill-rule="nonzero" fill-opacity="1" /><path clip-path="url(#clip440)" d="M794.243 477.517 L799.128 477.517 L799.128 481.498 L795.331 488.906 L792.345 488.906 L794.243 481.498 L794.243 477.517 Z" fill="#000000" fill-rule="nonzero" fill-opacity="1" /><path clip-path="url(#clip440)" d="M823.294 457.471 L827.553 457.471 L827.553 483.396 L823.294 483.396 L823.294 457.471 M823.294 447.378 L827.553 447.378 L827.553 452.772 L823.294 452.772 L823.294 447.378 Z" fill="#000000" fill-rule="nonzero" fill-opacity="1" /><path clip-path="url(#clip440)" d="M840.586 479.507 L840.586 493.257 L836.303 493.257 L836.303 457.471 L840.586 457.471 L840.586 461.406 Q841.928 459.091 843.965 457.98 Q846.025 456.846 848.873 456.846 Q853.595 456.846 856.535 460.596 Q859.498 464.346 859.498 470.457 Q859.498 476.568 856.535 480.318 Q853.595 484.068 848.873 484.068 Q846.025 484.068 843.965 482.957 Q841.928 481.822 840.586 479.507 M855.076 470.457 Q855.076 465.758 853.132 463.096 Q851.211 460.41 847.831 460.41 Q844.451 460.41 842.507 463.096 Q840.586 465.758 840.586 470.457 Q840.586 475.156 842.507 477.841 Q844.451 480.503 847.831 480.503 Q851.211 480.503 853.132 477.841 Q855.076 475.156 855.076 470.457 Z" fill="#000000" fill-rule="nonzero" fill-opacity="1" /><path clip-path="url(#clip440)" d="M876.604 460.457 Q873.178 460.457 871.187 463.142 Q869.197 465.804 869.197 470.457 Q869.197 475.109 871.164 477.795 Q873.155 480.457 876.604 480.457 Q880.007 480.457 881.997 477.771 Q883.988 475.086 883.988 470.457 Q883.988 465.85 881.997 463.165 Q880.007 460.457 876.604 460.457 M876.604 456.846 Q882.159 456.846 885.331 460.457 Q888.502 464.068 888.502 470.457 Q888.502 476.822 885.331 480.457 Q882.159 484.068 876.604 484.068 Q871.025 484.068 867.854 480.457 Q864.706 476.822 864.706 470.457 Q864.706 464.068 867.854 460.457 Q871.025 456.846 876.604 456.846 Z" fill="#000000" fill-rule="nonzero" fill-opacity="1" /><path clip-path="url(#clip440)" d="M899.683 479.507 L899.683 493.257 L895.4 493.257 L895.4 457.471 L899.683 457.471 L899.683 461.406 Q901.025 459.091 903.062 457.98 Q905.122 456.846 907.97 456.846 Q912.692 456.846 915.632 460.596 Q918.594 464.346 918.594 470.457 Q918.594 476.568 915.632 480.318 Q912.692 484.068 907.97 484.068 Q905.122 484.068 903.062 482.957 Q901.025 481.822 899.683 479.507 M914.173 470.457 Q914.173 465.758 912.229 463.096 Q910.307 460.41 906.928 460.41 Q903.548 460.41 901.604 463.096 Q899.683 465.758 899.683 470.457 Q899.683 475.156 901.604 477.841 Q903.548 480.503 906.928 480.503 Q910.307 480.503 912.229 477.841 Q914.173 475.156 914.173 470.457 Z" fill="#000000" fill-rule="nonzero" fill-opacity="1" /><path clip-path="url(#clip440)" d="M929.868 450.11 L929.868 457.471 L938.641 457.471 L938.641 460.781 L929.868 460.781 L929.868 474.855 Q929.868 478.026 930.724 478.929 Q931.604 479.832 934.266 479.832 L938.641 479.832 L938.641 483.396 L934.266 483.396 Q929.335 483.396 927.46 481.568 Q925.585 479.716 925.585 474.855 L925.585 460.781 L922.46 460.781 L922.46 457.471 L925.585 457.471 L925.585 450.11 L929.868 450.11 Z" fill="#000000" fill-rule="nonzero" fill-opacity="1" /><path clip-path="url(#clip440)" d="M943.571 447.424 L947.275 447.424 Q950.747 452.887 952.46 458.119 Q954.196 463.35 954.196 468.512 Q954.196 473.697 952.46 478.952 Q950.747 484.207 947.275 489.646 L943.571 489.646 Q946.65 484.345 948.154 479.114 Q949.682 473.859 949.682 468.512 Q949.682 463.165 948.154 457.957 Q946.65 452.748 943.571 447.424 Z" fill="#000000" fill-rule="nonzero" fill-opacity="1" /><path clip-path="url(#clip440)" d="M435.061 538.692 L652.575 538.692 L652.575 497.22 L435.061 497.22 L435.061 538.692  Z" fill="#ff8c00" fill-rule="evenodd" fill-opacity="1"/>
<polyline clip-path="url(#clip440)" style="stroke:#000000; stroke-linecap:round; stroke-linejoin:round; stroke-width:0.8; stroke-opacity:0; fill:none" points="435.061,538.692 652.575,538.692 652.575,497.22 435.061,497.22 435.061,538.692 "/>
<path clip-path="url(#clip440)" d="M699.452 499.264 Q696.35 504.588 694.846 509.797 Q693.341 515.005 693.341 520.352 Q693.341 525.699 694.846 530.954 Q696.373 536.185 699.452 541.486 L695.748 541.486 Q692.276 536.047 690.54 530.792 Q688.827 525.537 688.827 520.352 Q688.827 515.19 690.54 509.959 Q692.253 504.727 695.748 499.264 L699.452 499.264 Z" fill="#000000" fill-rule="nonzero" fill-opacity="1" /><path clip-path="url(#clip440)" d="M729.892 521.209 L729.892 523.292 L710.309 523.292 Q710.586 527.69 712.947 530.005 Q715.332 532.297 719.568 532.297 Q722.021 532.297 724.313 531.695 Q726.628 531.093 728.896 529.889 L728.896 533.917 Q726.605 534.889 724.197 535.398 Q721.79 535.908 719.313 535.908 Q713.109 535.908 709.475 532.297 Q705.864 528.685 705.864 522.528 Q705.864 516.162 709.29 512.436 Q712.739 508.686 718.572 508.686 Q723.804 508.686 726.836 512.065 Q729.892 515.422 729.892 521.209 M725.633 519.959 Q725.586 516.463 723.665 514.38 Q721.767 512.297 718.619 512.297 Q715.054 512.297 712.901 514.311 Q710.771 516.324 710.447 519.982 L725.633 519.959 Z" fill="#000000" fill-rule="nonzero" fill-opacity="1" /><path clip-path="url(#clip440)" d="M757.6 509.311 L748.225 521.926 L758.086 535.236 L753.063 535.236 L745.517 525.051 L737.97 535.236 L732.947 535.236 L743.017 521.672 L733.804 509.311 L738.827 509.311 L745.702 518.547 L752.577 509.311 L757.6 509.311 Z" fill="#000000" fill-rule="nonzero" fill-opacity="1" /><path clip-path="url(#clip440)" d="M775.887 522.204 Q770.725 522.204 768.734 523.385 Q766.743 524.565 766.743 527.412 Q766.743 529.681 768.225 531.023 Q769.73 532.343 772.299 532.343 Q775.841 532.343 777.97 529.843 Q780.123 527.32 780.123 523.153 L780.123 522.204 L775.887 522.204 M784.382 520.445 L784.382 535.236 L780.123 535.236 L780.123 531.301 Q778.665 533.662 776.489 534.797 Q774.313 535.908 771.165 535.908 Q767.183 535.908 764.822 533.685 Q762.484 531.44 762.484 527.69 Q762.484 523.315 765.401 521.093 Q768.341 518.871 774.151 518.871 L780.123 518.871 L780.123 518.454 Q780.123 515.514 778.179 513.917 Q776.257 512.297 772.762 512.297 Q770.54 512.297 768.433 512.829 Q766.327 513.361 764.382 514.426 L764.382 510.491 Q766.72 509.588 768.919 509.149 Q771.118 508.686 773.202 508.686 Q778.827 508.686 781.604 511.602 Q784.382 514.519 784.382 520.445 Z" fill="#000000" fill-rule="nonzero" fill-opacity="1" /><path clip-path="url(#clip440)" d="M794.243 529.357 L799.128 529.357 L799.128 533.338 L795.331 540.746 L792.345 540.746 L794.243 533.338 L794.243 529.357 Z" fill="#000000" fill-rule="nonzero" fill-opacity="1" /><path clip-path="url(#clip440)" d="M843.479 514.287 Q845.076 511.417 847.299 510.051 Q849.521 508.686 852.53 508.686 Q856.581 508.686 858.78 511.533 Q860.979 514.357 860.979 519.588 L860.979 535.236 L856.697 535.236 L856.697 519.727 Q856.697 516 855.377 514.195 Q854.058 512.389 851.349 512.389 Q848.039 512.389 846.118 514.588 Q844.197 516.787 844.197 520.584 L844.197 535.236 L839.914 535.236 L839.914 519.727 Q839.914 515.977 838.595 514.195 Q837.275 512.389 834.521 512.389 Q831.257 512.389 829.336 514.611 Q827.414 516.811 827.414 520.584 L827.414 535.236 L823.132 535.236 L823.132 509.311 L827.414 509.311 L827.414 513.338 Q828.873 510.954 830.91 509.82 Q832.947 508.686 835.748 508.686 Q838.572 508.686 840.539 510.121 Q842.53 511.556 843.479 514.287 Z" fill="#000000" fill-rule="nonzero" fill-opacity="1" /><path clip-path="url(#clip440)" d="M881.257 522.204 Q876.095 522.204 874.104 523.385 Q872.113 524.565 872.113 527.412 Q872.113 529.681 873.595 531.023 Q875.099 532.343 877.669 532.343 Q881.21 532.343 883.34 529.843 Q885.493 527.32 885.493 523.153 L885.493 522.204 L881.257 522.204 M889.752 520.445 L889.752 535.236 L885.493 535.236 L885.493 531.301 Q884.034 533.662 881.859 534.797 Q879.683 535.908 876.534 535.908 Q872.553 535.908 870.192 533.685 Q867.854 531.44 867.854 527.69 Q867.854 523.315 870.771 521.093 Q873.71 518.871 879.521 518.871 L885.493 518.871 L885.493 518.454 Q885.493 515.514 883.548 513.917 Q881.627 512.297 878.132 512.297 Q875.91 512.297 873.803 512.829 Q871.697 513.361 869.752 514.426 L869.752 510.491 Q872.09 509.588 874.289 509.149 Q876.488 508.686 878.572 508.686 Q884.196 508.686 886.974 511.602 Q889.752 514.519 889.752 520.445 Z" fill="#000000" fill-rule="nonzero" fill-opacity="1" /><path clip-path="url(#clip440)" d="M915.585 513.246 L915.585 499.218 L919.844 499.218 L919.844 535.236 L915.585 535.236 L915.585 531.347 Q914.243 533.662 912.182 534.797 Q910.145 535.908 907.275 535.908 Q902.576 535.908 899.613 532.158 Q896.673 528.408 896.673 522.297 Q896.673 516.186 899.613 512.436 Q902.576 508.686 907.275 508.686 Q910.145 508.686 912.182 509.82 Q914.243 510.931 915.585 513.246 M901.071 522.297 Q901.071 526.996 902.993 529.681 Q904.937 532.343 908.317 532.343 Q911.696 532.343 913.641 529.681 Q915.585 526.996 915.585 522.297 Q915.585 517.598 913.641 514.936 Q911.696 512.25 908.317 512.25 Q904.937 512.25 902.993 514.936 Q901.071 517.598 901.071 522.297 Z" fill="#000000" fill-rule="nonzero" fill-opacity="1" /><path clip-path="url(#clip440)" d="M950.168 519.588 L950.168 535.236 L945.909 535.236 L945.909 519.727 Q945.909 516.047 944.474 514.218 Q943.039 512.389 940.168 512.389 Q936.719 512.389 934.729 514.588 Q932.738 516.787 932.738 520.584 L932.738 535.236 L928.456 535.236 L928.456 509.311 L932.738 509.311 L932.738 513.338 Q934.266 511 936.326 509.843 Q938.409 508.686 941.117 508.686 Q945.585 508.686 947.877 511.463 Q950.168 514.218 950.168 519.588 Z" fill="#000000" fill-rule="nonzero" fill-opacity="1" /><path clip-path="url(#clip440)" d="M958.664 499.218 L962.923 499.218 L962.923 535.236 L958.664 535.236 L958.664 499.218 Z" fill="#000000" fill-rule="nonzero" fill-opacity="1" /><path clip-path="url(#clip440)" d="M975.955 531.347 L975.955 545.097 L971.673 545.097 L971.673 509.311 L975.955 509.311 L975.955 513.246 Q977.298 510.931 979.335 509.82 Q981.395 508.686 984.242 508.686 Q988.964 508.686 991.904 512.436 Q994.867 516.186 994.867 522.297 Q994.867 528.408 991.904 532.158 Q988.964 535.908 984.242 535.908 Q981.395 535.908 979.335 534.797 Q977.298 533.662 975.955 531.347 M990.446 522.297 Q990.446 517.598 988.501 514.936 Q986.58 512.25 983.201 512.25 Q979.821 512.25 977.877 514.936 Q975.955 517.598 975.955 522.297 Q975.955 526.996 977.877 529.681 Q979.821 532.343 983.201 532.343 Q986.58 532.343 988.501 529.681 Q990.446 526.996 990.446 522.297 Z" fill="#000000" fill-rule="nonzero" fill-opacity="1" /><path clip-path="url(#clip440)" d="M1001.26 499.264 L1004.96 499.264 Q1008.43 504.727 1010.14 509.959 Q1011.88 515.19 1011.88 520.352 Q1011.88 525.537 1010.14 530.792 Q1008.43 536.047 1004.96 541.486 L1001.26 541.486 Q1004.33 536.185 1005.84 530.954 Q1007.37 525.699 1007.37 520.352 Q1007.37 515.005 1005.84 509.797 Q1004.33 504.588 1001.26 499.264 Z" fill="#000000" fill-rule="nonzero" fill-opacity="1" /><path clip-path="url(#clip440)" d="M435.061 590.532 L652.575 590.532 L652.575 549.06 L435.061 549.06 L435.061 590.532  Z" fill="#9370db" fill-rule="evenodd" fill-opacity="1"/>
<polyline clip-path="url(#clip440)" style="stroke:#000000; stroke-linecap:round; stroke-linejoin:round; stroke-width:0.8; stroke-opacity:0; fill:none" points="435.061,590.532 652.575,590.532 652.575,549.06 435.061,549.06 435.061,590.532 "/>
<path clip-path="url(#clip440)" d="M699.452 551.104 Q696.35 556.428 694.846 561.637 Q693.341 566.845 693.341 572.192 Q693.341 577.539 694.846 582.794 Q696.373 588.025 699.452 593.326 L695.748 593.326 Q692.276 587.887 690.54 582.632 Q688.827 577.377 688.827 572.192 Q688.827 567.03 690.54 561.799 Q692.253 556.567 695.748 551.104 L699.452 551.104 Z" fill="#000000" fill-rule="nonzero" fill-opacity="1" /><path clip-path="url(#clip440)" d="M707.716 561.151 L711.975 561.151 L711.975 587.539 Q711.975 592.493 710.077 594.715 Q708.202 596.937 704.012 596.937 L702.392 596.937 L702.392 593.326 L703.526 593.326 Q705.957 593.326 706.836 592.192 Q707.716 591.081 707.716 587.539 L707.716 561.151 M707.716 551.058 L711.975 551.058 L711.975 556.452 L707.716 556.452 L707.716 551.058 Z" fill="#000000" fill-rule="nonzero" fill-opacity="1" /><path clip-path="url(#clip440)" d="M720.447 576.845 L720.447 561.151 L724.707 561.151 L724.707 576.683 Q724.707 580.363 726.142 582.215 Q727.577 584.044 730.447 584.044 Q733.896 584.044 735.887 581.845 Q737.901 579.646 737.901 575.85 L737.901 561.151 L742.16 561.151 L742.16 587.076 L737.901 587.076 L737.901 583.095 Q736.35 585.456 734.29 586.613 Q732.253 587.748 729.545 587.748 Q725.077 587.748 722.762 584.97 Q720.447 582.192 720.447 576.845 M731.165 560.526 L731.165 560.526 Z" fill="#000000" fill-rule="nonzero" fill-opacity="1" /><path clip-path="url(#clip440)" d="M771.118 566.127 Q772.716 563.257 774.938 561.891 Q777.16 560.526 780.169 560.526 Q784.22 560.526 786.419 563.373 Q788.618 566.197 788.618 571.428 L788.618 587.076 L784.336 587.076 L784.336 571.567 Q784.336 567.84 783.016 566.035 Q781.697 564.229 778.989 564.229 Q775.679 564.229 773.757 566.428 Q771.836 568.627 771.836 572.424 L771.836 587.076 L767.554 587.076 L767.554 571.567 Q767.554 567.817 766.234 566.035 Q764.915 564.229 762.16 564.229 Q758.896 564.229 756.975 566.451 Q755.054 568.651 755.054 572.424 L755.054 587.076 L750.771 587.076 L750.771 561.151 L755.054 561.151 L755.054 565.178 Q756.512 562.794 758.549 561.66 Q760.586 560.526 763.387 560.526 Q766.211 560.526 768.179 561.961 Q770.169 563.396 771.118 566.127 Z" fill="#000000" fill-rule="nonzero" fill-opacity="1" /><path clip-path="url(#clip440)" d="M801.234 583.187 L801.234 596.937 L796.952 596.937 L796.952 561.151 L801.234 561.151 L801.234 565.086 Q802.577 562.771 804.614 561.66 Q806.674 560.526 809.521 560.526 Q814.243 560.526 817.183 564.276 Q820.146 568.026 820.146 574.137 Q820.146 580.248 817.183 583.998 Q814.243 587.748 809.521 587.748 Q806.674 587.748 804.614 586.637 Q802.577 585.502 801.234 583.187 M815.725 574.137 Q815.725 569.438 813.78 566.776 Q811.859 564.09 808.479 564.09 Q805.1 564.09 803.155 566.776 Q801.234 569.438 801.234 574.137 Q801.234 578.836 803.155 581.521 Q805.1 584.183 808.479 584.183 Q811.859 584.183 813.78 581.521 Q815.725 578.836 815.725 574.137 Z" fill="#000000" fill-rule="nonzero" fill-opacity="1" /><path clip-path="url(#clip440)" d="M828.294 581.197 L833.178 581.197 L833.178 585.178 L829.382 592.586 L826.396 592.586 L828.294 585.178 L828.294 581.197 Z" fill="#000000" fill-rule="nonzero" fill-opacity="1" /><path clip-path="url(#clip440)" d="M857.345 561.151 L861.604 561.151 L861.604 587.076 L857.345 587.076 L857.345 561.151 M857.345 551.058 L861.604 551.058 L861.604 556.452 L857.345 556.452 L857.345 551.058 Z" fill="#000000" fill-rule="nonzero" fill-opacity="1" /><path clip-path="url(#clip440)" d="M874.636 583.187 L874.636 596.937 L870.354 596.937 L870.354 561.151 L874.636 561.151 L874.636 565.086 Q875.979 562.771 878.016 561.66 Q880.076 560.526 882.923 560.526 Q887.646 560.526 890.585 564.276 Q893.548 568.026 893.548 574.137 Q893.548 580.248 890.585 583.998 Q887.646 587.748 882.923 587.748 Q880.076 587.748 878.016 586.637 Q875.979 585.502 874.636 583.187 M889.127 574.137 Q889.127 569.438 887.183 566.776 Q885.261 564.09 881.882 564.09 Q878.502 564.09 876.558 566.776 Q874.636 569.438 874.636 574.137 Q874.636 578.836 876.558 581.521 Q878.502 584.183 881.882 584.183 Q885.261 584.183 887.183 581.521 Q889.127 578.836 889.127 574.137 Z" fill="#000000" fill-rule="nonzero" fill-opacity="1" /><path clip-path="url(#clip440)" d="M910.655 564.137 Q907.229 564.137 905.238 566.822 Q903.247 569.484 903.247 574.137 Q903.247 578.789 905.215 581.475 Q907.206 584.137 910.655 584.137 Q914.057 584.137 916.048 581.451 Q918.039 578.766 918.039 574.137 Q918.039 569.53 916.048 566.845 Q914.057 564.137 910.655 564.137 M910.655 560.526 Q916.21 560.526 919.381 564.137 Q922.553 567.748 922.553 574.137 Q922.553 580.502 919.381 584.137 Q916.21 587.748 910.655 587.748 Q905.076 587.748 901.905 584.137 Q898.757 580.502 898.757 574.137 Q898.757 567.748 901.905 564.137 Q905.076 560.526 910.655 560.526 Z" fill="#000000" fill-rule="nonzero" fill-opacity="1" /><path clip-path="url(#clip440)" d="M933.733 583.187 L933.733 596.937 L929.451 596.937 L929.451 561.151 L933.733 561.151 L933.733 565.086 Q935.076 562.771 937.113 561.66 Q939.173 560.526 942.02 560.526 Q946.742 560.526 949.682 564.276 Q952.645 568.026 952.645 574.137 Q952.645 580.248 949.682 583.998 Q946.742 587.748 942.02 587.748 Q939.173 587.748 937.113 586.637 Q935.076 585.502 933.733 583.187 M948.224 574.137 Q948.224 569.438 946.279 566.776 Q944.358 564.09 940.979 564.09 Q937.599 564.09 935.655 566.776 Q933.733 569.438 933.733 574.137 Q933.733 578.836 935.655 581.521 Q937.599 584.183 940.979 584.183 Q944.358 584.183 946.279 581.521 Q948.224 578.836 948.224 574.137 Z" fill="#000000" fill-rule="nonzero" fill-opacity="1" /><path clip-path="url(#clip440)" d="M963.918 553.79 L963.918 561.151 L972.691 561.151 L972.691 564.461 L963.918 564.461 L963.918 578.535 Q963.918 581.706 964.775 582.609 Q965.654 583.512 968.316 583.512 L972.691 583.512 L972.691 587.076 L968.316 587.076 Q963.386 587.076 961.511 585.248 Q959.636 583.396 959.636 578.535 L959.636 564.461 L956.511 564.461 L956.511 561.151 L959.636 561.151 L959.636 553.79 L963.918 553.79 Z" fill="#000000" fill-rule="nonzero" fill-opacity="1" /><path clip-path="url(#clip440)" d="M977.622 551.104 L981.326 551.104 Q984.798 556.567 986.511 561.799 Q988.247 567.03 988.247 572.192 Q988.247 577.377 986.511 582.632 Q984.798 587.887 981.326 593.326 L977.622 593.326 Q980.701 588.025 982.205 582.794 Q983.733 577.539 983.733 572.192 Q983.733 566.845 982.205 561.637 Q980.701 556.428 977.622 551.104 Z" fill="#000000" fill-rule="nonzero" fill-opacity="1" /><path clip-path="url(#clip440)" d="M435.061 642.372 L652.575 642.372 L652.575 600.9 L435.061 600.9 L435.061 642.372  Z" fill="#a0522d" fill-rule="evenodd" fill-opacity="1"/>
<polyline clip-path="url(#clip440)" style="stroke:#000000; stroke-linecap:round; stroke-linejoin:round; stroke-width:0.8; stroke-opacity:0; fill:none" points="435.061,642.372 652.575,642.372 652.575,600.9 435.061,600.9 435.061,642.372 "/>
<path clip-path="url(#clip440)" d="M699.452 602.944 Q696.35 608.268 694.846 613.477 Q693.341 618.685 693.341 624.032 Q693.341 629.379 694.846 634.634 Q696.373 639.865 699.452 645.166 L695.748 645.166 Q692.276 639.727 690.54 634.472 Q688.827 629.217 688.827 624.032 Q688.827 618.87 690.54 613.639 Q692.253 608.407 695.748 602.944 L699.452 602.944 Z" fill="#000000" fill-rule="nonzero" fill-opacity="1" /><path clip-path="url(#clip440)" d="M707.716 612.991 L711.975 612.991 L711.975 639.379 Q711.975 644.333 710.077 646.555 Q708.202 648.777 704.012 648.777 L702.392 648.777 L702.392 645.166 L703.526 645.166 Q705.957 645.166 706.836 644.032 Q707.716 642.921 707.716 639.379 L707.716 612.991 M707.716 602.898 L711.975 602.898 L711.975 608.292 L707.716 608.292 L707.716 602.898 Z" fill="#000000" fill-rule="nonzero" fill-opacity="1" /><path clip-path="url(#clip440)" d="M720.447 628.685 L720.447 612.991 L724.707 612.991 L724.707 628.523 Q724.707 632.203 726.142 634.055 Q727.577 635.884 730.447 635.884 Q733.896 635.884 735.887 633.685 Q737.901 631.486 737.901 627.69 L737.901 612.991 L742.16 612.991 L742.16 638.916 L737.901 638.916 L737.901 634.935 Q736.35 637.296 734.29 638.453 Q732.253 639.588 729.545 639.588 Q725.077 639.588 722.762 636.81 Q720.447 634.032 720.447 628.685 M731.165 612.366 L731.165 612.366 Z" fill="#000000" fill-rule="nonzero" fill-opacity="1" /><path clip-path="url(#clip440)" d="M771.118 617.967 Q772.716 615.097 774.938 613.731 Q777.16 612.366 780.169 612.366 Q784.22 612.366 786.419 615.213 Q788.618 618.037 788.618 623.268 L788.618 638.916 L784.336 638.916 L784.336 623.407 Q784.336 619.68 783.016 617.875 Q781.697 616.069 778.989 616.069 Q775.679 616.069 773.757 618.268 Q771.836 620.467 771.836 624.264 L771.836 638.916 L767.554 638.916 L767.554 623.407 Q767.554 619.657 766.234 617.875 Q764.915 616.069 762.16 616.069 Q758.896 616.069 756.975 618.291 Q755.054 620.491 755.054 624.264 L755.054 638.916 L750.771 638.916 L750.771 612.991 L755.054 612.991 L755.054 617.018 Q756.512 614.634 758.549 613.5 Q760.586 612.366 763.387 612.366 Q766.211 612.366 768.179 613.801 Q770.169 615.236 771.118 617.967 Z" fill="#000000" fill-rule="nonzero" fill-opacity="1" /><path clip-path="url(#clip440)" d="M801.234 635.027 L801.234 648.777 L796.952 648.777 L796.952 612.991 L801.234 612.991 L801.234 616.926 Q802.577 614.611 804.614 613.5 Q806.674 612.366 809.521 612.366 Q814.243 612.366 817.183 616.116 Q820.146 619.866 820.146 625.977 Q820.146 632.088 817.183 635.838 Q814.243 639.588 809.521 639.588 Q806.674 639.588 804.614 638.477 Q802.577 637.342 801.234 635.027 M815.725 625.977 Q815.725 621.278 813.78 618.616 Q811.859 615.93 808.479 615.93 Q805.1 615.93 803.155 618.616 Q801.234 621.278 801.234 625.977 Q801.234 630.676 803.155 633.361 Q805.1 636.023 808.479 636.023 Q811.859 636.023 813.78 633.361 Q815.725 630.676 815.725 625.977 Z" fill="#000000" fill-rule="nonzero" fill-opacity="1" /><path clip-path="url(#clip440)" d="M828.294 633.037 L833.178 633.037 L833.178 637.018 L829.382 644.426 L826.396 644.426 L828.294 637.018 L828.294 633.037 Z" fill="#000000" fill-rule="nonzero" fill-opacity="1" /><path clip-path="url(#clip440)" d="M877.53 617.967 Q879.127 615.097 881.349 613.731 Q883.571 612.366 886.581 612.366 Q890.632 612.366 892.831 615.213 Q895.03 618.037 895.03 623.268 L895.03 638.916 L890.747 638.916 L890.747 623.407 Q890.747 619.68 889.428 617.875 Q888.109 616.069 885.4 616.069 Q882.09 616.069 880.169 618.268 Q878.247 620.467 878.247 624.264 L878.247 638.916 L873.965 638.916 L873.965 623.407 Q873.965 619.657 872.646 617.875 Q871.326 616.069 868.572 616.069 Q865.308 616.069 863.386 618.291 Q861.465 620.491 861.465 624.264 L861.465 638.916 L857.183 638.916 L857.183 612.991 L861.465 612.991 L861.465 617.018 Q862.923 614.634 864.96 613.5 Q866.998 612.366 869.798 612.366 Q872.622 612.366 874.59 613.801 Q876.581 615.236 877.53 617.967 Z" fill="#000000" fill-rule="nonzero" fill-opacity="1" /><path clip-path="url(#clip440)" d="M915.307 625.884 Q910.145 625.884 908.155 627.065 Q906.164 628.245 906.164 631.092 Q906.164 633.361 907.645 634.703 Q909.15 636.023 911.719 636.023 Q915.261 636.023 917.391 633.523 Q919.544 631 919.544 626.833 L919.544 625.884 L915.307 625.884 M923.803 624.125 L923.803 638.916 L919.544 638.916 L919.544 634.981 Q918.085 637.342 915.909 638.477 Q913.733 639.588 910.585 639.588 Q906.604 639.588 904.243 637.365 Q901.905 635.12 901.905 631.37 Q901.905 626.995 904.821 624.773 Q907.761 622.551 913.571 622.551 L919.544 622.551 L919.544 622.134 Q919.544 619.194 917.599 617.597 Q915.678 615.977 912.182 615.977 Q909.96 615.977 907.854 616.509 Q905.747 617.041 903.803 618.106 L903.803 614.171 Q906.141 613.268 908.34 612.829 Q910.539 612.366 912.622 612.366 Q918.247 612.366 921.025 615.282 Q923.803 618.199 923.803 624.125 Z" fill="#000000" fill-rule="nonzero" fill-opacity="1" /><path clip-path="url(#clip440)" d="M949.636 616.926 L949.636 602.898 L953.895 602.898 L953.895 638.916 L949.636 638.916 L949.636 635.027 Q948.293 637.342 946.233 638.477 Q944.196 639.588 941.326 639.588 Q936.627 639.588 933.664 635.838 Q930.724 632.088 930.724 625.977 Q930.724 619.866 933.664 616.116 Q936.627 612.366 941.326 612.366 Q944.196 612.366 946.233 613.5 Q948.293 614.611 949.636 616.926 M935.122 625.977 Q935.122 630.676 937.043 633.361 Q938.988 636.023 942.367 636.023 Q945.747 636.023 947.692 633.361 Q949.636 630.676 949.636 625.977 Q949.636 621.278 947.692 618.616 Q945.747 615.93 942.367 615.93 Q938.988 615.93 937.043 618.616 Q935.122 621.278 935.122 625.977 Z" fill="#000000" fill-rule="nonzero" fill-opacity="1" /><path clip-path="url(#clip440)" d="M984.219 623.268 L984.219 638.916 L979.96 638.916 L979.96 623.407 Q979.96 619.727 978.525 617.898 Q977.09 616.069 974.219 616.069 Q970.77 616.069 968.779 618.268 Q966.789 620.467 966.789 624.264 L966.789 638.916 L962.506 638.916 L962.506 612.991 L966.789 612.991 L966.789 617.018 Q968.316 614.68 970.377 613.523 Q972.46 612.366 975.168 612.366 Q979.636 612.366 981.927 615.143 Q984.219 617.898 984.219 623.268 Z" fill="#000000" fill-rule="nonzero" fill-opacity="1" /><path clip-path="url(#clip440)" d="M992.714 602.898 L996.974 602.898 L996.974 638.916 L992.714 638.916 L992.714 602.898 Z" fill="#000000" fill-rule="nonzero" fill-opacity="1" /><path clip-path="url(#clip440)" d="M1010.01 635.027 L1010.01 648.777 L1005.72 648.777 L1005.72 612.991 L1010.01 612.991 L1010.01 616.926 Q1011.35 614.611 1013.39 613.5 Q1015.45 612.366 1018.29 612.366 Q1023.02 612.366 1025.95 616.116 Q1028.92 619.866 1028.92 625.977 Q1028.92 632.088 1025.95 635.838 Q1023.02 639.588 1018.29 639.588 Q1015.45 639.588 1013.39 638.477 Q1011.35 637.342 1010.01 635.027 M1024.5 625.977 Q1024.5 621.278 1022.55 618.616 Q1020.63 615.93 1017.25 615.93 Q1013.87 615.93 1011.93 618.616 Q1010.01 621.278 1010.01 625.977 Q1010.01 630.676 1011.93 633.361 Q1013.87 636.023 1017.25 636.023 Q1020.63 636.023 1022.55 633.361 Q1024.5 630.676 1024.5 625.977 Z" fill="#000000" fill-rule="nonzero" fill-opacity="1" /><path clip-path="url(#clip440)" d="M1035.31 602.944 L1039.01 602.944 Q1042.48 608.407 1044.2 613.639 Q1045.93 618.87 1045.93 624.032 Q1045.93 629.217 1044.2 634.472 Q1042.48 639.727 1039.01 645.166 L1035.31 645.166 Q1038.39 639.865 1039.89 634.634 Q1041.42 629.379 1041.42 624.032 Q1041.42 618.685 1039.89 613.477 Q1038.39 608.268 1035.31 602.944 Z" fill="#000000" fill-rule="nonzero" fill-opacity="1" /></svg>
